<svg id="z14495" class="acjk" viewBox="0 0 1024 1024" xmlns="http://www.w3.org/2000/svg">
  <path id="z14495d1" d="M 659 326 Q 662 414 664 490 L 665 519 Q 668 646 669 647 Q 668 650 667 650 Q 648 669 630 679 L 596 664 Q 611 634 614 525 Q 614 455 614 319 C 614 289 658 296 659 326 Z"/>
  <path id="z14495d2" d="M 664 490 Q 704 480 798 503 Q 808 506 820 509 Q 835 513 837 515 Q 846 524 840 532 Q 833 544 802 549 Q 771 552 741 537 Q 725 531 706 526 Q 687 522 665 519 C 635 515 635 496 664 490 Z"/>
  <path id="z14495d3" d="M 614 319 Q 574 313 537 304 Q 527 300 525 304 Q 516 310 518 327 Q 519 438 527 470 Q 531 485 519 495 Q 497 514 467 521 Q 454 524 446 516 Q 442 509 453 494 Q 472 469 475 431 Q 485 335 457 284 Q 447 269 453 260 Q 460 242 478 230 Q 488 221 503 234 Q 578 285 756 285 Q 787 286 824 283 Q 846 279 854 285 Q 861 291 855 302 Q 851 314 814 334 Q 796 344 719 333 Q 713 336 659 326 L 614 319 Z"/>
  <path id="z14495d4" d="M 321 260 Q 376 381 378 382 Q 384 391 397 401 Q 406 407 399 423 Q 392 433 353 454 Q 346 461 285 450 Q 273 446 268 452 Q 262 461 280 505 Q 337 623 373 644 Q 394 657 378 675 Q 348 697 320 703 Q 304 707 284 690 Q 265 674 217 658 Q 165 642 143 645 Q 130 646 127 639 Q 123 632 134 625 Q 171 603 198 613 Q 231 619 272 638 Q 284 644 287 641 Q 296 626 234 491 Q 227 469 208 452 Q 195 442 199 429 Q 202 419 208 412 Q 221 399 239 411 Q 303 441 317 415 Q 320 403 310 373 Q 297 319 282 282 L 266 250 L 266 249 Q 212 156 71 69 Q 59 59 68 54 Q 81 53 109 66 Q 205 109 262 168 Q 283 192 304 228 L 321 260 Z"/>
  <path id="z14495d5" d="M 304 228 Q 323 218 343 205 Q 466 114 690 1 Q 738 -14 935 45 Q 948 52 951 62 Q 954 72 929 71 Q 853 81 768 84 Q 567 97 334 253 Q 327 257 321 260 L 282 282 Q 206 331 138 313 Q 128 307 133 298 Q 140 288 153 288 Q 205 287 266 250 L 304 228 Z"/>
<defs>
  <clipPath id="z14495c1"><use href="#z14495d1"/></clipPath>
  <clipPath id="z14495c2"><use href="#z14495d2"/></clipPath>
  <clipPath id="z14495c3"><use href="#z14495d3"/></clipPath>
  <clipPath id="z14495c4"><use href="#z14495d4"/></clipPath>
  <clipPath id="z14495c5"><use href="#z14495d5"/></clipPath>
</defs>
<path style="--d:1s;" pathLength="3333" clip-path="url(#z14495c1)" d="M 603 663 L 631 645 L 639 599 L 637 346 L 620 329"/>
<path style="--d:2s;" pathLength="3333" clip-path="url(#z14495c2)" d="M 670 497 L 794 527 L 830 525"/>
<path style="--d:3s;" pathLength="3333" clip-path="url(#z14495c3)" d="M 455 511 L 480 494 L 497 472 L 497 276 L 528 277 L 675 307 L 734 311 L 797 312 L 845 294"/>
<path style="--d:4s;" pathLength="3333" clip-path="url(#z14495c4)" d="M 136 635 L 188 630 L 295 666 L 310 667 L 325 658 L 311 613 L 255 497 L 241 441 L 269 434 L 298 442 L 318 439 L 341 429 L 354 410 L 307 280 L 273 219 L 242 178 L 167 115 L 73 61"/>
<path style="--d:5s;" pathLength="3333" clip-path="url(#z14495c5)" d="M 145 302 L 185 302 L 224 292 L 333 233 L 470 147 L 616 77 L 706 44 L 792 45 L 941 61"/>
</svg>