<svg id="z20831" class="acjk" viewBox="0 0 1024 1024" xmlns="http://www.w3.org/2000/svg">
  <path id="z20831d1" d="M 220 549 Q 262 639 263 639 Q 262 642 261 644 Q 257 653 232 667 Q 210 677 196 675 Q 183 672 191 656 Q 218 617 118 432 Q 111 423 110 418 Q 109 409 119 413 Q 152 425 210 531 L 220 549 Z"/>
  <path id="z20831d2" d="M 362 538 Q 392 547 427 554 Q 455 561 460 566 Q 467 573 463 581 Q 456 591 429 597 Q 408 600 366 586 L 318 570 Q 311 569 307 567 Q 268 557 223 550 Q 220 550 220 549 C 191 542 187 542 210 531 Q 211 531 214 529 Q 245 514 317 527 L 362 538 Z"/>
  <path id="z20831d3" d="M 353 432 Q 357 487 362 538 L 366 586 Q 367 655 386 718 Q 390 728 372 742 Q 341 760 318 764 Q 303 767 296 760 Q 289 753 296 739 Q 315 711 315 692 Q 318 634 318 570 L 317 527 Q 316 475 313 419 C 311 389 351 402 353 432 Z"/>
  <path id="z20831d4" d="M 291 375 Q 364 397 459 416 Q 475 419 475 426 Q 475 439 457 446 Q 432 455 410 449 Q 379 440 353 432 L 313 419 Q 136 373 70 361 Q 58 360 56 351 Q 53 341 68 331 Q 108 307 145 323 Q 205 348 254 363 L 291 375 Z"/>
  <path id="z20831d5" d="M 323 328 Q 323 350 291 375 C 268 394 247 392 254 363 Q 255 362 256 359 Q 274 274 70 50 Q 55 41 56 32 Q 56 28 61 27 Q 146 43 282 256 Q 285 265 310 302 C 324 323 324 323 323 328 Z"/>
  <path id="z20831d6" d="M 310 302 Q 322 274 321 247 Q 320 166 311 139 Q 310 112 298 96 Q 288 77 297 57 Q 309 29 325 19 Q 335 12 345 30 Q 373 79 471 208 Q 484 224 483 231 Q 482 243 466 229 Q 421 189 371 143 Q 364 136 359 137 Q 355 138 353 147 Q 362 247 369 272 Q 373 290 362 301 Q 341 325 323 328 C 297 338 300 330 310 302 Z"/>
  <path id="z20831d7" d="M 578 562 Q 587 584 619 641 Q 626 651 613 662 Q 577 686 554 680 Q 545 677 549 665 Q 567 604 506 507 Q 500 507 480 470 Q 474 457 486 462 Q 520 474 566 541 L 578 562 Z"/>
  <path id="z20831d8" d="M 710 547 Q 747 557 788 566 Q 819 573 824 578 Q 831 585 827 593 Q 820 603 793 610 Q 774 613 713 593 L 662 577 Q 622 570 578 562 C 548 557 539 553 566 541 Q 605 522 656 534 Q 657 535 663 535 L 710 547 Z"/>
  <path id="z20831d9" d="M 701 435 Q 705 493 710 547 L 713 593 Q 713 675 733 748 Q 737 758 717 773 Q 683 792 660 795 Q 644 799 636 790 Q 629 783 637 768 Q 658 738 658 718 Q 662 651 662 577 L 663 535 Q 662 483 660 425 C 659 395 699 405 701 435 Z"/>
  <path id="z20831d10" d="M 660 425 Q 561 404 449 380 Q 431 376 446 363 Q 473 342 506 351 Q 647 402 872 419 Q 888 420 905 421 Q 921 422 925 430 Q 929 440 914 451 Q 860 487 821 467 Q 772 454 701 435 L 660 425 Z"/>
  <path id="z20831d11" d="M 573 289 Q 595 196 433 5 Q 429 1 428 -5 Q 428 -9 433 -9 Q 500 6 612 197 Q 618 218 639 244 Q 643 254 637 266 Q 621 288 607 298 Q 594 307 581 306 Q 568 306 573 289 Z"/>
  <path id="z20831d12" d="M 681 262 Q 663 58 701 24 Q 773 -30 908 2 Q 909 3 913 3 Q 944 12 977 32 Q 995 47 981 70 Q 966 98 945 188 Q 944 201 937 206 Q 931 209 928 193 Q 912 96 898 65 Q 873 41 801 43 Q 773 44 751 53 Q 732 62 726 74 Q 702 126 735 307 Q 741 334 695 355 Q 683 359 675 354 Q 668 351 673 334 Q 685 297 681 262 Z"/>
<defs>
  <clipPath id="z20831c1"><use href="#z20831d1"/></clipPath>
  <clipPath id="z20831c2"><use href="#z20831d2"/></clipPath>
  <clipPath id="z20831c3"><use href="#z20831d3"/></clipPath>
  <clipPath id="z20831c4"><use href="#z20831d4"/></clipPath>
  <clipPath id="z20831c5"><use href="#z20831d5"/></clipPath>
  <clipPath id="z20831c6"><use href="#z20831d6"/></clipPath>
  <clipPath id="z20831c7"><use href="#z20831d7"/></clipPath>
  <clipPath id="z20831c8"><use href="#z20831d8"/></clipPath>
  <clipPath id="z20831c9"><use href="#z20831d9"/></clipPath>
  <clipPath id="z20831c10"><use href="#z20831d10"/></clipPath>
  <clipPath id="z20831c11"><use href="#z20831d11"/></clipPath>
  <clipPath id="z20831c12"><use href="#z20831d12"/></clipPath>
</defs>
<path style="--d:1s;" pathLength="3333" clip-path="url(#z20831c1)" d="M 198 664 L 227 635 L 216 592 L 169 492 L 116 419"/>
<path style="--d:2s;" pathLength="3333" clip-path="url(#z20831c2)" d="M 214 535 L 286 541 L 413 575 L 452 575"/>
<path style="--d:3s;" pathLength="3333" clip-path="url(#z20831c3)" d="M 306 751 L 348 715 L 334 447 L 318 427"/>
<path style="--d:4s;" pathLength="3333" clip-path="url(#z20831c4)" d="M 69 348 L 98 342 L 130 346 L 408 427 L 465 429"/>
<path style="--d:5s;" pathLength="3333" clip-path="url(#z20831c5)" d="M 261 364 L 285 344 L 289 332 L 257 257 L 151 111 L 95 56 L 64 35"/>
<path style="--d:6s;" pathLength="3333" clip-path="url(#z20831c6)" d="M 326 318 L 344 281 L 333 138 L 344 101 L 376 119 L 475 229"/>
<path style="--d:7s;" pathLength="3333" clip-path="url(#z20831c7)" d="M 561 669 L 584 643 L 571 596 L 528 514 L 488 470"/>
<path style="--d:8s;" pathLength="3333" clip-path="url(#z20831c8)" d="M 575 543 L 588 549 L 664 556 L 761 584 L 816 587"/>
<path style="--d:9s;" pathLength="3333" clip-path="url(#z20831c9)" d="M 648 781 L 681 756 L 693 734 L 682 458 L 665 433"/>
<path style="--d:10s;" pathLength="3333" clip-path="url(#z20831c10)" d="M 448 371 L 484 367 L 837 444 L 865 446 L 915 434"/>
<path style="--d:11s;" pathLength="3333" clip-path="url(#z20831c11)" d="M 581 296 L 593 286 L 605 251 L 577 177 L 504 66 L 435 -2"/>
<path style="--d:12s;" pathLength="3333" clip-path="url(#z20831c12)" d="M 683 345 L 705 317 L 708 300 L 696 198 L 699 88 L 712 50 L 739 30 L 798 16 L 842 17 L 893 27 L 930 47 L 940 59 L 935 160 L 939 175 L 934 198"/>
</svg>