<svg id="z26454" class="acjk" viewBox="0 0 1024 1024" xmlns="http://www.w3.org/2000/svg">
  <path id="z26454d1" d="M 322 495 Q 412 525 418 531 Q 425 540 420 548 Q 413 560 382 564 Q 351 567 324 553 L 278 532 Q 178 496 98 479 Q 61 469 90 455 Q 135 434 190 454 Q 224 466 263 476 L 322 495 Z"/>
  <path id="z26454d2" d="M 318 387 Q 319 438 322 495 L 324 553 Q 324 670 346 743 Q 359 770 335 787 Q 319 799 290 817 Q 266 835 245 819 Q 241 815 246 799 Q 276 750 278 672 Q 278 603 278 532 L 272 386 Q 263 203 260 182 Q 236 65 237 62 Q 237 49 255 3 Q 262 -16 270 -19 Q 276 -26 284 -17 Q 291 -13 302 8 Q 312 33 312 64 Q 311 101 318 357 L 318 387 Z"/>
  <path id="z26454d3" d="M 263 476 Q 206 338 42 129 Q 38 119 48 118 Q 54 117 63 126 Q 196 238 272 386 C 333 503 275 504 263 476 Z"/>
  <path id="z26454d4" d="M 318 357 Q 330 350 382 300 Q 392 290 405 290 Q 414 290 417 301 Q 421 311 414 335 Q 408 362 325 386 Q 322 387 318 387 C 288 390 293 374 318 357 Z"/>
  <path id="z26454d5" d="M 669 486 Q 717 501 824 521 Q 834 520 843 534 Q 843 544 820 554 Q 786 575 708 543 Q 690 539 673 531 L 626 517 Q 602 511 458 481 Q 430 475 453 460 Q 489 436 516 445 Q 564 460 623 474 L 669 486 Z"/>
  <path id="z26454d6" d="M 579 223 Q 540 141 399 78 Q 386 72 385 67 Q 386 63 398 62 Q 414 58 454 69 Q 521 85 569 130 Q 593 152 610 180 L 635 229 Q 653 283 669 486 L 673 531 Q 679 681 710 740 Q 717 755 706 767 Q 684 786 643 799 Q 618 806 608 800 Q 598 793 605 780 Q 627 741 630 692 Q 631 604 626 517 L 623 474 Q 614 332 596 270 L 579 223 Z"/>
  <path id="z26454d7" d="M 610 180 Q 731 24 789 15 Q 801 15 931 26 Q 946 27 960 34 Q 969 41 956 51 Q 940 61 807 109 Q 726 139 635 229 L 596 270 Q 559 310 520 360 Q 499 388 462 395 Q 452 396 444 392 Q 440 386 447 380 Q 454 373 463 367 Q 484 357 579 223 L 610 180 Z"/>
<defs>
  <clipPath id="z26454c1"><use href="#z26454d1"/></clipPath>
  <clipPath id="z26454c2"><use href="#z26454d2"/></clipPath>
  <clipPath id="z26454c3"><use href="#z26454d3"/></clipPath>
  <clipPath id="z26454c4"><use href="#z26454d4"/></clipPath>
  <clipPath id="z26454c5"><use href="#z26454d5"/></clipPath>
  <clipPath id="z26454c6"><use href="#z26454d6"/></clipPath>
  <clipPath id="z26454c7"><use href="#z26454d7"/></clipPath>
</defs>
<path style="--d:1s;" pathLength="3333" clip-path="url(#z26454c1)" d="M 91 468 L 150 467 L 362 537 L 410 540"/>
<path style="--d:2s;" pathLength="3333" clip-path="url(#z26454c2)" d="M 257 812 L 292 778 L 308 747 L 292 271 L 275 69 L 275 -5"/>
<path style="--d:3s;" pathLength="3333" clip-path="url(#z26454c3)" d="M 271 472 L 248 390 L 209 323 L 147 235 L 50 126"/>
<path style="--d:4s;" pathLength="3333" clip-path="url(#z26454c4)" d="M 321 380 L 384 334 L 405 302"/>
<path style="--d:5s;" pathLength="3333" clip-path="url(#z26454c5)" d="M 454 471 L 506 467 L 758 534 L 800 539 L 832 534"/>
<path style="--d:6s;" pathLength="3333" clip-path="url(#z26454c6)" d="M 616 789 L 661 749 L 664 729 L 640 391 L 629 309 L 612 240 L 587 187 L 528 126 L 457 87 L 392 66"/>
<path style="--d:7s;" pathLength="3333" clip-path="url(#z26454c7)" d="M 450 387 L 495 362 L 638 187 L 699 127 L 749 88 L 794 63 L 954 41"/>
</svg>