<svg id="z25173" class="acjk" viewBox="0 0 1024 1024" xmlns="http://www.w3.org/2000/svg">
  <path id="z25173d1" d="M 349 519 L 439 546 Q 453 551 459 555 Q 472 569 453 581 Q 441 588 421 591 Q 390 596 349 576 L 297 557 Q 198 531 157 523 Q 118 513 147 497 Q 188 479 229 488 L 284 503 L 297 505 L 349 519 Z"/>
  <path id="z25173d2" d="M 294 302 L 292 132 Q 292 110 278 100 Q 273 98 207 110 Q 172 123 175 112 Q 176 105 207 80 Q 253 41 268 20 Q 272 14 274 7 Q 310 -58 335 -6 Q 336 -2 339 5 Q 359 53 357 129 Q 351 243 347 341 L 347 374 Q 346 443 349 519 L 349 576 Q 361 720 369 746 Q 387 777 329 800 Q 295 818 274 811 Q 257 805 272 782 Q 289 760 293 735 Q 298 711 297 597 Q 297 574 297 557 L 297 505 Q 296 437 294 347 L 294 302 Z"/>
  <path id="z25173d3" d="M 294 347 L 88 241 Q 71 241 67 225 Q 66 207 102 186 Q 112 180 122 176 Q 137 172 149 184 Q 206 237 294 302 L 347 341 Q 355 347 396 374 Q 416 388 421 398 Q 429 411 417 411 Q 400 410 347 374 L 294 347 Z"/>
  <path id="z25173d4" d="M 800 308 Q 659 280 590 263 Q 579 259 576 261 Q 569 268 578 286 Q 724 608 738 629 Q 749 645 741 655 Q 732 666 696 678 Q 655 694 642 686 Q 627 676 639 655 Q 653 627 641 581 Q 600 425 549 321 Q 531 287 492 250 Q 470 227 466 220 Q 465 212 467 205 Q 475 186 508 167 Q 522 157 535 171 Q 572 209 804 276 Q 807 280 815 281 C 843 291 829 314 800 308 Z"/>
  <path id="z25173d5" d="M 815 281 Q 821 272 851 221 Q 864 198 876 192 Q 882 190 894 198 Q 909 208 907 257 Q 906 320 753 425 Q 743 433 738 420.5 Q 733 408 743 394 Q 774 349 800 308 L 815 281 Z"/>
<defs>
  <clipPath id="z25173c1"><use href="#z25173d1"/></clipPath>
  <clipPath id="z25173c2"><use href="#z25173d2"/></clipPath>
  <clipPath id="z25173c3"><use href="#z25173d3"/></clipPath>
  <clipPath id="z25173c4"><use href="#z25173d4"/></clipPath>
  <clipPath id="z25173c5"><use href="#z25173d5"/></clipPath>
</defs>
<path style="--d:1s;" pathLength="3333" clip-path="url(#z25173c1)" d="M 149 511 L 218 511 L 393 562 L 449 566"/>
<path style="--d:2s;" pathLength="3333" clip-path="url(#z25173c2)" d="M 281 796 L 299 787 L 330 755 L 320 390 L 322 103 L 303 57 L 259 71 L 217 95 L 205 95 L 182 112"/>
<path style="--d:3s;" pathLength="3333" clip-path="url(#z25173c3)" d="M 83 223 L 126 217 L 414 403"/>
<path style="--d:4s;" pathLength="3333" clip-path="url(#z25173c4)" d="M 651 671 L 690 634 L 686 612 L 610 404 L 549 278 L 542 231 L 583 232 L 774 287 L 806 285"/>
<path style="--d:5s;" pathLength="3333" clip-path="url(#z25173c5)" d="M 748 413 L 800 359 L 856 287 L 870 262 L 879 205"/>
</svg>