<svg id="z28287" class="acjk" viewBox="0 0 1024 1024" xmlns="http://www.w3.org/2000/svg">
  <path id="z28287d1" d="M 242 718 Q 267 696 295 670 Q 310 657 327 657 Q 339 658 344 672 Q 350 688 339 721 Q 327 751 236 771 Q 220 775 212 771 Q 206 767 208 753 Q 212 740 242 718 Z"/>
  <path id="z28287d2" d="M 144 532 Q 198 478 231 465 Q 246 462 255 477 Q 261 490 257 507 Q 245 549 155 572 Q 139 576 129 572 Q 122 571 126 558 Q 127 546 144 532 Z"/>
  <path id="z28287d3" d="M 130 155 Q 117 151 119 134 Q 131 59 167 40 Q 174 33 185 35 Q 192 36 193 62 Q 202 117 313 384 Q 320 400 319 406 Q 318 416 309 410 Q 297 403 174 201 Q 161 179 130 155 Z"/>
  <path id="z28287d4" d="M 428 700 Q 419 704 408 704 Q 396 707 393 701 Q 386 695 396 679 Q 427 618 449 514 Q 453 483 471 463 Q 490 441 495 458 Q 496 465 498 472 L 497 498 Q 496 511 493 525 Q 489 547 484 567 L 479 589 Q 467 649 464 669 C 461 689 456 691 428 700 Z"/>
  <path id="z28287d5" d="M 698 493 Q 699 489 701 483 Q 707 467 720 469 Q 733 470 741 486 Q 754 502 777 588 Q 793 640 830 671 Q 849 687 833 703 Q 814 719 763 747 Q 751 754 680 741 Q 658 741 534 717 Q 471 704 432 701 Q 431 701 428 700 C 398 696 434 665 464 669 Q 470 668 477 670 Q 543 689 693 705 Q 720 708 729 702 Q 739 696 734 664 Q 716 559 700 511 L 698 493 Z"/>
  <path id="z28287d6" d="M 484 567 L 664 594 Q 685 598 677 609 Q 667 622 645 626 Q 626 629 479 589 C 450 581 454 563 484 567 Z"/>
  <path id="z28287d7" d="M 498 472 Q 501 472 505 472 Q 692 496 698 493 C 720 492 720 492 700 511 Q 691 521 676 524 Q 660 527 497 498 C 467 493 468 472 498 472 Z"/>
  <path id="z28287d8" d="M 542 109 Q 546 314 556 374 Q 559 384 540 396 Q 509 411 487 414 Q 474 415 467 408 Q 460 401 468 388 Q 487 364 489 347 Q 502 235 505 105 C 506 75 541 79 542 109 Z"/>
  <path id="z28287d9" d="M 656 119 Q 677 369 693 412 Q 696 422 679 435 Q 648 451 627 456 Q 614 460 606 452 Q 599 446 606 432 Q 625 404 625 384 Q 629 260 619 116 C 617 86 653 89 656 119 Z"/>
  <path id="z28287d10" d="M 369 257 Q 394 232 420 202 Q 432 190 446 189 Q 456 189 461 201 Q 465 214 460 241 Q 453 271 368 300 Q 355 304 348 303 Q 344 299 344 288 Q 345 278 369 257 Z"/>
  <path id="z28287d11" d="M 777 330 Q 755 290 706 226 Q 700 219 707 211 Q 714 210 723 215 Q 813 285 857 312 Q 876 319 871 330 Q 864 346 842 366 Q 820 384 796 385 Q 780 384 782 363 Q 786 348 777 330 Z"/>
  <path id="z28287d12" d="M 572 112 Q 556 111 542 109 L 505 105 Q 463 104 437 99 Q 386 92 311 92 Q 298 93 297 82 Q 297 72 314 58 Q 329 46 357 35 Q 367 31 384 38 Q 426 53 571 67 Q 587 70 605 70 Q 644 71 681 75 Q 781 82 885 70 Q 906 67 912 75 Q 919 88 908 98 Q 881 123 841 142 Q 828 148 805 141 Q 793 140 656 119 L 619 116 Q 591 115 572 112 Z"/>
<defs>
  <clipPath id="z28287c1"><use href="#z28287d1"/></clipPath>
  <clipPath id="z28287c2"><use href="#z28287d2"/></clipPath>
  <clipPath id="z28287c3"><use href="#z28287d3"/></clipPath>
  <clipPath id="z28287c4"><use href="#z28287d4"/></clipPath>
  <clipPath id="z28287c5"><use href="#z28287d5"/></clipPath>
  <clipPath id="z28287c6"><use href="#z28287d6"/></clipPath>
  <clipPath id="z28287c7"><use href="#z28287d7"/></clipPath>
  <clipPath id="z28287c8"><use href="#z28287d8"/></clipPath>
  <clipPath id="z28287c9"><use href="#z28287d9"/></clipPath>
  <clipPath id="z28287c10"><use href="#z28287d10"/></clipPath>
  <clipPath id="z28287c11"><use href="#z28287d11"/></clipPath>
  <clipPath id="z28287c12"><use href="#z28287d12"/></clipPath>
</defs>
<path style="--d:1s;" pathLength="3333" clip-path="url(#z28287c1)" d="M 219 762 L 297 716 L 325 676"/>
<path style="--d:2s;" pathLength="3333" clip-path="url(#z28287c2)" d="M 136 563 L 219 509 L 236 486"/>
<path style="--d:3s;" pathLength="3333" clip-path="url(#z28287c3)" d="M 180 44 L 167 77 L 165 127 L 195 174 L 312 404"/>
<path style="--d:4s;" pathLength="3333" clip-path="url(#z28287c4)" d="M 402 693 L 438 655 L 483 463"/>
<path style="--d:5s;" pathLength="3333" clip-path="url(#z28287c5)" d="M 438 697 L 469 687 L 549 705 L 694 726 L 743 724 L 757 717 L 781 685 L 758 628 L 718 486"/>
<path style="--d:6s;" pathLength="3333" clip-path="url(#z28287c6)" d="M 491 574 L 495 584 L 542 593 L 632 608 L 668 604"/>
<path style="--d:7s;" pathLength="3333" clip-path="url(#z28287c7)" d="M 502 479 L 537 492 L 664 508 L 686 506 L 698 498"/>
<path style="--d:8s;" pathLength="3333" clip-path="url(#z28287c8)" d="M 478 399 L 520 367 L 524 127 L 510 113"/>
<path style="--d:9s;" pathLength="3333" clip-path="url(#z28287c9)" d="M 617 442 L 656 405 L 640 138 L 625 124"/>
<path style="--d:10s;" pathLength="3333" clip-path="url(#z28287c10)" d="M 352 294 L 418 247 L 445 205"/>
<path style="--d:11s;" pathLength="3333" clip-path="url(#z28287c11)" d="M 797 369 L 820 334 L 752 257 L 710 219"/>
<path style="--d:12s;" pathLength="3333" clip-path="url(#z28287c12)" d="M 308 82 L 366 63 L 469 80 L 820 110 L 901 84"/>
</svg>