<svg id="z20280" class="acjk" viewBox="0 0 1024 1024" xmlns="http://www.w3.org/2000/svg">
  <path id="z20280d1" d="M 257 541 Q 300 593 348 660 Q 378 708 404 730 Q 414 740 410 756 Q 406 769 377 796 Q 349 818 329 818 Q 310 817 316 793 Q 328 763 309 721 Q 230 564 69 393 Q 57 383 55 376 Q 51 364 66 366 Q 102 370 206 484 Q 209 490 229 509 L 257 541 Z"/>
  <path id="z20280d2" d="M 229 509 Q 250 451 252 405 Q 251 384 251 362 Q 251 259 225 155 Q 210 106 247 58 Q 248 55 252 52 Q 271 36 283 64 Q 298 106 298 154 Q 298 398 306 453 Q 313 481 303 492 Q 285 514 271 528 Q 264 535 257 541 C 235 561 219 537 229 509 Z"/>
  <path id="z20280d3" d="M 453 566 Q 440 572 412 577 Q 399 581 395 576 Q 388 569 397 552 Q 433 465 450 327 Q 453 285 475 256 Q 494 234 499 249 Q 503 261 504 275 L 504 301 Q 503 320 500 341 Q 475 485 469 530 C 465 560 465 562 453 566 Z"/>
  <path id="z20280d4" d="M 736 304 Q 758 270 776 260 Q 788 253 804 275 Q 823 308 859 485 Q 869 519 894 546 Q 907 559 896 575 Q 880 593 832 622 Q 811 631 746 615 Q 674 603 657 600 L 603 590 Q 585 589 568 585 Q 504 573 453 566 C 423 562 439 525 469 530 Q 475 530 482 531 Q 531 546 603 556 L 656 565 Q 695 572 742 577 Q 779 581 790 569 Q 806 550 804 530 Q 773 350 754 331 C 740 304 734 307 736 304 Z"/>
  <path id="z20280d5" d="M 655 429 Q 695 436 731 441 Q 753 445 745 457 Q 735 470 711 475 Q 690 478 655 469 L 603 455 Q 563 445 527 436 Q 511 433 530 418 Q 540 411 560 415 Q 582 419 603 421 L 655 429 Z"/>
  <path id="z20280d6" d="M 655 294 Q 697 301 736 304 C 766 306 779 314 754 331 Q 733 349 676 335 Q 666 334 655 330 L 602 320 Q 550 311 504 301 C 475 295 474 276 504 275 Q 514 274 529 276 Q 565 282 602 287 L 655 294 Z"/>
  <path id="z20280d7" d="M 602 287 Q 596 -26 616 -60 Q 631 -76 640 -54 Q 658 -2 655 294 L 655 330 Q 655 336 655 341 Q 655 387 655 429 L 655 469 Q 655 521 656 565 L 657 600 Q 660 739 681 772 Q 688 788 668 804 Q 643 823 600 835 Q 581 839 568 826 Q 558 817 570 805 Q 601 780 603 743 Q 603 683 603 590 L 603 556 Q 603 510 603 455 L 603 421 Q 603 345 602 320 L 602 287 Z"/>
<defs>
  <clipPath id="z20280c1"><use href="#z20280d1"/></clipPath>
  <clipPath id="z20280c2"><use href="#z20280d2"/></clipPath>
  <clipPath id="z20280c3"><use href="#z20280d3"/></clipPath>
  <clipPath id="z20280c4"><use href="#z20280d4"/></clipPath>
  <clipPath id="z20280c5"><use href="#z20280d5"/></clipPath>
  <clipPath id="z20280c6"><use href="#z20280d6"/></clipPath>
  <clipPath id="z20280c7"><use href="#z20280d7"/></clipPath>
</defs>
<path style="--d:1s;" pathLength="3333" clip-path="url(#z20280c1)" d="M 329 802 L 345 787 L 362 750 L 327 685 L 259 584 L 183 489 L 94 396 L 65 376"/>
<path style="--d:2s;" pathLength="3333" clip-path="url(#z20280c2)" d="M 256 533 L 259 503 L 275 473 L 277 438 L 275 299 L 258 114 L 264 61"/>
<path style="--d:3s;" pathLength="3333" clip-path="url(#z20280c3)" d="M 402 569 L 431 543 L 440 522 L 488 256"/>
<path style="--d:4s;" pathLength="3333" clip-path="url(#z20280c4)" d="M 460 562 L 483 551 L 760 599 L 795 598 L 822 587 L 846 559 L 809 393 L 779 304 L 749 302"/>
<path style="--d:5s;" pathLength="3333" clip-path="url(#z20280c5)" d="M 528 427 L 682 455 L 714 457 L 735 451"/>
<path style="--d:6s;" pathLength="3333" clip-path="url(#z20280c6)" d="M 510 282 L 540 294 L 746 330"/>
<path style="--d:7s;" pathLength="3333" clip-path="url(#z20280c7)" d="M 576 816 L 601 810 L 638 775 L 629 599 L 627 -54"/>
</svg>