<svg id="z22787" class="acjk" viewBox="0 0 1024 1024" xmlns="http://www.w3.org/2000/svg">
  <path id="z22787d1" d="M 393 674 Q 502 707 642 731 Q 661 735 674 726 Q 684 722 674 705 Q 620 549 582 503 Q 572 491 580 477 Q 593 455 608 453 Q 621 450 634 461 Q 670 488 784 499 Q 800 502 808 495 Q 818 491 818 468 Q 806 234 691 71 Q 679 59 670 52 Q 658 45 614 60 Q 562 81 560 75 Q 559 68 567 57 Q 603 6 613 -19 Q 626 -50 639 -55 Q 652 -64 675 -48 Q 748 -2 786 74 Q 822 144 880 429 Q 884 453 907 473 Q 920 486 910 498 Q 892 519 847 542 Q 838 548 715 521 Q 660 514 657 514 Q 647 518 653 533 Q 731 695 768 714 Q 792 730 792 737 Q 789 758 710 794 Q 691 804 617 773 Q 608 772 374 714 Q 322 701 259 698 Q 244 698 238 687 Q 235 684 243 675 Q 253 659 276 651 Q 295 644 323 653 Q 333 657 346 660 L 393 674 Z"/>
  <path id="z22787d2" d="M 346 660 Q 353 624 346 583 Q 342 567 338 547 Q 287 282 141 110 Q 113 73 83 39 Q 77 32 74 26 Q 70 16 81 16 Q 112 16 219 134 Q 235 156 253 181 Q 343 322 390 509 Q 408 584 421 613 Q 433 626 427 642 Q 415 658 393 674 C 370 693 342 690 346 660 Z"/>
  <path id="z22787d3" d="M 529 245 Q 551 282 573 327 Q 588 354 611 371 Q 626 378 625 388 Q 624 400 597 414 Q 563 435 550 434 Q 540 433 529 426 Q 457 390 404 384 Q 370 383 367 374 Q 366 370 372 366 Q 387 356 416 353 Q 444 354 493 378 Q 514 385 522 380 Q 529 376 511 327 Q 502 299 486 269 L 464 233 Q 395 127 262 57 Q 253 53 254 48 Q 255 44 262 44 Q 385 53 492 190 Q 496 197 502 204 L 529 245 Z"/>
  <path id="z22787d4" d="M 502 204 Q 622 111 625 110 Q 632 110 636 118 Q 645 130 631 161 Q 619 197 529 245 L 486 269 Q 407 309 362 329 Q 355 332 355 322 Q 355 312 364 305 Q 410 274 464 233 L 502 204 Z"/>
<defs>
  <clipPath id="z22787c1"><use href="#z22787d1"/></clipPath>
  <clipPath id="z22787c2"><use href="#z22787d2"/></clipPath>
  <clipPath id="z22787c3"><use href="#z22787d3"/></clipPath>
  <clipPath id="z22787c4"><use href="#z22787d4"/></clipPath>
</defs>
<path style="--d:1s;" pathLength="3333" clip-path="url(#z22787c1)" d="M 249 684 L 278 675 L 308 675 L 637 756 L 696 758 L 722 734 L 634 546 L 624 520 L 623 497 L 649 493 L 796 519 L 826 515 L 852 497 L 858 483 L 844 399 L 808 237 L 766 122 L 734 63 L 690 15 L 659 0 L 563 71"/>
<path style="--d:2s;" pathLength="3333" clip-path="url(#z22787c2)" d="M 354 654 L 385 635 L 381 596 L 330 401 L 290 302 L 244 212 L 204 153 L 138 75 L 83 25"/>
<path style="--d:3s;" pathLength="3333" clip-path="url(#z22787c3)" d="M 374 373 L 419 369 L 531 402 L 552 399 L 565 385 L 518 276 L 446 169 L 364 98 L 318 71 L 260 51"/>
<path style="--d:4s;" pathLength="3333" clip-path="url(#z22787c4)" d="M 364 320 L 582 179 L 615 145 L 628 117"/>
</svg>