<svg id="z20493" class="acjk" viewBox="0 0 1024 1024" xmlns="http://www.w3.org/2000/svg">
  <path id="z20493d1" d="M 264 526 Q 390 715 391 720 Q 390 724 389 728 Q 385 743 353 767 Q 323 788 303 787 Q 282 786 291 761 Q 306 728 293 700 Q 256 606 197 519 Q 140 434 63 342 Q 53 330 50 324 Q 46 311 62 314 Q 101 323 216 465 Q 223 475 234 486 L 264 526 Z"/>
  <path id="z20493d2" d="M 234 486 Q 264 429 243 223 Q 236 166 221 107 Q 206 58 243 10 Q 244 7 248 4 Q 267 -12 279 16 Q 294 58 294 106 Q 293 386 302 449 Q 309 477 299 488 Q 281 510 267 524 Q 266 525 264 526 C 242 547 223 514 234 486 Z"/>
  <path id="z20493d3" d="M 554 812 Q 541 813 539 807 Q 535 800 544 788 Q 613 704 652 699 Q 659 698 666 701 Q 670 705 674 723 Q 677 739 671 756 Q 653 798 554 812 Z"/>
  <path id="z20493d4" d="M 724 605 Q 737 609 755 611 Q 803 621 810 627 Q 820 634 815 644 Q 808 656 778 664 Q 751 670 635 636 Q 505 614 463 609 Q 426 605 452 586 Q 494 561 551 573 Q 615 586 683 597 L 724 605 Z"/>
  <path id="z20493d5" d="M 485 478 Q 513 412 530 406 Q 540 403 549 413 Q 558 425 560 455 Q 561 471 541 491 Q 490 530 477 531 Q 471 530 468 517 Q 468 505 485 478 Z"/>
  <path id="z20493d6" d="M 668 394 Q 696 436 730 498 Q 740 517 759 543 Q 775 556 766 567 Q 756 586 724 605 C 698 621 674 626 683 597 Q 692 573 687 550 Q 675 496 644 420 Q 637 402 636 389 C 632 359 651 369 668 394 Z"/>
  <path id="z20493d7" d="M 636 389 Q 633 389 340 346 Q 319 345 335 327 Q 366 299 405 308 Q 607 366 931 367 Q 950 368 956 376 Q 960 388 944 402 Q 890 439 854 431 Q 782 415 668 394 L 636 389 Z"/>
  <path id="z20493d8" d="M 478 240 Q 466 247 432 253 Q 420 256 417 251 Q 410 244 419 228 Q 450 164 467 60 Q 470 29 488 7 Q 506 -15 511 1 Q 515 13 515 29 L 512 64 Q 503 80 488 206 C 484 236 484 237 478 240 Z"/>
  <path id="z20493d9" d="M 745 85 Q 775 187 812 213 Q 830 234 814 253 Q 730 316 676 285 Q 600 260 478 240 C 448 235 458 202 488 206 Q 498 206 681 241 Q 700 245 709 237 Q 719 227 717 203 Q 705 143 692 93 C 685 64 736 56 745 85 Z"/>
  <path id="z20493d10" d="M 515 29 Q 525 28 538 29 Q 608 42 758 48 Q 768 49 771 58 Q 771 67 745 85 L 692 93 Q 691 93 690 93 Q 591 72 512 64 C 482 61 485 31 515 29 Z"/>
<defs>
  <clipPath id="z20493c1"><use href="#z20493d1"/></clipPath>
  <clipPath id="z20493c2"><use href="#z20493d2"/></clipPath>
  <clipPath id="z20493c3"><use href="#z20493d3"/></clipPath>
  <clipPath id="z20493c4"><use href="#z20493d4"/></clipPath>
  <clipPath id="z20493c5"><use href="#z20493d5"/></clipPath>
  <clipPath id="z20493c6"><use href="#z20493d6"/></clipPath>
  <clipPath id="z20493c7"><use href="#z20493d7"/></clipPath>
  <clipPath id="z20493c8"><use href="#z20493d8"/></clipPath>
  <clipPath id="z20493c9"><use href="#z20493d9"/></clipPath>
  <clipPath id="z20493c10"><use href="#z20493d10"/></clipPath>
</defs>
<path style="--d:1s;" pathLength="3333" clip-path="url(#z20493c1)" d="M 302 771 L 321 756 L 340 718 L 292 620 L 192 468 L 113 374 L 60 323"/>
<path style="--d:2s;" pathLength="3333" clip-path="url(#z20493c2)" d="M 262 520 L 274 462 L 275 369 L 269 211 L 254 66 L 260 13"/>
<path style="--d:3s;" pathLength="3333" clip-path="url(#z20493c3)" d="M 549 802 L 631 750 L 658 710"/>
<path style="--d:4s;" pathLength="3333" clip-path="url(#z20493c4)" d="M 455 599 L 464 594 L 526 593 L 768 640 L 804 638"/>
<path style="--d:5s;" pathLength="3333" clip-path="url(#z20493c5)" d="M 479 524 L 529 456 L 535 420"/>
<path style="--d:6s;" pathLength="3333" clip-path="url(#z20493c6)" d="M 691 591 L 718 573 L 725 558 L 677 445 L 657 409 L 641 393"/>
<path style="--d:7s;" pathLength="3333" clip-path="url(#z20493c7)" d="M 337 337 L 394 330 L 546 359 L 864 399 L 946 381"/>
<path style="--d:8s;" pathLength="3333" clip-path="url(#z20493c8)" d="M 426 243 L 454 219 L 460 204 L 500 6"/>
<path style="--d:9s;" pathLength="3333" clip-path="url(#z20493c9)" d="M 489 212 L 508 228 L 676 263 L 701 268 L 730 261 L 762 232 L 729 122 L 700 98"/>
<path style="--d:10s;" pathLength="3333" clip-path="url(#z20493c10)" d="M 519 59 L 531 48 L 691 69 L 736 67 L 763 59"/>
</svg>