<svg id="z20089" class="acjk" viewBox="0 0 1024 1024" xmlns="http://www.w3.org/2000/svg">
  <path id="z20089d1" d="M 361 661 Q 496 694 501 696 Q 505 700 506 705 Q 508 718 472 729 Q 443 735 372 707 L 318 692 Q 261 680 196 672 Q 163 666 188 651 Q 216 636 254 639 L 312 649 L 361 661 Z"/>
  <path id="z20089d2" d="M 329 547 L 361 661 L 372 707 Q 372 732 402 790 Q 407 799 392 815 Q 339 857 323 844 Q 316 836 322 817 Q 333 794 330 780 Q 325 734 318 692 L 312 649 L 290 538 C 284 509 321 518 329 547 Z"/>
  <path id="z20089d3" d="M 204 519 Q 162 531 155 523 L 154 521 Q 151 517 159 500 Q 190 431 205 342 Q 208 311 225 292 Q 242 270 247 286 Q 251 296 251 306 L 250 332 Q 250 334 249 335 L 237 402 L 233 423 Q 223 474 223 490 C 222 514 222 514 204 519 Z"/>
  <path id="z20089d4" d="M 290 538 L 204 519 C 175 513 195 479 223 490 Q 245 502 396 529 Q 418 534 428 527 Q 441 517 437 500 Q 410 370 394 363 C 379 343 379 343 392 328 Q 402 314 415 308 Q 423 300 437 318 Q 451 339 480 457 Q 486 477 497 492 L 513 510 Q 519 517 511 529 Q 498 544 461 566 Q 446 574 378 559 Q 372 559 329 547 L 290 538 Z"/>
  <path id="z20089d5" d="M 237 402 Q 243 401 247 401 L 373 422 Q 396 427 386 439 Q 374 455 349 455 Q 314 457 233 423 C 205 411 207 406 237 402 Z"/>
  <path id="z20089d6" d="M 251 306 Q 280 310 295 312 L 328 318 Q 359 323 392 328 C 422 333 424 362 394 363 L 390 363 Q 371 367 250 332 C 221 324 221 302 251 306 Z"/>
  <path id="z20089d7" d="M 299 223 Q 125 186 76 180 Q 61 179 61 171 Q 59 159 74 149 Q 94 135 112 131 Q 133 128 182 145 Q 278 176 297 182 L 349 194 Q 384 204 417 212 L 498 225 Q 518 229 519 237 Q 520 249 502 259 Q 476 272 451 265 Q 398 251 351 237 L 299 223 Z"/>
  <path id="z20089d8" d="M 295 312 Q 301 296 299 223 L 297 182 Q 294 97 280 63 Q 274 40 284 10 Q 296 -25 316 -42 Q 324 -43 331 -33 Q 346 -14 343 25 Q 345 129 349 194 L 351 237 Q 355 288 349 300 Q 345 308 328 318 C 303 334 289 341 295 312 Z"/>
  <path id="z20089d9" d="M 576 747 Q 592 733 598 711 Q 610 670 602 523 Q 576 110 635 50 Q 686 -2 791 -3 Q 914 -10 959 32 Q 977 47 960 78 Q 941 134 937 204 Q 937 214 930 223 Q 920 229 914 206 Q 907 188 904 174 Q 870 85 858 73 Q 853 68 840 65 Q 815 57 776 57 Q 719 59 692 71 Q 672 80 662 103 Q 635 167 649 426 Q 659 653 686 696 Q 689 703 690 710 Q 691 746 612 770 Q 608 772 606 772 Q 585 775 577 766 Q 568 757 576 747 Z"/>
<defs>
  <clipPath id="z20089c1"><use href="#z20089d1"/></clipPath>
  <clipPath id="z20089c2"><use href="#z20089d2"/></clipPath>
  <clipPath id="z20089c3"><use href="#z20089d3"/></clipPath>
  <clipPath id="z20089c4"><use href="#z20089d4"/></clipPath>
  <clipPath id="z20089c5"><use href="#z20089d5"/></clipPath>
  <clipPath id="z20089c6"><use href="#z20089d6"/></clipPath>
  <clipPath id="z20089c7"><use href="#z20089d7"/></clipPath>
  <clipPath id="z20089c8"><use href="#z20089d8"/></clipPath>
  <clipPath id="z20089c9"><use href="#z20089d9"/></clipPath>
</defs>
<path style="--d:1s;" pathLength="3333" clip-path="url(#z20089c1)" d="M 189 663 L 246 658 L 458 708 L 497 704"/>
<path style="--d:2s;" pathLength="3333" clip-path="url(#z20089c2)" d="M 331 835 L 365 793 L 317 573 L 295 544"/>
<path style="--d:3s;" pathLength="3333" clip-path="url(#z20089c3)" d="M 160 519 L 187 498 L 196 482 L 236 291"/>
<path style="--d:4s;" pathLength="3333" clip-path="url(#z20089c4)" d="M 212 517 L 234 510 L 411 549 L 440 547 L 455 538 L 472 517 L 421 351 L 422 322"/>
<path style="--d:5s;" pathLength="3333" clip-path="url(#z20089c5)" d="M 243 409 L 267 421 L 336 436 L 377 432"/>
<path style="--d:6s;" pathLength="3333" clip-path="url(#z20089c6)" d="M 259 313 L 266 325 L 374 344 L 392 357"/>
<path style="--d:7s;" pathLength="3333" clip-path="url(#z20089c7)" d="M 73 168 L 122 159 L 461 243 L 508 240"/>
<path style="--d:8s;" pathLength="3333" clip-path="url(#z20089c8)" d="M 301 310 L 323 292 L 327 269 L 320 120 L 310 45 L 318 -31"/>
<path style="--d:9s;" pathLength="3333" clip-path="url(#z20089c9)" d="M 585 756 L 614 742 L 643 709 L 624 481 L 618 278 L 626 151 L 635 106 L 650 72 L 688 44 L 750 29 L 823 27 L 886 42 L 912 61 L 927 215"/>
</svg>