<svg id="z22996" class="acjk" viewBox="0 0 1024 1024" xmlns="http://www.w3.org/2000/svg">
  <path id="z22996d1" d="M 505 742 Q 580 766 638 768 Q 654 767 659 773 Q 665 783 654 796 Q 636 815 595 838 Q 582 848 568 848 Q 561 847 558 835 Q 554 802 342 735 Q 336 735 331 732 Q 324 723 329 720 L 467 735 L 505 742 Z"/>
  <path id="z22996d2" d="M 535 609 Q 616 618 763 617 Q 782 617 787 626 Q 793 636 776 650 Q 724 689 664 674 Q 610 664 539 650 L 486 641 Q 483 642 482 641 Q 365 625 228 606 Q 207 603 223 587 Q 236 574 254 569 Q 273 563 290 568 Q 365 590 450 599 L 535 609 Z"/>
  <path id="z22996d3" d="M 539 650 Q 540 671 555 695 Q 561 704 550 716 Q 531 732 505 742 C 477 754 456 762 467 735 Q 467 732 469 728 Q 485 703 486 641 L 486 567 Q 485 497 480 469 Q 479 459 494 422 Q 503 407 516 415 Q 531 427 527 501 Q 527 544 530 583 L 539 650 Z"/>
  <path id="z22996d4" d="M 450 599 Q 399 506 223 410 Q 205 400 220 398 Q 230 395 267 406 Q 310 416 352 442 Q 388 464 429 503 Q 462 533 486 567 C 516 608 476 643 450 599 Z"/>
  <path id="z22996d5" d="M 530 583 Q 599 508 673 441 Q 695 420 731 422 Q 797 423 863 440 Q 879 443 881 448 Q 882 455 869 459 Q 695 501 595 567 Q 588 571 581 576 Q 551 598 535 609 L 533 609 C 507 624 510 605 530 583 Z"/>
  <path id="z22996d6" d="M 537 89 Q 604 49 699 -25 Q 724 -46 742 -45 Q 763 -45 763 -25 Q 763 -6 734 40 Q 719 70 568 129 L 519 149 Q 452 176 405 189 Q 387 193 397 211 Q 419 250 437 276 L 461 314 Q 485 353 493 363 Q 503 370 501 379 Q 497 394 463 425 Q 453 435 442 432 Q 429 431 434 414 Q 441 390 431 368 Q 418 337 406 309 L 387 271 Q 368 237 350 214 Q 340 196 341 184 Q 342 174 361 169 Q 374 166 488 117 L 537 89 Z"/>
  <path id="z22996d7" d="M 488 117 Q 413 53 257 17 Q 238 10 259 5 Q 433 -19 537 89 L 568 129 Q 605 180 627 240 Q 637 271 648 287 C 663 313 665 317 642 333 Q 612 357 582 353 Q 569 350 574 334 Q 575 331 577 326 L 579 285 Q 578 263 564 232 Q 546 184 519 149 L 488 117 Z"/>
  <path id="z22996d8" d="M 648 287 Q 736 288 844 284 Q 931 281 938 290 Q 945 303 926 320 Q 868 368 825 359 Q 750 347 642 333 L 577 326 Q 498 320 461 314 L 406 309 Q 264 299 103 285 Q 79 284 96 263 Q 132 227 174 237 Q 274 261 387 271 L 437 276 Q 443 282 579 285 L 648 287 Z"/>
<defs>
  <clipPath id="z22996c1"><use href="#z22996d1"/></clipPath>
  <clipPath id="z22996c2"><use href="#z22996d2"/></clipPath>
  <clipPath id="z22996c3"><use href="#z22996d3"/></clipPath>
  <clipPath id="z22996c4"><use href="#z22996d4"/></clipPath>
  <clipPath id="z22996c5"><use href="#z22996d5"/></clipPath>
  <clipPath id="z22996c6"><use href="#z22996d6"/></clipPath>
  <clipPath id="z22996c7"><use href="#z22996d7"/></clipPath>
  <clipPath id="z22996c8"><use href="#z22996d8"/></clipPath>
</defs>
<path style="--d:1s;" pathLength="3333" clip-path="url(#z22996c1)" d="M 650 780 L 583 801 L 506 767 L 397 739 L 384 741 L 366 733 L 356 737 L 336 725"/>
<path style="--d:2s;" pathLength="3333" clip-path="url(#z22996c2)" d="M 226 596 L 280 589 L 421 615 L 689 648 L 745 642 L 775 632"/>
<path style="--d:3s;" pathLength="3333" clip-path="url(#z22996c3)" d="M 474 733 L 502 716 L 516 698 L 506 557 L 508 426"/>
<path style="--d:4s;" pathLength="3333" clip-path="url(#z22996c4)" d="M 481 597 L 430 533 L 377 484 L 284 426 L 225 403"/>
<path style="--d:5s;" pathLength="3333" clip-path="url(#z22996c5)" d="M 535 602 L 544 585 L 592 545 L 708 465 L 794 452 L 875 449"/>
<path style="--d:6s;" pathLength="3333" clip-path="url(#z22996c6)" d="M 443 421 L 458 404 L 466 378 L 377 218 L 370 192 L 393 175 L 505 132 L 613 78 L 692 29 L 745 -27"/>
<path style="--d:7s;" pathLength="3333" clip-path="url(#z22996c7)" d="M 584 341 L 611 314 L 608 272 L 568 175 L 520 110 L 458 61 L 421 43 L 337 19 L 268 13"/>
<path style="--d:8s;" pathLength="3333" clip-path="url(#z22996c8)" d="M 100 274 L 154 262 L 503 302 L 836 322 L 871 317 L 931 296"/>
</svg>