<svg id="z22210" class="acjk" viewBox="0 0 1024 1024" xmlns="http://www.w3.org/2000/svg">
  <path id="z22210d1" d="M 292 779 Q 283 783 250 786 Q 240 787 236 783 Q 232 777 241 763 Q 263 730 284 672 Q 288 656 300 645 Q 319 627 322 641 Q 323 645 323 650 L 321 675 Q 314 690 303 756 C 300 777 300 777 292 779 Z"/>
  <path id="z22210d2" d="M 464 705 Q 480 748 496 760 Q 515 781 497 794 Q 481 804 458 820 Q 442 830 426 821 Q 384 797 292 779 C 263 773 274 748 303 756 Q 352 769 395 778 Q 425 785 431 773 Q 435 769 430 748 Q 424 726 416 700 C 407 671 453 677 464 705 Z"/>
  <path id="z22210d3" d="M 323 650 Q 332 649 342 651 Q 385 663 479 675 Q 488 676 489 684 Q 489 690 464 705 C 455 711 445 708 416 700 Q 361 685 321 675 C 292 668 293 652 323 650 Z"/>
  <path id="z22210d4" d="M 583 811 Q 574 815 548 819 Q 539 822 536 817 Q 532 813 537 801 Q 558 765 573 703 Q 576 684 587 673 Q 602 657 605 668 Q 606 675 607 685 L 604 712 Q 594 767 592 787 C 590 809 590 809 583 811 Z"/>
  <path id="z22210d5" d="M 753 730 Q 771 776 789 789 Q 810 810 790 824 Q 774 834 751 852 Q 735 862 718 853 Q 675 829 583 811 C 554 805 563 779 592 787 Q 592 788 595 788 Q 644 801 687 810 Q 717 817 723 805 Q 727 801 721 779 Q 714 758 705 733 C 695 705 742 702 753 730 Z"/>
  <path id="z22210d6" d="M 607 685 Q 611 685 618 686 Q 663 696 762 704 Q 771 705 772 712 Q 772 718 753 730 C 737 740 734 740 705 733 Q 648 720 604 712 C 574 707 577 683 607 685 Z"/>
  <path id="z22210d7" d="M 483 587 Q 576 602 774 602 Q 790 603 795 610 Q 799 620 785 632 Q 740 665 708 657 Q 593 633 234 583 Q 216 582 230 567 Q 242 555 258 550 Q 276 546 289 550 Q 358 569 434 580 L 483 587 Z"/>
  <path id="z22210d8" d="M 444 517 Q 472 545 491 558 Q 503 564 498 572 Q 494 579 483 587 C 459 605 431 610 434 580 Q 437 565 414 513 C 402 486 423 496 444 517 Z"/>
  <path id="z22210d9" d="M 344 506 Q 340 510 322 518 Q 315 522 306 518 Q 302 514 305 505 Q 330 423 312 327 Q 300 287 329 252 Q 336 242 345 252 Q 349 259 352 267 L 355 293 Q 355 299 356 338 L 356 358 Q 356 389 357 410 L 357 431 Q 358 468 359 471 Q 359 475 359 478 C 360 496 360 496 344 506 Z"/>
  <path id="z22210d10" d="M 617 290 Q 618 289 621 284 Q 634 257 642 258 Q 655 259 670 289 Q 680 308 682 344 Q 673 461 693 490 Q 703 505 696 514 Q 626 574 575 549 Q 554 543 444 517 L 414 513 Q 377 510 344 506 C 314 503 329 475 359 478 Q 365 478 374 479 Q 488 504 571 517 Q 599 523 609 507 Q 618 497 618 457 Q 622 346 616 325 Q 615 324 615 323 C 611 301 611 301 617 290 Z"/>
  <path id="z22210d11" d="M 357 410 Q 366 409 380 410 Q 483 428 561 438 Q 579 439 572 450 Q 565 462 545 466 Q 532 469 357 431 C 328 425 327 412 357 410 Z"/>
  <path id="z22210d12" d="M 356 338 L 569 366 Q 587 367 580 378 Q 573 390 553 394 Q 532 397 356 358 C 327 352 326 334 356 338 Z"/>
  <path id="z22210d13" d="M 412 269 Q 526 285 617 290 C 647 292 644 315 615 323 Q 614 324 610 325 Q 595 328 355 293 C 325 289 322 269 352 267 Q 362 266 380 266 Q 381 267 383 266 L 412 269 Z"/>
  <path id="z22210d14" d="M 272 113 Q 285 120 434 223 Q 444 230 445 239 Q 445 251 425 262 Q 418 266 412 269 C 391 280 391 280 383 266 Q 382 266 382 264 Q 337 179 106 69 Q 87 62 109 59 Q 160 56 247 100 L 272 113 Z"/>
  <path id="z22210d15" d="M 649 222 Q 748 174 870 100 Q 888 88 901 88 Q 908 89 912 99 Q 919 112 899 145 Q 872 196 655 244 Q 648 247 643 247 Q 634 248 635 238 Q 638 228 649 222 Z"/>
  <path id="z22210d16" d="M 297 106 Q 291 110 272 113 C 242 118 229 120 247 100 Q 268 79 287 -13 Q 290 -34 303 -47 Q 318 -63 321 -52 Q 322 -45 323 -34 L 320 -4 Q 307 60 305 82 C 303 103 303 103 297 106 Z"/>
  <path id="z22210d17" d="M 437 12 Q 455 69 473 85 Q 492 106 473 118 Q 457 128 435 143 Q 420 152 404 143 Q 370 124 297 106 C 268 99 276 73 305 82 Q 332 91 384 101 Q 405 105 410 98 Q 413 95 394 16 C 387 -13 428 -17 437 12 Z"/>
  <path id="z22210d18" d="M 323 -34 Q 327 -34 333 -33 Q 369 -23 447 -15 Q 456 -14 457 -6 Q 457 0 437 12 L 394 16 Q 391 17 389 16 Q 350 4 320 -4 C 291 -12 293 -36 323 -34 Z"/>
  <path id="z22210d19" d="M 548 129 Q 538 133 520 136 Q 511 137 508 134 Q 504 130 510 117 Q 531 75 544 7 Q 547 -14 559 -27 Q 572 -43 577 -32 Q 578 -25 580 -16 L 578 12 Q 566 84 564 106 C 562 124 562 124 548 129 Z"/>
  <path id="z22210d20" d="M 712 30 Q 728 85 747 103 Q 768 125 748 138 Q 732 148 708 165 Q 692 175 674 166 Q 638 142 548 129 C 518 125 534 101 564 106 Q 573 107 651 122 Q 673 126 679 117 Q 685 113 678 86 Q 672 61 665 29 C 659 0 703 1 712 30 Z"/>
  <path id="z22210d21" d="M 580 -16 Q 586 -9 726 0 Q 733 1 735 8 Q 736 14 712 30 C 702 37 694 35 665 29 Q 617 19 578 12 C 548 7 553 -28 580 -16 Z"/>
<defs>
  <clipPath id="z22210c1"><use href="#z22210d1"/></clipPath>
  <clipPath id="z22210c2"><use href="#z22210d2"/></clipPath>
  <clipPath id="z22210c3"><use href="#z22210d3"/></clipPath>
  <clipPath id="z22210c4"><use href="#z22210d4"/></clipPath>
  <clipPath id="z22210c5"><use href="#z22210d5"/></clipPath>
  <clipPath id="z22210c6"><use href="#z22210d6"/></clipPath>
  <clipPath id="z22210c7"><use href="#z22210d7"/></clipPath>
  <clipPath id="z22210c8"><use href="#z22210d8"/></clipPath>
  <clipPath id="z22210c9"><use href="#z22210d9"/></clipPath>
  <clipPath id="z22210c10"><use href="#z22210d10"/></clipPath>
  <clipPath id="z22210c11"><use href="#z22210d11"/></clipPath>
  <clipPath id="z22210c12"><use href="#z22210d12"/></clipPath>
  <clipPath id="z22210c13"><use href="#z22210d13"/></clipPath>
  <clipPath id="z22210c14"><use href="#z22210d14"/></clipPath>
  <clipPath id="z22210c15"><use href="#z22210d15"/></clipPath>
  <clipPath id="z22210c16"><use href="#z22210d16"/></clipPath>
  <clipPath id="z22210c17"><use href="#z22210d17"/></clipPath>
  <clipPath id="z22210c18"><use href="#z22210d18"/></clipPath>
  <clipPath id="z22210c19"><use href="#z22210d19"/></clipPath>
  <clipPath id="z22210c20"><use href="#z22210d20"/></clipPath>
  <clipPath id="z22210c21"><use href="#z22210d21"/></clipPath>
</defs>
<path style="--d:1s;" pathLength="3333" clip-path="url(#z22210c1)" d="M 244 778 L 274 758 L 312 646"/>
<path style="--d:2s;" pathLength="3333" clip-path="url(#z22210c2)" d="M 303 777 L 310 770 L 417 798 L 441 799 L 464 776 L 448 727 L 422 705"/>
<path style="--d:3s;" pathLength="3333" clip-path="url(#z22210c3)" d="M 328 657 L 342 666 L 424 684 L 460 689 L 481 683"/>
<path style="--d:4s;" pathLength="3333" clip-path="url(#z22210c4)" d="M 543 812 L 570 785 L 597 673"/>
<path style="--d:5s;" pathLength="3333" clip-path="url(#z22210c5)" d="M 591 794 L 616 806 L 709 830 L 735 830 L 757 806 L 755 796 L 736 753 L 711 738"/>
<path style="--d:6s;" pathLength="3333" clip-path="url(#z22210c6)" d="M 612 692 L 626 703 L 710 716 L 764 712"/>
<path style="--d:7s;" pathLength="3333" clip-path="url(#z22210c7)" d="M 232 575 L 279 569 L 457 601 L 717 630 L 786 615"/>
<path style="--d:8s;" pathLength="3333" clip-path="url(#z22210c8)" d="M 487 569 L 456 560 L 435 527 L 420 522"/>
<path style="--d:9s;" pathLength="3333" clip-path="url(#z22210c9)" d="M 312 511 L 323 501 L 336 471 L 339 405 L 331 304 L 337 256"/>
<path style="--d:10s;" pathLength="3333" clip-path="url(#z22210c10)" d="M 351 501 L 367 494 L 414 499 L 587 536 L 608 535 L 629 525 L 654 498 L 643 268"/>
<path style="--d:11s;" pathLength="3333" clip-path="url(#z22210c11)" d="M 362 415 L 373 425 L 387 423 L 400 430 L 501 446 L 549 451 L 565 445"/>
<path style="--d:12s;" pathLength="3333" clip-path="url(#z22210c12)" d="M 363 343 L 368 353 L 461 368 L 557 379 L 573 373"/>
<path style="--d:13s;" pathLength="3333" clip-path="url(#z22210c13)" d="M 358 273 L 371 283 L 555 304 L 600 306 L 610 295"/>
<path style="--d:14s;" pathLength="3333" clip-path="url(#z22210c14)" d="M 430 240 L 400 236 L 336 180 L 230 111 L 115 66"/>
<path style="--d:15s;" pathLength="3333" clip-path="url(#z22210c15)" d="M 645 237 L 826 162 L 870 135 L 898 102"/>
<path style="--d:16s;" pathLength="3333" clip-path="url(#z22210c16)" d="M 255 101 L 276 93 L 283 81 L 313 -47"/>
<path style="--d:17s;" pathLength="3333" clip-path="url(#z22210c17)" d="M 308 90 L 317 98 L 397 120 L 420 122 L 428 117 L 442 99 L 421 36 L 402 27"/>
<path style="--d:18s;" pathLength="3333" clip-path="url(#z22210c18)" d="M 327 -26 L 337 -16 L 392 -3 L 448 -6"/>
<path style="--d:19s;" pathLength="3333" clip-path="url(#z22210c19)" d="M 515 129 L 536 112 L 545 89 L 569 -27"/>
<path style="--d:20s;" pathLength="3333" clip-path="url(#z22210c20)" d="M 558 128 L 571 120 L 668 142 L 698 138 L 715 119 L 713 108 L 695 53 L 673 35"/>
<path style="--d:21s;" pathLength="3333" clip-path="url(#z22210c21)" d="M 583 -8 L 615 6 L 673 14 L 726 9"/>
</svg>