<svg id="z28527" class="acjk" viewBox="0 0 1024 1024" xmlns="http://www.w3.org/2000/svg">
  <path id="z28527d1" d="M 228 732 Q 253 704 281 669 Q 294 653 313 651 Q 325 651 332 665 Q 339 681 334 716 Q 328 750 229 787 Q 213 794 204 791 Q 198 787 198 773 Q 201 760 228 732 Z"/>
  <path id="z28527d2" d="M 130 526 Q 167 477 204 455 Q 220 451 231 465 Q 238 478 236 496 Q 230 521 212 537 Q 164 570 126 570 Q 122 571 118 569 Q 111 568 113 554 Q 114 541 130 526 Z"/>
  <path id="z28527d3" d="M 135 165 Q 122 161 126 141 Q 148 62 187 46 Q 194 39 206 43 Q 213 46 212 72 Q 215 115 291 386 Q 298 404 296 410 Q 295 420 285 413 Q 275 404 172 210 Q 162 188 135 165 Z"/>
  <path id="z28527d4" d="M 736 620 Q 761 731 804 769 Q 820 790 805 807 Q 787 820 731 845 Q 710 852 650 825 Q 548 795 491 783 Q 475 782 477 772 Q 480 765 498 759 Q 523 750 555 763 Q 619 778 681 794 Q 697 798 704 792 Q 716 779 713 755 Q 700 683 682 626 C 673 597 729 591 736 620 Z"/>
  <path id="z28527d5" d="M 488 683 Q 460 676 481 664 Q 518 648 560 662 Q 603 675 649 688 Q 670 694 673 697 Q 680 704 675 711 Q 668 720 645 723 Q 624 726 552 698 Q 522 689 488 683 Z"/>
  <path id="z28527d6" d="M 682 626 Q 526 589 447 574 Q 422 570 442 555 Q 472 534 495 539 Q 648 578 741 589 Q 751 588 758 600 Q 759 610 738 619 Q 737 620 736 620 C 710 633 710 633 682 626 Z"/>
  <path id="z28527d7" d="M 475 443 Q 497 450 522 456 Q 541 463 545 465 Q 552 472 547 479 Q 540 488 517 492 Q 499 495 426 468 Q 396 461 364 455 Q 336 448 357 436 Q 384 421 428 430 L 475 443 Z"/>
  <path id="z28527d8" d="M 475 360 L 475 443 C 475 473 428 460 428 430 L 428 345 C 428 315 475 330 475 360 Z"/>
  <path id="z28527d9" d="M 428 345 Q 359 330 341 332 Q 332 332 329 322 Q 328 312 338 306 Q 365 288 376 283 Q 389 279 406 287 Q 431 305 551 365 Q 564 371 569 376 Q 575 383 566 386 Q 557 386 475 360 L 428 345 Z"/>
  <path id="z28527d10" d="M 633 510 Q 623 516 591 519 Q 581 520 578 517 Q 574 511 581 498 Q 603 462 619 402 Q 622 384 634 373 Q 650 355 653 369 Q 654 376 655 385 L 651 414 Q 642 463 640 483 C 637 508 637 508 633 510 Z"/>
  <path id="z28527d11" d="M 790 432 Q 806 472 823 483 Q 845 505 824 520 Q 806 530 782 548 Q 767 558 720 535 Q 668 519 633 510 C 604 502 611 477 640 483 Q 646 484 653 486 Q 693 495 726 502 Q 748 508 754 498 Q 758 494 752 475 Q 746 457 740 436 C 732 407 778 404 790 432 Z"/>
  <path id="z28527d12" d="M 655 385 Q 659 385 665 386 Q 707 396 798 405 Q 807 406 808 414 Q 808 420 790 432 C 772 444 769 444 740 436 Q 691 423 651 414 C 622 407 625 383 655 385 Z"/>
  <path id="z28527d13" d="M 704 229 Q 780 236 878 238 Q 945 238 952 248 Q 956 260 940 274 Q 883 311 826 297 Q 775 287 710 273 L 651 263 Q 627 260 605 255 Q 467 234 304 210 Q 283 209 299 191 Q 330 163 369 172 Q 487 208 652 225 L 704 229 Z"/>
  <path id="z28527d14" d="M 652 225 Q 656 111 653 49 Q 652 27 640 18 Q 633 14 546 24 Q 533 25 536 18 Q 537 11 548 5 Q 627 -52 654 -87 Q 669 -103 684 -89 Q 720 -47 713 17 Q 704 101 703 223 Q 703 227 704 229 L 710 273 Q 711 280 715 287 Q 724 306 707 319 Q 682 341 651 350 Q 633 357 625 349 Q 619 342 630 327 Q 648 297 651 263 L 652 225 Z"/>
  <path id="z28527d15" d="M 449 114 Q 465 95 482 72 Q 494 59 508 57 Q 518 57 525 69 Q 531 82 526 112 Q 520 136 449 160 Q 434 164 428 163 Q 424 160 423 147 Q 424 137 449 114 Z"/>
<defs>
  <clipPath id="z28527c1"><use href="#z28527d1"/></clipPath>
  <clipPath id="z28527c2"><use href="#z28527d2"/></clipPath>
  <clipPath id="z28527c3"><use href="#z28527d3"/></clipPath>
  <clipPath id="z28527c4"><use href="#z28527d4"/></clipPath>
  <clipPath id="z28527c5"><use href="#z28527d5"/></clipPath>
  <clipPath id="z28527c6"><use href="#z28527d6"/></clipPath>
  <clipPath id="z28527c7"><use href="#z28527d7"/></clipPath>
  <clipPath id="z28527c8"><use href="#z28527d8"/></clipPath>
  <clipPath id="z28527c9"><use href="#z28527d9"/></clipPath>
  <clipPath id="z28527c10"><use href="#z28527d10"/></clipPath>
  <clipPath id="z28527c11"><use href="#z28527d11"/></clipPath>
  <clipPath id="z28527c12"><use href="#z28527d12"/></clipPath>
  <clipPath id="z28527c13"><use href="#z28527d13"/></clipPath>
  <clipPath id="z28527c14"><use href="#z28527d14"/></clipPath>
  <clipPath id="z28527c15"><use href="#z28527d15"/></clipPath>
</defs>
<path style="--d:1s;" pathLength="3333" clip-path="url(#z28527c1)" d="M 210 782 L 289 718 L 312 672"/>
<path style="--d:2s;" pathLength="3333" clip-path="url(#z28527c2)" d="M 123 559 L 186 514 L 211 477"/>
<path style="--d:3s;" pathLength="3333" clip-path="url(#z28527c3)" d="M 199 53 L 184 81 L 176 139 L 289 407"/>
<path style="--d:4s;" pathLength="3333" clip-path="url(#z28527c4)" d="M 485 774 L 529 773 L 699 819 L 727 814 L 756 783 L 716 648 L 689 631"/>
<path style="--d:5s;" pathLength="3333" clip-path="url(#z28527c5)" d="M 483 674 L 533 673 L 616 700 L 665 705"/>
<path style="--d:6s;" pathLength="3333" clip-path="url(#z28527c6)" d="M 443 565 L 470 559 L 499 561 L 677 603 L 748 601"/>
<path style="--d:7s;" pathLength="3333" clip-path="url(#z28527c7)" d="M 359 446 L 417 446 L 507 473 L 537 473"/>
<path style="--d:8s;" pathLength="3333" clip-path="url(#z28527c8)" d="M 471 436 L 451 413 L 451 375 L 432 352"/>
<path style="--d:9s;" pathLength="3333" clip-path="url(#z28527c9)" d="M 341 320 L 394 311 L 564 380"/>
<path style="--d:10s;" pathLength="3333" clip-path="url(#z28527c10)" d="M 585 512 L 616 484 L 644 372"/>
<path style="--d:11s;" pathLength="3333" clip-path="url(#z28527c11)" d="M 645 491 L 650 500 L 738 524 L 771 521 L 789 500 L 786 488 L 773 458 L 747 441"/>
<path style="--d:12s;" pathLength="3333" clip-path="url(#z28527c12)" d="M 659 393 L 675 405 L 745 418 L 799 414"/>
<path style="--d:13s;" pathLength="3333" clip-path="url(#z28527c13)" d="M 301 201 L 358 194 L 530 227 L 825 267 L 883 268 L 944 254"/>
<path style="--d:14s;" pathLength="3333" clip-path="url(#z28527c14)" d="M 634 343 L 681 295 L 678 6 L 663 -25 L 563 8 L 559 16 L 543 17"/>
<path style="--d:15s;" pathLength="3333" clip-path="url(#z28527c15)" d="M 432 157 L 496 104 L 507 76"/>
</svg>