<svg id="z25799" class="acjk" viewBox="0 0 1024 1024" xmlns="http://www.w3.org/2000/svg">
  <path id="z25799d1" d="M 312 576 Q 397 600 404 603 Q 413 612 408 620 Q 401 632 370 638 Q 342 644 313 632 L 263 614 Q 187 590 101 578 Q 64 571 91 555 Q 137 531 191 547 Q 225 556 263 563 L 312 576 Z"/>
  <path id="z25799d2" d="M 261 376 Q 260 273 260 136 Q 260 112 247 102 Q 246 102 189 106 Q 156 119 159 109 Q 160 102 179 86 Q 234 37 246 10 Q 261 -21 275 -23 Q 290 -24 305 11 Q 323 57 322 130 Q 312 275 310 420 L 310 453 Q 310 516 312 576 L 313 632 Q 313 714 331 777 Q 347 808 292 829 Q 258 848 239 841 Q 221 834 237 811 Q 259 784 261 750 Q 262 734 263 614 L 263 563 Q 262 502 261 419 L 261 376 Z"/>
  <path id="z25799d3" d="M 261 419 Q 176 361 102 304 Q 71 282 50 274 Q 38 267 37 259 Q 36 250 51 238 Q 70 225 94 220 Q 109 217 118 229 Q 193 317 261 376 L 310 420 Q 326 436 345 450 Q 364 463 373 480 Q 379 493 368 492 Q 356 489 310 453 L 261 419 Z"/>
  <path id="z25799d4" d="M 465 777 Q 455 781 426 782 Q 416 783 413 778 Q 409 771 417 759 Q 448 714 474 637 Q 480 615 496 600 Q 515 584 517 598 Q 518 605 518 614 L 514 639 Q 493 702 482 744 C 474 773 474 774 465 777 Z"/>
  <path id="z25799d5" d="M 755 649 Q 768 627 780 618 Q 789 609 805 628 Q 815 641 846 713 Q 856 741 879 764 Q 892 774 882 789 Q 869 805 830 832 Q 812 842 744 825 Q 734 825 569 796 Q 514 786 465 777 C 435 772 453 735 482 744 Q 510 753 549 761 L 568 765 Q 605 775 652 782 L 681 787 Q 766 809 796 790 Q 803 783 800 771 Q 781 698 774 687 Q 770 677 755 675 Q 754 676 754 675 C 741 670 741 670 755 649 Z"/>
  <path id="z25799d6" d="M 601 653 Q 601 692 585 730 Q 582 736 580 743 Q 577 756 568 765 C 548 787 541 790 549 761 Q 549 760 550 758 Q 557 662 572 648 C 591 625 601 623 601 653 Z"/>
  <path id="z25799d7" d="M 676 668 Q 676 677 713 744 Q 723 754 715 762 Q 706 775 681 787 C 654 800 646 804 652 782 Q 651 781 655 774 Q 668 749 648 663 C 641 634 669 639 676 668 Z"/>
  <path id="z25799d8" d="M 624 633 Q 678 642 755 649 C 785 652 780 660 754 675 Q 753 676 750 678 Q 735 685 676 668 L 648 663 Q 623 659 601 653 L 572 648 Q 541 645 514 639 C 485 633 489 607 518 614 Q 545 621 585 627 L 624 633 Z"/>
  <path id="z25799d9" d="M 650 530 Q 683 537 719 542 Q 753 549 758 553 Q 765 560 762 566 Q 756 576 733 583 Q 709 587 653 569 L 598 556 Q 555 549 504 546 Q 474 542 495 527 Q 525 509 575 517 Q 585 521 600 521 L 650 530 Z"/>
  <path id="z25799d10" d="M 646 461 Q 647 498 650 530 L 653 569 Q 659 602 653 609 Q 638 624 624 633 C 599 650 572 654 585 627 Q 594 614 598 556 L 600 521 Q 600 494 603 454 C 605 424 645 431 646 461 Z"/>
  <path id="z25799d11" d="M 711 437 Q 801 447 930 448 Q 948 449 952 457 Q 956 467 941 479 Q 893 512 860 504 Q 781 485 646 461 L 603 454 Q 497 438 379 420 Q 360 419 374 403 Q 387 391 403 386 Q 412 385 496 403 L 523 409 Q 596 427 682 434 L 711 437 Z"/>
  <path id="z25799d12" d="M 496 403 Q 499 396 510 382 Q 523 364 536 343 Q 543 333 553 330 Q 560 329 566 337 Q 570 346 570 367 Q 567 386 523 409 C 496 423 483 430 496 403 Z"/>
  <path id="z25799d13" d="M 681 324 Q 687 331 694 339 Q 730 381 735 384 Q 748 393 742 402 Q 736 417 714 435 Q 713 436 711 437 C 686 454 671 462 682 434 Q 682 433 684 429 Q 690 407 663 343 Q 654 330 652 318 C 646 289 661 301 681 324 Z"/>
  <path id="z25799d14" d="M 635 279 Q 656 285 769 298 Q 778 297 785 307 Q 786 316 768 325 Q 738 341 681 324 L 652 318 Q 643 317 637 315 Q 610 309 476 291 Q 452 288 470 274 Q 489 261 523 260 Q 548 266 583 270 L 635 279 Z"/>
  <path id="z25799d15" d="M 653 169 Q 729 179 847 179 Q 898 176 907 187 Q 913 197 897 211 Q 843 251 778 230 Q 726 221 655 206 L 598 197 Q 505 184 399 169 Q 380 166 394 151 Q 407 138 424 134 Q 443 130 459 133 Q 525 152 600 162 L 653 169 Z"/>
  <path id="z25799d16" d="M 655 206 Q 655 215 661 245 Q 661 263 635 279 C 610 296 567 295 583 270 Q 584 266 589 261 Q 592 255 598 197 L 600 162 Q 604 -58 618 -77 L 619 -78 Q 623 -84 630 -81 Q 637 -78 642 -65 Q 648 -38 653 157 Q 652 164 653 169 L 655 206 Z"/>
<defs>
  <clipPath id="z25799c1"><use href="#z25799d1"/></clipPath>
  <clipPath id="z25799c2"><use href="#z25799d2"/></clipPath>
  <clipPath id="z25799c3"><use href="#z25799d3"/></clipPath>
  <clipPath id="z25799c4"><use href="#z25799d4"/></clipPath>
  <clipPath id="z25799c5"><use href="#z25799d5"/></clipPath>
  <clipPath id="z25799c6"><use href="#z25799d6"/></clipPath>
  <clipPath id="z25799c7"><use href="#z25799d7"/></clipPath>
  <clipPath id="z25799c8"><use href="#z25799d8"/></clipPath>
  <clipPath id="z25799c9"><use href="#z25799d9"/></clipPath>
  <clipPath id="z25799c10"><use href="#z25799d10"/></clipPath>
  <clipPath id="z25799c11"><use href="#z25799d11"/></clipPath>
  <clipPath id="z25799c12"><use href="#z25799d12"/></clipPath>
  <clipPath id="z25799c13"><use href="#z25799d13"/></clipPath>
  <clipPath id="z25799c14"><use href="#z25799d14"/></clipPath>
  <clipPath id="z25799c15"><use href="#z25799d15"/></clipPath>
  <clipPath id="z25799c16"><use href="#z25799d16"/></clipPath>
</defs>
<path style="--d:1s;" pathLength="3333" clip-path="url(#z25799c1)" d="M 93 568 L 116 562 L 153 563 L 350 614 L 398 613"/>
<path style="--d:2s;" pathLength="3333" clip-path="url(#z25799c2)" d="M 246 825 L 273 808 L 293 786 L 285 459 L 291 121 L 285 90 L 268 61 L 196 90 L 178 99 L 176 106 L 165 106"/>
<path style="--d:3s;" pathLength="3333" clip-path="url(#z25799c3)" d="M 50 258 L 95 256 L 180 334 L 367 485"/>
<path style="--d:4s;" pathLength="3333" clip-path="url(#z25799c4)" d="M 422 773 L 448 755 L 458 739 L 507 602"/>
<path style="--d:5s;" pathLength="3333" clip-path="url(#z25799c5)" d="M 473 774 L 496 765 L 584 787 L 777 816 L 817 808 L 832 792 L 838 775 L 800 675 L 786 656 L 755 669"/>
<path style="--d:6s;" pathLength="3333" clip-path="url(#z25799c6)" d="M 554 761 L 565 744 L 576 702 L 582 669 L 578 656"/>
<path style="--d:7s;" pathLength="3333" clip-path="url(#z25799c7)" d="M 660 780 L 677 769 L 687 752 L 665 679 L 653 674"/>
<path style="--d:8s;" pathLength="3333" clip-path="url(#z25799c8)" d="M 522 621 L 537 632 L 690 659 L 737 664 L 746 655"/>
<path style="--d:9s;" pathLength="3333" clip-path="url(#z25799c9)" d="M 497 538 L 551 532 L 684 558 L 751 562"/>
<path style="--d:10s;" pathLength="3333" clip-path="url(#z25799c10)" d="M 592 626 L 618 606 L 626 583 L 625 484 L 609 462"/>
<path style="--d:11s;" pathLength="3333" clip-path="url(#z25799c11)" d="M 376 412 L 410 405 L 695 454 L 876 477 L 942 462"/>
<path style="--d:12s;" pathLength="3333" clip-path="url(#z25799c12)" d="M 503 401 L 526 391 L 546 368 L 554 344"/>
<path style="--d:13s;" pathLength="3333" clip-path="url(#z25799c13)" d="M 689 434 L 707 414 L 708 393 L 675 336 L 659 323"/>
<path style="--d:14s;" pathLength="3333" clip-path="url(#z25799c14)" d="M 471 283 L 526 279 L 725 313 L 776 309"/>
<path style="--d:15s;" pathLength="3333" clip-path="url(#z25799c15)" d="M 397 160 L 451 154 L 717 198 L 818 208 L 898 193"/>
<path style="--d:16s;" pathLength="3333" clip-path="url(#z25799c16)" d="M 590 268 L 627 242 L 625 -71"/>
</svg>