<svg id="z24527" class="acjk" viewBox="0 0 1024 1024" xmlns="http://www.w3.org/2000/svg">
  <path id="z24527d1" d="M 148 526 Q 126 456 91 392 Q 75 361 92 328 Q 101 312 120 324 Q 139 340 152 372 Q 176 426 176 472 Q 179 503 171 527 Q 167 534 160 536 Q 153 535 148 526 Z"/>
  <path id="z24527d2" d="M 303 559 L 304 559 Q 338 537 375 508 Q 385 499 398 501 Q 407 502 409 512 Q 412 524 403 546 Q 396 565 364 579 Q 336 588 304 593 C 274 598 276 572 303 559 Z"/>
  <path id="z24527d3" d="M 304 593 Q 305 672 323 728 Q 332 743 329 757 Q 322 767 266 801 Q 242 817 221 802 Q 217 798 222 782 Q 252 736 254 671 Q 254 263 245 194 Q 238 158 228 120 Q 216 78 243 18 Q 250 0 258 -3 Q 264 -10 272 -1 Q 279 3 290 24 Q 300 49 299 81 Q 298 129 303 559 L 304 593 Z"/>
  <path id="z24527d4" d="M 648 672 Q 742 714 785 723 Q 804 724 807 732 Q 811 744 798 755 Q 776 771 728 790 Q 712 797 698 796 Q 691 792 689 780 Q 689 735 469 633 Q 463 623 470 620 Q 531 636 595 653 L 648 672 Z"/>
  <path id="z24527d5" d="M 676 422 Q 760 432 883 432 Q 944 429 952 441 Q 958 454 940 469 Q 877 514 825 496 Q 765 484 676 467 L 622 459 Q 508 443 377 424 Q 355 421 372 403 Q 387 388 406 383 Q 428 377 446 383 Q 527 404 622 416 L 676 422 Z"/>
  <path id="z24527d6" d="M 628 11 Q 634 -14 641 -25 Q 648 -32 655 -30 Q 673 -18 676 42 Q 683 124 681 205 Q 677 257 676 422 L 676 467 Q 676 557 687 628 Q 690 647 675 657 Q 660 667 648 672 C 621 686 583 680 595 653 Q 613 620 621 549 Q 621 509 622 459 L 622 416 Q 622 59 628 11 Z"/>
<defs>
  <clipPath id="z24527c1"><use href="#z24527d1"/></clipPath>
  <clipPath id="z24527c2"><use href="#z24527d2"/></clipPath>
  <clipPath id="z24527c3"><use href="#z24527d3"/></clipPath>
  <clipPath id="z24527c4"><use href="#z24527d4"/></clipPath>
  <clipPath id="z24527c5"><use href="#z24527d5"/></clipPath>
  <clipPath id="z24527c6"><use href="#z24527d6"/></clipPath>
</defs>
<path style="--d:1s;" pathLength="3333" clip-path="url(#z24527c1)" d="M 160 524 L 143 431 L 107 336"/>
<path style="--d:2s;" pathLength="3333" clip-path="url(#z24527c2)" d="M 311 587 L 324 570 L 375 541 L 393 517"/>
<path style="--d:3s;" pathLength="3333" clip-path="url(#z24527c3)" d="M 233 795 L 262 771 L 284 741 L 278 631 L 276 267 L 262 104 L 263 11"/>
<path style="--d:4s;" pathLength="3333" clip-path="url(#z24527c4)" d="M 796 738 L 722 747 L 608 679 L 509 645 L 502 637 L 482 637 L 475 627"/>
<path style="--d:5s;" pathLength="3333" clip-path="url(#z24527c5)" d="M 375 413 L 427 405 L 589 434 L 849 466 L 890 463 L 942 448"/>
<path style="--d:6s;" pathLength="3333" clip-path="url(#z24527c6)" d="M 603 651 L 647 627 L 651 -19"/>
</svg>