<svg id="z25015" class="acjk" viewBox="0 0 1024 1024" xmlns="http://www.w3.org/2000/svg">
  <path id="z25015d1" d="M 133 540 Q 118 479 93 422 Q 78 389 100 359 Q 110 343 127 358 Q 173 406 165 489 Q 166 520 155 543 Q 149 550 144 551 Q 137 548 133 540 Z"/>
  <path id="z25015d2" d="M 292 573 Q 293 572 298 569 Q 365 521 375 521 Q 382 522 386 532 Q 387 544 380 564 Q 368 591 293 602 C 263 606 268 590 292 573 Z"/>
  <path id="z25015d3" d="M 293 602 Q 297 675 313 727 Q 323 743 320 756 Q 313 766 258 801 Q 234 819 213 804 Q 209 798 214 783 Q 244 735 245 658 Q 245 256 215 125 Q 196 68 204 42 Q 219 -18 234 -27 Q 240 -34 248 -25 Q 275 -7 277 56 Q 276 107 292 568 Q 292 571 292 573 L 293 602 Z"/>
  <path id="z25015d4" d="M 528 641 Q 552 648 577 654 Q 601 660 604 664 Q 611 671 607 678 Q 600 688 575 693 Q 553 697 533 688 L 492 673 Q 479 670 468 666 Q 437 657 398 652 Q 367 645 390 632 Q 426 613 474 628 Q 475 629 480 629 L 528 641 Z"/>
  <path id="z25015d5" d="M 525 600 Q 525 621 528 641 L 533 688 Q 534 692 535 697 Q 535 721 551 752 Q 557 759 547 771 Q 528 786 505 796 Q 490 803 479 798 Q 467 794 472 782 Q 490 752 492 673 L 490 564 Q 484 462 492 446 Q 492 445 495 441 Q 502 428 515 435 Q 527 444 524 526 Q 523 554 524 579 L 525 600 Z"/>
  <path id="z25015d6" d="M 480 629 Q 446 554 356 442 Q 352 435 360 433 Q 364 432 373 439 Q 439 487 490 564 C 543 643 493 656 480 629 Z"/>
  <path id="z25015d7" d="M 524 579 Q 569 537 586 536 Q 596 537 599 550 Q 599 560 591 574 Q 575 592 525 600 C 496 605 502 599 524 579 Z"/>
  <path id="z25015d8" d="M 745 667 Q 857 694 864 698 Q 871 705 867 713 Q 860 723 833 730 Q 812 733 750 713 L 710 701 Q 676 695 639 690 Q 606 684 630 669 Q 652 659 694 657 L 745 667 Z"/>
  <path id="z25015d9" d="M 742 628 Q 743 647 745 667 L 750 713 Q 756 764 770 787 Q 776 794 766 806 Q 747 822 725 832 Q 710 839 699 835 Q 687 831 692 819 Q 708 789 710 701 L 707 605 Q 698 506 710 488 Q 710 487 711 485 Q 718 472 731 479 Q 740 486 741 607 L 742 628 Z"/>
  <path id="z25015d10" d="M 694 657 Q 661 588 584 494 Q 580 487 588 485 Q 592 484 600 490 Q 664 538 707 605 C 749 669 707 684 694 657 Z"/>
  <path id="z25015d11" d="M 741 607 Q 787 574 841 526 Q 865 502 876 518 Q 885 528 872 559 Q 857 604 742 628 C 713 634 717 625 741 607 Z"/>
  <path id="z25015d12" d="M 612 407 Q 717 434 758 430 Q 774 420 772 413 Q 772 410 752 352 Q 748 340 753 337 Q 760 334 773 345 Q 816 376 854 389 Q 884 399 883 407 Q 882 416 818 459 Q 797 474 673 448 Q 664 448 500 416 Q 463 409 423 402 Q 395 399 413 385 Q 441 363 470 371 Q 527 393 576 400 L 612 407 Z"/>
  <path id="z25015d13" d="M 633 139 Q 636 196 639 244 L 641 271 Q 642 305 645 334 Q 649 374 645 381 Q 629 397 612 407 C 587 423 564 427 576 400 Q 589 373 590 352 Q 591 331 591 165 C 591 135 631 109 633 139 Z"/>
  <path id="z25015d14" d="M 639 244 Q 664 250 776 269 Q 798 273 789 285 Q 779 298 755 301 Q 727 302 641 271 C 613 261 610 237 639 244 Z"/>
  <path id="z25015d15" d="M 483 245 Q 492 260 502 273 Q 512 285 498 299 Q 461 330 433 327 Q 423 324 424 310 Q 436 226 341 112 Q 334 109 301 68 Q 294 53 308 58 Q 357 62 439 172 Q 440 176 464 214 L 483 245 Z"/>
  <path id="z25015d16" d="M 464 214 Q 467 213 472 208 Q 568 112 755 -3 Q 782 -16 897 7 Q 904 8 912 10 Q 951 20 961 34 Q 967 47 944 48 Q 757 78 756 78 Q 750 81 747 82 Q 657 115 633 139 L 591 165 Q 537 201 483 245 C 460 264 441 233 464 214 Z"/>
<defs>
  <clipPath id="z25015c1"><use href="#z25015d1"/></clipPath>
  <clipPath id="z25015c2"><use href="#z25015d2"/></clipPath>
  <clipPath id="z25015c3"><use href="#z25015d3"/></clipPath>
  <clipPath id="z25015c4"><use href="#z25015d4"/></clipPath>
  <clipPath id="z25015c5"><use href="#z25015d5"/></clipPath>
  <clipPath id="z25015c6"><use href="#z25015d6"/></clipPath>
  <clipPath id="z25015c7"><use href="#z25015d7"/></clipPath>
  <clipPath id="z25015c8"><use href="#z25015d8"/></clipPath>
  <clipPath id="z25015c9"><use href="#z25015d9"/></clipPath>
  <clipPath id="z25015c10"><use href="#z25015d10"/></clipPath>
  <clipPath id="z25015c11"><use href="#z25015d11"/></clipPath>
  <clipPath id="z25015c12"><use href="#z25015d12"/></clipPath>
  <clipPath id="z25015c13"><use href="#z25015d13"/></clipPath>
  <clipPath id="z25015c14"><use href="#z25015d14"/></clipPath>
  <clipPath id="z25015c15"><use href="#z25015d15"/></clipPath>
  <clipPath id="z25015c16"><use href="#z25015d16"/></clipPath>
</defs>
<path style="--d:1s;" pathLength="3333" clip-path="url(#z25015c1)" d="M 144 540 L 139 463 L 114 366"/>
<path style="--d:2s;" pathLength="3333" clip-path="url(#z25015c2)" d="M 304 594 L 309 582 L 362 552 L 375 532"/>
<path style="--d:3s;" pathLength="3333" clip-path="url(#z25015c3)" d="M 225 797 L 253 772 L 275 737 L 262 337 L 239 66 L 239 -15"/>
<path style="--d:4s;" pathLength="3333" clip-path="url(#z25015c4)" d="M 392 643 L 436 639 L 547 670 L 596 673"/>
<path style="--d:5s;" pathLength="3333" clip-path="url(#z25015c5)" d="M 481 788 L 516 754 L 504 551 L 507 444"/>
<path style="--d:6s;" pathLength="3333" clip-path="url(#z25015c6)" d="M 487 625 L 461 554 L 415 493 L 364 440"/>
<path style="--d:7s;" pathLength="3333" clip-path="url(#z25015c7)" d="M 534 594 L 540 580 L 569 567 L 585 549"/>
<path style="--d:8s;" pathLength="3333" clip-path="url(#z25015c8)" d="M 632 681 L 687 676 L 812 707 L 858 707"/>
<path style="--d:9s;" pathLength="3333" clip-path="url(#z25015c9)" d="M 701 825 L 713 818 L 734 787 L 720 520 L 724 486"/>
<path style="--d:10s;" pathLength="3333" clip-path="url(#z25015c10)" d="M 702 653 L 680 595 L 592 492"/>
<path style="--d:11s;" pathLength="3333" clip-path="url(#z25015c11)" d="M 752 622 L 755 613 L 834 567 L 864 525"/>
<path style="--d:12s;" pathLength="3333" clip-path="url(#z25015c12)" d="M 416 394 L 460 388 L 517 406 L 619 422 L 687 440 L 765 447 L 801 431 L 812 415 L 757 345"/>
<path style="--d:13s;" pathLength="3333" clip-path="url(#z25015c13)" d="M 583 395 L 607 383 L 618 366 L 612 180 L 631 147"/>
<path style="--d:14s;" pathLength="3333" clip-path="url(#z25015c14)" d="M 641 251 L 655 263 L 723 279 L 780 279"/>
<path style="--d:15s;" pathLength="3333" clip-path="url(#z25015c15)" d="M 438 314 L 462 280 L 415 175 L 355 101 L 311 68"/>
<path style="--d:16s;" pathLength="3333" clip-path="url(#z25015c16)" d="M 486 236 L 486 222 L 498 209 L 584 142 L 657 91 L 750 42 L 779 33 L 835 30 L 915 31 L 951 38"/>
</svg>