<svg id="z29990" class="acjk" viewBox="0 0 1024 1024" xmlns="http://www.w3.org/2000/svg">
  <path id="z29990d1" d="M 343 727 Q 391 740 442 752 Q 467 759 472 763 Q 481 772 476 780 Q 469 792 438 798 Q 407 802 377 789 Q 347 779 314 769 Q 278 759 236 754 Q 199 747 226 731 Q 250 719 289 715 L 343 727 Z"/>
  <path id="z29990d2" d="M 199 608 Q 189 614 154 619 Q 144 622 140 617 Q 136 611 143 597 Q 174 536 195 433 Q 199 402 217 382 Q 233 363 238 377 Q 239 381 239 385 L 240 413 Q 239 428 235 445 Q 213 539 207 575 C 202 605 201 607 199 608 Z"/>
  <path id="z29990d3" d="M 418 410 Q 419 406 421 399 Q 427 383 440 385 Q 453 386 461 402 Q 474 420 497 508 Q 513 560 548 591 Q 567 607 551 623 Q 532 639 481 665 Q 469 672 396 655 Q 384 655 365 648 L 315 637 Q 291 633 271 626 Q 228 614 199 608 C 170 602 177 572 207 575 Q 217 574 225 577 Q 256 590 316 602 L 360 611 Q 429 632 450 622 Q 460 615 455 583 Q 433 459 422 434 L 420 428 L 418 410 Z"/>
  <path id="z29990d4" d="M 357 512 Q 384 518 408 521 Q 430 525 421 537 Q 411 550 387 554 Q 374 555 358 551 L 315 540 Q 287 530 262 520 Q 246 516 266 503 Q 270 500 313 504 L 357 512 Z"/>
  <path id="z29990d5" d="M 350 401 Q 380 407 418 410 C 438 412 438 412 420 428 Q 414 434 402 442 Q 380 454 354 440 L 308 428 Q 271 421 240 413 C 211 406 209 381 239 385 L 305 395 L 350 401 Z"/>
  <path id="z29990d6" d="M 326 261 Q 341 313 350 401 L 354 440 Q 355 477 357 512 L 358 551 L 360 611 L 365 648 Q 368 670 375 693 Q 379 703 372 710 Q 360 720 343 727 C 316 741 270 738 289 715 Q 314 691 315 665 Q 315 652 315 637 L 316 602 Q 316 571 315 540 L 313 504 Q 312 465 308 428 L 305 395 Q 296 320 287 287 L 274 252 Q 235 165 88 92 Q 76 88 74 85 Q 70 81 83 78 Q 96 77 146 93 Q 182 103 233 134 Q 282 165 313 224 L 326 261 Z"/>
  <path id="z29990d7" d="M 313 224 Q 511 85 638 19 Q 716 -17 744 -18 Q 765 -17 943 44 Q 962 51 979 63 Q 986 78 966 83 Q 941 87 754 82 Q 646 82 515 149 Q 425 195 326 261 L 287 287 Q 260 306 233 326 Q 190 359 132 355 Q 119 354 112 345 Q 109 338 120 332 Q 133 326 148 322 Q 179 316 204 299 Q 238 275 274 252 L 313 224 Z"/>
  <path id="z29990d8" d="M 622 566 Q 635 599 649 617 Q 655 627 650 636 Q 646 645 620 659 Q 598 669 584 666 Q 571 662 579 647 Q 594 628 565 543 Q 552 504 529 460 Q 523 451 522 446 Q 521 437 531 441 Q 559 453 609 543 L 622 566 Z"/>
  <path id="z29990d9" d="M 754 543 Q 791 553 834 559 Q 865 566 870 570 Q 879 577 875 585 Q 868 595 842 603 Q 818 607 755 589 L 710 577 Q 668 570 622 566 C 592 563 582 556 609 543 Q 640 525 710 536 L 754 543 Z"/>
  <path id="z29990d10" d="M 750 397 Q 801 404 844 407 Q 869 410 861 424 Q 851 440 824 446 Q 799 450 755 441 Q 752 441 751 439 C 743 436 738 435 708 430 Q 650 420 601 410 Q 582 406 603 390 Q 615 380 639 384 Q 673 388 707 391 L 750 397 Z"/>
  <path id="z29990d11" d="M 746 259 Q 747 329 750 397 L 751 439 Q 752 493 754 543 L 755 589 Q 758 719 778 803 Q 782 816 760 831 Q 723 850 696 855 Q 678 858 670 849 Q 663 840 671 824 Q 705 775 705 742 Q 709 663 710 577 L 710 536 Q 709 484 708 430 L 707 391 Q 706 325 702 253 C 700 223 746 229 746 259 Z"/>
  <path id="z29990d12" d="M 702 253 Q 620 243 527 231 Q 509 230 522 214 Q 534 202 549 198 Q 568 194 581 197 Q 689 224 921 223 Q 937 223 942 230 Q 946 240 933 252 Q 884 288 825 273 Q 791 267 746 259 L 702 253 Z"/>
<defs>
  <clipPath id="z29990c1"><use href="#z29990d1"/></clipPath>
  <clipPath id="z29990c2"><use href="#z29990d2"/></clipPath>
  <clipPath id="z29990c3"><use href="#z29990d3"/></clipPath>
  <clipPath id="z29990c4"><use href="#z29990d4"/></clipPath>
  <clipPath id="z29990c5"><use href="#z29990d5"/></clipPath>
  <clipPath id="z29990c6"><use href="#z29990d6"/></clipPath>
  <clipPath id="z29990c7"><use href="#z29990d7"/></clipPath>
  <clipPath id="z29990c8"><use href="#z29990d8"/></clipPath>
  <clipPath id="z29990c9"><use href="#z29990d9"/></clipPath>
  <clipPath id="z29990c10"><use href="#z29990d10"/></clipPath>
  <clipPath id="z29990c11"><use href="#z29990d11"/></clipPath>
  <clipPath id="z29990c12"><use href="#z29990d12"/></clipPath>
</defs>
<path style="--d:1s;" pathLength="3333" clip-path="url(#z29990c1)" d="M 228 744 L 291 739 L 405 771 L 465 774"/>
<path style="--d:2s;" pathLength="3333" clip-path="url(#z29990c2)" d="M 148 612 L 178 585 L 228 382"/>
<path style="--d:3s;" pathLength="3333" clip-path="url(#z29990c3)" d="M 206 604 L 224 595 L 431 645 L 462 643 L 477 635 L 500 604 L 438 402"/>
<path style="--d:4s;" pathLength="3333" clip-path="url(#z29990c4)" d="M 263 511 L 369 535 L 412 531"/>
<path style="--d:5s;" pathLength="3333" clip-path="url(#z29990c5)" d="M 245 392 L 254 402 L 383 427 L 405 422 L 410 415"/>
<path style="--d:6s;" pathLength="3333" clip-path="url(#z29990c6)" d="M 297 711 L 342 692 L 328 394 L 306 273 L 281 215 L 237 164 L 134 100 L 82 86"/>
<path style="--d:7s;" pathLength="3333" clip-path="url(#z29990c7)" d="M 122 342 L 169 336 L 216 315 L 451 156 L 570 91 L 664 51 L 741 32 L 967 69"/>
<path style="--d:8s;" pathLength="3333" clip-path="url(#z29990c8)" d="M 587 655 L 613 631 L 609 600 L 579 524 L 555 480 L 530 450"/>
<path style="--d:9s;" pathLength="3333" clip-path="url(#z29990c9)" d="M 616 546 L 632 552 L 698 554 L 818 580 L 864 580"/>
<path style="--d:10s;" pathLength="3333" clip-path="url(#z29990c10)" d="M 602 400 L 631 399 L 782 424 L 826 426 L 849 419"/>
<path style="--d:11s;" pathLength="3333" clip-path="url(#z29990c11)" d="M 682 839 L 734 798 L 736 778 L 726 283 L 708 261"/>
<path style="--d:12s;" pathLength="3333" clip-path="url(#z29990c12)" d="M 525 222 L 574 216 L 864 250 L 902 246 L 933 235"/>
</svg>