<svg id="z25881" class="acjk" viewBox="0 0 1024 1024" xmlns="http://www.w3.org/2000/svg">
  <path id="z25881d1" d="M 279 553 Q 363 583 366 585 Q 373 594 368 601 Q 361 611 331 615 Q 304 618 281 606 L 232 585 Q 175 564 121 553 Q 87 543 113 530 Q 156 511 208 531 Q 218 535 231 538 L 279 553 Z"/>
  <path id="z25881d2" d="M 227 307 Q 226 216 225 102 Q 224 77 210 67 Q 204 63 137 66 Q 103 75 107 65 Q 108 58 130 45 Q 193 2 209 -24 Q 228 -54 244 -54 Q 257 -55 271 -20 Q 287 25 283 98 Q 276 222 275 345 L 275 381 Q 275 468 279 553 L 281 606 Q 296 745 302 764 Q 320 795 264 817 Q 230 836 211 829 Q 193 823 209 800 Q 231 773 232 739 Q 233 721 232 585 L 231 538 Q 230 462 228 354 L 227 307 Z"/>
  <path id="z25881d3" d="M 228 354 Q 75 266 57 258 Q 42 252 41 244 Q 40 237 53 223 Q 71 210 91 202 Q 106 198 115 209 Q 184 279 227 307 L 275 345 Q 312 376 347 399 Q 366 411 377 425 Q 383 437 373 436 Q 361 436 275 381 L 228 354 Z"/>
  <path id="z25881d4" d="M 611 829 Q 587 862 566 866 Q 556 866 555 855 Q 551 792 454 722 Q 448 722 415 697 Q 405 687 418 688 Q 470 684 552 757 Q 558 766 611 810 C 620 817 620 817 611 829 Z"/>
  <path id="z25881d5" d="M 654 713 Q 712 773 760 797 Q 776 804 767 815 Q 757 827 729 847 Q 720 853 663 837 Q 620 831 611 829 C 581 824 582 818 611 810 Q 620 804 675 810 Q 679 811 682 809 Q 683 806 680 799 Q 650 744 632 719 Q 626 712 623 705 C 609 679 633 692 654 713 Z"/>
  <path id="z25881d6" d="M 515 688 Q 505 692 476 694 Q 466 695 464 691 Q 460 685 468 674 Q 489 644 507 592 Q 511 577 522 568 Q 538 552 541 565 Q 542 569 542 576 L 538 603 Q 526 646 523 664 C 519 687 519 687 515 688 Z"/>
  <path id="z25881d7" d="M 623 705 Q 568 695 515 688 C 485 684 494 658 523 664 Q 527 665 710 704 Q 732 710 742 701 Q 746 695 729 640 C 720 611 754 605 768 631 Q 786 667 810 680 Q 823 693 813 707 Q 801 717 763 739 Q 750 746 734 740 Q 692 724 654 713 L 623 705 Z"/>
  <path id="z25881d8" d="M 542 576 Q 548 576 554 577 Q 623 593 774 608 Q 783 609 783 616 Q 783 620 768 631 L 729 640 Q 725 641 722 639 Q 619 614 538 603 C 508 599 512 574 542 576 Z"/>
  <path id="z25881d9" d="M 484 493 Q 487 493 495 494 Q 553 506 598 513 Q 616 517 609 526 Q 600 536 580 540 Q 565 541 484 514 C 456 505 454 491 484 493 Z"/>
  <path id="z25881d10" d="M 484 514 Q 484 559 481 562 Q 465 575 452 581 Q 440 585 435 581 Q 428 577 434 568 Q 456 523 454 467 Q 451 437 425 408 Q 409 389 435 361 Q 442 357 450 366 Q 468 385 602 454 Q 615 458 619 464 Q 623 470 617 471 Q 608 472 498 433 Q 482 429 483 443 Q 484 470 484 493 L 484 514 Z"/>
  <path id="z25881d11" d="M 686 492 Q 759 519 817 546 Q 833 553 850 557 Q 866 560 862 573 Q 856 586 841 601 Q 828 614 819 614 Q 810 615 810 606 Q 810 585 748 545 Q 717 526 686 505 C 661 488 658 482 686 492 Z"/>
  <path id="z25881d12" d="M 686 505 Q 687 521 691 541 Q 694 553 686 559 Q 679 566 663 572 Q 654 575 649 572 Q 645 569 648 558 Q 658 533 656 509 Q 653 443 677 421 Q 734 378 837 405 Q 838 406 841 406 Q 865 413 887 432 Q 897 439 892 454 Q 886 470 880 517 Q 880 526 876 529 Q 873 532 869 521 Q 850 472 837 457 Q 830 448 806 442 Q 758 427 711 444 Q 695 451 690 461 Q 687 470 686 492 L 686 505 Z"/>
  <path id="z25881d13" d="M 581 361 Q 596 379 604 383 Q 608 386 608 392 Q 604 410 583 418 Q 573 424 566 423 Q 560 422 561 415 Q 565 388 518 338 Q 505 325 473 299 Q 469 296 474 294 Q 513 294 570 349 L 581 361 Z"/>
  <path id="z25881d14" d="M 633 284 Q 684 336 713 352 Q 725 359 717 368 Q 707 377 682 391 Q 672 395 661 389 Q 655 385 607 368 Q 594 364 581 361 C 552 354 551 354 570 349 Q 580 343 636 354 Q 645 358 649 355 Q 652 354 648 347 Q 621 302 605 279 C 588 254 612 263 633 284 Z"/>
  <path id="z25881d15" d="M 469 261 Q 459 265 436 266 Q 426 267 424 264 Q 420 258 427 247 Q 449 213 467 153 Q 471 135 482 124 Q 498 108 501 121 Q 502 128 502 137 L 498 162 Q 486 214 483 234 C 479 258 479 258 469 261 Z"/>
  <path id="z25881d16" d="M 762 190 Q 787 235 816 247 Q 831 260 820 276 Q 808 289 768 313 Q 755 320 736 316 Q 684 297 633 284 L 605 279 Q 538 267 469 261 C 439 258 453 229 483 234 Q 493 235 503 238 Q 539 245 576 251 L 614 258 Q 731 285 745 271 Q 749 265 745 254 Q 732 226 720 201 C 707 174 747 164 762 190 Z"/>
  <path id="z25881d17" d="M 612 151 Q 675 161 766 168 Q 773 169 775 176 Q 775 180 762 190 C 743 206 743 206 720 201 Q 717 201 715 200 Q 666 190 624 180 L 568 171 Q 531 167 498 162 C 468 158 472 134 502 137 Q 506 137 560 144 L 612 151 Z"/>
  <path id="z25881d18" d="M 560 144 Q 506 9 388 -45 L 358 -59 Q 346 -65 356 -69 Q 402 -79 476 -34 Q 509 -15 552 36 Q 553 39 557 42 Q 570 60 612 151 L 624 180 Q 631 196 643 211 Q 653 224 641 235 Q 629 247 614 258 C 590 276 572 281 576 251 Q 580 233 577 214 Q 576 199 571 183 Q 570 179 568 171 L 560 144 Z"/>
  <path id="z25881d19" d="M 643 59 Q 636 -2 640 -19 Q 641 -38 660 -56 Q 732 -116 893 -88 Q 896 -87 899 -87 Q 936 -80 973 -57 Q 991 -44 979 -21 Q 969 3 955 75 Q 955 90 949 94 Q 943 97 939 81 Q 912 5 896 -19 Q 883 -31 848 -38 Q 767 -53 709 -30 Q 687 -20 682 -6 Q 673 18 694 97 Q 700 124 660 143 Q 650 147 642 144 Q 636 141 639 125 Q 648 91 643 59 Z"/>
  <path id="z25881d20" d="M 762 90 Q 780 69 798 45 Q 808 32 822 31 Q 831 30 837 41 Q 843 53 839 80 Q 832 107 763 131 Q 750 135 744 135 Q 740 132 739 121 Q 740 111 762 90 Z"/>
<defs>
  <clipPath id="z25881c1"><use href="#z25881d1"/></clipPath>
  <clipPath id="z25881c2"><use href="#z25881d2"/></clipPath>
  <clipPath id="z25881c3"><use href="#z25881d3"/></clipPath>
  <clipPath id="z25881c4"><use href="#z25881d4"/></clipPath>
  <clipPath id="z25881c5"><use href="#z25881d5"/></clipPath>
  <clipPath id="z25881c6"><use href="#z25881d6"/></clipPath>
  <clipPath id="z25881c7"><use href="#z25881d7"/></clipPath>
  <clipPath id="z25881c8"><use href="#z25881d8"/></clipPath>
  <clipPath id="z25881c9"><use href="#z25881d9"/></clipPath>
  <clipPath id="z25881c10"><use href="#z25881d10"/></clipPath>
  <clipPath id="z25881c11"><use href="#z25881d11"/></clipPath>
  <clipPath id="z25881c12"><use href="#z25881d12"/></clipPath>
  <clipPath id="z25881c13"><use href="#z25881d13"/></clipPath>
  <clipPath id="z25881c14"><use href="#z25881d14"/></clipPath>
  <clipPath id="z25881c15"><use href="#z25881d15"/></clipPath>
  <clipPath id="z25881c16"><use href="#z25881d16"/></clipPath>
  <clipPath id="z25881c17"><use href="#z25881d17"/></clipPath>
  <clipPath id="z25881c18"><use href="#z25881d18"/></clipPath>
  <clipPath id="z25881c19"><use href="#z25881d19"/></clipPath>
  <clipPath id="z25881c20"><use href="#z25881d20"/></clipPath>
</defs>
<path style="--d:1s;" pathLength="3333" clip-path="url(#z25881c1)" d="M 114 542 L 165 541 L 314 591 L 361 593"/>
<path style="--d:2s;" pathLength="3333" clip-path="url(#z25881c2)" d="M 217 814 L 234 806 L 265 774 L 251 414 L 252 72 L 232 24 L 126 58 L 124 64 L 114 63"/>
<path style="--d:3s;" pathLength="3333" clip-path="url(#z25881c3)" d="M 52 242 L 98 240 L 225 333 L 372 429"/>
<path style="--d:4s;" pathLength="3333" clip-path="url(#z25881c4)" d="M 568 853 L 579 821 L 532 764 L 465 712 L 423 695"/>
<path style="--d:5s;" pathLength="3333" clip-path="url(#z25881c5)" d="M 615 824 L 632 819 L 697 825 L 717 813 L 664 741 L 628 707"/>
<path style="--d:6s;" pathLength="3333" clip-path="url(#z25881c6)" d="M 472 686 L 501 663 L 532 569"/>
<path style="--d:7s;" pathLength="3333" clip-path="url(#z25881c7)" d="M 523 671 L 539 681 L 642 697 L 745 723 L 761 715 L 775 694 L 757 656 L 738 651"/>
<path style="--d:8s;" pathLength="3333" clip-path="url(#z25881c8)" d="M 546 597 L 554 591 L 728 622 L 776 615"/>
<path style="--d:9s;" pathLength="3333" clip-path="url(#z25881c9)" d="M 489 498 L 498 509 L 537 518 L 578 525 L 601 521"/>
<path style="--d:10s;" pathLength="3333" clip-path="url(#z25881c10)" d="M 441 574 L 463 551 L 465 539 L 465 413 L 505 418 L 577 453 L 589 450 L 615 467"/>
<path style="--d:11s;" pathLength="3333" clip-path="url(#z25881c11)" d="M 821 603 L 825 576 L 693 499"/>
<path style="--d:12s;" pathLength="3333" clip-path="url(#z25881c12)" d="M 656 564 L 673 538 L 670 498 L 676 452 L 687 437 L 723 419 L 790 416 L 850 436 L 865 450 L 876 522"/>
<path style="--d:13s;" pathLength="3333" clip-path="url(#z25881c13)" d="M 569 415 L 581 394 L 560 363 L 523 325 L 490 303 L 481 304 L 479 298"/>
<path style="--d:14s;" pathLength="3333" clip-path="url(#z25881c14)" d="M 574 351 L 656 370 L 677 362 L 645 313 L 612 280"/>
<path style="--d:15s;" pathLength="3333" clip-path="url(#z25881c15)" d="M 431 259 L 461 231 L 492 125"/>
<path style="--d:16s;" pathLength="3333" clip-path="url(#z25881c16)" d="M 477 257 L 490 249 L 625 268 L 735 296 L 755 293 L 781 265 L 752 216 L 728 205"/>
<path style="--d:17s;" pathLength="3333" clip-path="url(#z25881c17)" d="M 504 144 L 520 153 L 547 153 L 710 182 L 768 175"/>
<path style="--d:18s;" pathLength="3333" clip-path="url(#z25881c18)" d="M 583 246 L 607 228 L 607 211 L 587 149 L 540 57 L 508 18 L 459 -25 L 412 -50 L 363 -65"/>
<path style="--d:19s;" pathLength="3333" clip-path="url(#z25881c19)" d="M 647 136 L 669 104 L 659 25 L 666 -27 L 698 -52 L 744 -67 L 839 -68 L 899 -55 L 923 -43 L 938 -29 L 948 88"/>
<path style="--d:20s;" pathLength="3333" clip-path="url(#z25881c20)" d="M 747 126 L 797 89 L 812 73 L 823 46"/>
</svg>