<svg id="z22763" class="acjk" viewBox="0 0 1024 1024" xmlns="http://www.w3.org/2000/svg">
  <path id="z22763d1" d="M 535 412 Q 718 436 872 423 Q 897 420 903 430 Q 910 443 898 456 Q 867 484 821 504 Q 806 510 779 501 Q 713 485 645 475 Q 581 468 536 461 L 482 454 Q 473 457 297 431 Q 231 421 132 418 Q 119 417 117 406 Q 116 393 136 378 Q 154 365 186 353 Q 198 349 216 358 Q 232 364 302 377 Q 383 396 482 407 L 535 412 Z"/>
  <path id="z22763d2" d="M 530 159 Q 533 292 535 412 L 536 461 Q 536 650 554 701 Q 566 723 551 736 Q 514 764 484 773 Q 468 777 453 764 Q 447 757 454 745 Q 484 697 482 642 Q 482 551 482 454 L 482 407 Q 482 284 482 153 C 482 123 529 129 530 159 Z"/>
  <path id="z22763d3" d="M 482 153 Q 386 141 274 128 Q 252 127 268 107 Q 284 91 303 85 Q 327 78 344 83 Q 443 108 704 108 Q 717 108 731 107 Q 753 106 759 116 Q 765 129 747 144 Q 684 192 614 174 Q 578 168 530 159 L 482 153 Z"/>
<defs>
  <clipPath id="z22763c1"><use href="#z22763d1"/></clipPath>
  <clipPath id="z22763c2"><use href="#z22763d2"/></clipPath>
  <clipPath id="z22763c3"><use href="#z22763d3"/></clipPath>
</defs>
<path style="--d:1s;" pathLength="3333" clip-path="url(#z22763c1)" d="M 131 404 L 197 387 L 388 420 L 805 467 L 890 439"/>
<path style="--d:2s;" pathLength="3333" clip-path="url(#z22763c2)" d="M 466 755 L 482 747 L 514 710 L 507 201 L 506 181 L 487 161"/>
<path style="--d:3s;" pathLength="3333" clip-path="url(#z22763c3)" d="M 271 117 L 326 107 L 641 143 L 687 141 L 746 123"/>
</svg>