<svg id="z25101" class="acjk" viewBox="0 0 1024 1024" xmlns="http://www.w3.org/2000/svg">
  <path id="z25101d1" d="M 559 533 Q 718 578 724 583 Q 733 592 728 600 Q 721 612 690 618 Q 659 622 629 609 Q 589 594 548 579 L 503 565 Q 496 564 492 562 Q 413 540 320 526 Q 317 526 317 525 C 288 519 293 504 322 497 Q 361 485 445 505 Q 476 514 514 522 L 559 533 Z"/>
  <path id="z25101d2" d="M 317 525 Q 314 528 310 530 Q 262 557 247 555 Q 226 552 241 529 Q 274 468 235 267 Q 223 225 201 178 Q 176 123 93 47 Q 78 35 74 29 Q 73 22 84 22 Q 123 19 191 85 Q 263 154 289 278 Q 292 296 322 497 C 325 520 325 520 317 525 Z"/>
  <path id="z25101d3" d="M 378 274 Q 406 246 438 211 Q 450 198 465 197 Q 475 196 481 209 Q 487 222 480 252 Q 476 274 445 292 Q 376 328 356 323 Q 352 319 351 307 Q 354 297 378 274 Z"/>
  <path id="z25101d4" d="M 651 163 Q 714 52 811 -18 Q 874 -70 904 -70 Q 926 -66 918 -36 Q 915 16 927 167 Q 928 194 919 195 Q 913 195 870 94 Q 855 60 834 58 Q 821 62 799 76 Q 736 128 685 207 L 656 260 Q 596 384 559 533 L 548 579 Q 527 678 530 753 Q 539 796 480 813 Q 443 826 422 816 Q 403 807 414 788 Q 466 751 469 715 Q 485 634 503 565 L 514 522 Q 559 345 625 212 L 651 163 Z"/>
  <path id="z25101d5" d="M 625 212 Q 565 139 456 51 Q 447 44 455 40 Q 462 37 474 42 Q 577 87 651 163 L 685 207 Q 686 210 690 213 Q 730 268 768 363 Q 781 391 797 419 Q 804 429 799 440 Q 792 450 760 469 Q 738 482 727 480 Q 712 476 714 460 Q 723 369 656 260 L 625 212 Z"/>
  <path id="z25101d6" d="M 673 754 Q 704 735 736 710 Q 749 700 764 702 Q 774 703 777 716 Q 780 729 768 756 Q 761 775 729 785 Q 656 803 644 795 Q 640 791 642 779 Q 646 769 673 754 Z"/>
<defs>
  <clipPath id="z25101c1"><use href="#z25101d1"/></clipPath>
  <clipPath id="z25101c2"><use href="#z25101d2"/></clipPath>
  <clipPath id="z25101c3"><use href="#z25101d3"/></clipPath>
  <clipPath id="z25101c4"><use href="#z25101d4"/></clipPath>
  <clipPath id="z25101c5"><use href="#z25101d5"/></clipPath>
  <clipPath id="z25101c6"><use href="#z25101d6"/></clipPath>
</defs>
<path style="--d:1s;" pathLength="3333" clip-path="url(#z25101c1)" d="M 321 518 L 337 511 L 411 519 L 563 558 L 669 593 L 717 594"/>
<path style="--d:2s;" pathLength="3333" clip-path="url(#z25101c2)" d="M 248 541 L 285 505 L 288 488 L 276 354 L 250 227 L 220 160 L 189 116 L 117 46 L 81 29"/>
<path style="--d:3s;" pathLength="3333" clip-path="url(#z25101c3)" d="M 360 317 L 442 255 L 465 213"/>
<path style="--d:4s;" pathLength="3333" clip-path="url(#z25101c4)" d="M 427 799 L 463 787 L 492 763 L 520 592 L 575 393 L 631 254 L 670 181 L 721 109 L 792 40 L 829 18 L 863 10 L 888 59 L 921 190"/>
<path style="--d:5s;" pathLength="3333" clip-path="url(#z25101c5)" d="M 730 464 L 754 425 L 748 399 L 717 317 L 672 234 L 628 175 L 575 125 L 460 45"/>
<path style="--d:6s;" pathLength="3333" clip-path="url(#z25101c6)" d="M 649 789 L 726 755 L 762 717"/>
</svg>