<svg id="z24120" class="acjk" viewBox="0 0 1024 1024" xmlns="http://www.w3.org/2000/svg">
  <path id="z24120d1" d="M 525 640 Q 540 755 555 808 Q 559 818 540 833 Q 507 852 485 856 Q 469 860 462 852 Q 455 845 462 830 Q 483 805 484 634 C 484 604 521 610 525 640 Z"/>
  <path id="z24120d2" d="M 332 724 Q 351 703 372 679 Q 382 666 398 665 Q 408 665 413 677 Q 419 690 413 718 Q 406 745 332 768 Q 319 772 312 771 Q 308 768 307 756 Q 310 746 332 724 Z"/>
  <path id="z24120d3" d="M 653 779 Q 631 748 588 698 Q 581 691 587 683 Q 594 682 603 685 Q 687 736 727 754 Q 746 758 742 769 Q 736 785 718 806 Q 699 825 676 829 Q 661 829 661 809 Q 662 794 653 779 Z"/>
  <path id="z24120d4" d="M 234 602 L 234 603 Q 221 627 209 635 Q 190 648 189 623 Q 193 590 166 555 Q 121 519 155 455 Q 171 430 190 457 Q 203 479 213 512 Q 225 552 234 575 L 234 602 Z"/>
  <path id="z24120d5" d="M 234 575 Q 259 559 299 567 Q 456 613 698 632 Q 744 636 761 633 Q 776 623 773 615 Q 773 612 746 547 Q 739 534 745 529 Q 752 525 770 536 Q 825 569 871 578 Q 908 588 908 596 Q 907 606 833 662 Q 808 683 743 669 Q 587 651 525 640 L 484 634 Q 426 628 356 617 Q 296 608 236 603 Q 235 603 234 602 C 204 598 206 586 234 575 Z"/>
  <path id="z24120d6" d="M 374 532 Q 364 536 337 540 Q 325 541 323 537 Q 317 531 326 516 Q 350 474 367 405 Q 371 383 384 370 Q 402 351 406 365 Q 407 372 409 384 L 405 414 Q 392 481 390 503 C 387 528 387 528 374 532 Z"/>
  <path id="z24120d7" d="M 631 443 Q 652 491 679 505 Q 695 521 683 539 Q 667 552 620 578 Q 604 585 583 579 Q 511 552 374 532 C 344 528 361 497 390 503 Q 393 504 563 533 Q 584 537 592 529 Q 598 523 596 510 Q 589 479 580 451 C 571 422 618 416 631 443 Z"/>
  <path id="z24120d8" d="M 509 399 Q 561 409 637 416 Q 647 417 648 425 Q 648 432 631 443 L 580 451 Q 579 452 576 451 Q 482 426 405 414 C 375 409 379 383 409 384 Q 419 384 432 385 Q 442 388 454 390 L 509 399 Z"/>
  <path id="z24120d9" d="M 339 289 Q 318 310 285 308 Q 272 304 278 293 Q 306 236 282 158 Q 263 122 294 78 L 296 76 Q 303 63 312 69 Q 339 90 340 162 Q 343 228 345 251 C 347 281 347 282 339 289 Z"/>
  <path id="z24120d10" d="M 530 281 Q 588 290 649 293 Q 683 294 684 272 Q 693 160 680 144 Q 667 135 605 147 Q 589 151 585 145 Q 582 139 594 129 Q 655 89 694 57 Q 710 44 723 59 Q 748 92 749 162 Q 743 234 750 280 Q 754 302 744 312 Q 716 337 695 349 Q 682 355 672 345 Q 663 335 542 313 Q 536 313 531 311 L 473 303 Q 421 299 339 289 C 309 285 315 247 345 251 Q 349 251 357 252 Q 415 265 473 273 L 530 281 Z"/>
  <path id="z24120d11" d="M 479 -32 Q 483 -56 490 -65 Q 496 -72 503 -70 Q 516 -61 523 -5 Q 529 46 528 96 Q 527 136 530 281 L 531 311 Q 534 344 539 361 Q 542 377 528 387 Q 518 394 509 399 C 483 415 444 418 454 390 Q 469 353 473 308 Q 472 307 473 303 L 473 273 Q 477 -30 479 -32 Z"/>
<defs>
  <clipPath id="z24120c1"><use href="#z24120d1"/></clipPath>
  <clipPath id="z24120c2"><use href="#z24120d2"/></clipPath>
  <clipPath id="z24120c3"><use href="#z24120d3"/></clipPath>
  <clipPath id="z24120c4"><use href="#z24120d4"/></clipPath>
  <clipPath id="z24120c5"><use href="#z24120d5"/></clipPath>
  <clipPath id="z24120c6"><use href="#z24120d6"/></clipPath>
  <clipPath id="z24120c7"><use href="#z24120d7"/></clipPath>
  <clipPath id="z24120c8"><use href="#z24120d8"/></clipPath>
  <clipPath id="z24120c9"><use href="#z24120d9"/></clipPath>
  <clipPath id="z24120c10"><use href="#z24120d10"/></clipPath>
  <clipPath id="z24120c11"><use href="#z24120d11"/></clipPath>
</defs>
<path style="--d:1s;" pathLength="3333" clip-path="url(#z24120c1)" d="M 473 842 L 513 802 L 506 659 L 489 647"/>
<path style="--d:2s;" pathLength="3333" clip-path="url(#z24120c2)" d="M 316 761 L 378 716 L 397 681"/>
<path style="--d:3s;" pathLength="3333" clip-path="url(#z24120c3)" d="M 676 813 L 693 779 L 591 690"/>
<path style="--d:4s;" pathLength="3333" clip-path="url(#z24120c4)" d="M 200 628 L 211 595 L 175 508 L 171 460"/>
<path style="--d:5s;" pathLength="3333" clip-path="url(#z24120c5)" d="M 239 595 L 256 585 L 300 588 L 590 637 L 734 653 L 775 652 L 800 641 L 820 612 L 750 535"/>
<path style="--d:6s;" pathLength="3333" clip-path="url(#z24120c6)" d="M 332 530 L 357 510 L 365 496 L 396 371"/>
<path style="--d:7s;" pathLength="3333" clip-path="url(#z24120c7)" d="M 384 531 L 398 520 L 602 555 L 615 548 L 636 522 L 615 473 L 587 456"/>
<path style="--d:8s;" pathLength="3333" clip-path="url(#z24120c8)" d="M 413 407 L 423 400 L 583 431 L 639 425"/>
<path style="--d:9s;" pathLength="3333" clip-path="url(#z24120c9)" d="M 285 299 L 314 275 L 318 249 L 306 78"/>
<path style="--d:10s;" pathLength="3333" clip-path="url(#z24120c10)" d="M 350 258 L 367 275 L 653 315 L 694 313 L 715 290 L 717 278 L 717 154 L 703 111 L 690 107 L 657 115 L 591 142"/>
<path style="--d:11s;" pathLength="3333" clip-path="url(#z24120c11)" d="M 462 386 L 501 361 L 499 -61"/>
</svg>