<svg id="z23708" class="acjk" viewBox="0 0 1024 1024" xmlns="http://www.w3.org/2000/svg">
  <path id="z23708d1" d="M 527 630 Q 554 783 562 799 Q 566 809 547 825 Q 516 844 493 849 Q 478 853 470 846 Q 463 839 469 824 Q 482 806 482 794 Q 486 715 485 623 C 485 593 522 600 527 630 Z"/>
  <path id="z23708d2" d="M 696 647 Q 606 643 527 630 L 485 623 Q 412 613 350 597 Q 331 594 337 616 Q 355 692 346 708 Q 333 727 309 742 Q 299 749 287 748 Q 277 744 282 725 Q 298 682 288 640 Q 279 601 262 585 Q 243 569 249 554 Q 259 538 276 525 Q 289 516 299 524 Q 347 572 597 604 Q 675 616 695 608 C 725 603 726 649 696 647 Z"/>
  <path id="z23708d3" d="M 695 608 Q 698 589 704 573 Q 711 557 724 567 Q 751 591 761 671 Q 777 717 785 725 Q 795 738 785 753 Q 769 769 738 791 Q 726 798 714 794 Q 707 790 707 777 Q 716 768 717 710 Q 711 674 696 647 L 695 608 Z"/>
  <path id="z23708d4" d="M 684 347 Q 711 425 745 451 Q 763 470 748 489 Q 667 549 613 522 Q 484 479 305 456 C 275 452 308 416 337 424 Q 349 430 469 451 L 505 459 Q 629 487 645 473 Q 655 463 652 445 Q 643 393 631 351 C 623 322 674 319 684 347 Z"/>
  <path id="z23708d5" d="M 469 451 Q 470 450 471 448 Q 472 436 465 317 C 463 287 506 295 511 325 Q 521 385 529 404 Q 538 420 531 430 Q 518 448 505 459 C 483 479 457 479 469 451 Z"/>
  <path id="z23708d6" d="M 308 261 Q 323 254 341 258 Q 456 283 702 306 Q 714 307 715 317 Q 715 326 684 347 C 669 358 661 356 631 351 Q 630 351 629 351 Q 568 338 511 325 L 465 317 Q 383 304 311 294 C 281 290 279 270 308 261 Z"/>
  <path id="z23708d7" d="M 898 93 Q 880 144 871 232 Q 870 248 862 254 Q 853 260 849 238 Q 830 130 814 111 Q 762 53 542 51 Q 422 55 371 75 Q 326 97 317 128 Q 305 162 307 249 Q 307 256 308 261 L 311 294 Q 318 358 333 391 Q 340 410 337 424 C 338 435 331 440 305 456 Q 271 481 259 477 Q 243 471 250 453 Q 269 413 264 355 Q 254 139 277 97 Q 311 21 458 3 Q 551 -7 697 4 Q 827 14 879 44 Q 910 60 898 93 Z"/>
<defs>
  <clipPath id="z23708c1"><use href="#z23708d1"/></clipPath>
  <clipPath id="z23708c2"><use href="#z23708d2"/></clipPath>
  <clipPath id="z23708c3"><use href="#z23708d3"/></clipPath>
  <clipPath id="z23708c4"><use href="#z23708d4"/></clipPath>
  <clipPath id="z23708c5"><use href="#z23708d5"/></clipPath>
  <clipPath id="z23708c6"><use href="#z23708d6"/></clipPath>
  <clipPath id="z23708c7"><use href="#z23708d7"/></clipPath>
</defs>
<path style="--d:1s;" pathLength="3333" clip-path="url(#z23708c1)" d="M 480 837 L 511 810 L 520 794 L 509 651 L 491 631"/>
<path style="--d:2s;" pathLength="3333" clip-path="url(#z23708c2)" d="M 292 738 L 316 703 L 320 685 L 305 576 L 357 577 L 479 605 L 610 624 L 679 629 L 693 615"/>
<path style="--d:3s;" pathLength="3333" clip-path="url(#z23708c3)" d="M 719 781 L 733 770 L 751 737 L 725 639 L 715 575"/>
<path style="--d:4s;" pathLength="3333" clip-path="url(#z23708c4)" d="M 314 455 L 341 443 L 454 462 L 585 494 L 656 501 L 697 468 L 665 375 L 638 356"/>
<path style="--d:5s;" pathLength="3333" clip-path="url(#z23708c5)" d="M 479 446 L 501 418 L 490 346 L 471 329"/>
<path style="--d:6s;" pathLength="3333" clip-path="url(#z23708c6)" d="M 315 266 L 328 276 L 380 286 L 636 326 L 682 326 L 705 317"/>
<path style="--d:7s;" pathLength="3333" clip-path="url(#z23708c7)" d="M 263 462 L 283 441 L 300 407 L 283 253 L 290 135 L 301 102 L 313 86 L 363 51 L 452 30 L 564 24 L 705 33 L 806 57 L 852 84 L 859 245"/>
</svg>