<svg id="z29343" class="acjk" viewBox="0 0 1024 1024" xmlns="http://www.w3.org/2000/svg">
  <path id="z29343d1" d="M 389 694 Q 407 737 424 749 Q 445 770 425 784 Q 409 794 386 810 Q 368 822 329 798 Q 271 777 221 767 Q 211 767 212 761 Q 213 757 225 751 Q 234 747 289 755 Q 352 776 361 763 Q 365 759 357 739 Q 350 721 343 701 C 333 673 377 666 389 694 Z"/>
  <path id="z29343d2" d="M 258 646 Q 264 646 273 648 Q 312 658 395 669 Q 404 670 405 678 Q 405 685 389 694 L 343 701 Q 340 701 337 699 Q 291 684 253 675 C 224 668 228 644 258 646 Z"/>
  <path id="z29343d3" d="M 315 580 Q 330 580 334 573 Q 341 563 335 535 Q 326 474 289 444 Q 279 437 257 448 Q 235 454 218 458 Q 205 462 207 454 Q 208 444 220 433 Q 247 406 262 382 Q 272 367 287 376 Q 332 397 345 432 Q 390 550 396 557 Q 406 570 399 579 Q 390 594 367 608 Q 349 618 291 599 Q 243 587 240 589 Q 237 590 240 597 Q 258 643 258 646 C 264 664 264 664 253 675 Q 246 685 228 695 Q 218 704 211 699 Q 202 695 210 683 Q 220 661 210 631 Q 197 591 179 575 Q 169 565 172 553 Q 178 543 186 535 Q 193 528 210 541 Q 252 584 315 580 Z"/>
  <path id="z29343d4" d="M 515 796 Q 505 800 478 803 Q 468 806 464 801 Q 460 795 468 781 Q 489 747 506 689 Q 510 673 521 661 Q 537 643 542 657 Q 543 663 544 671 L 540 702 Q 533 748 530 766 C 526 793 526 793 515 796 Z"/>
  <path id="z29343d5" d="M 721 718 Q 745 758 765 768 Q 781 784 769 800 Q 702 854 653 829 Q 584 810 515 796 C 486 790 500 761 530 766 Q 540 767 665 791 Q 678 794 684 788 Q 688 784 687 772 Q 683 750 676 729 C 667 700 705 693 721 718 Z"/>
  <path id="z29343d6" d="M 544 671 Q 544 672 545 672 Q 558 676 575 677 L 614 683 Q 657 690 725 694 Q 734 695 735 702 Q 735 708 721 718 C 702 733 702 733 676 729 Q 672 729 669 728 Q 599 712 540 702 C 510 697 516 660 544 671 Z"/>
  <path id="z29343d7" d="M 451 618 Q 441 619 438 615 Q 434 611 442 597 Q 461 569 479 520 Q 483 505 493 496 Q 509 480 513 493 Q 514 497 514 504 L 511 532 Q 502 575 500 590 C 496 616 481 617 451 618 Z"/>
  <path id="z29343d8" d="M 585 632 Q 504 619 451 618 C 421 617 471 584 500 590 Q 569 603 586 606 L 635 614 Q 657 618 685 623 Q 706 627 714 618 Q 718 614 716 605 Q 710 587 705 571 C 696 542 736 541 753 565 Q 768 589 789 596 Q 805 611 794 626 Q 781 639 739 663 Q 724 670 706 665 Q 670 653 637 643 L 585 632 Z"/>
  <path id="z29343d9" d="M 514 504 Q 524 503 533 505 Q 555 511 588 516 L 631 522 Q 685 532 761 538 Q 771 539 772 546 Q 772 552 753 565 C 735 578 734 578 705 571 Q 665 562 632 554 L 588 545 Q 546 538 511 532 C 481 527 484 505 514 504 Z"/>
  <path id="z29343d10" d="M 575 677 Q 584 662 585 632 L 586 606 Q 586 584 588 545 L 588 516 Q 588 494 589 463 C 590 433 627 439 628 469 Q 629 497 631 522 L 632 554 Q 633 587 635 614 L 637 643 Q 641 656 635 664 Q 625 676 614 683 C 590 700 562 704 575 677 Z"/>
  <path id="z29343d11" d="M 589 463 Q 531 457 470 449 Q 449 446 416 452 Q 406 453 402 445 Q 398 435 405 427 Q 421 411 445 390 Q 452 386 464 391 Q 510 412 717 457 Q 735 461 753 467 C 782 476 768 490 738 486 Q 684 479 628 469 L 589 463 Z"/>
  <path id="z29343d12" d="M 753 467 Q 819 385 824 381 Q 830 380 837 386 Q 847 395 842 429 Q 835 468 727 526 Q 720 530 718 522 Q 717 513 738 486 L 753 467 Z"/>
  <path id="z29343d13" d="M 366 287 Q 385 311 404 329 Q 414 339 403 353 Q 373 386 346 387 Q 336 386 337 373 Q 338 301 262 233 Q 243 217 234 207 Q 225 194 239 197 Q 285 197 355 274 L 366 287 Z"/>
  <path id="z29343d14" d="M 552 265 Q 705 292 709 295 Q 719 302 715 312 Q 708 324 678 333 Q 657 339 557 313 L 493 301 Q 438 292 376 289 Q 369 289 366 287 C 346 283 346 283 355 274 Q 361 262 402 250 Q 430 244 463 251 Q 478 254 494 255 L 552 265 Z"/>
  <path id="z29343d15" d="M 547 150 Q 596 156 859 155 Q 881 154 887 164 Q 893 177 875 192 Q 817 237 776 228 Q 689 212 548 192 L 493 185 Q 351 169 186 152 Q 164 151 180 131 Q 196 115 215 109 Q 239 102 256 107 Q 359 132 476 144 Q 483 145 493 145 L 547 150 Z"/>
  <path id="z29343d16" d="M 496 -20 Q 500 -44 506 -53 Q 512 -60 519 -58 Q 546 -42 546 133 Q 546 140 547 150 L 548 192 Q 549 223 552 265 L 557 313 Q 558 326 562 337 Q 565 353 552 363 Q 521 384 507 387 Q 495 391 480 383 Q 471 376 478 366 Q 493 336 493 301 L 494 255 Q 494 224 493 185 L 493 145 Q 493 0 496 -20 Z"/>
<defs>
  <clipPath id="z29343c1"><use href="#z29343d1"/></clipPath>
  <clipPath id="z29343c2"><use href="#z29343d2"/></clipPath>
  <clipPath id="z29343c3"><use href="#z29343d3"/></clipPath>
  <clipPath id="z29343c4"><use href="#z29343d4"/></clipPath>
  <clipPath id="z29343c5"><use href="#z29343d5"/></clipPath>
  <clipPath id="z29343c6"><use href="#z29343d6"/></clipPath>
  <clipPath id="z29343c7"><use href="#z29343d7"/></clipPath>
  <clipPath id="z29343c8"><use href="#z29343d8"/></clipPath>
  <clipPath id="z29343c9"><use href="#z29343d9"/></clipPath>
  <clipPath id="z29343c10"><use href="#z29343d10"/></clipPath>
  <clipPath id="z29343c11"><use href="#z29343d11"/></clipPath>
  <clipPath id="z29343c12"><use href="#z29343d12"/></clipPath>
  <clipPath id="z29343c13"><use href="#z29343d13"/></clipPath>
  <clipPath id="z29343c14"><use href="#z29343d14"/></clipPath>
  <clipPath id="z29343c15"><use href="#z29343d15"/></clipPath>
  <clipPath id="z29343c16"><use href="#z29343d16"/></clipPath>
</defs>
<path style="--d:1s;" pathLength="3333" clip-path="url(#z29343c1)" d="M 218 762 L 259 762 L 346 788 L 373 787 L 393 763 L 375 720 L 352 705"/>
<path style="--d:2s;" pathLength="3333" clip-path="url(#z29343c2)" d="M 261 669 L 271 663 L 335 680 L 396 678"/>
<path style="--d:3s;" pathLength="3333" clip-path="url(#z29343c3)" d="M 215 691 L 232 671 L 236 650 L 216 580 L 247 578 L 282 591 L 325 594 L 351 589 L 368 569 L 341 475 L 330 452 L 301 417 L 282 409 L 214 451"/>
<path style="--d:4s;" pathLength="3333" clip-path="url(#z29343c4)" d="M 472 796 L 498 776 L 507 758 L 532 662"/>
<path style="--d:5s;" pathLength="3333" clip-path="url(#z29343c5)" d="M 523 794 L 533 786 L 553 786 L 676 814 L 695 811 L 725 786 L 709 748 L 685 734"/>
<path style="--d:6s;" pathLength="3333" clip-path="url(#z29343c6)" d="M 550 681 L 556 690 L 675 709 L 727 702"/>
<path style="--d:7s;" pathLength="3333" clip-path="url(#z29343c7)" d="M 446 610 L 482 571 L 503 497"/>
<path style="--d:8s;" pathLength="3333" clip-path="url(#z29343c8)" d="M 457 615 L 508 605 L 716 643 L 734 636 L 750 615 L 741 594 L 712 575"/>
<path style="--d:9s;" pathLength="3333" clip-path="url(#z29343c9)" d="M 519 512 L 566 528 L 686 549 L 745 552 L 764 546"/>
<path style="--d:10s;" pathLength="3333" clip-path="url(#z29343c10)" d="M 582 673 L 611 651 L 609 491 L 594 471"/>
<path style="--d:11s;" pathLength="3333" clip-path="url(#z29343c11)" d="M 414 439 L 456 419 L 732 474 L 746 469"/>
<path style="--d:12s;" pathLength="3333" clip-path="url(#z29343c12)" d="M 725 519 L 806 442 L 822 417 L 829 388"/>
<path style="--d:13s;" pathLength="3333" clip-path="url(#z29343c13)" d="M 347 376 L 366 346 L 351 309 L 307 251 L 243 205"/>
<path style="--d:14s;" pathLength="3333" clip-path="url(#z29343c14)" d="M 361 274 L 451 271 L 648 308 L 680 311 L 704 306"/>
<path style="--d:15s;" pathLength="3333" clip-path="url(#z29343c15)" d="M 183 141 L 238 131 L 445 161 L 786 192 L 836 185 L 874 171"/>
<path style="--d:16s;" pathLength="3333" clip-path="url(#z29343c16)" d="M 486 374 L 504 364 L 525 339 L 515 -49"/>
</svg>