<svg id="z25732" class="acjk" viewBox="0 0 1024 1024" xmlns="http://www.w3.org/2000/svg">
  <path id="z25732d1" d="M 306 522 Q 325 528 349 533 Q 380 542 384 546 Q 391 553 387 561 Q 380 571 353 577 Q 329 581 308 573 L 260 554 Q 167 532 135 526 Q 101 519 126 505 Q 165 487 235 505 Q 245 508 259 510 L 306 522 Z"/>
  <path id="z25732d2" d="M 255 315 Q 254 224 251 106 Q 250 81 237 73 Q 231 70 180 78 Q 149 91 151 81 Q 152 74 170 59 Q 222 10 234 -15 Q 249 -46 262 -48 Q 275 -49 291 -16 Q 309 27 309 98 Q 302 228 303 358 L 303 392 Q 303 456 306 522 L 308 573 Q 308 670 328 735 Q 344 763 292 785 Q 261 804 241 797 Q 225 791 239 769 Q 260 742 261 710 Q 262 692 260 554 L 259 510 Q 258 446 256 360 L 255 315 Z"/>
  <path id="z25732d3" d="M 256 360 Q 183 314 119 267 Q 88 246 66 238 Q 54 231 53 224 Q 53 215 67 203 Q 86 190 109 183 Q 125 180 134 193 Q 215 283 255 315 L 303 358 Q 363 413 365 416 Q 371 429 360 428 Q 354 428 303 392 L 256 360 Z"/>
  <path id="z25732d4" d="M 440 705 Q 434 711 416 719 Q 409 722 402 719 Q 398 715 401 707 Q 426 616 407 519 Q 392 504 414 458 Q 417 454 422 448 Q 429 439 436 447 Q 448 465 446 512 Q 447 666 449 677 Q 449 683 449 686 C 449 698 449 698 440 705 Z"/>
  <path id="z25732d5" d="M 567 495 Q 563 479 571 465 Q 581 446 586 447 Q 596 448 606 469 Q 616 485 615 500 Q 596 650 622 695 Q 629 705 623 712 Q 605 728 573 740 Q 563 744 548 738 Q 514 720 440 705 C 411 699 419 682 449 686 Q 453 686 460 687 Q 550 712 561 707 Q 568 691 572 648 Q 573 519 567 495 Z"/>
  <path id="z25732d6" d="M 494 609 Q 503 447 427 377 Q 391 355 389 348 Q 386 344 396 344 Q 415 341 467 378 Q 530 424 530 582 Q 530 607 538 631 Q 541 638 535 643 Q 523 653 500 661 Q 487 667 476 663 Q 464 657 474 647 Q 493 629 494 609 Z"/>
  <path id="z25732d7" d="M 540 416 Q 570 371 587 367 Q 596 366 601 378 Q 602 387 598 401 Q 583 428 545 434 Q 538 435 537 428 Q 536 422 540 416 Z"/>
  <path id="z25732d8" d="M 683 739 Q 677 745 661 751 Q 655 754 648 750 Q 644 747 647 739 Q 677 640 658 538 Q 651 504 674 475 Q 681 468 688 475 Q 697 490 696 540 Q 693 646 693 716 C 693 732 693 732 683 739 Z"/>
  <path id="z25732d9" d="M 832 522 Q 826 504 837 488 Q 847 466 854 467 Q 864 468 877 492 Q 889 511 887 528 Q 868 675 895 720 Q 902 732 897 740 Q 875 759 838 774 Q 826 778 808 772 Q 780 759 745 749 Q 711 742 683 739 C 653 735 663 713 693 716 Q 703 716 764 728 Q 813 740 824 733 Q 831 717 835 675 Q 839 546 832 522 Z"/>
  <path id="z25732d10" d="M 746 647 Q 759 485 685 408 Q 670 395 651 379 Q 642 375 641 372 Q 638 368 649 368 Q 673 368 723 406 Q 783 463 785 619 Q 785 643 792 670 Q 795 677 789 683 Q 776 693 752 701 Q 737 707 726 702 Q 713 696 725 685 Q 744 667 746 647 Z"/>
  <path id="z25732d11" d="M 809 406 Q 836 384 864 356 Q 874 346 888 345 Q 897 346 901 357 Q 905 369 898 393 Q 894 412 866 426 Q 800 450 788 447 Q 784 443 785 433 Q 788 423 809 406 Z"/>
  <path id="z25732d12" d="M 590 271 Q 597 284 605 292 Q 614 298 612 307 Q 608 320 576 347 Q 566 356 557 353 Q 545 350 551 336 Q 558 315 549 294 Q 543 281 538 266 L 523 231 Q 508 203 494 183 Q 485 167 487 156 Q 488 147 504 143 Q 558 125 603 95 L 642 68 Q 688 34 754 -24 Q 776 -43 792 -43 Q 811 -44 812 -26 Q 813 -8 789 34 Q 776 61 671 107 L 629 126 Q 580 148 545 159 Q 526 163 538 182 Q 557 216 570 236 L 590 271 Z"/>
  <path id="z25732d13" d="M 726 285 Q 696 309 670 301 Q 660 298 664 284 Q 665 283 667 278 L 672 243 Q 672 189 629 126 L 603 95 Q 546 40 415 4 Q 399 -3 418 -7 Q 560 -20 642 68 L 671 107 L 672 107 Q 702 150 716 202 Q 723 230 732 245 C 745 272 745 272 726 285 Z"/>
  <path id="z25732d14" d="M 732 245 Q 825 248 926 240 Q 944 239 949 247 Q 955 257 940 271 Q 888 313 835 299 Q 787 293 726 285 L 667 278 Q 649 277 631 275 Q 609 274 590 271 L 538 266 Q 448 260 352 252 Q 333 251 347 234 Q 359 221 375 215 Q 394 209 410 213 Q 464 226 523 231 L 570 236 Q 583 239 598 239 Q 631 243 672 243 L 732 245 Z"/>
<defs>
  <clipPath id="z25732c1"><use href="#z25732d1"/></clipPath>
  <clipPath id="z25732c2"><use href="#z25732d2"/></clipPath>
  <clipPath id="z25732c3"><use href="#z25732d3"/></clipPath>
  <clipPath id="z25732c4"><use href="#z25732d4"/></clipPath>
  <clipPath id="z25732c5"><use href="#z25732d5"/></clipPath>
  <clipPath id="z25732c6"><use href="#z25732d6"/></clipPath>
  <clipPath id="z25732c7"><use href="#z25732d7"/></clipPath>
  <clipPath id="z25732c8"><use href="#z25732d8"/></clipPath>
  <clipPath id="z25732c9"><use href="#z25732d9"/></clipPath>
  <clipPath id="z25732c10"><use href="#z25732d10"/></clipPath>
  <clipPath id="z25732c11"><use href="#z25732d11"/></clipPath>
  <clipPath id="z25732c12"><use href="#z25732d12"/></clipPath>
  <clipPath id="z25732c13"><use href="#z25732d13"/></clipPath>
  <clipPath id="z25732c14"><use href="#z25732d14"/></clipPath>
</defs>
<path style="--d:1s;" pathLength="3333" clip-path="url(#z25732c1)" d="M 128 517 L 173 514 L 332 554 L 376 555"/>
<path style="--d:2s;" pathLength="3333" clip-path="url(#z25732c2)" d="M 248 782 L 273 766 L 292 744 L 282 567 L 280 90 L 273 60 L 258 32 L 157 79"/>
<path style="--d:3s;" pathLength="3333" clip-path="url(#z25732c3)" d="M 64 223 L 111 220 L 360 421"/>
<path style="--d:4s;" pathLength="3333" clip-path="url(#z25732c4)" d="M 409 712 L 429 678 L 431 551 L 424 492 L 430 456"/>
<path style="--d:5s;" pathLength="3333" clip-path="url(#z25732c5)" d="M 450 704 L 456 698 L 470 698 L 559 725 L 574 721 L 585 710 L 592 697 L 588 612 L 593 509 L 587 456"/>
<path style="--d:6s;" pathLength="3333" clip-path="url(#z25732c6)" d="M 478 655 L 514 629 L 512 531 L 500 464 L 474 408 L 451 380 L 394 349"/>
<path style="--d:7s;" pathLength="3333" clip-path="url(#z25732c7)" d="M 546 424 L 572 404 L 588 379"/>
<path style="--d:8s;" pathLength="3333" clip-path="url(#z25732c8)" d="M 655 744 L 670 726 L 676 698 L 681 582 L 676 510 L 681 482"/>
<path style="--d:9s;" pathLength="3333" clip-path="url(#z25732c9)" d="M 691 736 L 702 729 L 731 732 L 820 755 L 837 752 L 856 732 L 861 536 L 854 476"/>
<path style="--d:10s;" pathLength="3333" clip-path="url(#z25732c10)" d="M 728 693 L 753 682 L 767 668 L 766 568 L 755 500 L 735 449 L 708 410 L 670 382 L 647 374"/>
<path style="--d:11s;" pathLength="3333" clip-path="url(#z25732c11)" d="M 791 439 L 860 399 L 886 361"/>
<path style="--d:12s;" pathLength="3333" clip-path="url(#z25732c12)" d="M 559 343 L 581 305 L 511 165 L 532 148 L 614 113 L 723 46 L 765 11 L 796 -27"/>
<path style="--d:13s;" pathLength="3333" clip-path="url(#z25732c13)" d="M 674 290 L 687 283 L 700 261 L 691 201 L 658 127 L 620 78 L 576 44 L 538 25 L 495 11 L 426 1"/>
<path style="--d:14s;" pathLength="3333" clip-path="url(#z25732c14)" d="M 350 243 L 386 233 L 611 258 L 848 273 L 881 272 L 939 253"/>
</svg>