<svg id="z26118" class="acjk" viewBox="0 0 1024 1024" xmlns="http://www.w3.org/2000/svg">
  <path id="z26118d1" d="M 318 759 Q 303 763 274 769 Q 261 772 257 766 Q 250 759 260 742 Q 297 661 320 530 Q 324 490 346 464 Q 365 440 372 458 Q 373 465 375 475 L 375 508 Q 375 518 359 594 L 354 623 Q 341 690 336 720 C 331 750 330 756 318 759 Z"/>
  <path id="z26118d2" d="M 591 506 Q 598 487 613 489 Q 629 490 638 508 Q 654 529 681 631 Q 700 691 743 725 Q 765 744 747 762 Q 726 781 668 813 Q 653 823 587 808 Q 526 802 407 776 Q 355 766 318 759 C 289 753 308 710 336 720 Q 375 739 587 768 Q 618 771 628 765 Q 641 758 634 719 Q 606 575 593 547 Q 592 544 591 541 C 582 517 582 517 591 506 Z"/>
  <path id="z26118d3" d="M 359 594 Q 363 594 369 595 Q 478 614 558 626 Q 583 630 573 644 Q 563 660 535 664 Q 502 667 354 623 C 325 614 329 592 359 594 Z"/>
  <path id="z26118d4" d="M 375 475 Q 378 475 384 476 Q 450 492 591 506 C 621 509 618 527 591 541 Q 590 542 588 543 Q 572 550 544 544 Q 451 520 375 508 C 345 503 345 472 375 475 Z"/>
  <path id="z26118d5" d="M 275 283 Q 305 276 378 290 Q 403 297 431 303 Q 450 307 452 310 Q 459 317 455 325 Q 448 335 421 341 Q 393 345 367 333 Q 328 321 276 310 C 247 304 246 289 275 283 Z"/>
  <path id="z26118d6" d="M 276 310 Q 277 359 279 368 Q 283 386 271 395 Q 259 407 216 419 Q 200 422 193 417 Q 186 410 197 392 Q 237 335 220 196 Q 210 136 165 90 Q 153 80 159 57 Q 166 29 180 15 Q 190 5 205 19 Q 262 73 424 176 Q 440 185 444 194 Q 447 200 440 200 Q 428 200 291 143 Q 279 139 276 143 Q 272 144 273 156 Q 274 234 275 283 L 276 310 Z"/>
  <path id="z26118d7" d="M 590 269 Q 683 305 776 342 Q 797 351 820 353 Q 845 357 839 379 Q 830 400 808 422 Q 787 441 774 443 Q 761 444 761 430 Q 758 400 629 317 Q 611 307 592 293 C 568 275 562 258 590 269 Z"/>
  <path id="z26118d8" d="M 946 95 Q 925 147 913 238 Q 910 257 902 262 Q 892 268 889 245 Q 871 133 854 113 Q 829 86 718 81 Q 658 82 632 93 Q 610 103 604 119 Q 591 153 589 244 Q 589 257 590 269 L 592 293 Q 596 357 611 391 Q 624 425 602 444 Q 544 486 526 481 Q 510 474 518 455 Q 542 412 538 349 Q 537 115 568 75 Q 586 45 664 31 Q 721 21 812 23 Q 894 24 926 41 Q 960 60 946 95 Z"/>
<defs>
  <clipPath id="z26118c1"><use href="#z26118d1"/></clipPath>
  <clipPath id="z26118c2"><use href="#z26118d2"/></clipPath>
  <clipPath id="z26118c3"><use href="#z26118d3"/></clipPath>
  <clipPath id="z26118c4"><use href="#z26118d4"/></clipPath>
  <clipPath id="z26118c5"><use href="#z26118d5"/></clipPath>
  <clipPath id="z26118c6"><use href="#z26118d6"/></clipPath>
  <clipPath id="z26118c7"><use href="#z26118d7"/></clipPath>
  <clipPath id="z26118c8"><use href="#z26118d8"/></clipPath>
</defs>
<path style="--d:1s;" pathLength="3333" clip-path="url(#z26118c1)" d="M 266 758 L 293 737 L 305 714 L 360 464"/>
<path style="--d:2s;" pathLength="3333" clip-path="url(#z26118c2)" d="M 325 755 L 347 745 L 601 791 L 635 791 L 661 779 L 687 743 L 661 678 L 611 509"/>
<path style="--d:3s;" pathLength="3333" clip-path="url(#z26118c3)" d="M 363 602 L 374 612 L 485 637 L 539 644 L 563 637"/>
<path style="--d:4s;" pathLength="3333" clip-path="url(#z26118c4)" d="M 379 481 L 391 494 L 568 526 L 585 535"/>
<path style="--d:5s;" pathLength="3333" clip-path="url(#z26118c5)" d="M 281 290 L 402 320 L 444 319"/>
<path style="--d:6s;" pathLength="3333" clip-path="url(#z26118c6)" d="M 200 410 L 234 385 L 245 372 L 247 357 L 250 235 L 240 110 L 287 116 L 439 195"/>
<path style="--d:7s;" pathLength="3333" clip-path="url(#z26118c7)" d="M 772 432 L 785 388 L 602 286 L 596 275"/>
<path style="--d:8s;" pathLength="3333" clip-path="url(#z26118c8)" d="M 530 467 L 560 436 L 575 409 L 564 312 L 565 207 L 576 123 L 589 92 L 603 78 L 659 58 L 769 53 L 839 61 L 896 83 L 899 253"/>
</svg>