<svg id="z27355" class="acjk" viewBox="0 0 1024 1024" xmlns="http://www.w3.org/2000/svg">
  <path id="z27355d1" d="M 287 518 Q 299 522 314 526 Q 348 536 353 542 Q 360 549 356 558 Q 349 568 321 572 Q 305 573 289 569 L 251 555 Q 155 519 85 507 Q 52 498 78 485 Q 115 467 175 486 Q 202 495 232 501 L 287 518 Z"/>
  <path id="z27355d2" d="M 245 420 Q 241 345 241 263 Q 235 185 213 113 Q 203 77 226 17 Q 232 1 239 -3 Q 245 -9 252 -2 Q 279 14 279 75 Q 278 114 283 382 L 284 413 Q 285 462 287 518 L 289 569 Q 289 690 312 768 Q 319 783 318 795 Q 311 805 259 838 Q 237 854 218 839 Q 214 835 219 820 Q 249 771 251 691 Q 251 624 251 555 L 245 420 Z"/>
  <path id="z27355d3" d="M 232 501 Q 208 435 174 374 Q 134 304 38 176 Q 34 166 44 166 Q 50 165 58 173 Q 173 275 245 420 C 299 528 242 529 232 501 Z"/>
  <path id="z27355d4" d="M 283 382 Q 332 337 348 336 Q 360 336 364 352 Q 364 362 355 379 Q 343 397 284 413 C 255 421 261 402 283 382 Z"/>
  <path id="z27355d5" d="M 501 716 Q 514 747 528 774 Q 535 784 521 795 Q 482 816 462 811 Q 453 807 457 796 Q 479 730 415 626 Q 399 604 391 590 Q 387 577 398 582 Q 443 597 491 693 L 501 716 Z"/>
  <path id="z27355d6" d="M 491 693 Q 530 687 625 717 L 626 717 Q 632 724 628 731 Q 621 740 597 742 Q 561 742 501 716 C 473 704 461 697 491 693 Z"/>
  <path id="z27355d7" d="M 494 618 Q 530 570 549 570 Q 559 569 565 583 Q 566 593 558 609 Q 543 633 498 639 Q 491 640 490 631 Q 489 625 494 618 Z"/>
  <path id="z27355d8" d="M 732 750 Q 748 783 764 810 Q 771 822 758 833 Q 715 860 695 853 Q 685 850 689 838 Q 707 760 635 660 Q 616 638 608 623 Q 602 610 615 614 Q 628 618 646 634 Q 695 679 723 732 L 732 750 Z"/>
  <path id="z27355d9" d="M 723 732 Q 753 714 839 733 Q 896 745 904 749 Q 911 756 907 763 Q 900 772 877 777 Q 865 780 785 758 Q 760 754 732 750 C 702 746 697 745 723 732 Z"/>
  <path id="z27355d10" d="M 737 621 Q 798 576 809 576 Q 818 577 821 588 Q 824 601 815 624 Q 803 651 730 659 Q 717 660 712 659 Q 708 655 710 645 Q 714 636 737 621 Z"/>
  <path id="z27355d11" d="M 540 331 Q 550 316 561 311 Q 570 305 581 321 Q 593 340 615 446 Q 621 470 638 490 Q 648 500 639 510 Q 626 523 593 541 Q 578 548 434 500 C 406 491 422 465 450 476 Q 552 515 567 505 Q 577 498 575 481 Q 556 367 540 356 C 531 343 531 343 540 331 Z"/>
  <path id="z27355d12" d="M 441 395 Q 490 408 528 416 Q 544 420 537 430 Q 528 440 508 442 Q 477 442 443 422 C 417 407 412 387 441 395 Z"/>
  <path id="z27355d13" d="M 437 315 Q 443 315 451 316 Q 479 325 540 331 C 570 334 569 348 540 356 Q 510 366 442 341 Q 439 341 438 340 C 409 332 407 314 437 315 Z"/>
  <path id="z27355d14" d="M 538 214 Q 445 157 440 158 Q 430 165 437 315 L 438 340 Q 438 371 441 395 L 443 422 Q 444 453 449 468 Q 450 472 450 476 C 452 485 452 485 434 500 Q 418 516 404 519 Q 394 522 389 517 Q 380 511 389 500 Q 417 445 401 214 Q 394 147 380 128 Q 368 109 376 90 Q 386 63 401 53 Q 410 46 421 63 Q 449 102 547 196 C 569 217 564 230 538 214 Z"/>
  <path id="z27355d15" d="M 547 196 Q 568 148 579 145 Q 586 142 594 149 Q 601 158 604 180 Q 605 207 543 259 Q 533 266 528 266 Q 524 265 521 256 Q 521 247 532 226 Q 535 222 538 214 L 547 196 Z"/>
  <path id="z27355d16" d="M 746 458 Q 797 477 834 483 Q 841 484 844 482 Q 854 472 853 438 Q 854 347 837 306 Q 828 284 810 284 Q 794 288 779 293 Q 760 299 774 281 Q 805 248 820 224 Q 839 209 851 225 Q 896 268 898 401 Q 898 468 909 491 Q 916 501 911 509 Q 904 516 864 529 Q 849 533 836 522 Q 824 515 733 485 C 705 476 718 448 746 458 Z"/>
  <path id="z27355d17" d="M 733 485 Q 708 501 698 502 Q 688 506 674 499 Q 667 492 673 483 Q 692 450 693 371 Q 693 268 690 120 Q 687 -36 703 -62 Q 707 -68 714 -65 Q 721 -62 725 -49 Q 735 -13 736 244 Q 736 412 746 458 C 749 475 749 475 733 485 Z"/>
<defs>
  <clipPath id="z27355c1"><use href="#z27355d1"/></clipPath>
  <clipPath id="z27355c2"><use href="#z27355d2"/></clipPath>
  <clipPath id="z27355c3"><use href="#z27355d3"/></clipPath>
  <clipPath id="z27355c4"><use href="#z27355d4"/></clipPath>
  <clipPath id="z27355c5"><use href="#z27355d5"/></clipPath>
  <clipPath id="z27355c6"><use href="#z27355d6"/></clipPath>
  <clipPath id="z27355c7"><use href="#z27355d7"/></clipPath>
  <clipPath id="z27355c8"><use href="#z27355d8"/></clipPath>
  <clipPath id="z27355c9"><use href="#z27355d9"/></clipPath>
  <clipPath id="z27355c10"><use href="#z27355d10"/></clipPath>
  <clipPath id="z27355c11"><use href="#z27355d11"/></clipPath>
  <clipPath id="z27355c12"><use href="#z27355d12"/></clipPath>
  <clipPath id="z27355c13"><use href="#z27355d13"/></clipPath>
  <clipPath id="z27355c14"><use href="#z27355d14"/></clipPath>
  <clipPath id="z27355c15"><use href="#z27355d15"/></clipPath>
  <clipPath id="z27355c16"><use href="#z27355d16"/></clipPath>
  <clipPath id="z27355c17"><use href="#z27355d17"/></clipPath>
</defs>
<path style="--d:1s;" pathLength="3333" clip-path="url(#z27355c1)" d="M 79 497 L 133 496 L 291 545 L 345 552"/>
<path style="--d:2s;" pathLength="3333" clip-path="url(#z27355c2)" d="M 229 832 L 255 811 L 276 781 L 263 296 L 244 94 L 245 9"/>
<path style="--d:3s;" pathLength="3333" clip-path="url(#z27355c3)" d="M 246 499 L 237 491 L 223 422 L 194 367 L 126 266 L 48 175"/>
<path style="--d:4s;" pathLength="3333" clip-path="url(#z27355c4)" d="M 293 405 L 303 386 L 331 371 L 348 351"/>
<path style="--d:5s;" pathLength="3333" clip-path="url(#z27355c5)" d="M 468 801 L 493 774 L 475 707 L 437 632 L 400 591"/>
<path style="--d:6s;" pathLength="3333" clip-path="url(#z27355c6)" d="M 496 698 L 514 708 L 583 724 L 626 724"/>
<path style="--d:7s;" pathLength="3333" clip-path="url(#z27355c7)" d="M 502 627 L 549 586"/>
<path style="--d:8s;" pathLength="3333" clip-path="url(#z27355c8)" d="M 697 843 L 714 830 L 726 809 L 714 767 L 681 698 L 644 648 L 617 623"/>
<path style="--d:9s;" pathLength="3333" clip-path="url(#z27355c9)" d="M 729 734 L 858 757 L 898 758"/>
<path style="--d:10s;" pathLength="3333" clip-path="url(#z27355c10)" d="M 716 651 L 791 614 L 809 586"/>
<path style="--d:11s;" pathLength="3333" clip-path="url(#z27355c11)" d="M 448 501 L 459 491 L 496 508 L 562 523 L 586 518 L 605 498 L 563 338 L 567 325"/>
<path style="--d:12s;" pathLength="3333" clip-path="url(#z27355c12)" d="M 448 401 L 456 414 L 469 419 L 514 428 L 530 425"/>
<path style="--d:13s;" pathLength="3333" clip-path="url(#z27355c13)" d="M 444 321 L 455 333 L 534 350"/>
<path style="--d:14s;" pathLength="3333" clip-path="url(#z27355c14)" d="M 395 509 L 411 496 L 424 470 L 424 301 L 415 202 L 420 128 L 425 124 L 448 133 L 530 196 L 529 204"/>
<path style="--d:15s;" pathLength="3333" clip-path="url(#z27355c15)" d="M 529 258 L 576 190 L 584 158"/>
<path style="--d:16s;" pathLength="3333" clip-path="url(#z27355c16)" d="M 751 469 L 754 478 L 772 485 L 856 505 L 875 492 L 877 483 L 873 352 L 854 279 L 834 258 L 782 285"/>
<path style="--d:17s;" pathLength="3333" clip-path="url(#z27355c17)" d="M 682 490 L 711 466 L 715 451 L 711 -55"/>
</svg>