<svg id="z22006" class="acjk" viewBox="0 0 1024 1024" xmlns="http://www.w3.org/2000/svg">
  <path id="z22006d1" d="M 103 625 Q 93 631 61 636 Q 51 640 47 635 Q 40 629 49 614 Q 79 547 96 438 Q 99 405 117 383 Q 133 362 138 377 Q 145 398 140 435 L 134 467 Q 116 570 113 600 C 111 622 111 622 103 625 Z"/>
  <path id="z22006d2" d="M 254 489 Q 270 582 296 611 Q 315 636 294 648 Q 275 658 249 673 Q 234 682 185 653 Q 152 641 103 625 C 74 616 84 591 113 600 Q 152 612 196 623 Q 218 630 223 621 Q 232 614 224 577 Q 217 538 207 493 C 201 464 249 459 254 489 Z"/>
  <path id="z22006d3" d="M 140 435 Q 179 447 264 463 Q 274 464 274 473 Q 274 480 254 489 L 207 493 Q 203 493 200 491 Q 163 478 134 467 C 106 456 111 426 140 435 Z"/>
  <path id="z22006d4" d="M 401 785 Q 391 789 365 791 Q 353 794 351 788 Q 345 782 354 768 Q 388 705 412 601 Q 416 570 436 550 Q 454 531 458 545 L 460 557 L 459 581 Q 458 596 453 614 Q 428 719 420 753 C 413 781 413 781 401 785 Z"/>
  <path id="z22006d5" d="M 673 586 Q 673 585 674 584 Q 678 568 692 569 Q 705 570 714 585 Q 727 601 752 679 Q 770 730 807 758 Q 826 774 810 790 Q 794 806 744 835 Q 729 844 654 828 Q 629 828 499 802 Q 441 790 401 785 C 371 781 391 744 420 753 Q 450 763 511 774 L 574 785 Q 691 806 709 796 Q 719 789 713 758 Q 689 644 675 616 C 667 595 667 595 673 586 Z"/>
  <path id="z22006d6" d="M 583 675 Q 614 682 644 686 Q 665 690 657 701 Q 647 714 625 717 Q 609 720 589 714 L 538 699 Q 504 689 474 679 Q 459 676 478 663 Q 482 660 539 667 L 583 675 Z"/>
  <path id="z22006d7" d="M 581 573 Q 629 582 673 586 C 703 589 703 605 675 616 Q 653 628 581 606 L 538 597 Q 496 590 459 581 C 430 574 430 558 460 557 Q 469 556 481 558 Q 509 562 538 566 L 581 573 Z"/>
  <path id="z22006d8" d="M 749 439 Q 794 440 951 441 Q 970 441 975 450 Q 979 460 964 474 Q 909 517 851 498 Q 812 492 766 483 L 710 473 Q 688 472 580 455 L 535 449 Q 489 445 441 437 L 397 432 Q 331 426 264 417 Q 245 416 259 399 Q 272 386 290 380 Q 309 376 325 379 Q 365 389 408 398 L 447 406 Q 489 416 535 419 L 579 425 Q 631 432 701 436 L 749 439 Z"/>
  <path id="z22006d9" d="M 441 437 Q 437 470 432 495 Q 432 513 412 516 Q 373 529 355 522 Q 339 512 355 496 Q 383 468 397 432 L 408 398 Q 424 344 439 330 Q 452 321 455 333 Q 458 345 447 406 L 441 437 Z"/>
  <path id="z22006d10" d="M 717 361 Q 733 401 749 439 L 766 483 Q 766 484 767 484 Q 771 494 790 525 Q 796 532 783 548 Q 761 570 743 580 Q 731 587 723 581 Q 716 577 718 564 Q 725 540 710 473 L 701 436 Q 691 396 678 352 C 670 323 706 333 717 361 Z"/>
  <path id="z22006d11" d="M 580 295 Q 628 307 763 318 Q 772 317 780 328 Q 781 338 761 349 Q 742 364 717 361 L 678 352 Q 615 342 580 332 L 532 323 Q 469 317 372 306 Q 347 303 366 287 Q 393 265 434 272 Q 477 281 531 288 L 580 295 Z"/>
  <path id="z22006d12" d="M 583 179 Q 673 188 894 188 Q 913 188 919 196 Q 925 208 908 222 Q 856 261 818 253 Q 731 237 582 214 L 529 207 Q 411 194 277 178 Q 255 177 271 159 Q 284 146 303 139 Q 324 135 340 138 Q 428 162 528 172 L 583 179 Z"/>
  <path id="z22006d13" d="M 528 172 Q 522 -41 542 -73 Q 548 -80 555 -78 Q 585 -57 583 179 L 582 214 Q 581 245 580 295 L 580 332 Q 579 374 579 425 L 580 455 Q 579 510 581 573 L 581 606 Q 581 621 582 636 Q 582 658 583 675 L 589 714 Q 592 735 596 752 Q 599 768 585 778 Q 579 782 574 785 C 551 805 496 800 511 774 Q 515 764 523 754 Q 535 732 538 699 L 539 667 Q 539 634 538 597 L 538 566 Q 537 512 535 449 L 535 419 Q 534 374 532 323 L 531 288 Q 530 249 529 207 L 528 172 Z"/>
<defs>
  <clipPath id="z22006c1"><use href="#z22006d1"/></clipPath>
  <clipPath id="z22006c2"><use href="#z22006d2"/></clipPath>
  <clipPath id="z22006c3"><use href="#z22006d3"/></clipPath>
  <clipPath id="z22006c4"><use href="#z22006d4"/></clipPath>
  <clipPath id="z22006c5"><use href="#z22006d5"/></clipPath>
  <clipPath id="z22006c6"><use href="#z22006d6"/></clipPath>
  <clipPath id="z22006c7"><use href="#z22006d7"/></clipPath>
  <clipPath id="z22006c8"><use href="#z22006d8"/></clipPath>
  <clipPath id="z22006c9"><use href="#z22006d9"/></clipPath>
  <clipPath id="z22006c10"><use href="#z22006d10"/></clipPath>
  <clipPath id="z22006c11"><use href="#z22006d11"/></clipPath>
  <clipPath id="z22006c12"><use href="#z22006d12"/></clipPath>
  <clipPath id="z22006c13"><use href="#z22006d13"/></clipPath>
</defs>
<path style="--d:1s;" pathLength="3333" clip-path="url(#z22006c1)" d="M 55 628 L 82 604 L 89 584 L 128 382"/>
<path style="--d:2s;" pathLength="3333" clip-path="url(#z22006c2)" d="M 113 622 L 121 617 L 220 648 L 241 644 L 261 625 L 235 513 L 215 499"/>
<path style="--d:3s;" pathLength="3333" clip-path="url(#z22006c3)" d="M 144 441 L 158 458 L 199 471 L 265 472"/>
<path style="--d:4s;" pathLength="3333" clip-path="url(#z22006c4)" d="M 360 781 L 385 762 L 395 743 L 448 551"/>
<path style="--d:5s;" pathLength="3333" clip-path="url(#z22006c5)" d="M 407 782 L 427 772 L 668 817 L 708 818 L 732 811 L 759 774 L 690 585"/>
<path style="--d:6s;" pathLength="3333" clip-path="url(#z22006c6)" d="M 475 671 L 609 700 L 648 696"/>
<path style="--d:7s;" pathLength="3333" clip-path="url(#z22006c7)" d="M 465 563 L 481 573 L 656 602 L 668 609"/>
<path style="--d:8s;" pathLength="3333" clip-path="url(#z22006c8)" d="M 262 408 L 309 400 L 593 444 L 866 471 L 907 471 L 964 455"/>
<path style="--d:9s;" pathLength="3333" clip-path="url(#z22006c9)" d="M 361 509 L 402 487 L 446 334"/>
<path style="--d:10s;" pathLength="3333" clip-path="url(#z22006c10)" d="M 731 570 L 754 530 L 704 376 L 683 358"/>
<path style="--d:11s;" pathLength="3333" clip-path="url(#z22006c11)" d="M 368 297 L 424 291 L 725 338 L 770 330"/>
<path style="--d:12s;" pathLength="3333" clip-path="url(#z22006c12)" d="M 274 169 L 313 159 L 594 199 L 828 221 L 870 216 L 908 202"/>
<path style="--d:13s;" pathLength="3333" clip-path="url(#z22006c13)" d="M 519 772 L 555 753 L 563 725 L 551 -70"/>
</svg>