<svg id="z24088" class="acjk" viewBox="0 0 1024 1024" xmlns="http://www.w3.org/2000/svg">
  <path id="z24088d1" d="M 478 815 Q 520 770 553 756 Q 569 755 579 768 Q 585 783 581 800 Q 566 842 509 853 Q 466 859 461 857 Q 454 856 458 842 Q 459 829 478 815 Z"/>
  <path id="z24088d2" d="M 268 679 Q 256 706 244 717 Q 225 733 222 705 Q 228 669 165 601 Q 138 589 161 525 Q 162 518 167 511 Q 182 483 205 511 Q 223 536 237 576 Q 253 619 265 646 C 274 666 274 666 268 679 Z"/>
  <path id="z24088d3" d="M 265 646 Q 290 634 322 643 Q 439 679 699 707 Q 753 713 769 709 Q 782 699 781 693 Q 765 651 747 606 L 749 605 Q 756 601 774 611 Q 832 644 877 653 Q 914 662 915 670 Q 914 680 841 738 Q 814 757 731 742 Q 611 729 376 693 Q 322 686 268 679 C 238 675 236 654 265 646 Z"/>
  <path id="z24088d4" d="M 382 615 Q 386 594 337 536 Q 313 511 282 482 Q 273 476 270 472 Q 266 465 277 463 Q 316 463 410 542 Q 423 555 434 560 Q 443 566 442 577 Q 441 587 424 610 Q 408 628 394 631 Q 379 632 382 615 Z"/>
  <path id="z24088d5" d="M 612 601 Q 654 570 698 530 Q 710 520 724 520 Q 733 521 737 533 Q 741 546 733 571 Q 726 596 688 615 Q 609 649 588 643 Q 584 639 585 628 Q 588 618 612 601 Z"/>
  <path id="z24088d6" d="M 359 416 Q 332 429 315 427 Q 302 423 309 411 Q 345 342 319 245 Q 297 214 326 168 Q 329 162 335 156 Q 342 143 352 149 Q 379 173 379 308 Q 379 362 380 379 C 381 406 381 406 359 416 Z"/>
  <path id="z24088d7" d="M 544 406 Q 595 413 645 417 Q 676 416 677 394 Q 683 247 665 227 Q 655 224 606 236 Q 590 242 585 237 Q 581 231 592 219 Q 641 171 671 136 Q 687 120 703 135 Q 742 177 739 232 Q 736 346 746 401 Q 750 423 740 433 Q 712 461 692 472 Q 679 479 668 469 Q 661 460 552 439 Q 549 439 547 438 L 489 430 Q 440 426 359 416 C 329 412 351 373 380 379 Q 425 388 489 398 L 544 406 Z"/>
  <path id="z24088d8" d="M 487 -15 Q 491 -40 498 -49 Q 504 -56 511 -54 Q 526 -44 533 13 Q 540 77 540 143 Q 539 198 544 406 L 547 438 Q 547 442 555 483 Q 559 501 545 510 Q 514 532 498 534 Q 486 540 470 531 Q 461 522 468 512 Q 489 476 489 430 L 489 398 Q 483 16 487 -15 Z"/>
<defs>
  <clipPath id="z24088c1"><use href="#z24088d1"/></clipPath>
  <clipPath id="z24088c2"><use href="#z24088d2"/></clipPath>
  <clipPath id="z24088c3"><use href="#z24088d3"/></clipPath>
  <clipPath id="z24088c4"><use href="#z24088d4"/></clipPath>
  <clipPath id="z24088c5"><use href="#z24088d5"/></clipPath>
  <clipPath id="z24088c6"><use href="#z24088d6"/></clipPath>
  <clipPath id="z24088c7"><use href="#z24088d7"/></clipPath>
  <clipPath id="z24088c8"><use href="#z24088d8"/></clipPath>
</defs>
<path style="--d:1s;" pathLength="3333" clip-path="url(#z24088c1)" d="M 464 849 L 539 805 L 560 779"/>
<path style="--d:2s;" pathLength="3333" clip-path="url(#z24088c2)" d="M 233 710 L 244 676 L 237 651 L 191 569 L 184 515"/>
<path style="--d:3s;" pathLength="3333" clip-path="url(#z24088c3)" d="M 277 673 L 288 660 L 310 662 L 536 703 L 745 729 L 784 727 L 815 709 L 828 687 L 763 615 L 752 613"/>
<path style="--d:4s;" pathLength="3333" clip-path="url(#z24088c4)" d="M 392 620 L 406 587 L 398 569 L 341 511 L 280 472"/>
<path style="--d:5s;" pathLength="3333" clip-path="url(#z24088c5)" d="M 593 634 L 682 585 L 704 565 L 721 536"/>
<path style="--d:6s;" pathLength="3333" clip-path="url(#z24088c6)" d="M 316 418 L 342 398 L 353 366 L 355 296 L 341 213 L 346 159"/>
<path style="--d:7s;" pathLength="3333" clip-path="url(#z24088c7)" d="M 368 413 L 397 401 L 647 439 L 683 439 L 699 427 L 711 401 L 709 299 L 705 234 L 692 195 L 686 187 L 664 193 L 590 233"/>
<path style="--d:8s;" pathLength="3333" clip-path="url(#z24088c8)" d="M 478 521 L 509 497 L 519 474 L 507 -45"/>
</svg>