<svg id="z22789" class="acjk" viewBox="0 0 1024 1024" xmlns="http://www.w3.org/2000/svg">
  <path id="z22789d1" d="M 443 725 Q 465 751 480 760 Q 502 777 465 815 Q 444 835 427 838 Q 412 839 416 819 Q 424 780 331 670 Q 288 624 227 568 Q 217 562 214 555 Q 210 546 221 546 Q 256 546 373 653 L 388 668 Q 400 682 425 706 L 443 725 Z"/>
  <path id="z22789d2" d="M 538 566 Q 676 702 690 710 Q 704 718 701 729 Q 700 737 643 766 Q 627 776 580 755 Q 508 737 443 725 C 414 719 396 715 425 706 Q 444 690 519 704 Q 577 713 582 710 Q 586 690 495 594 L 474 572 Q 351 458 139 330 Q 123 319 139 318 Q 183 318 331 404 Q 391 444 514 544 L 538 566 Z"/>
  <path id="z22789d3" d="M 514 544 Q 631 457 750 379 Q 774 361 811 363 Q 884 370 949 392 Q 967 396 967 402 Q 968 410 955 413 Q 891 430 806 450 Q 689 478 538 566 L 495 594 L 388 668 C 363 685 350 672 373 653 Q 374 651 380 647 L 474 572 L 514 544 Z"/>
  <path id="z22789d4" d="M 545 326 Q 547 327 548 327 Q 590 337 662 347 Q 695 353 701 358 Q 706 362 706 367 Q 707 380 672 391 Q 665 393 643 390 Q 584 385 549 374 L 491 359 Q 490 359 478 357 Q 347 335 310 333 Q 275 329 300 312 Q 337 288 400 303 Q 402 304 407 304 Q 476 318 491 318 L 545 326 Z"/>
  <path id="z22789d5" d="M 543 169 Q 549 169 556 170 Q 708 184 808 177 Q 830 176 840 187 Q 847 198 826 210 Q 772 256 713 235 L 660 226 Q 612 221 543 210 L 490 201 Q 488 200 486 200 Q 378 184 303 169 Q 280 162 286 181 Q 305 220 318 235 Q 331 245 327 256 Q 324 263 310 276 Q 277 304 263 298 Q 260 296 259 295 Q 253 291 256 281 Q 264 249 247 202 Q 245 196 241 190 Q 236 182 218 166 Q 201 151 202 138 Q 203 125 220 110 Q 232 100 247 112 Q 267 121 306 131 Q 402 155 489 163 L 543 169 Z"/>
  <path id="z22789d6" d="M 489 163 Q 489 -55 502 -76 Q 508 -87 516 -84 Q 532 -74 538 -4 Q 541 27 543 169 L 543 210 Q 543 259 545 326 L 549 374 Q 549 377 553 396 Q 561 427 545 438 Q 527 450 516 455 Q 492 466 472 457 Q 470 455 469 454 Q 466 449 472 435 Q 490 400 491 359 L 491 318 Q 491 244 490 201 L 489 163 Z"/>
<defs>
  <clipPath id="z22789c1"><use href="#z22789d1"/></clipPath>
  <clipPath id="z22789c2"><use href="#z22789d2"/></clipPath>
  <clipPath id="z22789c3"><use href="#z22789d3"/></clipPath>
  <clipPath id="z22789c4"><use href="#z22789d4"/></clipPath>
  <clipPath id="z22789c5"><use href="#z22789d5"/></clipPath>
  <clipPath id="z22789c6"><use href="#z22789d6"/></clipPath>
</defs>
<path style="--d:1s;" pathLength="3333" clip-path="url(#z22789c1)" d="M 426 826 L 436 815 L 447 781 L 418 739 L 317 626 L 263 580 L 222 554"/>
<path style="--d:2s;" pathLength="3333" clip-path="url(#z22789c2)" d="M 432 709 L 505 717 L 577 733 L 601 733 L 628 718 L 605 676 L 549 611 L 447 517 L 311 415 L 210 355 L 142 324"/>
<path style="--d:3s;" pathLength="3333" clip-path="url(#z22789c3)" d="M 380 654 L 412 639 L 487 580 L 584 517 L 779 412 L 845 403 L 960 403"/>
<path style="--d:4s;" pathLength="3333" clip-path="url(#z22789c4)" d="M 302 324 L 358 317 L 616 364 L 675 371 L 695 367"/>
<path style="--d:5s;" pathLength="3333" clip-path="url(#z22789c5)" d="M 268 287 L 290 251 L 255 153 L 273 147 L 540 190 L 739 210 L 769 209 L 830 193"/>
<path style="--d:6s;" pathLength="3333" clip-path="url(#z22789c6)" d="M 476 450 L 501 434 L 519 412 L 513 -76"/>
</svg>