<svg id="z21780" class="acjk" viewBox="0 0 1024 1024" xmlns="http://www.w3.org/2000/svg">
  <path id="z21780d1" d="M 141 579 Q 131 586 97 594 Q 85 598 81 593 Q 74 587 82 570 Q 110 498 121 383 Q 122 349 141 324 Q 157 302 163 317 Q 170 335 169 368 L 165 403 Q 150 515 149 550 C 148 575 148 575 141 579 Z"/>
  <path id="z21780d2" d="M 315 426 Q 331 520 358 548 Q 382 576 357 591 Q 336 603 307 621 Q 289 633 241 606 Q 207 593 141 579 C 112 573 119 545 149 550 Q 167 553 244 569 Q 268 573 273 564 Q 282 557 275 517 Q 268 477 259 427 C 254 397 310 396 315 426 Z"/>
  <path id="z21780d3" d="M 169 368 Q 226 383 329 393 Q 339 394 341 404 Q 341 411 315 426 C 297 437 288 434 259 427 Q 207 414 165 403 C 136 395 140 361 169 368 Z"/>
  <path id="z21780d4" d="M 594 719 Q 789 755 798 761 Q 807 768 803 776 Q 796 788 768 796 Q 744 802 639 772 Q 501 750 470 747 Q 434 743 459 726 Q 492 704 544 709 L 594 719 Z"/>
  <path id="z21780d5" d="M 603 572 Q 603 581 637 670 Q 641 680 625 698 Q 609 711 594 719 C 568 734 534 737 544 709 Q 557 678 554 622 Q 550 592 545 558 L 540 521 Q 527 449 513 371 C 508 341 549 347 556 376 Q 575 457 594 532 L 603 572 Z"/>
  <path id="z21780d6" d="M 731 399 Q 759 495 796 521 Q 814 542 798 561 Q 780 574 724 601 Q 705 610 681 600 Q 639 584 603 572 L 545 558 Q 496 548 447 542 Q 431 541 432 530 Q 435 521 454 515 Q 481 505 516 517 Q 528 520 540 521 L 594 532 Q 630 539 667 547 Q 686 551 694 543 Q 704 533 702 510 Q 689 444 673 391 C 665 362 722 370 731 399 Z"/>
  <path id="z21780d7" d="M 513 371 Q 422 362 325 351 Q 303 350 319 331 Q 334 316 352 310 Q 374 304 391 309 Q 557 351 884 351 Q 902 351 921 350 Q 942 350 947 359 Q 953 371 935 385 Q 875 431 824 415 Q 784 409 731 399 L 673 391 Q 642 388 610 383 Q 583 380 556 376 L 513 371 Z"/>
  <path id="z21780d8" d="M 479 232 Q 466 239 430 245 Q 417 249 413 243 Q 406 236 415 219 Q 445 158 462 59 Q 465 28 482 9 Q 501 -16 508 2 Q 512 15 512 36 L 508 70 Q 493 166 491 198 C 489 228 489 228 479 232 Z"/>
  <path id="z21780d9" d="M 752 94 Q 776 173 809 198 Q 828 219 812 238 Q 733 298 672 272 Q 593 248 479 232 C 449 228 461 194 491 198 Q 698 226 699 226 Q 702 225 704 222 Q 714 213 713 194 Q 706 140 695 95 C 688 66 743 65 752 94 Z"/>
  <path id="z21780d10" d="M 512 36 Q 596 48 770 54 Q 780 55 782 64 Q 783 71 754 93 Q 753 94 752 94 L 695 95 Q 592 79 508 70 C 478 67 482 32 512 36 Z"/>
<defs>
  <clipPath id="z21780c1"><use href="#z21780d1"/></clipPath>
  <clipPath id="z21780c2"><use href="#z21780d2"/></clipPath>
  <clipPath id="z21780c3"><use href="#z21780d3"/></clipPath>
  <clipPath id="z21780c4"><use href="#z21780d4"/></clipPath>
  <clipPath id="z21780c5"><use href="#z21780d5"/></clipPath>
  <clipPath id="z21780c6"><use href="#z21780d6"/></clipPath>
  <clipPath id="z21780c7"><use href="#z21780d7"/></clipPath>
  <clipPath id="z21780c8"><use href="#z21780d8"/></clipPath>
  <clipPath id="z21780c9"><use href="#z21780d9"/></clipPath>
  <clipPath id="z21780c10"><use href="#z21780d10"/></clipPath>
</defs>
<path style="--d:1s;" pathLength="3333" clip-path="url(#z21780c1)" d="M 88 585 L 120 550 L 153 323"/>
<path style="--d:2s;" pathLength="3333" clip-path="url(#z21780c2)" d="M 151 558 L 160 568 L 259 592 L 297 589 L 318 566 L 317 558 L 292 454 L 266 434"/>
<path style="--d:3s;" pathLength="3333" clip-path="url(#z21780c3)" d="M 173 374 L 188 391 L 256 406 L 308 409 L 333 403"/>
<path style="--d:4s;" pathLength="3333" clip-path="url(#z21780c4)" d="M 461 738 L 492 731 L 546 733 L 740 772 L 792 771"/>
<path style="--d:5s;" pathLength="3333" clip-path="url(#z21780c5)" d="M 551 705 L 589 680 L 593 667 L 539 395 L 519 378"/>
<path style="--d:6s;" pathLength="3333" clip-path="url(#z21780c6)" d="M 442 531 L 503 531 L 683 574 L 718 567 L 746 538 L 710 424 L 680 396"/>
<path style="--d:7s;" pathLength="3333" clip-path="url(#z21780c7)" d="M 322 341 L 373 331 L 592 361 L 846 385 L 900 378 L 935 365"/>
<path style="--d:8s;" pathLength="3333" clip-path="url(#z21780c8)" d="M 422 235 L 456 205 L 496 8"/>
<path style="--d:9s;" pathLength="3333" clip-path="url(#z21780c9)" d="M 488 229 L 498 220 L 531 219 L 706 253 L 735 241 L 759 216 L 730 123 L 702 100"/>
<path style="--d:10s;" pathLength="3333" clip-path="url(#z21780c10)" d="M 516 42 L 531 56 L 690 73 L 744 74 L 772 64"/>
</svg>