<svg id="z21855" class="acjk" viewBox="0 0 1024 1024" xmlns="http://www.w3.org/2000/svg">
  <path id="z21855d1" d="M 353 758 Q 380 734 407 707 Q 422 692 439 693 Q 451 694 457 709 Q 461 725 452 757 Q 440 790 348 810 Q 332 814 324 811 Q 318 807 320 793 Q 324 780 353 758 Z"/>
  <path id="z21855d2" d="M 460 491 Q 482 558 507 578 Q 531 603 508 619 Q 489 632 461 651 Q 440 661 394 636 Q 346 618 288 605 C 259 598 277 570 306 578 Q 355 591 395 600 Q 423 606 430 595 Q 436 589 427 560 Q 418 532 407 497 C 398 468 450 463 460 491 Z"/>
  <path id="z21855d3" d="M 282 437 Q 300 431 316 434 Q 364 447 470 461 Q 480 462 481 472 Q 481 479 460 491 L 407 497 Q 403 497 402 496 Q 338 477 286 464 C 257 457 253 445 282 437 Z"/>
  <path id="z21855d4" d="M 288 605 Q 248 629 233 628 Q 214 625 228 603 Q 252 555 224 396 Q 214 353 191 304 Q 161 244 97 193 Q 82 183 79 176 Q 78 169 88 169 Q 118 168 183 222 Q 258 292 282 437 L 286 464 Q 290 501 297 544 Q 303 577 305 577 Q 304 578 306 578 C 311 592 311 592 288 605 Z"/>
  <path id="z21855d5" d="M 625 646 Q 655 686 685 740 Q 701 771 716 787 Q 723 797 719 809 Q 715 821 687 839 Q 662 854 645 853 Q 629 850 637 831 Q 647 812 642 793 Q 623 732 593 674 Q 562 619 520 556 Q 513 546 510 541 Q 507 531 520 534 Q 530 535 552 558 Q 553 561 558 564 L 568 575 Q 587 597 610 626 L 625 646 Z"/>
  <path id="z21855d6" d="M 750 624 Q 799 636 854 645 Q 890 652 895 658 Q 902 665 899 673 Q 892 683 866 691 Q 838 697 811 686 Q 771 673 726 661 Q 680 652 625 646 C 595 643 584 641 610 626 Q 646 602 700 615 Q 701 616 704 615 L 750 624 Z"/>
  <path id="z21855d7" d="M 729 444 Q 751 478 764 519 Q 777 565 789 577 Q 799 590 790 600 Q 780 615 752 623 Q 751 624 750 624 C 722 634 689 641 704 615 Q 716 603 714 571 Q 717 541 688 474 L 663 436 Q 611 378 476 345 Q 458 336 479 333 Q 614 320 695 398 Q 695 399 697 400 L 729 444 Z"/>
  <path id="z21855d8" d="M 697 400 Q 781 307 814 300 Q 883 290 981 306 Q 1000 307 1001 313 Q 1004 320 989 326 Q 938 345 879 366 Q 812 391 762 424 Q 746 434 729 444 L 688 474 Q 664 492 641 512 Q 587 563 568 575 C 544 593 543 590 558 564 Q 558 554 663 436 L 697 400 Z"/>
  <path id="z21855d9" d="M 370 236 Q 357 243 318 248 Q 305 252 301 246 Q 294 239 304 221 Q 338 154 361 40 Q 365 6 386 -16 Q 407 -40 411 -22 Q 415 -10 415 7 L 411 43 Q 402 70 381 201 C 376 231 376 234 370 236 Z"/>
  <path id="z21855d10" d="M 692 71 Q 723 173 762 199 Q 781 220 766 241 Q 748 256 685 288 Q 667 297 643 288 Q 534 251 370 236 C 340 233 351 197 381 201 Q 430 207 615 237 Q 642 241 652 231 Q 664 219 660 196 Q 647 127 630 72 C 621 43 683 42 692 71 Z"/>
  <path id="z21855d11" d="M 415 7 Q 419 7 426 8 Q 517 23 713 28 Q 723 29 726 38 Q 727 47 696 70 Q 695 71 692 71 L 630 72 Q 509 51 411 43 C 381 40 385 4 415 7 Z"/>
<defs>
  <clipPath id="z21855c1"><use href="#z21855d1"/></clipPath>
  <clipPath id="z21855c2"><use href="#z21855d2"/></clipPath>
  <clipPath id="z21855c3"><use href="#z21855d3"/></clipPath>
  <clipPath id="z21855c4"><use href="#z21855d4"/></clipPath>
  <clipPath id="z21855c5"><use href="#z21855d5"/></clipPath>
  <clipPath id="z21855c6"><use href="#z21855d6"/></clipPath>
  <clipPath id="z21855c7"><use href="#z21855d7"/></clipPath>
  <clipPath id="z21855c8"><use href="#z21855d8"/></clipPath>
  <clipPath id="z21855c9"><use href="#z21855d9"/></clipPath>
  <clipPath id="z21855c10"><use href="#z21855d10"/></clipPath>
  <clipPath id="z21855c11"><use href="#z21855d11"/></clipPath>
</defs>
<path style="--d:1s;" pathLength="3333" clip-path="url(#z21855c1)" d="M 330 803 L 409 754 L 436 715"/>
<path style="--d:2s;" pathLength="3333" clip-path="url(#z21855c2)" d="M 297 604 L 306 597 L 326 598 L 427 625 L 446 622 L 462 610 L 471 598 L 442 519 L 414 502"/>
<path style="--d:3s;" pathLength="3333" clip-path="url(#z21855c3)" d="M 290 443 L 409 475 L 471 471"/>
<path style="--d:4s;" pathLength="3333" clip-path="url(#z21855c4)" d="M 234 615 L 266 584 L 269 573 L 256 432 L 236 349 L 212 294 L 182 251 L 134 202 L 87 176"/>
<path style="--d:5s;" pathLength="3333" clip-path="url(#z21855c5)" d="M 647 840 L 668 821 L 680 800 L 657 746 L 613 664 L 538 559 L 517 541"/>
<path style="--d:6s;" pathLength="3333" clip-path="url(#z21855c6)" d="M 619 627 L 708 636 L 835 668 L 888 668"/>
<path style="--d:7s;" pathLength="3333" clip-path="url(#z21855c7)" d="M 712 613 L 747 590 L 749 578 L 722 485 L 682 420 L 653 394 L 595 362 L 522 343 L 488 342"/>
<path style="--d:8s;" pathLength="3333" clip-path="url(#z21855c8)" d="M 567 566 L 669 459 L 775 372 L 817 345 L 890 328 L 994 315"/>
<path style="--d:9s;" pathLength="3333" clip-path="url(#z21855c9)" d="M 309 238 L 345 209 L 354 185 L 399 -17"/>
<path style="--d:10s;" pathLength="3333" clip-path="url(#z21855c10)" d="M 379 233 L 393 221 L 409 222 L 631 261 L 658 262 L 680 253 L 710 219 L 668 100 L 638 77"/>
<path style="--d:11s;" pathLength="3333" clip-path="url(#z21855c11)" d="M 420 14 L 434 28 L 625 49 L 689 49 L 717 39"/>
</svg>