<svg id="z27122" class="acjk" viewBox="0 0 1024 1024" xmlns="http://www.w3.org/2000/svg">
  <path id="z27122d1" d="M 274 535 Q 284 539 296 542 Q 321 551 325 554 Q 332 561 328 570 Q 321 580 293 584 Q 283 585 275 583 L 234 571 Q 164 544 105 535 Q 72 526 98 513 Q 138 494 187 511 Q 200 515 220 520 L 274 535 Z"/>
  <path id="z27122d2" d="M 272 465 Q 272 499 274 535 L 275 583 Q 275 677 296 749 Q 305 762 302 776 Q 295 785 243 817 Q 221 833 202 819 Q 198 815 203 800 Q 233 754 233 707 Q 233 643 234 571 L 229 427 Q 226 357 226 281 Q 220 208 201 141 Q 189 102 214 45 Q 220 29 227 25 Q 233 19 240 27 Q 247 31 257 50 Q 267 74 266 103 Q 265 143 271 435 L 272 465 Z"/>
  <path id="z27122d3" d="M 220 520 Q 201 465 175 412 Q 141 343 54 216 Q 50 206 60 206 Q 79 206 172 329 Q 202 371 229 427 C 288 548 230 548 220 520 Z"/>
  <path id="z27122d4" d="M 271 435 Q 307 381 325 379 Q 335 378 342 391 Q 343 401 338 417 Q 328 447 272 465 C 245 474 254 460 271 435 Z"/>
  <path id="z27122d5" d="M 459 670 Q 513 763 512 769 Q 511 770 511 771 Q 507 781 485 795 Q 464 807 450 805 Q 437 804 444 787 Q 459 760 415 667 Q 393 624 363 575 Q 356 568 355 562 Q 354 555 363 557 Q 381 560 448 653 L 459 670 Z"/>
  <path id="z27122d6" d="M 498 544 Q 513 562 536 593 Q 564 633 595 656 Q 608 663 599 674 Q 589 683 560 698 Q 547 702 536 695 Q 530 691 481 676 Q 471 673 459 670 C 430 663 419 660 448 653 Q 460 647 513 657 Q 519 658 520 657 Q 524 654 520 646 Q 495 579 477 546 Q 474 542 473 537 C 462 509 479 521 498 544 Z"/>
  <path id="z27122d7" d="M 387 519 Q 360 534 347 528 Q 340 522 345 512 Q 376 481 357 292 Q 354 279 352 266 Q 339 209 299 125 Q 295 119 295 115 Q 294 106 301 109 Q 325 113 370 207 Q 373 217 377 226 Q 407 326 408 464 Q 408 473 410 487 C 412 507 412 507 387 519 Z"/>
  <path id="z27122d8" d="M 474 508 Q 537 529 551 518 Q 560 514 562 474 Q 571 344 562 196 Q 561 174 553 168 Q 547 164 514 170 Q 501 174 501 167 Q 501 161 511 155 Q 539 119 553 94 Q 569 78 579 79 Q 589 80 599 103 Q 617 149 613 262 Q 606 476 619 499 Q 628 517 620 526 Q 611 538 574 557 Q 556 566 498 544 L 473 537 Q 430 528 387 519 C 358 513 382 477 410 487 L 442 498 L 474 508 Z"/>
  <path id="z27122d9" d="M 498 390 Q 520 396 542 399 Q 561 403 553 414 Q 543 424 522 427 Q 512 428 499 425 L 458 412 Q 436 403 417 395 Q 404 391 421 380 Q 427 376 440 378 Q 449 381 458 381 L 498 390 Z"/>
  <path id="z27122d10" d="M 496 294 Q 518 300 542 303 Q 561 307 553 318 Q 543 330 522 332 Q 510 333 496 328 L 458 316 Q 433 307 413 299 Q 400 295 417 283 Q 420 282 458 286 L 496 294 Z"/>
  <path id="z27122d11" d="M 496 328 Q 496 355 498 390 L 499 425 Q 499 426 500 429 Q 500 442 506 475 Q 509 487 499 494 Q 484 504 474 508 C 447 521 428 525 442 498 Q 457 477 458 412 L 458 381 Q 458 353 458 316 L 458 286 Q 458 145 469 126 Q 473 122 478 123 Q 494 135 496 287 Q 496 291 496 294 L 496 328 Z"/>
  <path id="z27122d12" d="M 670 598 Q 689 582 709 560 Q 718 551 730 551 Q 737 551 742 561 Q 745 571 739 593 Q 730 617 668 633 Q 656 636 652 634 Q 648 631 649 622 Q 650 615 670 598 Z"/>
  <path id="z27122d13" d="M 650 490 Q 692 430 714 426 Q 727 425 733 441 Q 736 453 728 472 Q 721 487 700 495 Q 669 511 656 515 Q 647 516 646 506 Q 645 499 650 490 Z"/>
  <path id="z27122d14" d="M 832 341 Q 866 347 912 349 Q 951 353 954 360 Q 957 370 943 380 Q 894 410 831 386 L 781 372 Q 771 371 760 367 Q 700 352 628 335 Q 612 332 625 319 Q 647 301 695 312 Q 731 325 774 332 Q 775 333 780 333 L 832 341 Z"/>
  <path id="z27122d15" d="M 781 26 Q 787 1 794 -9 Q 800 -16 807 -14 Q 822 -5 828 56 Q 835 137 832 341 L 831 386 Q 831 671 845 742 Q 849 760 834 769 Q 800 791 785 794 Q 772 798 756 789 Q 747 782 755 771 Q 783 714 784 645 Q 784 530 781 372 L 780 333 Q 773 111 781 26 Z"/>
<defs>
  <clipPath id="z27122c1"><use href="#z27122d1"/></clipPath>
  <clipPath id="z27122c2"><use href="#z27122d2"/></clipPath>
  <clipPath id="z27122c3"><use href="#z27122d3"/></clipPath>
  <clipPath id="z27122c4"><use href="#z27122d4"/></clipPath>
  <clipPath id="z27122c5"><use href="#z27122d5"/></clipPath>
  <clipPath id="z27122c6"><use href="#z27122d6"/></clipPath>
  <clipPath id="z27122c7"><use href="#z27122d7"/></clipPath>
  <clipPath id="z27122c8"><use href="#z27122d8"/></clipPath>
  <clipPath id="z27122c9"><use href="#z27122d9"/></clipPath>
  <clipPath id="z27122c10"><use href="#z27122d10"/></clipPath>
  <clipPath id="z27122c11"><use href="#z27122d11"/></clipPath>
  <clipPath id="z27122c12"><use href="#z27122d12"/></clipPath>
  <clipPath id="z27122c13"><use href="#z27122d13"/></clipPath>
  <clipPath id="z27122c14"><use href="#z27122d14"/></clipPath>
  <clipPath id="z27122c15"><use href="#z27122d15"/></clipPath>
</defs>
<path style="--d:1s;" pathLength="3333" clip-path="url(#z27122c1)" d="M 99 525 L 147 522 L 288 563 L 317 564"/>
<path style="--d:2s;" pathLength="3333" clip-path="url(#z27122c2)" d="M 213 813 L 261 762 L 248 279 L 231 120 L 232 36"/>
<path style="--d:3s;" pathLength="3333" clip-path="url(#z27122c3)" d="M 228 517 L 209 435 L 188 391 L 123 288 L 60 213"/>
<path style="--d:4s;" pathLength="3333" clip-path="url(#z27122c4)" d="M 279 457 L 326 394"/>
<path style="--d:5s;" pathLength="3333" clip-path="url(#z27122c5)" d="M 451 795 L 477 764 L 465 729 L 428 652 L 363 565"/>
<path style="--d:6s;" pathLength="3333" clip-path="url(#z27122c6)" d="M 452 656 L 517 673 L 553 665 L 518 595 L 479 540"/>
<path style="--d:7s;" pathLength="3333" clip-path="url(#z27122c7)" d="M 354 520 L 371 507 L 384 480 L 386 407 L 379 316 L 370 262 L 351 202 L 318 136 L 302 116"/>
<path style="--d:8s;" pathLength="3333" clip-path="url(#z27122c8)" d="M 395 517 L 421 508 L 504 529 L 513 536 L 549 540 L 564 537 L 589 509 L 591 275 L 586 176 L 570 136 L 509 163"/>
<path style="--d:9s;" pathLength="3333" clip-path="url(#z27122c9)" d="M 427 390 L 508 410 L 545 408"/>
<path style="--d:10s;" pathLength="3333" clip-path="url(#z27122c10)" d="M 416 291 L 507 314 L 545 312"/>
<path style="--d:11s;" pathLength="3333" clip-path="url(#z27122c11)" d="M 448 496 L 472 484 L 480 469 L 475 128"/>
<path style="--d:12s;" pathLength="3333" clip-path="url(#z27122c12)" d="M 656 627 L 710 592 L 727 567"/>
<path style="--d:13s;" pathLength="3333" clip-path="url(#z27122c13)" d="M 656 504 L 704 463 L 715 442"/>
<path style="--d:14s;" pathLength="3333" clip-path="url(#z27122c14)" d="M 627 327 L 668 325 L 859 370 L 895 372 L 946 364"/>
<path style="--d:15s;" pathLength="3333" clip-path="url(#z27122c15)" d="M 763 780 L 782 770 L 807 743 L 809 709 L 803 -5"/>
</svg>