<svg id="z24697" class="acjk" viewBox="0 0 1024 1024" xmlns="http://www.w3.org/2000/svg">
  <path id="z24697d1" d="M 147 534 Q 125 470 91 411 Q 73 377 92 344 Q 101 328 121 340 Q 172 385 176 477 Q 179 511 171 535 Q 165 542 160 544 Q 151 543 147 534 Z"/>
  <path id="z24697d2" d="M 296 535 Q 303 531 354 477 Q 364 465 379 465 Q 388 465 393 477 Q 397 490 392 515 Q 388 534 360 548 Q 333 560 303 569 Q 302 570 297 570 C 267 573 272 553 296 535 Z"/>
  <path id="z24697d3" d="M 297 570 Q 300 657 318 715 Q 327 731 324 744 Q 317 754 262 789 Q 238 807 217 791 Q 213 787 218 771 Q 248 725 249 648 Q 249 228 219 116 Q 216 107 214 97 Q 201 55 228 -5 Q 234 -23 242 -27 Q 248 -34 256 -25 Q 263 -21 274 0 Q 284 25 284 56 Q 284 105 296 535 L 297 570 Z"/>
  <path id="z24697d4" d="M 519 626 Q 550 617 639 630 Q 823 670 831 675 Q 840 682 835 692 Q 828 704 798 711 Q 767 718 736 705 Q 690 689 638 677 Q 580 664 514 658 Q 507 657 503 655 C 474 647 490 632 519 626 Z"/>
  <path id="z24697d5" d="M 503 655 Q 488 667 467 675 Q 448 685 434 680 Q 422 673 429 659 Q 445 638 447 575 Q 446 563 446 550 Q 443 399 405 280 Q 375 190 302 71 Q 298 64 295 58 Q 294 48 304 50 Q 337 57 408 173 Q 418 195 431 219 Q 489 351 503 522 Q 507 595 519 626 C 524 641 524 641 503 655 Z"/>
  <path id="z24697d6" d="M 678 349 Q 733 364 849 376 Q 859 375 869 388 Q 870 401 846 411 Q 812 432 741 411 Q 687 399 683 397 L 632 386 Q 608 383 586 379 Q 552 375 512 370 Q 482 366 506 348 Q 539 321 573 330 Q 595 336 625 339 L 678 349 Z"/>
  <path id="z24697d7" d="M 625 339 Q 586 174 433 46 Q 427 42 422 36 Q 409 26 422 24 Q 486 30 566 115 Q 602 151 635 215 Q 662 290 667 300 L 677 344 Q 677 348 678 349 L 683 397 Q 699 509 706 522 Q 715 541 697 548 Q 646 579 622 569 Q 609 563 616 549 Q 641 507 632 386 L 625 339 Z"/>
  <path id="z24697d8" d="M 667 300 Q 748 128 800 56 Q 816 29 837 27 Q 895 26 946 25 Q 968 24 968 29 Q 971 35 948 51 Q 831 120 781 186 Q 712 277 677 344 C 663 370 654 327 667 300 Z"/>
  <path id="z24697d9" d="M 778 531 Q 802 512 828 489 Q 841 479 855 479 Q 865 480 869 492 Q 873 505 863 533 Q 854 558 772 575 Q 757 578 752 575 Q 748 571 749 559 Q 753 549 778 531 Z"/>
<defs>
  <clipPath id="z24697c1"><use href="#z24697d1"/></clipPath>
  <clipPath id="z24697c2"><use href="#z24697d2"/></clipPath>
  <clipPath id="z24697c3"><use href="#z24697d3"/></clipPath>
  <clipPath id="z24697c4"><use href="#z24697d4"/></clipPath>
  <clipPath id="z24697c5"><use href="#z24697d5"/></clipPath>
  <clipPath id="z24697c6"><use href="#z24697d6"/></clipPath>
  <clipPath id="z24697c7"><use href="#z24697d7"/></clipPath>
  <clipPath id="z24697c8"><use href="#z24697d8"/></clipPath>
  <clipPath id="z24697c9"><use href="#z24697d9"/></clipPath>
</defs>
<path style="--d:1s;" pathLength="3333" clip-path="url(#z24697c1)" d="M 160 533 L 146 454 L 108 353"/>
<path style="--d:2s;" pathLength="3333" clip-path="url(#z24697c2)" d="M 299 564 L 361 513 L 378 481"/>
<path style="--d:3s;" pathLength="3333" clip-path="url(#z24697c3)" d="M 229 784 L 257 760 L 280 729 L 267 302 L 247 73 L 247 -14"/>
<path style="--d:4s;" pathLength="3333" clip-path="url(#z24697c4)" d="M 510 652 L 535 641 L 571 643 L 648 654 L 764 686 L 825 685"/>
<path style="--d:5s;" pathLength="3333" clip-path="url(#z24697c5)" d="M 440 667 L 463 649 L 480 619 L 472 483 L 449 345 L 424 261 L 384 173 L 344 106 L 304 59"/>
<path style="--d:6s;" pathLength="3333" clip-path="url(#z24697c6)" d="M 507 360 L 563 352 L 789 396 L 858 390"/>
<path style="--d:7s;" pathLength="3333" clip-path="url(#z24697c7)" d="M 626 557 L 666 522 L 666 498 L 653 351 L 625 256 L 577 166 L 530 109 L 470 56 L 427 30"/>
<path style="--d:8s;" pathLength="3333" clip-path="url(#z24697c8)" d="M 676 336 L 682 304 L 723 229 L 767 159 L 823 90 L 846 68 L 962 32"/>
<path style="--d:9s;" pathLength="3333" clip-path="url(#z24697c9)" d="M 757 569 L 836 522 L 853 495"/>
</svg>