<svg id="z24735" class="acjk" viewBox="0 0 1024 1024" xmlns="http://www.w3.org/2000/svg">
  <path id="z24735d1" d="M 139 523 Q 121 450 91 381 Q 76 339 98 312 Q 108 294 129 310 Q 148 331 159 365 Q 178 420 174 468 Q 175 502 163 527 Q 157 534 151 535 Q 142 532 139 523 Z"/>
  <path id="z24735d2" d="M 303 607 Q 325 601 388 566 Q 401 559 412 563 Q 419 564 421 576 Q 422 588 410 609 Q 400 625 367 634 Q 337 638 305 637 C 275 636 274 616 303 607 Z"/>
  <path id="z24735d3" d="M 305 637 Q 309 695 322 740 Q 332 755 328 768 Q 321 778 266 813 Q 242 831 221 815 Q 217 809 222 794 Q 252 748 254 672 Q 254 251 234 162 Q 216 90 223 70 Q 238 9 254 1 Q 260 -6 268 3 Q 275 7 286 28 Q 296 53 295 85 Q 294 134 303 584 Q 303 596 303 607 L 305 637 Z"/>
  <path id="z24735d4" d="M 612 700 Q 789 736 794 739 Q 804 746 799 756 Q 792 768 762 776 Q 738 782 631 751 Q 559 736 486 730 Q 449 724 475 706 Q 517 684 572 693 L 612 700 Z"/>
  <path id="z24735d5" d="M 603 576 Q 631 670 632 672 Q 622 688 612 700 C 593 724 571 723 572 693 Q 576 675 550 564 L 540 527 Q 524 472 503 389 C 496 360 541 366 549 395 Q 571 471 591 537 L 603 576 Z"/>
  <path id="z24735d6" d="M 724 418 Q 751 503 787 528 Q 803 547 789 565 Q 773 578 720 604 Q 702 611 680 603 Q 640 587 603 576 L 550 564 Q 504 555 456 549 Q 440 548 441 537 Q 444 530 462 523 Q 487 513 522 524 Q 529 525 540 527 L 591 537 Q 684 556 692 549 Q 702 539 698 519 Q 686 458 670 410 C 661 381 715 390 724 418 Z"/>
  <path id="z24735d7" d="M 503 389 Q 430 383 353 374 Q 332 373 347 355 Q 360 342 379 335 Q 400 329 416 334 Q 570 373 878 373 Q 896 373 913 372 Q 934 372 938 380 Q 944 392 928 406 Q 868 449 805 432 Q 769 426 724 418 L 670 410 Q 645 409 620 404 Q 586 400 549 395 L 503 389 Z"/>
  <path id="z24735d8" d="M 484 254 Q 472 260 444 265 Q 431 269 427 264 Q 420 257 429 240 Q 457 177 472 76 Q 473 45 491 25 Q 510 1 515 17 Q 521 30 520 53 L 517 87 Q 502 189 500 221 C 498 248 498 248 484 254 Z"/>
  <path id="z24735d9" d="M 755 112 Q 779 199 814 224 Q 832 243 817 261 Q 801 276 746 302 Q 727 309 705 302 Q 627 272 484 254 C 454 250 470 217 500 221 Q 524 224 686 252 Q 707 256 715 247 Q 725 238 723 218 Q 714 161 701 114 C 693 85 747 83 755 112 Z"/>
  <path id="z24735d10" d="M 520 53 Q 524 53 531 53 Q 607 66 770 74 Q 780 75 783 84 Q 783 91 755 112 C 742 122 731 119 701 114 Q 599 95 517 87 C 487 84 490 53 520 53 Z"/>
<defs>
  <clipPath id="z24735c1"><use href="#z24735d1"/></clipPath>
  <clipPath id="z24735c2"><use href="#z24735d2"/></clipPath>
  <clipPath id="z24735c3"><use href="#z24735d3"/></clipPath>
  <clipPath id="z24735c4"><use href="#z24735d4"/></clipPath>
  <clipPath id="z24735c5"><use href="#z24735d5"/></clipPath>
  <clipPath id="z24735c6"><use href="#z24735d6"/></clipPath>
  <clipPath id="z24735c7"><use href="#z24735d7"/></clipPath>
  <clipPath id="z24735c8"><use href="#z24735d8"/></clipPath>
  <clipPath id="z24735c9"><use href="#z24735d9"/></clipPath>
  <clipPath id="z24735c10"><use href="#z24735d10"/></clipPath>
</defs>
<path style="--d:1s;" pathLength="3333" clip-path="url(#z24735c1)" d="M 152 524 L 147 448 L 118 354 L 114 320"/>
<path style="--d:2s;" pathLength="3333" clip-path="url(#z24735c2)" d="M 313 629 L 322 619 L 384 599 L 405 578"/>
<path style="--d:3s;" pathLength="3333" clip-path="url(#z24735c3)" d="M 233 808 L 261 784 L 284 753 L 275 332 L 258 95 L 259 14"/>
<path style="--d:4s;" pathLength="3333" clip-path="url(#z24735c4)" d="M 478 719 L 523 712 L 561 714 L 622 723 L 722 749 L 756 754 L 789 749"/>
<path style="--d:5s;" pathLength="3333" clip-path="url(#z24735c5)" d="M 579 691 L 600 667 L 590 619 L 532 415 L 510 397"/>
<path style="--d:6s;" pathLength="3333" clip-path="url(#z24735c6)" d="M 450 539 L 510 538 L 668 574 L 707 576 L 741 545 L 706 441 L 676 415"/>
<path style="--d:7s;" pathLength="3333" clip-path="url(#z24735c7)" d="M 350 364 L 399 355 L 602 383 L 831 405 L 880 401 L 927 387"/>
<path style="--d:8s;" pathLength="3333" clip-path="url(#z24735c8)" d="M 434 257 L 463 231 L 471 214 L 504 24"/>
<path style="--d:9s;" pathLength="3333" clip-path="url(#z24735c9)" d="M 494 252 L 510 240 L 708 277 L 741 269 L 767 241 L 735 139 L 708 119"/>
<path style="--d:10s;" pathLength="3333" clip-path="url(#z24735c10)" d="M 524 82 L 535 71 L 707 93 L 748 93 L 775 84"/>
</svg>