<svg id="z23338" class="acjk" viewBox="0 0 1024 1024" xmlns="http://www.w3.org/2000/svg">
  <path id="z23338d1" d="M 252 425 Q 271 524 287 625 Q 293 673 309 699 Q 319 721 312 734 Q 296 752 248 775 Q 227 785 211 776 Q 198 769 210 752 Q 247 707 209 415 L 202 369 Q 202 333 174 274 Q 164 253 204 223 Q 229 204 253 180 L 284 149 Q 309 124 342 85 Q 357 69 366 67 Q 375 66 382 77 Q 389 87 387 118 Q 383 146 362 162 Q 346 175 313 196 L 276 218 Q 258 230 236 242 Q 214 255 218 277 Q 231 331 243 384 L 252 425 Z"/>
  <path id="z23338d2" d="M 253 180 Q 246 173 239 162 Q 196 107 133 71 Q 118 61 104 50 Q 91 43 103 39 Q 187 39 284 149 L 313 196 Q 353 269 365 327 Q 387 424 399 446 Q 409 462 394 472 Q 352 506 326 498 Q 313 494 319 481 Q 328 463 329 442 L 328 417 Q 313 297 276 218 L 253 180 Z"/>
  <path id="z23338d3" d="M 329 442 Q 292 435 252 425 L 209 415 Q 154 406 95 393 Q 77 389 49 392 Q 37 391 34 382 Q 31 369 40 361 Q 59 345 90 324 Q 100 320 112 328 Q 166 361 202 369 L 243 384 Q 274 397 308 409 L 328 417 C 356 428 358 448 329 442 Z"/>
  <path id="z23338d4" d="M 604 817 Q 626 799 650 777 Q 663 765 678 767 Q 688 768 693 780 Q 697 795 687 823 Q 675 850 597 863 Q 582 866 576 863 Q 572 859 573 847 Q 577 837 604 817 Z"/>
  <path id="z23338d5" d="M 476 694 Q 475 695 475 697 Q 462 718 451 725 Q 433 737 433 713 Q 442 677 396 623 Q 381 601 409 554 Q 428 535 439 558 Q 451 580 459 611 Q 466 645 474 665 C 481 683 481 683 476 694 Z"/>
  <path id="z23338d6" d="M 474 665 Q 492 659 539 673 Q 639 706 774 725 Q 810 731 822 729 Q 832 725 830 718 Q 831 712 826 705 Q 798 650 803 644 Q 810 640 828 650 Q 879 675 918 682 Q 951 686 951 695 Q 950 705 884 755 Q 857 777 781 756 Q 727 750 476 694 C 447 687 444 668 474 665 Z"/>
  <path id="z23338d7" d="M 606 591 Q 756 627 759 629 Q 766 636 762 643 Q 756 652 733 658 Q 717 661 636 636 Q 551 618 518 614 Q 490 610 510 596 Q 537 581 574 584 L 606 591 Z"/>
  <path id="z23338d8" d="M 623 457 Q 626 466 629 529 Q 629 544 632 558 Q 636 574 620 583 L 606 591 C 580 606 556 608 574 584 Q 590 568 586 481 Q 583 463 605 439 C 616 426 617 428 623 457 Z"/>
  <path id="z23338d9" d="M 489 537 Q 471 503 448 472 Q 432 445 444 422 Q 448 409 465 417 Q 501 444 506 493 Q 510 518 507 536 Q 503 543 499 544 Q 492 543 489 537 Z"/>
  <path id="z23338d10" d="M 635 420 Q 761 538 773 543 Q 785 547 786 555 Q 785 561 776 566 Q 754 582 732 587 Q 719 590 713 577 Q 701 537 623 457 L 605 439 Q 590 426 574 411 L 528 367 Q 441 292 354 235 Q 348 232 350 229 Q 351 226 356 227 Q 404 240 428 256 Q 479 287 531 330 L 635 420 Z"/>
  <path id="z23338d11" d="M 553 409 Q 531 422 519 417 Q 513 413 518 403 Q 527 376 528 367 L 531 330 Q 534 242 525 195 Q 512 150 544 112 Q 553 102 561 112 Q 567 121 570 130 L 573 163 Q 573 169 574 220 L 574 240 Q 574 274 574 300 L 574 321 Q 574 360 577 369 C 581 394 580 395 553 409 Z"/>
  <path id="z23338d12" d="M 761 148 Q 762 141 769 132 Q 782 105 790 106 Q 803 107 817 137 Q 826 155 827 197 Q 811 353 838 390 Q 847 405 840 413 Q 815 435 773 453 Q 760 457 738 451 Q 701 435 650 424 Q 643 423 635 420 L 574 411 Q 564 411 553 409 C 523 406 553 351 577 369 Q 604 397 727 414 Q 746 418 754 407 Q 766 392 766 343 Q 770 201 763 173 Q 762 172 762 170 C 759 153 759 153 761 148 Z"/>
  <path id="z23338d13" d="M 574 300 Q 580 300 588 301 Q 661 314 717 324 Q 736 327 729 338 Q 720 350 699 353 Q 675 354 574 321 C 545 312 544 299 574 300 Z"/>
  <path id="z23338d14" d="M 574 220 Q 581 219 592 220 Q 665 232 720 238 Q 741 242 733 253 Q 723 266 701 270 Q 676 273 574 240 C 545 231 544 223 574 220 Z"/>
  <path id="z23338d15" d="M 570 130 Q 574 130 580 131 Q 637 140 761 148 C 786 150 785 150 762 170 Q 735 197 663 178 Q 614 169 573 163 C 543 159 540 128 570 130 Z"/>
  <path id="z23338d16" d="M 565 83 Q 550 37 414 -46 Q 392 -56 418 -57 Q 479 -61 584 12 Q 612 31 625 40 Q 637 49 636 58 Q 635 71 613 82 Q 588 95 577 95 Q 570 95 565 83 Z"/>
  <path id="z23338d17" d="M 731 67 Q 774 18 826 -53 Q 841 -75 856 -81 Q 865 -82 873 -74 Q 886 -61 879 -16 Q 873 38 735 99 Q 726 105 723 92 Q 722 79 731 67 Z"/>
<defs>
  <clipPath id="z23338c1"><use href="#z23338d1"/></clipPath>
  <clipPath id="z23338c2"><use href="#z23338d2"/></clipPath>
  <clipPath id="z23338c3"><use href="#z23338d3"/></clipPath>
  <clipPath id="z23338c4"><use href="#z23338d4"/></clipPath>
  <clipPath id="z23338c5"><use href="#z23338d5"/></clipPath>
  <clipPath id="z23338c6"><use href="#z23338d6"/></clipPath>
  <clipPath id="z23338c7"><use href="#z23338d7"/></clipPath>
  <clipPath id="z23338c8"><use href="#z23338d8"/></clipPath>
  <clipPath id="z23338c9"><use href="#z23338d9"/></clipPath>
  <clipPath id="z23338c10"><use href="#z23338d10"/></clipPath>
  <clipPath id="z23338c11"><use href="#z23338d11"/></clipPath>
  <clipPath id="z23338c12"><use href="#z23338d12"/></clipPath>
  <clipPath id="z23338c13"><use href="#z23338d13"/></clipPath>
  <clipPath id="z23338c14"><use href="#z23338d14"/></clipPath>
  <clipPath id="z23338c15"><use href="#z23338d15"/></clipPath>
  <clipPath id="z23338c16"><use href="#z23338d16"/></clipPath>
  <clipPath id="z23338c17"><use href="#z23338d17"/></clipPath>
</defs>
<path style="--d:1s;" pathLength="3333" clip-path="url(#z23338c1)" d="M 218 764 L 245 747 L 268 714 L 234 436 L 215 334 L 195 264 L 206 243 L 306 168 L 348 129 L 367 82"/>
<path style="--d:2s;" pathLength="3333" clip-path="url(#z23338c2)" d="M 328 487 L 348 473 L 363 447 L 336 314 L 299 214 L 270 166 L 212 104 L 153 64 L 109 44"/>
<path style="--d:3s;" pathLength="3333" clip-path="url(#z23338c3)" d="M 48 377 L 103 360 L 316 426 L 322 436"/>
<path style="--d:4s;" pathLength="3333" clip-path="url(#z23338c4)" d="M 581 857 L 654 815 L 675 785"/>
<path style="--d:5s;" pathLength="3333" clip-path="url(#z23338c5)" d="M 442 718 L 455 688 L 441 640 L 423 605 L 423 561"/>
<path style="--d:6s;" pathLength="3333" clip-path="url(#z23338c6)" d="M 480 672 L 516 687 L 656 720 L 831 747 L 862 729 L 871 711 L 808 647"/>
<path style="--d:7s;" pathLength="3333" clip-path="url(#z23338c7)" d="M 512 606 L 566 602 L 617 610 L 716 638 L 755 637"/>
<path style="--d:8s;" pathLength="3333" clip-path="url(#z23338c8)" d="M 580 583 L 608 562 L 603 450"/>
<path style="--d:9s;" pathLength="3333" clip-path="url(#z23338c9)" d="M 498 535 L 491 503 L 456 426"/>
<path style="--d:10s;" pathLength="3333" clip-path="url(#z23338c10)" d="M 776 556 L 737 554 L 654 459 L 642 454 L 632 439 L 528 346 L 428 270 L 354 231"/>
<path style="--d:11s;" pathLength="3333" clip-path="url(#z23338c11)" d="M 525 410 L 542 393 L 552 366 L 547 166 L 553 117"/>
<path style="--d:12s;" pathLength="3333" clip-path="url(#z23338c12)" d="M 559 404 L 590 396 L 749 434 L 771 427 L 793 405 L 799 394 L 793 331 L 797 189 L 791 116"/>
<path style="--d:13s;" pathLength="3333" clip-path="url(#z23338c13)" d="M 581 305 L 588 316 L 659 331 L 702 337 L 721 333"/>
<path style="--d:14s;" pathLength="3333" clip-path="url(#z23338c14)" d="M 578 225 L 609 238 L 692 253 L 724 248"/>
<path style="--d:15s;" pathLength="3333" clip-path="url(#z23338c15)" d="M 575 135 L 588 149 L 709 165 L 741 164 L 750 154"/>
<path style="--d:16s;" pathLength="3333" clip-path="url(#z23338c16)" d="M 620 57 L 588 55 L 516 -5 L 465 -34 L 423 -49"/>
<path style="--d:17s;" pathLength="3333" clip-path="url(#z23338c17)" d="M 734 87 L 836 -6 L 858 -66"/>
</svg>