<svg id="z22913" class="acjk" viewBox="0 0 1024 1024" xmlns="http://www.w3.org/2000/svg">
  <path id="z22913d1" d="M 301 493 Q 323 562 345 632 Q 357 678 377 703 Q 390 724 384 737 Q 371 756 325 785 Q 306 798 289 791 Q 276 784 285 768 Q 312 726 253 484 L 240 438 Q 212 353 196 328 Q 186 306 207 288 Q 258 260 301 226 L 338 197 Q 372 170 416 129 Q 432 114 442 113 Q 451 113 456 124 Q 463 136 457 166 Q 450 202 369 242 L 326 264 Q 296 280 258 298 Q 239 308 240 326 Q 264 387 287 451 L 301 493 Z"/>
  <path id="z22913d2" d="M 301 226 Q 229 156 226 152 Q 219 149 213 143 Q 206 139 153 104 Q 140 95 151 92 Q 233 86 338 197 L 369 242 Q 411 309 426 375 Q 447 463 464 494 Q 474 512 459 521 Q 411 560 387 552 Q 372 548 378 533 Q 384 521 386 508 L 386 479 Q 386 379 326 264 L 301 226 Z"/>
  <path id="z22913d3" d="M 386 508 Q 346 501 301 493 L 253 484 Q 190 475 123 464 Q 101 460 68 465 Q 55 465 52 456 Q 48 443 57 434 Q 76 415 107 392 Q 117 388 130 395 Q 193 431 240 438 L 287 451 Q 329 464 374 476 Q 378 477 386 479 C 415 486 416 513 386 508 Z"/>
  <path id="z22913d4" d="M 583 537 Q 646 664 661 702 Q 676 745 692 768 Q 699 781 692 795 Q 685 808 650 825 Q 617 838 598 835 Q 579 829 592 807 Q 610 785 604 759 Q 583 630 485 434 Q 476 421 475 414 Q 474 401 488 407 Q 518 419 572 516 L 583 537 Z"/>
  <path id="z22913d5" d="M 723 63 Q 708 59 629 83 Q 619 86 619 80 Q 619 76 630 67 Q 676 24 698 -9 Q 710 -30 723 -28 Q 745 -29 764 -8 Q 834 49 863 243 Q 873 333 880 457 Q 881 493 903 519 Q 916 532 915 541 Q 914 548 894 562 Q 867 581 831 592 Q 806 601 788 592 Q 770 585 729 572 Q 671 556 630 547 Q 602 541 583 537 C 554 531 542 518 572 516 Q 573 516 576 515 Q 609 509 744 535 Q 799 545 809 537 Q 830 498 808 273 Q 792 162 760 99 Q 744 65 723 63 Z"/>
  <path id="z22913d6" d="M 551 329 Q 582 296 614 257 Q 624 244 640 242 Q 650 241 657 253 Q 664 266 659 296 Q 652 335 553 375 Q 538 381 532 379 Q 528 376 527 363 Q 528 353 551 329 Z"/>
<defs>
  <clipPath id="z22913c1"><use href="#z22913d1"/></clipPath>
  <clipPath id="z22913c2"><use href="#z22913d2"/></clipPath>
  <clipPath id="z22913c3"><use href="#z22913d3"/></clipPath>
  <clipPath id="z22913c4"><use href="#z22913d4"/></clipPath>
  <clipPath id="z22913c5"><use href="#z22913d5"/></clipPath>
  <clipPath id="z22913c6"><use href="#z22913d6"/></clipPath>
</defs>
<path style="--d:1s;" pathLength="3333" clip-path="url(#z22913c1)" d="M 296 778 L 319 757 L 337 722 L 270 464 L 217 313 L 235 292 L 366 213 L 414 175 L 441 128"/>
<path style="--d:2s;" pathLength="3333" clip-path="url(#z22913c2)" d="M 388 540 L 408 526 L 424 500 L 392 350 L 366 287 L 323 216 L 273 166 L 224 127 L 157 97"/>
<path style="--d:3s;" pathLength="3333" clip-path="url(#z22913c3)" d="M 66 451 L 118 428 L 178 448 L 363 488 L 380 501"/>
<path style="--d:4s;" pathLength="3333" clip-path="url(#z22913c4)" d="M 602 819 L 632 799 L 647 772 L 616 673 L 568 557 L 520 463 L 484 416"/>
<path style="--d:5s;" pathLength="3333" clip-path="url(#z22913c5)" d="M 575 521 L 803 568 L 828 561 L 857 531 L 833 236 L 811 140 L 782 70 L 755 36 L 730 20 L 625 80"/>
<path style="--d:6s;" pathLength="3333" clip-path="url(#z22913c6)" d="M 536 373 L 547 358 L 618 303 L 641 260"/>
</svg>