<svg id="z29978" class="acjk" viewBox="0 0 1024 1024" xmlns="http://www.w3.org/2000/svg">
  <path id="z29978d1" d="M 662 666 Q 719 673 769 679 Q 779 678 788 690 Q 789 702 767 712 Q 730 734 671 715 Q 668 715 668 714 L 608 699 Q 583 695 558 689 Q 497 677 439 667 L 387 661 Q 329 658 265 648 Q 237 645 258 628 Q 291 600 319 608 Q 353 615 390 621 L 437 630 Q 513 646 608 659 L 662 666 Z"/>
  <path id="z29978d2" d="M 439 667 Q 440 710 445 725 Q 449 750 435 763 Q 411 784 382 795 Q 367 802 357 795 Q 348 789 355 772 Q 377 718 387 661 L 390 621 Q 394 542 393 330 C 393 300 436 306 435 336 Q 434 381 434 420 L 434 443 Q 434 482 435 516 L 435 538 Q 435 608 437 630 L 439 667 Z"/>
  <path id="z29978d3" d="M 640 368 Q 652 524 662 666 L 668 714 Q 672 748 688 802 Q 692 814 671 830 Q 634 851 608 856 Q 590 860 582 851 Q 573 844 582 827 Q 609 785 608 758 Q 608 730 608 699 L 608 659 Q 607 520 595 360 C 593 330 638 338 640 368 Z"/>
  <path id="z29978d4" d="M 435 516 Q 442 516 449 517 Q 510 527 557 534 Q 576 538 569 549 Q 559 562 537 565 Q 510 566 435 538 C 407 528 405 515 435 516 Z"/>
  <path id="z29978d5" d="M 434 420 Q 438 420 445 421 Q 509 431 556 438 Q 577 442 569 453 Q 559 466 537 469 Q 501 473 434 443 C 407 431 404 418 434 420 Z"/>
  <path id="z29978d6" d="M 309 279 Q 522 327 861 328 Q 886 328 892 337 Q 898 350 880 365 Q 817 411 767 392 Q 712 382 640 368 L 595 360 Q 546 353 493 344 Q 465 341 435 336 L 393 330 Q 270 314 137 296 Q 115 293 132 275 Q 147 260 166 255 Q 188 249 206 254 Q 233 261 261 268 L 309 279 Z"/>
  <path id="z29978d7" d="M 451 258 Q 457 242 417 180 Q 398 153 371 124 Q 364 118 361 114 Q 358 107 368 108 Q 398 108 482 195 Q 494 208 503 214 Q 510 221 508 230 Q 507 239 489 257 Q 473 270 460 273 Q 447 273 451 258 Z"/>
  <path id="z29978d8" d="M 606 230 Q 643 193 682 148 Q 692 135 706 135 Q 716 134 721 145 Q 727 157 722 184 Q 718 223 607 272 Q 594 276 588 275 Q 584 272 583 261 Q 584 251 606 230 Z"/>
  <path id="z29978d9" d="M 261 268 Q 261 264 268 256 Q 301 201 276 72 Q 270 56 252 35 Q 230 11 268 -17 Q 284 -24 296 -11 Q 452 58 796 26 Q 821 22 831 35 Q 838 45 817 61 Q 757 109 694 92 Q 663 88 630 83 Q 491 73 359 50 Q 313 35 327 77 Q 331 191 346 237 Q 355 250 347 260 Q 340 270 309 279 C 281 289 246 294 261 268 Z"/>
<defs>
  <clipPath id="z29978c1"><use href="#z29978d1"/></clipPath>
  <clipPath id="z29978c2"><use href="#z29978d2"/></clipPath>
  <clipPath id="z29978c3"><use href="#z29978d3"/></clipPath>
  <clipPath id="z29978c4"><use href="#z29978d4"/></clipPath>
  <clipPath id="z29978c5"><use href="#z29978d5"/></clipPath>
  <clipPath id="z29978c6"><use href="#z29978d6"/></clipPath>
  <clipPath id="z29978c7"><use href="#z29978d7"/></clipPath>
  <clipPath id="z29978c8"><use href="#z29978d8"/></clipPath>
  <clipPath id="z29978c9"><use href="#z29978d9"/></clipPath>
</defs>
<path style="--d:1s;" pathLength="3333" clip-path="url(#z29978c1)" d="M 260 639 L 310 630 L 712 698 L 777 692"/>
<path style="--d:2s;" pathLength="3333" clip-path="url(#z29978c2)" d="M 367 784 L 406 740 L 413 678 L 414 354 L 399 341"/>
<path style="--d:3s;" pathLength="3333" clip-path="url(#z29978c3)" d="M 595 839 L 643 798 L 622 410 L 619 387 L 601 368"/>
<path style="--d:4s;" pathLength="3333" clip-path="url(#z29978c4)" d="M 442 522 L 449 532 L 502 543 L 540 548 L 560 544"/>
<path style="--d:5s;" pathLength="3333" clip-path="url(#z29978c5)" d="M 439 426 L 449 436 L 509 449 L 540 453 L 560 448"/>
<path style="--d:6s;" pathLength="3333" clip-path="url(#z29978c6)" d="M 135 285 L 188 277 L 445 321 L 799 363 L 881 344"/>
<path style="--d:7s;" pathLength="3333" clip-path="url(#z29978c7)" d="M 459 263 L 475 234 L 470 219 L 416 151 L 369 116"/>
<path style="--d:8s;" pathLength="3333" clip-path="url(#z29978c8)" d="M 592 266 L 684 192 L 707 149"/>
<path style="--d:9s;" pathLength="3333" clip-path="url(#z29978c9)" d="M 268 264 L 312 242 L 308 127 L 296 30 L 338 26 L 517 54 L 720 64 L 755 61 L 819 41"/>
</svg>