<svg id="z20558" class="acjk" viewBox="0 0 1024 1024" xmlns="http://www.w3.org/2000/svg">
  <path id="z20558d1" d="M 219 513 Q 265 574 317 659 Q 344 708 368 733 Q 378 745 372 759 Q 368 772 338 795 Q 310 814 289 814 Q 270 811 279 789 Q 294 756 282 728 Q 219 572 59 372 Q 49 362 46 355 Q 42 343 57 346 Q 99 356 195 483 Q 195 484 196 485 L 219 513 Z"/>
  <path id="z20558d2" d="M 196 485 Q 215 433 221 373 Q 220 355 220 336 Q 220 236 194 135 Q 184 90 218 39 Q 219 39 221 36 Q 239 20 251 47 Q 266 87 265 134 Q 265 371 273 424 Q 280 451 271 462 Q 226 510 219 513 C 196 532 186 513 196 485 Z"/>
  <path id="z20558d3" d="M 428 740 Q 419 744 409 745 Q 399 748 395 743 Q 388 737 397 722 Q 427 653 443 543 Q 446 509 465 487 Q 481 466 486 481 Q 489 488 490 498 L 490 522 Q 489 537 486 554 Q 464 677 461 709 C 459 729 456 730 428 740 Z"/>
  <path id="z20558d4" d="M 691 530 Q 691 527 693 523 Q 699 507 712 509 Q 725 510 733 526 Q 746 545 769 636 Q 785 688 821 719 Q 840 735 824 751 Q 805 767 754 794 Q 739 803 670 785 Q 646 785 533 759 Q 473 746 435 741 Q 432 741 428 740 C 398 736 431 706 461 709 Q 471 708 481 711 Q 512 721 565 732 L 606 739 Q 702 760 721 750 Q 731 743 727 710 Q 705 583 694 558 Q 693 558 693 557 C 686 539 686 539 691 530 Z"/>
  <path id="z20558d5" d="M 571 652 Q 538 642 510 632 Q 495 628 514 615 Q 520 612 572 620 L 613 628 Q 641 635 669 638 Q 690 642 681 653 Q 671 666 649 669 Q 633 670 614 665 L 571 652 Z"/>
  <path id="z20558d6" d="M 565 732 Q 568 722 571 652 L 572 620 Q 572 589 574 544 C 575 514 609 523 610 553 Q 611 593 613 628 L 614 665 Q 614 687 616 710 Q 622 728 606 739 C 583 758 560 762 565 732 Z"/>
  <path id="z20558d7" d="M 490 498 Q 499 497 511 499 Q 611 518 691 530 C 721 534 720 544 693 557 Q 671 570 619 556 Q 613 555 610 553 L 574 544 Q 529 534 490 522 C 461 513 460 499 490 498 Z"/>
  <path id="z20558d8" d="M 549 409 Q 624 439 856 439 Q 860 440 867 440 Q 885 441 888 449 Q 892 459 877 471 Q 831 504 796 495 Q 691 467 334 404 Q 315 401 330 387 Q 343 375 359 371 Q 378 367 393 372 Q 396 373 399 374 L 443 386 Q 471 396 508 402 L 549 409 Z"/>
  <path id="z20558d9" d="M 399 374 Q 429 344 428 227 Q 425 128 378 70 Q 356 49 392 6 L 395 3 Q 405 -4 418 8 Q 461 60 592 168 Q 607 178 608 186 Q 609 192 604 191 Q 594 190 484 125 Q 475 121 472 123 Q 468 126 468 137 Q 472 327 475 349 Q 479 365 468 373 Q 461 380 443 386 C 415 398 382 398 399 374 Z"/>
  <path id="z20558d10" d="M 694 268 Q 718 283 794 335 Q 810 348 833 358 Q 852 367 843 383 Q 831 399 808 412 Q 786 425 775 422 Q 763 421 767 409 Q 770 382 723 329 Q 702 307 680 280 C 661 257 669 252 694 268 Z"/>
  <path id="z20558d11" d="M 680 280 Q 623 331 549 409 C 528 431 483 419 508 402 Q 538 384 559 355 Q 767 96 806 90 Q 866 90 951 107 Q 967 110 973 118 Q 977 125 966 128 Q 792 183 714 252 Q 704 259 694 268 L 680 280 Z"/>
<defs>
  <clipPath id="z20558c1"><use href="#z20558d1"/></clipPath>
  <clipPath id="z20558c2"><use href="#z20558d2"/></clipPath>
  <clipPath id="z20558c3"><use href="#z20558d3"/></clipPath>
  <clipPath id="z20558c4"><use href="#z20558d4"/></clipPath>
  <clipPath id="z20558c5"><use href="#z20558d5"/></clipPath>
  <clipPath id="z20558c6"><use href="#z20558d6"/></clipPath>
  <clipPath id="z20558c7"><use href="#z20558d7"/></clipPath>
  <clipPath id="z20558c8"><use href="#z20558d8"/></clipPath>
  <clipPath id="z20558c9"><use href="#z20558d9"/></clipPath>
  <clipPath id="z20558c10"><use href="#z20558d10"/></clipPath>
  <clipPath id="z20558c11"><use href="#z20558d11"/></clipPath>
</defs>
<path style="--d:1s;" pathLength="3333" clip-path="url(#z20558c1)" d="M 290 799 L 316 774 L 327 747 L 288 666 L 172 485 L 84 378 L 55 355"/>
<path style="--d:2s;" pathLength="3333" clip-path="url(#z20558c2)" d="M 218 506 L 222 480 L 244 438 L 243 275 L 228 113 L 234 48"/>
<path style="--d:3s;" pathLength="3333" clip-path="url(#z20558c3)" d="M 403 735 L 420 721 L 439 684 L 476 486"/>
<path style="--d:4s;" pathLength="3333" clip-path="url(#z20558c4)" d="M 441 737 L 472 728 L 571 752 L 704 774 L 742 769 L 772 733 L 710 526"/>
<path style="--d:5s;" pathLength="3333" clip-path="url(#z20558c5)" d="M 512 623 L 644 652 L 673 647"/>
<path style="--d:6s;" pathLength="3333" clip-path="url(#z20558c6)" d="M 572 731 L 592 712 L 592 577 L 589 562 L 578 553"/>
<path style="--d:7s;" pathLength="3333" clip-path="url(#z20558c7)" d="M 495 504 L 527 518 L 650 544 L 674 546 L 683 537"/>
<path style="--d:8s;" pathLength="3333" clip-path="url(#z20558c8)" d="M 332 396 L 383 391 L 573 434 L 806 468 L 878 454"/>
<path style="--d:9s;" pathLength="3333" clip-path="url(#z20558c9)" d="M 407 375 L 441 357 L 446 344 L 450 222 L 440 130 L 444 93 L 464 95 L 496 110 L 603 186"/>
<path style="--d:10s;" pathLength="3333" clip-path="url(#z20558c10)" d="M 780 410 L 791 395 L 795 376 L 772 348 L 695 282 L 694 275"/>
<path style="--d:11s;" pathLength="3333" clip-path="url(#z20558c11)" d="M 515 400 L 546 392 L 696 230 L 799 146 L 848 130 L 965 120"/>
</svg>