<svg id="z26584" class="acjk" viewBox="0 0 1024 1024" xmlns="http://www.w3.org/2000/svg">
  <path id="z26584d1" d="M 333 550 Q 429 577 432 579 Q 441 588 436 596 Q 429 608 398 614 Q 367 620 336 606 Q 335 606 334 605 L 289 590 Q 217 569 141 558 Q 104 551 131 535 Q 176 511 234 528 Q 253 534 278 537 L 333 550 Z"/>
  <path id="z26584d2" d="M 331 463 Q 331 505 333 550 L 334 605 Q 337 696 354 760 Q 364 775 360 789 Q 353 799 298 833 Q 274 851 253 835 Q 249 829 254 814 Q 288 765 288 715 Q 288 657 289 590 L 286 429 Q 277 201 275 184 Q 268 144 257 105 Q 245 65 271 2 Q 278 -16 286 -19 Q 292 -26 300 -17 Q 307 -13 318 8 Q 328 33 327 65 Q 326 108 331 430 L 331 463 Z"/>
  <path id="z26584d3" d="M 278 537 Q 250 464 211 395 Q 168 322 66 191 Q 59 179 72 179 Q 79 178 89 187 Q 209 286 286 429 C 360 565 289 565 278 537 Z"/>
  <path id="z26584d4" d="M 331 430 Q 395 361 418 361 Q 431 360 436 378 Q 437 391 428 410 Q 416 429 389 440 Q 352 459 331 463 C 302 469 311 452 331 430 Z"/>
  <path id="z26584d5" d="M 647 562 Q 890 605 897 612 Q 907 621 903 630 Q 896 643 863 654 Q 829 661 700 624 Q 537 600 501 597 Q 459 593 488 572 Q 536 545 593 554 L 647 562 Z"/>
  <path id="z26584d6" d="M 548 333 Q 549 336 552 337 Q 592 391 654 499 Q 661 514 668 520 Q 675 524 673 535 Q 670 550 647 562 C 622 578 593 584 593 554 Q 599 472 487 320 Q 484 317 482 314 Q 446 271 357 183 Q 350 179 359 176 Q 416 188 511 287 L 548 333 Z"/>
  <path id="z26584d7" d="M 511 287 Q 533 220 544 120 Q 545 84 564 60 Q 580 38 587 53 Q 594 72 592 103 L 587 146 Q 571 267 570 297 C 567 356 486 366 511 287 Z"/>
  <path id="z26584d8" d="M 570 297 Q 574 297 758 327 Q 777 331 784 323 Q 796 313 794 290 Q 785 230 774 180 C 768 151 818 136 826 165 Q 854 270 893 302 Q 912 324 895 343 Q 876 358 817 386 Q 796 395 772 385 Q 682 349 548 333 C 518 329 540 293 570 297 Z"/>
  <path id="z26584d9" d="M 592 103 Q 602 102 616 104 Q 686 117 836 125 Q 849 126 851 138 Q 851 147 826 165 C 803 182 803 182 774 180 Q 764 180 754 177 Q 660 155 587 146 C 557 142 562 104 592 103 Z"/>
<defs>
  <clipPath id="z26584c1"><use href="#z26584d1"/></clipPath>
  <clipPath id="z26584c2"><use href="#z26584d2"/></clipPath>
  <clipPath id="z26584c3"><use href="#z26584d3"/></clipPath>
  <clipPath id="z26584c4"><use href="#z26584d4"/></clipPath>
  <clipPath id="z26584c5"><use href="#z26584d5"/></clipPath>
  <clipPath id="z26584c6"><use href="#z26584d6"/></clipPath>
  <clipPath id="z26584c7"><use href="#z26584d7"/></clipPath>
  <clipPath id="z26584c8"><use href="#z26584d8"/></clipPath>
  <clipPath id="z26584c9"><use href="#z26584d9"/></clipPath>
</defs>
<path style="--d:1s;" pathLength="3333" clip-path="url(#z26584c1)" d="M 133 548 L 156 542 L 193 543 L 376 590 L 427 588"/>
<path style="--d:2s;" pathLength="3333" clip-path="url(#z26584c2)" d="M 265 828 L 294 804 L 317 774 L 318 747 L 304 231 L 290 84 L 291 -5"/>
<path style="--d:3s;" pathLength="3333" clip-path="url(#z26584c3)" d="M 285 532 L 262 437 L 222 366 L 140 257 L 74 188"/>
<path style="--d:4s;" pathLength="3333" clip-path="url(#z26584c4)" d="M 336 458 L 351 436 L 398 403 L 418 379"/>
<path style="--d:5s;" pathLength="3333" clip-path="url(#z26584c5)" d="M 491 586 L 529 578 L 582 579 L 713 599 L 823 624 L 864 629 L 889 625"/>
<path style="--d:6s;" pathLength="3333" clip-path="url(#z26584c6)" d="M 601 549 L 627 522 L 590 438 L 552 374 L 476 276 L 412 216 L 381 193 L 366 189 L 363 181"/>
<path style="--d:7s;" pathLength="3333" clip-path="url(#z26584c7)" d="M 547 324 L 543 281 L 576 60"/>
<path style="--d:8s;" pathLength="3333" clip-path="url(#z26584c8)" d="M 557 330 L 585 318 L 776 357 L 811 349 L 841 319 L 807 200 L 783 186"/>
<path style="--d:9s;" pathLength="3333" clip-path="url(#z26584c9)" d="M 595 140 L 617 127 L 771 151 L 840 138"/>
</svg>