<svg id="z20956" class="acjk" viewBox="0 0 1024 1024" xmlns="http://www.w3.org/2000/svg">
  <path id="z20956d1" d="M 141 673 Q 184 615 220 596 Q 236 592 247 605 Q 254 618 253 636 Q 241 688 159 712 L 158 713 Q 140 720 130 716 Q 123 715 125 702 Q 126 689 141 673 Z"/>
  <path id="z20956d2" d="M 261 428 Q 185 313 135 250 Q 122 235 108 237 Q 92 240 86 220 Q 83 192 99 172 Q 118 142 133 133 Q 146 123 158 127 Q 168 131 171 142 Q 180 191 268 399 Q 278 420 276 428 Q 273 446 261 428 Z"/>
  <path id="z20956d3" d="M 535 817 Q 556 802 578 784 Q 594 772 610 775 Q 622 778 625 792 Q 626 808 613 838 Q 606 853 578 860 Q 511 872 499 863 Q 495 859 498 845 Q 504 835 535 817 Z"/>
  <path id="z20956d4" d="M 330 704 Q 311 701 326 687 Q 339 675 356 672 Q 375 668 389 673 Q 551 727 806 742 Q 824 743 843 744 Q 861 745 865 753 Q 869 763 854 775 Q 802 806 772 797 Q 667 770 330 704 Z"/>
  <path id="z20956d5" d="M 368 620 Q 362 621 361 620 Q 354 621 345 622 Q 333 623 331 619 Q 325 612 335 598 Q 371 540 398 441 Q 404 411 424 393 Q 443 374 446 390 Q 446 394 447 398 L 446 422 Q 445 438 439 456 Q 408 559 401 590 C 394 619 394 619 368 620 Z"/>
  <path id="z20956d6" d="M 679 440 Q 697 413 712 405 Q 722 396 739 418 Q 754 440 787 565 Q 796 596 820 622 Q 833 635 822 650 Q 806 666 762 694 Q 744 703 665 683 Q 517 653 368 620 C 339 614 372 581 401 590 Q 498 621 673 652 Q 709 658 725 646 Q 738 636 734 618 Q 707 488 691 470 C 677 443 677 443 679 440 Z"/>
  <path id="z20956d7" d="M 495 578 Q 488 581 466 581 Q 459 582 456 578 Q 452 574 460 564 Q 478 540 494 498 Q 498 485 508 478 Q 521 465 524 476 Q 525 480 524 487 L 519 511 Q 509 547 507 559 C 504 575 504 575 495 578 Z"/>
  <path id="z20956d8" d="M 640 523 Q 653 553 665 561 Q 681 579 665 590 Q 652 599 632 612 Q 620 621 575 598 Q 533 586 495 578 C 466 572 478 553 507 559 Q 534 565 585 576 Q 604 580 610 573 Q 613 570 609 555 Q 606 545 603 534 C 595 505 628 496 640 523 Z"/>
  <path id="z20956d9" d="M 524 487 Q 527 487 531 488 Q 565 497 640 506 Q 647 507 648 513 Q 648 517 640 523 L 603 534 Q 597 535 591 532 Q 551 519 519 511 C 490 504 494 484 524 487 Z"/>
  <path id="z20956d10" d="M 447 398 Q 456 397 470 399 Q 588 424 679 440 C 709 445 719 458 691 470 Q 687 473 679 474 Q 660 475 625 467 Q 528 442 446 422 C 417 415 417 399 447 398 Z"/>
  <path id="z20956d11" d="M 568 326 Q 622 347 666 350 Q 679 350 683 355 Q 687 362 679 373 Q 634 409 610 410 Q 604 409 602 400 Q 596 366 425 309 Q 421 303 425 300 Q 431 297 513 314 Q 525 317 538 319 L 568 326 Z"/>
  <path id="z20956d12" d="M 600 240 Q 676 253 787 255 Q 841 255 848 265 Q 852 275 837 287 Q 783 324 739 307 Q 682 294 599 276 L 547 266 Q 444 250 322 228 Q 303 225 318 211 Q 331 199 347 195 Q 366 191 381 196 Q 442 215 513 227 L 600 240 Z"/>
  <path id="z20956d13" d="M 599 276 Q 600 283 601 287 Q 604 299 597 304 Q 581 317 568 326 C 544 344 526 347 538 319 Q 547 306 547 266 L 546 198 Q 546 72 532 30 Q 523 -6 554 -53 Q 564 -71 571 -74 Q 581 -75 587 -63 Q 599 -33 596 -5 Q 596 65 595 212 L 600 240 L 599 276 Z"/>
  <path id="z20956d14" d="M 513 227 Q 468 131 258 14 Q 242 4 256 2 Q 266 -1 300 10 Q 348 23 394 52 Q 434 77 479 121 Q 521 163 546 198 C 574 236 535 269 513 227 Z"/>
  <path id="z20956d15" d="M 595 212 Q 670 130 752 55 Q 776 33 813 34 Q 880 34 951 52 Q 970 55 971 60 Q 972 67 958 71 Q 793 120 771 131 Q 723 150 650 203 Q 619 228 600 240 C 575 257 575 234 595 212 Z"/>
<defs>
  <clipPath id="z20956c1"><use href="#z20956d1"/></clipPath>
  <clipPath id="z20956c2"><use href="#z20956d2"/></clipPath>
  <clipPath id="z20956c3"><use href="#z20956d3"/></clipPath>
  <clipPath id="z20956c4"><use href="#z20956d4"/></clipPath>
  <clipPath id="z20956c5"><use href="#z20956d5"/></clipPath>
  <clipPath id="z20956c6"><use href="#z20956d6"/></clipPath>
  <clipPath id="z20956c7"><use href="#z20956d7"/></clipPath>
  <clipPath id="z20956c8"><use href="#z20956d8"/></clipPath>
  <clipPath id="z20956c9"><use href="#z20956d9"/></clipPath>
  <clipPath id="z20956c10"><use href="#z20956d10"/></clipPath>
  <clipPath id="z20956c11"><use href="#z20956d11"/></clipPath>
  <clipPath id="z20956c12"><use href="#z20956d12"/></clipPath>
  <clipPath id="z20956c13"><use href="#z20956d13"/></clipPath>
  <clipPath id="z20956c14"><use href="#z20956d14"/></clipPath>
  <clipPath id="z20956c15"><use href="#z20956d15"/></clipPath>
</defs>
<path style="--d:1s;" pathLength="3333" clip-path="url(#z20956c1)" d="M 137 706 L 212 645 L 227 620"/>
<path style="--d:2s;" pathLength="3333" clip-path="url(#z20956c2)" d="M 151 146 L 138 196 L 159 223 L 269 423"/>
<path style="--d:3s;" pathLength="3333" clip-path="url(#z20956c3)" d="M 505 857 L 576 827 L 605 794"/>
<path style="--d:4s;" pathLength="3333" clip-path="url(#z20956c4)" d="M 328 696 L 373 691 L 547 731 L 782 770 L 855 758"/>
<path style="--d:5s;" pathLength="3333" clip-path="url(#z20956c5)" d="M 340 612 L 361 598 L 377 577 L 435 393"/>
<path style="--d:6s;" pathLength="3333" clip-path="url(#z20956c6)" d="M 377 618 L 405 610 L 699 673 L 750 665 L 776 634 L 722 457 L 716 445 L 693 440"/>
<path style="--d:7s;" pathLength="3333" clip-path="url(#z20956c7)" d="M 463 572 L 484 562 L 490 552 L 516 479"/>
<path style="--d:8s;" pathLength="3333" clip-path="url(#z20956c8)" d="M 502 576 L 512 570 L 592 591 L 621 592 L 638 574 L 627 546 L 611 538"/>
<path style="--d:9s;" pathLength="3333" clip-path="url(#z20956c9)" d="M 527 494 L 542 505 L 600 518 L 640 515"/>
<path style="--d:10s;" pathLength="3333" clip-path="url(#z20956c10)" d="M 452 404 L 484 418 L 664 456 L 683 467"/>
<path style="--d:11s;" pathLength="3333" clip-path="url(#z20956c11)" d="M 684 363 L 433 307"/>
<path style="--d:12s;" pathLength="3333" clip-path="url(#z20956c12)" d="M 320 220 L 364 214 L 515 245 L 770 284 L 840 270"/>
<path style="--d:13s;" pathLength="3333" clip-path="url(#z20956c13)" d="M 546 318 L 563 306 L 574 286 L 563 19 L 573 -64"/>
<path style="--d:14s;" pathLength="3333" clip-path="url(#z20956c14)" d="M 542 226 L 483 151 L 435 106 L 341 42 L 261 7"/>
<path style="--d:15s;" pathLength="3333" clip-path="url(#z20956c15)" d="M 602 232 L 610 215 L 669 163 L 787 80 L 863 67 L 965 61"/>
</svg>