<svg id="z29074" class="acjk" viewBox="0 0 1024 1024" xmlns="http://www.w3.org/2000/svg">
  <path id="z29074d1" d="M 239 628 Q 269 577 281 573 Q 290 572 297 581 Q 304 593 304 619 Q 301 641 246 669 Q 234 676 228 675 Q 224 672 222 661 Q 222 651 239 628 Z"/>
  <path id="z29074d2" d="M 393 647 Q 397 646 404 649 Q 467 680 496 690 Q 512 693 509 703 Q 505 716 490 734 Q 475 750 456 754 Q 444 755 443 738 Q 444 720 393 661 C 381 647 381 647 393 647 Z"/>
  <path id="z29074d3" d="M 378 580 Q 378 584 380 585 Q 390 615 393 647 L 393 661 Q 393 725 405 759 Q 409 775 395 781 Q 352 805 330 794 Q 320 788 326 777 Q 359 741 343 620 Q 325 518 233 437 Q 223 427 234 427 Q 283 433 331 495 Q 359 525 370 557 Q 370 560 371 561 L 378 580 Z"/>
  <path id="z29074d4" d="M 371 561 Q 375 554 393 541 Q 411 525 430 507 Q 440 497 453 498 Q 462 498 465 508 Q 469 520 461 543 Q 457 556 435 566 Q 393 579 378 580 C 356 582 356 582 371 561 Z"/>
  <path id="z29074d5" d="M 480 643 Q 507 591 531 587 Q 543 586 550 600 Q 553 612 546 630 Q 540 642 524 649 Q 499 664 487 666 Q 480 669 477 659 Q 476 652 480 643 Z"/>
  <path id="z29074d6" d="M 633 664 Q 636 664 729 690 Q 748 700 772 705 Q 793 709 786 728 Q 779 746 757 763 Q 739 779 727 779 Q 715 780 717 768 Q 717 744 635 674 C 620 661 620 661 633 664 Z"/>
  <path id="z29074d7" d="M 635 674 Q 647 762 657 783 Q 661 793 654 801 Q 638 817 603 833 Q 584 843 567 837 Q 548 830 563 814 Q 588 786 588 756 Q 589 705 585 672 Q 569 563 495 481 Q 480 475 477 466 Q 473 459 489 460 Q 526 460 582 528 Q 585 534 589 540 Q 616 582 633 664 L 635 674 Z"/>
  <path id="z29074d8" d="M 666 570 Q 694 549 726 524 Q 739 514 752 515 Q 762 516 765 528 Q 768 541 759 567 Q 746 600 659 611 Q 646 614 640 611 Q 636 607 638 596 Q 642 586 666 570 Z"/>
  <path id="z29074d9" d="M 207 405 Q 197 427 185 436 Q 166 451 164 424 Q 170 381 113 321 Q 92 296 121 242 Q 140 218 155 244 Q 171 268 183 304 Q 198 347 208 373 Q 209 377 210 380 C 213 392 213 392 207 405 Z"/>
  <path id="z29074d10" d="M 210 380 Q 238 362 289 375 Q 427 418 682 444 Q 739 451 757 448 Q 775 444 772 433 Q 772 430 738 362 Q 728 349 735 344 Q 744 340 761 351 Q 816 385 862 394 Q 899 401 898 412 Q 897 422 826 478 Q 802 499 713 483 Q 620 471 339 425 Q 278 413 215 407 Q 211 407 207 405 C 177 401 182 391 210 380 Z"/>
  <path id="z29074d11" d="M 280 258 Q 296 236 316 210 Q 326 195 343 194 Q 353 193 361 205 Q 368 218 363 250 Q 360 268 336 283 Q 276 314 260 311 Q 254 308 254 295 Q 255 283 280 258 Z"/>
  <path id="z29074d12" d="M 592 325 Q 577 306 528 256 Q 518 243 532 244 Q 569 257 591 267 Q 657 297 663 299 Q 682 305 676 322 Q 666 338 645 353 Q 626 368 615 367 Q 605 367 606 355 Q 607 339 592 325 Z"/>
  <path id="z29074d13" d="M 475 247 Q 493 337 498 346 Q 505 353 499 364 Q 493 371 463 383 Q 429 399 414 394 Q 401 388 412 371 Q 448 265 378 133 Q 371 123 365 113 Q 320 47 173 -22 Q 148 -35 177 -35 Q 265 -38 364 35 Q 379 50 394 67 Q 440 118 466 213 L 475 247 Z"/>
  <path id="z29074d14" d="M 466 213 Q 559 101 660 -1 Q 687 -29 731 -30 Q 813 -36 897 -20 Q 919 -19 921 -12 Q 924 -5 906 3 Q 713 76 707 79 Q 619 125 475 247 C 452 266 447 236 466 213 Z"/>
<defs>
  <clipPath id="z29074c1"><use href="#z29074d1"/></clipPath>
  <clipPath id="z29074c2"><use href="#z29074d2"/></clipPath>
  <clipPath id="z29074c3"><use href="#z29074d3"/></clipPath>
  <clipPath id="z29074c4"><use href="#z29074d4"/></clipPath>
  <clipPath id="z29074c5"><use href="#z29074d5"/></clipPath>
  <clipPath id="z29074c6"><use href="#z29074d6"/></clipPath>
  <clipPath id="z29074c7"><use href="#z29074d7"/></clipPath>
  <clipPath id="z29074c8"><use href="#z29074d8"/></clipPath>
  <clipPath id="z29074c9"><use href="#z29074d9"/></clipPath>
  <clipPath id="z29074c10"><use href="#z29074d10"/></clipPath>
  <clipPath id="z29074c11"><use href="#z29074d11"/></clipPath>
  <clipPath id="z29074c12"><use href="#z29074d12"/></clipPath>
  <clipPath id="z29074c13"><use href="#z29074d13"/></clipPath>
  <clipPath id="z29074c14"><use href="#z29074d14"/></clipPath>
</defs>
<path style="--d:1s;" pathLength="3333" clip-path="url(#z29074c1)" d="M 231 666 L 279 612 L 284 583"/>
<path style="--d:2s;" pathLength="3333" clip-path="url(#z29074c2)" d="M 498 701 L 468 712 L 397 654"/>
<path style="--d:3s;" pathLength="3333" clip-path="url(#z29074c3)" d="M 335 784 L 371 758 L 370 642 L 362 599 L 348 558 L 312 498 L 281 462 L 239 433"/>
<path style="--d:4s;" pathLength="3333" clip-path="url(#z29074c4)" d="M 382 573 L 395 559 L 437 535 L 449 515"/>
<path style="--d:5s;" pathLength="3333" clip-path="url(#z29074c5)" d="M 487 656 L 532 605"/>
<path style="--d:6s;" pathLength="3333" clip-path="url(#z29074c6)" d="M 729 767 L 737 730 L 657 679 L 646 680 L 638 669"/>
<path style="--d:7s;" pathLength="3333" clip-path="url(#z29074c7)" d="M 568 825 L 589 816 L 620 780 L 608 660 L 583 576 L 560 533 L 518 484 L 485 467"/>
<path style="--d:8s;" pathLength="3333" clip-path="url(#z29074c8)" d="M 646 603 L 716 569 L 750 530"/>
<path style="--d:9s;" pathLength="3333" clip-path="url(#z29074c9)" d="M 175 429 L 183 414 L 185 383 L 141 297 L 138 249"/>
<path style="--d:10s;" pathLength="3333" clip-path="url(#z29074c10)" d="M 213 399 L 226 391 L 259 390 L 419 424 L 639 457 L 746 469 L 790 462 L 817 428 L 741 350"/>
<path style="--d:11s;" pathLength="3333" clip-path="url(#z29074c11)" d="M 263 304 L 324 253 L 343 214"/>
<path style="--d:12s;" pathLength="3333" clip-path="url(#z29074c12)" d="M 618 356 L 627 340 L 629 319 L 554 263 L 540 259 L 539 253"/>
<path style="--d:13s;" pathLength="3333" clip-path="url(#z29074c13)" d="M 420 382 L 457 344 L 456 307 L 439 212 L 399 117 L 351 58 L 301 21 L 235 -11 L 184 -26"/>
<path style="--d:14s;" pathLength="3333" clip-path="url(#z29074c14)" d="M 482 239 L 488 215 L 538 164 L 698 30 L 769 10 L 914 -10"/>
</svg>