<svg id="z21676" class="acjk" viewBox="0 0 1024 1024" xmlns="http://www.w3.org/2000/svg">
  <path id="z21676d1" d="M 110 536 Q 98 540 77 546 Q 65 550 61 545 Q 54 539 62 523 Q 90 447 101 326 Q 102 290 121 264 Q 137 242 143 257 Q 153 279 148 321 L 144 356 Q 131 476 129 506 C 127 531 127 531 110 536 Z"/>
  <path id="z21676d2" d="M 293 385 Q 312 484 341 516 Q 365 544 339 559 Q 318 571 288 589 Q 267 599 222 572 Q 168 548 110 536 C 81 530 100 498 129 506 Q 138 509 227 532 Q 251 538 257 528 Q 267 521 257 475 Q 250 432 238 381 C 231 352 287 356 293 385 Z"/>
  <path id="z21676d3" d="M 148 321 Q 182 333 313 349 Q 323 350 325 360 Q 325 367 293 385 C 281 392 267 388 238 381 Q 186 368 144 356 C 115 348 119 312 148 321 Z"/>
  <path id="z21676d4" d="M 551 768 Q 612 705 651 691 Q 667 688 678 704 Q 685 720 681 739 Q 666 790 565 813 Q 564 814 563 814 Q 544 818 533 813 Q 526 812 530 797 Q 531 784 551 768 Z"/>
  <path id="z21676d5" d="M 420 595 Q 389 591 413 572 Q 452 545 481 554 Q 637 591 805 618 Q 815 617 825 631 Q 826 644 801 654 Q 762 675 686 649 Q 571 622 420 595 Z"/>
  <path id="z21676d6" d="M 457 512 Q 458 437 373 360 Q 352 342 342 331 Q 333 318 347 321 Q 392 321 469 403 Q 479 422 524 469 Q 534 479 523 494 Q 490 527 466 527 Q 456 526 457 512 Z"/>
  <path id="z21676d7" d="M 682 487 Q 733 456 786 418 Q 801 408 815 409 Q 825 410 829 424 Q 832 439 820 466 Q 810 494 766 511 Q 667 541 652 531 Q 648 527 650 515 Q 654 505 682 487 Z"/>
  <path id="z21676d8" d="M 631 192 Q 665 247 687 311 Q 700 356 713 369 Q 723 381 714 391 Q 704 407 677 416 Q 656 426 637 423 Q 624 419 630 404 Q 660 347 592 229 L 567 194 Q 531 149 481 117 Q 418 77 288 41 Q 270 32 291 29 Q 493 11 603 150 L 631 192 Z"/>
  <path id="z21676d9" d="M 603 150 Q 657 87 751 6 Q 782 -19 830 -11 Q 891 -1 937 5 Q 952 8 965 13 Q 974 22 960 30 Q 944 39 813 77 Q 731 101 631 192 L 592 229 Q 558 266 520 308 Q 498 333 462 340 Q 449 341 437 334 Q 431 325 442 317 Q 490 284 543 223 Q 553 210 567 194 L 603 150 Z"/>
<defs>
  <clipPath id="z21676c1"><use href="#z21676d1"/></clipPath>
  <clipPath id="z21676c2"><use href="#z21676d2"/></clipPath>
  <clipPath id="z21676c3"><use href="#z21676d3"/></clipPath>
  <clipPath id="z21676c4"><use href="#z21676d4"/></clipPath>
  <clipPath id="z21676c5"><use href="#z21676d5"/></clipPath>
  <clipPath id="z21676c6"><use href="#z21676d6"/></clipPath>
  <clipPath id="z21676c7"><use href="#z21676d7"/></clipPath>
  <clipPath id="z21676c8"><use href="#z21676d8"/></clipPath>
  <clipPath id="z21676c9"><use href="#z21676d9"/></clipPath>
</defs>
<path style="--d:1s;" pathLength="3333" clip-path="url(#z21676c1)" d="M 68 537 L 89 518 L 101 497 L 133 263"/>
<path style="--d:2s;" pathLength="3333" clip-path="url(#z21676c2)" d="M 118 534 L 142 526 L 257 560 L 278 556 L 301 533 L 271 408 L 244 388"/>
<path style="--d:3s;" pathLength="3333" clip-path="url(#z21676c3)" d="M 150 327 L 167 345 L 246 362 L 287 366 L 317 359"/>
<path style="--d:4s;" pathLength="3333" clip-path="url(#z21676c4)" d="M 538 804 L 614 759 L 644 735 L 656 716"/>
<path style="--d:5s;" pathLength="3333" clip-path="url(#z21676c5)" d="M 415 584 L 464 577 L 719 632 L 770 638 L 813 632"/>
<path style="--d:6s;" pathLength="3333" clip-path="url(#z21676c6)" d="M 468 516 L 488 480 L 452 418 L 397 359 L 351 329"/>
<path style="--d:7s;" pathLength="3333" clip-path="url(#z21676c7)" d="M 657 525 L 761 477 L 788 457 L 812 426"/>
<path style="--d:8s;" pathLength="3333" clip-path="url(#z21676c8)" d="M 640 411 L 675 378 L 664 329 L 626 235 L 556 139 L 511 102 L 447 69 L 372 46 L 300 38"/>
<path style="--d:9s;" pathLength="3333" clip-path="url(#z21676c9)" d="M 446 328 L 475 317 L 501 298 L 645 143 L 772 45 L 799 33 L 959 20"/>
</svg>