<svg id="z25273" class="acjk" viewBox="0 0 1024 1024" xmlns="http://www.w3.org/2000/svg">
  <path id="z25273d1" d="M 304 537 Q 326 544 352 550 Q 386 560 392 565 Q 401 572 396 581 Q 389 591 360 598 Q 332 602 305 590 L 259 573 Q 169 549 115 540 Q 81 533 106 518 Q 148 500 212 515 Q 234 521 259 526 L 304 537 Z"/>
  <path id="z25273d2" d="M 255 323 Q 254 241 253 141 Q 252 117 240 109 Q 234 106 182 124 Q 154 139 154 129 Q 155 122 172 107 Q 223 55 234 26 Q 247 -5 261 -9 Q 274 -10 290 21 Q 309 63 311 131 Q 304 246 302 360 L 302 393 Q 301 466 304 537 L 305 590 Q 314 722 323 749 Q 339 777 288 797 Q 257 813 239 808 Q 223 802 238 781 Q 257 756 259 725 Q 260 709 259 573 L 259 526 Q 258 459 256 366 L 255 323 Z"/>
  <path id="z25273d3" d="M 302 360 Q 324 378 347 393 Q 366 406 377 420 Q 383 433 372 432 Q 362 431 340 415 Q 321 405 302 393 L 256 366 Q 175 320 104 273 Q 70 254 49 247 Q 36 241 35 234 Q 34 225 48 212 Q 67 197 89 190 Q 104 186 114 198 Q 174 259 255 323 L 302 360 Z"/>
  <path id="z25273d4" d="M 634 568 Q 814 604 818 607 Q 827 614 823 624 Q 816 636 786 645 Q 755 652 724 641 Q 679 628 633 614 L 593 606 Q 526 596 451 589 Q 414 585 440 566 Q 479 539 539 552 Q 566 556 594 561 L 634 568 Z"/>
  <path id="z25273d5" d="M 634 415 Q 680 425 734 432 Q 776 439 782 445 Q 791 452 786 460 Q 780 472 752 480 Q 731 486 634 461 L 593 452 Q 536 442 475 439 Q 439 435 464 418 Q 500 391 560 404 Q 564 405 572 405 L 634 415 Z"/>
  <path id="z25273d6" d="M 634 404 Q 634 410 634 415 L 634 461 Q 634 512 634 568 L 633 614 Q 634 705 651 767 Q 658 782 656 795 Q 649 804 595 837 Q 571 853 551 837 Q 547 833 553 817 Q 587 768 590 715 Q 591 664 593 606 L 594 561 Q 594 488 593 452 L 592 335 Q 592 178 568 84 Q 558 44 584 -15 Q 591 -31 599 -35 Q 605 -42 612 -34 Q 639 -12 637 46 Q 636 86 634 362 L 634 404 Z"/>
  <path id="z25273d7" d="M 572 405 Q 517 273 350 123 Q 340 110 348 109 Q 357 105 369 111 Q 480 160 584 322 Q 588 329 592 335 C 646 422 584 433 572 405 Z"/>
  <path id="z25273d8" d="M 634 362 Q 701 259 789 150 Q 805 129 836 130 Q 936 130 969 134 Q 979 135 980 141 Q 981 145 967 153 Q 823 216 761 273 Q 701 331 634 404 C 614 426 618 387 634 362 Z"/>
<defs>
  <clipPath id="z25273c1"><use href="#z25273d1"/></clipPath>
  <clipPath id="z25273c2"><use href="#z25273d2"/></clipPath>
  <clipPath id="z25273c3"><use href="#z25273d3"/></clipPath>
  <clipPath id="z25273c4"><use href="#z25273d4"/></clipPath>
  <clipPath id="z25273c5"><use href="#z25273d5"/></clipPath>
  <clipPath id="z25273c6"><use href="#z25273d6"/></clipPath>
  <clipPath id="z25273c7"><use href="#z25273d7"/></clipPath>
  <clipPath id="z25273c8"><use href="#z25273d8"/></clipPath>
</defs>
<path style="--d:1s;" pathLength="3333" clip-path="url(#z25273c1)" d="M 108 530 L 141 526 L 183 531 L 331 572 L 386 575"/>
<path style="--d:2s;" pathLength="3333" clip-path="url(#z25273c2)" d="M 245 794 L 285 764 L 289 746 L 279 466 L 281 123 L 260 70 L 220 87 L 171 119 L 170 125 L 160 126"/>
<path style="--d:3s;" pathLength="3333" clip-path="url(#z25273c3)" d="M 46 232 L 92 227 L 370 424"/>
<path style="--d:4s;" pathLength="3333" clip-path="url(#z25273c4)" d="M 443 579 L 499 570 L 644 591 L 763 622 L 813 617"/>
<path style="--d:5s;" pathLength="3333" clip-path="url(#z25273c5)" d="M 466 430 L 487 423 L 534 421 L 733 457 L 773 455"/>
<path style="--d:6s;" pathLength="3333" clip-path="url(#z25273c6)" d="M 563 831 L 605 792 L 616 769 L 615 297 L 601 72 L 604 -21"/>
<path style="--d:7s;" pathLength="3333" clip-path="url(#z25273c7)" d="M 589 401 L 580 394 L 559 326 L 506 252 L 432 173 L 354 115"/>
<path style="--d:8s;" pathLength="3333" clip-path="url(#z25273c8)" d="M 639 397 L 647 369 L 677 330 L 757 237 L 816 182 L 831 172 L 973 140"/>
</svg>