<svg id="z24101" class="acjk" viewBox="0 0 1024 1024" xmlns="http://www.w3.org/2000/svg">
  <path id="z24101d1" d="M 236 580 Q 278 629 302 662 Q 351 735 374 754 Q 392 770 376 784 Q 357 797 328 803 Q 301 809 289 803 Q 277 797 285 786 Q 300 755 218 583 Q 217 583 217 582 C 203 556 217 557 236 580 Z"/>
  <path id="z24101d2" d="M 222 320 Q 222 375 224 416 L 225 444 Q 225 543 229 548 C 232 570 232 570 217 582 Q 202 597 180 604 Q 170 608 158 605 Q 151 599 157 587 Q 176 517 178 494 Q 190 290 159 168 Q 144 113 181 66 Q 191 53 203 65 Q 213 80 219 144 L 220 176 Q 220 260 221 292 L 222 320 Z"/>
  <path id="z24101d3" d="M 407 478 Q 431 548 459 565 Q 474 581 460 597 Q 394 651 344 618 Q 314 606 236 580 C 208 570 180 538 229 548 Q 239 549 253 555 Q 307 568 358 583 Q 371 587 377 582 Q 384 575 382 558 Q 372 515 361 481 C 352 452 397 450 407 478 Z"/>
  <path id="z24101d4" d="M 224 416 Q 240 412 256 415 Q 308 430 422 445 Q 432 446 433 456 Q 433 463 407 478 L 361 481 Q 357 481 355 480 Q 283 456 225 444 C 196 438 195 422 224 416 Z"/>
  <path id="z24101d5" d="M 406 204 Q 430 271 458 296 Q 474 314 459 330 Q 387 384 335 353 Q 263 329 222 320 C 193 313 191 289 221 292 Q 230 291 354 316 Q 364 317 370 314 Q 377 307 376 291 Q 367 245 357 207 C 350 178 396 176 406 204 Z"/>
  <path id="z24101d6" d="M 219 144 Q 229 141 243 145 Q 298 158 420 169 Q 430 170 432 179 Q 432 188 406 204 C 391 213 387 212 357 207 L 355 207 Q 280 188 220 176 C 191 170 189 149 219 144 Z"/>
  <path id="z24101d7" d="M 546 529 Q 528 547 497 544 Q 484 540 490 529 Q 526 457 496 346 Q 472 304 506 258 L 508 256 Q 515 243 524 249 Q 552 270 553 349 Q 554 466 557 495 C 559 518 559 518 546 529 Z"/>
  <path id="z24101d8" d="M 704 523 Q 806 544 819 531 Q 835 518 833 472 Q 830 427 828 371 Q 828 331 814 315 Q 808 303 784 309 Q 765 312 744 315 Q 728 319 723 313 Q 719 309 734 298 Q 786 258 816 223 Q 832 208 852 216 Q 865 222 875 252 Q 897 298 894 357 Q 885 484 897 527 Q 904 543 898 552 Q 876 567 841 581 Q 822 588 807 582 Q 773 566 705 554 L 648 542 Q 602 535 546 529 C 516 526 527 492 557 495 Q 564 495 573 496 Q 613 505 648 511 L 704 523 Z"/>
  <path id="z24101d9" d="M 648 511 Q 648 235 643 148 Q 640 -42 660 -72 Q 675 -88 684 -66 Q 703 -21 702 332 Q 702 441 704 523 L 705 554 Q 706 647 711 702 Q 712 736 731 766 Q 738 782 717 799 Q 692 818 647 831 Q 626 835 613 821 Q 603 814 616 800 Q 647 775 649 738 Q 649 665 648 542 L 648 511 Z"/>
<defs>
  <clipPath id="z24101c1"><use href="#z24101d1"/></clipPath>
  <clipPath id="z24101c2"><use href="#z24101d2"/></clipPath>
  <clipPath id="z24101c3"><use href="#z24101d3"/></clipPath>
  <clipPath id="z24101c4"><use href="#z24101d4"/></clipPath>
  <clipPath id="z24101c5"><use href="#z24101d5"/></clipPath>
  <clipPath id="z24101c6"><use href="#z24101d6"/></clipPath>
  <clipPath id="z24101c7"><use href="#z24101d7"/></clipPath>
  <clipPath id="z24101c8"><use href="#z24101d8"/></clipPath>
  <clipPath id="z24101c9"><use href="#z24101d9"/></clipPath>
</defs>
<path style="--d:1s;" pathLength="3333" clip-path="url(#z24101c1)" d="M 292 793 L 305 787 L 327 762 L 253 621 L 233 593 L 225 594"/>
<path style="--d:2s;" pathLength="3333" clip-path="url(#z24101c2)" d="M 165 597 L 196 555 L 202 502 L 200 288 L 186 132 L 192 72"/>
<path style="--d:3s;" pathLength="3333" clip-path="url(#z24101c3)" d="M 221 577 L 242 566 L 370 607 L 398 601 L 419 580 L 391 502 L 369 486"/>
<path style="--d:4s;" pathLength="3333" clip-path="url(#z24101c4)" d="M 231 423 L 362 459 L 398 461 L 423 455"/>
<path style="--d:5s;" pathLength="3333" clip-path="url(#z24101c5)" d="M 223 299 L 236 308 L 361 340 L 393 333 L 415 308 L 389 230 L 363 212"/>
<path style="--d:6s;" pathLength="3333" clip-path="url(#z24101c6)" d="M 225 149 L 244 163 L 356 185 L 399 186 L 422 179"/>
<path style="--d:7s;" pathLength="3333" clip-path="url(#z24101c7)" d="M 497 535 L 524 514 L 531 486 L 530 382 L 518 310 L 518 258"/>
<path style="--d:8s;" pathLength="3333" clip-path="url(#z24101c8)" d="M 554 525 L 577 514 L 811 559 L 830 556 L 852 542 L 862 519 L 861 348 L 844 286 L 833 272 L 816 274 L 729 311"/>
<path style="--d:9s;" pathLength="3333" clip-path="url(#z24101c9)" d="M 621 811 L 648 805 L 685 770 L 676 587 L 671 -66"/>
</svg>