<svg id="z23733" class="acjk" viewBox="0 0 1024 1024" xmlns="http://www.w3.org/2000/svg">
  <path id="z23733d1" d="M 270 304 Q 286 625 301 687 Q 301 706 284 719 Q 247 738 220 743 Q 202 746 194 737 Q 187 728 195 713 Q 220 676 221 652 Q 231 484 226 290 C 225 260 268 274 270 304 Z"/>
  <path id="z23733d2" d="M 356 328 Q 310 318 270 304 L 226 290 Q 186 277 152 262 Q 136 258 139 276 Q 143 328 147 384 Q 151 409 140 422 Q 124 440 99 452 Q 87 458 77 455 Q 67 451 75 431 Q 102 374 95 316 Q 91 261 68 236 Q 52 217 60 203 Q 73 188 91 179 Q 106 172 115 182 Q 146 228 313 278 Q 340 285 349 284 C 379 287 385 335 356 328 Z"/>
  <path id="z23733d3" d="M 349 284 Q 349 266 367 238 Q 376 228 386 238 Q 408 265 409 307 Q 413 403 426 440 Q 433 462 414 475 Q 375 503 360 497 Q 351 491 354 476 Q 373 431 356 328 L 349 284 Z"/>
  <path id="z23733d4" d="M 680 504 Q 756 516 930 517 Q 951 518 956 527 Q 962 539 944 553 Q 881 598 833 579 Q 775 566 685 549 L 631 541 Q 552 529 461 515 Q 439 512 455 495 Q 486 467 527 476 Q 575 489 629 497 L 680 504 Z"/>
  <path id="z23733d5" d="M 658 308 L 658 309 Q 670 409 680 504 L 685 549 Q 694 666 720 759 Q 724 771 703 788 Q 666 810 639 817 Q 621 821 612 813 Q 603 804 611 788 Q 636 745 636 718 Q 636 633 631 541 L 629 497 Q 622 403 613 300 C 610 270 655 278 658 308 Z"/>
  <path id="z23733d6" d="M 528 289 Q 518 293 497 297 Q 484 301 481 295 Q 474 289 483 273 Q 513 204 527 92 Q 530 59 548 36 Q 566 14 571 29 Q 578 47 575 79 L 570 120 Q 554 220 550 254 C 546 283 546 283 528 289 Z"/>
  <path id="z23733d7" d="M 820 144 Q 842 232 878 259 Q 896 280 880 299 Q 802 357 740 331 Q 697 319 658 308 L 613 300 Q 570 294 528 289 C 498 285 521 248 550 254 Q 559 255 569 258 Q 657 271 742 286 Q 764 290 773 282 Q 788 267 766 154 C 760 125 812 115 820 144 Z"/>
  <path id="z23733d8" d="M 575 79 Q 585 78 597 80 Q 672 95 832 104 Q 845 105 847 115 Q 847 124 820 144 L 766 154 Q 760 155 755 153 Q 652 131 570 120 C 540 116 545 80 575 79 Z"/>
<defs>
  <clipPath id="z23733c1"><use href="#z23733d1"/></clipPath>
  <clipPath id="z23733c2"><use href="#z23733d2"/></clipPath>
  <clipPath id="z23733c3"><use href="#z23733d3"/></clipPath>
  <clipPath id="z23733c4"><use href="#z23733d4"/></clipPath>
  <clipPath id="z23733c5"><use href="#z23733d5"/></clipPath>
  <clipPath id="z23733c6"><use href="#z23733d6"/></clipPath>
  <clipPath id="z23733c7"><use href="#z23733d7"/></clipPath>
  <clipPath id="z23733c8"><use href="#z23733d8"/></clipPath>
</defs>
<path style="--d:1s;" pathLength="3333" clip-path="url(#z23733c1)" d="M 206 727 L 257 685 L 258 670 L 250 322 L 231 298"/>
<path style="--d:2s;" pathLength="3333" clip-path="url(#z23733c2)" d="M 83 445 L 104 423 L 119 394 L 114 235 L 149 238 L 224 270 L 332 302 L 349 322"/>
<path style="--d:3s;" pathLength="3333" clip-path="url(#z23733c3)" d="M 366 487 L 394 445 L 377 245"/>
<path style="--d:4s;" pathLength="3333" clip-path="url(#z23733c4)" d="M 458 505 L 516 498 L 612 517 L 856 550 L 894 547 L 944 533"/>
<path style="--d:5s;" pathLength="3333" clip-path="url(#z23733c5)" d="M 624 801 L 674 755 L 674 734 L 638 327 L 619 307"/>
<path style="--d:6s;" pathLength="3333" clip-path="url(#z23733c6)" d="M 490 287 L 512 268 L 523 246 L 560 35"/>
<path style="--d:7s;" pathLength="3333" clip-path="url(#z23733c7)" d="M 536 286 L 560 274 L 766 313 L 799 304 L 826 276 L 800 178 L 775 165"/>
<path style="--d:8s;" pathLength="3333" clip-path="url(#z23733c8)" d="M 580 87 L 594 102 L 752 126 L 809 125 L 838 115"/>
</svg>