<svg id="z25790" class="acjk" viewBox="0 0 1024 1024" xmlns="http://www.w3.org/2000/svg">
  <path id="z25790d1" d="M 281 522 Q 294 528 310 532 Q 335 541 338 545 Q 345 554 340 561 Q 333 571 303 575 Q 291 576 283 574 L 234 556 Q 176 529 112 517 Q 78 507 105 494 Q 147 476 200 496 Q 216 502 234 507 L 281 522 Z"/>
  <path id="z25790d2" d="M 231 348 Q 230 254 229 132 Q 228 110 216 101 Q 210 98 147 114 Q 117 127 119 117 Q 120 110 138 95 Q 196 43 210 15 Q 226 -18 242 -20 Q 255 -21 270 12 Q 289 55 288 127 Q 281 260 279 393 L 279 419 Q 279 471 281 522 L 283 574 Q 283 668 301 727 Q 317 755 264 777 Q 233 795 213 788 Q 197 782 212 760 Q 231 735 234 702 Q 235 686 234 556 L 234 507 Q 233 455 232 386 L 231 348 Z"/>
  <path id="z25790d3" d="M 279 393 Q 307 423 310 425 Q 314 437 305 435 Q 295 434 279 419 L 232 386 Q 54 266 52 260 Q 52 253 65 242 Q 83 230 103 225 Q 115 225 142 254 Q 187 308 231 348 L 279 393 Z"/>
  <path id="z25790d4" d="M 596 652 Q 580 665 559 671 Q 547 675 541 670 Q 534 664 540 653 Q 556 625 564 593 Q 570 562 585 433 C 588 403 618 410 616 440 Q 604 587 608 624 C 609 642 609 642 596 652 Z"/>
  <path id="z25790d5" d="M 789 468 Q 801 600 838 644 Q 851 662 836 677 Q 820 687 771 704 Q 756 710 694 681 Q 640 663 596 652 C 567 645 579 618 608 624 Q 618 625 633 631 Q 742 658 749 654 Q 764 642 760 591 L 757 561 Q 751 509 743 461 C 738 431 786 438 789 468 Z"/>
  <path id="z25790d6" d="M 686 453 Q 687 529 692 548 C 696 567 696 567 690 573 L 688 575 Q 675 587 659 594 Q 650 598 644 594 Q 640 591 643 581 Q 655 557 660 449 C 661 419 686 423 686 453 Z"/>
  <path id="z25790d7" d="M 692 548 Q 698 547 707 551 Q 723 555 757 561 C 787 566 790 587 760 591 Q 750 594 690 573 C 662 563 662 550 692 548 Z"/>
  <path id="z25790d8" d="M 537 424 Q 513 436 493 434 Q 483 430 488 421 Q 519 372 501 273 Q 483 237 518 201 Q 525 191 532 196 Q 550 212 551 291 Q 548 372 548 394 C 548 419 548 419 537 424 Z"/>
  <path id="z25790d9" d="M 548 394 Q 554 395 560 397 Q 665 436 815 447 Q 830 446 836 437 Q 840 431 837 421 Q 833 244 819 219 Q 816 213 807 215 Q 788 218 768 222 Q 746 225 761 210 Q 807 170 826 141 Q 836 128 848 138 Q 878 168 880 308 Q 880 398 895 421 Q 905 437 901 442 Q 895 452 858 475 Q 845 485 833 481 Q 817 474 789 468 L 743 461 Q 712 457 686 453 L 660 449 Q 635 446 616 440 L 585 433 Q 558 429 537 424 C 508 418 519 385 548 394 Z"/>
  <path id="z25790d10" d="M 629 356 L 627 358 Q 620 362 595 367 Q 586 370 584 366 Q 580 362 585 351 Q 601 317 613 260 Q 614 244 625 232 Q 637 217 641 228 Q 642 234 643 242 L 641 267 Q 634 316 632 335 C 630 355 630 355 629 356 Z"/>
  <path id="z25790d11" d="M 752 285 Q 764 325 778 338 Q 794 357 778 367 Q 765 376 744 389 Q 732 395 693 376 Q 642 361 629 356 C 601 346 602 330 632 335 Q 639 336 647 338 Q 677 345 701 351 Q 717 355 722 348 Q 723 347 712 284 C 707 254 743 256 752 285 Z"/>
  <path id="z25790d12" d="M 643 242 Q 652 241 662 242 Q 695 249 767 256 Q 774 257 776 264 Q 776 270 752 285 C 742 291 741 291 712 284 Q 672 274 641 267 C 612 260 613 244 643 242 Z"/>
  <path id="z25790d13" d="M 390 601 Q 411 582 432 557 Q 444 545 458 545 Q 468 545 473 557 Q 477 570 471 597 Q 467 613 442 627 Q 384 651 368 647 Q 364 643 364 632 Q 367 622 390 601 Z"/>
  <path id="z25790d14" d="M 433 178 Q 443 188 448 202 Q 454 233 420 275 Q 392 317 454 386 Q 470 401 455 412 Q 439 424 413 434 Q 395 443 383 430 Q 367 415 344 404 Q 314 389 304 389 Q 298 390 297 386 Q 296 382 303 379 Q 328 369 377 388 Q 384 391 390 383 Q 406 368 393 344 Q 381 328 375 305 Q 372 289 385 272 Q 427 209 412 176 C 404 147 414 155 433 178 Z"/>
  <path id="z25790d15" d="M 412 176 Q 373 175 341 165 Q 323 161 312 160 Q 299 159 301 148 Q 305 138 343 120 Q 362 113 387 132 Q 390 139 402 146 Q 424 159 474 138 Q 580 93 653 49 Q 741 -5 787 -1 Q 859 8 970 64 Q 976 65 975 71 Q 974 75 959 77 Q 713 77 532 150 Q 460 184 433 178 L 412 176 Z"/>
<defs>
  <clipPath id="z25790c1"><use href="#z25790d1"/></clipPath>
  <clipPath id="z25790c2"><use href="#z25790d2"/></clipPath>
  <clipPath id="z25790c3"><use href="#z25790d3"/></clipPath>
  <clipPath id="z25790c4"><use href="#z25790d4"/></clipPath>
  <clipPath id="z25790c5"><use href="#z25790d5"/></clipPath>
  <clipPath id="z25790c6"><use href="#z25790d6"/></clipPath>
  <clipPath id="z25790c7"><use href="#z25790d7"/></clipPath>
  <clipPath id="z25790c8"><use href="#z25790d8"/></clipPath>
  <clipPath id="z25790c9"><use href="#z25790d9"/></clipPath>
  <clipPath id="z25790c10"><use href="#z25790d10"/></clipPath>
  <clipPath id="z25790c11"><use href="#z25790d11"/></clipPath>
  <clipPath id="z25790c12"><use href="#z25790d12"/></clipPath>
  <clipPath id="z25790c13"><use href="#z25790d13"/></clipPath>
  <clipPath id="z25790c14"><use href="#z25790d14"/></clipPath>
  <clipPath id="z25790c15"><use href="#z25790d15"/></clipPath>
</defs>
<path style="--d:1s;" pathLength="3333" clip-path="url(#z25790c1)" d="M 106 506 L 130 503 L 167 509 L 285 550 L 330 554"/>
<path style="--d:2s;" pathLength="3333" clip-path="url(#z25790c2)" d="M 220 774 L 245 758 L 265 731 L 257 592 L 258 118 L 252 88 L 236 59 L 207 69 L 137 107 L 135 114 L 125 115"/>
<path style="--d:3s;" pathLength="3333" clip-path="url(#z25790c3)" d="M 57 257 L 101 258 L 303 428"/>
<path style="--d:4s;" pathLength="3333" clip-path="url(#z25790c4)" d="M 548 662 L 569 644 L 582 620 L 600 454 L 590 445"/>
<path style="--d:5s;" pathLength="3333" clip-path="url(#z25790c5)" d="M 604 647 L 621 642 L 643 646 L 744 678 L 763 677 L 785 663 L 794 650 L 793 637 L 772 502 L 769 487 L 750 467"/>
<path style="--d:6s;" pathLength="3333" clip-path="url(#z25790c6)" d="M 652 587 L 670 563 L 672 548 L 674 467 L 665 461"/>
<path style="--d:7s;" pathLength="3333" clip-path="url(#z25790c7)" d="M 698 555 L 705 566 L 732 570 L 757 584"/>
<path style="--d:8s;" pathLength="3333" clip-path="url(#z25790c8)" d="M 500 424 L 520 408 L 525 390 L 529 322 L 522 243 L 527 205"/>
<path style="--d:9s;" pathLength="3333" clip-path="url(#z25790c9)" d="M 544 418 L 561 413 L 654 438 L 817 462 L 842 460 L 855 452 L 867 431 L 858 382 L 856 273 L 843 201 L 834 187 L 773 211"/>
<path style="--d:10s;" pathLength="3333" clip-path="url(#z25790c10)" d="M 590 359 L 610 343 L 633 232"/>
<path style="--d:11s;" pathLength="3333" clip-path="url(#z25790c11)" d="M 634 351 L 652 350 L 707 368 L 738 366 L 751 350 L 737 306 L 718 295"/>
<path style="--d:12s;" pathLength="3333" clip-path="url(#z25790c12)" d="M 648 249 L 664 258 L 708 267 L 746 270 L 768 264"/>
<path style="--d:13s;" pathLength="3333" clip-path="url(#z25790c13)" d="M 373 638 L 434 599 L 457 561"/>
<path style="--d:14s;" pathLength="3333" clip-path="url(#z25790c14)" d="M 302 384 L 333 386 L 373 404 L 401 409 L 420 396 L 419 372 L 393 299 L 431 219 L 427 188 L 417 180"/>
<path style="--d:15s;" pathLength="3333" clip-path="url(#z25790c15)" d="M 310 151 L 353 143 L 405 163 L 455 162 L 679 71 L 781 43 L 889 53 L 970 69"/>
</svg>