<svg id="z27676" class="acjk" viewBox="0 0 1024 1024" xmlns="http://www.w3.org/2000/svg">
  <path id="z27676d1" d="M 382 764 Q 416 819 416 823 Q 414 833 400 845 Q 367 874 334 864 Q 327 860 329 849 Q 349 797 263 674 Q 241 643 180 578 Q 174 572 184 570 Q 270 588 367 739 L 382 764 Z"/>
  <path id="z27676d2" d="M 367 739 Q 406 727 494 744 Q 660 780 665 785 Q 672 792 669 800 Q 662 809 636 817 Q 612 821 514 791 Q 410 768 382 764 C 352 759 338 746 367 739 Z"/>
  <path id="z27676d3" d="M 368 641 Q 339 636 359 622 Q 384 610 408 611 Q 439 612 572 643 Q 602 649 610 655 Q 613 659 613 662 Q 613 676 583 684 Q 570 687 525 674 Q 433 648 368 641 Z"/>
  <path id="z27676d4" d="M 221 508 Q 203 507 210 492 Q 220 476 249 465 Q 273 453 304 466 Q 386 494 626 543 Q 631 544 634 544 Q 651 544 647 523 Q 616 367 635 245 Q 653 127 708 65 Q 796 -44 917 -42 Q 960 -41 986 -25 Q 992 -24 994 -20 Q 998 -14 987 12 Q 957 88 943 141 Q 935 167 928 143 Q 913 43 904 32 Q 891 20 870 27 Q 843 35 818 47 Q 704 104 681 253 Q 666 358 698 474 Q 708 499 723 515 Q 728 520 749 537 Q 762 549 760 561 Q 758 572 696 602 Q 674 613 653 600 Q 502 521 221 508 Z"/>
  <path id="z27676d5" d="M 316 384 Q 312 388 308 390 Q 272 416 261 400 Q 259 394 265 384 Q 298 288 272 149 Q 257 108 263 88 Q 272 58 282 47 Q 298 27 314 71 L 319 101 Q 323 131 324 216 L 325 243 Q 327 335 331 357 C 333 371 333 371 316 384 Z"/>
  <path id="z27676d6" d="M 449 80 Q 474 45 492 15 Q 496 4 503 1 Q 517 -6 533 18 Q 557 53 555 105 Q 541 353 562 380 Q 568 390 561 401 Q 545 416 498 438 Q 482 445 468 438 Q 426 416 316 384 C 287 376 302 349 331 357 Q 473 396 482 395 Q 485 395 488 392 Q 506 374 496 178 Q 495 125 490 110 Q 486 91 468 101 C 438 102 434 102 449 80 Z"/>
  <path id="z27676d7" d="M 324 216 L 328 216 L 431 229 Q 454 233 446 245 Q 435 259 412 263 Q 370 269 325 243 C 299 228 294 216 324 216 Z"/>
  <path id="z27676d8" d="M 314 71 Q 319 71 325 72 Q 369 78 449 80 C 479 81 490 81 468 101 Q 461 108 453 112 Q 436 120 436 116 Q 427 121 414 120 L 319 101 C 290 95 284 70 314 71 Z"/>
<defs>
  <clipPath id="z27676c1"><use href="#z27676d1"/></clipPath>
  <clipPath id="z27676c2"><use href="#z27676d2"/></clipPath>
  <clipPath id="z27676c3"><use href="#z27676d3"/></clipPath>
  <clipPath id="z27676c4"><use href="#z27676d4"/></clipPath>
  <clipPath id="z27676c5"><use href="#z27676d5"/></clipPath>
  <clipPath id="z27676c6"><use href="#z27676d6"/></clipPath>
  <clipPath id="z27676c7"><use href="#z27676d7"/></clipPath>
  <clipPath id="z27676c8"><use href="#z27676d8"/></clipPath>
</defs>
<path style="--d:1s;" pathLength="3333" clip-path="url(#z27676c1)" d="M 343 853 L 371 820 L 346 760 L 296 679 L 265 641 L 188 577"/>
<path style="--d:2s;" pathLength="3333" clip-path="url(#z27676c2)" d="M 374 744 L 480 761 L 625 796 L 659 795"/>
<path style="--d:3s;" pathLength="3333" clip-path="url(#z27676c3)" d="M 362 632 L 410 629 L 571 664 L 602 663"/>
<path style="--d:4s;" pathLength="3333" clip-path="url(#z27676c4)" d="M 218 498 L 279 485 L 548 540 L 634 567 L 676 566 L 692 551 L 672 492 L 659 428 L 652 309 L 666 207 L 703 115 L 757 52 L 806 18 L 856 -3 L 910 -7 L 941 6 L 934 132"/>
<path style="--d:5s;" pathLength="3333" clip-path="url(#z27676c5)" d="M 269 397 L 289 379 L 303 349 L 306 254 L 290 104 L 292 52"/>
<path style="--d:6s;" pathLength="3333" clip-path="url(#z27676c6)" d="M 327 381 L 342 373 L 480 418 L 512 404 L 527 385 L 522 97 L 509 66 L 476 79 L 461 78"/>
<path style="--d:7s;" pathLength="3333" clip-path="url(#z27676c7)" d="M 326 223 L 340 234 L 367 241 L 415 245 L 436 240"/>
<path style="--d:8s;" pathLength="3333" clip-path="url(#z27676c8)" d="M 319 78 L 332 88 L 397 98 L 460 99"/>
</svg>