<svg id="z22890" class="acjk" viewBox="0 0 1024 1024" xmlns="http://www.w3.org/2000/svg">
  <path id="z22890d1" d="M 562 735 Q 616 738 744 739 Q 763 739 767 747 Q 771 757 757 771 Q 708 807 673 799 Q 597 783 451 761 L 393 753 Q 314 744 228 733 Q 209 730 222 715 Q 235 702 252 697 Q 271 693 287 696 Q 329 708 376 714 L 433 723 Q 482 732 529 733 L 562 735 Z"/>
  <path id="z22890d2" d="M 451 761 Q 451 762 452 762 Q 468 793 488 824 Q 497 833 491 844 Q 485 854 457 873 Q 436 886 427 885 Q 414 882 414 867 Q 415 812 393 753 L 376 714 Q 307 570 81 413 Q 74 406 79 403 Q 86 400 97 404 Q 176 432 244 483 Q 350 558 433 723 L 451 761 Z"/>
  <path id="z22890d3" d="M 529 733 Q 737 481 789 468 Q 837 461 953 485 Q 963 488 964 493 Q 964 499 949 505 Q 793 548 744 584 Q 660 645 562 735 C 540 755 510 756 529 733 Z"/>
  <path id="z22890d4" d="M 413 538 Q 429 557 443 564 Q 450 568 449 578 Q 448 587 433 605 Q 420 621 407 623 Q 394 624 397 609 Q 407 558 235 412 Q 231 411 228 407 Q 221 401 218 398 Q 214 391 224 391 Q 248 391 320 450 Q 320 451 321 452 L 343 469 Q 368 494 401 525 L 413 538 Z"/>
  <path id="z22890d5" d="M 321 452 Q 339 404 318 321 Q 306 284 335 253 L 336 252 Q 349 242 356 260 Q 360 273 363 286 L 365 305 Q 366 312 366 320 Q 369 396 372 414 Q 376 433 370 440 Q 358 455 349 464 Q 346 468 343 469 C 319 488 311 480 321 452 Z"/>
  <path id="z22890d6" d="M 466 639 Q 514 588 530 586 Q 540 585 544 598 Q 545 608 538 623 Q 531 636 511 643 Q 481 656 469 659 Q 462 660 462 652 Q 461 646 466 639 Z"/>
  <path id="z22890d7" d="M 519 523 Q 558 533 598 541 Q 626 548 631 552 Q 637 558 634 564 Q 630 571 609 577 Q 588 581 567 573 Q 534 561 499 552 Q 459 543 413 538 C 389 535 389 535 401 525 Q 422 504 476 516 Q 477 516 482 516 L 519 523 Z"/>
  <path id="z22890d8" d="M 533 455 Q 582 465 626 473 Q 644 477 637 486 Q 628 498 609 501 Q 576 504 534 486 L 488 473 Q 446 464 409 453 Q 396 450 412 439 Q 421 433 489 445 L 533 455 Z"/>
  <path id="z22890d9" d="M 529 383 Q 581 395 629 401 Q 647 404 641 414 Q 632 426 613 429 Q 592 432 530 414 L 489 404 Q 443 394 406 385 Q 393 382 408 371 Q 417 365 490 376 L 529 383 Z"/>
  <path id="z22890d10" d="M 526 336 Q 527 361 529 383 L 530 414 Q 531 436 533 455 C 536 485 531 478 534 486 Q 535 487 535 489 Q 541 504 533 512 Q 526 519 519 523 C 494 539 471 544 482 516 Q 488 504 488 473 L 489 445 Q 489 429 489 404 L 490 376 Q 490 355 490 329 C 490 299 525 306 526 336 Z"/>
  <path id="z22890d11" d="M 363 286 Q 384 270 410 278 Q 513 311 669 311 Q 684 312 688 319 Q 691 328 678 337 Q 630 367 586 351 Q 559 345 526 336 L 490 329 Q 430 319 365 305 C 341 300 341 300 363 286 Z"/>
  <path id="z22890d12" d="M 596 189 Q 614 189 841 190 Q 860 190 866 199 Q 873 211 855 225 Q 795 271 745 255 Q 682 245 599 231 L 538 223 Q 510 222 478 216 Q 318 198 129 179 Q 107 178 123 159 Q 138 144 156 138 Q 178 132 195 137 Q 369 182 539 186 L 596 189 Z"/>
  <path id="z22890d13" d="M 539 186 Q 548 21 533 -2 Q 520 -11 489 -3 Q 476 -2 460 -3 Q 447 -2 449 -8 Q 450 -15 462 -23 Q 516 -60 550 -90 Q 562 -97 574 -83 Q 608 -26 600 72 Q 594 147 596 189 L 599 231 Q 602 250 598 257 Q 589 270 553 289 Q 537 298 528 291 Q 518 284 530 263 Q 537 247 538 223 L 539 186 Z"/>
  <path id="z22890d14" d="M 351 99 Q 369 78 388 53 Q 398 40 413 38 Q 423 37 429 49 Q 435 62 430 90 Q 426 114 352 143 Q 339 149 332 147 Q 328 144 327 132 Q 328 122 351 99 Z"/>
<defs>
  <clipPath id="z22890c1"><use href="#z22890d1"/></clipPath>
  <clipPath id="z22890c2"><use href="#z22890d2"/></clipPath>
  <clipPath id="z22890c3"><use href="#z22890d3"/></clipPath>
  <clipPath id="z22890c4"><use href="#z22890d4"/></clipPath>
  <clipPath id="z22890c5"><use href="#z22890d5"/></clipPath>
  <clipPath id="z22890c6"><use href="#z22890d6"/></clipPath>
  <clipPath id="z22890c7"><use href="#z22890d7"/></clipPath>
  <clipPath id="z22890c8"><use href="#z22890d8"/></clipPath>
  <clipPath id="z22890c9"><use href="#z22890d9"/></clipPath>
  <clipPath id="z22890c10"><use href="#z22890d10"/></clipPath>
  <clipPath id="z22890c11"><use href="#z22890d11"/></clipPath>
  <clipPath id="z22890c12"><use href="#z22890d12"/></clipPath>
  <clipPath id="z22890c13"><use href="#z22890d13"/></clipPath>
  <clipPath id="z22890c14"><use href="#z22890d14"/></clipPath>
</defs>
<path style="--d:1s;" pathLength="3333" clip-path="url(#z22890c1)" d="M 226 724 L 279 717 L 500 751 L 683 769 L 722 765 L 757 752"/>
<path style="--d:2s;" pathLength="3333" clip-path="url(#z22890c2)" d="M 429 871 L 450 833 L 447 823 L 393 694 L 340 612 L 246 513 L 153 444 L 84 407"/>
<path style="--d:3s;" pathLength="3333" clip-path="url(#z22890c3)" d="M 546 724 L 560 720 L 563 710 L 572 707 L 714 567 L 793 512 L 837 502 L 956 492"/>
<path style="--d:4s;" pathLength="3333" clip-path="url(#z22890c4)" d="M 405 614 L 420 580 L 384 532 L 309 463 L 304 452 L 226 399"/>
<path style="--d:5s;" pathLength="3333" clip-path="url(#z22890c5)" d="M 341 460 L 351 424 L 339 300 L 344 260"/>
<path style="--d:6s;" pathLength="3333" clip-path="url(#z22890c6)" d="M 472 649 L 516 618 L 531 599"/>
<path style="--d:7s;" pathLength="3333" clip-path="url(#z22890c7)" d="M 408 524 L 464 528 L 579 557 L 624 560"/>
<path style="--d:8s;" pathLength="3333" clip-path="url(#z22890c8)" d="M 417 447 L 475 453 L 577 482 L 613 486 L 629 481"/>
<path style="--d:9s;" pathLength="3333" clip-path="url(#z22890c9)" d="M 413 379 L 477 385 L 601 414 L 632 410"/>
<path style="--d:10s;" pathLength="3333" clip-path="url(#z22890c10)" d="M 489 513 L 511 495 L 509 361 L 505 346 L 495 337"/>
<path style="--d:11s;" pathLength="3333" clip-path="url(#z22890c11)" d="M 375 299 L 379 293 L 399 293 L 611 333 L 679 323"/>
<path style="--d:12s;" pathLength="3333" clip-path="url(#z22890c12)" d="M 126 169 L 167 159 L 197 161 L 383 191 L 759 224 L 806 220 L 854 206"/>
<path style="--d:13s;" pathLength="3333" clip-path="url(#z22890c13)" d="M 537 281 L 569 241 L 572 43 L 564 -17 L 546 -38 L 456 -9"/>
<path style="--d:14s;" pathLength="3333" clip-path="url(#z22890c14)" d="M 336 137 L 402 83 L 414 54"/>
</svg>