<svg id="z22129" class="acjk" viewBox="0 0 1024 1024" xmlns="http://www.w3.org/2000/svg">
  <path id="z22129d1" d="M 106 601 Q 96 607 66 613 Q 54 617 51 612 Q 44 606 52 591 Q 80 518 93 403 Q 94 369 113 344 Q 129 322 135 337 Q 142 358 139 395 L 135 426 Q 116 552 116 579 C 115 597 115 597 106 601 Z"/>
  <path id="z22129d2" d="M 256 450 Q 268 553 293 584 Q 312 609 291 622 Q 272 631 246 646 Q 227 655 210 643 Q 192 630 168 621 Q 143 611 106 601 C 77 593 86 574 116 579 Q 117 579 200 595 Q 216 599 219 593 Q 228 587 209 452 C 205 422 252 420 256 450 Z"/>
  <path id="z22129d3" d="M 139 395 Q 146 395 157 398 Q 191 408 268 423 Q 278 424 278 433 Q 278 440 256 450 L 209 452 Q 205 452 204 451 Q 165 436 135 426 C 107 416 109 393 139 395 Z"/>
  <path id="z22129d4" d="M 579 679 Q 583 725 590 766 L 592 787 Q 592 793 601 818 Q 604 828 587 840 Q 557 856 536 859 Q 523 862 516 855 Q 509 848 517 836 Q 532 818 542 674 C 544 644 576 649 579 679 Z"/>
  <path id="z22129d5" d="M 590 766 Q 623 754 725 787 Q 740 791 742 793 Q 748 800 744 807 Q 737 816 713 819 Q 698 819 633 796 Q 614 792 592 787 C 563 780 561 774 590 766 Z"/>
  <path id="z22129d6" d="M 538 643 Q 637 662 732 676 Q 760 683 763 672 Q 762 662 739 622 Q 729 610 736 605 Q 740 601 755 610 Q 825 641 850 646 Q 871 647 872 658 Q 871 670 806 711 Q 787 721 761 717 Q 673 696 596 682 Q 587 681 579 679 L 542 674 Q 478 667 402 657 C 372 653 395 615 424 621 Q 502 636 513 638 L 538 643 Z"/>
  <path id="z22129d7" d="M 402 657 Q 360 682 344 677 Q 332 670 339 657 Q 354 630 355 576 Q 337 375 312 288 Q 306 273 301 256 Q 267 162 187 38 Q 183 32 180 26 Q 177 16 188 17 Q 221 23 299 145 Q 311 167 324 193 Q 381 317 409 540 Q 412 600 424 621 C 431 641 428 643 402 657 Z"/>
  <path id="z22129d8" d="M 557 543 Q 600 556 649 567 Q 680 576 684 580 Q 690 586 686 592 Q 682 599 661 604 Q 642 607 561 577 L 522 566 Q 489 559 456 554 Q 431 550 449 538 Q 480 523 518 534 Q 519 535 521 534 L 557 543 Z"/>
  <path id="z22129d9" d="M 561 577 Q 562 592 566 607 Q 570 620 561 628 Q 552 638 538 643 C 511 656 509 657 513 638 Q 513 635 515 628 Q 525 598 523 569 Q 522 568 522 566 L 521 534 Q 521 488 541 471 Q 596 435 703 462 Q 706 463 711 464 Q 738 471 763 488 Q 776 498 767 514 Q 760 526 746 563 Q 745 573 740 577 Q 736 580 733 568 Q 714 525 702 513 Q 693 506 671 499 Q 623 484 580 495 Q 565 501 562 509 Q 556 521 557 543 L 561 577 Z"/>
  <path id="z22129d10" d="M 532 360 Q 677 396 679 397 Q 686 404 682 411 Q 676 420 653 426 Q 637 429 556 404 Q 471 386 438 382 Q 410 378 430 364 Q 457 349 487 352 L 532 360 Z"/>
  <path id="z22129d11" d="M 517 319 Q 526 328 533 331 Q 540 335 539 344 Q 539 350 532 360 C 516 385 504 377 487 352 Q 457 307 396 257 Q 389 253 387 249 Q 383 243 391 243 Q 409 240 494 300 L 517 319 Z"/>
  <path id="z22129d12" d="M 626 251 Q 578 302 517 319 C 488 328 466 312 494 300 Q 506 296 517 289 L 564 259 Q 574 252 584 241 L 611 197 Q 629 148 606 63 Q 597 30 587 24 Q 577 20 511 30 Q 498 34 496 28 Q 495 21 506 9 Q 552 -36 569 -64 Q 582 -83 598 -79 Q 640 -55 660 51 Q 672 139 660 181 L 638 237 L 626 251 Z"/>
  <path id="z22129d13" d="M 517 289 Q 508 237 364 136 Q 348 127 367 128 Q 433 128 564 259 C 585 280 525 318 517 289 Z"/>
  <path id="z22129d14" d="M 584 241 Q 518 124 363 21 Q 353 11 360 9 Q 367 5 378 8 Q 481 42 578 155 Q 609 192 610 194 Q 611 195 611 197 C 627 223 599 267 584 241 Z"/>
  <path id="z22129d15" d="M 638 237 Q 719 291 759 310 Q 775 314 773 325 Q 767 340 750 358 Q 732 376 712 378 Q 697 378 698 360 Q 699 339 626 251 C 607 228 613 220 638 237 Z"/>
  <path id="z22129d16" d="M 660 181 Q 777 64 813 55 Q 861 48 959 72 Q 975 75 976 79 Q 977 85 964 89 Q 781 141 708 188 Q 660 221 638 237 C 614 255 639 202 660 181 Z"/>
<defs>
  <clipPath id="z22129c1"><use href="#z22129d1"/></clipPath>
  <clipPath id="z22129c2"><use href="#z22129d2"/></clipPath>
  <clipPath id="z22129c3"><use href="#z22129d3"/></clipPath>
  <clipPath id="z22129c4"><use href="#z22129d4"/></clipPath>
  <clipPath id="z22129c5"><use href="#z22129d5"/></clipPath>
  <clipPath id="z22129c6"><use href="#z22129d6"/></clipPath>
  <clipPath id="z22129c7"><use href="#z22129d7"/></clipPath>
  <clipPath id="z22129c8"><use href="#z22129d8"/></clipPath>
  <clipPath id="z22129c9"><use href="#z22129d9"/></clipPath>
  <clipPath id="z22129c10"><use href="#z22129d10"/></clipPath>
  <clipPath id="z22129c11"><use href="#z22129d11"/></clipPath>
  <clipPath id="z22129c12"><use href="#z22129d12"/></clipPath>
  <clipPath id="z22129c13"><use href="#z22129d13"/></clipPath>
  <clipPath id="z22129c14"><use href="#z22129d14"/></clipPath>
  <clipPath id="z22129c15"><use href="#z22129d15"/></clipPath>
  <clipPath id="z22129c16"><use href="#z22129d16"/></clipPath>
</defs>
<path style="--d:1s;" pathLength="3333" clip-path="url(#z22129c1)" d="M 59 604 L 88 574 L 125 343"/>
<path style="--d:2s;" pathLength="3333" clip-path="url(#z22129c2)" d="M 116 586 L 123 593 L 216 620 L 238 617 L 257 598 L 238 486 L 233 472 L 217 465"/>
<path style="--d:3s;" pathLength="3333" clip-path="url(#z22129c3)" d="M 142 403 L 157 416 L 210 432 L 269 432"/>
<path style="--d:4s;" pathLength="3333" clip-path="url(#z22129c4)" d="M 526 846 L 562 813 L 561 704 L 558 694 L 547 687"/>
<path style="--d:5s;" pathLength="3333" clip-path="url(#z22129c5)" d="M 596 771 L 696 798 L 735 801"/>
<path style="--d:6s;" pathLength="3333" clip-path="url(#z22129c6)" d="M 411 654 L 435 641 L 757 698 L 789 687 L 800 669 L 740 611"/>
<path style="--d:7s;" pathLength="3333" clip-path="url(#z22129c7)" d="M 349 665 L 380 635 L 386 617 L 371 461 L 341 304 L 320 241 L 276 145 L 231 75 L 189 26"/>
<path style="--d:8s;" pathLength="3333" clip-path="url(#z22129c8)" d="M 451 547 L 483 543 L 523 550 L 597 574 L 676 588"/>
<path style="--d:9s;" pathLength="3333" clip-path="url(#z22129c9)" d="M 520 634 L 542 616 L 544 604 L 540 512 L 552 488 L 575 476 L 610 470 L 655 473 L 721 495 L 736 507 L 735 555 L 741 569"/>
<path style="--d:10s;" pathLength="3333" clip-path="url(#z22129c10)" d="M 432 374 L 491 371 L 542 379 L 636 406 L 676 405"/>
<path style="--d:11s;" pathLength="3333" clip-path="url(#z22129c11)" d="M 526 350 L 442 278 L 394 249"/>
<path style="--d:12s;" pathLength="3333" clip-path="url(#z22129c12)" d="M 502 302 L 520 304 L 543 292 L 577 272 L 607 243 L 638 180 L 643 127 L 626 28 L 602 -12 L 584 -17 L 504 26"/>
<path style="--d:13s;" pathLength="3333" clip-path="url(#z22129c13)" d="M 522 284 L 528 255 L 510 233 L 429 165 L 388 141 L 375 141 L 371 134"/>
<path style="--d:14s;" pathLength="3333" clip-path="url(#z22129c14)" d="M 584 233 L 584 198 L 522 123 L 451 63 L 366 14"/>
<path style="--d:15s;" pathLength="3333" clip-path="url(#z22129c15)" d="M 711 364 L 726 332 L 642 255 L 643 248"/>
<path style="--d:16s;" pathLength="3333" clip-path="url(#z22129c16)" d="M 649 226 L 680 183 L 808 99 L 863 86 L 969 83"/>
</svg>