<svg id="z26696" class="acjk" viewBox="0 0 1024 1024" xmlns="http://www.w3.org/2000/svg">
  <path id="z26696d1" d="M 484 802 Q 506 786 532 765 Q 547 755 563 756 Q 573 757 577 772 Q 580 788 567 816 Q 560 832 532 841 Q 457 853 452 847 Q 448 843 450 830 Q 454 820 484 802 Z"/>
  <path id="z26696d2" d="M 321 705 Q 314 724 304 732 Q 288 747 284 723 Q 288 702 271 678 Q 255 663 235 648 Q 225 638 226 619 Q 229 591 235 575 Q 247 550 267 573 Q 282 592 294 620 Q 310 654 320 675 C 327 690 327 690 321 705 Z"/>
  <path id="z26696d3" d="M 320 675 Q 339 666 379 672 Q 484 705 666 721 Q 685 722 694 721 Q 710 714 709 708 Q 709 704 671 640 Q 664 630 669 624 Q 675 620 691 629 Q 743 660 787 668 Q 821 675 822 684 Q 821 693 758 746 Q 737 767 653 751 Q 623 750 404 716 Q 362 710 321 705 C 291 701 291 683 320 675 Z"/>
  <path id="z26696d4" d="M 463 562 Q 469 578 496 612 Q 505 618 503 626 Q 499 639 468 667 Q 459 677 449 674 Q 437 673 443 657 Q 449 630 414 556 L 395 520 Q 356 469 361 451 Q 364 441 380 439 Q 422 436 474 420 L 523 404 Q 584 382 674 333 Q 701 320 716 323 Q 735 327 731 345 Q 728 363 695 398 Q 676 420 554 442 L 506 451 Q 452 461 416 464 Q 406 465 410 477 Q 437 528 446 527 C 449 530 449 535 463 562 Z"/>
  <path id="z26696d5" d="M 618 583 Q 611 593 594 600 Q 578 610 561 610 Q 551 609 554 594 Q 557 585 557 573 L 552 536 Q 536 488 506 451 L 474 420 Q 408 372 284 354 Q 268 350 286 344 Q 424 314 520 401 Q 521 404 523 404 L 554 442 Q 578 473 594 510 Q 601 529 608 540 C 622 566 627 575 618 583 Z"/>
  <path id="z26696d6" d="M 608 540 Q 645 541 857 542 Q 878 542 883 551 Q 889 563 872 577 Q 812 623 761 606 Q 700 596 618 583 L 557 573 Q 500 572 463 562 L 414 556 Q 287 543 145 527 Q 123 526 139 507 Q 154 492 172 487 Q 194 480 211 485 Q 298 507 395 520 L 446 527 Q 492 534 552 536 L 608 540 Z"/>
  <path id="z26696d7" d="M 537 242 Q 558 245 787 244 Q 805 243 810 251 Q 816 261 800 275 Q 752 311 698 302 Q 632 292 539 278 L 485 271 Q 362 259 220 244 Q 201 243 214 227 Q 227 214 244 208 Q 263 202 278 206 Q 360 227 454 235 L 537 242 Z"/>
  <path id="z26696d8" d="M 537 235 Q 537 239 537 242 L 539 278 Q 542 311 538 315 Q 516 334 497 344 Q 485 348 476 341 Q 470 337 477 328 Q 484 318 485 271 L 484 193 Q 484 91 470 47 Q 460 5 501 -52 Q 505 -59 512 -62 Q 522 -63 528 -51 Q 540 -20 537 10 Q 536 113 536 199 L 537 235 Z"/>
  <path id="z26696d9" d="M 454 235 Q 406 132 191 18 Q 173 8 188 6 Q 198 2 235 14 Q 284 24 330 53 Q 426 114 480 188 Q 481 191 484 193 C 522 242 473 273 454 235 Z"/>
  <path id="z26696d10" d="M 536 199 Q 609 112 690 33 Q 715 8 756 8 Q 831 5 908 22 Q 929 25 930 30 Q 931 37 916 43 Q 870 59 814 74 Q 691 113 551 225 Q 542 231 537 235 C 513 253 517 222 536 199 Z"/>
<defs>
  <clipPath id="z26696c1"><use href="#z26696d1"/></clipPath>
  <clipPath id="z26696c2"><use href="#z26696d2"/></clipPath>
  <clipPath id="z26696c3"><use href="#z26696d3"/></clipPath>
  <clipPath id="z26696c4"><use href="#z26696d4"/></clipPath>
  <clipPath id="z26696c5"><use href="#z26696d5"/></clipPath>
  <clipPath id="z26696c6"><use href="#z26696d6"/></clipPath>
  <clipPath id="z26696c7"><use href="#z26696d7"/></clipPath>
  <clipPath id="z26696c8"><use href="#z26696d8"/></clipPath>
  <clipPath id="z26696c9"><use href="#z26696d9"/></clipPath>
  <clipPath id="z26696c10"><use href="#z26696d10"/></clipPath>
</defs>
<path style="--d:1s;" pathLength="3333" clip-path="url(#z26696c1)" d="M 456 842 L 528 809 L 559 773"/>
<path style="--d:2s;" pathLength="3333" clip-path="url(#z26696c2)" d="M 294 727 L 303 706 L 299 683 L 259 624 L 250 578"/>
<path style="--d:3s;" pathLength="3333" clip-path="url(#z26696c3)" d="M 329 697 L 340 688 L 352 688 L 570 727 L 667 739 L 720 734 L 736 723 L 749 700 L 674 629"/>
<path style="--d:4s;" pathLength="3333" clip-path="url(#z26696c4)" d="M 450 664 L 463 648 L 469 620 L 391 483 L 389 462 L 404 452 L 494 435 L 619 397 L 669 375 L 715 340"/>
<path style="--d:5s;" pathLength="3333" clip-path="url(#z26696c5)" d="M 563 600 L 586 568 L 570 512 L 541 461 L 500 412 L 441 375 L 389 357 L 345 350 L 294 351"/>
<path style="--d:6s;" pathLength="3333" clip-path="url(#z26696c6)" d="M 142 517 L 201 508 L 500 552 L 784 576 L 837 569 L 871 557"/>
<path style="--d:7s;" pathLength="3333" clip-path="url(#z26696c7)" d="M 217 235 L 270 227 L 390 246 L 709 274 L 755 271 L 800 257"/>
<path style="--d:8s;" pathLength="3333" clip-path="url(#z26696c8)" d="M 484 335 L 508 309 L 513 289 L 502 29 L 514 -49"/>
<path style="--d:9s;" pathLength="3333" clip-path="url(#z26696c9)" d="M 477 230 L 442 174 L 354 93 L 289 51 L 193 11"/>
<path style="--d:10s;" pathLength="3333" clip-path="url(#z26696c10)" d="M 537 229 L 552 203 L 608 152 L 729 59 L 807 41 L 924 31"/>
</svg>