<svg id="z23660" class="acjk" viewBox="0 0 1024 1024" xmlns="http://www.w3.org/2000/svg">
  <path id="z23660d1" d="M 668 738 Q 698 780 719 786 Q 737 802 724 821 Q 709 836 661 863 Q 645 872 623 866 Q 524 824 353 798 C 323 793 338 761 367 767 Q 370 767 597 818 Q 624 825 634 814 Q 640 804 611 739 C 599 712 650 714 668 738 Z"/>
  <path id="z23660d2" d="M 344 653 Q 351 652 361 654 Q 461 681 678 710 Q 687 711 688 718 Q 688 725 668 738 C 652 749 640 746 611 739 Q 463 702 348 682 C 318 677 314 653 344 653 Z"/>
  <path id="z23660d3" d="M 353 798 Q 340 810 319 820 Q 300 832 287 827 Q 274 820 280 806 Q 301 770 296 708 Q 293 686 291 660 Q 270 453 209 306 Q 151 171 52 39 Q 46 32 44 26 Q 41 16 52 17 Q 91 24 184 159 Q 205 192 226 230 Q 307 398 344 653 L 348 682 Q 349 698 353 714 Q 357 741 367 767 C 373 784 373 784 353 798 Z"/>
  <path id="z23660d4" d="M 501 657 Q 511 635 508 560 Q 505 545 523 522 Q 530 515 537 523 Q 543 533 549 581 Q 549 596 553 636 Q 557 652 543 660 Q 531 667 520 673 Q 511 676 504 672 Q 498 668 501 657 Z"/>
  <path id="z23660d5" d="M 395 612 Q 453 585 465 589 Q 474 592 473 605 Q 470 614 459 624 Q 432 642 391 630 Q 384 629 387 621 Q 388 615 395 612 Z"/>
  <path id="z23660d6" d="M 382 543 Q 436 507 452 511 Q 461 512 462 526 Q 461 535 450 546 Q 429 567 379 561 Q 373 561 375 553 Q 375 547 382 543 Z"/>
  <path id="z23660d7" d="M 606 643 Q 660 610 676 614 Q 685 615 685 630 Q 684 639 673 650 Q 652 668 603 662 Q 597 661 599 653 Q 599 647 606 643 Z"/>
  <path id="z23660d8" d="M 597 578 Q 651 542 668 543 Q 677 544 678 558 Q 677 567 667 579 Q 657 589 638 591 Q 607 598 596 597 Q 589 597 590 589 Q 591 583 597 578 Z"/>
  <path id="z23660d9" d="M 326 483 Q 322 479 330 467 Q 352 433 371 375 Q 371 374 372 371 Q 375 358 387 347 Q 402 334 404 345 Q 405 349 405 356 C 406 372 406 372 402 379 Q 398 383 382 454 C 375 483 333 512 326 483 Z"/>
  <path id="z23660d10" d="M 665 393 Q 665 392 666 389 Q 669 376 679 376 Q 689 377 718 410 Q 733 452 764 473 Q 780 486 768 499 Q 755 512 715 537 Q 703 544 629 529 Q 599 529 467 501 Q 391 486 337 486 Q 328 487 326 483 C 297 477 352 449 382 454 Q 386 454 392 455 Q 414 462 445 469 L 463 473 Q 500 483 553 490 L 583 495 Q 673 514 691 502 Q 695 499 692 484 Q 676 430 670 418 L 665 393 Z"/>
  <path id="z23660d11" d="M 486 394 Q 486 409 469 462 Q 468 469 463 473 C 441 494 441 494 445 469 Q 445 468 450 441 Q 453 411 467 390 C 483 365 487 364 486 394 Z"/>
  <path id="z23660d12" d="M 571 410 Q 572 413 574 415 Q 595 455 601 461 Q 611 471 604 477 Q 598 487 583 495 C 557 510 540 517 553 490 Q 565 469 545 404 C 536 375 558 383 571 410 Z"/>
  <path id="z23660d13" d="M 461 363 Q 575 384 665 393 C 695 396 697 406 670 418 Q 666 421 659 422 Q 638 425 571 410 L 545 404 Q 514 400 486 394 L 467 390 Q 433 387 402 379 C 373 372 375 355 405 356 Q 412 356 424 357 Q 425 358 427 357 L 461 363 Z"/>
  <path id="z23660d14" d="M 419 274 Q 428 283 441 293 L 467 318 Q 467 319 469 320 Q 481 332 481 336 Q 481 351 461 363 C 436 380 436 380 427 357 Q 405 296 322 232 Q 315 229 322 226 Q 355 226 410 266 L 419 274 Z"/>
  <path id="z23660d15" d="M 441 293 Q 480 284 663 312 Q 756 325 767 310 Q 782 283 764 131 Q 755 70 734 30 Q 724 11 710 6 Q 700 3 641 22 Q 631 26 631 20 Q 630 16 641 5 Q 675 -40 690 -70 Q 697 -89 710 -90 Q 725 -90 741 -76 Q 795 -33 823 98 Q 856 275 857 276 Q 860 283 866 288 Q 879 301 879 310 Q 878 319 858 333 Q 831 355 795 367 Q 776 374 713 358 Q 692 355 664 348 Q 601 336 467 318 C 437 314 411 295 441 293 Z"/>
  <path id="z23660d16" d="M 328 204 Q 318 208 292 210 Q 282 211 280 207 Q 276 203 284 190 Q 305 159 323 103 Q 327 87 338 76 Q 354 60 357 73 Q 358 77 358 84 L 354 113 Q 342 161 339 179 C 335 202 335 202 328 204 Z"/>
  <path id="z23660d17" d="M 582 144 Q 604 187 627 198 Q 640 211 630 225 Q 618 235 580 256 Q 567 263 551 257 Q 505 239 466 229 L 422 219 Q 376 212 328 204 C 298 199 310 173 339 179 Q 346 180 356 183 Q 387 190 422 196 L 464 204 Q 495 213 529 219 Q 551 225 560 216 Q 564 210 562 200 Q 555 175 545 153 C 533 125 568 118 582 144 Z"/>
  <path id="z23660d18" d="M 459 101 Q 514 111 590 118 Q 599 119 600 126 Q 600 132 582 144 C 567 155 567 155 545 153 Q 527 153 461 133 L 423 125 Q 386 119 354 113 C 325 108 328 82 358 84 Q 362 84 369 85 Q 391 91 423 96 L 459 101 Z"/>
  <path id="z23660d19" d="M 457 40 Q 458 73 459 101 L 461 133 Q 462 172 464 204 L 466 229 Q 470 242 465 249 Q 447 267 431 275 Q 424 276 419 274 C 407 272 407 272 410 266 Q 422 242 422 219 L 422 196 Q 423 172 423 125 L 423 96 Q 423 69 423 34 C 423 4 456 10 457 40 Z"/>
  <path id="z23660d20" d="M 550 59 Q 504 52 457 40 L 423 34 Q 369 27 312 16 Q 293 13 262 17 Q 252 17 249 9 Q 245 -1 252 -9 Q 270 -25 294 -44 Q 303 -47 313 -41 Q 356 -19 401 -6 Q 470 12 539 31 Q 549 35 563 39 C 592 48 580 64 550 59 Z"/>
  <path id="z23660d21" d="M 563 39 Q 590 -3 598 -4 Q 604 -5 610 1 Q 616 8 615 29 Q 615 44 597 63 Q 596 64 595 64 Q 550 101 540 98 Q 536 97 535 88 Q 535 81 548 63 Q 549 62 550 59 L 563 39 Z"/>
<defs>
  <clipPath id="z23660c1"><use href="#z23660d1"/></clipPath>
  <clipPath id="z23660c2"><use href="#z23660d2"/></clipPath>
  <clipPath id="z23660c3"><use href="#z23660d3"/></clipPath>
  <clipPath id="z23660c4"><use href="#z23660d4"/></clipPath>
  <clipPath id="z23660c5"><use href="#z23660d5"/></clipPath>
  <clipPath id="z23660c6"><use href="#z23660d6"/></clipPath>
  <clipPath id="z23660c7"><use href="#z23660d7"/></clipPath>
  <clipPath id="z23660c8"><use href="#z23660d8"/></clipPath>
  <clipPath id="z23660c9"><use href="#z23660d9"/></clipPath>
  <clipPath id="z23660c10"><use href="#z23660d10"/></clipPath>
  <clipPath id="z23660c11"><use href="#z23660d11"/></clipPath>
  <clipPath id="z23660c12"><use href="#z23660d12"/></clipPath>
  <clipPath id="z23660c13"><use href="#z23660d13"/></clipPath>
  <clipPath id="z23660c14"><use href="#z23660d14"/></clipPath>
  <clipPath id="z23660c15"><use href="#z23660d15"/></clipPath>
  <clipPath id="z23660c16"><use href="#z23660d16"/></clipPath>
  <clipPath id="z23660c17"><use href="#z23660d17"/></clipPath>
  <clipPath id="z23660c18"><use href="#z23660d18"/></clipPath>
  <clipPath id="z23660c19"><use href="#z23660d19"/></clipPath>
  <clipPath id="z23660c20"><use href="#z23660d20"/></clipPath>
  <clipPath id="z23660c21"><use href="#z23660d21"/></clipPath>
</defs>
<path style="--d:1s;" pathLength="3333" clip-path="url(#z23660c1)" d="M 363 796 L 377 785 L 525 814 L 634 843 L 656 834 L 676 807 L 654 768 L 633 752 L 618 750"/>
<path style="--d:2s;" pathLength="3333" clip-path="url(#z23660c2)" d="M 348 660 L 371 672 L 618 721 L 679 719"/>
<path style="--d:3s;" pathLength="3333" clip-path="url(#z23660c3)" d="M 293 813 L 326 777 L 328 741 L 297 527 L 262 387 L 225 282 L 161 160 L 85 56 L 53 26"/>
<path style="--d:4s;" pathLength="3333" clip-path="url(#z23660c4)" d="M 511 663 L 527 645 L 531 629 L 529 530"/>
<path style="--d:5s;" pathLength="3333" clip-path="url(#z23660c5)" d="M 397 622 L 436 614 L 461 600"/>
<path style="--d:6s;" pathLength="3333" clip-path="url(#z23660c6)" d="M 385 553 L 427 539 L 449 524"/>
<path style="--d:7s;" pathLength="3333" clip-path="url(#z23660c7)" d="M 610 653 L 651 641 L 673 626"/>
<path style="--d:8s;" pathLength="3333" clip-path="url(#z23660c8)" d="M 600 588 L 651 568 L 665 555"/>
<path style="--d:9s;" pathLength="3333" clip-path="url(#z23660c9)" d="M 333 479 L 332 474 L 367 441 L 396 348"/>
<path style="--d:10s;" pathLength="3333" clip-path="url(#z23660c10)" d="M 343 482 L 393 472 L 503 498 L 642 521 L 695 521 L 711 514 L 726 486 L 678 386"/>
<path style="--d:11s;" pathLength="3333" clip-path="url(#z23660c11)" d="M 450 466 L 458 460 L 469 412 L 480 397"/>
<path style="--d:12s;" pathLength="3333" clip-path="url(#z23660c12)" d="M 561 488 L 580 470 L 562 419 L 550 414"/>
<path style="--d:13s;" pathLength="3333" clip-path="url(#z23660c13)" d="M 409 362 L 423 371 L 652 407 L 662 413"/>
<path style="--d:14s;" pathLength="3333" clip-path="url(#z23660c14)" d="M 469 338 L 448 335 L 403 283 L 357 245 L 331 236 L 327 229"/>
<path style="--d:15s;" pathLength="3333" clip-path="url(#z23660c15)" d="M 452 296 L 472 305 L 579 315 L 746 342 L 791 334 L 816 307 L 795 117 L 776 44 L 758 4 L 721 -36 L 636 19"/>
<path style="--d:16s;" pathLength="3333" clip-path="url(#z23660c16)" d="M 287 203 L 317 177 L 348 77"/>
<path style="--d:17s;" pathLength="3333" clip-path="url(#z23660c17)" d="M 337 200 L 348 194 L 455 213 L 549 239 L 568 237 L 593 210 L 572 167 L 552 156"/>
<path style="--d:18s;" pathLength="3333" clip-path="url(#z23660c18)" d="M 362 107 L 371 100 L 543 133 L 592 126"/>
<path style="--d:19s;" pathLength="3333" clip-path="url(#z23660c19)" d="M 420 263 L 429 260 L 444 238 L 441 65 L 438 50 L 427 43"/>
<path style="--d:20s;" pathLength="3333" clip-path="url(#z23660c20)" d="M 262 2 L 303 -14 L 543 47 L 555 41"/>
<path style="--d:21s;" pathLength="3333" clip-path="url(#z23660c21)" d="M 542 91 L 591 35 L 601 6"/>
</svg>