<svg id="z21058" class="acjk" viewBox="0 0 1024 1024" xmlns="http://www.w3.org/2000/svg">
  <path id="z21058d1" d="M 350 757 Q 378 733 409 705 Q 424 692 441 693 Q 451 694 457 708 Q 461 724 451 755 Q 439 786 343 807 Q 327 810 320 807 Q 314 803 317 789 Q 321 779 350 757 Z"/>
  <path id="z21058d2" d="M 441 602 Q 498 611 544 618 Q 556 617 565 631 Q 566 644 541 654 Q 508 675 435 653 Q 347 631 172 599 Q 141 595 165 576 Q 204 549 233 558 Q 306 576 401 594 L 441 602 Z"/>
  <path id="z21058d3" d="M 414 456 Q 430 484 443 517 Q 456 554 466 563 Q 475 573 469 582 Q 460 595 441 602 C 414 615 396 624 401 594 Q 413 555 374 474 L 351 440 Q 312 365 115 318 Q 100 312 117 309 Q 225 291 321 349 Q 361 374 387 416 L 414 456 Z"/>
  <path id="z21058d4" d="M 387 416 Q 444 377 509 328 Q 524 315 537 313 Q 544 313 548 322 Q 555 335 540 367 Q 525 404 414 456 L 374 474 Q 301 507 259 521 Q 250 525 251 514 Q 252 504 262 497 Q 304 472 351 440 L 387 416 Z"/>
  <path id="z21058d5" d="M 249 279 Q 273 249 260 161 Q 244 83 193 42 Q 180 30 166 18 Q 156 9 166 7 Q 236 16 291 99 Q 291 100 292 102 Q 310 147 324 220 Q 325 236 332 253 Q 339 271 324 278 Q 276 306 254 297 Q 242 293 249 279 Z"/>
  <path id="z21058d6" d="M 419 312 Q 437 281 422 105 Q 421 104 421 101 Q 415 2 459 -26 Q 459 -25 460 -26 Q 470 -27 475 -15 Q 481 4 482 66 Q 476 234 482 284 Q 483 294 478 301 Q 456 320 438 328 Q 426 331 418 324 Q 412 321 419 312 Z"/>
  <path id="z21058d7" d="M 599 559 Q 629 496 612 323 Q 605 293 635 253 Q 645 243 655 254 Q 673 284 673 359 Q 669 464 676 528 Q 683 553 661 564 Q 645 574 626 583 Q 613 587 603 581 Q 594 574 599 559 Z"/>
  <path id="z21058d8" d="M 772 687 Q 776 651 778 111 Q 778 89 765 80 Q 755 74 678 95 Q 644 108 647 96 Q 648 89 669 74 Q 741 19 759 -12 Q 780 -49 797 -50 Q 813 -51 827 -14 Q 846 34 843 110 Q 824 342 829 577 Q 832 668 845 715 Q 861 746 804 770 Q 770 788 749 781 Q 730 774 748 750 Q 770 722 772 687 Z"/>
<defs>
  <clipPath id="z21058c1"><use href="#z21058d1"/></clipPath>
  <clipPath id="z21058c2"><use href="#z21058d2"/></clipPath>
  <clipPath id="z21058c3"><use href="#z21058d3"/></clipPath>
  <clipPath id="z21058c4"><use href="#z21058d4"/></clipPath>
  <clipPath id="z21058c5"><use href="#z21058d5"/></clipPath>
  <clipPath id="z21058c6"><use href="#z21058d6"/></clipPath>
  <clipPath id="z21058c7"><use href="#z21058d7"/></clipPath>
  <clipPath id="z21058c8"><use href="#z21058d8"/></clipPath>
</defs>
<path style="--d:1s;" pathLength="3333" clip-path="url(#z21058c1)" d="M 326 799 L 415 746 L 437 713"/>
<path style="--d:2s;" pathLength="3333" clip-path="url(#z21058c2)" d="M 167 588 L 216 581 L 485 637 L 526 638 L 553 632"/>
<path style="--d:3s;" pathLength="3333" clip-path="url(#z21058c3)" d="M 409 590 L 434 570 L 419 519 L 393 463 L 337 388 L 289 355 L 247 337 L 189 321 L 126 316"/>
<path style="--d:4s;" pathLength="3333" clip-path="url(#z21058c4)" d="M 260 512 L 465 397 L 511 362 L 534 327"/>
<path style="--d:5s;" pathLength="3333" clip-path="url(#z21058c5)" d="M 257 287 L 296 255 L 280 140 L 267 104 L 239 63 L 218 42 L 172 13"/>
<path style="--d:6s;" pathLength="3333" clip-path="url(#z21058c6)" d="M 426 319 L 442 305 L 454 283 L 450 89 L 460 -16"/>
<path style="--d:7s;" pathLength="3333" clip-path="url(#z21058c7)" d="M 613 569 L 643 535 L 645 367 L 640 308 L 645 260"/>
<path style="--d:8s;" pathLength="3333" clip-path="url(#z21058c8)" d="M 756 765 L 774 757 L 806 724 L 801 418 L 809 83 L 788 35 L 754 45 L 667 87 L 664 94 L 654 94"/>
</svg>