<svg id="z21647" class="acjk" viewBox="0 0 1024 1024" xmlns="http://www.w3.org/2000/svg">
  <path id="z21647d1" d="M 114 532 Q 104 536 81 541 Q 68 545 65 540 Q 58 534 66 518 Q 93 454 106 352 Q 107 321 124 300 Q 140 278 147 293 Q 153 308 152 331 L 149 365 Q 134 483 134 507 Q 133 508 135 508 C 137 524 137 524 114 532 Z"/>
  <path id="z21647d2" d="M 279 389 Q 292 486 319 518 Q 340 543 316 557 Q 297 567 269 583 Q 250 592 232 580 Q 196 555 114 532 C 85 524 106 499 135 508 Q 177 521 212 530 Q 236 536 242 527 Q 249 521 230 394 C 226 364 275 359 279 389 Z"/>
  <path id="z21647d3" d="M 152 331 Q 171 340 288 363 Q 298 364 298 373 Q 298 380 279 389 L 230 394 Q 226 394 224 392 Q 184 376 149 365 C 120 356 124 320 152 331 Z"/>
  <path id="z21647d4" d="M 543 778 Q 580 754 620 724 Q 636 712 653 715 Q 665 716 669 732 Q 672 748 658 780 Q 640 817 531 829 Q 515 830 508 827 Q 502 823 506 809 Q 512 797 543 778 Z"/>
  <path id="z21647d5" d="M 630 417 Q 630 543 645 572 Q 658 591 646 601 Q 624 620 588 636 Q 567 645 520 619 Q 454 604 431 600 Q 415 599 424 590 Q 433 580 447 574 Q 466 568 490 575 Q 517 582 544 591 Q 563 595 569 585 Q 579 552 577 300 Q 571 95 556 71 Q 552 68 467 83 Q 448 89 449 79 Q 513 30 549 -5 Q 562 -24 578 -28 Q 587 -32 595 -22 Q 632 21 633 98 Q 629 209 629 365 L 630 417 Z"/>
  <path id="z21647d6" d="M 310 417 Q 298 417 297 409 Q 296 403 310 396 Q 350 375 374 385 Q 447 410 455 409 Q 468 408 458 383 Q 413 265 372 209 Q 329 145 253 81 Q 240 69 249 68 Q 259 67 276 76 Q 343 113 399 175 Q 453 232 520 382 Q 529 401 539 412 Q 551 422 543 431 Q 534 441 501 452 Q 482 461 435 440 Q 366 424 310 417 Z"/>
  <path id="z21647d7" d="M 655 382 Q 767 470 823 504 Q 842 508 837 521 Q 830 537 810 558 Q 789 577 765 579 Q 749 578 750 558 Q 753 543 743 525 Q 709 476 642 398 C 622 375 631 363 655 382 Z"/>
  <path id="z21647d8" d="M 642 398 Q 636 408 630 417 C 614 442 614 391 629 365 Q 794 86 843 86 Q 907 90 964 94 Q 988 95 988 101 Q 989 108 963 122 Q 831 185 783 233 Q 738 278 655 382 L 642 398 Z"/>
<defs>
  <clipPath id="z21647c1"><use href="#z21647d1"/></clipPath>
  <clipPath id="z21647c2"><use href="#z21647d2"/></clipPath>
  <clipPath id="z21647c3"><use href="#z21647d3"/></clipPath>
  <clipPath id="z21647c4"><use href="#z21647d4"/></clipPath>
  <clipPath id="z21647c5"><use href="#z21647d5"/></clipPath>
  <clipPath id="z21647c6"><use href="#z21647d6"/></clipPath>
  <clipPath id="z21647c7"><use href="#z21647d7"/></clipPath>
  <clipPath id="z21647c8"><use href="#z21647d8"/></clipPath>
</defs>
<path style="--d:1s;" pathLength="3333" clip-path="url(#z21647c1)" d="M 72 532 L 99 508 L 105 494 L 136 300"/>
<path style="--d:2s;" pathLength="3333" clip-path="url(#z21647c2)" d="M 125 531 L 139 524 L 240 556 L 261 553 L 275 540 L 280 523 L 258 416 L 237 407"/>
<path style="--d:3s;" pathLength="3333" clip-path="url(#z21647c3)" d="M 153 337 L 176 357 L 223 371 L 289 372"/>
<path style="--d:4s;" pathLength="3333" clip-path="url(#z21647c4)" d="M 515 819 L 614 773 L 650 734"/>
<path style="--d:5s;" pathLength="3333" clip-path="url(#z21647c5)" d="M 434 591 L 479 591 L 566 614 L 584 609 L 608 582 L 601 145 L 593 60 L 575 31 L 459 77"/>
<path style="--d:6s;" pathLength="3333" clip-path="url(#z21647c6)" d="M 306 409 L 358 403 L 467 429 L 496 416 L 466 329 L 400 210 L 336 136 L 254 73"/>
<path style="--d:7s;" pathLength="3333" clip-path="url(#z21647c7)" d="M 766 563 L 786 527 L 669 410 L 660 393"/>
<path style="--d:8s;" pathLength="3333" clip-path="url(#z21647c8)" d="M 630 410 L 648 360 L 661 349 L 696 294 L 751 223 L 818 154 L 850 131 L 982 102"/>
</svg>