<svg id="z28640" class="acjk" viewBox="0 0 1024 1024" xmlns="http://www.w3.org/2000/svg">
  <path id="z28640d1" d="M 223 699 Q 248 678 275 653 Q 291 640 308 641 Q 320 642 325 656 Q 329 672 318 705 Q 306 735 216 751 Q 198 755 192 751 Q 186 747 189 733 Q 193 720 223 699 Z"/>
  <path id="z28640d2" d="M 123 524 Q 174 473 214 459 Q 230 458 239 472 Q 243 487 240 504 Q 221 550 157 560 Q 121 573 105 565 Q 98 564 102 550 Q 105 537 123 524 Z"/>
  <path id="z28640d3" d="M 112 162 Q 100 158 103 141 Q 119 68 156 49 Q 163 43 173 46 Q 180 47 181 73 Q 184 115 266 364 Q 273 380 271 386 Q 270 396 261 389 Q 252 383 148 203 Q 138 184 112 162 Z"/>
  <path id="z28640d4" d="M 518 809 Q 543 794 571 776 Q 584 767 598 770 Q 607 771 609 784 Q 610 797 599 821 Q 586 845 506 849 Q 493 850 487 847 Q 484 843 487 832 Q 491 823 518 809 Z"/>
  <path id="z28640d5" d="M 414 725 Q 380 721 403 705 Q 440 681 492 690 Q 595 706 701 723 Q 750 732 758 738 Q 765 745 762 753 Q 756 765 730 772 Q 706 778 599 750 Q 508 732 414 725 Z"/>
  <path id="z28640d6" d="M 477 637 Q 467 641 435 647 Q 425 650 422 645 Q 418 639 425 627 Q 444 593 460 537 Q 463 521 474 509 Q 490 491 493 505 Q 496 512 495 524 L 491 553 Q 484 593 483 611 C 481 636 481 636 477 637 Z"/>
  <path id="z28640d7" d="M 670 571 Q 688 601 710 612 Q 725 627 713 642 Q 700 654 657 677 Q 642 684 624 678 Q 576 657 477 637 C 448 631 453 607 483 611 Q 492 611 615 636 Q 628 639 634 634 Q 637 628 624 579 C 616 550 654 546 670 571 Z"/>
  <path id="z28640d8" d="M 495 524 Q 504 523 513 525 Q 565 537 677 546 Q 687 547 688 554 Q 688 560 670 571 L 624 579 Q 623 580 621 579 Q 549 563 491 553 C 461 548 465 526 495 524 Z"/>
  <path id="z28640d9" d="M 380 460 Q 371 484 357 493 Q 341 503 340 482 Q 346 461 318 413 Q 282 365 301 327 Q 302 321 307 314 Q 320 293 336 317 Q 337 321 375 431 C 383 453 383 453 380 460 Z"/>
  <path id="z28640d10" d="M 375 431 Q 399 421 448 434 Q 589 473 749 484 Q 761 484 768 483 Q 781 479 781 472 Q 781 468 743 404 Q 736 394 741 388 Q 747 384 763 393 Q 815 424 859 432 Q 893 439 894 448 Q 893 457 831 509 Q 809 528 732 513 Q 650 504 463 472 Q 421 465 380 460 C 350 456 346 438 375 431 Z"/>
  <path id="z28640d11" d="M 518 360 Q 669 396 671 396 Q 678 403 675 410 Q 668 420 643 426 Q 618 432 592 421 Q 558 411 522 401 Q 482 392 435 388 Q 404 382 427 368 Q 449 356 477 355 L 518 360 Z"/>
  <path id="z28640d12" d="M 514 316 Q 536 343 537 344 Q 536 354 518 360 C 490 371 486 373 477 355 Q 453 301 340 221 Q 324 211 344 212 Q 401 212 496 300 L 514 316 Z"/>
  <path id="z28640d13" d="M 603 245 Q 566 294 514 316 C 487 329 471 316 496 300 Q 497 299 501 297 Q 508 293 517 286 L 556 250 Q 563 243 570 231 L 590 179 Q 594 133 574 74 Q 564 47 555 43 Q 552 42 486 49 Q 473 55 472 48 Q 471 41 480 31 Q 520 -9 536 -37 Q 546 -53 560 -50 Q 576 -46 591 -24 Q 637 45 634 152 Q 633 155 629 183 L 615 229 L 603 245 Z"/>
  <path id="z28640d14" d="M 517 286 Q 516 285 515 280 Q 499 223 344 124 Q 329 115 347 116 Q 407 116 519 216 Q 541 238 556 250 C 579 269 526 315 517 286 Z"/>
  <path id="z28640d15" d="M 570 231 Q 507 147 467 110 Q 364 38 336 20 Q 324 11 332 9 Q 348 0 415 31 Q 473 58 554 138 Q 588 172 587 174 Q 588 177 590 179 C 606 205 588 255 570 231 Z"/>
  <path id="z28640d16" d="M 615 229 Q 700 275 742 292 Q 758 293 756 304 Q 753 319 738 338 Q 723 357 704 361 Q 691 362 689 345 Q 690 332 680 319 Q 652 291 603 245 C 581 224 589 215 615 229 Z"/>
  <path id="z28640d17" d="M 629 183 Q 689 122 753 64 Q 775 43 811 45 Q 877 46 943 65 Q 959 68 961 73 Q 962 80 948 84 Q 771 129 695 175 Q 677 187 661 197 Q 633 218 615 229 C 590 245 608 204 629 183 Z"/>
<defs>
  <clipPath id="z28640c1"><use href="#z28640d1"/></clipPath>
  <clipPath id="z28640c2"><use href="#z28640d2"/></clipPath>
  <clipPath id="z28640c3"><use href="#z28640d3"/></clipPath>
  <clipPath id="z28640c4"><use href="#z28640d4"/></clipPath>
  <clipPath id="z28640c5"><use href="#z28640d5"/></clipPath>
  <clipPath id="z28640c6"><use href="#z28640d6"/></clipPath>
  <clipPath id="z28640c7"><use href="#z28640d7"/></clipPath>
  <clipPath id="z28640c8"><use href="#z28640d8"/></clipPath>
  <clipPath id="z28640c9"><use href="#z28640d9"/></clipPath>
  <clipPath id="z28640c10"><use href="#z28640d10"/></clipPath>
  <clipPath id="z28640c11"><use href="#z28640d11"/></clipPath>
  <clipPath id="z28640c12"><use href="#z28640d12"/></clipPath>
  <clipPath id="z28640c13"><use href="#z28640d13"/></clipPath>
  <clipPath id="z28640c14"><use href="#z28640d14"/></clipPath>
  <clipPath id="z28640c15"><use href="#z28640d15"/></clipPath>
  <clipPath id="z28640c16"><use href="#z28640d16"/></clipPath>
  <clipPath id="z28640c17"><use href="#z28640d17"/></clipPath>
</defs>
<path style="--d:1s;" pathLength="3333" clip-path="url(#z28640c1)" d="M 199 743 L 285 692 L 306 660"/>
<path style="--d:2s;" pathLength="3333" clip-path="url(#z28640c2)" d="M 113 556 L 197 507 L 220 481"/>
<path style="--d:3s;" pathLength="3333" clip-path="url(#z28640c3)" d="M 168 56 L 152 98 L 150 137 L 265 383"/>
<path style="--d:4s;" pathLength="3333" clip-path="url(#z28640c4)" d="M 493 840 L 575 807 L 595 783"/>
<path style="--d:5s;" pathLength="3333" clip-path="url(#z28640c5)" d="M 406 716 L 428 709 L 481 709 L 702 748 L 749 748"/>
<path style="--d:6s;" pathLength="3333" clip-path="url(#z28640c6)" d="M 429 640 L 456 619 L 484 508"/>
<path style="--d:7s;" pathLength="3333" clip-path="url(#z28640c7)" d="M 484 618 L 508 631 L 553 637 L 627 658 L 645 656 L 671 627 L 657 601 L 633 588"/>
<path style="--d:8s;" pathLength="3333" clip-path="url(#z28640c8)" d="M 500 532 L 513 542 L 617 560 L 680 554"/>
<path style="--d:9s;" pathLength="3333" clip-path="url(#z28640c9)" d="M 349 486 L 360 456 L 321 358 L 321 319"/>
<path style="--d:10s;" pathLength="3333" clip-path="url(#z28640c10)" d="M 383 437 L 395 444 L 602 482 L 745 501 L 794 496 L 810 485 L 821 464 L 746 393"/>
<path style="--d:11s;" pathLength="3333" clip-path="url(#z28640c11)" d="M 429 379 L 482 374 L 528 380 L 624 407 L 668 404"/>
<path style="--d:12s;" pathLength="3333" clip-path="url(#z28640c12)" d="M 531 346 L 493 331 L 459 292 L 416 256 L 349 220"/>
<path style="--d:13s;" pathLength="3333" clip-path="url(#z28640c13)" d="M 501 303 L 517 302 L 538 288 L 585 241 L 609 183 L 611 126 L 592 42 L 559 2 L 479 45"/>
<path style="--d:14s;" pathLength="3333" clip-path="url(#z28640c14)" d="M 522 281 L 521 245 L 484 206 L 426 161 L 370 128 L 355 129 L 351 122"/>
<path style="--d:15s;" pathLength="3333" clip-path="url(#z28640c15)" d="M 565 222 L 563 182 L 480 95 L 398 40 L 337 13"/>
<path style="--d:16s;" pathLength="3333" clip-path="url(#z28640c16)" d="M 703 347 L 714 314 L 636 255 L 621 245 L 614 247"/>
<path style="--d:17s;" pathLength="3333" clip-path="url(#z28640c17)" d="M 618 224 L 669 168 L 783 91 L 859 77 L 955 74"/>
</svg>