<svg id="z24043" class="acjk" viewBox="0 0 1024 1024" xmlns="http://www.w3.org/2000/svg">
  <path id="z24043d1" d="M 519 662 Q 598 674 681 683 Q 739 693 748 700 Q 758 707 754 718 Q 747 733 715 743 Q 688 752 583 726 Q 442 699 334 696 Q 292 693 321 672 Q 361 642 448 654 Q 457 655 469 656 L 519 662 Z"/>
  <path id="z24043d2" d="M 532 142 Q 545 637 546 638 Q 531 653 519 662 C 496 681 457 684 469 656 Q 493 604 492 563 Q 493 518 486 138 C 485 108 531 112 532 142 Z"/>
  <path id="z24043d3" d="M 315 375 Q 351 439 378 478 Q 387 490 374 503 Q 338 533 311 530 Q 301 527 302 514 Q 314 414 204 290 Q 195 287 157 239 Q 150 226 163 230 Q 218 239 301 353 L 315 375 Z"/>
  <path id="z24043d4" d="M 301 353 Q 305 349 315 340 Q 354 307 394 269 Q 404 259 417 258 Q 424 258 429 269 Q 433 279 427 303 Q 423 327 388 347 Q 354 363 315 375 C 286 384 279 374 301 353 Z"/>
  <path id="z24043d5" d="M 691 401 Q 725 467 762 533 Q 772 546 756 560 Q 708 590 686 583 Q 676 580 679 566 Q 698 476 605 345 Q 593 338 560 288 Q 553 272 568 278 Q 611 290 678 382 L 691 401 Z"/>
  <path id="z24043d6" d="M 678 382 Q 804 256 807 255 L 809 254 Q 818 253 825 263 Q 837 275 824 317 Q 817 354 750 381 Q 713 394 691 401 C 662 410 657 403 678 382 Z"/>
  <path id="z24043d7" d="M 486 138 Q 321 128 129 114 Q 104 113 121 91 Q 137 73 158 65 Q 183 58 204 62 Q 453 114 906 91 Q 931 90 937 99 Q 944 114 925 131 Q 862 185 788 170 Q 686 158 532 142 L 486 138 Z"/>
<defs>
  <clipPath id="z24043c1"><use href="#z24043d1"/></clipPath>
  <clipPath id="z24043c2"><use href="#z24043d2"/></clipPath>
  <clipPath id="z24043c3"><use href="#z24043d3"/></clipPath>
  <clipPath id="z24043c4"><use href="#z24043d4"/></clipPath>
  <clipPath id="z24043c5"><use href="#z24043d5"/></clipPath>
  <clipPath id="z24043c6"><use href="#z24043d6"/></clipPath>
  <clipPath id="z24043c7"><use href="#z24043d7"/></clipPath>
</defs>
<path style="--d:1s;" pathLength="3333" clip-path="url(#z24043c1)" d="M 324 686 L 389 674 L 522 688 L 694 716 L 741 712"/>
<path style="--d:2s;" pathLength="3333" clip-path="url(#z24043c2)" d="M 476 649 L 512 629 L 518 585 L 512 188 L 510 164 L 493 152"/>
<path style="--d:3s;" pathLength="3333" clip-path="url(#z24043c3)" d="M 315 517 L 339 484 L 288 369 L 220 282 L 166 238"/>
<path style="--d:4s;" pathLength="3333" clip-path="url(#z24043c4)" d="M 309 356 L 322 355 L 381 320 L 415 273"/>
<path style="--d:5s;" pathLength="3333" clip-path="url(#z24043c5)" d="M 690 571 L 707 557 L 720 535 L 682 431 L 645 367 L 570 287"/>
<path style="--d:6s;" pathLength="3333" clip-path="url(#z24043c6)" d="M 695 392 L 698 380 L 734 362 L 786 321 L 807 288 L 812 262"/>
<path style="--d:7s;" pathLength="3333" clip-path="url(#z24043c7)" d="M 125 102 L 151 93 L 194 89 L 392 111 L 802 134 L 849 132 L 926 106"/>
</svg>