<svg id="z26360" class="acjk" viewBox="0 0 1024 1024" xmlns="http://www.w3.org/2000/svg">
  <path id="z26360d1" d="M 657 521 Q 672 572 685 601 L 710 646 Q 722 664 736 674 Q 755 692 740 711 Q 724 726 671 754 Q 652 763 630 755 Q 576 737 527 726 L 468 715 Q 395 705 317 701 Q 301 700 302 691 Q 303 682 322 675 Q 347 663 382 673 Q 425 680 469 686 L 523 694 Q 560 701 600 706 Q 628 712 638 700 Q 648 688 638 635 L 628 599 Q 618 566 608 536 C 599 507 648 492 657 521 Z"/>
  <path id="z26360d2" d="M 685 601 Q 710 601 929 602 Q 950 602 955 611 Q 961 623 943 637 Q 886 682 817 664 Q 768 657 710 646 L 638 635 Q 583 629 520 620 L 471 614 Q 296 595 97 575 Q 75 574 91 555 Q 106 540 124 534 Q 146 528 163 533 Q 293 567 442 583 Q 455 586 472 586 L 519 591 Q 568 597 628 599 L 685 601 Z"/>
  <path id="z26360d3" d="M 516 482 Q 579 489 659 494 Q 669 495 671 504 Q 671 510 657 521 C 635 540 635 540 608 536 Q 605 536 517 519 L 472 511 Q 384 498 311 491 Q 292 490 303 471 Q 310 462 319 459 Q 329 455 343 458 Q 392 468 472 477 L 516 482 Z"/>
  <path id="z26360d4" d="M 512 379 Q 582 389 644 395 Q 669 398 661 412 Q 651 428 624 434 Q 594 440 513 421 L 470 412 Q 403 400 345 390 Q 327 386 347 370 Q 362 358 392 363 Q 431 369 468 373 L 512 379 Z"/>
  <path id="z26360d5" d="M 510 319 Q 511 350 512 379 L 513 421 Q 514 452 516 482 L 517 519 Q 517 556 519 591 L 520 620 Q 520 650 522 678 Q 522 687 523 694 L 527 726 Q 528 745 541 793 Q 545 805 523 820 Q 486 839 461 843 Q 445 846 436 837 Q 429 830 437 813 Q 467 770 467 740 Q 467 728 468 715 L 469 686 Q 470 652 471 614 L 472 586 Q 472 550 472 511 L 472 477 Q 471 446 470 412 L 468 373 Q 467 345 466 313 C 465 283 509 289 510 319 Z"/>
  <path id="z26360d6" d="M 466 313 Q 330 297 172 277 Q 153 276 167 259 Q 180 246 198 240 Q 217 236 234 239 Q 438 297 823 297 Q 842 297 847 306 Q 851 316 836 330 Q 787 369 750 360 Q 659 342 510 319 L 466 313 Z"/>
  <path id="z26360d7" d="M 353 197 Q 340 203 307 209 Q 294 212 291 206 Q 284 200 293 183 Q 326 116 344 7 Q 348 -26 367 -48 Q 386 -70 391 -54 Q 395 -42 395 -26 L 392 6 Q 392 9 380 73 L 376 98 Q 367 147 365 166 C 362 194 362 194 353 197 Z"/>
  <path id="z26360d8" d="M 607 -11 Q 608 -12 610 -14 Q 631 -47 649 -55 Q 659 -62 675 -41 Q 690 -16 718 118 Q 728 149 751 175 Q 764 188 753 202 Q 737 220 694 246 Q 678 255 608 239 Q 563 236 353 197 C 324 192 336 159 365 166 Q 453 188 607 206 Q 638 209 653 198 Q 666 188 664 168 Q 640 27 627 12 C 615 -15 601 -3 607 -11 Z"/>
  <path id="z26360d9" d="M 380 73 Q 387 72 400 73 Q 509 89 590 98 Q 612 99 605 113 Q 595 126 571 132 Q 547 136 376 98 C 347 92 350 75 380 73 Z"/>
  <path id="z26360d10" d="M 395 -26 Q 405 -29 419 -27 Q 480 -15 607 -11 C 637 -10 649 -8 627 12 Q 620 19 606 29 Q 590 39 559 32 Q 466 13 392 6 C 362 3 366 -20 395 -26 Z"/>
<defs>
  <clipPath id="z26360c1"><use href="#z26360d1"/></clipPath>
  <clipPath id="z26360c2"><use href="#z26360d2"/></clipPath>
  <clipPath id="z26360c3"><use href="#z26360d3"/></clipPath>
  <clipPath id="z26360c4"><use href="#z26360d4"/></clipPath>
  <clipPath id="z26360c5"><use href="#z26360d5"/></clipPath>
  <clipPath id="z26360c6"><use href="#z26360d6"/></clipPath>
  <clipPath id="z26360c7"><use href="#z26360d7"/></clipPath>
  <clipPath id="z26360c8"><use href="#z26360d8"/></clipPath>
  <clipPath id="z26360c9"><use href="#z26360d9"/></clipPath>
  <clipPath id="z26360c10"><use href="#z26360d10"/></clipPath>
</defs>
<path style="--d:1s;" pathLength="3333" clip-path="url(#z26360c1)" d="M 311 691 L 357 686 L 514 707 L 613 729 L 655 727 L 688 692 L 641 553 L 616 540"/>
<path style="--d:2s;" pathLength="3333" clip-path="url(#z26360c2)" d="M 94 565 L 145 555 L 545 610 L 855 636 L 899 631 L 943 617"/>
<path style="--d:3s;" pathLength="3333" clip-path="url(#z26360c3)" d="M 309 480 L 333 475 L 604 513 L 661 504"/>
<path style="--d:4s;" pathLength="3333" clip-path="url(#z26360c4)" d="M 346 380 L 382 378 L 584 412 L 626 414 L 649 407"/>
<path style="--d:5s;" pathLength="3333" clip-path="url(#z26360c5)" d="M 448 827 L 488 798 L 499 776 L 490 343 L 472 321"/>
<path style="--d:6s;" pathLength="3333" clip-path="url(#z26360c6)" d="M 170 268 L 226 261 L 417 292 L 761 329 L 799 324 L 836 311"/>
<path style="--d:7s;" pathLength="3333" clip-path="url(#z26360c7)" d="M 301 198 L 327 176 L 336 158 L 380 -48"/>
<path style="--d:8s;" pathLength="3333" clip-path="url(#z26360c8)" d="M 366 196 L 379 185 L 622 226 L 659 223 L 685 212 L 705 187 L 664 19 L 650 -13 L 614 -7"/>
<path style="--d:9s;" pathLength="3333" clip-path="url(#z26360c9)" d="M 385 80 L 416 93 L 527 110 L 573 114 L 595 108"/>
<path style="--d:10s;" pathLength="3333" clip-path="url(#z26360c10)" d="M 399 1 L 409 -9 L 421 -9 L 572 11 L 618 10"/>
</svg>