<svg id="z29123" class="acjk" viewBox="0 0 1024 1024" xmlns="http://www.w3.org/2000/svg">
  <path id="z29123d1" d="M 131 577 Q 127 525 111 475 Q 102 442 127 416 Q 137 403 153 419 Q 187 468 169 533 Q 165 564 152 583 Q 145 590 140 589 Q 133 585 131 577 Z"/>
  <path id="z29123d2" d="M 282 547 Q 346 590 381 607 Q 394 610 392 618 Q 388 631 374 645 Q 361 660 344 662 Q 332 663 332 648 Q 333 635 284 577 C 265 554 257 530 282 547 Z"/>
  <path id="z29123d3" d="M 269 342 Q 276 415 282 547 L 284 577 Q 285 694 309 761 Q 316 774 305 786 Q 283 804 244 815 Q 219 821 211 814 Q 202 807 210 795 Q 267 702 221 338 Q 194 208 140 132 Q 115 102 82 68 Q 72 58 72 54 Q 73 50 85 52 Q 97 48 126 65 Q 240 125 266 317 L 269 342 Z"/>
  <path id="z29123d4" d="M 266 317 Q 335 248 350 247 Q 357 247 361 257 Q 365 267 360 289 Q 354 316 276 341 Q 273 342 269 342 C 239 344 245 338 266 317 Z"/>
  <path id="z29123d5" d="M 438 555 Q 453 576 469 601 L 473 607 Q 515 691 533 711 Q 540 720 535 730 Q 531 740 508 755 Q 487 768 473 766 Q 458 763 466 747 Q 484 711 421 590 Q 390 535 347 472 Q 340 463 339 459 Q 338 450 347 453 Q 371 457 432 546 L 438 555 Z"/>
  <path id="z29123d6" d="M 469 601 Q 484 586 508 589 Q 560 596 564 588 Q 568 578 554 535 Q 544 489 498 424 Q 455 355 379 287 Q 360 274 377 276 Q 437 280 518 383 Q 569 447 607 533 Q 625 573 637 586 Q 647 593 643 604 Q 639 613 594 631 Q 584 635 565 626 Q 540 614 476 608 Q 473 608 473 607 C 462 605 462 605 469 601 Z"/>
  <path id="z29123d7" d="M 432 546 L 433 544 Q 434 537 449 524 Q 465 508 483 486 Q 490 479 500 477 Q 506 477 510 485 Q 514 492 510 511 Q 506 532 449 552 Q 442 555 438 555 C 428 556 428 556 432 546 Z"/>
  <path id="z29123d8" d="M 403 447 Q 419 425 434 397 Q 440 387 450 384 Q 456 383 462 389 Q 468 396 468 417 Q 468 441 409 477 Q 400 483 396 482 Q 392 481 391 472 Q 391 465 403 447 Z"/>
  <path id="z29123d9" d="M 735 495 Q 880 538 885 542 Q 892 549 888 557 Q 881 567 853 572 Q 825 576 799 563 Q 771 551 743 541 L 692 527 Q 668 523 646 519 Q 613 510 638 497 Q 657 488 683 487 L 735 495 Z"/>
  <path id="z29123d10" d="M 743 541 Q 753 599 761 697 Q 762 731 776 769 Q 782 779 773 787 Q 725 830 689 820 Q 670 813 685 797 Q 710 769 710 741 Q 710 662 692 527 L 683 487 Q 653 358 561 250 Q 551 243 549 238 Q 545 231 560 233 Q 602 242 676 347 Q 683 362 691 376 Q 709 415 725 467 L 743 541 Z"/>
  <path id="z29123d11" d="M 725 467 Q 729 461 734 452 Q 837 251 864 243 Q 952 243 962 244 Q 974 245 978 250 Q 982 254 975 258 Q 843 348 781 432 Q 760 459 738 491 Q 737 494 735 495 L 725 467 Z"/>
  <path id="z29123d12" d="M 831 671 Q 861 638 889 630 Q 902 629 908 640 Q 912 650 908 665 Q 901 684 885 693 Q 881 696 838 704 Q 823 707 816 703 Q 812 702 814 691 Q 817 682 831 671 Z"/>
  <path id="z29123d13" d="M 386 166 Q 358 120 322 80 Q 298 47 310 14 Q 316 -5 338 5 Q 392 35 404 106 Q 414 137 410 163 Q 406 173 400 174 Q 391 174 386 166 Z"/>
  <path id="z29123d14" d="M 488 142 Q 506 81 529 58 Q 539 51 552 58 Q 562 65 565 81 Q 568 121 513 167 L 512 168 Q 500 178 492 178 Q 486 179 484 168 Q 481 158 488 142 Z"/>
  <path id="z29123d15" d="M 630 144 Q 666 81 695 61 Q 705 57 716 65 Q 723 75 724 89 Q 721 131 648 172 L 647 173 Q 634 180 626 178 Q 622 178 621 168 Q 620 158 630 144 Z"/>
  <path id="z29123d16" d="M 787 155 Q 830 106 882 35 Q 897 13 912 7 Q 921 6 929 14 Q 942 27 935 72 Q 929 126 791 187 Q 782 193 779 180 Q 778 167 787 155 Z"/>
<defs>
  <clipPath id="z29123c1"><use href="#z29123d1"/></clipPath>
  <clipPath id="z29123c2"><use href="#z29123d2"/></clipPath>
  <clipPath id="z29123c3"><use href="#z29123d3"/></clipPath>
  <clipPath id="z29123c4"><use href="#z29123d4"/></clipPath>
  <clipPath id="z29123c5"><use href="#z29123d5"/></clipPath>
  <clipPath id="z29123c6"><use href="#z29123d6"/></clipPath>
  <clipPath id="z29123c7"><use href="#z29123d7"/></clipPath>
  <clipPath id="z29123c8"><use href="#z29123d8"/></clipPath>
  <clipPath id="z29123c9"><use href="#z29123d9"/></clipPath>
  <clipPath id="z29123c10"><use href="#z29123d10"/></clipPath>
  <clipPath id="z29123c11"><use href="#z29123d11"/></clipPath>
  <clipPath id="z29123c12"><use href="#z29123d12"/></clipPath>
  <clipPath id="z29123c13"><use href="#z29123d13"/></clipPath>
  <clipPath id="z29123c14"><use href="#z29123d14"/></clipPath>
  <clipPath id="z29123c15"><use href="#z29123d15"/></clipPath>
  <clipPath id="z29123c16"><use href="#z29123d16"/></clipPath>
</defs>
<path style="--d:1s;" pathLength="3333" clip-path="url(#z29123c1)" d="M 142 578 L 148 520 L 139 426"/>
<path style="--d:2s;" pathLength="3333" clip-path="url(#z29123c2)" d="M 343 651 L 354 624 L 300 579 L 288 554"/>
<path style="--d:3s;" pathLength="3333" clip-path="url(#z29123c3)" d="M 219 804 L 254 778 L 267 754 L 261 518 L 241 311 L 224 241 L 188 159 L 142 100 L 79 54"/>
<path style="--d:4s;" pathLength="3333" clip-path="url(#z29123c4)" d="M 272 335 L 285 318 L 331 290 L 350 258"/>
<path style="--d:5s;" pathLength="3333" clip-path="url(#z29123c5)" d="M 474 755 L 492 739 L 500 718 L 471 645 L 414 543 L 368 480 L 348 462"/>
<path style="--d:6s;" pathLength="3333" clip-path="url(#z29123c6)" d="M 477 600 L 581 607 L 598 589 L 563 490 L 516 413 L 439 321 L 382 281"/>
<path style="--d:7s;" pathLength="3333" clip-path="url(#z29123c7)" d="M 439 548 L 484 514 L 499 489"/>
<path style="--d:8s;" pathLength="3333" clip-path="url(#z29123c8)" d="M 400 474 L 442 426 L 451 398"/>
<path style="--d:9s;" pathLength="3333" clip-path="url(#z29123c9)" d="M 640 509 L 676 505 L 713 511 L 834 550 L 879 551"/>
<path style="--d:10s;" pathLength="3333" clip-path="url(#z29123c10)" d="M 690 808 L 715 797 L 740 770 L 729 620 L 709 494 L 679 402 L 654 349 L 592 266 L 555 238"/>
<path style="--d:11s;" pathLength="3333" clip-path="url(#z29123c11)" d="M 739 482 L 737 470 L 779 402 L 878 281 L 972 252"/>
<path style="--d:12s;" pathLength="3333" clip-path="url(#z29123c12)" d="M 823 696 L 874 668 L 892 648"/>
<path style="--d:13s;" pathLength="3333" clip-path="url(#z29123c13)" d="M 399 163 L 370 90 L 327 18"/>
<path style="--d:14s;" pathLength="3333" clip-path="url(#z29123c14)" d="M 494 168 L 530 108 L 541 75"/>
<path style="--d:15s;" pathLength="3333" clip-path="url(#z29123c15)" d="M 630 170 L 680 117 L 703 78"/>
<path style="--d:16s;" pathLength="3333" clip-path="url(#z29123c16)" d="M 790 175 L 892 82 L 914 22"/>
</svg>