<svg id="z24603" class="acjk" viewBox="0 0 1024 1024" xmlns="http://www.w3.org/2000/svg">
  <path id="z24603d1" d="M 114 493 Q 93 429 61 370 Q 43 334 63 301 Q 73 282 94 297 Q 148 348 145 435 Q 148 469 139 495 Q 133 502 127 504 Q 118 503 114 493 Z"/>
  <path id="z24603d2" d="M 264 569 Q 348 493 364 492 Q 373 493 377 505 Q 381 518 373 543 Q 369 561 341 573 Q 278 595 264 591 Q 263 591 263 590 C 247 584 247 584 264 569 Z"/>
  <path id="z24603d3" d="M 263 590 Q 264 672 280 728 Q 289 744 285 757 Q 278 767 222 801 Q 198 817 177 801 Q 173 797 179 781 Q 212 732 213 668 Q 222 242 203 145 Q 199 127 194 108 Q 185 65 211 6 Q 218 -12 226 -15 Q 233 -22 240 -14 Q 267 10 266 69 Q 265 118 264 569 L 263 590 Z"/>
  <path id="z24603d4" d="M 450 627 Q 428 640 404 646 Q 397 649 392 643 Q 385 637 394 626 Q 437 557 448 395 Q 449 341 487 309 Q 488 309 491 307 Q 507 303 508 327 L 507 357 Q 506 378 498 401 Q 494 434 487 474 L 483 502 Q 477 553 475 598 C 474 614 474 614 450 627 Z"/>
  <path id="z24603d5" d="M 670 343 Q 689 313 708 304 Q 721 295 737 320 Q 758 357 793 553 Q 803 587 828 613 Q 841 626 829 642 Q 813 661 766 688 Q 744 698 681 679 Q 654 676 533 646 Q 488 636 450 627 C 421 620 446 589 475 598 Q 551 622 681 645 Q 712 651 722 641 Q 741 619 737 597 Q 706 416 691 388 Q 687 375 671 371 C 657 362 657 362 670 343 Z"/>
  <path id="z24603d6" d="M 487 474 Q 511 471 576 480 Q 660 499 664 502 Q 671 509 667 517 Q 660 527 633 533 Q 621 536 534 512 Q 510 508 483 502 C 454 496 457 477 487 474 Z"/>
  <path id="z24603d7" d="M 508 327 Q 518 326 528 328 Q 573 338 670 343 C 700 345 694 352 671 371 Q 667 375 660 379 Q 644 388 616 381 Q 555 366 507 357 C 478 351 478 329 508 327 Z"/>
  <path id="z24603d8" d="M 333 172 Q 311 169 328 151 Q 343 136 362 130 Q 384 124 402 130 Q 573 176 905 176 Q 926 176 931 185 Q 937 198 919 213 Q 865 253 823 245 Q 669 215 333 172 Z"/>
<defs>
  <clipPath id="z24603c1"><use href="#z24603d1"/></clipPath>
  <clipPath id="z24603c2"><use href="#z24603d2"/></clipPath>
  <clipPath id="z24603c3"><use href="#z24603d3"/></clipPath>
  <clipPath id="z24603c4"><use href="#z24603d4"/></clipPath>
  <clipPath id="z24603c5"><use href="#z24603d5"/></clipPath>
  <clipPath id="z24603c6"><use href="#z24603d6"/></clipPath>
  <clipPath id="z24603c7"><use href="#z24603d7"/></clipPath>
  <clipPath id="z24603c8"><use href="#z24603d8"/></clipPath>
</defs>
<path style="--d:1s;" pathLength="3333" clip-path="url(#z24603c1)" d="M 127 492 L 112 398 L 80 308"/>
<path style="--d:2s;" pathLength="3333" clip-path="url(#z24603c2)" d="M 268 586 L 336 545 L 364 502"/>
<path style="--d:3s;" pathLength="3333" clip-path="url(#z24603c3)" d="M 189 795 L 218 772 L 242 741 L 237 606 L 241 316 L 229 96 L 232 0"/>
<path style="--d:4s;" pathLength="3333" clip-path="url(#z24603c4)" d="M 400 635 L 434 605 L 448 577 L 475 386 L 495 319"/>
<path style="--d:5s;" pathLength="3333" clip-path="url(#z24603c5)" d="M 457 625 L 480 617 L 570 641 L 714 667 L 742 663 L 770 640 L 780 622 L 760 555 L 735 420 L 710 351 L 716 316"/>
<path style="--d:6s;" pathLength="3333" clip-path="url(#z24603c6)" d="M 491 496 L 514 490 L 636 514 L 658 511"/>
<path style="--d:7s;" pathLength="3333" clip-path="url(#z24603c7)" d="M 513 335 L 524 344 L 628 363 L 651 361 L 659 350"/>
<path style="--d:8s;" pathLength="3333" clip-path="url(#z24603c8)" d="M 331 161 L 374 152 L 577 184 L 840 211 L 919 192"/>
</svg>