<svg id="z29790" class="acjk" viewBox="0 0 1024 1024" xmlns="http://www.w3.org/2000/svg">
  <path id="z29790d1" d="M 276 611 Q 399 648 405 653 Q 412 660 408 669 Q 401 679 371 684 Q 343 688 314 674 Q 278 659 240 646 Q 197 633 146 625 Q 112 616 138 602 Q 183 584 235 599 L 276 611 Z"/>
  <path id="z29790d2" d="M 292 421 Q 319 431 350 440 Q 378 450 382 454 Q 389 463 384 470 Q 377 480 349 483 Q 321 486 295 471 Q 294 471 294 470 L 247 451 Q 186 432 148 423 Q 117 414 141 401 Q 183 388 244 406 L 246 406 L 292 421 Z"/>
  <path id="z29790d3" d="M 286 267 Q 289 349 292 421 L 294 470 Q 297 591 298 592 Q 288 602 276 611 C 252 630 224 627 235 599 Q 247 581 247 451 L 246 406 Q 245 343 244 250 C 244 220 285 237 286 267 Z"/>
  <path id="z29790d4" d="M 244 250 Q 190 231 134 209 Q 118 202 89 201 Q 76 198 75 188 Q 74 173 85 166 Q 110 153 146 136 Q 156 133 168 144 Q 192 166 342 256 Q 363 269 377 282 Q 390 292 389 301 Q 382 307 286 267 L 244 250 Z"/>
  <path id="z29790d5" d="M 637 586 Q 644 668 665 768 Q 668 778 651 791 Q 620 807 599 812 Q 586 815 578 808 Q 571 801 578 788 Q 599 757 598 577 C 598 547 634 556 637 586 Z"/>
  <path id="z29790d6" d="M 750 607 Q 689 600 637 586 L 598 577 Q 552 567 512 552 Q 496 549 501 567 Q 513 642 504 655 Q 491 671 471 683 Q 461 687 452 686 Q 442 682 449 666 Q 465 627 459 589 Q 455 552 438 536 Q 423 520 429 509 Q 439 496 454 486 Q 466 479 475 487 Q 502 520 666 560 Q 726 576 747 573 C 777 573 780 611 750 607 Z"/>
  <path id="z29790d7" d="M 747 573 Q 748 555 754 541 Q 760 525 772 534 Q 799 555 811 627 Q 832 684 839 689 Q 848 702 840 715 Q 825 731 799 752 Q 789 759 777 756 Q 770 753 771 741 Q 777 732 773 665 Q 769 644 750 607 L 747 573 Z"/>
  <path id="z29790d8" d="M 606 398 Q 762 435 772 442 Q 779 449 775 457 Q 768 467 741 474 Q 716 478 611 442 Q 542 424 471 414 Q 438 408 462 393 Q 507 372 567 390 Q 568 390 570 390 L 606 398 Z"/>
  <path id="z29790d9" d="M 572 276 Q 587 298 603 327 Q 610 340 623 357 Q 636 367 629 375 Q 622 385 606 398 C 583 417 569 420 570 390 Q 573 348 537 271 Q 537 270 536 268 C 525 240 555 251 572 276 Z"/>
  <path id="z29790d10" d="M 431 242 Q 407 263 386 265 Q 382 268 377 262 Q 373 256 377 245 Q 405 196 397 59 Q 393 38 402 21 Q 414 3 428 -8 Q 441 -15 443 -5 Q 449 -2 450 17 Q 454 33 449 84 Q 442 172 443 205 C 443 232 443 232 431 242 Z"/>
  <path id="z29790d11" d="M 686 269 Q 741 279 806 285 Q 825 284 832 274 Q 839 267 835 255 Q 832 83 820 59 Q 816 50 804 53 Q 777 57 747 63 Q 720 64 739 48 Q 803 -1 828 -38 Q 840 -51 852 -41 Q 879 -14 886 88 Q 892 232 906 255 Q 919 274 914 281 Q 907 293 858 322 Q 842 335 827 328 Q 800 318 752 308 Q 640 292 572 276 L 536 268 Q 517 265 505 260 Q 463 250 431 242 C 402 235 414 198 443 205 Q 453 205 463 209 Q 485 219 521 230 L 553 240 Q 599 253 648 262 L 686 269 Z"/>
  <path id="z29790d12" d="M 521 230 L 522 229 Q 535 178 535 101 Q 534 77 544 60 Q 556 39 562 51 Q 572 66 572 100 Q 573 193 577 212 Q 578 224 574 229 Q 568 233 553 240 C 526 253 511 258 521 230 Z"/>
  <path id="z29790d13" d="M 657 37 Q 660 18 664 11 Q 668 5 674 7 Q 680 8 684 20 Q 691 41 702 153 Q 705 211 713 235 Q 717 248 706 256 Q 696 265 686 269 C 659 282 633 288 648 262 Q 649 258 653 254 Q 660 239 656 103 Q 655 54 657 37 Z"/>
<defs>
  <clipPath id="z29790c1"><use href="#z29790d1"/></clipPath>
  <clipPath id="z29790c2"><use href="#z29790d2"/></clipPath>
  <clipPath id="z29790c3"><use href="#z29790d3"/></clipPath>
  <clipPath id="z29790c4"><use href="#z29790d4"/></clipPath>
  <clipPath id="z29790c5"><use href="#z29790d5"/></clipPath>
  <clipPath id="z29790c6"><use href="#z29790d6"/></clipPath>
  <clipPath id="z29790c7"><use href="#z29790d7"/></clipPath>
  <clipPath id="z29790c8"><use href="#z29790d8"/></clipPath>
  <clipPath id="z29790c9"><use href="#z29790d9"/></clipPath>
  <clipPath id="z29790c10"><use href="#z29790d10"/></clipPath>
  <clipPath id="z29790c11"><use href="#z29790d11"/></clipPath>
  <clipPath id="z29790c12"><use href="#z29790d12"/></clipPath>
  <clipPath id="z29790c13"><use href="#z29790d13"/></clipPath>
</defs>
<path style="--d:1s;" pathLength="3333" clip-path="url(#z29790c1)" d="M 139 614 L 210 615 L 342 658 L 399 662"/>
<path style="--d:2s;" pathLength="3333" clip-path="url(#z29790c2)" d="M 142 413 L 197 416 L 331 459 L 374 463"/>
<path style="--d:3s;" pathLength="3333" clip-path="url(#z29790c3)" d="M 242 600 L 269 576 L 271 553 L 266 292 L 260 271 L 248 259"/>
<path style="--d:4s;" pathLength="3333" clip-path="url(#z29790c4)" d="M 90 186 L 148 175 L 386 297"/>
<path style="--d:5s;" pathLength="3333" clip-path="url(#z29790c5)" d="M 588 799 L 619 770 L 626 750 L 618 602 L 602 589"/>
<path style="--d:6s;" pathLength="3333" clip-path="url(#z29790c6)" d="M 456 677 L 482 644 L 484 603 L 476 531 L 516 533 L 594 559 L 730 589 L 743 602"/>
<path style="--d:7s;" pathLength="3333" clip-path="url(#z29790c7)" d="M 783 745 L 807 701 L 764 541"/>
<path style="--d:8s;" pathLength="3333" clip-path="url(#z29790c8)" d="M 464 405 L 486 400 L 539 404 L 615 419 L 714 449 L 766 451"/>
<path style="--d:9s;" pathLength="3333" clip-path="url(#z29790c9)" d="M 578 385 L 597 368 L 563 290 L 543 280"/>
<path style="--d:10s;" pathLength="3333" clip-path="url(#z29790c10)" d="M 384 256 L 410 228 L 419 190 L 424 36 L 433 7"/>
<path style="--d:11s;" pathLength="3333" clip-path="url(#z29790c11)" d="M 439 238 L 456 228 L 632 275 L 799 302 L 839 303 L 853 294 L 872 268 L 849 42 L 835 18 L 740 57"/>
<path style="--d:12s;" pathLength="3333" clip-path="url(#z29790c12)" d="M 530 225 L 551 213 L 554 58"/>
<path style="--d:13s;" pathLength="3333" clip-path="url(#z29790c13)" d="M 655 261 L 684 237 L 672 16"/>
</svg>