<svg id="z27278" class="acjk" viewBox="0 0 1024 1024" xmlns="http://www.w3.org/2000/svg">
  <path id="z27278d1" d="M 290 530 Q 312 537 337 543 Q 368 552 373 557 Q 380 564 376 573 Q 369 583 339 589 Q 314 593 292 583 L 248 565 Q 160 541 115 533 Q 79 524 106 510 Q 151 489 203 507 Q 218 511 238 515 L 290 530 Z"/>
  <path id="z27278d2" d="M 288 457 Q 288 493 290 530 L 292 583 Q 293 676 313 738 Q 322 753 319 766 Q 312 776 258 809 Q 236 827 215 811 Q 211 807 216 791 Q 247 743 248 694 Q 248 634 248 565 L 243 409 Q 239 333 238 248 Q 234 172 212 101 Q 199 59 225 2 Q 231 -16 239 -19 Q 245 -25 252 -17 Q 259 -13 270 7 Q 280 32 279 62 Q 279 104 287 424 L 288 457 Z"/>
  <path id="z27278d3" d="M 238 515 Q 189 379 46 185 Q 40 175 52 174 Q 73 174 172 295 Q 209 343 243 409 C 313 544 248 543 238 515 Z"/>
  <path id="z27278d4" d="M 287 424 Q 332 379 348 377 Q 360 376 364 392 Q 365 402 357 419 Q 344 438 288 457 C 260 467 266 445 287 424 Z"/>
  <path id="z27278d5" d="M 606 739 Q 618 761 628 770 Q 635 776 633 785 Q 632 795 619 806 Q 583 834 555 826 Q 548 825 550 812 Q 562 733 460 606 Q 457 605 456 601 Q 426 562 349 487 Q 342 483 351 480 Q 459 502 595 721 L 606 739 Z"/>
  <path id="z27278d6" d="M 595 721 Q 773 514 821 506 Q 917 506 960 514 Q 976 515 977 520 Q 980 526 966 531 Q 921 549 868 566 Q 748 611 611 735 Q 608 738 606 739 C 583 758 575 744 595 721 Z"/>
  <path id="z27278d7" d="M 563 597 Q 611 561 623 561 Q 630 562 633 572 Q 636 584 627 604 Q 621 617 600 624 Q 548 636 540 630 Q 536 627 538 618 Q 542 611 563 597 Z"/>
  <path id="z27278d8" d="M 619 499 Q 634 506 705 518 Q 712 518 719 528 Q 719 537 701 543 Q 674 559 597 528 Q 594 528 593 527 Q 578 524 469 498 Q 448 494 466 482 Q 493 464 513 471 Q 550 483 599 494 L 619 499 Z"/>
  <path id="z27278d9" d="M 617 430 Q 629 445 645 462 Q 649 465 650 471 Q 646 487 622 498 Q 621 499 619 499 C 598 507 598 507 599 494 Q 598 494 599 493 Q 602 478 580 440 L 565 419 Q 546 392 497 351 Q 493 348 498 346 Q 534 346 594 405 L 617 430 Z"/>
  <path id="z27278d10" d="M 594 405 Q 622 393 652 377 Q 662 371 670 371 Q 674 372 676 378 Q 679 385 667 403 Q 655 421 617 430 L 580 440 Q 531 453 505 456 Q 501 457 502 452 Q 503 445 510 443 Q 535 433 565 419 L 594 405 Z"/>
  <path id="z27278d11" d="M 585 319 Q 669 343 704 334 C 734 329 732 367 702 364 Q 569 351 469 323 Q 456 320 459 337 Q 471 403 466 412 Q 456 425 437 438 Q 430 442 421 442 Q 412 439 417 424 Q 430 390 422 357 Q 418 326 403 312 Q 388 299 393 288 Q 402 276 414 267 Q 424 261 432 267 Q 451 288 551 311 L 585 319 Z"/>
  <path id="z27278d12" d="M 704 334 Q 707 321 711 311 Q 717 298 728 306 Q 749 328 757 392 Q 769 425 776 433 Q 783 443 776 456 Q 763 469 737 487 Q 727 493 717 489 Q 710 486 712 476 Q 734 439 706 374 Q 703 370 702 364 L 704 334 Z"/>
  <path id="z27278d13" d="M 399 217 Q 387 229 366 234 Q 362 237 357 231 Q 354 228 361 205 Q 360 202 365 196 Q 378 162 368 56 Q 364 35 372 18 Q 382 -1 396 -11 Q 409 -20 411 -10 Q 423 0 420 69 Q 419 145 421 174 Q 422 178 422 180 C 424 196 422 198 399 217 Z"/>
  <path id="z27278d14" d="M 581 221 Q 654 234 742 239 Q 761 238 768 228 Q 774 221 770 208 Q 766 75 757 56 Q 753 46 740 49 Q 716 52 691 55 Q 664 56 683 40 Q 740 -8 763 -41 Q 772 -54 783 -45 Q 807 -21 818 65 Q 822 182 842 206 Q 855 225 850 232 Q 843 245 796 275 Q 780 288 765 282 Q 738 272 689 265 Q 638 259 600 253 L 546 245 Q 503 239 399 217 C 370 211 394 170 422 180 Q 491 204 535 212 L 581 221 Z"/>
  <path id="z27278d15" d="M 649 143 Q 592 131 546 119 Q 524 115 533 130 Q 557 179 581 221 L 600 253 Q 618 289 618 290 Q 614 300 585 319 C 560 336 544 340 551 311 Q 560 284 546 245 L 535 212 Q 508 145 482 115 Q 469 102 472 92 Q 476 77 491 65 Q 501 58 510 64 Q 535 83 627 117 Q 646 123 658 129 C 685 141 678 149 649 143 Z"/>
  <path id="z27278d16" d="M 658 129 Q 683 86 696 83 Q 703 82 710 89 Q 716 99 716 121 Q 716 148 647 189 Q 637 195 632 194 Q 628 193 626 183 Q 626 182 649 143 L 658 129 Z"/>
<defs>
  <clipPath id="z27278c1"><use href="#z27278d1"/></clipPath>
  <clipPath id="z27278c2"><use href="#z27278d2"/></clipPath>
  <clipPath id="z27278c3"><use href="#z27278d3"/></clipPath>
  <clipPath id="z27278c4"><use href="#z27278d4"/></clipPath>
  <clipPath id="z27278c5"><use href="#z27278d5"/></clipPath>
  <clipPath id="z27278c6"><use href="#z27278d6"/></clipPath>
  <clipPath id="z27278c7"><use href="#z27278d7"/></clipPath>
  <clipPath id="z27278c8"><use href="#z27278d8"/></clipPath>
  <clipPath id="z27278c9"><use href="#z27278d9"/></clipPath>
  <clipPath id="z27278c10"><use href="#z27278d10"/></clipPath>
  <clipPath id="z27278c11"><use href="#z27278d11"/></clipPath>
  <clipPath id="z27278c12"><use href="#z27278d12"/></clipPath>
  <clipPath id="z27278c13"><use href="#z27278d13"/></clipPath>
  <clipPath id="z27278c14"><use href="#z27278d14"/></clipPath>
  <clipPath id="z27278c15"><use href="#z27278d15"/></clipPath>
  <clipPath id="z27278c16"><use href="#z27278d16"/></clipPath>
</defs>
<path style="--d:1s;" pathLength="3333" clip-path="url(#z27278c1)" d="M 108 523 L 153 519 L 238 538 L 318 565 L 365 567"/>
<path style="--d:2s;" pathLength="3333" clip-path="url(#z27278c2)" d="M 227 804 L 277 752 L 262 266 L 243 75 L 244 -6"/>
<path style="--d:3s;" pathLength="3333" clip-path="url(#z27278c3)" d="M 244 510 L 221 417 L 197 372 L 150 296 L 53 181"/>
<path style="--d:4s;" pathLength="3333" clip-path="url(#z27278c4)" d="M 298 451 L 299 440 L 349 392"/>
<path style="--d:5s;" pathLength="3333" clip-path="url(#z27278c5)" d="M 563 815 L 588 779 L 534 669 L 458 570 L 418 531 L 373 496 L 358 493 L 355 485"/>
<path style="--d:6s;" pathLength="3333" clip-path="url(#z27278c6)" d="M 605 733 L 610 716 L 624 709 L 629 698 L 681 650 L 766 580 L 819 546 L 886 532 L 970 524"/>
<path style="--d:7s;" pathLength="3333" clip-path="url(#z27278c7)" d="M 546 623 L 606 595 L 622 572"/>
<path style="--d:8s;" pathLength="3333" clip-path="url(#z27278c8)" d="M 466 490 L 514 490 L 664 530 L 711 529"/>
<path style="--d:9s;" pathLength="3333" clip-path="url(#z27278c9)" d="M 604 494 L 620 471 L 607 447 L 565 394 L 502 349"/>
<path style="--d:10s;" pathLength="3333" clip-path="url(#z27278c10)" d="M 509 450 L 635 406 L 667 380"/>
<path style="--d:11s;" pathLength="3333" clip-path="url(#z27278c11)" d="M 424 433 L 445 403 L 437 306 L 474 306 L 643 346 L 689 349 L 700 341"/>
<path style="--d:12s;" pathLength="3333" clip-path="url(#z27278c12)" d="M 724 479 L 749 443 L 726 358 L 721 313"/>
<path style="--d:13s;" pathLength="3333" clip-path="url(#z27278c13)" d="M 363 227 L 383 206 L 396 171 L 394 39 L 403 0"/>
<path style="--d:14s;" pathLength="3333" clip-path="url(#z27278c14)" d="M 410 215 L 422 206 L 441 206 L 595 239 L 776 256 L 790 247 L 808 222 L 800 194 L 784 40 L 769 14 L 684 49"/>
<path style="--d:15s;" pathLength="3333" clip-path="url(#z27278c15)" d="M 558 307 L 581 291 L 582 275 L 515 133 L 509 100 L 545 101 L 643 134 L 652 130"/>
<path style="--d:16s;" pathLength="3333" clip-path="url(#z27278c16)" d="M 636 185 L 688 127 L 699 96"/>
</svg>