<svg id="z21862" class="acjk" viewBox="0 0 1024 1024" xmlns="http://www.w3.org/2000/svg">
  <path id="z21862d1" d="M 109 553 Q 100 557 82 562 Q 70 566 67 561 Q 60 557 67 540 Q 92 473 101 367 Q 101 334 118 312 Q 133 290 139 304 Q 146 320 145 350 L 142 384 Q 132 502 131 527 Q 131 528 130 529 L 109 553 Z"/>
  <path id="z21862d2" d="M 263 404 Q 281 501 307 530 Q 328 555 306 568 Q 288 578 263 594 Q 248 603 200 579 Q 143 561 109 553 C 80 546 101 523 130 529 Q 172 538 206 546 Q 228 552 234 542 Q 243 535 234 495 Q 227 455 216 407 C 209 378 257 375 263 404 Z"/>
  <path id="z21862d3" d="M 145 350 Q 163 359 275 375 Q 285 376 285 385 Q 285 392 263 404 L 216 407 Q 213 407 212 406 Q 173 393 142 384 C 113 376 117 339 145 350 Z"/>
  <path id="z21862d4" d="M 479 529 Q 498 536 521 542 Q 546 549 550 554 Q 557 563 552 570 Q 545 580 517 584 Q 498 585 480 579 L 433 559 Q 334 532 329 531 Q 296 522 321 509 Q 355 494 432 515 L 479 529 Z"/>
  <path id="z21862d5" d="M 428 314 Q 424 131 419 110 Q 415 85 398 90 Q 380 97 336 108 Q 320 115 316 109 Q 315 102 330 89 Q 394 37 409 8 Q 419 -11 429 -16 Q 439 -19 442 -15 Q 475 24 474 122 Q 473 141 476 352 L 476 383 Q 476 417 479 529 L 480 579 Q 481 717 496 737 Q 508 750 502 762 Q 495 777 471 789 Q 431 808 416 803 Q 397 796 412 779 Q 428 760 430 717 Q 433 680 433 559 L 432 515 Q 432 434 429 355 L 428 314 Z"/>
  <path id="z21862d6" d="M 429 355 Q 224 235 219 232 Q 204 226 202 217 Q 202 208 216 195 Q 235 182 257 174 Q 272 170 282 182 Q 342 243 428 314 L 476 352 Q 489 364 504 374 Q 523 386 533 400 Q 539 413 528 412 Q 518 412 476 383 L 429 355 Z"/>
  <path id="z21862d7" d="M 658 709 Q 679 687 701 659 Q 714 643 733 643 Q 746 642 752 657 Q 759 673 752 708 Q 748 727 719 742 Q 649 773 632 767 Q 626 763 627 748 Q 630 735 658 709 Z"/>
  <path id="z21862d8" d="M 585 526 Q 548 519 575 503 Q 620 479 675 494 Q 751 510 830 529 Q 866 538 871 543 Q 881 552 875 560 Q 868 572 838 579 Q 814 582 721 553 Q 588 528 585 526 Z"/>
  <path id="z21862d9" d="M 567 354 Q 588 300 617 272 Q 629 265 640 274 Q 649 283 651 297 Q 652 336 606 369 Q 579 391 567 390 Q 561 391 560 380 Q 559 370 567 354 Z"/>
  <path id="z21862d10" d="M 732 200 Q 825 395 832 404 Q 848 419 837 430 Q 825 449 789 469 Q 771 479 753 471 Q 741 465 749 453 Q 768 402 698 215 Q 694 203 692 192 C 686 163 719 173 732 200 Z"/>
  <path id="z21862d11" d="M 692 192 Q 604 179 503 162 Q 484 159 499 143 Q 512 130 530 125 Q 551 121 566 125 Q 701 165 922 165 L 924 165 Q 943 165 948 174 Q 952 184 937 198 Q 880 238 815 217 Q 779 211 732 200 L 692 192 Z"/>
<defs>
  <clipPath id="z21862c1"><use href="#z21862d1"/></clipPath>
  <clipPath id="z21862c2"><use href="#z21862d2"/></clipPath>
  <clipPath id="z21862c3"><use href="#z21862d3"/></clipPath>
  <clipPath id="z21862c4"><use href="#z21862d4"/></clipPath>
  <clipPath id="z21862c5"><use href="#z21862d5"/></clipPath>
  <clipPath id="z21862c6"><use href="#z21862d6"/></clipPath>
  <clipPath id="z21862c7"><use href="#z21862d7"/></clipPath>
  <clipPath id="z21862c8"><use href="#z21862d8"/></clipPath>
  <clipPath id="z21862c9"><use href="#z21862d9"/></clipPath>
  <clipPath id="z21862c10"><use href="#z21862d10"/></clipPath>
  <clipPath id="z21862c11"><use href="#z21862d11"/></clipPath>
</defs>
<path style="--d:1s;" pathLength="3333" clip-path="url(#z21862c1)" d="M 75 553 L 104 514 L 129 310"/>
<path style="--d:2s;" pathLength="3333" clip-path="url(#z21862c2)" d="M 116 549 L 135 544 L 233 570 L 253 565 L 273 545 L 244 428 L 224 413"/>
<path style="--d:3s;" pathLength="3333" clip-path="url(#z21862c3)" d="M 146 356 L 160 372 L 210 386 L 275 385"/>
<path style="--d:4s;" pathLength="3333" clip-path="url(#z21862c4)" d="M 323 521 L 380 524 L 501 561 L 542 563"/>
<path style="--d:5s;" pathLength="3333" clip-path="url(#z21862c5)" d="M 418 790 L 438 780 L 463 752 L 456 651 L 448 112 L 440 76 L 425 54 L 393 65 L 321 106"/>
<path style="--d:6s;" pathLength="3333" clip-path="url(#z21862c6)" d="M 214 215 L 261 213 L 401 319 L 526 404"/>
<path style="--d:7s;" pathLength="3333" clip-path="url(#z21862c7)" d="M 637 759 L 709 707 L 734 661"/>
<path style="--d:8s;" pathLength="3333" clip-path="url(#z21862c8)" d="M 577 516 L 637 512 L 820 553 L 865 553"/>
<path style="--d:9s;" pathLength="3333" clip-path="url(#z21862c9)" d="M 570 380 L 618 316 L 627 288"/>
<path style="--d:10s;" pathLength="3333" clip-path="url(#z21862c10)" d="M 756 461 L 775 450 L 793 418 L 732 245 L 720 220 L 698 197"/>
<path style="--d:11s;" pathLength="3333" clip-path="url(#z21862c11)" d="M 502 152 L 557 147 L 843 194 L 880 194 L 937 179"/>
</svg>