<svg id="z20312" class="acjk" viewBox="0 0 1024 1024" xmlns="http://www.w3.org/2000/svg">
  <path id="z20312d1" d="M 517 737 Q 530 758 543 770 Q 552 776 550 787 Q 549 797 535 811 Q 502 844 465 840 Q 455 837 458 824 Q 471 716 290 521 Q 286 518 283 514 Q 231 460 102 357 Q 92 351 104 348 Q 180 358 314 479 Q 404 569 504 717 L 517 737 Z"/>
  <path id="z20312d2" d="M 504 717 Q 739 455 799 442 Q 910 442 960 452 Q 979 453 981 459 Q 984 466 968 472 Q 761 553 729 573 Q 644 630 523 732 Q 519 735 517 737 C 494 756 484 739 504 717 Z"/>
  <path id="z20312d3" d="M 390 480 Q 350 473 379 455 Q 424 433 496 449 Q 535 458 578 465 Q 600 471 603 473 Q 613 483 608 491 Q 599 504 568 511 Q 540 517 456 490 Q 426 484 390 480 Z"/>
  <path id="z20312d4" d="M 495 319 Q 582 329 714 330 Q 772 327 780 339 Q 784 351 768 365 Q 714 404 674 396 Q 533 366 233 323 Q 211 320 227 303 Q 258 275 309 286 Q 376 305 456 313 L 495 319 Z"/>
  <path id="z20312d5" d="M 456 313 Q 456 312 458 308 Q 471 272 472 160 Q 472 90 466 74 Q 462 61 437 63 Q 407 70 376 75 Q 364 75 363 68 Q 362 62 373 53 Q 442 1 465 -31 Q 481 -44 493 -42 Q 503 -38 515 -3 Q 531 31 528 95 Q 524 201 526 240 Q 533 282 515 303 Q 505 313 495 319 C 471 337 446 341 456 313 Z"/>
  <path id="z20312d6" d="M 290 223 Q 259 174 220 132 Q 195 102 207 66 Q 211 47 234 57 Q 291 84 306 162 Q 316 193 314 219 Q 310 229 305 230 Q 296 230 290 223 Z"/>
  <path id="z20312d7" d="M 626 220 Q 678 171 743 99 Q 759 78 776 73 Q 785 72 793 83 Q 806 96 793 143 Q 783 186 711 218 Q 701 228 627 252 Q 617 258 615 245 Q 615 230 626 220 Z"/>
<defs>
  <clipPath id="z20312c1"><use href="#z20312d1"/></clipPath>
  <clipPath id="z20312c2"><use href="#z20312d2"/></clipPath>
  <clipPath id="z20312c3"><use href="#z20312d3"/></clipPath>
  <clipPath id="z20312c4"><use href="#z20312d4"/></clipPath>
  <clipPath id="z20312c5"><use href="#z20312d5"/></clipPath>
  <clipPath id="z20312c6"><use href="#z20312d6"/></clipPath>
  <clipPath id="z20312c7"><use href="#z20312d7"/></clipPath>
</defs>
<path style="--d:1s;" pathLength="3333" clip-path="url(#z20312c1)" d="M 468 829 L 482 817 L 500 786 L 457 697 L 393 604 L 276 473 L 192 405 L 108 354"/>
<path style="--d:2s;" pathLength="3333" clip-path="url(#z20312c2)" d="M 516 730 L 521 714 L 539 696 L 657 590 L 723 537 L 784 499 L 827 483 L 975 461"/>
<path style="--d:3s;" pathLength="3333" clip-path="url(#z20312c3)" d="M 381 469 L 426 463 L 547 486 L 595 485"/>
<path style="--d:4s;" pathLength="3333" clip-path="url(#z20312c4)" d="M 230 313 L 284 306 L 489 341 L 690 364 L 771 345"/>
<path style="--d:5s;" pathLength="3333" clip-path="url(#z20312c5)" d="M 463 313 L 489 292 L 496 275 L 500 104 L 495 56 L 477 24 L 444 33 L 372 67"/>
<path style="--d:6s;" pathLength="3333" clip-path="url(#z20312c6)" d="M 303 219 L 271 144 L 223 69"/>
<path style="--d:7s;" pathLength="3333" clip-path="url(#z20312c7)" d="M 626 240 L 742 156 L 764 125 L 777 90"/>
</svg>