<svg id="z25240" class="acjk" viewBox="0 0 1024 1024" xmlns="http://www.w3.org/2000/svg">
  <path id="z25240d1" d="M 338 554 Q 362 563 389 570 Q 420 580 426 585 Q 435 595 429 604 Q 419 616 388 620 Q 363 623 340 614 L 293 594 Q 200 564 150 553 Q 113 543 142 527 Q 193 506 248 527 Q 269 534 292 540 L 338 554 Z"/>
  <path id="z25240d2" d="M 288 352 Q 287 273 285 177 Q 284 155 271 146 Q 267 142 204 145 Q 173 155 175 145 Q 176 138 197 125 Q 255 82 270 58 Q 288 30 302 28 Q 315 28 329 61 Q 345 104 341 174 Q 335 280 335 387 L 335 422 Q 335 489 338 554 L 340 614 Q 340 713 360 778 Q 376 806 324 829 Q 293 848 273 841 Q 257 835 271 813 Q 292 786 293 754 Q 294 738 293 594 L 292 540 Q 291 479 289 398 L 288 352 Z"/>
  <path id="z25240d3" d="M 289 398 Q 202 355 127 311 Q 90 290 65 284 Q 52 278 49 270 Q 48 260 62 245 Q 83 229 107 219 Q 117 216 142 232 Q 199 289 288 352 L 335 387 Q 359 406 384 421 Q 406 433 416 447 Q 423 460 412 461 Q 406 461 335 422 L 289 398 Z"/>
  <path id="z25240d4" d="M 561 586 Q 664 625 717 656 Q 763 681 803 694 Q 821 697 824 706 Q 827 718 812 728 Q 788 741 739 755 Q 723 761 708 758 Q 701 754 701 741 Q 702 705 551 604 C 526 587 533 575 561 586 Z"/>
  <path id="z25240d5" d="M 555 447 Q 558 570 560 578 Q 561 582 561 586 C 562 599 562 599 551 604 Q 548 607 544 608 Q 493 630 478 627 Q 459 623 476 601 Q 510 544 497 339 Q 490 284 466 219 Q 441 147 362 68 Q 349 55 345 48 Q 344 41 356 42 Q 396 45 461 120 Q 545 222 553 410 L 555 447 Z"/>
  <path id="z25240d6" d="M 744 447 Q 759 450 920 468 Q 939 469 943 478 Q 947 490 930 502 Q 867 535 811 513 Q 661 474 555 447 C 526 440 523 412 553 410 Q 572 406 626 420 Q 651 429 682 435 L 744 447 Z"/>
  <path id="z25240d7" d="M 702 -39 Q 708 -64 714 -73 Q 720 -80 727 -78 Q 745 -66 748 -11 Q 755 49 753 107 Q 746 333 764 415 Q 767 433 753 442 Q 749 446 744 447 C 719 463 673 463 682 435 Q 694 411 698 305 Q 698 -7 702 -39 Z"/>
<defs>
  <clipPath id="z25240c1"><use href="#z25240d1"/></clipPath>
  <clipPath id="z25240c2"><use href="#z25240d2"/></clipPath>
  <clipPath id="z25240c3"><use href="#z25240d3"/></clipPath>
  <clipPath id="z25240c4"><use href="#z25240d4"/></clipPath>
  <clipPath id="z25240c5"><use href="#z25240d5"/></clipPath>
  <clipPath id="z25240c6"><use href="#z25240d6"/></clipPath>
  <clipPath id="z25240c7"><use href="#z25240d7"/></clipPath>
</defs>
<path style="--d:1s;" pathLength="3333" clip-path="url(#z25240c1)" d="M 143 541 L 207 541 L 354 590 L 417 596"/>
<path style="--d:2s;" pathLength="3333" clip-path="url(#z25240c2)" d="M 280 826 L 305 810 L 325 782 L 315 631 L 311 149 L 292 105 L 182 143"/>
<path style="--d:3s;" pathLength="3333" clip-path="url(#z25240c3)" d="M 61 267 L 116 261 L 351 419 L 412 453"/>
<path style="--d:4s;" pathLength="3333" clip-path="url(#z25240c4)" d="M 812 710 L 737 712 L 643 642 L 569 604 L 568 596"/>
<path style="--d:5s;" pathLength="3333" clip-path="url(#z25240c5)" d="M 481 614 L 522 581 L 525 566 L 527 402 L 513 287 L 486 205 L 456 148 L 415 97 L 353 49"/>
<path style="--d:6s;" pathLength="3333" clip-path="url(#z25240c6)" d="M 558 416 L 575 431 L 827 488 L 872 492 L 932 483"/>
<path style="--d:7s;" pathLength="3333" clip-path="url(#z25240c7)" d="M 690 435 L 726 407 L 723 -68"/>
</svg>