<svg id="z27998" class="acjk" viewBox="0 0 1024 1024" xmlns="http://www.w3.org/2000/svg">
  <path id="z27998d1" d="M 230 694 Q 261 667 295 635 Q 310 620 327 621 Q 339 622 345 637 Q 349 653 340 685 Q 328 722 224 746 Q 208 750 200 747 Q 194 743 196 729 Q 200 716 230 694 Z"/>
  <path id="z27998d2" d="M 145 503 Q 199 446 233 433 Q 249 430 259 445 Q 265 458 261 476 Q 249 521 157 544 Q 139 548 129 545 Q 122 544 126 530 Q 127 517 145 503 Z"/>
  <path id="z27998d3" d="M 127 134 Q 114 130 117 112 Q 135 33 169 16 Q 176 9 187 12 Q 194 13 195 40 Q 201 85 297 347 Q 304 363 303 370 Q 302 380 293 373 Q 280 364 167 177 Q 155 155 127 134 Z"/>
  <path id="z27998d4" d="M 462 685 Q 449 692 414 696 Q 401 700 397 694 Q 390 687 400 669 Q 433 605 455 500 Q 459 469 478 448 Q 499 424 503 442 Q 506 452 507 466 L 503 503 Q 493 536 477 651 C 473 680 473 680 462 685 Z"/>
  <path id="z27998d5" d="M 730 537 Q 758 633 799 665 Q 818 684 801 704 Q 723 764 678 741 Q 584 705 462 685 C 432 680 447 646 477 651 Q 489 652 504 657 Q 589 673 668 691 Q 689 695 698 687 Q 708 677 705 653 Q 692 592 676 541 C 667 512 721 508 730 537 Z"/>
  <path id="z27998d6" d="M 603 480 Q 661 490 747 497 Q 759 498 760 509 Q 760 518 730 537 L 676 541 Q 675 542 672 541 Q 578 516 503 503 C 473 498 477 467 507 466 Q 517 465 530 467 Q 540 470 555 472 L 603 480 Z"/>
  <path id="z27998d7" d="M 621 133 Q 625 224 629 302 L 630 333 Q 633 453 634 454 Q 619 469 603 480 C 579 498 544 500 555 472 Q 571 433 572 411 Q 573 383 573 162 C 573 132 620 103 621 133 Z"/>
  <path id="z27998d8" d="M 629 302 Q 635 301 644 302 Q 732 315 796 323 Q 824 327 813 343 Q 800 359 771 365 Q 734 371 630 333 C 602 323 599 304 629 302 Z"/>
  <path id="z27998d9" d="M 453 248 Q 469 279 485 304 Q 495 317 480 331 Q 435 362 411 357 Q 399 353 403 339 Q 419 228 308 92 Q 293 86 260 36 Q 253 20 268 26 Q 316 38 395 145 Q 413 170 437 218 L 453 248 Z"/>
  <path id="z27998d10" d="M 437 218 Q 519 136 663 46 Q 670 42 680 36 Q 753 -12 783 -9 Q 786 -8 791 -8 Q 843 2 899 15 Q 936 25 945 38 Q 949 51 929 52 Q 743 76 740 78 Q 686 91 621 133 L 573 162 Q 515 201 453 248 C 429 266 416 239 437 218 Z"/>
<defs>
  <clipPath id="z27998c1"><use href="#z27998d1"/></clipPath>
  <clipPath id="z27998c2"><use href="#z27998d2"/></clipPath>
  <clipPath id="z27998c3"><use href="#z27998d3"/></clipPath>
  <clipPath id="z27998c4"><use href="#z27998d4"/></clipPath>
  <clipPath id="z27998c5"><use href="#z27998d5"/></clipPath>
  <clipPath id="z27998c6"><use href="#z27998d6"/></clipPath>
  <clipPath id="z27998c7"><use href="#z27998d7"/></clipPath>
  <clipPath id="z27998c8"><use href="#z27998d8"/></clipPath>
  <clipPath id="z27998c9"><use href="#z27998d9"/></clipPath>
  <clipPath id="z27998c10"><use href="#z27998d10"/></clipPath>
</defs>
<path style="--d:1s;" pathLength="3333" clip-path="url(#z27998c1)" d="M 206 739 L 297 682 L 324 643"/>
<path style="--d:2s;" pathLength="3333" clip-path="url(#z27998c2)" d="M 136 536 L 215 484 L 238 456"/>
<path style="--d:3s;" pathLength="3333" clip-path="url(#z27998c3)" d="M 181 22 L 169 52 L 165 107 L 297 367"/>
<path style="--d:4s;" pathLength="3333" clip-path="url(#z27998c4)" d="M 405 686 L 439 660 L 449 636 L 491 447"/>
<path style="--d:5s;" pathLength="3333" clip-path="url(#z27998c5)" d="M 471 682 L 492 672 L 680 716 L 699 718 L 722 711 L 750 682 L 711 565 L 683 546"/>
<path style="--d:6s;" pathLength="3333" clip-path="url(#z27998c6)" d="M 513 473 L 524 487 L 670 515 L 728 516 L 750 508"/>
<path style="--d:7s;" pathLength="3333" clip-path="url(#z27998c7)" d="M 562 464 L 595 448 L 602 431 L 597 202 L 601 168 L 618 141"/>
<path style="--d:8s;" pathLength="3333" clip-path="url(#z27998c8)" d="M 637 310 L 649 321 L 750 342 L 802 335"/>
<path style="--d:9s;" pathLength="3333" clip-path="url(#z27998c9)" d="M 414 345 L 443 309 L 413 221 L 348 112 L 270 36"/>
<path style="--d:10s;" pathLength="3333" clip-path="url(#z27998c10)" d="M 456 240 L 463 217 L 554 147 L 653 83 L 725 47 L 782 31 L 935 41"/>
</svg>