<svg id="z24636" class="acjk" viewBox="0 0 1024 1024" xmlns="http://www.w3.org/2000/svg">
  <path id="z24636d1" d="M 398 488 Q 435 548 480 643 Q 490 664 500 675 Q 513 685 505 695 Q 496 705 461 717 Q 439 726 393 704 Q 320 683 225 670 Q 212 670 212 661 Q 211 655 225 648 Q 268 627 294 638 Q 403 672 413 672 Q 426 669 416 645 Q 388 572 359 520 L 338 484 Q 271 391 198 329 Q 185 317 194 315 Q 204 314 222 324 Q 292 361 353 428 Q 360 437 369 447 L 398 488 Z"/>
  <path id="z24636d2" d="M 369 447 Q 400 407 436 359 Q 446 341 459 337 Q 466 336 473 342 Q 483 352 478 387 Q 475 423 398 488 L 359 520 Q 307 565 276 586 Q 269 590 266 581 Q 265 571 272 561 Q 303 527 338 484 L 369 447 Z"/>
  <path id="z24636d3" d="M 724 634 Q 769 641 831 643 Q 873 643 877 653 Q 881 663 866 675 Q 812 708 751 688 Q 738 685 725 680 L 679 669 Q 673 669 668 667 Q 604 652 526 637 Q 507 633 522 619 Q 535 609 552 604 Q 571 600 585 606 Q 628 619 679 627 L 724 634 Z"/>
  <path id="z24636d4" d="M 679 627 Q 680 540 681 384 Q 680 371 673 365 Q 670 364 606 362 Q 576 369 579 361 Q 580 354 600 344 Q 657 307 673 285 Q 691 258 704 259 Q 717 258 728 289 Q 741 329 736 393 Q 724 514 724 634 L 725 680 Q 729 732 738 763 Q 753 790 704 809 Q 674 825 657 819 Q 642 813 656 793 Q 675 769 677 740 Q 678 731 679 669 L 679 627 Z"/>
  <path id="z24636d5" d="M 533 495 Q 554 474 574 450 Q 584 440 596 439 Q 605 439 609 449 Q 613 459 609 483 Q 606 499 583 513 Q 526 538 516 535 Q 512 532 512 522 Q 513 513 533 495 Z"/>
  <path id="z24636d6" d="M 228 200 Q 203 148 170 100 Q 149 70 166 37 Q 172 19 193 31 Q 215 46 229 75 Q 248 112 250 144 Q 257 175 250 199 Q 246 208 240 209 Q 233 208 228 200 Z"/>
  <path id="z24636d7" d="M 324 208 Q 345 100 428 48 Q 531 -16 733 3 Q 769 10 802 24 Q 827 36 829 52 Q 833 61 798 86 Q 744 134 705 183 Q 693 199 689 192 Q 685 186 689 172 Q 699 139 707 105 Q 714 83 708 74 Q 699 61 659 59 Q 487 52 414 114 Q 380 142 365 192 Q 358 214 346 219 Q 333 226 326 222 Q 320 221 324 208 Z"/>
  <path id="z24636d8" d="M 463 253 Q 553 178 576 178 Q 591 179 595 199 Q 595 212 582 233 Q 567 252 535 262 Q 486 280 465 282 Q 455 283 455 270 Q 455 261 463 253 Z"/>
  <path id="z24636d9" d="M 779 271 Q 827 234 885 178 Q 901 160 917 157 Q 926 156 933 167 Q 943 180 928 223 Q 916 262 846 283 Q 801 296 778 301 Q 768 305 767 293 Q 768 280 779 271 Z"/>
<defs>
  <clipPath id="z24636c1"><use href="#z24636d1"/></clipPath>
  <clipPath id="z24636c2"><use href="#z24636d2"/></clipPath>
  <clipPath id="z24636c3"><use href="#z24636d3"/></clipPath>
  <clipPath id="z24636c4"><use href="#z24636d4"/></clipPath>
  <clipPath id="z24636c5"><use href="#z24636d5"/></clipPath>
  <clipPath id="z24636c6"><use href="#z24636d6"/></clipPath>
  <clipPath id="z24636c7"><use href="#z24636d7"/></clipPath>
  <clipPath id="z24636c8"><use href="#z24636d8"/></clipPath>
  <clipPath id="z24636c9"><use href="#z24636d9"/></clipPath>
</defs>
<path style="--d:1s;" pathLength="3333" clip-path="url(#z24636c1)" d="M 221 661 L 283 657 L 409 692 L 425 693 L 456 679 L 442 630 L 412 566 L 348 457 L 288 392 L 199 321"/>
<path style="--d:2s;" pathLength="3333" clip-path="url(#z24636c2)" d="M 274 577 L 415 434 L 445 396 L 461 354"/>
<path style="--d:3s;" pathLength="3333" clip-path="url(#z24636c3)" d="M 524 628 L 568 624 L 778 668 L 813 669 L 868 658"/>
<path style="--d:4s;" pathLength="3333" clip-path="url(#z24636c4)" d="M 664 806 L 705 771 L 701 622 L 708 366 L 691 327 L 585 359"/>
<path style="--d:5s;" pathLength="3333" clip-path="url(#z24636c5)" d="M 519 527 L 575 488 L 596 453"/>
<path style="--d:6s;" pathLength="3333" clip-path="url(#z24636c6)" d="M 239 198 L 225 140 L 193 78 L 181 41"/>
<path style="--d:7s;" pathLength="3333" clip-path="url(#z24636c7)" d="M 332 214 L 373 130 L 422 79 L 500 44 L 582 30 L 701 32 L 744 49 L 755 59 L 746 88 L 693 187"/>
<path style="--d:8s;" pathLength="3333" clip-path="url(#z24636c8)" d="M 468 269 L 543 228 L 576 195"/>
<path style="--d:9s;" pathLength="3333" clip-path="url(#z24636c9)" d="M 778 290 L 881 230 L 902 205 L 917 174"/>
</svg>