<svg id="z27451" class="acjk" viewBox="0 0 1024 1024" xmlns="http://www.w3.org/2000/svg">
  <path id="z27451d1" d="M 149 604 Q 171 573 195 537 Q 204 524 217 521 Q 226 520 233 529 Q 240 541 239 567 Q 236 600 155 645 Q 142 652 136 651 Q 132 648 130 637 Q 131 627 149 604 Z"/>
  <path id="z27451d2" d="M 440 698 Q 421 667 379 616 Q 375 609 379 603 Q 386 602 393 606 Q 471 658 509 678 Q 525 682 521 693 Q 517 708 498 726 Q 480 742 459 745 Q 446 744 446 726 Q 447 713 440 698 Z"/>
  <path id="z27451d3" d="M 278 792 Q 314 744 291 603 Q 267 494 153 390 Q 143 380 154 379 Q 208 385 268 456 Q 296 487 327 560 Q 327 563 329 564 Q 345 610 348 663 Q 351 744 362 771 Q 369 789 353 795 Q 307 822 282 811 Q 270 805 278 792 Z"/>
  <path id="z27451d4" d="M 371 524 Q 399 497 430 465 Q 440 455 453 455 Q 460 455 465 465 Q 469 475 464 499 Q 457 533 369 561 Q 357 564 352 563 Q 348 560 348 550 Q 351 541 371 524 Z"/>
  <path id="z27451d5" d="M 115 291 Q 134 264 154 233 Q 164 218 179 216 Q 189 215 197 225 Q 204 238 203 268 Q 202 287 176 306 Q 115 345 100 343 Q 96 340 94 328 Q 95 316 115 291 Z"/>
  <path id="z27451d6" d="M 403 361 Q 390 333 358 287 Q 354 280 359 275 Q 366 274 372 279 Q 436 328 467 348 Q 482 352 477 362 Q 471 375 454 389 Q 436 404 418 404 Q 405 403 407 386 Q 410 374 403 361 Z"/>
  <path id="z27451d7" d="M 254 408 Q 287 356 252 210 Q 215 96 91 -1 Q 78 -11 90 -12 Q 141 -12 216 58 Q 294 131 315 260 Q 315 300 331 354 Q 332 366 340 378 Q 347 397 332 404 Q 287 438 260 427 Q 247 423 254 408 Z"/>
  <path id="z27451d8" d="M 359 188 Q 384 160 412 128 Q 422 115 437 114 Q 447 113 453 125 Q 459 138 454 166 Q 447 196 360 232 Q 347 236 340 235 Q 336 232 335 220 Q 336 210 359 188 Z"/>
  <path id="z27451d9" d="M 583 502 Q 664 652 676 678 Q 689 717 705 737 Q 712 750 706 763 Q 699 776 666 794 Q 635 807 616 804 Q 597 800 609 778 Q 636 742 576 588 Q 548 519 506 441 Q 497 428 496 422 Q 495 409 508 415 Q 526 422 563 473 L 583 502 Z"/>
  <path id="z27451d10" d="M 563 473 Q 582 458 605 466 Q 657 490 716 506 Q 747 516 757 513 Q 770 507 770 498 Q 770 492 736 435 Q 729 426 733 421 Q 736 415 747 426 Q 835 480 873 492 Q 882 493 883 501 Q 884 514 856 529 Q 787 571 774 566 Q 701 532 583 502 C 554 495 537 488 563 473 Z"/>
  <path id="z27451d11" d="M 600 243 Q 625 334 633 346 Q 643 364 627 374 Q 581 411 555 403 Q 540 399 546 384 Q 573 336 533 199 Q 530 192 527 182 Q 484 67 376 1 Q 360 -9 344 -20 Q 331 -29 343 -32 Q 397 -36 478 30 Q 520 61 542 99 Q 584 186 593 212 L 600 243 Z"/>
  <path id="z27451d12" d="M 593 212 Q 663 107 757 -4 Q 775 -23 804 -21 Q 903 -17 934 -10 Q 943 -7 944 -3 Q 945 1 932 9 Q 791 64 721 129 Q 664 178 600 243 C 579 264 576 237 593 212 Z"/>
<defs>
  <clipPath id="z27451c1"><use href="#z27451d1"/></clipPath>
  <clipPath id="z27451c2"><use href="#z27451d2"/></clipPath>
  <clipPath id="z27451c3"><use href="#z27451d3"/></clipPath>
  <clipPath id="z27451c4"><use href="#z27451d4"/></clipPath>
  <clipPath id="z27451c5"><use href="#z27451d5"/></clipPath>
  <clipPath id="z27451c6"><use href="#z27451d6"/></clipPath>
  <clipPath id="z27451c7"><use href="#z27451d7"/></clipPath>
  <clipPath id="z27451c8"><use href="#z27451d8"/></clipPath>
  <clipPath id="z27451c9"><use href="#z27451d9"/></clipPath>
  <clipPath id="z27451c10"><use href="#z27451d10"/></clipPath>
  <clipPath id="z27451c11"><use href="#z27451d11"/></clipPath>
  <clipPath id="z27451c12"><use href="#z27451d12"/></clipPath>
</defs>
<path style="--d:1s;" pathLength="3333" clip-path="url(#z27451c1)" d="M 139 642 L 201 579 L 218 538"/>
<path style="--d:2s;" pathLength="3333" clip-path="url(#z27451c2)" d="M 461 730 L 477 699 L 385 610"/>
<path style="--d:3s;" pathLength="3333" clip-path="url(#z27451c3)" d="M 286 800 L 308 789 L 326 771 L 322 643 L 309 578 L 282 514 L 247 462 L 191 405 L 159 385"/>
<path style="--d:4s;" pathLength="3333" clip-path="url(#z27451c4)" d="M 355 555 L 427 507 L 450 471"/>
<path style="--d:5s;" pathLength="3333" clip-path="url(#z27451c5)" d="M 103 337 L 163 277 L 180 236"/>
<path style="--d:6s;" pathLength="3333" clip-path="url(#z27451c6)" d="M 468 358 L 436 364 L 364 281"/>
<path style="--d:7s;" pathLength="3333" clip-path="url(#z27451c7)" d="M 263 416 L 277 410 L 301 380 L 290 268 L 268 181 L 238 120 L 195 66 L 145 23 L 95 -7"/>
<path style="--d:8s;" pathLength="3333" clip-path="url(#z27451c8)" d="M 344 225 L 406 179 L 425 159 L 438 130"/>
<path style="--d:9s;" pathLength="3333" clip-path="url(#z27451c9)" d="M 618 789 L 639 776 L 660 744 L 647 697 L 583 544 L 544 473 L 505 423"/>
<path style="--d:10s;" pathLength="3333" clip-path="url(#z27451c10)" d="M 572 474 L 709 523 L 779 535 L 810 509 L 795 485 L 739 427"/>
<path style="--d:11s;" pathLength="3333" clip-path="url(#z27451c11)" d="M 556 391 L 577 376 L 594 351 L 564 210 L 536 139 L 502 84 L 444 26 L 404 -1 L 349 -26"/>
<path style="--d:12s;" pathLength="3333" clip-path="url(#z27451c12)" d="M 603 234 L 609 214 L 648 167 L 784 30 L 833 14 L 937 -3"/>
</svg>