<svg id="z28598" class="acjk" viewBox="0 0 1024 1024" xmlns="http://www.w3.org/2000/svg">
  <path id="z28598d1" d="M 237 701 Q 261 679 287 652 Q 302 637 319 638 Q 331 638 336 653 Q 342 669 333 701 Q 320 734 232 754 Q 216 758 208 755 Q 202 751 204 737 Q 208 724 237 701 Z"/>
  <path id="z28598d2" d="M 149 507 Q 203 450 241 436 Q 257 435 267 449 Q 273 462 269 480 Q 256 525 161 549 Q 143 553 133 549 Q 126 548 130 534 Q 131 521 149 507 Z"/>
  <path id="z28598d3" d="M 145 122 Q 133 118 136 100 Q 154 24 189 4 Q 196 -3 207 1 Q 214 2 215 28 Q 219 73 318 347 Q 325 363 323 370 Q 322 380 313 373 Q 298 364 187 168 Q 174 146 145 122 Z"/>
  <path id="z28598d4" d="M 574 796 Q 599 778 626 757 Q 642 745 658 748 Q 668 749 673 764 Q 676 780 662 810 Q 655 826 625 836 Q 550 851 540 843 Q 536 839 538 825 Q 544 815 574 796 Z"/>
  <path id="z28598d5" d="M 394 680 Q 376 679 390 663 Q 403 651 419 647 Q 438 643 453 647 Q 621 695 850 696 Q 868 697 872 705 Q 876 715 861 727 Q 809 763 743 743 Q 656 725 394 680 Z"/>
  <path id="z28598d6" d="M 444 592 Q 431 596 404 600 Q 392 601 389 597 Q 383 590 392 575 Q 426 509 450 401 Q 456 367 475 347 Q 494 325 499 342 Q 500 349 501 360 L 500 384 Q 499 397 495 414 Q 467 528 462 562 C 458 588 458 588 444 592 Z"/>
  <path id="z28598d7" d="M 714 386 Q 730 364 745 357 Q 755 350 771 371 Q 784 396 811 526 Q 820 557 843 583 Q 856 596 844 609 Q 828 625 786 652 Q 765 661 749 654 Q 716 645 673 637 Q 615 627 542 612 Q 487 600 444 592 C 415 586 433 554 462 562 Q 547 587 701 612 Q 735 618 746 606 Q 759 591 756 576 Q 735 428 714 418 C 701 401 701 401 714 386 Z"/>
  <path id="z28598d8" d="M 545 540 Q 535 544 514 547 Q 507 548 504 545 Q 500 541 506 530 Q 522 502 533 455 Q 536 442 545 432 Q 557 417 560 428 Q 561 434 562 441 L 559 468 Q 553 505 552 519 C 550 538 550 538 545 540 Z"/>
  <path id="z28598d9" d="M 678 478 Q 688 514 700 524 Q 716 543 699 553 Q 651 577 649 577 Q 643 577 636 573 Q 612 555 545 540 C 516 533 524 508 552 519 Q 564 525 620 535 Q 638 539 642 532 Q 646 531 643 513 Q 642 501 639 487 C 633 458 670 449 678 478 Z"/>
  <path id="z28598d10" d="M 562 441 Q 569 441 578 442 Q 611 449 683 456 Q 690 457 692 464 Q 692 468 678 478 L 639 487 Q 635 487 630 485 Q 590 475 559 468 C 530 461 532 440 562 441 Z"/>
  <path id="z28598d11" d="M 501 360 Q 510 359 525 361 Q 633 377 714 386 C 744 389 744 413 714 418 Q 713 419 711 419 Q 701 422 500 384 C 471 378 471 361 501 360 Z"/>
  <path id="z28598d12" d="M 486 294 Q 476 300 450 305 Q 438 309 435 304 Q 428 298 436 283 Q 458 231 470 146 Q 471 121 485 104 Q 501 82 507 97 Q 510 104 511 117 L 511 139 Q 511 145 511 151 Q 508 173 506 191 L 504 216 Q 500 253 500 267 C 499 288 499 288 486 294 Z"/>
  <path id="z28598d13" d="M 685 132 Q 697 116 709 110 Q 719 103 731 122 Q 741 138 763 229 Q 770 256 790 277 Q 800 287 791 300 Q 778 313 741 336 Q 723 345 710 338 Q 685 332 652 326 Q 609 319 553 307 Q 516 300 486 294 C 457 288 471 259 500 267 Q 563 285 674 301 Q 699 305 707 296 Q 716 286 715 275 Q 700 173 687 163 C 675 143 675 143 685 132 Z"/>
  <path id="z28598d14" d="M 506 191 Q 507 191 512 191 Q 597 204 659 211 Q 680 214 673 225 Q 663 238 641 243 Q 611 247 504 216 C 475 208 476 191 506 191 Z"/>
  <path id="z28598d15" d="M 511 117 Q 517 116 527 117 Q 615 127 685 132 C 715 134 717 158 687 163 Q 669 167 639 161 Q 570 149 511 139 C 481 134 481 119 511 117 Z"/>
  <path id="z28598d16" d="M 358 38 Q 336 37 351 19 Q 366 4 384 -2 Q 406 -9 422 -5 Q 621 40 884 19 Q 885 20 887 19 Q 908 18 914 27 Q 920 39 903 54 Q 849 96 811 89 Q 694 68 358 38 Z"/>
<defs>
  <clipPath id="z28598c1"><use href="#z28598d1"/></clipPath>
  <clipPath id="z28598c2"><use href="#z28598d2"/></clipPath>
  <clipPath id="z28598c3"><use href="#z28598d3"/></clipPath>
  <clipPath id="z28598c4"><use href="#z28598d4"/></clipPath>
  <clipPath id="z28598c5"><use href="#z28598d5"/></clipPath>
  <clipPath id="z28598c6"><use href="#z28598d6"/></clipPath>
  <clipPath id="z28598c7"><use href="#z28598d7"/></clipPath>
  <clipPath id="z28598c8"><use href="#z28598d8"/></clipPath>
  <clipPath id="z28598c9"><use href="#z28598d9"/></clipPath>
  <clipPath id="z28598c10"><use href="#z28598d10"/></clipPath>
  <clipPath id="z28598c11"><use href="#z28598d11"/></clipPath>
  <clipPath id="z28598c12"><use href="#z28598d12"/></clipPath>
  <clipPath id="z28598c13"><use href="#z28598d13"/></clipPath>
  <clipPath id="z28598c14"><use href="#z28598d14"/></clipPath>
  <clipPath id="z28598c15"><use href="#z28598d15"/></clipPath>
  <clipPath id="z28598c16"><use href="#z28598d16"/></clipPath>
</defs>
<path style="--d:1s;" pathLength="3333" clip-path="url(#z28598c1)" d="M 214 747 L 296 693 L 318 656"/>
<path style="--d:2s;" pathLength="3333" clip-path="url(#z28598c2)" d="M 141 540 L 217 491 L 238 473 L 244 458"/>
<path style="--d:3s;" pathLength="3333" clip-path="url(#z28598c3)" d="M 201 12 L 186 54 L 184 96 L 218 156 L 316 366"/>
<path style="--d:4s;" pathLength="3333" clip-path="url(#z28598c4)" d="M 545 837 L 621 803 L 654 767"/>
<path style="--d:5s;" pathLength="3333" clip-path="url(#z28598c5)" d="M 392 672 L 437 666 L 600 698 L 784 723 L 862 710"/>
<path style="--d:6s;" pathLength="3333" clip-path="url(#z28598c6)" d="M 398 590 L 426 568 L 434 553 L 487 347"/>
<path style="--d:7s;" pathLength="3333" clip-path="url(#z28598c7)" d="M 451 589 L 475 581 L 717 630 L 770 625 L 797 590 L 747 402 L 751 377"/>
<path style="--d:8s;" pathLength="3333" clip-path="url(#z28598c8)" d="M 511 538 L 530 525 L 554 436"/>
<path style="--d:9s;" pathLength="3333" clip-path="url(#z28598c9)" d="M 553 525 L 574 537 L 649 553 L 672 535 L 663 503 L 647 492"/>
<path style="--d:10s;" pathLength="3333" clip-path="url(#z28598c10)" d="M 566 448 L 575 457 L 626 468 L 685 463"/>
<path style="--d:11s;" pathLength="3333" clip-path="url(#z28598c11)" d="M 506 366 L 517 376 L 543 381 L 696 401 L 711 413"/>
<path style="--d:12s;" pathLength="3333" clip-path="url(#z28598c12)" d="M 443 296 L 465 277 L 473 259 L 497 103"/>
<path style="--d:13s;" pathLength="3333" clip-path="url(#z28598c13)" d="M 493 289 L 513 284 L 693 319 L 726 315 L 750 285 L 711 141 L 715 125"/>
<path style="--d:14s;" pathLength="3333" clip-path="url(#z28598c14)" d="M 509 198 L 521 208 L 579 219 L 629 226 L 664 221"/>
<path style="--d:15s;" pathLength="3333" clip-path="url(#z28598c15)" d="M 515 123 L 547 133 L 669 148 L 681 156"/>
<path style="--d:16s;" pathLength="3333" clip-path="url(#z28598c16)" d="M 354 29 L 406 18 L 609 43 L 812 56 L 867 48 L 903 34"/>
</svg>