<svg id="z23547" class="acjk" viewBox="0 0 1024 1024" xmlns="http://www.w3.org/2000/svg">
  <path id="z23547d1" d="M 663 538 Q 699 679 744 717 Q 760 736 746 755 Q 665 815 612 785 Q 515 752 384 738 Q 366 737 368 727 Q 371 718 390 711 Q 415 699 453 711 Q 535 726 616 741 Q 637 745 645 737 Q 658 724 654 695 Q 638 613 617 548 C 608 519 655 509 663 538 Z"/>
  <path id="z23547d2" d="M 346 615 Q 327 614 339 596 Q 346 587 356 584 Q 366 583 379 585 Q 449 603 601 621 Q 611 622 612 632 Q 613 639 581 659 Q 565 666 535 659 Q 430 628 346 615 Z"/>
  <path id="z23547d3" d="M 617 548 Q 607 547 600 545 Q 464 509 352 494 Q 330 491 344 472 Q 351 462 363 459 Q 375 455 390 459 Q 480 481 674 501 Q 687 502 688 513 Q 688 520 663 538 C 644 552 644 552 617 548 Z"/>
  <path id="z23547d4" d="M 685 319 Q 766 322 865 319 Q 899 318 930 317 Q 952 317 958 326 Q 965 339 946 356 Q 886 404 817 389 Q 759 380 686 368 L 630 360 Q 581 356 524 348 Q 343 329 131 309 Q 107 308 124 287 Q 158 253 203 262 Q 393 310 631 318 L 685 319 Z"/>
  <path id="z23547d5" d="M 589 46 Q 535 59 483 72 Q 470 73 471 66 Q 472 59 484 52 Q 587 -17 627 -61 Q 643 -79 659 -63 Q 695 -26 691 47 Q 688 84 685 319 L 686 368 Q 689 390 696 409 Q 706 428 688 442 Q 661 464 630 475 Q 611 482 602 474 Q 596 467 607 451 Q 629 414 630 360 L 631 318 Q 637 68 615 49 Q 605 42 589 46 Z"/>
  <path id="z23547d6" d="M 354 205 Q 379 181 407 152 Q 420 139 436 139 Q 446 139 453 153 Q 457 168 450 197 Q 441 227 350 254 Q 334 258 328 255 Q 324 251 324 238 Q 327 228 354 205 Z"/>
<defs>
  <clipPath id="z23547c1"><use href="#z23547d1"/></clipPath>
  <clipPath id="z23547c2"><use href="#z23547d2"/></clipPath>
  <clipPath id="z23547c3"><use href="#z23547d3"/></clipPath>
  <clipPath id="z23547c4"><use href="#z23547d4"/></clipPath>
  <clipPath id="z23547c5"><use href="#z23547d5"/></clipPath>
  <clipPath id="z23547c6"><use href="#z23547d6"/></clipPath>
</defs>
<path style="--d:1s;" pathLength="3333" clip-path="url(#z23547c1)" d="M 378 728 L 440 725 L 637 768 L 676 755 L 697 734 L 695 723 L 646 564 L 626 552"/>
<path style="--d:2s;" pathLength="3333" clip-path="url(#z23547c2)" d="M 344 605 L 358 600 L 380 603 L 561 640 L 602 631"/>
<path style="--d:3s;" pathLength="3333" clip-path="url(#z23547c3)" d="M 350 482 L 380 477 L 616 521 L 679 512"/>
<path style="--d:4s;" pathLength="3333" clip-path="url(#z23547c4)" d="M 128 298 L 182 287 L 460 325 L 830 356 L 898 350 L 946 333"/>
<path style="--d:5s;" pathLength="3333" clip-path="url(#z23547c5)" d="M 611 468 L 638 445 L 660 414 L 659 99 L 649 23 L 637 2 L 613 6 L 479 66"/>
<path style="--d:6s;" pathLength="3333" clip-path="url(#z23547c6)" d="M 333 249 L 409 196 L 434 159"/>
</svg>