<svg id="z29647" class="acjk" viewBox="0 0 1024 1024" xmlns="http://www.w3.org/2000/svg">
  <path id="z29647d1" d="M 298 651 Q 419 681 424 685 Q 433 695 428 703 Q 419 716 388 722 Q 355 728 323 714 Q 287 701 248 689 Q 205 679 153 672 Q 114 665 143 647 Q 182 626 246 639 L 298 651 Z"/>
  <path id="z29647d2" d="M 310 444 Q 400 466 408 473 Q 417 480 412 489 Q 405 499 376 505 Q 343 509 311 494 L 261 477 Q 254 476 248 473 Q 208 463 159 456 Q 125 449 150 434 Q 196 413 259 432 Q 260 432 262 432 L 310 444 Z"/>
  <path id="z29647d3" d="M 307 261 Q 308 360 310 444 L 311 494 Q 311 569 315 610 Q 322 631 298 651 C 277 672 236 667 246 639 Q 258 621 261 477 L 262 432 Q 262 357 262 242 C 262 212 307 231 307 261 Z"/>
  <path id="z29647d4" d="M 262 242 Q 204 220 143 193 Q 124 186 93 183 Q 80 180 79 170 Q 78 157 89 149 Q 113 136 147 121 Q 157 120 169 129 Q 202 159 373 257 Q 397 270 414 287 Q 426 296 425 305 Q 419 309 407 306 Q 359 284 307 261 L 262 242 Z"/>
  <path id="z29647d5" d="M 651 673 Q 825 706 830 709 Q 840 718 835 727 Q 828 740 797 749 Q 764 756 663 726 Q 542 707 500 703 Q 460 699 488 679 Q 531 652 593 664 L 651 673 Z"/>
  <path id="z29647d6" d="M 666 421 Q 672 422 792 437 Q 802 436 812 448 Q 813 461 790 472 Q 753 493 672 471 Q 669 471 668 470 L 612 458 Q 546 451 481 442 Q 451 438 474 420 Q 504 395 551 403 Q 578 409 611 413 L 666 421 Z"/>
  <path id="z29647d7" d="M 659 172 Q 663 307 666 421 L 668 470 Q 671 588 674 623 Q 683 650 651 673 C 628 693 584 693 593 664 Q 608 627 612 527 Q 612 500 612 458 L 611 413 Q 610 319 608 165 C 608 135 658 142 659 172 Z"/>
  <path id="z29647d8" d="M 608 165 Q 496 152 366 136 Q 344 135 360 115 Q 376 99 395 93 Q 419 87 436 92 Q 596 131 893 132 Q 909 132 927 131 Q 949 130 955 140 Q 961 153 943 168 Q 886 211 844 203 Q 774 190 659 172 L 608 165 Z"/>
  <path id="z29647d9" d="M 784 303 Q 808 281 834 253 Q 846 240 861 240 Q 871 240 877 253 Q 881 266 875 295 Q 866 325 781 349 Q 766 353 760 351 Q 756 347 756 335 Q 759 325 784 303 Z"/>
<defs>
  <clipPath id="z29647c1"><use href="#z29647d1"/></clipPath>
  <clipPath id="z29647c2"><use href="#z29647d2"/></clipPath>
  <clipPath id="z29647c3"><use href="#z29647d3"/></clipPath>
  <clipPath id="z29647c4"><use href="#z29647d4"/></clipPath>
  <clipPath id="z29647c5"><use href="#z29647d5"/></clipPath>
  <clipPath id="z29647c6"><use href="#z29647d6"/></clipPath>
  <clipPath id="z29647c7"><use href="#z29647d7"/></clipPath>
  <clipPath id="z29647c8"><use href="#z29647d8"/></clipPath>
  <clipPath id="z29647c9"><use href="#z29647d9"/></clipPath>
</defs>
<path style="--d:1s;" pathLength="3333" clip-path="url(#z29647c1)" d="M 145 661 L 203 656 L 359 695 L 418 695"/>
<path style="--d:2s;" pathLength="3333" clip-path="url(#z29647c2)" d="M 152 446 L 229 446 L 347 480 L 402 483"/>
<path style="--d:3s;" pathLength="3333" clip-path="url(#z29647c3)" d="M 253 640 L 284 616 L 285 286 L 275 259 L 265 251"/>
<path style="--d:4s;" pathLength="3333" clip-path="url(#z29647c4)" d="M 94 168 L 141 158 L 156 162 L 356 263 L 420 302"/>
<path style="--d:5s;" pathLength="3333" clip-path="url(#z29647c5)" d="M 491 693 L 514 686 L 565 686 L 661 699 L 775 724 L 825 719"/>
<path style="--d:6s;" pathLength="3333" clip-path="url(#z29647c6)" d="M 476 432 L 526 424 L 736 457 L 801 450"/>
<path style="--d:7s;" pathLength="3333" clip-path="url(#z29647c7)" d="M 601 662 L 638 632 L 640 590 L 635 198 L 613 174"/>
<path style="--d:8s;" pathLength="3333" clip-path="url(#z29647c8)" d="M 363 125 L 418 116 L 546 136 L 854 168 L 891 164 L 942 147"/>
<path style="--d:9s;" pathLength="3333" clip-path="url(#z29647c9)" d="M 765 345 L 841 290 L 860 258"/>
</svg>