<svg id="z25307" class="acjk" viewBox="0 0 1024 1024" xmlns="http://www.w3.org/2000/svg">
  <path id="z25307d1" d="M 349 533 Q 368 540 390 546 Q 424 558 430 563 Q 437 572 432 580 Q 425 592 394 596 Q 372 599 351 592 L 304 572 Q 226 542 146 527 Q 109 517 138 503 Q 183 485 246 504 Q 273 513 303 519 L 349 533 Z"/>
  <path id="z25307d2" d="M 299 344 Q 296 253 295 137 Q 294 113 281 104 Q 274 98 216 111 Q 185 123 187 113 Q 188 106 207 91 Q 264 43 278 17 Q 294 -14 308 -16 Q 321 -17 336 16 Q 354 59 353 130 Q 346 256 346 381 L 346 412 Q 346 473 349 533 L 351 592 Q 358 730 372 771 Q 388 799 336 821 Q 305 840 285 833 Q 269 827 283 805 Q 304 778 305 746 Q 306 727 304 572 L 303 519 Q 302 461 300 384 L 299 344 Z"/>
  <path id="z25307d3" d="M 346 381 Q 362 394 378 405 Q 399 418 409 432 Q 415 445 404 444 L 346 412 L 300 384 Q 210 332 131 281 Q 98 262 77 255 Q 64 249 63 241 Q 62 234 76 220 Q 95 205 117 198 Q 132 194 142 206 Q 202 272 299 344 L 346 381 Z"/>
  <path id="z25307d4" d="M 601 620 Q 688 645 758 657 Q 779 660 783 653 Q 793 640 786 603 Q 774 503 749 459 Q 731 428 702 432 Q 675 439 651 449 Q 626 456 644 433 Q 689 390 710 356 Q 728 335 746 351 Q 800 387 829 504 Q 856 636 869 652 Q 882 665 876 676 Q 866 688 814 710 Q 792 720 773 706 Q 749 691 659 669 Q 568 644 489 638 Q 471 637 469 627 Q 468 620 492 608 Q 517 592 537 601 Q 553 607 571 611 L 601 620 Z"/>
  <path id="z25307d5" d="M 571 611 Q 571 590 574 566 Q 573 566 573 563 Q 540 440 406 295 Q 400 291 400 283 Q 400 279 405 279 Q 480 295 611 505 Q 611 512 642 557 Q 648 567 641 580 Q 620 613 601 620 C 575 635 570 637 571 611 Z"/>
  <path id="z25307d6" d="M 511 264 Q 499 268 476 273 Q 463 277 459 272 Q 452 265 461 249 Q 492 176 506 60 Q 509 24 527 1 Q 546 -23 551 -7 Q 560 15 555 54 L 551 89 Q 535 198 532 231 C 529 259 529 259 511 264 Z"/>
  <path id="z25307d7" d="M 805 127 Q 830 211 865 239 Q 884 258 868 279 Q 849 294 792 321 Q 773 330 748 320 Q 655 283 511 264 C 481 260 503 224 532 231 Q 550 237 727 270 Q 749 276 760 266 Q 770 256 768 234 Q 758 176 745 127 C 738 98 796 98 805 127 Z"/>
  <path id="z25307d8" d="M 555 54 Q 562 54 570 55 Q 649 73 823 88 Q 833 89 835 98 Q 835 107 805 127 C 790 137 774 133 745 127 Q 637 103 551 89 C 521 84 525 53 555 54 Z"/>
<defs>
  <clipPath id="z25307c1"><use href="#z25307d1"/></clipPath>
  <clipPath id="z25307c2"><use href="#z25307d2"/></clipPath>
  <clipPath id="z25307c3"><use href="#z25307d3"/></clipPath>
  <clipPath id="z25307c4"><use href="#z25307d4"/></clipPath>
  <clipPath id="z25307c5"><use href="#z25307d5"/></clipPath>
  <clipPath id="z25307c6"><use href="#z25307d6"/></clipPath>
  <clipPath id="z25307c7"><use href="#z25307d7"/></clipPath>
  <clipPath id="z25307c8"><use href="#z25307d8"/></clipPath>
</defs>
<path style="--d:1s;" pathLength="3333" clip-path="url(#z25307c1)" d="M 139 516 L 216 519 L 365 568 L 420 573"/>
<path style="--d:2s;" pathLength="3333" clip-path="url(#z25307c2)" d="M 292 818 L 317 802 L 336 778 L 323 456 L 324 121 L 317 91 L 302 63 L 276 70 L 193 111"/>
<path style="--d:3s;" pathLength="3333" clip-path="url(#z25307c3)" d="M 74 240 L 120 235 L 236 323 L 401 436"/>
<path style="--d:4s;" pathLength="3333" clip-path="url(#z25307c4)" d="M 478 627 L 519 619 L 536 622 L 782 682 L 798 682 L 826 659 L 804 522 L 793 482 L 765 423 L 732 395 L 644 442"/>
<path style="--d:5s;" pathLength="3333" clip-path="url(#z25307c5)" d="M 581 604 L 598 590 L 608 565 L 572 487 L 517 401 L 468 339 L 407 287"/>
<path style="--d:6s;" pathLength="3333" clip-path="url(#z25307c6)" d="M 466 265 L 490 245 L 503 222 L 540 0"/>
<path style="--d:7s;" pathLength="3333" clip-path="url(#z25307c7)" d="M 520 262 L 531 254 L 550 252 L 686 278 L 737 294 L 777 293 L 815 256 L 783 156 L 753 133"/>
<path style="--d:8s;" pathLength="3333" clip-path="url(#z25307c8)" d="M 562 61 L 574 75 L 741 104 L 803 107 L 825 98"/>
</svg>