<svg id="z28493" class="acjk" viewBox="0 0 1024 1024" xmlns="http://www.w3.org/2000/svg">
  <path id="z28493d1" d="M 189 676 Q 208 654 229 626 Q 242 610 258 609 Q 270 608 277 621 Q 284 636 278 668 Q 275 687 249 703 Q 183 734 168 731 Q 162 728 162 714 Q 165 702 189 676 Z"/>
  <path id="z28493d2" d="M 104 493 Q 141 444 175 424 Q 190 420 199 433 Q 206 445 204 461 Q 200 485 183 498 Q 131 540 99 533 Q 96 533 94 532 Q 87 531 89 519 Q 90 507 104 493 Z"/>
  <path id="z28493d3" d="M 95 127 Q 85 123 87 107 Q 109 37 138 23 Q 145 16 154 20 Q 161 21 160 45 Q 164 88 187 154 Q 259 379 259 383 Q 258 392 250 385 Q 240 379 135 175 Q 123 151 95 127 Z"/>
  <path id="z28493d4" d="M 413 468 Q 373 468 340 467 Q 306 466 323 486 Q 381 601 438 686 Q 451 702 448 709 Q 444 722 407 749 Q 391 761 375 756 Q 365 752 371 739 Q 393 688 300 514 Q 285 493 264 472 Q 248 457 250 447 Q 254 431 268 414 Q 278 404 289 412 Q 326 436 399 446 C 429 450 443 468 413 468 Z"/>
  <path id="z28493d5" d="M 399 446 Q 317 320 294 306 Q 284 297 286 285 Q 287 275 311 259 Q 321 249 333 260 Q 376 296 482 341 Q 498 345 499 353 Q 500 363 484 358 Q 432 345 368 322 Q 346 312 359 332 Q 393 386 474 495 Q 496 529 517 548 Q 527 557 521 565 Q 511 581 482 596 Q 469 603 461 600 Q 452 597 455 584 Q 458 551 413 468 L 399 446 Z"/>
  <path id="z28493d6" d="M 254 148 Q 244 145 243 136 Q 243 126 252 119 Q 274 109 305 97 Q 314 96 323 105 Q 341 126 466 211 Q 484 223 495 236 Q 505 243 504 252 Q 498 256 488 252 Q 298 155 254 148 Z"/>
  <path id="z28493d7" d="M 577 503 Q 658 630 678 671 Q 694 708 710 728 Q 717 738 712 750 Q 708 760 679 779 Q 654 792 636 791 Q 620 787 629 768 Q 641 747 633 716 Q 597 598 503 448 Q 496 438 494 432 Q 491 422 504 426 Q 516 429 550 469 L 577 503 Z"/>
  <path id="z28493d8" d="M 611 126 Q 610 364 620 423 Q 626 451 607 472 Q 592 487 577 503 C 556 525 536 496 550 469 Q 577 424 578 332 Q 577 313 577 291 Q 577 164 544 35 Q 532 -16 566 -55 Q 567 -58 570 -60 Q 586 -76 598 -50 Q 610 -14 611 91 L 611 126 Z"/>
  <path id="z28493d9" d="M 747 657 Q 763 641 780 621 Q 792 608 806 609 Q 816 609 821 621 Q 825 634 819 661 Q 815 676 792 687 Q 735 705 724 703 Q 720 699 720 688 Q 723 678 747 657 Z"/>
  <path id="z28493d10" d="M 766 492 Q 812 505 861 516 Q 888 523 892 528 Q 899 535 895 542 Q 888 552 863 557 Q 838 561 812 549 Q 782 537 749 528 Q 712 518 670 512 Q 639 505 662 492 Q 686 480 726 482 L 766 492 Z"/>
  <path id="z28493d11" d="M 790 364 Q 815 373 847 380 Q 872 387 876 391 Q 883 397 879 403 Q 873 412 851 416 Q 821 420 790 402 L 741 386 Q 708 379 672 372 Q 645 366 666 355 Q 699 339 739 351 Q 740 352 742 351 C 761 354 762 354 790 364 Z"/>
  <path id="z28493d12" d="M 787 257 Q 871 281 872 283 Q 879 289 875 295 Q 869 304 847 308 Q 823 312 788 295 L 742 280 Q 708 271 664 264 Q 637 258 658 247 Q 691 232 733 244 Q 736 245 743 246 L 787 257 Z"/>
  <path id="z28493d13" d="M 785 157 Q 786 209 787 257 L 788 295 Q 789 332 790 364 L 790 402 Q 790 424 792 447 Q 799 465 790 474 Q 777 486 766 492 C 741 508 718 511 726 482 Q 736 452 741 386 L 742 351 Q 742 323 742 280 L 743 246 Q 743 204 743 149 C 743 119 784 127 785 157 Z"/>
  <path id="z28493d14" d="M 743 149 Q 682 139 611 126 C 581 121 581 95 611 91 Q 612 92 614 91 Q 632 87 646 91 Q 757 121 934 122 Q 952 123 956 130 Q 960 140 945 152 Q 891 188 833 168 Q 811 164 785 157 L 743 149 Z"/>
<defs>
  <clipPath id="z28493c1"><use href="#z28493d1"/></clipPath>
  <clipPath id="z28493c2"><use href="#z28493d2"/></clipPath>
  <clipPath id="z28493c3"><use href="#z28493d3"/></clipPath>
  <clipPath id="z28493c4"><use href="#z28493d4"/></clipPath>
  <clipPath id="z28493c5"><use href="#z28493d5"/></clipPath>
  <clipPath id="z28493c6"><use href="#z28493d6"/></clipPath>
  <clipPath id="z28493c7"><use href="#z28493d7"/></clipPath>
  <clipPath id="z28493c8"><use href="#z28493d8"/></clipPath>
  <clipPath id="z28493c9"><use href="#z28493d9"/></clipPath>
  <clipPath id="z28493c10"><use href="#z28493d10"/></clipPath>
  <clipPath id="z28493c11"><use href="#z28493d11"/></clipPath>
  <clipPath id="z28493c12"><use href="#z28493d12"/></clipPath>
  <clipPath id="z28493c13"><use href="#z28493d13"/></clipPath>
  <clipPath id="z28493c14"><use href="#z28493d14"/></clipPath>
</defs>
<path style="--d:1s;" pathLength="3333" clip-path="url(#z28493c1)" d="M 171 724 L 237 671 L 259 628"/>
<path style="--d:2s;" pathLength="3333" clip-path="url(#z28493c2)" d="M 98 523 L 166 471 L 181 443"/>
<path style="--d:3s;" pathLength="3333" clip-path="url(#z28493c3)" d="M 148 29 L 134 66 L 130 105 L 157 154 L 254 383"/>
<path style="--d:4s;" pathLength="3333" clip-path="url(#z28493c4)" d="M 379 746 L 401 724 L 409 704 L 351 574 L 295 473 L 291 452 L 371 453 L 405 465"/>
<path style="--d:5s;" pathLength="3333" clip-path="url(#z28493c5)" d="M 465 589 L 484 559 L 422 449 L 402 428 L 344 339 L 339 305 L 371 305 L 491 353"/>
<path style="--d:6s;" pathLength="3333" clip-path="url(#z28493c6)" d="M 257 135 L 304 131 L 449 214 L 499 249"/>
<path style="--d:7s;" pathLength="3333" clip-path="url(#z28493c7)" d="M 639 778 L 662 756 L 672 737 L 651 680 L 569 522 L 534 468 L 501 433"/>
<path style="--d:8s;" pathLength="3333" clip-path="url(#z28493c8)" d="M 577 493 L 579 466 L 592 445 L 596 386 L 593 185 L 574 10 L 582 -50"/>
<path style="--d:9s;" pathLength="3333" clip-path="url(#z28493c9)" d="M 727 694 L 785 659 L 805 625"/>
<path style="--d:10s;" pathLength="3333" clip-path="url(#z28493c10)" d="M 664 503 L 718 500 L 846 536 L 884 537"/>
<path style="--d:11s;" pathLength="3333" clip-path="url(#z28493c11)" d="M 666 364 L 702 361 L 831 397 L 868 399"/>
<path style="--d:12s;" pathLength="3333" clip-path="url(#z28493c12)" d="M 658 256 L 721 257 L 830 290 L 867 291"/>
<path style="--d:13s;" pathLength="3333" clip-path="url(#z28493c13)" d="M 734 479 L 761 461 L 764 441 L 765 179 L 749 157"/>
<path style="--d:14s;" pathLength="3333" clip-path="url(#z28493c14)" d="M 613 97 L 653 114 L 847 146 L 903 146 L 947 135"/>
</svg>