<svg id="z21078" class="acjk" viewBox="0 0 1024 1024" xmlns="http://www.w3.org/2000/svg">
  <path id="z21078d1" d="M 353 755 Q 380 734 410 710 Q 425 698 441 700 Q 453 701 457 716 Q 460 732 448 762 Q 441 781 409 792 Q 331 810 320 803 Q 316 799 318 785 Q 322 775 353 755 Z"/>
  <path id="z21078d2" d="M 471 608 Q 481 612 495 614 Q 537 624 543 630 Q 550 637 547 645 Q 540 655 514 662 Q 490 668 374 630 Q 277 612 236 606 Q 202 600 227 585 Q 266 564 316 576 Q 376 589 439 602 L 471 608 Z"/>
  <path id="z21078d3" d="M 244 515 Q 277 440 295 434 Q 305 430 316 443 Q 320 453 318 473 Q 314 491 295 504 Q 268 529 255 536 Q 248 540 244 530 Q 241 524 244 515 Z"/>
  <path id="z21078d4" d="M 431 429 Q 452 463 479 518 Q 486 537 503 559 Q 515 569 507 579 Q 498 592 472 608 L 471 608 C 444 622 423 627 439 602 Q 448 593 445 560 Q 435 512 410 446 Q 406 434 404 424 C 397 395 415 403 431 429 Z"/>
  <path id="z21078d5" d="M 404 424 Q 200 390 122 386 Q 110 385 106 377 Q 103 367 117 355 Q 156 325 197 338 Q 386 392 571 408 Q 587 409 589 417 Q 590 430 573 439 Q 546 452 524 448 Q 473 438 431 429 L 404 424 Z"/>
  <path id="z21078d6" d="M 250 277 Q 238 281 217 284 Q 207 287 203 282 Q 197 276 205 261 Q 233 206 249 116 Q 253 88 269 71 Q 285 50 290 65 Q 294 80 293 103 L 287 138 Q 271 223 270 249 C 268 272 268 272 250 277 Z"/>
  <path id="z21078d7" d="M 464 163 Q 483 232 505 252 Q 530 279 506 294 Q 443 330 442 330 Q 430 331 419 325 Q 367 294 250 277 C 220 273 241 242 270 249 Q 306 258 386 274 Q 417 281 425 268 Q 432 262 425 232 Q 418 201 410 166 C 403 137 456 134 464 163 Z"/>
  <path id="z21078d8" d="M 293 103 Q 303 115 476 129 Q 486 130 488 139 Q 488 148 464 163 C 446 174 439 173 410 166 Q 341 150 287 138 C 258 131 267 88 293 103 Z"/>
  <path id="z21078d9" d="M 627 597 Q 661 513 641 329 Q 634 293 664 257 Q 674 247 682 258 Q 697 282 699 352 Q 689 482 698 570 Q 704 592 684 602 Q 647 626 630 618 Q 623 611 627 597 Z"/>
  <path id="z21078d10" d="M 805 715 Q 809 678 813 122 Q 812 98 800 89 Q 799 89 746 93 Q 712 108 715 96 Q 716 89 736 72 Q 788 21 801 -7 Q 814 -38 829 -42 Q 845 -43 860 -6 Q 879 40 878 118 Q 859 361 862 604 Q 865 695 877 744 Q 893 775 836 798 Q 800 816 781 808 Q 762 801 780 778 Q 802 750 805 715 Z"/>
<defs>
  <clipPath id="z21078c1"><use href="#z21078d1"/></clipPath>
  <clipPath id="z21078c2"><use href="#z21078d2"/></clipPath>
  <clipPath id="z21078c3"><use href="#z21078d3"/></clipPath>
  <clipPath id="z21078c4"><use href="#z21078d4"/></clipPath>
  <clipPath id="z21078c5"><use href="#z21078d5"/></clipPath>
  <clipPath id="z21078c6"><use href="#z21078d6"/></clipPath>
  <clipPath id="z21078c7"><use href="#z21078d7"/></clipPath>
  <clipPath id="z21078c8"><use href="#z21078d8"/></clipPath>
  <clipPath id="z21078c9"><use href="#z21078d9"/></clipPath>
  <clipPath id="z21078c10"><use href="#z21078d10"/></clipPath>
</defs>
<path style="--d:1s;" pathLength="3333" clip-path="url(#z21078c1)" d="M 325 797 L 411 753 L 439 718"/>
<path style="--d:2s;" pathLength="3333" clip-path="url(#z21078c2)" d="M 229 597 L 290 593 L 504 640 L 536 640"/>
<path style="--d:3s;" pathLength="3333" clip-path="url(#z21078c3)" d="M 254 526 L 261 509 L 294 470 L 300 449"/>
<path style="--d:4s;" pathLength="3333" clip-path="url(#z21078c4)" d="M 445 600 L 468 584 L 474 569 L 439 476 L 422 439 L 410 428"/>
<path style="--d:5s;" pathLength="3333" clip-path="url(#z21078c5)" d="M 116 373 L 157 362 L 184 363 L 520 426 L 579 421"/>
<path style="--d:6s;" pathLength="3333" clip-path="url(#z21078c6)" d="M 211 275 L 243 240 L 280 70"/>
<path style="--d:7s;" pathLength="3333" clip-path="url(#z21078c7)" d="M 261 277 L 276 266 L 399 295 L 435 299 L 444 294 L 467 270 L 444 191 L 417 172"/>
<path style="--d:8s;" pathLength="3333" clip-path="url(#z21078c8)" d="M 296 111 L 309 126 L 372 139 L 443 146 L 478 139"/>
<path style="--d:9s;" pathLength="3333" clip-path="url(#z21078c9)" d="M 637 609 L 667 575 L 672 463 L 668 301 L 673 263"/>
<path style="--d:10s;" pathLength="3333" clip-path="url(#z21078c10)" d="M 787 793 L 805 785 L 838 753 L 836 368 L 845 109 L 839 75 L 824 47 L 722 94"/>
</svg>