<svg id="z25665" class="acjk" viewBox="0 0 1024 1024" xmlns="http://www.w3.org/2000/svg">
  <path id="z25665d1" d="M 305 535 Q 365 556 369 559 Q 378 568 372 576 Q 365 588 334 592 Q 321 593 307 591 L 259 575 Q 190 547 106 531 Q 69 521 98 507 Q 144 486 198 505 Q 226 514 258 522 L 305 535 Z"/>
  <path id="z25665d2" d="M 253 343 Q 252 255 249 142 Q 248 118 235 110 Q 232 107 156 116 Q 125 126 127 117 Q 128 110 149 97 Q 213 51 229 24 Q 248 -7 265 -8 Q 278 -8 292 25 Q 308 68 306 138 Q 300 262 301 384 L 301 413 Q 301 474 305 535 L 307 591 Q 323 730 328 742 Q 344 770 292 793 Q 261 812 242 805 Q 224 799 239 777 Q 260 752 260 718 Q 261 702 259 575 L 258 522 Q 257 464 254 384 L 253 343 Z"/>
  <path id="z25665d3" d="M 254 384 Q 179 339 113 295 Q 82 274 59 267 Q 47 260 46 252 Q 45 245 60 231 Q 79 218 101 211 Q 117 207 126 219 Q 169 271 253 343 L 301 384 Q 340 417 345 424 Q 351 437 340 436 Q 330 433 308 417 Q 304 416 301 413 L 254 384 Z"/>
  <path id="z25665d4" d="M 461 684 Q 437 700 411 708 Q 404 711 400 705 Q 391 701 401 688 Q 446 604 448 413 Q 449 350 484 326 Q 485 325 488 323 Q 504 319 505 346 L 505 377 Q 504 396 498 417 Q 483 571 480 650 C 479 673 479 673 461 684 Z"/>
  <path id="z25665d5" d="M 703 366 Q 713 345 733 310 Q 742 294 751 297 Q 764 300 772 323 Q 802 392 801 482 Q 804 539 806 604 Q 809 647 829 676 Q 844 694 832 706 Q 813 725 769 742 Q 751 751 722 739 Q 617 700 461 684 C 431 681 450 645 480 650 Q 484 650 489 651 Q 723 705 741 686 Q 769 638 740 418 Q 739 397 730 395 Q 729 394 724 395 C 702 375 699 373 703 366 Z"/>
  <path id="z25665d6" d="M 626 541 Q 642 545 660 549 Q 717 558 723 565 Q 723 574 707 580 Q 685 595 632 575 L 590 564 Q 574 563 561 559 Q 542 556 522 553 Q 503 549 518 538 Q 534 525 576 530 Q 580 531 587 532 L 626 541 Z"/>
  <path id="z25665d7" d="M 587 532 Q 572 466 530 434 Q 520 425 517 421 Q 516 417 524 416 Q 569 416 605 477 Q 620 504 626 541 L 632 575 Q 633 587 636 598 Q 640 611 641 619 Q 645 634 632 641 Q 599 660 589 658 Q 576 657 585 641 Q 594 628 590 564 L 587 532 Z"/>
  <path id="z25665d8" d="M 642 485 Q 690 442 696 441 Q 703 441 706 449 Q 709 456 704 475 Q 701 488 682 498 Q 637 519 628 514 Q 625 513 625 504 Q 626 497 642 485 Z"/>
  <path id="z25665d9" d="M 505 346 Q 514 345 524 347 Q 582 359 703 366 C 733 368 747 376 724 395 Q 720 399 712 404 Q 697 413 668 406 Q 577 387 505 377 C 475 373 475 347 505 346 Z"/>
  <path id="z25665d10" d="M 393 251 Q 371 187 337 129 Q 319 99 337 67 Q 344 51 364 63 Q 383 79 395 109 Q 417 157 419 199 Q 422 229 415 251 Q 411 258 405 260 Q 398 259 393 251 Z"/>
  <path id="z25665d11" d="M 458 226 Q 465 135 535 77 Q 620 11 803 11 Q 833 15 860 23 Q 882 30 886 44 Q 890 53 860 83 Q 814 138 783 193 Q 774 211 769 205 Q 766 202 774 114 Q 781 69 717 72 Q 578 81 529 139 Q 505 164 497 205 Q 493 229 482 235 Q 469 242 462 240 Q 456 239 458 226 Z"/>
  <path id="z25665d12" d="M 590 262 Q 614 237 638 208 Q 648 195 662 194 Q 672 194 677 205 Q 683 217 678 244 Q 669 277 591 304 Q 578 308 572 307 Q 568 304 567 293 Q 570 283 590 262 Z"/>
  <path id="z25665d13" d="M 810 289 Q 856 252 912 198 Q 928 180 942 177 Q 951 177 957 187 Q 967 200 953 238 Q 938 283 809 317 Q 800 321 799 310 Q 799 297 810 289 Z"/>
<defs>
  <clipPath id="z25665c1"><use href="#z25665d1"/></clipPath>
  <clipPath id="z25665c2"><use href="#z25665d2"/></clipPath>
  <clipPath id="z25665c3"><use href="#z25665d3"/></clipPath>
  <clipPath id="z25665c4"><use href="#z25665d4"/></clipPath>
  <clipPath id="z25665c5"><use href="#z25665d5"/></clipPath>
  <clipPath id="z25665c6"><use href="#z25665d6"/></clipPath>
  <clipPath id="z25665c7"><use href="#z25665d7"/></clipPath>
  <clipPath id="z25665c8"><use href="#z25665d8"/></clipPath>
  <clipPath id="z25665c9"><use href="#z25665d9"/></clipPath>
  <clipPath id="z25665c10"><use href="#z25665d10"/></clipPath>
  <clipPath id="z25665c11"><use href="#z25665d11"/></clipPath>
  <clipPath id="z25665c12"><use href="#z25665d12"/></clipPath>
  <clipPath id="z25665c13"><use href="#z25665d13"/></clipPath>
</defs>
<path style="--d:1s;" pathLength="3333" clip-path="url(#z25665c1)" d="M 99 520 L 158 519 L 316 567 L 362 569"/>
<path style="--d:2s;" pathLength="3333" clip-path="url(#z25665c2)" d="M 247 790 L 273 775 L 292 751 L 278 458 L 274 110 L 255 67 L 185 92 L 146 109 L 144 115 L 133 115"/>
<path style="--d:3s;" pathLength="3333" clip-path="url(#z25665c3)" d="M 58 251 L 104 248 L 339 428"/>
<path style="--d:4s;" pathLength="3333" clip-path="url(#z25665c4)" d="M 405 697 L 441 665 L 451 642 L 474 404 L 492 332"/>
<path style="--d:5s;" pathLength="3333" clip-path="url(#z25665c5)" d="M 470 682 L 500 668 L 739 717 L 765 709 L 786 688 L 772 444 L 764 389 L 747 362 L 749 311"/>
<path style="--d:6s;" pathLength="3333" clip-path="url(#z25665c6)" d="M 527 544 L 565 543 L 678 570 L 718 568"/>
<path style="--d:7s;" pathLength="3333" clip-path="url(#z25665c7)" d="M 590 649 L 616 621 L 601 512 L 587 477 L 568 451 L 550 434 L 522 421"/>
<path style="--d:8s;" pathLength="3333" clip-path="url(#z25665c8)" d="M 632 507 L 685 472 L 698 449"/>
<path style="--d:9s;" pathLength="3333" clip-path="url(#z25665c9)" d="M 510 354 L 521 363 L 714 395"/>
<path style="--d:10s;" pathLength="3333" clip-path="url(#z25665c10)" d="M 404 249 L 389 169 L 358 102 L 352 73"/>
<path style="--d:11s;" pathLength="3333" clip-path="url(#z25665c11)" d="M 466 231 L 476 217 L 496 151 L 531 107 L 572 80 L 617 61 L 688 46 L 774 46 L 812 63 L 809 93 L 772 203"/>
<path style="--d:12s;" pathLength="3333" clip-path="url(#z25665c12)" d="M 576 298 L 636 253 L 650 238 L 662 210"/>
<path style="--d:13s;" pathLength="3333" clip-path="url(#z25665c13)" d="M 809 306 L 912 241 L 930 221 L 942 192"/>
</svg>