<svg id="z27142" class="acjk" viewBox="0 0 1024 1024" xmlns="http://www.w3.org/2000/svg">
  <path id="z27142d1" d="M 307 511 Q 323 518 346 523 Q 380 533 385 539 Q 394 548 388 556 Q 381 568 350 573 Q 326 576 308 568 L 264 551 Q 174 518 107 507 Q 70 497 98 483 Q 140 465 216 486 Q 229 490 246 493 L 307 511 Z"/>
  <path id="z27142d2" d="M 260 406 Q 256 322 256 232 Q 252 153 229 81 Q 219 44 243 -22 Q 250 -40 258 -43 Q 264 -50 272 -41 Q 299 -25 300 41 Q 299 84 305 406 L 305 438 Q 305 474 307 511 L 308 568 Q 308 569 309 570 Q 310 669 330 736 Q 339 751 336 764 Q 329 774 274 809 Q 250 827 229 811 Q 225 807 230 790 Q 263 741 263 691 Q 263 627 264 551 L 260 406 Z"/>
  <path id="z27142d3" d="M 246 493 Q 222 427 189 365 Q 149 295 54 165 Q 48 155 60 154 Q 81 154 182 278 Q 222 330 260 406 C 318 521 256 521 246 493 Z"/>
  <path id="z27142d4" d="M 305 406 Q 311 403 362 352 Q 372 342 385 342 Q 392 342 397 353 Q 401 363 395 387 Q 391 405 365 418 Q 338 428 309 437 Q 308 438 305 438 C 276 445 281 424 305 406 Z"/>
  <path id="z27142d5" d="M 598 795 Q 625 777 654 754 Q 669 744 683 745 Q 693 746 697 760 Q 700 775 688 802 Q 681 820 651 830 Q 581 848 568 839 Q 564 835 566 823 Q 570 813 598 795 Z"/>
  <path id="z27142d6" d="M 694 667 Q 740 679 791 690 Q 840 703 847 710 Q 856 717 851 725 Q 844 735 817 742 Q 793 746 686 709 Q 604 685 500 670 Q 466 664 490 649 Q 523 634 596 645 Q 627 654 664 660 L 694 667 Z"/>
  <path id="z27142d7" d="M 675 557 Q 708 605 723 617 Q 730 624 727 634 Q 721 658 694 667 C 666 678 660 681 664 660 Q 671 645 649 593 Q 642 581 636 568 L 616 538 Q 594 507 565 470 Q 558 463 556 458 Q 553 451 564 452 Q 577 455 646 522 L 675 557 Z"/>
  <path id="z27142d8" d="M 646 522 Q 676 506 710 484 Q 723 474 735 473 Q 741 474 744 482 Q 750 492 734 520 Q 724 541 675 557 L 636 568 Q 587 581 561 586 Q 554 587 555 579 Q 556 570 566 565 Q 590 553 616 538 L 646 522 Z"/>
  <path id="z27142d9" d="M 638 398 Q 657 405 680 409 Q 750 425 767 420 Q 773 421 779 424 C 808 430 819 464 789 460 Q 639 442 527 405 Q 509 401 514 422 Q 526 515 517 527 Q 504 543 481 555 Q 471 561 462 559 Q 452 555 459 537 Q 478 494 471 449 Q 467 407 448 388 Q 432 372 439 359 Q 449 346 465 336 Q 478 329 486 336 Q 498 354 591 384 L 638 398 Z"/>
  <path id="z27142d10" d="M 779 424 Q 779 408 793 376 Q 800 361 812 371 Q 836 392 839 467 Q 857 545 862 552 Q 869 565 861 578 Q 845 591 815 610 Q 805 617 793 611 Q 786 608 789 596 Q 811 556 789 460 L 779 424 Z"/>
  <path id="z27142d11" d="M 454 278 Q 436 296 408 300 Q 402 303 398 296 Q 394 290 399 278 Q 418 245 422 216 Q 429 150 424 76 Q 421 54 431 34 Q 444 15 460 4 Q 473 -3 476 7 Q 482 11 483 32 Q 487 48 480 104 Q 470 203 472 239 C 473 262 473 262 454 278 Z"/>
  <path id="z27142d12" d="M 631 278 Q 632 279 635 280 Q 720 298 828 306 Q 847 307 856 297 Q 863 290 861 277 Q 845 87 830 60 Q 826 50 812 53 Q 785 57 755 63 Q 728 64 747 48 Q 808 -1 833 -37 Q 843 -53 858 -42 Q 876 -26 886 0 Q 899 28 910 186 Q 911 244 932 272 Q 947 293 941 301 Q 934 314 883 346 Q 864 359 849 353 Q 821 343 769 334 Q 699 325 648 315 L 598 307 Q 561 301 540 295 Q 492 283 457 279 Q 454 279 454 278 C 424 273 442 238 472 239 Q 491 236 508 243 Q 538 256 587 268 L 631 278 Z"/>
  <path id="z27142d13" d="M 648 315 Q 654 330 662 345 Q 681 367 661 383 Q 649 393 638 398 C 612 413 576 410 591 384 Q 607 368 598 307 L 587 268 Q 562 187 544 177 Q 505 153 529 113 L 530 112 Q 540 99 551 111 Q 561 132 692 188 Q 702 192 711 197 C 738 210 726 226 697 217 Q 690 216 679 211 Q 630 195 601 186 Q 595 187 594 192 Q 593 195 631 278 L 648 315 Z"/>
  <path id="z27142d14" d="M 711 197 Q 747 143 761 140 Q 771 139 777 149 Q 784 161 782 187 Q 779 217 703 258 Q 690 264 684 263 Q 680 260 678 249 Q 679 239 697 217 L 711 197 Z"/>
<defs>
  <clipPath id="z27142c1"><use href="#z27142d1"/></clipPath>
  <clipPath id="z27142c2"><use href="#z27142d2"/></clipPath>
  <clipPath id="z27142c3"><use href="#z27142d3"/></clipPath>
  <clipPath id="z27142c4"><use href="#z27142d4"/></clipPath>
  <clipPath id="z27142c5"><use href="#z27142d5"/></clipPath>
  <clipPath id="z27142c6"><use href="#z27142d6"/></clipPath>
  <clipPath id="z27142c7"><use href="#z27142d7"/></clipPath>
  <clipPath id="z27142c8"><use href="#z27142d8"/></clipPath>
  <clipPath id="z27142c9"><use href="#z27142d9"/></clipPath>
  <clipPath id="z27142c10"><use href="#z27142d10"/></clipPath>
  <clipPath id="z27142c11"><use href="#z27142d11"/></clipPath>
  <clipPath id="z27142c12"><use href="#z27142d12"/></clipPath>
  <clipPath id="z27142c13"><use href="#z27142d13"/></clipPath>
  <clipPath id="z27142c14"><use href="#z27142d14"/></clipPath>
</defs>
<path style="--d:1s;" pathLength="3333" clip-path="url(#z27142c1)" d="M 99 496 L 155 495 L 322 545 L 378 549"/>
<path style="--d:2s;" pathLength="3333" clip-path="url(#z27142c2)" d="M 241 804 L 293 750 L 280 247 L 263 69 L 263 -29"/>
<path style="--d:3s;" pathLength="3333" clip-path="url(#z27142c3)" d="M 260 490 L 251 483 L 239 414 L 208 353 L 144 257 L 61 161"/>
<path style="--d:4s;" pathLength="3333" clip-path="url(#z27142c4)" d="M 306 433 L 325 413 L 359 392 L 383 357"/>
<path style="--d:5s;" pathLength="3333" clip-path="url(#z27142c5)" d="M 574 833 L 648 799 L 680 762"/>
<path style="--d:6s;" pathLength="3333" clip-path="url(#z27142c6)" d="M 492 661 L 534 657 L 584 663 L 745 705 L 808 719 L 840 720"/>
<path style="--d:7s;" pathLength="3333" clip-path="url(#z27142c7)" d="M 672 658 L 691 640 L 691 625 L 638 538 L 586 478 L 563 460"/>
<path style="--d:8s;" pathLength="3333" clip-path="url(#z27142c8)" d="M 563 578 L 690 525 L 721 503 L 732 485"/>
<path style="--d:9s;" pathLength="3333" clip-path="url(#z27142c9)" d="M 467 550 L 494 515 L 497 460 L 488 385 L 499 381 L 534 385 L 652 421 L 764 439 L 781 456"/>
<path style="--d:10s;" pathLength="3333" clip-path="url(#z27142c10)" d="M 802 601 L 830 559 L 804 378"/>
<path style="--d:11s;" pathLength="3333" clip-path="url(#z27142c11)" d="M 406 290 L 435 261 L 445 235 L 453 68 L 467 10"/>
<path style="--d:12s;" pathLength="3333" clip-path="url(#z27142c12)" d="M 458 272 L 496 262 L 632 297 L 826 326 L 860 327 L 878 317 L 899 290 L 882 212 L 871 88 L 853 26 L 845 16 L 828 20 L 748 57"/>
<path style="--d:13s;" pathLength="3333" clip-path="url(#z27142c13)" d="M 598 383 L 628 366 L 632 354 L 610 272 L 578 197 L 578 167 L 596 165 L 660 191 L 692 201 L 704 199"/>
<path style="--d:14s;" pathLength="3333" clip-path="url(#z27142c14)" d="M 687 253 L 749 192 L 763 153"/>
</svg>