<svg id="z28244" class="acjk" viewBox="0 0 1024 1024" xmlns="http://www.w3.org/2000/svg">
  <path id="z28244d1" d="M 241 689 Q 265 667 291 640 Q 306 625 323 626 Q 335 626 340 641 Q 346 657 337 689 Q 324 722 236 742 Q 220 746 212 743 Q 206 739 208 725 Q 212 712 241 689 Z"/>
  <path id="z28244d2" d="M 143 504 Q 188 450 222 435 Q 238 431 247 445 Q 254 458 251 475 Q 239 518 157 542 L 156 543 Q 140 547 129 544 Q 123 543 125 530 Q 126 518 143 504 Z"/>
  <path id="z28244d3" d="M 144 150 Q 134 146 136 130 Q 154 57 187 42 Q 194 35 204 39 Q 211 40 211 65 Q 215 111 298 357 Q 305 373 303 378 Q 302 388 293 381 Q 286 377 181 192 Q 171 173 144 150 Z"/>
  <path id="z28244d4" d="M 455 695 Q 480 670 506 642 Q 518 629 533 628 Q 543 628 549 641 Q 553 654 547 684 Q 541 711 453 741 Q 438 745 432 743 Q 428 739 428 727 Q 431 717 455 695 Z"/>
  <path id="z28244d5" d="M 672 755 Q 660 728 605 635 Q 596 616 614 623 Q 653 653 722 715 Q 740 734 763 749 Q 784 762 770 779 Q 754 795 724 806 Q 697 816 684 812 Q 671 809 678 795 Q 684 776 672 755 Z"/>
  <path id="z28244d6" d="M 343 538 Q 324 535 339 519 Q 352 506 370 502 Q 391 498 406 502 Q 595 562 862 561 Q 863 561 865 561 Q 884 561 888 570 Q 892 582 877 594 Q 823 630 789 620 Q 654 587 343 538 Z"/>
  <path id="z28244d7" d="M 400 207 Q 403 250 407 283 L 410 311 Q 416 377 420 403 C 423 422 423 422 412 429 Q 411 432 407 433 Q 383 446 368 447 Q 356 443 361 433 Q 403 330 350 152 Q 328 92 328 90 Q 328 65 342 44 Q 348 32 357 37 Q 396 67 398 178 L 400 207 Z"/>
  <path id="z28244d8" d="M 420 403 Q 429 403 487 422 Q 503 428 508 419 Q 512 409 515 390 Q 527 219 523 115 Q 522 93 515 82 Q 512 79 453 87 Q 435 91 437 84 Q 483 45 509 16 Q 521 0 534 -3 Q 541 -6 549 2 Q 582 47 581 90 Q 551 367 573 410 Q 583 426 572 435 Q 553 450 522 462 Q 507 468 459 442 Q 441 436 412 429 C 383 422 391 397 420 403 Z"/>
  <path id="z28244d9" d="M 407 283 Q 408 283 411 283 Q 454 293 487 299 Q 506 303 498 314 Q 488 324 466 326 Q 448 326 410 311 C 382 300 377 283 407 283 Z"/>
  <path id="z28244d10" d="M 398 178 Q 453 191 494 199 Q 513 203 505 214 Q 495 224 474 227 Q 444 230 400 207 C 373 193 369 171 398 178 Z"/>
  <path id="z28244d11" d="M 624 393 Q 645 347 632 226 Q 628 205 649 174 Q 658 165 665 175 Q 680 194 680 261 Q 680 339 685 368 Q 691 387 673 397 Q 660 404 645 412 Q 635 416 627 411 Q 620 407 624 393 Z"/>
  <path id="z28244d12" d="M 760 417 Q 763 398 768 92 Q 768 79 761 73 Q 755 70 692 73 Q 661 83 663 73 Q 664 66 685 53 Q 746 11 762 -14 Q 780 -42 795 -43 Q 808 -44 821 -10 Q 836 33 830 104 Q 800 336 826 444 Q 842 474 788 493 Q 755 509 737 503 Q 721 496 736 475 Q 758 450 760 417 Z"/>
<defs>
  <clipPath id="z28244c1"><use href="#z28244d1"/></clipPath>
  <clipPath id="z28244c2"><use href="#z28244d2"/></clipPath>
  <clipPath id="z28244c3"><use href="#z28244d3"/></clipPath>
  <clipPath id="z28244c4"><use href="#z28244d4"/></clipPath>
  <clipPath id="z28244c5"><use href="#z28244d5"/></clipPath>
  <clipPath id="z28244c6"><use href="#z28244d6"/></clipPath>
  <clipPath id="z28244c7"><use href="#z28244d7"/></clipPath>
  <clipPath id="z28244c8"><use href="#z28244d8"/></clipPath>
  <clipPath id="z28244c9"><use href="#z28244d9"/></clipPath>
  <clipPath id="z28244c10"><use href="#z28244d10"/></clipPath>
  <clipPath id="z28244c11"><use href="#z28244d11"/></clipPath>
  <clipPath id="z28244c12"><use href="#z28244d12"/></clipPath>
</defs>
<path style="--d:1s;" pathLength="3333" clip-path="url(#z28244c1)" d="M 218 735 L 300 681 L 322 644"/>
<path style="--d:2s;" pathLength="3333" clip-path="url(#z28244c2)" d="M 136 534 L 213 479 L 228 455"/>
<path style="--d:3s;" pathLength="3333" clip-path="url(#z28244c3)" d="M 198 49 L 184 85 L 181 126 L 269 318 L 288 347 L 297 376"/>
<path style="--d:4s;" pathLength="3333" clip-path="url(#z28244c4)" d="M 437 737 L 513 680 L 532 646"/>
<path style="--d:5s;" pathLength="3333" clip-path="url(#z28244c5)" d="M 685 802 L 708 783 L 718 766 L 614 632"/>
<path style="--d:6s;" pathLength="3333" clip-path="url(#z28244c6)" d="M 342 528 L 389 522 L 548 555 L 806 592 L 877 575"/>
<path style="--d:7s;" pathLength="3333" clip-path="url(#z28244c7)" d="M 372 436 L 390 418 L 396 401 L 397 323 L 378 168 L 356 85 L 352 46"/>
<path style="--d:8s;" pathLength="3333" clip-path="url(#z28244c8)" d="M 422 411 L 430 419 L 504 443 L 521 439 L 542 418 L 540 345 L 552 126 L 547 72 L 532 47 L 446 81"/>
<path style="--d:9s;" pathLength="3333" clip-path="url(#z28244c9)" d="M 409 290 L 418 291 L 424 302 L 453 309 L 490 308"/>
<path style="--d:10s;" pathLength="3333" clip-path="url(#z28244c10)" d="M 405 185 L 415 198 L 445 207 L 477 212 L 497 208"/>
<path style="--d:11s;" pathLength="3333" clip-path="url(#z28244c11)" d="M 635 401 L 655 380 L 659 367 L 657 179"/>
<path style="--d:12s;" pathLength="3333" clip-path="url(#z28244c12)" d="M 744 489 L 770 473 L 791 447 L 789 254 L 800 93 L 797 63 L 784 33 L 670 71"/>
</svg>