<svg id="z26893" class="acjk" viewBox="0 0 1024 1024" xmlns="http://www.w3.org/2000/svg">
  <path id="z26893d1" d="M 326 533 Q 347 540 370 544 Q 410 554 416 561 Q 423 568 419 577 Q 412 587 384 594 Q 354 598 328 586 L 284 571 Q 167 540 112 532 Q 76 525 103 510 Q 136 489 219 509 Q 240 515 267 519 L 326 533 Z"/>
  <path id="z26893d2" d="M 323 446 Q 324 488 326 533 L 328 586 Q 329 677 349 738 Q 358 753 355 766 Q 348 776 294 809 Q 272 827 251 811 Q 247 807 252 791 Q 283 743 284 696 Q 284 638 284 571 L 279 420 Q 266 191 265 184 Q 241 70 243 64 Q 243 49 261 10 Q 267 -8 275 -11 Q 281 -17 288 -9 Q 295 -5 306 15 Q 316 40 315 70 Q 315 110 322 413 L 323 446 Z"/>
  <path id="z26893d3" d="M 267 519 Q 240 440 200 367 Q 157 288 49 142 Q 45 132 56 131 Q 62 130 71 139 Q 203 257 279 420 C 341 550 277 547 267 519 Z"/>
  <path id="z26893d4" d="M 322 413 Q 398 347 406 346 L 409 346 Q 416 346 421 357 Q 425 367 419 391 Q 415 410 385 425 Q 358 437 323 446 C 294 454 299 433 322 413 Z"/>
  <path id="z26893d5" d="M 652 605 Q 689 614 842 638 Q 852 637 861 650 Q 862 662 839 671 Q 809 695 745 671 Q 661 650 658 648 L 607 637 Q 580 633 556 629 Q 516 625 472 617 Q 444 613 466 596 Q 500 571 527 578 Q 563 587 605 595 L 652 605 Z"/>
  <path id="z26893d6" d="M 634 483 Q 644 546 652 605 L 658 648 Q 661 678 683 752 Q 687 762 670 777 Q 639 796 618 802 Q 603 806 596 799 Q 589 792 595 778 Q 611 751 610 733 Q 610 687 607 637 L 605 595 Q 601 537 595 472 C 592 442 629 453 634 483 Z"/>
  <path id="z26893d7" d="M 542 464 Q 526 477 510 485 Q 500 488 491 484 Q 484 480 486 470 Q 505 434 506 396 Q 507 362 508 66 C 508 36 549 41 549 71 Q 549 107 550 140 L 550 164 Q 550 200 552 233 L 552 259 Q 553 296 554 329 L 554 355 Q 555 394 558 433 C 559 451 559 451 542 464 Z"/>
  <path id="z26893d8" d="M 774 100 Q 775 275 784 393 Q 785 423 800 442 Q 812 455 799 472 Q 789 482 742 510 Q 727 520 706 509 Q 675 497 634 483 L 595 472 Q 570 468 542 464 C 512 460 529 424 558 433 Q 561 434 566 436 Q 660 461 699 467 Q 715 470 720 465 Q 726 453 724 92 C 724 62 774 70 774 100 Z"/>
  <path id="z26893d9" d="M 554 329 Q 557 332 677 354 Q 698 358 689 369 Q 679 382 656 384 Q 623 387 554 355 C 527 342 526 319 554 329 Z"/>
  <path id="z26893d10" d="M 552 233 Q 558 236 677 258 Q 698 262 689 273 Q 679 286 656 288 Q 629 289 552 259 C 524 248 523 224 552 233 Z"/>
  <path id="z26893d11" d="M 550 140 Q 566 146 681 162 Q 700 166 693 177 Q 683 190 661 193 Q 622 196 550 164 C 523 152 521 131 550 140 Z"/>
  <path id="z26893d12" d="M 508 66 Q 447 62 384 53 Q 365 52 379 35 Q 392 22 409 16 Q 430 10 445 14 Q 595 50 882 51 Q 898 51 914 50 Q 933 49 938 58 Q 944 68 928 82 Q 871 125 812 108 Q 794 105 774 100 L 724 92 Q 684 88 636 81 Q 593 77 549 71 L 508 66 Z"/>
<defs>
  <clipPath id="z26893c1"><use href="#z26893d1"/></clipPath>
  <clipPath id="z26893c2"><use href="#z26893d2"/></clipPath>
  <clipPath id="z26893c3"><use href="#z26893d3"/></clipPath>
  <clipPath id="z26893c4"><use href="#z26893d4"/></clipPath>
  <clipPath id="z26893c5"><use href="#z26893d5"/></clipPath>
  <clipPath id="z26893c6"><use href="#z26893d6"/></clipPath>
  <clipPath id="z26893c7"><use href="#z26893d7"/></clipPath>
  <clipPath id="z26893c8"><use href="#z26893d8"/></clipPath>
  <clipPath id="z26893c9"><use href="#z26893d9"/></clipPath>
  <clipPath id="z26893c10"><use href="#z26893d10"/></clipPath>
  <clipPath id="z26893c11"><use href="#z26893d11"/></clipPath>
  <clipPath id="z26893c12"><use href="#z26893d12"/></clipPath>
</defs>
<path style="--d:1s;" pathLength="3333" clip-path="url(#z26893c1)" d="M 104 522 L 141 518 L 186 523 L 354 568 L 407 571"/>
<path style="--d:2s;" pathLength="3333" clip-path="url(#z26893c2)" d="M 263 804 L 313 752 L 293 218 L 279 72 L 280 2"/>
<path style="--d:3s;" pathLength="3333" clip-path="url(#z26893c3)" d="M 276 516 L 257 428 L 211 339 L 141 236 L 58 140"/>
<path style="--d:4s;" pathLength="3333" clip-path="url(#z26893c4)" d="M 329 440 L 343 417 L 387 393 L 404 370 L 408 354"/>
<path style="--d:5s;" pathLength="3333" clip-path="url(#z26893c5)" d="M 467 607 L 518 600 L 780 655 L 815 658 L 850 652"/>
<path style="--d:6s;" pathLength="3333" clip-path="url(#z26893c6)" d="M 606 790 L 645 750 L 617 499 L 600 480"/>
<path style="--d:7s;" pathLength="3333" clip-path="url(#z26893c7)" d="M 498 473 L 523 448 L 531 411 L 529 92 L 513 80"/>
<path style="--d:8s;" pathLength="3333" clip-path="url(#z26893c8)" d="M 549 461 L 573 451 L 721 490 L 738 484 L 759 456 L 752 358 L 750 127 L 740 112 L 728 107"/>
<path style="--d:9s;" pathLength="3333" clip-path="url(#z26893c9)" d="M 558 337 L 568 349 L 618 362 L 651 367 L 681 363"/>
<path style="--d:10s;" pathLength="3333" clip-path="url(#z26893c10)" d="M 557 241 L 566 253 L 621 266 L 670 271 L 681 267"/>
<path style="--d:11s;" pathLength="3333" clip-path="url(#z26893c11)" d="M 551 146 L 563 158 L 611 170 L 656 176 L 684 172"/>
<path style="--d:12s;" pathLength="3333" clip-path="url(#z26893c12)" d="M 382 44 L 436 36 L 837 82 L 882 78 L 927 64"/>
</svg>