<svg id="z20339" class="acjk" viewBox="0 0 1024 1024" xmlns="http://www.w3.org/2000/svg">
  <path id="z20339d1" d="M 284 524 Q 416 720 418 724 Q 417 728 416 732 Q 412 745 381 772 Q 351 791 331 792 Q 310 791 319 766 Q 334 732 320 705 Q 247 534 84 346 Q 72 334 70 328 Q 66 315 82 318 Q 124 327 256 488 L 284 524 Z"/>
  <path id="z20339d2" d="M 256 488 Q 280 428 280 369 Q 280 227 251 111 Q 238 65 273 13 Q 274 9 279 5 Q 298 -13 311 17 Q 327 60 326 110 Q 326 374 335 433 Q 344 463 332 474 Q 293 519 284 524 C 261 544 245 516 256 488 Z"/>
  <path id="z20339d3" d="M 653 564 Q 791 594 799 601 Q 808 608 803 617 Q 796 627 768 635 Q 740 641 656 611 L 602 597 Q 550 587 493 580 Q 457 574 483 558 Q 516 537 588 551 Q 594 552 603 553 L 653 564 Z"/>
  <path id="z20339d4" d="M 646 450 Q 650 508 653 564 L 656 611 Q 657 690 677 773 Q 680 783 659 799 Q 622 818 597 823 Q 581 826 572 817 Q 565 810 573 794 Q 595 764 595 743 Q 599 673 602 597 L 603 553 Q 603 501 602 442 C 602 412 644 420 646 450 Z"/>
  <path id="z20339d5" d="M 624 409 Q 726 425 877 426 Q 896 427 900 435 Q 904 447 889 459 Q 831 496 788 480 Q 730 467 646 450 L 602 442 Q 506 426 399 409 Q 380 406 394 391 Q 407 378 425 374 Q 444 370 459 375 Q 517 393 583 402 L 624 409 Z"/>
  <path id="z20339d6" d="M 655 228 Q 692 237 733 243 Q 772 252 778 257 Q 787 264 783 272 Q 776 284 748 292 Q 727 296 657 277 L 601 263 Q 598 264 597 263 Q 545 253 482 248 Q 446 242 471 226 Q 508 201 576 216 Q 586 219 601 219 L 655 228 Z"/>
  <path id="z20339d7" d="M 648 100 Q 651 169 655 228 L 657 277 Q 660 376 661 377 Q 660 380 659 380 Q 641 399 624 409 C 599 425 573 430 583 402 Q 601 353 601 263 L 601 219 Q 601 168 601 94 C 601 64 647 70 648 100 Z"/>
  <path id="z20339d8" d="M 601 94 Q 492 82 366 68 Q 344 65 360 47 Q 375 32 394 26 Q 416 20 434 24 Q 585 63 879 62 Q 895 62 912 60 Q 934 60 939 69 Q 945 82 927 97 Q 872 139 831 131 Q 761 118 648 100 L 601 94 Z"/>
<defs>
  <clipPath id="z20339c1"><use href="#z20339d1"/></clipPath>
  <clipPath id="z20339c2"><use href="#z20339d2"/></clipPath>
  <clipPath id="z20339c3"><use href="#z20339d3"/></clipPath>
  <clipPath id="z20339c4"><use href="#z20339d4"/></clipPath>
  <clipPath id="z20339c5"><use href="#z20339d5"/></clipPath>
  <clipPath id="z20339c6"><use href="#z20339d6"/></clipPath>
  <clipPath id="z20339c7"><use href="#z20339d7"/></clipPath>
  <clipPath id="z20339c8"><use href="#z20339d8"/></clipPath>
</defs>
<path style="--d:1s;" pathLength="3333" clip-path="url(#z20339c1)" d="M 330 776 L 349 760 L 369 726 L 312 616 L 201 455 L 130 372 L 80 327"/>
<path style="--d:2s;" pathLength="3333" clip-path="url(#z20339c2)" d="M 282 516 L 287 483 L 304 449 L 305 419 L 302 254 L 286 81 L 291 13"/>
<path style="--d:3s;" pathLength="3333" clip-path="url(#z20339c3)" d="M 485 570 L 527 564 L 575 569 L 737 609 L 793 611"/>
<path style="--d:4s;" pathLength="3333" clip-path="url(#z20339c4)" d="M 584 807 L 633 766 L 626 473 L 608 450"/>
<path style="--d:5s;" pathLength="3333" clip-path="url(#z20339c5)" d="M 397 400 L 442 394 L 567 419 L 810 455 L 855 451 L 889 440"/>
<path style="--d:6s;" pathLength="3333" clip-path="url(#z20339c6)" d="M 474 238 L 506 231 L 546 232 L 711 265 L 771 268"/>
<path style="--d:7s;" pathLength="3333" clip-path="url(#z20339c7)" d="M 591 398 L 622 374 L 629 336 L 624 121 L 608 103"/>
<path style="--d:8s;" pathLength="3333" clip-path="url(#z20339c8)" d="M 364 57 L 416 48 L 841 97 L 890 90 L 927 76"/>
</svg>