<svg id="z22040" class="acjk" viewBox="0 0 1024 1024" xmlns="http://www.w3.org/2000/svg">
  <path id="z22040d1" d="M 125 554 Q 112 560 86 565 Q 74 569 71 564 Q 64 558 72 543 Q 100 476 114 369 Q 115 338 133 315 Q 149 294 155 309 Q 162 328 159 363 L 154 397 Q 138 500 136 528 C 134 550 134 550 125 554 Z"/>
  <path id="z22040d2" d="M 278 426 Q 291 513 313 540 Q 332 565 310 577 Q 291 587 265 601 Q 247 610 203 581 Q 170 568 125 554 C 96 545 107 521 136 528 Q 143 529 153 533 Q 187 543 215 550 Q 234 556 240 548 Q 249 542 243 505 Q 239 468 231 423 C 226 393 273 396 278 426 Z"/>
  <path id="z22040d3" d="M 159 363 Q 166 372 296 395 Q 306 396 306 405 Q 306 412 278 426 C 262 434 259 433 231 423 Q 188 408 154 397 C 125 388 134 347 159 363 Z"/>
  <path id="z22040d4" d="M 616 630 Q 620 673 624 713 L 627 739 Q 631 775 635 785 Q 638 795 640 802 Q 643 812 626 824 Q 598 840 576 844 Q 563 847 556 839 Q 549 833 556 820 Q 569 804 571 790 Q 578 714 579 623 C 579 593 613 600 616 630 Z"/>
  <path id="z22040d5" d="M 624 713 Q 658 704 733 723 Q 749 727 768 732 Q 783 736 785 738 Q 792 745 788 754 Q 781 764 753 768 Q 726 771 669 748 Q 666 748 627 739 C 598 732 595 720 624 713 Z"/>
  <path id="z22040d6" d="M 436 562 Q 571 596 729 621 Q 763 624 765 609 Q 765 596 743 543 Q 736 528 743 525 Q 750 521 762 534 Q 831 588 858 598 Q 880 604 878 617 Q 877 629 805 664 Q 784 673 758 666 Q 682 645 616 630 L 579 623 Q 510 613 423 600 C 393 596 407 555 436 562 Z"/>
  <path id="z22040d7" d="M 423 600 Q 378 625 364 623 Q 345 620 359 598 Q 395 526 351 304 Q 336 244 303 174 Q 273 114 176 25 Q 158 13 151 0 Q 148 -7 160 -7 Q 203 -7 280 69 Q 385 174 418 410 Q 425 468 431 538 Q 434 553 436 562 C 442 590 442 590 423 600 Z"/>
  <path id="z22040d8" d="M 590 455 Q 642 470 713 484 Q 720 484 727 495 Q 727 504 708 511 Q 684 527 598 493 Q 595 493 593 492 Q 592 492 591 491 L 554 480 Q 482 465 461 459 Q 439 455 457 442 Q 482 427 517 435 Q 533 441 554 445 L 590 455 Z"/>
  <path id="z22040d9" d="M 795 418 Q 785 431 767 475 Q 766 487 760 489 Q 756 492 754 478 Q 730 406 700 399 Q 657 387 616 401 Q 601 408 597 418 Q 591 430 590 455 L 591 491 Q 592 509 596 528 Q 599 541 589 549 Q 579 559 561 565 Q 551 568 545 564 Q 539 560 544 547 Q 553 523 554 480 L 554 445 Q 555 394 579 373 Q 636 330 741 358 Q 742 359 745 359 Q 770 368 793 387 Q 806 400 795 418 Z"/>
  <path id="z22040d10" d="M 567 42 Q 564 204 572 240 Q 575 259 563 271 Q 544 287 520 296 Q 508 300 500 296 Q 493 290 498 277 Q 514 244 521 209 Q 525 175 531 38 C 532 8 568 12 567 42 Z"/>
  <path id="z22040d11" d="M 668 55 Q 689 239 705 282 Q 708 291 693 304 Q 665 320 646 325 Q 633 329 626 322 Q 619 316 625 304 Q 640 280 640 265 Q 641 165 633 50 C 631 20 665 25 668 55 Z"/>
  <path id="z22040d12" d="M 418 156 Q 431 137 447 112 Q 456 99 469 96 Q 479 95 485 105 Q 492 117 490 143 Q 489 159 468 174 Q 417 207 404 203 Q 400 200 398 189 Q 399 179 418 156 Z"/>
  <path id="z22040d13" d="M 777 236 Q 756 202 715 148 Q 709 141 715 135 Q 722 134 729 138 Q 808 196 846 219 Q 862 223 858 234 Q 852 249 834 266 Q 815 282 794 283 Q 781 283 782 264 Q 785 251 777 236 Z"/>
  <path id="z22040d14" d="M 633 50 Q 585 47 567 42 L 531 38 Q 455 31 372 21 Q 353 20 367 3 Q 380 -10 397 -17 Q 418 -21 433 -18 Q 560 10 828 11 Q 841 11 858 10 Q 877 10 882 18 Q 888 28 872 43 Q 818 82 759 69 Q 719 63 668 55 L 633 50 Z"/>
<defs>
  <clipPath id="z22040c1"><use href="#z22040d1"/></clipPath>
  <clipPath id="z22040c2"><use href="#z22040d2"/></clipPath>
  <clipPath id="z22040c3"><use href="#z22040d3"/></clipPath>
  <clipPath id="z22040c4"><use href="#z22040d4"/></clipPath>
  <clipPath id="z22040c5"><use href="#z22040d5"/></clipPath>
  <clipPath id="z22040c6"><use href="#z22040d6"/></clipPath>
  <clipPath id="z22040c7"><use href="#z22040d7"/></clipPath>
  <clipPath id="z22040c8"><use href="#z22040d8"/></clipPath>
  <clipPath id="z22040c9"><use href="#z22040d9"/></clipPath>
  <clipPath id="z22040c10"><use href="#z22040d10"/></clipPath>
  <clipPath id="z22040c11"><use href="#z22040d11"/></clipPath>
  <clipPath id="z22040c12"><use href="#z22040d12"/></clipPath>
  <clipPath id="z22040c13"><use href="#z22040d13"/></clipPath>
  <clipPath id="z22040c14"><use href="#z22040d14"/></clipPath>
</defs>
<path style="--d:1s;" pathLength="3333" clip-path="url(#z22040c1)" d="M 79 556 L 105 533 L 109 522 L 145 315"/>
<path style="--d:2s;" pathLength="3333" clip-path="url(#z22040c2)" d="M 134 550 L 145 545 L 236 575 L 258 572 L 278 553 L 262 460 L 258 448 L 238 429"/>
<path style="--d:3s;" pathLength="3333" clip-path="url(#z22040c3)" d="M 163 371 L 172 386 L 240 405 L 271 409 L 297 404"/>
<path style="--d:4s;" pathLength="3333" clip-path="url(#z22040c4)" d="M 567 830 L 604 798 L 599 653 L 584 631"/>
<path style="--d:5s;" pathLength="3333" clip-path="url(#z22040c5)" d="M 631 719 L 729 745 L 777 747"/>
<path style="--d:6s;" pathLength="3333" clip-path="url(#z22040c6)" d="M 432 596 L 453 585 L 725 639 L 771 642 L 800 626 L 805 614 L 747 531"/>
<path style="--d:7s;" pathLength="3333" clip-path="url(#z22040c7)" d="M 365 610 L 398 581 L 403 551 L 393 403 L 363 260 L 320 159 L 277 97 L 203 26 L 159 1"/>
<path style="--d:8s;" pathLength="3333" clip-path="url(#z22040c8)" d="M 458 451 L 506 451 L 656 493 L 718 496"/>
<path style="--d:9s;" pathLength="3333" clip-path="url(#z22040c9)" d="M 551 557 L 573 532 L 572 437 L 579 408 L 590 392 L 626 374 L 693 372 L 726 381 L 749 396 L 760 407 L 762 481"/>
<path style="--d:10s;" pathLength="3333" clip-path="url(#z22040c10)" d="M 507 288 L 534 260 L 543 242 L 547 57 L 536 50"/>
<path style="--d:11s;" pathLength="3333" clip-path="url(#z22040c11)" d="M 636 312 L 671 280 L 653 72 L 638 58"/>
<path style="--d:12s;" pathLength="3333" clip-path="url(#z22040c12)" d="M 408 193 L 456 149 L 471 112"/>
<path style="--d:13s;" pathLength="3333" clip-path="url(#z22040c13)" d="M 795 269 L 814 238 L 721 142"/>
<path style="--d:14s;" pathLength="3333" clip-path="url(#z22040c14)" d="M 370 12 L 390 5 L 425 4 L 783 42 L 828 38 L 871 24"/>
</svg>