<svg id="z26976" class="acjk" viewBox="0 0 1024 1024" xmlns="http://www.w3.org/2000/svg">
  <path id="z26976d1" d="M 304 499 Q 382 514 391 523 Q 401 532 395 540 Q 388 552 358 559 Q 330 563 305 554 L 263 539 Q 161 514 101 506 Q 64 499 91 482 Q 137 458 191 474 Q 219 481 251 486 L 304 499 Z"/>
  <path id="z26976d2" d="M 301 365 Q 302 426 304 499 L 305 554 Q 305 683 325 754 Q 340 779 310 799 Q 295 811 270 825 Q 248 841 227 827 Q 223 823 229 807 Q 260 756 262 680 Q 262 611 263 539 L 258 388 Q 255 222 246 177 Q 240 144 230 109 Q 220 72 244 10 Q 251 -8 259 -11 Q 265 -18 272 -9 Q 299 7 299 70 Q 298 104 301 333 L 301 365 Z"/>
  <path id="z26976d3" d="M 251 486 Q 223 407 182 335 Q 139 263 38 132 Q 34 122 44 122 Q 50 121 58 129 Q 185 243 258 388 C 322 513 261 514 251 486 Z"/>
  <path id="z26976d4" d="M 301 333 Q 340 300 353 300 Q 363 300 367 315 Q 368 325 359 340 Q 344 358 301 365 C 271 370 278 352 301 333 Z"/>
  <path id="z26976d5" d="M 621 562 Q 777 596 783 601 Q 792 608 787 617 Q 780 627 752 635 Q 725 641 629 610 L 576 597 Q 524 587 461 580 Q 427 574 451 558 Q 485 537 557 550 Q 563 551 572 552 L 621 562 Z"/>
  <path id="z26976d6" d="M 604 460 Q 613 512 621 562 L 629 610 Q 644 718 666 779 Q 670 789 652 806 Q 618 828 594 835 Q 578 839 570 832 Q 561 825 568 809 Q 587 776 586 755 Q 583 679 576 597 L 572 552 Q 566 504 560 451 C 557 421 599 430 604 460 Z"/>
  <path id="z26976d7" d="M 440 424 Q 413 442 389 440 Q 376 436 382 425 Q 424 341 389 187 Q 365 123 396 88 Q 403 75 412 81 Q 440 102 444 200 Q 447 360 450 394 C 452 417 452 417 440 424 Z"/>
  <path id="z26976d8" d="M 685 440 Q 728 447 795 453 Q 807 454 811 448 Q 820 442 821 400 Q 831 225 810 125 Q 804 91 774 94 Q 746 98 721 102 Q 706 109 706 102 Q 705 95 715 81 Q 779 17 795 -13 Q 805 -29 816 -26 Q 831 -23 843 3 Q 879 69 887 269 Q 887 408 901 439 Q 917 460 904 464 Q 888 480 852 494 Q 830 507 775 489 Q 690 479 604 460 L 560 451 Q 544 450 529 445 Q 484 433 440 424 C 411 418 421 385 450 394 Q 489 409 656 437 L 685 440 Z"/>
  <path id="z26976d9" d="M 519 377 Q 538 329 561 324 Q 571 321 578 335 Q 581 345 577 361 Q 568 385 526 397 Q 519 400 517 391 Q 514 385 519 377 Z"/>
  <path id="z26976d10" d="M 639 320 Q 663 344 684 375 Q 691 385 703 396 Q 715 403 709 412 Q 705 425 685 440 C 661 458 654 464 656 437 Q 660 416 627 340 Q 620 327 618 317 Q 617 316 617 315 C 608 288 618 299 639 320 Z"/>
  <path id="z26976d11" d="M 624 285 Q 642 289 664 293 Q 728 302 734 309 Q 735 318 718 325 Q 685 335 639 320 L 617 315 Q 572 306 510 297 Q 491 293 506 282 Q 527 266 560 272 Q 564 273 573 274 L 624 285 Z"/>
  <path id="z26976d12" d="M 625 191 Q 673 201 758 201 Q 771 202 775 208 Q 779 217 767 226 Q 722 256 670 237 Q 649 233 626 226 L 579 216 Q 536 210 488 200 Q 473 199 485 186 Q 503 171 549 178 Q 562 182 580 185 L 625 191 Z"/>
  <path id="z26976d13" d="M 587 36 Q 591 17 596 10 Q 600 6 606 7 Q 612 10 615 21 Q 619 34 625 176 Q 624 183 625 191 L 626 226 Q 626 235 632 265 Q 633 278 624 285 C 605 308 569 304 573 274 Q 574 271 579 216 L 580 185 Q 586 43 587 36 Z"/>
<defs>
  <clipPath id="z26976c1"><use href="#z26976d1"/></clipPath>
  <clipPath id="z26976c2"><use href="#z26976d2"/></clipPath>
  <clipPath id="z26976c3"><use href="#z26976d3"/></clipPath>
  <clipPath id="z26976c4"><use href="#z26976d4"/></clipPath>
  <clipPath id="z26976c5"><use href="#z26976d5"/></clipPath>
  <clipPath id="z26976c6"><use href="#z26976d6"/></clipPath>
  <clipPath id="z26976c7"><use href="#z26976d7"/></clipPath>
  <clipPath id="z26976c8"><use href="#z26976d8"/></clipPath>
  <clipPath id="z26976c9"><use href="#z26976d9"/></clipPath>
  <clipPath id="z26976c10"><use href="#z26976d10"/></clipPath>
  <clipPath id="z26976c11"><use href="#z26976d11"/></clipPath>
  <clipPath id="z26976c12"><use href="#z26976d12"/></clipPath>
  <clipPath id="z26976c13"><use href="#z26976d13"/></clipPath>
</defs>
<path style="--d:1s;" pathLength="3333" clip-path="url(#z26976c1)" d="M 93 495 L 153 490 L 338 534 L 385 533"/>
<path style="--d:2s;" pathLength="3333" clip-path="url(#z26976c2)" d="M 238 821 L 265 798 L 288 767 L 281 320 L 273 169 L 263 97 L 264 2"/>
<path style="--d:3s;" pathLength="3333" clip-path="url(#z26976c3)" d="M 258 481 L 238 396 L 208 338 L 130 225 L 48 131"/>
<path style="--d:4s;" pathLength="3333" clip-path="url(#z26976c4)" d="M 310 360 L 314 349 L 352 314"/>
<path style="--d:5s;" pathLength="3333" clip-path="url(#z26976c5)" d="M 454 570 L 526 566 L 740 613 L 777 611"/>
<path style="--d:6s;" pathLength="3333" clip-path="url(#z26976c6)" d="M 581 820 L 616 788 L 624 773 L 585 478 L 566 458"/>
<path style="--d:7s;" pathLength="3333" clip-path="url(#z26976c7)" d="M 389 431 L 419 403 L 425 367 L 426 277 L 406 90"/>
<path style="--d:8s;" pathLength="3333" clip-path="url(#z26976c8)" d="M 450 402 L 459 413 L 480 419 L 723 465 L 809 475 L 847 459 L 858 445 L 856 259 L 848 157 L 836 94 L 809 51 L 732 83 L 714 99"/>
<path style="--d:9s;" pathLength="3333" clip-path="url(#z26976c9)" d="M 527 385 L 544 370 L 564 338"/>
<path style="--d:10s;" pathLength="3333" clip-path="url(#z26976c10)" d="M 664 434 L 679 409 L 651 355 L 623 321"/>
<path style="--d:11s;" pathLength="3333" clip-path="url(#z26976c11)" d="M 517 287 L 564 288 L 683 313 L 729 312"/>
<path style="--d:12s;" pathLength="3333" clip-path="url(#z26976c12)" d="M 494 191 L 539 192 L 707 223 L 767 213"/>
<path style="--d:13s;" pathLength="3333" clip-path="url(#z26976c13)" d="M 580 273 L 603 245 L 603 15"/>
</svg>