<svg id="z20509" class="acjk" viewBox="0 0 1024 1024" xmlns="http://www.w3.org/2000/svg">
  <path id="z20509d1" d="M 361 661 Q 496 694 501 696 Q 505 700 506 705 Q 508 718 472 729 Q 443 735 372 707 L 318 692 Q 261 680 196 672 Q 163 666 188 651 Q 216 636 254 639 L 312 649 L 361 661 Z"/>
  <path id="z20509d2" d="M 329 547 L 361 661 L 372 707 Q 372 732 402 790 Q 407 799 392 815 Q 339 857 323 844 Q 316 836 322 817 Q 333 794 330 780 Q 325 734 318 692 L 312 649 L 290 538 C 284 509 321 518 329 547 Z"/>
  <path id="z20509d3" d="M 204 519 Q 162 531 155 523 L 154 521 Q 151 517 159 500 Q 190 431 205 342 Q 208 311 225 292 Q 242 270 247 286 Q 251 296 251 306 L 250 332 Q 250 334 249 335 L 237 402 L 233 423 Q 223 474 223 490 C 222 514 222 514 204 519 Z"/>
  <path id="z20509d4" d="M 290 538 L 204 519 C 175 513 195 479 223 490 Q 245 502 396 529 Q 418 534 428 527 Q 441 517 437 500 Q 410 370 394 363 C 379 343 379 343 392 328 Q 402 314 415 308 Q 423 300 437 318 Q 451 339 480 457 Q 486 477 497 492 L 513 510 Q 519 517 511 529 Q 498 544 461 566 Q 446 574 378 559 Q 372 559 329 547 L 290 538 Z"/>
  <path id="z20509d5" d="M 237 402 Q 243 401 247 401 L 373 422 Q 396 427 386 439 Q 374 455 349 455 Q 314 457 233 423 C 205 411 207 406 237 402 Z"/>
  <path id="z20509d6" d="M 251 306 Q 280 310 295 312 L 328 318 Q 359 323 392 328 C 422 333 424 362 394 363 L 390 363 Q 371 367 250 332 C 221 324 221 302 251 306 Z"/>
  <path id="z20509d7" d="M 299 223 Q 125 186 76 180 Q 61 179 61 171 Q 59 159 74 149 Q 94 135 112 131 Q 133 128 182 145 Q 278 176 297 182 L 349 194 Q 384 204 417 212 L 498 225 Q 518 229 519 237 Q 520 249 502 259 Q 476 272 451 265 Q 398 251 351 237 L 299 223 Z"/>
  <path id="z20509d8" d="M 295 312 Q 301 296 299 223 L 297 182 Q 294 97 280 63 Q 274 40 284 10 Q 296 -25 316 -42 Q 324 -43 331 -33 Q 346 -14 343 25 Q 345 129 349 194 L 351 237 Q 355 288 349 300 Q 345 308 328 318 C 303 334 289 341 295 312 Z"/>
  <path id="z20509d9" d="M 649 368 Q 662 429 682 612 Q 684 647 693 674 L 706 711 Q 710 725 701 735 Q 693 741 679 751 Q 622 788 593 778 Q 568 770 587 749 Q 619 714 619 677 Q 617 502 593 392 Q 560 214 443 94 L 376 36 Q 361 29 359 24 Q 359 22 358 22 Q 357 16 373 16 Q 416 16 517 100 Q 594 171 639 327 Q 637 328 639 328 L 649 368 Z"/>
  <path id="z20509d10" d="M 639 328 Q 796 39 845 35 Q 986 32 979 32 Q 999 32 1000 37 Q 1001 44 974 59 Q 833 133 803 166 Q 721 256 649 368 C 633 393 625 354 639 328 Z"/>
<defs>
  <clipPath id="z20509c1"><use href="#z20509d1"/></clipPath>
  <clipPath id="z20509c2"><use href="#z20509d2"/></clipPath>
  <clipPath id="z20509c3"><use href="#z20509d3"/></clipPath>
  <clipPath id="z20509c4"><use href="#z20509d4"/></clipPath>
  <clipPath id="z20509c5"><use href="#z20509d5"/></clipPath>
  <clipPath id="z20509c6"><use href="#z20509d6"/></clipPath>
  <clipPath id="z20509c7"><use href="#z20509d7"/></clipPath>
  <clipPath id="z20509c8"><use href="#z20509d8"/></clipPath>
  <clipPath id="z20509c9"><use href="#z20509d9"/></clipPath>
  <clipPath id="z20509c10"><use href="#z20509d10"/></clipPath>
</defs>
<path style="--d:1s;" pathLength="3333" clip-path="url(#z20509c1)" d="M 189 663 L 246 658 L 458 708 L 497 704"/>
<path style="--d:2s;" pathLength="3333" clip-path="url(#z20509c2)" d="M 331 835 L 365 793 L 317 573 L 295 544"/>
<path style="--d:3s;" pathLength="3333" clip-path="url(#z20509c3)" d="M 160 519 L 187 498 L 196 482 L 236 291"/>
<path style="--d:4s;" pathLength="3333" clip-path="url(#z20509c4)" d="M 212 517 L 234 510 L 411 549 L 440 547 L 455 538 L 472 517 L 421 351 L 422 322"/>
<path style="--d:5s;" pathLength="3333" clip-path="url(#z20509c5)" d="M 243 409 L 267 421 L 336 436 L 377 432"/>
<path style="--d:6s;" pathLength="3333" clip-path="url(#z20509c6)" d="M 259 313 L 266 325 L 374 344 L 392 357"/>
<path style="--d:7s;" pathLength="3333" clip-path="url(#z20509c7)" d="M 73 168 L 122 159 L 461 243 L 508 240"/>
<path style="--d:8s;" pathLength="3333" clip-path="url(#z20509c8)" d="M 301 310 L 323 292 L 327 269 L 320 120 L 310 45 L 318 -31"/>
<path style="--d:9s;" pathLength="3333" clip-path="url(#z20509c9)" d="M 594 763 L 638 737 L 659 707 L 632 442 L 598 293 L 561 206 L 526 150 L 493 111 L 411 44 L 362 21"/>
<path style="--d:10s;" pathLength="3333" clip-path="url(#z20509c10)" d="M 652 360 L 654 331 L 686 277 L 751 183 L 823 101 L 861 74 L 995 38"/>
</svg>