<svg id="z27733" class="acjk" viewBox="0 0 1024 1024" xmlns="http://www.w3.org/2000/svg">
  <path id="z27733d1" d="M 252 708 Q 282 683 313 651 Q 328 638 344 638 Q 354 639 361 653 Q 365 668 356 699 Q 350 721 317 737 Q 238 765 224 759 Q 218 755 220 741 Q 224 731 252 708 Z"/>
  <path id="z27733d2" d="M 142 520 Q 190 463 226 447 Q 242 443 251 457 Q 258 470 255 487 Q 243 533 158 558 Q 157 559 156 559 Q 140 563 129 560 Q 123 559 125 546 Q 126 534 142 520 Z"/>
  <path id="z27733d3" d="M 131 126 Q 119 122 122 103 Q 144 25 177 9 Q 184 2 195 6 Q 202 7 203 34 Q 207 80 232 151 Q 311 395 312 398 Q 311 408 301 401 Q 292 395 174 177 Q 161 152 131 126 Z"/>
  <path id="z27733d4" d="M 643 243 Q 664 642 669 665 Q 670 677 683 725 Q 687 738 664 754 Q 625 775 599 779 Q 581 783 572 773 Q 563 766 573 748 Q 603 705 603 674 Q 610 470 597 234 C 595 204 641 213 643 243 Z"/>
  <path id="z27733d5" d="M 828 270 Q 729 260 643 243 L 597 234 Q 518 221 451 200 Q 427 194 433 222 Q 437 286 444 353 Q 448 378 436 393 Q 420 412 394 425 Q 381 431 371 428 Q 361 424 369 403 Q 399 339 390 272 Q 383 209 358 181 Q 339 162 347 147 Q 359 131 377 120 Q 392 111 404 122 Q 440 170 728 222 Q 792 234 821 230 C 851 229 858 273 828 270 Z"/>
  <path id="z27733d6" d="M 821 230 Q 811 179 836 129 Q 848 111 860 125 Q 885 155 884 247 Q 893 421 901 437 Q 901 441 904 445 Q 911 463 899 477 Q 877 493 840 512 Q 825 519 812 511 Q 805 507 808 492 Q 830 462 831 336 Q 828 288 828 270 L 821 230 Z"/>
<defs>
  <clipPath id="z27733c1"><use href="#z27733d1"/></clipPath>
  <clipPath id="z27733c2"><use href="#z27733d2"/></clipPath>
  <clipPath id="z27733c3"><use href="#z27733d3"/></clipPath>
  <clipPath id="z27733c4"><use href="#z27733d4"/></clipPath>
  <clipPath id="z27733c5"><use href="#z27733d5"/></clipPath>
  <clipPath id="z27733c6"><use href="#z27733d6"/></clipPath>
</defs>
<path style="--d:1s;" pathLength="3333" clip-path="url(#z27733c1)" d="M 229 752 L 308 704 L 328 682 L 341 656"/>
<path style="--d:2s;" pathLength="3333" clip-path="url(#z27733c2)" d="M 136 550 L 201 505 L 221 487 L 232 467"/>
<path style="--d:3s;" pathLength="3333" clip-path="url(#z27733c3)" d="M 189 16 L 174 57 L 170 101 L 199 153 L 306 399"/>
<path style="--d:4s;" pathLength="3333" clip-path="url(#z27733c4)" d="M 586 761 L 627 731 L 637 720 L 638 704 L 624 287 L 622 263 L 603 242"/>
<path style="--d:5s;" pathLength="3333" clip-path="url(#z27733c5)" d="M 377 418 L 399 395 L 415 362 L 417 318 L 404 175 L 449 176 L 608 218 L 804 249 L 820 264"/>
<path style="--d:6s;" pathLength="3333" clip-path="url(#z27733c6)" d="M 823 499 L 863 453 L 849 132"/>
</svg>