<svg id="z23661" class="acjk" viewBox="0 0 1024 1024" xmlns="http://www.w3.org/2000/svg">
  <path id="z23661d1" d="M 722 729 Q 746 763 769 773 Q 785 788 775 805 Q 712 868 660 843 Q 534 807 364 793 C 334 790 340 757 370 762 Q 376 763 643 805 Q 676 812 689 797 Q 693 791 672 733 C 662 705 704 705 722 729 Z"/>
  <path id="z23661d2" d="M 353 664 Q 366 651 388 655 Q 497 679 736 696 Q 746 697 747 705 Q 747 712 722 729 C 707 740 701 739 672 733 Q 497 697 358 685 Q 357 685 356 684 C 330 680 330 680 353 664 Z"/>
  <path id="z23661d3" d="M 364 793 Q 348 808 323 819 Q 304 831 291 826 Q 278 819 285 805 Q 309 766 301 687 Q 300 678 299 666 Q 284 473 232 328 Q 178 196 91 71 Q 87 64 84 58 Q 81 48 92 49 Q 122 55 201 168 Q 228 208 252 256 Q 327 418 351 639 Q 352 652 353 664 L 356 684 Q 357 702 361 717 Q 364 738 370 762 C 375 785 375 785 364 793 Z"/>
  <path id="z23661d4" d="M 475 629 Q 468 636 452 643 Q 445 646 438 643 Q 432 640 437 631 Q 459 538 439 459 Q 430 420 454 392 Q 461 383 468 391 Q 475 401 476 413 L 478 436 Q 478 440 479 475 L 480 499 Q 480 521 481 537 L 482 558 Q 483 595 484 600 Q 484 603 484 604 C 485 621 485 621 475 629 Z"/>
  <path id="z23661d5" d="M 634 428 Q 635 419 641 408 Q 651 386 658 387 Q 668 388 681 412 Q 690 427 690 468 Q 683 582 702 611 Q 711 624 704 631 Q 682 650 644 667 Q 632 671 613 665 Q 559 643 475 629 C 445 624 454 603 484 604 Q 491 603 500 605 Q 623 636 632 625 Q 641 615 641 575 Q 642 485 638 453 L 634 428 Z"/>
  <path id="z23661d6" d="M 481 537 Q 482 537 487 537 Q 548 547 594 553 Q 612 556 605 566 Q 596 578 577 581 Q 547 584 482 558 C 454 547 451 537 481 537 Z"/>
  <path id="z23661d7" d="M 479 475 Q 548 484 597 490 Q 615 491 609 502 Q 600 514 581 518 Q 554 522 480 499 C 451 490 449 471 479 475 Z"/>
  <path id="z23661d8" d="M 476 413 Q 483 413 491 413 Q 573 423 634 428 C 664 430 663 436 638 453 Q 634 457 624 459 Q 606 463 478 436 C 449 430 446 413 476 413 Z"/>
  <path id="z23661d9" d="M 487 387 Q 475 359 400 311 Q 385 304 403 303 Q 452 297 526 355 Q 526 356 528 356 Q 537 362 536 368 Q 536 377 520 385 Q 504 395 495 395 Q 491 395 487 387 Z"/>
  <path id="z23661d10" d="M 619 354 Q 671 305 679 304 Q 686 304 690 313 Q 693 322 689 341 Q 682 365 618 385 Q 608 388 604 386 Q 600 385 601 376 Q 602 369 619 354 Z"/>
  <path id="z23661d11" d="M 328 269 Q 322 275 304 283 Q 297 286 290 283 Q 286 279 289 271 Q 311 189 294 107 Q 285 65 310 40 Q 317 31 324 39 Q 328 46 331 54 L 334 77 Q 334 96 334 116 L 334 137 Q 334 161 335 177 L 335 196 Q 336 236 337 241 Q 337 244 337 245 C 338 261 338 261 328 269 Z"/>
  <path id="z23661d12" d="M 476 69 Q 476 60 482 51 Q 492 30 498 31 Q 508 32 520 54 Q 529 70 529 101 Q 514 215 540 253 Q 547 265 542 272 Q 521 290 485 305 Q 473 309 456 303 Q 413 284 328 269 C 298 264 307 243 337 245 Q 343 245 350 246 Q 465 279 474 266 Q 483 254 483 215 Q 484 122 480 92 L 476 69 Z"/>
  <path id="z23661d13" d="M 335 177 Q 339 176 348 177 Q 397 184 434 189 Q 452 193 445 202 Q 436 212 417 216 Q 390 219 335 196 C 307 185 305 181 335 177 Z"/>
  <path id="z23661d14" d="M 334 116 Q 346 116 437 126 Q 455 127 449 138 Q 440 150 421 154 Q 394 158 334 137 C 306 127 304 115 334 116 Z"/>
  <path id="z23661d15" d="M 331 54 Q 335 54 341 54 Q 417 64 476 69 C 506 72 506 77 480 92 Q 474 96 465 98 Q 453 101 334 77 C 305 71 301 54 331 54 Z"/>
  <path id="z23661d16" d="M 341 33 Q 329 0 240 -64 Q 224 -71 243 -72 Q 282 -76 359 -18 Q 378 -3 387 3 Q 396 10 395 16 Q 394 26 376 34 Q 358 43 349 42 Q 343 42 341 33 Z"/>
  <path id="z23661d17" d="M 454 -9 Q 472 -28 491 -52 Q 498 -62 510 -63 Q 517 -64 522 -55 Q 526 -45 523 -25 Q 519 -1 455 24 Q 445 28 440 26 Q 436 25 436 15 Q 437 8 454 -9 Z"/>
  <path id="z23661d18" d="M 650 279 Q 644 285 628 290 Q 621 294 614 290 Q 610 287 613 279 Q 640 197 621 107 Q 612 67 638 40 Q 645 31 652 39 Q 656 46 659 55 L 661 76 L 661 124 L 661 145 Q 661 169 661 186 L 661 206 L 661 254 C 661 271 661 271 650 279 Z"/>
  <path id="z23661d19" d="M 800 70 Q 801 63 806 55 Q 816 34 822 35 Q 832 36 844 59 Q 854 77 853 92 Q 834 234 860 273 Q 867 286 861 293 Q 839 311 801 325 Q 789 329 771 321 Q 729 299 650 279 C 621 271 632 248 661 254 Q 668 255 673 256 Q 731 275 773 288 Q 788 292 794 285 Q 804 272 804 230 Q 807 121 802 91 L 800 70 Z"/>
  <path id="z23661d20" d="M 661 186 Q 664 186 669 186 Q 723 198 763 205 Q 781 209 773 218 Q 764 228 744 231 Q 711 234 661 206 C 635 191 631 186 661 186 Z"/>
  <path id="z23661d21" d="M 661 124 Q 664 124 669 124 Q 724 133 765 137 Q 784 140 777 150 Q 768 162 749 165 Q 712 168 661 145 C 634 133 631 124 661 124 Z"/>
  <path id="z23661d22" d="M 659 55 Q 663 54 671 55 Q 746 65 800 70 C 830 73 829 77 802 91 Q 795 95 785 98 Q 770 101 661 76 C 632 69 629 58 659 55 Z"/>
  <path id="z23661d23" d="M 665 24 Q 649 -13 580 -64 Q 564 -73 583 -72 Q 620 -76 712 -5 Q 719 2 719 9 Q 718 18 700 26 Q 681 35 673 34 Q 667 33 665 24 Z"/>
  <path id="z23661d24" d="M 780 -6 Q 801 -30 823 -59 Q 830 -69 841 -71 Q 848 -71 854 -63 Q 858 -54 856 -33 Q 853 -6 783 27 Q 773 31 768 30 Q 764 29 764 19 Q 765 12 780 -6 Z"/>
<defs>
  <clipPath id="z23661c1"><use href="#z23661d1"/></clipPath>
  <clipPath id="z23661c2"><use href="#z23661d2"/></clipPath>
  <clipPath id="z23661c3"><use href="#z23661d3"/></clipPath>
  <clipPath id="z23661c4"><use href="#z23661d4"/></clipPath>
  <clipPath id="z23661c5"><use href="#z23661d5"/></clipPath>
  <clipPath id="z23661c6"><use href="#z23661d6"/></clipPath>
  <clipPath id="z23661c7"><use href="#z23661d7"/></clipPath>
  <clipPath id="z23661c8"><use href="#z23661d8"/></clipPath>
  <clipPath id="z23661c9"><use href="#z23661d9"/></clipPath>
  <clipPath id="z23661c10"><use href="#z23661d10"/></clipPath>
  <clipPath id="z23661c11"><use href="#z23661d11"/></clipPath>
  <clipPath id="z23661c12"><use href="#z23661d12"/></clipPath>
  <clipPath id="z23661c13"><use href="#z23661d13"/></clipPath>
  <clipPath id="z23661c14"><use href="#z23661d14"/></clipPath>
  <clipPath id="z23661c15"><use href="#z23661d15"/></clipPath>
  <clipPath id="z23661c16"><use href="#z23661d16"/></clipPath>
  <clipPath id="z23661c17"><use href="#z23661d17"/></clipPath>
  <clipPath id="z23661c18"><use href="#z23661d18"/></clipPath>
  <clipPath id="z23661c19"><use href="#z23661d19"/></clipPath>
  <clipPath id="z23661c20"><use href="#z23661d20"/></clipPath>
  <clipPath id="z23661c21"><use href="#z23661d21"/></clipPath>
  <clipPath id="z23661c22"><use href="#z23661d22"/></clipPath>
  <clipPath id="z23661c23"><use href="#z23661d23"/></clipPath>
  <clipPath id="z23661c24"><use href="#z23661d24"/></clipPath>
</defs>
<path style="--d:1s;" pathLength="3333" clip-path="url(#z23661c1)" d="M 369 770 L 392 782 L 503 794 L 683 827 L 711 817 L 729 794 L 709 758 L 679 742"/>
<path style="--d:2s;" pathLength="3333" clip-path="url(#z23661c2)" d="M 360 678 L 370 671 L 390 671 L 667 712 L 714 713 L 738 704"/>
<path style="--d:3s;" pathLength="3333" clip-path="url(#z23661c3)" d="M 296 813 L 318 794 L 335 762 L 318 582 L 283 409 L 256 324 L 222 246 L 179 169 L 133 103 L 92 57"/>
<path style="--d:4s;" pathLength="3333" clip-path="url(#z23661c4)" d="M 445 636 L 460 617 L 465 587 L 457 437 L 462 401"/>
<path style="--d:5s;" pathLength="3333" clip-path="url(#z23661c5)" d="M 485 626 L 494 618 L 510 619 L 628 648 L 642 645 L 664 626 L 669 617 L 666 478 L 658 396"/>
<path style="--d:6s;" pathLength="3333" clip-path="url(#z23661c6)" d="M 484 542 L 495 551 L 554 564 L 598 561"/>
<path style="--d:7s;" pathLength="3333" clip-path="url(#z23661c7)" d="M 487 481 L 494 492 L 530 498 L 568 503 L 601 498"/>
<path style="--d:8s;" pathLength="3333" clip-path="url(#z23661c8)" d="M 484 418 L 492 429 L 628 448"/>
<path style="--d:9s;" pathLength="3333" clip-path="url(#z23661c9)" d="M 524 368 L 504 367 L 441 321 L 409 310"/>
<path style="--d:10s;" pathLength="3333" clip-path="url(#z23661c10)" d="M 611 379 L 669 336 L 680 313"/>
<path style="--d:11s;" pathLength="3333" clip-path="url(#z23661c11)" d="M 297 276 L 312 257 L 318 227 L 313 74 L 318 47"/>
<path style="--d:12s;" pathLength="3333" clip-path="url(#z23661c12)" d="M 338 266 L 346 259 L 361 259 L 374 267 L 469 288 L 484 284 L 504 266 L 509 259 L 502 183 L 506 109 L 499 41"/>
<path style="--d:13s;" pathLength="3333" clip-path="url(#z23661c13)" d="M 342 182 L 348 190 L 403 201 L 437 197"/>
<path style="--d:14s;" pathLength="3333" clip-path="url(#z23661c14)" d="M 336 121 L 347 131 L 395 138 L 441 134"/>
<path style="--d:15s;" pathLength="3333" clip-path="url(#z23661c15)" d="M 336 59 L 372 74 L 473 87"/>
<path style="--d:16s;" pathLength="3333" clip-path="url(#z23661c16)" d="M 382 15 L 360 14 L 307 -34 L 248 -65"/>
<path style="--d:17s;" pathLength="3333" clip-path="url(#z23661c17)" d="M 446 17 L 495 -22 L 509 -48"/>
<path style="--d:18s;" pathLength="3333" clip-path="url(#z23661c18)" d="M 621 284 L 636 266 L 643 236 L 640 82 L 646 47"/>
<path style="--d:19s;" pathLength="3333" clip-path="url(#z23661c19)" d="M 660 276 L 669 270 L 784 308 L 801 304 L 823 287 L 829 272 L 824 176 L 829 101 L 822 43"/>
<path style="--d:20s;" pathLength="3333" clip-path="url(#z23661c20)" d="M 665 191 L 717 213 L 766 213"/>
<path style="--d:21s;" pathLength="3333" clip-path="url(#z23661c21)" d="M 665 129 L 704 145 L 754 151 L 769 145"/>
<path style="--d:22s;" pathLength="3333" clip-path="url(#z23661c22)" d="M 665 60 L 674 69 L 722 77 L 785 83 L 793 76"/>
<path style="--d:23s;" pathLength="3333" clip-path="url(#z23661c23)" d="M 706 7 L 684 5 L 634 -41 L 587 -66"/>
<path style="--d:24s;" pathLength="3333" clip-path="url(#z23661c24)" d="M 774 22 L 828 -28 L 841 -56"/>
</svg>