<svg id="z28180" class="acjk" viewBox="0 0 1024 1024" xmlns="http://www.w3.org/2000/svg">
  <path id="z28180d1" d="M 239 707 Q 266 685 295 657 Q 311 644 328 645 Q 340 646 345 660 Q 349 676 338 709 Q 326 739 232 759 Q 214 763 208 759 Q 202 755 205 741 Q 209 728 239 707 Z"/>
  <path id="z28180d2" d="M 140 512 Q 194 455 231 441 Q 246 438 255 453 Q 261 466 258 483 Q 243 525 154 551 Q 153 552 152 552 Q 134 556 125 552 Q 119 551 122 538 Q 123 526 140 512 Z"/>
  <path id="z28180d3" d="M 136 155 Q 126 151 127 134 Q 139 65 174 45 Q 181 38 191 41 Q 198 42 199 66 Q 208 118 305 369 Q 312 385 311 390 Q 310 400 301 394 Q 292 388 177 198 Q 164 176 136 155 Z"/>
  <path id="z28180d4" d="M 541 679 Q 586 733 606 748 Q 616 757 612 769 Q 611 782 587 805 Q 565 824 548 826 Q 530 826 536 805 Q 548 775 478 680 Q 445 637 401 591 Q 391 584 388 577 Q 384 568 397 569 Q 421 569 528 666 L 541 679 Z"/>
  <path id="z28180d5" d="M 616 530 Q 635 551 668 590 Q 707 638 745 664 Q 763 674 750 688 Q 737 700 701 720 Q 692 723 606 695 Q 578 686 541 679 C 514 674 514 674 528 666 Q 543 651 622 664 Q 643 673 651 667 Q 655 664 650 654 Q 614 573 592 535 Q 588 529 586 524 C 572 498 596 508 616 530 Z"/>
  <path id="z28180d6" d="M 413 490 Q 401 496 372 501 Q 360 504 357 499 Q 350 492 359 476 Q 393 400 412 277 Q 415 240 436 215 Q 454 193 459 209 Q 462 218 463 229 L 463 253 Q 462 269 458 290 Q 434 414 428 455 C 423 485 423 486 413 490 Z"/>
  <path id="z28180d7" d="M 683 256 Q 702 225 721 217 Q 731 210 747 231 Q 765 261 797 422 Q 806 453 830 480 Q 843 493 832 507 Q 816 525 771 551 Q 755 560 677 541 Q 644 538 616 530 L 586 524 Q 552 520 516 511 Q 461 499 413 490 C 384 484 400 444 428 455 Q 437 464 561 486 L 601 493 Q 713 520 733 502 Q 748 483 745 466 Q 717 310 700 284 C 688 257 680 260 683 256 Z"/>
  <path id="z28180d8" d="M 611 373 Q 647 380 680 385 Q 702 389 693 401 Q 683 414 659 418 Q 640 421 613 413 L 568 400 Q 525 388 486 376 Q 470 372 490 359 Q 497 353 569 365 L 611 373 Z"/>
  <path id="z28180d9" d="M 607 283 Q 608 331 611 373 L 613 413 Q 619 480 604 491 Q 603 492 601 493 C 578 512 555 515 561 486 Q 564 479 568 400 L 569 365 Q 569 328 570 275 C 571 245 606 253 607 283 Z"/>
  <path id="z28180d10" d="M 463 229 Q 475 228 490 229 Q 599 247 683 256 C 713 259 725 268 700 284 Q 693 290 681 292 Q 665 295 607 283 L 570 275 Q 512 265 463 253 C 434 246 433 231 463 229 Z"/>
  <path id="z28180d11" d="M 590 95 Q 630 96 668 100 Q 761 109 877 96 Q 899 93 906 101 Q 913 114 902 125 Q 874 152 832 171 Q 819 177 794 169 Q 734 159 554 139 Q 298 118 287 118 Q 274 118 272 108 Q 271 96 289 82 Q 305 70 335 58 Q 345 54 363 62 Q 375 66 430 74 Q 502 89 590 95 Z"/>
<defs>
  <clipPath id="z28180c1"><use href="#z28180d1"/></clipPath>
  <clipPath id="z28180c2"><use href="#z28180d2"/></clipPath>
  <clipPath id="z28180c3"><use href="#z28180d3"/></clipPath>
  <clipPath id="z28180c4"><use href="#z28180d4"/></clipPath>
  <clipPath id="z28180c5"><use href="#z28180d5"/></clipPath>
  <clipPath id="z28180c6"><use href="#z28180d6"/></clipPath>
  <clipPath id="z28180c7"><use href="#z28180d7"/></clipPath>
  <clipPath id="z28180c8"><use href="#z28180d8"/></clipPath>
  <clipPath id="z28180c9"><use href="#z28180d9"/></clipPath>
  <clipPath id="z28180c10"><use href="#z28180d10"/></clipPath>
  <clipPath id="z28180c11"><use href="#z28180d11"/></clipPath>
</defs>
<path style="--d:1s;" pathLength="3333" clip-path="url(#z28180c1)" d="M 215 751 L 296 704 L 326 664"/>
<path style="--d:2s;" pathLength="3333" clip-path="url(#z28180c2)" d="M 132 543 L 219 485 L 236 462"/>
<path style="--d:3s;" pathLength="3333" clip-path="url(#z28180c3)" d="M 186 51 L 174 81 L 172 129 L 305 389"/>
<path style="--d:4s;" pathLength="3333" clip-path="url(#z28180c4)" d="M 547 813 L 570 775 L 561 751 L 488 656 L 434 604 L 396 577"/>
<path style="--d:5s;" pathLength="3333" clip-path="url(#z28180c5)" d="M 533 667 L 608 676 L 644 689 L 664 688 L 692 676 L 647 595 L 607 537 L 593 527"/>
<path style="--d:6s;" pathLength="3333" clip-path="url(#z28180c6)" d="M 366 491 L 392 468 L 401 447 L 448 214"/>
<path style="--d:7s;" pathLength="3333" clip-path="url(#z28180c7)" d="M 426 461 L 437 478 L 641 520 L 693 529 L 734 529 L 758 522 L 785 492 L 753 351 L 725 262 L 696 255"/>
<path style="--d:8s;" pathLength="3333" clip-path="url(#z28180c8)" d="M 487 367 L 531 372 L 640 399 L 684 395"/>
<path style="--d:9s;" pathLength="3333" clip-path="url(#z28180c9)" d="M 568 485 L 590 463 L 592 427 L 589 307 L 575 284"/>
<path style="--d:10s;" pathLength="3333" clip-path="url(#z28180c10)" d="M 470 235 L 488 245 L 661 272 L 693 282"/>
<path style="--d:11s;" pathLength="3333" clip-path="url(#z28180c11)" d="M 285 105 L 344 89 L 541 117 L 818 138 L 895 110"/>
</svg>