<svg id="z26095" class="acjk" viewBox="0 0 1024 1024" xmlns="http://www.w3.org/2000/svg">
  <path id="z26095d1" d="M 306 755 Q 303 756 300 756 Q 288 759 285 754 Q 278 747 287 732 Q 321 663 340 551 Q 344 517 364 495 Q 382 473 387 489 Q 388 498 390 508 L 389 535 Q 388 548 385 563 Q 379 588 375 610 L 370 635 Q 360 692 357 715 C 353 745 336 750 306 755 Z"/>
  <path id="z26095d2" d="M 607 534 Q 607 528 609 521 Q 615 505 628 505 Q 643 506 651 522 Q 666 538 692 624 Q 711 679 751 709 Q 772 725 755 743 Q 736 762 684 792 Q 669 801 595 788 Q 568 788 438 765 Q 351 750 306 755 C 276 757 327 713 357 715 Q 367 714 376 716 Q 446 735 608 751 Q 636 752 647 747 Q 657 740 651 707 Q 624 584 611 555 L 607 534 Z"/>
  <path id="z26095d3" d="M 375 610 Q 379 609 392 611 Q 486 627 554 636 Q 578 640 569 652 Q 559 667 533 672 Q 509 675 370 635 C 341 627 345 611 375 610 Z"/>
  <path id="z26095d4" d="M 390 508 Q 396 508 405 509 Q 519 525 602 534 Q 603 535 607 534 C 637 535 635 537 611 555 Q 584 582 458 550 Q 422 543 389 535 C 360 528 360 507 390 508 Z"/>
  <path id="z26095d5" d="M 478 369 Q 485 399 500 424 Q 512 442 495 452 Q 450 494 421 485 Q 406 481 412 466 Q 427 430 414 354 L 407 318 Q 353 126 198 34 Q 182 24 165 12 Q 150 3 163 0 Q 223 -6 314 66 Q 353 93 399 162 Q 444 243 468 334 L 478 369 Z"/>
  <path id="z26095d6" d="M 468 334 Q 529 350 582 361 Q 598 364 605 353 Q 609 349 606 332 Q 558 83 596 37 Q 638 -14 798 -15 Q 883 -14 946 10 Q 974 26 959 50 Q 934 90 912 190 Q 908 212 900 222 Q 893 226 890 208 Q 889 157 882 98 Q 878 64 844 54 Q 789 36 706 47 Q 651 54 635 77 Q 616 113 667 287 Q 674 312 696 332 Q 726 357 704 376 Q 691 392 656 412 Q 631 425 615 414 Q 588 401 478 369 L 414 354 Q 329 338 239 328 Q 224 328 219 322 Q 213 313 226 305 Q 266 274 300 286 Q 355 304 407 318 L 468 334 Z"/>
<defs>
  <clipPath id="z26095c1"><use href="#z26095d1"/></clipPath>
  <clipPath id="z26095c2"><use href="#z26095d2"/></clipPath>
  <clipPath id="z26095c3"><use href="#z26095d3"/></clipPath>
  <clipPath id="z26095c4"><use href="#z26095d4"/></clipPath>
  <clipPath id="z26095c5"><use href="#z26095d5"/></clipPath>
  <clipPath id="z26095c6"><use href="#z26095d6"/></clipPath>
</defs>
<path style="--d:1s;" pathLength="3333" clip-path="url(#z26095c1)" d="M 294 746 L 331 697 L 376 494"/>
<path style="--d:2s;" pathLength="3333" clip-path="url(#z26095c2)" d="M 322 750 L 369 735 L 453 752 L 609 772 L 671 765 L 700 726 L 682 688 L 629 524"/>
<path style="--d:3s;" pathLength="3333" clip-path="url(#z26095c3)" d="M 378 617 L 388 627 L 484 646 L 536 653 L 559 646"/>
<path style="--d:4s;" pathLength="3333" clip-path="url(#z26095c4)" d="M 397 515 L 404 524 L 518 545 L 587 549 L 605 540"/>
<path style="--d:5s;" pathLength="3333" clip-path="url(#z26095c5)" d="M 422 473 L 454 442 L 457 419 L 427 290 L 380 181 L 336 120 L 293 77 L 237 36 L 169 5"/>
<path style="--d:6s;" pathLength="3333" clip-path="url(#z26095c6)" d="M 228 316 L 288 308 L 580 381 L 634 379 L 654 357 L 637 313 L 617 222 L 605 133 L 608 75 L 617 56 L 637 39 L 696 20 L 787 13 L 821 16 L 878 29 L 909 46 L 898 216"/>
</svg>