<svg id="z23435" class="acjk" viewBox="0 0 1024 1024" xmlns="http://www.w3.org/2000/svg">
  <path id="z23435d1" d="M 467 764 Q 489 743 513 718 Q 529 705 546 705 Q 559 705 564 721 Q 570 737 559 771 Q 553 790 523 802 Q 451 829 436 819 Q 430 815 432 800 Q 436 787 467 764 Z"/>
  <path id="z23435d2" d="M 301 635 Q 289 659 278 668 Q 259 681 257 656 Q 261 625 217 569 Q 180 533 207 471 Q 222 444 242 472 Q 258 497 272 534 Q 287 580 299 606 C 307 624 307 624 301 635 Z"/>
  <path id="z23435d3" d="M 299 606 Q 326 590 353 597 Q 500 643 682 659 Q 713 663 725 660 Q 741 653 740 646 Q 740 643 695 566 Q 688 553 693 548 Q 700 544 717 554 Q 777 591 826 602 Q 866 612 865 622 Q 864 632 795 689 Q 768 710 696 694 Q 555 675 398 648 Q 349 641 301 635 C 271 631 272 618 299 606 Z"/>
  <path id="z23435d4" d="M 538 385 Q 559 391 728 413 Q 738 412 749 424 Q 750 437 726 448 Q 692 469 598 443 Q 568 436 540 428 L 487 417 Q 435 408 388 402 Q 339 398 285 390 Q 254 386 278 368 Q 311 340 342 348 Q 394 360 455 370 L 538 385 Z"/>
  <path id="z23435d5" d="M 540 428 Q 541 474 552 507 Q 559 522 557 534 Q 551 543 500 573 Q 479 589 460 574 Q 456 570 461 556 Q 483 523 485 489 Q 486 455 487 417 L 488 326 Q 488 149 474 87 Q 456 57 486 -12 Q 493 -28 500 -31 Q 506 -37 512 -30 Q 519 -26 528 -6 Q 537 16 536 45 Q 535 76 537 348 L 538 385 L 540 428 Z"/>
  <path id="z23435d6" d="M 455 370 Q 407 243 178 88 Q 162 75 177 74 Q 187 73 226 88 Q 281 109 331 148 Q 374 182 425 239 Q 465 285 488 326 C 523 386 473 413 455 370 Z"/>
  <path id="z23435d7" d="M 537 348 Q 619 230 726 102 Q 745 81 777 83 Q 886 87 921 93 Q 931 96 932 101 Q 933 107 918 114 Q 782 166 727 207 Q 643 277 544 379 Q 541 383 538 385 C 517 406 520 373 537 348 Z"/>
<defs>
  <clipPath id="z23435c1"><use href="#z23435d1"/></clipPath>
  <clipPath id="z23435c2"><use href="#z23435d2"/></clipPath>
  <clipPath id="z23435c3"><use href="#z23435d3"/></clipPath>
  <clipPath id="z23435c4"><use href="#z23435d4"/></clipPath>
  <clipPath id="z23435c5"><use href="#z23435d5"/></clipPath>
  <clipPath id="z23435c6"><use href="#z23435d6"/></clipPath>
  <clipPath id="z23435c7"><use href="#z23435d7"/></clipPath>
</defs>
<path style="--d:1s;" pathLength="3333" clip-path="url(#z23435c1)" d="M 443 810 L 516 766 L 545 724"/>
<path style="--d:2s;" pathLength="3333" clip-path="url(#z23435c2)" d="M 268 660 L 278 629 L 275 615 L 230 523 L 223 475"/>
<path style="--d:3s;" pathLength="3333" clip-path="url(#z23435c3)" d="M 309 627 L 319 618 L 334 617 L 600 666 L 727 681 L 755 674 L 780 652 L 785 638 L 698 553"/>
<path style="--d:4s;" pathLength="3333" clip-path="url(#z23435c4)" d="M 279 380 L 332 371 L 650 429 L 699 433 L 739 426"/>
<path style="--d:5s;" pathLength="3333" clip-path="url(#z23435c5)" d="M 471 567 L 497 546 L 517 518 L 511 171 L 502 65 L 505 -18"/>
<path style="--d:6s;" pathLength="3333" clip-path="url(#z23435c6)" d="M 483 370 L 469 353 L 464 332 L 443 297 L 361 203 L 288 142 L 180 81"/>
<path style="--d:7s;" pathLength="3333" clip-path="url(#z23435c7)" d="M 538 379 L 553 350 L 620 271 L 705 180 L 755 137 L 786 124 L 924 101"/>
</svg>