<svg id="z33302" class="acjk" viewBox="0 0 1024 1024" xmlns="http://www.w3.org/2000/svg">
  <path id="z33302d1" d="M 350 703 Q 363 727 379 741 Q 388 751 383 765 Q 379 778 350 799 Q 323 817 305 817 Q 286 814 295 793 Q 310 762 297 734 Q 237 578 78 383 Q 68 373 66 366 Q 63 356 77 358 Q 132 367 306 626 Q 325 666 337 681 L 350 703 Z"/>
  <path id="z33302d2" d="M 337 681 Q 454 609 458 608 Q 459 608 463 608 Q 470 609 473 620 Q 476 632 466 654 Q 457 676 422 688 Q 388 698 350 703 C 320 707 311 697 337 681 Z"/>
  <path id="z33302d3" d="M 319 479 Q 428 509 433 512 Q 440 519 435 526 Q 428 536 403 540 Q 378 544 352 532 Q 327 522 299 514 Q 269 507 233 501 Q 202 494 226 480 Q 248 468 279 471 L 319 479 Z"/>
  <path id="z33302d4" d="M 331 354 Q 380 367 447 375 Q 460 376 461 383 Q 462 395 447 402 Q 423 414 337 391 L 291 381 Q 179 362 143 357 Q 133 356 130 349 Q 127 340 140 330 Q 176 306 209 319 Q 254 335 289 344 L 331 354 Z"/>
  <path id="z33302d5" d="M 315 268 Q 322 313 331 354 L 337 391 Q 344 424 347 428 Q 351 438 353 445 Q 357 452 343 465 Q 330 474 319 479 C 292 492 270 499 279 471 Q 291 437 292 396 Q 291 390 291 381 L 289 344 Q 286 304 282 258 C 279 228 310 238 315 268 Z"/>
  <path id="z33302d6" d="M 230 247 Q 220 253 194 256 Q 184 259 181 254 Q 175 250 183 235 Q 205 187 221 109 Q 224 87 237 70 Q 253 51 258 65 Q 262 78 261 98 L 257 128 Q 244 203 243 224 C 242 242 242 242 230 247 Z"/>
  <path id="z33302d7" d="M 404 150 Q 422 211 441 229 Q 463 251 442 265 Q 424 275 400 292 Q 384 302 366 292 Q 342 279 315 268 L 282 258 Q 260 254 230 247 C 201 240 215 213 243 224 Q 252 230 338 248 Q 366 255 372 244 Q 378 240 371 212 Q 364 187 357 156 C 350 127 395 121 404 150 Z"/>
  <path id="z33302d8" d="M 261 98 Q 265 98 273 100 Q 316 112 411 125 Q 420 126 421 134 Q 421 141 404 150 L 357 156 Q 354 156 353 155 Q 301 139 257 128 C 228 121 231 95 261 98 Z"/>
  <path id="z33302d9" d="M 682 561 Q 748 574 853 578 Q 901 582 905 589 Q 909 599 894 611 Q 836 647 783 625 Q 741 616 683 600 L 632 590 Q 560 577 482 561 Q 463 557 478 543 Q 491 531 508 528 Q 527 524 541 529 Q 584 544 632 553 L 682 561 Z"/>
  <path id="z33302d10" d="M 519 448 Q 494 461 477 462 Q 464 458 469 447 Q 520 333 464 135 Q 437 62 464 29 Q 471 16 480 21 Q 516 45 520 162 Q 529 369 536 415 C 539 438 539 438 519 448 Z"/>
  <path id="z33302d11" d="M 681 448 Q 720 455 764 462 Q 782 466 791 455 Q 801 451 804 407 Q 816 262 810 98 Q 809 74 800 67 Q 788 57 723 70 Q 708 71 710 63 Q 711 56 723 52 Q 781 13 812 -18 Q 831 -34 842 -32 Q 854 -29 863 -3 Q 875 39 870 150 Q 852 402 868 433 Q 878 454 870 465 Q 861 478 819 499 Q 803 508 785 503 Q 751 493 681 475 L 632 465 Q 577 456 519 448 C 489 444 507 407 536 415 Q 535 416 538 416 Q 581 428 632 438 L 681 448 Z"/>
  <path id="z33302d12" d="M 681 324 Q 715 331 748 337 Q 770 341 761 353 Q 751 366 727 370 Q 708 371 681 364 L 632 348 Q 599 338 570 328 Q 554 324 574 311 Q 577 310 631 314 L 681 324 Z"/>
  <path id="z33302d13" d="M 681 219 Q 712 226 742 230 Q 767 234 757 248 Q 745 263 719 267 Q 703 268 681 264 L 629 248 Q 595 236 563 226 Q 545 222 568 207 Q 575 200 594 204 Q 610 208 628 210 L 681 219 Z"/>
  <path id="z33302d14" d="M 628 210 Q 625 48 645 15 Q 658 2 667 21 Q 680 55 681 219 L 681 264 Q 681 292 681 324 L 681 364 L 681 448 L 681 475 Q 681 521 682 561 L 683 600 Q 684 666 687 708 Q 688 739 705 765 Q 712 780 692 795 Q 670 813 629 823 Q 611 827 600 814 Q 590 807 602 796 Q 630 772 632 740 Q 632 682 632 590 L 632 553 Q 632 513 632 465 L 632 438 Q 633 432 633 425 Q 632 385 632 348 L 631 314 Q 630 278 629 248 L 628 210 Z"/>
  <path id="z33302d15" d="M 771 728 Q 813 685 845 670 Q 860 669 867 680 Q 873 693 869 708 Q 862 730 845 741 Q 830 750 781 764 Q 765 768 757 764 Q 751 763 754 751 Q 755 741 771 728 Z"/>
<defs>
  <clipPath id="z33302c1"><use href="#z33302d1"/></clipPath>
  <clipPath id="z33302c2"><use href="#z33302d2"/></clipPath>
  <clipPath id="z33302c3"><use href="#z33302d3"/></clipPath>
  <clipPath id="z33302c4"><use href="#z33302d4"/></clipPath>
  <clipPath id="z33302c5"><use href="#z33302d5"/></clipPath>
  <clipPath id="z33302c6"><use href="#z33302d6"/></clipPath>
  <clipPath id="z33302c7"><use href="#z33302d7"/></clipPath>
  <clipPath id="z33302c8"><use href="#z33302d8"/></clipPath>
  <clipPath id="z33302c9"><use href="#z33302d9"/></clipPath>
  <clipPath id="z33302c10"><use href="#z33302d10"/></clipPath>
  <clipPath id="z33302c11"><use href="#z33302d11"/></clipPath>
  <clipPath id="z33302c12"><use href="#z33302d12"/></clipPath>
  <clipPath id="z33302c13"><use href="#z33302d13"/></clipPath>
  <clipPath id="z33302c14"><use href="#z33302d14"/></clipPath>
  <clipPath id="z33302c15"><use href="#z33302d15"/></clipPath>
</defs>
<path style="--d:1s;" pathLength="3333" clip-path="url(#z33302c1)" d="M 306 803 L 341 757 L 288 646 L 214 528 L 148 441 L 75 366"/>
<path style="--d:2s;" pathLength="3333" clip-path="url(#z33302c2)" d="M 356 692 L 359 684 L 396 672 L 442 647 L 461 616"/>
<path style="--d:3s;" pathLength="3333" clip-path="url(#z33302c3)" d="M 227 491 L 271 489 L 386 520 L 428 520"/>
<path style="--d:4s;" pathLength="3333" clip-path="url(#z33302c4)" d="M 141 346 L 188 339 L 374 383 L 432 390 L 451 386"/>
<path style="--d:5s;" pathLength="3333" clip-path="url(#z33302c5)" d="M 287 466 L 319 443 L 302 293 L 286 265"/>
<path style="--d:6s;" pathLength="3333" clip-path="url(#z33302c6)" d="M 189 247 L 213 227 L 220 210 L 248 70"/>
<path style="--d:7s;" pathLength="3333" clip-path="url(#z33302c7)" d="M 238 244 L 248 239 L 285 246 L 369 271 L 390 266 L 409 245 L 387 176 L 366 162"/>
<path style="--d:8s;" pathLength="3333" clip-path="url(#z33302c8)" d="M 266 106 L 280 119 L 351 136 L 412 134"/>
<path style="--d:9s;" pathLength="3333" clip-path="url(#z33302c9)" d="M 480 552 L 525 548 L 799 603 L 834 605 L 898 594"/>
<path style="--d:10s;" pathLength="3333" clip-path="url(#z33302c10)" d="M 478 452 L 506 420 L 511 336 L 508 246 L 475 31"/>
<path style="--d:11s;" pathLength="3333" clip-path="url(#z33302c11)" d="M 527 445 L 553 436 L 785 482 L 816 471 L 835 448 L 842 118 L 834 51 L 825 30 L 815 31 L 767 43 L 718 64"/>
<path style="--d:12s;" pathLength="3333" clip-path="url(#z33302c12)" d="M 571 319 L 694 348 L 730 352 L 752 347"/>
<path style="--d:13s;" pathLength="3333" clip-path="url(#z33302c13)" d="M 565 216 L 691 244 L 723 247 L 747 241"/>
<path style="--d:14s;" pathLength="3333" clip-path="url(#z33302c14)" d="M 606 806 L 631 800 L 664 769 L 657 634 L 655 22"/>
<path style="--d:15s;" pathLength="3333" clip-path="url(#z33302c15)" d="M 764 756 L 828 717 L 849 690"/>
</svg>