<svg id="z31119" class="acjk" viewBox="0 0 1024 1024" xmlns="http://www.w3.org/2000/svg">
  <path id="z31119d1" d="M 298 770 Q 329 748 361 719 Q 377 706 395 707 Q 408 708 412 724 Q 416 742 404 775 Q 397 796 361 809 Q 277 830 264 823 Q 258 819 261 804 Q 265 791 298 770 Z"/>
  <path id="z31119d2" d="M 270 379 Q 298 416 329 460 Q 363 514 412 548 Q 428 558 415 574 Q 396 590 367 601 Q 345 611 327 599 Q 237 541 87 534 Q 74 537 71 528 Q 68 518 83 508 Q 120 480 138 483 Q 156 486 288 537 Q 306 544 310 536 Q 314 527 302 505 Q 220 358 48 203 Q 33 193 36 189 Q 39 186 52 191 Q 148 236 245 349 L 270 379 Z"/>
  <path id="z31119d3" d="M 245 349 Q 260 301 261 264 Q 261 174 242 99 Q 230 50 265 9 L 266 7 Q 282 -8 294 17 Q 307 56 307 99 Q 308 262 315 299 Q 322 324 313 334 Q 280 373 270 379 C 247 398 236 378 245 349 Z"/>
  <path id="z31119d4" d="M 328 383 Q 364 323 383 320 Q 395 317 402 332 Q 405 342 399 362 Q 389 386 335 406 Q 328 409 325 399 Q 324 392 328 383 Z"/>
  <path id="z31119d5" d="M 537 750 Q 500 743 527 727 Q 572 703 627 718 Q 694 734 766 750 Q 799 759 804 763 Q 813 772 808 780 Q 801 792 770 798 Q 739 804 709 791 Q 672 778 632 767 Q 589 757 537 750 Z"/>
  <path id="z31119d6" d="M 548 618 Q 538 624 505 628 Q 493 631 491 626 Q 485 619 493 605 Q 518 559 535 484 Q 539 462 552 447 Q 570 426 574 441 Q 577 448 577 460 L 575 491 Q 562 561 559 587 C 556 615 556 615 548 618 Z"/>
  <path id="z31119d7" d="M 771 520 Q 793 578 819 596 Q 834 614 820 630 Q 804 643 755 666 Q 740 673 671 646 Q 614 631 548 618 C 519 612 530 579 559 587 Q 565 588 576 592 Q 643 605 706 618 Q 722 622 729 615 Q 736 609 735 595 Q 729 555 721 522 C 714 493 760 492 771 520 Z"/>
  <path id="z31119d8" d="M 577 460 Q 584 459 596 461 Q 656 474 785 488 Q 795 489 796 497 Q 796 504 771 520 C 755 531 750 529 721 522 Q 639 501 575 491 C 545 486 547 461 577 460 Z"/>
  <path id="z31119d9" d="M 476 375 Q 458 385 438 391 Q 431 394 426 388 Q 417 382 427 371 Q 469 304 473 152 Q 474 85 514 60 L 515 59 Q 533 53 535 85 L 535 86 L 533 119 Q 512 263 510 336 C 509 358 503 361 476 375 Z"/>
  <path id="z31119d10" d="M 770 108 Q 780 83 804 33 Q 813 15 823 16 Q 839 19 849 45 Q 873 94 889 233 Q 899 335 923 364 Q 939 385 927 398 Q 905 420 856 441 Q 837 451 803 439 Q 677 393 476 375 C 446 372 480 333 510 336 Q 522 335 534 338 Q 573 347 625 356 L 667 364 Q 718 376 787 387 Q 815 391 827 379 Q 851 336 816 147 Q 815 131 806 128 Q 802 125 781 137 C 753 149 758 136 770 108 Z"/>
  <path id="z31119d11" d="M 686 230 Q 725 237 758 242 Q 783 246 773 260 Q 761 275 735 279 Q 716 282 688 274 L 637 259 Q 591 246 551 234 Q 533 230 556 215 Q 566 208 586 211 Q 611 217 638 220 L 686 230 Z"/>
  <path id="z31119d12" d="M 681 142 Q 682 190 686 230 L 688 274 Q 694 338 689 345 Q 679 355 667 364 C 643 382 617 385 625 356 Q 634 328 637 259 L 638 220 Q 638 184 639 134 C 640 104 680 112 681 142 Z"/>
  <path id="z31119d13" d="M 535 86 Q 544 85 555 86 Q 622 101 770 108 C 800 109 805 120 781 137 Q 771 144 766 148 Q 748 158 681 142 L 639 134 Q 581 127 533 119 C 503 114 505 88 535 86 Z"/>
<defs>
  <clipPath id="z31119c1"><use href="#z31119d1"/></clipPath>
  <clipPath id="z31119c2"><use href="#z31119d2"/></clipPath>
  <clipPath id="z31119c3"><use href="#z31119d3"/></clipPath>
  <clipPath id="z31119c4"><use href="#z31119d4"/></clipPath>
  <clipPath id="z31119c5"><use href="#z31119d5"/></clipPath>
  <clipPath id="z31119c6"><use href="#z31119d6"/></clipPath>
  <clipPath id="z31119c7"><use href="#z31119d7"/></clipPath>
  <clipPath id="z31119c8"><use href="#z31119d8"/></clipPath>
  <clipPath id="z31119c9"><use href="#z31119d9"/></clipPath>
  <clipPath id="z31119c10"><use href="#z31119d10"/></clipPath>
  <clipPath id="z31119c11"><use href="#z31119d11"/></clipPath>
  <clipPath id="z31119c12"><use href="#z31119d12"/></clipPath>
  <clipPath id="z31119c13"><use href="#z31119d13"/></clipPath>
</defs>
<path style="--d:1s;" pathLength="3333" clip-path="url(#z31119c1)" d="M 269 816 L 364 767 L 393 726"/>
<path style="--d:2s;" pathLength="3333" clip-path="url(#z31119c2)" d="M 81 524 L 139 511 L 223 532 L 307 563 L 351 558 L 324 493 L 242 377 L 178 304 L 121 250 L 39 191"/>
<path style="--d:3s;" pathLength="3333" clip-path="url(#z31119c3)" d="M 269 371 L 287 312 L 284 197 L 272 75 L 277 14"/>
<path style="--d:4s;" pathLength="3333" clip-path="url(#z31119c4)" d="M 335 396 L 376 355 L 386 336"/>
<path style="--d:5s;" pathLength="3333" clip-path="url(#z31119c5)" d="M 529 740 L 552 734 L 601 736 L 748 774 L 797 774"/>
<path style="--d:6s;" pathLength="3333" clip-path="url(#z31119c6)" d="M 499 619 L 529 594 L 564 446"/>
<path style="--d:7s;" pathLength="3333" clip-path="url(#z31119c7)" d="M 557 615 L 569 606 L 724 642 L 752 636 L 775 610 L 753 546 L 727 528"/>
<path style="--d:8s;" pathLength="3333" clip-path="url(#z31119c8)" d="M 581 468 L 592 477 L 718 501 L 764 504 L 787 496"/>
<path style="--d:9s;" pathLength="3333" clip-path="url(#z31119c9)" d="M 432 380 L 460 358 L 480 324 L 505 117 L 520 65"/>
<path style="--d:10s;" pathLength="3333" clip-path="url(#z31119c10)" d="M 486 375 L 495 366 L 520 358 L 819 414 L 840 411 L 862 397 L 877 379 L 876 369 L 851 169 L 842 123 L 822 87 L 823 30"/>
<path style="--d:11s;" pathLength="3333" clip-path="url(#z31119c11)" d="M 553 224 L 716 258 L 763 253"/>
<path style="--d:12s;" pathLength="3333" clip-path="url(#z31119c12)" d="M 633 353 L 661 330 L 661 166 L 645 142"/>
<path style="--d:13s;" pathLength="3333" clip-path="url(#z31119c13)" d="M 540 92 L 551 104 L 571 108 L 771 132"/>
</svg>