<svg id="z30124" class="acjk" viewBox="0 0 1024 1024" xmlns="http://www.w3.org/2000/svg">
  <path id="z30124d1" d="M 511 784 Q 545 762 582 736 Q 598 724 614 727 Q 626 730 629 744 Q 632 760 618 790 Q 600 826 498 833 Q 482 834 476 831 Q 472 827 474 813 Q 480 803 511 784 Z"/>
  <path id="z30124d2" d="M 366 620 Q 403 602 479 613 Q 600 632 726 652 Q 787 664 797 672 Q 807 681 803 690 Q 796 705 763 714 Q 729 723 637 694 Q 492 660 365 653 Q 364 653 363 652 C 333 648 338 631 366 620 Z"/>
  <path id="z30124d3" d="M 278 367 Q 251 217 139 35 Q 133 28 132 22 Q 129 12 140 14 Q 182 21 266 173 Q 269 183 275 193 Q 335 325 360 584 Q 361 603 366 620 C 371 646 371 646 363 652 Q 347 667 319 679 Q 300 689 286 685 Q 274 678 281 663 Q 299 644 299 582 Q 298 566 297 547 Q 296 471 284 403 L 278 367 Z"/>
  <path id="z30124d4" d="M 169 550 Q 220 492 237 489 Q 247 489 253 501 Q 259 514 253 544 Q 246 571 169 596 Q 154 600 148 599 Q 144 595 143 583 Q 146 573 169 550 Z"/>
  <path id="z30124d5" d="M 284 403 Q 107 321 71 317 Q 58 314 58 304 Q 58 291 68 285 Q 92 272 125 260 Q 135 259 146 268 Q 176 301 278 367 C 303 383 311 416 284 403 Z"/>
  <path id="z30124d6" d="M 486 478 Q 498 477 511 481 Q 656 512 778 526 Q 788 525 797 538 Q 798 550 775 559 Q 747 580 663 556 Q 645 553 628 548 Q 576 535 527 529 Q 502 528 477 523 C 447 518 456 478 486 478 Z"/>
  <path id="z30124d7" d="M 477 523 Q 465 533 449 540 Q 433 550 421 546 Q 411 539 416 527 Q 426 509 427 453 Q 426 447 426 440 Q 417 308 386 224 Q 358 149 298 59 Q 294 55 292 48 Q 289 39 299 41 Q 335 50 392 144 Q 399 159 408 173 Q 460 279 479 439 Q 479 449 486 478 C 493 507 494 511 477 523 Z"/>
  <path id="z30124d8" d="M 641 317 Q 687 329 728 334 Q 746 335 749 330 Q 759 314 751 272 Q 735 154 704 104 Q 688 74 661 80 Q 636 87 615 97 Q 591 104 607 81 Q 649 38 667 6 Q 686 -16 707 2 Q 738 24 760 63 Q 787 109 806 254 Q 813 305 831 329 Q 844 342 838 353 Q 828 363 777 387 Q 758 397 738 383 Q 719 373 649 356 L 592 343 Q 538 333 490 330 Q 472 329 469 320 Q 468 313 492 300 Q 517 284 537 291 Q 561 298 587 304 L 641 317 Z"/>
  <path id="z30124d9" d="M 587 304 Q 563 153 436 67 Q 423 57 408 46 Q 395 39 407 35 Q 461 35 530 97 Q 608 163 635 287 Q 635 296 641 317 L 649 356 Q 653 378 665 399 Q 674 415 658 424 Q 616 458 590 449 Q 577 445 583 431 Q 592 416 592 343 L 587 304 Z"/>
<defs>
  <clipPath id="z30124c1"><use href="#z30124d1"/></clipPath>
  <clipPath id="z30124c2"><use href="#z30124d2"/></clipPath>
  <clipPath id="z30124c3"><use href="#z30124d3"/></clipPath>
  <clipPath id="z30124c4"><use href="#z30124d4"/></clipPath>
  <clipPath id="z30124c5"><use href="#z30124d5"/></clipPath>
  <clipPath id="z30124c6"><use href="#z30124d6"/></clipPath>
  <clipPath id="z30124c7"><use href="#z30124d7"/></clipPath>
  <clipPath id="z30124c8"><use href="#z30124d8"/></clipPath>
  <clipPath id="z30124c9"><use href="#z30124d9"/></clipPath>
</defs>
<path style="--d:1s;" pathLength="3333" clip-path="url(#z30124c1)" d="M 482 825 L 580 780 L 609 746"/>
<path style="--d:2s;" pathLength="3333" clip-path="url(#z30124c2)" d="M 367 647 L 385 634 L 467 636 L 738 686 L 789 685"/>
<path style="--d:3s;" pathLength="3333" clip-path="url(#z30124c3)" d="M 292 672 L 324 643 L 331 622 L 322 484 L 295 326 L 268 239 L 229 150 L 171 56 L 141 23"/>
<path style="--d:4s;" pathLength="3333" clip-path="url(#z30124c4)" d="M 152 593 L 224 536 L 238 501"/>
<path style="--d:5s;" pathLength="3333" clip-path="url(#z30124c5)" d="M 72 303 L 125 297 L 261 374 L 271 387"/>
<path style="--d:6s;" pathLength="3333" clip-path="url(#z30124c6)" d="M 485 517 L 502 505 L 515 504 L 713 543 L 748 546 L 786 540"/>
<path style="--d:7s;" pathLength="3333" clip-path="url(#z30124c7)" d="M 428 534 L 450 509 L 456 476 L 447 383 L 429 291 L 408 223 L 371 143 L 340 93 L 301 50"/>
<path style="--d:8s;" pathLength="3333" clip-path="url(#z30124c8)" d="M 477 319 L 520 310 L 744 359 L 773 354 L 789 337 L 763 171 L 747 116 L 720 65 L 691 43 L 661 55 L 608 90"/>
<path style="--d:9s;" pathLength="3333" clip-path="url(#z30124c9)" d="M 592 438 L 612 424 L 626 403 L 615 314 L 591 222 L 565 170 L 523 116 L 471 71 L 413 40"/>
</svg>