<svg id="z38404" class="acjk" viewBox="0 0 1024 1024" xmlns="http://www.w3.org/2000/svg">
  <path id="z38404d1" d="M 297 762 Q 322 732 347 704 Q 368 685 386 684 Q 402 683 409 704 Q 410 720 400 743 Q 388 761 362 771 Q 320 790 302 792 Q 292 795 291 781 Q 290 771 297 762 Z"/>
  <path id="z38404d2" d="M 176 688 Q 231 541 186 227 Q 156 104 157 94 Q 157 63 179 37 Q 192 22 202 37 Q 239 76 240 242 Q 240 569 257 653 Q 258 672 242 683 Q 217 704 189 712 Q 179 715 172 706 Q 168 699 176 688 Z"/>
  <path id="z38404d3" d="M 495 746 Q 479 747 483 736 Q 490 723 512 713 Q 524 704 560 712 Q 741 758 758 727 Q 789 678 784 271 Q 783 199 779 124 Q 778 82 763 71 Q 748 61 674 74 Q 656 77 658 67 Q 659 60 673 53 Q 740 8 776 -27 Q 798 -46 811 -44 Q 824 -41 836 -11 Q 851 37 849 106 Q 819 661 841 708 Q 856 732 845 745 Q 835 761 786 786 Q 767 796 695 777 Q 584 756 495 746 Z"/>
  <path id="z38404d4" d="M 456 594 Q 490 630 492 633 Q 492 636 492 638 Q 491 648 472 669 Q 454 685 440 688 Q 427 689 429 672 Q 435 648 382 577 Q 355 546 321 510 Q 312 504 309 500 Q 305 491 316 492 Q 352 492 444 582 L 456 594 Z"/>
  <path id="z38404d5" d="M 495 474 Q 511 487 549 523 Q 583 556 615 573 Q 631 582 621 594 Q 609 606 577 626 Q 568 629 509 609 Q 461 596 456 594 C 435 587 435 587 444 582 Q 459 567 524 581 Q 530 582 531 581 Q 534 578 530 571 Q 502 514 483 488 Q 476 478 475 472 Q 474 471 474 470 C 466 450 472 455 495 474 Z"/>
  <path id="z38404d6" d="M 347 446 Q 337 452 310 457 Q 298 460 295 455 Q 288 451 296 434 Q 321 377 335 286 Q 338 258 353 239 Q 369 218 375 233 Q 376 237 377 241 L 379 264 Q 378 277 377 293 Q 373 315 371 333 L 368 350 Q 362 393 361 413 C 359 440 359 440 347 446 Z"/>
  <path id="z38404d7" d="M 585 269 Q 585 266 587 262 Q 591 249 603 249 Q 616 250 623 264 Q 633 277 654 349 Q 669 397 702 424 Q 718 439 704 453 Q 688 469 641 493 Q 629 499 564 486 Q 546 486 495 474 L 474 470 Q 447 467 425 461 Q 382 451 347 446 C 317 441 333 404 361 413 Q 403 428 450 434 L 478 439 Q 595 460 612 451 Q 621 447 616 418 Q 597 315 588 293 Q 587 293 587 292 C 582 277 582 277 585 269 Z"/>
  <path id="z38404d8" d="M 456 371 Q 407 361 368 350 C 339 342 342 341 371 333 Q 381 329 398 331 Q 426 337 456 340 L 496 346 Q 530 353 560 356 Q 579 359 573 370 Q 564 382 543 386 Q 525 389 498 382 L 456 371 Z"/>
  <path id="z38404d9" d="M 494 256 Q 543 265 585 269 C 615 272 612 275 587 292 Q 574 305 523 294 Q 508 293 494 287 L 455 278 Q 415 272 379 264 C 350 258 347 242 377 241 Q 384 240 398 242 Q 426 246 455 250 L 494 256 Z"/>
  <path id="z38404d10" d="M 455 250 Q 452 186 465 157 Q 477 132 502 119 Q 617 68 734 132 Q 755 142 741 177 Q 725 216 718 267 Q 717 283 712 285 Q 706 285 704 269 Q 691 187 661 172 Q 639 162 598 160 Q 552 159 529 167 Q 508 177 500 194 Q 494 207 494 256 L 494 287 Q 494 321 496 346 L 498 382 Q 499 413 490 426 Q 483 433 478 439 C 458 461 445 463 450 434 Q 456 409 456 375 Q 456 374 456 371 L 456 340 Q 456 315 456 297 Q 455 288 455 278 L 455 250 Z"/>
<defs>
  <clipPath id="z38404c1"><use href="#z38404d1"/></clipPath>
  <clipPath id="z38404c2"><use href="#z38404d2"/></clipPath>
  <clipPath id="z38404c3"><use href="#z38404d3"/></clipPath>
  <clipPath id="z38404c4"><use href="#z38404d4"/></clipPath>
  <clipPath id="z38404c5"><use href="#z38404d5"/></clipPath>
  <clipPath id="z38404c6"><use href="#z38404d6"/></clipPath>
  <clipPath id="z38404c7"><use href="#z38404d7"/></clipPath>
  <clipPath id="z38404c8"><use href="#z38404d8"/></clipPath>
  <clipPath id="z38404c9"><use href="#z38404d9"/></clipPath>
  <clipPath id="z38404c10"><use href="#z38404d10"/></clipPath>
</defs>
<path style="--d:1s;" pathLength="3333" clip-path="url(#z38404c1)" d="M 305 778 L 357 740 L 386 707"/>
<path style="--d:2s;" pathLength="3333" clip-path="url(#z38404c2)" d="M 182 701 L 222 655 L 225 586 L 221 326 L 209 188 L 190 80 L 191 42"/>
<path style="--d:3s;" pathLength="3333" clip-path="url(#z38404c3)" d="M 493 737 L 536 729 L 690 758 L 749 763 L 782 751 L 804 727 L 814 255 L 815 119 L 809 67 L 792 28 L 751 35 L 666 67"/>
<path style="--d:4s;" pathLength="3333" clip-path="url(#z38404c4)" d="M 439 677 L 455 644 L 444 620 L 364 531 L 318 501"/>
<path style="--d:5s;" pathLength="3333" clip-path="url(#z38404c5)" d="M 449 583 L 528 599 L 545 599 L 567 585 L 519 514 L 480 474"/>
<path style="--d:6s;" pathLength="3333" clip-path="url(#z38404c6)" d="M 304 447 L 327 425 L 335 405 L 365 239"/>
<path style="--d:7s;" pathLength="3333" clip-path="url(#z38404c7)" d="M 355 443 L 378 434 L 525 465 L 600 474 L 632 469 L 657 435 L 603 265"/>
<path style="--d:8s;" pathLength="3333" clip-path="url(#z38404c8)" d="M 376 347 L 390 343 L 524 369 L 564 366"/>
<path style="--d:9s;" pathLength="3333" clip-path="url(#z38404c9)" d="M 382 246 L 403 256 L 535 281 L 571 283 L 577 275"/>
<path style="--d:10s;" pathLength="3333" clip-path="url(#z38404c10)" d="M 458 429 L 471 420 L 478 391 L 478 191 L 490 164 L 511 146 L 562 130 L 602 128 L 656 135 L 696 153 L 706 161 L 712 280"/>
</svg>