<svg id="z34780" class="acjk" viewBox="0 0 1024 1024" xmlns="http://www.w3.org/2000/svg">
  <path id="z34780d1" d="M 114 466 Q 104 470 70 475 Q 60 478 56 473 Q 52 467 59 453 Q 87 401 105 316 Q 109 291 125 274 Q 141 255 146 269 Q 149 279 148 293 L 144 322 Q 129 406 122 437 C 116 465 116 465 114 466 Z"/>
  <path id="z34780d2" d="M 337 352 Q 355 430 381 455 Q 396 471 381 487 Q 311 536 257 503 Q 250 502 244 498 C 218 487 218 487 200 484 Q 197 485 196 484 Q 156 474 114 466 C 85 460 93 428 122 437 Q 147 446 201 455 L 243 464 Q 256 468 271 470 Q 287 474 295 468 Q 305 461 304 444 Q 301 398 295 359 C 291 329 330 323 337 352 Z"/>
  <path id="z34780d3" d="M 239 308 Q 282 317 346 323 Q 356 324 356 333 Q 356 340 337 352 L 295 359 Q 280 359 241 345 L 201 335 Q 170 328 144 322 C 115 315 118 294 148 293 Q 155 292 168 294 Q 181 298 200 301 L 239 308 Z"/>
  <path id="z34780d4" d="M 236 201 Q 237 256 239 308 L 241 345 Q 242 406 243 464 L 244 498 Q 244 592 263 668 Q 266 680 246 693 Q 212 711 188 715 Q 172 718 164 709 Q 157 702 165 687 Q 195 644 195 614 Q 199 551 200 484 L 201 455 Q 201 397 201 335 L 200 301 Q 199 246 196 186 C 195 156 235 171 236 201 Z"/>
  <path id="z34780d5" d="M 303 228 Q 270 216 236 201 L 196 186 Q 145 168 92 148 Q 76 142 50 141 Q 37 138 37 129 Q 36 116 45 109 Q 67 96 101 80 Q 111 79 121 87 Q 151 115 288 191 Q 301 198 312 207 C 336 225 331 238 303 228 Z"/>
  <path id="z34780d6" d="M 312 207 Q 334 156 344 153 Q 353 149 361 158 Q 371 168 375 194 Q 376 221 317 269 Q 307 278 301 278 Q 295 277 292 266 Q 291 256 303 230 L 303 228 L 312 207 Z"/>
  <path id="z34780d7" d="M 597 703 Q 628 713 656 726 Q 698 742 734 750 Q 750 751 753 758 Q 756 768 745 778 Q 726 793 685 808 Q 672 815 659 814 Q 652 810 652 801 Q 652 765 477 683 Q 473 674 477 672 Q 490 672 561 693 L 597 703 Z"/>
  <path id="z34780d8" d="M 605 604 Q 605 605 609 605 Q 633 609 667 614 L 686 616 Q 738 623 809 626 Q 825 626 841 627 Q 857 628 860 635 Q 864 644 850 653 Q 802 683 766 669 Q 711 656 626 637 L 559 625 Q 498 615 428 601 Q 413 600 425 587 Q 435 577 450 573 Q 466 570 477 574 Q 508 584 545 592 L 605 604 Z"/>
  <path id="z34780d9" d="M 530 473 Q 539 485 605 604 L 626 637 Q 641 662 641 663 Q 637 685 597 703 C 570 716 549 720 561 693 Q 576 672 559 625 L 545 592 Q 488 480 430 417 Q 406 395 375 366 Q 365 354 373 352 Q 391 346 453 392 Q 484 416 513 451 L 530 473 Z"/>
  <path id="z34780d10" d="M 667 614 Q 673 590 804 438 Q 835 401 963 416 Q 978 417 980 420 Q 981 426 970 431 Q 819 500 764 544 Q 745 560 725 578 Q 700 603 686 616 C 664 637 654 641 667 614 Z"/>
  <path id="z34780d11" d="M 557 467 Q 550 471 530 473 C 500 476 498 477 513 451 Q 532 420 548 367 Q 552 351 563 340 Q 578 324 581 337 Q 582 344 582 356 L 577 382 Q 567 428 566 445 C 564 464 564 464 557 467 Z"/>
  <path id="z34780d12" d="M 722 393 Q 734 427 747 439 Q 766 460 748 472 Q 732 482 709 498 Q 694 507 677 498 Q 649 483 557 467 C 527 462 536 444 566 445 Q 572 445 580 446 Q 620 453 653 458 Q 675 462 680 452 Q 684 449 682 430 Q 681 417 677 400 C 671 371 712 365 722 393 Z"/>
  <path id="z34780d13" d="M 582 356 Q 586 355 593 356 Q 636 363 729 368 Q 738 369 739 376 Q 739 382 722 393 C 704 405 704 405 677 400 Q 620 390 577 382 C 548 377 552 359 582 356 Z"/>
  <path id="z34780d14" d="M 459 292 Q 432 304 414 303 Q 404 299 409 288 Q 442 231 422 112 Q 400 67 436 26 Q 443 16 452 21 Q 479 40 476 118 Q 473 236 475 261 C 476 285 476 285 459 292 Z"/>
  <path id="z34780d15" d="M 475 261 Q 491 260 518 265 Q 761 304 797 285 Q 810 282 817 255 Q 823 147 814 64 Q 813 48 803 44 Q 793 40 742 46 Q 729 49 730 40 Q 731 33 747 23 Q 778 -5 803 -35 Q 816 -50 830 -49 Q 843 -48 860 -14 Q 879 20 879 56 Q 879 141 878 221 Q 877 252 892 276 Q 905 292 890 308 Q 871 326 830 343 Q 814 352 763 335 Q 583 296 459 292 C 429 291 445 260 475 261 Z"/>
  <path id="z34780d16" d="M 559 223 Q 550 227 524 231 Q 514 232 512 229 Q 508 225 515 212 Q 534 178 549 121 Q 552 103 563 93 Q 578 77 581 89 Q 582 96 583 105 L 580 130 Q 570 182 568 201 C 566 221 566 221 559 223 Z"/>
  <path id="z34780d17" d="M 716 141 Q 732 178 747 187 Q 768 206 749 220 Q 734 232 713 248 Q 701 257 652 239 Q 619 230 559 223 C 529 219 538 200 568 201 Q 587 201 658 211 Q 680 214 684 205 Q 688 201 682 182 Q 676 166 670 146 C 661 117 704 114 716 141 Z"/>
  <path id="z34780d18" d="M 583 105 Q 586 105 590 105 Q 632 114 722 118 Q 729 119 731 125 Q 731 129 716 141 C 702 152 699 152 670 146 Q 619 136 580 130 C 550 125 553 105 583 105 Z"/>
<defs>
  <clipPath id="z34780c1"><use href="#z34780d1"/></clipPath>
  <clipPath id="z34780c2"><use href="#z34780d2"/></clipPath>
  <clipPath id="z34780c3"><use href="#z34780d3"/></clipPath>
  <clipPath id="z34780c4"><use href="#z34780d4"/></clipPath>
  <clipPath id="z34780c5"><use href="#z34780d5"/></clipPath>
  <clipPath id="z34780c6"><use href="#z34780d6"/></clipPath>
  <clipPath id="z34780c7"><use href="#z34780d7"/></clipPath>
  <clipPath id="z34780c8"><use href="#z34780d8"/></clipPath>
  <clipPath id="z34780c9"><use href="#z34780d9"/></clipPath>
  <clipPath id="z34780c10"><use href="#z34780d10"/></clipPath>
  <clipPath id="z34780c11"><use href="#z34780d11"/></clipPath>
  <clipPath id="z34780c12"><use href="#z34780d12"/></clipPath>
  <clipPath id="z34780c13"><use href="#z34780d13"/></clipPath>
  <clipPath id="z34780c14"><use href="#z34780d14"/></clipPath>
  <clipPath id="z34780c15"><use href="#z34780d15"/></clipPath>
  <clipPath id="z34780c16"><use href="#z34780d16"/></clipPath>
  <clipPath id="z34780c17"><use href="#z34780d17"/></clipPath>
  <clipPath id="z34780c18"><use href="#z34780d18"/></clipPath>
</defs>
<path style="--d:1s;" pathLength="3333" clip-path="url(#z34780c1)" d="M 64 468 L 92 445 L 99 427 L 136 274"/>
<path style="--d:2s;" pathLength="3333" clip-path="url(#z34780c2)" d="M 124 445 L 137 457 L 284 493 L 317 487 L 340 466 L 323 385 L 303 365"/>
<path style="--d:3s;" pathLength="3333" clip-path="url(#z34780c3)" d="M 152 301 L 168 311 L 292 338 L 346 333"/>
<path style="--d:4s;" pathLength="3333" clip-path="url(#z34780c4)" d="M 177 699 L 210 675 L 224 654 L 217 215 L 201 193"/>
<path style="--d:5s;" pathLength="3333" clip-path="url(#z34780c5)" d="M 50 128 L 103 116 L 271 197 L 296 211 L 298 220"/>
<path style="--d:6s;" pathLength="3333" clip-path="url(#z34780c6)" d="M 302 268 L 346 198 L 349 166"/>
<path style="--d:7s;" pathLength="3333" clip-path="url(#z34780c7)" d="M 743 763 L 679 771 L 586 718 L 527 693 L 515 694 L 510 687 L 490 688 L 479 678"/>
<path style="--d:8s;" pathLength="3333" clip-path="url(#z34780c8)" d="M 437 592 L 468 590 L 638 626 L 778 648 L 806 649 L 851 639"/>
<path style="--d:9s;" pathLength="3333" clip-path="url(#z34780c9)" d="M 568 691 L 595 674 L 602 662 L 557 562 L 483 448 L 435 397 L 377 359"/>
<path style="--d:10s;" pathLength="3333" clip-path="url(#z34780c10)" d="M 672 613 L 763 517 L 834 458 L 909 434 L 974 425"/>
<path style="--d:11s;" pathLength="3333" clip-path="url(#z34780c11)" d="M 525 451 L 540 449 L 545 438 L 572 340"/>
<path style="--d:12s;" pathLength="3333" clip-path="url(#z34780c12)" d="M 569 465 L 575 458 L 670 476 L 694 475 L 715 454 L 706 421 L 686 407"/>
<path style="--d:13s;" pathLength="3333" clip-path="url(#z34780c13)" d="M 584 377 L 594 370 L 672 383 L 731 376"/>
<path style="--d:14s;" pathLength="3333" clip-path="url(#z34780c14)" d="M 420 293 L 441 275 L 449 251 L 452 130 L 444 69 L 446 31"/>
<path style="--d:15s;" pathLength="3333" clip-path="url(#z34780c15)" d="M 465 289 L 485 277 L 529 279 L 688 305 L 797 316 L 824 309 L 845 292 L 850 286 L 849 109 L 840 30 L 820 7 L 738 39"/>
<path style="--d:16s;" pathLength="3333" clip-path="url(#z34780c16)" d="M 519 224 L 546 198 L 572 93"/>
<path style="--d:17s;" pathLength="3333" clip-path="url(#z34780c17)" d="M 569 221 L 580 213 L 668 228 L 704 223 L 717 204 L 714 193 L 702 167 L 678 151"/>
<path style="--d:18s;" pathLength="3333" clip-path="url(#z34780c18)" d="M 587 112 L 602 121 L 664 131 L 724 125"/>
</svg>