<svg id="z31192" class="acjk" viewBox="0 0 1024 1024" xmlns="http://www.w3.org/2000/svg">
  <path id="z31192d1" d="M 311 673 Q 452 733 460 734 Q 476 735 480 744 Q 483 754 471 765 Q 449 780 404 794 Q 388 801 375 799 Q 368 795 368 784 Q 369 742 180 644 Q 176 634 182 632 Q 198 632 281 663 L 311 673 Z"/>
  <path id="z31192d2" d="M 337 491 Q 383 503 437 511 Q 453 514 454 521 Q 455 534 437 542 Q 401 557 339 534 L 299 524 Q 142 488 88 483 Q 75 482 72 473 Q 69 463 85 452 Q 127 425 165 440 Q 238 467 288 480 Q 289 481 291 480 L 337 491 Z"/>
  <path id="z31192d3" d="M 339 534 Q 340 601 347 633 Q 348 646 342 651 Q 326 666 311 673 C 285 689 272 691 281 663 Q 293 644 299 524 L 297 384 Q 297 260 276 133 Q 264 88 297 36 Q 307 17 316 14 Q 326 13 332 25 Q 344 56 340 86 Q 336 270 336 424 L 339 534 Z"/>
  <path id="z31192d4" d="M 336 442 Q 336 466 337 491 C 338 521 302 508 291 480 Q 240 351 77 208 Q 71 205 66 199 Q 56 186 64 185 Q 73 181 85 187 Q 199 238 297 384 C 314 409 336 441 336 442 Z"/>
  <path id="z31192d5" d="M 336 424 Q 384 366 405 362 Q 415 361 421 375 Q 422 385 415 401 Q 406 416 387 424 Q 356 440 342 443 Q 338 444 336 442 C 325 438 325 438 336 424 Z"/>
  <path id="z31192d6" d="M 455 394 Q 439 339 413 288 Q 400 258 417 230 Q 424 215 442 228 Q 484 267 482 346 Q 483 374 475 396 Q 471 403 465 403 Q 458 402 455 394 Z"/>
  <path id="z31192d7" d="M 611 190 Q 689 112 838 124 Q 839 125 843 125 Q 877 131 919 148 Q 935 152 934 159 Q 931 171 915 189 Q 888 217 821 312 Q 815 321 809 322 Q 806 321 807 313 Q 814 270 820 221 Q 823 202 809 192 Q 782 176 700 197 Q 666 207 646 223 Q 643 224 640 227 L 608 268 Q 584 307 568 404 Q 564 429 547 440 Q 534 449 527 443 Q 523 440 528 423 Q 535 401 548 338 Q 555 281 582 229 L 611 190 Z"/>
  <path id="z31192d8" d="M 544 583 Q 563 553 583 520 Q 592 504 607 501 Q 617 498 625 509 Q 632 522 633 551 Q 630 584 552 628 Q 539 635 533 635 Q 527 632 525 620 Q 525 610 544 583 Z"/>
  <path id="z31192d9" d="M 582 229 Q 530 162 430 92 Q 417 86 414 82 Q 410 76 426 74 Q 486 68 608 187 Q 608 188 611 190 L 640 227 Q 730 353 770 542 Q 792 642 818 685 Q 825 695 817 706 Q 801 727 767 748 Q 748 761 728 759 Q 706 755 720 733 Q 744 699 738 666 Q 713 512 675 413 Q 645 328 608 268 L 582 229 Z"/>
  <path id="z31192d10" d="M 816 493 Q 865 450 923 387 Q 936 371 951 366 Q 958 365 965 374 Q 975 386 964 424 Q 952 472 816 520 Q 809 524 807 513 Q 806 501 816 493 Z"/>
<defs>
  <clipPath id="z31192c1"><use href="#z31192d1"/></clipPath>
  <clipPath id="z31192c2"><use href="#z31192d2"/></clipPath>
  <clipPath id="z31192c3"><use href="#z31192d3"/></clipPath>
  <clipPath id="z31192c4"><use href="#z31192d4"/></clipPath>
  <clipPath id="z31192c5"><use href="#z31192d5"/></clipPath>
  <clipPath id="z31192c6"><use href="#z31192d6"/></clipPath>
  <clipPath id="z31192c7"><use href="#z31192d7"/></clipPath>
  <clipPath id="z31192c8"><use href="#z31192d8"/></clipPath>
  <clipPath id="z31192c9"><use href="#z31192d9"/></clipPath>
  <clipPath id="z31192c10"><use href="#z31192d10"/></clipPath>
</defs>
<path style="--d:1s;" pathLength="3333" clip-path="url(#z31192c1)" d="M 469 748 L 401 754 L 316 696 L 227 655 L 219 657 L 212 648 L 193 648 L 184 639"/>
<path style="--d:2s;" pathLength="3333" clip-path="url(#z31192c2)" d="M 83 470 L 101 464 L 151 464 L 370 522 L 417 528 L 444 524"/>
<path style="--d:3s;" pathLength="3333" clip-path="url(#z31192c3)" d="M 289 664 L 318 633 L 316 285 L 306 103 L 318 26"/>
<path style="--d:4s;" pathLength="3333" clip-path="url(#z31192c4)" d="M 330 485 L 272 389 L 212 310 L 129 231 L 70 191"/>
<path style="--d:5s;" pathLength="3333" clip-path="url(#z31192c5)" d="M 340 438 L 352 422 L 390 398 L 406 376"/>
<path style="--d:6s;" pathLength="3333" clip-path="url(#z31192c6)" d="M 465 393 L 460 337 L 430 236"/>
<path style="--d:7s;" pathLength="3333" clip-path="url(#z31192c7)" d="M 533 438 L 551 407 L 571 307 L 591 257 L 632 202 L 677 175 L 743 157 L 791 154 L 826 159 L 860 179 L 850 223 L 814 316"/>
<path style="--d:8s;" pathLength="3333" clip-path="url(#z31192c8)" d="M 535 628 L 591 565 L 611 516"/>
<path style="--d:9s;" pathLength="3333" clip-path="url(#z31192c9)" d="M 728 745 L 750 731 L 777 692 L 721 459 L 678 345 L 632 258 L 585 194 L 486 110 L 421 79"/>
<path style="--d:10s;" pathLength="3333" clip-path="url(#z31192c10)" d="M 817 509 L 918 437 L 935 418 L 952 380"/>
</svg>