<svg id="z34798" class="acjk" viewBox="0 0 1024 1024" xmlns="http://www.w3.org/2000/svg">
  <path id="z34798d1" d="M 145 554 Q 133 560 101 564 Q 89 567 87 562 Q 81 555 89 541 Q 116 490 134 408 Q 137 383 152 366 Q 170 347 174 361 Q 177 371 177 385 L 174 416 Q 159 497 155 525 C 151 552 151 552 145 554 Z"/>
  <path id="z34798d2" d="M 379 455 Q 400 524 427 544 Q 440 560 428 576 Q 371 621 332 606 Q 307 596 285 587 L 238 573 Q 193 564 145 554 C 116 548 127 516 155 525 Q 179 534 238 545 L 284 555 Q 297 559 316 563 Q 335 567 344 560 Q 356 548 335 458 C 328 429 370 426 379 455 Z"/>
  <path id="z34798d3" d="M 281 406 Q 330 415 394 423 Q 404 424 404 433 Q 404 440 379 455 C 363 465 363 465 335 458 Q 305 451 282 442 L 239 431 Q 205 424 174 416 C 145 409 147 383 177 385 Q 181 385 188 386 Q 209 392 239 397 L 281 406 Z"/>
  <path id="z34798d4" d="M 277 275 Q 278 342 281 406 L 282 442 Q 283 500 284 555 L 285 587 Q 285 654 304 731 Q 307 741 287 757 Q 251 775 226 778 Q 210 782 202 773 Q 195 766 203 750 Q 233 707 233 678 Q 236 627 238 573 L 238 545 Q 239 490 239 431 L 239 397 Q 238 331 235 260 C 234 230 276 245 277 275 Z"/>
  <path id="z34798d5" d="M 346 299 Q 312 289 277 275 L 235 260 Q 183 244 128 225 Q 112 219 84 219 Q 71 218 69 206 Q 68 193 78 186 Q 100 170 135 154 Q 145 151 156 160 Q 162 166 356 276 C 382 291 375 308 346 299 Z"/>
  <path id="z34798d6" d="M 356 276 Q 380 231 384 229 Q 391 228 398 233 Q 405 240 408 262 Q 412 280 393 304 Q 350 355 336 354 Q 332 353 329 345 Q 328 336 346 299 L 356 276 Z"/>
  <path id="z34798d7" d="M 533 747 Q 549 731 566 710 Q 576 698 591 698 Q 600 697 605 709 Q 609 722 604 747 Q 598 769 531 789 Q 518 793 512 791 Q 508 787 508 776 Q 511 766 533 747 Z"/>
  <path id="z34798d8" d="M 706 802 Q 699 784 653 713 Q 646 697 660 702 Q 693 724 747 767 Q 762 783 781 793 Q 799 803 788 818 Q 775 831 752 842 Q 730 852 719 848 Q 709 847 713 835 Q 717 819 706 802 Z"/>
  <path id="z34798d9" d="M 638 629 Q 807 662 814 668 Q 821 675 818 682 Q 812 692 788 699 Q 763 705 736 695 Q 684 679 629 666 Q 568 653 496 648 Q 465 644 487 628 Q 526 607 573 618 Q 583 621 596 621 L 638 629 Z"/>
  <path id="z34798d10" d="M 661 528 Q 767 552 770 553 Q 777 560 774 566 Q 768 576 745 582 Q 718 588 662 568 L 611 556 Q 568 549 523 546 Q 495 542 515 527 Q 542 512 611 520 L 661 528 Z"/>
  <path id="z34798d11" d="M 657 434 Q 663 435 785 450 Q 792 449 801 459 Q 802 468 784 477 Q 780 481 766 485 Q 753 491 658 469 L 611 460 Q 491 448 488 447 Q 466 446 482 430 Q 506 412 551 418 Q 578 424 611 427 L 657 434 Z"/>
  <path id="z34798d12" d="M 653 299 Q 654 372 657 434 L 658 469 Q 659 500 661 528 L 662 568 Q 666 604 661 610 Q 649 622 638 629 C 614 646 582 648 596 621 Q 611 597 611 556 L 611 520 Q 611 498 611 460 L 611 427 Q 611 373 611 294 C 611 264 653 269 653 299 Z"/>
  <path id="z34798d13" d="M 472 359 Q 499 304 523 300 Q 535 297 542 312 Q 545 322 540 342 Q 525 369 479 382 Q 472 385 469 375 Q 468 368 472 359 Z"/>
  <path id="z34798d14" d="M 740 312 Q 788 358 815 377 Q 828 384 824 392 Q 817 405 798 417 Q 779 430 760 428 Q 748 427 752 410 Q 758 392 711 307 C 697 281 718 291 740 312 Z"/>
  <path id="z34798d15" d="M 711 307 Q 669 306 653 299 L 611 294 Q 526 285 432 273 Q 413 272 426 255 Q 439 242 456 237 Q 475 231 491 236 Q 630 272 919 271 Q 938 271 942 279 Q 948 289 932 303 Q 878 343 816 326 Q 782 320 740 312 L 711 307 Z"/>
  <path id="z34798d16" d="M 489 190 Q 482 191 476 192 Q 464 195 461 190 Q 454 183 464 168 Q 489 119 509 36 Q 513 11 528 -5 Q 546 -27 551 -11 Q 555 1 554 21 L 548 55 Q 535 130 532 154 C 528 184 519 186 489 190 Z"/>
  <path id="z34798d17" d="M 770 78 Q 794 139 824 157 Q 840 173 827 191 Q 812 204 764 230 Q 746 239 685 217 Q 544 180 489 190 C 459 194 502 149 532 154 Q 551 157 708 185 Q 727 189 736 181 Q 743 174 741 158 Q 732 118 721 84 C 712 55 759 50 770 78 Z"/>
  <path id="z34798d18" d="M 554 21 Q 558 21 563 22 Q 633 35 782 42 Q 792 43 795 52 Q 795 59 770 78 C 756 89 751 88 721 84 Q 720 84 719 84 Q 625 65 548 55 C 518 51 524 18 554 21 Z"/>
<defs>
  <clipPath id="z34798c1"><use href="#z34798d1"/></clipPath>
  <clipPath id="z34798c2"><use href="#z34798d2"/></clipPath>
  <clipPath id="z34798c3"><use href="#z34798d3"/></clipPath>
  <clipPath id="z34798c4"><use href="#z34798d4"/></clipPath>
  <clipPath id="z34798c5"><use href="#z34798d5"/></clipPath>
  <clipPath id="z34798c6"><use href="#z34798d6"/></clipPath>
  <clipPath id="z34798c7"><use href="#z34798d7"/></clipPath>
  <clipPath id="z34798c8"><use href="#z34798d8"/></clipPath>
  <clipPath id="z34798c9"><use href="#z34798d9"/></clipPath>
  <clipPath id="z34798c10"><use href="#z34798d10"/></clipPath>
  <clipPath id="z34798c11"><use href="#z34798d11"/></clipPath>
  <clipPath id="z34798c12"><use href="#z34798d12"/></clipPath>
  <clipPath id="z34798c13"><use href="#z34798d13"/></clipPath>
  <clipPath id="z34798c14"><use href="#z34798d14"/></clipPath>
  <clipPath id="z34798c15"><use href="#z34798d15"/></clipPath>
  <clipPath id="z34798c16"><use href="#z34798d16"/></clipPath>
  <clipPath id="z34798c17"><use href="#z34798d17"/></clipPath>
  <clipPath id="z34798c18"><use href="#z34798d18"/></clipPath>
</defs>
<path style="--d:1s;" pathLength="3333" clip-path="url(#z34798c1)" d="M 95 555 L 123 533 L 130 517 L 164 367"/>
<path style="--d:2s;" pathLength="3333" clip-path="url(#z34798c2)" d="M 154 549 L 166 543 L 333 585 L 359 583 L 386 557 L 363 479 L 343 469"/>
<path style="--d:3s;" pathLength="3333" clip-path="url(#z34798c3)" d="M 182 393 L 197 406 L 319 434 L 378 438 L 395 432"/>
<path style="--d:4s;" pathLength="3333" clip-path="url(#z34798c4)" d="M 214 764 L 262 725 L 264 699 L 257 290 L 240 268"/>
<path style="--d:5s;" pathLength="3333" clip-path="url(#z34798c5)" d="M 84 204 L 139 191 L 337 278 L 341 290"/>
<path style="--d:6s;" pathLength="3333" clip-path="url(#z34798c6)" d="M 338 346 L 384 274 L 389 237"/>
<path style="--d:7s;" pathLength="3333" clip-path="url(#z34798c7)" d="M 516 782 L 578 739 L 591 712"/>
<path style="--d:8s;" pathLength="3333" clip-path="url(#z34798c8)" d="M 725 837 L 744 807 L 661 711"/>
<path style="--d:9s;" pathLength="3333" clip-path="url(#z34798c9)" d="M 489 639 L 549 633 L 648 648 L 759 678 L 808 677"/>
<path style="--d:10s;" pathLength="3333" clip-path="url(#z34798c10)" d="M 517 537 L 554 532 L 600 535 L 730 564 L 766 561"/>
<path style="--d:11s;" pathLength="3333" clip-path="url(#z34798c11)" d="M 484 439 L 527 433 L 735 465 L 792 461"/>
<path style="--d:12s;" pathLength="3333" clip-path="url(#z34798c12)" d="M 604 619 L 633 599 L 637 580 L 633 323 L 617 303"/>
<path style="--d:13s;" pathLength="3333" clip-path="url(#z34798c13)" d="M 479 372 L 512 339 L 526 316"/>
<path style="--d:14s;" pathLength="3333" clip-path="url(#z34798c14)" d="M 762 417 L 782 391 L 731 320"/>
<path style="--d:15s;" pathLength="3333" clip-path="url(#z34798c15)" d="M 430 264 L 481 256 L 673 284 L 842 301 L 876 300 L 931 285"/>
<path style="--d:16s;" pathLength="3333" clip-path="url(#z34798c16)" d="M 470 182 L 506 140 L 540 -6"/>
<path style="--d:17s;" pathLength="3333" clip-path="url(#z34798c17)" d="M 503 186 L 508 180 L 543 172 L 669 193 L 718 207 L 752 204 L 781 173 L 754 105 L 728 89"/>
<path style="--d:18s;" pathLength="3333" clip-path="url(#z34798c18)" d="M 556 51 L 566 41 L 576 41 L 715 61 L 762 60 L 787 52"/>
</svg>