<svg id="z30271" class="acjk" viewBox="0 0 1024 1024" xmlns="http://www.w3.org/2000/svg">
  <path id="z30271d1" d="M 522 807 Q 549 789 578 766 Q 593 756 607 757 Q 617 758 621 772 Q 624 787 612 814 Q 605 832 575 842 Q 505 860 492 851 Q 488 847 490 835 Q 494 825 522 807 Z"/>
  <path id="z30271d2" d="M 356 666 Q 392 659 497 674 Q 743 714 768 722 Q 774 725 777 726 Q 786 733 782 741 Q 776 753 750 760 Q 722 767 624 738 Q 455 702 346 697 Q 343 697 341 695 C 311 690 326 670 356 666 Z"/>
  <path id="z30271d3" d="M 267 390 Q 236 219 148 78 Q 124 35 98 -6 Q 94 -12 92 -18 Q 89 -28 100 -27 Q 134 -21 221 118 Q 234 145 250 174 Q 314 321 341 574 Q 344 646 356 666 C 361 681 361 681 341 695 Q 299 728 276 721 Q 264 714 271 700 Q 293 669 289 607 Q 276 448 272 423 L 267 390 Z"/>
  <path id="z30271d4" d="M 146 550 Q 165 531 186 506 Q 198 493 213 493 Q 223 492 229 505 Q 235 518 228 548 Q 222 572 145 597 Q 130 601 124 599 Q 120 595 120 583 Q 121 573 146 550 Z"/>
  <path id="z30271d5" d="M 272 423 Q 98 348 63 345 Q 51 342 51 332 Q 50 319 60 313 Q 84 300 117 287 Q 127 286 138 295 Q 168 328 267 390 C 292 406 300 435 272 423 Z"/>
  <path id="z30271d6" d="M 409 599 Q 396 609 380 613 Q 374 614 370 609 Q 369 605 373 597 Q 400 537 377 431 Q 373 410 374 397 Q 381 375 389 366 Q 396 356 404 366 Q 419 390 420 480 Q 420 555 424 579 C 425 588 425 588 409 599 Z"/>
  <path id="z30271d7" d="M 523 407 Q 519 391 527 377 Q 537 358 542 359 Q 552 360 562 381 Q 572 397 571 412 Q 552 548 578 587 Q 585 597 579 604 Q 560 620 527 633 Q 521 636 452 609 Q 430 603 409 599 C 380 593 395 572 424 579 Q 427 579 471 591 Q 508 603 517 598 Q 524 585 527 545 Q 528 430 523 407 Z"/>
  <path id="z30271d8" d="M 459 506 Q 468 368 412 305 Q 396 286 357 261 Q 350 258 349 256 Q 346 252 355 252 Q 373 249 428 286 Q 491 331 491 463 Q 497 520 499 525 Q 502 532 497 536 Q 487 545 465 553 Q 453 557 444 554 Q 432 550 442 540 Q 458 524 459 506 Z"/>
  <path id="z30271d9" d="M 503 340 Q 536 291 550 288 Q 560 287 565 298 Q 568 307 563 321 Q 557 333 542 340 Q 520 355 509 358 Q 502 359 501 352 Q 500 346 503 340 Z"/>
  <path id="z30271d10" d="M 641 617 Q 632 626 616 630 Q 609 634 602 630 Q 598 627 601 619 Q 628 529 609 435 Q 600 395 626 368 Q 633 359 640 367 Q 649 379 649 594 C 649 611 649 611 641 617 Z"/>
  <path id="z30271d11" d="M 769 410 Q 765 394 774 378 Q 784 359 790 359 Q 800 360 811 383 Q 821 402 820 416 Q 799 564 825 606 Q 832 618 826 625 Q 804 643 768 656 Q 756 660 739 653 Q 714 640 684 629 Q 662 622 641 617 C 612 610 620 587 649 594 Q 652 594 706 609 Q 748 622 758 617 Q 765 601 770 560 Q 774 434 769 410 Z"/>
  <path id="z30271d12" d="M 692 515 Q 701 389 652 328 Q 636 312 607 287 Q 600 283 597 280 Q 594 276 605 276 Q 620 273 670 307 Q 730 358 732 500 Q 733 516 739 537 Q 743 544 736 550 Q 724 560 700 569 Q 685 575 674 571 Q 661 565 672 554 Q 691 535 692 515 Z"/>
  <path id="z30271d13" d="M 745 324 Q 770 302 799 273 Q 808 264 818 264 Q 825 264 830 273 Q 833 283 828 303 Q 822 327 743 357 Q 733 360 728 358 Q 724 357 725 347 Q 726 340 745 324 Z"/>
  <path id="z30271d14" d="M 537 206 Q 541 218 548 225 Q 557 232 554 241 Q 548 253 515 277 Q 505 286 495 282 Q 485 279 491 265 Q 497 247 485 200 L 474 167 Q 450 115 451 107 Q 454 97 469 95 Q 524 80 553 60 L 590 39 Q 636 11 701 -39 Q 723 -57 740 -56 Q 759 -55 758 -38 Q 758 -19 731 21 Q 716 46 616 80 L 577 94 Q 537 107 509 114 Q 490 118 500 136 Q 512 158 520 173 L 537 206 Z"/>
  <path id="z30271d15" d="M 657 222 Q 633 241 608 237 Q 598 234 602 222 Q 603 219 605 215 L 608 184 Q 608 150 577 94 L 553 60 Q 498 -1 363 -38 Q 348 -44 365 -47 Q 510 -62 590 39 L 616 80 Q 635 113 647 149 Q 654 177 663 189 C 675 210 675 210 657 222 Z"/>
  <path id="z30271d16" d="M 663 189 Q 727 195 912 195 Q 930 195 935 203 Q 939 213 924 227 Q 876 263 841 255 Q 769 242 657 222 L 605 215 Q 595 215 537 206 L 485 200 Q 389 190 288 177 Q 269 174 282 159 Q 295 146 312 141 Q 331 137 347 140 Q 405 156 474 167 L 520 173 Q 535 177 552 178 Q 577 182 608 184 L 663 189 Z"/>
<defs>
  <clipPath id="z30271c1"><use href="#z30271d1"/></clipPath>
  <clipPath id="z30271c2"><use href="#z30271d2"/></clipPath>
  <clipPath id="z30271c3"><use href="#z30271d3"/></clipPath>
  <clipPath id="z30271c4"><use href="#z30271d4"/></clipPath>
  <clipPath id="z30271c5"><use href="#z30271d5"/></clipPath>
  <clipPath id="z30271c6"><use href="#z30271d6"/></clipPath>
  <clipPath id="z30271c7"><use href="#z30271d7"/></clipPath>
  <clipPath id="z30271c8"><use href="#z30271d8"/></clipPath>
  <clipPath id="z30271c9"><use href="#z30271d9"/></clipPath>
  <clipPath id="z30271c10"><use href="#z30271d10"/></clipPath>
  <clipPath id="z30271c11"><use href="#z30271d11"/></clipPath>
  <clipPath id="z30271c12"><use href="#z30271d12"/></clipPath>
  <clipPath id="z30271c13"><use href="#z30271d13"/></clipPath>
  <clipPath id="z30271c14"><use href="#z30271d14"/></clipPath>
  <clipPath id="z30271c15"><use href="#z30271d15"/></clipPath>
  <clipPath id="z30271c16"><use href="#z30271d16"/></clipPath>
</defs>
<path style="--d:1s;" pathLength="3333" clip-path="url(#z30271c1)" d="M 498 845 L 572 811 L 604 774"/>
<path style="--d:2s;" pathLength="3333" clip-path="url(#z30271c2)" d="M 345 691 L 371 681 L 442 685 L 558 702 L 715 736 L 769 737"/>
<path style="--d:3s;" pathLength="3333" clip-path="url(#z30271c3)" d="M 282 708 L 315 676 L 319 646 L 299 441 L 271 301 L 227 177 L 185 96 L 101 -18"/>
<path style="--d:4s;" pathLength="3333" clip-path="url(#z30271c4)" d="M 129 593 L 199 538 L 213 509"/>
<path style="--d:5s;" pathLength="3333" clip-path="url(#z30271c5)" d="M 64 332 L 118 324 L 251 396 L 259 408"/>
<path style="--d:6s;" pathLength="3333" clip-path="url(#z30271c6)" d="M 378 605 L 395 588 L 403 568 L 397 374"/>
<path style="--d:7s;" pathLength="3333" clip-path="url(#z30271c7)" d="M 417 597 L 428 591 L 459 597 L 467 606 L 521 615 L 528 614 L 548 590 L 543 533 L 549 421 L 543 368"/>
<path style="--d:8s;" pathLength="3333" clip-path="url(#z30271c8)" d="M 450 546 L 477 524 L 474 414 L 463 365 L 447 328 L 415 288 L 354 257"/>
<path style="--d:9s;" pathLength="3333" clip-path="url(#z30271c9)" d="M 510 348 L 539 322 L 552 300"/>
<path style="--d:10s;" pathLength="3333" clip-path="url(#z30271c10)" d="M 609 624 L 625 606 L 632 580 L 635 528 L 626 403 L 633 372"/>
<path style="--d:11s;" pathLength="3333" clip-path="url(#z30271c11)" d="M 650 601 L 665 611 L 752 638 L 768 635 L 788 618 L 796 425 L 791 368"/>
<path style="--d:12s;" pathLength="3333" clip-path="url(#z30271c12)" d="M 676 562 L 713 535 L 712 451 L 704 400 L 672 329 L 639 298 L 603 282"/>
<path style="--d:13s;" pathLength="3333" clip-path="url(#z30271c13)" d="M 735 350 L 800 304 L 816 279"/>
<path style="--d:14s;" pathLength="3333" clip-path="url(#z30271c14)" d="M 499 272 L 512 258 L 520 236 L 476 116 L 680 19 L 742 -40"/>
<path style="--d:15s;" pathLength="3333" clip-path="url(#z30271c15)" d="M 610 227 L 633 206 L 633 181 L 615 122 L 560 35 L 516 1 L 454 -27 L 374 -40"/>
<path style="--d:16s;" pathLength="3333" clip-path="url(#z30271c16)" d="M 286 168 L 339 161 L 550 195 L 851 226 L 889 221 L 925 208"/>
</svg>