<svg id="z37032" class="acjk" viewBox="0 0 1024 1024" xmlns="http://www.w3.org/2000/svg">
  <path id="z37032d1" d="M 336 541 L 473 597 Q 484 608 478 615 Q 467 629 435 635 Q 433 637 400 621 L 347 602 Q 345 600 341 599 L 279 578 Q 187 553 167 543 Q 158 538 159 534 Q 159 529 172 520 Q 216 492 220 510 Q 221 513 278 525 L 336 541 Z"/>
  <path id="z37032d2" d="M 322 284 Q 328 287 341 292 Q 420 319 423 318 C 452 326 469 377 441 365 Q 406 348 323 327 L 267 310 Q 240 288 158 259 Q 155 259 153 259 Q 147 262 151 270 L 171 359 Q 174 380 168 394 L 166 397 Q 135 440 104 440 Q 100 439 98 435 Q 95 430 101 406 Q 114 351 102 308 Q 94 276 82 257 Q 76 247 61 231 Q 51 221 53 208 Q 59 194 86 175 Q 102 167 113 175 Q 170 214 265 265 L 322 284 Z"/>
  <path id="z37032d3" d="M 423 318 Q 423 292 435 259 Q 442 240 458 251 Q 488 276 500 365 Q 525 436 531 443 Q 541 457 531 473 Q 511 494 480 515 L 478 517 Q 467 523 455 519 Q 447 517 447 504 L 447 502 Q 461 475 455 426 Q 445 375 441 365 L 423 318 Z"/>
  <path id="z37032d4" d="M 267 12 L 267 10 Q 262 -51 296 -75 Q 308 -82 318 -63 Q 343 -18 433 100 Q 450 118 450 124 Q 449 137 429 123 Q 339 55 335 55 Q 329 61 325 88 Q 317 155 322 284 L 323 327 Q 328 433 336 541 L 341 599 Q 349 692 361 737 Q 367 750 360 762 Q 347 786 283 821 Q 263 837 241 823 Q 232 818 239 804 L 249 787 Q 254 780 257 774 Q 280 735 280 688 L 279 578 L 278 525 Q 274 453 271 398 Q 269 329 267 310 L 265 265 Q 278 174 267 12 Z"/>
  <path id="z37032d5" d="M 678 602 Q 710 621 778 649 L 786 647 Q 800 643 793 622 Q 766 549 747 511 Q 740 499 741 493 Q 741 480 760 467 Q 855 414 862 325 Q 862 298 851 285 Q 843 280 811 286 L 778 293 Q 776 294 774 294 Q 743 304 741 294 Q 743 290 746 286 Q 752 278 784 255 Q 825 224 832 204 Q 839 188 853 186 Q 884 184 905 235 Q 920 271 922 303 Q 925 392 804 478 Q 779 494 798 531 Q 800 537 808 547 Q 829 580 837 588 Q 847 605 862 617 L 888 637 Q 902 647 896 657 Q 893 662 878 673 Q 848 696 821 707 Q 804 710 790 702 Q 768 680 669 634 Q 668 634 668 633 C 641 620 652 588 678 602 Z"/>
  <path id="z37032d6" d="M 619 314 Q 619 244 618 166 Q 618 -42 636 -65 Q 641 -72 647 -71 Q 678 -63 674 138 Q 674 155 673 171 Q 670 390 669 536 Q 669 569 678 602 C 683 624 683 624 668 633 Q 621 663 602 656 L 592 651 Q 585 646 588 639 Q 614 582 617 561 Q 617 553 617 544 Q 620 419 619 314 Z"/>
<defs>
  <clipPath id="z37032c1"><use href="#z37032d1"/></clipPath>
  <clipPath id="z37032c2"><use href="#z37032d2"/></clipPath>
  <clipPath id="z37032c3"><use href="#z37032d3"/></clipPath>
  <clipPath id="z37032c4"><use href="#z37032d4"/></clipPath>
  <clipPath id="z37032c5"><use href="#z37032d5"/></clipPath>
  <clipPath id="z37032c6"><use href="#z37032d6"/></clipPath>
</defs>
<path style="--d:1s;" pathLength="3333" clip-path="url(#z37032c1)" d="M 167 535 L 205 531 L 347 573 L 434 609 L 467 608"/>
<path style="--d:2s;" pathLength="3333" clip-path="url(#z37032c2)" d="M 108 429 L 139 379 L 138 343 L 122 277 L 118 231 L 161 234 L 275 291 L 402 330 L 438 360"/>
<path style="--d:3s;" pathLength="3333" clip-path="url(#z37032c3)" d="M 460 507 L 482 482 L 494 456 L 448 260"/>
<path style="--d:4s;" pathLength="3333" clip-path="url(#z37032c4)" d="M 248 813 L 291 780 L 317 742 L 293 271 L 300 58 L 313 14 L 348 30 L 406 91 L 419 97 L 422 110 L 434 112 L 442 122"/>
<path style="--d:5s;" pathLength="3333" clip-path="url(#z37032c5)" d="M 681 609 L 688 627 L 783 670 L 812 672 L 836 651 L 782 543 L 766 494 L 777 477 L 819 448 L 864 397 L 883 361 L 891 329 L 889 289 L 874 255 L 858 243 L 747 292"/>
<path style="--d:6s;" pathLength="3333" clip-path="url(#z37032c6)" d="M 604 641 L 638 611 L 643 588 L 645 -62"/>
</svg>