<svg id="z35673" class="acjk" viewBox="0 0 1024 1024" xmlns="http://www.w3.org/2000/svg">
  <path id="z35673d1" d="M 263 764 Q 293 745 326 720 Q 342 708 358 712 Q 368 713 373 728 Q 376 744 362 774 Q 353 793 320 803 Q 241 821 228 811 Q 224 807 226 793 Q 232 783 263 764 Z"/>
  <path id="z35673d2" d="M 63 581 Q 51 580 49 572 Q 46 562 61 551 Q 100 527 137 540 Q 263 585 394 608 Q 410 611 410 618 Q 411 630 394 638 Q 367 648 346 643 Q 166 597 63 581 Z"/>
  <path id="z35673d3" d="M 168 479 Q 140 472 161 460 Q 194 442 240 458 Q 271 465 304 475 Q 319 479 321 481 Q 328 488 323 495 Q 316 504 293 508 Q 268 511 245 499 Q 215 487 168 479 Z"/>
  <path id="z35673d4" d="M 176 367 Q 148 360 169 348 Q 200 336 280 356 Q 293 359 309 363 Q 322 367 325 369 Q 332 376 327 383 Q 320 392 297 395 Q 287 396 219 376 Q 198 372 176 367 Z"/>
  <path id="z35673d5" d="M 154 251 Q 144 255 130 255 Q 120 258 116 253 Q 112 247 120 233 Q 145 190 163 117 Q 167 95 181 81 Q 197 63 202 77 Q 205 87 203 103 L 198 132 Q 182 208 181 227 C 180 243 180 243 154 251 Z"/>
  <path id="z35673d6" d="M 328 160 Q 343 215 359 230 Q 380 255 358 268 Q 340 278 314 294 Q 298 303 253 279 Q 208 264 154 251 C 125 244 152 220 181 227 Q 185 228 193 230 Q 230 239 260 246 Q 281 250 286 242 Q 292 238 287 213 Q 283 188 278 158 C 273 128 320 131 328 160 Z"/>
  <path id="z35673d7" d="M 203 103 Q 210 104 217 106 Q 256 118 340 133 Q 350 134 350 142 Q 349 149 328 160 C 312 169 307 167 278 158 Q 232 143 198 132 C 169 123 173 98 203 103 Z"/>
  <path id="z35673d8" d="M 486 587 Q 517 633 551 692 Q 570 729 588 749 Q 595 759 591 772 Q 587 784 559 803 Q 534 819 515 818 Q 499 815 507 795 Q 519 771 511 749 Q 487 677 448 608 Q 411 542 357 469 Q 348 459 346 453 Q 343 443 356 446 Q 383 449 461 554 L 486 587 Z"/>
  <path id="z35673d9" d="M 500 261 Q 501 271 501 283 Q 508 481 516 525 Q 523 549 488 585 L 486 587 C 465 609 450 582 461 554 Q 485 505 459 351 Q 441 258 442 257 Q 449 218 465 202 Q 480 189 489 211 Q 495 227 498 246 L 500 261 Z"/>
  <path id="z35673d10" d="M 667 759 Q 689 728 715 690 Q 725 674 739 672 Q 749 671 757 681 Q 764 694 763 724 Q 760 761 673 805 Q 660 812 652 811 Q 648 808 645 796 Q 646 784 667 759 Z"/>
  <path id="z35673d11" d="M 677 569 Q 819 602 823 604 Q 830 611 827 618 Q 820 628 795 634 Q 770 638 744 629 Q 704 616 662 604 Q 614 594 559 588 Q 528 582 550 568 Q 587 547 634 560 Q 635 561 637 560 C 642 561 648 562 677 569 Z"/>
  <path id="z35673d12" d="M 699 461 Q 786 485 788 485 Q 795 492 791 499 Q 784 508 761 513 Q 743 516 702 503 L 649 486 Q 615 479 578 474 Q 548 468 570 456 Q 603 438 649 450 L 699 461 Z"/>
  <path id="z35673d13" d="M 695 352 Q 792 373 799 377 Q 806 384 802 391 Q 796 400 773 406 Q 749 410 697 391 L 650 379 Q 616 375 582 370 Q 554 366 574 351 Q 602 336 650 343 L 695 352 Z"/>
  <path id="z35673d14" d="M 693 290 Q 694 323 695 352 L 697 391 Q 698 428 699 461 L 702 503 Q 706 542 701 549 Q 689 561 677 569 C 653 587 624 587 637 560 Q 649 542 649 486 L 649 450 Q 649 422 650 379 L 650 343 Q 650 316 651 283 C 652 253 692 260 693 290 Z"/>
  <path id="z35673d15" d="M 498 246 Q 525 222 555 231 Q 669 259 874 260 Q 890 261 895 268 Q 899 277 885 288 Q 836 324 785 307 Q 746 301 693 290 L 651 283 Q 581 274 502 262 Q 499 262 500 261 C 483 257 483 257 498 246 Z"/>
  <path id="z35673d16" d="M 421 165 Q 396 116 362 73 Q 340 43 355 13 Q 359 -5 380 6 Q 428 36 440 111 Q 447 141 442 164 Q 438 171 433 173 Q 426 172 421 165 Z"/>
  <path id="z35673d17" d="M 529 110 Q 556 29 568 22 Q 575 18 585 26 Q 595 35 601 61 Q 605 79 588 104 Q 542 158 529 158 Q 523 157 519 147 Q 518 137 529 110 Z"/>
  <path id="z35673d18" d="M 667 127 Q 680 100 693 71 Q 699 56 712 51 Q 721 48 729 57 Q 738 67 740 95 Q 741 111 722 132 Q 703 150 678 167 Q 666 174 661 174 Q 655 173 652 162 Q 652 152 667 127 Z"/>
  <path id="z35673d19" d="M 819 130 Q 850 88 882 39 Q 892 23 909 19 Q 919 18 929 29 Q 938 42 936 76 Q 933 121 827 180 Q 812 187 805 187 Q 798 184 797 171 Q 798 158 819 130 Z"/>
<defs>
  <clipPath id="z35673c1"><use href="#z35673d1"/></clipPath>
  <clipPath id="z35673c2"><use href="#z35673d2"/></clipPath>
  <clipPath id="z35673c3"><use href="#z35673d3"/></clipPath>
  <clipPath id="z35673c4"><use href="#z35673d4"/></clipPath>
  <clipPath id="z35673c5"><use href="#z35673d5"/></clipPath>
  <clipPath id="z35673c6"><use href="#z35673d6"/></clipPath>
  <clipPath id="z35673c7"><use href="#z35673d7"/></clipPath>
  <clipPath id="z35673c8"><use href="#z35673d8"/></clipPath>
  <clipPath id="z35673c9"><use href="#z35673d9"/></clipPath>
  <clipPath id="z35673c10"><use href="#z35673d10"/></clipPath>
  <clipPath id="z35673c11"><use href="#z35673d11"/></clipPath>
  <clipPath id="z35673c12"><use href="#z35673d12"/></clipPath>
  <clipPath id="z35673c13"><use href="#z35673d13"/></clipPath>
  <clipPath id="z35673c14"><use href="#z35673d14"/></clipPath>
  <clipPath id="z35673c15"><use href="#z35673d15"/></clipPath>
  <clipPath id="z35673c16"><use href="#z35673d16"/></clipPath>
  <clipPath id="z35673c17"><use href="#z35673d17"/></clipPath>
  <clipPath id="z35673c18"><use href="#z35673d18"/></clipPath>
  <clipPath id="z35673c19"><use href="#z35673d19"/></clipPath>
</defs>
<path style="--d:1s;" pathLength="3333" clip-path="url(#z35673c1)" d="M 234 805 L 316 769 L 354 731"/>
<path style="--d:2s;" pathLength="3333" clip-path="url(#z35673c2)" d="M 61 568 L 113 562 L 342 621 L 399 621"/>
<path style="--d:3s;" pathLength="3333" clip-path="url(#z35673c3)" d="M 163 470 L 211 469 L 286 490 L 314 489"/>
<path style="--d:4s;" pathLength="3333" clip-path="url(#z35673c4)" d="M 171 358 L 211 358 L 291 377 L 318 377"/>
<path style="--d:5s;" pathLength="3333" clip-path="url(#z35673c5)" d="M 124 248 L 145 232 L 157 213 L 192 82"/>
<path style="--d:6s;" pathLength="3333" clip-path="url(#z35673c6)" d="M 162 251 L 185 243 L 271 268 L 305 265 L 324 245 L 322 233 L 308 184 L 284 165"/>
<path style="--d:7s;" pathLength="3333" clip-path="url(#z35673c7)" d="M 209 111 L 220 124 L 276 139 L 341 142"/>
<path style="--d:8s;" pathLength="3333" clip-path="url(#z35673c8)" d="M 517 804 L 539 785 L 551 763 L 530 713 L 440 554 L 391 490 L 354 453"/>
<path style="--d:9s;" pathLength="3333" clip-path="url(#z35673c9)" d="M 482 581 L 489 573 L 493 500 L 470 254 L 475 211"/>
<path style="--d:10s;" pathLength="3333" clip-path="url(#z35673c10)" d="M 656 804 L 722 736 L 740 692"/>
<path style="--d:11s;" pathLength="3333" clip-path="url(#z35673c11)" d="M 552 579 L 609 574 L 687 589 L 767 613 L 819 613"/>
<path style="--d:12s;" pathLength="3333" clip-path="url(#z35673c12)" d="M 571 466 L 622 462 L 746 494 L 785 493"/>
<path style="--d:13s;" pathLength="3333" clip-path="url(#z35673c13)" d="M 576 361 L 623 357 L 758 387 L 793 386"/>
<path style="--d:14s;" pathLength="3333" clip-path="url(#z35673c14)" d="M 644 558 L 671 541 L 676 516 L 673 315 L 657 291"/>
<path style="--d:15s;" pathLength="3333" clip-path="url(#z35673c15)" d="M 505 253 L 535 247 L 799 285 L 831 286 L 886 272"/>
<path style="--d:16s;" pathLength="3333" clip-path="url(#z35673c16)" d="M 431 162 L 414 105 L 369 15"/>
<path style="--d:17s;" pathLength="3333" clip-path="url(#z35673c17)" d="M 529 148 L 569 83 L 573 31"/>
<path style="--d:18s;" pathLength="3333" clip-path="url(#z35673c18)" d="M 662 164 L 706 109 L 716 66"/>
<path style="--d:19s;" pathLength="3333" clip-path="url(#z35673c19)" d="M 808 178 L 893 87 L 910 38"/>
</svg>