<svg id="z36757" class="acjk" viewBox="0 0 1024 1024" xmlns="http://www.w3.org/2000/svg">
  <path id="z36757d1" d="M 279 591 Q 337 607 399 621 Q 438 633 444 638 Q 451 645 447 653 Q 440 663 413 669 Q 385 673 359 662 Q 329 652 299 640 L 254 627 Q 205 615 147 606 Q 114 599 138 585 Q 180 564 230 580 Q 233 581 240 581 L 279 591 Z"/>
  <path id="z36757d2" d="M 352 397 Q 388 407 421 409 Q 448 413 439 425 Q 430 437 415 443 Q 402 449 354 431 L 310 419 Q 271 410 228 399 Q 215 396 213 399 Q 212 400 213 411 Q 240 493 279 591 L 299 640 Q 332 734 354 755 Q 366 767 350 785 Q 325 809 306 820 Q 293 827 284 824 Q 277 820 282 800 Q 292 770 254 627 L 240 581 Q 185 431 149 395 Q 136 380 140 366 Q 147 347 158 338 Q 167 331 177 335 Q 235 371 310 386 L 352 397 Z"/>
  <path id="z36757d3" d="M 349 297 Q 349 352 352 397 L 354 431 Q 355 471 361 491 Q 362 503 357 508 Q 335 527 318 537 Q 306 540 298 533 Q 292 530 299 521 Q 312 499 310 419 L 310 386 Q 309 346 307 294 Q 306 288 306 281 L 303 238 Q 291 106 284 90 Q 275 56 306 7 Q 316 -9 323 -14 Q 333 -15 339 -3 Q 346 15 347 95 L 347 108 Q 347 189 348 260 L 349 297 Z"/>
  <path id="z36757d4" d="M 348 260 Q 366 270 386 279 Q 440 309 442 324 Q 436 330 424 326 Q 387 313 349 297 L 306 281 Q 233 256 151 227 Q 132 220 99 219 Q 86 218 85 206 Q 84 193 93 186 Q 117 171 151 154 Q 161 151 172 161 Q 217 197 303 238 L 348 260 Z"/>
  <path id="z36757d5" d="M 645 661 Q 681 671 719 679 Q 750 686 756 692 Q 763 699 759 706 Q 752 716 727 721 Q 705 724 649 704 L 597 688 Q 554 679 506 672 Q 475 666 498 652 Q 534 634 585 647 Q 589 648 597 649 L 645 661 Z"/>
  <path id="z36757d6" d="M 649 704 Q 649 710 666 794 Q 670 804 652 818 Q 621 836 598 840 Q 583 843 576 835 Q 569 828 576 815 Q 592 793 593 777 Q 596 735 597 688 L 597 649 Q 597 609 597 565 C 597 535 634 544 637 574 Q 641 619 645 661 L 649 704 Z"/>
  <path id="z36757d7" d="M 597 565 Q 509 547 406 525 Q 387 521 402 507 Q 432 485 465 494 Q 585 537 868 563 Q 886 564 890 573 Q 894 583 878 595 Q 826 628 770 609 Q 715 594 637 574 L 597 565 Z"/>
  <path id="z36757d8" d="M 551 316 Q 552 320 552 323 L 551 349 Q 542 409 540 429 C 538 452 538 452 525 456 Q 515 460 490 464 Q 480 467 476 462 Q 472 456 479 442 Q 500 405 514 344 Q 517 328 526 317 C 544 293 546 289 551 316 Z"/>
  <path id="z36757d9" d="M 736 380 Q 758 434 780 445 Q 795 463 781 478 Q 765 490 719 510 Q 703 517 684 508 Q 636 486 525 456 C 496 448 511 422 540 429 Q 579 438 675 464 Q 690 468 696 462 Q 703 456 701 443 Q 695 412 688 383 C 681 354 724 352 736 380 Z"/>
  <path id="z36757d10" d="M 552 323 Q 555 323 557 322 Q 566 321 577 323 Q 631 338 747 353 Q 756 354 757 362 Q 757 368 736 380 C 717 391 717 391 688 383 Q 610 361 551 349 C 522 343 522 328 552 323 Z"/>
  <path id="z36757d11" d="M 347 95 Q 440 125 512 189 L 541 217 Q 568 250 588 263 C 599 271 599 271 584 291 Q 572 309 551 316 C 527 326 527 326 526 317 Q 525 316 525 310 Q 528 262 435 173 Q 432 172 431 170 Q 406 148 347 108 C 322 91 319 85 347 95 Z"/>
  <path id="z36757d12" d="M 512 189 Q 539 99 505 28 Q 487 19 498 -12 Q 508 -45 526 -55 Q 536 -62 547 -44 Q 571 -7 655 85 Q 670 100 671 107 Q 671 119 653 107 Q 571 56 565 57 Q 558 61 558 76 Q 562 154 567 174 Q 571 192 559 202 Q 549 212 541 217 C 517 235 504 218 512 189 Z"/>
  <path id="z36757d13" d="M 712 196 Q 800 259 844 282 Q 860 286 857 297 Q 851 312 834 330 Q 816 346 795 349 Q 782 349 782 331 Q 783 306 697 207 C 677 184 688 179 712 196 Z"/>
  <path id="z36757d14" d="M 588 263 Q 627 236 694 160 Q 796 55 829 56 Q 899 57 955 69 Q 983 73 981 82 Q 978 88 902 107 Q 788 137 712 196 L 697 207 Q 667 232 636 263 Q 609 288 584 291 C 555 298 564 281 588 263 Z"/>
<defs>
  <clipPath id="z36757c1"><use href="#z36757d1"/></clipPath>
  <clipPath id="z36757c2"><use href="#z36757d2"/></clipPath>
  <clipPath id="z36757c3"><use href="#z36757d3"/></clipPath>
  <clipPath id="z36757c4"><use href="#z36757d4"/></clipPath>
  <clipPath id="z36757c5"><use href="#z36757d5"/></clipPath>
  <clipPath id="z36757c6"><use href="#z36757d6"/></clipPath>
  <clipPath id="z36757c7"><use href="#z36757d7"/></clipPath>
  <clipPath id="z36757c8"><use href="#z36757d8"/></clipPath>
  <clipPath id="z36757c9"><use href="#z36757d9"/></clipPath>
  <clipPath id="z36757c10"><use href="#z36757d10"/></clipPath>
  <clipPath id="z36757c11"><use href="#z36757d11"/></clipPath>
  <clipPath id="z36757c12"><use href="#z36757d12"/></clipPath>
  <clipPath id="z36757c13"><use href="#z36757d13"/></clipPath>
  <clipPath id="z36757c14"><use href="#z36757d14"/></clipPath>
</defs>
<path style="--d:1s;" pathLength="3333" clip-path="url(#z36757c1)" d="M 140 597 L 150 592 L 203 594 L 394 646 L 436 647"/>
<path style="--d:2s;" pathLength="3333" clip-path="url(#z36757c2)" d="M 289 816 L 314 779 L 317 764 L 255 572 L 189 411 L 183 379 L 233 381 L 389 424 L 427 420"/>
<path style="--d:3s;" pathLength="3333" clip-path="url(#z36757c3)" d="M 306 528 L 334 491 L 327 253 L 314 73 L 325 -4"/>
<path style="--d:4s;" pathLength="3333" clip-path="url(#z36757c4)" d="M 98 206 L 155 192 L 437 322"/>
<path style="--d:5s;" pathLength="3333" clip-path="url(#z36757c5)" d="M 500 663 L 573 663 L 701 698 L 748 701"/>
<path style="--d:6s;" pathLength="3333" clip-path="url(#z36757c6)" d="M 588 825 L 629 788 L 618 591 L 602 572"/>
<path style="--d:7s;" pathLength="3333" clip-path="url(#z36757c7)" d="M 404 516 L 455 513 L 523 532 L 798 586 L 847 585 L 879 577"/>
<path style="--d:8s;" pathLength="3333" clip-path="url(#z36757c8)" d="M 484 457 L 506 439 L 516 422 L 535 333 L 545 320"/>
<path style="--d:9s;" pathLength="3333" clip-path="url(#z36757c9)" d="M 536 453 L 547 446 L 688 487 L 717 482 L 739 459 L 720 406 L 694 389"/>
<path style="--d:10s;" pathLength="3333" clip-path="url(#z36757c10)" d="M 556 330 L 574 339 L 684 364 L 748 362"/>
<path style="--d:11s;" pathLength="3333" clip-path="url(#z36757c11)" d="M 532 313 L 552 276 L 519 230 L 434 150 L 367 109 L 358 110 L 353 102"/>
<path style="--d:12s;" pathLength="3333" clip-path="url(#z36757c12)" d="M 541 208 L 538 56 L 546 21 L 593 45 L 663 106"/>
<path style="--d:13s;" pathLength="3333" clip-path="url(#z36757c13)" d="M 845 295 L 811 304 L 745 237 L 715 212 L 708 214"/>
<path style="--d:14s;" pathLength="3333" clip-path="url(#z36757c14)" d="M 589 285 L 717 165 L 798 107 L 829 92 L 853 88 L 977 79"/>
</svg>