<svg id="z39768" class="acjk" viewBox="0 0 1024 1024" xmlns="http://www.w3.org/2000/svg">
  <path id="z39768d1" d="M 290 742 Q 294 742 301 743 Q 532 785 734 799 Q 743 798 752 808 Q 753 818 733 829 Q 711 851 632 832 Q 434 796 369 790 Q 326 789 279 783 C 249 779 260 739 290 742 Z"/>
  <path id="z39768d2" d="M 279 783 Q 264 795 243 803 Q 224 813 210 808 Q 198 801 205 787 Q 226 753 227 690 Q 212 480 193 387 Q 183 345 170 307 Q 131 199 38 43 Q 34 36 31 30 Q 30 20 40 22 Q 68 26 152 155 Q 173 192 193 235 Q 265 409 278 624 Q 284 721 290 742 C 295 772 295 773 279 783 Z"/>
  <path id="z39768d3" d="M 350 718 Q 343 722 319 728 Q 310 729 308 727 Q 304 723 309 711 Q 327 672 337 608 Q 338 589 349 576 Q 361 561 365 572 Q 366 578 367 585 L 367 601 Q 366 607 366 613 Q 363 629 362 641 L 359 660 Q 356 684 355 695 C 353 717 353 717 350 718 Z"/>
  <path id="z39768d4" d="M 465 598 Q 478 582 490 575 Q 497 571 508 585 Q 515 598 531 663 Q 537 685 553 703 Q 562 712 554 722 Q 544 732 512 751 Q 497 757 453 744 Q 425 740 350 718 C 321 710 327 686 355 695 Q 355 696 358 696 Q 466 732 485 718 Q 492 714 491 703 Q 482 628 472 620 C 462 602 462 602 465 598 Z"/>
  <path id="z39768d5" d="M 362 641 Q 413 650 451 656 Q 467 659 461 667 Q 454 677 437 679 Q 413 682 359 660 C 331 649 332 636 362 641 Z"/>
  <path id="z39768d6" d="M 367 585 Q 371 584 380 585 Q 428 594 465 598 C 495 601 498 605 472 620 Q 468 623 461 624 Q 442 625 367 601 C 338 592 337 589 367 585 Z"/>
  <path id="z39768d7" d="M 332 430 Q 333 449 335 462 L 336 481 Q 336 505 339 517 C 341 527 341 527 334 533 Q 333 536 329 537 Q 311 546 301 545 Q 294 544 296 535 Q 320 481 292 402 Q 280 372 299 348 Q 303 341 309 344 Q 327 356 332 413 L 332 430 Z"/>
  <path id="z39768d8" d="M 339 517 Q 348 518 361 522 Q 433 540 445 536 Q 452 532 452 514 Q 456 450 454 400 Q 453 390 447 388 Q 440 384 394 385 Q 385 386 386 380 Q 387 376 399 371 Q 426 353 446 334 Q 458 324 468 326 Q 475 327 486 349 Q 499 374 493 482 Q 493 515 500 530 Q 507 540 499 549 Q 487 559 461 568 Q 451 571 334 533 C 305 524 310 511 339 517 Z"/>
  <path id="z39768d9" d="M 335 462 Q 338 462 343 462 Q 394 472 431 478 Q 447 482 441 491 Q 434 501 414 503 Q 381 506 336 481 C 310 467 305 462 335 462 Z"/>
  <path id="z39768d10" d="M 332 413 Q 335 413 430 423 Q 446 426 441 435 Q 434 445 415 449 Q 381 452 332 430 C 305 418 302 411 332 413 Z"/>
  <path id="z39768d11" d="M 683 598 Q 720 608 761 617 Q 791 624 796 629 Q 803 636 799 643 Q 792 652 769 657 Q 748 660 687 638 L 643 625 Q 603 616 558 610 Q 528 604 550 592 Q 583 574 629 586 Q 633 587 638 587 L 683 598 Z"/>
  <path id="z39768d12" d="M 682 595 Q 682 596 683 598 L 687 638 Q 690 696 697 714 Q 703 729 689 734 Q 646 755 630 747 Q 620 743 626 731 Q 647 701 643 625 L 638 587 Q 619 503 563 456 Q 553 446 541 435 Q 532 428 542 426 Q 585 432 630 485 Q 654 512 674 563 Q 674 564 675 567 L 682 595 Z"/>
  <path id="z39768d13" d="M 675 567 Q 718 497 775 422 Q 796 400 900 412 Q 907 413 908 417 Q 908 421 900 426 Q 804 469 743 530 Q 713 560 682 595 C 662 617 659 593 675 567 Z"/>
  <path id="z39768d14" d="M 750 745 Q 805 694 828 695 Q 840 696 843 712 Q 843 724 832 740 Q 822 753 799 758 Q 765 768 750 769 Q 743 770 743 759 Q 742 752 750 745 Z"/>
  <path id="z39768d15" d="M 527 331 Q 557 365 581 381 Q 594 391 584 401 Q 574 410 555 415 Q 539 421 530 417 Q 523 416 527 407 Q 533 392 501 326 C 488 299 507 309 527 331 Z"/>
  <path id="z39768d16" d="M 385 301 Q 375 307 342 312 Q 332 313 328 309 Q 324 303 331 290 Q 355 247 372 174 Q 376 152 389 138 Q 405 119 410 133 Q 411 140 412 150 L 411 173 Q 410 177 410 181 Q 398 245 394 271 C 390 299 390 299 385 301 Z"/>
  <path id="z39768d17" d="M 634 173 Q 638 164 647 164 Q 665 167 691 227 Q 704 269 734 292 Q 750 305 737 317 Q 724 332 683 353 Q 671 360 603 345 Q 585 345 527 331 L 501 326 Q 432 314 385 301 C 356 293 366 261 394 271 Q 436 286 487 295 L 516 300 Q 640 328 659 317 Q 666 313 661 293 Q 649 248 633 197 C 627 178 627 178 634 173 Z"/>
  <path id="z39768d18" d="M 531 227 Q 562 234 590 237 Q 608 240 601 250 Q 592 262 573 265 Q 557 266 534 260 L 494 249 Q 466 242 441 233 Q 428 230 444 219 Q 447 218 495 221 L 531 227 Z"/>
  <path id="z39768d19" d="M 534 260 Q 535 263 535 265 Q 539 277 534 284 Q 525 294 516 300 C 492 317 471 320 487 295 Q 488 294 490 290 Q 490 289 494 249 L 495 221 Q 495 206 497 184 C 500 154 526 160 528 190 Q 529 209 531 227 L 534 260 Z"/>
  <path id="z39768d20" d="M 543 165 Q 582 169 634 173 C 664 175 660 184 633 197 Q 611 212 528 190 L 497 184 Q 451 178 411 173 C 381 169 383 157 412 150 Q 419 147 430 149 Q 464 158 522 163 L 543 165 Z"/>
  <path id="z39768d21" d="M 426 123 Q 411 30 247 -47 Q 240 -51 244 -54 Q 248 -58 258 -57 Q 369 -42 452 57 Q 462 69 475 79 Q 482 85 480 93 Q 479 102 459 121 Q 446 134 439 135 Q 429 135 426 123 Z"/>
  <path id="z39768d22" d="M 522 163 Q 521 159 523 150 Q 532 119 528 90 Q 521 17 525 -5 Q 528 -27 550 -44 Q 631 -104 825 -70 Q 828 -69 832 -68 Q 875 -58 920 -32 Q 936 -19 924 3 Q 912 24 896 88 Q 895 101 889 106 Q 883 107 880 93 Q 859 23 845 1 Q 806 -38 681 -35 Q 635 -34 599 -22 Q 568 -9 563 8 Q 551 32 573 126 Q 579 148 543 165 C 520 179 520 179 522 163 Z"/>
  <path id="z39768d23" d="M 751 66 Q 709 62 665 51 Q 661 50 660 51 Q 659 52 661 57 Q 707 118 716 129 Q 723 136 719 144 Q 715 151 684 164 Q 674 168 668 166 Q 661 162 664 149 Q 682 104 605 40 Q 596 33 599 26 Q 603 16 619 3 Q 626 -3 634 4 Q 656 28 759 53 C 788 60 781 69 751 66 Z"/>
  <path id="z39768d24" d="M 759 53 Q 783 17 787 16 Q 793 15 798 21 Q 804 28 804 47 Q 805 62 788 79 Q 746 113 736 114 Q 732 113 731 105 Q 731 98 742 82 Q 746 75 751 66 L 759 53 Z"/>
<defs>
  <clipPath id="z39768c1"><use href="#z39768d1"/></clipPath>
  <clipPath id="z39768c2"><use href="#z39768d2"/></clipPath>
  <clipPath id="z39768c3"><use href="#z39768d3"/></clipPath>
  <clipPath id="z39768c4"><use href="#z39768d4"/></clipPath>
  <clipPath id="z39768c5"><use href="#z39768d5"/></clipPath>
  <clipPath id="z39768c6"><use href="#z39768d6"/></clipPath>
  <clipPath id="z39768c7"><use href="#z39768d7"/></clipPath>
  <clipPath id="z39768c8"><use href="#z39768d8"/></clipPath>
  <clipPath id="z39768c9"><use href="#z39768d9"/></clipPath>
  <clipPath id="z39768c10"><use href="#z39768d10"/></clipPath>
  <clipPath id="z39768c11"><use href="#z39768d11"/></clipPath>
  <clipPath id="z39768c12"><use href="#z39768d12"/></clipPath>
  <clipPath id="z39768c13"><use href="#z39768d13"/></clipPath>
  <clipPath id="z39768c14"><use href="#z39768d14"/></clipPath>
  <clipPath id="z39768c15"><use href="#z39768d15"/></clipPath>
  <clipPath id="z39768c16"><use href="#z39768d16"/></clipPath>
  <clipPath id="z39768c17"><use href="#z39768d17"/></clipPath>
  <clipPath id="z39768c18"><use href="#z39768d18"/></clipPath>
  <clipPath id="z39768c19"><use href="#z39768d19"/></clipPath>
  <clipPath id="z39768c20"><use href="#z39768d20"/></clipPath>
  <clipPath id="z39768c21"><use href="#z39768d21"/></clipPath>
  <clipPath id="z39768c22"><use href="#z39768d22"/></clipPath>
  <clipPath id="z39768c23"><use href="#z39768d23"/></clipPath>
  <clipPath id="z39768c24"><use href="#z39768d24"/></clipPath>
</defs>
<path style="--d:1s;" pathLength="3333" clip-path="url(#z39768c1)" d="M 287 778 L 306 765 L 647 815 L 706 819 L 743 810"/>
<path style="--d:2s;" pathLength="3333" clip-path="url(#z39768c2)" d="M 216 795 L 247 767 L 256 742 L 246 567 L 220 394 L 195 306 L 156 211 L 102 113 L 40 31"/>
<path style="--d:3s;" pathLength="3333" clip-path="url(#z39768c3)" d="M 314 722 L 333 704 L 357 576"/>
<path style="--d:4s;" pathLength="3333" clip-path="url(#z39768c4)" d="M 355 701 L 382 717 L 467 736 L 484 737 L 508 728 L 520 710 L 491 604 L 493 588"/>
<path style="--d:5s;" pathLength="3333" clip-path="url(#z39768c5)" d="M 370 647 L 372 655 L 388 659 L 452 665"/>
<path style="--d:6s;" pathLength="3333" clip-path="url(#z39768c6)" d="M 374 589 L 378 597 L 464 616"/>
<path style="--d:7s;" pathLength="3333" clip-path="url(#z39768c7)" d="M 306 536 L 319 521 L 322 489 L 307 353"/>
<path style="--d:8s;" pathLength="3333" clip-path="url(#z39768c8)" d="M 343 523 L 348 532 L 444 551 L 462 547 L 475 534 L 475 396 L 464 366 L 459 361 L 411 374 L 404 381 L 393 377"/>
<path style="--d:9s;" pathLength="3333" clip-path="url(#z39768c9)" d="M 339 467 L 376 484 L 433 487"/>
<path style="--d:10s;" pathLength="3333" clip-path="url(#z39768c10)" d="M 333 417 L 343 426 L 398 435 L 433 432"/>
<path style="--d:11s;" pathLength="3333" clip-path="url(#z39768c11)" d="M 551 602 L 574 597 L 617 600 L 720 629 L 789 638"/>
<path style="--d:12s;" pathLength="3333" clip-path="url(#z39768c12)" d="M 633 738 L 655 724 L 666 704 L 667 650 L 653 562 L 613 487 L 547 431"/>
<path style="--d:13s;" pathLength="3333" clip-path="url(#z39768c13)" d="M 685 587 L 689 568 L 795 447 L 863 423 L 901 419"/>
<path style="--d:14s;" pathLength="3333" clip-path="url(#z39768c14)" d="M 753 759 L 807 730 L 826 712"/>
<path style="--d:15s;" pathLength="3333" clip-path="url(#z39768c15)" d="M 537 410 L 551 388 L 519 339"/>
<path style="--d:16s;" pathLength="3333" clip-path="url(#z39768c16)" d="M 336 304 L 364 282 L 400 138"/>
<path style="--d:17s;" pathLength="3333" clip-path="url(#z39768c17)" d="M 398 280 L 421 295 L 525 314 L 541 322 L 548 319 L 636 337 L 674 333 L 697 306 L 646 176"/>
<path style="--d:18s;" pathLength="3333" clip-path="url(#z39768c18)" d="M 447 227 L 557 249 L 594 245"/>
<path style="--d:19s;" pathLength="3333" clip-path="url(#z39768c19)" d="M 494 296 L 514 273 L 513 210 L 504 192"/>
<path style="--d:20s;" pathLength="3333" clip-path="url(#z39768c20)" d="M 419 168 L 425 161 L 596 187 L 618 187 L 625 179"/>
<path style="--d:21s;" pathLength="3333" clip-path="url(#z39768c21)" d="M 439 123 L 447 92 L 399 30 L 329 -21 L 291 -39 L 259 -45 L 252 -53"/>
<path style="--d:22s;" pathLength="3333" clip-path="url(#z39768c22)" d="M 528 157 L 550 130 L 540 38 L 551 -15 L 575 -35 L 628 -53 L 684 -59 L 754 -56 L 810 -48 L 858 -29 L 885 -3 L 886 99"/>
<path style="--d:23s;" pathLength="3333" clip-path="url(#z39768c23)" d="M 672 158 L 691 135 L 672 91 L 641 52 L 642 37 L 747 55"/>
<path style="--d:24s;" pathLength="3333" clip-path="url(#z39768c24)" d="M 738 107 L 778 61 L 790 24"/>
</svg>