<svg id="z34946" class="acjk" viewBox="0 0 1024 1024" xmlns="http://www.w3.org/2000/svg">
  <path id="z34946d1" d="M 269 758 Q 294 734 321 705 Q 336 689 354 690 Q 366 690 372 705 Q 379 721 369 756 Q 360 789 265 813 Q 247 817 240 815 Q 234 811 235 796 Q 239 783 269 758 Z"/>
  <path id="z34946d2" d="M 260 378 Q 287 417 316 464 Q 346 516 389 551 Q 402 563 390 576 Q 371 589 342 598 Q 320 605 304 593 Q 238 542 109 523 Q 97 524 95 516 Q 94 507 107 498 Q 146 474 183 487 Q 286 539 290 537 L 291 536 Q 297 527 286 506 Q 217 364 67 208 Q 54 196 56 193 Q 59 190 71 196 Q 146 233 235 343 L 260 378 Z"/>
  <path id="z34946d3" d="M 235 343 Q 263 277 229 105 Q 208 77 243 13 Q 246 9 250 3 Q 266 -12 278 13 Q 291 52 291 95 Q 292 264 299 303 Q 306 328 297 338 Q 267 374 260 378 C 238 398 225 371 235 343 Z"/>
  <path id="z34946d4" d="M 359 376 Q 408 419 432 437 Q 445 443 441 450 Q 434 462 418 473 Q 402 485 385 484 Q 373 483 377 467 Q 380 455 345 384 C 332 357 336 356 359 376 Z"/>
  <path id="z34946d5" d="M 345 384 Q 315 400 308 398 Q 304 397 304 387 L 371 304 Q 378 294 390 293 Q 397 292 402 301 Q 406 311 403 331 Q 402 350 377 367 Q 368 373 359 376 L 345 384 Z"/>
  <path id="z34946d6" d="M 774 405 Q 801 486 835 513 Q 853 532 837 550 Q 762 611 700 580 Q 664 568 629 559 L 584 549 Q 532 540 480 534 Q 462 533 464 523 Q 467 514 486 507 Q 511 497 549 507 Q 565 511 582 513 L 627 521 Q 726 543 737 533 Q 747 523 744 505 Q 734 444 719 395 C 711 366 764 377 774 405 Z"/>
  <path id="z34946d7" d="M 615 347 Q 687 365 918 366 Q 934 367 939 374 Q 943 384 929 396 Q 880 432 823 415 Q 799 411 774 405 L 719 395 Q 677 392 618 379 L 571 373 Q 507 366 438 355 Q 420 354 434 339 Q 446 327 462 322 Q 480 318 493 322 Q 527 332 566 339 L 615 347 Z"/>
  <path id="z34946d8" d="M 614 343 Q 614 346 615 347 L 618 379 Q 619 404 622 429 Q 623 475 627 521 L 629 559 Q 632 703 656 751 Q 663 766 653 778 Q 631 796 592 807 Q 567 813 559 806 Q 550 799 558 787 Q 580 751 583 705 Q 586 626 584 549 L 582 513 Q 582 501 571 373 L 566 339 Q 541 210 463 136 Q 426 103 372 70 Q 360 63 360 59 Q 361 55 373 55 Q 389 51 427 66 Q 568 115 608 307 L 614 343 Z"/>
  <path id="z34946d9" d="M 608 307 Q 681 193 777 71 Q 795 50 826 50 Q 932 50 965 54 Q 975 55 976 61 Q 977 65 963 74 Q 828 134 761 191 Q 692 255 614 343 C 594 365 592 332 608 307 Z"/>
<defs>
  <clipPath id="z34946c1"><use href="#z34946d1"/></clipPath>
  <clipPath id="z34946c2"><use href="#z34946d2"/></clipPath>
  <clipPath id="z34946c3"><use href="#z34946d3"/></clipPath>
  <clipPath id="z34946c4"><use href="#z34946d4"/></clipPath>
  <clipPath id="z34946c5"><use href="#z34946d5"/></clipPath>
  <clipPath id="z34946c6"><use href="#z34946d6"/></clipPath>
  <clipPath id="z34946c7"><use href="#z34946d7"/></clipPath>
  <clipPath id="z34946c8"><use href="#z34946d8"/></clipPath>
  <clipPath id="z34946c9"><use href="#z34946d9"/></clipPath>
</defs>
<path style="--d:1s;" pathLength="3333" clip-path="url(#z34946c1)" d="M 245 807 L 331 748 L 353 710"/>
<path style="--d:2s;" pathLength="3333" clip-path="url(#z34946c2)" d="M 105 514 L 137 506 L 170 509 L 286 558 L 330 556 L 322 524 L 301 482 L 214 347 L 124 247 L 65 201"/>
<path style="--d:3s;" pathLength="3333" clip-path="url(#z34946c3)" d="M 258 371 L 273 316 L 267 172 L 256 82 L 262 14"/>
<path style="--d:4s;" pathLength="3333" clip-path="url(#z34946c4)" d="M 386 473 L 402 447 L 373 406 L 355 393"/>
<path style="--d:5s;" pathLength="3333" clip-path="url(#z34946c5)" d="M 311 391 L 370 344 L 389 308"/>
<path style="--d:6s;" pathLength="3333" clip-path="url(#z34946c6)" d="M 474 524 L 497 519 L 536 522 L 727 563 L 759 557 L 788 530 L 755 428 L 725 400"/>
<path style="--d:7s;" pathLength="3333" clip-path="url(#z34946c7)" d="M 436 347 L 473 340 L 689 376 L 850 393 L 898 389 L 930 379"/>
<path style="--d:8s;" pathLength="3333" clip-path="url(#z34946c8)" d="M 567 796 L 615 756 L 600 437 L 583 302 L 561 233 L 514 154 L 451 99 L 367 58"/>
<path style="--d:9s;" pathLength="3333" clip-path="url(#z34946c9)" d="M 619 336 L 624 309 L 669 252 L 759 148 L 813 99 L 969 60"/>
</svg>