<svg id="z38460" class="acjk" viewBox="0 0 1024 1024" xmlns="http://www.w3.org/2000/svg">
  <path id="z38460d1" d="M 207 649 Q 246 659 287 679 Q 303 689 314 679 Q 321 673 312 653 Q 273 548 279 531 Q 328 432 329 414 Q 328 410 325 404 Q 319 394 299 396 Q 272 397 244 396 Q 219 396 248 382 Q 297 355 342 323 Q 357 310 370 322 Q 386 332 394 359 Q 409 410 351 493 Q 309 550 317 568 Q 327 602 377 661 Q 387 674 397 681 Q 418 694 407 708 Q 391 727 351 747 Q 329 754 314 742 Q 269 703 193 682 C 164 673 178 641 207 649 Z"/>
  <path id="z38460d2" d="M 193 682 Q 183 692 156 704 Q 146 708 133 704 Q 126 698 131 685 Q 156 607 160 569 Q 159 566 160 561 Q 178 314 140 139 Q 112 82 160 22 Q 172 7 183 21 Q 202 48 201 170 Q 202 609 206 637 Q 207 644 207 649 C 209 671 209 671 193 682 Z"/>
  <path id="z38460d3" d="M 503 579 Q 533 622 564 682 Q 580 716 595 732 Q 602 742 597 756 Q 593 768 562 787 Q 535 802 517 800 Q 499 796 509 776 Q 543 722 396 482 Q 387 472 385 465 Q 384 455 396 458 Q 421 465 489 559 L 503 579 Z"/>
  <path id="z38460d4" d="M 597 545 Q 597 546 600 546 Q 850 606 860 613 Q 869 622 864 631 Q 855 644 824 651 Q 794 657 685 617 Q 544 586 506 580 Q 503 580 503 579 C 474 573 471 572 489 559 Q 507 541 555 541 L 597 545 Z"/>
  <path id="z38460d5" d="M 619 254 Q 619 321 620 389 L 621 411 Q 622 475 629 505 Q 630 518 624 525 Q 611 537 597 545 C 572 562 541 567 555 541 Q 591 505 563 172 Q 560 141 556 115 Q 555 84 549 68 Q 540 26 576 -26 Q 588 -45 596 -51 Q 609 -52 614 -38 Q 627 -4 623 28 Q 620 131 619 224 L 619 254 Z"/>
  <path id="z38460d6" d="M 620 389 Q 660 370 713 387 Q 758 399 805 411 Q 826 418 829 421 Q 836 428 832 437 Q 825 447 795 453 Q 771 456 691 426 Q 661 419 626 413 Q 622 413 621 411 C 593 401 592 401 620 389 Z"/>
  <path id="z38460d7" d="M 619 224 Q 652 214 723 224 Q 772 233 827 245 Q 855 251 859 255 Q 868 262 863 272 Q 856 284 826 291 Q 795 297 765 284 Q 734 274 699 266 Q 662 259 619 254 C 589 250 590 231 619 224 Z"/>
<defs>
  <clipPath id="z38460c1"><use href="#z38460d1"/></clipPath>
  <clipPath id="z38460c2"><use href="#z38460d2"/></clipPath>
  <clipPath id="z38460c3"><use href="#z38460d3"/></clipPath>
  <clipPath id="z38460c4"><use href="#z38460d4"/></clipPath>
  <clipPath id="z38460c5"><use href="#z38460d5"/></clipPath>
  <clipPath id="z38460c6"><use href="#z38460d6"/></clipPath>
  <clipPath id="z38460c7"><use href="#z38460d7"/></clipPath>
</defs>
<path style="--d:1s;" pathLength="3333" clip-path="url(#z38460c1)" d="M 203 680 L 217 670 L 297 705 L 331 711 L 352 698 L 348 671 L 307 591 L 298 547 L 302 528 L 353 437 L 361 409 L 357 379 L 352 369 L 325 369 L 251 390"/>
<path style="--d:2s;" pathLength="3333" clip-path="url(#z38460c2)" d="M 141 695 L 165 669 L 176 644 L 181 589 L 185 341 L 174 158 L 164 92 L 172 27"/>
<path style="--d:3s;" pathLength="3333" clip-path="url(#z38460c3)" d="M 519 786 L 532 778 L 555 745 L 547 721 L 515 646 L 467 560 L 422 496 L 393 466"/>
<path style="--d:4s;" pathLength="3333" clip-path="url(#z38460c4)" d="M 497 561 L 609 572 L 804 624 L 854 623"/>
<path style="--d:5s;" pathLength="3333" clip-path="url(#z38460c5)" d="M 564 538 L 591 520 L 599 504 L 585 42 L 599 -42"/>
<path style="--d:6s;" pathLength="3333" clip-path="url(#z38460c6)" d="M 626 405 L 645 398 L 670 399 L 784 430 L 821 431"/>
<path style="--d:7s;" pathLength="3333" clip-path="url(#z38460c7)" d="M 627 247 L 637 238 L 676 240 L 804 267 L 852 266"/>
</svg>