<svg id="z30073" class="acjk" viewBox="0 0 1024 1024" xmlns="http://www.w3.org/2000/svg">
  <path id="z30073d1" d="M 91 578 Q 72 591 53 597 Q 46 598 41 594 Q 34 590 42 578 Q 87 497 84 299 Q 81 242 115 214 Q 116 213 119 211 Q 135 205 138 234 Q 138 241 138 249 L 136 280 Q 118 403 118 543 Q 118 547 117 551 C 116 562 116 562 91 578 Z"/>
  <path id="z30073d2" d="M 283 271 Q 302 249 317 241 Q 327 235 340 256 Q 358 296 377 506 Q 384 534 405 558 Q 415 571 405 583 Q 390 598 350 620 Q 337 626 264 610 Q 255 610 163 592 Q 123 583 91 578 C 61 573 88 544 117 551 Q 144 558 181 564 L 219 569 Q 300 587 313 574 Q 334 552 332 529 Q 311 327 294 300 C 283 272 283 271 283 271 Z"/>
  <path id="z30073d3" d="M 240 422 Q 268 428 297 432 Q 316 435 309 446 Q 300 458 279 461 Q 263 462 242 457 L 197 444 Q 166 435 138 426 Q 125 423 141 411 Q 148 405 165 408 Q 180 412 197 414 L 240 422 Z"/>
  <path id="z30073d4" d="M 236 303 Q 237 367 240 422 L 242 457 Q 242 500 246 524 Q 253 546 219 569 C 195 587 170 592 181 564 Q 193 537 197 465 Q 196 456 197 444 L 197 414 Q 197 366 197 293 C 197 263 235 273 236 303 Z"/>
  <path id="z30073d5" d="M 138 249 Q 138 250 141 250 Q 187 260 283 271 C 313 274 318 282 294 300 Q 290 303 286 306 Q 264 318 236 303 L 197 293 Q 163 287 136 280 C 107 273 109 241 138 249 Z"/>
  <path id="z30073d6" d="M 590 771 Q 623 749 658 722 Q 673 712 687 714 Q 697 715 701 728 Q 704 743 692 770 Q 685 791 651 802 Q 572 823 560 815 Q 556 811 558 799 Q 562 789 590 771 Z"/>
  <path id="z30073d7" d="M 500 643 Q 482 673 467 682 Q 463 686 458 683 Q 454 679 453 668 Q 457 640 432 580 Q 422 564 424 546 Q 428 527 437 513 Q 444 503 450 511 Q 460 514 475 558 Q 491 612 498 618 C 507 631 507 631 500 643 Z"/>
  <path id="z30073d8" d="M 498 618 Q 516 608 560 615 Q 641 646 765 659 Q 772 660 778 659 Q 794 646 791 637 Q 791 634 771 565 Q 767 552 773 549 Q 780 546 793 559 Q 838 599 877 617 Q 908 632 907 640 Q 906 649 839 689 Q 818 702 711 679 Q 699 679 565 653 Q 532 647 500 643 C 470 639 469 627 498 618 Z"/>
  <path id="z30073d9" d="M 492 414 Q 507 447 518 458 Q 522 462 521 470 Q 520 477 509 485 Q 479 503 459 496 Q 453 495 456 485 Q 469 449 417 358 Q 416 358 415 355 Q 400 330 360 281 Q 354 277 362 275 Q 420 294 480 394 L 492 414 Z"/>
  <path id="z30073d10" d="M 487 215 Q 483 209 479 202 Q 431 121 346 39 Q 327 26 345 28 Q 457 46 569 283 Q 609 383 622 395 Q 632 404 626 414 Q 622 423 577 439 Q 567 443 549 433 Q 530 423 492 414 C 463 407 450 396 480 394 Q 490 391 509 394 Q 546 400 548 395 Q 554 382 540 333 Q 531 293 502 239 L 487 215 Z"/>
  <path id="z30073d11" d="M 502 239 Q 496 266 473 279 Q 443 298 430 302 Q 423 303 421 295 Q 418 285 460 232 Q 472 217 487 215 C 509 211 509 211 502 239 Z"/>
  <path id="z30073d12" d="M 691 420 Q 746 439 786 448 Q 795 449 797 447 Q 804 437 803 411 Q 803 338 789 304 Q 779 282 759 283 Q 738 290 720 300 Q 701 307 713 287 Q 750 248 766 218 Q 781 203 793 217 Q 835 251 850 372 Q 850 424 866 452 Q 875 462 870 471 Q 863 480 820 494 Q 804 500 789 488 Q 771 476 675 450 C 646 442 663 410 691 420 Z"/>
  <path id="z30073d13" d="M 675 450 Q 665 457 651 462 Q 639 466 632 461 Q 626 457 631 441 Q 643 407 641 373 Q 631 159 649 99 Q 653 77 673 59 Q 740 1 888 24 Q 892 27 898 27 Q 931 37 962 62 Q 981 77 968 102 Q 955 130 936 214 Q 936 230 929 234 Q 923 237 919 220 Q 897 129 880 101 Q 871 88 843 81 Q 779 65 721 91 Q 699 103 692 118 Q 659 187 691 420 C 694 440 694 440 675 450 Z"/>
<defs>
  <clipPath id="z30073c1"><use href="#z30073d1"/></clipPath>
  <clipPath id="z30073c2"><use href="#z30073d2"/></clipPath>
  <clipPath id="z30073c3"><use href="#z30073d3"/></clipPath>
  <clipPath id="z30073c4"><use href="#z30073d4"/></clipPath>
  <clipPath id="z30073c5"><use href="#z30073d5"/></clipPath>
  <clipPath id="z30073c6"><use href="#z30073d6"/></clipPath>
  <clipPath id="z30073c7"><use href="#z30073d7"/></clipPath>
  <clipPath id="z30073c8"><use href="#z30073d8"/></clipPath>
  <clipPath id="z30073c9"><use href="#z30073d9"/></clipPath>
  <clipPath id="z30073c10"><use href="#z30073d10"/></clipPath>
  <clipPath id="z30073c11"><use href="#z30073d11"/></clipPath>
  <clipPath id="z30073c12"><use href="#z30073d12"/></clipPath>
  <clipPath id="z30073c13"><use href="#z30073d13"/></clipPath>
</defs>
<path style="--d:1s;" pathLength="3333" clip-path="url(#z30073c1)" d="M 48 586 L 75 561 L 90 535 L 108 290 L 123 221"/>
<path style="--d:2s;" pathLength="3333" clip-path="url(#z30073c2)" d="M 98 576 L 122 568 L 178 582 L 229 585 L 299 599 L 331 595 L 363 567 L 335 350 L 317 278 L 321 259"/>
<path style="--d:3s;" pathLength="3333" clip-path="url(#z30073c3)" d="M 148 420 L 263 444 L 301 441"/>
<path style="--d:4s;" pathLength="3333" clip-path="url(#z30073c4)" d="M 188 562 L 213 543 L 219 522 L 217 327 L 213 312 L 202 302"/>
<path style="--d:5s;" pathLength="3333" clip-path="url(#z30073c5)" d="M 145 259 L 161 271 L 284 295"/>
<path style="--d:6s;" pathLength="3333" clip-path="url(#z30073c6)" d="M 565 809 L 655 765 L 684 731"/>
<path style="--d:7s;" pathLength="3333" clip-path="url(#z30073c7)" d="M 462 674 L 476 638 L 451 564 L 445 523"/>
<path style="--d:8s;" pathLength="3333" clip-path="url(#z30073c8)" d="M 507 636 L 518 628 L 548 631 L 646 656 L 783 676 L 823 658 L 834 642 L 777 555"/>
<path style="--d:9s;" pathLength="3333" clip-path="url(#z30073c9)" d="M 466 488 L 487 465 L 471 420 L 421 335 L 393 303 L 367 288 L 366 280"/>
<path style="--d:10s;" pathLength="3333" clip-path="url(#z30073c10)" d="M 487 397 L 503 406 L 553 414 L 577 408 L 583 399 L 556 302 L 516 222 L 457 131 L 393 63 L 349 33"/>
<path style="--d:11s;" pathLength="3333" clip-path="url(#z30073c11)" d="M 430 293 L 476 247 L 483 226"/>
<path style="--d:12s;" pathLength="3333" clip-path="url(#z30073c12)" d="M 687 450 L 699 440 L 810 470 L 830 455 L 820 326 L 798 270 L 782 254 L 753 266 L 723 290"/>
<path style="--d:13s;" pathLength="3333" clip-path="url(#z30073c13)" d="M 639 453 L 658 434 L 665 411 L 655 239 L 660 152 L 670 109 L 694 76 L 735 56 L 787 47 L 836 48 L 893 63 L 925 90 L 928 228"/>
</svg>