<svg id="z36426" class="acjk" viewBox="0 0 1024 1024" xmlns="http://www.w3.org/2000/svg">
  <path id="z36426d1" d="M 210 694 Q 198 700 171 704 Q 159 707 157 703 Q 151 697 158 683 Q 185 628 199 536 Q 202 508 218 490 Q 234 471 238 485 Q 242 495 242 510 L 239 541 Q 224 637 220 667 C 217 691 217 691 210 694 Z"/>
  <path id="z36426d2" d="M 375 566 Q 391 645 415 670 Q 437 694 415 708 Q 396 718 371 735 Q 353 744 309 720 Q 260 702 210 694 C 180 689 192 658 220 667 Q 223 670 309 688 Q 336 694 341 683 Q 348 677 342 643 Q 335 607 327 566 C 321 537 369 537 375 566 Z"/>
  <path id="z36426d3" d="M 297 519 Q 334 528 391 535 Q 401 536 401 545 Q 401 552 375 566 C 358 576 356 575 327 566 Q 276 550 239 541 C 210 534 212 512 242 510 Q 249 509 260 511 L 297 519 Z"/>
  <path id="z36426d4" d="M 316 246 Q 317 307 319 362 L 319 394 Q 322 497 314 506 Q 305 513 297 519 C 273 537 249 539 260 511 Q 272 486 275 393 Q 275 336 277 234 C 278 204 315 216 316 246 Z"/>
  <path id="z36426d5" d="M 319 362 Q 367 371 401 376 Q 423 382 414 393 Q 402 406 378 408 Q 356 409 319 394 C 291 383 290 356 319 362 Z"/>
  <path id="z36426d6" d="M 214 215 Q 199 347 203 376 Q 204 398 191 408 Q 169 423 144 429 Q 131 433 123 427 Q 116 421 123 407 Q 148 367 178 204 C 183 175 217 185 214 215 Z"/>
  <path id="z36426d7" d="M 178 204 Q 93 188 89 187 Q 76 186 75 175 Q 74 162 82 154 Q 104 138 138 120 Q 148 117 160 126 Q 181 144 354 227 Q 376 237 393 251 Q 406 258 406 268 Q 400 274 388 271 Q 352 259 316 246 L 277 234 Q 246 225 214 215 L 178 204 Z"/>
  <path id="z36426d8" d="M 642 807 Q 603 774 497 731 Q 493 724 497 720 Q 512 716 639 748 Q 678 769 735 775 Q 751 775 755 782 Q 759 791 748 802 Q 700 842 664 843 Q 657 839 656 829 Q 655 816 642 807 Z"/>
  <path id="z36426d9" d="M 461 660 Q 506 603 516 601 Q 523 600 530 609 Q 534 619 532 641 Q 531 657 510 672 Q 456 700 448 698 Q 444 697 443 687 Q 444 678 461 660 Z"/>
  <path id="z36426d10" d="M 586 685 Q 610 642 631 629 Q 641 625 649 633 Q 653 640 654 652 Q 653 668 643 680 Q 628 698 599 709 Q 589 715 582 713 Q 578 713 577 705 Q 577 698 586 685 Z"/>
  <path id="z36426d11" d="M 771 710 Q 743 676 688 621 Q 682 614 687 607 Q 694 606 702 609 Q 796 664 841 684 Q 859 687 856 698 Q 852 714 834 734 Q 818 753 795 757 Q 780 758 780 739 Q 781 726 771 710 Z"/>
  <path id="z36426d12" d="M 627 473 Q 572 476 527 476 Q 511 477 520 487 Q 566 529 607 558 Q 622 570 621 576 Q 622 588 597 619 Q 587 632 572 633 Q 562 633 564 619 Q 570 589 504 517 Q 491 501 467 489 Q 451 479 450 470 Q 451 454 460 438 Q 467 428 478 432 Q 506 444 598 452 Q 599 453 603 452 C 633 453 657 471 627 473 Z"/>
  <path id="z36426d13" d="M 625 341 Q 626 342 632 343 Q 696 361 761 370 C 791 374 782 390 752 387 Q 662 380 555 359 Q 542 356 551 365 Q 593 401 689 470 Q 723 498 751 512 Q 764 519 761 529 Q 755 548 729 574 Q 716 586 707 585 Q 697 584 696 570 Q 690 533 627 473 L 603 452 Q 492 362 476 356 Q 463 350 462 337 Q 461 324 481 303 Q 488 290 505 298 Q 541 316 579 328 L 625 341 Z"/>
  <path id="z36426d14" d="M 761 370 Q 770 357 779 339 Q 788 326 801 322 Q 810 319 817 329 Q 824 341 825 367 Q 825 394 754 436 Q 742 443 736 443 Q 732 440 729 429 Q 729 420 752 387 L 761 370 Z"/>
  <path id="z36426d15" d="M 658 213 Q 739 225 858 225 Q 910 222 919 233 Q 923 243 909 255 Q 864 291 828 282 Q 759 266 645 247 L 586 238 Q 496 226 399 212 Q 380 211 394 195 Q 407 182 423 178 Q 442 174 456 178 Q 514 194 580 204 L 658 213 Z"/>
  <path id="z36426d16" d="M 645 247 Q 655 299 660 305 Q 667 312 661 322 Q 655 328 625 341 C 598 353 571 357 579 328 Q 589 304 586 238 L 580 204 Q 541 108 502 74 Q 498 73 495 69 Q 464 42 380 5 Q 356 -7 385 -8 Q 467 -12 552 57 Q 561 66 570 76 Q 610 119 634 202 L 645 247 Z"/>
  <path id="z36426d17" d="M 634 202 Q 694 108 772 5 Q 788 -11 815 -11 Q 906 -7 935 -1 Q 942 0 944 5 Q 945 9 933 16 Q 818 67 726 149 Q 693 179 658 213 C 636 234 618 227 634 202 Z"/>
<defs>
  <clipPath id="z36426c1"><use href="#z36426d1"/></clipPath>
  <clipPath id="z36426c2"><use href="#z36426d2"/></clipPath>
  <clipPath id="z36426c3"><use href="#z36426d3"/></clipPath>
  <clipPath id="z36426c4"><use href="#z36426d4"/></clipPath>
  <clipPath id="z36426c5"><use href="#z36426d5"/></clipPath>
  <clipPath id="z36426c6"><use href="#z36426d6"/></clipPath>
  <clipPath id="z36426c7"><use href="#z36426d7"/></clipPath>
  <clipPath id="z36426c8"><use href="#z36426d8"/></clipPath>
  <clipPath id="z36426c9"><use href="#z36426d9"/></clipPath>
  <clipPath id="z36426c10"><use href="#z36426d10"/></clipPath>
  <clipPath id="z36426c11"><use href="#z36426d11"/></clipPath>
  <clipPath id="z36426c12"><use href="#z36426d12"/></clipPath>
  <clipPath id="z36426c13"><use href="#z36426d13"/></clipPath>
  <clipPath id="z36426c14"><use href="#z36426d14"/></clipPath>
  <clipPath id="z36426c15"><use href="#z36426d15"/></clipPath>
  <clipPath id="z36426c16"><use href="#z36426d16"/></clipPath>
  <clipPath id="z36426c17"><use href="#z36426d17"/></clipPath>
</defs>
<path style="--d:1s;" pathLength="3333" clip-path="url(#z36426c1)" d="M 165 696 L 194 665 L 228 489"/>
<path style="--d:2s;" pathLength="3333" clip-path="url(#z36426c2)" d="M 219 674 L 228 684 L 293 697 L 326 710 L 361 706 L 380 686 L 356 590 L 333 573"/>
<path style="--d:3s;" pathLength="3333" clip-path="url(#z36426c3)" d="M 246 518 L 258 528 L 333 547 L 369 550 L 392 544"/>
<path style="--d:4s;" pathLength="3333" clip-path="url(#z36426c4)" d="M 267 509 L 293 488 L 296 446 L 297 269 L 281 244"/>
<path style="--d:5s;" pathLength="3333" clip-path="url(#z36426c5)" d="M 326 367 L 337 383 L 373 390 L 404 387"/>
<path style="--d:6s;" pathLength="3333" clip-path="url(#z36426c6)" d="M 131 419 L 170 381 L 194 229 L 181 216"/>
<path style="--d:7s;" pathLength="3333" clip-path="url(#z36426c7)" d="M 88 174 L 143 160 L 336 233 L 400 265"/>
<path style="--d:8s;" pathLength="3333" clip-path="url(#z36426c8)" d="M 746 787 L 684 802 L 622 765 L 500 726"/>
<path style="--d:9s;" pathLength="3333" clip-path="url(#z36426c9)" d="M 450 690 L 501 649 L 518 610"/>
<path style="--d:10s;" pathLength="3333" clip-path="url(#z36426c10)" d="M 586 705 L 623 669 L 638 642"/>
<path style="--d:11s;" pathLength="3333" clip-path="url(#z36426c11)" d="M 794 743 L 809 708 L 694 614"/>
<path style="--d:12s;" pathLength="3333" clip-path="url(#z36426c12)" d="M 572 624 L 585 599 L 585 578 L 510 501 L 499 487 L 495 469 L 528 459 L 619 470"/>
<path style="--d:13s;" pathLength="3333" clip-path="url(#z36426c13)" d="M 709 572 L 720 534 L 668 481 L 533 374 L 525 344 L 550 339 L 732 377 L 746 378 L 753 371"/>
<path style="--d:14s;" pathLength="3333" clip-path="url(#z36426c14)" d="M 738 433 L 797 366 L 805 335"/>
<path style="--d:15s;" pathLength="3333" clip-path="url(#z36426c15)" d="M 396 204 L 441 197 L 550 217 L 838 254 L 911 238"/>
<path style="--d:16s;" pathLength="3333" clip-path="url(#z36426c16)" d="M 588 326 L 621 302 L 618 264 L 607 201 L 589 154 L 562 107 L 531 69 L 493 40 L 442 15 L 392 2"/>
<path style="--d:17s;" pathLength="3333" clip-path="url(#z36426c17)" d="M 642 204 L 655 198 L 801 37 L 864 18 L 936 8"/>
</svg>