<svg id="z38346" class="acjk" viewBox="0 0 1024 1024" xmlns="http://www.w3.org/2000/svg">
  <path id="z38346d1" d="M 235 733 Q 213 752 186 760 Q 176 761 170 753 Q 166 747 174 736 Q 219 633 201 339 Q 200 333 200 326 Q 196 235 166 145 Q 157 118 162 98 Q 172 62 184 49 Q 196 34 206 49 Q 240 91 241 331 Q 241 413 242 497 L 242 523 Q 242 566 244 599 L 245 627 Q 246 681 252 704 Q 252 708 252 710 C 253 720 253 720 235 733 Z"/>
  <path id="z38346d2" d="M 352 518 Q 353 514 360 506 Q 379 478 398 503 Q 407 516 413 566 Q 413 677 438 718 Q 448 734 435 747 Q 419 760 391 774 Q 376 778 363 772 Q 305 747 235 733 C 206 727 223 703 252 710 Q 259 711 321 729 Q 352 739 364 733 Q 373 729 372 699 Q 366 554 363 539 C 360 509 345 529 352 518 Z"/>
  <path id="z38346d3" d="M 244 599 Q 292 611 327 619 Q 346 623 338 634 Q 328 644 306 646 Q 264 646 245 627 C 223 607 215 592 244 599 Z"/>
  <path id="z38346d4" d="M 242 497 Q 303 510 352 518 C 382 523 384 523 363 539 Q 342 557 285 539 Q 263 532 242 523 C 214 511 213 491 242 497 Z"/>
  <path id="z38346d5" d="M 621 775 Q 602 791 581 799 Q 575 802 570 798 Q 563 794 570 784 Q 594 735 589 626 Q 586 563 616 546 Q 626 542 631 559 L 634 588 Q 634 621 632 653 L 632 679 Q 632 713 634 743 C 635 764 635 764 621 775 Z"/>
  <path id="z38346d6" d="M 802 573 Q 814 96 790 56 Q 784 49 764 54 Q 730 63 696 71 Q 674 77 676 67 Q 745 13 782 -25 Q 797 -44 813 -50 Q 823 -54 831 -43 Q 873 9 871 66 Q 856 294 853 663 Q 852 724 865 752 Q 878 773 865 783 Q 843 802 803 818 Q 781 827 736 802 Q 696 787 621 775 C 591 770 604 738 634 743 Q 665 747 756 770 Q 775 773 783 763 Q 798 750 798 701 Q 799 649 801 598 L 802 573 Z"/>
  <path id="z38346d7" d="M 632 653 Q 693 665 737 671 Q 756 675 749 686 Q 739 698 719 700 Q 691 703 632 679 C 604 668 603 647 632 653 Z"/>
  <path id="z38346d8" d="M 631 559 Q 638 558 649 560 Q 697 569 802 573 C 828 574 823 578 801 598 Q 797 602 790 607 Q 777 616 749 609 Q 685 596 634 588 C 604 583 601 561 631 559 Z"/>
  <path id="z38346d9" d="M 353 459 Q 383 417 402 414 Q 412 413 417 426 Q 418 436 411 451 Q 399 473 357 479 Q 350 480 349 472 Q 348 466 353 459 Z"/>
  <path id="z38346d10" d="M 311 372 Q 345 330 366 329 Q 376 329 380 342 Q 380 352 373 367 Q 360 385 313 392 Q 306 393 306 384 Q 305 378 311 372 Z"/>
  <path id="z38346d11" d="M 297 182 Q 290 181 291 169 Q 294 121 320 108 Q 324 104 331 105 Q 335 106 337 122 Q 337 132 389 270 Q 393 280 394 284 Q 393 291 387 287 Q 380 284 318 199 Q 311 190 297 182 Z"/>
  <path id="z38346d12" d="M 549 444 Q 616 468 642 473 Q 654 474 657 479 Q 660 486 651 495 Q 611 526 587 523 Q 581 520 581 513 Q 581 488 461 432 Q 457 426 461 424 Q 470 424 517 436 L 549 444 Z"/>
  <path id="z38346d13" d="M 566 354 Q 635 369 712 370 Q 725 371 728 378 Q 731 385 719 394 Q 679 421 628 401 Q 603 395 572 385 L 528 375 Q 477 365 419 352 Q 406 349 416 339 Q 426 330 439 327 L 528 346 L 566 354 Z"/>
  <path id="z38346d14" d="M 552 274 Q 559 316 566 354 L 572 385 Q 575 395 577 402 Q 580 409 582 414 Q 585 421 573 432 Q 560 441 549 444 C 521 454 505 459 517 436 Q 527 421 528 375 L 528 346 Q 527 309 524 267 C 522 237 547 244 552 274 Z"/>
  <path id="z38346d15" d="M 461 258 Q 451 261 433 263 Q 424 264 422 261 Q 418 257 425 245 Q 446 208 461 146 Q 464 127 476 116 Q 489 100 493 112 Q 494 119 494 132 L 489 160 Q 477 215 475 234 C 472 255 472 255 461 258 Z"/>
  <path id="z38346d16" d="M 646 177 Q 664 220 681 233 Q 702 254 683 268 Q 667 278 644 296 Q 628 306 610 298 Q 583 283 552 274 L 524 267 Q 494 263 461 258 C 431 254 446 226 475 234 Q 508 243 579 255 Q 607 261 615 250 Q 619 246 612 223 Q 606 205 600 184 C 592 155 634 149 646 177 Z"/>
  <path id="z38346d17" d="M 494 132 Q 500 131 509 133 Q 555 143 653 150 Q 663 151 664 158 Q 664 164 646 177 L 600 184 Q 599 185 597 184 Q 537 169 489 160 C 460 154 464 134 494 132 Z"/>
<defs>
  <clipPath id="z38346c1"><use href="#z38346d1"/></clipPath>
  <clipPath id="z38346c2"><use href="#z38346d2"/></clipPath>
  <clipPath id="z38346c3"><use href="#z38346d3"/></clipPath>
  <clipPath id="z38346c4"><use href="#z38346d4"/></clipPath>
  <clipPath id="z38346c5"><use href="#z38346d5"/></clipPath>
  <clipPath id="z38346c6"><use href="#z38346d6"/></clipPath>
  <clipPath id="z38346c7"><use href="#z38346d7"/></clipPath>
  <clipPath id="z38346c8"><use href="#z38346d8"/></clipPath>
  <clipPath id="z38346c9"><use href="#z38346d9"/></clipPath>
  <clipPath id="z38346c10"><use href="#z38346d10"/></clipPath>
  <clipPath id="z38346c11"><use href="#z38346d11"/></clipPath>
  <clipPath id="z38346c12"><use href="#z38346d12"/></clipPath>
  <clipPath id="z38346c13"><use href="#z38346d13"/></clipPath>
  <clipPath id="z38346c14"><use href="#z38346d14"/></clipPath>
  <clipPath id="z38346c15"><use href="#z38346d15"/></clipPath>
  <clipPath id="z38346c16"><use href="#z38346d16"/></clipPath>
  <clipPath id="z38346c17"><use href="#z38346d17"/></clipPath>
</defs>
<path style="--d:1s;" pathLength="3333" clip-path="url(#z38346c1)" d="M 180 748 L 197 735 L 219 700 L 224 593 L 221 293 L 193 109 L 195 53"/>
<path style="--d:2s;" pathLength="3333" clip-path="url(#z38346c2)" d="M 244 730 L 257 724 L 375 753 L 404 727 L 393 661 L 385 531 L 380 520 L 365 518"/>
<path style="--d:3s;" pathLength="3333" clip-path="url(#z38346c3)" d="M 251 606 L 260 619 L 282 627 L 330 628"/>
<path style="--d:4s;" pathLength="3333" clip-path="url(#z38346c4)" d="M 250 504 L 256 514 L 268 518 L 355 537"/>
<path style="--d:5s;" pathLength="3333" clip-path="url(#z38346c5)" d="M 576 791 L 602 761 L 609 738 L 610 616 L 619 558"/>
<path style="--d:6s;" pathLength="3333" clip-path="url(#z38346c6)" d="M 631 773 L 645 762 L 781 794 L 799 788 L 827 760 L 835 202 L 830 47 L 811 13 L 780 20 L 686 65"/>
<path style="--d:7s;" pathLength="3333" clip-path="url(#z38346c7)" d="M 640 660 L 646 671 L 664 676 L 722 685 L 740 681"/>
<path style="--d:8s;" pathLength="3333" clip-path="url(#z38346c8)" d="M 635 566 L 656 577 L 761 592 L 784 590 L 792 579"/>
<path style="--d:9s;" pathLength="3333" clip-path="url(#z38346c9)" d="M 359 468 L 378 457 L 403 429"/>
<path style="--d:10s;" pathLength="3333" clip-path="url(#z38346c10)" d="M 317 382 L 365 344"/>
<path style="--d:11s;" pathLength="3333" clip-path="url(#z38346c11)" d="M 327 112 L 320 130 L 319 163 L 364 242 L 380 258 L 380 270 L 389 282"/>
<path style="--d:12s;" pathLength="3333" clip-path="url(#z38346c12)" d="M 657 486.5 L 472 435"/>
<path style="--d:13s;" pathLength="3333" clip-path="url(#z38346c13)" d="M 427 343 L 444 342 L 656 388 L 720 381"/>
<path style="--d:14s;" pathLength="3333" clip-path="url(#z38346c14)" d="M 523 433 L 552 413 L 540 285 L 529 275"/>
<path style="--d:15s;" pathLength="3333" clip-path="url(#z38346c15)" d="M 428 257 L 449 241 L 456 227 L 485 116"/>
<path style="--d:16s;" pathLength="3333" clip-path="url(#z38346c16)" d="M 470 255 L 480 248 L 612 277 L 628 274 L 649 250 L 647 241 L 631 204 L 609 189"/>
<path style="--d:17s;" pathLength="3333" clip-path="url(#z38346c17)" d="M 497 154 L 507 148 L 593 165 L 655 158"/>
</svg>