<svg id="z37252" class="acjk" viewBox="0 0 1024 1024" xmlns="http://www.w3.org/2000/svg">
  <path id="z37252d1" d="M 347 661 Q 459 688 463 690 Q 470 697 467 705 Q 460 715 434 723 Q 406 729 379 718 Q 331 702 280 689 Q 223 676 156 670 Q 123 664 147 649 Q 172 633 207 635 L 248 641 Q 273 647 301 652 L 347 661 Z"/>
  <path id="z37252d2" d="M 162 487 Q 147 502 126 509 Q 117 513 106 509 Q 99 505 104 493 Q 123 430 122 292 Q 113 184 106 156 Q 93 102 126 61 Q 136 48 146 60 Q 158 76 158 94 L 161 129 Q 165 445 171 458 C 174 477 174 477 162 487 Z"/>
  <path id="z37252d3" d="M 366 116 Q 391 82 411 51 Q 418 35 429 36 Q 444 37 458 66 Q 474 100 472 142 Q 465 245 464 437 Q 463 465 477 486 Q 484 498 477 507 Q 459 523 412 545 Q 396 552 382 545 Q 363 538 345 529 L 313 518 L 269 506 L 232 499 Q 186 492 162 487 C 133 481 141 454 171 458 Q 201 462 231 468 L 267 476 Q 288 482 311 486 L 342 493 Q 352 497 363 498 Q 388 505 402 495 Q 427 470 414 231 Q 414 165 407 145 Q 403 130 387 135 C 361 123 361 123 366 116 Z"/>
  <path id="z37252d4" d="M 207 635 Q 226 616 232 499 L 231 468 Q 227 426 186 302 Q 186 295 193 297 Q 203 300 219 329 Q 265 401 267 476 L 269 506 Q 270 534 270 561 Q 267 594 270 611 Q 274 621 268 630 Q 259 637 248 641 C 221 653 191 660 207 635 Z"/>
  <path id="z37252d5" d="M 345 529 Q 351 578 366 634 Q 370 647 362 654 Q 356 658 347 661 C 319 673 286 678 301 652 Q 302 651 304 648 Q 316 633 313 518 L 311 486 Q 310 464 308 438 Q 301 350 340 319 Q 346 312 376 313 Q 403 313 412 325 Q 419 334 414 340 Q 411 344 373 350 Q 330 359 342 493 L 345 529 Z"/>
  <path id="z37252d6" d="M 198 229 Q 182 225 202 211 Q 209 207 224 209 Q 296 224 348 232 Q 370 236 361 249 Q 351 262 327 265 Q 309 266 198 229 Z"/>
  <path id="z37252d7" d="M 158 94 Q 164 94 171 95 Q 232 108 366 116 C 396 118 404 118 387 135 Q 381 142 362 156 Q 346 166 315 158 Q 230 139 161 129 C 131 125 128 93 158 94 Z"/>
  <path id="z37252d8" d="M 584 586 Q 636 665 652 694 Q 665 722 678 736 Q 685 746 680 758 Q 674 768 647 787 Q 622 800 604 799 Q 588 795 597 776 Q 627 728 507 528 Q 500 518 498 513 Q 495 503 508 506 Q 523 510 567 563 L 584 586 Z"/>
  <path id="z37252d9" d="M 567 563 Q 597 559 744 581 Q 759 590 816 589 Q 823 589 826 584 Q 847 554 847 336 Q 844 174 803 80 Q 788 43 763 34 Q 753 31 693 50 Q 683 54 683 48 Q 682 44 693 34 Q 732 -8 749 -39 Q 758 -58 770 -57 Q 792 -53 814 -27 Q 848 6 868 59 Q 904 155 904 437 Q 900 540 922 571 Q 935 584 933 594 Q 932 601 912 614 Q 884 633 848 643 Q 821 650 804 640 Q 785 633 739 621 Q 675 603 629 595 Q 604 591 584 586 C 555 580 537 563 567 563 Z"/>
  <path id="z37252d10" d="M 580 455 Q 581 459 585 461 Q 595 477 611 490 Q 624 502 612 512 Q 599 522 577 527 Q 556 531 548 526 Q 539 522 545 514 Q 554 496 499 371 Q 495 358 507 363 Q 541 400 558 425 Q 559 429 564 433 L 580 455 Z"/>
  <path id="z37252d11" d="M 643 430 Q 688 442 737 452 Q 759 458 764 461 Q 771 468 767 475 Q 760 484 737 489 Q 712 493 689 483 Q 664 473 634 466 Q 609 460 580 455 C 550 450 536 443 564 433 Q 588 424 612 425 L 643 430 Z"/>
  <path id="z37252d12" d="M 670 321 Q 697 330 799 345 Q 808 344 814 355 Q 815 364 796 372 Q 772 390 687 360 Q 680 359 672 356 L 624 343 Q 591 337 561 331 Q 527 327 490 319 Q 468 315 486 302 Q 510 284 546 292 Q 579 301 623 310 L 670 321 Z"/>
  <path id="z37252d13" d="M 660 195 Q 664 264 670 321 L 672 356 Q 672 359 673 360 Q 676 399 674 404 Q 658 420 643 430 C 619 447 600 453 612 425 Q 624 401 624 343 L 623 310 Q 622 264 622 184 C 622 154 658 165 660 195 Z"/>
  <path id="z37252d14" d="M 741 215 Q 695 208 660 195 L 622 184 Q 583 174 552 161 Q 542 160 545 171 Q 554 220 549 229 Q 539 242 522 253 Q 515 257 507 257 Q 498 254 503 240 Q 525 177 492 147 Q 479 134 485 124 Q 494 114 506 106 Q 516 102 523 107 Q 538 128 672 172 Q 718 187 736 186 C 766 188 771 220 741 215 Z"/>
  <path id="z37252d15" d="M 736 186 Q 730 143 746 119 Q 753 110 761 118 Q 768 127 781 184 Q 781 208 792 249 Q 799 265 783 277 Q 771 286 758 294 Q 748 298 741 294 Q 734 290 736 277 Q 740 267 741 215 L 736 186 Z"/>
<defs>
  <clipPath id="z37252c1"><use href="#z37252d1"/></clipPath>
  <clipPath id="z37252c2"><use href="#z37252d2"/></clipPath>
  <clipPath id="z37252c3"><use href="#z37252d3"/></clipPath>
  <clipPath id="z37252c4"><use href="#z37252d4"/></clipPath>
  <clipPath id="z37252c5"><use href="#z37252d5"/></clipPath>
  <clipPath id="z37252c6"><use href="#z37252d6"/></clipPath>
  <clipPath id="z37252c7"><use href="#z37252d7"/></clipPath>
  <clipPath id="z37252c8"><use href="#z37252d8"/></clipPath>
  <clipPath id="z37252c9"><use href="#z37252d9"/></clipPath>
  <clipPath id="z37252c10"><use href="#z37252d10"/></clipPath>
  <clipPath id="z37252c11"><use href="#z37252d11"/></clipPath>
  <clipPath id="z37252c12"><use href="#z37252d12"/></clipPath>
  <clipPath id="z37252c13"><use href="#z37252d13"/></clipPath>
  <clipPath id="z37252c14"><use href="#z37252d14"/></clipPath>
  <clipPath id="z37252c15"><use href="#z37252d15"/></clipPath>
</defs>
<path style="--d:1s;" pathLength="3333" clip-path="url(#z37252c1)" d="M 149 661 L 172 654 L 225 657 L 413 702 L 458 699"/>
<path style="--d:2s;" pathLength="3333" clip-path="url(#z37252c2)" d="M 113 500 L 133 480 L 142 448 L 144 296 L 131 132 L 136 65"/>
<path style="--d:3s;" pathLength="3333" clip-path="url(#z37252c3)" d="M 169 481 L 182 476 L 234 483 L 399 524 L 425 509 L 441 491 L 439 134 L 427 103 L 377 114"/>
<path style="--d:4s;" pathLength="3333" clip-path="url(#z37252c4)" d="M 214 636 L 244 614 L 250 469 L 235 400 L 214 342 L 193 305"/>
<path style="--d:5s;" pathLength="3333" clip-path="url(#z37252c5)" d="M 312 649 L 338 631 L 322 427 L 328 376 L 343 344 L 356 334 L 407 333"/>
<path style="--d:6s;" pathLength="3333" clip-path="url(#z37252c6)" d="M 200 220 L 321 246 L 352 242"/>
<path style="--d:7s;" pathLength="3333" clip-path="url(#z37252c7)" d="M 164 99 L 177 114 L 214 121 L 328 138 L 379 133"/>
<path style="--d:8s;" pathLength="3333" clip-path="url(#z37252c8)" d="M 607 786 L 629 767 L 640 747 L 629 714 L 575 605 L 549 564 L 505 513"/>
<path style="--d:9s;" pathLength="3333" clip-path="url(#z37252c9)" d="M 577 568 L 588 575 L 686 588 L 820 617 L 846 610 L 876 583 L 871 245 L 854 130 L 834 64 L 815 30 L 778 -5 L 688 47"/>
<path style="--d:10s;" pathLength="3333" clip-path="url(#z37252c10)" d="M 605 501 L 574 494 L 531 410 L 516 386 L 507 382 L 509 373"/>
<path style="--d:11s;" pathLength="3333" clip-path="url(#z37252c11)" d="M 572 436 L 720 470 L 757 470"/>
<path style="--d:12s;" pathLength="3333" clip-path="url(#z37252c12)" d="M 487 311 L 535 308 L 725 353 L 770 360 L 805 356"/>
<path style="--d:13s;" pathLength="3333" clip-path="url(#z37252c13)" d="M 620 423 L 644 401 L 649 371 L 643 222 L 637 203 L 626 194"/>
<path style="--d:14s;" pathLength="3333" clip-path="url(#z37252c14)" d="M 512 247 L 530 220 L 531 185 L 526 174 L 528 146 L 533 144 L 548 143 L 644 178 L 725 199 L 734 209"/>
<path style="--d:15s;" pathLength="3333" clip-path="url(#z37252c15)" d="M 748 284 L 766 256 L 754 125"/>
</svg>