<svg id="z36401" class="acjk" viewBox="0 0 1024 1024" xmlns="http://www.w3.org/2000/svg">
  <path id="z36401d1" d="M 175 670 Q 165 676 138 681 Q 126 684 123 679 Q 116 673 124 658 Q 149 604 163 516 Q 166 489 181 471 Q 197 450 203 465 Q 207 477 206 494 L 203 523 Q 190 619 189 644 C 188 664 188 664 175 670 Z"/>
  <path id="z36401d2" d="M 345 548 Q 361 624 385 648 Q 407 673 384 687 Q 365 697 338 715 Q 320 725 279 702 Q 228 681 175 670 C 146 664 161 633 189 644 Q 192 648 277 665 Q 302 671 308 661 Q 315 655 309 621 Q 302 588 295 550 C 290 521 339 519 345 548 Z"/>
  <path id="z36401d3" d="M 264 505 Q 298 514 355 521 Q 364 522 365 530 Q 365 537 345 548 C 325 559 324 559 295 550 Q 243 534 203 523 C 174 515 176 492 206 494 Q 212 494 221 496 Q 222 497 226 497 L 264 505 Z"/>
  <path id="z36401d4" d="M 285 220 Q 286 281 290 335 L 291 369 Q 294 477 295 478 Q 279 496 264 505 C 239 522 213 524 226 497 Q 241 467 241 444 Q 242 419 243 204 C 243 174 284 190 285 220 Z"/>
  <path id="z36401d5" d="M 290 335 L 378 354 Q 400 361 390 373 Q 377 386 352 386 Q 328 386 291 369 C 264 357 261 329 290 335 Z"/>
  <path id="z36401d6" d="M 176 181 Q 167 284 172 322 Q 173 341 161 352 Q 140 367 116 374 Q 104 378 96 373 Q 90 367 96 354 Q 112 327 120 298 Q 127 271 140 169 C 144 139 179 151 176 181 Z"/>
  <path id="z36401d7" d="M 140 169 Q 62 151 59 151 Q 46 150 45 138 Q 44 125 53 118 Q 77 103 111 86 Q 121 83 132 93 Q 156 114 313 199 Q 334 209 349 223 Q 362 230 362 240 Q 356 246 344 242 Q 316 232 285 220 L 243 204 Q 209 194 176 181 L 140 169 Z"/>
  <path id="z36401d8" d="M 611 807 Q 632 788 653 764 Q 666 751 684 750 Q 694 751 701 765 Q 705 780 697 811 Q 693 829 665 841 Q 598 865 584 859 Q 578 855 580 842 Q 584 830 611 807 Z"/>
  <path id="z36401d9" d="M 508 635 Q 545 629 674 656 Q 816 686 827 694 Q 834 701 831 709 Q 824 719 798 727 Q 779 730 685 702 Q 559 674 496 666 Q 493 666 493 665 C 464 659 478 638 508 635 Z"/>
  <path id="z36401d10" d="M 488 478 Q 488 595 508 635 C 514 651 514 651 493 665 Q 453 696 430 688 Q 418 681 425 668 Q 443 644 443 582 Q 443 398 392 243 Q 362 156 274 10 Q 270 3 267 -3 Q 266 -13 275 -11 Q 309 -4 388 126 Q 400 151 413 178 Q 468 308 488 474 L 488 478 Z"/>
  <path id="z36401d11" d="M 743 494 Q 783 500 837 502 Q 879 502 884 511 Q 888 520 875 529 Q 830 559 772 539 Q 763 538 753 533 L 702 522 Q 654 515 620 505 L 579 497 Q 489 482 488 478 C 485 477 485 477 488 474 Q 488 473 493 467 Q 503 457 518 454 Q 534 451 546 455 Q 562 461 584 466 L 620 475 Q 671 487 698 489 L 743 494 Z"/>
  <path id="z36401d12" d="M 620 505 Q 621 536 623 547 Q 627 562 619 569 Q 607 579 586 586 Q 570 590 555 583 Q 546 577 557 566 Q 569 554 579 497 L 584 466 Q 584 459 586 448 Q 592 367 599 352 Q 603 345 611 350 Q 615 354 617 367 Q 617 371 618 376 L 620 404 Q 620 440 620 475 L 620 505 Z"/>
  <path id="z36401d13" d="M 723 419 Q 733 458 743 494 L 753 533 Q 753 537 776 595 Q 780 604 766 618 Q 741 637 722 644 Q 709 648 702 643 Q 695 639 699 625 Q 709 606 709 592 Q 706 558 702 522 L 698 489 Q 694 458 688 422 C 683 392 716 390 723 419 Z"/>
  <path id="z36401d14" d="M 618 376 Q 628 376 690 381 Q 715 382 741 385 Q 751 386 753 392 Q 753 401 736 413 Q 730 417 723 419 L 688 422 Q 687 422 686 422 Q 655 410 620 404 C 590 399 588 375 618 376 Z"/>
  <path id="z36401d15" d="M 682 131 Q 715 176 745 242 Q 758 270 777 287 Q 796 302 783 316 Q 771 328 740 339 Q 718 346 691 334 Q 666 322 631 311 Q 597 299 538 290 Q 525 289 520 281 Q 516 274 535 267 Q 572 254 619 271 Q 665 292 674 292 Q 693 291 689 269 Q 673 208 645 163 L 622 133 Q 562 67 441 36 Q 426 32 438 23 Q 444 19 483 21 Q 576 30 652 97 L 682 131 Z"/>
  <path id="z36401d16" d="M 652 97 Q 653 96 655 93 Q 754 -22 803 -24 Q 872 -25 931 -18 Q 962 -14 960 -6 Q 959 0 810 52 Q 750 76 682 131 L 645 163 Q 626 182 605 204 Q 572 240 541 240 Q 525 241 522 236 Q 521 230 534 220 Q 559 205 622 133 L 652 97 Z"/>
<defs>
  <clipPath id="z36401c1"><use href="#z36401d1"/></clipPath>
  <clipPath id="z36401c2"><use href="#z36401d2"/></clipPath>
  <clipPath id="z36401c3"><use href="#z36401d3"/></clipPath>
  <clipPath id="z36401c4"><use href="#z36401d4"/></clipPath>
  <clipPath id="z36401c5"><use href="#z36401d5"/></clipPath>
  <clipPath id="z36401c6"><use href="#z36401d6"/></clipPath>
  <clipPath id="z36401c7"><use href="#z36401d7"/></clipPath>
  <clipPath id="z36401c8"><use href="#z36401d8"/></clipPath>
  <clipPath id="z36401c9"><use href="#z36401d9"/></clipPath>
  <clipPath id="z36401c10"><use href="#z36401d10"/></clipPath>
  <clipPath id="z36401c11"><use href="#z36401d11"/></clipPath>
  <clipPath id="z36401c12"><use href="#z36401d12"/></clipPath>
  <clipPath id="z36401c13"><use href="#z36401d13"/></clipPath>
  <clipPath id="z36401c14"><use href="#z36401d14"/></clipPath>
  <clipPath id="z36401c15"><use href="#z36401d15"/></clipPath>
  <clipPath id="z36401c16"><use href="#z36401d16"/></clipPath>
</defs>
<path style="--d:1s;" pathLength="3333" clip-path="url(#z36401c1)" d="M 132 671 L 156 649 L 164 630 L 193 471"/>
<path style="--d:2s;" pathLength="3333" clip-path="url(#z36401c2)" d="M 187 651 L 195 661 L 297 689 L 328 685 L 348 664 L 346 653 L 325 574 L 302 557"/>
<path style="--d:3s;" pathLength="3333" clip-path="url(#z36401c3)" d="M 213 502 L 220 512 L 275 527 L 338 534 L 356 530"/>
<path style="--d:4s;" pathLength="3333" clip-path="url(#z36401c4)" d="M 234 492 L 259 479 L 267 464 L 264 235 L 246 217"/>
<path style="--d:5s;" pathLength="3333" clip-path="url(#z36401c5)" d="M 296 340 L 309 356 L 336 365 L 381 366"/>
<path style="--d:6s;" pathLength="3333" clip-path="url(#z36401c6)" d="M 103 366 L 142 327 L 156 195 L 143 180"/>
<path style="--d:7s;" pathLength="3333" clip-path="url(#z36401c7)" d="M 58 138 L 68 132 L 118 127 L 356 237"/>
<path style="--d:8s;" pathLength="3333" clip-path="url(#z36401c8)" d="M 589 852 L 658 808 L 681 768"/>
<path style="--d:9s;" pathLength="3333" clip-path="url(#z36401c9)" d="M 496 660 L 519 651 L 551 655 L 659 673 L 782 704 L 820 704"/>
<path style="--d:10s;" pathLength="3333" clip-path="url(#z36401c10)" d="M 435 676 L 459 658 L 472 631 L 463 469 L 440 330 L 401 205 L 365 126 L 305 31 L 275 -3"/>
<path style="--d:11s;" pathLength="3333" clip-path="url(#z36401c11)" d="M 491 476 L 537 471 L 567 482 L 800 523 L 836 524 L 876 515"/>
<path style="--d:12s;" pathLength="3333" clip-path="url(#z36401c12)" d="M 561 575 L 577 570 L 595 551 L 606 357"/>
<path style="--d:13s;" pathLength="3333" clip-path="url(#z36401c13)" d="M 710 633 L 742 595 L 712 447 L 694 428"/>
<path style="--d:14s;" pathLength="3333" clip-path="url(#z36401c14)" d="M 621 383 L 634 392 L 692 402 L 744 394"/>
<path style="--d:15s;" pathLength="3333" clip-path="url(#z36401c15)" d="M 528 279 L 593 281 L 682 310 L 708 308 L 729 297 L 715 246 L 681 174 L 620 98 L 531 47 L 444 29"/>
<path style="--d:16s;" pathLength="3333" clip-path="url(#z36401c16)" d="M 527 234 L 565 217 L 680 99 L 779 24 L 804 14 L 956 -9"/>
</svg>