<svg id="z36506" class="acjk" viewBox="0 0 1024 1024" xmlns="http://www.w3.org/2000/svg">
  <path id="z36506d1" d="M 153 696 Q 141 700 118 704 Q 108 707 104 702 Q 100 698 107 682 Q 132 630 148 545 Q 151 520 165 502 Q 181 483 186 497 Q 190 509 189 527 L 185 555 Q 169 645 167 670 C 165 693 165 693 153 696 Z"/>
  <path id="z36506d2" d="M 327 582 Q 343 655 364 679 Q 385 703 362 716 Q 344 726 318 742 Q 300 752 258 727 Q 203 706 153 696 C 124 690 138 663 167 670 Q 173 671 181 674 Q 224 686 260 694 Q 284 700 290 690 Q 297 684 292 652 Q 286 621 280 586 C 275 556 320 553 327 582 Z"/>
  <path id="z36506d3" d="M 250 540 Q 284 549 336 557 Q 345 558 345 566 Q 345 573 327 582 C 304 594 304 594 280 586 Q 278 585 277 585 Q 225 566 185 555 C 156 547 159 528 189 527 Q 196 526 205 529 Q 206 530 210 530 L 250 540 Z"/>
  <path id="z36506d4" d="M 260 264 Q 261 348 265 416 L 266 446 Q 266 473 270 500 Q 277 522 251 539 L 250 540 C 226 558 204 559 210 530 Q 217 502 221 414 Q 221 356 221 250 C 221 220 260 234 260 264 Z"/>
  <path id="z36506d5" d="M 265 416 Q 311 428 347 435 Q 366 439 358 450 Q 348 460 326 463 Q 301 463 266 446 C 239 433 236 408 265 416 Z"/>
  <path id="z36506d6" d="M 161 230 Q 152 335 156 366 Q 157 385 145 396 Q 124 411 100 418 Q 88 422 80 416 Q 74 412 80 398 Q 96 373 104 347 Q 110 322 125 218 C 129 188 164 200 161 230 Z"/>
  <path id="z36506d7" d="M 125 218 Q 47 202 44 200 Q 32 199 31 190 Q 30 178 38 171 Q 59 158 87 143 Q 97 140 106 148 Q 223 211 342 276 Q 352 283 353 291 Q 349 295 337 293 Q 300 280 260 264 L 221 250 Q 190 241 161 230 L 125 218 Z"/>
  <path id="z36506d8" d="M 702 746 Q 721 752 747 757 Q 786 767 792 773 Q 799 780 795 787 Q 788 796 765 801 Q 741 805 644 770 Q 572 751 510 742 Q 480 736 502 724 Q 526 711 551 713 L 585 717 Q 624 727 666 737 L 702 746 Z"/>
  <path id="z36506d9" d="M 513 618 Q 503 622 480 622 Q 470 623 468 619 Q 464 613 472 602 Q 493 572 511 520 Q 515 505 526 496 Q 542 480 545 493 Q 546 497 546 503 L 543 525 Q 534 568 528 588 C 520 616 520 616 513 618 Z"/>
  <path id="z36506d10" d="M 773 551 Q 774 550 775 547 Q 778 537 786 537 Q 801 540 822 580 Q 832 617 858 640 Q 871 652 859 663 Q 846 675 809 693 Q 796 700 783 694 Q 758 685 726 677 Q 723 677 722 676 L 682 666 Q 645 659 613 647 L 576 635 Q 539 625 513 618 C 484 610 500 576 528 588 Q 532 589 536 591 Q 554 600 581 608 L 616 619 Q 644 629 683 638 L 719 647 Q 779 663 795 657 Q 799 654 796 639 Q 783 590 778 574 C 772 553 772 553 773 551 Z"/>
  <path id="z36506d11" d="M 551 713 Q 563 691 576 635 L 581 608 Q 585 580 593 538 C 599 509 627 517 624 547 Q 620 586 616 619 L 613 647 Q 612 660 611 671 Q 610 680 609 686 Q 612 699 604 706 Q 595 713 585 717 C 558 729 538 738 551 713 Z"/>
  <path id="z36506d12" d="M 722 676 Q 722 680 723 682 Q 726 700 732 720 Q 735 727 722 737 Q 712 743 702 746 C 674 756 650 762 666 737 Q 667 736 668 734 Q 677 721 682 666 L 683 638 Q 683 604 683 564 C 683 534 710 542 712 572 Q 715 611 719 647 L 722 676 Z"/>
  <path id="z36506d13" d="M 634 520 Q 707 542 773 551 C 803 555 805 561 778 574 Q 771 578 761 580 Q 742 581 712 572 L 683 564 Q 652 557 624 547 L 593 538 Q 566 534 543 525 C 515 515 516 500 546 503 Q 552 503 598 512 L 634 520 Z"/>
  <path id="z36506d14" d="M 616 417 Q 736 450 833 470 Q 854 474 845 485 Q 835 498 813 501 Q 791 502 638 457 L 585 443 Q 540 431 498 420 Q 483 416 502 403 Q 514 397 567 404 L 616 417 Z"/>
  <path id="z36506d15" d="M 567 404 Q 537 347 456 261 Q 450 257 458 255 Q 528 276 616 417 L 638 457 Q 639 463 656 487 Q 660 491 659 499 Q 658 506 648 513 Q 642 517 634 520 C 607 532 597 537 598 512 Q 601 490 585 443 L 567 404 Z"/>
  <path id="z36506d16" d="M 715 393 Q 773 369 848 330 Q 864 320 875 320 Q 881 321 884 330 Q 888 343 870 369 Q 846 406 709 415 Q 702 416 703 407 Q 706 397 715 393 Z"/>
  <path id="z36506d17" d="M 615 290 Q 615 291 619 293 Q 686 326 706 319 Q 710 318 711 310 Q 712 292 710 259 Q 709 240 690 243 Q 668 244 651 247 Q 641 248 643 242 Q 644 235 664 222 Q 688 203 702 180 Q 706 176 712 177 Q 716 178 725 191 Q 738 209 742 231 Q 751 304 762 314 Q 769 321 764 329 Q 757 336 730 351 Q 720 355 618 322 Q 609 321 605 317 C 578 304 589 274 615 290 Z"/>
  <path id="z36506d18" d="M 605 317 Q 595 324 581 328 Q 572 331 566 326 Q 562 323 566 311 Q 578 283 578 256 Q 579 147 610 121 Q 676 76 781 107 Q 782 108 785 108 Q 810 118 833 139 Q 846 151 835 170 Q 825 185 807 231 Q 806 243 800 245 Q 796 248 794 234 Q 778 182 766 165 Q 760 155 739 149 Q 691 134 646 150 Q 628 157 623 169 Q 605 194 615 290 C 617 310 617 310 605 317 Z"/>
  <path id="z36506d19" d="M 384 577 Q 397 559 410 538 Q 420 525 434 524 Q 443 523 449 533 Q 456 545 452 572 Q 451 585 430 599 Q 379 626 368 623 Q 364 620 363 609 Q 364 599 384 577 Z"/>
  <path id="z36506d20" d="M 418 157 Q 436 170 445 189 Q 454 211 449 230 Q 445 245 422 269 Q 404 290 435 337 Q 453 356 466 368 Q 484 383 469 396 Q 453 409 425 422 Q 407 432 376 406 Q 324 378 312 378 Q 306 378 305 374 Q 304 370 310 367 Q 340 354 386 376 Q 392 379 398 373 Q 411 357 396 338 Q 383 325 375 304 Q 371 288 384 266 Q 423 203 400 160 Q 399 160 399 159 C 386 132 395 138 418 157 Z"/>
  <path id="z36506d21" d="M 399 159 Q 332 155 263 149 Q 250 149 251 138 Q 254 128 290 106 Q 308 97 335 114 Q 368 147 436 120 Q 572 69 664 19 Q 775 -44 830 -35 Q 902 -17 967 13 Q 980 20 992 26 Q 998 29 996 34 Q 995 38 981 39 Q 701 39 475 139 Q 445 151 418 157 L 399 159 Z"/>
<defs>
  <clipPath id="z36506c1"><use href="#z36506d1"/></clipPath>
  <clipPath id="z36506c2"><use href="#z36506d2"/></clipPath>
  <clipPath id="z36506c3"><use href="#z36506d3"/></clipPath>
  <clipPath id="z36506c4"><use href="#z36506d4"/></clipPath>
  <clipPath id="z36506c5"><use href="#z36506d5"/></clipPath>
  <clipPath id="z36506c6"><use href="#z36506d6"/></clipPath>
  <clipPath id="z36506c7"><use href="#z36506d7"/></clipPath>
  <clipPath id="z36506c8"><use href="#z36506d8"/></clipPath>
  <clipPath id="z36506c9"><use href="#z36506d9"/></clipPath>
  <clipPath id="z36506c10"><use href="#z36506d10"/></clipPath>
  <clipPath id="z36506c11"><use href="#z36506d11"/></clipPath>
  <clipPath id="z36506c12"><use href="#z36506d12"/></clipPath>
  <clipPath id="z36506c13"><use href="#z36506d13"/></clipPath>
  <clipPath id="z36506c14"><use href="#z36506d14"/></clipPath>
  <clipPath id="z36506c15"><use href="#z36506d15"/></clipPath>
  <clipPath id="z36506c16"><use href="#z36506d16"/></clipPath>
  <clipPath id="z36506c17"><use href="#z36506d17"/></clipPath>
  <clipPath id="z36506c18"><use href="#z36506d18"/></clipPath>
  <clipPath id="z36506c19"><use href="#z36506d19"/></clipPath>
  <clipPath id="z36506c20"><use href="#z36506d20"/></clipPath>
  <clipPath id="z36506c21"><use href="#z36506d21"/></clipPath>
</defs>
<path style="--d:1s;" pathLength="3333" clip-path="url(#z36506c1)" d="M 112 697 L 142 664 L 176 502"/>
<path style="--d:2s;" pathLength="3333" clip-path="url(#z36506c2)" d="M 161 692 L 185 688 L 276 717 L 309 713 L 329 693 L 308 607 L 288 592"/>
<path style="--d:3s;" pathLength="3333" clip-path="url(#z36506c3)" d="M 193 535 L 207 546 L 285 567 L 336 566"/>
<path style="--d:4s;" pathLength="3333" clip-path="url(#z36506c4)" d="M 218 528 L 242 508 L 241 289 L 236 270 L 225 259"/>
<path style="--d:5s;" pathLength="3333" clip-path="url(#z36506c5)" d="M 271 423 L 281 437 L 309 445 L 350 444"/>
<path style="--d:6s;" pathLength="3333" clip-path="url(#z36506c6)" d="M 88 408 L 127 371 L 141 244 L 128 230"/>
<path style="--d:7s;" pathLength="3333" clip-path="url(#z36506c7)" d="M 43 188 L 92 178 L 348 288"/>
<path style="--d:8s;" pathLength="3333" clip-path="url(#z36506c8)" d="M 503 734 L 524 729 L 587 736 L 746 779 L 785 782"/>
<path style="--d:9s;" pathLength="3333" clip-path="url(#z36506c9)" d="M 476 614 L 502 594 L 536 497"/>
<path style="--d:10s;" pathLength="3333" clip-path="url(#z36506c10)" d="M 520 615 L 536 608 L 663 649 L 797 677 L 809 672 L 827 650 L 786 548"/>
<path style="--d:11s;" pathLength="3333" clip-path="url(#z36506c11)" d="M 557 711 L 586 690 L 605 565 L 605 556 L 596 547"/>
<path style="--d:12s;" pathLength="3333" clip-path="url(#z36506c12)" d="M 675 733 L 700 719 L 703 706 L 698 584 L 689 572"/>
<path style="--d:13s;" pathLength="3333" clip-path="url(#z36506c13)" d="M 548 509 L 564 519 L 771 569"/>
<path style="--d:14s;" pathLength="3333" clip-path="url(#z36506c14)" d="M 500 411 L 556 417 L 801 482 L 837 479"/>
<path style="--d:15s;" pathLength="3333" clip-path="url(#z36506c15)" d="M 605 507 L 625 490 L 585 399 L 523 315 L 487 279 L 463 267 L 462 260"/>
<path style="--d:16s;" pathLength="3333" clip-path="url(#z36506c16)" d="M 712 406 L 832 367 L 857 351 L 871 332"/>
<path style="--d:17s;" pathLength="3333" clip-path="url(#z36506c17)" d="M 613 297 L 633 317 L 645 316 L 655 324 L 692 333 L 718 333 L 735 319 L 726 245 L 709 218 L 650 240"/>
<path style="--d:18s;" pathLength="3333" clip-path="url(#z36506c18)" d="M 575 319 L 590 304 L 596 280 L 594 223 L 602 172 L 617 143 L 638 129 L 702 118 L 748 124 L 776 135 L 802 158 L 802 237"/>
<path style="--d:19s;" pathLength="3333" clip-path="url(#z36506c19)" d="M 371 614 L 424 568 L 435 539"/>
<path style="--d:20s;" pathLength="3333" clip-path="url(#z36506c20)" d="M 310 373 L 343 374 L 408 397 L 431 381 L 395 297 L 403 265 L 428 221 L 423 181 L 414 167 L 406 165"/>
<path style="--d:21s;" pathLength="3333" clip-path="url(#z36506c21)" d="M 260 140 L 306 128 L 362 144 L 421 142 L 688 38 L 797 8 L 898 14 L 987 33"/>
</svg>