<svg id="z30307" class="acjk" viewBox="0 0 1024 1024" xmlns="http://www.w3.org/2000/svg">
  <path id="z30307d1" d="M 521 797 Q 552 778 586 755 Q 602 745 616 748 Q 626 751 629 764 Q 630 779 618 805 Q 603 833 508 842 Q 493 843 487 839 Q 483 835 487 822 Q 491 812 521 797 Z"/>
  <path id="z30307d2" d="M 333 651 Q 360 642 396 647 Q 795 698 819 709 Q 819 710 821 710 Q 830 717 826 725 Q 820 737 794 745 Q 767 752 739 745 Q 532 688 319 685 Q 318 685 318 684 C 288 682 304 658 333 651 Z"/>
  <path id="z30307d3" d="M 245 359 Q 214 206 106 26 Q 102 20 99 14 Q 98 4 108 6 Q 135 12 209 125 Q 227 158 244 196 Q 311 364 324 609 Q 325 645 333 651 C 339 669 339 669 318 684 Q 276 717 252 708 Q 240 701 247 687 Q 266 660 267 601 Q 266 585 266 565 Q 263 433 251 393 L 245 359 Z"/>
  <path id="z30307d4" d="M 149 525 Q 167 503 186 477 Q 196 464 210 463 Q 219 462 225 473 Q 231 485 227 512 Q 226 528 202 544 Q 142 574 132 571 Q 128 568 127 557 Q 128 547 149 525 Z"/>
  <path id="z30307d5" d="M 251 393 Q 79 309 57 307 Q 45 303 45 294 Q 46 281 56 276 Q 78 266 111 254 Q 121 253 130 263 Q 157 297 245 359 C 269 376 278 406 251 393 Z"/>
  <path id="z30307d6" d="M 439 559 Q 445 568 470 598 Q 477 607 474 614 Q 471 623 452 626 Q 433 630 424 627 Q 418 626 418 616 Q 411 565 326 477 Q 313 465 331 470 Q 365 473 423 539 L 439 559 Z"/>
  <path id="z30307d7" d="M 493 451 Q 559 533 584 551 Q 597 558 588 568 Q 578 577 550 591 Q 546 592 473 570 Q 470 570 439 559 C 411 549 393 537 423 539 Q 442 539 504 552 Q 513 553 515 552 Q 518 549 514 541 Q 486 475 466 445 C 450 420 474 428 493 451 Z"/>
  <path id="z30307d8" d="M 351 420 Q 347 421 337 424 Q 327 427 324 423 Q 320 419 325 406 Q 349 351 360 262 Q 361 237 375 218 Q 388 200 393 212 Q 396 221 397 232 L 397 250 Q 382 358 379 397 C 378 413 378 413 351 420 Z"/>
  <path id="z30307d9" d="M 529 249 Q 542 233 554 227 Q 561 221 573 238 Q 583 259 602 367 Q 608 391 625 411 Q 635 421 626 432 Q 613 444 579 463 Q 564 469 508 455 Q 499 454 493 451 L 466 445 Q 355 424 351 420 C 322 411 351 386 379 397 Q 392 404 443 413 L 469 418 Q 538 436 551 424 Q 561 414 560 401 Q 547 287 534 274 C 524 254 524 254 529 249 Z"/>
  <path id="z30307d10" d="M 490 330 Q 509 334 526 337 Q 544 341 537 350 Q 522 368 491 363 L 453 354 Q 426 345 405 338 Q 392 334 408 323 Q 411 322 454 325 L 490 330 Z"/>
  <path id="z30307d11" d="M 487 273 Q 488 304 490 330 L 491 363 Q 491 367 492 370 Q 492 400 491 400 Q 479 412 469 418 C 444 434 435 440 443 413 Q 444 407 448 403 Q 449 397 453 354 L 454 325 Q 455 301 457 265 C 459 235 486 243 487 273 Z"/>
  <path id="z30307d12" d="M 397 232 Q 401 231 411 232 Q 475 242 529 249 C 559 253 561 261 534 274 Q 533 275 527 277 Q 512 280 487 273 L 457 265 Q 424 258 397 250 C 368 242 367 235 397 232 Z"/>
  <path id="z30307d13" d="M 289 118 Q 277 117 275 108 Q 274 95 282 88 Q 304 75 333 57 Q 343 54 354 62 Q 382 86 513 148 Q 532 157 545 168 Q 557 175 557 183 Q 553 187 541 186 Q 330 117 289 118 Z"/>
  <path id="z30307d14" d="M 641 571 Q 683 522 696 519 Q 705 519 709 529 Q 713 539 710 563 Q 707 578 686 590 Q 638 614 624 610 Q 620 609 620 598 Q 621 589 641 571 Z"/>
  <path id="z30307d15" d="M 788 621 Q 776 588 749 535 Q 745 528 751 523 Q 758 523 763 528 Q 823 592 853 618 Q 866 625 861 633 Q 854 646 834 657 Q 815 669 796 666 Q 783 663 788 647 Q 792 637 788 621 Z"/>
  <path id="z30307d16" d="M 737 446 Q 864 473 871 478 Q 878 485 875 493 Q 868 503 842 510 Q 814 516 787 504 Q 756 494 723 486 Q 687 479 644 474 Q 610 468 635 453 Q 663 438 696 440 L 737 446 Z"/>
  <path id="z30307d17" d="M 768 324 Q 780 328 851 337 Q 858 336 866 347 Q 867 356 848 364 Q 824 380 769 362 L 718 350 Q 702 347 688 345 Q 669 344 647 339 Q 623 335 642 322 Q 666 306 704 312 Q 710 313 719 314 L 768 324 Z"/>
  <path id="z30307d18" d="M 767 200 Q 807 206 923 206 Q 939 206 943 213 Q 947 222 934 233 Q 886 266 836 250 Q 806 244 767 236 L 719 228 Q 659 219 593 210 Q 577 209 589 194 Q 601 184 615 180 Q 631 176 644 180 Q 678 189 719 194 L 767 200 Z"/>
  <path id="z30307d19" d="M 724 -39 Q 728 -61 735 -70 Q 739 -76 747 -73 Q 759 -67 765 -14 Q 766 5 767 200 L 767 236 Q 767 276 768 324 L 769 362 Q 770 369 771 374 Q 774 392 777 405 Q 780 421 767 429 Q 749 441 737 446 C 710 460 685 468 696 440 Q 695 437 707 416 Q 716 398 718 350 L 719 314 Q 719 275 719 228 L 719 194 Q 720 151 720 100 Q 720 -3 724 -39 Z"/>
<defs>
  <clipPath id="z30307c1"><use href="#z30307d1"/></clipPath>
  <clipPath id="z30307c2"><use href="#z30307d2"/></clipPath>
  <clipPath id="z30307c3"><use href="#z30307d3"/></clipPath>
  <clipPath id="z30307c4"><use href="#z30307d4"/></clipPath>
  <clipPath id="z30307c5"><use href="#z30307d5"/></clipPath>
  <clipPath id="z30307c6"><use href="#z30307d6"/></clipPath>
  <clipPath id="z30307c7"><use href="#z30307d7"/></clipPath>
  <clipPath id="z30307c8"><use href="#z30307d8"/></clipPath>
  <clipPath id="z30307c9"><use href="#z30307d9"/></clipPath>
  <clipPath id="z30307c10"><use href="#z30307d10"/></clipPath>
  <clipPath id="z30307c11"><use href="#z30307d11"/></clipPath>
  <clipPath id="z30307c12"><use href="#z30307d12"/></clipPath>
  <clipPath id="z30307c13"><use href="#z30307d13"/></clipPath>
  <clipPath id="z30307c14"><use href="#z30307d14"/></clipPath>
  <clipPath id="z30307c15"><use href="#z30307d15"/></clipPath>
  <clipPath id="z30307c16"><use href="#z30307d16"/></clipPath>
  <clipPath id="z30307c17"><use href="#z30307d17"/></clipPath>
  <clipPath id="z30307c18"><use href="#z30307d18"/></clipPath>
  <clipPath id="z30307c19"><use href="#z30307d19"/></clipPath>
</defs>
<path style="--d:1s;" pathLength="3333" clip-path="url(#z30307c1)" d="M 493 834 L 578 798 L 610 766"/>
<path style="--d:2s;" pathLength="3333" clip-path="url(#z30307c2)" d="M 323 680 L 357 666 L 437 669 L 607 693 L 751 722 L 815 721"/>
<path style="--d:3s;" pathLength="3333" clip-path="url(#z30307c3)" d="M 258 695 L 292 665 L 296 643 L 287 466 L 263 329 L 225 211 L 186 125 L 141 54 L 108 15"/>
<path style="--d:4s;" pathLength="3333" clip-path="url(#z30307c4)" d="M 135 562 L 192 517 L 211 478"/>
<path style="--d:5s;" pathLength="3333" clip-path="url(#z30307c5)" d="M 59 293 L 109 290 L 228 364 L 238 378"/>
<path style="--d:6s;" pathLength="3333" clip-path="url(#z30307c6)" d="M 462 609 L 441 603 L 392 527 L 334 478"/>
<path style="--d:7s;" pathLength="3333" clip-path="url(#z30307c7)" d="M 435 544 L 450 554 L 513 569 L 545 558 L 505 484 L 473 447"/>
<path style="--d:8s;" pathLength="3333" clip-path="url(#z30307c8)" d="M 331 418 L 357 386 L 385 217"/>
<path style="--d:9s;" pathLength="3333" clip-path="url(#z30307c9)" d="M 358 418 L 387 414 L 521 445 L 558 444 L 574 437 L 590 419 L 556 263 L 559 241"/>
<path style="--d:10s;" pathLength="3333" clip-path="url(#z30307c10)" d="M 412 332 L 501 349 L 529 345"/>
<path style="--d:11s;" pathLength="3333" clip-path="url(#z30307c11)" d="M 450 410 L 465 401 L 472 381 L 472 285 L 463 274"/>
<path style="--d:12s;" pathLength="3333" clip-path="url(#z30307c12)" d="M 404 237 L 408 243 L 528 269"/>
<path style="--d:13s;" pathLength="3333" clip-path="url(#z30307c13)" d="M 288 105 L 339 92 L 552 180"/>
<path style="--d:14s;" pathLength="3333" clip-path="url(#z30307c14)" d="M 628 602 L 686 559 L 697 529"/>
<path style="--d:15s;" pathLength="3333" clip-path="url(#z30307c15)" d="M 798 654 L 820 629 L 755 530"/>
<path style="--d:16s;" pathLength="3333" clip-path="url(#z30307c16)" d="M 637 465 L 661 459 L 700 461 L 822 489 L 865 488"/>
<path style="--d:17s;" pathLength="3333" clip-path="url(#z30307c17)" d="M 643 331 L 693 327 L 784 348 L 827 353 L 857 348"/>
<path style="--d:18s;" pathLength="3333" clip-path="url(#z30307c18)" d="M 591 202 L 625 196 L 860 230 L 905 227 L 934 218"/>
<path style="--d:19s;" pathLength="3333" clip-path="url(#z30307c19)" d="M 703 438 L 732 420 L 745 404 L 743 -64"/>
</svg>