<svg id="z30418" class="acjk" viewBox="0 0 1024 1024" xmlns="http://www.w3.org/2000/svg">
  <path id="z30418d1" d="M 536 761 Q 554 785 554 786 Q 553 796 542 811 Q 512 848 476 844 Q 467 843 468 830 Q 471 742 316 584 Q 294 565 272 545 Q 217 497 83 408 Q 73 404 84 400 Q 157 400 317 523 Q 423 623 518 740 L 536 761 Z"/>
  <path id="z30418d2" d="M 518 740 Q 755 494 807 485 Q 867 476 980 499 Q 999 503 1002 508 Q 1003 515 988 521 Q 930 542 861 562 Q 711 613 536 761 C 513 780 497 762 518 740 Z"/>
  <path id="z30418d3" d="M 403 580 Q 372 574 394 560 Q 425 542 492 555 Q 537 564 586 574 Q 611 580 615 584 Q 622 591 619 598 Q 612 608 587 614 Q 562 618 536 608 Q 508 598 477 591 Q 443 584 403 580 Z"/>
  <path id="z30418d4" d="M 381 476 Q 371 480 342 483 Q 332 484 328 480 Q 324 474 332 460 Q 357 418 378 348 Q 382 326 397 313 Q 413 295 418 309 Q 419 316 419 327 L 414 358 Q 398 425 394 448 C 389 473 389 473 381 476 Z"/>
  <path id="z30418d5" d="M 627 385 Q 651 433 676 446 Q 692 462 680 480 Q 665 493 618 520 Q 602 527 582 521 Q 498 491 381 476 C 351 472 365 442 394 448 Q 398 449 562 478 Q 581 482 590 474 Q 597 467 594 453 Q 584 416 572 386 C 561 358 613 358 627 385 Z"/>
  <path id="z30418d6" d="M 419 327 Q 425 327 432 328 Q 498 341 640 352 Q 650 353 651 361 Q 651 368 627 385 C 614 395 601 392 572 386 Q 484 368 414 358 C 384 354 389 326 419 327 Z"/>
  <path id="z30418d7" d="M 305 231 Q 289 241 269 244 Q 256 247 249 241 Q 243 235 250 222 Q 269 197 279 169 Q 288 142 311 36 C 317 7 353 9 348 39 Q 327 156 328 195 C 328 218 328 218 305 231 Z"/>
  <path id="z30418d8" d="M 709 70 Q 742 173 771 215 Q 783 225 778 237 Q 771 253 712 284 Q 696 293 682 288 Q 510 254 305 231 C 275 228 299 187 328 195 Q 329 198 408 212 L 431 216 Q 480 226 533 234 L 568 239 Q 659 255 680 243 Q 687 237 685 219 Q 673 155 650 64 C 643 35 700 41 709 70 Z"/>
  <path id="z30418d9" d="M 461 47 Q 473 78 441 193 Q 440 206 431 216 C 412 240 406 242 408 212 Q 418 68 442 45 C 456 29 456 29 461 47 Z"/>
  <path id="z30418d10" d="M 550 54 Q 565 85 585 153 Q 589 172 602 198 Q 612 211 603 218 Q 593 228 568 239 C 541 251 528 257 533 234 Q 532 230 536 225 Q 552 194 528 70 Q 527 60 526 52 C 522 22 537 27 550 54 Z"/>
  <path id="z30418d11" d="M 311 36 Q 232 33 150 26 Q 128 25 143 7 Q 158 -9 176 -15 Q 197 -22 214 -18 Q 469 37 903 15 Q 924 14 929 23 Q 935 35 919 50 Q 859 98 807 83 Q 762 79 709 70 L 650 64 Q 601 60 550 54 L 526 52 Q 525 53 523 52 Q 492 51 461 47 L 442 45 Q 396 44 348 39 L 311 36 Z"/>
<defs>
  <clipPath id="z30418c1"><use href="#z30418d1"/></clipPath>
  <clipPath id="z30418c2"><use href="#z30418d2"/></clipPath>
  <clipPath id="z30418c3"><use href="#z30418d3"/></clipPath>
  <clipPath id="z30418c4"><use href="#z30418d4"/></clipPath>
  <clipPath id="z30418c5"><use href="#z30418d5"/></clipPath>
  <clipPath id="z30418c6"><use href="#z30418d6"/></clipPath>
  <clipPath id="z30418c7"><use href="#z30418d7"/></clipPath>
  <clipPath id="z30418c8"><use href="#z30418d8"/></clipPath>
  <clipPath id="z30418c9"><use href="#z30418d9"/></clipPath>
  <clipPath id="z30418c10"><use href="#z30418d10"/></clipPath>
  <clipPath id="z30418c11"><use href="#z30418d11"/></clipPath>
</defs>
<path style="--d:1s;" pathLength="3333" clip-path="url(#z30418c1)" d="M 478 834 L 492 820 L 506 790 L 452 703 L 393 632 L 329 565 L 244 494 L 159 438 L 88 405"/>
<path style="--d:2s;" pathLength="3333" clip-path="url(#z30418c2)" d="M 539 750 L 538 738 L 555 721 L 661 632 L 755 564 L 810 532 L 878 519 L 996 509"/>
<path style="--d:3s;" pathLength="3333" clip-path="url(#z30418c3)" d="M 396 571 L 448 567 L 549 590 L 608 593"/>
<path style="--d:4s;" pathLength="3333" clip-path="url(#z30418c4)" d="M 336 475 L 369 445 L 408 314"/>
<path style="--d:5s;" pathLength="3333" clip-path="url(#z30418c5)" d="M 391 472 L 402 464 L 518 483 L 582 500 L 605 496 L 634 463 L 611 413 L 579 390"/>
<path style="--d:6s;" pathLength="3333" clip-path="url(#z30418c6)" d="M 422 351 L 433 344 L 579 367 L 620 368 L 642 360"/>
<path style="--d:7s;" pathLength="3333" clip-path="url(#z30418c7)" d="M 257 234 L 288 212 L 301 186 L 322 73 L 328 54 L 341 49"/>
<path style="--d:8s;" pathLength="3333" clip-path="url(#z30418c8)" d="M 314 228 L 339 217 L 604 260 L 696 264 L 720 240 L 727 222 L 687 97 L 657 72"/>
<path style="--d:9s;" pathLength="3333" clip-path="url(#z30418c9)" d="M 427 206 L 424 195 L 443 89 L 456 52"/>
<path style="--d:10s;" pathLength="3333" clip-path="url(#z30418c10)" d="M 539 231 L 572 204 L 555 115 L 532 56"/>
<path style="--d:11s;" pathLength="3333" clip-path="url(#z30418c11)" d="M 146 17 L 198 5 L 404 28 L 829 53 L 869 47 L 917 30"/>
</svg>