<svg id="z32011" class="acjk" viewBox="0 0 1024 1024" xmlns="http://www.w3.org/2000/svg">
  <path id="z32011d1" d="M 319 498 Q 274 502 237 507 Q 194 508 218 533 Q 282 642 345 723 Q 360 741 357 749 Q 354 764 314 795 Q 298 808 278 805 Q 266 802 273 786 Q 291 744 207 589 Q 189 555 151 520 Q 132 507 133 494 Q 136 475 150 456 Q 160 444 173 451 Q 194 463 304 475 C 334 478 349 495 319 498 Z"/>
  <path id="z32011d2" d="M 365 376 Q 317 363 263 341 Q 244 332 255 349 Q 297 410 395 535 Q 422 572 446 594 Q 459 604 452 613 Q 442 632 408 650 Q 392 659 383 656 Q 373 652 376 637 Q 379 595 319 498 L 304 475 Q 205 334 181 320 Q 168 311 171 297 Q 172 284 199 267 Q 211 257 224 268 Q 281 317 375 358 C 402 370 394 384 365 376 Z"/>
  <path id="z32011d3" d="M 375 358 Q 399 316 415 309 Q 425 305 435 320 Q 439 330 436 350 Q 426 380 367 413 Q 360 416 356 406 Q 352 399 365 376 L 375 358 Z"/>
  <path id="z32011d4" d="M 122 129 Q 144 89 168 44 Q 177 26 192 22 Q 202 18 213 30 Q 223 43 225 75 Q 226 114 134 178 Q 121 187 113 187 Q 106 186 103 172 Q 103 159 122 129 Z"/>
  <path id="z32011d5" d="M 254 176 Q 270 154 287 128 Q 296 115 309 112 Q 319 111 325 121 Q 332 133 330 159 Q 327 186 259 218 Q 246 224 240 223 Q 236 220 234 209 Q 235 199 254 176 Z"/>
  <path id="z32011d6" d="M 361 235 Q 397 190 412 187 Q 421 187 425 197 Q 429 207 426 231 Q 422 252 361 272 Q 349 276 344 274 Q 340 273 340 262 Q 341 253 361 235 Z"/>
  <path id="z32011d7" d="M 603 716 Q 634 689 668 657 Q 686 641 705 643 Q 718 644 724 660 Q 730 679 718 715 Q 711 739 673 755 Q 586 782 568 776 Q 562 770 564 755 Q 568 742 603 716 Z"/>
  <path id="z32011d8" d="M 697 493 Q 743 503 793 511 Q 850 524 858 531 Q 868 538 863 548 Q 856 560 826 568 Q 799 574 694 542 Q 592 514 463 502 Q 426 496 451 478 Q 494 456 565 468 Q 608 477 655 485 L 697 493 Z"/>
  <path id="z32011d9" d="M 671 231 Q 710 294 731 395 Q 735 423 742 440 Q 748 453 739 461 Q 720 483 697 493 C 671 507 649 514 655 485 Q 679 386 630 268 L 606 230 Q 528 157 452 125 Q 419 113 375 98 Q 365 97 360 93 Q 353 89 363 83 Q 369 82 384 83 Q 478 90 548 124 Q 602 146 635 186 Q 636 187 639 190 L 671 231 Z"/>
  <path id="z32011d10" d="M 639 190 Q 691 130 780 54 Q 811 30 857 40 Q 918 52 962 60 Q 975 63 989 69 Q 996 76 984 85 Q 968 94 839 132 Q 761 154 671 231 L 630 268 Q 594 302 556 344 Q 534 368 500 372 Q 488 373 479 367 Q 475 360 484 352 Q 491 346 499 342 Q 523 330 606 230 L 639 190 Z"/>
<defs>
  <clipPath id="z32011c1"><use href="#z32011d1"/></clipPath>
  <clipPath id="z32011c2"><use href="#z32011d2"/></clipPath>
  <clipPath id="z32011c3"><use href="#z32011d3"/></clipPath>
  <clipPath id="z32011c4"><use href="#z32011d4"/></clipPath>
  <clipPath id="z32011c5"><use href="#z32011d5"/></clipPath>
  <clipPath id="z32011c6"><use href="#z32011d6"/></clipPath>
  <clipPath id="z32011c7"><use href="#z32011d7"/></clipPath>
  <clipPath id="z32011c8"><use href="#z32011d8"/></clipPath>
  <clipPath id="z32011c9"><use href="#z32011d9"/></clipPath>
  <clipPath id="z32011c10"><use href="#z32011d10"/></clipPath>
</defs>
<path style="--d:1s;" pathLength="3333" clip-path="url(#z32011c1)" d="M 281 794 L 299 777 L 313 745 L 224 578 L 185 522 L 180 502 L 183 493 L 212 486 L 291 485 L 311 495"/>
<path style="--d:2s;" pathLength="3333" clip-path="url(#z32011c2)" d="M 388 644 L 403 623 L 407 603 L 328 476 L 237 355 L 234 320 L 267 322 L 347 359 L 359 363 L 365 358"/>
<path style="--d:3s;" pathLength="3333" clip-path="url(#z32011c3)" d="M 367 401 L 408 351 L 419 324"/>
<path style="--d:4s;" pathLength="3333" clip-path="url(#z32011c4)" d="M 115 177 L 178 98 L 190 76 L 197 40"/>
<path style="--d:5s;" pathLength="3333" clip-path="url(#z32011c5)" d="M 243 213 L 297 162 L 311 128"/>
<path style="--d:6s;" pathLength="3333" clip-path="url(#z32011c6)" d="M 348 266 L 401 226 L 413 198"/>
<path style="--d:7s;" pathLength="3333" clip-path="url(#z32011c7)" d="M 573 769 L 581 759 L 673 709 L 702 665"/>
<path style="--d:8s;" pathLength="3333" clip-path="url(#z32011c8)" d="M 455 491 L 485 485 L 538 487 L 807 542 L 852 542"/>
<path style="--d:9s;" pathLength="3333" clip-path="url(#z32011c9)" d="M 663 479 L 692 460 L 700 447 L 697 393 L 673 300 L 631 221 L 581 172 L 507 129 L 439 104 L 368 90"/>
<path style="--d:10s;" pathLength="3333" clip-path="url(#z32011c10)" d="M 487 361 L 505 357 L 538 336 L 681 186 L 747 131 L 805 94 L 831 85 L 981 75"/>
</svg>