<svg id="z30702" class="acjk" viewBox="0 0 1024 1024" xmlns="http://www.w3.org/2000/svg">
  <path id="z30702d1" d="M 228 534 Q 231 540 236 545 Q 276 596 319 672 Q 337 708 354 726 Q 361 736 357 750 Q 351 763 322 783 Q 294 799 276 798 Q 257 795 267 774 Q 288 738 216 596 Q 182 533 133 463 Q 123 453 122 446 Q 119 434 133 438 Q 157 445 210 511 L 228 534 Z"/>
  <path id="z30702d2" d="M 291 505 Q 298 509 411 545 Q 435 552 438 557 Q 445 566 440 573 Q 433 583 403 587 Q 373 588 346 574 Q 321 562 291 552 Q 260 542 228 534 C 199 527 181 520 210 511 Q 228 505 252 501 C 272 497 272 497 291 505 Z"/>
  <path id="z30702d3" d="M 318 367 Q 360 379 411 388 Q 427 391 427 398 Q 427 411 409 418 Q 379 428 326 410 L 266 393 Q 124 357 70 349 Q 58 348 56 339 Q 53 329 68 319 Q 104 298 154 314 Q 217 339 262 352 L 318 367 Z"/>
  <path id="z30702d4" d="M 262 352 Q 232 208 128 126 Q 113 114 99 103 Q 86 93 99 92 Q 112 92 145 106 Q 188 127 220 158 Q 298 230 316 354 Q 316 361 318 367 L 326 410 Q 327 435 339 458 Q 348 476 332 484 Q 304 505 291 505 C 262 514 249 518 252 501 Q 251 497 254 488 Q 273 454 266 393 L 262 352 Z"/>
  <path id="z30702d5" d="M 329 209 Q 347 187 366 161 Q 376 148 390 147 Q 399 146 405 157 Q 411 169 407 196 Q 406 212 382 228 Q 322 258 312 255 Q 308 252 307 241 Q 308 231 329 209 Z"/>
  <path id="z30702d6" d="M 634 683 Q 716 722 755 730 Q 771 731 774 739 Q 777 749 766 758 Q 747 771 705 786 Q 690 793 678 791 Q 671 787 671 777 Q 672 741 504 655 Q 500 646 505 644 Q 523 644 595 670 L 634 683 Z"/>
  <path id="z30702d7" d="M 653 565 Q 698 580 818 601 Q 827 600 835 612 Q 835 622 814 631 Q 783 647 710 620 Q 662 608 658 605 L 609 591 Q 581 587 555 580 Q 518 574 478 566 Q 453 562 473 547 Q 501 529 544 537 Q 562 543 586 548 L 653 565 Z"/>
  <path id="z30702d8" d="M 651 552 Q 652 559 653 565 L 658 605 Q 659 623 671 644 Q 677 651 667 663 Q 651 676 634 683 C 607 696 583 697 595 670 Q 608 645 609 591 L 610 512 Q 607 422 618 402 L 619 401 Q 626 388 639 395 Q 648 405 649 512 Q 649 519 650 526 L 651 552 Z"/>
  <path id="z30702d9" d="M 586 548 Q 558 478 448 393 Q 436 383 448 383 Q 455 382 484 395 Q 512 407 539 429 Q 570 457 610 512 C 645 559 599 579 586 548 Z"/>
  <path id="z30702d10" d="M 650 526 Q 770 406 803 398 Q 863 398 922 413 Q 935 416 937 420 Q 938 424 927 428 Q 771 474 723 503 Q 702 516 682 530 Q 664 543 651 552 C 626 569 629 547 650 526 Z"/>
  <path id="z30702d11" d="M 660 117 Q 715 78 795 4 Q 817 -18 834 -18 Q 855 -19 856 0 Q 857 19 833 64 Q 818 94 685 155 L 640 175 Q 609 190 583 198 Q 559 204 573 226 Q 589 260 599 280 L 614 313 Q 630 352 631 352 Q 627 365 589 390 Q 579 397 569 394 Q 557 390 564 376 Q 574 354 567 332 Q 563 319 560 305 L 550 272 Q 540 242 527 223 Q 518 207 521 195 Q 524 185 539 182 Q 576 170 617 145 L 660 117 Z"/>
  <path id="z30702d12" d="M 617 145 Q 589 114 551 91 Q 502 61 396 36 Q 378 29 399 25 Q 570 7 660 117 L 685 155 Q 710 195 726 239 Q 739 282 751 294 Q 751 295 752 295 C 765 313 763 315 737 330 Q 704 352 679 347 Q 666 344 672 329 Q 673 326 675 321 L 679 290 Q 680 265 665 230 Q 655 200 640 175 L 617 145 Z"/>
  <path id="z30702d13" d="M 752 295 Q 812 299 888 299 Q 943 296 951 306 Q 955 316 941 328 Q 890 364 835 348 Q 792 341 737 330 L 675 321 Q 674 321 614 313 L 560 305 Q 487 298 407 287 Q 388 286 402 270 Q 432 245 461 253 Q 503 265 550 272 L 599 280 Q 623 286 679 290 L 752 295 Z"/>
<defs>
  <clipPath id="z30702c1"><use href="#z30702d1"/></clipPath>
  <clipPath id="z30702c2"><use href="#z30702d2"/></clipPath>
  <clipPath id="z30702c3"><use href="#z30702d3"/></clipPath>
  <clipPath id="z30702c4"><use href="#z30702d4"/></clipPath>
  <clipPath id="z30702c5"><use href="#z30702d5"/></clipPath>
  <clipPath id="z30702c6"><use href="#z30702d6"/></clipPath>
  <clipPath id="z30702c7"><use href="#z30702d7"/></clipPath>
  <clipPath id="z30702c8"><use href="#z30702d8"/></clipPath>
  <clipPath id="z30702c9"><use href="#z30702d9"/></clipPath>
  <clipPath id="z30702c10"><use href="#z30702d10"/></clipPath>
  <clipPath id="z30702c11"><use href="#z30702d11"/></clipPath>
  <clipPath id="z30702c12"><use href="#z30702d12"/></clipPath>
  <clipPath id="z30702c13"><use href="#z30702d13"/></clipPath>
</defs>
<path style="--d:1s;" pathLength="3333" clip-path="url(#z30702c1)" d="M 277 784 L 302 760 L 311 737 L 281 665 L 238 585 L 190 513 L 131 447"/>
<path style="--d:2s;" pathLength="3333" clip-path="url(#z30702c2)" d="M 218 514 L 284 526 L 385 562 L 430 566"/>
<path style="--d:3s;" pathLength="3333" clip-path="url(#z30702c3)" d="M 69 336 L 115 331 L 355 398 L 417 401"/>
<path style="--d:4s;" pathLength="3333" clip-path="url(#z30702c4)" d="M 259 495 L 290 476 L 300 461 L 289 349 L 263 261 L 220 189 L 201 168 L 169 139 L 102 98"/>
<path style="--d:5s;" pathLength="3333" clip-path="url(#z30702c5)" d="M 315 246 L 372 201 L 391 162"/>
<path style="--d:6s;" pathLength="3333" clip-path="url(#z30702c6)" d="M 763 743 L 700 751 L 634 705 L 580 677 L 567 677 L 560 668 L 544 667 L 528 657 L 517 660 L 508 650"/>
<path style="--d:7s;" pathLength="3333" clip-path="url(#z30702c7)" d="M 474 557 L 533 555 L 761 613 L 825 613"/>
<path style="--d:8s;" pathLength="3333" clip-path="url(#z30702c8)" d="M 603 668 L 636 646 L 629 552 L 632 401"/>
<path style="--d:9s;" pathLength="3333" clip-path="url(#z30702c9)" d="M 605 547 L 591 514 L 533 445 L 473 398 L 451 388"/>
<path style="--d:10s;" pathLength="3333" clip-path="url(#z30702c10)" d="M 653 545 L 668 523 L 703 494 L 803 433 L 882 422 L 931 423"/>
<path style="--d:11s;" pathLength="3333" clip-path="url(#z30702c11)" d="M 572 384 L 598 348 L 545 205 L 743 93 L 790 58 L 838 -1"/>
<path style="--d:12s;" pathLength="3333" clip-path="url(#z30702c12)" d="M 681 336 L 710 308 L 709 277 L 680 198 L 636 127 L 584 83 L 535 57 L 462 38 L 407 33"/>
<path style="--d:13s;" pathLength="3333" clip-path="url(#z30702c13)" d="M 404 279 L 442 271 L 629 303 L 861 326 L 884 326 L 943 311"/>
</svg>