<svg id="z36427" class="acjk" viewBox="0 0 1024 1024" xmlns="http://www.w3.org/2000/svg">
  <path id="z36427d1" d="M 190 723 Q 180 727 153 732 Q 143 736 139 731 Q 132 725 141 710 Q 165 661 180 579 Q 183 555 197 539 Q 213 518 218 533 Q 221 540 222 551 L 221 579 Q 211 610 205 698 C 204 718 204 718 190 723 Z"/>
  <path id="z36427d2" d="M 363 608 Q 381 684 403 706 Q 424 730 402 743 Q 383 753 358 770 Q 340 780 298 755 Q 246 736 190 723 C 161 716 176 692 205 698 Q 212 699 221 702 Q 264 714 300 722 Q 324 728 330 718 Q 337 712 330 680 Q 323 649 315 609 C 309 580 356 579 363 608 Z"/>
  <path id="z36427d3" d="M 276 562 Q 315 572 376 581 Q 385 582 385 590 Q 385 597 363 608 C 343 619 343 619 315 609 Q 263 591 221 579 C 192 571 192 553 222 551 Q 229 550 237 552 Q 238 553 241 552 C 248 552 247 555 276 562 Z"/>
  <path id="z36427d4" d="M 297 264 Q 298 349 302 418 L 303 452 Q 303 486 307 514 Q 313 530 304 539 Q 289 554 276 562 C 251 579 227 579 241 552 Q 254 530 255 499 Q 256 472 256 249 C 256 219 297 234 297 264 Z"/>
  <path id="z36427d5" d="M 302 418 Q 351 430 389 436 Q 411 442 402 453 Q 390 466 366 468 Q 345 468 303 452 C 275 441 273 411 302 418 Z"/>
  <path id="z36427d6" d="M 203 232 Q 190 364 193 391 Q 194 410 181 421 Q 160 434 137 442 Q 124 446 117 439 Q 110 435 117 421 Q 135 393 144 363 Q 151 335 168 220 C 172 190 206 202 203 232 Z"/>
  <path id="z36427d7" d="M 168 220 Q 143 213 120 204 Q 102 197 72 197 Q 59 196 58 185 Q 57 172 66 165 Q 88 150 120 134 Q 130 131 141 140 Q 163 159 341 250 Q 365 262 381 275 Q 394 282 393 292 Q 389 296 376 294 Q 337 281 297 264 L 256 249 Q 229 242 203 232 L 168 220 Z"/>
  <path id="z36427d8" d="M 531 749 Q 521 755 489 760 Q 479 764 475 759 Q 468 753 477 738 Q 505 677 521 577 Q 524 547 541 527 Q 557 506 562 521 Q 566 531 566 547 L 565 567 Q 564 576 563 586 Q 559 611 555 632 L 551 653 Q 544 699 542 718 C 539 746 539 746 531 749 Z"/>
  <path id="z36427d9" d="M 711 568 Q 726 546 741 538 Q 751 531 765 550 Q 777 569 803 679 Q 810 709 832 732 Q 844 744 833 756 Q 820 772 779 796 Q 761 802 693 785 Q 660 785 531 749 C 502 741 513 709 542 718 Q 602 737 712 755 Q 737 759 745 751 Q 755 738 753 726 Q 735 612 720 596 C 707 573 707 573 711 568 Z"/>
  <path id="z36427d10" d="M 555 632 Q 564 635 693 656 Q 712 659 705 670 Q 696 682 675 685 Q 642 688 551 653 C 523 642 526 625 555 632 Z"/>
  <path id="z36427d11" d="M 566 547 Q 570 547 576 547 Q 652 560 711 568 C 741 572 749 587 720 596 Q 721 597 719 597 Q 701 600 565 567 C 536 560 536 547 566 547 Z"/>
  <path id="z36427d12" d="M 519 81 Q 492 88 465 95 Q 447 99 449 92 Q 503 49 533 17 Q 543 1 557 -4 Q 564 -7 572 2 Q 605 41 605 102 Q 584 375 608 417 Q 618 433 609 442 Q 590 458 560 471 Q 545 477 500 455 Q 481 448 439 441 Q 426 440 433 433 Q 440 423 453 419 Q 471 415 522 432 Q 538 436 543 428 Q 559 382 550 131 Q 541 83 540 82 Q 536 78 519 81 Z"/>
  <path id="z36427d13" d="M 437 325 Q 480 282 493 282 Q 502 282 505 293 Q 509 303 502 327 Q 498 340 477 350 Q 429 368 416 363 Q 412 359 413 349 Q 416 342 437 325 Z"/>
  <path id="z36427d14" d="M 339 169 Q 327 168 327 154 Q 328 138 351 124 Q 373 105 387 105 Q 396 105 405 124 Q 438 158 517 230 Q 524 234 521 242 Q 518 245 511 242 Q 376 170 358 170 Q 349 170 339 169 Z"/>
  <path id="z36427d15" d="M 774 47 Q 749 53 722 59 Q 703 65 705 56 Q 759 10 789 -25 Q 802 -44 816 -48 Q 825 -52 833 -43 Q 869 -1 870 71 Q 849 404 872 446 Q 884 464 872 474 Q 851 492 817 506 Q 801 513 745 486 Q 705 474 650 467 Q 637 466 644 457 Q 653 447 667 442 Q 685 439 775 462 Q 794 468 799 458 Q 811 431 811 233 Q 811 68 798 48 Q 792 42 774 47 Z"/>
  <path id="z36427d16" d="M 670 343 Q 688 324 706 302 Q 716 292 728 291 Q 737 291 741 301 Q 745 311 741 335 Q 734 362 669 380 Q 657 384 652 383 Q 648 380 648 370 Q 649 361 670 343 Z"/>
  <path id="z36427d17" d="M 626 189 Q 616 188 617 174 Q 620 159 642 148 Q 664 135 676 135 Q 683 136 691 154 Q 716 190 782 263 Q 788 267 785 274 Q 782 277 776 273 Q 662 197 628 189 Q 627 190 626 189 Z"/>
<defs>
  <clipPath id="z36427c1"><use href="#z36427d1"/></clipPath>
  <clipPath id="z36427c2"><use href="#z36427d2"/></clipPath>
  <clipPath id="z36427c3"><use href="#z36427d3"/></clipPath>
  <clipPath id="z36427c4"><use href="#z36427d4"/></clipPath>
  <clipPath id="z36427c5"><use href="#z36427d5"/></clipPath>
  <clipPath id="z36427c6"><use href="#z36427d6"/></clipPath>
  <clipPath id="z36427c7"><use href="#z36427d7"/></clipPath>
  <clipPath id="z36427c8"><use href="#z36427d8"/></clipPath>
  <clipPath id="z36427c9"><use href="#z36427d9"/></clipPath>
  <clipPath id="z36427c10"><use href="#z36427d10"/></clipPath>
  <clipPath id="z36427c11"><use href="#z36427d11"/></clipPath>
  <clipPath id="z36427c12"><use href="#z36427d12"/></clipPath>
  <clipPath id="z36427c13"><use href="#z36427d13"/></clipPath>
  <clipPath id="z36427c14"><use href="#z36427d14"/></clipPath>
  <clipPath id="z36427c15"><use href="#z36427d15"/></clipPath>
  <clipPath id="z36427c16"><use href="#z36427d16"/></clipPath>
  <clipPath id="z36427c17"><use href="#z36427d17"/></clipPath>
</defs>
<path style="--d:1s;" pathLength="3333" clip-path="url(#z36427c1)" d="M 147 724 L 170 705 L 181 686 L 208 538"/>
<path style="--d:2s;" pathLength="3333" clip-path="url(#z36427c2)" d="M 198 719 L 214 715 L 239 720 L 316 745 L 348 742 L 368 721 L 366 711 L 344 632 L 321 616"/>
<path style="--d:3s;" pathLength="3333" clip-path="url(#z36427c3)" d="M 229 558 L 237 567 L 313 590 L 376 590"/>
<path style="--d:4s;" pathLength="3333" clip-path="url(#z36427c4)" d="M 248 548 L 272 537 L 280 523 L 277 279 L 259 263"/>
<path style="--d:5s;" pathLength="3333" clip-path="url(#z36427c5)" d="M 309 423 L 315 435 L 331 444 L 371 451 L 392 447"/>
<path style="--d:6s;" pathLength="3333" clip-path="url(#z36427c6)" d="M 126 430 L 154 408 L 165 390 L 184 246 L 171 232"/>
<path style="--d:7s;" pathLength="3333" clip-path="url(#z36427c7)" d="M 71 184 L 124 170 L 388 288"/>
<path style="--d:8s;" pathLength="3333" clip-path="url(#z36427c8)" d="M 483 752 L 512 725 L 552 526"/>
<path style="--d:9s;" pathLength="3333" clip-path="url(#z36427c9)" d="M 546 725 L 568 744 L 707 773 L 744 775 L 771 766 L 791 743 L 744 574 L 747 555"/>
<path style="--d:10s;" pathLength="3333" clip-path="url(#z36427c10)" d="M 555 638 L 565 648 L 601 657 L 663 668 L 697 665"/>
<path style="--d:11s;" pathLength="3333" clip-path="url(#z36427c11)" d="M 571 552 L 580 562 L 701 581 L 716 593"/>
<path style="--d:12s;" pathLength="3333" clip-path="url(#z36427c12)" d="M 441 433 L 477 433 L 534 452 L 558 447 L 577 426 L 577 140 L 570 68 L 556 47 L 458 89"/>
<path style="--d:13s;" pathLength="3333" clip-path="url(#z36427c13)" d="M 421 355 L 471 326 L 493 294"/>
<path style="--d:14s;" pathLength="3333" clip-path="url(#z36427c14)" d="M 339 156 L 379 142 L 516 237"/>
<path style="--d:15s;" pathLength="3333" clip-path="url(#z36427c15)" d="M 654 458 L 677 456 L 737 466 L 796 485 L 815 479 L 837 456 L 839 110 L 831 35 L 816 9 L 787 17 L 714 54"/>
<path style="--d:16s;" pathLength="3333" clip-path="url(#z36427c16)" d="M 655 375 L 702 343 L 728 305"/>
<path style="--d:17s;" pathLength="3333" clip-path="url(#z36427c17)" d="M 627 179 L 665 170 L 781 269"/>
</svg>