<svg id="z36341" class="acjk" viewBox="0 0 1024 1024" xmlns="http://www.w3.org/2000/svg">
  <path id="z36341d1" d="M 204 665 Q 194 672 161 676 Q 151 679 147 674 Q 141 668 149 653 Q 174 602 191 517 Q 194 492 209 475 Q 225 454 230 469 Q 233 478 234 491 L 231 520 Q 231 529 213 638 C 209 662 209 662 204 665 Z"/>
  <path id="z36341d2" d="M 376 554 Q 395 627 416 647 Q 438 672 415 687 Q 354 720 346 718 Q 339 718 332 713 Q 298 691 204 665 C 175 657 183 633 213 638 Q 223 639 236 643 Q 276 655 311 663 Q 335 669 341 660 Q 348 654 341 624 Q 334 590 325 550 C 318 521 368 525 376 554 Z"/>
  <path id="z36341d3" d="M 295 505 Q 332 515 392 525 Q 401 526 401 534 Q 401 541 376 554 C 361 562 353 559 325 550 Q 271 532 231 520 C 202 511 204 486 234 491 Q 235 491 259 496 L 295 505 Z"/>
  <path id="z36341d4" d="M 321 205 Q 322 290 325 361 L 326 396 Q 326 426 328 455 Q 337 477 297 504 Q 296 505 295 505 C 270 522 249 524 259 496 Q 272 468 276 365 Q 276 304 279 192 C 280 162 321 175 321 205 Z"/>
  <path id="z36341d5" d="M 325 361 Q 370 373 406 380 Q 428 386 418 397 Q 406 410 382 411 Q 360 411 326 396 C 298 384 296 353 325 361 Z"/>
  <path id="z36341d6" d="M 217 172 Q 199 314 202 335 Q 203 357 188 367 Q 166 382 139 388 Q 126 392 117 385 Q 110 378 118 365 Q 148 323 179 160 C 185 131 221 142 217 172 Z"/>
  <path id="z36341d7" d="M 179 160 Q 119 145 97 145 Q 84 144 82 132 Q 81 119 90 110 Q 114 94 148 76 Q 160 73 171 82 Q 210 112 389 196 Q 414 208 433 223 Q 446 230 446 240 Q 440 246 428 243 Q 376 225 321 205 L 279 192 Q 248 183 217 172 L 179 160 Z"/>
  <path id="z36341d8" d="M 615 531 Q 663 547 715 561 Q 752 574 757 579 Q 766 588 760 596 Q 753 608 722 612 Q 691 616 661 601 Q 634 589 606 578 L 561 562 Q 515 549 462 539 Q 425 529 454 515 Q 499 497 562 516 Q 565 517 571 518 L 615 531 Z"/>
  <path id="z36341d9" d="M 651 394 Q 669 401 805 436 Q 817 436 824 451 Q 824 464 798 472 Q 753 490 688 458 Q 663 449 639 439 L 595 424 Q 534 406 433 380 Q 402 371 429 356 Q 471 332 498 344 Q 547 362 607 380 L 651 394 Z"/>
  <path id="z36341d10" d="M 691 178 Q 751 69 837 4 Q 901 -44 931 -41 Q 952 -35 942 -7 Q 938 45 940 195 Q 939 217 931 219 Q 925 219 888 117 Q 873 74 846 83 Q 834 89 821 99 Q 769 148 726 215 L 700 263 Q 672 321 651 394 L 639 439 Q 624 488 615 531 L 606 578 Q 587 684 594 761 Q 604 806 544 825 Q 505 840 485 830 Q 463 823 475 801 Q 527 761 529 724 Q 544 636 561 562 L 571 518 Q 581 467 595 424 L 607 380 Q 629 305 668 224 L 691 178 Z"/>
  <path id="z36341d11" d="M 668 224 Q 661 218 653 210 Q 583 144 440 77 Q 430 73 436 67 Q 443 63 454 65 Q 518 74 577 102 Q 640 129 691 178 L 726 215 Q 750 243 778 279 Q 796 301 815 321 Q 825 328 822 339 Q 819 351 794 374 Q 776 390 766 391 Q 753 391 751 376 Q 742 325 700 263 L 668 224 Z"/>
  <path id="z36341d12" d="M 715 725 Q 754 695 794 659 Q 806 649 820 648 Q 829 649 833 661 Q 837 674 829 699 Q 823 723 787 741 Q 706 771 692 767 Q 688 763 689 752 Q 692 742 715 725 Z"/>
<defs>
  <clipPath id="z36341c1"><use href="#z36341d1"/></clipPath>
  <clipPath id="z36341c2"><use href="#z36341d2"/></clipPath>
  <clipPath id="z36341c3"><use href="#z36341d3"/></clipPath>
  <clipPath id="z36341c4"><use href="#z36341d4"/></clipPath>
  <clipPath id="z36341c5"><use href="#z36341d5"/></clipPath>
  <clipPath id="z36341c6"><use href="#z36341d6"/></clipPath>
  <clipPath id="z36341c7"><use href="#z36341d7"/></clipPath>
  <clipPath id="z36341c8"><use href="#z36341d8"/></clipPath>
  <clipPath id="z36341c9"><use href="#z36341d9"/></clipPath>
  <clipPath id="z36341c10"><use href="#z36341d10"/></clipPath>
  <clipPath id="z36341c11"><use href="#z36341d11"/></clipPath>
  <clipPath id="z36341c12"><use href="#z36341d12"/></clipPath>
</defs>
<path style="--d:1s;" pathLength="3333" clip-path="url(#z36341c1)" d="M 155 667 L 186 636 L 220 474"/>
<path style="--d:2s;" pathLength="3333" clip-path="url(#z36341c2)" d="M 217 647 L 226 655 L 328 687 L 348 688 L 370 675 L 380 663 L 361 590 L 355 575 L 331 557"/>
<path style="--d:3s;" pathLength="3333" clip-path="url(#z36341c3)" d="M 236 499 L 253 511 L 333 533 L 371 538 L 393 533"/>
<path style="--d:4s;" pathLength="3333" clip-path="url(#z36341c4)" d="M 266 495 L 292 477 L 299 463 L 300 230 L 295 213 L 284 202"/>
<path style="--d:5s;" pathLength="3333" clip-path="url(#z36341c5)" d="M 331 367 L 355 388 L 378 393 L 410 390"/>
<path style="--d:6s;" pathLength="3333" clip-path="url(#z36341c6)" d="M 127 376 L 168 339 L 195 187 L 182 172"/>
<path style="--d:7s;" pathLength="3333" clip-path="url(#z36341c7)" d="M 97 130 L 153 116 L 440 237"/>
<path style="--d:8s;" pathLength="3333" clip-path="url(#z36341c8)" d="M 455 528 L 532 531 L 690 583 L 750 589"/>
<path style="--d:9s;" pathLength="3333" clip-path="url(#z36341c9)" d="M 429 368 L 459 364 L 496 370 L 751 451 L 812 451"/>
<path style="--d:10s;" pathLength="3333" clip-path="url(#z36341c10)" d="M 488 813 L 525 799 L 555 772 L 582 574 L 639 353 L 697 217 L 752 132 L 779 98 L 831 52 L 887 36 L 909 86 L 933 214"/>
<path style="--d:11s;" pathLength="3333" clip-path="url(#z36341c11)" d="M 765 377 L 778 344 L 775 329 L 719 246 L 669 190 L 562 117 L 442 71"/>
<path style="--d:12s;" pathLength="3333" clip-path="url(#z36341c12)" d="M 695 759 L 780 711 L 800 694 L 817 664"/>
</svg>