<svg id="z35864" class="acjk" viewBox="0 0 1024 1024" xmlns="http://www.w3.org/2000/svg">
  <path id="z35864d1" d="M 268 730 Q 302 705 337 675 Q 353 663 369 665 Q 381 666 385 680 Q 389 696 377 727 Q 370 749 333 763 Q 249 788 236 779 Q 230 775 233 761 Q 237 751 268 730 Z"/>
  <path id="z35864d2" d="M 158 476 Q 109 461 82 460 Q 69 460 66 453 Q 62 444 72 437 Q 111 412 138 422 Q 181 441 221 462 Q 248 475 257 467 Q 267 460 261 433 Q 261 396 259 359 Q 258 253 227 155 Q 212 121 255 76 Q 265 64 275 71 Q 282 78 293 102 Q 327 154 402 247 Q 412 259 410 266 Q 407 273 398 264 Q 361 234 323 202 Q 289 171 293 215 Q 292 276 314 426 Q 318 450 340 473 Q 352 483 343 495 Q 333 511 294 528 Q 284 535 266 524 Q 197 487 158 476 Z"/>
  <path id="z35864d3" d="M 437 635 Q 473 596 500 587 Q 513 586 520 596 Q 524 606 521 621 Q 512 651 463 663 Q 429 669 425 667 Q 419 666 422 655 Q 423 646 437 635 Z"/>
  <path id="z35864d4" d="M 401 430 Q 394 429 393 416 Q 396 368 420 350 Q 424 346 431 346 Q 437 347 439 363 Q 445 399 504 518 Q 510 528 509 532 Q 510 539 503 535 Q 491 529 424 447 Q 417 438 401 430 Z"/>
  <path id="z35864d5" d="M 636 636 Q 663 679 689 738 Q 699 768 712 783 Q 719 793 713 804 Q 707 814 679 830 Q 654 842 637 839 Q 621 835 632 817 Q 665 771 553 556 Q 546 546 545 540 Q 544 530 556 534 Q 574 543 619 608 L 636 636 Z"/>
  <path id="z35864d6" d="M 619 608 Q 640 596 662 606 Q 746 648 771 644 Q 784 637 781 628 Q 781 624 747 558 Q 740 551 745 545 Q 748 541 758 550 Q 842 613 879 628 Q 888 629 889 637 Q 889 650 863 662 Q 791 702 776 687 Q 722 662 636 636 C 607 627 592 620 619 608 Z"/>
  <path id="z35864d7" d="M 666 459 Q 673 486 690 505 Q 700 518 688 528 Q 655 564 634 560 Q 622 559 625 546 Q 637 510 602 427 Q 566 358 474 316 Q 462 310 472 306 Q 538 300 611 364 Q 620 376 627 385 Q 646 410 658 440 L 666 459 Z"/>
  <path id="z35864d8" d="M 658 440 L 659 440 Q 713 377 772 320 Q 791 301 824 302 Q 882 303 943 318 Q 958 321 959 325 Q 960 331 948 335 Q 786 377 713 427 Q 689 442 666 459 C 642 477 637 461 658 440 Z"/>
  <path id="z35864d9" d="M 504 242 Q 492 246 477 249 Q 464 253 461 247 Q 454 241 463 225 Q 490 164 505 66 Q 508 36 524 16 Q 542 -6 547 9 Q 553 25 551 54 L 547 87 Q 531 190 531 214 C 530 234 530 234 504 242 Z"/>
  <path id="z35864d10" d="M 772 117 Q 794 192 827 216 Q 843 235 829 252 Q 813 265 762 291 Q 744 298 669 272 Q 590 254 504 242 C 474 238 501 209 531 214 Q 723 245 727 244 Q 728 244 732 241 Q 742 232 739 213 Q 730 161 718 116 C 710 87 763 88 772 117 Z"/>
  <path id="z35864d11" d="M 551 54 Q 560 53 571 54 Q 641 69 791 78 Q 801 79 803 88 Q 804 95 774 116 Q 773 117 772 117 L 718 116 Q 624 97 547 87 C 517 83 521 56 551 54 Z"/>
<defs>
  <clipPath id="z35864c1"><use href="#z35864d1"/></clipPath>
  <clipPath id="z35864c2"><use href="#z35864d2"/></clipPath>
  <clipPath id="z35864c3"><use href="#z35864d3"/></clipPath>
  <clipPath id="z35864c4"><use href="#z35864d4"/></clipPath>
  <clipPath id="z35864c5"><use href="#z35864d5"/></clipPath>
  <clipPath id="z35864c6"><use href="#z35864d6"/></clipPath>
  <clipPath id="z35864c7"><use href="#z35864d7"/></clipPath>
  <clipPath id="z35864c8"><use href="#z35864d8"/></clipPath>
  <clipPath id="z35864c9"><use href="#z35864d9"/></clipPath>
  <clipPath id="z35864c10"><use href="#z35864d10"/></clipPath>
  <clipPath id="z35864c11"><use href="#z35864d11"/></clipPath>
</defs>
<path style="--d:1s;" pathLength="3333" clip-path="url(#z35864c1)" d="M 242 771 L 337 722 L 367 683"/>
<path style="--d:2s;" pathLength="3333" clip-path="url(#z35864c2)" d="M 76 448 L 127 443 L 251 493 L 287 491 L 296 482 L 268 219 L 266 186 L 274 154 L 316 171 L 404 262"/>
<path style="--d:3s;" pathLength="3333" clip-path="url(#z35864c3)" d="M 429 660 L 492 621 L 505 605"/>
<path style="--d:4s;" pathLength="3333" clip-path="url(#z35864c4)" d="M 428 354 L 422 409 L 504 529"/>
<path style="--d:5s;" pathLength="3333" clip-path="url(#z35864c5)" d="M 639 827 L 662 811 L 675 791 L 665 755 L 634 675 L 600 609 L 553 541"/>
<path style="--d:6s;" pathLength="3333" clip-path="url(#z35864c6)" d="M 628 609 L 739 656 L 790 664 L 819 641 L 800 609 L 750 551"/>
<path style="--d:7s;" pathLength="3333" clip-path="url(#z35864c7)" d="M 634 550 L 652 531 L 658 515 L 622 416 L 598 382 L 564 351 L 516 322 L 484 316 L 479 310"/>
<path style="--d:8s;" pathLength="3333" clip-path="url(#z35864c8)" d="M 670 452 L 671 440 L 729 392 L 810 339 L 887 329 L 952 329"/>
<path style="--d:9s;" pathLength="3333" clip-path="url(#z35864c9)" d="M 470 239 L 503 202 L 536 15"/>
<path style="--d:10s;" pathLength="3333" clip-path="url(#z35864c10)" d="M 512 241 L 538 230 L 726 267 L 753 263 L 782 232 L 751 142 L 725 121"/>
<path style="--d:11s;" pathLength="3333" clip-path="url(#z35864c11)" d="M 556 60 L 571 73 L 713 94 L 765 97 L 793 87"/>
</svg>