<svg id="z37278" class="acjk" viewBox="0 0 1024 1024" xmlns="http://www.w3.org/2000/svg">
  <path id="z37278d1" d="M 336 667 Q 450 694 454 697 Q 463 704 459 713 Q 452 723 424 731 Q 400 737 279 701 Q 207 685 121 676 Q 87 670 111 654 Q 144 635 193 639 L 228 646 Q 256 653 289 658 L 336 667 Z"/>
  <path id="z37278d2" d="M 143 499 Q 134 511 108 521 Q 99 525 89 522 Q 83 518 88 507 Q 89 498 94 489 Q 119 441 98 212 Q 74 124 107 85 Q 117 73 126 84 Q 135 99 137 119 L 140 150 Q 141 165 141 183 Q 147 447 149 469 C 150 492 150 492 143 499 Z"/>
  <path id="z37278d3" d="M 350 132 Q 375 98 395 67 Q 402 51 413 52 Q 428 53 442 82 Q 458 116 455 158 Q 448 258 444 442 Q 443 470 458 490 Q 467 502 458 511 Q 440 529 393 550 Q 378 559 328 536 L 298 527 Q 273 521 249 514 L 213 507 Q 167 500 143 499 C 113 497 119 469 149 469 Q 167 466 207 476 Q 208 477 211 476 L 246 483 Q 268 489 296 493 L 325 499 Q 364 512 382 499 Q 388 493 398 377 L 398 345 Q 398 189 390 161 Q 387 151 380 150 C 364 125 340 146 350 132 Z"/>
  <path id="z37278d4" d="M 193 639 Q 212 620 213 507 L 211 476 Q 205 406 166 318 Q 163 314 163 309 Q 162 302 168 304 Q 180 307 195 335 Q 231 386 246 481 L 246 483 L 249 514 Q 249 601 252 616 Q 256 626 250 634 Q 241 641 228 646 C 201 658 177 664 193 639 Z"/>
  <path id="z37278d5" d="M 328 536 Q 332 587 348 644 Q 352 656 345 662 Q 341 665 336 667 C 310 683 273 683 289 658 L 290 657 Q 303 642 301 604 Q 300 568 298 527 L 296 493 Q 286 379 324 348 Q 337 335 398 345 C 428 349 428 377 398 377 Q 380 377 363 377 Q 353 377 346 382 Q 322 400 325 499 L 328 536 Z"/>
  <path id="z37278d6" d="M 203 252 Q 187 249 206 234 Q 213 230 227 231 Q 296 240 347 245 Q 369 249 361 261 Q 351 274 327 279 Q 303 283 203 252 Z"/>
  <path id="z37278d7" d="M 137 119 L 139 118 Q 149 115 163 117 Q 224 129 350 132 C 380 133 394 133 380 150 Q 374 159 354 173 Q 338 183 307 176 Q 214 158 140 150 C 110 147 108 127 137 119 Z"/>
  <path id="z37278d8" d="M 570 679 Q 545 695 518 703 Q 512 706 507 701 Q 500 695 509 685 Q 548 619 553 473 Q 554 416 590 391 L 591 390 Q 607 386 608 414 L 608 415 L 606 444 Q 605 460 599 478 Q 584 644 583 648 C 580 673 580 673 570 679 Z"/>
  <path id="z37278d9" d="M 760 429 Q 779 401 797 393 Q 807 386 822 408 Q 838 439 864 612 Q 871 642 893 667 Q 905 680 894 693 Q 878 709 836 732 Q 821 739 752 721 Q 743 721 644 697 Q 604 687 570 679 C 541 672 554 639 583 648 Q 637 666 770 690 Q 789 693 799 686 Q 818 673 814 648 Q 787 464 769 451 C 758 432 758 432 760 429 Z"/>
  <path id="z37278d10" d="M 704 566 Q 737 629 736 634 Q 735 640 724 646 Q 700 662 678 654 Q 674 651 676 643 Q 697 600 615 480 Q 611 476 618 475 Q 657 493 692 545 L 692 546 L 704 566 Z"/>
  <path id="z37278d11" d="M 692 546 Q 747 495 756 493 Q 763 493 766 501 Q 769 508 765 527 Q 758 549 704 566 C 675 575 670 566 692 546 Z"/>
  <path id="z37278d12" d="M 608 415 Q 615 415 625 416 Q 667 425 760 429 C 790 430 791 431 769 451 Q 763 457 754 463 Q 741 470 713 465 Q 655 452 606 444 C 576 439 578 414 608 415 Z"/>
  <path id="z37278d13" d="M 548 315 Q 538 322 501 328 Q 491 331 487 326 Q 481 320 489 305 Q 517 248 533 154 Q 534 132 546 115 C 562 90 576 88 577 118 Q 578 137 575 163 Q 559 248 555 282 C 551 312 551 313 548 315 Z"/>
  <path id="z37278d14" d="M 855 151 Q 865 185 872 218 Q 884 263 914 295 Q 933 317 906 334 Q 881 352 854 366 Q 842 375 778 356 Q 730 350 615 327 Q 576 320 548 315 C 518 310 526 276 555 282 Q 562 283 571 285 Q 590 291 609 294 L 631 299 Q 652 306 717 312 L 764 318 Q 783 322 808 323 Q 818 324 823 318 Q 839 297 799 143 C 792 114 847 122 855 151 Z"/>
  <path id="z37278d15" d="M 657 126 Q 657 127 658 128 Q 664 161 638 281 Q 637 291 631 299 C 615 324 607 324 609 294 Q 621 144 636 124 C 650 100 650 100 657 126 Z"/>
  <path id="z37278d16" d="M 728 134 Q 729 141 733 148 Q 746 188 759 238 Q 763 260 777 290 Q 786 302 777 308 Q 773 314 764 318 C 738 332 707 340 717 312 Q 735 270 701 130 C 694 101 721 105 728 134 Z"/>
  <path id="z37278d17" d="M 546 115 Q 509 114 472 108 Q 453 107 467 90 Q 479 77 496 72 Q 515 66 530 70 Q 731 115 956 96 L 958 96 Q 977 95 982 103 Q 986 113 972 127 Q 917 169 860 152 Q 857 152 855 151 L 799 143 Q 765 140 728 134 L 701 130 Q 680 129 657 126 L 636 124 Q 606 123 577 118 L 546 115 Z"/>
<defs>
  <clipPath id="z37278c1"><use href="#z37278d1"/></clipPath>
  <clipPath id="z37278c2"><use href="#z37278d2"/></clipPath>
  <clipPath id="z37278c3"><use href="#z37278d3"/></clipPath>
  <clipPath id="z37278c4"><use href="#z37278d4"/></clipPath>
  <clipPath id="z37278c5"><use href="#z37278d5"/></clipPath>
  <clipPath id="z37278c6"><use href="#z37278d6"/></clipPath>
  <clipPath id="z37278c7"><use href="#z37278d7"/></clipPath>
  <clipPath id="z37278c8"><use href="#z37278d8"/></clipPath>
  <clipPath id="z37278c9"><use href="#z37278d9"/></clipPath>
  <clipPath id="z37278c10"><use href="#z37278d10"/></clipPath>
  <clipPath id="z37278c11"><use href="#z37278d11"/></clipPath>
  <clipPath id="z37278c12"><use href="#z37278d12"/></clipPath>
  <clipPath id="z37278c13"><use href="#z37278d13"/></clipPath>
  <clipPath id="z37278c14"><use href="#z37278d14"/></clipPath>
  <clipPath id="z37278c15"><use href="#z37278d15"/></clipPath>
  <clipPath id="z37278c16"><use href="#z37278d16"/></clipPath>
  <clipPath id="z37278c17"><use href="#z37278d17"/></clipPath>
</defs>
<path style="--d:1s;" pathLength="3333" clip-path="url(#z37278c1)" d="M 114 666 L 158 659 L 194 662 L 399 707 L 448 708"/>
<path style="--d:2s;" pathLength="3333" clip-path="url(#z37278c2)" d="M 95 514 L 118 492 L 126 457 L 127 322 L 114 157 L 117 90"/>
<path style="--d:3s;" pathLength="3333" clip-path="url(#z37278c3)" d="M 149 492 L 165 484 L 178 485 L 374 528 L 391 524 L 417 501 L 424 186 L 422 149 L 410 120 L 413 68"/>
<path style="--d:4s;" pathLength="3333" clip-path="url(#z37278c4)" d="M 199 639 L 226 623 L 228 615 L 229 474 L 210 395 L 184 331 L 170 311"/>
<path style="--d:5s;" pathLength="3333" clip-path="url(#z37278c5)" d="M 298 656 L 323 640 L 308 481 L 317 396 L 334 365 L 350 359 L 382 361 L 392 372"/>
<path style="--d:6s;" pathLength="3333" clip-path="url(#z37278c6)" d="M 204 243 L 316 261 L 351 255"/>
<path style="--d:7s;" pathLength="3333" clip-path="url(#z37278c7)" d="M 142 126 L 163 135 L 253 148 L 332 155 L 373 150"/>
<path style="--d:8s;" pathLength="3333" clip-path="url(#z37278c8)" d="M 514 694 L 549 662 L 557 641 L 577 465 L 596 396"/>
<path style="--d:9s;" pathLength="3333" clip-path="url(#z37278c9)" d="M 578 676 L 595 669 L 786 711 L 816 707 L 841 690 L 851 677 L 807 461 L 794 434 L 774 430"/>
<path style="--d:10s;" pathLength="3333" clip-path="url(#z37278c10)" d="M 687 647 L 706 624 L 695 585 L 666 533 L 630 491"/>
<path style="--d:11s;" pathLength="3333" clip-path="url(#z37278c11)" d="M 711 555 L 712 547 L 747 523 L 757 501"/>
<path style="--d:12s;" pathLength="3333" clip-path="url(#z37278c12)" d="M 612 423 L 645 436 L 760 448"/>
<path style="--d:13s;" pathLength="3333" clip-path="url(#z37278c13)" d="M 495 319 L 525 293 L 557 137 L 569 125"/>
<path style="--d:14s;" pathLength="3333" clip-path="url(#z37278c14)" d="M 558 288 L 567 302 L 648 320 L 816 345 L 847 337 L 866 314 L 868 301 L 834 175 L 818 159 L 804 155"/>
<path style="--d:15s;" pathLength="3333" clip-path="url(#z37278c15)" d="M 627 291 L 622 280 L 628 267 L 625 257 L 644 144 L 651 130"/>
<path style="--d:16s;" pathLength="3333" clip-path="url(#z37278c16)" d="M 725 311 L 749 290 L 719 146 L 706 141"/>
<path style="--d:17s;" pathLength="3333" clip-path="url(#z37278c17)" d="M 470 99 L 522 91 L 666 111 L 895 129 L 940 121 L 972 108"/>
</svg>