<svg id="z35845" class="acjk" viewBox="0 0 1024 1024" xmlns="http://www.w3.org/2000/svg">
  <path id="z35845d1" d="M 301 771 Q 338 747 378 717 Q 394 705 410 708 Q 420 709 425 724 Q 428 740 415 770 Q 399 806 291 821 Q 275 822 268 819 Q 264 815 266 801 Q 270 791 301 771 Z"/>
  <path id="z35845d2" d="M 136 503 Q 85 487 57 485 Q 42 485 40 477 Q 36 468 47 461 Q 89 434 117 447 Q 238 504 245 503 Q 248 504 252 501 Q 261 495 254 383 Q 253 262 221 153 Q 206 122 250 69 Q 262 57 271 64 Q 278 71 290 96 Q 330 153 413 250 Q 425 263 422 270 Q 421 279 409 268 Q 366 237 324 200 Q 284 164 289 216 Q 288 286 311 459 Q 315 484 338 508 Q 351 518 340 532 Q 330 548 290 566 Q 277 572 260 561 Q 181 518 136 503 Z"/>
  <path id="z35845d3" d="M 600 784 Q 654 730 687 717 Q 702 714 711 729 Q 717 742 713 759 Q 701 801 611 824 Q 595 828 585 824 Q 578 823 582 810 Q 583 798 600 784 Z"/>
  <path id="z35845d4" d="M 463 618 Q 444 615 459 599 Q 472 586 490 582 Q 511 578 526 583 Q 682 632 897 632 Q 916 633 921 642 Q 925 654 909 666 Q 852 705 796 684 Q 667 657 463 618 Z"/>
  <path id="z35845d5" d="M 532 492 Q 522 496 497 500 Q 487 503 483 498 Q 477 492 485 477 Q 507 434 524 362 Q 527 340 541 327 Q 557 306 562 321 Q 565 328 565 341 L 562 371 Q 550 441 550 464 C 549 486 549 486 532 492 Z"/>
  <path id="z35845d6" d="M 773 399 Q 800 457 829 475 Q 845 491 832 509 Q 771 560 732 548 Q 639 511 532 492 C 502 487 520 459 550 464 Q 571 467 715 501 Q 734 505 741 498 Q 748 491 745 477 Q 735 440 724 409 C 714 381 760 372 773 399 Z"/>
  <path id="z35845d7" d="M 655 352 Q 706 362 780 369 Q 790 370 792 380 Q 792 387 773 399 L 724 409 Q 717 409 715 407 Q 630 383 562 371 C 532 366 536 349 565 341 Q 566 341 568 340 Q 578 337 591 341 Q 604 345 623 347 L 655 352 Z"/>
  <path id="z35845d8" d="M 623 347 Q 623 343 626 336 Q 639 300 640 188 Q 641 106 633 86 Q 630 73 605 75 Q 575 82 544 87 Q 532 87 531 80 Q 530 74 541 65 Q 610 13 633 -19 Q 649 -32 661 -30 Q 671 -26 683 9 Q 699 43 696 107 Q 692 225 695 268 Q 702 310 683 331 Q 667 346 655 352 C 630 368 615 376 623 347 Z"/>
  <path id="z35845d9" d="M 500 254 Q 472 202 435 157 Q 413 127 426 93 Q 432 75 453 85 Q 475 98 492 128 Q 514 164 518 196 Q 527 227 522 251 Q 518 260 513 261 Q 504 261 500 254 Z"/>
  <path id="z35845d10" d="M 761 244 Q 812 196 873 127 Q 889 106 904 102 Q 913 101 921 111 Q 934 124 922 169 Q 909 224 763 276 Q 753 282 751 269 Q 750 256 761 244 Z"/>
<defs>
  <clipPath id="z35845c1"><use href="#z35845d1"/></clipPath>
  <clipPath id="z35845c2"><use href="#z35845d2"/></clipPath>
  <clipPath id="z35845c3"><use href="#z35845d3"/></clipPath>
  <clipPath id="z35845c4"><use href="#z35845d4"/></clipPath>
  <clipPath id="z35845c5"><use href="#z35845d5"/></clipPath>
  <clipPath id="z35845c6"><use href="#z35845d6"/></clipPath>
  <clipPath id="z35845c7"><use href="#z35845d7"/></clipPath>
  <clipPath id="z35845c8"><use href="#z35845d8"/></clipPath>
  <clipPath id="z35845c9"><use href="#z35845d9"/></clipPath>
  <clipPath id="z35845c10"><use href="#z35845d10"/></clipPath>
</defs>
<path style="--d:1s;" pathLength="3333" clip-path="url(#z35845c1)" d="M 274 813 L 372 765 L 406 727"/>
<path style="--d:2s;" pathLength="3333" clip-path="url(#z35845c2)" d="M 51 472 L 98 467 L 121 472 L 245 527 L 282 527 L 291 518 L 260 183 L 269 148 L 314 165 L 416 266"/>
<path style="--d:3s;" pathLength="3333" clip-path="url(#z35845c3)" d="M 592 815 L 675 761 L 692 738"/>
<path style="--d:4s;" pathLength="3333" clip-path="url(#z35845c4)" d="M 462 608 L 509 603 L 660 636 L 822 661 L 865 659 L 910 647"/>
<path style="--d:5s;" pathLength="3333" clip-path="url(#z35845c5)" d="M 491 491 L 513 474 L 523 456 L 552 326"/>
<path style="--d:6s;" pathLength="3333" clip-path="url(#z35845c6)" d="M 541 491 L 563 482 L 717 522 L 757 521 L 786 492 L 758 428 L 731 414"/>
<path style="--d:7s;" pathLength="3333" clip-path="url(#z35845c7)" d="M 569 349 L 586 359 L 724 386 L 782 380"/>
<path style="--d:8s;" pathLength="3333" clip-path="url(#z35845c8)" d="M 629 343 L 654 325 L 665 299 L 668 117 L 662 68 L 645 36 L 612 45 L 540 79"/>
<path style="--d:9s;" pathLength="3333" clip-path="url(#z35845c9)" d="M 511 250 L 493 194 L 442 97"/>
<path style="--d:10s;" pathLength="3333" clip-path="url(#z35845c10)" d="M 762 264 L 825 221 L 877 176 L 894 152 L 905 118"/>
</svg>