<svg id="z36729" class="acjk" viewBox="0 0 1024 1024" xmlns="http://www.w3.org/2000/svg">
  <path id="z36729d1" d="M 303 627 Q 442 664 448 669 Q 457 676 452 685 Q 445 695 416 702 Q 389 706 328 682 L 274 664 Q 225 652 171 644 Q 137 637 162 622 Q 210 601 258 616 L 303 627 Z"/>
  <path id="z36729d2" d="M 370 412 Q 400 419 427 420 Q 455 423 447 436 Q 438 449 422 456 Q 404 462 372 449 L 323 437 Q 287 431 244 422 Q 229 421 227 423 Q 226 424 228 437 Q 259 522 303 627 L 328 682 Q 356 749 371 760 Q 383 773 367 792 Q 342 817 321 830 Q 308 837 298 835 Q 291 831 296 810 Q 305 780 274 664 L 258 616 Q 192 454 161 422 Q 146 406 151 391 Q 158 372 168 361 Q 178 352 188 357 Q 222 376 308 399 Q 315 402 323 402 L 370 412 Z"/>
  <path id="z36729d3" d="M 315 257 Q 306 146 297 116 Q 288 80 321 25 Q 331 6 340 1 Q 352 0 357 13 Q 370 46 367 77 Q 366 185 366 279 L 367 313 Q 367 373 370 412 L 372 449 Q 373 489 379 511 Q 382 524 374 530 Q 352 551 332 560 Q 319 564 310 557 Q 304 553 311 543 Q 321 525 323 437 L 323 402 Q 320 308 318 298 L 315 257 Z"/>
  <path id="z36729d4" d="M 366 279 Q 426 309 429 311 Q 442 318 442 328 Q 436 334 424 331 Q 396 324 367 313 L 318 298 Q 240 276 153 251 Q 134 245 102 246 Q 89 245 88 235 Q 85 222 95 214 Q 117 198 150 179 Q 160 175 172 184 Q 223 223 315 257 L 366 279 Z"/>
  <path id="z36729d5" d="M 560 607 Q 657 634 704 657 Q 749 676 787 686 Q 803 687 807 696 Q 811 706 798 717 Q 738 756 704 752 Q 697 748 696 737 Q 697 706 547 622 C 521 607 531 599 560 607 Z"/>
  <path id="z36729d6" d="M 547 622 Q 529 640 503 649 Q 490 653 481 646 Q 475 639 485 623 Q 503 595 501 554 Q 501 446 464 393 Q 454 378 458 367 Q 467 349 484 334 Q 496 324 512 338 Q 557 369 646 382 L 696 389 Q 771 399 865 395 Q 886 391 895 398 Q 901 404 896 415 Q 890 425 854 446 Q 836 456 762 444 Q 744 444 696 435 L 645 427 Q 596 420 551 407 Q 539 403 537 406 Q 528 413 533 433 Q 546 554 560 589 Q 564 599 560 607 L 547 622 Z"/>
  <path id="z36729d7" d="M 646 382 Q 647 120 628 106 Q 616 99 526 116 Q 513 117 515 110 Q 516 103 528 97 Q 610 39 641 1 Q 657 -15 671 0 Q 699 27 700 111 Q 696 163 696 389 L 696 435 Q 696 498 707 527 Q 716 546 699 559 Q 674 581 643 590 Q 625 597 617 589 Q 611 582 622 567 Q 644 530 645 427 L 646 382 Z"/>
  <path id="z36729d8" d="M 502 271 Q 474 226 436 188 Q 412 155 423 122 Q 427 103 450 112 Q 505 142 518 210 Q 528 241 526 267 Q 522 277 517 278 Q 508 278 502 271 Z"/>
  <path id="z36729d9" d="M 759 267 Q 808 213 866 135 Q 881 113 896 107 Q 905 106 913 114 Q 926 127 919 172 Q 910 226 763 299 Q 754 305 751 293 Q 750 280 759 267 Z"/>
<defs>
  <clipPath id="z36729c1"><use href="#z36729d1"/></clipPath>
  <clipPath id="z36729c2"><use href="#z36729d2"/></clipPath>
  <clipPath id="z36729c3"><use href="#z36729d3"/></clipPath>
  <clipPath id="z36729c4"><use href="#z36729d4"/></clipPath>
  <clipPath id="z36729c5"><use href="#z36729d5"/></clipPath>
  <clipPath id="z36729c6"><use href="#z36729d6"/></clipPath>
  <clipPath id="z36729c7"><use href="#z36729d7"/></clipPath>
  <clipPath id="z36729c8"><use href="#z36729d8"/></clipPath>
  <clipPath id="z36729c9"><use href="#z36729d9"/></clipPath>
</defs>
<path style="--d:1s;" pathLength="3333" clip-path="url(#z36729c1)" d="M 164 634 L 234 632 L 392 677 L 442 679"/>
<path style="--d:2s;" pathLength="3333" clip-path="url(#z36729c2)" d="M 303 827 L 323 799 L 333 772 L 277 610 L 205 445 L 195 403 L 239 401 L 398 437 L 434 432"/>
<path style="--d:3s;" pathLength="3333" clip-path="url(#z36729c3)" d="M 319 551 L 330 543 L 348 510 L 345 338 L 331 105 L 343 13"/>
<path style="--d:4s;" pathLength="3333" clip-path="url(#z36729c4)" d="M 101 233 L 156 216 L 436 325"/>
<path style="--d:5s;" pathLength="3333" clip-path="url(#z36729c5)" d="M 795 701 L 731 709 L 601 634 L 567 621 L 560 627"/>
<path style="--d:6s;" pathLength="3333" clip-path="url(#z36729c6)" d="M 490 639 L 524 605 L 528 584 L 522 510 L 504 409 L 505 381 L 529 379 L 628 402 L 798 423 L 850 421 L 885 407"/>
<path style="--d:7s;" pathLength="3333" clip-path="url(#z36729c7)" d="M 626 583 L 659 553 L 671 532 L 666 102 L 654 70 L 643 63 L 522 110"/>
<path style="--d:8s;" pathLength="3333" clip-path="url(#z36729c8)" d="M 515 267 L 491 208 L 439 125"/>
<path style="--d:9s;" pathLength="3333" clip-path="url(#z36729c9)" d="M 761 288 L 819 240 L 876 181 L 889 158 L 898 122"/>
</svg>