<svg id="z36139" class="acjk" viewBox="0 0 1024 1024" xmlns="http://www.w3.org/2000/svg">
  <path id="z36139d1" d="M 342 781 Q 346 762 337 747 Q 306 701 264 659 Q 224 619 172 577 Q 162 570 158 565 Q 154 556 165 556 Q 213 552 357 680 Q 384 707 402 717 Q 412 724 412 737 Q 411 749 391 774 Q 372 795 356 799 Q 340 800 342 781 Z"/>
  <path id="z36139d2" d="M 544 836 Q 550 832 557 828 Q 578 818 663 720 Q 780 584 840 586 Q 847 587 855 589 Q 904 599 940 606 Q 952 609 963 614 Q 969 621 958 627 Q 945 634 838 664 Q 745 689 606 834 Q 588 853 560 856 Q 548 857 539 850 Q 535 843 544 836 Z"/>
  <path id="z36139d3" d="M 453 638 Q 514 657 564 666 Q 580 669 583 664 Q 589 657 587 638 Q 586 586 576 561 Q 560 533 534 538 Q 515 542 498 549 Q 476 556 491 534 Q 525 497 540 468 Q 552 453 564 463 Q 612 491 641 616 Q 648 647 661 662 Q 671 674 666 684 Q 659 694 611 715 Q 592 722 574 710 Q 556 700 485 681 Q 415 660 353 655 Q 337 654 335 645 Q 334 638 356 628 Q 378 615 396 622 Q 409 626 425 631 L 453 638 Z"/>
  <path id="z36139d4" d="M 425 631 Q 424 631 425 630 Q 425 575 289 455 Q 280 452 277 443 Q 277 439 281 439 Q 311 433 391 501 Q 425 532 449 559 Q 462 577 472 584 Q 479 591 475 604 Q 466 625 453 638 C 433 660 427 661 425 631 Z"/>
  <path id="z36139d5" d="M 374 411 Q 373 412 372 413 Q 350 429 325 436 Q 318 437 311 430 Q 308 424 315 415 Q 339 364 324 236 Q 311 203 317 178 Q 327 147 337 135 Q 347 123 357 136 Q 378 161 379 273 Q 379 357 384 382 C 387 401 387 401 374 411 Z"/>
  <path id="z36139d6" d="M 630 208 Q 623 186 636 165 Q 649 137 658 138 Q 671 139 687 171 Q 700 196 700 216 Q 681 354 708 393 Q 721 415 699 427 Q 674 446 637 462 Q 621 468 599 460 Q 500 420 374 411 C 344 409 355 375 384 382 Q 387 385 498 403 Q 597 425 619 410 Q 626 395 630 355 Q 636 232 630 208 Z"/>
  <path id="z36139d7" d="M 471 289 Q 477 142 431 85 Q 386 31 227 -19 Q 214 -20 211 -23 Q 205 -27 219 -33 Q 304 -46 426 13 Q 444 23 458 37 Q 510 88 522 234 Q 525 291 537 317 Q 541 327 533 335 Q 517 351 484 364 Q 465 373 448 367 Q 430 360 445 344 Q 470 317 471 289 Z"/>
  <path id="z36139d8" d="M 597 95 Q 648 46 707 -23 Q 723 -45 740 -50 Q 749 -51 757 -41 Q 770 -28 758 19 Q 751 61 674 96 Q 626 118 599 128 Q 589 134 587 121 Q 586 106 597 95 Z"/>
<defs>
  <clipPath id="z36139c1"><use href="#z36139d1"/></clipPath>
  <clipPath id="z36139c2"><use href="#z36139d2"/></clipPath>
  <clipPath id="z36139c3"><use href="#z36139d3"/></clipPath>
  <clipPath id="z36139c4"><use href="#z36139d4"/></clipPath>
  <clipPath id="z36139c5"><use href="#z36139d5"/></clipPath>
  <clipPath id="z36139c6"><use href="#z36139d6"/></clipPath>
  <clipPath id="z36139c7"><use href="#z36139d7"/></clipPath>
  <clipPath id="z36139c8"><use href="#z36139d8"/></clipPath>
</defs>
<path style="--d:1s;" pathLength="3333" clip-path="url(#z36139c1)" d="M 354 786 L 372 748 L 371 738 L 356 720 L 267 631 L 197 578 L 165 563"/>
<path style="--d:2s;" pathLength="3333" clip-path="url(#z36139c2)" d="M 548 845 L 575 836 L 592 823 L 704 708 L 792 642 L 834 625 L 955 618"/>
<path style="--d:3s;" pathLength="3333" clip-path="url(#z36139c3)" d="M 343 644 L 386 639 L 580 689 L 609 683 L 621 670 L 613 611 L 599 554 L 584 527 L 559 504 L 492 543"/>
<path style="--d:4s;" pathLength="3333" clip-path="url(#z36139c4)" d="M 433 631 L 446 610 L 446 599 L 420 560 L 354 490 L 283 445"/>
<path style="--d:5s;" pathLength="3333" clip-path="url(#z36139c5)" d="M 322 425 L 344 404 L 355 381 L 347 140"/>
<path style="--d:6s;" pathLength="3333" clip-path="url(#z36139c6)" d="M 382 390 L 400 401 L 483 410 L 600 438 L 621 438 L 645 426 L 665 397 L 661 322 L 666 213 L 659 149"/>
<path style="--d:7s;" pathLength="3333" clip-path="url(#z36139c7)" d="M 450 355 L 482 337 L 501 311 L 490 167 L 461 83 L 436 52 L 376 15 L 289 -16 L 216 -27"/>
<path style="--d:8s;" pathLength="3333" clip-path="url(#z36139c8)" d="M 598 115 L 712 29 L 741 -33"/>
</svg>