<svg id="z33176" class="acjk" viewBox="0 0 1024 1024" xmlns="http://www.w3.org/2000/svg">
  <path id="z33176d1" d="M 200 389 Q 207 444 209 496 L 210 531 Q 211 598 214 666 C 215 685 215 685 199 694 Q 186 703 165 710 Q 146 717 135 712 Q 125 705 132 692 Q 153 668 158 609 Q 158 596 159 578 Q 168 413 138 288 Q 114 197 48 57 Q 44 50 42 45 Q 41 35 51 38 Q 63 41 96 91 Q 163 182 196 357 L 200 389 Z"/>
  <path id="z33176d2" d="M 214 666 Q 230 669 280 688 Q 298 694 303 685 Q 318 646 318 352 Q 315 117 301 96 Q 297 90 278 95 Q 256 99 234 103 Q 215 109 217 100 Q 265 55 293 23 Q 306 4 320 0 Q 329 -4 337 6 Q 376 51 374 104 Q 364 282 364 622 Q 364 656 375 674 Q 387 692 375 702 Q 354 718 320 732 Q 302 739 288 732 Q 264 716 249 710 Q 233 703 199 694 C 170 686 185 658 214 666 Z"/>
  <path id="z33176d3" d="M 209 496 Q 251 506 286 512 Q 308 518 298 529 Q 286 542 262 543 Q 241 543 210 531 C 182 520 180 489 209 496 Z"/>
  <path id="z33176d4" d="M 196 357 Q 251 367 292 372 Q 314 376 305 389 Q 295 402 270 405 Q 228 408 200 389 C 175 373 166 352 196 357 Z"/>
  <path id="z33176d5" d="M 700 751 Q 728 758 763 763 Q 811 773 818 780 Q 825 787 822 794 Q 816 804 792 811 Q 768 817 672 787 Q 585 765 484 756 Q 453 752 475 736 Q 499 724 531 722 L 558 725 Q 607 735 658 743 L 700 751 Z"/>
  <path id="z33176d6" d="M 467 622 Q 455 628 423 630 Q 413 631 410 627 Q 406 621 414 609 Q 444 561 468 480 Q 472 455 489 440 Q 507 424 509 437 Q 510 444 510 452 L 506 477 Q 505 484 503 491 Q 482 563 475 592 C 468 621 468 622 467 622 Z"/>
  <path id="z33176d7" d="M 748 489 Q 760 467 772 458 Q 781 449 797 467 Q 810 480 843 561 Q 853 589 877 610 Q 890 620 880 634 Q 867 650 831 677 Q 813 687 798 682 Q 764 675 725 667 L 673 658 Q 637 654 598 645 L 556 638 Q 507 631 467 622 C 438 616 446 584 475 592 Q 511 602 560 613 L 600 621 Q 633 628 672 635 L 721 642 Q 731 645 744 646 Q 784 653 796 639 Q 803 629 800 619 Q 773 529 761 520 C 745 495 745 494 748 489 Z"/>
  <path id="z33176d8" d="M 531 722 Q 530 719 532 713 Q 547 689 556 638 L 560 613 Q 564 570 577 491 C 582 461 615 468 612 498 Q 605 565 600 621 L 598 645 Q 595 666 595 685 Q 598 700 590 706 Q 574 719 558 725 C 530 737 530 737 531 722 Z"/>
  <path id="z33176d9" d="M 725 667 Q 732 697 740 714 Q 744 721 728 735 Q 712 745 700 751 C 673 765 644 770 658 743 Q 659 742 661 737 Q 671 719 673 658 L 672 635 Q 671 577 665 510 C 662 480 695 488 700 518 Q 710 582 721 642 L 725 667 Z"/>
  <path id="z33176d10" d="M 510 452 Q 519 451 531 453 Q 652 475 748 489 C 778 493 790 512 761 520 Q 757 521 751 523 Q 732 526 700 518 L 665 510 Q 637 506 612 498 L 577 491 Q 540 485 506 477 C 477 470 480 453 510 452 Z"/>
  <path id="z33176d11" d="M 531 386 Q 498 380 522 365 Q 564 344 612 358 Q 669 370 728 384 Q 756 390 760 394 Q 767 401 763 409 Q 756 419 729 426 Q 702 430 675 419 Q 644 409 611 399 Q 574 392 531 386 Z"/>
  <path id="z33176d12" d="M 642 274 Q 738 289 889 290 Q 908 291 912 299 Q 916 311 901 323 Q 850 356 817 348 Q 708 323 407 273 Q 388 270 402 255 Q 415 242 433 238 Q 452 234 467 238 Q 528 257 598 267 L 642 274 Z"/>
  <path id="z33176d13" d="M 598 267 Q 611 230 611 121 Q 610 84 606 74 Q 602 61 579 66 Q 557 70 532 74 Q 520 75 519 68 Q 518 62 528 53 Q 586 1 605 -30 Q 618 -43 630 -42 Q 642 -38 654 -3 Q 670 31 669 95 Q 665 173 666 200 Q 673 242 655 263 Q 648 270 642 274 C 619 293 590 296 598 267 Z"/>
  <path id="z33176d14" d="M 478 186 Q 456 147 427 114 Q 405 89 419 56 Q 423 40 444 49 Q 490 77 495 133 Q 502 161 498 184 Q 495 191 490 193 Q 483 193 478 186 Z"/>
  <path id="z33176d15" d="M 746 188 Q 789 139 840 67 Q 853 45 868 40 Q 877 37 885 46 Q 898 58 891 102 Q 888 141 819 182 Q 774 207 750 218 Q 743 225 739 213 Q 736 200 746 188 Z"/>
<defs>
  <clipPath id="z33176c1"><use href="#z33176d1"/></clipPath>
  <clipPath id="z33176c2"><use href="#z33176d2"/></clipPath>
  <clipPath id="z33176c3"><use href="#z33176d3"/></clipPath>
  <clipPath id="z33176c4"><use href="#z33176d4"/></clipPath>
  <clipPath id="z33176c5"><use href="#z33176d5"/></clipPath>
  <clipPath id="z33176c6"><use href="#z33176d6"/></clipPath>
  <clipPath id="z33176c7"><use href="#z33176d7"/></clipPath>
  <clipPath id="z33176c8"><use href="#z33176d8"/></clipPath>
  <clipPath id="z33176c9"><use href="#z33176d9"/></clipPath>
  <clipPath id="z33176c10"><use href="#z33176d10"/></clipPath>
  <clipPath id="z33176c11"><use href="#z33176d11"/></clipPath>
  <clipPath id="z33176c12"><use href="#z33176d12"/></clipPath>
  <clipPath id="z33176c13"><use href="#z33176d13"/></clipPath>
  <clipPath id="z33176c14"><use href="#z33176d14"/></clipPath>
  <clipPath id="z33176c15"><use href="#z33176d15"/></clipPath>
</defs>
<path style="--d:1s;" pathLength="3333" clip-path="url(#z33176c1)" d="M 143 701 L 177 672 L 185 629 L 185 475 L 174 351 L 163 297 L 128 189 L 80 89 L 50 46"/>
<path style="--d:2s;" pathLength="3333" clip-path="url(#z33176c2)" d="M 209 690 L 222 684 L 303 712 L 331 696 L 340 683 L 343 276 L 338 90 L 320 57 L 289 66 L 226 98"/>
<path style="--d:3s;" pathLength="3333" clip-path="url(#z33176c3)" d="M 216 502 L 236 521 L 267 526 L 290 522"/>
<path style="--d:4s;" pathLength="3333" clip-path="url(#z33176c4)" d="M 203 362 L 216 377 L 236 384 L 271 387 L 296 382"/>
<path style="--d:5s;" pathLength="3333" clip-path="url(#z33176c5)" d="M 477 747 L 536 741 L 648 760 L 747 785 L 811 790"/>
<path style="--d:6s;" pathLength="3333" clip-path="url(#z33176c6)" d="M 418 622 L 446 603 L 499 441"/>
<path style="--d:7s;" pathLength="3333" clip-path="url(#z33176c7)" d="M 479 601 L 486 611 L 653 645 L 780 664 L 810 659 L 831 638 L 837 622 L 780 491 L 781 473"/>
<path style="--d:8s;" pathLength="3333" clip-path="url(#z33176c8)" d="M 538 718 L 563 699 L 572 678 L 591 521 L 591 511 L 581 501"/>
<path style="--d:9s;" pathLength="3333" clip-path="url(#z33176c9)" d="M 665 743 L 703 710 L 687 545 L 680 526 L 669 518"/>
<path style="--d:10s;" pathLength="3333" clip-path="url(#z33176c10)" d="M 514 472 L 522 466 L 604 480 L 735 506 L 755 517"/>
<path style="--d:11s;" pathLength="3333" clip-path="url(#z33176c11)" d="M 524 377 L 547 371 L 586 373 L 710 404 L 752 403"/>
<path style="--d:12s;" pathLength="3333" clip-path="url(#z33176c12)" d="M 405 264 L 451 258 L 663 298 L 819 318 L 852 318 L 901 304"/>
<path style="--d:13s;" pathLength="3333" clip-path="url(#z33176c13)" d="M 606 265 L 636 235 L 640 104 L 635 56 L 618 26 L 528 67"/>
<path style="--d:14s;" pathLength="3333" clip-path="url(#z33176c14)" d="M 488 183 L 470 128 L 440 80 L 434 60"/>
<path style="--d:15s;" pathLength="3333" clip-path="url(#z33176c15)" d="M 748 207 L 846 119 L 863 89 L 872 55"/>
</svg>