<svg id="z38690" class="acjk" viewBox="0 0 1024 1024" xmlns="http://www.w3.org/2000/svg">
  <path id="z38690d1" d="M 508 766 Q 566 779 628 788 Q 668 797 674 802 Q 683 809 679 817 Q 672 827 646 835 Q 627 841 516 809 Q 389 791 377 790 Q 343 786 367 769 Q 398 748 472 760 L 508 766 Z"/>
  <path id="z38690d2" d="M 275 672 Q 265 691 256 698 Q 240 711 238 688 Q 244 655 193 592 Q 177 571 201 526 Q 217 507 230 528 L 277 646 C 282 659 282 659 275 672 Z"/>
  <path id="z38690d3" d="M 531 681 Q 705 709 729 703 Q 745 697 742 688 Q 742 685 714 622 Q 705 607 711 604 Q 718 600 736 611 Q 788 644 830 653 Q 864 660 864 671 Q 863 681 795 732 Q 771 754 676 733 Q 591 724 534 711 L 484 704 Q 436 698 383 688 Q 331 678 279 673 Q 276 673 275 672 C 245 668 249 657 277 646 Q 304 630 338 640 Q 431 670 486 674 L 531 681 Z"/>
  <path id="z38690d4" d="M 486 674 Q 486 620 476 557 Q 467 529 493 498 Q 500 488 510 498 Q 529 528 528 563 Q 527 588 531 663 Q 531 673 531 681 L 534 711 Q 535 718 537 725 Q 543 744 525 755 Q 516 761 508 766 C 483 782 466 789 472 760 Q 472 757 473 753 Q 483 728 484 704 L 486 674 Z"/>
  <path id="z38690d5" d="M 351 605 Q 402 574 419 577 Q 429 580 429 595 Q 428 605 415 618 Q 394 633 348 626 Q 341 625 343 616 Q 344 610 351 605 Z"/>
  <path id="z38690d6" d="M 339 541 Q 388 502 410 506 Q 420 507 422 523 Q 421 533 409 546 Q 387 568 337 562 Q 330 561 331 552 Q 331 546 339 541 Z"/>
  <path id="z38690d7" d="M 591 637 Q 640 603 658 606 Q 668 607 669 623 Q 668 633 656 646 Q 635 664 588 658 Q 581 657 583 648 Q 584 642 591 637 Z"/>
  <path id="z38690d8" d="M 582 564 Q 633 525 654 526 Q 664 527 666 543 Q 665 553 654 567 Q 644 577 624 580 Q 593 586 581 585 Q 574 585 575 576 Q 575 569 582 564 Z"/>
  <path id="z38690d9" d="M 247 247 Q 251 278 255 310 L 258 341 Q 262 386 268 431 C 270 443 270 443 250 455 Q 241 462 227 467 Q 211 474 202 470 Q 192 464 198 453 Q 231 411 201 218 Q 197 202 193 185 Q 177 127 128 33 Q 124 29 123 23 Q 122 14 130 17 Q 154 23 202 108 Q 209 124 217 141 Q 230 178 241 221 L 247 247 Z"/>
  <path id="z38690d10" d="M 268 431 Q 271 432 275 433 Q 303 440 330 448 Q 343 452 350 445 Q 357 438 357 415 Q 364 234 357 123 Q 356 102 350 92 Q 344 88 284 103 Q 268 107 269 100 Q 317 60 342 31 Q 352 15 365 12 Q 372 8 379 16 Q 409 52 410 113 Q 389 395 411 435 Q 421 451 411 459 Q 395 474 365 485 Q 350 491 338 486 Q 301 464 250 455 C 221 449 239 423 268 431 Z"/>
  <path id="z38690d11" d="M 255 310 Q 298 319 330 323 Q 349 327 341 338 Q 331 348 310 351 Q 291 352 258 341 C 229 332 226 304 255 310 Z"/>
  <path id="z38690d12" d="M 241 221 L 333 232 Q 352 235 345 246 Q 336 258 315 261 Q 285 265 247 247 C 220 234 211 217 241 221 Z"/>
  <path id="z38690d13" d="M 558 425 Q 660 456 696 475 Q 733 491 766 498 Q 781 499 784 505 Q 787 515 777 524 Q 729 560 697 556 Q 678 520 657 504 Q 594 467 550 442 C 524 427 529 416 558 425 Z"/>
  <path id="z38690d14" d="M 550 442 Q 537 454 514 463 Q 498 470 486 466 Q 476 460 483 448 Q 526 396 477 169 L 475 163 Q 457 103 405 3 Q 401 -3 399 -8 Q 398 -18 406 -15 Q 439 -6 494 102 Q 495 109 500 116 Q 539 216 551 390 Q 552 411 558 425 C 561 434 561 434 550 442 Z"/>
  <path id="z38690d15" d="M 641 330 Q 732 378 780 396 Q 796 397 795 408 Q 792 423 778 442 Q 765 461 745 466 Q 732 467 730 451 Q 730 429 627 346 C 604 327 614 316 641 330 Z"/>
  <path id="z38690d16" d="M 641 323 Q 641 327 641 330 C 642 339 642 339 627 346 Q 615 353 588 361 Q 575 364 569 359 Q 563 355 572 338 Q 608 290 591 137 Q 588 116 582 100 Q 576 69 545 34 Q 535 24 542 6 Q 549 -18 561 -29 Q 571 -36 583 -25 Q 617 21 725 113 Q 738 123 740 130 Q 741 136 736 135 Q 729 134 643 85 Q 636 82 633 84 Q 626 88 638 294 L 641 323 Z"/>
  <path id="z38690d17" d="M 725 241 Q 804 286 843 302 Q 859 305 856 314 Q 853 329 838 346 Q 823 362 805 366 Q 792 367 791 351 Q 792 332 713 252 C 692 231 699 226 725 241 Z"/>
  <path id="z38690d18" d="M 713 252 Q 701 262 641 323 C 620 344 620 318 638 294 Q 708 197 798 92 Q 814 76 840 77 Q 930 81 959 87 Q 966 88 968 93 Q 968 97 956 103 Q 827 154 759 211 Q 743 226 725 241 L 713 252 Z"/>
<defs>
  <clipPath id="z38690c1"><use href="#z38690d1"/></clipPath>
  <clipPath id="z38690c2"><use href="#z38690d2"/></clipPath>
  <clipPath id="z38690c3"><use href="#z38690d3"/></clipPath>
  <clipPath id="z38690c4"><use href="#z38690d4"/></clipPath>
  <clipPath id="z38690c5"><use href="#z38690d5"/></clipPath>
  <clipPath id="z38690c6"><use href="#z38690d6"/></clipPath>
  <clipPath id="z38690c7"><use href="#z38690d7"/></clipPath>
  <clipPath id="z38690c8"><use href="#z38690d8"/></clipPath>
  <clipPath id="z38690c9"><use href="#z38690d9"/></clipPath>
  <clipPath id="z38690c10"><use href="#z38690d10"/></clipPath>
  <clipPath id="z38690c11"><use href="#z38690d11"/></clipPath>
  <clipPath id="z38690c12"><use href="#z38690d12"/></clipPath>
  <clipPath id="z38690c13"><use href="#z38690d13"/></clipPath>
  <clipPath id="z38690c14"><use href="#z38690d14"/></clipPath>
  <clipPath id="z38690c15"><use href="#z38690d15"/></clipPath>
  <clipPath id="z38690c16"><use href="#z38690d16"/></clipPath>
  <clipPath id="z38690c17"><use href="#z38690d17"/></clipPath>
  <clipPath id="z38690c18"><use href="#z38690d18"/></clipPath>
</defs>
<path style="--d:1s;" pathLength="3333" clip-path="url(#z38690c1)" d="M 369 781 L 425 775 L 526 790 L 593 807 L 668 812"/>
<path style="--d:2s;" pathLength="3333" clip-path="url(#z38690c2)" d="M 247 692 L 257 664 L 255 651 L 216 573 L 215 533"/>
<path style="--d:3s;" pathLength="3333" clip-path="url(#z38690c3)" d="M 279 666 L 293 657 L 326 657 L 600 709 L 714 723 L 759 716 L 773 707 L 784 682 L 716 609"/>
<path style="--d:4s;" pathLength="3333" clip-path="url(#z38690c4)" d="M 479 757 L 509 731 L 502 503"/>
<path style="--d:5s;" pathLength="3333" clip-path="url(#z38690c5)" d="M 355 616 L 401 602 L 415 589"/>
<path style="--d:6s;" pathLength="3333" clip-path="url(#z38690c6)" d="M 342 552 L 384 537 L 406 521"/>
<path style="--d:7s;" pathLength="3333" clip-path="url(#z38690c7)" d="M 595 648 L 634 635 L 655 620"/>
<path style="--d:8s;" pathLength="3333" clip-path="url(#z38690c8)" d="M 586 575 L 633 556 L 651 540"/>
<path style="--d:9s;" pathLength="3333" clip-path="url(#z38690c9)" d="M 207 460 L 232 438 L 240 412 L 226 245 L 214 191 L 184 105 L 148 44 L 130 25"/>
<path style="--d:10s;" pathLength="3333" clip-path="url(#z38690c10)" d="M 259 452 L 272 446 L 348 468 L 364 463 L 383 444 L 381 92 L 364 59 L 323 75 L 294 95 L 277 97"/>
<path style="--d:11s;" pathLength="3333" clip-path="url(#z38690c11)" d="M 262 317 L 272 330 L 284 333 L 333 332"/>
<path style="--d:12s;" pathLength="3333" clip-path="url(#z38690c12)" d="M 248 226 L 258 238 L 286 244 L 337 241"/>
<path style="--d:13s;" pathLength="3333" clip-path="url(#z38690c13)" d="M 775 510 L 760 516 L 713 518 L 666 484 L 566 437 L 558 441"/>
<path style="--d:14s;" pathLength="3333" clip-path="url(#z38690c14)" d="M 491 456 L 526 423 L 525 343 L 511 231 L 492 151 L 473 100 L 438 33 L 407 -7"/>
<path style="--d:15s;" pathLength="3333" clip-path="url(#z38690c15)" d="M 744 452 L 753 420 L 661 355 L 646 347 L 640 350"/>
<path style="--d:16s;" pathLength="3333" clip-path="url(#z38690c16)" d="M 576 353 L 613 319 L 617 281 L 607 57 L 648 67 L 736 131"/>
<path style="--d:17s;" pathLength="3333" clip-path="url(#z38690c17)" d="M 845 313 L 815 324 L 729 257 L 730 252"/>
<path style="--d:18s;" pathLength="3333" clip-path="url(#z38690c18)" d="M 648 300 L 740 197 L 830 117 L 960 95"/>
</svg>