<svg id="z32808" class="acjk" viewBox="0 0 1024 1024" xmlns="http://www.w3.org/2000/svg">
  <path id="z32808d1" d="M 337 623 Q 374 633 416 640 Q 453 649 459 654 Q 466 661 463 669 Q 456 679 430 687 Q 402 691 339 669 L 296 657 Q 290 657 287 655 Q 236 643 176 638 Q 143 632 167 617 Q 203 599 269 610 Q 281 613 297 615 L 337 623 Z"/>
  <path id="z32808d2" d="M 335 517 Q 363 524 392 529 Q 423 536 427 541 Q 434 548 431 555 Q 424 564 401 570 Q 377 574 336 558 L 297 546 Q 288 545 281 542 Q 239 532 190 526 Q 162 522 182 508 Q 215 490 272 503 Q 282 506 296 507 L 335 517 Z"/>
  <path id="z32808d3" d="M 332 417 Q 378 427 434 436 Q 450 439 450 446 Q 451 458 434 466 Q 401 479 333 457 L 293 447 Q 151 416 76 405 Q 63 404 61 396 Q 58 386 73 375 Q 112 351 149 364 Q 222 389 276 403 L 332 417 Z"/>
  <path id="z32808d4" d="M 333 457 Q 333 485 335 517 L 336 558 Q 336 591 337 623 L 339 669 Q 343 727 356 769 Q 365 782 362 796 Q 355 805 303 837 Q 281 853 262 839 Q 258 835 263 820 Q 296 771 296 722 Q 296 691 296 657 L 297 615 Q 297 582 297 546 L 296 507 Q 295 479 293 447 L 291 349 Q 285 217 274 163 Q 253 84 273 41 Q 274 35 278 29 Q 284 13 291 9 Q 297 3 304 10 Q 311 14 321 34 Q 331 58 330 87 Q 329 121 332 347 L 332 371 Q 332 393 332 417 L 333 457 Z"/>
  <path id="z32808d5" d="M 276 403 Q 218 300 65 148 Q 59 139 69 138 Q 73 137 83 142 Q 206 221 291 349 C 336 416 291 429 276 403 Z"/>
  <path id="z32808d6" d="M 332 347 Q 377 316 391 316 Q 401 317 403 330 Q 402 339 393 351 Q 372 372 332 371 C 302 371 307 364 332 347 Z"/>
  <path id="z32808d7" d="M 561 725 Q 595 725 737 749 Q 750 753 767 755 Q 801 762 807 768 Q 814 775 811 782 Q 804 792 779 799 Q 754 803 679 780 Q 621 765 554 756 C 524 752 531 724 561 725 Z"/>
  <path id="z32808d8" d="M 543 580 Q 543 655 559 719 Q 559 723 561 725 C 567 747 567 747 554 756 Q 541 766 522 775 Q 506 784 494 780 Q 484 774 490 762 Q 529 714 478 463 Q 471 433 461 403 Q 431 322 361 207 Q 357 201 356 196 Q 353 186 362 189 Q 390 195 459 304 Q 469 325 481 347 Q 520 440 540 558 L 543 580 Z"/>
  <path id="z32808d9" d="M 597 668 Q 569 662 590 651 Q 618 638 674 650 Q 708 659 746 667 Q 765 671 768 675 Q 775 681 771 687 Q 765 696 743 700 Q 721 704 698 694 Q 676 685 653 679 Q 628 672 597 668 Z"/>
  <path id="z32808d10" d="M 659 563 Q 833 602 835 603 Q 841 609 838 615 Q 834 624 811 630 Q 789 634 766 626 Q 717 610 665 598 Q 608 586 543 580 C 513 577 512 568 540 558 Q 547 555 559 552 C 584 545 584 545 599 551 Q 600 554 636 559 L 659 563 Z"/>
  <path id="z32808d11" d="M 559 552 Q 592 483 559 412 Q 532 387 566 346 Q 569 343 573 340 Q 580 334 590 348 Q 614 379 692 454 Q 705 466 706 472 Q 707 482 691 473 Q 616 430 609 432 Q 605 435 604 449 Q 610 506 613 520 Q 617 535 607 544 Q 603 548 599 551 C 576 571 547 579 559 552 Z"/>
  <path id="z32808d12" d="M 773 480 Q 830 511 859 521 Q 872 522 869 531 Q 866 543 854 557 Q 842 572 827 575 Q 817 576 815 562 Q 815 550 759 488 C 739 466 747 466 773 480 Z"/>
  <path id="z32808d13" d="M 759 488 Q 702 524 659 563 C 637 583 615 581 636 559 Q 717 474 803 396 Q 821 380 849 380 Q 901 379 954 391 Q 967 392 969 396 Q 970 402 960 405 Q 812 454 773 480 L 759 488 Z"/>
  <path id="z32808d14" d="M 751 275 Q 817 284 946 284 Q 964 285 968 293 Q 972 303 957 315 Q 903 354 841 333 Q 804 327 756 315 L 698 305 Q 599 289 487 272 Q 468 271 482 255 Q 495 243 511 238 Q 530 234 544 238 Q 652 268 699 269 L 751 275 Z"/>
  <path id="z32808d15" d="M 662 42 Q 632 46 602 51 Q 590 54 591 46 Q 592 39 603 32 Q 670 -26 694 -62 Q 709 -78 724 -64 Q 760 -31 758 41 Q 751 116 750 269 Q 750 273 751 275 L 756 315 Q 757 325 763 335 Q 772 354 755 367 Q 730 389 699 398 Q 681 405 673 397 Q 667 391 678 375 Q 697 342 698 305 L 699 269 Q 705 61 685 44 Q 676 37 662 42 Z"/>
  <path id="z32808d16" d="M 515 168 Q 554 120 578 109 Q 591 106 600 117 Q 606 127 604 143 Q 597 179 528 201 Q 515 205 505 203 Q 501 202 502 191 Q 503 181 515 168 Z"/>
<defs>
  <clipPath id="z32808c1"><use href="#z32808d1"/></clipPath>
  <clipPath id="z32808c2"><use href="#z32808d2"/></clipPath>
  <clipPath id="z32808c3"><use href="#z32808d3"/></clipPath>
  <clipPath id="z32808c4"><use href="#z32808d4"/></clipPath>
  <clipPath id="z32808c5"><use href="#z32808d5"/></clipPath>
  <clipPath id="z32808c6"><use href="#z32808d6"/></clipPath>
  <clipPath id="z32808c7"><use href="#z32808d7"/></clipPath>
  <clipPath id="z32808c8"><use href="#z32808d8"/></clipPath>
  <clipPath id="z32808c9"><use href="#z32808d9"/></clipPath>
  <clipPath id="z32808c10"><use href="#z32808d10"/></clipPath>
  <clipPath id="z32808c11"><use href="#z32808d11"/></clipPath>
  <clipPath id="z32808c12"><use href="#z32808d12"/></clipPath>
  <clipPath id="z32808c13"><use href="#z32808d13"/></clipPath>
  <clipPath id="z32808c14"><use href="#z32808d14"/></clipPath>
  <clipPath id="z32808c15"><use href="#z32808d15"/></clipPath>
  <clipPath id="z32808c16"><use href="#z32808d16"/></clipPath>
</defs>
<path style="--d:1s;" pathLength="3333" clip-path="url(#z32808c1)" d="M 169 629 L 241 625 L 390 660 L 452 664"/>
<path style="--d:2s;" pathLength="3333" clip-path="url(#z32808c2)" d="M 184 518 L 243 515 L 364 546 L 421 550"/>
<path style="--d:3s;" pathLength="3333" clip-path="url(#z32808c3)" d="M 72 392 L 103 385 L 135 388 L 362 444 L 416 452 L 439 449"/>
<path style="--d:4s;" pathLength="3333" clip-path="url(#z32808c4)" d="M 273 833 L 313 794 L 323 772 L 312 309 L 296 99 L 297 21"/>
<path style="--d:5s;" pathLength="3333" clip-path="url(#z32808c5)" d="M 290 400 L 281 393 L 270 353 L 224 291 L 131 193 L 74 146"/>
<path style="--d:6s;" pathLength="3333" clip-path="url(#z32808c6)" d="M 339 365 L 390 329"/>
<path style="--d:7s;" pathLength="3333" clip-path="url(#z32808c7)" d="M 563 750 L 574 742 L 745 775 L 800 777"/>
<path style="--d:8s;" pathLength="3333" clip-path="url(#z32808c8)" d="M 500 769 L 530 739 L 532 718 L 518 553 L 499 459 L 477 388 L 438 303 L 363 196"/>
<path style="--d:9s;" pathLength="3333" clip-path="url(#z32808c9)" d="M 591 661 L 632 658 L 711 680 L 760 683"/>
<path style="--d:10s;" pathLength="3333" clip-path="url(#z32808c10)" d="M 546 563 L 670 579 L 802 614 L 832 610"/>
<path style="--d:11s;" pathLength="3333" clip-path="url(#z32808c11)" d="M 566 546 L 592 527 L 586 430 L 592 402 L 632 419 L 679 453 L 681 463 L 698 471"/>
<path style="--d:12s;" pathLength="3333" clip-path="url(#z32808c12)" d="M 827 563 L 833 538 L 776 493 L 769 497"/>
<path style="--d:13s;" pathLength="3333" clip-path="url(#z32808c13)" d="M 643 555 L 655 554 L 766 458 L 827 418 L 856 409 L 961 397"/>
<path style="--d:14s;" pathLength="3333" clip-path="url(#z32808c14)" d="M 484 264 L 520 256 L 549 259 L 636 279 L 880 312 L 958 298"/>
<path style="--d:15s;" pathLength="3333" clip-path="url(#z32808c15)" d="M 682 391 L 728 344 L 722 31 L 703 1 L 598 45"/>
<path style="--d:16s;" pathLength="3333" clip-path="url(#z32808c16)" d="M 511 195 L 569 151 L 583 128"/>
</svg>