<svg id="z35763" class="acjk" viewBox="0 0 1024 1024" xmlns="http://www.w3.org/2000/svg">
  <path id="z35763d1" d="M 291 725 Q 330 700 371 669 Q 387 656 405 659 Q 417 660 421 676 Q 424 692 410 724 Q 394 760 280 777 Q 262 778 256 775 Q 250 771 254 757 Q 260 745 291 725 Z"/>
  <path id="z35763d2" d="M 172 505 Q 118 489 89 486 Q 73 487 71 478 Q 67 469 79 461 Q 118 439 158 450 Q 273 504 281 502 Q 282 502 286 500 Q 298 493 291 463 Q 291 283 259 174 Q 243 140 292 89 Q 304 76 314 84 Q 321 91 332 118 Q 368 179 446 285 Q 458 298 454 306 Q 451 315 440 303 Q 400 267 360 229 Q 327 198 330 241 Q 329 302 349 456 Q 353 481 376 508 Q 389 518 379 532 Q 367 550 326 567 Q 313 574 295 562 Q 216 519 172 505 Z"/>
  <path id="z35763d3" d="M 663 608 Q 715 621 769 633 Q 812 645 819 651 Q 829 660 823 668 Q 816 680 786 687 Q 755 691 725 679 Q 694 669 663 658 L 615 644 Q 555 631 489 622 Q 452 615 479 599 Q 521 578 590 593 Q 600 596 615 598 L 663 608 Z"/>
  <path id="z35763d4" d="M 662 481 Q 795 511 803 518 Q 812 525 807 533 Q 800 543 773 550 Q 746 554 662 524 L 613 511 Q 564 501 508 494 Q 474 488 499 473 Q 535 454 598 468 Q 604 469 612 470 L 662 481 Z"/>
  <path id="z35763d5" d="M 661 366 Q 817 405 840 387 Q 847 381 846 368 Q 824 229 810 209 Q 803 196 788 201 Q 758 205 727 211 Q 700 212 720 196 Q 780 147 804 112 Q 811 99 824 106 Q 852 124 877 227 Q 893 332 917 357 Q 932 378 926 386 Q 917 399 866 432 Q 847 447 832 440 Q 804 428 750 420 Q 699 413 661 403 L 610 393 Q 577 387 558 380 Q 518 370 488 364 Q 466 360 462 351 Q 459 344 478 335 Q 511 314 543 328 Q 568 340 609 352 L 661 366 Z"/>
  <path id="z35763d6" d="M 661 403 Q 661 439 662 481 L 662 524 Q 662 564 663 608 L 663 658 Q 663 709 678 788 Q 682 807 667 816 Q 633 838 616 842 Q 603 846 586 837 Q 577 828 585 818 Q 591 805 599 793 Q 615 762 616 718 Q 616 684 615 644 L 615 598 Q 614 558 613 511 L 612 470 Q 611 433 610 393 L 609 352 Q 597 1 621 -33 Q 627 -40 635 -38 Q 650 -29 657 34 Q 667 139 665 243 Q 662 282 661 366 L 661 403 Z"/>
<defs>
  <clipPath id="z35763c1"><use href="#z35763d1"/></clipPath>
  <clipPath id="z35763c2"><use href="#z35763d2"/></clipPath>
  <clipPath id="z35763c3"><use href="#z35763d3"/></clipPath>
  <clipPath id="z35763c4"><use href="#z35763d4"/></clipPath>
  <clipPath id="z35763c5"><use href="#z35763d5"/></clipPath>
  <clipPath id="z35763c6"><use href="#z35763d6"/></clipPath>
</defs>
<path style="--d:1s;" pathLength="3333" clip-path="url(#z35763c1)" d="M 262 767 L 366 718 L 402 678"/>
<path style="--d:2s;" pathLength="3333" clip-path="url(#z35763c2)" d="M 83 474 L 122 469 L 161 475 L 281 527 L 319 526 L 328 518 L 302 238 L 301 210 L 310 176 L 349 192 L 448 301"/>
<path style="--d:3s;" pathLength="3333" clip-path="url(#z35763c3)" d="M 481 612 L 503 607 L 576 612 L 765 661 L 813 661"/>
<path style="--d:4s;" pathLength="3333" clip-path="url(#z35763c4)" d="M 501 485 L 570 482 L 762 528 L 796 528"/>
<path style="--d:5s;" pathLength="3333" clip-path="url(#z35763c5)" d="M 471 350 L 521 346 L 606 373 L 794 411 L 842 415 L 861 405 L 883 375 L 847 223 L 824 172 L 815 162 L 720 205"/>
<path style="--d:6s;" pathLength="3333" clip-path="url(#z35763c6)" d="M 594 827 L 641 790 L 643 751 L 631 -28"/>
</svg>