<svg id="z38291" class="acjk" viewBox="0 0 1024 1024" xmlns="http://www.w3.org/2000/svg">
  <path id="z38291d1" d="M 248 729 L 246 731 Q 221 752 193 760 Q 183 763 176 753 Q 172 747 180 736 Q 225 631 203 342 Q 202 336 202 329 Q 195 238 166 150 Q 156 122 161 100 Q 171 63 183 49 Q 196 34 206 49 Q 239 83 244 240 Q 247 423 247 493 L 248 525 Q 249 562 251 592 L 253 627 Q 256 678 261 703 C 263 717 263 717 248 729 Z"/>
  <path id="z38291d2" d="M 351 506 Q 352 505 355 500 Q 376 470 396 495 Q 408 510 414 557 Q 417 666 443 703 Q 455 721 441 734 Q 425 749 395 764 Q 380 770 365 763 Q 310 741 248 729 C 219 723 232 695 261 703 Q 261 704 264 704 Q 352 728 366 721 Q 373 717 373 689 Q 364 541 357 530 C 351 507 351 507 351 506 Z"/>
  <path id="z38291d3" d="M 251 592 Q 293 602 326 608 Q 348 614 338 625 Q 326 638 302 639 Q 283 639 253 627 C 225 616 222 585 251 592 Z"/>
  <path id="z38291d4" d="M 247 493 Q 254 492 264 495 Q 292 502 351 506 C 381 508 383 515 357 530 Q 350 534 339 541 Q 324 548 248 525 C 219 516 217 495 247 493 Z"/>
  <path id="z38291d5" d="M 609 763 Q 585 781 561 790 Q 554 793 549 788 Q 542 784 549 772 Q 577 718 575 588 Q 572 530 604 502 Q 605 501 608 499 Q 624 492 627 521 Q 627 522 627 524 L 628 556 Q 624 605 622 625 L 621 656 Q 621 699 622 733 C 623 753 623 753 609 763 Z"/>
  <path id="z38291d6" d="M 774 542 Q 786 115 762 79 Q 758 72 738 77 Q 711 83 684 90 Q 663 97 664 87 Q 722 35 753 -3 Q 766 -24 783 -28 Q 793 -32 801 -22 Q 844 27 843 86 Q 828 303 824 655 Q 823 716 836 743 Q 849 764 836 775 Q 812 794 774 809 Q 753 816 707 791 Q 668 775 609 763 C 580 756 593 727 622 733 Q 631 733 729 759 Q 745 763 755 755 Q 770 742 769 696 Q 770 633 773 574 L 774 542 Z"/>
  <path id="z38291d7" d="M 622 625 Q 683 635 728 643 Q 750 647 742 660 Q 730 675 704 677 Q 668 680 621 656 C 594 643 592 620 622 625 Z"/>
  <path id="z38291d8" d="M 627 524 Q 634 523 644 525 Q 686 535 774 542 C 804 544 796 555 773 574 Q 772 575 768 578 Q 752 587 724 579 Q 670 564 628 556 C 599 550 597 526 627 524 Z"/>
  <path id="z38291d9" d="M 396 425 Q 396 426 395 426 Q 371 436 357 436 Q 347 432 352 422 Q 391 341 357 225 Q 341 209 361 166 Q 364 160 370 154 Q 377 144 385 148 Q 394 155 401 180 Q 402 184 403 187 L 407 213 Q 408 232 409 289 L 409 317 Q 409 380 411 398 C 413 417 413 417 396 425 Z"/>
  <path id="z38291d10" d="M 521 198 Q 546 164 563 132 Q 570 116 581 116 Q 596 117 610 146 Q 628 180 626 221 Q 622 269 618 357 Q 618 384 633 402 Q 642 412 634 422 Q 618 440 574 462 Q 559 471 545 463 Q 512 450 396 425 C 367 419 381 394 411 398 Q 424 399 442 403 Q 550 422 559 417 Q 574 402 565 273 Q 565 231 557 217 C 548 188 504 222 521 198 Z"/>
  <path id="z38291d11" d="M 409 289 Q 410 289 414 289 Q 466 299 505 304 Q 527 310 517 321 Q 507 334 482 337 Q 433 340 409 317 C 387 297 379 289 409 289 Z"/>
  <path id="z38291d12" d="M 403 187 Q 407 187 413 187 Q 473 194 521 198 C 551 201 570 202 557 217 Q 547 230 523 236 Q 496 239 407 213 C 378 205 373 187 403 187 Z"/>
<defs>
  <clipPath id="z38291c1"><use href="#z38291d1"/></clipPath>
  <clipPath id="z38291c2"><use href="#z38291d2"/></clipPath>
  <clipPath id="z38291c3"><use href="#z38291d3"/></clipPath>
  <clipPath id="z38291c4"><use href="#z38291d4"/></clipPath>
  <clipPath id="z38291c5"><use href="#z38291d5"/></clipPath>
  <clipPath id="z38291c6"><use href="#z38291d6"/></clipPath>
  <clipPath id="z38291c7"><use href="#z38291d7"/></clipPath>
  <clipPath id="z38291c8"><use href="#z38291d8"/></clipPath>
  <clipPath id="z38291c9"><use href="#z38291d9"/></clipPath>
  <clipPath id="z38291c10"><use href="#z38291d10"/></clipPath>
  <clipPath id="z38291c11"><use href="#z38291d11"/></clipPath>
  <clipPath id="z38291c12"><use href="#z38291d12"/></clipPath>
</defs>
<path style="--d:1s;" pathLength="3333" clip-path="url(#z38291c1)" d="M 187 748 L 223 708 L 230 638 L 223 295 L 211 187 L 195 117 L 195 54"/>
<path style="--d:2s;" pathLength="3333" clip-path="url(#z38291c2)" d="M 257 725 L 270 718 L 334 737 L 378 742 L 407 715 L 398 673 L 386 537 L 377 510 L 363 509"/>
<path style="--d:3s;" pathLength="3333" clip-path="url(#z38291c3)" d="M 258 597 L 264 609 L 279 617 L 307 622 L 330 618"/>
<path style="--d:4s;" pathLength="3333" clip-path="url(#z38291c4)" d="M 251 498 L 265 513 L 349 526"/>
<path style="--d:5s;" pathLength="3333" clip-path="url(#z38291c5)" d="M 556 780 L 580 757 L 593 726 L 600 579 L 613 510"/>
<path style="--d:6s;" pathLength="3333" clip-path="url(#z38291c6)" d="M 618 761 L 632 751 L 753 784 L 770 780 L 799 752 L 798 528 L 807 237 L 804 77 L 795 50 L 783 36 L 754 43 L 674 84"/>
<path style="--d:7s;" pathLength="3333" clip-path="url(#z38291c7)" d="M 629 633 L 639 646 L 664 653 L 709 659 L 732 654"/>
<path style="--d:8s;" pathLength="3333" clip-path="url(#z38291c8)" d="M 631 529 L 650 544 L 737 561 L 757 557 L 764 547"/>
<path style="--d:9s;" pathLength="3333" clip-path="url(#z38291c9)" d="M 361 427 L 381 408 L 390 362 L 390 279 L 378 206 L 380 158"/>
<path style="--d:10s;" pathLength="3333" clip-path="url(#z38291c10)" d="M 408 423 L 419 414 L 558 442 L 572 438 L 598 409 L 590 201 L 581 183 L 530 195"/>
<path style="--d:11s;" pathLength="3333" clip-path="url(#z38291c11)" d="M 412 296 L 421 299 L 425 309 L 457 318 L 509 314"/>
<path style="--d:12s;" pathLength="3333" clip-path="url(#z38291c12)" d="M 408 193 L 421 204 L 442 208 L 549 217"/>
</svg>