<svg id="z38414" class="acjk" viewBox="0 0 1024 1024" xmlns="http://www.w3.org/2000/svg">
  <path id="z38414d1" d="M 313 750 Q 368 680 398 676 Q 414 675 421 696 Q 422 712 412 735 Q 400 751 375 761 Q 335 777 318 780 Q 308 783 307 769 Q 306 759 313 750 Z"/>
  <path id="z38414d2" d="M 176 680 Q 203 614 201 544 Q 205 271 158 130 Q 140 76 173 31 L 175 29 Q 188 14 198 29 Q 235 69 237 234 Q 237 513 253 628 Q 254 638 256 645 Q 259 664 242 675 Q 217 696 189 705 Q 179 706 172 698 Q 168 691 176 680 Z"/>
  <path id="z38414d3" d="M 528 738 Q 512 739 515 728 Q 522 716 544 704 Q 557 695 581 699 Q 747 744 767 718 Q 783 709 789 636 Q 810 393 799 116 Q 799 74 783 64 Q 767 51 685 67 Q 669 68 670 59 Q 671 52 685 47 Q 758 4 799 -30 Q 821 -49 833 -46 Q 846 -42 855 -13 Q 868 33 866 98 Q 841 491 842 636 Q 843 675 854 699 Q 867 721 856 732 Q 846 748 798 772 Q 779 781 760 776 Q 730 767 666 755 Q 599 743 528 738 Z"/>
  <path id="z38414d4" d="M 482 552 Q 495 573 521 590 Q 528 596 527 606 Q 526 615 509 633 Q 493 648 481 650 Q 468 651 471 635 Q 478 604 410 527 Q 379 491 336 452 Q 329 446 326 442 Q 322 435 332 435 Q 374 444 465 534 L 482 552 Z"/>
  <path id="z38414d5" d="M 465 534 Q 483 525 558 543 Q 565 544 568 543 Q 571 539 565 531 Q 523 464 499 434 Q 489 422 487 416 Q 484 407 496 410 Q 509 416 573 477 Q 613 516 651 536 Q 667 545 657 557 Q 644 569 612 589 Q 603 592 528 566 Q 516 563 482 552 C 453 543 443 540 465 534 Z"/>
  <path id="z38414d6" d="M 355 303 Q 376 316 390 326 Q 438 359 447 363 Q 460 370 454 381 Q 445 391 428 402 Q 412 411 404 409 Q 397 408 399 399 Q 399 380 341 312 C 322 289 330 287 355 303 Z"/>
  <path id="z38414d7" d="M 373 143 Q 373 146 373 148 Q 369 185 365 214 L 362 238 Q 358 278 358 290 Q 358 299 355 303 L 341 312 Q 331 316 311 321 Q 301 325 297 320 Q 291 316 298 300 Q 323 239 333 141 Q 334 111 350 91 Q 365 70 370 84 Q 374 96 375 115 L 373 143 Z"/>
  <path id="z38414d8" d="M 365 214 Q 366 217 459 235 Q 478 239 470 250 Q 460 260 438 263 Q 405 263 362 238 C 336 223 338 201 365 214 Z"/>
  <path id="z38414d9" d="M 587 127 Q 600 109 616 74 Q 625 58 639 69 Q 661 82 682 218 Q 695 317 709 338 Q 719 356 706 366 Q 657 412 614 396 Q 521 381 515 380 Q 508 380 507 371 Q 507 364 520 356 Q 542 347 592 357 Q 632 367 639 363 Q 646 359 646 342 Q 645 311 641 278 L 638 248 Q 632 203 624 156 Q 621 147 609 148 C 581 137 580 137 587 127 Z"/>
  <path id="z38414d10" d="M 641 278 Q 632 287 531 266 Q 518 265 533 250 L 638 248 C 668 247 668 265 641 278 Z"/>
  <path id="z38414d11" d="M 609 148 Q 603 155 590 164 Q 577 173 550 168 Q 450 149 373 143 C 343 141 346 121 375 115 Q 384 112 396 114 Q 456 126 587 127 C 617 127 629 127 609 148 Z"/>
<defs>
  <clipPath id="z38414c1"><use href="#z38414d1"/></clipPath>
  <clipPath id="z38414c2"><use href="#z38414d2"/></clipPath>
  <clipPath id="z38414c3"><use href="#z38414d3"/></clipPath>
  <clipPath id="z38414c4"><use href="#z38414d4"/></clipPath>
  <clipPath id="z38414c5"><use href="#z38414d5"/></clipPath>
  <clipPath id="z38414c6"><use href="#z38414d6"/></clipPath>
  <clipPath id="z38414c7"><use href="#z38414d7"/></clipPath>
  <clipPath id="z38414c8"><use href="#z38414d8"/></clipPath>
  <clipPath id="z38414c9"><use href="#z38414d9"/></clipPath>
  <clipPath id="z38414c10"><use href="#z38414d10"/></clipPath>
  <clipPath id="z38414c11"><use href="#z38414d11"/></clipPath>
</defs>
<path style="--d:1s;" pathLength="3333" clip-path="url(#z38414c1)" d="M 320 767 L 378 724 L 399 696"/>
<path style="--d:2s;" pathLength="3333" clip-path="url(#z38414c2)" d="M 182 693 L 222 648 L 224 606 L 214 267 L 189 101 L 187 34"/>
<path style="--d:3s;" pathLength="3333" clip-path="url(#z38414c3)" d="M 524 730 L 563 719 L 590 721 L 711 746 L 762 750 L 782 746 L 816 714 L 832 196 L 827 56 L 812 23 L 765 30 L 678 59"/>
<path style="--d:4s;" pathLength="3333" clip-path="url(#z38414c4)" d="M 479 640 L 492 623 L 496 606 L 488 594 L 403 495 L 334 443"/>
<path style="--d:5s;" pathLength="3333" clip-path="url(#z38414c5)" d="M 470 538 L 566 562 L 585 560 L 604 548 L 540 463 L 494 417"/>
<path style="--d:6s;" pathLength="3333" clip-path="url(#z38414c6)" d="M 408 401 L 419 377 L 415 371 L 368 324 L 351 319"/>
<path style="--d:7s;" pathLength="3333" clip-path="url(#z38414c7)" d="M 305 313 L 332 285 L 361 89"/>
<path style="--d:8s;" pathLength="3333" clip-path="url(#z38414c8)" d="M 368 222 L 413 243 L 462 244"/>
<path style="--d:9s;" pathLength="3333" clip-path="url(#z38414c9)" d="M 516 371 L 538 367 L 643 382 L 662 371 L 678 349 L 654 184 L 645 143 L 629 119 L 629 78"/>
<path style="--d:10s;" pathLength="3333" clip-path="url(#z38414c10)" d="M 532 258 L 545 264 L 556 259 L 616 263 L 635 271"/>
<path style="--d:11s;" pathLength="3333" clip-path="url(#z38414c11)" d="M 380 136 L 390 129 L 529 146 L 600 146"/>
</svg>