<svg id="z34899" class="acjk" viewBox="0 0 1024 1024" xmlns="http://www.w3.org/2000/svg">
  <path id="z34899d1" d="M 271 775 Q 272 679 173 589 Q 170 588 130 548 Q 120 533 136 537 Q 188 541 275 637 Q 320 698 347 729 Q 359 741 345 756 Q 308 793 281 791 Q 269 790 271 775 Z"/>
  <path id="z34899d2" d="M 230 377 Q 255 408 283 444 Q 308 481 328 499 Q 338 508 334 521 Q 331 533 307 556 Q 283 575 265 576 Q 247 576 254 555 Q 272 507 167 369 Q 118 305 52 236 Q 42 227 40 222 Q 36 212 49 213 Q 85 219 206 349 L 230 377 Z"/>
  <path id="z34899d3" d="M 206 349 Q 242 262 201 100 Q 189 60 221 17 Q 222 16 224 14 Q 240 1 250 24 Q 263 58 262 99 Q 263 268 269 305 Q 276 329 267 338 Q 251 356 240 368 Q 236 374 230 377 C 207 396 195 377 206 349 Z"/>
  <path id="z34899d4" d="M 501 510 Q 595 544 598 546 Q 605 555 600 562 Q 593 572 565 575 Q 555 575 502 558 L 460 540 Q 456 540 455 539 Q 422 527 384 519 Q 351 509 377 497 Q 413 485 459 495 L 501 510 Z"/>
  <path id="z34899d5" d="M 459 495 Q 452 284 449 257 Q 443 220 433 181 Q 424 142 446 88 Q 452 72 460 69 Q 464 63 472 70 Q 479 74 489 94 Q 498 116 497 145 Q 496 185 501 510 L 502 558 Q 502 675 519 739 Q 532 761 506 781 Q 491 791 468 805 Q 447 821 428 807 Q 424 803 429 788 Q 457 746 458 686 Q 458 614 460 540 L 459 495 Z"/>
  <path id="z34899d6" d="M 347 404 Q 371 371 347 245 Q 346 242 345 238 Q 335 204 305 144 Q 301 140 300 135 Q 299 126 306 128 Q 327 134 368 200 Q 368 203 370 204 Q 395 264 408 358 Q 412 388 411 392 Q 399 405 375 415 Q 362 422 351 419 Q 342 415 347 404 Z"/>
  <path id="z34899d7" d="M 616 397 Q 620 410 612 418 Q 600 425 574 431 Q 552 435 547 428 Q 540 422 550 410 Q 568 391 565 262 Q 564 210 588 194 Q 598 184 651 188 Q 679 191 688 205 Q 695 215 690 220 Q 684 226 629 226 Q 572 232 616 397 Z"/>
  <path id="z34899d8" d="M 554 655 Q 603 606 626 607 Q 639 607 643 626 Q 643 639 631 657 Q 610 681 556 681 Q 546 682 547 671 Q 546 662 554 655 Z"/>
  <path id="z34899d9" d="M 694 680 Q 654 667 685 652 Q 737 633 796 655 L 874 679 Q 893 685 895 688 Q 904 698 897 707 Q 887 720 854 723 Q 830 724 749 693 Q 722 686 694 680 Z"/>
  <path id="z34899d10" d="M 773 486 Q 851 502 948 503 Q 966 504 970 513 Q 974 523 958 535 Q 901 571 849 548 Q 809 539 751 523 Q 681 507 598 489 Q 579 485 594 471 Q 624 449 657 458 Q 690 470 728 477 L 773 486 Z"/>
  <path id="z34899d11" d="M 728 477 Q 729 473 735 465 Q 747 441 747 401 Q 751 310 753 102 Q 752 75 743 66 Q 733 60 711 67 Q 692 74 669 83 Q 657 87 657 81 Q 656 72 665 62 Q 717 4 749 -39 Q 761 -49 775 -33 Q 812 18 814 110 Q 802 303 808 423 Q 814 451 808 460 Q 799 472 773 486 C 747 501 714 503 728 477 Z"/>
<defs>
  <clipPath id="z34899c1"><use href="#z34899d1"/></clipPath>
  <clipPath id="z34899c2"><use href="#z34899d2"/></clipPath>
  <clipPath id="z34899c3"><use href="#z34899d3"/></clipPath>
  <clipPath id="z34899c4"><use href="#z34899d4"/></clipPath>
  <clipPath id="z34899c5"><use href="#z34899d5"/></clipPath>
  <clipPath id="z34899c6"><use href="#z34899d6"/></clipPath>
  <clipPath id="z34899c7"><use href="#z34899d7"/></clipPath>
  <clipPath id="z34899c8"><use href="#z34899d8"/></clipPath>
  <clipPath id="z34899c9"><use href="#z34899d9"/></clipPath>
  <clipPath id="z34899c10"><use href="#z34899d10"/></clipPath>
  <clipPath id="z34899c11"><use href="#z34899d11"/></clipPath>
</defs>
<path style="--d:1s;" pathLength="3333" clip-path="url(#z34899c1)" d="M 282 779 L 307 740 L 272 673 L 225 612 L 140 546"/>
<path style="--d:2s;" pathLength="3333" clip-path="url(#z34899c2)" d="M 264 563 L 284 540 L 291 515 L 265 467 L 183 352 L 109 272 L 48 221"/>
<path style="--d:3s;" pathLength="3333" clip-path="url(#z34899c3)" d="M 231 368 L 231 345 L 244 322 L 241 181 L 229 71 L 235 25"/>
<path style="--d:4s;" pathLength="3333" clip-path="url(#z34899c4)" d="M 378 509 L 435 511 L 570 556 L 593 554"/>
<path style="--d:5s;" pathLength="3333" clip-path="url(#z34899c5)" d="M 439 801 L 485 751 L 480 418 L 474 257 L 464 169 L 465 83"/>
<path style="--d:6s;" pathLength="3333" clip-path="url(#z34899c6)" d="M 357 409 L 384 380 L 375 285 L 350 197 L 307 135"/>
<path style="--d:7s;" pathLength="3333" clip-path="url(#z34899c7)" d="M 556 420 L 587 398 L 584 310 L 579 298 L 585 237 L 595 219 L 619 207 L 683 213"/>
<path style="--d:8s;" pathLength="3333" clip-path="url(#z34899c8)" d="M 560 669 L 609 642 L 624 626"/>
<path style="--d:9s;" pathLength="3333" clip-path="url(#z34899c9)" d="M 687 667 L 725 664 L 845 697 L 887 698"/>
<path style="--d:10s;" pathLength="3333" clip-path="url(#z34899c10)" d="M 596 480 L 638 476 L 877 528 L 911 529 L 959 517"/>
<path style="--d:11s;" pathLength="3333" clip-path="url(#z34899c11)" d="M 736 474 L 768 456 L 778 436 L 783 86 L 771 44 L 756 24 L 723 36 L 664 77"/>
</svg>