<svg id="z30033" class="acjk" viewBox="0 0 1024 1024" xmlns="http://www.w3.org/2000/svg">
  <path id="z30033d1" d="M 129 428 Q 127 404 135 386 L 142 374 Q 155 361 165 365 Q 172 368 178 382 Q 200 421 193 476 Q 180 559 157 559 Q 155 559 155 558 Q 148 553 147 536 Q 143 482 129 428 Z"/>
  <path id="z30033d2" d="M 394 660 Q 381 660 382 643 L 382 639 Q 378 618 318 544 C 299 521 292 498 316 515 Q 398 574 441 594 Q 454 598 453 605 Q 453 612 447 622 Q 427 654 394 660 Z"/>
  <path id="z30033d3" d="M 318 544 Q 318 679 337 739 Q 341 751 338 758 Q 329 772 296 784 Q 260 798 243 795 Q 243 794 241 794 Q 223 787 233 770 Q 281 703 270 461 Q 265 354 251 296 Q 227 191 149 119 Q 80 61 80 59 Q 81 55 93 55 Q 109 52 143 69 Q 270 122 301 292 L 308 329 Q 316 390 316 515 L 318 544 Z"/>
  <path id="z30033d4" d="M 301 292 Q 315 278 327 265 L 378 205 Q 389 194 400 192 L 404 192 Q 419 196 417 227 Q 415 250 412 257 Q 396 290 308 329 C 281 341 280 313 301 292 Z"/>
  <path id="z30033d5" d="M 500 460 Q 478 472 460 478 Q 459 478 451 476 Q 441 474 444 465 Q 449 457 453 449 Q 492 372 496 202 Q 496 135 536 108 L 542 108 Q 556 108 557 133 L 557 139 L 554 172 Q 553 188 548 206 Q 547 229 543 255 Q 533 351 531 423 C 530 444 527 446 500 460 Z"/>
  <path id="z30033d6" d="M 780 164 Q 792 133 817 82 Q 826 63 838 65 Q 855 67 864 96 Q 900 163 915 371 L 917 383 Q 923 419 946 455 Q 956 472 955 479 Q 951 489 925 507 Q 878 539 847 535 L 826 529 L 825 529 Q 698 481 500 460 C 470 457 502 415 531 423 Q 538 427 634 445 L 684 456 Q 755 472 803 480 Q 821 482 831 479 Q 855 474 855 441 Q 853 319 831 205 Q 830 197 828 192 Q 824 180 811 182 C 787 164 778 168 780 164 Z"/>
  <path id="z30033d7" d="M 698 297 Q 782 321 784 323 Q 790 329 788 335 Q 788 341 776 347 Q 750 360 717 351 L 701 344 L 645 324 Q 623 318 587 312 L 584 312 Q 563 305 570 297 Q 584 281 641 282 L 647 282 L 698 297 Z"/>
  <path id="z30033d8" d="M 694 196 Q 695 259 698 297 L 701 344 Q 701 362 702 380 Q 704 421 704 425 Q 702 440 684 456 C 662 477 623 473 634 445 Q 641 442 645 324 L 647 282 Q 647 231 649 188 C 650 158 693 166 694 196 Z"/>
  <path id="z30033d9" d="M 557 139 Q 570 139 590 142 Q 670 157 780 164 C 810 166 823 167 811 182 Q 805 192 785 205 Q 770 214 694 196 L 649 188 Q 588 178 554 172 C 524 167 527 138 557 139 Z"/>
<defs>
  <clipPath id="z30033c1"><use href="#z30033d1"/></clipPath>
  <clipPath id="z30033c2"><use href="#z30033d2"/></clipPath>
  <clipPath id="z30033c3"><use href="#z30033d3"/></clipPath>
  <clipPath id="z30033c4"><use href="#z30033d4"/></clipPath>
  <clipPath id="z30033c5"><use href="#z30033d5"/></clipPath>
  <clipPath id="z30033c6"><use href="#z30033d6"/></clipPath>
  <clipPath id="z30033c7"><use href="#z30033d7"/></clipPath>
  <clipPath id="z30033c8"><use href="#z30033d8"/></clipPath>
  <clipPath id="z30033c9"><use href="#z30033d9"/></clipPath>
</defs>
<path style="--d:1s;" pathLength="3333" clip-path="url(#z30033c1)" d="M 159 552 L 168 485 L 158 410 L 160 378"/>
<path style="--d:2s;" pathLength="3333" clip-path="url(#z30033c2)" d="M 394 647 L 404 635 L 408 615 L 334 546 L 323 522"/>
<path style="--d:3s;" pathLength="3333" clip-path="url(#z30033c3)" d="M 244 780 L 293 740 L 295 505 L 281 315 L 256 224 L 213 150 L 143 88 L 88 60"/>
<path style="--d:4s;" pathLength="3333" clip-path="url(#z30033c4)" d="M 317 321 L 324 299 L 380 250 L 402 204"/>
<path style="--d:5s;" pathLength="3333" clip-path="url(#z30033c5)" d="M 455 466 L 485 440 L 501 411 L 523 194 L 539 123"/>
<path style="--d:6s;" pathLength="3333" clip-path="url(#z30033c6)" d="M 509 460 L 538 445 L 839 505 L 866 499 L 894 475 L 899 468 L 871 244 L 859 183 L 836 138 L 837 82"/>
<path style="--d:7s;" pathLength="3333" clip-path="url(#z30033c7)" d="M 579 301 L 631 300 L 741 333 L 779 331"/>
<path style="--d:8s;" pathLength="3333" clip-path="url(#z30033c8)" d="M 643 441 L 672 421 L 672 222 L 655 196"/>
<path style="--d:9s;" pathLength="3333" clip-path="url(#z30033c9)" d="M 562 145 L 573 158 L 710 181 L 763 186 L 804 182"/>
</svg>