<svg id="z32737" class="acjk" viewBox="0 0 1024 1024" xmlns="http://www.w3.org/2000/svg">
  <path id="z32737d1" d="M 407 524 Q 400 497 419 445 Q 423 432 430 429 Q 434 425 441 430 Q 462 445 462 494 Q 461 513 467 704 Q 468 743 476 769 Q 483 781 480 792 Q 476 799 432 826 Q 413 839 397 827 Q 393 823 398 811 Q 407 796 414 744 L 415 718 Q 415 682 416 646 L 416 618 Q 416 587 413 558 L 408 532 Q 407 529 407 524 Z"/>
  <path id="z32737d2" d="M 414 744 Q 387 762 323 737 Q 260 728 251 726 Q 221 722 242 707 Q 270 692 337 702 Q 376 709 415 718 C 444 725 440 729 414 744 Z"/>
  <path id="z32737d3" d="M 416 646 Q 386 661 314 634 Q 280 627 261 623 Q 228 614 254 601 Q 294 582 343 599 Q 374 606 408 616 Q 412 617 416 618 C 445 625 444 635 416 646 Z"/>
  <path id="z32737d4" d="M 413 558 Q 229 509 194 510 Q 184 509 181 501 Q 180 491 187 483 Q 206 470 232 453 Q 241 450 251 457 Q 278 478 408 532 C 436 544 442 566 413 558 Z"/>
  <path id="z32737d5" d="M 626 537 Q 626 568 628 617 L 629 646 Q 632 715 632 729 L 634 758 Q 635 777 641 791 Q 648 803 645 814 Q 641 821 595 850 Q 576 863 559 851 Q 555 847 560 834 Q 573 816 578 738 Q 575 731 579 594 Q 578 560 569 528 Q 560 495 582 446 Q 586 433 593 429 Q 599 423 604 430 Q 611 434 619 451 Q 625 469 626 508 L 626 537 Z"/>
  <path id="z32737d6" d="M 632 729 Q 669 723 768 740 Q 822 749 827 754 Q 834 761 831 769 Q 824 779 798 787 Q 770 791 743 781 Q 718 774 690 767 Q 663 763 634 758 C 604 753 602 733 632 729 Z"/>
  <path id="z32737d7" d="M 628 617 Q 668 611 776 634 Q 789 637 804 642 Q 811 649 807 657 Q 800 667 773 674 Q 758 677 674 654 Q 653 650 629 646 C 599 641 598 620 628 617 Z"/>
  <path id="z32737d8" d="M 626 508 Q 635 507 647 508 Q 762 523 848 531 Q 873 534 865 548 Q 855 564 828 570 Q 800 576 626 537 C 597 530 596 510 626 508 Z"/>
  <path id="z32737d9" d="M 361 57 Q 340 60 319 63 Q 300 69 301 59 Q 350 17 378 -14 Q 390 -33 405 -38 Q 414 -42 422 -32 Q 462 14 461 65 Q 446 297 470 336 Q 483 354 472 364 Q 453 383 418 399 Q 402 406 386 400 Q 335 375 247 367 Q 232 367 241 358 Q 248 348 262 342 Q 278 338 375 357 Q 394 361 398 352 Q 402 342 403 327 Q 406 185 399 97 Q 396 69 387 57 Q 381 51 361 57 Z"/>
  <path id="z32737d10" d="M 241 254 Q 260 238 282 217 Q 295 207 308 208 Q 317 209 321 220 Q 325 233 316 259 Q 307 283 235 295 Q 222 296 216 295 Q 212 291 213 280 Q 217 270 241 254 Z"/>
  <path id="z32737d11" d="M 138 101 Q 125 97 126 87 Q 126 74 136 69 Q 160 57 193 45 Q 203 44 214 53 Q 230 74 338 152 Q 353 162 363 175 Q 373 184 372 193 Q 366 197 270 152 Q 161 104 138 101 Z"/>
  <path id="z32737d12" d="M 699 36 Q 674 42 647 47 Q 628 53 628 43 Q 683 -3 716 -39 Q 729 -58 744 -64 Q 753 -68 762 -58 Q 804 -4 803 45 Q 781 322 808 371 Q 821 390 809 401 Q 788 420 752 436 Q 734 443 670 414 Q 568 395 547 392 Q 531 391 540 382 Q 549 372 563 366 Q 579 363 701 389 Q 723 401 733 386 Q 748 344 738 107 Q 732 47 725 37 Q 719 31 699 36 Z"/>
  <path id="z32737d13" d="M 549 283 Q 582 235 606 223 Q 618 219 628 229 Q 634 239 634 254 Q 625 299 566 314 Q 565 315 564 315 Q 551 322 542 319 Q 536 318 537 308 Q 538 298 549 283 Z"/>
  <path id="z32737d14" d="M 679 202 Q 612 172 554 144 Q 524 128 504 123 Q 494 119 491 112 Q 490 105 502 92 Q 518 77 537 70 Q 546 67 569 84 Q 599 120 695 190 Q 707 197 713 205 Q 719 215 709 216 Q 699 215 679 202 Z"/>
<defs>
  <clipPath id="z32737c1"><use href="#z32737d1"/></clipPath>
  <clipPath id="z32737c2"><use href="#z32737d2"/></clipPath>
  <clipPath id="z32737c3"><use href="#z32737d3"/></clipPath>
  <clipPath id="z32737c4"><use href="#z32737d4"/></clipPath>
  <clipPath id="z32737c5"><use href="#z32737d5"/></clipPath>
  <clipPath id="z32737c6"><use href="#z32737d6"/></clipPath>
  <clipPath id="z32737c7"><use href="#z32737d7"/></clipPath>
  <clipPath id="z32737c8"><use href="#z32737d8"/></clipPath>
  <clipPath id="z32737c9"><use href="#z32737d9"/></clipPath>
  <clipPath id="z32737c10"><use href="#z32737d10"/></clipPath>
  <clipPath id="z32737c11"><use href="#z32737d11"/></clipPath>
  <clipPath id="z32737c12"><use href="#z32737d12"/></clipPath>
  <clipPath id="z32737c13"><use href="#z32737d13"/></clipPath>
  <clipPath id="z32737c14"><use href="#z32737d14"/></clipPath>
</defs>
<path style="--d:1s;" pathLength="3333" clip-path="url(#z32737c1)" d="M 407 821 L 430 800 L 443 778 L 435 440"/>
<path style="--d:2s;" pathLength="3333" clip-path="url(#z32737c2)" d="M 244 718 L 305 715 L 394 733 L 405 724"/>
<path style="--d:3s;" pathLength="3333" clip-path="url(#z32737c3)" d="M 255 613 L 303 611 L 389 632 L 410 625"/>
<path style="--d:4s;" pathLength="3333" clip-path="url(#z32737c4)" d="M 193 497 L 238 485 L 359 530 L 370 529 L 381 538 L 393 536 L 401 553"/>
<path style="--d:5s;" pathLength="3333" clip-path="url(#z32737c5)" d="M 569 845 L 593 824 L 607 797 L 598 440"/>
<path style="--d:6s;" pathLength="3333" clip-path="url(#z32737c6)" d="M 637 736 L 650 744 L 767 764 L 820 764"/>
<path style="--d:7s;" pathLength="3333" clip-path="url(#z32737c7)" d="M 633 624 L 645 632 L 756 652 L 796 651"/>
<path style="--d:8s;" pathLength="3333" clip-path="url(#z32737c8)" d="M 631 515 L 644 526 L 793 548 L 830 550 L 853 543"/>
<path style="--d:9s;" pathLength="3333" clip-path="url(#z32737c9)" d="M 250 358 L 320 361 L 396 380 L 424 365 L 436 348 L 429 247 L 430 76 L 420 39 L 404 19 L 311 57"/>
<path style="--d:10s;" pathLength="3333" clip-path="url(#z32737c10)" d="M 220 286 L 285 252 L 306 224"/>
<path style="--d:11s;" pathLength="3333" clip-path="url(#z32737c11)" d="M 139 88 L 193 82 L 370 189"/>
<path style="--d:12s;" pathLength="3333" clip-path="url(#z32737c12)" d="M 550 383 L 603 385 L 733 414 L 759 401 L 772 383 L 767 288 L 769 81 L 761 20 L 744 -4 L 637 40"/>
<path style="--d:13s;" pathLength="3333" clip-path="url(#z32737c13)" d="M 547 310 L 597 267 L 613 242"/>
<path style="--d:14s;" pathLength="3333" clip-path="url(#z32737c14)" d="M 500 110 L 541 103 L 707 209"/>
</svg>