<svg id="z35750" class="acjk" viewBox="0 0 1024 1024" xmlns="http://www.w3.org/2000/svg">
  <path id="z35750d1" d="M 283 737 Q 317 712 353 680 Q 369 667 385 669 Q 395 670 401 684 Q 405 700 394 731 Q 387 753 350 768 Q 265 796 252 787 Q 246 783 249 769 Q 253 759 283 737 Z"/>
  <path id="z35750d2" d="M 141 482 Q 95 463 67 459 Q 54 458 51 450 Q 48 443 60 435 Q 100 414 126 427 Q 276 505 279 504 Q 282 504 285 502 Q 295 498 291 473 Q 297 305 262 174 Q 247 140 290 95 Q 302 83 311 90 Q 318 97 328 121 Q 368 176 453 271 Q 465 283 462 290 Q 461 297 450 288 Q 405 257 362 220 Q 320 183 326 236 Q 325 302 344 467 Q 345 489 367 514 Q 379 524 369 536 Q 357 552 319 567 Q 307 571 291 561 Q 197 503 141 482 Z"/>
  <path id="z35750d3" d="M 656 654 Q 825 687 830 691 Q 840 698 835 708 Q 828 720 798 728 Q 771 734 665 703 Q 589 688 515 681 Q 478 677 504 658 Q 541 636 598 643 L 656 654 Z"/>
  <path id="z35750d4" d="M 678 422 Q 750 429 922 430 Q 943 430 947 439 Q 953 451 936 465 Q 876 510 806 489 Q 754 480 678 466 L 625 459 Q 531 446 421 431 Q 399 428 415 411 Q 448 381 487 390 Q 551 408 625 416 L 678 422 Z"/>
  <path id="z35750d5" d="M 629 6 Q 635 -19 642 -29 Q 648 -36 655 -34 Q 670 -25 676 36 Q 683 117 681 196 Q 677 250 678 422 L 678 466 Q 678 562 690 614 Q 693 632 678 641 Q 666 648 656 654 C 630 669 586 671 598 643 Q 622 588 623 583 Q 623 522 625 459 L 625 416 Q 625 38 629 6 Z"/>
<defs>
  <clipPath id="z35750c1"><use href="#z35750d1"/></clipPath>
  <clipPath id="z35750c2"><use href="#z35750d2"/></clipPath>
  <clipPath id="z35750c3"><use href="#z35750d3"/></clipPath>
  <clipPath id="z35750c4"><use href="#z35750d4"/></clipPath>
  <clipPath id="z35750c5"><use href="#z35750d5"/></clipPath>
</defs>
<path style="--d:1s;" pathLength="3333" clip-path="url(#z35750c1)" d="M 258 779 L 353 727 L 381 689"/>
<path style="--d:2s;" pathLength="3333" clip-path="url(#z35750c2)" d="M 60 447 L 99 444 L 130 451 L 272 525 L 313 529 L 322 514 L 299 203 L 311 170 L 354 188 L 456 286"/>
<path style="--d:3s;" pathLength="3333" clip-path="url(#z35750c3)" d="M 507 671 L 529 664 L 570 664 L 779 704 L 824 702"/>
<path style="--d:4s;" pathLength="3333" clip-path="url(#z35750c4)" d="M 418 421 L 476 413 L 591 434 L 845 463 L 879 461 L 935 445"/>
<path style="--d:5s;" pathLength="3333" clip-path="url(#z35750c5)" d="M 607 635 L 651 613 L 654 590 L 651 -25"/>
</svg>