<svg id="z34021" class="acjk" viewBox="0 0 1024 1024" xmlns="http://www.w3.org/2000/svg">
  <path id="z34021d1" d="M 619 682 Q 703 691 790 685 Q 806 684 811 693 Q 815 703 803 718 Q 755 758 666 738 Q 651 735 638 732 L 583 723 Q 510 713 426 700 L 378 694 Q 303 687 223 677 Q 195 674 214 659 Q 256 632 336 649 Q 360 655 386 659 L 429 666 Q 453 672 574 680 L 619 682 Z"/>
  <path id="z34021d2" d="M 426 700 Q 423 734 422 760 Q 423 779 404 785 Q 367 806 343 797 Q 324 790 340 770 Q 368 736 378 694 L 386 659 Q 401 604 411 592 Q 424 582 429 593 Q 435 609 429 666 L 426 700 Z"/>
  <path id="z34021d3" d="M 638 732 Q 645 754 662 783 Q 675 798 665 807 Q 653 823 619 839 Q 603 848 586 839 Q 576 832 585 822 Q 597 797 583 723 L 574 680 Q 556 617 558 599 Q 559 586 575 596 Q 588 609 619 682 L 638 732 Z"/>
  <path id="z34021d4" d="M 248 533 Q 236 555 226 563 Q 207 576 205 551 Q 211 524 178 479 Q 129 439 163 375 Q 178 350 198 376 Q 214 400 224 435 Q 239 478 249 503 Q 250 504 250 507 L 248 533 Z"/>
  <path id="z34021d5" d="M 488 533 Q 690 567 735 557 Q 751 547 749 540 Q 749 537 718 470 Q 711 457 717 453 Q 724 449 741 460 Q 795 494 839 503 Q 875 513 875 522 Q 874 532 804 585 Q 780 606 721 592 Q 627 583 363 546 Q 308 539 252 534 Q 249 534 248 533 C 218 529 222 519 250 507 Q 274 491 312 499 Q 427 533 447 527 L 488 533 Z"/>
  <path id="z34021d6" d="M 524 478 Q 525 479 525 482 Q 525 509 488 533 C 464 551 452 557 447 527 Q 440 442 281 322 Q 274 318 268 313 Q 219 279 104 215 Q 94 212 104 207 Q 174 201 322 298 Q 454 412 484 440 Q 493 452 506 461 C 524 476 524 476 524 478 Z"/>
  <path id="z34021d7" d="M 506 461 Q 732 254 790 244 Q 868 244 947 268 Q 965 272 965 277 Q 966 284 952 288 Q 751 343 725 356 Q 635 401 524 478 C 499 495 484 481 506 461 Z"/>
  <path id="z34021d8" d="M 507 297 Q 615 319 619 322 Q 626 329 623 337 Q 616 347 590 355 Q 562 361 535 350 Q 499 340 461 330 Q 418 321 369 318 Q 335 312 359 297 Q 395 273 450 286 Q 456 287 463 288 L 507 297 Z"/>
  <path id="z34021d9" d="M 523 189 Q 655 213 662 218 Q 669 225 666 233 Q 660 245 634 252 Q 612 258 525 234 L 472 221 Q 469 222 468 221 Q 404 209 330 205 Q 296 201 319 185 Q 355 161 408 171 Q 439 177 473 181 L 523 189 Z"/>
  <path id="z34021d10" d="M 517 52 Q 520 128 523 189 C 524 219 525 233 525 234 Q 525 235 526 235 Q 530 278 511 294 Q 508 295 507 297 C 484 316 454 317 463 288 Q 467 284 472 221 L 473 181 Q 473 132 475 47 C 476 17 516 22 517 52 Z"/>
  <path id="z34021d11" d="M 322 114 Q 386 59 396 57 Q 405 58 409 69 Q 413 81 406 105 Q 402 123 375 136 Q 315 160 300 155 Q 296 151 297 141 Q 300 131 322 114 Z"/>
  <path id="z34021d12" d="M 617 161 Q 601 133 567 91 Q 563 85 567 79 Q 574 78 580 82 Q 647 127 680 143 Q 695 147 691 156 Q 687 169 670 185 Q 654 201 635 203 Q 622 202 623 186 Q 624 174 617 161 Z"/>
  <path id="z34021d13" d="M 475 47 Q 366 38 237 26 Q 216 25 231 7 Q 244 -8 262 -14 Q 284 -20 300 -16 Q 504 32 777 12 Q 796 12 802 20 Q 808 32 791 46 Q 740 88 703 80 Q 633 67 517 52 L 475 47 Z"/>
<defs>
  <clipPath id="z34021c1"><use href="#z34021d1"/></clipPath>
  <clipPath id="z34021c2"><use href="#z34021d2"/></clipPath>
  <clipPath id="z34021c3"><use href="#z34021d3"/></clipPath>
  <clipPath id="z34021c4"><use href="#z34021d4"/></clipPath>
  <clipPath id="z34021c5"><use href="#z34021d5"/></clipPath>
  <clipPath id="z34021c6"><use href="#z34021d6"/></clipPath>
  <clipPath id="z34021c7"><use href="#z34021d7"/></clipPath>
  <clipPath id="z34021c8"><use href="#z34021d8"/></clipPath>
  <clipPath id="z34021c9"><use href="#z34021d9"/></clipPath>
  <clipPath id="z34021c10"><use href="#z34021d10"/></clipPath>
  <clipPath id="z34021c11"><use href="#z34021d11"/></clipPath>
  <clipPath id="z34021c12"><use href="#z34021d12"/></clipPath>
  <clipPath id="z34021c13"><use href="#z34021d13"/></clipPath>
</defs>
<path style="--d:1s;" pathLength="3333" clip-path="url(#z34021c1)" d="M 217 669 L 261 662 L 305 664 L 453 688 L 698 716 L 741 716 L 800 699"/>
<path style="--d:2s;" pathLength="3333" clip-path="url(#z34021c2)" d="M 347 783 L 371 772 L 391 752 L 420 597"/>
<path style="--d:3s;" pathLength="3333" clip-path="url(#z34021c3)" d="M 591 830 L 607 822 L 627 793 L 597 680 L 567 600"/>
<path style="--d:4s;" pathLength="3333" clip-path="url(#z34021c4)" d="M 216 555 L 227 525 L 219 495 L 186 434 L 179 380"/>
<path style="--d:5s;" pathLength="3333" clip-path="url(#z34021c5)" d="M 252 527 L 267 518 L 300 517 L 420 542 L 452 542 L 616 567 L 750 575 L 773 566 L 794 536 L 722 459"/>
<path style="--d:6s;" pathLength="3333" clip-path="url(#z34021c6)" d="M 455 521 L 479 489 L 428 424 L 368 365 L 318 321 L 265 285 L 162 230 L 128 217 L 115 218 L 109 211"/>
<path style="--d:7s;" pathLength="3333" clip-path="url(#z34021c7)" d="M 519 456 L 526 459 L 539 452 L 582 415 L 709 328 L 787 290 L 826 283 L 959 278"/>
<path style="--d:8s;" pathLength="3333" clip-path="url(#z34021c8)" d="M 361 309 L 384 302 L 422 302 L 569 334 L 614 331"/>
<path style="--d:9s;" pathLength="3333" clip-path="url(#z34021c9)" d="M 322 196 L 344 189 L 397 189 L 612 230 L 656 228"/>
<path style="--d:10s;" pathLength="3333" clip-path="url(#z34021c10)" d="M 470 289 L 496 266 L 499 246 L 497 78 L 494 67 L 481 56"/>
<path style="--d:11s;" pathLength="3333" clip-path="url(#z34021c11)" d="M 305 147 L 377 103 L 397 65"/>
<path style="--d:12s;" pathLength="3333" clip-path="url(#z34021c12)" d="M 681 153 L 650 162 L 572 85"/>
<path style="--d:13s;" pathLength="3333" clip-path="url(#z34021c13)" d="M 234 16 L 291 7 L 409 24 L 703 48 L 752 41 L 791 26"/>
</svg>