<svg id="z38454" class="acjk" viewBox="0 0 1024 1024" xmlns="http://www.w3.org/2000/svg">
  <path id="z38454d1" d="M 233 661 Q 272 668 314 688 Q 330 698 342 688 Q 348 682 339 664 Q 321 627 307 589 Q 294 562 310 542 Q 364 467 351 450 Q 344 440 321 440 Q 291 443 260 440 Q 235 439 264 426 Q 321 402 373 370 Q 386 360 399 371 Q 412 381 417 405 Q 429 456 369 525 Q 333 570 341 584 Q 347 614 403 669 Q 413 682 424 687 Q 445 700 434 714 Q 419 733 379 754 Q 357 763 342 750 Q 290 710 227 694 C 198 686 204 655 233 661 Z"/>
  <path id="z38454d2" d="M 227 694 Q 217 712 177 727 Q 165 733 152 727 Q 143 721 150 707 Q 175 619 179 588 Q 178 585 179 580 Q 194 303 153 136 Q 135 70 179 18 Q 192 2 204 17 Q 225 47 224 174 Q 227 652 233 661 C 235 685 235 685 227 694 Z"/>
  <path id="z38454d3" d="M 638 674 Q 653 705 668 721 Q 677 733 670 746 Q 666 759 634 779 Q 606 795 586 793 Q 567 789 577 767 Q 595 737 585 709 Q 534 544 396 344 Q 386 332 385 326 Q 382 314 397 318 Q 451 342 573 544 Q 598 590 625 645 L 625 646 L 638 674 Z"/>
  <path id="z38454d4" d="M 625 646 Q 698 528 796 403 Q 814 382 844 382 Q 947 382 981 386 Q 991 387 992 393 Q 993 397 979 406 Q 822 478 761 543 Q 703 600 638 674 C 618 696 609 671 625 646 Z"/>
  <path id="z38454d5" d="M 495 367 Q 523 319 503 210 Q 476 108 382 34 Q 372 24 382 23 Q 433 29 485 85 Q 551 151 559 254 Q 568 326 575 343 Q 582 359 567 367 Q 522 395 500 385 Q 488 379 495 367 Z"/>
  <path id="z38454d6" d="M 664 389 Q 683 362 675 144 Q 666 50 679 23 Q 694 -20 716 -30 Q 728 -31 732 -18 Q 744 15 740 46 Q 724 299 733 360 Q 734 373 728 378 Q 703 399 684 407 Q 671 411 662 403 Q 656 399 664 389 Z"/>
<defs>
  <clipPath id="z38454c1"><use href="#z38454d1"/></clipPath>
  <clipPath id="z38454c2"><use href="#z38454d2"/></clipPath>
  <clipPath id="z38454c3"><use href="#z38454d3"/></clipPath>
  <clipPath id="z38454c4"><use href="#z38454d4"/></clipPath>
  <clipPath id="z38454c5"><use href="#z38454d5"/></clipPath>
  <clipPath id="z38454c6"><use href="#z38454d6"/></clipPath>
</defs>
<path style="--d:1s;" pathLength="3333" clip-path="url(#z38454c1)" d="M 238 668 L 245 680 L 335 717 L 364 719 L 379 707 L 375 682 L 347 638 L 320 575 L 331 542 L 376 475 L 383 450 L 380 423 L 377 417 L 354 415 L 268 435"/>
<path style="--d:2s;" pathLength="3333" clip-path="url(#z38454c2)" d="M 161 716 L 194 679 L 204 602 L 201 248 L 185 108 L 192 24"/>
<path style="--d:3s;" pathLength="3333" clip-path="url(#z38454c3)" d="M 588 778 L 606 765 L 628 735 L 590 637 L 500 465 L 450 391 L 394 327"/>
<path style="--d:4s;" pathLength="3333" clip-path="url(#z38454c4)" d="M 640 665 L 643 646 L 686 588 L 756 505 L 832 431 L 985 392"/>
<path style="--d:5s;" pathLength="3333" clip-path="url(#z38454c5)" d="M 504 374 L 540 344 L 537 268 L 523 189 L 493 127 L 466 91 L 432 57 L 388 29"/>
<path style="--d:6s;" pathLength="3333" clip-path="url(#z38454c6)" d="M 671 397 L 703 360 L 705 62 L 718 -17"/>
</svg>