<svg id="z30249" class="acjk" viewBox="0 0 1024 1024" xmlns="http://www.w3.org/2000/svg">
  <path id="z30249d1" d="M 519 802 Q 540 784 561 764 Q 577 751 593 753 Q 603 754 609 768 Q 613 784 601 815 Q 589 839 511 852 Q 495 855 488 851 Q 482 847 485 833 Q 489 823 519 802 Z"/>
  <path id="z30249d2" d="M 348 646 Q 396 639 442 644 Q 767 689 789 703 Q 799 710 794 720 Q 788 733 759 742 Q 728 749 623 720 Q 470 690 350 681 C 320 679 318 650 348 646 Z"/>
  <path id="z30249d3" d="M 253 358 Q 210 178 99 15 Q 93 8 92 2 Q 89 -8 100 -7 Q 136 -1 214 124 Q 230 154 247 187 Q 317 340 342 613 Q 343 631 348 646 C 354 675 355 677 350 681 Q 334 697 303 711 Q 284 721 270 717 Q 258 710 265 696 Q 287 665 283 607 Q 270 442 262 400 Q 261 397 260 394 L 253 358 Z"/>
  <path id="z30249d4" d="M 139 541 Q 154 516 169 488 Q 178 473 192 469 Q 201 468 209 477 Q 216 489 217 517 Q 217 535 196 553 Q 141 593 129 591 Q 123 588 121 577 Q 121 567 139 541 Z"/>
  <path id="z30249d5" d="M 260 394 Q 86 321 55 317 Q 43 314 43 304 Q 42 291 52 285 Q 76 272 109 259 Q 119 258 130 267 Q 157 297 253 358 C 278 374 288 406 260 394 Z"/>
  <path id="z30249d6" d="M 673 521 Q 745 528 814 526 Q 827 525 832 533 Q 836 543 824 555 Q 781 592 691 566 Q 690 566 688 565 L 633 554 Q 566 544 495 532 L 447 525 Q 408 521 368 515 Q 343 511 361 498 Q 397 477 458 489 L 496 498 Q 562 514 629 517 L 673 521 Z"/>
  <path id="z30249d7" d="M 495 532 Q 494 548 494 561 Q 495 577 478 583 Q 441 601 424 595 Q 408 588 421 570 Q 437 551 447 525 L 458 489 Q 467 447 480 430 Q 492 421 496 431 Q 500 447 496 498 L 495 532 Z"/>
  <path id="z30249d8" d="M 688 565 Q 692 578 700 592 Q 712 605 701 615 Q 689 628 657 641 Q 641 648 627 639 Q 618 633 626 624 Q 635 606 633 554 L 629 517 Q 620 466 622 446 Q 623 433 638 444 Q 642 448 673 521 L 688 565 Z"/>
  <path id="z30249d9" d="M 594 412 Q 594 413 595 413 Q 605 423 602 431 Q 599 443 577 450 Q 552 459 541 456 Q 534 455 531 443 Q 507 343 276 167 Q 257 154 282 157 Q 382 172 531 340 Q 537 350 578 394 L 594 412 Z"/>
  <path id="z30249d10" d="M 578 394 Q 746 220 790 210 Q 800 209 813 209 Q 882 210 951 230 Q 969 233 970 238 Q 971 245 957 249 Q 912 262 860 274 Q 743 304 594 412 C 570 429 557 416 578 394 Z"/>
  <path id="z30249d11" d="M 471 254 Q 438 248 462 233 Q 493 218 568 229 Q 655 250 656 250 Q 663 257 659 265 Q 652 275 625 282 Q 610 285 526 262 Q 501 258 471 254 Z"/>
  <path id="z30249d12" d="M 470 140 Q 458 147 425 153 Q 412 157 409 151 Q 402 145 411 129 Q 433 80 448 0 Q 449 -24 464 -40 Q 482 -62 487 -47 Q 491 -34 491 -14 L 488 18 Q 481 85 478 110 C 475 138 475 138 470 140 Z"/>
  <path id="z30249d13" d="M 698 38 Q 717 87 746 107 Q 762 125 748 143 Q 679 198 619 173 Q 570 158 470 140 C 440 135 448 107 478 110 Q 488 110 505 115 Q 646 139 652 133 Q 659 126 658 111 Q 651 74 642 42 C 634 13 687 10 698 38 Z"/>
  <path id="z30249d14" d="M 491 -14 Q 501 -17 515 -14 Q 576 -4 710 2 Q 720 3 723 11 Q 723 20 698 38 C 682 50 671 48 642 42 Q 557 26 488 18 C 458 14 461 -9 491 -14 Z"/>
<defs>
  <clipPath id="z30249c1"><use href="#z30249d1"/></clipPath>
  <clipPath id="z30249c2"><use href="#z30249d2"/></clipPath>
  <clipPath id="z30249c3"><use href="#z30249d3"/></clipPath>
  <clipPath id="z30249c4"><use href="#z30249d4"/></clipPath>
  <clipPath id="z30249c5"><use href="#z30249d5"/></clipPath>
  <clipPath id="z30249c6"><use href="#z30249d6"/></clipPath>
  <clipPath id="z30249c7"><use href="#z30249d7"/></clipPath>
  <clipPath id="z30249c8"><use href="#z30249d8"/></clipPath>
  <clipPath id="z30249c9"><use href="#z30249d9"/></clipPath>
  <clipPath id="z30249c10"><use href="#z30249d10"/></clipPath>
  <clipPath id="z30249c11"><use href="#z30249d11"/></clipPath>
  <clipPath id="z30249c12"><use href="#z30249d12"/></clipPath>
  <clipPath id="z30249c13"><use href="#z30249d13"/></clipPath>
  <clipPath id="z30249c14"><use href="#z30249d14"/></clipPath>
</defs>
<path style="--d:1s;" pathLength="3333" clip-path="url(#z30249c1)" d="M 495 843 L 560 808 L 589 773"/>
<path style="--d:2s;" pathLength="3333" clip-path="url(#z30249c2)" d="M 357 651 L 372 663 L 454 666 L 734 716 L 783 714"/>
<path style="--d:3s;" pathLength="3333" clip-path="url(#z30249c3)" d="M 276 704 L 315 665 L 315 650 L 293 430 L 274 339 L 246 247 L 198 140 L 135 39 L 101 2"/>
<path style="--d:4s;" pathLength="3333" clip-path="url(#z30249c4)" d="M 131 584 L 181 527 L 193 487"/>
<path style="--d:5s;" pathLength="3333" clip-path="url(#z30249c5)" d="M 56 304 L 110 297 L 239 367 L 246 378"/>
<path style="--d:6s;" pathLength="3333" clip-path="url(#z30249c6)" d="M 363 507 L 447 505 L 567 529 L 724 550 L 779 551 L 822 538"/>
<path style="--d:7s;" pathLength="3333" clip-path="url(#z30249c7)" d="M 429 582 L 466 554 L 488 434"/>
<path style="--d:8s;" pathLength="3333" clip-path="url(#z30249c8)" d="M 638 631 L 666 599 L 651 517 L 630 446"/>
<path style="--d:9s;" pathLength="3333" clip-path="url(#z30249c9)" d="M 585 427 L 558 419 L 493 330 L 413 252 L 344 198 L 286 166"/>
<path style="--d:10s;" pathLength="3333" clip-path="url(#z30249c10)" d="M 598 401 L 597 391 L 610 385 L 614 375 L 701 309 L 782 258 L 848 243 L 964 239"/>
<path style="--d:11s;" pathLength="3333" clip-path="url(#z30249c11)" d="M 464 245 L 520 242 L 617 262 L 653 258"/>
<path style="--d:12s;" pathLength="3333" clip-path="url(#z30249c12)" d="M 418 143 L 446 119 L 476 -41"/>
<path style="--d:13s;" pathLength="3333" clip-path="url(#z30249c13)" d="M 481 135 L 494 127 L 632 156 L 675 151 L 694 134 L 699 121 L 679 69 L 649 47"/>
<path style="--d:14s;" pathLength="3333" clip-path="url(#z30249c14)" d="M 496 13 L 505 3 L 648 21 L 690 20 L 713 11"/>
</svg>