<svg id="z36994" class="acjk" viewBox="0 0 1024 1024" xmlns="http://www.w3.org/2000/svg">
  <path id="z36994d1" d="M 442 710 Q 506 800 507 804 Q 506 807 505 809 Q 502 819 480 836 Q 461 849 445 850 Q 432 849 437 831 Q 450 803 399 717 Q 375 677 341 632 Q 334 625 332 619 Q 329 610 340 613 Q 364 616 431 696 L 442 710 Z"/>
  <path id="z36994d2" d="M 497 590 Q 566 677 593 695 Q 608 704 598 715 Q 586 725 556 741 Q 543 745 531 737 Q 524 734 472 717 Q 457 713 442 710 C 415 704 415 704 431 696 Q 443 684 506 697 Q 512 698 514 697 Q 517 694 514 687 Q 492 623 476 593 Q 473 589 472 583 C 462 555 478 567 497 590 Z"/>
  <path id="z36994d3" d="M 373 563 Q 366 567 356 570 Q 341 577 333 572 Q 326 566 330 557 Q 361 526 344 359 Q 341 353 341 346 Q 329 291 299 224 Q 295 220 294 214 Q 293 207 301 209 Q 314 212 330 241 Q 390 325 392 514 Q 392 532 395 536 C 398 551 398 551 373 563 Z"/>
  <path id="z36994d4" d="M 600 382 Q 593 523 604 549 Q 613 564 605 573 Q 598 583 563 600 Q 550 607 497 590 L 472 583 Q 468 583 466 582 Q 421 572 373 563 C 344 557 366 529 395 536 Q 398 536 435 546 L 467 555 Q 488 562 516 567 Q 534 571 543 563 Q 552 559 554 522 Q 564 401 559 264 Q 559 245 552 238 Q 543 234 504 246 Q 494 250 493 243 Q 493 239 502 233 Q 536 199 553 173 Q 566 160 576 160 Q 585 161 593 182 Q 606 213 607 260 Q 603 321 600 369 L 600 382 Z"/>
  <path id="z36994d5" d="M 448 465 Q 424 458 405 450 Q 392 446 408 435 Q 409 435 448 438 L 484 445 Q 506 451 526 453 Q 544 457 537 466 Q 528 476 508 480 Q 498 481 485 477 L 448 465 Z"/>
  <path id="z36994d6" d="M 448 375 Q 418 366 393 358 Q 380 354 396 343 Q 397 343 448 346 L 482 352 Q 509 358 534 361 Q 552 365 545 374 Q 536 386 517 388 Q 502 391 482 385 L 448 375 Z"/>
  <path id="z36994d7" d="M 435 546 Q 447 528 448 465 L 448 438 Q 448 410 448 375 L 448 346 Q 448 247 457 234 Q 461 230 466 231 Q 481 243 482 352 L 482 385 Q 482 410 484 445 L 485 477 Q 485 490 492 526 Q 493 538 485 544 Q 475 551 467 555 C 441 570 422 573 435 546 Z"/>
  <path id="z36994d8" d="M 714 705 Q 766 721 807 727 Q 820 728 823 725 Q 830 718 827 696 Q 826 638 813 611 Q 798 586 776 589 Q 760 593 744 597 Q 725 604 739 584 Q 769 553 783 528 Q 795 513 807 524 Q 850 552 873 667 Q 873 703 893 725 Q 903 735 898 745 Q 891 754 848 771 Q 832 778 816 767 Q 800 757 741 742 Q 681 726 630 719 Q 615 718 614 711 Q 613 705 632 696 Q 651 684 667 691 Q 677 695 690 697 L 714 705 Z"/>
  <path id="z36994d9" d="M 690 697 L 691 696 Q 691 695 693 692 Q 702 644 628 537 Q 624 533 625 529 Q 625 526 628 527 Q 673 539 729 643 Q 736 658 741 665 Q 745 672 739 681 Q 727 696 714 705 C 690 723 676 723 690 697 Z"/>
  <path id="z36994d10" d="M 673 436 Q 673 437 674 437 Q 686 456 697 473 Q 704 482 693 491 Q 662 512 646 509 Q 639 508 640 497 Q 652 452 611 398 Q 604 389 600 382 C 589 364 589 364 600 369 Q 599 370 601 370 Q 625 376 661 419 L 673 436 Z"/>
  <path id="z36994d11" d="M 783 419 Q 876 441 879 443 Q 886 449 882 455 Q 878 464 855 470 Q 828 476 784 456 L 734 444 Q 703 440 673 436 C 643 432 637 431 661 419 L 662 419 Q 695 398 735 411 L 783 419 Z"/>
  <path id="z36994d12" d="M 782 311 Q 833 317 920 316 Q 935 316 939 322 Q 943 331 930 341 Q 887 372 834 357 Q 810 353 782 346 L 736 338 Q 682 331 621 321 Q 605 320 617 306 Q 638 285 691 298 Q 710 304 736 306 L 782 311 Z"/>
  <path id="z36994d13" d="M 742 138 Q 746 119 752 110 Q 756 104 762 107 Q 768 110 773 122 Q 782 152 782 311 L 782 346 Q 781 379 783 419 L 784 456 Q 787 468 790 489 Q 793 504 781 511 Q 756 529 743 530 Q 733 534 720 527 Q 713 520 719 512 Q 734 479 734 444 L 735 411 Q 735 378 736 338 L 736 306 Q 737 279 737 249 Q 738 167 742 138 Z"/>
  <path id="z36994d14" d="M 191 691 Q 215 669 241 640 Q 254 627 272 627 Q 282 627 289 641 Q 293 656 286 688 Q 277 718 187 742 Q 171 746 164 743 Q 158 739 160 726 Q 163 714 191 691 Z"/>
  <path id="z36994d15" d="M 260 203 Q 273 213 279 229 Q 291 268 250 330 Q 223 378 285 455 Q 288 459 292 462 Q 311 480 293 494 Q 274 509 240 521 Q 219 533 180 500 Q 108 460 83 461 Q 76 461 75 456 Q 74 452 82 447 Q 118 432 195 464 Q 204 468 212 458 Q 230 440 213 417 Q 176 375 220 302 Q 241 259 240 236 Q 240 217 235 206 Q 234 206 234 205 C 224 177 239 182 260 203 Z"/>
  <path id="z36994d16" d="M 234 205 Q 194 206 152 192 Q 124 183 80 182 Q 73 182 70 173 Q 66 166 75 156 Q 91 137 115 125 Q 127 118 146 132 Q 203 175 267 163 Q 340 148 487 87 Q 682 0 792 -1 Q 805 0 823 7 Q 881 28 931 64 Q 953 79 931 78 Q 673 78 549 112 Q 455 139 336 183 Q 299 199 260 203 L 234 205 Z"/>
<defs>
  <clipPath id="z36994c1"><use href="#z36994d1"/></clipPath>
  <clipPath id="z36994c2"><use href="#z36994d2"/></clipPath>
  <clipPath id="z36994c3"><use href="#z36994d3"/></clipPath>
  <clipPath id="z36994c4"><use href="#z36994d4"/></clipPath>
  <clipPath id="z36994c5"><use href="#z36994d5"/></clipPath>
  <clipPath id="z36994c6"><use href="#z36994d6"/></clipPath>
  <clipPath id="z36994c7"><use href="#z36994d7"/></clipPath>
  <clipPath id="z36994c8"><use href="#z36994d8"/></clipPath>
  <clipPath id="z36994c9"><use href="#z36994d9"/></clipPath>
  <clipPath id="z36994c10"><use href="#z36994d10"/></clipPath>
  <clipPath id="z36994c11"><use href="#z36994d11"/></clipPath>
  <clipPath id="z36994c12"><use href="#z36994d12"/></clipPath>
  <clipPath id="z36994c13"><use href="#z36994d13"/></clipPath>
  <clipPath id="z36994c14"><use href="#z36994d14"/></clipPath>
  <clipPath id="z36994c15"><use href="#z36994d15"/></clipPath>
  <clipPath id="z36994c16"><use href="#z36994d16"/></clipPath>
</defs>
<path style="--d:1s;" pathLength="3333" clip-path="url(#z36994c1)" d="M 446 838 L 468 809 L 463 788 L 411 697 L 341 622"/>
<path style="--d:2s;" pathLength="3333" clip-path="url(#z36994c2)" d="M 436 697 L 510 714 L 549 704 L 498 605 L 478 586"/>
<path style="--d:3s;" pathLength="3333" clip-path="url(#z36994c3)" d="M 340 563 L 361 545 L 368 530 L 368 411 L 362 362 L 343 295 L 318 237 L 301 217"/>
<path style="--d:4s;" pathLength="3333" clip-path="url(#z36994c4)" d="M 381 562 L 404 553 L 528 584 L 554 581 L 572 567 L 577 555 L 581 236 L 566 209 L 500 240"/>
<path style="--d:5s;" pathLength="3333" clip-path="url(#z36994c5)" d="M 410 443 L 494 464 L 529 461"/>
<path style="--d:6s;" pathLength="3333" clip-path="url(#z36994c6)" d="M 397 351 L 492 371 L 522 374 L 537 369"/>
<path style="--d:7s;" pathLength="3333" clip-path="url(#z36994c7)" d="M 441 545 L 464 531 L 468 522 L 463 237"/>
<path style="--d:8s;" pathLength="3333" clip-path="url(#z36994c8)" d="M 620 710 L 658 706 L 794 742 L 832 748 L 847 742 L 856 731 L 849 661 L 835 604 L 820 578 L 797 561 L 747 588"/>
<path style="--d:9s;" pathLength="3333" clip-path="url(#z36994c9)" d="M 697 697 L 711 686 L 717 671 L 708 642 L 662 565 L 629 532"/>
<path style="--d:10s;" pathLength="3333" clip-path="url(#z36994c10)" d="M 650 499 L 664 485 L 666 468 L 644 420 L 604 376"/>
<path style="--d:11s;" pathLength="3333" clip-path="url(#z36994c11)" d="M 671 420 L 792 437 L 838 452 L 875 450"/>
<path style="--d:12s;" pathLength="3333" clip-path="url(#z36994c12)" d="M 628 311 L 661 310 L 846 338 L 903 336 L 931 326"/>
<path style="--d:13s;" pathLength="3333" clip-path="url(#z36994c13)" d="M 730 519 L 758 492 L 760 475 L 759 116"/>
<path style="--d:14s;" pathLength="3333" clip-path="url(#z36994c14)" d="M 170 735 L 245 685 L 270 647"/>
<path style="--d:15s;" pathLength="3333" clip-path="url(#z36994c15)" d="M 82 454 L 120 455 L 202 489 L 229 488 L 249 473 L 240 424 L 219 374 L 224 336 L 253 281 L 261 247 L 254 218 L 242 211"/>
<path style="--d:16s;" pathLength="3333" clip-path="url(#z36994c16)" d="M 84 168 L 125 155 L 203 183 L 280 181 L 562 82 L 719 46 L 805 41 L 875 55 L 920 71"/>
</svg>