<svg id="z33644" class="acjk" viewBox="0 0 1024 1024" xmlns="http://www.w3.org/2000/svg">
  <path id="z33644d1" d="M 628 664 Q 734 671 832 665 Q 848 664 855 674 Q 859 686 846 701 Q 794 746 706 725 Q 678 721 649 715 L 593 706 Q 518 696 438 684 L 390 678 Q 300 671 201 659 Q 170 656 191 639 Q 236 611 309 624 Q 355 636 400 642 L 443 649 Q 507 658 581 661 L 628 664 Z"/>
  <path id="z33644d2" d="M 438 684 Q 434 721 432 749 Q 433 768 413 774 Q 373 792 351 784 Q 333 774 349 756 Q 379 723 390 678 L 400 642 Q 418 588 427 579 Q 440 569 445 581 Q 448 596 443 649 L 438 684 Z"/>
  <path id="z33644d3" d="M 649 715 Q 650 718 651 720 Q 660 742 677 772 Q 692 788 681 798 Q 669 814 634 832 Q 618 841 600 832 Q 590 826 598 815 Q 607 794 605 769 Q 601 741 593 706 L 581 661 Q 565 601 566 587 Q 567 574 583 584 Q 602 600 628 664 L 649 715 Z"/>
  <path id="z33644d4" d="M 296 469 Q 386 497 614 527 Q 684 536 703 532 Q 719 528 719 521 Q 719 517 671 445 Q 664 433 669 428 Q 675 424 692 433 Q 750 467 797 475 Q 836 485 836 493 Q 835 503 770 559 Q 746 578 680 566 Q 560 553 349 519 Q 297 512 243 506 Q 212 503 232 487 Q 263 460 296 469 Z"/>
  <path id="z33644d5" d="M 347 420 Q 416 365 438 366 Q 451 367 454 386 Q 454 399 441 416 Q 428 431 403 435 Q 363 445 347 446 Q 338 446 339 435 Q 339 428 347 420 Z"/>
  <path id="z33644d6" d="M 337 297 Q 362 281 391 261 Q 404 251 418 254 Q 427 255 429 268 Q 430 281 419 306 Q 412 322 384 330 Q 315 340 307 335 Q 304 331 307 320 Q 311 311 337 297 Z"/>
  <path id="z33644d7" d="M 537 192 Q 591 198 871 197 Q 893 196 898 205 Q 905 218 887 233 Q 830 275 791 268 Q 697 250 547 231 L 493 224 Q 328 206 134 187 Q 112 186 128 167 Q 143 152 162 146 Q 184 139 201 144 Q 331 177 483 188 L 537 192 Z"/>
  <path id="z33644d8" d="M 483 188 Q 444 86 294 11 Q 266 -1 232 -15 Q 219 -19 215 -22 Q 209 -28 225 -32 Q 322 -38 446 46 Q 465 62 482 81 Q 516 121 536 186 Q 536 189 537 192 L 547 231 Q 557 285 566 365 Q 567 393 580 425 Q 586 437 577 444 Q 558 462 522 477 Q 500 487 483 481 Q 464 474 479 456 Q 525 404 494 226 Q 493 226 493 224 L 483 188 Z"/>
  <path id="z33644d9" d="M 586 106 Q 662 54 757 -24 Q 776 -43 793 -45 Q 803 -45 809 -33 Q 819 -17 800 27 Q 773 93 582 138 Q 572 142 572 129 Q 573 116 586 106 Z"/>
<defs>
  <clipPath id="z33644c1"><use href="#z33644d1"/></clipPath>
  <clipPath id="z33644c2"><use href="#z33644d2"/></clipPath>
  <clipPath id="z33644c3"><use href="#z33644d3"/></clipPath>
  <clipPath id="z33644c4"><use href="#z33644d4"/></clipPath>
  <clipPath id="z33644c5"><use href="#z33644d5"/></clipPath>
  <clipPath id="z33644c6"><use href="#z33644d6"/></clipPath>
  <clipPath id="z33644c7"><use href="#z33644d7"/></clipPath>
  <clipPath id="z33644c8"><use href="#z33644d8"/></clipPath>
  <clipPath id="z33644c9"><use href="#z33644d9"/></clipPath>
</defs>
<path style="--d:1s;" pathLength="3333" clip-path="url(#z33644c1)" d="M 194 650 L 239 642 L 297 645 L 512 676 L 738 700 L 803 695 L 843 680"/>
<path style="--d:2s;" pathLength="3333" clip-path="url(#z33644c2)" d="M 357 770 L 380 760 L 400 741 L 436 584"/>
<path style="--d:3s;" pathLength="3333" clip-path="url(#z33644c3)" d="M 605 823 L 630 805 L 642 782 L 605 662 L 575 588"/>
<path style="--d:4s;" pathLength="3333" clip-path="url(#z33644c4)" d="M 236 498 L 278 488 L 473 524 L 693 552 L 727 548 L 742 540 L 757 524 L 761 510 L 674 433"/>
<path style="--d:5s;" pathLength="3333" clip-path="url(#z33644c5)" d="M 351 435 L 413 405 L 436 382"/>
<path style="--d:6s;" pathLength="3333" clip-path="url(#z33644c6)" d="M 312 328 L 393 295 L 415 267"/>
<path style="--d:7s;" pathLength="3333" clip-path="url(#z33644c7)" d="M 131 177 L 191 167 L 399 198 L 800 233 L 867 221 L 886 212"/>
<path style="--d:8s;" pathLength="3333" clip-path="url(#z33644c8)" d="M 485 468 L 508 457 L 529 436 L 538 411 L 523 242 L 492 145 L 441 78 L 379 33 L 295 -8 L 221 -26"/>
<path style="--d:9s;" pathLength="3333" clip-path="url(#z33644c9)" d="M 584 126 L 683 76 L 740 39 L 763 19 L 792 -27"/>
</svg>