<svg id="z33011" class="acjk" viewBox="0 0 1024 1024" xmlns="http://www.w3.org/2000/svg">
  <path id="z33011d1" d="M 197 705 Q 184 715 161 722 Q 143 729 133 724 Q 123 717 130 705 Q 151 681 156 617 Q 156 605 157 590 Q 164 425 135 297 Q 108 189 43 64 Q 39 58 38 52 Q 37 42 46 46 Q 61 49 91 99 Q 155 189 184 329 L 189 357 Q 201 429 204 499 L 205 530 Q 205 656 208 677 C 209 698 209 698 197 705 Z"/>
  <path id="z33011d2" d="M 361 289 Q 346 644 365 679 Q 375 698 364 707 Q 343 725 309 738 Q 291 745 276 737 Q 257 724 243 719 Q 227 712 197 705 C 168 697 178 672 208 677 Q 226 676 268 693 Q 287 699 292 689 Q 305 650 310 360 Q 310 129 296 105 Q 292 99 271 103 Q 241 109 211 116 Q 192 120 193 111 Q 254 66 291 32 Q 304 14 319 11 Q 328 7 335 17 Q 368 56 369 134 Q 365 195 362 267 L 361 289 Z"/>
  <path id="z33011d3" d="M 204 499 Q 246 508 275 513 Q 294 519 286 530 Q 274 540 252 542 Q 233 542 205 530 C 177 518 175 493 204 499 Z"/>
  <path id="z33011d4" d="M 184 329 Q 185 329 189 329 Q 240 336 277 342 Q 298 346 289 357 Q 279 370 256 373 Q 217 376 189 357 C 164 341 154 329 184 329 Z"/>
  <path id="z33011d5" d="M 543 684 Q 583 762 598 776 Q 605 786 601 799 Q 595 812 566 831 Q 539 846 521 845 Q 503 841 513 821 Q 546 761 396 530 Q 387 520 385 513 Q 384 503 396 506 Q 415 512 466 573 L 485 598 Q 488 602 492 607 Q 508 629 526 656 L 543 684 Z"/>
  <path id="z33011d6" d="M 578 477 Q 493 363 361 289 C 335 274 333 258 362 267 Q 512 312 613 443 L 639 479 Q 679 537 718 619 Q 734 647 759 666 Q 774 673 774 683 Q 773 696 744 712 Q 708 734 694 734 Q 682 733 671 724 Q 587 690 543 684 C 514 678 496 660 526 656 Q 559 644 633 675 Q 655 684 664 677 Q 671 673 652 619 Q 637 565 599 510 L 578 477 Z"/>
  <path id="z33011d7" d="M 466 573 Q 493 561 578 477 L 613 443 Q 700 361 774 297 Q 795 278 823 283 Q 976 310 985 325 Q 988 334 977 336 Q 812 366 728 416 Q 686 443 639 479 L 599 510 Q 559 543 514 583 Q 501 598 485 598 C 456 606 440 589 466 573 Z"/>
  <path id="z33011d8" d="M 479 246 Q 467 252 436 256 Q 424 260 421 254 Q 414 248 423 232 Q 453 169 471 67 Q 474 36 492 15 Q 510 -7 515 9 Q 519 21 519 38 L 515 73 Q 515 74 515 77 Q 496 180 492 214 C 488 242 488 242 479 246 Z"/>
  <path id="z33011d9" d="M 727 102 Q 749 187 784 217 Q 800 236 786 255 Q 708 313 654 286 Q 585 262 479 246 C 449 241 462 211 492 214 Q 508 214 660 242 Q 676 245 683 238 Q 701 220 675 104 C 669 75 719 73 727 102 Z"/>
  <path id="z33011d10" d="M 519 38 Q 556 50 743 66 Q 753 67 755 76 Q 755 83 727 102 C 712 113 704 111 675 104 Q 587 83 515 73 C 485 69 490 30 519 38 Z"/>
<defs>
  <clipPath id="z33011c1"><use href="#z33011d1"/></clipPath>
  <clipPath id="z33011c2"><use href="#z33011d2"/></clipPath>
  <clipPath id="z33011c3"><use href="#z33011d3"/></clipPath>
  <clipPath id="z33011c4"><use href="#z33011d4"/></clipPath>
  <clipPath id="z33011c5"><use href="#z33011d5"/></clipPath>
  <clipPath id="z33011c6"><use href="#z33011d6"/></clipPath>
  <clipPath id="z33011c7"><use href="#z33011d7"/></clipPath>
  <clipPath id="z33011c8"><use href="#z33011d8"/></clipPath>
  <clipPath id="z33011c9"><use href="#z33011d9"/></clipPath>
  <clipPath id="z33011c10"><use href="#z33011d10"/></clipPath>
</defs>
<path style="--d:1s;" pathLength="3333" clip-path="url(#z33011c1)" d="M 140 713 L 170 690 L 179 661 L 182 507 L 170 368 L 151 275 L 115 175 L 75 96 L 46 54"/>
<path style="--d:2s;" pathLength="3333" clip-path="url(#z33011c2)" d="M 206 700 L 236 698 L 289 718 L 307 711 L 330 688 L 337 153 L 330 92 L 314 67 L 203 109"/>
<path style="--d:3s;" pathLength="3333" clip-path="url(#z33011c3)" d="M 211 507 L 229 522 L 277 524"/>
<path style="--d:4s;" pathLength="3333" clip-path="url(#z33011c4)" d="M 187 336 L 202 347 L 235 355 L 281 351"/>
<path style="--d:5s;" pathLength="3333" clip-path="url(#z33011c5)" d="M 523 831 L 546 811 L 558 789 L 535 727 L 465 603 L 393 514"/>
<path style="--d:6s;" pathLength="3333" clip-path="url(#z33011c6)" d="M 532 659 L 650 698 L 695 696 L 710 681 L 650 543 L 580 439 L 494 355 L 446 321 L 373 284 L 368 273"/>
<path style="--d:7s;" pathLength="3333" clip-path="url(#z33011c7)" d="M 472 578 L 494 577 L 509 566 L 565 512 L 710 392 L 809 329 L 935 324 L 978 329"/>
<path style="--d:8s;" pathLength="3333" clip-path="url(#z33011c8)" d="M 430 246 L 457 224 L 465 206 L 504 14"/>
<path style="--d:9s;" pathLength="3333" clip-path="url(#z33011c9)" d="M 488 244 L 504 233 L 669 267 L 707 260 L 735 233 L 707 129 L 682 115"/>
<path style="--d:10s;" pathLength="3333" clip-path="url(#z33011c10)" d="M 520 44 L 537 60 L 672 82 L 720 84 L 746 75"/>
</svg>