<svg id="z35419" class="acjk" viewBox="0 0 1024 1024" xmlns="http://www.w3.org/2000/svg">
  <path id="z35419d1" d="M 321 768 Q 352 744 387 715 Q 403 702 420 704 Q 432 705 436 720 Q 440 736 428 769 Q 421 790 385 804 Q 301 829 288 819 Q 282 815 285 801 Q 289 788 321 768 Z"/>
  <path id="z35419d2" d="M 67 561 Q 54 558 51 550 Q 48 540 65 528 Q 107 503 149 518 Q 291 575 446 605 Q 462 609 463 616 Q 463 629 444 638 Q 416 648 392 641 Q 149 572 67 561 Z"/>
  <path id="z35419d3" d="M 224 477 Q 193 468 217 456 Q 257 441 302 457 Q 342 470 384 482 Q 403 489 406 492 Q 413 499 408 506 Q 401 516 375 519 Q 348 520 324 508 Q 303 498 280 491 Q 255 482 224 477 Z"/>
  <path id="z35419d4" d="M 224 369 Q 193 360 217 348 Q 259 332 302 348 Q 345 361 390 374 Q 411 381 413 384 Q 420 391 416 398 Q 409 408 383 411 Q 365 414 287 384 Q 257 377 224 369 Z"/>
  <path id="z35419d5" d="M 207 241 Q 195 247 164 253 Q 152 256 149 251 Q 142 244 151 228 Q 179 170 196 75 Q 199 47 216 27 Q 234 5 239 21 Q 246 42 240 84 Q 239 85 239 86 L 233 119 Q 220 192 219 216 C 218 237 218 237 207 241 Z"/>
  <path id="z35419d6" d="M 392 152 Q 407 218 426 237 Q 447 264 423 276 Q 404 286 376 301 Q 357 311 318 284 Q 282 266 207 241 C 179 231 189 211 219 216 Q 231 217 243 222 Q 285 235 320 247 Q 344 254 351 245 Q 357 241 352 213 Q 348 186 342 154 C 337 124 385 123 392 152 Z"/>
  <path id="z35419d7" d="M 239 86 Q 246 86 256 88 Q 302 103 407 121 Q 417 122 418 132 Q 418 139 392 152 L 342 154 Q 339 154 338 153 Q 280 132 233 119 C 204 111 209 84 239 86 Z"/>
  <path id="z35419d8" d="M 584 640 Q 568 653 552 659 Q 539 663 530 658 Q 521 654 525 642 Q 532 626 541 612 Q 550 590 551 552 Q 554 510 557 151 C 557 121 604 127 604 157 Q 604 236 604 308 L 604 340 Q 604 401 604 456 L 604 488 Q 604 596 607 605 C 609 622 608 622 584 640 Z"/>
  <path id="z35419d9" d="M 817 189 Q 817 409 828 555 Q 829 594 848 618 Q 861 634 846 653 Q 834 665 780 694 Q 762 706 698 675 Q 620 648 584 640 C 555 633 579 595 607 605 Q 613 606 621 610 Q 745 653 757 643 Q 769 619 760 180 C 759 150 817 159 817 189 Z"/>
  <path id="z35419d10" d="M 604 456 Q 662 466 707 471 Q 731 475 721 488 Q 711 503 685 506 Q 643 512 604 488 C 578 473 574 451 604 456 Z"/>
  <path id="z35419d11" d="M 604 308 Q 665 317 711 322 Q 735 326 725 340 Q 713 355 687 359 Q 641 362 604 340 C 578 325 574 304 604 308 Z"/>
  <path id="z35419d12" d="M 557 151 Q 505 145 452 138 Q 431 137 447 119 Q 460 106 479 100 Q 500 94 516 99 Q 675 139 964 140 L 966 140 Q 985 140 991 148 Q 997 160 980 174 Q 922 217 863 198 Q 842 195 817 189 L 760 180 Q 727 176 694 170 Q 651 164 604 157 L 557 151 Z"/>
<defs>
  <clipPath id="z35419c1"><use href="#z35419d1"/></clipPath>
  <clipPath id="z35419c2"><use href="#z35419d2"/></clipPath>
  <clipPath id="z35419c3"><use href="#z35419d3"/></clipPath>
  <clipPath id="z35419c4"><use href="#z35419d4"/></clipPath>
  <clipPath id="z35419c5"><use href="#z35419d5"/></clipPath>
  <clipPath id="z35419c6"><use href="#z35419d6"/></clipPath>
  <clipPath id="z35419c7"><use href="#z35419d7"/></clipPath>
  <clipPath id="z35419c8"><use href="#z35419d8"/></clipPath>
  <clipPath id="z35419c9"><use href="#z35419d9"/></clipPath>
  <clipPath id="z35419c10"><use href="#z35419d10"/></clipPath>
  <clipPath id="z35419c11"><use href="#z35419d11"/></clipPath>
  <clipPath id="z35419c12"><use href="#z35419d12"/></clipPath>
</defs>
<path style="--d:1s;" pathLength="3333" clip-path="url(#z35419c1)" d="M 294 811 L 388 762 L 418 722"/>
<path style="--d:2s;" pathLength="3333" clip-path="url(#z35419c2)" d="M 62 547 L 125 542 L 387 617 L 453 619"/>
<path style="--d:3s;" pathLength="3333" clip-path="url(#z35419c3)" d="M 218 467 L 276 469 L 348 495 L 397 500"/>
<path style="--d:4s;" pathLength="3333" clip-path="url(#z35419c4)" d="M 218 359 L 265 359 L 367 389 L 406 393"/>
<path style="--d:5s;" pathLength="3333" clip-path="url(#z35419c5)" d="M 158 243 L 190 210 L 228 26"/>
<path style="--d:6s;" pathLength="3333" clip-path="url(#z35419c6)" d="M 218 239 L 233 233 L 338 273 L 368 271 L 389 252 L 388 241 L 372 178 L 349 161"/>
<path style="--d:7s;" pathLength="3333" clip-path="url(#z35419c7)" d="M 242 92 L 253 106 L 345 132 L 385 135 L 409 130"/>
<path style="--d:8s;" pathLength="3333" clip-path="url(#z35419c8)" d="M 535 648 L 564 624 L 577 591 L 581 178 L 563 165"/>
<path style="--d:9s;" pathLength="3333" clip-path="url(#z35419c9)" d="M 590 636 L 630 631 L 716 662 L 761 670 L 777 665 L 803 630 L 794 531 L 789 213 L 765 195"/>
<path style="--d:10s;" pathLength="3333" clip-path="url(#z35419c10)" d="M 611 461 L 631 481 L 676 488 L 712 481"/>
<path style="--d:11s;" pathLength="3333" clip-path="url(#z35419c11)" d="M 612 313 L 623 329 L 654 337 L 688 339 L 716 333"/>
<path style="--d:12s;" pathLength="3333" clip-path="url(#z35419c12)" d="M 449 129 L 499 120 L 675 147 L 900 172 L 946 166 L 980 154"/>
</svg>