<svg id="z34989" class="acjk" viewBox="0 0 1024 1024" xmlns="http://www.w3.org/2000/svg">
  <path id="z34989d1" d="M 556 684 Q 682 712 686 714 Q 693 721 690 729 Q 684 739 658 748 Q 630 755 603 745 Q 554 732 504 718 L 445 705 Q 363 692 270 685 Q 236 681 259 665 Q 298 640 348 651 Q 388 658 430 664 L 487 672 Q 502 675 518 677 L 556 684 Z"/>
  <path id="z34989d2" d="M 504 718 Q 504 721 532 784 Q 544 800 527 816 Q 490 852 475 853 Q 456 854 465 831 Q 472 797 445 705 L 430 664 Q 361 483 203 402 Q 187 395 182 390 Q 178 384 189 381 Q 222 372 305 417 Q 392 468 447 581 Q 466 621 487 672 L 504 718 Z"/>
  <path id="z34989d3" d="M 541 484 Q 542 483 543 480 Q 550 452 571 436 Q 613 403 765 411 Q 834 415 860 430 Q 888 445 875 473 Q 859 507 846 567 Q 845 582 837 586 Q 830 590 827 572 Q 814 499 802 486 Q 778 459 685 455 Q 633 454 611 462 Q 587 474 582 499 L 580 533 Q 580 587 595 621 Q 605 649 588 664 Q 569 677 556 684 C 530 699 502 702 518 677 Q 539 656 537 587 Q 536 535 538 507 L 541 484 Z"/>
  <path id="z34989d4" d="M 538 507 Q 511 497 504 488 Q 498 481 509 479 Q 518 478 541 484 L 582 499 Q 595 506 613 514 Q 656 533 710 569 Q 734 587 750 592 Q 760 596 761 608 Q 762 618 748 643 Q 735 664 722 669 Q 709 673 707 656 Q 708 625 616 556 Q 600 546 580 533 L 538 507 Z"/>
  <path id="z34989d5" d="M 699 779 Q 730 760 762 735 Q 775 725 789 727 Q 798 728 801 740 Q 804 753 793 778 Q 786 797 755 808 Q 682 826 672 819 Q 668 815 670 804 Q 674 794 699 779 Z"/>
  <path id="z34989d6" d="M 545 357 Q 546 370 542 391 Q 533 415 459 434 Q 446 437 440 435 Q 436 431 437 420 Q 440 410 463 392 Q 490 367 509 348 C 530 327 544 327 545 357 Z"/>
  <path id="z34989d7" d="M 467 298 Q 479 301 661 327 Q 671 326 681 338 Q 682 350 659 360 Q 629 381 545 357 L 509 348 Q 494 347 481 343 Q 427 331 249 309 Q 221 305 242 288 Q 269 263 316 271 Q 359 280 409 288 L 467 298 Z"/>
  <path id="z34989d8" d="M 482 272 Q 479 285 467 298 C 449 322 423 314 409 288 Q 345 165 149 59 Q 131 50 111 38 Q 104 35 112 31 Q 170 22 310 112 Q 316 118 324 122 Q 343 137 367 157 L 400 186 Q 466 249 472 252 C 486 263 486 263 482 272 Z"/>
  <path id="z34989d9" d="M 367 157 Q 380 117 369 70 Q 363 42 351 27 Q 338 8 344 -14 Q 354 -45 369 -58 Q 379 -65 392 -48 Q 426 -11 539 82 Q 557 95 558 102 Q 559 115 540 105 Q 431 50 419 54 Q 412 58 413 79 Q 419 130 423 143 Q 427 161 415 172 Q 408 181 400 186 C 377 205 359 186 367 157 Z"/>
  <path id="z34989d10" d="M 610 180 Q 656 199 686 215 Q 746 249 775 257 Q 794 263 788 281 Q 778 297 757 314 Q 738 330 725 329 Q 713 329 716 317 Q 716 287 597 190 C 574 171 582 168 610 180 Z"/>
  <path id="z34989d11" d="M 597 190 Q 575 212 550 236 Q 513 273 482 272 C 452 276 447 268 472 252 Q 517 227 614 115 Q 725 -11 781 -11 Q 856 -10 918 1 Q 952 5 950 15 Q 947 25 785 70 Q 697 103 610 180 L 597 190 Z"/>
<defs>
  <clipPath id="z34989c1"><use href="#z34989d1"/></clipPath>
  <clipPath id="z34989c2"><use href="#z34989d2"/></clipPath>
  <clipPath id="z34989c3"><use href="#z34989d3"/></clipPath>
  <clipPath id="z34989c4"><use href="#z34989d4"/></clipPath>
  <clipPath id="z34989c5"><use href="#z34989d5"/></clipPath>
  <clipPath id="z34989c6"><use href="#z34989d6"/></clipPath>
  <clipPath id="z34989c7"><use href="#z34989d7"/></clipPath>
  <clipPath id="z34989c8"><use href="#z34989d8"/></clipPath>
  <clipPath id="z34989c9"><use href="#z34989d9"/></clipPath>
  <clipPath id="z34989c10"><use href="#z34989d10"/></clipPath>
  <clipPath id="z34989c11"><use href="#z34989d11"/></clipPath>
</defs>
<path style="--d:1s;" pathLength="3333" clip-path="url(#z34989c1)" d="M 262 676 L 285 669 L 337 669 L 507 696 L 637 727 L 682 723"/>
<path style="--d:2s;" pathLength="3333" clip-path="url(#z34989c2)" d="M 473 841 L 498 802 L 498 786 L 461 674 L 397 542 L 361 494 L 311 447 L 252 409 L 189 388"/>
<path style="--d:3s;" pathLength="3333" clip-path="url(#z34989c3)" d="M 525 676 L 552 661 L 567 636 L 558 548 L 565 480 L 581 456 L 618 438 L 692 432 L 753 435 L 826 457 L 835 463 L 837 477 L 836 579"/>
<path style="--d:4s;" pathLength="3333" clip-path="url(#z34989c4)" d="M 718 658 L 726 617 L 703 595 L 612 532 L 544 496 L 512 486"/>
<path style="--d:5s;" pathLength="3333" clip-path="url(#z34989c5)" d="M 678 811 L 751 779 L 766 769 L 787 741"/>
<path style="--d:6s;" pathLength="3333" clip-path="url(#z34989c6)" d="M 445 426 L 509 387 L 537 362"/>
<path style="--d:7s;" pathLength="3333" clip-path="url(#z34989c7)" d="M 244 299 L 291 291 L 579 341 L 631 346 L 670 340"/>
<path style="--d:8s;" pathLength="3333" clip-path="url(#z34989c8)" d="M 462 284 L 457 273 L 430 258 L 368 190 L 290 122 L 206 71 L 117 35"/>
<path style="--d:9s;" pathLength="3333" clip-path="url(#z34989c9)" d="M 399 176 L 390 55 L 396 17 L 432 27 L 549 102"/>
<path style="--d:10s;" pathLength="3333" clip-path="url(#z34989c10)" d="M 728 317 L 737 298 L 737 279 L 628 199 L 614 194 L 608 198"/>
<path style="--d:11s;" pathLength="3333" clip-path="url(#z34989c11)" d="M 479 255 L 497 255 L 519 241 L 672 94 L 758 37 L 804 26 L 946 13"/>
</svg>