<svg id="z35275" class="acjk" viewBox="0 0 1024 1024" xmlns="http://www.w3.org/2000/svg">
  <path id="z35275d1" d="M 296 658 Q 342 671 392 682 Q 423 691 428 695 Q 437 704 432 712 Q 425 724 394 730 Q 363 734 332 721 Q 298 708 258 696 Q 215 686 164 678 Q 127 671 155 655 Q 200 631 255 648 L 296 658 Z"/>
  <path id="z35275d2" d="M 314 286 Q 315 344 317 397 L 318 418 Q 319 568 325 608 Q 334 633 296 658 C 272 676 245 676 255 648 Q 267 621 272 534 Q 272 461 272 273 C 272 243 313 256 314 286 Z"/>
  <path id="z35275d3" d="M 183 423 Q 201 456 215 507 Q 219 523 226 538 Q 232 547 226 554 Q 219 561 194 571 Q 175 578 168 575 Q 158 571 161 559 Q 179 477 122 396 Q 107 371 66 322 Q 60 315 66 314 Q 72 313 80 317 Q 132 347 171 401 L 183 423 Z"/>
  <path id="z35275d4" d="M 171 401 Q 217 347 237 346 Q 247 345 252 359 Q 253 369 246 385 Q 234 406 183 423 C 155 433 151 424 171 401 Z"/>
  <path id="z35275d5" d="M 317 397 Q 316 398 318 398 Q 345 408 386 466 L 399 487 Q 405 499 411 510 Q 424 541 438 566 Q 445 578 432 587 Q 396 608 376 603 Q 367 600 371 589 Q 389 528 326 430 Q 322 424 318 418 C 301 393 297 386 317 397 Z"/>
  <path id="z35275d6" d="M 386 466 Q 426 409 445 407 Q 455 406 461 419 Q 464 429 458 445 Q 446 469 399 487 C 371 498 369 491 386 466 Z"/>
  <path id="z35275d7" d="M 272 273 Q 211 254 144 232 Q 123 225 89 225 Q 76 224 74 212 Q 73 199 82 190 Q 106 174 140 156 Q 152 153 163 162 Q 206 195 253 216 Q 326 249 397 283 Q 425 295 445 311 Q 458 318 458 328 Q 452 334 440 331 Q 379 309 314 286 L 272 273 Z"/>
  <path id="z35275d8" d="M 530 738 Q 512 751 492 756 Q 483 757 477 750 Q 474 744 482 734 Q 525 602 489 432 Q 474 390 480 369 Q 490 336 501 324 Q 511 311 521 324 Q 546 351 547 522 Q 550 616 554 712 C 554 722 554 722 530 738 Z"/>
  <path id="z35275d9" d="M 712 408 Q 705 384 719 363 Q 732 333 742 334 Q 757 335 773 368 Q 786 395 786 416 Q 774 507 776 647 Q 776 687 798 723 Q 808 739 801 748 Q 773 772 726 791 Q 711 795 643 766 Q 550 742 530 738 C 501 731 525 705 554 712 Q 558 713 563 714 Q 689 750 706 742 Q 716 717 721 649 Q 724 447 712 408 Z"/>
  <path id="z35275d10" d="M 599 577 Q 599 273 506 150 Q 440 84 372 39 Q 360 33 358 30 Q 354 24 368 23 Q 408 20 511 95 Q 632 194 646 472 Q 649 559 665 606 Q 669 616 661 623 Q 645 639 612 652 Q 593 661 576 655 Q 558 648 573 632 Q 598 605 599 577 Z"/>
  <path id="z35275d11" d="M 971 81 Q 955 112 934 209 Q 933 225 925 230 Q 918 233 915 215 Q 893 112 874 78 Q 853 54 782 57 Q 755 58 734 67 Q 716 76 711 87 Q 689 141 720 301 Q 726 331 678 351 Q 665 355 657 351 Q 650 347 655 329 Q 668 290 664 254 Q 652 109 664 69 Q 667 50 685 34 Q 745 -20 891 4 Q 895 7 901 7 Q 934 16 966 37 Q 987 55 971 81 Z"/>
<defs>
  <clipPath id="z35275c1"><use href="#z35275d1"/></clipPath>
  <clipPath id="z35275c2"><use href="#z35275d2"/></clipPath>
  <clipPath id="z35275c3"><use href="#z35275d3"/></clipPath>
  <clipPath id="z35275c4"><use href="#z35275d4"/></clipPath>
  <clipPath id="z35275c5"><use href="#z35275d5"/></clipPath>
  <clipPath id="z35275c6"><use href="#z35275d6"/></clipPath>
  <clipPath id="z35275c7"><use href="#z35275d7"/></clipPath>
  <clipPath id="z35275c8"><use href="#z35275d8"/></clipPath>
  <clipPath id="z35275c9"><use href="#z35275d9"/></clipPath>
  <clipPath id="z35275c10"><use href="#z35275d10"/></clipPath>
  <clipPath id="z35275c11"><use href="#z35275d11"/></clipPath>
</defs>
<path style="--d:1s;" pathLength="3333" clip-path="url(#z35275c1)" d="M 156 668 L 216 663 L 361 703 L 421 706"/>
<path style="--d:2s;" pathLength="3333" clip-path="url(#z35275c2)" d="M 263 646 L 290 627 L 295 617 L 294 311 L 289 294 L 276 284"/>
<path style="--d:3s;" pathLength="3333" clip-path="url(#z35275c3)" d="M 172 564 L 194 539 L 174 449 L 124 369 L 72 318"/>
<path style="--d:4s;" pathLength="3333" clip-path="url(#z35275c4)" d="M 190 412 L 191 401 L 226 376 L 237 361"/>
<path style="--d:5s;" pathLength="3333" clip-path="url(#z35275c5)" d="M 382 593 L 405 568 L 394 526 L 358 452 L 321 403"/>
<path style="--d:6s;" pathLength="3333" clip-path="url(#z35275c6)" d="M 405 476 L 406 465 L 425 451 L 446 422"/>
<path style="--d:7s;" pathLength="3333" clip-path="url(#z35275c7)" d="M 89 210 L 146 195 L 452 325"/>
<path style="--d:8s;" pathLength="3333" clip-path="url(#z35275c8)" d="M 485 746 L 495 742 L 523 700 L 527 641 L 524 485 L 508 370 L 511 328"/>
<path style="--d:9s;" pathLength="3333" clip-path="url(#z35275c9)" d="M 534 734 L 572 730 L 659 757 L 710 766 L 723 764 L 754 730 L 747 662 L 751 445 L 743 346"/>
<path style="--d:10s;" pathLength="3333" clip-path="url(#z35275c10)" d="M 578 643 L 599 634 L 629 605 L 614 384 L 585 254 L 546 168 L 510 123 L 418 52 L 364 28"/>
<path style="--d:11s;" pathLength="3333" clip-path="url(#z35275c11)" d="M 664 343 L 691 307 L 680 160 L 682 103 L 694 65 L 722 42 L 752 31 L 806 26 L 857 32 L 906 52 L 923 68 L 924 77 L 924 223"/>
</svg>