<svg id="z37365" class="acjk" viewBox="0 0 1024 1024" xmlns="http://www.w3.org/2000/svg">
  <path id="z37365d1" d="M 362 684 Q 381 727 394 743 Q 401 750 398 760 Q 395 770 381 781 Q 365 794 343 798 Q 321 802 309 799 Q 300 795 304 783 Q 334 701 207 507 Q 147 425 52 321 Q 45 314 55 313 Q 110 322 226 455 Q 286 533 349 658 L 362 684 Z"/>
  <path id="z37365d2" d="M 349 658 Q 356 652 371 643 Q 408 619 446 591 Q 459 581 473 583 Q 482 584 485 596 Q 488 609 477 634 Q 470 655 435 668 Q 401 678 362 684 C 332 689 326 677 349 658 Z"/>
  <path id="z37365d3" d="M 358 449 Q 389 459 424 468 Q 446 475 449 478 Q 456 485 452 494 Q 445 504 417 508 Q 395 511 316 481 Q 286 474 249 467 Q 216 458 242 445 Q 273 430 314 438 L 358 449 Z"/>
  <path id="z37365d4" d="M 372 335 Q 474 368 476 368 Q 483 375 479 382 Q 472 392 447 397 Q 423 401 373 380 L 323 363 Q 316 362 310 359 Q 261 346 202 336 Q 171 329 194 316 Q 230 298 281 313 Q 300 319 323 323 L 372 335 Z"/>
  <path id="z37365d5" d="M 365 146 Q 368 251 372 335 L 373 380 Q 373 381 374 383 Q 377 431 373 437 Q 366 444 358 449 C 334 467 311 468 314 438 Q 320 386 323 363 L 323 323 Q 323 259 323 135 C 323 105 364 116 365 146 Z"/>
  <path id="z37365d6" d="M 183 217 Q 196 199 210 178 Q 220 163 236 162 Q 246 161 253 173 Q 260 186 255 216 Q 251 238 185 263 Q 170 269 164 267 Q 160 264 159 251 Q 160 241 183 217 Z"/>
  <path id="z37365d7" d="M 437 278 Q 427 250 402 207 Q 398 200 403 195 Q 410 195 415 200 Q 470 251 498 271 Q 511 277 506 285 Q 499 297 482 309 Q 464 321 446 320 Q 436 317 438 302 Q 442 292 437 278 Z"/>
  <path id="z37365d8" d="M 323 135 Q 247 116 166 96 Q 142 90 105 92 Q 92 91 89 81 Q 86 68 95 58 Q 117 40 151 20 Q 161 16 174 24 Q 220 54 445 136 Q 476 148 500 163 Q 513 170 515 180 Q 509 186 496 184 Q 432 165 365 146 L 323 135 Z"/>
  <path id="z37365d9" d="M 700 250 Q 775 373 808 512 Q 815 555 845 586 Q 863 605 845 617 Q 820 630 791 636 Q 770 642 698 613 Q 617 591 529 579 Q 511 579 508 574 Q 504 562 527 547 Q 554 531 616 552 Q 722 589 735 586 Q 750 586 750 561 Q 726 396 664 289 L 637 249 Q 585 180 485 110 Q 472 100 480 96 Q 507 92 617 164 Q 651 191 667 207 L 700 250 Z"/>
  <path id="z37365d10" d="M 667 207 Q 721 131 771 67 Q 787 45 818 43 Q 983 42 998 54 Q 1002 61 991 67 Q 814 136 740 210 Q 721 228 700 250 L 664 289 Q 613 347 554 423 Q 542 442 522 446 Q 498 447 491 441 Q 488 437 496 431 Q 536 406 559 365 Q 599 304 637 249 L 667 207 Z"/>
  <path id="z37365d11" d="M 600 463 Q 615 447 630 427 Q 640 414 655 414 Q 664 414 669 425 Q 673 437 669 463 Q 662 488 599 504 Q 586 508 580 507 Q 576 504 576 492 Q 577 482 600 463 Z"/>
<defs>
  <clipPath id="z37365c1"><use href="#z37365d1"/></clipPath>
  <clipPath id="z37365c2"><use href="#z37365d2"/></clipPath>
  <clipPath id="z37365c3"><use href="#z37365d3"/></clipPath>
  <clipPath id="z37365c4"><use href="#z37365d4"/></clipPath>
  <clipPath id="z37365c5"><use href="#z37365d5"/></clipPath>
  <clipPath id="z37365c6"><use href="#z37365d6"/></clipPath>
  <clipPath id="z37365c7"><use href="#z37365d7"/></clipPath>
  <clipPath id="z37365c8"><use href="#z37365d8"/></clipPath>
  <clipPath id="z37365c9"><use href="#z37365d9"/></clipPath>
  <clipPath id="z37365c10"><use href="#z37365d10"/></clipPath>
  <clipPath id="z37365c11"><use href="#z37365d11"/></clipPath>
</defs>
<path style="--d:1s;" pathLength="3333" clip-path="url(#z37365c1)" d="M 314 789 L 343 763 L 350 749 L 321 662 L 275 571 L 228 495 L 187 442 L 110 360 L 58 319"/>
<path style="--d:2s;" pathLength="3333" clip-path="url(#z37365c2)" d="M 359 661 L 381 661 L 431 638 L 449 626 L 471 597"/>
<path style="--d:3s;" pathLength="3333" clip-path="url(#z37365c3)" d="M 243 457 L 302 457 L 398 484 L 441 488"/>
<path style="--d:4s;" pathLength="3333" clip-path="url(#z37365c4)" d="M 196 327 L 254 326 L 380 357 L 432 377 L 473 376"/>
<path style="--d:5s;" pathLength="3333" clip-path="url(#z37365c5)" d="M 324 429 L 342 420 L 348 395 L 345 173 L 340 155 L 328 145"/>
<path style="--d:6s;" pathLength="3333" clip-path="url(#z37365c6)" d="M 168 261 L 223 212 L 237 180"/>
<path style="--d:7s;" pathLength="3333" clip-path="url(#z37365c7)" d="M 497 281 L 467 283 L 407 201"/>
<path style="--d:8s;" pathLength="3333" clip-path="url(#z37365c8)" d="M 104 76 L 159 58 L 429 145 L 509 177"/>
<path style="--d:9s;" pathLength="3333" clip-path="url(#z37365c9)" d="M 515 570 L 547 561 L 583 564 L 737 607 L 771 603 L 790 590 L 756 438 L 717 336 L 682 270 L 647 221 L 597 172 L 506 111 L 483 103"/>
<path style="--d:10s;" pathLength="3333" clip-path="url(#z37365c10)" d="M 498 438 L 531 426 L 726 178 L 813 95 L 919 69 L 993 60"/>
<path style="--d:11s;" pathLength="3333" clip-path="url(#z37365c11)" d="M 584 498 L 638 460 L 654 429"/>
</svg>