<svg id="z30388" class="acjk" viewBox="0 0 1024 1024" xmlns="http://www.w3.org/2000/svg">
  <path id="z30388d1" d="M 389 632 Q 310 619 226 596 Q 217 592 214 595 Q 213 599 218 608 Q 320 737 341 758 Q 353 767 348 779 Q 342 791 298 814 Q 282 821 273 818 Q 261 814 266 794 Q 281 739 180 622 Q 161 604 132 585 Q 119 575 122 563 Q 126 547 151 528 Q 161 518 173 528 Q 213 564 402 611 C 431 618 419 637 389 632 Z"/>
  <path id="z30388d2" d="M 402 611 Q 420 581 434 578 Q 443 577 449 585 Q 456 595 456 621 Q 453 651 381 693 Q 371 699 364 698 Q 360 697 358 686 Q 358 683 389 632 L 402 611 Z"/>
  <path id="z30388d3" d="M 199 506 Q 205 485 159 421 Q 137 393 107 360 Q 100 354 97 350 Q 94 343 104 344 Q 135 344 228 440 Q 240 456 250 462 Q 257 468 256 478 Q 255 487 237 505 Q 221 520 208 521 Q 195 521 199 506 Z"/>
  <path id="z30388d4" d="M 345 493 Q 373 471 402 443 Q 412 433 425 434 Q 434 434 437 445 Q 441 455 434 479 Q 425 510 341 530 Q 328 533 324 531 Q 320 527 321 517 Q 324 510 345 493 Z"/>
  <path id="z30388d5" d="M 261 348 Q 262 352 265 354 Q 304 415 302 421 Q 298 431 276 434 Q 252 438 244 434 Q 238 433 237 421 Q 237 361 106 210 Q 91 197 112 202 Q 161 217 247 327 L 261 348 Z"/>
  <path id="z30388d6" d="M 335 198 Q 360 235 384 275 Q 406 317 422 329 Q 432 338 428 348 Q 424 358 376 378 Q 366 382 345 372 Q 320 359 261 348 C 232 342 217 330 247 327 Q 257 323 279 327 Q 342 346 347 337 Q 356 309 298 220 L 272 184 Q 265 177 257 166 Q 202 96 112 30 Q 91 18 109 19 Q 134 19 177 43 Q 223 68 273 122 Q 288 138 302 155 L 335 198 Z"/>
  <path id="z30388d7" d="M 302 155 Q 347 110 356 107 Q 363 106 369 114 Q 378 124 367 158 Q 361 182 335 198 L 298 220 Q 282 236 211 264 Q 204 268 202 258 Q 202 248 210 240 Q 238 215 272 184 L 302 155 Z"/>
  <path id="z30388d8" d="M 681 556 Q 712 565 749 572 Q 782 576 783 561 Q 783 546 755 487 Q 748 472 755 469 Q 762 465 773 477 Q 843 537 871 549 Q 893 556 892 570 Q 891 582 821 614 Q 802 623 776 615 Q 725 600 683 588 L 632 576 Q 577 566 510 552 C 481 546 506 510 535 518 Q 541 519 553 523 Q 592 535 632 544 L 681 556 Z"/>
  <path id="z30388d9" d="M 510 552 Q 473 573 459 568 Q 449 561 455 549 Q 470 525 470 465 Q 469 459 469 450 Q 466 312 431 206 Q 407 133 338 17 Q 334 10 331 5 Q 330 -5 339 -3 Q 363 0 429 101 Q 442 125 455 150 Q 503 261 523 455 Q 523 494 535 518 C 542 536 537 538 510 552 Z"/>
  <path id="z30388d10" d="M 669 401 Q 676 482 681 556 L 683 588 Q 687 672 706 754 Q 710 764 690 780 Q 654 799 630 804 Q 614 807 606 799 Q 599 792 606 776 Q 628 742 629 720 Q 632 651 632 576 L 632 544 Q 631 471 627 390 C 626 360 666 371 669 401 Z"/>
  <path id="z30388d11" d="M 703 172 Q 740 230 774 323 Q 787 351 806 370 Q 825 386 812 399 Q 799 412 768 423 Q 744 430 717 417 Q 695 410 669 401 L 627 390 Q 531 378 529 374 Q 525 367 543 359 Q 579 344 627 357 Q 687 376 697 376 Q 722 372 716 346 Q 698 264 667 207 L 641 171 Q 577 96 460 60 Q 447 54 458 47 Q 464 43 504 45 Q 591 52 672 133 L 703 172 Z"/>
  <path id="z30388d12" d="M 672 133 Q 724 67 774 13 Q 790 -5 815 -4 Q 953 8 962 22 Q 965 29 955 32 Q 790 95 717 160 Q 710 166 703 172 L 667 207 Q 625 247 578 299 Q 566 315 550 316 Q 526 316 520 308 Q 517 304 525 298 Q 559 280 582 248 Q 612 208 641 171 L 672 133 Z"/>
<defs>
  <clipPath id="z30388c1"><use href="#z30388d1"/></clipPath>
  <clipPath id="z30388c2"><use href="#z30388d2"/></clipPath>
  <clipPath id="z30388c3"><use href="#z30388d3"/></clipPath>
  <clipPath id="z30388c4"><use href="#z30388d4"/></clipPath>
  <clipPath id="z30388c5"><use href="#z30388d5"/></clipPath>
  <clipPath id="z30388c6"><use href="#z30388d6"/></clipPath>
  <clipPath id="z30388c7"><use href="#z30388d7"/></clipPath>
  <clipPath id="z30388c8"><use href="#z30388d8"/></clipPath>
  <clipPath id="z30388c9"><use href="#z30388d9"/></clipPath>
  <clipPath id="z30388c10"><use href="#z30388d10"/></clipPath>
  <clipPath id="z30388c11"><use href="#z30388d11"/></clipPath>
  <clipPath id="z30388c12"><use href="#z30388d12"/></clipPath>
</defs>
<path style="--d:1s;" pathLength="3333" clip-path="url(#z30388c1)" d="M 279 804 L 295 786 L 302 767 L 263 697 L 201 620 L 183 577 L 210 573 L 355 614 L 382 618 L 390 611"/>
<path style="--d:2s;" pathLength="3333" clip-path="url(#z30388c2)" d="M 367 689 L 418 636 L 436 594"/>
<path style="--d:3s;" pathLength="3333" clip-path="url(#z30388c3)" d="M 207 511 L 220 494 L 224 477 L 204 445 L 138 373 L 105 352"/>
<path style="--d:4s;" pathLength="3333" clip-path="url(#z30388c4)" d="M 328 523 L 394 486 L 425 446"/>
<path style="--d:5s;" pathLength="3333" clip-path="url(#z30388c5)" d="M 293 420 L 266 408 L 253 377 L 200 297 L 146 236 L 116 217 L 114 210"/>
<path style="--d:6s;" pathLength="3333" clip-path="url(#z30388c6)" d="M 252 331 L 347 356 L 369 352 L 382 337 L 353 267 L 273 152 L 186 67 L 114 24"/>
<path style="--d:7s;" pathLength="3333" clip-path="url(#z30388c7)" d="M 211 255 L 325 172 L 349 143 L 359 118"/>
<path style="--d:8s;" pathLength="3333" clip-path="url(#z30388c8)" d="M 519 550 L 543 539 L 745 589 L 799 590 L 823 568 L 759 475"/>
<path style="--d:9s;" pathLength="3333" clip-path="url(#z30388c9)" d="M 464 558 L 490 534 L 499 511 L 491 393 L 473 278 L 451 198 L 422 128 L 384 62 L 340 6"/>
<path style="--d:10s;" pathLength="3333" clip-path="url(#z30388c10)" d="M 617 789 L 655 759 L 665 739 L 650 427 L 632 398"/>
<path style="--d:11s;" pathLength="3333" clip-path="url(#z30388c11)" d="M 532 371 L 602 369 L 706 394 L 735 391 L 757 380 L 716 250 L 686 190 L 649 143 L 599 101 L 561 79 L 492 55 L 464 53"/>
<path style="--d:12s;" pathLength="3333" clip-path="url(#z30388c12)" d="M 528 306 L 557 297 L 573 284 L 708 130 L 811 43 L 956 25"/>
</svg>