<svg id="z30306" class="acjk" viewBox="0 0 1024 1024" xmlns="http://www.w3.org/2000/svg">
  <path id="z30306d1" d="M 493 828 Q 521 812 551 789 Q 564 780 577 782 Q 587 783 589 796 Q 590 809 580 834 Q 573 850 543 860 Q 474 875 464 867 Q 460 863 463 852 Q 467 843 493 828 Z"/>
  <path id="z30306d2" d="M 353 701 Q 377 694 474 706 Q 771 751 795 763 Q 795 764 797 764 Q 806 770 802 778 Q 796 788 772 796 Q 747 803 720 794 Q 543 743 347 731 C 317 729 323 706 353 701 Z"/>
  <path id="z30306d3" d="M 262 387 Q 223 207 90 1 Q 86 -5 84 -11 Q 81 -21 91 -19 Q 124 -13 210 122 Q 228 155 246 191 Q 321 369 337 579 Q 346 681 352 700 Q 352 701 353 701 C 358 723 358 723 347 731 Q 332 744 308 755 Q 290 765 278 760 Q 266 753 273 741 Q 295 702 292 643 Q 277 468 269 419 L 262 387 Z"/>
  <path id="z30306d4" d="M 146 542 Q 165 523 186 498 Q 198 485 213 485 Q 223 484 229 497 Q 235 510 228 540 Q 222 564 145 589 Q 130 593 124 591 Q 120 587 120 575 Q 121 565 146 542 Z"/>
  <path id="z30306d5" d="M 269 419 Q 95 337 62 333 Q 52 330 51 321 Q 51 309 60 303 Q 82 293 113 281 Q 122 280 131 288 Q 146 306 261 386 Q 261 387 262 387 C 286 405 296 432 269 419 Z"/>
  <path id="z30306d6" d="M 463 658 Q 484 634 510 624 Q 520 623 525 632 Q 528 641 525 651 Q 519 666 507 672 Q 470 690 452 681 Q 448 680 451 673 Q 452 666 463 658 Z"/>
  <path id="z30306d7" d="M 605 626 Q 644 662 665 677 Q 678 683 673 691 Q 667 701 650 713 Q 634 723 616 723 Q 606 720 609 706 Q 613 688 578 618 C 565 591 583 606 605 626 Z"/>
  <path id="z30306d8" d="M 559 584 Q 730 623 731 624 Q 737 630 734 636 Q 730 643 709 650 Q 690 654 605 626 L 578 618 Q 568 617 560 614 Q 499 601 426 594 Q 401 590 418 578 Q 440 563 499 573 Q 511 576 526 577 L 559 584 Z"/>
  <path id="z30306d9" d="M 572 509 Q 626 518 682 526 Q 685 527 690 533 Q 691 542 674 549 Q 650 564 583 543 Q 579 543 575 541 L 530 531 Q 508 527 488 524 Q 463 521 435 517 Q 414 514 430 502 Q 451 484 477 490 Q 501 496 531 501 L 572 509 Z"/>
  <path id="z30306d10" d="M 566 456 Q 569 484 572 509 L 575 541 Q 576 545 576 547 Q 582 560 575 569 Q 566 578 559 584 C 536 604 519 606 526 577 Q 529 568 530 531 L 531 501 Q 531 482 531 450 C 531 420 563 426 566 456 Z"/>
  <path id="z30306d11" d="M 470 410 Q 530 428 607 432 L 635 435 Q 698 442 781 443 Q 796 444 799 450 Q 803 460 790 469 Q 744 500 706 486 Q 651 473 566 456 L 531 450 Q 452 437 361 421 Q 345 420 357 407 Q 367 397 382 393 Q 398 390 409 394 Q 421 398 434 400 L 470 410 Z"/>
  <path id="z30306d12" d="M 432 308 Q 451 332 475 362 Q 490 381 491 385 Q 488 395 470 410 C 448 430 442 429 434 400 Q 410 300 249 180 Q 243 177 250 175 Q 295 175 384 255 Q 387 261 412 285 L 432 308 Z"/>
  <path id="z30306d13" d="M 607 432 Q 629 398 779 269 Q 806 242 846 242 Q 907 243 971 260 Q 987 263 988 267 Q 989 274 976 277 Q 802 331 800 332 Q 757 350 637 434 Q 636 435 635 435 C 610 452 589 456 607 432 Z"/>
  <path id="z30306d14" d="M 527 383 Q 551 346 573 345 Q 583 345 588 359 Q 589 369 581 385 Q 569 397 530 404 Q 523 405 522 396 Q 521 389 527 383 Z"/>
  <path id="z30306d15" d="M 597 157 Q 610 141 621 135 Q 630 129 641 146 Q 650 161 668 242 Q 674 266 691 285 Q 700 295 691 305 Q 679 317 646 335 Q 634 341 579 323 Q 569 322 460 287 C 431 278 441 250 469 262 Q 512 281 594 302 Q 610 306 620 301 Q 629 295 626 282 Q 614 191 602 182 C 591 164 591 164 597 157 Z"/>
  <path id="z30306d16" d="M 461 198 Q 467 201 576 226 Q 592 230 585 239 Q 576 249 558 250 Q 534 253 463 219 C 436 206 433 188 461 198 Z"/>
  <path id="z30306d17" d="M 457 132 Q 461 132 469 133 Q 542 148 597 157 C 627 162 631 176 602 182 Q 587 189 458 152 C 429 144 427 130 457 132 Z"/>
  <path id="z30306d18" d="M 460 287 Q 444 303 432 308 C 406 324 401 313 412 285 Q 424 258 424 234 Q 427 86 414 35 Q 410 10 397 -3 Q 385 -21 391 -39 Q 398 -67 413 -79 Q 422 -86 433 -70 Q 464 -39 563 37 Q 579 49 581 55 Q 584 65 565 58 Q 469 15 459 19 Q 453 25 457 132 L 458 152 Q 459 179 461 198 L 463 219 Q 466 246 469 262 C 471 277 471 277 460 287 Z"/>
  <path id="z30306d19" d="M 666 84 Q 678 90 751 137 Q 767 150 788 158 Q 806 165 797 180 Q 787 195 765 208 Q 746 220 735 218 Q 725 217 727 205 Q 730 186 664 109 Q 655 100 647 90 C 628 67 640 70 666 84 Z"/>
  <path id="z30306d20" d="M 647 90 Q 584 112 576 110 Q 572 109 573 97 Q 576 90 591 82 Q 694 27 765 -34 Q 778 -49 793 -54 Q 805 -58 811 -41 Q 815 -26 807 -1 Q 801 27 750 54 Q 725 67 666 84 L 647 90 Z"/>
<defs>
  <clipPath id="z30306c1"><use href="#z30306d1"/></clipPath>
  <clipPath id="z30306c2"><use href="#z30306d2"/></clipPath>
  <clipPath id="z30306c3"><use href="#z30306d3"/></clipPath>
  <clipPath id="z30306c4"><use href="#z30306d4"/></clipPath>
  <clipPath id="z30306c5"><use href="#z30306d5"/></clipPath>
  <clipPath id="z30306c6"><use href="#z30306d6"/></clipPath>
  <clipPath id="z30306c7"><use href="#z30306d7"/></clipPath>
  <clipPath id="z30306c8"><use href="#z30306d8"/></clipPath>
  <clipPath id="z30306c9"><use href="#z30306d9"/></clipPath>
  <clipPath id="z30306c10"><use href="#z30306d10"/></clipPath>
  <clipPath id="z30306c11"><use href="#z30306d11"/></clipPath>
  <clipPath id="z30306c12"><use href="#z30306d12"/></clipPath>
  <clipPath id="z30306c13"><use href="#z30306d13"/></clipPath>
  <clipPath id="z30306c14"><use href="#z30306d14"/></clipPath>
  <clipPath id="z30306c15"><use href="#z30306d15"/></clipPath>
  <clipPath id="z30306c16"><use href="#z30306d16"/></clipPath>
  <clipPath id="z30306c17"><use href="#z30306d17"/></clipPath>
  <clipPath id="z30306c18"><use href="#z30306d18"/></clipPath>
  <clipPath id="z30306c19"><use href="#z30306d19"/></clipPath>
  <clipPath id="z30306c20"><use href="#z30306d20"/></clipPath>
</defs>
<path style="--d:1s;" pathLength="3333" clip-path="url(#z30306c1)" d="M 470 859 L 541 831 L 575 796"/>
<path style="--d:2s;" pathLength="3333" clip-path="url(#z30306c2)" d="M 356 725 L 367 715 L 461 721 L 608 745 L 743 775 L 791 774"/>
<path style="--d:3s;" pathLength="3333" clip-path="url(#z30306c3)" d="M 283 749 L 318 713 L 320 695 L 309 540 L 285 382 L 249 263 L 209 166 L 151 64 L 92 -11"/>
<path style="--d:4s;" pathLength="3333" clip-path="url(#z30306c4)" d="M 129 585 L 199 530 L 213 501"/>
<path style="--d:5s;" pathLength="3333" clip-path="url(#z30306c5)" d="M 65 320 L 113 315 L 251 395 L 257 405"/>
<path style="--d:6s;" pathLength="3333" clip-path="url(#z30306c6)" d="M 459 676 L 500 652 L 512 638"/>
<path style="--d:7s;" pathLength="3333" clip-path="url(#z30306c7)" d="M 664 687 L 634 686 L 596 632"/>
<path style="--d:8s;" pathLength="3333" clip-path="url(#z30306c8)" d="M 421 587 L 444 582 L 488 585 L 596 605 L 699 634 L 728 631"/>
<path style="--d:9s;" pathLength="3333" clip-path="url(#z30306c9)" d="M 441 507 L 480 506 L 646 539 L 682 535"/>
<path style="--d:10s;" pathLength="3333" clip-path="url(#z30306c10)" d="M 532 574 L 553 557 L 549 472 L 536 458"/>
<path style="--d:11s;" pathLength="3333" clip-path="url(#z30306c11)" d="M 369 411 L 400 410 L 511 435 L 718 465 L 747 466 L 790 455"/>
<path style="--d:12s;" pathLength="3333" clip-path="url(#z30306c12)" d="M 482 385 L 455 379 L 394 289 L 350 243 L 273 187 L 258 187 L 254 178"/>
<path style="--d:13s;" pathLength="3333" clip-path="url(#z30306c13)" d="M 617 428 L 639 418 L 768 314 L 816 287 L 912 271 L 981 271"/>
<path style="--d:14s;" pathLength="3333" clip-path="url(#z30306c14)" d="M 533 393 L 571 362"/>
<path style="--d:15s;" pathLength="3333" clip-path="url(#z30306c15)" d="M 472 270 L 479 281 L 500 290 L 583 310 L 592 317 L 626 318 L 642 311 L 657 292 L 624 170 L 626 149"/>
<path style="--d:16s;" pathLength="3333" clip-path="url(#z30306c16)" d="M 466 204 L 476 216 L 547 235 L 575 236"/>
<path style="--d:17s;" pathLength="3333" clip-path="url(#z30306c17)" d="M 463 137 L 470 146 L 586 169 L 598 176"/>
<path style="--d:18s;" pathLength="3333" clip-path="url(#z30306c18)" d="M 432 298 L 445 260 L 434 21 L 438 -13 L 465 -8 L 496 7 L 573 55"/>
<path style="--d:19s;" pathLength="3333" clip-path="url(#z30306c19)" d="M 786 171 L 753 176 L 664 94 L 653 93"/>
<path style="--d:20s;" pathLength="3333" clip-path="url(#z30306c20)" d="M 578 103 L 746 21 L 774 -2 L 797 -40"/>
</svg>