<svg id="z35124" class="acjk" viewBox="0 0 1024 1024" xmlns="http://www.w3.org/2000/svg">
  <path id="z35124d1" d="M 276 759 Q 301 734 330 705 Q 342 692 357 692 Q 367 692 373 705 Q 377 718 371 747 Q 365 775 273 805 Q 258 809 252 807 Q 248 803 248 791 Q 251 781 276 759 Z"/>
  <path id="z35124d2" d="M 254 403 Q 282 443 311 490 Q 342 544 388 579 Q 403 589 391 604 Q 373 619 346 628 Q 324 635 309 625 Q 225 568 82 561 Q 70 562 68 555 Q 65 545 79 535 Q 118 508 152 517 Q 281 575 291 562 Q 297 553 284 531 Q 212 384 51 226 Q 38 216 40 213 Q 43 210 54 215 Q 147 263 231 372 L 254 403 Z"/>
  <path id="z35124d3" d="M 231 372 Q 264 303 229 132 Q 208 69 246 24 L 247 23 Q 263 8 274 33 Q 287 70 287 111 Q 291 286 298 326 Q 305 351 296 360 Q 266 396 254 403 C 230 422 219 400 231 372 Z"/>
  <path id="z35124d4" d="M 336 403 Q 373 443 395 460 Q 405 464 402 471 Q 396 480 382 489 Q 369 498 354 496 Q 345 495 348 483 Q 352 474 322 408 C 310 381 316 381 336 403 Z"/>
  <path id="z35124d5" d="M 322 408 Q 319 411 314 412 Q 304 416 300 414 Q 296 413 297 404 Q 298 397 314 382 Q 339 358 365 330 Q 372 321 383 321 Q 390 321 394 329 Q 398 338 393 357 Q 389 382 336 403 L 322 408 Z"/>
  <path id="z35124d6" d="M 428 645 Q 455 587 438 436 Q 434 412 457 378 Q 466 369 473 379 Q 488 398 488 476 Q 484 569 490 621 Q 494 640 478 649 Q 465 656 450 664 Q 440 668 431 663 Q 424 657 428 645 Z"/>
  <path id="z35124d7" d="M 550 372 Q 554 351 559 343 Q 563 336 570 339 Q 580 343 590 395 Q 596 438 596 482 Q 595 518 603 659 Q 603 663 610 706 Q 613 722 601 730 Q 574 749 562 751 Q 552 755 538 748 Q 531 741 536 732 Q 549 711 550 689 Q 551 607 548 479 Q 547 400 550 372 Z"/>
  <path id="z35124d8" d="M 712 557 Q 740 609 770 682 Q 780 718 794 736 Q 800 746 794 757 Q 788 767 759 782 Q 734 792 717 790 Q 701 784 712 767 Q 751 713 628 468 Q 621 458 621 451 Q 620 441 631 446 Q 650 455 699 534 L 712 557 Z"/>
  <path id="z35124d9" d="M 699 534 Q 735 519 778 531 Q 826 543 874 554 Q 896 561 900 564 Q 907 571 903 578 Q 896 588 871 593 Q 847 597 772 569 Q 769 569 712 557 C 683 551 671 545 699 534 Z"/>
  <path id="z35124d10" d="M 748 434 Q 770 413 796 388 Q 808 376 822 376 Q 832 377 837 389 Q 841 402 834 429 Q 825 457 744 478 Q 729 481 724 479 Q 720 475 720 464 Q 724 454 748 434 Z"/>
  <path id="z35124d11" d="M 448 295 Q 441 298 427 301 Q 417 305 413 300 Q 407 296 414 280 Q 439 219 449 121 Q 450 99 459 81 C 471 54 492 54 490 84 Q 490 88 474 261 C 472 287 472 287 448 295 Z"/>
  <path id="z35124d12" d="M 799 115 Q 830 230 860 275 Q 870 285 867 296 Q 860 312 805 339 Q 789 346 776 343 Q 629 315 448 295 C 418 292 444 258 474 261 Q 486 260 497 265 Q 519 269 545 274 L 565 277 Q 605 286 649 292 L 696 298 Q 751 313 774 300 Q 781 294 780 275 Q 770 206 745 108 C 738 79 791 86 799 115 Z"/>
  <path id="z35124d13" d="M 590 92 Q 596 126 573 257 Q 572 269 565 277 C 548 301 542 304 545 274 Q 551 207 551 189 Q 554 104 567 90 C 583 65 586 62 590 92 Z"/>
  <path id="z35124d14" d="M 658 99 Q 673 120 694 219 Q 698 241 710 270 Q 719 282 710 289 Q 706 293 696 298 C 670 312 636 319 649 292 Q 667 264 643 122 Q 642 107 642 97 C 642 72 643 73 658 99 Z"/>
  <path id="z35124d15" d="M 459 81 Q 401 78 345 73 Q 324 72 339 54 Q 352 41 369 35 Q 388 28 405 32 Q 612 78 925 58 Q 944 58 949 66 Q 955 76 940 91 Q 885 133 829 120 Q 814 119 799 115 L 745 108 Q 705 105 658 99 L 642 97 Q 633 98 625 96 Q 607 95 590 92 L 567 90 Q 527 89 490 84 L 459 81 Z"/>
<defs>
  <clipPath id="z35124c1"><use href="#z35124d1"/></clipPath>
  <clipPath id="z35124c2"><use href="#z35124d2"/></clipPath>
  <clipPath id="z35124c3"><use href="#z35124d3"/></clipPath>
  <clipPath id="z35124c4"><use href="#z35124d4"/></clipPath>
  <clipPath id="z35124c5"><use href="#z35124d5"/></clipPath>
  <clipPath id="z35124c6"><use href="#z35124d6"/></clipPath>
  <clipPath id="z35124c7"><use href="#z35124d7"/></clipPath>
  <clipPath id="z35124c8"><use href="#z35124d8"/></clipPath>
  <clipPath id="z35124c9"><use href="#z35124d9"/></clipPath>
  <clipPath id="z35124c10"><use href="#z35124d10"/></clipPath>
  <clipPath id="z35124c11"><use href="#z35124d11"/></clipPath>
  <clipPath id="z35124c12"><use href="#z35124d12"/></clipPath>
  <clipPath id="z35124c13"><use href="#z35124d13"/></clipPath>
  <clipPath id="z35124c14"><use href="#z35124d14"/></clipPath>
  <clipPath id="z35124c15"><use href="#z35124d15"/></clipPath>
</defs>
<path style="--d:1s;" pathLength="3333" clip-path="url(#z35124c1)" d="M 257 801 L 341 739 L 356 710"/>
<path style="--d:2s;" pathLength="3333" clip-path="url(#z35124c2)" d="M 78 551 L 141 540 L 276 584 L 329 585 L 320 551 L 290 494 L 210 376 L 113 268 L 49 219"/>
<path style="--d:3s;" pathLength="3333" clip-path="url(#z35124c3)" d="M 254 395 L 272 339 L 264 170 L 254 101 L 259 33"/>
<path style="--d:4s;" pathLength="3333" clip-path="url(#z35124c4)" d="M 392 470 L 368 466 L 333 417"/>
<path style="--d:5s;" pathLength="3333" clip-path="url(#z35124c5)" d="M 306 407 L 365 361 L 381 335"/>
<path style="--d:6s;" pathLength="3333" clip-path="url(#z35124c6)" d="M 439 654 L 463 626 L 465 383"/>
<path style="--d:7s;" pathLength="3333" clip-path="url(#z35124c7)" d="M 546 739 L 577 712 L 580 698 L 567 347"/>
<path style="--d:8s;" pathLength="3333" clip-path="url(#z35124c8)" d="M 720 777 L 733 771 L 756 743 L 745 695 L 721 623 L 680 531 L 628 453"/>
<path style="--d:9s;" pathLength="3333" clip-path="url(#z35124c9)" d="M 708 536 L 728 546 L 737 543 L 849 570 L 892 573"/>
<path style="--d:10s;" pathLength="3333" clip-path="url(#z35124c10)" d="M 729 470 L 793 431 L 806 420 L 819 394"/>
<path style="--d:11s;" pathLength="3333" clip-path="url(#z35124c11)" d="M 421 293 L 437 278 L 453 244 L 469 104 L 482 84"/>
<path style="--d:12s;" pathLength="3333" clip-path="url(#z35124c12)" d="M 457 293 L 486 280 L 728 320 L 791 319 L 819 285 L 779 138 L 751 116"/>
<path style="--d:13s;" pathLength="3333" clip-path="url(#z35124c13)" d="M 561 268 L 571 140 L 575 112 L 584 96"/>
<path style="--d:14s;" pathLength="3333" clip-path="url(#z35124c14)" d="M 657 292 L 682 270 L 668 169 L 652 108 L 645 103"/>
<path style="--d:15s;" pathLength="3333" clip-path="url(#z35124c15)" d="M 342 63 L 389 53 L 598 77 L 851 93 L 908 84 L 938 72"/>
</svg>