<svg id="z30395" class="acjk" viewBox="0 0 1024 1024" xmlns="http://www.w3.org/2000/svg">
  <path id="z30395d1" d="M 368 603 Q 369 637 373 669 L 376 697 Q 377 715 387 758 Q 390 768 372 780 Q 341 796 319 798 Q 306 801 298 793 Q 292 786 299 774 Q 312 758 314 747 Q 324 677 329 593 C 331 563 367 573 368 603 Z"/>
  <path id="z30395d2" d="M 373 669 L 499 689 Q 524 695 514 708 Q 501 723 474 725 Q 431 728 376 697 C 350 682 343 664 373 669 Z"/>
  <path id="z30395d3" d="M 217 534 Q 226 535 242 540 Q 350 571 448 592 Q 479 596 481 582 Q 482 569 459 518 Q 452 505 459 501 Q 466 498 476 509 Q 540 561 566 572 Q 588 579 585 590 Q 584 602 517 632 Q 498 641 474 633 Q 417 617 368 603 L 329 593 Q 271 583 201 568 C 172 562 188 528 217 534 Z"/>
  <path id="z30395d4" d="M 201 568 Q 191 577 173 583 Q 157 590 145 586 Q 135 579 141 567 Q 159 545 160 468 Q 160 312 128 203 Q 103 122 37 0 Q 33 -6 31 -12 Q 30 -22 39 -19 Q 63 -13 127 94 Q 139 119 152 147 Q 201 268 209 442 Q 212 508 217 534 C 220 556 220 556 201 568 Z"/>
  <path id="z30395d5" d="M 351 453 Q 360 459 425 477 Q 432 477 437 487 Q 436 494 420 499 Q 393 506 355 487 L 316 470 Q 250 451 243 447 Q 225 443 241 433 Q 268 421 286 429 Q 298 435 314 439 L 351 453 Z"/>
  <path id="z30395d6" d="M 314 439 Q 311 400 330 381 Q 379 345 469 367 Q 469 368 472 368 Q 494 374 515 387 Q 528 397 519 414 Q 510 430 498 479 Q 497 489 492 493 Q 488 496 485 484 Q 466 430 454 414 Q 448 408 432 404 Q 399 395 368 406 Q 358 410 354 416 Q 351 423 351 453 L 355 487 Q 356 500 361 514 Q 365 527 357 536 Q 347 546 329 554 Q 319 557 313 554 Q 307 551 311 537 Q 320 506 317 478 Q 316 474 316 470 L 314 439 Z"/>
  <path id="z30395d7" d="M 272 299 Q 263 306 254 309 Q 244 312 238 308 Q 231 305 234 297 Q 246 272 249 249 Q 250 227 258 44 C 259 14 293 19 293 49 Q 293 83 293 113 L 293 140 Q 293 167 293 190 L 293 217 Q 293 239 294 262 Q 295 269 295 274 C 296 283 296 283 272 299 Z"/>
  <path id="z30395d8" d="M 459 82 Q 465 262 484 281 Q 494 293 483 306 Q 476 316 435 338 Q 422 347 405 338 Q 377 326 336 312 Q 308 305 272 299 C 242 294 268 262 295 274 Q 326 290 402 302 Q 414 303 417 300 Q 424 290 415 77 C 414 47 458 52 459 82 Z"/>
  <path id="z30395d9" d="M 293 190 Q 339 197 374 203 Q 393 207 385 218 Q 375 228 354 232 Q 342 232 293 217 C 264 208 263 185 293 190 Z"/>
  <path id="z30395d10" d="M 293 113 Q 342 122 378 127 Q 397 131 389 142 Q 379 154 358 156 Q 322 159 293 140 C 268 124 263 108 293 113 Z"/>
  <path id="z30395d11" d="M 258 44 Q 255 44 172 34 Q 147 30 166 15 Q 199 -7 221 -2 Q 353 26 487 42 Q 497 41 505 52 Q 506 62 486 72 Q 480 76 466 81 Q 462 82 459 82 L 415 77 Q 378 68 344 60 Q 317 56 293 49 L 258 44 Z"/>
  <path id="z30395d12" d="M 743 513 Q 803 531 822 531 Q 835 524 832 515 Q 832 512 812 448 Q 805 435 811 432 Q 818 431 832 441 Q 877 478 914 493 Q 945 505 944 514 Q 940 521 878 560 Q 860 572 839 568 Q 802 558 755 546 Q 748 545 745 543 L 698 532 Q 691 532 598 505 C 569 497 582 461 610 471 Q 614 472 619 474 Q 667 496 697 501 L 743 513 Z"/>
  <path id="z30395d13" d="M 598 505 Q 559 529 544 522 Q 534 515 540 504 Q 550 494 556 439 Q 555 436 556 433 Q 557 382 554 337 Q 544 231 480 110 Q 476 104 475 100 Q 474 90 482 93 Q 513 97 562 204 Q 563 207 565 210 Q 601 304 605 411 Q 608 462 610 471 C 613 496 613 496 598 505 Z"/>
  <path id="z30395d14" d="M 733 365 Q 739 441 743 513 L 745 543 Q 745 625 769 727 Q 773 737 753 753 Q 719 772 696 776 Q 680 779 672 771 Q 665 764 672 749 Q 696 715 695 691 Q 698 615 698 532 L 697 501 Q 696 431 692 351 C 691 321 731 335 733 365 Z"/>
  <path id="z30395d15" d="M 771 145 Q 772 149 776 152 Q 812 204 834 289 Q 840 320 857 336 Q 870 349 854 363 Q 835 376 805 387 Q 787 394 733 365 L 692 351 Q 626 336 621 332 Q 614 325 630 318 Q 654 308 688 320 Q 725 330 762 342 Q 780 348 781 328 Q 781 259 738 179 L 714 144 Q 675 93 544 49 Q 531 45 539 38 Q 546 34 571 37 Q 649 47 694 70 Q 718 83 740 105 L 771 145 Z"/>
  <path id="z30395d16" d="M 740 105 Q 777 54 811 11 Q 823 -5 845 -6 Q 960 -2 970 10 Q 974 14 965 19 Q 835 82 771 145 L 738 179 Q 702 218 662 267 Q 655 280 640 283 Q 618 284 612 278 Q 609 274 616 268 Q 644 250 661 222 Q 688 182 714 144 L 740 105 Z"/>
<defs>
  <clipPath id="z30395c1"><use href="#z30395d1"/></clipPath>
  <clipPath id="z30395c2"><use href="#z30395d2"/></clipPath>
  <clipPath id="z30395c3"><use href="#z30395d3"/></clipPath>
  <clipPath id="z30395c4"><use href="#z30395d4"/></clipPath>
  <clipPath id="z30395c5"><use href="#z30395d5"/></clipPath>
  <clipPath id="z30395c6"><use href="#z30395d6"/></clipPath>
  <clipPath id="z30395c7"><use href="#z30395d7"/></clipPath>
  <clipPath id="z30395c8"><use href="#z30395d8"/></clipPath>
  <clipPath id="z30395c9"><use href="#z30395d9"/></clipPath>
  <clipPath id="z30395c10"><use href="#z30395d10"/></clipPath>
  <clipPath id="z30395c11"><use href="#z30395d11"/></clipPath>
  <clipPath id="z30395c12"><use href="#z30395d12"/></clipPath>
  <clipPath id="z30395c13"><use href="#z30395d13"/></clipPath>
  <clipPath id="z30395c14"><use href="#z30395d14"/></clipPath>
  <clipPath id="z30395c15"><use href="#z30395d15"/></clipPath>
  <clipPath id="z30395c16"><use href="#z30395d16"/></clipPath>
</defs>
<path style="--d:1s;" pathLength="3333" clip-path="url(#z30395c1)" d="M 309 785 L 350 752 L 348 624 L 334 602"/>
<path style="--d:2s;" pathLength="3333" clip-path="url(#z30395c2)" d="M 380 675 L 391 688 L 433 700 L 479 706 L 503 701"/>
<path style="--d:3s;" pathLength="3333" clip-path="url(#z30395c3)" d="M 210 565 L 230 555 L 439 607 L 487 612 L 519 589 L 462 507"/>
<path style="--d:4s;" pathLength="3333" clip-path="url(#z30395c4)" d="M 152 575 L 179 550 L 186 530 L 182 382 L 170 285 L 141 173 L 106 91 L 39 -11"/>
<path style="--d:5s;" pathLength="3333" clip-path="url(#z30395c5)" d="M 249 439 L 315 454 L 381 481 L 428 485"/>
<path style="--d:6s;" pathLength="3333" clip-path="url(#z30395c6)" d="M 318 547 L 334 529 L 339 513 L 333 461 L 337 405 L 346 394 L 378 381 L 437 382 L 482 402 L 487 407 L 493 485"/>
<path style="--d:7s;" pathLength="3333" clip-path="url(#z30395c7)" d="M 245 299 L 262 282 L 272 255 L 274 65 L 286 56"/>
<path style="--d:8s;" pathLength="3333" clip-path="url(#z30395c8)" d="M 279 298 L 298 290 L 422 321 L 446 300 L 451 288 L 438 102 L 421 91"/>
<path style="--d:9s;" pathLength="3333" clip-path="url(#z30395c9)" d="M 300 197 L 309 209 L 357 216 L 377 212"/>
<path style="--d:10s;" pathLength="3333" clip-path="url(#z30395c10)" d="M 300 120 L 308 131 L 328 137 L 362 141 L 381 136"/>
<path style="--d:11s;" pathLength="3333" clip-path="url(#z30395c11)" d="M 168 25 L 214 18 L 454 60 L 495 54"/>
<path style="--d:12s;" pathLength="3333" clip-path="url(#z30395c12)" d="M 613 478 L 621 494 L 673 512 L 810 546 L 847 544 L 872 517 L 815 437"/>
<path style="--d:13s;" pathLength="3333" clip-path="url(#z30395c13)" d="M 550 511 L 575 488 L 581 469 L 575 326 L 542 200 L 507 131 L 483 101"/>
<path style="--d:14s;" pathLength="3333" clip-path="url(#z30395c14)" d="M 683 761 L 716 736 L 728 722 L 729 709 L 714 380 L 697 359"/>
<path style="--d:15s;" pathLength="3333" clip-path="url(#z30395c15)" d="M 626 328 L 676 331 L 784 363 L 802 357 L 815 340 L 802 272 L 783 215 L 760 170 L 726 123 L 668 80 L 544 42"/>
<path style="--d:16s;" pathLength="3333" clip-path="url(#z30395c16)" d="M 619 275 L 631 273 L 657 253 L 758 123 L 845 36 L 965 13"/>
</svg>