<svg id="z34315" class="acjk" viewBox="0 0 1024 1024" xmlns="http://www.w3.org/2000/svg">
  <path id="z34315d1" d="M 432 709 Q 428 737 426 761 Q 427 779 408 784 Q 368 799 350 792 Q 334 783 349 766 Q 374 738 386 703 L 397 668 Q 404 626 423 606 Q 436 597 440 608 Q 441 620 436 678 L 432 709 Z"/>
  <path id="z34315d2" d="M 436 678 Q 446 682 460 685 Q 475 686 491 696 Q 498 700 496 707 Q 495 713 482 716 Q 458 713 432 709 L 386 703 Q 331 697 267 687 Q 230 688 209 687 Q 199 688 197 684 Q 194 677 201 667 Q 214 652 241 641 Q 257 631 274 636 Q 332 652 397 668 L 436 678 Z"/>
  <path id="z34315d3" d="M 656 731 Q 656 732 657 732 Q 666 753 683 780 Q 696 793 687 803 Q 677 819 644 836 Q 629 846 613 837 Q 603 833 610 821 Q 625 782 581 645 Q 574 624 574 609 Q 575 597 589 604 Q 608 620 643 701 L 656 731 Z"/>
  <path id="z34315d4" d="M 643 701 Q 653 698 733 704 Q 779 707 831 702 Q 843 701 847 708 Q 851 717 841 728 Q 801 762 732 744 Q 698 738 656 731 C 626 726 613 705 643 701 Z"/>
  <path id="z34315d5" d="M 376 437 Q 377 470 381 501 L 383 523 Q 383 544 391 567 Q 392 574 379 584 Q 355 597 338 599 Q 328 600 322 595 Q 318 589 323 580 Q 333 567 335 557 Q 342 499 346 431 C 348 401 375 407 376 437 Z"/>
  <path id="z34315d6" d="M 381 501 Q 402 498 474 513 Q 498 519 500 520 Q 506 527 503 532 Q 497 539 477 544 Q 461 545 409 528 Q 396 525 383 523 C 353 518 351 504 381 501 Z"/>
  <path id="z34315d7" d="M 278 416 Q 272 485 275 498 Q 276 514 265 522 Q 249 534 229 539 Q 219 542 213 537 Q 209 533 213 522 Q 229 498 249 410 C 256 381 281 386 278 416 Z"/>
  <path id="z34315d8" d="M 371 404 Q 420 414 479 421 Q 492 422 493 428 Q 494 438 480 446 Q 453 458 376 437 L 346 431 Q 307 424 278 416 L 249 410 Q 159 397 92 387 Q 82 386 79 380 Q 76 371 88 362 Q 118 338 153 350 Q 270 387 336 398 L 371 404 Z"/>
  <path id="z34315d9" d="M 336 398 Q 343 368 341 285 Q 340 267 337 263 Q 334 253 314 256 Q 298 259 282 261 Q 272 262 271 256 Q 270 252 278 244 Q 321 204 335 180 Q 345 170 354 171 Q 363 174 373 200 Q 388 227 387 277 Q 386 328 387 346 Q 394 379 380 396 Q 376 400 371 404 C 348 424 330 427 336 398 Z"/>
  <path id="z34315d10" d="M 224 335 Q 200 295 169 259 Q 151 237 160 207 Q 164 192 182 200 Q 225 224 238 287 Q 245 312 242 332 Q 239 339 235 341 Q 228 341 224 335 Z"/>
  <path id="z34315d11" d="M 432 302 Q 428 173 282 52 Q 186 -18 130 -53 Q 123 -57 127 -62 Q 134 -65 144 -62 Q 211 -43 270 -6 Q 375 57 460 211 Q 476 236 494 260 Q 501 267 498 277 Q 494 287 470 305 Q 454 318 444 317 Q 432 316 432 302 Z"/>
  <path id="z34315d12" d="M 691 555 Q 742 567 825 571 Q 861 575 864 580 Q 868 589 855 598 Q 816 622 760 606 Q 679 585 547 557 Q 532 554 545 543 Q 555 534 569 531 Q 584 528 595 532 Q 623 542 656 549 L 691 555 Z"/>
  <path id="z34315d13" d="M 642 464 Q 643 465 646 468 Q 661 481 678 499 Q 685 506 698 516 Q 711 522 706 531 Q 702 541 691 555 C 673 579 666 577 656 549 Q 647 522 619 475 Q 612 466 608 458 C 594 432 621 443 642 464 Z"/>
  <path id="z34315d14" d="M 576 454 Q 566 464 547 470 Q 540 474 532 470 Q 528 466 531 458 Q 532 451 536 445 Q 560 397 544 238 Q 525 181 557 148 Q 564 138 572 148 Q 579 157 580 167 L 582 197 Q 582 225 581 254 L 581 276 Q 581 315 581 342 L 581 364 Q 581 421 582 427 C 583 448 583 448 576 454 Z"/>
  <path id="z34315d15" d="M 770 182 Q 771 173 778 162 Q 790 137 798 139 Q 811 140 824 168 Q 837 190 835 208 Q 811 385 844 436 Q 853 449 846 459 Q 821 480 780 497 Q 767 501 746 494 Q 707 479 642 464 L 608 458 Q 592 457 576 454 C 546 449 552 425 582 427 Q 589 427 598 428 Q 751 468 764 452 Q 777 436 777 382 Q 781 231 773 201 Q 772 201 772 200 C 769 185 769 185 770 182 Z"/>
  <path id="z34315d16" d="M 581 342 Q 585 342 595 342 Q 668 352 724 356 Q 743 359 736 370 Q 729 382 707 387 Q 677 391 581 364 C 552 356 551 342 581 342 Z"/>
  <path id="z34315d17" d="M 581 254 Q 584 253 592 254 Q 670 264 728 268 Q 747 271 740 282 Q 733 294 711 299 Q 689 305 581 276 C 552 268 551 257 581 254 Z"/>
  <path id="z34315d18" d="M 580 167 Q 583 167 588 167 Q 645 176 770 182 C 786 183 786 183 772 200 Q 768 207 754 216 Q 741 223 714 219 Q 641 204 582 197 C 552 193 550 167 580 167 Z"/>
  <path id="z34315d19" d="M 573 117 Q 552 60 418 -25 Q 396 -37 422 -37 Q 485 -41 593 45 Q 621 67 635 76 Q 645 86 645 95 Q 644 108 621 118 Q 596 131 584 130 Q 577 129 573 117 Z"/>
  <path id="z34315d20" d="M 726 93 Q 766 47 814 -18 Q 827 -39 841 -44 Q 848 -47 857 -38 Q 870 -26 862 16 Q 859 55 794 90 Q 752 112 730 123 Q 721 129 719 117 Q 718 104 726 93 Z"/>
<defs>
  <clipPath id="z34315c1"><use href="#z34315d1"/></clipPath>
  <clipPath id="z34315c2"><use href="#z34315d2"/></clipPath>
  <clipPath id="z34315c3"><use href="#z34315d3"/></clipPath>
  <clipPath id="z34315c4"><use href="#z34315d4"/></clipPath>
  <clipPath id="z34315c5"><use href="#z34315d5"/></clipPath>
  <clipPath id="z34315c6"><use href="#z34315d6"/></clipPath>
  <clipPath id="z34315c7"><use href="#z34315d7"/></clipPath>
  <clipPath id="z34315c8"><use href="#z34315d8"/></clipPath>
  <clipPath id="z34315c9"><use href="#z34315d9"/></clipPath>
  <clipPath id="z34315c10"><use href="#z34315d10"/></clipPath>
  <clipPath id="z34315c11"><use href="#z34315d11"/></clipPath>
  <clipPath id="z34315c12"><use href="#z34315d12"/></clipPath>
  <clipPath id="z34315c13"><use href="#z34315d13"/></clipPath>
  <clipPath id="z34315c14"><use href="#z34315d14"/></clipPath>
  <clipPath id="z34315c15"><use href="#z34315d15"/></clipPath>
  <clipPath id="z34315c16"><use href="#z34315d16"/></clipPath>
  <clipPath id="z34315c17"><use href="#z34315d17"/></clipPath>
  <clipPath id="z34315c18"><use href="#z34315d18"/></clipPath>
  <clipPath id="z34315c19"><use href="#z34315d19"/></clipPath>
  <clipPath id="z34315c20"><use href="#z34315d20"/></clipPath>
</defs>
<path style="--d:1s;" pathLength="3333" clip-path="url(#z34315c1)" d="M 356 779 L 395 756 L 431 611"/>
<path style="--d:2s;" pathLength="3333" clip-path="url(#z34315c2)" d="M 204 680 L 242 665 L 275 662 L 487 704"/>
<path style="--d:3s;" pathLength="3333" clip-path="url(#z34315c3)" d="M 616 828 L 630 821 L 648 789 L 620 698 L 584 614"/>
<path style="--d:4s;" pathLength="3333" clip-path="url(#z34315c4)" d="M 646 705 L 668 717 L 762 728 L 803 726 L 838 713"/>
<path style="--d:5s;" pathLength="3333" clip-path="url(#z34315c5)" d="M 330 588 L 362 563 L 361 450 L 352 440"/>
<path style="--d:6s;" pathLength="3333" clip-path="url(#z34315c6)" d="M 386 506 L 466 528 L 494 528"/>
<path style="--d:7s;" pathLength="3333" clip-path="url(#z34315c7)" d="M 220 530 L 250 502 L 261 430 L 254 422"/>
<path style="--d:8s;" pathLength="3333" clip-path="url(#z34315c8)" d="M 89 376 L 141 370 L 427 432 L 464 435 L 483 430"/>
<path style="--d:9s;" pathLength="3333" clip-path="url(#z34315c9)" d="M 343 395 L 364 375 L 361 252 L 344 225 L 279 253"/>
<path style="--d:10s;" pathLength="3333" clip-path="url(#z34315c10)" d="M 233 332 L 216 283 L 173 210"/>
<path style="--d:11s;" pathLength="3333" clip-path="url(#z34315c11)" d="M 444 304 L 462 270 L 421 182 L 375 115 L 296 36 L 203 -25 L 132 -59"/>
<path style="--d:12s;" pathLength="3333" clip-path="url(#z34315c12)" d="M 557 548 L 586 547 L 789 591 L 858 584"/>
<path style="--d:13s;" pathLength="3333" clip-path="url(#z34315c13)" d="M 697 526 L 681 531 L 671 525 L 642 483 L 613 460"/>
<path style="--d:14s;" pathLength="3333" clip-path="url(#z34315c14)" d="M 540 463 L 562 430 L 568 377 L 559 209 L 565 159"/>
<path style="--d:15s;" pathLength="3333" clip-path="url(#z34315c15)" d="M 582 448 L 609 441 L 758 477 L 778 472 L 807 443 L 800 347 L 806 216 L 798 150"/>
<path style="--d:16s;" pathLength="3333" clip-path="url(#z34315c16)" d="M 588 348 L 595 357 L 676 369 L 709 371 L 728 365"/>
<path style="--d:17s;" pathLength="3333" clip-path="url(#z34315c17)" d="M 587 260 L 596 269 L 670 281 L 713 283 L 732 277"/>
<path style="--d:18s;" pathLength="3333" clip-path="url(#z34315c18)" d="M 584 174 L 596 184 L 710 199 L 750 199 L 760 188"/>
<path style="--d:19s;" pathLength="3333" clip-path="url(#z34315c19)" d="M 630 94 L 599 92 L 553 44 L 495 2 L 427 -29"/>
<path style="--d:20s;" pathLength="3333" clip-path="url(#z34315c20)" d="M 729 112 L 819 32 L 836 3 L 845 -30"/>
</svg>