<svg id="z39023" class="acjk" viewBox="0 0 1024 1024" xmlns="http://www.w3.org/2000/svg">
  <path id="z39023d1" d="M 228 769 Q 218 773 194 775 Q 184 776 180 772 Q 176 766 184 753 Q 215 695 238 600 Q 242 572 261 553 Q 277 535 282 549 Q 283 553 283 559 L 282 585 Q 281 600 267 649 L 262 672 Q 249 721 246 741 C 242 765 242 765 228 769 Z"/>
  <path id="z39023d2" d="M 398 580 Q 414 558 429 550 Q 439 543 451 562 Q 464 586 487 709 Q 494 736 514 759 Q 524 769 515 782 Q 502 797 463 818 Q 447 824 393 809 Q 354 803 228 769 C 199 761 217 733 246 741 Q 294 756 406 778 Q 422 781 431 775 Q 444 766 441 748 Q 422 613 403 601 C 393 587 393 587 398 580 Z"/>
  <path id="z39023d3" d="M 267 649 Q 270 653 374 671 Q 393 675 385 686 Q 375 696 354 699 Q 332 700 262 672 C 234 661 240 637 267 649 Z"/>
  <path id="z39023d4" d="M 283 559 Q 314 569 398 580 C 421 583 421 583 403 601 Q 400 605 393 608 Q 381 614 359 607 Q 316 594 282 585 C 253 577 254 550 283 559 Z"/>
  <path id="z39023d5" d="M 220 368 Q 195 371 174 371 Q 146 371 161 388 Q 195 443 229 484 Q 239 497 238 502 Q 235 512 207 535 Q 195 545 182 542 Q 175 539 179 528 Q 192 486 130 396 Q 123 389 114 379 Q 101 369 102 360 Q 105 347 115 333 Q 122 326 131 330 Q 146 339 195 349 Q 201 350 207 349 C 237 348 250 365 220 368 Z"/>
  <path id="z39023d6" d="M 278 296 Q 241 289 198 272 Q 182 265 191 279 Q 269 391 311 427 Q 320 434 315 443 Q 306 456 280 471 Q 268 478 261 475 Q 254 474 255 461 Q 258 431 220 368 L 207 349 Q 156 271 133 256 Q 123 249 126 238 Q 127 228 148 214 Q 157 205 167 215 Q 209 251 282 283 L 284 283 C 312 294 307 302 278 296 Z"/>
  <path id="z39023d7" d="M 284 283 Q 291 267 303 262 Q 310 258 319 269 Q 323 276 322 292 Q 319 305 306 316 Q 287 335 277 340 Q 271 343 268 336 Q 265 333 278 296 L 284 283 Z"/>
  <path id="z39023d8" d="M 425 414 Q 395 415 371 414 Q 350 414 361 427 Q 391 470 419 502 Q 428 512 426 517 Q 425 526 401 545 Q 391 554 380 552 Q 373 551 377 541 Q 386 520 346 449 Q 339 434 321 420 Q 311 411 311 404 Q 314 392 322 381 Q 329 374 336 379 Q 351 386 403 398 Q 407 399 413 398 C 443 397 455 413 425 414 Z"/>
  <path id="z39023d9" d="M 469 343 Q 439 339 405 328 Q 389 321 399 335 Q 460 416 504 452 Q 514 459 509 467 Q 502 480 478 495 Q 466 502 459 500 Q 452 499 453 486 Q 454 462 425 414 L 413 398 Q 353 323 343 316 Q 333 309 335 299 Q 336 289 355 276 Q 362 267 373 276 Q 413 307 474 331 C 502 342 499 348 469 343 Z"/>
  <path id="z39023d10" d="M 474 331 Q 478 304 498 295 Q 507 291 516 301 Q 520 310 520 326 Q 517 339 503 352 Q 484 374 473 379 Q 467 383 464 375 Q 460 371 463 362 Q 466 353 469 343 L 474 331 Z"/>
  <path id="z39023d11" d="M 147 172 Q 137 129 119 87 Q 107 59 128 29 Q 138 16 154 29 Q 190 68 179 126 Q 178 156 168 176 Q 162 182 157 182 Q 150 179 147 172 Z"/>
  <path id="z39023d12" d="M 234 168 Q 244 146 254 118 Q 258 106 268 102 Q 275 99 282 105 Q 289 112 293 134 Q 294 153 246 199 Q 237 206 232 206 Q 228 205 225 197 Q 224 190 234 168 Z"/>
  <path id="z39023d13" d="M 334 200 Q 361 143 372 140 Q 379 139 386 145 Q 393 154 394 175 Q 394 196 342 232 Q 333 238 328 238 Q 324 237 322 228 Q 322 221 334 200 Z"/>
  <path id="z39023d14" d="M 425 249 Q 452 192 469 186 Q 479 182 487 194 Q 491 204 488 221 Q 484 234 468 245 Q 446 264 434 269 Q 427 272 424 263 Q 421 257 425 249 Z"/>
  <path id="z39023d15" d="M 669 677 Q 754 695 849 712 Q 898 724 906 730 Q 915 737 911 745 Q 904 755 878 763 Q 850 769 823 759 Q 765 740 703 724 Q 633 709 553 702 Q 519 696 543 681 Q 579 657 632 670 Q 633 671 638 671 L 669 677 Z"/>
  <path id="z39023d16" d="M 641 551 L 695 629 Q 708 639 701 647 Q 694 660 669 677 C 644 694 626 698 638 671 Q 644 659 643 645 Q 639 615 624 572 Q 617 559 616 547 C 612 517 624 526 641 551 Z"/>
  <path id="z39023d17" d="M 585 543 Q 578 549 566 554 Q 559 558 549 554 Q 543 550 548 540 Q 549 533 553 526 Q 577 469 560 291 Q 542 219 571 186 L 572 184 Q 581 174 589 184 Q 593 191 597 199 L 600 231 Q 600 241 601 315 L 601 338 Q 601 384 601 416 L 602 439 Q 602 478 604 516 C 605 530 605 530 585 543 Z"/>
  <path id="z39023d18" d="M 795 219 Q 796 213 802 206 Q 817 178 826 178 Q 841 179 856 213 Q 872 238 869 260 Q 842 470 879 527 Q 889 543 881 552 Q 854 574 808 594 Q 793 598 771 590 Q 741 577 641 551 L 616 547 Q 600 546 585 543 C 555 538 575 507 604 516 Q 647 531 757 552 Q 779 556 786 546 Q 801 527 801 465 Q 804 290 796 253 L 795 219 Z"/>
  <path id="z39023d19" d="M 601 416 Q 605 415 617 416 Q 692 429 748 437 Q 770 441 761 453 Q 751 466 727 470 Q 697 473 602 439 C 574 429 571 419 601 416 Z"/>
  <path id="z39023d20" d="M 601 315 Q 607 314 619 315 Q 700 327 759 333 Q 781 337 773 349 Q 763 362 739 367 Q 714 373 601 338 C 572 329 571 317 601 315 Z"/>
  <path id="z39023d21" d="M 597 199 Q 601 198 612 199 Q 670 212 795 219 C 825 221 821 236 796 253 Q 795 254 792 256 Q 777 265 748 258 Q 667 239 600 231 C 570 227 567 201 597 199 Z"/>
  <path id="z39023d22" d="M 608 151 Q 592 93 450 -12 Q 428 -25 455 -24 Q 518 -27 636 73 Q 664 98 679 109 Q 691 121 689 130 Q 688 143 661 154 Q 633 167 620 165 Q 613 164 608 151 Z"/>
  <path id="z39023d23" d="M 748 138 Q 793 80 845 -5 Q 857 -27 871 -35 Q 880 -39 889 -30 Q 905 -20 900 28 Q 897 85 755 169 Q 748 176 742 164 Q 739 151 748 138 Z"/>
<defs>
  <clipPath id="z39023c1"><use href="#z39023d1"/></clipPath>
  <clipPath id="z39023c2"><use href="#z39023d2"/></clipPath>
  <clipPath id="z39023c3"><use href="#z39023d3"/></clipPath>
  <clipPath id="z39023c4"><use href="#z39023d4"/></clipPath>
  <clipPath id="z39023c5"><use href="#z39023d5"/></clipPath>
  <clipPath id="z39023c6"><use href="#z39023d6"/></clipPath>
  <clipPath id="z39023c7"><use href="#z39023d7"/></clipPath>
  <clipPath id="z39023c8"><use href="#z39023d8"/></clipPath>
  <clipPath id="z39023c9"><use href="#z39023d9"/></clipPath>
  <clipPath id="z39023c10"><use href="#z39023d10"/></clipPath>
  <clipPath id="z39023c11"><use href="#z39023d11"/></clipPath>
  <clipPath id="z39023c12"><use href="#z39023d12"/></clipPath>
  <clipPath id="z39023c13"><use href="#z39023d13"/></clipPath>
  <clipPath id="z39023c14"><use href="#z39023d14"/></clipPath>
  <clipPath id="z39023c15"><use href="#z39023d15"/></clipPath>
  <clipPath id="z39023c16"><use href="#z39023d16"/></clipPath>
  <clipPath id="z39023c17"><use href="#z39023d17"/></clipPath>
  <clipPath id="z39023c18"><use href="#z39023d18"/></clipPath>
  <clipPath id="z39023c19"><use href="#z39023d19"/></clipPath>
  <clipPath id="z39023c20"><use href="#z39023d20"/></clipPath>
  <clipPath id="z39023c21"><use href="#z39023d21"/></clipPath>
  <clipPath id="z39023c22"><use href="#z39023d22"/></clipPath>
  <clipPath id="z39023c23"><use href="#z39023d23"/></clipPath>
</defs>
<path style="--d:1s;" pathLength="3333" clip-path="url(#z39023c1)" d="M 188 767 L 210 751 L 222 732 L 272 554"/>
<path style="--d:2s;" pathLength="3333" clip-path="url(#z39023c2)" d="M 240 770 L 256 760 L 425 798 L 450 794 L 471 776 L 476 768 L 444 624 L 430 587 L 435 565"/>
<path style="--d:3s;" pathLength="3333" clip-path="url(#z39023c3)" d="M 266 655 L 278 667 L 298 673 L 342 682 L 377 680"/>
<path style="--d:4s;" pathLength="3333" clip-path="url(#z39023c4)" d="M 286 566 L 303 578 L 393 598"/>
<path style="--d:5s;" pathLength="3333" clip-path="url(#z39023c5)" d="M 188 533 L 207 499 L 178 442 L 147 399 L 134 360 L 184 357 L 203 359 L 212 367"/>
<path style="--d:6s;" pathLength="3333" clip-path="url(#z39023c6)" d="M 266 465 L 281 436 L 178 285 L 175 256 L 196 255 L 273 287"/>
<path style="--d:7s;" pathLength="3333" clip-path="url(#z39023c7)" d="M 275 333 L 307 274"/>
<path style="--d:8s;" pathLength="3333" clip-path="url(#z39023c8)" d="M 385 545 L 397 527 L 398 510 L 338 405 L 373 401 L 411 406 L 418 413"/>
<path style="--d:9s;" pathLength="3333" clip-path="url(#z39023c9)" d="M 463 490 L 474 474 L 474 458 L 399 362 L 380 328 L 382 315 L 406 313 L 464 334"/>
<path style="--d:10s;" pathLength="3333" clip-path="url(#z39023c10)" d="M 472 369 L 503 309"/>
<path style="--d:11s;" pathLength="3333" clip-path="url(#z39023c11)" d="M 158 171 L 155 102 L 141 39"/>
<path style="--d:12s;" pathLength="3333" clip-path="url(#z39023c12)" d="M 236 196 L 262 154 L 272 117"/>
<path style="--d:13s;" pathLength="3333" clip-path="url(#z39023c13)" d="M 332 229 L 372 175 L 376 151"/>
<path style="--d:14s;" pathLength="3333" clip-path="url(#z39023c14)" d="M 434 258 L 462 225 L 474 200"/>
<path style="--d:15s;" pathLength="3333" clip-path="url(#z39023c15)" d="M 545 693 L 568 686 L 605 686 L 847 739 L 900 740"/>
<path style="--d:16s;" pathLength="3333" clip-path="url(#z39023c16)" d="M 647 667 L 670 642 L 636 564 L 622 552"/>
<path style="--d:17s;" pathLength="3333" clip-path="url(#z39023c17)" d="M 555 547 L 582 508 L 585 395 L 577 259 L 581 189"/>
<path style="--d:18s;" pathLength="3333" clip-path="url(#z39023c18)" d="M 593 542 L 615 533 L 784 572 L 804 567 L 834 536 L 829 386 L 834 267 L 827 189"/>
<path style="--d:19s;" pathLength="3333" clip-path="url(#z39023c19)" d="M 604 422 L 617 432 L 684 446 L 723 452 L 752 447"/>
<path style="--d:20s;" pathLength="3333" clip-path="url(#z39023c20)" d="M 605 321 L 617 331 L 720 348 L 763 343"/>
<path style="--d:21s;" pathLength="3333" clip-path="url(#z39023c21)" d="M 605 204 L 623 218 L 764 238 L 789 248"/>
<path style="--d:22s;" pathLength="3333" clip-path="url(#z39023c22)" d="M 672 128 L 637 123 L 563 47 L 499 2 L 460 -15"/>
<path style="--d:23s;" pathLength="3333" clip-path="url(#z39023c23)" d="M 752 158 L 847 58 L 870 16 L 877 -21"/>
</svg>