<svg id="z30663" class="acjk" viewBox="0 0 1024 1024" xmlns="http://www.w3.org/2000/svg">
  <path id="z30663d1" d="M 149 687 Q 140 703 110 713 Q 101 717 90 713 Q 83 709 88 697 Q 107 616 109 608 Q 109 341 95 273 Q 74 195 96 155 Q 100 148 106 141 Q 116 128 126 140 Q 138 155 139 177 L 142 206 Q 143 231 144 266 Q 144 315 145 357 L 145 385 Q 146 455 148 505 L 149 532 Q 152 655 155 661 C 157 679 157 679 149 687 Z"/>
  <path id="z30663d2" d="M 236 190 Q 249 169 263 148 Q 278 126 285 128 Q 298 131 313 167 Q 328 207 323 258 Q 298 615 326 672 Q 336 688 328 698 Q 321 708 275 722 Q 253 729 237 721 Q 189 699 149 687 C 120 678 126 654 155 661 Q 182 667 221 680 Q 246 687 256 679 Q 271 664 270 605 Q 273 361 261 227 Q 262 211 254 207 C 244 179 228 203 236 190 Z"/>
  <path id="z30663d3" d="M 148 505 Q 199 514 238 519 Q 257 523 249 534 Q 239 546 218 548 Q 181 551 149 532 C 123 517 118 500 148 505 Z"/>
  <path id="z30663d4" d="M 145 357 Q 197 363 237 370 Q 258 374 249 385 Q 239 398 217 401 Q 190 402 145 385 C 117 375 115 354 145 357 Z"/>
  <path id="z30663d5" d="M 139 177 Q 140 177 146 178 Q 174 185 236 190 C 266 192 266 192 254 207 Q 250 213 236 221 Q 221 230 142 206 C 113 197 109 173 139 177 Z"/>
  <path id="z30663d6" d="M 543 747 Q 539 781 536 805 Q 536 821 519 825 Q 483 840 466 832 Q 451 823 465 808 Q 490 780 504 740 L 512 711 Q 522 674 536 661 Q 548 654 551 663 Q 552 675 547 722 L 543 747 Z"/>
  <path id="z30663d7" d="M 547 722 Q 553 726 563 728 Q 575 729 588 737 Q 592 741 592 747 Q 591 751 580 753 Q 564 752 543 747 L 504 740 Q 471 736 433 729 Q 388 732 384 725 Q 383 718 388 712 Q 400 700 421 692 Q 434 685 448 689 Q 479 699 512 711 L 547 722 Z"/>
  <path id="z30663d8" d="M 710 770 Q 722 794 739 819 Q 752 831 744 841 Q 734 856 706 873 Q 693 882 677 875 Q 668 871 674 861 Q 683 837 660 761 L 651 734 Q 630 677 631 665 Q 632 655 644 659 Q 654 668 691 732 L 710 770 Z"/>
  <path id="z30663d9" d="M 691 732 Q 697 742 810 743 Q 843 743 846 745 Q 846 746 847 747 Q 851 754 841 765 Q 808 795 728 774 Q 719 773 710 770 L 660 761 Q 647 761 633 758 Q 612 757 627 745 Q 639 738 651 734 C 677 724 677 724 691 732 Z"/>
  <path id="z30663d10" d="M 421 593 Q 409 617 392 626 Q 389 630 383 626 Q 379 622 378 612 Q 384 588 360 529 Q 351 513 353 496 Q 356 478 365 465 Q 372 455 377 463 Q 383 464 390 479 Q 394 485 401 508 Q 413 547 424 567 C 429 577 429 577 421 593 Z"/>
  <path id="z30663d11" d="M 424 567 Q 439 560 476 567 Q 593 607 739 621 Q 757 624 764 622 Q 779 615 776 607 Q 761 567 747 524 Q 754 521 769 532 Q 815 566 855 578 Q 888 588 886 597 Q 885 606 823 649 Q 801 665 733 650 Q 688 644 499 608 Q 459 599 421 593 C 391 588 395 573 424 567 Z"/>
  <path id="z30663d12" d="M 489 524 Q 461 520 482 507 Q 512 489 555 502 Q 604 514 654 525 Q 676 532 680 535 Q 686 541 683 547 Q 677 556 655 561 Q 633 564 610 554 Q 585 544 556 537 Q 525 530 489 524 Z"/>
  <path id="z30663d13" d="M 527 420 Q 578 435 722 459 Q 731 458 738 469 Q 739 479 719 487 Q 697 505 621 480 Q 554 462 434 441 Q 410 437 430 423 Q 457 405 493 411 L 527 420 Z"/>
  <path id="z30663d14" d="M 533 373 Q 554 394 553 401 Q 552 411 532 418 Q 529 419 527 420 C 502 430 502 430 493 411 Q 472 363 364 281 Q 348 271 368 272 Q 410 272 509 352 L 514 357 L 533 373 Z"/>
  <path id="z30663d15" d="M 635 279 Q 631 286 629 291 L 620 304 Q 584 352 533 373 C 506 386 490 375 514 357 Q 517 354 522 351 Q 532 344 542 336 L 579 297 Q 586 287 594 272 L 611 212 Q 618 155 604 91 Q 597 58 587 55 Q 581 51 522 54 Q 498 60 496 52 Q 495 45 507 34 Q 556 -6 575 -35 Q 588 -51 603 -48 Q 621 -44 636 -18 Q 679 75 661 194 Q 658 212 653 230 L 635 279 Z"/>
  <path id="z30663d16" d="M 542 336 Q 520 275 372 188 Q 356 181 375 180 Q 432 177 566 287 Q 572 293 579 297 C 604 314 554 364 542 336 Z"/>
  <path id="z30663d17" d="M 594 272 Q 593 273 593 272 Q 527 170 370 73 Q 360 69 349 61 Q 336 52 344 49 Q 351 43 363 47 Q 469 71 610 211 Q 610 212 611 212 C 632 233 613 296 594 272 Z"/>
  <path id="z30663d18" d="M 629 291 Q 666 307 688 320 Q 755 356 764 359 Q 783 366 776 382 Q 766 398 745 413 Q 726 426 714 426 Q 704 426 706 414 Q 707 393 661 345 Q 640 326 620 304 C 600 282 602 279 629 291 Z"/>
  <path id="z30663d19" d="M 653 230 Q 708 172 767 116 Q 792 95 829 97 Q 898 98 967 118 Q 985 122 986 127 Q 987 134 973 138 Q 810 180 808 181 Q 726 221 640 276 Q 637 279 635 279 C 609 295 632 252 653 230 Z"/>
<defs>
  <clipPath id="z30663c1"><use href="#z30663d1"/></clipPath>
  <clipPath id="z30663c2"><use href="#z30663d2"/></clipPath>
  <clipPath id="z30663c3"><use href="#z30663d3"/></clipPath>
  <clipPath id="z30663c4"><use href="#z30663d4"/></clipPath>
  <clipPath id="z30663c5"><use href="#z30663d5"/></clipPath>
  <clipPath id="z30663c6"><use href="#z30663d6"/></clipPath>
  <clipPath id="z30663c7"><use href="#z30663d7"/></clipPath>
  <clipPath id="z30663c8"><use href="#z30663d8"/></clipPath>
  <clipPath id="z30663c9"><use href="#z30663d9"/></clipPath>
  <clipPath id="z30663c10"><use href="#z30663d10"/></clipPath>
  <clipPath id="z30663c11"><use href="#z30663d11"/></clipPath>
  <clipPath id="z30663c12"><use href="#z30663d12"/></clipPath>
  <clipPath id="z30663c13"><use href="#z30663d13"/></clipPath>
  <clipPath id="z30663c14"><use href="#z30663d14"/></clipPath>
  <clipPath id="z30663c15"><use href="#z30663d15"/></clipPath>
  <clipPath id="z30663c16"><use href="#z30663d16"/></clipPath>
  <clipPath id="z30663c17"><use href="#z30663d17"/></clipPath>
  <clipPath id="z30663c18"><use href="#z30663d18"/></clipPath>
  <clipPath id="z30663c19"><use href="#z30663d19"/></clipPath>
</defs>
<path style="--d:1s;" pathLength="3333" clip-path="url(#z30663c1)" d="M 97 704 L 123 674 L 131 610 L 125 350 L 113 211 L 116 145"/>
<path style="--d:2s;" pathLength="3333" clip-path="url(#z30663c2)" d="M 159 669 L 174 681 L 249 704 L 278 695 L 293 681 L 294 248 L 291 207 L 282 183 L 284 138"/>
<path style="--d:3s;" pathLength="3333" clip-path="url(#z30663c3)" d="M 155 511 L 163 523 L 198 531 L 241 528"/>
<path style="--d:4s;" pathLength="3333" clip-path="url(#z30663c4)" d="M 153 364 L 161 375 L 189 381 L 220 384 L 241 379"/>
<path style="--d:5s;" pathLength="3333" clip-path="url(#z30663c5)" d="M 142 184 L 156 197 L 246 206"/>
<path style="--d:6s;" pathLength="3333" clip-path="url(#z30663c6)" d="M 472 820 L 509 795 L 543 667"/>
<path style="--d:7s;" pathLength="3333" clip-path="url(#z30663c7)" d="M 390 720 L 434 708 L 583 745"/>
<path style="--d:8s;" pathLength="3333" clip-path="url(#z30663c8)" d="M 687 866 L 708 830 L 671 730 L 640 667"/>
<path style="--d:9s;" pathLength="3333" clip-path="url(#z30663c9)" d="M 636 749 L 684 748 L 788 763 L 829 758 L 843 748"/>
<path style="--d:10s;" pathLength="3333" clip-path="url(#z30663c10)" d="M 388 617 L 400 590 L 400 571 L 378 514 L 373 475"/>
<path style="--d:11s;" pathLength="3333" clip-path="url(#z30663c11)" d="M 430 587 L 440 579 L 465 582 L 601 616 L 766 640 L 794 632 L 816 606 L 760 533 L 751 531"/>
<path style="--d:12s;" pathLength="3333" clip-path="url(#z30663c12)" d="M 483 517 L 527 514 L 636 542 L 672 543"/>
<path style="--d:13s;" pathLength="3333" clip-path="url(#z30663c13)" d="M 430 432 L 473 428 L 655 470 L 695 475 L 728 470"/>
<path style="--d:14s;" pathLength="3333" clip-path="url(#z30663c14)" d="M 542 401 L 516 392 L 443 323 L 372 279"/>
<path style="--d:15s;" pathLength="3333" clip-path="url(#z30663c15)" d="M 521 358 L 536 358 L 559 342 L 609 287 L 633 218 L 640 151 L 630 65 L 606 17 L 597 11 L 587 14 L 503 50"/>
<path style="--d:16s;" pathLength="3333" clip-path="url(#z30663c16)" d="M 545 330 L 547 299 L 528 278 L 452 221 L 379 186"/>
<path style="--d:17s;" pathLength="3333" clip-path="url(#z30663c17)" d="M 594 264 L 583 218 L 530 166 L 432 92 L 351 53"/>
<path style="--d:18s;" pathLength="3333" clip-path="url(#z30663c18)" d="M 717 415 L 731 380 L 632 303"/>
<path style="--d:19s;" pathLength="3333" clip-path="url(#z30663c19)" d="M 646 271 L 647 262 L 670 236 L 801 141 L 836 134 L 980 128"/>
</svg>