<svg id="z30876" class="acjk" viewBox="0 0 1024 1024" xmlns="http://www.w3.org/2000/svg">
  <path id="z30876d1" d="M 244 587 Q 385 632 390 635 Q 397 644 392 652 Q 385 664 354 668 Q 332 671 241 636 Q 157 612 130 607 Q 93 597 122 583 Q 158 567 200 575 L 244 587 Z"/>
  <path id="z30876d2" d="M 215 382 Q 237 434 254 475 Q 267 517 278 537 Q 282 549 273 561 Q 258 579 244 587 C 220 604 191 604 200 575 Q 209 548 209 538 Q 208 532 207 522 Q 198 456 167 380 L 145 333 Q 99 240 43 159 Q 39 153 39 147 Q 39 143 45 144 Q 84 153 159 275 L 215 382 Z"/>
  <path id="z30876d3" d="M 167 380 Q 158 383 147 385 Q 137 388 133 384 Q 127 378 134 364 Q 138 351 145 333 L 159 275 Q 166 238 172 193 Q 173 162 190 139 Q 205 118 210 132 Q 217 151 215 183 L 211 214 Q 193 337 198 347 C 201 370 196 372 167 380 Z"/>
  <path id="z30876d4" d="M 342 245 Q 357 336 380 363 Q 399 388 378 400 Q 359 410 333 424 Q 314 433 298 422 Q 277 406 248 394 Q 233 388 215 382 C 187 372 169 338 197 348 L 198 347 Q 213 356 282 373 Q 303 380 308 371 Q 317 365 310 329 Q 303 290 295 245 C 290 215 337 215 342 245 Z"/>
  <path id="z30876d5" d="M 215 183 Q 227 183 240 186 Q 277 198 360 212 Q 370 215 370 224 Q 370 231 342 245 L 295 245 Q 292 245 290 243 Q 247 225 211 214 C 182 205 185 182 215 183 Z"/>
  <path id="z30876d6" d="M 580 616 Q 626 631 701 647 Q 710 650 717 653 C 745 664 732 677 702 672 Q 620 660 530 637 Q 520 634 518 637 Q 517 640 522 648 Q 616 757 635 775 Q 647 782 642 795 Q 638 807 595 830 Q 580 837 572 835 Q 559 831 564 811 Q 576 750 476 656 Q 460 643 439 629 Q 426 619 429 609 Q 433 593 455 574 Q 464 564 477 573 Q 492 586 534 602 L 580 616 Z"/>
  <path id="z30876d7" d="M 717 653 Q 744 617 756 614 Q 763 613 770 621 Q 774 631 773 653 Q 770 686 688 730 Q 678 734 672 734 Q 668 733 667 723 Q 667 719 702 672 L 717 653 Z"/>
  <path id="z30876d8" d="M 664 496 Q 751 505 854 506 Q 872 507 876 515 Q 880 527 865 539 Q 814 572 781 564 Q 712 546 595 524 Q 583 523 571 519 L 516 509 Q 446 499 367 485 Q 348 482 362 467 Q 375 455 393 450 Q 412 446 427 451 Q 461 461 500 469 L 554 480 Q 581 489 634 492 L 664 496 Z"/>
  <path id="z30876d9" d="M 571 519 Q 590 562 602 576 Q 609 583 606 590 Q 603 605 580 616 C 554 631 531 632 534 602 Q 541 586 516 509 L 500 469 Q 461 382 374 294 Q 364 282 373 280 Q 388 276 446 323 Q 507 377 554 480 L 571 519 Z"/>
  <path id="z30876d10" d="M 634 492 Q 698 407 771 330 Q 792 308 827 306 Q 891 302 960 313 Q 978 314 979 319 Q 980 325 967 331 Q 822 385 792 402 Q 746 426 664 496 C 641 515 616 516 634 492 Z"/>
  <path id="z30876d11" d="M 585 422 Q 579 358 462 230 Q 447 217 468 222 Q 547 247 624 374 Q 637 393 645 403 Q 652 413 649 421 Q 645 431 624 434 Q 602 438 592 435 Q 586 434 585 422 Z"/>
  <path id="z30876d12" d="M 623 315 Q 617 243 467 95 Q 451 80 473 86 Q 537 98 643 236 Q 652 257 686 293 Q 693 303 690 311 Q 686 321 664 326 Q 639 332 630 328 Q 623 327 623 315 Z"/>
  <path id="z30876d13" d="M 687 224 Q 690 158 574 40 Q 571 39 569 36 Q 535 3 450 -57 Q 443 -61 451 -65 Q 509 -65 622 29 Q 697 104 742 158 Q 751 168 757 173 Q 764 177 764 187 Q 760 214 724 230 Q 705 237 695 237 Q 686 236 687 224 Z"/>
<defs>
  <clipPath id="z30876c1"><use href="#z30876d1"/></clipPath>
  <clipPath id="z30876c2"><use href="#z30876d2"/></clipPath>
  <clipPath id="z30876c3"><use href="#z30876d3"/></clipPath>
  <clipPath id="z30876c4"><use href="#z30876d4"/></clipPath>
  <clipPath id="z30876c5"><use href="#z30876d5"/></clipPath>
  <clipPath id="z30876c6"><use href="#z30876d6"/></clipPath>
  <clipPath id="z30876c7"><use href="#z30876d7"/></clipPath>
  <clipPath id="z30876c8"><use href="#z30876d8"/></clipPath>
  <clipPath id="z30876c9"><use href="#z30876d9"/></clipPath>
  <clipPath id="z30876c10"><use href="#z30876d10"/></clipPath>
  <clipPath id="z30876c11"><use href="#z30876d11"/></clipPath>
  <clipPath id="z30876c12"><use href="#z30876d12"/></clipPath>
  <clipPath id="z30876c13"><use href="#z30876d13"/></clipPath>
</defs>
<path style="--d:1s;" pathLength="3333" clip-path="url(#z30876c1)" d="M 123 596 L 175 594 L 251 612 L 346 645 L 385 642"/>
<path style="--d:2s;" pathLength="3333" clip-path="url(#z30876c2)" d="M 209 569 L 238 553 L 243 544 L 231 491 L 193 385 L 126 253 L 83 190 L 45 152"/>
<path style="--d:3s;" pathLength="3333" clip-path="url(#z30876c3)" d="M 141 377 L 171 338 L 201 137"/>
<path style="--d:4s;" pathLength="3333" clip-path="url(#z30876c4)" d="M 208 355 L 225 372 L 306 399 L 326 395 L 346 377 L 323 268 L 303 251"/>
<path style="--d:5s;" pathLength="3333" clip-path="url(#z30876c5)" d="M 221 192 L 235 204 L 301 224 L 342 227 L 360 222"/>
<path style="--d:6s;" pathLength="3333" clip-path="url(#z30876c6)" d="M 577 822 L 598 785 L 548 704 L 498 649 L 487 620 L 517 616 L 666 654 L 696 660 L 711 656"/>
<path style="--d:7s;" pathLength="3333" clip-path="url(#z30876c7)" d="M 674 726 L 738 667 L 758 627"/>
<path style="--d:8s;" pathLength="3333" clip-path="url(#z30876c8)" d="M 365 476 L 417 471 L 592 506 L 791 535 L 865 520"/>
<path style="--d:9s;" pathLength="3333" clip-path="url(#z30876c9)" d="M 541 600 L 566 579 L 508 434 L 457 360 L 413 313 L 376 287"/>
<path style="--d:10s;" pathLength="3333" clip-path="url(#z30876c10)" d="M 642 489 L 664 480 L 756 388 L 804 353 L 849 339 L 974 320"/>
<path style="--d:11s;" pathLength="3333" clip-path="url(#z30876c11)" d="M 636 416 L 612 407 L 559 316 L 520 270 L 471 231"/>
<path style="--d:12s;" pathLength="3333" clip-path="url(#z30876c12)" d="M 676 306 L 651 299 L 620 240 L 559 164 L 476 94"/>
<path style="--d:13s;" pathLength="3333" clip-path="url(#z30876c13)" d="M 700 225 L 719 188 L 700 154 L 637 74 L 556 -1 L 516 -29 L 455 -60"/>
</svg>