<svg id="z37206" class="acjk" viewBox="0 0 1024 1024" xmlns="http://www.w3.org/2000/svg">
  <path id="z37206d1" d="M 325 695 Q 346 702 371 706 Q 402 713 407 718 Q 414 725 411 733 Q 404 743 378 750 Q 356 753 274 728 Q 189 710 156 706 Q 122 700 147 685 Q 174 670 212 670 L 245 678 Q 264 682 287 687 L 325 695 Z"/>
  <path id="z37206d2" d="M 162 523 Q 152 533 132 541 Q 123 545 113 542 Q 107 538 112 527 Q 113 518 117 510 Q 144 459 122 239 Q 98 151 131 113 Q 141 101 150 112 Q 160 130 162 159 L 164 189 Q 165 199 165 210 Q 169 469 172 487 Q 173 494 173 499 C 174 513 174 513 162 523 Z"/>
  <path id="z37206d3" d="M 355 175 Q 370 150 382 124 Q 392 106 400 104 Q 409 104 418 124 Q 431 161 430 207 Q 427 493 435 519 Q 442 537 433 544 Q 426 554 395 569 Q 377 579 325 557 L 297 549 Q 281 546 263 541 L 229 533 Q 198 529 162 523 C 132 518 144 491 173 499 Q 179 500 187 502 Q 205 509 228 514 L 261 522 Q 277 526 296 530 L 323 533 Q 330 536 340 536 Q 367 539 375 529 Q 384 520 384 417 L 383 387 Q 377 207 369 198 C 362 169 349 186 355 175 Z"/>
  <path id="z37206d4" d="M 212 670 Q 222 660 227 616 Q 233 550 229 533 L 228 514 Q 222 451 186 365 Q 183 361 183 357 Q 182 350 188 352 Q 213 358 246 446 Q 259 494 261 522 L 263 541 Q 264 562 265 633 Q 265 642 267 650 Q 271 660 265 667 Q 258 674 245 678 C 217 689 196 696 212 670 Z"/>
  <path id="z37206d5" d="M 325 557 Q 329 609 346 670 Q 350 680 343 687 Q 336 691 325 695 C 297 706 268 711 287 687 Q 288 686 291 682 Q 303 669 302 633 Q 301 594 297 549 L 296 530 Q 286 422 320 394 Q 326 388 383 387 C 413 386 414 415 384 417 Q 369 418 355 420 Q 348 420 342 425 Q 326 435 325 466 Q 321 497 323 533 L 325 557 Z"/>
  <path id="z37206d6" d="M 202 280 Q 186 276 206 263 Q 213 259 226 260 Q 289 270 336 277 Q 358 281 349 293 Q 339 306 315 310 Q 287 311 202 280 Z"/>
  <path id="z37206d7" d="M 162 159 Q 172 156 184 159 Q 238 169 355 175 C 385 177 390 177 369 198 Q 363 205 352 212 Q 337 221 308 214 Q 229 198 164 189 C 134 185 133 165 162 159 Z"/>
  <path id="z37206d8" d="M 525 549 Q 515 570 493 585 Q 489 588 485 584 Q 481 581 481 571 Q 485 538 462 477 Q 455 462 456 446 Q 460 430 469 417 Q 476 408 481 415 Q 487 416 493 431 Q 497 438 503 463 Q 513 503 520 520 C 529 542 529 542 525 549 Z"/>
  <path id="z37206d9" d="M 639 545 Q 748 572 767 569 Q 779 565 777 557 Q 777 553 746 491 Q 737 479 743 476 Q 750 473 765 483 Q 813 514 852 525 Q 883 532 883 542 Q 882 551 822 594 Q 800 612 723 592 Q 705 591 642 575 L 599 566 Q 581 566 525 549 C 496 540 490 524 520 520 Q 538 516 554 520 Q 573 527 597 534 L 639 545 Z"/>
  <path id="z37206d10" d="M 597 534 Q 573 230 475 105 Q 441 66 391 26 Q 381 19 380 14 Q 381 10 392 11 Q 405 7 438 23 Q 549 68 595 234 Q 616 309 626 414 Q 632 481 639 545 L 642 575 Q 651 680 676 730 Q 683 743 673 754 Q 654 772 618 784 Q 596 791 587 785 Q 578 779 584 768 Q 603 732 604 689 Q 603 628 599 566 L 597 534 Z"/>
  <path id="z37206d11" d="M 653 266 Q 643 130 653 93 Q 656 72 674 55 Q 731 3 875 21 Q 882 22 891 24 Q 922 33 955 55 Q 971 68 960 91 Q 948 113 932 184 Q 931 197 925 202 Q 919 203 916 189 Q 897 113 882 90 Q 857 62 779 70 Q 749 73 725 84 Q 704 96 698 110 Q 677 156 707 311 Q 713 338 667 359 Q 655 363 647 358 Q 640 355 645 338 Q 657 301 653 266 Z"/>
<defs>
  <clipPath id="z37206c1"><use href="#z37206d1"/></clipPath>
  <clipPath id="z37206c2"><use href="#z37206d2"/></clipPath>
  <clipPath id="z37206c3"><use href="#z37206d3"/></clipPath>
  <clipPath id="z37206c4"><use href="#z37206d4"/></clipPath>
  <clipPath id="z37206c5"><use href="#z37206d5"/></clipPath>
  <clipPath id="z37206c6"><use href="#z37206d6"/></clipPath>
  <clipPath id="z37206c7"><use href="#z37206d7"/></clipPath>
  <clipPath id="z37206c8"><use href="#z37206d8"/></clipPath>
  <clipPath id="z37206c9"><use href="#z37206d9"/></clipPath>
  <clipPath id="z37206c10"><use href="#z37206d10"/></clipPath>
  <clipPath id="z37206c11"><use href="#z37206d11"/></clipPath>
</defs>
<path style="--d:1s;" pathLength="3333" clip-path="url(#z37206c1)" d="M 149 697 L 205 691 L 330 721 L 400 728"/>
<path style="--d:2s;" pathLength="3333" clip-path="url(#z37206c2)" d="M 119 534 L 144 507 L 149 484 L 149 325 L 137 172 L 141 118"/>
<path style="--d:3s;" pathLength="3333" clip-path="url(#z37206c3)" d="M 170 519 L 180 513 L 219 520 L 357 553 L 394 545 L 406 530 L 405 248 L 395 172 L 400 114"/>
<path style="--d:4s;" pathLength="3333" clip-path="url(#z37206c4)" d="M 218 669 L 244 654 L 247 538 L 230 439 L 189 358"/>
<path style="--d:5s;" pathLength="3333" clip-path="url(#z37206c5)" d="M 293 688 L 323 668 L 306 518 L 311 445 L 331 410 L 367 402 L 376 410"/>
<path style="--d:6s;" pathLength="3333" clip-path="url(#z37206c6)" d="M 203 271 L 305 291 L 340 287"/>
<path style="--d:7s;" pathLength="3333" clip-path="url(#z37206c7)" d="M 168 166 L 179 175 L 214 181 L 360 196"/>
<path style="--d:8s;" pathLength="3333" clip-path="url(#z37206c8)" d="M 490 575 L 503 544 L 477 449 L 477 427"/>
<path style="--d:9s;" pathLength="3333" clip-path="url(#z37206c9)" d="M 527 526 L 541 537 L 575 546 L 772 586 L 803 571 L 815 552 L 747 483"/>
<path style="--d:10s;" pathLength="3333" clip-path="url(#z37206c10)" d="M 593 775 L 618 757 L 636 726 L 605 407 L 580 272 L 550 181 L 513 113 L 478 73 L 438 41 L 386 14"/>
<path style="--d:11s;" pathLength="3333" clip-path="url(#z37206c11)" d="M 655 349 L 677 321 L 680 304 L 668 189 L 673 108 L 682 85 L 711 61 L 757 46 L 822 42 L 861 46 L 908 67 L 922 80 L 922 195"/>
</svg>