<svg id="z30682" class="acjk" viewBox="0 0 1024 1024" xmlns="http://www.w3.org/2000/svg">
  <path id="z30682d1" d="M 150 759 Q 135 774 114 781 Q 105 785 94 781 Q 87 777 92 765 Q 113 701 115 662 Q 127 436 94 304 Q 81 250 114 209 Q 124 196 134 208 Q 144 221 145 235 L 148 265 Q 151 293 151 420 L 152 451 Q 152 512 154 558 L 154 589 Q 157 724 160 732 C 162 749 162 749 150 759 Z"/>
  <path id="z30682d2" d="M 233 249 Q 243 233 255 216 Q 270 194 277 196 Q 290 199 305 235 Q 318 275 314 325 Q 287 683 314 736 Q 324 752 317 763 Q 310 773 264 787 Q 242 796 225 786 Q 185 768 150 759 C 121 751 131 725 160 732 Q 166 733 173 735 Q 236 750 244 743 Q 259 728 259 670 Q 263 427 252 295 Q 255 279 241 275 C 228 257 228 257 233 249 Z"/>
  <path id="z30682d3" d="M 154 558 Q 196 565 226 569 Q 245 575 238 585 Q 228 598 204 599 Q 185 600 154 589 C 126 579 124 553 154 558 Z"/>
  <path id="z30682d4" d="M 151 420 Q 194 430 227 437 Q 246 444 238 454 Q 226 464 204 466 Q 183 466 152 451 C 125 438 122 413 151 420 Z"/>
  <path id="z30682d5" d="M 145 235 Q 160 244 233 249 C 263 251 266 258 241 275 Q 237 278 231 281 Q 219 287 148 265 C 119 256 118 222 145 235 Z"/>
  <path id="z30682d6" d="M 760 746 Q 778 783 804 794 Q 819 810 807 826 Q 794 839 748 863 Q 732 870 713 864 Q 635 831 496 808 C 466 803 475 771 504 779 Q 507 782 692 820 Q 714 826 723 817 Q 729 810 710 751 C 701 722 746 720 760 746 Z"/>
  <path id="z30682d7" d="M 484 676 Q 488 676 493 677 Q 580 698 769 718 Q 779 719 780 726 Q 780 732 760 746 C 743 759 739 758 710 751 Q 587 721 489 707 C 459 703 454 672 484 676 Z"/>
  <path id="z30682d8" d="M 496 808 Q 483 821 460 832 Q 442 842 430 838 Q 418 832 424 819 Q 442 785 443 731 Q 439 701 436 663 Q 415 447 349 286 Q 292 150 183 1 Q 179 -5 176 -11 Q 173 -21 183 -19 Q 216 -15 312 121 Q 337 161 362 208 Q 459 415 484 676 L 489 707 Q 490 717 492 727 Q 499 775 504 779 C 509 798 509 798 496 808 Z"/>
  <path id="z30682d9" d="M 612 676 Q 624 646 616 582 Q 613 567 628 547 Q 634 540 640 547 Q 650 565 654 628 Q 655 641 658 656 Q 662 669 649 677 Q 639 684 629 690 Q 622 693 615 689 Q 611 685 612 676 Z"/>
  <path id="z30682d10" d="M 520 647 Q 553 614 572 616 Q 581 617 583 629 Q 582 638 574 649 Q 567 656 551 659 Q 529 665 519 664 Q 513 664 514 657 Q 514 651 520 647 Z"/>
  <path id="z30682d11" d="M 515 576 Q 548 543 565 545 Q 572 545 575 557 Q 575 564 567 575 Q 552 593 515 592 Q 509 592 510 585 Q 510 581 515 576 Z"/>
  <path id="z30682d12" d="M 697 672 Q 751 641 765 643 Q 772 644 774 657 Q 773 666 762 676 Q 740 695 695 689 Q 689 688 690 681 Q 691 677 697 672 Z"/>
  <path id="z30682d13" d="M 694 607 Q 742 580 756 582 Q 765 583 765 598 Q 764 607 753 617 Q 732 632 691 626 Q 685 625 687 617 Q 688 611 694 607 Z"/>
  <path id="z30682d14" d="M 532 395 Q 532 396 533 396 Q 533 397 533 399 L 534 415 Q 534 421 533 428 Q 526 470 523 487 C 519 509 519 509 506 514 Q 496 518 481 519 Q 472 520 470 517 Q 466 513 472 501 Q 490 473 503 424 Q 504 414 510 406 C 526 381 528 379 532 395 Z"/>
  <path id="z30682d15" d="M 771 427 Q 774 417 782 417 Q 792 417 816 452 Q 829 489 855 510 Q 868 520 858 532 Q 845 545 810 564 Q 798 570 734 556 Q 716 556 506 514 C 477 508 494 478 523 487 Q 544 494 577 501 L 596 505 Q 627 514 673 520 L 697 525 Q 773 538 790 530 Q 794 527 791 513 Q 778 461 773 451 Q 772 451 772 450 C 765 434 765 434 771 427 Z"/>
  <path id="z30682d16" d="M 617 430 Q 617 431 618 434 Q 618 473 596 505 C 579 530 577 531 577 501 Q 577 453 601 428 C 614 414 614 414 617 430 Z"/>
  <path id="z30682d17" d="M 686 443 Q 687 447 691 451 Q 698 463 706 478 Q 721 503 719 507 Q 712 517 697 525 C 671 540 667 542 673 520 Q 679 502 669 450 Q 666 444 665 439 C 658 410 675 415 686 443 Z"/>
  <path id="z30682d18" d="M 533 399 Q 545 395 565 398 Q 683 417 771 427 C 801 430 800 438 772 450 Q 771 451 765 453 Q 741 457 686 443 L 665 439 Q 640 436 617 430 L 601 428 Q 565 424 534 415 C 505 407 504 406 533 399 Z"/>
  <path id="z30682d19" d="M 532 351 Q 547 367 548 371 Q 548 377 532 395 C 518 411 518 411 510 406 Q 503 405 504 395 Q 513 373 438 296 Q 432 292 430 288 Q 427 284 435 283 Q 457 283 519 338 L 532 351 Z"/>
  <path id="z30682d20" d="M 580 327 Q 587 328 598 330 Q 808 357 816 357 Q 832 357 835 351 Q 847 327 844 193 Q 838 88 812 32 Q 802 8 786 3 Q 774 0 708 18 Q 699 21 699 16 Q 699 12 709 4 Q 749 -36 768 -65 Q 778 -84 790 -82 Q 827 -79 862 -9 Q 893 60 909 291 Q 910 318 925 336 Q 938 349 937 357 Q 936 364 917 377 Q 892 396 857 405 Q 838 411 752 388 Q 745 388 738 385 Q 639 363 532 351 C 502 347 498 347 519 338 Q 522 332 546 327 L 580 327 Z"/>
  <path id="z30682d21" d="M 468 265 Q 461 269 437 270 Q 428 271 426 268 Q 422 264 429 252 Q 448 221 465 169 Q 469 153 479 143 Q 494 128 497 140 Q 498 146 498 153 L 494 179 Q 482 227 480 243 C 477 261 477 261 468 265 Z"/>
  <path id="z30682d22" d="M 695 205 Q 714 250 734 260 Q 744 272 736 284 Q 691 323 643 303 Q 622 297 602 290 L 559 279 Q 514 272 468 265 C 438 260 451 234 480 243 Q 504 252 559 259 L 600 267 Q 661 283 672 274 Q 676 270 675 259 Q 669 234 662 213 C 653 184 683 178 695 205 Z"/>
  <path id="z30682d23" d="M 596 167 Q 639 174 702 180 Q 711 181 712 188 Q 712 194 695 205 C 680 215 680 215 662 213 Q 653 213 597 198 L 560 190 Q 524 184 494 179 C 464 174 468 152 498 153 Q 505 153 518 154 Q 534 158 560 162 L 596 167 Z"/>
  <path id="z30682d24" d="M 593 99 Q 594 136 596 167 L 597 198 Q 598 235 600 267 L 602 290 Q 606 303 601 309 Q 591 319 580 327 C 556 345 534 355 546 327 Q 546 326 547 323 Q 559 305 559 279 L 559 259 Q 559 237 560 190 L 560 162 Q 560 132 560 92 C 560 62 592 69 593 99 Z"/>
  <path id="z30682d25" d="M 674 116 Q 634 109 593 99 L 560 92 Q 512 85 463 75 Q 447 72 421 75 Q 411 75 408 67 Q 405 57 412 50 Q 428 35 453 18 Q 460 15 470 21 Q 500 39 659 89 Q 672 93 684 99 C 711 112 704 121 674 116 Z"/>
  <path id="z30682d26" d="M 684 99 Q 697 78 710 54 Q 716 44 725 40 Q 732 39 738 45 Q 744 52 745 73 Q 746 100 677 153 Q 670 157 664 158 Q 660 157 659 149 Q 658 142 670 123 Q 671 120 674 116 L 684 99 Z"/>
<defs>
  <clipPath id="z30682c1"><use href="#z30682d1"/></clipPath>
  <clipPath id="z30682c2"><use href="#z30682d2"/></clipPath>
  <clipPath id="z30682c3"><use href="#z30682d3"/></clipPath>
  <clipPath id="z30682c4"><use href="#z30682d4"/></clipPath>
  <clipPath id="z30682c5"><use href="#z30682d5"/></clipPath>
  <clipPath id="z30682c6"><use href="#z30682d6"/></clipPath>
  <clipPath id="z30682c7"><use href="#z30682d7"/></clipPath>
  <clipPath id="z30682c8"><use href="#z30682d8"/></clipPath>
  <clipPath id="z30682c9"><use href="#z30682d9"/></clipPath>
  <clipPath id="z30682c10"><use href="#z30682d10"/></clipPath>
  <clipPath id="z30682c11"><use href="#z30682d11"/></clipPath>
  <clipPath id="z30682c12"><use href="#z30682d12"/></clipPath>
  <clipPath id="z30682c13"><use href="#z30682d13"/></clipPath>
  <clipPath id="z30682c14"><use href="#z30682d14"/></clipPath>
  <clipPath id="z30682c15"><use href="#z30682d15"/></clipPath>
  <clipPath id="z30682c16"><use href="#z30682d16"/></clipPath>
  <clipPath id="z30682c17"><use href="#z30682d17"/></clipPath>
  <clipPath id="z30682c18"><use href="#z30682d18"/></clipPath>
  <clipPath id="z30682c19"><use href="#z30682d19"/></clipPath>
  <clipPath id="z30682c20"><use href="#z30682d20"/></clipPath>
  <clipPath id="z30682c21"><use href="#z30682d21"/></clipPath>
  <clipPath id="z30682c22"><use href="#z30682d22"/></clipPath>
  <clipPath id="z30682c23"><use href="#z30682d23"/></clipPath>
  <clipPath id="z30682c24"><use href="#z30682d24"/></clipPath>
  <clipPath id="z30682c25"><use href="#z30682d25"/></clipPath>
  <clipPath id="z30682c26"><use href="#z30682d26"/></clipPath>
</defs>
<path style="--d:1s;" pathLength="3333" clip-path="url(#z30682c1)" d="M 101 772 L 121 752 L 131 728 L 139 604 L 133 408 L 119 269 L 124 213"/>
<path style="--d:2s;" pathLength="3333" clip-path="url(#z30682c2)" d="M 159 755 L 182 750 L 244 768 L 281 746 L 285 315 L 282 274 L 273 251 L 276 206"/>
<path style="--d:3s;" pathLength="3333" clip-path="url(#z30682c3)" d="M 161 566 L 179 580 L 228 580"/>
<path style="--d:4s;" pathLength="3333" clip-path="url(#z30682c4)" d="M 158 428 L 179 445 L 229 448"/>
<path style="--d:5s;" pathLength="3333" clip-path="url(#z30682c5)" d="M 155 246 L 161 256 L 219 264 L 232 271"/>
<path style="--d:6s;" pathLength="3333" clip-path="url(#z30682c6)" d="M 505 788 L 525 800 L 726 842 L 744 835 L 762 812 L 744 774 L 717 761"/>
<path style="--d:7s;" pathLength="3333" clip-path="url(#z30682c7)" d="M 488 683 L 511 697 L 706 731 L 752 732 L 771 726"/>
<path style="--d:8s;" pathLength="3333" clip-path="url(#z30682c8)" d="M 435 826 L 456 807 L 470 778 L 451 588 L 413 404 L 375 291 L 333 198 L 249 63 L 184 -11"/>
<path style="--d:9s;" pathLength="3333" clip-path="url(#z30682c9)" d="M 623 680 L 638 652 L 634 554"/>
<path style="--d:10s;" pathLength="3333" clip-path="url(#z30682c10)" d="M 523 656 L 570 629"/>
<path style="--d:11s;" pathLength="3333" clip-path="url(#z30682c11)" d="M 519 584 L 562 558"/>
<path style="--d:12s;" pathLength="3333" clip-path="url(#z30682c12)" d="M 699 681 L 740 669 L 762 653"/>
<path style="--d:13s;" pathLength="3333" clip-path="url(#z30682c13)" d="M 698 617 L 740 604 L 753 594"/>
<path style="--d:14s;" pathLength="3333" clip-path="url(#z30682c14)" d="M 477 512 L 496 498 L 503 484 L 518 423 L 531 398"/>
<path style="--d:15s;" pathLength="3333" clip-path="url(#z30682c15)" d="M 520 514 L 537 505 L 595 521 L 748 547 L 802 546 L 823 521 L 781 427"/>
<path style="--d:16s;" pathLength="3333" clip-path="url(#z30682c16)" d="M 584 492 L 590 490 L 601 452 L 613 433"/>
<path style="--d:17s;" pathLength="3333" clip-path="url(#z30682c17)" d="M 680 517 L 696 496 L 679 450 L 670 444"/>
<path style="--d:18s;" pathLength="3333" clip-path="url(#z30682c18)" d="M 538 403 L 766 445"/>
<path style="--d:19s;" pathLength="3333" clip-path="url(#z30682c19)" d="M 513 397 L 524 376 L 516 361 L 462 305 L 437 290"/>
<path style="--d:20s;" pathLength="3333" clip-path="url(#z30682c20)" d="M 525 338 L 639 347 L 813 380 L 849 377 L 881 349 L 870 155 L 854 63 L 830 -4 L 796 -36 L 722 4 L 719 12 L 705 11"/>
<path style="--d:21s;" pathLength="3333" clip-path="url(#z30682c21)" d="M 432 264 L 461 236 L 488 144"/>
<path style="--d:22s;" pathLength="3333" clip-path="url(#z30682c22)" d="M 476 262 L 485 256 L 532 263 L 668 294 L 692 286 L 702 270 L 685 226 L 669 219"/>
<path style="--d:23s;" pathLength="3333" clip-path="url(#z30682c23)" d="M 501 173 L 510 167 L 661 194 L 704 188"/>
<path style="--d:24s;" pathLength="3333" clip-path="url(#z30682c24)" d="M 552 326 L 580 298 L 578 121 L 564 100"/>
<path style="--d:25s;" pathLength="3333" clip-path="url(#z30682c25)" d="M 420 62 L 460 47 L 656 102 L 676 100"/>
<path style="--d:26s;" pathLength="3333" clip-path="url(#z30682c26)" d="M 668 150 L 719 82 L 728 53"/>
</svg>