<svg id="z36451" class="acjk" viewBox="0 0 1024 1024" xmlns="http://www.w3.org/2000/svg">
  <path id="z36451d1" d="M 184 653 Q 172 659 137 664 Q 125 665 123 661 Q 117 655 126 640 Q 153 591 173 507 Q 177 482 192 466 Q 210 447 214 461 Q 217 471 217 486 L 213 514 Q 198 595 191 624 C 184 653 184 653 184 653 Z"/>
  <path id="z36451d2" d="M 355 536 Q 374 614 396 635 Q 418 660 395 675 Q 376 685 349 702 Q 330 712 312 701 Q 276 677 184 653 C 155 645 163 613 191 624 Q 192 627 287 651 Q 314 658 321 648 Q 328 642 321 612 Q 314 581 306 543 C 300 514 348 507 355 536 Z"/>
  <path id="z36451d3" d="M 262 495 Q 298 504 360 513 Q 369 514 369 522 Q 369 528 355 536 L 306 543 Q 302 543 301 542 Q 253 526 213 514 C 184 505 187 486 217 486 Q 221 486 227 486 L 262 495 Z"/>
  <path id="z36451d4" d="M 285 214 Q 286 293 290 360 L 292 395 Q 292 425 295 445 Q 301 461 292 471 Q 276 487 262 495 C 237 511 215 513 227 486 Q 240 459 243 433 Q 244 409 244 201 C 244 171 285 184 285 214 Z"/>
  <path id="z36451d5" d="M 290 360 Q 339 373 375 383 Q 397 390 386 401 Q 374 413 350 413 Q 328 412 292 395 C 265 382 261 352 290 360 Z"/>
  <path id="z36451d6" d="M 195 186 Q 185 291 189 323 Q 190 342 177 353 Q 156 366 132 374 Q 120 378 113 372 Q 106 366 112 353 Q 139 313 158 175 C 162 145 198 156 195 186 Z"/>
  <path id="z36451d7" d="M 158 175 Q 71 151 49 151 Q 36 150 35 139 Q 32 126 42 118 Q 64 102 98 84 Q 108 81 120 90 Q 160 121 320 195 Q 344 205 361 219 Q 374 226 374 236 Q 368 242 356 239 Q 322 227 285 214 L 244 201 Q 219 194 195 186 L 158 175 Z"/>
  <path id="z36451d8" d="M 727 621 Q 791 631 845 639 Q 854 638 862 649 Q 862 659 843 668 Q 809 686 741 661 Q 738 661 737 660 L 678 645 Q 672 645 669 643 Q 612 630 562 620 L 519 613 Q 474 609 427 601 Q 403 597 422 583 Q 452 562 478 568 Q 497 574 523 578 L 563 587 Q 612 600 673 611 L 727 621 Z"/>
  <path id="z36451d9" d="M 562 620 Q 562 723 561 725 Q 560 726 558 727 Q 545 737 521 746 Q 502 750 485 742 Q 475 735 488 723 Q 509 687 519 613 L 523 578 Q 526 560 531 484 Q 534 460 542 445 Q 548 436 554 442 Q 558 446 562 462 L 564 491 Q 565 516 563 587 L 562 620 Z"/>
  <path id="z36451d10" d="M 700 515 Q 713 570 727 621 L 737 660 Q 746 711 769 754 Q 773 764 757 782 Q 726 806 704 813 Q 689 819 680 812 Q 671 805 677 790 Q 690 765 688 748 Q 684 699 678 645 L 673 611 Q 666 566 658 516 C 653 486 693 486 700 515 Z"/>
  <path id="z36451d11" d="M 623 471 Q 659 480 715 485 Q 724 486 724 494 Q 724 501 700 515 L 658 516 L 657 516 Q 605 501 564 491 C 535 484 532 464 562 462 Q 568 461 577 463 Q 580 464 587 465 L 623 471 Z"/>
  <path id="z36451d12" d="M 433 351 L 431 353 Q 406 366 390 365 Q 378 362 383 351 Q 422 267 380 127 Q 353 76 385 36 Q 391 24 400 29 Q 428 50 435 139 Q 442 274 446 312 C 449 342 449 342 433 351 Z"/>
  <path id="z36451d13" d="M 638 365 Q 813 402 837 380 Q 844 373 842 359 Q 846 101 830 64 Q 826 54 814 56 Q 793 56 770 56 Q 745 56 764 41 Q 819 2 843 -27 Q 859 -43 874 -29 Q 893 -7 900 27 Q 910 63 897 254 Q 891 326 910 362 Q 923 383 917 390 Q 910 402 859 430 Q 844 442 806 428 Q 796 427 639 396 L 596 388 Q 568 384 433 351 C 404 344 417 304 446 312 Q 455 312 465 316 Q 511 337 596 356 L 638 365 Z"/>
  <path id="z36451d14" d="M 596 356 Q 587 139 577 113 Q 564 65 613 15 L 615 14 Q 625 13 630 25 Q 640 53 638 80 Q 635 329 638 365 L 639 396 Q 640 426 644 441 Q 647 451 640 458 Q 631 465 623 471 C 599 489 581 494 587 465 Q 590 458 596 388 L 596 356 Z"/>
  <path id="z36451d15" d="M 499 226 Q 499 201 450 147 Q 440 138 453 141 Q 484 147 521 192 Q 524 196 526 199 C 543 224 501 256 499 226 Z"/>
  <path id="z36451d16" d="M 526 199 Q 548 177 557 174 Q 563 174 566 181 Q 570 188 566 205 Q 565 223 540 239 Q 483 269 476 266 Q 473 265 473 257 Q 474 251 488 238 Q 492 234 499 226 L 526 199 Z"/>
  <path id="z36451d17" d="M 727 251 Q 714 218 655 164 Q 642 154 658 157 Q 688 157 756 225 C 777 246 739 279 727 251 Z"/>
  <path id="z36451d18" d="M 756 225 Q 799 186 808 185 Q 815 185 818 193 Q 821 200 817 219 Q 810 256 705 297 Q 695 300 692 298 Q 689 297 689 288 Q 690 281 706 269 Q 716 262 727 251 L 756 225 Z"/>
<defs>
  <clipPath id="z36451c1"><use href="#z36451d1"/></clipPath>
  <clipPath id="z36451c2"><use href="#z36451d2"/></clipPath>
  <clipPath id="z36451c3"><use href="#z36451d3"/></clipPath>
  <clipPath id="z36451c4"><use href="#z36451d4"/></clipPath>
  <clipPath id="z36451c5"><use href="#z36451d5"/></clipPath>
  <clipPath id="z36451c6"><use href="#z36451d6"/></clipPath>
  <clipPath id="z36451c7"><use href="#z36451d7"/></clipPath>
  <clipPath id="z36451c8"><use href="#z36451d8"/></clipPath>
  <clipPath id="z36451c9"><use href="#z36451d9"/></clipPath>
  <clipPath id="z36451c10"><use href="#z36451d10"/></clipPath>
  <clipPath id="z36451c11"><use href="#z36451d11"/></clipPath>
  <clipPath id="z36451c12"><use href="#z36451d12"/></clipPath>
  <clipPath id="z36451c13"><use href="#z36451d13"/></clipPath>
  <clipPath id="z36451c14"><use href="#z36451d14"/></clipPath>
  <clipPath id="z36451c15"><use href="#z36451d15"/></clipPath>
  <clipPath id="z36451c16"><use href="#z36451d16"/></clipPath>
  <clipPath id="z36451c17"><use href="#z36451d17"/></clipPath>
  <clipPath id="z36451c18"><use href="#z36451d18"/></clipPath>
</defs>
<path style="--d:1s;" pathLength="3333" clip-path="url(#z36451c1)" d="M 132 654 L 164 625 L 204 467"/>
<path style="--d:2s;" pathLength="3333" clip-path="url(#z36451c2)" d="M 194 633 L 216 649 L 248 654 L 281 668 L 321 677 L 340 673 L 360 652 L 358 641 L 336 564 L 313 549"/>
<path style="--d:3s;" pathLength="3333" clip-path="url(#z36451c3)" d="M 222 494 L 238 506 L 307 524 L 360 522"/>
<path style="--d:4s;" pathLength="3333" clip-path="url(#z36451c4)" d="M 234 481 L 258 470 L 268 455 L 265 229 L 247 214"/>
<path style="--d:5s;" pathLength="3333" clip-path="url(#z36451c5)" d="M 297 365 L 303 377 L 323 388 L 356 396 L 378 393"/>
<path style="--d:6s;" pathLength="3333" clip-path="url(#z36451c6)" d="M 122 363 L 158 327 L 175 201 L 161 187"/>
<path style="--d:7s;" pathLength="3333" clip-path="url(#z36451c7)" d="M 48 138 L 58 131 L 103 123 L 304 202 L 368 233"/>
<path style="--d:8s;" pathLength="3333" clip-path="url(#z36451c8)" d="M 423 592 L 480 588 L 802 655 L 853 650"/>
<path style="--d:9s;" pathLength="3333" clip-path="url(#z36451c9)" d="M 492 733 L 512 725 L 530 707 L 541 634 L 549 449"/>
<path style="--d:10s;" pathLength="3333" clip-path="url(#z36451c10)" d="M 690 800 L 718 771 L 726 750 L 685 543 L 665 522"/>
<path style="--d:11s;" pathLength="3333" clip-path="url(#z36451c11)" d="M 569 469 L 578 479 L 658 497 L 693 500 L 715 494"/>
<path style="--d:12s;" pathLength="3333" clip-path="url(#z36451c12)" d="M 395 354 L 414 337 L 418 324 L 422 251 L 395 38"/>
<path style="--d:13s;" pathLength="3333" clip-path="url(#z36451c13)" d="M 450 320 L 462 337 L 474 342 L 606 375 L 648 380 L 655 387 L 674 385 L 726 399 L 821 410 L 855 402 L 877 377 L 868 295 L 872 117 L 865 47 L 854 25 L 849 25 L 764 50"/>
<path style="--d:14s;" pathLength="3333" clip-path="url(#z36451c14)" d="M 593 464 L 617 440 L 606 84 L 618 22"/>
<path style="--d:15s;" pathLength="3333" clip-path="url(#z36451c15)" d="M 503 221 L 506 197 L 485 169 L 459 155 L 457 147"/>
<path style="--d:16s;" pathLength="3333" clip-path="url(#z36451c16)" d="M 478 260 L 536 218 L 557 183"/>
<path style="--d:17s;" pathLength="3333" clip-path="url(#z36451c17)" d="M 730 244 L 732 224 L 723 212 L 661 163"/>
<path style="--d:18s;" pathLength="3333" clip-path="url(#z36451c18)" d="M 698 291 L 773 240 L 797 217 L 809 194"/>
</svg>