<svg id="z30244" class="acjk" viewBox="0 0 1024 1024" xmlns="http://www.w3.org/2000/svg">
  <path id="z30244d1" d="M 502 814 Q 527 795 553 771 Q 569 758 588 759 Q 600 760 604 776 Q 608 794 596 827 Q 584 855 493 868 Q 475 871 468 867 Q 462 863 465 848 Q 471 835 502 814 Z"/>
  <path id="z30244d2" d="M 342 641 Q 369 637 399 642 Q 549 667 704 692 Q 774 705 785 715 Q 795 722 791 732 Q 784 744 754 753 Q 721 762 638 734 Q 491 697 333 681 C 303 678 312 644 342 641 Z"/>
  <path id="z30244d3" d="M 253 365 Q 219 194 99 -1 Q 93 -8 92 -14 Q 89 -24 100 -22 Q 125 -18 207 101 Q 226 135 245 174 Q 312 330 329 532 Q 335 617 342 641 C 348 670 348 671 333 681 Q 284 717 262 708 Q 250 701 257 687 Q 276 657 277 597 Q 276 581 275 559 Q 271 474 259 396 L 253 365 Z"/>
  <path id="z30244d4" d="M 139 570 Q 155 545 171 513 Q 180 497 195 493 Q 205 492 213 501 Q 222 514 222 543 Q 222 573 148 616 Q 135 623 129 623 Q 123 620 121 608 Q 121 598 139 570 Z"/>
  <path id="z30244d5" d="M 259 396 Q 82 312 53 309 Q 41 305 41 295 Q 41 282 52 277 Q 76 265 110 253 Q 120 252 130 262 Q 145 280 244 357 Q 248 361 253 365 C 276 385 286 409 259 396 Z"/>
  <path id="z30244d6" d="M 416 507 Q 440 519 503 555 Q 519 567 541 573 Q 560 580 552 595 Q 542 611 521 625 Q 503 638 492 636 Q 482 636 484 625 Q 484 604 405 522 C 384 500 389 493 416 507 Z"/>
  <path id="z30244d7" d="M 523 444 Q 517 443 446 402 Q 434 396 428 399 Q 424 400 424 409 Q 421 451 419 472 Q 416 488 417 501 Q 417 505 416 507 C 415 517 415 517 405 522 Q 387 532 371 536 Q 356 539 350 534 Q 343 527 355 514 Q 392 471 382 391 Q 378 375 367 352 Q 360 336 367 327 Q 376 317 396 311 Q 409 307 418 322 Q 431 353 509 410 Q 524 420 533 431 C 554 453 550 456 523 444 Z"/>
  <path id="z30244d8" d="M 533 431 Q 561 403 565 401 Q 572 401 578 409 Q 582 418 580 439 Q 577 461 515 491 Q 505 495 500 494 Q 496 493 496 483 Q 496 477 523 444 L 533 431 Z"/>
  <path id="z30244d9" d="M 663 551 Q 721 572 768 582 Q 780 583 783 580 Q 789 571 786 547 Q 780 480 765 449 Q 749 422 725 427 Q 710 431 698 436 Q 676 445 690 422 Q 717 385 728 356 Q 741 340 755 351 Q 801 378 831 487 Q 841 556 860 578 Q 870 588 866 598 Q 857 608 813 626 Q 804 630 751 610 Q 664 583 597 571 Q 584 570 581 563 Q 580 556 600 548 Q 619 536 636 543 L 663 551 Z"/>
  <path id="z30244d10" d="M 636 543 L 637 542 Q 637 539 639 536 Q 658 473 525 315 Q 521 311 520 306 Q 520 302 525 303 Q 585 318 666 457 Q 672 475 693 503 Q 697 512 691 522 Q 679 540 663 551 C 639 569 625 571 636 543 Z"/>
  <path id="z30244d11" d="M 392 266 Q 382 270 364 273 Q 352 276 349 271 Q 342 265 351 249 Q 384 176 401 59 Q 404 23 424 0 Q 442 -22 447 -7 Q 450 2 451 13 L 450 47 Q 449 59 447 71 Q 425 189 420 228 C 416 258 416 258 392 266 Z"/>
  <path id="z30244d12" d="M 694 33 Q 704 8 728 -43 Q 737 -61 747 -60 Q 763 -57 773 -31 Q 798 17 814 167 Q 820 216 843 246 Q 861 265 849 279 Q 827 301 780 323 Q 761 333 728 322 Q 602 279 392 266 C 362 264 391 221 420 228 Q 442 235 540 247 L 583 254 Q 730 281 747 264 Q 768 228 739 68 Q 738 53 731 52 Q 730 51 723 52 C 700 33 692 37 694 33 Z"/>
  <path id="z30244d13" d="M 598 148 Q 638 155 674 160 Q 698 164 689 176 Q 679 191 653 195 Q 632 199 600 190 L 549 175 Q 513 166 483 157 Q 467 153 487 138 Q 490 137 550 140 L 598 148 Z"/>
  <path id="z30244d14" d="M 593 66 Q 594 111 598 148 L 600 190 Q 600 194 601 197 Q 601 207 602 213 Q 609 231 583 254 C 561 275 528 275 540 247 Q 546 241 549 175 L 550 140 Q 550 107 552 59 C 553 29 592 36 593 66 Z"/>
  <path id="z30244d15" d="M 451 13 Q 458 12 467 13 Q 540 28 694 33 C 724 34 739 35 723 52 Q 716 61 698 73 Q 682 83 651 77 Q 620 71 593 66 L 552 59 Q 497 53 450 47 C 420 43 421 15 451 13 Z"/>
<defs>
  <clipPath id="z30244c1"><use href="#z30244d1"/></clipPath>
  <clipPath id="z30244c2"><use href="#z30244d2"/></clipPath>
  <clipPath id="z30244c3"><use href="#z30244d3"/></clipPath>
  <clipPath id="z30244c4"><use href="#z30244d4"/></clipPath>
  <clipPath id="z30244c5"><use href="#z30244d5"/></clipPath>
  <clipPath id="z30244c6"><use href="#z30244d6"/></clipPath>
  <clipPath id="z30244c7"><use href="#z30244d7"/></clipPath>
  <clipPath id="z30244c8"><use href="#z30244d8"/></clipPath>
  <clipPath id="z30244c9"><use href="#z30244d9"/></clipPath>
  <clipPath id="z30244c10"><use href="#z30244d10"/></clipPath>
  <clipPath id="z30244c11"><use href="#z30244d11"/></clipPath>
  <clipPath id="z30244c12"><use href="#z30244d12"/></clipPath>
  <clipPath id="z30244c13"><use href="#z30244d13"/></clipPath>
  <clipPath id="z30244c14"><use href="#z30244d14"/></clipPath>
  <clipPath id="z30244c15"><use href="#z30244d15"/></clipPath>
</defs>
<path style="--d:1s;" pathLength="3333" clip-path="url(#z30244c1)" d="M 475 859 L 561 812 L 585 778"/>
<path style="--d:2s;" pathLength="3333" clip-path="url(#z30244c2)" d="M 342 676 L 363 661 L 403 665 L 719 725 L 779 727"/>
<path style="--d:3s;" pathLength="3333" clip-path="url(#z30244c3)" d="M 268 695 L 294 675 L 307 642 L 300 509 L 276 347 L 256 273 L 203 141 L 159 63 L 100 -14"/>
<path style="--d:4s;" pathLength="3333" clip-path="url(#z30244c4)" d="M 131 616 L 183 555 L 197 513"/>
<path style="--d:5s;" pathLength="3333" clip-path="url(#z30244c5)" d="M 56 295 L 109 290 L 244 375"/>
<path style="--d:6s;" pathLength="3333" clip-path="url(#z30244c6)" d="M 540 587 L 505 593 L 420 525 L 417 514"/>
<path style="--d:7s;" pathLength="3333" clip-path="url(#z30244c7)" d="M 357 528 L 393 498 L 411 370 L 457 388 L 483 410 L 494 411 L 523 439"/>
<path style="--d:8s;" pathLength="3333" clip-path="url(#z30244c8)" d="M 506 486 L 563 430 L 568 410"/>
<path style="--d:9s;" pathLength="3333" clip-path="url(#z30244c9)" d="M 588 562 L 627 558 L 766 600 L 799 600 L 821 583 L 799 464 L 777 418 L 750 393 L 691 431"/>
<path style="--d:10s;" pathLength="3333" clip-path="url(#z30244c10)" d="M 645 541 L 659 531 L 667 510 L 646 456 L 567 343 L 525 309"/>
<path style="--d:11s;" pathLength="3333" clip-path="url(#z30244c11)" d="M 358 263 L 379 246 L 395 210 L 436 -1"/>
<path style="--d:12s;" pathLength="3333" clip-path="url(#z30244c12)" d="M 402 263 L 428 249 L 593 270 L 730 296 L 772 289 L 797 261 L 770 64 L 747 11 L 747 -46"/>
<path style="--d:13s;" pathLength="3333" clip-path="url(#z30244c13)" d="M 485 148 L 536 153 L 625 175 L 657 177 L 679 170"/>
<path style="--d:14s;" pathLength="3333" clip-path="url(#z30244c14)" d="M 547 248 L 575 221 L 573 89 L 558 67"/>
<path style="--d:15s;" pathLength="3333" clip-path="url(#z30244c15)" d="M 455 19 L 473 33 L 501 37 L 676 56 L 716 52"/>
</svg>