<svg id="z35861" class="acjk" viewBox="0 0 1024 1024" xmlns="http://www.w3.org/2000/svg">
  <path id="z35861d1" d="M 267 731 Q 297 704 329 672 Q 342 659 360 659 Q 370 659 377 673 Q 381 688 373 719 Q 364 753 263 782 Q 247 786 240 783 Q 234 779 236 766 Q 240 754 267 731 Z"/>
  <path id="z35861d2" d="M 153 494 Q 104 478 77 475 Q 64 475 61 468 Q 57 459 68 452 Q 90 439 106 437 Q 121 433 188 469 Q 227 496 240 485 Q 250 479 244 454 Q 237 271 204 168 Q 188 140 230 88 Q 240 76 250 83 Q 257 90 269 113 Q 303 164 377 251 Q 389 263 386 270 Q 385 277 374 268 Q 337 243 301 212 Q 265 181 270 226 Q 271 290 297 446 Q 301 470 323 492 Q 335 502 325 515 Q 315 531 277 547 Q 265 554 249 543 Q 188 507 153 494 Z"/>
  <path id="z35861d3" d="M 620 725 Q 630 741 641 750 Q 651 760 646 773 Q 642 786 614 808 Q 589 824 570 825 Q 552 824 560 802 Q 573 771 562 746 Q 528 659 473 580 Q 421 502 350 418 Q 340 408 339 402 Q 335 392 349 394 Q 406 403 562 632 Q 577 656 594 682 Q 600 695 607 705 L 620 725 Z"/>
  <path id="z35861d4" d="M 607 705 Q 767 524 805 512 Q 868 503 952 517 Q 968 518 969 524 Q 972 530 958 535 Q 772 604 696 663 Q 675 679 654 696 Q 635 714 620 725 C 596 743 587 727 607 705 Z"/>
  <path id="z35861d5" d="M 518 527 Q 484 520 510 505 Q 543 490 609 505 Q 640 514 676 522 Q 694 528 697 530 Q 704 537 700 546 Q 693 556 665 560 Q 641 563 573 538 Q 546 531 518 527 Z"/>
  <path id="z35861d6" d="M 440 211 Q 441 253 445 283 L 448 310 Q 451 355 455 376 C 457 390 457 390 446 399 Q 431 414 407 414 Q 397 411 400 402 Q 436 318 394 145 Q 373 94 375 88 Q 375 64 388 47 Q 392 37 401 41 Q 437 66 437 179 Q 437 183 438 186 L 440 211 Z"/>
  <path id="z35861d7" d="M 455 376 Q 464 379 522 398 Q 535 404 540 397 Q 559 349 550 106 Q 549 84 542 75 Q 539 72 483 80 Q 468 84 469 76 Q 512 45 538 18 Q 548 5 560 1 Q 567 -2 573 6 Q 601 40 600 84 Q 578 354 596 388 Q 605 403 595 410 Q 579 423 552 433 Q 534 440 499 416 Q 456 403 446 399 C 418 389 427 367 455 376 Z"/>
  <path id="z35861d8" d="M 445 283 Q 487 289 516 296 Q 532 300 525 310 Q 516 320 496 322 Q 477 322 448 310 C 420 299 415 279 445 283 Z"/>
  <path id="z35861d9" d="M 438 186 Q 484 195 519 201 Q 537 205 529 214 Q 520 224 500 227 Q 469 230 440 211 C 415 195 409 180 438 186 Z"/>
  <path id="z35861d10" d="M 637 381 Q 656 344 644 228 Q 641 206 659 182 Q 666 175 673 183 Q 683 204 685 283 Q 685 337 689 360 Q 693 376 679 384 Q 667 391 656 397 Q 647 400 640 396 Q 634 392 637 381 Z"/>
  <path id="z35861d11" d="M 757 420 Q 760 398 765 68 Q 765 53 757 48 Q 751 45 687 53 Q 656 62 659 53 Q 660 46 680 34 Q 740 -9 756 -35 Q 774 -65 788 -65 Q 801 -65 814 -33 Q 829 9 825 76 Q 794 335 821 446 Q 836 474 784 493 Q 753 509 735 503 Q 719 496 734 476 Q 755 451 757 420 Z"/>
<defs>
  <clipPath id="z35861c1"><use href="#z35861d1"/></clipPath>
  <clipPath id="z35861c2"><use href="#z35861d2"/></clipPath>
  <clipPath id="z35861c3"><use href="#z35861d3"/></clipPath>
  <clipPath id="z35861c4"><use href="#z35861d4"/></clipPath>
  <clipPath id="z35861c5"><use href="#z35861d5"/></clipPath>
  <clipPath id="z35861c6"><use href="#z35861d6"/></clipPath>
  <clipPath id="z35861c7"><use href="#z35861d7"/></clipPath>
  <clipPath id="z35861c8"><use href="#z35861d8"/></clipPath>
  <clipPath id="z35861c9"><use href="#z35861d9"/></clipPath>
  <clipPath id="z35861c10"><use href="#z35861d10"/></clipPath>
  <clipPath id="z35861c11"><use href="#z35861d11"/></clipPath>
</defs>
<path style="--d:1s;" pathLength="3333" clip-path="url(#z35861c1)" d="M 246 775 L 336 714 L 358 679"/>
<path style="--d:2s;" pathLength="3333" clip-path="url(#z35861c2)" d="M 71 463 L 121 461 L 234 511 L 270 509 L 278 501 L 245 230 L 243 189 L 251 164 L 285 175 L 380 266"/>
<path style="--d:3s;" pathLength="3333" clip-path="url(#z35861c3)" d="M 570 811 L 593 789 L 604 767 L 568 690 L 522 611 L 456 518 L 386 435 L 347 402"/>
<path style="--d:4s;" pathLength="3333" clip-path="url(#z35861c4)" d="M 622 717 L 627 701 L 642 684 L 693 638 L 808 554 L 894 533 L 961 527"/>
<path style="--d:5s;" pathLength="3333" clip-path="url(#z35861c5)" d="M 511 517 L 551 514 L 641 537 L 689 540"/>
<path style="--d:6s;" pathLength="3333" clip-path="url(#z35861c6)" d="M 413 402 L 429 386 L 434 320 L 420 167 L 401 89 L 398 52"/>
<path style="--d:7s;" pathLength="3333" clip-path="url(#z35861c7)" d="M 456 383 L 463 392 L 508 404 L 528 416 L 551 413 L 569 395 L 576 95 L 570 65 L 556 45 L 510 61 L 495 73 L 477 73"/>
<path style="--d:8s;" pathLength="3333" clip-path="url(#z35861c8)" d="M 452 289 L 472 303 L 518 305"/>
<path style="--d:9s;" pathLength="3333" clip-path="url(#z35861c9)" d="M 445 192 L 453 204 L 480 211 L 522 209"/>
<path style="--d:10s;" pathLength="3333" clip-path="url(#z35861c10)" d="M 647 387 L 667 358 L 665 190"/>
<path style="--d:11s;" pathLength="3333" clip-path="url(#z35861c11)" d="M 742 489 L 767 474 L 787 449 L 785 230 L 795 49 L 779 9 L 665 51"/>
</svg>