<svg id="z39791" class="acjk" viewBox="0 0 1024 1024" xmlns="http://www.w3.org/2000/svg">
  <path id="z39791d1" d="M 474 787 Q 499 817 508 820 Q 515 824 514 833 Q 510 858 477 873 Q 461 880 450 880 Q 443 879 443 868 Q 446 826 373 745 Q 370 744 370 742 Q 348 720 294 678 Q 287 674 295 671 Q 350 671 458 770 L 474 787 Z"/>
  <path id="z39791d2" d="M 543 669 Q 607 741 650 766 Q 666 776 656 788 Q 643 800 610 820 Q 598 826 537 803 Q 513 799 474 787 C 445 778 441 777 458 770 Q 473 758 551 773 Q 558 774 561 772 Q 564 769 559 761 Q 528 697 506 663 C 490 638 523 647 543 669 Z"/>
  <path id="z39791d3" d="M 320 631 Q 307 634 289 634 Q 277 635 275 630 Q 271 623 280 609 Q 314 560 343 474 Q 350 449 367 433 Q 386 414 390 430 Q 390 434 390 437 L 389 458 Q 388 471 382 488 Q 357 567 348 598 C 340 627 339 627 320 631 Z"/>
  <path id="z39791d4" d="M 635 460 Q 639 444 652 444 Q 676 447 716 530 Q 737 581 776 606 Q 795 621 781 637 Q 765 656 718 687 Q 703 697 627 682 Q 608 682 543 669 L 506 663 Q 467 659 432 650 Q 368 637 320 631 C 290 627 319 589 348 598 Q 396 614 478 629 L 514 635 Q 658 663 685 649 Q 692 643 685 616 Q 654 516 641 496 Q 638 492 637 488 C 628 470 628 470 635 460 Z"/>
  <path id="z39791d5" d="M 532 541 Q 574 548 612 552 Q 631 555 625 566 Q 616 578 595 582 Q 576 586 541 577 Q 537 576 534 575 L 486 563 Q 443 556 406 546 Q 393 543 409 531 Q 419 524 439 526 Q 464 530 488 534 L 532 541 Z"/>
  <path id="z39791d6" d="M 528 480 Q 529 513 532 541 L 534 575 Q 534 579 535 582 Q 535 619 522 629 Q 518 633 514 635 C 489 651 470 658 478 629 Q 482 620 486 563 L 488 534 Q 488 510 490 474 C 492 444 527 450 528 480 Z"/>
  <path id="z39791d7" d="M 390 437 Q 400 434 419 436 Q 542 452 635 460 C 665 463 665 477 637 488 Q 634 489 630 491 Q 611 495 528 480 L 490 474 Q 438 467 389 458 C 359 453 360 442 390 437 Z"/>
  <path id="z39791d8" d="M 207 405 Q 183 365 154 328 Q 130 295 146 262 Q 152 243 174 254 Q 222 287 227 345 Q 234 378 230 403 Q 226 412 220 413 Q 211 413 207 405 Z"/>
  <path id="z39791d9" d="M 359 358 Q 387 310 416 298 Q 429 294 439 305 Q 446 315 445 332 Q 438 369 390 386 Q 360 398 350 395 Q 344 395 345 383 Q 346 373 359 358 Z"/>
  <path id="z39791d10" d="M 538 393 Q 577 344 603 330 Q 616 326 624 337 Q 630 347 628 361 Q 619 397 552 423 L 551 424 Q 538 428 529 427 Q 525 426 526 416 Q 526 406 538 393 Z"/>
  <path id="z39791d11" d="M 739 417 Q 782 381 835 328 Q 853 309 869 305 Q 878 304 885 315 Q 897 328 881 373 Q 868 415 803 433 Q 761 445 738 449 Q 728 453 727 441 Q 727 428 739 417 Z"/>
  <path id="z39791d12" d="M 379 251 Q 363 263 343 268 Q 334 269 329 261 Q 326 257 334 247 Q 367 175 344 47 Q 334 37 342 3 Q 351 -27 362 -37 Q 372 -49 381 -36 Q 387 -29 390 -17 L 396 12 Q 399 27 399 113 L 398 138 Q 398 199 400 219 C 401 236 401 236 379 251 Z"/>
  <path id="z39791d13" d="M 580 -4 Q 605 -38 622 -71 Q 629 -89 641 -88 Q 656 -88 672 -57 Q 691 -21 689 23 Q 685 77 683 176 Q 682 207 699 227 Q 709 240 700 249 Q 682 268 633 294 Q 617 303 601 295 Q 502 258 379 251 C 349 249 370 216 400 219 Q 433 222 581 246 Q 606 250 619 239 Q 635 226 626 80 Q 625 40 621 28 Q 617 13 604 17 C 577 4 575 3 580 -4 Z"/>
  <path id="z39791d14" d="M 399 113 Q 406 113 415 113 Q 497 122 558 126 Q 580 127 572 141 Q 563 154 540 161 Q 515 167 398 138 C 369 131 369 113 399 113 Z"/>
  <path id="z39791d15" d="M 390 -17 Q 394 -17 400 -17 Q 458 -7 580 -4 C 610 -3 624 -3 604 17 Q 598 24 586 32 Q 568 41 482 24 Q 436 17 396 12 C 366 8 360 -17 390 -17 Z"/>
<defs>
  <clipPath id="z39791c1"><use href="#z39791d1"/></clipPath>
  <clipPath id="z39791c2"><use href="#z39791d2"/></clipPath>
  <clipPath id="z39791c3"><use href="#z39791d3"/></clipPath>
  <clipPath id="z39791c4"><use href="#z39791d4"/></clipPath>
  <clipPath id="z39791c5"><use href="#z39791d5"/></clipPath>
  <clipPath id="z39791c6"><use href="#z39791d6"/></clipPath>
  <clipPath id="z39791c7"><use href="#z39791d7"/></clipPath>
  <clipPath id="z39791c8"><use href="#z39791d8"/></clipPath>
  <clipPath id="z39791c9"><use href="#z39791d9"/></clipPath>
  <clipPath id="z39791c10"><use href="#z39791d10"/></clipPath>
  <clipPath id="z39791c11"><use href="#z39791d11"/></clipPath>
  <clipPath id="z39791c12"><use href="#z39791d12"/></clipPath>
  <clipPath id="z39791c13"><use href="#z39791d13"/></clipPath>
  <clipPath id="z39791c14"><use href="#z39791d14"/></clipPath>
  <clipPath id="z39791c15"><use href="#z39791d15"/></clipPath>
</defs>
<path style="--d:1s;" pathLength="3333" clip-path="url(#z39791c1)" d="M 455 869 L 473 836 L 434 779 L 376 723 L 299 675"/>
<path style="--d:2s;" pathLength="3333" clip-path="url(#z39791c2)" d="M 464 773 L 536 784 L 553 792 L 575 792 L 600 780 L 539 686 L 512 667"/>
<path style="--d:3s;" pathLength="3333" clip-path="url(#z39791c3)" d="M 284 625 L 308 610 L 326 582 L 379 434"/>
<path style="--d:4s;" pathLength="3333" clip-path="url(#z39791c4)" d="M 327 627 L 360 619 L 500 649 L 642 670 L 681 672 L 705 665 L 731 625 L 651 458"/>
<path style="--d:5s;" pathLength="3333" clip-path="url(#z39791c5)" d="M 414 540 L 577 565 L 616 562"/>
<path style="--d:6s;" pathLength="3333" clip-path="url(#z39791c6)" d="M 484 628 L 507 608 L 510 589 L 508 497 L 495 483"/>
<path style="--d:7s;" pathLength="3333" clip-path="url(#z39791c7)" d="M 397 443 L 455 456 L 613 474 L 630 481"/>
<path style="--d:8s;" pathLength="3333" clip-path="url(#z39791c8)" d="M 218 401 L 199 341 L 162 266"/>
<path style="--d:9s;" pathLength="3333" clip-path="url(#z39791c9)" d="M 355 386 L 407 343 L 423 318"/>
<path style="--d:10s;" pathLength="3333" clip-path="url(#z39791c10)" d="M 534 420 L 588 375 L 609 346"/>
<path style="--d:11s;" pathLength="3333" clip-path="url(#z39791c11)" d="M 738 437 L 833 381 L 855 354 L 869 322"/>
<path style="--d:12s;" pathLength="3333" clip-path="url(#z39791c12)" d="M 340 257 L 364 233 L 373 212 L 377 101 L 367 17 L 371 -32"/>
<path style="--d:13s;" pathLength="3333" clip-path="url(#z39791c13)" d="M 387 249 L 398 240 L 417 237 L 618 271 L 641 258 L 659 237 L 656 37 L 641 -17 L 641 -71"/>
<path style="--d:14s;" pathLength="3333" clip-path="url(#z39791c14)" d="M 403 119 L 415 130 L 495 140 L 541 143 L 563 135"/>
<path style="--d:15s;" pathLength="3333" clip-path="url(#z39791c15)" d="M 395 -10 L 408 -1 L 447 5 L 595 15"/>
</svg>