<svg id="z31431" class="acjk" viewBox="0 0 1024 1024" xmlns="http://www.w3.org/2000/svg">
  <path id="z31431d1" d="M 465 836 Q 492 821 521 803 Q 534 796 547 798 Q 556 801 557 812 Q 558 825 546 847 Q 539 862 510 869 Q 447 879 435 871 Q 432 867 435 857 Q 439 848 465 836 Z"/>
  <path id="z31431d2" d="M 280 746 Q 271 770 260 780 Q 244 793 240 770 Q 246 746 228 725 Q 215 706 194 688 Q 184 678 187 660 Q 190 633 197 618 Q 213 596 227 618 Q 230 624 278 725 C 284 737 284 737 280 746 Z"/>
  <path id="z31431d3" d="M 590 763 Q 704 784 734 775 Q 753 768 750 756 L 736 700 Q 729 687 735 684 Q 742 683 756 693 Q 796 724 830 737 Q 858 747 857 754 Q 854 763 794 804 Q 776 819 709 807 Q 660 801 387 761 Q 335 751 283 747 Q 282 747 280 746 C 250 742 252 740 278 725 Q 303 706 330 714 Q 355 721 384 728 L 407 733 Q 452 748 560 758 L 590 763 Z"/>
  <path id="z31431d4" d="M 384 728 Q 387 718 368 689 Q 349 656 303 617 Q 299 614 298 610 Q 297 606 301 606 Q 340 606 423 688 Q 429 694 426 704 Q 419 723 409 732 Q 408 733 407 733 C 383 751 383 751 384 728 Z"/>
  <path id="z31431d5" d="M 560 758 Q 563 755 572 697 Q 576 642 689 662 Q 713 666 720 673 Q 727 680 721 687 Q 714 694 691 704 Q 679 708 669 699 Q 642 677 609 690 Q 605 693 604 704 Q 603 722 610 733 Q 614 746 605 754 Q 598 760 590 763 C 563 776 552 781 560 758 Z"/>
  <path id="z31431d6" d="M 527 610 Q 551 614 616 621 Q 623 620 629 629 Q 630 638 614 645 Q 589 663 535 644 Q 532 644 532 643 L 486 632 Q 453 628 423 623 Q 396 620 367 616 Q 348 615 362 602 Q 377 590 411 589 Q 445 598 488 603 L 527 610 Z"/>
  <path id="z31431d7" d="M 520 572 Q 523 591 527 610 L 532 643 Q 532 649 534 654 Q 537 664 539 670 Q 542 689 531 699 Q 506 712 489 716 Q 479 719 472 713 Q 466 707 472 697 Q 481 685 486 632 L 488 603 Q 488 587 489 566 C 490 536 515 542 520 572 Z"/>
  <path id="z31431d8" d="M 489 566 Q 425 556 370 545 Q 357 544 372 530 Q 384 521 409 525 Q 529 544 616 554 Q 635 555 628 566 Q 621 578 601 582 Q 576 588 520 572 L 489 566 Z"/>
  <path id="z31431d9" d="M 235 482 Q 232 482 230 482 Q 220 483 216 479 Q 212 473 221 459 Q 246 422 266 359 Q 270 340 284 329 Q 303 311 306 325 Q 307 331 307 338 L 304 362 Q 298 374 284 444 C 278 473 265 482 235 482 Z"/>
  <path id="z31431d10" d="M 712 381 Q 716 369 727 369 Q 742 370 765 404 Q 780 450 813 478 Q 829 491 815 506 Q 799 522 753 545 Q 741 552 665 537 Q 569 531 409 501 Q 304 483 235 482 C 205 481 255 437 284 444 Q 288 444 292 445 Q 335 458 401 469 L 420 473 Q 484 485 568 494 L 603 498 Q 705 514 729 499 Q 733 496 731 480 Q 718 414 712 407 C 705 387 705 387 712 381 Z"/>
  <path id="z31431d11" d="M 452 380 Q 452 413 427 464 Q 424 470 420 473 C 398 493 392 498 401 469 Q 401 468 402 466 L 408 428 Q 411 392 420 376 C 434 349 453 350 452 380 Z"/>
  <path id="z31431d12" d="M 586 399 Q 596 442 622 468 Q 626 474 616 486 Q 609 493 603 498 C 580 518 565 524 568 494 Q 571 482 553 394 C 547 365 579 370 586 399 Z"/>
  <path id="z31431d13" d="M 307 338 Q 326 332 356 336 Q 560 366 712 381 C 742 384 740 397 712 407 Q 708 410 702 411 Q 689 414 586 399 L 553 394 Q 501 388 452 380 L 420 376 Q 359 372 304 362 C 274 357 278 344 307 338 Z"/>
  <path id="z31431d14" d="M 378 305 Q 375 306 372 309 Q 348 324 338 318 Q 334 314 337 305 Q 358 230 344 151 Q 334 109 361 76 Q 368 66 377 76 Q 381 83 384 91 L 387 115 Q 387 121 388 156 L 388 173 Q 388 198 389 216 L 389 233 Q 390 267 391 271 L 391 279 C 391 296 391 296 378 305 Z"/>
  <path id="z31431d15" d="M 622 113 Q 623 109 627 103 Q 637 78 646 79 Q 659 80 673 107 Q 683 125 684 165 Q 677 261 695 287 Q 704 300 698 310 Q 674 331 633 350 Q 620 354 599 348 Q 527 320 378 305 C 348 302 362 271 391 279 Q 436 294 580 314 Q 607 318 616 305 Q 623 295 624 260 Q 627 161 622 142 Q 621 141 621 140 C 618 122 618 122 622 113 Z"/>
  <path id="z31431d16" d="M 389 216 Q 392 216 554 239 Q 570 240 565 251 Q 558 261 539 265 Q 512 268 389 233 C 360 225 359 212 389 216 Z"/>
  <path id="z31431d17" d="M 388 156 Q 389 156 553 175 Q 569 176 564 187 Q 557 197 539 201 Q 524 204 388 173 C 359 166 358 153 388 156 Z"/>
  <path id="z31431d18" d="M 384 91 Q 390 90 403 91 Q 527 106 622 113 C 652 115 649 128 621 140 Q 618 141 614 143 Q 599 146 387 115 C 357 111 354 93 384 91 Z"/>
  <path id="z31431d19" d="M 389 61 Q 373 16 231 -62 Q 209 -71 234 -74 Q 307 -78 405 -11 Q 433 8 447 15 Q 460 24 459 33 Q 459 46 437 58 Q 413 73 401 73 Q 394 73 389 61 Z"/>
  <path id="z31431d20" d="M 589 47 Q 638 4 699 -60 Q 715 -79 730 -82 Q 737 -83 745 -73 Q 755 -60 743 -19 Q 734 20 662 49 Q 616 68 589 76 Q 580 80 579 69 Q 579 56 589 47 Z"/>
<defs>
  <clipPath id="z31431c1"><use href="#z31431d1"/></clipPath>
  <clipPath id="z31431c2"><use href="#z31431d2"/></clipPath>
  <clipPath id="z31431c3"><use href="#z31431d3"/></clipPath>
  <clipPath id="z31431c4"><use href="#z31431d4"/></clipPath>
  <clipPath id="z31431c5"><use href="#z31431d5"/></clipPath>
  <clipPath id="z31431c6"><use href="#z31431d6"/></clipPath>
  <clipPath id="z31431c7"><use href="#z31431d7"/></clipPath>
  <clipPath id="z31431c8"><use href="#z31431d8"/></clipPath>
  <clipPath id="z31431c9"><use href="#z31431d9"/></clipPath>
  <clipPath id="z31431c10"><use href="#z31431d10"/></clipPath>
  <clipPath id="z31431c11"><use href="#z31431d11"/></clipPath>
  <clipPath id="z31431c12"><use href="#z31431d12"/></clipPath>
  <clipPath id="z31431c13"><use href="#z31431d13"/></clipPath>
  <clipPath id="z31431c14"><use href="#z31431d14"/></clipPath>
  <clipPath id="z31431c15"><use href="#z31431d15"/></clipPath>
  <clipPath id="z31431c16"><use href="#z31431d16"/></clipPath>
  <clipPath id="z31431c17"><use href="#z31431d17"/></clipPath>
  <clipPath id="z31431c18"><use href="#z31431d18"/></clipPath>
  <clipPath id="z31431c19"><use href="#z31431d19"/></clipPath>
  <clipPath id="z31431c20"><use href="#z31431d20"/></clipPath>
</defs>
<path style="--d:1s;" pathLength="3333" clip-path="url(#z31431c1)" d="M 441 864 L 510 842 L 542 812"/>
<path style="--d:2s;" pathLength="3333" clip-path="url(#z31431c2)" d="M 251 773 L 260 746 L 258 732 L 217 667 L 212 623"/>
<path style="--d:3s;" pathLength="3333" clip-path="url(#z31431c3)" d="M 284 740 L 312 730 L 450 760 L 741 794 L 768 785 L 789 761 L 739 689"/>
<path style="--d:4s;" pathLength="3333" clip-path="url(#z31431c4)" d="M 391 723 L 402 710 L 402 700 L 387 679 L 350 641 L 304 611"/>
<path style="--d:5s;" pathLength="3333" clip-path="url(#z31431c5)" d="M 568 758 L 585 742 L 585 712 L 602 676 L 633 672 L 684 683 L 711 681"/>
<path style="--d:6s;" pathLength="3333" clip-path="url(#z31431c6)" d="M 371 607 L 414 605 L 582 636 L 619 630"/>
<path style="--d:7s;" pathLength="3333" clip-path="url(#z31431c7)" d="M 481 705 L 510 675 L 506 594 L 496 573"/>
<path style="--d:8s;" pathLength="3333" clip-path="url(#z31431c8)" d="M 378 538 L 416 538 L 576 567 L 605 568 L 621 561"/>
<path style="--d:9s;" pathLength="3333" clip-path="url(#z31431c9)" d="M 224 474 L 265 429 L 296 330"/>
<path style="--d:10s;" pathLength="3333" clip-path="url(#z31431c10)" d="M 242 478 L 293 465 L 474 499 L 701 526 L 735 523 L 750 517 L 771 491 L 727 384"/>
<path style="--d:11s;" pathLength="3333" clip-path="url(#z31431c11)" d="M 406 469 L 419 449 L 434 395 L 446 385"/>
<path style="--d:12s;" pathLength="3333" clip-path="url(#z31431c12)" d="M 574 492 L 592 472 L 574 414 L 557 405"/>
<path style="--d:13s;" pathLength="3333" clip-path="url(#z31431c13)" d="M 312 357 L 320 350 L 347 351 L 643 392 L 694 395 L 705 388"/>
<path style="--d:14s;" pathLength="3333" clip-path="url(#z31431c14)" d="M 344 311 L 368 275 L 364 116 L 369 80"/>
<path style="--d:15s;" pathLength="3333" clip-path="url(#z31431c15)" d="M 388 302 L 400 294 L 600 331 L 631 325 L 657 294 L 647 90"/>
<path style="--d:16s;" pathLength="3333" clip-path="url(#z31431c16)" d="M 390 220 L 400 229 L 498 247 L 557 247"/>
<path style="--d:17s;" pathLength="3333" clip-path="url(#z31431c17)" d="M 388 160 L 399 169 L 464 175 L 470 180 L 525 186 L 556 183"/>
<path style="--d:18s;" pathLength="3333" clip-path="url(#z31431c18)" d="M 388 97 L 401 107 L 565 125 L 604 127 L 615 119"/>
<path style="--d:19s;" pathLength="3333" clip-path="url(#z31431c19)" d="M 442 33 L 411 33 L 354 -15 L 300 -45 L 240 -66"/>
<path style="--d:20s;" pathLength="3333" clip-path="url(#z31431c20)" d="M 589 65 L 696 -8 L 717 -35 L 730 -66"/>
</svg>