<svg id="z30174" class="acjk" viewBox="0 0 1024 1024" xmlns="http://www.w3.org/2000/svg">
  <path id="z30174d1" d="M 533 799 Q 558 780 583 756 Q 598 744 614 746 Q 624 747 629 760 Q 633 776 622 805 Q 610 835 526 847 Q 510 850 504 847 Q 500 843 501 830 Q 505 820 533 799 Z"/>
  <path id="z30174d2" d="M 377 637 Q 416 627 492 639 Q 769 690 782 699 Q 792 706 787 716 Q 780 728 750 736 Q 719 743 624 712 Q 473 678 372 669 C 342 666 348 643 377 637 Z"/>
  <path id="z30174d3" d="M 286 382 Q 243 181 93 67 Q 60 45 55 33 Q 52 26 64 26 Q 109 23 195 104 Q 247 153 280 212 Q 311 273 330 359 Q 355 459 370 610 Q 374 626 377 637 C 383 662 383 662 372 669 Q 369 672 365 674 Q 319 702 303 700 Q 282 699 297 675 Q 324 614 292 416 L 286 382 Z"/>
  <path id="z30174d4" d="M 148 574 Q 185 526 213 513 Q 226 509 235 521 Q 242 533 240 548 Q 236 570 220 583 Q 205 595 161 609 Q 146 615 137 611 Q 131 610 133 599 Q 134 589 148 574 Z"/>
  <path id="z30174d5" d="M 292 416 Q 96 332 63 329 Q 48 326 47 316 Q 47 303 57 297 Q 79 284 113 270 Q 123 269 134 278 Q 161 306 286 382 C 312 398 320 428 292 416 Z"/>
  <path id="z30174d6" d="M 627 524 Q 679 536 806 552 Q 816 551 825 563 Q 826 573 804 584 Q 777 605 674 575 Q 622 565 420 531 Q 392 528 414 511 Q 448 487 472 494 Q 518 504 577 515 L 627 524 Z"/>
  <path id="z30174d7" d="M 595 419 Q 637 473 645 479 Q 652 483 652 493 Q 649 511 627 524 C 603 541 583 544 577 515 Q 574 493 558 460 L 543 433 Q 479 343 383 266 Q 359 250 330 226 Q 323 222 331 219 Q 376 219 478 296 Q 499 314 547 362 L 595 419 Z"/>
  <path id="z30174d8" d="M 547 362 Q 546 334 540 304 Q 536 291 543 266 Q 550 241 559 233 Q 572 221 581 241 Q 591 269 591 304 Q 591 382 593 399 Q 596 412 595 419 C 595 433 582 442 558 460 Q 554 464 547 467 Q 540 468 537 464 Q 533 455 536 447 Q 537 438 543 433 C 550 424 548 392 547 362 Z"/>
  <path id="z30174d9" d="M 666 370 Q 739 330 829 267 Q 848 252 863 251 Q 872 252 876 263 Q 885 278 864 315 Q 840 366 660 399 Q 651 402 652 390 Q 653 377 666 370 Z"/>
  <path id="z30174d10" d="M 416 190 Q 410 191 404 192 Q 392 193 389 189 Q 383 182 392 167 Q 422 115 442 29 Q 446 4 463 -13 Q 482 -35 487 -18 Q 488 -9 489 4 L 484 40 Q 465 127 462 154 C 458 183 446 185 416 190 Z"/>
  <path id="z30174d11" d="M 743 63 Q 765 135 797 158 Q 813 176 799 194 Q 724 257 676 227 Q 520 181 416 190 C 386 192 432 151 462 154 Q 471 154 483 157 Q 577 172 668 186 Q 692 190 701 181 Q 711 172 709 154 Q 702 109 693 70 C 686 41 734 34 743 63 Z"/>
  <path id="z30174d12" d="M 489 4 Q 496 3 506 4 Q 585 17 757 24 Q 769 25 770 34 Q 771 43 743 63 L 693 70 Q 692 71 690 70 Q 575 48 484 40 C 454 37 459 6 489 4 Z"/>
<defs>
  <clipPath id="z30174c1"><use href="#z30174d1"/></clipPath>
  <clipPath id="z30174c2"><use href="#z30174d2"/></clipPath>
  <clipPath id="z30174c3"><use href="#z30174d3"/></clipPath>
  <clipPath id="z30174c4"><use href="#z30174d4"/></clipPath>
  <clipPath id="z30174c5"><use href="#z30174d5"/></clipPath>
  <clipPath id="z30174c6"><use href="#z30174d6"/></clipPath>
  <clipPath id="z30174c7"><use href="#z30174d7"/></clipPath>
  <clipPath id="z30174c8"><use href="#z30174d8"/></clipPath>
  <clipPath id="z30174c9"><use href="#z30174d9"/></clipPath>
  <clipPath id="z30174c10"><use href="#z30174d10"/></clipPath>
  <clipPath id="z30174c11"><use href="#z30174d11"/></clipPath>
  <clipPath id="z30174c12"><use href="#z30174d12"/></clipPath>
</defs>
<path style="--d:1s;" pathLength="3333" clip-path="url(#z30174c1)" d="M 509 841 L 587 797 L 611 764"/>
<path style="--d:2s;" pathLength="3333" clip-path="url(#z30174c2)" d="M 379 665 L 393 653 L 447 655 L 556 672 L 729 712 L 776 710"/>
<path style="--d:3s;" pathLength="3333" clip-path="url(#z30174c3)" d="M 302 687 L 319 676 L 340 648 L 340 604 L 322 438 L 288 294 L 248 206 L 186 124 L 117 62 L 62 33"/>
<path style="--d:4s;" pathLength="3333" clip-path="url(#z30174c4)" d="M 144 602 L 203 557 L 219 531"/>
<path style="--d:5s;" pathLength="3333" clip-path="url(#z30174c5)" d="M 62 313 L 114 307 L 269 388 L 279 401"/>
<path style="--d:6s;" pathLength="3333" clip-path="url(#z30174c6)" d="M 415 522 L 463 515 L 729 566 L 780 571 L 815 565"/>
<path style="--d:7s;" pathLength="3333" clip-path="url(#z30174c7)" d="M 634 493 L 620 494 L 605 485 L 544 394 L 458 304 L 397 258 L 335 223"/>
<path style="--d:8s;" pathLength="3333" clip-path="url(#z30174c8)" d="M 544 457 L 570 409 L 564 290 L 568 241"/>
<path style="--d:9s;" pathLength="3333" clip-path="url(#z30174c9)" d="M 664 388 L 806 323 L 843 294 L 861 266"/>
<path style="--d:10s;" pathLength="3333" clip-path="url(#z30174c10)" d="M 398 182 L 437 137 L 475 -13"/>
<path style="--d:11s;" pathLength="3333" clip-path="url(#z30174c11)" d="M 422 186 L 466 171 L 692 209 L 718 206 L 751 174 L 725 92 L 700 75"/>
<path style="--d:12s;" pathLength="3333" clip-path="url(#z30174c12)" d="M 493 11 L 505 24 L 696 46 L 740 43 L 760 35"/>
</svg>