<svg id="z39985" class="acjk" viewBox="0 0 1024 1024" xmlns="http://www.w3.org/2000/svg">
  <path id="z39985d1" d="M 234 629 Q 282 695 289 700 Q 296 709 293 719 Q 290 729 268 748 Q 247 763 232 763 Q 217 762 223 744 Q 236 713 180 624 Q 155 582 118 536 Q 109 529 108 523 Q 105 514 116 517 Q 137 520 222 613 L 234 629 Z"/>
  <path id="z39985d2" d="M 257 465 Q 365 600 394 621 Q 410 631 399 644 Q 386 654 350 673 Q 341 676 263 639 Q 250 633 234 629 C 205 621 204 620 222 613 Q 240 600 299 620 Q 303 621 305 621 Q 309 617 304 605 Q 261 514 234 470 L 226 456 C 211 430 238 442 257 465 Z"/>
  <path id="z39985d3" d="M 140 434 Q 131 438 98 443 Q 88 446 84 441 Q 80 435 87 421 Q 117 366 136 272 Q 140 244 157 226 Q 173 207 178 221 Q 179 227 180 234 L 179 262 Q 178 272 175 283 Q 156 374 149 406 C 143 433 143 433 140 434 Z"/>
  <path id="z39985d4" d="M 306 256 Q 318 240 329 235 Q 338 229 349 246 Q 362 268 384 390 Q 390 415 407 434 Q 417 444 408 455 Q 395 467 362 486 Q 347 492 288 473 Q 282 473 257 465 L 226 456 Q 214 456 140 434 C 111 426 122 393 149 406 Q 153 412 221 429 L 248 436 Q 320 458 335 449 Q 348 439 344 422 Q 326 314 313 285 C 303 259 303 259 306 256 Z"/>
  <path id="z39985d5" d="M 266 344 Q 287 350 308 354 Q 324 358 317 367 Q 308 377 290 378 Q 280 379 267 375 L 230 363 Q 205 353 184 345 Q 172 341 188 332 L 231 336 L 266 344 Z"/>
  <path id="z39985d6" d="M 263 284 Q 264 317 266 344 L 267 375 Q 267 387 269 401 Q 273 419 248 436 C 224 454 211 457 221 429 Q 227 416 230 363 L 231 336 Q 231 311 232 275 C 233 245 262 254 263 284 Z"/>
  <path id="z39985d7" d="M 180 234 Q 205 243 306 256 C 336 260 339 270 313 285 Q 310 286 307 289 Q 294 295 270 287 Q 266 286 263 284 L 232 275 Q 202 269 179 262 C 150 253 151 225 180 234 Z"/>
  <path id="z39985d8" d="M 97 161 Q 79 121 63 80 Q 51 59 59 36 Q 62 23 73 11 Q 80 2 92 5 Q 99 6 105 18 Q 123 67 123 161 Q 120 170 119 174 Q 115 178 110 178 Q 106 177 97 161 Z"/>
  <path id="z39985d9" d="M 164 147 Q 167 96 181 78 Q 188 71 197 74 Q 204 78 210 88 Q 217 127 185 160 Q 184 161 184 162 Q 177 169 171 172 Q 167 173 164 166 Q 161 159 164 147 Z"/>
  <path id="z39985d10" d="M 246 155 Q 261 119 280 100 Q 289 96 297 101 Q 303 108 304 119 Q 304 141 261 175 Q 252 181 246 181 Q 242 181 241 173 Q 240 166 246 155 Z"/>
  <path id="z39985d11" d="M 321 185 Q 348 128 365 122 Q 375 118 383 130 Q 387 140 384 157 Q 380 170 364 181 Q 342 200 330 205 Q 323 208 320 199 Q 317 193 321 185 Z"/>
  <path id="z39985d12" d="M 742 577 Q 782 590 824 601 Q 852 610 857 614 Q 864 621 860 629 Q 853 639 825 644 Q 798 648 744 624 L 693 607 Q 659 598 618 591 Q 585 582 610 569 Q 646 551 694 564 L 742 577 Z"/>
  <path id="z39985d13" d="M 596 476 Q 587 480 564 483 Q 555 486 552 481 Q 548 477 554 464 Q 581 412 597 327 Q 600 302 615 285 Q 630 269 633 280 Q 634 284 635 290 L 634 317 Q 633 327 631 337 Q 615 416 609 446 Q 608 447 610 447 C 610 471 610 471 596 476 Z"/>
  <path id="z39985d14" d="M 795 317 Q 808 298 821 290 Q 830 284 842 301 Q 854 320 879 425 Q 886 450 905 472 Q 915 482 906 494 Q 893 507 857 530 Q 842 536 773 517 Q 763 517 741 510 L 694 499 Q 691 499 596 476 C 567 469 582 437 610 447 Q 643 459 694 470 L 741 481 Q 811 499 828 488 Q 840 481 836 465 Q 815 354 805 343 C 794 319 794 319 795 317 Z"/>
  <path id="z39985d15" d="M 741 399 Q 762 403 782 407 Q 801 411 793 422 Q 783 434 762 436 Q 752 437 741 434 L 696 420 Q 671 411 649 403 Q 636 399 653 387 Q 656 387 696 390 L 741 399 Z"/>
  <path id="z39985d16" d="M 742 309 Q 766 313 795 317 C 825 321 831 329 805 343 Q 781 358 741 343 L 695 330 Q 662 323 634 317 C 605 311 605 288 635 290 Q 639 290 646 291 Q 665 297 694 301 L 742 309 Z"/>
  <path id="z39985d17" d="M 741 198 Q 822 210 909 211 Q 925 212 928 219 Q 931 228 918 237 Q 870 267 819 249 Q 785 243 742 231 L 693 221 Q 632 211 560 197 Q 545 196 557 183 Q 567 173 582 169 Q 598 166 610 170 Q 650 183 694 190 L 741 198 Z"/>
  <path id="z39985d18" d="M 694 190 Q 694 96 710 71 Q 722 58 730 76 Q 737 100 741 198 L 742 231 Q 742 265 742 309 L 741 343 L 741 381 Q 741 391 741 399 L 741 434 Q 741 459 741 481 L 741 510 Q 741 547 742 577 L 744 624 Q 744 685 761 714 Q 767 727 749 741 Q 728 757 691 767 Q 675 771 664 759 Q 655 752 666 742 Q 690 723 692 694 Q 692 658 693 607 L 694 564 Q 694 534 694 499 L 694 470 Q 695 448 696 423 Q 696 422 696 420 L 696 390 Q 695 359 695 330 L 694 301 Q 694 262 693 221 L 694 190 Z"/>
  <path id="z39985d19" d="M 437 496 Q 453 477 472 452 Q 482 440 495 439 Q 504 439 509 449 Q 515 461 511 485 Q 507 507 438 536 Q 425 540 420 539 Q 416 536 415 525 Q 416 516 437 496 Z"/>
  <path id="z39985d20" d="M 516 99 Q 529 108 532 124 Q 536 157 498 201 Q 480 225 511 271 Q 511 280 546 312 Q 564 327 549 340 Q 533 353 506 366 Q 488 378 459 354 Q 411 324 392 326 Q 386 327 385 323 Q 384 319 390 315 Q 420 302 465 321 Q 472 324 478 317 Q 493 299 475 276 Q 462 260 451 236 Q 448 223 483 162 Q 502 117 501 103 Q 500 103 500 102 C 500 84 500 84 516 99 Z"/>
  <path id="z39985d21" d="M 500 102 Q 484 106 458 104 Q 437 100 418 104 Q 405 107 403 101 Q 399 92 411 81 Q 423 69 474 72 Q 511 76 537 64 Q 645 21 774 -32 Q 805 -48 847 -28 Q 902 -4 953 18 Q 971 25 969 34 Q 969 43 925 39 Q 774 35 738 39 Q 723 42 526 97 Q 522 98 516 99 L 500 102 Z"/>
<defs>
  <clipPath id="z39985c1"><use href="#z39985d1"/></clipPath>
  <clipPath id="z39985c2"><use href="#z39985d2"/></clipPath>
  <clipPath id="z39985c3"><use href="#z39985d3"/></clipPath>
  <clipPath id="z39985c4"><use href="#z39985d4"/></clipPath>
  <clipPath id="z39985c5"><use href="#z39985d5"/></clipPath>
  <clipPath id="z39985c6"><use href="#z39985d6"/></clipPath>
  <clipPath id="z39985c7"><use href="#z39985d7"/></clipPath>
  <clipPath id="z39985c8"><use href="#z39985d8"/></clipPath>
  <clipPath id="z39985c9"><use href="#z39985d9"/></clipPath>
  <clipPath id="z39985c10"><use href="#z39985d10"/></clipPath>
  <clipPath id="z39985c11"><use href="#z39985d11"/></clipPath>
  <clipPath id="z39985c12"><use href="#z39985d12"/></clipPath>
  <clipPath id="z39985c13"><use href="#z39985d13"/></clipPath>
  <clipPath id="z39985c14"><use href="#z39985d14"/></clipPath>
  <clipPath id="z39985c15"><use href="#z39985d15"/></clipPath>
  <clipPath id="z39985c16"><use href="#z39985d16"/></clipPath>
  <clipPath id="z39985c17"><use href="#z39985d17"/></clipPath>
  <clipPath id="z39985c18"><use href="#z39985d18"/></clipPath>
  <clipPath id="z39985c19"><use href="#z39985d19"/></clipPath>
  <clipPath id="z39985c20"><use href="#z39985d20"/></clipPath>
  <clipPath id="z39985c21"><use href="#z39985d21"/></clipPath>
</defs>
<path style="--d:1s;" pathLength="3333" clip-path="url(#z39985c1)" d="M 232 751 L 255 721 L 245 689 L 200 615 L 146 551 L 115 524"/>
<path style="--d:2s;" pathLength="3333" clip-path="url(#z39985c2)" d="M 228 615 L 304 640 L 325 639 L 344 629 L 326 588 L 258 481 L 231 458"/>
<path style="--d:3s;" pathLength="3333" clip-path="url(#z39985c3)" d="M 92 436 L 123 405 L 168 226"/>
<path style="--d:4s;" pathLength="3333" clip-path="url(#z39985c4)" d="M 147 413 L 158 427 L 256 449 L 302 466 L 354 464 L 374 442 L 331 262 L 334 249"/>
<path style="--d:5s;" pathLength="3333" clip-path="url(#z39985c5)" d="M 192 340 L 276 363 L 307 364"/>
<path style="--d:6s;" pathLength="3333" clip-path="url(#z39985c6)" d="M 229 428 L 248 406 L 247 297 L 235 284"/>
<path style="--d:7s;" pathLength="3333" clip-path="url(#z39985c7)" d="M 182 241 L 193 252 L 290 271 L 305 279"/>
<path style="--d:8s;" pathLength="3333" clip-path="url(#z39985c8)" d="M 112 170 L 85 56 L 87 21"/>
<path style="--d:9s;" pathLength="3333" clip-path="url(#z39985c9)" d="M 171 165 L 185 131 L 192 87"/>
<path style="--d:10s;" pathLength="3333" clip-path="url(#z39985c10)" d="M 248 174 L 289 111"/>
<path style="--d:11s;" pathLength="3333" clip-path="url(#z39985c11)" d="M 330 194 L 358 161 L 370 136"/>
<path style="--d:12s;" pathLength="3333" clip-path="url(#z39985c12)" d="M 612 581 L 669 579 L 802 620 L 849 623"/>
<path style="--d:13s;" pathLength="3333" clip-path="url(#z39985c13)" d="M 559 476 L 581 458 L 587 444 L 625 285"/>
<path style="--d:14s;" pathLength="3333" clip-path="url(#z39985c14)" d="M 609 476 L 623 467 L 807 510 L 849 505 L 869 481 L 824 320 L 826 305"/>
<path style="--d:15s;" pathLength="3333" clip-path="url(#z39985c15)" d="M 652 395 L 738 417 L 785 416"/>
<path style="--d:16s;" pathLength="3333" clip-path="url(#z39985c16)" d="M 640 297 L 659 309 L 797 339"/>
<path style="--d:17s;" pathLength="3333" clip-path="url(#z39985c17)" d="M 569 188 L 600 186 L 844 232 L 878 232 L 919 223"/>
<path style="--d:18s;" pathLength="3333" clip-path="url(#z39985c18)" d="M 670 751 L 694 745 L 723 717 L 717 492 L 719 76"/>
<path style="--d:19s;" pathLength="3333" clip-path="url(#z39985c19)" d="M 423 530 L 485 479 L 495 454"/>
<path style="--d:20s;" pathLength="3333" clip-path="url(#z39985c20)" d="M 390 321 L 410 319 L 457 337 L 492 342 L 511 325 L 493 270 L 472 231 L 481 196 L 500 170 L 515 130 L 514 113 L 507 108"/>
<path style="--d:21s;" pathLength="3333" clip-path="url(#z39985c21)" d="M 412 96 L 429 87 L 492 89 L 537 82 L 712 19 L 799 -1 L 962 32"/>
</svg>