<svg id="z40478" class="acjk" viewBox="0 0 1024 1024" xmlns="http://www.w3.org/2000/svg">
  <path id="z40478d1" d="M 469 843 Q 517 798 538 800 Q 548 800 551 815 Q 551 825 541 840 Q 526 858 469 865 Q 462 865 462 856 Q 462 849 469 843 Z"/>
  <path id="z40478d2" d="M 429 756 Q 402 752 422 739 Q 452 721 495 734 Q 544 744 597 757 Q 619 764 624 767 Q 630 773 627 779 Q 621 788 599 793 Q 577 796 554 787 Q 527 777 499 769 Q 466 762 429 756 Z"/>
  <path id="z40478d3" d="M 451 691 Q 426 684 445 674 Q 476 664 567 687 Q 579 691 581 692 Q 587 699 583 704 Q 577 711 556 715 Q 544 716 487 698 Q 471 694 451 691 Z"/>
  <path id="z40478d4" d="M 455 635 Q 430 628 449 618 Q 482 606 568 631 Q 578 635 581 636 Q 587 643 583 648 Q 577 655 556 659 Q 544 659 488 641 Q 473 637 455 635 Z"/>
  <path id="z40478d5" d="M 463 579 Q 456 583 430 587 Q 423 588 420 585 Q 416 581 422 570 Q 440 539 452 489 Q 455 473 465 464 Q 477 449 480 460 Q 481 466 482 474 L 479 499 Q 470 544 468 559 C 465 578 465 578 463 579 Z"/>
  <path id="z40478d6" d="M 588 513 Q 601 547 613 558 Q 631 576 614 587 Q 601 596 581 609 Q 568 616 553 609 Q 534 599 510 591 Q 489 585 463 579 C 434 572 439 551 468 559 Q 480 563 536 573 Q 554 577 558 569 Q 561 566 557 549 Q 553 534 549 517 C 542 488 577 485 588 513 Z"/>
  <path id="z40478d7" d="M 482 474 Q 485 478 595 490 Q 602 491 604 497 Q 604 503 588 513 L 549 517 L 548 517 Q 509 507 479 499 C 450 491 454 463 482 474 Z"/>
  <path id="z40478d8" d="M 315 668 Q 281 669 254 669 Q 232 669 244 682 Q 280 728 314 763 Q 324 775 324 781 Q 323 791 296 816 Q 286 826 271 824 Q 264 823 267 811 Q 276 787 226 708 Q 216 692 196 676 Q 183 666 183 657 Q 184 644 195 630 Q 202 621 212 626 Q 228 636 287 648 Q 291 649 298 648 C 328 647 345 667 315 668 Z"/>
  <path id="z40478d9" d="M 363 605 Q 326 598 282 582 Q 272 578 278 587 Q 353 677 398 710 Q 407 716 403 723 Q 397 736 375 751 Q 365 758 358 757 Q 351 756 352 744 Q 352 723 315 668 L 298 648 Q 238 578 225 571 Q 216 565 218 556 Q 219 547 236 534 Q 243 525 253 534 Q 295 567 367 593 L 369 593 C 398 602 392 611 363 605 Z"/>
  <path id="z40478d10" d="M 369 593 Q 375 574 394 565 Q 403 562 411 573 Q 414 582 411 597 Q 405 625 361 644 Q 355 647 352 640 Q 348 633 363 605 L 369 593 Z"/>
  <path id="z40478d11" d="M 187 451 Q 211 387 222 381 Q 229 378 238 385 Q 245 394 250 418 Q 251 443 199 486 Q 190 493 185 494 Q 181 493 176 484 Q 175 474 187 451 Z"/>
  <path id="z40478d12" d="M 272 495 Q 290 446 307 438 Q 314 434 323 445 Q 327 454 325 469 Q 319 493 281 512 Q 275 515 272 508 Q 269 502 272 495 Z"/>
  <path id="z40478d13" d="M 343 516 Q 364 474 378 472 Q 388 471 394 482 Q 395 489 392 505 Q 382 526 349 533 Q 342 536 341 528 Q 340 522 343 516 Z"/>
  <path id="z40478d14" d="M 722 700 Q 689 700 661 702 Q 642 703 652 714 Q 686 757 717 788 Q 727 798 726 803 Q 725 813 701 835 Q 691 844 679 843 Q 672 842 675 831 Q 684 809 637 738 Q 628 723 610 710 Q 597 701 598 693 Q 599 681 608 669 Q 615 662 623 665 Q 656 683 706 684 C 736 685 752 700 722 700 Z"/>
  <path id="z40478d15" d="M 780 640 Q 737 636 688 622 Q 676 619 684 628 Q 780 725 820 749 Q 829 755 826 762 Q 820 775 800 792 Q 790 799 783 799 Q 776 798 776 787 Q 773 757 728 706 Q 725 705 722 700 L 706 684 Q 622 606 621 604 Q 620 604 621 602 Q 622 593 637 578 Q 644 569 655 576 Q 716 612 787 628 C 816 635 810 643 780 640 Z"/>
  <path id="z40478d16" d="M 787 628 Q 803 604 814 601 Q 824 598 830 609 Q 833 618 830 633 Q 821 657 777 677 Q 771 680 768 672 Q 768 671 780 640 L 787 628 Z"/>
  <path id="z40478d17" d="M 647 523 Q 665 474 679 467 Q 686 463 695 473 Q 699 480 698 496 Q 692 518 657 540 Q 651 543 648 536 Q 645 532 647 523 Z"/>
  <path id="z40478d18" d="M 713 547 Q 737 495 750 490 Q 759 486 767 497 Q 770 506 768 521 Q 759 545 721 564 Q 715 567 712 560 Q 709 554 713 547 Z"/>
  <path id="z40478d19" d="M 788 542 Q 806 521 823 497 Q 830 487 841 485 Q 848 485 854 493 Q 858 502 856 523 Q 853 545 791 575 Q 781 579 776 578 Q 772 577 772 567 Q 773 560 788 542 Z"/>
  <path id="z40478d20" d="M 415 409 Q 439 431 454 442 Q 464 446 460 452 Q 456 461 442 469 Q 429 476 417 476 Q 408 475 411 463 Q 414 454 394 411 C 381 384 393 389 415 409 Z"/>
  <path id="z40478d21" d="M 408 227 Q 408 249 410 266 L 411 285 Q 412 307 415 324 L 417 346 Q 418 362 423 375 Q 424 379 424 381 C 434 421 422 402 394 411 Q 370 420 361 414 Q 354 408 361 397 Q 382 367 371 213 Q 368 201 343 169 Q 334 156 342 145 Q 352 135 371 122 Q 381 115 396 126 C 408 133 408 163 408 193 Q 408 200 408 206 L 408 227 Z"/>
  <path id="z40478d22" d="M 611 296 Q 626 281 627 281 Q 637 282 644 294 Q 650 298 663 323 Q 676 365 705 388 Q 721 401 708 414 Q 693 427 653 448 Q 638 458 583 442 Q 570 442 415 409 C 386 403 395 372 424 381 Q 478 399 598 415 Q 620 416 628 413 Q 632 410 630 394 Q 620 331 611 314 C 606 301 606 301 611 296 Z"/>
  <path id="z40478d23" d="M 415 324 Q 418 324 423 324 Q 510 340 573 349 Q 592 352 585 362 Q 576 374 557 377 Q 536 380 417 346 C 388 338 385 324 415 324 Z"/>
  <path id="z40478d24" d="M 410 266 Q 420 265 431 267 Q 533 285 611 296 C 634 299 634 299 611 314 Q 607 318 597 320 Q 581 323 554 316 Q 478 300 411 285 C 382 278 380 267 410 266 Z"/>
  <path id="z40478d25" d="M 408 206 Q 415 205 426 206 Q 525 221 597 230 Q 615 231 608 242 Q 601 254 581 258 Q 566 261 408 227 C 379 221 378 208 408 206 Z"/>
  <path id="z40478d26" d="M 396 126 Q 498 171 725 174 Q 753 175 762 164 Q 772 154 768 135 Q 750 32 730 17 Q 724 14 655 26 Q 640 33 639 26 Q 638 17 655 4 Q 682 -27 692 -54 Q 699 -75 717 -66 Q 762 -48 787 11 Q 830 134 847 144 Q 862 157 856 168 Q 846 181 803 206 Q 778 221 706 208 Q 561 199 436 179 Q 405 172 408 193 C 389 216 368 115 396 126 Z"/>
  <path id="z40478d27" d="M 261 138 Q 245 92 219 48 Q 206 17 221 -13 Q 228 -29 247 -16 Q 290 21 288 87 Q 291 117 283 139 Q 279 146 272 147 Q 265 146 261 138 Z"/>
  <path id="z40478d28" d="M 367 84 Q 389 18 408 11 Q 418 7 428 19 Q 432 29 431 47 Q 425 77 379 103 Q 372 107 368 99 Q 364 93 367 84 Z"/>
  <path id="z40478d29" d="M 481 101 Q 512 38 533 29 Q 543 26 551 39 Q 555 48 551 65 Q 542 95 490 121 Q 483 124 480 115 Q 479 109 481 101 Z"/>
  <path id="z40478d30" d="M 603 99 Q 648 54 654 52 Q 661 52 666 61 Q 670 71 666 91 Q 662 112 603 132 Q 593 136 588 134 Q 584 133 584 123 Q 585 116 603 99 Z"/>
<defs>
  <clipPath id="z40478c1"><use href="#z40478d1"/></clipPath>
  <clipPath id="z40478c2"><use href="#z40478d2"/></clipPath>
  <clipPath id="z40478c3"><use href="#z40478d3"/></clipPath>
  <clipPath id="z40478c4"><use href="#z40478d4"/></clipPath>
  <clipPath id="z40478c5"><use href="#z40478d5"/></clipPath>
  <clipPath id="z40478c6"><use href="#z40478d6"/></clipPath>
  <clipPath id="z40478c7"><use href="#z40478d7"/></clipPath>
  <clipPath id="z40478c8"><use href="#z40478d8"/></clipPath>
  <clipPath id="z40478c9"><use href="#z40478d9"/></clipPath>
  <clipPath id="z40478c10"><use href="#z40478d10"/></clipPath>
  <clipPath id="z40478c11"><use href="#z40478d11"/></clipPath>
  <clipPath id="z40478c12"><use href="#z40478d12"/></clipPath>
  <clipPath id="z40478c13"><use href="#z40478d13"/></clipPath>
  <clipPath id="z40478c14"><use href="#z40478d14"/></clipPath>
  <clipPath id="z40478c15"><use href="#z40478d15"/></clipPath>
  <clipPath id="z40478c16"><use href="#z40478d16"/></clipPath>
  <clipPath id="z40478c17"><use href="#z40478d17"/></clipPath>
  <clipPath id="z40478c18"><use href="#z40478d18"/></clipPath>
  <clipPath id="z40478c19"><use href="#z40478d19"/></clipPath>
  <clipPath id="z40478c20"><use href="#z40478d20"/></clipPath>
  <clipPath id="z40478c21"><use href="#z40478d21"/></clipPath>
  <clipPath id="z40478c22"><use href="#z40478d22"/></clipPath>
  <clipPath id="z40478c23"><use href="#z40478d23"/></clipPath>
  <clipPath id="z40478c24"><use href="#z40478d24"/></clipPath>
  <clipPath id="z40478c25"><use href="#z40478d25"/></clipPath>
  <clipPath id="z40478c26"><use href="#z40478d26"/></clipPath>
  <clipPath id="z40478c27"><use href="#z40478d27"/></clipPath>
  <clipPath id="z40478c28"><use href="#z40478d28"/></clipPath>
  <clipPath id="z40478c29"><use href="#z40478d29"/></clipPath>
  <clipPath id="z40478c30"><use href="#z40478d30"/></clipPath>
</defs>
<path style="--d:1s;" pathLength="3333" clip-path="url(#z40478c1)" d="M 474 854 L 509 837 L 536 815"/>
<path style="--d:2s;" pathLength="3333" clip-path="url(#z40478c2)" d="M 423 748 L 468 746 L 579 774 L 616 775"/>
<path style="--d:3s;" pathLength="3333" clip-path="url(#z40478c3)" d="M 446 683 L 573 699"/>
<path style="--d:4s;" pathLength="3333" clip-path="url(#z40478c4)" d="M 450 627 L 486 627 L 561 645 L 573 643"/>
<path style="--d:5s;" pathLength="3333" clip-path="url(#z40478c5)" d="M 427 578 L 449 559 L 474 468"/>
<path style="--d:6s;" pathLength="3333" clip-path="url(#z40478c6)" d="M 470 565 L 484 574 L 553 591 L 575 586 L 587 571 L 584 559 L 575 535 L 556 521"/>
<path style="--d:7s;" pathLength="3333" clip-path="url(#z40478c7)" d="M 486 482 L 501 492 L 544 501 L 597 497"/>
<path style="--d:8s;" pathLength="3333" clip-path="url(#z40478c8)" d="M 277 815 L 290 795 L 292 780 L 225 681 L 217 658 L 253 653 L 296 658 L 307 666"/>
<path style="--d:9s;" pathLength="3333" clip-path="url(#z40478c9)" d="M 361 748 L 370 732 L 370 718 L 326 659 L 270 599 L 261 583 L 261 569 L 285 569 L 358 597"/>
<path style="--d:10s;" pathLength="3333" clip-path="url(#z40478c10)" d="M 359 636 L 398 579"/>
<path style="--d:11s;" pathLength="3333" clip-path="url(#z40478c11)" d="M 185 485 L 225 423 L 226 391"/>
<path style="--d:12s;" pathLength="3333" clip-path="url(#z40478c12)" d="M 280 502 L 301 475 L 311 450"/>
<path style="--d:13s;" pathLength="3333" clip-path="url(#z40478c13)" d="M 350 523 L 374 500 L 380 485"/>
<path style="--d:14s;" pathLength="3333" clip-path="url(#z40478c14)" d="M 684 835 L 695 816 L 696 800 L 636 713 L 633 697 L 650 691 L 706 692"/>
<path style="--d:15s;" pathLength="3333" clip-path="url(#z40478c15)" d="M 785 790 L 794 762 L 788 753 L 714 672 L 702 668 L 670 634 L 664 610 L 684 607 L 778 631"/>
<path style="--d:16s;" pathLength="3333" clip-path="url(#z40478c16)" d="M 774 672 L 818 613"/>
<path style="--d:17s;" pathLength="3333" clip-path="url(#z40478c17)" d="M 657 529 L 684 479"/>
<path style="--d:18s;" pathLength="3333" clip-path="url(#z40478c18)" d="M 720 554 L 744 527 L 755 503"/>
<path style="--d:19s;" pathLength="3333" clip-path="url(#z40478c19)" d="M 782 570 L 834 520 L 841 500"/>
<path style="--d:20s;" pathLength="3333" clip-path="url(#z40478c20)" d="M 450 451 L 431 451 L 411 421 L 400 420"/>
<path style="--d:21s;" pathLength="3333" clip-path="url(#z40478c21)" d="M 368 406 L 396 381 L 390 211 L 372 156 L 383 135"/>
<path style="--d:22s;" pathLength="3333" clip-path="url(#z40478c22)" d="M 427 390 L 435 400 L 501 415 L 597 432 L 642 430 L 665 399 L 631 309 L 629 288"/>
<path style="--d:23s;" pathLength="3333" clip-path="url(#z40478c23)" d="M 419 329 L 432 341 L 514 357 L 554 362 L 577 357"/>
<path style="--d:24s;" pathLength="3333" clip-path="url(#z40478c24)" d="M 415 270 L 422 277 L 565 305 L 598 307 L 604 301"/>
<path style="--d:25s;" pathLength="3333" clip-path="url(#z40478c25)" d="M 412 211 L 423 222 L 433 219 L 559 241 L 585 243 L 601 237"/>
<path style="--d:26s;" pathLength="3333" clip-path="url(#z40478c26)" d="M 399 132 L 427 159 L 536 178 L 719 193 L 766 191 L 787 181 L 807 158 L 806 151 L 769 31 L 744 -9 L 717 -20 L 645 23"/>
<path style="--d:27s;" pathLength="3333" clip-path="url(#z40478c27)" d="M 272 136 L 264 78 L 235 -7"/>
<path style="--d:28s;" pathLength="3333" clip-path="url(#z40478c28)" d="M 377 91 L 408 46 L 413 26"/>
<path style="--d:29s;" pathLength="3333" clip-path="url(#z40478c29)" d="M 491 109 L 520 75 L 536 43"/>
<path style="--d:30s;" pathLength="3333" clip-path="url(#z40478c30)" d="M 594 125 L 645 87 L 657 61"/>
</svg>