<svg id="z40109" class="acjk" viewBox="0 0 1024 1024" xmlns="http://www.w3.org/2000/svg">
  <path id="z40109d1" d="M 297 690 Q 363 780 363 783 Q 362 786 362 788 Q 359 798 335 820 Q 313 836 296 838 Q 280 837 286 817 Q 310 760 143 563 Q 133 554 131 549 Q 128 539 141 541 Q 180 545 279 667 L 297 690 Z"/>
  <path id="z40109d2" d="M 337 525 Q 445 663 463 675 Q 479 685 467 697 Q 454 707 420 726 Q 411 729 328 699 Q 325 699 297 690 C 268 681 249 672 279 667 Q 295 661 364 676 Q 371 677 373 675 Q 377 672 373 661 Q 340 576 319 536 Q 313 526 311 518 C 301 490 318 501 337 525 Z"/>
  <path id="z40109d3" d="M 186 485 Q 176 491 146 497 Q 134 500 131 495 Q 124 489 132 474 Q 162 408 177 301 Q 178 270 197 247 Q 213 226 219 241 Q 222 250 223 260 L 223 282 Q 222 295 219 311 Q 201 420 197 455 C 194 481 194 481 186 485 Z"/>
  <path id="z40109d4" d="M 371 286 Q 384 268 397 262 Q 407 255 419 275 Q 432 300 456 433 Q 463 461 482 483 Q 492 495 482 506 Q 469 521 430 542 Q 411 549 399 542 Q 374 535 343 527 Q 339 527 337 525 L 311 518 Q 280 511 248 502 Q 214 493 186 485 C 157 477 169 445 197 455 Q 196 456 198 456 Q 228 466 273 478 L 305 486 Q 333 495 367 501 Q 391 505 399 499 Q 412 484 410 469 Q 389 322 372 314 C 361 298 361 298 371 286 Z"/>
  <path id="z40109d5" d="M 322 386 Q 346 392 370 395 Q 389 399 381 410 Q 371 422 350 424 Q 340 425 324 422 L 282 409 Q 254 399 229 391 Q 216 387 233 375 Q 236 374 282 378 L 322 386 Z"/>
  <path id="z40109d6" d="M 317 309 Q 318 351 322 386 L 324 422 Q 324 440 326 448 Q 332 467 305 486 C 281 504 263 506 273 478 Q 279 466 282 409 L 282 378 Q 282 347 283 299 C 284 269 316 279 317 309 Z"/>
  <path id="z40109d7" d="M 223 260 Q 227 260 235 261 Q 311 277 371 286 C 401 290 401 306 372 314 Q 368 315 365 316 Q 346 319 317 309 L 283 299 Q 252 292 223 282 C 195 272 193 258 223 260 Z"/>
  <path id="z40109d8" d="M 120 122 Q 107 121 105 111 Q 102 98 111 90 Q 133 74 165 53 Q 175 49 187 58 Q 217 80 408 156 Q 433 166 452 180 Q 465 187 466 196 Q 462 202 449 199 Q 173 121 120 122 Z"/>
  <path id="z40109d9" d="M 706 663 Q 748 673 792 680 Q 835 690 842 696 Q 849 703 846 710 Q 840 720 816 727 Q 791 733 764 723 Q 736 714 708 706 L 656 693 Q 596 681 528 676 Q 497 672 519 656 Q 552 638 635 651 Q 645 654 657 655 L 706 663 Z"/>
  <path id="z40109d10" d="M 700 561 Q 812 585 814 585 Q 821 592 818 598 Q 812 608 789 615 Q 768 621 702 600 L 657 589 Q 609 582 556 577 Q 526 573 547 559 Q 575 541 640 551 Q 647 552 657 553 L 700 561 Z"/>
  <path id="z40109d11" d="M 696 497 Q 697 531 700 561 L 702 600 Q 703 633 706 663 L 708 706 Q 711 760 725 810 Q 728 820 709 834 Q 675 852 653 855 Q 637 858 630 850 Q 623 843 631 829 Q 652 801 652 780 Q 655 738 656 693 L 657 655 Q 657 624 657 589 L 657 553 Q 657 523 657 491 C 657 461 695 467 696 497 Z"/>
  <path id="z40109d12" d="M 657 491 Q 582 482 498 470 Q 482 469 494 454 Q 521 430 551 438 Q 677 471 914 472 Q 930 472 935 479 Q 939 489 925 500 Q 883 533 827 520 Q 773 511 696 497 L 657 491 Z"/>
  <path id="z40109d13" d="M 577 200 Q 578 240 583 268 L 585 292 Q 589 340 592 357 Q 592 360 592 361 C 594 379 594 379 584 385 Q 583 388 579 389 Q 555 402 540 402 Q 528 399 533 389 Q 572 299 526 127 Q 502 69 504 57 Q 505 33 518 16 Q 524 4 533 9 Q 563 33 575 179 L 577 200 Z"/>
  <path id="z40109d14" d="M 592 361 Q 736 382 746 377 Q 758 371 758 345 Q 773 192 766 73 Q 765 48 751 44 Q 744 40 697 45 Q 685 48 686 40 Q 687 33 702 25 Q 732 0 754 -27 Q 767 -40 780 -39 Q 795 -36 812 7 Q 834 50 830 95 Q 821 201 813 297 Q 809 336 825 367 Q 835 380 823 394 Q 807 407 772 421 Q 753 431 736 420 Q 720 414 691 406 Q 616 390 584 385 C 554 380 562 357 592 361 Z"/>
  <path id="z40109d15" d="M 583 268 Q 586 271 705 288 Q 724 291 717 302 Q 708 314 687 317 Q 666 318 585 292 C 556 283 554 259 583 268 Z"/>
  <path id="z40109d16" d="M 575 179 Q 579 178 588 179 Q 652 185 700 188 Q 719 191 712 202 Q 705 214 683 219 Q 655 225 577 200 C 548 191 545 182 575 179 Z"/>
<defs>
  <clipPath id="z40109c1"><use href="#z40109d1"/></clipPath>
  <clipPath id="z40109c2"><use href="#z40109d2"/></clipPath>
  <clipPath id="z40109c3"><use href="#z40109d3"/></clipPath>
  <clipPath id="z40109c4"><use href="#z40109d4"/></clipPath>
  <clipPath id="z40109c5"><use href="#z40109d5"/></clipPath>
  <clipPath id="z40109c6"><use href="#z40109d6"/></clipPath>
  <clipPath id="z40109c7"><use href="#z40109d7"/></clipPath>
  <clipPath id="z40109c8"><use href="#z40109d8"/></clipPath>
  <clipPath id="z40109c9"><use href="#z40109d9"/></clipPath>
  <clipPath id="z40109c10"><use href="#z40109d10"/></clipPath>
  <clipPath id="z40109c11"><use href="#z40109d11"/></clipPath>
  <clipPath id="z40109c12"><use href="#z40109d12"/></clipPath>
  <clipPath id="z40109c13"><use href="#z40109d13"/></clipPath>
  <clipPath id="z40109c14"><use href="#z40109d14"/></clipPath>
  <clipPath id="z40109c15"><use href="#z40109d15"/></clipPath>
  <clipPath id="z40109c16"><use href="#z40109d16"/></clipPath>
</defs>
<path style="--d:1s;" pathLength="3333" clip-path="url(#z40109c1)" d="M 296 825 L 315 804 L 322 783 L 299 735 L 226 634 L 170 572 L 139 548"/>
<path style="--d:2s;" pathLength="3333" clip-path="url(#z40109c2)" d="M 284 673 L 371 695 L 391 694 L 413 683 L 338 540 L 317 521"/>
<path style="--d:3s;" pathLength="3333" clip-path="url(#z40109c3)" d="M 140 487 L 165 465 L 171 448 L 209 247"/>
<path style="--d:4s;" pathLength="3333" clip-path="url(#z40109c4)" d="M 194 479 L 213 476 L 398 522 L 425 513 L 443 492 L 418 364 L 399 300 L 403 278"/>
<path style="--d:5s;" pathLength="3333" clip-path="url(#z40109c5)" d="M 232 383 L 333 407 L 373 404"/>
<path style="--d:6s;" pathLength="3333" clip-path="url(#z40109c6)" d="M 279 476 L 300 461 L 303 446 L 300 323 L 286 308"/>
<path style="--d:7s;" pathLength="3333" clip-path="url(#z40109c7)" d="M 229 266 L 248 278 L 355 300 L 366 307"/>
<path style="--d:8s;" pathLength="3333" clip-path="url(#z40109c8)" d="M 119 108 L 176 93 L 391 165 L 460 194"/>
<path style="--d:9s;" pathLength="3333" clip-path="url(#z40109c9)" d="M 521 667 L 547 662 L 604 664 L 777 702 L 835 706"/>
<path style="--d:10s;" pathLength="3333" clip-path="url(#z40109c10)" d="M 549 569 L 628 566 L 766 596 L 812 593"/>
<path style="--d:11s;" pathLength="3333" clip-path="url(#z40109c11)" d="M 641 841 L 674 818 L 686 796 L 676 515 L 662 499"/>
<path style="--d:12s;" pathLength="3333" clip-path="url(#z40109c12)" d="M 496 462 L 531 455 L 852 498 L 926 484"/>
<path style="--d:13s;" pathLength="3333" clip-path="url(#z40109c13)" d="M 544 391 L 562 374 L 568 359 L 569 302 L 557 168 L 529 53 L 528 18"/>
<path style="--d:14s;" pathLength="3333" clip-path="url(#z40109c14)" d="M 590 380 L 605 372 L 754 401 L 790 374 L 786 321 L 798 133 L 795 51 L 772 11 L 693 39"/>
<path style="--d:15s;" pathLength="3333" clip-path="url(#z40109c15)" d="M 587 275 L 597 285 L 654 297 L 709 297"/>
<path style="--d:16s;" pathLength="3333" clip-path="url(#z40109c16)" d="M 582 184 L 590 193 L 645 202 L 685 203 L 704 197"/>
</svg>