<svg id="z40318" class="acjk" viewBox="0 0 1024 1024" xmlns="http://www.w3.org/2000/svg">
  <path id="z40318d1" d="M 99 757 Q 58 773 53 764 Q 49 757 56 738 Q 84 653 100 527 Q 104 488 120 461 Q 135 437 139 455 Q 141 466 142 472 L 142 505 Q 142 512 129 592 L 125 620 Q 117 684 113 717 C 109 747 109 753 99 757 Z"/>
  <path id="z40318d2" d="M 304 503 Q 310 484 321 486 Q 333 487 345 514 Q 355 540 372 628 Q 386 688 419 723 Q 435 741 421 760 Q 406 778 363 811 Q 351 821 302 806 Q 255 800 167 774 L 99 757 C 70 750 86 704 113 717 Q 140 736 302 766 Q 325 768 332 762 Q 342 757 337 717 Q 324 635 318 600 Q 316 584 304 538 L 304 503 Z"/>
  <path id="z40318d3" d="M 129 592 Q 133 592 143 594 Q 237 615 280 623 Q 298 627 291 641 Q 280 666 240 660 Q 213 655 125 620 C 97 609 99 589 129 592 Z"/>
  <path id="z40318d4" d="M 142 472 Q 146 472 152 474 Q 206 490 304 503 C 334 507 329 521 304 538 Q 302 540 300 541 Q 288 547 253 535 Q 176 512 142 505 C 113 499 112 468 142 472 Z"/>
  <path id="z40318d5" d="M 125 282 Q 143 276 161 280 L 217 298 Q 220 298 221 299 Q 239 306 234 319 Q 232 323 225 327 Q 198 345 169 327 Q 162 324 156 321 Q 139 313 125 309 C 96 300 96 291 125 282 Z"/>
  <path id="z40318d6" d="M 125 309 L 128 376 Q 128 388 122 394 Q 118 400 105 408 Q 74 426 63 416 L 61 412 Q 60 406 67 388 Q 95 321 84 194 Q 75 133 42 88 Q 35 80 37 60 Q 39 30 54 13 Q 61 2 73 17 Q 143 107 204 159 Q 217 171 220 176 Q 221 183 216 183 Q 214 183 213 182 Q 211 182 137 141 Q 133 139 130 139 Q 123 138 123 154 Q 124 232 125 282 L 125 309 Z"/>
  <path id="z40318d7" d="M 303 249 L 435 316 L 437 316 Q 448 318 451 327 Q 457 345 434 378 Q 416 404 403 406 Q 393 406 393 393 Q 396 363 345 312 L 306 274 C 285 253 276 235 303 249 Z"/>
  <path id="z40318d8" d="M 306 274 Q 306 298 310 318 L 320 374 Q 323 398 312 413 Q 268 455 254 450 Q 251 448 249 445 Q 244 439 251 416 Q 265 363 263 318 Q 262 111 279 67 Q 288 43 298 28 Q 327 -24 384 -21 Q 421 -19 461 8 Q 488 22 479 59 Q 476 73 474 84 Q 465 133 463 194 Q 461 216 455 221 Q 447 227 443 206 Q 423 100 412 84 Q 406 63 384 59 Q 353 53 337 65 Q 325 74 319 82 Q 304 110 302 218 Q 302 228 303 249 L 306 274 Z"/>
  <path id="z40318d9" d="M 637 678 L 745 791 Q 755 799 755 808 Q 754 826 704 840 Q 680 847 666 841 Q 653 837 662 825 Q 669 807 639 735 Q 616 680 615 672 C 609 648 616 656 637 678 Z"/>
  <path id="z40318d10" d="M 582 665 Q 580 668 574 670 Q 549 683 537 671 Q 531 667 539 655 Q 553 626 555 564 L 553 421 Q 553 381 548 348 L 537 288 Q 535 271 549 260 Q 568 245 590 260 C 602 266 599 296 596 326 Q 594 339 594 365 L 594 390 L 594 458 L 594 482 Q 594 488 596 488 Q 594 523 596 553 L 598 572 Q 602 598 608 617 Q 612 629 610 639 C 610 649 608 650 582 665 Z"/>
  <path id="z40318d11" d="M 759 486 Q 759 484 760 482 Q 764 463 779 464 Q 787 465 794 472 Q 811 490 834 563 Q 851 612 886 641 Q 906 657 890 672 Q 872 688 823 715 Q 806 725 752 709 Q 742 709 710 701 Q 642 684 637 678 L 615 672 Q 598 670 582 665 C 553 657 581 632 610 639 Q 615 639 623 642 Q 683 661 764 679 Q 783 683 789 679 Q 799 673 793 645 Q 776 563 759 504 L 759 486 Z"/>
  <path id="z40318d12" d="M 596 553 Q 614 551 661 557 Q 729 566 747 574 Q 753 582 749 587 Q 745 594 723 600 Q 716 601 702 597 Q 633 580 598 572 C 569 565 566 555 596 553 Z"/>
  <path id="z40318d13" d="M 594 458 Q 607 457 616 459 Q 660 471 759 486 C 782 489 782 489 759 504 L 742 515 Q 728 521 697 512 Q 621 489 594 482 C 565 474 564 460 594 458 Z"/>
  <path id="z40318d14" d="M 594 365 Q 600 364 606 365 L 782 392 Q 804 395 796 408 Q 779 430 729 423 Q 702 419 594 390 C 565 382 564 367 594 365 Z"/>
  <path id="z40318d15" d="M 590 260 Q 623 284 752 304 Q 876 328 900 304 Q 912 291 896 245 Q 894 68 864 39 Q 855 31 835 34 Q 806 35 790 36 Q 774 40 774 31 Q 774 24 784 18 Q 830 -27 847 -61 Q 858 -82 876 -69 Q 900 -55 921 -32 Q 942 -2 946 37 Q 956 133 959 221 Q 965 261 982 295 Q 996 314 982 325 Q 961 345 923 365 Q 917 368 911 369 Q 899 372 872 363 Q 825 344 790 340 Q 741 334 620 310 Q 596 306 596 326 C 575 347 563 246 590 260 Z"/>
  <path id="z40318d16" d="M 576 159 Q 576 163 576 168 Q 573 212 557 212 Q 550 212 547 204 Q 540 176 529 149 Q 513 108 512 106 Q 506 82 520 59 Q 529 45 545 58 Q 582 96 576 159 Z"/>
  <path id="z40318d17" d="M 621 203 Q 616 196 623 163 Q 634 121 648 112 Q 653 110 657 110 Q 672 113 675 143 Q 672 172 633 206 Q 627 210 621 203 Z"/>
  <path id="z40318d18" d="M 688 228 Q 682 220 696 190 Q 711 155 727 149 Q 737 145 749 157 Q 753 167 751 187 Q 741 218 700 234 Q 692 239 688 228 Z"/>
  <path id="z40318d19" d="M 784 216 Q 812 162 829 157 Q 853 157 853 204 Q 851 223 813 245 Q 784 263 772 263 Q 768 261 766 249 Q 766 239 784 216 Z"/>
<defs>
  <clipPath id="z40318c1"><use href="#z40318d1"/></clipPath>
  <clipPath id="z40318c2"><use href="#z40318d2"/></clipPath>
  <clipPath id="z40318c3"><use href="#z40318d3"/></clipPath>
  <clipPath id="z40318c4"><use href="#z40318d4"/></clipPath>
  <clipPath id="z40318c5"><use href="#z40318d5"/></clipPath>
  <clipPath id="z40318c6"><use href="#z40318d6"/></clipPath>
  <clipPath id="z40318c7"><use href="#z40318d7"/></clipPath>
  <clipPath id="z40318c8"><use href="#z40318d8"/></clipPath>
  <clipPath id="z40318c9"><use href="#z40318d9"/></clipPath>
  <clipPath id="z40318c10"><use href="#z40318d10"/></clipPath>
  <clipPath id="z40318c11"><use href="#z40318d11"/></clipPath>
  <clipPath id="z40318c12"><use href="#z40318d12"/></clipPath>
  <clipPath id="z40318c13"><use href="#z40318d13"/></clipPath>
  <clipPath id="z40318c14"><use href="#z40318d14"/></clipPath>
  <clipPath id="z40318c15"><use href="#z40318d15"/></clipPath>
  <clipPath id="z40318c16"><use href="#z40318d16"/></clipPath>
  <clipPath id="z40318c17"><use href="#z40318d17"/></clipPath>
  <clipPath id="z40318c18"><use href="#z40318d18"/></clipPath>
  <clipPath id="z40318c19"><use href="#z40318d19"/></clipPath>
</defs>
<path style="--d:1s;" pathLength="3333" clip-path="url(#z40318c1)" d="M 60 758 L 80 739 L 90 709 L 129 457"/>
<path style="--d:2s;" pathLength="3333" clip-path="url(#z40318c2)" d="M 112 724 L 124 744 L 217 769 L 318 789 L 354 783 L 381 742 L 351 651 L 320 499"/>
<path style="--d:3s;" pathLength="3333" clip-path="url(#z40318c3)" d="M 135 600 L 143 611 L 211 631 L 260 640 L 281 635"/>
<path style="--d:4s;" pathLength="3333" clip-path="url(#z40318c4)" d="M 146 478 L 158 492 L 273 519 L 297 532"/>
<path style="--d:5s;" pathLength="3333" clip-path="url(#z40318c5)" d="M 133 289 L 194 314 L 222 314"/>
<path style="--d:6s;" pathLength="3333" clip-path="url(#z40318c6)" d="M 71 410 L 96 384 L 103 357 L 106 252 L 99 116 L 103 111 L 123 114 L 139 122 L 216 178"/>
<path style="--d:7s;" pathLength="3333" clip-path="url(#z40318c7)" d="M 403 396 L 415 355 L 413 343 L 314 267 L 308 255"/>
<path style="--d:8s;" pathLength="3333" clip-path="url(#z40318c8)" d="M 258 441 L 285 400 L 290 382 L 282 196 L 292 97 L 302 67 L 344 24 L 367 18 L 394 20 L 439 45 L 452 214"/>
<path style="--d:9s;" pathLength="3333" clip-path="url(#z40318c9)" d="M 667 832 L 691 816 L 701 801 L 635 691 L 622 680"/>
<path style="--d:10s;" pathLength="3333" clip-path="url(#z40318c10)" d="M 546 664 L 560 656 L 579 626 L 573 371 L 565 291 L 566 278 L 578 268"/>
<path style="--d:11s;" pathLength="3333" clip-path="url(#z40318c11)" d="M 588 663 L 615 656 L 701 684 L 784 699 L 819 687 L 838 654 L 778 481"/>
<path style="--d:12s;" pathLength="3333" clip-path="url(#z40318c12)" d="M 600 557 L 608 563 L 712 583 L 740 582"/>
<path style="--d:13s;" pathLength="3333" clip-path="url(#z40318c13)" d="M 600 464 L 612 473 L 691 494 L 750 500"/>
<path style="--d:14s;" pathLength="3333" clip-path="url(#z40318c14)" d="M 600 371 L 610 381 L 740 406 L 786 402"/>
<path style="--d:15s;" pathLength="3333" clip-path="url(#z40318c15)" d="M 598 272 L 611 291 L 633 298 L 888 340 L 907 337 L 936 315 L 943 304 L 927 232 L 918 92 L 898 14 L 874 -10 L 782 30"/>
<path style="--d:16s;" pathLength="3333" clip-path="url(#z40318c16)" d="M 557 201 L 559 178 L 533 66"/>
<path style="--d:17s;" pathLength="3333" clip-path="url(#z40318c17)" d="M 629 197 L 650 152 L 655 123"/>
<path style="--d:18s;" pathLength="3333" clip-path="url(#z40318c18)" d="M 699 221 L 734 167"/>
<path style="--d:19s;" pathLength="3333" clip-path="url(#z40318c19)" d="M 775 253 L 819 209 L 831 170"/>
</svg>