<svg id="z40550" class="acjk" viewBox="0 0 1024 1024" xmlns="http://www.w3.org/2000/svg">
  <path id="z40550d1" d="M 159 723 Q 143 735 124 742 Q 118 743 114 737 Q 111 733 117 726 Q 142 651 119 548 Q 110 532 115 509 Q 121 487 129 478 Q 136 468 144 478 Q 156 497 163 610 Q 156 625 166 697 Q 166 701 167 703 C 169 716 169 716 159 723 Z"/>
  <path id="z40550d2" d="M 264 523 Q 260 508 268 494 Q 277 475 282 475 Q 292 476 302 497 Q 312 513 312 527 Q 293 668 322 710 Q 334 731 275 755 Q 272 756 271 757 Q 261 761 203 735 Q 179 728 159 723 C 130 716 138 697 167 703 Q 170 703 219 715 Q 253 727 261 723 Q 268 707 270 667 Q 271 546 264 523 Z"/>
  <path id="z40550d3" d="M 200 626 Q 206 473 158 422 Q 143 406 110 385 Q 103 382 101 380 Q 98 376 107 375 Q 149 375 198 423 Q 199 427 202 429 Q 230 477 232 595 Q 232 619 239 645 Q 242 652 237 656 Q 227 665 206 673 Q 193 677 184 674 Q 174 670 182 660 Q 198 644 200 626 Z"/>
  <path id="z40550d4" d="M 244 453 Q 280 407 295 403 Q 304 402 309 413 Q 310 422 305 435 Q 299 447 283 454 Q 258 467 248 470 Q 242 471 241 464 Q 240 460 244 453 Z"/>
  <path id="z40550d5" d="M 367 750 Q 364 756 344 762 Q 337 766 330 762 Q 326 759 329 751 Q 330 745 333 740 Q 355 700 340 571 Q 328 514 354 488 Q 361 478 368 487 Q 378 502 377 553 Q 376 724 378 729 C 379 740 379 740 367 750 Z"/>
  <path id="z40550d6" d="M 484 539 Q 480 524 488 510 Q 497 491 502 491 Q 512 492 522 513 Q 532 529 532 543 Q 513 693 542 734 Q 549 746 543 753 Q 524 769 490 784 Q 480 788 462 781 Q 441 771 413 761 Q 388 755 367 750 C 338 743 348 724 378 729 Q 385 729 434 741 Q 471 751 480 747 Q 487 731 490 689 Q 491 563 484 539 Z"/>
  <path id="z40550d7" d="M 429 463 Q 450 505 450 624 Q 450 643 456 666 Q 459 673 453 677 Q 443 686 421 692 Q 409 696 400 693 Q 388 689 398 679 Q 428 649 417 536 Q 411 458 341 402 Q 334 398 333 396 Q 330 392 339 392 Q 378 392 421 447 Q 421 448 422 449 L 429 463 Z"/>
  <path id="z40550d8" d="M 422 449 Q 426 443 443 429 Q 464 413 487 391 Q 497 382 507 383 Q 514 383 518 393 Q 521 403 514 423 Q 510 438 487 448 Q 442 463 429 463 C 410 464 410 464 422 449 Z"/>
  <path id="z40550d9" d="M 303 322 Q 306 331 311 335 Q 318 342 316 350 Q 312 362 280 385 Q 270 392 261 389 Q 251 386 257 373 Q 264 354 258 333 Q 255 324 252 314 L 239 273 Q 223 228 206 201 Q 197 186 200 175 Q 201 168 216 164 Q 255 152 298 123 L 335 97 Q 371 72 417 29 Q 439 11 453 11 Q 471 11 472 27 Q 473 45 450 84 Q 440 103 415 115 Q 390 127 366 137 L 324 155 Q 282 171 255 180 Q 236 184 246 203 Q 270 254 283 281 L 303 322 Z"/>
  <path id="z40550d10" d="M 298 123 Q 247 72 123 44 Q 107 37 126 33 Q 256 21 335 97 L 366 137 Q 390 173 403 214 Q 416 254 426 265 Q 435 275 427 285 Q 421 292 411 299 C 388 318 348 321 354 292 Q 370 235 324 155 L 298 123 Z"/>
  <path id="z40550d11" d="M 411 299 Q 448 303 491 306 Q 507 307 508 314 Q 509 326 494 335 Q 469 348 447 345 Q 362 332 303 322 L 252 314 Q 161 304 83 300 Q 71 299 67 292 Q 64 282 77 271 Q 113 241 152 252 Q 198 265 239 273 L 283 281 Q 295 285 306 286 Q 328 290 354 292 L 411 299 Z"/>
  <path id="z40550d12" d="M 626 634 Q 668 677 712 730 Q 725 748 744 762 Q 760 775 748 788 Q 732 801 706 808 Q 682 815 672 810 Q 662 806 667 795 Q 674 774 629 680 Q 617 658 605 633 C 592 606 605 612 626 634 Z"/>
  <path id="z40550d13" d="M 622 595 Q 659 608 756 627 Q 763 628 770 624 Q 782 618 782 600 Q 782 554 766 470 Q 763 449 744 452 Q 716 458 692 463 Q 680 464 683 458 Q 684 451 706 433 Q 737 408 757 379 Q 764 370 774 374 Q 781 377 794 400 Q 812 430 820 505 Q 823 598 838 614 Q 848 623 843 633 Q 836 643 805 663 Q 798 667 738 658 Q 711 658 626 634 C 597 626 566 577 622 595 Z"/>
  <path id="z40550d14" d="M 638 545 Q 677 499 695 498 Q 704 497 708 510 Q 709 519 702 533 Q 686 557 640 563 Q 634 564 633 556 Q 632 550 638 545 Z"/>
  <path id="z40550d15" d="M 605 633 Q 592 642 579 647 Q 561 653 553 644 Q 547 640 555 628 Q 570 598 568 536 Q 567 487 566 424 Q 566 363 554 313 Q 548 294 563 279 Q 581 264 603 277 Q 652 310 824 320 Q 860 329 879 310 Q 891 300 877 257 Q 870 205 860 149 Q 853 106 833 79 Q 824 67 800 70 Q 766 79 738 86 Q 722 90 723 83 Q 723 77 732 70 Q 786 19 805 -16 Q 815 -35 832 -26 Q 892 8 903 65 Q 919 143 932 230 Q 939 267 958 297 Q 971 313 960 325 Q 944 344 907 366 Q 886 379 858 366 Q 821 351 785 348 Q 736 344 633 325 Q 608 321 608 342 Q 607 411 609 482 Q 609 551 622 595 C 628 622 628 622 605 633 Z"/>
  <path id="z40550d16" d="M 649 166 Q 670 167 691 171 Q 755 175 803 172 Q 822 171 828 179 Q 832 191 822 199 Q 797 221 759 234 Q 747 238 726 230 Q 698 223 670 218 Q 624 211 599 207 Q 484 189 457 188 Q 447 187 446 178 Q 446 168 462 156 Q 477 147 503 139 Q 513 136 527 144 Q 560 157 649 166 Z"/>
<defs>
  <clipPath id="z40550c1"><use href="#z40550d1"/></clipPath>
  <clipPath id="z40550c2"><use href="#z40550d2"/></clipPath>
  <clipPath id="z40550c3"><use href="#z40550d3"/></clipPath>
  <clipPath id="z40550c4"><use href="#z40550d4"/></clipPath>
  <clipPath id="z40550c5"><use href="#z40550d5"/></clipPath>
  <clipPath id="z40550c6"><use href="#z40550d6"/></clipPath>
  <clipPath id="z40550c7"><use href="#z40550d7"/></clipPath>
  <clipPath id="z40550c8"><use href="#z40550d8"/></clipPath>
  <clipPath id="z40550c9"><use href="#z40550d9"/></clipPath>
  <clipPath id="z40550c10"><use href="#z40550d10"/></clipPath>
  <clipPath id="z40550c11"><use href="#z40550d11"/></clipPath>
  <clipPath id="z40550c12"><use href="#z40550d12"/></clipPath>
  <clipPath id="z40550c13"><use href="#z40550d13"/></clipPath>
  <clipPath id="z40550c14"><use href="#z40550d14"/></clipPath>
  <clipPath id="z40550c15"><use href="#z40550d15"/></clipPath>
  <clipPath id="z40550c16"><use href="#z40550d16"/></clipPath>
</defs>
<path style="--d:1s;" pathLength="3333" clip-path="url(#z40550c1)" d="M 122 733 L 142 710 L 147 688 L 147 599 L 133 519 L 137 485"/>
<path style="--d:2s;" pathLength="3333" clip-path="url(#z40550c2)" d="M 167 720 L 174 715 L 206 721 L 218 730 L 266 740 L 278 735 L 290 719 L 290 536 L 284 483"/>
<path style="--d:3s;" pathLength="3333" clip-path="url(#z40550c3)" d="M 190 666 L 218 643 L 216 546 L 206 483 L 191 441 L 170 414 L 135 389 L 107 381"/>
<path style="--d:4s;" pathLength="3333" clip-path="url(#z40550c4)" d="M 249 461 L 281 436 L 296 415"/>
<path style="--d:5s;" pathLength="3333" clip-path="url(#z40550c5)" d="M 337 756 L 359 726 L 363 638 L 356 531 L 362 495"/>
<path style="--d:6s;" pathLength="3333" clip-path="url(#z40550c6)" d="M 375 748 L 401 744 L 474 767 L 490 764 L 512 741 L 506 654 L 510 553 L 504 499"/>
<path style="--d:7s;" pathLength="3333" clip-path="url(#z40550c7)" d="M 406 685 L 433 663 L 436 575 L 426 501 L 408 455 L 393 436 L 363 407 L 338 397"/>
<path style="--d:8s;" pathLength="3333" clip-path="url(#z40550c8)" d="M 432 453 L 492 418 L 504 397"/>
<path style="--d:9s;" pathLength="3333" clip-path="url(#z40550c9)" d="M 264 380 L 277 367 L 286 341 L 222 185 L 396 90 L 414 77 L 456 27"/>
<path style="--d:10s;" pathLength="3333" clip-path="url(#z40550c10)" d="M 362 287 L 390 265 L 387 250 L 357 167 L 315 108 L 282 82 L 245 63 L 187 46 L 134 41"/>
<path style="--d:11s;" pathLength="3333" clip-path="url(#z40550c11)" d="M 76 288 L 140 276 L 425 322 L 461 325 L 498 317"/>
<path style="--d:12s;" pathLength="3333" clip-path="url(#z40550c12)" d="M 679 799 L 702 772 L 655 691 L 620 642 L 610 638"/>
<path style="--d:13s;" pathLength="3333" clip-path="url(#z40550c13)" d="M 611 628 L 632 617 L 751 645 L 786 641 L 808 624 L 790 462 L 773 427 L 767 422 L 737 432 L 689 457"/>
<path style="--d:14s;" pathLength="3333" clip-path="url(#z40550c14)" d="M 642 554 L 678 531 L 695 511"/>
<path style="--d:15s;" pathLength="3333" clip-path="url(#z40550c15)" d="M 562 637 L 586 616 L 593 593 L 584 347 L 590 306 L 858 344 L 881 344 L 898 336 L 921 309 L 881 107 L 858 49 L 831 28 L 732 79"/>
<path style="--d:16s;" pathLength="3333" clip-path="url(#z40550c16)" d="M 458 176 L 509 166 L 590 184 L 748 204 L 818 185"/>
</svg>