<svg id="z40532" class="acjk" viewBox="0 0 1024 1024" xmlns="http://www.w3.org/2000/svg">
  <path id="z40532d1" d="M 410 550 Q 416 586 425 610 L 442 647 Q 451 665 468 682 Q 483 698 468 711 Q 462 718 414 741 Q 400 747 386 741 L 322 714 L 283 703 L 190 678 Q 172 674 172 670 L 172 667 Q 176 661 194 657 Q 221 651 239 661 Q 255 668 283 675 L 320 684 Q 380 703 388 698 L 392 694 Q 401 686 393 634 L 386 602 Q 379 577 370 551 C 360 523 405 520 410 550 Z"/>
  <path id="z40532d2" d="M 425 610 Q 429 610 484 618 Q 500 621 502 626 Q 503 638 487 645 Q 470 653 442 647 L 393 634 Q 359 628 318 617 L 282 610 Q 95 579 75 572 Q 61 568 64 559 Q 67 553 73 548 Q 94 531 118 533 Q 130 533 188 552 L 282 582 L 318 590 Q 349 597 386 602 L 425 610 Z"/>
  <path id="z40532d3" d="M 318 498 Q 345 504 417 514 Q 434 517 438 523 Q 439 525 439 527 Q 439 533 410 550 L 370 551 Q 363 551 318 535 L 280 523 Q 233 514 176 496 Q 160 491 169 480 Q 174 472 186 466 Q 198 466 220 471 Q 250 480 280 490 L 318 498 Z"/>
  <path id="z40532d4" d="M 280 490 Q 272 188 276 31 Q 277 22 284 14 Q 298 2 302 20 Q 318 74 318 498 L 318 535 Q 318 557 318 590 L 318 617 Q 318 645 320 684 L 322 714 Q 322 745 337 776 Q 345 792 340 800 Q 337 805 331 809 Q 318 823 289 831 Q 265 839 253 828 Q 247 822 257 811 Q 272 792 277 782 Q 284 767 284 754 Q 285 739 283 703 L 283 675 Q 282 635 282 610 L 282 582 Q 281 543 280 523 L 280 490 Z"/>
  <path id="z40532d5" d="M 155 189 Q 169 243 170 294 Q 169 309 171 331 Q 175 404 175 406 Q 176 413 172 416 Q 163 427 137 436 Q 120 442 114 437 Q 104 431 110 422 Q 149 370 118 170 Q 116 168 114 159 Q 102 100 57 12 Q 51 -1 51 -2 Q 50 -8 55 -8 Q 56 -8 57 -7 Q 92 5 126 90 L 143 131 Q 149 167 155 189 Z"/>
  <path id="z40532d6" d="M 429 390 Q 429 90 419 51 Q 414 25 427 -8 Q 434 -24 440 -27 Q 445 -32 453 -21 Q 459 -14 461 -9 Q 466 7 465 122 Q 462 414 472 441 Q 478 459 470 465 Q 467 468 435 488 Q 416 498 406 488 Q 403 484 408 475 Q 423 442 429 390 Z"/>
  <path id="z40532d7" d="M 200 329 Q 225 286 206 223 Q 182 144 153 115 Q 151 112 151 106 Q 151 100 155 102 Q 212 122 254 241 Q 258 252 259 296 Q 259 310 259 313 Q 259 314 257 316 Q 229 349 205 345 Q 192 344 200 329 Z"/>
  <path id="z40532d8" d="M 326 337 Q 323 329 327 317 L 346 271 L 376 172 Q 381 169 392 174 Q 408 184 410 221 Q 411 276 338 341 Q 331 347 326 337 Z"/>
  <path id="z40532d9" d="M 568 657 Q 604 691 651 747 Q 673 773 685 780 Q 702 794 689 808 Q 662 827 630 831 Q 618 831 613 829 Q 604 825 608 813 Q 617 790 586 725 L 555 666 C 541 639 546 636 568 657 Z"/>
  <path id="z40532d10" d="M 574 617 Q 582 617 600 623 Q 639 638 727 655 Q 745 659 751 642 Q 753 637 753 630 Q 751 590 733 515 Q 731 500 719 497 Q 706 494 659 505 Q 645 508 647 500 Q 651 490 672 474 Q 700 449 719 418 Q 733 400 753 429 L 758 437 Q 776 465 790 544 Q 802 631 813 641 Q 823 651 817 661 Q 810 670 777 692 Q 764 700 708 686 Q 697 686 572 655 C 543 648 544 612 574 617 Z"/>
  <path id="z40532d11" d="M 591 570 Q 650 502 661 536 Q 663 564 629 579 Q 613 586 593 589 Q 586 590 586 582 Q 586 575 591 570 Z"/>
  <path id="z40532d12" d="M 554 286 Q 610 325 786 334 Q 816 337 831 325 Q 843 314 831 270 Q 813 138 798 98 Q 792 82 782 71 Q 772 59 747 65 L 683 82 Q 667 86 668 79 Q 668 74 676 67 Q 734 14 755 -24 Q 763 -44 782 -33 Q 840 -3 855 63 Q 872 145 886 243 Q 893 280 911 312 Q 925 327 913 340 Q 895 363 858 382 Q 841 392 815 384 L 773 369 Q 756 365 737 363 Q 688 359 588 339 Q 564 335 561 355 Q 561 568 574 617 C 579 647 579 650 572 655 Q 570 657 568 657 L 555 666 Q 529 686 514 678 Q 512 677 510 675 Q 504 669 512 660 Q 523 632 520 460 Q 520 380 507 326 Q 500 308 514 291 Q 533 275 554 286 Z"/>
  <path id="z40532d13" d="M 555 159 Q 579 172 613 179 Q 629 182 651 184 Q 711 192 759 190 Q 777 189 782 196 Q 786 210 776 218 Q 751 237 711 250 Q 700 253 679 245 Q 619 220 483 200 Q 472 199 472 190 Q 471 174 514 159 Q 525 155 531 153 Q 539 152 555 159 Z"/>
<defs>
  <clipPath id="z40532c1"><use href="#z40532d1"/></clipPath>
  <clipPath id="z40532c2"><use href="#z40532d2"/></clipPath>
  <clipPath id="z40532c3"><use href="#z40532d3"/></clipPath>
  <clipPath id="z40532c4"><use href="#z40532d4"/></clipPath>
  <clipPath id="z40532c5"><use href="#z40532d5"/></clipPath>
  <clipPath id="z40532c6"><use href="#z40532d6"/></clipPath>
  <clipPath id="z40532c7"><use href="#z40532d7"/></clipPath>
  <clipPath id="z40532c8"><use href="#z40532d8"/></clipPath>
  <clipPath id="z40532c9"><use href="#z40532d9"/></clipPath>
  <clipPath id="z40532c10"><use href="#z40532d10"/></clipPath>
  <clipPath id="z40532c11"><use href="#z40532d11"/></clipPath>
  <clipPath id="z40532c12"><use href="#z40532d12"/></clipPath>
  <clipPath id="z40532c13"><use href="#z40532d13"/></clipPath>
</defs>
<path style="--d:1s;" pathLength="3333" clip-path="url(#z40532c1)" d="M 177 669 L 217 669 L 390 720 L 413 713 L 428 697 L 428 684 L 395 569 L 377 556"/>
<path style="--d:2s;" pathLength="3333" clip-path="url(#z40532c2)" d="M 74 561 L 119 557 L 246 590 L 440 630 L 494 630"/>
<path style="--d:3s;" pathLength="3333" clip-path="url(#z40532c3)" d="M 175 487 L 198 484 L 376 530 L 432 527"/>
<path style="--d:4s;" pathLength="3333" clip-path="url(#z40532c4)" d="M 263 821 L 301 797 L 309 779 L 300 667 L 292 19"/>
<path style="--d:5s;" pathLength="3333" clip-path="url(#z40532c5)" d="M 121 427 L 149 399 L 151 299 L 143 216 L 129 142 L 109 85 L 78 25 L 54 -4"/>
<path style="--d:6s;" pathLength="3333" clip-path="url(#z40532c6)" d="M 415 483 L 446 447 L 443 -17"/>
<path style="--d:7s;" pathLength="3333" clip-path="url(#z40532c7)" d="M 205 336 L 235 306 L 232 237 L 197 155 L 158 109"/>
<path style="--d:8s;" pathLength="3333" clip-path="url(#z40532c8)" d="M 335 331 L 367 280 L 384 235 L 388 202 L 381 181"/>
<path style="--d:9s;" pathLength="3333" clip-path="url(#z40532c9)" d="M 618 819 L 645 792 L 618 741 L 566 668"/>
<path style="--d:10s;" pathLength="3333" clip-path="url(#z40532c10)" d="M 578 624 L 593 642 L 722 673 L 755 673 L 781 651 L 760 518 L 741 473 L 731 463 L 720 466 L 654 499"/>
<path style="--d:11s;" pathLength="3333" clip-path="url(#z40532c11)" d="M 596 579 L 628 559 L 648 538"/>
<path style="--d:12s;" pathLength="3333" clip-path="url(#z40532c12)" d="M 518 668 L 545 640 L 536 355 L 541 320 L 567 318 L 685 341 L 829 359 L 850 351 L 874 323 L 857 254 L 836 118 L 808 43 L 781 20 L 676 76"/>
<path style="--d:13s;" pathLength="3333" clip-path="url(#z40532c13)" d="M 483 189 L 535 181 L 702 220 L 772 203"/>
</svg>