<svg id="z40844" class="acjk" viewBox="0 0 1024 1024" xmlns="http://www.w3.org/2000/svg">
  <path id="z40844d1" d="M 386 556 Q 389 608 391 654 L 393 682 Q 393 703 402 748 Q 405 757 387 769 Q 357 784 336 786 Q 323 787 316 781 Q 310 774 318 762 Q 333 744 334 731 Q 346 646 350 546 C 351 516 384 526 386 556 Z"/>
  <path id="z40844d2" d="M 391 654 Q 392 655 395 654 Q 434 651 507 674 Q 507 675 508 675 Q 515 681 511 687 Q 505 696 483 700 Q 465 703 411 686 Q 402 686 393 682 C 365 671 361 654 391 654 Z"/>
  <path id="z40844d3" d="M 277 527 Q 265 593 266 639 Q 267 658 254 667 Q 233 680 210 685 Q 198 688 191 682 Q 185 676 192 664 Q 213 640 244 519 C 251 490 282 497 277 527 Z"/>
  <path id="z40844d4" d="M 244 519 Q 142 501 103 495 Q 91 494 89 486 Q 86 477 100 467 Q 137 443 173 456 Q 339 516 503 542 Q 518 543 518 551 Q 519 563 502 570 Q 477 580 457 575 Q 420 565 386 556 L 350 546 Q 308 536 277 527 L 244 519 Z"/>
  <path id="z40844d5" d="M 335 360 Q 336 372 369 447 Q 376 459 361 468 Q 318 487 302 481 Q 293 477 298 466 Q 322 394 259 283 Q 252 280 231 238 Q 227 225 238 231 Q 278 244 325 339 L 335 360 Z"/>
  <path id="z40844d6" d="M 325 339 Q 350 315 379 283 Q 389 271 398 268 Q 404 268 408 274 Q 415 281 408 309 Q 402 331 359 351 Q 346 357 335 360 C 306 368 303 360 325 339 Z"/>
  <path id="z40844d7" d="M 431 235 Q 430 235 430 234 Q 306 212 213 176 Q 198 172 202 190 Q 209 262 218 336 Q 222 358 213 371 Q 200 387 177 399 Q 167 405 158 403 Q 148 399 155 381 Q 183 314 172 248 Q 163 184 136 156 Q 120 140 128 127 Q 138 114 155 104 Q 168 97 176 106 Q 206 148 377 190 Q 419 202 434 198 C 464 197 460 242 431 235 Z"/>
  <path id="z40844d8" d="M 434 198 Q 438 185 445 173 Q 454 160 463 171 Q 478 189 479 275 Q 479 383 492 417 Q 498 430 489 440 Q 473 452 445 465 Q 435 469 425 464 Q 419 460 422 450 Q 450 411 436 253 Q 433 244 431 235 L 434 198 Z"/>
  <path id="z40844d9" d="M 840 594 Q 864 648 887 665 Q 902 681 889 697 Q 819 748 770 719 Q 716 700 623 676 C 594 668 601 643 631 648 Q 643 649 657 654 Q 796 690 804 683 Q 813 674 793 597 C 786 568 827 567 840 594 Z"/>
  <path id="z40844d10" d="M 617 540 Q 623 533 633 530 Q 642 527 653 530 Q 714 548 850 565 Q 860 566 860 574 Q 860 581 840 594 C 823 606 822 605 793 597 Q 697 569 624 556 Q 620 556 618 554 C 606 550 606 550 617 540 Z"/>
  <path id="z40844d11" d="M 623 676 Q 610 686 590 695 Q 574 704 562 700 Q 552 693 558 682 Q 576 658 576 596 Q 558 398 545 337 Q 535 295 521 256 Q 485 157 401 23 Q 397 17 396 12 Q 393 2 402 5 Q 435 11 513 141 Q 526 166 539 193 Q 602 343 617 540 L 618 554 Q 619 582 623 608 Q 624 627 630 646 Q 630 647 631 648 C 636 668 636 668 623 676 Z"/>
  <path id="z40844d12" d="M 729 443 Q 855 474 860 479 Q 866 485 863 491 Q 857 500 835 505 Q 813 508 790 498 Q 759 486 724 476 Q 687 466 641 460 Q 613 456 634 443 Q 652 431 691 434 L 729 443 Z"/>
  <path id="z40844d13" d="M 725 295 Q 759 308 821 323 Q 825 324 829 326 C 857 336 846 347 816 342 Q 753 332 688 314 Q 681 311 679 313 Q 678 314 681 321 Q 738 397 750 410 Q 757 417 753 426 Q 749 433 729 443 C 703 457 682 463 691 434 L 692 433 Q 704 403 667 352 Q 651 327 617 302 Q 608 295 611 286 Q 615 274 633 260 Q 640 253 650 261 Q 662 270 699 286 L 725 295 Z"/>
  <path id="z40844d14" d="M 829 326 Q 857 289 869 286 Q 876 285 882 293 Q 886 302 885 323 Q 884 342 860 361 Q 803 397 792 394 Q 788 393 787 383 Q 788 376 804 358 Q 810 351 816 342 L 829 326 Z"/>
  <path id="z40844d15" d="M 756 191 Q 789 201 823 210 Q 848 217 852 221 Q 859 228 855 235 Q 848 244 825 248 Q 798 252 759 233 L 711 217 Q 677 210 641 203 Q 613 196 634 184 Q 662 169 712 179 L 756 191 Z"/>
  <path id="z40844d16" d="M 751 102 Q 752 151 756 191 L 759 233 Q 759 269 758 270 Q 742 286 725 295 C 699 310 688 314 699 286 Q 708 268 711 217 L 712 179 Q 712 146 714 95 C 715 65 750 72 751 102 Z"/>
  <path id="z40844d17" d="M 714 95 Q 636 85 546 70 Q 528 69 542 55 Q 554 43 568 39 Q 586 35 599 39 Q 728 76 939 76 Q 955 76 959 84 Q 963 93 950 104 Q 898 140 840 120 Q 801 114 751 102 L 714 95 Z"/>
<defs>
  <clipPath id="z40844c1"><use href="#z40844d1"/></clipPath>
  <clipPath id="z40844c2"><use href="#z40844d2"/></clipPath>
  <clipPath id="z40844c3"><use href="#z40844d3"/></clipPath>
  <clipPath id="z40844c4"><use href="#z40844d4"/></clipPath>
  <clipPath id="z40844c5"><use href="#z40844d5"/></clipPath>
  <clipPath id="z40844c6"><use href="#z40844d6"/></clipPath>
  <clipPath id="z40844c7"><use href="#z40844d7"/></clipPath>
  <clipPath id="z40844c8"><use href="#z40844d8"/></clipPath>
  <clipPath id="z40844c9"><use href="#z40844d9"/></clipPath>
  <clipPath id="z40844c10"><use href="#z40844d10"/></clipPath>
  <clipPath id="z40844c11"><use href="#z40844d11"/></clipPath>
  <clipPath id="z40844c12"><use href="#z40844d12"/></clipPath>
  <clipPath id="z40844c13"><use href="#z40844d13"/></clipPath>
  <clipPath id="z40844c14"><use href="#z40844d14"/></clipPath>
  <clipPath id="z40844c15"><use href="#z40844d15"/></clipPath>
  <clipPath id="z40844c16"><use href="#z40844d16"/></clipPath>
  <clipPath id="z40844c17"><use href="#z40844d17"/></clipPath>
</defs>
<path style="--d:1s;" pathLength="3333" clip-path="url(#z40844c1)" d="M 325 774 L 366 742 L 369 579 L 354 554"/>
<path style="--d:2s;" pathLength="3333" clip-path="url(#z40844c2)" d="M 393 661 L 426 674 L 500 683"/>
<path style="--d:3s;" pathLength="3333" clip-path="url(#z40844c3)" d="M 199 675 L 237 643 L 251 557 L 256 540 L 269 534"/>
<path style="--d:4s;" pathLength="3333" clip-path="url(#z40844c4)" d="M 100 483 L 129 476 L 160 478 L 455 555 L 507 553"/>
<path style="--d:5s;" pathLength="3333" clip-path="url(#z40844c5)" d="M 308 471 L 335 445 L 319 376 L 287 301 L 240 240"/>
<path style="--d:6s;" pathLength="3333" clip-path="url(#z40844c6)" d="M 339 352 L 343 342 L 384 309 L 398 279"/>
<path style="--d:7s;" pathLength="3333" clip-path="url(#z40844c7)" d="M 163 394 L 184 369 L 194 345 L 192 257 L 177 154 L 213 156 L 304 189 L 408 215 L 430 204"/>
<path style="--d:8s;" pathLength="3333" clip-path="url(#z40844c8)" d="M 433 455 L 463 422 L 454 176"/>
<path style="--d:9s;" pathLength="3333" clip-path="url(#z40844c9)" d="M 634 672 L 642 665 L 667 669 L 785 704 L 815 705 L 845 680 L 824 620 L 802 608"/>
<path style="--d:10s;" pathLength="3333" clip-path="url(#z40844c10)" d="M 624 547 L 646 544 L 789 577 L 831 579 L 851 574"/>
<path style="--d:11s;" pathLength="3333" clip-path="url(#z40844c11)" d="M 568 689 L 587 673 L 601 649 L 589 484 L 561 315 L 528 219 L 491 139 L 436 51 L 403 12"/>
<path style="--d:12s;" pathLength="3333" clip-path="url(#z40844c12)" d="M 635 453 L 654 448 L 694 452 L 816 486 L 854 487"/>
<path style="--d:13s;" pathLength="3333" clip-path="url(#z40844c13)" d="M 700 429 L 719 410 L 700 372 L 659 314 L 655 297 L 684 296 L 769 323 L 824 328"/>
<path style="--d:14s;" pathLength="3333" clip-path="url(#z40844c14)" d="M 795 386 L 851 338 L 871 298"/>
<path style="--d:15s;" pathLength="3333" clip-path="url(#z40844c15)" d="M 636 194 L 700 195 L 788 223 L 845 230"/>
<path style="--d:16s;" pathLength="3333" clip-path="url(#z40844c16)" d="M 707 284 L 723 274 L 735 243 L 732 118 L 719 103"/>
<path style="--d:17s;" pathLength="3333" clip-path="url(#z40844c17)" d="M 556 59 L 589 57 L 881 102 L 949 88"/>
</svg>