<svg id="z40674" class="acjk" viewBox="0 0 1024 1024" xmlns="http://www.w3.org/2000/svg">
  <path id="z40674d1" d="M 170 679 Q 160 683 135 688 Q 125 691 122 686 Q 118 682 124 667 Q 155 600 173 492 Q 176 459 194 438 Q 210 419 214 433 Q 215 440 216 447 L 217 469 Q 216 485 212 504 Q 188 616 183 651 C 179 676 179 676 170 679 Z"/>
  <path id="z40674d2" d="M 401 481 Q 401 478 403 474 Q 407 461 419 461 Q 432 462 439 476 Q 452 495 474 589 Q 489 635 521 663 Q 537 678 524 691 Q 508 707 462 730 Q 450 736 387 723 Q 365 723 253 696 Q 204 686 170 679 C 141 673 153 649 183 651 Q 192 650 200 652 Q 225 662 272 671 L 306 678 Q 412 702 433 692 Q 443 685 437 653 Q 413 524 402 500 L 401 481 Z"/>
  <path id="z40674d3" d="M 222 564 Q 243 530 254 527 Q 261 526 266 533 Q 270 542 269 561 Q 268 571 255 580 Q 219 601 212 598 Q 208 597 208 588 Q 208 581 222 564 Z"/>
  <path id="z40674d4" d="M 368 608 Q 358 586 338 548 Q 335 544 339 540 Q 343 539 348 543 Q 393 586 415 603 Q 425 609 422 615 Q 416 624 402 633 Q 389 642 375 641 Q 365 640 368 627 Q 371 620 368 608 Z"/>
  <path id="z40674d5" d="M 327 468 Q 364 475 398 481 Q 399 482 401 481 C 425 483 425 483 402 500 Q 395 507 381 508 Q 362 511 330 501 Q 329 501 328 500 L 290 489 Q 250 479 217 469 C 188 460 186 445 216 447 Q 223 447 234 449 Q 261 455 289 460 L 327 468 Z"/>
  <path id="z40674d6" d="M 323 293 Q 323 327 324 360 L 325 404 Q 325 438 327 468 L 328 500 Q 329 554 331 602 Q 334 653 331 658 Q 318 670 306 678 C 282 696 258 698 272 671 Q 278 659 284 649 Q 291 625 290 489 L 289 460 Q 288 430 288 392 L 287 350 Q 287 320 287 285 C 287 255 323 263 323 293 Z"/>
  <path id="z40674d7" d="M 324 360 Q 400 381 404 384 Q 411 391 407 398 Q 400 408 375 413 Q 350 416 325 404 L 288 392 Q 281 391 275 388 Q 247 381 214 377 Q 183 370 206 356 Q 236 340 287 350 L 324 360 Z"/>
  <path id="z40674d8" d="M 287 285 Q 235 278 180 266 Q 162 262 133 265 Q 123 265 120 257 Q 117 247 124 239 Q 142 223 167 205 Q 174 202 186 208 Q 225 230 394 283 Q 419 290 437 301 Q 449 307 449 314 Q 445 318 435 318 Q 381 306 323 293 L 287 285 Z"/>
  <path id="z40674d9" d="M 137 166 Q 121 114 94 68 Q 79 35 97 7 Q 104 -9 123 4 Q 168 43 165 115 Q 166 145 159 167 Q 155 174 148 175 Q 141 174 137 166 Z"/>
  <path id="z40674d10" d="M 217 157 Q 233 76 253 65 Q 262 59 273 69 Q 279 78 280 95 Q 277 134 230 174 Q 224 178 219 171 Q 215 167 217 157 Z"/>
  <path id="z40674d11" d="M 310 177 Q 331 108 349 100 Q 358 94 368 106 Q 374 115 373 132 Q 367 162 322 195 Q 315 199 311 191 Q 308 185 310 177 Z"/>
  <path id="z40674d12" d="M 409 188 Q 443 134 454 131 Q 461 130 466 137 Q 470 144 470 165 Q 470 178 453 194 Q 408 224 400 222 Q 396 221 395 212 Q 396 205 409 188 Z"/>
  <path id="z40674d13" d="M 771 641 Q 696 632 616 614 Q 607 611 605 613 Q 602 617 608 625 Q 696 749 716 771 Q 726 781 721 792 Q 714 804 669 825 Q 653 832 644 828 Q 632 822 638 803 Q 659 742 563 634 Q 545 618 521 600 Q 508 588 512 578 Q 518 562 542 543 Q 552 533 564 544 Q 606 575 781 619 Q 782 620 787 620 C 816 626 801 645 771 641 Z"/>
  <path id="z40674d14" d="M 787 620 Q 836 554 840 553 Q 846 552 853 558 Q 863 567 859 601 Q 856 643 747 702 Q 741 706 738 697 Q 737 687 771 641 L 787 620 Z"/>
  <path id="z40674d15" d="M 567 507 Q 567 452 475 374 Q 472 373 470 369 Q 463 359 474 360 Q 510 356 580 421 Q 584 433 624 465 Q 634 472 624 486 Q 594 519 576 519 Q 567 519 567 507 Z"/>
  <path id="z40674d16" d="M 746 492 Q 780 459 816 419 Q 826 407 839 407 Q 848 406 853 417 Q 859 429 854 453 Q 847 492 746 532 Q 733 536 728 535 Q 724 532 724 521 Q 725 511 746 492 Z"/>
  <path id="z40674d17" d="M 645 348 Q 646 352 650 354 Q 656 358 654 367 Q 653 374 641 384 Q 617 405 588 400 Q 581 397 583 387 Q 595 353 542 268 Q 541 267 540 265 Q 524 243 484 198 Q 478 194 486 191 Q 534 209 575 253 L 594 275 Q 606 291 623 315 L 645 348 Z"/>
  <path id="z40674d18" d="M 660 156 Q 603 78 475 39 Q 462 35 474 27 Q 480 23 519 25 Q 612 34 689 118 L 718 158 Q 751 213 781 294 Q 791 321 809 338 Q 825 353 814 365 Q 802 375 773 385 Q 751 392 727 379 Q 706 369 678 358 Q 663 354 645 348 C 616 339 593 314 623 315 Q 645 314 674 323 Q 705 339 712 341 Q 733 337 726 316 Q 710 243 682 191 L 660 156 Z"/>
  <path id="z40674d19" d="M 575 253 Q 602 232 660 156 L 689 118 Q 767 18 804 14 Q 879 10 940 15 Q 971 16 970 26 Q 865 75 759 125 Q 755 129 751 131 Q 735 144 718 158 L 682 191 Q 660 215 636 242 Q 615 267 594 275 C 567 289 552 273 575 253 Z"/>
<defs>
  <clipPath id="z40674c1"><use href="#z40674d1"/></clipPath>
  <clipPath id="z40674c2"><use href="#z40674d2"/></clipPath>
  <clipPath id="z40674c3"><use href="#z40674d3"/></clipPath>
  <clipPath id="z40674c4"><use href="#z40674d4"/></clipPath>
  <clipPath id="z40674c5"><use href="#z40674d5"/></clipPath>
  <clipPath id="z40674c6"><use href="#z40674d6"/></clipPath>
  <clipPath id="z40674c7"><use href="#z40674d7"/></clipPath>
  <clipPath id="z40674c8"><use href="#z40674d8"/></clipPath>
  <clipPath id="z40674c9"><use href="#z40674d9"/></clipPath>
  <clipPath id="z40674c10"><use href="#z40674d10"/></clipPath>
  <clipPath id="z40674c11"><use href="#z40674d11"/></clipPath>
  <clipPath id="z40674c12"><use href="#z40674d12"/></clipPath>
  <clipPath id="z40674c13"><use href="#z40674d13"/></clipPath>
  <clipPath id="z40674c14"><use href="#z40674d14"/></clipPath>
  <clipPath id="z40674c15"><use href="#z40674d15"/></clipPath>
  <clipPath id="z40674c16"><use href="#z40674d16"/></clipPath>
  <clipPath id="z40674c17"><use href="#z40674d17"/></clipPath>
  <clipPath id="z40674c18"><use href="#z40674d18"/></clipPath>
  <clipPath id="z40674c19"><use href="#z40674d19"/></clipPath>
</defs>
<path style="--d:1s;" pathLength="3333" clip-path="url(#z40674c1)" d="M 129 681 L 150 662 L 160 643 L 204 437"/>
<path style="--d:2s;" pathLength="3333" clip-path="url(#z40674c2)" d="M 177 674 L 193 667 L 401 712 L 439 712 L 459 703 L 479 676 L 454 612 L 419 477"/>
<path style="--d:3s;" pathLength="3333" clip-path="url(#z40674c3)" d="M 215 591 L 249 559 L 256 538"/>
<path style="--d:4s;" pathLength="3333" clip-path="url(#z40674c4)" d="M 411 613 L 391 613 L 343 545"/>
<path style="--d:5s;" pathLength="3333" clip-path="url(#z40674c5)" d="M 220 452 L 238 462 L 355 491 L 384 493 L 400 486"/>
<path style="--d:6s;" pathLength="3333" clip-path="url(#z40674c6)" d="M 279 667 L 301 657 L 310 634 L 306 313 L 292 292"/>
<path style="--d:7s;" pathLength="3333" clip-path="url(#z40674c7)" d="M 208 367 L 249 363 L 358 392 L 398 393"/>
<path style="--d:8s;" pathLength="3333" clip-path="url(#z40674c8)" d="M 132 252 L 175 236 L 356 283 L 441 313"/>
<path style="--d:9s;" pathLength="3333" clip-path="url(#z40674c9)" d="M 148 164 L 141 106 L 111 13"/>
<path style="--d:10s;" pathLength="3333" clip-path="url(#z40674c10)" d="M 227 163 L 254 107 L 261 78"/>
<path style="--d:11s;" pathLength="3333" clip-path="url(#z40674c11)" d="M 320 183 L 344 145 L 356 112"/>
<path style="--d:12s;" pathLength="3333" clip-path="url(#z40674c12)" d="M 402 215 L 434 186 L 453 157 L 456 141"/>
<path style="--d:13s;" pathLength="3333" clip-path="url(#z40674c13)" d="M 651 815 L 677 779 L 645 714 L 586 630 L 576 592 L 605 590 L 735 623 L 768 623"/>
<path style="--d:14s;" pathLength="3333" clip-path="url(#z40674c14)" d="M 745 695 L 824 616 L 838 590 L 844 561"/>
<path style="--d:15s;" pathLength="3333" clip-path="url(#z40674c15)" d="M 579 508 L 592 476 L 559 428 L 518 390 L 477 367"/>
<path style="--d:16s;" pathLength="3333" clip-path="url(#z40674c16)" d="M 731 527 L 815 463 L 840 421"/>
<path style="--d:17s;" pathLength="3333" clip-path="url(#z40674c17)" d="M 596 390 L 616 360 L 605 335 L 556 257 L 515 215 L 492 203 L 492 196"/>
<path style="--d:18s;" pathLength="3333" clip-path="url(#z40674c18)" d="M 629 319 L 716 357 L 755 353 L 764 346 L 725 223 L 674 136 L 622 86 L 586 64 L 537 44 L 480 33"/>
<path style="--d:19s;" pathLength="3333" clip-path="url(#z40674c19)" d="M 583 256 L 609 246 L 732 108 L 797 62 L 845 46 L 945 27 L 951 21 L 962 26"/>
</svg>