<svg id="z40836" class="acjk" viewBox="0 0 1024 1024" xmlns="http://www.w3.org/2000/svg">
  <path id="z40836d1" d="M 369 526 Q 373 580 379 630 L 381 658 Q 381 706 399 763 Q 402 773 384 786 Q 353 804 330 808 Q 315 811 308 803 Q 301 796 308 783 Q 324 759 326 743 Q 333 638 329 516 C 328 486 367 496 369 526 Z"/>
  <path id="z40836d2" d="M 379 630 Q 406 627 469 641 Q 518 654 521 656 Q 528 663 524 670 Q 517 680 491 684 Q 466 687 410 665 Q 395 662 381 658 C 352 650 349 632 379 630 Z"/>
  <path id="z40836d3" d="M 255 499 Q 249 595 253 615 Q 254 636 242 647 Q 220 663 195 670 Q 182 674 174 668 Q 167 662 174 649 Q 195 619 218 492 C 223 462 257 469 255 499 Z"/>
  <path id="z40836d4" d="M 218 492 Q 64 465 63 463 Q 62 463 61 460 Q 58 450 73 439 Q 109 414 149 427 Q 309 482 486 508 Q 501 511 502 518 Q 503 530 486 538 Q 456 550 369 526 L 329 516 Q 286 507 255 499 L 218 492 Z"/>
  <path id="z40836d5" d="M 317 326 Q 338 369 357 404 Q 366 417 351 429 Q 306 454 285 450 Q 275 446 279 433 Q 300 346 213 224 Q 204 221 176 175 Q 170 160 183 166 Q 199 170 220 191 Q 278 246 309 308 L 317 326 Z"/>
  <path id="z40836d6" d="M 309 308 Q 348 280 395 237 Q 417 215 428 230 Q 435 240 424 269 Q 417 296 362 313 Q 335 322 317 326 C 288 333 285 326 309 308 Z"/>
  <path id="z40836d7" d="M 450 186 Q 281 164 157 123 Q 138 119 142 141 Q 149 214 157 290 Q 160 312 150 327 Q 135 343 112 356 Q 102 362 91 359 Q 81 355 89 336 Q 120 267 109 199 Q 102 133 74 104 Q 58 88 65 74 Q 75 59 92 49 Q 105 42 115 50 Q 125 63 158 77 Q 243 111 335 132 Q 417 151 437 146 C 467 145 480 190 450 186 Z"/>
  <path id="z40836d8" d="M 437 146 Q 437 125 450 95 Q 457 82 467 91 Q 489 112 495 182 Q 510 293 524 319 Q 531 332 523 343 Q 507 356 480 374 Q 470 381 459 376 Q 452 373 454 361 Q 478 318 450 186 L 437 146 Z"/>
  <path id="z40836d9" d="M 682 650 Q 700 708 726 742 Q 733 752 727 765 Q 721 777 691 794 Q 663 807 645 805 Q 627 801 638 780 Q 668 738 596 576 Q 562 503 514 418 Q 507 408 505 401 Q 504 391 516 394 Q 573 421 672 628 L 682 650 Z"/>
  <path id="z40836d10" d="M 672 628 Q 733 540 812 448 Q 828 432 854 433 Q 942 437 971 443 Q 978 444 980 449 Q 980 453 969 459 Q 834 513 770 569 Q 728 606 682 650 C 660 671 655 653 672 628 Z"/>
  <path id="z40836d11" d="M 629 421 Q 659 396 690 367 Q 700 357 713 358 Q 722 358 725 369 Q 729 379 722 403 Q 718 422 688 437 Q 622 464 608 459 Q 604 455 605 445 Q 608 438 629 421 Z"/>
  <path id="z40836d12" d="M 687 100 Q 795 221 848 257 Q 861 264 860 276 Q 859 288 786 322 Q 758 334 745 326 Q 678 286 558 250 Q 536 246 553 229 Q 577 210 601 221 Q 706 278 733 273 Q 751 266 749 254 Q 749 247 673 108 C 659 82 667 78 687 100 Z"/>
  <path id="z40836d13" d="M 673 108 Q 630 135 604 147 Q 597 151 595 141 Q 594 129 603 120 Q 664 62 736 -22 Q 749 -41 762 -45 Q 769 -46 777 -38 Q 787 -26 778 12 Q 772 51 691 98 Q 690 99 687 100 L 673 108 Z"/>
<defs>
  <clipPath id="z40836c1"><use href="#z40836d1"/></clipPath>
  <clipPath id="z40836c2"><use href="#z40836d2"/></clipPath>
  <clipPath id="z40836c3"><use href="#z40836d3"/></clipPath>
  <clipPath id="z40836c4"><use href="#z40836d4"/></clipPath>
  <clipPath id="z40836c5"><use href="#z40836d5"/></clipPath>
  <clipPath id="z40836c6"><use href="#z40836d6"/></clipPath>
  <clipPath id="z40836c7"><use href="#z40836d7"/></clipPath>
  <clipPath id="z40836c8"><use href="#z40836d8"/></clipPath>
  <clipPath id="z40836c9"><use href="#z40836d9"/></clipPath>
  <clipPath id="z40836c10"><use href="#z40836d10"/></clipPath>
  <clipPath id="z40836c11"><use href="#z40836d11"/></clipPath>
  <clipPath id="z40836c12"><use href="#z40836d12"/></clipPath>
  <clipPath id="z40836c13"><use href="#z40836d13"/></clipPath>
</defs>
<path style="--d:1s;" pathLength="3333" clip-path="url(#z40836c1)" d="M 320 793 L 350 770 L 360 747 L 351 551 L 334 524"/>
<path style="--d:2s;" pathLength="3333" clip-path="url(#z40836c2)" d="M 384 637 L 468 662 L 515 665"/>
<path style="--d:3s;" pathLength="3333" clip-path="url(#z40836c3)" d="M 183 659 L 221 620 L 233 513 L 222 504"/>
<path style="--d:4s;" pathLength="3333" clip-path="url(#z40836c4)" d="M 65 459 L 86 451 L 124 448 L 421 519 L 492 521"/>
<path style="--d:5s;" pathLength="3333" clip-path="url(#z40836c5)" d="M 289 439 L 318 406 L 300 343 L 253 252 L 186 175"/>
<path style="--d:6s;" pathLength="3333" clip-path="url(#z40836c6)" d="M 322 318 L 397 268 L 417 237"/>
<path style="--d:7s;" pathLength="3333" clip-path="url(#z40836c7)" d="M 97 349 L 127 313 L 131 298 L 130 209 L 117 99 L 157 100 L 311 146 L 424 165 L 442 181"/>
<path style="--d:8s;" pathLength="3333" clip-path="url(#z40836c8)" d="M 467 365 L 494 327 L 459 97"/>
<path style="--d:9s;" pathLength="3333" clip-path="url(#z40836c9)" d="M 647 791 L 672 772 L 685 752 L 660 666 L 598 528 L 543 437 L 513 402"/>
<path style="--d:10s;" pathLength="3333" clip-path="url(#z40836c10)" d="M 685 642 L 685 629 L 744 563 L 844 473 L 972 451"/>
<path style="--d:11s;" pathLength="3333" clip-path="url(#z40836c11)" d="M 612 451 L 690 404 L 713 370"/>
<path style="--d:12s;" pathLength="3333" clip-path="url(#z40836c12)" d="M 556 239 L 604 242 L 726 294 L 759 296 L 781 283 L 791 270 L 787 255 L 686 117 L 689 112"/>
<path style="--d:13s;" pathLength="3333" clip-path="url(#z40836c13)" d="M 604 137 L 727 36 L 746 14 L 763 -31"/>
</svg>