<svg id="z40766" class="acjk" viewBox="0 0 1024 1024" xmlns="http://www.w3.org/2000/svg">
  <path id="z40766d1" d="M 298 745 Q 322 766 347 789 Q 360 805 379 816 Q 395 826 384 840 Q 371 852 348 861 Q 326 870 317 866 Q 307 863 311 852 Q 317 831 260 736 C 245 710 275 725 298 745 Z"/>
  <path id="z40766d2" d="M 233 731 Q 223 735 200 741 Q 190 744 186 740 Q 182 734 188 721 Q 212 663 222 570 Q 223 542 239 522 Q 252 503 258 516 Q 259 522 261 528 L 262 547 Q 262 577 258 588 L 255 608 Q 252 629 250 645 L 248 665 Q 244 693 244 706 C 243 727 243 727 233 731 Z"/>
  <path id="z40766d3" d="M 393 546 Q 405 528 417 522 Q 426 516 438 533 Q 451 555 479 673 Q 486 697 505 716 Q 515 726 506 737 Q 494 750 461 772 Q 452 776 387 764 Q 383 764 298 745 L 260 736 Q 245 735 233 731 C 204 724 217 694 244 706 Q 253 716 401 741 Q 422 745 429 738 Q 439 725 438 711 Q 416 600 406 584 Q 403 575 390 570 C 380 563 380 563 393 546 Z"/>
  <path id="z40766d4" d="M 250 645 Q 254 645 260 645 Q 323 658 370 665 Q 388 669 381 678 Q 372 688 353 692 Q 326 695 248 665 C 220 654 220 645 250 645 Z"/>
  <path id="z40766d5" d="M 258 588 Q 259 588 263 588 Q 324 597 369 601 Q 387 604 381 614 Q 372 626 353 629 Q 323 635 255 608 C 227 597 228 588 258 588 Z"/>
  <path id="z40766d6" d="M 261 528 Q 265 527 274 528 Q 340 540 393 546 C 423 549 417 557 390 570 Q 389 571 383 573 Q 368 574 262 547 C 233 540 231 531 261 528 Z"/>
  <path id="z40766d7" d="M 197 465 Q 184 469 166 472 Q 156 475 152 470 Q 148 464 155 450 Q 177 404 193 328 Q 196 306 209 290 Q 225 271 230 285 Q 231 289 232 295 L 233 314 Q 232 324 231 334 Q 218 413 215 438 C 212 461 212 461 197 465 Z"/>
  <path id="z40766d8" d="M 414 317 Q 426 301 437 294 Q 446 288 458 305 Q 468 321 491 405 Q 498 430 518 451 Q 528 461 519 473 Q 507 486 472 508 Q 457 514 389 500 Q 386 500 275 480 Q 235 471 197 465 C 167 460 186 430 215 438 Q 251 448 302 458 L 331 463 Q 362 470 404 474 Q 432 478 440 469 Q 449 459 447 449 Q 431 353 415 343 C 404 329 404 329 414 317 Z"/>
  <path id="z40766d9" d="M 346 386 Q 374 393 401 396 Q 420 399 413 410 Q 404 422 383 425 Q 370 426 350 422 L 307 409 Q 276 400 249 391 Q 236 387 253 375 Q 254 375 308 378 L 346 386 Z"/>
  <path id="z40766d10" d="M 341 336 Q 342 364 346 386 L 350 422 Q 350 425 351 426 Q 357 441 331 463 C 308 483 298 488 302 458 Q 306 428 307 409 L 308 378 Q 308 359 308 329 C 308 299 340 306 341 336 Z"/>
  <path id="z40766d11" d="M 232 295 Q 239 294 253 295 Q 344 310 414 317 C 444 320 444 337 415 343 Q 409 344 407 345 Q 382 349 341 336 L 308 329 Q 266 322 233 314 C 204 307 202 297 232 295 Z"/>
  <path id="z40766d12" d="M 404 227 Q 446 234 496 237 Q 512 238 513 246 Q 514 258 498 267 Q 473 280 451 276 Q 190 228 90 224 Q 78 223 75 216 Q 71 206 85 195 Q 116 168 171 181 Q 190 187 212 191 L 250 200 Q 283 210 372 223 L 404 227 Z"/>
  <path id="z40766d13" d="M 212 191 Q 224 167 208 102 Q 189 42 117 1 Q 105 -6 115 -9 Q 155 -12 199 18 Q 239 46 272 132 Q 275 145 283 157 Q 292 172 279 180 Q 266 193 253 199 Q 252 200 250 200 C 223 212 202 219 212 191 Z"/>
  <path id="z40766d14" d="M 372 223 Q 388 199 374 75 Q 373 75 373 72 Q 373 62 371 56 Q 367 23 391 -15 Q 401 -31 407 -34 Q 416 -35 420 -24 Q 424 -9 426 75 Q 423 171 427 198 Q 428 208 423 212 Q 413 221 404 227 C 380 244 359 250 372 223 Z"/>
  <path id="z40766d15" d="M 694 601 Q 856 637 859 639 Q 868 646 863 656 Q 856 668 826 676 Q 795 682 765 670 Q 723 657 678 645 Q 629 635 570 630 Q 533 623 559 606 Q 592 588 640 591 L 694 601 Z"/>
  <path id="z40766d16" d="M 722 416 Q 791 426 901 427 Q 947 424 956 435 Q 960 445 945 459 Q 894 495 830 478 Q 785 469 722 456 L 667 447 Q 597 437 519 425 Q 500 422 514 407 Q 527 394 545 390 Q 564 386 579 390 Q 621 402 668 408 L 722 416 Z"/>
  <path id="z40766d17" d="M 669 -18 Q 675 -43 682 -53 Q 688 -60 695 -58 Q 710 -49 716 11 Q 725 87 722 163 Q 719 220 722 416 L 722 456 Q 722 492 733 558 Q 737 576 722 585 Q 706 595 694 601 C 668 616 624 616 640 591 Q 667 564 667 447 L 668 408 Q 662 45 669 -18 Z"/>
<defs>
  <clipPath id="z40766c1"><use href="#z40766d1"/></clipPath>
  <clipPath id="z40766c2"><use href="#z40766d2"/></clipPath>
  <clipPath id="z40766c3"><use href="#z40766d3"/></clipPath>
  <clipPath id="z40766c4"><use href="#z40766d4"/></clipPath>
  <clipPath id="z40766c5"><use href="#z40766d5"/></clipPath>
  <clipPath id="z40766c6"><use href="#z40766d6"/></clipPath>
  <clipPath id="z40766c7"><use href="#z40766d7"/></clipPath>
  <clipPath id="z40766c8"><use href="#z40766d8"/></clipPath>
  <clipPath id="z40766c9"><use href="#z40766d9"/></clipPath>
  <clipPath id="z40766c10"><use href="#z40766d10"/></clipPath>
  <clipPath id="z40766c11"><use href="#z40766d11"/></clipPath>
  <clipPath id="z40766c12"><use href="#z40766d12"/></clipPath>
  <clipPath id="z40766c13"><use href="#z40766d13"/></clipPath>
  <clipPath id="z40766c14"><use href="#z40766d14"/></clipPath>
  <clipPath id="z40766c15"><use href="#z40766d15"/></clipPath>
  <clipPath id="z40766c16"><use href="#z40766d16"/></clipPath>
  <clipPath id="z40766c17"><use href="#z40766d17"/></clipPath>
</defs>
<path style="--d:1s;" pathLength="3333" clip-path="url(#z40766c1)" d="M 374 830 L 341 828 L 301 771 L 277 749"/>
<path style="--d:2s;" pathLength="3333" clip-path="url(#z40766c2)" d="M 193 735 L 220 703 L 249 521"/>
<path style="--d:3s;" pathLength="3333" clip-path="url(#z40766c3)" d="M 242 712 L 250 723 L 401 756 L 451 749 L 469 725 L 435 593 L 418 556 L 400 565"/>
<path style="--d:4s;" pathLength="3333" clip-path="url(#z40766c4)" d="M 255 651 L 263 659 L 340 677 L 373 673"/>
<path style="--d:5s;" pathLength="3333" clip-path="url(#z40766c5)" d="M 261 593 L 286 605 L 329 613 L 358 615 L 372 610"/>
<path style="--d:6s;" pathLength="3333" clip-path="url(#z40766c6)" d="M 268 532 L 274 542 L 321 551 L 376 558 L 386 551"/>
<path style="--d:7s;" pathLength="3333" clip-path="url(#z40766c7)" d="M 160 465 L 182 446 L 193 421 L 220 290"/>
<path style="--d:8s;" pathLength="3333" clip-path="url(#z40766c8)" d="M 205 464 L 214 457 L 231 456 L 314 476 L 422 492 L 463 483 L 481 460 L 441 332 L 442 309"/>
<path style="--d:9s;" pathLength="3333" clip-path="url(#z40766c9)" d="M 252 383 L 370 409 L 405 405"/>
<path style="--d:10s;" pathLength="3333" clip-path="url(#z40766c10)" d="M 311 452 L 329 432 L 326 357 L 312 336"/>
<path style="--d:11s;" pathLength="3333" clip-path="url(#z40766c11)" d="M 237 300 L 244 306 L 399 331 L 409 337"/>
<path style="--d:12s;" pathLength="3333" clip-path="url(#z40766c12)" d="M 85 211 L 111 203 L 158 203 L 443 255 L 483 255 L 502 249"/>
<path style="--d:13s;" pathLength="3333" clip-path="url(#z40766c13)" d="M 219 188 L 249 163 L 226 85 L 206 51 L 183 27 L 122 -5"/>
<path style="--d:14s;" pathLength="3333" clip-path="url(#z40766c14)" d="M 378 222 L 399 206 L 403 196 L 398 39 L 409 -25"/>
<path style="--d:15s;" pathLength="3333" clip-path="url(#z40766c15)" d="M 562 619 L 618 612 L 703 625 L 804 653 L 855 648"/>
<path style="--d:16s;" pathLength="3333" clip-path="url(#z40766c16)" d="M 517 416 L 570 410 L 844 454 L 904 453 L 948 440"/>
<path style="--d:17s;" pathLength="3333" clip-path="url(#z40766c17)" d="M 647 591 L 696 555 L 691 -49"/>
</svg>