<svg id="z40474" class="acjk" viewBox="0 0 1024 1024" xmlns="http://www.w3.org/2000/svg">
  <path id="z40474d1" d="M 219 482 Q 220 486 222 491 L 224 518 Q 224 536 223 556 L 222 582 Q 221 610 221 631 L 221 658 Q 220 695 221 700 Q 221 704 221 706 C 221 719 221 719 212 726 Q 205 733 189 739 Q 183 742 176 738 Q 172 735 175 727 Q 203 630 186 539 Q 180 506 200 477 C 211 459 211 459 219 482 Z"/>
  <path id="z40474d2" d="M 287 497 Q 293 487 300 476 Q 310 458 317 460 Q 323 461 331 478 Q 334 487 339 578 Q 339 695 351 716 Q 358 729 353 737 Q 347 744 311 756 Q 293 762 281 754 Q 244 736 212 726 C 184 717 192 698 221 706 Q 290 725 293 725 Q 294 725 296 724 Q 311 705 299 538 Q 302 520 286 523 Q 282 524 281 523 C 271 523 271 523 287 497 Z"/>
  <path id="z40474d3" d="M 221 631 Q 252 638 276 642 Q 292 646 285 655 Q 276 665 258 666 Q 243 666 221 658 C 193 648 192 624 221 631 Z"/>
  <path id="z40474d4" d="M 223 556 Q 251 563 274 569 Q 290 575 282 583 Q 272 592 254 591 Q 239 591 222 582 C 195 568 194 549 223 556 Z"/>
  <path id="z40474d5" d="M 222 491 Q 226 491 231 492 Q 247 495 287 497 C 315 498 305 505 281 523 Q 280 524 278 525 Q 263 531 224 518 C 195 509 192 490 222 491 Z"/>
  <path id="z40474d6" d="M 200 477 Q 206 447 133 374 Q 127 370 126 367 Q 123 363 130 363 Q 151 363 220 431 Q 229 441 236 447 Q 240 451 240 458 Q 237 473 219 482 C 199 493 199 493 200 477 Z"/>
  <path id="z40474d7" d="M 266 439 Q 300 409 313 409 Q 320 409 323 421 Q 323 428 316 440 Q 300 456 267 456 Q 261 456 262 449 Q 261 445 266 439 Z"/>
  <path id="z40474d8" d="M 409 761 Q 406 762 404 764 Q 389 776 377 771 Q 373 768 376 761 Q 377 755 381 749 Q 400 713 390 570 Q 375 509 399 479 Q 406 472 412 479 Q 416 488 418 498 L 420 525 Q 420 544 419 564 L 419 590 Q 418 626 418 651 L 418 675 Q 418 708 419 740 C 419 754 419 754 409 761 Z"/>
  <path id="z40474d9" d="M 491 505 Q 492 501 496 494 Q 503 475 510 475 Q 520 476 531 496 Q 541 512 541 527 Q 522 695 557 750 Q 564 760 558 767 Q 506 809 463 780 Q 453 777 443 772 Q 425 766 409 761 C 380 752 390 732 419 740 Q 423 741 428 742 Q 461 755 485 764 Q 494 767 497 763 Q 509 747 506 696 Q 502 551 493 523 Q 492 523 492 522 C 489 510 489 510 491 505 Z"/>
  <path id="z40474d10" d="M 418 651 Q 451 657 473 661 Q 489 667 481 675 Q 472 684 454 685 Q 439 685 418 675 C 391 662 388 646 418 651 Z"/>
  <path id="z40474d11" d="M 419 564 Q 419 565 420 565 Q 447 572 466 577 Q 482 584 474 591 Q 464 600 446 598 Q 433 598 419 590 C 393 575 394 547 419 564 Z"/>
  <path id="z40474d12" d="M 418 498 Q 421 498 426 499 Q 445 503 491 505 C 509 506 509 506 492 522 Q 488 526 478 533 Q 459 542 420 525 C 392 513 388 496 418 498 Z"/>
  <path id="z40474d13" d="M 392 456 Q 392 432 338 376 Q 337 370 343 370 Q 361 370 414 413 Q 421 420 426 422 Q 432 426 431 433 Q 430 440 419 453 Q 409 463 399 466 Q 390 467 392 456 Z"/>
  <path id="z40474d14" d="M 479 433 Q 497 418 515 400 Q 522 393 533 392 Q 539 393 542 401 Q 545 408 540 427 Q 531 449 477 461 Q 467 464 464 462 Q 461 461 462 452 Q 463 445 479 433 Z"/>
  <path id="z40474d15" d="M 311 331 Q 315 341 321 347 Q 328 353 326 360 Q 322 370 293 391 Q 286 398 277 395 Q 267 392 273 381 Q 282 360 267 323 L 256 289 Q 246 264 235 247 Q 228 234 231 223 Q 232 216 246 214 Q 294 199 323 179 L 358 156 Q 424 111 434 111 Q 450 112 449 128 Q 449 143 425 176 Q 415 192 392 200 Q 391 201 389 201 L 349 213 Q 306 228 279 231 Q 264 234 271 248 Q 286 279 295 297 L 311 331 Z"/>
  <path id="z40474d16" d="M 323 179 Q 274 131 162 99 Q 149 92 165 89 Q 280 80 358 156 L 389 201 Q 407 232 417 268 Q 427 308 438 318 C 456 342 377 340 377 310 Q 380 279 349 213 L 323 179 Z"/>
  <path id="z40474d17" d="M 438 318 Q 463 322 490 324 Q 503 325 505 331 Q 506 343 491 351 Q 464 363 408 350 Q 408 351 407 351 Q 391 358 376 356 Q 366 353 369 342 Q 336 336 311 331 L 267 323 Q 117 304 77 301 Q 67 300 63 293 Q 60 284 73 274 Q 103 252 150 262 Q 207 280 256 289 L 295 297 Q 295 298 299 298 Q 335 305 377 310 L 438 318 Z"/>
  <path id="z40474d18" d="M 644 668 Q 675 704 695 726 Q 743 789 758 799 Q 774 812 760 825 Q 744 837 718 843 Q 694 850 684 844 Q 672 840 680 829 Q 689 807 627 669 Q 626 668 626 665 C 616 637 624 645 644 668 Z"/>
  <path id="z40474d19" d="M 604 407 L 604 475 L 604 500 Q 604 504 605 506 Q 604 537 606 562 L 608 581 Q 611 611 619 635 C 624 653 624 653 613 662 Q 600 674 580 681 Q 564 687 558 679 Q 552 675 559 665 Q 575 632 573 564 Q 572 509 571 441 Q 571 374 557 320 Q 551 301 564 287 Q 582 272 602 285 C 608 287 606 316 605 346 Q 604 365 604 383 L 604 407 Z"/>
  <path id="z40474d20" d="M 750 497 Q 751 496 753 492 Q 769 458 795 481 Q 814 499 827 563 Q 836 609 859 639 Q 872 655 861 670 Q 845 686 817 706 Q 804 713 787 708 Q 718 683 644 668 L 626 665 Q 619 665 613 662 C 584 655 590 626 619 635 Q 619 636 622 636 Q 763 681 787 669 Q 793 665 789 645 Q 779 588 769 541 Q 765 525 756 520 C 744 507 744 507 750 497 Z"/>
  <path id="z40474d21" d="M 606 562 Q 612 561 623 562 Q 680 572 722 579 Q 741 583 733 594 Q 723 606 702 608 Q 678 609 608 581 C 580 570 576 565 606 562 Z"/>
  <path id="z40474d22" d="M 604 475 Q 605 475 607 474 Q 616 473 626 476 Q 665 486 750 497 C 779 501 779 501 756 520 Q 752 524 743 529 Q 730 535 706 527 Q 649 511 604 500 C 575 493 575 482 604 475 Z"/>
  <path id="z40474d23" d="M 604 383 Q 608 382 620 383 Q 705 396 767 405 Q 789 409 781 421 Q 771 434 747 439 Q 728 442 604 407 C 575 399 574 385 604 383 Z"/>
  <path id="z40474d24" d="M 602 285 Q 650 315 816 325 Q 867 332 883 315 Q 893 303 879 262 Q 870 204 858 141 Q 849 93 827 63 Q 818 56 756 70 Q 735 76 734 71 Q 734 65 742 57 Q 782 5 794 -27 Q 801 -49 820 -39 Q 845 -29 867 -12 Q 891 16 898 54 Q 919 139 934 233 Q 943 270 961 300 Q 974 316 963 328 Q 947 349 911 370 Q 892 383 863 371 Q 824 356 788 354 Q 739 350 635 334 Q 610 324 605 346 C 582 366 575 272 602 285 Z"/>
  <path id="z40474d25" d="M 506 234 Q 496 194 477 158 Q 465 134 482 109 Q 489 96 504 108 Q 534 136 531 194 Q 531 219 523 236 Q 519 242 514 242 Q 508 241 506 234 Z"/>
  <path id="z40474d26" d="M 578 228 Q 581 162 592 151 Q 599 144 610 151 Q 617 158 620 172 Q 623 203 592 241 Q 588 245 582 240 Q 578 236 578 228 Z"/>
  <path id="z40474d27" d="M 656 240 Q 666 182 679 173 Q 686 167 697 176 Q 701 183 704 199 Q 701 226 668 254 Q 664 258 659 252 Q 655 248 656 240 Z"/>
  <path id="z40474d28" d="M 745 243 Q 769 195 790 182 Q 800 178 808 185 Q 815 194 816 206 Q 813 236 760 268 Q 750 275 742 274 Q 738 274 737 265 Q 736 256 745 243 Z"/>
<defs>
  <clipPath id="z40474c1"><use href="#z40474d1"/></clipPath>
  <clipPath id="z40474c2"><use href="#z40474d2"/></clipPath>
  <clipPath id="z40474c3"><use href="#z40474d3"/></clipPath>
  <clipPath id="z40474c4"><use href="#z40474d4"/></clipPath>
  <clipPath id="z40474c5"><use href="#z40474d5"/></clipPath>
  <clipPath id="z40474c6"><use href="#z40474d6"/></clipPath>
  <clipPath id="z40474c7"><use href="#z40474d7"/></clipPath>
  <clipPath id="z40474c8"><use href="#z40474d8"/></clipPath>
  <clipPath id="z40474c9"><use href="#z40474d9"/></clipPath>
  <clipPath id="z40474c10"><use href="#z40474d10"/></clipPath>
  <clipPath id="z40474c11"><use href="#z40474d11"/></clipPath>
  <clipPath id="z40474c12"><use href="#z40474d12"/></clipPath>
  <clipPath id="z40474c13"><use href="#z40474d13"/></clipPath>
  <clipPath id="z40474c14"><use href="#z40474d14"/></clipPath>
  <clipPath id="z40474c15"><use href="#z40474d15"/></clipPath>
  <clipPath id="z40474c16"><use href="#z40474d16"/></clipPath>
  <clipPath id="z40474c17"><use href="#z40474d17"/></clipPath>
  <clipPath id="z40474c18"><use href="#z40474d18"/></clipPath>
  <clipPath id="z40474c19"><use href="#z40474d19"/></clipPath>
  <clipPath id="z40474c20"><use href="#z40474d20"/></clipPath>
  <clipPath id="z40474c21"><use href="#z40474d21"/></clipPath>
  <clipPath id="z40474c22"><use href="#z40474d22"/></clipPath>
  <clipPath id="z40474c23"><use href="#z40474d23"/></clipPath>
  <clipPath id="z40474c24"><use href="#z40474d24"/></clipPath>
  <clipPath id="z40474c25"><use href="#z40474d25"/></clipPath>
  <clipPath id="z40474c26"><use href="#z40474d26"/></clipPath>
  <clipPath id="z40474c27"><use href="#z40474d27"/></clipPath>
  <clipPath id="z40474c28"><use href="#z40474d28"/></clipPath>
</defs>
<path style="--d:1s;" pathLength="3333" clip-path="url(#z40474c1)" d="M 183 732 L 198 714 L 206 668 L 207 495 L 202 488"/>
<path style="--d:2s;" pathLength="3333" clip-path="url(#z40474c2)" d="M 220 724 L 231 717 L 293 742 L 316 733 L 325 723 L 319 600 L 323 591 L 318 525 L 310 504 L 316 468"/>
<path style="--d:3s;" pathLength="3333" clip-path="url(#z40474c3)" d="M 227 638 L 235 648 L 275 652"/>
<path style="--d:4s;" pathLength="3333" clip-path="url(#z40474c4)" d="M 229 563 L 236 573 L 276 577"/>
<path style="--d:5s;" pathLength="3333" clip-path="url(#z40474c5)" d="M 226 498 L 238 509 L 252 511 L 269 511 L 277 502"/>
<path style="--d:6s;" pathLength="3333" clip-path="url(#z40474c6)" d="M 206 473 L 218 458 L 203 432 L 176 402 L 132 369"/>
<path style="--d:7s;" pathLength="3333" clip-path="url(#z40474c7)" d="M 272 447 L 312 420"/>
<path style="--d:8s;" pathLength="3333" clip-path="url(#z40474c8)" d="M 384 765 L 398 749 L 404 721 L 407 615 L 401 525 L 406 487"/>
<path style="--d:9s;" pathLength="3333" clip-path="url(#z40474c9)" d="M 416 758 L 432 755 L 475 774 L 500 778 L 529 755 L 517 636 L 520 537 L 511 485"/>
<path style="--d:10s;" pathLength="3333" clip-path="url(#z40474c10)" d="M 425 657 L 431 667 L 460 673 L 475 669"/>
<path style="--d:11s;" pathLength="3333" clip-path="url(#z40474c11)" d="M 427 572 L 432 582 L 468 585"/>
<path style="--d:12s;" pathLength="3333" clip-path="url(#z40474c12)" d="M 421 505 L 434 516 L 461 520 L 474 519 L 482 510"/>
<path style="--d:13s;" pathLength="3333" clip-path="url(#z40474c13)" d="M 401 457 L 408 433 L 345 377"/>
<path style="--d:14s;" pathLength="3333" clip-path="url(#z40474c14)" d="M 470 456 L 518 425 L 531 403"/>
<path style="--d:15s;" pathLength="3333" clip-path="url(#z40474c15)" d="M 282 386 L 299 357 L 250 233 L 273 218 L 320 204 L 395 167 L 435 125"/>
<path style="--d:16s;" pathLength="3333" clip-path="url(#z40474c16)" d="M 425 308 L 399 290 L 380 229 L 339 165 L 291 130 L 251 112 L 173 97"/>
<path style="--d:17s;" pathLength="3333" clip-path="url(#z40474c17)" d="M 72 289 L 99 282 L 138 283 L 382 328 L 389 334 L 463 340 L 497 335"/>
<path style="--d:18s;" pathLength="3333" clip-path="url(#z40474c18)" d="M 751 813 L 715 807 L 685 747 L 630 666"/>
<path style="--d:19s;" pathLength="3333" clip-path="url(#z40474c19)" d="M 567 673 L 587 654 L 594 636 L 587 389 L 579 307 L 591 293"/>
<path style="--d:20s;" pathLength="3333" clip-path="url(#z40474c20)" d="M 618 642 L 641 655 L 741 681 L 790 689 L 809 682 L 826 654 L 787 515 L 778 500 L 761 500"/>
<path style="--d:21s;" pathLength="3333" clip-path="url(#z40474c21)" d="M 610 566 L 620 575 L 671 587 L 706 592 L 725 588"/>
<path style="--d:22s;" pathLength="3333" clip-path="url(#z40474c22)" d="M 608 481 L 627 492 L 744 517"/>
<path style="--d:23s;" pathLength="3333" clip-path="url(#z40474c23)" d="M 608 389 L 620 399 L 698 414 L 750 421 L 771 415"/>
<path style="--d:24s;" pathLength="3333" clip-path="url(#z40474c24)" d="M 603 293 L 621 313 L 647 321 L 862 348 L 893 346 L 920 321 L 925 312 L 904 235 L 885 125 L 853 35 L 825 15 L 738 69"/>
<path style="--d:25s;" pathLength="3333" clip-path="url(#z40474c25)" d="M 515 233 L 515 201 L 493 115"/>
<path style="--d:26s;" pathLength="3333" clip-path="url(#z40474c26)" d="M 588 231 L 601 187 L 601 161"/>
<path style="--d:27s;" pathLength="3333" clip-path="url(#z40474c27)" d="M 666 244 L 683 208 L 686 184"/>
<path style="--d:28s;" pathLength="3333" clip-path="url(#z40474c28)" d="M 745 266 L 797 197"/>
</svg>