<svg id="z13496" class="acjk" viewBox="0 0 1024 1024" xmlns="http://www.w3.org/2000/svg">
<style>
<![CDATA[
@keyframes zk {
	to {
		stroke-dashoffset:0;
	}
}
svg.acjk path[clip-path] {
	--t:0.8s;
	animation:zk var(--t) linear forwards var(--d);
	stroke-dasharray:3337;
	stroke-dashoffset:3339;
	stroke-width:128;
	stroke-linecap:round;
	stroke-linejoin:round;
	fill:none;
	stroke:#000;
}
svg.acjk path[id] {fill:#ccc;}
]]>
</style>
  <path id="z13496d1" d="M 468 731 Q 484 715 502 693 Q 514 680 529 680 Q 539 680 545 693 Q 549 706 543 735 Q 539 751 515 762 Q 460 783 444 779 Q 440 775 440 763 Q 443 753 468 731 Z"/>
  <path id="z13496d2" d="M 688 798 Q 670 767 618 695 Q 608 677 626 681 Q 644 693 734 754 Q 753 772 778 783 Q 800 795 787 813 Q 772 829 745 844 Q 720 857 706 854 Q 693 853 697 838 Q 701 819 688 798 Z"/>
  <path id="z13496d3" d="M 580 599 Q 754 638 759 642 Q 766 649 763 657 Q 756 667 730 675 Q 702 679 675 669 Q 621 650 564 636 Q 500 621 424 614 Q 391 608 415 593 Q 454 572 515 586 Q 525 589 538 590 L 580 599 Z"/>
  <path id="z13496d4" d="M 500 468 Q 537 498 563 524 Q 579 540 589 549 Q 596 556 593 570 Q 587 588 580 599 C 565 625 549 618 538 590 Q 511 515 381 420 Q 375 417 374 411 Q 373 407 378 407 Q 403 404 474 449 L 500 468 Z"/>
  <path id="z13496d5" d="M 597 383 Q 552 443 500 468 C 474 482 451 468 474 449 Q 480 446 491 435 L 539 392 Q 549 380 561 366 L 596 308 Q 641 236 604 91 Q 594 54 583 50 Q 574 46 515 54 Q 473 63 472 56 Q 471 49 483 35 Q 543 -14 567 -48 Q 580 -67 597 -64 Q 616 -61 633 -36 Q 678 51 670 196 Q 658 274 647 299 L 597 383 Z"/>
  <path id="z13496d6" d="M 491 435 Q 490 434 490 431 Q 480 371 348 259 Q 330 246 353 249 Q 416 256 514 363 Q 529 381 539 392 C 559 414 498 464 491 435 Z"/>
  <path id="z13496d7" d="M 561 366 Q 557 363 553 354 Q 498 216 335 77 Q 322 62 332 61 Q 353 52 424 101 Q 490 146 559 245 Q 590 288 590 291 Q 594 300 596 308 C 605 337 578 391 561 366 Z"/>
  <path id="z13496d8" d="M 623 363 Q 654 381 752 445 Q 773 461 799 473 Q 821 483 811 503 Q 796 522 768 538 Q 743 553 729 550 Q 716 549 719 534 Q 723 510 653 423 Q 632 402 609 374 C 590 351 597 348 623 363 Z"/>
  <path id="z13496d9" d="M 647 299 Q 785 170 818 163 Q 876 156 979 181 Q 997 185 998 190 Q 999 197 985 201 Q 796 258 779 267 Q 772 271 766 274 Q 708 302 623 363 L 609 374 Q 603 378 597 383 C 573 401 625 319 647 299 Z"/>
<defs>
  <clipPath id="z13496c1"><use href="#z13496d1"/></clipPath>
  <clipPath id="z13496c2"><use href="#z13496d2"/></clipPath>
  <clipPath id="z13496c3"><use href="#z13496d3"/></clipPath>
  <clipPath id="z13496c4"><use href="#z13496d4"/></clipPath>
  <clipPath id="z13496c5"><use href="#z13496d5"/></clipPath>
  <clipPath id="z13496c6"><use href="#z13496d6"/></clipPath>
  <clipPath id="z13496c7"><use href="#z13496d7"/></clipPath>
  <clipPath id="z13496c8"><use href="#z13496d8"/></clipPath>
  <clipPath id="z13496c9"><use href="#z13496d9"/></clipPath>
</defs>
<path style="--d:1s;" pathLength="3333" clip-path="url(#z13496c1)" d="M 448 773 L 507 733 L 528 698"/>
<path style="--d:2s;" pathLength="3333" clip-path="url(#z13496c2)" d="M 706 844 L 726 823 L 734 804 L 693 755 L 621 688"/>
<path style="--d:3s;" pathLength="3333" clip-path="url(#z13496c3)" d="M 417 605 L 474 599 L 590 620 L 710 653 L 753 652"/>
<path style="--d:4s;" pathLength="3333" clip-path="url(#z13496c4)" d="M 575 588 L 564 566 L 494 488 L 424 434 L 380 413"/>
<path style="--d:5s;" pathLength="3333" clip-path="url(#z13496c5)" d="M 480 450 L 502 448 L 548 411 L 577 378 L 606 331 L 635 269 L 644 223 L 646 167 L 629 57 L 612 20 L 594 0 L 477 53"/>
<path style="--d:6s;" pathLength="3333" clip-path="url(#z13496c6)" d="M 494 425 L 503 390 L 477 355 L 427 304 L 357 257"/>
<path style="--d:7s;" pathLength="3333" clip-path="url(#z13496c7)" d="M 560 358 L 562 302 L 511 224 L 463 166 L 404 110 L 336 69"/>
<path style="--d:8s;" pathLength="3333" clip-path="url(#z13496c8)" d="M 729 539 L 740 529 L 754 497 L 668 411 L 624 376 L 617 377"/>
<path style="--d:9s;" pathLength="3333" clip-path="url(#z13496c9)" d="M 603 378 L 669 304 L 809 213 L 847 201 L 992 191"/>
</svg>