<svg id="z19976" class="acjk" viewBox="0 0 1024 1024" xmlns="http://www.w3.org/2000/svg">
<style>
<![CDATA[
@keyframes zk {
	to {
		stroke-dashoffset:0;
	}
}
svg.acjk path[clip-path] {
	--t:0.8s;
	animation:zk var(--t) linear forwards var(--d);
	stroke-dasharray:3337;
	stroke-dashoffset:3339;
	stroke-width:128;
	stroke-linecap:round;
	stroke-linejoin:round;
	fill:none;
	stroke:#000;
}
svg.acjk path[id] {fill:#ccc;}
]]>
</style>
  <path id="z19976d1" d="M 552 521 Q 618 534 689 547 Q 770 565 782 576 Q 792 585 787 594 Q 780 607 747 617 Q 713 624 678 612 Q 617 593 556 574 L 502 560 Q 493 559 486 557 Q 374 532 244 521 Q 202 515 232 496 Q 280 469 342 481 Q 418 496 500 511 L 552 521 Z"/>
  <path id="z19976d2" d="M 509 230 Q 536 300 542 396 Q 546 460 552 521 L 556 574 Q 557 688 590 759 Q 597 775 586 788 Q 561 810 517 823 Q 489 830 478 824 Q 468 817 476 802 Q 501 759 503 706 Q 504 633 502 560 L 500 511 Q 488 340 467 270 L 450 228 Q 425 174 376 137 Q 306 82 154 34 Q 139 30 138 24 Q 138 20 151 17 Q 176 11 235 25 Q 337 44 409 100 Q 457 137 487 185 L 509 230 Z"/>
  <path id="z19976d3" d="M 487 185 Q 488 184 490 181 Q 646 -2 704 -9 Q 834 -9 900 0 Q 945 4 941 17 Q 940 23 896 36 Q 719 85 661 116 Q 591 155 509 230 L 467 270 Q 421 316 374 367 Q 334 412 296 413 Q 277 414 273 409 Q 270 402 288 389 Q 339 356 450 228 L 487 185 Z"/>
<defs>
  <clipPath id="z19976c1"><use href="#z19976d1"/></clipPath>
  <clipPath id="z19976c2"><use href="#z19976d2"/></clipPath>
  <clipPath id="z19976c3"><use href="#z19976d3"/></clipPath>
</defs>
<path style="--d:1s;" pathLength="3333" clip-path="url(#z19976c1)" d="M 234 510 L 259 503 L 344 506 L 515 538 L 705 585 L 775 588"/>
<path style="--d:2s;" pathLength="3333" clip-path="url(#z19976c2)" d="M 486 813 L 516 792 L 541 763 L 513 370 L 505 312 L 487 246 L 467 202 L 439 161 L 353 91 L 271 54 L 146 22"/>
<path style="--d:3s;" pathLength="3333" clip-path="url(#z19976c3)" d="M 279 406 L 320 389 L 342 372 L 569 137 L 677 57 L 706 42 L 768 31 L 911 13 L 935 15"/>
</svg>