<svg id="z11914" class="acjk" viewBox="0 0 1024 1024" xmlns="http://www.w3.org/2000/svg">
<style>
<![CDATA[
@keyframes zk {
	to {
		stroke-dashoffset:0;
	}
}
svg.acjk path[clip-path] {
	--t:0.8s;
	animation:zk var(--t) linear forwards var(--d);
	stroke-dasharray:3337;
	stroke-dashoffset:3339;
	stroke-width:128;
	stroke-linecap:round;
	stroke-linejoin:round;
	fill:none;
	stroke:#000;
}
svg.acjk path[id] {fill:#ccc;}
]]>
</style>
  <path id="z11914d1" d="M 519 53 Q 517 149 517 156 L 529 400 L 530 439 Q 531 469 533 518 Q 546 730 559 778 Q 563 793 539 808 Q 508 829 464 837 Q 445 841 433 830 Q 429 825 429 821 Q 428 812 443 790 Q 465 757 466 733 Q 470 664 470 600 L 465 397 Q 461 363 457 296 Q 455 262 443 216 Q 439 171 439 129 Q 437 25 447 -3 Q 462 -58 490 -75 Q 498 -76 502 -71 Q 517 -56 519 53 Z"/>
  <path id="z11914d2" d="M 529 400 Q 570 394 663 410 Q 784 435 791 441 Q 797 447 798 453 Q 798 470 753 483 Q 725 489 622 457 L 530 439 C 501 433 499 403 529 400 Z"/>
<defs>
  <clipPath id="z11914c1"><use href="#z11914d1"/></clipPath>
  <clipPath id="z11914c2"><use href="#z11914d2"/></clipPath>
</defs>
<path style="--d:1s;" pathLength="3333" clip-path="url(#z11914c1)" d="M 444 820 L 486 793 L 502 777 L 508 758 L 497 394 L 477 117 L 481 11 L 492 -62"/>
<path style="--d:2s;" pathLength="3333" clip-path="url(#z11914c2)" d="M 535 406 L 556 421 L 630 431 L 712 451 L 755 457 L 784 453"/>
</svg>