<svg id="z14703" class="acjk" viewBox="0 0 1024 1024" xmlns="http://www.w3.org/2000/svg">
<style>
<![CDATA[
@keyframes zk {
	to {
		stroke-dashoffset:0;
	}
}
svg.acjk path[clip-path] {
	--t:0.8s;
	animation:zk var(--t) linear forwards var(--d);
	stroke-dasharray:3337;
	stroke-dashoffset:3339;
	stroke-width:128;
	stroke-linecap:round;
	stroke-linejoin:round;
	fill:none;
	stroke:#000;
}
svg.acjk path[id] {fill:#ccc;}
]]>
</style>
  <path id="z14703d1" d="M 658 804 Q 618 768 481 714 Q 477 707 481 704 Q 529 704 661 751 Q 682 766 744 774 Q 759 774 762 781 Q 766 790 756 800 Q 704 839 678 836 Q 672 833 671 824 Q 670 812 658 804 Z"/>
  <path id="z14703d2" d="M 448 652 Q 482 595 504 591 Q 514 590 522 603 Q 523 613 518 632 Q 512 645 494 654 Q 466 670 454 674 Q 447 677 445 667 Q 444 660 448 652 Z"/>
  <path id="z14703d3" d="M 571 687 Q 604 632 622 628 Q 631 625 638 638 Q 639 648 636 663 Q 627 684 577 706 Q 570 707 569 700 Q 568 694 571 687 Z"/>
  <path id="z14703d4" d="M 754 719 Q 735 694 696 655 Q 692 649 695 643 Q 701 642 707 645 Q 777 682 811 697 Q 826 698 824 708 Q 820 721 806 738 Q 793 754 775 757 Q 763 758 762 742 Q 763 732 754 719 Z"/>
  <path id="z14703d5" d="M 643 571 Q 697 584 746 593 Q 764 597 757 606 Q 748 616 729 620 Q 710 621 679 613 Q 576 585 485 562 Q 472 558 488 547 Q 501 538 528 545 Q 562 554 596 560 L 643 571 Z"/>
  <path id="z14703d6" d="M 643 514 L 643 571 C 643 601 596 590 596 560 L 596 503 C 596 473 643 484 643 514 Z"/>
  <path id="z14703d7" d="M 596 503 Q 530 488 455 472 Q 442 469 452 459 Q 462 450 475 448 Q 490 445 500 449 Q 644 501 794 502 L 796 502 Q 809 503 812 510 Q 815 517 803 526 Q 767 551 707 532 Q 677 525 643 514 L 596 503 Z"/>
  <path id="z14703d8" d="M 751 283 Q 778 371 809 395 Q 824 411 811 427 Q 796 439 751 460 Q 735 467 717 459 Q 617 417 477 401 Q 462 400 464 391 Q 467 384 482 379 Q 504 370 534 380 Q 618 398 698 415 Q 719 421 727 412 Q 736 403 733 386 Q 723 335 710 294 C 701 265 742 254 751 283 Z"/>
  <path id="z14703d9" d="M 466 322 Q 453 319 469 307 Q 479 300 503 303 Q 612 324 692 336 Q 711 339 705 350 Q 696 362 675 366 Q 656 369 621 360 Q 539 338 466 322 Z"/>
  <path id="z14703d10" d="M 710 294 Q 703 295 696 292 Q 570 261 470 249 Q 451 248 462 231 Q 477 216 511 223 Q 592 241 756 256 Q 766 257 768 265 Q 768 272 751 283 L 710 294 Z"/>
  <path id="z14703d11" d="M 382 165 Q 358 114 327 70 Q 309 40 322 12 Q 329 -4 347 6 Q 393 39 402 113 Q 408 141 403 164 Q 399 171 393 172 Q 386 172 382 165 Z"/>
  <path id="z14703d12" d="M 464 148 Q 485 55 558 10 Q 675 -56 856 -17 Q 871 -11 887 -5 Q 909 5 910 20 Q 914 29 881 49 Q 830 89 793 132 Q 781 148 777 140 Q 790 43 789 36 Q 777 29 748 25 Q 604 18 545 70 Q 517 92 504 134 Q 497 155 485 159 Q 473 166 466 162 Q 462 161 464 148 Z"/>
  <path id="z14703d13" d="M 601 165 Q 623 147 646 126 Q 659 116 672 116 Q 681 117 685 128 Q 689 141 680 167 Q 671 191 595 207 Q 582 208 576 207 Q 572 203 573 192 Q 577 182 601 165 Z"/>
  <path id="z14703d14" d="M 841 191 Q 872 169 904 140 Q 917 128 934 130 Q 944 131 949 144 Q 953 160 942 189 Q 929 223 834 239 Q 818 242 812 239 Q 808 235 809 222 Q 813 212 841 191 Z"/>
<defs>
  <clipPath id="z14703c1"><use href="#z14703d1"/></clipPath>
  <clipPath id="z14703c2"><use href="#z14703d2"/></clipPath>
  <clipPath id="z14703c3"><use href="#z14703d3"/></clipPath>
  <clipPath id="z14703c4"><use href="#z14703d4"/></clipPath>
  <clipPath id="z14703c5"><use href="#z14703d5"/></clipPath>
  <clipPath id="z14703c6"><use href="#z14703d6"/></clipPath>
  <clipPath id="z14703c7"><use href="#z14703d7"/></clipPath>
  <clipPath id="z14703c8"><use href="#z14703d8"/></clipPath>
  <clipPath id="z14703c9"><use href="#z14703d9"/></clipPath>
  <clipPath id="z14703c10"><use href="#z14703d10"/></clipPath>
  <clipPath id="z14703c11"><use href="#z14703d11"/></clipPath>
  <clipPath id="z14703c12"><use href="#z14703d12"/></clipPath>
  <clipPath id="z14703c13"><use href="#z14703d13"/></clipPath>
  <clipPath id="z14703c14"><use href="#z14703d14"/></clipPath>
</defs>
<path style="--d:1s;" pathLength="3333" clip-path="url(#z14703c1)" d="M 752 786 L 697 799 L 624 756 L 485 709"/>
<path style="--d:2s;" pathLength="3333" clip-path="url(#z14703c2)" d="M 455 663 L 496 624 L 505 606"/>
<path style="--d:3s;" pathLength="3333" clip-path="url(#z14703c3)" d="M 579 695 L 613 662 L 625 641"/>
<path style="--d:4s;" pathLength="3333" clip-path="url(#z14703c4)" d="M 774 745 L 785 716 L 700 649"/>
<path style="--d:5s;" pathLength="3333" clip-path="url(#z14703c5)" d="M 494 556 L 518 555 L 714 604 L 749 601"/>
<path style="--d:6s;" pathLength="3333" clip-path="url(#z14703c6)" d="M 638 564 L 601 510"/>
<path style="--d:7s;" pathLength="3333" clip-path="url(#z14703c7)" d="M 463 463 L 503 465 L 720 517 L 760 521 L 804 513"/>
<path style="--d:8s;" pathLength="3333" clip-path="url(#z14703c8)" d="M 472 392 L 511 390 L 718 438 L 739 436 L 770 407 L 736 308 L 719 299"/>
<path style="--d:9s;" pathLength="3333" clip-path="url(#z14703c9)" d="M 475 316 L 527 320 L 647 348 L 696 346"/>
<path style="--d:10s;" pathLength="3333" clip-path="url(#z14703c10)" d="M 467 239 L 501 236 L 712 273 L 759 265"/>
<path style="--d:11s;" pathLength="3333" clip-path="url(#z14703c11)" d="M 392 161 L 379 108 L 336 17"/>
<path style="--d:12s;" pathLength="3333" clip-path="url(#z14703c12)" d="M 471 154 L 486 136 L 512 77 L 551 39 L 611 11 L 679 -2 L 788 2 L 835 26 L 783 132"/>
<path style="--d:13s;" pathLength="3333" clip-path="url(#z14703c13)" d="M 580 198 L 647 162 L 670 132"/>
<path style="--d:14s;" pathLength="3333" clip-path="url(#z14703c14)" d="M 817 233 L 906 182 L 931 148"/>
</svg>