<svg id="z19968" class="acjk" viewBox="0 0 1024 1024" xmlns="http://www.w3.org/2000/svg">
<style>
<![CDATA[
@keyframes zk {
	to {
		stroke-dashoffset:0;
	}
}
svg.acjk path[clip-path] {
	--t:0.8s;
	animation:zk var(--t) linear forwards var(--d);
	stroke-dasharray:3337;
	stroke-dashoffset:3339;
	stroke-width:128;
	stroke-linecap:round;
	stroke-linejoin:round;
	fill:none;
	stroke:#000;
}
svg.acjk path[id] {fill:#ccc;}
]]>
</style>
  <path id="z19968d1" d="M 518 382 Q 572 385 623 389 Q 758 399 900 383 Q 928 379 935 390 Q 944 405 930 419 Q 896 452 845 475 Q 829 482 798 473 Q 723 460 480 434 Q 180 409 137 408 Q 130 408 124 408 Q 108 408 106 395 Q 105 380 127 363 Q 146 348 183 334 Q 195 330 216 338 Q 232 344 306 354 Q 400 373 518 382 Z"/>
<defs>
  <clipPath id="z19968c1"><use href="#z19968d1"/></clipPath>
</defs>
<path style="--d:1s;" pathLength="3333" clip-path="url(#z19968c1)" d="M 121 393 L 193 372 L 417 402 L 827 434 L 920 401"/>
</svg>