<svg id="z29563" class="acjk" viewBox="0 0 1024 1024" xmlns="http://www.w3.org/2000/svg">
<style>
<![CDATA[
@keyframes zk {
	to {
		stroke-dashoffset:0;
	}
}
svg.acjk path[clip-path] {
	--t:0.8s;
	animation:zk var(--t) linear forwards var(--d);
	stroke-dasharray:3337;
	stroke-dashoffset:3339;
	stroke-width:128;
	stroke-linecap:round;
	stroke-linejoin:round;
	fill:none;
	stroke:#000;
}
svg.acjk path[id] {fill:#ccc;}
]]>
</style>
  <path id="z29563d1" d="M 382 660 Q 386 694 391 725 L 394 749 Q 394 756 396 763 Q 399 784 405 797 Q 408 806 393 817 Q 365 833 347 836 Q 334 839 328 832 Q 322 826 328 814 Q 338 801 340 791 Q 347 728 348 653 C 348 623 378 630 382 660 Z"/>
  <path id="z29563d2" d="M 391 725 Q 439 719 527 747 L 528 747 Q 535 753 531 759 Q 525 768 503 772 Q 494 773 425 755 Q 409 752 394 749 C 365 743 361 728 391 725 Z"/>
  <path id="z29563d3" d="M 244 598 Q 259 613 451 649 Q 496 658 507 656 Q 522 652 520 643 Q 521 639 517 631 Q 495 579 499 576 Q 506 575 517 583 Q 554 611 586 622 Q 611 631 611 638 Q 608 645 556 681 Q 538 696 453 675 Q 393 665 382 660 L 348 653 Q 317 649 279 640 Q 254 634 228 629 C 199 623 218 584 244 598 Z"/>
  <path id="z29563d4" d="M 182 223 Q 225 358 237 560 Q 238 578 243 594 Q 244 597 244 598 C 248 616 248 616 228 629 Q 192 654 174 647 Q 164 640 170 629 Q 188 610 188 543 Q 187 531 187 517 Q 184 361 146 239 Q 112 140 41 23 Q 37 17 35 12 Q 34 2 42 5 Q 75 11 148 141 Q 157 160 166 180 L 178 212 L 182 223 Z"/>
  <path id="z29563d5" d="M 357 542 Q 382 551 441 564 Q 447 563 452 572 Q 452 579 437 584 Q 413 593 361 572 L 325 559 Q 324 559 268 546 Q 252 542 266 533 Q 287 523 324 532 L 357 542 Z"/>
  <path id="z29563d6" d="M 324 532 Q 321 493 339 479 Q 381 451 463 471 Q 482 477 500 489 Q 510 498 503 512 Q 496 521 485 549 Q 485 559 480 561 Q 477 562 474 553 Q 450 511 428 502 Q 398 495 371 501 Q 362 505 360 510 Q 351 526 357 542 L 361 572 Q 365 594 359 602 Q 350 611 334 617 Q 325 620 320 616 Q 316 615 319 602 Q 325 581 325 559 L 324 532 Z"/>
  <path id="z29563d7" d="M 286 414 Q 270 411 282 401 Q 295 391 326 390 Q 411 409 470 413 Q 476 412 482 420 Q 483 427 469 434 Q 454 440 326 418 Q 307 417 286 414 Z"/>
  <path id="z29563d8" d="M 278 359 Q 271 360 268 357 Q 264 353 270 342 Q 286 317 297 273 Q 300 260 309 252 Q 321 237 324 248 Q 325 254 326 262 L 323 283 Q 316 326 316 337 C 315 357 308 357 278 359 Z"/>
  <path id="z29563d9" d="M 459 302 Q 478 332 492 338 Q 504 350 494 362 Q 484 371 450 389 Q 441 393 373 372 Q 300 357 278 359 C 248 360 288 327 316 337 Q 316 338 320 339 Q 425 360 431 355 Q 435 351 433 344 Q 429 323 422 305 C 412 277 443 277 459 302 Z"/>
  <path id="z29563d10" d="M 326 262 Q 330 262 335 263 Q 377 272 468 280 Q 475 281 476 287 Q 476 291 459 302 C 446 311 446 311 422 305 Q 367 292 323 283 C 294 277 296 260 326 262 Z"/>
  <path id="z29563d11" d="M 220 214 Q 220 215 219 215 Q 197 225 183 224 Q 182 224 182 223 C 174 222 174 222 178 212 Q 177 212 178 211 Q 205 159 185 60 Q 164 30 191 -8 Q 192 -11 195 -14 Q 201 -24 209 -20 Q 230 -2 231 129 Q 231 171 233 185 C 235 206 235 206 220 214 Z"/>
  <path id="z29563d12" d="M 318 204 Q 460 231 477 216 Q 487 212 490 195 Q 494 153 488 77 Q 488 55 466 54 Q 445 53 429 53 Q 416 53 419 46 Q 422 37 447 23 Q 474 2 489 -21 Q 498 -28 507 -24 Q 535 -2 540 69 Q 540 204 548 217 Q 555 227 549 236 Q 539 246 504 260 Q 488 266 475 258 Q 459 254 414 247 Q 350 237 301 227 Q 255 220 220 214 C 190 209 205 176 233 185 Q 240 185 248 190 Q 267 196 297 200 L 318 204 Z"/>
  <path id="z29563d13" d="M 297 200 Q 297 170 242 114 Q 238 113 238 108 Q 238 107 241 106 Q 262 106 329 173 Q 333 177 330 185 Q 324 198 318 204 C 299 226 299 226 297 200 Z"/>
  <path id="z29563d14" d="M 410 165 Q 443 128 448 127 Q 454 126 458 133 Q 462 140 459 157 Q 456 172 412 192 Q 403 195 400 194 Q 397 193 397 185 Q 398 179 410 165 Z"/>
  <path id="z29563d15" d="M 363 98 Q 367 101 417 110 Q 423 110 427 117 Q 427 124 414 129 Q 395 135 346 122 Q 325 116 273 105 Q 257 101 270 93 Q 288 83 330 91 L 363 98 Z"/>
  <path id="z29563d16" d="M 330 91 Q 321 13 341 -7 Q 347 -13 353 1 Q 362 19 363 98 C 363 128 333 121 330 91 Z"/>
  <path id="z29563d17" d="M 711 372 Q 864 411 867 414 Q 876 421 871 429 Q 864 439 838 446 Q 810 450 783 440 Q 749 427 713 416 L 672 405 Q 620 395 560 386 Q 526 380 551 365 Q 584 347 653 360 Q 659 361 669 363 L 711 372 Z"/>
  <path id="z29563d18" d="M 705 277 Q 708 338 711 372 L 713 416 Q 722 590 742 640 Q 749 653 739 664 Q 718 680 682 691 Q 658 697 651 691 Q 642 684 649 673 Q 670 639 673 596 Q 677 499 672 405 L 669 363 Q 659 165 586 64 Q 568 42 545 18 Q 535 11 536 6 Q 537 2 548 4 Q 558 1 582 15 Q 667 57 700 235 L 705 277 Z"/>
  <path id="z29563d19" d="M 700 235 Q 760 100 831 3 Q 847 -21 866 -23 Q 918 -22 964 -20 Q 983 -19 984 -15 Q 985 -9 965 5 Q 850 74 793 150 Q 735 222 705 277 C 690 303 688 262 700 235 Z"/>
  <path id="z29563d20" d="M 818 593 Q 848 566 880 533 Q 892 521 906 521 Q 916 521 921 533 Q 925 546 919 573 Q 915 595 883 612 Q 811 642 796 639 Q 792 635 792 624 Q 795 614 818 593 Z"/>
<defs>
  <clipPath id="z29563c1"><use href="#z29563d1"/></clipPath>
  <clipPath id="z29563c2"><use href="#z29563d2"/></clipPath>
  <clipPath id="z29563c3"><use href="#z29563d3"/></clipPath>
  <clipPath id="z29563c4"><use href="#z29563d4"/></clipPath>
  <clipPath id="z29563c5"><use href="#z29563d5"/></clipPath>
  <clipPath id="z29563c6"><use href="#z29563d6"/></clipPath>
  <clipPath id="z29563c7"><use href="#z29563d7"/></clipPath>
  <clipPath id="z29563c8"><use href="#z29563d8"/></clipPath>
  <clipPath id="z29563c9"><use href="#z29563d9"/></clipPath>
  <clipPath id="z29563c10"><use href="#z29563d10"/></clipPath>
  <clipPath id="z29563c11"><use href="#z29563d11"/></clipPath>
  <clipPath id="z29563c12"><use href="#z29563d12"/></clipPath>
  <clipPath id="z29563c13"><use href="#z29563d13"/></clipPath>
  <clipPath id="z29563c14"><use href="#z29563d14"/></clipPath>
  <clipPath id="z29563c15"><use href="#z29563d15"/></clipPath>
  <clipPath id="z29563c16"><use href="#z29563d16"/></clipPath>
  <clipPath id="z29563c17"><use href="#z29563d17"/></clipPath>
  <clipPath id="z29563c18"><use href="#z29563d18"/></clipPath>
  <clipPath id="z29563c19"><use href="#z29563d19"/></clipPath>
  <clipPath id="z29563c20"><use href="#z29563d20"/></clipPath>
</defs>
<path style="--d:1s;" pathLength="3333" clip-path="url(#z29563c1)" d="M 338 824 L 371 794 L 365 675 L 352 661"/>
<path style="--d:2s;" pathLength="3333" clip-path="url(#z29563c2)" d="M 397 730 L 407 738 L 501 756 L 528 754"/>
<path style="--d:3s;" pathLength="3333" clip-path="url(#z29563c3)" d="M 242 604 L 250 619 L 263 623 L 507 672 L 541 661 L 553 642 L 503 579"/>
<path style="--d:4s;" pathLength="3333" clip-path="url(#z29563c4)" d="M 180 636 L 207 611 L 213 594 L 205 433 L 182 298 L 166 235 L 127 138 L 83 64 L 43 13"/>
<path style="--d:5s;" pathLength="3333" clip-path="url(#z29563c5)" d="M 274 538 L 326 545 L 420 574 L 444 572"/>
<path style="--d:6s;" pathLength="3333" clip-path="url(#z29563c6)" d="M 328 608 L 342 591 L 342 509 L 348 495 L 362 486 L 415 480 L 449 488 L 475 506 L 481 554"/>
<path style="--d:7s;" pathLength="3333" clip-path="url(#z29563c7)" d="M 291 405 L 332 404 L 341 410 L 441 423 L 474 421"/>
<path style="--d:8s;" pathLength="3333" clip-path="url(#z29563c8)" d="M 275 350 L 298 327 L 318 256"/>
<path style="--d:9s;" pathLength="3333" clip-path="url(#z29563c9)" d="M 293 357 L 299 351 L 331 349 L 342 357 L 354 354 L 363 362 L 374 359 L 411 371 L 441 371 L 461 350 L 449 323 L 429 310"/>
<path style="--d:10s;" pathLength="3333" clip-path="url(#z29563c10)" d="M 330 268 L 345 277 L 417 290 L 469 287"/>
<path style="--d:11s;" pathLength="3333" clip-path="url(#z29563c11)" d="M 188 218 L 211 183 L 214 117 L 200 30 L 204 -12"/>
<path style="--d:12s;" pathLength="3333" clip-path="url(#z29563c12)" d="M 227 208 L 249 204 L 446 238 L 492 237 L 513 223 L 517 129 L 509 46 L 497 27 L 426 46"/>
<path style="--d:13s;" pathLength="3333" clip-path="url(#z29563c13)" d="M 242 110 L 282 141 L 310 174 L 311 186 L 303 195"/>
<path style="--d:14s;" pathLength="3333" clip-path="url(#z29563c14)" d="M 405 187 L 440 157 L 450 135"/>
<path style="--d:15s;" pathLength="3333" clip-path="url(#z29563c15)" d="M 278 97 L 388 118 L 419 117"/>
<path style="--d:16s;" pathLength="3333" clip-path="url(#z29563c16)" d="M 359 87 L 345 76 L 344 1"/>
<path style="--d:17s;" pathLength="3333" clip-path="url(#z29563c17)" d="M 553 377 L 582 372 L 623 375 L 720 394 L 797 420 L 861 424"/>
<path style="--d:18s;" pathLength="3333" clip-path="url(#z29563c18)" d="M 658 681 L 683 665 L 703 639 L 687 307 L 677 228 L 657 153 L 625 83 L 588 38 L 543 10"/>
<path style="--d:19s;" pathLength="3333" clip-path="url(#z29563c19)" d="M 705 270 L 715 232 L 766 147 L 867 21 L 979 -13"/>
<path style="--d:20s;" pathLength="3333" clip-path="url(#z29563c20)" d="M 799 630 L 882 575 L 905 537"/>
</svg>