<svg id="z23743" class="acjk" viewBox="0 0 1024 1024" xmlns="http://www.w3.org/2000/svg">
<style>
<![CDATA[
@keyframes zk {
	to {
		stroke-dashoffset:0;
	}
}
svg.acjk path[clip-path] {
	--t:0.8s;
	animation:zk var(--t) linear forwards var(--d);
	stroke-dasharray:3337;
	stroke-dashoffset:3339;
	stroke-width:128;
	stroke-linecap:round;
	stroke-linejoin:round;
	fill:none;
	stroke:#000;
}
svg.acjk path[id] {fill:#ccc;}
]]>
</style>
  <path id="z23743d1" d="M 541 619 Q 565 766 576 786 Q 580 796 560 812 Q 527 831 504 837 Q 488 841 480 833 Q 473 826 480 811 Q 492 795 493 782 Q 500 706 500 614 C 500 584 536 589 541 619 Z"/>
  <path id="z23743d2" d="M 704 635 Q 617 631 541 619 L 500 614 Q 418 604 346 585 Q 324 581 331 606 Q 344 676 335 693 Q 301 733 274 730 Q 264 726 270 707 Q 286 665 279 626 Q 273 587 257 571 Q 238 555 245 539 Q 255 523 272 512 Q 285 503 296 511 Q 338 556 617 596 Q 669 603 694 598 C 724 595 734 637 704 635 Z"/>
  <path id="z23743d3" d="M 694 598 Q 694 570 700 548 Q 707 529 722 539 Q 752 558 773 647 Q 795 704 808 716 Q 820 729 811 746 Q 795 767 764 792 Q 752 802 738 798 Q 729 797 730 781 Q 739 763 730 695 Q 720 659 704 635 C 694 618 694 618 694 598 Z"/>
  <path id="z23743d4" d="M 208 399 Q 233 338 213 198 Q 207 168 232 138 Q 241 128 250 138 Q 271 168 268 205 Q 264 287 275 371 Q 281 392 263 402 Q 247 412 232 420 Q 220 424 212 419 Q 205 413 208 399 Z"/>
  <path id="z23743d5" d="M 370 472 Q 406 409 373 212 Q 363 164 339 109 Q 314 46 232 -28 Q 217 -41 214 -47 Q 213 -54 224 -54 Q 264 -54 330 14 Q 412 101 439 305 Q 448 416 453 443 Q 460 465 439 475 Q 390 500 375 498 Q 354 494 370 472 Z"/>
  <path id="z23743d6" d="M 794 165 Q 821 324 871 372 Q 890 394 873 414 Q 854 429 795 456 Q 774 465 750 455 Q 665 421 536 410 Q 520 409 521 399 Q 522 390 542 384 Q 567 371 605 382 Q 752 406 761 398 Q 777 383 773 352 Q 760 252 738 173 C 730 144 789 135 794 165 Z"/>
  <path id="z23743d7" d="M 492 275 Q 465 272 486 255 Q 516 230 544 237 Q 649 256 714 260 Q 724 259 733 271 Q 734 281 712 292 Q 685 313 615 293 Q 608 293 600 290 Q 585 287 492 275 Z"/>
  <path id="z23743d8" d="M 738 173 Q 735 174 732 173 Q 606 145 506 135 Q 482 134 497 112 Q 504 102 516 97 Q 529 93 545 96 Q 627 112 808 124 Q 821 125 823 135 Q 823 144 794 165 C 778 177 768 176 738 173 Z"/>
<defs>
  <clipPath id="z23743c1"><use href="#z23743d1"/></clipPath>
  <clipPath id="z23743c2"><use href="#z23743d2"/></clipPath>
  <clipPath id="z23743c3"><use href="#z23743d3"/></clipPath>
  <clipPath id="z23743c4"><use href="#z23743d4"/></clipPath>
  <clipPath id="z23743c5"><use href="#z23743d5"/></clipPath>
  <clipPath id="z23743c6"><use href="#z23743d6"/></clipPath>
  <clipPath id="z23743c7"><use href="#z23743d7"/></clipPath>
  <clipPath id="z23743c8"><use href="#z23743d8"/></clipPath>
</defs>
<path style="--d:1s;" pathLength="3333" clip-path="url(#z23743c1)" d="M 491 824 L 533 783 L 525 660 L 521 639 L 506 622"/>
<path style="--d:2s;" pathLength="3333" clip-path="url(#z23743c2)" d="M 279 720 L 300 695 L 310 669 L 300 563 L 349 563 L 494 596 L 677 616 L 696 630"/>
<path style="--d:3s;" pathLength="3333" clip-path="url(#z23743c3)" d="M 742 786 L 756 770 L 772 733 L 713 549"/>
<path style="--d:4s;" pathLength="3333" clip-path="url(#z23743c4)" d="M 220 409 L 243 381 L 246 365 L 241 144"/>
<path style="--d:5s;" pathLength="3333" clip-path="url(#z23743c5)" d="M 376 484 L 415 449 L 418 425 L 410 279 L 389 175 L 369 118 L 332 50 L 309 20 L 257 -28 L 222 -47"/>
<path style="--d:6s;" pathLength="3333" clip-path="url(#z23743c6)" d="M 531 400 L 577 395 L 766 429 L 804 408 L 820 389 L 818 376 L 772 196 L 746 178"/>
<path style="--d:7s;" pathLength="3333" clip-path="url(#z23743c7)" d="M 487 266 L 535 258 L 674 280 L 723 273"/>
<path style="--d:8s;" pathLength="3333" clip-path="url(#z23743c8)" d="M 503 123 L 536 116 L 729 146 L 784 145 L 814 135"/>
</svg>