<svg id="z21271" class="acjk" viewBox="0 0 1024 1024" xmlns="http://www.w3.org/2000/svg">
<style>
<![CDATA[
@keyframes zk {
	to {
		stroke-dashoffset:0;
	}
}
svg.acjk path[clip-path] {
	--t:0.8s;
	animation:zk var(--t) linear forwards var(--d);
	stroke-dasharray:3337;
	stroke-dashoffset:3339;
	stroke-width:128;
	stroke-linecap:round;
	stroke-linejoin:round;
	fill:none;
	stroke:#000;
}
svg.acjk path[id] {fill:#ccc;}
]]>
</style>
  <path id="z21271d1" d="M 343 159 Q 343 147 361 108 Q 368 92 375 89 Q 381 83 388 90 Q 395 94 405 115 Q 408 124 412 224 Q 406 578 426 645 Q 433 660 431 672 Q 424 682 371 713 Q 349 729 330 714 Q 326 710 331 694 Q 352 666 358 585 Q 361 522 361 466 L 361 426 Q 361 249 344 197 L 343 159 Z"/>
  <path id="z21271d2" d="M 361 466 Q 345 470 331 466 Q 208 436 163 431 Q 150 430 148 421 Q 145 411 161 400 Q 200 375 241 390 Q 302 415 361 426 C 390 432 390 460 361 466 Z"/>
  <path id="z21271d3" d="M 344 197 Q 263 173 169 148 Q 154 144 129 145 Q 116 144 113 131 Q 112 116 122 108 Q 147 90 185 70 Q 197 67 210 77 Q 244 108 343 159 C 370 173 373 205 344 197 Z"/>
  <path id="z21271d4" d="M 597 384 Q 772 472 828 489 Q 837 492 848 494 Q 876 501 867 524 Q 857 546 829 570 Q 804 592 788 592 Q 773 593 775 576 Q 772 534 680 471 Q 640 443 598 411 C 574 393 570 371 597 384 Z"/>
  <path id="z21271d5" d="M 942 82 Q 961 100 940 135 Q 916 198 908 279 Q 908 291 899 300 Q 887 306 884 280 Q 877 250 867 201 Q 860 153 846 134 Q 840 121 815 116 Q 776 106 722 110 Q 682 111 656 122 Q 619 137 607 181 Q 595 220 597 384 L 598 411 Q 598 570 626 682 Q 632 712 638 719 Q 648 744 627 759 Q 596 787 554 797 Q 533 801 524 792 Q 515 782 523 771 Q 548 750 549 671 Q 534 262 555 169 Q 570 114 611 82 Q 680 31 846 44 Q 862 47 878 50 Q 923 63 942 82 Z"/>
<defs>
  <clipPath id="z21271c1"><use href="#z21271d1"/></clipPath>
  <clipPath id="z21271c2"><use href="#z21271d2"/></clipPath>
  <clipPath id="z21271c3"><use href="#z21271d3"/></clipPath>
  <clipPath id="z21271c4"><use href="#z21271d4"/></clipPath>
  <clipPath id="z21271c5"><use href="#z21271d5"/></clipPath>
</defs>
<path style="--d:1s;" pathLength="3333" clip-path="url(#z21271c1)" d="M 341 707 L 367 685 L 388 652 L 386 287 L 376 177 L 381 102"/>
<path style="--d:2s;" pathLength="3333" clip-path="url(#z21271c2)" d="M 160 418 L 189 411 L 227 414 L 334 443 L 352 459"/>
<path style="--d:3s;" pathLength="3333" clip-path="url(#z21271c3)" d="M 129 129 L 187 113 L 323 169 L 338 191"/>
<path style="--d:4s;" pathLength="3333" clip-path="url(#z21271c4)" d="M 786 581 L 796 567 L 805 529 L 751 489 L 609 404 L 607 390"/>
<path style="--d:5s;" pathLength="3333" clip-path="url(#z21271c5)" d="M 534 781 L 573 755 L 590 727 L 574 562 L 569 334 L 579 183 L 599 134 L 640 97 L 709 78 L 793 76 L 844 83 L 873 95 L 893 111 L 895 126 L 896 291"/>
</svg>