<svg id="z20117" class="acjk" viewBox="0 0 1024 1024" xmlns="http://www.w3.org/2000/svg">
<style>
<![CDATA[
@keyframes zk {
	to {
		stroke-dashoffset:0;
	}
}
svg.acjk path[clip-path] {
	--t:0.8s;
	animation:zk var(--t) linear forwards var(--d);
	stroke-dasharray:3337;
	stroke-dashoffset:3339;
	stroke-width:128;
	stroke-linecap:round;
	stroke-linejoin:round;
	fill:none;
	stroke:#000;
}
svg.acjk path[id] {fill:#ccc;}
]]>
</style>
  <path id="z20117d1" d="M 647 576 Q 780 597 797 609 Q 807 618 803 627 Q 796 640 765 650 Q 734 657 648 632 L 590 617 Q 472 596 419 586 L 364 580 Q 324 579 281 575 Q 241 571 268 551 Q 311 524 364 531 L 418 540 Q 500 553 590 567 L 647 576 Z"/>
  <path id="z20117d2" d="M 644 356 Q 761 368 903 355 Q 928 352 934 361 Q 941 374 929 387 Q 898 415 853 436 Q 838 443 811 434 Q 754 422 644 405 L 589 399 Q 526 396 406 379 L 353 372 Q 319 371 296 366 Q 226 356 121 354 Q 106 354 105 342 Q 105 329 124 314 Q 163 284 213 296 Q 234 302 341 321 L 398 331 Q 446 340 589 351 L 644 356 Z"/>
  <path id="z20117d3" d="M 419 586 Q 419 686 423 719 Q 427 741 405 751 Q 353 773 336 770 Q 314 766 333 743 Q 360 701 364 580 L 364 531 Q 358 404 353 372 L 341 321 Q 302 186 228 99 Q 165 32 161 25 Q 160 16 172 18 Q 188 19 210 36 Q 267 79 300 119 Q 373 209 398 331 L 406 379 Q 416 502 418 540 L 419 586 Z"/>
  <path id="z20117d4" d="M 589 351 Q 585 -21 604 -48 Q 619 -64 628 -42 Q 643 -6 644 356 L 644 405 Q 644 502 647 576 L 648 632 Q 651 749 671 782 Q 678 798 657 815 Q 632 834 587 846 Q 566 852 553 837 Q 543 828 556 816 Q 587 791 589 754 Q 589 700 590 617 L 590 567 Q 590 497 590 405 Q 590 402 589 399 L 589 351 Z"/>
<defs>
  <clipPath id="z20117c1"><use href="#z20117d1"/></clipPath>
  <clipPath id="z20117c2"><use href="#z20117d2"/></clipPath>
  <clipPath id="z20117c3"><use href="#z20117d3"/></clipPath>
  <clipPath id="z20117c4"><use href="#z20117d4"/></clipPath>
</defs>
<path style="--d:1s;" pathLength="3333" clip-path="url(#z20117c1)" d="M 272 565 L 294 557 L 354 554 L 593 592 L 742 623 L 789 622"/>
<path style="--d:2s;" pathLength="3333" clip-path="url(#z20117c2)" d="M 118 341 L 156 327 L 200 325 L 438 361 L 829 399 L 885 386 L 922 370"/>
<path style="--d:3s;" pathLength="3333" clip-path="url(#z20117c3)" d="M 337 756 L 357 746 L 382 722 L 387 697 L 391 530 L 382 392 L 371 329 L 337 228 L 295 151 L 243 86 L 167 23"/>
<path style="--d:4s;" pathLength="3333" clip-path="url(#z20117c4)" d="M 561 827 L 589 820 L 626 785 L 617 534 L 615 -42"/>
</svg>