<svg id="z24327" class="acjk" viewBox="0 0 1024 1024" xmlns="http://www.w3.org/2000/svg">
<style>
<![CDATA[
@keyframes zk {
	to {
		stroke-dashoffset:0;
	}
}
svg.acjk path[clip-path] {
	--t:0.8s;
	animation:zk var(--t) linear forwards var(--d);
	stroke-dasharray:3337;
	stroke-dashoffset:3339;
	stroke-width:128;
	stroke-linecap:round;
	stroke-linejoin:round;
	fill:none;
	stroke:#000;
}
svg.acjk path[id] {fill:#ccc;}
]]>
</style>
  <path id="z24327d1" d="M 384 629 Q 435 683 510 777 L 526 795 Q 536 807 537 813 Q 534 840 495 858 Q 474 867 464 866 Q 454 865 456 853 Q 459 763 303 610 Q 293 603 283 593 Q 234 550 114 467 Q 105 463 116 459 Q 213 474 349 594 Q 368 613 372 616 L 384 629 Z"/>
  <path id="z24327d2" d="M 510 777 Q 745 542 798 531 Q 895 531 964 549 Q 983 552 984 557 Q 985 564 970 569 Q 777 632 754 643 Q 676 676 526 795 C 502 814 489 798 510 777 Z"/>
  <path id="z24327d3" d="M 372 616 Q 381 607 409 601 Q 413 601 594 636 Q 594 637 595 637 Q 602 644 599 651 Q 592 660 569 666 Q 545 670 521 660 Q 493 650 461 642 Q 427 635 386 630 Q 383 630 384 629 C 362 624 362 624 372 616 Z"/>
  <path id="z24327d4" d="M 380 538 Q 371 542 338 547 Q 328 550 324 545 Q 320 539 328 525 Q 353 480 371 406 Q 375 384 389 370 Q 405 351 410 365 Q 411 371 412 378 L 410 409 Q 407 415 390 510 C 385 536 385 536 380 538 Z"/>
  <path id="z24327d5" d="M 618 434 Q 642 489 673 511 Q 689 526 676 543 Q 663 556 617 580 Q 601 587 582 582 Q 516 558 380 538 C 350 534 361 503 390 510 Q 397 511 406 514 Q 485 526 562 539 Q 583 543 590 535 Q 597 528 594 513 Q 584 471 570 437 C 559 409 606 407 618 434 Z"/>
  <path id="z24327d6" d="M 412 378 Q 418 377 428 379 Q 492 392 632 400 Q 642 401 643 409 Q 643 416 618 434 C 604 444 599 443 570 437 Q 480 418 410 409 C 380 405 382 379 412 378 Z"/>
  <path id="z24327d7" d="M 645 231 Q 727 235 826 232 Q 907 229 915 240 Q 921 253 903 268 Q 846 311 786 301 Q 725 291 646 278 L 593 270 Q 503 261 416 249 L 357 243 Q 248 233 130 220 Q 108 219 124 199 Q 140 183 159 177 Q 183 170 200 175 Q 273 194 355 205 L 410 212 Q 461 224 592 229 L 645 231 Z"/>
  <path id="z24327d8" d="M 416 249 Q 417 271 427 289 Q 434 305 419 313 Q 403 325 389 330 Q 367 340 350 334 Q 337 330 344 316 Q 356 298 357 243 L 355 205 Q 346 96 255 18 Q 242 6 226 -6 Q 216 -15 226 -17 Q 313 -8 371 90 Q 372 94 375 98 L 387 124 Q 403 161 409 203 Q 409 207 410 212 L 416 249 Z"/>
  <path id="z24327d9" d="M 592 229 Q 591 210 591 185 Q 587 56 576 31 Q 567 -8 600 -59 Q 612 -78 620 -82 Q 632 -83 637 -70 Q 650 -39 646 -7 Q 646 74 645 231 L 646 278 Q 647 308 651 323 Q 654 336 647 342 Q 623 363 603 372 Q 591 376 582 369 Q 576 365 583 355 Q 592 340 593 270 L 592 229 Z"/>
<defs>
  <clipPath id="z24327c1"><use href="#z24327d1"/></clipPath>
  <clipPath id="z24327c2"><use href="#z24327d2"/></clipPath>
  <clipPath id="z24327c3"><use href="#z24327d3"/></clipPath>
  <clipPath id="z24327c4"><use href="#z24327d4"/></clipPath>
  <clipPath id="z24327c5"><use href="#z24327d5"/></clipPath>
  <clipPath id="z24327c6"><use href="#z24327d6"/></clipPath>
  <clipPath id="z24327c7"><use href="#z24327d7"/></clipPath>
  <clipPath id="z24327c8"><use href="#z24327d8"/></clipPath>
  <clipPath id="z24327c9"><use href="#z24327d9"/></clipPath>
</defs>
<path style="--d:1s;" pathLength="3333" clip-path="url(#z24327c1)" d="M 467 855 L 491 815 L 442 733 L 380 657 L 298 576 L 241 533 L 154 480 L 132 469 L 124 471 L 121 464"/>
<path style="--d:2s;" pathLength="3333" clip-path="url(#z24327c2)" d="M 530 783 L 529 774 L 547 757 L 655 669 L 780 588 L 823 573 L 978 558"/>
<path style="--d:3s;" pathLength="3333" clip-path="url(#z24327c3)" d="M 378 616 L 463 625 L 561 649 L 589 646"/>
<path style="--d:4s;" pathLength="3333" clip-path="url(#z24327c4)" d="M 332 540 L 360 517 L 371 493 L 400 370"/>
<path style="--d:5s;" pathLength="3333" clip-path="url(#z24327c5)" d="M 392 519 L 412 530 L 559 557 L 604 557 L 633 527 L 601 457 L 576 443"/>
<path style="--d:6s;" pathLength="3333" clip-path="url(#z24327c6)" d="M 416 386 L 445 399 L 575 417 L 611 417 L 634 408"/>
<path style="--d:7s;" pathLength="3333" clip-path="url(#z24327c7)" d="M 127 209 L 182 199 L 484 241 L 797 268 L 855 262 L 907 247"/>
<path style="--d:8s;" pathLength="3333" clip-path="url(#z24327c8)" d="M 352 323 L 389 291 L 382 200 L 363 127 L 320 54 L 279 16 L 232 -11"/>
<path style="--d:9s;" pathLength="3333" clip-path="url(#z24327c9)" d="M 591 363 L 621 325 L 610 3 L 623 -70"/>
</svg>