<svg id="z21320" class="acjk" viewBox="0 0 1024 1024" xmlns="http://www.w3.org/2000/svg">
<style>
<![CDATA[
@keyframes zk {
	to {
		stroke-dashoffset:0;
	}
}
svg.acjk path[clip-path] {
	--t:0.8s;
	animation:zk var(--t) linear forwards var(--d);
	stroke-dasharray:3337;
	stroke-dashoffset:3339;
	stroke-width:128;
	stroke-linecap:round;
	stroke-linejoin:round;
	fill:none;
	stroke:#000;
}
svg.acjk path[id] {fill:#ccc;}
]]>
</style>
  <path id="z21320d1" d="M 393 651 Q 400 663 408 675 Q 436 724 462 763 Q 474 776 457 793 Q 409 829 382 824 Q 369 821 373 805 Q 391 705 276 571 Q 266 567 229 517 Q 220 501 237 506 Q 292 515 377 627 L 393 651 Z"/>
  <path id="z21320d2" d="M 543 623 Q 735 659 742 665 Q 752 674 747 683 Q 740 696 708 705 Q 681 711 561 677 Q 438 656 393 651 C 363 647 351 641 377 627 Q 416 603 480 612 L 543 623 Z"/>
  <path id="z21320d3" d="M 561 379 Q 726 392 925 383 Q 949 383 955 393 Q 962 406 942 423 Q 881 471 837 462 Q 732 443 562 420 L 503 412 Q 325 394 115 374 Q 90 373 108 351 Q 124 335 146 328 Q 171 321 190 326 Q 349 365 503 375 L 561 379 Z"/>
  <path id="z21320d4" d="M 504 -3 Q 510 -31 517 -41 Q 523 -48 531 -46 Q 546 -39 555 28 Q 562 104 562 181 Q 559 230 561 379 L 562 420 Q 562 504 575 582 Q 579 601 563 611 Q 553 618 543 623 C 517 638 469 640 480 612 Q 496 578 504 507 Q 503 465 503 412 L 503 375 Q 497 63 504 -3 Z"/>
<defs>
  <clipPath id="z21320c1"><use href="#z21320d1"/></clipPath>
  <clipPath id="z21320c2"><use href="#z21320d2"/></clipPath>
  <clipPath id="z21320c3"><use href="#z21320d3"/></clipPath>
  <clipPath id="z21320c4"><use href="#z21320d4"/></clipPath>
</defs>
<path style="--d:1s;" pathLength="3333" clip-path="url(#z21320c1)" d="M 385 811 L 416 768 L 382 683 L 304 571 L 240 516"/>
<path style="--d:2s;" pathLength="3333" clip-path="url(#z21320c2)" d="M 386 630 L 469 635 L 697 680 L 735 677"/>
<path style="--d:3s;" pathLength="3333" clip-path="url(#z21320c3)" d="M 112 362 L 171 351 L 395 384 L 838 424 L 878 421 L 942 400"/>
<path style="--d:4s;" pathLength="3333" clip-path="url(#z21320c4)" d="M 489 609 L 533 578 L 535 551 L 527 -36"/>
</svg>