<svg id="z22137" class="acjk" viewBox="0 0 1024 1024" xmlns="http://www.w3.org/2000/svg">
<style>
<![CDATA[
@keyframes zk {
	to {
		stroke-dashoffset:0;
	}
}
svg.acjk path[clip-path] {
	--t:0.8s;
	animation:zk var(--t) linear forwards var(--d);
	stroke-dasharray:3337;
	stroke-dashoffset:3339;
	stroke-width:128;
	stroke-linecap:round;
	stroke-linejoin:round;
	fill:none;
	stroke:#000;
}
svg.acjk path[id] {fill:#ccc;}
]]>
</style>
  <path id="z22137d1" d="M 119 570 Q 109 576 82 581 Q 70 584 67 579 Q 60 573 68 558 Q 96 495 110 394 Q 111 364 129 343 Q 145 322 151 337 Q 155 352 155 374 L 151 405 Q 135 514 133 544 C 131 564 131 564 119 570 Z"/>
  <path id="z22137d2" d="M 283 429 Q 299 520 325 548 Q 347 573 324 588 Q 305 598 278 615 Q 257 625 216 600 Q 153 579 119 570 C 90 562 105 533 133 544 Q 136 548 218 565 Q 243 569 248 561 Q 257 554 249 517 Q 242 477 233 429 C 227 400 278 399 283 429 Z"/>
  <path id="z22137d3" d="M 155 374 Q 161 381 295 401 Q 304 402 305 410 Q 305 417 283 429 C 266 438 262 437 233 429 Q 187 416 151 405 C 122 396 128 360 155 374 Z"/>
  <path id="z22137d4" d="M 649 598 Q 664 766 673 810 Q 676 820 657 834 Q 623 850 601 855 Q 585 858 578 850 Q 571 843 579 828 Q 595 809 596 793 Q 606 700 608 591 C 609 561 646 568 649 598 Z"/>
  <path id="z22137d5" d="M 468 683 Q 487 664 506 642 Q 516 630 531 630 Q 540 629 545 641 Q 549 653 544 679 Q 538 704 467 725 Q 454 729 448 727 Q 444 723 444 712 Q 447 702 468 683 Z"/>
  <path id="z22137d6" d="M 768 753 Q 749 725 708 682 Q 702 675 707 667 Q 714 664 723 669 Q 802 711 841 725 Q 860 729 857 740 Q 853 756 834 778 Q 816 799 793 802 Q 778 803 777 783 Q 778 770 768 753 Z"/>
  <path id="z22137d7" d="M 420 559 Q 407 583 390 589 Q 387 593 381 589 Q 377 585 377 574 Q 383 553 361 488 Q 352 472 355 453 Q 359 434 369 421 Q 376 411 382 419 Q 388 420 395 436 Q 399 443 405 467 Q 418 516 426 529 C 431 539 431 539 420 559 Z"/>
  <path id="z22137d8" d="M 426 529 Q 441 523 488 534 Q 548 555 750 587 Q 814 596 830 594 Q 842 587 838 580 Q 838 577 810 514 Q 801 499 807 496 Q 814 492 832 503 Q 884 536 926 545 Q 960 552 960 563 Q 959 573 892 621 Q 870 640 771 619 Q 722 615 649 598 L 608 591 Q 562 584 513 574 Q 467 564 420 559 C 390 555 396 532 426 529 Z"/>
  <path id="z22137d9" d="M 518 478 Q 511 482 479 487 Q 469 490 466 485 Q 462 481 469 467 Q 491 427 506 362 Q 510 343 522 329 Q 538 311 542 325 Q 543 334 544 347 L 539 376 Q 529 430 527 451 C 524 475 524 475 518 478 Z"/>
  <path id="z22137d10" d="M 714 392 Q 738 443 762 456 Q 777 472 765 487 Q 752 499 709 521 Q 697 527 627 504 Q 564 488 518 478 C 489 472 498 444 527 451 Q 530 452 664 480 Q 679 484 686 478 Q 693 469 671 402 C 662 373 701 365 714 392 Z"/>
  <path id="z22137d11" d="M 544 347 Q 551 347 557 348 Q 609 358 721 366 Q 730 367 731 374 Q 731 380 714 392 L 671 402 Q 667 402 665 401 Q 595 385 539 376 C 509 371 514 346 544 347 Z"/>
  <path id="z22137d12" d="M 455 273 Q 445 277 425 281 Q 412 285 409 280 Q 402 274 410 258 Q 441 183 455 64 Q 456 28 476 4 Q 492 -18 499 -3 Q 503 7 504 23 L 504 53 Q 479 231 478 242 C 475 266 475 266 455 273 Z"/>
  <path id="z22137d13" d="M 722 44 Q 732 19 760 -35 Q 769 -54 779 -52 Q 795 -49 804 -23 Q 825 19 841 180 Q 847 226 869 253 Q 885 271 875 284 Q 856 305 811 326 Q 795 336 763 326 Q 696 304 619 289 Q 553 280 455 273 C 425 271 449 235 478 242 Q 496 248 583 260 L 623 266 Q 753 293 773 275 Q 780 271 781 252 Q 782 164 768 77 Q 767 61 760 60 Q 759 59 752 60 C 728 43 720 48 722 44 Z"/>
  <path id="z22137d14" d="M 643 153 Q 686 160 724 164 Q 743 167 737 178 Q 728 190 707 195 Q 679 199 644 188 L 596 176 Q 559 170 526 162 Q 513 159 529 146 Q 532 143 597 147 L 643 153 Z"/>
  <path id="z22137d15" d="M 640 72 Q 641 115 643 153 L 644 188 Q 644 206 646 224 Q 652 245 623 266 C 599 284 570 287 583 260 Q 592 248 596 176 L 597 147 Q 598 114 600 65 C 601 35 639 42 640 72 Z"/>
  <path id="z22137d16" d="M 504 23 Q 505 23 508 23 Q 577 36 722 44 C 752 46 763 46 752 60 Q 748 67 730 80 Q 717 87 640 72 L 600 65 Q 548 58 504 53 C 474 50 474 20 504 23 Z"/>
<defs>
  <clipPath id="z22137c1"><use href="#z22137d1"/></clipPath>
  <clipPath id="z22137c2"><use href="#z22137d2"/></clipPath>
  <clipPath id="z22137c3"><use href="#z22137d3"/></clipPath>
  <clipPath id="z22137c4"><use href="#z22137d4"/></clipPath>
  <clipPath id="z22137c5"><use href="#z22137d5"/></clipPath>
  <clipPath id="z22137c6"><use href="#z22137d6"/></clipPath>
  <clipPath id="z22137c7"><use href="#z22137d7"/></clipPath>
  <clipPath id="z22137c8"><use href="#z22137d8"/></clipPath>
  <clipPath id="z22137c9"><use href="#z22137d9"/></clipPath>
  <clipPath id="z22137c10"><use href="#z22137d10"/></clipPath>
  <clipPath id="z22137c11"><use href="#z22137d11"/></clipPath>
  <clipPath id="z22137c12"><use href="#z22137d12"/></clipPath>
  <clipPath id="z22137c13"><use href="#z22137d13"/></clipPath>
  <clipPath id="z22137c14"><use href="#z22137d14"/></clipPath>
  <clipPath id="z22137c15"><use href="#z22137d15"/></clipPath>
  <clipPath id="z22137c16"><use href="#z22137d16"/></clipPath>
</defs>
<path style="--d:1s;" pathLength="3333" clip-path="url(#z22137c1)" d="M 76 571 L 100 549 L 108 529 L 141 343"/>
<path style="--d:2s;" pathLength="3333" clip-path="url(#z22137c2)" d="M 126 565 L 146 563 L 235 588 L 262 588 L 289 564 L 263 453 L 239 436"/>
<path style="--d:3s;" pathLength="3333" clip-path="url(#z22137c3)" d="M 159 384 L 167 394 L 215 407 L 264 413 L 296 410"/>
<path style="--d:4s;" pathLength="3333" clip-path="url(#z22137c4)" d="M 589 841 L 633 804 L 630 633 L 626 611 L 614 599"/>
<path style="--d:5s;" pathLength="3333" clip-path="url(#z22137c5)" d="M 452 718 L 517 672 L 531 644"/>
<path style="--d:6s;" pathLength="3333" clip-path="url(#z22137c6)" d="M 792 786 L 808 752 L 712 674"/>
<path style="--d:7s;" pathLength="3333" clip-path="url(#z22137c7)" d="M 386 580 L 399 555 L 400 534 L 378 460 L 377 432"/>
<path style="--d:8s;" pathLength="3333" clip-path="url(#z22137c8)" d="M 429 553 L 442 544 L 474 547 L 678 591 L 785 609 L 844 610 L 871 594 L 880 574 L 812 501"/>
<path style="--d:9s;" pathLength="3333" clip-path="url(#z22137c9)" d="M 473 480 L 503 451 L 532 329"/>
<path style="--d:10s;" pathLength="3333" clip-path="url(#z22137c10)" d="M 526 458 L 539 469 L 662 498 L 701 498 L 724 472 L 701 419 L 681 412"/>
<path style="--d:11s;" pathLength="3333" clip-path="url(#z22137c11)" d="M 547 370 L 570 365 L 661 381 L 723 374"/>
<path style="--d:12s;" pathLength="3333" clip-path="url(#z22137c12)" d="M 416 272 L 441 249 L 450 232 L 488 4"/>
<path style="--d:13s;" pathLength="3333" clip-path="url(#z22137c13)" d="M 464 272 L 486 260 L 570 268 L 763 303 L 794 299 L 816 280 L 824 267 L 798 70 L 776 22 L 778 -38"/>
<path style="--d:14s;" pathLength="3333" clip-path="url(#z22137c14)" d="M 528 154 L 585 158 L 672 177 L 728 174"/>
<path style="--d:15s;" pathLength="3333" clip-path="url(#z22137c15)" d="M 590 260 L 616 239 L 619 220 L 620 94 L 605 73"/>
<path style="--d:16s;" pathLength="3333" clip-path="url(#z22137c16)" d="M 506 31 L 519 40 L 580 49 L 730 65 L 745 61"/>
</svg>