<svg id="z25671" class="acjk" viewBox="0 0 1024 1024" xmlns="http://www.w3.org/2000/svg">
<style>
<![CDATA[
@keyframes zk {
	to {
		stroke-dashoffset:0;
	}
}
svg.acjk path[clip-path] {
	--t:0.8s;
	animation:zk var(--t) linear forwards var(--d);
	stroke-dasharray:3337;
	stroke-dashoffset:3339;
	stroke-width:128;
	stroke-linecap:round;
	stroke-linejoin:round;
	fill:none;
	stroke:#000;
}
svg.acjk path[id] {fill:#ccc;}
]]>
</style>
  <path id="z25671d1" d="M 327 512 Q 343 518 360 521 Q 391 531 397 535 Q 404 544 400 552 Q 393 564 362 569 Q 346 572 329 568 L 279 551 Q 204 527 132 515 Q 95 506 122 491 Q 158 472 234 489 Q 255 495 278 500 L 327 512 Z"/>
  <path id="z25671d2" d="M 273 327 Q 270 237 269 124 Q 268 100 255 91 Q 246 88 185 105 Q 152 118 155 109 Q 156 102 175 85 Q 235 31 249 2 Q 265 -32 281 -35 Q 296 -36 311 -2 Q 330 44 331 118 Q 324 245 324 370 L 324 400 Q 324 457 327 512 L 329 568 Q 329 670 350 740 Q 366 771 312 793 Q 278 812 259 805 Q 241 799 257 776 Q 279 749 279 715 Q 280 697 279 551 L 278 500 Q 277 442 274 367 L 273 327 Z"/>
  <path id="z25671d3" d="M 274 367 Q 187 312 112 259 Q 81 238 59 230 Q 47 224 45 216 Q 45 207 59 195 Q 78 182 101 175 Q 117 171 126 184 Q 168 233 273 327 L 324 370 Q 331 377 342 385 Q 361 398 369 412 Q 375 425 364 424 Q 358 423 324 400 L 274 367 Z"/>
  <path id="z25671d4" d="M 627 769 Q 579 727 457 671 Q 453 662 457 660 Q 505 660 634 713 Q 656 728 722 742 Q 738 743 741 750 Q 744 760 733 770 Q 714 785 673 800 Q 660 807 647 806 Q 640 802 640 792 Q 639 779 627 769 Z"/>
  <path id="z25671d5" d="M 462 578 Q 484 556 506 528 Q 516 515 530 514 Q 540 514 545 525 Q 551 537 546 564 Q 539 592 463 620 Q 450 624 444 623 Q 440 620 439 609 Q 442 599 462 578 Z"/>
  <path id="z25671d6" d="M 564 631 Q 604 564 627 560 Q 639 557 646 572 Q 649 582 643 602 Q 628 635 571 654 Q 564 657 561 647 Q 560 640 564 631 Z"/>
  <path id="z25671d7" d="M 780 658 Q 744 606 671 529 Q 665 522 671 515 Q 678 514 686 518 Q 798 603 852 636 Q 870 640 866 651 Q 860 667 842 686 Q 823 704 801 706 Q 786 706 787 687 Q 790 674 780 658 Z"/>
  <path id="z25671d8" d="M 524 420 Q 531 436 541 448 Q 548 458 536 470 Q 500 495 479 490 Q 470 487 473 476 Q 488 407 423 325 Q 407 306 400 294 Q 394 281 406 286 Q 443 290 502 380 Q 508 395 511 398 L 524 420 Z"/>
  <path id="z25671d9" d="M 633 396 Q 789 432 795 437 Q 804 444 799 453 Q 792 463 764 470 Q 734 476 705 463 Q 666 450 623 438 Q 577 428 524 420 C 494 415 484 412 511 398 Q 544 379 594 387 L 633 396 Z"/>
  <path id="z25671d10" d="M 660 253 Q 739 265 853 268 Q 910 268 916 278 Q 920 290 905 302 Q 853 338 792 322 Q 737 310 661 293 L 609 283 Q 506 267 383 246 Q 364 243 379 227 Q 392 214 410 210 Q 431 206 446 210 Q 521 234 610 246 L 660 253 Z"/>
  <path id="z25671d11" d="M 654 89 Q 657 179 660 253 L 661 293 Q 662 306 663 319 Q 666 365 662 372 Q 647 387 633 396 C 608 413 586 416 594 387 Q 606 348 609 288 Q 608 287 609 283 L 610 246 Q 610 186 611 82 C 611 52 653 59 654 89 Z"/>
  <path id="z25671d12" d="M 803 107 Q 724 101 654 89 L 611 82 Q 550 75 497 59 Q 484 58 489 72 Q 496 96 506 121 Q 513 142 506 156 Q 496 174 476 190 Q 467 197 457 197 Q 447 196 451 177 Q 461 135 448 99 Q 438 63 419 50 Q 401 37 406 23 Q 415 7 430 -4 Q 440 -11 451 -5 Q 487 26 690 63 Q 774 76 798 70 C 828 67 833 109 803 107 Z"/>
  <path id="z25671d13" d="M 798 70 Q 794 51 820 12 Q 830 0 838 11 Q 848 26 849 162 Q 850 177 854 189 Q 860 202 849 213 Q 830 223 801 235 Q 789 239 780 233 Q 774 229 778 218 Q 802 194 803 107 L 798 70 Z"/>
<defs>
  <clipPath id="z25671c1"><use href="#z25671d1"/></clipPath>
  <clipPath id="z25671c2"><use href="#z25671d2"/></clipPath>
  <clipPath id="z25671c3"><use href="#z25671d3"/></clipPath>
  <clipPath id="z25671c4"><use href="#z25671d4"/></clipPath>
  <clipPath id="z25671c5"><use href="#z25671d5"/></clipPath>
  <clipPath id="z25671c6"><use href="#z25671d6"/></clipPath>
  <clipPath id="z25671c7"><use href="#z25671d7"/></clipPath>
  <clipPath id="z25671c8"><use href="#z25671d8"/></clipPath>
  <clipPath id="z25671c9"><use href="#z25671d9"/></clipPath>
  <clipPath id="z25671c10"><use href="#z25671d10"/></clipPath>
  <clipPath id="z25671c11"><use href="#z25671d11"/></clipPath>
  <clipPath id="z25671c12"><use href="#z25671d12"/></clipPath>
  <clipPath id="z25671c13"><use href="#z25671d13"/></clipPath>
</defs>
<path style="--d:1s;" pathLength="3333" clip-path="url(#z25671c1)" d="M 124 504 L 162 500 L 203 506 L 346 545 L 388 545"/>
<path style="--d:2s;" pathLength="3333" clip-path="url(#z25671c2)" d="M 265 790 L 282 782 L 313 750 L 303 588 L 300 110 L 293 78 L 276 48 L 174 98 L 172 106 L 161 106"/>
<path style="--d:3s;" pathLength="3333" clip-path="url(#z25671c3)" d="M 56 214 L 103 212 L 363 417"/>
<path style="--d:4s;" pathLength="3333" clip-path="url(#z25671c4)" d="M 731 755 L 668 765 L 578 710 L 461 666"/>
<path style="--d:5s;" pathLength="3333" clip-path="url(#z25671c5)" d="M 448 614 L 507 570 L 530 530"/>
<path style="--d:6s;" pathLength="3333" clip-path="url(#z25671c6)" d="M 571 644 L 608 609 L 630 576"/>
<path style="--d:7s;" pathLength="3333" clip-path="url(#z25671c7)" d="M 801 692 L 819 658 L 677 522"/>
<path style="--d:8s;" pathLength="3333" clip-path="url(#z25671c8)" d="M 485 479 L 506 450 L 481 380 L 449 333 L 409 294"/>
<path style="--d:9s;" pathLength="3333" clip-path="url(#z25671c9)" d="M 519 401 L 642 418 L 754 449 L 789 447"/>
<path style="--d:10s;" pathLength="3333" clip-path="url(#z25671c10)" d="M 382 236 L 437 232 L 563 258 L 805 296 L 875 293 L 907 283"/>
<path style="--d:11s;" pathLength="3333" clip-path="url(#z25671c11)" d="M 602 383 L 627 367 L 635 331 L 633 114 L 617 91"/>
<path style="--d:12s;" pathLength="3333" clip-path="url(#z25671c12)" d="M 460 187 L 482 143 L 463 64 L 463 44 L 474 40 L 502 39 L 692 80 L 773 87 L 787 90 L 796 102"/>
<path style="--d:13s;" pathLength="3333" clip-path="url(#z25671c13)" d="M 789 224 L 824 190 L 822 59 L 829 16"/>
</svg>