<svg id="z20886" class="acjk" viewBox="0 0 1024 1024" xmlns="http://www.w3.org/2000/svg">
<style>
<![CDATA[
@keyframes zk {
	to {
		stroke-dashoffset:0;
	}
}
svg.acjk path[clip-path] {
	--t:0.8s;
	animation:zk var(--t) linear forwards var(--d);
	stroke-dasharray:3337;
	stroke-dashoffset:3339;
	stroke-width:128;
	stroke-linecap:round;
	stroke-linejoin:round;
	fill:none;
	stroke:#000;
}
svg.acjk path[id] {fill:#ccc;}
]]>
</style>
  <path id="z20886d1" d="M 265 683 Q 253 707 242 716 Q 223 731 221 705 Q 225 674 176 611 Q 140 575 167 515 Q 182 488 202 515 Q 214 533 260 650 C 270 674 270 674 265 683 Z"/>
  <path id="z20886d2" d="M 260 650 Q 279 641 336 651 Q 474 691 701 706 Q 725 707 737 705 Q 755 692 752 684 Q 752 681 721 603 Q 714 590 721 585 Q 728 581 745 594 Q 800 636 846 651 Q 885 666 883 675 Q 882 685 808 737 Q 787 753 713 741 Q 563 725 367 695 Q 315 688 265 683 C 235 680 231 656 260 650 Z"/>
<defs>
  <clipPath id="z20886c1"><use href="#z20886d1"/></clipPath>
  <clipPath id="z20886c2"><use href="#z20886d2"/></clipPath>
</defs>
<path style="--d:1s;" pathLength="3333" clip-path="url(#z20886c1)" d="M 232 710 L 242 680 L 233 648 L 191 572 L 183 519"/>
<path style="--d:2s;" pathLength="3333" clip-path="url(#z20886c2)" d="M 266 655 L 281 665 L 497 701 L 748 725 L 786 706 L 800 684 L 726 592"/>
</svg>