<svg id="z22352" class="acjk" viewBox="0 0 1024 1024" xmlns="http://www.w3.org/2000/svg">
<style>
<![CDATA[
@keyframes zk {
	to {
		stroke-dashoffset:0;
	}
}
svg.acjk path[clip-path] {
	--t:0.8s;
	animation:zk var(--t) linear forwards var(--d);
	stroke-dasharray:3337;
	stroke-dashoffset:3339;
	stroke-width:128;
	stroke-linecap:round;
	stroke-linejoin:round;
	fill:none;
	stroke:#000;
}
svg.acjk path[id] {fill:#ccc;}
]]>
</style>
  <path id="z22352d1" d="M 304 468 Q 314 487 325 506 Q 350 558 376 602 Q 386 615 371 628 Q 328 658 304 652 Q 294 649 297 636 Q 313 525 198 385 Q 189 381 148 328 Q 141 312 156 318 Q 175 322 202 346 Q 254 394 291 448 L 304 468 Z"/>
  <path id="z22352d2" d="M 291 448 Q 292 447 295 445 Q 338 420 392 379 Q 408 366 421 365 Q 428 365 432 374 Q 439 387 423 419 Q 410 447 349 461 Q 324 465 304 468 C 274 472 267 466 291 448 Z"/>
  <path id="z22352d3" d="M 690 483 Q 709 514 725 547 Q 749 596 771 637 Q 780 650 764 664 Q 718 692 694 687 Q 684 683 687 669 Q 708 573 607 431 Q 594 425 564 376 Q 557 360 572 366 Q 608 378 675 462 L 690 483 Z"/>
  <path id="z22352d4" d="M 675 462 Q 676 461 680 459 Q 732 428 797 380 Q 813 365 828 364 Q 835 365 840 375 Q 849 388 830 423 Q 817 457 746 473 Q 712 480 690 483 C 660 487 649 477 675 462 Z"/>
  <path id="z22352d5" d="M 540 234 Q 598 244 660 253 Q 717 263 725 271 Q 735 278 731 288 Q 724 300 694 309 Q 664 316 633 306 Q 587 293 542 281 L 497 271 Q 419 258 332 253 Q 295 249 320 230 Q 360 206 434 217 Q 464 223 496 226 L 540 234 Z"/>
  <path id="z22352d6" d="M 536 82 Q 537 160 540 234 L 542 281 Q 545 441 548 592 Q 554 653 560 693 Q 569 729 574 754 Q 578 767 554 784 Q 512 806 484 810 Q 465 814 456 804 Q 447 795 457 778 Q 497 717 497 676 Q 504 484 497 271 L 496 226 Q 492 154 488 77 C 486 47 536 52 536 82 Z"/>
  <path id="z22352d7" d="M 488 77 Q 349 67 187 53 Q 163 52 180 31 Q 216 -5 258 4 Q 493 61 882 38 Q 882 39 885 38 Q 907 37 914 46 Q 921 59 902 76 Q 841 127 773 111 Q 679 98 536 82 L 488 77 Z"/>
<defs>
  <clipPath id="z22352c1"><use href="#z22352d1"/></clipPath>
  <clipPath id="z22352c2"><use href="#z22352d2"/></clipPath>
  <clipPath id="z22352c3"><use href="#z22352d3"/></clipPath>
  <clipPath id="z22352c4"><use href="#z22352d4"/></clipPath>
  <clipPath id="z22352c5"><use href="#z22352d5"/></clipPath>
  <clipPath id="z22352c6"><use href="#z22352d6"/></clipPath>
  <clipPath id="z22352c7"><use href="#z22352d7"/></clipPath>
</defs>
<path style="--d:1s;" pathLength="3333" clip-path="url(#z22352c1)" d="M 307 641 L 336 607 L 296 497 L 238 406 L 209 372 L 158 328"/>
<path style="--d:2s;" pathLength="3333" clip-path="url(#z22352c2)" d="M 297 451 L 323 449 L 379 423 L 406 400 L 419 378"/>
<path style="--d:3s;" pathLength="3333" clip-path="url(#z22352c3)" d="M 700 674 L 725 647 L 728 636 L 695 538 L 640 447 L 573 375"/>
<path style="--d:4s;" pathLength="3333" clip-path="url(#z22352c4)" d="M 681 466 L 697 467 L 787 426 L 811 404 L 826 377"/>
<path style="--d:5s;" pathLength="3333" clip-path="url(#z22352c5)" d="M 324 243 L 365 235 L 419 238 L 499 248 L 659 283 L 719 283"/>
<path style="--d:6s;" pathLength="3333" clip-path="url(#z22352c6)" d="M 470 792 L 526 748 L 528 727 L 515 137 L 513 103 L 493 84"/>
<path style="--d:7s;" pathLength="3333" clip-path="url(#z22352c7)" d="M 184 42 L 221 31 L 258 31 L 467 57 L 787 78 L 841 74 L 902 53"/>
</svg>