<svg id="z21195" class="acjk" viewBox="0 0 1024 1024" xmlns="http://www.w3.org/2000/svg">
<style>
<![CDATA[
@keyframes zk {
	to {
		stroke-dashoffset:0;
	}
}
svg.acjk path[clip-path] {
	--t:0.8s;
	animation:zk var(--t) linear forwards var(--d);
	stroke-dasharray:3337;
	stroke-dashoffset:3339;
	stroke-width:128;
	stroke-linecap:round;
	stroke-linejoin:round;
	fill:none;
	stroke:#000;
}
svg.acjk path[id] {fill:#ccc;}
]]>
</style>
  <path id="z21195d1" d="M 243 754 Q 233 760 201 764 Q 191 767 187 762 Q 181 756 189 741 Q 214 695 231 617 Q 234 593 248 579 Q 266 558 270 573 Q 273 582 273 593 L 271 622 Q 259 700 254 726 C 249 751 249 751 243 754 Z"/>
  <path id="z21195d2" d="M 481 655 Q 502 706 527 724 Q 543 742 529 759 Q 457 819 407 790 Q 349 772 243 754 C 213 749 224 721 254 726 Q 264 727 278 731 Q 345 741 411 753 Q 427 757 434 750 Q 444 740 426 657 C 420 628 469 627 481 655 Z"/>
  <path id="z21195d3" d="M 273 593 Q 283 590 296 593 Q 357 609 493 623 Q 503 624 504 633 Q 504 640 481 655 C 464 667 455 664 426 657 Q 339 635 271 622 C 242 616 243 598 273 593 Z"/>
  <path id="z21195d4" d="M 233 509 Q 214 525 189 532 Q 182 533 175 526 Q 172 522 179 511 Q 215 429 186 277 Q 173 237 178 215 Q 187 184 197 172 Q 207 159 217 172 Q 241 200 242 359 Q 242 458 248 484 C 250 496 250 496 233 509 Z"/>
  <path id="z21195d5" d="M 440 241 Q 433 220 445 200 Q 458 173 466 174 Q 479 175 494 205 Q 507 229 506 248 Q 482 446 518 498 Q 527 513 520 522 Q 495 544 450 562 Q 437 566 415 558 Q 337 522 233 509 C 203 505 218 480 248 484 Q 254 484 260 485 Q 416 525 434 515 Q 443 494 447 439 Q 448 273 440 241 Z"/>
  <path id="z21195d6" d="M 322 377 Q 322 167 262 87 Q 249 74 234 59 Q 206 34 145 1 Q 133 -3 130 -7 Q 126 -11 140 -14 Q 174 -18 260 26 Q 356 83 371 302 Q 371 356 388 405 Q 394 415 385 423 Q 337 466 301 456 Q 282 449 297 433 Q 322 405 322 377 Z"/>
  <path id="z21195d7" d="M 391 137 Q 415 106 439 68 Q 446 56 459 54 Q 466 53 473 61 Q 480 71 479 95 Q 476 131 396 174 Q 386 178 380 178 Q 376 177 374 166 Q 375 157 391 137 Z"/>
  <path id="z21195d8" d="M 728 451 Q 774 464 819 470 Q 832 471 837 465 Q 844 449 841 404 Q 831 242 800 157 Q 784 103 767 87 Q 755 77 733 84 Q 700 96 672 107 Q 650 116 664 93 Q 707 41 730 0 Q 739 -22 760 -18 Q 779 -15 804 12 Q 873 88 897 360 Q 901 421 925 458 Q 941 479 932 488 Q 917 507 883 521 Q 858 533 833 521 Q 793 503 735 486 L 675 470 Q 603 454 562 452 Q 546 453 545 444 Q 544 435 564 424 Q 588 409 609 418 Q 637 428 668 436 L 728 451 Z"/>
  <path id="z21195d9" d="M 668 436 Q 629 243 477 31 Q 471 25 469 19 Q 465 7 476 9 Q 516 15 611 151 Q 623 172 636 193 Q 696 310 728 451 L 735 486 Q 756 618 767 648 Q 777 661 770 677 Q 754 696 722 712 Q 703 725 689 720 Q 676 713 682 699 Q 701 672 693 595 Q 675 475 675 470 L 668 436 Z"/>
<defs>
  <clipPath id="z21195c1"><use href="#z21195d1"/></clipPath>
  <clipPath id="z21195c2"><use href="#z21195d2"/></clipPath>
  <clipPath id="z21195c3"><use href="#z21195d3"/></clipPath>
  <clipPath id="z21195c4"><use href="#z21195d4"/></clipPath>
  <clipPath id="z21195c5"><use href="#z21195d5"/></clipPath>
  <clipPath id="z21195c6"><use href="#z21195d6"/></clipPath>
  <clipPath id="z21195c7"><use href="#z21195d7"/></clipPath>
  <clipPath id="z21195c8"><use href="#z21195d8"/></clipPath>
  <clipPath id="z21195c9"><use href="#z21195d9"/></clipPath>
</defs>
<path style="--d:1s;" pathLength="3333" clip-path="url(#z21195c1)" d="M 195 755 L 227 723 L 260 578"/>
<path style="--d:2s;" pathLength="3333" clip-path="url(#z21195c2)" d="M 253 750 L 263 742 L 422 775 L 451 772 L 481 741 L 461 685 L 433 669"/>
<path style="--d:3s;" pathLength="3333" clip-path="url(#z21195c3)" d="M 279 615 L 289 608 L 432 637 L 474 639 L 494 633"/>
<path style="--d:4s;" pathLength="3333" clip-path="url(#z21195c4)" d="M 186 521 L 207 501 L 219 479 L 222 371 L 205 224 L 207 176"/>
<path style="--d:5s;" pathLength="3333" clip-path="url(#z21195c5)" d="M 242 506 L 254 498 L 270 498 L 277 504 L 317 509 L 430 539 L 448 537 L 476 507 L 471 427 L 475 255 L 467 184"/>
<path style="--d:6s;" pathLength="3333" clip-path="url(#z21195c6)" d="M 302 444 L 327 433 L 352 406 L 342 250 L 314 132 L 283 76 L 242 37 L 164 -2 L 136 -9"/>
<path style="--d:7s;" pathLength="3333" clip-path="url(#z21195c7)" d="M 382 169 L 443 110 L 459 71"/>
<path style="--d:8s;" pathLength="3333" clip-path="url(#z21195c8)" d="M 554 442 L 597 435 L 837 495 L 860 492 L 881 472 L 851 227 L 831 145 L 803 75 L 786 52 L 763 36 L 665 102"/>
<path style="--d:9s;" pathLength="3333" clip-path="url(#z21195c9)" d="M 695 706 L 732 662 L 710 502 L 677 360 L 623 224 L 586 154 L 538 84 L 477 17"/>
</svg>