<svg id="z20795" class="acjk" viewBox="0 0 1024 1024" xmlns="http://www.w3.org/2000/svg">
<style>
<![CDATA[
@keyframes zk {
	to {
		stroke-dashoffset:0;
	}
}
svg.acjk path[clip-path] {
	--t:0.8s;
	animation:zk var(--t) linear forwards var(--d);
	stroke-dasharray:3337;
	stroke-dashoffset:3339;
	stroke-width:128;
	stroke-linecap:round;
	stroke-linejoin:round;
	fill:none;
	stroke:#000;
}
svg.acjk path[id] {fill:#ccc;}
]]>
</style>
  <path id="z20795d1" d="M 206 479 Q 251 548 297 643 Q 319 692 340 718 Q 347 730 342 743 Q 336 755 306 775 Q 278 790 259 788 Q 241 784 251 764 Q 269 733 259 706 Q 211 547 72 343 Q 63 333 61 326 Q 60 314 73 318 Q 109 334 185 448 L 206 479 Z"/>
  <path id="z20795d2" d="M 185 448 Q 209 391 210 330 Q 210 207 184 103 Q 172 52 206 13 Q 207 10 210 8 Q 226 -8 238 18 Q 253 58 252 103 Q 252 338 260 391 Q 267 418 258 428 Q 216 474 206 479 C 182 498 174 476 185 448 Z"/>
  <path id="z20795d3" d="M 602 670 Q 611 763 627 824 Q 630 833 613 845 Q 585 860 566 864 Q 553 867 546 860 Q 539 853 546 841 Q 564 820 567 664 C 568 634 599 640 602 670 Z"/>
  <path id="z20795d4" d="M 437 741 Q 462 705 486 691 Q 496 688 504 697 Q 510 706 508 718 Q 505 736 493 746 Q 459 776 429 770 Q 425 769 426 760 Q 426 751 437 741 Z"/>
  <path id="z20795d5" d="M 705 792 Q 698 777 689 767 Q 679 752 667 736 Q 657 723 672 725 Q 673 725 738 753 Q 754 766 775 774 Q 793 781 785 796 Q 775 811 753 824 Q 734 836 723 834 Q 713 833 715 822 Q 718 806 705 792 Z"/>
  <path id="z20795d6" d="M 400 638 Q 388 665 372 676 Q 368 680 363 677 Q 357 674 356 663 Q 359 630 329 577 Q 319 561 319 543 Q 320 524 329 510 Q 336 498 342 506 Q 348 506 357 521 Q 361 527 371 551 Q 387 591 396 606 Q 400 613 403 620 C 406 626 406 626 400 638 Z"/>
  <path id="z20795d7" d="M 403 620 Q 422 607 464 614 Q 590 653 776 667 Q 788 667 795 666 Q 805 659 802 652 Q 803 646 799 640 Q 775 583 779 580 Q 786 577 802 587 Q 848 615 886 622 Q 916 629 916 637 Q 913 646 853 691 Q 832 709 757 693 Q 688 686 602 670 L 567 664 Q 533 660 496 654 Q 453 645 407 640 Q 403 640 400 638 C 372 633 375 631 403 620 Z"/>
  <path id="z20795d8" d="M 465 586 Q 456 587 454 584 Q 450 580 457 568 Q 475 540 490 491 Q 494 476 503 468 Q 518 452 521 464 Q 522 468 522 476 L 518 504 Q 508 547 507 561 C 505 584 495 584 465 586 Z"/>
  <path id="z20795d9" d="M 678 515 Q 694 549 708 560 Q 727 579 709 593 Q 694 603 672 620 Q 657 630 641 621 Q 575 588 465 586 C 435 585 478 555 507 561 Q 520 564 610 581 Q 638 587 644 576 Q 648 572 643 555 Q 640 542 636 528 C 628 499 665 488 678 515 Z"/>
  <path id="z20795d10" d="M 522 476 Q 523 476 529 477 Q 577 487 678 496 Q 687 497 688 504 Q 688 508 678 515 L 636 528 Q 632 529 627 527 Q 566 512 518 504 C 488 499 492 472 522 476 Z"/>
  <path id="z20795d11" d="M 427 411 Q 418 415 387 419 Q 377 420 374 416 Q 370 410 378 398 Q 405 350 426 271 Q 430 247 446 233 Q 462 215 465 229 Q 466 233 467 240 L 466 262 Q 465 272 462 282 Q 443 355 437 382 C 431 410 431 410 427 411 Z"/>
  <path id="z20795d12" d="M 715 274 Q 715 273 716 270 Q 720 257 731 256 Q 743 257 750 270 Q 759 279 779 328 Q 795 371 826 396 Q 842 409 830 422 Q 815 438 773 462 Q 761 469 686 454 Q 659 454 526 428 Q 468 418 427 411 C 397 406 407 379 437 382 Q 444 381 452 383 Q 488 395 547 405 L 584 411 Q 725 439 746 425 Q 753 421 747 398 Q 729 317 717 296 C 711 282 711 282 715 274 Z"/>
  <path id="z20795d13" d="M 475 345 Q 506 302 519 299 Q 528 298 533 309 Q 534 318 530 331 Q 515 356 480 362 Q 474 363 473 356 Q 472 352 475 345 Z"/>
  <path id="z20795d14" d="M 654 373 Q 644 355 623 327 Q 620 323 623 320 Q 627 319 631 322 Q 673 352 693 363 Q 703 366 700 371 Q 697 380 687 389 Q 677 399 664 399 Q 657 399 657 388 Q 658 381 654 373 Z"/>
  <path id="z20795d15" d="M 598 258 Q 662 268 715 274 C 745 277 742 280 717 296 Q 704 309 656 298 Q 626 294 599 286 L 559 279 Q 510 270 466 262 C 436 257 437 237 467 240 Q 471 240 559 251 L 598 258 Z"/>
  <path id="z20795d16" d="M 594 141 Q 594 163 595 182 L 596 216 Q 596 238 598 258 L 599 286 Q 600 320 602 350 Q 605 392 597 401 Q 590 407 584 411 C 560 429 531 431 547 405 Q 551 399 554 393 Q 560 372 559 279 L 559 251 Q 559 232 559 206 L 559 176 Q 559 157 559 135 C 559 105 594 111 594 141 Z"/>
  <path id="z20795d17" d="M 595 182 Q 640 191 680 196 Q 699 199 693 210 Q 684 222 663 226 Q 638 229 596 216 L 559 206 Q 513 196 474 186 Q 461 183 477 171 Q 486 165 559 176 L 595 182 Z"/>
  <path id="z20795d18" d="M 559 135 Q 498 125 428 112 Q 413 111 425 98 Q 435 89 448 86 Q 464 82 475 86 Q 595 120 750 121 Q 763 122 767 128 Q 771 137 759 146 Q 717 173 666 158 Q 635 151 594 141 L 559 135 Z"/>
  <path id="z20795d19" d="M 358 78 Q 342 38 320 1 Q 305 -32 321 -57 Q 328 -73 347 -61 Q 386 -24 384 29 Q 387 59 379 80 Q 375 87 369 87 Q 362 86 358 78 Z"/>
  <path id="z20795d20" d="M 461 39 Q 488 -22 507 -30 Q 517 -34 528 -20 Q 532 -10 529 9 Q 525 24 508 35 Q 483 54 471 60 Q 464 64 460 54 Q 457 48 461 39 Z"/>
  <path id="z20795d21" d="M 600 55 Q 636 -5 655 -8 Q 667 -11 674 4 Q 677 14 671 34 Q 661 58 607 78 Q 600 81 597 71 Q 596 64 600 55 Z"/>
  <path id="z20795d22" d="M 751 58 Q 794 18 845 -40 Q 858 -56 871 -61 Q 878 -62 885 -54 Q 895 -44 885 -6 Q 875 42 752 83 Q 745 87 743 78 Q 742 66 751 58 Z"/>
<defs>
  <clipPath id="z20795c1"><use href="#z20795d1"/></clipPath>
  <clipPath id="z20795c2"><use href="#z20795d2"/></clipPath>
  <clipPath id="z20795c3"><use href="#z20795d3"/></clipPath>
  <clipPath id="z20795c4"><use href="#z20795d4"/></clipPath>
  <clipPath id="z20795c5"><use href="#z20795d5"/></clipPath>
  <clipPath id="z20795c6"><use href="#z20795d6"/></clipPath>
  <clipPath id="z20795c7"><use href="#z20795d7"/></clipPath>
  <clipPath id="z20795c8"><use href="#z20795d8"/></clipPath>
  <clipPath id="z20795c9"><use href="#z20795d9"/></clipPath>
  <clipPath id="z20795c10"><use href="#z20795d10"/></clipPath>
  <clipPath id="z20795c11"><use href="#z20795d11"/></clipPath>
  <clipPath id="z20795c12"><use href="#z20795d12"/></clipPath>
  <clipPath id="z20795c13"><use href="#z20795d13"/></clipPath>
  <clipPath id="z20795c14"><use href="#z20795d14"/></clipPath>
  <clipPath id="z20795c15"><use href="#z20795d15"/></clipPath>
  <clipPath id="z20795c16"><use href="#z20795d16"/></clipPath>
  <clipPath id="z20795c17"><use href="#z20795d17"/></clipPath>
  <clipPath id="z20795c18"><use href="#z20795d18"/></clipPath>
  <clipPath id="z20795c19"><use href="#z20795d19"/></clipPath>
  <clipPath id="z20795c20"><use href="#z20795d20"/></clipPath>
  <clipPath id="z20795c21"><use href="#z20795d21"/></clipPath>
  <clipPath id="z20795c22"><use href="#z20795d22"/></clipPath>
</defs>
<path style="--d:1s;" pathLength="3333" clip-path="url(#z20795c1)" d="M 261 774 L 279 762 L 301 732 L 269 647 L 220 546 L 151 429 L 70 326"/>
<path style="--d:2s;" pathLength="3333" clip-path="url(#z20795c2)" d="M 205 472 L 211 445 L 229 417 L 232 392 L 229 204 L 216 78 L 222 18"/>
<path style="--d:3s;" pathLength="3333" clip-path="url(#z20795c3)" d="M 556 851 L 590 819 L 585 686 L 571 677"/>
<path style="--d:4s;" pathLength="3333" clip-path="url(#z20795c4)" d="M 436 763 L 473 734 L 491 707"/>
<path style="--d:5s;" pathLength="3333" clip-path="url(#z20795c5)" d="M 728 822 L 741 791 L 671 731"/>
<path style="--d:6s;" pathLength="3333" clip-path="url(#z20795c6)" d="M 366 667 L 374 651 L 376 623 L 343 547 L 339 519"/>
<path style="--d:7s;" pathLength="3333" clip-path="url(#z20795c7)" d="M 405 634 L 423 627 L 452 628 L 629 664 L 805 683 L 832 666 L 840 647 L 784 583"/>
<path style="--d:8s;" pathLength="3333" clip-path="url(#z20795c8)" d="M 460 580 L 491 543 L 512 468"/>
<path style="--d:9s;" pathLength="3333" clip-path="url(#z20795c9)" d="M 483 580 L 538 578 L 629 599 L 657 598 L 675 580 L 675 565 L 663 543 L 645 533"/>
<path style="--d:10s;" pathLength="3333" clip-path="url(#z20795c10)" d="M 525 484 L 542 494 L 622 509 L 679 506"/>
<path style="--d:11s;" pathLength="3333" clip-path="url(#z20795c11)" d="M 382 411 L 408 391 L 416 373 L 456 232"/>
<path style="--d:12s;" pathLength="3333" clip-path="url(#z20795c12)" d="M 434 405 L 453 399 L 700 445 L 763 441 L 780 423 L 785 407 L 732 270"/>
<path style="--d:13s;" pathLength="3333" clip-path="url(#z20795c13)" d="M 482 352 L 505 334 L 520 311"/>
<path style="--d:14s;" pathLength="3333" clip-path="url(#z20795c14)" d="M 691 372 L 674 375 L 626 324"/>
<path style="--d:15s;" pathLength="3333" clip-path="url(#z20795c15)" d="M 468 246 L 490 256 L 544 259 L 669 286 L 700 288 L 707 280"/>
<path style="--d:16s;" pathLength="3333" clip-path="url(#z20795c16)" d="M 554 401 L 579 385 L 581 360 L 577 163 L 564 142"/>
<path style="--d:17s;" pathLength="3333" clip-path="url(#z20795c17)" d="M 482 180 L 546 186 L 636 208 L 684 206"/>
<path style="--d:18s;" pathLength="3333" clip-path="url(#z20795c18)" d="M 436 103 L 466 101 L 679 140 L 718 142 L 759 133"/>
<path style="--d:19s;" pathLength="3333" clip-path="url(#z20795c19)" d="M 369 76 L 357 11 L 335 -51"/>
<path style="--d:20s;" pathLength="3333" clip-path="url(#z20795c20)" d="M 470 48 L 506 5 L 511 -16"/>
<path style="--d:21s;" pathLength="3333" clip-path="url(#z20795c21)" d="M 607 68 L 648 27 L 658 8"/>
<path style="--d:22s;" pathLength="3333" clip-path="url(#z20795c22)" d="M 751 74 L 840 9 L 857 -10 L 873 -47"/>
</svg>