<svg id="z27635" class="acjk" viewBox="0 0 1024 1024" xmlns="http://www.w3.org/2000/svg">
<style>
<![CDATA[
@keyframes zk {
	to {
		stroke-dashoffset:0;
	}
}
svg.acjk path[clip-path] {
	--t:0.8s;
	animation:zk var(--t) linear forwards var(--d);
	stroke-dasharray:3337;
	stroke-dashoffset:3339;
	stroke-width:128;
	stroke-linecap:round;
	stroke-linejoin:round;
	fill:none;
	stroke:#000;
}
svg.acjk path[id] {fill:#ccc;}
]]>
</style>
  <path id="z27635d1" d="M 484 730 Q 595 767 629 771 Q 647 771 651 778 Q 655 788 644 800 Q 625 818 582 838 Q 567 847 554 846 Q 547 843 545 832 Q 539 784 306 704 Q 300 695 306 692 Q 319 689 425 715 Q 435 718 447 720 L 484 730 Z"/>
  <path id="z27635d2" d="M 495 636 Q 531 646 568 653 Q 605 663 611 668 Q 618 675 615 682 Q 608 692 583 698 Q 553 704 502 681 L 456 667 Q 357 649 331 644 Q 300 638 322 624 Q 358 606 409 618 Q 428 624 454 627 L 495 636 Z"/>
  <path id="z27635d3" d="M 490 550 Q 569 569 670 585 Q 685 586 686 594 Q 687 606 670 614 Q 645 624 623 620 Q 545 601 490 587 L 452 578 Q 314 550 240 541 Q 228 540 225 532 Q 222 522 237 511 Q 273 486 313 499 Q 392 527 452 541 L 490 550 Z"/>
  <path id="z27635d4" d="M 658 428 Q 745 440 804 477 Q 820 490 808 512 Q 798 525 780 573 Q 779 586 773 590 Q 767 591 764 577 Q 742 525 729 509 Q 716 494 681 485 Q 597 463 532 486 Q 507 496 500 512 Q 493 528 490 550 L 490 587 Q 491 611 495 636 L 502 681 Q 503 688 505 695 Q 509 710 499 719 Q 493 726 484 730 C 460 748 439 749 447 720 L 448 719 Q 455 694 456 667 L 454 627 Q 453 600 452 578 L 452 541 Q 453 483 482 459 Q 525 429 627 428 L 658 428 Z"/>
  <path id="z27635d5" d="M 293 345 Q 374 378 413 386 Q 428 387 431 393 Q 435 402 424 412 Q 373 449 346 446 Q 339 442 339 433 Q 333 397 165 322 Q 161 315 165 312 Q 189 312 255 334 L 293 345 Z"/>
  <path id="z27635d6" d="M 325 249 Q 347 256 373 261 Q 404 268 408 273 Q 415 280 411 287 Q 404 296 381 301 Q 354 305 327 292 L 279 275 Q 270 274 262 271 Q 222 261 174 254 Q 144 248 166 236 Q 196 220 281 238 L 325 249 Z"/>
  <path id="z27635d7" d="M 322 155 Q 371 168 432 179 Q 445 182 446 188 Q 447 198 431 206 Q 404 216 324 191 L 281 180 Q 151 149 102 141 Q 92 140 89 133 Q 88 124 100 115 Q 134 94 169 106 Q 232 131 280 143 L 322 155 Z"/>
  <path id="z27635d8" d="M 280 143 Q 276 68 251 28 Q 241 9 249 -2 Q 258 -14 281 -23 Q 297 -30 308 -13 Q 321 21 403 82 Q 428 98 439 117 Q 446 127 437 128 Q 430 128 343 79 Q 333 72 326 75 Q 317 78 319 98 Q 320 129 322 155 L 324 191 Q 324 209 325 249 L 327 292 Q 328 299 329 304 Q 333 319 323 327 Q 308 339 293 345 C 266 358 237 358 255 334 Q 273 316 279 275 L 281 238 Q 282 210 281 180 L 280 143 Z"/>
  <path id="z27635d9" d="M 596 345 Q 671 372 697 376 Q 710 376 714 382 Q 717 391 708 400 Q 692 413 658 428 C 631 440 629 441 627 428 Q 626 427 626 423 Q 626 390 481 330 Q 477 323 481 320 Q 496 320 558 335 L 596 345 Z"/>
  <path id="z27635d10" d="M 620 251 Q 734 284 736 284 Q 743 291 739 298 Q 732 308 707 313 Q 682 317 633 297 L 571 279 Q 534 272 490 264 Q 459 258 482 244 Q 518 225 566 238 Q 567 239 570 239 L 620 251 Z"/>
  <path id="z27635d11" d="M 609 162 Q 618 172 750 179 Q 754 180 762 180 Q 801 180 805 189 Q 808 199 794 209 Q 746 237 692 218 Q 658 211 612 198 L 569 188 Q 518 178 464 166 Q 448 163 461 151 Q 485 130 533 145 Q 549 151 569 154 L 609 162 Z"/>
  <path id="z27635d12" d="M 932 52 Q 916 92 906 163 Q 905 178 897 182 Q 890 186 887 168 Q 872 83 859 67 Q 834 39 728 38 Q 670 39 645 50 Q 624 62 619 76 Q 609 101 609 162 L 612 198 Q 615 229 620 251 L 633 297 Q 636 316 623 327 Q 607 339 596 345 C 571 361 549 363 558 335 Q 568 311 571 279 L 570 239 Q 569 212 569 188 L 569 154 Q 569 52 605 25 Q 650 -11 812 -8 Q 885 -7 915 9 Q 943 22 932 52 Z"/>
<defs>
  <clipPath id="z27635c1"><use href="#z27635d1"/></clipPath>
  <clipPath id="z27635c2"><use href="#z27635d2"/></clipPath>
  <clipPath id="z27635c3"><use href="#z27635d3"/></clipPath>
  <clipPath id="z27635c4"><use href="#z27635d4"/></clipPath>
  <clipPath id="z27635c5"><use href="#z27635d5"/></clipPath>
  <clipPath id="z27635c6"><use href="#z27635d6"/></clipPath>
  <clipPath id="z27635c7"><use href="#z27635d7"/></clipPath>
  <clipPath id="z27635c8"><use href="#z27635d8"/></clipPath>
  <clipPath id="z27635c9"><use href="#z27635d9"/></clipPath>
  <clipPath id="z27635c10"><use href="#z27635d10"/></clipPath>
  <clipPath id="z27635c11"><use href="#z27635d11"/></clipPath>
  <clipPath id="z27635c12"><use href="#z27635d12"/></clipPath>
</defs>
<path style="--d:1s;" pathLength="3333" clip-path="url(#z27635c1)" d="M 642 783 L 617 793 L 572 798 L 488 753 L 410 724 L 396 725 L 386 717 L 373 718 L 366 711 L 348 711 L 334 703 L 320 706 L 309 698"/>
<path style="--d:2s;" pathLength="3333" clip-path="url(#z27635c2)" d="M 324 635 L 397 635 L 546 673 L 604 677"/>
<path style="--d:3s;" pathLength="3333" clip-path="url(#z27635c3)" d="M 236 528 L 253 522 L 298 523 L 619 599 L 676 597"/>
<path style="--d:4s;" pathLength="3333" clip-path="url(#z27635c4)" d="M 456 714 L 479 701 L 471 581 L 478 505 L 495 480 L 526 463 L 582 452 L 635 451 L 709 465 L 735 476 L 770 501 L 770 583"/>
<path style="--d:5s;" pathLength="3333" clip-path="url(#z27635c5)" d="M 422 398 L 364 407 L 296 365 L 191 323 L 178 326 L 169 317"/>
<path style="--d:6s;" pathLength="3333" clip-path="url(#z27635c6)" d="M 167 246 L 192 242 L 268 252 L 341 276 L 401 282"/>
<path style="--d:7s;" pathLength="3333" clip-path="url(#z27635c7)" d="M 99 131 L 114 125 L 147 125 L 360 184 L 416 193 L 437 190"/>
<path style="--d:8s;" pathLength="3333" clip-path="url(#z27635c8)" d="M 263 332 L 291 321 L 301 302 L 304 223 L 295 79 L 301 45 L 337 53 L 437 122"/>
<path style="--d:9s;" pathLength="3333" clip-path="url(#z27635c9)" d="M 706 387 L 649 396 L 600 366 L 485 325"/>
<path style="--d:10s;" pathLength="3333" clip-path="url(#z27635c10)" d="M 484 255 L 541 253 L 628 272 L 680 291 L 733 292"/>
<path style="--d:11s;" pathLength="3333" clip-path="url(#z27635c11)" d="M 472 157 L 520 159 L 638 188 L 719 201 L 754 202 L 797 193"/>
<path style="--d:12s;" pathLength="3333" clip-path="url(#z27635c12)" d="M 566 331 L 593 315 L 601 303 L 591 219 L 591 106 L 606 56 L 633 32 L 690 18 L 779 15 L 839 22 L 881 36 L 892 43 L 894 58 L 896 175"/>
</svg>