<svg id="z20213" class="acjk" viewBox="0 0 1024 1024" xmlns="http://www.w3.org/2000/svg">
<style>
<![CDATA[
@keyframes zk {
	to {
		stroke-dashoffset:0;
	}
}
svg.acjk path[clip-path] {
	--t:0.8s;
	animation:zk var(--t) linear forwards var(--d);
	stroke-dasharray:3337;
	stroke-dashoffset:3339;
	stroke-width:128;
	stroke-linecap:round;
	stroke-linejoin:round;
	fill:none;
	stroke:#000;
}
svg.acjk path[id] {fill:#ccc;}
]]>
</style>
  <path id="z20213d1" d="M 234 512 Q 283 576 338 664 Q 366 716 392 742 Q 402 754 397 768 Q 393 783 361 807 Q 331 828 311 827 Q 290 826 299 801 Q 315 767 301 738 Q 262 641 202 549 Q 144 462 63 366 Q 53 354 50 348 Q 46 335 62 338 Q 102 348 208 480 Q 208 481 209 482 L 234 512 Z"/>
  <path id="z20213d2" d="M 209 482 Q 212 472 217 463 Q 244 402 226 227 Q 219 176 206 123 Q 196 78 230 27 Q 231 27 233 24 Q 251 8 263 35 Q 278 75 277 122 Q 277 369 285 424 Q 292 451 283 462 Q 241 507 234 512 C 212 532 198 510 209 482 Z"/>
  <path id="z20213d3" d="M 509 623 Q 531 657 555 696 Q 573 730 589 747 Q 596 757 592 771 Q 588 783 558 803 Q 531 819 514 818 Q 495 815 505 794 Q 526 757 454 623 Q 420 562 373 494 Q 363 484 362 477 Q 359 467 373 470 Q 401 479 490 596 L 509 623 Z"/>
  <path id="z20213d4" d="M 630 599 Q 696 615 767 630 Q 809 640 815 647 Q 825 656 819 664 Q 812 676 782 683 Q 754 687 642 650 Q 591 637 509 623 C 479 618 463 608 490 596 Q 526 578 576 586 L 630 599 Z"/>
  <path id="z20213d5" d="M 653 366 Q 744 376 910 377 Q 931 378 936 387 Q 942 399 924 413 Q 864 456 811 439 Q 748 426 653 408 L 600 399 Q 483 383 349 363 Q 327 360 343 343 Q 358 330 377 324 Q 399 318 415 324 Q 500 348 595 359 Q 596 360 600 359 L 653 366 Z"/>
  <path id="z20213d6" d="M 601 -22 Q 607 -47 614 -57 Q 620 -64 627 -62 Q 642 -53 648 8 Q 657 84 654 160 Q 651 209 653 366 L 653 408 Q 654 439 655 474 Q 655 498 665 558 Q 669 576 654 585 Q 641 594 630 599 C 604 614 565 614 576 586 Q 594 550 600 478 Q 600 442 600 399 L 600 359 Q 594 43 601 -22 Z"/>
<defs>
  <clipPath id="z20213c1"><use href="#z20213d1"/></clipPath>
  <clipPath id="z20213c2"><use href="#z20213d2"/></clipPath>
  <clipPath id="z20213c3"><use href="#z20213d3"/></clipPath>
  <clipPath id="z20213c4"><use href="#z20213d4"/></clipPath>
  <clipPath id="z20213c5"><use href="#z20213d5"/></clipPath>
  <clipPath id="z20213c6"><use href="#z20213d6"/></clipPath>
</defs>
<path style="--d:1s;" pathLength="3333" clip-path="url(#z20213c1)" d="M 310 811 L 337 785 L 348 757 L 299 658 L 259 590 L 170 464 L 118 402 L 60 347"/>
<path style="--d:2s;" pathLength="3333" clip-path="url(#z20213c2)" d="M 232 505 L 236 477 L 256 445 L 257 424 L 253 228 L 240 101 L 246 36"/>
<path style="--d:3s;" pathLength="3333" clip-path="url(#z20213c3)" d="M 515 804 L 537 784 L 548 760 L 526 705 L 467 598 L 416 528 L 370 478"/>
<path style="--d:4s;" pathLength="3333" clip-path="url(#z20213c4)" d="M 498 597 L 522 606 L 565 608 L 647 626 L 752 654 L 809 657"/>
<path style="--d:5s;" pathLength="3333" clip-path="url(#z20213c5)" d="M 346 353 L 404 346 L 535 371 L 835 410 L 876 407 L 924 393"/>
<path style="--d:6s;" pathLength="3333" clip-path="url(#z20213c6)" d="M 584 583 L 627 554 L 623 -53"/>
</svg>