<svg id="z28796" class="acjk" viewBox="0 0 1024 1024" xmlns="http://www.w3.org/2000/svg">
<style>
<![CDATA[
@keyframes zk {
	to {
		stroke-dashoffset:0;
	}
}
svg.acjk path[clip-path] {
	--t:0.8s;
	animation:zk var(--t) linear forwards var(--d);
	stroke-dasharray:3337;
	stroke-dashoffset:3339;
	stroke-width:128;
	stroke-linecap:round;
	stroke-linejoin:round;
	fill:none;
	stroke:#000;
}
svg.acjk path[id] {fill:#ccc;}
]]>
</style>
  <path id="z28796d1" d="M 144 588 Q 141 527 128 466 Q 121 435 146 408 Q 159 395 173 412 Q 186 433 189 465 Q 193 511 184 546 Q 178 577 164 595 Q 157 601 152 600 Q 145 596 144 588 Z"/>
  <path id="z28796d2" d="M 310 505 Q 350 532 375 550 Q 420 589 449 602 Q 467 611 458 625 Q 446 638 425 651 Q 404 661 394 659 Q 384 658 387 647 Q 390 622 311 528 C 292 505 285 488 310 505 Z"/>
  <path id="z28796d3" d="M 299 318 Q 305 387 310 505 L 311 528 Q 312 676 339 752 Q 346 765 334 777 Q 312 796 272 807 Q 247 813 237 806 Q 228 799 236 786 Q 297 690 251 322 Q 224 199 173 138 Q 140 104 92 67 Q 80 60 80 55 Q 81 51 93 51 Q 106 48 140 63 Q 261 112 294 286 L 299 318 Z"/>
  <path id="z28796d4" d="M 294 286 Q 298 280 308 272 Q 347 233 388 188 Q 398 175 413 174 Q 423 173 429 185 Q 435 198 430 226 Q 423 268 308 316 Q 304 317 299 318 C 270 324 275 309 294 286 Z"/>
  <path id="z28796d5" d="M 553 573 Q 589 627 627 701 Q 646 741 663 762 Q 672 774 666 787 Q 660 799 630 819 Q 602 834 584 832 Q 565 829 575 808 Q 590 783 582 760 Q 560 684 522 609 Q 485 539 432 459 Q 423 449 421 442 Q 420 430 432 434 Q 459 441 533 544 L 553 573 Z"/>
  <path id="z28796d6" d="M 702 94 Q 689 93 621 122 Q 611 126 611 120 Q 610 116 621 106 Q 663 58 681 25 Q 691 3 704 4 Q 725 3 745 24 Q 820 93 838 264 Q 848 360 854 494 Q 854 528 876 556 Q 889 569 888 578 Q 887 585 866 599 Q 839 618 804 629 Q 777 638 760 628 Q 741 621 694 607 Q 628 588 582 580 Q 566 577 553 573 C 524 566 503 543 533 544 Q 564 541 705 570 Q 771 582 781 573 Q 803 533 785 307 Q 775 207 739 132 Q 723 96 702 94 Z"/>
  <path id="z28796d7" d="M 500 359 Q 528 329 556 293 Q 568 278 583 277 Q 593 276 601 289 Q 608 302 603 334 Q 596 370 502 407 Q 487 413 480 411 Q 474 408 474 395 Q 477 383 500 359 Z"/>
<defs>
  <clipPath id="z28796c1"><use href="#z28796d1"/></clipPath>
  <clipPath id="z28796c2"><use href="#z28796d2"/></clipPath>
  <clipPath id="z28796c3"><use href="#z28796d3"/></clipPath>
  <clipPath id="z28796c4"><use href="#z28796d4"/></clipPath>
  <clipPath id="z28796c5"><use href="#z28796d5"/></clipPath>
  <clipPath id="z28796c6"><use href="#z28796d6"/></clipPath>
  <clipPath id="z28796c7"><use href="#z28796d7"/></clipPath>
</defs>
<path style="--d:1s;" pathLength="3333" clip-path="url(#z28796c1)" d="M 155 590 L 164 524 L 158 419"/>
<path style="--d:2s;" pathLength="3333" clip-path="url(#z28796c2)" d="M 398 649 L 414 620 L 371 570 L 318 522 L 318 510"/>
<path style="--d:3s;" pathLength="3333" clip-path="url(#z28796c3)" d="M 246 796 L 272 779 L 295 753 L 289 477 L 268 281 L 240 197 L 202 135 L 140 82 L 87 55"/>
<path style="--d:4s;" pathLength="3333" clip-path="url(#z28796c4)" d="M 302 312 L 317 291 L 389 234 L 414 190"/>
<path style="--d:5s;" pathLength="3333" clip-path="url(#z28796c5)" d="M 585 818 L 611 797 L 624 775 L 610 738 L 571 651 L 511 545 L 465 480 L 430 443"/>
<path style="--d:6s;" pathLength="3333" clip-path="url(#z28796c6)" d="M 536 549 L 564 561 L 780 604 L 801 598 L 830 567 L 809 257 L 799 204 L 770 118 L 745 77 L 714 53 L 616 119"/>
<path style="--d:7s;" pathLength="3333" clip-path="url(#z28796c7)" d="M 485 403 L 560 341 L 583 297"/>
</svg>