<svg id="z25439" class="acjk" viewBox="0 0 1024 1024" xmlns="http://www.w3.org/2000/svg">
<style>
<![CDATA[
@keyframes zk {
	to {
		stroke-dashoffset:0;
	}
}
svg.acjk path[clip-path] {
	--t:0.8s;
	animation:zk var(--t) linear forwards var(--d);
	stroke-dasharray:3337;
	stroke-dashoffset:3339;
	stroke-width:128;
	stroke-linecap:round;
	stroke-linejoin:round;
	fill:none;
	stroke:#000;
}
svg.acjk path[id] {fill:#ccc;}
]]>
</style>
  <path id="z25439d1" d="M 348 560 Q 364 567 384 571 Q 420 581 425 587 Q 434 596 428 604 Q 421 616 390 621 Q 368 624 350 618 L 301 599 Q 214 568 139 555 Q 102 546 130 531 Q 176 510 248 533 Q 273 540 300 546 L 348 560 Z"/>
  <path id="z25439d2" d="M 297 368 Q 296 272 294 148 Q 293 124 281 116 Q 271 109 250 117 Q 225 124 200 131 Q 169 143 171 133 Q 172 126 191 111 Q 257 60 273 31 Q 292 -3 308 -4 Q 321 -5 336 28 Q 354 71 353 142 Q 346 274 345 405 L 345 435 Q 345 498 348 560 L 350 618 Q 350 621 351 623 Q 355 707 369 751 Q 385 779 332 801 Q 301 819 281 813 Q 265 806 280 784 Q 299 759 301 726 Q 302 711 301 599 L 300 546 Q 299 488 297 407 L 297 368 Z"/>
  <path id="z25439d3" d="M 297 407 Q 203 353 120 301 Q 87 282 65 275 Q 53 269 51 262 Q 50 253 64 240 Q 83 225 105 217 Q 120 213 130 225 Q 179 279 297 368 L 345 405 Q 361 418 377 428 Q 398 441 409 456 Q 415 469 404 468 Q 394 467 372 451 Q 359 444 345 435 L 297 407 Z"/>
  <path id="z25439d4" d="M 550 741 Q 540 747 505 752 Q 493 755 491 749 Q 485 743 493 729 Q 520 680 538 599 Q 542 574 556 558 Q 574 539 578 553 Q 581 563 581 576 L 577 607 Q 562 683 559 711 C 556 738 556 738 550 741 Z"/>
  <path id="z25439d5" d="M 780 637 Q 807 706 835 724 Q 850 740 837 757 Q 821 770 774 793 Q 758 800 738 792 Q 663 762 550 741 C 521 735 530 705 559 711 Q 575 714 724 746 Q 742 750 749 743 Q 756 736 754 721 Q 745 678 735 643 C 727 614 769 609 780 637 Z"/>
  <path id="z25439d6" d="M 581 576 Q 590 575 600 577 Q 660 593 789 607 Q 799 608 800 617 Q 800 624 780 637 L 735 643 Q 731 644 728 642 Q 643 620 577 607 C 548 601 551 577 581 576 Z"/>
  <path id="z25439d7" d="M 522 486 Q 507 496 491 500 Q 482 501 477 494 Q 474 488 481 479 Q 511 419 494 271 Q 482 226 486 208 Q 496 178 506 167 Q 516 155 525 168 Q 544 195 545 340 Q 544 431 548 454 Q 548 458 547 460 L 522 486 Z"/>
  <path id="z25439d8" d="M 769 244 Q 762 222 775 201 Q 788 173 798 174 Q 811 175 826 207 Q 839 232 839 252 Q 812 426 845 477 Q 861 504 791 536 Q 782 540 773 543 Q 758 549 736 540 Q 649 498 522 486 C 492 483 518 454 547 460 Q 551 460 555 461 Q 735 506 756 494 Q 765 475 770 425 Q 776 274 769 244 Z"/>
  <path id="z25439d9" d="M 626 347 Q 635 184 593 120 Q 575 92 542 67 Q 509 43 437 11 Q 425 8 422 5 Q 418 1 431 -3 Q 500 -9 604 58 Q 613 67 622 77 Q 671 137 676 284 Q 680 353 688 376 Q 692 386 685 393 Q 637 432 602 422 Q 584 415 599 399 Q 624 374 626 347 Z"/>
  <path id="z25439d10" d="M 716 120 Q 765 68 826 -6 Q 841 -28 856 -33 Q 865 -34 873 -25 Q 886 -12 876 33 Q 864 91 719 151 Q 710 158 707 145 Q 706 132 716 120 Z"/>
<defs>
  <clipPath id="z25439c1"><use href="#z25439d1"/></clipPath>
  <clipPath id="z25439c2"><use href="#z25439d2"/></clipPath>
  <clipPath id="z25439c3"><use href="#z25439d3"/></clipPath>
  <clipPath id="z25439c4"><use href="#z25439d4"/></clipPath>
  <clipPath id="z25439c5"><use href="#z25439d5"/></clipPath>
  <clipPath id="z25439c6"><use href="#z25439d6"/></clipPath>
  <clipPath id="z25439c7"><use href="#z25439d7"/></clipPath>
  <clipPath id="z25439c8"><use href="#z25439d8"/></clipPath>
  <clipPath id="z25439c9"><use href="#z25439d9"/></clipPath>
  <clipPath id="z25439c10"><use href="#z25439d10"/></clipPath>
</defs>
<path style="--d:1s;" pathLength="3333" clip-path="url(#z25439c1)" d="M 131 544 L 203 545 L 362 594 L 418 597"/>
<path style="--d:2s;" pathLength="3333" clip-path="url(#z25439c2)" d="M 288 799 L 313 782 L 333 756 L 321 482 L 323 133 L 317 103 L 301 73 L 271 82 L 177 131"/>
<path style="--d:3s;" pathLength="3333" clip-path="url(#z25439c3)" d="M 62 260 L 108 254 L 402 460"/>
<path style="--d:4s;" pathLength="3333" clip-path="url(#z25439c4)" d="M 500 742 L 528 721 L 568 559"/>
<path style="--d:5s;" pathLength="3333" clip-path="url(#z25439c5)" d="M 559 719 L 570 729 L 611 739 L 740 770 L 761 768 L 793 739 L 765 663 L 743 647"/>
<path style="--d:6s;" pathLength="3333" clip-path="url(#z25439c6)" d="M 586 585 L 596 594 L 724 621 L 790 617"/>
<path style="--d:7s;" pathLength="3333" clip-path="url(#z25439c7)" d="M 488 489 L 517 456 L 521 434 L 524 328 L 511 207 L 515 172"/>
<path style="--d:8s;" pathLength="3333" clip-path="url(#z25439c8)" d="M 531 486 L 552 476 L 592 480 L 752 520 L 769 517 L 789 502 L 802 481 L 798 390 L 805 249 L 798 185"/>
<path style="--d:9s;" pathLength="3333" clip-path="url(#z25439c9)" d="M 604 410 L 637 393 L 653 376 L 654 367 L 648 219 L 627 133 L 606 96 L 569 60 L 497 21 L 427 2"/>
<path style="--d:10s;" pathLength="3333" clip-path="url(#z25439c10)" d="M 717 140 L 826 49 L 848 18 L 858 -17"/>
</svg>