<svg id="z24208" class="acjk" viewBox="0 0 1024 1024" xmlns="http://www.w3.org/2000/svg">
<style>
<![CDATA[
@keyframes zk {
	to {
		stroke-dashoffset:0;
	}
}
svg.acjk path[clip-path] {
	--t:0.8s;
	animation:zk var(--t) linear forwards var(--d);
	stroke-dasharray:3337;
	stroke-dashoffset:3339;
	stroke-width:128;
	stroke-linecap:round;
	stroke-linejoin:round;
	fill:none;
	stroke:#000;
}
svg.acjk path[id] {fill:#ccc;}
]]>
</style>
  <path id="z24208d1" d="M 494 793 Q 522 771 553 744 Q 569 729 587 732 Q 600 733 604 748 Q 608 766 597 799 Q 590 820 555 832 Q 477 856 460 847 Q 454 843 457 828 Q 461 815 494 793 Z"/>
  <path id="z24208d2" d="M 331 626 Q 376 619 446 627 Q 755 675 777 685 Q 778 686 781 687 Q 791 694 786 704 Q 779 717 751 725 Q 720 734 689 723 Q 610 701 525 683 Q 431 667 323 661 C 293 659 301 630 331 626 Z"/>
  <path id="z24208d3" d="M 323 661 Q 307 676 282 688 Q 263 701 248 696 Q 235 689 241 674 Q 286 598 204 316 Q 195 291 186 266 Q 147 173 61 48 Q 55 41 52 35 Q 49 23 61 25 Q 97 31 188 160 Q 198 179 210 199 Q 279 334 309 521 Q 319 615 331 626 C 340 647 340 647 323 661 Z"/>
  <path id="z24208d4" d="M 510 580 Q 570 516 596 515 Q 611 515 616 535 Q 617 548 605 570 Q 593 586 569 593 Q 529 608 513 609 Q 503 610 503 598 Q 502 589 510 580 Z"/>
  <path id="z24208d5" d="M 730 353 Q 757 422 786 440 Q 804 459 789 476 Q 713 539 656 506 Q 578 481 445 456 C 416 450 428 416 457 423 Q 464 426 659 465 Q 681 471 692 461 Q 699 454 697 438 Q 690 395 679 359 C 671 330 719 325 730 353 Z"/>
  <path id="z24208d6" d="M 430 285 Q 445 275 470 278 Q 557 297 746 314 Q 758 315 759 325 Q 759 334 730 353 L 679 359 Q 676 360 673 359 Q 540 326 435 314 C 405 310 403 298 430 285 Z"/>
  <path id="z24208d7" d="M 445 456 Q 397 487 381 485 Q 360 484 375 459 Q 402 399 362 230 Q 349 185 322 130 Q 292 73 215 12 Q 199 0 195 -6 Q 192 -13 204 -14 Q 243 -17 311 41 Q 395 117 430 285 L 435 314 Q 442 351 448 391 Q 454 412 457 423 C 463 445 463 445 445 456 Z"/>
<defs>
  <clipPath id="z24208c1"><use href="#z24208d1"/></clipPath>
  <clipPath id="z24208c2"><use href="#z24208d2"/></clipPath>
  <clipPath id="z24208c3"><use href="#z24208d3"/></clipPath>
  <clipPath id="z24208c4"><use href="#z24208d4"/></clipPath>
  <clipPath id="z24208c5"><use href="#z24208d5"/></clipPath>
  <clipPath id="z24208c6"><use href="#z24208d6"/></clipPath>
  <clipPath id="z24208c7"><use href="#z24208d7"/></clipPath>
</defs>
<path style="--d:1s;" pathLength="3333" clip-path="url(#z24208c1)" d="M 466 839 L 549 796 L 586 751"/>
<path style="--d:2s;" pathLength="3333" clip-path="url(#z24208c2)" d="M 332 657 L 347 644 L 457 649 L 723 701 L 775 698"/>
<path style="--d:3s;" pathLength="3333" clip-path="url(#z24208c3)" d="M 254 682 L 283 652 L 292 630 L 271 468 L 229 306 L 163 163 L 95 67 L 62 35"/>
<path style="--d:4s;" pathLength="3333" clip-path="url(#z24208c4)" d="M 516 596 L 574 559 L 596 534"/>
<path style="--d:5s;" pathLength="3333" clip-path="url(#z24208c5)" d="M 456 429 L 476 446 L 692 491 L 721 479 L 740 458 L 713 382 L 686 364"/>
<path style="--d:6s;" pathLength="3333" clip-path="url(#z24208c6)" d="M 440 291 L 671 333 L 728 333 L 749 325"/>
<path style="--d:7s;" pathLength="3333" clip-path="url(#z24208c7)" d="M 381 471 L 407 449 L 420 421 L 407 311 L 379 195 L 354 138 L 318 80 L 261 26 L 203 -6"/>
</svg>