<svg id="z29924" class="acjk" viewBox="0 0 1024 1024" xmlns="http://www.w3.org/2000/svg">
<style>
<![CDATA[
@keyframes zk {
	to {
		stroke-dashoffset:0;
	}
}
svg.acjk path[clip-path] {
	--t:0.8s;
	animation:zk var(--t) linear forwards var(--d);
	stroke-dasharray:3337;
	stroke-dashoffset:3339;
	stroke-width:128;
	stroke-linecap:round;
	stroke-linejoin:round;
	fill:none;
	stroke:#000;
}
svg.acjk path[id] {fill:#ccc;}
]]>
</style>
  <path id="z29924d1" d="M 309 816 Q 333 803 357 787 Q 370 780 383 782 Q 392 785 393 796 Q 394 809 382 831 Q 372 849 297 854 Q 284 854 279 851 Q 276 847 279 837 Q 285 828 309 816 Z"/>
  <path id="z29924d2" d="M 148 724 Q 123 721 142 707 Q 173 685 194 690 Q 362 726 508 740 Q 517 739 525 750 Q 526 760 507 769 Q 473 787 394 763 Q 372 760 352 754 Q 325 750 148 724 Z"/>
  <path id="z29924d3" d="M 170 634 Q 160 637 141 638 Q 132 639 130 636 Q 126 632 133 620 Q 152 589 169 537 Q 173 521 183 511 Q 198 496 201 508 Q 202 517 201 531 L 196 554 Q 186 600 183 614 C 179 632 179 632 170 634 Z"/>
  <path id="z29924d4" d="M 296 568 Q 305 611 318 625 Q 333 646 315 655 Q 300 662 279 673 Q 264 680 251 670 Q 235 657 212 648 Q 194 641 170 634 C 141 625 156 602 183 614 Q 183 615 187 616 Q 215 625 239 632 Q 254 636 259 632 Q 262 631 258 571 C 256 541 290 539 296 568 Z"/>
  <path id="z29924d5" d="M 201 531 Q 208 530 219 532 Q 246 539 304 546 Q 311 547 313 553 Q 313 559 296 568 C 287 573 287 573 258 571 Q 257 572 255 571 Q 222 561 196 554 C 167 546 171 533 201 531 Z"/>
  <path id="z29924d6" d="M 385 552 Q 385 551 388 556 Q 389 560 390 566 L 390 590 Q 381 641 380 659 C 379 676 379 676 372 679 Q 365 683 342 687 Q 335 690 332 686 Q 328 682 333 671 Q 349 640 361 586 Q 361 571 376 556 C 383 549 383 549 385 552 Z"/>
  <path id="z29924d7" d="M 490 602 Q 503 645 518 658 Q 534 677 518 687 Q 505 696 484 709 Q 471 716 457 709 Q 441 699 417 691 Q 398 685 372 679 C 343 672 351 652 380 659 Q 383 660 442 672 Q 455 675 461 670 Q 462 669 451 604 C 446 574 481 573 490 602 Z"/>
  <path id="z29924d8" d="M 390 566 Q 397 565 406 567 Q 436 573 499 578 Q 506 579 508 585 Q 508 591 490 602 C 477 610 477 610 451 604 Q 414 595 390 590 C 361 584 360 568 390 566 Z"/>
  <path id="z29924d9" d="M 398 467 Q 482 488 487 491 Q 494 497 490 503 Q 486 512 463 518 Q 444 521 407 510 L 358 495 Q 306 486 283 477 L 233 469 Q 206 468 178 464 Q 151 460 170 447 Q 198 429 243 437 L 282 444 Q 319 453 358 459 L 398 467 Z"/>
  <path id="z29924d10" d="M 389 390 Q 432 397 468 401 Q 475 400 482 409 Q 482 418 466 425 Q 442 440 393 424 L 357 415 Q 342 414 283 399 L 248 394 Q 242 394 237 393 Q 204 389 167 384 Q 146 383 162 370 Q 181 355 221 360 Q 234 364 252 366 L 285 372 Q 316 381 356 386 L 389 390 Z"/>
  <path id="z29924d11" d="M 283 477 Q 284 493 274 500 Q 256 513 236 519 Q 226 523 219 518 Q 213 514 218 502 Q 227 486 233 469 L 243 437 Q 244 422 248 394 L 252 366 Q 253 344 258 316 C 263 286 292 291 289 321 Q 286 349 285 372 L 283 399 Q 283 421 282 444 L 283 477 Z"/>
  <path id="z29924d12" d="M 382 339 Q 385 364 389 390 L 393 424 Q 394 446 398 467 L 407 510 Q 410 519 412 525 Q 415 532 402 543 Q 393 549 385 552 L 376 556 Q 369 560 362 561 Q 352 564 346 558 Q 340 554 346 543 Q 358 525 358 495 L 358 459 Q 357 438 357 415 L 356 386 Q 353 361 352 333 C 351 303 378 309 382 339 Z"/>
  <path id="z29924d13" d="M 269 280 Q 332 301 497 318 Q 512 319 513 327 Q 514 339 498 347 Q 474 357 454 354 Q 414 347 382 339 L 352 333 Q 316 327 289 321 L 258 316 Q 128 301 109 299 Q 97 298 95 291 Q 91 281 105 271 Q 141 246 177 255 Q 205 264 235 271 L 269 280 Z"/>
  <path id="z29924d14" d="M 254 205 Q 279 233 292 244 Q 301 253 299 261 Q 298 271 276 278 Q 273 279 269 280 C 241 288 241 288 235 271 Q 214 198 56 78 Q 40 66 61 69 Q 119 75 231 179 L 254 205 Z"/>
  <path id="z29924d15" d="M 231 179 Q 249 139 238 83 Q 234 58 222 44 Q 210 26 218 7 Q 227 -21 241 -31 Q 251 -38 261 -22 Q 288 11 377 92 Q 393 105 394 111 Q 395 121 378 113 Q 288 70 283 71 Q 276 75 277 92 Q 281 147 285 160 Q 289 176 278 186 Q 265 199 254 205 C 229 221 220 207 231 179 Z"/>
  <path id="z29924d16" d="M 395 203 Q 441 242 465 257 Q 477 261 473 268 Q 469 278 454 289 Q 441 299 425 300 Q 415 299 417 286 Q 420 273 381 209 C 365 183 372 184 395 203 Z"/>
  <path id="z29924d17" d="M 381 209 Q 339 228 316 236 Q 310 237 310 231 Q 310 222 318 217 Q 367 181 426 129 Q 436 117 447 116 Q 451 115 456 122 Q 463 131 453 157 Q 444 182 395 203 L 381 209 Z"/>
  <path id="z29924d18" d="M 622 580 Q 835 698 836 700 Q 837 710 825 719 Q 759 749 730 739 Q 723 735 725 724 Q 726 694 607 598 C 584 579 596 565 622 580 Z"/>
  <path id="z29924d19" d="M 615 545 Q 616 557 619 567 Q 622 574 622 580 C 624 586 624 586 607 598 Q 597 608 578 615 Q 562 622 550 618 Q 540 612 547 600 Q 565 579 565 504 Q 565 348 531 235 Q 503 142 437 31 Q 433 25 431 20 Q 430 10 438 13 Q 472 20 541 152 Q 547 165 553 179 Q 604 311 611 475 Q 612 503 614 528 L 615 545 Z"/>
  <path id="z29924d20" d="M 775 127 Q 747 117 688 87 Q 681 83 677 86 Q 670 90 671 111 Q 683 415 689 485 L 690 496 Q 690 499 691 501 Q 695 517 684 525 Q 674 535 634 546 Q 621 549 615 545 C 603 545 603 545 614 528 Q 647 495 647 321 Q 647 305 647 285 Q 641 108 585 41 Q 557 29 588 -22 Q 591 -26 596 -31 Q 606 -40 619 -27 Q 661 19 783 113 Q 783 114 784 114 C 808 133 803 138 775 127 Z"/>
  <path id="z29924d21" d="M 784 114 Q 833 35 845 31 Q 852 30 858 37 Q 864 46 864 67 Q 867 97 834 132 Q 800 163 758 193 Q 749 199 744 198 Q 740 197 739 188 Q 739 182 775 127 L 784 114 Z"/>
  <path id="z29924d22" d="M 689 485 Q 713 463 723 432 Q 819 197 842 181 Q 884 168 959 163 Q 972 162 978 166 Q 982 170 976 176 Q 859 260 794 366 Q 766 412 734 475 Q 728 490 715 494 Q 696 501 690 496 C 679 495 679 495 689 485 Z"/>
<defs>
  <clipPath id="z29924c1"><use href="#z29924d1"/></clipPath>
  <clipPath id="z29924c2"><use href="#z29924d2"/></clipPath>
  <clipPath id="z29924c3"><use href="#z29924d3"/></clipPath>
  <clipPath id="z29924c4"><use href="#z29924d4"/></clipPath>
  <clipPath id="z29924c5"><use href="#z29924d5"/></clipPath>
  <clipPath id="z29924c6"><use href="#z29924d6"/></clipPath>
  <clipPath id="z29924c7"><use href="#z29924d7"/></clipPath>
  <clipPath id="z29924c8"><use href="#z29924d8"/></clipPath>
  <clipPath id="z29924c9"><use href="#z29924d9"/></clipPath>
  <clipPath id="z29924c10"><use href="#z29924d10"/></clipPath>
  <clipPath id="z29924c11"><use href="#z29924d11"/></clipPath>
  <clipPath id="z29924c12"><use href="#z29924d12"/></clipPath>
  <clipPath id="z29924c13"><use href="#z29924d13"/></clipPath>
  <clipPath id="z29924c14"><use href="#z29924d14"/></clipPath>
  <clipPath id="z29924c15"><use href="#z29924d15"/></clipPath>
  <clipPath id="z29924c16"><use href="#z29924d16"/></clipPath>
  <clipPath id="z29924c17"><use href="#z29924d17"/></clipPath>
  <clipPath id="z29924c18"><use href="#z29924d18"/></clipPath>
  <clipPath id="z29924c19"><use href="#z29924d19"/></clipPath>
  <clipPath id="z29924c20"><use href="#z29924d20"/></clipPath>
  <clipPath id="z29924c21"><use href="#z29924d21"/></clipPath>
  <clipPath id="z29924c22"><use href="#z29924d22"/></clipPath>
</defs>
<path style="--d:1s;" pathLength="3333" clip-path="url(#z29924c1)" d="M 285 844 L 354 820 L 378 796"/>
<path style="--d:2s;" pathLength="3333" clip-path="url(#z29924c2)" d="M 143 716 L 181 709 L 454 755 L 515 752"/>
<path style="--d:3s;" pathLength="3333" clip-path="url(#z29924c3)" d="M 136 632 L 164 605 L 192 512"/>
<path style="--d:4s;" pathLength="3333" clip-path="url(#z29924c4)" d="M 179 633 L 187 627 L 268 653 L 289 635 L 279 589 L 265 584"/>
<path style="--d:5s;" pathLength="3333" clip-path="url(#z29924c5)" d="M 204 550 L 212 544 L 251 555 L 306 553"/>
<path style="--d:6s;" pathLength="3333" clip-path="url(#z29924c6)" d="M 338 679 L 361 657 L 382 557"/>
<path style="--d:7s;" pathLength="3333" clip-path="url(#z29924c7)" d="M 381 665 L 460 691 L 479 686 L 488 675 L 486 656 L 476 624 L 458 615"/>
<path style="--d:8s;" pathLength="3333" clip-path="url(#z29924c8)" d="M 394 572 L 403 580 L 445 589 L 500 585"/>
<path style="--d:9s;" pathLength="3333" clip-path="url(#z29924c9)" d="M 172 456 L 232 451 L 436 497 L 482 499"/>
<path style="--d:10s;" pathLength="3333" clip-path="url(#z29924c10)" d="M 172 374 L 225 375 L 423 414 L 474 410"/>
<path style="--d:11s;" pathLength="3333" clip-path="url(#z29924c11)" d="M 226 510 L 257 480 L 271 340 L 265 324"/>
<path style="--d:12s;" pathLength="3333" clip-path="url(#z29924c12)" d="M 355 551 L 382 520 L 370 360 L 358 340"/>
<path style="--d:13s;" pathLength="3333" clip-path="url(#z29924c13)" d="M 106 287 L 135 279 L 166 279 L 450 334 L 502 330"/>
<path style="--d:14s;" pathLength="3333" clip-path="url(#z29924c14)" d="M 285 258 L 255 247 L 209 186 L 164 143 L 102 96 L 64 77"/>
<path style="--d:15s;" pathLength="3333" clip-path="url(#z29924c15)" d="M 256 196 L 261 167 L 257 71 L 264 38 L 299 50 L 348 87 L 363 91 L 368 103 L 379 102 L 387 110"/>
<path style="--d:16s;" pathLength="3333" clip-path="url(#z29924c16)" d="M 426 290 L 438 267 L 392 216"/>
<path style="--d:17s;" pathLength="3333" clip-path="url(#z29924c17)" d="M 317 229 L 410 172 L 428 157 L 445 128"/>
<path style="--d:18s;" pathLength="3333" clip-path="url(#z29924c18)" d="M 832 704 L 760 701 L 675 628 L 665 626 L 630 597 L 621 602"/>
<path style="--d:19s;" pathLength="3333" clip-path="url(#z29924c19)" d="M 555 608 L 589 575 L 587 434 L 573 323 L 548 220 L 521 148 L 479 73 L 439 21"/>
<path style="--d:20s;" pathLength="3333" clip-path="url(#z29924c20)" d="M 621 540 L 659 506 L 662 484 L 663 259 L 644 91 L 645 57 L 686 64 L 778 119"/>
<path style="--d:21s;" pathLength="3333" clip-path="url(#z29924c21)" d="M 749 189 L 820 108 L 840 73 L 848 41"/>
<path style="--d:22s;" pathLength="3333" clip-path="url(#z29924c22)" d="M 696 490 L 714 479 L 726 461 L 774 356 L 864 217 L 972 170"/>
</svg>