<svg id="z23305" class="acjk" viewBox="0 0 1024 1024" xmlns="http://www.w3.org/2000/svg">
<style>
<![CDATA[
@keyframes zk {
	to {
		stroke-dashoffset:0;
	}
}
svg.acjk path[clip-path] {
	--t:0.8s;
	animation:zk var(--t) linear forwards var(--d);
	stroke-dasharray:3337;
	stroke-dashoffset:3339;
	stroke-width:128;
	stroke-linecap:round;
	stroke-linejoin:round;
	fill:none;
	stroke:#000;
}
svg.acjk path[id] {fill:#ccc;}
]]>
</style>
  <path id="z23305d1" d="M 272 449 Q 296 546 316 647 Q 323 692 340 716 Q 352 738 344 750 Q 331 766 285 791 Q 266 803 250 794 Q 238 787 248 771 Q 282 726 230 441 L 221 396 Q 220 393 220 389 Q 210 337 188 298 Q 178 277 198 261 Q 238 236 270 206 L 302 177 Q 323 158 349 128 Q 364 113 373 111 Q 380 111 387 122 Q 394 132 390 162 Q 384 195 334 222 L 294 243 Q 275 255 247 268 Q 228 280 230 300 Q 246 354 261 408 L 272 449 Z"/>
  <path id="z23305d2" d="M 270 206 Q 210 148 195 135 Q 164 120 133 94 Q 120 87 131 83 Q 144 82 177 93 Q 225 111 263 142 Q 285 158 302 177 L 334 222 Q 373 292 402 400 Q 408 428 422 454 Q 432 470 417 479 Q 374 515 351 508 Q 338 504 343 490 Q 347 480 350 466 L 350 437 Q 337 314 294 243 L 270 206 Z"/>
  <path id="z23305d3" d="M 350 466 Q 313 459 272 449 L 230 441 Q 173 432 113 420 Q 94 416 62 420 Q 50 419 47 410 Q 44 397 52 389 Q 71 371 102 351 Q 111 347 123 354 Q 177 387 221 396 L 261 408 Q 301 421 346 436 Q 347 437 350 437 C 379 446 379 472 350 466 Z"/>
  <path id="z23305d4" d="M 664 673 Q 707 683 753 690 Q 793 699 798 705 Q 807 712 803 720 Q 796 732 768 739 Q 737 748 668 721 L 618 708 Q 617 709 615 708 Q 561 698 498 692 Q 462 686 487 670 Q 524 649 594 661 Q 606 664 619 665 L 664 673 Z"/>
  <path id="z23305d5" d="M 657 605 Q 661 641 664 673 L 668 721 Q 669 758 679 795 Q 688 823 671 839 Q 640 855 619 860 Q 606 863 598 856 Q 591 849 598 836 Q 614 814 614 799 Q 617 756 618 708 L 619 665 Q 619 632 618 596 C 617 566 654 575 657 605 Z"/>
  <path id="z23305d6" d="M 618 596 Q 593 592 570 589 Q 546 588 519 583 Q 497 580 514 566 Q 541 547 564 551 Q 579 554 754 582 Q 761 581 769 591 Q 770 600 752 609 Q 727 627 660 606 Q 657 606 657 605 L 618 596 Z"/>
  <path id="z23305d7" d="M 531 494 Q 522 498 503 499 Q 493 500 490 496 Q 486 492 493 478 Q 515 444 531 385 Q 534 369 546 357 Q 562 339 565 353 Q 566 359 567 367 L 563 397 Q 553 448 552 466 C 550 487 550 487 531 494 Z"/>
  <path id="z23305d8" d="M 749 414 Q 773 457 797 467 Q 812 482 800 498 Q 787 511 743 535 Q 728 542 709 537 Q 648 513 531 494 C 501 489 523 460 552 466 Q 709 499 719 490 Q 723 481 705 426 C 696 397 734 388 749 414 Z"/>
  <path id="z23305d9" d="M 567 367 Q 576 366 588 368 Q 640 380 752 388 Q 762 389 764 397 Q 764 403 749 414 C 731 428 731 428 705 426 Q 698 426 692 424 Q 620 406 563 397 C 533 392 537 368 567 367 Z"/>
  <path id="z23305d10" d="M 569 253 Q 575 265 572 286 Q 563 313 515 333 Q 508 336 504 326 Q 501 320 526 267 Q 532 257 540 250 C 560 232 560 232 569 253 Z"/>
  <path id="z23305d11" d="M 721 272 Q 763 320 769 324 Q 782 331 777 342 Q 771 357 750 376 Q 740 386 725 383 Q 716 380 720 371 Q 726 347 689 275 Q 686 271 684 267 C 669 241 701 249 721 272 Z"/>
  <path id="z23305d12" d="M 684 267 Q 659 267 569 253 L 540 250 Q 474 246 404 236 Q 385 235 398 219 Q 411 206 428 200 Q 447 196 462 199 Q 696 253 943 235 Q 962 235 966 243 Q 972 253 956 267 Q 904 307 839 291 Q 788 284 721 272 L 684 267 Z"/>
  <path id="z23305d13" d="M 468 156 Q 456 159 453 153 Q 446 147 456 131 Q 481 85 501 6 Q 505 -18 519 -33 Q 538 -55 543 -38 Q 546 -26 545 -8 L 540 28 Q 527 95 525 118 C 522 148 498 152 468 156 Z"/>
  <path id="z23305d14" d="M 779 45 Q 806 105 833 119 Q 849 135 837 154 Q 765 214 709 189 Q 550 140 478 155 Q 474 156 468 156 C 438 160 496 112 525 118 Q 537 121 711 149 Q 733 153 741 144 Q 748 137 746 121 Q 739 87 729 58 C 720 29 766 18 779 45 Z"/>
  <path id="z23305d15" d="M 545 -8 Q 551 -8 558 -7 Q 630 6 785 12 Q 797 13 799 22 Q 799 29 779 45 L 729 58 Q 723 59 718 57 Q 619 38 540 28 C 510 24 515 -10 545 -8 Z"/>
<defs>
  <clipPath id="z23305c1"><use href="#z23305d1"/></clipPath>
  <clipPath id="z23305c2"><use href="#z23305d2"/></clipPath>
  <clipPath id="z23305c3"><use href="#z23305d3"/></clipPath>
  <clipPath id="z23305c4"><use href="#z23305d4"/></clipPath>
  <clipPath id="z23305c5"><use href="#z23305d5"/></clipPath>
  <clipPath id="z23305c6"><use href="#z23305d6"/></clipPath>
  <clipPath id="z23305c7"><use href="#z23305d7"/></clipPath>
  <clipPath id="z23305c8"><use href="#z23305d8"/></clipPath>
  <clipPath id="z23305c9"><use href="#z23305d9"/></clipPath>
  <clipPath id="z23305c10"><use href="#z23305d10"/></clipPath>
  <clipPath id="z23305c11"><use href="#z23305d11"/></clipPath>
  <clipPath id="z23305c12"><use href="#z23305d12"/></clipPath>
  <clipPath id="z23305c13"><use href="#z23305d13"/></clipPath>
  <clipPath id="z23305c14"><use href="#z23305d14"/></clipPath>
  <clipPath id="z23305c15"><use href="#z23305d15"/></clipPath>
</defs>
<path style="--d:1s;" pathLength="3333" clip-path="url(#z23305c1)" d="M 258 782 L 281 764 L 302 732 L 255 461 L 208 286 L 239 252 L 347 176 L 365 151 L 372 123"/>
<path style="--d:2s;" pathLength="3333" clip-path="url(#z23305c2)" d="M 353 496 L 370 483 L 385 459 L 357 332 L 317 237 L 289 195 L 256 162 L 203 121 L 136 88"/>
<path style="--d:3s;" pathLength="3333" clip-path="url(#z23305c3)" d="M 61 405 L 111 386 L 169 406 L 335 447 L 344 459"/>
<path style="--d:4s;" pathLength="3333" clip-path="url(#z23305c4)" d="M 490 682 L 548 676 L 653 693 L 732 714 L 791 716"/>
<path style="--d:5s;" pathLength="3333" clip-path="url(#z23305c5)" d="M 608 847 L 647 810 L 639 621 L 623 603"/>
<path style="--d:6s;" pathLength="3333" clip-path="url(#z23305c6)" d="M 515 575 L 557 569 L 723 598 L 760 593"/>
<path style="--d:7s;" pathLength="3333" clip-path="url(#z23305c7)" d="M 498 491 L 519 476 L 530 458 L 556 356"/>
<path style="--d:8s;" pathLength="3333" clip-path="url(#z23305c8)" d="M 541 494 L 563 482 L 687 510 L 730 513 L 757 484 L 737 444 L 715 434"/>
<path style="--d:9s;" pathLength="3333" clip-path="url(#z23305c9)" d="M 571 390 L 582 383 L 707 405 L 755 397"/>
<path style="--d:10s;" pathLength="3333" clip-path="url(#z23305c10)" d="M 513 323 L 561 261"/>
<path style="--d:11s;" pathLength="3333" clip-path="url(#z23305c11)" d="M 732 373 L 746 341 L 717 291 L 690 269"/>
<path style="--d:12s;" pathLength="3333" clip-path="url(#z23305c12)" d="M 401 227 L 454 220 L 582 240 L 852 267 L 913 263 L 955 249"/>
<path style="--d:13s;" pathLength="3333" clip-path="url(#z23305c13)" d="M 462 145 L 500 100 L 531 -33"/>
<path style="--d:14s;" pathLength="3333" clip-path="url(#z23305c14)" d="M 483 153 L 486 146 L 535 136 L 695 162 L 704 169 L 752 169 L 771 158 L 788 138 L 764 77 L 737 62"/>
<path style="--d:15s;" pathLength="3333" clip-path="url(#z23305c15)" d="M 547 23 L 560 12 L 726 34 L 790 23"/>
</svg>