<svg id="z25064" class="acjk" viewBox="0 0 1024 1024" xmlns="http://www.w3.org/2000/svg">
<style>
<![CDATA[
@keyframes zk {
	to {
		stroke-dashoffset:0;
	}
}
svg.acjk path[clip-path] {
	--t:0.8s;
	animation:zk var(--t) linear forwards var(--d);
	stroke-dasharray:3337;
	stroke-dashoffset:3339;
	stroke-width:128;
	stroke-linecap:round;
	stroke-linejoin:round;
	fill:none;
	stroke:#000;
}
svg.acjk path[id] {fill:#ccc;}
]]>
</style>
  <path id="z25064d1" d="M 107 489 Q 91 425 64 364 Q 49 333 69 306 Q 78 291 94 305 Q 112 321 120 350 Q 138 399 135 442 Q 136 470 127 492 Q 123 499 117 499 Q 110 496 107 489 Z"/>
  <path id="z25064d2" d="M 245 516 Q 252 515 300 464 Q 310 454 324 454 Q 333 454 337 465 Q 341 477 335 501 Q 331 517 305 531 Q 280 541 250 549 Q 249 550 246 550 C 217 557 218 530 245 516 Z"/>
  <path id="z25064d3" d="M 246 550 Q 246 644 267 716 Q 280 740 254 760 Q 239 772 215 786 Q 193 802 174 788 Q 170 784 175 768 Q 205 725 205 647 Q 205 232 172 110 Q 169 107 169 101 Q 159 65 182 5 Q 188 -11 195 -15 Q 201 -21 208 -13 Q 235 3 235 63 Q 234 109 245 516 L 246 550 Z"/>
  <path id="z25064d4" d="M 456 683 Q 499 665 546 674 Q 636 690 729 709 Q 772 719 778 725 Q 787 732 783 740 Q 776 752 748 759 Q 727 765 616 733 Q 505 712 461 708 Q 451 707 448 704 C 424 695 428 694 456 683 Z"/>
  <path id="z25064d5" d="M 447 616 Q 450 649 456 683 C 458 697 458 697 448 704 Q 435 717 409 726 Q 390 736 379 730 Q 369 723 375 711 Q 411 669 388 456 Q 387 453 387 447 Q 378 377 361 317 Q 330 218 261 97 Q 257 90 255 85 Q 254 75 263 77 Q 291 83 363 208 Q 373 232 385 257 Q 445 422 446 600 L 447 616 Z"/>
  <path id="z25064d6" d="M 484 608 Q 477 612 458 616 Q 451 619 447 616 C 440 615 440 615 446 600 Q 468 548 478 463 Q 479 438 492 421 Q 505 405 509 416 Q 512 425 513 437 L 512 459 Q 511 465 511 470 Q 508 491 505 507 L 502 534 Q 498 571 497 585 C 496 603 496 603 484 608 Z"/>
  <path id="z25064d7" d="M 589 447 L 590 446 Q 608 419 626 442 Q 638 458 644 513 Q 648 555 666 582 Q 676 597 666 610 Q 650 623 625 638 Q 612 642 598 637 Q 546 618 484 608 C 454 603 468 579 497 585 Q 503 586 511 588 Q 583 606 597 599 Q 603 596 602 579 Q 601 530 598 490 Q 598 472 583 468 C 575 464 575 464 589 447 Z"/>
  <path id="z25064d8" d="M 505 507 Q 541 514 568 520 Q 586 526 578 534 Q 568 544 548 545 Q 529 546 502 534 C 474 522 476 501 505 507 Z"/>
  <path id="z25064d9" d="M 513 437 Q 555 443 586 446 Q 587 447 589 447 C 609 453 609 453 583 468 Q 579 471 571 472 Q 537 475 512 459 C 486 443 483 433 513 437 Z"/>
  <path id="z25064d10" d="M 492 356 L 490 358 Q 468 371 453 371 Q 443 370 446 359 Q 479 274 430 125 Q 397 71 424 32 Q 428 22 437 25 Q 467 43 477 135 L 479 155 L 482 183 Q 485 211 489 233 L 493 264 Q 497 310 502 326 Q 502 329 502 330 C 505 348 505 348 492 356 Z"/>
  <path id="z25064d11" d="M 635 82 Q 636 86 636 90 Q 614 295 635 331 Q 645 346 635 354 Q 619 370 589 382 Q 574 388 563 383 Q 541 370 525 364 Q 512 360 492 356 C 463 350 474 319 502 330 Q 503 333 554 345 Q 567 349 574 341 Q 578 337 579 320 Q 586 193 582 115 Q 581 94 574 86 Q 570 83 516 94 Q 500 100 501 92 Q 543 52 566 24 Q 576 8 588 4 Q 595 1 602 9 Q 626 34 632 63 L 635 82 Z"/>
  <path id="z25064d12" d="M 489 233 Q 523 243 552 248 Q 570 254 562 262 Q 552 272 532 273 Q 516 273 493 264 C 465 253 460 225 489 233 Z"/>
  <path id="z25064d13" d="M 479 155 Q 525 167 559 172 Q 577 176 569 186 Q 560 196 540 198 Q 530 198 482 183 C 453 174 450 147 479 155 Z"/>
  <path id="z25064d14" d="M 775 401 Q 796 410 879 423 Q 888 422 895 433 Q 895 443 875 451 Q 842 466 778 441 L 737 430 Q 667 417 650 413 Q 625 409 645 395 Q 672 377 710 385 Q 720 388 736 391 L 775 401 Z"/>
  <path id="z25064d15" d="M 766 264 Q 770 318 775 401 L 778 441 Q 779 540 800 584 Q 806 596 796 606 Q 777 622 743 631 Q 721 637 714 630 Q 707 624 713 614 Q 740 571 737 430 L 736 391 Q 730 199 670 119 Q 655 103 635 82 C 614 60 612 58 632 63 Q 639 62 661 72 Q 733 102 757 208 Q 758 220 761 232 L 766 264 Z"/>
  <path id="z25064d16" d="M 761 232 Q 812 159 871 54 Q 880 33 893 26 Q 900 23 909 30 Q 922 39 921 81 Q 922 138 766 264 C 743 283 744 257 761 232 Z"/>
  <path id="z25064d17" d="M 831 597 Q 853 575 876 550 Q 886 538 900 538 Q 909 538 913 549 Q 917 561 912 585 Q 905 613 830 637 Q 817 641 812 639 Q 808 636 808 625 Q 811 615 831 597 Z"/>
<defs>
  <clipPath id="z25064c1"><use href="#z25064d1"/></clipPath>
  <clipPath id="z25064c2"><use href="#z25064d2"/></clipPath>
  <clipPath id="z25064c3"><use href="#z25064d3"/></clipPath>
  <clipPath id="z25064c4"><use href="#z25064d4"/></clipPath>
  <clipPath id="z25064c5"><use href="#z25064d5"/></clipPath>
  <clipPath id="z25064c6"><use href="#z25064d6"/></clipPath>
  <clipPath id="z25064c7"><use href="#z25064d7"/></clipPath>
  <clipPath id="z25064c8"><use href="#z25064d8"/></clipPath>
  <clipPath id="z25064c9"><use href="#z25064d9"/></clipPath>
  <clipPath id="z25064c10"><use href="#z25064d10"/></clipPath>
  <clipPath id="z25064c11"><use href="#z25064d11"/></clipPath>
  <clipPath id="z25064c12"><use href="#z25064d12"/></clipPath>
  <clipPath id="z25064c13"><use href="#z25064d13"/></clipPath>
  <clipPath id="z25064c14"><use href="#z25064d14"/></clipPath>
  <clipPath id="z25064c15"><use href="#z25064d15"/></clipPath>
  <clipPath id="z25064c16"><use href="#z25064d16"/></clipPath>
  <clipPath id="z25064c17"><use href="#z25064d17"/></clipPath>
</defs>
<path style="--d:1s;" pathLength="3333" clip-path="url(#z25064c1)" d="M 117 489 L 111 418 L 82 312"/>
<path style="--d:2s;" pathLength="3333" clip-path="url(#z25064c2)" d="M 247 544 L 308 494 L 323 468"/>
<path style="--d:3s;" pathLength="3333" clip-path="url(#z25064c3)" d="M 185 782 L 232 730 L 219 289 L 200 73 L 200 -4"/>
<path style="--d:4s;" pathLength="3333" clip-path="url(#z25064c4)" d="M 456 701 L 482 692 L 522 693 L 709 731 L 771 736"/>
<path style="--d:5s;" pathLength="3333" clip-path="url(#z25064c5)" d="M 386 719 L 417 691 L 423 666 L 420 529 L 403 405 L 374 286 L 341 206 L 292 121 L 263 85"/>
<path style="--d:6s;" pathLength="3333" clip-path="url(#z25064c6)" d="M 453 612 L 471 592 L 479 569 L 501 421"/>
<path style="--d:7s;" pathLength="3333" clip-path="url(#z25064c7)" d="M 492 605 L 503 598 L 582 617 L 609 618 L 627 604 L 634 593 L 620 487 L 613 463 L 608 459 L 593 465"/>
<path style="--d:8s;" pathLength="3333" clip-path="url(#z25064c8)" d="M 511 514 L 518 525 L 530 529 L 571 529"/>
<path style="--d:9s;" pathLength="3333" clip-path="url(#z25064c9)" d="M 521 443 L 525 452 L 563 459 L 586 452"/>
<path style="--d:10s;" pathLength="3333" clip-path="url(#z25064c10)" d="M 457 361 L 475 342 L 479 296 L 471 218 L 434 36"/>
<path style="--d:11s;" pathLength="3333" clip-path="url(#z25064c11)" d="M 500 337 L 509 347 L 573 365 L 606 340 L 602 292 L 609 100 L 599 65 L 589 53 L 527 85 L 509 87"/>
<path style="--d:12s;" pathLength="3333" clip-path="url(#z25064c12)" d="M 494 240 L 517 256 L 555 257"/>
<path style="--d:13s;" pathLength="3333" clip-path="url(#z25064c13)" d="M 485 161 L 495 174 L 546 185 L 562 180"/>
<path style="--d:14s;" pathLength="3333" clip-path="url(#z25064c14)" d="M 646 405 L 700 402 L 836 437 L 886 434"/>
<path style="--d:15s;" pathLength="3333" clip-path="url(#z25064c15)" d="M 721 622 L 762 586 L 747 272 L 734 204 L 711 145 L 689 112 L 637 67"/>
<path style="--d:16s;" pathLength="3333" clip-path="url(#z25064c16)" d="M 774 246 L 777 235 L 874 114 L 894 72 L 898 41"/>
<path style="--d:17s;" pathLength="3333" clip-path="url(#z25064c17)" d="M 816 630 L 882 583 L 899 552"/>
</svg>