<svg id="z21109" class="acjk" viewBox="0 0 1024 1024" xmlns="http://www.w3.org/2000/svg">
<style>
<![CDATA[
@keyframes zk {
	to {
		stroke-dashoffset:0;
	}
}
svg.acjk path[clip-path] {
	--t:0.8s;
	animation:zk var(--t) linear forwards var(--d);
	stroke-dasharray:3337;
	stroke-dashoffset:3339;
	stroke-width:128;
	stroke-linecap:round;
	stroke-linejoin:round;
	fill:none;
	stroke:#000;
}
svg.acjk path[id] {fill:#ccc;}
]]>
</style>
  <path id="z21109d1" d="M 278 537 Q 324 594 369 662 L 373 668 Q 392 701 417 740 L 430 762 Q 437 775 444 780 Q 451 786 450 796 Q 449 806 435 817 Q 401 847 370 839 Q 361 838 364 824 Q 382 740 236 552 Q 232 551 230 546 Q 187 497 81 400 Q 74 394 83 392 Q 143 401 254 511 Q 257 515 262 519 L 278 537 Z"/>
  <path id="z21109d2" d="M 417 740 Q 466 713 528 673 Q 543 661 554 661 Q 561 662 564 670 Q 571 682 554 710 Q 539 743 430 762 C 400 767 391 755 417 740 Z"/>
  <path id="z21109d3" d="M 369 662 L 370 660 Q 370 653 430 608 Q 445 598 458 599 Q 468 600 471 615 Q 470 625 460 640 Q 450 653 427 658 Q 391 668 377 669 Q 374 669 373 668 C 367 666 367 666 369 662 Z"/>
  <path id="z21109d4" d="M 464 323 Q 464 322 466 317 Q 472 304 483 305 Q 496 306 502 321 Q 514 339 531 422 Q 543 470 574 499 Q 590 515 575 528 Q 559 543 511 564 Q 493 573 447 554 Q 423 554 322 517 C 294 507 305 474 333 484 Q 463 529 485 522 Q 495 516 491 486 Q 472 354 464 345 C 459 333 459 333 464 323 Z"/>
  <path id="z21109d5" d="M 320 397 Q 321 397 324 397 Q 382 407 425 414 Q 446 418 437 429 Q 427 442 405 445 Q 366 448 324 424 C 298 409 290 397 320 397 Z"/>
  <path id="z21109d6" d="M 305 300 Q 309 300 315 300 Q 399 313 460 322 Q 461 323 464 323 C 490 329 490 329 464 345 Q 437 366 314 326 Q 311 326 309 325 C 280 319 275 300 305 300 Z"/>
  <path id="z21109d7" d="M 281 205 Q 290 233 298 266 Q 301 282 305 300 L 309 325 Q 313 359 320 397 L 324 424 Q 324 436 333 484 C 337 508 337 508 322 517 Q 294 535 278 537 C 253 545 253 545 262 519 Q 296 444 249 248 Q 236 206 211 158 Q 183 98 96 27 Q 83 17 80 11 Q 77 5 88 5 Q 122 2 193 67 Q 235 109 270 176 L 281 205 Z"/>
  <path id="z21109d8" d="M 314 196 Q 305 199 281 205 C 254 212 258 203 270 176 Q 294 124 307 40 Q 310 13 325 -5 Q 341 -26 347 -11 Q 351 4 350 28 L 346 59 Q 333 146 333 169 C 332 190 332 190 314 196 Z"/>
  <path id="z21109d9" d="M 522 92 Q 541 156 569 179 Q 584 195 570 211 Q 512 259 475 243 Q 405 213 314 196 C 285 190 304 162 333 169 Q 474 205 484 196 Q 491 189 490 173 Q 483 127 473 88 C 466 59 513 63 522 92 Z"/>
  <path id="z21109d10" d="M 350 28 Q 356 28 364 29 Q 421 42 545 56 Q 555 57 556 65 Q 557 72 528 90 L 522 92 L 473 88 Q 403 70 346 59 C 317 53 320 27 350 28 Z"/>
  <path id="z21109d11" d="M 620 585 Q 651 516 626 333 Q 617 297 647 262 Q 657 252 667 262 Q 685 289 686 365 Q 686 510 694 554 Q 701 576 680 588 Q 640 615 625 607 Q 616 600 620 585 Z"/>
  <path id="z21109d12" d="M 804 719 Q 808 680 808 94 Q 807 69 794 59 Q 787 55 718 67 Q 684 79 687 68 Q 688 61 709 46 Q 775 -5 791 -34 Q 810 -68 826 -69 Q 841 -70 856 -34 Q 874 14 871 90 Q 853 349 860 608 Q 864 699 877 747 Q 893 778 836 801 Q 802 820 781 813 Q 763 806 780 782 Q 802 754 804 719 Z"/>
<defs>
  <clipPath id="z21109c1"><use href="#z21109d1"/></clipPath>
  <clipPath id="z21109c2"><use href="#z21109d2"/></clipPath>
  <clipPath id="z21109c3"><use href="#z21109d3"/></clipPath>
  <clipPath id="z21109c4"><use href="#z21109d4"/></clipPath>
  <clipPath id="z21109c5"><use href="#z21109d5"/></clipPath>
  <clipPath id="z21109c6"><use href="#z21109d6"/></clipPath>
  <clipPath id="z21109c7"><use href="#z21109d7"/></clipPath>
  <clipPath id="z21109c8"><use href="#z21109d8"/></clipPath>
  <clipPath id="z21109c9"><use href="#z21109d9"/></clipPath>
  <clipPath id="z21109c10"><use href="#z21109d10"/></clipPath>
  <clipPath id="z21109c11"><use href="#z21109d11"/></clipPath>
  <clipPath id="z21109c12"><use href="#z21109d12"/></clipPath>
</defs>
<path style="--d:1s;" pathLength="3333" clip-path="url(#z21109c1)" d="M 372 829 L 387 819 L 404 793 L 362 698 L 311 616 L 218 502 L 165 453 L 87 397"/>
<path style="--d:2s;" pathLength="3333" clip-path="url(#z21109c2)" d="M 426 742 L 442 745 L 460 739 L 516 711 L 540 692 L 551 674"/>
<path style="--d:3s;" pathLength="3333" clip-path="url(#z21109c3)" d="M 374 663 L 428 636 L 455 615"/>
<path style="--d:4s;" pathLength="3333" clip-path="url(#z21109c4)" d="M 335 515 L 345 506 L 477 544 L 500 542 L 522 523 L 531 511 L 482 322"/>
<path style="--d:5s;" pathLength="3333" clip-path="url(#z21109c5)" d="M 322 404 L 331 405 L 337 415 L 387 427 L 429 423"/>
<path style="--d:6s;" pathLength="3333" clip-path="url(#z21109c6)" d="M 310 306 L 329 319 L 391 331 L 449 336 L 461 329"/>
<path style="--d:7s;" pathLength="3333" clip-path="url(#z21109c7)" d="M 272 518 L 292 507 L 304 478 L 285 310 L 258 205 L 201 104 L 143 46 L 87 11"/>
<path style="--d:8s;" pathLength="3333" clip-path="url(#z21109c8)" d="M 286 195 L 306 160 L 337 -5"/>
<path style="--d:9s;" pathLength="3333" clip-path="url(#z21109c9)" d="M 323 195 L 344 184 L 462 217 L 493 221 L 508 215 L 528 191 L 502 112 L 479 94"/>
<path style="--d:10s;" pathLength="3333" clip-path="url(#z21109c10)" d="M 356 37 L 365 46 L 481 69 L 527 72 L 547 65"/>
<path style="--d:11s;" pathLength="3333" clip-path="url(#z21109c11)" d="M 632 596 L 662 561 L 662 421 L 653 314 L 657 270"/>
<path style="--d:12s;" pathLength="3333" clip-path="url(#z21109c12)" d="M 789 797 L 805 789 L 838 756 L 832 341 L 839 80 L 834 47 L 817 15 L 744 42 L 707 59 L 705 66 L 694 66"/>
</svg>