<svg id="z22697" class="acjk" viewBox="0 0 1024 1024" xmlns="http://www.w3.org/2000/svg">
<style>
<![CDATA[
@keyframes zk {
	to {
		stroke-dashoffset:0;
	}
}
svg.acjk path[clip-path] {
	--t:0.8s;
	animation:zk var(--t) linear forwards var(--d);
	stroke-dasharray:3337;
	stroke-dashoffset:3339;
	stroke-width:128;
	stroke-linecap:round;
	stroke-linejoin:round;
	fill:none;
	stroke:#000;
}
svg.acjk path[id] {fill:#ccc;}
]]>
</style>
  <path id="z22697d1" d="M 254 487 Q 266 491 282 496 Q 303 503 306 506 Q 313 515 308 522 Q 301 532 273 535 Q 263 536 255 535 L 209 519 Q 161 501 109 491 Q 76 482 101 469 Q 141 451 191 469 Q 198 472 210 474 L 254 487 Z"/>
  <path id="z22697d2" d="M 248 353 Q 251 422 254 487 L 255 535 Q 258 629 273 694 Q 276 704 257 718 Q 223 734 201 739 Q 185 742 178 733 Q 171 726 179 712 Q 201 681 203 658 Q 207 591 209 519 L 210 474 Q 210 410 209 337 C 209 307 247 323 248 353 Z"/>
  <path id="z22697d3" d="M 209 337 Q 154 316 93 292 Q 78 286 53 285 Q 40 282 40 272 Q 39 259 49 253 Q 71 240 105 225 Q 115 224 125 233 Q 155 260 279 336 Q 298 346 310 359 Q 322 368 321 376 Q 315 380 304 377 Q 276 367 248 353 L 209 337 Z"/>
  <path id="z22697d4" d="M 469 778 Q 496 757 526 732 Q 539 720 555 722 Q 565 723 569 736 Q 573 751 562 779 Q 550 807 461 824 Q 445 825 440 823 Q 436 819 437 807 Q 441 797 469 778 Z"/>
  <path id="z22697d5" d="M 351 662 Q 318 656 342 641 Q 384 620 432 634 Q 511 652 593 671 Q 630 681 636 686 Q 643 693 639 701 Q 632 711 605 718 Q 581 722 492 691 Q 428 673 351 662 Z"/>
  <path id="z22697d6" d="M 377 562 Q 368 565 347 567 Q 337 568 334 564 Q 330 558 338 545 Q 360 511 378 453 Q 382 435 394 425 Q 410 407 413 421 Q 414 427 415 434 L 411 462 Q 398 517 396 536 C 393 558 393 558 377 562 Z"/>
  <path id="z22697d7" d="M 559 485 Q 583 539 603 548 Q 616 564 604 578 Q 591 588 547 609 Q 532 615 515 607 Q 455 580 377 562 C 348 555 367 527 396 536 Q 426 546 510 565 Q 522 569 527 564 Q 533 555 516 489 C 509 460 547 458 559 485 Z"/>
  <path id="z22697d8" d="M 415 434 Q 422 433 433 435 Q 476 445 571 457 Q 580 458 580 466 Q 580 473 559 485 C 540 496 540 496 516 489 Q 515 489 513 488 Q 455 472 411 462 C 382 455 385 436 415 434 Z"/>
  <path id="z22697d9" d="M 480 272 Q 555 338 586 348 Q 602 355 597 368 Q 593 381 538 409 Q 523 415 447 385 Q 384 364 345 361 Q 326 361 334 344 Q 341 334 357 326 Q 382 313 409 331 Q 422 337 485 370 Q 495 374 505 370 Q 515 364 512 353 Q 490 320 465 280 C 449 255 457 252 480 272 Z"/>
  <path id="z22697d10" d="M 511 229 Q 502 259 480 272 L 465 280 Q 438 289 431 283 Q 421 279 432 267 Q 460 248 470 212 L 476 180 Q 488 90 466 46 Q 456 25 428 31 Q 406 34 387 38 Q 377 39 381 31 Q 384 25 398 15 Q 426 -12 436 -32 Q 445 -47 458 -45 Q 470 -44 491 -22 Q 548 38 519 197 Q 518 198 518 200 L 511 229 Z"/>
  <path id="z22697d11" d="M 518 200 Q 519 201 522 202 Q 582 232 581 248 Q 577 252 564 250 Q 539 240 511 229 L 470 212 Q 376 178 271 141 Q 250 134 215 133 Q 203 132 202 121 Q 201 108 210 101 Q 232 86 264 70 Q 274 69 285 76 Q 340 121 476 180 L 518 200 Z"/>
  <path id="z22697d12" d="M 678 485 Q 738 599 765 673 Q 777 710 789 729 Q 796 741 788 752 Q 781 762 751 778 Q 723 788 706 784 Q 690 778 701 760 Q 716 742 710 703 Q 689 585 624 446 Q 617 434 616 428 Q 615 418 627 422 Q 633 425 664 465 L 678 485 Z"/>
  <path id="z22697d13" d="M 760 459 Q 761 460 765 461 Q 904 500 914 509 Q 921 516 916 525 Q 909 535 879 540 Q 849 543 822 529 Q 791 516 758 504 Q 721 494 678 485 C 649 479 638 477 664 465 Q 688 453 727 452 L 760 459 Z"/>
  <path id="z22697d14" d="M 760 234 Q 788 322 798 390 Q 801 411 805 421 Q 812 427 806 436 Q 797 451 760 459 C 731 466 722 469 727 452 Q 727 448 731 442 Q 741 375 724 281 Q 723 280 723 277 L 705 230 Q 671 163 587 110 Q 578 106 570 100 Q 549 87 576 89 Q 616 86 681 128 Q 715 149 735 185 L 760 234 Z"/>
  <path id="z22697d15" d="M 735 185 Q 781 118 824 62 Q 837 43 861 42 Q 988 46 998 58 Q 1002 64 993 68 Q 845 144 780 213 Q 770 223 760 234 L 723 277 Q 696 308 668 345 Q 659 360 644 362 Q 619 363 611 356 Q 607 352 616 345 Q 644 327 705 230 L 735 185 Z"/>
<defs>
  <clipPath id="z22697c1"><use href="#z22697d1"/></clipPath>
  <clipPath id="z22697c2"><use href="#z22697d2"/></clipPath>
  <clipPath id="z22697c3"><use href="#z22697d3"/></clipPath>
  <clipPath id="z22697c4"><use href="#z22697d4"/></clipPath>
  <clipPath id="z22697c5"><use href="#z22697d5"/></clipPath>
  <clipPath id="z22697c6"><use href="#z22697d6"/></clipPath>
  <clipPath id="z22697c7"><use href="#z22697d7"/></clipPath>
  <clipPath id="z22697c8"><use href="#z22697d8"/></clipPath>
  <clipPath id="z22697c9"><use href="#z22697d9"/></clipPath>
  <clipPath id="z22697c10"><use href="#z22697d10"/></clipPath>
  <clipPath id="z22697c11"><use href="#z22697d11"/></clipPath>
  <clipPath id="z22697c12"><use href="#z22697d12"/></clipPath>
  <clipPath id="z22697c13"><use href="#z22697d13"/></clipPath>
  <clipPath id="z22697c14"><use href="#z22697d14"/></clipPath>
  <clipPath id="z22697c15"><use href="#z22697d15"/></clipPath>
</defs>
<path style="--d:1s;" pathLength="3333" clip-path="url(#z22697c1)" d="M 103 481 L 125 477 L 163 482 L 261 513 L 298 515"/>
<path style="--d:2s;" pathLength="3333" clip-path="url(#z22697c2)" d="M 191 723 L 233 688 L 235 668 L 229 366 L 213 345"/>
<path style="--d:3s;" pathLength="3333" clip-path="url(#z22697c3)" d="M 54 271 L 106 261 L 316 373"/>
<path style="--d:4s;" pathLength="3333" clip-path="url(#z22697c4)" d="M 445 817 L 534 766 L 552 739"/>
<path style="--d:5s;" pathLength="3333" clip-path="url(#z22697c5)" d="M 344 653 L 354 648 L 406 649 L 576 692 L 628 695"/>
<path style="--d:6s;" pathLength="3333" clip-path="url(#z22697c6)" d="M 342 559 L 364 543 L 374 527 L 404 424"/>
<path style="--d:7s;" pathLength="3333" clip-path="url(#z22697c7)" d="M 385 561 L 405 554 L 517 587 L 536 587 L 564 561 L 545 510 L 524 500"/>
<path style="--d:8s;" pathLength="3333" clip-path="url(#z22697c8)" d="M 419 442 L 434 452 L 510 469 L 571 466"/>
<path style="--d:9s;" pathLength="3333" clip-path="url(#z22697c9)" d="M 342 351 L 359 344 L 384 344 L 487 386 L 531 383 L 546 366 L 540 354 L 482 284 L 472 285"/>
<path style="--d:10s;" pathLength="3333" clip-path="url(#z22697c10)" d="M 435 275 L 454 269 L 474 253 L 492 217 L 505 123 L 500 59 L 482 17 L 461 -2 L 388 31"/>
<path style="--d:11s;" pathLength="3333" clip-path="url(#z22697c11)" d="M 214 121 L 268 105 L 505 209 L 576 246"/>
<path style="--d:12s;" pathLength="3333" clip-path="url(#z22697c12)" d="M 710 771 L 735 755 L 749 735 L 739 690 L 684 535 L 648 463 L 624 430"/>
<path style="--d:13s;" pathLength="3333" clip-path="url(#z22697c13)" d="M 671 467 L 773 484 L 849 513 L 906 518"/>
<path style="--d:14s;" pathLength="3333" clip-path="url(#z22697c14)" d="M 733 449 L 769 421 L 758 323 L 735 239 L 711 191 L 685 160 L 623 114 L 578 97"/>
<path style="--d:15s;" pathLength="3333" clip-path="url(#z22697c15)" d="M 618 352 L 650 339 L 761 193 L 862 89 L 993 62"/>
</svg>