<svg id="z25805" class="acjk" viewBox="0 0 1024 1024" xmlns="http://www.w3.org/2000/svg">
<style>
<![CDATA[
@keyframes zk {
	to {
		stroke-dashoffset:0;
	}
}
svg.acjk path[clip-path] {
	--t:0.8s;
	animation:zk var(--t) linear forwards var(--d);
	stroke-dasharray:3337;
	stroke-dashoffset:3339;
	stroke-width:128;
	stroke-linecap:round;
	stroke-linejoin:round;
	fill:none;
	stroke:#000;
}
svg.acjk path[id] {fill:#ccc;}
]]>
</style>
  <path id="z25805d1" d="M 309 558 Q 381 580 385 583 Q 394 592 388 600 Q 381 612 350 617 Q 331 620 312 614 L 263 597 Q 190 573 127 563 Q 90 554 118 539 Q 160 518 222 536 Q 238 542 262 546 L 309 558 Z"/>
  <path id="z25805d2" d="M 257 370 Q 254 273 251 148 Q 250 126 237 116 Q 233 113 176 122 Q 145 135 147 125 Q 148 118 167 103 Q 221 55 234 29 Q 249 -2 263 -4 Q 276 -5 292 28 Q 310 71 310 142 Q 303 278 305 416 L 305 446 Q 305 501 309 558 L 312 614 Q 312 693 332 758 Q 348 786 296 809 Q 265 828 245 821 Q 229 815 243 793 Q 264 768 264 734 Q 265 718 263 597 L 262 546 Q 261 489 258 413 L 257 370 Z"/>
  <path id="z25805d3" d="M 258 413 Q 63 275 56 271 Q 41 264 40 255 Q 40 246 55 234 Q 76 221 98 216 Q 114 213 122 226 Q 176 295 257 370 L 305 416 Q 315 426 327 435 Q 346 448 353 464 Q 359 477 348 475 Q 329 471 305 446 L 258 413 Z"/>
  <path id="z25805d4" d="M 528 767 Q 518 773 485 775 Q 473 776 471 772 Q 465 766 474 751 Q 499 712 518 646 Q 522 627 536 614 Q 555 595 558 610 Q 559 619 560 631 L 555 659 Q 543 716 540 738 C 536 763 536 763 528 767 Z"/>
  <path id="z25805d5" d="M 732 675 Q 760 727 783 737 Q 799 753 787 770 Q 774 782 728 807 Q 713 814 693 808 Q 639 787 528 767 C 498 762 511 732 540 738 Q 633 756 681 765 Q 697 768 703 761 Q 709 752 684 681 C 674 653 717 649 732 675 Z"/>
  <path id="z25805d6" d="M 560 631 Q 564 630 572 631 Q 626 641 740 646 Q 750 647 751 654 Q 751 661 732 675 C 717 687 714 686 684 681 Q 611 668 555 659 C 525 654 530 633 560 631 Z"/>
  <path id="z25805d7" d="M 424 540 Q 415 544 392 548 Q 383 549 380 546 Q 376 542 382 529 Q 403 487 416 419 Q 419 398 431 385 Q 444 369 449 380 Q 453 392 451 411 L 448 436 Q 438 500 436 519 C 434 536 434 536 424 540 Z"/>
  <path id="z25805d8" d="M 566 454 Q 578 509 594 526 Q 612 547 593 557 Q 577 566 556 579 Q 540 586 526 577 Q 499 559 424 540 C 395 533 407 511 436 519 L 508 538 Q 527 542 532 535 Q 538 531 534 507 Q 531 485 526 458 C 521 428 559 425 566 454 Z"/>
  <path id="z25805d9" d="M 451 411 Q 455 411 463 413 Q 497 423 573 433 Q 580 434 581 441 Q 581 445 566 454 C 555 461 555 461 526 458 Q 525 459 523 458 Q 481 445 448 436 C 419 428 421 408 451 411 Z"/>
  <path id="z25805d10" d="M 660 582 Q 650 586 636 587 Q 627 590 624 585 Q 620 581 626 568 Q 647 531 661 471 Q 664 452 675 441 Q 690 425 693 436 Q 694 443 695 453 L 692 479 Q 682 540 680 558 C 678 576 678 576 660 582 Z"/>
  <path id="z25805d11" d="M 829 498 Q 845 544 862 558 Q 883 580 863 593 Q 847 603 823 620 Q 807 630 790 621 Q 754 600 660 582 C 631 576 651 552 680 558 Q 681 558 766 577 Q 790 581 795 573 Q 798 570 782 501 C 775 472 819 470 829 498 Z"/>
  <path id="z25805d12" d="M 695 453 Q 702 453 710 454 Q 750 464 839 472 Q 846 473 848 480 Q 848 486 829 498 C 812 509 811 509 782 501 Q 733 488 692 479 C 663 473 665 452 695 453 Z"/>
  <path id="z25805d13" d="M 644 308 Q 729 321 855 324 Q 915 324 920 334 Q 924 346 909 358 Q 855 397 792 378 Q 732 366 646 347 L 597 339 Q 489 321 367 302 Q 348 299 363 283 Q 376 270 394 266 Q 415 262 430 266 Q 491 285 562 296 L 644 308 Z"/>
  <path id="z25805d14" d="M 643 279 Q 643 295 644 308 L 646 347 Q 647 362 649 371 Q 652 383 645 388 Q 623 407 606 416 Q 594 420 586 413 Q 580 409 587 400 Q 596 382 597 339 L 596 258 Q 596 95 579 54 Q 570 18 602 -29 Q 612 -47 619 -50 Q 629 -51 635 -39 Q 647 -9 644 19 Q 641 140 642 242 L 643 279 Z"/>
  <path id="z25805d15" d="M 562 296 Q 532 205 350 79 Q 334 67 348 66 Q 358 65 395 79 Q 437 94 476 124 Q 510 151 548 193 Q 578 227 596 258 C 627 310 579 342 562 296 Z"/>
  <path id="z25805d16" d="M 642 242 Q 699 169 762 99 Q 784 77 821 74 Q 888 70 960 81 Q 979 82 980 88 Q 983 94 968 100 Q 815 157 791 171 Q 757 189 643 279 C 619 298 623 266 642 242 Z"/>
<defs>
  <clipPath id="z25805c1"><use href="#z25805d1"/></clipPath>
  <clipPath id="z25805c2"><use href="#z25805d2"/></clipPath>
  <clipPath id="z25805c3"><use href="#z25805d3"/></clipPath>
  <clipPath id="z25805c4"><use href="#z25805d4"/></clipPath>
  <clipPath id="z25805c5"><use href="#z25805d5"/></clipPath>
  <clipPath id="z25805c6"><use href="#z25805d6"/></clipPath>
  <clipPath id="z25805c7"><use href="#z25805d7"/></clipPath>
  <clipPath id="z25805c8"><use href="#z25805d8"/></clipPath>
  <clipPath id="z25805c9"><use href="#z25805d9"/></clipPath>
  <clipPath id="z25805c10"><use href="#z25805d10"/></clipPath>
  <clipPath id="z25805c11"><use href="#z25805d11"/></clipPath>
  <clipPath id="z25805c12"><use href="#z25805d12"/></clipPath>
  <clipPath id="z25805c13"><use href="#z25805d13"/></clipPath>
  <clipPath id="z25805c14"><use href="#z25805d14"/></clipPath>
  <clipPath id="z25805c15"><use href="#z25805d15"/></clipPath>
  <clipPath id="z25805c16"><use href="#z25805d16"/></clipPath>
</defs>
<path style="--d:1s;" pathLength="3333" clip-path="url(#z25805c1)" d="M 119 552 L 193 552 L 342 594 L 378 593"/>
<path style="--d:2s;" pathLength="3333" clip-path="url(#z25805c2)" d="M 252 806 L 277 791 L 297 761 L 287 634 L 281 420 L 280 134 L 274 104 L 258 75 L 153 123"/>
<path style="--d:3s;" pathLength="3333" clip-path="url(#z25805c3)" d="M 52 254 L 96 254 L 345 467"/>
<path style="--d:4s;" pathLength="3333" clip-path="url(#z25805c4)" d="M 480 765 L 508 746 L 513 735 L 547 614"/>
<path style="--d:5s;" pathLength="3333" clip-path="url(#z25805c5)" d="M 539 763 L 550 755 L 567 757 L 683 785 L 715 784 L 742 755 L 717 702 L 691 691"/>
<path style="--d:6s;" pathLength="3333" clip-path="url(#z25805c6)" d="M 562 653 L 573 646 L 679 662 L 742 655"/>
<path style="--d:7s;" pathLength="3333" clip-path="url(#z25805c7)" d="M 387 541 L 414 513 L 441 386"/>
<path style="--d:8s;" pathLength="3333" clip-path="url(#z25805c8)" d="M 435 539 L 442 533 L 532 558 L 550 554 L 564 538 L 562 524 L 548 474 L 533 463"/>
<path style="--d:9s;" pathLength="3333" clip-path="url(#z25805c9)" d="M 456 418 L 472 430 L 519 441 L 574 440"/>
<path style="--d:10s;" pathLength="3333" clip-path="url(#z25805c10)" d="M 631 580 L 659 551 L 685 441"/>
<path style="--d:11s;" pathLength="3333" clip-path="url(#z25805c11)" d="M 671 581 L 684 573 L 807 598 L 830 574 L 812 524 L 791 512"/>
<path style="--d:12s;" pathLength="3333" clip-path="url(#z25805c12)" d="M 702 460 L 716 471 L 775 482 L 820 485 L 840 480"/>
<path style="--d:13s;" pathLength="3333" clip-path="url(#z25805c13)" d="M 366 292 L 421 287 L 549 313 L 819 354 L 854 353 L 912 340"/>
<path style="--d:14s;" pathLength="3333" clip-path="url(#z25805c14)" d="M 594 407 L 616 383 L 622 356 L 610 36 L 621 -40"/>
<path style="--d:15s;" pathLength="3333" clip-path="url(#z25805c15)" d="M 592 294 L 581 285 L 574 264 L 546 223 L 478 151 L 434 117 L 351 72"/>
<path style="--d:16s;" pathLength="3333" clip-path="url(#z25805c16)" d="M 651 260 L 670 234 L 749 160 L 804 119 L 873 103 L 974 90"/>
</svg>