<svg id="z29138" class="acjk" viewBox="0 0 1024 1024" xmlns="http://www.w3.org/2000/svg">
<style>
<![CDATA[
@keyframes zk {
	to {
		stroke-dashoffset:0;
	}
}
svg.acjk path[clip-path] {
	--t:0.8s;
	animation:zk var(--t) linear forwards var(--d);
	stroke-dasharray:3337;
	stroke-dashoffset:3339;
	stroke-width:128;
	stroke-linecap:round;
	stroke-linejoin:round;
	fill:none;
	stroke:#000;
}
svg.acjk path[id] {fill:#ccc;}
]]>
</style>
  <path id="z29138d1" d="M 128 542 Q 122 482 105 425 Q 96 392 119 368 Q 129 355 145 371 Q 179 422 164 500 Q 160 528 148 548 Q 142 554 137 553 Q 130 550 128 542 Z"/>
  <path id="z29138d2" d="M 284 527 Q 362 576 401 594 Q 417 598 413 607 Q 409 620 394 638 Q 379 654 360 657 Q 347 658 347 641 Q 348 623 285 553 C 265 531 259 511 284 527 Z"/>
  <path id="z29138d3" d="M 267 301 Q 276 358 284 527 L 285 553 Q 286 691 310 758 Q 317 771 305 782 Q 283 800 244 810 Q 219 816 211 809 Q 202 802 210 790 Q 268 699 228 351 Q 204 231 151 157 Q 115 115 59 71 Q 49 62 48 58 Q 49 54 61 55 Q 74 52 109 69 Q 226 117 262 275 Q 263 281 264 286 L 267 301 Z"/>
  <path id="z29138d4" d="M 264 286 Q 267 279 283 262 Q 302 240 323 213 Q 332 201 344 200 Q 351 199 357 209 Q 363 219 359 243 Q 358 259 334 275 Q 282 306 268 302 Q 267 302 267 301 C 258 298 258 298 264 286 Z"/>
  <path id="z29138d5" d="M 640 698 Q 677 708 719 716 Q 750 725 755 729 Q 762 736 759 743 Q 752 752 729 757 Q 710 760 645 739 L 589 723 Q 552 716 510 710 Q 482 704 502 692 Q 536 674 591 687 L 640 698 Z"/>
  <path id="z29138d6" d="M 632 631 Q 636 665 640 698 L 645 739 Q 646 752 648 765 Q 651 781 653 794 Q 657 804 659 811 Q 662 821 644 834 Q 613 852 590 855 Q 575 859 568 851 Q 561 844 569 830 Q 584 809 589 723 L 591 687 Q 592 656 592 622 C 592 592 628 601 632 631 Z"/>
  <path id="z29138d7" d="M 592 622 Q 531 612 464 597 Q 448 596 461 583 Q 471 573 486 570 Q 502 567 514 571 Q 643 614 808 615 L 810 615 Q 825 616 828 623 Q 832 632 819 641 Q 774 669 724 653 Q 685 644 632 631 L 592 622 Z"/>
  <path id="z29138d8" d="M 503 449 Q 527 456 555 463 Q 577 469 580 472 Q 586 479 582 484 Q 578 491 556 496 Q 535 499 506 485 L 459 470 Q 431 463 400 458 Q 375 454 393 442 Q 417 430 460 438 L 503 449 Z"/>
  <path id="z29138d9" d="M 499 388 Q 500 422 503 449 L 506 485 Q 506 518 505 519 Q 487 538 470 546 Q 460 550 453 546 Q 446 543 449 535 Q 455 522 459 470 L 460 438 Q 460 413 462 377 C 464 347 498 358 499 388 Z"/>
  <path id="z29138d10" d="M 462 377 Q 428 370 395 359 Q 382 355 360 356 Q 350 355 349 347 Q 348 337 355 330 Q 373 317 398 303 Q 407 300 416 307 Q 444 329 554 380 Q 570 387 582 397 Q 592 403 593 410 Q 589 414 579 413 Q 542 401 499 388 L 462 377 Z"/>
  <path id="z29138d11" d="M 746 482 Q 773 489 802 495 Q 827 501 831 504 Q 838 510 834 516 Q 830 523 809 529 Q 788 533 750 518 L 697 503 Q 666 499 633 494 Q 608 490 626 478 Q 656 460 694 472 Q 695 473 699 472 L 746 482 Z"/>
  <path id="z29138d12" d="M 738 404 Q 742 444 746 482 L 750 518 Q 753 533 755 542 Q 758 549 760 556 Q 761 565 746 577 Q 718 592 698 595 Q 685 598 678 591 Q 672 584 679 572 Q 691 559 692 547 Q 693 526 697 503 L 699 472 Q 700 438 703 398 C 705 368 735 374 738 404 Z"/>
  <path id="z29138d13" d="M 703 398 Q 649 395 612 388 Q 587 387 606 371 Q 633 352 675 357 Q 789 376 872 384 Q 881 383 889 394 Q 890 404 871 413 Q 838 429 778 413 Q 745 407 738 404 L 703 398 Z"/>
  <path id="z29138d14" d="M 649 263 Q 683 272 803 282 Q 812 281 821 292 Q 822 302 802 313 Q 772 334 710 314 Q 511 277 404 266 Q 379 263 398 247 Q 417 231 458 230 Q 467 233 479 234 L 518 240 Q 558 249 606 256 L 649 263 Z"/>
  <path id="z29138d15" d="M 479 234 Q 475 147 366 49 Q 363 49 362 46 Q 331 19 258 -23 Q 251 -29 256 -33 Q 263 -37 273 -34 Q 405 -7 499 122 Q 517 155 546 188 Q 556 195 552 206 Q 548 216 522 237 Q 519 238 518 240 C 494 259 482 264 479 234 Z"/>
  <path id="z29138d16" d="M 606 256 L 607 254 Q 617 220 615 185 Q 603 -1 655 -33 Q 674 -45 704 -56 Q 857 -102 973 -21 Q 995 -3 981 26 Q 966 51 946 130 Q 945 149 937 154 Q 930 158 925 138 Q 894 53 874 27 Q 862 14 830 5 Q 758 -13 691 11 Q 667 21 661 37 Q 640 82 666 229 Q 669 247 649 263 C 629 286 598 285 606 256 Z"/>
<defs>
  <clipPath id="z29138c1"><use href="#z29138d1"/></clipPath>
  <clipPath id="z29138c2"><use href="#z29138d2"/></clipPath>
  <clipPath id="z29138c3"><use href="#z29138d3"/></clipPath>
  <clipPath id="z29138c4"><use href="#z29138d4"/></clipPath>
  <clipPath id="z29138c5"><use href="#z29138d5"/></clipPath>
  <clipPath id="z29138c6"><use href="#z29138d6"/></clipPath>
  <clipPath id="z29138c7"><use href="#z29138d7"/></clipPath>
  <clipPath id="z29138c8"><use href="#z29138d8"/></clipPath>
  <clipPath id="z29138c9"><use href="#z29138d9"/></clipPath>
  <clipPath id="z29138c10"><use href="#z29138d10"/></clipPath>
  <clipPath id="z29138c11"><use href="#z29138d11"/></clipPath>
  <clipPath id="z29138c12"><use href="#z29138d12"/></clipPath>
  <clipPath id="z29138c13"><use href="#z29138d13"/></clipPath>
  <clipPath id="z29138c14"><use href="#z29138d14"/></clipPath>
  <clipPath id="z29138c15"><use href="#z29138d15"/></clipPath>
  <clipPath id="z29138c16"><use href="#z29138d16"/></clipPath>
</defs>
<path style="--d:1s;" pathLength="3333" clip-path="url(#z29138c1)" d="M 139 542 L 143 486 L 131 378"/>
<path style="--d:2s;" pathLength="3333" clip-path="url(#z29138c2)" d="M 403 604 L 372 615 L 294 546 L 292 533"/>
<path style="--d:3s;" pathLength="3333" clip-path="url(#z29138c3)" d="M 219 799 L 267 758 L 266 564 L 256 403 L 242 298 L 213 210 L 176 148 L 141 112 L 55 57"/>
<path style="--d:4s;" pathLength="3333" clip-path="url(#z29138c4)" d="M 272 297 L 327 248 L 343 215"/>
<path style="--d:5s;" pathLength="3333" clip-path="url(#z29138c5)" d="M 504 702 L 579 702 L 708 735 L 749 738"/>
<path style="--d:6s;" pathLength="3333" clip-path="url(#z29138c6)" d="M 579 842 L 617 806 L 613 648 L 597 629"/>
<path style="--d:7s;" pathLength="3333" clip-path="url(#z29138c7)" d="M 473 588 L 516 589 L 737 635 L 790 635 L 819 627"/>
<path style="--d:8s;" pathLength="3333" clip-path="url(#z29138c8)" d="M 395 451 L 450 451 L 541 478 L 572 480"/>
<path style="--d:9s;" pathLength="3333" clip-path="url(#z29138c9)" d="M 459 537 L 481 508 L 482 494 L 481 413 L 466 386"/>
<path style="--d:10s;" pathLength="3333" clip-path="url(#z29138c10)" d="M 361 344 L 403 332 L 586 409"/>
<path style="--d:11s;" pathLength="3333" clip-path="url(#z29138c11)" d="M 628 487 L 659 482 L 791 511 L 824 512"/>
<path style="--d:12s;" pathLength="3333" clip-path="url(#z29138c12)" d="M 688 583 L 724 552 L 720 420 L 708 406"/>
<path style="--d:13s;" pathLength="3333" clip-path="url(#z29138c13)" d="M 607 380 L 652 374 L 823 400 L 879 396"/>
<path style="--d:14s;" pathLength="3333" clip-path="url(#z29138c14)" d="M 400 257 L 458 251 L 743 300 L 779 301 L 811 294"/>
<path style="--d:15s;" pathLength="3333" clip-path="url(#z29138c15)" d="M 487 227 L 510 201 L 473 131 L 443 93 L 411 59 L 355 15 L 261 -29"/>
<path style="--d:16s;" pathLength="3333" clip-path="url(#z29138c16)" d="M 616 249 L 639 234 L 631 102 L 640 33 L 664 -6 L 695 -21 L 770 -37 L 815 -36 L 869 -25 L 905 -7 L 928 13 L 936 147"/>
</svg>