<svg id="z29956" class="acjk" viewBox="0 0 1024 1024" xmlns="http://www.w3.org/2000/svg">
<style>
<![CDATA[
@keyframes zk {
	to {
		stroke-dashoffset:0;
	}
}
svg.acjk path[clip-path] {
	--t:0.8s;
	animation:zk var(--t) linear forwards var(--d);
	stroke-dasharray:3337;
	stroke-dashoffset:3339;
	stroke-width:128;
	stroke-linecap:round;
	stroke-linejoin:round;
	fill:none;
	stroke:#000;
}
svg.acjk path[id] {fill:#ccc;}
]]>
</style>
  <path id="z29956d1" d="M 355 724 Q 478 757 479 758 Q 488 765 483 773 Q 476 783 449 790 Q 425 794 336 763 Q 261 744 191 734 Q 158 728 182 713 Q 215 698 288 709 Q 304 713 322 716 L 355 724 Z"/>
  <path id="z29956d2" d="M 165 576 Q 155 580 130 584 Q 120 585 116 581 Q 112 577 119 562 Q 144 513 163 430 Q 166 406 181 390 Q 197 371 202 385 Q 203 391 204 399 L 203 425 Q 188 497 181 545 C 177 572 177 572 165 576 Z"/>
  <path id="z29956d3" d="M 395 440 Q 410 415 425 406 Q 434 399 448 417 Q 460 433 489 531 Q 496 559 518 580 Q 528 592 519 604 Q 506 619 468 642 Q 450 651 437 646 Q 410 637 373 627 L 337 618 Q 312 614 285 606 L 247 596 Q 201 586 165 576 C 136 568 153 534 181 545 Q 211 557 250 567 L 285 577 Q 307 584 337 590 L 370 598 Q 382 602 398 604 Q 428 610 438 600 Q 447 590 445 578 Q 421 476 410 463 C 397 437 393 443 395 440 Z"/>
  <path id="z29956d4" d="M 285 606 Q 286 630 288 637 Q 291 653 280 663 Q 264 676 243 684 Q 233 688 226 684 Q 220 680 225 668 Q 246 626 247 596 L 250 567 Q 251 524 257 438 C 259 408 287 417 287 447 Q 286 544 285 577 L 285 606 Z"/>
  <path id="z29956d5" d="M 373 627 Q 373 646 381 673 Q 390 701 377 712 Q 365 719 355 724 C 328 738 309 743 322 716 Q 322 715 324 711 Q 339 687 337 618 L 337 590 Q 334 529 329 460 C 327 430 354 439 357 469 Q 364 536 370 598 L 373 627 Z"/>
  <path id="z29956d6" d="M 304 422 Q 341 431 395 440 C 425 445 435 447 410 463 Q 404 467 395 472 Q 382 478 358 470 Q 357 470 357 469 C 349 465 349 465 329 460 Q 307 454 287 447 L 257 438 Q 226 432 203 425 C 174 417 174 400 204 399 Q 211 398 222 401 Q 244 408 280 416 L 304 422 Z"/>
  <path id="z29956d7" d="M 341 286 Q 375 296 411 304 Q 444 314 448 318 Q 455 325 451 333 Q 444 343 417 349 Q 386 355 343 333 L 295 316 Q 264 307 190 295 Q 157 288 182 273 Q 216 257 282 271 Q 288 272 296 274 L 341 286 Z"/>
  <path id="z29956d8" d="M 336 179 Q 337 237 341 286 L 343 333 Q 343 351 345 368 Q 352 384 343 392 Q 324 413 304 422 C 277 436 274 438 280 416 Q 279 413 290 393 Q 291 390 295 316 L 296 274 Q 296 234 297 169 C 297 139 335 149 336 179 Z"/>
  <path id="z29956d9" d="M 297 169 Q 152 133 124 134 Q 111 133 109 123 Q 106 110 115 102 Q 137 86 169 65 Q 179 62 191 70 Q 320 130 452 192 Q 465 199 466 208 Q 462 212 449 211 Q 395 196 336 179 L 297 169 Z"/>
  <path id="z29956d10" d="M 588 666 Q 693 697 848 725 Q 858 724 866 738 Q 867 748 844 758 Q 810 779 728 747 Q 709 743 690 736 Q 654 727 507 697 Q 479 691 501 676 Q 532 655 548 656 L 588 666 Z"/>
  <path id="z29956d11" d="M 584 399 Q 591 447 598 489 L 601 509 Q 613 588 622 610 Q 629 623 620 635 Q 604 654 588 666 C 565 686 541 685 548 656 Q 584 545 502 216 Q 493 168 448 125 Q 420 98 457 48 Q 469 39 483 54 Q 501 79 654 179 Q 673 189 679 198 Q 683 207 675 208 Q 669 208 552 166 Q 542 162 541 171 Q 565 280 581 376 L 584 399 Z"/>
  <path id="z29956d12" d="M 598 489 Q 623 480 700 507 Q 718 516 725 508 Q 728 505 722 416 Q 686 95 860 34 Q 861 34 865 32 Q 901 22 948 26 Q 963 27 966 35 Q 973 45 963 72 Q 953 112 952 184 Q 952 196 946 203 Q 939 210 935 193 Q 916 126 905 105 Q 901 98 893 95 Q 886 91 878 92 Q 854 95 830 118 Q 767 178 765 304 Q 762 454 819 511 Q 831 520 820 529 Q 808 545 774 558 Q 743 570 730 561 Q 681 530 602 510 Q 601 510 601 509 C 572 500 568 491 598 489 Z"/>
  <path id="z29956d13" d="M 581 376 Q 585 370 598 361 Q 623 342 650 318 Q 662 308 674 309 Q 681 310 685 320 Q 689 332 681 355 Q 672 382 593 398 Q 587 399 584 399 C 561 401 562 399 581 376 Z"/>
<defs>
  <clipPath id="z29956c1"><use href="#z29956d1"/></clipPath>
  <clipPath id="z29956c2"><use href="#z29956d2"/></clipPath>
  <clipPath id="z29956c3"><use href="#z29956d3"/></clipPath>
  <clipPath id="z29956c4"><use href="#z29956d4"/></clipPath>
  <clipPath id="z29956c5"><use href="#z29956d5"/></clipPath>
  <clipPath id="z29956c6"><use href="#z29956d6"/></clipPath>
  <clipPath id="z29956c7"><use href="#z29956d7"/></clipPath>
  <clipPath id="z29956c8"><use href="#z29956d8"/></clipPath>
  <clipPath id="z29956c9"><use href="#z29956d9"/></clipPath>
  <clipPath id="z29956c10"><use href="#z29956d10"/></clipPath>
  <clipPath id="z29956c11"><use href="#z29956d11"/></clipPath>
  <clipPath id="z29956c12"><use href="#z29956d12"/></clipPath>
  <clipPath id="z29956c13"><use href="#z29956d13"/></clipPath>
</defs>
<path style="--d:1s;" pathLength="3333" clip-path="url(#z29956c1)" d="M 184 725 L 241 722 L 439 769 L 475 767"/>
<path style="--d:2s;" pathLength="3333" clip-path="url(#z29956c2)" d="M 124 576 L 146 559 L 158 535 L 192 390"/>
<path style="--d:3s;" pathLength="3333" clip-path="url(#z29956c3)" d="M 172 573 L 195 566 L 398 620 L 452 622 L 475 600 L 478 581 L 437 456 L 429 441 L 409 439"/>
<path style="--d:4s;" pathLength="3333" clip-path="url(#z29956c4)" d="M 232 677 L 263 643 L 272 459 L 262 448"/>
<path style="--d:5s;" pathLength="3333" clip-path="url(#z29956c5)" d="M 328 715 L 352 700 L 359 687 L 346 493 L 344 479 L 334 467"/>
<path style="--d:6s;" pathLength="3333" clip-path="url(#z29956c6)" d="M 208 406 L 217 414 L 326 444 L 403 459"/>
<path style="--d:7s;" pathLength="3333" clip-path="url(#z29956c7)" d="M 183 285 L 253 285 L 388 324 L 440 327"/>
<path style="--d:8s;" pathLength="3333" clip-path="url(#z29956c8)" d="M 287 414 L 302 405 L 319 378 L 317 204 L 313 188 L 302 178"/>
<path style="--d:9s;" pathLength="3333" clip-path="url(#z29956c9)" d="M 123 120 L 181 105 L 461 205"/>
<path style="--d:10s;" pathLength="3333" clip-path="url(#z29956c10)" d="M 502 687 L 541 680 L 794 741 L 855 739"/>
<path style="--d:11s;" pathLength="3333" clip-path="url(#z29956c11)" d="M 556 654 L 581 636 L 589 617 L 585 562 L 557 359 L 514 171 L 517 136 L 557 142 L 675 202"/>
<path style="--d:12s;" pathLength="3333" clip-path="url(#z29956c12)" d="M 603 493 L 614 501 L 723 533 L 746 533 L 767 515 L 744 401 L 743 255 L 766 162 L 791 118 L 823 85 L 878 61 L 922 66 L 943 196"/>
<path style="--d:13s;" pathLength="3333" clip-path="url(#z29956c13)" d="M 588 393 L 656 347 L 670 324"/>
</svg>