<svg id="z24212" class="acjk" viewBox="0 0 1024 1024" xmlns="http://www.w3.org/2000/svg">
<style>
<![CDATA[
@keyframes zk {
	to {
		stroke-dashoffset:0;
	}
}
svg.acjk path[clip-path] {
	--t:0.8s;
	animation:zk var(--t) linear forwards var(--d);
	stroke-dasharray:3337;
	stroke-dashoffset:3339;
	stroke-width:128;
	stroke-linecap:round;
	stroke-linejoin:round;
	fill:none;
	stroke:#000;
}
svg.acjk path[id] {fill:#ccc;}
]]>
</style>
  <path id="z24212d1" d="M 492 779 Q 526 755 562 726 Q 577 714 593 716 Q 605 717 609 732 Q 612 748 600 778 Q 587 811 483 828 Q 467 831 460 827 Q 456 823 458 809 Q 462 799 492 779 Z"/>
  <path id="z24212d2" d="M 330 578 Q 343 572 364 578 Q 584 620 770 639 Q 782 638 792 651 Q 793 664 769 676 Q 730 700 641 674 Q 482 643 414 634 Q 363 631 309 623 C 279 619 301 584 330 578 Z"/>
  <path id="z24212d3" d="M 309 623 Q 267 656 248 649 Q 235 642 240 626 Q 286 557 197 267 Q 191 257 188 244 Q 154 166 69 40 Q 63 33 61 27 Q 57 15 69 17 Q 108 23 191 143 Q 201 161 212 179 Q 282 314 319 541 Q 328 577 330 578 C 338 602 333 605 309 623 Z"/>
  <path id="z24212d4" d="M 350 307 Q 375 271 403 230 Q 412 215 427 212 Q 437 211 445 221 Q 452 234 451 264 Q 451 286 422 312 Q 352 363 336 359 Q 332 356 329 344 Q 330 332 350 307 Z"/>
  <path id="z24212d5" d="M 483 386 Q 508 356 532 320 Q 542 307 556 304 Q 566 303 573 313 Q 580 326 577 354 Q 574 384 488 430 Q 475 436 468 435 Q 464 432 462 420 Q 463 410 483 386 Z"/>
  <path id="z24212d6" d="M 609 125 Q 643 165 724 327 Q 745 370 783 424 Q 801 439 791 452 Q 781 471 744 495 Q 728 508 707 501 Q 695 495 702 482 Q 717 413 624 229 Q 576 139 575 121 C 568 92 591 101 609 125 Z"/>
  <path id="z24212d7" d="M 564 73 Q 604 74 643 79 Q 739 89 854 76 Q 876 73 882 81 Q 889 94 878 106 Q 815 163 748 145 Q 706 138 664 131 Q 634 130 609 125 L 575 121 Q 508 118 388 102 Q 336 95 258 94 Q 245 94 244 83 Q 243 71 261 58 Q 277 46 307 34 Q 317 30 335 38 Q 347 42 403 51 Q 475 67 564 73 Z"/>
<defs>
  <clipPath id="z24212c1"><use href="#z24212d1"/></clipPath>
  <clipPath id="z24212c2"><use href="#z24212d2"/></clipPath>
  <clipPath id="z24212c3"><use href="#z24212d3"/></clipPath>
  <clipPath id="z24212c4"><use href="#z24212d4"/></clipPath>
  <clipPath id="z24212c5"><use href="#z24212d5"/></clipPath>
  <clipPath id="z24212c6"><use href="#z24212d6"/></clipPath>
  <clipPath id="z24212c7"><use href="#z24212d7"/></clipPath>
</defs>
<path style="--d:1s;" pathLength="3333" clip-path="url(#z24212c1)" d="M 466 821 L 556 774 L 591 734"/>
<path style="--d:2s;" pathLength="3333" clip-path="url(#z24212c2)" d="M 317 620 L 348 602 L 705 660 L 739 661 L 781 653"/>
<path style="--d:3s;" pathLength="3333" clip-path="url(#z24212c3)" d="M 254 635 L 283 604 L 291 576 L 276 464 L 238 309 L 220 255 L 166 145 L 107 63 L 70 26"/>
<path style="--d:4s;" pathLength="3333" clip-path="url(#z24212c4)" d="M 339 353 L 413 274 L 428 232"/>
<path style="--d:5s;" pathLength="3333" clip-path="url(#z24212c5)" d="M 472 429 L 544 355 L 557 322"/>
<path style="--d:6s;" pathLength="3333" clip-path="url(#z24212c6)" d="M 711 490 L 727 478 L 745 441 L 652 235 L 600 141 L 581 123"/>
<path style="--d:7s;" pathLength="3333" clip-path="url(#z24212c7)" d="M 256 82 L 318 65 L 473 89 L 773 116 L 816 111 L 871 90"/>
</svg>