<svg id="z23429" class="acjk" viewBox="0 0 1024 1024" xmlns="http://www.w3.org/2000/svg">
<style>
<![CDATA[
@keyframes zk {
	to {
		stroke-dashoffset:0;
	}
}
svg.acjk path[clip-path] {
	--t:0.8s;
	animation:zk var(--t) linear forwards var(--d);
	stroke-dasharray:3337;
	stroke-dashoffset:3339;
	stroke-width:128;
	stroke-linecap:round;
	stroke-linejoin:round;
	fill:none;
	stroke:#000;
}
svg.acjk path[id] {fill:#ccc;}
]]>
</style>
  <path id="z23429d1" d="M 474 788 Q 499 763 527 733 Q 542 717 561 717 Q 574 717 580 733 Q 587 749 577 786 Q 571 807 539 823 Q 461 854 444 848 Q 438 844 439 828 Q 443 815 474 788 Z"/>
  <path id="z23429d2" d="M 285 619 Q 273 643 262 651 Q 243 666 241 640 Q 244 613 219 573 Q 171 513 172 492 Q 176 459 187 443 Q 202 416 222 444 Q 241 471 254 512 Q 270 561 283 590 C 291 608 291 608 285 619 Z"/>
  <path id="z23429d3" d="M 283 590 Q 310 574 345 584 Q 468 623 682 649 Q 728 655 745 652 Q 758 646 758 640 Q 758 637 708 558 Q 699 545 705 540 Q 712 536 730 546 Q 794 582 845 591 Q 887 601 887 610 Q 886 620 815 680 Q 791 704 691 681 Q 639 675 389 634 Q 337 624 285 619 C 255 616 255 601 283 590 Z"/>
  <path id="z23429d4" d="M 459 437 Q 597 491 617 494 Q 633 495 638 503 Q 641 513 629 525 Q 608 541 565 558 Q 549 565 537 564 Q 530 560 529 549 Q 523 507 309 409 Q 303 408 297 404 Q 291 395 298 392 Q 319 392 426 427 L 459 437 Z"/>
  <path id="z23429d5" d="M 486 254 Q 574 272 762 286 Q 781 287 786 297 Q 790 309 773 321 Q 716 357 681 344 Q 609 323 491 294 L 441 282 Q 329 260 199 231 Q 178 227 195 211 Q 228 184 266 197 Q 345 227 440 244 L 486 254 Z"/>
  <path id="z23429d6" d="M 936 73 Q 917 122 907 209 Q 906 225 898 230 Q 889 234 886 215 Q 871 109 856 90 Q 816 48 659 46 Q 572 49 535 64 Q 504 80 496 103 Q 477 157 486 254 L 491 294 Q 495 337 508 362 Q 521 392 502 409 Q 477 428 459 437 C 433 453 416 455 426 427 Q 426 426 428 421 Q 446 385 441 282 L 440 244 Q 439 130 448 100 Q 458 57 490 34 Q 559 -15 777 -2 Q 877 4 918 26 Q 948 42 936 73 Z"/>
<defs>
  <clipPath id="z23429c1"><use href="#z23429d1"/></clipPath>
  <clipPath id="z23429c2"><use href="#z23429d2"/></clipPath>
  <clipPath id="z23429c3"><use href="#z23429d3"/></clipPath>
  <clipPath id="z23429c4"><use href="#z23429d4"/></clipPath>
  <clipPath id="z23429c5"><use href="#z23429d5"/></clipPath>
  <clipPath id="z23429c6"><use href="#z23429d6"/></clipPath>
</defs>
<path style="--d:1s;" pathLength="3333" clip-path="url(#z23429c1)" d="M 448 841 L 535 781 L 560 737"/>
<path style="--d:2s;" pathLength="3333" clip-path="url(#z23429c2)" d="M 252 645 L 262 613 L 259 599 L 208 490 L 203 447"/>
<path style="--d:3s;" pathLength="3333" clip-path="url(#z23429c3)" d="M 293 611 L 303 602 L 333 602 L 428 626 L 706 670 L 748 672 L 777 664 L 791 654 L 803 629 L 710 546"/>
<path style="--d:4s;" pathLength="3333" clip-path="url(#z23429c4)" d="M 628 508 L 559 518 L 464 461 L 300 398"/>
<path style="--d:5s;" pathLength="3333" clip-path="url(#z23429c5)" d="M 197 221 L 253 218 L 504 278 L 695 314 L 735 312 L 774 302"/>
<path style="--d:6s;" pathLength="3333" clip-path="url(#z23429c6)" d="M 432 426 L 456 412 L 476 381 L 461 233 L 465 134 L 472 98 L 491 65 L 521 44 L 585 27 L 682 20 L 786 27 L 868 49 L 892 64 L 896 222"/>
</svg>