<svg id="z27875" class="acjk" viewBox="0 0 1024 1024" xmlns="http://www.w3.org/2000/svg">
<style>
<![CDATA[
@keyframes zk {
	to {
		stroke-dashoffset:0;
	}
}
svg.acjk path[clip-path] {
	--t:0.8s;
	animation:zk var(--t) linear forwards var(--d);
	stroke-dasharray:3337;
	stroke-dashoffset:3339;
	stroke-width:128;
	stroke-linecap:round;
	stroke-linejoin:round;
	fill:none;
	stroke:#000;
}
svg.acjk path[id] {fill:#ccc;}
]]>
</style>
  <path id="z27875d1" d="M 250 679 Q 277 655 305 627 Q 321 612 338 613 Q 351 613 356 629 Q 362 645 352 679 Q 340 715 245 734 Q 227 738 220 735 Q 214 731 216 716 Q 220 703 250 679 Z"/>
  <path id="z27875d2" d="M 144 458 Q 184 410 225 389 Q 241 386 251 401 Q 257 414 254 432 Q 242 475 157 500 Q 139 504 129 501 Q 122 500 125 486 Q 126 473 144 458 Z"/>
  <path id="z27875d3" d="M 149 126 Q 136 122 139 104 Q 161 23 193 9 Q 200 2 211 5 Q 218 6 219 33 Q 223 87 318 347 Q 325 363 323 370 Q 322 380 313 373 Q 301 367 189 171 Q 177 149 149 126 Z"/>
  <path id="z27875d4" d="M 578 712 Q 608 685 638 652 Q 654 636 673 637 Q 686 637 692 653 Q 699 669 689 706 Q 677 742 574 770 Q 555 774 548 772 Q 542 768 543 752 Q 547 739 578 712 Z"/>
  <path id="z27875d5" d="M 450 514 Q 410 507 439 488 Q 487 461 550 479 Q 644 500 741 522 Q 784 534 792 540 Q 802 549 796 559 Q 787 572 754 579 Q 724 585 611 545 Q 463 517 450 514 Z"/>
  <path id="z27875d6" d="M 432 336 Q 462 269 495 236 Q 508 229 520 238 Q 529 248 531 263 Q 531 309 454 366 Q 441 376 431 375 Q 425 375 424 364 Q 423 354 432 336 Z"/>
  <path id="z27875d7" d="M 651 176 Q 691 245 725 315 Q 738 346 766 385 Q 782 400 772 412 Q 760 431 724 454 Q 708 467 687 458 Q 675 454 683 440 Q 690 410 684 378 Q 665 300 616 193 Q 612 181 609 171 C 600 142 636 150 651 176 Z"/>
  <path id="z27875d8" d="M 609 171 Q 603 171 597 170 Q 461 155 299 140 Q 275 139 292 119 Q 307 103 327 97 Q 349 90 368 95 Q 608 152 916 131 Q 919 132 922 131 Q 944 130 950 140 Q 957 153 939 169 Q 881 214 840 205 Q 767 192 651 176 L 609 171 Z"/>
<defs>
  <clipPath id="z27875c1"><use href="#z27875d1"/></clipPath>
  <clipPath id="z27875c2"><use href="#z27875d2"/></clipPath>
  <clipPath id="z27875c3"><use href="#z27875d3"/></clipPath>
  <clipPath id="z27875c4"><use href="#z27875d4"/></clipPath>
  <clipPath id="z27875c5"><use href="#z27875d5"/></clipPath>
  <clipPath id="z27875c6"><use href="#z27875d6"/></clipPath>
  <clipPath id="z27875c7"><use href="#z27875d7"/></clipPath>
  <clipPath id="z27875c8"><use href="#z27875d8"/></clipPath>
</defs>
<path style="--d:1s;" pathLength="3333" clip-path="url(#z27875c1)" d="M 226 727 L 307 676 L 337 632"/>
<path style="--d:2s;" pathLength="3333" clip-path="url(#z27875c2)" d="M 136 491 L 209 440 L 230 412"/>
<path style="--d:3s;" pathLength="3333" clip-path="url(#z27875c3)" d="M 205 15 L 193 44 L 187 98 L 317 367"/>
<path style="--d:4s;" pathLength="3333" clip-path="url(#z27875c4)" d="M 553 764 L 644 702 L 672 657"/>
<path style="--d:5s;" pathLength="3333" clip-path="url(#z27875c5)" d="M 442 502 L 480 496 L 518 500 L 716 547 L 784 552"/>
<path style="--d:6s;" pathLength="3333" clip-path="url(#z27875c6)" d="M 435 365 L 494 285 L 506 255"/>
<path style="--d:7s;" pathLength="3333" clip-path="url(#z27875c7)" d="M 690 448 L 704 441 L 727 400 L 673 263 L 645 207 L 616 175"/>
<path style="--d:8s;" pathLength="3333" clip-path="url(#z27875c8)" d="M 295 130 L 358 119 L 618 153 L 850 171 L 886 166 L 937 148"/>
</svg>