<svg id="z24802" class="acjk" viewBox="0 0 1024 1024" xmlns="http://www.w3.org/2000/svg">
<style>
<![CDATA[
@keyframes zk {
	to {
		stroke-dashoffset:0;
	}
}
svg.acjk path[clip-path] {
	--t:0.8s;
	animation:zk var(--t) linear forwards var(--d);
	stroke-dasharray:3337;
	stroke-dashoffset:3339;
	stroke-width:128;
	stroke-linecap:round;
	stroke-linejoin:round;
	fill:none;
	stroke:#000;
}
svg.acjk path[id] {fill:#ccc;}
]]>
</style>
  <path id="z24802d1" d="M 260 654 Q 238 579 202 511 Q 186 483 204 448 Q 213 432 232 444 Q 284 493 289 600 Q 292 631 283 655 Q 277 662 272 664 Q 265 663 260 654 Z"/>
  <path id="z24802d2" d="M 354 616 Q 369 528 437 482 Q 522 424 694 440 Q 721 446 746 455 Q 767 464 769 477 Q 773 487 735 517 Q 675 572 633 630 Q 621 648 616 640 Q 612 634 616 619 Q 629 579 641 537 Q 647 515 640 506 Q 631 494 590 493 Q 473 496 426 542 Q 404 563 396 597 Q 390 622 378 627 Q 365 634 357 631 Q 351 630 354 616 Z"/>
  <path id="z24802d3" d="M 424 737 Q 457 701 490 658 Q 500 645 514 643 Q 523 642 529 653 Q 536 665 532 692 Q 531 716 498 740 Q 425 788 408 783 Q 404 780 403 769 Q 404 759 424 737 Z"/>
  <path id="z24802d4" d="M 645 738 Q 705 702 777 648 Q 796 632 811 631 Q 820 632 825 643 Q 834 658 814 696 Q 790 744 640 767 Q 631 770 632 758 Q 633 745 645 738 Z"/>
  <path id="z24802d5" d="M 111 285 Q 96 218 70 156 Q 57 126 76 98 Q 86 83 102 97 Q 118 113 127 143 Q 143 195 141 238 Q 141 266 132 288 Q 126 295 121 294 Q 114 293 111 285 Z"/>
  <path id="z24802d6" d="M 183 204 Q 186 131 236 85 Q 308 25 451 24 Q 469 25 486 29 Q 505 33 508 44 Q 512 51 486 82 Q 447 137 421 189 Q 414 207 409 201 Q 406 200 410 114 Q 414 75 362 79 Q 359 80 357 80 Q 267 93 234 136 Q 219 155 217 183 Q 214 205 205 210 Q 195 219 187 216 Q 183 215 183 204 Z"/>
  <path id="z24802d7" d="M 260 279 Q 284 249 309 215 Q 316 203 328 202 Q 335 201 342 209 Q 346 219 345 241 Q 342 272 264 314 Q 254 318 248 318 Q 244 317 243 307 Q 244 298 260 279 Z"/>
  <path id="z24802d8" d="M 389 327 Q 420 306 455 280 Q 465 273 476 274 Q 483 275 486 284 Q 487 294 480 314 Q 468 344 382 359 Q 372 360 368 358 Q 364 355 366 347 Q 370 340 389 327 Z"/>
  <path id="z24802d9" d="M 540 257 Q 527 203 504 153 Q 492 126 509 97 Q 518 84 533 96 Q 573 138 568 213 Q 568 241 559 260 Q 555 266 549 266 Q 542 265 540 257 Z"/>
  <path id="z24802d10" d="M 602 194 Q 614 107 673 65 Q 769 -1 931 18 Q 944 22 959 26 Q 980 33 982 45 Q 986 55 947 85 Q 889 142 845 199 Q 833 215 829 208 Q 823 202 849 133 Q 864 85 847 73 Q 835 70 813 70 Q 707 79 666 122 Q 647 141 642 174 Q 636 196 626 203 Q 613 210 606 207 Q 600 206 602 194 Z"/>
  <path id="z24802d11" d="M 647 316 Q 678 291 710 260 Q 722 248 735 249 Q 745 249 749 261 Q 753 274 746 299 Q 737 329 643 358 Q 630 361 624 359 Q 620 355 621 344 Q 624 334 647 316 Z"/>
  <path id="z24802d12" d="M 790 363 Q 845 324 911 267 Q 927 251 940 249 Q 947 249 953 258 Q 962 271 947 306 Q 932 346 787 389 Q 780 393 779 382 Q 780 370 790 363 Z"/>
<defs>
  <clipPath id="z24802c1"><use href="#z24802d1"/></clipPath>
  <clipPath id="z24802c2"><use href="#z24802d2"/></clipPath>
  <clipPath id="z24802c3"><use href="#z24802d3"/></clipPath>
  <clipPath id="z24802c4"><use href="#z24802d4"/></clipPath>
  <clipPath id="z24802c5"><use href="#z24802d5"/></clipPath>
  <clipPath id="z24802c6"><use href="#z24802d6"/></clipPath>
  <clipPath id="z24802c7"><use href="#z24802d7"/></clipPath>
  <clipPath id="z24802c8"><use href="#z24802d8"/></clipPath>
  <clipPath id="z24802c9"><use href="#z24802d9"/></clipPath>
  <clipPath id="z24802c10"><use href="#z24802d10"/></clipPath>
  <clipPath id="z24802c11"><use href="#z24802d11"/></clipPath>
  <clipPath id="z24802c12"><use href="#z24802d12"/></clipPath>
</defs>
<path style="--d:1s;" pathLength="3333" clip-path="url(#z24802c1)" d="M 272 652 L 257 559 L 219 456"/>
<path style="--d:2s;" pathLength="3333" clip-path="url(#z24802c2)" d="M 362 622 L 374 608 L 401 542 L 443 503 L 521 473 L 610 465 L 644 469 L 689 491 L 681 519 L 621 634"/>
<path style="--d:3s;" pathLength="3333" clip-path="url(#z24802c3)" d="M 412 774 L 495 702 L 515 658"/>
<path style="--d:4s;" pathLength="3333" clip-path="url(#z24802c4)" d="M 644 756 L 762 700 L 792 675 L 809 647"/>
<path style="--d:5s;" pathLength="3333" clip-path="url(#z24802c5)" d="M 122 283 L 116 208 L 89 105"/>
<path style="--d:6s;" pathLength="3333" clip-path="url(#z24802c6)" d="M 191 208 L 211 144 L 243 102 L 298 71 L 387 53 L 442 68 L 435 117 L 412 199"/>
<path style="--d:7s;" pathLength="3333" clip-path="url(#z24802c7)" d="M 250 310 L 307 257 L 321 240 L 329 217"/>
<path style="--d:8s;" pathLength="3333" clip-path="url(#z24802c8)" d="M 376 351 L 440 319 L 472 288"/>
<path style="--d:9s;" pathLength="3333" clip-path="url(#z24802c9)" d="M 550 256 L 545 187 L 521 105"/>
<path style="--d:10s;" pathLength="3333" clip-path="url(#z24802c10)" d="M 611 198 L 644 121 L 680 85 L 750 54 L 851 43 L 899 63 L 879 120 L 833 205"/>
<path style="--d:11s;" pathLength="3333" clip-path="url(#z24802c11)" d="M 629 350 L 707 302 L 735 264"/>
<path style="--d:12s;" pathLength="3333" clip-path="url(#z24802c12)" d="M 789 379 L 902 313 L 926 289 L 940 263"/>
</svg>