<svg id="z26842" class="acjk" viewBox="0 0 1024 1024" xmlns="http://www.w3.org/2000/svg">
<style>
<![CDATA[
@keyframes zk {
	to {
		stroke-dashoffset:0;
	}
}
svg.acjk path[clip-path] {
	--t:0.8s;
	animation:zk var(--t) linear forwards var(--d);
	stroke-dasharray:3337;
	stroke-dashoffset:3339;
	stroke-width:128;
	stroke-linecap:round;
	stroke-linejoin:round;
	fill:none;
	stroke:#000;
}
svg.acjk path[id] {fill:#ccc;}
]]>
</style>
  <path id="z26842d1" d="M 302 517 Q 371 541 372 541 Q 381 548 376 557 Q 369 567 340 573 Q 319 577 303 571 L 265 557 Q 175 529 103 517 Q 69 510 94 494 Q 134 476 200 492 Q 221 498 246 503 L 302 517 Z"/>
  <path id="z26842d2" d="M 299 424 Q 299 467 302 517 L 303 571 Q 318 740 327 764 Q 336 779 333 791 Q 327 801 275 834 Q 253 850 234 836 Q 228 832 235 816 Q 266 767 266 718 Q 266 646 266 564 Q 265 561 265 557 L 258 407 Q 251 236 248 215 Q 239 166 226 117 Q 214 83 238 21 Q 244 5 251 1 Q 257 -5 264 3 Q 291 19 291 79 Q 290 118 298 393 L 299 424 Z"/>
  <path id="z26842d3" d="M 246 503 Q 203 370 57 161 Q 53 151 64 150 Q 86 150 186 282 Q 225 334 258 407 C 317 535 256 531 246 503 Z"/>
  <path id="z26842d4" d="M 298 393 Q 323 372 351 347 Q 360 338 371 339 Q 378 339 382 349 Q 385 359 379 379 Q 373 403 299 424 C 270 432 275 412 298 393 Z"/>
  <path id="z26842d5" d="M 440 350 Q 449 404 454 455 L 456 486 Q 457 511 458 534 Q 458 603 462 623 C 464 641 464 641 450 649 Q 440 656 423 662 Q 408 669 399 665 Q 390 658 396 649 Q 408 637 416 587 Q 416 394 393 303 Q 371 222 311 109 Q 308 103 307 99 Q 306 90 313 93 Q 334 99 388 193 Q 401 221 414 253 Q 424 284 433 318 L 440 350 Z"/>
  <path id="z26842d6" d="M 462 623 Q 477 626 519 642 Q 535 648 540 639 Q 562 575 550 248 Q 546 184 540 176 Q 534 172 473 187 Q 457 193 457 184 Q 505 141 532 110 Q 544 94 557 89 Q 564 86 571 94 Q 604 136 604 202 Q 580 586 604 629 Q 614 645 604 654 Q 585 670 554 682 Q 536 689 493 662 Q 477 658 450 649 C 421 640 433 615 462 623 Z"/>
  <path id="z26842d7" d="M 454 455 Q 493 465 523 471 Q 542 475 534 486 Q 524 496 502 498 Q 483 498 456 486 C 428 474 425 448 454 455 Z"/>
  <path id="z26842d8" d="M 433 318 Q 436 318 441 318 Q 490 327 525 332 Q 547 338 538 349 Q 526 362 502 364 Q 481 364 440 350 C 412 340 403 318 433 318 Z"/>
  <path id="z26842d9" d="M 727 370 Q 733 403 736 477 L 737 510 Q 737 630 739 642 C 740 663 740 663 724 672 Q 685 696 666 688 Q 657 681 664 669 Q 694 639 691 430 Q 690 426 690 421 Q 686 354 673 297 Q 649 207 591 83 Q 587 77 586 72 Q 585 62 594 65 Q 621 75 672 177 Q 685 207 698 242 Q 713 288 722 340 L 727 370 Z"/>
  <path id="z26842d10" d="M 739 642 Q 745 645 752 647 Q 783 657 816 667 Q 834 674 840 665 Q 862 605 856 220 Q 853 120 844 107 Q 840 101 821 105 Q 796 109 771 115 Q 752 121 753 111 Q 807 68 838 34 Q 851 16 866 11 Q 875 8 882 17 Q 919 65 918 116 Q 902 365 901 602 Q 901 636 912 654 Q 922 673 911 682 Q 890 700 856 713 Q 838 719 785 690 Q 745 678 724 672 C 695 664 711 632 739 642 Z"/>
  <path id="z26842d11" d="M 736 477 Q 779 486 813 490 Q 834 494 825 505 Q 815 518 793 520 Q 771 521 737 510 C 708 501 707 471 736 477 Z"/>
  <path id="z26842d12" d="M 722 340 Q 723 340 726 340 Q 778 346 815 349 Q 837 353 829 365 Q 819 378 795 382 Q 761 386 727 370 C 700 358 692 340 722 340 Z"/>
<defs>
  <clipPath id="z26842c1"><use href="#z26842d1"/></clipPath>
  <clipPath id="z26842c2"><use href="#z26842d2"/></clipPath>
  <clipPath id="z26842c3"><use href="#z26842d3"/></clipPath>
  <clipPath id="z26842c4"><use href="#z26842d4"/></clipPath>
  <clipPath id="z26842c5"><use href="#z26842d5"/></clipPath>
  <clipPath id="z26842c6"><use href="#z26842d6"/></clipPath>
  <clipPath id="z26842c7"><use href="#z26842d7"/></clipPath>
  <clipPath id="z26842c8"><use href="#z26842d8"/></clipPath>
  <clipPath id="z26842c9"><use href="#z26842d9"/></clipPath>
  <clipPath id="z26842c10"><use href="#z26842d10"/></clipPath>
  <clipPath id="z26842c11"><use href="#z26842d11"/></clipPath>
  <clipPath id="z26842c12"><use href="#z26842d12"/></clipPath>
</defs>
<path style="--d:1s;" pathLength="3333" clip-path="url(#z26842c1)" d="M 96 506 L 170 508 L 322 550 L 368 550"/>
<path style="--d:2s;" pathLength="3333" clip-path="url(#z26842c2)" d="M 246 827 L 271 807 L 293 778 L 273 240 L 256 97 L 256 12"/>
<path style="--d:3s;" pathLength="3333" clip-path="url(#z26842c3)" d="M 260 500 L 252 495 L 236 415 L 201 345 L 149 262 L 64 158"/>
<path style="--d:4s;" pathLength="3333" clip-path="url(#z26842c4)" d="M 309 416 L 314 401 L 357 373 L 368 354"/>
<path style="--d:5s;" pathLength="3333" clip-path="url(#z26842c5)" d="M 404 656 L 431 632 L 437 599 L 434 450 L 424 361 L 408 289 L 370 189 L 313 99"/>
<path style="--d:6s;" pathLength="3333" clip-path="url(#z26842c6)" d="M 460 646 L 473 641 L 487 644 L 535 663 L 553 659 L 573 638 L 577 242 L 570 166 L 555 141 L 466 181"/>
<path style="--d:7s;" pathLength="3333" clip-path="url(#z26842c7)" d="M 460 462 L 471 476 L 485 480 L 526 480"/>
<path style="--d:8s;" pathLength="3333" clip-path="url(#z26842c8)" d="M 437 323 L 456 339 L 497 346 L 528 343"/>
<path style="--d:9s;" pathLength="3333" clip-path="url(#z26842c9)" d="M 673 678 L 702 654 L 710 628 L 715 523 L 706 366 L 690 281 L 673 228 L 642 153 L 594 73"/>
<path style="--d:10s;" pathLength="3333" clip-path="url(#z26842c10)" d="M 731 669 L 754 663 L 835 691 L 855 687 L 877 659 L 885 218 L 881 99 L 864 69 L 835 76 L 762 109"/>
<path style="--d:11s;" pathLength="3333" clip-path="url(#z26842c11)" d="M 744 482 L 754 498 L 764 501 L 797 504 L 817 499"/>
<path style="--d:12s;" pathLength="3333" clip-path="url(#z26842c12)" d="M 724 347 L 734 348 L 741 359 L 764 363 L 798 365 L 819 359"/>
</svg>