<svg id="z28459" class="acjk" viewBox="0 0 1024 1024" xmlns="http://www.w3.org/2000/svg">
<style>
<![CDATA[
@keyframes zk {
	to {
		stroke-dashoffset:0;
	}
}
svg.acjk path[clip-path] {
	--t:0.8s;
	animation:zk var(--t) linear forwards var(--d);
	stroke-dasharray:3337;
	stroke-dashoffset:3339;
	stroke-width:128;
	stroke-linecap:round;
	stroke-linejoin:round;
	fill:none;
	stroke:#000;
}
svg.acjk path[id] {fill:#ccc;}
]]>
</style>
  <path id="z28459d1" d="M 234 717 Q 256 692 281 663 Q 294 647 313 647 Q 326 646 332 661 Q 339 677 332 712 Q 328 731 297 749 Q 225 782 208 775 Q 202 771 203 756 Q 206 743 234 717 Z"/>
  <path id="z28459d2" d="M 125 556 Q 161 496 195 471 Q 211 465 223 477 Q 232 490 232 508 Q 228 551 168 583 Q 132 604 119 600 Q 112 600 112 587 Q 112 574 125 556 Z"/>
  <path id="z28459d3" d="M 143 152 Q 131 148 136 130 Q 163 55 198 40 Q 205 33 216 38 Q 223 39 222 66 Q 222 118 285 367 Q 289 385 288 390 Q 287 400 277 393 Q 264 381 177 196 Q 167 175 143 152 Z"/>
  <path id="z28459d4" d="M 465 785 Q 452 789 433 791 Q 421 794 419 789 Q 413 782 422 768 Q 450 716 471 629 Q 475 604 492 586 Q 510 567 514 581 Q 515 588 517 599 L 515 621 Q 511 649 503 676 L 498 701 Q 491 737 488 753 C 483 780 483 780 465 785 Z"/>
  <path id="z28459d5" d="M 671 618 Q 671 617 672 615 Q 676 600 687 601 Q 700 602 707 615 Q 717 625 738 681 Q 754 727 787 754 Q 805 769 790 783 Q 774 799 729 824 Q 714 833 658 819 Q 639 819 536 798 Q 496 791 465 785 C 436 779 459 744 488 753 Q 489 754 494 755 Q 548 771 670 786 Q 692 789 700 784 Q 707 780 703 755 Q 688 689 671 638 C 667 626 667 626 671 618 Z"/>
  <path id="z28459d6" d="M 503 676 Q 503 677 506 677 Q 585 693 644 702 Q 665 706 657 717 Q 647 730 625 733 Q 603 736 498 701 C 470 692 474 668 503 676 Z"/>
  <path id="z28459d7" d="M 517 599 Q 518 599 522 599 Q 606 611 671 618 C 695 621 695 621 671 638 Q 664 644 653 646 Q 626 650 515 621 C 486 613 487 599 517 599 Z"/>
  <path id="z28459d8" d="M 397 515 Q 385 521 352 523 Q 339 524 337 519 Q 331 512 341 497 Q 369 455 391 384 Q 395 363 411 350 Q 430 331 434 346 Q 435 355 436 366 L 432 392 Q 417 456 412 482 C 406 511 406 511 397 515 Z"/>
  <path id="z28459d9" d="M 740 408 Q 753 383 768 374 Q 778 365 794 384 Q 804 394 831 453 Q 841 483 866 506 Q 879 518 869 532 Q 854 550 814 578 Q 796 588 723 570 Q 690 569 515 536 Q 451 524 397 515 C 367 510 383 474 412 482 Q 448 492 494 502 L 517 506 Q 566 518 627 527 L 668 533 Q 761 551 778 533 Q 784 526 782 518 Q 764 442 750 435 C 736 415 736 415 740 408 Z"/>
  <path id="z28459d10" d="M 544 410 Q 544 465 518 505 L 517 506 C 499 530 489 532 494 502 Q 501 462 510 420 L 519 406 C 535 381 544 380 544 410 Z"/>
  <path id="z28459d11" d="M 636 426 Q 640 433 648 445 Q 658 460 669 478 Q 673 487 682 497 Q 694 507 686 516 Q 680 526 668 533 C 643 549 631 556 627 527 L 612 421 C 608 391 621 400 636 426 Z"/>
  <path id="z28459d12" d="M 436 366 Q 446 365 460 367 Q 620 392 740 408 C 770 412 777 423 750 435 Q 747 438 741 439 Q 725 442 636 426 L 612 421 Q 578 417 544 410 L 519 406 Q 473 402 432 392 C 403 385 406 367 436 366 Z"/>
  <path id="z28459d13" d="M 634 137 Q 671 182 698 247 Q 708 281 729 297 Q 747 310 730 326 Q 711 345 679 360 Q 658 369 636 360 Q 569 326 475 312 Q 447 309 436 302 Q 427 295 446 286 Q 473 273 513 286 Q 571 299 629 313 Q 642 320 645 303 Q 645 237 593 168 L 565 137 Q 495 77 323 38 Q 307 37 315 26 Q 322 19 352 19 Q 523 34 600 101 L 634 137 Z"/>
  <path id="z28459d14" d="M 600 101 Q 655 46 750 -22 Q 781 -41 824 -28 Q 879 -12 921 1 Q 934 5 946 12 Q 953 19 940 27 Q 924 34 798 61 Q 738 73 634 137 L 593 168 Q 556 196 517 232 Q 495 251 463 253 Q 451 254 444 246 Q 440 239 450 233 Q 457 229 465 225 Q 490 216 565 137 L 600 101 Z"/>
<defs>
  <clipPath id="z28459c1"><use href="#z28459d1"/></clipPath>
  <clipPath id="z28459c2"><use href="#z28459d2"/></clipPath>
  <clipPath id="z28459c3"><use href="#z28459d3"/></clipPath>
  <clipPath id="z28459c4"><use href="#z28459d4"/></clipPath>
  <clipPath id="z28459c5"><use href="#z28459d5"/></clipPath>
  <clipPath id="z28459c6"><use href="#z28459d6"/></clipPath>
  <clipPath id="z28459c7"><use href="#z28459d7"/></clipPath>
  <clipPath id="z28459c8"><use href="#z28459d8"/></clipPath>
  <clipPath id="z28459c9"><use href="#z28459d9"/></clipPath>
  <clipPath id="z28459c10"><use href="#z28459d10"/></clipPath>
  <clipPath id="z28459c11"><use href="#z28459d11"/></clipPath>
  <clipPath id="z28459c12"><use href="#z28459d12"/></clipPath>
  <clipPath id="z28459c13"><use href="#z28459d13"/></clipPath>
  <clipPath id="z28459c14"><use href="#z28459d14"/></clipPath>
</defs>
<path style="--d:1s;" pathLength="3333" clip-path="url(#z28459c1)" d="M 213 767 L 292 708 L 314 665"/>
<path style="--d:2s;" pathLength="3333" clip-path="url(#z28459c2)" d="M 124 589 L 188 526 L 205 493"/>
<path style="--d:3s;" pathLength="3333" clip-path="url(#z28459c3)" d="M 209 48 L 194 77 L 185 128 L 281 387"/>
<path style="--d:4s;" pathLength="3333" clip-path="url(#z28459c4)" d="M 427 782 L 452 762 L 463 743 L 504 587"/>
<path style="--d:5s;" pathLength="3333" clip-path="url(#z28459c5)" d="M 472 782 L 495 773 L 551 787 L 690 807 L 725 797 L 744 769 L 687 616"/>
<path style="--d:6s;" pathLength="3333" clip-path="url(#z28459c6)" d="M 503 682 L 515 694 L 554 704 L 628 717 L 648 712"/>
<path style="--d:7s;" pathLength="3333" clip-path="url(#z28459c7)" d="M 520 605 L 552 619 L 633 630 L 654 631 L 664 623"/>
<path style="--d:8s;" pathLength="3333" clip-path="url(#z28459c8)" d="M 347 512 L 380 487 L 423 351"/>
<path style="--d:9s;" pathLength="3333" clip-path="url(#z28459c9)" d="M 405 512 L 427 502 L 553 531 L 689 552 L 759 560 L 790 556 L 804 549 L 823 520 L 775 411 L 777 390"/>
<path style="--d:10s;" pathLength="3333" clip-path="url(#z28459c10)" d="M 501 496 L 511 491 L 527 424 L 536 417"/>
<path style="--d:11s;" pathLength="3333" clip-path="url(#z28459c11)" d="M 677 508 L 650 501 L 628 436 L 617 428"/>
<path style="--d:12s;" pathLength="3333" clip-path="url(#z28459c12)" d="M 440 387 L 449 381 L 535 392 L 718 421 L 742 430"/>
<path style="--d:13s;" pathLength="3333" clip-path="url(#z28459c13)" d="M 444 296 L 488 297 L 650 338 L 664 333 L 685 310 L 667 249 L 635 181 L 571 109 L 530 84 L 462 58 L 361 32 L 322 30"/>
<path style="--d:14s;" pathLength="3333" clip-path="url(#z28459c14)" d="M 453 242 L 493 228 L 622 114 L 711 52 L 770 20 L 788 14 L 939 18"/>
</svg>