<svg id="z28222" class="acjk" viewBox="0 0 1024 1024" xmlns="http://www.w3.org/2000/svg">
<style>
<![CDATA[
@keyframes zk {
	to {
		stroke-dashoffset:0;
	}
}
svg.acjk path[clip-path] {
	--t:0.8s;
	animation:zk var(--t) linear forwards var(--d);
	stroke-dasharray:3337;
	stroke-dashoffset:3339;
	stroke-width:128;
	stroke-linecap:round;
	stroke-linejoin:round;
	fill:none;
	stroke:#000;
}
svg.acjk path[id] {fill:#ccc;}
]]>
</style>
  <path id="z28222d1" d="M 204 746 Q 228 721 253 691 Q 266 676 283 676 Q 293 675 301 689 Q 307 704 300 736 Q 293 767 203 796 Q 187 802 180 799 Q 174 795 175 782 Q 178 770 204 746 Z"/>
  <path id="z28222d2" d="M 124 520 Q 158 477 194 461 Q 210 460 219 473 Q 225 486 222 503 Q 215 527 196 540 Q 136 573 109 560 Q 103 559 106 546 Q 107 534 124 520 Z"/>
  <path id="z28222d3" d="M 124 214 Q 112 210 116 194 Q 134 121 167 106 Q 174 99 184 103 Q 191 104 191 129 Q 194 166 213 224 Q 274 425 275 426 Q 274 436 265 429 Q 256 425 159 253 Q 149 234 124 214 Z"/>
  <path id="z28222d4" d="M 406 758 Q 391 783 379 792 Q 376 796 370 792 Q 366 789 364 778 Q 367 751 339 688 Q 329 672 330 655 Q 331 636 341 622 Q 348 610 354 618 Q 366 621 382 665 Q 398 708 406 722 Q 409 728 411 733 C 415 743 415 743 406 758 Z"/>
  <path id="z28222d5" d="M 552 750 Q 555 754 732 780 Q 769 784 782 783 Q 792 776 788 770 Q 767 727 745 681 L 747 680 Q 756 676 773 686 Q 830 720 876 729 Q 913 736 913 746 Q 912 756 846 808 Q 824 827 740 812 Q 623 796 497 772 Q 454 763 411 759 Q 408 759 406 758 C 376 754 383 744 411 733 Q 433 720 458 726 Q 488 736 520 744 L 552 750 Z"/>
  <path id="z28222d6" d="M 602 622 Q 633 631 668 638 Q 699 645 704 650 Q 711 657 707 665 Q 700 675 673 682 Q 655 685 609 670 L 548 651 Q 505 642 455 634 Q 422 627 446 613 Q 480 597 550 609 L 602 622 Z"/>
  <path id="z28222d7" d="M 413 508 Q 412 509 412 510 Q 400 516 365 519 Q 353 522 351 516 Q 345 510 354 496 Q 387 438 409 341 Q 413 313 432 294 Q 450 275 454 289 Q 455 293 456 300 L 454 331 Q 453 341 450 353 Q 429 437 422 472 L 413 508 Z"/>
  <path id="z28222d8" d="M 672 332 Q 688 302 705 294 Q 714 287 729 305 Q 744 327 778 450 Q 787 480 809 504 Q 822 514 811 529 Q 796 545 756 571 Q 738 580 661 559 Q 633 556 599 546 L 549 537 Q 527 533 506 528 Q 454 516 413 508 C 384 502 393 463 422 472 Q 422 473 424 473 Q 475 489 549 504 L 599 515 Q 704 536 724 523 Q 736 513 732 495 Q 702 362 682 350 C 670 335 670 335 672 332 Z"/>
  <path id="z28222d9" d="M 598 424 Q 626 430 652 433 Q 674 437 665 449 Q 655 462 631 466 Q 618 467 599 463 L 548 449 Q 512 439 482 428 Q 466 424 486 411 Q 492 408 547 415 L 598 424 Z"/>
  <path id="z28222d10" d="M 597 323 Q 631 329 672 332 C 698 334 698 334 682 350 Q 676 357 662 366 Q 638 378 597 360 L 545 348 Q 496 338 454 331 C 424 326 428 288 456 300 Q 462 306 544 316 L 597 323 Z"/>
  <path id="z28222d11" d="M 599 205 Q 708 218 865 218 Q 935 215 943 227 Q 949 239 932 253 Q 878 293 839 285 Q 749 266 598 242 L 542 234 Q 413 218 265 199 Q 243 198 259 179 Q 292 149 331 158 Q 430 186 542 198 L 599 205 Z"/>
  <path id="z28222d12" d="M 542 198 Q 542 -51 557 -73 Q 563 -80 571 -78 Q 589 -66 593 -6 Q 608 144 599 205 L 598 242 Q 597 276 597 323 L 597 360 Q 597 390 598 424 L 599 463 Q 599 488 599 515 L 599 546 Q 600 567 601 589 Q 601 608 602 622 L 609 670 Q 610 683 614 696 Q 618 715 603 724 Q 569 746 552 750 C 524 762 517 765 520 744 Q 513 737 521 726 Q 545 678 548 651 L 550 609 Q 550 575 549 537 L 549 504 Q 548 479 548 449 L 547 415 Q 546 384 545 348 L 544 316 Q 543 277 542 234 L 542 198 Z"/>
<defs>
  <clipPath id="z28222c1"><use href="#z28222d1"/></clipPath>
  <clipPath id="z28222c2"><use href="#z28222d2"/></clipPath>
  <clipPath id="z28222c3"><use href="#z28222d3"/></clipPath>
  <clipPath id="z28222c4"><use href="#z28222d4"/></clipPath>
  <clipPath id="z28222c5"><use href="#z28222d5"/></clipPath>
  <clipPath id="z28222c6"><use href="#z28222d6"/></clipPath>
  <clipPath id="z28222c7"><use href="#z28222d7"/></clipPath>
  <clipPath id="z28222c8"><use href="#z28222d8"/></clipPath>
  <clipPath id="z28222c9"><use href="#z28222d9"/></clipPath>
  <clipPath id="z28222c10"><use href="#z28222d10"/></clipPath>
  <clipPath id="z28222c11"><use href="#z28222d11"/></clipPath>
  <clipPath id="z28222c12"><use href="#z28222d12"/></clipPath>
</defs>
<path style="--d:1s;" pathLength="3333" clip-path="url(#z28222c1)" d="M 185 791 L 259 736 L 282 696"/>
<path style="--d:2s;" pathLength="3333" clip-path="url(#z28222c2)" d="M 117 551 L 172 517 L 191 499 L 198 483"/>
<path style="--d:3s;" pathLength="3333" clip-path="url(#z28222c3)" d="M 178 113 L 168 132 L 160 190 L 270 427"/>
<path style="--d:4s;" pathLength="3333" clip-path="url(#z28222c4)" d="M 375 782 L 384 736 L 358 672 L 351 630"/>
<path style="--d:5s;" pathLength="3333" clip-path="url(#z28222c5)" d="M 410 752 L 425 743 L 458 745 L 600 776 L 774 802 L 793 800 L 823 780 L 832 763 L 762 690 L 749 687"/>
<path style="--d:6s;" pathLength="3333" clip-path="url(#z28222c6)" d="M 448 625 L 520 624 L 639 656 L 696 659"/>
<path style="--d:7s;" pathLength="3333" clip-path="url(#z28222c7)" d="M 360 509 L 389 489 L 396 472 L 444 295"/>
<path style="--d:8s;" pathLength="3333" clip-path="url(#z28222c8)" d="M 421 504 L 434 494 L 677 547 L 718 549 L 748 542 L 770 515 L 743 423 L 715 343 L 708 332 L 685 331"/>
<path style="--d:9s;" pathLength="3333" clip-path="url(#z28222c9)" d="M 483 419 L 608 446 L 656 443"/>
<path style="--d:10s;" pathLength="3333" clip-path="url(#z28222c10)" d="M 462 311 L 478 322 L 530 327 L 625 349 L 673 349"/>
<path style="--d:11s;" pathLength="3333" clip-path="url(#z28222c11)" d="M 262 189 L 320 181 L 478 209 L 849 252 L 934 233"/>
<path style="--d:12s;" pathLength="3333" clip-path="url(#z28222c12)" d="M 527 737 L 556 719 L 575 696 L 577 669 L 567 -67"/>
</svg>