<svg id="z28550" class="acjk" viewBox="0 0 1024 1024" xmlns="http://www.w3.org/2000/svg">
<style>
<![CDATA[
@keyframes zk {
	to {
		stroke-dashoffset:0;
	}
}
svg.acjk path[clip-path] {
	--t:0.8s;
	animation:zk var(--t) linear forwards var(--d);
	stroke-dasharray:3337;
	stroke-dashoffset:3339;
	stroke-width:128;
	stroke-linecap:round;
	stroke-linejoin:round;
	fill:none;
	stroke:#000;
}
svg.acjk path[id] {fill:#ccc;}
]]>
</style>
  <path id="z28550d1" d="M 226 697 Q 245 676 265 651 Q 278 635 297 635 Q 310 634 316 649 Q 323 665 316 700 Q 312 718 284 732 Q 215 762 200 755 Q 194 751 195 736 Q 198 723 226 697 Z"/>
  <path id="z28550d2" d="M 96 504 Q 141 455 175 441 Q 190 438 199 453 Q 205 466 202 483 Q 190 520 109 544 L 108 544 Q 90 548 81 544 Q 75 543 78 530 Q 79 518 96 504 Z"/>
  <path id="z28550d3" d="M 116 150 Q 104 146 108 129 Q 129 57 163 43 Q 170 37 180 41 Q 187 42 186 67 Q 189 112 260 365 Q 264 381 263 387 Q 262 396 254 389 Q 247 385 150 194 Q 140 172 116 150 Z"/>
  <path id="z28550d4" d="M 614 700 Q 720 731 724 734 Q 731 741 727 749 Q 720 759 693 765 Q 668 769 618 748 L 560 728 Q 518 718 470 711 Q 437 704 462 689 Q 504 668 555 686 Q 556 687 562 687 L 614 700 Z"/>
  <path id="z28550d5" d="M 607 633 Q 610 667 614 700 L 618 748 Q 624 781 632 813 Q 636 823 617 838 Q 583 856 561 859 Q 545 863 538 854 Q 531 847 539 833 Q 554 814 555 799 Q 558 765 560 728 L 562 687 Q 563 656 564 620 C 565 590 604 603 607 633 Z"/>
  <path id="z28550d6" d="M 564 620 Q 491 601 427 582 Q 409 578 432 563 Q 447 553 478 560 Q 626 596 735 618 Q 759 622 749 636 Q 737 651 711 655 Q 674 658 607 633 L 564 620 Z"/>
  <path id="z28550d7" d="M 433 427 Q 454 434 476 440 Q 495 447 498 449 Q 504 456 499 463 Q 492 472 469 475 Q 451 476 437 471 L 390 452 Q 383 451 378 448 Q 353 441 323 435 Q 295 428 317 416 Q 350 403 394 415 L 433 427 Z"/>
  <path id="z28550d8" d="M 428 360 Q 429 394 433 427 L 437 471 Q 440 480 443 491 Q 444 498 431 508 Q 407 521 390 523 Q 380 524 374 519 Q 370 513 375 504 Q 385 491 390 452 L 394 415 Q 395 384 397 349 C 399 319 427 330 428 360 Z"/>
  <path id="z28550d9" d="M 397 349 Q 369 340 343 329 Q 325 323 294 322 Q 284 322 282 311 Q 281 301 292 295 Q 322 279 335 274 Q 350 270 365 281 Q 387 300 495 367 Q 510 374 514 380 Q 518 387 510 389 Q 495 389 428 360 L 397 349 Z"/>
  <path id="z28550d10" d="M 704 467 Q 734 476 766 484 Q 788 490 792 493 Q 799 500 795 507 Q 788 516 765 521 Q 726 525 711 510 L 654 492 Q 626 488 597 482 Q 569 476 590 464 Q 617 449 657 455 L 704 467 Z"/>
  <path id="z28550d11" d="M 696 400 Q 699 436 704 467 L 711 510 Q 711 513 719 535 Q 722 545 705 557 Q 677 572 658 576 Q 645 579 638 572 Q 631 566 638 554 Q 650 539 654 492 L 657 455 Q 658 425 659 392 C 660 362 693 370 696 400 Z"/>
  <path id="z28550d12" d="M 659 392 Q 653 392 543 377 Q 519 373 538 359 Q 568 338 590 343 Q 710 368 833 384 Q 842 383 849 394 Q 850 404 831 412 Q 806 430 716 405 Q 707 404 700 401 Q 697 401 696 400 L 659 392 Z"/>
  <path id="z28550d13" d="M 611 258 Q 623 264 717 277 Q 727 276 734 288 Q 735 298 714 307 Q 687 328 587 294 Q 578 293 569 289 Q 514 274 464 266 Q 430 262 391 254 Q 366 250 386 235 Q 416 214 441 219 L 474 227 Q 517 239 571 250 L 611 258 Z"/>
  <path id="z28550d14" d="M 441 219 Q 445 164 342 64 Q 335 60 329 53 Q 296 25 218 -30 Q 211 -33 219 -37 Q 318 -37 493 157 Q 502 167 507 170 Q 514 174 514 184 Q 514 193 504 205 Q 492 217 474 227 C 448 243 442 246 441 219 Z"/>
  <path id="z28550d15" d="M 571 250 Q 586 235 582 173 Q 573 22 603 -16 Q 682 -95 867 -60 Q 868 -59 873 -58 Q 912 -48 950 -19 Q 971 -3 956 25 Q 943 50 921 129 Q 921 145 913 150 Q 906 153 902 135 Q 877 50 859 23 Q 846 10 811 0 Q 726 -19 663 9 Q 638 22 630 38 Q 611 77 635 219 Q 641 244 611 258 C 586 275 559 277 571 250 Z"/>
<defs>
  <clipPath id="z28550c1"><use href="#z28550d1"/></clipPath>
  <clipPath id="z28550c2"><use href="#z28550d2"/></clipPath>
  <clipPath id="z28550c3"><use href="#z28550d3"/></clipPath>
  <clipPath id="z28550c4"><use href="#z28550d4"/></clipPath>
  <clipPath id="z28550c5"><use href="#z28550d5"/></clipPath>
  <clipPath id="z28550c6"><use href="#z28550d6"/></clipPath>
  <clipPath id="z28550c7"><use href="#z28550d7"/></clipPath>
  <clipPath id="z28550c8"><use href="#z28550d8"/></clipPath>
  <clipPath id="z28550c9"><use href="#z28550d9"/></clipPath>
  <clipPath id="z28550c10"><use href="#z28550d10"/></clipPath>
  <clipPath id="z28550c11"><use href="#z28550d11"/></clipPath>
  <clipPath id="z28550c12"><use href="#z28550d12"/></clipPath>
  <clipPath id="z28550c13"><use href="#z28550d13"/></clipPath>
  <clipPath id="z28550c14"><use href="#z28550d14"/></clipPath>
  <clipPath id="z28550c15"><use href="#z28550d15"/></clipPath>
</defs>
<path style="--d:1s;" pathLength="3333" clip-path="url(#z28550c1)" d="M 205 747 L 274 697 L 298 653"/>
<path style="--d:2s;" pathLength="3333" clip-path="url(#z28550c2)" d="M 88 535 L 164 484 L 180 462"/>
<path style="--d:3s;" pathLength="3333" clip-path="url(#z28550c3)" d="M 174 51 L 160 77 L 153 127 L 258 384"/>
<path style="--d:4s;" pathLength="3333" clip-path="url(#z28550c4)" d="M 463 701 L 500 696 L 541 702 L 652 737 L 695 745 L 718 743"/>
<path style="--d:5s;" pathLength="3333" clip-path="url(#z28550c5)" d="M 550 844 L 572 831 L 592 809 L 586 650 L 570 627"/>
<path style="--d:6s;" pathLength="3333" clip-path="url(#z28550c6)" d="M 429 572 L 466 575 L 684 631 L 740 629"/>
<path style="--d:7s;" pathLength="3333" clip-path="url(#z28550c7)" d="M 318 426 L 367 426 L 447 453 L 490 457"/>
<path style="--d:8s;" pathLength="3333" clip-path="url(#z28550c8)" d="M 382 512 L 412 488 L 413 381 L 400 356"/>
<path style="--d:9s;" pathLength="3333" clip-path="url(#z28550c9)" d="M 293 311 L 308 304 L 345 301 L 508 383"/>
<path style="--d:10s;" pathLength="3333" clip-path="url(#z28550c10)" d="M 591 474 L 647 472 L 742 500 L 785 502"/>
<path style="--d:11s;" pathLength="3333" clip-path="url(#z28550c11)" d="M 648 563 L 682 532 L 679 423 L 664 400"/>
<path style="--d:12s;" pathLength="3333" clip-path="url(#z28550c12)" d="M 539 368 L 594 363 L 769 397 L 839 396"/>
<path style="--d:13s;" pathLength="3333" clip-path="url(#z28550c13)" d="M 387 245 L 442 241 L 663 292 L 724 289"/>
<path style="--d:14s;" pathLength="3333" clip-path="url(#z28550c14)" d="M 448 214 L 469 195 L 471 185 L 449 148 L 407 98 L 315 17 L 242 -26 L 228 -26 L 224 -33"/>
<path style="--d:15s;" pathLength="3333" clip-path="url(#z28550c15)" d="M 578 249 L 608 227 L 600 77 L 608 33 L 627 0 L 676 -27 L 714 -37 L 776 -39 L 850 -26 L 888 -8 L 908 14 L 912 143"/>
</svg>