<svg id="z20811" class="acjk" viewBox="0 0 1024 1024" xmlns="http://www.w3.org/2000/svg">
<style>
<![CDATA[
@keyframes zk {
	to {
		stroke-dashoffset:0;
	}
}
svg.acjk path[clip-path] {
	--t:0.8s;
	animation:zk var(--t) linear forwards var(--d);
	stroke-dasharray:3337;
	stroke-dashoffset:3339;
	stroke-width:128;
	stroke-linecap:round;
	stroke-linejoin:round;
	fill:none;
	stroke:#000;
}
svg.acjk path[id] {fill:#ccc;}
]]>
</style>
  <path id="z20811d1" d="M 494 631 Q 534 640 711 663 Q 723 662 732 675 Q 733 688 709 699 Q 669 723 585 697 Q 510 682 503 677 L 443 665 Q 319 650 269 643 Q 238 639 262 620 Q 296 590 329 599 Q 380 611 439 620 L 494 631 Z"/>
  <path id="z20811d2" d="M 470 514 Q 482 575 494 631 L 503 677 Q 509 732 537 796 Q 543 806 524 825 Q 490 849 465 856 Q 449 862 440 854 Q 430 847 437 830 Q 453 800 452 781 Q 449 726 443 665 L 439 620 Q 432 565 424 505 C 420 475 464 485 470 514 Z"/>
  <path id="z20811d3" d="M 311 492 Q 298 496 270 500 Q 257 504 253 497 Q 246 490 256 473 Q 284 422 305 338 Q 309 313 326 296 Q 347 272 351 290 Q 352 294 353 299 L 353 332 Q 352 338 333 457 C 328 487 328 487 311 492 Z"/>
  <path id="z20811d4" d="M 622 369 Q 655 438 684 454 Q 705 473 689 495 Q 671 511 615 542 Q 596 552 571 544 Q 519 525 470 514 L 424 505 Q 367 498 311 492 C 281 489 304 451 333 457 Q 360 463 546 492 Q 571 496 580 486 Q 589 477 585 460 Q 572 408 558 367 C 549 339 609 342 622 369 Z"/>
  <path id="z20811d5" d="M 532 318 Q 581 325 642 328 Q 654 329 655 338 Q 656 347 624 369 Q 623 370 622 369 L 558 367 Q 443 343 353 332 C 323 328 324 305 353 299 Q 354 299 357 298 Q 369 295 382 298 Q 422 307 484 313 L 532 318 Z"/>
  <path id="z20811d6" d="M 350 264 Q 344 143 151 23 Q 141 16 148 12 Q 155 8 168 11 Q 214 20 257 42 Q 329 75 399 179 Q 411 195 425 210 Q 435 219 431 231 Q 427 243 397 266 Q 376 282 366 282 Q 351 281 350 264 Z"/>
  <path id="z20811d7" d="M 945 43 Q 926 94 912 181 Q 909 197 902 202 Q 893 206 890 186 Q 877 78 862 58 Q 829 22 695 21 Q 622 22 590 35 Q 562 50 556 68 Q 537 131 562 223 Q 572 281 573 284 Q 563 300 532 318 C 507 335 472 341 484 313 Q 484 312 486 308 Q 507 268 502 211 Q 498 90 506 65 Q 516 26 543 5 Q 603 -38 800 -31 Q 891 -27 927 -8 Q 958 10 945 43 Z"/>
<defs>
  <clipPath id="z20811c1"><use href="#z20811d1"/></clipPath>
  <clipPath id="z20811c2"><use href="#z20811d2"/></clipPath>
  <clipPath id="z20811c3"><use href="#z20811d3"/></clipPath>
  <clipPath id="z20811c4"><use href="#z20811d4"/></clipPath>
  <clipPath id="z20811c5"><use href="#z20811d5"/></clipPath>
  <clipPath id="z20811c6"><use href="#z20811d6"/></clipPath>
  <clipPath id="z20811c7"><use href="#z20811d7"/></clipPath>
</defs>
<path style="--d:1s;" pathLength="3333" clip-path="url(#z20811c1)" d="M 264 632 L 319 623 L 637 682 L 686 684 L 721 677"/>
<path style="--d:2s;" pathLength="3333" clip-path="url(#z20811c2)" d="M 452 840 L 492 797 L 451 533 L 431 512"/>
<path style="--d:3s;" pathLength="3333" clip-path="url(#z20811c3)" d="M 263 489 L 289 470 L 307 438 L 339 295"/>
<path style="--d:4s;" pathLength="3333" clip-path="url(#z20811c4)" d="M 318 489 L 342 477 L 441 490 L 556 516 L 598 514 L 634 475 L 602 400 L 564 372"/>
<path style="--d:5s;" pathLength="3333" clip-path="url(#z20811c5)" d="M 357 305 L 377 317 L 565 345 L 622 348 L 646 339"/>
<path style="--d:6s;" pathLength="3333" clip-path="url(#z20811c6)" d="M 366 266 L 384 224 L 358 175 L 319 123 L 240 58 L 154 16"/>
<path style="--d:7s;" pathLength="3333" clip-path="url(#z20811c7)" d="M 490 313 L 527 285 L 535 269 L 524 157 L 531 65 L 555 28 L 602 6 L 656 -3 L 766 -5 L 843 6 L 898 29 L 903 81 L 900 194"/>
</svg>