<svg id="z26161" class="acjk" viewBox="0 0 1024 1024" xmlns="http://www.w3.org/2000/svg">
<style>
<![CDATA[
@keyframes zk {
	to {
		stroke-dashoffset:0;
	}
}
svg.acjk path[clip-path] {
	--t:0.8s;
	animation:zk var(--t) linear forwards var(--d);
	stroke-dasharray:3337;
	stroke-dashoffset:3339;
	stroke-width:128;
	stroke-linecap:round;
	stroke-linejoin:round;
	fill:none;
	stroke:#000;
}
svg.acjk path[id] {fill:#ccc;}
]]>
</style>
  <path id="z26161d1" d="M 330 752 Q 318 756 291 760 Q 278 763 275 758 Q 268 751 278 734 Q 315 662 337 543 Q 341 507 363 484 Q 382 462 387 478 Q 388 487 390 498 L 388 532 Q 387 544 384 556 Q 377 584 372 607 L 367 632 Q 354 692 351 716 C 347 746 346 747 330 752 Z"/>
  <path id="z26161d2" d="M 600 521 Q 600 512 604 502 Q 610 483 625 485 Q 641 486 650 504 Q 666 523 695 618 Q 716 678 758 710 Q 780 728 763 746 Q 744 767 686 799 Q 671 809 602 795 Q 467 774 330 752 C 300 747 321 711 351 716 Q 358 716 364 717 Q 437 739 604 758 Q 634 759 644 754 Q 656 747 649 709 Q 619 573 606 544 L 600 521 Z"/>
  <path id="z26161d3" d="M 372 607 L 550 634 Q 575 638 565 652 Q 553 667 527 671 Q 496 674 367 632 C 338 623 342 603 372 607 Z"/>
  <path id="z26161d4" d="M 390 498 Q 400 497 411 499 Q 471 512 600 521 C 630 523 629 524 606 544 Q 576 574 495 551 Q 437 541 388 532 C 358 527 360 499 390 498 Z"/>
  <path id="z26161d5" d="M 523 390 Q 524 403 522 424 Q 519 437 498 450 Q 447 475 432 471 Q 428 468 427 455 Q 428 445 452 421 Q 464 406 480 382 C 497 357 521 360 523 390 Z"/>
  <path id="z26161d6" d="M 480 382 Q 446 378 294 363 Q 263 360 286 341 Q 322 311 352 317 Q 499 345 702 363 Q 712 362 723 375 Q 724 388 701 400 Q 662 424 591 405 Q 557 398 523 390 L 480 382 Z"/>
  <path id="z26161d7" d="M 350 230 Q 369 170 394 149 Q 407 142 419 150 Q 429 160 433 176 Q 433 224 377 259 Q 376 260 375 261 Q 362 271 352 271 Q 345 272 344 260 Q 341 248 350 230 Z"/>
  <path id="z26161d8" d="M 543 117 Q 564 135 617 212 Q 627 228 646 248 Q 664 260 655 273 Q 646 292 615 317 Q 600 330 580 324 Q 568 320 575 307 Q 584 271 529 153 Q 519 131 516 116 Q 515 116 515 115 C 505 87 521 96 543 117 Z"/>
  <path id="z26161d9" d="M 515 115 Q 425 114 244 83 Q 187 77 139 80 Q 129 81 121 75 Q 112 68 119 57 Q 129 42 185 11 Q 198 4 221 13 Q 380 70 539 79 Q 663 91 902 43 Q 921 39 929 48 Q 936 60 917 77 Q 836 143 796 133 Q 772 127 717 123 Q 626 122 543 117 L 515 115 Z"/>
<defs>
  <clipPath id="z26161c1"><use href="#z26161d1"/></clipPath>
  <clipPath id="z26161c2"><use href="#z26161d2"/></clipPath>
  <clipPath id="z26161c3"><use href="#z26161d3"/></clipPath>
  <clipPath id="z26161c4"><use href="#z26161d4"/></clipPath>
  <clipPath id="z26161c5"><use href="#z26161d5"/></clipPath>
  <clipPath id="z26161c6"><use href="#z26161d6"/></clipPath>
  <clipPath id="z26161c7"><use href="#z26161d7"/></clipPath>
  <clipPath id="z26161c8"><use href="#z26161d8"/></clipPath>
  <clipPath id="z26161c9"><use href="#z26161d9"/></clipPath>
</defs>
<path style="--d:1s;" pathLength="3333" clip-path="url(#z26161c1)" d="M 283 751 L 312 728 L 323 707 L 376 484"/>
<path style="--d:2s;" pathLength="3333" clip-path="url(#z26161c2)" d="M 338 749 L 363 737 L 507 764 L 636 780 L 664 775 L 679 765 L 703 729 L 668 645 L 623 504"/>
<path style="--d:3s;" pathLength="3333" clip-path="url(#z26161c3)" d="M 378 615 L 384 625 L 476 644 L 531 651 L 555 645"/>
<path style="--d:4s;" pathLength="3333" clip-path="url(#z26161c4)" d="M 395 504 L 406 516 L 458 527 L 596 541"/>
<path style="--d:5s;" pathLength="3333" clip-path="url(#z26161c5)" d="M 436 465 L 515 395"/>
<path style="--d:6s;" pathLength="3333" clip-path="url(#z26161c6)" d="M 288 353 L 344 342 L 639 385 L 685 384 L 712 377"/>
<path style="--d:7s;" pathLength="3333" clip-path="url(#z26161c7)" d="M 355 260 L 398 196 L 406 168"/>
<path style="--d:8s;" pathLength="3333" clip-path="url(#z26161c8)" d="M 582 314 L 598 302 L 612 267 L 569 183 L 536 130 L 523 120"/>
<path style="--d:9s;" pathLength="3333" clip-path="url(#z26161c9)" d="M 128 65 L 199 44 L 412 87 L 613 102 L 809 98 L 918 55"/>
</svg>