<svg id="z29327" class="acjk" viewBox="0 0 1024 1024" xmlns="http://www.w3.org/2000/svg">
<style>
<![CDATA[
@keyframes zk {
	to {
		stroke-dashoffset:0;
	}
}
svg.acjk path[clip-path] {
	--t:0.8s;
	animation:zk var(--t) linear forwards var(--d);
	stroke-dasharray:3337;
	stroke-dashoffset:3339;
	stroke-width:128;
	stroke-linecap:round;
	stroke-linejoin:round;
	fill:none;
	stroke:#000;
}
svg.acjk path[id] {fill:#ccc;}
]]>
</style>
  <path id="z29327d1" d="M 202 545 Q 202 546 203 546 Q 219 582 234 611 Q 241 624 227 634 Q 185 658 163 651 Q 153 647 157 635 Q 178 568 118 465 Q 112 464 91 423 Q 87 408 99 415 Q 144 430 191 521 L 202 545 Z"/>
  <path id="z29327d2" d="M 331 535 Q 358 545 390 553 Q 414 560 418 565 Q 425 572 420 581 Q 413 591 383 596 Q 356 599 333 587 L 289 569 Q 214 548 202 545 C 173 537 162 530 191 521 Q 237 505 285 521 Q 286 522 289 522 L 331 535 Z"/>
  <path id="z29327d3" d="M 282 320 Q 276 175 255 105 Q 243 62 269 6 Q 275 -12 283 -15 Q 289 -22 296 -13 Q 303 -9 314 11 Q 324 36 323 66 Q 322 103 327 355 L 327 388 Q 328 455 331 535 L 333 587 Q 334 678 353 738 Q 362 753 359 766 Q 352 776 298 809 Q 276 825 255 811 Q 251 807 256 791 Q 289 743 289 695 Q 289 637 289 569 L 289 522 Q 286 446 283 363 L 282 320 Z"/>
  <path id="z29327d4" d="M 283 363 Q 204 320 133 276 Q 99 257 78 251 Q 65 247 63 238 Q 62 229 76 216 Q 95 201 116 193 Q 126 190 156 214 Q 207 265 282 320 L 327 355 Q 349 373 371 387 Q 390 399 400 412 Q 407 425 396 424 Q 380 423 327 388 L 283 363 Z"/>
  <path id="z29327d5" d="M 597 771 Q 628 752 660 728 Q 676 718 691 720 Q 701 721 705 736 Q 706 752 694 780 Q 685 799 653 808 Q 575 826 564 815 Q 560 811 563 798 Q 567 788 597 771 Z"/>
  <path id="z29327d6" d="M 767 535 Q 788 595 818 615 Q 833 634 819 650 Q 803 663 752 685 Q 734 692 673 665 Q 598 643 542 628 C 513 620 514 591 544 596 Q 568 599 704 634 Q 720 638 728 632 Q 737 623 718 537 C 712 508 757 507 767 535 Z"/>
  <path id="z29327d7" d="M 524 461 Q 531 460 544 462 Q 619 481 782 503 Q 792 504 792 513 Q 792 520 767 535 C 750 546 747 545 718 537 Q 613 507 529 492 C 499 487 494 462 524 461 Z"/>
  <path id="z29327d8" d="M 499 351 Q 500 361 505 369 Q 515 415 524 461 L 529 492 Q 539 588 544 596 C 550 622 550 622 542 628 Q 527 641 505 652 Q 489 662 477 657 Q 467 651 472 639 Q 488 608 483 549 Q 483 423 439 302 Q 403 211 342 120 Q 338 114 336 108 Q 333 99 343 101 Q 379 108 447 223 Q 453 236 460 248 Q 467 266 476 284 L 499 351 Z"/>
  <path id="z29327d9" d="M 476 284 Q 476 179 469 129 Q 460 95 497 65 Q 507 56 510 66 Q 516 69 519 87 Q 523 103 520 161 Q 516 261 520 296 Q 523 306 520 316 C 511 372 476 383 476 284 Z"/>
  <path id="z29327d10" d="M 520 316 Q 533 315 547 320 Q 559 326 578 331 L 607 340 Q 637 352 681 358 L 720 364 Q 754 370 798 374 Q 817 374 826 364 Q 833 357 829 344 Q 830 131 815 101 Q 814 94 803 97 Q 781 101 754 106 Q 729 110 746 92 Q 804 43 826 9 Q 839 -6 853 7 Q 869 25 878 54 Q 888 85 883 252 Q 879 313 897 345 Q 910 364 905 372 Q 898 384 850 412 Q 834 425 819 418 Q 794 408 745 398 Q 615 379 565 366 Q 528 356 500 352 Q 499 352 499 351 C 470 345 490 312 520 316 Z"/>
  <path id="z29327d11" d="M 736 235 Q 760 242 784 245 Q 806 249 797 261 Q 781 282 739 277 L 692 266 Q 658 256 628 246 L 591 235 Q 567 231 546 224 Q 530 220 550 207 Q 562 200 586 204 Q 589 205 592 204 L 628 213 Q 661 220 692 226 L 736 235 Z"/>
  <path id="z29327d12" d="M 578 331 L 579 330 Q 589 290 591 235 L 592 204 Q 592 147 601 131 Q 611 112 618 123 Q 627 141 628 213 L 628 246 Q 629 327 629 329 Q 623 333 607 340 C 580 352 569 357 578 331 Z"/>
  <path id="z29327d13" d="M 696 144 Q 700 126 704 118 Q 708 114 714 115 Q 729 124 736 211 Q 736 218 736 235 L 739 277 Q 740 290 742 307 Q 742 320 746 332 Q 749 345 739 352 Q 729 359 720 364 C 694 379 669 385 681 358 Q 682 352 686 349 Q 692 340 692 266 L 692 226 Q 693 217 693 207 Q 694 161 696 144 Z"/>
<defs>
  <clipPath id="z29327c1"><use href="#z29327d1"/></clipPath>
  <clipPath id="z29327c2"><use href="#z29327d2"/></clipPath>
  <clipPath id="z29327c3"><use href="#z29327d3"/></clipPath>
  <clipPath id="z29327c4"><use href="#z29327d4"/></clipPath>
  <clipPath id="z29327c5"><use href="#z29327d5"/></clipPath>
  <clipPath id="z29327c6"><use href="#z29327d6"/></clipPath>
  <clipPath id="z29327c7"><use href="#z29327d7"/></clipPath>
  <clipPath id="z29327c8"><use href="#z29327d8"/></clipPath>
  <clipPath id="z29327c9"><use href="#z29327d9"/></clipPath>
  <clipPath id="z29327c10"><use href="#z29327d10"/></clipPath>
  <clipPath id="z29327c11"><use href="#z29327d11"/></clipPath>
  <clipPath id="z29327c12"><use href="#z29327d12"/></clipPath>
  <clipPath id="z29327c13"><use href="#z29327d13"/></clipPath>
</defs>
<path style="--d:1s;" pathLength="3333" clip-path="url(#z29327c1)" d="M 167 640 L 196 612 L 189 578 L 142 472 L 101 425"/>
<path style="--d:2s;" pathLength="3333" clip-path="url(#z29327c2)" d="M 200 524 L 212 531 L 271 540 L 357 570 L 410 574"/>
<path style="--d:3s;" pathLength="3333" clip-path="url(#z29327c3)" d="M 266 805 L 318 752 L 306 317 L 287 79 L 288 -2"/>
<path style="--d:4s;" pathLength="3333" clip-path="url(#z29327c4)" d="M 75 236 L 111 230 L 128 234 L 243 318 L 394 417"/>
<path style="--d:5s;" pathLength="3333" clip-path="url(#z29327c5)" d="M 571 809 L 660 769 L 687 737"/>
<path style="--d:6s;" pathLength="3333" clip-path="url(#z29327c6)" d="M 546 601 L 559 615 L 579 621 L 709 656 L 743 657 L 772 630 L 749 561 L 725 549"/>
<path style="--d:7s;" pathLength="3333" clip-path="url(#z29327c7)" d="M 528 468 L 552 481 L 716 515 L 760 518 L 783 512"/>
<path style="--d:8s;" pathLength="3333" clip-path="url(#z29327c8)" d="M 483 646 L 510 617 L 513 601 L 503 472 L 484 374 L 460 297 L 426 222 L 385 156 L 344 109"/>
<path style="--d:9s;" pathLength="3333" clip-path="url(#z29327c9)" d="M 499 343 L 503 304 L 496 254 L 494 113 L 503 77"/>
<path style="--d:10s;" pathLength="3333" clip-path="url(#z29327c10)" d="M 505 346 L 531 337 L 630 365 L 792 392 L 831 393 L 858 371 L 865 361 L 855 306 L 856 172 L 844 76 L 837 64 L 808 70 L 747 101"/>
<path style="--d:11s;" pathLength="3333" clip-path="url(#z29327c11)" d="M 547 215 L 594 220 L 750 259 L 788 255"/>
<path style="--d:12s;" pathLength="3333" clip-path="url(#z29327c12)" d="M 623 328 L 606 313 L 611 129"/>
<path style="--d:13s;" pathLength="3333" clip-path="url(#z29327c13)" d="M 688 356 L 718 332 L 711 122"/>
</svg>