<svg id="z22721" class="acjk" viewBox="0 0 1024 1024" xmlns="http://www.w3.org/2000/svg">
<style>
<![CDATA[
@keyframes zk {
	to {
		stroke-dashoffset:0;
	}
}
svg.acjk path[clip-path] {
	--t:0.8s;
	animation:zk var(--t) linear forwards var(--d);
	stroke-dasharray:3337;
	stroke-dashoffset:3339;
	stroke-width:128;
	stroke-linecap:round;
	stroke-linejoin:round;
	fill:none;
	stroke:#000;
}
svg.acjk path[id] {fill:#ccc;}
]]>
</style>
  <path id="z22721d1" d="M 465 624 Q 489 682 515 701 Q 530 717 516 732 Q 503 744 456 764 Q 441 770 422 763 Q 374 739 279 713 C 250 705 261 677 290 686 Q 329 699 415 720 Q 428 724 435 719 Q 442 712 439 699 Q 432 665 422 637 C 412 609 453 596 465 624 Z"/>
  <path id="z22721d2" d="M 267 579 Q 271 575 278 573 Q 288 570 300 574 Q 354 587 469 599 Q 479 600 480 609 Q 480 615 465 624 L 422 637 Q 415 636 408 634 Q 332 612 271 602 C 241 597 242 596 267 579 Z"/>
  <path id="z22721d3" d="M 243 483 Q 258 529 267 579 L 271 602 Q 272 606 273 611 Q 285 677 290 686 C 295 701 295 701 279 713 Q 267 723 250 732 Q 234 742 223 738 Q 213 732 217 721 Q 232 696 225 642 Q 219 530 183 439 Q 153 367 99 287 Q 95 281 92 276 Q 89 267 99 268 Q 135 277 200 382 Q 201 386 204 389 Q 220 420 233 455 L 243 483 Z"/>
  <path id="z22721d4" d="M 284 473 Q 272 480 243 483 C 220 486 221 483 233 455 Q 255 406 269 328 Q 270 303 286 286 Q 302 267 306 281 Q 310 296 308 321 L 304 354 Q 294 423 291 446 C 288 471 288 471 284 473 Z"/>
  <path id="z22721d5" d="M 453 384 Q 468 436 486 453 Q 507 477 485 490 Q 467 500 442 517 Q 424 529 383 503 Q 332 484 284 473 C 255 466 262 440 291 446 Q 298 447 309 450 Q 349 460 385 469 Q 409 475 414 466 Q 421 460 414 432 Q 408 408 402 381 C 395 352 444 355 453 384 Z"/>
  <path id="z22721d6" d="M 308 321 Q 332 333 470 351 Q 480 352 481 361 Q 481 368 453 384 C 440 392 431 389 402 381 Q 347 365 304 354 C 275 347 280 309 308 321 Z"/>
  <path id="z22721d7" d="M 658 806 Q 679 790 702 769 Q 715 759 728 760 Q 738 761 741 772 Q 745 785 735 811 Q 726 835 651 847 Q 638 850 632 847 Q 628 843 630 832 Q 634 822 658 806 Z"/>
  <path id="z22721d8" d="M 756 702 Q 774 708 794 711 Q 830 720 835 725 Q 842 732 839 739 Q 832 748 809 753 Q 787 757 699 728 Q 623 710 570 702 Q 542 698 562 684 Q 595 668 651 680 Q 685 689 722 695 L 756 702 Z"/>
  <path id="z22721d9" d="M 570 616 Q 589 577 610 565 Q 620 561 628 569 Q 635 578 635 590 Q 632 617 597 636 Q 570 646 566 646 Q 562 646 561 636 Q 561 629 570 616 Z"/>
  <path id="z22721d10" d="M 711 554 Q 723 567 758 625 Q 765 638 779 655 Q 792 665 785 674 Q 778 687 756 702 C 731 719 715 724 722 695 Q 731 668 692 574 Q 685 561 685 549 C 683 521 692 531 711 554 Z"/>
  <path id="z22721d11" d="M 694 521 Q 761 534 889 550 Q 898 549 905 559 Q 906 568 888 577 Q 858 593 789 573 Q 737 564 711 554 L 685 549 Q 681 549 516 527 Q 492 524 510 510 Q 529 497 565 496 Q 604 505 652 513 L 694 521 Z"/>
  <path id="z22721d12" d="M 715 403 Q 770 412 877 411 Q 892 412 895 418 Q 899 428 886 437 Q 844 468 790 452 Q 760 446 718 436 L 665 427 Q 610 420 549 409 Q 533 408 545 394 Q 555 384 569 381 Q 585 377 597 381 Q 628 390 666 396 L 715 403 Z"/>
  <path id="z22721d13" d="M 671 303 Q 675 282 680 275 Q 684 269 690 271 Q 697 274 701 285 Q 708 309 715 403 L 718 436 Q 718 463 725 484 Q 728 499 717 506 Q 704 516 694 521 C 668 536 637 539 652 513 Q 652 512 654 510 Q 655 506 658 504 Q 661 498 665 427 L 666 396 Q 666 354 671 303 Z"/>
  <path id="z22721d14" d="M 546 144 Q 702 171 705 173 Q 714 180 710 188 Q 704 201 676 209 Q 648 216 618 207 Q 584 198 549 190 L 494 179 Q 443 173 387 171 Q 351 167 376 149 Q 409 128 496 136 L 546 144 Z"/>
  <path id="z22721d15" d="M 537 37 Q 541 92 546 144 L 549 190 Q 549 205 558 251 Q 567 281 554 294 Q 551 297 549 298 Q 515 316 493 319 Q 477 323 470 314 Q 463 307 471 293 Q 489 268 494 179 L 496 136 Q 496 87 496 33 C 496 3 535 7 537 37 Z"/>
  <path id="z22721d16" d="M 496 33 Q 358 23 199 12 Q 175 11 192 -9 Q 207 -25 226 -32 Q 250 -39 268 -35 Q 499 14 865 -8 Q 887 -9 893 0 Q 900 13 882 29 Q 827 77 785 68 Q 692 53 537 37 L 496 33 Z"/>
<defs>
  <clipPath id="z22721c1"><use href="#z22721d1"/></clipPath>
  <clipPath id="z22721c2"><use href="#z22721d2"/></clipPath>
  <clipPath id="z22721c3"><use href="#z22721d3"/></clipPath>
  <clipPath id="z22721c4"><use href="#z22721d4"/></clipPath>
  <clipPath id="z22721c5"><use href="#z22721d5"/></clipPath>
  <clipPath id="z22721c6"><use href="#z22721d6"/></clipPath>
  <clipPath id="z22721c7"><use href="#z22721d7"/></clipPath>
  <clipPath id="z22721c8"><use href="#z22721d8"/></clipPath>
  <clipPath id="z22721c9"><use href="#z22721d9"/></clipPath>
  <clipPath id="z22721c10"><use href="#z22721d10"/></clipPath>
  <clipPath id="z22721c11"><use href="#z22721d11"/></clipPath>
  <clipPath id="z22721c12"><use href="#z22721d12"/></clipPath>
  <clipPath id="z22721c13"><use href="#z22721d13"/></clipPath>
  <clipPath id="z22721c14"><use href="#z22721d14"/></clipPath>
  <clipPath id="z22721c15"><use href="#z22721d15"/></clipPath>
  <clipPath id="z22721c16"><use href="#z22721d16"/></clipPath>
</defs>
<path style="--d:1s;" pathLength="3333" clip-path="url(#z22721c1)" d="M 292 695 L 300 704 L 359 723 L 426 743 L 445 742 L 476 712 L 450 651 L 431 640"/>
<path style="--d:2s;" pathLength="3333" clip-path="url(#z22721c2)" d="M 276 583 L 405 613 L 471 608"/>
<path style="--d:3s;" pathLength="3333" clip-path="url(#z22721c3)" d="M 229 726 L 251 701 L 257 683 L 229 509 L 179 381 L 128 305 L 100 276"/>
<path style="--d:4s;" pathLength="3333" clip-path="url(#z22721c4)" d="M 250 472 L 267 438 L 296 285"/>
<path style="--d:5s;" pathLength="3333" clip-path="url(#z22721c5)" d="M 292 468 L 302 462 L 401 492 L 432 489 L 452 468 L 432 406 L 408 387"/>
<path style="--d:6s;" pathLength="3333" clip-path="url(#z22721c6)" d="M 309 327 L 321 342 L 384 358 L 448 366 L 472 360"/>
<path style="--d:7s;" pathLength="3333" clip-path="url(#z22721c7)" d="M 638 839 L 703 805 L 727 774"/>
<path style="--d:8s;" pathLength="3333" clip-path="url(#z22721c8)" d="M 564 694 L 623 692 L 781 730 L 829 734"/>
<path style="--d:9s;" pathLength="3333" clip-path="url(#z22721c9)" d="M 567 639 L 603 605 L 616 579"/>
<path style="--d:10s;" pathLength="3333" clip-path="url(#z22721c10)" d="M 728 692 L 752 668 L 719 594 L 691 554"/>
<path style="--d:11s;" pathLength="3333" clip-path="url(#z22721c11)" d="M 511 519 L 568 515 L 820 561 L 896 561"/>
<path style="--d:12s;" pathLength="3333" clip-path="url(#z22721c12)" d="M 557 399 L 588 397 L 803 433 L 838 434 L 886 423"/>
<path style="--d:13s;" pathLength="3333" clip-path="url(#z22721c13)" d="M 661 510 L 692 484 L 688 280"/>
<path style="--d:14s;" pathLength="3333" clip-path="url(#z22721c14)" d="M 379 161 L 432 153 L 484 155 L 654 188 L 701 183"/>
<path style="--d:15s;" pathLength="3333" clip-path="url(#z22721c15)" d="M 482 304 L 522 267 L 518 62 L 502 41"/>
<path style="--d:16s;" pathLength="3333" clip-path="url(#z22721c16)" d="M 195 2 L 250 -11 L 549 19 L 795 32 L 829 27 L 881 8"/>
</svg>