<svg id="z25238" class="acjk" viewBox="0 0 1024 1024" xmlns="http://www.w3.org/2000/svg">
<style>
<![CDATA[
@keyframes zk {
	to {
		stroke-dashoffset:0;
	}
}
svg.acjk path[clip-path] {
	--t:0.8s;
	animation:zk var(--t) linear forwards var(--d);
	stroke-dasharray:3337;
	stroke-dashoffset:3339;
	stroke-width:128;
	stroke-linecap:round;
	stroke-linejoin:round;
	fill:none;
	stroke:#000;
}
svg.acjk path[id] {fill:#ccc;}
]]>
</style>
  <path id="z25238d1" d="M 327 529 Q 414 556 417 559 Q 426 568 420 576 Q 413 588 382 593 Q 354 597 329 585 L 279 565 Q 191 538 143 531 Q 106 522 134 507 Q 177 489 254 509 Q 264 512 278 515 L 327 529 Z"/>
  <path id="z25238d2" d="M 273 332 Q 272 250 270 149 Q 269 127 257 117 Q 254 116 193 119 Q 160 131 163 121 Q 164 114 184 99 Q 241 53 255 26 Q 271 -5 286 -7 Q 301 -8 315 27 Q 333 72 331 146 Q 325 257 324 367 L 324 399 Q 324 465 327 529 L 329 585 Q 329 682 350 752 Q 366 783 312 805 Q 278 824 259 817 Q 241 811 257 788 Q 279 761 279 727 Q 280 711 279 565 L 278 515 Q 277 454 274 373 L 273 332 Z"/>
  <path id="z25238d3" d="M 274 373 Q 72 268 57 261 Q 39 261 36 247 Q 35 238 48 224 Q 66 208 88 200 Q 103 196 113 207 Q 197 280 273 332 L 324 367 Q 343 382 364 394 Q 386 406 396 420 Q 403 433 393 433 Q 384 433 324 399 L 274 373 Z"/>
  <path id="z25238d4" d="M 520 619 Q 548 604 579 586 Q 594 577 607 581 Q 616 584 617 596 Q 618 609 605 633 Q 590 658 506 658 Q 493 658 487 655 Q 484 651 488 640 Q 492 631 520 619 Z"/>
  <path id="z25238d5" d="M 504 480 Q 531 464 561 443 Q 574 434 589 437 Q 599 438 601 452 Q 602 465 590 491 Q 575 518 491 522 Q 476 522 471 519 Q 467 515 471 503 Q 475 494 504 480 Z"/>
  <path id="z25238d6" d="M 732 355 Q 846 364 962 372 Q 974 375 978 382 Q 982 395 964 408 Q 901 451 851 432 Q 800 419 732 402 L 678 391 Q 665 390 652 386 Q 531 362 388 336 Q 366 333 383 315 Q 419 285 459 298 Q 565 334 677 348 L 732 355 Z"/>
  <path id="z25238d7" d="M 677 348 Q 677 3 678 -11 Q 678 -59 692 -80 Q 707 -96 716 -74 Q 731 -38 732 355 L 732 402 Q 733 612 739 708 Q 740 744 759 774 Q 766 790 745 807 Q 720 826 675 838 Q 654 844 641 829 Q 631 820 644 808 Q 675 781 678 744 Q 678 629 678 391 L 677 348 Z"/>
<defs>
  <clipPath id="z25238c1"><use href="#z25238d1"/></clipPath>
  <clipPath id="z25238c2"><use href="#z25238d2"/></clipPath>
  <clipPath id="z25238c3"><use href="#z25238d3"/></clipPath>
  <clipPath id="z25238c4"><use href="#z25238d4"/></clipPath>
  <clipPath id="z25238c5"><use href="#z25238d5"/></clipPath>
  <clipPath id="z25238c6"><use href="#z25238d6"/></clipPath>
  <clipPath id="z25238c7"><use href="#z25238d7"/></clipPath>
</defs>
<path style="--d:1s;" pathLength="3333" clip-path="url(#z25238c1)" d="M 135 520 L 155 516 L 206 522 L 363 568 L 410 569"/>
<path style="--d:2s;" pathLength="3333" clip-path="url(#z25238c2)" d="M 265 802 L 282 794 L 313 762 L 298 381 L 300 137 L 295 105 L 279 75 L 182 112 L 180 119 L 169 119"/>
<path style="--d:3s;" pathLength="3333" clip-path="url(#z25238c3)" d="M 50 245 L 69 238 L 97 240 L 224 326 L 392 426"/>
<path style="--d:4s;" pathLength="3333" clip-path="url(#z25238c4)" d="M 493 648 L 566 626 L 602 595"/>
<path style="--d:5s;" pathLength="3333" clip-path="url(#z25238c5)" d="M 477 514 L 564 477 L 587 451"/>
<path style="--d:6s;" pathLength="3333" clip-path="url(#z25238c6)" d="M 386 325 L 446 320 L 590 354 L 867 401 L 903 402 L 967 387"/>
<path style="--d:7s;" pathLength="3333" clip-path="url(#z25238c7)" d="M 649 819 L 677 812 L 713 778 L 705 567 L 703 -74"/>
</svg>