<svg id="z21956" class="acjk" viewBox="0 0 1024 1024" xmlns="http://www.w3.org/2000/svg">
<style>
<![CDATA[
@keyframes zk {
	to {
		stroke-dashoffset:0;
	}
}
svg.acjk path[clip-path] {
	--t:0.8s;
	animation:zk var(--t) linear forwards var(--d);
	stroke-dasharray:3337;
	stroke-dashoffset:3339;
	stroke-width:128;
	stroke-linecap:round;
	stroke-linejoin:round;
	fill:none;
	stroke:#000;
}
svg.acjk path[id] {fill:#ccc;}
]]>
</style>
  <path id="z21956d1" d="M 139 545 Q 127 551 98 557 Q 86 560 83 555 Q 76 549 84 534 Q 114 465 129 355 Q 130 322 149 299 Q 165 278 171 293 Q 178 315 173 358 L 167 390 Q 151 487 149 517 C 147 542 147 542 139 545 Z"/>
  <path id="z21956d2" d="M 301 422 Q 317 509 342 537 Q 363 562 339 576 Q 320 586 292 601 Q 270 611 236 584 Q 197 563 139 545 C 110 536 121 507 149 517 Q 153 518 163 522 Q 203 535 237 547 Q 261 554 267 545 Q 276 538 268 501 Q 261 464 251 419 C 245 390 295 393 301 422 Z"/>
  <path id="z21956d3" d="M 173 358 Q 183 357 196 361 Q 235 374 320 388 Q 330 391 330 400 Q 330 407 301 422 C 283 431 279 430 251 419 Q 205 401 167 390 C 138 382 143 359 173 358 Z"/>
  <path id="z21956d4" d="M 566 736 Q 644 752 725 765 Q 777 775 786 783 Q 796 790 791 800 Q 784 812 754 820 Q 723 827 692 816 Q 632 797 567 782 Q 495 767 411 761 Q 374 757 400 738 Q 434 714 512 728 Q 518 729 527 730 L 566 736 Z"/>
  <path id="z21956d5" d="M 522 644 Q 546 671 573 698 Q 586 705 581 715 Q 577 725 566 736 C 545 758 536 759 527 730 Q 511 679 497 653 Q 490 644 488 636 C 479 607 502 622 522 644 Z"/>
  <path id="z21956d6" d="M 463 632 Q 453 639 427 646 Q 417 650 413 646 Q 407 642 412 627 Q 434 548 436 427 Q 435 391 451 364 Q 464 342 471 356 Q 474 363 477 374 L 480 396 Q 481 414 480 435 Q 479 442 479 448 L 477 471 Q 474 499 474 520 L 472 544 Q 471 587 471 605 C 471 628 471 628 463 632 Z"/>
  <path id="z21956d7" d="M 656 392 Q 677 367 694 361 Q 704 354 717 377 Q 730 408 745 566 Q 752 594 772 619 Q 782 631 772 643 Q 757 658 716 679 Q 701 685 530 646 Q 524 646 522 644 L 488 636 Q 475 635 463 632 C 434 627 443 595 471 605 Q 495 617 646 641 Q 668 645 677 637 Q 693 621 692 603 Q 680 431 663 419 C 652 397 652 397 656 392 Z"/>
  <path id="z21956d8" d="M 474 520 Q 475 521 617 547 Q 636 551 629 562 Q 620 574 599 577 Q 581 578 472 544 C 443 535 445 513 474 520 Z"/>
  <path id="z21956d9" d="M 479 448 Q 480 448 485 448 Q 561 463 617 472 Q 636 475 629 486 Q 620 498 599 501 Q 569 504 477 471 C 449 461 449 448 479 448 Z"/>
  <path id="z21956d10" d="M 477 374 Q 484 373 498 373 Q 589 386 656 392 C 686 395 690 406 663 419 Q 659 422 652 423 Q 634 426 480 396 C 451 390 447 377 477 374 Z"/>
  <path id="z21956d11" d="M 519 296 Q 507 321 485 331 Q 469 340 458 340 Q 449 339 450 328 Q 450 256 320 148 Q 317 147 315 144 Q 278 114 187 58 Q 178 55 188 51 Q 242 45 367 136 Q 407 172 449 210 L 467 229 Q 498 265 507 270 C 525 285 525 285 519 296 Z"/>
  <path id="z21956d12" d="M 641 124 Q 672 170 704 233 Q 719 258 738 273 Q 757 286 747 300 Q 735 312 708 325 Q 686 335 660 324 Q 633 315 597 307 Q 566 301 519 296 C 489 293 477 274 507 270 Q 537 263 574 271 Q 631 287 640 286 Q 659 282 653 262 Q 635 201 605 153 L 575 116 Q 503 41 341 3 Q 328 -1 338 -9 Q 344 -13 391 -11 Q 451 -7 519 26 Q 568 48 606 84 L 641 124 Z"/>
  <path id="z21956d13" d="M 606 84 Q 717 -33 772 -37 Q 841 -37 942 -22 Q 954 -18 957 -10 Q 960 -3 940 0 Q 766 48 766 49 Q 694 85 641 124 L 605 153 Q 598 160 590 166 Q 517 239 467 229 C 437 227 420 218 449 210 Q 453 206 461 206 Q 495 206 575 116 L 606 84 Z"/>
<defs>
  <clipPath id="z21956c1"><use href="#z21956d1"/></clipPath>
  <clipPath id="z21956c2"><use href="#z21956d2"/></clipPath>
  <clipPath id="z21956c3"><use href="#z21956d3"/></clipPath>
  <clipPath id="z21956c4"><use href="#z21956d4"/></clipPath>
  <clipPath id="z21956c5"><use href="#z21956d5"/></clipPath>
  <clipPath id="z21956c6"><use href="#z21956d6"/></clipPath>
  <clipPath id="z21956c7"><use href="#z21956d7"/></clipPath>
  <clipPath id="z21956c8"><use href="#z21956d8"/></clipPath>
  <clipPath id="z21956c9"><use href="#z21956d9"/></clipPath>
  <clipPath id="z21956c10"><use href="#z21956d10"/></clipPath>
  <clipPath id="z21956c11"><use href="#z21956d11"/></clipPath>
  <clipPath id="z21956c12"><use href="#z21956d12"/></clipPath>
  <clipPath id="z21956c13"><use href="#z21956d13"/></clipPath>
</defs>
<path style="--d:1s;" pathLength="3333" clip-path="url(#z21956c1)" d="M 92 547 L 121 515 L 161 299"/>
<path style="--d:2s;" pathLength="3333" clip-path="url(#z21956c2)" d="M 149 541 L 158 536 L 270 574 L 284 571 L 306 552 L 281 444 L 257 425"/>
<path style="--d:3s;" pathLength="3333" clip-path="url(#z21956c3)" d="M 178 365 L 192 379 L 258 399 L 301 403 L 320 398"/>
<path style="--d:4s;" pathLength="3333" clip-path="url(#z21956c4)" d="M 403 751 L 430 744 L 482 745 L 719 794 L 780 794"/>
<path style="--d:5s;" pathLength="3333" clip-path="url(#z21956c5)" d="M 570 710 L 558 713 L 546 707 L 517 659 L 493 639"/>
<path style="--d:6s;" pathLength="3333" clip-path="url(#z21956c6)" d="M 420 638 L 445 605 L 462 362"/>
<path style="--d:7s;" pathLength="3333" clip-path="url(#z21956c7)" d="M 471 612 L 483 623 L 619 653 L 672 659 L 709 648 L 729 627 L 719 587 L 705 452 L 691 401 L 699 379"/>
<path style="--d:8s;" pathLength="3333" clip-path="url(#z21956c8)" d="M 477 527 L 487 538 L 585 559 L 620 557"/>
<path style="--d:9s;" pathLength="3333" clip-path="url(#z21956c9)" d="M 482 454 L 493 464 L 564 481 L 602 486 L 621 481"/>
<path style="--d:10s;" pathLength="3333" clip-path="url(#z21956c10)" d="M 482 379 L 495 389 L 505 386 L 545 396 L 634 405 L 655 414"/>
<path style="--d:11s;" pathLength="3333" clip-path="url(#z21956c11)" d="M 462 329 L 478 291 L 428 221 L 330 130 L 242 75 L 197 61 L 193 55"/>
<path style="--d:12s;" pathLength="3333" clip-path="url(#z21956c12)" d="M 514 275 L 530 283 L 581 287 L 648 302 L 676 298 L 693 287 L 641 167 L 603 113 L 576 86 L 530 54 L 462 22 L 380 -2 L 343 -4"/>
<path style="--d:13s;" pathLength="3333" clip-path="url(#z21956c13)" d="M 456 212 L 483 216 L 514 202 L 668 66 L 757 9 L 817 -2 L 949 -10"/>
</svg>