<svg id="z23574" class="acjk" viewBox="0 0 1024 1024" xmlns="http://www.w3.org/2000/svg">
<style>
<![CDATA[
@keyframes zk {
	to {
		stroke-dashoffset:0;
	}
}
svg.acjk path[clip-path] {
	--t:0.8s;
	animation:zk var(--t) linear forwards var(--d);
	stroke-dasharray:3337;
	stroke-dashoffset:3339;
	stroke-width:128;
	stroke-linecap:round;
	stroke-linejoin:round;
	fill:none;
	stroke:#000;
}
svg.acjk path[id] {fill:#ccc;}
]]>
</style>
  <path id="z23574d1" d="M 462 786 Q 483 752 484 583 Q 483 535 477 514 Q 476 504 493 463 Q 503 447 517 455 Q 532 468 528 547 Q 528 701 555 750 Q 561 760 550 773 Q 498 815 469 805 Q 456 801 462 786 Z"/>
  <path id="z23574d2" d="M 320 636 Q 289 591 251 554 Q 223 527 234 484 Q 238 463 264 472 Q 324 502 336 569 Q 348 603 345 631 Q 342 641 336 643 Q 326 643 320 636 Z"/>
  <path id="z23574d3" d="M 651 656 Q 709 610 778 541 Q 796 520 812 517 Q 822 516 829 527 Q 842 542 826 587 Q 808 647 651 689 Q 641 695 640 681 Q 640 666 651 656 Z"/>
  <path id="z23574d4" d="M 519 316 Q 597 331 797 350 Q 809 347 819 362 Q 820 375 796 388 Q 757 412 692 395 Q 578 370 528 360 L 454 346 Q 439 346 198 320 Q 165 317 190 297 Q 227 267 256 272 Q 346 288 451 304 L 519 316 Z"/>
  <path id="z23574d5" d="M 451 304 Q 433 163 333 92 Q 293 58 186 12 Q 158 -1 191 -3 Q 210 -4 252 8 Q 304 20 350 43 Q 392 62 425 102 Q 477 157 508 268 L 517 307 Q 518 311 519 316 L 528 360 Q 532 379 538 389 Q 545 396 539 409 Q 532 418 499 430 Q 462 449 444 442 Q 431 435 442 417 Q 452 392 454 346 L 451 304 Z"/>
  <path id="z23574d6" d="M 508 268 Q 532 231 602 137 Q 684 28 745 -34 Q 773 -65 800 -63 Q 876 -53 943 -45 Q 971 -42 971 -35 Q 972 -28 940 -13 Q 780 50 732 86 Q 624 176 517 307 C 498 330 491 293 508 268 Z"/>
<defs>
  <clipPath id="z23574c1"><use href="#z23574d1"/></clipPath>
  <clipPath id="z23574c2"><use href="#z23574d2"/></clipPath>
  <clipPath id="z23574c3"><use href="#z23574d3"/></clipPath>
  <clipPath id="z23574c4"><use href="#z23574d4"/></clipPath>
  <clipPath id="z23574c5"><use href="#z23574d5"/></clipPath>
  <clipPath id="z23574c6"><use href="#z23574d6"/></clipPath>
</defs>
<path style="--d:1s;" pathLength="3333" clip-path="url(#z23574c1)" d="M 472 793 L 491 782 L 513 751 L 503 508 L 509 466"/>
<path style="--d:2s;" pathLength="3333" clip-path="url(#z23574c2)" d="M 334 632 L 306 568 L 250 485"/>
<path style="--d:3s;" pathLength="3333" clip-path="url(#z23574c3)" d="M 652 676 L 715 640 L 780 592 L 799 568 L 813 535"/>
<path style="--d:4s;" pathLength="3333" clip-path="url(#z23574c4)" d="M 191 309 L 249 298 L 440 323 L 707 370 L 770 373 L 807 364"/>
<path style="--d:5s;" pathLength="3333" clip-path="url(#z23574c5)" d="M 452 429 L 492 389 L 477 267 L 437 165 L 389 103 L 333 61 L 283 36 L 196 7"/>
<path style="--d:6s;" pathLength="3333" clip-path="url(#z23574c6)" d="M 521 299 L 525 272 L 615 159 L 688 79 L 761 15 L 801 -11 L 965 -35"/>
</svg>