<svg id="z20065" class="acjk" viewBox="0 0 1024 1024" xmlns="http://www.w3.org/2000/svg">
<style>
<![CDATA[
@keyframes zk {
	to {
		stroke-dashoffset:0;
	}
}
svg.acjk path[clip-path] {
	--t:0.8s;
	animation:zk var(--t) linear forwards var(--d);
	stroke-dasharray:3337;
	stroke-dashoffset:3339;
	stroke-width:128;
	stroke-linecap:round;
	stroke-linejoin:round;
	fill:none;
	stroke:#000;
}
svg.acjk path[id] {fill:#ccc;}
]]>
</style>
  <path id="z20065d1" d="M 523 471 Q 447 474 383 475 Q 349 476 368 497 Q 464 626 551 719 Q 570 737 568 746 Q 567 762 526 803 Q 510 821 487 818 Q 474 817 480 798 Q 495 747 371 569 Q 344 527 292 491 Q 270 476 270 462 Q 273 440 288 418 Q 298 405 314 411 Q 354 429 484 441 Q 490 442 497 441 C 527 442 553 470 523 471 Z"/>
  <path id="z20065d2" d="M 608 296 Q 520 289 412 267 Q 381 258 403 282 Q 470 361 627 518 Q 664 558 695 580 Q 711 590 705 602 Q 695 626 659 651 Q 641 664 630 662 Q 618 659 619 641 Q 619 592 523 471 L 497 441 Q 343 273 310 260 Q 294 251 295 234 Q 295 218 323 194 Q 333 178 353 191 Q 450 242 595 272 C 624 278 638 299 608 296 Z"/>
  <path id="z20065d3" d="M 595 272 Q 517 133 316 10 Q 294 -2 271 -17 Q 261 -24 268 -28 Q 275 -32 288 -29 Q 369 -8 440 36 Q 512 73 561 133 Q 615 188 673 291 Q 692 321 714 349 Q 724 358 720 370 Q 716 383 685 406 Q 663 422 652 422 Q 637 421 636 403 Q 633 351 608 296 L 595 272 Z"/>
<defs>
  <clipPath id="z20065c1"><use href="#z20065d1"/></clipPath>
  <clipPath id="z20065c2"><use href="#z20065d2"/></clipPath>
  <clipPath id="z20065c3"><use href="#z20065d3"/></clipPath>
</defs>
<path style="--d:1s;" pathLength="3333" clip-path="url(#z20065c1)" d="M 489 806 L 506 788 L 519 747 L 448 639 L 332 484 L 326 459 L 356 452 L 471 454 L 504 461 L 515 470"/>
<path style="--d:2s;" pathLength="3333" clip-path="url(#z20065c2)" d="M 634 647 L 653 600 L 574 498 L 388 297 L 370 274 L 359 242 L 387 238 L 417 244 L 487 264 L 584 280 L 601 292"/>
<path style="--d:3s;" pathLength="3333" clip-path="url(#z20065c3)" d="M 653 405 L 673 363 L 627 268 L 561 174 L 494 105 L 436 61 L 359 14 L 274 -24"/>
</svg>