<svg id="z21595" class="acjk" viewBox="0 0 1024 1024" xmlns="http://www.w3.org/2000/svg">
<style>
<![CDATA[
@keyframes zk {
	to {
		stroke-dashoffset:0;
	}
}
svg.acjk path[clip-path] {
	--t:0.8s;
	animation:zk var(--t) linear forwards var(--d);
	stroke-dasharray:3337;
	stroke-dashoffset:3339;
	stroke-width:128;
	stroke-linecap:round;
	stroke-linejoin:round;
	fill:none;
	stroke:#000;
}
svg.acjk path[id] {fill:#ccc;}
]]>
</style>
  <path id="z21595d1" d="M 134 541 Q 122 548 93 554 Q 80 558 77 552 Q 70 546 78 530 Q 106 464 118 358 Q 119 327 136 304 Q 152 282 159 297 Q 166 313 165 342 L 161 377 Q 146 485 146 514 C 145 536 145 536 134 541 Z"/>
  <path id="z21595d2" d="M 291 405 Q 306 496 331 526 Q 352 551 328 565 Q 309 575 281 590 Q 262 600 244 588 Q 211 564 134 541 C 105 532 118 503 146 514 Q 149 517 225 537 Q 247 544 254 535 Q 261 529 242 405 C 237 375 286 375 291 405 Z"/>
  <path id="z21595d3" d="M 165 342 Q 207 357 307 373 Q 317 374 318 384 Q 318 391 291 405 L 242 405 Q 239 405 238 404 Q 196 388 161 377 C 132 368 137 332 165 342 Z"/>
  <path id="z21595d4" d="M 426 417 Q 498 507 578 678 L 589 703 Q 602 742 615 753 Q 622 760 618 770 Q 615 780 601 790 Q 585 802 564 805 Q 542 809 531 805 Q 522 801 526 789 Q 556 699 431 496 Q 422 486 415 473 Q 375 413 272 296 Q 265 289 275 289 Q 311 299 410 398 L 426 417 Z"/>
  <path id="z21595d5" d="M 578 678 Q 665 551 779 418 Q 798 396 829 396 Q 938 395 972 398 Q 982 399 984 405 Q 984 411 970 418 Q 820 472 773 512 Q 688 591 589 703 C 569 725 561 703 578 678 Z"/>
  <path id="z21595d6" d="M 474 356 Q 484 368 620 399 Q 630 400 636 396 Q 646 392 647 375 Q 646 332 631 257 Q 628 235 606 238 Q 563 250 529 259 Q 516 262 519 254 Q 520 245 544 228 Q 590 197 619 160 Q 626 151 636 155 Q 643 158 657 179 Q 673 204 687 288 Q 694 373 708 388 Q 718 397 713 408 Q 704 418 670 438 Q 657 445 603 431 Q 594 431 509 407 Q 484 401 466 396 C 437 388 447 342 474 356 Z"/>
  <path id="z21595d7" d="M 853 92 Q 840 116 818 190 Q 817 206 809 210 Q 802 213 799 195 Q 777 114 761 89 Q 722 44 596 53 Q 547 56 510 73 Q 476 89 467 112 Q 440 167 474 356 C 479 386 479 386 466 396 Q 445 417 426 417 C 403 425 403 425 410 398 Q 410 397 411 393 Q 424 354 420 317 Q 407 142 420 93 Q 424 66 449 43 Q 537 -29 719 -2 Q 737 2 756 6 Q 802 19 848 49 Q 867 65 853 92 Z"/>
<defs>
  <clipPath id="z21595c1"><use href="#z21595d1"/></clipPath>
  <clipPath id="z21595c2"><use href="#z21595d2"/></clipPath>
  <clipPath id="z21595c3"><use href="#z21595d3"/></clipPath>
  <clipPath id="z21595c4"><use href="#z21595d4"/></clipPath>
  <clipPath id="z21595c5"><use href="#z21595d5"/></clipPath>
  <clipPath id="z21595c6"><use href="#z21595d6"/></clipPath>
  <clipPath id="z21595c7"><use href="#z21595d7"/></clipPath>
</defs>
<path style="--d:1s;" pathLength="3333" clip-path="url(#z21595c1)" d="M 86 544 L 117 509 L 148 304"/>
<path style="--d:2s;" pathLength="3333" clip-path="url(#z21595c2)" d="M 144 521 L 165 537 L 254 564 L 265 564 L 287 548 L 292 533 L 270 429 L 248 417"/>
<path style="--d:3s;" pathLength="3333" clip-path="url(#z21595c3)" d="M 168 348 L 180 365 L 245 384 L 285 388 L 309 382"/>
<path style="--d:4s;" pathLength="3333" clip-path="url(#z21595c4)" d="M 536 795 L 571 761 L 550 681 L 513 596 L 451 487 L 407 425 L 320 330 L 277 294"/>
<path style="--d:5s;" pathLength="3333" clip-path="url(#z21595c5)" d="M 592 694 L 592 679 L 639 621 L 753 492 L 802 448 L 841 431 L 976 405"/>
<path style="--d:6s;" pathLength="3333" clip-path="url(#z21595c6)" d="M 477 366 L 487 383 L 617 418 L 649 416 L 675 397 L 654 247 L 636 211 L 629 205 L 602 213 L 526 253"/>
<path style="--d:7s;" pathLength="3333" clip-path="url(#z21595c7)" d="M 420 397 L 442 383 L 448 349 L 434 205 L 440 116 L 451 85 L 464 68 L 510 40 L 572 24 L 634 21 L 707 27 L 775 51 L 808 81 L 808 203"/>
</svg>