<svg id="z22642" class="acjk" viewBox="0 0 1024 1024" xmlns="http://www.w3.org/2000/svg">
<style>
<![CDATA[
@keyframes zk {
	to {
		stroke-dashoffset:0;
	}
}
svg.acjk path[clip-path] {
	--t:0.8s;
	animation:zk var(--t) linear forwards var(--d);
	stroke-dasharray:3337;
	stroke-dashoffset:3339;
	stroke-width:128;
	stroke-linecap:round;
	stroke-linejoin:round;
	fill:none;
	stroke:#000;
}
svg.acjk path[id] {fill:#ccc;}
]]>
</style>
  <path id="z22642d1" d="M 274 519 Q 176 494 143 488 Q 140 488 138 487 Q 109 478 134 465 Q 168 449 214 456 L 276 469 L 321 482 Q 412 508 418 514 Q 424 519 423 526 Q 419 537 396 545 Q 359 556 324 537 L 274 519 Z"/>
  <path id="z22642d2" d="M 324 537 Q 327 629 340 696 Q 347 729 346 735 Q 345 743 328 755 Q 278 780 253 778 Q 233 775 238 758 L 242 748 Q 270 708 270 680 Q 274 598 274 519 L 276 469 Q 274 386 270 276 C 269 246 315 264 316 294 Q 319 408 321 482 L 324 537 Z"/>
  <path id="z22642d3" d="M 270 276 L 159 229 Q 154 227 149 226 L 110 220 Q 96 216 94 205 Q 94 204 94 202 Q 94 188 104 182 Q 129 169 145 162 Q 172 149 184 156 Q 188 159 201 171 Q 242 208 267 220 L 382 274 Q 414 294 423 302 Q 439 314 439 321 Q 432 327 419 323 L 316 294 L 270 276 Z"/>
  <path id="z22642d4" d="M 555 737 Q 555 739 556 740 Q 561 755 580 774 Q 593 788 591 798 Q 588 806 576 817 Q 550 845 523 844 Q 507 841 515 823 Q 521 810 514 780 Q 494 711 429 619 Q 426 616 424 613 Q 415 601 422 599 Q 425 598 430 600 Q 463 610 541 717 L 555 737 Z"/>
  <path id="z22642d5" d="M 541 717 Q 570 697 613 702 Q 631 704 698 717 Q 827 745 833 749 Q 839 755 838 761 Q 838 762 837 764 Q 832 773 804 782 Q 796 784 788 784 Q 771 784 729 770 Q 646 745 555 737 C 525 734 515 733 541 717 Z"/>
  <path id="z22642d6" d="M 541 637 L 537 639 Q 504 653 495 647 Q 490 643 496 625 Q 519 558 528 488 Q 529 474 535 460 Q 546 435 557 433 Q 565 431 567 455 L 568 474 Q 567 486 563 531 L 561 553 Q 557 598 556 610 C 554 631 554 631 541 637 Z"/>
  <path id="z22642d7" d="M 688 478 Q 704 456 719 447 Q 725 443 733 449 Q 739 456 745 468 Q 754 488 773 575 Q 779 600 798 621 Q 807 633 806 639 L 804 641 Q 797 657 749 682 Q 741 686 711 680 L 676 672 L 541 637 C 512 629 528 600 556 610 Q 676 653 710 645 Q 727 641 726 620 Q 711 512 696 501 C 684 483 684 483 688 478 Z"/>
  <path id="z22642d8" d="M 563 531 Q 580 537 684 553 Q 698 556 698 563 Q 698 564 696 566 Q 688 580 664 582 Q 641 583 561 553 C 533 543 534 522 563 531 Z"/>
  <path id="z22642d9" d="M 567 455 Q 572 455 576 455 L 688 478 C 717 484 723 489 696 501 Q 686 506 674 506 Q 649 504 568 474 C 540 464 537 455 567 455 Z"/>
  <path id="z22642d10" d="M 535 357 Q 690 404 925 404 Q 947 404 952 413 Q 955 420 949 428 Q 945 434 933 441 Q 896 466 861 463 Q 856 461 847 459 Q 713 426 412 374 Q 398 372 402 363 Q 404 361 407 357 Q 425 336 462 339 L 466 339 L 500 349 L 535 357 Z"/>
  <path id="z22642d11" d="M 500 349 Q 506 319 446 241 Q 444 235 382 177 Q 376 173 382 172 Q 428 172 518 269 L 535 290 L 563 328 Q 560 347 535 357 C 508 370 499 374 500 349 Z"/>
  <path id="z22642d12" d="M 518 269 Q 542 265 569 265 L 607 270 Q 635 276 689 285 L 730 293 L 731 294 L 733 294 Q 782 303 808 304 Q 824 304 827 298 Q 836 278 823 212 Q 823 211 823 209 Q 806 116 771 53 Q 763 39 753 35 Q 741 29 707 37 L 670 46 Q 665 48 662 47 Q 660 42 664 37 Q 667 34 669 32 Q 700 0 719 -35 L 721 -40 Q 741 -70 784 -31 Q 800 -17 812 4 Q 850 63 893 237 Q 897 257 914 274 Q 927 285 927 293 Q 926 299 914 310 Q 887 335 850 349 Q 836 355 801 347 L 760 337 Q 745 334 728 328 Q 678 316 535 290 C 505 285 488 273 518 269 Z"/>
  <path id="z22642d13" d="M 569 265 Q 542 186 449 108 Q 443 104 442 100 Q 442 96 446 96 Q 503 96 598 203 Q 610 219 619 225 Q 623 231 621 241 Q 618 257 607 270 C 589 294 579 293 569 265 Z"/>
  <path id="z22642d14" d="M 689 285 Q 698 192 506 10 Q 500 6 508 3 Q 570 16 657 110 Q 659 114 662 116 Q 696 153 747 231 Q 753 239 760 247 Q 764 253 764 261 Q 760 280 730 293 C 703 306 688 314 689 285 Z"/>
<defs>
  <clipPath id="z22642c1"><use href="#z22642d1"/></clipPath>
  <clipPath id="z22642c2"><use href="#z22642d2"/></clipPath>
  <clipPath id="z22642c3"><use href="#z22642d3"/></clipPath>
  <clipPath id="z22642c4"><use href="#z22642d4"/></clipPath>
  <clipPath id="z22642c5"><use href="#z22642d5"/></clipPath>
  <clipPath id="z22642c6"><use href="#z22642d6"/></clipPath>
  <clipPath id="z22642c7"><use href="#z22642d7"/></clipPath>
  <clipPath id="z22642c8"><use href="#z22642d8"/></clipPath>
  <clipPath id="z22642c9"><use href="#z22642d9"/></clipPath>
  <clipPath id="z22642c10"><use href="#z22642d10"/></clipPath>
  <clipPath id="z22642c11"><use href="#z22642d11"/></clipPath>
  <clipPath id="z22642c12"><use href="#z22642d12"/></clipPath>
  <clipPath id="z22642c13"><use href="#z22642d13"/></clipPath>
  <clipPath id="z22642c14"><use href="#z22642d14"/></clipPath>
</defs>
<path style="--d:1s;" pathLength="3333" clip-path="url(#z22642c1)" d="M 134 476 L 204 477 L 277 494 L 352 520 L 412 524"/>
<path style="--d:2s;" pathLength="3333" clip-path="url(#z22642c2)" d="M 251 764 L 288 737 L 303 722 L 304 713 L 295 322 L 292 306 L 273 284"/>
<path style="--d:3s;" pathLength="3333" clip-path="url(#z22642c3)" d="M 108 204 L 169 193 L 245 238 L 433 319"/>
<path style="--d:4s;" pathLength="3333" clip-path="url(#z22642c4)" d="M 524 832 L 543 813 L 550 790 L 517 720 L 484 669 L 425 606"/>
<path style="--d:5s;" pathLength="3333" clip-path="url(#z22642c5)" d="M 550 718 L 664 731 L 785 761 L 827 758"/>
<path style="--d:6s;" pathLength="3333" clip-path="url(#z22642c6)" d="M 501 641 L 530 604 L 556 441"/>
<path style="--d:7s;" pathLength="3333" clip-path="url(#z22642c7)" d="M 550 633 L 567 629 L 709 663 L 745 654 L 760 633 L 759 622 L 721 482 L 724 462"/>
<path style="--d:8s;" pathLength="3333" clip-path="url(#z22642c8)" d="M 564 537 L 575 549 L 630 561 L 661 566 L 693 562"/>
<path style="--d:9s;" pathLength="3333" clip-path="url(#z22642c9)" d="M 572 460 L 603 476 L 689 497"/>
<path style="--d:10s;" pathLength="3333" clip-path="url(#z22642c10)" d="M 411 365 L 453 359 L 682 407 L 868 434 L 941 419"/>
<path style="--d:11s;" pathLength="3333" clip-path="url(#z22642c11)" d="M 507 345 L 527 325 L 513 299 L 456 227 L 402 185 L 392 186 L 386 175"/>
<path style="--d:12s;" pathLength="3333" clip-path="url(#z22642c12)" d="M 525 272 L 813 327 L 846 320 L 865 301 L 872 289 L 842 156 L 812 69 L 781 14 L 750 -8 L 666 43"/>
<path style="--d:13s;" pathLength="3333" clip-path="url(#z22642c13)" d="M 602 260 L 546 177 L 488 123 L 448 102"/>
<path style="--d:14s;" pathLength="3333" clip-path="url(#z22642c14)" d="M 697 281 L 722 256 L 682 177 L 597 75 L 531 20 L 516 18 L 512 8"/>
</svg>