<svg id="z20896" class="acjk" viewBox="0 0 1024 1024" xmlns="http://www.w3.org/2000/svg">
<style>
<![CDATA[
@keyframes zk {
	to {
		stroke-dashoffset:0;
	}
}
svg.acjk path[clip-path] {
	--t:0.8s;
	animation:zk var(--t) linear forwards var(--d);
	stroke-dasharray:3337;
	stroke-dashoffset:3339;
	stroke-width:128;
	stroke-linecap:round;
	stroke-linejoin:round;
	fill:none;
	stroke:#000;
}
svg.acjk path[id] {fill:#ccc;}
]]>
</style>
  <path id="z20896d1" d="M 286 725 Q 276 758 261 768 Q 242 784 239 757 Q 243 726 210 685 Q 171 643 173 623 Q 177 590 187 571 Q 202 543 223 571 Q 241 596 254 633 Q 266 667 276 690 C 288 718 288 718 286 725 Z"/>
  <path id="z20896d2" d="M 276 690 Q 301 677 327 684 Q 456 723 652 743 Q 689 747 703 745 Q 724 732 720 722 Q 720 719 700 651 Q 694 636 701 633 Q 708 629 724 643 Q 775 682 818 696 Q 852 709 852 718 Q 851 728 775 779 Q 751 795 684 782 Q 597 772 371 737 Q 328 731 286 725 C 256 721 248 700 276 690 Z"/>
  <path id="z20896d3" d="M 283 571 Q 246 562 274 547 Q 322 526 374 543 Q 417 555 462 566 Q 481 572 485 575 Q 494 584 488 592 Q 481 604 450 609 Q 419 613 389 598 Q 367 589 342 582 Q 315 575 283 571 Z"/>
  <path id="z20896d4" d="M 401 410 Q 509 437 515 441 Q 524 448 519 457 Q 512 467 484 475 Q 460 479 348 445 Q 222 421 185 416 Q 149 410 175 394 Q 208 376 256 380 L 289 387 Q 325 396 362 402 L 401 410 Z"/>
  <path id="z20896d5" d="M 256 380 Q 255 380 256 378 Q 263 249 72 104 Q 65 97 71 94 Q 101 88 175 142 Q 245 187 300 305 Q 310 324 322 342 Q 329 349 325 359 Q 319 368 294 384 Q 291 385 289 387 C 264 403 255 408 256 380 Z"/>
  <path id="z20896d6" d="M 942 90 Q 920 132 901 206 Q 897 222 889 226 Q 880 230 879 210 Q 875 116 862 99 Q 817 50 629 48 Q 526 52 482 69 Q 443 88 436 115 Q 411 182 433 293 Q 437 321 445 339 Q 463 381 401 410 C 375 425 348 429 362 402 Q 386 378 381 303 Q 375 119 402 76 Q 451 -21 766 3 Q 881 12 926 38 Q 957 57 942 90 Z"/>
  <path id="z20896d7" d="M 725 460 Q 771 470 845 480 Q 854 479 862 490 Q 862 500 843 508 Q 810 524 742 503 Q 733 502 724 498 L 675 485 Q 663 485 555 469 Q 531 465 550 451 Q 578 432 617 438 Q 644 444 677 450 L 725 460 Z"/>
  <path id="z20896d8" d="M 643 194 Q 612 198 582 204 Q 570 205 571 198 Q 572 192 583 185 Q 650 130 677 96 Q 690 81 705 95 Q 732 125 734 208 Q 730 263 725 460 L 724 498 Q 724 535 734 562 Q 741 580 726 592 Q 701 611 673 621 Q 655 627 648 619 Q 642 613 653 599 Q 674 563 675 485 L 677 450 Q 686 213 665 197 Q 658 190 643 194 Z"/>
  <path id="z20896d9" d="M 531 329 Q 550 310 572 286 Q 582 274 596 274 Q 605 274 609 285 Q 613 297 608 321 Q 601 349 530 369 Q 517 373 512 371 Q 508 368 508 357 Q 511 347 531 329 Z"/>
<defs>
  <clipPath id="z20896c1"><use href="#z20896d1"/></clipPath>
  <clipPath id="z20896c2"><use href="#z20896d2"/></clipPath>
  <clipPath id="z20896c3"><use href="#z20896d3"/></clipPath>
  <clipPath id="z20896c4"><use href="#z20896d4"/></clipPath>
  <clipPath id="z20896c5"><use href="#z20896d5"/></clipPath>
  <clipPath id="z20896c6"><use href="#z20896d6"/></clipPath>
  <clipPath id="z20896c7"><use href="#z20896d7"/></clipPath>
  <clipPath id="z20896c8"><use href="#z20896d8"/></clipPath>
  <clipPath id="z20896c9"><use href="#z20896d9"/></clipPath>
</defs>
<path style="--d:1s;" pathLength="3333" clip-path="url(#z20896c1)" d="M 250 762 L 261 725 L 212 627 L 204 574"/>
<path style="--d:2s;" pathLength="3333" clip-path="url(#z20896c2)" d="M 285 694 L 304 705 L 448 733 L 615 757 L 717 765 L 754 747 L 766 723 L 705 640"/>
<path style="--d:3s;" pathLength="3333" clip-path="url(#z20896c3)" d="M 275 560 L 336 557 L 418 582 L 478 585"/>
<path style="--d:4s;" pathLength="3333" clip-path="url(#z20896c4)" d="M 177 406 L 198 401 L 257 404 L 475 453 L 509 451"/>
<path style="--d:5s;" pathLength="3333" clip-path="url(#z20896c5)" d="M 262 379 L 288 349 L 264 287 L 232 231 L 179 169 L 113 118 L 75 99"/>
<path style="--d:6s;" pathLength="3333" clip-path="url(#z20896c6)" d="M 369 401 L 399 385 L 415 357 L 401 206 L 409 127 L 418 95 L 444 63 L 490 41 L 579 26 L 657 22 L 774 31 L 868 55 L 900 76 L 888 218"/>
<path style="--d:7s;" pathLength="3333" clip-path="url(#z20896c7)" d="M 551 460 L 608 456 L 773 491 L 824 496 L 853 491"/>
<path style="--d:8s;" pathLength="3333" clip-path="url(#z20896c8)" d="M 657 613 L 673 602 L 700 567 L 702 198 L 684 156 L 663 159 L 578 198"/>
<path style="--d:9s;" pathLength="3333" clip-path="url(#z20896c9)" d="M 516 362 L 582 315 L 595 288"/>
</svg>