<svg id="z21545" class="acjk" viewBox="0 0 1024 1024" xmlns="http://www.w3.org/2000/svg">
<style>
<![CDATA[
@keyframes zk {
	to {
		stroke-dashoffset:0;
	}
}
svg.acjk path[clip-path] {
	--t:0.8s;
	animation:zk var(--t) linear forwards var(--d);
	stroke-dasharray:3337;
	stroke-dashoffset:3339;
	stroke-width:128;
	stroke-linecap:round;
	stroke-linejoin:round;
	fill:none;
	stroke:#000;
}
svg.acjk path[id] {fill:#ccc;}
]]>
</style>
  <path id="z21545d1" d="M 127 554 Q 117 561 81 570 Q 68 574 65 569 Q 58 563 66 546 Q 97 467 108 338 Q 109 299 129 272 Q 145 250 151 265 Q 161 290 156 338 L 151 373 Q 135 488 133 524 C 131 552 131 552 127 554 Z"/>
  <path id="z21545d2" d="M 286 399 Q 304 502 332 534 Q 354 562 330 576 Q 309 586 280 603 Q 261 613 242 601 Q 217 585 185 572 Q 160 563 127 554 C 98 546 104 515 133 524 Q 172 537 222 548 Q 246 555 251 545 Q 261 538 252 495 Q 245 452 234 401 C 228 372 281 369 286 399 Z"/>
  <path id="z21545d3" d="M 156 338 Q 241 359 299 369 Q 309 370 310 380 Q 310 387 286 399 L 234 401 Q 231 401 230 400 Q 185 384 151 373 C 122 364 127 331 156 338 Z"/>
  <path id="z21545d4" d="M 448 619 Q 467 562 393 442 Q 392 441 390 438 Q 368 404 312 336 Q 305 329 315 328 Q 357 335 440 431 Q 444 440 452 448 Q 480 488 523 567 Q 529 577 533 582 Q 540 589 537 598 Q 534 608 520 618 Q 481 646 453 634 Q 444 631 448 619 Z"/>
  <path id="z21545d5" d="M 554 779 Q 597 752 636 683 Q 756 449 820 431 Q 929 431 973 433 Q 1000 434 1000 442 Q 1000 449 975 458 Q 932 474 883 496 Q 825 517 776 570 Q 727 619 646 754 Q 624 791 583 795 Q 553 798 551 790 Q 547 781 554 779 Z"/>
  <path id="z21545d6" d="M 539 337 Q 609 356 666 366 Q 687 367 691 362 Q 701 346 696 303 Q 686 183 659 131 Q 641 97 611 100 Q 584 106 560 114 Q 533 121 553 97 Q 601 54 623 21 Q 645 -1 664 18 Q 695 43 718 85 Q 743 134 757 285 Q 763 339 781 365 Q 793 378 786 389 Q 776 401 724 422 Q 702 429 684 416 Q 660 401 571 380 Q 481 355 405 348 Q 389 347 386 338 Q 385 331 408 320 Q 432 305 451 313 Q 473 320 496 326 L 539 337 Z"/>
  <path id="z21545d7" d="M 496 326 Q 497 214 391 116 Q 363 85 289 30 Q 280 23 287 19 Q 314 9 404 69 Q 485 118 548 247 Q 558 266 573 287 Q 582 296 576 307 Q 570 317 541 337 Q 540 338 539 337 C 513 352 497 356 496 326 Z"/>
<defs>
  <clipPath id="z21545c1"><use href="#z21545d1"/></clipPath>
  <clipPath id="z21545c2"><use href="#z21545d2"/></clipPath>
  <clipPath id="z21545c3"><use href="#z21545d3"/></clipPath>
  <clipPath id="z21545c4"><use href="#z21545d4"/></clipPath>
  <clipPath id="z21545c5"><use href="#z21545d5"/></clipPath>
  <clipPath id="z21545c6"><use href="#z21545d6"/></clipPath>
  <clipPath id="z21545c7"><use href="#z21545d7"/></clipPath>
</defs>
<path style="--d:1s;" pathLength="3333" clip-path="url(#z21545c1)" d="M 72 561 L 104 525 L 141 271"/>
<path style="--d:2s;" pathLength="3333" clip-path="url(#z21545c2)" d="M 138 533 L 155 547 L 248 576 L 264 575 L 294 550 L 265 425 L 241 408"/>
<path style="--d:3s;" pathLength="3333" clip-path="url(#z21545c3)" d="M 163 345 L 168 358 L 230 378 L 289 383 L 300 379"/>
<path style="--d:4s;" pathLength="3333" clip-path="url(#z21545c4)" d="M 462 623 L 491 590 L 454 499 L 404 420 L 349 359 L 318 334"/>
<path style="--d:5s;" pathLength="3333" clip-path="url(#z21545c5)" d="M 559 786 L 588 777 L 615 757 L 722 585 L 809 487 L 851 468 L 993 443"/>
<path style="--d:6s;" pathLength="3333" clip-path="url(#z21545c6)" d="M 394 337 L 434 330 L 453 333 L 693 391 L 711 390 L 733 372 L 715 198 L 701 140 L 682 97 L 646 62 L 553 107"/>
<path style="--d:7s;" pathLength="3333" clip-path="url(#z21545c7)" d="M 506 318 L 533 296 L 510 236 L 470 165 L 383 77 L 292 24"/>
</svg>