<svg id="z21310" class="acjk" viewBox="0 0 1024 1024" xmlns="http://www.w3.org/2000/svg">
<style>
<![CDATA[
@keyframes zk {
	to {
		stroke-dashoffset:0;
	}
}
svg.acjk path[clip-path] {
	--t:0.8s;
	animation:zk var(--t) linear forwards var(--d);
	stroke-dasharray:3337;
	stroke-dashoffset:3339;
	stroke-width:128;
	stroke-linecap:round;
	stroke-linejoin:round;
	fill:none;
	stroke:#000;
}
svg.acjk path[id] {fill:#ccc;}
]]>
</style>
  <path id="z21310d1" d="M 289 735 Q 328 716 373 721 Q 529 737 690 754 Q 765 764 776 773 Q 786 780 782 788 Q 776 801 749 810 Q 719 820 621 795 Q 452 762 293 762 Q 290 762 288 761 C 258 759 261 747 289 735 Z"/>
  <path id="z21310d2" d="M 505 677 Q 566 632 577 632 Q 586 633 589 644 Q 592 657 583 680 Q 571 707 498 715 Q 485 716 480 715 Q 476 711 478 701 Q 482 692 505 677 Z"/>
  <path id="z21310d3" d="M 676 524 Q 695 564 716 574 Q 731 590 719 605 Q 704 618 659 640 Q 644 647 575 622 Q 497 603 436 592 C 406 587 409 560 439 563 Q 451 563 466 568 Q 539 581 609 596 Q 628 600 635 593 Q 639 589 629 528 C 624 498 663 497 676 524 Z"/>
  <path id="z21310d4" d="M 418 460 Q 430 454 448 456 Q 524 475 689 492 Q 699 493 700 501 Q 700 508 676 524 C 660 535 658 534 629 528 L 628 528 Q 516 500 424 486 C 394 481 390 470 418 460 Z"/>
  <path id="z21310d5" d="M 399 392 Q 400 393 401 395 Q 411 428 418 460 L 424 486 Q 434 556 439 563 C 446 584 446 584 436 592 Q 424 602 407 612 Q 392 622 382 618 Q 372 614 377 602 Q 389 578 383 532 Q 379 448 344 351 Q 319 291 266 217 Q 262 213 260 207 Q 259 198 266 200 Q 299 206 360 300 Q 360 303 363 306 Q 373 328 384 351 L 399 392 Z"/>
  <path id="z21310d6" d="M 409 385 Q 405 389 399 392 C 373 408 378 380 384 351 Q 394 312 378 197 Q 369 166 401 141 Q 411 134 413 142 Q 417 143 420 160 Q 424 175 422 227 Q 421 318 424 352 C 426 372 426 372 409 385 Z"/>
  <path id="z21310d7" d="M 612 392 Q 652 399 701 400 Q 719 399 727 390 Q 733 383 729 370 Q 736 225 728 204 Q 725 197 715 199 Q 690 202 661 207 Q 637 208 655 194 Q 715 154 740 122 Q 750 112 760 120 Q 784 144 781 273 Q 774 343 791 374 Q 803 390 797 397 Q 791 407 749 434 Q 734 444 694 432 Q 676 428 654 423 Q 576 416 409 385 C 379 380 395 345 424 352 Q 431 352 441 355 Q 454 361 477 366 L 500 372 Q 533 384 581 388 L 612 392 Z"/>
  <path id="z21310d8" d="M 635 282 Q 666 288 699 291 Q 720 294 712 305 Q 703 318 681 324 Q 665 327 639 321 L 592 312 Q 558 305 527 298 L 488 290 Q 466 287 447 283 Q 432 280 450 266 Q 462 257 489 261 L 526 266 Q 557 272 592 276 L 635 282 Z"/>
  <path id="z21310d9" d="M 477 366 Q 477 363 479 358 Q 486 330 488 290 L 489 261 Q 489 186 497 171 Q 507 152 514 163 Q 524 179 525 218 Q 525 245 526 266 L 527 298 Q 528 356 529 357 Q 522 364 500 372 C 473 382 473 382 477 366 Z"/>
  <path id="z21310d10" d="M 593 159 Q 597 141 601 134 Q 605 130 610 131 Q 614 132 619 144 Q 625 160 635 282 L 639 321 Q 639 334 645 358 Q 648 370 638 377 Q 622 389 612 392 C 584 404 573 408 581 388 Q 581 387 587 374 Q 591 367 592 312 L 592 276 Q 592 171 593 159 Z"/>
  <path id="z21310d11" d="M 288 761 Q 261 788 220 792 Q 207 793 198 787 Q 188 780 202 762 Q 229 729 215 342 Q 197 86 161 58 Q 139 40 151 21 Q 157 5 172 -9 Q 184 -18 210 -6 Q 291 57 715 36 Q 802 33 843 25 Q 868 19 881 26 Q 893 32 893 39 Q 893 54 859 78 Q 825 100 805 100 Q 759 99 398 71 Q 260 55 251 69 Q 242 78 252 206 Q 252 305 280 642 Q 283 715 289 735 C 292 758 292 758 288 761 Z"/>
<defs>
  <clipPath id="z21310c1"><use href="#z21310d1"/></clipPath>
  <clipPath id="z21310c2"><use href="#z21310d2"/></clipPath>
  <clipPath id="z21310c3"><use href="#z21310d3"/></clipPath>
  <clipPath id="z21310c4"><use href="#z21310d4"/></clipPath>
  <clipPath id="z21310c5"><use href="#z21310d5"/></clipPath>
  <clipPath id="z21310c6"><use href="#z21310d6"/></clipPath>
  <clipPath id="z21310c7"><use href="#z21310d7"/></clipPath>
  <clipPath id="z21310c8"><use href="#z21310d8"/></clipPath>
  <clipPath id="z21310c9"><use href="#z21310d9"/></clipPath>
  <clipPath id="z21310c10"><use href="#z21310d10"/></clipPath>
  <clipPath id="z21310c11"><use href="#z21310d11"/></clipPath>
</defs>
<path style="--d:1s;" pathLength="3333" clip-path="url(#z21310c1)" d="M 292 755 L 305 746 L 351 741 L 488 753 L 727 787 L 772 783"/>
<path style="--d:2s;" pathLength="3333" clip-path="url(#z21310c2)" d="M 484 707 L 559 670 L 577 642"/>
<path style="--d:3s;" pathLength="3333" clip-path="url(#z21310c3)" d="M 445 571 L 459 582 L 611 616 L 641 617 L 656 612 L 674 589 L 660 553 L 638 538"/>
<path style="--d:4s;" pathLength="3333" clip-path="url(#z21310c4)" d="M 427 465 L 625 507 L 667 508 L 691 500"/>
<path style="--d:5s;" pathLength="3333" clip-path="url(#z21310c5)" d="M 385 608 L 409 582 L 412 568 L 405 502 L 383 405 L 360 341 L 329 280 L 268 208"/>
<path style="--d:6s;" pathLength="3333" clip-path="url(#z21310c6)" d="M 401 384 L 406 296 L 399 179 L 406 151"/>
<path style="--d:7s;" pathLength="3333" clip-path="url(#z21310c7)" d="M 420 383 L 435 372 L 548 398 L 707 418 L 723 418 L 745 408 L 762 387 L 754 334 L 757 216 L 749 182 L 741 171 L 722 174 L 667 197"/>
<path style="--d:8s;" pathLength="3333" clip-path="url(#z21310c8)" d="M 448 274 L 480 274 L 664 306 L 704 300"/>
<path style="--d:9s;" pathLength="3333" clip-path="url(#z21310c9)" d="M 484 363 L 505 344 L 509 311 L 507 169"/>
<path style="--d:10s;" pathLength="3333" clip-path="url(#z21310c10)" d="M 589 383 L 606 374 L 618 356 L 609 142"/>
<path style="--d:11s;" pathLength="3333" clip-path="url(#z21310c11)" d="M 208 777 L 235 760 L 250 740 L 237 343 L 228 194 L 210 47 L 261 41 L 466 61 L 789 66 L 822 62 L 881 40"/>
</svg>