<svg id="z26262" class="acjk" viewBox="0 0 1024 1024" xmlns="http://www.w3.org/2000/svg">
<style>
<![CDATA[
@keyframes zk {
	to {
		stroke-dashoffset:0;
	}
}
svg.acjk path[clip-path] {
	--t:0.8s;
	animation:zk var(--t) linear forwards var(--d);
	stroke-dasharray:3337;
	stroke-dashoffset:3339;
	stroke-width:128;
	stroke-linecap:round;
	stroke-linejoin:round;
	fill:none;
	stroke:#000;
}
svg.acjk path[id] {fill:#ccc;}
]]>
</style>
  <path id="z26262d1" d="M 173 686 Q 163 696 141 704 Q 131 710 120 705 Q 113 701 119 688 Q 138 607 140 596 Q 139 593 140 589 Q 152 376 117 244 Q 104 189 138 145 Q 148 132 159 144 Q 171 159 171 183 L 174 212 Q 174 218 179 434 L 180 468 Q 184 628 187 643 Q 188 653 188 661 C 189 675 189 675 173 686 Z"/>
  <path id="z26262d2" d="M 271 195 Q 281 180 290 165 Q 306 141 313 144 Q 326 145 340 181 Q 355 220 350 268 Q 329 614 356 666 Q 366 684 358 694 Q 351 704 302 720 Q 280 729 262 719 Q 213 697 173 686 C 144 677 159 655 188 661 Q 275 679 281 675 L 282 674 Q 295 661 296 604 Q 297 375 287 248 Q 288 235 283 230 C 277 201 267 201 271 195 Z"/>
  <path id="z26262d3" d="M 179 434 Q 182 434 264 445 Q 289 452 278 464 Q 265 479 238 481 Q 216 482 180 468 C 152 457 149 431 179 434 Z"/>
  <path id="z26262d4" d="M 171 183 Q 226 192 271 195 C 301 197 311 220 283 230 Q 283 231 281 231 Q 251 237 174 212 C 145 203 141 178 171 183 Z"/>
  <path id="z26262d5" d="M 646 797 Q 592 754 465 703 Q 461 696 465 692 Q 522 692 651 741 Q 675 759 740 766 Q 756 767 759 774 Q 763 784 752 794 Q 697 836 668 833 Q 661 830 660 820 Q 659 807 646 797 Z"/>
  <path id="z26262d6" d="M 451 615 Q 470 593 489 566 Q 498 553 511 552 Q 518 551 525 561 Q 531 571 528 597 Q 525 621 454 655 Q 441 659 436 659 Q 432 656 431 645 Q 432 636 451 615 Z"/>
  <path id="z26262d7" d="M 558 664 Q 591 598 612 593 Q 622 589 631 603 Q 634 613 630 632 Q 626 647 607 659 Q 579 680 567 685 Q 560 688 557 679 Q 554 672 558 664 Z"/>
  <path id="z26262d8" d="M 760 694 Q 748 676 687 609 Q 677 594 693 596 Q 741 618 797 650 Q 816 663 839 672 Q 860 679 850 697 Q 840 713 815 729 Q 794 744 782 742 Q 769 741 773 728 Q 774 712 760 694 Z"/>
  <path id="z26262d9" d="M 568 481 Q 761 527 767 532 Q 774 539 771 546 Q 764 556 739 562 Q 715 566 610 531 Q 547 515 467 504 Q 436 498 458 484 Q 485 469 528 472 L 568 481 Z"/>
  <path id="z26262d10" d="M 565 380 Q 620 398 815 405 Q 866 405 872 414 Q 876 424 862 436 Q 813 469 756 452 Q 602 422 581 416 L 518 405 Q 454 395 390 383 Q 372 382 386 367 Q 399 355 414 351 Q 423 350 505 368 L 565 380 Z"/>
  <path id="z26262d11" d="M 532 300 Q 563 378 565 380 L 581 416 Q 594 446 595 450 Q 585 466 568 481 C 547 502 525 502 528 472 Q 534 453 518 405 L 505 368 Q 439 170 280 29 Q 274 25 271 20 Q 267 11 276 11 Q 310 8 410 106 Q 414 113 422 119 Q 459 165 492 221 L 502 240 Q 511 259 521 275 L 532 300 Z"/>
  <path id="z26262d12" d="M 673 124 Q 706 169 728 235 Q 737 268 755 283 Q 771 296 755 311 Q 736 327 706 340 Q 687 347 665 339 Q 613 312 541 302 Q 537 302 532 300 C 502 295 491 277 521 275 Q 545 268 658 296 Q 674 302 676 282 Q 676 219 633 152 L 611 122 Q 601 112 591 101 Q 542 59 413 25 Q 398 22 407 14 Q 414 8 441 10 Q 579 25 644 89 L 673 124 Z"/>
  <path id="z26262d13" d="M 644 89 Q 758 -22 796 -22 Q 877 -19 940 -4 Q 974 3 970 12 Q 967 18 880 37 Q 754 70 673 124 L 633 152 Q 602 179 567 209 Q 533 242 502 240 C 472 242 466 236 492 221 Q 531 202 611 122 L 644 89 Z"/>
<defs>
  <clipPath id="z26262c1"><use href="#z26262d1"/></clipPath>
  <clipPath id="z26262c2"><use href="#z26262d2"/></clipPath>
  <clipPath id="z26262c3"><use href="#z26262d3"/></clipPath>
  <clipPath id="z26262c4"><use href="#z26262d4"/></clipPath>
  <clipPath id="z26262c5"><use href="#z26262d5"/></clipPath>
  <clipPath id="z26262c6"><use href="#z26262d6"/></clipPath>
  <clipPath id="z26262c7"><use href="#z26262d7"/></clipPath>
  <clipPath id="z26262c8"><use href="#z26262d8"/></clipPath>
  <clipPath id="z26262c9"><use href="#z26262d9"/></clipPath>
  <clipPath id="z26262c10"><use href="#z26262d10"/></clipPath>
  <clipPath id="z26262c11"><use href="#z26262d11"/></clipPath>
  <clipPath id="z26262c12"><use href="#z26262d12"/></clipPath>
  <clipPath id="z26262c13"><use href="#z26262d13"/></clipPath>
</defs>
<path style="--d:1s;" pathLength="3333" clip-path="url(#z26262c1)" d="M 127 696 L 153 666 L 162 603 L 160 364 L 143 219 L 149 150"/>
<path style="--d:2s;" pathLength="3333" clip-path="url(#z26262c2)" d="M 181 683 L 199 676 L 283 700 L 304 692 L 321 676 L 321 280 L 319 232 L 310 198 L 312 156"/>
<path style="--d:3s;" pathLength="3333" clip-path="url(#z26262c3)" d="M 180 440 L 198 455 L 223 460 L 268 457"/>
<path style="--d:4s;" pathLength="3333" clip-path="url(#z26262c4)" d="M 178 190 L 189 202 L 250 211 L 279 225"/>
<path style="--d:5s;" pathLength="3333" clip-path="url(#z26262c5)" d="M 749 779 L 688 793 L 615 749 L 469 698"/>
<path style="--d:6s;" pathLength="3333" clip-path="url(#z26262c6)" d="M 438 650 L 488 609 L 502 593 L 511 568"/>
<path style="--d:7s;" pathLength="3333" clip-path="url(#z26262c7)" d="M 567 673 L 604 631 L 616 608"/>
<path style="--d:8s;" pathLength="3333" clip-path="url(#z26262c8)" d="M 781 733 L 796 713 L 801 693 L 753 649 L 699 613 L 696 605"/>
<path style="--d:9s;" pathLength="3333" clip-path="url(#z26262c9)" d="M 460 495 L 519 491 L 578 501 L 699 536 L 761 541"/>
<path style="--d:10s;" pathLength="3333" clip-path="url(#z26262c10)" d="M 388 375 L 421 370 L 466 376 L 748 428 L 807 431 L 864 419"/>
<path style="--d:11s;" pathLength="3333" clip-path="url(#z26262c11)" d="M 536 469 L 560 446 L 558 436 L 515 321 L 469 226 L 419 150 L 373 94 L 299 29 L 279 19"/>
<path style="--d:12s;" pathLength="3333" clip-path="url(#z26262c12)" d="M 525 281 L 678 319 L 693 314 L 713 293 L 695 221 L 671 167 L 641 121 L 606 85 L 561 57 L 502 35 L 413 18"/>
<path style="--d:13s;" pathLength="3333" clip-path="url(#z26262c13)" d="M 499 224 L 517 224 L 538 212 L 669 96 L 786 23 L 833 14 L 966 10"/>
</svg>