<svg id="z26438" class="acjk" viewBox="0 0 1024 1024" xmlns="http://www.w3.org/2000/svg">
<style>
<![CDATA[
@keyframes zk {
	to {
		stroke-dashoffset:0;
	}
}
svg.acjk path[clip-path] {
	--t:0.8s;
	animation:zk var(--t) linear forwards var(--d);
	stroke-dasharray:3337;
	stroke-dashoffset:3339;
	stroke-width:128;
	stroke-linecap:round;
	stroke-linejoin:round;
	fill:none;
	stroke:#000;
}
svg.acjk path[id] {fill:#ccc;}
]]>
</style>
  <path id="z26438d1" d="M 320 532 Q 422 559 428 563 Q 437 572 432 580 Q 423 592 394 598 Q 352 605 321 585 L 279 571 Q 131 541 121 538 Q 84 531 111 514 Q 156 495 221 510 Q 242 516 266 519 L 320 532 Z"/>
  <path id="z26438d2" d="M 317 394 Q 318 458 320 532 L 321 585 Q 321 682 341 754 Q 356 779 326 799 Q 311 811 286 825 Q 264 841 243 827 Q 239 823 245 807 Q 276 758 278 709 Q 278 645 279 571 L 276 422 Q 272 343 272 257 Q 268 181 246 109 Q 236 72 260 10 Q 267 -8 275 -11 Q 281 -18 288 -9 Q 315 7 315 70 Q 314 107 317 362 L 317 394 Z"/>
  <path id="z26438d3" d="M 266 519 Q 241 447 205 381 Q 165 311 70 181 Q 64 171 76 170 Q 97 170 198 294 Q 238 346 276 422 C 339 547 276 547 266 519 Z"/>
  <path id="z26438d4" d="M 317 362 Q 330 356 382 304 Q 392 294 405 294 Q 412 294 417 305 Q 421 315 415 339 Q 411 358 381 373 Q 353 385 321 394 Q 318 395 317 394 C 287 395 291 377 317 362 Z"/>
  <path id="z26438d5" d="M 667 616 Q 688 622 819 651 Q 831 650 839 664 Q 839 677 815 685 Q 781 706 705 676 Q 602 649 518 630 Q 488 624 513 608 Q 549 586 599 599 Q 602 600 607 601 L 667 616 Z"/>
  <path id="z26438d6" d="M 686 406 Q 767 419 890 424 Q 947 424 953 435 Q 959 448 940 461 Q 880 500 820 481 Q 765 469 687 450 L 631 439 Q 540 423 436 404 Q 414 400 431 383 Q 465 355 512 369 Q 567 387 631 396 L 686 406 Z"/>
  <path id="z26438d7" d="M 632 -32 Q 638 -59 645 -69 Q 651 -76 659 -74 Q 674 -65 681 -2 Q 690 79 687 158 Q 684 215 686 406 L 687 450 Q 687 525 699 576 Q 702 595 687 604 Q 677 611 667 616 C 641 631 595 628 607 601 Q 628 565 630 476 Q 630 460 631 439 L 631 396 Q 625 33 632 -32 Z"/>
<defs>
  <clipPath id="z26438c1"><use href="#z26438d1"/></clipPath>
  <clipPath id="z26438c2"><use href="#z26438d2"/></clipPath>
  <clipPath id="z26438c3"><use href="#z26438d3"/></clipPath>
  <clipPath id="z26438c4"><use href="#z26438d4"/></clipPath>
  <clipPath id="z26438c5"><use href="#z26438d5"/></clipPath>
  <clipPath id="z26438c6"><use href="#z26438d6"/></clipPath>
  <clipPath id="z26438c7"><use href="#z26438d7"/></clipPath>
</defs>
<path style="--d:1s;" pathLength="3333" clip-path="url(#z26438c1)" d="M 113 527 L 135 523 L 191 528 L 360 571 L 422 573"/>
<path style="--d:2s;" pathLength="3333" clip-path="url(#z26438c2)" d="M 254 821 L 300 775 L 306 756 L 295 254 L 279 97 L 280 2"/>
<path style="--d:3s;" pathLength="3333" clip-path="url(#z26438c3)" d="M 273 515 L 253 424 L 224 369 L 160 273 L 77 177"/>
<path style="--d:4s;" pathLength="3333" clip-path="url(#z26438c4)" d="M 319 389 L 383 341 L 403 309"/>
<path style="--d:5s;" pathLength="3333" clip-path="url(#z26438c5)" d="M 513 620 L 561 616 L 742 662 L 784 669 L 827 665"/>
<path style="--d:6s;" pathLength="3333" clip-path="url(#z26438c6)" d="M 434 393 L 488 388 L 599 413 L 835 453 L 893 453 L 943 441"/>
<path style="--d:7s;" pathLength="3333" clip-path="url(#z26438c7)" d="M 615 599 L 659 574 L 655 -64"/>
</svg>