<svg id="z20663" class="acjk" viewBox="0 0 1024 1024" xmlns="http://www.w3.org/2000/svg">
<style>
<![CDATA[
@keyframes zk {
	to {
		stroke-dashoffset:0;
	}
}
svg.acjk path[clip-path] {
	--t:0.8s;
	animation:zk var(--t) linear forwards var(--d);
	stroke-dasharray:3337;
	stroke-dashoffset:3339;
	stroke-width:128;
	stroke-linecap:round;
	stroke-linejoin:round;
	fill:none;
	stroke:#000;
}
svg.acjk path[id] {fill:#ccc;}
]]>
</style>
  <path id="z20663d1" d="M 254 509 Q 293 567 337 638 Q 364 690 389 716 Q 399 726 393 742 Q 389 755 357 779 Q 329 798 308 798 Q 287 795 297 772 Q 313 738 300 709 Q 237 547 71 337 Q 61 327 58 319 Q 54 307 69 310 Q 111 319 211 453 Q 218 463 228 474 L 254 509 Z"/>
  <path id="z20663d2" d="M 228 474 Q 229 468 234 462 Q 264 401 240 216 Q 233 162 218 107 Q 208 62 242 11 Q 243 11 245 8 Q 263 -8 275 19 Q 290 59 289 106 Q 292 365 301 424 Q 308 451 299 462 Q 257 507 254 509 C 233 530 215 501 228 474 Z"/>
  <path id="z20663d3" d="M 536 765 Q 551 789 565 808 Q 574 818 561 832 Q 524 859 500 857 Q 490 856 492 842 Q 505 775 432 683 Q 413 664 405 651 Q 398 638 411 642 Q 424 643 441 657 Q 495 697 525 748 L 536 765 Z"/>
  <path id="z20663d4" d="M 525 748 Q 534 739 565 734 Q 584 733 690 758 Q 783 782 788 786 Q 795 793 791 801 Q 784 811 757 817 Q 729 821 703 809 Q 669 796 630 784 Q 588 774 539 766 Q 536 766 536 765 C 509 759 509 759 525 748 Z"/>
  <path id="z20663d5" d="M 529 655 Q 519 661 500 666 Q 490 670 487 666 Q 481 662 486 647 Q 507 586 510 489 Q 510 461 524 439 Q 536 420 542 432 Q 546 441 547 452 L 549 477 Q 549 501 546 539 L 544 567 Q 543 610 542 627 C 541 649 541 649 529 655 Z"/>
  <path id="z20663d6" d="M 655 470 Q 668 452 681 446 Q 691 439 703 458 Q 716 479 739 593 Q 746 620 765 641 Q 775 651 766 664 Q 753 677 715 699 Q 702 705 650 690 Q 643 690 529 655 C 500 646 514 616 542 627 Q 542 628 544 628 Q 659 673 683 660 Q 696 651 693 634 Q 672 505 657 498 C 646 482 646 482 655 470 Z"/>
  <path id="z20663d7" d="M 546 539 Q 597 552 635 561 Q 654 567 646 578 Q 634 588 612 590 Q 567 590 544 567 C 522 546 517 532 546 539 Z"/>
  <path id="z20663d8" d="M 547 452 Q 550 455 655 470 C 685 474 686 489 657 498 Q 654 499 647 501 Q 617 504 549 477 C 521 466 519 442 547 452 Z"/>
  <path id="z20663d9" d="M 521 354 Q 687 399 914 400 Q 935 400 941 410 Q 945 422 929 434 Q 880 467 841 459 Q 732 429 359 362 Q 340 359 355 343 Q 368 330 386 326 Q 407 322 422 327 Q 446 336 473 342 L 521 354 Z"/>
  <path id="z20663d10" d="M 505 292 Q 518 308 533 321 Q 542 330 533 343 Q 527 349 521 354 C 498 374 480 371 473 342 Q 460 278 386 220 Q 365 204 354 193 Q 347 183 358 184 Q 406 184 481 264 L 505 292 Z"/>
  <path id="z20663d11" d="M 675 285 Q 724 295 770 298 Q 794 299 798 293 Q 808 272 793 224 Q 760 89 719 34 Q 697 3 669 11 Q 650 17 631 24 Q 607 34 623 8 Q 657 -35 671 -66 Q 692 -93 715 -74 Q 752 -52 780 -9 Q 814 40 848 201 Q 860 258 883 284 Q 896 296 891 307 Q 882 319 833 345 Q 814 355 794 343 Q 767 330 666 313 Q 579 297 505 292 C 475 290 454 276 481 264 Q 502 249 524 254 L 552 260 Q 598 270 644 279 L 675 285 Z"/>
  <path id="z20663d12" d="M 524 254 Q 528 221 457 147 Q 426 116 388 86 Q 384 83 382 78 Q 381 75 385 74 Q 443 74 545 188 Q 558 204 568 212 Q 574 219 570 230 Q 563 251 552 260 C 531 281 524 284 524 254 Z"/>
  <path id="z20663d13" d="M 644 279 Q 644 150 404 -34 Q 398 -38 397 -44 Q 396 -48 402 -49 Q 448 -49 570 61 Q 571 64 575 66 Q 632 121 668 170 Q 690 201 706 216 Q 713 225 708 239 Q 690 281 675 285 C 650 302 645 306 644 279 Z"/>
<defs>
  <clipPath id="z20663c1"><use href="#z20663d1"/></clipPath>
  <clipPath id="z20663c2"><use href="#z20663d2"/></clipPath>
  <clipPath id="z20663c3"><use href="#z20663d3"/></clipPath>
  <clipPath id="z20663c4"><use href="#z20663d4"/></clipPath>
  <clipPath id="z20663c5"><use href="#z20663d5"/></clipPath>
  <clipPath id="z20663c6"><use href="#z20663d6"/></clipPath>
  <clipPath id="z20663c7"><use href="#z20663d7"/></clipPath>
  <clipPath id="z20663c8"><use href="#z20663d8"/></clipPath>
  <clipPath id="z20663c9"><use href="#z20663d9"/></clipPath>
  <clipPath id="z20663c10"><use href="#z20663d10"/></clipPath>
  <clipPath id="z20663c11"><use href="#z20663d11"/></clipPath>
  <clipPath id="z20663c12"><use href="#z20663d12"/></clipPath>
  <clipPath id="z20663c13"><use href="#z20663d13"/></clipPath>
</defs>
<path style="--d:1s;" pathLength="3333" clip-path="url(#z20663c1)" d="M 308 783 L 334 757 L 347 733 L 315 661 L 187 455 L 124 374 L 67 319"/>
<path style="--d:2s;" pathLength="3333" clip-path="url(#z20663c2)" d="M 251 502 L 257 471 L 273 445 L 274 417 L 268 234 L 252 85 L 258 20"/>
<path style="--d:3s;" pathLength="3333" clip-path="url(#z20663c3)" d="M 502 847 L 527 812 L 517 785 L 471 706 L 414 650"/>
<path style="--d:4s;" pathLength="3333" clip-path="url(#z20663c4)" d="M 532 749 L 611 759 L 749 797 L 782 795"/>
<path style="--d:5s;" pathLength="3333" clip-path="url(#z20663c5)" d="M 494 659 L 513 634 L 520 609 L 534 438"/>
<path style="--d:6s;" pathLength="3333" clip-path="url(#z20663c6)" d="M 540 634 L 571 655 L 663 679 L 695 679 L 723 658 L 727 650 L 703 543 L 684 486 L 687 461"/>
<path style="--d:7s;" pathLength="3333" clip-path="url(#z20663c7)" d="M 553 547 L 560 560 L 579 567 L 637 572"/>
<path style="--d:8s;" pathLength="3333" clip-path="url(#z20663c8)" d="M 552 459 L 580 475 L 634 483 L 650 491"/>
<path style="--d:9s;" pathLength="3333" clip-path="url(#z20663c9)" d="M 358 352 L 412 348 L 584 388 L 845 429 L 894 426 L 929 415"/>
<path style="--d:10s;" pathLength="3333" clip-path="url(#z20663c10)" d="M 517 344 L 515 331 L 495 320 L 461 268 L 435 241 L 400 212 L 362 191"/>
<path style="--d:11s;" pathLength="3333" clip-path="url(#z20663c11)" d="M 490 264 L 515 273 L 790 319 L 817 318 L 840 295 L 796 117 L 769 47 L 736 -5 L 699 -29 L 624 18"/>
<path style="--d:12s;" pathLength="3333" clip-path="url(#z20663c12)" d="M 532 249 L 545 226 L 509 176 L 446 114 L 388 80"/>
<path style="--d:13s;" pathLength="3333" clip-path="url(#z20663c13)" d="M 653 273 L 669 257 L 673 233 L 620 146 L 550 65 L 516 35 L 448 -18 L 404 -42"/>
</svg>