<svg id="z20146" class="acjk" viewBox="0 0 1024 1024" xmlns="http://www.w3.org/2000/svg">
<style>
<![CDATA[
@keyframes zk {
	to {
		stroke-dashoffset:0;
	}
}
svg.acjk path[clip-path] {
	--t:0.8s;
	animation:zk var(--t) linear forwards var(--d);
	stroke-dasharray:3337;
	stroke-dashoffset:3339;
	stroke-width:128;
	stroke-linecap:round;
	stroke-linejoin:round;
	fill:none;
	stroke:#000;
}
svg.acjk path[id] {fill:#ccc;}
]]>
</style>
  <path id="z20146d1" d="M 450 784 Q 481 762 514 737 Q 530 725 546 728 Q 556 729 561 744 Q 564 760 551 790 Q 536 821 438 833 Q 422 834 416 831 Q 412 827 414 813 Q 418 803 450 784 Z"/>
  <path id="z20146d2" d="M 308 677 Q 271 673 296 654 Q 338 630 412 641 Q 529 659 652 677 Q 712 687 721 695 Q 731 702 726 712 Q 719 725 691 733 Q 654 742 573 715 Q 443 685 308 677 Z"/>
  <path id="z20146d3" d="M 331 569 Q 373 487 397 481 Q 410 477 419 493 Q 423 505 419 526 Q 412 545 390 560 Q 356 587 340 593 Q 333 597 329 586 Q 325 579 331 569 Z"/>
  <path id="z20146d4" d="M 564 464 Q 649 575 667 592 Q 683 602 676 613 Q 669 631 642 653 Q 630 665 613 661 Q 603 657 607 646 Q 614 610 542 486 Q 532 471 530 459 C 522 430 546 440 564 464 Z"/>
  <path id="z20146d5" d="M 494 420 Q 581 430 845 430 Q 866 430 871 439 Q 877 451 860 465 Q 806 507 767 498 Q 686 482 564 464 L 530 459 Q 508 458 487 454 Q 330 435 145 415 Q 123 414 139 395 Q 154 380 172 375 Q 194 369 211 373 Q 371 415 454 415 L 494 420 Z"/>
  <path id="z20146d6" d="M 530 281 Q 600 288 695 288 Q 749 288 755 297 Q 759 307 745 319 Q 696 356 634 338 Q 589 331 531 319 L 481 310 Q 477 311 475 310 Q 369 294 243 276 Q 224 275 238 259 Q 251 246 267 242 Q 286 238 300 242 Q 378 264 482 276 L 530 281 Z"/>
  <path id="z20146d7" d="M 442 60 Q 399 67 358 76 Q 345 77 347 70 Q 348 64 359 57 Q 446 2 479 -36 Q 492 -52 507 -38 Q 540 -4 536 62 Q 533 93 530 281 L 531 319 Q 532 346 541 365 Q 550 383 534 395 Q 515 411 494 420 C 467 433 440 441 454 415 Q 455 411 460 404 Q 479 371 481 310 L 482 276 Q 483 78 466 63 Q 456 56 442 60 Z"/>
  <path id="z20146d8" d="M 327 203 Q 285 154 236 115 Q 209 97 213 55 Q 214 36 238 41 Q 301 63 333 143 Q 348 171 349 196 Q 348 205 342 208 Q 335 209 327 203 Z"/>
  <path id="z20146d9" d="M 618 177 Q 676 128 744 57 Q 760 38 777 33 Q 786 32 793 43 Q 805 56 791 101 Q 775 159 622 208 Q 619 209 618 209 Q 609 213 607 201 Q 607 188 618 177 Z"/>
<defs>
  <clipPath id="z20146c1"><use href="#z20146d1"/></clipPath>
  <clipPath id="z20146c2"><use href="#z20146d2"/></clipPath>
  <clipPath id="z20146c3"><use href="#z20146d3"/></clipPath>
  <clipPath id="z20146c4"><use href="#z20146d4"/></clipPath>
  <clipPath id="z20146c5"><use href="#z20146d5"/></clipPath>
  <clipPath id="z20146c6"><use href="#z20146d6"/></clipPath>
  <clipPath id="z20146c7"><use href="#z20146d7"/></clipPath>
  <clipPath id="z20146c8"><use href="#z20146d8"/></clipPath>
  <clipPath id="z20146c9"><use href="#z20146d9"/></clipPath>
</defs>
<path style="--d:1s;" pathLength="3333" clip-path="url(#z20146c1)" d="M 422 825 L 508 783 L 542 747"/>
<path style="--d:2s;" pathLength="3333" clip-path="url(#z20146c2)" d="M 300 667 L 369 659 L 665 708 L 715 706"/>
<path style="--d:3s;" pathLength="3333" clip-path="url(#z20146c3)" d="M 340 581 L 388 527 L 402 499"/>
<path style="--d:4s;" pathLength="3333" clip-path="url(#z20146c4)" d="M 616 651 L 626 642 L 638 611 L 560 482 L 535 464"/>
<path style="--d:5s;" pathLength="3333" clip-path="url(#z20146c5)" d="M 142 405 L 202 396 L 394 428 L 777 465 L 824 458 L 859 445"/>
<path style="--d:6s;" pathLength="3333" clip-path="url(#z20146c6)" d="M 240 268 L 285 261 L 397 282 L 660 316 L 694 315 L 747 302"/>
<path style="--d:7s;" pathLength="3333" clip-path="url(#z20146c7)" d="M 461 412 L 491 396 L 508 370 L 507 140 L 497 38 L 487 21 L 458 26 L 354 70"/>
<path style="--d:8s;" pathLength="3333" clip-path="url(#z20146c8)" d="M 337 197 L 307 144 L 246 80 L 230 55"/>
<path style="--d:9s;" pathLength="3333" clip-path="url(#z20146c9)" d="M 617 198 L 740 113 L 764 83 L 778 50"/>
</svg>