<svg id="z27249" class="acjk" viewBox="0 0 1024 1024" xmlns="http://www.w3.org/2000/svg">
<style>
<![CDATA[
@keyframes zk {
	to {
		stroke-dashoffset:0;
	}
}
svg.acjk path[clip-path] {
	--t:0.8s;
	animation:zk var(--t) linear forwards var(--d);
	stroke-dasharray:3337;
	stroke-dashoffset:3339;
	stroke-width:128;
	stroke-linecap:round;
	stroke-linejoin:round;
	fill:none;
	stroke:#000;
}
svg.acjk path[id] {fill:#ccc;}
]]>
</style>
  <path id="z27249d1" d="M 289 512 Q 302 516 319 520 Q 352 530 356 534 Q 363 541 359 549 Q 352 559 325 565 Q 307 568 291 563 L 250 548 Q 162 521 98 511 Q 65 504 90 489 Q 127 471 200 490 Q 213 494 230 496 L 289 512 Z"/>
  <path id="z27249d2" d="M 286 434 Q 287 471 289 512 L 291 563 Q 292 654 312 716 Q 319 731 318 743 Q 311 753 259 786 Q 237 802 218 788 Q 212 784 219 768 Q 250 720 250 673 Q 250 615 250 548 L 245 416 Q 241 328 240 234 Q 234 158 213 89 Q 203 53 226 -7 Q 232 -23 239 -27 Q 245 -33 252 -25 Q 279 -9 279 51 Q 278 93 286 403 L 286 434 Z"/>
  <path id="z27249d3" d="M 230 496 Q 188 363 54 159 Q 50 149 59 150 Q 65 149 72 157 Q 183 269 245 416 C 292 525 239 525 230 496 Z"/>
  <path id="z27249d4" d="M 286 403 Q 326 346 344 343 Q 354 342 362 355 Q 363 365 358 384 Q 351 400 331 410 Q 300 429 286 434 C 258 445 269 428 286 403 Z"/>
  <path id="z27249d5" d="M 486 614 Q 517 608 653 635 Q 800 665 811 674 Q 818 681 815 689 Q 808 699 782 707 Q 758 713 660 681 Q 551 654 472 646 Q 469 646 468 645 C 438 640 456 617 486 614 Z"/>
  <path id="z27249d6" d="M 456 383 Q 471 464 478 577 Q 479 608 486 614 C 492 630 492 630 468 645 Q 432 670 413 663 Q 403 656 409 645 Q 451 581 400 333 Q 394 311 388 289 Q 355 193 293 92 Q 289 86 287 80 Q 286 71 295 73 Q 331 80 398 206 Q 404 219 410 233 Q 435 291 451 360 L 456 383 Z"/>
  <path id="z27249d7" d="M 497 493 Q 466 486 490 472 Q 529 454 574 469 Q 605 476 639 485 Q 655 489 657 492 Q 664 499 659 506 Q 652 516 627 520 Q 602 524 576 511 Q 560 505 541 500 Q 522 496 497 493 Z"/>
  <path id="z27249d8" d="M 479 378 Q 473 381 456 383 C 439 385 439 385 451 360 Q 466 329 479 276 Q 482 260 492 248 Q 505 232 509 244 Q 510 248 511 256 L 509 280 Q 500 344 498 360 C 497 372 497 372 479 378 Z"/>
  <path id="z27249d9" d="M 617 302 Q 629 353 644 368 Q 660 387 643 397 Q 595 421 593 420 Q 587 420 580 416 Q 550 395 479 378 C 450 371 470 350 498 360 Q 507 364 564 378 Q 583 382 587 376 Q 590 373 579 304 C 574 274 610 273 617 302 Z"/>
  <path id="z27249d10" d="M 511 256 Q 518 255 527 258 Q 558 268 626 281 Q 633 282 633 289 Q 633 293 617 302 C 613 304 609 304 579 304 Q 578 305 575 304 Q 538 289 509 280 C 480 271 481 258 511 256 Z"/>
  <path id="z27249d11" d="M 449 190 Q 480 124 498 118 Q 507 114 515 126 Q 519 135 516 151 Q 512 167 495 180 Q 470 202 457 208 Q 451 212 448 203 Q 445 199 449 190 Z"/>
  <path id="z27249d12" d="M 594 128 Q 597 134 602 141 Q 614 159 626 182 Q 630 192 641 205 Q 651 215 645 222 Q 638 235 614 248 Q 604 255 591 250 Q 584 247 589 239 Q 596 220 574 141 Q 570 131 569 121 C 565 91 580 102 594 128 Z"/>
  <path id="z27249d13" d="M 569 121 Q 508 108 443 90 Q 430 86 406 88 Q 396 87 393 78 Q 392 66 399 60 Q 418 45 446 28 Q 456 25 466 33 Q 482 45 615 107 Q 633 114 645 125 Q 657 131 657 139 Q 653 143 642 142 Q 618 136 594 128 L 569 121 Z"/>
  <path id="z27249d14" d="M 841 396 Q 847 399 926 411 Q 935 410 942 421 Q 943 431 923 439 Q 899 455 841 436 L 793 423 Q 738 411 678 401 Q 654 397 674 383 Q 699 365 739 372 Q 761 378 794 385 L 841 396 Z"/>
  <path id="z27249d15" d="M 794 385 Q 795 282 801 96 Q 801 80 792 73 Q 788 70 719 84 Q 688 94 691 85 Q 692 78 711 65 Q 772 19 788 -9 Q 807 -40 822 -41 Q 835 -41 848 -9 Q 864 33 860 101 Q 844 248 841 396 L 841 436 Q 842 505 853 542 Q 868 570 816 589 Q 785 605 767 598 Q 751 592 766 571 Q 787 547 789 516 Q 790 506 793 423 L 794 385 Z"/>
  <path id="z27249d16" d="M 684 254 Q 703 233 723 208 Q 732 198 744 196 Q 751 195 757 205 Q 763 215 759 239 Q 755 263 685 292 Q 673 296 668 294 Q 664 293 664 282 Q 665 273 684 254 Z"/>
<defs>
  <clipPath id="z27249c1"><use href="#z27249d1"/></clipPath>
  <clipPath id="z27249c2"><use href="#z27249d2"/></clipPath>
  <clipPath id="z27249c3"><use href="#z27249d3"/></clipPath>
  <clipPath id="z27249c4"><use href="#z27249d4"/></clipPath>
  <clipPath id="z27249c5"><use href="#z27249d5"/></clipPath>
  <clipPath id="z27249c6"><use href="#z27249d6"/></clipPath>
  <clipPath id="z27249c7"><use href="#z27249d7"/></clipPath>
  <clipPath id="z27249c8"><use href="#z27249d8"/></clipPath>
  <clipPath id="z27249c9"><use href="#z27249d9"/></clipPath>
  <clipPath id="z27249c10"><use href="#z27249d10"/></clipPath>
  <clipPath id="z27249c11"><use href="#z27249d11"/></clipPath>
  <clipPath id="z27249c12"><use href="#z27249d12"/></clipPath>
  <clipPath id="z27249c13"><use href="#z27249d13"/></clipPath>
  <clipPath id="z27249c14"><use href="#z27249d14"/></clipPath>
  <clipPath id="z27249c15"><use href="#z27249d15"/></clipPath>
  <clipPath id="z27249c16"><use href="#z27249d16"/></clipPath>
</defs>
<path style="--d:1s;" pathLength="3333" clip-path="url(#z27249c1)" d="M 91 501 L 150 501 L 302 541 L 348 543"/>
<path style="--d:2s;" pathLength="3333" clip-path="url(#z27249c2)" d="M 230 779 L 278 730 L 262 230 L 244 70 L 244 -16"/>
<path style="--d:3s;" pathLength="3333" clip-path="url(#z27249c3)" d="M 245 494 L 237 488 L 223 417 L 183 334 L 118 230 L 63 158"/>
<path style="--d:4s;" pathLength="3333" clip-path="url(#z27249c4)" d="M 287 426 L 336 377 L 345 357"/>
<path style="--d:5s;" pathLength="3333" clip-path="url(#z27249c5)" d="M 471 640 L 515 632 L 615 647 L 751 682 L 804 684"/>
<path style="--d:6s;" pathLength="3333" clip-path="url(#z27249c6)" d="M 419 652 L 446 629 L 453 607 L 450 505 L 428 358 L 409 286 L 366 182 L 313 98 L 296 82"/>
<path style="--d:7s;" pathLength="3333" clip-path="url(#z27249c7)" d="M 491 483 L 537 480 L 610 500 L 648 500"/>
<path style="--d:8s;" pathLength="3333" clip-path="url(#z27249c8)" d="M 462 376 L 478 350 L 501 248"/>
<path style="--d:9s;" pathLength="3333" clip-path="url(#z27249c9)" d="M 489 379 L 505 373 L 585 398 L 605 391 L 616 379 L 613 366 L 602 323 L 586 316"/>
<path style="--d:10s;" pathLength="3333" clip-path="url(#z27249c10)" d="M 515 262 L 523 271 L 573 287 L 626 288"/>
<path style="--d:11s;" pathLength="3333" clip-path="url(#z27249c11)" d="M 457 197 L 492 154 L 502 131"/>
<path style="--d:12s;" pathLength="3333" clip-path="url(#z27249c12)" d="M 598 243 L 616 214 L 588 141 L 575 125"/>
<path style="--d:13s;" pathLength="3333" clip-path="url(#z27249c13)" d="M 406 74 L 452 60 L 599 112 L 649 138"/>
<path style="--d:14s;" pathLength="3333" clip-path="url(#z27249c14)" d="M 674 392 L 729 390 L 896 427 L 932 422"/>
<path style="--d:15s;" pathLength="3333" clip-path="url(#z27249c15)" d="M 773 584 L 799 570 L 819 545 L 815 437 L 830 73 L 813 33 L 697 83"/>
<path style="--d:16s;" pathLength="3333" clip-path="url(#z27249c16)" d="M 672 286 L 728 241 L 743 211"/>
</svg>