<svg id="z20002" class="acjk" viewBox="0 0 1024 1024" xmlns="http://www.w3.org/2000/svg">
<style>
<![CDATA[
@keyframes zk {
	to {
		stroke-dashoffset:0;
	}
}
svg.acjk path[clip-path] {
	--t:0.8s;
	animation:zk var(--t) linear forwards var(--d);
	stroke-dasharray:3337;
	stroke-dashoffset:3339;
	stroke-width:128;
	stroke-linecap:round;
	stroke-linejoin:round;
	fill:none;
	stroke:#000;
}
svg.acjk path[id] {fill:#ccc;}
]]>
</style>
  <path id="z20002d1" d="M 515 687 Q 552 697 585 710 Q 634 723 675 726 Q 691 725 697 732 Q 701 742 691 755 Q 672 774 629 797 Q 614 807 600 807 Q 593 804 590 793 Q 584 744 302 660 Q 296 651 302 648 Q 320 642 442 671 Q 451 672 461 674 L 515 687 Z"/>
  <path id="z20002d2" d="M 489 546 Q 387 527 281 521 Q 239 517 268 496 Q 314 466 378 478 Q 433 487 491 496 L 542 503 Q 599 516 658 523 Q 724 536 733 544 Q 743 553 739 562 Q 732 577 699 586 Q 665 595 630 583 Q 587 571 546 559 L 489 546 Z"/>
  <path id="z20002d3" d="M 461 674 Q 479 656 486 599 Q 486 574 489 546 L 491 496 Q 492 435 492 367 C 492 337 531 343 533 373 Q 537 440 542 503 L 546 559 Q 547 569 548 580 Q 555 629 562 648 Q 565 658 545 673 Q 529 682 515 687 C 487 698 443 698 461 674 Z"/>
  <path id="z20002d4" d="M 492 367 Q 491 368 489 367 Q 365 351 300 342 Q 230 329 124 326 Q 109 325 109 313 Q 108 300 128 286 Q 146 273 179 262 Q 189 258 208 267 Q 226 273 300 287 Q 372 306 459 317 L 528 325 Q 768 355 877 345 Q 934 345 937 347 Q 937 350 939 350 Q 946 363 934 376 Q 903 404 857 424 Q 841 430 815 420 Q 733 402 533 373 L 492 367 Z"/>
  <path id="z20002d5" d="M 459 317 Q 459 245 365 151 Q 337 120 282 95 Q 251 83 250 72 Q 247 53 258 29 Q 268 7 282 0 Q 291 -4 304 2 Q 391 50 649 105 Q 671 109 691 111 C 721 115 705 139 675 135 Q 539 119 397 101 Q 385 98 383 102 Q 380 106 389 114 Q 503 249 545 282 Q 563 297 553 309 Q 546 318 528 325 C 502 339 462 347 459 317 Z"/>
  <path id="z20002d6" d="M 691 111 Q 715 77 740 37 Q 753 12 770 4 Q 779 1 790 10 Q 806 23 801 74 Q 797 140 633 238 Q 623 245 619 232 Q 615 217 625 203 Q 649 172 675 135 L 691 111 Z"/>
<defs>
  <clipPath id="z20002c1"><use href="#z20002d1"/></clipPath>
  <clipPath id="z20002c2"><use href="#z20002d2"/></clipPath>
  <clipPath id="z20002c3"><use href="#z20002d3"/></clipPath>
  <clipPath id="z20002c4"><use href="#z20002d4"/></clipPath>
  <clipPath id="z20002c5"><use href="#z20002d5"/></clipPath>
  <clipPath id="z20002c6"><use href="#z20002d6"/></clipPath>
</defs>
<path style="--d:1s;" pathLength="3333" clip-path="url(#z20002c1)" d="M 688 738 L 663 749 L 615 757 L 569 732 L 477 697 L 331 657 L 317 662 L 306 654"/>
<path style="--d:2s;" pathLength="3333" clip-path="url(#z20002c2)" d="M 271 510 L 296 502 L 350 500 L 494 521 L 656 556 L 725 557"/>
<path style="--d:3s;" pathLength="3333" clip-path="url(#z20002c3)" d="M 468 673 L 519 642 L 514 397 L 498 375"/>
<path style="--d:4s;" pathLength="3333" clip-path="url(#z20002c4)" d="M 122 313 L 187 295 L 407 334 L 844 387 L 916 366 L 934 351"/>
<path style="--d:5s;" pathLength="3333" clip-path="url(#z20002c5)" d="M 538 299 L 492 284 L 436 199 L 357 109 L 344 73 L 381 69 L 623 115 L 668 121 L 684 115"/>
<path style="--d:6s;" pathLength="3333" clip-path="url(#z20002c6)" d="M 631 224 L 746 102 L 763 73 L 775 23"/>
</svg>