<svg id="z20711" class="acjk" viewBox="0 0 1024 1024" xmlns="http://www.w3.org/2000/svg">
<style>
<![CDATA[
@keyframes zk {
	to {
		stroke-dashoffset:0;
	}
}
svg.acjk path[clip-path] {
	--t:0.8s;
	animation:zk var(--t) linear forwards var(--d);
	stroke-dasharray:3337;
	stroke-dashoffset:3339;
	stroke-width:128;
	stroke-linecap:round;
	stroke-linejoin:round;
	fill:none;
	stroke:#000;
}
svg.acjk path[id] {fill:#ccc;}
]]>
</style>
  <path id="z20711d1" d="M 218 491 Q 270 555 325 645 Q 350 694 375 717 Q 385 727 380 742 Q 376 755 346 779 Q 318 798 298 798 Q 279 797 287 773 Q 302 742 289 714 Q 225 558 67 364 Q 57 354 54 347 Q 50 335 65 338 Q 98 342 196 463 L 218 491 Z"/>
  <path id="z20711d2" d="M 196 463 Q 214 418 223 370 Q 223 222 200 127 Q 188 76 222 37 Q 223 34 226 32 Q 242 16 254 42 Q 269 82 268 127 Q 265 353 272 403 Q 279 430 270 440 Q 228 486 218 491 C 194 510 185 491 196 463 Z"/>
  <path id="z20711d3" d="M 473 743 Q 510 680 538 664 Q 551 658 563 669 Q 570 681 572 697 Q 565 746 491 778 Q 476 785 466 783 Q 460 783 461 771 Q 460 759 473 743 Z"/>
  <path id="z20711d4" d="M 720 795 Q 701 761 630 678 Q 620 662 638 665 Q 689 696 718 719 Q 778 767 803 779 Q 824 789 813 806 Q 800 822 774 836 Q 750 849 738 846 Q 725 845 730 831 Q 734 813 720 795 Z"/>
  <path id="z20711d5" d="M 409 601 Q 396 605 376 608 Q 364 611 361 606 Q 354 599 363 584 Q 394 521 414 418 Q 418 387 436 367 Q 454 345 459 361 Q 462 371 462 386 L 461 411 Q 460 420 458 429 Q 437 535 433 568 C 429 595 429 595 409 601 Z"/>
  <path id="z20711d6" d="M 730 415 Q 748 387 764 377 Q 774 368 791 390 Q 807 412 841 533 Q 851 564 876 589 Q 889 602 878 617 Q 863 635 820 663 Q 802 672 724 654 Q 703 654 534 623 Q 467 610 409 601 C 379 596 404 560 433 568 Q 491 584 575 598 L 614 606 Q 761 636 780 615 Q 792 602 789 587 Q 761 460 745 443 C 731 417 730 415 730 415 Z"/>
  <path id="z20711d7" d="M 619 434 Q 623 563 627 573 Q 631 588 614 606 C 594 629 569 627 575 598 Q 579 591 582 428 C 583 398 618 404 619 434 Z"/>
  <path id="z20711d8" d="M 486 522 Q 514 468 530 465 Q 539 462 546 474 Q 550 483 546 499 Q 539 521 493 541 Q 487 544 484 535 Q 483 531 486 522 Z"/>
  <path id="z20711d9" d="M 689 553 Q 676 529 647 493 Q 643 489 647 484 Q 651 483 657 486 Q 712 525 739 540 Q 751 544 748 551 Q 744 561 730 573 Q 717 585 702 586 Q 692 586 693 573 Q 694 563 689 553 Z"/>
  <path id="z20711d10" d="M 462 386 Q 472 385 490 387 Q 626 406 730 415 C 760 418 773 431 745 443 Q 741 446 734 447 Q 712 453 619 434 L 582 428 Q 518 421 461 411 C 431 406 432 387 462 386 Z"/>
  <path id="z20711d11" d="M 506 297 Q 488 315 458 312 Q 446 308 452 298 Q 489 222 454 100 Q 430 67 460 22 Q 461 19 465 16 Q 471 4 480 9 Q 490 16 498 40 L 505 67 Q 509 86 510 110 Q 510 138 511 161 L 511 187 Q 512 248 515 266 C 518 287 518 287 506 297 Z"/>
  <path id="z20711d12" d="M 659 55 Q 690 18 711 -17 Q 718 -33 729 -32 Q 744 -31 757 -1 Q 773 33 770 75 Q 764 133 757 242 Q 756 270 770 290 Q 777 303 769 311 Q 751 329 704 349 Q 688 356 673 348 Q 628 327 506 297 C 477 290 485 261 515 266 Q 542 269 663 301 Q 684 305 695 298 Q 720 273 705 79 L 705 77 Q 702 65 693 66 C 671 46 649 67 659 55 Z"/>
  <path id="z20711d13" d="M 511 161 Q 517 161 522 161 Q 600 170 658 174 Q 680 175 673 189 Q 663 202 640 209 Q 618 213 511 187 C 482 180 481 161 511 161 Z"/>
  <path id="z20711d14" d="M 498 40 Q 588 49 659 55 C 689 58 696 58 693 66 Q 693 67 692 70 Q 685 83 664 88 Q 645 92 505 67 C 475 62 468 37 498 40 Z"/>
<defs>
  <clipPath id="z20711c1"><use href="#z20711d1"/></clipPath>
  <clipPath id="z20711c2"><use href="#z20711d2"/></clipPath>
  <clipPath id="z20711c3"><use href="#z20711d3"/></clipPath>
  <clipPath id="z20711c4"><use href="#z20711d4"/></clipPath>
  <clipPath id="z20711c5"><use href="#z20711d5"/></clipPath>
  <clipPath id="z20711c6"><use href="#z20711d6"/></clipPath>
  <clipPath id="z20711c7"><use href="#z20711d7"/></clipPath>
  <clipPath id="z20711c8"><use href="#z20711d8"/></clipPath>
  <clipPath id="z20711c9"><use href="#z20711d9"/></clipPath>
  <clipPath id="z20711c10"><use href="#z20711d10"/></clipPath>
  <clipPath id="z20711c11"><use href="#z20711d11"/></clipPath>
  <clipPath id="z20711c12"><use href="#z20711d12"/></clipPath>
  <clipPath id="z20711c13"><use href="#z20711d13"/></clipPath>
  <clipPath id="z20711c14"><use href="#z20711d14"/></clipPath>
</defs>
<path style="--d:1s;" pathLength="3333" clip-path="url(#z20711c1)" d="M 298 783 L 316 768 L 335 735 L 303 667 L 173 465 L 90 368 L 63 347"/>
<path style="--d:2s;" pathLength="3333" clip-path="url(#z20711c2)" d="M 217 484 L 222 459 L 243 423 L 246 378 L 241 186 L 232 102 L 238 42"/>
<path style="--d:3s;" pathLength="3333" clip-path="url(#z20711c3)" d="M 471 774 L 535 709 L 547 683"/>
<path style="--d:4s;" pathLength="3333" clip-path="url(#z20711c4)" d="M 737 837 L 764 799 L 641 676"/>
<path style="--d:5s;" pathLength="3333" clip-path="url(#z20711c5)" d="M 370 598 L 389 583 L 405 558 L 448 366"/>
<path style="--d:6s;" pathLength="3333" clip-path="url(#z20711c6)" d="M 417 598 L 440 588 L 549 612 L 738 642 L 775 643 L 806 634 L 831 603 L 825 581 L 778 436 L 768 417 L 745 416"/>
<path style="--d:7s;" pathLength="3333" clip-path="url(#z20711c7)" d="M 582 598 L 602 577 L 602 452 L 586 442"/>
<path style="--d:8s;" pathLength="3333" clip-path="url(#z20711c8)" d="M 494 530 L 523 499 L 533 478"/>
<path style="--d:9s;" pathLength="3333" clip-path="url(#z20711c9)" d="M 737 551 L 715 554 L 651 489"/>
<path style="--d:10s;" pathLength="3333" clip-path="url(#z20711c10)" d="M 468 393 L 475 400 L 720 431 L 737 438"/>
<path style="--d:11s;" pathLength="3333" clip-path="url(#z20711c11)" d="M 465 301 L 485 283 L 492 238 L 487 131 L 474 73 L 475 18"/>
<path style="--d:12s;" pathLength="3333" clip-path="url(#z20711c12)" d="M 517 272 L 527 285 L 683 326 L 703 323 L 728 303 L 734 294 L 737 176 L 734 53 L 724 35 L 667 51"/>
<path style="--d:13s;" pathLength="3333" clip-path="url(#z20711c13)" d="M 517 168 L 528 177 L 599 188 L 641 191 L 663 184"/>
<path style="--d:14s;" pathLength="3333" clip-path="url(#z20711c14)" d="M 506 45 L 517 57 L 543 61 L 666 73 L 687 67"/>
</svg>