<svg id="z27123" class="acjk" viewBox="0 0 1024 1024" xmlns="http://www.w3.org/2000/svg">
<style>
<![CDATA[
@keyframes zk {
	to {
		stroke-dashoffset:0;
	}
}
svg.acjk path[clip-path] {
	--t:0.8s;
	animation:zk var(--t) linear forwards var(--d);
	stroke-dasharray:3337;
	stroke-dashoffset:3339;
	stroke-width:128;
	stroke-linecap:round;
	stroke-linejoin:round;
	fill:none;
	stroke:#000;
}
svg.acjk path[id] {fill:#ccc;}
]]>
</style>
  <path id="z27123d1" d="M 384 673 Q 327 666 285 652 Q 269 646 272 667 Q 275 730 268 741 Q 238 771 217 767 Q 208 763 216 747 Q 232 714 229 680 Q 228 649 216 633 Q 201 618 208 607 Q 218 594 233 587 Q 243 581 252 588 Q 274 624 364 638 Q 371 639 376 638 Q 380 639 384 641 C 413 650 414 677 384 673 Z"/>
  <path id="z27123d2" d="M 384 528 Q 383 491 374 456 Q 365 426 386 377 Q 392 364 398 361 Q 402 357 408 362 Q 415 366 422 382 Q 425 392 429 480 Q 429 729 440 770 Q 447 782 445 792 Q 439 799 396 826 Q 377 839 361 826 Q 357 822 362 810 Q 374 795 382 746 Q 382 710 384 673 L 384 641 Q 384 601 384 555 L 384 528 Z"/>
  <path id="z27123d3" d="M 384 555 Q 365 562 350 557 Q 203 520 142 510 Q 132 509 130 502 Q 129 495 140 486 Q 170 465 204 479 Q 223 488 244 493 L 276 502 Q 291 514 384 528 C 414 533 413 546 384 555 Z"/>
  <path id="z27123d4" d="M 244 493 Q 253 420 177 337 Q 158 318 149 305 Q 142 295 154 297 Q 200 307 261 394 Q 267 410 306 465 Q 313 475 302 486 Q 289 495 276 502 C 250 517 241 521 244 493 Z"/>
  <path id="z27123d5" d="M 574 750 Q 590 763 614 785 L 629 799 Q 656 827 658 829 Q 658 847 629 865 Q 614 872 606 872 Q 599 872 599 863 Q 603 824 530 759 Q 511 741 462 708 Q 455 707 463 702 Q 467 702 480 706 Q 490 709 503 711 C 511 712 511 712 519 717 Q 518 718 520 718 Q 542 728 569 747 L 574 750 Z"/>
  <path id="z27123d6" d="M 614 785 Q 629 770 685 776 Q 701 776 706 770 Q 707 764 695 751 Q 640 673 502 591 Q 489 584 500 581 Q 581 581 740 726 Q 759 745 788 763 Q 801 770 798 778 Q 798 785 753 811 Q 744 817 691 804 Q 658 801 629 799 C 599 797 594 796 614 785 Z"/>
  <path id="z27123d7" d="M 569 747 Q 569 735 598 696 Q 607 686 616 684 Q 623 683 629 692 Q 630 699 627 713 Q 623 723 607 732 Q 585 747 575 750 Q 574 751 574 750 C 569 751 569 751 569 747 Z"/>
  <path id="z27123d8" d="M 503 711 Q 504 705 513 692 Q 523 673 535 652 Q 539 643 548 641 Q 552 640 558 645 Q 562 652 564 669 Q 564 688 519 717 C 497 731 497 731 503 711 Z"/>
  <path id="z27123d9" d="M 738 561 Q 799 568 877 569 Q 892 570 896 577 Q 900 587 886 597 Q 841 627 786 610 Q 768 606 748 600 L 689 588 Q 676 587 663 583 Q 578 567 477 550 Q 461 547 473 535 Q 485 525 499 521 Q 515 517 528 521 Q 615 551 692 556 L 738 561 Z"/>
  <path id="z27123d10" d="M 692 556 Q 696 487 696 450 Q 695 431 684 422 Q 678 416 625 420 Q 615 421 615 415 Q 616 409 626 403 Q 678 360 697 333 Q 710 320 722 332 Q 752 363 743 458 Q 734 527 738 561 L 748 600 Q 751 613 739 621 Q 717 639 692 647 Q 676 653 669 646 Q 665 642 674 628 Q 684 609 689 588 L 692 556 Z"/>
  <path id="z27123d11" d="M 537 471 Q 576 423 586 421 Q 593 420 598 429 Q 602 439 599 459 Q 598 472 579 485 Q 534 509 524 506 Q 520 505 520 495 Q 521 488 537 471 Z"/>
  <path id="z27123d12" d="M 527 246 Q 599 253 803 253 Q 822 253 827 262 Q 831 272 816 286 Q 767 325 730 316 Q 649 300 517 280 L 469 274 Q 340 259 192 241 Q 173 240 187 223 Q 200 210 218 204 Q 237 198 253 203 Q 335 225 425 235 L 527 246 Z"/>
  <path id="z27123d13" d="M 517 280 Q 518 302 521 315 Q 524 327 517 332 Q 495 351 478 360 Q 466 364 458 357 Q 452 354 459 345 Q 463 336 469 274 L 467 208 Q 467 64 451 26 Q 444 -4 472 -54 Q 484 -72 491 -78 Q 501 -79 507 -67 Q 519 -37 516 -9 Q 516 30 515 220 L 517 280 Z"/>
  <path id="z27123d14" d="M 425 235 Q 388 144 167 30 Q 151 21 164 17 Q 174 14 212 25 Q 258 35 304 61 Q 344 85 390 125 Q 427 158 452 189 Q 459 201 467 208 C 497 241 450 290 425 235 Z"/>
  <path id="z27123d15" d="M 515 220 Q 599 132 690 51 Q 715 29 754 30 Q 826 30 900 49 Q 919 53 920 58 Q 921 65 906 70 Q 698 127 592 198 Q 579 207 568 215 Q 544 234 527 246 C 503 264 491 245 515 220 Z"/>
<defs>
  <clipPath id="z27123c1"><use href="#z27123d1"/></clipPath>
  <clipPath id="z27123c2"><use href="#z27123d2"/></clipPath>
  <clipPath id="z27123c3"><use href="#z27123d3"/></clipPath>
  <clipPath id="z27123c4"><use href="#z27123d4"/></clipPath>
  <clipPath id="z27123c5"><use href="#z27123d5"/></clipPath>
  <clipPath id="z27123c6"><use href="#z27123d6"/></clipPath>
  <clipPath id="z27123c7"><use href="#z27123d7"/></clipPath>
  <clipPath id="z27123c8"><use href="#z27123d8"/></clipPath>
  <clipPath id="z27123c9"><use href="#z27123d9"/></clipPath>
  <clipPath id="z27123c10"><use href="#z27123d10"/></clipPath>
  <clipPath id="z27123c11"><use href="#z27123d11"/></clipPath>
  <clipPath id="z27123c12"><use href="#z27123d12"/></clipPath>
  <clipPath id="z27123c13"><use href="#z27123d13"/></clipPath>
  <clipPath id="z27123c14"><use href="#z27123d14"/></clipPath>
  <clipPath id="z27123c15"><use href="#z27123d15"/></clipPath>
</defs>
<path style="--d:1s;" pathLength="3333" clip-path="url(#z27123c1)" d="M 222 758 L 249 726 L 251 631 L 368 654 L 377 668"/>
<path style="--d:2s;" pathLength="3333" clip-path="url(#z27123c2)" d="M 371 820 L 394 802 L 409 775 L 408 518 L 399 436 L 402 371"/>
<path style="--d:3s;" pathLength="3333" clip-path="url(#z27123c3)" d="M 140 501 L 153 495 L 182 495 L 376 548"/>
<path style="--d:4s;" pathLength="3333" clip-path="url(#z27123c4)" d="M 251 487 L 274 469 L 241 395 L 200 341 L 157 304"/>
<path style="--d:5s;" pathLength="3333" clip-path="url(#z27123c5)" d="M 609 862 L 624 834 L 594 795 L 542 747 L 466 706"/>
<path style="--d:6s;" pathLength="3333" clip-path="url(#z27123c6)" d="M 620 786 L 706 792 L 742 776 L 716 735 L 655 676 L 575 619 L 504 585"/>
<path style="--d:7s;" pathLength="3333" clip-path="url(#z27123c7)" d="M 574 744 L 617 696"/>
<path style="--d:8s;" pathLength="3333" clip-path="url(#z27123c8)" d="M 508 709 L 532 690 L 549 653"/>
<path style="--d:9s;" pathLength="3333" clip-path="url(#z27123c9)" d="M 485 540 L 519 538 L 614 561 L 812 592 L 887 582"/>
<path style="--d:10s;" pathLength="3333" clip-path="url(#z27123c10)" d="M 676 642 L 717 600 L 719 424 L 703 387 L 621 415"/>
<path style="--d:11s;" pathLength="3333" clip-path="url(#z27123c11)" d="M 527 499 L 577 457 L 588 431"/>
<path style="--d:12s;" pathLength="3333" clip-path="url(#z27123c12)" d="M 190 232 L 243 224 L 390 249 L 740 285 L 779 280 L 816 267"/>
<path style="--d:13s;" pathLength="3333" clip-path="url(#z27123c13)" d="M 466 352 L 493 315 L 492 140 L 483 4 L 493 -68"/>
<path style="--d:14s;" pathLength="3333" clip-path="url(#z27123c14)" d="M 462 232 L 383 145 L 334 105 L 252 55 L 168 23"/>
<path style="--d:15s;" pathLength="3333" clip-path="url(#z27123c15)" d="M 522 238 L 600 165 L 722 83 L 788 67 L 914 59"/>
</svg>