<svg id="z20392" class="acjk" viewBox="0 0 1024 1024" xmlns="http://www.w3.org/2000/svg">
<style>
<![CDATA[
@keyframes zk {
	to {
		stroke-dashoffset:0;
	}
}
svg.acjk path[clip-path] {
	--t:0.8s;
	animation:zk var(--t) linear forwards var(--d);
	stroke-dasharray:3337;
	stroke-dashoffset:3339;
	stroke-width:128;
	stroke-linecap:round;
	stroke-linejoin:round;
	fill:none;
	stroke:#000;
}
svg.acjk path[id] {fill:#ccc;}
]]>
</style>
  <path id="z20392d1" d="M 235 491 Q 284 554 338 637 Q 366 689 393 714 Q 403 724 398 739 Q 394 752 366 776 Q 339 795 320 795 Q 301 794 308 771 Q 323 737 309 707 Q 266 610 203 520 Q 142 433 59 339 Q 49 329 47 323 Q 43 311 57 314 Q 96 318 204 453 Q 205 456 209 459 L 235 491 Z"/>
  <path id="z20392d2" d="M 209 459 Q 230 404 231 362 Q 230 340 230 315 Q 229 216 202 115 Q 192 70 226 19 Q 227 19 229 16 Q 247 0 259 27 Q 274 67 273 114 Q 277 351 285 404 Q 292 431 283 442 Q 241 487 235 491 C 213 511 199 487 209 459 Z"/>
  <path id="z20392d3" d="M 582 684 Q 702 724 726 727 Q 744 727 748 734 Q 752 744 741 757 Q 681 803 649 800 Q 642 797 641 786 Q 635 740 421 660 Q 417 651 422 648 Q 431 645 533 671 L 582 684 Z"/>
  <path id="z20392d4" d="M 651 547 Q 660 550 806 574 Q 816 573 825 586 Q 826 596 803 607 Q 776 628 703 605 Q 661 593 618 582 Q 593 576 571 570 L 511 558 Q 442 549 372 537 Q 344 533 366 516 Q 400 491 427 498 Q 455 505 491 513 L 550 526 Q 583 533 622 542 L 651 547 Z"/>
  <path id="z20392d5" d="M 571 570 Q 593 616 609 632 Q 619 642 615 650 Q 612 669 582 684 C 556 699 521 699 533 671 Q 540 659 541 647 Q 541 628 511 558 L 491 513 Q 460 446 423 397 Q 386 348 303 275 Q 293 262 301 260 Q 322 254 395 312 Q 480 381 550 526 L 571 570 Z"/>
  <path id="z20392d6" d="M 622 542 Q 623 536 630 529 Q 709 424 809 314 Q 839 283 982 310 Q 991 313 992 317 Q 992 321 979 328 Q 844 376 777 430 Q 717 481 651 547 C 630 568 607 568 622 542 Z"/>
  <path id="z20392d7" d="M 473 334 Q 494 282 465 174 Q 458 153 446 128 Q 437 107 382 52 Q 367 42 364 36 Q 361 29 372 29 Q 405 26 448 64 Q 511 115 538 274 Q 542 292 546 302 Q 553 321 535 331 Q 493 358 479 357 Q 460 356 473 334 Z"/>
  <path id="z20392d8" d="M 646 362 Q 670 328 654 104 Q 653 103 653 99 Q 653 80 650 69 Q 637 21 688 -32 Q 691 -36 696 -38 Q 706 -39 712 -26 Q 722 5 718 35 Q 706 269 712 334 Q 713 346 707 352 Q 683 371 665 379 Q 653 383 644 375 Q 638 371 646 362 Z"/>
<defs>
  <clipPath id="z20392c1"><use href="#z20392d1"/></clipPath>
  <clipPath id="z20392c2"><use href="#z20392d2"/></clipPath>
  <clipPath id="z20392c3"><use href="#z20392d3"/></clipPath>
  <clipPath id="z20392c4"><use href="#z20392d4"/></clipPath>
  <clipPath id="z20392c5"><use href="#z20392d5"/></clipPath>
  <clipPath id="z20392c6"><use href="#z20392d6"/></clipPath>
  <clipPath id="z20392c7"><use href="#z20392d7"/></clipPath>
  <clipPath id="z20392c8"><use href="#z20392d8"/></clipPath>
</defs>
<path style="--d:1s;" pathLength="3333" clip-path="url(#z20392c1)" d="M 320 780 L 336 766 L 355 732 L 311 645 L 238 531 L 167 435 L 93 352 L 56 323"/>
<path style="--d:2s;" pathLength="3333" clip-path="url(#z20392c2)" d="M 233 484 L 237 454 L 256 418 L 250 216 L 236 93 L 242 28"/>
<path style="--d:3s;" pathLength="3333" clip-path="url(#z20392c3)" d="M 738 740 L 672 755 L 587 708 L 518 680 L 509 682 L 446 659 L 435 662 L 424 654"/>
<path style="--d:4s;" pathLength="3333" clip-path="url(#z20392c4)" d="M 367 527 L 418 520 L 752 591 L 814 587"/>
<path style="--d:5s;" pathLength="3333" clip-path="url(#z20392c5)" d="M 541 667 L 576 647 L 525 528 L 477 438 L 407 347 L 343 290 L 305 267"/>
<path style="--d:6s;" pathLength="3333" clip-path="url(#z20392c6)" d="M 630 538 L 647 531 L 759 410 L 838 343 L 920 323 L 985 316"/>
<path style="--d:7s;" pathLength="3333" clip-path="url(#z20392c7)" d="M 479 345 L 513 306 L 504 230 L 487 165 L 446 90 L 407 53 L 371 36"/>
<path style="--d:8s;" pathLength="3333" clip-path="url(#z20392c8)" d="M 653 370 L 684 333 L 682 56 L 698 -27"/>
</svg>