<svg id="z29682" class="acjk" viewBox="0 0 1024 1024" xmlns="http://www.w3.org/2000/svg">
<style>
<![CDATA[
@keyframes zk {
	to {
		stroke-dashoffset:0;
	}
}
svg.acjk path[clip-path] {
	--t:0.8s;
	animation:zk var(--t) linear forwards var(--d);
	stroke-dasharray:3337;
	stroke-dashoffset:3339;
	stroke-width:128;
	stroke-linecap:round;
	stroke-linejoin:round;
	fill:none;
	stroke:#000;
}
svg.acjk path[id] {fill:#ccc;}
]]>
</style>
  <path id="z29682d1" d="M 276 622 Q 391 655 397 657 Q 406 667 400 675 Q 391 688 360 694 Q 335 697 252 668 Q 174 650 148 645 Q 109 636 138 619 Q 184 601 235 612 L 276 622 Z"/>
  <path id="z29682d2" d="M 299 436 Q 321 445 350 452 Q 378 461 382 465 Q 389 472 384 481 Q 377 491 347 496 Q 323 499 301 490 L 251 469 Q 190 450 146 441 Q 112 432 138 418 Q 172 403 242 420 Q 245 421 252 422 L 299 436 Z"/>
  <path id="z29682d3" d="M 294 258 Q 297 355 299 436 L 301 490 Q 301 535 305 572 Q 314 597 276 622 C 252 640 225 640 235 612 Q 250 581 251 469 L 252 422 Q 252 352 252 243 C 252 213 293 228 294 258 Z"/>
  <path id="z29682d4" d="M 252 243 Q 197 227 139 207 Q 121 201 92 201 Q 79 200 77 188 Q 76 175 86 166 Q 110 150 145 133 Q 155 130 168 139 Q 192 160 355 246 Q 377 256 393 271 Q 406 278 406 288 Q 400 294 387 291 Q 344 275 294 258 L 252 243 Z"/>
  <path id="z29682d5" d="M 498 718 Q 486 743 467 754 Q 463 758 458 755 Q 454 751 453 740 Q 457 704 428 640 Q 418 624 420 606 Q 424 587 433 573 Q 440 563 446 571 Q 452 572 460 587 Q 464 594 473 622 Q 491 685 499 691 C 507 701 507 701 498 718 Z"/>
  <path id="z29682d6" d="M 499 691 Q 520 681 542 687 Q 632 724 742 737 Q 749 738 754 737 Q 767 727 765 719 Q 765 716 740 645 Q 734 632 741 629 Q 748 626 762 638 Q 811 678 852 693 Q 886 708 885 715 Q 882 725 815 767 Q 791 783 693 757 Q 684 757 498 718 C 469 712 471 701 499 691 Z"/>
  <path id="z29682d7" d="M 579 525 Q 765 567 775 574 Q 782 581 779 589 Q 772 599 746 606 Q 718 612 691 600 Q 648 585 601 572 L 552 561 Q 512 555 472 550 Q 438 544 463 529 Q 491 514 534 516 L 579 525 Z"/>
  <path id="z29682d8" d="M 669 367 Q 733 379 779 382 Q 813 385 814 394 Q 815 407 790 421 Q 769 433 671 406 L 618 395 Q 572 388 523 378 Q 511 377 510 379 Q 509 380 514 391 Q 538 437 579 525 L 601 572 Q 617 609 633 618 Q 649 630 640 640 Q 600 682 576 683 Q 569 682 572 664 Q 575 646 552 561 L 534 516 Q 495 416 456 385 Q 438 372 450 333 Q 454 321 468 326 Q 516 344 619 359 L 669 367 Z"/>
  <path id="z29682d9" d="M 665 222 Q 743 231 899 231 Q 918 232 924 240 Q 928 252 912 266 Q 851 308 797 289 Q 742 279 666 264 L 615 256 Q 507 240 384 222 Q 363 221 379 203 Q 409 176 459 187 Q 528 205 613 216 L 665 222 Z"/>
  <path id="z29682d10" d="M 613 216 Q 604 102 596 75 Q 587 39 619 -12 L 621 -15 Q 631 -34 640 -39 Q 652 -40 657 -27 Q 670 6 667 37 Q 664 136 665 222 L 666 264 Q 666 312 669 367 L 671 406 Q 674 451 671 454 Q 647 475 628 484 Q 615 488 606 481 Q 600 477 607 467 Q 616 452 618 395 L 619 359 Q 618 316 616 261 Q 615 260 615 256 L 613 216 Z"/>
<defs>
  <clipPath id="z29682c1"><use href="#z29682d1"/></clipPath>
  <clipPath id="z29682c2"><use href="#z29682d2"/></clipPath>
  <clipPath id="z29682c3"><use href="#z29682d3"/></clipPath>
  <clipPath id="z29682c4"><use href="#z29682d4"/></clipPath>
  <clipPath id="z29682c5"><use href="#z29682d5"/></clipPath>
  <clipPath id="z29682c6"><use href="#z29682d6"/></clipPath>
  <clipPath id="z29682c7"><use href="#z29682d7"/></clipPath>
  <clipPath id="z29682c8"><use href="#z29682d8"/></clipPath>
  <clipPath id="z29682c9"><use href="#z29682d9"/></clipPath>
  <clipPath id="z29682c10"><use href="#z29682d10"/></clipPath>
</defs>
<path style="--d:1s;" pathLength="3333" clip-path="url(#z29682c1)" d="M 140 633 L 199 631 L 355 670 L 393 666"/>
<path style="--d:2s;" pathLength="3333" clip-path="url(#z29682c2)" d="M 139 430 L 195 431 L 327 472 L 374 474"/>
<path style="--d:3s;" pathLength="3333" clip-path="url(#z29682c3)" d="M 243 610 L 270 591 L 276 555 L 274 283 L 257 252"/>
<path style="--d:4s;" pathLength="3333" clip-path="url(#z29682c4)" d="M 92 186 L 150 172 L 400 285"/>
<path style="--d:5s;" pathLength="3333" clip-path="url(#z29682c5)" d="M 462 746 L 472 728 L 474 699 L 445 618 L 441 584"/>
<path style="--d:6s;" pathLength="3333" clip-path="url(#z29682c6)" d="M 509 698 L 518 705 L 707 749 L 766 753 L 791 742 L 808 721 L 745 636"/>
<path style="--d:7s;" pathLength="3333" clip-path="url(#z29682c7)" d="M 465 541 L 526 536 L 587 546 L 715 582 L 769 584"/>
<path style="--d:8s;" pathLength="3333" clip-path="url(#z29682c8)" d="M 580 675 L 602 633 L 559 524 L 481 364 L 518 359 L 745 401 L 780 403 L 805 397"/>
<path style="--d:9s;" pathLength="3333" clip-path="url(#z29682c9)" d="M 381 213 L 435 206 L 581 232 L 822 263 L 864 260 L 914 245"/>
<path style="--d:10s;" pathLength="3333" clip-path="url(#z29682c10)" d="M 615 475 L 644 439 L 630 57 L 643 -27"/>
</svg>