<svg id="z24807" class="acjk" viewBox="0 0 1024 1024" xmlns="http://www.w3.org/2000/svg">
<style>
<![CDATA[
@keyframes zk {
	to {
		stroke-dashoffset:0;
	}
}
svg.acjk path[clip-path] {
	--t:0.8s;
	animation:zk var(--t) linear forwards var(--d);
	stroke-dasharray:3337;
	stroke-dashoffset:3339;
	stroke-width:128;
	stroke-linecap:round;
	stroke-linejoin:round;
	fill:none;
	stroke:#000;
}
svg.acjk path[id] {fill:#ccc;}
]]>
</style>
  <path id="z24807d1" d="M 112 515 Q 97 457 72 401 Q 54 368 79 335 Q 89 319 108 334 Q 153 379 146 462 Q 146 496 135 519 Q 129 526 123 527 Q 116 524 112 515 Z"/>
  <path id="z24807d2" d="M 301 556 Q 319 544 366 502 Q 378 492 389 493 Q 398 494 401 504 Q 405 516 397 539 Q 388 566 305 586 Q 304 587 302 586 C 272 588 276 573 301 556 Z"/>
  <path id="z24807d3" d="M 302 586 Q 303 674 321 734 Q 330 749 327 762 Q 320 772 266 805 Q 244 821 223 807 Q 219 803 225 787 Q 256 736 258 660 Q 258 239 240 147 Q 234 119 226 89 Q 216 52 240 -10 Q 247 -28 255 -31 Q 261 -38 268 -29 Q 295 -13 295 50 Q 294 101 301 556 L 302 586 Z"/>
  <path id="z24807d4" d="M 515 704 Q 493 723 463 735 Q 450 742 440 735 Q 431 729 437 713 Q 464 649 472 584 Q 476 517 473 255 C 473 225 515 231 514 261 Q 513 306 513 344 L 512 370 Q 512 413 513 449 L 513 471 Q 513 540 515 553 L 516 576 Q 519 648 524 670 C 528 694 528 694 515 704 Z"/>
  <path id="z24807d5" d="M 760 297 Q 764 639 790 678 Q 805 696 792 714 Q 782 726 729 755 Q 714 765 647 739 Q 566 712 515 704 C 485 699 495 661 524 670 Q 527 671 530 672 Q 636 702 681 708 Q 699 712 705 706 Q 714 690 705 289 C 704 259 760 267 760 297 Z"/>
  <path id="z24807d6" d="M 515 553 Q 519 552 531 553 Q 598 568 649 576 Q 671 582 661 593 Q 651 606 626 609 Q 592 612 516 576 C 489 563 485 556 515 553 Z"/>
  <path id="z24807d7" d="M 513 449 Q 516 449 644 468 Q 666 472 657 485 Q 647 498 623 501 Q 593 502 513 471 C 485 460 483 445 513 449 Z"/>
  <path id="z24807d8" d="M 513 344 L 655 363 Q 677 367 669 380 Q 659 395 633 399 Q 594 403 512 370 C 484 359 483 340 513 344 Z"/>
  <path id="z24807d9" d="M 473 255 Q 401 248 328 237 Q 307 236 323 219 Q 336 206 354 200 Q 373 196 390 200 Q 574 254 923 253 Q 942 253 947 262 Q 953 272 936 286 Q 884 328 816 309 Q 789 305 760 297 L 705 289 Q 663 283 615 275 Q 564 269 514 261 L 473 255 Z"/>
  <path id="z24807d10" d="M 488 181 Q 472 115 314 -8 Q 292 -21 319 -20 Q 403 -14 560 142 Q 572 154 570 163 Q 567 176 541 186 Q 513 198 499 195 Q 492 194 488 181 Z"/>
  <path id="z24807d11" d="M 680 139 Q 732 87 792 10 Q 808 -12 823 -18 Q 833 -19 841 -9 Q 854 4 845 51 Q 836 103 687 170 Q 684 171 683 171 Q 674 178 671 164 Q 670 151 680 139 Z"/>
<defs>
  <clipPath id="z24807c1"><use href="#z24807d1"/></clipPath>
  <clipPath id="z24807c2"><use href="#z24807d2"/></clipPath>
  <clipPath id="z24807c3"><use href="#z24807d3"/></clipPath>
  <clipPath id="z24807c4"><use href="#z24807d4"/></clipPath>
  <clipPath id="z24807c5"><use href="#z24807d5"/></clipPath>
  <clipPath id="z24807c6"><use href="#z24807d6"/></clipPath>
  <clipPath id="z24807c7"><use href="#z24807d7"/></clipPath>
  <clipPath id="z24807c8"><use href="#z24807d8"/></clipPath>
  <clipPath id="z24807c9"><use href="#z24807d9"/></clipPath>
  <clipPath id="z24807c10"><use href="#z24807d10"/></clipPath>
  <clipPath id="z24807c11"><use href="#z24807d11"/></clipPath>
</defs>
<path style="--d:1s;" pathLength="3333" clip-path="url(#z24807c1)" d="M 125 517 L 121 452 L 94 344"/>
<path style="--d:2s;" pathLength="3333" clip-path="url(#z24807c2)" d="M 304 578 L 314 576 L 318 565 L 372 531 L 388 507"/>
<path style="--d:3s;" pathLength="3333" clip-path="url(#z24807c3)" d="M 234 801 L 262 777 L 284 747 L 276 301 L 270 165 L 259 77 L 260 -18"/>
<path style="--d:4s;" pathLength="3333" clip-path="url(#z24807c4)" d="M 450 723 L 487 678 L 496 588 L 494 278 L 478 267"/>
<path style="--d:5s;" pathLength="3333" clip-path="url(#z24807c5)" d="M 525 676 L 549 695 L 699 733 L 726 726 L 750 693 L 740 594 L 735 339 L 733 321 L 710 303"/>
<path style="--d:6s;" pathLength="3333" clip-path="url(#z24807c6)" d="M 518 559 L 531 569 L 593 586 L 621 591 L 653 586"/>
<path style="--d:7s;" pathLength="3333" clip-path="url(#z24807c7)" d="M 514 455 L 526 465 L 591 479 L 619 483 L 648 478"/>
<path style="--d:8s;" pathLength="3333" clip-path="url(#z24807c8)" d="M 520 351 L 528 362 L 607 378 L 637 380 L 659 374"/>
<path style="--d:9s;" pathLength="3333" clip-path="url(#z24807c9)" d="M 325 228 L 372 220 L 566 253 L 844 284 L 880 283 L 935 268"/>
<path style="--d:10s;" pathLength="3333" clip-path="url(#z24807c10)" d="M 555 160 L 519 155 L 472 97 L 421 51 L 377 18 L 323 -11"/>
<path style="--d:11s;" pathLength="3333" clip-path="url(#z24807c11)" d="M 682 159 L 758 100 L 802 57 L 815 36 L 825 -3"/>
</svg>