<svg id="z25226" class="acjk" viewBox="0 0 1024 1024" xmlns="http://www.w3.org/2000/svg">
<style>
<![CDATA[
@keyframes zk {
	to {
		stroke-dashoffset:0;
	}
}
svg.acjk path[clip-path] {
	--t:0.8s;
	animation:zk var(--t) linear forwards var(--d);
	stroke-dasharray:3337;
	stroke-dashoffset:3339;
	stroke-width:128;
	stroke-linecap:round;
	stroke-linejoin:round;
	fill:none;
	stroke:#000;
}
svg.acjk path[id] {fill:#ccc;}
]]>
</style>
  <path id="z25226d1" d="M 342 541 Q 429 571 434 575 Q 441 584 436 592 Q 429 604 398 608 Q 370 611 344 599 L 291 576 Q 188 543 134 531 Q 97 521 126 507 Q 168 489 234 509 Q 259 518 290 525 L 342 541 Z"/>
  <path id="z25226d2" d="M 287 334 Q 286 246 284 137 Q 283 113 271 104 Q 267 101 202 110 Q 168 123 171 112 Q 172 105 193 89 Q 253 38 268 9 Q 284 -24 300 -25 Q 316 -26 331 9 Q 350 57 349 133 Q 342 256 340 378 L 340 413 Q 340 477 342 541 L 344 599 Q 344 687 364 759 Q 382 790 324 813 Q 290 832 269 826 Q 251 819 267 795 Q 289 767 291 731 Q 292 715 291 576 L 290 525 Q 289 462 287 379 L 287 334 Z"/>
  <path id="z25226d3" d="M 287 379 Q 76 246 65 239 Q 47 239 44 222 Q 44 213 59 199 Q 78 184 102 178 Q 118 174 129 187 Q 220 280 287 334 L 340 378 Q 362 397 384 413 Q 406 426 417 444 Q 423 457 412 456 Q 409 456 340 413 L 287 379 Z"/>
  <path id="z25226d4" d="M 789 414 Q 817 526 857 558 Q 873 579 858 597 Q 768 658 725 626 Q 635 587 510 558 C 481 551 487 519 517 524 Q 530 525 548 532 Q 576 539 606 547 L 638 555 Q 678 567 723 578 Q 745 585 755 577 Q 767 567 764 543 Q 752 474 736 419 C 728 390 781 385 789 414 Z"/>
  <path id="z25226d5" d="M 606 547 Q 610 537 610 386 C 610 356 646 366 650 396 Q 657 451 663 494 Q 669 525 665 531 Q 652 547 638 555 C 613 571 601 577 606 547 Z"/>
  <path id="z25226d6" d="M 501 332 Q 508 331 519 333 Q 607 357 801 381 Q 811 382 812 391 Q 812 398 789 414 C 771 427 765 426 736 419 L 735 419 Q 690 407 650 396 L 610 386 Q 552 376 503 365 C 474 359 471 332 501 332 Z"/>
  <path id="z25226d7" d="M 975 146 Q 962 176 944 265 Q 944 281 937 286 Q 931 289 927 272 Q 900 176 882 146 Q 864 122 811 107 Q 688 71 581 115 Q 538 134 526 161 Q 496 218 501 332 L 503 365 Q 504 440 517 524 C 521 551 521 551 510 558 Q 497 571 474 578 Q 461 582 453 577 Q 446 573 452 556 Q 465 517 464 480 Q 455 213 479 140 Q 486 109 515 83 Q 618 2 833 43 Q 849 47 866 52 Q 918 68 968 106 Q 987 121 975 146 Z"/>
<defs>
  <clipPath id="z25226c1"><use href="#z25226d1"/></clipPath>
  <clipPath id="z25226c2"><use href="#z25226d2"/></clipPath>
  <clipPath id="z25226c3"><use href="#z25226d3"/></clipPath>
  <clipPath id="z25226c4"><use href="#z25226d4"/></clipPath>
  <clipPath id="z25226c5"><use href="#z25226d5"/></clipPath>
  <clipPath id="z25226c6"><use href="#z25226d6"/></clipPath>
  <clipPath id="z25226c7"><use href="#z25226d7"/></clipPath>
</defs>
<path style="--d:1s;" pathLength="3333" clip-path="url(#z25226c1)" d="M 127 520 L 161 517 L 203 524 L 380 582 L 428 583"/>
<path style="--d:2s;" pathLength="3333" clip-path="url(#z25226c2)" d="M 277 810 L 325 768 L 313 403 L 316 124 L 310 91 L 294 60 L 191 102 L 189 110 L 178 110"/>
<path style="--d:3s;" pathLength="3333" clip-path="url(#z25226c3)" d="M 60 222 L 80 216 L 105 218 L 240 326 L 413 449"/>
<path style="--d:4s;" pathLength="3333" clip-path="url(#z25226c4)" d="M 521 531 L 539 548 L 728 603 L 749 608 L 773 604 L 808 574 L 769 442 L 743 425"/>
<path style="--d:5s;" pathLength="3333" clip-path="url(#z25226c5)" d="M 612 547 L 635 525 L 638 507 L 631 413 L 614 399"/>
<path style="--d:6s;" pathLength="3333" clip-path="url(#z25226c6)" d="M 505 337 L 528 354 L 733 396 L 781 397 L 803 390"/>
<path style="--d:7s;" pathLength="3333" clip-path="url(#z25226c7)" d="M 461 568 L 482 547 L 489 520 L 481 270 L 490 191 L 510 133 L 547 98 L 611 71 L 679 60 L 798 69 L 872 92 L 905 111 L 929 139 L 936 280"/>
</svg>