<svg id="z20721" class="acjk" viewBox="0 0 1024 1024" xmlns="http://www.w3.org/2000/svg">
<style>
<![CDATA[
@keyframes zk {
	to {
		stroke-dashoffset:0;
	}
}
svg.acjk path[clip-path] {
	--t:0.8s;
	animation:zk var(--t) linear forwards var(--d);
	stroke-dasharray:3337;
	stroke-dashoffset:3339;
	stroke-width:128;
	stroke-linecap:round;
	stroke-linejoin:round;
	fill:none;
	stroke:#000;
}
svg.acjk path[id] {fill:#ccc;}
]]>
</style>
  <path id="z20721d1" d="M 235 491 Q 284 558 340 651 Q 367 703 392 729 Q 402 741 396 755 Q 392 768 362 791 Q 334 810 313 809 Q 294 808 303 784 Q 319 750 306 721 Q 269 624 209 533 Q 152 445 74 348 Q 64 338 62 331 Q 58 319 73 322 Q 110 331 210 460 L 235 491 Z"/>
  <path id="z20721d2" d="M 210 460 Q 231 388 233 366 Q 232 341 232 314 Q 232 214 206 111 Q 196 66 230 15 Q 231 15 233 12 Q 251 -4 263 23 Q 278 63 277 110 Q 277 350 285 404 Q 292 431 283 442 Q 241 487 235 491 C 213 511 202 489 210 460 Z"/>
  <path id="z20721d3" d="M 588 805 Q 610 787 634 765 Q 647 753 662 755 Q 672 756 677 768 Q 681 783 671 811 Q 659 838 581 851 Q 566 854 560 851 Q 556 847 557 835 Q 561 825 588 805 Z"/>
  <path id="z20721d4" d="M 764 616 Q 788 661 812 674 Q 827 690 815 706 Q 746 760 699 733 Q 617 705 505 683 C 476 677 493 648 522 656 Q 528 657 538 661 Q 622 680 702 699 Q 723 703 732 696 Q 738 687 716 622 C 707 594 749 590 764 616 Z"/>
  <path id="z20721d5" d="M 501 541 Q 511 541 524 542 Q 603 564 774 587 Q 784 588 784 597 Q 784 604 764 616 L 716 622 Q 713 622 712 621 Q 597 590 505 572 C 476 566 471 540 501 541 Z"/>
  <path id="z20721d6" d="M 505 683 Q 493 693 477 700 Q 459 710 447 705 Q 437 699 442 686 Q 460 659 456 611 Q 435 413 408 332 Q 405 325 403 317 Q 367 224 295 116 Q 291 110 288 105 Q 285 95 295 97 Q 326 101 400 214 Q 410 235 424 258 Q 481 382 501 541 L 505 572 Q 508 594 511 613 Q 514 634 522 656 C 526 669 526 669 505 683 Z"/>
  <path id="z20721d7" d="M 522 324 Q 577 399 620 474 Q 626 484 622 492 Q 618 501 596 502 Q 572 505 564 500 Q 558 497 558 486 Q 562 431 457 287 Q 444 271 464 279 Q 477 283 497 300 L 522 324 Z"/>
  <path id="z20721d8" d="M 557 68 Q 556 218 561 253 Q 568 277 559 286 Q 543 304 532 316 Q 528 322 522 324 C 498 342 489 329 497 300 Q 510 252 515 221 Q 515 112 497 40 Q 485 0 517 -43 Q 518 -44 520 -46 Q 536 -59 546 -36 Q 559 -2 558 39 L 557 68 Z"/>
  <path id="z20721d9" d="M 696 504 Q 741 459 753 458 Q 760 458 765 469 Q 769 479 763 503 Q 756 524 693 541 Q 681 545 676 543 Q 672 539 673 530 Q 674 521 696 504 Z"/>
  <path id="z20721d10" d="M 715 373 Q 829 406 833 409 Q 840 416 835 423 Q 828 432 805 436 Q 780 439 757 428 Q 726 415 693 404 Q 656 394 613 387 Q 583 380 606 368 Q 634 353 679 363 L 715 373 Z"/>
  <path id="z20721d11" d="M 738 269 Q 775 279 809 286 Q 830 290 821 301 Q 811 314 788 316 Q 769 317 740 308 L 692 290 Q 656 280 625 268 Q 610 264 630 251 Q 633 250 693 258 L 738 269 Z"/>
  <path id="z20721d12" d="M 735 179 Q 778 189 816 194 Q 837 198 829 209 Q 819 222 797 226 Q 776 226 736 215 L 693 202 Q 657 193 626 183 Q 611 180 630 167 Q 636 163 693 171 L 735 179 Z"/>
  <path id="z20721d13" d="M 732 101 Q 733 141 735 179 L 736 215 Q 736 243 738 269 L 740 308 Q 743 347 739 353 Q 727 365 715 373 C 691 391 665 390 679 363 Q 691 345 692 290 L 693 258 Q 693 236 693 202 L 693 171 Q 693 137 693 93 C 693 63 731 71 732 101 Z"/>
  <path id="z20721d14" d="M 693 93 Q 629 83 557 68 C 528 62 528 43 558 39 Q 588 33 636 45 Q 739 69 895 70 Q 911 71 916 78 Q 920 88 906 100 Q 854 134 801 117 Q 771 111 732 101 L 693 93 Z"/>
<defs>
  <clipPath id="z20721c1"><use href="#z20721d1"/></clipPath>
  <clipPath id="z20721c2"><use href="#z20721d2"/></clipPath>
  <clipPath id="z20721c3"><use href="#z20721d3"/></clipPath>
  <clipPath id="z20721c4"><use href="#z20721d4"/></clipPath>
  <clipPath id="z20721c5"><use href="#z20721d5"/></clipPath>
  <clipPath id="z20721c6"><use href="#z20721d6"/></clipPath>
  <clipPath id="z20721c7"><use href="#z20721d7"/></clipPath>
  <clipPath id="z20721c8"><use href="#z20721d8"/></clipPath>
  <clipPath id="z20721c9"><use href="#z20721d9"/></clipPath>
  <clipPath id="z20721c10"><use href="#z20721d10"/></clipPath>
  <clipPath id="z20721c11"><use href="#z20721d11"/></clipPath>
  <clipPath id="z20721c12"><use href="#z20721d12"/></clipPath>
  <clipPath id="z20721c13"><use href="#z20721d13"/></clipPath>
  <clipPath id="z20721c14"><use href="#z20721d14"/></clipPath>
</defs>
<path style="--d:1s;" pathLength="3333" clip-path="url(#z20721c1)" d="M 313 794 L 332 780 L 352 746 L 303 642 L 188 462 L 115 372 L 71 331"/>
<path style="--d:2s;" pathLength="3333" clip-path="url(#z20721c2)" d="M 233 484 L 237 454 L 253 429 L 258 369 L 254 234 L 240 89 L 246 24"/>
<path style="--d:3s;" pathLength="3333" clip-path="url(#z20721c3)" d="M 565 845 L 638 803 L 659 773"/>
<path style="--d:4s;" pathLength="3333" clip-path="url(#z20721c4)" d="M 515 680 L 529 673 L 543 675 L 698 716 L 741 718 L 762 705 L 772 690 L 749 643 L 723 633"/>
<path style="--d:5s;" pathLength="3333" clip-path="url(#z20721c5)" d="M 506 548 L 542 564 L 709 600 L 774 597"/>
<path style="--d:6s;" pathLength="3333" clip-path="url(#z20721c6)" d="M 454 693 L 478 670 L 487 652 L 468 488 L 446 382 L 414 286 L 385 228 L 353 174 L 296 105"/>
<path style="--d:7s;" pathLength="3333" clip-path="url(#z20721c7)" d="M 609 485 L 587 474 L 575 442 L 523 352 L 466 288"/>
<path style="--d:8s;" pathLength="3333" clip-path="url(#z20721c8)" d="M 523 315 L 522 293 L 535 266 L 537 224 L 525 11 L 531 -35"/>
<path style="--d:9s;" pathLength="3333" clip-path="url(#z20721c9)" d="M 680 535 L 740 495 L 753 467"/>
<path style="--d:10s;" pathLength="3333" clip-path="url(#z20721c10)" d="M 607 379 L 627 374 L 665 379 L 724 392 L 779 414 L 828 417"/>
<path style="--d:11s;" pathLength="3333" clip-path="url(#z20721c11)" d="M 627 259 L 774 297 L 813 295"/>
<path style="--d:12s;" pathLength="3333" clip-path="url(#z20721c12)" d="M 627 175 L 792 208 L 820 204"/>
<path style="--d:13s;" pathLength="3333" clip-path="url(#z20721c13)" d="M 686 361 L 710 347 L 716 321 L 714 125 L 698 102"/>
<path style="--d:14s;" pathLength="3333" clip-path="url(#z20721c14)" d="M 565 47 L 584 56 L 827 96 L 875 93 L 907 83"/>
</svg>