<svg id="z27859" class="acjk" viewBox="0 0 1024 1024" xmlns="http://www.w3.org/2000/svg">
<style>
<![CDATA[
@keyframes zk {
	to {
		stroke-dashoffset:0;
	}
}
svg.acjk path[clip-path] {
	--t:0.8s;
	animation:zk var(--t) linear forwards var(--d);
	stroke-dasharray:3337;
	stroke-dashoffset:3339;
	stroke-width:128;
	stroke-linecap:round;
	stroke-linejoin:round;
	fill:none;
	stroke:#000;
}
svg.acjk path[id] {fill:#ccc;}
]]>
</style>
  <path id="z27859d1" d="M 197 700 Q 219 678 243 650 Q 258 634 277 633 Q 290 633 296 649 Q 303 665 294 702 Q 285 733 194 757 Q 176 763 168 760 Q 162 756 163 740 Q 167 727 197 700 Z"/>
  <path id="z27859d2" d="M 108 531 Q 138 480 174 457 Q 190 453 203 465 Q 210 478 210 498 Q 206 525 188 542 Q 167 563 112 577 Q 103 578 98 577 Q 91 576 93 562 Q 93 549 108 531 Z"/>
  <path id="z27859d3" d="M 107 170 Q 95 166 99 148 Q 117 73 152 58 Q 159 51 169 54 Q 176 55 177 81 Q 180 127 258 368 Q 265 384 263 390 Q 262 400 253 393 Q 244 387 143 210 Q 133 191 107 170 Z"/>
  <path id="z27859d4" d="M 530 569 Q 558 657 586 682 Q 611 707 587 723 Q 568 736 541 755 Q 523 765 474 741 Q 399 720 368 715 Q 356 715 358 708 Q 359 702 373 695 Q 388 688 439 696 Q 502 711 510 700 Q 517 693 505 658 Q 492 621 477 577 C 467 549 521 540 530 569 Z"/>
  <path id="z27859d5" d="M 412 518 Q 419 527 538 541 Q 548 542 549 552 Q 549 558 530 569 L 477 577 Q 473 577 470 575 Q 430 562 400 552 C 372 543 387 502 412 518 Z"/>
  <path id="z27859d6" d="M 438 377 Q 457 378 466 369 Q 476 356 472 317 Q 465 220 440 155 Q 427 121 414 107 Q 407 98 383 106 Q 359 113 339 120 Q 324 127 326 117 Q 327 104 340 91 Q 368 58 383 29 Q 399 5 421 18 Q 488 76 503 158 Q 533 339 535 343 Q 536 349 542 355 Q 552 371 542 382 Q 530 398 501 412 Q 479 422 463 414 Q 445 410 393 394 Q 384 393 381 395 Q 377 399 381 412 Q 394 457 410 511 Q 411 515 412 518 C 418 538 418 538 400 552 Q 391 562 372 572 Q 360 581 352 575 Q 342 569 352 556 Q 371 522 357 470 Q 341 401 310 375 Q 298 362 302 350 Q 309 337 319 330 Q 329 323 347 337 Q 378 373 438 377 Z"/>
  <path id="z27859d7" d="M 837 302 Q 758 290 671 269 Q 662 265 659 268 Q 653 275 660 296 Q 793 605 826 658 Q 838 671 828 685 Q 818 698 757 715 Q 736 721 726 714 Q 713 704 724 682 Q 739 654 727 607 Q 699 472 630 329 Q 608 284 556 237 Q 541 221 548 208 Q 557 189 590 170 Q 605 160 618 175 Q 657 208 852 272 C 880 281 867 307 837 302 Z"/>
  <path id="z27859d8" d="M 852 272 Q 901 173 910 166 Q 919 162 930 170 Q 946 180 948 228 Q 949 273 886 335 Q 838 383 807 407 Q 800 416 794 404 Q 790 391 796 377 Q 815 343 837 302 L 852 272 Z"/>
<defs>
  <clipPath id="z27859c1"><use href="#z27859d1"/></clipPath>
  <clipPath id="z27859c2"><use href="#z27859d2"/></clipPath>
  <clipPath id="z27859c3"><use href="#z27859d3"/></clipPath>
  <clipPath id="z27859c4"><use href="#z27859d4"/></clipPath>
  <clipPath id="z27859c5"><use href="#z27859d5"/></clipPath>
  <clipPath id="z27859c6"><use href="#z27859d6"/></clipPath>
  <clipPath id="z27859c7"><use href="#z27859d7"/></clipPath>
  <clipPath id="z27859c8"><use href="#z27859d8"/></clipPath>
</defs>
<path style="--d:1s;" pathLength="3333" clip-path="url(#z27859c1)" d="M 174 752 L 185 739 L 251 697 L 276 653"/>
<path style="--d:2s;" pathLength="3333" clip-path="url(#z27859c2)" d="M 105 566 L 161 518 L 187 477"/>
<path style="--d:3s;" pathLength="3333" clip-path="url(#z27859c3)" d="M 164 64 L 149 102 L 145 145 L 257 387"/>
<path style="--d:4s;" pathLength="3333" clip-path="url(#z27859c4)" d="M 365 708 L 387 705 L 508 729 L 530 725 L 541 714 L 550 701 L 548 691 L 517 608 L 512 598 L 485 582"/>
<path style="--d:5s;" pathLength="3333" clip-path="url(#z27859c5)" d="M 410 524 L 424 542 L 468 554 L 539 551"/>
<path style="--d:6s;" pathLength="3333" clip-path="url(#z27859c6)" d="M 358 566 L 382 539 L 387 518 L 354 382 L 379 379 L 463 394 L 486 389 L 506 366 L 485 204 L 469 144 L 448 98 L 410 63 L 334 112"/>
<path style="--d:7s;" pathLength="3333" clip-path="url(#z27859c7)" d="M 737 700 L 775 665 L 772 640 L 712 467 L 633 287 L 623 235 L 663 236 L 818 281 L 827 282 L 839 272"/>
<path style="--d:8s;" pathLength="3333" clip-path="url(#z27859c8)" d="M 803 396 L 871 306 L 908 245 L 918 203 L 916 174"/>
</svg>