<svg id="z22367" class="acjk" viewBox="0 0 1024 1024" xmlns="http://www.w3.org/2000/svg">
<style>
<![CDATA[
@keyframes zk {
	to {
		stroke-dashoffset:0;
	}
}
svg.acjk path[clip-path] {
	--t:0.8s;
	animation:zk var(--t) linear forwards var(--d);
	stroke-dasharray:3337;
	stroke-dashoffset:3339;
	stroke-width:128;
	stroke-linecap:round;
	stroke-linejoin:round;
	fill:none;
	stroke:#000;
}
svg.acjk path[id] {fill:#ccc;}
]]>
</style>
  <path id="z22367d1" d="M 308 500 Q 386 528 390 531 Q 399 541 393 548 Q 384 560 353 564 Q 329 565 310 557 L 256 534 Q 189 510 125 495 Q 89 485 118 471 Q 164 450 218 472 Q 237 478 257 484 L 308 500 Z"/>
  <path id="z22367d2" d="M 299 290 Q 303 399 308 500 L 310 557 Q 311 623 331 726 Q 335 738 313 754 Q 273 775 247 779 Q 228 782 220 772 Q 211 765 221 747 Q 249 707 250 679 Q 254 609 256 534 L 257 484 Q 257 384 253 273 C 252 243 298 260 299 290 Z"/>
  <path id="z22367d3" d="M 253 273 Q 199 255 144 235 Q 125 228 95 227 Q 82 224 80 213 Q 79 200 89 191 Q 114 175 152 158 Q 162 155 175 165 Q 203 192 370 283 Q 392 296 409 310 Q 422 319 422 329 Q 416 335 403 331 Q 354 312 299 290 L 253 273 Z"/>
  <path id="z22367d4" d="M 566 745 Q 606 718 647 686 Q 663 673 681 675 Q 693 676 697 692 Q 700 708 687 740 Q 672 777 556 797 Q 538 798 532 795 Q 526 791 530 777 Q 534 765 566 745 Z"/>
  <path id="z22367d5" d="M 684 541 Q 775 560 869 580 Q 870 584 874 587 Q 875 600 849 610 Q 810 632 728 601 Q 695 594 663 583 Q 590 564 525 552 Q 479 545 427 535 Q 396 531 421 512 Q 460 487 498 498 Q 564 516 645 533 L 684 541 Z"/>
  <path id="z22367d6" d="M 662 233 Q 714 318 725 443 Q 726 473 733 492 Q 737 505 729 513 Q 707 532 684 541 C 657 554 636 562 645 533 Q 690 401 627 270 L 601 230 Q 531 149 384 89 Q 363 86 355 77 Q 349 73 359 68 Q 365 67 379 69 Q 482 87 554 130 Q 600 155 630 191 L 662 233 Z"/>
  <path id="z22367d7" d="M 630 191 Q 733 52 760 42 Q 820 30 928 41 Q 947 42 954 50 Q 958 57 946 62 Q 786 120 736 164 Q 727 168 662 233 L 627 270 Q 576 328 517 403 Q 505 424 486 426 Q 458 427 450 420 Q 447 414 456 408 Q 495 384 519 346 Q 561 286 601 230 L 630 191 Z"/>
<defs>
  <clipPath id="z22367c1"><use href="#z22367d1"/></clipPath>
  <clipPath id="z22367c2"><use href="#z22367d2"/></clipPath>
  <clipPath id="z22367c3"><use href="#z22367d3"/></clipPath>
  <clipPath id="z22367c4"><use href="#z22367d4"/></clipPath>
  <clipPath id="z22367c5"><use href="#z22367d5"/></clipPath>
  <clipPath id="z22367c6"><use href="#z22367d6"/></clipPath>
  <clipPath id="z22367c7"><use href="#z22367d7"/></clipPath>
</defs>
<path style="--d:1s;" pathLength="3333" clip-path="url(#z22367c1)" d="M 118 484 L 178 484 L 325 535 L 383 541"/>
<path style="--d:2s;" pathLength="3333" clip-path="url(#z22367c2)" d="M 234 760 L 285 720 L 287 706 L 277 306 L 257 281"/>
<path style="--d:3s;" pathLength="3333" clip-path="url(#z22367c3)" d="M 97 210 L 155 198 L 352 290 L 416 326"/>
<path style="--d:4s;" pathLength="3333" clip-path="url(#z22367c4)" d="M 538 787 L 633 741 L 654 726 L 678 694"/>
<path style="--d:5s;" pathLength="3333" clip-path="url(#z22367c5)" d="M 422 524 L 482 520 L 793 591 L 818 595 L 864 589"/>
<path style="--d:6s;" pathLength="3333" clip-path="url(#z22367c6)" d="M 653 527 L 681 512 L 694 493 L 694 420 L 677 328 L 639 242 L 591 184 L 514 131 L 402 83 L 363 75"/>
<path style="--d:7s;" pathLength="3333" clip-path="url(#z22367c7)" d="M 457 416 L 493 405 L 658 196 L 763 94 L 818 73 L 945 53"/>
</svg>