<svg id="z28556" class="acjk" viewBox="0 0 1024 1024" xmlns="http://www.w3.org/2000/svg">
<style>
<![CDATA[
@keyframes zk {
	to {
		stroke-dashoffset:0;
	}
}
svg.acjk path[clip-path] {
	--t:0.8s;
	animation:zk var(--t) linear forwards var(--d);
	stroke-dasharray:3337;
	stroke-dashoffset:3339;
	stroke-width:128;
	stroke-linecap:round;
	stroke-linejoin:round;
	fill:none;
	stroke:#000;
}
svg.acjk path[id] {fill:#ccc;}
]]>
</style>
  <path id="z28556d1" d="M 180 693 Q 201 671 223 646 Q 236 633 252 632 Q 262 632 269 645 Q 275 660 267 690 Q 261 717 178 741 Q 162 745 156 743 Q 150 739 152 726 Q 155 716 180 693 Z"/>
  <path id="z28556d2" d="M 106 511 Q 142 463 174 447 Q 189 443 199 457 Q 206 470 204 487 Q 198 512 180 525 Q 168 534 120 550 Q 104 556 94 552 Q 87 551 89 538 Q 90 526 106 511 Z"/>
  <path id="z28556d3" d="M 95 155 Q 83 151 86 134 Q 98 65 134 45 Q 141 38 151 41 Q 158 42 159 67 Q 166 124 258 365 Q 264 381 263 386 Q 262 396 253 389 Q 241 382 134 197 Q 122 176 95 155 Z"/>
  <path id="z28556d4" d="M 553 610 Q 560 613 569 614 Q 612 624 619 630 Q 626 637 623 645 Q 616 655 590 663 Q 572 667 556 663 L 506 647 Q 464 637 395 618 L 350 611 Q 328 610 304 606 Q 271 600 295 585 Q 319 573 353 571 L 395 577 Q 449 590 506 600 L 553 610 Z"/>
  <path id="z28556d5" d="M 395 618 Q 398 661 408 706 Q 409 716 392 728 Q 361 743 339 746 Q 326 747 319 740 Q 312 733 320 721 Q 344 688 350 611 L 353 571 Q 359 447 358 304 C 358 274 394 281 394 311 Q 394 348 394 382 L 394 410 Q 394 438 394 467 L 394 499 Q 395 539 395 577 L 395 618 Z"/>
  <path id="z28556d6" d="M 537 341 Q 547 480 553 610 L 556 663 Q 556 709 578 790 Q 582 800 562 816 Q 526 835 502 840 Q 486 843 478 835 Q 471 828 478 812 Q 506 770 505 743 Q 506 697 506 647 L 506 600 Q 505 473 495 332 C 493 302 535 311 537 341 Z"/>
  <path id="z28556d7" d="M 394 467 Q 395 467 400 467 Q 443 477 475 483 Q 496 490 486 501 Q 474 513 450 514 Q 428 514 394 499 C 366 487 364 467 394 467 Z"/>
  <path id="z28556d8" d="M 402 382 Q 441 389 470 393 Q 491 399 482 409 Q 472 421 448 423 Q 427 424 394 410 C 366 398 364 382 394 382 Q 398 382 402 382 Z"/>
  <path id="z28556d9" d="M 358 304 Q 339 303 330 301 Q 290 295 257 292 Q 245 291 242 284 Q 239 274 253 263 Q 290 236 329 249 Q 455 291 601 309 Q 617 310 617 318 Q 618 330 602 339 Q 578 349 537 341 L 495 332 Q 434 320 394 311 L 358 304 Z"/>
  <path id="z28556d10" d="M 336 214 Q 330 169 224 67 Q 205 54 230 57 Q 279 63 365 148 Q 365 154 400 185 Q 409 195 407 204 Q 404 216 380 222 Q 355 231 344 227 Q 337 226 336 214 Z"/>
  <path id="z28556d11" d="M 470 215 Q 488 190 506 160 Q 513 150 524 146 Q 531 145 538 153 Q 544 163 543 185 Q 543 201 522 220 Q 471 257 460 254 Q 456 253 455 243 Q 455 234 470 215 Z"/>
  <path id="z28556d12" d="M 688 560 Q 731 584 760 602 Q 829 650 853 658 Q 875 668 865 687 Q 852 706 825 722 Q 801 737 787 735 Q 774 734 778 719 Q 781 692 689 592 Q 685 588 680 582 C 660 559 662 545 688 560 Z"/>
  <path id="z28556d13" d="M 683 464 Q 686 551 688 560 C 690 577 690 577 680 582 Q 679 585 674 586 Q 628 605 615 603 Q 597 599 612 580 Q 649 517 628 313 Q 619 265 597 207 Q 579 156 500 67 Q 488 64 478 43 Q 477 36 488 37 Q 524 40 589 112 Q 668 208 682 418 Q 682 427 683 434 L 683 464 Z"/>
  <path id="z28556d14" d="M 812 453 Q 836 462 961 483 Q 974 484 975 492 Q 975 504 953 518 Q 910 536 865 514 Q 813 496 774 486 Q 728 477 683 464 C 654 456 653 433 683 434 Q 684 435 686 434 Q 692 434 763 441 L 812 453 Z"/>
  <path id="z28556d15" d="M 787 -28 Q 791 -52 798 -61 Q 804 -68 811 -66 Q 824 -57 831 -1 Q 838 57 836 114 Q 829 331 847 413 Q 850 429 836 439 Q 823 448 812 453 C 786 467 749 468 763 441 Q 766 434 771 426 Q 780 411 784 289 Q 784 -5 787 -28 Z"/>
<defs>
  <clipPath id="z28556c1"><use href="#z28556d1"/></clipPath>
  <clipPath id="z28556c2"><use href="#z28556d2"/></clipPath>
  <clipPath id="z28556c3"><use href="#z28556d3"/></clipPath>
  <clipPath id="z28556c4"><use href="#z28556d4"/></clipPath>
  <clipPath id="z28556c5"><use href="#z28556d5"/></clipPath>
  <clipPath id="z28556c6"><use href="#z28556d6"/></clipPath>
  <clipPath id="z28556c7"><use href="#z28556d7"/></clipPath>
  <clipPath id="z28556c8"><use href="#z28556d8"/></clipPath>
  <clipPath id="z28556c9"><use href="#z28556d9"/></clipPath>
  <clipPath id="z28556c10"><use href="#z28556d10"/></clipPath>
  <clipPath id="z28556c11"><use href="#z28556d11"/></clipPath>
  <clipPath id="z28556c12"><use href="#z28556d12"/></clipPath>
  <clipPath id="z28556c13"><use href="#z28556d13"/></clipPath>
  <clipPath id="z28556c14"><use href="#z28556d14"/></clipPath>
  <clipPath id="z28556c15"><use href="#z28556d15"/></clipPath>
</defs>
<path style="--d:1s;" pathLength="3333" clip-path="url(#z28556c1)" d="M 161 736 L 233 684 L 250 651"/>
<path style="--d:2s;" pathLength="3333" clip-path="url(#z28556c2)" d="M 101 542 L 163 496 L 180 468"/>
<path style="--d:3s;" pathLength="3333" clip-path="url(#z28556c3)" d="M 146 51 L 133 82 L 130 129 L 156 172 L 257 383"/>
<path style="--d:4s;" pathLength="3333" clip-path="url(#z28556c4)" d="M 297 597 L 357 591 L 557 638 L 612 640"/>
<path style="--d:5s;" pathLength="3333" clip-path="url(#z28556c5)" d="M 330 731 L 370 700 L 371 690 L 377 333 L 363 312"/>
<path style="--d:6s;" pathLength="3333" clip-path="url(#z28556c6)" d="M 489 825 L 536 785 L 537 755 L 519 367 L 501 340"/>
<path style="--d:7s;" pathLength="3333" clip-path="url(#z28556c7)" d="M 397 472 L 412 488 L 455 497 L 477 494"/>
<path style="--d:8s;" pathLength="3333" clip-path="url(#z28556c8)" d="M 398 389 L 410 400 L 433 405 L 473 403"/>
<path style="--d:9s;" pathLength="3333" clip-path="url(#z28556c9)" d="M 252 280 L 284 271 L 315 272 L 548 323 L 583 326 L 606 321"/>
<path style="--d:10s;" pathLength="3333" clip-path="url(#z28556c10)" d="M 393 201 L 362 192 L 302 117 L 233 66"/>
<path style="--d:11s;" pathLength="3333" clip-path="url(#z28556c11)" d="M 462 246 L 511 198 L 525 161"/>
<path style="--d:12s;" pathLength="3333" clip-path="url(#z28556c12)" d="M 787 725 L 798 714 L 810 683 L 756 628 L 708 593 L 695 580 L 693 568"/>
<path style="--d:13s;" pathLength="3333" clip-path="url(#z28556c13)" d="M 616 591 L 654 562 L 658 533 L 657 389 L 643 281 L 615 195 L 584 139 L 529 74 L 487 46"/>
<path style="--d:14s;" pathLength="3333" clip-path="url(#z28556c14)" d="M 685 442 L 699 452 L 748 458 L 894 498 L 939 501 L 966 494"/>
<path style="--d:15s;" pathLength="3333" clip-path="url(#z28556c15)" d="M 770 440 L 811 414 L 807 -57"/>
</svg>