<svg id="z21596" class="acjk" viewBox="0 0 1024 1024" xmlns="http://www.w3.org/2000/svg">
<style>
<![CDATA[
@keyframes zk {
	to {
		stroke-dashoffset:0;
	}
}
svg.acjk path[clip-path] {
	--t:0.8s;
	animation:zk var(--t) linear forwards var(--d);
	stroke-dasharray:3337;
	stroke-dashoffset:3339;
	stroke-width:128;
	stroke-linecap:round;
	stroke-linejoin:round;
	fill:none;
	stroke:#000;
}
svg.acjk path[id] {fill:#ccc;}
]]>
</style>
  <path id="z21596d1" d="M 152 567 Q 139 571 112 577 Q 100 580 97 575 Q 90 569 99 553 Q 130 484 146 372 Q 149 338 168 316 Q 186 294 191 309 Q 197 328 194 362 L 189 394 Q 170 511 167 540 C 164 564 164 564 152 567 Z"/>
  <path id="z21596d2" d="M 334 422 Q 349 519 375 550 Q 396 575 373 589 Q 354 599 326 616 Q 307 626 289 614 Q 243 584 152 567 C 123 561 138 532 167 540 Q 186 546 262 564 Q 290 571 296 560 Q 305 554 299 515 Q 292 472 285 422 C 281 392 329 392 334 422 Z"/>
  <path id="z21596d3" d="M 194 362 Q 215 374 350 391 Q 360 392 361 401 Q 361 408 334 422 C 316 432 314 431 285 422 Q 233 406 189 394 C 160 386 167 349 194 362 Z"/>
  <path id="z21596d4" d="M 498 680 Q 633 800 636 802 Q 655 814 643 829 Q 628 844 602 854 Q 578 864 567 860 Q 555 857 560 845 Q 569 820 481 689 C 464 664 476 660 498 680 Z"/>
  <path id="z21596d5" d="M 517 639 Q 517 640 519 640 Q 565 659 684 685 Q 694 686 702 682 Q 712 678 711 661 Q 708 621 689 548 Q 685 520 659 526 Q 628 530 602 536 Q 587 537 591 529 Q 592 519 619 500 Q 652 472 671 439 Q 678 430 688 433 Q 695 434 711 457 Q 730 481 751 568 Q 763 656 779 670 Q 789 680 784 691 Q 775 703 739 724 Q 723 734 707 727 Q 694 723 655 714 Q 600 701 558 689 Q 530 682 505 675 C 476 667 489 628 517 639 Z"/>
  <path id="z21596d6" d="M 505 675 Q 502 678 498 680 L 481 689 Q 477 693 469 695 Q 450 702 441 692 Q 434 688 443 675 Q 456 648 458 481 Q 458 399 447 349 Q 441 327 457 312 Q 478 294 501 310 Q 540 338 662 353 Q 788 372 807 354 Q 820 344 807 298 Q 798 231 786 162 Q 777 108 753 74 Q 744 62 722 65 Q 688 75 658 85 Q 642 89 643 83 Q 642 77 651 69 Q 706 15 724 -22 Q 731 -43 751 -33 Q 815 -3 829 70 Q 850 164 865 270 Q 872 309 891 341 Q 904 357 893 371 Q 874 392 836 414 Q 814 427 784 413 Q 742 397 703 392 Q 648 386 534 364 Q 506 360 506 382 Q 505 452 505 524 Q 505 596 517 639 C 522 665 522 665 505 675 Z"/>
  <path id="z21596d7" d="M 501 185 Q 535 189 566 195 Q 654 210 741 206 Q 762 205 766 213 Q 772 226 761 235 Q 733 257 693 271 Q 690 271 572 243 Q 262 188 240 185 Q 228 184 228 174 Q 228 164 246 152 Q 261 143 289 135 Q 299 132 314 141 Q 363 162 501 185 Z"/>
<defs>
  <clipPath id="z21596c1"><use href="#z21596d1"/></clipPath>
  <clipPath id="z21596c2"><use href="#z21596d2"/></clipPath>
  <clipPath id="z21596c3"><use href="#z21596d3"/></clipPath>
  <clipPath id="z21596c4"><use href="#z21596d4"/></clipPath>
  <clipPath id="z21596c5"><use href="#z21596d5"/></clipPath>
  <clipPath id="z21596c6"><use href="#z21596d6"/></clipPath>
  <clipPath id="z21596c7"><use href="#z21596d7"/></clipPath>
</defs>
<path style="--d:1s;" pathLength="3333" clip-path="url(#z21596c1)" d="M 106 567 L 133 543 L 140 526 L 180 315"/>
<path style="--d:2s;" pathLength="3333" clip-path="url(#z21596c2)" d="M 162 564 L 174 557 L 185 559 L 297 590 L 309 590 L 329 574 L 337 565 L 336 555 L 316 457 L 313 446 L 291 430"/>
<path style="--d:3s;" pathLength="3333" clip-path="url(#z21596c3)" d="M 195 368 L 212 385 L 291 403 L 352 400"/>
<path style="--d:4s;" pathLength="3333" clip-path="url(#z21596c4)" d="M 568 851 L 595 816 L 521 718 L 513 716 L 501 696 L 491 699"/>
<path style="--d:5s;" pathLength="3333" clip-path="url(#z21596c5)" d="M 515 645 L 529 663 L 684 704 L 722 701 L 744 681 L 717 545 L 706 513 L 690 493 L 682 489 L 599 528"/>
<path style="--d:6s;" pathLength="3333" clip-path="url(#z21596c6)" d="M 449 684 L 458 682 L 473 664 L 483 638 L 479 376 L 486 343 L 515 342 L 636 367 L 801 389 L 826 382 L 852 354 L 810 127 L 783 49 L 752 22 L 711 41 L 651 81"/>
<path style="--d:7s;" pathLength="3333" clip-path="url(#z21596c7)" d="M 239 174 L 294 164 L 418 194 L 675 237 L 701 236 L 754 221"/>
</svg>