<svg id="z23562" class="acjk" viewBox="0 0 1024 1024" xmlns="http://www.w3.org/2000/svg">
<style>
<![CDATA[
@keyframes zk {
	to {
		stroke-dashoffset:0;
	}
}
svg.acjk path[clip-path] {
	--t:0.8s;
	animation:zk var(--t) linear forwards var(--d);
	stroke-dasharray:3337;
	stroke-dashoffset:3339;
	stroke-width:128;
	stroke-linecap:round;
	stroke-linejoin:round;
	fill:none;
	stroke:#000;
}
svg.acjk path[id] {fill:#ccc;}
]]>
</style>
  <path id="z23562d1" d="M 391 800 Q 428 749 454 737 Q 467 734 476 745 Q 482 755 480 771 Q 471 810 404 832 Q 391 838 382 835 Q 376 834 377 823 Q 378 813 391 800 Z"/>
  <path id="z23562d2" d="M 609 832 Q 599 817 555 764 Q 545 751 560 752 Q 594 767 613 778 Q 670 811 678 813 Q 697 820 688 836 Q 678 851 657 864 Q 638 877 627 875 Q 617 874 619 863 Q 620 847 609 832 Z"/>
  <path id="z23562d3" d="M 568 699 Q 637 705 816 705 Q 834 705 839 713 Q 843 723 829 735 Q 781 771 749 763 Q 587 732 219 688 Q 200 687 214 671 Q 227 658 243 653 Q 262 649 276 653 Q 342 671 415 681 L 447 686 Q 513 695 528 695 L 568 699 Z"/>
  <path id="z23562d4" d="M 346 579 Q 325 594 302 600 Q 296 603 291 598 Q 284 594 292 582 Q 323 531 328 403 Q 328 340 362 319 L 363 318 Q 376 314 379 333 L 381 361 Q 380 382 374 406 Q 373 431 369 466 Q 366 508 365 553 C 365 567 365 567 346 579 Z"/>
  <path id="z23562d5" d="M 637 358 Q 656 333 673 325 Q 683 318 698 340 Q 711 368 733 516 Q 740 546 762 570 Q 775 583 763 596 Q 748 612 707 635 Q 691 642 624 627 Q 588 621 573 618 L 538 612 Q 507 608 473 601 L 436 595 Q 387 588 346 579 C 317 573 336 547 365 553 Q 396 560 435 568 L 470 575 Q 500 582 536 586 L 567 591 Q 651 609 668 590 Q 683 574 681 557 Q 663 410 650 388 C 640 360 635 360 637 358 Z"/>
  <path id="z23562d6" d="M 415 681 Q 430 647 436 595 L 435 568 Q 431 526 395 477 Q 386 468 385 464 Q 384 460 392 460 Q 432 466 460 525 Q 469 549 470 575 L 473 601 Q 476 637 476 660 Q 480 673 465 679 Q 455 683 447 686 C 419 697 407 701 415 681 Z"/>
  <path id="z23562d7" d="M 573 618 Q 579 643 590 670 Q 594 680 588 688 Q 581 694 568 699 C 540 711 517 721 528 695 Q 543 664 538 612 L 536 586 Q 527 517 546 501 Q 558 488 614 490 Q 639 490 648 502 Q 655 509 650 516 Q 569 534 566 540 Q 563 547 567 591 L 573 618 Z"/>
  <path id="z23562d8" d="M 418 434 Q 405 431 421 419 Q 428 413 445 415 Q 523 425 580 432 Q 599 435 593 446 Q 584 458 563 462 Q 545 465 418 434 Z"/>
  <path id="z23562d9" d="M 589 353 Q 613 357 637 358 C 667 360 677 375 650 388 Q 646 391 638 393 Q 617 397 580 391 Q 474 375 381 361 C 351 357 349 332 379 333 Q 388 333 401 334 Q 488 344 562 351 L 589 353 Z"/>
  <path id="z23562d10" d="M 638 249 Q 729 253 842 249 Q 875 248 904 247 Q 925 246 930 255 Q 936 267 919 282 Q 868 324 807 313 Q 740 303 647 290 L 585 283 Q 204 247 146 242 Q 124 241 139 223 Q 154 208 172 202 Q 194 195 210 199 Q 393 242 588 247 L 638 249 Z"/>
  <path id="z23562d11" d="M 551 46 Q 514 52 478 60 Q 466 61 467 54 Q 468 48 479 41 Q 555 -16 585 -52 Q 600 -68 614 -54 Q 647 -18 642 84 Q 636 237 638 249 L 647 290 Q 648 291 649 293 Q 658 311 642 323 Q 617 344 589 353 C 561 364 559 365 562 351 Q 559 345 568 332 Q 581 310 585 283 L 588 247 Q 592 136 587 78 Q 586 56 574 48 Q 565 41 551 46 Z"/>
  <path id="z23562d12" d="M 368 163 Q 393 138 422 109 Q 434 96 449 96 Q 459 96 465 109 Q 469 122 463 151 Q 457 179 365 209 Q 350 213 344 211 Q 340 207 340 195 Q 343 185 368 163 Z"/>
<defs>
  <clipPath id="z23562c1"><use href="#z23562d1"/></clipPath>
  <clipPath id="z23562c2"><use href="#z23562d2"/></clipPath>
  <clipPath id="z23562c3"><use href="#z23562d3"/></clipPath>
  <clipPath id="z23562c4"><use href="#z23562d4"/></clipPath>
  <clipPath id="z23562c5"><use href="#z23562d5"/></clipPath>
  <clipPath id="z23562c6"><use href="#z23562d6"/></clipPath>
  <clipPath id="z23562c7"><use href="#z23562d7"/></clipPath>
  <clipPath id="z23562c8"><use href="#z23562d8"/></clipPath>
  <clipPath id="z23562c9"><use href="#z23562d9"/></clipPath>
  <clipPath id="z23562c10"><use href="#z23562d10"/></clipPath>
  <clipPath id="z23562c11"><use href="#z23562d11"/></clipPath>
  <clipPath id="z23562c12"><use href="#z23562d12"/></clipPath>
</defs>
<path style="--d:1s;" pathLength="3333" clip-path="url(#z23562c1)" d="M 388 826 L 446 778 L 459 757"/>
<path style="--d:2s;" pathLength="3333" clip-path="url(#z23562c2)" d="M 632 863 L 646 833 L 565 761"/>
<path style="--d:3s;" pathLength="3333" clip-path="url(#z23562c3)" d="M 216 680 L 261 672 L 464 705 L 749 734 L 795 730 L 829 718"/>
<path style="--d:4s;" pathLength="3333" clip-path="url(#z23562c4)" d="M 298 590 L 321 571 L 338 540 L 354 378 L 367 323"/>
<path style="--d:5s;" pathLength="3333" clip-path="url(#z23562c5)" d="M 354 578 L 372 570 L 637 616 L 694 607 L 719 581 L 681 384 L 672 363 L 649 359"/>
<path style="--d:6s;" pathLength="3333" clip-path="url(#z23562c6)" d="M 421 677 L 451 654 L 453 570 L 433 507 L 416 483 L 390 465"/>
<path style="--d:7s;" pathLength="3333" clip-path="url(#z23562c7)" d="M 535 692 L 562 670 L 548 574 L 552 527 L 560 518 L 586 510 L 620 506 L 636 511"/>
<path style="--d:8s;" pathLength="3333" clip-path="url(#z23562c8)" d="M 431 429 L 556 446 L 584 442"/>
<path style="--d:9s;" pathLength="3333" clip-path="url(#z23562c9)" d="M 384 340 L 405 350 L 625 376 L 642 386"/>
<path style="--d:10s;" pathLength="3333" clip-path="url(#z23562c10)" d="M 142 233 L 201 222 L 472 259 L 830 283 L 863 280 L 918 262"/>
<path style="--d:11s;" pathLength="3333" clip-path="url(#z23562c11)" d="M 569 347 L 616 302 L 616 93 L 609 35 L 593 6 L 564 12 L 474 54"/>
<path style="--d:12s;" pathLength="3333" clip-path="url(#z23562c12)" d="M 349 205 L 433 143 L 448 114"/>
</svg>