<svg id="z21675" class="acjk" viewBox="0 0 1024 1024" xmlns="http://www.w3.org/2000/svg">
<style>
<![CDATA[
@keyframes zk {
	to {
		stroke-dashoffset:0;
	}
}
svg.acjk path[clip-path] {
	--t:0.8s;
	animation:zk var(--t) linear forwards var(--d);
	stroke-dasharray:3337;
	stroke-dashoffset:3339;
	stroke-width:128;
	stroke-linecap:round;
	stroke-linejoin:round;
	fill:none;
	stroke:#000;
}
svg.acjk path[id] {fill:#ccc;}
]]>
</style>
  <path id="z21675d1" d="M 471 555 Q 495 661 531 697 Q 547 718 531 734 Q 512 747 457 768 Q 435 774 375 743 Q 332 728 280 710 C 252 700 262 669 291 678 L 412 714 Q 427 718 433 714 Q 446 702 443 677 Q 433 611 420 557 C 413 528 464 526 471 555 Z"/>
  <path id="z21675d2" d="M 283 484 Q 293 483 307 486 Q 364 502 489 519 Q 499 520 501 530 Q 501 539 471 555 C 450 567 449 566 420 557 Q 419 557 417 556 Q 345 534 285 520 C 256 513 253 485 283 484 Z"/>
  <path id="z21675d3" d="M 277 425 Q 280 453 283 484 L 285 520 Q 286 580 287 649 Q 290 668 291 678 C 294 704 294 704 280 710 Q 279 711 276 712 Q 225 734 210 731 Q 191 727 207 705 Q 240 654 231 449 Q 228 367 189 267 Q 159 191 66 96 Q 53 83 49 76 Q 48 69 60 70 Q 76 70 96 86 Q 147 123 176 157 Q 255 254 274 397 L 277 425 Z"/>
  <path id="z21675d4" d="M 274 397 Q 319 378 352 342 Q 667 38 716 26 Q 794 26 928 61 Q 950 65 957 78 Q 961 88 945 90 Q 732 120 687 147 Q 555 213 331 406 Q 307 434 277 425 C 247 424 247 410 274 397 Z"/>
  <path id="z21675d5" d="M 615 706 Q 605 710 585 712 Q 573 715 571 709 Q 565 703 573 689 Q 601 635 620 546 Q 624 519 640 502 Q 658 483 662 497 Q 663 503 664 510 L 662 546 Q 658 561 639 675 C 635 700 635 700 615 706 Z"/>
  <path id="z21675d6" d="M 820 566 Q 847 653 880 678 Q 896 696 882 713 Q 813 770 754 741 Q 694 722 615 706 C 586 700 610 668 639 675 Q 646 678 767 701 Q 780 704 786 698 Q 796 689 793 670 Q 783 613 770 568 C 762 539 811 537 820 566 Z"/>
  <path id="z21675d7" d="M 664 510 Q 694 520 836 530 Q 846 531 847 539 Q 847 548 820 566 C 806 576 799 574 770 568 Q 709 555 662 546 C 633 540 635 502 664 510 Z"/>
  <path id="z21675d8" d="M 621 437 Q 614 386 512 292 Q 493 277 518 281 Q 566 284 670 388 Q 682 401 689 407 Q 699 419 696 427 Q 693 440 669 446 Q 642 455 630 452 Q 623 451 621 437 Z"/>
  <path id="z21675d9" d="M 763 398 Q 803 355 853 292 Q 866 273 881 267 Q 888 266 897 274 Q 910 286 900 328 Q 894 368 830 398 Q 788 419 766 427 Q 757 433 755 421 Q 754 408 763 398 Z"/>
<defs>
  <clipPath id="z21675c1"><use href="#z21675d1"/></clipPath>
  <clipPath id="z21675c2"><use href="#z21675d2"/></clipPath>
  <clipPath id="z21675c3"><use href="#z21675d3"/></clipPath>
  <clipPath id="z21675c4"><use href="#z21675d4"/></clipPath>
  <clipPath id="z21675c5"><use href="#z21675d5"/></clipPath>
  <clipPath id="z21675c6"><use href="#z21675d6"/></clipPath>
  <clipPath id="z21675c7"><use href="#z21675d7"/></clipPath>
  <clipPath id="z21675c8"><use href="#z21675d8"/></clipPath>
  <clipPath id="z21675c9"><use href="#z21675d9"/></clipPath>
</defs>
<path style="--d:1s;" pathLength="3333" clip-path="url(#z21675c1)" d="M 289 707 L 301 699 L 438 741 L 455 737 L 480 715 L 482 694 L 455 591 L 451 581 L 427 563"/>
<path style="--d:2s;" pathLength="3333" clip-path="url(#z21675c2)" d="M 289 490 L 303 505 L 426 534 L 471 536 L 492 530"/>
<path style="--d:3s;" pathLength="3333" clip-path="url(#z21675c3)" d="M 213 718 L 251 687 L 256 674 L 259 515 L 244 361 L 213 261 L 180 199 L 119 125 L 57 77"/>
<path style="--d:4s;" pathLength="3333" clip-path="url(#z21675c4)" d="M 286 417 L 329 387 L 393 325 L 584 168 L 708 86 L 726 78 L 794 73 L 895 74 L 948 81"/>
<path style="--d:5s;" pathLength="3333" clip-path="url(#z21675c5)" d="M 580 702 L 601 686 L 614 664 L 652 503"/>
<path style="--d:6s;" pathLength="3333" clip-path="url(#z21675c6)" d="M 624 705 L 648 695 L 779 726 L 809 719 L 827 704 L 835 694 L 802 591 L 776 573"/>
<path style="--d:7s;" pathLength="3333" clip-path="url(#z21675c7)" d="M 666 516 L 686 534 L 749 544 L 813 548 L 838 539"/>
<path style="--d:8s;" pathLength="3333" clip-path="url(#z21675c8)" d="M 679 423 L 651 417 L 628 382 L 588 339 L 521 290"/>
<path style="--d:9s;" pathLength="3333" clip-path="url(#z21675c9)" d="M 765 416 L 856 342 L 874 313 L 882 281"/>
</svg>