<svg id="z26720" class="acjk" viewBox="0 0 1024 1024" xmlns="http://www.w3.org/2000/svg">
<style>
<![CDATA[
@keyframes zk {
	to {
		stroke-dashoffset:0;
	}
}
svg.acjk path[clip-path] {
	--t:0.8s;
	animation:zk var(--t) linear forwards var(--d);
	stroke-dasharray:3337;
	stroke-dashoffset:3339;
	stroke-width:128;
	stroke-linecap:round;
	stroke-linejoin:round;
	fill:none;
	stroke:#000;
}
svg.acjk path[id] {fill:#ccc;}
]]>
</style>
  <path id="z26720d1" d="M 307 542 Q 407 569 411 571 Q 421 580 415 588 Q 408 600 378 607 Q 341 613 308 596 L 261 581 Q 150 557 105 550 Q 68 543 95 526 Q 140 502 198 519 Q 220 525 247 528 L 307 542 Z"/>
  <path id="z26720d2" d="M 304 453 Q 305 496 307 542 L 308 596 Q 308 689 330 759 Q 343 786 319 803 Q 303 815 274 833 Q 250 851 229 835 Q 225 831 230 815 Q 261 767 261 720 Q 261 656 261 581 L 256 430 Q 249 250 246 226 Q 239 184 226 141 Q 213 99 240 39 Q 246 21 254 17 Q 260 10 268 19 Q 275 23 286 44 Q 296 69 296 100 Q 296 139 303 415 L 304 453 Z"/>
  <path id="z26720d3" d="M 247 528 Q 198 398 54 210 Q 48 200 60 199 Q 67 198 76 207 Q 188 300 256 430 C 322 555 258 556 247 528 Z"/>
  <path id="z26720d4" d="M 303 415 Q 309 409 345 362 Q 354 349 367 348 Q 374 347 381 357 Q 387 367 384 393 Q 381 417 310 451 Q 306 452 304 453 C 276 463 283 437 303 415 Z"/>
  <path id="z26720d5" d="M 707 630 Q 738 637 772 642 Q 818 652 826 657 Q 836 666 831 675 Q 824 688 793 697 Q 762 704 655 673 Q 565 654 480 647 Q 440 643 468 623 Q 486 613 523 604 C 546 598 546 598 567 606 Q 573 612 655 621 L 707 630 Z"/>
  <path id="z26720d6" d="M 523 604 Q 544 555 547 528 Q 546 522 547 515 Q 550 475 548 131 C 548 101 590 105 590 135 Q 594 528 598 557 Q 604 575 595 584 Q 582 597 567 606 C 542 623 512 632 523 604 Z"/>
  <path id="z26720d7" d="M 706 149 Q 707 242 711 323 L 712 348 Q 716 555 721 592 Q 727 610 707 630 C 688 653 645 649 655 621 Q 670 594 670 462 Q 667 362 664 144 C 664 114 706 119 706 149 Z"/>
  <path id="z26720d8" d="M 428 376 Q 447 349 467 317 Q 476 304 489 301 Q 498 300 505 309 Q 512 321 511 347 Q 508 377 434 417 Q 422 424 416 423 Q 412 420 410 409 Q 411 399 428 376 Z"/>
  <path id="z26720d9" d="M 711 323 Q 760 348 788 368 Q 843 410 876 422 Q 898 431 888 449 Q 875 465 851 481 Q 829 496 815 493 Q 802 492 806 479 Q 809 452 712 348 C 692 326 684 309 711 323 Z"/>
  <path id="z26720d10" d="M 548 131 Q 466 124 378 115 Q 356 114 371 95 Q 386 80 404 74 Q 426 67 443 72 Q 659 123 920 102 Q 923 103 928 102 Q 949 102 954 111 Q 960 123 943 138 Q 886 183 827 168 Q 775 161 706 149 L 664 144 Q 651 143 638 141 Q 614 140 590 135 L 548 131 Z"/>
<defs>
  <clipPath id="z26720c1"><use href="#z26720d1"/></clipPath>
  <clipPath id="z26720c2"><use href="#z26720d2"/></clipPath>
  <clipPath id="z26720c3"><use href="#z26720d3"/></clipPath>
  <clipPath id="z26720c4"><use href="#z26720d4"/></clipPath>
  <clipPath id="z26720c5"><use href="#z26720d5"/></clipPath>
  <clipPath id="z26720c6"><use href="#z26720d6"/></clipPath>
  <clipPath id="z26720c7"><use href="#z26720d7"/></clipPath>
  <clipPath id="z26720c8"><use href="#z26720d8"/></clipPath>
  <clipPath id="z26720c9"><use href="#z26720d9"/></clipPath>
  <clipPath id="z26720c10"><use href="#z26720d10"/></clipPath>
</defs>
<path style="--d:1s;" pathLength="3333" clip-path="url(#z26720c1)" d="M 97 539 L 157 535 L 264 556 L 346 581 L 406 581"/>
<path style="--d:2s;" pathLength="3333" clip-path="url(#z26720c2)" d="M 241 828 L 293 773 L 276 282 L 259 119 L 259 30"/>
<path style="--d:3s;" pathLength="3333" clip-path="url(#z26720c3)" d="M 254 524 L 224 420 L 138 291 L 62 207"/>
<path style="--d:4s;" pathLength="3333" clip-path="url(#z26720c4)" d="M 305 447 L 318 439 L 322 423 L 352 396 L 367 364"/>
<path style="--d:5s;" pathLength="3333" clip-path="url(#z26720c5)" d="M 471 637 L 518 628 L 558 630 L 747 667 L 819 669"/>
<path style="--d:6s;" pathLength="3333" clip-path="url(#z26720c6)" d="M 531 596 L 546 591 L 569 567 L 572 531 L 570 155 L 554 144"/>
<path style="--d:7s;" pathLength="3333" clip-path="url(#z26720c7)" d="M 662 620 L 692 598 L 693 569 L 687 207 L 683 164 L 670 155"/>
<path style="--d:8s;" pathLength="3333" clip-path="url(#z26720c8)" d="M 419 414 L 472 360 L 490 318"/>
<path style="--d:9s;" pathLength="3333" clip-path="url(#z26720c9)" d="M 814 484 L 825 473 L 836 445 L 721 341 L 718 329"/>
<path style="--d:10s;" pathLength="3333" clip-path="url(#z26720c10)" d="M 375 105 L 433 95 L 622 121 L 840 139 L 872 138 L 942 118"/>
</svg>