<svg id="z26187" class="acjk" viewBox="0 0 1024 1024" xmlns="http://www.w3.org/2000/svg">
<style>
<![CDATA[
@keyframes zk {
	to {
		stroke-dashoffset:0;
	}
}
svg.acjk path[clip-path] {
	--t:0.8s;
	animation:zk var(--t) linear forwards var(--d);
	stroke-dasharray:3337;
	stroke-dashoffset:3339;
	stroke-width:128;
	stroke-linecap:round;
	stroke-linejoin:round;
	fill:none;
	stroke:#000;
}
svg.acjk path[id] {fill:#ccc;}
]]>
</style>
  <path id="z26187d1" d="M 590 753 Q 710 771 721 779 Q 731 786 726 796 Q 719 809 691 818 Q 664 824 568 800 Q 436 773 328 769 Q 291 765 316 746 Q 352 725 394 726 L 435 731 Q 489 740 545 746 L 590 753 Z"/>
  <path id="z26187d2" d="M 394 726 Q 406 699 410 612 Q 410 560 411 463 C 411 433 452 438 453 468 Q 457 577 462 661 Q 465 703 461 709 Q 448 722 435 731 C 411 749 384 754 394 726 Z"/>
  <path id="z26187d3" d="M 590 487 Q 605 694 609 710 Q 616 729 590 753 C 569 774 536 775 545 746 Q 554 728 552 636 Q 551 581 548 481 C 547 451 588 457 590 487 Z"/>
  <path id="z26187d4" d="M 263 593 Q 285 562 308 526 Q 318 510 334 507 Q 344 506 353 517 Q 360 530 359 562 Q 356 595 270 641 Q 255 648 248 647 Q 242 644 241 631 Q 242 619 263 593 Z"/>
  <path id="z26187d5" d="M 696 660 Q 674 620 626 557 Q 622 550 627 543 Q 634 542 643 547 Q 730 616 772 643 Q 791 649 786 660 Q 779 676 758 694 Q 737 712 714 712 Q 698 711 701 691 Q 704 678 696 660 Z"/>
  <path id="z26187d6" d="M 411 463 Q 264 447 102 428 Q 78 427 96 407 Q 112 391 131 385 Q 155 379 172 384 Q 431 456 860 455 Q 885 455 911 454 Q 933 454 939 464 Q 946 477 927 492 Q 870 535 828 527 Q 734 509 590 487 L 548 481 Q 524 480 502 475 Q 477 472 453 468 L 411 463 Z"/>
  <path id="z26187d7" d="M 382 352 Q 361 370 336 376 Q 327 379 321 370 Q 318 364 325 354 Q 361 273 330 114 Q 315 72 321 49 Q 330 16 341 4 Q 351 -9 361 4 Q 371 17 378 42 L 384 76 Q 384 79 389 189 L 390 219 Q 391 295 396 320 C 399 339 399 339 382 352 Z"/>
  <path id="z26187d8" d="M 575 54 Q 606 14 628 -23 Q 638 -42 648 -41 Q 664 -40 681 -6 Q 699 31 696 78 Q 689 151 683 289 Q 682 320 698 342 Q 708 355 698 364 Q 679 383 628 407 Q 610 417 595 407 Q 520 373 382 352 C 352 347 367 314 396 320 Q 400 320 576 357 Q 601 363 615 353 Q 642 326 624 82 Q 623 78 619 73 C 611 44 557 78 575 54 Z"/>
  <path id="z26187d9" d="M 389 189 Q 393 189 400 189 Q 493 201 561 207 Q 586 210 577 224 Q 567 240 540 245 Q 504 251 390 219 C 361 211 359 189 389 189 Z"/>
  <path id="z26187d10" d="M 378 42 Q 388 38 402 41 Q 459 51 575 54 C 605 55 634 56 619 73 Q 613 82 592 97 Q 576 107 542 101 Q 454 83 384 76 C 354 73 349 49 378 42 Z"/>
<defs>
  <clipPath id="z26187c1"><use href="#z26187d1"/></clipPath>
  <clipPath id="z26187c2"><use href="#z26187d2"/></clipPath>
  <clipPath id="z26187c3"><use href="#z26187d3"/></clipPath>
  <clipPath id="z26187c4"><use href="#z26187d4"/></clipPath>
  <clipPath id="z26187c5"><use href="#z26187d5"/></clipPath>
  <clipPath id="z26187c6"><use href="#z26187d6"/></clipPath>
  <clipPath id="z26187c7"><use href="#z26187d7"/></clipPath>
  <clipPath id="z26187c8"><use href="#z26187d8"/></clipPath>
  <clipPath id="z26187c9"><use href="#z26187d9"/></clipPath>
  <clipPath id="z26187c10"><use href="#z26187d10"/></clipPath>
</defs>
<path style="--d:1s;" pathLength="3333" clip-path="url(#z26187c1)" d="M 320 759 L 388 749 L 669 793 L 715 790"/>
<path style="--d:2s;" pathLength="3333" clip-path="url(#z26187c2)" d="M 401 724 L 428 704 L 435 672 L 433 494 L 430 483 L 417 473"/>
<path style="--d:3s;" pathLength="3333" clip-path="url(#z26187c3)" d="M 553 745 L 580 719 L 571 507 L 554 491"/>
<path style="--d:4s;" pathLength="3333" clip-path="url(#z26187c4)" d="M 252 639 L 318 571 L 335 526"/>
<path style="--d:5s;" pathLength="3333" clip-path="url(#z26187c5)" d="M 714 697 L 736 664 L 671 588 L 630 550"/>
<path style="--d:6s;" pathLength="3333" clip-path="url(#z26187c6)" d="M 98 418 L 154 408 L 474 455 L 838 492 L 889 484 L 926 471"/>
<path style="--d:7s;" pathLength="3333" clip-path="url(#z26187c7)" d="M 331 366 L 360 334 L 368 283 L 365 177 L 350 64 L 351 8"/>
<path style="--d:8s;" pathLength="3333" clip-path="url(#z26187c8)" d="M 392 350 L 406 339 L 420 341 L 613 384 L 640 369 L 656 352 L 659 69 L 646 35 L 585 51"/>
<path style="--d:9s;" pathLength="3333" clip-path="url(#z26187c9)" d="M 395 196 L 426 212 L 507 224 L 540 225 L 566 218"/>
<path style="--d:10s;" pathLength="3333" clip-path="url(#z26187c10)" d="M 385 47 L 405 60 L 538 77 L 588 79 L 611 72"/>
</svg>