<svg id="z24685" class="acjk" viewBox="0 0 1024 1024" xmlns="http://www.w3.org/2000/svg">
<style>
<![CDATA[
@keyframes zk {
	to {
		stroke-dashoffset:0;
	}
}
svg.acjk path[clip-path] {
	--t:0.8s;
	animation:zk var(--t) linear forwards var(--d);
	stroke-dasharray:3337;
	stroke-dashoffset:3339;
	stroke-width:128;
	stroke-linecap:round;
	stroke-linejoin:round;
	fill:none;
	stroke:#000;
}
svg.acjk path[id] {fill:#ccc;}
]]>
</style>
  <path id="z24685d1" d="M 620 647 Q 629 650 639 650 Q 703 660 713 669 Q 722 676 718 684 Q 712 697 684 705 Q 659 712 633 706 L 569 689 Q 521 679 473 669 Q 449 666 426 661 L 375 656 Q 330 653 284 651 Q 248 647 272 629 Q 311 602 368 613 Q 372 613 379 613 L 426 620 Q 493 630 564 639 L 620 647 Z"/>
  <path id="z24685d2" d="M 426 661 Q 427 704 429 716 Q 433 738 418 751 Q 396 769 369 778 Q 354 784 346 778 Q 339 771 344 756 Q 365 720 375 656 L 379 613 Q 383 571 388 507 C 390 477 430 482 429 512 Q 426 575 426 620 L 426 661 Z"/>
  <path id="z24685d3" d="M 594 536 Q 607 594 620 647 L 633 706 Q 634 713 637 720 Q 650 763 659 781 Q 665 791 646 809 Q 615 833 590 840 Q 575 846 566 839 Q 557 832 563 816 Q 578 789 576 772 Q 573 732 569 689 L 564 639 Q 557 588 549 530 C 545 500 587 507 594 536 Z"/>
  <path id="z24685d4" d="M 568 492 Q 631 496 791 497 Q 810 497 815 506 Q 819 516 804 530 Q 750 572 689 554 Q 646 547 594 536 L 549 530 Q 521 526 489 521 Q 459 518 429 512 L 388 507 Q 301 497 208 485 Q 189 484 203 467 Q 216 454 234 448 Q 253 444 270 447 Q 307 457 349 465 L 392 472 Q 426 481 517 489 L 568 492 Z"/>
  <path id="z24685d5" d="M 349 465 L 350 463 Q 356 366 119 156 Q 64 114 61 104 Q 60 100 66 99 Q 93 99 171 157 Q 172 158 175 160 Q 277 236 368 360 Q 393 397 410 414 Q 419 424 413 438 Q 403 460 392 472 C 374 496 348 495 349 465 Z"/>
  <path id="z24685d6" d="M 517 489 Q 548 470 571 439 Q 688 289 782 187 Q 800 166 827 168 Q 926 178 963 187 Q 979 190 985 198 Q 989 205 979 209 Q 826 263 777 301 Q 692 361 568 492 C 547 514 492 506 517 489 Z"/>
  <path id="z24685d7" d="M 416 59 Q 385 65 354 71 Q 342 74 343 66 Q 344 60 354 53 Q 421 -4 447 -39 Q 462 -55 476 -42 Q 509 -8 505 97 Q 495 266 509 309 Q 518 327 502 339 Q 477 360 449 369 Q 431 376 424 368 Q 418 362 428 347 Q 464 290 450 86 Q 447 70 438 62 Q 431 55 416 59 Z"/>
  <path id="z24685d8" d="M 309 196 Q 276 150 236 111 Q 209 81 219 43 Q 223 24 247 32 Q 302 59 323 132 Q 336 163 333 191 Q 330 201 324 203 Q 315 204 309 196 Z"/>
  <path id="z24685d9" d="M 536 158 Q 555 118 573 73 Q 579 58 592 53 Q 601 49 609 58 Q 619 68 622 94 Q 626 116 604 146 Q 544 206 533 206 Q 527 205 524 194 Q 523 184 536 158 Z"/>
  <path id="z24685d10" d="M 637 212 Q 671 155 710 77 Q 720 55 732 46 Q 739 43 749 50 Q 764 59 764 102 Q 765 142 707 192 Q 668 225 646 240 Q 639 247 634 236 Q 630 224 637 212 Z"/>
<defs>
  <clipPath id="z24685c1"><use href="#z24685d1"/></clipPath>
  <clipPath id="z24685c2"><use href="#z24685d2"/></clipPath>
  <clipPath id="z24685c3"><use href="#z24685d3"/></clipPath>
  <clipPath id="z24685c4"><use href="#z24685d4"/></clipPath>
  <clipPath id="z24685c5"><use href="#z24685d5"/></clipPath>
  <clipPath id="z24685c6"><use href="#z24685d6"/></clipPath>
  <clipPath id="z24685c7"><use href="#z24685d7"/></clipPath>
  <clipPath id="z24685c8"><use href="#z24685d8"/></clipPath>
  <clipPath id="z24685c9"><use href="#z24685d9"/></clipPath>
  <clipPath id="z24685c10"><use href="#z24685d10"/></clipPath>
</defs>
<path style="--d:1s;" pathLength="3333" clip-path="url(#z24685c1)" d="M 276 641 L 331 631 L 374 634 L 654 681 L 705 680"/>
<path style="--d:2s;" pathLength="3333" clip-path="url(#z24685c2)" d="M 354 769 L 395 723 L 407 535 L 394 516"/>
<path style="--d:3s;" pathLength="3333" clip-path="url(#z24685c3)" d="M 576 827 L 595 811 L 615 780 L 577 563 L 556 537"/>
<path style="--d:4s;" pathLength="3333" clip-path="url(#z24685c4)" d="M 206 476 L 253 468 L 469 502 L 703 527 L 748 527 L 804 511"/>
<path style="--d:5s;" pathLength="3333" clip-path="url(#z24685c5)" d="M 359 459 L 379 437 L 376 421 L 296 302 L 234 235 L 153 162 L 66 104"/>
<path style="--d:6s;" pathLength="3333" clip-path="url(#z24685c6)" d="M 524 486 L 564 475 L 682 342 L 813 224 L 833 215 L 976 200"/>
<path style="--d:7s;" pathLength="3333" clip-path="url(#z24685c7)" d="M 433 362 L 476 314 L 476 65 L 456 20 L 418 31 L 350 66"/>
<path style="--d:8s;" pathLength="3333" clip-path="url(#z24685c8)" d="M 321 192 L 286 118 L 237 46"/>
<path style="--d:9s;" pathLength="3333" clip-path="url(#z24685c9)" d="M 533 197 L 590 113 L 597 66"/>
<path style="--d:10s;" pathLength="3333" clip-path="url(#z24685c10)" d="M 643 229 L 716 138 L 735 94 L 737 59"/>
</svg>