<svg id="z25150" class="acjk" viewBox="0 0 1024 1024" xmlns="http://www.w3.org/2000/svg">
<style>
<![CDATA[
@keyframes zk {
	to {
		stroke-dashoffset:0;
	}
}
svg.acjk path[clip-path] {
	--t:0.8s;
	animation:zk var(--t) linear forwards var(--d);
	stroke-dasharray:3337;
	stroke-dashoffset:3339;
	stroke-width:128;
	stroke-linecap:round;
	stroke-linejoin:round;
	fill:none;
	stroke:#000;
}
svg.acjk path[id] {fill:#ccc;}
]]>
</style>
  <path id="z25150d1" d="M 463 806 Q 514 755 548 743 Q 566 742 574 756 Q 580 771 576 790 Q 557 838 474 850 Q 455 854 445 849 Q 438 848 442 834 Q 445 821 463 806 Z"/>
  <path id="z25150d2" d="M 690 582 Q 715 637 746 656 Q 765 675 749 695 Q 733 710 677 738 Q 658 747 634 738 Q 529 696 359 670 C 329 665 345 627 374 634 Q 389 638 609 683 Q 636 690 647 679 Q 654 672 652 657 Q 645 624 636 595 C 627 566 677 555 690 582 Z"/>
  <path id="z25150d3" d="M 346 516 Q 362 503 386 507 Q 483 531 695 552 Q 705 553 708 562 Q 708 569 690 582 C 666 601 665 601 636 595 Q 630 595 626 593 Q 473 556 352 541 Q 351 541 350 540 C 321 534 320 532 346 516 Z"/>
  <path id="z25150d4" d="M 359 670 Q 346 682 326 692 Q 307 705 293 701 Q 280 694 286 680 Q 302 649 295 583 Q 262 394 236 317 Q 229 296 220 276 Q 181 188 89 63 Q 83 57 81 51 Q 77 39 89 41 Q 128 47 212 163 Q 225 185 241 209 Q 313 339 346 516 L 350 540 Q 354 568 360 592 Q 366 617 374 634 C 381 653 381 653 359 670 Z"/>
  <path id="z25150d5" d="M 550 326 Q 628 341 781 340 Q 800 341 803 349 Q 807 359 793 371 Q 739 410 677 389 Q 625 380 554 365 L 491 354 Q 421 344 343 332 Q 324 331 338 315 Q 351 303 367 298 Q 386 294 400 298 Q 440 310 486 318 L 550 326 Z"/>
  <path id="z25150d6" d="M 554 365 Q 563 419 570 434 Q 577 441 571 452 Q 565 459 535 471 Q 501 487 486 482 Q 473 476 484 459 Q 499 420 491 354 L 486 318 Q 462 204 390 147 Q 356 116 264 70 Q 239 57 269 57 Q 287 56 323 68 Q 369 78 407 101 Q 444 120 472 158 Q 517 212 539 299 L 554 365 Z"/>
  <path id="z25150d7" d="M 539 299 Q 615 181 714 55 Q 733 33 765 34 Q 874 35 908 42 Q 918 43 920 49 Q 921 55 907 62 Q 745 134 665 210 Q 610 262 550 326 C 529 348 518 331 539 299 Z"/>
  <path id="z25150d8" d="M 663 475 Q 690 457 718 435 Q 731 425 745 427 Q 754 428 757 440 Q 760 453 749 478 Q 737 505 654 516 Q 641 517 636 515 Q 632 511 634 500 Q 638 490 663 475 Z"/>
<defs>
  <clipPath id="z25150c1"><use href="#z25150d1"/></clipPath>
  <clipPath id="z25150c2"><use href="#z25150d2"/></clipPath>
  <clipPath id="z25150c3"><use href="#z25150d3"/></clipPath>
  <clipPath id="z25150c4"><use href="#z25150d4"/></clipPath>
  <clipPath id="z25150c5"><use href="#z25150d5"/></clipPath>
  <clipPath id="z25150c6"><use href="#z25150d6"/></clipPath>
  <clipPath id="z25150c7"><use href="#z25150d7"/></clipPath>
  <clipPath id="z25150c8"><use href="#z25150d8"/></clipPath>
</defs>
<path style="--d:1s;" pathLength="3333" clip-path="url(#z25150c1)" d="M 454 839 L 534 791 L 552 766"/>
<path style="--d:2s;" pathLength="3333" clip-path="url(#z25150c2)" d="M 369 667 L 380 657 L 395 657 L 519 681 L 624 710 L 657 711 L 671 704 L 697 675 L 674 617 L 644 599"/>
<path style="--d:3s;" pathLength="3333" clip-path="url(#z25150c3)" d="M 355 533 L 375 525 L 636 570 L 699 563"/>
<path style="--d:4s;" pathLength="3333" clip-path="url(#z25150c4)" d="M 299 687 L 320 666 L 334 634 L 305 465 L 269 331 L 242 264 L 188 165 L 128 86 L 90 50"/>
<path style="--d:5s;" pathLength="3333" clip-path="url(#z25150c5)" d="M 340 324 L 376 316 L 704 368 L 738 367 L 792 354"/>
<path style="--d:6s;" pathLength="3333" clip-path="url(#z25150c6)" d="M 492 470 L 529 431 L 514 312 L 478 213 L 439 157 L 411 132 L 354 96 L 274 66"/>
<path style="--d:7s;" pathLength="3333" clip-path="url(#z25150c7)" d="M 549 318 L 556 299 L 642 194 L 752 86 L 912 49"/>
<path style="--d:8s;" pathLength="3333" clip-path="url(#z25150c8)" d="M 641 507 L 709 476 L 743 441"/>
</svg>