<svg id="z27945" class="acjk" viewBox="0 0 1024 1024" xmlns="http://www.w3.org/2000/svg">
<style>
<![CDATA[
@keyframes zk {
	to {
		stroke-dashoffset:0;
	}
}
svg.acjk path[clip-path] {
	--t:0.8s;
	animation:zk var(--t) linear forwards var(--d);
	stroke-dasharray:3337;
	stroke-dashoffset:3339;
	stroke-width:128;
	stroke-linecap:round;
	stroke-linejoin:round;
	fill:none;
	stroke:#000;
}
svg.acjk path[id] {fill:#ccc;}
]]>
</style>
  <path id="z27945d1" d="M 246 671 Q 271 647 297 620 Q 312 604 330 605 Q 343 606 348 621 Q 354 637 344 672 Q 338 691 307 706 Q 229 736 216 727 Q 210 723 212 708 Q 216 695 246 671 Z"/>
  <path id="z27945d2" d="M 159 476 Q 204 419 239 402 Q 255 398 266 413 Q 273 426 272 446 Q 259 494 176 518 L 175 519 Q 156 525 146 521 Q 139 520 141 506 Q 142 493 159 476 Z"/>
  <path id="z27945d3" d="M 162 145 Q 149 141 153 121 Q 174 40 211 20 Q 220 13 231 17 Q 238 18 239 47 Q 242 80 334 373 Q 341 391 340 398 Q 339 408 328 401 Q 315 391 203 191 Q 191 169 162 145 Z"/>
  <path id="z27945d4" d="M 421 569 Q 408 573 379 575 Q 366 576 363 571 Q 357 564 367 548 Q 407 479 437 363 Q 444 329 466 306 Q 487 285 491 302 Q 492 312 493 326 L 488 359 Q 487 369 483 379 Q 450 494 442 534 C 436 563 435 566 421 569 Z"/>
  <path id="z27945d5" d="M 698 373 Q 716 345 732 337 Q 744 328 760 351 Q 778 378 813 529 Q 822 562 846 589 Q 859 602 847 618 Q 831 636 783 662 Q 765 671 712 653 Q 658 640 597 620 L 549 606 L 421 569 C 392 561 415 520 442 534 Q 449 543 555 574 L 601 587 Q 724 626 748 613 Q 763 600 758 579 Q 725 417 708 404 C 694 379 694 379 698 373 Z"/>
  <path id="z27945d6" d="M 624 474 Q 652 484 682 490 Q 704 497 694 509 Q 681 522 656 523 Q 640 523 615 515 L 571 496 Q 534 480 501 466 Q 485 460 507 448 Q 514 445 578 461 L 624 474 Z"/>
  <path id="z27945d7" d="M 653 364 Q 674 368 698 373 C 727 379 735 390 708 404 Q 680 420 646 409 Q 642 408 641 407 L 595 391 Q 537 373 488 359 C 459 351 463 324 493 326 Q 500 326 508 328 Q 544 341 605 354 L 653 364 Z"/>
  <path id="z27945d8" d="M 693 139 Q 741 40 830 -30 Q 894 -85 927 -86 Q 949 -82 942 -50 Q 936 -1 937 142 Q 936 170 926 171 Q 922 171 885 79 Q 873 43 850 51 Q 838 57 821 69 Q 775 112 736 172 L 711 215 Q 677 281 653 364 L 641 407 Q 640 413 639 418 Q 632 446 624 474 L 615 515 Q 608 552 601 587 L 597 620 Q 588 683 595 754 Q 605 797 548 817 Q 511 832 491 823 Q 470 816 481 796 Q 530 754 531 720 Q 540 660 549 606 L 555 574 Q 562 534 571 496 L 578 461 Q 585 424 595 391 L 605 354 Q 632 264 671 180 L 693 139 Z"/>
  <path id="z27945d9" d="M 736 172 Q 850 271 861 276 Q 870 279 871 289 Q 872 299 863 314 Q 839 350 807 355 Q 798 355 797 343 Q 794 295 711 215 L 671 180 Q 577 105 388 19 Q 379 16 388 11 Q 457 4 608 82 Q 668 121 693 139 L 736 172 Z"/>
<defs>
  <clipPath id="z27945c1"><use href="#z27945d1"/></clipPath>
  <clipPath id="z27945c2"><use href="#z27945d2"/></clipPath>
  <clipPath id="z27945c3"><use href="#z27945d3"/></clipPath>
  <clipPath id="z27945c4"><use href="#z27945d4"/></clipPath>
  <clipPath id="z27945c5"><use href="#z27945d5"/></clipPath>
  <clipPath id="z27945c6"><use href="#z27945d6"/></clipPath>
  <clipPath id="z27945c7"><use href="#z27945d7"/></clipPath>
  <clipPath id="z27945c8"><use href="#z27945d8"/></clipPath>
  <clipPath id="z27945c9"><use href="#z27945d9"/></clipPath>
</defs>
<path style="--d:1s;" pathLength="3333" clip-path="url(#z27945c1)" d="M 222 719 L 304 665 L 328 625"/>
<path style="--d:2s;" pathLength="3333" clip-path="url(#z27945c2)" d="M 154 510 L 230 451 L 245 425"/>
<path style="--d:3s;" pathLength="3333" clip-path="url(#z27945c3)" d="M 224 27 L 211 57 L 205 118 L 333 394"/>
<path style="--d:4s;" pathLength="3333" clip-path="url(#z27945c4)" d="M 371 564 L 402 543 L 413 524 L 479 307"/>
<path style="--d:5s;" pathLength="3333" clip-path="url(#z27945c5)" d="M 430 566 L 449 558 L 709 634 L 745 639 L 770 634 L 801 601 L 759 442 L 736 379 L 740 356"/>
<path style="--d:6s;" pathLength="3333" clip-path="url(#z27945c6)" d="M 504 457 L 652 503 L 685 502"/>
<path style="--d:7s;" pathLength="3333" clip-path="url(#z27945c7)" d="M 500 333 L 514 349 L 681 392 L 698 401"/>
<path style="--d:8s;" pathLength="3333" clip-path="url(#z27945c8)" d="M 493 807 L 530 792 L 558 765 L 575 594 L 616 404 L 660 267 L 736 119 L 801 41 L 836 14 L 883 -2 L 903 37 L 929 166"/>
<path style="--d:9s;" pathLength="3333" clip-path="url(#z27945c9)" d="M 810 342 L 825 299 L 749 215 L 685 161 L 550 76 L 447 30 L 398 21 L 393 15"/>
</svg>