<svg id="z22405" class="acjk" viewBox="0 0 1024 1024" xmlns="http://www.w3.org/2000/svg">
<style>
<![CDATA[
@keyframes zk {
	to {
		stroke-dashoffset:0;
	}
}
svg.acjk path[clip-path] {
	--t:0.8s;
	animation:zk var(--t) linear forwards var(--d);
	stroke-dasharray:3337;
	stroke-dashoffset:3339;
	stroke-width:128;
	stroke-linecap:round;
	stroke-linejoin:round;
	fill:none;
	stroke:#000;
}
svg.acjk path[id] {fill:#ccc;}
]]>
</style>
  <path id="z22405d1" d="M 299 483 Q 380 510 381 511 Q 390 520 384 528 Q 377 540 346 545 Q 322 548 301 540 L 249 519 Q 189 498 127 487 Q 90 477 118 463 Q 160 445 250 469 L 299 483 Z"/>
  <path id="z22405d2" d="M 291 299 Q 295 393 299 483 L 301 540 Q 304 660 322 717 Q 325 730 304 747 Q 267 766 240 771 Q 222 774 214 765 Q 207 756 215 741 Q 243 701 243 673 Q 247 600 249 519 L 250 469 Q 250 381 246 282 C 245 252 290 269 291 299 Z"/>
  <path id="z22405d3" d="M 246 282 Q 189 263 130 241 Q 112 234 82 233 Q 69 230 68 220 Q 67 207 77 198 Q 102 183 137 166 Q 147 165 160 174 Q 188 201 347 288 Q 369 300 385 314 Q 398 323 398 333 Q 389 339 291 299 L 246 282 Z"/>
  <path id="z22405d4" d="M 596 497 Q 636 509 779 533 Q 789 532 798 546 Q 799 558 775 567 Q 751 585 677 563 Q 647 556 618 547 Q 599 543 582 537 L 528 525 Q 483 521 427 509 Q 399 505 421 488 Q 457 464 485 472 Q 500 476 520 480 L 596 497 Z"/>
  <path id="z22405d5" d="M 582 537 Q 606 723 613 743 Q 622 758 615 771 Q 599 789 567 803 Q 548 815 535 810 Q 522 803 529 789 Q 559 741 528 525 L 520 480 Q 478 309 430 217 Q 382 127 331 55 Q 327 48 324 42 Q 321 32 332 33 Q 366 39 449 161 Q 471 198 493 240 Q 545 354 570 476 L 582 537 Z"/>
  <path id="z22405d6" d="M 579 165 Q 580 78 616 51 Q 665 15 820 23 Q 893 27 921 42 Q 951 58 938 90 Q 919 138 908 220 Q 905 236 898 242 Q 889 248 885 226 Q 869 124 853 106 Q 829 79 737 73 Q 685 72 662 78 Q 643 87 637 100 Q 625 131 623 196 L 622 242 Q 622 243 623 245 Q 630 362 653 415 Q 666 446 647 464 Q 616 489 596 497 C 567 513 560 504 570 476 Q 589 437 584 380 Q 578 268 578 198 L 579 165 Z"/>
  <path id="z22405d7" d="M 578 198 Q 565 185 550 171 Q 540 164 537 158 Q 533 148 545 149 Q 555 149 579 165 L 623 196 Q 717 277 782 354 Q 807 388 829 404 Q 838 411 836 425 Q 833 437 811 461 Q 789 480 772 483 Q 756 483 760 463 Q 767 436 756 417 Q 722 356 622 242 L 578 198 Z"/>
  <path id="z22405d8" d="M 710 700 Q 741 676 776 648 Q 789 636 806 637 Q 816 638 821 652 Q 825 668 814 697 Q 802 727 702 748 Q 686 749 680 747 Q 676 743 677 730 Q 681 720 710 700 Z"/>
<defs>
  <clipPath id="z22405c1"><use href="#z22405d1"/></clipPath>
  <clipPath id="z22405c2"><use href="#z22405d2"/></clipPath>
  <clipPath id="z22405c3"><use href="#z22405d3"/></clipPath>
  <clipPath id="z22405c4"><use href="#z22405d4"/></clipPath>
  <clipPath id="z22405c5"><use href="#z22405d5"/></clipPath>
  <clipPath id="z22405c6"><use href="#z22405d6"/></clipPath>
  <clipPath id="z22405c7"><use href="#z22405d7"/></clipPath>
  <clipPath id="z22405c8"><use href="#z22405d8"/></clipPath>
</defs>
<path style="--d:1s;" pathLength="3333" clip-path="url(#z22405c1)" d="M 119 476 L 147 473 L 200 480 L 315 517 L 351 523 L 376 520"/>
<path style="--d:2s;" pathLength="3333" clip-path="url(#z22405c2)" d="M 226 755 L 278 712 L 269 322 L 267 311 L 249 290"/>
<path style="--d:3s;" pathLength="3333" clip-path="url(#z22405c3)" d="M 83 218 L 140 206 L 395 329"/>
<path style="--d:4s;" pathLength="3333" clip-path="url(#z22405c4)" d="M 422 499 L 475 494 L 727 550 L 786 547"/>
<path style="--d:5s;" pathLength="3333" clip-path="url(#z22405c5)" d="M 540 797 L 578 755 L 559 553 L 522 385 L 481 271 L 426 161 L 333 42"/>
<path style="--d:6s;" pathLength="3333" clip-path="url(#z22405c6)" d="M 580 486 L 620 438 L 602 285 L 600 193 L 609 107 L 633 68 L 668 53 L 745 47 L 807 51 L 884 75 L 894 94 L 895 234"/>
<path style="--d:7s;" pathLength="3333" clip-path="url(#z22405c7)" d="M 771 470 L 789 447 L 796 423 L 765 377 L 653 247 L 567 169 L 545 157"/>
<path style="--d:8s;" pathLength="3333" clip-path="url(#z22405c8)" d="M 685 741 L 772 693 L 802 656"/>
</svg>