<svg id="z22942" class="acjk" viewBox="0 0 1024 1024" xmlns="http://www.w3.org/2000/svg">
<style>
<![CDATA[
@keyframes zk {
	to {
		stroke-dashoffset:0;
	}
}
svg.acjk path[clip-path] {
	--t:0.8s;
	animation:zk var(--t) linear forwards var(--d);
	stroke-dasharray:3337;
	stroke-dashoffset:3339;
	stroke-width:128;
	stroke-linecap:round;
	stroke-linejoin:round;
	fill:none;
	stroke:#000;
}
svg.acjk path[id] {fill:#ccc;}
]]>
</style>
  <path id="z22942d1" d="M 324 186 Q 393 126 397 125 Q 406 125 412 136 Q 419 148 413 178 Q 407 209 358 236 L 315 258 Q 287 273 250 290 Q 231 300 232 319 Q 253 377 273 438 L 286 478 Q 313 566 336 656 Q 346 702 366 727 Q 379 749 372 762 Q 359 781 313 809 Q 294 822 276 813 Q 263 807 273 790 Q 303 745 241 470 L 230 427 Q 203 345 187 320 Q 177 298 198 280 Q 249 252 288 217 L 324 186 Z"/>
  <path id="z22942d2" d="M 288 217 Q 210 132 117 80 Q 104 71 115 68 Q 205 59 317 178 Q 320 182 324 186 L 358 236 Q 394 290 411 360 Q 435 453 455 485 Q 461 494 459 507 Q 456 510 452 511 Q 451 512 450 513 Q 407 552 379 546 Q 366 542 370 527 Q 376 514 378 497 L 377 467 Q 376 451 372 431 Q 362 346 315 258 L 288 217 Z"/>
  <path id="z22942d3" d="M 378 497 Q 332 488 286 478 L 241 470 Q 178 460 112 447 Q 88 443 51 447 Q 39 447 36 438 Q 32 425 40 417 Q 59 399 89 378 Q 99 374 111 380 Q 177 416 230 427 L 273 438 Q 322 453 377 467 C 406 474 407 503 378 497 Z"/>
  <path id="z22942d4" d="M 805 164 Q 830 369 859 505 Q 866 541 886 563 Q 899 578 887 597 Q 877 610 825 645 Q 810 657 735 630 Q 611 596 536 593 Q 520 592 520 585 Q 521 575 544 561 Q 566 546 601 558 Q 605 559 609 559 L 649 569 Q 731 591 773 594 Q 792 598 799 591 Q 805 578 801 550 Q 773 327 750 157 C 746 127 801 134 805 164 Z"/>
  <path id="z22942d5" d="M 609 559 Q 622 525 607 408 Q 606 399 604 387 L 598 341 Q 586 262 568 139 C 564 109 608 113 613 143 Q 631 254 647 348 L 656 398 Q 662 449 676 511 Q 686 529 677 540 Q 664 558 649 569 C 626 588 601 588 609 559 Z"/>
  <path id="z22942d6" d="M 604 387 Q 558 378 520 374 Q 492 373 461 368 Q 433 365 454 348 Q 464 338 480 330 Q 493 321 515 328 Q 552 335 598 341 L 647 348 Q 681 354 741 359 Q 751 358 760 370 Q 761 382 739 392 Q 709 413 656 398 L 604 387 Z"/>
  <path id="z22942d7" d="M 568 139 Q 501 135 429 129 Q 408 128 423 110 Q 436 97 453 90 Q 472 84 489 88 Q 667 127 925 106 Q 944 106 949 113 Q 955 125 940 139 Q 883 184 822 167 Q 813 167 805 164 L 750 157 Q 710 154 663 148 Q 638 147 613 143 L 568 139 Z"/>
<defs>
  <clipPath id="z22942c1"><use href="#z22942d1"/></clipPath>
  <clipPath id="z22942c2"><use href="#z22942d2"/></clipPath>
  <clipPath id="z22942c3"><use href="#z22942d3"/></clipPath>
  <clipPath id="z22942c4"><use href="#z22942d4"/></clipPath>
  <clipPath id="z22942c5"><use href="#z22942d5"/></clipPath>
  <clipPath id="z22942c6"><use href="#z22942d6"/></clipPath>
  <clipPath id="z22942c7"><use href="#z22942d7"/></clipPath>
</defs>
<path style="--d:1s;" pathLength="3333" clip-path="url(#z22942c1)" d="M 282 800 L 307 781 L 327 746 L 261 464 L 209 305 L 228 282 L 364 195 L 389 165 L 399 132"/>
<path style="--d:2s;" pathLength="3333" clip-path="url(#z22942c2)" d="M 382 533 L 400 518 L 416 493 L 380 345 L 348 267 L 309 205 L 251 147 L 178 95 L 121 73"/>
<path style="--d:3s;" pathLength="3333" clip-path="url(#z22942c3)" d="M 49 433 L 99 412 L 195 441 L 362 478 L 371 490"/>
<path style="--d:4s;" pathLength="3333" clip-path="url(#z22942c4)" d="M 527 584 L 575 574 L 792 621 L 818 615 L 842 585 L 812 417 L 783 195 L 756 163"/>
<path style="--d:5s;" pathLength="3333" clip-path="url(#z22942c5)" d="M 617 557 L 643 536 L 647 526 L 596 172 L 575 148"/>
<path style="--d:6s;" pathLength="3333" clip-path="url(#z22942c6)" d="M 456 359 L 501 349 L 684 379 L 749 372"/>
<path style="--d:7s;" pathLength="3333" clip-path="url(#z22942c7)" d="M 426 119 L 464 109 L 658 130 L 836 141 L 893 136 L 939 120"/>
</svg>