<svg id="z23854" class="acjk" viewBox="0 0 1024 1024" xmlns="http://www.w3.org/2000/svg">
<style>
<![CDATA[
@keyframes zk {
	to {
		stroke-dashoffset:0;
	}
}
svg.acjk path[clip-path] {
	--t:0.8s;
	animation:zk var(--t) linear forwards var(--d);
	stroke-dasharray:3337;
	stroke-dashoffset:3339;
	stroke-width:128;
	stroke-linecap:round;
	stroke-linejoin:round;
	fill:none;
	stroke:#000;
}
svg.acjk path[id] {fill:#ccc;}
]]>
</style>
  <path id="z23854d1" d="M 529 669 Q 539 721 547 770 Q 550 783 553 792 Q 556 799 558 805 Q 562 814 545 827 Q 517 845 496 849 Q 483 853 476 846 Q 469 839 475 827 Q 493 802 491 663 C 491 633 523 640 529 669 Z"/>
  <path id="z23854d2" d="M 675 686 Q 599 680 529 669 L 491 663 Q 415 653 353 635 Q 337 632 343 650 Q 356 714 352 725 Q 339 743 319 757 Q 309 764 300 763 Q 290 760 295 742 Q 316 664 274 624 Q 256 609 262 596 Q 271 581 286 570 Q 298 563 308 569 Q 345 609 602 649 Q 653 656 674 651 C 704 647 705 688 675 686 Z"/>
  <path id="z23854d3" d="M 674 651 Q 677 635 682 621 Q 688 605 700 615 Q 724 634 735 709 Q 753 748 757 754 Q 766 767 758 780 Q 742 796 715 815 Q 705 822 693 818 Q 686 815 687 803 Q 696 794 696 745 Q 690 715 675 686 L 674 651 Z"/>
  <path id="z23854d4" d="M 292 519 Q 283 528 263 536 Q 253 542 241 537 Q 232 533 239 519 Q 257 447 258 427 Q 258 172 232 80 Q 214 22 253 -26 Q 263 -41 275 -27 Q 285 -14 289 3 L 293 39 Q 294 64 296 99 Q 309 445 312 469 Q 313 476 313 480 C 315 503 315 503 292 519 Z"/>
  <path id="z23854d5" d="M 669 28 Q 702 -15 726 -54 Q 736 -73 748 -73 Q 766 -72 783 -35 Q 804 7 800 58 Q 790 197 786 453 Q 785 489 803 514 Q 813 529 803 540 Q 781 562 722 590 Q 701 600 683 589 Q 524 526 292 519 C 262 518 283 476 313 480 Q 352 483 635 534 Q 684 541 709 522 Q 754 470 721 67 Q 720 66 720 62 Q 716 43 696 49 C 671 33 667 31 669 28 Z"/>
  <path id="z23854d6" d="M 526 356 Q 568 365 615 371 Q 652 378 658 384 Q 665 391 662 398 Q 656 408 632 415 Q 608 422 531 398 L 482 387 Q 433 380 381 375 Q 350 371 371 356 Q 410 335 456 344 Q 466 348 482 348 L 526 356 Z"/>
  <path id="z23854d7" d="M 514 271 Q 520 314 526 356 L 531 398 Q 531 404 539 432 Q 546 457 532 469 Q 505 485 487 489 Q 474 492 468 485 Q 461 479 468 468 Q 477 453 482 387 L 482 348 Q 482 308 481 264 C 480 234 510 241 514 271 Z"/>
  <path id="z23854d8" d="M 421 257 Q 411 263 384 268 Q 374 272 370 267 Q 366 263 372 248 Q 393 203 404 131 Q 405 109 419 94 Q 432 75 438 88 Q 442 98 442 115 L 438 145 Q 429 212 429 233 C 428 253 428 253 421 257 Z"/>
  <path id="z23854d9" d="M 611 165 Q 630 216 649 229 Q 671 250 651 264 Q 635 276 612 293 Q 596 303 579 295 Q 549 280 514 271 L 481 264 Q 453 261 421 257 C 391 253 400 227 429 233 Q 459 240 542 254 Q 575 260 582 247 Q 586 243 580 220 Q 573 198 564 170 C 555 141 600 137 611 165 Z"/>
  <path id="z23854d10" d="M 442 115 Q 448 114 456 115 Q 508 125 624 132 Q 634 133 635 141 Q 635 148 611 165 C 595 177 593 177 564 170 Q 494 154 438 145 C 408 140 412 117 442 115 Z"/>
  <path id="z23854d11" d="M 289 3 Q 298 2 309 3 Q 424 22 669 28 C 699 29 714 29 696 49 Q 689 59 672 71 Q 656 81 623 76 Q 439 46 293 39 C 263 37 259 4 289 3 Z"/>
<defs>
  <clipPath id="z23854c1"><use href="#z23854d1"/></clipPath>
  <clipPath id="z23854c2"><use href="#z23854d2"/></clipPath>
  <clipPath id="z23854c3"><use href="#z23854d3"/></clipPath>
  <clipPath id="z23854c4"><use href="#z23854d4"/></clipPath>
  <clipPath id="z23854c5"><use href="#z23854d5"/></clipPath>
  <clipPath id="z23854c6"><use href="#z23854d6"/></clipPath>
  <clipPath id="z23854c7"><use href="#z23854d7"/></clipPath>
  <clipPath id="z23854c8"><use href="#z23854d8"/></clipPath>
  <clipPath id="z23854c9"><use href="#z23854d9"/></clipPath>
  <clipPath id="z23854c10"><use href="#z23854d10"/></clipPath>
  <clipPath id="z23854c11"><use href="#z23854d11"/></clipPath>
</defs>
<path style="--d:1s;" pathLength="3333" clip-path="url(#z23854c1)" d="M 486 836 L 519 802 L 512 687 L 496 675"/>
<path style="--d:2s;" pathLength="3333" clip-path="url(#z23854c2)" d="M 304 753 L 322 726 L 327 703 L 314 616 L 348 614 L 407 631 L 595 664 L 654 669 L 670 657"/>
<path style="--d:3s;" pathLength="3333" clip-path="url(#z23854c3)" d="M 700 807 L 727 766 L 692 621"/>
<path style="--d:4s;" pathLength="3333" clip-path="url(#z23854c4)" d="M 247 527 L 272 500 L 284 434 L 275 168 L 259 41 L 264 -22"/>
<path style="--d:5s;" pathLength="3333" clip-path="url(#z23854c5)" d="M 301 516 L 324 501 L 382 506 L 502 523 L 594 540 L 628 552 L 701 562 L 733 547 L 755 525 L 762 364 L 759 48 L 745 10 L 693 26 L 678 25"/>
<path style="--d:6s;" pathLength="3333" clip-path="url(#z23854c6)" d="M 374 367 L 395 361 L 446 362 L 584 390 L 651 394"/>
<path style="--d:7s;" pathLength="3333" clip-path="url(#z23854c7)" d="M 476 477 L 509 444 L 500 295 L 485 271"/>
<path style="--d:8s;" pathLength="3333" clip-path="url(#z23854c8)" d="M 377 262 L 405 228 L 429 93"/>
<path style="--d:9s;" pathLength="3333" clip-path="url(#z23854c9)" d="M 429 253 L 440 247 L 567 272 L 596 271 L 617 247 L 596 191 L 572 175"/>
<path style="--d:10s;" pathLength="3333" clip-path="url(#z23854c10)" d="M 446 138 L 469 133 L 561 149 L 601 149 L 626 140"/>
<path style="--d:11s;" pathLength="3333" clip-path="url(#z23854c11)" d="M 294 9 L 311 22 L 344 26 L 645 53 L 689 49"/>
</svg>