<svg id="z26464" class="acjk" viewBox="0 0 1024 1024" xmlns="http://www.w3.org/2000/svg">
<style>
<![CDATA[
@keyframes zk {
	to {
		stroke-dashoffset:0;
	}
}
svg.acjk path[clip-path] {
	--t:0.8s;
	animation:zk var(--t) linear forwards var(--d);
	stroke-dasharray:3337;
	stroke-dashoffset:3339;
	stroke-width:128;
	stroke-linecap:round;
	stroke-linejoin:round;
	fill:none;
	stroke:#000;
}
svg.acjk path[id] {fill:#ccc;}
]]>
</style>
  <path id="z26464d1" d="M 323 497 Q 348 506 379 513 Q 425 528 433 535 Q 442 544 436 552 Q 429 564 398 569 Q 358 575 325 553 L 275 533 Q 116 490 83 483 Q 46 474 74 459 Q 116 437 175 455 Q 215 468 258 478 L 323 497 Z"/>
  <path id="z26464d2" d="M 320 407 Q 321 450 323 497 L 325 553 Q 325 673 348 750 Q 363 777 340 794 Q 322 807 288 829 Q 263 848 241 831 Q 235 827 242 809 Q 275 761 275 679 Q 275 607 275 533 L 269 381 Q 266 317 266 246 Q 262 167 239 93 Q 227 50 253 -16 Q 260 -35 269 -39 Q 276 -46 283 -37 Q 292 -33 303 -10 Q 313 17 314 50 Q 313 90 319 377 L 320 407 Z"/>
  <path id="z26464d3" d="M 258 478 Q 212 339 50 121 Q 44 111 56 110 Q 80 110 184 241 Q 230 298 269 381 C 330 509 268 506 258 478 Z"/>
  <path id="z26464d4" d="M 319 377 Q 344 359 394 311 Q 406 301 419 301 Q 429 301 433 313 Q 437 326 430 351 Q 421 381 331 406 Q 324 407 320 407 C 290 409 295 395 319 377 Z"/>
  <path id="z26464d5" d="M 625 498 Q 811 547 816 552 Q 826 562 820 571 Q 811 584 778 590 Q 744 596 710 581 Q 664 562 611 547 Q 553 531 485 522 Q 445 515 475 496 Q 515 472 577 486 L 625 498 Z"/>
  <path id="z26464d6" d="M 637 194 Q 661 390 680 452 Q 684 462 665 479 Q 643 492 625 498 C 597 509 564 513 577 486 Q 598 444 598 434 Q 601 320 592 188 C 590 158 633 164 637 194 Z"/>
  <path id="z26464d7" d="M 592 188 Q 499 178 398 164 Q 374 163 392 143 Q 408 127 427 121 Q 451 115 468 120 Q 609 156 884 156 Q 900 156 915 154 Q 937 154 943 164 Q 950 177 931 192 Q 874 235 832 227 Q 760 212 637 194 L 592 188 Z"/>
<defs>
  <clipPath id="z26464c1"><use href="#z26464d1"/></clipPath>
  <clipPath id="z26464c2"><use href="#z26464d2"/></clipPath>
  <clipPath id="z26464c3"><use href="#z26464d3"/></clipPath>
  <clipPath id="z26464c4"><use href="#z26464d4"/></clipPath>
  <clipPath id="z26464c5"><use href="#z26464d5"/></clipPath>
  <clipPath id="z26464c6"><use href="#z26464d6"/></clipPath>
  <clipPath id="z26464c7"><use href="#z26464d7"/></clipPath>
</defs>
<path style="--d:1s;" pathLength="3333" clip-path="url(#z26464c1)" d="M 75 472 L 134 470 L 284 510 L 356 537 L 426 545"/>
<path style="--d:2s;" pathLength="3333" clip-path="url(#z26464c2)" d="M 255 822 L 281 800 L 302 773 L 308 755 L 292 244 L 275 79 L 274 -25"/>
<path style="--d:3s;" pathLength="3333" clip-path="url(#z26464c3)" d="M 267 475 L 247 389 L 194 292 L 132 203 L 57 118"/>
<path style="--d:4s;" pathLength="3333" clip-path="url(#z26464c4)" d="M 325 399 L 398 347 L 419 316"/>
<path style="--d:5s;" pathLength="3333" clip-path="url(#z26464c5)" d="M 477 510 L 549 506 L 633 525 L 748 562 L 808 563"/>
<path style="--d:6s;" pathLength="3333" clip-path="url(#z26464c6)" d="M 585 478 L 623 464 L 637 445 L 617 215 L 599 196"/>
<path style="--d:7s;" pathLength="3333" clip-path="url(#z26464c7)" d="M 394 154 L 450 144 L 617 169 L 842 192 L 879 188 L 930 171"/>
</svg>