<svg id="z22017" class="acjk" viewBox="0 0 1024 1024" xmlns="http://www.w3.org/2000/svg">
<style>
<![CDATA[
@keyframes zk {
	to {
		stroke-dashoffset:0;
	}
}
svg.acjk path[clip-path] {
	--t:0.8s;
	animation:zk var(--t) linear forwards var(--d);
	stroke-dasharray:3337;
	stroke-dashoffset:3339;
	stroke-width:128;
	stroke-linecap:round;
	stroke-linejoin:round;
	fill:none;
	stroke:#000;
}
svg.acjk path[id] {fill:#ccc;}
]]>
</style>
  <path id="z22017d1" d="M 138 584 Q 128 591 98 597 Q 86 601 83 597 Q 76 591 84 575 Q 109 508 120 402 Q 121 371 137 348 Q 153 326 159 341 Q 166 359 164 393 L 161 426 Q 149 523 147 555 C 145 580 145 580 138 584 Z"/>
  <path id="z22017d2" d="M 292 446 Q 307 536 331 566 Q 352 591 328 605 Q 309 615 281 631 Q 263 640 215 610 Q 188 598 138 584 C 109 576 118 547 147 555 Q 151 556 228 577 Q 249 583 254 575 Q 263 568 256 529 Q 250 492 244 449 C 240 419 287 416 292 446 Z"/>
  <path id="z22017d3" d="M 164 393 Q 173 392 184 394 Q 221 404 306 413 Q 316 414 317 424 Q 317 431 292 446 L 244 449 Q 240 449 238 448 Q 195 435 161 426 C 132 418 134 395 164 393 Z"/>
  <path id="z22017d4" d="M 690 615 Q 712 622 735 626 Q 784 639 791 646 Q 800 653 795 661 Q 788 671 761 678 Q 733 682 686 663 L 640 648 Q 541 620 444 606 Q 441 606 441 605 C 412 599 419 582 449 578 Q 483 571 564 586 Q 603 595 646 605 L 690 615 Z"/>
  <path id="z22017d5" d="M 441 605 Q 428 618 405 627 Q 387 637 375 633 Q 365 626 370 614 Q 385 596 385 545 Q 384 532 383 516 Q 377 381 342 274 Q 308 184 246 88 Q 242 82 240 77 Q 237 67 247 69 Q 280 75 348 185 Q 355 201 365 218 Q 419 342 437 519 Q 440 570 449 578 C 456 594 456 594 441 605 Z"/>
  <path id="z22017d6" d="M 555 382 Q 559 416 562 448 L 565 475 Q 565 487 574 523 Q 577 530 563 540 Q 539 553 522 555 Q 512 558 506 552 Q 502 546 507 536 Q 522 517 526 375 C 527 345 552 352 555 382 Z"/>
  <path id="z22017d7" d="M 562 448 Q 566 445 574 447 Q 614 456 643 461 Q 662 467 654 478 Q 642 488 620 490 Q 599 490 565 475 C 537 463 535 461 562 448 Z"/>
  <path id="z22017d8" d="M 557 347 Q 561 348 644 363 Q 651 362 658 372 Q 659 381 641 388 Q 620 401 555 382 L 526 375 Q 501 369 478 365 Q 457 362 434 358 Q 412 354 430 342 Q 454 324 480 331 Q 496 337 521 339 L 557 347 Z"/>
  <path id="z22017d9" d="M 521 339 Q 528 308 529 228 Q 529 176 524 162 Q 520 153 504 157 Q 488 161 470 165 Q 460 166 459 161 Q 458 157 465 148 Q 508 105 522 81 Q 532 71 540 71 Q 549 74 559 101 Q 574 128 573 178 Q 572 260 573 291 Q 579 324 557 347 C 538 370 515 368 521 339 Z"/>
  <path id="z22017d10" d="M 454 290 Q 433 250 406 212 Q 390 193 401 166 Q 405 153 420 160 Q 456 184 469 248 Q 473 270 471 289 Q 467 295 463 296 Q 457 295 454 290 Z"/>
  <path id="z22017d11" d="M 601 296 Q 646 230 671 227 Q 683 224 689 240 Q 692 252 684 270 Q 672 297 607 319 Q 600 320 597 311 Q 596 304 601 296 Z"/>
  <path id="z22017d12" d="M 751 207 Q 790 129 855 69 Q 913 23 942 23 Q 961 27 954 55 Q 950 104 955 244 Q 954 266 947 266 Q 941 266 935 247 Q 920 207 907 174 Q 894 140 881 139 Q 848 139 783 248 L 759 296 Q 702 440 690 615 L 686 663 Q 686 733 693 774 Q 706 814 652 837 Q 618 853 597 846 Q 578 840 586 820 Q 632 778 631 744 Q 635 695 640 648 L 646 605 Q 673 389 731 250 L 751 207 Z"/>
  <path id="z22017d13" d="M 731 250 Q 671 175 622 128 Q 616 121 622 118 Q 647 114 727 185 Q 739 197 751 207 L 783 248 Q 825 314 852 401 Q 861 425 872 448 Q 878 457 872 466 Q 865 475 837 488 Q 816 497 808 494 Q 796 490 799 476 Q 811 403 761 301 Q 760 300 759 296 L 731 250 Z"/>
  <path id="z22017d14" d="M 768 757 Q 793 736 822 710 Q 834 700 848 700 Q 857 701 861 713 Q 865 726 857 751 Q 848 778 763 798 Q 750 801 744 799 Q 740 795 741 784 Q 745 774 768 757 Z"/>
<defs>
  <clipPath id="z22017c1"><use href="#z22017d1"/></clipPath>
  <clipPath id="z22017c2"><use href="#z22017d2"/></clipPath>
  <clipPath id="z22017c3"><use href="#z22017d3"/></clipPath>
  <clipPath id="z22017c4"><use href="#z22017d4"/></clipPath>
  <clipPath id="z22017c5"><use href="#z22017d5"/></clipPath>
  <clipPath id="z22017c6"><use href="#z22017d6"/></clipPath>
  <clipPath id="z22017c7"><use href="#z22017d7"/></clipPath>
  <clipPath id="z22017c8"><use href="#z22017d8"/></clipPath>
  <clipPath id="z22017c9"><use href="#z22017d9"/></clipPath>
  <clipPath id="z22017c10"><use href="#z22017d10"/></clipPath>
  <clipPath id="z22017c11"><use href="#z22017d11"/></clipPath>
  <clipPath id="z22017c12"><use href="#z22017d12"/></clipPath>
  <clipPath id="z22017c13"><use href="#z22017d13"/></clipPath>
  <clipPath id="z22017c14"><use href="#z22017d14"/></clipPath>
</defs>
<path style="--d:1s;" pathLength="3333" clip-path="url(#z22017c1)" d="M 91 589 L 116 565 L 121 549 L 149 347"/>
<path style="--d:2s;" pathLength="3333" clip-path="url(#z22017c2)" d="M 147 563 L 166 577 L 251 603 L 273 601 L 284 591 L 294 580 L 293 569 L 272 472 L 250 455"/>
<path style="--d:3s;" pathLength="3333" clip-path="url(#z22017c3)" d="M 169 399 L 183 413 L 237 426 L 285 429 L 307 423"/>
<path style="--d:4s;" pathLength="3333" clip-path="url(#z22017c4)" d="M 445 599 L 461 592 L 551 603 L 719 649 L 784 656"/>
<path style="--d:5s;" pathLength="3333" clip-path="url(#z22017c5)" d="M 382 621 L 403 603 L 415 582 L 399 414 L 380 324 L 359 257 L 326 184 L 274 105 L 248 77"/>
<path style="--d:6s;" pathLength="3333" clip-path="url(#z22017c6)" d="M 514 546 L 543 517 L 542 404 L 531 388"/>
<path style="--d:7s;" pathLength="3333" clip-path="url(#z22017c7)" d="M 569 454 L 593 468 L 645 472"/>
<path style="--d:8s;" pathLength="3333" clip-path="url(#z22017c8)" d="M 430 350 L 481 348 L 616 376 L 649 373"/>
<path style="--d:9s;" pathLength="3333" clip-path="url(#z22017c9)" d="M 528 335 L 550 311 L 548 152 L 531 125 L 467 157"/>
<path style="--d:10s;" pathLength="3333" clip-path="url(#z22017c10)" d="M 462 287 L 450 243 L 412 169"/>
<path style="--d:11s;" pathLength="3333" clip-path="url(#z22017c11)" d="M 609 306 L 657 266 L 674 242"/>
<path style="--d:12s;" pathLength="3333" clip-path="url(#z22017c12)" d="M 600 829 L 633 814 L 658 788 L 663 655 L 677 527 L 704 398 L 738 288 L 800 173 L 838 128 L 875 101 L 903 95 L 917 119 L 947 260"/>
<path style="--d:13s;" pathLength="3333" clip-path="url(#z22017c13)" d="M 812 481 L 832 457 L 834 444 L 816 371 L 782 290 L 747 235 L 707 189 L 625 123"/>
<path style="--d:14s;" pathLength="3333" clip-path="url(#z22017c14)" d="M 749 790 L 825 746 L 845 716"/>
</svg>