<svg id="z24214" class="acjk" viewBox="0 0 1024 1024" xmlns="http://www.w3.org/2000/svg">
<style>
<![CDATA[
@keyframes zk {
	to {
		stroke-dashoffset:0;
	}
}
svg.acjk path[clip-path] {
	--t:0.8s;
	animation:zk var(--t) linear forwards var(--d);
	stroke-dasharray:3337;
	stroke-dashoffset:3339;
	stroke-width:128;
	stroke-linecap:round;
	stroke-linejoin:round;
	fill:none;
	stroke:#000;
}
svg.acjk path[id] {fill:#ccc;}
]]>
</style>
  <path id="z24214d1" d="M 455 804 Q 506 758 546 742 Q 562 741 571 756 Q 575 771 571 788 Q 553 831 489 842 Q 450 851 436 845 Q 430 844 434 830 Q 437 817 455 804 Z"/>
  <path id="z24214d2" d="M 319 649 Q 347 640 466 658 Q 715 698 744 707 Q 750 710 753 711 Q 763 718 758 728 Q 752 741 722 749 Q 692 756 588 727 Q 459 700 407 693 Q 359 690 301 684 C 271 681 289 654 319 649 Z"/>
  <path id="z24214d3" d="M 301 684 Q 253 717 233 708 Q 220 701 228 686 Q 246 659 246 592 Q 245 585 245 575 Q 242 410 205 298 Q 172 201 102 84 Q 98 77 95 71 Q 94 59 104 62 Q 140 68 215 198 Q 222 216 233 236 Q 291 371 305 546 Q 308 628 319 649 C 325 669 325 669 301 684 Z"/>
  <path id="z24214d4" d="M 481 528 Q 523 588 524 589 Q 523 593 523 595 Q 519 605 496 624 Q 474 639 458 638 Q 443 637 450 619 Q 460 601 426 529 Q 410 498 385 461 Q 378 454 375 448 Q 372 438 384 441 Q 399 444 457 501 L 481 528 Z"/>
  <path id="z24214d5" d="M 457 501 Q 481 486 500 492 Q 666 537 678 521 Q 688 508 682 471 Q 672 369 647 325 Q 631 297 607 301 Q 588 308 570 316 Q 548 326 562 301 Q 598 258 612 226 Q 631 205 648 222 Q 702 259 728 389 Q 737 492 760 522 Q 772 535 766 544 Q 757 554 709 576 Q 690 585 671 572 Q 626 548 481 528 C 451 524 430 514 457 501 Z"/>
  <path id="z24214d6" d="M 513 273 Q 532 348 554 369 Q 575 394 553 406 Q 535 416 510 433 Q 492 443 475 432 Q 456 419 428 409 Q 407 402 380 394 C 351 385 366 359 394 369 Q 397 372 460 385 Q 479 389 483 381 Q 489 377 482 348 Q 475 317 466 279 C 459 250 505 244 513 273 Z"/>
  <path id="z24214d7" d="M 378 229 Q 384 228 393 230 Q 433 239 522 246 Q 531 247 532 254 Q 532 260 513 273 C 494 286 494 286 466 279 Q 420 267 380 258 C 351 251 348 231 378 229 Z"/>
  <path id="z24214d8" d="M 889 108 Q 876 136 857 224 Q 856 240 849 246 Q 843 250 838 231 Q 810 137 791 108 Q 770 83 709 66 Q 565 30 450 77 Q 404 99 391 128 Q 372 167 378 229 L 380 258 Q 383 307 393 362 Q 394 366 394 369 C 397 384 397 384 380 394 Q 368 404 350 411 Q 337 415 329 410 Q 322 406 328 388 Q 341 351 338 313 Q 329 153 343 109 Q 350 75 382 46 Q 493 -41 732 -2 Q 748 2 768 7 Q 826 25 882 65 Q 903 81 889 108 Z"/>
<defs>
  <clipPath id="z24214c1"><use href="#z24214d1"/></clipPath>
  <clipPath id="z24214c2"><use href="#z24214d2"/></clipPath>
  <clipPath id="z24214c3"><use href="#z24214d3"/></clipPath>
  <clipPath id="z24214c4"><use href="#z24214d4"/></clipPath>
  <clipPath id="z24214c5"><use href="#z24214d5"/></clipPath>
  <clipPath id="z24214c6"><use href="#z24214d6"/></clipPath>
  <clipPath id="z24214c7"><use href="#z24214d7"/></clipPath>
  <clipPath id="z24214c8"><use href="#z24214d8"/></clipPath>
</defs>
<path style="--d:1s;" pathLength="3333" clip-path="url(#z24214c1)" d="M 443 836 L 514 800 L 551 765"/>
<path style="--d:2s;" pathLength="3333" clip-path="url(#z24214c2)" d="M 310 681 L 332 667 L 410 671 L 701 724 L 747 722"/>
<path style="--d:3s;" pathLength="3333" clip-path="url(#z24214c3)" d="M 239 695 L 263 676 L 279 646 L 269 473 L 250 364 L 225 279 L 190 197 L 147 123 L 105 72"/>
<path style="--d:4s;" pathLength="3333" clip-path="url(#z24214c4)" d="M 458 627 L 483 596 L 478 575 L 436 504 L 382 448"/>
<path style="--d:5s;" pathLength="3333" clip-path="url(#z24214c5)" d="M 466 501 L 494 512 L 668 547 L 695 548 L 718 527 L 694 365 L 663 291 L 637 265 L 605 279 L 563 310"/>
<path style="--d:6s;" pathLength="3333" clip-path="url(#z24214c6)" d="M 388 390 L 409 387 L 482 409 L 495 408 L 514 392 L 520 384 L 499 309 L 495 299 L 475 285"/>
<path style="--d:7s;" pathLength="3333" clip-path="url(#z24214c7)" d="M 385 236 L 394 246 L 463 260 L 524 254"/>
<path style="--d:8s;" pathLength="3333" clip-path="url(#z24214c8)" d="M 337 402 L 364 364 L 355 183 L 367 119 L 397 73 L 433 50 L 477 33 L 544 20 L 641 20 L 716 31 L 789 56 L 841 98 L 848 239"/>
</svg>