<svg id="z21441" class="acjk" viewBox="0 0 1024 1024" xmlns="http://www.w3.org/2000/svg">
<style>
<![CDATA[
@keyframes zk {
	to {
		stroke-dashoffset:0;
	}
}
svg.acjk path[clip-path] {
	--t:0.8s;
	animation:zk var(--t) linear forwards var(--d);
	stroke-dasharray:3337;
	stroke-dashoffset:3339;
	stroke-width:128;
	stroke-linecap:round;
	stroke-linejoin:round;
	fill:none;
	stroke:#000;
}
svg.acjk path[id] {fill:#ccc;}
]]>
</style>
  <path id="z21441d1" d="M 481 595 Q 532 607 657 628 C 687 633 671 652 641 649 Q 526 639 403 613 Q 390 609 386 613 Q 385 617 392 626 Q 507 750 531 770 Q 544 779 539 792 Q 535 805 490 832 Q 474 842 465 839 Q 452 835 455 814 Q 468 751 348 640 Q 327 625 300 609 Q 285 599 288 588 Q 292 570 315 549 Q 325 537 338 547 Q 386 580 445 586 L 481 595 Z"/>
  <path id="z21441d2" d="M 657 628 Q 697 576 707 573 Q 714 572 721 581 Q 728 591 726 615 Q 726 642 694 670 Q 618 727 604 722 Q 600 721 599 710 Q 600 698 641 649 L 657 628 Z"/>
  <path id="z21441d3" d="M 599 462 Q 653 465 841 466 Q 862 466 867 475 Q 873 487 856 501 Q 796 549 735 528 Q 639 510 492 490 Q 486 490 480 488 L 417 480 Q 296 467 161 451 Q 139 450 155 431 Q 170 416 188 411 Q 210 405 227 410 Q 306 432 397 443 L 459 451 Q 507 458 568 461 L 599 462 Z"/>
  <path id="z21441d4" d="M 480 488 Q 496 513 516 538 Q 526 547 521 557 Q 512 579 481 595 C 455 611 448 615 445 586 Q 442 534 417 480 L 397 443 Q 319 317 124 199 Q 109 190 94 181 Q 85 175 92 171 Q 99 167 110 170 Q 281 219 371 329 Q 414 375 459 451 L 480 488 Z"/>
  <path id="z21441d5" d="M 568 461 Q 581 427 762 246 Q 810 198 981 233 Q 1000 234 1002 240 Q 1005 247 989 254 Q 799 317 712 375 Q 679 396 648 421 Q 617 448 599 462 C 576 481 553 487 568 461 Z"/>
  <path id="z21441d6" d="M 374 308 Q 338 302 363 286 Q 399 261 458 273 Q 525 285 597 298 Q 628 304 634 309 Q 643 316 639 324 Q 632 336 604 344 Q 576 350 546 339 Q 509 329 469 319 Q 426 312 374 308 Z"/>
  <path id="z21441d7" d="M 361 187 Q 333 184 354 167 Q 384 142 412 148 Q 529 167 637 177 Q 647 176 656 187 Q 657 197 636 209 Q 606 231 536 211 Q 440 196 361 187 Z"/>
  <path id="z21441d8" d="M 245 42 Q 224 41 239 23 Q 252 8 270 2 Q 292 -4 308 0 Q 500 45 764 24 Q 785 24 790 32 Q 796 44 779 58 Q 728 100 691 92 Q 549 67 245 42 Z"/>
<defs>
  <clipPath id="z21441c1"><use href="#z21441d1"/></clipPath>
  <clipPath id="z21441c2"><use href="#z21441d2"/></clipPath>
  <clipPath id="z21441c3"><use href="#z21441d3"/></clipPath>
  <clipPath id="z21441c4"><use href="#z21441d4"/></clipPath>
  <clipPath id="z21441c5"><use href="#z21441d5"/></clipPath>
  <clipPath id="z21441c6"><use href="#z21441d6"/></clipPath>
  <clipPath id="z21441c7"><use href="#z21441d7"/></clipPath>
  <clipPath id="z21441c8"><use href="#z21441d8"/></clipPath>
</defs>
<path style="--d:1s;" pathLength="3333" clip-path="url(#z21441c1)" d="M 470 824 L 493 786 L 488 776 L 445 714 L 370 634 L 352 598 L 390 592 L 519 620 L 635 637 L 646 628"/>
<path style="--d:2s;" pathLength="3333" clip-path="url(#z21441c2)" d="M 607 714 L 682 644 L 699 618 L 709 582"/>
<path style="--d:3s;" pathLength="3333" clip-path="url(#z21441c3)" d="M 158 441 L 209 432 L 503 475 L 762 500 L 820 494 L 855 481"/>
<path style="--d:4s;" pathLength="3333" clip-path="url(#z21441c4)" d="M 453 578 L 479 552 L 434 456 L 366 359 L 289 284 L 243 250 L 147 195 L 97 175"/>
<path style="--d:5s;" pathLength="3333" clip-path="url(#z21441c5)" d="M 577 458 L 723 329 L 799 276 L 882 254 L 995 242"/>
<path style="--d:6s;" pathLength="3333" clip-path="url(#z21441c6)" d="M 366 298 L 414 290 L 445 292 L 560 318 L 627 320"/>
<path style="--d:7s;" pathLength="3333" clip-path="url(#z21441c7)" d="M 356 178 L 403 169 L 595 197 L 646 189"/>
<path style="--d:8s;" pathLength="3333" clip-path="url(#z21441c8)" d="M 242 32 L 292 22 L 446 43 L 681 60 L 715 60 L 779 38"/>
</svg>