<svg id="z22334" class="acjk" viewBox="0 0 1024 1024" xmlns="http://www.w3.org/2000/svg">
<style>
<![CDATA[
@keyframes zk {
	to {
		stroke-dashoffset:0;
	}
}
svg.acjk path[clip-path] {
	--t:0.8s;
	animation:zk var(--t) linear forwards var(--d);
	stroke-dasharray:3337;
	stroke-dashoffset:3339;
	stroke-width:128;
	stroke-linecap:round;
	stroke-linejoin:round;
	fill:none;
	stroke:#000;
}
svg.acjk path[id] {fill:#ccc;}
]]>
</style>
  <path id="z22334d1" d="M 290 471 Q 371 496 377 501 Q 384 508 380 517 Q 373 527 343 533 Q 316 536 292 524 L 242 504 Q 124 476 114 473 Q 80 464 106 450 Q 151 431 201 447 Q 220 453 242 458 L 290 471 Z"/>
  <path id="z22334d2" d="M 283 285 Q 287 382 290 471 L 292 524 Q 293 612 314 719 Q 318 731 296 747 Q 259 766 232 771 Q 214 774 206 765 Q 199 756 207 740 Q 235 700 236 671 Q 240 592 242 504 L 242 458 Q 242 367 238 266 C 237 236 282 255 283 285 Z"/>
  <path id="z22334d3" d="M 238 266 Q 180 242 117 215 Q 101 208 72 205 Q 59 202 58 191 Q 57 178 68 170 Q 93 157 130 142 Q 140 141 152 150 Q 176 175 327 271 Q 348 284 362 298 Q 374 308 373 317 Q 367 321 355 318 Q 319 302 283 285 L 238 266 Z"/>
  <path id="z22334d4" d="M 491 649 Q 512 568 418 346 Q 376 252 306 170 Q 281 137 254 108 Q 248 102 246 97 Q 242 87 252 88 Q 286 88 382 198 Q 392 214 406 231 Q 439 283 489 392 L 498 415 Q 519 478 546 576 Q 550 592 558 607 Q 568 620 564 633 Q 554 648 536 660 C 513 679 486 679 491 649 Z"/>
  <path id="z22334d5" d="M 638 216 Q 539 125 428 85 Q 403 78 404 73 Q 405 61 473 79 Q 578 106 670 175 L 709 214 Q 769 286 792 379 Q 804 421 826 441 Q 832 445 830 454 Q 827 475 774 500 Q 755 507 729 495 Q 719 488 685 476 Q 655 467 678 517 Q 699 560 742 651 Q 755 676 771 686 Q 789 696 793 707 Q 796 720 753 742 Q 705 767 666 744 Q 611 708 447 683 Q 443 683 441 682 Q 419 681 420 669 Q 421 659 453 651 Q 468 647 491 649 L 536 660 Q 539 663 663 700 Q 681 706 685 697 Q 694 673 639 537 Q 623 509 608 491 Q 593 475 601 459 Q 610 444 621 436 Q 630 430 637 431 Q 644 432 657 440 Q 711 464 734 442 Q 744 432 734 394 Q 710 292 669 251 L 638 216 Z"/>
  <path id="z22334d6" d="M 489 392 Q 541 350 628 228 Q 632 222 638 216 L 670 175 Q 752 82 774 74 Q 823 62 945 69 Q 982 70 979 81 Q 979 85 944 100 Q 767 163 710 214 L 709 214 L 669 251 Q 614 305 558 374 Q 530 410 498 415 C 469 424 466 412 489 392 Z"/>
<defs>
  <clipPath id="z22334c1"><use href="#z22334d1"/></clipPath>
  <clipPath id="z22334c2"><use href="#z22334d2"/></clipPath>
  <clipPath id="z22334c3"><use href="#z22334d3"/></clipPath>
  <clipPath id="z22334c4"><use href="#z22334d4"/></clipPath>
  <clipPath id="z22334c5"><use href="#z22334d5"/></clipPath>
  <clipPath id="z22334c6"><use href="#z22334d6"/></clipPath>
</defs>
<path style="--d:1s;" pathLength="3333" clip-path="url(#z22334c1)" d="M 107 462 L 160 461 L 254 484 L 326 509 L 369 510"/>
<path style="--d:2s;" pathLength="3333" clip-path="url(#z22334c2)" d="M 218 755 L 270 713 L 271 700 L 262 310 L 259 295 L 241 274"/>
<path style="--d:3s;" pathLength="3333" clip-path="url(#z22334c3)" d="M 74 190 L 131 181 L 368 313"/>
<path style="--d:4s;" pathLength="3333" clip-path="url(#z22334c4)" d="M 500 646 L 528 623 L 527 616 L 494 479 L 449 359 L 402 266 L 368 215 L 303 138 L 254 96"/>
<path style="--d:5s;" pathLength="3333" clip-path="url(#z22334c5)" d="M 429 670 L 471 667 L 509 673 L 683 726 L 719 715 L 727 703 L 719 675 L 641 491 L 637 469 L 661 459 L 699 468 L 747 470 L 761 466 L 778 450 L 758 365 L 732 297 L 702 248 L 657 198 L 586 145 L 533 115 L 466 90 L 459 82 L 409 74"/>
<path style="--d:6s;" pathLength="3333" clip-path="url(#z22334c6)" d="M 503 407 L 698 184 L 758 136 L 789 115 L 816 107 L 974 80"/>
</svg>