<svg id="z24466" class="acjk" viewBox="0 0 1024 1024" xmlns="http://www.w3.org/2000/svg">
<style>
<![CDATA[
@keyframes zk {
	to {
		stroke-dashoffset:0;
	}
}
svg.acjk path[clip-path] {
	--t:0.8s;
	animation:zk var(--t) linear forwards var(--d);
	stroke-dasharray:3337;
	stroke-dashoffset:3339;
	stroke-width:128;
	stroke-linecap:round;
	stroke-linejoin:round;
	fill:none;
	stroke:#000;
}
svg.acjk path[id] {fill:#ccc;}
]]>
</style>
  <path id="z24466d1" d="M 310 788 Q 323 752 246 647 Q 210 598 162 546 Q 150 536 148 531 Q 144 521 157 521 Q 208 527 345 681 Q 351 700 388 727 Q 398 736 395 750 Q 392 763 366 789 Q 341 808 323 811 Q 304 811 310 788 Z"/>
  <path id="z24466d2" d="M 265 380 Q 368 519 369 527 Q 368 530 368 532 Q 364 545 338 568 Q 313 587 295 588 Q 277 587 284 565 Q 296 534 283 509 Q 214 365 52 189 Q 42 180 39 174 Q 35 164 49 165 Q 94 172 240 348 L 265 380 Z"/>
  <path id="z24466d3" d="M 240 348 Q 273 315 247 135 Q 231 48 236 22 Q 236 -2 258 -25 Q 274 -40 286 -15 Q 299 24 299 67 Q 300 260 307 303 Q 314 328 305 338 Q 278 371 265 380 C 242 399 223 373 240 348 Z"/>
  <path id="z24466d4" d="M 659 602 Q 777 638 780 639 Q 789 648 784 656 Q 777 668 746 674 Q 718 678 663 655 L 609 637 Q 605 637 603 636 Q 555 623 500 615 Q 463 606 490 591 Q 535 567 600 588 Q 604 589 610 590 L 659 602 Z"/>
  <path id="z24466d5" d="M 650 487 Q 654 545 659 602 L 663 655 Q 666 724 681 775 Q 685 787 665 801 Q 631 820 608 823 Q 592 827 584 818 Q 577 811 585 796 Q 604 768 605 748 Q 608 696 609 637 L 610 590 Q 610 536 608 477 C 607 447 648 457 650 487 Z"/>
  <path id="z24466d6" d="M 637 444 Q 712 459 879 472 Q 898 473 902 482 Q 906 494 889 506 Q 832 542 776 521 Q 722 506 650 487 L 608 477 Q 604 477 601 476 Q 487 451 354 422 Q 335 418 350 403 Q 365 391 383 388 Q 404 384 419 390 Q 482 414 598 437 L 637 444 Z"/>
  <path id="z24466d7" d="M 653 164 Q 657 237 661 300 L 662 326 Q 665 384 667 394 Q 676 418 637 444 C 613 461 584 464 598 437 Q 610 416 611 388 Q 612 366 612 186 C 612 156 651 134 653 164 Z"/>
  <path id="z24466d8" d="M 661 300 Q 688 290 768 304 Q 826 317 828 318 Q 835 325 831 333 Q 824 343 797 350 Q 779 353 709 334 Q 685 330 662 326 C 632 321 632 309 661 300 Z"/>
  <path id="z24466d9" d="M 497 261 Q 516 298 525 306 Q 532 312 529 321 Q 528 330 515 339 Q 482 363 454 355 Q 447 352 450 341 Q 468 292 395 181 Q 376 150 324 91 Q 317 85 327 84 Q 399 102 485 240 L 497 261 Z"/>
  <path id="z24466d10" d="M 485 240 Q 615 131 755 34 Q 780 15 817 18 Q 886 24 954 47 Q 972 51 972 56 Q 973 63 959 67 Q 901 82 834 95 Q 768 110 653 164 L 612 186 Q 584 202 555 222 Q 521 247 497 261 C 471 277 462 259 485 240 Z"/>
<defs>
  <clipPath id="z24466c1"><use href="#z24466d1"/></clipPath>
  <clipPath id="z24466c2"><use href="#z24466d2"/></clipPath>
  <clipPath id="z24466c3"><use href="#z24466d3"/></clipPath>
  <clipPath id="z24466c4"><use href="#z24466d4"/></clipPath>
  <clipPath id="z24466c5"><use href="#z24466d5"/></clipPath>
  <clipPath id="z24466c6"><use href="#z24466d6"/></clipPath>
  <clipPath id="z24466c7"><use href="#z24466d7"/></clipPath>
  <clipPath id="z24466c8"><use href="#z24466d8"/></clipPath>
  <clipPath id="z24466c9"><use href="#z24466d9"/></clipPath>
  <clipPath id="z24466c10"><use href="#z24466d10"/></clipPath>
</defs>
<path style="--d:1s;" pathLength="3333" clip-path="url(#z24466c1)" d="M 322 796 L 343 769 L 349 748 L 300 672 L 259 622 L 185 548 L 157 530"/>
<path style="--d:2s;" pathLength="3333" clip-path="url(#z24466c2)" d="M 295 574 L 316 552 L 326 528 L 283 447 L 185 312 L 89 206 L 47 173"/>
<path style="--d:3s;" pathLength="3333" clip-path="url(#z24466c3)" d="M 264 372 L 282 322 L 265 19 L 270 -14"/>
<path style="--d:4s;" pathLength="3333" clip-path="url(#z24466c4)" d="M 492 604 L 515 599 L 569 603 L 722 648 L 776 648"/>
<path style="--d:5s;" pathLength="3333" clip-path="url(#z24466c5)" d="M 596 809 L 640 771 L 631 510 L 614 484"/>
<path style="--d:6s;" pathLength="3333" clip-path="url(#z24466c6)" d="M 353 412 L 408 410 L 524 441 L 803 497 L 845 497 L 891 487"/>
<path style="--d:7s;" pathLength="3333" clip-path="url(#z24466c7)" d="M 605 434 L 632 418 L 639 403 L 632 201 L 649 172"/>
<path style="--d:8s;" pathLength="3333" clip-path="url(#z24466c8)" d="M 667 306 L 786 330 L 823 327"/>
<path style="--d:9s;" pathLength="3333" clip-path="url(#z24466c9)" d="M 463 345 L 488 314 L 459 243 L 406 162 L 358 110 L 331 90"/>
<path style="--d:10s;" pathLength="3333" clip-path="url(#z24466c10)" d="M 499 253 L 511 235 L 598 172 L 788 63 L 835 57 L 966 57"/>
</svg>