<svg id="z28632" class="acjk" viewBox="0 0 1024 1024" xmlns="http://www.w3.org/2000/svg">
<style>
<![CDATA[
@keyframes zk {
	to {
		stroke-dashoffset:0;
	}
}
svg.acjk path[clip-path] {
	--t:0.8s;
	animation:zk var(--t) linear forwards var(--d);
	stroke-dasharray:3337;
	stroke-dashoffset:3339;
	stroke-width:128;
	stroke-linecap:round;
	stroke-linejoin:round;
	fill:none;
	stroke:#000;
}
svg.acjk path[id] {fill:#ccc;}
]]>
</style>
  <path id="z28632d1" d="M 243 747 Q 264 728 285 704 Q 298 691 316 690 Q 326 691 333 705 Q 337 720 329 751 Q 325 769 297 781 Q 230 805 216 799 Q 210 795 212 782 Q 216 770 243 747 Z"/>
  <path id="z28632d2" d="M 134 538 Q 171 483 205 458 Q 220 454 231 465 Q 238 478 239 495 Q 230 541 152 575 Q 136 582 126 580 Q 120 579 121 567 Q 121 554 134 538 Z"/>
  <path id="z28632d3" d="M 129 175 Q 117 171 120 155 Q 132 83 166 64 Q 173 57 183 60 Q 190 61 191 86 Q 200 141 297 381 Q 304 397 303 402 Q 302 412 293 406 Q 284 400 169 217 Q 157 196 129 175 Z"/>
  <path id="z28632d4" d="M 573 815 Q 594 799 615 777 Q 630 764 646 766 Q 656 767 661 780 Q 665 796 654 825 Q 648 841 622 851 Q 556 869 544 863 Q 540 859 541 846 Q 545 836 573 815 Z"/>
  <path id="z28632d5" d="M 416 684 Q 407 705 397 715 Q 382 727 380 705 Q 384 672 335 617 Q 319 596 341 554 Q 356 535 368 555 Q 383 574 393 605 Q 405 641 415 661 C 421 673 421 673 416 684 Z"/>
  <path id="z28632d6" d="M 415 661 Q 433 652 477 664 Q 571 701 726 723 Q 762 729 775 728 Q 782 724 781 718 Q 781 714 766 672 Q 757 659 763 656 Q 770 652 787 662 Q 830 683 866 687 Q 894 690 895 698 Q 892 707 831 753 Q 807 772 731 751 Q 722 751 497 702 Q 455 692 416 684 C 387 678 386 668 415 661 Z"/>
  <path id="z28632d7" d="M 453 598 Q 434 561 409 528 Q 393 509 404 478 Q 408 465 425 473 Q 464 498 469 553 Q 475 578 471 596 Q 467 603 463 604 Q 456 603 453 598 Z"/>
  <path id="z28632d8" d="M 511 565 Q 565 498 658 500 Q 692 500 729 511 Q 751 523 758 538 Q 765 551 744 555 Q 708 571 664 605 Q 661 606 659 605 Q 658 602 662 598 Q 692 558 688 548 Q 684 544 653 538 Q 589 529 517 576 Q 511 582 507 577 Q 504 573 511 565 Z"/>
  <path id="z28632d9" d="M 557 620 Q 602 584 608 583 Q 615 584 618 593 Q 621 602 614 621 Q 607 637 554 650 Q 544 651 540 650 Q 536 649 538 639 Q 539 632 557 620 Z"/>
  <path id="z28632d10" d="M 752 599 Q 774 580 797 556 Q 806 549 815 548 Q 822 548 826 557 Q 829 566 824 585 Q 817 609 750 629 Q 740 632 736 630 Q 732 629 733 620 Q 734 613 752 599 Z"/>
  <path id="z28632d11" d="M 448 416 Q 438 420 411 423 Q 401 424 398 420 Q 394 416 399 405 Q 400 401 403 398 Q 422 370 439 318 Q 440 308 448 299 C 467 276 472 273 474 303 Q 475 313 473 324 Q 463 369 460 388 C 456 413 456 413 448 416 Z"/>
  <path id="z28632d12" d="M 774 353 Q 792 402 813 414 Q 826 430 814 445 Q 801 457 755 477 Q 739 484 721 477 Q 610 434 448 416 C 418 413 431 379 460 388 Q 475 394 524 401 L 543 405 Q 579 412 616 419 L 647 425 Q 719 441 731 430 Q 740 421 726 344 C 721 314 763 325 774 353 Z"/>
  <path id="z28632d13" d="M 567 317 Q 567 372 543 405 C 526 430 524 431 524 401 Q 524 355 544 314 C 557 287 567 287 567 317 Z"/>
  <path id="z28632d14" d="M 630 327 Q 639 345 653 377 Q 657 384 663 396 Q 670 405 665 411 Q 659 418 647 425 C 621 441 604 447 616 419 Q 625 403 614 340 Q 611 333 611 324 C 610 294 617 300 630 327 Z"/>
  <path id="z28632d15" d="M 448 299 Q 391 293 334 283 Q 316 280 330 267 Q 342 255 356 252 Q 374 248 387 252 Q 612 321 916 320 Q 917 320 919 320 Q 935 320 939 328 Q 943 337 930 348 Q 879 384 819 363 Q 797 360 774 353 L 726 344 Q 680 337 630 327 L 611 324 Q 589 321 567 317 L 544 314 Q 510 310 474 303 L 448 299 Z"/>
  <path id="z28632d16" d="M 630 207 Q 711 220 813 221 Q 829 222 832 229 Q 836 239 822 249 Q 776 280 736 265 Q 619 235 425 202 Q 409 199 421 187 Q 433 177 447 173 Q 463 169 476 174 Q 528 190 587 200 L 630 207 Z"/>
  <path id="z28632d17" d="M 587 200 Q 599 172 603 41 Q 602 8 591 -3 Q 585 -6 520 4 Q 508 7 509 0 Q 510 -7 519 -15 Q 571 -57 602 -90 Q 612 -97 625 -84 Q 661 -36 655 74 Q 655 78 655 81 Q 654 118 655 152 Q 661 177 656 186 Q 650 195 630 207 C 605 223 578 229 587 200 Z"/>
<defs>
  <clipPath id="z28632c1"><use href="#z28632d1"/></clipPath>
  <clipPath id="z28632c2"><use href="#z28632d2"/></clipPath>
  <clipPath id="z28632c3"><use href="#z28632d3"/></clipPath>
  <clipPath id="z28632c4"><use href="#z28632d4"/></clipPath>
  <clipPath id="z28632c5"><use href="#z28632d5"/></clipPath>
  <clipPath id="z28632c6"><use href="#z28632d6"/></clipPath>
  <clipPath id="z28632c7"><use href="#z28632d7"/></clipPath>
  <clipPath id="z28632c8"><use href="#z28632d8"/></clipPath>
  <clipPath id="z28632c9"><use href="#z28632d9"/></clipPath>
  <clipPath id="z28632c10"><use href="#z28632d10"/></clipPath>
  <clipPath id="z28632c11"><use href="#z28632d11"/></clipPath>
  <clipPath id="z28632c12"><use href="#z28632d12"/></clipPath>
  <clipPath id="z28632c13"><use href="#z28632d13"/></clipPath>
  <clipPath id="z28632c14"><use href="#z28632d14"/></clipPath>
  <clipPath id="z28632c15"><use href="#z28632d15"/></clipPath>
  <clipPath id="z28632c16"><use href="#z28632d16"/></clipPath>
  <clipPath id="z28632c17"><use href="#z28632d17"/></clipPath>
</defs>
<path style="--d:1s;" pathLength="3333" clip-path="url(#z28632c1)" d="M 221 792 L 290 748 L 313 708"/>
<path style="--d:2s;" pathLength="3333" clip-path="url(#z28632c2)" d="M 132 570 L 195 511 L 210 491 L 212 477"/>
<path style="--d:3s;" pathLength="3333" clip-path="url(#z28632c3)" d="M 178 70 L 166 99 L 164 149 L 297 401"/>
<path style="--d:4s;" pathLength="3333" clip-path="url(#z28632c4)" d="M 549 857 L 616 820 L 643 784"/>
<path style="--d:5s;" pathLength="3333" clip-path="url(#z28632c5)" d="M 389 709 L 395 668 L 358 596 L 354 559"/>
<path style="--d:6s;" pathLength="3333" clip-path="url(#z28632c6)" d="M 422 666 L 568 709 L 576 706 L 614 718 L 780 745 L 804 734 L 819 716 L 768 661"/>
<path style="--d:7s;" pathLength="3333" clip-path="url(#z28632c7)" d="M 462 595 L 455 564 L 416 482"/>
<path style="--d:8s;" pathLength="3333" clip-path="url(#z28632c8)" d="M 512 572 L 544 546 L 593 524 L 635 518 L 702 528 L 714 536 L 705 558 L 685 576 L 683 585 L 669 589 L 671 599 L 662 602"/>
<path style="--d:9s;" pathLength="3333" clip-path="url(#z28632c9)" d="M 547 643 L 601 609 L 609 592"/>
<path style="--d:10s;" pathLength="3333" clip-path="url(#z28632c10)" d="M 743 623 L 786 595 L 814 561"/>
<path style="--d:11s;" pathLength="3333" clip-path="url(#z28632c11)" d="M 406 413 L 431 397 L 452 332 L 467 308"/>
<path style="--d:12s;" pathLength="3333" clip-path="url(#z28632c12)" d="M 458 412 L 469 404 L 738 455 L 753 449 L 771 425 L 752 371 L 730 356"/>
<path style="--d:13s;" pathLength="3333" clip-path="url(#z28632c13)" d="M 531 394 L 537 390 L 552 330 L 560 326"/>
<path style="--d:14s;" pathLength="3333" clip-path="url(#z28632c14)" d="M 624 417 L 642 400 L 624 336 L 615 328"/>
<path style="--d:15s;" pathLength="3333" clip-path="url(#z28632c15)" d="M 332 275 L 377 270 L 525 300 L 845 345 L 879 345 L 929 332"/>
<path style="--d:16s;" pathLength="3333" clip-path="url(#z28632c16)" d="M 433 192 L 466 190 L 529 206 L 758 245 L 822 234"/>
<path style="--d:17s;" pathLength="3333" clip-path="url(#z28632c17)" d="M 595 199 L 626 171 L 630 45 L 620 -15 L 602 -39 L 516 -1"/>
</svg>