<svg id="z20769" class="acjk" viewBox="0 0 1024 1024" xmlns="http://www.w3.org/2000/svg">
<style>
<![CDATA[
@keyframes zk {
	to {
		stroke-dashoffset:0;
	}
}
svg.acjk path[clip-path] {
	--t:0.8s;
	animation:zk var(--t) linear forwards var(--d);
	stroke-dasharray:3337;
	stroke-dashoffset:3339;
	stroke-width:128;
	stroke-linecap:round;
	stroke-linejoin:round;
	fill:none;
	stroke:#000;
}
svg.acjk path[id] {fill:#ccc;}
]]>
</style>
  <path id="z20769d1" d="M 199 510 Q 248 573 302 665 Q 327 711 349 733 Q 358 745 353 759 Q 349 772 318 795 Q 290 814 269 813 Q 250 810 259 788 Q 272 761 254 709 Q 194 568 62 396 Q 52 386 50 379 Q 46 367 61 370 Q 94 379 174 478 L 199 510 Z"/>
  <path id="z20769d2" d="M 174 478 Q 198 417 199 362 Q 199 215 170 103 Q 160 58 194 7 Q 195 7 197 4 Q 215 -12 227 15 Q 242 55 241 102 Q 241 364 249 424 Q 256 451 247 462 Q 207 505 199 510 C 176 530 164 506 174 478 Z"/>
  <path id="z20769d3" d="M 422 731 Q 412 735 386 741 Q 374 744 371 739 Q 365 733 373 718 Q 407 636 425 502 Q 426 462 449 435 Q 465 414 470 429 Q 471 435 473 441 L 475 465 Q 475 487 470 517 Q 443 658 438 700 C 434 727 434 727 422 731 Z"/>
  <path id="z20769d4" d="M 649 459 Q 670 426 689 417 Q 699 410 715 431 Q 734 465 770 654 Q 779 685 802 710 Q 815 722 804 736 Q 789 752 746 780 Q 730 789 663 773 Q 641 773 422 731 C 393 725 409 692 438 700 Q 478 712 539 721 L 576 728 Q 690 749 705 735 Q 723 713 719 693 Q 686 512 669 485 C 657 457 643 467 649 459 Z"/>
  <path id="z20769d5" d="M 596 590 Q 630 597 660 601 Q 682 605 673 617 Q 663 630 639 634 Q 621 637 598 630 L 551 616 Q 517 606 486 596 Q 470 592 490 579 Q 499 573 516 576 Q 534 580 552 582 L 596 590 Z"/>
  <path id="z20769d6" d="M 592 487 Q 593 542 596 590 L 598 630 Q 602 703 593 714 Q 584 723 576 728 C 552 745 529 749 539 721 Q 548 703 551 623 Q 550 620 551 616 L 552 582 Q 552 542 553 479 C 553 449 591 457 592 487 Z"/>
  <path id="z20769d7" d="M 473 441 Q 479 440 488 441 Q 576 453 649 459 C 679 461 696 472 669 485 Q 662 489 652 492 Q 633 496 597 488 Q 594 488 592 487 L 553 479 Q 513 473 475 465 C 446 459 443 443 473 441 Z"/>
  <path id="z20769d8" d="M 303 329 Q 293 333 277 337 Q 267 340 264 336 Q 260 332 265 319 Q 292 241 298 120 Q 298 84 316 58 Q 329 40 334 52 Q 338 62 339 76 L 340 96 Q 339 112 337 132 Q 321 259 318 298 C 316 324 316 324 303 329 Z"/>
  <path id="z20769d9" d="M 463 93 Q 476 80 499 37 Q 509 22 522 33 Q 546 51 555 201 Q 558 282 572 309 Q 582 328 567 338 Q 512 380 477 362 Q 384 340 303 329 C 273 325 288 294 318 298 Q 325 298 335 300 Q 353 306 385 314 L 418 321 Q 481 339 499 329 Q 506 325 508 308 Q 512 217 501 119 Q 500 115 496 111 C 486 83 445 115 463 93 Z"/>
  <path id="z20769d10" d="M 436 204 Q 460 210 482 213 Q 500 217 493 226 Q 484 236 464 240 Q 452 241 437 237 L 397 224 Q 369 215 345 206 Q 332 202 348 191 Q 349 191 397 195 L 436 204 Z"/>
  <path id="z20769d11" d="M 433 122 Q 434 167 436 204 L 437 237 Q 437 261 439 284 Q 445 302 418 321 C 394 339 377 343 385 314 Q 394 284 397 224 L 397 195 Q 397 162 399 113 C 400 83 432 92 433 122 Z"/>
  <path id="z20769d12" d="M 339 76 Q 343 75 352 76 Q 413 86 463 93 C 493 97 506 99 496 111 Q 487 123 469 125 Q 454 128 433 122 L 399 113 Q 368 106 340 96 C 312 86 309 79 339 76 Z"/>
  <path id="z20769d13" d="M 641 350 Q 631 356 608 361 Q 598 365 595 360 Q 589 356 595 342 Q 595 341 596 339 Q 596 333 599 329 Q 624 250 632 123 Q 632 83 651 55 Q 664 36 670 48 Q 671 55 674 62 L 677 87 Q 677 109 674 136 Q 656 268 652 314 C 649 344 649 346 641 350 Z"/>
  <path id="z20769d14" d="M 805 75 Q 820 56 838 15 Q 848 -3 864 9 Q 889 25 912 177 Q 924 291 942 325 Q 954 346 938 357 Q 877 405 838 389 Q 648 352 641 350 C 612 344 623 305 652 314 Q 658 317 723 333 L 757 341 Q 842 365 863 353 Q 872 349 872 328 Q 868 220 846 108 Q 845 96 822 99 C 792 96 791 96 805 75 Z"/>
  <path id="z20769d15" d="M 777 214 Q 802 220 826 223 Q 845 227 837 238 Q 827 250 806 252 Q 794 253 778 249 L 736 236 Q 708 227 685 219 Q 672 215 689 203 Q 692 203 736 206 L 777 214 Z"/>
  <path id="z20769d16" d="M 774 107 Q 775 165 777 214 L 778 249 Q 778 276 780 302 Q 786 315 778 324 Q 768 334 757 341 C 732 358 711 361 723 333 Q 732 320 736 236 L 736 206 Q 736 164 738 100 C 739 70 773 77 774 107 Z"/>
  <path id="z20769d17" d="M 674 62 Q 675 62 678 62 Q 748 71 805 75 C 835 77 847 82 822 99 Q 813 106 803 107 Q 791 110 774 107 L 738 100 Q 704 94 677 87 C 648 80 644 61 674 62 Z"/>
<defs>
  <clipPath id="z20769c1"><use href="#z20769d1"/></clipPath>
  <clipPath id="z20769c2"><use href="#z20769d2"/></clipPath>
  <clipPath id="z20769c3"><use href="#z20769d3"/></clipPath>
  <clipPath id="z20769c4"><use href="#z20769d4"/></clipPath>
  <clipPath id="z20769c5"><use href="#z20769d5"/></clipPath>
  <clipPath id="z20769c6"><use href="#z20769d6"/></clipPath>
  <clipPath id="z20769c7"><use href="#z20769d7"/></clipPath>
  <clipPath id="z20769c8"><use href="#z20769d8"/></clipPath>
  <clipPath id="z20769c9"><use href="#z20769d9"/></clipPath>
  <clipPath id="z20769c10"><use href="#z20769d10"/></clipPath>
  <clipPath id="z20769c11"><use href="#z20769d11"/></clipPath>
  <clipPath id="z20769c12"><use href="#z20769d12"/></clipPath>
  <clipPath id="z20769c13"><use href="#z20769d13"/></clipPath>
  <clipPath id="z20769c14"><use href="#z20769d14"/></clipPath>
  <clipPath id="z20769c15"><use href="#z20769d15"/></clipPath>
  <clipPath id="z20769c16"><use href="#z20769d16"/></clipPath>
  <clipPath id="z20769c17"><use href="#z20769d17"/></clipPath>
</defs>
<path style="--d:1s;" pathLength="3333" clip-path="url(#z20769c1)" d="M 270 798 L 288 783 L 305 747 L 264 657 L 208 564 L 137 463 L 101 418 L 59 379"/>
<path style="--d:2s;" pathLength="3333" clip-path="url(#z20769c2)" d="M 197 503 L 202 474 L 219 444 L 222 390 L 218 226 L 204 81 L 210 16"/>
<path style="--d:3s;" pathLength="3333" clip-path="url(#z20769c3)" d="M 380 732 L 401 713 L 411 693 L 443 547 L 460 434"/>
<path style="--d:4s;" pathLength="3333" clip-path="url(#z20769c4)" d="M 436 732 L 452 720 L 570 744 L 696 760 L 725 755 L 748 735 L 758 717 L 703 485 L 688 458 L 661 456"/>
<path style="--d:5s;" pathLength="3333" clip-path="url(#z20769c5)" d="M 487 587 L 621 615 L 664 611"/>
<path style="--d:6s;" pathLength="3333" clip-path="url(#z20769c6)" d="M 546 720 L 571 699 L 575 663 L 573 511 L 558 488"/>
<path style="--d:7s;" pathLength="3333" clip-path="url(#z20769c7)" d="M 481 446 L 488 455 L 639 475 L 663 483"/>
<path style="--d:8s;" pathLength="3333" clip-path="url(#z20769c8)" d="M 271 331 L 288 313 L 298 284 L 326 57"/>
<path style="--d:9s;" pathLength="3333" clip-path="url(#z20769c9)" d="M 310 326 L 328 316 L 497 349 L 520 340 L 540 318 L 530 165 L 520 102 L 510 82 L 470 93"/>
<path style="--d:10s;" pathLength="3333" clip-path="url(#z20769c10)" d="M 349 199 L 447 224 L 485 221"/>
<path style="--d:11s;" pathLength="3333" clip-path="url(#z20769c11)" d="M 392 310 L 413 296 L 417 262 L 416 144 L 413 130 L 403 121"/>
<path style="--d:12s;" pathLength="3333" clip-path="url(#z20769c12)" d="M 346 81 L 365 92 L 488 113"/>
<path style="--d:13s;" pathLength="3333" clip-path="url(#z20769c13)" d="M 602 353 L 621 335 L 631 299 L 662 54"/>
<path style="--d:14s;" pathLength="3333" clip-path="url(#z20769c14)" d="M 644 344 L 663 336 L 765 357 L 774 364 L 848 375 L 877 370 L 899 351 L 907 336 L 885 168 L 872 100 L 853 66 L 853 20"/>
<path style="--d:15s;" pathLength="3333" clip-path="url(#z20769c15)" d="M 688 211 L 788 235 L 829 232"/>
<path style="--d:16s;" pathLength="3333" clip-path="url(#z20769c16)" d="M 729 333 L 756 310 L 756 122 L 742 109"/>
<path style="--d:17s;" pathLength="3333" clip-path="url(#z20769c17)" d="M 676 68 L 686 70 L 689 77 L 814 96"/>
</svg>