<svg id="z25449" class="acjk" viewBox="0 0 1024 1024" xmlns="http://www.w3.org/2000/svg">
<style>
<![CDATA[
@keyframes zk {
	to {
		stroke-dashoffset:0;
	}
}
svg.acjk path[clip-path] {
	--t:0.8s;
	animation:zk var(--t) linear forwards var(--d);
	stroke-dasharray:3337;
	stroke-dashoffset:3339;
	stroke-width:128;
	stroke-linecap:round;
	stroke-linejoin:round;
	fill:none;
	stroke:#000;
}
svg.acjk path[id] {fill:#ccc;}
]]>
</style>
  <path id="z25449d1" d="M 316 504 Q 335 511 361 517 Q 392 527 397 531 Q 406 540 400 548 Q 393 560 362 565 Q 340 568 318 560 L 267 540 Q 171 513 135 507 Q 98 498 126 483 Q 174 462 229 480 Q 245 486 266 490 L 316 504 Z"/>
  <path id="z25449d2" d="M 263 327 Q 262 239 259 130 Q 258 106 245 98 Q 241 97 180 119 Q 149 135 150 125 Q 151 118 168 100 Q 225 40 237 9 Q 252 -27 267 -30 Q 282 -31 299 2 Q 320 47 323 122 Q 316 246 314 369 L 314 402 Q 314 454 316 504 L 318 560 Q 318 668 338 737 Q 356 767 300 789 Q 266 808 247 801 Q 229 795 245 772 Q 267 744 268 711 Q 269 693 267 540 L 266 490 Q 265 438 263 371 L 263 327 Z"/>
  <path id="z25449d3" d="M 263 371 Q 68 257 67 256 Q 52 250 50 241 Q 50 232 64 219 Q 83 206 105 198 Q 120 194 130 206 Q 185 267 263 327 L 314 369 Q 335 387 356 401 Q 375 414 385 428 Q 391 441 380 440 Q 371 440 314 402 L 263 371 Z"/>
  <path id="z25449d4" d="M 591 764 Q 621 745 654 720 Q 670 708 686 712 Q 696 713 701 728 Q 704 744 690 774 Q 681 793 648 803 Q 569 821 556 811 Q 552 807 554 793 Q 560 783 591 764 Z"/>
  <path id="z25449d5" d="M 774 544 Q 801 596 823 609 Q 839 627 826 645 Q 810 658 759 683 Q 741 690 674 664 Q 607 645 521 627 C 492 621 511 589 540 595 Q 550 596 562 601 Q 635 616 706 631 Q 725 635 732 628 Q 739 622 737 610 Q 730 573 722 544 C 714 515 760 518 774 544 Z"/>
  <path id="z25449d6" d="M 521 468 Q 525 467 536 469 Q 615 491 789 511 Q 799 512 800 521 Q 800 528 774 544 C 759 553 751 551 722 544 Q 613 516 524 500 C 494 495 491 468 521 468 Z"/>
  <path id="z25449d7" d="M 521 627 Q 479 654 462 648 Q 450 641 457 628 Q 470 604 472 544 Q 471 538 471 529 Q 468 396 432 283 Q 405 202 338 93 Q 334 87 332 81 Q 329 71 339 73 Q 369 79 431 178 Q 444 200 457 227 Q 502 330 521 468 L 524 500 Q 524 501 525 502 Q 531 577 540 595 C 545 612 545 612 521 627 Z"/>
  <path id="z25449d8" d="M 671 304 Q 719 316 819 328 Q 829 327 837 339 Q 838 349 816 360 Q 789 379 685 350 Q 682 350 680 349 Q 677 349 678 348 L 623 336 Q 614 336 524 323 Q 496 319 518 303 Q 540 288 581 287 Q 597 291 618 294 L 671 304 Z"/>
  <path id="z25449d9" d="M 665 280 Q 668 292 671 304 L 678 348 Q 685 391 689 397 Q 696 403 690 412 Q 686 419 659 429 Q 631 442 617 437 Q 607 433 615 418 Q 624 360 623 336 L 618 294 Q 594 152 474 75 Q 453 63 427 48 Q 405 35 432 37 Q 475 34 550 79 Q 620 119 657 245 L 665 280 Z"/>
  <path id="z25449d10" d="M 657 245 Q 715 145 790 39 Q 806 20 835 20 Q 934 19 965 23 Q 975 24 976 29 Q 977 33 965 42 Q 830 111 768 172 Q 719 221 665 280 C 645 302 642 271 657 245 Z"/>
  <path id="z25449d11" d="M 805 436 Q 827 417 850 392 Q 863 379 878 380 Q 888 380 893 393 Q 897 406 889 435 Q 885 453 858 465 Q 794 489 780 483 Q 776 479 776 467 Q 780 457 805 436 Z"/>
<defs>
  <clipPath id="z25449c1"><use href="#z25449d1"/></clipPath>
  <clipPath id="z25449c2"><use href="#z25449d2"/></clipPath>
  <clipPath id="z25449c3"><use href="#z25449d3"/></clipPath>
  <clipPath id="z25449c4"><use href="#z25449d4"/></clipPath>
  <clipPath id="z25449c5"><use href="#z25449d5"/></clipPath>
  <clipPath id="z25449c6"><use href="#z25449d6"/></clipPath>
  <clipPath id="z25449c7"><use href="#z25449d7"/></clipPath>
  <clipPath id="z25449c8"><use href="#z25449d8"/></clipPath>
  <clipPath id="z25449c9"><use href="#z25449d9"/></clipPath>
  <clipPath id="z25449c10"><use href="#z25449d10"/></clipPath>
  <clipPath id="z25449c11"><use href="#z25449d11"/></clipPath>
</defs>
<path style="--d:1s;" pathLength="3333" clip-path="url(#z25449c1)" d="M 127 496 L 164 492 L 202 497 L 321 534 L 390 541"/>
<path style="--d:2s;" pathLength="3333" clip-path="url(#z25449c2)" d="M 253 786 L 270 778 L 301 746 L 291 579 L 290 115 L 283 83 L 267 55 L 246 62 L 168 113 L 167 120 L 156 122"/>
<path style="--d:3s;" pathLength="3333" clip-path="url(#z25449c3)" d="M 62 239 L 108 237 L 235 334 L 379 433"/>
<path style="--d:4s;" pathLength="3333" clip-path="url(#z25449c4)" d="M 562 805 L 644 769 L 682 731"/>
<path style="--d:5s;" pathLength="3333" clip-path="url(#z25449c5)" d="M 530 625 L 550 616 L 727 657 L 750 654 L 778 626 L 757 572 L 729 549"/>
<path style="--d:6s;" pathLength="3333" clip-path="url(#z25449c6)" d="M 528 473 L 539 486 L 701 519 L 768 527 L 791 520"/>
<path style="--d:7s;" pathLength="3333" clip-path="url(#z25449c7)" d="M 467 636 L 497 606 L 503 590 L 494 463 L 479 367 L 455 281 L 429 217 L 398 157 L 340 81"/>
<path style="--d:8s;" pathLength="3333" clip-path="url(#z25449c8)" d="M 519 314 L 574 308 L 741 341 L 799 346 L 827 340"/>
<path style="--d:9s;" pathLength="3333" clip-path="url(#z25449c9)" d="M 623 427 L 652 395 L 652 362 L 638 268 L 613 193 L 576 133 L 544 101 L 500 70 L 437 46"/>
<path style="--d:10s;" pathLength="3333" clip-path="url(#z25449c10)" d="M 669 273 L 674 246 L 700 211 L 757 140 L 823 71 L 969 29"/>
<path style="--d:11s;" pathLength="3333" clip-path="url(#z25449c11)" d="M 784 477 L 851 435 L 877 396"/>
</svg>