<svg id="z24938" class="acjk" viewBox="0 0 1024 1024" xmlns="http://www.w3.org/2000/svg">
<style>
<![CDATA[
@keyframes zk {
	to {
		stroke-dashoffset:0;
	}
}
svg.acjk path[clip-path] {
	--t:0.8s;
	animation:zk var(--t) linear forwards var(--d);
	stroke-dasharray:3337;
	stroke-dashoffset:3339;
	stroke-width:128;
	stroke-linecap:round;
	stroke-linejoin:round;
	fill:none;
	stroke:#000;
}
svg.acjk path[id] {fill:#ccc;}
]]>
</style>
  <path id="z24938d1" d="M 119 513 Q 103 450 76 392 Q 61 361 81 334 Q 90 319 106 333 Q 124 349 133 378 Q 149 426 147 466 Q 148 494 139 516 Q 135 523 129 523 Q 122 522 119 513 Z"/>
  <path id="z24938d2" d="M 272 545 L 273 545 Q 297 526 322 503 Q 332 493 345 494 Q 354 494 357 505 Q 361 515 353 539 Q 349 555 323 567 Q 299 576 273 581 C 244 587 246 560 272 545 Z"/>
  <path id="z24938d3" d="M 273 581 Q 276 671 294 732 Q 303 747 300 760 Q 293 770 238 805 Q 214 823 193 807 Q 189 803 194 786 Q 227 737 227 688 Q 228 615 229 534 Q 225 390 220 234 Q 214 156 193 85 Q 183 48 207 -18 Q 214 -36 222 -39 Q 228 -46 236 -37 Q 263 -21 264 45 Q 263 94 272 545 L 273 581 Z"/>
  <path id="z24938d4" d="M 469 650 Q 508 641 543 648 Q 835 703 849 710 Q 849 711 850 711 Q 860 718 855 728 Q 848 740 818 748 Q 791 754 687 723 Q 566 696 464 685 C 434 682 440 656 469 650 Z"/>
  <path id="z24938d5" d="M 581 571 Q 574 575 544 579 Q 534 580 532 577 Q 528 573 535 560 Q 557 517 574 447 Q 578 426 591 413 Q 606 397 609 409 Q 610 418 611 430 L 607 458 Q 594 519 590 544 C 586 569 586 569 581 571 Z"/>
  <path id="z24938d6" d="M 755 484 Q 776 541 801 554 Q 814 570 802 584 Q 789 594 747 613 Q 732 620 715 613 Q 681 597 647 587 Q 616 578 581 571 C 552 565 560 539 590 544 Q 656 556 725 570 L 726 569 Q 733 562 731 550 Q 724 514 714 485 C 705 457 744 456 755 484 Z"/>
  <path id="z24938d7" d="M 611 430 Q 618 429 629 431 Q 674 441 771 453 Q 780 454 780 462 Q 780 469 755 484 C 742 492 742 492 714 485 L 713 485 Q 653 467 607 458 C 578 452 581 432 611 430 Z"/>
  <path id="z24938d8" d="M 518 324 Q 511 328 486 330 Q 479 331 476 328 Q 472 324 478 314 Q 503 269 519 196 Q 523 174 536 159 Q 549 146 552 156 Q 555 168 552 185 L 547 213 Q 531 279 526 302 C 521 323 521 323 518 324 Z"/>
  <path id="z24938d9" d="M 640 224 Q 656 282 675 299 Q 694 318 676 331 Q 661 340 640 354 Q 625 363 611 355 Q 592 343 569 336 Q 547 330 518 324 C 489 318 496 298 526 302 Q 530 302 595 315 Q 611 319 616 312 Q 619 309 600 226 C 593 197 632 195 640 224 Z"/>
  <path id="z24938d10" d="M 552 185 Q 559 184 569 186 Q 596 190 654 194 Q 663 195 664 202 Q 664 209 640 224 C 634 228 630 228 600 226 Q 599 227 597 226 Q 569 219 547 213 C 518 205 522 187 552 185 Z"/>
  <path id="z24938d11" d="M 742 349 Q 733 355 704 360 Q 695 363 692 358 Q 688 354 694 341 Q 716 295 728 219 Q 729 197 743 181 Q 756 165 761 176 Q 764 185 764 199 L 761 232 Q 749 302 747 326 C 745 348 745 348 742 349 Z"/>
  <path id="z24938d12" d="M 870 247 Q 892 305 914 323 Q 933 342 916 356 Q 865 389 857 387 Q 851 387 848 384 Q 824 369 742 349 C 713 342 717 322 747 326 Q 756 327 768 329 Q 802 336 830 342 Q 849 346 854 338 Q 857 335 827 248 C 817 220 859 219 870 247 Z"/>
  <path id="z24938d13" d="M 764 199 Q 773 198 783 200 Q 817 206 888 209 Q 898 210 900 220 Q 900 227 870 247 C 866 250 857 250 827 248 Q 826 249 823 248 Q 789 238 761 232 C 732 226 734 201 764 199 Z"/>
  <path id="z24938d14" d="M 464 685 Q 463 686 463 687 Q 453 697 422 712 Q 401 722 393 715 Q 386 708 393 692 Q 412 658 415 592 Q 427 354 410 134 Q 406 92 382 55 Q 370 39 380 17 Q 389 -5 399 -15 Q 409 -24 428 -11 Q 492 31 590 47 Q 701 65 914 57 Q 942 56 943 69 Q 943 85 912 109 Q 896 124 858 117 Q 756 104 675 96 Q 593 95 494 77 Q 479 74 472 80 Q 465 81 464 99 Q 468 307 466 571 Q 465 619 469 650 C 471 680 471 680 464 685 Z"/>
<defs>
  <clipPath id="z24938c1"><use href="#z24938d1"/></clipPath>
  <clipPath id="z24938c2"><use href="#z24938d2"/></clipPath>
  <clipPath id="z24938c3"><use href="#z24938d3"/></clipPath>
  <clipPath id="z24938c4"><use href="#z24938d4"/></clipPath>
  <clipPath id="z24938c5"><use href="#z24938d5"/></clipPath>
  <clipPath id="z24938c6"><use href="#z24938d6"/></clipPath>
  <clipPath id="z24938c7"><use href="#z24938d7"/></clipPath>
  <clipPath id="z24938c8"><use href="#z24938d8"/></clipPath>
  <clipPath id="z24938c9"><use href="#z24938d9"/></clipPath>
  <clipPath id="z24938c10"><use href="#z24938d10"/></clipPath>
  <clipPath id="z24938c11"><use href="#z24938d11"/></clipPath>
  <clipPath id="z24938c12"><use href="#z24938d12"/></clipPath>
  <clipPath id="z24938c13"><use href="#z24938d13"/></clipPath>
  <clipPath id="z24938c14"><use href="#z24938d14"/></clipPath>
</defs>
<path style="--d:1s;" pathLength="3333" clip-path="url(#z24938c1)" d="M 129 513 L 124 447 L 94 340"/>
<path style="--d:2s;" pathLength="3333" clip-path="url(#z24938c2)" d="M 278 575 L 293 555 L 328 533 L 345 506"/>
<path style="--d:3s;" pathLength="3333" clip-path="url(#z24938c3)" d="M 205 800 L 257 746 L 244 236 L 227 73 L 227 -25"/>
<path style="--d:4s;" pathLength="3333" clip-path="url(#z24938c4)" d="M 471 680 L 487 668 L 520 668 L 581 676 L 799 724 L 837 723 L 846 714"/>
<path style="--d:5s;" pathLength="3333" clip-path="url(#z24938c5)" d="M 539 572 L 567 544 L 600 413"/>
<path style="--d:6s;" pathLength="3333" clip-path="url(#z24938c6)" d="M 589 566 L 610 561 L 731 593 L 746 586 L 764 567 L 742 505 L 721 489"/>
<path style="--d:7s;" pathLength="3333" clip-path="url(#z24938c7)" d="M 615 438 L 631 448 L 710 465 L 748 468 L 772 461"/>
<path style="--d:8s;" pathLength="3333" clip-path="url(#z24938c8)" d="M 482 322 L 503 309 L 544 160"/>
<path style="--d:9s;" pathLength="3333" clip-path="url(#z24938c9)" d="M 526 321 L 534 315 L 560 319 L 613 335 L 634 330 L 647 313 L 625 245 L 607 238"/>
<path style="--d:10s;" pathLength="3333" clip-path="url(#z24938c10)" d="M 556 193 L 565 202 L 599 208 L 633 209 L 656 202"/>
<path style="--d:11s;" pathLength="3333" clip-path="url(#z24938c11)" d="M 699 353 L 724 327 L 753 182"/>
<path style="--d:12s;" pathLength="3333" clip-path="url(#z24938c12)" d="M 751 333 L 760 341 L 842 361 L 858 363 L 877 351 L 885 337 L 856 269 L 834 260"/>
<path style="--d:13s;" pathLength="3333" clip-path="url(#z24938c13)" d="M 769 205 L 783 219 L 822 226 L 869 228 L 892 219"/>
<path style="--d:14s;" pathLength="3333" clip-path="url(#z24938c14)" d="M 401 707 L 435 670 L 439 652 L 444 426 L 434 49 L 475 46 L 598 71 L 870 89 L 891 87 L 931 71"/>
</svg>