<svg id="z21556" class="acjk" viewBox="0 0 1024 1024" xmlns="http://www.w3.org/2000/svg">
<style>
<![CDATA[
@keyframes zk {
	to {
		stroke-dashoffset:0;
	}
}
svg.acjk path[clip-path] {
	--t:0.8s;
	animation:zk var(--t) linear forwards var(--d);
	stroke-dasharray:3337;
	stroke-dashoffset:3339;
	stroke-width:128;
	stroke-linecap:round;
	stroke-linejoin:round;
	fill:none;
	stroke:#000;
}
svg.acjk path[id] {fill:#ccc;}
]]>
</style>
  <path id="z21556d1" d="M 334 759 Q 328 760 323 760 Q 310 763 307 757 Q 300 750 310 734 Q 341 679 361 585 Q 365 557 383 539 Q 402 517 407 534 Q 408 541 410 551 L 407 587 Q 403 602 382 723 C 377 753 364 756 334 759 Z"/>
  <path id="z21556d2" d="M 660 626 Q 687 705 721 731 Q 739 749 724 767 Q 655 824 599 802 Q 413 742 334 759 C 304 764 353 716 382 723 Q 607 774 626 756 Q 641 740 608 632 C 599 603 650 598 660 626 Z"/>
  <path id="z21556d3" d="M 410 551 Q 416 551 423 552 Q 501 571 672 591 Q 682 592 684 602 Q 684 609 660 626 C 646 636 638 635 608 632 Q 605 633 602 632 Q 494 602 407 587 C 377 582 380 549 410 551 Z"/>
  <path id="z21556d4" d="M 508 429 Q 581 442 658 455 Q 716 468 726 475 Q 735 482 731 492 Q 724 504 694 513 Q 664 520 578 492 Q 436 458 319 449 Q 282 445 308 426 Q 344 402 420 415 Q 433 418 449 419 L 508 429 Z"/>
  <path id="z21556d5" d="M 519 274 Q 633 286 800 283 Q 830 282 855 283 Q 877 282 883 292 Q 889 305 871 320 Q 814 363 772 355 Q 678 337 519 314 L 458 305 Q 320 290 162 272 Q 140 271 156 251 Q 172 235 191 229 Q 215 223 232 228 Q 334 255 451 267 L 519 274 Z"/>
  <path id="z21556d6" d="M 519 314 Q 534 384 539 393 Q 546 400 540 411 Q 534 418 508 429 C 481 442 441 448 449 419 Q 467 367 458 305 L 451 267 Q 415 144 310 76 Q 265 49 185 15 Q 158 2 190 1 Q 211 -2 252 11 Q 304 23 350 47 Q 393 66 426 105 Q 469 153 504 253 L 519 314 Z"/>
  <path id="z21556d7" d="M 504 253 Q 505 252 510 246 Q 666 18 719 -1 Q 797 -19 906 -7 Q 927 -6 929 -1 Q 932 6 916 14 Q 867 36 808 59 Q 679 116 541 254 Q 528 267 519 274 C 496 294 486 277 504 253 Z"/>
<defs>
  <clipPath id="z21556c1"><use href="#z21556d1"/></clipPath>
  <clipPath id="z21556c2"><use href="#z21556d2"/></clipPath>
  <clipPath id="z21556c3"><use href="#z21556d3"/></clipPath>
  <clipPath id="z21556c4"><use href="#z21556d4"/></clipPath>
  <clipPath id="z21556c5"><use href="#z21556d5"/></clipPath>
  <clipPath id="z21556c6"><use href="#z21556d6"/></clipPath>
  <clipPath id="z21556c7"><use href="#z21556d7"/></clipPath>
</defs>
<path style="--d:1s;" pathLength="3333" clip-path="url(#z21556c1)" d="M 316 749 L 357 701 L 395 539"/>
<path style="--d:2s;" pathLength="3333" clip-path="url(#z21556c2)" d="M 349 755 L 354 748 L 393 738 L 594 782 L 641 780 L 675 748 L 642 654 L 616 644"/>
<path style="--d:3s;" pathLength="3333" clip-path="url(#z21556c3)" d="M 416 558 L 426 572 L 599 606 L 651 608 L 675 602"/>
<path style="--d:4s;" pathLength="3333" clip-path="url(#z21556c4)" d="M 311 439 L 350 431 L 391 433 L 672 487 L 719 486"/>
<path style="--d:5s;" pathLength="3333" clip-path="url(#z21556c5)" d="M 159 261 L 214 251 L 363 276 L 782 320 L 833 312 L 870 299"/>
<path style="--d:6s;" pathLength="3333" clip-path="url(#z21556c6)" d="M 457 414 L 496 388 L 496 370 L 479 267 L 437 166 L 409 127 L 369 87 L 296 44 L 222 15 L 196 11"/>
<path style="--d:7s;" pathLength="3333" clip-path="url(#z21556c7)" d="M 515 266 L 527 242 L 537 237 L 591 172 L 658 105 L 727 48 L 786 27 L 923 1"/>
</svg>