<svg id="z26522" class="acjk" viewBox="0 0 1024 1024" xmlns="http://www.w3.org/2000/svg">
<style>
<![CDATA[
@keyframes zk {
	to {
		stroke-dashoffset:0;
	}
}
svg.acjk path[clip-path] {
	--t:0.8s;
	animation:zk var(--t) linear forwards var(--d);
	stroke-dasharray:3337;
	stroke-dashoffset:3339;
	stroke-width:128;
	stroke-linecap:round;
	stroke-linejoin:round;
	fill:none;
	stroke:#000;
}
svg.acjk path[id] {fill:#ccc;}
]]>
</style>
  <path id="z26522d1" d="M 337 507 Q 430 529 439 537 Q 448 544 443 553 Q 436 563 408 570 Q 386 574 339 559 L 296 545 Q 209 518 120 508 Q 86 501 111 486 Q 150 465 228 483 Q 250 489 277 493 L 337 507 Z"/>
  <path id="z26522d2" d="M 334 401 Q 335 450 337 507 L 339 559 Q 339 667 362 743 Q 375 770 351 787 Q 335 799 306 817 Q 282 835 261 819 Q 257 815 262 799 Q 295 750 295 700 Q 295 628 296 545 L 290 407 Q 286 328 285 243 Q 279 165 258 93 Q 246 54 271 -9 Q 278 -28 286 -31 Q 292 -38 300 -29 Q 307 -25 318 -4 Q 328 21 328 52 Q 327 92 333 387 L 334 401 Z"/>
  <path id="z26522d3" d="M 277 493 Q 223 351 54 133 Q 48 123 60 122 Q 82 122 196 255 Q 245 316 290 407 C 347 520 288 521 277 493 Z"/>
  <path id="z26522d4" d="M 333 387 Q 337 378 358 362 Q 380 343 404 319 Q 416 309 428 309 Q 437 310 441 321 Q 445 333 438 357 Q 434 373 408 385 Q 351 409 336 403 Q 335 403 334 401 C 327 397 327 397 333 387 Z"/>
  <path id="z26522d5" d="M 570 516 Q 625 609 654 673 Q 669 713 685 733 Q 692 746 685 759 Q 679 771 646 790 Q 615 805 596 801 Q 577 797 589 775 Q 616 735 552 582 Q 522 512 478 433 Q 469 420 468 414 Q 467 402 480 407 Q 501 416 561 501 L 570 516 Z"/>
  <path id="z26522d6" d="M 694 496 Q 869 547 873 551 Q 882 560 876 568 Q 869 580 838 585 Q 808 589 725 555 Q 649 531 579 519 Q 573 518 570 516 C 545 508 545 508 561 501 Q 607 479 657 486 L 694 496 Z"/>
  <path id="z26522d7" d="M 679 204 Q 728 276 740 404 Q 741 431 746 449 Q 750 462 741 469 Q 720 487 694 496 C 666 508 647 514 657 486 Q 673 447 675 389 Q 676 302 643 240 L 618 204 Q 555 132 421 75 Q 411 74 407 68 Q 401 64 411 60 Q 444 53 552 99 Q 613 130 649 165 L 679 204 Z"/>
  <path id="z26522d8" d="M 649 165 Q 709 92 763 30 Q 779 9 808 10 Q 911 14 950 20 Q 968 21 974 30 Q 978 37 967 41 Q 793 101 724 164 Q 702 182 679 204 L 643 240 Q 598 286 547 347 Q 534 366 516 368 Q 491 368 483 360 Q 480 354 489 349 Q 526 328 551 292 Q 585 246 618 204 L 649 165 Z"/>
<defs>
  <clipPath id="z26522c1"><use href="#z26522d1"/></clipPath>
  <clipPath id="z26522c2"><use href="#z26522d2"/></clipPath>
  <clipPath id="z26522c3"><use href="#z26522d3"/></clipPath>
  <clipPath id="z26522c4"><use href="#z26522d4"/></clipPath>
  <clipPath id="z26522c5"><use href="#z26522d5"/></clipPath>
  <clipPath id="z26522c6"><use href="#z26522d6"/></clipPath>
  <clipPath id="z26522c7"><use href="#z26522d7"/></clipPath>
  <clipPath id="z26522c8"><use href="#z26522d8"/></clipPath>
</defs>
<path style="--d:1s;" pathLength="3333" clip-path="url(#z26522c1)" d="M 113 498 L 181 495 L 394 547 L 433 547"/>
<path style="--d:2s;" pathLength="3333" clip-path="url(#z26522c2)" d="M 273 812 L 288 802 L 325 757 L 310 273 L 291 72 L 291 -17"/>
<path style="--d:3s;" pathLength="3333" clip-path="url(#z26522c3)" d="M 291 490 L 283 484 L 268 415 L 221 330 L 173 256 L 61 129"/>
<path style="--d:4s;" pathLength="3333" clip-path="url(#z26522c4)" d="M 341 396 L 405 356 L 426 325"/>
<path style="--d:5s;" pathLength="3333" clip-path="url(#z26522c5)" d="M 598 786 L 627 765 L 638 747 L 626 693 L 556 534 L 516 465 L 477 415"/>
<path style="--d:6s;" pathLength="3333" clip-path="url(#z26522c6)" d="M 569 501 L 577 507 L 657 510 L 818 559 L 867 561"/>
<path style="--d:7s;" pathLength="3333" clip-path="url(#z26522c7)" d="M 665 482 L 692 467 L 707 447 L 707 398 L 695 305 L 662 223 L 628 178 L 575 136 L 482 86 L 416 67"/>
<path style="--d:8s;" pathLength="3333" clip-path="url(#z26522c8)" d="M 490 357 L 509 354 L 530 341 L 694 152 L 802 58 L 965 32"/>
</svg>