<svg id="z21305" class="acjk" viewBox="0 0 1024 1024" xmlns="http://www.w3.org/2000/svg">
<style>
<![CDATA[
@keyframes zk {
	to {
		stroke-dashoffset:0;
	}
}
svg.acjk path[clip-path] {
	--t:0.8s;
	animation:zk var(--t) linear forwards var(--d);
	stroke-dasharray:3337;
	stroke-dashoffset:3339;
	stroke-width:128;
	stroke-linecap:round;
	stroke-linejoin:round;
	fill:none;
	stroke:#000;
}
svg.acjk path[id] {fill:#ccc;}
]]>
</style>
  <path id="z21305d1" d="M 620 696 Q 806 717 819 727 Q 829 734 826 744 Q 820 757 791 767 Q 761 777 729 768 Q 497 714 286 716 Q 276 716 274 714 C 244 711 264 692 292 683 Q 331 668 371 672 Q 474 682 580 692 L 620 696 Z"/>
  <path id="z21305d2" d="M 419 612 Q 446 570 425 456 Q 400 357 328 304 Q 315 292 302 282 Q 292 272 302 271 Q 387 281 443 378 Q 449 390 461 417 Q 473 447 488 543 Q 489 565 499 587 Q 506 603 491 610 Q 446 638 424 629 Q 412 625 419 612 Z"/>
  <path id="z21305d3" d="M 889 351 Q 870 394 855 471 Q 852 486 845 490 Q 838 494 835 475 Q 826 381 813 363 Q 794 345 717 347 Q 677 350 658 358 Q 643 367 640 377 Q 616 455 642 578 Q 648 609 657 628 Q 673 665 620 696 C 595 713 569 720 580 692 Q 580 691 582 686 Q 601 649 594 597 Q 584 413 594 375 Q 598 350 616 334 Q 652 298 785 295 Q 846 292 871 303 Q 902 319 889 351 Z"/>
  <path id="z21305d4" d="M 274 714 Q 237 735 220 736 Q 207 737 198 730 Q 188 723 202 706 Q 215 690 220 557 Q 226 286 189 164 Q 182 149 173 141 Q 152 123 165 105 Q 171 89 186 76 Q 202 61 220 76 Q 265 133 680 133 Q 798 133 848 124 Q 897 117 898 140 Q 897 155 863 177 Q 829 198 808 198 Q 763 197 408 159 Q 272 140 262 154 Q 256 160 264 290 Q 260 302 281 582 Q 284 661 290 679 Q 291 682 292 683 C 296 703 296 703 274 714 Z"/>
<defs>
  <clipPath id="z21305c1"><use href="#z21305d1"/></clipPath>
  <clipPath id="z21305c2"><use href="#z21305d2"/></clipPath>
  <clipPath id="z21305c3"><use href="#z21305d3"/></clipPath>
  <clipPath id="z21305c4"><use href="#z21305d4"/></clipPath>
</defs>
<path style="--d:1s;" pathLength="3333" clip-path="url(#z21305c1)" d="M 281 711 L 305 697 L 348 693 L 570 713 L 754 743 L 812 740"/>
<path style="--d:2s;" pathLength="3333" clip-path="url(#z21305c2)" d="M 426 619 L 464 588 L 457 499 L 438 418 L 394 341 L 365 312 L 308 277"/>
<path style="--d:3s;" pathLength="3333" clip-path="url(#z21305c3)" d="M 587 691 L 616 670 L 628 645 L 616 583 L 608 442 L 617 373 L 634 348 L 657 335 L 713 323 L 774 321 L 839 334 L 848 341 L 849 356 L 844 483"/>
<path style="--d:4s;" pathLength="3333" clip-path="url(#z21305c4)" d="M 209 720 L 228 710 L 250 679 L 250 515 L 239 278 L 223 132 L 272 126 L 523 153 L 778 164 L 816 163 L 884 140"/>
</svg>