<svg id="z28843" class="acjk" viewBox="0 0 1024 1024" xmlns="http://www.w3.org/2000/svg">
<style>
<![CDATA[
@keyframes zk {
	to {
		stroke-dashoffset:0;
	}
}
svg.acjk path[clip-path] {
	--t:0.8s;
	animation:zk var(--t) linear forwards var(--d);
	stroke-dasharray:3337;
	stroke-dashoffset:3339;
	stroke-width:128;
	stroke-linecap:round;
	stroke-linejoin:round;
	fill:none;
	stroke:#000;
}
svg.acjk path[id] {fill:#ccc;}
]]>
</style>
  <path id="z28843d1" d="M 98 548 Q 107 488 105 429 Q 105 392 136 373 Q 152 363 163 383 Q 173 408 169 440 Q 165 483 148 513 Q 136 543 118 560 Q 109 564 104 562 Q 97 556 98 548 Z"/>
  <path id="z28843d2" d="M 291 502 Q 325 520 399 565 Q 417 578 440 588 Q 461 597 451 614 Q 439 630 415 645 Q 393 658 381 656 Q 369 655 372 643 Q 375 621 292 523 C 273 500 265 488 291 502 Z"/>
  <path id="z28843d3" d="M 277 285 Q 286 352 291 502 L 292 523 Q 298 662 320 726 Q 327 741 316 752 Q 292 771 251 782 Q 224 789 216 782 Q 206 775 214 761 Q 274 671 230 310 Q 202 174 160 113 Q 132 76 90 37 Q 80 27 79 22 Q 82 18 93 20 Q 105 16 135 33 Q 246 88 272 258 L 277 285 Z"/>
  <path id="z28843d4" d="M 272 258 Q 308 221 350 169 Q 362 153 375 148 Q 382 147 389 154 Q 399 164 391 202 Q 385 235 328 263 Q 297 278 277 285 C 249 295 251 280 272 258 Z"/>
  <path id="z28843d5" d="M 587 742 Q 612 717 640 685 Q 656 669 676 669 Q 689 669 696 685 Q 703 703 693 740 Q 687 762 654 778 Q 572 811 556 804 Q 549 800 551 783 Q 555 770 587 742 Z"/>
  <path id="z28843d6" d="M 603 561 Q 682 591 865 591 Q 869 592 874 592 Q 893 593 898 602 Q 902 614 885 626 Q 828 660 771 642 Q 678 618 427 566 Q 406 563 423 547 Q 436 535 455 531 Q 476 527 491 533 Q 525 545 564 553 L 603 561 Z"/>
  <path id="z28843d7" d="M 647 355 Q 592 359 547 362 Q 513 363 532 384 Q 581 444 627 488 Q 643 504 641 512 Q 641 524 603 561 C 582 582 560 583 564 553 Q 568 537 562 512 Q 552 482 507 418 Q 494 397 467 377 Q 448 364 448 353 Q 449 334 463 314 Q 472 302 485 309 Q 516 322 617 330 Q 624 331 631 330 C 661 330 677 353 647 355 Z"/>
  <path id="z28843d8" d="M 741 183 Q 654 170 553 144 Q 522 134 543 159 Q 592 220 710 344 Q 747 387 778 410 Q 794 422 787 434 Q 777 458 738 483 Q 719 495 708 492 Q 695 489 697 470 Q 697 437 647 355 L 631 330 Q 624 323 619 314 Q 481 146 448 132 Q 432 122 434 105 Q 435 89 465 64 Q 477 48 495 62 Q 606 126 755 161 C 784 168 771 188 741 183 Z"/>
  <path id="z28843d9" d="M 755 161 Q 827 46 835 41 Q 844 37 853 46 Q 869 56 866 105 Q 866 165 716 265 Q 707 272 702 260 Q 699 248 741 183 L 755 161 Z"/>
<defs>
  <clipPath id="z28843c1"><use href="#z28843d1"/></clipPath>
  <clipPath id="z28843c2"><use href="#z28843d2"/></clipPath>
  <clipPath id="z28843c3"><use href="#z28843d3"/></clipPath>
  <clipPath id="z28843c4"><use href="#z28843d4"/></clipPath>
  <clipPath id="z28843c5"><use href="#z28843d5"/></clipPath>
  <clipPath id="z28843c6"><use href="#z28843d6"/></clipPath>
  <clipPath id="z28843c7"><use href="#z28843d7"/></clipPath>
  <clipPath id="z28843c8"><use href="#z28843d8"/></clipPath>
  <clipPath id="z28843c9"><use href="#z28843d9"/></clipPath>
</defs>
<path style="--d:1s;" pathLength="3333" clip-path="url(#z28843c1)" d="M 110 551 L 129 496 L 146 387"/>
<path style="--d:2s;" pathLength="3333" clip-path="url(#z28843c2)" d="M 438 604 L 401 609 L 334 545 L 306 527 L 294 507"/>
<path style="--d:3s;" pathLength="3333" clip-path="url(#z28843c3)" d="M 224 771 L 251 753 L 275 727 L 269 472 L 251 283 L 221 170 L 195 119 L 153 69 L 86 22"/>
<path style="--d:4s;" pathLength="3333" clip-path="url(#z28843c4)" d="M 280 277 L 289 263 L 326 237 L 360 203 L 377 162"/>
<path style="--d:5s;" pathLength="3333" clip-path="url(#z28843c5)" d="M 561 796 L 650 734 L 675 691"/>
<path style="--d:6s;" pathLength="3333" clip-path="url(#z28843c6)" d="M 425 557 L 473 552 L 642 593 L 785 618 L 842 618 L 887 607"/>
<path style="--d:7s;" pathLength="3333" clip-path="url(#z28843c7)" d="M 572 548 L 594 529 L 599 512 L 511 389 L 493 351 L 515 344 L 584 342 L 624 343 L 639 351"/>
<path style="--d:8s;" pathLength="3333" clip-path="url(#z28843c8)" d="M 713 476 L 734 430 L 645 308 L 528 176 L 504 138 L 500 115 L 542 116 L 735 170 L 746 163"/>
<path style="--d:9s;" pathLength="3333" clip-path="url(#z28843c9)" d="M 711 258 L 820 127 L 836 94 L 840 49"/>
</svg>