<svg id="z22031" class="acjk" viewBox="0 0 1024 1024" xmlns="http://www.w3.org/2000/svg">
<style>
<![CDATA[
@keyframes zk {
	to {
		stroke-dashoffset:0;
	}
}
svg.acjk path[clip-path] {
	--t:0.8s;
	animation:zk var(--t) linear forwards var(--d);
	stroke-dasharray:3337;
	stroke-dashoffset:3339;
	stroke-width:128;
	stroke-linecap:round;
	stroke-linejoin:round;
	fill:none;
	stroke:#000;
}
svg.acjk path[id] {fill:#ccc;}
]]>
</style>
  <path id="z22031d1" d="M 255 517 Q 340 542 345 546 Q 352 553 348 561 Q 341 571 313 576 Q 285 580 260 567 L 214 549 Q 201 546 190 542 Q 150 530 102 523 Q 69 516 94 501 Q 136 480 183 498 Q 195 502 211 505 L 255 517 Z"/>
  <path id="z22031d2" d="M 238 362 Q 245 443 255 517 L 260 567 Q 263 654 290 731 Q 294 741 275 757 Q 244 776 221 781 Q 205 785 198 777 Q 191 770 197 756 Q 219 720 218 696 Q 218 626 214 549 L 211 505 Q 207 430 197 347 C 193 317 235 332 238 362 Z"/>
  <path id="z22031d3" d="M 140 335 Q 130 339 107 345 Q 97 349 93 344 Q 87 338 94 324 Q 118 264 129 168 Q 130 140 146 119 Q 161 98 166 112 Q 175 133 169 175 L 168 176 C 166 183 169 177 165 207 Q 155 288 154 310 C 153 330 153 330 140 335 Z"/>
  <path id="z22031d4" d="M 308 225 Q 324 292 346 314 Q 368 338 346 351 Q 327 361 302 378 Q 286 388 267 377 Q 254 370 238 362 L 197 347 Q 172 341 140 335 C 111 329 125 304 154 310 Q 187 316 246 330 Q 268 336 274 326 Q 281 322 274 291 Q 267 263 260 230 C 254 201 301 196 308 225 Z"/>
  <path id="z22031d5" d="M 168 176 Q 174 175 184 177 Q 226 187 317 195 Q 327 196 328 205 Q 328 212 308 225 C 297 233 290 232 260 230 Q 259 231 256 230 Q 207 217 165 207 C 136 200 138 178 168 176 Z"/>
  <path id="z22031d6" d="M 560 560 Q 578 644 601 668 Q 620 690 599 703 Q 581 713 558 727 Q 543 734 499 710 Q 472 698 431 685 C 402 676 408 652 437 659 Q 444 660 511 680 Q 530 684 534 678 Q 541 672 533 640 Q 526 606 516 566 C 509 537 554 531 560 560 Z"/>
  <path id="z22031d7" d="M 429 509 Q 439 508 448 511 Q 487 521 570 531 Q 580 532 581 541 Q 581 548 560 560 L 516 566 Q 512 566 508 564 Q 465 551 430 541 C 401 533 399 510 429 509 Z"/>
  <path id="z22031d8" d="M 427 300 Q 427 346 427 389 L 428 420 Q 428 469 429 509 L 430 541 Q 431 628 437 659 C 440 678 440 678 431 685 Q 410 706 375 716 Q 366 719 359 710 Q 356 704 364 693 Q 391 630 391 559 Q 397 280 355 145 Q 348 120 352 99 Q 361 65 372 53 Q 384 38 394 53 Q 427 87 427 273 L 427 300 Z"/>
  <path id="z22031d9" d="M 427 389 Q 427 390 431 390 Q 497 405 545 415 Q 567 421 558 433 Q 546 446 520 448 Q 483 451 428 420 C 402 405 398 382 427 389 Z"/>
  <path id="z22031d10" d="M 427 273 Q 433 273 557 299 Q 579 305 570 316 Q 558 329 532 332 Q 501 333 427 300 C 400 288 397 269 427 273 Z"/>
  <path id="z22031d11" d="M 805 587 Q 824 656 845 677 Q 867 704 844 717 Q 823 729 795 745 Q 776 755 732 727 Q 690 706 638 694 Q 626 693 629 687 Q 630 681 644 675 Q 665 666 698 678 Q 762 696 769 688 Q 776 682 767 651 Q 760 620 749 582 C 741 553 797 558 805 587 Z"/>
  <path id="z22031d12" d="M 749 582 Q 679 563 622 552 Q 601 548 615 532 Q 622 523 632 520 Q 642 519 656 522 Q 710 535 829 549 Q 839 550 840 560 Q 841 567 809 586 Q 808 587 805 587 L 749 582 Z"/>
  <path id="z22031d13" d="M 750 240 Q 783 297 805 381 Q 811 415 829 432 Q 842 447 825 460 Q 806 475 773 486 Q 752 492 732 480 Q 692 455 632 443 Q 607 439 597 433 Q 588 426 606 418 Q 631 406 667 419 Q 697 428 727 437 Q 746 444 748 421 Q 748 354 712 276 L 692 239 Q 646 167 504 118 Q 489 114 499 106 Q 506 102 533 106 Q 612 116 660 142 Q 694 161 723 199 L 750 240 Z"/>
  <path id="z22031d14" d="M 723 199 Q 769 141 813 94 Q 826 78 850 78 Q 973 90 982 102 Q 985 108 976 111 Q 823 172 767 225 Q 758 232 750 240 L 712 276 Q 678 310 639 353 Q 629 366 614 368 Q 590 368 584 360 Q 581 356 589 350 Q 620 334 640 305 Q 665 271 692 239 L 723 199 Z"/>
<defs>
  <clipPath id="z22031c1"><use href="#z22031d1"/></clipPath>
  <clipPath id="z22031c2"><use href="#z22031d2"/></clipPath>
  <clipPath id="z22031c3"><use href="#z22031d3"/></clipPath>
  <clipPath id="z22031c4"><use href="#z22031d4"/></clipPath>
  <clipPath id="z22031c5"><use href="#z22031d5"/></clipPath>
  <clipPath id="z22031c6"><use href="#z22031d6"/></clipPath>
  <clipPath id="z22031c7"><use href="#z22031d7"/></clipPath>
  <clipPath id="z22031c8"><use href="#z22031d8"/></clipPath>
  <clipPath id="z22031c9"><use href="#z22031d9"/></clipPath>
  <clipPath id="z22031c10"><use href="#z22031d10"/></clipPath>
  <clipPath id="z22031c11"><use href="#z22031d11"/></clipPath>
  <clipPath id="z22031c12"><use href="#z22031d12"/></clipPath>
  <clipPath id="z22031c13"><use href="#z22031d13"/></clipPath>
  <clipPath id="z22031c14"><use href="#z22031d14"/></clipPath>
</defs>
<path style="--d:1s;" pathLength="3333" clip-path="url(#z22031c1)" d="M 95 513 L 119 508 L 156 511 L 294 554 L 338 555"/>
<path style="--d:2s;" pathLength="3333" clip-path="url(#z22031c2)" d="M 209 767 L 250 730 L 250 720 L 220 376 L 202 355"/>
<path style="--d:3s;" pathLength="3333" clip-path="url(#z22031c3)" d="M 101 337 L 128 304 L 157 117"/>
<path style="--d:4s;" pathLength="3333" clip-path="url(#z22031c4)" d="M 149 332 L 170 326 L 262 352 L 292 350 L 312 329 L 292 258 L 267 237"/>
<path style="--d:5s;" pathLength="3333" clip-path="url(#z22031c5)" d="M 172 184 L 190 197 L 258 210 L 318 205"/>
<path style="--d:6s;" pathLength="3333" clip-path="url(#z22031c6)" d="M 438 666 L 447 676 L 535 703 L 552 700 L 569 682 L 546 594 L 541 582 L 524 572"/>
<path style="--d:7s;" pathLength="3333" clip-path="url(#z22031c7)" d="M 434 514 L 447 528 L 517 545 L 571 541"/>
<path style="--d:8s;" pathLength="3333" clip-path="url(#z22031c8)" d="M 368 706 L 405 666 L 412 572 L 403 236 L 385 130 L 383 57"/>
<path style="--d:9s;" pathLength="3333" clip-path="url(#z22031c9)" d="M 437 399 L 444 411 L 472 420 L 514 429 L 548 426"/>
<path style="--d:10s;" pathLength="3333" clip-path="url(#z22031c10)" d="M 428 280 L 443 293 L 480 303 L 528 313 L 560 310"/>
<path style="--d:11s;" pathLength="3333" clip-path="url(#z22031c11)" d="M 636 687 L 686 690 L 766 717 L 782 716 L 798 705 L 808 694 L 807 685 L 788 622 L 782 609 L 756 588"/>
<path style="--d:12s;" pathLength="3333" clip-path="url(#z22031c12)" d="M 620 542 L 635 537 L 786 565 L 809 566 L 830 559"/>
<path style="--d:13s;" pathLength="3333" clip-path="url(#z22031c13)" d="M 604 427 L 654 431 L 749 461 L 770 453 L 784 436 L 758 320 L 737 269 L 700 208 L 672 179 L 623 148 L 571 127 L 504 111"/>
<path style="--d:14s;" pathLength="3333" clip-path="url(#z22031c14)" d="M 592 358 L 605 357 L 634 337 L 758 196 L 838 127 L 906 110 L 977 105"/>
</svg>