<svg id="z20132" class="acjk" viewBox="0 0 1024 1024" xmlns="http://www.w3.org/2000/svg">
<style>
<![CDATA[
@keyframes zk {
	to {
		stroke-dashoffset:0;
	}
}
svg.acjk path[clip-path] {
	--t:0.8s;
	animation:zk var(--t) linear forwards var(--d);
	stroke-dasharray:3337;
	stroke-dashoffset:3339;
	stroke-width:128;
	stroke-linecap:round;
	stroke-linejoin:round;
	fill:none;
	stroke:#000;
}
svg.acjk path[id] {fill:#ccc;}
]]>
</style>
  <path id="z20132d1" d="M 431 792 Q 483 744 526 727 Q 542 726 551 740 Q 555 755 551 772 Q 536 815 466 829 Q 424 838 413 833 Q 406 832 410 818 Q 413 805 431 792 Z"/>
  <path id="z20132d2" d="M 201 628 Q 179 625 195 607 Q 231 579 270 588 Q 492 654 795 655 Q 796 655 798 655 Q 820 656 825 665 Q 829 678 812 693 Q 752 732 714 722 Q 569 686 201 628 Z"/>
  <path id="z20132d3" d="M 339 555 Q 335 468 221 386 Q 193 367 179 355 Q 169 342 184 344 Q 227 341 322 414 Q 380 474 410 499 Q 422 509 411 526 Q 375 569 352 569 Q 340 569 339 555 Z"/>
  <path id="z20132d4" d="M 580 533 Q 635 499 696 457 Q 711 447 727 449 Q 737 450 741 464 Q 744 480 731 508 Q 721 538 672 557 Q 623 572 569 581 Q 553 582 548 579 Q 544 575 546 562 Q 550 552 580 533 Z"/>
  <path id="z20132d5" d="M 520 218 Q 557 270 580 332 Q 596 375 610 387 Q 620 399 613 410 Q 603 426 577 436 Q 558 449 538 446 Q 525 443 530 428 Q 552 371 480 253 L 458 223 Q 455 222 454 218 Q 408 164 347 130 Q 274 90 129 56 Q 110 49 131 45 Q 284 18 408 98 Q 459 131 495 182 L 520 218 Z"/>
  <path id="z20132d6" d="M 495 182 Q 591 71 679 5 Q 716 -22 900 7 Q 942 14 938 24 Q 937 30 896 42 Q 671 91 569 178 Q 544 197 520 218 L 480 253 Q 446 284 412 320 Q 373 360 336 360 Q 317 361 314 355 Q 313 348 329 337 Q 371 315 458 223 L 495 182 Z"/>
<defs>
  <clipPath id="z20132c1"><use href="#z20132d1"/></clipPath>
  <clipPath id="z20132c2"><use href="#z20132d2"/></clipPath>
  <clipPath id="z20132c3"><use href="#z20132d3"/></clipPath>
  <clipPath id="z20132c4"><use href="#z20132d4"/></clipPath>
  <clipPath id="z20132c5"><use href="#z20132d5"/></clipPath>
  <clipPath id="z20132c6"><use href="#z20132d6"/></clipPath>
</defs>
<path style="--d:1s;" pathLength="3333" clip-path="url(#z20132c1)" d="M 419 824 L 510 774 L 533 748"/>
<path style="--d:2s;" pathLength="3333" clip-path="url(#z20132c2)" d="M 199 617 L 225 611 L 270 613 L 468 653 L 725 689 L 775 683 L 813 671"/>
<path style="--d:3s;" pathLength="3333" clip-path="url(#z20132c3)" d="M 351 556 L 364 538 L 368 512 L 326 452 L 268 397 L 188 352"/>
<path style="--d:4s;" pathLength="3333" clip-path="url(#z20132c4)" d="M 554 573 L 679 513 L 724 466"/>
<path style="--d:5s;" pathLength="3333" clip-path="url(#z20132c5)" d="M 540 434 L 572 398 L 552 335 L 503 239 L 440 161 L 360 103 L 307 81 L 221 58 L 140 52"/>
<path style="--d:6s;" pathLength="3333" clip-path="url(#z20132c6)" d="M 320 353 L 372 330 L 568 142 L 691 54 L 760 34 L 932 23"/>
</svg>