<svg id="z27442" class="acjk" viewBox="0 0 1024 1024" xmlns="http://www.w3.org/2000/svg">
<style>
<![CDATA[
@keyframes zk {
	to {
		stroke-dashoffset:0;
	}
}
svg.acjk path[clip-path] {
	--t:0.8s;
	animation:zk var(--t) linear forwards var(--d);
	stroke-dasharray:3337;
	stroke-dashoffset:3339;
	stroke-width:128;
	stroke-linecap:round;
	stroke-linejoin:round;
	fill:none;
	stroke:#000;
}
svg.acjk path[id] {fill:#ccc;}
]]>
</style>
  <path id="z27442d1" d="M 249 733 Q 259 694 191 594 Q 188 594 188 591 Q 169 566 117 514 Q 110 510 119 507 Q 209 540 307 684 Q 313 693 317 696 Q 323 700 321 709 Q 320 716 309 727 Q 279 751 254 746 Q 247 745 249 733 Z"/>
  <path id="z27442d2" d="M 413 698 Q 447 674 482 645 Q 495 635 508 636 Q 518 637 521 648 Q 525 661 515 687 Q 503 720 407 739 Q 394 742 388 739 Q 384 735 385 724 Q 389 714 413 698 Z"/>
  <path id="z27442d3" d="M 210 311 Q 214 317 220 323 Q 256 363 352 499 L 364 519 Q 379 541 389 553 Q 396 566 394 574 Q 390 586 364 590 Q 337 597 326 592 Q 319 591 318 577 Q 300 451 60 216 Q 51 209 43 200 Q 25 184 50 190 Q 108 205 192 291 L 210 311 Z"/>
  <path id="z27442d4" d="M 352 499 Q 410 459 483 398 Q 496 385 509 382 Q 516 382 520 390 Q 529 402 515 433 Q 500 478 364 519 C 335 528 327 516 352 499 Z"/>
  <path id="z27442d5" d="M 247 302 Q 237 308 210 311 C 181 315 181 315 192 291 Q 220 230 237 132 Q 240 102 257 83 Q 273 62 278 77 Q 285 95 281 129 L 275 160 Q 260 245 257 274 C 254 299 254 299 247 302 Z"/>
  <path id="z27442d6" d="M 440 188 Q 456 261 478 285 Q 500 310 476 324 Q 457 334 430 352 Q 411 362 393 350 Q 342 319 247 302 C 218 297 228 267 257 274 Q 272 277 365 301 Q 393 308 400 297 Q 407 291 402 258 Q 396 228 391 193 C 387 163 433 159 440 188 Z"/>
  <path id="z27442d7" d="M 281 129 Q 287 128 296 131 Q 345 144 450 159 Q 460 160 461 169 Q 461 176 440 188 C 417 202 417 202 391 193 L 388 192 Q 324 171 275 160 C 246 153 251 129 281 129 Z"/>
  <path id="z27442d8" d="M 637 570 Q 665 618 693 685 Q 706 719 719 738 Q 726 750 720 762 Q 713 774 683 790 Q 655 803 636 799 Q 620 795 630 775 Q 655 742 603 604 Q 578 541 541 470 Q 534 460 532 453 Q 531 441 544 446 Q 566 456 625 550 L 637 570 Z"/>
  <path id="z27442d9" d="M 625 550 L 626 549 Q 648 527 673 537 Q 716 556 764 569 Q 789 576 797 575 Q 810 562 804 553 Q 804 549 771 481 Q 764 471 769 465 Q 773 459 785 471 Q 879 538 921 553 Q 931 554 932 563 Q 932 575 857 619 Q 829 634 814 626 Q 748 596 637 570 C 609 563 609 563 625 550 Z"/>
  <path id="z27442d10" d="M 671 289 Q 678 325 687 371 Q 690 393 694 403 Q 701 409 695 419 Q 691 426 663 436 Q 633 451 619 446 Q 609 440 617 425 Q 651 248 542 145 Q 514 117 439 77 Q 417 64 444 65 Q 486 62 559 105 Q 629 144 663 258 L 671 289 Z"/>
  <path id="z27442d11" d="M 663 258 Q 793 41 834 33 Q 931 33 970 39 Q 979 40 980 45 Q 981 49 969 57 Q 834 123 781 176 Q 732 224 678 282 Q 674 286 671 289 C 650 310 648 284 663 258 Z"/>
<defs>
  <clipPath id="z27442c1"><use href="#z27442d1"/></clipPath>
  <clipPath id="z27442c2"><use href="#z27442d2"/></clipPath>
  <clipPath id="z27442c3"><use href="#z27442d3"/></clipPath>
  <clipPath id="z27442c4"><use href="#z27442d4"/></clipPath>
  <clipPath id="z27442c5"><use href="#z27442d5"/></clipPath>
  <clipPath id="z27442c6"><use href="#z27442d6"/></clipPath>
  <clipPath id="z27442c7"><use href="#z27442d7"/></clipPath>
  <clipPath id="z27442c8"><use href="#z27442d8"/></clipPath>
  <clipPath id="z27442c9"><use href="#z27442d9"/></clipPath>
  <clipPath id="z27442c10"><use href="#z27442d10"/></clipPath>
  <clipPath id="z27442c11"><use href="#z27442d11"/></clipPath>
</defs>
<path style="--d:1s;" pathLength="3333" clip-path="url(#z27442c1)" d="M 261 736 L 281 704 L 259 659 L 190 569 L 152 533 L 125 520 L 123 512"/>
<path style="--d:2s;" pathLength="3333" clip-path="url(#z27442c2)" d="M 394 730 L 483 682 L 507 650"/>
<path style="--d:3s;" pathLength="3333" clip-path="url(#z27442c3)" d="M 381 570 L 348 556 L 290 450 L 181 310 L 105 236 L 52 199"/>
<path style="--d:4s;" pathLength="3333" clip-path="url(#z27442c4)" d="M 361 500 L 373 504 L 457 454 L 487 430 L 507 396"/>
<path style="--d:5s;" pathLength="3333" clip-path="url(#z27442c5)" d="M 204 289 L 219 287 L 231 267 L 268 82"/>
<path style="--d:6s;" pathLength="3333" clip-path="url(#z27442c6)" d="M 258 282 L 277 295 L 349 310 L 385 324 L 420 322 L 441 300 L 420 216 L 398 199"/>
<path style="--d:7s;" pathLength="3333" clip-path="url(#z27442c7)" d="M 283 154 L 294 148 L 395 172 L 451 169"/>
<path style="--d:8s;" pathLength="3333" clip-path="url(#z27442c8)" d="M 639 785 L 654 778 L 678 747 L 667 705 L 645 641 L 593 530 L 541 454"/>
<path style="--d:9s;" pathLength="3333" clip-path="url(#z27442c9)" d="M 630 554 L 662 555 L 793 595 L 821 595 L 834 589 L 850 567 L 773 470"/>
<path style="--d:10s;" pathLength="3333" clip-path="url(#z27442c10)" d="M 626 436 L 657 397 L 646 290 L 619 208 L 580 150 L 541 116 L 483 84 L 450 74"/>
<path style="--d:11s;" pathLength="3333" clip-path="url(#z27442c11)" d="M 672 283 L 681 253 L 713 212 L 769 145 L 830 86 L 845 75 L 973 45"/>
</svg>