<svg id="z22741" class="acjk" viewBox="0 0 1024 1024" xmlns="http://www.w3.org/2000/svg">
<style>
<![CDATA[
@keyframes zk {
	to {
		stroke-dashoffset:0;
	}
}
svg.acjk path[clip-path] {
	--t:0.8s;
	animation:zk var(--t) linear forwards var(--d);
	stroke-dasharray:3337;
	stroke-dashoffset:3339;
	stroke-width:128;
	stroke-linecap:round;
	stroke-linejoin:round;
	fill:none;
	stroke:#000;
}
svg.acjk path[id] {fill:#ccc;}
]]>
</style>
  <path id="z22741d1" d="M 269 520 Q 288 527 308 532 Q 336 542 341 546 Q 348 553 344 562 Q 337 572 309 576 Q 290 579 271 572 L 219 550 Q 111 522 101 519 Q 68 510 94 497 Q 133 478 183 496 Q 199 502 219 506 L 269 520 Z"/>
  <path id="z22741d2" d="M 259 331 Q 263 428 269 520 L 271 572 Q 272 636 292 728 Q 296 740 275 755 Q 238 774 213 779 Q 197 783 188 774 Q 181 765 189 750 Q 214 713 215 686 Q 218 620 219 550 L 219 506 Q 219 412 214 310 C 213 280 258 301 259 331 Z"/>
  <path id="z22741d3" d="M 214 310 Q 96 256 70 253 Q 58 249 58 240 Q 58 227 68 221 Q 92 209 125 196 Q 135 195 146 205 Q 168 232 296 317 Q 314 330 326 343 Q 338 352 336 361 Q 330 365 319 361 Q 291 348 259 331 L 214 310 Z"/>
  <path id="z22741d4" d="M 553 818 Q 575 802 600 782 Q 613 772 628 774 Q 638 775 641 788 Q 644 803 632 828 Q 625 844 599 852 Q 535 867 524 859 Q 520 855 522 843 Q 526 833 553 818 Z"/>
  <path id="z22741d5" d="M 404 714 Q 379 711 398 695 Q 429 674 450 677 Q 628 713 795 734 Q 805 733 813 744 Q 814 754 794 764 Q 761 785 703 765 Q 573 737 404 714 Z"/>
  <path id="z22741d6" d="M 495 638 Q 488 641 468 643 Q 458 644 456 640 Q 452 636 459 623 Q 478 593 493 541 Q 496 526 507 516 Q 522 500 525 513 Q 526 519 526 526 L 523 553 Q 514 602 513 616 C 511 633 511 633 495 638 Z"/>
  <path id="z22741d7" d="M 699 583 Q 714 611 732 622 Q 745 635 735 650 Q 678 695 633 672 Q 570 651 495 638 C 465 633 484 611 513 616 Q 531 619 642 643 Q 657 646 662 640 Q 666 636 666 626 Q 662 604 655 584 C 646 556 684 557 699 583 Z"/>
  <path id="z22741d8" d="M 526 526 Q 530 526 538 527 Q 592 540 711 556 Q 720 557 720 564 Q 720 570 699 583 C 685 592 684 592 655 584 Q 582 565 523 553 C 494 547 496 524 526 526 Z"/>
  <path id="z22741d9" d="M 415 470 Q 400 497 389 503 Q 385 507 380 504 Q 376 500 374 490 Q 377 468 351 409 Q 341 394 342 377 Q 345 359 353 346 Q 360 336 365 342 Q 377 345 391 385 Q 398 406 418 444 C 424 455 424 455 415 470 Z"/>
  <path id="z22741d10" d="M 418 444 Q 439 434 462 439 Q 579 479 741 496 Q 768 499 778 498 Q 793 488 791 480 Q 791 470 768 413 Q 764 400 769 397 Q 776 394 790 405 Q 836 442 875 455 Q 906 468 906 475 Q 905 484 839 527 Q 818 542 729 523 Q 705 522 499 483 Q 457 476 415 470 C 385 466 390 453 418 444 Z"/>
  <path id="z22741d11" d="M 551 376 Q 690 412 692 413 Q 699 420 695 427 Q 688 436 665 441 Q 650 444 567 419 Q 510 404 462 398 Q 432 392 454 380 Q 472 370 496 369 L 551 376 Z"/>
  <path id="z22741d12" d="M 514 325 Q 535 344 550 349 Q 556 350 557 358 Q 557 364 551 376 C 538 403 516 392 496 369 Q 456 321 367 275 Q 360 274 367 270 Q 394 263 490 309 Q 490 310 491 310 L 514 325 Z"/>
  <path id="z22741d13" d="M 618 257 Q 575 305 514 325 C 486 335 466 326 491 310 Q 494 307 500 304 Q 506 301 512 297 L 563 261 Q 576 251 587 236 L 615 185 Q 628 134 609 59 Q 600 28 591 23 Q 587 20 533 19 Q 500 19 500 16 Q 499 9 512 -2 Q 561 -41 580 -68 Q 593 -84 607 -79 Q 649 -60 664 40 Q 677 137 653 203 L 618 257 Z"/>
  <path id="z22741d14" d="M 512 297 Q 488 231 317 129 Q 299 120 320 119 Q 389 119 512 219 Q 515 228 563 261 C 588 278 524 325 512 297 Z"/>
  <path id="z22741d15" d="M 587 236 Q 503 115 309 10 Q 296 0 304 -3 Q 311 -9 325 -6 Q 436 15 571 139 Q 611 178 611 180 Q 612 183 615 185 C 634 208 604 260 587 236 Z"/>
  <path id="z22741d16" d="M 636 247 Q 670 266 692 280 Q 746 317 771 326 Q 790 333 782 350 Q 772 366 748 381 Q 727 394 715 392 Q 703 391 707 379 Q 707 355 618 257 C 598 235 610 232 636 247 Z"/>
  <path id="z22741d17" d="M 653 203 Q 800 83 837 77 Q 898 77 981 107 Q 997 111 998 116 Q 999 122 985 125 Q 940 134 890 141 Q 832 151 787 170 Q 732 191 675 224 Q 651 239 636 247 C 610 262 583 260 653 203 Z"/>
<defs>
  <clipPath id="z22741c1"><use href="#z22741d1"/></clipPath>
  <clipPath id="z22741c2"><use href="#z22741d2"/></clipPath>
  <clipPath id="z22741c3"><use href="#z22741d3"/></clipPath>
  <clipPath id="z22741c4"><use href="#z22741d4"/></clipPath>
  <clipPath id="z22741c5"><use href="#z22741d5"/></clipPath>
  <clipPath id="z22741c6"><use href="#z22741d6"/></clipPath>
  <clipPath id="z22741c7"><use href="#z22741d7"/></clipPath>
  <clipPath id="z22741c8"><use href="#z22741d8"/></clipPath>
  <clipPath id="z22741c9"><use href="#z22741d9"/></clipPath>
  <clipPath id="z22741c10"><use href="#z22741d10"/></clipPath>
  <clipPath id="z22741c11"><use href="#z22741d11"/></clipPath>
  <clipPath id="z22741c12"><use href="#z22741d12"/></clipPath>
  <clipPath id="z22741c13"><use href="#z22741d13"/></clipPath>
  <clipPath id="z22741c14"><use href="#z22741d14"/></clipPath>
  <clipPath id="z22741c15"><use href="#z22741d15"/></clipPath>
  <clipPath id="z22741c16"><use href="#z22741d16"/></clipPath>
  <clipPath id="z22741c17"><use href="#z22741d17"/></clipPath>
</defs>
<path style="--d:1s;" pathLength="3333" clip-path="url(#z22741c1)" d="M 95 509 L 155 510 L 292 553 L 333 556"/>
<path style="--d:2s;" pathLength="3333" clip-path="url(#z22741c2)" d="M 200 765 L 249 723 L 250 708 L 239 356 L 227 327 L 217 318"/>
<path style="--d:3s;" pathLength="3333" clip-path="url(#z22741c3)" d="M 72 239 L 125 234 L 331 357"/>
<path style="--d:4s;" pathLength="3333" clip-path="url(#z22741c4)" d="M 530 853 L 596 823 L 626 789"/>
<path style="--d:5s;" pathLength="3333" clip-path="url(#z22741c5)" d="M 400 705 L 444 698 L 748 752 L 803 746"/>
<path style="--d:6s;" pathLength="3333" clip-path="url(#z22741c6)" d="M 464 635 L 492 608 L 516 516"/>
<path style="--d:7s;" pathLength="3333" clip-path="url(#z22741c7)" d="M 504 636 L 516 629 L 656 662 L 667 660 L 687 650 L 697 633 L 686 607 L 662 589"/>
<path style="--d:8s;" pathLength="3333" clip-path="url(#z22741c8)" d="M 531 533 L 546 544 L 651 566 L 691 569 L 712 564"/>
<path style="--d:9s;" pathLength="3333" clip-path="url(#z22741c9)" d="M 383 494 L 394 468 L 393 448 L 365 381 L 362 353"/>
<path style="--d:10s;" pathLength="3333" clip-path="url(#z22741c10)" d="M 423 464 L 433 456 L 463 458 L 608 492 L 785 516 L 813 505 L 832 482 L 773 402"/>
<path style="--d:11s;" pathLength="3333" clip-path="url(#z22741c11)" d="M 455 390 L 490 385 L 560 395 L 637 419 L 689 421"/>
<path style="--d:12s;" pathLength="3333" clip-path="url(#z22741c12)" d="M 545 367 L 539 359 L 507 347 L 455 308 L 371 273"/>
<path style="--d:13s;" pathLength="3333" clip-path="url(#z22741c13)" d="M 498 311 L 517 311 L 543 296 L 600 251 L 636 190 L 644 141 L 637 52 L 627 16 L 611 -12 L 600 -21 L 504 13"/>
<path style="--d:14s;" pathLength="3333" clip-path="url(#z22741c14)" d="M 552 259 L 521 261 L 475 214 L 415 170 L 325 126"/>
<path style="--d:15s;" pathLength="3333" clip-path="url(#z22741c15)" d="M 587 228 L 584 188 L 519 124 L 412 47 L 364 21 L 311 2"/>
<path style="--d:16s;" pathLength="3333" clip-path="url(#z22741c16)" d="M 719 381 L 730 360 L 729 342 L 649 269 L 637 262 L 628 265"/>
<path style="--d:17s;" pathLength="3333" clip-path="url(#z22741c17)" d="M 630 248 L 693 191 L 828 118 L 853 112 L 907 112 L 990 119"/>
</svg>