<svg id="z29940" class="acjk" viewBox="0 0 1024 1024" xmlns="http://www.w3.org/2000/svg">
<style>
<![CDATA[
@keyframes zk {
	to {
		stroke-dashoffset:0;
	}
}
svg.acjk path[clip-path] {
	--t:0.8s;
	animation:zk var(--t) linear forwards var(--d);
	stroke-dasharray:3337;
	stroke-dashoffset:3339;
	stroke-width:128;
	stroke-linecap:round;
	stroke-linejoin:round;
	fill:none;
	stroke:#000;
}
svg.acjk path[id] {fill:#ccc;}
]]>
</style>
  <path id="z29940d1" d="M 329 662 Q 348 698 368 717 Q 377 727 371 741 Q 367 754 338 775 Q 311 793 292 792 Q 274 789 283 768 Q 298 737 286 709 Q 229 556 74 359 Q 64 349 62 342 Q 59 332 73 334 Q 127 341 286 587 Q 301 612 317 639 L 329 662 Z"/>
  <path id="z29940d2" d="M 317 639 Q 321 633 333 625 Q 370 595 410 559 Q 420 549 433 550 Q 442 550 445 561 Q 449 571 442 595 Q 432 634 329 662 C 300 670 298 662 317 639 Z"/>
  <path id="z29940d3" d="M 263 482 Q 318 412 341 410 Q 354 409 361 426 Q 362 438 354 458 Q 330 495 268 507 Q 259 508 258 498 Q 257 491 263 482 Z"/>
  <path id="z29940d4" d="M 293 139 Q 407 284 440 303 Q 458 310 450 326 Q 446 341 378 368 Q 359 375 338 364 Q 292 342 221 313 Q 202 306 156 302 Q 134 301 143 282 Q 152 270 170 261 Q 201 248 232 269 Q 245 276 318 318 Q 331 325 345 318 Q 358 311 353 295 Q 319 228 280 148 C 267 121 274 115 293 139 Z"/>
  <path id="z29940d5" d="M 280 148 Q 240 178 228 175 Q 224 172 222 161 Q 222 151 240 128 Q 271 86 303 38 Q 312 25 325 21 Q 334 20 341 29 Q 348 41 348 67 Q 348 104 293 139 L 280 148 Z"/>
  <path id="z29940d6" d="M 538 620 Q 551 621 773 672 Q 821 685 827 691 Q 837 700 831 708 Q 824 720 794 727 Q 766 733 658 694 Q 529 664 477 658 Q 440 651 467 634 Q 479 627 495 623 L 538 620 Z"/>
  <path id="z29940d7" d="M 548 369 Q 552 424 557 473 L 558 495 Q 561 537 571 570 Q 578 588 538 620 C 516 640 486 651 495 623 Q 494 619 499 610 Q 541 507 480 192 Q 476 146 435 101 Q 423 88 429 66 Q 436 41 449 29 Q 461 20 473 36 Q 488 61 621 166 Q 640 178 644 186 Q 648 196 639 196 Q 624 195 529 147 Q 522 143 520 150 Q 536 253 546 343 L 548 369 Z"/>
  <path id="z29940d8" d="M 557 473 Q 584 469 674 488 Q 689 491 694 484 Q 701 472 683 335 Q 650 88 773 16 Q 825 -9 875 -9 Q 918 -8 960 10 Q 994 23 980 57 Q 958 111 954 195 Q 953 219 946 223 Q 936 229 932 213 Q 905 92 881 73 Q 869 66 843 65 Q 777 68 746 117 Q 692 210 743 401 Q 762 464 799 493 Q 827 515 795 529 Q 779 539 742 551 Q 717 561 693 544 Q 641 510 558 495 C 529 489 527 473 557 473 Z"/>
  <path id="z29940d9" d="M 546 343 Q 615 282 638 283 Q 651 283 655 302 Q 655 315 643 333 Q 630 349 605 355 Q 565 368 548 369 C 518 372 523 363 546 343 Z"/>
<defs>
  <clipPath id="z29940c1"><use href="#z29940d1"/></clipPath>
  <clipPath id="z29940c2"><use href="#z29940d2"/></clipPath>
  <clipPath id="z29940c3"><use href="#z29940d3"/></clipPath>
  <clipPath id="z29940c4"><use href="#z29940d4"/></clipPath>
  <clipPath id="z29940c5"><use href="#z29940d5"/></clipPath>
  <clipPath id="z29940c6"><use href="#z29940d6"/></clipPath>
  <clipPath id="z29940c7"><use href="#z29940d7"/></clipPath>
  <clipPath id="z29940c8"><use href="#z29940d8"/></clipPath>
  <clipPath id="z29940c9"><use href="#z29940d9"/></clipPath>
</defs>
<path style="--d:1s;" pathLength="3333" clip-path="url(#z29940c1)" d="M 293 778 L 310 765 L 330 732 L 288 643 L 232 544 L 160 439 L 99 365 L 71 342"/>
<path style="--d:2s;" pathLength="3333" clip-path="url(#z29940c2)" d="M 326 642 L 354 635 L 395 609 L 416 590 L 433 562"/>
<path style="--d:3s;" pathLength="3333" clip-path="url(#z29940c3)" d="M 269 495 L 323 454 L 342 428"/>
<path style="--d:4s;" pathLength="3333" clip-path="url(#z29940c4)" d="M 152 290 L 184 281 L 213 285 L 327 340 L 361 342 L 393 318 L 381 288 L 292 151"/>
<path style="--d:5s;" pathLength="3333" clip-path="url(#z29940c5)" d="M 231 165 L 312 81 L 326 38"/>
<path style="--d:6s;" pathLength="3333" clip-path="url(#z29940c6)" d="M 469 647 L 493 642 L 543 645 L 783 702 L 821 701"/>
<path style="--d:7s;" pathLength="3333" clip-path="url(#z29940c7)" d="M 502 618 L 531 595 L 541 571 L 530 378 L 495 151 L 497 117 L 528 121 L 638 189"/>
<path style="--d:8s;" pathLength="3333" clip-path="url(#z29940c8)" d="M 561 478 L 571 486 L 623 494 L 686 513 L 718 514 L 739 501 L 705 345 L 698 201 L 722 111 L 733 90 L 765 57 L 793 41 L 845 29 L 880 30 L 924 48 L 932 79 L 941 215"/>
<path style="--d:9s;" pathLength="3333" clip-path="url(#z29940c9)" d="M 552 362 L 565 346 L 614 324 L 637 301"/>
</svg>