<svg id="z20792" class="acjk" viewBox="0 0 1024 1024" xmlns="http://www.w3.org/2000/svg">
<style>
<![CDATA[
@keyframes zk {
	to {
		stroke-dashoffset:0;
	}
}
svg.acjk path[clip-path] {
	--t:0.8s;
	animation:zk var(--t) linear forwards var(--d);
	stroke-dasharray:3337;
	stroke-dashoffset:3339;
	stroke-width:128;
	stroke-linecap:round;
	stroke-linejoin:round;
	fill:none;
	stroke:#000;
}
svg.acjk path[id] {fill:#ccc;}
]]>
</style>
  <path id="z20792d1" d="M 202 503 Q 248 564 296 652 Q 318 698 341 721 Q 350 731 344 745 Q 340 758 310 779 Q 282 795 264 795 Q 245 792 255 771 Q 268 744 250 692 Q 189 544 65 379 Q 56 369 54 362 Q 51 350 65 354 Q 98 363 179 472 L 202 503 Z"/>
  <path id="z20792d2" d="M 179 472 Q 200 421 207 364 Q 207 195 180 87 Q 168 36 202 -3 Q 203 -6 206 -8 Q 222 -24 234 2 Q 249 42 248 87 Q 244 358 252 419 Q 259 446 250 456 Q 211 498 202 503 C 179 522 168 500 179 472 Z"/>
  <path id="z20792d3" d="M 378 763 Q 368 764 364 760 Q 360 754 368 741 Q 393 695 414 619 Q 418 597 433 581 Q 449 563 454 577 Q 455 581 455 588 L 454 615 Q 453 622 452 628 Q 434 704 430 730 C 425 760 408 763 378 763 Z"/>
  <path id="z20792d4" d="M 736 619 Q 736 618 737 615 Q 741 600 751 600 Q 772 603 804 671 Q 822 714 855 738 Q 873 751 860 765 Q 845 781 804 807 Q 792 816 708 801 Q 663 801 522 777 Q 446 764 378 763 C 348 762 401 722 430 730 Q 461 739 507 747 L 529 750 Q 575 759 635 765 L 679 770 Q 757 780 777 770 Q 784 766 777 743 Q 752 659 742 643 C 733 624 733 624 736 619 Z"/>
  <path id="z20792d5" d="M 560 628 Q 560 661 532 746 Q 531 749 529 750 C 510 773 502 777 507 747 Q 525 638 538 624 C 555 600 561 598 560 628 Z"/>
  <path id="z20792d6" d="M 652 644 Q 653 650 657 657 Q 667 682 677 712 Q 681 725 690 743 Q 700 753 692 760 Q 688 766 679 770 C 652 784 623 793 635 765 Q 647 744 626 639 C 620 610 645 615 652 644 Z"/>
  <path id="z20792d7" d="M 455 588 Q 459 587 465 588 Q 550 607 736 619 C 766 621 765 624 742 643 Q 738 647 732 651 Q 717 660 652 644 L 626 639 Q 592 635 560 628 L 538 624 Q 493 621 454 615 C 424 611 425 588 455 588 Z"/>
  <path id="z20792d8" d="M 423 384 Q 420 385 418 384 Q 379 383 347 383 Q 325 382 337 396 Q 380 454 419 497 Q 431 510 429 516 Q 428 526 399 552 Q 387 562 373 561 Q 364 560 369 547 Q 378 517 322 427 Q 310 408 287 389 Q 272 379 273 369 Q 276 354 287 340 Q 294 333 305 337 Q 336 355 409 366 C 439 371 453 384 423 384 Z"/>
  <path id="z20792d9" d="M 466 283 Q 463 284 461 283 Q 422 277 375 265 Q 357 258 369 273 Q 397 309 466 379 Q 491 407 512 424 Q 522 431 518 440 Q 511 456 485 473 Q 472 480 464 479 Q 457 478 457 464 Q 457 442 423 384 L 409 366 Q 322 263 306 254 Q 294 247 296 236 Q 297 226 317 209 Q 326 199 338 208 Q 384 242 458 267 Q 467 270 471 273 C 498 286 496 286 466 283 Z"/>
  <path id="z20792d10" d="M 471 273 Q 478 249 495 242 Q 502 238 511 249 Q 515 256 513 272 Q 507 300 465 324 Q 459 327 456 320 Q 453 316 456 307 Q 460 295 466 283 L 471 273 Z"/>
  <path id="z20792d11" d="M 289 115 Q 296 79 302 39 Q 303 24 314 17 Q 320 13 330 18 Q 340 25 349 47 Q 356 63 344 93 Q 311 153 297 158 Q 293 158 287 149 Q 283 142 289 115 Z"/>
  <path id="z20792d12" d="M 379 157 Q 397 91 417 83 Q 427 79 436 90 Q 440 99 440 116 Q 437 132 423 145 Q 401 169 390 175 Q 383 179 380 171 Q 376 165 379 157 Z"/>
  <path id="z20792d13" d="M 460 190 Q 478 136 498 126 Q 507 122 516 134 Q 520 143 518 159 Q 514 172 500 183 Q 479 202 469 208 Q 463 211 460 203 Q 457 199 460 190 Z"/>
  <path id="z20792d14" d="M 584 394 Q 591 404 600 414 Q 600 415 681 535 Q 688 547 684 554 Q 680 564 656 566 Q 631 569 622 564 Q 616 563 616 550 Q 616 490 510 351 Q 495 335 517 343 Q 539 350 561 371 L 584 394 Z"/>
  <path id="z20792d15" d="M 617 64 Q 620 323 622 340 Q 625 370 601 386 Q 594 390 584 394 C 557 406 550 399 561 371 Q 591 305 571 88 Q 550 4 576 -34 Q 579 -38 583 -43 Q 592 -55 602 -44 Q 615 -26 616 37 L 617 64 Z"/>
  <path id="z20792d16" d="M 726 519 Q 744 500 762 478 Q 772 468 784 467 Q 793 467 797 477 Q 801 487 797 511 Q 790 538 725 556 Q 713 560 708 559 Q 704 556 704 546 Q 705 537 726 519 Z"/>
  <path id="z20792d17" d="M 770 391 Q 866 421 869 423 Q 875 430 871 435 Q 865 444 843 448 Q 821 451 798 440 Q 770 428 739 418 Q 705 408 664 401 Q 637 394 657 383 Q 684 371 727 379 L 770 391 Z"/>
  <path id="z20792d18" d="M 783 279 Q 805 286 831 292 Q 853 296 856 300 Q 862 306 858 312 Q 854 319 833 324 Q 809 328 784 316 L 736 301 Q 708 294 676 290 Q 651 286 670 274 Q 694 261 737 268 L 783 279 Z"/>
  <path id="z20792d19" d="M 780 179 Q 808 186 840 192 Q 864 196 867 200 Q 873 206 870 212 Q 866 219 845 225 Q 820 231 781 214 L 737 202 Q 709 198 677 194 Q 652 190 670 178 Q 697 163 737 170 L 780 179 Z"/>
  <path id="z20792d20" d="M 777 95 Q 778 140 780 179 L 781 214 Q 781 248 783 279 L 784 316 Q 784 331 787 353 Q 794 375 770 391 C 746 410 714 406 727 379 Q 736 370 736 301 L 737 268 Q 737 241 737 202 L 737 170 Q 737 134 737 87 C 737 57 776 65 777 95 Z"/>
  <path id="z20792d21" d="M 737 87 Q 673 77 617 64 C 588 57 586 42 616 37 Q 631 33 655 35 Q 811 60 925 75 Q 950 78 941 92 Q 931 108 904 114 Q 871 120 777 95 L 737 87 Z"/>
<defs>
  <clipPath id="z20792c1"><use href="#z20792d1"/></clipPath>
  <clipPath id="z20792c2"><use href="#z20792d2"/></clipPath>
  <clipPath id="z20792c3"><use href="#z20792d3"/></clipPath>
  <clipPath id="z20792c4"><use href="#z20792d4"/></clipPath>
  <clipPath id="z20792c5"><use href="#z20792d5"/></clipPath>
  <clipPath id="z20792c6"><use href="#z20792d6"/></clipPath>
  <clipPath id="z20792c7"><use href="#z20792d7"/></clipPath>
  <clipPath id="z20792c8"><use href="#z20792d8"/></clipPath>
  <clipPath id="z20792c9"><use href="#z20792d9"/></clipPath>
  <clipPath id="z20792c10"><use href="#z20792d10"/></clipPath>
  <clipPath id="z20792c11"><use href="#z20792d11"/></clipPath>
  <clipPath id="z20792c12"><use href="#z20792d12"/></clipPath>
  <clipPath id="z20792c13"><use href="#z20792d13"/></clipPath>
  <clipPath id="z20792c14"><use href="#z20792d14"/></clipPath>
  <clipPath id="z20792c15"><use href="#z20792d15"/></clipPath>
  <clipPath id="z20792c16"><use href="#z20792d16"/></clipPath>
  <clipPath id="z20792c17"><use href="#z20792d17"/></clipPath>
  <clipPath id="z20792c18"><use href="#z20792d18"/></clipPath>
  <clipPath id="z20792c19"><use href="#z20792d19"/></clipPath>
  <clipPath id="z20792c20"><use href="#z20792d20"/></clipPath>
  <clipPath id="z20792c21"><use href="#z20792d21"/></clipPath>
</defs>
<path style="--d:1s;" pathLength="3333" clip-path="url(#z20792c1)" d="M 265 781 L 282 767 L 300 736 L 274 672 L 217 566 L 144 455 L 100 398 L 63 363"/>
<path style="--d:2s;" pathLength="3333" clip-path="url(#z20792c2)" d="M 201 496 L 206 468 L 224 439 L 228 362 L 224 193 L 212 62 L 218 2"/>
<path style="--d:3s;" pathLength="3333" clip-path="url(#z20792c3)" d="M 372 755 L 407 715 L 444 582"/>
<path style="--d:4s;" pathLength="3333" clip-path="url(#z20792c4)" d="M 385 760 L 432 748 L 598 777 L 721 791 L 786 790 L 799 782 L 817 754 L 751 611"/>
<path style="--d:5s;" pathLength="3333" clip-path="url(#z20792c5)" d="M 524 743 L 543 647 L 554 632"/>
<path style="--d:6s;" pathLength="3333" clip-path="url(#z20792c6)" d="M 643 764 L 663 744 L 662 735 L 643 656 L 630 651"/>
<path style="--d:7s;" pathLength="3333" clip-path="url(#z20792c7)" d="M 460 595 L 476 605 L 731 639"/>
<path style="--d:8s;" pathLength="3333" clip-path="url(#z20792c8)" d="M 379 552 L 396 515 L 309 374 L 343 367 L 398 372 L 410 381"/>
<path style="--d:9s;" pathLength="3333" clip-path="url(#z20792c9)" d="M 468 469 L 480 434 L 433 368 L 356 283 L 348 251 L 370 248 L 464 276"/>
<path style="--d:10s;" pathLength="3333" clip-path="url(#z20792c10)" d="M 464 314 L 490 278 L 499 254"/>
<path style="--d:11s;" pathLength="3333" clip-path="url(#z20792c11)" d="M 295 150 L 323 76 L 321 31"/>
<path style="--d:12s;" pathLength="3333" clip-path="url(#z20792c12)" d="M 389 164 L 418 115 L 422 98"/>
<path style="--d:13s;" pathLength="3333" clip-path="url(#z20792c13)" d="M 468 199 L 503 140"/>
<path style="--d:14s;" pathLength="3333" clip-path="url(#z20792c14)" d="M 670 548 L 646 537 L 618 477 L 574 409 L 520 352"/>
<path style="--d:15s;" pathLength="3333" clip-path="url(#z20792c15)" d="M 586 385 L 596 347 L 600 270 L 597 106 L 588 23 L 593 -39"/>
<path style="--d:16s;" pathLength="3333" clip-path="url(#z20792c16)" d="M 711 551 L 758 519 L 784 481"/>
<path style="--d:17s;" pathLength="3333" clip-path="url(#z20792c17)" d="M 659 393 L 716 393 L 824 429 L 865 430"/>
<path style="--d:18s;" pathLength="3333" clip-path="url(#z20792c18)" d="M 671 283 L 713 280 L 816 307 L 848 308"/>
<path style="--d:19s;" pathLength="3333" clip-path="url(#z20792c19)" d="M 672 187 L 727 184 L 819 207 L 860 208"/>
<path style="--d:20s;" pathLength="3333" clip-path="url(#z20792c20)" d="M 735 379 L 754 366 L 761 349 L 758 118 L 742 95"/>
<path style="--d:21s;" pathLength="3333" clip-path="url(#z20792c21)" d="M 623 44 L 633 51 L 859 90 L 903 93 L 930 86"/>
</svg>