<svg id="z20666" class="acjk" viewBox="0 0 1024 1024" xmlns="http://www.w3.org/2000/svg">
<style>
<![CDATA[
@keyframes zk {
	to {
		stroke-dashoffset:0;
	}
}
svg.acjk path[clip-path] {
	--t:0.8s;
	animation:zk var(--t) linear forwards var(--d);
	stroke-dasharray:3337;
	stroke-dashoffset:3339;
	stroke-width:128;
	stroke-linecap:round;
	stroke-linejoin:round;
	fill:none;
	stroke:#000;
}
svg.acjk path[id] {fill:#ccc;}
]]>
</style>
  <path id="z20666d1" d="M 226 486 Q 275 550 326 641 Q 351 692 375 717 Q 385 727 379 741 Q 375 754 346 775 Q 319 793 300 792 Q 282 789 291 768 Q 306 735 294 707 Q 234 551 74 347 Q 64 337 62 330 Q 59 320 73 322 Q 106 326 204 457 L 226 486 Z"/>
  <path id="z20666d2" d="M 204 457 Q 207 447 213 437 Q 240 382 221 213 Q 214 165 202 115 Q 192 70 226 19 Q 227 19 229 16 Q 247 0 259 27 Q 274 67 273 114 Q 273 345 281 396 Q 288 423 279 434 Q 237 480 226 486 C 203 505 193 485 204 457 Z"/>
  <path id="z20666d3" d="M 361 528 Q 377 546 397 567 Q 401 574 408 580 L 421 595 Q 433 611 448 629 L 460 646 Q 481 683 504 706 Q 511 713 508 724 Q 505 734 484 752 Q 465 767 450 767 Q 435 766 441 749 Q 466 692 309 507 Q 302 500 300 495 Q 297 486 308 488 Q 321 491 351 519 L 361 528 Z"/>
  <path id="z20666d4" d="M 448 629 Q 457 622 483 626 Q 535 639 539 633 Q 543 620 523 570 Q 507 518 447 445 Q 390 369 296 295 Q 275 282 293 283 Q 410 290 549 518 Q 604 618 614 626 Q 626 636 620 646 Q 616 655 569 675 Q 557 679 538 669 Q 514 657 460 646 C 431 640 419 636 448 629 Z"/>
  <path id="z20666d5" d="M 408 580 Q 447 531 463 527 Q 472 526 477 538 Q 478 547 473 561 Q 463 579 421 595 C 393 606 389 603 408 580 Z"/>
  <path id="z20666d6" d="M 351 519 Q 351 513 382 468 Q 392 455 402 452 Q 412 451 418 461 Q 421 470 417 485 Q 404 515 361 528 C 347 532 347 532 351 519 Z"/>
  <path id="z20666d7" d="M 719 543 Q 824 663 852 676 Q 868 682 863 695 Q 860 708 805 736 Q 789 743 771 736 Q 734 723 678 708 Q 663 704 628 705 Q 609 706 615 689 Q 621 679 636 669 Q 661 653 689 669 Q 699 673 749 700 Q 762 704 774 695 Q 784 686 778 674 Q 745 619 710 552 C 696 525 699 520 719 543 Z"/>
  <path id="z20666d8" d="M 710 552 Q 655 612 646 612 Q 622 612 616 604 Q 613 600 621 594 Q 649 579 668 552 Q 821 353 850 343 Q 898 343 965 357 Q 978 360 982 366 Q 985 370 977 374 Q 850 419 757 505 Q 739 523 719 543 L 710 552 Z"/>
  <path id="z20666d9" d="M 491 398 Q 457 391 482 377 Q 524 356 572 371 Q 623 384 676 396 Q 701 403 704 406 Q 711 413 707 421 Q 700 431 673 437 Q 645 441 619 429 Q 591 419 562 411 Q 529 404 491 398 Z"/>
  <path id="z20666d10" d="M 617 267 Q 675 276 764 279 Q 809 279 817 289 Q 821 299 806 311 Q 748 345 684 323 Q 645 316 394 264 Q 375 261 390 247 Q 403 235 420 231 Q 439 227 453 232 Q 508 251 572 260 L 617 267 Z"/>
  <path id="z20666d11" d="M 572 260 Q 582 224 582 133 Q 582 72 576 57 Q 573 44 549 47 Q 524 51 499 54 Q 489 55 487 49 Q 486 43 496 35 Q 557 -11 577 -39 Q 590 -51 601 -49 Q 611 -45 622 -13 Q 637 18 633 76 Q 630 172 632 206 Q 638 245 617 267 C 599 291 565 289 572 260 Z"/>
  <path id="z20666d12" d="M 436 179 Q 409 136 375 97 Q 353 72 363 37 Q 367 21 389 28 Q 440 55 452 123 Q 461 151 458 176 Q 454 183 449 186 Q 442 186 436 179 Z"/>
  <path id="z20666d13" d="M 712 170 Q 758 127 812 66 Q 827 47 841 42 Q 850 41 857 50 Q 869 63 857 105 Q 850 144 781 173 Q 738 192 713 200 Q 706 204 703 193 Q 702 180 712 170 Z"/>
<defs>
  <clipPath id="z20666c1"><use href="#z20666d1"/></clipPath>
  <clipPath id="z20666c2"><use href="#z20666d2"/></clipPath>
  <clipPath id="z20666c3"><use href="#z20666d3"/></clipPath>
  <clipPath id="z20666c4"><use href="#z20666d4"/></clipPath>
  <clipPath id="z20666c5"><use href="#z20666d5"/></clipPath>
  <clipPath id="z20666c6"><use href="#z20666d6"/></clipPath>
  <clipPath id="z20666c7"><use href="#z20666d7"/></clipPath>
  <clipPath id="z20666c8"><use href="#z20666d8"/></clipPath>
  <clipPath id="z20666c9"><use href="#z20666d9"/></clipPath>
  <clipPath id="z20666c10"><use href="#z20666d10"/></clipPath>
  <clipPath id="z20666c11"><use href="#z20666d11"/></clipPath>
  <clipPath id="z20666c12"><use href="#z20666d12"/></clipPath>
  <clipPath id="z20666c13"><use href="#z20666d13"/></clipPath>
</defs>
<path style="--d:1s;" pathLength="3333" clip-path="url(#z20666c1)" d="M 301 778 L 338 733 L 299 647 L 252 563 L 182 457 L 107 363 L 71 330"/>
<path style="--d:2s;" pathLength="3333" clip-path="url(#z20666c2)" d="M 225 479 L 230 452 L 253 417 L 252 292 L 236 93 L 242 28"/>
<path style="--d:3s;" pathLength="3333" clip-path="url(#z20666c3)" d="M 449 756 L 466 739 L 474 718 L 447 663 L 382 572 L 341 531 L 337 520 L 309 497"/>
<path style="--d:4s;" pathLength="3333" clip-path="url(#z20666c4)" d="M 454 631 L 554 651 L 568 644 L 574 631 L 538 540 L 465 430 L 397 355 L 346 314 L 298 288"/>
<path style="--d:5s;" pathLength="3333" clip-path="url(#z20666c5)" d="M 421 576 L 427 578 L 450 560 L 464 539"/>
<path style="--d:6s;" pathLength="3333" clip-path="url(#z20666c6)" d="M 360 519 L 385 497 L 404 467"/>
<path style="--d:7s;" pathLength="3333" clip-path="url(#z20666c7)" d="M 624 695 L 652 684 L 674 685 L 746 714 L 771 717 L 793 713 L 814 692 L 722 555"/>
<path style="--d:8s;" pathLength="3333" clip-path="url(#z20666c8)" d="M 624 602 L 645 596 L 663 581 L 753 477 L 861 383 L 975 367"/>
<path style="--d:9s;" pathLength="3333" clip-path="url(#z20666c9)" d="M 484 389 L 494 384 L 546 386 L 654 415 L 696 415"/>
<path style="--d:10s;" pathLength="3333" clip-path="url(#z20666c10)" d="M 392 256 L 443 252 L 504 269 L 712 304 L 763 304 L 809 294"/>
<path style="--d:11s;" pathLength="3333" clip-path="url(#z20666c11)" d="M 580 257 L 606 229 L 608 86 L 601 35 L 585 12 L 511 37 L 495 48"/>
<path style="--d:12s;" pathLength="3333" clip-path="url(#z20666c12)" d="M 447 175 L 420 107 L 379 42"/>
<path style="--d:13s;" pathLength="3333" clip-path="url(#z20666c13)" d="M 714 188 L 812 117 L 832 89 L 843 57"/>
</svg>