<svg id="z24859" class="acjk" viewBox="0 0 1024 1024" xmlns="http://www.w3.org/2000/svg">
<style>
<![CDATA[
@keyframes zk {
	to {
		stroke-dashoffset:0;
	}
}
svg.acjk path[clip-path] {
	--t:0.8s;
	animation:zk var(--t) linear forwards var(--d);
	stroke-dasharray:3337;
	stroke-dashoffset:3339;
	stroke-width:128;
	stroke-linecap:round;
	stroke-linejoin:round;
	fill:none;
	stroke:#000;
}
svg.acjk path[id] {fill:#ccc;}
]]>
</style>
  <path id="z24859d1" d="M 530 823 Q 482 784 346 732 Q 340 723 346 720 Q 371 713 528 761 Q 577 780 630 787 Q 646 787 651 794 Q 655 804 644 816 Q 625 834 582 853 Q 567 862 554 861 Q 547 858 545 847 Q 544 832 530 823 Z"/>
  <path id="z24859d2" d="M 324 646 Q 342 627 362 603 Q 372 590 386 590 Q 396 590 401 601 Q 405 613 401 639 Q 392 669 323 688 Q 310 692 304 691 Q 300 687 300 676 Q 301 666 324 646 Z"/>
  <path id="z24859d3" d="M 462 678 Q 483 639 504 625 Q 514 621 524 629 Q 531 638 531 651 Q 528 681 491 700 Q 464 712 458 710 Q 454 710 453 700 Q 453 691 462 678 Z"/>
  <path id="z24859d4" d="M 670 724 Q 663 714 600 655 Q 590 643 604 643 Q 650 659 699 681 Q 717 691 738 697 Q 757 701 750 718 Q 741 734 722 750 Q 704 763 694 764 Q 684 764 685 753 Q 685 737 670 724 Z"/>
  <path id="z24859d5" d="M 248 542 Q 236 563 225 570 Q 206 583 206 557 Q 213 523 161 453 Q 143 431 172 380 L 173 378 Q 192 356 205 382 Q 227 448 252 515 C 257 528 257 528 248 542 Z"/>
  <path id="z24859d6" d="M 252 515 Q 279 499 330 512 Q 427 542 684 579 Q 768 591 789 587 Q 805 583 804 573 Q 780 525 757 477 L 759 476 Q 768 472 785 483 Q 843 520 891 531 Q 931 541 930 552 Q 927 562 858 618 Q 839 634 813 633 Q 734 620 635 603 Q 535 590 377 562 Q 316 550 255 543 Q 251 543 248 542 C 218 538 224 525 252 515 Z"/>
  <path id="z24859d7" d="M 330 473 Q 308 427 276 386 Q 258 353 271 328 Q 277 312 295 322 Q 344 355 349 421 Q 355 449 350 472 Q 346 479 341 481 Q 334 480 330 473 Z"/>
  <path id="z24859d8" d="M 403 411 Q 461 324 579 320 Q 684 317 718 362 Q 731 378 701 391 Q 656 407 600 444 Q 596 448 591 445 Q 588 441 595 432 Q 626 387 621 377 Q 617 370 577 366 Q 493 360 418 418 Q 402 428 399 425 Q 395 421 403 411 Z"/>
  <path id="z24859d9" d="M 453 482 Q 507 431 529 432 Q 539 432 543 448 Q 543 458 533 474 Q 515 498 454 505 Q 447 505 446 495 Q 446 488 453 482 Z"/>
  <path id="z24859d10" d="M 621 503 Q 685 458 696 458 Q 703 459 706 468 Q 707 478 700 498 Q 694 514 668 524 Q 611 540 600 534 Q 596 531 598 523 Q 602 516 621 503 Z"/>
  <path id="z24859d11" d="M 455 266 Q 471 284 472 289 Q 469 313 432 329 Q 414 336 404 336 Q 397 335 397 323 Q 401 242 271 116 Q 268 115 266 111 Q 227 75 134 6 Q 127 2 135 -1 Q 195 -1 315 104 Q 345 135 392 187 L 405 204 Q 421 225 440 247 L 455 266 Z"/>
  <path id="z24859d12" d="M 588 81 Q 622 124 646 187 Q 656 218 677 232 Q 693 244 678 260 Q 662 278 632 293 Q 613 303 592 294 Q 540 272 470 268 Q 461 268 455 266 C 425 263 412 258 440 247 Q 464 232 502 240 Q 542 246 581 252 Q 599 256 598 237 Q 598 180 549 109 L 525 81 Q 456 21 298 -15 Q 283 -16 291 -26 Q 298 -33 325 -32 Q 419 -25 474 -4 Q 520 15 557 48 L 588 81 Z"/>
  <path id="z24859d13" d="M 557 48 Q 687 -82 736 -79 Q 821 -73 888 -57 Q 924 -50 920 -41 Q 919 -37 883 -27 Q 699 13 647 43 Q 640 46 588 81 L 549 109 Q 512 139 475 172 Q 438 206 405 204 C 375 207 367 204 392 187 Q 465 139 525 81 L 557 48 Z"/>
<defs>
  <clipPath id="z24859c1"><use href="#z24859d1"/></clipPath>
  <clipPath id="z24859c2"><use href="#z24859d2"/></clipPath>
  <clipPath id="z24859c3"><use href="#z24859d3"/></clipPath>
  <clipPath id="z24859c4"><use href="#z24859d4"/></clipPath>
  <clipPath id="z24859c5"><use href="#z24859d5"/></clipPath>
  <clipPath id="z24859c6"><use href="#z24859d6"/></clipPath>
  <clipPath id="z24859c7"><use href="#z24859d7"/></clipPath>
  <clipPath id="z24859c8"><use href="#z24859d8"/></clipPath>
  <clipPath id="z24859c9"><use href="#z24859d9"/></clipPath>
  <clipPath id="z24859c10"><use href="#z24859d10"/></clipPath>
  <clipPath id="z24859c11"><use href="#z24859d11"/></clipPath>
  <clipPath id="z24859c12"><use href="#z24859d12"/></clipPath>
  <clipPath id="z24859c13"><use href="#z24859d13"/></clipPath>
</defs>
<path style="--d:1s;" pathLength="3333" clip-path="url(#z24859c1)" d="M 642 799 L 574 815 L 509 778 L 464 760 L 350 726"/>
<path style="--d:2s;" pathLength="3333" clip-path="url(#z24859c2)" d="M 308 682 L 358 648 L 374 632 L 386 606"/>
<path style="--d:3s;" pathLength="3333" clip-path="url(#z24859c3)" d="M 461 702 L 497 667 L 511 642"/>
<path style="--d:4s;" pathLength="3333" clip-path="url(#z24859c4)" d="M 697 753 L 706 718 L 620 659 L 612 659 L 609 651"/>
<path style="--d:5s;" pathLength="3333" clip-path="url(#z24859c5)" d="M 216 563 L 227 538 L 226 516 L 187 433 L 188 385"/>
<path style="--d:6s;" pathLength="3333" clip-path="url(#z24859c6)" d="M 252 536 L 268 527 L 300 527 L 492 566 L 709 600 L 796 608 L 827 600 L 849 566 L 774 486 L 761 483"/>
<path style="--d:7s;" pathLength="3333" clip-path="url(#z24859c7)" d="M 340 471 L 325 416 L 285 332"/>
<path style="--d:8s;" pathLength="3333" clip-path="url(#z24859c8)" d="M 402 418 L 472 366 L 525 347 L 608 344 L 651 360 L 658 367 L 648 386 L 595 439"/>
<path style="--d:9s;" pathLength="3333" clip-path="url(#z24859c9)" d="M 458 493 L 501 471 L 527 447"/>
<path style="--d:10s;" pathLength="3333" clip-path="url(#z24859c10)" d="M 605 527 L 674 495 L 696 468"/>
<path style="--d:11s;" pathLength="3333" clip-path="url(#z24859c11)" d="M 409 325 L 429 290 L 371 195 L 264 83 L 186 27 L 139 3"/>
<path style="--d:12s;" pathLength="3333" clip-path="url(#z24859c12)" d="M 448 248 L 605 273 L 616 269 L 636 246 L 613 174 L 581 111 L 525 52 L 495 31 L 439 6 L 333 -20 L 297 -22"/>
<path style="--d:13s;" pathLength="3333" clip-path="url(#z24859c13)" d="M 401 187 L 412 191 L 457 165 L 619 26 L 706 -25 L 757 -38 L 915 -43"/>
</svg>