<svg id="z29427" class="acjk" viewBox="0 0 1024 1024" xmlns="http://www.w3.org/2000/svg">
<style>
<![CDATA[
@keyframes zk {
	to {
		stroke-dashoffset:0;
	}
}
svg.acjk path[clip-path] {
	--t:0.8s;
	animation:zk var(--t) linear forwards var(--d);
	stroke-dasharray:3337;
	stroke-dashoffset:3339;
	stroke-width:128;
	stroke-linecap:round;
	stroke-linejoin:round;
	fill:none;
	stroke:#000;
}
svg.acjk path[id] {fill:#ccc;}
]]>
</style>
  <path id="z29427d1" d="M 302 572 Q 317 588 331 607 Q 371 659 409 702 Q 422 714 409 731 Q 370 770 344 771 Q 332 770 333 755 Q 332 698 280 617 L 246 576 Q 206 527 157 492 Q 115 462 95 444 Q 85 431 100 432 Q 157 435 264 532 L 302 572 Z"/>
  <path id="z29427d2" d="M 290 380 Q 302 226 260 107 Q 253 89 243 87 Q 227 86 182 99 Q 151 111 146 104 Q 142 98 152 85 Q 195 46 222 10 Q 243 -20 253 -19 Q 263 -20 283 2 Q 346 80 346 308 Q 336 483 302 572 L 280 617 Q 247 677 144 714 Q 138 717 135 717 Q 119 723 117 711 Q 116 695 126 677 Q 138 658 157 657 Q 214 641 246 576 L 264 532 Q 274 496 282 456 L 290 380 Z"/>
  <path id="z29427d3" d="M 282 456 Q 212 336 45 178 Q 38 169 49 166 Q 67 163 182 256 Q 237 302 290 380 C 307 405 297 482 282 456 Z"/>
  <path id="z29427d4" d="M 624 695 Q 636 725 646 737 Q 653 744 650 754 Q 647 764 633 774 Q 617 786 596 789 Q 574 793 563 789 Q 554 786 558 773 Q 589 703 475 520 Q 472 519 471 514 Q 440 465 356 368 Q 349 361 359 361 Q 405 368 505 486 Q 560 565 611 667 L 624 695 Z"/>
  <path id="z29427d5" d="M 611 667 Q 690 552 794 432 Q 812 413 842 413 Q 945 416 977 422 Q 987 423 988 429 Q 988 433 975 441 Q 825 499 762 557 Q 696 617 624 695 C 604 717 594 692 611 667 Z"/>
  <path id="z29427d6" d="M 625 421 Q 658 431 694 440 Q 718 447 721 451 Q 730 460 724 468 Q 717 480 686 485 Q 655 488 625 474 Q 598 464 569 454 Q 538 445 499 439 Q 462 429 490 415 Q 532 397 584 407 L 625 421 Z"/>
  <path id="z29427d7" d="M 646 282 Q 698 291 772 295 Q 815 295 822 306 Q 826 318 809 330 Q 752 366 689 343 Q 670 339 647 331 L 595 318 Q 594 319 591 318 Q 518 302 430 282 Q 411 279 427 263 Q 454 239 495 249 Q 541 265 596 274 L 646 282 Z"/>
  <path id="z29427d8" d="M 560 67 Q 544 73 524 79 Q 514 83 513 76 Q 513 69 521 60 Q 567 11 597 -27 Q 607 -36 620 -22 Q 653 23 654 112 Q 647 215 646 282 L 647 331 Q 647 350 649 369 Q 655 403 625 421 C 601 440 579 437 584 407 Q 587 398 595 318 L 596 274 Q 597 207 599 100 Q 598 75 590 66 Q 581 60 560 67 Z"/>
  <path id="z29427d9" d="M 483 208 Q 455 168 419 132 Q 394 108 404 70 Q 408 52 430 60 Q 481 82 497 149 Q 507 179 506 203 Q 502 213 497 215 Q 490 215 483 208 Z"/>
  <path id="z29427d10" d="M 711 198 Q 754 156 804 95 Q 819 76 833 71 Q 842 70 849 78 Q 861 91 851 132 Q 842 172 778 201 Q 736 220 714 227 Q 705 233 703 221 Q 702 208 711 198 Z"/>
<defs>
  <clipPath id="z29427c1"><use href="#z29427d1"/></clipPath>
  <clipPath id="z29427c2"><use href="#z29427d2"/></clipPath>
  <clipPath id="z29427c3"><use href="#z29427d3"/></clipPath>
  <clipPath id="z29427c4"><use href="#z29427d4"/></clipPath>
  <clipPath id="z29427c5"><use href="#z29427d5"/></clipPath>
  <clipPath id="z29427c6"><use href="#z29427d6"/></clipPath>
  <clipPath id="z29427c7"><use href="#z29427d7"/></clipPath>
  <clipPath id="z29427c8"><use href="#z29427d8"/></clipPath>
  <clipPath id="z29427c9"><use href="#z29427d9"/></clipPath>
  <clipPath id="z29427c10"><use href="#z29427d10"/></clipPath>
</defs>
<path style="--d:1s;" pathLength="3333" clip-path="url(#z29427c1)" d="M 345 759 L 368 715 L 299 603 L 228 525 L 150 465 L 104 441"/>
<path style="--d:2s;" pathLength="3333" clip-path="url(#z29427c2)" d="M 128 709 L 156 682 L 192 669 L 226 644 L 267 590 L 292 525 L 307 458 L 320 317 L 310 177 L 290 91 L 273 60 L 253 43 L 151 100"/>
<path style="--d:3s;" pathLength="3333" clip-path="url(#z29427c3)" d="M 283 448 L 276 438 L 266 386 L 210 315 L 126 231 L 51 173"/>
<path style="--d:4s;" pathLength="3333" clip-path="url(#z29427c4)" d="M 567 779 L 604 746 L 570 643 L 521 551 L 469 473 L 420 417 L 375 376 L 365 374 L 362 366"/>
<path style="--d:5s;" pathLength="3333" clip-path="url(#z29427c5)" d="M 626 686 L 636 658 L 705 577 L 820 466 L 838 455 L 981 428"/>
<path style="--d:6s;" pathLength="3333" clip-path="url(#z29427c6)" d="M 491 428 L 529 424 L 569 429 L 652 456 L 714 461"/>
<path style="--d:7s;" pathLength="3333" clip-path="url(#z29427c7)" d="M 429 272 L 472 268 L 718 321 L 753 323 L 813 311"/>
<path style="--d:8s;" pathLength="3333" clip-path="url(#z29427c8)" d="M 592 406 L 619 384 L 627 119 L 623 70 L 602 29 L 578 36 L 520 74"/>
<path style="--d:9s;" pathLength="3333" clip-path="url(#z29427c9)" d="M 494 203 L 470 147 L 420 73"/>
<path style="--d:10s;" pathLength="3333" clip-path="url(#z29427c10)" d="M 713 216 L 805 145 L 825 117 L 835 87"/>
</svg>