<svg id="z20049" class="acjk" viewBox="0 0 1024 1024" xmlns="http://www.w3.org/2000/svg">
<style>
<![CDATA[
@keyframes zk {
	to {
		stroke-dashoffset:0;
	}
}
svg.acjk path[clip-path] {
	--t:0.8s;
	animation:zk var(--t) linear forwards var(--d);
	stroke-dasharray:3337;
	stroke-dashoffset:3339;
	stroke-width:128;
	stroke-linecap:round;
	stroke-linejoin:round;
	fill:none;
	stroke:#000;
}
svg.acjk path[id] {fill:#ccc;}
]]>
</style>
  <path id="z20049d1" d="M 411 737 Q 527 772 560 774 Q 580 776 583 782 Q 589 794 576 806 Q 560 823 511 849 L 501 854 Q 475 869 470 842 Q 463 796 201 707 Q 194 698 201 694 Q 209 691 260 701 Q 331 713 354 721 L 411 737 Z"/>
  <path id="z20049d2" d="M 441 467 Q 443 576 443 582 L 449 647 L 457 692 Q 459 706 444 716 Q 424 730 411 737 C 385 753 341 748 354 721 Q 384 661 384 643 Q 386 492 377 192 Q 370 -39 393 -69 Q 399 -77 407 -74 Q 417 -71 425 -37 Q 444 44 440 192 Q 438 282 440 443 L 441 467 Z"/>
  <path id="z20049d3" d="M 252 561 Q 259 541 251 527 Q 213 447 119 345 Q 109 337 106 331 Q 102 322 112 323 Q 113 323 115 323 Q 157 323 277 458 Q 290 478 313 498 Q 326 510 326 517 Q 327 521 326 526 Q 325 537 305 557 Q 282 577 263 580 Q 247 580 252 561 Z"/>
  <path id="z20049d4" d="M 252 335 Q 259 316 251 302 Q 213 221 119 120 Q 109 112 106 106 Q 102 97 112 98 Q 113 98 115 98 Q 157 98 277 232 Q 290 253 313 272 Q 326 284 326 292 Q 327 296 326 301 Q 325 312 305 331 Q 282 352 263 355 Q 247 355 252 335 Z"/>
  <path id="z20049d5" d="M 466 457 Q 492 466 582 514 Q 694 570 732 578 Q 759 584 750 607 Q 743 625 718 647 Q 691 670 675 670 Q 662 670 662 656 Q 663 623 548 539 L 441 467 C 413 448 428 442 466 457 Z"/>
  <path id="z20049d6" d="M 440 443 L 491 379 Q 689 133 730 139 Q 886 164 913 165 Q 917 165 919 167 Q 937 182 875 194 Q 765 216 652 279 Q 645 284 599 329 Q 497 429 466 457 C 444 477 421 466 440 443 Z"/>
<defs>
  <clipPath id="z20049c1"><use href="#z20049d1"/></clipPath>
  <clipPath id="z20049c2"><use href="#z20049d2"/></clipPath>
  <clipPath id="z20049c3"><use href="#z20049d3"/></clipPath>
  <clipPath id="z20049c4"><use href="#z20049d4"/></clipPath>
  <clipPath id="z20049c5"><use href="#z20049d5"/></clipPath>
  <clipPath id="z20049c6"><use href="#z20049d6"/></clipPath>
</defs>
<path style="--d:1s;" pathLength="3333" clip-path="url(#z20049c1)" d="M 573 789 L 501 807 L 456 781 L 384 752 L 205 701"/>
<path style="--d:2s;" pathLength="3333" clip-path="url(#z20049c2)" d="M 364 714 L 406 697 L 415 687 L 417 660 L 403 -63"/>
<path style="--d:3s;" pathLength="3333" clip-path="url(#z20049c3)" d="M 262 568 L 282 542 L 285 518 L 207 414 L 143 349 L 114 330"/>
<path style="--d:4s;" pathLength="3333" clip-path="url(#z20049c4)" d="M 262 342 L 277 326 L 288 297 L 250 240 L 194 174 L 143 124 L 114 105"/>
<path style="--d:5s;" pathLength="3333" clip-path="url(#z20049c5)" d="M 674 658 L 692 612 L 601 548 L 450 461 L 445 449"/>
<path style="--d:6s;" pathLength="3333" clip-path="url(#z20049c6)" d="M 449 442 L 479 422 L 631 258 L 720 194 L 735 186 L 915 174"/>
</svg>