<svg id="z27766" class="acjk" viewBox="0 0 1024 1024" xmlns="http://www.w3.org/2000/svg">
<style>
<![CDATA[
@keyframes zk {
	to {
		stroke-dashoffset:0;
	}
}
svg.acjk path[clip-path] {
	--t:0.8s;
	animation:zk var(--t) linear forwards var(--d);
	stroke-dasharray:3337;
	stroke-dashoffset:3339;
	stroke-width:128;
	stroke-linecap:round;
	stroke-linejoin:round;
	fill:none;
	stroke:#000;
}
svg.acjk path[id] {fill:#ccc;}
]]>
</style>
  <path id="z27766d1" d="M 217 709 Q 250 684 285 652 Q 301 639 319 640 Q 332 641 336 656 Q 340 674 329 707 Q 322 729 285 745 Q 200 770 184 764 Q 178 758 181 744 Q 185 731 217 709 Z"/>
  <path id="z27766d2" d="M 104 517 Q 147 466 187 445 Q 203 442 214 457 Q 221 470 218 490 Q 206 536 142 553 Q 103 568 89 561 Q 82 560 85 546 Q 86 533 104 517 Z"/>
  <path id="z27766d3" d="M 119 118 Q 106 114 107 96 Q 119 17 157 -6 Q 164 -13 176 -11 Q 183 -10 186 18 Q 195 72 304 334 Q 311 350 311 357 Q 310 369 300 361 Q 287 352 162 161 Q 149 139 119 118 Z"/>
  <path id="z27766d4" d="M 514 748 Q 580 678 618 664 Q 636 661 646 677 Q 653 692 649 711 Q 637 760 535 790 Q 531 791 528 793 Q 509 797 497 793 Q 490 792 493 777 Q 496 764 514 748 Z"/>
  <path id="z27766d5" d="M 640 519 Q 700 528 834 540 Q 855 541 859 551 Q 863 564 845 577 Q 787 613 750 599 Q 644 568 335 496 Q 313 492 331 476 Q 347 463 366 459 Q 388 455 404 462 Q 524 504 589 510 L 640 519 Z"/>
  <path id="z27766d6" d="M 612 232 Q 657 325 678 435 Q 682 462 690 473 Q 697 480 691 493 Q 681 505 640 519 C 612 529 576 537 589 510 Q 590 506 594 501 Q 633 422 572 277 Q 571 276 571 274 L 548 235 Q 544 231 540 224 Q 483 149 318 80 Q 290 67 323 65 Q 413 62 525 132 Q 528 135 583 189 L 612 232 Z"/>
  <path id="z27766d7" d="M 583 189 Q 638 122 729 38 Q 762 10 812 17 Q 879 24 927 30 Q 942 31 957 38 Q 966 45 952 55 Q 934 65 797 109 Q 704 140 612 232 L 571 274 Q 531 317 490 367 Q 468 395 428 403 Q 416 406 407 399 Q 401 392 410 384 Q 419 377 427 372 Q 455 359 548 235 L 583 189 Z"/>
<defs>
  <clipPath id="z27766c1"><use href="#z27766d1"/></clipPath>
  <clipPath id="z27766c2"><use href="#z27766d2"/></clipPath>
  <clipPath id="z27766c3"><use href="#z27766d3"/></clipPath>
  <clipPath id="z27766c4"><use href="#z27766d4"/></clipPath>
  <clipPath id="z27766c5"><use href="#z27766d5"/></clipPath>
  <clipPath id="z27766c6"><use href="#z27766d6"/></clipPath>
  <clipPath id="z27766c7"><use href="#z27766d7"/></clipPath>
</defs>
<path style="--d:1s;" pathLength="3333" clip-path="url(#z27766c1)" d="M 188 757 L 287 702 L 318 659"/>
<path style="--d:2s;" pathLength="3333" clip-path="url(#z27766c2)" d="M 96 551 L 176 496 L 192 467"/>
<path style="--d:3s;" pathLength="3333" clip-path="url(#z27766c3)" d="M 171 -1 L 157 41 L 157 88 L 304 355"/>
<path style="--d:4s;" pathLength="3333" clip-path="url(#z27766c4)" d="M 502 783 L 593 725 L 615 705 L 623 689"/>
<path style="--d:5s;" pathLength="3333" clip-path="url(#z27766c5)" d="M 333 486 L 384 482 L 566 530 L 770 569 L 846 556"/>
<path style="--d:6s;" pathLength="3333" clip-path="url(#z27766c6)" d="M 596 508 L 646 474 L 630 359 L 597 263 L 578 231 L 556 199 L 489 140 L 380 87 L 330 76"/>
<path style="--d:7s;" pathLength="3333" clip-path="url(#z27766c7)" d="M 416 393 L 464 368 L 615 192 L 675 135 L 739 86 L 790 62 L 950 45"/>
</svg>