<svg id="z29380" class="acjk" viewBox="0 0 1024 1024" xmlns="http://www.w3.org/2000/svg">
<style>
<![CDATA[
@keyframes zk {
	to {
		stroke-dashoffset:0;
	}
}
svg.acjk path[clip-path] {
	--t:0.8s;
	animation:zk var(--t) linear forwards var(--d);
	stroke-dasharray:3337;
	stroke-dashoffset:3339;
	stroke-width:128;
	stroke-linecap:round;
	stroke-linejoin:round;
	fill:none;
	stroke:#000;
}
svg.acjk path[id] {fill:#ccc;}
]]>
</style>
  <path id="z29380d1" d="M 328 588 Q 355 627 422 693 Q 435 706 422 724 Q 383 769 352 770 Q 339 770 339 753 Q 338 699 300 643 L 270 602 Q 186 518 174 509 Q 135 482 115 465 Q 103 449 121 452 Q 178 452 291 550 L 328 588 Z"/>
  <path id="z29380d2" d="M 322 373 Q 331 217 297 106 Q 290 87 279 84 Q 263 80 220 90 Q 189 99 185 92 Q 182 86 193 74 Q 236 40 263 8 Q 282 -17 292 -16 Q 302 -17 322 6 Q 388 93 376 329 Q 367 485 328 588 L 300 643 Q 273 692 170 725 Q 154 729 153 718 Q 152 703 162 686 Q 175 668 193 668 Q 238 656 270 602 L 291 550 Q 304 510 312 463 L 322 373 Z"/>
  <path id="z29380d3" d="M 312 463 Q 243 313 82 178 Q 70 169 59 159 Q 47 146 56 145 Q 65 141 77 146 Q 200 198 311 357 Q 317 366 322 373 C 339 398 325 490 312 463 Z"/>
  <path id="z29380d4" d="M 436 491 Q 469 427 499 405 Q 514 398 527 410 Q 537 422 538 440 Q 535 485 458 529 Q 442 538 431 536 Q 424 536 424 523 Q 423 510 436 491 Z"/>
  <path id="z29380d5" d="M 797 572 Q 779 542 703 453 Q 691 434 711 437 Q 757 461 845 519 Q 867 538 895 549 Q 920 559 908 581 Q 893 600 863 618 Q 835 634 821 631 Q 806 630 811 614 Q 814 592 797 572 Z"/>
  <path id="z29380d6" d="M 644 386 Q 665 698 669 705 Q 669 709 682 742 Q 689 758 678 770 Q 653 791 610 802 Q 582 809 572 802 Q 562 795 571 780 Q 625 695 591 365 Q 564 226 498 159 Q 455 119 386 77 Q 373 68 372 63 Q 373 59 386 59 Q 402 55 442 71 Q 577 116 623 273 Q 630 304 638 339 L 644 386 Z"/>
  <path id="z29380d7" d="M 638 339 Q 764 59 811 51 Q 874 50 928 49 Q 950 48 952 53 Q 955 60 930 77 Q 795 165 739 245 Q 685 314 644 386 C 629 412 626 366 638 339 Z"/>
<defs>
  <clipPath id="z29380c1"><use href="#z29380d1"/></clipPath>
  <clipPath id="z29380c2"><use href="#z29380d2"/></clipPath>
  <clipPath id="z29380c3"><use href="#z29380d3"/></clipPath>
  <clipPath id="z29380c4"><use href="#z29380d4"/></clipPath>
  <clipPath id="z29380c5"><use href="#z29380d5"/></clipPath>
  <clipPath id="z29380c6"><use href="#z29380d6"/></clipPath>
  <clipPath id="z29380c7"><use href="#z29380d7"/></clipPath>
</defs>
<path style="--d:1s;" pathLength="3333" clip-path="url(#z29380c1)" d="M 352 756 L 366 738 L 376 709 L 309 608 L 267 561 L 208 511 L 172 485 L 125 462"/>
<path style="--d:2s;" pathLength="3333" clip-path="url(#z29380c2)" d="M 164 716 L 183 696 L 223 681 L 250 663 L 291 612 L 312 562 L 334 482 L 351 317 L 343 166 L 332 108 L 313 64 L 292 42 L 190 89"/>
<path style="--d:3s;" pathLength="3333" clip-path="url(#z29380c3)" d="M 311 455 L 295 379 L 254 319 L 177 235 L 123 189 L 62 151"/>
<path style="--d:4s;" pathLength="3333" clip-path="url(#z29380c4)" d="M 436 525 L 500 451 L 510 426"/>
<path style="--d:5s;" pathLength="3333" clip-path="url(#z29380c5)" d="M 820 620 L 841 596 L 849 575 L 776 502 L 706 445"/>
<path style="--d:6s;" pathLength="3333" clip-path="url(#z29380c6)" d="M 581 791 L 610 771 L 634 744 L 624 432 L 617 366 L 599 285 L 569 211 L 526 150 L 457 98 L 379 62"/>
<path style="--d:7s;" pathLength="3333" clip-path="url(#z29380c7)" d="M 645 378 L 657 331 L 683 284 L 755 173 L 809 109 L 823 97 L 947 55"/>
</svg>