<svg id="z22794" class="acjk" viewBox="0 0 1024 1024" xmlns="http://www.w3.org/2000/svg">
<style>
<![CDATA[
@keyframes zk {
	to {
		stroke-dashoffset:0;
	}
}
svg.acjk path[clip-path] {
	--t:0.8s;
	animation:zk var(--t) linear forwards var(--d);
	stroke-dasharray:3337;
	stroke-dashoffset:3339;
	stroke-width:128;
	stroke-linecap:round;
	stroke-linejoin:round;
	fill:none;
	stroke:#000;
}
svg.acjk path[id] {fill:#ccc;}
]]>
</style>
  <path id="z22794d1" d="M 443 570 Q 461 602 487 662 Q 514 722 527 739 Q 530 743 531 745 Q 536 758 514 778 Q 496 792 482 800 Q 461 808 443 799 Q 431 792 441 780 Q 455 762 452 743 Q 451 727 426 661 Q 398 582 365 529 L 343 499 Q 311 459 259 406 Q 249 392 259 388 Q 264 386 284 398 Q 319 419 344 441 L 372 468 L 394 495 L 418 527 L 419 529 L 443 570 Z"/>
  <path id="z22794d2" d="M 486 295 Q 463 261 441 236 Q 351 136 157 42 Q 141 35 149 27 Q 157 24 182 33 Q 312 74 396 125 Q 459 167 518 244 Q 519 245 519 246 L 550 288 Q 608 374 645 490 Q 658 534 690 561 Q 710 577 694 592 Q 633 637 588 615 Q 582 610 515 589 L 443 570 C 414 562 389 530 419 529 Q 427 527 439 527 Q 470 526 537 557 Q 578 574 585 572 Q 588 572 589 557 Q 564 439 525 359 L 512 335 L 486 295 Z"/>
  <path id="z22794d3" d="M 519 246 Q 583 153 655 59 Q 676 31 714 29 Q 860 14 910 14 Q 936 14 945 22 Q 949 32 935 37 L 811 78 Q 770 92 741 109 Q 664 153 550 288 L 512 335 L 394 495 L 365 529 Q 350 541 331 540 Q 314 540 308 533 Q 304 529 312 521 Q 329 512 343 499 L 372 468 Q 386 451 400 429 L 486 295 L 519 246 Z"/>
<defs>
  <clipPath id="z22794c1"><use href="#z22794d1"/></clipPath>
  <clipPath id="z22794c2"><use href="#z22794d2"/></clipPath>
  <clipPath id="z22794c3"><use href="#z22794d3"/></clipPath>
</defs>
<path style="--d:1s;" pathLength="3333" clip-path="url(#z22794c1)" d="M 447 789 L 470 779 L 489 750 L 440 620 L 398 538 L 360 486 L 318 441 L 262 396"/>
<path style="--d:2s;" pathLength="3333" clip-path="url(#z22794c2)" d="M 425 535 L 457 551 L 586 592 L 613 589 L 634 572 L 566 374 L 509 278 L 461 216 L 407 166 L 344 122 L 251 72 L 153 32"/>
<path style="--d:3s;" pathLength="3333" clip-path="url(#z22794c3)" d="M 316 529 L 344 522 L 386 479 L 553 242 L 694 84 L 788 52 L 938 26"/>
</svg>