<svg id="z27626" class="acjk" viewBox="0 0 1024 1024" xmlns="http://www.w3.org/2000/svg">
<style>
<![CDATA[
@keyframes zk {
	to {
		stroke-dashoffset:0;
	}
}
svg.acjk path[clip-path] {
	--t:0.8s;
	animation:zk var(--t) linear forwards var(--d);
	stroke-dasharray:3337;
	stroke-dashoffset:3339;
	stroke-width:128;
	stroke-linecap:round;
	stroke-linejoin:round;
	fill:none;
	stroke:#000;
}
svg.acjk path[id] {fill:#ccc;}
]]>
</style>
  <path id="z27626d1" d="M 276 616 Q 408 682 422 686 Q 438 689 442 697 Q 445 707 432 717 Q 410 730 364 743 Q 348 750 335 747 Q 328 743 329 731 Q 332 689 142 578 Q 136 575 132 572 Q 128 562 134 560 Q 152 560 239 600 Q 242 601 246 603 L 276 616 Z"/>
  <path id="z27626d2" d="M 310 478 Q 338 488 373 497 Q 407 507 413 513 Q 420 520 415 527 Q 408 536 385 540 Q 349 544 322 524 C 298 508 288 506 259 500 Q 258 501 256 500 Q 208 485 152 475 Q 124 468 145 456 Q 175 441 252 462 Q 253 463 257 463 L 310 478 Z"/>
  <path id="z27626d3" d="M 291 339 Q 348 358 420 375 Q 436 379 435 386 Q 435 399 417 405 Q 387 415 295 380 L 253 366 Q 142 333 69 317 Q 57 316 55 307 Q 54 297 68 288 Q 110 264 145 282 Q 206 310 252 326 L 291 339 Z"/>
  <path id="z27626d4" d="M 943 88 Q 924 122 908 182 Q 905 198 898 202 Q 889 206 887 186 Q 875 113 864 101 Q 800 38 555 52 Q 422 65 366 91 Q 308 127 299 196 Q 292 241 291 339 L 295 380 Q 299 438 310 478 L 322 524 Q 323 530 327 537 Q 340 567 321 585 Q 293 607 276 616 C 251 632 236 631 246 603 Q 246 602 248 598 Q 267 559 260 504 Q 259 503 259 500 L 257 463 Q 254 411 253 366 L 252 326 Q 249 193 261 153 Q 276 92 319 59 Q 412 -10 723 0 Q 867 7 923 36 Q 957 54 943 88 Z"/>
  <path id="z27626d5" d="M 749 642 Q 652 632 547 609 Q 537 605 534 609 Q 533 612 538 620 Q 632 729 651 747 Q 663 754 658 767 Q 654 779 611 802 Q 596 809 588 807 Q 575 803 580 783 Q 592 722 492 628 Q 476 616 454 602 Q 441 592 444 582 Q 448 566 470 547 Q 479 537 491 546 Q 539 579 740 617 Q 752 620 760 624 C 788 634 779 645 749 642 Z"/>
  <path id="z27626d6" d="M 760 624 Q 797 564 807 557 Q 814 556 821 562 Q 833 571 830 607 Q 827 649 724 709 Q 717 715 714 705 Q 711 696 749 642 L 760 624 Z"/>
  <path id="z27626d7" d="M 527 434 Q 537 453 548 469 Q 555 479 544 490 Q 511 514 489 510 Q 480 507 483 496 Q 495 438 446 372 Q 434 356 428 346 Q 422 333 434 338 Q 467 342 515 414 L 527 434 Z"/>
  <path id="z27626d8" d="M 663 421 Q 697 431 738 441 Q 768 450 772 454 Q 779 461 775 469 Q 768 479 741 485 Q 714 489 665 468 L 610 450 Q 570 441 527 434 C 497 429 487 424 515 414 Q 563 396 610 408 L 663 421 Z"/>
  <path id="z27626d9" d="M 660 287 Q 729 297 827 300 Q 882 300 889 311 Q 895 324 876 337 Q 815 377 754 357 Q 714 348 660 335 L 609 324 Q 605 325 603 324 Q 503 305 384 284 Q 362 280 379 263 Q 413 235 461 249 Q 527 270 601 279 Q 602 280 609 280 L 660 287 Z"/>
  <path id="z27626d10" d="M 612 99 Q 616 75 623 67 Q 627 60 635 62 Q 659 81 660 287 L 660 335 Q 661 372 663 421 L 665 468 Q 665 481 668 490 Q 675 535 663 544 Q 633 563 620 566 Q 608 570 594 563 Q 587 556 592 546 Q 610 516 610 450 L 610 408 Q 610 369 609 324 L 609 280 Q 609 123 612 99 Z"/>
<defs>
  <clipPath id="z27626c1"><use href="#z27626d1"/></clipPath>
  <clipPath id="z27626c2"><use href="#z27626d2"/></clipPath>
  <clipPath id="z27626c3"><use href="#z27626d3"/></clipPath>
  <clipPath id="z27626c4"><use href="#z27626d4"/></clipPath>
  <clipPath id="z27626c5"><use href="#z27626d5"/></clipPath>
  <clipPath id="z27626c6"><use href="#z27626d6"/></clipPath>
  <clipPath id="z27626c7"><use href="#z27626d7"/></clipPath>
  <clipPath id="z27626c8"><use href="#z27626d8"/></clipPath>
  <clipPath id="z27626c9"><use href="#z27626d9"/></clipPath>
  <clipPath id="z27626c10"><use href="#z27626d10"/></clipPath>
</defs>
<path style="--d:1s;" pathLength="3333" clip-path="url(#z27626c1)" d="M 431 701 L 363 703 L 277 639 L 136 567"/>
<path style="--d:2s;" pathLength="3333" clip-path="url(#z27626c2)" d="M 147 466 L 218 470 L 366 519 L 405 521"/>
<path style="--d:3s;" pathLength="3333" clip-path="url(#z27626c3)" d="M 66 305 L 99 299 L 129 303 L 312 368 L 382 386 L 424 388"/>
<path style="--d:4s;" pathLength="3333" clip-path="url(#z27626c4)" d="M 252 603 L 278 588 L 296 555 L 280 451 L 270 314 L 279 179 L 297 124 L 321 92 L 351 69 L 422 45 L 527 28 L 665 23 L 808 37 L 865 55 L 900 74 L 896 194"/>
<path style="--d:5s;" pathLength="3333" clip-path="url(#z27626c5)" d="M 593 794 L 615 760 L 609 746 L 564 676 L 515 622 L 503 592 L 531 587 L 713 626 L 754 626"/>
<path style="--d:6s;" pathLength="3333" clip-path="url(#z27626c6)" d="M 721 703 L 794 622 L 807 596 L 812 566"/>
<path style="--d:7s;" pathLength="3333" clip-path="url(#z27626c7)" d="M 495 499 L 515 473 L 505 441 L 483 396 L 437 346"/>
<path style="--d:8s;" pathLength="3333" clip-path="url(#z27626c8)" d="M 524 415 L 535 422 L 585 423 L 713 460 L 764 463"/>
<path style="--d:9s;" pathLength="3333" clip-path="url(#z27626c9)" d="M 382 273 L 436 268 L 571 297 L 781 330 L 829 329 L 879 317"/>
<path style="--d:10s;" pathLength="3333" clip-path="url(#z27626c10)" d="M 603 553 L 631 528 L 639 504 L 631 69"/>
</svg>