<svg id="z25962" class="acjk" viewBox="0 0 1024 1024" xmlns="http://www.w3.org/2000/svg">
<style>
<![CDATA[
@keyframes zk {
	to {
		stroke-dashoffset:0;
	}
}
svg.acjk path[clip-path] {
	--t:0.8s;
	animation:zk var(--t) linear forwards var(--d);
	stroke-dasharray:3337;
	stroke-dashoffset:3339;
	stroke-width:128;
	stroke-linecap:round;
	stroke-linejoin:round;
	fill:none;
	stroke:#000;
}
svg.acjk path[id] {fill:#ccc;}
]]>
</style>
  <path id="z25962d1" d="M 150 437 Q 114 406 69 383 Q 62 380 63 376 Q 63 372 69 373 Q 88 374 128 390 Q 153 400 181 420 Q 211 442 239 478 L 266 518 Q 282 546 301 583 Q 313 605 332 619 Q 344 626 344 633 Q 343 643 321 655 Q 293 671 282 672 Q 273 671 265 665 Q 252 658 212 646 Q 172 634 159 633 Q 131 633 128 626 Q 127 623 133 620 Q 143 610 168 607 Q 192 608 234 627 Q 252 633 259 628 Q 265 624 250 582 Q 243 560 230 537 L 209 503 Q 184 467 150 437 Z"/>
  <path id="z25962d2" d="M 239 478 Q 254 465 271 450 Q 283 437 294 435 Q 300 435 304 442 Q 311 452 300 481 Q 296 497 282 507 Q 275 513 266 518 L 230 537 Q 226 538 221 541 Q 172 563 145 572 Q 139 575 138 566 Q 139 557 147 551 Q 175 530 209 503 L 239 478 Z"/>
  <path id="z25962d3" d="M 480 544 Q 499 578 517 623 Q 529 645 548 661 Q 560 668 559 675 Q 558 685 535 697 Q 507 713 495 713 Q 485 712 478 706 Q 465 700 426 688 Q 386 678 375 676 Q 347 677 345 670 Q 344 667 349 664 Q 359 654 384 651 Q 406 651 446 668 Q 465 677 474 671 Q 480 667 466 619 Q 459 591 443 560 L 425 529 Q 407 502 384 479 Q 353 448 312 424 Q 305 420 307 416 Q 308 412 313 413 Q 332 416 371 434 Q 393 446 417 466 Q 436 482 455 506 L 480 544 Z"/>
  <path id="z25962d4" d="M 443 560 Q 391 585 361 596 Q 354 599 354 590 Q 355 581 363 575 Q 393 556 425 529 L 455 506 Q 482 487 510 461 Q 523 448 534 447 Q 540 446 544 454 Q 551 464 540 493 Q 534 509 521 518 Q 506 531 480 544 L 443 560 Z"/>
  <path id="z25962d5" d="M 155 130 Q 119 90 48 46 Q 38 40 44 36 Q 48 35 67 41 Q 127 63 165 90 Q 193 112 221 153 L 246 196 Q 265 233 279 282 Q 286 315 308 337 Q 321 350 308 361 Q 290 371 268 375 Q 247 382 229 369 Q 213 362 185 350 Q 154 340 122 333 Q 109 333 105 328 Q 104 319 121 309 Q 143 297 190 317 Q 224 336 228 337 Q 237 337 237 324 Q 227 260 209 217 L 192 182 Q 176 155 155 130 Z"/>
  <path id="z25962d6" d="M 221 153 Q 234 140 251 124 Q 263 111 273 108 Q 280 107 285 114 Q 292 124 283 153 Q 279 169 267 180 Q 260 187 246 196 L 209 217 L 207 219 Q 161 244 134 255 Q 127 259 126 250 Q 126 241 133 234 Q 161 212 192 182 L 221 153 Z"/>
  <path id="z25962d7" d="M 472 201 Q 493 244 511 305 Q 520 330 534 347 Q 549 362 537 372 Q 525 382 497 389 Q 476 393 455 379 Q 436 369 409 359 Q 382 349 337 341 Q 327 340 323 334 Q 320 328 335 324 Q 363 314 401 328 Q 435 344 443 345 Q 465 341 457 317 Q 448 265 433 226 L 415 190 Q 402 168 386 152 Q 353 124 314 107 Q 302 101 314 96 Q 318 92 343 94 Q 374 98 412 126 Q 430 139 447 160 L 472 201 Z"/>
  <path id="z25962d8" d="M 433 226 Q 375 260 342 276 Q 335 279 334 270 Q 334 260 342 253 Q 376 225 415 190 L 447 160 Q 475 135 506 104 Q 518 91 529 87 Q 535 87 541 94 Q 548 104 539 135 Q 535 151 522 164 Q 506 180 472 201 L 433 226 Z"/>
  <path id="z25962d9" d="M 654 579 Q 627 512 589 435 Q 582 423 580 417 Q 579 405 592 411 Q 602 415 623 441 Q 630 451 638 462 L 656 489 Q 666 508 680 530 Q 714 585 746 668 Q 759 705 773 725 Q 780 737 773 749 Q 766 761 734 778 Q 706 791 687 787 Q 668 781 681 761 Q 697 742 692 719 Q 680 649 654 579 Z"/>
  <path id="z25962d10" d="M 638 462 L 639 462 Q 646 461 658 458 Q 671 457 692 460 Q 704 463 716 464 L 755 472 Q 776 478 796 482 Q 851 492 906 503 Q 919 504 919 512 Q 919 524 896 537 Q 886 543 874 547 Q 853 553 834 544 Q 776 519 732 508 Q 693 501 656 489 C 627 480 608 467 638 462 Z"/>
  <path id="z25962d11" d="M 716 464 Q 716 461 719 455 Q 731 433 729 409 Q 729 393 728 372 Q 727 318 705 253 Q 704 250 702 247 L 683 203 Q 670 181 655 158 Q 630 124 584 88 Q 574 81 559 70 Q 543 60 528 48 Q 515 38 527 36 Q 540 35 576 48 Q 624 67 660 100 Q 694 128 714 159 L 740 205 Q 765 251 775 307 Q 781 335 788 364 Q 792 394 806 419 Q 816 437 799 446 Q 783 459 768 466 Q 761 470 755 472 C 728 485 705 492 716 464 Z"/>
  <path id="z25962d12" d="M 702 247 Q 665 290 621 344 Q 611 360 594 363 Q 570 364 563 357 Q 560 353 568 347 Q 602 326 622 292 Q 653 246 683 203 L 714 159 Q 760 95 803 42 Q 818 23 843 22 Q 936 23 972 29 Q 988 30 994 38 Q 998 45 988 49 Q 945 67 906 85 Q 881 95 847 117 Q 829 127 805 147 Q 775 172 740 205 L 702 247 Z"/>
<defs>
  <clipPath id="z25962c1"><use href="#z25962d1"/></clipPath>
  <clipPath id="z25962c2"><use href="#z25962d2"/></clipPath>
  <clipPath id="z25962c3"><use href="#z25962d3"/></clipPath>
  <clipPath id="z25962c4"><use href="#z25962d4"/></clipPath>
  <clipPath id="z25962c5"><use href="#z25962d5"/></clipPath>
  <clipPath id="z25962c6"><use href="#z25962d6"/></clipPath>
  <clipPath id="z25962c7"><use href="#z25962d7"/></clipPath>
  <clipPath id="z25962c8"><use href="#z25962d8"/></clipPath>
  <clipPath id="z25962c9"><use href="#z25962d9"/></clipPath>
  <clipPath id="z25962c10"><use href="#z25962d10"/></clipPath>
  <clipPath id="z25962c11"><use href="#z25962d11"/></clipPath>
  <clipPath id="z25962c12"><use href="#z25962d12"/></clipPath>
</defs>
<path style="--d:1s;" pathLength="3333" clip-path="url(#z25962c1)" d="M 134 626 L 181 622 L 258 645 L 282 643 L 294 631 L 258 545 L 211 473 L 141 411 L 99 387 L 68 378"/>
<path style="--d:2s;" pathLength="3333" clip-path="url(#z25962c2)" d="M 146 564 L 257 495 L 276 479 L 293 448"/>
<path style="--d:3s;" pathLength="3333" clip-path="url(#z25962c3)" d="M 351 670 L 397 666 L 481 688 L 496 686 L 510 671 L 477 583 L 428 501 L 358 438 L 312 418"/>
<path style="--d:4s;" pathLength="3333" clip-path="url(#z25962c4)" d="M 362 588 L 502 502 L 532 460"/>
<path style="--d:5s;" pathLength="3333" clip-path="url(#z25962c5)" d="M 111 325 L 148 321 L 193 334 L 229 353 L 252 350 L 267 341 L 241 237 L 201 157 L 140 92 L 47 40"/>
<path style="--d:6s;" pathLength="3333" clip-path="url(#z25962c6)" d="M 133 247 L 238 172 L 266 140 L 274 122"/>
<path style="--d:7s;" pathLength="3333" clip-path="url(#z25962c7)" d="M 332 333 L 390 338 L 445 359 L 475 359 L 492 352 L 465 243 L 432 176 L 395 135 L 358 112 L 320 102"/>
<path style="--d:8s;" pathLength="3333" clip-path="url(#z25962c8)" d="M 343 267 L 491 156 L 514 132 L 529 101"/>
<path style="--d:9s;" pathLength="3333" clip-path="url(#z25962c9)" d="M 690 773 L 716 757 L 732 734 L 720 688 L 677 570 L 608 441 L 588 418"/>
<path style="--d:10s;" pathLength="3333" clip-path="url(#z25962c10)" d="M 644 465 L 856 522 L 909 513"/>
<path style="--d:11s;" pathLength="3333" clip-path="url(#z25962c11)" d="M 723 461 L 752 444 L 766 424 L 741 276 L 721 223 L 664 132 L 611 86 L 531 42"/>
<path style="--d:12s;" pathLength="3333" clip-path="url(#z25962c12)" d="M 571 355 L 595 347 L 616 328 L 740 168 L 839 69 L 905 52 L 986 41"/>
</svg>