<svg id="z29100" class="acjk" viewBox="0 0 1024 1024" xmlns="http://www.w3.org/2000/svg">
<style>
<![CDATA[
@keyframes zk {
	to {
		stroke-dashoffset:0;
	}
}
svg.acjk path[clip-path] {
	--t:0.8s;
	animation:zk var(--t) linear forwards var(--d);
	stroke-dasharray:3337;
	stroke-dashoffset:3339;
	stroke-width:128;
	stroke-linecap:round;
	stroke-linejoin:round;
	fill:none;
	stroke:#000;
}
svg.acjk path[id] {fill:#ccc;}
]]>
</style>
  <path id="z29100d1" d="M 420 636 Q 525 661 531 665 Q 538 672 534 679 Q 528 688 505 694 Q 481 698 423 677 L 376 664 Q 283 646 247 642 Q 217 638 238 623 Q 274 604 317 615 Q 345 622 376 626 L 420 636 Z"/>
  <path id="z29100d2" d="M 412 540 Q 454 540 511 559 Q 514 562 518 567 Q 519 576 500 584 Q 473 597 415 579 L 374 566 Q 368 566 234 539 Q 212 535 230 522 Q 257 503 280 509 Q 320 521 373 531 L 412 540 Z"/>
  <path id="z29100d3" d="M 407 479 Q 408 510 412 540 L 415 579 Q 416 607 420 636 L 423 677 Q 429 731 440 766 Q 443 775 426 788 Q 396 804 376 808 Q 363 811 356 804 Q 349 797 356 785 Q 375 757 375 739 Q 376 703 376 664 L 376 626 Q 375 598 374 566 L 373 531 Q 372 503 371 470 C 370 440 406 449 407 479 Z"/>
  <path id="z29100d4" d="M 357 431 Q 415 447 488 459 Q 501 460 502 468 Q 503 478 487 486 Q 457 498 407 479 L 371 470 Q 221 431 150 421 Q 140 420 137 413 Q 136 404 148 395 Q 184 374 232 391 Q 280 409 320 420 L 357 431 Z"/>
  <path id="z29100d5" d="M 368 373 Q 369 372 373 368 Q 377 367 395 364 Q 417 360 424 347 Q 433 329 403 274 Q 391 256 383 256 Q 374 253 348 264 Q 318 283 314 278 Q 308 271 322 259 Q 344 232 350 197 Q 353 184 362 177 Q 372 171 403 186 Q 445 213 465 279 Q 471 310 488 322 Q 498 326 499 333 Q 500 340 482 363 Q 455 390 405 391 Q 396 392 386 395 C 357 402 343 389 368 373 Z"/>
  <path id="z29100d6" d="M 386 395 Q 387 402 382 410 Q 370 422 357 431 C 333 449 324 450 320 420 Q 311 330 200 240 Q 193 240 150 202 Q 141 190 154 192 Q 172 193 197 208 Q 276 254 324 318 Q 346 348 368 373 C 386 394 386 394 386 395 Z"/>
  <path id="z29100d7" d="M 602 565 Q 606 577 614 588 Q 642 640 668 717 Q 678 751 691 770 Q 695 780 690 791 Q 683 801 656 814 Q 631 824 615 820 Q 599 814 611 798 Q 636 765 591 631 Q 569 570 536 499 Q 529 489 529 483 Q 528 473 539 478 Q 555 487 593 549 L 602 565 Z"/>
  <path id="z29100d8" d="M 708 545 Q 829 584 834 587 Q 841 597 837 604 Q 828 616 797 620 Q 766 621 737 607 Q 710 595 681 585 Q 648 575 609 567 Q 605 567 602 565 C 580 559 580 559 593 549 Q 612 530 672 534 L 708 545 Z"/>
  <path id="z29100d9" d="M 687 343 Q 699 365 729 453 Q 735 475 747 495 Q 757 510 743 519 Q 722 540 708 545 C 681 559 664 563 672 534 Q 681 510 675 467 Q 671 427 651 377 L 634 343 Q 583 267 497 222 Q 485 215 496 211 Q 542 207 609 254 Q 643 276 663 305 Q 663 306 664 306 L 687 343 Z"/>
  <path id="z29100d10" d="M 664 306 Q 704 260 772 199 Q 796 180 832 188 Q 878 197 913 203 Q 925 204 935 210 Q 941 216 931 223 Q 918 230 818 263 Q 758 284 687 343 L 651 377 Q 629 399 604 426 Q 588 445 562 448 Q 552 449 544 444 Q 540 437 548 431 Q 554 427 560 423 Q 581 411 634 343 L 664 306 Z"/>
  <path id="z29100d11" d="M 206 162 Q 185 105 155 54 Q 133 20 156 -15 Q 165 -34 186 -19 Q 235 21 236 103 Q 240 137 231 163 Q 225 172 219 172 Q 210 171 206 162 Z"/>
  <path id="z29100d12" d="M 385 86 Q 398 61 412 31 Q 419 15 434 10 Q 444 7 453 17 Q 462 29 464 59 Q 464 87 396 131 Q 383 138 377 139 Q 371 138 368 125 Q 368 113 385 86 Z"/>
  <path id="z29100d13" d="M 564 92 Q 580 68 598 41 Q 608 26 623 23 Q 633 22 641 33 Q 648 46 646 76 Q 643 100 569 138 Q 556 144 548 143 Q 544 140 542 128 Q 543 116 564 92 Z"/>
  <path id="z29100d14" d="M 728 133 Q 777 81 835 4 Q 851 -20 867 -25 Q 876 -28 885 -17 Q 900 -4 890 45 Q 887 70 870 90 Q 851 106 808 130 Q 759 155 732 167 Q 722 174 719 160 Q 718 145 728 133 Z"/>
<defs>
  <clipPath id="z29100c1"><use href="#z29100d1"/></clipPath>
  <clipPath id="z29100c2"><use href="#z29100d2"/></clipPath>
  <clipPath id="z29100c3"><use href="#z29100d3"/></clipPath>
  <clipPath id="z29100c4"><use href="#z29100d4"/></clipPath>
  <clipPath id="z29100c5"><use href="#z29100d5"/></clipPath>
  <clipPath id="z29100c6"><use href="#z29100d6"/></clipPath>
  <clipPath id="z29100c7"><use href="#z29100d7"/></clipPath>
  <clipPath id="z29100c8"><use href="#z29100d8"/></clipPath>
  <clipPath id="z29100c9"><use href="#z29100d9"/></clipPath>
  <clipPath id="z29100c10"><use href="#z29100d10"/></clipPath>
  <clipPath id="z29100c11"><use href="#z29100d11"/></clipPath>
  <clipPath id="z29100c12"><use href="#z29100d12"/></clipPath>
  <clipPath id="z29100c13"><use href="#z29100d13"/></clipPath>
  <clipPath id="z29100c14"><use href="#z29100d14"/></clipPath>
</defs>
<path style="--d:1s;" pathLength="3333" clip-path="url(#z29100c1)" d="M 240 634 L 249 629 L 291 629 L 428 656 L 492 675 L 525 674"/>
<path style="--d:2s;" pathLength="3333" clip-path="url(#z29100c2)" d="M 231 531 L 265 526 L 460 568 L 509 568"/>
<path style="--d:3s;" pathLength="3333" clip-path="url(#z29100c3)" d="M 366 795 L 394 774 L 405 755 L 391 503 L 386 487 L 375 478"/>
<path style="--d:4s;" pathLength="3333" clip-path="url(#z29100c4)" d="M 147 411 L 172 405 L 204 407 L 421 466 L 469 473 L 492 470"/>
<path style="--d:5s;" pathLength="3333" clip-path="url(#z29100c5)" d="M 376 376 L 426 372 L 446 359 L 459 340 L 430 264 L 415 239 L 384 218 L 317 273"/>
<path style="--d:6s;" pathLength="3333" clip-path="url(#z29100c6)" d="M 354 418 L 350 397 L 313 335 L 269 280 L 224 240 L 159 200"/>
<path style="--d:7s;" pathLength="3333" clip-path="url(#z29100c7)" d="M 618 808 L 641 794 L 654 776 L 641 717 L 612 627 L 566 528 L 536 485"/>
<path style="--d:8s;" pathLength="3333" clip-path="url(#z29100c8)" d="M 600 550 L 662 555 L 790 597 L 829 595"/>
<path style="--d:9s;" pathLength="3333" clip-path="url(#z29100c9)" d="M 680 531 L 707 512 L 712 502 L 695 431 L 657 336 L 625 293 L 591 263 L 549 235 L 502 216"/>
<path style="--d:10s;" pathLength="3333" clip-path="url(#z29100c10)" d="M 551 439 L 568 435 L 590 418 L 703 299 L 790 233 L 809 225 L 927 215"/>
<path style="--d:11s;" pathLength="3333" clip-path="url(#z29100c11)" d="M 219 160 L 209 95 L 178 20 L 172 -9"/>
<path style="--d:12s;" pathLength="3333" clip-path="url(#z29100c12)" d="M 379 131 L 426 71 L 438 27"/>
<path style="--d:13s;" pathLength="3333" clip-path="url(#z29100c13)" d="M 552 136 L 613 74 L 624 43"/>
<path style="--d:14s;" pathLength="3333" clip-path="url(#z29100c14)" d="M 731 154 L 842 61 L 871 -9"/>
</svg>