<svg id="z27231" class="acjk" viewBox="0 0 1024 1024" xmlns="http://www.w3.org/2000/svg">
<style>
<![CDATA[
@keyframes zk {
	to {
		stroke-dashoffset:0;
	}
}
svg.acjk path[clip-path] {
	--t:0.8s;
	animation:zk var(--t) linear forwards var(--d);
	stroke-dasharray:3337;
	stroke-dashoffset:3339;
	stroke-width:128;
	stroke-linecap:round;
	stroke-linejoin:round;
	fill:none;
	stroke:#000;
}
svg.acjk path[id] {fill:#ccc;}
]]>
</style>
  <path id="z27231d1" d="M 307 499 Q 376 524 377 525 Q 384 532 380 541 Q 373 551 343 556 Q 324 557 308 553 L 268 537 Q 168 504 126 497 Q 92 488 118 474 Q 161 455 213 472 Q 229 478 251 483 L 307 499 Z"/>
  <path id="z27231d2" d="M 263 390 Q 260 207 248 148 Q 226 66 243 20 Q 244 13 249 5 Q 256 -11 263 -15 Q 269 -21 276 -14 Q 283 -10 293 10 Q 303 34 302 63 Q 301 105 305 423 L 306 452 Q 306 476 307 499 L 308 553 Q 308 661 328 733 Q 337 746 334 760 Q 327 769 275 801 Q 253 817 234 803 Q 230 799 235 783 Q 266 737 267 688 Q 268 618 268 537 L 263 390 Z"/>
  <path id="z27231d3" d="M 251 483 Q 206 342 70 144 Q 66 134 76 134 Q 97 134 192 262 Q 229 316 263 390 C 321 514 260 511 251 483 Z"/>
  <path id="z27231d4" d="M 305 423 Q 360 375 368 376 Q 375 376 378 385 Q 381 394 375 413 Q 368 435 306 452 C 277 460 282 443 305 423 Z"/>
  <path id="z27231d5" d="M 514 514 Q 487 515 465 514 Q 437 513 450 530 Q 486 600 520 653 Q 530 666 527 672 Q 524 682 494 702 Q 482 711 469 707 Q 462 704 466 693 Q 487 659 422 538 Q 413 529 404 517 Q 392 507 393 498 Q 397 485 408 472 Q 415 465 425 470 Q 440 480 492 494 Q 498 495 504 495 C 534 497 544 513 514 514 Z"/>
  <path id="z27231d6" d="M 552 411 Q 515 404 472 388 Q 456 382 466 396 Q 530 487 581 533 Q 590 540 585 547 Q 578 560 554 575 Q 542 582 535 579 Q 528 578 529 566 Q 529 554 514 514 L 504 495 Q 443 393 410 376 Q 400 369 403 359 Q 404 349 423 336 Q 430 327 442 336 Q 491 375 559 398 C 587 408 581 417 552 411 Z"/>
  <path id="z27231d7" d="M 559 398 Q 575 374 589 369 Q 599 366 607 379 Q 610 389 606 405 Q 602 421 584 432 Q 559 451 546 457 Q 539 460 536 451 Q 535 445 552 411 L 559 398 Z"/>
  <path id="z27231d8" d="M 787 591 Q 760 592 739 591 Q 711 590 724 608 Q 758 671 793 719 Q 803 732 800 738 Q 797 748 766 771 Q 753 780 739 776 Q 730 773 736 762 Q 748 734 706 637 Q 697 616 676 595 Q 663 583 664 574 Q 668 561 680 547 Q 687 540 697 545 Q 718 561 773 571 C 802 577 817 590 787 591 Z"/>
  <path id="z27231d9" d="M 833 498 Q 794 492 753 481 Q 731 474 746 492 Q 833 600 872 630 Q 882 637 878 645 Q 871 661 845 676 Q 833 683 826 682 Q 819 679 819 667 Q 820 649 787 591 L 773 571 Q 704 481 685 474 Q 675 467 676 456 Q 677 446 696 430 Q 705 420 716 429 Q 771 465 844 483 C 873 491 863 503 833 498 Z"/>
  <path id="z27231d10" d="M 844 483 Q 868 449 877 446 Q 884 445 890 453 Q 894 462 894 483 Q 891 507 834 534 Q 825 538 820 538 Q 816 537 815 527 Q 816 515 833 498 L 844 483 Z"/>
  <path id="z27231d11" d="M 700 319 Q 764 335 819 346 Q 829 346 835 357 Q 835 367 815 375 Q 779 393 694 354 Q 691 354 689 352 L 652 340 Q 643 339 636 335 Q 570 314 385 273 Q 361 267 381 255 Q 411 234 438 244 Q 462 253 491 260 L 525 270 Q 586 289 662 309 L 700 319 Z"/>
  <path id="z27231d12" d="M 491 260 Q 500 184 372 41 Q 366 37 374 35 Q 446 56 531 198 L 542 217 Q 542 218 553 234 Q 557 238 556 246 Q 555 253 544 261 Q 535 268 525 270 C 496 279 490 282 491 260 Z"/>
  <path id="z27231d13" d="M 531 198 Q 535 192 545 184 Q 570 162 599 133 Q 608 124 618 124 Q 625 124 630 133 Q 633 143 628 163 Q 622 187 543 217 L 542 217 C 513 225 513 222 531 198 Z"/>
  <path id="z27231d14" d="M 748 114 Q 841 -37 941 -70 Q 947 -70 954 -71 Q 973 -67 967 -38 Q 960 5 956 131 Q 955 153 946 154 Q 945 154 912 75 Q 897 36 867 57 Q 858 63 849 70 Q 815 104 784 147 L 761 183 Q 731 229 700 319 L 689 352 Q 611 629 630 789 Q 642 829 588 849 Q 554 864 535 856 Q 516 849 525 831 Q 570 791 571 759 Q 610 465 652 340 L 662 309 Q 692 218 728 150 L 748 114 Z"/>
  <path id="z27231d15" d="M 728 150 Q 704 126 591 47 Q 581 34 595 36 Q 640 33 748 114 L 784 147 Q 832 196 880 246 Q 892 255 882 271 Q 851 310 827 312 Q 817 312 815 298 Q 809 241 761 183 L 728 150 Z"/>
  <path id="z27231d16" d="M 861 385 Q 901 331 927 318 Q 939 315 948 325 Q 954 335 953 349 Q 947 380 875 416 Q 862 420 854 419 Q 848 418 849 408 Q 850 398 861 385 Z"/>
<defs>
  <clipPath id="z27231c1"><use href="#z27231d1"/></clipPath>
  <clipPath id="z27231c2"><use href="#z27231d2"/></clipPath>
  <clipPath id="z27231c3"><use href="#z27231d3"/></clipPath>
  <clipPath id="z27231c4"><use href="#z27231d4"/></clipPath>
  <clipPath id="z27231c5"><use href="#z27231d5"/></clipPath>
  <clipPath id="z27231c6"><use href="#z27231d6"/></clipPath>
  <clipPath id="z27231c7"><use href="#z27231d7"/></clipPath>
  <clipPath id="z27231c8"><use href="#z27231d8"/></clipPath>
  <clipPath id="z27231c9"><use href="#z27231d9"/></clipPath>
  <clipPath id="z27231c10"><use href="#z27231d10"/></clipPath>
  <clipPath id="z27231c11"><use href="#z27231d11"/></clipPath>
  <clipPath id="z27231c12"><use href="#z27231d12"/></clipPath>
  <clipPath id="z27231c13"><use href="#z27231d13"/></clipPath>
  <clipPath id="z27231c14"><use href="#z27231d14"/></clipPath>
  <clipPath id="z27231c15"><use href="#z27231d15"/></clipPath>
  <clipPath id="z27231c16"><use href="#z27231d16"/></clipPath>
</defs>
<path style="--d:1s;" pathLength="3333" clip-path="url(#z27231c1)" d="M 119 486 L 168 485 L 318 530 L 348 536 L 372 533"/>
<path style="--d:2s;" pathLength="3333" clip-path="url(#z27231c2)" d="M 245 797 L 294 746 L 284 309 L 268 74 L 269 -2"/>
<path style="--d:3s;" pathLength="3333" clip-path="url(#z27231c3)" d="M 260 481 L 240 392 L 207 325 L 155 239 L 77 141"/>
<path style="--d:4s;" pathLength="3333" clip-path="url(#z27231c4)" d="M 316 444 L 321 430 L 352 411 L 368 386"/>
<path style="--d:5s;" pathLength="3333" clip-path="url(#z27231c5)" d="M 476 698 L 498 667 L 426 509 L 428 500 L 443 498 L 498 504 L 507 511"/>
<path style="--d:6s;" pathLength="3333" clip-path="url(#z27231c6)" d="M 540 569 L 552 543 L 503 465 L 454 402 L 450 374 L 477 375 L 509 391 L 549 401"/>
<path style="--d:7s;" pathLength="3333" clip-path="url(#z27231c7)" d="M 544 449 L 584 402 L 592 384"/>
<path style="--d:8s;" pathLength="3333" clip-path="url(#z27231c8)" d="M 746 767 L 762 748 L 766 730 L 709 614 L 699 578 L 762 579 L 780 588"/>
<path style="--d:9s;" pathLength="3333" clip-path="url(#z27231c9)" d="M 829 674 L 843 642 L 794 571 L 737 505 L 728 491 L 726 469 L 756 466 L 828 489 L 836 483"/>
<path style="--d:10s;" pathLength="3333" clip-path="url(#z27231c10)" d="M 825 529 L 870 485 L 880 456"/>
<path style="--d:11s;" pathLength="3333" clip-path="url(#z27231c11)" d="M 381 264 L 427 262 L 633 316 L 748 353 L 787 361 L 825 358"/>
<path style="--d:12s;" pathLength="3333" clip-path="url(#z27231c12)" d="M 498 256 L 520 238 L 497 182 L 439 96 L 395 52 L 380 50 L 378 40"/>
<path style="--d:13s;" pathLength="3333" clip-path="url(#z27231c13)" d="M 543 210 L 600 164 L 616 139"/>
<path style="--d:14s;" pathLength="3333" clip-path="url(#z27231c14)" d="M 538 840 L 570 826 L 596 802 L 612 612 L 654 403 L 700 260 L 765 131 L 830 47 L 879 11 L 911 3 L 929 40 L 949 151"/>
<path style="--d:15s;" pathLength="3333" clip-path="url(#z27231c15)" d="M 828 299 L 844 260 L 775 167 L 693 96 L 637 60 L 599 44"/>
<path style="--d:16s;" pathLength="3333" clip-path="url(#z27231c16)" d="M 858 410 L 914 362 L 932 337"/>
</svg>