<svg id="z27654" class="acjk" viewBox="0 0 1024 1024" xmlns="http://www.w3.org/2000/svg">
<style>
<![CDATA[
@keyframes zk {
	to {
		stroke-dashoffset:0;
	}
}
svg.acjk path[clip-path] {
	--t:0.8s;
	animation:zk var(--t) linear forwards var(--d);
	stroke-dasharray:3337;
	stroke-dashoffset:3339;
	stroke-width:128;
	stroke-linecap:round;
	stroke-linejoin:round;
	fill:none;
	stroke:#000;
}
svg.acjk path[id] {fill:#ccc;}
]]>
</style>
  <path id="z27654d1" d="M 285 596 Q 388 659 421 670 Q 437 674 440 682 Q 441 692 429 702 Q 360 736 331 726 Q 324 722 325 711 Q 326 663 119 532 Q 115 522 122 520 Q 168 535 233 570 Q 237 573 244 575 L 285 596 Z"/>
  <path id="z27654d2" d="M 306 432 Q 414 468 417 470 Q 424 477 420 486 Q 413 496 385 500 Q 349 503 315 483 L 253 459 Q 246 458 240 455 Q 188 439 125 427 Q 92 418 118 405 Q 158 386 207 403 Q 229 410 252 415 L 306 432 Z"/>
  <path id="z27654d3" d="M 295 298 Q 349 317 419 333 Q 435 337 436 344 Q 436 357 416 365 Q 388 375 364 367 Q 327 355 296 343 L 249 328 Q 120 289 57 277 Q 44 274 42 266 Q 41 254 57 244 Q 102 220 141 238 Q 204 266 249 283 L 295 298 Z"/>
  <path id="z27654d4" d="M 940 86 Q 922 126 908 195 Q 907 213 898 218 Q 889 224 885 201 Q 866 119 853 105 Q 795 45 554 53 Q 424 63 370 89 Q 322 117 313 149 Q 297 192 295 298 L 296 343 Q 299 392 306 432 L 315 483 Q 319 505 327 520 Q 340 553 320 572 Q 301 587 285 596 C 260 613 236 604 244 575 Q 262 535 253 459 L 252 415 Q 251 369 249 328 L 249 283 Q 249 181 260 147 Q 276 87 319 54 Q 412 -16 720 -3 Q 862 4 918 33 Q 952 49 940 86 Z"/>
  <path id="z27654d5" d="M 515 721 Q 531 703 548 682 Q 558 672 571 670 Q 580 670 585 681 Q 589 693 585 717 Q 579 739 514 760 Q 501 764 496 763 Q 492 760 492 749 Q 493 740 515 721 Z"/>
  <path id="z27654d6" d="M 693 769 Q 687 757 638 685 Q 629 669 644 673 Q 662 685 731 732 Q 747 747 767 757 Q 786 766 775 781 Q 763 796 740 807 Q 718 817 708 815 Q 696 814 701 801 Q 705 785 693 769 Z"/>
  <path id="z27654d7" d="M 668 611 Q 780 633 791 641 Q 798 648 794 655 Q 788 664 765 670 Q 741 674 717 666 Q 669 650 618 637 Q 561 624 495 618 Q 465 614 486 599 Q 513 584 546 587 L 580 592 Q 608 599 638 604 L 668 611 Z"/>
  <path id="z27654d8" d="M 546 587 Q 549 577 556 433 C 557 403 587 408 588 438 Q 592 582 593 582 L 592 583 Q 586 589 580 592 C 554 607 541 615 546 587 Z"/>
  <path id="z27654d9" d="M 674 452 Q 680 551 687 574 Q 693 587 686 594 Q 677 604 668 611 C 645 630 629 633 638 604 Q 644 598 641 446 C 640 416 672 422 674 452 Z"/>
  <path id="z27654d10" d="M 460 520 Q 481 487 506 471 Q 516 468 524 477 Q 530 486 529 498 Q 526 516 514 526 Q 481 556 453 550 Q 449 549 450 540 Q 450 533 460 520 Z"/>
  <path id="z27654d11" d="M 738 570 Q 726 545 698 503 Q 694 496 699 491 Q 705 490 711 495 Q 769 541 799 558 Q 812 562 808 571 Q 802 584 786 597 Q 770 610 751 611 Q 739 610 742 594 Q 745 584 738 570 Z"/>
  <path id="z27654d12" d="M 556 433 Q 498 426 438 415 Q 420 414 434 399 Q 446 387 462 383 Q 480 379 494 383 Q 617 419 834 418 Q 850 419 855 426 Q 859 436 845 448 Q 796 484 729 464 Q 704 460 674 452 L 641 446 Q 631 445 620 443 Q 604 442 588 438 L 556 433 Z"/>
  <path id="z27654d13" d="M 536 342 Q 536 343 535 343 Q 511 353 497 351 Q 487 347 492 338 Q 522 287 502 187 Q 481 159 509 116 Q 510 113 514 110 Q 521 100 528 104 Q 538 113 547 150 L 550 178 Q 551 184 551 189 Q 550 214 550 235 L 550 263 Q 550 302 552 315 C 554 333 554 333 536 342 Z"/>
  <path id="z27654d14" d="M 674 162 Q 699 131 717 101 Q 724 88 733 88 Q 746 89 758 115 Q 771 145 766 212 Q 751 311 770 333 Q 777 343 769 352 Q 754 368 711 386 Q 696 393 684 385 Q 639 364 536 342 C 507 336 522 310 552 315 Q 573 318 677 343 Q 693 347 703 340 Q 712 331 712 186 L 712 185 Q 708 172 697 175 C 672 165 672 165 674 162 Z"/>
  <path id="z27654d15" d="M 550 235 Q 617 244 667 249 Q 689 253 681 265 Q 671 278 647 283 Q 602 289 550 263 C 523 250 520 231 550 235 Z"/>
  <path id="z27654d16" d="M 547 150 Q 619 159 674 162 C 703 164 703 164 697 175 Q 696 176 696 177 Q 689 190 666 196 Q 638 202 550 178 C 521 170 517 146 547 150 Z"/>
<defs>
  <clipPath id="z27654c1"><use href="#z27654d1"/></clipPath>
  <clipPath id="z27654c2"><use href="#z27654d2"/></clipPath>
  <clipPath id="z27654c3"><use href="#z27654d3"/></clipPath>
  <clipPath id="z27654c4"><use href="#z27654d4"/></clipPath>
  <clipPath id="z27654c5"><use href="#z27654d5"/></clipPath>
  <clipPath id="z27654c6"><use href="#z27654d6"/></clipPath>
  <clipPath id="z27654c7"><use href="#z27654d7"/></clipPath>
  <clipPath id="z27654c8"><use href="#z27654d8"/></clipPath>
  <clipPath id="z27654c9"><use href="#z27654d9"/></clipPath>
  <clipPath id="z27654c10"><use href="#z27654d10"/></clipPath>
  <clipPath id="z27654c11"><use href="#z27654d11"/></clipPath>
  <clipPath id="z27654c12"><use href="#z27654d12"/></clipPath>
  <clipPath id="z27654c13"><use href="#z27654d13"/></clipPath>
  <clipPath id="z27654c14"><use href="#z27654d14"/></clipPath>
  <clipPath id="z27654c15"><use href="#z27654d15"/></clipPath>
  <clipPath id="z27654c16"><use href="#z27654d16"/></clipPath>
</defs>
<path style="--d:1s;" pathLength="3333" clip-path="url(#z27654c1)" d="M 430 685 L 391 689 L 359 684 L 283 620 L 189 561 L 155 548 L 150 539 L 131 537 L 126 527"/>
<path style="--d:2s;" pathLength="3333" clip-path="url(#z27654c2)" d="M 119 417 L 180 417 L 366 477 L 412 478"/>
<path style="--d:3s;" pathLength="3333" clip-path="url(#z27654c3)" d="M 53 263 L 73 258 L 125 262 L 375 346 L 426 347"/>
<path style="--d:4s;" pathLength="3333" clip-path="url(#z27654c4)" d="M 254 573 L 284 558 L 293 543 L 272 334 L 272 252 L 281 169 L 291 132 L 307 106 L 353 66 L 435 39 L 580 23 L 707 25 L 819 42 L 892 75 L 896 209"/>
<path style="--d:5s;" pathLength="3333" clip-path="url(#z27654c5)" d="M 499 755 L 547 722 L 570 685"/>
<path style="--d:6s;" pathLength="3333" clip-path="url(#z27654c6)" d="M 712 804 L 725 789 L 730 771 L 644 680"/>
<path style="--d:7s;" pathLength="3333" clip-path="url(#z27654c7)" d="M 488 610 L 511 604 L 560 607 L 747 650 L 784 650"/>
<path style="--d:8s;" pathLength="3333" clip-path="url(#z27654c8)" d="M 592 582 L 579 579 L 570 565 L 573 455 L 559 447"/>
<path style="--d:9s;" pathLength="3333" clip-path="url(#z27654c9)" d="M 646 606 L 662 588 L 664 576 L 659 468 L 644 460"/>
<path style="--d:10s;" pathLength="3333" clip-path="url(#z27654c10)" d="M 459 543 L 501 506 L 511 487"/>
<path style="--d:11s;" pathLength="3333" clip-path="url(#z27654c11)" d="M 752 600 L 769 573 L 704 497"/>
<path style="--d:12s;" pathLength="3333" clip-path="url(#z27654c12)" d="M 436 407 L 485 402 L 757 444 L 794 444 L 846 431"/>
<path style="--d:13s;" pathLength="3333" clip-path="url(#z27654c13)" d="M 502 342 L 522 325 L 528 311 L 530 228 L 520 158 L 523 113"/>
<path style="--d:14s;" pathLength="3333" clip-path="url(#z27654c14)" d="M 547 339 L 559 331 L 699 366 L 723 354 L 737 338 L 738 170 L 730 148 L 683 159"/>
<path style="--d:15s;" pathLength="3333" clip-path="url(#z27654c15)" d="M 557 242 L 566 253 L 616 264 L 650 265 L 671 259"/>
<path style="--d:16s;" pathLength="3333" clip-path="url(#z27654c16)" d="M 555 156 L 564 169 L 584 172 L 644 179 L 679 179 L 691 173"/>
</svg>