<svg id="z24642" class="acjk" viewBox="0 0 1024 1024" xmlns="http://www.w3.org/2000/svg">
<style>
<![CDATA[
@keyframes zk {
	to {
		stroke-dashoffset:0;
	}
}
svg.acjk path[clip-path] {
	--t:0.8s;
	animation:zk var(--t) linear forwards var(--d);
	stroke-dasharray:3337;
	stroke-dashoffset:3339;
	stroke-width:128;
	stroke-linecap:round;
	stroke-linejoin:round;
	fill:none;
	stroke:#000;
}
svg.acjk path[id] {fill:#ccc;}
]]>
</style>
  <path id="z24642d1" d="M 127 552 Q 106 482 74 417 Q 56 381 79 348 Q 89 330 109 346 Q 161 395 159 495 Q 160 529 151 555 Q 145 562 139 563 Q 130 562 127 552 Z"/>
  <path id="z24642d2" d="M 297 574 Q 303 571 354 526 Q 366 516 380 516 Q 389 517 393 528 Q 397 541 388 567 Q 379 591 299 611 L 298 611 C 269 617 272 591 297 574 Z"/>
  <path id="z24642d3" d="M 298 611 Q 302 692 318 747 Q 327 763 324 776 Q 317 786 262 821 Q 238 839 217 823 Q 213 819 218 802 Q 248 756 250 679 Q 250 264 227 162 Q 223 144 217 125 Q 207 86 231 23 Q 238 4 246 1 Q 252 -6 260 3 Q 287 19 288 85 Q 287 134 297 574 L 298 611 Z"/>
  <path id="z24642d4" d="M 513 582 Q 547 628 586 696 Q 601 729 616 745 Q 625 757 618 770 Q 614 783 582 803 Q 554 819 534 817 Q 515 813 525 792 Q 562 740 416 504 Q 406 492 405 486 Q 402 474 417 478 Q 441 488 497 560 L 513 582 Z"/>
  <path id="z24642d5" d="M 674 58 Q 662 54 597 71 Q 587 74 587 68 Q 587 64 598 55 Q 637 15 655 -15 Q 665 -34 676 -32 Q 698 -33 720 -9 Q 796 60 817 252 Q 826 355 830 500 Q 829 539 852 569 Q 865 582 864 591 Q 863 598 843 612 Q 815 631 779 641 Q 758 647 688 624 Q 625 609 561 592 Q 533 586 513 582 C 484 576 467 561 497 560 Q 537 553 683 582 Q 747 595 758 585 Q 782 537 763 293 Q 751 172 714 99 Q 696 60 674 58 Z"/>
  <path id="z24642d6" d="M 471 446 Q 453 459 433 464 Q 426 465 421 459 Q 418 455 424 446 Q 449 389 435 268 Q 423 238 429 215 Q 438 188 447 178 Q 457 168 464 179 Q 470 186 473 198 L 480 231 Q 481 241 482 310 L 482 343 Q 482 404 484 421 C 485 437 485 437 471 446 Z"/>
  <path id="z24642d7" d="M 599 207 Q 600 201 606 194 Q 618 169 626 170 Q 639 171 652 200 Q 664 222 662 240 Q 643 385 668 425 Q 677 438 670 446 Q 646 467 605 483 Q 592 487 573 480 Q 548 467 515 456 Q 491 450 471 446 C 442 440 455 413 484 421 Q 484 422 536 433 Q 579 446 588 439 Q 595 424 600 383 Q 604 277 601 243 L 599 207 Z"/>
  <path id="z24642d8" d="M 482 310 Q 527 319 561 324 Q 583 330 574 341 Q 562 354 538 356 Q 516 357 482 343 C 454 332 453 304 482 310 Z"/>
  <path id="z24642d9" d="M 473 198 Q 477 197 488 199 Q 524 206 599 207 C 629 207 626 227 601 243 L 600 244 Q 585 253 556 246 Q 516 237 480 231 C 450 226 443 200 473 198 Z"/>
<defs>
  <clipPath id="z24642c1"><use href="#z24642d1"/></clipPath>
  <clipPath id="z24642c2"><use href="#z24642d2"/></clipPath>
  <clipPath id="z24642c3"><use href="#z24642d3"/></clipPath>
  <clipPath id="z24642c4"><use href="#z24642d4"/></clipPath>
  <clipPath id="z24642c5"><use href="#z24642d5"/></clipPath>
  <clipPath id="z24642c6"><use href="#z24642d6"/></clipPath>
  <clipPath id="z24642c7"><use href="#z24642d7"/></clipPath>
  <clipPath id="z24642c8"><use href="#z24642d8"/></clipPath>
  <clipPath id="z24642c9"><use href="#z24642d9"/></clipPath>
</defs>
<path style="--d:1s;" pathLength="3333" clip-path="url(#z24642c1)" d="M 140 551 L 133 485 L 97 377 L 95 356"/>
<path style="--d:2s;" pathLength="3333" clip-path="url(#z24642c2)" d="M 299 605 L 309 604 L 319 584 L 357 561 L 378 532"/>
<path style="--d:3s;" pathLength="3333" clip-path="url(#z24642c3)" d="M 229 816 L 257 792 L 280 761 L 268 302 L 251 113 L 251 15"/>
<path style="--d:4s;" pathLength="3333" clip-path="url(#z24642c4)" d="M 536 802 L 562 780 L 573 757 L 560 718 L 476 563 L 414 487"/>
<path style="--d:5s;" pathLength="3333" clip-path="url(#z24642c5)" d="M 501 565 L 743 615 L 777 610 L 806 579 L 792 287 L 778 188 L 755 109 L 719 43 L 686 17 L 593 68"/>
<path style="--d:6s;" pathLength="3333" clip-path="url(#z24642c6)" d="M 430 454 L 454 429 L 460 407 L 455 183"/>
<path style="--d:7s;" pathLength="3333" clip-path="url(#z24642c7)" d="M 479 442 L 503 438 L 592 462 L 604 458 L 629 430 L 632 245 L 626 181"/>
<path style="--d:8s;" pathLength="3333" clip-path="url(#z24642c8)" d="M 489 316 L 495 327 L 510 334 L 564 335"/>
<path style="--d:9s;" pathLength="3333" clip-path="url(#z24642c9)" d="M 480 202 L 494 217 L 579 228 L 594 237"/>
</svg>