<svg id="z27431" class="acjk" viewBox="0 0 1024 1024" xmlns="http://www.w3.org/2000/svg">
<style>
<![CDATA[
@keyframes zk {
	to {
		stroke-dashoffset:0;
	}
}
svg.acjk path[clip-path] {
	--t:0.8s;
	animation:zk var(--t) linear forwards var(--d);
	stroke-dasharray:3337;
	stroke-dashoffset:3339;
	stroke-width:128;
	stroke-linecap:round;
	stroke-linejoin:round;
	fill:none;
	stroke:#000;
}
svg.acjk path[id] {fill:#ccc;}
]]>
</style>
  <path id="z27431d1" d="M 210 638 Q 258 623 297 636 Q 373 654 451 674 Q 487 684 492 689 Q 501 696 495 705 Q 488 715 460 722 Q 430 726 402 713 Q 362 698 318 685 Q 269 672 211 664 Q 207 664 203 662 C 174 655 181 646 210 638 Z"/>
  <path id="z27431d2" d="M 384 383 Q 406 431 422 505 Q 429 529 437 551 Q 443 561 436 569 Q 429 576 401 587 Q 380 594 373 591 Q 361 587 365 573 Q 383 507 348 415 L 331 376 Q 304 319 221 223 Q 217 216 222 214 Q 229 213 237 219 Q 312 264 361 340 L 384 383 Z"/>
  <path id="z27431d3" d="M 361 340 Q 437 247 441 245 Q 447 244 453 250 Q 462 257 457 289 Q 454 317 384 383 L 348 415 Q 284 470 246 498 Q 240 502 238 494 Q 237 484 243 477 Q 285 432 331 376 L 361 340 Z"/>
  <path id="z27431d4" d="M 203 662 Q 193 672 163 688 Q 141 700 133 693 Q 126 686 133 670 Q 151 634 151 569 Q 154 367 133 178 Q 132 139 109 103 Q 99 87 109 67 Q 118 45 128 37 Q 138 30 156 43 Q 231 107 465 130 Q 487 131 487 143 Q 486 156 457 173 Q 439 185 332 153 Q 233 132 202 121 Q 181 115 182 138 Q 194 322 201 556 Q 201 604 210 638 C 213 655 213 655 203 662 Z"/>
  <path id="z27431d5" d="M 580 549 Q 611 604 642 683 Q 654 723 669 743 Q 676 755 668 767 Q 662 777 631 794 Q 603 806 584 802 Q 568 796 579 777 Q 625 717 484 442 Q 477 432 476 425 Q 475 413 488 419 Q 512 429 563 518 L 580 549 Z"/>
  <path id="z27431d6" d="M 563 518 Q 579 508 599 514 Q 723 569 756 561 Q 768 549 762 542 Q 762 539 731 472 Q 724 462 729 457 Q 733 451 744 463 Q 835 527 875 542 Q 884 543 885 552 Q 885 565 857 579 Q 835 591 812 604 Q 785 617 771 610 Q 698 576 580 549 C 551 542 535 530 563 518 Z"/>
  <path id="z27431d7" d="M 644 259 Q 644 301 666 367 Q 669 379 675 390 Q 684 408 667 416 Q 651 429 636 434 Q 614 447 596 440 Q 583 436 589 421 Q 617 372 585 239 Q 584 236 583 231 Q 544 117 423 31 Q 411 22 423 20 Q 477 20 547 85 Q 602 133 636 230 L 644 259 Z"/>
  <path id="z27431d8" d="M 636 230 Q 697 131 776 25 Q 804 -8 950 11 Q 959 12 960 17 Q 961 21 949 29 Q 811 98 749 154 Q 698 200 644 259 C 624 281 620 255 636 230 Z"/>
<defs>
  <clipPath id="z27431c1"><use href="#z27431d1"/></clipPath>
  <clipPath id="z27431c2"><use href="#z27431d2"/></clipPath>
  <clipPath id="z27431c3"><use href="#z27431d3"/></clipPath>
  <clipPath id="z27431c4"><use href="#z27431d4"/></clipPath>
  <clipPath id="z27431c5"><use href="#z27431d5"/></clipPath>
  <clipPath id="z27431c6"><use href="#z27431d6"/></clipPath>
  <clipPath id="z27431c7"><use href="#z27431d7"/></clipPath>
  <clipPath id="z27431c8"><use href="#z27431d8"/></clipPath>
</defs>
<path style="--d:1s;" pathLength="3333" clip-path="url(#z27431c1)" d="M 208 657 L 262 651 L 429 696 L 487 698"/>
<path style="--d:2s;" pathLength="3333" clip-path="url(#z27431c2)" d="M 376 579 L 398 557 L 402 544 L 393 484 L 371 410 L 345 355 L 304 295 L 240 229 L 231 228 L 229 219"/>
<path style="--d:3s;" pathLength="3333" clip-path="url(#z27431c3)" d="M 245 490 L 403 329 L 434 288 L 445 252"/>
<path style="--d:4s;" pathLength="3333" clip-path="url(#z27431c4)" d="M 141 685 L 177 637 L 173 398 L 154 94 L 196 96 L 395 147 L 445 152 L 476 144"/>
<path style="--d:5s;" pathLength="3333" clip-path="url(#z27431c5)" d="M 589 788 L 615 769 L 628 751 L 613 685 L 593 627 L 541 516 L 484 427"/>
<path style="--d:6s;" pathLength="3333" clip-path="url(#z27431c6)" d="M 571 520 L 594 533 L 705 570 L 762 583 L 784 579 L 807 555 L 734 464"/>
<path style="--d:7s;" pathLength="3333" clip-path="url(#z27431c7)" d="M 599 428 L 619 415 L 635 390 L 617 259 L 604 214 L 569 146 L 526 93 L 486 58 L 429 26"/>
<path style="--d:8s;" pathLength="3333" clip-path="url(#z27431c8)" d="M 647 251 L 651 231 L 717 149 L 807 57 L 869 35 L 953 17"/>
</svg>