<svg id="z27872" class="acjk" viewBox="0 0 1024 1024" xmlns="http://www.w3.org/2000/svg">
<style>
<![CDATA[
@keyframes zk {
	to {
		stroke-dashoffset:0;
	}
}
svg.acjk path[clip-path] {
	--t:0.8s;
	animation:zk var(--t) linear forwards var(--d);
	stroke-dasharray:3337;
	stroke-dashoffset:3339;
	stroke-width:128;
	stroke-linecap:round;
	stroke-linejoin:round;
	fill:none;
	stroke:#000;
}
svg.acjk path[id] {fill:#ccc;}
]]>
</style>
  <path id="z27872d1" d="M 249 672 Q 277 645 306 613 Q 322 597 341 597 Q 354 597 360 613 Q 367 629 358 666 Q 346 700 246 729 Q 227 735 220 732 Q 214 728 215 712 Q 219 699 249 672 Z"/>
  <path id="z27872d2" d="M 110 474 Q 159 420 196 407 Q 212 406 223 420 Q 229 435 225 454 Q 210 497 146 512 Q 104 521 93 517 Q 86 516 90 502 Q 91 489 110 474 Z"/>
  <path id="z27872d3" d="M 131 126 Q 118 122 121 104 Q 139 25 173 8 Q 180 1 191 4 Q 198 5 199 32 Q 205 77 313 363 Q 320 379 319 386 Q 318 396 309 389 Q 297 382 175 174 Q 162 150 131 126 Z"/>
  <path id="z27872d4" d="M 589 667 Q 607 706 625 727 Q 634 739 627 753 Q 621 766 590 787 Q 560 803 540 801 Q 521 797 532 775 Q 550 742 540 713 Q 489 542 340 325 Q 330 313 329 306 Q 326 294 341 299 Q 390 311 523 537 Q 548 585 577 640 L 589 667 Z"/>
  <path id="z27872d5" d="M 577 640 Q 665 523 780 400 Q 801 379 833 381 Q 945 388 980 397 Q 990 400 992 405 Q 992 411 977 418 Q 823 469 775 506 Q 688 572 589 667 C 567 688 559 664 577 640 Z"/>
  <path id="z27872d6" d="M 528 435 Q 564 381 593 369 Q 609 365 619 377 Q 626 390 625 407 Q 621 432 603 446 Q 564 476 525 477 Q 521 478 518 476 Q 511 475 513 463 Q 514 450 528 435 Z"/>
  <path id="z27872d7" d="M 607 88 Q 740 227 784 246 Q 805 255 797 272 Q 793 290 719 327 Q 697 337 673 326 Q 604 299 499 267 Q 472 257 405 259 Q 380 259 389 237 Q 399 224 419 211 Q 453 192 490 216 Q 515 226 647 275 Q 662 282 676 273 Q 689 264 684 248 Q 639 178 589 96 C 573 70 586 66 607 88 Z"/>
  <path id="z27872d8" d="M 589 96 Q 589 97 588 97 Q 533 119 503 129 Q 493 133 491 121 Q 491 106 503 96 Q 563 47 634 -27 Q 652 -46 668 -51 Q 678 -52 685 -41 Q 698 -26 682 19 Q 672 61 607 88 L 589 96 Z"/>
<defs>
  <clipPath id="z27872c1"><use href="#z27872d1"/></clipPath>
  <clipPath id="z27872c2"><use href="#z27872d2"/></clipPath>
  <clipPath id="z27872c3"><use href="#z27872d3"/></clipPath>
  <clipPath id="z27872c4"><use href="#z27872d4"/></clipPath>
  <clipPath id="z27872c5"><use href="#z27872d5"/></clipPath>
  <clipPath id="z27872c6"><use href="#z27872d6"/></clipPath>
  <clipPath id="z27872c7"><use href="#z27872d7"/></clipPath>
  <clipPath id="z27872c8"><use href="#z27872d8"/></clipPath>
</defs>
<path style="--d:1s;" pathLength="3333" clip-path="url(#z27872c1)" d="M 226 724 L 237 711 L 314 661 L 340 617"/>
<path style="--d:2s;" pathLength="3333" clip-path="url(#z27872c2)" d="M 98 508 L 159 473 L 203 431"/>
<path style="--d:3s;" pathLength="3333" clip-path="url(#z27872c3)" d="M 185 14 L 173 44 L 169 98 L 203 156 L 313 383"/>
<path style="--d:4s;" pathLength="3333" clip-path="url(#z27872c4)" d="M 542 786 L 561 773 L 584 741 L 559 672 L 472 492 L 397 375 L 338 307"/>
<path style="--d:5s;" pathLength="3333" clip-path="url(#z27872c5)" d="M 592 658 L 593 642 L 643 588 L 731 500 L 806 436 L 841 423 L 984 404"/>
<path style="--d:6s;" pathLength="3333" clip-path="url(#z27872c6)" d="M 523 467 L 578 424 L 600 392"/>
<path style="--d:7s;" pathLength="3333" clip-path="url(#z27872c7)" d="M 400 246 L 426 234 L 460 232 L 662 300 L 697 299 L 709 291 L 731 268 L 718 242 L 607 101 L 596 101"/>
<path style="--d:8s;" pathLength="3333" clip-path="url(#z27872c8)" d="M 503 116 L 625 37 L 655 0 L 669 -34"/>
</svg>