<svg id="z20448" class="acjk" viewBox="0 0 1024 1024" xmlns="http://www.w3.org/2000/svg">
<style>
<![CDATA[
@keyframes zk {
	to {
		stroke-dashoffset:0;
	}
}
svg.acjk path[clip-path] {
	--t:0.8s;
	animation:zk var(--t) linear forwards var(--d);
	stroke-dasharray:3337;
	stroke-dashoffset:3339;
	stroke-width:128;
	stroke-linecap:round;
	stroke-linejoin:round;
	fill:none;
	stroke:#000;
}
svg.acjk path[id] {fill:#ccc;}
]]>
</style>
  <path id="z20448d1" d="M 266 509 Q 305 563 348 631 Q 376 682 400 705 Q 410 717 405 732 Q 401 747 369 771 Q 339 792 318 791 Q 297 790 307 765 Q 322 731 309 704 Q 248 548 79 342 Q 69 330 66 324 Q 62 311 78 314 Q 123 326 221 453 Q 230 463 239 475 L 266 509 Z"/>
  <path id="z20448d2" d="M 239 475 Q 261 418 262 365 Q 261 343 261 318 Q 260 207 230 95 Q 220 50 254 -1 Q 255 -1 257 -4 Q 275 -20 287 7 Q 302 47 301 94 Q 304 364 313 424 Q 320 451 311 462 Q 269 507 266 509 C 245 530 229 503 239 475 Z"/>
  <path id="z20448d3" d="M 630 550 Q 687 563 749 574 Q 798 586 807 593 Q 816 600 811 608 Q 804 620 776 627 Q 748 633 633 595 L 582 583 Q 519 571 449 564 Q 415 558 439 542 Q 478 518 536 532 Q 555 536 581 540 L 630 550 Z"/>
  <path id="z20448d4" d="M 612 305 Q 621 372 630 550 L 633 595 Q 634 707 661 764 Q 668 779 656 791 Q 632 810 590 823 Q 563 830 554 822 Q 544 815 552 801 Q 577 762 580 712 Q 583 648 582 583 L 581 540 Q 575 255 497 151 Q 452 90 357 28 Q 344 21 344 15 Q 345 11 358 11 Q 374 7 415 24 Q 565 81 602 259 Q 603 266 606 273 L 612 305 Z"/>
  <path id="z20448d5" d="M 606 273 Q 685 155 787 27 Q 806 5 838 6 Q 946 7 980 14 Q 990 15 992 21 Q 993 27 979 34 Q 828 95 756 161 Q 689 224 612 305 C 591 327 589 298 606 273 Z"/>
  <path id="z20448d6" d="M 464 376 Q 464 382 509 439 Q 516 449 506 460 Q 473 488 454 486 Q 445 485 446 473 Q 455 404 359 306 Q 353 300 349 294 Q 342 282 354 285 Q 390 289 452 360 L 464 376 Z"/>
  <path id="z20448d7" d="M 452 360 Q 461 330 508 294 Q 509 294 511 292 Q 521 289 529 297 Q 533 304 533 317 Q 532 333 520 343 Q 487 376 464 376 C 446 377 446 377 452 360 Z"/>
  <path id="z20448d8" d="M 749 390 Q 761 406 772 421 Q 793 452 811 476 Q 820 486 808 500 Q 772 528 750 526 Q 740 525 742 512 Q 751 443 677 357 Q 658 338 649 326 Q 642 313 655 317 Q 679 320 734 373 L 749 390 Z"/>
  <path id="z20448d9" d="M 734 373 Q 738 367 754 357 Q 782 338 813 313 Q 823 304 835 305 Q 842 306 845 316 Q 848 328 840 348 Q 828 378 749 390 C 719 395 715 395 734 373 Z"/>
<defs>
  <clipPath id="z20448c1"><use href="#z20448d1"/></clipPath>
  <clipPath id="z20448c2"><use href="#z20448d2"/></clipPath>
  <clipPath id="z20448c3"><use href="#z20448d3"/></clipPath>
  <clipPath id="z20448c4"><use href="#z20448d4"/></clipPath>
  <clipPath id="z20448c5"><use href="#z20448d5"/></clipPath>
  <clipPath id="z20448c6"><use href="#z20448d6"/></clipPath>
  <clipPath id="z20448c7"><use href="#z20448d7"/></clipPath>
  <clipPath id="z20448c8"><use href="#z20448d8"/></clipPath>
  <clipPath id="z20448c9"><use href="#z20448d9"/></clipPath>
</defs>
<path style="--d:1s;" pathLength="3333" clip-path="url(#z20448c1)" d="M 318 776 L 345 749 L 357 722 L 325 655 L 264 552 L 197 457 L 134 379 L 76 323"/>
<path style="--d:2s;" pathLength="3333" clip-path="url(#z20448c2)" d="M 263 502 L 268 470 L 283 444 L 285 409 L 281 241 L 264 73 L 270 8"/>
<path style="--d:3s;" pathLength="3333" clip-path="url(#z20448c3)" d="M 442 554 L 510 549 L 766 604 L 799 603"/>
<path style="--d:4s;" pathLength="3333" clip-path="url(#z20448c4)" d="M 562 811 L 578 803 L 615 766 L 597 394 L 575 256 L 547 178 L 496 107 L 429 52 L 352 15"/>
<path style="--d:5s;" pathLength="3333" clip-path="url(#z20448c5)" d="M 618 298 L 621 275 L 648 241 L 726 150 L 817 61 L 849 47 L 984 21"/>
<path style="--d:6s;" pathLength="3333" clip-path="url(#z20448c6)" d="M 458 474 L 477 445 L 445 384 L 418 347 L 357 293"/>
<path style="--d:7s;" pathLength="3333" clip-path="url(#z20448c7)" d="M 468 367 L 508 324 L 516 303"/>
<path style="--d:8s;" pathLength="3333" clip-path="url(#z20448c8)" d="M 751 516 L 763 505 L 774 480 L 757 440 L 716 377 L 657 325"/>
<path style="--d:9s;" pathLength="3333" clip-path="url(#z20448c9)" d="M 742 374 L 757 374 L 801 353 L 831 319"/>
</svg>