<svg id="z23581" class="acjk" viewBox="0 0 1024 1024" xmlns="http://www.w3.org/2000/svg">
<style>
<![CDATA[
@keyframes zk {
	to {
		stroke-dashoffset:0;
	}
}
svg.acjk path[clip-path] {
	--t:0.8s;
	animation:zk var(--t) linear forwards var(--d);
	stroke-dasharray:3337;
	stroke-dashoffset:3339;
	stroke-width:128;
	stroke-linecap:round;
	stroke-linejoin:round;
	fill:none;
	stroke:#000;
}
svg.acjk path[id] {fill:#ccc;}
]]>
</style>
  <path id="z23581d1" d="M 530 580 Q 552 763 561 783 Q 565 793 545 809 Q 511 828 487 832 Q 472 836 464 827 Q 457 820 464 805 Q 479 786 480 771 Q 487 680 488 574 C 488 544 526 550 530 580 Z"/>
  <path id="z23581d2" d="M 311 686 Q 354 629 380 617 Q 393 613 403 625 Q 410 635 409 652 Q 400 692 346 712 Q 312 727 302 723 Q 296 722 297 711 Q 298 701 311 686 Z"/>
  <path id="z23581d3" d="M 669 744 Q 642 708 588 654 Q 581 647 587 639 Q 594 636 603 641 Q 700 696 745 715 Q 764 719 762 731 Q 756 749 738 770 Q 719 792 695 795 Q 679 796 679 776 Q 680 760 669 744 Z"/>
  <path id="z23581d4" d="M 261 544 L 261 545 Q 248 570 236 580 Q 215 595 214 567 Q 220 527 154 452 Q 133 427 163 367 Q 179 339 200 368 Q 219 396 232 436 Q 248 485 260 513 L 261 544 Z"/>
  <path id="z23581d5" d="M 260 513 Q 284 498 324 507 Q 438 543 690 571 Q 741 577 759 573 Q 774 563 772 556 Q 772 550 734 476 Q 727 461 733 457 Q 740 453 759 464 Q 820 503 870 514 Q 910 524 910 534 Q 909 546 833 603 Q 806 624 722 608 Q 665 602 530 580 L 488 574 Q 436 568 374 558 Q 317 549 261 544 C 231 541 232 524 260 513 Z"/>
  <path id="z23581d6" d="M 363 416 Q 323 409 351 391 Q 393 364 456 380 Q 535 395 619 412 Q 656 421 663 425 Q 673 434 667 443 Q 660 456 628 464 Q 597 471 563 457 Q 520 444 474 432 Q 423 422 363 416 Z"/>
  <path id="z23581d7" d="M 494 266 Q 590 281 790 281 Q 811 282 816 291 Q 822 303 804 317 Q 750 356 710 347 Q 553 313 225 267 Q 203 264 219 247 Q 252 217 311 233 Q 374 251 446 259 L 494 266 Z"/>
  <path id="z23581d8" d="M 680 115 Q 541 99 399 80 Q 389 79 386 81 Q 385 85 391 91 Q 482 199 517 226 Q 533 238 525 248 Q 518 258 494 266 C 466 278 446 287 446 259 Q 445 256 446 250 Q 452 193 349 103 Q 330 88 300 74 Q 258 59 276 19 Q 276 18 277 16 Q 286 -5 298 -10 Q 305 -14 317 -9 Q 423 49 685 95 Q 688 96 692 97 C 721 103 710 118 680 115 Z"/>
  <path id="z23581d9" d="M 692 97 Q 752 13 764 8 Q 771 5 781 14 Q 796 26 789 72 Q 785 132 631 214 Q 622 221 619 208 Q 616 195 626 183 Q 651 152 680 115 L 692 97 Z"/>
<defs>
  <clipPath id="z23581c1"><use href="#z23581d1"/></clipPath>
  <clipPath id="z23581c2"><use href="#z23581d2"/></clipPath>
  <clipPath id="z23581c3"><use href="#z23581d3"/></clipPath>
  <clipPath id="z23581c4"><use href="#z23581d4"/></clipPath>
  <clipPath id="z23581c5"><use href="#z23581d5"/></clipPath>
  <clipPath id="z23581c6"><use href="#z23581d6"/></clipPath>
  <clipPath id="z23581c7"><use href="#z23581d7"/></clipPath>
  <clipPath id="z23581c8"><use href="#z23581d8"/></clipPath>
  <clipPath id="z23581c9"><use href="#z23581d9"/></clipPath>
</defs>
<path style="--d:1s;" pathLength="3333" clip-path="url(#z23581c1)" d="M 476 817 L 519 778 L 513 623 L 508 599 L 494 582"/>
<path style="--d:2s;" pathLength="3333" clip-path="url(#z23581c2)" d="M 307 714 L 356 677 L 381 650 L 386 636"/>
<path style="--d:3s;" pathLength="3333" clip-path="url(#z23581c3)" d="M 694 780 L 707 761 L 711 742 L 592 646"/>
<path style="--d:4s;" pathLength="3333" clip-path="url(#z23581c4)" d="M 225 573 L 237 541 L 233 519 L 185 425 L 180 371"/>
<path style="--d:5s;" pathLength="3333" clip-path="url(#z23581c5)" d="M 269 536 L 284 526 L 313 527 L 632 581 L 736 594 L 775 592 L 801 580 L 821 550 L 738 463"/>
<path style="--d:6s;" pathLength="3333" clip-path="url(#z23581c6)" d="M 354 405 L 376 398 L 414 397 L 599 438 L 656 436"/>
<path style="--d:7s;" pathLength="3333" clip-path="url(#z23581c7)" d="M 222 257 L 256 250 L 297 253 L 413 276 L 712 314 L 755 311 L 804 297"/>
<path style="--d:8s;" pathLength="3333" clip-path="url(#z23581c8)" d="M 512 240 L 476 232 L 439 172 L 370 96 L 353 54 L 404 54 L 596 93 L 658 102 L 687 100"/>
<path style="--d:9s;" pathLength="3333" clip-path="url(#z23581c9)" d="M 630 202 L 710 128 L 747 84 L 765 44 L 768 18"/>
</svg>