<svg id="z25796" class="acjk" viewBox="0 0 1024 1024" xmlns="http://www.w3.org/2000/svg">
<style>
<![CDATA[
@keyframes zk {
	to {
		stroke-dashoffset:0;
	}
}
svg.acjk path[clip-path] {
	--t:0.8s;
	animation:zk var(--t) linear forwards var(--d);
	stroke-dasharray:3337;
	stroke-dashoffset:3339;
	stroke-width:128;
	stroke-linecap:round;
	stroke-linejoin:round;
	fill:none;
	stroke:#000;
}
svg.acjk path[id] {fill:#ccc;}
]]>
</style>
  <path id="z25796d1" d="M 287 536 Q 303 543 326 549 Q 354 558 358 562 Q 365 571 360 578 Q 353 588 325 592 Q 304 593 288 587 L 240 567 Q 165 543 125 535 Q 92 526 117 513 Q 153 498 235 521 Q 236 522 240 522 L 287 536 Z"/>
  <path id="z25796d2" d="M 237 358 Q 236 273 234 168 Q 234 144 221 136 Q 214 130 156 143 Q 125 155 127 145 Q 128 138 147 123 Q 204 75 218 49 Q 234 18 248 16 Q 261 15 276 48 Q 294 91 293 162 Q 286 280 285 396 L 285 427 Q 285 482 287 536 L 288 587 Q 294 732 309 779 Q 325 807 272 829 Q 241 847 221 841 Q 205 834 220 812 Q 239 787 241 754 Q 242 735 240 567 L 240 522 Q 239 468 237 399 L 237 358 Z"/>
  <path id="z25796d3" d="M 237 399 Q 62 300 49 294 Q 34 288 33 280 Q 32 273 45 259 Q 63 246 83 238 Q 98 234 107 245 Q 162 302 237 358 L 285 396 Q 306 414 328 428 Q 347 438 357 453 Q 363 465 353 464 Q 347 464 285 427 L 237 399 Z"/>
  <path id="z25796d4" d="M 660 710 Q 664 750 670 787 L 673 812 Q 676 825 678 832 Q 679 839 682 845 Q 685 855 667 867 Q 636 883 615 887 Q 602 890 594 882 Q 587 875 595 863 Q 611 842 621 703 C 623 673 657 680 660 710 Z"/>
  <path id="z25796d5" d="M 670 787 Q 706 784 797 813 L 798 813 Q 804 820 800 827 Q 793 836 769 838 Q 733 838 673 812 C 645 800 640 789 670 787 Z"/>
  <path id="z25796d6" d="M 496 644 Q 509 650 595 668 L 621 673 Q 700 692 777 705 Q 805 711 809 698 Q 809 688 789 646 Q 782 633 788 629 Q 794 625 806 635 Q 873 675 898 681 Q 917 684 918 696 Q 917 708 850 744 Q 829 754 804 748 Q 726 726 660 710 L 621 703 Q 555 693 474 679 C 444 674 467 635 496 644 Z"/>
  <path id="z25796d7" d="M 465 348 Q 465 349 466 350 Q 481 434 489 602 Q 490 639 496 644 C 502 666 501 666 474 679 Q 462 686 449 690 Q 430 700 419 694 Q 409 687 415 675 Q 436 645 437 583 Q 436 571 436 556 Q 437 388 399 257 Q 369 163 293 25 Q 289 18 287 13 Q 286 3 295 5 Q 322 11 389 124 Q 407 157 422 195 Q 447 261 463 336 L 465 348 Z"/>
  <path id="z25796d8" d="M 608 602 Q 565 586 528 571 Q 515 567 533 556 Q 545 550 565 557 Q 587 564 608 571 L 642 581 Q 693 597 739 611 Q 758 615 750 626 Q 740 636 718 638 Q 694 638 643 616 L 608 602 Z"/>
  <path id="z25796d9" d="M 595 668 Q 595 665 598 659 Q 607 632 608 602 L 608 571 Q 609 532 629 516 Q 654 494 713 493 Q 762 496 793 523 Q 805 530 798 546 Q 792 556 784 592 Q 785 602 780 605 Q 777 608 773 597 Q 743 549 720 541 Q 693 532 661 544 Q 651 550 647 557 Q 643 566 642 581 L 643 616 Q 646 656 641 662 Q 632 669 621 673 C 594 685 588 688 595 668 Z"/>
  <path id="z25796d10" d="M 536 441 Q 526 445 508 448 Q 499 449 496 446 Q 492 442 498 428 Q 511 398 524 356 L 532 324 Q 536 276 555 253 Q 570 237 573 248 Q 574 255 576 267 L 575 286 Q 574 295 573 303 Q 569 319 567 333 L 561 362 Q 555 399 553 414 C 550 436 550 436 536 441 Z"/>
  <path id="z25796d11" d="M 733 286 Q 746 262 761 255 Q 768 248 783 264 Q 793 280 819 365 L 838 409 Q 844 418 852 425 Q 862 435 854 447 Q 841 460 807 483 Q 792 492 736 477 Q 730 477 613 456 Q 573 447 536 441 C 506 436 524 406 553 414 Q 584 424 634 432 L 668 439 Q 756 460 776 446 Q 786 439 783 423 Q 779 410 776 396 L 767 362 Q 752 311 743 306 C 731 289 731 289 733 286 Z"/>
  <path id="z25796d12" d="M 819 365 Q 849 366 884 367 Q 932 367 939 374 Q 943 383 930 393 Q 885 426 838 409 L 776 396 Q 683 384 681 380 L 639 374 Q 599 370 561 362 L 524 356 Q 470 355 465 348 C 452 343 452 343 463 336 Q 482 317 532 324 L 567 333 Q 601 343 639 347 L 679 353 Q 716 360 767 362 L 819 365 Z"/>
  <path id="z25796d13" d="M 675 308 Q 676 332 679 353 L 681 380 Q 682 387 683 392 Q 687 419 683 425 Q 676 432 668 439 C 646 459 627 461 634 432 L 635 431 Q 635 428 639 374 L 639 347 Q 639 328 639 300 C 639 270 674 278 675 308 Z"/>
  <path id="z25796d14" d="M 632 273 Q 686 283 733 286 C 763 288 763 288 743 306 Q 739 312 727 313 Q 711 317 680 310 Q 677 310 675 308 L 639 300 Q 605 294 575 286 C 546 278 546 270 576 267 Q 582 266 590 267 L 602 269 L 632 273 Z"/>
  <path id="z25796d15" d="M 635 147 Q 698 162 751 166 Q 772 167 776 161 Q 782 151 777 125 Q 767 55 749 23 Q 728 -8 699 -2 Q 677 2 659 9 Q 634 16 652 -6 Q 688 -43 705 -72 Q 718 -91 734 -79 Q 785 -52 824 73 Q 836 134 857 154 Q 870 166 865 177 Q 858 189 807 215 Q 788 225 767 213 Q 743 200 654 185 Q 651 185 651 184 L 594 174 Q 536 167 487 166 Q 469 166 466 157 Q 465 150 488 136 Q 512 120 532 125 Q 554 131 580 136 L 635 147 Z"/>
  <path id="z25796d16" d="M 580 136 Q 529 22 436 -13 L 406 -27 Q 394 -33 404 -37 Q 446 -46 517 -5 Q 599 43 635 147 L 651 184 Q 657 205 671 219 Q 681 232 669 243 Q 647 265 632 273 C 607 289 598 295 602 269 Q 601 266 603 261 Q 609 242 594 174 L 580 136 Z"/>
<defs>
  <clipPath id="z25796c1"><use href="#z25796d1"/></clipPath>
  <clipPath id="z25796c2"><use href="#z25796d2"/></clipPath>
  <clipPath id="z25796c3"><use href="#z25796d3"/></clipPath>
  <clipPath id="z25796c4"><use href="#z25796d4"/></clipPath>
  <clipPath id="z25796c5"><use href="#z25796d5"/></clipPath>
  <clipPath id="z25796c6"><use href="#z25796d6"/></clipPath>
  <clipPath id="z25796c7"><use href="#z25796d7"/></clipPath>
  <clipPath id="z25796c8"><use href="#z25796d8"/></clipPath>
  <clipPath id="z25796c9"><use href="#z25796d9"/></clipPath>
  <clipPath id="z25796c10"><use href="#z25796d10"/></clipPath>
  <clipPath id="z25796c11"><use href="#z25796d11"/></clipPath>
  <clipPath id="z25796c12"><use href="#z25796d12"/></clipPath>
  <clipPath id="z25796c13"><use href="#z25796d13"/></clipPath>
  <clipPath id="z25796c14"><use href="#z25796d14"/></clipPath>
  <clipPath id="z25796c15"><use href="#z25796d15"/></clipPath>
  <clipPath id="z25796c16"><use href="#z25796d16"/></clipPath>
</defs>
<path style="--d:1s;" pathLength="3333" clip-path="url(#z25796c1)" d="M 119 525 L 170 526 L 308 568 L 350 571"/>
<path style="--d:2s;" pathLength="3333" clip-path="url(#z25796c2)" d="M 228 827 L 253 810 L 273 785 L 262 580 L 263 153 L 257 123 L 242 95 L 216 102 L 133 143"/>
<path style="--d:3s;" pathLength="3333" clip-path="url(#z25796c3)" d="M 44 278 L 87 275 L 300 427 L 352 458"/>
<path style="--d:4s;" pathLength="3333" clip-path="url(#z25796c4)" d="M 605 873 L 642 837 L 640 728 L 625 716"/>
<path style="--d:5s;" pathLength="3333" clip-path="url(#z25796c5)" d="M 675 793 L 687 803 L 744 817 L 774 823 L 798 820"/>
<path style="--d:6s;" pathLength="3333" clip-path="url(#z25796c6)" d="M 483 676 L 511 667 L 770 722 L 815 726 L 833 718 L 846 699 L 792 635"/>
<path style="--d:7s;" pathLength="3333" clip-path="url(#z25796c7)" d="M 426 683 L 455 658 L 462 640 L 460 498 L 445 359 L 423 262 L 386 165 L 345 83 L 295 13"/>
<path style="--d:8s;" pathLength="3333" clip-path="url(#z25796c8)" d="M 537 566 L 556 567 L 692 616 L 722 623 L 742 620"/>
<path style="--d:9s;" pathLength="3333" clip-path="url(#z25796c9)" d="M 602 665 L 624 646 L 625 564 L 639 534 L 653 525 L 705 515 L 753 529 L 767 541 L 780 598"/>
<path style="--d:10s;" pathLength="3333" clip-path="url(#z25796c10)" d="M 503 441 L 530 409 L 565 253"/>
<path style="--d:11s;" pathLength="3333" clip-path="url(#z25796c11)" d="M 544 437 L 566 432 L 749 468 L 783 466 L 801 457 L 816 435 L 764 288 L 768 270"/>
<path style="--d:12s;" pathLength="3333" clip-path="url(#z25796c12)" d="M 473 341 L 521 338 L 724 375 L 850 389 L 886 390 L 933 378"/>
<path style="--d:13s;" pathLength="3333" clip-path="url(#z25796c13)" d="M 641 429 L 661 412 L 659 333 L 654 317 L 643 309"/>
<path style="--d:14s;" pathLength="3333" clip-path="url(#z25796c14)" d="M 583 272 L 587 278 L 736 303"/>
<path style="--d:15s;" pathLength="3333" clip-path="url(#z25796c15)" d="M 474 156 L 516 145 L 774 189 L 802 182 L 816 161 L 796 71 L 770 5 L 753 -17 L 724 -37 L 652 3"/>
<path style="--d:16s;" pathLength="3333" clip-path="url(#z25796c16)" d="M 610 266 L 637 229 L 605 133 L 578 82 L 554 49 L 501 3 L 457 -20 L 410 -33"/>
</svg>