<svg id="z23456" class="acjk" viewBox="0 0 1024 1024" xmlns="http://www.w3.org/2000/svg">
<style>
<![CDATA[
@keyframes zk {
	to {
		stroke-dashoffset:0;
	}
}
svg.acjk path[clip-path] {
	--t:0.8s;
	animation:zk var(--t) linear forwards var(--d);
	stroke-dasharray:3337;
	stroke-dashoffset:3339;
	stroke-width:128;
	stroke-linecap:round;
	stroke-linejoin:round;
	fill:none;
	stroke:#000;
}
svg.acjk path[id] {fill:#ccc;}
]]>
</style>
  <path id="z23456d1" d="M 439 812 Q 490 766 530 750 Q 546 749 555 764 Q 559 779 555 796 Q 537 839 473 850 Q 434 859 420 853 Q 414 852 418 838 Q 421 825 439 812 Z"/>
  <path id="z23456d2" d="M 286 678 Q 285 681 285 683 Q 273 707 262 715 Q 243 730 241 704 Q 247 667 187 602 Q 166 578 195 523 Q 210 496 230 524 Q 246 548 258 584 Q 273 627 283 653 L 286 678 Z"/>
  <path id="z23456d3" d="M 283 653 Q 311 634 341 641 Q 488 687 670 703 Q 701 707 713 704 Q 729 695 727 689 Q 727 686 698 623 Q 691 610 697 605 Q 704 601 722 611 Q 777 642 821 651 Q 857 658 857 667 Q 856 677 784 734 Q 757 755 684 738 Q 543 719 386 692 Q 337 685 287 679 Q 286 679 286 678 C 256 673 256 667 283 653 Z"/>
  <path id="z23456d4" d="M 470 432 Q 528 445 591 457 Q 649 470 659 478 Q 666 485 663 493 Q 656 503 630 511 Q 602 517 575 506 Q 527 490 477 476 L 420 461 Q 344 446 261 438 Q 227 432 251 417 Q 284 396 369 412 Q 390 416 414 420 L 470 432 Z"/>
  <path id="z23456d5" d="M 477 476 Q 477 480 478 482 Q 482 515 499 551 Q 506 561 498 570 Q 482 589 447 606 Q 428 616 410 613 Q 391 607 404 589 Q 429 558 426 527 Q 423 493 420 461 L 414 420 Q 381 249 313 163 Q 247 99 174 55 Q 161 51 158 46 Q 154 40 169 38 Q 209 34 308 100 Q 428 185 470 432 L 477 476 Z"/>
  <path id="z23456d6" d="M 507 122 Q 513 79 547 53 Q 604 14 783 27 Q 867 33 899 51 Q 929 67 915 98 Q 897 140 883 213 Q 882 229 873 234 Q 866 238 862 218 Q 849 128 835 112 Q 805 81 686 73 Q 619 73 591 83 Q 566 95 559 111 Q 553 126 551 154 L 551 200 Q 555 270 570 303 Q 582 333 562 350 Q 511 387 496 383 Q 480 376 488 360 Q 509 323 505 267 Q 504 201 505 160 L 507 122 Z"/>
  <path id="z23456d7" d="M 505 160 Q 424 99 422 93 Q 418 84 429 84 Q 442 84 507 122 L 551 154 Q 630 214 694 277 Q 724 311 747 325 Q 757 332 756 345 Q 755 357 735 382 Q 716 403 700 406 Q 684 407 686 388 Q 692 360 677 340 Q 631 274 570 218 Q 560 211 551 200 L 505 160 Z"/>
  <path id="z23456d8" d="M 624 579 Q 685 515 706 513 Q 719 512 724 529 Q 725 541 716 559 Q 706 575 681 585 Q 644 601 627 604 Q 618 605 618 595 Q 617 588 624 579 Z"/>
<defs>
  <clipPath id="z23456c1"><use href="#z23456d1"/></clipPath>
  <clipPath id="z23456c2"><use href="#z23456d2"/></clipPath>
  <clipPath id="z23456c3"><use href="#z23456d3"/></clipPath>
  <clipPath id="z23456c4"><use href="#z23456d4"/></clipPath>
  <clipPath id="z23456c5"><use href="#z23456d5"/></clipPath>
  <clipPath id="z23456c6"><use href="#z23456d6"/></clipPath>
  <clipPath id="z23456c7"><use href="#z23456d7"/></clipPath>
  <clipPath id="z23456c8"><use href="#z23456d8"/></clipPath>
</defs>
<path style="--d:1s;" pathLength="3333" clip-path="url(#z23456c1)" d="M 427 844 L 498 808 L 535 773"/>
<path style="--d:2s;" pathLength="3333" clip-path="url(#z23456c2)" d="M 252 709 L 262 675 L 216 578 L 211 527"/>
<path style="--d:3s;" pathLength="3333" clip-path="url(#z23456c3)" d="M 294 671 L 302 663 L 331 661 L 494 695 L 716 725 L 753 712 L 773 684 L 702 611"/>
<path style="--d:4s;" pathLength="3333" clip-path="url(#z23456c4)" d="M 253 429 L 280 423 L 337 426 L 431 443 L 609 488 L 652 488"/>
<path style="--d:5s;" pathLength="3333" clip-path="url(#z23456c5)" d="M 412 600 L 443 579 L 461 556 L 430 368 L 389 243 L 349 172 L 309 128 L 254 86 L 190 51 L 165 44"/>
<path style="--d:6s;" pathLength="3333" clip-path="url(#z23456c6)" d="M 500 369 L 539 320 L 528 223 L 531 119 L 547 85 L 578 63 L 623 52 L 706 48 L 791 57 L 862 80 L 872 87 L 872 226"/>
<path style="--d:7s;" pathLength="3333" clip-path="url(#z23456c7)" d="M 698 393 L 712 371 L 717 346 L 681 300 L 619 235 L 515 146 L 428 91"/>
<path style="--d:8s;" pathLength="3333" clip-path="url(#z23456c8)" d="M 629 593 L 687 554 L 707 530"/>
</svg>