<svg id="z20083" class="acjk" viewBox="0 0 1024 1024" xmlns="http://www.w3.org/2000/svg">
<style>
<![CDATA[
@keyframes zk {
	to {
		stroke-dashoffset:0;
	}
}
svg.acjk path[clip-path] {
	--t:0.8s;
	animation:zk var(--t) linear forwards var(--d);
	stroke-dasharray:3337;
	stroke-dashoffset:3339;
	stroke-width:128;
	stroke-linecap:round;
	stroke-linejoin:round;
	fill:none;
	stroke:#000;
}
svg.acjk path[id] {fill:#ccc;}
]]>
</style>
  <path id="z20083d1" d="M 375 792 Q 330 752 189 691 Q 185 684 189 680 Q 228 680 374 732 Q 405 751 469 762 Q 485 763 488 770 Q 492 780 481 790 Q 427 832 395 828 Q 388 824 388 814 Q 387 801 375 792 Z"/>
  <path id="z20083d2" d="M 168 592 Q 213 535 227 532 Q 236 531 241 541 Q 247 553 243 577 Q 242 593 219 608 Q 167 639 152 635 Q 148 632 147 621 Q 148 612 168 592 Z"/>
  <path id="z20083d3" d="M 283 647 Q 322 581 343 576 Q 355 573 362 588 Q 366 598 360 618 Q 354 634 334 645 Q 304 664 291 670 Q 284 673 281 663 Q 278 656 283 647 Z"/>
  <path id="z20083d4" d="M 468 677 Q 453 647 409 588 Q 402 575 416 577 Q 453 601 474 618 Q 523 658 539 667 Q 557 676 547 690 Q 535 703 512 714 Q 493 724 482 721 Q 472 720 475 708 Q 479 693 468 677 Z"/>
  <path id="z20083d5" d="M 375 372 Q 456 453 492 468 Q 510 475 503 489 Q 499 504 438 535 Q 420 542 400 534 Q 348 515 269 490 Q 248 483 198 484 Q 176 485 185 466 Q 192 454 209 444 Q 236 429 271 449 Q 388 500 402 490 Q 414 483 408 469 Q 386 430 360 383 C 345 357 354 351 375 372 Z"/>
  <path id="z20083d6" d="M 403 329 Q 394 359 375 372 L 360 383 Q 351 387 341 391 Q 322 398 312 392 Q 299 385 313 373 Q 344 349 355 311 L 364 273 Q 388 153 357 81 Q 344 57 312 63 Q 276 70 244 78 Q 232 81 237 70 Q 243 63 263 50 Q 306 17 322 -9 Q 332 -25 348 -23 Q 361 -22 386 3 Q 458 82 413 297 L 403 329 Z"/>
  <path id="z20083d7" d="M 413 297 Q 426 304 443 311 Q 474 324 497 343 Q 510 350 510 360 Q 504 366 491 363 Q 448 347 403 329 L 355 311 Q 264 280 166 246 Q 144 237 104 237 Q 91 236 89 224 Q 88 211 98 202 Q 122 186 157 168 Q 167 165 180 175 Q 238 221 364 273 L 413 297 Z"/>
  <path id="z20083d8" d="M 977 37 Q 993 53 973 84 Q 951 139 940 212 Q 939 222 931 232 Q 919 238 917 212 Q 910 187 902 142 Q 895 100 883 83 Q 876 70 851 65 Q 752 41 687 66 Q 651 78 639 119 Q 618 186 633 421 Q 645 644 672 686 Q 690 731 597 760 Q 594 761 592 761 Q 571 765 563 756 Q 554 746 562 736 Q 584 715 586 640 Q 571 199 589 108 Q 598 62 642 31 Q 721 -20 893 3 Q 902 6 911 7 Q 957 19 977 37 Z"/>
<defs>
  <clipPath id="z20083c1"><use href="#z20083d1"/></clipPath>
  <clipPath id="z20083c2"><use href="#z20083d2"/></clipPath>
  <clipPath id="z20083c3"><use href="#z20083d3"/></clipPath>
  <clipPath id="z20083c4"><use href="#z20083d4"/></clipPath>
  <clipPath id="z20083c5"><use href="#z20083d5"/></clipPath>
  <clipPath id="z20083c6"><use href="#z20083d6"/></clipPath>
  <clipPath id="z20083c7"><use href="#z20083d7"/></clipPath>
  <clipPath id="z20083c8"><use href="#z20083d8"/></clipPath>
</defs>
<path style="--d:1s;" pathLength="3333" clip-path="url(#z20083c1)" d="M 478 775 L 418 787 L 317 730 L 192 686"/>
<path style="--d:2s;" pathLength="3333" clip-path="url(#z20083c2)" d="M 156 626 L 217 575 L 229 543"/>
<path style="--d:3s;" pathLength="3333" clip-path="url(#z20083c3)" d="M 291 660 L 333 616 L 346 592"/>
<path style="--d:4s;" pathLength="3333" clip-path="url(#z20083c4)" d="M 536 681 L 505 683 L 420 587"/>
<path style="--d:5s;" pathLength="3333" clip-path="url(#z20083c5)" d="M 193 474 L 215 464 L 242 462 L 375 507 L 420 511 L 448 487 L 377 387 L 369 387"/>
<path style="--d:6s;" pathLength="3333" clip-path="url(#z20083c6)" d="M 316 383 L 348 367 L 364 350 L 390 281 L 402 180 L 394 93 L 373 44 L 349 24 L 244 71"/>
<path style="--d:7s;" pathLength="3333" clip-path="url(#z20083c7)" d="M 104 222 L 162 207 L 504 357"/>
<path style="--d:8s;" pathLength="3333" clip-path="url(#z20083c8)" d="M 572 746 L 600 731 L 626 694 L 611 529 L 603 223 L 612 121 L 631 75 L 670 45 L 740 26 L 839 29 L 900 44 L 928 64 L 928 223"/>
</svg>