<svg id="z22447" class="acjk" viewBox="0 0 1024 1024" xmlns="http://www.w3.org/2000/svg">
<style>
<![CDATA[
@keyframes zk {
	to {
		stroke-dashoffset:0;
	}
}
svg.acjk path[clip-path] {
	--t:0.8s;
	animation:zk var(--t) linear forwards var(--d);
	stroke-dasharray:3337;
	stroke-dashoffset:3339;
	stroke-width:128;
	stroke-linecap:round;
	stroke-linejoin:round;
	fill:none;
	stroke:#000;
}
svg.acjk path[id] {fill:#ccc;}
]]>
</style>
  <path id="z22447d1" d="M 269 466 Q 278 470 294 476 Q 327 488 332 492 Q 339 502 333 508 Q 327 515 313 517 Q 288 523 270 517 L 221 497 Q 160 472 112 461 Q 80 451 106 439 Q 141 425 221 451 L 269 466 Z"/>
  <path id="z22447d2" d="M 263 296 L 269 466 L 270 517 Q 270 592 289 698 Q 290 702 286 709 Q 273 726 239 739 Q 199 754 186 739 Q 184 737 184 735 Q 181 727 195 706 Q 215 674 215 655 Q 220 579 221 497 L 221 451 Q 221 398 220 276 C 220 246 262 266 263 296 Z"/>
  <path id="z22447d3" d="M 220 276 Q 104 231 83 227 Q 71 225 71 214 Q 70 204 76 197 Q 86 189 141 168 Q 151 167 162 175 Q 172 188 200 208 L 294 274 Q 347 313 347 326 Q 343 328 337 327 Q 325 327 263 296 L 220 276 Z"/>
  <path id="z22447d4" d="M 710 482 Q 764 497 855 514 Q 864 512 874 525 Q 874 539 849 548 Q 823 563 768 550 Q 730 541 714 531 L 668 519 L 615 508 Q 586 504 552 496 Q 523 490 547 474 Q 574 457 612 461 L 662 472 L 710 482 Z"/>
  <path id="z22447d5" d="M 702 435 Q 706 466 710 482 L 714 531 Q 715 561 717 582 Q 723 694 737 735 Q 741 745 733 752 Q 686 791 655 780 Q 637 774 651 760 Q 675 735 675 708 Q 676 604 668 519 L 662 472 Q 645 335 557 239 Q 519 209 519 206 Q 515 200 529 201 Q 559 201 620 255 Q 682 310 696 409 L 702 435 Z"/>
  <path id="z22447d6" d="M 696 409 Q 754 326 821 212 Q 831 192 842 186 Q 848 184 857 190 Q 868 198 866 235 Q 866 295 702 435 C 679 455 679 434 696 409 Z"/>
  <path id="z22447d7" d="M 426 659 Q 426 647 445 618 Q 470 582 488 570 Q 495 568 501 570 Q 517 574 517 600 Q 515 619 502 632 Q 493 641 450 665 Q 437 671 431 668 Q 427 668 426 659 Z"/>
  <path id="z22447d8" d="M 456 177 Q 463 182 468 188 Q 504 223 460 286 Q 435 335 484 400 Q 486 404 490 409 Q 507 424 492 437 Q 476 449 447 459 Q 430 466 398 441 Q 341 412 329 412 Q 323 413 321 408 Q 321 404 327 400 Q 357 388 408 410 Q 416 413 423 402 Q 441 386 425 363 Q 402 333 418 294 L 443 244 Q 452 221 448 204 Q 447 198 439 182 C 426 155 433 157 456 177 Z"/>
  <path id="z22447d9" d="M 439 182 Q 423 186 393 183 Q 364 180 347 184 Q 330 188 327 180 Q 323 171 338 157 Q 357 139 411 147 Q 452 152 512 121 L 739 6 Q 772 -14 823 7 L 949 55 Q 968 61 968 70.5 Q 968 80 917 80 Q 731 86 706 92 L 456 177 L 439 182 Z"/>
<defs>
  <clipPath id="z22447c1"><use href="#z22447d1"/></clipPath>
  <clipPath id="z22447c2"><use href="#z22447d2"/></clipPath>
  <clipPath id="z22447c3"><use href="#z22447d3"/></clipPath>
  <clipPath id="z22447c4"><use href="#z22447d4"/></clipPath>
  <clipPath id="z22447c5"><use href="#z22447d5"/></clipPath>
  <clipPath id="z22447c6"><use href="#z22447d6"/></clipPath>
  <clipPath id="z22447c7"><use href="#z22447d7"/></clipPath>
  <clipPath id="z22447c8"><use href="#z22447d8"/></clipPath>
  <clipPath id="z22447c9"><use href="#z22447d9"/></clipPath>
</defs>
<path style="--d:1s;" pathLength="3333" clip-path="url(#z22447c1)" d="M 106 451 L 172 457 L 279 495 L 324 501"/>
<path style="--d:2s;" pathLength="3333" clip-path="url(#z22447c2)" d="M 197 731 L 234 706 L 247 691 L 249 678 L 243 320 L 236 298 L 224 287"/>
<path style="--d:3s;" pathLength="3333" clip-path="url(#z22447c3)" d="M 83 215 L 96 209 L 141 207 L 295 292 L 342 324"/>
<path style="--d:4s;" pathLength="3333" clip-path="url(#z22447c4)" d="M 548 485 L 581 481 L 626 487 L 797 530 L 836 532 L 863 526"/>
<path style="--d:5s;" pathLength="3333" clip-path="url(#z22447c5)" d="M 655 770 L 679 760 L 704 728 L 688 490 L 673 404 L 653 343 L 628 296 L 573 235 L 524 204"/>
<path style="--d:6s;" pathLength="3333" clip-path="url(#z22447c6)" d="M 711 426 L 710 410 L 762 352 L 818 276 L 843 224 L 846 199"/>
<path style="--d:7s;" pathLength="3333" clip-path="url(#z22447c7)" d="M 436 659 L 485 611 L 495 586"/>
<path style="--d:8s;" pathLength="3333" clip-path="url(#z22447c8)" d="M 327 406 L 367 410 L 416 431 L 438 430 L 453 420 L 451 385 L 431 329 L 433 307 L 460 253 L 467 219 L 457 193 L 445 187"/>
<path style="--d:9s;" pathLength="3333" clip-path="url(#z22447c9)" d="M 336 175 L 358 164 L 431 165 L 488 150 L 704 59 L 773 41 L 961 69"/>
</svg>