<svg id="z22484" class="acjk" viewBox="0 0 1024 1024" xmlns="http://www.w3.org/2000/svg">
<style>
<![CDATA[
@keyframes zk {
	to {
		stroke-dashoffset:0;
	}
}
svg.acjk path[clip-path] {
	--t:0.8s;
	animation:zk var(--t) linear forwards var(--d);
	stroke-dasharray:3337;
	stroke-dashoffset:3339;
	stroke-width:128;
	stroke-linecap:round;
	stroke-linejoin:round;
	fill:none;
	stroke:#000;
}
svg.acjk path[id] {fill:#ccc;}
]]>
</style>
  <path id="z22484d1" d="M 274 466 Q 364 499 366 501 Q 373 510 368 517 Q 361 527 331 531 Q 301 534 275 519 L 228 498 Q 156 476 113 465 Q 79 455 105 442 Q 148 423 200 443 Q 213 447 228 452 L 274 466 Z"/>
  <path id="z22484d2" d="M 267 274 Q 270 373 274 466 L 275 519 Q 278 651 297 725 Q 301 737 279 752 Q 242 771 217 775 Q 201 778 192 769 Q 185 762 193 745 Q 223 702 223 673 Q 227 589 228 498 L 228 452 Q 227 359 223 257 C 222 227 266 244 267 274 Z"/>
  <path id="z22484d3" d="M 223 257 Q 106 212 73 209 Q 60 206 59 196 Q 58 181 69 174 Q 94 161 129 144 Q 141 141 152 152 Q 260 222 369 294 Q 382 304 381 313 Q 375 317 363 314 Q 317 295 267 274 L 223 257 Z"/>
  <path id="z22484d4" d="M 623 574 Q 699 587 820 593 Q 871 593 877 603 Q 881 615 865 627 Q 808 663 755 643 Q 701 631 624 613 L 577 604 Q 498 591 406 573 Q 387 570 402 555 Q 430 530 468 540 Q 517 556 576 566 L 623 574 Z"/>
  <path id="z22484d5" d="M 461 420 Q 442 439 410 437 Q 397 433 402 421 Q 450 316 401 141 Q 371 66 403 26 Q 410 13 420 18 Q 456 42 460 154 Q 469 344 474 385 Q 474 389 474 394 C 475 409 475 409 461 420 Z"/>
  <path id="z22484d6" d="M 622 427 Q 722 449 746 439 Q 759 432 758 403 Q 773 228 762 90 Q 761 62 745 57 Q 738 54 694 61 Q 681 65 682 57 Q 683 48 699 37 Q 727 7 750 -24 Q 763 -40 777 -40 Q 793 -36 815 13 Q 842 62 837 114 Q 830 235 821 348 Q 817 391 836 427 Q 849 443 833 458 Q 814 474 774 490 Q 753 499 692 473 Q 658 464 622 453 L 576 443 Q 501 427 461 420 C 431 415 445 388 474 394 Q 484 395 498 399 Q 538 409 575 417 L 622 427 Z"/>
  <path id="z22484d7" d="M 622 309 Q 656 316 688 321 Q 710 325 701 337 Q 691 350 667 354 Q 648 355 622 348 L 573 333 Q 537 323 506 312 Q 490 308 510 295 Q 516 292 573 299 L 622 309 Z"/>
  <path id="z22484d8" d="M 621 203 Q 652 209 683 213 Q 705 217 697 229 Q 687 242 663 247 Q 647 248 621 242 L 571 228 Q 532 218 499 208 Q 483 204 502 191 Q 508 187 570 194 L 621 203 Z"/>
  <path id="z22484d9" d="M 570 194 Q 570 56 585 31 Q 598 18 606 36 Q 618 66 621 203 L 621 242 Q 622 273 622 309 L 622 348 Q 622 387 622 427 L 622 453 Q 622 520 623 574 L 624 613 Q 627 749 646 779 Q 653 794 635 808 Q 613 824 574 835 Q 558 839 546 827 Q 536 820 548 809 Q 575 785 577 753 Q 577 695 577 604 L 576 566 Q 576 511 576 443 L 575 417 Q 574 371 573 333 L 573 299 Q 572 259 571 228 L 570 194 Z"/>
  <path id="z22484d10" d="M 726 742 Q 745 727 766 708 Q 779 698 792 699 Q 802 700 805 712 Q 808 725 799 751 Q 789 775 719 783 Q 706 786 700 783 Q 696 779 698 768 Q 702 758 726 742 Z"/>
<defs>
  <clipPath id="z22484c1"><use href="#z22484d1"/></clipPath>
  <clipPath id="z22484c2"><use href="#z22484d2"/></clipPath>
  <clipPath id="z22484c3"><use href="#z22484d3"/></clipPath>
  <clipPath id="z22484c4"><use href="#z22484d4"/></clipPath>
  <clipPath id="z22484c5"><use href="#z22484d5"/></clipPath>
  <clipPath id="z22484c6"><use href="#z22484d6"/></clipPath>
  <clipPath id="z22484c7"><use href="#z22484d7"/></clipPath>
  <clipPath id="z22484c8"><use href="#z22484d8"/></clipPath>
  <clipPath id="z22484c9"><use href="#z22484d9"/></clipPath>
  <clipPath id="z22484c10"><use href="#z22484d10"/></clipPath>
</defs>
<path style="--d:1s;" pathLength="3333" clip-path="url(#z22484c1)" d="M 106 454 L 157 454 L 312 507 L 361 509"/>
<path style="--d:2s;" pathLength="3333" clip-path="url(#z22484c2)" d="M 204 759 L 252 721 L 255 701 L 246 289 L 228 265"/>
<path style="--d:3s;" pathLength="3333" clip-path="url(#z22484c3)" d="M 74 194 L 110 186 L 138 187 L 376 309"/>
<path style="--d:4s;" pathLength="3333" clip-path="url(#z22484c4)" d="M 404 564 L 457 560 L 782 621 L 818 620 L 868 608"/>
<path style="--d:5s;" pathLength="3333" clip-path="url(#z22484c5)" d="M 411 426 L 439 403 L 447 360 L 442 214 L 415 29"/>
<path style="--d:6s;" pathLength="3333" clip-path="url(#z22484c6)" d="M 467 415 L 488 410 L 741 466 L 763 463 L 795 435 L 790 362 L 801 105 L 795 59 L 769 21 L 689 55"/>
<path style="--d:7s;" pathLength="3333" clip-path="url(#z22484c7)" d="M 507 303 L 634 332 L 670 336 L 692 331"/>
<path style="--d:8s;" pathLength="3333" clip-path="url(#z22484c8)" d="M 500 199 L 557 206 L 646 228 L 687 223"/>
<path style="--d:9s;" pathLength="3333" clip-path="url(#z22484c9)" d="M 552 819 L 575 813 L 608 781 L 600 630 L 595 37"/>
<path style="--d:10s;" pathLength="3333" clip-path="url(#z22484c10)" d="M 706 775 L 769 743 L 790 714"/>
</svg>