<svg id="z29273" class="acjk" viewBox="0 0 1024 1024" xmlns="http://www.w3.org/2000/svg">
<style>
<![CDATA[
@keyframes zk {
	to {
		stroke-dashoffset:0;
	}
}
svg.acjk path[clip-path] {
	--t:0.8s;
	animation:zk var(--t) linear forwards var(--d);
	stroke-dasharray:3337;
	stroke-dashoffset:3339;
	stroke-width:128;
	stroke-linecap:round;
	stroke-linejoin:round;
	fill:none;
	stroke:#000;
}
svg.acjk path[id] {fill:#ccc;}
]]>
</style>
  <path id="z29273d1" d="M 574 716 Q 703 749 708 753 Q 717 763 712 771 Q 703 784 672 791 Q 650 795 543 761 Q 432 734 385 728 Q 346 721 375 703 Q 420 679 483 696 Q 505 702 530 706 L 574 716 Z"/>
  <path id="z29273d2" d="M 605 487 Q 657 500 833 498 Q 858 497 866 511 Q 873 521 851 535 Q 788 575 734 558 Q 623 536 606 529 L 549 519 Q 441 500 337 471 Q 306 459 313 489 Q 329 564 344 593 Q 354 605 348 616 Q 341 628 302 645 Q 283 655 271 648 Q 259 638 270 623 Q 286 586 267 502 Q 263 480 236 454 Q 226 442 228 427 Q 232 414 251 400 Q 266 391 280 405 Q 361 451 507 472 L 605 487 Z"/>
  <path id="z29273d3" d="M 549 431 Q 549 296 549 100 Q 548 66 537 52 Q 525 45 496 53 Q 468 63 433 72 Q 420 76 421 68 Q 421 59 432 50 Q 504 -7 550 -53 Q 562 -63 576 -46 Q 618 8 614 93 Q 601 360 605 487 L 606 529 Q 607 590 613 648 Q 620 676 613 687 Q 604 700 574 716 C 548 732 521 735 530 706 Q 546 655 548 636 Q 548 579 549 519 L 549 431 Z"/>
  <path id="z29273d4" d="M 507 472 Q 485 397 356 274 Q 245 180 143 113 Q 124 100 141 97 Q 174 94 280 151 Q 362 202 454 301 Q 485 337 549 431 C 586 486 527 528 507 472 Z"/>
<defs>
  <clipPath id="z29273c1"><use href="#z29273d1"/></clipPath>
  <clipPath id="z29273c2"><use href="#z29273d2"/></clipPath>
  <clipPath id="z29273c3"><use href="#z29273d3"/></clipPath>
  <clipPath id="z29273c4"><use href="#z29273d4"/></clipPath>
</defs>
<path style="--d:1s;" pathLength="3333" clip-path="url(#z29273c1)" d="M 377 717 L 400 711 L 439 713 L 657 765 L 702 763"/>
<path style="--d:2s;" pathLength="3333" clip-path="url(#z29273c2)" d="M 281 635 L 310 604 L 283 450 L 297 446 L 499 491 L 728 528 L 790 529 L 853 516"/>
<path style="--d:3s;" pathLength="3333" clip-path="url(#z29273c3)" d="M 539 698 L 569 683 L 580 663 L 580 69 L 571 32 L 554 8 L 509 21 L 429 65"/>
<path style="--d:4s;" pathLength="3333" clip-path="url(#z29273c4)" d="M 543 471 L 466 355 L 371 253 L 241 153 L 141 105"/>
</svg>