<svg id="z23526" class="acjk" viewBox="0 0 1024 1024" xmlns="http://www.w3.org/2000/svg">
<style>
<![CDATA[
@keyframes zk {
	to {
		stroke-dashoffset:0;
	}
}
svg.acjk path[clip-path] {
	--t:0.8s;
	animation:zk var(--t) linear forwards var(--d);
	stroke-dasharray:3337;
	stroke-dashoffset:3339;
	stroke-width:128;
	stroke-linecap:round;
	stroke-linejoin:round;
	fill:none;
	stroke:#000;
}
svg.acjk path[id] {fill:#ccc;}
]]>
</style>
  <path id="z23526d1" d="M 443 829 Q 467 811 492 790 Q 507 778 522 781 Q 532 782 537 796 Q 540 812 528 840 Q 516 867 434 876 Q 418 879 412 875 Q 408 871 410 858 Q 414 848 443 829 Z"/>
  <path id="z23526d2" d="M 269 733 Q 268 734 268 737 Q 258 759 248 767 Q 232 780 229 757 Q 229 715 179 664 Q 161 643 185 594 Q 201 572 215 595 Q 231 616 242 649 Q 254 683 264 704 C 272 722 272 722 269 733 Z"/>
  <path id="z23526d3" d="M 264 704 Q 288 692 323 699 Q 476 744 722 758 Q 737 758 746 757 Q 759 753 758 745 Q 758 742 719 677 Q 709 664 715 660 Q 722 656 740 665 Q 797 695 841 701 Q 878 705 878 716 Q 877 726 812 782 Q 787 806 709 790 Q 469 760 374 747 Q 322 738 269 733 C 239 730 235 713 264 704 Z"/>
  <path id="z23526d4" d="M 378 653 Q 369 663 356 670 Q 346 674 338 674 Q 329 670 335 655 Q 354 609 349 561 L 344 530 Q 337 488 316 468 Q 300 455 306 443 Q 313 430 327 420 Q 333 416 352 423 Q 380 447 517 463 Q 568 469 583 465 C 613 462 604 495 574 495 Q 534 495 499 491 L 460 487 Q 423 484 389 477 Q 370 473 375 497 Q 376 516 380 534 L 384 564 Q 387 589 391 613 Q 392 620 392 625 C 393 639 393 639 378 653 Z"/>
  <path id="z23526d5" d="M 670 592 Q 679 616 697 634 Q 709 644 698 658 Q 685 673 646 696 Q 631 703 572 689 Q 476 671 378 653 C 348 648 363 617 392 625 Q 423 635 469 642 L 498 648 Q 591 669 609 656 Q 621 647 618 631 Q 614 606 611 585 L 605 551 Q 599 520 595 510 Q 592 498 574 495 C 560 490 563 487 583 465 Q 596 449 609 442 Q 619 435 633 455 Q 643 471 661 552 L 670 592 Z"/>
  <path id="z23526d6" d="M 466 543 Q 463 519 460 487 C 457 457 493 462 499 491 Q 505 522 511 547 L 518 576 Q 524 618 525 619 Q 512 638 498 648 C 474 666 462 671 469 642 Q 475 621 469 571 L 466 543 Z"/>
  <path id="z23526d7" d="M 661 552 Q 749 553 856 549 Q 892 548 923 547 Q 944 546 949 555 Q 956 567 939 582 Q 879 628 837 615 Q 767 605 670 592 L 611 585 Q 566 582 518 576 L 469 571 Q 427 568 384 564 L 349 561 Q 231 552 102 542 Q 80 541 95 523 Q 110 507 128 501 Q 150 495 166 499 Q 251 518 344 530 L 380 534 Q 411 538 443 541 Q 453 542 466 543 L 511 547 Q 554 551 605 551 L 661 552 Z"/>
  <path id="z23526d8" d="M 336 382 Q 333 385 329 386 Q 320 390 311 386 Q 305 382 310 372 Q 332 285 314 196 Q 302 148 332 113 Q 341 101 349 112 Q 355 121 358 131 L 361 155 Q 361 161 362 198 L 363 222 Q 364 253 365 275 L 366 290 Q 367 353 368 354 C 369 364 362 367 336 382 Z"/>
  <path id="z23526d9" d="M 585 148 Q 586 144 590 137 Q 602 110 610 110 Q 623 111 639 140 Q 651 159 652 203 Q 645 320 668 353 Q 678 366 672 376 Q 647 400 605 420 Q 592 426 569 418 Q 479 387 336 382 C 306 381 338 352 368 354 Q 374 353 380 354 Q 480 373 552 382 Q 577 386 585 373 Q 595 360 593 319 Q 593 201 586 178 Q 585 177 585 175 C 581 157 581 157 585 148 Z"/>
  <path id="z23526d10" d="M 365 275 Q 372 269 390 272 Q 469 287 529 296 Q 548 299 541 310 Q 532 322 511 325 Q 487 328 366 290 C 348 284 348 284 365 275 Z"/>
  <path id="z23526d11" d="M 362 198 Q 366 198 373 198 Q 464 211 532 220 Q 551 223 545 234 Q 536 246 515 251 Q 496 254 363 222 C 334 215 332 198 362 198 Z"/>
  <path id="z23526d12" d="M 358 131 Q 368 130 381 131 Q 498 143 585 148 C 615 150 612 161 585 175 Q 579 179 572 180 Q 559 183 361 155 C 331 151 328 133 358 131 Z"/>
  <path id="z23526d13" d="M 384 87 Q 360 23 199 -72 Q 175 -84 203 -85 Q 270 -88 398 0 Q 399 4 451 40 Q 464 50 463 60 Q 462 73 437 86 Q 410 101 397 100 Q 390 100 384 87 Z"/>
  <path id="z23526d14" d="M 568 67 Q 614 21 668 -46 Q 684 -68 700 -74 Q 709 -75 717 -65 Q 730 -52 720 -5 Q 716 20 698 38 Q 682 51 641 70 Q 596 91 571 100 Q 562 106 559 93 Q 558 78 568 67 Z"/>
<defs>
  <clipPath id="z23526c1"><use href="#z23526d1"/></clipPath>
  <clipPath id="z23526c2"><use href="#z23526d2"/></clipPath>
  <clipPath id="z23526c3"><use href="#z23526d3"/></clipPath>
  <clipPath id="z23526c4"><use href="#z23526d4"/></clipPath>
  <clipPath id="z23526c5"><use href="#z23526d5"/></clipPath>
  <clipPath id="z23526c6"><use href="#z23526d6"/></clipPath>
  <clipPath id="z23526c7"><use href="#z23526d7"/></clipPath>
  <clipPath id="z23526c8"><use href="#z23526d8"/></clipPath>
  <clipPath id="z23526c9"><use href="#z23526d9"/></clipPath>
  <clipPath id="z23526c10"><use href="#z23526d10"/></clipPath>
  <clipPath id="z23526c11"><use href="#z23526d11"/></clipPath>
  <clipPath id="z23526c12"><use href="#z23526d12"/></clipPath>
  <clipPath id="z23526c13"><use href="#z23526d13"/></clipPath>
  <clipPath id="z23526c14"><use href="#z23526d14"/></clipPath>
</defs>
<path style="--d:1s;" pathLength="3333" clip-path="url(#z23526c1)" d="M 418 869 L 495 829 L 518 800"/>
<path style="--d:2s;" pathLength="3333" clip-path="url(#z23526c2)" d="M 239 761 L 247 729 L 235 695 L 204 643 L 200 599"/>
<path style="--d:3s;" pathLength="3333" clip-path="url(#z23526c3)" d="M 273 710 L 564 760 L 722 777 L 772 772 L 788 759 L 800 736 L 720 665"/>
<path style="--d:4s;" pathLength="3333" clip-path="url(#z23526c4)" d="M 341 666 L 360 644 L 370 610 L 351 460 L 389 458 L 551 481 L 580 472"/>
<path style="--d:5s;" pathLength="3333" clip-path="url(#z23526c5)" d="M 387 649 L 409 643 L 587 677 L 622 676 L 638 667 L 656 645 L 619 495 L 609 479 L 584 490"/>
<path style="--d:6s;" pathLength="3333" clip-path="url(#z23526c6)" d="M 477 639 L 495 620 L 497 591 L 484 517 L 466 494"/>
<path style="--d:7s;" pathLength="3333" clip-path="url(#z23526c7)" d="M 98 533 L 150 521 L 528 564 L 856 584 L 901 576 L 937 562"/>
<path style="--d:8s;" pathLength="3333" clip-path="url(#z23526c8)" d="M 317 379 L 338 352 L 344 322 L 336 170 L 341 116"/>
<path style="--d:9s;" pathLength="3333" clip-path="url(#z23526c9)" d="M 345 382 L 374 368 L 568 400 L 601 394 L 629 362 L 622 306 L 621 195 L 611 120"/>
<path style="--d:10s;" pathLength="3333" clip-path="url(#z23526c10)" d="M 373 282 L 503 309 L 533 305"/>
<path style="--d:11s;" pathLength="3333" clip-path="url(#z23526c11)" d="M 368 204 L 379 214 L 477 231 L 517 235 L 536 230"/>
<path style="--d:12s;" pathLength="3333" clip-path="url(#z23526c12)" d="M 364 136 L 374 144 L 471 156 L 567 164 L 578 155"/>
<path style="--d:13s;" pathLength="3333" clip-path="url(#z23526c13)" d="M 447 59 L 410 57 L 373 18 L 311 -27 L 248 -62 L 208 -76"/>
<path style="--d:14s;" pathLength="3333" clip-path="url(#z23526c14)" d="M 570 87 L 673 8 L 690 -21 L 701 -59"/>
</svg>