<svg id="z28789" class="acjk" viewBox="0 0 1024 1024" xmlns="http://www.w3.org/2000/svg">
<style>
<![CDATA[
@keyframes zk {
	to {
		stroke-dashoffset:0;
	}
}
svg.acjk path[clip-path] {
	--t:0.8s;
	animation:zk var(--t) linear forwards var(--d);
	stroke-dasharray:3337;
	stroke-dashoffset:3339;
	stroke-width:128;
	stroke-linecap:round;
	stroke-linejoin:round;
	fill:none;
	stroke:#000;
}
svg.acjk path[id] {fill:#ccc;}
]]>
</style>
  <path id="z28789d1" d="M 665 524 Q 701 662 750 699 Q 769 720 753 741 Q 734 757 674 788 Q 653 798 627 788 Q 506 743 340 731 Q 322 730 324 720 Q 325 711 346 704 Q 373 691 411 702 Q 510 718 604 734 Q 629 738 638 729 Q 651 714 647 684 Q 628 599 606 531 C 597 502 657 495 665 524 Z"/>
  <path id="z28789d2" d="M 320 613 Q 292 609 314 592 Q 326 582 340 574 Q 349 570 406 579 Q 490 594 565 602 Q 575 601 585 614 Q 586 626 563 636 Q 536 657 450 633 Q 446 633 442 631 Q 412 625 320 613 Z"/>
  <path id="z28789d3" d="M 606 531 Q 458 495 337 482 Q 315 479 328 460 Q 335 450 347 446 Q 359 443 374 446 Q 470 468 678 486 Q 690 487 691 497 Q 691 504 665 524 C 645 540 635 538 606 531 Z"/>
  <path id="z28789d4" d="M 243 356 Q 273 326 303 291 Q 316 278 332 276 Q 342 276 349 289 Q 355 304 348 334 Q 342 368 242 404 Q 226 408 220 407 Q 214 403 215 390 Q 218 380 243 356 Z"/>
  <path id="z28789d5" d="M 727 427 Q 685 390 607 334 Q 598 328 602 319 Q 609 315 620 318 Q 743 369 801 384 Q 822 385 820 398 Q 819 417 802 442 Q 786 467 762 476 Q 746 479 742 458 Q 741 442 727 427 Z"/>
  <path id="z28789d6" d="M 516 287 Q 523 314 530 345 Q 534 370 542 381 Q 549 388 543 401 Q 536 410 503 422 Q 466 441 448 434 Q 435 427 446 409 Q 479 342 441 238 Q 399 123 265 57 Q 222 36 159 12 Q 129 0 163 -4 Q 185 -5 230 7 Q 288 19 336 42 Q 382 61 419 99 Q 477 159 508 256 L 516 287 Z"/>
  <path id="z28789d7" d="M 508 256 Q 596 132 706 1 Q 727 -21 761 -21 Q 879 -17 916 -11 Q 926 -8 928 -3 Q 929 3 913 11 Q 768 66 693 122 Q 609 192 516 287 C 495 308 491 280 508 256 Z"/>
<defs>
  <clipPath id="z28789c1"><use href="#z28789d1"/></clipPath>
  <clipPath id="z28789c2"><use href="#z28789d2"/></clipPath>
  <clipPath id="z28789c3"><use href="#z28789d3"/></clipPath>
  <clipPath id="z28789c4"><use href="#z28789d4"/></clipPath>
  <clipPath id="z28789c5"><use href="#z28789d5"/></clipPath>
  <clipPath id="z28789c6"><use href="#z28789d6"/></clipPath>
  <clipPath id="z28789c7"><use href="#z28789d7"/></clipPath>
</defs>
<path style="--d:1s;" pathLength="3333" clip-path="url(#z28789c1)" d="M 334 721 L 387 716 L 630 761 L 652 760 L 667 752 L 693 724 L 695 711 L 644 555 L 614 536"/>
<path style="--d:2s;" pathLength="3333" clip-path="url(#z28789c2)" d="M 315 603 L 350 595 L 527 622 L 574 616"/>
<path style="--d:3s;" pathLength="3333" clip-path="url(#z28789c3)" d="M 335 470 L 365 465 L 604 505 L 655 505 L 682 497"/>
<path style="--d:4s;" pathLength="3333" clip-path="url(#z28789c4)" d="M 224 400 L 312 332 L 331 294"/>
<path style="--d:5s;" pathLength="3333" clip-path="url(#z28789c5)" d="M 759 459 L 770 417 L 608 325"/>
<path style="--d:6s;" pathLength="3333" clip-path="url(#z28789c6)" d="M 456 421 L 498 379 L 496 345 L 473 242 L 428 153 L 385 104 L 344 73 L 250 29 L 155 3"/>
<path style="--d:7s;" pathLength="3333" clip-path="url(#z28789c7)" d="M 521 280 L 524 258 L 581 191 L 677 90 L 743 33 L 919 -3"/>
</svg>