<svg id="z28629" class="acjk" viewBox="0 0 1024 1024" xmlns="http://www.w3.org/2000/svg">
<style>
<![CDATA[
@keyframes zk {
	to {
		stroke-dashoffset:0;
	}
}
svg.acjk path[clip-path] {
	--t:0.8s;
	animation:zk var(--t) linear forwards var(--d);
	stroke-dasharray:3337;
	stroke-dashoffset:3339;
	stroke-width:128;
	stroke-linecap:round;
	stroke-linejoin:round;
	fill:none;
	stroke:#000;
}
svg.acjk path[id] {fill:#ccc;}
]]>
</style>
  <path id="z28629d1" d="M 219 707 Q 241 686 265 660 Q 278 647 296 647 Q 306 647 313 661 Q 317 676 309 707 Q 305 726 275 739 Q 205 766 192 759 Q 186 755 188 742 Q 192 729 219 707 Z"/>
  <path id="z28629d2" d="M 112 512 Q 157 463 191 449 Q 206 446 215 461 Q 221 474 218 491 Q 206 528 125 552 L 124 552 Q 106 556 97 552 Q 91 551 94 538 Q 95 526 112 512 Z"/>
  <path id="z28629d3" d="M 113 142 Q 101 138 104 122 Q 122 49 155 34 Q 162 27 171 30 Q 178 31 179 56 Q 182 92 274 361 Q 280 377 279 382 Q 278 392 269 385 Q 257 378 152 187 Q 140 165 113 142 Z"/>
  <path id="z28629d4" d="M 469 747 Q 459 751 429 756 Q 417 759 415 753 Q 409 747 418 732 Q 446 680 464 593 Q 468 568 484 550 Q 502 531 506 545 Q 507 549 508 554 L 508 576 Q 504 613 496 643 L 492 664 Q 485 704 483 719 C 479 744 479 744 469 747 Z"/>
  <path id="z28629d5" d="M 708 580 Q 708 576 710 571 Q 716 556 728 557 Q 741 558 748 573 Q 758 586 779 650 Q 795 699 829 727 Q 847 742 831 757 Q 815 773 768 798 Q 753 807 686 790 Q 665 790 552 764 Q 504 754 469 747 C 440 741 453 715 483 719 Q 490 718 496 720 Q 557 741 701 762 Q 726 765 735 760 Q 744 754 739 727 Q 720 624 712 604 Q 711 604 711 603 L 708 580 Z"/>
  <path id="z28629d6" d="M 496 643 Q 497 643 668 670 Q 689 674 681 685 Q 671 698 649 702 Q 625 705 492 664 C 463 655 466 639 496 643 Z"/>
  <path id="z28629d7" d="M 508 554 Q 515 553 529 554 Q 632 570 708 580 C 738 584 736 586 711 603 Q 704 609 691 611 Q 675 614 508 576 C 479 569 478 556 508 554 Z"/>
  <path id="z28629d8" d="M 463 381 Q 429 382 400 384 Q 372 384 388 401 Q 425 456 461 498 Q 471 511 470 517 Q 469 527 439 552 Q 426 562 412 560 Q 403 557 408 546 Q 426 504 351 404 Q 345 400 338 392 Q 323 382 324 373 Q 327 358 338 344 Q 345 337 355 341 Q 370 350 450 362 C 480 367 493 380 463 381 Z"/>
  <path id="z28629d9" d="M 508 283 Q 471 276 428 261 Q 409 252 421 270 Q 521 405 559 435 Q 569 444 564 452 Q 555 468 527 485 Q 514 492 505 490 Q 496 487 499 474 Q 500 449 463 381 L 450 362 Q 374 257 355 246 Q 343 239 346 226 Q 347 216 370 199 Q 380 189 392 200 Q 450 242 516 267 C 544 278 537 289 508 283 Z"/>
  <path id="z28629d10" d="M 516 267 Q 532 233 545 227 Q 555 223 564 234 Q 568 244 567 261 Q 563 279 546 295 Q 519 323 506 332 Q 499 335 496 327 Q 492 321 496 313 Q 500 298 508 283 L 516 267 Z"/>
  <path id="z28629d11" d="M 725 420 Q 685 420 654 420 Q 630 420 643 434 Q 674 474 703 504 Q 713 516 712 521 Q 711 531 684 556 Q 672 566 659 564 Q 650 563 655 551 Q 662 526 621 456 Q 614 441 595 428 Q 582 418 583 409 Q 584 396 595 382 Q 602 373 612 378 Q 631 388 699 400 Q 706 401 712 400 C 742 399 755 420 725 420 Z"/>
  <path id="z28629d12" d="M 780 309 Q 738 303 689 291 Q 661 281 680 304 Q 768 421 824 469 Q 834 478 829 487 Q 820 503 790 521 Q 777 530 768 527 Q 758 524 760 511 Q 761 480 725 420 L 712 400 Q 637 297 610 280 Q 597 273 599 259 Q 600 247 624 229 Q 633 219 647 229 Q 710 271 788 293 C 817 302 810 314 780 309 Z"/>
  <path id="z28629d13" d="M 788 293 Q 809 247 822 240 Q 829 237 838 245 Q 845 255 848 278 Q 851 297 830 323 Q 779 374 765 374 Q 761 373 757 363 Q 757 357 780 309 L 788 293 Z"/>
  <path id="z28629d14" d="M 341 154 Q 323 103 296 56 Q 280 28 297 -5 Q 304 -21 323 -8 Q 368 31 368 103 Q 371 133 363 155 Q 359 162 353 164 Q 346 163 341 154 Z"/>
  <path id="z28629d15" d="M 475 146 Q 499 62 522 52 Q 534 46 545 60 Q 551 70 550 91 Q 544 130 488 167 Q 481 171 476 162 Q 472 155 475 146 Z"/>
  <path id="z28629d16" d="M 633 145 Q 666 70 689 62 Q 702 58 712 73 Q 716 85 713 106 Q 701 142 644 168 Q 637 172 632 162 Q 629 155 633 145 Z"/>
  <path id="z28629d17" d="M 784 165 Q 821 113 863 41 Q 876 16 891 9 Q 900 5 909 14 Q 925 26 921 74 Q 921 119 855 159 Q 815 184 792 197 Q 783 204 779 192 Q 775 179 784 165 Z"/>
<defs>
  <clipPath id="z28629c1"><use href="#z28629d1"/></clipPath>
  <clipPath id="z28629c2"><use href="#z28629d2"/></clipPath>
  <clipPath id="z28629c3"><use href="#z28629d3"/></clipPath>
  <clipPath id="z28629c4"><use href="#z28629d4"/></clipPath>
  <clipPath id="z28629c5"><use href="#z28629d5"/></clipPath>
  <clipPath id="z28629c6"><use href="#z28629d6"/></clipPath>
  <clipPath id="z28629c7"><use href="#z28629d7"/></clipPath>
  <clipPath id="z28629c8"><use href="#z28629d8"/></clipPath>
  <clipPath id="z28629c9"><use href="#z28629d9"/></clipPath>
  <clipPath id="z28629c10"><use href="#z28629d10"/></clipPath>
  <clipPath id="z28629c11"><use href="#z28629d11"/></clipPath>
  <clipPath id="z28629c12"><use href="#z28629d12"/></clipPath>
  <clipPath id="z28629c13"><use href="#z28629d13"/></clipPath>
  <clipPath id="z28629c14"><use href="#z28629d14"/></clipPath>
  <clipPath id="z28629c15"><use href="#z28629d15"/></clipPath>
  <clipPath id="z28629c16"><use href="#z28629d16"/></clipPath>
  <clipPath id="z28629c17"><use href="#z28629d17"/></clipPath>
</defs>
<path style="--d:1s;" pathLength="3333" clip-path="url(#z28629c1)" d="M 197 751 L 268 706 L 294 667"/>
<path style="--d:2s;" pathLength="3333" clip-path="url(#z28629c2)" d="M 104 543 L 180 492 L 196 470"/>
<path style="--d:3s;" pathLength="3333" clip-path="url(#z28629c3)" d="M 166 39 L 154 68 L 150 116 L 273 379"/>
<path style="--d:4s;" pathLength="3333" clip-path="url(#z28629c4)" d="M 424 746 L 451 725 L 457 711 L 496 551"/>
<path style="--d:5s;" pathLength="3333" clip-path="url(#z28629c5)" d="M 476 742 L 496 736 L 589 760 L 700 779 L 756 775 L 782 739 L 727 575"/>
<path style="--d:6s;" pathLength="3333" clip-path="url(#z28629c6)" d="M 496 648 L 507 659 L 586 675 L 642 684 L 672 680"/>
<path style="--d:7s;" pathLength="3333" clip-path="url(#z28629c7)" d="M 513 560 L 522 567 L 573 578 L 679 594 L 693 595 L 701 587"/>
<path style="--d:8s;" pathLength="3333" clip-path="url(#z28629c8)" d="M 418 551 L 439 515 L 370 405 L 359 373 L 417 368 L 446 371 L 455 380"/>
<path style="--d:9s;" pathLength="3333" clip-path="url(#z28629c9)" d="M 509 479 L 527 448 L 467 355 L 405 277 L 400 245 L 430 244 L 491 269 L 507 268"/>
<path style="--d:10s;" pathLength="3333" clip-path="url(#z28629c10)" d="M 505 322 L 545 260 L 550 241"/>
<path style="--d:11s;" pathLength="3333" clip-path="url(#z28629c11)" d="M 665 555 L 678 534 L 679 517 L 630 443 L 616 409 L 666 405 L 708 410 L 717 418"/>
<path style="--d:12s;" pathLength="3333" clip-path="url(#z28629c12)" d="M 772 515 L 789 482 L 741 409 L 666 315 L 658 276 L 685 272 L 773 299 L 779 294"/>
<path style="--d:13s;" pathLength="3333" clip-path="url(#z28629c13)" d="M 766 365 L 814 302 L 826 252"/>
<path style="--d:14s;" pathLength="3333" clip-path="url(#z28629c14)" d="M 352 153 L 336 68 L 311 1"/>
<path style="--d:15s;" pathLength="3333" clip-path="url(#z28629c15)" d="M 486 155 L 521 97 L 529 68"/>
<path style="--d:16s;" pathLength="3333" clip-path="url(#z28629c16)" d="M 642 156 L 682 108 L 694 80"/>
<path style="--d:17s;" pathLength="3333" clip-path="url(#z28629c17)" d="M 789 185 L 875 95 L 897 23"/>
</svg>