<svg id="z21787" class="acjk" viewBox="0 0 1024 1024" xmlns="http://www.w3.org/2000/svg">
<style>
<![CDATA[
@keyframes zk {
	to {
		stroke-dashoffset:0;
	}
}
svg.acjk path[clip-path] {
	--t:0.8s;
	animation:zk var(--t) linear forwards var(--d);
	stroke-dasharray:3337;
	stroke-dashoffset:3339;
	stroke-width:128;
	stroke-linecap:round;
	stroke-linejoin:round;
	fill:none;
	stroke:#000;
}
svg.acjk path[id] {fill:#ccc;}
]]>
</style>
  <path id="z21787d1" d="M 149 569 Q 136 576 108 582 Q 95 586 91 581 Q 84 575 92 557 Q 120 487 132 374 Q 133 340 152 317 Q 168 293 176 309 Q 183 327 182 359 L 178 396 Q 165 508 163 539 C 161 563 161 563 149 569 Z"/>
  <path id="z21787d2" d="M 317 415 Q 335 515 362 544 Q 386 572 360 588 Q 287 622 286 622 Q 276 622 267 615 Q 239 596 149 569 C 120 560 134 533 163 539 Q 170 540 180 543 Q 217 553 250 560 Q 272 564 277 556 Q 286 549 279 511 Q 272 468 262 418 C 256 389 312 386 317 415 Z"/>
  <path id="z21787d3" d="M 182 359 Q 228 371 332 379 Q 344 380 344 390 Q 344 399 317 415 L 262 418 L 261 418 Q 215 405 178 396 C 149 389 153 352 182 359 Z"/>
  <path id="z21787d4" d="M 634 626 Q 788 662 790 663 Q 800 670 795 680 Q 788 692 758 700 Q 733 706 637 676 L 580 662 Q 522 652 458 646 Q 421 640 447 622 Q 492 598 549 610 Q 562 614 581 616 L 634 626 Z"/>
  <path id="z21787d5" d="M 626 508 Q 651 515 747 528 Q 757 527 766 539 Q 766 549 745 559 Q 709 580 633 553 Q 630 553 629 552 L 581 541 Q 514 529 471 523 Q 444 519 466 503 Q 496 482 534 490 Q 555 496 581 499 L 626 508 Z"/>
  <path id="z21787d6" d="M 621 432 Q 624 471 626 508 L 629 552 Q 630 589 634 626 L 637 676 Q 655 772 650 781 Q 646 787 638 792 Q 602 811 578 815 Q 562 819 554 810 Q 547 803 555 787 Q 577 756 577 734 Q 578 700 580 662 L 581 616 Q 581 580 581 541 L 581 499 Q 580 465 579 425 C 578 395 619 402 621 432 Z"/>
  <path id="z21787d7" d="M 558 386 Q 660 407 827 410 Q 881 410 888 419 Q 892 431 877 443 Q 820 479 775 464 Q 714 451 621 432 L 579 425 Q 483 410 375 393 Q 356 390 370 375 Q 383 362 401 358 Q 420 354 435 358 Q 472 370 517 378 L 558 386 Z"/>
  <path id="z21787d8" d="M 557 304 Q 567 323 584 335 Q 591 339 591 348 Q 588 372 558 386 C 532 401 519 408 517 378 Q 517 302 392 186 Q 389 185 387 182 Q 350 148 258 82 Q 251 78 259 75 Q 310 75 423 161 Q 477 210 533 276 L 557 304 Z"/>
  <path id="z21787d9" d="M 662 117 Q 698 166 730 239 Q 743 267 765 285 Q 784 300 772 314 Q 759 327 728 340 Q 706 349 677 336 Q 652 326 620 317 Q 593 310 557 304 C 527 299 504 282 533 276 Q 567 266 611 278 Q 650 294 658 295 Q 679 291 670 267 Q 654 198 622 149 L 599 119 Q 533 44 397 8 Q 382 4 394 -5 Q 400 -9 443 -7 Q 551 2 633 82 L 662 117 Z"/>
  <path id="z21787d10" d="M 633 82 Q 741 -33 781 -32 Q 857 -31 920 -18 Q 953 -14 949 -4 Q 949 -1 794 45 Q 733 64 662 117 L 622 149 Q 598 170 575 192 Q 541 225 509 224 Q 493 224 490 219 Q 489 213 503 204 Q 527 191 599 119 L 633 82 Z"/>
<defs>
  <clipPath id="z21787c1"><use href="#z21787d1"/></clipPath>
  <clipPath id="z21787c2"><use href="#z21787d2"/></clipPath>
  <clipPath id="z21787c3"><use href="#z21787d3"/></clipPath>
  <clipPath id="z21787c4"><use href="#z21787d4"/></clipPath>
  <clipPath id="z21787c5"><use href="#z21787d5"/></clipPath>
  <clipPath id="z21787c6"><use href="#z21787d6"/></clipPath>
  <clipPath id="z21787c7"><use href="#z21787d7"/></clipPath>
  <clipPath id="z21787c8"><use href="#z21787d8"/></clipPath>
  <clipPath id="z21787c9"><use href="#z21787d9"/></clipPath>
  <clipPath id="z21787c10"><use href="#z21787d10"/></clipPath>
</defs>
<path style="--d:1s;" pathLength="3333" clip-path="url(#z21787c1)" d="M 98 573 L 124 550 L 133 532 L 165 316"/>
<path style="--d:2s;" pathLength="3333" clip-path="url(#z21787c2)" d="M 161 568 L 173 559 L 278 588 L 299 581 L 321 560 L 295 443 L 269 425"/>
<path style="--d:3s;" pathLength="3333" clip-path="url(#z21787c3)" d="M 186 366 L 198 382 L 259 395 L 309 397 L 334 390"/>
<path style="--d:4s;" pathLength="3333" clip-path="url(#z21787c4)" d="M 450 635 L 472 629 L 523 629 L 738 676 L 786 672"/>
<path style="--d:5s;" pathLength="3333" clip-path="url(#z21787c5)" d="M 466 514 L 512 508 L 681 543 L 725 546 L 756 540"/>
<path style="--d:6s;" pathLength="3333" clip-path="url(#z21787c6)" d="M 566 801 L 611 762 L 613 738 L 602 457 L 585 433"/>
<path style="--d:7s;" pathLength="3333" clip-path="url(#z21787c7)" d="M 373 384 L 426 378 L 559 405 L 788 438 L 830 437 L 880 425"/>
<path style="--d:8s;" pathLength="3333" clip-path="url(#z21787c8)" d="M 525 372 L 548 349 L 490 258 L 386 155 L 326 112 L 263 79"/>
<path style="--d:9s;" pathLength="3333" clip-path="url(#z21787c9)" d="M 541 278 L 663 313 L 695 309 L 715 297 L 686 213 L 660 160 L 611 94 L 577 65 L 517 30 L 433 4 L 399 1"/>
<path style="--d:10s;" pathLength="3333" clip-path="url(#z21787c10)" d="M 495 217 L 546 195 L 658 88 L 739 28 L 770 12 L 836 0 L 946 -7"/>
</svg>