<svg id="z21375" class="acjk" viewBox="0 0 1024 1024" xmlns="http://www.w3.org/2000/svg">
<style>
<![CDATA[
@keyframes zk {
	to {
		stroke-dashoffset:0;
	}
}
svg.acjk path[clip-path] {
	--t:0.8s;
	animation:zk var(--t) linear forwards var(--d);
	stroke-dasharray:3337;
	stroke-dashoffset:3339;
	stroke-width:128;
	stroke-linecap:round;
	stroke-linejoin:round;
	fill:none;
	stroke:#000;
}
svg.acjk path[id] {fill:#ccc;}
]]>
</style>
  <path id="z21375d1" d="M 216 636 Q 237 651 350 736 Q 368 752 391 763 Q 412 773 401 790 Q 388 806 362 820 Q 338 833 326 830 Q 313 829 318 815 Q 324 788 263 717 Q 238 689 209 655 C 190 632 192 618 216 636 Z"/>
  <path id="z21375d2" d="M 305 411 Q 280 399 225 369 Q 218 365 215 368 Q 211 371 211 383 Q 211 608 216 636 C 217 649 217 649 209 655 Q 209 656 208 657 Q 198 667 158 677 Q 143 680 138 675 Q 132 669 142 652 Q 185 600 168 426 Q 159 360 122 314 Q 112 304 118 284 Q 125 259 139 247 Q 149 240 162 252 Q 196 298 304 390 C 327 410 332 424 305 411 Z"/>
  <path id="z21375d3" d="M 304 390 Q 283 270 283 266 Q 243 154 151 61 Q 138 49 135 43 Q 134 36 144 37 Q 180 37 249 112 Q 322 194 343 334 Q 356 419 359 545 Q 362 563 363 573 Q 369 592 349 601 Q 304 623 291 620 Q 272 617 287 597 Q 312 557 305 411 L 304 390 Z"/>
  <path id="z21375d4" d="M 551 447 Q 552 444 556 440 Q 575 410 596 435 Q 611 453 617 499 Q 630 626 651 657 Q 663 673 650 688 Q 634 701 605 718 Q 590 722 576 717 Q 518 692 450 674 C 421 666 434 639 462 650 Q 462 651 464 651 Q 560 687 578 678 Q 587 672 584 642 Q 568 492 563 477 C 557 448 547 453 551 447 Z"/>
  <path id="z21375d5" d="M 452 539 Q 497 552 531 559 Q 550 563 542 574 Q 532 584 510 586 Q 470 586 453 569 C 431 549 423 531 452 539 Z"/>
  <path id="z21375d6" d="M 448 425 Q 452 431 551 447 C 581 452 593 473 563 477 Q 533 483 449 450 C 421 439 422 410 448 425 Z"/>
  <path id="z21375d7" d="M 545 343 Q 544 343 544 342 Q 504 314 459 284 Q 444 271 443 291 Q 446 357 448 425 L 449 450 Q 450 493 452 539 L 453 569 Q 453 632 462 650 C 466 665 466 665 450 674 Q 431 687 411 692 Q 386 699 376 687 Q 369 677 381 666 Q 423 629 405 324 Q 402 314 402 302 Q 398 263 380 242 Q 370 226 379 208 Q 391 190 407 184 Q 416 177 427 193 Q 437 211 555 327 C 576 348 569 360 545 343 Z"/>
  <path id="z21375d8" d="M 555 327 Q 585 273 597 270 Q 606 269 613 277 Q 620 287 621 315 Q 621 331 602 348 Q 557 382 540 383 Q 536 382 533 370 Q 533 361 545 343 L 555 327 Z"/>
  <path id="z21375d9" d="M 745 583 Q 749 584 754 586 Q 817 613 863 625 Q 873 628 876 625 Q 889 609 884 563 Q 880 436 852 380 Q 842 353 819 355 Q 788 365 761 377 Q 739 384 755 363 Q 804 321 830 288 Q 852 269 869 289 Q 897 314 914 358 Q 933 407 934 554 Q 934 605 949 632 Q 959 645 952 653 Q 943 662 896 676 Q 878 682 863 669 Q 839 648 732 617 C 703 608 717 572 745 583 Z"/>
  <path id="z21375d10" d="M 683 4 Q 687 -20 694 -29 Q 700 -36 707 -34 Q 720 -25 727 31 Q 727 40 733 298 Q 733 523 745 583 C 749 607 749 607 732 617 Q 704 636 691 638 Q 679 642 664 634 Q 655 627 662 617 Q 684 565 686 555 Q 686 330 681 185 Q 678 49 683 4 Z"/>
<defs>
  <clipPath id="z21375c1"><use href="#z21375d1"/></clipPath>
  <clipPath id="z21375c2"><use href="#z21375d2"/></clipPath>
  <clipPath id="z21375c3"><use href="#z21375d3"/></clipPath>
  <clipPath id="z21375c4"><use href="#z21375d4"/></clipPath>
  <clipPath id="z21375c5"><use href="#z21375d5"/></clipPath>
  <clipPath id="z21375c6"><use href="#z21375d6"/></clipPath>
  <clipPath id="z21375c7"><use href="#z21375d7"/></clipPath>
  <clipPath id="z21375c8"><use href="#z21375d8"/></clipPath>
  <clipPath id="z21375c9"><use href="#z21375d9"/></clipPath>
  <clipPath id="z21375c10"><use href="#z21375d10"/></clipPath>
</defs>
<path style="--d:1s;" pathLength="3333" clip-path="url(#z21375c1)" d="M 325 821 L 337 812 L 349 781 L 308 732 L 221 654 L 216 641"/>
<path style="--d:2s;" pathLength="3333" clip-path="url(#z21375c2)" d="M 145 669 L 184 638 L 187 624 L 193 472 L 184 379 L 187 338 L 224 347 L 291 389 L 302 406"/>
<path style="--d:3s;" pathLength="3333" clip-path="url(#z21375c3)" d="M 291 608 L 327 580 L 332 537 L 329 409 L 306 265 L 280 198 L 228 117 L 170 60 L 142 44"/>
<path style="--d:4s;" pathLength="3333" clip-path="url(#z21375c4)" d="M 459 671 L 472 664 L 533 688 L 587 698 L 599 693 L 618 669 L 589 479 L 578 450 L 561 449"/>
<path style="--d:5s;" pathLength="3333" clip-path="url(#z21375c5)" d="M 458 546 L 476 564 L 514 571 L 534 568"/>
<path style="--d:6s;" pathLength="3333" clip-path="url(#z21375c6)" d="M 453 433 L 482 450 L 536 458 L 558 473"/>
<path style="--d:7s;" pathLength="3333" clip-path="url(#z21375c7)" d="M 388 679 L 412 666 L 427 645 L 431 472 L 421 290 L 426 249 L 469 266 L 542 324 L 541 334"/>
<path style="--d:8s;" pathLength="3333" clip-path="url(#z21375c8)" d="M 542 373 L 592 318 L 600 281"/>
<path style="--d:9s;" pathLength="3333" clip-path="url(#z21375c9)" d="M 748 590 L 756 605 L 770 612 L 862 645 L 886 651 L 911 634 L 902 450 L 890 388 L 875 352 L 850 323 L 811 336 L 765 367"/>
<path style="--d:10s;" pathLength="3333" clip-path="url(#z21375c10)" d="M 670 625 L 705 597 L 714 556 L 703 -25"/>
</svg>