<svg id="z28407" class="acjk" viewBox="0 0 1024 1024" xmlns="http://www.w3.org/2000/svg">
<style>
<![CDATA[
@keyframes zk {
	to {
		stroke-dashoffset:0;
	}
}
svg.acjk path[clip-path] {
	--t:0.8s;
	animation:zk var(--t) linear forwards var(--d);
	stroke-dasharray:3337;
	stroke-dashoffset:3339;
	stroke-width:128;
	stroke-linecap:round;
	stroke-linejoin:round;
	fill:none;
	stroke:#000;
}
svg.acjk path[id] {fill:#ccc;}
]]>
</style>
  <path id="z28407d1" d="M 201 666 Q 229 641 259 611 Q 274 598 291 597 Q 303 598 308 613 Q 314 629 304 661 Q 298 683 265 698 Q 189 725 172 719 Q 166 715 168 701 Q 172 688 201 666 Z"/>
  <path id="z28407d2" d="M 114 450 Q 151 401 188 379 Q 204 375 215 389 Q 222 402 220 420 Q 214 445 196 461 Q 148 494 110 494 Q 106 495 102 493 Q 95 492 97 478 Q 98 465 114 450 Z"/>
  <path id="z28407d3" d="M 117 117 Q 104 113 108 95 Q 130 16 165 2 Q 172 -5 184 -1 Q 191 0 190 27 Q 193 73 267 323 Q 273 339 272 346 Q 271 356 261 349 Q 246 337 152 159 Q 142 138 117 117 Z"/>
  <path id="z28407d4" d="M 577 545 Q 584 626 590 701 L 594 731 Q 595 746 604 771 Q 607 781 586 796 Q 552 815 526 819 Q 510 822 502 813 Q 495 806 503 790 Q 530 757 534 537 C 535 507 574 515 577 545 Z"/>
  <path id="z28407d5" d="M 590 701 Q 621 697 704 712 Q 735 721 770 728 Q 795 735 800 738 Q 807 745 803 753 Q 796 763 769 770 Q 741 774 715 762 Q 687 752 655 743 Q 627 737 594 731 C 564 726 560 704 590 701 Z"/>
  <path id="z28407d6" d="M 361 518 Q 351 525 336 533 Q 326 539 314 534 Q 307 530 312 517 Q 313 505 318 494 Q 345 436 313 167 Q 307 133 296 93 Q 278 38 313 -10 Q 323 -23 335 -12 Q 344 0 347 13 L 353 52 Q 356 76 358 110 Q 377 464 383 481 C 386 502 386 502 361 518 Z"/>
  <path id="z28407d7" d="M 733 30 Q 764 -10 789 -49 Q 799 -70 812 -69 Q 831 -68 848 -29 Q 869 16 864 69 Q 854 204 845 453 Q 844 489 862 514 Q 872 529 862 541 Q 841 563 781 591 Q 760 601 742 591 Q 673 564 577 545 L 534 537 Q 416 521 361 518 C 331 516 353 477 383 481 Q 404 482 692 536 Q 741 545 764 526 Q 797 493 788 183 Q 789 98 781 71 Q 777 53 760 56 C 738 36 732 31 733 30 Z"/>
  <path id="z28407d8" d="M 584 306 Q 615 355 660 435 Q 676 466 677 468 Q 670 492 631 502 Q 612 506 602 504 Q 595 501 598 490 Q 610 444 546 325 L 527 294 Q 482 234 392 139 Q 385 133 395 132 Q 459 145 554 265 Q 555 268 559 271 L 584 306 Z"/>
  <path id="z28407d9" d="M 559 271 Q 614 234 674 188 Q 687 175 698 174 Q 704 174 708 182 Q 715 192 702 221 Q 689 254 584 306 L 546 325 Q 471 361 429 377 Q 422 378 422 371 Q 423 361 432 355 Q 477 327 527 294 L 559 271 Z"/>
  <path id="z28407d10" d="M 470 452 Q 513 394 535 390 Q 547 389 553 404 Q 554 416 547 434 Q 532 462 475 475 Q 468 476 466 467 Q 465 460 470 452 Z"/>
  <path id="z28407d11" d="M 391 301 Q 434 253 452 253 Q 464 252 468 268 Q 469 278 460 295 Q 445 317 394 324 Q 387 325 386 315 Q 385 308 391 301 Z"/>
  <path id="z28407d12" d="M 649 361 Q 706 307 728 308 Q 740 308 743 324 Q 743 336 733 352 Q 715 379 650 385 Q 643 385 642 375 Q 642 368 649 361 Z"/>
  <path id="z28407d13" d="M 523 178 Q 574 117 597 113 Q 610 112 617 130 Q 618 143 609 162 Q 599 177 577 185 Q 543 201 528 204 Q 519 205 518 194 Q 517 187 523 178 Z"/>
  <path id="z28407d14" d="M 347 13 Q 354 12 364 13 Q 482 31 733 30 C 763 30 780 34 760 56 Q 753 65 739 76 Q 721 88 686 83 Q 500 58 353 52 C 323 51 317 14 347 13 Z"/>
<defs>
  <clipPath id="z28407c1"><use href="#z28407d1"/></clipPath>
  <clipPath id="z28407c2"><use href="#z28407d2"/></clipPath>
  <clipPath id="z28407c3"><use href="#z28407d3"/></clipPath>
  <clipPath id="z28407c4"><use href="#z28407d4"/></clipPath>
  <clipPath id="z28407c5"><use href="#z28407d5"/></clipPath>
  <clipPath id="z28407c6"><use href="#z28407d6"/></clipPath>
  <clipPath id="z28407c7"><use href="#z28407d7"/></clipPath>
  <clipPath id="z28407c8"><use href="#z28407d8"/></clipPath>
  <clipPath id="z28407c9"><use href="#z28407d9"/></clipPath>
  <clipPath id="z28407c10"><use href="#z28407d10"/></clipPath>
  <clipPath id="z28407c11"><use href="#z28407d11"/></clipPath>
  <clipPath id="z28407c12"><use href="#z28407d12"/></clipPath>
  <clipPath id="z28407c13"><use href="#z28407d13"/></clipPath>
  <clipPath id="z28407c14"><use href="#z28407d14"/></clipPath>
</defs>
<path style="--d:1s;" pathLength="3333" clip-path="url(#z28407c1)" d="M 177 712 L 264 657 L 289 616"/>
<path style="--d:2s;" pathLength="3333" clip-path="url(#z28407c2)" d="M 107 483 L 170 438 L 195 401"/>
<path style="--d:3s;" pathLength="3333" clip-path="url(#z28407c3)" d="M 177 9 L 163 38 L 157 89 L 265 342"/>
<path style="--d:4s;" pathLength="3333" clip-path="url(#z28407c4)" d="M 515 803 L 558 764 L 556 564 L 539 550"/>
<path style="--d:5s;" pathLength="3333" clip-path="url(#z28407c5)" d="M 595 708 L 609 717 L 691 730 L 750 748 L 792 747"/>
<path style="--d:6s;" pathLength="3333" clip-path="url(#z28407c6)" d="M 322 525 L 343 499 L 354 458 L 340 181 L 321 55 L 325 -4"/>
<path style="--d:7s;" pathLength="3333" clip-path="url(#z28407c7)" d="M 367 513 L 391 503 L 412 503 L 597 531 L 745 564 L 777 557 L 805 536 L 815 522 L 824 145 L 822 59 L 809 17 L 812 -51"/>
<path style="--d:8s;" pathLength="3333" clip-path="url(#z28407c8)" d="M 609 495 L 634 459 L 615 410 L 563 312 L 493 220 L 399 138"/>
<path style="--d:9s;" pathLength="3333" clip-path="url(#z28407c9)" d="M 430 369 L 633 251 L 687 206 L 696 187"/>
<path style="--d:10s;" pathLength="3333" clip-path="url(#z28407c10)" d="M 478 462 L 514 435 L 536 406"/>
<path style="--d:11s;" pathLength="3333" clip-path="url(#z28407c11)" d="M 399 312 L 435 289 L 452 269"/>
<path style="--d:12s;" pathLength="3333" clip-path="url(#z28407c12)" d="M 655 373 L 699 350 L 727 324"/>
<path style="--d:13s;" pathLength="3333" clip-path="url(#z28407c13)" d="M 530 192 L 581 154 L 598 129"/>
<path style="--d:14s;" pathLength="3333" clip-path="url(#z28407c14)" d="M 351 19 L 370 33 L 404 37 L 751 56"/>
</svg>