<svg id="z22994" class="acjk" viewBox="0 0 1024 1024" xmlns="http://www.w3.org/2000/svg">
<style>
<![CDATA[
@keyframes zk {
	to {
		stroke-dashoffset:0;
	}
}
svg.acjk path[clip-path] {
	--t:0.8s;
	animation:zk var(--t) linear forwards var(--d);
	stroke-dasharray:3337;
	stroke-dashoffset:3339;
	stroke-width:128;
	stroke-linecap:round;
	stroke-linejoin:round;
	fill:none;
	stroke:#000;
}
svg.acjk path[id] {fill:#ccc;}
]]>
</style>
  <path id="z22994d1" d="M 311 157 Q 377 100 386 97 Q 395 97 401 108 Q 407 120 401 150 Q 392 184 344 206 L 298 228 Q 276 238 246 251 Q 227 260 227 280 Q 242 328 256 375 L 267 416 Q 294 515 315 616 Q 324 664 342 689 Q 354 711 346 724 Q 333 742 285 768 Q 264 780 248 771 Q 235 764 245 748 Q 282 693 224 407 L 214 362 Q 202 316 183 279 Q 173 257 195 239 Q 238 217 274 187 L 311 157 Z"/>
  <path id="z22994d2" d="M 274 187 Q 211 115 125 60 Q 112 51 123 48 Q 208 42 308 153 Q 309 156 311 157 L 344 206 Q 343 207 344 207 Q 365 244 399 364 Q 405 392 420 418 Q 430 436 414 445 Q 372 484 343 477 Q 330 473 334 458 Q 340 446 342 432 L 342 405 Q 341 392 339 374 Q 335 320 298 228 L 274 187 Z"/>
  <path id="z22994d3" d="M 342 432 Q 305 425 267 416 L 224 407 Q 164 397 103 384 Q 84 380 54 384 Q 41 383 39 374 Q 36 361 44 353 Q 63 335 94 315 Q 104 311 115 318 Q 173 355 214 362 L 256 375 Q 322 402 342 405 C 371 411 371 438 342 432 Z"/>
  <path id="z22994d4" d="M 533 457 Q 537 476 525 488 Q 500 513 481 517 Q 468 520 463 515 Q 453 508 464 494 Q 492 442 478 294 Q 469 246 459 230 Q 446 208 455 186 Q 467 155 485 143 Q 495 136 508 155 Q 539 200 650 314 Q 666 330 667 338 Q 668 351 648 339 Q 537 264 528 267 Q 522 271 521 287 Q 525 423 533 457 Z"/>
  <path id="z22994d5" d="M 575 601 Q 600 576 625 544 Q 638 529 655 528 Q 665 527 673 541 Q 679 556 673 588 Q 667 621 575 652 Q 559 656 552 655 Q 546 651 547 638 Q 550 626 575 601 Z"/>
  <path id="z22994d6" d="M 774 284 Q 811 375 826 469 Q 841 574 856 603 Q 866 624 847 633 Q 792 672 764 659 Q 749 653 757 637 Q 796 568 756 393 Q 750 377 746 357 Q 692 195 552 97 Q 536 84 519 70 Q 504 60 518 57 Q 534 57 572 73 Q 636 104 682 153 Q 737 202 762 255 Q 763 258 764 260 L 774 284 Z"/>
  <path id="z22994d7" d="M 764 260 Q 821 203 903 101 Q 918 80 932 75 Q 941 74 949 82 Q 962 95 953 139 Q 940 205 774 284 C 747 297 743 281 764 260 Z"/>
<defs>
  <clipPath id="z22994c1"><use href="#z22994d1"/></clipPath>
  <clipPath id="z22994c2"><use href="#z22994d2"/></clipPath>
  <clipPath id="z22994c3"><use href="#z22994d3"/></clipPath>
  <clipPath id="z22994c4"><use href="#z22994d4"/></clipPath>
  <clipPath id="z22994c5"><use href="#z22994d5"/></clipPath>
  <clipPath id="z22994c6"><use href="#z22994d6"/></clipPath>
  <clipPath id="z22994c7"><use href="#z22994d7"/></clipPath>
</defs>
<path style="--d:1s;" pathLength="3333" clip-path="url(#z22994c1)" d="M 254 758 L 271 749 L 302 706 L 270 521 L 237 373 L 205 276 L 206 260 L 225 242 L 351 166 L 377 137 L 388 105"/>
<path style="--d:2s;" pathLength="3333" clip-path="url(#z22994c2)" d="M 346 464 L 365 449 L 380 425 L 354 304 L 319 213 L 284 161 L 244 122 L 185 78 L 129 53"/>
<path style="--d:3s;" pathLength="3333" clip-path="url(#z22994c3)" d="M 53 370 L 103 350 L 174 375 L 298 406 L 329 416 L 336 425"/>
<path style="--d:4s;" pathLength="3333" clip-path="url(#z22994c4)" d="M 471 505 L 487 494 L 505 459 L 498 262 L 507 227 L 558 251 L 657 337"/>
<path style="--d:5s;" pathLength="3333" clip-path="url(#z22994c5)" d="M 556 647 L 631 590 L 654 548"/>
<path style="--d:6s;" pathLength="3333" clip-path="url(#z22994c6)" d="M 768 646 L 795 628 L 812 605 L 804 506 L 788 410 L 753 300 L 723 240 L 673 175 L 596 107 L 522 63"/>
<path style="--d:7s;" pathLength="3333" clip-path="url(#z22994c7)" d="M 782 274 L 788 258 L 845 215 L 904 157 L 925 124 L 934 90"/>
</svg>