<svg id="z23678" class="acjk" viewBox="0 0 1024 1024" xmlns="http://www.w3.org/2000/svg">
<style>
<![CDATA[
@keyframes zk {
	to {
		stroke-dashoffset:0;
	}
}
svg.acjk path[clip-path] {
	--t:0.8s;
	animation:zk var(--t) linear forwards var(--d);
	stroke-dasharray:3337;
	stroke-dashoffset:3339;
	stroke-width:128;
	stroke-linecap:round;
	stroke-linejoin:round;
	fill:none;
	stroke:#000;
}
svg.acjk path[id] {fill:#ccc;}
]]>
</style>
  <path id="z23678d1" d="M 318 231 Q 333 600 348 647 Q 351 660 331 676 Q 294 695 269 699 Q 253 702 244 693 Q 237 686 245 670 Q 272 631 272 605 Q 282 428 274 220 C 273 190 317 201 318 231 Z"/>
  <path id="z23678d2" d="M 408 252 Q 360 245 318 231 L 274 220 Q 226 207 186 191 Q 170 187 174 206 Q 192 339 183 353 Q 167 371 144 385 Q 132 392 122 389 Q 112 385 119 366 Q 143 308 132 249 Q 125 194 101 170 Q 83 151 91 138 Q 103 122 121 112 Q 134 105 144 114 Q 171 145 328 195 Q 394 214 407 210 C 437 210 438 257 408 252 Z"/>
  <path id="z23678d3" d="M 407 210 Q 411 195 417 183 Q 424 170 435 179 Q 456 201 460 271 Q 473 370 482 384 Q 489 397 480 408 Q 464 421 436 438 Q 426 444 415 439 Q 408 435 411 424 Q 435 390 413 266 Q 410 260 408 252 L 407 210 Z"/>
  <path id="z23678d4" d="M 743 232 Q 752 425 757 603 Q 761 646 766 676 Q 773 701 777 720 Q 781 733 757 749 Q 717 770 690 774 Q 671 778 662 768 Q 653 759 663 742 Q 694 699 694 668 Q 706 463 696 222 C 695 192 742 202 743 232 Z"/>
  <path id="z23678d5" d="M 878 255 Q 805 246 743 232 L 696 222 Q 638 210 590 194 Q 568 188 573 214 Q 580 287 587 365 Q 591 390 580 405 Q 564 424 538 437 Q 526 444 515 441 Q 505 437 512 416 Q 545 344 534 272 Q 527 203 499 173 Q 480 154 488 140 Q 500 124 518 112 Q 533 105 543 113 Q 576 150 767 198 Q 849 217 869 211 Q 870 212 872 212 C 902 211 908 259 878 255 Z"/>
  <path id="z23678d6" d="M 872 212 Q 857 164 882 116 Q 892 100 904 112 Q 928 136 929 224 Q 941 402 949 421 Q 950 428 954 434 Q 963 449 951 463 Q 932 478 897 496 Q 884 503 872 497 Q 865 493 867 479 Q 897 431 879 260 Q 878 259 878 255 L 872 212 Z"/>
<defs>
  <clipPath id="z23678c1"><use href="#z23678d1"/></clipPath>
  <clipPath id="z23678c2"><use href="#z23678d2"/></clipPath>
  <clipPath id="z23678c3"><use href="#z23678d3"/></clipPath>
  <clipPath id="z23678c4"><use href="#z23678d4"/></clipPath>
  <clipPath id="z23678c5"><use href="#z23678d5"/></clipPath>
  <clipPath id="z23678c6"><use href="#z23678d6"/></clipPath>
</defs>
<path style="--d:1s;" pathLength="3333" clip-path="url(#z23678c1)" d="M 256 683 L 305 643 L 307 619 L 300 272 L 298 250 L 280 228"/>
<path style="--d:2s;" pathLength="3333" clip-path="url(#z23678c2)" d="M 128 379 L 153 347 L 159 329 L 157 246 L 146 165 L 195 170 L 272 199 L 388 230 L 405 217"/>
<path style="--d:3s;" pathLength="3333" clip-path="url(#z23678c3)" d="M 423 429 L 452 391 L 427 186"/>
<path style="--d:4s;" pathLength="3333" clip-path="url(#z23678c4)" d="M 676 756 L 709 734 L 730 710 L 721 257 L 700 230"/>
<path style="--d:5s;" pathLength="3333" clip-path="url(#z23678c5)" d="M 521 431 L 549 398 L 558 375 L 560 313 L 545 166 L 592 169 L 692 201 L 855 232 L 871 249"/>
<path style="--d:6s;" pathLength="3333" clip-path="url(#z23678c6)" d="M 881 485 L 918 441 L 894 119"/>
</svg>