<svg id="z28082" class="acjk" viewBox="0 0 1024 1024" xmlns="http://www.w3.org/2000/svg">
<style>
<![CDATA[
@keyframes zk {
	to {
		stroke-dashoffset:0;
	}
}
svg.acjk path[clip-path] {
	--t:0.8s;
	animation:zk var(--t) linear forwards var(--d);
	stroke-dasharray:3337;
	stroke-dashoffset:3339;
	stroke-width:128;
	stroke-linecap:round;
	stroke-linejoin:round;
	fill:none;
	stroke:#000;
}
svg.acjk path[id] {fill:#ccc;}
]]>
</style>
  <path id="z28082d1" d="M 230 705 Q 257 683 285 657 Q 300 644 317 645 Q 327 646 333 660 Q 337 676 326 707 Q 314 740 223 755 Q 207 758 200 755 Q 194 751 197 737 Q 201 727 230 705 Z"/>
  <path id="z28082d2" d="M 136 512 Q 190 458 223 445 Q 238 442 247 457 Q 253 470 249 487 Q 237 529 147 552 Q 131 556 121 552 Q 114 551 118 538 Q 119 526 136 512 Z"/>
  <path id="z28082d3" d="M 125 178 Q 113 174 116 158 Q 134 85 167 70 Q 174 63 184 66 Q 191 67 191 92 Q 195 140 278 381 Q 284 397 283 402 Q 282 412 273 405 Q 264 401 161 220 Q 151 199 125 178 Z"/>
  <path id="z28082d4" d="M 544 766 Q 577 745 612 719 Q 628 707 645 711 Q 657 712 661 728 Q 664 744 649 776 Q 639 795 605 807 Q 569 814 531 818 Q 515 819 508 815 Q 502 811 506 797 Q 512 785 544 766 Z"/>
  <path id="z28082d5" d="M 475 569 Q 604 597 738 627 Q 802 643 811 651 Q 820 658 815 668 Q 808 680 778 687 Q 751 693 637 655 Q 499 616 378 602 Q 341 595 367 578 Q 394 563 432 563 L 475 569 Z"/>
  <path id="z28082d6" d="M 385 343 Q 425 389 471 460 Q 490 494 508 511 Q 515 521 512 533 Q 503 555 475 569 C 449 584 421 591 432 563 Q 433 562 434 559 Q 453 517 370 388 Q 331 328 278 263 Q 269 254 267 249 Q 264 239 276 241 Q 295 244 361 315 L 385 343 Z"/>
  <path id="z28082d7" d="M 361 315 Q 392 255 361 86 Q 346 43 380 -5 L 381 -6 Q 396 -19 405 3 Q 418 37 417 75 Q 416 240 420 277 Q 427 299 418 308 Q 391 341 385 343 C 362 362 349 342 361 315 Z"/>
  <path id="z28082d8" d="M 635 468 Q 636 469 637 470 Q 659 504 679 532 Q 688 542 676 556 Q 640 584 618 582 Q 608 581 610 568 Q 619 496 536 400 Q 530 400 501 362 Q 494 349 507 353 Q 523 354 558 383 L 573 396 Q 600 421 621 447 L 635 468 Z"/>
  <path id="z28082d9" d="M 652 208 Q 721 281 774 382 Q 799 430 816 443 Q 829 453 823 465 Q 819 475 764 500 Q 751 504 728 494 Q 700 481 635 468 C 606 462 592 453 621 447 Q 631 440 661 444 Q 725 460 729 452 Q 741 410 655 287 Q 634 266 616 238 L 592 210 Q 543 158 474 104 Q 449 89 471 90 Q 537 93 621 177 L 652 208 Z"/>
  <path id="z28082d10" d="M 558 383 Q 561 374 609 332 Q 625 319 640 320 Q 652 320 655 336 Q 656 348 646 365 Q 636 378 614 384 Q 587 394 573 396 C 548 400 548 400 558 383 Z"/>
  <path id="z28082d11" d="M 621 177 Q 675 119 772 43 Q 802 21 844 32 Q 901 44 941 52 Q 954 55 967 61 Q 974 68 961 77 Q 945 84 824 112 Q 755 127 652 208 L 616 238 Q 582 269 546 307 Q 524 329 491 332 Q 481 333 472 327 Q 468 320 477 314 Q 484 308 492 304 Q 519 294 592 210 L 621 177 Z"/>
<defs>
  <clipPath id="z28082c1"><use href="#z28082d1"/></clipPath>
  <clipPath id="z28082c2"><use href="#z28082d2"/></clipPath>
  <clipPath id="z28082c3"><use href="#z28082d3"/></clipPath>
  <clipPath id="z28082c4"><use href="#z28082d4"/></clipPath>
  <clipPath id="z28082c5"><use href="#z28082d5"/></clipPath>
  <clipPath id="z28082c6"><use href="#z28082d6"/></clipPath>
  <clipPath id="z28082c7"><use href="#z28082d7"/></clipPath>
  <clipPath id="z28082c8"><use href="#z28082d8"/></clipPath>
  <clipPath id="z28082c9"><use href="#z28082d9"/></clipPath>
  <clipPath id="z28082c10"><use href="#z28082d10"/></clipPath>
  <clipPath id="z28082c11"><use href="#z28082d11"/></clipPath>
</defs>
<path style="--d:1s;" pathLength="3333" clip-path="url(#z28082c1)" d="M 206 747 L 284 703 L 313 665"/>
<path style="--d:2s;" pathLength="3333" clip-path="url(#z28082c2)" d="M 128 543 L 211 489 L 228 466"/>
<path style="--d:3s;" pathLength="3333" clip-path="url(#z28082c3)" d="M 179 75 L 166 104 L 161 154 L 277 399"/>
<path style="--d:4s;" pathLength="3333" clip-path="url(#z28082c4)" d="M 515 807 L 609 766 L 642 730"/>
<path style="--d:5s;" pathLength="3333" clip-path="url(#z28082c5)" d="M 370 591 L 436 586 L 600 620 L 728 654 L 804 662"/>
<path style="--d:6s;" pathLength="3333" clip-path="url(#z28082c6)" d="M 442 558 L 473 527 L 445 467 L 343 316 L 275 248"/>
<path style="--d:7s;" pathLength="3333" clip-path="url(#z28082c7)" d="M 384 336 L 387 309 L 397 290 L 396 174 L 386 62 L 391 3"/>
<path style="--d:8s;" pathLength="3333" clip-path="url(#z28082c8)" d="M 619 572 L 643 539 L 622 489 L 586 433 L 510 361"/>
<path style="--d:9s;" pathLength="3333" clip-path="url(#z28082c9)" d="M 627 450 L 731 474 L 756 469 L 770 453 L 732 360 L 676 273 L 585 171 L 521 120 L 477 96"/>
<path style="--d:10s;" pathLength="3333" clip-path="url(#z28082c10)" d="M 564 383 L 577 381 L 625 352 L 639 336"/>
<path style="--d:11s;" pathLength="3333" clip-path="url(#z28082c11)" d="M 480 322 L 521 306 L 670 162 L 789 80 L 819 70 L 959 67"/>
</svg>