<svg id="z28625" class="acjk" viewBox="0 0 1024 1024" xmlns="http://www.w3.org/2000/svg">
<style>
<![CDATA[
@keyframes zk {
	to {
		stroke-dashoffset:0;
	}
}
svg.acjk path[clip-path] {
	--t:0.8s;
	animation:zk var(--t) linear forwards var(--d);
	stroke-dasharray:3337;
	stroke-dashoffset:3339;
	stroke-width:128;
	stroke-linecap:round;
	stroke-linejoin:round;
	fill:none;
	stroke:#000;
}
svg.acjk path[id] {fill:#ccc;}
]]>
</style>
  <path id="z28625d1" d="M 170 693 Q 192 674 215 648 Q 228 635 245 635 Q 255 635 261 649 Q 265 664 257 693 Q 253 711 225 724 Q 156 749 144 743 Q 140 739 140 726 Q 144 716 170 693 Z"/>
  <path id="z28625d2" d="M 110 491 Q 152 445 185 430 Q 198 429 207 441 Q 213 453 210 468 Q 198 505 121 527 Q 105 531 97 528 Q 91 527 94 515 Q 95 505 110 491 Z"/>
  <path id="z28625d3" d="M 102 155 Q 90 151 93 135 Q 111 65 141 50 Q 148 43 158 47 Q 165 48 165 72 Q 168 102 242 330 Q 248 345 247 351 Q 246 360 238 353 Q 226 346 135 190 Q 125 174 102 155 Z"/>
  <path id="z28625d4" d="M 434 620 Q 464 629 500 637 Q 528 644 532 649 Q 539 656 535 663 Q 528 672 505 677 Q 475 680 437 661 L 393 647 Q 356 638 309 630 Q 281 624 302 612 Q 329 599 394 610 L 434 620 Z"/>
  <path id="z28625d5" d="M 299 518 Q 289 522 271 524 Q 261 525 258 522 Q 254 516 260 503 Q 282 460 298 386 Q 301 364 314 350 Q 330 331 334 345 Q 337 354 336 369 L 333 395 Q 320 471 318 492 C 316 512 316 512 299 518 Z"/>
  <path id="z28625d6" d="M 517 424 Q 544 494 569 510 Q 582 525 570 539 Q 557 549 515 570 Q 500 576 432 548 L 395 538 Q 347 526 299 518 C 269 513 290 482 318 492 Q 330 498 395 510 L 432 519 Q 448 523 469 528 Q 487 532 494 525 Q 501 518 498 504 Q 489 461 478 426 C 469 397 506 396 517 424 Z"/>
  <path id="z28625d7" d="M 430 383 Q 472 390 530 396 Q 539 397 540 404 Q 540 410 517 424 C 504 432 504 432 478 426 Q 451 420 430 414 L 392 405 Q 361 401 333 395 C 304 389 306 370 336 369 Q 345 368 354 370 Q 367 374 389 376 L 430 383 Z"/>
  <path id="z28625d8" d="M 389 291 Q 389 198 365 112 Q 355 76 378 20 Q 385 4 392 1 Q 398 -5 404 2 Q 411 6 421 26 Q 430 48 429 77 Q 428 114 430 383 L 430 414 Q 430 463 432 519 L 432 548 Q 432 593 434 620 L 437 661 Q 441 703 452 735 Q 459 748 457 761 Q 451 770 400 801 Q 379 817 360 803 Q 356 799 361 784 Q 392 738 393 690 Q 393 669 393 647 L 394 610 Q 395 579 396 542 Q 395 541 395 538 L 395 510 Q 394 459 392 405 L 389 291 Z"/>
  <path id="z28625d9" d="M 389 376 Q 341 268 208 119 Q 204 110 212 109 Q 216 108 225 115 Q 324 187 389 291 L 389 376 Z"/>
  <path id="z28625d10" d="M 472 276 Q 494 255 519 229 Q 528 220 538 220 Q 545 220 550 229 Q 554 239 549 259 Q 542 286 471 309 Q 461 312 456 310 Q 452 309 453 299 Q 454 292 472 276 Z"/>
  <path id="z28625d11" d="M 691 674 Q 748 764 748 766 Q 747 769 746 771 Q 742 780 721 795 Q 700 808 686 807 Q 673 806 680 789 Q 693 764 648 676 Q 626 636 596 591 Q 589 584 587 579 Q 586 570 595 573 Q 616 576 668 644 Q 669 647 673 650 L 691 674 Z"/>
  <path id="z28625d12" d="M 673 650 Q 694 647 756 660 Q 763 661 765 659 Q 769 656 763 646 Q 726 567 701 530 Q 692 517 691 509 C 681 481 695 493 715 515 Q 829 638 854 655 Q 870 665 860 677 Q 847 689 812 709 Q 803 712 720 683 Q 705 680 691 674 C 663 663 643 652 673 650 Z"/>
  <path id="z28625d13" d="M 632 500 Q 613 515 592 520 Q 585 521 579 515 Q 576 511 583 501 Q 611 413 589 293 Q 577 275 584 246 Q 593 218 603 207 Q 613 195 620 207 Q 641 234 641 351 Q 641 453 646 476 C 648 489 648 489 632 500 Z"/>
  <path id="z28625d14" d="M 691 509 Q 658 505 632 500 C 602 495 617 468 646 476 Q 652 479 722 493 Q 786 509 800 501 Q 821 444 806 285 Q 797 240 807 223 Q 817 198 826 198 Q 839 199 853 227 Q 866 249 865 267 Q 846 435 879 483 Q 888 496 881 505 Q 859 526 818 543 Q 805 547 785 540 Q 754 527 715 515 L 691 509 Z"/>
  <path id="z28625d15" d="M 698 368 Q 702 176 628 100 Q 622 96 617 90 Q 589 65 527 32 Q 517 28 514 25 Q 510 21 523 18 Q 559 14 639 60 Q 733 118 743 306 Q 746 369 757 394 Q 761 403 754 410 Q 739 423 709 435 Q 691 442 678 438 Q 662 431 675 417 Q 697 393 698 368 Z"/>
  <path id="z28625d16" d="M 759 135 Q 805 92 858 30 Q 871 11 886 7 Q 893 6 901 14 Q 913 26 902 66 Q 893 111 761 164 Q 754 168 751 157 Q 750 145 759 135 Z"/>
<defs>
  <clipPath id="z28625c1"><use href="#z28625d1"/></clipPath>
  <clipPath id="z28625c2"><use href="#z28625d2"/></clipPath>
  <clipPath id="z28625c3"><use href="#z28625d3"/></clipPath>
  <clipPath id="z28625c4"><use href="#z28625d4"/></clipPath>
  <clipPath id="z28625c5"><use href="#z28625d5"/></clipPath>
  <clipPath id="z28625c6"><use href="#z28625d6"/></clipPath>
  <clipPath id="z28625c7"><use href="#z28625d7"/></clipPath>
  <clipPath id="z28625c8"><use href="#z28625d8"/></clipPath>
  <clipPath id="z28625c9"><use href="#z28625d9"/></clipPath>
  <clipPath id="z28625c10"><use href="#z28625d10"/></clipPath>
  <clipPath id="z28625c11"><use href="#z28625d11"/></clipPath>
  <clipPath id="z28625c12"><use href="#z28625d12"/></clipPath>
  <clipPath id="z28625c13"><use href="#z28625d13"/></clipPath>
  <clipPath id="z28625c14"><use href="#z28625d14"/></clipPath>
  <clipPath id="z28625c15"><use href="#z28625d15"/></clipPath>
  <clipPath id="z28625c16"><use href="#z28625d16"/></clipPath>
</defs>
<path style="--d:1s;" pathLength="3333" clip-path="url(#z28625c1)" d="M 148 737 L 218 693 L 243 653"/>
<path style="--d:2s;" pathLength="3333" clip-path="url(#z28625c2)" d="M 103 520 L 174 471 L 188 448"/>
<path style="--d:3s;" pathLength="3333" clip-path="url(#z28625c3)" d="M 152 57 L 141 83 L 137 131 L 241 347"/>
<path style="--d:4s;" pathLength="3333" clip-path="url(#z28625c4)" d="M 303 622 L 363 622 L 478 654 L 525 658"/>
<path style="--d:5s;" pathLength="3333" clip-path="url(#z28625c5)" d="M 265 517 L 286 500 L 297 477 L 324 349"/>
<path style="--d:6s;" pathLength="3333" clip-path="url(#z28625c6)" d="M 306 517 L 316 510 L 341 511 L 467 546 L 508 546 L 532 522 L 505 445 L 485 430"/>
<path style="--d:7s;" pathLength="3333" clip-path="url(#z28625c7)" d="M 341 376 L 371 389 L 484 409 L 532 404"/>
<path style="--d:8s;" pathLength="3333" clip-path="url(#z28625c8)" d="M 371 797 L 397 775 L 419 738 L 409 233 L 395 90 L 397 14"/>
<path style="--d:9s;" pathLength="3333" clip-path="url(#z28625c9)" d="M 383 359 L 369 295 L 353 270 L 279 179 L 216 117"/>
<path style="--d:10s;" pathLength="3333" clip-path="url(#z28625c10)" d="M 463 302 L 524 257 L 536 235"/>
<path style="--d:11s;" pathLength="3333" clip-path="url(#z28625c11)" d="M 687 797 L 711 769 L 710 756 L 650 643 L 596 582"/>
<path style="--d:12s;" pathLength="3333" clip-path="url(#z28625c12)" d="M 686 655 L 702 665 L 763 679 L 783 678 L 805 666 L 718 529 L 697 512"/>
<path style="--d:13s;" pathLength="3333" clip-path="url(#z28625c13)" d="M 588 510 L 604 496 L 619 467 L 620 340 L 608 259 L 612 210"/>
<path style="--d:14s;" pathLength="3333" clip-path="url(#z28625c14)" d="M 640 496 L 654 492 L 708 498 L 756 515 L 805 523 L 817 519 L 841 490 L 835 276 L 827 209"/>
<path style="--d:15s;" pathLength="3333" clip-path="url(#z28625c15)" d="M 680 427 L 717 402 L 725 386 L 716 257 L 692 159 L 651 94 L 622 69 L 548 30 L 522 26"/>
<path style="--d:16s;" pathLength="3333" clip-path="url(#z28625c16)" d="M 762 153 L 862 73 L 878 51 L 887 23"/>
</svg>