<svg id="z24971" class="acjk" viewBox="0 0 1024 1024" xmlns="http://www.w3.org/2000/svg">
<style>
<![CDATA[
@keyframes zk {
	to {
		stroke-dashoffset:0;
	}
}
svg.acjk path[clip-path] {
	--t:0.8s;
	animation:zk var(--t) linear forwards var(--d);
	stroke-dasharray:3337;
	stroke-dashoffset:3339;
	stroke-width:128;
	stroke-linecap:round;
	stroke-linejoin:round;
	fill:none;
	stroke:#000;
}
svg.acjk path[id] {fill:#ccc;}
]]>
</style>
  <path id="z24971d1" d="M 209 694 Q 230 675 252 652 Q 262 642 276 642 Q 285 642 289 653 Q 293 665 287 689 Q 281 713 206 733 Q 193 737 188 735 Q 184 731 185 721 Q 188 711 209 694 Z"/>
  <path id="z24971d2" d="M 459 747 Q 443 720 407 678 Q 403 672 407 667 Q 413 666 419 670 Q 483 715 515 731 Q 528 735 525 743 Q 521 756 506 769 Q 493 782 475 785 Q 463 784 464 770 Q 465 760 459 747 Z"/>
  <path id="z24971d3" d="M 199 572 Q 180 581 167 579 Q 157 575 162 566 Q 193 514 172 412 Q 151 373 183 337 Q 189 327 197 332 Q 219 356 218 417 Q 218 519 219 544 C 220 563 220 563 199 572 Z"/>
  <path id="z24971d4" d="M 520 577 Q 524 589 519 595 Q 512 605 478 623 Q 465 630 451 626 Q 421 616 365 601 L 336 595 Q 269 582 199 572 C 169 568 190 535 219 544 Q 255 556 335 571 L 363 576 Q 444 600 459 588 Q 463 585 465 562 Q 471 394 456 378 Q 447 374 408 383 Q 398 386 397 379 Q 397 375 406 369 Q 440 336 458 312 Q 471 297 481 299 Q 490 300 499 320 Q 514 359 510 454 Q 507 550 517 570 L 520 577 Z"/>
  <path id="z24971d5" d="M 365 601 Q 368 716 395 767 Q 401 776 390 788 Q 341 827 316 818 Q 303 814 309 800 Q 339 751 336 674 Q 336 632 336 595 L 335 571 Q 332 424 320 373 Q 319 363 334 326 Q 343 311 356 319 Q 371 331 363 439 Q 360 509 363 576 L 365 601 Z"/>
  <path id="z24971d6" d="M 267 516 Q 270 513 267 468 Q 264 453 237 399 Q 234 395 240 394 Q 246 395 254 402 Q 281 417 304 482 Q 305 485 307 487 Q 311 494 309 502 Q 302 512 287 521 Q 278 528 271 526 Q 264 523 267 516 Z"/>
  <path id="z24971d7" d="M 384 517 Q 406 466 419 462 Q 428 458 435 469 Q 438 476 436 491 Q 430 513 392 532 Q 388 535 384 528 Q 381 524 384 517 Z"/>
  <path id="z24971d8" d="M 599 649 Q 599 650 600 650 Q 627 687 655 745 Q 665 772 677 785 Q 684 795 678 805 Q 674 815 648 831 Q 624 843 609 840 Q 594 836 603 820 Q 630 775 526 586 Q 522 582 520 577 L 517 570 Q 516 563 527 565 Q 548 574 590 635 L 599 649 Z"/>
  <path id="z24971d9" d="M 713 635 Q 839 677 841 678 Q 848 685 844 694 Q 837 704 809 708 Q 781 711 755 697 Q 724 684 689 671 Q 650 659 605 651 Q 601 651 599 649 C 580 643 580 643 590 635 Q 614 611 679 625 L 713 635 Z"/>
  <path id="z24971d10" d="M 699 458 Q 699 476 743 564 Q 746 573 753 582 Q 763 597 751 607 Q 727 631 713 635 C 686 648 671 654 679 625 Q 695 582 661 493 L 646 461 Q 604 398 518 353 Q 505 347 516 343 Q 564 337 623 377 Q 654 395 672 420 Q 673 423 676 425 C 694 449 698 453 699 458 Z"/>
  <path id="z24971d11" d="M 676 425 Q 713 380 783 322 Q 807 306 841 313 Q 886 320 919 328 Q 929 329 939 335 Q 945 341 936 347 Q 923 354 826 382 Q 784 394 699 458 L 661 493 Q 639 515 616 539 Q 600 557 574 560 Q 564 561 556 555 Q 552 549 560 543 Q 566 539 572 536 Q 591 526 646 461 L 676 425 Z"/>
  <path id="z24971d12" d="M 211 231 Q 186 164 150 103 Q 129 73 148 37 Q 157 19 177 32 Q 199 48 213 80 Q 235 129 238 173 Q 242 207 235 231 Q 229 240 224 240 Q 215 239 211 231 Z"/>
  <path id="z24971d13" d="M 299 225 Q 314 114 397 55 Q 490 -6 701 -8 Q 744 -4 780 10 Q 807 20 810 36 Q 814 46 776 70 Q 719 116 678 164 Q 665 180 661 172 Q 658 169 684 89 Q 691 52 639 53 Q 459 52 387 123 Q 353 154 339 207 Q 333 229 322 235 Q 309 242 302 239 Q 296 238 299 225 Z"/>
  <path id="z24971d14" d="M 472 228 Q 494 206 519 178 Q 532 165 548 164 Q 558 164 565 177 Q 571 192 563 222 Q 559 241 530 255 Q 469 285 448 279 Q 442 275 444 262 Q 447 252 472 228 Z"/>
  <path id="z24971d15" d="M 702 258 Q 754 215 817 152 Q 833 133 849 129 Q 858 128 865 139 Q 877 152 862 195 Q 844 247 702 289 Q 692 293 691 281 Q 691 268 702 258 Z"/>
<defs>
  <clipPath id="z24971c1"><use href="#z24971d1"/></clipPath>
  <clipPath id="z24971c2"><use href="#z24971d2"/></clipPath>
  <clipPath id="z24971c3"><use href="#z24971d3"/></clipPath>
  <clipPath id="z24971c4"><use href="#z24971d4"/></clipPath>
  <clipPath id="z24971c5"><use href="#z24971d5"/></clipPath>
  <clipPath id="z24971c6"><use href="#z24971d6"/></clipPath>
  <clipPath id="z24971c7"><use href="#z24971d7"/></clipPath>
  <clipPath id="z24971c8"><use href="#z24971d8"/></clipPath>
  <clipPath id="z24971c9"><use href="#z24971d9"/></clipPath>
  <clipPath id="z24971c10"><use href="#z24971d10"/></clipPath>
  <clipPath id="z24971c11"><use href="#z24971d11"/></clipPath>
  <clipPath id="z24971c12"><use href="#z24971d12"/></clipPath>
  <clipPath id="z24971c13"><use href="#z24971d13"/></clipPath>
  <clipPath id="z24971c14"><use href="#z24971d14"/></clipPath>
  <clipPath id="z24971c15"><use href="#z24971d15"/></clipPath>
</defs>
<path style="--d:1s;" pathLength="3333" clip-path="url(#z24971c1)" d="M 192 727 L 246 694 L 261 681 L 275 656"/>
<path style="--d:2s;" pathLength="3333" clip-path="url(#z24971c2)" d="M 475 773 L 488 748 L 412 673"/>
<path style="--d:3s;" pathLength="3333" clip-path="url(#z24971c3)" d="M 172 570 L 187 556 L 198 532 L 200 452 L 190 386 L 193 342"/>
<path style="--d:4s;" pathLength="3333" clip-path="url(#z24971c4)" d="M 207 571 L 230 562 L 371 588 L 439 607 L 459 609 L 476 601 L 491 582 L 488 406 L 480 362 L 470 348 L 404 376"/>
<path style="--d:5s;" pathLength="3333" clip-path="url(#z24971c5)" d="M 318 807 L 339 793 L 359 763 L 346 560 L 348 425 L 343 371 L 348 329"/>
<path style="--d:6s;" pathLength="3333" clip-path="url(#z24971c6)" d="M 275 519 L 288 495 L 281 458 L 242 399"/>
<path style="--d:7s;" pathLength="3333" clip-path="url(#z24971c7)" d="M 392 523 L 424 473"/>
<path style="--d:8s;" pathLength="3333" clip-path="url(#z24971c8)" d="M 611 829 L 631 813 L 641 793 L 628 748 L 589 666 L 550 601 L 524 571"/>
<path style="--d:9s;" pathLength="3333" clip-path="url(#z24971c9)" d="M 597 635 L 665 642 L 791 686 L 837 685"/>
<path style="--d:10s;" pathLength="3333" clip-path="url(#z24971c10)" d="M 686 622 L 713 603 L 718 592 L 699 526 L 669 455 L 636 413 L 605 388 L 569 364 L 522 347"/>
<path style="--d:11s;" pathLength="3333" clip-path="url(#z24971c11)" d="M 563 551 L 601 533 L 685 443 L 745 391 L 799 354 L 845 344 L 931 339"/>
<path style="--d:12s;" pathLength="3333" clip-path="url(#z24971c12)" d="M 223 228 L 210 158 L 164 44"/>
<path style="--d:13s;" pathLength="3333" clip-path="url(#z24971c13)" d="M 307 231 L 341 149 L 383 95 L 443 58 L 532 33 L 671 24 L 704 32 L 726 49 L 707 99 L 665 170"/>
<path style="--d:14s;" pathLength="3333" clip-path="url(#z24971c14)" d="M 453 271 L 522 223 L 546 183"/>
<path style="--d:15s;" pathLength="3333" clip-path="url(#z24971c15)" d="M 702 277 L 811 206 L 836 177 L 850 146"/>
</svg>