<svg id="z28885" class="acjk" viewBox="0 0 1024 1024" xmlns="http://www.w3.org/2000/svg">
<style>
<![CDATA[
@keyframes zk {
	to {
		stroke-dashoffset:0;
	}
}
svg.acjk path[clip-path] {
	--t:0.8s;
	animation:zk var(--t) linear forwards var(--d);
	stroke-dasharray:3337;
	stroke-dashoffset:3339;
	stroke-width:128;
	stroke-linecap:round;
	stroke-linejoin:round;
	fill:none;
	stroke:#000;
}
svg.acjk path[id] {fill:#ccc;}
]]>
</style>
  <path id="z28885d1" d="M 316 533 Q 351 527 415 534 L 559 559 L 606 568 Q 772 603 780 610 Q 786 613 786 619 Q 788 635 749 647 Q 731 651 719 651 Q 698 649 598 615 L 549 604 Q 533 602 517 596 Q 419 577 306 566 C 276 563 286 537 316 533 Z"/>
  <path id="z28885d2" d="M 314 531 L 316 533 C 320 556 320 556 306 566 Q 304 569 298 572 Q 257 602 237 595 Q 225 588 231 574 Q 261 539 245 413 Q 228 284 198 200 Q 170 120 100 6 L 96 2 Q 87 -10 94 -14 Q 96 -16 99 -16 Q 123 -14 194 87 L 194 88 L 213 120 Q 247 180 274 283 Q 278 301 288 363 Q 314 516 314 531 Z"/>
  <path id="z28885d3" d="M 417 396 Q 417 398 527 423 Q 559 435 559 444 Q 559 457 525 463 Q 504 466 480 459 Q 430 441 419 437 Q 417 437 351 425 Q 337 422 333 417 Q 327 406 394 394 L 417 396 Z"/>
  <path id="z28885d4" d="M 294 241 Q 323 194 349 179 Q 355 177 361 178 Q 379 182 379 212 Q 377 228 370 239 Q 357 257 312 275 Q 296 282 287 279 Q 281 279 282 268 Q 282 257 294 241 Z"/>
  <path id="z28885d5" d="M 452 251 Q 463 255 538 292 Q 542 296 547 298 L 573 310 Q 588 318 586 327 Q 584 333 573 345 Q 548 370 527 370 Q 517 370 519 360 Q 519 344 454 270 C 434 247 429 242 452 251 Z"/>
  <path id="z28885d6" d="M 437 191 Q 447 221 452 251 L 454 270 Q 461 318 472 355 Q 474 363 470 368 Q 463 375 451 379 Q 429 385 417 396 C 400 408 400 408 394 394 Q 386 390 389 381 Q 412 343 404 272 Q 388 122 294 55 Q 276 40 267 33 Q 257 24 267 23 Q 323 28 380 89 Q 416 125 427 155 L 437 191 Z"/>
  <path id="z28885d7" d="M 427 155 Q 452 129 500 74 Q 527 42 541 37 Q 543 37 546 37 Q 567 43 555 92 Q 552 106 543 116 Q 533 127 499 145 Q 457 169 437 191 C 416 213 406 177 427 155 Z"/>
  <path id="z28885d8" d="M 559 559 Q 604 351 669 212 L 690 168 Q 751 44 858 -37 Q 924 -82 956 -81 Q 974 -74 968 -54 Q 962 -20 960 24 L 958 122 Q 956 170 947 171 Q 946 171 906 75 Q 890 35 870 42 Q 798 79 725 206 Q 723 207 721 210 L 696 263 Q 645 374 606 568 L 598 615 Q 585 715 588 766 Q 590 797 590 795 Q 591 817 572 831 Q 561 840 543 847 Q 508 859 488 857 L 476 853 Q 455 845 466 823 Q 521 780 523 744 L 549 604 L 559 559 Z"/>
  <path id="z28885d9" d="M 669 212 Q 631 155 593 112 Q 588 108 586 104 Q 577 91 590 91 Q 616 91 688 164 Q 688 167 690 168 L 721 210 Q 760 273 802 390 Q 817 429 817 431 L 817 433 Q 806 453 778 472 Q 766 482 756 483 Q 740 486 740 468 Q 740 466 741 466 Q 741 463 742 459 Q 754 404 696 263 L 669 212 Z"/>
  <path id="z28885d10" d="M 772 698 Q 786 688 802 688 Q 804 688 806 690 Q 826 698 808 745 Q 799 772 739 788 Q 698 800 679 796 Q 670 793 672 781 Q 672 780 672 778 Q 674 770 693 757 Q 751 715 772 698 Z"/>
<defs>
  <clipPath id="z28885c1"><use href="#z28885d1"/></clipPath>
  <clipPath id="z28885c2"><use href="#z28885d2"/></clipPath>
  <clipPath id="z28885c3"><use href="#z28885d3"/></clipPath>
  <clipPath id="z28885c4"><use href="#z28885d4"/></clipPath>
  <clipPath id="z28885c5"><use href="#z28885d5"/></clipPath>
  <clipPath id="z28885c6"><use href="#z28885d6"/></clipPath>
  <clipPath id="z28885c7"><use href="#z28885d7"/></clipPath>
  <clipPath id="z28885c8"><use href="#z28885d8"/></clipPath>
  <clipPath id="z28885c9"><use href="#z28885d9"/></clipPath>
  <clipPath id="z28885c10"><use href="#z28885d10"/></clipPath>
</defs>
<path style="--d:1s;" pathLength="3333" clip-path="url(#z28885c1)" d="M 314 563 L 331 550 L 404 554 L 594 589 L 724 623 L 774 621"/>
<path style="--d:2s;" pathLength="3333" clip-path="url(#z28885c2)" d="M 243 582 L 264 566 L 281 534 L 274 429 L 248 280 L 213 172 L 172 87 L 100 -7"/>
<path style="--d:3s;" pathLength="3333" clip-path="url(#z28885c3)" d="M 339 415 L 398 413 L 478 436 L 550 445"/>
<path style="--d:4s;" pathLength="3333" clip-path="url(#z28885c4)" d="M 293 270 L 345 223 L 357 198"/>
<path style="--d:5s;" pathLength="3333" clip-path="url(#z28885c5)" d="M 574 325 L 541 329 L 482 278 L 469 275 L 453 256"/>
<path style="--d:6s;" pathLength="3333" clip-path="url(#z28885c6)" d="M 401 384 L 436 349 L 427 248 L 406 167 L 381 120 L 350 82 L 273 28"/>
<path style="--d:7s;" pathLength="3333" clip-path="url(#z28885c7)" d="M 439 184 L 446 160 L 523 94 L 544 50"/>
<path style="--d:8s;" pathLength="3333" clip-path="url(#z28885c8)" d="M 480 835 L 512 824 L 548 795 L 572 616 L 625 390 L 659 290 L 692 216 L 765 96 L 815 41 L 850 13 L 877 0 L 908 -5 L 928 44 L 949 169"/>
<path style="--d:9s;" pathLength="3333" clip-path="url(#z28885c9)" d="M 750 472 L 779 427 L 738 297 L 710 237 L 666 169 L 615 115 L 592 99"/>
<path style="--d:10s;" pathLength="3333" clip-path="url(#z28885c10)" d="M 683 785 L 765 745 L 797 704"/>
</svg>