<svg id="z22885" class="acjk" viewBox="0 0 1024 1024" xmlns="http://www.w3.org/2000/svg">
<style>
<![CDATA[
@keyframes zk {
	to {
		stroke-dashoffset:0;
	}
}
svg.acjk path[clip-path] {
	--t:0.8s;
	animation:zk var(--t) linear forwards var(--d);
	stroke-dasharray:3337;
	stroke-dashoffset:3339;
	stroke-width:128;
	stroke-linecap:round;
	stroke-linejoin:round;
	fill:none;
	stroke:#000;
}
svg.acjk path[id] {fill:#ccc;}
]]>
</style>
  <path id="z22885d1" d="M 405 677 Q 405 678 406 678 Q 415 684 510 755 Q 528 774 551 786 Q 572 798 560 815 Q 544 831 517 843 Q 492 855 479 851 Q 466 848 472 835 Q 478 808 397 691 Q 391 679 397 677 C 399 673 399 673 405 677 Z"/>
  <path id="z22885d2" d="M 323 677 Q 308 687 291 693 Q 282 694 277 687 Q 274 681 281 672 Q 317 590 291 427 Q 276 370 280 352 Q 287 322 298 311 Q 308 299 317 312 Q 338 342 340 438 Q 340 606 346 644 C 348 662 348 662 323 677 Z"/>
  <path id="z22885d3" d="M 690 373 Q 683 349 695 327 Q 708 297 718 298 Q 733 299 749 332 Q 765 357 764 379 Q 755 461 760 589 Q 760 626 782 658 Q 794 674 785 686 Q 757 713 705 735 Q 689 742 663 733 Q 560 694 405 677 L 397 677 Q 357 677 323 677 C 293 677 316 641 346 644 Q 353 644 362 645 Q 450 660 517 671 Q 656 699 687 678 Q 697 656 701 594 Q 701 408 690 373 Z"/>
  <path id="z22885d4" d="M 397 563 Q 433 527 444 528 Q 451 528 454 537 Q 457 546 451 565 Q 444 583 394 594 Q 384 595 380 594 Q 376 593 377 583 Q 380 576 397 563 Z"/>
  <path id="z22885d5" d="M 613 607 Q 600 586 572 553 Q 568 549 571 544 Q 575 543 581 545 Q 635 579 661 592 Q 673 595 671 602 Q 667 612 654 625 Q 642 638 627 639 Q 617 639 617 626 Q 618 617 613 607 Z"/>
  <path id="z22885d6" d="M 525 482 Q 589 492 643 499 Q 664 502 657 513 Q 647 526 625 531 Q 595 537 527 516 L 495 510 Q 432 498 375 487 Q 360 484 378 470 Q 391 460 417 465 Q 442 469 468 472 L 525 482 Z"/>
  <path id="z22885d7" d="M 495 448 Q 489 355 499 338 L 500 336 Q 507 326 517 331 Q 523 337 524 443 Q 524 462 525 482 L 527 516 Q 530 571 546 599 Q 550 606 542 616 Q 526 629 506 637 Q 493 643 483 639 Q 473 635 478 625 Q 494 600 495 510 L 495 448 Z"/>
  <path id="z22885d8" d="M 468 472 Q 429 409 362 358 Q 355 351 360 349 Q 370 345 409 365 Q 419 371 488 439 Q 492 446 495 448 C 522 477 488 504 468 472 Z"/>
  <path id="z22885d9" d="M 566 425 Q 615 368 636 365 Q 646 364 652 380 Q 653 390 646 407 Q 637 422 616 430 Q 585 445 570 447 Q 563 448 562 439 Q 561 432 566 425 Z"/>
  <path id="z22885d10" d="M 521 208 Q 755 229 847 219 Q 947 216 949 216 Q 949 217 951 218 Q 958 231 947 244 Q 919 272 875 292 Q 860 299 835 291 Q 759 275 682 265 Q 574 256 511 248 L 446 242 Q 148 218 98 216 Q 85 217 83 205 Q 82 193 101 178 Q 117 165 148 153 Q 158 149 177 157 Q 196 163 275 175 Q 351 193 441 201 L 521 208 Z"/>
  <path id="z22885d11" d="M 511 248 Q 511 249 512 250 Q 516 271 523 281 Q 530 288 524 299 Q 518 306 487 319 Q 453 337 436 330 Q 423 324 434 306 Q 444 276 446 242 L 441 201 Q 416 83 276 12 Q 233 -6 167 -30 Q 139 -40 170 -44 Q 261 -47 375 16 Q 393 28 409 42 Q 463 93 497 194 L 511 248 Z"/>
  <path id="z22885d12" d="M 497 194 Q 593 79 699 -27 Q 723 -52 764 -54 Q 839 -58 917 -45 Q 936 -44 939 -38 Q 940 -31 925 -24 Q 742 45 700 71 Q 601 137 529 202 Q 525 206 521 208 C 498 227 478 217 497 194 Z"/>
<defs>
  <clipPath id="z22885c1"><use href="#z22885d1"/></clipPath>
  <clipPath id="z22885c2"><use href="#z22885d2"/></clipPath>
  <clipPath id="z22885c3"><use href="#z22885d3"/></clipPath>
  <clipPath id="z22885c4"><use href="#z22885d4"/></clipPath>
  <clipPath id="z22885c5"><use href="#z22885d5"/></clipPath>
  <clipPath id="z22885c6"><use href="#z22885d6"/></clipPath>
  <clipPath id="z22885c7"><use href="#z22885d7"/></clipPath>
  <clipPath id="z22885c8"><use href="#z22885d8"/></clipPath>
  <clipPath id="z22885c9"><use href="#z22885d9"/></clipPath>
  <clipPath id="z22885c10"><use href="#z22885d10"/></clipPath>
  <clipPath id="z22885c11"><use href="#z22885d11"/></clipPath>
  <clipPath id="z22885c12"><use href="#z22885d12"/></clipPath>
</defs>
<path style="--d:1s;" pathLength="3333" clip-path="url(#z22885c1)" d="M 480 841 L 492 833 L 507 805 L 483 770 L 401 682"/>
<path style="--d:2s;" pathLength="3333" clip-path="url(#z22885c2)" d="M 288 682 L 315 647 L 321 615 L 319 451 L 305 350 L 307 316"/>
<path style="--d:3s;" pathLength="3333" clip-path="url(#z22885c3)" d="M 330 674 L 354 661 L 403 663 L 678 710 L 701 705 L 715 695 L 736 668 L 730 606 L 729 394 L 719 310"/>
<path style="--d:4s;" pathLength="3333" clip-path="url(#z22885c4)" d="M 387 586 L 428 561 L 443 539"/>
<path style="--d:5s;" pathLength="3333" clip-path="url(#z22885c5)" d="M 627 629 L 638 607 L 576 548"/>
<path style="--d:6s;" pathLength="3333" clip-path="url(#z22885c6)" d="M 376 478 L 408 477 L 600 513 L 648 509"/>
<path style="--d:7s;" pathLength="3333" clip-path="url(#z22885c7)" d="M 490 629 L 516 601 L 507 412 L 512 335"/>
<path style="--d:8s;" pathLength="3333" clip-path="url(#z22885c8)" d="M 489 470 L 453 422 L 396 369 L 364 353"/>
<path style="--d:9s;" pathLength="3333" clip-path="url(#z22885c9)" d="M 572 437 L 625 398 L 636 379"/>
<path style="--d:10s;" pathLength="3333" clip-path="url(#z22885c10)" d="M 95 204 L 157 186 L 359 215 L 851 257 L 930 236 L 948 219"/>
<path style="--d:11s;" pathLength="3333" clip-path="url(#z22885c11)" d="M 443 317 L 480 281 L 478 249 L 463 177 L 421 94 L 367 40 L 326 15 L 266 -12 L 177 -35"/>
<path style="--d:12s;" pathLength="3333" clip-path="url(#z22885c12)" d="M 506 198 L 662 57 L 734 3 L 752 -6 L 831 -23 L 933 -36"/>
</svg>