<svg id="z24646" class="acjk" viewBox="0 0 1024 1024" xmlns="http://www.w3.org/2000/svg">
<style>
<![CDATA[
@keyframes zk {
	to {
		stroke-dashoffset:0;
	}
}
svg.acjk path[clip-path] {
	--t:0.8s;
	animation:zk var(--t) linear forwards var(--d);
	stroke-dasharray:3337;
	stroke-dashoffset:3339;
	stroke-width:128;
	stroke-linecap:round;
	stroke-linejoin:round;
	fill:none;
	stroke:#000;
}
svg.acjk path[id] {fill:#ccc;}
]]>
</style>
  <path id="z24646d1" d="M 118 523 Q 99 453 68 388 Q 50 351 74 316 Q 84 298 106 314 Q 158 368 153 465 Q 154 501 143 526 Q 137 535 130 535 Q 121 534 118 523 Z"/>
  <path id="z24646d2" d="M 293 571 Q 327 558 376 532 Q 391 525 403 529 Q 412 532 413 544 Q 414 557 399 580 Q 389 596 358 602 Q 327 603 294 603 C 264 603 265 582 293 571 Z"/>
  <path id="z24646d3" d="M 294 603 Q 297 684 314 739 Q 323 755 320 768 Q 313 778 258 813 Q 234 831 213 815 Q 209 811 214 794 Q 244 748 246 663 Q 246 285 225 171 Q 219 149 213 125 Q 203 86 227 23 Q 234 4 242 1 Q 248 -6 256 3 Q 283 19 284 85 Q 283 134 293 571 L 294 603 Z"/>
  <path id="z24646d4" d="M 633 695 Q 859 746 867 752 Q 877 761 872 771 Q 863 784 830 792 Q 803 796 685 760 Q 549 733 523 730 Q 481 723 511 704 Q 545 685 595 687 L 633 695 Z"/>
  <path id="z24646d5" d="M 594 534 Q 633 624 649 647 Q 656 660 647 675 Q 641 685 633 695 C 615 719 596 717 595 687 Q 595 591 492 430 Q 443 364 446 327 Q 446 320 449 313 Q 453 297 468 305 Q 499 320 539 408 Q 560 456 582 506 L 594 534 Z"/>
  <path id="z24646d6" d="M 678 165 Q 789 447 837 474 Q 858 487 849 504 Q 836 528 797 556 Q 779 574 744 565 Q 662 540 594 534 C 564 531 555 519 582 506 Q 583 506 587 504 Q 606 491 633 499 Q 667 505 699 513 Q 730 517 743 507 Q 750 498 741 470 Q 695 328 620 159 C 608 132 667 137 678 165 Z"/>
  <path id="z24646d7" d="M 584 388 Q 611 357 634 348 Q 644 347 652 357 Q 656 367 654 380 Q 648 398 634 407 Q 631 408 593 418 Q 580 422 573 418 Q 569 417 570 408 Q 571 399 584 388 Z"/>
  <path id="z24646d8" d="M 528 293 Q 558 245 579 235 Q 591 231 600 241 Q 606 251 606 265 Q 600 301 543 323 Q 530 329 522 327 Q 516 326 517 316 Q 517 306 528 293 Z"/>
  <path id="z24646d9" d="M 620 159 Q 527 152 459 142 Q 383 132 327 132 Q 314 133 313 122 Q 312 112 330 98 Q 366 70 408 82 Q 492 112 758 130 Q 842 136 953 122 Q 975 119 980 128 Q 987 140 976 151 Q 949 176 909 194 Q 896 200 873 192 Q 839 182 793 177 Q 732 173 678 165 L 620 159 Z"/>
<defs>
  <clipPath id="z24646c1"><use href="#z24646d1"/></clipPath>
  <clipPath id="z24646c2"><use href="#z24646d2"/></clipPath>
  <clipPath id="z24646c3"><use href="#z24646d3"/></clipPath>
  <clipPath id="z24646c4"><use href="#z24646d4"/></clipPath>
  <clipPath id="z24646c5"><use href="#z24646d5"/></clipPath>
  <clipPath id="z24646c6"><use href="#z24646d6"/></clipPath>
  <clipPath id="z24646c7"><use href="#z24646d7"/></clipPath>
  <clipPath id="z24646c8"><use href="#z24646d8"/></clipPath>
  <clipPath id="z24646c9"><use href="#z24646d9"/></clipPath>
</defs>
<path style="--d:1s;" pathLength="3333" clip-path="url(#z24646c1)" d="M 131 523 L 120 423 L 88 322"/>
<path style="--d:2s;" pathLength="3333" clip-path="url(#z24646c2)" d="M 301 597 L 313 584 L 374 566 L 398 543"/>
<path style="--d:3s;" pathLength="3333" clip-path="url(#z24646c3)" d="M 225 808 L 253 784 L 275 753 L 266 361 L 257 187 L 247 113 L 247 15"/>
<path style="--d:4s;" pathLength="3333" clip-path="url(#z24646c4)" d="M 514 719 L 535 713 L 587 713 L 814 765 L 860 763"/>
<path style="--d:5s;" pathLength="3333" clip-path="url(#z24646c5)" d="M 603 681 L 622 659 L 583 552 L 460 313"/>
<path style="--d:6s;" pathLength="3333" clip-path="url(#z24646c6)" d="M 587 512 L 693 532 L 757 536 L 771 531 L 792 497 L 671 211 L 660 189 L 627 166"/>
<path style="--d:7s;" pathLength="3333" clip-path="url(#z24646c7)" d="M 579 411 L 623 384 L 636 364"/>
<path style="--d:8s;" pathLength="3333" clip-path="url(#z24646c8)" d="M 527 318 L 573 275 L 585 252"/>
<path style="--d:9s;" pathLength="3333" clip-path="url(#z24646c9)" d="M 324 122 L 383 106 L 581 136 L 889 162 L 968 137"/>
</svg>