<svg id="z27819" class="acjk" viewBox="0 0 1024 1024" xmlns="http://www.w3.org/2000/svg">
<style>
<![CDATA[
@keyframes zk {
	to {
		stroke-dashoffset:0;
	}
}
svg.acjk path[clip-path] {
	--t:0.8s;
	animation:zk var(--t) linear forwards var(--d);
	stroke-dasharray:3337;
	stroke-dashoffset:3339;
	stroke-width:128;
	stroke-linecap:round;
	stroke-linejoin:round;
	fill:none;
	stroke:#000;
}
svg.acjk path[id] {fill:#ccc;}
]]>
</style>
  <path id="z27819d1" d="M 214 666 Q 239 644 267 618 Q 282 605 299 605 Q 311 606 316 620 Q 322 636 311 669 Q 299 699 208 719 Q 192 723 184 719 Q 178 715 180 701 Q 184 688 214 666 Z"/>
  <path id="z27819d2" d="M 119 476 Q 158 425 194 410 Q 210 407 219 421 Q 225 434 223 451 Q 211 493 132 515 Q 116 519 105 516 Q 99 515 101 502 Q 102 490 119 476 Z"/>
  <path id="z27819d3" d="M 128 138 Q 115 134 118 116 Q 130 38 169 20 Q 176 13 187 15 Q 194 16 195 43 Q 201 91 297 343 Q 304 359 303 366 Q 302 376 293 369 Q 283 363 168 179 Q 155 160 128 138 Z"/>
  <path id="z27819d4" d="M 582 565 Q 658 578 739 590 Q 806 603 817 611 Q 827 618 822 628 Q 815 641 787 649 Q 756 658 725 647 Q 655 628 582 611 L 539 602 Q 454 590 360 585 Q 323 581 348 562 Q 387 538 466 548 Q 502 554 541 559 L 582 565 Z"/>
  <path id="z27819d5" d="M 582 400 Q 633 410 689 417 Q 738 427 746 433 Q 755 440 750 448 Q 744 461 716 468 Q 688 475 658 465 Q 621 455 582 444 L 540 435 Q 473 423 395 419 Q 359 415 384 397 Q 423 370 488 386 Q 498 389 511 389 L 582 400 Z"/>
  <path id="z27819d6" d="M 582 397 Q 582 398 582 400 L 582 444 Q 582 502 582 565 L 582 611 Q 583 696 600 756 Q 609 772 605 785 Q 598 795 542 829 Q 518 845 497 829 Q 493 825 499 809 Q 535 757 537 703 Q 538 655 539 602 L 541 559 Q 541 472 540 435 L 539 339 Q 539 144 514 52 Q 505 9 531 -50 Q 538 -68 546 -71 Q 553 -78 560 -70 Q 587 -46 586 13 Q 583 56 582 357 L 582 397 Z"/>
  <path id="z27819d7" d="M 511 389 Q 450 251 258 94 Q 248 82 256 81 Q 265 77 275 83 Q 386 131 482 258 Q 498 282 519 309 Q 531 327 539 339 C 581 402 528 426 511 389 Z"/>
  <path id="z27819d8" d="M 582 357 Q 736 129 783 112 Q 837 94 949 100 Q 968 101 970 105 Q 974 112 959 120 Q 763 217 688 288 Q 663 312 637 337 Q 600 380 582 397 C 561 418 565 382 582 357 Z"/>
<defs>
  <clipPath id="z27819c1"><use href="#z27819d1"/></clipPath>
  <clipPath id="z27819c2"><use href="#z27819d2"/></clipPath>
  <clipPath id="z27819c3"><use href="#z27819d3"/></clipPath>
  <clipPath id="z27819c4"><use href="#z27819d4"/></clipPath>
  <clipPath id="z27819c5"><use href="#z27819d5"/></clipPath>
  <clipPath id="z27819c6"><use href="#z27819d6"/></clipPath>
  <clipPath id="z27819c7"><use href="#z27819d7"/></clipPath>
  <clipPath id="z27819c8"><use href="#z27819d8"/></clipPath>
</defs>
<path style="--d:1s;" pathLength="3333" clip-path="url(#z27819c1)" d="M 191 710 L 269 664 L 297 624"/>
<path style="--d:2s;" pathLength="3333" clip-path="url(#z27819c2)" d="M 112 506 L 176 462 L 199 432"/>
<path style="--d:3s;" pathLength="3333" clip-path="url(#z27819c3)" d="M 182 24 L 168 57 L 165 109 L 297 363"/>
<path style="--d:4s;" pathLength="3333" clip-path="url(#z27819c4)" d="M 352 575 L 406 566 L 454 568 L 586 588 L 752 623 L 811 622"/>
<path style="--d:5s;" pathLength="3333" clip-path="url(#z27819c5)" d="M 387 409 L 459 402 L 572 419 L 683 444 L 737 444"/>
<path style="--d:6s;" pathLength="3333" clip-path="url(#z27819c6)" d="M 509 823 L 553 783 L 564 759 L 561 223 L 548 32 L 552 -56"/>
<path style="--d:7s;" pathLength="3333" clip-path="url(#z27819c7)" d="M 533 387 L 497 315 L 438 236 L 358 155 L 262 87"/>
<path style="--d:8s;" pathLength="3333" clip-path="url(#z27819c8)" d="M 589 384 L 600 353 L 632 313 L 705 233 L 779 168 L 818 146 L 964 108"/>
</svg>