<svg id="z22684" class="acjk" viewBox="0 0 1024 1024" xmlns="http://www.w3.org/2000/svg">
<style>
<![CDATA[
@keyframes zk {
	to {
		stroke-dashoffset:0;
	}
}
svg.acjk path[clip-path] {
	--t:0.8s;
	animation:zk var(--t) linear forwards var(--d);
	stroke-dasharray:3337;
	stroke-dashoffset:3339;
	stroke-width:128;
	stroke-linecap:round;
	stroke-linejoin:round;
	fill:none;
	stroke:#000;
}
svg.acjk path[id] {fill:#ccc;}
]]>
</style>
  <path id="z22684d1" d="M 226 693 Q 262 700 299 719 Q 314 728 323 719 Q 327 715 317 700 Q 299 672 283 643 Q 271 622 292 587 Q 340 517 329 499 Q 325 492 308 495 Q 289 499 268 499 Q 246 500 270 486 Q 312 459 350 427 Q 365 417 375 429 Q 388 439 393 463 Q 402 514 337 585 Q 286 622 331 658 Q 371 706 392 716 Q 411 726 402 740 Q 390 758 355 778 Q 336 787 323 776 Q 277 737 214 723 C 185 716 197 686 226 693 Z"/>
  <path id="z22684d2" d="M 214 723 Q 192 739 164 748 Q 155 749 150 741 Q 146 735 154 725 Q 208 593 174 360 Q 155 281 160 264 Q 170 233 181 220 Q 191 207 201 220 Q 223 251 225 410 Q 219 617 226 693 C 228 714 228 714 214 723 Z"/>
  <path id="z22684d3" d="M 496 758 Q 514 739 534 715 Q 544 702 558 702 Q 568 702 573 713 Q 577 725 573 751 Q 564 781 495 800 Q 482 804 476 803 Q 472 799 472 788 Q 473 778 496 758 Z"/>
  <path id="z22684d4" d="M 688 811 Q 669 774 630 717 Q 626 710 631 703 Q 638 702 646 707 Q 724 773 761 797 Q 779 804 773 814 Q 766 829 746 845 Q 725 861 703 862 Q 690 861 691 841 Q 695 828 688 811 Z"/>
  <path id="z22684d5" d="M 593 643 Q 693 665 775 677 Q 797 681 789 693 Q 779 706 755 711 Q 733 715 694 704 Q 561 673 447 648 Q 431 645 450 630 Q 465 621 545 635 L 593 643 Z"/>
  <path id="z22684d6" d="M 573 585 Q 592 604 603 611 Q 612 621 611 628 Q 610 638 593 643 C 565 653 557 656 545 635 Q 517 580 424 510 Q 408 500 429 500 Q 472 500 556 570 L 573 585 Z"/>
  <path id="z22684d7" d="M 669 513 Q 606 576 573 585 C 545 596 531 586 556 570 L 575 558 L 618 522 Q 628 512 637 498 L 657 446 Q 663 410 652 351 Q 645 326 638 321 Q 631 317 615 317 Q 558 329 556 320 Q 555 313 566 303 Q 609 266 627 241 Q 639 225 653 229 Q 666 233 680 255 Q 693 285 700 333 Q 707 399 699 438 Q 695 454 691 467 C 677 516 687 495 669 513 Z"/>
  <path id="z22684d8" d="M 575 558 Q 574 557 573 553 Q 554 501 420 420 Q 404 413 423 412 Q 478 408 581 492 Q 606 514 618 522 C 642 539 586 586 575 558 Z"/>
  <path id="z22684d9" d="M 637 498 Q 636 498 634 495 Q 559 396 390 313 Q 377 304 384 301 Q 391 295 403 297 Q 508 313 614 405 Q 650 433 650 437 Q 654 441 657 446 C 675 470 657 521 637 498 Z"/>
  <path id="z22684d10" d="M 684 503 Q 759 552 798 570 Q 813 574 810 583 Q 806 596 790 614 Q 774 630 756 632 Q 743 633 743 616 Q 744 595 669 513 C 649 491 659 487 684 503 Z"/>
  <path id="z22684d11" d="M 691 467 Q 752 403 826 335 Q 844 322 866 327 Q 945 345 969 354 Q 976 357 976 361 Q 976 365 965 369 Q 842 400 777 442 Q 732 469 684 503 C 659 520 670 489 691 467 Z"/>
  <path id="z22684d12" d="M 517 137 Q 659 161 669 167 Q 679 174 675 184 Q 668 197 638 205 Q 610 212 523 188 L 461 174 Q 400 164 332 161 Q 295 157 320 138 Q 360 114 434 125 Q 447 128 464 129 L 517 137 Z"/>
  <path id="z22684d13" d="M 505 29 Q 511 86 517 137 L 523 188 Q 526 216 536 237 Q 539 247 520 261 Q 487 280 465 284 Q 449 287 442 279 Q 435 272 442 258 Q 457 240 461 174 L 464 129 Q 464 80 464 25 C 464 -5 502 -1 505 29 Z"/>
  <path id="z22684d14" d="M 464 25 Q 325 15 167 3 Q 145 2 160 -17 Q 173 -33 193 -40 Q 215 -47 233 -42 Q 482 12 858 -11 Q 880 -12 885 -3 Q 892 10 875 25 Q 815 73 752 59 Q 655 46 505 29 L 464 25 Z"/>
<defs>
  <clipPath id="z22684c1"><use href="#z22684d1"/></clipPath>
  <clipPath id="z22684c2"><use href="#z22684d2"/></clipPath>
  <clipPath id="z22684c3"><use href="#z22684d3"/></clipPath>
  <clipPath id="z22684c4"><use href="#z22684d4"/></clipPath>
  <clipPath id="z22684c5"><use href="#z22684d5"/></clipPath>
  <clipPath id="z22684c6"><use href="#z22684d6"/></clipPath>
  <clipPath id="z22684c7"><use href="#z22684d7"/></clipPath>
  <clipPath id="z22684c8"><use href="#z22684d8"/></clipPath>
  <clipPath id="z22684c9"><use href="#z22684d9"/></clipPath>
  <clipPath id="z22684c10"><use href="#z22684d10"/></clipPath>
  <clipPath id="z22684c11"><use href="#z22684d11"/></clipPath>
  <clipPath id="z22684c12"><use href="#z22684d12"/></clipPath>
  <clipPath id="z22684c13"><use href="#z22684d13"/></clipPath>
  <clipPath id="z22684c14"><use href="#z22684d14"/></clipPath>
</defs>
<path style="--d:1s;" pathLength="3333" clip-path="url(#z22684c1)" d="M 223 721 L 236 712 L 336 748 L 356 735 L 346 706 L 305 653 L 294 625 L 311 584 L 318 581 L 355 521 L 360 495 L 356 471 L 308 478 L 275 493"/>
<path style="--d:2s;" pathLength="3333" clip-path="url(#z22684c2)" d="M 161 736 L 194 698 L 205 576 L 204 398 L 188 271 L 191 224"/>
<path style="--d:3s;" pathLength="3333" clip-path="url(#z22684c3)" d="M 480 794 L 530 760 L 546 744 L 558 718"/>
<path style="--d:4s;" pathLength="3333" clip-path="url(#z22684c4)" d="M 762 809 L 726 816 L 637 710"/>
<path style="--d:5s;" pathLength="3333" clip-path="url(#z22684c5)" d="M 448 639 L 508 643 L 747 693 L 779 687"/>
<path style="--d:6s;" pathLength="3333" clip-path="url(#z22684c6)" d="M 598 626 L 567 614 L 481 534 L 433 508"/>
<path style="--d:7s;" pathLength="3333" clip-path="url(#z22684c7)" d="M 563 571 L 590 563 L 651 510 L 675 455 L 681 392 L 669 316 L 646 281 L 561 317"/>
<path style="--d:8s;" pathLength="3333" clip-path="url(#z22684c8)" d="M 580 553 L 582 523 L 546 486 L 467 433 L 446 423 L 431 424 L 428 418"/>
<path style="--d:9s;" pathLength="3333" clip-path="url(#z22684c9)" d="M 634 487 L 627 448 L 566 394 L 460 329 L 391 305"/>
<path style="--d:10s;" pathLength="3333" clip-path="url(#z22684c10)" d="M 755 620 L 769 591 L 715 540 L 687 518 L 680 521"/>
<path style="--d:11s;" pathLength="3333" clip-path="url(#z22684c11)" d="M 691 498 L 701 475 L 728 451 L 852 364 L 968 362"/>
<path style="--d:12s;" pathLength="3333" clip-path="url(#z22684c12)" d="M 324 151 L 377 142 L 422 145 L 605 180 L 663 179"/>
<path style="--d:13s;" pathLength="3333" clip-path="url(#z22684c13)" d="M 454 269 L 493 232 L 487 55 L 470 33"/>
<path style="--d:14s;" pathLength="3333" clip-path="url(#z22684c14)" d="M 164 -7 L 215 -19 L 516 13 L 765 28 L 825 22 L 873 5"/>
</svg>