<svg id="z27176" class="acjk" viewBox="0 0 1024 1024" xmlns="http://www.w3.org/2000/svg">
<style>
<![CDATA[
@keyframes zk {
	to {
		stroke-dashoffset:0;
	}
}
svg.acjk path[clip-path] {
	--t:0.8s;
	animation:zk var(--t) linear forwards var(--d);
	stroke-dasharray:3337;
	stroke-dashoffset:3339;
	stroke-width:128;
	stroke-linecap:round;
	stroke-linejoin:round;
	fill:none;
	stroke:#000;
}
svg.acjk path[id] {fill:#ccc;}
]]>
</style>
  <path id="z27176d1" d="M 310 563 Q 412 588 415 591 Q 425 600 419 608 Q 412 620 382 627 Q 345 633 312 616 L 267 601 Q 251 598 234 593 Q 185 580 125 574 Q 88 567 115 550 Q 160 526 218 543 Q 234 547 258 551 L 310 563 Z"/>
  <path id="z27176d2" d="M 308 508 Q 308 535 310 563 L 312 616 Q 315 704 334 763 Q 343 779 340 792 Q 333 802 278 837 Q 254 855 233 839 Q 229 835 234 819 Q 267 770 267 720 Q 267 665 267 601 L 262 441 Q 258 357 257 266 Q 251 188 230 117 Q 218 78 243 15 Q 250 -4 258 -7 Q 264 -14 272 -5 Q 279 -1 290 20 Q 300 45 300 76 Q 299 121 307 478 L 308 508 Z"/>
  <path id="z27176d3" d="M 258 551 Q 212 416 58 201 Q 52 191 64 190 Q 88 190 191 325 Q 228 374 262 441 C 334 580 268 579 258 551 Z"/>
  <path id="z27176d4" d="M 307 478 Q 365 412 386 409 Q 399 408 405 425 Q 406 437 398 456 Q 388 474 363 484 Q 324 503 308 508 C 280 518 287 500 307 478 Z"/>
  <path id="z27176d5" d="M 796 693 Q 823 741 844 750 Q 860 766 847 784 Q 832 797 784 822 Q 768 829 747 822 Q 654 785 515 764 C 485 759 511 730 541 735 Q 553 736 729 773 Q 750 779 758 770 Q 764 764 762 753 Q 755 722 746 694 C 737 665 781 667 796 693 Z"/>
  <path id="z27176d6" d="M 526 616 Q 538 613 551 616 Q 633 638 812 657 Q 822 658 824 667 Q 824 676 796 693 C 781 703 775 701 746 694 Q 625 663 528 647 C 498 642 496 620 526 616 Z"/>
  <path id="z27176d7" d="M 515 764 Q 476 786 462 779 Q 450 772 457 759 Q 476 735 477 679 Q 476 661 475 639 Q 472 474 430 341 Q 396 239 318 110 Q 314 103 311 97 Q 310 87 319 89 Q 347 93 423 216 Q 438 246 453 277 Q 516 427 526 616 L 528 647 Q 529 666 532 683 Q 533 702 538 720 Q 542 727 541 735 C 544 749 542 751 515 764 Z"/>
  <path id="z27176d8" d="M 661 597 Q 674 558 668 486 Q 665 470 683 446 Q 690 439 697 447 Q 703 456 710 537 Q 707 543 713 576 Q 717 592 703 600 Q 691 607 680 613 Q 671 616 664 612 Q 658 608 661 597 Z"/>
  <path id="z27176d9" d="M 564 564 Q 601 527 618 528 Q 628 528 631 542 Q 631 552 622 566 Q 607 584 565 584 Q 558 585 558 576 Q 558 570 564 564 Z"/>
  <path id="z27176d10" d="M 539 466 Q 532 465 532 458 Q 531 451 538 446 Q 551 439 572 431 Q 578 430 584 436 Q 591 446 602 454 Q 617 464 631 477 Q 646 489 647 497 Q 643 500 561 470 Q 551 469 539 466 Z"/>
  <path id="z27176d11" d="M 790 597 Q 772 579 738 553 Q 732 549 735 544 Q 739 541 746 543 Q 807 562 837 569 Q 850 569 849 577 Q 848 590 839 606 Q 829 622 814 627 Q 804 630 800 616 Q 800 606 790 597 Z"/>
  <path id="z27176d12" d="M 756 482 Q 787 463 821 440 Q 831 433 841 434 Q 848 435 850 444 Q 851 454 843 472 Q 831 499 749 511 Q 739 512 735 510 Q 734 507 735 499 Q 738 492 756 482 Z"/>
  <path id="z27176d13" d="M 571 312 Q 581 331 602 347 Q 609 354 606 363 Q 603 372 585 388 Q 567 401 555 402 Q 542 401 547 386 Q 559 355 481 253 Q 474 246 473 242 Q 470 235 479 236 Q 498 240 551 292 Q 552 295 556 296 C 567 305 567 305 571 312 Z"/>
  <path id="z27176d14" d="M 724 300 Q 829 324 835 328 Q 842 335 839 342 Q 832 352 807 358 Q 782 362 756 353 Q 741 349 726 343 L 670 327 Q 624 317 571 312 C 541 309 538 309 556 296 Q 565 287 595 281 Q 598 281 670 288 L 724 300 Z"/>
  <path id="z27176d15" d="M 720 173 Q 765 176 920 177 Q 939 177 943 185 Q 947 195 933 207 Q 881 246 823 229 Q 780 222 721 210 L 669 203 Q 572 190 459 176 Q 440 175 454 159 Q 467 146 483 142 Q 502 136 516 141 Q 585 159 663 167 Q 664 168 669 167 L 720 173 Z"/>
  <path id="z27176d16" d="M 672 -29 Q 676 -53 683 -61 Q 687 -68 695 -66 Q 719 -47 720 167 Q 720 170 720 173 L 721 210 Q 722 250 724 300 L 726 343 Q 730 370 733 383 Q 736 399 723 408 Q 693 427 680 430 Q 668 434 654 427 Q 647 420 652 410 Q 670 379 670 327 L 670 288 Q 670 249 669 203 L 669 167 Q 669 -7 672 -29 Z"/>
<defs>
  <clipPath id="z27176c1"><use href="#z27176d1"/></clipPath>
  <clipPath id="z27176c2"><use href="#z27176d2"/></clipPath>
  <clipPath id="z27176c3"><use href="#z27176d3"/></clipPath>
  <clipPath id="z27176c4"><use href="#z27176d4"/></clipPath>
  <clipPath id="z27176c5"><use href="#z27176d5"/></clipPath>
  <clipPath id="z27176c6"><use href="#z27176d6"/></clipPath>
  <clipPath id="z27176c7"><use href="#z27176d7"/></clipPath>
  <clipPath id="z27176c8"><use href="#z27176d8"/></clipPath>
  <clipPath id="z27176c9"><use href="#z27176d9"/></clipPath>
  <clipPath id="z27176c10"><use href="#z27176d10"/></clipPath>
  <clipPath id="z27176c11"><use href="#z27176d11"/></clipPath>
  <clipPath id="z27176c12"><use href="#z27176d12"/></clipPath>
  <clipPath id="z27176c13"><use href="#z27176d13"/></clipPath>
  <clipPath id="z27176c14"><use href="#z27176d14"/></clipPath>
  <clipPath id="z27176c15"><use href="#z27176d15"/></clipPath>
  <clipPath id="z27176c16"><use href="#z27176d16"/></clipPath>
</defs>
<path style="--d:1s;" pathLength="3333" clip-path="url(#z27176c1)" d="M 117 563 L 177 558 L 350 601 L 409 601"/>
<path style="--d:2s;" pathLength="3333" clip-path="url(#z27176c2)" d="M 245 832 L 274 808 L 297 777 L 281 278 L 263 94 L 263 7"/>
<path style="--d:3s;" pathLength="3333" clip-path="url(#z27176c3)" d="M 263 545 L 240 450 L 216 403 L 153 304 L 65 198"/>
<path style="--d:4s;" pathLength="3333" clip-path="url(#z27176c4)" d="M 311 500 L 322 485 L 368 452 L 387 425"/>
<path style="--d:5s;" pathLength="3333" clip-path="url(#z27176c5)" d="M 524 764 L 550 753 L 685 779 L 749 799 L 771 796 L 801 767 L 781 720 L 752 700"/>
<path style="--d:6s;" pathLength="3333" clip-path="url(#z27176c6)" d="M 533 623 L 566 638 L 752 672 L 794 674 L 814 667"/>
<path style="--d:7s;" pathLength="3333" clip-path="url(#z27176c7)" d="M 467 767 L 494 746 L 506 721 L 497 559 L 468 390 L 446 319 L 401 215 L 349 132 L 319 97"/>
<path style="--d:8s;" pathLength="3333" clip-path="url(#z27176c8)" d="M 671 603 L 689 580 L 690 453"/>
<path style="--d:9s;" pathLength="3333" clip-path="url(#z27176c9)" d="M 569 574 L 605 555 L 617 542"/>
<path style="--d:10s;" pathLength="3333" clip-path="url(#z27176c10)" d="M 543 456 L 572 452 L 640 493"/>
<path style="--d:11s;" pathLength="3333" clip-path="url(#z27176c11)" d="M 811 616 L 818 591 L 741 547"/>
<path style="--d:12s;" pathLength="3333" clip-path="url(#z27176c12)" d="M 742 505 L 814 471 L 837 446"/>
<path style="--d:13s;" pathLength="3333" clip-path="url(#z27176c13)" d="M 555 392 L 573 365 L 567 346 L 533 294 L 480 243"/>
<path style="--d:14s;" pathLength="3333" clip-path="url(#z27176c14)" d="M 563 297 L 632 300 L 789 338 L 829 337"/>
<path style="--d:15s;" pathLength="3333" clip-path="url(#z27176c15)" d="M 456 168 L 507 160 L 678 187 L 848 205 L 903 200 L 933 190"/>
<path style="--d:16s;" pathLength="3333" clip-path="url(#z27176c16)" d="M 663 417 L 698 384 L 691 -59"/>
</svg>