<svg id="z20853" class="acjk" viewBox="0 0 1024 1024" xmlns="http://www.w3.org/2000/svg">
<style>
<![CDATA[
@keyframes zk {
	to {
		stroke-dashoffset:0;
	}
}
svg.acjk path[clip-path] {
	--t:0.8s;
	animation:zk var(--t) linear forwards var(--d);
	stroke-dasharray:3337;
	stroke-dashoffset:3339;
	stroke-width:128;
	stroke-linecap:round;
	stroke-linejoin:round;
	fill:none;
	stroke:#000;
}
svg.acjk path[id] {fill:#ccc;}
]]>
</style>
  <path id="z20853d1" d="M 383 657 Q 524 690 592 719 Q 644 737 689 743 Q 708 743 713 752 Q 717 764 705 778 Q 683 797 633 819 Q 617 829 601 828 Q 592 824 591 812 Q 587 772 368 677 C 341 665 354 650 383 657 Z"/>
  <path id="z20853d2" d="M 385 545 Q 384 614 386 633 Q 387 646 383 657 C 381 668 381 668 368 677 Q 340 699 306 707 Q 288 713 278 705 Q 268 698 277 678 Q 305 632 318 581 Q 328 529 352 318 C 355 288 405 293 402 323 Q 392 432 387 507 L 385 545 Z"/>
  <path id="z20853d3" d="M 618 531 Q 756 558 762 564 Q 772 573 767 582 Q 760 595 727 605 Q 700 611 591 581 Q 486 556 385 545 C 355 542 357 510 387 507 Q 426 501 524 515 Q 546 519 572 523 L 618 531 Z"/>
  <path id="z20853d4" d="M 619 351 Q 646 457 661 487 Q 665 496 649 512 Q 633 524 618 531 C 591 544 560 550 572 523 Q 572 522 574 518 Q 589 494 576 345 C 573 315 612 322 619 351 Z"/>
  <path id="z20853d5" d="M 352 318 Q 234 308 106 292 Q 84 291 100 271 Q 116 255 135 249 Q 159 243 176 248 Q 425 311 849 312 Q 874 312 899 311 Q 921 310 927 320 Q 933 333 915 348 Q 857 393 816 384 Q 737 369 619 351 L 576 345 Q 539 341 497 335 Q 451 331 402 323 L 352 318 Z"/>
  <path id="z20853d6" d="M 351 201 Q 275 125 153 42 Q 138 29 155 22 Q 203 22 344 109 Q 404 154 427 159 Q 449 166 444 187 Q 437 205 401 239 Q 389 251 376 249 Q 358 245 362 229 Q 366 213 351 201 Z"/>
  <path id="z20853d7" d="M 598 200 Q 668 133 750 35 Q 768 11 786 5 Q 796 4 805 15 Q 821 30 808 82 Q 795 148 601 236 Q 591 243 588 228 Q 587 212 598 200 Z"/>
<defs>
  <clipPath id="z20853c1"><use href="#z20853d1"/></clipPath>
  <clipPath id="z20853c2"><use href="#z20853d2"/></clipPath>
  <clipPath id="z20853c3"><use href="#z20853d3"/></clipPath>
  <clipPath id="z20853c4"><use href="#z20853d4"/></clipPath>
  <clipPath id="z20853c5"><use href="#z20853d5"/></clipPath>
  <clipPath id="z20853c6"><use href="#z20853d6"/></clipPath>
  <clipPath id="z20853c7"><use href="#z20853d7"/></clipPath>
</defs>
<path style="--d:1s;" pathLength="3333" clip-path="url(#z20853c1)" d="M 701 758 L 688 765 L 623 775 L 492 708 L 391 672 L 382 680"/>
<path style="--d:2s;" pathLength="3333" clip-path="url(#z20853c2)" d="M 289 693 L 324 665 L 344 638 L 372 357 L 381 339 L 395 331"/>
<path style="--d:3s;" pathLength="3333" clip-path="url(#z20853c3)" d="M 393 514 L 406 527 L 510 537 L 715 579 L 755 576"/>
<path style="--d:4s;" pathLength="3333" clip-path="url(#z20853c4)" d="M 580 523 L 619 486 L 602 372 L 582 358"/>
<path style="--d:5s;" pathLength="3333" clip-path="url(#z20853c5)" d="M 103 281 L 158 272 L 460 314 L 826 349 L 862 345 L 914 327"/>
<path style="--d:6s;" pathLength="3333" clip-path="url(#z20853c6)" d="M 376 234 L 389 214 L 393 189 L 284 104 L 156 32"/>
<path style="--d:7s;" pathLength="3333" clip-path="url(#z20853c7)" d="M 601 222 L 691 154 L 757 92 L 774 65 L 787 23"/>
</svg>