<svg id="z20767" class="acjk" viewBox="0 0 1024 1024" xmlns="http://www.w3.org/2000/svg">
<style>
<![CDATA[
@keyframes zk {
	to {
		stroke-dashoffset:0;
	}
}
svg.acjk path[clip-path] {
	--t:0.8s;
	animation:zk var(--t) linear forwards var(--d);
	stroke-dasharray:3337;
	stroke-dashoffset:3339;
	stroke-width:128;
	stroke-linecap:round;
	stroke-linejoin:round;
	fill:none;
	stroke:#000;
}
svg.acjk path[id] {fill:#ccc;}
]]>
</style>
  <path id="z20767d1" d="M 235 536 Q 272 593 315 665 Q 340 717 365 742 Q 375 752 369 767 Q 365 780 334 803 Q 306 822 285 820 Q 266 819 275 795 Q 291 762 279 734 Q 243 637 187 547 Q 133 460 58 364 Q 48 354 46 347 Q 42 335 57 338 Q 100 350 210 502 L 235 536 Z"/>
  <path id="z20767d2" d="M 210 502 Q 240 433 240 396 Q 240 264 236 208 Q 229 150 215 87 Q 202 41 237 -11 Q 238 -15 243 -19 Q 262 -37 275 -7 Q 291 36 290 86 Q 283 375 291 441 Q 300 471 288 482 Q 248 528 235 536 C 212 555 198 530 210 502 Z"/>
  <path id="z20767d3" d="M 643 685 Q 658 800 669 828 Q 673 838 655 851 Q 624 867 603 872 Q 590 875 582 867 Q 575 861 582 848 Q 601 824 605 678 C 606 648 639 655 643 685 Z"/>
  <path id="z20767d4" d="M 473 768 Q 489 746 507 723 Q 520 708 535 707 Q 547 704 553 720 Q 556 732 548 750 Q 541 763 522 772 Q 492 788 479 791 Q 472 792 470 783 Q 469 776 473 768 Z"/>
  <path id="z20767d5" d="M 747 806 Q 734 781 703 740 Q 699 733 703 727 Q 710 726 717 730 Q 781 773 813 789 Q 829 793 825 803 Q 819 818 802 833 Q 784 849 764 851 Q 751 850 752 833 Q 755 820 747 806 Z"/>
  <path id="z20767d6" d="M 433 649 L 433 650 Q 423 671 412 678 Q 396 691 394 668 Q 400 634 353 580 Q 337 559 361 514 Q 377 495 390 516 Q 403 537 412 567 Q 422 604 432 624 L 433 649 Z"/>
  <path id="z20767d7" d="M 432 624 Q 454 614 476 619 Q 602 661 774 679 Q 808 683 820 682 Q 833 675 830 666 Q 830 663 809 605 Q 802 592 807 588 Q 814 585 830 596 Q 876 627 914 639 Q 945 648 945 656 Q 942 666 880 709 Q 858 727 774 708 Q 701 699 643 685 L 605 678 Q 565 674 520 664 Q 475 655 433 649 C 403 645 403 633 432 624 Z"/>
  <path id="z20767d8" d="M 524 588 Q 515 592 492 595 Q 483 598 480 594 Q 476 588 482 576 Q 501 543 514 488 Q 517 472 527 461 Q 542 445 545 456 Q 546 463 547 473 L 545 500 Q 538 546 536 563 C 533 585 533 585 524 588 Z"/>
  <path id="z20767d9" d="M 726 527 Q 742 558 766 572 Q 779 585 769 600 Q 709 646 665 624 Q 599 602 524 588 C 495 582 507 558 536 563 Q 545 564 556 568 Q 688 598 696 591 Q 702 582 684 531 C 674 503 711 501 726 527 Z"/>
  <path id="z20767d10" d="M 547 473 Q 557 473 569 474 Q 621 486 738 498 Q 747 499 748 506 Q 748 513 726 527 L 684 531 Q 683 532 681 531 Q 606 510 545 500 C 515 495 517 473 547 473 Z"/>
  <path id="z20767d11" d="M 510 421 Q 503 436 465 444 Q 458 445 453 438 Q 450 434 457 425 Q 458 421 461 416 Q 461 413 466 401 Q 490 341 470 225 Q 449 174 483 134 Q 493 124 500 135 Q 504 141 508 150 L 514 183 Q 517 198 517 243 L 517 260 Q 516 285 515 319 L 515 342 Q 515 376 516 392 L 510 421 Z"/>
  <path id="z20767d12" d="M 719 168 Q 720 162 725 156 Q 738 129 746 130 Q 759 131 773 161 Q 786 186 782 229 Q 770 370 794 406 Q 804 422 796 431 Q 771 453 725 472 Q 710 476 688 468 Q 631 441 510 421 C 480 416 488 382 516 392 Q 537 402 678 429 Q 700 435 709 423 Q 721 408 721 360 Q 725 224 719 197 Q 718 196 717 193 C 714 179 714 179 719 168 Z"/>
  <path id="z20767d13" d="M 515 319 Q 519 318 527 319 Q 599 329 651 335 Q 672 338 665 349 Q 655 362 633 367 Q 615 370 515 342 C 486 334 485 322 515 319 Z"/>
  <path id="z20767d14" d="M 517 243 L 518 243 Q 524 237 538 239 Q 605 249 656 255 Q 677 258 669 269 Q 659 282 637 286 Q 615 290 517 260 C 497 254 497 254 517 243 Z"/>
  <path id="z20767d15" d="M 508 150 Q 512 149 520 150 Q 583 162 719 168 C 743 169 739 173 717 193 Q 713 197 704 204 Q 689 213 660 207 Q 579 191 514 183 C 484 179 478 152 508 150 Z"/>
  <path id="z20767d16" d="M 510 93 Q 506 51 389 -48 Q 368 -61 395 -60 Q 458 -60 550 31 Q 568 49 579 56 Q 591 66 588 76 Q 587 89 561 98 Q 533 108 521 107 Q 514 106 510 93 Z"/>
  <path id="z20767d17" d="M 686 86 Q 732 37 785 -31 Q 798 -52 813 -57 Q 820 -58 829 -50 Q 842 -38 833 4 Q 824 46 764 77 Q 755 86 690 115 Q 681 121 679 109 Q 678 96 686 86 Z"/>
<defs>
  <clipPath id="z20767c1"><use href="#z20767d1"/></clipPath>
  <clipPath id="z20767c2"><use href="#z20767d2"/></clipPath>
  <clipPath id="z20767c3"><use href="#z20767d3"/></clipPath>
  <clipPath id="z20767c4"><use href="#z20767d4"/></clipPath>
  <clipPath id="z20767c5"><use href="#z20767d5"/></clipPath>
  <clipPath id="z20767c6"><use href="#z20767d6"/></clipPath>
  <clipPath id="z20767c7"><use href="#z20767d7"/></clipPath>
  <clipPath id="z20767c8"><use href="#z20767d8"/></clipPath>
  <clipPath id="z20767c9"><use href="#z20767d9"/></clipPath>
  <clipPath id="z20767c10"><use href="#z20767d10"/></clipPath>
  <clipPath id="z20767c11"><use href="#z20767d11"/></clipPath>
  <clipPath id="z20767c12"><use href="#z20767d12"/></clipPath>
  <clipPath id="z20767c13"><use href="#z20767d13"/></clipPath>
  <clipPath id="z20767c14"><use href="#z20767d14"/></clipPath>
  <clipPath id="z20767c15"><use href="#z20767d15"/></clipPath>
  <clipPath id="z20767c16"><use href="#z20767d16"/></clipPath>
  <clipPath id="z20767c17"><use href="#z20767d17"/></clipPath>
</defs>
<path style="--d:1s;" pathLength="3333" clip-path="url(#z20767c1)" d="M 285 805 L 312 782 L 325 758 L 279 658 L 219 554 L 148 450 L 80 368 L 55 347"/>
<path style="--d:2s;" pathLength="3333" clip-path="url(#z20767c2)" d="M 234 528 L 239 498 L 261 462 L 264 408 L 263 211 L 250 57 L 255 -11"/>
<path style="--d:3s;" pathLength="3333" clip-path="url(#z20767c3)" d="M 593 858 L 629 823 L 625 703 L 609 691"/>
<path style="--d:4s;" pathLength="3333" clip-path="url(#z20767c4)" d="M 481 780 L 538 722"/>
<path style="--d:5s;" pathLength="3333" clip-path="url(#z20767c5)" d="M 765 837 L 782 808 L 709 734"/>
<path style="--d:6s;" pathLength="3333" clip-path="url(#z20767c6)" d="M 403 672 L 411 658 L 411 631 L 377 561 L 375 521"/>
<path style="--d:7s;" pathLength="3333" clip-path="url(#z20767c7)" d="M 441 642 L 449 635 L 467 635 L 652 676 L 827 700 L 853 689 L 871 666 L 811 593"/>
<path style="--d:8s;" pathLength="3333" clip-path="url(#z20767c8)" d="M 486 589 L 514 560 L 537 461"/>
<path style="--d:9s;" pathLength="3333" clip-path="url(#z20767c9)" d="M 532 584 L 543 578 L 568 580 L 663 607 L 709 609 L 730 587 L 714 551 L 692 541"/>
<path style="--d:10s;" pathLength="3333" clip-path="url(#z20767c10)" d="M 552 480 L 568 490 L 678 511 L 718 513 L 739 507"/>
<path style="--d:11s;" pathLength="3333" clip-path="url(#z20767c11)" d="M 463 434 L 489 409 L 494 389 L 498 294 L 487 175 L 491 139"/>
<path style="--d:12s;" pathLength="3333" clip-path="url(#z20767c12)" d="M 516 400 L 541 415 L 618 428 L 700 451 L 722 446 L 744 427 L 754 414 L 747 140"/>
<path style="--d:13s;" pathLength="3333" clip-path="url(#z20767c13)" d="M 521 325 L 531 335 L 590 345 L 625 350 L 656 345"/>
<path style="--d:14s;" pathLength="3333" clip-path="url(#z20767c14)" d="M 518 247 L 618 268 L 640 270 L 661 264"/>
<path style="--d:15s;" pathLength="3333" clip-path="url(#z20767c15)" d="M 514 155 L 528 168 L 672 188 L 701 184 L 708 173"/>
<path style="--d:16s;" pathLength="3333" clip-path="url(#z20767c16)" d="M 569 72 L 539 69 L 484 5 L 439 -30 L 400 -50"/>
<path style="--d:17s;" pathLength="3333" clip-path="url(#z20767c17)" d="M 689 104 L 780 29 L 807 -10 L 814 -42"/>
</svg>