<svg id="z26757" class="acjk" viewBox="0 0 1024 1024" xmlns="http://www.w3.org/2000/svg">
<style>
<![CDATA[
@keyframes zk {
	to {
		stroke-dashoffset:0;
	}
}
svg.acjk path[clip-path] {
	--t:0.8s;
	animation:zk var(--t) linear forwards var(--d);
	stroke-dasharray:3337;
	stroke-dashoffset:3339;
	stroke-width:128;
	stroke-linecap:round;
	stroke-linejoin:round;
	fill:none;
	stroke:#000;
}
svg.acjk path[id] {fill:#ccc;}
]]>
</style>
  <path id="z26757d1" d="M 348 538 Q 370 545 396 550 Q 438 560 444 567 Q 453 576 448 584 Q 441 596 410 602 Q 379 608 350 594 L 304 578 Q 180 547 125 538 Q 88 531 115 515 Q 161 491 215 507 Q 246 516 285 523 L 348 538 Z"/>
  <path id="z26757d2" d="M 345 469 Q 346 503 348 538 L 350 594 Q 353 685 373 747 Q 382 762 380 776 Q 373 786 318 822 Q 294 840 273 824 Q 269 820 274 803 Q 305 755 305 707 Q 305 646 304 578 L 298 435 Q 286 219 284 203 Q 275 160 263 118 Q 250 76 276 15 Q 282 -3 290 -7 Q 296 -14 304 -5 Q 332 14 333 104 Q 334 183 344 441 L 345 469 Z"/>
  <path id="z26757d3" d="M 285 523 Q 233 382 70 165 Q 64 155 76 154 Q 98 154 211 291 Q 257 351 298 435 C 355 551 296 551 285 523 Z"/>
  <path id="z26757d4" d="M 344 441 Q 401 377 422 373 Q 435 372 441 389 Q 442 401 434 420 Q 424 436 400 446 Q 363 465 347 468 Q 346 469 345 469 C 317 479 324 463 344 441 Z"/>
  <path id="z26757d5" d="M 576 637 Q 604 677 636 730 Q 652 763 669 779 Q 676 789 672 803 Q 668 815 638 835 Q 611 851 593 850 Q 575 847 585 826 Q 616 772 461 538 Q 451 528 450 522 Q 447 510 461 514 Q 492 523 556 611 L 576 637 Z"/>
  <path id="z26757d6" d="M 556 611 Q 590 596 657 608 Q 736 626 821 644 Q 861 654 867 661 Q 876 668 871 677 Q 864 687 836 694 Q 809 700 720 668 Q 600 641 576 637 C 546 632 528 621 556 611 Z"/>
  <path id="z26757d7" d="M 571 525 Q 559 537 542 545 Q 523 555 519 545 Q 515 536 521 527 Q 537 496 532 461 Q 522 401 505 346 L 491 305 Q 469 239 422 196 Q 404 183 406 167 Q 410 152 427 135 Q 443 119 464 137 Q 524 176 708 161 L 770 155 Q 825 148 882 132 Q 898 125 911 131 Q 924 135 918 149 Q 911 168 892 181 Q 879 197 852 196 Q 833 196 788 199 Q 782 200 776 199 L 716 201 Q 631 204 507 193 Q 491 192 497 211 Q 516 260 536 314 L 548 351 Q 584 474 586 497 C 589 512 589 512 571 525 Z"/>
  <path id="z26757d8" d="M 789 385 Q 792 472 811 495 Q 829 517 816 528 Q 794 549 760 561 Q 742 570 679 547 Q 613 532 571 525 C 541 520 557 490 586 497 Q 614 503 697 524 Q 716 528 729 520 Q 742 510 740 466 Q 737 420 735 376 L 732 338 Q 726 256 716 201 L 708 161 Q 695 94 681 69 Q 671 53 650 59 Q 584 74 587 78 Q 557 85 581 60 Q 617 24 644 -15 Q 665 -42 682 -30 Q 757 18 770 155 L 776 199 Q 780 253 785 307 Q 785 323 786 340 L 789 385 Z"/>
  <path id="z26757d9" d="M 603 456 Q 639 396 656 392 Q 666 389 674 403 Q 677 413 672 432 Q 657 463 611 477 Q 604 480 601 471 Q 598 464 603 456 Z"/>
  <path id="z26757d10" d="M 786 340 Q 948 340 954 349 Q 960 359 945 372 Q 893 408 831 393 Q 810 390 789 385 L 735 376 Q 701 372 663 366 Q 608 359 548 351 L 505 346 Q 459 342 415 336 Q 396 335 410 319 Q 423 306 439 301 Q 448 300 491 305 L 536 314 Q 585 324 640 330 Q 680 336 732 338 L 786 340 Z"/>
  <path id="z26757d11" d="M 598 277 Q 631 214 649 209 Q 659 206 667 219 Q 670 229 666 245 Q 662 261 644 272 Q 619 291 606 297 Q 599 300 596 291 Q 595 285 598 277 Z"/>
<defs>
  <clipPath id="z26757c1"><use href="#z26757d1"/></clipPath>
  <clipPath id="z26757c2"><use href="#z26757d2"/></clipPath>
  <clipPath id="z26757c3"><use href="#z26757d3"/></clipPath>
  <clipPath id="z26757c4"><use href="#z26757d4"/></clipPath>
  <clipPath id="z26757c5"><use href="#z26757d5"/></clipPath>
  <clipPath id="z26757c6"><use href="#z26757d6"/></clipPath>
  <clipPath id="z26757c7"><use href="#z26757d7"/></clipPath>
  <clipPath id="z26757c8"><use href="#z26757d8"/></clipPath>
  <clipPath id="z26757c9"><use href="#z26757d9"/></clipPath>
  <clipPath id="z26757c10"><use href="#z26757d10"/></clipPath>
  <clipPath id="z26757c11"><use href="#z26757d11"/></clipPath>
</defs>
<path style="--d:1s;" pathLength="3333" clip-path="url(#z26757c1)" d="M 117 528 L 153 522 L 189 525 L 378 575 L 437 578"/>
<path style="--d:2s;" pathLength="3333" clip-path="url(#z26757c2)" d="M 285 817 L 313 793 L 336 762 L 313 252 L 295 86 L 295 6"/>
<path style="--d:3s;" pathLength="3333" clip-path="url(#z26757c3)" d="M 299 519 L 291 515 L 274 438 L 229 356 L 173 273 L 77 161"/>
<path style="--d:4s;" pathLength="3333" clip-path="url(#z26757c4)" d="M 350 461 L 363 443 L 411 409 L 423 388"/>
<path style="--d:5s;" pathLength="3333" clip-path="url(#z26757c5)" d="M 594 836 L 607 828 L 626 801 L 629 793 L 620 769 L 569 668 L 534 613 L 490 553 L 459 522"/>
<path style="--d:6s;" pathLength="3333" clip-path="url(#z26757c6)" d="M 563 613 L 585 621 L 645 627 L 805 667 L 861 671"/>
<path style="--d:7s;" pathLength="3333" clip-path="url(#z26757c7)" d="M 528 539 L 554 507 L 559 492 L 555 461 L 520 326 L 461 180 L 503 173 L 644 184 L 768 178 L 858 168 L 909 142"/>
<path style="--d:8s;" pathLength="3333" clip-path="url(#z26757c8)" d="M 578 520 L 595 514 L 693 539 L 727 542 L 749 537 L 776 511 L 765 442 L 748 209 L 731 112 L 712 55 L 689 26 L 673 16 L 579 71"/>
<path style="--d:9s;" pathLength="3333" clip-path="url(#z26757c9)" d="M 612 465 L 644 434 L 659 406"/>
<path style="--d:10s;" pathLength="3333" clip-path="url(#z26757c10)" d="M 412 328 L 432 321 L 462 321 L 688 353 L 856 369 L 903 367 L 949 355"/>
<path style="--d:11s;" pathLength="3333" clip-path="url(#z26757c11)" d="M 606 285 L 637 252 L 652 223"/>
</svg>