<svg id="z29747" class="acjk" viewBox="0 0 1024 1024" xmlns="http://www.w3.org/2000/svg">
<style>
<![CDATA[
@keyframes zk {
	to {
		stroke-dashoffset:0;
	}
}
svg.acjk path[clip-path] {
	--t:0.8s;
	animation:zk var(--t) linear forwards var(--d);
	stroke-dasharray:3337;
	stroke-dashoffset:3339;
	stroke-width:128;
	stroke-linecap:round;
	stroke-linejoin:round;
	fill:none;
	stroke:#000;
}
svg.acjk path[id] {fill:#ccc;}
]]>
</style>
  <path id="z29747d1" d="M 223 596 Q 325 624 329 629 Q 336 636 332 645 Q 325 655 295 661 Q 283 662 183 631 Q 152 622 114 617 Q 80 608 106 594 Q 142 579 184 586 L 223 596 Z"/>
  <path id="z29747d2" d="M 241 414 Q 305 438 307 440 Q 313 447 308 454 Q 301 464 275 466 Q 257 467 242 461 L 197 441 Q 152 423 111 413 Q 80 403 105 393 Q 136 381 197 399 L 241 414 Z"/>
  <path id="z29747d3" d="M 237 293 Q 238 357 241 414 L 242 461 Q 245 575 246 576 Q 245 579 244 579 Q 234 589 223 596 C 198 613 173 614 184 586 Q 196 568 197 441 L 197 399 Q 197 348 197 275 C 197 245 236 263 237 293 Z"/>
  <path id="z29747d4" d="M 197 275 Q 149 256 99 233 Q 86 227 62 225 Q 50 221 50 212 Q 50 199 60 193 Q 84 181 117 168 Q 127 167 138 176 Q 156 198 268 276 Q 284 286 294 299 Q 306 308 305 317 Q 295 323 237 293 L 197 275 Z"/>
  <path id="z29747d5" d="M 468 516 Q 549 541 553 544 Q 560 551 555 558 Q 548 568 523 572 Q 498 576 472 563 Q 471 563 469 562 L 428 546 Q 415 543 405 539 Q 368 529 321 521 Q 290 514 314 500 Q 353 482 398 497 Q 410 501 424 503 L 468 516 Z"/>
  <path id="z29747d6" d="M 466 433 Q 466 473 468 516 L 469 562 Q 470 652 487 711 Q 496 724 493 737 Q 486 746 436 778 Q 415 793 396 779 Q 392 775 397 760 Q 427 715 427 670 Q 427 612 428 546 L 424 384 Q 421 321 421 254 Q 417 182 398 117 Q 389 86 396 67 Q 402 46 410 24 Q 417 8 424 5 Q 428 -1 436 6 Q 443 10 453 30 Q 462 52 461 81 Q 460 120 465 407 L 466 433 Z"/>
  <path id="z29747d7" d="M 424 503 Q 382 359 230 131 Q 226 121 235 122 Q 241 121 248 129 Q 359 246 424 384 C 437 411 441 530 427 504 C 425 505 425 505 424 503 Z"/>
  <path id="z29747d8" d="M 465 407 Q 483 389 523 340 Q 530 330 542 329 Q 549 328 554 337 Q 558 347 555 367 Q 554 386 529 403 Q 478 433 466 433 C 436 437 444 428 465 407 Z"/>
  <path id="z29747d9" d="M 711 521 Q 754 533 800 542 Q 831 551 836 555 Q 845 564 840 572 Q 833 584 802 590 Q 766 596 711 571 L 671 559 Q 670 560 668 559 Q 626 549 576 542 Q 539 535 567 519 Q 609 495 668 511 L 711 521 Z"/>
  <path id="z29747d10" d="M 711 449 Q 711 485 711 521 L 711 571 Q 711 694 727 759 Q 742 784 711 804 Q 696 814 671 829 Q 647 845 628 829 Q 622 825 629 809 Q 663 760 666 708 Q 667 638 671 559 L 671 400 Q 671 207 661 144 Q 640 45 654 9 Q 658 -1 664 -15 Q 671 -31 679 -35 Q 685 -42 692 -34 Q 719 -12 717 46 Q 714 89 711 401 L 711 449 Z"/>
  <path id="z29747d11" d="M 668 511 Q 625 369 490 171 Q 486 161 496 162 Q 500 161 509 169 Q 615 277 671 400 C 684 427 687 537 671 512 C 668 512 668 512 668 511 Z"/>
  <path id="z29747d12" d="M 711 401 Q 759 308 822 208 Q 835 189 863 186 Q 953 179 982 180 Q 989 181 992 185 Q 993 189 982 197 Q 862 269 813 323 Q 765 378 711 449 C 693 473 697 428 711 401 Z"/>
<defs>
  <clipPath id="z29747c1"><use href="#z29747d1"/></clipPath>
  <clipPath id="z29747c2"><use href="#z29747d2"/></clipPath>
  <clipPath id="z29747c3"><use href="#z29747d3"/></clipPath>
  <clipPath id="z29747c4"><use href="#z29747d4"/></clipPath>
  <clipPath id="z29747c5"><use href="#z29747d5"/></clipPath>
  <clipPath id="z29747c6"><use href="#z29747d6"/></clipPath>
  <clipPath id="z29747c7"><use href="#z29747d7"/></clipPath>
  <clipPath id="z29747c8"><use href="#z29747d8"/></clipPath>
  <clipPath id="z29747c9"><use href="#z29747d9"/></clipPath>
  <clipPath id="z29747c10"><use href="#z29747d10"/></clipPath>
  <clipPath id="z29747c11"><use href="#z29747d11"/></clipPath>
  <clipPath id="z29747c12"><use href="#z29747d12"/></clipPath>
</defs>
<path style="--d:1s;" pathLength="3333" clip-path="url(#z29747c1)" d="M 107 606 L 159 603 L 283 637 L 321 638"/>
<path style="--d:2s;" pathLength="3333" clip-path="url(#z29747c2)" d="M 105 404 L 165 409 L 261 444 L 301 447"/>
<path style="--d:3s;" pathLength="3333" clip-path="url(#z29747c3)" d="M 191 586 L 218 564 L 219 554 L 217 306 L 201 284"/>
<path style="--d:4s;" pathLength="3333" clip-path="url(#z29747c4)" d="M 64 211 L 118 204 L 301 313"/>
<path style="--d:5s;" pathLength="3333" clip-path="url(#z29747c5)" d="M 315 511 L 386 513 L 506 551 L 547 552"/>
<path style="--d:6s;" pathLength="3333" clip-path="url(#z29747c6)" d="M 407 773 L 454 724 L 443 254 L 427 92 L 429 18"/>
<path style="--d:7s;" pathLength="3333" clip-path="url(#z29747c7)" d="M 421 486 L 425 481 L 419 474 L 408 407 L 389 359 L 304 216 L 239 130"/>
<path style="--d:8s;" pathLength="3333" clip-path="url(#z29747c8)" d="M 468 426 L 528 372 L 541 344"/>
<path style="--d:9s;" pathLength="3333" clip-path="url(#z29747c9)" d="M 568 532 L 591 526 L 627 527 L 760 561 L 829 566"/>
<path style="--d:10s;" pathLength="3333" clip-path="url(#z29747c10)" d="M 642 820 L 686 778 L 692 761 L 693 312 L 682 57 L 684 -21"/>
<path style="--d:11s;" pathLength="3333" clip-path="url(#z29747c11)" d="M 671 504 L 651 408 L 630 362 L 576 271 L 500 171"/>
<path style="--d:12s;" pathLength="3333" clip-path="url(#z29747c12)" d="M 715 431 L 727 401 L 761 350 L 858 229 L 984 189"/>
</svg>