<svg id="z22999" class="acjk" viewBox="0 0 1024 1024" xmlns="http://www.w3.org/2000/svg">
<style>
<![CDATA[
@keyframes zk {
	to {
		stroke-dashoffset:0;
	}
}
svg.acjk path[clip-path] {
	--t:0.8s;
	animation:zk var(--t) linear forwards var(--d);
	stroke-dasharray:3337;
	stroke-dashoffset:3339;
	stroke-width:128;
	stroke-linecap:round;
	stroke-linejoin:round;
	fill:none;
	stroke:#000;
}
svg.acjk path[id] {fill:#ccc;}
]]>
</style>
  <path id="z22999d1" d="M 254 183 Q 273 167 296 143 Q 309 130 319 128 Q 326 129 332 139 Q 339 149 333 177 Q 327 207 284 228 L 246 246 Q 228 256 202 267 Q 183 276 185 295 Q 203 356 218 417 L 229 458 Q 250 546 268 637 Q 275 680 291 703 Q 301 724 295 735 Q 282 751 238 775 Q 219 785 205 777 Q 193 770 203 756 Q 234 711 189 450 L 180 403 Q 171 340 144 293 Q 137 274 155 258 Q 192 237 223 210 L 254 183 Z"/>
  <path id="z22999d2" d="M 223 210 Q 201 168 96 98 Q 84 89 95 87 Q 167 87 252 181 Q 252 182 254 183 L 284 228 Q 323 300 333 354 Q 351 444 363 465 Q 372 481 357 489 Q 317 522 292 513 Q 280 509 286 496 Q 290 486 294 473 L 295 445 Q 294 432 294 414 Q 290 329 246 246 L 223 210 Z"/>
  <path id="z22999d3" d="M 294 473 Q 260 466 229 458 L 189 450 Q 141 441 93 431 Q 77 427 49 430 Q 37 429 35 420 Q 32 408 40 400 Q 59 384 88 365 Q 97 361 108 368 Q 142 390 180 403 L 218 417 Q 255 432 295 445 C 323 454 323 479 294 473 Z"/>
  <path id="z22999d4" d="M 463 688 Q 451 695 433 702 Q 414 709 403 704 Q 393 697 400 685 Q 419 661 425 601 Q 425 588 426 570 Q 429 491 425 420 L 421 376 Q 397 213 312 49 Q 308 42 306 37 Q 305 27 315 30 Q 330 33 360 83 Q 438 188 466 372 Q 467 381 467 388 L 472 427 Q 476 497 477 616 Q 480 656 482 660 C 484 677 484 677 463 688 Z"/>
  <path id="z22999d5" d="M 595 444 Q 595 637 604 657 Q 616 675 606 686 Q 587 702 554 716 Q 536 725 494 698 Q 482 694 463 688 C 434 679 454 648 482 660 Q 483 661 485 661 Q 500 668 515 674 Q 533 680 538 671 Q 550 632 550 438 L 550 405 Q 550 156 535 133 Q 532 130 466 143 Q 447 149 449 140 Q 498 97 527 64 Q 539 48 553 42 Q 560 39 568 48 Q 605 97 604 141 Q 598 253 595 413 L 595 444 Z"/>
  <path id="z22999d6" d="M 677 424 Q 671 232 595 22 Q 588 15 587 10 Q 586 3 600 8 Q 630 20 681 155 Q 681 158 682 160 Q 695 203 707 262 Q 722 344 725 429 L 726 466 Q 726 491 726 517 Q 726 640 738 689 C 742 708 742 708 720 719 Q 672 747 648 736 Q 630 729 646 713 Q 673 688 675 659 Q 681 550 679 458 L 677 424 Z"/>
  <path id="z22999d7" d="M 811 434 Q 817 113 800 86 Q 796 80 776 84 Q 748 90 719 95 Q 700 101 701 91 Q 759 48 794 13 Q 807 -5 823 -9 Q 832 -12 839 -3 Q 876 48 873 97 Q 863 236 858 436 L 857 491 Q 853 666 864 690 Q 876 709 864 719 Q 843 735 808 749 Q 790 756 745 729 Q 733 725 720 719 C 692 708 711 675 738 689 Q 738 690 740 690 Q 753 697 768 704 Q 786 710 792 701 Q 804 662 809 481 L 811 434 Z"/>
  <path id="z22999d8" d="M 725 429 Q 764 433 811 434 L 858 436 Q 883 437 913 438 Q 976 438 983 447 Q 989 457 973 471 Q 921 510 859 492 Q 858 492 857 491 L 809 481 Q 769 475 726 466 L 679 458 Q 648 455 595 444 L 550 438 Q 511 434 472 427 L 425 420 Q 397 419 367 413 Q 348 410 362 395 Q 383 374 421 376 L 467 388 Q 507 398 550 405 L 595 413 Q 629 422 677 424 L 725 429 Z"/>
<defs>
  <clipPath id="z22999c1"><use href="#z22999d1"/></clipPath>
  <clipPath id="z22999c2"><use href="#z22999d2"/></clipPath>
  <clipPath id="z22999c3"><use href="#z22999d3"/></clipPath>
  <clipPath id="z22999c4"><use href="#z22999d4"/></clipPath>
  <clipPath id="z22999c5"><use href="#z22999d5"/></clipPath>
  <clipPath id="z22999c6"><use href="#z22999d6"/></clipPath>
  <clipPath id="z22999c7"><use href="#z22999d7"/></clipPath>
  <clipPath id="z22999c8"><use href="#z22999d8"/></clipPath>
</defs>
<path style="--d:1s;" pathLength="3333" clip-path="url(#z22999c1)" d="M 211 766 L 234 749 L 254 718 L 213 470 L 164 281 L 181 260 L 296 185 L 315 155 L 318 139"/>
<path style="--d:2s;" pathLength="3333" clip-path="url(#z22999c2)" d="M 294 503 L 328 470 L 314 369 L 284 276 L 256 222 L 219 171 L 168 128 L 101 92"/>
<path style="--d:3s;" pathLength="3333" clip-path="url(#z22999c3)" d="M 48 417 L 96 398 L 271 452 L 288 466"/>
<path style="--d:4s;" pathLength="3333" clip-path="url(#z22999c4)" d="M 410 693 L 443 665 L 451 630 L 450 446 L 440 349 L 418 251 L 393 181 L 365 119 L 315 39"/>
<path style="--d:5s;" pathLength="3333" clip-path="url(#z22999c5)" d="M 470 686 L 488 680 L 540 696 L 572 670 L 574 185 L 567 118 L 552 96 L 458 138"/>
<path style="--d:6s;" pathLength="3333" clip-path="url(#z22999c6)" d="M 650 724 L 684 708 L 697 697 L 704 680 L 698 362 L 686 273 L 658 150 L 617 45 L 594 14"/>
<path style="--d:7s;" pathLength="3333" clip-path="url(#z22999c7)" d="M 736 695 L 744 712 L 789 727 L 807 723 L 829 698 L 839 96 L 834 70 L 819 48 L 787 55 L 711 89"/>
<path style="--d:8s;" pathLength="3333" clip-path="url(#z22999c8)" d="M 365 404 L 413 397 L 623 435 L 871 466 L 919 467 L 976 453"/>
</svg>