<svg id="z29815" class="acjk" viewBox="0 0 1024 1024" xmlns="http://www.w3.org/2000/svg">
<style>
<![CDATA[
@keyframes zk {
	to {
		stroke-dashoffset:0;
	}
}
svg.acjk path[clip-path] {
	--t:0.8s;
	animation:zk var(--t) linear forwards var(--d);
	stroke-dasharray:3337;
	stroke-dashoffset:3339;
	stroke-width:128;
	stroke-linecap:round;
	stroke-linejoin:round;
	fill:none;
	stroke:#000;
}
svg.acjk path[id] {fill:#ccc;}
]]>
</style>
  <path id="z29815d1" d="M 258 637 Q 372 673 374 675 Q 381 684 376 692 Q 369 704 338 708 Q 317 711 238 680 Q 166 661 142 655 Q 105 645 134 631 Q 170 616 218 624 L 258 637 Z"/>
  <path id="z29815d2" d="M 278 439 Q 347 463 350 466 Q 357 475 352 482 Q 345 492 317 495 Q 296 496 279 489 L 233 469 Q 154 444 136 439 Q 103 429 129 417 Q 168 404 231 423 L 233 423 L 278 439 Z"/>
  <path id="z29815d3" d="M 273 267 Q 274 360 278 439 L 279 489 Q 282 616 283 617 Q 270 629 258 637 C 234 655 206 652 218 624 Q 233 600 233 489 Q 233 480 233 469 L 233 423 Q 232 354 232 250 C 232 220 273 237 273 267 Z"/>
  <path id="z29815d4" d="M 232 250 Q 109 205 82 203 Q 69 200 68 190 Q 67 177 77 170 Q 101 155 135 140 Q 145 139 157 147 Q 187 177 337 261 Q 359 273 374 287 Q 386 296 385 304 Q 379 310 367 306 Q 322 287 273 267 L 232 250 Z"/>
  <path id="z29815d5" d="M 626 803 Q 580 767 469 723 Q 465 716 469 712 Q 490 706 621 744 Q 660 763 719 771 Q 735 771 738 777 Q 742 787 732 798 Q 678 843 648 839 Q 641 836 640 826 Q 639 813 626 803 Z"/>
  <path id="z29815d6" d="M 450 638 Q 501 575 512 572 Q 519 571 525 581 Q 531 591 528 615 Q 527 633 503 649 Q 449 682 436 678 Q 432 677 431 666 Q 432 657 450 638 Z"/>
  <path id="z29815d7" d="M 565 689 Q 598 620 617 614 Q 627 610 635 622 Q 639 632 636 649 Q 627 682 574 708 Q 567 712 564 703 Q 561 697 565 689 Z"/>
  <path id="z29815d8" d="M 747 709 Q 737 690 690 635 Q 683 622 695 625 Q 728 641 778 674 Q 793 686 811 693 Q 827 700 820 714 Q 810 727 790 739 Q 772 749 763 748 Q 753 747 756 736 Q 757 723 747 709 Z"/>
  <path id="z29815d9" d="M 438 534 Q 420 562 413 568 Q 410 572 405 569 Q 399 566 398 556 Q 399 529 367 465 Q 357 450 356 434 Q 357 415 365 402 Q 372 390 377 398 Q 383 398 392 412 Q 396 418 407 443 Q 426 486 435 501 Q 438 505 440 509 C 447 521 447 521 438 534 Z"/>
  <path id="z29815d10" d="M 440 509 Q 462 496 486 502 Q 574 538 740 556 Q 764 559 774 558 Q 790 546 787 538 Q 780 501 771 462 L 773 461 Q 780 458 793 470 Q 836 504 873 518 Q 904 531 902 538 Q 901 547 835 588 Q 814 603 730 583 Q 691 580 517 547 Q 478 540 439 535 Q 438 535 438 534 C 409 529 413 521 440 509 Z"/>
  <path id="z29815d11" d="M 557 371 Q 650 392 786 404 Q 796 403 805 415 Q 806 425 784 436 Q 757 457 686 437 Q 599 418 573 412 L 516 403 Q 501 403 408 391 Q 381 388 402 371 Q 430 349 473 356 Q 486 359 503 361 L 557 371 Z"/>
  <path id="z29815d12" d="M 528 306 Q 541 336 557 371 L 573 412 Q 582 431 593 449 Q 600 458 595 467 Q 589 477 561 492 Q 542 502 533 501 Q 520 497 522 484 Q 526 445 516 403 L 503 361 Q 451 226 267 76 Q 260 69 267 67 Q 274 64 284 69 Q 419 129 491 241 L 500 255 Q 510 273 521 292 L 528 306 Z"/>
  <path id="z29815d13" d="M 668 136 Q 701 182 731 246 Q 744 271 765 288 Q 784 301 773 316 Q 761 329 732 342 Q 710 351 683 339 Q 658 330 625 321 Q 591 314 536 308 Q 532 308 528 306 C 498 301 492 300 521 292 Q 567 277 604 284 Q 637 300 665 301 Q 684 295 676 274 Q 660 213 630 167 L 605 135 Q 539 65 397 27 Q 384 24 394 15 Q 400 11 443 13 Q 545 22 636 99 L 668 136 Z"/>
  <path id="z29815d14" d="M 636 99 Q 744 -18 796 -19 Q 871 -18 932 -7 Q 966 -3 963 7 Q 960 17 800 62 Q 739 84 668 136 L 630 167 Q 602 192 574 221 Q 537 257 505 256 Q 502 256 500 255 C 473 255 473 255 491 241 Q 492 240 498 235 Q 534 214 605 135 L 636 99 Z"/>
<defs>
  <clipPath id="z29815c1"><use href="#z29815d1"/></clipPath>
  <clipPath id="z29815c2"><use href="#z29815d2"/></clipPath>
  <clipPath id="z29815c3"><use href="#z29815d3"/></clipPath>
  <clipPath id="z29815c4"><use href="#z29815d4"/></clipPath>
  <clipPath id="z29815c5"><use href="#z29815d5"/></clipPath>
  <clipPath id="z29815c6"><use href="#z29815d6"/></clipPath>
  <clipPath id="z29815c7"><use href="#z29815d7"/></clipPath>
  <clipPath id="z29815c8"><use href="#z29815d8"/></clipPath>
  <clipPath id="z29815c9"><use href="#z29815d9"/></clipPath>
  <clipPath id="z29815c10"><use href="#z29815d10"/></clipPath>
  <clipPath id="z29815c11"><use href="#z29815d11"/></clipPath>
  <clipPath id="z29815c12"><use href="#z29815d12"/></clipPath>
  <clipPath id="z29815c13"><use href="#z29815d13"/></clipPath>
  <clipPath id="z29815c14"><use href="#z29815d14"/></clipPath>
</defs>
<path style="--d:1s;" pathLength="3333" clip-path="url(#z29815c1)" d="M 135 644 L 207 646 L 320 683 L 356 687 L 369 682"/>
<path style="--d:2s;" pathLength="3333" clip-path="url(#z29815c2)" d="M 130 429 L 173 430 L 311 474 L 343 474"/>
<path style="--d:3s;" pathLength="3333" clip-path="url(#z29815c3)" d="M 225 624 L 254 605 L 257 550 L 253 292 L 247 271 L 236 259"/>
<path style="--d:4s;" pathLength="3333" clip-path="url(#z29815c4)" d="M 83 188 L 142 181 L 379 301"/>
<path style="--d:5s;" pathLength="3333" clip-path="url(#z29815c5)" d="M 729 783 L 669 798 L 559 742 L 472 718"/>
<path style="--d:6s;" pathLength="3333" clip-path="url(#z29815c6)" d="M 440 669 L 501 618 L 515 582"/>
<path style="--d:7s;" pathLength="3333" clip-path="url(#z29815c7)" d="M 573 697 L 605 661 L 622 628"/>
<path style="--d:8s;" pathLength="3333" clip-path="url(#z29815c8)" d="M 767 738 L 780 709 L 726 656 L 700 641 L 697 632"/>
<path style="--d:9s;" pathLength="3333" clip-path="url(#z29815c9)" d="M 408 559 L 417 531 L 415 516 L 381 442 L 375 411"/>
<path style="--d:10s;" pathLength="3333" clip-path="url(#z29815c10)" d="M 445 528 L 456 520 L 476 520 L 597 550 L 784 575 L 817 560 L 828 543 L 783 472 L 776 469"/>
<path style="--d:11s;" pathLength="3333" clip-path="url(#z29815c11)" d="M 403 382 L 450 375 L 520 383 L 733 423 L 795 417"/>
<path style="--d:12s;" pathLength="3333" clip-path="url(#z29815c12)" d="M 536 487 L 554 462 L 555 446 L 522 346 L 484 272 L 401 168 L 303 89 L 272 72"/>
<path style="--d:13s;" pathLength="3333" clip-path="url(#z29815c13)" d="M 530 296 L 595 299 L 668 318 L 700 313 L 719 302 L 675 193 L 615 111 L 566 74 L 528 54 L 476 34 L 399 20"/>
<path style="--d:14s;" pathLength="3333" clip-path="url(#z29815c14)" d="M 498 242 L 521 239 L 543 225 L 662 107 L 773 30 L 819 18 L 959 5"/>
</svg>