<svg id="z28638" class="acjk" viewBox="0 0 1024 1024" xmlns="http://www.w3.org/2000/svg">
<style>
<![CDATA[
@keyframes zk {
	to {
		stroke-dashoffset:0;
	}
}
svg.acjk path[clip-path] {
	--t:0.8s;
	animation:zk var(--t) linear forwards var(--d);
	stroke-dasharray:3337;
	stroke-dashoffset:3339;
	stroke-width:128;
	stroke-linecap:round;
	stroke-linejoin:round;
	fill:none;
	stroke:#000;
}
svg.acjk path[id] {fill:#ccc;}
]]>
</style>
  <path id="z28638d1" d="M 235 715 Q 263 690 295 661 Q 311 648 328 649 Q 340 650 345 664 Q 349 680 339 713 Q 327 747 228 767 Q 212 771 204 767 Q 198 763 201 749 Q 205 736 235 715 Z"/>
  <path id="z28638d2" d="M 136 514 Q 182 468 221 454 Q 237 453 246 468 Q 252 483 247 502 Q 228 547 146 559 Q 127 563 117 557 Q 110 556 114 542 Q 117 529 136 514 Z"/>
  <path id="z28638d3" d="M 133 154 Q 120 151 123 133 Q 135 61 171 40 Q 178 33 189 36 Q 196 37 197 62 Q 204 110 305 368 Q 312 384 311 390 Q 310 400 301 393 Q 291 387 174 198 Q 161 176 133 154 Z"/>
  <path id="z28638d4" d="M 513 759 Q 562 802 588 818 Q 601 824 597 832 Q 591 845 574 857 Q 558 870 539 870 Q 527 869 530 852 Q 534 833 486 755 C 470 729 490 739 513 759 Z"/>
  <path id="z28638d5" d="M 486 755 Q 476 761 455 766 Q 445 770 441 765 Q 434 761 441 745 Q 463 684 471 586 Q 472 556 486 535 Q 501 514 506 528 Q 507 534 510 541 L 513 563 Q 513 576 512 592 Q 511 598 510 603 L 508 623 Q 505 648 504 668 L 503 685 Q 502 713 501 726 C 500 748 500 748 486 755 Z"/>
  <path id="z28638d6" d="M 678 557 Q 684 544 695 545 Q 705 548 712 561 Q 722 577 735 658 Q 745 703 775 731 Q 791 746 776 758 Q 760 771 715 791 Q 705 797 644 783 Q 599 779 513 759 C 476 750 459 707 501 726 Q 513 738 660 753 Q 679 754 686 751 Q 696 747 694 717 Q 684 608 677 585 Q 676 584 676 583 C 671 565 671 565 678 557 Z"/>
  <path id="z28638d7" d="M 504 668 Q 510 667 521 667 Q 590 677 641 683 Q 659 684 652 695 Q 645 705 627 709 Q 609 712 503 685 C 474 678 474 672 504 668 Z"/>
  <path id="z28638d8" d="M 510 603 Q 513 603 517 603 Q 586 613 637 619 Q 655 620 648 631 Q 641 641 623 645 Q 611 648 508 623 C 479 616 480 603 510 603 Z"/>
  <path id="z28638d9" d="M 510 541 Q 514 541 524 541 Q 612 551 678 557 C 708 560 704 572 676 583 Q 658 595 513 563 C 484 557 480 541 510 541 Z"/>
  <path id="z28638d10" d="M 433 480 Q 423 484 398 488 Q 388 489 384 486 Q 380 480 387 466 Q 414 415 431 331 Q 434 306 449 290 Q 465 271 470 285 Q 471 292 473 300 L 472 323 Q 471 332 469 340 Q 454 419 449 448 C 444 476 444 476 433 480 Z"/>
  <path id="z28638d11" d="M 701 321 Q 702 320 703 315 Q 707 300 720 301 Q 733 302 741 316 Q 750 323 770 370 Q 786 419 823 446 Q 842 461 827 476 Q 811 492 764 520 Q 749 529 684 516 Q 644 516 522 494 Q 470 485 433 480 C 403 476 421 438 449 448 Q 464 457 556 469 L 590 474 Q 708 495 730 480 Q 737 476 733 452 Q 721 395 702 340 C 698 328 698 328 701 321 Z"/>
  <path id="z28638d12" d="M 561 418 Q 524 409 494 401 Q 481 398 496 387 Q 503 381 521 384 Q 542 388 563 390 L 600 396 Q 631 402 661 405 Q 679 408 673 418 Q 664 430 645 433 Q 629 436 602 429 L 561 418 Z"/>
  <path id="z28638d13" d="M 556 469 Q 557 463 561 418 L 563 390 Q 563 369 564 338 C 565 308 596 314 597 344 Q 598 372 600 396 L 602 429 Q 602 430 603 432 Q 609 456 603 463 Q 596 470 590 474 C 566 492 552 499 556 469 Z"/>
  <path id="z28638d14" d="M 473 300 Q 483 299 496 300 Q 695 324 701 321 C 722 320 722 320 702 340 Q 695 349 680 352 Q 656 358 597 344 L 564 338 Q 515 332 472 323 C 443 317 443 302 473 300 Z"/>
  <path id="z28638d15" d="M 695 225 Q 711 225 922 226 Q 941 225 946 234 Q 952 244 936 259 Q 882 298 850 290 Q 709 263 304 221 Q 285 220 299 203 Q 312 190 329 183 Q 350 179 365 182 Q 411 194 461 201 L 506 208 Q 563 220 654 223 L 695 225 Z"/>
  <path id="z28638d16" d="M 461 201 Q 473 174 452 101 Q 425 32 349 -11 Q 337 -18 347 -21 Q 387 -24 437 9 Q 489 45 508 112 Q 520 152 531 169 Q 540 184 527 192 Q 517 202 506 208 C 481 224 452 230 461 201 Z"/>
  <path id="z28638d17" d="M 654 223 Q 663 208 656 69 Q 655 65 654 59 Q 654 47 652 41 Q 639 -5 688 -56 Q 689 -56 691 -58 Q 701 -59 706 -47 Q 716 -19 713 8 Q 710 176 713 198 Q 714 208 709 214 Q 702 221 695 225 C 670 242 646 252 654 223 Z"/>
<defs>
  <clipPath id="z28638c1"><use href="#z28638d1"/></clipPath>
  <clipPath id="z28638c2"><use href="#z28638d2"/></clipPath>
  <clipPath id="z28638c3"><use href="#z28638d3"/></clipPath>
  <clipPath id="z28638c4"><use href="#z28638d4"/></clipPath>
  <clipPath id="z28638c5"><use href="#z28638d5"/></clipPath>
  <clipPath id="z28638c6"><use href="#z28638d6"/></clipPath>
  <clipPath id="z28638c7"><use href="#z28638d7"/></clipPath>
  <clipPath id="z28638c8"><use href="#z28638d8"/></clipPath>
  <clipPath id="z28638c9"><use href="#z28638d9"/></clipPath>
  <clipPath id="z28638c10"><use href="#z28638d10"/></clipPath>
  <clipPath id="z28638c11"><use href="#z28638d11"/></clipPath>
  <clipPath id="z28638c12"><use href="#z28638d12"/></clipPath>
  <clipPath id="z28638c13"><use href="#z28638d13"/></clipPath>
  <clipPath id="z28638c14"><use href="#z28638d14"/></clipPath>
  <clipPath id="z28638c15"><use href="#z28638d15"/></clipPath>
  <clipPath id="z28638c16"><use href="#z28638d16"/></clipPath>
  <clipPath id="z28638c17"><use href="#z28638d17"/></clipPath>
</defs>
<path style="--d:1s;" pathLength="3333" clip-path="url(#z28638c1)" d="M 211 759 L 301 704 L 326 668"/>
<path style="--d:2s;" pathLength="3333" clip-path="url(#z28638c2)" d="M 126 547 L 206 501 L 224 477"/>
<path style="--d:3s;" pathLength="3333" clip-path="url(#z28638c3)" d="M 183 46 L 169 89 L 169 125 L 305 387"/>
<path style="--d:4s;" pathLength="3333" clip-path="url(#z28638c4)" d="M 541 858 L 557 831 L 505 767"/>
<path style="--d:5s;" pathLength="3333" clip-path="url(#z28638c5)" d="M 449 757 L 466 741 L 476 719 L 497 533"/>
<path style="--d:6s;" pathLength="3333" clip-path="url(#z28638c6)" d="M 493 753 L 510 745 L 678 772 L 713 763 L 732 739 L 714 681 L 693 558"/>
<path style="--d:7s;" pathLength="3333" clip-path="url(#z28638c7)" d="M 508 673 L 516 679 L 596 693 L 631 695 L 645 690"/>
<path style="--d:8s;" pathLength="3333" clip-path="url(#z28638c8)" d="M 514 608 L 524 617 L 566 625 L 620 631 L 641 626"/>
<path style="--d:9s;" pathLength="3333" clip-path="url(#z28638c9)" d="M 517 546 L 526 556 L 574 563 L 652 571 L 671 563"/>
<path style="--d:10s;" pathLength="3333" clip-path="url(#z28638c10)" d="M 392 481 L 414 463 L 426 439 L 460 290"/>
<path style="--d:11s;" pathLength="3333" clip-path="url(#z28638c11)" d="M 440 477 L 457 468 L 698 503 L 731 503 L 751 496 L 770 475 L 775 459 L 719 317"/>
<path style="--d:12s;" pathLength="3333" clip-path="url(#z28638c12)" d="M 502 395 L 627 418 L 664 414"/>
<path style="--d:13s;" pathLength="3333" clip-path="url(#z28638c13)" d="M 562 467 L 583 445 L 580 358 L 568 346"/>
<path style="--d:14s;" pathLength="3333" clip-path="url(#z28638c14)" d="M 479 306 L 496 315 L 509 312 L 526 319 L 564 320 L 642 335 L 682 336 L 701 326"/>
<path style="--d:15s;" pathLength="3333" clip-path="url(#z28638c15)" d="M 302 212 L 349 203 L 561 234 L 852 258 L 898 253 L 935 240"/>
<path style="--d:16s;" pathLength="3333" clip-path="url(#z28638c16)" d="M 469 199 L 497 174 L 471 84 L 432 29 L 406 9 L 354 -17"/>
<path style="--d:17s;" pathLength="3333" clip-path="url(#z28638c17)" d="M 661 223 L 686 191 L 681 29 L 694 -51"/>
</svg>