<svg id="z24450" class="acjk" viewBox="0 0 1024 1024" xmlns="http://www.w3.org/2000/svg">
<style>
<![CDATA[
@keyframes zk {
	to {
		stroke-dashoffset:0;
	}
}
svg.acjk path[clip-path] {
	--t:0.8s;
	animation:zk var(--t) linear forwards var(--d);
	stroke-dasharray:3337;
	stroke-dashoffset:3339;
	stroke-width:128;
	stroke-linecap:round;
	stroke-linejoin:round;
	fill:none;
	stroke:#000;
}
svg.acjk path[id] {fill:#ccc;}
]]>
</style>
  <path id="z24450d1" d="M 310 809 Q 317 790 307 773 Q 259 688 148 581 Q 136 572 133 567 Q 127 557 142 557 Q 190 557 332 693 Q 357 726 383 742 Q 393 751 392 765 Q 391 778 366 805 Q 344 827 325 831 Q 306 832 310 809 Z"/>
  <path id="z24450d2" d="M 252 393 Q 283 429 317 472 Q 345 512 368 531 Q 378 541 375 554 Q 372 567 346 592 Q 321 613 303 615 Q 284 614 290 592 Q 300 562 287 540 Q 221 411 61 250 Q 51 240 48 235 Q 44 225 58 225 Q 91 231 224 362 L 252 393 Z"/>
  <path id="z24450d3" d="M 224 362 Q 255 296 219 120 Q 198 56 237 9 L 238 7 Q 254 -8 266 17 Q 279 56 279 99 Q 283 279 291 319 Q 298 344 289 354 Q 258 391 252 393 C 229 412 213 390 224 362 Z"/>
  <path id="z24450d4" d="M 505 683 Q 492 693 479 699 Q 466 703 456 698 Q 447 694 451 682 Q 473 631 478 598 Q 478 370 481 139 C 481 109 529 113 529 143 Q 529 239 529 324 L 529 353 Q 530 422 531 484 L 531 515 Q 532 581 535 647 C 536 662 530 666 505 683 Z"/>
  <path id="z24450d5" d="M 767 172 Q 766 418 776 581 Q 779 623 797 650 Q 810 666 796 687 Q 784 700 727 732 Q 709 745 683 731 Q 646 716 592 699 Q 552 689 505 683 C 475 679 506 638 535 647 Q 541 650 549 652 Q 640 677 679 682 Q 695 686 699 680 Q 708 667 707 634 Q 708 366 706 164 C 706 134 767 142 767 172 Z"/>
  <path id="z24450d6" d="M 531 484 L 657 499 Q 685 505 674 519 Q 661 535 631 540 Q 574 546 531 515 C 506 498 501 480 531 484 Z"/>
  <path id="z24450d7" d="M 529 324 Q 530 324 658 343 Q 685 349 674 363 Q 661 379 631 383 Q 582 386 529 353 C 503 337 499 320 529 324 Z"/>
  <path id="z24450d8" d="M 481 139 Q 412 135 340 126 Q 315 125 332 103 Q 368 67 413 77 Q 639 129 942 108 Q 943 109 945 108 Q 967 107 974 117 Q 981 130 962 147 Q 893 199 835 183 Q 804 179 767 172 L 706 164 Q 666 160 625 154 Q 579 150 529 143 L 481 139 Z"/>
<defs>
  <clipPath id="z24450c1"><use href="#z24450d1"/></clipPath>
  <clipPath id="z24450c2"><use href="#z24450d2"/></clipPath>
  <clipPath id="z24450c3"><use href="#z24450d3"/></clipPath>
  <clipPath id="z24450c4"><use href="#z24450d4"/></clipPath>
  <clipPath id="z24450c5"><use href="#z24450d5"/></clipPath>
  <clipPath id="z24450c6"><use href="#z24450d6"/></clipPath>
  <clipPath id="z24450c7"><use href="#z24450d7"/></clipPath>
  <clipPath id="z24450c8"><use href="#z24450d8"/></clipPath>
</defs>
<path style="--d:1s;" pathLength="3333" clip-path="url(#z24450c1)" d="M 323 816 L 336 800 L 346 764 L 301 705 L 241 641 L 172 582 L 141 565"/>
<path style="--d:2s;" pathLength="3333" clip-path="url(#z24450c2)" d="M 302 600 L 316 585 L 331 551 L 298 496 L 200 368 L 125 290 L 56 233"/>
<path style="--d:3s;" pathLength="3333" clip-path="url(#z24450c3)" d="M 250 385 L 253 356 L 264 332 L 260 220 L 244 60 L 249 14"/>
<path style="--d:4s;" pathLength="3333" clip-path="url(#z24450c4)" d="M 461 688 L 476 678 L 502 636 L 506 597 L 505 166 L 486 147"/>
<path style="--d:5s;" pathLength="3333" clip-path="url(#z24450c5)" d="M 513 680 L 541 669 L 554 671 L 701 710 L 721 702 L 752 664 L 740 555 L 737 219 L 735 198 L 713 171"/>
<path style="--d:6s;" pathLength="3333" clip-path="url(#z24450c6)" d="M 538 492 L 549 505 L 595 516 L 635 518 L 662 512"/>
<path style="--d:7s;" pathLength="3333" clip-path="url(#z24450c7)" d="M 532 332 L 546 344 L 587 356 L 624 361 L 663 356"/>
<path style="--d:8s;" pathLength="3333" clip-path="url(#z24450c8)" d="M 336 114 L 392 103 L 594 129 L 858 150 L 910 142 L 961 124"/>
</svg>