<svg id="z26680" class="acjk" viewBox="0 0 1024 1024" xmlns="http://www.w3.org/2000/svg">
<style>
<![CDATA[
@keyframes zk {
	to {
		stroke-dashoffset:0;
	}
}
svg.acjk path[clip-path] {
	--t:0.8s;
	animation:zk var(--t) linear forwards var(--d);
	stroke-dasharray:3337;
	stroke-dashoffset:3339;
	stroke-width:128;
	stroke-linecap:round;
	stroke-linejoin:round;
	fill:none;
	stroke:#000;
}
svg.acjk path[id] {fill:#ccc;}
]]>
</style>
  <path id="z26680d1" d="M 328 510 Q 350 517 375 523 Q 411 533 417 539 Q 424 548 420 556 Q 413 568 382 573 Q 354 577 329 567 L 284 550 Q 283 550 283 549 Q 184 519 128 511 Q 91 502 118 487 Q 157 466 237 487 Q 246 490 259 492 L 328 510 Z"/>
  <path id="z26680d2" d="M 325 403 Q 326 454 328 510 L 329 567 Q 329 675 350 744 Q 365 769 339 787 Q 323 799 294 817 Q 270 835 249 819 Q 245 815 250 798 Q 281 750 283 702 Q 284 630 284 550 L 279 416 Q 275 340 275 256 Q 271 180 250 109 Q 238 69 264 6 Q 270 -12 278 -15 Q 284 -22 292 -13 Q 319 3 320 69 Q 319 106 324 366 L 325 403 Z"/>
  <path id="z26680d3" d="M 259 492 Q 217 366 62 149 Q 56 139 68 138 Q 92 138 195 273 Q 240 331 279 416 C 328 520 270 524 259 492 Z"/>
  <path id="z26680d4" d="M 324 366 Q 333 362 386 320 Q 399 310 413 311 Q 422 312 425 324 Q 428 337 418 362 Q 406 390 325 403 C 295 408 298 381 324 366 Z"/>
  <path id="z26680d5" d="M 605 743 Q 669 689 705 681 Q 723 680 731 696 Q 735 711 730 729 Q 708 777 613 788 Q 594 791 584 785 Q 577 784 582 770 Q 586 757 605 743 Z"/>
  <path id="z26680d6" d="M 601 554 Q 715 582 869 604 Q 881 603 889 616 Q 890 629 866 639 Q 832 660 749 633 Q 632 602 456 574 Q 426 570 449 552 Q 488 528 517 535 Q 536 541 560 545 L 601 554 Z"/>
  <path id="z26680d7" d="M 656 357 Q 599 357 551 357 Q 518 357 536 377 Q 581 443 623 491 Q 636 507 635 514 Q 632 527 601 554 C 579 574 560 575 560 545 Q 563 479 494 387 Q 451 347 462 327 Q 465 317 474 306 Q 484 296 496 302 Q 538 323 641 335 C 671 339 686 357 656 357 Z"/>
  <path id="z26680d8" d="M 641 335 Q 598 272 550 225 Q 501 173 378 76 Q 369 72 380 68 Q 464 80 612 222 Q 622 235 636 248 Q 693 312 779 440 Q 791 456 798 464 Q 807 468 805 480 Q 804 490 791 504 Q 755 537 723 532 Q 713 529 716 516 Q 722 465 656 357 L 641 335 Z"/>
  <path id="z26680d9" d="M 735 171 Q 760 199 782 227 Q 821 276 839 298 Q 849 310 846 319 Q 842 332 817 338 Q 789 347 776 343 Q 769 342 767 328 Q 752 240 563 65 Q 542 49 520 28 Q 501 12 527 17 Q 593 29 715 151 L 735 171 Z"/>
  <path id="z26680d10" d="M 715 151 Q 716 150 719 147 Q 780 101 853 34 Q 869 15 886 13 Q 893 12 901 23 Q 911 36 896 79 Q 878 128 735 171 C 706 180 693 171 715 151 Z"/>
<defs>
  <clipPath id="z26680c1"><use href="#z26680d1"/></clipPath>
  <clipPath id="z26680c2"><use href="#z26680d2"/></clipPath>
  <clipPath id="z26680c3"><use href="#z26680d3"/></clipPath>
  <clipPath id="z26680c4"><use href="#z26680d4"/></clipPath>
  <clipPath id="z26680c5"><use href="#z26680d5"/></clipPath>
  <clipPath id="z26680c6"><use href="#z26680d6"/></clipPath>
  <clipPath id="z26680c7"><use href="#z26680d7"/></clipPath>
  <clipPath id="z26680c8"><use href="#z26680d8"/></clipPath>
  <clipPath id="z26680c9"><use href="#z26680d9"/></clipPath>
  <clipPath id="z26680c10"><use href="#z26680d10"/></clipPath>
</defs>
<path style="--d:1s;" pathLength="3333" clip-path="url(#z26680c1)" d="M 120 500 L 174 497 L 274 520 L 344 544 L 407 550"/>
<path style="--d:2s;" pathLength="3333" clip-path="url(#z26680c2)" d="M 261 812 L 313 757 L 300 256 L 283 88 L 283 -2"/>
<path style="--d:3s;" pathLength="3333" clip-path="url(#z26680c3)" d="M 278 491 L 266 472 L 255 418 L 205 325 L 143 233 L 69 146"/>
<path style="--d:4s;" pathLength="3333" clip-path="url(#z26680c4)" d="M 335 397 L 346 377 L 386 356 L 411 325"/>
<path style="--d:5s;" pathLength="3333" clip-path="url(#z26680c5)" d="M 593 776 L 682 731 L 709 705"/>
<path style="--d:6s;" pathLength="3333" clip-path="url(#z26680c6)" d="M 451 564 L 517 559 L 800 620 L 845 624 L 878 618"/>
<path style="--d:7s;" pathLength="3333" clip-path="url(#z26680c7)" d="M 569 539 L 594 512 L 554 438 L 515 384 L 501 343 L 527 338 L 610 342 L 637 346 L 648 354"/>
<path style="--d:8s;" pathLength="3333" clip-path="url(#z26680c8)" d="M 726 521 L 739 510 L 756 479 L 716 401 L 662 319 L 589 230 L 544 187 L 477 131 L 384 73"/>
<path style="--d:9s;" pathLength="3333" clip-path="url(#z26680c9)" d="M 830 315 L 798 305 L 739 215 L 662 129 L 597 71 L 530 26"/>
<path style="--d:10s;" pathLength="3333" clip-path="url(#z26680c10)" d="M 722 154 L 742 153 L 836 95 L 864 69 L 885 31"/>
</svg>