<svg id="z25605" class="acjk" viewBox="0 0 1024 1024" xmlns="http://www.w3.org/2000/svg">
<style>
<![CDATA[
@keyframes zk {
	to {
		stroke-dashoffset:0;
	}
}
svg.acjk path[clip-path] {
	--t:0.8s;
	animation:zk var(--t) linear forwards var(--d);
	stroke-dasharray:3337;
	stroke-dashoffset:3339;
	stroke-width:128;
	stroke-linecap:round;
	stroke-linejoin:round;
	fill:none;
	stroke:#000;
}
svg.acjk path[id] {fill:#ccc;}
]]>
</style>
  <path id="z25605d1" d="M 326 546 Q 387 564 393 569 Q 400 576 396 585 Q 389 595 359 601 Q 343 602 328 598 L 280 581 Q 175 551 142 545 Q 108 536 134 522 Q 179 504 232 520 Q 254 527 279 533 L 326 546 Z"/>
  <path id="z25605d2" d="M 274 352 Q 271 264 270 153 Q 269 131 256 122 Q 252 119 195 133 Q 165 146 166 137 Q 167 130 185 114 Q 239 62 251 35 Q 266 4 280 0 Q 293 -1 309 32 Q 328 75 329 146 Q 322 270 323 394 L 323 421 Q 323 484 326 546 L 328 598 Q 328 694 348 758 Q 364 786 312 809 Q 281 828 261 821 Q 245 815 259 793 Q 280 766 281 734 Q 282 718 280 581 L 279 533 Q 278 472 275 392 L 274 352 Z"/>
  <path id="z25605d3" d="M 323 394 Q 354 418 361 428 Q 367 441 356 440 Q 346 437 324 422 Q 323 422 323 421 L 275 392 Q 193 343 121 295 Q 90 274 67 267 Q 55 260 54 253 Q 53 244 68 231 Q 87 218 109 210 Q 121 209 139 225 Q 181 274 274 352 L 323 394 Z"/>
  <path id="z25605d4" d="M 470 672 Q 492 653 514 628 Q 526 618 539 617 Q 549 617 553 629 Q 557 642 551 667 Q 547 683 521 696 Q 463 720 448 715 Q 444 711 444 700 Q 448 690 470 672 Z"/>
  <path id="z25605d5" d="M 565 746 Q 613 674 634 671 Q 647 670 654 685 Q 657 697 650 716 Q 637 749 572 770 Q 563 773 561 762 Q 560 755 565 746 Z"/>
  <path id="z25605d6" d="M 688 605 Q 736 644 780 704 Q 792 722 802 731 Q 809 738 806 750 Q 803 760 780 780 Q 758 795 742 795 Q 727 794 734 776 Q 744 752 702 676 Q 672 621 650 598 C 630 576 665 586 688 605 Z"/>
  <path id="z25605d7" d="M 450 561 Q 438 582 426 590 Q 422 594 417 591 Q 413 587 412 578 Q 415 550 387 486 Q 377 471 379 455 Q 380 439 389 425 Q 396 415 401 422 Q 413 425 427 469 Q 443 512 450 528 Q 453 532 454 536 C 459 547 459 547 450 561 Z"/>
  <path id="z25605d8" d="M 454 536 Q 475 526 523 540 Q 650 582 785 593 Q 795 594 802 593 Q 818 583 815 575 Q 809 542 803 506 L 805 505 Q 812 502 825 514 Q 867 545 902 556 Q 930 566 930 573 Q 929 582 862 624 Q 841 637 746 616 Q 736 616 688 605 L 650 598 Q 598 591 532 576 Q 492 569 450 562 Q 449 562 450 561 C 421 554 425 543 454 536 Z"/>
  <path id="z25605d9" d="M 511 460 Q 495 472 478 477 Q 471 478 466 472 Q 463 468 469 460 Q 494 397 474 288 Q 461 261 468 238 Q 475 213 484 202 Q 493 192 500 203 Q 513 218 521 340 Q 515 352 524 422 Q 524 431 526 436 C 528 448 528 448 511 460 Z"/>
  <path id="z25605d10" d="M 776 263 Q 761 407 787 448 Q 796 461 789 469 Q 767 490 726 507 Q 713 511 693 504 Q 609 468 511 460 C 481 457 497 430 526 436 Q 527 436 620 456 Q 692 475 708 464 Q 730 419 715 261 Q 700 248 719 219 Q 729 194 738 194 Q 751 195 764 223 Q 777 245 776 263 Z"/>
  <path id="z25605d11" d="M 619 245 Q 631 308 644 344 Q 651 360 636 370 Q 602 395 589 394 Q 573 394 583 375 Q 596 336 560 185 Q 547 152 525 114 Q 495 63 434 24 Q 421 15 417 11 Q 416 5 424 4 Q 454 1 510 44 Q 571 92 611 218 Q 611 221 613 224 L 619 245 Z"/>
  <path id="z25605d12" d="M 684 37 Q 674 44 671 58 Q 659 116 680 176 Q 686 209 685 212 Q 675 224 646 239 Q 625 248 619 245 C 602 247 602 247 613 224 Q 625 212 627 148 Q 627 28 664 5 Q 706 -17 812 -16 Q 935 -10 950 15 Q 954 22 947 39 Q 934 70 924 140 Q 923 152 916 157 Q 912 158 908 148 Q 878 54 857 41 Q 814 20 722 27 Q 695 30 684 37 Z"/>
<defs>
  <clipPath id="z25605c1"><use href="#z25605d1"/></clipPath>
  <clipPath id="z25605c2"><use href="#z25605d2"/></clipPath>
  <clipPath id="z25605c3"><use href="#z25605d3"/></clipPath>
  <clipPath id="z25605c4"><use href="#z25605d4"/></clipPath>
  <clipPath id="z25605c5"><use href="#z25605d5"/></clipPath>
  <clipPath id="z25605c6"><use href="#z25605d6"/></clipPath>
  <clipPath id="z25605c7"><use href="#z25605d7"/></clipPath>
  <clipPath id="z25605c8"><use href="#z25605d8"/></clipPath>
  <clipPath id="z25605c9"><use href="#z25605d9"/></clipPath>
  <clipPath id="z25605c10"><use href="#z25605d10"/></clipPath>
  <clipPath id="z25605c11"><use href="#z25605d11"/></clipPath>
  <clipPath id="z25605c12"><use href="#z25605d12"/></clipPath>
</defs>
<path style="--d:1s;" pathLength="3333" clip-path="url(#z25605c1)" d="M 135 534 L 206 536 L 340 576 L 385 579"/>
<path style="--d:2s;" pathLength="3333" clip-path="url(#z25605c2)" d="M 268 806 L 293 790 L 313 762 L 299 451 L 299 138 L 292 108 L 277 81 L 220 106 L 184 127 L 183 133 L 172 134"/>
<path style="--d:3s;" pathLength="3333" clip-path="url(#z25605c3)" d="M 66 251 L 111 247 L 355 432"/>
<path style="--d:4s;" pathLength="3333" clip-path="url(#z25605c4)" d="M 453 706 L 515 669 L 539 632"/>
<path style="--d:5s;" pathLength="3333" clip-path="url(#z25605c5)" d="M 572 759 L 621 715 L 636 687"/>
<path style="--d:6s;" pathLength="3333" clip-path="url(#z25605c6)" d="M 742 784 L 761 762 L 766 740 L 720 663 L 685 619 L 656 600"/>
<path style="--d:7s;" pathLength="3333" clip-path="url(#z25605c7)" d="M 421 582 L 430 540 L 402 465 L 398 434"/>
<path style="--d:8s;" pathLength="3333" clip-path="url(#z25605c8)" d="M 457 562 L 468 549 L 510 553 L 701 598 L 800 611 L 840 599 L 854 578 L 808 513"/>
<path style="--d:9s;" pathLength="3333" clip-path="url(#z25605c9)" d="M 475 468 L 502 431 L 502 328 L 489 255 L 492 206"/>
<path style="--d:10s;" pathLength="3333" clip-path="url(#z25605c10)" d="M 519 457 L 531 450 L 606 460 L 615 468 L 704 487 L 724 482 L 745 461 L 746 259 L 739 205"/>
<path style="--d:11s;" pathLength="3333" clip-path="url(#z25605c11)" d="M 588 384 L 597 379 L 615 348 L 599 258 L 572 163 L 551 120 L 513 68 L 462 27 L 423 10"/>
<path style="--d:12s;" pathLength="3333" clip-path="url(#z25605c12)" d="M 624 238 L 653 200 L 646 115 L 654 51 L 668 26 L 684 16 L 747 5 L 824 6 L 868 15 L 900 31 L 908 58 L 915 150"/>
</svg>