<svg id="z26480" class="acjk" viewBox="0 0 1024 1024" xmlns="http://www.w3.org/2000/svg">
<style>
<![CDATA[
@keyframes zk {
	to {
		stroke-dashoffset:0;
	}
}
svg.acjk path[clip-path] {
	--t:0.8s;
	animation:zk var(--t) linear forwards var(--d);
	stroke-dasharray:3337;
	stroke-dashoffset:3339;
	stroke-width:128;
	stroke-linecap:round;
	stroke-linejoin:round;
	fill:none;
	stroke:#000;
}
svg.acjk path[id] {fill:#ccc;}
]]>
</style>
  <path id="z26480d1" d="M 527 574 Q 584 587 765 607 Q 777 606 788 621 Q 789 634 763 647 Q 721 672 652 651 Q 597 638 541 625 Q 537 624 532 623 L 480 612 Q 411 603 246 582 Q 212 578 237 557 Q 277 526 310 534 Q 371 547 445 560 L 527 574 Z"/>
  <path id="z26480d2" d="M 526 565 Q 526 569 527 574 L 532 623 Q 535 713 567 773 Q 574 785 560 802 Q 532 824 497 839 Q 476 849 458 843 Q 440 837 449 819 Q 483 761 480 671 Q 480 641 480 612 L 477 507 Q 473 368 459 315 Q 458 300 478 249 Q 491 230 509 240 Q 524 252 524 317 Q 518 449 524 529 L 526 565 Z"/>
  <path id="z26480d3" d="M 445 560 Q 439 541 422 519 Q 370 446 310 396 Q 261 351 159 288 Q 140 276 157 273 Q 194 270 289 322 Q 352 365 412 427 Q 452 469 477 507 C 523 575 463 604 445 560 Z"/>
  <path id="z26480d4" d="M 524 529 Q 597 435 679 346 Q 703 321 744 318 Q 819 312 897 325 Q 916 326 919 333 Q 922 340 906 346 Q 858 365 803 383 Q 680 428 540 554 Q 531 561 526 565 C 502 584 506 553 524 529 Z"/>
  <path id="z26480d5" d="M 179 196 Q 158 129 126 68 Q 105 31 130 -10 Q 140 -31 164 -14 Q 218 37 215 131 Q 218 170 207 198 Q 200 208 193 208 Q 183 205 179 196 Z"/>
  <path id="z26480d6" d="M 345 150 Q 393 51 415 42 Q 428 38 441 54 Q 445 67 442 90 Q 438 114 412 133 Q 375 167 358 176 Q 348 180 344 169 Q 340 162 345 150 Z"/>
  <path id="z26480d7" d="M 542 170 Q 602 61 627 53 Q 640 49 652 66 Q 656 79 652 102 Q 639 151 554 197 Q 544 201 541 189 Q 537 182 542 170 Z"/>
  <path id="z26480d8" d="M 728 200 Q 783 139 850 50 Q 866 25 882 19 Q 892 16 901 27 Q 917 40 907 91 Q 901 140 824 184 Q 811 197 732 235 Q 723 242 719 228 Q 718 213 728 200 Z"/>
<defs>
  <clipPath id="z26480c1"><use href="#z26480d1"/></clipPath>
  <clipPath id="z26480c2"><use href="#z26480d2"/></clipPath>
  <clipPath id="z26480c3"><use href="#z26480d3"/></clipPath>
  <clipPath id="z26480c4"><use href="#z26480d4"/></clipPath>
  <clipPath id="z26480c5"><use href="#z26480d5"/></clipPath>
  <clipPath id="z26480c6"><use href="#z26480d6"/></clipPath>
  <clipPath id="z26480c7"><use href="#z26480d7"/></clipPath>
  <clipPath id="z26480c8"><use href="#z26480d8"/></clipPath>
</defs>
<path style="--d:1s;" pathLength="3333" clip-path="url(#z26480c1)" d="M 240 570 L 270 562 L 311 562 L 700 630 L 736 631 L 776 622"/>
<path style="--d:2s;" pathLength="3333" clip-path="url(#z26480c2)" d="M 460 828 L 491 807 L 516 776 L 492 312 L 499 254"/>
<path style="--d:3s;" pathLength="3333" clip-path="url(#z26480c3)" d="M 474 559 L 459 542 L 452 516 L 418 471 L 326 378 L 251 323 L 161 280"/>
<path style="--d:4s;" pathLength="3333" clip-path="url(#z26480c4)" d="M 526 559 L 540 532 L 596 475 L 719 371 L 797 349 L 912 335"/>
<path style="--d:5s;" pathLength="3333" clip-path="url(#z26480c5)" d="M 193 197 L 189 140 L 178 92 L 146 -5"/>
<path style="--d:6s;" pathLength="3333" clip-path="url(#z26480c6)" d="M 356 163 L 410 93 L 420 57"/>
<path style="--d:7s;" pathLength="3333" clip-path="url(#z26480c7)" d="M 554 182 L 608 120 L 632 70"/>
<path style="--d:8s;" pathLength="3333" clip-path="url(#z26480c8)" d="M 731 222 L 850 117 L 869 89 L 886 36"/>
</svg>