<svg id="z27565" class="acjk" viewBox="0 0 1024 1024" xmlns="http://www.w3.org/2000/svg">
<style>
<![CDATA[
@keyframes zk {
	to {
		stroke-dashoffset:0;
	}
}
svg.acjk path[clip-path] {
	--t:0.8s;
	animation:zk var(--t) linear forwards var(--d);
	stroke-dasharray:3337;
	stroke-dashoffset:3339;
	stroke-width:128;
	stroke-linecap:round;
	stroke-linejoin:round;
	fill:none;
	stroke:#000;
}
svg.acjk path[id] {fill:#ccc;}
]]>
</style>
  <path id="z27565d1" d="M 269 622 Q 407 655 411 658 Q 420 665 415 673 Q 408 683 382 690 Q 354 694 327 684 Q 288 671 247 659 Q 201 649 148 642 Q 114 636 139 621 Q 175 602 224 612 L 269 622 Z"/>
  <path id="z27565d2" d="M 184 402 Q 184 403 185 403 Q 207 434 233 475 L 241 489 Q 296 588 298 590 Q 297 594 296 596 Q 292 606 269 622 C 245 640 217 641 224 612 Q 240 575 172 450 Q 138 392 92 326 Q 85 317 83 312 Q 80 302 92 305 Q 114 312 168 381 L 184 402 Z"/>
  <path id="z27565d3" d="M 233 475 Q 243 463 276 471 Q 319 481 323 475 Q 330 460 316 402 Q 306 339 252 248 Q 201 152 107 54 Q 86 36 106 40 Q 187 56 278 199 Q 336 290 376 406 Q 394 461 409 479 Q 421 489 413 501 Q 407 511 354 528 Q 341 532 321 518 Q 297 505 241 489 C 216 482 216 482 233 475 Z"/>
  <path id="z27565d4" d="M 168 381 Q 228 300 237 297 Q 237 298 239 297 Q 248 296 253 305 Q 260 315 258 339 Q 255 364 185 402 L 184 402 C 156 413 150 405 168 381 Z"/>
  <path id="z27565d5" d="M 493 740 Q 457 734 483 718 Q 525 694 577 709 Q 659 727 746 745 Q 786 755 791 761 Q 800 768 795 777 Q 788 787 760 795 Q 730 799 702 788 Q 657 772 609 760 Q 555 747 493 740 Z"/>
  <path id="z27565d6" d="M 484 626 Q 472 630 454 632 Q 444 633 440 629 Q 436 623 443 610 Q 471 556 489 469 Q 493 444 509 426 Q 525 407 530 421 Q 533 430 533 441 L 530 468 Q 515 528 504 598 C 500 621 500 621 484 626 Z"/>
  <path id="z27565d7" d="M 717 470 Q 729 454 741 446 Q 750 439 764 457 Q 776 476 803 575 Q 810 603 831 624 Q 843 634 833 647 Q 820 662 782 685 Q 767 691 700 674 Q 688 674 573 646 Q 522 633 484 626 C 455 620 476 588 504 598 Q 504 599 506 599 Q 543 612 598 624 L 630 631 Q 732 656 751 645 Q 761 636 758 621 Q 734 507 719 500 C 706 483 706 483 717 470 Z"/>
  <path id="z27565d8" d="M 653 543 Q 678 550 706 555 Q 725 559 717 570 Q 696 591 655 580 L 609 563 Q 578 553 553 543 Q 540 539 557 528 Q 563 525 611 533 L 653 543 Z"/>
  <path id="z27565d9" d="M 650 494 Q 651 521 653 543 L 655 580 Q 655 613 644 621 Q 637 627 630 631 C 604 647 589 653 598 624 Q 605 603 609 563 L 611 533 Q 611 514 613 484 C 615 454 649 464 650 494 Z"/>
  <path id="z27565d10" d="M 533 441 Q 539 441 546 442 Q 600 457 717 470 C 747 473 745 485 719 500 Q 718 501 716 502 Q 701 511 650 494 L 613 484 Q 568 477 530 468 C 501 461 503 440 533 441 Z"/>
  <path id="z27565d11" d="M 403 360 Q 384 359 398 343 Q 411 331 427 326 Q 446 322 460 326 Q 629 377 907 377 L 909 377 Q 927 377 931 385 Q 935 395 921 407 Q 876 441 840 433 Q 701 403 403 360 Z"/>
  <path id="z27565d12" d="M 494 276 Q 484 280 457 284 Q 445 287 443 282 Q 437 275 445 261 Q 472 210 490 128 Q 493 103 508 86 Q 526 67 530 81 Q 531 85 532 92 L 532 121 Q 531 128 530 136 Q 514 221 510 248 C 506 272 506 272 494 276 Z"/>
  <path id="z27565d13" d="M 740 121 Q 756 102 769 94 Q 779 87 791 106 Q 803 125 824 229 Q 831 257 850 279 Q 860 289 851 302 Q 836 317 798 338 Q 782 344 718 327 Q 715 327 494 276 C 465 269 482 239 510 248 Q 547 261 602 273 L 633 280 Q 744 310 767 295 Q 777 288 776 272 Q 763 173 755 158 Q 751 149 744 146 C 731 131 731 131 740 121 Z"/>
  <path id="z27565d14" d="M 655 200 Q 685 207 713 211 Q 732 215 725 226 Q 715 238 695 240 Q 679 241 657 235 L 611 220 Q 580 213 553 203 Q 540 199 557 187 L 612 191 L 655 200 Z"/>
  <path id="z27565d15" d="M 651 144 Q 652 175 655 200 C 658 230 654 228 657 235 Q 658 236 658 237 Q 664 252 657 259 Q 644 272 633 280 C 609 298 591 301 602 273 Q 608 260 611 220 L 612 191 Q 612 169 614 136 C 616 106 650 114 651 144 Z"/>
  <path id="z27565d16" d="M 532 92 Q 539 91 549 93 Q 609 109 740 121 C 770 124 767 126 744 146 Q 740 150 734 154 Q 715 163 651 144 L 614 136 Q 569 129 532 121 C 503 115 502 93 532 92 Z"/>
  <path id="z27565d17" d="M 377 26 Q 356 25 371 7 Q 384 -6 403 -13 Q 424 -19 440 -14 Q 579 22 858 21 Q 874 21 890 20 Q 909 20 915 28 Q 919 40 904 54 Q 850 93 814 86 Q 673 58 377 26 Z"/>
<defs>
  <clipPath id="z27565c1"><use href="#z27565d1"/></clipPath>
  <clipPath id="z27565c2"><use href="#z27565d2"/></clipPath>
  <clipPath id="z27565c3"><use href="#z27565d3"/></clipPath>
  <clipPath id="z27565c4"><use href="#z27565d4"/></clipPath>
  <clipPath id="z27565c5"><use href="#z27565d5"/></clipPath>
  <clipPath id="z27565c6"><use href="#z27565d6"/></clipPath>
  <clipPath id="z27565c7"><use href="#z27565d7"/></clipPath>
  <clipPath id="z27565c8"><use href="#z27565d8"/></clipPath>
  <clipPath id="z27565c9"><use href="#z27565d9"/></clipPath>
  <clipPath id="z27565c10"><use href="#z27565d10"/></clipPath>
  <clipPath id="z27565c11"><use href="#z27565d11"/></clipPath>
  <clipPath id="z27565c12"><use href="#z27565d12"/></clipPath>
  <clipPath id="z27565c13"><use href="#z27565d13"/></clipPath>
  <clipPath id="z27565c14"><use href="#z27565d14"/></clipPath>
  <clipPath id="z27565c15"><use href="#z27565d15"/></clipPath>
  <clipPath id="z27565c16"><use href="#z27565d16"/></clipPath>
  <clipPath id="z27565c17"><use href="#z27565d17"/></clipPath>
</defs>
<path style="--d:1s;" pathLength="3333" clip-path="url(#z27565c1)" d="M 141 633 L 162 628 L 213 630 L 351 667 L 406 667"/>
<path style="--d:2s;" pathLength="3333" clip-path="url(#z27565c2)" d="M 232 610 L 259 585 L 239 534 L 150 380 L 90 312"/>
<path style="--d:3s;" pathLength="3333" clip-path="url(#z27565c3)" d="M 240 476 L 326 497 L 348 496 L 363 481 L 328 348 L 254 202 L 167 91 L 110 47"/>
<path style="--d:4s;" pathLength="3333" clip-path="url(#z27565c4)" d="M 185 393 L 190 378 L 236 331 L 238 302"/>
<path style="--d:5s;" pathLength="3333" clip-path="url(#z27565c5)" d="M 485 730 L 510 724 L 564 728 L 728 769 L 785 771"/>
<path style="--d:6s;" pathLength="3333" clip-path="url(#z27565c6)" d="M 448 624 L 470 607 L 481 586 L 520 426"/>
<path style="--d:7s;" pathLength="3333" clip-path="url(#z27565c7)" d="M 491 624 L 510 616 L 588 638 L 733 666 L 773 660 L 793 635 L 747 487 L 747 462"/>
<path style="--d:8s;" pathLength="3333" clip-path="url(#z27565c8)" d="M 561 537 L 668 565 L 709 564"/>
<path style="--d:9s;" pathLength="3333" clip-path="url(#z27565c9)" d="M 605 620 L 626 606 L 631 588 L 632 515 L 618 491"/>
<path style="--d:10s;" pathLength="3333" clip-path="url(#z27565c10)" d="M 539 448 L 552 459 L 699 486 L 712 493"/>
<path style="--d:11s;" pathLength="3333" clip-path="url(#z27565c11)" d="M 400 352 L 445 345 L 589 373 L 850 406 L 921 390"/>
<path style="--d:12s;" pathLength="3333" clip-path="url(#z27565c12)" d="M 451 275 L 474 257 L 484 240 L 520 87"/>
<path style="--d:13s;" pathLength="3333" clip-path="url(#z27565c13)" d="M 509 278 L 517 267 L 526 267 L 564 281 L 731 316 L 766 318 L 789 312 L 811 288 L 788 178 L 770 130 L 775 109"/>
<path style="--d:14s;" pathLength="3333" clip-path="url(#z27565c14)" d="M 556 195 L 679 223 L 716 221"/>
<path style="--d:15s;" pathLength="3333" clip-path="url(#z27565c15)" d="M 611 271 L 634 247 L 633 167 L 619 144"/>
<path style="--d:16s;" pathLength="3333" clip-path="url(#z27565c16)" d="M 536 99 L 554 111 L 684 135 L 720 138 L 729 129"/>
<path style="--d:17s;" pathLength="3333" clip-path="url(#z27565c17)" d="M 374 16 L 423 7 L 508 22 L 823 54 L 905 34"/>
</svg>