<svg id="z29357" class="acjk" viewBox="0 0 1024 1024" xmlns="http://www.w3.org/2000/svg">
<style>
<![CDATA[
@keyframes zk {
	to {
		stroke-dashoffset:0;
	}
}
svg.acjk path[clip-path] {
	--t:0.8s;
	animation:zk var(--t) linear forwards var(--d);
	stroke-dasharray:3337;
	stroke-dashoffset:3339;
	stroke-width:128;
	stroke-linecap:round;
	stroke-linejoin:round;
	fill:none;
	stroke:#000;
}
svg.acjk path[id] {fill:#ccc;}
]]>
</style>
  <path id="z29357d1" d="M 517 600 Q 524 609 531 617 Q 573 671 610 713 Q 623 725 610 742 Q 568 784 543 784 Q 530 783 531 767 Q 530 706 483 638 L 452 597 Q 448 594 445 589 Q 405 540 356 504 Q 316 476 295 456 Q 285 441 301 444 Q 364 448 481 560 L 517 600 Z"/>
  <path id="z29357d2" d="M 537 398 Q 564 263 528 112 Q 527 109 526 105 Q 522 92 514 90 Q 490 86 426 106 Q 395 115 389 108 Q 386 102 397 90 Q 457 50 497 11 Q 516 -16 526 -15 Q 533 -16 548 -1 Q 624 119 583 416 Q 576 464 563 503 Q 547 558 522 593 Q 519 597 517 600 L 483 638 Q 435 686 374 711 Q 359 718 355 707 Q 351 692 359 672 Q 369 653 387 648 Q 411 639 452 597 L 481 560 Q 497 544 520 477 L 537 398 Z"/>
  <path id="z29357d3" d="M 438 349 Q 389 285 272 168 Q 265 158 277 155 Q 298 152 419 257 Q 479 311 537 398 C 554 423 535 503 520 477 Q 483 410 438 349 Z"/>
<defs>
  <clipPath id="z29357c1"><use href="#z29357d1"/></clipPath>
  <clipPath id="z29357c2"><use href="#z29357d2"/></clipPath>
  <clipPath id="z29357c3"><use href="#z29357d3"/></clipPath>
</defs>
<path style="--d:1s;" pathLength="3333" clip-path="url(#z29357c1)" d="M 544 771 L 565 735 L 566 723 L 516 639 L 458 568 L 414 525 L 351 478 L 305 453"/>
<path style="--d:2s;" pathLength="3333" clip-path="url(#z29357c2)" d="M 366 702 L 383 680 L 440 644 L 469 617 L 522 543 L 542 489 L 562 402 L 573 282 L 571 196 L 561 124 L 547 76 L 527 50 L 521 47 L 474 65 L 394 105"/>
<path style="--d:3s;" pathLength="3333" clip-path="url(#z29357c3)" d="M 518 470 L 508 403 L 455 329 L 377 244 L 279 163"/>
</svg>