<svg id="z28349" class="acjk" viewBox="0 0 1024 1024" xmlns="http://www.w3.org/2000/svg">
<style>
<![CDATA[
@keyframes zk {
	to {
		stroke-dashoffset:0;
	}
}
svg.acjk path[clip-path] {
	--t:0.8s;
	animation:zk var(--t) linear forwards var(--d);
	stroke-dasharray:3337;
	stroke-dashoffset:3339;
	stroke-width:128;
	stroke-linecap:round;
	stroke-linejoin:round;
	fill:none;
	stroke:#000;
}
svg.acjk path[id] {fill:#ccc;}
]]>
</style>
  <path id="z28349d1" d="M 225 735 Q 252 714 279 689 Q 294 676 310 678 Q 320 679 325 692 Q 329 708 318 737 Q 312 756 282 768 Q 209 789 196 783 Q 192 779 193 766 Q 197 756 225 735 Z"/>
  <path id="z28349d2" d="M 125 567 Q 173 519 204 509 Q 219 508 227 520 Q 231 533 228 549 Q 221 571 202 583 Q 174 599 134 605 Q 118 609 109 604 Q 103 603 106 591 Q 109 579 125 567 Z"/>
  <path id="z28349d3" d="M 103 215 Q 91 212 92 195 Q 105 122 133 103 Q 140 96 150 98 Q 157 99 160 123 Q 167 162 287 421 Q 294 436 294 442 Q 294 452 285 446 Q 267 434 147 256 Q 132 235 103 215 Z"/>
  <path id="z28349d4" d="M 483 740 Q 508 734 586 746 Q 769 785 775 790 Q 782 797 779 805 Q 772 815 746 823 Q 725 826 620 796 Q 524 775 472 770 Q 469 770 467 768 C 438 760 453 745 483 740 Z"/>
  <path id="z28349d5" d="M 454 575 Q 469 701 483 740 C 487 754 487 754 467 768 Q 425 801 404 794 Q 392 788 398 774 Q 419 744 412 663 Q 411 654 410 643 Q 395 463 341 324 Q 293 210 203 82 Q 199 76 196 70 Q 193 60 204 61 Q 237 67 323 190 Q 341 220 359 254 Q 422 381 450 546 L 454 575 Z"/>
  <path id="z28349d6" d="M 530 676 Q 499 670 522 656 Q 558 637 606 650 Q 657 662 709 674 Q 731 680 736 684 Q 743 691 739 698 Q 732 708 707 713 Q 682 717 656 706 Q 629 696 600 689 Q 569 682 530 676 Z"/>
  <path id="z28349d7" d="M 615 564 Q 675 577 804 594 Q 813 593 821 604 Q 822 614 802 624 Q 775 645 666 612 Q 654 611 645 607 Q 642 607 454 575 C 424 570 423 558 450 546 Q 474 534 492 537 L 523 544 Q 550 551 580 557 L 615 564 Z"/>
  <path id="z28349d8" d="M 492 537 Q 510 519 509 478 Q 506 397 490 375 Q 468 341 507 305 L 509 304 Q 518 298 528 313 Q 550 344 627 425 Q 642 437 642 443 Q 643 453 627 444 Q 552 402 547 403 Q 541 407 541 420 Q 547 486 551 502 Q 555 517 544 527 Q 534 539 523 544 C 497 560 474 561 492 537 Z"/>
  <path id="z28349d9" d="M 715 478 Q 733 485 745 491 Q 758 497 771 503 Q 784 512 802 517 Q 818 521 812 535 Q 805 548 788 560 Q 773 570 764 570 Q 755 570 757 561 Q 757 546 701 488 C 680 466 687 467 715 478 Z"/>
  <path id="z28349d10" d="M 701 488 Q 670 515 636 547 Q 626 557 615 564 C 591 582 555 574 580 557 Q 610 539 684 454 Q 768 358 813 358 Q 870 359 920 367 Q 947 371 945 378 Q 942 384 873 403 Q 771 436 715 478 L 701 488 Z"/>
  <path id="z28349d11" d="M 714 247 Q 738 248 883 249 Q 902 249 907 258 Q 911 268 896 282 Q 841 325 782 306 Q 751 302 715 293 L 667 285 Q 661 285 396 249 Q 377 248 391 231 Q 404 218 422 212 Q 441 208 458 211 Q 560 238 668 244 L 714 247 Z"/>
  <path id="z28349d12" d="M 642 43 Q 614 52 585 62 Q 575 66 575 59 Q 575 52 583 44 Q 638 -17 658 -54 Q 670 -70 685 -57 Q 721 -30 721 36 Q 718 66 714 247 L 715 293 Q 718 312 724 328 Q 731 344 717 356 Q 693 375 667 384 Q 651 390 643 383 Q 637 377 647 364 Q 666 333 667 285 L 668 244 Q 671 130 667 65 Q 666 50 658 45 Q 651 41 642 43 Z"/>
  <path id="z28349d13" d="M 496 145 Q 515 129 534 110 Q 546 100 560 100 Q 569 101 573 112 Q 577 125 568 151 Q 564 164 540 175 Q 486 191 472 187 Q 468 183 469 172 Q 473 162 496 145 Z"/>
<defs>
  <clipPath id="z28349c1"><use href="#z28349d1"/></clipPath>
  <clipPath id="z28349c2"><use href="#z28349d2"/></clipPath>
  <clipPath id="z28349c3"><use href="#z28349d3"/></clipPath>
  <clipPath id="z28349c4"><use href="#z28349d4"/></clipPath>
  <clipPath id="z28349c5"><use href="#z28349d5"/></clipPath>
  <clipPath id="z28349c6"><use href="#z28349d6"/></clipPath>
  <clipPath id="z28349c7"><use href="#z28349d7"/></clipPath>
  <clipPath id="z28349c8"><use href="#z28349d8"/></clipPath>
  <clipPath id="z28349c9"><use href="#z28349d9"/></clipPath>
  <clipPath id="z28349c10"><use href="#z28349d10"/></clipPath>
  <clipPath id="z28349c11"><use href="#z28349d11"/></clipPath>
  <clipPath id="z28349c12"><use href="#z28349d12"/></clipPath>
  <clipPath id="z28349c13"><use href="#z28349d13"/></clipPath>
</defs>
<path style="--d:1s;" pathLength="3333" clip-path="url(#z28349c1)" d="M 200 777 L 276 735 L 307 696"/>
<path style="--d:2s;" pathLength="3333" clip-path="url(#z28349c2)" d="M 117 595 L 188 554 L 209 530"/>
<path style="--d:3s;" pathLength="3333" clip-path="url(#z28349c3)" d="M 146 108 L 136 144 L 137 188 L 167 229 L 288 440"/>
<path style="--d:4s;" pathLength="3333" clip-path="url(#z28349c4)" d="M 471 764 L 494 756 L 536 758 L 738 802 L 769 800"/>
<path style="--d:5s;" pathLength="3333" clip-path="url(#z28349c5)" d="M 409 782 L 442 748 L 445 725 L 419 510 L 389 390 L 359 308 L 315 219 L 250 120 L 205 70"/>
<path style="--d:6s;" pathLength="3333" clip-path="url(#z28349c6)" d="M 524 667 L 581 664 L 689 692 L 728 693"/>
<path style="--d:7s;" pathLength="3333" clip-path="url(#z28349c7)" d="M 461 552 L 474 560 L 511 562 L 724 606 L 778 611 L 811 606"/>
<path style="--d:8s;" pathLength="3333" clip-path="url(#z28349c8)" d="M 501 535 L 519 526 L 529 509 L 522 409 L 529 372 L 566 387 L 599 417 L 614 422 L 617 435 L 629 435 L 634 442"/>
<path style="--d:9s;" pathLength="3333" clip-path="url(#z28349c9)" d="M 802 529 L 775 535 L 727 496 L 711 495"/>
<path style="--d:10s;" pathLength="3333" clip-path="url(#z28349c10)" d="M 593 553 L 613 550 L 689 473 L 787 401 L 812 390 L 941 376"/>
<path style="--d:11s;" pathLength="3333" clip-path="url(#z28349c11)" d="M 394 240 L 424 232 L 450 233 L 574 255 L 808 280 L 839 279 L 896 263"/>
<path style="--d:12s;" pathLength="3333" clip-path="url(#z28349c12)" d="M 651 377 L 693 332 L 692 42 L 674 4 L 631 22 L 581 57"/>
<path style="--d:13s;" pathLength="3333" clip-path="url(#z28349c13)" d="M 477 178 L 534 148 L 558 116"/>
</svg>