<svg id="z27586" class="acjk" viewBox="0 0 1024 1024" xmlns="http://www.w3.org/2000/svg">
<style>
<![CDATA[
@keyframes zk {
	to {
		stroke-dashoffset:0;
	}
}
svg.acjk path[clip-path] {
	--t:0.8s;
	animation:zk var(--t) linear forwards var(--d);
	stroke-dasharray:3337;
	stroke-dashoffset:3339;
	stroke-width:128;
	stroke-linecap:round;
	stroke-linejoin:round;
	fill:none;
	stroke:#000;
}
svg.acjk path[id] {fill:#ccc;}
]]>
</style>
  <path id="z27586d1" d="M 367 704 Q 401 713 437 720 Q 474 729 479 733 Q 486 740 482 747 Q 476 756 453 762 Q 426 766 372 745 C 344 734 340 733 323 731 Q 320 732 319 731 Q 270 721 211 714 Q 181 710 202 695 Q 232 679 295 690 Q 308 693 324 696 L 367 704 Z"/>
  <path id="z27586d2" d="M 359 651 Q 363 679 367 704 L 372 745 Q 373 751 374 755 Q 377 768 380 778 Q 383 787 385 793 Q 388 800 372 813 Q 345 829 327 832 Q 314 835 308 829 Q 302 823 308 811 Q 318 796 323 731 L 324 696 Q 324 671 324 641 C 324 611 355 621 359 651 Z"/>
  <path id="z27586d3" d="M 324 641 Q 240 626 234 625 Q 215 621 230 610 Q 248 595 287 602 Q 324 612 441 633 Q 448 632 454 641 Q 455 650 438 656 Q 417 671 359 651 L 324 641 Z"/>
  <path id="z27586d4" d="M 166 535 Q 157 551 149 558 Q 133 570 132 548 Q 138 523 98 470 Q 67 443 95 390 Q 108 369 124 392 Q 137 414 148 446 Q 160 485 170 510 C 174 521 174 521 166 535 Z"/>
  <path id="z27586d5" d="M 170 510 Q 185 504 228 517 Q 360 559 435 560 Q 438 561 441 560 Q 456 553 455 545 Q 446 511 436 474 L 437 473 Q 443 470 453 480 Q 492 513 524 526 Q 551 538 550 544 Q 549 551 493 587 Q 472 600 372 575 Q 366 575 166 535 C 137 529 140 514 170 510 Z"/>
  <path id="z27586d6" d="M 285 384 Q 351 402 433 413 Q 443 412 450 424 Q 451 434 430 443 Q 397 459 319 433 Q 315 433 311 431 L 260 418 Q 179 405 171 402 Q 146 398 166 383 Q 196 362 224 370 Q 231 373 242 373 L 285 384 Z"/>
  <path id="z27586d7" d="M 364 273 Q 403 283 437 286 Q 461 287 453 299 Q 446 309 433 314 Q 423 318 366 300 L 321 289 Q 234 273 234 272 Q 233 273 234 280 Q 255 326 285 384 L 311 431 Q 326 458 335 464 Q 345 473 333 489 Q 314 511 299 523 Q 289 529 281 528 Q 274 525 278 507 Q 281 489 260 418 L 242 373 Q 211 303 180 271 Q 167 259 170 247 Q 174 231 183 223 Q 190 216 199 219 Q 232 237 321 263 L 364 273 Z"/>
  <path id="z27586d8" d="M 316 184 Q 244 168 169 150 Q 150 146 116 148 Q 104 147 103 138 Q 100 128 108 120 Q 127 104 154 86 Q 163 83 173 90 Q 222 120 312 148 L 360 164 Q 469 203 474 219 Q 470 223 458 222 Q 410 209 360 195 L 316 184 Z"/>
  <path id="z27586d9" d="M 366 300 Q 369 340 367 343 Q 348 361 332 369 Q 322 372 314 366 Q 308 363 315 355 Q 321 346 321 289 L 321 263 Q 317 190 316 184 L 312 148 Q 306 85 301 69 Q 292 39 319 -6 Q 329 -22 335 -26 Q 345 -27 349 -16 Q 361 9 359 36 Q 359 103 360 164 L 360 195 Q 360 225 364 273 L 366 300 Z"/>
  <path id="z27586d10" d="M 890 487 Q 903 491 895 506 Q 882 522 866 531 Q 856 537 836 528 Q 806 515 770 516 Q 748 517 740 534 Q 727 556 739 618 Q 742 655 779 695 Q 794 710 779 721 Q 757 737 735 747 Q 725 751 710 742 Q 676 723 647 711 Q 632 707 618 702 C 590 693 595 658 623 669 Q 635 672 683 696 Q 696 703 701 703 Q 708 702 709 691 Q 705 645 699 604 Q 689 556 699 524 Q 703 502 724 488 Q 752 472 808 472 Q 862 473 890 487 Z"/>
  <path id="z27586d11" d="M 618 702 Q 606 712 587 719 Q 572 726 563 722 Q 554 716 560 706 Q 587 660 567 542 Q 566 539 565 535 Q 556 501 542 470 Q 535 452 528 437 Q 524 431 523 427 Q 522 418 529 421 Q 559 427 591 502 Q 616 563 620 635 Q 621 650 622 662 Q 622 666 623 669 C 626 696 626 696 618 702 Z"/>
  <path id="z27586d12" d="M 675 149 Q 777 32 812 29 Q 893 26 960 32 Q 994 36 991 45 Q 988 49 832 105 Q 787 123 705 185 L 668 219 Q 634 252 600 290 Q 569 327 537 328 Q 521 329 518 325 Q 517 319 530 309 Q 569 285 646 187 L 675 149 Z"/>
  <path id="z27586d13" d="M 705 185 Q 750 263 772 341 Q 778 375 795 392 Q 810 405 792 420 Q 771 433 739 444 Q 720 450 699 439 Q 650 408 579 392 Q 554 388 544 380 Q 537 373 554 366 Q 579 356 615 370 Q 655 383 695 395 Q 714 402 715 382 Q 715 298 668 219 L 646 187 Q 613 139 480 94 Q 465 90 475 82 Q 482 78 509 82 Q 587 92 632 116 Q 654 129 675 149 L 705 185 Z"/>
<defs>
  <clipPath id="z27586c1"><use href="#z27586d1"/></clipPath>
  <clipPath id="z27586c2"><use href="#z27586d2"/></clipPath>
  <clipPath id="z27586c3"><use href="#z27586d3"/></clipPath>
  <clipPath id="z27586c4"><use href="#z27586d4"/></clipPath>
  <clipPath id="z27586c5"><use href="#z27586d5"/></clipPath>
  <clipPath id="z27586c6"><use href="#z27586d6"/></clipPath>
  <clipPath id="z27586c7"><use href="#z27586d7"/></clipPath>
  <clipPath id="z27586c8"><use href="#z27586d8"/></clipPath>
  <clipPath id="z27586c9"><use href="#z27586d9"/></clipPath>
  <clipPath id="z27586c10"><use href="#z27586d10"/></clipPath>
  <clipPath id="z27586c11"><use href="#z27586d11"/></clipPath>
  <clipPath id="z27586c12"><use href="#z27586d12"/></clipPath>
  <clipPath id="z27586c13"><use href="#z27586d13"/></clipPath>
</defs>
<path style="--d:1s;" pathLength="3333" clip-path="url(#z27586c1)" d="M 204 706 L 235 701 L 283 705 L 417 738 L 471 742"/>
<path style="--d:2s;" pathLength="3333" clip-path="url(#z27586c2)" d="M 317 821 L 349 789 L 342 666 L 328 648"/>
<path style="--d:3s;" pathLength="3333" clip-path="url(#z27586c3)" d="M 238 616 L 276 615 L 393 644 L 445 642"/>
<path style="--d:4s;" pathLength="3333" clip-path="url(#z27586c4)" d="M 141 552 L 150 526 L 148 512 L 112 438 L 109 395"/>
<path style="--d:5s;" pathLength="3333" clip-path="url(#z27586c5)" d="M 176 517 L 185 525 L 312 554 L 446 576 L 471 568 L 490 548 L 440 477"/>
<path style="--d:6s;" pathLength="3333" clip-path="url(#z27586c6)" d="M 167 393 L 214 389 L 372 426 L 440 425"/>
<path style="--d:7s;" pathLength="3333" clip-path="url(#z27586c7)" d="M 285 521 L 305 476 L 260 370 L 215 284 L 211 255 L 240 255 L 424 300 L 443 294"/>
<path style="--d:8s;" pathLength="3333" clip-path="url(#z27586c8)" d="M 115 136 L 161 118 L 269 155 L 369 180 L 470 218"/>
<path style="--d:9s;" pathLength="3333" clip-path="url(#z27586c9)" d="M 321 361 L 338 344 L 345 313 L 329 58 L 337 -17"/>
<path style="--d:10s;" pathLength="3333" clip-path="url(#z27586c10)" d="M 625 675 L 644 695 L 697 719 L 728 717 L 741 704 L 722 637 L 713 566 L 717 534 L 731 509 L 769 495 L 800 494 L 856 505 L 887 498"/>
<path style="--d:11s;" pathLength="3333" clip-path="url(#z27586c11)" d="M 568 713 L 596 682 L 596 599 L 586 542 L 565 480 L 531 429"/>
<path style="--d:12s;" pathLength="3333" clip-path="url(#z27586c12)" d="M 523 323 L 572 297 L 701 155 L 807 73 L 938 47 L 988 43"/>
<path style="--d:13s;" pathLength="3333" clip-path="url(#z27586c13)" d="M 552 375 L 602 381 L 715 420 L 736 412 L 751 395 L 736 314 L 716 259 L 682 194 L 661 169 L 626 137 L 581 114 L 480 87"/>
</svg>