<svg id="z20381" class="acjk" viewBox="0 0 1024 1024" xmlns="http://www.w3.org/2000/svg">
<style>
<![CDATA[
@keyframes zk {
	to {
		stroke-dashoffset:0;
	}
}
svg.acjk path[clip-path] {
	--t:0.8s;
	animation:zk var(--t) linear forwards var(--d);
	stroke-dasharray:3337;
	stroke-dashoffset:3339;
	stroke-width:128;
	stroke-linecap:round;
	stroke-linejoin:round;
	fill:none;
	stroke:#000;
}
svg.acjk path[id] {fill:#ccc;}
]]>
</style>
  <path id="z20381d1" d="M 226 502 Q 275 563 326 650 Q 351 696 373 720 Q 383 732 377 746 Q 373 759 341 783 Q 313 802 292 802 Q 271 799 281 776 Q 296 745 285 719 Q 230 572 82 381 Q 72 371 70 363 Q 66 351 81 354 Q 111 360 203 472 L 226 502 Z"/>
  <path id="z20381d2" d="M 203 472 Q 227 405 228 359 Q 219 224 217 209 Q 210 157 194 103 Q 184 58 218 7 Q 219 7 221 4 Q 239 -12 251 15 Q 266 55 265 102 Q 271 355 281 412 Q 288 439 279 450 Q 237 496 226 502 C 203 521 193 500 203 472 Z"/>
  <path id="z20381d3" d="M 568 771 Q 602 744 639 712 Q 655 699 672 700 Q 684 701 689 716 Q 693 732 682 765 Q 675 787 637 804 Q 546 829 536 823 Q 530 819 533 805 Q 537 792 568 771 Z"/>
  <path id="z20381d4" d="M 551 570 Q 651 591 760 612 Q 829 628 838 637 Q 847 644 843 652 Q 836 664 808 672 Q 780 678 750 667 Q 584 609 382 588 Q 346 582 371 566 Q 410 542 467 555 Q 483 559 504 561 L 551 570 Z"/>
  <path id="z20381d5" d="M 545 469 Q 566 506 580 524 Q 587 528 585 539 Q 579 558 551 570 C 524 584 501 591 504 561 Q 517 486 406 339 Q 403 338 402 334 Q 368 292 285 211 Q 278 207 287 204 Q 347 216 445 323 Q 446 326 449 328 L 476 362 Q 501 398 535 452 L 545 469 Z"/>
  <path id="z20381d6" d="M 449 328 Q 459 301 459 275 Q 460 161 451 124 Q 447 93 433 75 Q 418 53 428 30 Q 440 -4 458 -17 Q 468 -24 482 -5 Q 519 43 644 162 Q 662 178 663 186 Q 664 199 643 187 Q 591 156 533 120 Q 515 107 507 111 Q 500 115 499 134 Q 506 272 514 306 Q 520 327 505 339 Q 490 355 476 362 C 451 378 440 357 449 328 Z"/>
  <path id="z20381d7" d="M 677 360 Q 734 399 812 457 Q 831 473 854 482 Q 875 492 865 509 Q 852 527 826 540 Q 804 553 790 551 Q 778 550 782 537 Q 785 506 725 439 Q 695 408 665 373 C 645 350 652 343 677 360 Z"/>
  <path id="z20381d8" d="M 665 373 Q 631 410 595 452 Q 583 470 566 471 Q 553 472 545 469 C 515 465 513 465 535 452 Q 572 433 595 396 Q 784 137 820 126 Q 869 117 971 136 Q 987 137 993 146 Q 997 153 987 157 Q 828 221 750 289 Q 716 320 677 360 L 665 373 Z"/>
<defs>
  <clipPath id="z20381c1"><use href="#z20381d1"/></clipPath>
  <clipPath id="z20381c2"><use href="#z20381d2"/></clipPath>
  <clipPath id="z20381c3"><use href="#z20381d3"/></clipPath>
  <clipPath id="z20381c4"><use href="#z20381d4"/></clipPath>
  <clipPath id="z20381c5"><use href="#z20381d5"/></clipPath>
  <clipPath id="z20381c6"><use href="#z20381d6"/></clipPath>
  <clipPath id="z20381c7"><use href="#z20381d7"/></clipPath>
  <clipPath id="z20381c8"><use href="#z20381d8"/></clipPath>
</defs>
<path style="--d:1s;" pathLength="3333" clip-path="url(#z20381c1)" d="M 292 787 L 310 772 L 331 737 L 295 659 L 242 567 L 179 475 L 107 387 L 80 364"/>
<path style="--d:2s;" pathLength="3333" clip-path="url(#z20381c2)" d="M 225 495 L 230 467 L 251 432 L 252 398 L 245 227 L 228 81 L 234 16"/>
<path style="--d:3s;" pathLength="3333" clip-path="url(#z20381c3)" d="M 540 816 L 639 761 L 669 720"/>
<path style="--d:4s;" pathLength="3333" clip-path="url(#z20381c4)" d="M 374 578 L 417 571 L 455 574 L 627 607 L 787 647 L 831 648"/>
<path style="--d:5s;" pathLength="3333" clip-path="url(#z20381c5)" d="M 513 557 L 541 531 L 510 457 L 477 402 L 397 298 L 348 251 L 308 220 L 294 217 L 291 209"/>
<path style="--d:6s;" pathLength="3333" clip-path="url(#z20381c6)" d="M 477 352 L 485 288 L 475 112 L 484 70 L 534 90 L 654 185"/>
<path style="--d:7s;" pathLength="3333" clip-path="url(#z20381c7)" d="M 790 542 L 814 504 L 753 438 L 679 374 L 679 368"/>
<path style="--d:8s;" pathLength="3333" clip-path="url(#z20381c8)" d="M 543 453 L 553 457 L 577 446 L 729 266 L 831 176 L 903 158 L 984 148"/>
</svg>