<svg id="z36820" class="acjk" viewBox="0 0 1024 1024" xmlns="http://www.w3.org/2000/svg">
<style>
<![CDATA[
@keyframes zk {
	to {
		stroke-dashoffset:0;
	}
}
svg.acjk path[clip-path] {
	--t:0.8s;
	animation:zk var(--t) linear forwards var(--d);
	stroke-dasharray:3337;
	stroke-dashoffset:3339;
	stroke-width:128;
	stroke-linecap:round;
	stroke-linejoin:round;
	fill:none;
	stroke:#000;
}
svg.acjk path[id] {fill:#ccc;}
]]>
</style>
  <path id="z36820d1" d="M 520 651 Q 646 687 696 709 Q 739 725 776 732 Q 792 733 796 740 Q 800 750 789 761 Q 770 777 727 794 Q 712 801 700 800 Q 693 797 692 786 Q 692 756 516 670 C 489 657 491 643 520 651 Z"/>
  <path id="z36820d2" d="M 511 535 Q 511 604 520 651 C 522 666 522 666 516 670 Q 512 674 506 677 Q 460 699 445 696 Q 426 693 442 672 Q 467 629 454 459 Q 447 416 426 362 Q 407 311 339 242 Q 326 229 322 224 Q 321 217 332 217 Q 386 223 460 327 Q 467 340 474 353 Q 499 414 509 519 L 511 535 Z"/>
  <path id="z36820d3" d="M 695 335 Q 732 399 766 500 Q 776 530 794 549 Q 812 565 798 579 Q 785 589 753 599 Q 735 603 643 566 Q 546 542 522 538 Q 515 538 511 535 C 482 528 481 528 509 519 Q 545 501 603 520 Q 673 547 686 547 Q 711 546 706 519 Q 690 434 660 375 Q 656 369 653 362 L 629 327 Q 571 257 467 220 Q 454 214 466 207 Q 472 203 510 205 Q 589 214 665 294 L 695 335 Z"/>
  <path id="z36820d4" d="M 665 294 Q 729 236 801 164 Q 816 145 830 142 Q 837 141 845 150 Q 855 163 843 202 Q 834 247 700 333 Q 697 334 695 335 L 653 362 Q 590 401 553 420 Q 544 424 543 413 Q 543 401 553 392 Q 589 362 629 327 L 665 294 Z"/>
  <path id="z36820d5" d="M 237 717 Q 268 693 301 664 Q 317 651 335 652 Q 348 653 352 668 Q 356 686 345 719 Q 338 741 302 754 Q 218 779 204 771 Q 198 767 201 752 Q 205 739 237 717 Z"/>
  <path id="z36820d6" d="M 286 194 Q 298 201 303 219 Q 312 258 272 329 Q 242 383 324 472 Q 327 476 332 480 Q 354 498 335 514 Q 314 530 280 545 Q 259 557 226 532 Q 133 475 91 477 Q 84 478 82 473 Q 81 467 89 463 Q 131 445 232 487 Q 239 491 248 483 Q 269 459 244 431 Q 190 383 233 311 Q 269 224 262 198 Q 261 197 260 195 C 254 166 265 172 286 194 Z"/>
  <path id="z36820d7" d="M 260 195 Q 218 196 176 181 Q 139 166 83 161 Q 76 161 73 152 Q 69 145 78 135 Q 96 117 120 106 Q 132 100 150 114 Q 223 166 292 153 Q 361 138 500 76 Q 722 -26 813 -10 Q 817 -7 824 -6 Q 887 16 940 53 Q 964 68 939 68 Q 693 68 571 103 Q 481 128 365 173 Q 325 191 286 194 L 260 195 Z"/>
<defs>
  <clipPath id="z36820c1"><use href="#z36820d1"/></clipPath>
  <clipPath id="z36820c2"><use href="#z36820d2"/></clipPath>
  <clipPath id="z36820c3"><use href="#z36820d3"/></clipPath>
  <clipPath id="z36820c4"><use href="#z36820d4"/></clipPath>
  <clipPath id="z36820c5"><use href="#z36820d5"/></clipPath>
  <clipPath id="z36820c6"><use href="#z36820d6"/></clipPath>
  <clipPath id="z36820c7"><use href="#z36820d7"/></clipPath>
</defs>
<path style="--d:1s;" pathLength="3333" clip-path="url(#z36820c1)" d="M 786 745 L 720 756 L 614 698 L 531 668 L 529 658"/>
<path style="--d:2s;" pathLength="3333" clip-path="url(#z36820c2)" d="M 446 684 L 469 669 L 485 649 L 483 512 L 466 402 L 437 330 L 413 297 L 361 243 L 329 224"/>
<path style="--d:3s;" pathLength="3333" clip-path="url(#z36820c3)" d="M 517 522 L 589 533 L 681 564 L 717 565 L 744 555 L 730 485 L 694 386 L 642 304 L 595 262 L 549 235 L 499 216 L 472 213"/>
<path style="--d:4s;" pathLength="3333" clip-path="url(#z36820c4)" d="M 553 409 L 696 305 L 780 233 L 812 197 L 831 157"/>
<path style="--d:5s;" pathLength="3333" clip-path="url(#z36820c5)" d="M 209 764 L 304 712 L 334 671"/>
<path style="--d:6s;" pathLength="3333" clip-path="url(#z36820c6)" d="M 89 470 L 137 471 L 248 515 L 264 514 L 289 494 L 275 440 L 247 399 L 239 370 L 247 329 L 281 244 L 283 219 L 269 201"/>
<path style="--d:7s;" pathLength="3333" clip-path="url(#z36820c7)" d="M 87 147 L 128 136 L 202 167 L 290 174 L 383 146 L 561 77 L 699 40 L 805 30 L 901 49 L 929 60"/>
</svg>