<svg id="z36211" class="acjk" viewBox="0 0 1024 1024" xmlns="http://www.w3.org/2000/svg">
<style>
<![CDATA[
@keyframes zk {
	to {
		stroke-dashoffset:0;
	}
}
svg.acjk path[clip-path] {
	--t:0.8s;
	animation:zk var(--t) linear forwards var(--d);
	stroke-dasharray:3337;
	stroke-dashoffset:3339;
	stroke-width:128;
	stroke-linecap:round;
	stroke-linejoin:round;
	fill:none;
	stroke:#000;
}
svg.acjk path[id] {fill:#ccc;}
]]>
</style>
  <path id="z36211d1" d="M 381 554 Q 412 563 447 569 Q 478 578 484 582 Q 491 589 487 597 Q 480 607 453 614 Q 426 618 383 601 C 355 590 342 585 331 584 Q 327 585 323 583 Q 280 573 227 566 Q 194 560 218 545 Q 255 527 318 541 Q 324 542 332 543 L 381 554 Z"/>
  <path id="z36211d2" d="M 374 458 Q 377 507 381 554 L 383 601 Q 386 686 403 754 Q 407 766 386 780 Q 352 799 326 803 Q 310 806 302 798 Q 295 791 303 775 Q 324 747 325 726 Q 329 659 331 584 L 332 543 Q 332 497 331 446 C 330 416 372 428 374 458 Z"/>
  <path id="z36211d3" d="M 364 418 Q 430 433 510 445 Q 525 446 526 454 Q 527 466 510 474 Q 485 484 463 480 Q 415 468 374 458 L 331 446 Q 153 407 64 397 Q 52 396 49 388 Q 46 378 61 367 Q 97 342 137 355 Q 278 403 324 410 L 364 418 Z"/>
  <path id="z36211d4" d="M 377 172 Q 381 233 384 285 L 386 318 Q 387 336 389 351 Q 389 363 390 370 Q 397 388 389 397 Q 376 410 364 418 C 340 435 317 439 324 410 Q 331 385 335 298 Q 335 258 335 194 C 335 164 375 142 377 172 Z"/>
  <path id="z36211d5" d="M 384 285 Q 445 295 492 303 Q 514 307 505 320 Q 495 335 469 338 Q 424 341 386 318 C 360 303 354 280 384 285 Z"/>
  <path id="z36211d6" d="M 238 249 Q 248 270 261 288 Q 271 301 255 315 Q 213 346 187 341 Q 175 338 179 324 Q 197 210 76 71 Q 48 40 32 20 Q 25 4 40 10 Q 59 14 86 37 Q 167 109 209 194 Q 216 209 224 223 L 238 249 Z"/>
  <path id="z36211d7" d="M 224 223 Q 354 135 502 60 Q 697 -36 748 -35 Q 829 -25 955 38 Q 964 45 969 50 Q 972 62 954 60 Q 857 61 797 56 Q 658 50 469 130 Q 424 149 377 172 L 335 194 Q 287 221 238 249 C 212 264 199 240 224 223 Z"/>
  <path id="z36211d8" d="M 744 401 Q 675 391 624 373 Q 606 369 610 389 Q 617 476 625 566 Q 629 588 618 603 Q 585 639 559 635 Q 549 631 557 612 Q 591 536 580 458 Q 573 385 542 352 Q 526 334 533 321 Q 545 308 562 297 Q 575 290 584 299 Q 600 321 706 356 Q 731 363 738 360 Q 739 361 744 362 C 774 364 774 406 744 401 Z"/>
  <path id="z36211d9" d="M 744 362 Q 744 275 726 204 Q 717 162 741 108 Q 748 92 755 89 Q 761 83 768 90 Q 775 94 785 115 Q 794 137 792 168 Q 791 208 792 589 Q 791 668 806 721 Q 813 736 811 748 Q 804 758 751 789 Q 729 805 710 790 Q 706 786 711 770 Q 739 731 740 676 Q 743 544 744 401 L 744 362 Z"/>
<defs>
  <clipPath id="z36211c1"><use href="#z36211d1"/></clipPath>
  <clipPath id="z36211c2"><use href="#z36211d2"/></clipPath>
  <clipPath id="z36211c3"><use href="#z36211d3"/></clipPath>
  <clipPath id="z36211c4"><use href="#z36211d4"/></clipPath>
  <clipPath id="z36211c5"><use href="#z36211d5"/></clipPath>
  <clipPath id="z36211c6"><use href="#z36211d6"/></clipPath>
  <clipPath id="z36211c7"><use href="#z36211d7"/></clipPath>
  <clipPath id="z36211c8"><use href="#z36211d8"/></clipPath>
  <clipPath id="z36211c9"><use href="#z36211d9"/></clipPath>
</defs>
<path style="--d:1s;" pathLength="3333" clip-path="url(#z36211c1)" d="M 220 557 L 276 553 L 426 590 L 476 591"/>
<path style="--d:2s;" pathLength="3333" clip-path="url(#z36211c2)" d="M 313 789 L 361 749 L 354 480 L 337 453"/>
<path style="--d:3s;" pathLength="3333" clip-path="url(#z36211c3)" d="M 60 384 L 77 378 L 122 378 L 460 459 L 516 457"/>
<path style="--d:4s;" pathLength="3333" clip-path="url(#z36211c4)" d="M 331 408 L 358 387 L 360 379 L 357 208 L 372 180"/>
<path style="--d:5s;" pathLength="3333" clip-path="url(#z36211c5)" d="M 392 290 L 404 307 L 422 312 L 461 319 L 496 313"/>
<path style="--d:6s;" pathLength="3333" clip-path="url(#z36211c6)" d="M 189 330 L 219 293 L 179 185 L 151 136 L 114 88 L 41 19"/>
<path style="--d:7s;" pathLength="3333" clip-path="url(#z36211c7)" d="M 241 239 L 244 228 L 289 200 L 436 119 L 547 69 L 690 21 L 769 12 L 961 52"/>
<path style="--d:8s;" pathLength="3333" clip-path="url(#z36211c8)" d="M 564 625 L 586 603 L 599 575 L 601 486 L 586 348 L 629 351 L 724 379 L 736 395"/>
<path style="--d:9s;" pathLength="3333" clip-path="url(#z36211c9)" d="M 721 783 L 748 762 L 770 733 L 769 344 L 758 191 L 761 102"/>
</svg>