<svg id="z31718" class="acjk" viewBox="0 0 1024 1024" xmlns="http://www.w3.org/2000/svg">
<style>
<![CDATA[
@keyframes zk {
	to {
		stroke-dashoffset:0;
	}
}
svg.acjk path[clip-path] {
	--t:0.8s;
	animation:zk var(--t) linear forwards var(--d);
	stroke-dasharray:3337;
	stroke-dashoffset:3339;
	stroke-width:128;
	stroke-linecap:round;
	stroke-linejoin:round;
	fill:none;
	stroke:#000;
}
svg.acjk path[id] {fill:#ccc;}
]]>
</style>
  <path id="z31718d1" d="M 350 722 Q 363 741 376 757 Q 386 769 373 782 Q 334 815 311 812 Q 301 811 302 797 Q 311 713 216 615 Q 194 593 181 579 Q 174 566 187 569 Q 235 573 313 669 Q 331 699 337 704 L 350 722 Z"/>
  <path id="z31718d2" d="M 337 704 L 338 704 Q 374 685 417 696 Q 453 703 491 711 Q 509 715 511 717 Q 518 724 515 731 Q 508 740 485 746 Q 473 749 400 730 Q 376 726 350 722 C 320 717 309 715 337 704 Z"/>
  <path id="z31718d3" d="M 347 632 Q 374 598 397 589 Q 409 586 416 597 Q 420 607 419 620 Q 410 648 371 659 Q 341 665 337 662 Q 333 661 334 652 Q 335 643 347 632 Z"/>
  <path id="z31718d4" d="M 622 754 Q 635 775 648 793 Q 657 803 644 816 Q 608 846 586 840 Q 576 839 578 826 Q 593 751 513 660 Q 494 639 485 626 Q 478 613 491 618 Q 504 619 522 634 Q 577 677 608 730 L 622 754 Z"/>
  <path id="z31718d5" d="M 608 730 Q 639 715 711 725 Q 748 732 789 739 Q 811 743 815 746 Q 822 753 819 761 Q 812 771 786 779 Q 758 785 731 774 Q 706 767 678 761 Q 651 757 622 754 C 592 751 580 742 608 730 Z"/>
  <path id="z31718d6" d="M 633 640 Q 667 619 703 594 Q 715 587 727 588 Q 734 589 737 600 Q 740 612 730 634 Q 717 664 624 676 Q 612 677 608 675 Q 604 671 607 661 Q 611 654 633 640 Z"/>
  <path id="z31718d7" d="M 399 493 Q 417 511 482 539 Q 488 543 497 545 Q 513 551 506 565 Q 497 578 479 592 Q 461 604 452 602 Q 442 602 444 592 Q 444 568 364 487 C 343 466 377 473 399 493 Z"/>
  <path id="z31718d8" d="M 326 482 Q 302 497 277 501 Q 270 502 266 498 Q 259 492 268 482 Q 301 439 315 327 Q 319 267 358 244 L 359 243 Q 374 239 375 263 L 373 292 Q 370 311 363 334 Q 360 356 355 384 Q 349 421 347 450 C 345 471 345 471 326 482 Z"/>
  <path id="z31718d9" d="M 621 285 Q 634 263 648 254 Q 658 245 674 265 Q 690 287 729 417 Q 739 447 763 470 Q 776 482 766 496 Q 751 512 711 540 Q 693 550 620 532 Q 574 529 420 498 Q 408 497 399 493 L 364 487 Q 343 486 326 482 C 296 477 318 442 347 450 Q 425 472 552 493 L 578 497 Q 597 501 621 504 Q 661 510 674 497 Q 686 481 682 466 Q 651 345 640 327 Q 634 315 622 314 C 607 305 607 305 621 285 Z"/>
  <path id="z31718d10" d="M 552 493 L 553 491 Q 553 470 510 427 Q 509 426 506 422 L 477 396 Q 473 395 471 391 Q 437 363 393 337 Q 389 336 386 331 Q 385 327 389 326 Q 422 322 502 374 Q 506 378 511 380 L 549 409 Q 573 434 591 444 Q 598 450 595 462 Q 591 484 578 497 C 559 520 551 523 552 493 Z"/>
  <path id="z31718d11" d="M 506 422 Q 493 428 415 441 Q 409 442 410 435 Q 411 428 421 423 Q 448 413 477 396 L 511 380 Q 583 343 588 342 Q 594 343 596 350 Q 600 360 585 383 Q 575 401 549 409 L 506 422 Z"/>
  <path id="z31718d12" d="M 375 263 Q 379 263 384 263 Q 460 278 621 285 C 651 286 646 296 622 314 Q 618 317 614 320 Q 601 327 574 323 Q 462 301 373 292 C 343 289 345 263 375 263 Z"/>
  <path id="z31718d13" d="M 321 136 Q 328 135 338 136 Q 410 149 463 158 Q 487 162 477 176 Q 465 191 439 194 Q 400 198 322 162 C 295 150 291 139 321 136 Z"/>
  <path id="z31718d14" d="M 322 162 Q 322 177 327 197 Q 331 209 324 219 Q 303 240 284 250 Q 268 257 259 252 Q 249 248 257 233 Q 284 170 273 91 Q 269 48 229 7 Q 217 -6 223 -27 Q 230 -52 241 -62 Q 251 -69 264 -56 Q 286 -28 468 78 Q 486 87 491 95 Q 495 102 487 104 Q 472 107 328 44 Q 312 38 313 53 Q 319 98 321 136 L 322 162 Z"/>
  <path id="z31718d15" d="M 579 125 Q 586 126 732 165 Q 754 172 780 174 Q 802 175 799 195 Q 793 216 774 238 Q 758 259 744 261 Q 732 264 731 250 Q 727 226 617 165 Q 599 156 580 144 C 555 128 550 118 579 125 Z"/>
  <path id="z31718d16" d="M 915 50 Q 900 75 878 153 Q 877 169 869 174 Q 862 177 859 159 Q 834 72 818 45 Q 805 32 770 21 Q 689 0 621 23 Q 596 33 588 49 Q 573 82 579 125 L 580 144 Q 583 181 591 222 Q 595 238 584 247 Q 572 259 551 266 Q 539 270 532 265 Q 526 262 531 246 Q 543 210 541 177 Q 532 9 581 -16 Q 600 -28 634 -39 Q 794 -75 910 6 Q 931 22 915 50 Z"/>
<defs>
  <clipPath id="z31718c1"><use href="#z31718d1"/></clipPath>
  <clipPath id="z31718c2"><use href="#z31718d2"/></clipPath>
  <clipPath id="z31718c3"><use href="#z31718d3"/></clipPath>
  <clipPath id="z31718c4"><use href="#z31718d4"/></clipPath>
  <clipPath id="z31718c5"><use href="#z31718d5"/></clipPath>
  <clipPath id="z31718c6"><use href="#z31718d6"/></clipPath>
  <clipPath id="z31718c7"><use href="#z31718d7"/></clipPath>
  <clipPath id="z31718c8"><use href="#z31718d8"/></clipPath>
  <clipPath id="z31718c9"><use href="#z31718d9"/></clipPath>
  <clipPath id="z31718c10"><use href="#z31718d10"/></clipPath>
  <clipPath id="z31718c11"><use href="#z31718d11"/></clipPath>
  <clipPath id="z31718c12"><use href="#z31718d12"/></clipPath>
  <clipPath id="z31718c13"><use href="#z31718d13"/></clipPath>
  <clipPath id="z31718c14"><use href="#z31718d14"/></clipPath>
  <clipPath id="z31718c15"><use href="#z31718d15"/></clipPath>
  <clipPath id="z31718c16"><use href="#z31718d16"/></clipPath>
</defs>
<path style="--d:1s;" pathLength="3333" clip-path="url(#z31718c1)" d="M 313 801 L 337 765 L 309 705 L 291 673 L 244 618 L 190 578"/>
<path style="--d:2s;" pathLength="3333" clip-path="url(#z31718c2)" d="M 347 705 L 476 727 L 505 726"/>
<path style="--d:3s;" pathLength="3333" clip-path="url(#z31718c3)" d="M 341 655 L 383 628 L 402 604"/>
<path style="--d:4s;" pathLength="3333" clip-path="url(#z31718c4)" d="M 587 830 L 613 799 L 587 735 L 541 669 L 494 626"/>
<path style="--d:5s;" pathLength="3333" clip-path="url(#z31718c5)" d="M 615 734 L 631 740 L 699 743 L 755 757 L 808 756"/>
<path style="--d:6s;" pathLength="3333" clip-path="url(#z31718c6)" d="M 613 668 L 692 633 L 722 602"/>
<path style="--d:7s;" pathLength="3333" clip-path="url(#z31718c7)" d="M 495 558 L 466 564 L 380 496"/>
<path style="--d:8s;" pathLength="3333" clip-path="url(#z31718c8)" d="M 273 491 L 309 463 L 320 441 L 344 306 L 364 249"/>
<path style="--d:9s;" pathLength="3333" clip-path="url(#z31718c9)" d="M 333 479 L 360 470 L 634 522 L 673 522 L 698 514 L 722 483 L 681 354 L 665 311 L 652 294 L 631 306"/>
<path style="--d:10s;" pathLength="3333" clip-path="url(#z31718c10)" d="M 562 485 L 570 461 L 519 408 L 467 368 L 392 331"/>
<path style="--d:11s;" pathLength="3333" clip-path="url(#z31718c11)" d="M 417 434 L 426 435 L 549 386 L 575 368 L 589 349"/>
<path style="--d:12s;" pathLength="3333" clip-path="url(#z31718c12)" d="M 380 271 L 395 281 L 584 304 L 602 304 L 610 293"/>
<path style="--d:13s;" pathLength="3333" clip-path="url(#z31718c13)" d="M 325 142 L 338 153 L 402 170 L 443 175 L 468 169"/>
<path style="--d:14s;" pathLength="3333" clip-path="url(#z31718c14)" d="M 265 242 L 285 223 L 298 197 L 297 105 L 287 14 L 335 23 L 485 98"/>
<path style="--d:15s;" pathLength="3333" clip-path="url(#z31718c15)" d="M 741 252 L 749 225 L 742 204 L 579 130"/>
<path style="--d:16s;" pathLength="3333" clip-path="url(#z31718c16)" d="M 539 257 L 564 228 L 558 98 L 570 37 L 592 8 L 635 -10 L 684 -18 L 742 -18 L 798 -7 L 846 15 L 867 38 L 868 167"/>
</svg>