<svg id="z38192" class="acjk" viewBox="0 0 1024 1024" xmlns="http://www.w3.org/2000/svg">
<style>
<![CDATA[
@keyframes zk {
	to {
		stroke-dashoffset:0;
	}
}
svg.acjk path[clip-path] {
	--t:0.8s;
	animation:zk var(--t) linear forwards var(--d);
	stroke-dasharray:3337;
	stroke-dashoffset:3339;
	stroke-width:128;
	stroke-linecap:round;
	stroke-linejoin:round;
	fill:none;
	stroke:#000;
}
svg.acjk path[id] {fill:#ccc;}
]]>
</style>
  <path id="z38192d1" d="M 281 630 Q 320 705 347 730 Q 356 740 351 754 Q 347 766 318 787 Q 293 805 274 804 Q 256 801 264 781 Q 279 750 268 724 Q 207 571 62 390 Q 52 380 50 374 Q 47 364 61 366 Q 109 372 258 592 Q 259 596 263 600 L 281 630 Z"/>
  <path id="z38192d2" d="M 263 600 Q 296 593 385 614 Q 398 618 416 622 Q 434 628 437 630 Q 444 637 440 646 Q 433 656 405 660 Q 381 663 313 638 Q 295 634 281 630 C 252 622 233 605 263 600 Z"/>
  <path id="z38192d3" d="M 267 449 Q 330 470 394 492 Q 401 499 396 506 Q 389 516 363 519 Q 336 522 312 509 Q 288 499 261 489 Q 231 479 196 473 Q 165 464 189 452 Q 202 448 220 444 L 267 449 Z"/>
  <path id="z38192d4" d="M 289 319 Q 329 334 377 347 Q 408 357 414 362 Q 421 371 416 378 Q 409 388 381 392 Q 362 395 289 364 L 245 348 Q 202 336 157 327 Q 124 318 149 305 Q 189 289 246 306 L 289 319 Z"/>
  <path id="z38192d5" d="M 246 306 Q 249 170 205 109 Q 184 82 224 41 Q 236 34 247 50 Q 259 77 381 190 Q 397 203 400 211 Q 403 220 394 219 Q 385 219 290 161 Q 284 155 282 162 Q 288 249 289 319 L 289 364 Q 289 389 293 410 Q 297 426 267 449 C 244 469 207 471 220 444 Q 242 401 245 348 L 246 306 Z"/>
  <path id="z38192d6" d="M 651 596 Q 754 680 780 688 Q 799 695 793 711 Q 790 726 726 760 Q 707 770 686 761 Q 637 742 564 720 Q 545 713 498 714 Q 476 714 484 695 Q 491 683 510 672 Q 540 656 571 675 Q 586 682 662 717 Q 675 721 687 715 Q 699 708 693 694 Q 668 654 637 605 C 621 580 628 577 651 596 Z"/>
  <path id="z38192d7" d="M 677 553 Q 668 584 651 596 L 637 605 Q 628 611 617 613 Q 599 617 591 612 Q 581 605 593 595 Q 621 577 633 545 L 641 510 Q 653 444 635 401 Q 625 379 597 383 Q 572 387 547 390 Q 537 391 541 383 Q 545 376 562 367 Q 596 342 610 321 Q 620 306 633 309 Q 643 310 665 335 Q 704 383 686 515 Q 686 516 686 517 L 677 553 Z"/>
  <path id="z38192d8" d="M 686 517 Q 750 527 841 529 Q 889 529 896 538 Q 900 548 886 560 Q 835 591 779 575 Q 736 566 677 553 L 633 545 Q 545 529 442 512 Q 424 509 438 495 Q 451 483 466 480 Q 484 476 498 480 Q 562 499 635 510 Q 636 511 641 510 L 686 517 Z"/>
  <path id="z38192d9" d="M 481 280 Q 481 281 480 282 Q 470 286 439 292 Q 429 293 426 290 Q 422 284 429 271 Q 457 214 474 120 Q 475 104 484 88 C 498 61 518 61 517 91 Q 517 107 512 131 Q 494 213 488 247 L 481 280 Z"/>
  <path id="z38192d10" d="M 796 122 Q 821 224 847 263 Q 857 273 853 284 Q 847 299 791 325 Q 775 332 762 329 Q 635 301 481 280 C 451 276 458 245 488 247 Q 500 246 511 250 Q 532 256 556 260 L 573 263 Q 609 272 649 279 L 681 283 Q 741 298 761 287 Q 767 283 767 265 Q 758 204 739 114 C 733 85 789 93 796 122 Z"/>
  <path id="z38192d11" d="M 603 99 Q 604 102 605 104 Q 612 158 583 249 Q 580 258 573 263 C 554 280 554 280 556 260 Q 559 224 564 187 Q 567 121 586 97 C 596 82 596 82 603 99 Z"/>
  <path id="z38192d12" d="M 667 106 Q 682 145 696 200 Q 700 219 713 246 Q 722 258 713 264 Q 703 274 681 283 C 653 295 645 298 649 279 Q 648 275 652 270 Q 668 239 644 115 Q 643 111 642 104 C 637 74 656 78 667 106 Z"/>
  <path id="z38192d13" d="M 484 88 Q 417 84 344 76 Q 325 75 339 58 Q 351 45 368 40 Q 387 34 402 38 Q 642 92 935 72 Q 936 73 938 72 Q 957 71 961 79 Q 967 89 952 103 Q 900 145 837 129 Q 818 128 796 122 L 739 114 Q 705 113 667 106 L 642 104 Q 636 104 633 103 Q 618 102 603 99 L 586 97 Q 552 96 517 91 L 484 88 Z"/>
<defs>
  <clipPath id="z38192c1"><use href="#z38192d1"/></clipPath>
  <clipPath id="z38192c2"><use href="#z38192d2"/></clipPath>
  <clipPath id="z38192c3"><use href="#z38192d3"/></clipPath>
  <clipPath id="z38192c4"><use href="#z38192d4"/></clipPath>
  <clipPath id="z38192c5"><use href="#z38192d5"/></clipPath>
  <clipPath id="z38192c6"><use href="#z38192d6"/></clipPath>
  <clipPath id="z38192c7"><use href="#z38192d7"/></clipPath>
  <clipPath id="z38192c8"><use href="#z38192d8"/></clipPath>
  <clipPath id="z38192c9"><use href="#z38192d9"/></clipPath>
  <clipPath id="z38192c10"><use href="#z38192d10"/></clipPath>
  <clipPath id="z38192c11"><use href="#z38192d11"/></clipPath>
  <clipPath id="z38192c12"><use href="#z38192d12"/></clipPath>
  <clipPath id="z38192c13"><use href="#z38192d13"/></clipPath>
</defs>
<path style="--d:1s;" pathLength="3333" clip-path="url(#z38192c1)" d="M 275 790 L 297 770 L 310 746 L 264 650 L 218 570 L 154 478 L 88 398 L 58 374"/>
<path style="--d:2s;" pathLength="3333" clip-path="url(#z38192c2)" d="M 268 604 L 392 639 L 429 640"/>
<path style="--d:3s;" pathLength="3333" clip-path="url(#z38192c3)" d="M 190 463 L 242 464 L 346 498 L 385 500"/>
<path style="--d:4s;" pathLength="3333" clip-path="url(#z38192c4)" d="M 151 317 L 206 317 L 355 365 L 406 371"/>
<path style="--d:5s;" pathLength="3333" clip-path="url(#z38192c5)" d="M 228 440 L 264 412 L 268 284 L 256 152 L 261 129 L 294 138 L 394 213"/>
<path style="--d:6s;" pathLength="3333" clip-path="url(#z38192c6)" d="M 494 702 L 543 690 L 675 738 L 710 735 L 735 710 L 732 704 L 654 609 L 645 610"/>
<path style="--d:7s;" pathLength="3333" clip-path="url(#z38192c7)" d="M 596 604 L 637 581 L 654 553 L 668 482 L 666 414 L 651 370 L 632 352 L 548 383"/>
<path style="--d:8s;" pathLength="3333" clip-path="url(#z38192c8)" d="M 440 503 L 489 499 L 792 553 L 843 553 L 889 543"/>
<path style="--d:9s;" pathLength="3333" clip-path="url(#z38192c9)" d="M 433 285 L 461 259 L 496 109 L 511 97"/>
<path style="--d:10s;" pathLength="3333" clip-path="url(#z38192c10)" d="M 490 276 L 502 265 L 714 305 L 777 305 L 806 268 L 774 146 L 745 122"/>
<path style="--d:11s;" pathLength="3333" clip-path="url(#z38192c11)" d="M 562 253 L 574 236 L 591 118 L 598 104"/>
<path style="--d:12s;" pathLength="3333" clip-path="url(#z38192c12)" d="M 655 276 L 685 250 L 664 140 L 648 109"/>
<path style="--d:13s;" pathLength="3333" clip-path="url(#z38192c13)" d="M 342 67 L 394 59 L 627 88 L 863 105 L 908 100 L 950 85"/>
</svg>