<svg id="z37445" class="acjk" viewBox="0 0 1024 1024" xmlns="http://www.w3.org/2000/svg">
<style>
<![CDATA[
@keyframes zk {
	to {
		stroke-dashoffset:0;
	}
}
svg.acjk path[clip-path] {
	--t:0.8s;
	animation:zk var(--t) linear forwards var(--d);
	stroke-dasharray:3337;
	stroke-dashoffset:3339;
	stroke-width:128;
	stroke-linecap:round;
	stroke-linejoin:round;
	fill:none;
	stroke:#000;
}
svg.acjk path[id] {fill:#ccc;}
]]>
</style>
  <path id="z37445d1" d="M 363 724 Q 376 743 390 756 Q 399 766 394 780 Q 390 793 362 816 Q 335 834 317 834 Q 298 833 306 810 Q 321 777 308 750 Q 242 594 79 398 Q 69 388 66 382 Q 63 372 77 374 Q 128 380 296 616 Q 339 691 351 706 L 363 724 Z"/>
  <path id="z37445d2" d="M 351 706 Q 355 697 379 683 Q 410 661 442 635 Q 455 625 469 627 Q 478 628 481 640 Q 484 653 474 678 Q 462 708 371 724 Q 367 725 363 724 C 340 722 340 722 351 706 Z"/>
  <path id="z37445d3" d="M 318 482 Q 417 516 422 520 Q 429 527 424 534 Q 417 544 391 547 Q 364 548 340 535 Q 318 523 291 514 Q 263 504 227 497 Q 197 488 221 476 Q 242 469 284 471 L 318 482 Z"/>
  <path id="z37445d4" d="M 348 363 Q 373 373 403 382 Q 434 392 438 398 Q 445 407 440 414 Q 433 424 405 427 Q 377 428 351 414 Q 350 414 350 413 L 298 390 Q 247 369 184 355 Q 151 345 177 333 Q 213 321 292 343 Q 295 344 299 345 L 348 363 Z"/>
  <path id="z37445d5" d="M 342 196 Q 345 289 348 363 L 350 413 Q 354 450 349 457 Q 333 473 318 482 C 293 499 275 500 284 471 Q 293 444 298 390 L 299 345 Q 299 287 299 183 C 299 153 341 166 342 196 Z"/>
  <path id="z37445d6" d="M 177 257 Q 205 212 231 199 Q 243 195 252 205 Q 258 215 257 229 Q 254 248 241 261 Q 196 297 170 291 Q 164 290 165 280 Q 166 270 177 257 Z"/>
  <path id="z37445d7" d="M 392 318 Q 385 302 367 274 Q 363 268 367 263 Q 373 262 379 266 Q 425 294 448 304 Q 461 308 458 316 Q 454 328 438 341 Q 423 354 406 356 Q 396 355 396 341 Q 397 331 392 318 Z"/>
  <path id="z37445d8" d="M 299 183 Q 232 164 162 143 Q 141 136 106 137 Q 93 136 91 125 Q 88 112 98 102 Q 122 86 156 66 Q 166 63 179 72 Q 221 103 416 188 Q 444 200 464 215 Q 477 222 478 232 Q 472 238 460 235 Q 402 216 342 196 L 299 183 Z"/>
  <path id="z37445d9" d="M 581 592 Q 606 589 632 596 Q 854 644 863 650 Q 870 657 867 665 Q 860 675 834 683 Q 806 687 699 652 Q 627 636 558 626 C 528 622 551 594 581 592 Z"/>
  <path id="z37445d10" d="M 813 339 Q 840 408 871 428 Q 887 447 873 466 Q 792 527 742 497 Q 670 467 575 449 C 546 443 545 427 575 422 Q 600 415 634 427 Q 766 457 773 451 Q 782 442 779 424 Q 769 379 757 342 C 748 313 802 311 813 339 Z"/>
  <path id="z37445d11" d="M 574 267 Q 589 261 607 265 Q 677 284 828 303 Q 840 304 841 314 Q 841 323 813 339 C 791 352 786 350 757 342 Q 655 312 574 297 C 545 291 545 276 574 267 Z"/>
  <path id="z37445d12" d="M 575 449 Q 576 483 576 519 Q 576 561 581 592 C 583 612 583 612 558 626 Q 549 632 535 639 Q 516 649 507 643 Q 500 636 508 621 Q 548 543 520 178 Q 517 138 493 102 Q 483 86 492 66 Q 501 44 511 35 Q 521 28 538 39 Q 587 73 664 91 Q 752 109 920 110 Q 947 110 947 123 Q 947 139 916 160 Q 898 175 770 151 Q 623 133 595 125 Q 583 122 578 127 Q 572 128 572 142 Q 573 202 574 267 L 574 297 Q 575 358 575 422 L 575 449 Z"/>
<defs>
  <clipPath id="z37445c1"><use href="#z37445d1"/></clipPath>
  <clipPath id="z37445c2"><use href="#z37445d2"/></clipPath>
  <clipPath id="z37445c3"><use href="#z37445d3"/></clipPath>
  <clipPath id="z37445c4"><use href="#z37445d4"/></clipPath>
  <clipPath id="z37445c5"><use href="#z37445d5"/></clipPath>
  <clipPath id="z37445c6"><use href="#z37445d6"/></clipPath>
  <clipPath id="z37445c7"><use href="#z37445d7"/></clipPath>
  <clipPath id="z37445c8"><use href="#z37445d8"/></clipPath>
  <clipPath id="z37445c9"><use href="#z37445d9"/></clipPath>
  <clipPath id="z37445c10"><use href="#z37445d10"/></clipPath>
  <clipPath id="z37445c11"><use href="#z37445d11"/></clipPath>
  <clipPath id="z37445c12"><use href="#z37445d12"/></clipPath>
</defs>
<path style="--d:1s;" pathLength="3333" clip-path="url(#z37445c1)" d="M 317 820 L 341 796 L 352 773 L 292 657 L 188 504 L 118 419 L 74 382"/>
<path style="--d:2s;" pathLength="3333" clip-path="url(#z37445c2)" d="M 359 707 L 379 706 L 435 677 L 467 641"/>
<path style="--d:3s;" pathLength="3333" clip-path="url(#z37445c3)" d="M 222 487 L 274 488 L 375 525 L 416 528"/>
<path style="--d:4s;" pathLength="3333" clip-path="url(#z37445c4)" d="M 178 345 L 216 345 L 278 359 L 378 400 L 430 407"/>
<path style="--d:5s;" pathLength="3333" clip-path="url(#z37445c5)" d="M 291 468 L 314 454 L 324 426 L 322 222 L 316 204 L 304 192"/>
<path style="--d:6s;" pathLength="3333" clip-path="url(#z37445c6)" d="M 176 282 L 217 247 L 237 216"/>
<path style="--d:7s;" pathLength="3333" clip-path="url(#z37445c7)" d="M 408 344 L 421 320 L 372 269"/>
<path style="--d:8s;" pathLength="3333" clip-path="url(#z37445c8)" d="M 105 123 L 126 112 L 162 105 L 472 229"/>
<path style="--d:9s;" pathLength="3333" clip-path="url(#z37445c9)" d="M 566 623 L 592 611 L 643 617 L 804 658 L 857 660"/>
<path style="--d:10s;" pathLength="3333" clip-path="url(#z37445c10)" d="M 583 429 L 767 479 L 793 475 L 824 446 L 799 378 L 764 347"/>
<path style="--d:11s;" pathLength="3333" clip-path="url(#z37445c11)" d="M 582 275 L 755 317 L 812 320 L 832 314"/>
<path style="--d:12s;" pathLength="3333" clip-path="url(#z37445c12)" d="M 514 635 L 540 608 L 551 574 L 554 382 L 543 96 L 583 95 L 680 117 L 809 134 L 897 138 L 934 124"/>
</svg>