<svg id="z36960" class="acjk" viewBox="0 0 1024 1024" xmlns="http://www.w3.org/2000/svg">
<style>
<![CDATA[
@keyframes zk {
	to {
		stroke-dashoffset:0;
	}
}
svg.acjk path[clip-path] {
	--t:0.8s;
	animation:zk var(--t) linear forwards var(--d);
	stroke-dasharray:3337;
	stroke-dashoffset:3339;
	stroke-width:128;
	stroke-linecap:round;
	stroke-linejoin:round;
	fill:none;
	stroke:#000;
}
svg.acjk path[id] {fill:#ccc;}
]]>
</style>
  <path id="z36960d1" d="M 664 666 Q 778 696 784 701 Q 793 708 788 717 Q 781 727 752 734 Q 722 738 694 725 Q 681 721 667 715 C 639 704 634 701 620 699 Q 619 700 617 699 Q 572 687 519 680 Q 485 673 510 658 Q 558 637 607 652 Q 613 653 621 655 L 664 666 Z"/>
  <path id="z36960d2" d="M 659 604 Q 660 635 664 666 L 667 715 Q 667 751 682 841 Q 685 851 667 864 Q 636 880 615 883 Q 602 886 594 878 Q 587 871 595 858 Q 611 836 613 819 Q 617 762 620 699 L 621 655 Q 621 627 621 595 C 621 565 658 574 659 604 Z"/>
  <path id="z36960d3" d="M 621 595 Q 510 571 382 545 Q 363 541 378 527 Q 405 506 461 521 Q 591 566 884 591 Q 902 592 906 601 Q 910 611 894 623 Q 840 656 787 637 Q 735 622 659 604 L 621 595 Z"/>
  <path id="z36960d4" d="M 533 489 Q 523 493 494 494 Q 484 495 481 490 Q 477 483 485 471 Q 507 443 528 392 Q 532 377 544 368 Q 553 361 560 359 C 572 354 569 369 563 398 Q 554 441 548 461 C 541 487 541 487 533 489 Z"/>
  <path id="z36960d5" d="M 731 423 Q 755 463 774 472 Q 789 488 776 503 Q 763 515 718 537 Q 700 546 642 519 Q 600 507 533 489 C 504 481 519 453 548 461 Q 557 464 676 493 Q 689 497 696 491 Q 702 482 684 429 C 675 401 715 397 731 423 Z"/>
  <path id="z36960d6" d="M 593 373 Q 642 386 739 397 Q 748 398 748 406 Q 748 412 731 423 C 716 434 714 433 684 429 Q 683 430 681 429 Q 615 410 563 398 C 510 386 544 361 593 373 Z"/>
  <path id="z36960d7" d="M 593 302 Q 632 338 632 344 Q 631 356 609 366 Q 600 370 593 373 C 572 382 572 382 560 359 Q 524 284 358 182 Q 337 172 362 171 Q 429 171 567 280 L 593 302 Z"/>
  <path id="z36960d8" d="M 567 280 Q 580 249 574 195 Q 568 170 557 157 Q 545 139 551 120 Q 560 92 573 81 Q 583 74 594 90 Q 618 118 699 185 Q 715 195 718 203 Q 719 213 701 206 Q 626 176 619 179 Q 612 185 613 204 Q 617 249 621 260 Q 625 276 614 286 Q 604 296 593 302 C 568 318 557 308 567 280 Z"/>
  <path id="z36960d9" d="M 723 290 Q 738 297 749 304 Q 789 331 818 341 Q 836 348 828 364 Q 818 379 797 392 Q 778 405 768 403 Q 758 403 760 391 Q 761 369 723 328 Q 710 315 696 299 C 676 277 696 277 723 290 Z"/>
  <path id="z36960d10" d="M 696 299 Q 675 306 659 310 Q 650 313 651 302 Q 652 292 663 284 Q 739 241 835 172 Q 851 157 864 157 Q 871 157 876 166 Q 885 179 867 213 Q 846 259 723 290 L 696 299 Z"/>
  <path id="z36960d11" d="M 231 714 Q 259 693 291 669 Q 307 656 325 659 Q 337 660 341 676 Q 344 692 330 724 Q 317 752 220 765 Q 202 766 196 763 Q 190 759 194 745 Q 200 733 231 714 Z"/>
  <path id="z36960d12" d="M 264 148 Q 286 163 294 187 Q 306 235 252 297 Q 231 324 270 388 Q 292 418 311 435 Q 333 453 315 469 Q 296 485 261 501 Q 239 514 221 499 Q 194 477 158 462 Q 112 440 95 441 Q 88 442 86 437 Q 85 431 93 427 Q 130 412 212 444 Q 219 448 227 440 Q 246 418 224 389 Q 206 370 195 340 Q 188 319 206 293 Q 263 203 245 152 Q 244 151 244 148 C 239 127 241 129 264 148 Z"/>
  <path id="z36960d13" d="M 244 148 Q 202 149 164 142 Q 127 133 103 134 Q 87 135 89 122 Q 92 112 133 84 Q 152 72 184 91 Q 224 127 307 106 Q 452 70 598 2 Q 727 -58 786 -51 Q 801 -47 818 -41 Q 893 -13 989 41 Q 996 45 994 51 Q 993 55 976 55 Q 643 31 401 115 Q 317 148 264 148 L 244 148 Z"/>
<defs>
  <clipPath id="z36960c1"><use href="#z36960d1"/></clipPath>
  <clipPath id="z36960c2"><use href="#z36960d2"/></clipPath>
  <clipPath id="z36960c3"><use href="#z36960d3"/></clipPath>
  <clipPath id="z36960c4"><use href="#z36960d4"/></clipPath>
  <clipPath id="z36960c5"><use href="#z36960d5"/></clipPath>
  <clipPath id="z36960c6"><use href="#z36960d6"/></clipPath>
  <clipPath id="z36960c7"><use href="#z36960d7"/></clipPath>
  <clipPath id="z36960c8"><use href="#z36960d8"/></clipPath>
  <clipPath id="z36960c9"><use href="#z36960d9"/></clipPath>
  <clipPath id="z36960c10"><use href="#z36960d10"/></clipPath>
  <clipPath id="z36960c11"><use href="#z36960d11"/></clipPath>
  <clipPath id="z36960c12"><use href="#z36960d12"/></clipPath>
  <clipPath id="z36960c13"><use href="#z36960d13"/></clipPath>
</defs>
<path style="--d:1s;" pathLength="3333" clip-path="url(#z36960c1)" d="M 512 670 L 535 665 L 583 668 L 732 710 L 778 711"/>
<path style="--d:2s;" pathLength="3333" clip-path="url(#z36960c2)" d="M 605 869 L 635 848 L 646 833 L 641 629 L 637 614 L 626 603"/>
<path style="--d:3s;" pathLength="3333" clip-path="url(#z36960c3)" d="M 380 536 L 448 537 L 589 572 L 814 614 L 862 613 L 895 605"/>
<path style="--d:4s;" pathLength="3333" clip-path="url(#z36960c4)" d="M 490 485 L 517 468 L 558 366"/>
<path style="--d:5s;" pathLength="3333" clip-path="url(#z36960c5)" d="M 543 485 L 556 479 L 679 514 L 708 514 L 734 488 L 718 451 L 693 439"/>
<path style="--d:6s;" pathLength="3333" clip-path="url(#z36960c6)" d="M 564 365 L 579 385 L 601 392 L 683 410 L 739 406"/>
<path style="--d:7s;" pathLength="3333" clip-path="url(#z36960c7)" d="M 622 346 L 588 339 L 511 264 L 439 213 L 366 179"/>
<path style="--d:8s;" pathLength="3333" clip-path="url(#z36960c8)" d="M 594 292 L 592 181 L 597 147 L 647 164 L 672 183 L 685 184 L 691 196 L 710 202"/>
<path style="--d:9s;" pathLength="3333" clip-path="url(#z36960c9)" d="M 773 391 L 786 362 L 724 306 L 704 301"/>
<path style="--d:10s;" pathLength="3333" clip-path="url(#z36960c10)" d="M 661 300 L 781 244 L 825 217 L 850 193 L 862 172"/>
<path style="--d:11s;" pathLength="3333" clip-path="url(#z36960c11)" d="M 202 755 L 299 708 L 322 678"/>
<path style="--d:12s;" pathLength="3333" clip-path="url(#z36960c12)" d="M 93 434 L 146 439 L 234 471 L 254 465 L 269 451 L 258 408 L 230 361 L 219 326 L 231 292 L 264 235 L 272 205 L 266 172 L 249 149"/>
<path style="--d:13s;" pathLength="3333" clip-path="url(#z36960c13)" d="M 99 124 L 154 109 L 211 128 L 293 128 L 386 104 L 622 28 L 746 1 L 821 6 L 989 48"/>
</svg>