<svg id="z39192" class="acjk" viewBox="0 0 1024 1024" xmlns="http://www.w3.org/2000/svg">
<style>
<![CDATA[
@keyframes zk {
	to {
		stroke-dashoffset:0;
	}
}
svg.acjk path[clip-path] {
	--t:0.8s;
	animation:zk var(--t) linear forwards var(--d);
	stroke-dasharray:3337;
	stroke-dashoffset:3339;
	stroke-width:128;
	stroke-linecap:round;
	stroke-linejoin:round;
	fill:none;
	stroke:#000;
}
svg.acjk path[id] {fill:#ccc;}
]]>
</style>
  <path id="z39192d1" d="M 185 539 Q 228 588 274 657 L 281 667 Q 302 706 331 746 L 341 760 Q 348 770 356 776 Q 365 786 361 798 Q 357 810 331 832 Q 306 848 288 849 Q 270 848 278 827 Q 291 796 279 770 Q 219 629 55 437 Q 45 427 43 421 Q 39 411 53 413 Q 80 417 167 517 L 185 539 Z"/>
  <path id="z39192d2" d="M 331 746 Q 335 739 357 727 Q 397 706 442 681 Q 452 674 464 676 Q 471 677 474 688 Q 475 700 464 719 Q 452 749 347 761 Q 343 761 341 760 C 322 756 322 756 331 746 Z"/>
  <path id="z39192d3" d="M 274 657 Q 274 656 275 654 Q 278 647 299 634 Q 324 618 349 599 Q 359 592 371 593 Q 378 594 382 604 Q 383 616 374 636 Q 368 651 343 659 Q 292 671 281 667 C 271 665 271 665 274 657 Z"/>
  <path id="z39192d4" d="M 324 318 Q 342 293 357 286 Q 367 279 379 299 Q 392 324 413 457 Q 419 484 438 506 Q 448 516 438 528 Q 425 541 387 561 Q 375 567 327 551 Q 296 544 226 517 C 198 506 216 480 244 492 Q 244 493 246 493 Q 342 532 356 523 Q 371 513 368 494 Q 353 371 341 348 C 330 320 320 323 324 318 Z"/>
  <path id="z39192d5" d="M 240 393 Q 286 406 323 415 Q 342 421 334 430 Q 324 440 302 442 Q 269 442 239 422 C 214 406 211 385 240 393 Z"/>
  <path id="z39192d6" d="M 239 295 Q 285 308 324 318 C 353 325 370 340 341 348 Q 317 357 240 321 C 213 308 210 287 239 295 Z"/>
  <path id="z39192d7" d="M 335 211 Q 323 205 244 155 Q 237 149 235 158 Q 238 231 239 295 L 240 321 Q 240 358 240 393 L 239 422 Q 238 456 243 485 Q 244 489 244 492 C 246 502 246 502 226 517 Q 199 539 185 539 C 157 549 155 545 167 517 Q 210 433 191 195 Q 190 149 155 101 Q 145 85 152 65 Q 162 40 175 30 Q 188 23 198 39 Q 213 67 348 192 C 370 212 361 226 335 211 Z"/>
  <path id="z39192d8" d="M 348 192 Q 360 165 381 160 Q 391 157 398 171 Q 401 181 397 197 Q 391 215 371 228 Q 340 252 326 257 Q 319 260 317 251 Q 314 245 319 237 Q 326 224 335 211 L 348 192 Z"/>
  <path id="z39192d9" d="M 651 712 Q 682 796 683 797 Q 679 807 665 815 Q 629 839 597 825 Q 588 821 593 809 Q 623 743 540 580 Q 536 574 533 568 Q 508 522 439 428 Q 432 421 443 421 Q 486 430 577 558 Q 611 618 642 689 L 651 712 Z"/>
  <path id="z39192d10" d="M 642 689 Q 714 592 795 499 Q 816 475 853 472 Q 920 465 993 474 Q 1011 475 1013 480 Q 1016 486 1001 492 Q 824 571 823 572 Q 753 620 702 665 Q 668 699 651 712 C 628 731 624 713 642 689 Z"/>
  <path id="z39192d11" d="M 622 427 Q 662 440 709 452 Q 734 459 737 464 Q 744 471 739 478 Q 732 488 707 492 Q 682 495 656 483 Q 628 471 598 461 Q 564 451 525 445 Q 494 438 518 424 Q 546 412 586 417 L 622 427 Z"/>
  <path id="z39192d12" d="M 654 303 Q 708 313 794 318 Q 836 318 841 328 Q 845 338 830 348 Q 779 381 726 359 Q 695 352 655 340 L 602 328 Q 535 315 461 299 Q 445 296 457 283 Q 481 265 526 275 Q 560 285 603 293 L 654 303 Z"/>
  <path id="z39192d13" d="M 603 293 Q 604 223 607 108 Q 606 80 598 70 Q 595 70 540 75 Q 530 79 529 72 Q 529 65 538 56 Q 581 13 607 -20 Q 617 -29 630 -15 Q 660 33 662 120 Q 655 223 654 303 L 655 340 Q 659 395 657 402 Q 650 414 622 427 C 595 441 577 446 586 417 Q 601 372 602 354 Q 602 342 602 328 L 603 293 Z"/>
  <path id="z39192d14" d="M 485 210 Q 461 173 433 141 Q 409 114 423 81 Q 427 65 448 73 Q 496 98 501 155 Q 510 183 506 208 Q 502 215 497 217 Q 490 217 485 210 Z"/>
  <path id="z39192d15" d="M 721 207 Q 773 164 835 100 Q 851 81 866 78 Q 873 77 881 87 Q 891 100 879 141 Q 864 195 721 236 Q 712 240 711 229 Q 711 216 721 207 Z"/>
<defs>
  <clipPath id="z39192c1"><use href="#z39192d1"/></clipPath>
  <clipPath id="z39192c2"><use href="#z39192d2"/></clipPath>
  <clipPath id="z39192c3"><use href="#z39192d3"/></clipPath>
  <clipPath id="z39192c4"><use href="#z39192d4"/></clipPath>
  <clipPath id="z39192c5"><use href="#z39192d5"/></clipPath>
  <clipPath id="z39192c6"><use href="#z39192d6"/></clipPath>
  <clipPath id="z39192c7"><use href="#z39192d7"/></clipPath>
  <clipPath id="z39192c8"><use href="#z39192d8"/></clipPath>
  <clipPath id="z39192c9"><use href="#z39192d9"/></clipPath>
  <clipPath id="z39192c10"><use href="#z39192d10"/></clipPath>
  <clipPath id="z39192c11"><use href="#z39192d11"/></clipPath>
  <clipPath id="z39192c12"><use href="#z39192d12"/></clipPath>
  <clipPath id="z39192c13"><use href="#z39192d13"/></clipPath>
  <clipPath id="z39192c14"><use href="#z39192d14"/></clipPath>
  <clipPath id="z39192c15"><use href="#z39192d15"/></clipPath>
</defs>
<path style="--d:1s;" pathLength="3333" clip-path="url(#z39192c1)" d="M 287 836 L 310 814 L 321 792 L 288 726 L 200 588 L 117 483 L 51 421"/>
<path style="--d:2s;" pathLength="3333" clip-path="url(#z39192c2)" d="M 337 747 L 359 745 L 414 725 L 441 710 L 459 691"/>
<path style="--d:3s;" pathLength="3333" clip-path="url(#z39192c3)" d="M 283 658 L 341 635 L 367 608"/>
<path style="--d:4s;" pathLength="3333" clip-path="url(#z39192c4)" d="M 237 516 L 253 509 L 342 542 L 361 542 L 378 537 L 401 514 L 371 356 L 359 324 L 338 317"/>
<path style="--d:5s;" pathLength="3333" clip-path="url(#z39192c5)" d="M 246 400 L 264 418 L 296 426 L 326 425"/>
<path style="--d:6s;" pathLength="3333" clip-path="url(#z39192c6)" d="M 245 301 L 253 314 L 313 331 L 336 344"/>
<path style="--d:7s;" pathLength="3333" clip-path="url(#z39192c7)" d="M 178 517 L 194 513 L 212 481 L 219 372 L 210 155 L 215 122 L 259 137 L 330 190 L 336 204"/>
<path style="--d:8s;" pathLength="3333" clip-path="url(#z39192c8)" d="M 326 247 L 364 207 L 384 174"/>
<path style="--d:9s;" pathLength="3333" clip-path="url(#z39192c9)" d="M 601 815 L 633 795 L 638 780 L 629 735 L 599 651 L 541 539 L 483 464 L 445 427"/>
<path style="--d:10s;" pathLength="3333" clip-path="url(#z39192c10)" d="M 652 705 L 656 690 L 707 634 L 829 524 L 878 506 L 1007 482"/>
<path style="--d:11s;" pathLength="3333" clip-path="url(#z39192c11)" d="M 519 435 L 577 435 L 690 470 L 728 472"/>
<path style="--d:12s;" pathLength="3333" clip-path="url(#z39192c12)" d="M 460 291 L 515 291 L 753 341 L 787 342 L 833 332"/>
<path style="--d:13s;" pathLength="3333" clip-path="url(#z39192c13)" d="M 594 410 L 620 398 L 627 386 L 634 94 L 623 50 L 611 34 L 535 70"/>
<path style="--d:14s;" pathLength="3333" clip-path="url(#z39192c14)" d="M 495 206 L 475 151 L 438 85"/>
<path style="--d:15s;" pathLength="3333" clip-path="url(#z39192c15)" d="M 721 225 L 821 161 L 845 138 L 866 94"/>
</svg>