<svg id="z36805" class="acjk" viewBox="0 0 1024 1024" xmlns="http://www.w3.org/2000/svg">
<style>
<![CDATA[
@keyframes zk {
	to {
		stroke-dashoffset:0;
	}
}
svg.acjk path[clip-path] {
	--t:0.8s;
	animation:zk var(--t) linear forwards var(--d);
	stroke-dasharray:3337;
	stroke-dashoffset:3339;
	stroke-width:128;
	stroke-linecap:round;
	stroke-linejoin:round;
	fill:none;
	stroke:#000;
}
svg.acjk path[id] {fill:#ccc;}
]]>
</style>
  <path id="z36805d1" d="M 513 647 Q 582 663 650 680 Q 660 681 666 676 Q 669 673 662 578 Q 643 460 675 321 Q 720 123 907 134 Q 910 135 914 135 Q 932 136 935 145 Q 942 158 931 186 Q 918 238 917 325 Q 917 338 910 347 Q 903 354 898 335 Q 871 217 854 209 Q 845 205 837 206 Q 768 218 729 315 Q 684 432 725 592 Q 737 644 769 677 Q 782 687 770 697 Q 757 713 721 730 Q 687 743 673 734 Q 568 685 412 664 Q 396 660 395 653 Q 392 646 407 640 Q 428 631 477 640 L 513 647 Z"/>
  <path id="z36805d2" d="M 532 439 Q 559 448 589 454 Q 617 461 620 466 Q 627 473 623 481 Q 616 491 589 497 Q 561 501 536 488 L 495 474 Q 411 453 390 450 Q 357 443 382 429 Q 416 413 483 428 Q 486 429 491 429 L 532 439 Z"/>
  <path id="z36805d3" d="M 491 429 Q 469 297 444 255 Q 423 219 453 173 L 455 171 Q 462 156 472 162 Q 509 183 522 318 Q 526 387 532 439 L 536 488 Q 543 573 548 600 Q 554 625 532 639 Q 522 645 513 647 C 485 658 469 664 477 640 Q 476 640 477 639 Q 501 581 495 474 L 491 429 Z"/>
  <path id="z36805d4" d="M 222 726 Q 252 701 283 670 Q 298 657 315 657 Q 327 658 332 673 Q 338 689 327 721 Q 315 755 216 779 Q 200 783 192 779 Q 186 775 188 761 Q 192 748 222 726 Z"/>
  <path id="z36805d5" d="M 298 182 Q 307 189 310 202 Q 317 239 280 301 Q 250 353 317 444 Q 323 453 330 460 Q 352 479 331 494 Q 312 509 276 523 Q 254 535 235 517 Q 204 493 164 476 Q 109 451 91 453 Q 84 454 82 448 Q 81 444 89 439 Q 131 421 228 463 Q 237 467 246 457 Q 268 435 246 404 Q 198 350 244 280 Q 275 220 270 184 C 269 154 280 158 298 182 Z"/>
  <path id="z36805d6" d="M 270 184 Q 225 187 180 171 Q 146 158 91 153 Q 85 153 81 145 Q 78 138 87 128 Q 103 109 128 97 Q 138 91 158 105 Q 227 157 297 141 Q 364 128 499 68 Q 728 -37 812 -11 Q 813 -10 816 -10 Q 879 12 931 49 Q 955 65 931 65 Q 705 56 555 100 Q 471 124 369 162 Q 335 177 298 182 L 270 184 Z"/>
<defs>
  <clipPath id="z36805c1"><use href="#z36805d1"/></clipPath>
  <clipPath id="z36805c2"><use href="#z36805d2"/></clipPath>
  <clipPath id="z36805c3"><use href="#z36805d3"/></clipPath>
  <clipPath id="z36805c4"><use href="#z36805d4"/></clipPath>
  <clipPath id="z36805c5"><use href="#z36805d5"/></clipPath>
  <clipPath id="z36805c6"><use href="#z36805d6"/></clipPath>
</defs>
<path style="--d:1s;" pathLength="3333" clip-path="url(#z36805c1)" d="M 404 651 L 449 652 L 517 664 L 663 704 L 692 701 L 713 682 L 683 527 L 681 426 L 696 334 L 729 252 L 765 207 L 797 185 L 834 172 L 887 178 L 901 261 L 906 339"/>
<path style="--d:2s;" pathLength="3333" clip-path="url(#z36805c2)" d="M 383 441 L 412 437 L 453 442 L 570 474 L 612 475"/>
<path style="--d:3s;" pathLength="3333" clip-path="url(#z36805c3)" d="M 483 640 L 518 609 L 518 519 L 498 328 L 471 229 L 467 172"/>
<path style="--d:4s;" pathLength="3333" clip-path="url(#z36805c4)" d="M 199 770 L 289 714 L 312 677"/>
<path style="--d:5s;" pathLength="3333" clip-path="url(#z36805c5)" d="M 89 446 L 117 445 L 157 455 L 246 491 L 270 486 L 286 473 L 281 429 L 246 351 L 252 312 L 286 239 L 291 210 L 277 189"/>
<path style="--d:6s;" pathLength="3333" clip-path="url(#z36805c6)" d="M 92 141 L 138 129 L 194 153 L 235 163 L 302 161 L 355 147 L 601 56 L 740 27 L 805 26 L 935 57"/>
</svg>