<svg id="z39539" class="acjk" viewBox="0 0 1024 1024" xmlns="http://www.w3.org/2000/svg">
<style>
<![CDATA[
@keyframes zk {
	to {
		stroke-dashoffset:0;
	}
}
svg.acjk path[clip-path] {
	--t:0.8s;
	animation:zk var(--t) linear forwards var(--d);
	stroke-dasharray:3337;
	stroke-dashoffset:3339;
	stroke-width:128;
	stroke-linecap:round;
	stroke-linejoin:round;
	fill:none;
	stroke:#000;
}
svg.acjk path[id] {fill:#ccc;}
]]>
</style>
  <path id="z39539d1" d="M 182 719 Q 166 718 163 712 Q 159 706 177 696 Q 211 681 232 689 Q 272 705 368 724 Q 384 727 391 724 Q 404 717 399 675 Q 377 518 365 487 Q 359 469 366 454 Q 372 439 384 441 Q 397 444 403 458 Q 421 486 441 619 Q 454 671 487 703 Q 505 719 488 734 Q 469 750 418 772 Q 406 778 345 762 Q 294 750 251 737 Q 209 724 182 719 Z"/>
  <path id="z39539d2" d="M 253 347 Q 277 372 380 391 Q 408 394 421 383 Q 433 371 399 209 Q 390 160 367 129 Q 360 117 337 118 Q 307 127 280 133 Q 267 137 267 131 Q 267 127 275 119 Q 324 73 341 40 Q 348 21 365 30 Q 422 57 437 123 Q 458 210 473 306 Q 480 340 498 370 Q 511 386 499 398 Q 483 417 448 437 Q 427 449 371 424 Q 365 424 285 399 Q 263 393 259 412 Q 262 565 275 600 Q 281 615 274 625 Q 259 641 236 650 Q 220 657 212 649 Q 206 645 213 633 Q 231 588 214 412 Q 211 399 208 385 Q 202 366 216 351 Q 235 335 253 347 Z"/>
  <path id="z39539d3" d="M 75 219 Q 62 216 61 206 Q 60 193 69 186 Q 93 171 127 155 Q 137 152 148 162 Q 178 189 329 270 Q 351 282 365 295 Q 378 302 377 312 Q 373 318 360 314 Q 128 220 75 219 Z"/>
  <path id="z39539d4" d="M 735 637 Q 762 674 796 728 Q 814 758 814 760 Q 813 770 799 781 Q 765 811 734 803 Q 725 800 728 788 Q 737 739 686 658 L 663 620 Q 617 557 537 480 Q 530 474 539 472 Q 605 484 702 595 L 735 637 Z"/>
  <path id="z39539d5" d="M 702 595 Q 804 529 809 529 Q 816 529 820 538 Q 827 551 810 583 Q 798 610 735 637 L 686 658 Q 610 686 566 698 Q 559 701 559 690 Q 560 680 571 673 Q 614 651 663 620 L 702 595 Z"/>
  <path id="z39539d6" d="M 716 273 Q 755 343 772 425 Q 776 444 781 452 Q 788 459 782 469 Q 776 476 747 488 Q 716 504 699 498 Q 689 492 697 476 Q 725 401 678 310 L 652 272 Q 607 221 489 173 Q 464 163 493 160 Q 575 156 668 220 Q 674 227 682 233 L 716 273 Z"/>
  <path id="z39539d7" d="M 682 233 Q 724 181 791 116 Q 819 92 862 99 Q 917 106 959 111 Q 972 112 985 118 Q 992 125 981 134 Q 968 143 850 185 Q 781 212 716 273 L 678 310 Q 642 349 603 398 Q 584 420 553 427 Q 540 430 530 423 Q 524 416 534 407 Q 577 374 652 272 L 682 233 Z"/>
<defs>
  <clipPath id="z39539c1"><use href="#z39539d1"/></clipPath>
  <clipPath id="z39539c2"><use href="#z39539d2"/></clipPath>
  <clipPath id="z39539c3"><use href="#z39539d3"/></clipPath>
  <clipPath id="z39539c4"><use href="#z39539d4"/></clipPath>
  <clipPath id="z39539c5"><use href="#z39539d5"/></clipPath>
  <clipPath id="z39539c6"><use href="#z39539d6"/></clipPath>
  <clipPath id="z39539c7"><use href="#z39539d7"/></clipPath>
</defs>
<path style="--d:1s;" pathLength="3333" clip-path="url(#z39539c1)" d="M 170 710 L 222 707 L 381 749 L 409 746 L 430 729 L 441 715 L 423 659 L 399 518 L 382 457"/>
<path style="--d:2s;" pathLength="3333" clip-path="url(#z39539c2)" d="M 220 641 L 248 610 L 237 422 L 241 380 L 292 384 L 301 391 L 357 404 L 422 414 L 439 408 L 461 382 L 418 166 L 392 102 L 366 79 L 274 127"/>
<path style="--d:3s;" pathLength="3333" clip-path="url(#z39539c3)" d="M 76 204 L 130 193 L 371 309"/>
<path style="--d:4s;" pathLength="3333" clip-path="url(#z39539c4)" d="M 738 793 L 757 776 L 766 753 L 732 681 L 665 585 L 615 532 L 543 477"/>
<path style="--d:5s;" pathLength="3333" clip-path="url(#z39539c5)" d="M 569 688 L 670 642 L 763 591 L 795 564 L 811 538"/>
<path style="--d:6s;" pathLength="3333" clip-path="url(#z39539c6)" d="M 706 488 L 741 452 L 741 442 L 729 368 L 695 289 L 663 248 L 606 207 L 552 182 L 500 169"/>
<path style="--d:7s;" pathLength="3333" clip-path="url(#z39539c7)" d="M 539 417 L 567 403 L 593 380 L 698 253 L 814 153 L 833 143 L 978 125"/>
</svg>