<svg id="z30290" class="acjk" viewBox="0 0 1024 1024" xmlns="http://www.w3.org/2000/svg">
<style>
<![CDATA[
@keyframes zk {
	to {
		stroke-dashoffset:0;
	}
}
svg.acjk path[clip-path] {
	--t:0.8s;
	animation:zk var(--t) linear forwards var(--d);
	stroke-dasharray:3337;
	stroke-dashoffset:3339;
	stroke-width:128;
	stroke-linecap:round;
	stroke-linejoin:round;
	fill:none;
	stroke:#000;
}
svg.acjk path[id] {fill:#ccc;}
]]>
</style>
  <path id="z30290d1" d="M 513 806 Q 537 790 562 767 Q 575 757 591 758 Q 601 759 605 772 Q 608 787 597 815 Q 585 839 505 852 Q 489 853 484 851 Q 480 847 482 835 Q 486 825 513 806 Z"/>
  <path id="z30290d2" d="M 565 687 Q 748 724 754 729 Q 763 736 759 744 Q 752 756 724 764 Q 702 770 601 741 Q 457 708 346 699 Q 345 699 345 698 C 315 693 317 680 346 671 Q 389 656 429 664 Q 475 673 523 679 L 565 687 Z"/>
  <path id="z30290d3" d="M 345 698 Q 329 714 300 727 Q 281 737 268 732 Q 256 725 263 712 Q 281 685 282 625 Q 269 457 264 425 L 258 391 Q 224 211 98 18 Q 94 12 92 6 Q 89 -4 100 -3 Q 128 3 207 121 Q 226 155 246 195 Q 313 354 338 630 Q 341 651 346 671 C 351 693 351 693 345 698 Z"/>
  <path id="z30290d4" d="M 121 545 Q 158 488 188 471 Q 201 467 211 477 Q 218 487 218 504 Q 215 526 201 540 Q 180 561 138 579 Q 123 586 114 583 Q 108 583 109 571 Q 109 561 121 545 Z"/>
  <path id="z30290d5" d="M 264 425 Q 84 317 54 310 Q 42 306 43 297 Q 44 284 54 279 Q 79 270 112 262 Q 122 261 130 272 Q 148 299 254 388 Q 255 391 258 391 C 282 409 290 440 264 425 Z"/>
  <path id="z30290d6" d="M 392 439 Q 464 496 543 597 Q 555 616 567 628 L 581 642 Q 588 649 586 659 Q 585 669 565 687 C 543 708 523 709 523 679 Q 532 615 351 431 Q 342 424 341 419 Q 337 412 348 412 Q 355 413 374 425 L 392 439 Z"/>
  <path id="z30290d7" d="M 567 628 Q 667 546 772 474 Q 793 459 823 463 Q 878 467 933 488 Q 946 492 948 496 Q 949 502 936 504 Q 893 514 841 523 Q 735 544 581 642 C 556 658 544 647 567 628 Z"/>
  <path id="z30290d8" d="M 500 509 Q 473 502 493 491 Q 523 479 577 491 Q 607 500 641 507 Q 657 511 661 515 Q 667 522 663 527 Q 657 536 635 540 Q 613 543 590 532 Q 542 514 500 509 Z"/>
  <path id="z30290d9" d="M 409 273 Q 410 298 413 319 L 415 346 Q 418 391 421 405 Q 421 408 421 409 C 422 421 422 421 413 428 Q 404 437 392 439 C 367 446 367 446 374 425 Q 398 358 368 251 Q 343 211 370 178 Q 374 168 381 172 Q 400 185 408 250 L 409 273 Z"/>
  <path id="z30290d10" d="M 421 409 Q 430 409 485 427 Q 495 431 502 427 Q 506 423 506 408 Q 512 293 508 222 Q 507 203 501 195 Q 471 195 441 197 Q 475 164 494 142 Q 503 129 514 125 Q 520 122 526 129 Q 553 162 553 217 Q 540 394 554 417 Q 561 430 553 438 Q 538 450 513 460 Q 501 464 491 461 Q 467 443 413 428 C 384 420 392 403 421 409 Z"/>
  <path id="z30290d11" d="M 413 319 Q 416 319 420 320 Q 457 330 485 336 Q 501 342 494 350 Q 484 360 464 360 Q 445 360 415 346 C 388 333 383 317 413 319 Z"/>
  <path id="z30290d12" d="M 408 250 Q 444 256 483 261 Q 501 265 493 274 Q 484 284 464 287 Q 446 288 415 277 Q 411 276 409 273 C 388 251 383 246 408 250 Z"/>
  <path id="z30290d13" d="M 585 409 Q 600 372 589 288 Q 586 266 603 247 Q 610 240 617 247 Q 629 268 632 350 Q 633 369 636 387 Q 640 403 627 411 Q 615 418 604 425 Q 595 429 588 425 Q 582 421 585 409 Z"/>
  <path id="z30290d14" d="M 703 416 Q 707 358 705 241 Q 705 231 698 225 Q 694 224 644 235 Q 634 236 636 229 Q 637 225 650 211 Q 686 180 701 157 Q 711 148 719 153 Q 729 157 740 177 Q 746 190 747 262 Q 738 400 755 447 Q 761 462 747 469 Q 722 485 695 489 Q 683 490 678 483 Q 674 477 680 470 Q 699 448 703 416 Z"/>
  <path id="z30290d15" d="M 306 129 Q 291 83 268 40 Q 255 9 272 -21 Q 281 -37 299 -23 Q 338 10 335 79 Q 336 110 327 131 Q 323 138 316 139 Q 309 138 306 129 Z"/>
  <path id="z30290d16" d="M 398 108 Q 476 -30 658 -52 Q 806 -71 856 -17 Q 872 1 840 17 Q 786 48 721 107 Q 717 111 711 109 Q 707 105 714 94 Q 754 27 747 12 Q 737 2 673 1 Q 592 1 541 24 Q 484 49 409 122 Q 402 132 395 125 Q 391 119 398 108 Z"/>
  <path id="z30290d17" d="M 580 116 Q 608 83 641 64 Q 653 63 660 73 Q 664 83 662 96 Q 658 114 643 124 Q 642 125 589 146 Q 576 150 569 146 Q 565 145 566 136 Q 567 127 580 116 Z"/>
  <path id="z30290d18" d="M 797 171 Q 837 140 880 102 Q 893 92 907 92 Q 917 92 921 104 Q 925 117 916 145 Q 904 187 792 214 Q 777 218 772 215 Q 768 211 769 199 Q 773 189 797 171 Z"/>
<defs>
  <clipPath id="z30290c1"><use href="#z30290d1"/></clipPath>
  <clipPath id="z30290c2"><use href="#z30290d2"/></clipPath>
  <clipPath id="z30290c3"><use href="#z30290d3"/></clipPath>
  <clipPath id="z30290c4"><use href="#z30290d4"/></clipPath>
  <clipPath id="z30290c5"><use href="#z30290d5"/></clipPath>
  <clipPath id="z30290c6"><use href="#z30290d6"/></clipPath>
  <clipPath id="z30290c7"><use href="#z30290d7"/></clipPath>
  <clipPath id="z30290c8"><use href="#z30290d8"/></clipPath>
  <clipPath id="z30290c9"><use href="#z30290d9"/></clipPath>
  <clipPath id="z30290c10"><use href="#z30290d10"/></clipPath>
  <clipPath id="z30290c11"><use href="#z30290d11"/></clipPath>
  <clipPath id="z30290c12"><use href="#z30290d12"/></clipPath>
  <clipPath id="z30290c13"><use href="#z30290d13"/></clipPath>
  <clipPath id="z30290c14"><use href="#z30290d14"/></clipPath>
  <clipPath id="z30290c15"><use href="#z30290d15"/></clipPath>
  <clipPath id="z30290c16"><use href="#z30290d16"/></clipPath>
  <clipPath id="z30290c17"><use href="#z30290d17"/></clipPath>
  <clipPath id="z30290c18"><use href="#z30290d18"/></clipPath>
</defs>
<path style="--d:1s;" pathLength="3333" clip-path="url(#z30290c1)" d="M 489 845 L 570 801 L 588 775"/>
<path style="--d:2s;" pathLength="3333" clip-path="url(#z30290c2)" d="M 352 692 L 362 683 L 419 684 L 574 710 L 693 739 L 748 739"/>
<path style="--d:3s;" pathLength="3333" clip-path="url(#z30290c3)" d="M 273 720 L 296 702 L 312 672 L 293 460 L 269 336 L 241 244 L 192 137 L 150 67 L 100 5"/>
<path style="--d:4s;" pathLength="3333" clip-path="url(#z30290c4)" d="M 120 574 L 176 522 L 195 491"/>
<path style="--d:5s;" pathLength="3333" clip-path="url(#z30290c5)" d="M 56 298 L 107 297 L 247 399 L 252 410"/>
<path style="--d:6s;" pathLength="3333" clip-path="url(#z30290c6)" d="M 531 676 L 550 652 L 522 602 L 449 512 L 381 444 L 350 421"/>
<path style="--d:7s;" pathLength="3333" clip-path="url(#z30290c7)" d="M 576 626 L 585 629 L 666 571 L 794 500 L 853 493 L 941 499"/>
<path style="--d:8s;" pathLength="3333" clip-path="url(#z30290c8)" d="M 495 501 L 536 499 L 616 521 L 652 523"/>
<path style="--d:9s;" pathLength="3333" clip-path="url(#z30290c9)" d="M 384 421 L 397 416 L 401 404 L 402 357 L 388 243 L 377 205 L 379 181"/>
<path style="--d:10s;" pathLength="3333" clip-path="url(#z30290c10)" d="M 423 415 L 498 446 L 514 441 L 530 424 L 526 363 L 531 227 L 524 181 L 512 167 L 448 191"/>
<path style="--d:11s;" pathLength="3333" clip-path="url(#z30290c11)" d="M 416 326 L 428 337 L 460 346 L 487 345"/>
<path style="--d:12s;" pathLength="3333" clip-path="url(#z30290c12)" d="M 415 255 L 421 265 L 440 270 L 486 269"/>
<path style="--d:13s;" pathLength="3333" clip-path="url(#z30290c13)" d="M 594 417 L 613 392 L 610 254"/>
<path style="--d:14s;" pathLength="3333" clip-path="url(#z30290c14)" d="M 687 478 L 718 457 L 726 440 L 726 231 L 711 196 L 643 229"/>
<path style="--d:15s;" pathLength="3333" clip-path="url(#z30290c15)" d="M 317 128 L 311 70 L 286 -14"/>
<path style="--d:16s;" pathLength="3333" clip-path="url(#z30290c16)" d="M 401 120 L 471 44 L 518 12 L 558 -6 L 603 -19 L 693 -28 L 747 -24 L 775 -15 L 789 -5 L 782 15 L 734 83 L 725 86 L 724 97 L 715 102"/>
<path style="--d:17s;" pathLength="3333" clip-path="url(#z30290c17)" d="M 575 139 L 635 98 L 644 81"/>
<path style="--d:18s;" pathLength="3333" clip-path="url(#z30290c18)" d="M 777 209 L 873 150 L 907 107"/>
</svg>