<svg id="z34396" class="acjk" viewBox="0 0 1024 1024" xmlns="http://www.w3.org/2000/svg">
<style>
<![CDATA[
@keyframes zk {
	to {
		stroke-dashoffset:0;
	}
}
svg.acjk path[clip-path] {
	--t:0.8s;
	animation:zk var(--t) linear forwards var(--d);
	stroke-dasharray:3337;
	stroke-dashoffset:3339;
	stroke-width:128;
	stroke-linecap:round;
	stroke-linejoin:round;
	fill:none;
	stroke:#000;
}
svg.acjk path[id] {fill:#ccc;}
]]>
</style>
  <path id="z34396d1" d="M 539 705 Q 543 741 550 772 L 555 797 Q 555 800 564 826 Q 567 835 550 848 Q 522 864 500 868 Q 487 871 480 864 Q 473 857 480 845 Q 495 827 502 698 C 504 668 536 675 539 705 Z"/>
  <path id="z34396d2" d="M 550 772 Q 584 763 659 780 Q 677 784 697 789 Q 713 793 716 796 Q 723 803 719 810 Q 712 820 687 825 Q 675 826 601 806 Q 577 802 555 797 C 526 790 521 779 550 772 Z"/>
  <path id="z34396d3" d="M 511 673 Q 676 706 722 702 Q 738 698 735 688 Q 735 684 705 620 Q 698 607 703 604 Q 710 601 725 611 Q 774 645 814 656 Q 847 666 846 675 Q 843 684 782 730 Q 757 749 659 726 Q 614 720 539 705 L 502 698 Q 429 689 326 667 C 297 661 309 622 338 631 Q 431 662 481 668 L 511 673 Z"/>
  <path id="z34396d4" d="M 326 667 Q 310 680 286 691 Q 265 703 251 697 Q 238 690 245 675 Q 263 648 264 584 Q 245 373 233 323 Q 221 274 206 228 Q 164 116 79 -15 Q 75 -22 72 -29 Q 69 -41 80 -38 Q 110 -34 191 85 Q 212 119 231 158 Q 303 318 320 516 Q 329 624 338 631 C 345 654 345 654 326 667 Z"/>
  <path id="z34396d5" d="M 525 575 Q 552 584 657 606 Q 664 606 671 616 Q 671 625 653 631 Q 628 646 555 617 Q 540 613 528 608 L 490 596 Q 445 587 369 570 Q 348 566 366 554 Q 388 539 431 550 Q 456 557 489 565 L 525 575 Z"/>
  <path id="z34396d6" d="M 489 565 Q 489 520 512 501 Q 575 459 700 487 Q 703 490 709 490 Q 739 499 769 519 Q 782 531 772 549 Q 763 558 747 587 Q 746 599 740 602 Q 736 603 733 591 Q 681 498 559 525 Q 535 532 530 545 Q 527 554 525 575 L 528 608 Q 529 623 534 639 Q 538 652 529 660 Q 522 667 511 673 C 486 689 473 697 481 668 Q 481 665 483 660 Q 493 630 491 601 Q 490 600 490 596 L 489 565 Z"/>
  <path id="z34396d7" d="M 423 419 Q 413 423 386 428 Q 376 431 372 426 Q 368 420 375 406 Q 391 372 405 322 L 413 288 Q 419 243 437 222 Q 453 203 458 217 Q 458 218 459 221 L 461 245 Q 460 258 457 274 Q 454 287 452 297 L 447 328 Q 438 374 437 392 C 435 415 435 415 423 419 Z"/>
  <path id="z34396d8" d="M 656 248 Q 669 229 681 222 Q 690 215 704 233 Q 714 251 739 336 L 753 378 Q 762 394 775 408 Q 787 418 777 431 Q 764 446 727 469 Q 711 478 697 473 Q 667 466 625 458 Q 573 448 505 436 Q 459 426 423 419 C 394 413 408 384 437 392 Q 476 404 529 413 L 565 419 Q 676 443 694 429 Q 706 420 702 404 Q 698 385 693 367 L 685 333 Q 670 281 660 276 C 648 259 648 259 656 248 Z"/>
  <path id="z34396d9" d="M 739 336 Q 820 343 925 344 Q 944 345 947 353 Q 951 363 937 375 Q 883 414 832 395 Q 796 389 753 378 L 693 367 Q 600 355 585 349 L 539 342 Q 493 336 447 328 L 405 322 Q 354 316 303 308 Q 284 307 298 291 Q 311 279 327 274 Q 346 270 360 274 Q 384 281 413 288 L 452 297 Q 492 307 540 314 L 583 321 Q 626 328 685 333 L 739 336 Z"/>
  <path id="z34396d10" d="M 580 269 Q 581 297 583 321 L 585 349 Q 586 358 587 366 Q 587 405 579 408 Q 572 415 565 419 C 540 435 513 439 529 413 Q 530 410 533 407 Q 536 398 539 342 L 540 314 Q 540 292 542 261 C 544 231 579 239 580 269 Z"/>
  <path id="z34396d11" d="M 552 234 Q 607 243 656 248 C 686 251 689 268 660 276 Q 656 277 653 278 Q 631 284 580 269 L 542 261 Q 499 254 461 245 C 432 238 429 219 459 221 Q 463 221 471 222 Q 493 226 516 229 L 552 234 Z"/>
  <path id="z34396d12" d="M 551 134 Q 618 149 678 155 Q 706 156 711 148 Q 717 141 713 119 Q 707 58 693 32 Q 668 -2 636 6 Q 617 9 600 13 Q 575 22 593 -4 Q 627 -43 641 -72 Q 653 -90 669 -80 Q 717 -58 756 39 Q 783 123 801 138 Q 814 151 809 163 Q 800 176 747 204 Q 726 216 704 203 Q 676 187 573 168 L 501 154 Q 413 141 335 139 Q 316 139 313 130 Q 312 121 336 108 Q 361 90 383 97 Q 435 110 486 121 L 551 134 Z"/>
  <path id="z34396d13" d="M 486 121 Q 408 -5 269 -43 Q 256 -47 265 -53 Q 311 -69 388 -36 Q 475 3 530 99 Q 539 118 551 134 L 573 168 L 581 176 Q 594 188 582 200 Q 567 224 552 234 C 529 253 516 259 516 229 Q 519 211 501 154 L 486 121 Z"/>
<defs>
  <clipPath id="z34396c1"><use href="#z34396d1"/></clipPath>
  <clipPath id="z34396c2"><use href="#z34396d2"/></clipPath>
  <clipPath id="z34396c3"><use href="#z34396d3"/></clipPath>
  <clipPath id="z34396c4"><use href="#z34396d4"/></clipPath>
  <clipPath id="z34396c5"><use href="#z34396d5"/></clipPath>
  <clipPath id="z34396c6"><use href="#z34396d6"/></clipPath>
  <clipPath id="z34396c7"><use href="#z34396d7"/></clipPath>
  <clipPath id="z34396c8"><use href="#z34396d8"/></clipPath>
  <clipPath id="z34396c9"><use href="#z34396d9"/></clipPath>
  <clipPath id="z34396c10"><use href="#z34396d10"/></clipPath>
  <clipPath id="z34396c11"><use href="#z34396d11"/></clipPath>
  <clipPath id="z34396c12"><use href="#z34396d12"/></clipPath>
  <clipPath id="z34396c13"><use href="#z34396d13"/></clipPath>
</defs>
<path style="--d:1s;" pathLength="3333" clip-path="url(#z34396c1)" d="M 490 855 L 525 821 L 521 722 L 506 711"/>
<path style="--d:2s;" pathLength="3333" clip-path="url(#z34396c2)" d="M 556 777 L 680 805 L 708 805"/>
<path style="--d:3s;" pathLength="3333" clip-path="url(#z34396c3)" d="M 336 664 L 349 653 L 445 677 L 543 690 L 673 717 L 715 721 L 746 716 L 763 705 L 775 685 L 707 609"/>
<path style="--d:4s;" pathLength="3333" clip-path="url(#z34396c4)" d="M 257 684 L 291 651 L 298 633 L 292 531 L 262 327 L 227 213 L 182 114 L 121 17 L 81 -29"/>
<path style="--d:5s;" pathLength="3333" clip-path="url(#z34396c5)" d="M 366 562 L 406 561 L 491 580 L 589 611 L 629 619 L 663 617"/>
<path style="--d:6s;" pathLength="3333" clip-path="url(#z34396c6)" d="M 489 666 L 511 642 L 506 572 L 513 533 L 528 516 L 548 506 L 599 497 L 631 498 L 666 503 L 706 518 L 737 539 L 738 595"/>
<path style="--d:7s;" pathLength="3333" clip-path="url(#z34396c7)" d="M 380 421 L 403 401 L 412 384 L 449 221"/>
<path style="--d:8s;" pathLength="3333" clip-path="url(#z34396c8)" d="M 430 414 L 454 410 L 667 451 L 711 449 L 738 419 L 686 262 L 687 238"/>
<path style="--d:9s;" pathLength="3333" clip-path="url(#z34396c9)" d="M 300 300 L 336 292 L 622 343 L 858 372 L 890 371 L 936 358"/>
<path style="--d:10s;" pathLength="3333" clip-path="url(#z34396c10)" d="M 535 413 L 561 388 L 561 290 L 547 269"/>
<path style="--d:11s;" pathLength="3333" clip-path="url(#z34396c11)" d="M 465 227 L 483 238 L 633 262 L 654 270"/>
<path style="--d:12s;" pathLength="3333" clip-path="url(#z34396c12)" d="M 322 128 L 374 118 L 689 175 L 723 178 L 740 169 L 756 150 L 753 136 L 734 59 L 702 -4 L 666 -34 L 593 6"/>
<path style="--d:13s;" pathLength="3333" clip-path="url(#z34396c13)" d="M 523 225 L 543 204 L 547 191 L 505 104 L 470 55 L 420 8 L 371 -22 L 324 -41 L 272 -50"/>
</svg>