<svg id="z35948" class="acjk" viewBox="0 0 1024 1024" xmlns="http://www.w3.org/2000/svg">
<style>
<![CDATA[
@keyframes zk {
	to {
		stroke-dashoffset:0;
	}
}
svg.acjk path[clip-path] {
	--t:0.8s;
	animation:zk var(--t) linear forwards var(--d);
	stroke-dasharray:3337;
	stroke-dashoffset:3339;
	stroke-width:128;
	stroke-linecap:round;
	stroke-linejoin:round;
	fill:none;
	stroke:#000;
}
svg.acjk path[id] {fill:#ccc;}
]]>
</style>
  <path id="z35948d1" d="M 269 653 Q 284 662 380 691 Q 404 700 407 703 Q 414 713 409 720 Q 400 732 369 735 Q 348 736 273 705 Q 210 684 185 679 Q 148 669 177 655 Q 198 646 232 646 L 269 653 Z"/>
  <path id="z35948d2" d="M 203 500 Q 230 528 261 565 Q 279 589 293 599 Q 300 606 299 618 Q 293 642 269 653 C 243 668 230 675 232 646 Q 244 595 96 436 Q 87 429 85 424 Q 81 415 92 416 Q 119 419 184 482 L 203 500 Z"/>
  <path id="z35948d3" d="M 300 429 Q 255 484 203 500 C 175 511 158 497 184 482 Q 194 478 203 470 L 240 443 Q 259 427 274 405 L 300 345 Q 319 270 297 164 Q 287 119 274 112 Q 264 108 245 110 Q 178 129 176 120 Q 175 113 186 102 Q 238 59 260 28 Q 273 10 288 14 Q 309 21 326 52 Q 374 157 355 297 Q 343 364 318 403 L 300 429 Z"/>
  <path id="z35948d4" d="M 203 470 Q 176 395 82 305 Q 72 295 80 293 Q 93 289 138 317 Q 201 360 236 429 Q 240 436 240 443 C 244 473 214 498 203 470 Z"/>
  <path id="z35948d5" d="M 274 405 Q 220 273 68 139 Q 62 136 58 130 Q 48 118 56 117 Q 65 113 75 119 Q 177 165 273 302 Q 274 306 278 310 Q 293 332 300 345 C 315 371 286 433 274 405 Z"/>
  <path id="z35948d6" d="M 318 420 Q 390 499 428 531 Q 443 538 437 547 Q 430 560 410 573 Q 391 586 370 584 Q 357 583 361 565 Q 365 553 360 537 Q 341 495 300 429 C 284 403 298 398 318 420 Z"/>
  <path id="z35948d7" d="M 318 403 Q 352 388 395 359 Q 407 350 416 350 Q 420 351 424 358 Q 428 367 415 390 Q 397 420 318 420 C 288 420 278 421 318 403 Z"/>
  <path id="z35948d8" d="M 645 578 Q 717 605 719 606 Q 726 615 720 622 Q 713 632 685 634 Q 664 635 648 628 L 595 605 Q 588 604 582 600 Q 554 590 519 583 Q 488 573 513 561 Q 547 548 596 561 L 645 578 Z"/>
  <path id="z35948d9" d="M 638 467 Q 641 524 645 578 L 648 628 Q 649 709 667 774 Q 671 786 650 800 Q 616 819 590 823 Q 574 826 566 818 Q 559 811 567 795 Q 588 765 589 745 Q 593 678 595 605 L 596 561 Q 596 512 595 458 C 594 428 636 437 638 467 Z"/>
  <path id="z35948d10" d="M 720 447 Q 783 459 924 470 Q 943 471 946 480 Q 950 490 934 502 Q 877 533 820 515 Q 789 508 753 496 L 682 478 Q 657 475 638 467 L 595 458 Q 516 442 430 422 Q 411 418 426 403 Q 462 379 492 391 Q 565 416 648 433 Q 649 434 653 434 L 720 447 Z"/>
  <path id="z35948d11" d="M 625 322 Q 632 332 642 342 Q 685 397 720 447 L 753 496 Q 829 622 841 636 Q 850 648 841 665 Q 823 696 805 710 Q 790 723 772 724 Q 753 725 759 702 Q 765 666 755 628 Q 752 624 751 616 Q 729 556 682 478 L 653 434 Q 619 386 559 314 L 527 277 Q 455 201 371 123 Q 364 117 363 109 Q 363 103 370 104 Q 407 110 516 206 Q 520 215 535 225 L 576 266 L 594 286 L 625 322 Z"/>
  <path id="z35948d12" d="M 559 314 Q 534 324 520 323 Q 510 319 514 309 Q 521 294 527 277 L 535 225 Q 538 123 520 84 Q 505 51 537 14 Q 544 4 552 9 Q 558 13 571 50 L 576 82 Q 577 97 577 114 Q 576 148 576 174 L 575 202 Q 575 245 576 266 C 577 296 578 307 559 314 Z"/>
  <path id="z35948d13" d="M 710 59 Q 738 22 758 -12 Q 765 -28 777 -28 Q 792 -27 807 4 Q 820 32 821 100 Q 803 263 828 293 Q 837 305 828 314 Q 812 333 764 356 Q 748 365 734 356 Q 700 340 646 327 Q 633 326 625 322 C 596 314 564 282 594 286 Q 609 287 631 292 Q 739 316 749 307 Q 764 295 758 141 Q 758 101 755 88 Q 752 79 744 76 C 724 54 701 71 710 59 Z"/>
  <path id="z35948d14" d="M 576 174 Q 577 174 581 174 Q 653 183 706 188 Q 730 191 721 204 Q 711 219 685 224 Q 651 230 575 202 C 547 192 546 174 576 174 Z"/>
  <path id="z35948d15" d="M 571 50 Q 575 49 583 50 Q 625 57 710 59 C 740 60 759 60 744 76 Q 738 83 720 96 Q 705 106 677 100 Q 622 88 576 82 C 546 78 541 53 571 50 Z"/>
<defs>
  <clipPath id="z35948c1"><use href="#z35948d1"/></clipPath>
  <clipPath id="z35948c2"><use href="#z35948d2"/></clipPath>
  <clipPath id="z35948c3"><use href="#z35948d3"/></clipPath>
  <clipPath id="z35948c4"><use href="#z35948d4"/></clipPath>
  <clipPath id="z35948c5"><use href="#z35948d5"/></clipPath>
  <clipPath id="z35948c6"><use href="#z35948d6"/></clipPath>
  <clipPath id="z35948c7"><use href="#z35948d7"/></clipPath>
  <clipPath id="z35948c8"><use href="#z35948d8"/></clipPath>
  <clipPath id="z35948c9"><use href="#z35948d9"/></clipPath>
  <clipPath id="z35948c10"><use href="#z35948d10"/></clipPath>
  <clipPath id="z35948c11"><use href="#z35948d11"/></clipPath>
  <clipPath id="z35948c12"><use href="#z35948d12"/></clipPath>
  <clipPath id="z35948c13"><use href="#z35948d13"/></clipPath>
  <clipPath id="z35948c14"><use href="#z35948d14"/></clipPath>
  <clipPath id="z35948c15"><use href="#z35948d15"/></clipPath>
</defs>
<path style="--d:1s;" pathLength="3333" clip-path="url(#z35948c1)" d="M 178 668 L 225 667 L 353 708 L 397 713"/>
<path style="--d:2s;" pathLength="3333" clip-path="url(#z35948c2)" d="M 239 643 L 264 617 L 237 575 L 177 499 L 92 423"/>
<path style="--d:3s;" pathLength="3333" clip-path="url(#z35948c3)" d="M 191 484 L 206 484 L 250 457 L 291 413 L 322 343 L 333 285 L 334 237 L 322 135 L 292 75 L 282 70 L 265 75 L 181 117"/>
<path style="--d:4s;" pathLength="3333" clip-path="url(#z35948c4)" d="M 207 462 L 213 433 L 183 386 L 122 321 L 84 298"/>
<path style="--d:5s;" pathLength="3333" clip-path="url(#z35948c5)" d="M 274 398 L 271 342 L 217 263 L 130 172 L 62 123"/>
<path style="--d:6s;" pathLength="3333" clip-path="url(#z35948c6)" d="M 371 572 L 394 544 L 318 434 L 309 435"/>
<path style="--d:7s;" pathLength="3333" clip-path="url(#z35948c7)" d="M 313 420 L 316 412 L 348 406 L 392 386 L 413 361"/>
<path style="--d:8s;" pathLength="3333" clip-path="url(#z35948c8)" d="M 514 573 L 570 575 L 661 609 L 714 613"/>
<path style="--d:9s;" pathLength="3333" clip-path="url(#z35948c9)" d="M 577 809 L 625 769 L 618 492 L 601 466"/>
<path style="--d:10s;" pathLength="3333" clip-path="url(#z35948c10)" d="M 429 412 L 480 410 L 663 456 L 846 492 L 880 494 L 935 484"/>
<path style="--d:11s;" pathLength="3333" clip-path="url(#z35948c11)" d="M 770 710 L 786 694 L 801 652 L 750 542 L 697 455 L 621 352 L 546 265 L 478 197 L 370 111"/>
<path style="--d:12s;" pathLength="3333" clip-path="url(#z35948c12)" d="M 525 313 L 542 298 L 555 240 L 554 121 L 544 63 L 547 18"/>
<path style="--d:13s;" pathLength="3333" clip-path="url(#z35948c13)" d="M 610 293 L 630 307 L 749 334 L 776 319 L 789 302 L 785 203 L 790 109 L 787 75 L 774 44 L 777 -13"/>
<path style="--d:14s;" pathLength="3333" clip-path="url(#z35948c14)" d="M 579 181 L 592 192 L 650 203 L 688 205 L 711 198"/>
<path style="--d:15s;" pathLength="3333" clip-path="url(#z35948c15)" d="M 577 55 L 590 68 L 688 81 L 736 77"/>
</svg>