<svg id="z39405" class="acjk" viewBox="0 0 1024 1024" xmlns="http://www.w3.org/2000/svg">
<style>
<![CDATA[
@keyframes zk {
	to {
		stroke-dashoffset:0;
	}
}
svg.acjk path[clip-path] {
	--t:0.8s;
	animation:zk var(--t) linear forwards var(--d);
	stroke-dasharray:3337;
	stroke-dashoffset:3339;
	stroke-width:128;
	stroke-linecap:round;
	stroke-linejoin:round;
	fill:none;
	stroke:#000;
}
svg.acjk path[id] {fill:#ccc;}
]]>
</style>
  <path id="z39405d1" d="M 356 693 Q 476 726 481 730 Q 488 737 484 745 Q 477 755 449 761 Q 421 765 395 752 Q 362 739 327 728 Q 288 718 242 711 Q 232 710 229 706 C 209 695 209 695 237 687 Q 276 675 318 683 L 356 693 Z"/>
  <path id="z39405d2" d="M 229 706 Q 214 722 190 731 Q 171 738 163 729 Q 157 723 165 712 Q 177 685 178 564 Q 172 392 160 345 Q 156 326 170 310 Q 189 294 208 307 C 217 311 217 346 217 376 Q 217 626 237 686 Q 236 687 237 687 C 239 697 239 697 229 706 Z"/>
  <path id="z39405d3" d="M 372 575 Q 393 584 417 592 Q 433 599 435 602 Q 441 609 436 615 Q 429 624 405 625 Q 389 625 374 619 L 328 597 Q 282 582 273 579 Q 245 569 268 560 Q 295 551 328 558 L 372 575 Z"/>
  <path id="z39405d4" d="M 367 470 Q 428 492 430 493 Q 437 500 432 507 Q 425 516 401 518 Q 383 519 369 513 L 327 495 Q 290 483 270 479 Q 242 470 265 460 Q 289 451 326 456 L 367 470 Z"/>
  <path id="z39405d5" d="M 369 513 Q 370 546 372 575 L 374 619 Q 374 623 375 625 Q 378 673 370 681 Q 363 688 356 693 C 333 712 310 712 318 683 Q 330 644 328 597 L 328 558 Q 327 533 327 495 L 326 456 Q 326 422 326 378 C 326 348 363 354 364 384 Q 365 429 367 470 L 369 513 Z"/>
  <path id="z39405d6" d="M 208 307 Q 253 340 392 355 Q 422 361 435 349 Q 448 339 439 297 Q 435 237 426 174 Q 420 125 400 93 Q 390 84 329 94 Q 311 97 311 91 Q 311 85 320 78 Q 360 33 374 4 Q 383 -15 400 -5 Q 460 28 468 94 Q 481 179 491 275 Q 495 309 512 340 Q 524 356 512 367 Q 494 385 459 403 Q 440 413 413 401 Q 388 389 364 384 L 326 378 Q 292 372 242 359 Q 217 355 217 376 C 200 401 182 292 208 307 Z"/>
  <path id="z39405d7" d="M 84 266 Q 77 217 62 169 Q 53 136 75 112 Q 85 99 101 115 Q 135 161 119 224 Q 116 252 104 272 Q 98 278 93 277 Q 86 274 84 266 Z"/>
  <path id="z39405d8" d="M 165 234 Q 171 188 185 169 Q 192 162 201 166 Q 208 170 213 181 Q 217 205 184 251 Q 177 258 171 260 Q 167 261 164 254 Q 161 247 165 234 Z"/>
  <path id="z39405d9" d="M 241 250 Q 248 223 268 197 Q 277 193 285 198 Q 292 204 294 214 Q 294 244 258 269 L 257 270 Q 250 277 242 276 Q 238 277 237 269 Q 236 262 241 250 Z"/>
  <path id="z39405d10" d="M 318 287 Q 340 230 363 221 Q 373 217 383 232 Q 387 242 384 262 Q 375 289 327 309 Q 320 312 316 302 Q 313 296 318 287 Z"/>
  <path id="z39405d11" d="M 654 762 Q 679 740 707 711 Q 720 698 737 699 Q 747 699 753 713 Q 757 728 749 757 Q 743 776 713 791 Q 640 816 628 811 Q 624 807 624 794 Q 628 784 654 762 Z"/>
  <path id="z39405d12" d="M 646 584 Q 772 617 903 637 Q 913 636 922 650 Q 923 662 899 671 Q 860 690 803 667 Q 628 622 507 601 Q 479 597 501 580 Q 537 556 566 565 Q 585 571 612 576 L 646 584 Z"/>
  <path id="z39405d13" d="M 714 402 Q 666 401 627 396 Q 596 395 611 414 Q 648 474 682 518 Q 695 534 692 541 Q 688 554 651 581 Q 648 582 646 584 C 621 601 597 602 612 576 Q 624 564 619 531 Q 607 462 555 403 Q 518 387 557 342 Q 567 332 578 340 Q 599 352 701 378 C 730 385 744 403 714 402 Z"/>
  <path id="z39405d14" d="M 701 378 Q 682 347 657 308 Q 620 254 499 129 Q 481 111 507 118 Q 534 125 571 156 Q 617 187 667 251 Q 727 320 768 389 Q 805 450 823 477 Q 832 490 828 498 Q 822 511 796 514 Q 768 520 756 515 Q 749 512 748 499 Q 747 468 724 421 Q 720 412 714 402 L 701 378 Z"/>
  <path id="z39405d15" d="M 765 184 Q 792 218 827 267 Q 845 294 846 297 Q 845 306 834 317 Q 806 345 774 341 Q 765 340 767 328 Q 779 262 672 142 Q 669 141 668 138 Q 637 104 561 39 Q 554 35 563 32 Q 614 32 727 139 Q 728 145 750 166 L 765 184 Z"/>
  <path id="z39405d16" d="M 750 166 Q 753 163 757 159 Q 809 113 872 45 Q 887 26 902 22 Q 909 21 917 30 Q 929 43 916 85 Q 907 124 833 157 Q 791 176 765 184 C 736 193 729 187 750 166 Z"/>
<defs>
  <clipPath id="z39405c1"><use href="#z39405d1"/></clipPath>
  <clipPath id="z39405c2"><use href="#z39405d2"/></clipPath>
  <clipPath id="z39405c3"><use href="#z39405d3"/></clipPath>
  <clipPath id="z39405c4"><use href="#z39405d4"/></clipPath>
  <clipPath id="z39405c5"><use href="#z39405d5"/></clipPath>
  <clipPath id="z39405c6"><use href="#z39405d6"/></clipPath>
  <clipPath id="z39405c7"><use href="#z39405d7"/></clipPath>
  <clipPath id="z39405c8"><use href="#z39405d8"/></clipPath>
  <clipPath id="z39405c9"><use href="#z39405d9"/></clipPath>
  <clipPath id="z39405c10"><use href="#z39405d10"/></clipPath>
  <clipPath id="z39405c11"><use href="#z39405d11"/></clipPath>
  <clipPath id="z39405c12"><use href="#z39405d12"/></clipPath>
  <clipPath id="z39405c13"><use href="#z39405d13"/></clipPath>
  <clipPath id="z39405c14"><use href="#z39405d14"/></clipPath>
  <clipPath id="z39405c15"><use href="#z39405d15"/></clipPath>
  <clipPath id="z39405c16"><use href="#z39405d16"/></clipPath>
</defs>
<path style="--d:1s;" pathLength="3333" clip-path="url(#z39405c1)" d="M 237 704 L 259 697 L 296 700 L 363 715 L 430 739 L 475 739"/>
<path style="--d:2s;" pathLength="3333" clip-path="url(#z39405c2)" d="M 173 722 L 204 683 L 196 436 L 185 334 L 197 315"/>
<path style="--d:3s;" pathLength="3333" clip-path="url(#z39405c3)" d="M 268 570 L 317 574 L 387 603 L 426 609"/>
<path style="--d:4s;" pathLength="3333" clip-path="url(#z39405c4)" d="M 265 470 L 316 472 L 387 498 L 425 501"/>
<path style="--d:5s;" pathLength="3333" clip-path="url(#z39405c5)" d="M 326 678 L 349 664 L 352 637 L 346 407 L 343 396 L 331 387"/>
<path style="--d:6s;" pathLength="3333" clip-path="url(#z39405c6)" d="M 209 314 L 232 342 L 429 381 L 452 374 L 476 350 L 447 134 L 426 70 L 399 47 L 318 87"/>
<path style="--d:7s;" pathLength="3333" clip-path="url(#z39405c7)" d="M 95 266 L 98 211 L 87 122"/>
<path style="--d:8s;" pathLength="3333" clip-path="url(#z39405c8)" d="M 174 250 L 195 178"/>
<path style="--d:9s;" pathLength="3333" clip-path="url(#z39405c9)" d="M 245 269 L 276 211"/>
<path style="--d:10s;" pathLength="3333" clip-path="url(#z39405c10)" d="M 328 296 L 363 252 L 367 238"/>
<path style="--d:11s;" pathLength="3333" clip-path="url(#z39405c11)" d="M 632 805 L 704 760 L 735 717"/>
<path style="--d:12s;" pathLength="3333" clip-path="url(#z39405c12)" d="M 502 591 L 556 586 L 845 653 L 910 651"/>
<path style="--d:13s;" pathLength="3333" clip-path="url(#z39405c13)" d="M 619 573 L 645 556 L 653 536 L 626 475 L 588 411 L 580 379 L 629 377 L 687 386 L 706 398"/>
<path style="--d:14s;" pathLength="3333" clip-path="url(#z39405c14)" d="M 813 492 L 782 481 L 727 372 L 657 271 L 585 190 L 510 128"/>
<path style="--d:15s;" pathLength="3333" clip-path="url(#z39405c15)" d="M 781 329 L 803 294 L 744 194 L 705 145 L 660 102 L 567 37"/>
<path style="--d:16s;" pathLength="3333" clip-path="url(#z39405c16)" d="M 758 167 L 777 164 L 847 117 L 884 80 L 903 37"/>
</svg>