<svg id="z35115" class="acjk" viewBox="0 0 1024 1024" xmlns="http://www.w3.org/2000/svg">
<style>
<![CDATA[
@keyframes zk {
	to {
		stroke-dashoffset:0;
	}
}
svg.acjk path[clip-path] {
	--t:0.8s;
	animation:zk var(--t) linear forwards var(--d);
	stroke-dasharray:3337;
	stroke-dashoffset:3339;
	stroke-width:128;
	stroke-linecap:round;
	stroke-linejoin:round;
	fill:none;
	stroke:#000;
}
svg.acjk path[id] {fill:#ccc;}
]]>
</style>
  <path id="z35115d1" d="M 271 751 Q 295 729 321 700 Q 334 687 352 687 Q 362 687 369 701 Q 373 716 366 748 Q 357 778 267 802 Q 251 806 244 803 Q 238 799 240 786 Q 243 774 271 751 Z"/>
  <path id="z35115d2" d="M 239 385 Q 270 425 305 476 Q 339 528 384 560 Q 399 570 387 586 Q 368 601 341 611 Q 319 620 303 609 Q 231 560 91 552 Q 81 553 77 546 Q 74 537 88 527 Q 121 503 152 508 Q 173 514 266 551 Q 281 557 284 550 Q 288 543 277 520 Q 202 379 40 231 Q 25 221 28 217 Q 31 214 44 219 Q 117 253 213 354 L 239 385 Z"/>
  <path id="z35115d3" d="M 213 354 Q 241 290 206 121 Q 185 60 223 15 L 224 14 Q 240 1 250 24 Q 263 58 262 99 Q 266 277 273 317 Q 280 341 271 350 Q 255 368 244 380 Q 241 383 239 385 C 218 407 203 382 213 354 Z"/>
  <path id="z35115d4" d="M 342 399 Q 379 441 401 458 Q 411 464 408 471 Q 384 498 356 496 Q 346 493 350 481 Q 356 468 327 406 C 314 379 322 377 342 399 Z"/>
  <path id="z35115d5" d="M 327 406 Q 308 418 296 414 Q 292 413 292 403 Q 293 396 311 379 Q 329 361 347 339 Q 354 329 366 328 Q 373 328 378 337 Q 382 347 378 367 Q 375 382 355 394 Q 349 397 342 399 L 327 406 Z"/>
  <path id="z35115d6" d="M 500 665 Q 608 696 647 715 Q 690 734 730 742 Q 746 743 750 751 Q 754 761 742 773 Q 682 813 648 810 Q 641 806 640 796 Q 641 763 488 683 C 461 669 471 657 500 665 Z"/>
  <path id="z35115d7" d="M 488 683 Q 475 695 453 703 Q 437 712 425 707 Q 415 700 421 688 Q 440 661 441 595 Q 440 583 440 568 Q 440 402 399 268 Q 363 162 289 36 Q 285 30 283 24 Q 282 14 291 17 Q 315 21 386 135 Q 404 168 420 206 Q 477 353 491 615 Q 492 645 500 665 C 502 673 502 673 488 683 Z"/>
  <path id="z35115d8" d="M 684 552 Q 687 583 690 613 L 692 633 Q 692 645 701 672 Q 702 679 690 689 Q 668 701 652 704 Q 642 705 636 700 Q 632 696 637 685 Q 652 666 655 547 C 656 517 681 522 684 552 Z"/>
  <path id="z35115d9" d="M 690 613 Q 724 604 805 630 Q 815 633 818 635 Q 824 642 819 648 Q 813 655 791 658 Q 773 659 722 640 Q 707 636 692 633 C 663 627 661 620 690 613 Z"/>
  <path id="z35115d10" d="M 581 499 Q 626 517 775 546 Q 806 547 806 534 Q 807 524 794 484 Q 790 471 795 469 Q 801 466 811 477 Q 863 522 885 531 Q 903 535 901 546 Q 900 556 838 583 Q 820 590 799 583 Q 741 567 689 554 Q 686 554 684 552 L 655 547 Q 618 541 574 532 C 545 526 553 489 581 499 Z"/>
  <path id="z35115d11" d="M 570 414 Q 573 430 577 476 Q 578 488 581 499 C 586 524 586 524 574 532 Q 564 541 547 547 Q 534 554 523 551 Q 514 547 519 536 Q 555 475 503 249 Q 499 237 495 224 Q 471 161 409 52 Q 405 48 404 43 Q 403 34 410 36 Q 443 45 502 152 Q 506 164 513 175 Q 555 277 570 404 L 570 414 Z"/>
  <path id="z35115d12" d="M 681 411 Q 714 423 779 436 Q 786 436 792 445 Q 792 454 775 459 Q 754 474 686 446 L 648 434 Q 621 427 577 417 Q 571 416 570 414 C 560 409 560 409 570 404 Q 571 404 574 402 Q 595 389 627 396 Q 634 399 647 401 L 681 411 Z"/>
  <path id="z35115d13" d="M 848 369 Q 839 382 826 424 Q 825 434 820 437 Q 816 440 814 428 Q 798 382 788 368 Q 782 361 766 357 Q 733 348 699 359 Q 687 365 685 372 Q 682 381 681 411 L 686 446 Q 687 453 689 461 Q 693 474 684 481 Q 674 491 658 497 Q 648 500 642 497 Q 638 494 641 481 Q 648 457 648 434 L 647 401 Q 644 353 664 335 Q 715 299 804 323 Q 825 330 845 344 Q 855 354 848 369 Z"/>
  <path id="z35115d14" d="M 640 264 Q 640 265 639 265 Q 626 275 615 278 Q 597 288 584 282 Q 574 278 579 267 Q 594 246 585 158 Q 584 157 584 153 Q 566 87 495 27 Q 492 26 491 23 Q 481 16 491 14 Q 527 14 572 58 Q 623 106 631 180 Q 640 232 643 238 C 649 258 649 258 640 264 Z"/>
  <path id="z35115d15" d="M 643 238 Q 647 239 656 240 Q 678 244 699 250 Q 709 251 712 248 Q 718 242 714 216 Q 704 98 717 57 Q 733 26 794 8 Q 852 -5 906 4 Q 943 11 968 30 Q 978 37 974 50 Q 958 111 952 181 Q 946 209 936 182 Q 926 85 905 68 Q 895 53 847 51 Q 796 47 762 71 Q 746 84 747 150 Q 748 198 792 251 Q 804 263 788 275 Q 767 290 739 298 Q 720 305 708 292 Q 686 279 640 264 C 612 254 613 233 643 238 Z"/>
<defs>
  <clipPath id="z35115c1"><use href="#z35115d1"/></clipPath>
  <clipPath id="z35115c2"><use href="#z35115d2"/></clipPath>
  <clipPath id="z35115c3"><use href="#z35115d3"/></clipPath>
  <clipPath id="z35115c4"><use href="#z35115d4"/></clipPath>
  <clipPath id="z35115c5"><use href="#z35115d5"/></clipPath>
  <clipPath id="z35115c6"><use href="#z35115d6"/></clipPath>
  <clipPath id="z35115c7"><use href="#z35115d7"/></clipPath>
  <clipPath id="z35115c8"><use href="#z35115d8"/></clipPath>
  <clipPath id="z35115c9"><use href="#z35115d9"/></clipPath>
  <clipPath id="z35115c10"><use href="#z35115d10"/></clipPath>
  <clipPath id="z35115c11"><use href="#z35115d11"/></clipPath>
  <clipPath id="z35115c12"><use href="#z35115d12"/></clipPath>
  <clipPath id="z35115c13"><use href="#z35115d13"/></clipPath>
  <clipPath id="z35115c14"><use href="#z35115d14"/></clipPath>
  <clipPath id="z35115c15"><use href="#z35115d15"/></clipPath>
</defs>
<path style="--d:1s;" pathLength="3333" clip-path="url(#z35115c1)" d="M 250 795 L 325 745 L 350 707"/>
<path style="--d:2s;" pathLength="3333" clip-path="url(#z35115c2)" d="M 87 543 L 116 533 L 148 532 L 284 574 L 325 569 L 315 537 L 291 495 L 227 402 L 180 346 L 87 257 L 31 219"/>
<path style="--d:3s;" pathLength="3333" clip-path="url(#z35115c3)" d="M 237 378 L 249 329 L 245 218 L 230 78 L 235 25"/>
<path style="--d:4s;" pathLength="3333" clip-path="url(#z35115c4)" d="M 358 486 L 371 476 L 373 465 L 340 415 L 343 410"/>
<path style="--d:5s;" pathLength="3333" clip-path="url(#z35115c5)" d="M 301 406 L 356 364 L 365 342"/>
<path style="--d:6s;" pathLength="3333" clip-path="url(#z35115c6)" d="M 739 756 L 675 767 L 614 728 L 545 694 L 508 681 L 502 686"/>
<path style="--d:7s;" pathLength="3333" clip-path="url(#z35115c7)" d="M 432 696 L 466 661 L 462 511 L 437 333 L 399 206 L 365 133 L 291 25"/>
<path style="--d:8s;" pathLength="3333" clip-path="url(#z35115c8)" d="M 644 693 L 672 669 L 671 577 L 669 566 L 660 560"/>
<path style="--d:9s;" pathLength="3333" clip-path="url(#z35115c9)" d="M 696 617 L 797 644 L 809 642"/>
<path style="--d:10s;" pathLength="3333" clip-path="url(#z35115c10)" d="M 583 505 L 598 522 L 767 560 L 811 563 L 840 544 L 798 477"/>
<path style="--d:11s;" pathLength="3333" clip-path="url(#z35115c11)" d="M 529 541 L 552 518 L 556 467 L 548 381 L 528 273 L 483 149 L 429 62 L 411 43"/>
<path style="--d:12s;" pathLength="3333" clip-path="url(#z35115c12)" d="M 575 409 L 626 412 L 738 446 L 782 445"/>
<path style="--d:13s;" pathLength="3333" clip-path="url(#z35115c13)" d="M 647 492 L 667 466 L 667 365 L 680 348 L 701 338 L 756 333 L 790 341 L 814 357 L 821 430"/>
<path style="--d:14s;" pathLength="3333" clip-path="url(#z35115c14)" d="M 593 271 L 615 242 L 600 134 L 555 62 L 497 19"/>
<path style="--d:15s;" pathLength="3333" clip-path="url(#z35115c15)" d="M 649 245 L 656 255 L 728 272 L 749 255 L 730 181 L 732 85 L 738 64 L 751 51 L 806 29 L 845 25 L 895 30 L 938 52 L 944 186"/>
</svg>