<svg id="z35827" class="acjk" viewBox="0 0 1024 1024" xmlns="http://www.w3.org/2000/svg">
<style>
<![CDATA[
@keyframes zk {
	to {
		stroke-dashoffset:0;
	}
}
svg.acjk path[clip-path] {
	--t:0.8s;
	animation:zk var(--t) linear forwards var(--d);
	stroke-dasharray:3337;
	stroke-dashoffset:3339;
	stroke-width:128;
	stroke-linecap:round;
	stroke-linejoin:round;
	fill:none;
	stroke:#000;
}
svg.acjk path[id] {fill:#ccc;}
]]>
</style>
  <path id="z35827d1" d="M 224 680 Q 252 652 283 618 Q 296 605 312 604 Q 322 604 329 617 Q 335 632 328 662 Q 324 684 291 702 Q 218 735 200 731 Q 194 727 195 714 Q 198 704 224 680 Z"/>
  <path id="z35827d2" d="M 139 440 Q 91 422 64 419 Q 51 419 48 411 Q 44 402 56 396 Q 78 383 94 381 Q 115 380 208 433 Q 230 446 240 439 Q 249 435 245 410 Q 238 226 208 127 Q 190 99 232 47 Q 242 34 252 41 Q 259 48 271 71 Q 307 116 380 192 Q 393 202 390 210 Q 389 219 378 209 Q 344 190 311 167 Q 265 130 273 187 Q 273 248 297 402 Q 301 426 322 449 Q 334 459 325 471 Q 313 487 276 503 Q 264 509 248 498 Q 179 455 139 440 Z"/>
  <path id="z35827d3" d="M 527 585 Q 542 607 555 627 Q 583 676 612 717 Q 622 730 607 745 Q 567 779 538 776 Q 526 773 529 759 Q 535 701 497 626 L 473 586 Q 448 546 415 513 Q 384 483 369 464 Q 360 449 376 454 Q 419 460 497 548 L 527 585 Z"/>
  <path id="z35827d4" d="M 572 192 Q 596 462 527 585 L 497 626 Q 454 669 381 694 Q 368 700 366 689 Q 365 676 373 659 Q 383 643 400 642 Q 439 630 473 586 L 497 548 Q 501 544 517 482 L 528 407 Q 543 242 497 117 Q 490 101 480 98 Q 462 97 421 117 Q 394 129 390 124 Q 386 118 394 107 Q 434 68 460 34 Q 476 6 487 6 Q 497 5 515 25 Q 554 70 569 176 L 572 192 Z"/>
  <path id="z35827d5" d="M 517 482 Q 471 388 348 257 Q 341 248 353 246 Q 368 243 451 315 Q 490 351 528 407 C 545 432 530 509 517 482 Z"/>
  <path id="z35827d6" d="M 752 560 Q 899 602 900 603 Q 909 612 904 620 Q 897 632 866 638 Q 835 642 805 628 Q 768 615 728 602 Q 685 590 632 583 Q 595 574 622 559 Q 656 541 710 549 L 752 560 Z"/>
  <path id="z35827d7" d="M 772 373 Q 821 382 863 386 Q 891 390 881 406 Q 868 425 837 430 Q 812 434 773 423 L 726 410 Q 677 397 633 385 Q 612 381 637 362 Q 649 355 726 366 L 772 373 Z"/>
  <path id="z35827d8" d="M 769 220 Q 770 302 772 373 L 773 423 Q 774 456 775 485 Q 778 536 766 549 Q 759 555 752 560 C 728 578 698 576 710 549 Q 722 533 726 427 Q 725 420 726 410 L 726 366 Q 726 305 727 213 C 727 183 769 190 769 220 Z"/>
  <path id="z35827d9" d="M 727 213 Q 657 204 575 193 Q 572 193 572 192 C 554 189 554 189 569 176 Q 582 163 600 157 Q 619 153 635 156 Q 734 183 960 183 Q 979 183 983 191 Q 987 201 973 215 Q 918 255 862 237 Q 823 231 769 220 L 727 213 Z"/>
<defs>
  <clipPath id="z35827c1"><use href="#z35827d1"/></clipPath>
  <clipPath id="z35827c2"><use href="#z35827d2"/></clipPath>
  <clipPath id="z35827c3"><use href="#z35827d3"/></clipPath>
  <clipPath id="z35827c4"><use href="#z35827d4"/></clipPath>
  <clipPath id="z35827c5"><use href="#z35827d5"/></clipPath>
  <clipPath id="z35827c6"><use href="#z35827d6"/></clipPath>
  <clipPath id="z35827c7"><use href="#z35827d7"/></clipPath>
  <clipPath id="z35827c8"><use href="#z35827d8"/></clipPath>
  <clipPath id="z35827c9"><use href="#z35827d9"/></clipPath>
</defs>
<path style="--d:1s;" pathLength="3333" clip-path="url(#z35827c1)" d="M 204 724 L 289 663 L 310 623"/>
<path style="--d:2s;" pathLength="3333" clip-path="url(#z35827c2)" d="M 58 407 L 107 406 L 168 430 L 217 459 L 268 465 L 277 451 L 249 206 L 245 149 L 252 120 L 289 129 L 384 206"/>
<path style="--d:3s;" pathLength="3333" clip-path="url(#z35827c3)" d="M 540 764 L 566 732 L 567 721 L 536 647 L 476 552 L 413 488 L 378 463"/>
<path style="--d:4s;" pathLength="3333" clip-path="url(#z35827c4)" d="M 376 683 L 393 667 L 437 648 L 468 624 L 516 560 L 546 452 L 556 340 L 546 193 L 530 122 L 514 84 L 491 59 L 433 91 L 395 120"/>
<path style="--d:5s;" pathLength="3333" clip-path="url(#z35827c5)" d="M 512 464 L 504 412 L 487 387 L 430 319 L 355 253"/>
<path style="--d:6s;" pathLength="3333" clip-path="url(#z35827c6)" d="M 624 572 L 657 567 L 699 570 L 834 611 L 870 617 L 896 612"/>
<path style="--d:7s;" pathLength="3333" clip-path="url(#z35827c7)" d="M 635 373 L 690 379 L 800 404 L 850 406 L 869 399"/>
<path style="--d:8s;" pathLength="3333" clip-path="url(#z35827c8)" d="M 717 549 L 745 529 L 749 495 L 749 245 L 733 222"/>
<path style="--d:9s;" pathLength="3333" clip-path="url(#z35827c9)" d="M 575 187 L 592 178 L 627 177 L 897 213 L 973 196"/>
</svg>