<svg id="z34045" class="acjk" viewBox="0 0 1024 1024" xmlns="http://www.w3.org/2000/svg">
<style>
<![CDATA[
@keyframes zk {
	to {
		stroke-dashoffset:0;
	}
}
svg.acjk path[clip-path] {
	--t:0.8s;
	animation:zk var(--t) linear forwards var(--d);
	stroke-dasharray:3337;
	stroke-dashoffset:3339;
	stroke-width:128;
	stroke-linecap:round;
	stroke-linejoin:round;
	fill:none;
	stroke:#000;
}
svg.acjk path[id] {fill:#ccc;}
]]>
</style>
  <path id="z34045d1" d="M 427 760 Q 426 779 424 795 Q 425 811 407 816 Q 374 832 352 824 Q 336 817 351 799 Q 370 778 382 753 L 392 723 Q 410 669 420 658 Q 432 649 435 660 Q 436 666 431 732 L 427 760 Z"/>
  <path id="z34045d2" d="M 431 732 Q 450 738 475 743 Q 488 744 504 752 Q 510 756 508 763 Q 507 767 495 771 Q 464 767 427 760 L 382 753 Q 318 744 244 732 Q 199 733 176 731 Q 166 732 165 728 Q 164 721 169 713 Q 181 700 205 690 Q 221 681 235 686 Q 311 704 392 723 L 431 732 Z"/>
  <path id="z34045d3" d="M 642 779 Q 649 795 662 816 Q 675 829 666 838 Q 656 853 626 867 Q 613 876 597 868 Q 588 864 595 853 Q 604 834 592 772 L 587 751 Q 565 676 566 660 Q 566 659 567 656 C 569 641 569 641 582 658 Q 595 673 627 742 L 642 779 Z"/>
  <path id="z34045d4" d="M 627 742 Q 639 743 652 745 Q 739 760 827 754 Q 839 753 843 760 Q 847 769 837 780 Q 800 814 717 792 Q 683 788 642 779 L 592 772 Q 588 773 583 772 Q 561 771 576 758 Q 582 755 587 751 C 603 740 603 740 627 742 Z"/>
  <path id="z34045d5" d="M 355 620 Q 343 624 317 628 Q 305 631 303 625 Q 297 619 306 604 Q 334 552 352 465 Q 356 440 372 422 Q 390 403 394 417 L 396 425 L 396 447 Q 395 460 393 474 Q 375 562 371 590 Q 370 591 372 591 C 373 615 373 615 355 620 Z"/>
  <path id="z34045d6" d="M 567 656 Q 501 649 446 636 Q 394 626 355 620 C 325 615 343 582 372 591 Q 406 603 463 612 L 515 621 Q 647 642 664 633 Q 673 627 667 601 Q 646 502 633 480 C 625 461 625 461 631 452 L 632 451 Q 636 436 647 437 Q 660 438 667 451 Q 679 464 701 529 Q 717 575 751 600 Q 767 613 754 628 Q 738 644 695 669 Q 683 678 606 662 Q 603 662 582 658 L 567 656 Z"/>
  <path id="z34045d7" d="M 537 526 Q 571 533 604 536 Q 623 539 617 550 Q 608 562 587 566 Q 569 569 542 562 L 489 548 Q 449 539 414 530 Q 401 527 417 515 Q 426 508 445 511 Q 467 515 491 518 L 537 526 Z"/>
  <path id="z34045d8" d="M 396 425 Q 406 424 423 425 Q 457 431 491 434 L 534 440 Q 585 447 631 452 C 661 455 662 471 633 480 Q 615 489 534 471 L 491 463 Q 442 456 396 447 C 367 441 366 427 396 425 Z"/>
  <path id="z34045d9" d="M 490 358 Q 429 352 367 343 L 322 338 Q 234 331 141 318 Q 119 317 135 299 Q 148 286 167 279 Q 188 275 204 278 Q 265 294 333 307 L 372 313 Q 448 328 489 329 L 534 334 Q 592 341 663 343 L 713 345 Q 774 348 847 348 Q 928 345 935 356 Q 941 368 924 382 Q 866 425 793 405 Q 768 402 741 395 L 675 385 Q 609 376 534 364 L 490 358 Z"/>
  <path id="z34045d10" d="M 367 343 Q 364 362 363 377 Q 364 393 346 397 Q 313 412 294 404 Q 279 397 293 380 Q 311 361 322 338 L 333 307 Q 351 241 364 230 C 379 213 379 213 379 232 Q 380 244 372 313 L 367 343 Z"/>
  <path id="z34045d11" d="M 677 273 Q 695 310 713 345 L 741 395 Q 744 399 747 401 Q 751 408 741 425 Q 722 447 704 457 Q 694 464 685 460 Q 678 456 680 443 Q 686 428 675 385 L 663 343 Q 653 309 640 271 C 630 243 664 246 677 273 Z"/>
  <path id="z34045d12" d="M 364 230 Q 342 230 317 227 Q 290 226 310 207 Q 331 189 375 188 Q 426 198 488 205 L 535 212 Q 554 215 705 229 Q 715 228 724 239 Q 725 249 704 261 Q 689 273 677 273 L 640 271 Q 588 262 536 251 Q 535 251 535 250 L 488 243 Q 445 239 407 234 Q 394 234 379 232 L 364 230 Z"/>
  <path id="z34045d13" d="M 487 137 Q 366 124 228 105 Q 209 104 223 87 Q 236 74 254 68 Q 273 64 289 67 Q 380 92 484 103 Q 485 104 487 103 L 539 109 Q 609 116 823 117 Q 842 117 847 126 Q 851 136 836 150 Q 787 189 750 180 Q 669 164 538 144 L 487 137 Z"/>
  <path id="z34045d14" d="M 491 434 Q 490 398 490 358 L 489 329 Q 489 289 488 243 L 488 205 Q 488 172 487 137 L 487 103 Q 484 -57 503 -81 Q 507 -88 515 -85 Q 522 -82 526 -68 Q 541 -32 539 109 L 538 144 Q 538 168 535 212 L 535 250 Q 534 287 534 334 L 534 364 Q 534 400 534 440 L 534 471 Q 534 481 535 492 Q 535 511 537 526 L 542 562 Q 543 574 546 584 Q 549 600 536 608 Q 524 615 515 621 C 490 637 451 639 463 612 Q 463 611 465 609 Q 487 557 489 548 L 491 518 Q 491 493 491 463 L 491 434 Z"/>
<defs>
  <clipPath id="z34045c1"><use href="#z34045d1"/></clipPath>
  <clipPath id="z34045c2"><use href="#z34045d2"/></clipPath>
  <clipPath id="z34045c3"><use href="#z34045d3"/></clipPath>
  <clipPath id="z34045c4"><use href="#z34045d4"/></clipPath>
  <clipPath id="z34045c5"><use href="#z34045d5"/></clipPath>
  <clipPath id="z34045c6"><use href="#z34045d6"/></clipPath>
  <clipPath id="z34045c7"><use href="#z34045d7"/></clipPath>
  <clipPath id="z34045c8"><use href="#z34045d8"/></clipPath>
  <clipPath id="z34045c9"><use href="#z34045d9"/></clipPath>
  <clipPath id="z34045c10"><use href="#z34045d10"/></clipPath>
  <clipPath id="z34045c11"><use href="#z34045d11"/></clipPath>
  <clipPath id="z34045c12"><use href="#z34045d12"/></clipPath>
  <clipPath id="z34045c13"><use href="#z34045d13"/></clipPath>
  <clipPath id="z34045c14"><use href="#z34045d14"/></clipPath>
</defs>
<path style="--d:1s;" pathLength="3333" clip-path="url(#z34045c1)" d="M 357 811 L 379 803 L 396 786 L 427 663"/>
<path style="--d:2s;" pathLength="3333" clip-path="url(#z34045c2)" d="M 173 722 L 225 708 L 251 711 L 498 761"/>
<path style="--d:3s;" pathLength="3333" clip-path="url(#z34045c3)" d="M 607 859 L 631 825 L 574 660"/>
<path style="--d:4s;" pathLength="3333" clip-path="url(#z34045c4)" d="M 586 762 L 631 759 L 766 779 L 813 774 L 834 765"/>
<path style="--d:5s;" pathLength="3333" clip-path="url(#z34045c5)" d="M 312 618 L 338 598 L 346 582 L 384 423"/>
<path style="--d:6s;" pathLength="3333" clip-path="url(#z34045c6)" d="M 362 618 L 379 609 L 620 652 L 660 654 L 683 648 L 708 613 L 650 459 L 639 459"/>
<path style="--d:7s;" pathLength="3333" clip-path="url(#z34045c7)" d="M 423 524 L 436 522 L 568 549 L 608 546"/>
<path style="--d:8s;" pathLength="3333" clip-path="url(#z34045c8)" d="M 402 431 L 408 437 L 616 467 L 627 473"/>
<path style="--d:9s;" pathLength="3333" clip-path="url(#z34045c9)" d="M 138 309 L 187 300 L 468 343 L 833 380 L 893 373 L 927 362"/>
<path style="--d:10s;" pathLength="3333" clip-path="url(#z34045c10)" d="M 299 392 L 336 369 L 371 235"/>
<path style="--d:11s;" pathLength="3333" clip-path="url(#z34045c11)" d="M 691 451 L 709 420 L 711 404 L 669 300 L 658 283 L 646 277"/>
<path style="--d:12s;" pathLength="3333" clip-path="url(#z34045c12)" d="M 312 218 L 368 209 L 647 248 L 678 250 L 714 241"/>
<path style="--d:13s;" pathLength="3333" clip-path="url(#z34045c13)" d="M 226 96 L 281 89 L 467 119 L 761 149 L 799 144 L 836 131"/>
<path style="--d:14s;" pathLength="3333" clip-path="url(#z34045c14)" d="M 475 602 L 508 588 L 515 547 L 512 -75"/>
</svg>