<svg id="z31901" class="acjk" viewBox="0 0 1024 1024" xmlns="http://www.w3.org/2000/svg">
<style>
<![CDATA[
@keyframes zk {
	to {
		stroke-dashoffset:0;
	}
}
svg.acjk path[clip-path] {
	--t:0.8s;
	animation:zk var(--t) linear forwards var(--d);
	stroke-dasharray:3337;
	stroke-dashoffset:3339;
	stroke-width:128;
	stroke-linecap:round;
	stroke-linejoin:round;
	fill:none;
	stroke:#000;
}
svg.acjk path[id] {fill:#ccc;}
]]>
</style>
  <path id="z31901d1" d="M 173 594 Q 195 572 218 543 Q 230 530 245 529 Q 255 529 261 541 Q 267 554 261 584 Q 255 611 173 640 Q 158 644 152 643 Q 148 639 147 627 Q 150 617 173 594 Z"/>
  <path id="z31901d2" d="M 414 644 Q 404 616 378 571 Q 374 564 379 559 Q 386 559 392 564 Q 450 616 478 637 Q 493 643 488 652 Q 481 665 462 677 Q 443 690 424 689 Q 412 686 415 670 Q 419 660 414 644 Z"/>
  <path id="z31901d3" d="M 346 457 Q 380 466 422 472 Q 438 475 438 482 Q 439 494 422 502 Q 392 514 347 499 L 300 487 Q 174 457 91 445 Q 79 444 77 436 Q 74 426 89 415 Q 128 391 180 410 Q 228 428 269 438 L 346 457 Z"/>
  <path id="z31901d4" d="M 344 401 Q 344 429 346 457 L 347 499 Q 353 686 370 743 Q 379 759 376 772 Q 369 782 314 817 Q 290 835 269 819 Q 265 815 270 798 Q 300 752 302 667 Q 302 537 300 487 L 297 392 Q 294 236 279 166 Q 258 97 277 42 Q 278 36 283 27 Q 290 8 298 5 Q 304 -2 312 7 Q 339 23 340 89 Q 339 125 344 368 L 344 401 Z"/>
  <path id="z31901d5" d="M 269 438 Q 211 321 52 149 Q 45 140 56 138 Q 77 135 188 244 Q 243 299 296 390 Q 296 391 297 392 C 334 457 288 476 269 438 Z"/>
  <path id="z31901d6" d="M 344 368 Q 353 359 385 320 Q 394 310 405 308 Q 412 308 417 317 Q 421 327 419 349 Q 416 370 348 400 Q 347 401 344 401 C 315 407 323 390 344 368 Z"/>
  <path id="z31901d7" d="M 579 637 Q 621 631 671 640 Q 872 685 882 690 Q 882 691 883 691 Q 892 700 887 708 Q 880 720 850 727 Q 826 731 704 694 Q 604 675 569 670 Q 566 670 564 669 C 534 664 549 641 579 637 Z"/>
  <path id="z31901d8" d="M 562 520 Q 562 583 578 634 Q 578 637 579 637 C 584 655 584 655 564 669 Q 524 700 502 692 Q 490 685 497 672 Q 512 653 513 589 Q 512 580 512 569 Q 509 434 472 314 Q 439 221 374 117 Q 370 111 368 105 Q 365 95 375 97 Q 405 103 474 213 Q 484 234 496 256 Q 539 355 560 498 L 562 520 Z"/>
  <path id="z31901d9" d="M 707 498 Q 803 519 909 530 Q 919 529 929 542 Q 930 554 907 564 Q 879 585 797 560 Q 773 556 752 550 Q 685 535 564 521 Q 563 521 562 520 C 533 515 534 513 560 498 Q 590 477 635 484 Q 650 487 670 491 L 707 498 Z"/>
  <path id="z31901d10" d="M 705 381 Q 712 374 774 369 Q 813 366 814 331 Q 813 322 811 305 Q 793 178 753 119 Q 735 100 712 102 Q 702 106 679 117 Q 642 136 638 130 Q 632 121 649 109 Q 691 67 699 31 Q 705 15 716 8 Q 729 2 762 24 Q 811 63 844 195 Q 859 303 889 332 Q 899 338 900 347 Q 901 356 876 380 Q 840 410 789 402 Q 750 405 716 412 C 687 417 677 390 705 381 Z"/>
  <path id="z31901d11" d="M 716 412 Q 725 439 737 466 Q 736 467 736 468 Q 726 483 707 498 C 684 517 665 521 670 491 Q 686 427 604 258 Q 601 255 599 249 Q 571 203 538 166 Q 520 144 502 125 Q 498 121 494 116 Q 490 107 499 107 Q 532 107 604 189 Q 608 195 613 200 Q 668 275 705 381 L 716 412 Z"/>
<defs>
  <clipPath id="z31901c1"><use href="#z31901d1"/></clipPath>
  <clipPath id="z31901c2"><use href="#z31901d2"/></clipPath>
  <clipPath id="z31901c3"><use href="#z31901d3"/></clipPath>
  <clipPath id="z31901c4"><use href="#z31901d4"/></clipPath>
  <clipPath id="z31901c5"><use href="#z31901d5"/></clipPath>
  <clipPath id="z31901c6"><use href="#z31901d6"/></clipPath>
  <clipPath id="z31901c7"><use href="#z31901d7"/></clipPath>
  <clipPath id="z31901c8"><use href="#z31901d8"/></clipPath>
  <clipPath id="z31901c9"><use href="#z31901d9"/></clipPath>
  <clipPath id="z31901c10"><use href="#z31901d10"/></clipPath>
  <clipPath id="z31901c11"><use href="#z31901d11"/></clipPath>
</defs>
<path style="--d:1s;" pathLength="3333" clip-path="url(#z31901c1)" d="M 156 637 L 231 576 L 244 547"/>
<path style="--d:2s;" pathLength="3333" clip-path="url(#z31901c2)" d="M 478 648 L 446 651 L 384 565"/>
<path style="--d:3s;" pathLength="3333" clip-path="url(#z31901c3)" d="M 89 432 L 104 427 L 151 428 L 389 488 L 427 485"/>
<path style="--d:4s;" pathLength="3333" clip-path="url(#z31901c4)" d="M 281 812 L 309 788 L 331 757 L 322 355 L 304 120 L 303 19"/>
<path style="--d:5s;" pathLength="3333" clip-path="url(#z31901c5)" d="M 292 439 L 272 394 L 212 304 L 118 196 L 58 145"/>
<path style="--d:6s;" pathLength="3333" clip-path="url(#z31901c6)" d="M 345 396 L 356 391 L 361 375 L 390 351 L 404 322"/>
<path style="--d:7s;" pathLength="3333" clip-path="url(#z31901c7)" d="M 568 664 L 592 654 L 630 657 L 707 669 L 842 704 L 866 704 L 879 694"/>
<path style="--d:8s;" pathLength="3333" clip-path="url(#z31901c8)" d="M 507 680 L 530 662 L 543 634 L 534 493 L 514 379 L 494 308 L 452 212 L 376 105"/>
<path style="--d:9s;" pathLength="3333" clip-path="url(#z31901c9)" d="M 566 514 L 585 505 L 624 505 L 833 545 L 886 550 L 918 544"/>
<path style="--d:10s;" pathLength="3333" clip-path="url(#z31901c10)" d="M 710 385 L 734 392 L 799 384 L 824 376 L 851 349 L 816 191 L 775 94 L 736 60 L 642 125"/>
<path style="--d:11s;" pathLength="3333" clip-path="url(#z31901c11)" d="M 677 488 L 703 462 L 681 381 L 645 292 L 584 191 L 534 138 L 502 115"/>
</svg>