<svg id="z34609" class="acjk" viewBox="0 0 1024 1024" xmlns="http://www.w3.org/2000/svg">
<style>
<![CDATA[
@keyframes zk {
	to {
		stroke-dashoffset:0;
	}
}
svg.acjk path[clip-path] {
	--t:0.8s;
	animation:zk var(--t) linear forwards var(--d);
	stroke-dasharray:3337;
	stroke-dashoffset:3339;
	stroke-width:128;
	stroke-linecap:round;
	stroke-linejoin:round;
	fill:none;
	stroke:#000;
}
svg.acjk path[id] {fill:#ccc;}
]]>
</style>
  <path id="z34609d1" d="M 104 525 Q 94 529 74 532 Q 64 535 60 530 Q 56 526 63 510 Q 88 458 104 373 Q 107 348 121 330 Q 137 311 142 325 Q 145 335 145 352 L 141 382 Q 125 473 123 499 C 121 519 121 519 104 525 Z"/>
  <path id="z34609d2" d="M 355 411 Q 376 486 405 511 Q 420 527 407 544 Q 331 592 292 569 Q 274 565 258 557 L 208 543 Q 157 533 104 525 C 74 520 93 498 123 499 Q 136 498 154 504 Q 181 510 209 514 L 257 524 Q 273 528 294 532 Q 312 536 319 529 Q 331 517 310 421 C 304 392 347 382 355 411 Z"/>
  <path id="z34609d3" d="M 145 352 Q 148 352 209 362 L 252 369 Q 298 378 361 383 Q 371 384 372 393 Q 372 400 355 411 L 310 421 Q 304 421 300 419 Q 275 412 253 406 L 209 396 Q 172 389 141 382 C 112 375 115 348 145 352 Z"/>
  <path id="z34609d4" d="M 209 362 Q 208 298 206 229 C 205 199 248 213 249 243 Q 250 307 252 369 L 253 406 Q 254 467 257 524 L 258 557 Q 258 603 277 717 Q 281 729 259 744 Q 222 763 197 766 Q 181 770 172 760 Q 165 753 173 737 Q 204 694 204 664 Q 207 606 208 543 L 209 514 Q 210 457 209 396 L 209 362 Z"/>
  <path id="z34609d5" d="M 206 229 Q 76 190 52 189 Q 39 188 38 177 Q 37 164 46 157 Q 68 142 100 126 Q 110 123 121 132 Q 184 181 330 244 Q 330 245 331 245 C 358 258 348 279 320 269 Q 284 257 249 243 L 206 229 Z"/>
  <path id="z34609d6" d="M 331 245 Q 359 182 370 177 Q 377 174 386 181 Q 393 190 397 214 Q 401 236 380 264 Q 326 321 313 322 Q 309 321 305 312 Q 304 303 320 269 L 331 245 Z"/>
  <path id="z34609d7" d="M 546 684 Q 559 696 619 756 Q 634 775 655 789 Q 674 802 661 818 Q 645 831 617 841 Q 592 850 580 845 Q 568 841 574 829 Q 584 802 530 713 Q 520 697 509 676 C 495 649 524 663 546 684 Z"/>
  <path id="z34609d8" d="M 473 670 Q 463 676 433 681 Q 423 684 419 679 Q 412 673 420 658 Q 451 588 467 473 Q 470 439 489 415 Q 505 394 511 409 Q 514 419 515 435 L 514 460 Q 513 472 511 484 Q 492 596 486 635 C 481 665 481 666 473 670 Z"/>
  <path id="z34609d9" d="M 708 460 Q 727 426 744 417 Q 754 408 771 430 Q 789 455 828 601 Q 838 632 862 656 Q 875 668 865 683 Q 850 699 808 728 Q 790 737 718 719 Q 697 719 565 689 Q 555 688 546 684 L 509 676 Q 490 675 473 670 C 444 663 458 624 486 635 Q 492 642 589 662 L 618 668 Q 754 698 769 684 Q 782 666 778 650 Q 741 490 722 481 C 707 461 707 461 708 460 Z"/>
  <path id="z34609d10" d="M 637 551 Q 679 560 716 565 Q 738 569 729 581 Q 719 594 695 598 Q 676 601 644 592 L 595 577 Q 556 567 522 556 Q 506 552 526 539 Q 532 535 591 543 L 637 551 Z"/>
  <path id="z34609d11" d="M 609 447 Q 649 454 708 460 C 738 463 738 463 722 481 Q 718 487 706 494 Q 685 504 621 482 L 577 471 Q 543 465 514 460 C 484 455 485 432 515 435 L 567 440 L 609 447 Z"/>
  <path id="z34609d12" d="M 505 293 Q 506 296 513 300 Q 568 342 609 447 L 621 482 Q 630 516 637 551 L 644 592 Q 653 640 654 643 Q 642 655 618 668 C 592 683 575 689 589 662 Q 590 661 591 658 Q 606 636 595 577 L 591 543 Q 584 497 577 471 L 567 440 Q 557 395 494 304 Q 487 298 487 290 C 479 271 482 273 505 293 Z"/>
  <path id="z34609d13" d="M 695 280 Q 774 290 919 291 Q 940 292 944 300 Q 948 312 932 326 Q 869 368 818 348 Q 767 338 697 323 L 644 314 Q 577 305 505 293 L 487 290 Q 447 286 408 278 Q 387 277 403 259 Q 418 246 435 241 Q 457 235 473 241 Q 549 263 635 273 Q 639 274 645 273 L 695 280 Z"/>
  <path id="z34609d14" d="M 648 -27 Q 652 -49 659 -58 Q 663 -64 671 -62 Q 698 -41 694 103 Q 693 143 695 280 L 697 323 Q 697 339 699 349 Q 706 394 695 401 Q 667 420 653 422 Q 643 426 628 419 Q 621 412 626 402 Q 644 378 644 314 L 645 273 Q 645 -6 648 -27 Z"/>
<defs>
  <clipPath id="z34609c1"><use href="#z34609d1"/></clipPath>
  <clipPath id="z34609c2"><use href="#z34609d2"/></clipPath>
  <clipPath id="z34609c3"><use href="#z34609d3"/></clipPath>
  <clipPath id="z34609c4"><use href="#z34609d4"/></clipPath>
  <clipPath id="z34609c5"><use href="#z34609d5"/></clipPath>
  <clipPath id="z34609c6"><use href="#z34609d6"/></clipPath>
  <clipPath id="z34609c7"><use href="#z34609d7"/></clipPath>
  <clipPath id="z34609c8"><use href="#z34609d8"/></clipPath>
  <clipPath id="z34609c9"><use href="#z34609d9"/></clipPath>
  <clipPath id="z34609c10"><use href="#z34609d10"/></clipPath>
  <clipPath id="z34609c11"><use href="#z34609d11"/></clipPath>
  <clipPath id="z34609c12"><use href="#z34609d12"/></clipPath>
  <clipPath id="z34609c13"><use href="#z34609d13"/></clipPath>
  <clipPath id="z34609c14"><use href="#z34609d14"/></clipPath>
</defs>
<path style="--d:1s;" pathLength="3333" clip-path="url(#z34609c1)" d="M 68 525 L 90 506 L 100 484 L 132 330"/>
<path style="--d:2s;" pathLength="3333" clip-path="url(#z34609c2)" d="M 112 524 L 131 514 L 312 555 L 330 552 L 352 537 L 362 521 L 337 438 L 320 432"/>
<path style="--d:3s;" pathLength="3333" clip-path="url(#z34609c3)" d="M 146 360 L 163 371 L 309 399 L 362 393"/>
<path style="--d:4s;" pathLength="3333" clip-path="url(#z34609c4)" d="M 185 750 L 235 711 L 237 674 L 228 258 L 211 236"/>
<path style="--d:5s;" pathLength="3333" clip-path="url(#z34609c5)" d="M 51 176 L 62 169 L 104 164 L 303 249 L 325 250"/>
<path style="--d:6s;" pathLength="3333" clip-path="url(#z34609c6)" d="M 313 314 L 367 233 L 374 187"/>
<path style="--d:7s;" pathLength="3333" clip-path="url(#z34609c7)" d="M 582 835 L 612 803 L 543 703 L 514 682"/>
<path style="--d:8s;" pathLength="3333" clip-path="url(#z34609c8)" d="M 427 671 L 452 649 L 461 627 L 501 415"/>
<path style="--d:9s;" pathLength="3333" clip-path="url(#z34609c9)" d="M 485 641 L 504 660 L 664 695 L 755 708 L 795 700 L 819 669 L 774 517 L 748 459 L 722 458"/>
<path style="--d:10s;" pathLength="3333" clip-path="url(#z34609c10)" d="M 523 547 L 680 579 L 720 575"/>
<path style="--d:11s;" pathLength="3333" clip-path="url(#z34609c11)" d="M 521 441 L 539 452 L 655 474 L 714 479"/>
<path style="--d:12s;" pathLength="3333" clip-path="url(#z34609c12)" d="M 596 663 L 625 633 L 604 494 L 583 426 L 560 379 L 499 298"/>
<path style="--d:13s;" pathLength="3333" clip-path="url(#z34609c13)" d="M 405 269 L 446 261 L 842 322 L 884 320 L 933 305"/>
<path style="--d:14s;" pathLength="3333" clip-path="url(#z34609c14)" d="M 637 409 L 669 381 L 671 362 L 667 -54"/>
</svg>