<svg id="z39252" class="acjk" viewBox="0 0 1024 1024" xmlns="http://www.w3.org/2000/svg">
<style>
<![CDATA[
@keyframes zk {
	to {
		stroke-dashoffset:0;
	}
}
svg.acjk path[clip-path] {
	--t:0.8s;
	animation:zk var(--t) linear forwards var(--d);
	stroke-dasharray:3337;
	stroke-dashoffset:3339;
	stroke-width:128;
	stroke-linecap:round;
	stroke-linejoin:round;
	fill:none;
	stroke:#000;
}
svg.acjk path[id] {fill:#ccc;}
]]>
</style>
  <path id="z39252d1" d="M 563 790 Q 569 803 556 832 Q 549 847 521 854 Q 455 864 447 859 Q 444 855 447 845 Q 489 817 533 786 C 556 769 556 769 563 790 Z"/>
  <path id="z39252d2" d="M 329 728 Q 458 759 741 760 Q 793 760 798 766 Q 802 776 789 788 Q 741 824 687 811 Q 633 802 563 790 L 533 786 Q 514 785 492 781 Q 369 766 223 751 Q 205 750 218 734 Q 242 710 280 717 Q 287 721 300 721 L 329 728 Z"/>
  <path id="z39252d3" d="M 355 604 Q 316 604 286 604 Q 268 605 278 615 Q 353 691 354 692 Q 353 702 329 728 C 309 750 301 751 300 721 Q 303 697 258 638 Q 248 625 230 613 Q 215 604 216 595 Q 217 582 227 567 Q 234 558 244 562 Q 263 572 327 584 Q 331 585 338 584 C 368 583 385 604 355 604 Z"/>
  <path id="z39252d4" d="M 393 518 Q 356 515 311 506 Q 295 502 306 515 Q 397 611 449 647 Q 459 653 455 661 Q 449 676 427 692 Q 417 701 409 699 Q 402 698 402 687 Q 399 657 355 604 L 338 584 Q 266 509 248 502 Q 238 496 239 486 Q 239 476 256 460 Q 263 451 274 459 Q 331 489 385 501 C 414 508 423 521 393 518 Z"/>
  <path id="z39252d5" d="M 385 501 Q 349 440 263 378 Q 260 377 257 373 Q 251 369 255 365 Q 277 361 336 395 Q 391 428 438 510 Q 445 523 456 536 Q 462 542 459 550 Q 455 557 435 572 Q 420 582 413 581 Q 403 580 403 569 Q 403 544 393 518 L 385 501 Z"/>
  <path id="z39252d6" d="M 537 641 Q 582 702 584 704 Q 584 705 584 706 Q 583 713 566 728 Q 550 740 539 740 Q 529 740 532 727 Q 539 709 503 648 Q 485 620 461 590 Q 454 584 453 581 Q 450 574 459 575 Q 474 578 520 623 L 537 641 Z"/>
  <path id="z39252d7" d="M 559 477 Q 560 489 561 500 Q 562 573 566 589 Q 570 605 564 612 Q 554 625 545 634 Q 541 638 537 641 C 514 660 512 652 520 623 Q 535 574 517 501 Q 511 476 532 442 L 534 440 Q 544 430 552 446 Q 553 453 556 460 L 559 477 Z"/>
  <path id="z39252d8" d="M 619 733 Q 656 696 671 697 Q 681 697 683 710 Q 683 719 675 732 Q 668 741 653 744 Q 631 751 620 752 Q 613 752 614 744 Q 613 738 619 733 Z"/>
  <path id="z39252d9" d="M 683 661 Q 777 682 783 686 Q 789 690 786 697 Q 782 704 762 709 Q 758 709 667 687 Q 634 680 596 676 Q 574 672 590 661 Q 621 649 652 654 L 683 661 Z"/>
  <path id="z39252d10" d="M 699 598 Q 732 604 762 607 Q 778 608 772 619 Q 765 629 747 633 Q 731 636 701 629 L 658 618 Q 625 611 597 604 Q 585 603 600 591 Q 603 588 659 592 L 699 598 Z"/>
  <path id="z39252d11" d="M 694 531 Q 731 537 765 539 Q 781 540 776 551 Q 769 561 751 566 Q 720 572 696 560 L 659 552 Q 626 546 598 540 Q 585 539 600 527 Q 603 524 660 527 L 694 531 Z"/>
  <path id="z39252d12" d="M 692 490 Q 693 512 694 531 L 696 560 Q 697 579 699 598 L 701 629 Q 705 641 700 647 Q 691 654 683 661 C 660 681 638 680 652 654 Q 658 648 658 618 L 659 592 Q 659 576 659 552 L 660 527 Q 660 509 660 485 C 660 455 691 460 692 490 Z"/>
  <path id="z39252d13" d="M 660 485 Q 638 484 617 481 Q 590 480 560 478 Q 559 478 559 477 C 534 472 534 472 556 460 Q 583 444 598 444 Q 712 463 813 468 Q 820 467 828 476 Q 829 485 813 494 Q 788 512 703 492 Q 700 492 698 491 Q 694 491 692 490 L 660 485 Z"/>
  <path id="z39252d14" d="M 349 290 Q 392 324 430 359 Q 473 402 498 423 L 513 438 Q 517 444 516 448 Q 515 461 493 470 Q 469 482 458 480 Q 451 480 447 468 Q 407 353 97 174 Q 78 164 102 164 Q 177 164 294 251 Q 312 264 330 276 L 349 290 Z"/>
  <path id="z39252d15" d="M 498 423 Q 558 363 755 231 Q 777 219 808 221 Q 872 228 937 252 Q 953 256 955 261 Q 956 268 941 271 Q 889 283 829 293 Q 708 317 546 418 Q 525 431 513 438 C 487 453 476 444 498 423 Z"/>
  <path id="z39252d16" d="M 469 362 Q 508 314 524 314 Q 531 313 536 325 Q 537 334 531 347 Q 524 357 508 364 Q 483 377 472 379 Q 466 380 465 372 Q 464 368 469 362 Z"/>
  <path id="z39252d17" d="M 554 137 Q 564 124 573 119 Q 580 112 593 129 Q 603 142 625 217 Q 632 241 650 260 Q 660 270 651 280 Q 639 293 607 314 Q 588 321 383 270 C 354 263 370 239 399 247 Q 454 263 548 281 Q 570 285 579 278 Q 586 269 584 260 Q 571 187 564 176 Q 561 167 548 164 C 536 158 536 158 554 137 Z"/>
  <path id="z39252d18" d="M 395 181 Q 399 181 404 182 Q 470 197 519 206 Q 535 210 529 219 Q 520 229 502 231 Q 480 234 395 202 C 367 191 365 179 395 181 Z"/>
  <path id="z39252d19" d="M 394 111 Q 398 111 407 112 Q 489 128 554 137 C 584 141 578 159 548 164 L 547 165 Q 526 166 394 131 C 365 123 364 110 394 111 Z"/>
  <path id="z39252d20" d="M 383 270 Q 361 289 349 290 C 321 300 312 300 330 276 Q 369 237 353 77 Q 350 38 318 -1 Q 308 -13 314 -31 Q 321 -53 332 -62 Q 342 -69 352 -55 Q 365 -34 484 51 Q 500 60 504 67 Q 507 74 499 76 Q 487 76 404 38 Q 391 32 391 45 Q 392 79 394 111 L 394 131 Q 395 158 395 181 L 395 202 Q 395 244 399 247 C 401 256 401 256 383 270 Z"/>
  <path id="z39252d21" d="M 603 75 Q 684 135 724 157 Q 740 161 736 171 Q 732 184 714 201 Q 698 217 677 220 Q 664 219 664 202 Q 667 184 622 125 Q 607 107 585 82 C 565 59 579 57 603 75 Z"/>
  <path id="z39252d22" d="M 585 82 Q 531 104 498 114 Q 491 115 491 106 Q 492 96 502 90 Q 601 35 722 -49 Q 738 -62 750 -63 Q 756 -62 760 -54 Q 767 -42 751 -11 Q 736 23 609 74 Q 605 75 603 75 L 585 82 Z"/>
<defs>
  <clipPath id="z39252c1"><use href="#z39252d1"/></clipPath>
  <clipPath id="z39252c2"><use href="#z39252d2"/></clipPath>
  <clipPath id="z39252c3"><use href="#z39252d3"/></clipPath>
  <clipPath id="z39252c4"><use href="#z39252d4"/></clipPath>
  <clipPath id="z39252c5"><use href="#z39252d5"/></clipPath>
  <clipPath id="z39252c6"><use href="#z39252d6"/></clipPath>
  <clipPath id="z39252c7"><use href="#z39252d7"/></clipPath>
  <clipPath id="z39252c8"><use href="#z39252d8"/></clipPath>
  <clipPath id="z39252c9"><use href="#z39252d9"/></clipPath>
  <clipPath id="z39252c10"><use href="#z39252d10"/></clipPath>
  <clipPath id="z39252c11"><use href="#z39252d11"/></clipPath>
  <clipPath id="z39252c12"><use href="#z39252d12"/></clipPath>
  <clipPath id="z39252c13"><use href="#z39252d13"/></clipPath>
  <clipPath id="z39252c14"><use href="#z39252d14"/></clipPath>
  <clipPath id="z39252c15"><use href="#z39252d15"/></clipPath>
  <clipPath id="z39252c16"><use href="#z39252d16"/></clipPath>
  <clipPath id="z39252c17"><use href="#z39252d17"/></clipPath>
  <clipPath id="z39252c18"><use href="#z39252d18"/></clipPath>
  <clipPath id="z39252c19"><use href="#z39252d19"/></clipPath>
  <clipPath id="z39252c20"><use href="#z39252d20"/></clipPath>
  <clipPath id="z39252c21"><use href="#z39252d21"/></clipPath>
  <clipPath id="z39252c22"><use href="#z39252d22"/></clipPath>
</defs>
<path style="--d:1s;" pathLength="3333" clip-path="url(#z39252c1)" d="M 452 852 L 521 827 L 554 797"/>
<path style="--d:2s;" pathLength="3333" clip-path="url(#z39252c2)" d="M 221 742 L 260 735 L 412 758 L 699 787 L 746 785 L 792 771"/>
<path style="--d:3s;" pathLength="3333" clip-path="url(#z39252c3)" d="M 349 695 L 322 696 L 265 624 L 256 597 L 278 589 L 336 594 L 347 602"/>
<path style="--d:4s;" pathLength="3333" clip-path="url(#z39252c4)" d="M 412 689 L 421 658 L 356 583 L 336 568 L 332 557 L 294 523 L 286 495 L 303 490 L 381 508 L 387 516"/>
<path style="--d:5s;" pathLength="3333" clip-path="url(#z39252c5)" d="M 415 569 L 428 543 L 380 458 L 320 402 L 259 368"/>
<path style="--d:6s;" pathLength="3333" clip-path="url(#z39252c6)" d="M 543 730 L 556 706 L 533 661 L 490 606 L 460 582"/>
<path style="--d:7s;" pathLength="3333" clip-path="url(#z39252c7)" d="M 537 633 L 547 598 L 538 492 L 542 447"/>
<path style="--d:8s;" pathLength="3333" clip-path="url(#z39252c8)" d="M 623 743 L 671 709"/>
<path style="--d:9s;" pathLength="3333" clip-path="url(#z39252c9)" d="M 592 669 L 629 665 L 682 678 L 693 675 L 705 683 L 716 681 L 759 694 L 778 693"/>
<path style="--d:10s;" pathLength="3333" clip-path="url(#z39252c10)" d="M 604 599 L 646 600 L 728 619 L 762 617"/>
<path style="--d:11s;" pathLength="3333" clip-path="url(#z39252c11)" d="M 604 534 L 647 535 L 728 552 L 768 547"/>
<path style="--d:12s;" pathLength="3333" clip-path="url(#z39252c12)" d="M 660 654 L 680 635 L 677 512 L 674 500 L 664 493"/>
<path style="--d:13s;" pathLength="3333" clip-path="url(#z39252c13)" d="M 566 471 L 571 465 L 603 462 L 758 484 L 820 478"/>
<path style="--d:14s;" pathLength="3333" clip-path="url(#z39252c14)" d="M 500 447 L 471 443 L 398 360 L 275 260 L 187 205 L 107 173"/>
<path style="--d:15s;" pathLength="3333" clip-path="url(#z39252c15)" d="M 505 424 L 533 411 L 660 325 L 767 268 L 824 258 L 949 262"/>
<path style="--d:16s;" pathLength="3333" clip-path="url(#z39252c16)" d="M 474 370 L 507 346 L 523 326"/>
<path style="--d:17s;" pathLength="3333" clip-path="url(#z39252c17)" d="M 397 271 L 404 263 L 413 263 L 448 276 L 544 295 L 570 297 L 601 290 L 616 269 L 594 190 L 576 150 L 556 159"/>
<path style="--d:18s;" pathLength="3333" clip-path="url(#z39252c18)" d="M 399 186 L 432 204 L 507 218 L 521 215"/>
<path style="--d:19s;" pathLength="3333" clip-path="url(#z39252c19)" d="M 400 116 L 407 126 L 536 149 L 544 161"/>
<path style="--d:20s;" pathLength="3333" clip-path="url(#z39252c20)" d="M 337 276 L 356 270 L 374 235 L 371 13 L 408 18 L 498 69"/>
<path style="--d:21s;" pathLength="3333" clip-path="url(#z39252c21)" d="M 725 168 L 692 176 L 606 87 L 592 87"/>
<path style="--d:22s;" pathLength="3333" clip-path="url(#z39252c22)" d="M 501 104 L 667 21 L 720 -14 L 747 -50"/>
</svg>