<svg id="z39591" class="acjk" viewBox="0 0 1024 1024" xmlns="http://www.w3.org/2000/svg">
<style>
<![CDATA[
@keyframes zk {
	to {
		stroke-dashoffset:0;
	}
}
svg.acjk path[clip-path] {
	--t:0.8s;
	animation:zk var(--t) linear forwards var(--d);
	stroke-dasharray:3337;
	stroke-dashoffset:3339;
	stroke-width:128;
	stroke-linecap:round;
	stroke-linejoin:round;
	fill:none;
	stroke:#000;
}
svg.acjk path[id] {fill:#ccc;}
]]>
</style>
  <path id="z39591d1" d="M 360 418 Q 376 461 388 605 Q 398 657 430 691 Q 446 710 429 723 Q 410 736 357 757 Q 336 764 292 745 Q 274 745 211 720 Q 175 708 153 703 Q 137 702 134 695 Q 131 691 149 680 Q 183 665 204 675 Q 237 688 313 706 Q 326 709 332 707 Q 348 700 344 652 Q 331 474 318 438 Q 314 420 321 405 Q 321 404 322 403 C 331 374 351 389 360 418 Z"/>
  <path id="z39591d2" d="M 322 403 Q 313 403 227 375 Q 208 374 208 390 Q 215 525 232 562 Q 239 578 232 590 Q 216 609 191 620 Q 173 627 164 620 Q 157 616 165 603 Q 171 588 166 471 Q 151 372 149 363 Q 143 344 158 329 Q 176 314 199 327 Q 223 351 328 370 Q 355 373 367 362 Q 377 353 368 315 Q 359 252 347 186 Q 338 134 315 102 Q 306 93 253 108 Q 220 117 219 111 Q 218 107 226 98 Q 271 49 286 16 Q 293 -3 311 6 Q 369 33 384 102 Q 403 192 418 290 Q 424 324 440 352 Q 452 367 441 378 Q 425 396 392 415 Q 376 424 360 418 L 322 403 Z"/>
  <path id="z39591d3" d="M 50 203 Q 37 200 36 190 Q 35 177 45 170 Q 69 155 103 140 Q 113 137 125 147 Q 147 171 275 244 Q 293 254 305 267 Q 318 276 317 284 Q 311 290 300 286 Q 90 205 50 203 Z"/>
  <path id="z39591d4" d="M 601 810 Q 619 795 638 777 Q 651 767 664 768 Q 674 769 677 780 Q 681 793 671 819 Q 667 832 643 841 Q 589 856 576 851 Q 572 847 574 836 Q 577 826 601 810 Z"/>
  <path id="z39591d5" d="M 484 723 Q 460 720 478 706 Q 508 685 527 691 Q 708 727 817 738 Q 826 737 833 747 Q 834 756 816 765 Q 783 781 717 761 Q 531 730 484 723 Z"/>
  <path id="z39591d6" d="M 479 637 Q 470 641 448 643 Q 438 644 436 641 Q 432 635 439 623 Q 458 592 473 539 Q 476 523 487 512 Q 502 496 505 509 Q 508 518 506 534 L 502 559 Q 493 605 493 618 C 492 632 492 632 479 637 Z"/>
  <path id="z39591d7" d="M 606 574 Q 616 610 628 620 Q 644 639 627 649 Q 579 673 577 673 Q 571 673 564 669 Q 540 653 479 637 C 450 629 464 611 493 618 Q 521 625 548 631 Q 566 635 570 628 Q 574 627 572 608 Q 569 593 567 575 C 563 545 598 545 606 574 Z"/>
  <path id="z39591d8" d="M 506 534 Q 509 534 514 535 Q 547 542 616 550 Q 623 551 624 557 Q 624 563 606 574 C 594 582 594 582 567 575 Q 528 565 502 559 C 473 552 476 532 506 534 Z"/>
  <path id="z39591d9" d="M 709 557 Q 710 564 710 572 L 706 598 Q 699 643 698 655 C 697 668 697 668 678 675 Q 669 679 657 679 Q 648 680 646 677 Q 642 673 648 661 Q 666 631 679 581 Q 680 574 683 567 C 694 539 706 527 709 557 Z"/>
  <path id="z39591d10" d="M 816 608 Q 831 645 843 655 Q 862 674 844 687 Q 793 714 790 714 Q 784 714 778 710 Q 754 692 678 675 C 649 668 669 646 698 655 Q 716 661 763 670 Q 779 674 784 667 Q 787 664 775 612 C 768 583 804 580 816 608 Z"/>
  <path id="z39591d11" d="M 710 572 Q 717 571 725 573 Q 756 577 826 580 Q 833 581 835 588 Q 835 594 816 608 C 802 618 802 618 775 612 Q 736 603 706 598 C 676 593 680 574 710 572 Z"/>
  <path id="z39591d12" d="M 724 467 Q 737 471 753 472 Q 799 481 806 487 Q 813 493 810 499 Q 806 509 783 515 Q 762 518 735 511 L 682 496 Q 601 481 594 477 L 540 471 Q 515 470 491 467 Q 463 464 483 451 Q 507 435 548 437 L 592 445 Q 635 452 682 460 L 724 467 Z"/>
  <path id="z39591d13" d="M 712 381 Q 749 388 787 391 Q 808 394 800 405 Q 791 418 769 424 Q 750 427 717 419 L 679 411 Q 633 404 591 394 L 553 387 Q 519 381 487 375 Q 472 372 490 358 Q 502 349 556 355 L 591 361 Q 634 370 677 375 L 712 381 Z"/>
  <path id="z39591d14" d="M 594 477 Q 593 487 585 494 Q 567 509 546 516 Q 536 520 528 515 Q 522 511 527 499 Q 534 486 540 471 L 548 437 Q 549 421 553 387 L 556 355 Q 557 334 559 305 C 561 275 593 279 592 309 Q 591 337 591 361 L 591 394 Q 591 436 592 445 L 594 477 Z"/>
  <path id="z39591d15" d="M 703 329 Q 707 356 712 381 L 717 419 Q 720 444 724 467 L 735 511 Q 738 521 740 527 Q 744 534 730 546 Q 720 553 709 557 L 683 567 Q 676 568 672 563 Q 666 559 671 547 Q 686 523 682 496 L 682 460 Q 681 438 679 411 L 677 375 Q 674 350 671 323 C 668 293 698 299 703 329 Z"/>
  <path id="z39591d16" d="M 564 273 Q 654 295 837 300 Q 885 297 891 308 Q 895 318 882 328 Q 834 361 776 345 Q 743 339 703 329 L 671 323 Q 656 322 641 318 Q 617 315 592 309 L 559 305 Q 501 298 438 287 Q 420 284 434 271 Q 446 259 460 256 Q 478 252 491 256 Q 513 263 537 267 L 564 273 Z"/>
  <path id="z39591d17" d="M 599 247 Q 600 251 600 254 Q 597 261 564 273 C 539 282 539 282 537 267 Q 536 266 536 262 Q 532 205 391 82 Q 375 69 397 73 Q 433 76 526 160 L 554 191 Q 554 194 589 232 L 599 247 Z"/>
  <path id="z39591d18" d="M 526 160 Q 550 88 513 22 Q 491 -21 532 -55 Q 542 -62 552 -45 Q 577 -11 667 79 Q 682 92 682 99 Q 683 111 666 100 Q 579 49 572 50 Q 566 53 566 68 Q 572 135 576 151 Q 580 167 569 178 Q 562 185 554 191 C 531 210 517 189 526 160 Z"/>
  <path id="z39591d19" d="M 713 158 Q 785 198 820 214 Q 836 217 833 227 Q 829 240 814 258 Q 799 274 781 278 Q 768 279 767 262 Q 768 250 760 237 Q 738 212 699 170 C 679 148 687 143 713 158 Z"/>
  <path id="z39591d20" d="M 699 170 Q 671 197 638 229 Q 622 245 599 247 C 570 253 564 248 589 232 Q 616 219 692 126 Q 795 -1 855 1 Q 946 22 967 30 Q 973 36 963 43 Q 950 49 851 79 Q 793 95 713 158 L 699 170 Z"/>
<defs>
  <clipPath id="z39591c1"><use href="#z39591d1"/></clipPath>
  <clipPath id="z39591c2"><use href="#z39591d2"/></clipPath>
  <clipPath id="z39591c3"><use href="#z39591d3"/></clipPath>
  <clipPath id="z39591c4"><use href="#z39591d4"/></clipPath>
  <clipPath id="z39591c5"><use href="#z39591d5"/></clipPath>
  <clipPath id="z39591c6"><use href="#z39591d6"/></clipPath>
  <clipPath id="z39591c7"><use href="#z39591d7"/></clipPath>
  <clipPath id="z39591c8"><use href="#z39591d8"/></clipPath>
  <clipPath id="z39591c9"><use href="#z39591d9"/></clipPath>
  <clipPath id="z39591c10"><use href="#z39591d10"/></clipPath>
  <clipPath id="z39591c11"><use href="#z39591d11"/></clipPath>
  <clipPath id="z39591c12"><use href="#z39591d12"/></clipPath>
  <clipPath id="z39591c13"><use href="#z39591d13"/></clipPath>
  <clipPath id="z39591c14"><use href="#z39591d14"/></clipPath>
  <clipPath id="z39591c15"><use href="#z39591d15"/></clipPath>
  <clipPath id="z39591c16"><use href="#z39591d16"/></clipPath>
  <clipPath id="z39591c17"><use href="#z39591d17"/></clipPath>
  <clipPath id="z39591c18"><use href="#z39591d18"/></clipPath>
  <clipPath id="z39591c19"><use href="#z39591d19"/></clipPath>
  <clipPath id="z39591c20"><use href="#z39591d20"/></clipPath>
</defs>
<path style="--d:1s;" pathLength="3333" clip-path="url(#z39591c1)" d="M 140 694 L 186 691 L 335 733 L 356 726 L 384 701 L 364 614 L 347 456 L 328 407"/>
<path style="--d:2s;" pathLength="3333" clip-path="url(#z39591c2)" d="M 172 612 L 188 598 L 201 570 L 180 391 L 184 359 L 225 359 L 282 378 L 363 393 L 385 386 L 406 363 L 366 145 L 340 78 L 312 57 L 225 106"/>
<path style="--d:3s;" pathLength="3333" clip-path="url(#z39591c3)" d="M 51 188 L 110 180 L 311 281"/>
<path style="--d:4s;" pathLength="3333" clip-path="url(#z39591c4)" d="M 581 843 L 639 814 L 663 782"/>
<path style="--d:5s;" pathLength="3333" clip-path="url(#z39591c5)" d="M 479 715 L 533 710 L 707 744 L 785 753 L 824 749"/>
<path style="--d:6s;" pathLength="3333" clip-path="url(#z39591c6)" d="M 443 636 L 471 611 L 496 512"/>
<path style="--d:7s;" pathLength="3333" clip-path="url(#z39591c7)" d="M 489 637 L 498 630 L 569 650 L 588 643 L 600 631 L 598 621 L 591 595 L 574 580"/>
<path style="--d:8s;" pathLength="3333" clip-path="url(#z39591c8)" d="M 509 541 L 522 551 L 563 559 L 599 562 L 617 557"/>
<path style="--d:9s;" pathLength="3333" clip-path="url(#z39591c9)" d="M 653 672 L 678 647 L 690 593 L 705 565"/>
<path style="--d:10s;" pathLength="3333" clip-path="url(#z39591c10)" d="M 689 676 L 700 668 L 785 690 L 803 683 L 814 668 L 811 658 L 802 632 L 783 622"/>
<path style="--d:11s;" pathLength="3333" clip-path="url(#z39591c11)" d="M 713 592 L 722 587 L 808 595 L 827 588"/>
<path style="--d:12s;" pathLength="3333" clip-path="url(#z39591c12)" d="M 484 460 L 540 453 L 767 496 L 798 496"/>
<path style="--d:13s;" pathLength="3333" clip-path="url(#z39591c13)" d="M 488 366 L 545 368 L 753 407 L 792 400"/>
<path style="--d:14s;" pathLength="3333" clip-path="url(#z39591c14)" d="M 535 507 L 567 471 L 574 322 L 564 312"/>
<path style="--d:15s;" pathLength="3333" clip-path="url(#z39591c15)" d="M 681 554 L 710 524 L 691 351 L 675 329"/>
<path style="--d:16s;" pathLength="3333" clip-path="url(#z39591c16)" d="M 436 279 L 480 274 L 637 302 L 815 325 L 882 313"/>
<path style="--d:17s;" pathLength="3333" clip-path="url(#z39591c17)" d="M 592 252 L 561 242 L 489 150 L 435 102 L 400 81"/>
<path style="--d:18s;" pathLength="3333" clip-path="url(#z39591c18)" d="M 553 182 L 554 117 L 547 54 L 553 16 L 588 30 L 635 64 L 638 72 L 653 77 L 657 89 L 668 90 L 674 99"/>
<path style="--d:19s;" pathLength="3333" clip-path="url(#z39591c19)" d="M 780 265 L 793 235 L 717 171 L 708 174"/>
<path style="--d:20s;" pathLength="3333" clip-path="url(#z39591c20)" d="M 594 234 L 605 235 L 624 223 L 714 129 L 816 52 L 858 38 L 962 35"/>
</svg>