<svg id="z39173" class="acjk" viewBox="0 0 1024 1024" xmlns="http://www.w3.org/2000/svg">
<style>
<![CDATA[
@keyframes zk {
	to {
		stroke-dashoffset:0;
	}
}
svg.acjk path[clip-path] {
	--t:0.8s;
	animation:zk var(--t) linear forwards var(--d);
	stroke-dasharray:3337;
	stroke-dashoffset:3339;
	stroke-width:128;
	stroke-linecap:round;
	stroke-linejoin:round;
	fill:none;
	stroke:#000;
}
svg.acjk path[id] {fill:#ccc;}
]]>
</style>
  <path id="z39173d1" d="M 222 517 Q 270 580 311 648 L 318 661 Q 340 701 368 751 L 378 772 L 380 774 Q 389 792 396 800 Q 403 806 400 816 Q 399 826 384 837 Q 368 850 348 854 Q 326 860 315 856 Q 306 853 310 841 Q 334 754 206 566 Q 194 553 183 537 Q 140 482 32 372 Q 25 366 35 364 Q 47 367 73 385 Q 119 413 160 450 Q 181 469 202 493 L 222 517 Z"/>
  <path id="z39173d2" d="M 368 751 Q 375 744 394 730 Q 419 711 446 688 Q 459 678 472 680 Q 482 681 485 692 Q 488 705 479 731 Q 467 759 387 771 Q 381 772 378 772 C 348 774 346 771 368 751 Z"/>
  <path id="z39173d3" d="M 311 648 Q 314 639 356 607 Q 375 594 391 597 Q 404 598 406 618 Q 405 631 391 647 Q 370 668 319 662 Q 318 662 318 661 C 306 656 306 656 311 648 Z"/>
  <path id="z39173d4" d="M 371 317 Q 384 301 397 294 Q 407 287 421 306 Q 434 328 459 444 Q 466 471 486 494 Q 496 504 486 517 Q 473 532 433 553 Q 415 560 371 542 Q 355 542 266 502 C 239 490 255 462 282 475 Q 384 526 403 515 Q 415 506 411 489 Q 387 357 369 348 C 357 333 357 333 371 317 Z"/>
  <path id="z39173d5" d="M 278 385 Q 321 398 356 407 Q 377 414 366 425 Q 354 437 330 437 Q 309 436 279 422 C 252 409 249 376 278 385 Z"/>
  <path id="z39173d6" d="M 276 292 Q 300 304 371 317 C 401 322 396 334 369 348 Q 368 349 365 350 Q 352 356 276 325 C 248 314 249 279 276 292 Z"/>
  <path id="z39173d7" d="M 366 213 Q 341 198 290 163 Q 283 159 280 160 Q 273 166 276 292 L 276 325 Q 276 359 278 385 L 279 422 Q 280 462 282 471 Q 282 474 282 475 C 284 495 284 495 266 502 Q 253 509 222 517 C 193 525 185 518 202 493 Q 203 493 204 491 Q 234 455 237 331 Q 237 223 222 175 Q 218 141 185 100 Q 175 88 182 68 Q 192 41 206 30 Q 218 21 230 36 Q 266 88 375 196 C 396 217 391 229 366 213 Z"/>
  <path id="z39173d8" d="M 375 196 Q 390 169 412 154 Q 424 148 436 158 Q 443 168 445 183 Q 442 222 378 260 Q 365 269 355 267 Q 349 267 348 256 Q 347 247 366 213 L 375 196 Z"/>
  <path id="z39173d9" d="M 557 736 Q 584 682 615 660 Q 631 653 643 666 Q 652 678 653 696 Q 652 723 635 739 Q 602 772 560 780 Q 554 781 551 780 Q 544 780 544 767 Q 544 754 557 736 Z"/>
  <path id="z39173d10" d="M 776 777 Q 764 738 711 635 Q 705 616 722 624 Q 768 667 792 697 Q 843 761 868 779 Q 887 795 872 810 Q 853 823 823 832 Q 795 841 783 835 Q 770 831 778 817 Q 785 799 776 777 Z"/>
  <path id="z39173d11" d="M 751 553 Q 842 575 847 579 Q 856 586 851 596 Q 844 608 814 615 Q 787 621 690 589 Q 546 564 538 562 Q 501 555 527 538 Q 539 531 556 527 L 610 523 Q 625 529 705 544 L 751 553 Z"/>
  <path id="z39173d12" d="M 785 374 Q 845 381 919 384 Q 976 388 981 395 Q 985 407 969 418 Q 915 455 849 433 Q 819 427 785 418 L 732 406 Q 713 405 628 384 L 577 375 Q 519 365 458 353 Q 439 350 454 335 Q 482 310 537 326 Q 553 332 574 336 L 624 348 Q 682 363 733 367 L 785 374 Z"/>
  <path id="z39173d13" d="M 556 527 Q 557 523 563 514 Q 582 481 577 375 L 574 336 Q 574 200 477 86 Q 444 65 425 35 Q 421 31 419 27 Q 418 21 428 21 Q 464 21 526 86 Q 602 168 624 348 L 628 384 Q 634 468 638 489 Q 644 508 625 517 Q 618 521 610 523 C 582 534 543 551 556 527 Z"/>
  <path id="z39173d14" d="M 733 367 Q 726 -45 746 -77 Q 752 -84 759 -82 Q 777 -70 780 -15 Q 787 58 785 130 Q 782 185 785 374 L 785 418 Q 785 446 796 507 Q 799 525 785 534 Q 766 547 751 553 C 724 566 693 572 705 544 Q 705 540 709 536 Q 730 482 732 418 Q 732 414 732 406 L 733 367 Z"/>
<defs>
  <clipPath id="z39173c1"><use href="#z39173d1"/></clipPath>
  <clipPath id="z39173c2"><use href="#z39173d2"/></clipPath>
  <clipPath id="z39173c3"><use href="#z39173d3"/></clipPath>
  <clipPath id="z39173c4"><use href="#z39173d4"/></clipPath>
  <clipPath id="z39173c5"><use href="#z39173d5"/></clipPath>
  <clipPath id="z39173c6"><use href="#z39173d6"/></clipPath>
  <clipPath id="z39173c7"><use href="#z39173d7"/></clipPath>
  <clipPath id="z39173c8"><use href="#z39173d8"/></clipPath>
  <clipPath id="z39173c9"><use href="#z39173d9"/></clipPath>
  <clipPath id="z39173c10"><use href="#z39173d10"/></clipPath>
  <clipPath id="z39173c11"><use href="#z39173d11"/></clipPath>
  <clipPath id="z39173c12"><use href="#z39173d12"/></clipPath>
  <clipPath id="z39173c13"><use href="#z39173d13"/></clipPath>
  <clipPath id="z39173c14"><use href="#z39173d14"/></clipPath>
</defs>
<path style="--d:1s;" pathLength="3333" clip-path="url(#z39173c1)" d="M 321 846 L 346 822 L 354 809 L 352 800 L 326 730 L 272 626 L 210 536 L 162 479 L 86 407 L 47 377 L 41 378 L 38 370"/>
<path style="--d:2s;" pathLength="3333" clip-path="url(#z39173c2)" d="M 376 754 L 395 753 L 428 737 L 453 720 L 471 694"/>
<path style="--d:3s;" pathLength="3333" clip-path="url(#z39173c3)" d="M 322 651 L 365 633 L 387 615"/>
<path style="--d:4s;" pathLength="3333" clip-path="url(#z39173c4)" d="M 279 501 L 290 494 L 386 533 L 417 533 L 439 516 L 447 503 L 401 335 L 403 311"/>
<path style="--d:5s;" pathLength="3333" clip-path="url(#z39173c5)" d="M 284 391 L 297 410 L 327 419 L 359 417"/>
<path style="--d:6s;" pathLength="3333" clip-path="url(#z39173c6)" d="M 278 298 L 294 317 L 352 332 L 362 340"/>
<path style="--d:7s;" pathLength="3333" clip-path="url(#z39173c7)" d="M 209 498 L 240 485 L 253 448 L 257 254 L 249 170 L 252 129 L 299 145 L 361 194 L 364 206"/>
<path style="--d:8s;" pathLength="3333" clip-path="url(#z39173c8)" d="M 360 256 L 398 213 L 421 173"/>
<path style="--d:9s;" pathLength="3333" clip-path="url(#z39173c9)" d="M 556 769 L 613 711 L 625 680"/>
<path style="--d:10s;" pathLength="3333" clip-path="url(#z39173c10)" d="M 785 825 L 808 809 L 821 791 L 723 636"/>
<path style="--d:11s;" pathLength="3333" clip-path="url(#z39173c11)" d="M 530 551 L 553 546 L 605 548 L 793 590 L 840 590"/>
<path style="--d:12s;" pathLength="3333" clip-path="url(#z39173c12)" d="M 456 344 L 524 343 L 684 380 L 877 411 L 914 412 L 974 400"/>
<path style="--d:13s;" pathLength="3333" clip-path="url(#z39173c13)" d="M 562 522 L 605 490 L 598 322 L 578 221 L 543 143 L 506 90 L 426 28"/>
<path style="--d:14s;" pathLength="3333" clip-path="url(#z39173c14)" d="M 713 543 L 747 521 L 759 503 L 755 -72"/>
</svg>