<svg id="z37275" class="acjk" viewBox="0 0 1024 1024" xmlns="http://www.w3.org/2000/svg">
<style>
<![CDATA[
@keyframes zk {
	to {
		stroke-dashoffset:0;
	}
}
svg.acjk path[clip-path] {
	--t:0.8s;
	animation:zk var(--t) linear forwards var(--d);
	stroke-dasharray:3337;
	stroke-dashoffset:3339;
	stroke-width:128;
	stroke-linecap:round;
	stroke-linejoin:round;
	fill:none;
	stroke:#000;
}
svg.acjk path[id] {fill:#ccc;}
]]>
</style>
  <path id="z37275d1" d="M 306 675 Q 408 699 415 705 Q 424 712 419 721 Q 412 731 384 738 Q 354 744 325 731 Q 286 718 243 706 Q 197 694 140 688 Q 106 681 131 666 Q 146 657 168 653 Q 172 653 175 652 L 211 654 Q 223 658 267 667 L 306 675 Z"/>
  <path id="z37275d2" d="M 127 526 Q 115 538 96 545 Q 87 549 77 546 Q 71 542 76 531 Q 77 522 81 514 Q 108 465 86 239 Q 62 151 95 113 Q 105 101 114 112 Q 124 125 124 142 L 128 173 Q 134 492 137 498 C 139 516 139 516 127 526 Z"/>
  <path id="z37275d3" d="M 329 159 Q 353 129 369 101 Q 376 88 385 88 Q 398 89 411 115 Q 424 148 420 228 Q 404 493 425 522 Q 432 534 425 542 Q 409 558 365 577 Q 353 583 312 565 L 282 555 Q 255 548 227 541 L 195 536 Q 153 530 127 526 C 97 522 107 494 137 498 Q 164 501 194 506 L 225 513 Q 253 520 281 525 L 308 530 Q 312 533 319 533 Q 344 537 358 528 Q 373 516 374 395 L 374 376 Q 374 259 365 185 Q 361 172 348 176 C 326 163 326 163 329 159 Z"/>
  <path id="z37275d4" d="M 175 652 Q 184 630 192 596 Q 195 565 195 536 L 194 506 Q 191 448 150 348 Q 147 344 147 340 Q 146 334 152 336 Q 177 346 208 428 Q 218 459 224 498 Q 224 505 225 513 L 227 541 Q 227 617 229 628 Q 233 637 228 644 Q 221 650 211 654 C 184 667 166 676 175 652 Z"/>
  <path id="z37275d5" d="M 312 565 Q 315 605 327 650 Q 330 660 323 667 Q 316 671 306 675 C 279 687 251 692 267 667 Q 285 649 282 555 L 281 525 Q 272 401 309 373 Q 315 367 344 367 Q 365 367 374 376 C 396 389 396 389 374 395 Q 368 398 361 398 Q 334 401 329 405 Q 305 423 308 530 L 312 565 Z"/>
  <path id="z37275d6" d="M 167 281 Q 151 277 171 263 Q 178 257 192 259 Q 262 269 315 276 Q 337 280 329 292 Q 319 307 293 311 Q 260 315 167 281 Z"/>
  <path id="z37275d7" d="M 124 142 Q 134 141 144 142 Q 202 154 329 159 C 359 160 362 160 348 176 Q 341 185 324 196 Q 309 205 280 199 Q 196 181 128 173 C 98 169 94 144 124 142 Z"/>
  <path id="z37275d8" d="M 723 653 Q 798 663 877 656 Q 890 655 895 664 Q 899 674 888 687 Q 843 726 753 701 Q 746 701 741 699 L 695 691 Q 637 682 576 672 L 539 667 Q 487 663 433 655 Q 406 652 425 639 Q 464 614 524 627 Q 533 630 546 631 L 579 638 Q 615 648 685 651 L 723 653 Z"/>
  <path id="z37275d9" d="M 576 672 Q 573 706 572 732 Q 573 748 557 753 Q 529 769 507 763 Q 492 756 505 740 Q 530 709 538 672 Q 538 671 539 667 L 546 631 Q 550 597 565 582 Q 575 573 579 582 Q 583 597 579 638 L 576 672 Z"/>
  <path id="z37275d10" d="M 741 699 Q 759 745 772 768 Q 784 781 775 790 Q 765 805 734 819 Q 719 826 705 819 Q 696 813 703 804 Q 715 777 695 691 L 685 651 Q 670 597 671 586 Q 672 573 686 584 Q 695 593 723 653 L 741 699 Z"/>
  <path id="z37275d11" d="M 650 536 Q 659 551 660 554 Q 659 561 649 571 Q 622 595 596 590 Q 589 589 591 578 Q 603 524 515 416 Q 490 386 429 330 Q 422 326 431 323 Q 525 350 639 519 L 650 536 Z"/>
  <path id="z37275d12" d="M 639 519 Q 712 437 791 363 Q 812 344 846 343 Q 907 342 971 357 Q 987 360 989 364 Q 990 370 977 375 Q 937 388 889 400 Q 786 431 660 529 Q 654 533 650 536 C 625 553 619 541 639 519 Z"/>
  <path id="z37275d13" d="M 631 323 Q 673 333 717 342 Q 744 348 747 352 Q 754 359 751 366 Q 744 376 719 382 Q 694 386 668 376 Q 638 366 605 357 Q 569 348 527 344 Q 496 338 518 324 Q 551 306 590 314 L 631 323 Z"/>
  <path id="z37275d14" d="M 644 188 Q 755 210 758 213 Q 765 220 762 226 Q 756 236 733 243 Q 709 247 646 227 L 600 216 Q 557 209 508 206 Q 478 202 499 187 Q 524 172 600 180 L 644 188 Z"/>
  <path id="z37275d15" d="M 640 89 Q 641 143 644 188 L 646 227 Q 646 255 649 284 Q 656 302 631 323 C 609 343 580 342 590 314 Q 596 308 600 216 L 600 180 Q 600 143 601 86 C 602 56 639 59 640 89 Z"/>
  <path id="z37275d16" d="M 601 86 Q 519 79 428 71 Q 409 70 422 54 Q 435 41 450 36 Q 469 30 483 34 Q 651 70 861 50 Q 861 51 863 50 Q 881 49 885 56 Q 891 66 876 80 Q 827 119 772 106 Q 718 100 640 89 L 601 86 Z"/>
<defs>
  <clipPath id="z37275c1"><use href="#z37275d1"/></clipPath>
  <clipPath id="z37275c2"><use href="#z37275d2"/></clipPath>
  <clipPath id="z37275c3"><use href="#z37275d3"/></clipPath>
  <clipPath id="z37275c4"><use href="#z37275d4"/></clipPath>
  <clipPath id="z37275c5"><use href="#z37275d5"/></clipPath>
  <clipPath id="z37275c6"><use href="#z37275d6"/></clipPath>
  <clipPath id="z37275c7"><use href="#z37275d7"/></clipPath>
  <clipPath id="z37275c8"><use href="#z37275d8"/></clipPath>
  <clipPath id="z37275c9"><use href="#z37275d9"/></clipPath>
  <clipPath id="z37275c10"><use href="#z37275d10"/></clipPath>
  <clipPath id="z37275c11"><use href="#z37275d11"/></clipPath>
  <clipPath id="z37275c12"><use href="#z37275d12"/></clipPath>
  <clipPath id="z37275c13"><use href="#z37275d13"/></clipPath>
  <clipPath id="z37275c14"><use href="#z37275d14"/></clipPath>
  <clipPath id="z37275c15"><use href="#z37275d15"/></clipPath>
  <clipPath id="z37275c16"><use href="#z37275d16"/></clipPath>
</defs>
<path style="--d:1s;" pathLength="3333" clip-path="url(#z37275c1)" d="M 133 678 L 192 673 L 352 713 L 409 715"/>
<path style="--d:2s;" pathLength="3333" clip-path="url(#z37275c2)" d="M 83 538 L 108 511 L 115 454 L 109 245 L 101 172 L 105 118"/>
<path style="--d:3s;" pathLength="3333" clip-path="url(#z37275c3)" d="M 133 520 L 147 515 L 199 521 L 344 555 L 364 552 L 390 532 L 397 267 L 393 183 L 383 146 L 385 101"/>
<path style="--d:4s;" pathLength="3333" clip-path="url(#z37275c4)" d="M 181 648 L 206 631 L 213 553 L 209 493 L 185 401 L 153 342"/>
<path style="--d:5s;" pathLength="3333" clip-path="url(#z37275c5)" d="M 274 668 L 302 648 L 292 512 L 301 420 L 309 401 L 324 386 L 351 383 L 366 390"/>
<path style="--d:6s;" pathLength="3333" clip-path="url(#z37275c6)" d="M 169 272 L 272 291 L 319 286"/>
<path style="--d:7s;" pathLength="3333" clip-path="url(#z37275c7)" d="M 129 149 L 165 163 L 292 180 L 339 177"/>
<path style="--d:8s;" pathLength="3333" clip-path="url(#z37275c8)" d="M 427 648 L 448 642 L 498 642 L 616 663 L 802 685 L 851 682 L 883 670"/>
<path style="--d:9s;" pathLength="3333" clip-path="url(#z37275c9)" d="M 512 751 L 531 742 L 547 724 L 572 588"/>
<path style="--d:10s;" pathLength="3333" clip-path="url(#z37275c10)" d="M 715 810 L 740 778 L 704 648 L 679 589"/>
<path style="--d:11s;" pathLength="3333" clip-path="url(#z37275c11)" d="M 603 580 L 623 552 L 581 470 L 494 371 L 464 347 L 437 336 L 435 328"/>
<path style="--d:12s;" pathLength="3333" clip-path="url(#z37275c12)" d="M 652 529 L 653 519 L 710 468 L 824 384 L 898 370 L 984 365"/>
<path style="--d:13s;" pathLength="3333" clip-path="url(#z37275c13)" d="M 520 335 L 580 331 L 701 361 L 740 361"/>
<path style="--d:14s;" pathLength="3333" clip-path="url(#z37275c14)" d="M 501 198 L 526 192 L 588 195 L 727 225 L 753 222"/>
<path style="--d:15s;" pathLength="3333" clip-path="url(#z37275c15)" d="M 597 315 L 615 299 L 623 279 L 621 112 L 607 95"/>
<path style="--d:16s;" pathLength="3333" clip-path="url(#z37275c16)" d="M 425 62 L 461 53 L 580 68 L 784 82 L 831 78 L 875 62"/>
</svg>