<svg id="z32788" class="acjk" viewBox="0 0 1024 1024" xmlns="http://www.w3.org/2000/svg">
<style>
<![CDATA[
@keyframes zk {
	to {
		stroke-dashoffset:0;
	}
}
svg.acjk path[clip-path] {
	--t:0.8s;
	animation:zk var(--t) linear forwards var(--d);
	stroke-dasharray:3337;
	stroke-dashoffset:3339;
	stroke-width:128;
	stroke-linecap:round;
	stroke-linejoin:round;
	fill:none;
	stroke:#000;
}
svg.acjk path[id] {fill:#ccc;}
]]>
</style>
  <path id="z32788d1" d="M 369 661 Q 480 688 482 689 Q 491 696 487 704 Q 480 716 452 723 Q 416 732 374 712 L 319 696 Q 309 695 299 692 Q 245 682 182 676 Q 146 670 171 654 Q 211 630 290 647 Q 303 650 320 652 L 369 661 Z"/>
  <path id="z32788d2" d="M 365 539 Q 368 540 449 553 Q 458 552 466 564 Q 467 574 446 583 Q 425 599 392 591 Q 377 588 366 583 C 350 577 351 580 322 572 Q 321 572 321 571 Q 290 565 203 550 Q 178 546 198 531 Q 228 510 251 515 Q 281 522 320 530 L 365 539 Z"/>
  <path id="z32788d3" d="M 362 413 Q 380 419 494 434 Q 504 433 513 446 Q 514 458 491 467 Q 463 488 381 464 Q 372 463 363 459 L 317 447 Q 260 435 132 417 Q 104 413 126 396 Q 160 371 187 378 Q 236 391 298 401 L 362 413 Z"/>
  <path id="z32788d4" d="M 361 363 Q 361 388 362 413 L 363 459 Q 363 498 365 539 L 366 583 Q 366 610 369 661 L 374 712 Q 378 743 386 768 Q 396 783 392 797 Q 385 807 330 841 Q 306 859 285 843 Q 281 837 286 822 Q 319 774 319 696 L 320 652 Q 321 615 322 572 L 320 530 Q 319 490 317 447 L 314 332 Q 314 221 289 129 Q 277 89 303 26 Q 310 8 318 5 Q 324 -2 332 7 Q 339 11 350 32 Q 360 57 359 89 Q 358 123 360 332 L 361 363 Z"/>
  <path id="z32788d5" d="M 298 401 Q 241 281 71 150 Q 59 140 68 137 Q 86 128 158 173 Q 216 212 314 332 C 378 410 311 428 298 401 Z"/>
  <path id="z32788d6" d="M 360 332 Q 372 323 434 264 Q 446 252 459 253 Q 469 253 473 265 Q 477 278 470 303 Q 466 324 435 339 Q 381 363 361 363 C 331 365 337 351 360 332 Z"/>
  <path id="z32788d7" d="M 679 530 Q 682 531 686 535 Q 812 652 849 667 Q 870 674 862 691 Q 858 707 788 744 Q 769 754 744 745 Q 687 723 600 696 Q 578 689 522 689 Q 497 689 506 668 Q 515 655 535 643 Q 568 625 602 647 Q 621 656 719 696 Q 732 702 746 694 Q 759 685 753 671 Q 714 611 670 539 C 654 513 656 511 679 530 Z"/>
  <path id="z32788d8" d="M 730 428 Q 715 500 679 530 L 670 539 Q 663 543 656 548 Q 644 555 639 547 Q 635 543 642 528 Q 664 482 678 420 L 685 381 Q 709 209 670 116 Q 666 110 662 105 Q 653 99 562 125 Q 552 128 544 124 Q 538 123 555 109 Q 616 54 649 8 Q 668 -11 687 -3 Q 712 10 730 68 Q 766 207 736 388 L 730 428 Z"/>
  <path id="z32788d9" d="M 736 388 Q 811 397 956 397 Q 975 397 980 406 Q 984 416 968 430 Q 908 472 856 452 Q 804 443 730 428 L 678 420 Q 582 407 472 390 Q 451 387 467 371 Q 480 358 498 353 Q 519 349 534 353 Q 604 372 685 381 L 736 388 Z"/>
<defs>
  <clipPath id="z32788c1"><use href="#z32788d1"/></clipPath>
  <clipPath id="z32788c2"><use href="#z32788d2"/></clipPath>
  <clipPath id="z32788c3"><use href="#z32788d3"/></clipPath>
  <clipPath id="z32788c4"><use href="#z32788d4"/></clipPath>
  <clipPath id="z32788c5"><use href="#z32788d5"/></clipPath>
  <clipPath id="z32788c6"><use href="#z32788d6"/></clipPath>
  <clipPath id="z32788c7"><use href="#z32788d7"/></clipPath>
  <clipPath id="z32788c8"><use href="#z32788d8"/></clipPath>
  <clipPath id="z32788c9"><use href="#z32788d9"/></clipPath>
</defs>
<path style="--d:1s;" pathLength="3333" clip-path="url(#z32788c1)" d="M 174 666 L 243 661 L 322 674 L 430 702 L 478 699"/>
<path style="--d:2s;" pathLength="3333" clip-path="url(#z32788c2)" d="M 199 541 L 244 535 L 403 570 L 456 565"/>
<path style="--d:3s;" pathLength="3333" clip-path="url(#z32788c3)" d="M 127 407 L 178 400 L 450 453 L 502 448"/>
<path style="--d:4s;" pathLength="3333" clip-path="url(#z32788c4)" d="M 297 836 L 326 812 L 348 782 L 338 295 L 322 104 L 323 19"/>
<path style="--d:5s;" pathLength="3333" clip-path="url(#z32788c5)" d="M 313 397 L 304 391 L 290 338 L 229 264 L 140 181 L 73 143"/>
<path style="--d:6s;" pathLength="3333" clip-path="url(#z32788c6)" d="M 365 355 L 435 304 L 459 268"/>
<path style="--d:7s;" pathLength="3333" clip-path="url(#z32788c7)" d="M 517 676 L 567 663 L 733 720 L 759 720 L 782 708 L 798 688 L 786 665 L 691 555 L 691 547 L 678 538"/>
<path style="--d:8s;" pathLength="3333" clip-path="url(#z32788c8)" d="M 647 542 L 676 503 L 695 460 L 715 359 L 722 218 L 708 121 L 695 84 L 672 58 L 549 122"/>
<path style="--d:9s;" pathLength="3333" clip-path="url(#z32788c9)" d="M 470 380 L 507 373 L 535 376 L 880 427 L 921 425 L 969 411"/>
</svg>