<svg id="z31108" class="acjk" viewBox="0 0 1024 1024" xmlns="http://www.w3.org/2000/svg">
<style>
<![CDATA[
@keyframes zk {
	to {
		stroke-dashoffset:0;
	}
}
svg.acjk path[clip-path] {
	--t:0.8s;
	animation:zk var(--t) linear forwards var(--d);
	stroke-dasharray:3337;
	stroke-dashoffset:3339;
	stroke-width:128;
	stroke-linecap:round;
	stroke-linejoin:round;
	fill:none;
	stroke:#000;
}
svg.acjk path[id] {fill:#ccc;}
]]>
</style>
  <path id="z31108d1" d="M 293 755 Q 324 733 358 706 Q 373 694 390 696 Q 400 697 405 712 Q 408 728 396 758 Q 381 792 283 804 Q 267 807 260 803 Q 256 799 258 785 Q 262 775 293 755 Z"/>
  <path id="z31108d2" d="M 258 363 Q 289 406 324 462 Q 357 517 403 553 Q 418 565 406 580 Q 387 595 357 605 Q 335 614 317 602 Q 239 551 107 545 Q 95 546 92 539 Q 89 529 103 519 Q 139 495 170 499 Q 293 541 294 540 L 296 538 Q 302 529 290 507 Q 220 360 56 192 Q 40 180 44 177 Q 47 174 60 180 Q 144 223 235 333 L 258 363 Z"/>
  <path id="z31108d3" d="M 235 333 Q 271 252 232 96 Q 222 54 251 12 Q 252 9 255 7 Q 271 -8 282 17 Q 295 54 295 95 Q 296 251 302 286 Q 309 311 300 320 Q 270 356 258 363 C 234 381 224 361 235 333 Z"/>
  <path id="z31108d4" d="M 341 357 Q 384 309 397 308 Q 404 307 410 317 Q 414 327 409 349 Q 406 364 385 375 Q 337 399 324 394 Q 320 393 320 382 Q 323 375 341 357 Z"/>
  <path id="z31108d5" d="M 722 532 Q 749 646 794 683 Q 810 702 796 719 Q 721 779 671 749 Q 583 719 496 709 Q 480 708 481 698 Q 484 689 502 683 Q 515 677 578 687 Q 693 708 700 701 Q 712 688 708 663 Q 692 584 671 520 C 662 491 715 503 722 532 Z"/>
  <path id="z31108d6" d="M 471 591 Q 447 588 466 574 Q 493 556 527 563 Q 596 581 658 585 Q 667 584 674 595 Q 675 604 656 612 Q 632 627 567 609 Q 564 609 561 607 Q 542 603 471 591 Z"/>
  <path id="z31108d7" d="M 611 469 Q 611 470 612 470 Q 691 485 823 489 Q 874 489 881 499 Q 885 511 869 523 Q 815 560 749 538 Q 736 537 722 532 L 671 520 Q 646 516 617 510 Q 523 492 411 473 Q 392 470 406 455 Q 419 443 437 439 Q 456 435 471 439 Q 517 455 571 463 L 611 469 Z"/>
  <path id="z31108d8" d="M 653 317 Q 653 381 663 411 Q 672 430 655 443 Q 636 459 611 469 C 584 482 556 489 571 463 Q 572 459 578 451 Q 600 414 600 370 Q 607 193 601 101 Q 600 82 589 74 Q 583 68 502 87 Q 490 90 491 82 Q 492 75 502 67 Q 572 4 596 -33 Q 611 -49 626 -36 Q 662 1 661 69 Q 658 100 654 279 L 653 317 Z"/>
  <path id="z31108d9" d="M 440 354 Q 488 294 514 293 Q 527 292 532 310 Q 533 323 524 342 Q 514 357 493 364 Q 459 377 444 380 Q 435 381 434 370 Q 433 363 440 354 Z"/>
  <path id="z31108d10" d="M 353 137 Q 343 133 344 123 Q 345 111 357 107 Q 382 100 416 95 Q 426 96 433 107 Q 451 140 530 221 Q 542 234 549 246 Q 556 256 555 265 Q 545 269 472 212 Q 373 146 353 137 Z"/>
  <path id="z31108d11" d="M 680 291 Q 681 292 686 294 Q 771 351 812 372 Q 830 376 826 387 Q 820 403 802 422 Q 783 440 761 442 Q 748 442 747 423 Q 751 401 671 305 Q 670 304 668 301 C 650 277 653 278 680 291 Z"/>
  <path id="z31108d12" d="M 668 301 Q 661 310 653 317 C 632 338 637 303 654 279 Q 718 189 798 94 Q 816 76 843 78 Q 937 84 966 90 Q 975 93 976 97 Q 976 101 964 108 Q 832 160 753 225 Q 717 256 680 291 L 668 301 Z"/>
<defs>
  <clipPath id="z31108c1"><use href="#z31108d1"/></clipPath>
  <clipPath id="z31108c2"><use href="#z31108d2"/></clipPath>
  <clipPath id="z31108c3"><use href="#z31108d3"/></clipPath>
  <clipPath id="z31108c4"><use href="#z31108d4"/></clipPath>
  <clipPath id="z31108c5"><use href="#z31108d5"/></clipPath>
  <clipPath id="z31108c6"><use href="#z31108d6"/></clipPath>
  <clipPath id="z31108c7"><use href="#z31108d7"/></clipPath>
  <clipPath id="z31108c8"><use href="#z31108d8"/></clipPath>
  <clipPath id="z31108c9"><use href="#z31108d9"/></clipPath>
  <clipPath id="z31108c10"><use href="#z31108d10"/></clipPath>
  <clipPath id="z31108c11"><use href="#z31108d11"/></clipPath>
  <clipPath id="z31108c12"><use href="#z31108d12"/></clipPath>
</defs>
<path style="--d:1s;" pathLength="3333" clip-path="url(#z31108c1)" d="M 266 797 L 359 749 L 386 715"/>
<path style="--d:2s;" pathLength="3333" clip-path="url(#z31108c2)" d="M 101 535 L 144 524 L 175 525 L 298 564 L 339 559 L 331 527 L 307 482 L 213 339 L 104 222 L 47 179"/>
<path style="--d:3s;" pathLength="3333" clip-path="url(#z31108c3)" d="M 258 355 L 263 327 L 275 304 L 273 176 L 261 66 L 267 17"/>
<path style="--d:4s;" pathLength="3333" clip-path="url(#z31108c4)" d="M 329 386 L 385 345 L 398 321"/>
<path style="--d:5s;" pathLength="3333" clip-path="url(#z31108c5)" d="M 490 699 L 527 696 L 589 704 L 696 730 L 720 726 L 739 712 L 749 700 L 704 551 L 676 525"/>
<path style="--d:6s;" pathLength="3333" clip-path="url(#z31108c6)" d="M 467 583 L 517 579 L 628 601 L 665 596"/>
<path style="--d:7s;" pathLength="3333" clip-path="url(#z31108c7)" d="M 409 464 L 462 459 L 764 515 L 826 516 L 873 504"/>
<path style="--d:8s;" pathLength="3333" clip-path="url(#z31108c8)" d="M 578 459 L 610 442 L 629 419 L 627 69 L 619 46 L 605 30 L 498 81"/>
<path style="--d:9s;" pathLength="3333" clip-path="url(#z31108c9)" d="M 446 368 L 500 329 L 514 311"/>
<path style="--d:10s;" pathLength="3333" clip-path="url(#z31108c10)" d="M 357 125 L 408 130 L 553 261"/>
<path style="--d:11s;" pathLength="3333" clip-path="url(#z31108c11)" d="M 814 384 L 778 395 L 676 298"/>
<path style="--d:12s;" pathLength="3333" clip-path="url(#z31108c12)" d="M 654 311 L 669 281 L 709 236 L 824 127 L 852 116 L 969 96"/>
</svg>