<svg id="z38675" class="acjk" viewBox="0 0 1024 1024" xmlns="http://www.w3.org/2000/svg">
<style>
<![CDATA[
@keyframes zk {
	to {
		stroke-dashoffset:0;
	}
}
svg.acjk path[clip-path] {
	--t:0.8s;
	animation:zk var(--t) linear forwards var(--d);
	stroke-dasharray:3337;
	stroke-dashoffset:3339;
	stroke-width:128;
	stroke-linecap:round;
	stroke-linejoin:round;
	fill:none;
	stroke:#000;
}
svg.acjk path[id] {fill:#ccc;}
]]>
</style>
  <path id="z38675d1" d="M 503 764 Q 669 800 675 805 Q 684 812 679 821 Q 672 831 644 839 Q 616 845 523 814 Q 387 790 369 788 Q 335 782 359 766 Q 398 742 464 757 L 503 764 Z"/>
  <path id="z38675d2" d="M 252 652 Q 240 676 230 683 Q 211 698 209 672 Q 215 635 159 578 Q 138 554 167 499 Q 182 472 202 500 Q 217 522 228 557 Q 240 599 253 625 C 259 638 259 638 252 652 Z"/>
  <path id="z38675d3" d="M 523 667 Q 721 703 760 694 Q 770 687 768 681 Q 768 677 730 606 Q 723 593 729 589 Q 736 585 753 595 Q 810 631 856 641 Q 895 651 894 660 Q 893 670 825 721 Q 804 739 740 726 Q 647 716 524 692 L 478 685 Q 426 679 367 668 Q 309 658 252 652 C 222 649 224 632 253 625 Q 274 613 328 627 Q 424 655 479 660 L 523 667 Z"/>
  <path id="z38675d4" d="M 479 660 Q 479 606 467 536 Q 461 503 485 474 Q 492 464 502 474 Q 523 504 520 543 Q 519 571 523 655 Q 523 662 523 667 L 524 692 Q 525 708 529 725 Q 536 744 518 755 Q 511 759 503 764 C 477 780 455 786 464 757 Q 464 756 465 753 Q 471 738 478 685 L 479 660 Z"/>
  <path id="z38675d5" d="M 331 590 Q 391 553 407 558 Q 417 559 417 574 Q 416 584 404 596 Q 380 617 328 610 Q 321 609 323 601 Q 324 594 331 590 Z"/>
  <path id="z38675d6" d="M 313 513 Q 370 471 387 475 Q 397 476 398 490 Q 397 500 387 513 Q 377 523 356 527 Q 325 534 312 533 Q 305 533 307 524 Q 307 518 313 513 Z"/>
  <path id="z38675d7" d="M 570 613 Q 645 592 661 599 Q 670 603 667 617 Q 663 626 649 635 Q 618 650 562 632 Q 556 629 560 622 Q 561 616 570 613 Z"/>
  <path id="z38675d8" d="M 559 538 Q 634 496 651 502 Q 661 503 661 518 Q 660 528 648 539 Q 623 564 556 558 Q 549 557 551 549 Q 552 542 559 538 Z"/>
  <path id="z38675d9" d="M 331 360 Q 332 361 338 363 Q 368 370 390 381 Q 421 394 448 401 Q 460 402 462 408 Q 465 415 456 423 Q 414 453 390 448 Q 386 445 385 437 Q 385 424 346 397 Q 334 390 320 379 C 296 361 304 347 331 360 Z"/>
  <path id="z38675d10" d="M 355 232 Q 348 271 345 281 L 340 305 Q 331 348 331 360 C 330 375 330 375 320 379 Q 310 385 277 387 Q 265 390 263 384 Q 257 378 266 364 Q 293 318 313 240 Q 317 216 332 202 Q 350 183 354 197 Q 354 200 355 203 L 355 232 Z"/>
  <path id="z38675d11" d="M 345 281 Q 405 294 450 303 Q 469 307 461 318 Q 451 328 430 331 Q 402 334 340 305 C 313 292 316 275 345 281 Z"/>
  <path id="z38675d12" d="M 618 235 Q 618 229 620 223 Q 624 208 635 208 Q 648 209 656 222 Q 669 237 696 312 Q 715 358 750 382 Q 768 395 755 410 Q 740 426 697 454 Q 676 469 643 455 Q 597 449 549 442 Q 536 443 533 439 Q 529 435 543 424 Q 564 411 603 415 Q 657 424 663 418 Q 672 412 665 383 Q 658 361 653 342 L 648 325 Q 630 270 624 254 Q 623 251 621 247 L 618 235 Z"/>
  <path id="z38675d13" d="M 653 342 Q 644 352 628 356 Q 613 359 515 338 Q 502 337 517 322 Q 523 318 535 318 Q 598 322 643 325 Q 644 326 648 325 C 671 324 671 324 653 342 Z"/>
  <path id="z38675d14" d="M 527 226 Q 566 232 613 234 Q 614 235 618 235 C 630 237 630 237 621 247 Q 617 254 598 267 Q 585 274 557 269 Q 445 244 355 232 C 325 228 325 200 355 203 Q 359 203 389 207 L 419 212 Q 450 219 495 223 L 527 226 Z"/>
  <path id="z38675d15" d="M 389 207 Q 379 141 307 79 Q 252 28 136 -20 Q 127 -24 133 -29 Q 157 -47 249 -10 Q 333 20 417 119 Q 432 135 448 150 Q 458 156 456 167 Q 453 179 419 212 C 398 233 395 236 389 207 Z"/>
  <path id="z38675d16" d="M 957 32 Q 944 54 925 128 Q 924 144 917 150 Q 911 154 906 135 Q 878 56 859 31 Q 843 12 796 0 Q 691 -27 600 3 Q 566 18 557 39 Q 542 72 560 184 Q 566 211 527 226 C 501 240 490 246 495 223 Q 494 219 497 209 Q 510 172 508 137 Q 504 46 512 20 Q 519 -8 545 -31 Q 629 -95 806 -71 Q 833 -67 859 -59 Q 905 -44 950 -11 Q 969 5 957 32 Z"/>
<defs>
  <clipPath id="z38675c1"><use href="#z38675d1"/></clipPath>
  <clipPath id="z38675c2"><use href="#z38675d2"/></clipPath>
  <clipPath id="z38675c3"><use href="#z38675d3"/></clipPath>
  <clipPath id="z38675c4"><use href="#z38675d4"/></clipPath>
  <clipPath id="z38675c5"><use href="#z38675d5"/></clipPath>
  <clipPath id="z38675c6"><use href="#z38675d6"/></clipPath>
  <clipPath id="z38675c7"><use href="#z38675d7"/></clipPath>
  <clipPath id="z38675c8"><use href="#z38675d8"/></clipPath>
  <clipPath id="z38675c9"><use href="#z38675d9"/></clipPath>
  <clipPath id="z38675c10"><use href="#z38675d10"/></clipPath>
  <clipPath id="z38675c11"><use href="#z38675d11"/></clipPath>
  <clipPath id="z38675c12"><use href="#z38675d12"/></clipPath>
  <clipPath id="z38675c13"><use href="#z38675d13"/></clipPath>
  <clipPath id="z38675c14"><use href="#z38675d14"/></clipPath>
  <clipPath id="z38675c15"><use href="#z38675d15"/></clipPath>
  <clipPath id="z38675c16"><use href="#z38675d16"/></clipPath>
</defs>
<path style="--d:1s;" pathLength="3333" clip-path="url(#z38675c1)" d="M 362 778 L 420 773 L 537 793 L 623 816 L 669 815"/>
<path style="--d:2s;" pathLength="3333" clip-path="url(#z38675c2)" d="M 220 677 L 230 649 L 228 630 L 188 554 L 183 503"/>
<path style="--d:3s;" pathLength="3333" clip-path="url(#z38675c3)" d="M 260 646 L 271 637 L 314 640 L 405 662 L 559 683 L 634 700 L 771 712 L 796 699 L 811 673 L 734 595"/>
<path style="--d:4s;" pathLength="3333" clip-path="url(#z38675c4)" d="M 471 757 L 501 725 L 494 479"/>
<path style="--d:5s;" pathLength="3333" clip-path="url(#z38675c5)" d="M 334 601 L 369 591 L 404 571"/>
<path style="--d:6s;" pathLength="3333" clip-path="url(#z38675c6)" d="M 317 524 L 366 503 L 385 488"/>
<path style="--d:7s;" pathLength="3333" clip-path="url(#z38675c7)" d="M 572 625 L 618 622 L 655 611"/>
<path style="--d:8s;" pathLength="3333" clip-path="url(#z38675c8)" d="M 562 549 L 614 534 L 648 515"/>
<path style="--d:9s;" pathLength="3333" clip-path="url(#z38675c9)" d="M 451 412 L 409 418 L 337 376 L 332 367"/>
<path style="--d:10s;" pathLength="3333" clip-path="url(#z38675c10)" d="M 272 377 L 304 352 L 344 202"/>
<path style="--d:11s;" pathLength="3333" clip-path="url(#z38675c11)" d="M 352 289 L 357 299 L 390 309 L 433 316 L 453 312"/>
<path style="--d:12s;" pathLength="3333" clip-path="url(#z38675c12)" d="M 538 437 L 578 430 L 668 440 L 691 427 L 703 408 L 707 396 L 680 342 L 636 224"/>
<path style="--d:13s;" pathLength="3333" clip-path="url(#z38675c13)" d="M 516 330 L 630 340 L 646 330"/>
<path style="--d:14s;" pathLength="3333" clip-path="url(#z38675c14)" d="M 357 210 L 370 219 L 552 250 L 597 250 L 614 242"/>
<path style="--d:15s;" pathLength="3333" clip-path="url(#z38675c15)" d="M 398 198 L 411 184 L 415 167 L 380 117 L 335 70 L 302 43 L 232 3 L 179 -18 L 139 -26"/>
<path style="--d:16s;" pathLength="3333" clip-path="url(#z38675c16)" d="M 501 217 L 532 190 L 528 71 L 533 35 L 543 12 L 566 -12 L 585 -22 L 645 -40 L 702 -46 L 772 -41 L 819 -32 L 875 -10 L 909 19 L 916 143"/>
</svg>