<svg id="z38014" class="acjk" viewBox="0 0 1024 1024" xmlns="http://www.w3.org/2000/svg">
<style>
<![CDATA[
@keyframes zk {
	to {
		stroke-dashoffset:0;
	}
}
svg.acjk path[clip-path] {
	--t:0.8s;
	animation:zk var(--t) linear forwards var(--d);
	stroke-dasharray:3337;
	stroke-dashoffset:3339;
	stroke-width:128;
	stroke-linecap:round;
	stroke-linejoin:round;
	fill:none;
	stroke:#000;
}
svg.acjk path[id] {fill:#ccc;}
]]>
</style>
  <path id="z38014d1" d="M 480 834 Q 517 798 548 789 Q 561 788 568 800 Q 572 812 567 826 Q 560 845 543 855 Q 513 870 478 870 Q 469 871 464 867 Q 460 866 462 855 Q 465 845 480 834 Z"/>
  <path id="z38014d2" d="M 440 735 Q 412 728 433 716 Q 463 700 512 713 Q 611 740 621 745 Q 628 752 623 759 Q 616 768 593 772 Q 575 775 502 748 Q 472 741 440 735 Z"/>
  <path id="z38014d3" d="M 450 651 Q 425 644 445 634 Q 466 625 531 642 Q 547 648 567 654 Q 580 658 582 661 Q 586 667 583 672 Q 577 679 556 682 Q 544 682 486 660 Q 470 656 450 651 Z"/>
  <path id="z38014d4" d="M 450 575 Q 425 568 445 558 Q 466 549 531 566 Q 547 572 567 578 Q 580 582 582 585 Q 586 591 583 596 Q 577 603 556 606 Q 544 606 486 584 Q 470 580 450 575 Z"/>
  <path id="z38014d5" d="M 447 511 Q 440 515 414 519 Q 407 520 404 517 Q 400 513 406 502 Q 422 475 433 430 Q 436 417 451 401 C 468 383 465 400 461 430 Q 455 472 452 490 C 449 510 449 510 447 511 Z"/>
  <path id="z38014d6" d="M 592 452 Q 605 483 617 493 Q 633 511 618 522 Q 605 531 585 545 Q 572 552 557 546 Q 521 525 447 511 C 418 505 424 480 452 490 Q 459 494 533 510 Q 555 514 561 506 Q 565 502 561 486 Q 557 473 552 455 C 544 426 580 424 592 452 Z"/>
  <path id="z38014d7" d="M 503 412 Q 537 422 600 430 Q 607 431 609 437 Q 609 443 592 452 L 552 455 L 551 455 Q 502 439 461 430 C 419 421 431 392 503 412 Z"/>
  <path id="z38014d8" d="M 304 649 Q 267 646 241 643 Q 222 642 231 654 Q 271 721 310 770 Q 320 783 319 789 Q 316 799 286 823 Q 274 833 260 830 Q 251 829 256 816 Q 268 789 216 687 Q 206 665 181 644 Q 168 632 169 623 Q 173 608 185 595 Q 194 588 203 593 Q 224 611 290 627 C 319 634 334 651 304 649 Z"/>
  <path id="z38014d9" d="M 353 574 Q 316 564 276 545 Q 264 539 271 551 Q 296 588 355 661 Q 376 689 395 707 Q 404 714 399 723 Q 390 736 364 751 Q 352 758 345 755 Q 338 752 339 741 Q 342 714 304 649 L 290 627 Q 233 543 214 528 Q 204 521 207 510 Q 208 500 229 486 Q 238 479 248 488 Q 294 530 360 559 C 387 571 382 582 353 574 Z"/>
  <path id="z38014d10" d="M 360 559 Q 372 535 385 530 Q 395 526 404 538 Q 408 548 405 565 Q 396 589 358 608 Q 351 612 348 603 Q 345 597 353 574 L 360 559 Z"/>
  <path id="z38014d11" d="M 176 395 Q 197 332 206 326 Q 213 323 222 330 Q 231 337 236 361 Q 239 383 191 429 Q 182 438 177 438 Q 173 437 168 428 Q 167 419 176 395 Z"/>
  <path id="z38014d12" d="M 256 439 Q 277 384 295 378 Q 302 374 311 385 Q 315 394 313 409 Q 309 422 295 432 Q 274 451 265 456 Q 259 459 256 452 Q 253 448 256 439 Z"/>
  <path id="z38014d13" d="M 326 480 Q 353 428 366 425 Q 375 422 382 433 Q 385 442 382 457 Q 375 476 333 497 Q 327 500 324 492 Q 323 486 326 480 Z"/>
  <path id="z38014d14" d="M 738 686 Q 737 689 726 687 Q 695 684 667 681 Q 651 680 659 691 Q 698 746 735 788 Q 745 800 744 805 Q 743 815 716 839 Q 704 849 691 848 Q 682 847 687 834 Q 696 807 644 720 Q 634 701 611 684 Q 598 672 599 664 Q 603 651 614 637 Q 621 630 631 635 L 726 671 C 754 682 758 683 738 686 Z"/>
  <path id="z38014d15" d="M 786 608 Q 749 604 705 591 Q 689 585 699 599 Q 775 686 823 722 Q 833 729 829 737 Q 822 752 798 769 Q 786 776 779 775 Q 770 774 771 761 Q 772 742 738 686 L 726 671 Q 654 589 639 582 Q 629 575 630 565 Q 630 555 649 539 Q 656 529 669 538 Q 712 568 793 594 C 821 603 816 612 786 608 Z"/>
  <path id="z38014d16" d="M 793 594 Q 800 570 821 562 Q 831 558 839 570 Q 843 580 840 597 Q 836 612 821 623 Q 797 642 786 648 Q 779 652 776 643 Q 773 639 786 608 L 793 594 Z"/>
  <path id="z38014d17" d="M 632 465 Q 651 410 669 402 Q 679 398 688 410 Q 692 420 690 437 Q 680 467 642 484 Q 635 488 632 479 Q 629 473 632 465 Z"/>
  <path id="z38014d18" d="M 710 499 Q 737 450 754 444 Q 763 443 770 454 Q 773 464 769 479 Q 765 491 750 499 Q 728 514 717 517 Q 711 520 709 511 Q 706 507 710 499 Z"/>
  <path id="z38014d19" d="M 809 500 Q 854 443 864 441 Q 871 440 878 449 Q 882 459 880 481 Q 879 497 858 512 Q 804 540 796 538 Q 792 537 791 527 Q 792 518 809 500 Z"/>
  <path id="z38014d20" d="M 524 390 Q 525 391 525 393 Q 524 405 503 412 C 476 425 464 428 451 401 Q 408 305 240 188 Q 189 154 113 107 Q 94 95 118 96 Q 193 100 307 189 Q 356 225 398 262 L 412 273 Q 460 327 512 372 C 526 384 526 384 524 390 Z"/>
  <path id="z38014d21" d="M 512 372 Q 555 329 774 191 Q 801 172 838 179 Q 905 189 972 216 Q 990 222 990 227 Q 991 234 976 237 Q 783 268 748 281 Q 681 303 595 349 Q 547 379 524 390 C 497 404 490 392 512 372 Z"/>
  <path id="z38014d22" d="M 398 262 Q 425 235 474 246 L 513 254 Q 589 272 591 273 Q 598 280 595 287 Q 588 296 565 301 Q 541 305 517 296 Q 466 280 414 274 Q 411 274 412 273 C 392 268 392 268 398 262 Z"/>
  <path id="z38014d23" d="M 485 180 Q 461 177 355 162 Q 333 159 350 146 Q 363 134 402 133 Q 439 142 486 148 L 535 156 Q 544 160 639 172 Q 646 171 653 180 Q 654 189 637 197 Q 612 215 541 192 Q 538 192 537 191 L 485 180 Z"/>
  <path id="z38014d24" d="M 474 246 Q 483 231 485 180 L 486 148 Q 486 102 488 14 C 489 -16 528 -12 529 18 Q 532 94 535 156 L 537 191 Q 541 228 536 235 Q 524 247 513 254 C 488 271 462 273 474 246 Z"/>
  <path id="z38014d25" d="M 351 72 Q 390 29 405 27 Q 412 27 417 37 Q 421 47 416 71 Q 409 93 349 109 Q 337 112 332 111 Q 328 108 328 98 Q 331 89 351 72 Z"/>
  <path id="z38014d26" d="M 619 117 Q 603 92 568 55 Q 564 49 567 43 Q 573 42 579 45 Q 645 82 677 97 Q 692 100 689 109 Q 685 122 670 137 Q 657 153 638 156 Q 626 156 626 141 Q 627 129 619 117 Z"/>
  <path id="z38014d27" d="M 488 14 Q 377 4 249 -7 Q 228 -8 243 -26 Q 256 -39 273 -45 Q 292 -51 309 -47 Q 511 -2 781 -22 Q 800 -22 805 -14 Q 811 -4 796 11 Q 744 51 681 39 Q 618 30 529 18 L 488 14 Z"/>
<defs>
  <clipPath id="z38014c1"><use href="#z38014d1"/></clipPath>
  <clipPath id="z38014c2"><use href="#z38014d2"/></clipPath>
  <clipPath id="z38014c3"><use href="#z38014d3"/></clipPath>
  <clipPath id="z38014c4"><use href="#z38014d4"/></clipPath>
  <clipPath id="z38014c5"><use href="#z38014d5"/></clipPath>
  <clipPath id="z38014c6"><use href="#z38014d6"/></clipPath>
  <clipPath id="z38014c7"><use href="#z38014d7"/></clipPath>
  <clipPath id="z38014c8"><use href="#z38014d8"/></clipPath>
  <clipPath id="z38014c9"><use href="#z38014d9"/></clipPath>
  <clipPath id="z38014c10"><use href="#z38014d10"/></clipPath>
  <clipPath id="z38014c11"><use href="#z38014d11"/></clipPath>
  <clipPath id="z38014c12"><use href="#z38014d12"/></clipPath>
  <clipPath id="z38014c13"><use href="#z38014d13"/></clipPath>
  <clipPath id="z38014c14"><use href="#z38014d14"/></clipPath>
  <clipPath id="z38014c15"><use href="#z38014d15"/></clipPath>
  <clipPath id="z38014c16"><use href="#z38014d16"/></clipPath>
  <clipPath id="z38014c17"><use href="#z38014d17"/></clipPath>
  <clipPath id="z38014c18"><use href="#z38014d18"/></clipPath>
  <clipPath id="z38014c19"><use href="#z38014d19"/></clipPath>
  <clipPath id="z38014c20"><use href="#z38014d20"/></clipPath>
  <clipPath id="z38014c21"><use href="#z38014d21"/></clipPath>
  <clipPath id="z38014c22"><use href="#z38014d22"/></clipPath>
  <clipPath id="z38014c23"><use href="#z38014d23"/></clipPath>
  <clipPath id="z38014c24"><use href="#z38014d24"/></clipPath>
  <clipPath id="z38014c25"><use href="#z38014d25"/></clipPath>
  <clipPath id="z38014c26"><use href="#z38014d26"/></clipPath>
  <clipPath id="z38014c27"><use href="#z38014d27"/></clipPath>
</defs>
<path style="--d:1s;" pathLength="3333" clip-path="url(#z38014c1)" d="M 473 859 L 531 829 L 550 809"/>
<path style="--d:2s;" pathLength="3333" clip-path="url(#z38014c2)" d="M 435 726 L 483 725 L 583 753 L 615 753"/>
<path style="--d:3s;" pathLength="3333" clip-path="url(#z38014c3)" d="M 445 643 L 483 645 L 548 665 L 574 667"/>
<path style="--d:4s;" pathLength="3333" clip-path="url(#z38014c4)" d="M 445 567 L 483 569 L 548 589 L 574 591"/>
<path style="--d:5s;" pathLength="3333" clip-path="url(#z38014c5)" d="M 411 510 L 430 497 L 436 482 L 450 409"/>
<path style="--d:6s;" pathLength="3333" clip-path="url(#z38014c6)" d="M 452 496 L 475 509 L 499 510 L 548 526 L 572 526 L 588 511 L 588 496 L 579 474 L 559 459"/>
<path style="--d:7s;" pathLength="3333" clip-path="url(#z38014c7)" d="M 456 407 L 470 419 L 547 439 L 602 437"/>
<path style="--d:8s;" pathLength="3333" clip-path="url(#z38014c8)" d="M 267 821 L 286 785 L 218 662 L 211 632 L 257 630 L 287 637 L 295 647"/>
<path style="--d:9s;" pathLength="3333" clip-path="url(#z38014c9)" d="M 350 745 L 365 717 L 335 664 L 258 559 L 253 529 L 279 530 L 337 560 L 351 559"/>
<path style="--d:10s;" pathLength="3333" clip-path="url(#z38014c10)" d="M 357 598 L 390 545"/>
<path style="--d:11s;" pathLength="3333" clip-path="url(#z38014c11)" d="M 177 429 L 212 364 L 210 334"/>
<path style="--d:12s;" pathLength="3333" clip-path="url(#z38014c12)" d="M 264 446 L 289 414 L 299 390"/>
<path style="--d:13s;" pathLength="3333" clip-path="url(#z38014c13)" d="M 333 487 L 351 470 L 370 438"/>
<path style="--d:14s;" pathLength="3333" clip-path="url(#z38014c14)" d="M 696 839 L 713 804 L 645 697 L 642 668 L 659 664 L 716 676 L 732 685"/>
<path style="--d:15s;" pathLength="3333" clip-path="url(#z38014c15)" d="M 781 765 L 795 736 L 747 671 L 684 605 L 679 578 L 702 574 L 756 594 L 782 597"/>
<path style="--d:16s;" pathLength="3333" clip-path="url(#z38014c16)" d="M 784 640 L 826 576"/>
<path style="--d:17s;" pathLength="3333" clip-path="url(#z38014c17)" d="M 642 472 L 674 417"/>
<path style="--d:18s;" pathLength="3333" clip-path="url(#z38014c18)" d="M 718 507 L 745 480 L 756 455"/>
<path style="--d:19s;" pathLength="3333" clip-path="url(#z38014c19)" d="M 798 530 L 849 489 L 866 450"/>
<path style="--d:20s;" pathLength="3333" clip-path="url(#z38014c20)" d="M 515 395 L 471 375 L 402 293 L 288 197 L 215 148 L 123 105"/>
<path style="--d:21s;" pathLength="3333" clip-path="url(#z38014c21)" d="M 525 383 L 528 374 L 646 298 L 806 222 L 897 220 L 984 228"/>
<path style="--d:22s;" pathLength="3333" clip-path="url(#z38014c22)" d="M 406 260 L 462 262 L 548 283 L 587 282"/>
<path style="--d:23s;" pathLength="3333" clip-path="url(#z38014c23)" d="M 351 154 L 404 151 L 588 185 L 645 182"/>
<path style="--d:24s;" pathLength="3333" clip-path="url(#z38014c24)" d="M 481 245 L 507 226 L 512 204 L 508 42 L 507 34 L 494 24"/>
<path style="--d:25s;" pathLength="3333" clip-path="url(#z38014c25)" d="M 335 103 L 391 66 L 405 39"/>
<path style="--d:26s;" pathLength="3333" clip-path="url(#z38014c26)" d="M 638 144 L 650 116 L 572 49"/>
<path style="--d:27s;" pathLength="3333" clip-path="url(#z38014c27)" d="M 246 -17 L 300 -26 L 437 -7 L 693 12 L 752 7 L 794 -8"/>
</svg>