<svg id="z37499" class="acjk" viewBox="0 0 1024 1024" xmlns="http://www.w3.org/2000/svg">
<style>
<![CDATA[
@keyframes zk {
	to {
		stroke-dashoffset:0;
	}
}
svg.acjk path[clip-path] {
	--t:0.8s;
	animation:zk var(--t) linear forwards var(--d);
	stroke-dasharray:3337;
	stroke-dashoffset:3339;
	stroke-width:128;
	stroke-linecap:round;
	stroke-linejoin:round;
	fill:none;
	stroke:#000;
}
svg.acjk path[id] {fill:#ccc;}
]]>
</style>
  <path id="z37499d1" d="M 209 467 Q 275 555 337 677 L 348 699 Q 360 732 378 755 Q 385 762 382 772 Q 379 782 365 793 Q 331 821 293 811 Q 284 807 288 795 Q 318 717 198 528 Q 102 407 40 337 Q 33 330 43 329 Q 79 335 192 447 L 209 467 Z"/>
  <path id="z37499d2" d="M 337 677 Q 341 671 355 662 Q 388 640 423 613 Q 433 603 446 605 Q 453 606 457 616 Q 460 628 452 650 Q 440 683 349 699 L 348 699 C 318 703 318 700 337 677 Z"/>
  <path id="z37499d3" d="M 308 452 Q 339 462 375 472 Q 394 479 398 482 Q 405 491 400 498 Q 393 508 365 511 Q 344 514 267 482 Q 240 475 209 467 C 180 460 168 456 192 447 Q 195 447 197 445 Q 230 433 266 439 L 308 452 Z"/>
  <path id="z37499d4" d="M 322 335 Q 350 345 381 353 Q 412 363 417 368 Q 424 375 419 382 Q 412 392 387 396 Q 359 399 324 382 L 273 362 Q 266 361 262 359 Q 219 346 169 337 Q 138 330 162 316 Q 201 300 246 314 Q 258 318 273 321 L 322 335 Z"/>
  <path id="z37499d5" d="M 313 149 Q 317 252 322 335 L 324 382 Q 324 383 325 384 Q 328 432 326 436 Q 317 445 308 452 C 285 471 257 468 266 439 Q 266 438 268 435 Q 272 420 273 362 L 273 321 Q 273 257 272 136 C 272 106 312 119 313 149 Z"/>
  <path id="z37499d6" d="M 148 235 Q 187 166 211 160 Q 223 157 230 172 Q 234 182 228 202 Q 221 218 201 231 Q 170 253 155 258 Q 148 261 145 251 Q 142 244 148 235 Z"/>
  <path id="z37499d7" d="M 381 280 Q 368 255 342 213 Q 339 209 343 203 Q 349 203 354 207 Q 408 253 434 270 Q 447 274 443 283 Q 437 293 422 305 Q 407 317 391 316 Q 381 315 383 301 Q 386 291 381 280 Z"/>
  <path id="z37499d8" d="M 272 136 Q 211 120 146 101 Q 127 95 94 97 Q 81 96 79 85 Q 78 72 86 62 Q 110 46 144 26 Q 154 23 167 32 Q 206 60 381 138 Q 406 148 424 163 Q 437 170 438 180 Q 432 186 420 183 Q 368 167 313 149 L 272 136 Z"/>
  <path id="z37499d9" d="M 596 654 Q 644 747 653 755 Q 660 765 655 778 Q 651 788 623 807 Q 598 820 580 819 Q 564 816 573 797 Q 609 736 447 488 Q 440 478 438 473 Q 435 463 448 466 Q 461 470 510 526 L 523 543 Q 550 580 580 627 L 596 654 Z"/>
  <path id="z37499d10" d="M 657 442 Q 658 446 662 449 Q 702 510 743 585 Q 761 616 793 648 Q 806 661 800 669 Q 797 679 733 697 Q 714 706 694 690 Q 678 680 654 671 Q 623 662 596 654 C 567 646 551 633 580 627 Q 604 615 656 636 Q 680 643 689 634 Q 698 613 617 470 L 599 440 Q 595 434 590 426 Q 544 356 452 259 Q 440 246 454 246 Q 464 247 505 277 Q 542 302 584 349 Q 608 377 633 409 L 657 442 Z"/>
  <path id="z37499d11" d="M 633 409 Q 774 280 810 272 Q 873 263 971 288 Q 990 292 991 296 Q 992 303 978 308 Q 923 327 857 345 Q 770 372 657 442 L 617 470 L 593 488 Q 544 528 523 543 C 499 561 488 547 510 526 L 599 440 L 633 409 Z"/>
  <path id="z37499d12" d="M 520 219 Q 510 226 472 233 Q 460 236 457 231 Q 450 225 459 209 Q 487 148 504 46 Q 507 16 524 -4 Q 542 -26 547 -11 Q 551 4 551 28 L 547 59 Q 531 153 528 187 C 525 216 525 216 520 219 Z"/>
  <path id="z37499d13" d="M 741 89 Q 762 170 797 199 Q 813 218 798 235 Q 782 248 729 270 Q 711 277 690 269 Q 615 236 520 219 C 491 214 499 181 528 187 Q 531 187 680 220 Q 696 224 703 217 Q 713 208 711 188 Q 702 133 691 89 C 684 60 733 60 741 89 Z"/>
  <path id="z37499d14" d="M 551 28 Q 558 27 568 29 Q 628 42 757 56 Q 767 57 768 65 Q 768 72 741 89 C 728 98 720 96 691 89 Q 609 70 547 59 C 517 54 521 29 551 28 Z"/>
<defs>
  <clipPath id="z37499c1"><use href="#z37499d1"/></clipPath>
  <clipPath id="z37499c2"><use href="#z37499d2"/></clipPath>
  <clipPath id="z37499c3"><use href="#z37499d3"/></clipPath>
  <clipPath id="z37499c4"><use href="#z37499d4"/></clipPath>
  <clipPath id="z37499c5"><use href="#z37499d5"/></clipPath>
  <clipPath id="z37499c6"><use href="#z37499d6"/></clipPath>
  <clipPath id="z37499c7"><use href="#z37499d7"/></clipPath>
  <clipPath id="z37499c8"><use href="#z37499d8"/></clipPath>
  <clipPath id="z37499c9"><use href="#z37499d9"/></clipPath>
  <clipPath id="z37499c10"><use href="#z37499d10"/></clipPath>
  <clipPath id="z37499c11"><use href="#z37499d11"/></clipPath>
  <clipPath id="z37499c12"><use href="#z37499d12"/></clipPath>
  <clipPath id="z37499c13"><use href="#z37499d13"/></clipPath>
  <clipPath id="z37499c14"><use href="#z37499d14"/></clipPath>
</defs>
<path style="--d:1s;" pathLength="3333" clip-path="url(#z37499c1)" d="M 298 801 L 335 765 L 309 682 L 266 595 L 220 520 L 168 453 L 75 357 L 45 334"/>
<path style="--d:2s;" pathLength="3333" clip-path="url(#z37499c2)" d="M 349 692 L 359 680 L 414 653 L 441 621"/>
<path style="--d:3s;" pathLength="3333" clip-path="url(#z37499c3)" d="M 197 452 L 257 458 L 356 489 L 390 491"/>
<path style="--d:4s;" pathLength="3333" clip-path="url(#z37499c4)" d="M 163 327 L 221 327 L 362 372 L 408 376"/>
<path style="--d:5s;" pathLength="3333" clip-path="url(#z37499c5)" d="M 273 440 L 299 420 L 294 175 L 288 156 L 276 146"/>
<path style="--d:6s;" pathLength="3333" clip-path="url(#z37499c6)" d="M 155 247 L 200 201 L 214 176"/>
<path style="--d:7s;" pathLength="3333" clip-path="url(#z37499c7)" d="M 393 306 L 408 283 L 347 208"/>
<path style="--d:8s;" pathLength="3333" clip-path="url(#z37499c8)" d="M 93 83 L 114 72 L 149 65 L 432 177"/>
<path style="--d:9s;" pathLength="3333" clip-path="url(#z37499c9)" d="M 582 806 L 595 798 L 616 767 L 599 716 L 543 606 L 492 526 L 445 473"/>
<path style="--d:10s;" pathLength="3333" clip-path="url(#z37499c10)" d="M 587 632 L 685 661 L 720 659 L 733 650 L 719 607 L 676 520 L 602 403 L 522 310 L 456 253"/>
<path style="--d:11s;" pathLength="3333" clip-path="url(#z37499c11)" d="M 524 536 L 525 526 L 656 415 L 798 323 L 855 307 L 986 298"/>
<path style="--d:12s;" pathLength="3333" clip-path="url(#z37499c12)" d="M 466 223 L 496 196 L 501 180 L 536 -5"/>
<path style="--d:13s;" pathLength="3333" clip-path="url(#z37499c13)" d="M 528 193 L 539 206 L 679 242 L 703 246 L 727 238 L 752 213 L 722 113 L 697 94"/>
<path style="--d:14s;" pathLength="3333" clip-path="url(#z37499c14)" d="M 555 36 L 566 46 L 697 70 L 735 72 L 759 64"/>
</svg>