<svg id="z38237" class="acjk" viewBox="0 0 1024 1024" xmlns="http://www.w3.org/2000/svg">
<style>
<![CDATA[
@keyframes zk {
	to {
		stroke-dashoffset:0;
	}
}
svg.acjk path[clip-path] {
	--t:0.8s;
	animation:zk var(--t) linear forwards var(--d);
	stroke-dasharray:3337;
	stroke-dashoffset:3339;
	stroke-width:128;
	stroke-linecap:round;
	stroke-linejoin:round;
	fill:none;
	stroke:#000;
}
svg.acjk path[id] {fill:#ccc;}
]]>
</style>
  <path id="z38237d1" d="M 290 628 Q 347 721 366 740 Q 375 750 370 764 Q 366 777 338 800 Q 311 818 293 817 Q 274 816 282 794 Q 297 763 285 735 Q 248 644 191 560 Q 137 479 63 390 Q 53 380 50 374 Q 47 364 61 366 Q 106 373 270 596 Q 271 600 275 604 L 290 628 Z"/>
  <path id="z38237d2" d="M 275 604 Q 311 591 383 610 Q 410 617 441 626 Q 459 632 461 634 Q 468 641 464 650 Q 457 660 429 664 Q 416 665 333 638 Q 311 632 290 628 C 261 622 246 613 275 604 Z"/>
  <path id="z38237d3" d="M 294 461 Q 293 462 295 462 Q 422 504 426 506 Q 433 515 428 522 Q 421 532 393 535 Q 365 538 339 523 Q 312 511 283 501 Q 252 491 212 483 Q 181 474 205 461 Q 226 454 250 453 C 273 452 273 452 294 461 Z"/>
  <path id="z38237d4" d="M 320 332 Q 408 359 413 362 Q 420 369 416 377 Q 409 387 381 392 Q 339 398 321 380 L 273 362 Q 176 338 158 335 Q 125 328 150 313 Q 189 295 255 315 Q 264 318 275 320 L 320 332 Z"/>
  <path id="z38237d5" d="M 275 320 Q 275 182 231 121 Q 195 106 237 50 Q 238 47 243 43 Q 256 36 267 51 Q 282 79 422 194 Q 440 206 444 214 Q 448 224 438 224 Q 423 223 320 165 Q 310 159 309 169 Q 318 259 320 332 L 321 380 Q 322 399 326 416 Q 330 429 321 439 Q 308 452 294 461 C 270 479 239 481 250 453 Q 269 411 273 362 L 275 320 Z"/>
  <path id="z38237d6" d="M 613 783 Q 647 761 682 733 Q 698 721 714 724 Q 724 725 729 740 Q 732 756 719 786 Q 704 820 603 833 Q 587 834 580 831 Q 576 827 578 813 Q 582 803 613 783 Z"/>
  <path id="z38237d7" d="M 745 650 Q 751 653 846 664 Q 856 663 865 675 Q 866 685 844 696 Q 817 717 714 687 Q 705 686 696 683 Q 639 671 516 655 Q 489 652 510 635 Q 544 611 568 618 Q 631 631 713 645 L 745 650 Z"/>
  <path id="z38237d8" d="M 547 564 Q 569 498 588 491 Q 598 487 608 499 Q 612 509 611 527 Q 605 557 559 583 Q 552 587 548 579 Q 544 573 547 564 Z"/>
  <path id="z38237d9" d="M 719 497 Q 776 593 779 597 Q 791 609 783 618 Q 774 633 745 650 C 719 665 704 674 713 645 Q 713 642 716 637 Q 726 613 695 512 Q 691 499 688 489 C 679 460 704 471 719 497 Z"/>
  <path id="z38237d10" d="M 517 461 Q 496 482 465 482 Q 452 478 457 467 Q 508 356 454 149 Q 430 86 432 76 Q 432 49 448 29 Q 455 16 464 21 Q 500 43 506 168 Q 516 375 523 427 C 526 454 526 454 517 461 Z"/>
  <path id="z38237d11" d="M 523 427 Q 523 428 526 428 Q 646 459 792 482 Q 808 483 814 475 Q 824 469 828 422 Q 838 265 829 87 Q 829 62 819 54 Q 807 45 749 57 Q 733 61 734 51 Q 735 44 748 37 Q 800 -6 827 -39 Q 848 -60 860 -57 Q 873 -54 884 -26 Q 900 20 900 85 Q 887 308 888 391 Q 889 428 900 449 Q 912 468 902 480 Q 892 495 849 518 Q 831 527 813 523 Q 780 513 719 497 L 688 489 Q 684 490 678 488 Q 599 472 517 461 C 487 457 494 419 523 427 Z"/>
  <path id="z38237d12" d="M 678 340 Q 780 370 784 372 Q 790 378 786 384 Q 782 391 760 396 Q 736 399 686 377 L 639 362 Q 608 356 576 350 Q 551 346 569 334 Q 594 322 637 329 L 678 340 Z"/>
  <path id="z38237d13" d="M 662 271 Q 669 307 678 340 L 686 377 Q 692 392 698 408 Q 701 415 689 426 Q 667 442 650 447 Q 640 450 634 445 Q 628 441 632 430 Q 641 415 639 362 L 637 329 Q 636 299 631 264 C 627 234 656 242 662 271 Z"/>
  <path id="z38237d14" d="M 585 257 Q 578 261 562 264 Q 553 267 550 263 Q 546 259 551 247 Q 567 210 577 148 Q 578 129 588 117 Q 601 101 605 112 Q 609 121 608 135 L 607 159 Q 601 217 601 234 C 601 250 601 250 585 257 Z"/>
  <path id="z38237d15" d="M 751 177 Q 766 220 781 233 Q 800 254 782 266 Q 766 276 744 292 Q 729 302 713 293 Q 689 280 662 271 L 631 264 Q 610 261 585 257 C 555 252 572 228 601 234 L 687 252 Q 712 256 717 247 Q 718 246 706 182 C 700 153 741 149 751 177 Z"/>
  <path id="z38237d16" d="M 608 135 Q 609 135 611 134 Q 620 133 630 134 Q 670 144 759 152 Q 766 153 768 160 Q 768 166 751 177 C 733 189 733 189 706 182 Q 651 167 607 159 C 578 154 579 142 608 135 Z"/>
<defs>
  <clipPath id="z38237c1"><use href="#z38237d1"/></clipPath>
  <clipPath id="z38237c2"><use href="#z38237d2"/></clipPath>
  <clipPath id="z38237c3"><use href="#z38237d3"/></clipPath>
  <clipPath id="z38237c4"><use href="#z38237d4"/></clipPath>
  <clipPath id="z38237c5"><use href="#z38237d5"/></clipPath>
  <clipPath id="z38237c6"><use href="#z38237d6"/></clipPath>
  <clipPath id="z38237c7"><use href="#z38237d7"/></clipPath>
  <clipPath id="z38237c8"><use href="#z38237d8"/></clipPath>
  <clipPath id="z38237c9"><use href="#z38237d9"/></clipPath>
  <clipPath id="z38237c10"><use href="#z38237d10"/></clipPath>
  <clipPath id="z38237c11"><use href="#z38237d11"/></clipPath>
  <clipPath id="z38237c12"><use href="#z38237d12"/></clipPath>
  <clipPath id="z38237c13"><use href="#z38237d13"/></clipPath>
  <clipPath id="z38237c14"><use href="#z38237d14"/></clipPath>
  <clipPath id="z38237c15"><use href="#z38237d15"/></clipPath>
  <clipPath id="z38237c16"><use href="#z38237d16"/></clipPath>
</defs>
<path style="--d:1s;" pathLength="3333" clip-path="url(#z38237c1)" d="M 292 803 L 317 780 L 328 758 L 276 651 L 230 576 L 140 456 L 86 396 L 58 374"/>
<path style="--d:2s;" pathLength="3333" clip-path="url(#z38237c2)" d="M 282 608 L 423 643 L 453 644"/>
<path style="--d:3s;" pathLength="3333" clip-path="url(#z38237c3)" d="M 206 473 L 244 471 L 303 484 L 375 513 L 422 513"/>
<path style="--d:4s;" pathLength="3333" clip-path="url(#z38237c4)" d="M 151 325 L 208 326 L 277 341 L 355 369 L 407 371"/>
<path style="--d:5s;" pathLength="3333" clip-path="url(#z38237c5)" d="M 258 448 L 287 432 L 295 421 L 298 326 L 294 241 L 282 164 L 286 133 L 331 145 L 437 217"/>
<path style="--d:6s;" pathLength="3333" clip-path="url(#z38237c6)" d="M 586 825 L 682 777 L 710 743"/>
<path style="--d:7s;" pathLength="3333" clip-path="url(#z38237c7)" d="M 511 646 L 559 638 L 799 682 L 855 677"/>
<path style="--d:8s;" pathLength="3333" clip-path="url(#z38237c8)" d="M 557 571 L 588 526 L 593 506"/>
<path style="--d:9s;" pathLength="3333" clip-path="url(#z38237c9)" d="M 719 643 L 741 626 L 749 608 L 714 515 L 692 494"/>
<path style="--d:10s;" pathLength="3333" clip-path="url(#z38237c10)" d="M 466 472 L 489 453 L 495 440 L 500 366 L 492 226 L 459 31"/>
<path style="--d:11s;" pathLength="3333" clip-path="url(#z38237c11)" d="M 523 433 L 535 447 L 790 499 L 814 501 L 833 495 L 862 463 L 861 49 L 845 13 L 798 25 L 742 51"/>
<path style="--d:12s;" pathLength="3333" clip-path="url(#z38237c12)" d="M 571 343 L 640 345 L 745 379 L 780 379"/>
<path style="--d:13s;" pathLength="3333" clip-path="url(#z38237c13)" d="M 642 436 L 667 407 L 651 296 L 638 270"/>
<path style="--d:14s;" pathLength="3333" clip-path="url(#z38237c14)" d="M 556 258 L 580 229 L 597 117"/>
<path style="--d:15s;" pathLength="3333" clip-path="url(#z38237c15)" d="M 594 255 L 606 247 L 728 271 L 750 248 L 735 203 L 715 192"/>
<path style="--d:16s;" pathLength="3333" clip-path="url(#z38237c16)" d="M 612 141 L 702 164 L 760 160"/>
</svg>