<svg id="z36887" class="acjk" viewBox="0 0 1024 1024" xmlns="http://www.w3.org/2000/svg">
<style>
<![CDATA[
@keyframes zk {
	to {
		stroke-dashoffset:0;
	}
}
svg.acjk path[clip-path] {
	--t:0.8s;
	animation:zk var(--t) linear forwards var(--d);
	stroke-dasharray:3337;
	stroke-dashoffset:3339;
	stroke-width:128;
	stroke-linecap:round;
	stroke-linejoin:round;
	fill:none;
	stroke:#000;
}
svg.acjk path[id] {fill:#ccc;}
]]>
</style>
  <path id="z36887d1" d="M 501 748 Q 461 741 491 723 Q 536 699 596 716 Q 668 734 741 751 Q 775 761 780 765 Q 790 775 784 783 Q 775 796 744 802 Q 716 808 622 773 Q 550 755 501 748 Z"/>
  <path id="z36887d2" d="M 498 612 Q 486 616 456 619 Q 443 620 441 615 Q 435 608 445 594 Q 473 551 495 478 Q 499 456 515 442 Q 534 423 538 438 Q 541 447 540 459 L 534 492 Q 518 559 515 583 C 511 608 511 608 498 612 Z"/>
  <path id="z36887d3" d="M 747 513 Q 774 573 799 588 Q 815 606 802 623 Q 733 681 678 654 Q 609 630 498 612 C 468 607 486 576 515 583 Q 692 628 708 612 Q 717 603 698 526 C 691 497 734 486 747 513 Z"/>
  <path id="z36887d4" d="M 540 459 Q 546 459 555 460 Q 616 473 752 486 Q 762 487 764 496 Q 764 502 747 513 C 724 529 724 529 698 526 Q 692 526 687 524 Q 603 502 534 492 C 504 488 510 458 540 459 Z"/>
  <path id="z36887d5" d="M 485 362 Q 503 325 533 294 Q 545 288 556 298 Q 563 307 565 322 Q 562 358 504 392 Q 491 399 483 399 Q 477 399 477 388 Q 476 378 485 362 Z"/>
  <path id="z36887d6" d="M 674 263 Q 707 308 729 345 Q 739 363 759 384 Q 774 394 766 406 Q 757 422 730 443 Q 717 453 700 449 Q 690 445 695 434 Q 704 395 647 278 Q 641 268 639 258 C 631 229 656 239 674 263 Z"/>
  <path id="z36887d7" d="M 639 258 Q 614 257 429 230 Q 407 229 423 211 Q 436 198 455 192 Q 476 186 492 190 Q 595 217 838 216 Q 857 216 863 224 Q 869 236 852 250 Q 792 293 725 273 Q 701 270 674 263 L 639 258 Z"/>
  <path id="z36887d8" d="M 241 722 Q 268 697 297 665 Q 312 649 330 650 Q 342 650 348 665 Q 355 681 346 716 Q 337 749 237 777 Q 219 781 212 779 Q 206 775 207 760 Q 211 747 241 722 Z"/>
  <path id="z36887d9" d="M 309 195 Q 321 205 327 219 Q 339 259 298 324 Q 268 372 327 463 Q 333 473 341 481 Q 363 500 343 516 Q 321 532 285 546 Q 263 558 227 530 Q 140 485 116 486 Q 107 487 106 482 Q 105 476 113 472 Q 152 454 233 484 Q 243 488 254 474 Q 276 453 256 424 Q 216 378 257 307 Q 287 255 285 227 Q 284 209 280 198 C 273 169 289 173 309 195 Z"/>
  <path id="z36887d10" d="M 280 198 Q 232 202 184 185 Q 148 170 94 165 Q 88 165 84 156 Q 81 149 90 139 Q 108 121 132 110 Q 144 104 162 119 Q 231 170 301 157 Q 368 142 506 82 Q 731 -20 820 -1 Q 823 2 828 2 Q 891 24 944 61 Q 966 77 943 77 Q 720 68 545 119 Q 467 143 373 178 Q 342 191 309 195 L 280 198 Z"/>
<defs>
  <clipPath id="z36887c1"><use href="#z36887d1"/></clipPath>
  <clipPath id="z36887c2"><use href="#z36887d2"/></clipPath>
  <clipPath id="z36887c3"><use href="#z36887d3"/></clipPath>
  <clipPath id="z36887c4"><use href="#z36887d4"/></clipPath>
  <clipPath id="z36887c5"><use href="#z36887d5"/></clipPath>
  <clipPath id="z36887c6"><use href="#z36887d6"/></clipPath>
  <clipPath id="z36887c7"><use href="#z36887d7"/></clipPath>
  <clipPath id="z36887c8"><use href="#z36887d8"/></clipPath>
  <clipPath id="z36887c9"><use href="#z36887d9"/></clipPath>
  <clipPath id="z36887c10"><use href="#z36887d10"/></clipPath>
</defs>
<path style="--d:1s;" pathLength="3333" clip-path="url(#z36887c1)" d="M 492 737 L 516 731 L 568 735 L 724 775 L 773 776"/>
<path style="--d:2s;" pathLength="3333" clip-path="url(#z36887c2)" d="M 451 608 L 477 591 L 488 574 L 527 443"/>
<path style="--d:3s;" pathLength="3333" clip-path="url(#z36887c3)" d="M 508 611 L 528 601 L 692 638 L 724 635 L 754 606 L 732 546 L 707 536"/>
<path style="--d:4s;" pathLength="3333" clip-path="url(#z36887c4)" d="M 542 488 L 552 478 L 697 503 L 754 495"/>
<path style="--d:5s;" pathLength="3333" clip-path="url(#z36887c5)" d="M 486 390 L 532 336 L 542 311"/>
<path style="--d:6s;" pathLength="3333" clip-path="url(#z36887c6)" d="M 708 438 L 728 400 L 674 292 L 644 262"/>
<path style="--d:7s;" pathLength="3333" clip-path="url(#z36887c7)" d="M 426 221 L 483 213 L 569 228 L 774 248 L 852 230"/>
<path style="--d:8s;" pathLength="3333" clip-path="url(#z36887c8)" d="M 217 771 L 311 705 L 329 670"/>
<path style="--d:9s;" pathLength="3333" clip-path="url(#z36887c9)" d="M 113 479 L 155 480 L 251 512 L 269 511 L 295 492 L 290 445 L 262 377 L 271 325 L 300 273 L 308 238 L 302 214 L 288 203"/>
<path style="--d:10s;" pathLength="3333" clip-path="url(#z36887c10)" d="M 97 152 L 141 142 L 222 174 L 272 180 L 313 175 L 607 71 L 757 39 L 810 37 L 947 69"/>
</svg>