<svg id="z36747" class="acjk" viewBox="0 0 1024 1024" xmlns="http://www.w3.org/2000/svg">
<style>
<![CDATA[
@keyframes zk {
	to {
		stroke-dashoffset:0;
	}
}
svg.acjk path[clip-path] {
	--t:0.8s;
	animation:zk var(--t) linear forwards var(--d);
	stroke-dasharray:3337;
	stroke-dashoffset:3339;
	stroke-width:128;
	stroke-linecap:round;
	stroke-linejoin:round;
	fill:none;
	stroke:#000;
}
svg.acjk path[id] {fill:#ccc;}
]]>
</style>
  <path id="z36747d1" d="M 276 640 Q 420 677 424 681 Q 431 688 427 697 Q 420 707 392 714 Q 356 720 299 693 L 247 677 Q 201 667 148 660 Q 112 653 139 638 Q 175 617 232 630 L 276 640 Z"/>
  <path id="z36747d2" d="M 351 450 Q 379 457 405 460 Q 433 464 424 477 Q 414 489 398 495 Q 374 502 353 487 L 303 473 Q 264 464 222 453 Q 210 450 208 453 Q 207 454 208 465 Q 236 544 276 640 L 299 693 Q 342 780 347 785 Q 359 797 343 816 Q 318 841 297 854 Q 284 861 274 859 Q 267 855 272 833 Q 281 806 247 677 L 232 630 Q 231 629 231 625 Q 177 490 141 449 Q 126 433 132 419 Q 139 400 150 390 Q 159 380 169 386 Q 229 423 303 438 L 351 450 Z"/>
  <path id="z36747d3" d="M 295 279 Q 283 161 277 144 Q 268 108 301 53 Q 311 34 320 29 Q 332 28 337 41 Q 350 74 347 105 Q 346 208 346 301 L 347 337 Q 347 386 351 450 L 353 487 Q 354 521 359 539 Q 362 552 354 558 Q 332 579 312 588 Q 299 592 290 585 Q 284 581 291 571 Q 301 553 303 473 L 303 438 Q 299 330 298 320 L 295 279 Z"/>
  <path id="z36747d4" d="M 346 301 Q 356 308 371 313 Q 428 340 430 356 Q 424 362 412 359 Q 381 349 347 337 L 298 320 Q 217 296 127 269 Q 108 262 74 263 Q 61 262 59 251 Q 58 238 66 230 Q 88 214 122 195 Q 132 192 144 201 Q 187 235 295 279 L 346 301 Z"/>
  <path id="z36747d5" d="M 481 672 Q 468 679 454 684 Q 444 687 438 678 Q 434 671 442 660 Q 493 531 456 259 Q 449 214 434 169 Q 427 142 430 122 Q 440 86 452 73 Q 464 58 474 73 Q 507 112 507 270 Q 507 546 520 630 Q 520 631 520 632 C 522 652 508 659 481 672 Z"/>
  <path id="z36747d6" d="M 520 632 Q 635 663 776 686 Q 801 692 815 678 Q 828 671 833 608 Q 849 397 839 158 Q 839 122 826 113 Q 810 103 737 122 Q 721 125 722 115 Q 723 108 736 102 Q 802 56 836 20 Q 857 1 870 3 Q 882 6 893 35 Q 908 80 907 146 Q 880 614 900 659 Q 912 681 901 693 Q 891 709 842 732 Q 821 741 751 721 Q 615 688 481 672 C 451 668 491 624 520 632 Z"/>
  <path id="z36747d7" d="M 565 585 Q 598 531 620 527 Q 630 526 638 540 Q 639 550 633 568 Q 626 581 609 589 Q 582 604 570 606 Q 563 609 561 599 Q 560 592 565 585 Z"/>
  <path id="z36747d8" d="M 706 612 Q 694 581 665 531 Q 662 524 667 519 Q 674 519 680 524 Q 740 582 771 605 Q 784 612 780 620 Q 773 633 754 645 Q 735 658 716 656 Q 704 655 708 638 Q 712 626 706 612 Z"/>
  <path id="z36747d9" d="M 563 486 Q 533 482 554 467 Q 584 451 647 462 Q 692 471 739 480 Q 763 486 767 489 Q 774 496 770 503 Q 764 512 741 518 Q 717 522 693 513 Q 665 503 635 496 Q 601 489 563 486 Z"/>
  <path id="z36747d10" d="M 689 376 Q 689 377 690 377 Q 694 386 692 407 Q 689 425 635 451 Q 625 455 620 454 Q 616 453 616 443 Q 617 436 632 418 Q 645 402 659 381 Q 665 374 670 371 C 681 363 681 363 689 376 Z"/>
  <path id="z36747d11" d="M 609 325 Q 654 334 790 354 Q 797 353 805 363 Q 806 372 788 381 Q 763 397 689 376 L 670 371 Q 628 362 591 358 Q 564 355 535 351 Q 513 348 530 334 Q 555 316 567 317 L 609 325 Z"/>
  <path id="z36747d12" d="M 567 317 Q 577 301 579 275 Q 578 238 564 218 Q 548 200 579 174 Q 588 167 600 177 Q 627 202 722 209 Q 743 210 770 209 Q 788 208 795 213 Q 801 217 795 227 Q 791 237 760 252 Q 730 268 620 233 Q 616 232 615 233 Q 611 234 612 243 Q 615 289 619 304 Q 622 311 609 325 C 590 348 553 344 567 317 Z"/>
<defs>
  <clipPath id="z36747c1"><use href="#z36747d1"/></clipPath>
  <clipPath id="z36747c2"><use href="#z36747d2"/></clipPath>
  <clipPath id="z36747c3"><use href="#z36747d3"/></clipPath>
  <clipPath id="z36747c4"><use href="#z36747d4"/></clipPath>
  <clipPath id="z36747c5"><use href="#z36747d5"/></clipPath>
  <clipPath id="z36747c6"><use href="#z36747d6"/></clipPath>
  <clipPath id="z36747c7"><use href="#z36747d7"/></clipPath>
  <clipPath id="z36747c8"><use href="#z36747d8"/></clipPath>
  <clipPath id="z36747c9"><use href="#z36747d9"/></clipPath>
  <clipPath id="z36747c10"><use href="#z36747d10"/></clipPath>
  <clipPath id="z36747c11"><use href="#z36747d11"/></clipPath>
  <clipPath id="z36747c12"><use href="#z36747d12"/></clipPath>
</defs>
<path style="--d:1s;" pathLength="3333" clip-path="url(#z36747c1)" d="M 140 650 L 203 647 L 285 663 L 362 689 L 418 689"/>
<path style="--d:2s;" pathLength="3333" clip-path="url(#z36747c2)" d="M 279 851 L 310 796 L 250 623 L 183 465 L 176 433 L 226 434 L 378 477 L 411 472"/>
<path style="--d:3s;" pathLength="3333" clip-path="url(#z36747c3)" d="M 299 579 L 329 541 L 311 133 L 323 41"/>
<path style="--d:4s;" pathLength="3333" clip-path="url(#z36747c4)" d="M 73 249 L 128 232 L 214 271 L 376 329 L 424 354"/>
<path style="--d:5s;" pathLength="3333" clip-path="url(#z36747c5)" d="M 449 673 L 466 657 L 487 618 L 491 543 L 483 258 L 463 141 L 463 77"/>
<path style="--d:6s;" pathLength="3333" clip-path="url(#z36747c6)" d="M 489 670 L 527 656 L 787 710 L 830 704 L 860 679 L 874 186 L 868 105 L 853 72 L 812 80 L 730 115"/>
<path style="--d:7s;" pathLength="3333" clip-path="url(#z36747c7)" d="M 572 594 L 605 567 L 621 542"/>
<path style="--d:8s;" pathLength="3333" clip-path="url(#z36747c8)" d="M 718 645 L 739 618 L 672 526"/>
<path style="--d:9s;" pathLength="3333" clip-path="url(#z36747c9)" d="M 556 478 L 601 473 L 705 495 L 759 498"/>
<path style="--d:10s;" pathLength="3333" clip-path="url(#z36747c10)" d="M 626 446 L 682 384"/>
<path style="--d:11s;" pathLength="3333" clip-path="url(#z36747c11)" d="M 531 343 L 571 336 L 722 365 L 796 365"/>
<path style="--d:12s;" pathLength="3333" clip-path="url(#z36747c12)" d="M 575 314 L 596 301 L 594 210 L 726 233 L 760 231 L 787 220"/>
</svg>