<svg id="z31174" class="acjk" viewBox="0 0 1024 1024" xmlns="http://www.w3.org/2000/svg">
<style>
<![CDATA[
@keyframes zk {
	to {
		stroke-dashoffset:0;
	}
}
svg.acjk path[clip-path] {
	--t:0.8s;
	animation:zk var(--t) linear forwards var(--d);
	stroke-dasharray:3337;
	stroke-dashoffset:3339;
	stroke-width:128;
	stroke-linecap:round;
	stroke-linejoin:round;
	fill:none;
	stroke:#000;
}
svg.acjk path[id] {fill:#ccc;}
]]>
</style>
  <path id="z31174d1" d="M 319 684 Q 418 732 448 738 Q 464 739 468 748 Q 471 758 459 769 Q 437 784 392 798 Q 376 805 363 803 Q 356 799 356 787 Q 359 745 156 640 Q 152 630 158 628 Q 173 628 263 662 Q 276 666 291 672 L 319 684 Z"/>
  <path id="z31174d2" d="M 350 506 Q 383 516 426 525 Q 442 529 443 536 Q 444 549 424 557 Q 394 569 352 554 L 309 541 Q 156 499 98 489 Q 85 486 83 478 Q 80 466 97 456 Q 145 432 181 448 Q 244 476 289 489 L 350 506 Z"/>
  <path id="z31174d3" d="M 349 415 Q 349 460 350 506 L 352 554 Q 353 609 360 639 Q 361 652 355 658 Q 336 674 319 684 C 294 701 279 700 291 672 Q 309 645 309 541 L 309 421 Q 308 400 308 376 Q 302 169 284 113 Q 275 73 308 21 Q 320 2 328 -2 Q 340 -3 345 10 Q 357 41 354 73 Q 350 244 349 390 L 349 415 Z"/>
  <path id="z31174d4" d="M 289 489 Q 238 360 78 161 Q 74 151 84 150 Q 90 149 99 158 Q 231 266 309 421 C 356 513 300 517 289 489 Z"/>
  <path id="z31174d5" d="M 349 390 Q 365 378 426 323 Q 436 313 449 314 Q 458 314 461 325 Q 465 335 458 359 Q 454 378 424 393 Q 360 418 349 415 C 319 414 325 408 349 390 Z"/>
  <path id="z31174d6" d="M 674 659 Q 824 695 832 701 Q 841 711 836 719 Q 827 732 796 739 Q 763 743 731 730 Q 688 714 642 701 Q 590 688 529 680 Q 490 673 519 655 Q 561 633 617 645 L 674 659 Z"/>
  <path id="z31174d7" d="M 700 449 Q 772 459 877 462 Q 931 462 937 472 Q 941 485 925 498 Q 867 537 804 518 Q 759 508 700 494 L 645 484 Q 552 469 448 451 Q 426 448 443 431 Q 458 418 476 413 Q 497 409 513 414 Q 574 433 645 442 L 700 449 Z"/>
  <path id="z31174d8" d="M 652 15 Q 658 -10 665 -21 Q 671 -28 679 -26 Q 697 -14 700 46 Q 707 125 705 204 Q 701 259 700 449 L 700 494 Q 700 551 711 616 Q 714 635 699 645 Q 686 654 674 659 C 648 673 606 673 617 645 Q 639 591 642 582 Q 642 578 645 484 L 645 442 Q 649 24 652 15 Z"/>
<defs>
  <clipPath id="z31174c1"><use href="#z31174d1"/></clipPath>
  <clipPath id="z31174c2"><use href="#z31174d2"/></clipPath>
  <clipPath id="z31174c3"><use href="#z31174d3"/></clipPath>
  <clipPath id="z31174c4"><use href="#z31174d4"/></clipPath>
  <clipPath id="z31174c5"><use href="#z31174d5"/></clipPath>
  <clipPath id="z31174c6"><use href="#z31174d6"/></clipPath>
  <clipPath id="z31174c7"><use href="#z31174d7"/></clipPath>
  <clipPath id="z31174c8"><use href="#z31174d8"/></clipPath>
</defs>
<path style="--d:1s;" pathLength="3333" clip-path="url(#z31174c1)" d="M 457 752 L 389 759 L 320 708 L 246 670 L 205 652 L 195 653 L 189 645 L 169 644 L 160 635"/>
<path style="--d:2s;" pathLength="3333" clip-path="url(#z31174c2)" d="M 96 474 L 158 471 L 380 538 L 433 539"/>
<path style="--d:3s;" pathLength="3333" clip-path="url(#z31174c3)" d="M 299 672 L 317 662 L 331 639 L 327 229 L 318 93 L 331 10"/>
<path style="--d:4s;" pathLength="3333" clip-path="url(#z31174c4)" d="M 306 487 L 297 480 L 286 424 L 215 308 L 141 215 L 86 158"/>
<path style="--d:5s;" pathLength="3333" clip-path="url(#z31174c5)" d="M 352 409 L 425 360 L 449 326"/>
<path style="--d:6s;" pathLength="3333" clip-path="url(#z31174c6)" d="M 521 669 L 592 665 L 777 713 L 825 711"/>
<path style="--d:7s;" pathLength="3333" clip-path="url(#z31174c7)" d="M 445 441 L 503 436 L 612 459 L 843 493 L 879 491 L 928 478"/>
<path style="--d:8s;" pathLength="3333" clip-path="url(#z31174c8)" d="M 626 637 L 670 618 L 674 597 L 675 -15"/>
</svg>