<svg id="z30127" class="acjk" viewBox="0 0 1024 1024" xmlns="http://www.w3.org/2000/svg">
<style>
<![CDATA[
@keyframes zk {
	to {
		stroke-dashoffset:0;
	}
}
svg.acjk path[clip-path] {
	--t:0.8s;
	animation:zk var(--t) linear forwards var(--d);
	stroke-dasharray:3337;
	stroke-dashoffset:3339;
	stroke-width:128;
	stroke-linecap:round;
	stroke-linejoin:round;
	fill:none;
	stroke:#000;
}
svg.acjk path[id] {fill:#ccc;}
]]>
</style>
  <path id="z30127d1" d="M 512 799 Q 536 780 562 758 Q 577 746 593 748 Q 605 749 609 764 Q 612 780 600 810 Q 590 835 503 848 Q 487 851 480 847 Q 476 843 478 829 Q 482 819 512 799 Z"/>
  <path id="z30127d2" d="M 337 637 Q 392 630 415 633 Q 415 634 684 685 Q 745 698 754 707 Q 764 714 759 724 Q 752 736 722 744 Q 698 750 584 715 Q 445 679 330 670 Q 329 670 328 669 C 298 665 307 641 337 637 Z"/>
  <path id="z30127d3" d="M 272 351 Q 239 174 135 68 Q 93 31 86 16 Q 85 9 96 9 Q 138 12 215 99 Q 296 193 318 340 Q 334 478 334 612 Q 335 628 337 637 C 340 663 340 663 328 669 Q 327 670 323 672 Q 274 694 260 692 Q 241 688 257 666 Q 290 615 277 397 Q 277 396 277 391 L 272 351 Z"/>
  <path id="z30127d4" d="M 140 486 Q 176 435 205 417 Q 220 413 231 425 Q 238 438 237 455 Q 233 480 217 495 Q 172 529 141 529 Q 134 530 130 528 Q 123 527 125 515 Q 125 502 140 486 Z"/>
  <path id="z30127d5" d="M 277 391 Q 109 265 65 250 Q 53 244 55 234 Q 56 221 69 216 Q 96 209 132 203 Q 142 203 151 215 Q 175 254 272 351 C 293 372 301 409 277 391 Z"/>
  <path id="z30127d6" d="M 454 535 Q 441 548 414 559 Q 398 566 386 562 Q 376 555 383 544 Q 398 517 400 464 Q 400 230 303 52 Q 287 22 283 12 Q 282 2 290 5 Q 321 12 381 125 Q 388 141 396 158 Q 444 282 448 427 Q 449 481 454 503 C 458 532 458 532 454 535 Z"/>
  <path id="z30127d7" d="M 454 503 Q 466 504 702 561 Q 715 565 726 555 Q 733 545 731 526 Q 692 73 871 -21 Q 908 -40 927 -30 Q 940 -24 936 -4 Q 929 81 936 169 Q 937 181 933 188 Q 926 198 922 180 Q 900 114 883 86 Q 864 53 842 79 Q 788 122 773 253 Q 761 317 778 464 Q 782 506 822 549 Q 837 564 820 577 Q 807 590 752 616 Q 731 628 697 601 Q 607 567 454 535 C 425 529 425 497 454 503 Z"/>
  <path id="z30127d8" d="M 618 268 Q 634 308 653 362 Q 660 378 664 386 Q 674 402 659 415 Q 625 446 611 446 Q 595 447 602 426 Q 611 393 580 299 L 563 255 Q 533 192 452 138 Q 434 129 430 124 Q 427 120 437 117 Q 464 108 520 142 Q 566 170 594 220 L 618 268 Z"/>
  <path id="z30127d9" d="M 594 220 Q 678 115 687 112 Q 694 111 701 118 Q 711 128 705 164 Q 699 201 618 268 L 580 299 Q 519 347 483 370 Q 476 374 474 365 Q 473 355 480 346 Q 520 306 563 255 L 594 220 Z"/>
<defs>
  <clipPath id="z30127c1"><use href="#z30127d1"/></clipPath>
  <clipPath id="z30127c2"><use href="#z30127d2"/></clipPath>
  <clipPath id="z30127c3"><use href="#z30127d3"/></clipPath>
  <clipPath id="z30127c4"><use href="#z30127d4"/></clipPath>
  <clipPath id="z30127c5"><use href="#z30127d5"/></clipPath>
  <clipPath id="z30127c6"><use href="#z30127d6"/></clipPath>
  <clipPath id="z30127c7"><use href="#z30127d7"/></clipPath>
  <clipPath id="z30127c8"><use href="#z30127d8"/></clipPath>
  <clipPath id="z30127c9"><use href="#z30127d9"/></clipPath>
</defs>
<path style="--d:1s;" pathLength="3333" clip-path="url(#z30127c1)" d="M 486 841 L 559 803 L 591 766"/>
<path style="--d:2s;" pathLength="3333" clip-path="url(#z30127c2)" d="M 332 664 L 352 654 L 416 657 L 681 713 L 748 718"/>
<path style="--d:3s;" pathLength="3333" clip-path="url(#z30127c3)" d="M 263 679 L 301 644 L 306 590 L 301 394 L 279 272 L 265 229 L 220 140 L 180 87 L 132 42 L 94 16"/>
<path style="--d:4s;" pathLength="3333" clip-path="url(#z30127c4)" d="M 136 518 L 197 468 L 212 437"/>
<path style="--d:5s;" pathLength="3333" clip-path="url(#z30127c5)" d="M 69 236 L 125 241 L 254 354 L 266 372"/>
<path style="--d:6s;" pathLength="3333" clip-path="url(#z30127c6)" d="M 392 552 L 424 519 L 421 374 L 414 314 L 396 227 L 360 123 L 314 41 L 291 13"/>
<path style="--d:7s;" pathLength="3333" clip-path="url(#z30127c7)" d="M 454 508 L 470 523 L 656 565 L 719 587 L 748 582 L 772 557 L 754 487 L 745 353 L 758 206 L 788 109 L 814 68 L 844 38 L 886 25 L 891 33 L 909 82 L 929 182"/>
<path style="--d:8s;" pathLength="3333" clip-path="url(#z30127c8)" d="M 610 434 L 634 394 L 599 282 L 572 224 L 546 190 L 503 151 L 462 129 L 437 124"/>
<path style="--d:9s;" pathLength="3333" clip-path="url(#z30127c9)" d="M 482 361 L 648 201 L 675 166 L 691 122"/>
</svg>