<svg id="z30508" class="acjk" viewBox="0 0 1024 1024" xmlns="http://www.w3.org/2000/svg">
<style>
<![CDATA[
@keyframes zk {
	to {
		stroke-dashoffset:0;
	}
}
svg.acjk path[clip-path] {
	--t:0.8s;
	animation:zk var(--t) linear forwards var(--d);
	stroke-dasharray:3337;
	stroke-dashoffset:3339;
	stroke-width:128;
	stroke-linecap:round;
	stroke-linejoin:round;
	fill:none;
	stroke:#000;
}
svg.acjk path[id] {fill:#ccc;}
]]>
</style>
  <path id="z30508d1" d="M 168 615 Q 152 631 129 639 Q 118 642 108 639 Q 102 633 108 621 Q 124 560 127 540 L 133 453 Q 137 304 112 200 Q 100 145 134 102 Q 144 88 156 101 Q 168 114 168 141 L 171 177 L 172 312 L 172 341 L 173 445 L 173 478 Q 174 504 177 579 L 177 588 C 177 607 177 607 168 615 Z"/>
  <path id="z30508d2" d="M 280 155 L 306 114 Q 321 89 330 92 Q 343 94 357 128 Q 367 152 367 227 Q 347 555 374 608 Q 384 626 376 636 Q 368 647 318 662 Q 296 668 278 662 L 223 636 Q 198 625 168 615 C 140 605 148 580 177 588 Q 196 592 245 612 Q 280 624 292 617 L 296 615 Q 312 603 310 548 Q 314 318 303 202 Q 304 187 298 182 C 291 153 272 168 280 155 Z"/>
  <path id="z30508d3" d="M 173 445 L 267 463 Q 292 470 279 482 Q 265 494 239 497 Q 216 497 173 478 C 146 466 144 439 173 445 Z"/>
  <path id="z30508d4" d="M 172 312 Q 176 312 272 326 Q 297 333 287 345 Q 259 376 180 347 L 172 341 C 148 323 142 309 172 312 Z"/>
  <path id="z30508d5" d="M 168 141 Q 170 141 193 145 Q 221 151 280 155 C 310 157 321 163 298 182 Q 278 200 249 196 Q 229 194 171 177 C 142 169 138 137 168 141 Z"/>
  <path id="z30508d6" d="M 652 508 Q 681 515 836 540 Q 849 539 857 553 Q 858 566 833 577 Q 794 600 715 572 Q 637 555 631 550 L 576 538 L 439 517 Q 408 513 431 494 Q 461 471 483 472 L 568 490 L 652 508 Z"/>
  <path id="z30508d7" d="M 631 550 Q 645 636 655 735 Q 666 776 664 786 Q 662 796 650 803 Q 601 833 583 831 Q 562 829 577 804 Q 596 761 594 709 Q 594 650 576 538 L 568 490 Q 524 274 422 151 Q 406 135 391 122 Q 322 66 321 63 Q 318 55 328 55 L 331 55 Q 349 53 372 67 Q 457 116 479 145 Q 578 270 604 417 Q 615 464 619 486 L 631 550 Z"/>
  <path id="z30508d8" d="M 623 153 Q 626 68 664 40 Q 705 12 798 6 Q 854 2 917 20 Q 933 24 943 29 Q 974 45 961 77 Q 943 127 937 196 Q 935 229 928 236 Q 927 237 925 239 Q 917 245 913 227 Q 894 118 877 96 Q 845 62 780 59 Q 715 59 690 82 Q 684 88 680 96 Q 671 122 667 182 L 666 229 Q 666 349 700 427 Q 713 459 695 478 Q 671 498 652 508 C 616 531 610 515 619 486 Q 631 457 631 417 L 623 231 L 622 190 L 623 153 Z"/>
  <path id="z30508d9" d="M 573 132 Q 584 132 613 149 Q 619 153 623 153 L 667 182 L 729 227 Q 764 256 806 297 Q 823 316 849 335 Q 860 344 860 351 L 860 357 Q 858 372 841 394 Q 821 416 802 420 Q 786 421 788 402 Q 794 376 781 361 Q 747 311 666 229 L 622 190 Q 574 157 565 143 Q 559 132 573 132 Z"/>
  <path id="z30508d10" d="M 794 703 L 860 651 Q 880 631 897 643 Q 903 647 906 655 Q 909 670 898 700 Q 890 721 832 740 Q 785 755 764 750 Q 760 745 760 733 Q 764 723 794 703 Z"/>
<defs>
  <clipPath id="z30508c1"><use href="#z30508d1"/></clipPath>
  <clipPath id="z30508c2"><use href="#z30508d2"/></clipPath>
  <clipPath id="z30508c3"><use href="#z30508d3"/></clipPath>
  <clipPath id="z30508c4"><use href="#z30508d4"/></clipPath>
  <clipPath id="z30508c5"><use href="#z30508d5"/></clipPath>
  <clipPath id="z30508c6"><use href="#z30508d6"/></clipPath>
  <clipPath id="z30508c7"><use href="#z30508d7"/></clipPath>
  <clipPath id="z30508c8"><use href="#z30508d8"/></clipPath>
  <clipPath id="z30508c9"><use href="#z30508d9"/></clipPath>
  <clipPath id="z30508c10"><use href="#z30508d10"/></clipPath>
</defs>
<path style="--d:1s;" pathLength="3333" clip-path="url(#z30508c1)" d="M 114 632 L 143 599 L 150 570 L 153 349 L 139 165 L 145 107"/>
<path style="--d:2s;" pathLength="3333" clip-path="url(#z30508c2)" d="M 180 596 L 195 609 L 280 641 L 306 639 L 338 617 L 337 239 L 334 182 L 325 155 L 329 105"/>
<path style="--d:3s;" pathLength="3333" clip-path="url(#z30508c3)" d="M 180 451 L 186 462 L 203 471 L 244 478 L 271 473"/>
<path style="--d:4s;" pathLength="3333" clip-path="url(#z30508c4)" d="M 173 319 L 196 335 L 246 342 L 276 338"/>
<path style="--d:5s;" pathLength="3333" clip-path="url(#z30508c5)" d="M 171 147 L 202 167 L 289 181"/>
<path style="--d:6s;" pathLength="3333" clip-path="url(#z30508c6)" d="M 433 506 L 485 498 L 765 557 L 810 561 L 845 554"/>
<path style="--d:7s;" pathLength="3333" clip-path="url(#z30508c7)" d="M 584 817 L 626 774 L 623 697 L 589 463 L 552 328 L 508 232 L 458 157 L 405 108 L 347 68 L 326 61"/>
<path style="--d:8s;" pathLength="3333" clip-path="url(#z30508c8)" d="M 632 492 L 647 482 L 667 451 L 648 315 L 644 184 L 651 110 L 659 85 L 675 62 L 724 40 L 806 33 L 872 46 L 911 66 L 917 85 L 922 233"/>
<path style="--d:9s;" pathLength="3333" clip-path="url(#z30508c9)" d="M 800 407 L 817 382 L 821 358 L 800 333 L 710 240 L 631 176 L 574 141"/>
<path style="--d:10s;" pathLength="3333" clip-path="url(#z30508c10)" d="M 770 743 L 860 693 L 884 661"/>
</svg>