<svg id="z39045" class="acjk" viewBox="0 0 1024 1024" xmlns="http://www.w3.org/2000/svg">
<style>
<![CDATA[
@keyframes zk {
	to {
		stroke-dashoffset:0;
	}
}
svg.acjk path[clip-path] {
	--t:0.8s;
	animation:zk var(--t) linear forwards var(--d);
	stroke-dasharray:3337;
	stroke-dashoffset:3339;
	stroke-width:128;
	stroke-linecap:round;
	stroke-linejoin:round;
	fill:none;
	stroke:#000;
}
svg.acjk path[id] {fill:#ccc;}
]]>
</style>
  <path id="z39045d1" d="M 341 571 Q 347 620 353 664 L 356 693 Q 362 720 370 746 Q 374 756 355 770 Q 324 788 302 792 Q 287 796 280 788 Q 273 781 280 767 Q 301 740 301 557 C 301 527 337 541 341 571 Z"/>
  <path id="z39045d2" d="M 353 664 Q 419 661 498 698 L 499 698 Q 506 707 500 714 Q 493 724 465 726 Q 437 727 411 712 Q 405 711 356 693 C 328 683 323 665 353 664 Z"/>
  <path id="z39045d3" d="M 443 437 Q 464 506 493 531 Q 508 549 493 564 Q 477 576 429 596 Q 414 602 341 571 L 301 557 Q 261 547 222 537 C 193 530 201 492 229 504 Q 229 505 230 505 Q 242 511 381 546 Q 399 552 406 545 Q 418 533 398 444 C 392 415 434 408 443 437 Z"/>
  <path id="z39045d4" d="M 214 367 Q 227 361 247 366 Q 313 384 457 403 Q 467 404 469 414 Q 469 421 443 437 C 424 449 424 449 398 444 Q 391 443 385 441 Q 292 413 217 397 C 188 391 185 376 214 367 Z"/>
  <path id="z39045d5" d="M 222 537 Q 207 550 184 559 Q 166 569 154 564 Q 142 557 149 544 Q 188 478 143 254 Q 139 238 134 221 Q 109 145 50 42 Q 46 35 43 29 Q 42 19 51 21 Q 81 27 141 128 Q 151 146 161 167 Q 197 254 214 367 L 217 397 Q 218 410 220 424 Q 221 475 229 504 C 234 528 234 528 222 537 Z"/>
  <path id="z39045d6" d="M 639 692 Q 744 717 877 732 Q 887 731 897 744 Q 898 757 874 767 Q 838 788 739 759 Q 730 758 721 755 Q 658 740 544 726 Q 514 722 538 704 Q 571 676 602 685 Q 603 686 605 685 L 639 692 Z"/>
  <path id="z39045d7" d="M 591 550 Q 609 574 639 620 Q 646 633 659 649 Q 671 658 664 667 Q 658 679 639 692 C 615 709 601 715 605 685 Q 611 660 576 572 Q 572 562 569 552 C 560 523 573 526 591 550 Z"/>
  <path id="z39045d8" d="M 569 552 Q 550 565 529 573 Q 522 574 515 567 Q 512 561 519 551 Q 552 478 526 324 Q 511 272 515 251 Q 522 220 534 208 Q 544 195 553 208 Q 577 238 578 325 Q 578 461 587 519 C 590 539 590 539 569 552 Z"/>
  <path id="z39045d9" d="M 766 273 Q 759 251 772 229 Q 785 201 794 202 Q 807 203 823 235 Q 838 260 836 279 Q 812 475 848 528 Q 858 544 850 554 Q 823 578 776 597 Q 760 603 738 594 Q 683 567 591 550 C 561 544 535 512 587 519 Q 599 519 675 537 Q 742 556 759 546 Q 768 527 772 471 Q 775 305 766 273 Z"/>
  <path id="z39045d10" d="M 646 397 Q 646 178 572 88 Q 560 78 547 65 Q 516 35 445 -2 Q 433 -6 430 -11 Q 426 -15 440 -18 Q 480 -22 572 32 Q 680 104 695 325 Q 695 376 712 425 Q 718 435 709 443 Q 661 486 625 476 Q 606 469 621 453 Q 646 425 646 397 Z"/>
  <path id="z39045d11" d="M 711 134 Q 760 82 816 7 Q 832 -15 847 -21 Q 857 -22 865 -13 Q 880 0 870 47 Q 864 89 790 130 Q 742 155 715 167 Q 706 174 703 160 Q 702 147 711 134 Z"/>
<defs>
  <clipPath id="z39045c1"><use href="#z39045d1"/></clipPath>
  <clipPath id="z39045c2"><use href="#z39045d2"/></clipPath>
  <clipPath id="z39045c3"><use href="#z39045d3"/></clipPath>
  <clipPath id="z39045c4"><use href="#z39045d4"/></clipPath>
  <clipPath id="z39045c5"><use href="#z39045d5"/></clipPath>
  <clipPath id="z39045c6"><use href="#z39045d6"/></clipPath>
  <clipPath id="z39045c7"><use href="#z39045d7"/></clipPath>
  <clipPath id="z39045c8"><use href="#z39045d8"/></clipPath>
  <clipPath id="z39045c9"><use href="#z39045d9"/></clipPath>
  <clipPath id="z39045c10"><use href="#z39045d10"/></clipPath>
  <clipPath id="z39045c11"><use href="#z39045d11"/></clipPath>
</defs>
<path style="--d:1s;" pathLength="3333" clip-path="url(#z39045c1)" d="M 291 778 L 329 741 L 322 587 L 304 570"/>
<path style="--d:2s;" pathLength="3333" clip-path="url(#z39045c2)" d="M 360 671 L 372 681 L 459 705 L 499 703"/>
<path style="--d:3s;" pathLength="3333" clip-path="url(#z39045c3)" d="M 230 511 L 240 525 L 258 531 L 380 567 L 422 569 L 449 543 L 424 461 L 407 454"/>
<path style="--d:4s;" pathLength="3333" clip-path="url(#z39045c4)" d="M 221 374 L 256 388 L 383 417 L 433 420 L 461 413"/>
<path style="--d:5s;" pathLength="3333" clip-path="url(#z39045c5)" d="M 159 552 L 190 522 L 196 505 L 191 392 L 177 297 L 149 195 L 119 127 L 70 49 L 52 30"/>
<path style="--d:6s;" pathLength="3333" clip-path="url(#z39045c6)" d="M 539 716 L 585 707 L 809 750 L 854 752 L 886 746"/>
<path style="--d:7s;" pathLength="3333" clip-path="url(#z39045c7)" d="M 612 682 L 632 659 L 590 571 L 575 556"/>
<path style="--d:8s;" pathLength="3333" clip-path="url(#z39045c8)" d="M 525 563 L 551 535 L 559 514 L 557 393 L 542 249 L 544 212"/>
<path style="--d:9s;" pathLength="3333" clip-path="url(#z39045c9)" d="M 574 548 L 596 535 L 760 573 L 785 561 L 803 539 L 803 287 L 795 213"/>
<path style="--d:10s;" pathLength="3333" clip-path="url(#z39045c10)" d="M 626 464 L 651 453 L 676 426 L 666 275 L 638 157 L 599 86 L 553 42 L 489 5 L 436 -13"/>
<path style="--d:11s;" pathLength="3333" clip-path="url(#z39045c11)" d="M 714 155 L 817 67 L 840 31 L 849 -5"/>
</svg>