<svg id="z38170" class="acjk" viewBox="0 0 1024 1024" xmlns="http://www.w3.org/2000/svg">
<style>
<![CDATA[
@keyframes zk {
	to {
		stroke-dashoffset:0;
	}
}
svg.acjk path[clip-path] {
	--t:0.8s;
	animation:zk var(--t) linear forwards var(--d);
	stroke-dasharray:3337;
	stroke-dashoffset:3339;
	stroke-width:128;
	stroke-linecap:round;
	stroke-linejoin:round;
	fill:none;
	stroke:#000;
}
svg.acjk path[id] {fill:#ccc;}
]]>
</style>
  <path id="z38170d1" d="M 195 462 Q 195 463 196 463 Q 239 518 288 594 L 306 624 Q 385 753 387 756 Q 387 762 385 766 Q 381 779 349 803 Q 321 822 300 822 Q 279 819 289 796 Q 305 760 292 730 Q 222 553 51 341 Q 41 331 38 323 Q 34 311 49 314 Q 86 323 182 445 L 195 462 Z"/>
  <path id="z38170d2" d="M 288 594 Q 334 584 373 596 Q 406 605 440 614 Q 455 618 457 621 Q 464 628 460 637 Q 453 647 423 652 Q 393 655 366 641 Q 357 638 306 624 C 277 616 259 600 288 594 Z"/>
  <path id="z38170d3" d="M 277 440 Q 277 441 279 441 Q 390 474 394 478 Q 401 487 396 494 Q 389 504 361 507 Q 342 510 261 479 Q 231 470 197 463 Q 196 463 195 462 C 166 453 164 453 182 445 Q 207 433 241 432 C 253 431 253 431 277 440 Z"/>
  <path id="z38170d4" d="M 320 294 Q 399 322 407 329 Q 414 338 409 345 Q 400 355 371 359 Q 344 360 319 348 L 271 325 Q 204 300 148 285 Q 114 275 141 262 Q 181 246 250 271 Q 260 275 273 278 L 320 294 Z"/>
  <path id="z38170d5" d="M 273 278 Q 276 140 238 78 Q 205 36 249 -9 L 251 -10 Q 264 -17 276 0 Q 288 28 411 151 Q 429 164 433 174 Q 436 184 426 183 Q 420 183 321 123 Q 315 117 313 124 Q 320 218 320 294 L 319 348 Q 320 370 324 387 Q 328 400 319 411 Q 297 430 277 440 C 251 455 229 459 241 432 Q 241 428 245 422 Q 267 379 271 325 L 273 278 Z"/>
  <path id="z38170d6" d="M 739 554 Q 799 566 900 560 Q 915 559 920 569 Q 924 579 911 594 Q 862 636 766 607 Q 759 607 753 604 L 700 594 Q 642 585 580 574 L 535 567 Q 487 561 438 554 Q 410 550 430 535 Q 469 511 542 524 L 582 534 Q 631 547 692 550 L 739 554 Z"/>
  <path id="z38170d7" d="M 580 574 Q 577 620 577 655 Q 578 674 559 681 Q 520 702 498 695 Q 480 688 495 667 Q 526 624 534 574 Q 534 571 535 567 L 542 524 Q 545 475 564 456 Q 577 444 581 456 Q 587 474 582 534 L 580 574 Z"/>
  <path id="z38170d8" d="M 753 604 Q 766 667 789 719 Q 802 737 790 746 Q 775 762 736 777 Q 718 784 700 774 Q 690 767 700 755 Q 721 712 700 594 L 692 550 Q 677 475 681 459 Q 684 444 699 458 Q 714 476 739 554 L 753 604 Z"/>
  <path id="z38170d9" d="M 478 367 Q 454 385 429 392 Q 422 395 417 390 Q 410 386 418 374 Q 458 302 459 130 Q 459 73 491 46 Q 492 45 495 43 Q 511 37 514 66 Q 514 72 514 78 L 512 106 Q 511 119 507 133 Q 495 295 494 329 C 493 357 493 357 478 367 Z"/>
  <path id="z38170d10" d="M 747 102 Q 757 77 784 21 Q 793 3 803 4 Q 819 7 828 33 Q 859 91 863 169 Q 869 218 875 275 Q 879 324 903 354 Q 919 373 908 388 Q 886 410 839 430 Q 820 440 787 429 Q 666 387 478 367 C 448 364 464 324 494 329 Q 498 329 503 330 Q 546 340 603 349 L 640 356 Q 695 368 767 379 Q 795 385 807 371 Q 831 323 796 136 Q 795 118 786 116 Q 785 115 780 116 C 758 95 742 115 747 102 Z"/>
  <path id="z38170d11" d="M 661 228 Q 698 235 733 238 Q 758 242 749 256 Q 739 272 711 276 Q 692 279 663 273 L 615 259 Q 572 249 536 238 Q 518 234 540 218 Q 549 211 569 214 Q 593 218 616 221 L 661 228 Z"/>
  <path id="z38170d12" d="M 656 127 Q 657 182 661 228 L 663 273 Q 663 292 665 312 Q 672 331 640 356 C 617 375 593 377 603 349 Q 612 331 615 259 L 616 221 Q 616 181 617 121 C 617 91 655 97 656 127 Z"/>
  <path id="z38170d13" d="M 514 78 Q 521 78 531 79 Q 652 94 747 102 C 777 105 787 105 780 116 L 780 117 Q 773 130 750 137 Q 717 143 656 127 L 617 121 Q 560 114 512 106 C 482 101 484 77 514 78 Z"/>
<defs>
  <clipPath id="z38170c1"><use href="#z38170d1"/></clipPath>
  <clipPath id="z38170c2"><use href="#z38170d2"/></clipPath>
  <clipPath id="z38170c3"><use href="#z38170d3"/></clipPath>
  <clipPath id="z38170c4"><use href="#z38170d4"/></clipPath>
  <clipPath id="z38170c5"><use href="#z38170d5"/></clipPath>
  <clipPath id="z38170c6"><use href="#z38170d6"/></clipPath>
  <clipPath id="z38170c7"><use href="#z38170d7"/></clipPath>
  <clipPath id="z38170c8"><use href="#z38170d8"/></clipPath>
  <clipPath id="z38170c9"><use href="#z38170d9"/></clipPath>
  <clipPath id="z38170c10"><use href="#z38170d10"/></clipPath>
  <clipPath id="z38170c11"><use href="#z38170d11"/></clipPath>
  <clipPath id="z38170c12"><use href="#z38170d12"/></clipPath>
  <clipPath id="z38170c13"><use href="#z38170d13"/></clipPath>
</defs>
<path style="--d:1s;" pathLength="3333" clip-path="url(#z38170c1)" d="M 300 807 L 318 792 L 339 758 L 302 674 L 262 601 L 159 447 L 76 347 L 47 323"/>
<path style="--d:2s;" pathLength="3333" clip-path="url(#z38170c2)" d="M 296 596 L 319 609 L 393 627 L 449 631"/>
<path style="--d:3s;" pathLength="3333" clip-path="url(#z38170c3)" d="M 190 446 L 255 455 L 357 487 L 388 486"/>
<path style="--d:4s;" pathLength="3333" clip-path="url(#z38170c4)" d="M 142 274 L 162 272 L 234 287 L 355 334 L 399 338"/>
<path style="--d:5s;" pathLength="3333" clip-path="url(#z38170c5)" d="M 248 429 L 273 416 L 292 392 L 297 259 L 285 123 L 290 88 L 338 106 L 362 130 L 427 176"/>
<path style="--d:6s;" pathLength="3333" clip-path="url(#z38170c6)" d="M 432 545 L 499 540 L 621 563 L 829 591 L 884 585 L 908 574"/>
<path style="--d:7s;" pathLength="3333" clip-path="url(#z38170c7)" d="M 503 680 L 525 669 L 544 649 L 573 459"/>
<path style="--d:8s;" pathLength="3333" clip-path="url(#z38170c8)" d="M 706 765 L 725 756 L 748 724 L 716 550 L 690 460"/>
<path style="--d:9s;" pathLength="3333" clip-path="url(#z38170c9)" d="M 424 382 L 457 350 L 466 325 L 484 120 L 499 53"/>
<path style="--d:10s;" pathLength="3333" clip-path="url(#z38170c10)" d="M 488 364 L 499 353 L 518 352 L 788 405 L 823 401 L 845 383 L 857 369 L 828 132 L 821 104 L 803 78 L 803 18"/>
<path style="--d:11s;" pathLength="3333" clip-path="url(#z38170c11)" d="M 538 228 L 685 255 L 738 250"/>
<path style="--d:12s;" pathLength="3333" clip-path="url(#z38170c12)" d="M 610 347 L 638 319 L 637 151 L 622 129"/>
<path style="--d:13s;" pathLength="3333" clip-path="url(#z38170c13)" d="M 518 85 L 528 94 L 719 120 L 773 117"/>
</svg>