<svg id="z35183" class="acjk" viewBox="0 0 1024 1024" xmlns="http://www.w3.org/2000/svg">
<style>
<![CDATA[
@keyframes zk {
	to {
		stroke-dashoffset:0;
	}
}
svg.acjk path[clip-path] {
	--t:0.8s;
	animation:zk var(--t) linear forwards var(--d);
	stroke-dasharray:3337;
	stroke-dashoffset:3339;
	stroke-width:128;
	stroke-linecap:round;
	stroke-linejoin:round;
	fill:none;
	stroke:#000;
}
svg.acjk path[id] {fill:#ccc;}
]]>
</style>
  <path id="z35183d1" d="M 243 751 Q 265 730 289 704 Q 302 691 320 691 Q 330 691 337 705 Q 341 720 333 751 Q 329 770 299 783 Q 229 810 216 803 Q 210 799 212 786 Q 216 773 243 751 Z"/>
  <path id="z35183d2" d="M 208 374 Q 302 531 329 554 Q 342 564 330 577 Q 312 590 286 598 Q 265 605 251 593 Q 181 542 58 530 Q 48 531 45 524 Q 42 515 56 506 Q 90 484 106 487 Q 115 490 220 534 Q 233 538 237 534 Q 243 527 233 505 Q 176 370 38 214 Q 25 204 29 200 Q 32 199 42 204 Q 114 246 186 343 L 208 374 Z"/>
  <path id="z35183d3" d="M 186 343 Q 213 316 194 146 Q 178 67 183 42 Q 183 20 204 -2 Q 220 -15 230 8 Q 243 42 242 83 Q 243 261 249 301 Q 256 325 247 334 Q 231 352 220 364 Q 214 371 208 374 C 184 392 170 368 186 343 Z"/>
  <path id="z35183d4" d="M 287 396 Q 309 418 343 446 Q 353 450 349 457 Q 330 481 304 479 Q 297 478 299 466 Q 303 454 282 404 Q 281 403 280 399 C 276 385 276 385 287 396 Z"/>
  <path id="z35183d5" d="M 280 399 Q 265 408 256 406 Q 253 405 253 396 Q 253 393 299 339 Q 306 330 316 330 Q 322 329 326 337 Q 330 344 327 363 Q 324 381 287 396 L 280 399 Z"/>
  <path id="z35183d6" d="M 466 775 Q 502 726 526 714 Q 539 710 548 721 Q 554 731 553 746 Q 546 785 498 801 Q 470 816 458 811 Q 452 810 453 799 Q 454 789 466 775 Z"/>
  <path id="z35183d7" d="M 365 626 Q 337 620 358 608 Q 388 593 472 612 Q 506 621 544 631 Q 569 638 572 641 Q 579 648 575 655 Q 568 664 545 669 Q 520 672 497 661 Q 469 651 439 641 Q 405 632 365 626 Z"/>
  <path id="z35183d8" d="M 387 549 Q 405 491 425 483 Q 435 479 444 490 Q 448 500 447 517 Q 441 544 398 568 Q 391 571 388 563 Q 384 557 387 549 Z"/>
  <path id="z35183d9" d="M 520 484 Q 532 505 545 529 Q 552 542 564 561 Q 574 571 568 578 Q 561 591 538 604 Q 528 611 515 607 Q 508 603 513 595 Q 522 568 486 473 Q 485 473 485 472 C 471 445 505 458 520 484 Z"/>
  <path id="z35183d10" d="M 451 431 Q 499 446 559 458 Q 566 458 571 467 Q 571 474 556 480 Q 531 489 520 484 L 485 472 Q 374 442 361 439 Q 342 435 358 425 Q 374 415 412 421 Q 418 422 427 424 L 451 431 Z"/>
  <path id="z35183d11" d="M 486 332 Q 511 341 540 349 Q 565 356 569 360 Q 575 367 571 372 Q 565 379 544 383 Q 529 386 488 369 L 440 351 Q 407 342 371 335 Q 346 328 365 318 Q 398 306 433 317 Q 436 318 440 318 L 486 332 Z"/>
  <path id="z35183d12" d="M 484 276 Q 484 306 486 332 L 488 369 Q 488 373 489 375 Q 493 396 489 404 Q 482 414 453 431 Q 452 432 451 431 C 424 445 418 447 427 424 Q 427 418 433 409 Q 439 391 440 351 L 440 318 Q 440 257 440 150 Q 439 123 430 113 Q 421 109 399 115 Q 390 115 379 115 Q 369 118 369 112 Q 370 106 378 99 Q 415 63 439 36 Q 449 29 459 41 Q 492 80 488 144 Q 485 243 484 256 L 484 276 Z"/>
  <path id="z35183d13" d="M 348 261 Q 327 222 301 187 Q 282 165 296 135 Q 300 120 318 129 Q 360 157 365 215 Q 371 240 367 260 Q 363 267 358 268 Q 351 268 348 261 Z"/>
  <path id="z35183d14" d="M 484 256 Q 536 211 551 212 Q 561 213 563 226 Q 563 235 555 248 Q 537 269 484 276 C 456 280 461 276 484 256 Z"/>
  <path id="z35183d15" d="M 639 312 Q 640 316 643 322 L 647 349 Q 648 365 647 391 Q 646 409 646 425 L 646 449 Q 646 492 646 523 L 646 545 Q 646 626 648 630 C 650 646 650 646 639 654 Q 632 661 611 670 Q 604 673 594 670 Q 590 666 594 657 Q 595 650 599 643 Q 621 592 610 427 Q 597 348 611 321 Q 614 317 618 311 C 631 292 631 292 639 312 Z"/>
  <path id="z35183d16" d="M 759 337 L 779 307 Q 794 285 801 288 Q 810 289 820 313 Q 830 340 828 374 Q 813 608 834 648 Q 844 664 836 675 Q 829 685 782 697 Q 760 704 744 695 Q 686 667 639 654 C 610 645 619 623 648 630 Q 675 636 724 654 Q 752 664 764 655 Q 774 646 774 611 Q 780 466 776 386 Q 779 364 760 367 Q 753 368 751 366 C 740 365 742 362 759 337 Z"/>
  <path id="z35183d17" d="M 646 523 Q 647 522 656 523 Q 702 535 736 543 Q 754 549 746 558 Q 736 568 714 570 Q 687 570 646 545 C 620 530 616 527 646 523 Z"/>
  <path id="z35183d18" d="M 646 425 Q 700 434 741 439 Q 760 443 753 454 Q 743 466 723 468 Q 696 471 646 449 C 618 437 616 420 646 425 Z"/>
  <path id="z35183d19" d="M 643 322 Q 680 331 759 337 C 789 339 778 354 751 366 Q 741 372 720 366 Q 680 356 647 349 C 618 343 614 315 643 322 Z"/>
  <path id="z35183d20" d="M 618 311 Q 615 308 619 300 Q 638 261 572 147 Q 545 101 508 54 Q 504 50 504 46 Q 505 42 509 43 Q 570 61 651 220 Q 654 239 674 265 Q 678 274 672 283 Q 659 302 639 312 C 618 324 618 324 618 311 Z"/>
  <path id="z35183d21" d="M 709 218 Q 697 95 706 61 Q 709 43 724 28 Q 785 -24 915 -2 Q 916 -1 920 -1 Q 948 6 979 26 Q 997 41 985 65 Q 973 87 956 158 Q 956 174 949 178 Q 943 181 939 164 Q 914 88 897 65 Q 876 46 813 48 Q 789 49 770 58 Q 754 65 750 76 Q 731 118 761 260 Q 767 287 724 307 Q 712 311 704 307 Q 698 304 702 287 Q 712 251 709 218 Z"/>
<defs>
  <clipPath id="z35183c1"><use href="#z35183d1"/></clipPath>
  <clipPath id="z35183c2"><use href="#z35183d2"/></clipPath>
  <clipPath id="z35183c3"><use href="#z35183d3"/></clipPath>
  <clipPath id="z35183c4"><use href="#z35183d4"/></clipPath>
  <clipPath id="z35183c5"><use href="#z35183d5"/></clipPath>
  <clipPath id="z35183c6"><use href="#z35183d6"/></clipPath>
  <clipPath id="z35183c7"><use href="#z35183d7"/></clipPath>
  <clipPath id="z35183c8"><use href="#z35183d8"/></clipPath>
  <clipPath id="z35183c9"><use href="#z35183d9"/></clipPath>
  <clipPath id="z35183c10"><use href="#z35183d10"/></clipPath>
  <clipPath id="z35183c11"><use href="#z35183d11"/></clipPath>
  <clipPath id="z35183c12"><use href="#z35183d12"/></clipPath>
  <clipPath id="z35183c13"><use href="#z35183d13"/></clipPath>
  <clipPath id="z35183c14"><use href="#z35183d14"/></clipPath>
  <clipPath id="z35183c15"><use href="#z35183d15"/></clipPath>
  <clipPath id="z35183c16"><use href="#z35183d16"/></clipPath>
  <clipPath id="z35183c17"><use href="#z35183d17"/></clipPath>
  <clipPath id="z35183c18"><use href="#z35183d18"/></clipPath>
  <clipPath id="z35183c19"><use href="#z35183d19"/></clipPath>
  <clipPath id="z35183c20"><use href="#z35183d20"/></clipPath>
  <clipPath id="z35183c21"><use href="#z35183d21"/></clipPath>
</defs>
<path style="--d:1s;" pathLength="3333" clip-path="url(#z35183c1)" d="M 221 795 L 292 750 L 318 711"/>
<path style="--d:2s;" pathLength="3333" clip-path="url(#z35183c2)" d="M 54 521 L 101 511 L 232 557 L 274 556 L 267 519 L 200 394 L 125 293 L 35 202"/>
<path style="--d:3s;" pathLength="3333" clip-path="url(#z35183c3)" d="M 210 365 L 211 342 L 225 318 L 211 56 L 215 9"/>
<path style="--d:4s;" pathLength="3333" clip-path="url(#z35183c4)" d="M 338 456 L 319 452 L 285 400"/>
<path style="--d:5s;" pathLength="3333" clip-path="url(#z35183c5)" d="M 261 399 L 299 369 L 314 343"/>
<path style="--d:6s;" pathLength="3333" clip-path="url(#z35183c6)" d="M 464 801 L 516 759 L 532 732"/>
<path style="--d:7s;" pathLength="3333" clip-path="url(#z35183c7)" d="M 359 618 L 383 615 L 440 622 L 528 649 L 565 650"/>
<path style="--d:8s;" pathLength="3333" clip-path="url(#z35183c8)" d="M 398 555 L 422 521 L 430 498"/>
<path style="--d:9s;" pathLength="3333" clip-path="url(#z35183c9)" d="M 522 600 L 540 572 L 510 495 L 500 486"/>
<path style="--d:10s;" pathLength="3333" clip-path="url(#z35183c10)" d="M 365 431 L 417 437 L 519 467 L 562 466"/>
<path style="--d:11s;" pathLength="3333" clip-path="url(#z35183c11)" d="M 366 327 L 422 330 L 520 363 L 561 367"/>
<path style="--d:12s;" pathLength="3333" clip-path="url(#z35183c12)" d="M 434 422 L 449 414 L 465 387 L 462 120 L 444 81 L 376 107"/>
<path style="--d:13s;" pathLength="3333" clip-path="url(#z35183c13)" d="M 357 258 L 344 210 L 309 138"/>
<path style="--d:14s;" pathLength="3333" clip-path="url(#z35183c14)" d="M 493 271 L 499 258 L 538 238 L 550 224"/>
<path style="--d:15s;" pathLength="3333" clip-path="url(#z35183c15)" d="M 600 664 L 622 640 L 629 599 L 625 339 L 633 320"/>
<path style="--d:16s;" pathLength="3333" clip-path="url(#z35183c16)" d="M 647 650 L 656 645 L 756 679 L 786 670 L 801 657 L 803 385 L 794 344 L 800 299"/>
<path style="--d:17s;" pathLength="3333" clip-path="url(#z35183c17)" d="M 651 529 L 700 552 L 738 552"/>
<path style="--d:18s;" pathLength="3333" clip-path="url(#z35183c18)" d="M 653 431 L 660 443 L 726 453 L 744 449"/>
<path style="--d:19s;" pathLength="3333" clip-path="url(#z35183c19)" d="M 647 328 L 658 339 L 716 350 L 738 352 L 749 342"/>
<path style="--d:20s;" pathLength="3333" clip-path="url(#z35183c20)" d="M 624 306 L 638 296 L 649 272 L 630 218 L 573 117 L 548 84 L 509 49"/>
<path style="--d:21s;" pathLength="3333" clip-path="url(#z35183c21)" d="M 710 299 L 724 285 L 735 253 L 722 142 L 726 76 L 738 49 L 762 33 L 834 19 L 883 24 L 924 39 L 942 57 L 948 172"/>
</svg>