<svg id="z33638" class="acjk" viewBox="0 0 1024 1024" xmlns="http://www.w3.org/2000/svg">
<style>
<![CDATA[
@keyframes zk {
	to {
		stroke-dashoffset:0;
	}
}
svg.acjk path[clip-path] {
	--t:0.8s;
	animation:zk var(--t) linear forwards var(--d);
	stroke-dasharray:3337;
	stroke-dashoffset:3339;
	stroke-width:128;
	stroke-linecap:round;
	stroke-linejoin:round;
	fill:none;
	stroke:#000;
}
svg.acjk path[id] {fill:#ccc;}
]]>
</style>
  <path id="z33638d1" d="M 623 683 Q 719 692 797 685 Q 813 684 819 694 Q 823 706 810 721 Q 755 767 655 740 Q 651 740 647 738 L 586 728 Q 510 716 425 704 L 372 697 Q 312 691 248 683 Q 217 680 239 664 Q 281 637 359 649 Q 371 653 386 655 L 430 664 Q 466 674 574 680 L 623 683 Z"/>
  <path id="z33638d2" d="M 425 704 Q 421 735 420 759 Q 420 780 398 785 Q 353 803 332 794 Q 313 784 330 764 Q 358 734 372 697 L 386 655 Q 398 613 414 596 Q 429 586 433 598 Q 436 616 430 664 L 425 704 Z"/>
  <path id="z33638d3" d="M 647 738 Q 656 760 673 786 Q 688 801 677 812 Q 665 830 630 848 Q 612 858 594 850 Q 584 843 592 832 Q 604 805 586 728 L 574 680 Q 556 619 558 608 Q 559 593 576 605 Q 588 614 623 683 L 647 738 Z"/>
  <path id="z33638d4" d="M 241 529 Q 232 542 225 547 Q 206 562 204 535 Q 210 505 194 482 Q 179 464 157 445 Q 147 432 151 411 Q 158 380 167 363 Q 183 336 203 365 Q 219 398 252 495 Q 252 498 252 501 L 241 529 Z"/>
  <path id="z33638d5" d="M 252 501 Q 279 483 316 495 Q 478 540 714 557 Q 751 561 767 557 Q 786 550 784 541 Q 762 496 739 448 Q 739 447 741 445 Q 748 441 765 451 Q 823 488 871 499 Q 911 511 910 520 Q 909 530 839 587 Q 814 608 751 595 Q 630 585 370 545 Q 312 538 252 532 Q 245 532 241 529 C 211 524 224 513 252 501 Z"/>
  <path id="z33638d6" d="M 387 375 Q 399 394 412 409 Q 421 419 408 432 Q 374 459 350 457 Q 340 456 342 442 Q 354 385 300 320 Q 287 304 281 294 Q 274 281 287 285 Q 320 289 370 351 L 387 375 Z"/>
  <path id="z33638d7" d="M 545 352 Q 680 373 690 381 Q 699 388 694 396 Q 688 409 660 416 Q 635 422 546 398 L 490 386 Q 441 379 387 375 C 357 373 343 363 370 351 Q 412 330 464 339 Q 476 343 491 343 L 545 352 Z"/>
  <path id="z33638d8" d="M 543 214 Q 579 217 816 217 Q 837 216 843 225 Q 849 238 831 253 Q 776 295 735 287 Q 662 274 543 256 L 491 250 Q 361 237 210 219 Q 188 218 204 199 Q 219 184 238 178 Q 260 171 277 176 Q 416 209 491 210 L 543 214 Z"/>
  <path id="z33638d9" d="M 495 -4 Q 499 -28 506 -37 Q 512 -44 519 -42 Q 532 -33 539 23 Q 542 54 543 214 L 543 256 Q 543 298 545 352 L 546 398 Q 549 422 555 449 Q 558 465 544 475 Q 513 496 499 498 Q 487 502 472 494 Q 463 487 471 477 Q 489 447 490 386 L 491 343 Q 491 301 491 250 L 491 210 Q 491 27 495 -4 Z"/>
<defs>
  <clipPath id="z33638c1"><use href="#z33638d1"/></clipPath>
  <clipPath id="z33638c2"><use href="#z33638d2"/></clipPath>
  <clipPath id="z33638c3"><use href="#z33638d3"/></clipPath>
  <clipPath id="z33638c4"><use href="#z33638d4"/></clipPath>
  <clipPath id="z33638c5"><use href="#z33638d5"/></clipPath>
  <clipPath id="z33638c6"><use href="#z33638d6"/></clipPath>
  <clipPath id="z33638c7"><use href="#z33638d7"/></clipPath>
  <clipPath id="z33638c8"><use href="#z33638d8"/></clipPath>
  <clipPath id="z33638c9"><use href="#z33638d9"/></clipPath>
</defs>
<path style="--d:1s;" pathLength="3333" clip-path="url(#z33638c1)" d="M 241 675 L 286 667 L 330 668 L 466 691 L 705 719 L 769 715 L 806 700"/>
<path style="--d:2s;" pathLength="3333" clip-path="url(#z33638c2)" d="M 339 778 L 385 751 L 423 602"/>
<path style="--d:3s;" pathLength="3333" clip-path="url(#z33638c3)" d="M 600 840 L 616 830 L 636 799 L 598 680 L 567 608"/>
<path style="--d:4s;" pathLength="3333" clip-path="url(#z33638c4)" d="M 215 540 L 228 498 L 219 473 L 186 421 L 183 367"/>
<path style="--d:5s;" pathLength="3333" clip-path="url(#z33638c5)" d="M 248 524 L 284 512 L 498 550 L 641 568 L 766 578 L 796 573 L 812 563 L 830 535 L 746 451"/>
<path style="--d:6s;" pathLength="3333" clip-path="url(#z33638c6)" d="M 352 447 L 376 416 L 369 396 L 337 339 L 290 293"/>
<path style="--d:7s;" pathLength="3333" clip-path="url(#z33638c7)" d="M 379 353 L 396 359 L 482 363 L 640 393 L 683 391"/>
<path style="--d:8s;" pathLength="3333" clip-path="url(#z33638c8)" d="M 207 209 L 260 199 L 442 227 L 745 253 L 831 232"/>
<path style="--d:9s;" pathLength="3333" clip-path="url(#z33638c9)" d="M 478 485 L 497 475 L 519 449 L 515 -33"/>
</svg>