<svg id="z30778" class="acjk" viewBox="0 0 1024 1024" xmlns="http://www.w3.org/2000/svg">
<style>
<![CDATA[
@keyframes zk {
	to {
		stroke-dashoffset:0;
	}
}
svg.acjk path[clip-path] {
	--t:0.8s;
	animation:zk var(--t) linear forwards var(--d);
	stroke-dasharray:3337;
	stroke-dashoffset:3339;
	stroke-width:128;
	stroke-linecap:round;
	stroke-linejoin:round;
	fill:none;
	stroke:#000;
}
svg.acjk path[id] {fill:#ccc;}
]]>
</style>
  <path id="z30778d1" d="M 278 627 Q 435 670 441 675 Q 448 684 444 692 Q 437 704 406 709 Q 379 712 288 679 Q 188 655 167 651 Q 130 642 158 627 Q 192 609 239 617 L 278 627 Z"/>
  <path id="z30778d2" d="M 247 423 Q 274 478 309 560 Q 324 596 324 598 Q 321 607 308 615 Q 295 624 278 627 C 249 635 230 641 239 617 Q 248 608 246 569 Q 237 512 204 435 L 179 383 Q 145 320 43 195 Q 36 189 47 188 Q 56 191 77 209 Q 114 236 146 269 Q 171 297 196 333 L 232 391 Q 231 392 233 392 L 247 423 Z"/>
  <path id="z30778d3" d="M 204 435 Q 194 438 177 440 Q 167 443 163 438 Q 157 432 165 417 Q 165 411 171 402 Q 171 399 179 383 L 196 333 Q 209 287 220 226 Q 224 190 244 167 Q 262 146 266 161 Q 273 186 265 230 L 259 260 Q 240 353 232 391 C 226 420 224 430 204 435 Z"/>
  <path id="z30778d4" d="M 395 289 Q 408 380 433 408 Q 452 433 430 445 Q 411 455 386 470 Q 367 479 350 467 Q 331 454 247 423 C 219 413 204 383 233 392 Q 282 408 323 419 Q 351 428 359 417 Q 366 411 347 285 C 343 255 391 259 395 289 Z"/>
  <path id="z30778d5" d="M 265 230 Q 272 229 284 232 Q 326 242 415 255 Q 425 256 425 265 Q 425 272 395 289 C 383 296 376 294 347 285 Q 296 269 259 260 C 230 253 235 231 265 230 Z"/>
  <path id="z30778d6" d="M 564 678 Q 588 675 736 697 Q 895 724 905 731 Q 915 738 911 748 Q 904 761 874 769 Q 844 776 741 746 Q 608 724 555 717 C 525 713 534 679 564 678 Z"/>
  <path id="z30778d7" d="M 553 527 Q 560 668 564 678 C 568 708 568 708 555 717 Q 506 753 482 742 Q 470 735 478 721 Q 532 637 475 333 Q 469 311 463 289 Q 429 178 353 47 Q 349 40 347 34 Q 346 24 356 26 Q 371 29 408 81 Q 520 216 551 497 L 553 527 Z"/>
  <path id="z30778d8" d="M 703 513 Q 749 531 925 532 Q 944 533 949 542 Q 953 554 937 566 Q 877 605 820 583 Q 777 574 712 558 Q 639 545 553 527 C 524 521 523 507 551 497 Q 575 485 628 498 Q 644 502 662 506 L 703 513 Z"/>
  <path id="z30778d9" d="M 703 366 Q 719 360 774 364 Q 799 363 809 352 Q 827 328 789 187 Q 768 121 742 108 Q 727 107 686 128 Q 652 147 646 142 Q 640 133 656 120 Q 698 81 711 36 Q 715 20 727 14 Q 740 8 773 30 Q 813 61 836 138 Q 846 180 857 237 Q 869 322 889 337 Q 899 344 899 353 Q 899 363 873 383 Q 833 414 784 398 Q 745 395 712 398 C 682 400 673 371 703 366 Z"/>
  <path id="z30778d10" d="M 712 398 Q 718 431 731 458 Q 741 470 736 483 Q 724 499 703 513 C 679 531 657 536 662 506 Q 668 476 665 449 Q 662 440 661 429 Q 631 242 509 99 Q 505 95 501 89 Q 498 79 508 80 Q 535 80 606 163 Q 613 175 623 187 Q 665 250 703 366 L 712 398 Z"/>
<defs>
  <clipPath id="z30778c1"><use href="#z30778d1"/></clipPath>
  <clipPath id="z30778c2"><use href="#z30778d2"/></clipPath>
  <clipPath id="z30778c3"><use href="#z30778d3"/></clipPath>
  <clipPath id="z30778c4"><use href="#z30778d4"/></clipPath>
  <clipPath id="z30778c5"><use href="#z30778d5"/></clipPath>
  <clipPath id="z30778c6"><use href="#z30778d6"/></clipPath>
  <clipPath id="z30778c7"><use href="#z30778d7"/></clipPath>
  <clipPath id="z30778c8"><use href="#z30778d8"/></clipPath>
  <clipPath id="z30778c9"><use href="#z30778d9"/></clipPath>
  <clipPath id="z30778c10"><use href="#z30778d10"/></clipPath>
</defs>
<path style="--d:1s;" pathLength="3333" clip-path="url(#z30778c1)" d="M 159 640 L 216 637 L 396 685 L 435 683"/>
<path style="--d:2s;" pathLength="3333" clip-path="url(#z30778c2)" d="M 246 617 L 278 594 L 282 583 L 225 427 L 183 349 L 137 285 L 78 220 L 67 216 L 67 209 L 51 202 L 49 194"/>
<path style="--d:3s;" pathLength="3333" clip-path="url(#z30778c3)" d="M 171 431 L 190 415 L 207 381 L 256 166"/>
<path style="--d:4s;" pathLength="3333" clip-path="url(#z30778c4)" d="M 246 405 L 261 417 L 360 445 L 372 444 L 390 429 L 397 421 L 375 310 L 352 298"/>
<path style="--d:5s;" pathLength="3333" clip-path="url(#z30778c5)" d="M 269 239 L 279 248 L 344 265 L 395 271 L 416 264"/>
<path style="--d:6s;" pathLength="3333" clip-path="url(#z30778c6)" d="M 561 711 L 581 699 L 603 701 L 746 721 L 843 743 L 899 743"/>
<path style="--d:7s;" pathLength="3333" clip-path="url(#z30778c7)" d="M 488 730 L 525 698 L 530 677 L 530 542 L 509 379 L 486 282 L 455 199 L 413 117 L 356 35"/>
<path style="--d:8s;" pathLength="3333" clip-path="url(#z30778c8)" d="M 560 504 L 836 559 L 879 561 L 938 547"/>
<path style="--d:9s;" pathLength="3333" clip-path="url(#z30778c9)" d="M 708 370 L 725 380 L 797 382 L 821 377 L 847 358 L 850 346 L 823 204 L 790 108 L 766 77 L 747 65 L 650 137"/>
<path style="--d:10s;" pathLength="3333" clip-path="url(#z30778c10)" d="M 670 500 L 696 481 L 699 464 L 660 316 L 626 235 L 585 166 L 529 102 L 510 89"/>
</svg>