<svg id="z36387" class="acjk" viewBox="0 0 1024 1024" xmlns="http://www.w3.org/2000/svg">
<style>
<![CDATA[
@keyframes zk {
	to {
		stroke-dashoffset:0;
	}
}
svg.acjk path[clip-path] {
	--t:0.8s;
	animation:zk var(--t) linear forwards var(--d);
	stroke-dasharray:3337;
	stroke-dashoffset:3339;
	stroke-width:128;
	stroke-linecap:round;
	stroke-linejoin:round;
	fill:none;
	stroke:#000;
}
svg.acjk path[id] {fill:#ccc;}
]]>
</style>
  <path id="z36387d1" d="M 175 695 Q 162 699 133 704 Q 121 707 119 701 Q 113 695 121 681 Q 149 627 168 538 Q 172 511 188 494 Q 206 475 210 489 Q 213 499 213 514 L 210 542 Q 206 551 186 668 C 182 693 182 693 175 695 Z"/>
  <path id="z36387d2" d="M 346 575 Q 368 648 391 670 Q 413 695 391 709 Q 333 745 324 744 Q 317 744 309 739 Q 270 715 175 695 C 146 689 157 660 186 668 Q 186 669 281 690 Q 309 697 316 685 Q 323 679 314 647 Q 305 611 294 570 C 286 541 337 546 346 575 Z"/>
  <path id="z36387d3" d="M 261 523 Q 306 533 364 544 Q 374 547 374 552 Q 374 562 355 572 Q 351 573 346 575 C 324 583 322 582 294 570 Q 266 558 245 552 Q 226 548 210 542 C 182 532 183 510 213 514 Q 217 515 225 515 L 261 523 Z"/>
  <path id="z36387d4" d="M 289 236 Q 290 317 293 383 L 294 414 Q 294 442 296 471 Q 303 489 294 498 Q 278 514 261 523 C 235 538 214 543 225 515 Q 240 479 242 461 Q 243 436 247 221 C 248 191 289 206 289 236 Z"/>
  <path id="z36387d5" d="M 293 383 Q 348 396 390 404 Q 411 410 402 421 Q 390 434 366 435 Q 344 436 306 421 Q 299 418 294 414 C 270 396 264 376 293 383 Z"/>
  <path id="z36387d6" d="M 189 200 Q 179 327 182 352 Q 183 373 170 383 Q 148 399 123 406 Q 110 410 102 404 Q 96 397 102 384 Q 118 357 128 328 Q 135 300 153 187 C 158 157 191 170 189 200 Z"/>
  <path id="z36387d7" d="M 153 187 Q 138 184 125 178 Q 106 171 75 171 Q 62 170 61 158 Q 60 145 69 138 Q 93 123 127 106 Q 137 103 148 113 Q 184 143 352 228 Q 376 241 393 255 Q 406 262 406 272 Q 400 278 388 274 Q 340 256 289 236 L 247 221 Q 217 211 189 200 L 153 187 Z"/>
  <path id="z36387d8" d="M 596 768 Q 621 746 649 719 Q 664 706 680 706 Q 692 707 697 721 Q 701 736 692 767 Q 686 786 655 800 Q 582 825 568 819 Q 562 815 564 801 Q 568 791 596 768 Z"/>
  <path id="z36387d9" d="M 715 608 Q 731 612 752 615 Q 795 625 802 630 Q 811 637 806 645 Q 800 655 774 663 Q 750 669 651 639 Q 510 617 485 614 Q 451 610 475 593 Q 509 572 578 584 Q 620 593 670 598 L 715 608 Z"/>
  <path id="z36387d10" d="M 501 479 Q 528 421 544 414 Q 554 413 561 421 Q 570 431 570 459 Q 570 483 510 520 Q 498 527 493 527 Q 487 526 485 514 Q 485 504 501 479 Z"/>
  <path id="z36387d11" d="M 656 384 Q 674 409 718 501 Q 728 523 746 552 Q 762 565 752 576 Q 742 592 715 608 C 689 624 663 627 670 598 Q 683 559 634 412 Q 627 394 627 380 C 625 350 639 359 656 384 Z"/>
  <path id="z36387d12" d="M 627 380 Q 518 368 393 354 Q 372 353 387 335 Q 400 322 419 315 Q 440 309 456 314 Q 597 348 882 349 Q 898 349 913 348 Q 934 348 938 356 Q 944 368 928 382 Q 874 421 838 414 Q 771 401 656 384 L 627 380 Z"/>
  <path id="z36387d13" d="M 468 240 Q 459 243 449 245 Q 436 249 433 244 Q 426 238 434 222 Q 462 155 477 50 Q 478 19 496 -4 Q 512 -26 519 -11 Q 526 7 523 36 L 518 73 Q 502 184 502 209 C 501 230 497 231 468 240 Z"/>
  <path id="z36387d14" d="M 754 102 Q 787 186 815 205 Q 834 224 819 243 Q 801 258 747 286 Q 728 295 705 286 Q 609 252 469 241 Q 468 241 468 240 C 438 236 472 207 502 209 Q 515 209 534 213 Q 613 225 688 236 Q 707 240 715 232 Q 724 223 721 205 Q 711 147 698 101 C 690 72 743 74 754 102 Z"/>
  <path id="z36387d15" d="M 523 36 Q 529 36 538 37 Q 613 52 774 60 Q 784 61 787 70 Q 788 79 756 101 Q 755 102 754 102 L 698 101 Q 598 82 518 73 C 488 70 493 35 523 36 Z"/>
<defs>
  <clipPath id="z36387c1"><use href="#z36387d1"/></clipPath>
  <clipPath id="z36387c2"><use href="#z36387d2"/></clipPath>
  <clipPath id="z36387c3"><use href="#z36387d3"/></clipPath>
  <clipPath id="z36387c4"><use href="#z36387d4"/></clipPath>
  <clipPath id="z36387c5"><use href="#z36387d5"/></clipPath>
  <clipPath id="z36387c6"><use href="#z36387d6"/></clipPath>
  <clipPath id="z36387c7"><use href="#z36387d7"/></clipPath>
  <clipPath id="z36387c8"><use href="#z36387d8"/></clipPath>
  <clipPath id="z36387c9"><use href="#z36387d9"/></clipPath>
  <clipPath id="z36387c10"><use href="#z36387d10"/></clipPath>
  <clipPath id="z36387c11"><use href="#z36387d11"/></clipPath>
  <clipPath id="z36387c12"><use href="#z36387d12"/></clipPath>
  <clipPath id="z36387c13"><use href="#z36387d13"/></clipPath>
  <clipPath id="z36387c14"><use href="#z36387d14"/></clipPath>
  <clipPath id="z36387c15"><use href="#z36387d15"/></clipPath>
</defs>
<path style="--d:1s;" pathLength="3333" clip-path="url(#z36387c1)" d="M 128 694 L 155 672 L 159 662 L 200 495"/>
<path style="--d:2s;" pathLength="3333" clip-path="url(#z36387c2)" d="M 184 675 L 208 689 L 316 715 L 345 700 L 356 687 L 327 598 L 300 577"/>
<path style="--d:3s;" pathLength="3333" clip-path="url(#z36387c3)" d="M 218 522 L 231 533 L 302 552 L 341 558 L 365 554"/>
<path style="--d:4s;" pathLength="3333" clip-path="url(#z36387c4)" d="M 233 508 L 257 497 L 268 482 L 268 251 L 250 234"/>
<path style="--d:5s;" pathLength="3333" clip-path="url(#z36387c5)" d="M 299 391 L 321 409 L 361 417 L 393 415"/>
<path style="--d:6s;" pathLength="3333" clip-path="url(#z36387c6)" d="M 110 396 L 151 356 L 169 215 L 155 200"/>
<path style="--d:7s;" pathLength="3333" clip-path="url(#z36387c7)" d="M 74 158 L 130 144 L 400 269"/>
<path style="--d:8s;" pathLength="3333" clip-path="url(#z36387c8)" d="M 573 812 L 647 767 L 678 725"/>
<path style="--d:9s;" pathLength="3333" clip-path="url(#z36387c9)" d="M 477 605 L 533 599 L 660 618 L 768 642 L 794 640"/>
<path style="--d:10s;" pathLength="3333" clip-path="url(#z36387c10)" d="M 494 517 L 542 458 L 547 426"/>
<path style="--d:11s;" pathLength="3333" clip-path="url(#z36387c11)" d="M 678 596 L 710 567 L 669 449 L 646 397 L 634 384"/>
<path style="--d:12s;" pathLength="3333" clip-path="url(#z36387c12)" d="M 390 344 L 446 336 L 547 352 L 847 382 L 890 376 L 927 363"/>
<path style="--d:13s;" pathLength="3333" clip-path="url(#z36387c13)" d="M 440 236 L 474 196 L 508 -4"/>
<path style="--d:14s;" pathLength="3333" clip-path="url(#z36387c14)" d="M 474 235 L 478 239 L 507 227 L 707 261 L 732 259 L 767 223 L 733 128 L 705 106"/>
<path style="--d:15s;" pathLength="3333" clip-path="url(#z36387c15)" d="M 525 68 L 538 57 L 694 78 L 754 80 L 778 71"/>
</svg>