<svg id="z36604" class="acjk" viewBox="0 0 1024 1024" xmlns="http://www.w3.org/2000/svg">
<style>
<![CDATA[
@keyframes zk {
	to {
		stroke-dashoffset:0;
	}
}
svg.acjk path[clip-path] {
	--t:0.8s;
	animation:zk var(--t) linear forwards var(--d);
	stroke-dasharray:3337;
	stroke-dashoffset:3339;
	stroke-width:128;
	stroke-linecap:round;
	stroke-linejoin:round;
	fill:none;
	stroke:#000;
}
svg.acjk path[id] {fill:#ccc;}
]]>
</style>
  <path id="z36604d1" d="M 319 637 Q 419 673 422 674 Q 429 683 424 690 Q 417 700 389 703 Q 353 704 324 686 L 275 666 Q 239 656 200 647 Q 169 637 193 625 Q 232 612 276 623 L 319 637 Z"/>
  <path id="z36604d2" d="M 164 529 Q 154 536 121 540 Q 111 543 107 538 Q 101 532 109 517 Q 137 462 153 372 Q 157 344 173 327 Q 189 306 194 321 Q 195 325 197 332 L 197 355 Q 196 367 194 380 Q 178 468 174 499 C 170 526 170 526 164 529 Z"/>
  <path id="z36604d3" d="M 366 364 Q 379 345 393 338 Q 403 331 416 350 Q 426 369 450 476 Q 457 504 477 526 Q 487 538 478 549 Q 465 564 426 585 Q 410 592 339 572 Q 332 572 316 566 L 276 556 Q 254 552 232 546 Q 195 536 164 529 C 135 522 146 489 174 499 Q 213 514 276 527 L 315 536 Q 381 551 395 543 Q 407 536 404 519 Q 386 407 373 393 C 361 370 361 370 366 364 Z"/>
  <path id="z36604d4" d="M 314 443 Q 333 447 354 451 Q 373 455 365 466 Q 355 478 334 480 Q 325 481 315 478 L 275 466 Q 247 456 225 447 Q 212 443 229 431 L 274 435 L 314 443 Z"/>
  <path id="z36604d5" d="M 312 354 Q 340 360 366 364 C 396 369 401 382 373 393 Q 352 403 313 390 L 272 377 Q 232 367 197 355 C 169 345 167 334 197 332 Q 204 331 214 333 Q 242 340 271 345 L 312 354 Z"/>
  <path id="z36604d6" d="M 310 227 Q 371 246 450 261 Q 466 265 467 272 Q 467 285 448 294 Q 412 307 311 271 L 269 259 Q 119 220 63 213 Q 50 210 47 202 Q 44 192 61 180 Q 106 153 145 171 Q 215 199 268 215 L 310 227 Z"/>
  <path id="z36604d7" d="M 268 215 Q 262 142 242 73 Q 232 36 256 -26 Q 263 -44 271 -47 Q 277 -54 284 -45 Q 291 -41 302 -21 Q 311 4 310 34 Q 309 65 310 227 L 311 271 Q 311 310 312 354 L 313 390 Q 313 415 314 443 L 315 478 Q 315 506 315 536 L 316 566 Q 316 582 319 637 L 324 686 Q 328 722 337 750 Q 346 765 343 778 Q 336 788 282 821 Q 260 837 239 823 Q 235 817 241 803 Q 274 752 275 666 L 276 623 Q 276 592 276 556 L 276 527 Q 275 499 275 466 L 274 435 Q 273 407 272 377 L 271 345 Q 270 303 269 259 L 268 215 Z"/>
  <path id="z36604d8" d="M 563 506 Q 570 525 592 577 Q 599 590 583 600 Q 538 619 518 612 Q 509 608 514 595 Q 541 537 495 448 Q 483 427 479 415 Q 475 400 487 407 Q 517 419 553 485 L 563 506 Z"/>
  <path id="z36604d9" d="M 688 488 Q 814 521 816 522 Q 823 529 819 537 Q 812 547 785 554 Q 758 558 691 533 L 642 519 Q 603 512 563 506 C 533 502 525 496 553 485 L 554 485 Q 587 469 639 476 L 688 488 Z"/>
  <path id="z36604d10" d="M 673 346 Q 739 359 851 366 Q 897 370 901 377 Q 905 387 890 399 Q 833 433 779 412 Q 737 403 679 387 L 628 376 Q 564 364 494 349 Q 475 345 490 331 Q 503 321 520 316 Q 539 312 553 318 Q 584 328 621 336 L 673 346 Z"/>
  <path id="z36604d11" d="M 667 313 Q 670 329 673 346 L 679 387 Q 682 438 688 488 L 691 533 Q 701 677 723 733 Q 730 748 719 759 Q 697 778 655 791 Q 630 798 620 791 Q 610 784 618 771 Q 640 732 644 683 Q 647 599 642 519 L 639 476 Q 630 386 628 376 L 621 336 Q 594 195 495 117 Q 456 87 402 55 Q 389 48 388 43 Q 389 39 402 39 Q 418 35 461 50 Q 612 99 660 284 L 667 313 Z"/>
  <path id="z36604d12" d="M 660 284 Q 723 176 807 60 Q 823 41 853 41 Q 950 42 982 46 Q 991 49 992 53 Q 993 57 981 66 Q 845 132 762 214 Q 717 257 670 310 Q 669 311 667 313 C 647 335 645 310 660 284 Z"/>
<defs>
  <clipPath id="z36604c1"><use href="#z36604d1"/></clipPath>
  <clipPath id="z36604c2"><use href="#z36604d2"/></clipPath>
  <clipPath id="z36604c3"><use href="#z36604d3"/></clipPath>
  <clipPath id="z36604c4"><use href="#z36604d4"/></clipPath>
  <clipPath id="z36604c5"><use href="#z36604d5"/></clipPath>
  <clipPath id="z36604c6"><use href="#z36604d6"/></clipPath>
  <clipPath id="z36604c7"><use href="#z36604d7"/></clipPath>
  <clipPath id="z36604c8"><use href="#z36604d8"/></clipPath>
  <clipPath id="z36604c9"><use href="#z36604d9"/></clipPath>
  <clipPath id="z36604c10"><use href="#z36604d10"/></clipPath>
  <clipPath id="z36604c11"><use href="#z36604d11"/></clipPath>
  <clipPath id="z36604c12"><use href="#z36604d12"/></clipPath>
</defs>
<path style="--d:1s;" pathLength="3333" clip-path="url(#z36604c1)" d="M 194 637 L 252 638 L 361 677 L 406 685 L 418 681"/>
<path style="--d:2s;" pathLength="3333" clip-path="url(#z36604c2)" d="M 115 531 L 142 509 L 147 497 L 184 326"/>
<path style="--d:3s;" pathLength="3333" clip-path="url(#z36604c3)" d="M 172 523 L 187 519 L 354 561 L 392 565 L 417 560 L 439 536 L 395 370 L 399 354"/>
<path style="--d:4s;" pathLength="3333" clip-path="url(#z36604c4)" d="M 228 439 L 323 463 L 357 460"/>
<path style="--d:5s;" pathLength="3333" clip-path="url(#z36604c5)" d="M 201 338 L 222 350 L 365 387"/>
<path style="--d:6s;" pathLength="3333" clip-path="url(#z36604c6)" d="M 58 199 L 120 193 L 367 267 L 432 278 L 457 275"/>
<path style="--d:7s;" pathLength="3333" clip-path="url(#z36604c7)" d="M 250 817 L 301 763 L 291 215 L 275 60 L 276 -34"/>
<path style="--d:8s;" pathLength="3333" clip-path="url(#z36604c8)" d="M 523 602 L 555 575 L 554 560 L 531 484 L 488 416"/>
<path style="--d:9s;" pathLength="3333" clip-path="url(#z36604c9)" d="M 562 488 L 653 500 L 773 533 L 812 531"/>
<path style="--d:10s;" pathLength="3333" clip-path="url(#z36604c10)" d="M 492 340 L 536 336 L 692 371 L 819 392 L 894 382"/>
<path style="--d:11s;" pathLength="3333" clip-path="url(#z36604c11)" d="M 627 780 L 654 762 L 678 731 L 656 396 L 629 265 L 588 179 L 553 135 L 500 91 L 395 42"/>
<path style="--d:12s;" pathLength="3333" clip-path="url(#z36604c12)" d="M 672 301 L 672 289 L 740 200 L 839 93 L 985 53"/>
</svg>