<svg id="z30565" class="acjk" viewBox="0 0 1024 1024" xmlns="http://www.w3.org/2000/svg">
<style>
<![CDATA[
@keyframes zk {
	to {
		stroke-dashoffset:0;
	}
}
svg.acjk path[clip-path] {
	--t:0.8s;
	animation:zk var(--t) linear forwards var(--d);
	stroke-dasharray:3337;
	stroke-dashoffset:3339;
	stroke-width:128;
	stroke-linecap:round;
	stroke-linejoin:round;
	fill:none;
	stroke:#000;
}
svg.acjk path[id] {fill:#ccc;}
]]>
</style>
  <path id="z30565d1" d="M 176 679 Q 167 697 132 708 Q 122 712 111 708 Q 104 704 109 690 Q 136 614 136 485 Q 136 310 114 219 Q 101 162 137 117 Q 147 104 159 117 Q 168 129 170 143 L 174 177 Q 175 205 176 248 Q 176 306 176 354 L 177 386 Q 177 446 178 491 L 178 524 Q 179 632 181 644 Q 181 647 181 648 L 176 679 Z"/>
  <path id="z30565d2" d="M 268 158 Q 280 140 293 122 Q 309 97 317 100 Q 330 103 346 140 Q 362 182 356 235 Q 329 613 358 665 Q 368 684 359 695 Q 352 705 299 719 Q 274 726 257 716 Q 214 692 176 679 C 148 668 153 638 181 648 Q 269 679 279 674 L 280 673 Q 296 657 295 597 Q 299 347 289 209 Q 290 193 283 187 C 275 158 263 165 268 158 Z"/>
  <path id="z30565d3" d="M 178 491 Q 223 500 255 507 Q 276 514 266 525 Q 254 537 230 538 Q 209 538 178 524 C 151 512 149 485 178 491 Z"/>
  <path id="z30565d4" d="M 176 354 Q 222 363 257 368 Q 279 374 270 385 Q 258 398 234 400 Q 212 401 177 386 C 149 374 147 348 176 354 Z"/>
  <path id="z30565d5" d="M 170 143 Q 222 153 268 158 C 298 161 307 170 283 187 Q 261 205 196 186 Q 184 182 174 177 C 147 164 141 137 170 143 Z"/>
  <path id="z30565d6" d="M 513 675 Q 622 798 633 806 Q 652 821 637 835 Q 621 848 593 856 Q 568 863 556 859 Q 543 855 551 842 Q 561 818 487 679 Q 484 675 482 669 C 470 642 493 653 513 675 Z"/>
  <path id="z30565d7" d="M 440 663 Q 424 670 408 674 Q 402 675 398 670 Q 391 666 400 656 Q 433 611 450 488 Q 456 428 491 410 Q 504 409 505 426 L 504 449 Q 503 471 494 495 Q 476 600 473 629 C 470 650 468 652 440 663 Z"/>
  <path id="z30565d8" d="M 723 459 Q 723 452 726 445 Q 730 429 744 429 Q 759 430 768 445 Q 784 464 813 556 Q 832 610 872 640 Q 893 656 876 673 Q 858 692 806 722 Q 788 732 707 713 Q 653 713 513 675 L 482 669 Q 458 666 440 663 C 410 658 444 620 473 629 Q 522 645 586 656 L 624 663 Q 750 691 772 679 Q 782 672 774 637 Q 743 507 729 482 Q 728 482 728 481 C 721 466 721 466 723 459 Z"/>
  <path id="z30565d9" d="M 586 572 Q 552 563 522 555 Q 507 552 526 539 Q 530 535 580 539 L 628 547 Q 665 554 700 559 Q 721 562 713 573 Q 703 586 681 590 Q 663 593 637 586 L 586 572 Z"/>
  <path id="z30565d10" d="M 593 439 Q 663 452 723 459 C 753 463 752 463 728 481 Q 710 499 653 484 Q 628 480 606 472 L 560 461 Q 532 457 504 449 C 475 441 475 427 505 426 Q 512 425 524 427 Q 534 430 548 431 L 593 439 Z"/>
  <path id="z30565d11" d="M 548 431 Q 524 382 479 316 Q 475 312 473 307 Q 470 298 478 300 Q 503 300 567 388 Q 567 391 570 393 Q 582 415 593 439 L 606 472 Q 619 509 628 547 L 637 586 Q 640 607 647 619 Q 654 629 650 641 Q 640 653 624 663 C 599 680 575 684 586 656 Q 587 652 590 646 Q 594 637 586 572 L 580 539 Q 571 494 560 461 L 548 431 Z"/>
  <path id="z30565d12" d="M 699 270 Q 784 280 944 281 Q 963 281 967 290 Q 973 300 956 314 Q 899 356 851 339 Q 791 327 700 310 L 644 301 Q 526 285 392 266 Q 371 263 387 247 Q 400 234 418 229 Q 439 225 454 228 Q 536 252 632 263 Q 636 264 643 263 L 699 270 Z"/>
  <path id="z30565d13" d="M 688 -14 Q 688 1 699 270 L 700 310 Q 700 335 710 381 Q 713 397 700 407 Q 669 428 655 430 Q 643 436 628 427 Q 619 420 626 409 Q 644 378 644 301 L 643 263 Q 643 190 641 93 Q 638 -49 654 -73 Q 660 -80 667 -78 Q 679 -71 688 -14 Z"/>
<defs>
  <clipPath id="z30565c1"><use href="#z30565d1"/></clipPath>
  <clipPath id="z30565c2"><use href="#z30565d2"/></clipPath>
  <clipPath id="z30565c3"><use href="#z30565d3"/></clipPath>
  <clipPath id="z30565c4"><use href="#z30565d4"/></clipPath>
  <clipPath id="z30565c5"><use href="#z30565d5"/></clipPath>
  <clipPath id="z30565c6"><use href="#z30565d6"/></clipPath>
  <clipPath id="z30565c7"><use href="#z30565d7"/></clipPath>
  <clipPath id="z30565c8"><use href="#z30565d8"/></clipPath>
  <clipPath id="z30565c9"><use href="#z30565d9"/></clipPath>
  <clipPath id="z30565c10"><use href="#z30565d10"/></clipPath>
  <clipPath id="z30565c11"><use href="#z30565d11"/></clipPath>
  <clipPath id="z30565c12"><use href="#z30565d12"/></clipPath>
  <clipPath id="z30565c13"><use href="#z30565d13"/></clipPath>
</defs>
<path style="--d:1s;" pathLength="3333" clip-path="url(#z30565c1)" d="M 118 699 L 148 666 L 156 582 L 157 411 L 142 194 L 148 123"/>
<path style="--d:2s;" pathLength="3333" clip-path="url(#z30565c2)" d="M 191 658 L 201 672 L 271 698 L 302 691 L 321 670 L 325 247 L 323 195 L 313 159 L 316 110"/>
<path style="--d:3s;" pathLength="3333" clip-path="url(#z30565c3)" d="M 186 497 L 191 508 L 205 516 L 257 518"/>
<path style="--d:4s;" pathLength="3333" clip-path="url(#z30565c4)" d="M 183 359 L 188 370 L 206 378 L 260 379"/>
<path style="--d:5s;" pathLength="3333" clip-path="url(#z30565c5)" d="M 177 148 L 196 167 L 255 176 L 276 185"/>
<path style="--d:6s;" pathLength="3333" clip-path="url(#z30565c6)" d="M 557 849 L 580 832 L 589 817 L 527 714 L 518 708 L 513 692 L 500 688 L 490 671"/>
<path style="--d:7s;" pathLength="3333" clip-path="url(#z30565c7)" d="M 406 664 L 428 648 L 448 618 L 470 502 L 492 423"/>
<path style="--d:8s;" pathLength="3333" clip-path="url(#z30565c8)" d="M 447 659 L 478 650 L 721 700 L 759 703 L 794 697 L 823 657 L 795 596 L 744 447"/>
<path style="--d:9s;" pathLength="3333" clip-path="url(#z30565c9)" d="M 523 547 L 568 551 L 661 572 L 705 568"/>
<path style="--d:10s;" pathLength="3333" clip-path="url(#z30565c10)" d="M 509 432 L 527 441 L 719 477"/>
<path style="--d:11s;" pathLength="3333" clip-path="url(#z30565c11)" d="M 593 653 L 608 644 L 620 626 L 589 485 L 547 387 L 510 336 L 480 307"/>
<path style="--d:12s;" pathLength="3333" clip-path="url(#z30565c12)" d="M 390 256 L 446 250 L 579 275 L 875 312 L 906 310 L 955 296"/>
<path style="--d:13s;" pathLength="3333" clip-path="url(#z30565c13)" d="M 635 417 L 653 407 L 674 379 L 663 -69"/>
</svg>