<svg id="z34631" class="acjk" viewBox="0 0 1024 1024" xmlns="http://www.w3.org/2000/svg">
<style>
<![CDATA[
@keyframes zk {
	to {
		stroke-dashoffset:0;
	}
}
svg.acjk path[clip-path] {
	--t:0.8s;
	animation:zk var(--t) linear forwards var(--d);
	stroke-dasharray:3337;
	stroke-dashoffset:3339;
	stroke-width:128;
	stroke-linecap:round;
	stroke-linejoin:round;
	fill:none;
	stroke:#000;
}
svg.acjk path[id] {fill:#ccc;}
]]>
</style>
  <path id="z34631d1" d="M 137 530 Q 125 536 99 541 Q 89 544 85 539 Q 79 535 86 520 Q 110 468 122 382 Q 123 357 138 339 Q 153 318 158 333 Q 162 343 162 358 L 161 386 Q 161 387 161 388 Q 148 478 147 504 C 146 526 146 526 137 530 Z"/>
  <path id="z34631d2" d="M 372 426 Q 394 505 421 527 Q 434 543 422 558 Q 359 603 309 578 Q 290 571 273 563 L 227 549 Q 182 539 137 530 C 108 524 117 503 147 504 Q 162 503 182 510 Q 203 516 227 520 L 272 531 Q 293 537 316 541 Q 332 545 340 539 Q 347 532 347 516 Q 341 470 331 430 C 324 401 364 397 372 426 Z"/>
  <path id="z34631d3" d="M 162 358 Q 163 358 166 357 Q 176 356 188 359 Q 204 363 225 367 L 266 375 Q 315 385 386 395 Q 396 396 397 405 Q 397 412 372 426 L 331 430 Q 327 430 324 428 Q 294 419 267 411 L 226 400 Q 190 393 161 386 C 132 379 132 363 162 358 Z"/>
  <path id="z34631d4" d="M 225 367 Q 222 313 219 256 C 217 226 260 242 261 272 Q 262 324 266 375 L 267 411 Q 268 472 272 531 L 273 563 Q 273 647 295 734 Q 299 746 278 760 Q 244 779 218 783 Q 202 787 194 778 Q 187 771 195 755 Q 223 712 224 682 Q 227 618 227 549 L 227 520 Q 227 462 226 400 L 225 367 Z"/>
  <path id="z34631d5" d="M 219 256 Q 170 241 119 223 Q 103 217 75 217 Q 63 216 62 205 Q 61 192 70 185 Q 92 172 124 155 Q 134 152 145 161 Q 166 179 350 281 C 376 296 368 312 340 302 Q 303 289 261 272 L 219 256 Z"/>
  <path id="z34631d6" d="M 350 281 Q 381 221 388 217 Q 395 214 402 221 Q 409 228 412 250 Q 415 271 395 297 Q 373 321 346 343 Q 337 350 332 350 Q 328 349 326 340 Q 325 334 340 302 L 350 281 Z"/>
  <path id="z34631d7" d="M 501 731 Q 491 735 461 740 Q 449 741 447 737 Q 441 731 450 716 Q 478 665 496 580 Q 500 555 516 538 Q 534 519 538 533 Q 542 545 540 564 L 536 593 Q 518 675 515 702 C 512 728 512 728 501 731 Z"/>
  <path id="z34631d8" d="M 739 621 Q 767 690 793 706 Q 809 724 795 740 Q 780 753 732 778 Q 716 785 694 778 Q 624 750 501 731 C 471 726 485 699 515 702 Q 533 702 680 732 Q 698 736 704 728 Q 711 721 710 705 Q 700 659 689 623 C 680 594 727 593 739 621 Z"/>
  <path id="z34631d9" d="M 624 574 Q 675 583 752 588 Q 762 589 764 597 Q 764 604 739 621 C 724 631 718 630 689 623 Q 602 602 536 593 C 506 589 510 569 540 564 Q 552 561 564 564 Q 576 567 592 569 L 624 574 Z"/>
  <path id="z34631d10" d="M 456 458 Q 444 462 429 465 Q 416 469 413 463 Q 406 457 415 441 Q 446 368 462 251 Q 465 217 484 192 Q 502 170 507 185 Q 511 197 512 212 L 511 237 Q 510 249 508 262 Q 486 392 483 427 C 481 451 481 451 456 458 Z"/>
  <path id="z34631d11" d="M 727 234 Q 745 209 761 201 Q 771 194 787 215 Q 802 242 831 382 Q 840 413 863 439 Q 876 452 865 466 Q 849 484 805 510 Q 787 520 726 504 Q 705 504 650 491 L 601 483 Q 582 482 567 477 Q 507 467 456 458 C 426 453 454 419 483 427 Q 507 436 600 450 L 646 458 Q 749 476 765 462 Q 778 446 776 430 Q 752 274 734 263 C 721 242 721 242 727 234 Z"/>
  <path id="z34631d12" d="M 641 341 Q 675 347 707 349 Q 729 353 721 365 Q 711 378 687 384 Q 669 387 642 380 L 599 369 Q 562 360 531 352 Q 515 349 534 334 Q 538 331 597 335 L 641 341 Z"/>
  <path id="z34631d13" d="M 638 225 Q 686 231 727 234 C 757 236 759 247 734 263 Q 718 279 638 260 L 594 251 Q 551 244 511 237 C 481 232 482 214 512 212 Q 521 211 533 212 Q 564 216 593 219 L 638 225 Z"/>
  <path id="z34631d14" d="M 593 219 Q 593 114 608 82 Q 623 48 654 33 Q 697 14 761 10 Q 836 7 884 20 Q 935 36 952 46 Q 974 56 960 93 Q 944 147 942 214 Q 941 232 936 233 Q 930 234 927 217 Q 917 151 901 113 Q 894 97 868 84 Q 837 71 782 71 Q 718 72 688 83 Q 660 96 650 121 Q 640 143 638 225 L 638 260 Q 638 261 639 263 Q 639 305 641 341 L 642 380 Q 643 425 646 458 L 650 491 Q 650 494 651 496 Q 654 542 624 574 C 607 599 587 599 592 569 L 593 567 Q 600 528 601 483 L 600 450 Q 599 404 599 369 L 597 335 Q 597 323 594 251 L 593 219 Z"/>
<defs>
  <clipPath id="z34631c1"><use href="#z34631d1"/></clipPath>
  <clipPath id="z34631c2"><use href="#z34631d2"/></clipPath>
  <clipPath id="z34631c3"><use href="#z34631d3"/></clipPath>
  <clipPath id="z34631c4"><use href="#z34631d4"/></clipPath>
  <clipPath id="z34631c5"><use href="#z34631d5"/></clipPath>
  <clipPath id="z34631c6"><use href="#z34631d6"/></clipPath>
  <clipPath id="z34631c7"><use href="#z34631d7"/></clipPath>
  <clipPath id="z34631c8"><use href="#z34631d8"/></clipPath>
  <clipPath id="z34631c9"><use href="#z34631d9"/></clipPath>
  <clipPath id="z34631c10"><use href="#z34631d10"/></clipPath>
  <clipPath id="z34631c11"><use href="#z34631d11"/></clipPath>
  <clipPath id="z34631c12"><use href="#z34631d12"/></clipPath>
  <clipPath id="z34631c13"><use href="#z34631d13"/></clipPath>
  <clipPath id="z34631c14"><use href="#z34631d14"/></clipPath>
</defs>
<path style="--d:1s;" pathLength="3333" clip-path="url(#z34631c1)" d="M 93 532 L 121 502 L 148 337"/>
<path style="--d:2s;" pathLength="3333" clip-path="url(#z34631c2)" d="M 146 526 L 157 519 L 172 521 L 333 564 L 363 557 L 382 540 L 357 449 L 338 435"/>
<path style="--d:3s;" pathLength="3333" clip-path="url(#z34631c3)" d="M 166 365 L 183 375 L 333 409 L 388 404"/>
<path style="--d:4s;" pathLength="3333" clip-path="url(#z34631c4)" d="M 206 769 L 253 729 L 255 701 L 241 286 L 224 264"/>
<path style="--d:5s;" pathLength="3333" clip-path="url(#z34631c5)" d="M 74 205 L 99 195 L 132 192 L 332 282 L 336 294"/>
<path style="--d:6s;" pathLength="3333" clip-path="url(#z34631c6)" d="M 336 341 L 385 268 L 393 226"/>
<path style="--d:7s;" pathLength="3333" clip-path="url(#z34631c7)" d="M 456 730 L 485 705 L 528 539"/>
<path style="--d:8s;" pathLength="3333" clip-path="url(#z34631c8)" d="M 511 730 L 525 719 L 696 756 L 727 748 L 750 722 L 721 646 L 695 628"/>
<path style="--d:9s;" pathLength="3333" clip-path="url(#z34631c9)" d="M 544 587 L 555 579 L 707 604 L 737 604 L 755 596"/>
<path style="--d:10s;" pathLength="3333" clip-path="url(#z34631c10)" d="M 422 455 L 443 437 L 455 416 L 496 191"/>
<path style="--d:11s;" pathLength="3333" clip-path="url(#z34631c11)" d="M 463 455 L 501 449 L 741 489 L 791 481 L 818 451 L 781 294 L 763 242 L 767 221"/>
<path style="--d:12s;" pathLength="3333" clip-path="url(#z34631c12)" d="M 532 343 L 654 364 L 679 366 L 711 359"/>
<path style="--d:13s;" pathLength="3333" clip-path="url(#z34631c13)" d="M 517 218 L 533 227 L 726 257"/>
<path style="--d:14s;" pathLength="3333" clip-path="url(#z34631c14)" d="M 601 561 L 619 546 L 626 504 L 615 261 L 618 150 L 629 102 L 655 67 L 723 44 L 804 40 L 859 47 L 900 62 L 924 76 L 935 228"/>
</svg>