<svg id="z32350" class="acjk" viewBox="0 0 1024 1024" xmlns="http://www.w3.org/2000/svg">
<style>
<![CDATA[
@keyframes zk {
	to {
		stroke-dashoffset:0;
	}
}
svg.acjk path[clip-path] {
	--t:0.8s;
	animation:zk var(--t) linear forwards var(--d);
	stroke-dasharray:3337;
	stroke-dashoffset:3339;
	stroke-width:128;
	stroke-linecap:round;
	stroke-linejoin:round;
	fill:none;
	stroke:#000;
}
svg.acjk path[id] {fill:#ccc;}
]]>
</style>
  <path id="z32350d1" d="M 291 541 Q 252 537 220 533 Q 193 530 205 548 Q 265 657 322 740 Q 335 756 332 764 Q 329 777 291 806 Q 275 818 257 814 Q 247 810 253 796 Q 271 757 196 603 Q 180 569 144 533 Q 128 517 129 506 Q 135 488 150 472 Q 160 462 173 471 Q 192 486 265 511 Q 269 512 273 512 C 302 519 321 544 291 541 Z"/>
  <path id="z32350d2" d="M 331 420 Q 288 405 236 381 Q 223 374 230 387 Q 345 564 404 618 Q 414 628 409 638 Q 397 657 364 674 Q 348 681 339 679 Q 329 675 332 660 Q 335 624 291 541 L 273 512 Q 180 373 157 356 Q 144 346 148 332 Q 151 319 178 303 Q 188 293 202 306 Q 262 366 339 401 C 366 414 359 430 331 420 Z"/>
  <path id="z32350d3" d="M 339 401 Q 345 385 366 364 Q 376 358 388 366 Q 395 373 399 388 Q 400 409 389 423 Q 377 439 347 458 Q 335 467 327 466 Q 321 467 320 456 Q 319 446 327 432 Q 328 426 331 420 L 339 401 Z"/>
  <path id="z32350d4" d="M 104 179 Q 119 151 134 116 Q 141 100 157 94 Q 167 91 177 102 Q 187 114 189 145 Q 190 172 117 226 Q 104 235 97 235 Q 90 234 87 220 Q 87 208 104 179 Z"/>
  <path id="z32350d5" d="M 220 249 Q 242 201 264 183 Q 274 179 284 186 Q 291 193 293 207 Q 293 241 237 275 Q 227 282 218 282 Q 214 282 213 272 Q 212 263 220 249 Z"/>
  <path id="z32350d6" d="M 311 298 Q 336 256 356 244 Q 368 240 376 249 Q 383 258 382 271 Q 381 290 368 302 Q 328 335 306 330 Q 302 330 301 320 Q 301 311 311 298 Z"/>
  <path id="z32350d7" d="M 655 656 Q 686 666 723 675 Q 748 682 753 686 Q 760 693 755 701 Q 748 711 721 717 Q 691 720 660 705 L 606 686 Q 572 677 530 671 Q 497 664 522 649 Q 555 633 607 643 L 655 656 Z"/>
  <path id="z32350d8" d="M 649 598 Q 652 628 655 656 L 660 705 Q 660 724 676 801 Q 680 811 661 826 Q 627 844 605 847 Q 589 851 582 842 Q 575 835 583 821 Q 598 800 599 786 Q 603 738 606 686 L 607 643 Q 608 618 608 587 C 608 557 646 568 649 598 Z"/>
  <path id="z32350d9" d="M 608 587 Q 551 574 488 559 Q 472 556 485 543 Q 512 522 544 532 Q 665 574 797 575 L 798 575 Q 814 576 818 584 Q 821 594 807 604 Q 756 634 702 613 Q 678 607 649 598 L 608 587 Z"/>
  <path id="z32350d10" d="M 519 410 Q 579 428 590 433 Q 596 440 591 447 Q 584 456 561 459 Q 540 460 521 453 L 477 434 Q 453 428 427 423 Q 399 416 421 404 Q 442 395 481 398 L 519 410 Z"/>
  <path id="z32350d11" d="M 516 356 Q 517 384 519 410 L 521 453 Q 521 459 528 484 Q 529 491 516 501 Q 491 513 474 514 Q 464 515 458 510 Q 454 504 460 495 Q 469 483 477 434 L 481 398 Q 482 373 485 345 C 488 315 515 326 516 356 Z"/>
  <path id="z32350d12" d="M 485 345 Q 434 329 413 326 Q 403 325 403 317 Q 402 307 410 301 Q 428 291 453 279 Q 460 278 469 285 Q 529 327 591 369 Q 600 376 600 382 Q 596 386 587 383 Q 553 370 516 356 L 485 345 Z"/>
  <path id="z32350d13" d="M 750 440 Q 835 461 840 465 Q 847 472 843 479 Q 836 488 813 493 Q 797 496 755 482 L 705 466 Q 674 459 637 454 Q 609 448 630 436 Q 657 421 707 429 L 750 440 Z"/>
  <path id="z32350d14" d="M 743 378 Q 746 409 750 440 L 755 482 Q 756 494 760 501 Q 761 508 764 515 Q 767 522 752 534 Q 727 549 708 552 Q 696 555 690 548 Q 684 542 690 531 Q 700 519 705 466 L 707 429 Q 708 402 708 371 C 708 341 740 348 743 378 Z"/>
  <path id="z32350d15" d="M 708 371 Q 671 365 628 356 Q 613 355 625 342 Q 635 333 648 330 Q 664 326 675 330 Q 744 348 858 349 Q 871 350 875 356 Q 879 365 867 374 Q 825 401 773 386 Q 758 383 743 378 L 708 371 Z"/>
  <path id="z32350d16" d="M 663 235 Q 739 250 809 259 Q 834 262 825 276 Q 815 292 787 297 Q 762 301 719 290 Q 568 256 436 230 Q 418 226 440 210 Q 458 197 495 204 Q 496 205 501 205 L 540 212 Q 585 222 630 229 L 663 235 Z"/>
  <path id="z32350d17" d="M 501 205 Q 477 105 365 37 Q 332 15 256 -20 Q 247 -24 252 -29 Q 276 -42 367 -6 Q 448 22 531 128 Q 544 144 561 160 Q 571 167 568 177 Q 565 187 543 210 Q 542 211 540 212 C 518 233 509 234 501 205 Z"/>
  <path id="z32350d18" d="M 630 229 Q 630 225 633 217 Q 645 180 642 145 Q 636 31 668 0 Q 737 -58 883 -34 Q 890 -31 899 -30 Q 933 -20 966 5 Q 985 20 973 46 Q 961 71 944 144 Q 944 160 937 166 Q 931 170 926 151 Q 895 72 876 49 Q 866 37 837 30 Q 768 15 716 36 Q 695 46 690 58 Q 675 91 695 191 Q 701 215 663 235 C 638 251 622 258 630 229 Z"/>
<defs>
  <clipPath id="z32350c1"><use href="#z32350d1"/></clipPath>
  <clipPath id="z32350c2"><use href="#z32350d2"/></clipPath>
  <clipPath id="z32350c3"><use href="#z32350d3"/></clipPath>
  <clipPath id="z32350c4"><use href="#z32350d4"/></clipPath>
  <clipPath id="z32350c5"><use href="#z32350d5"/></clipPath>
  <clipPath id="z32350c6"><use href="#z32350d6"/></clipPath>
  <clipPath id="z32350c7"><use href="#z32350d7"/></clipPath>
  <clipPath id="z32350c8"><use href="#z32350d8"/></clipPath>
  <clipPath id="z32350c9"><use href="#z32350d9"/></clipPath>
  <clipPath id="z32350c10"><use href="#z32350d10"/></clipPath>
  <clipPath id="z32350c11"><use href="#z32350d11"/></clipPath>
  <clipPath id="z32350c12"><use href="#z32350d12"/></clipPath>
  <clipPath id="z32350c13"><use href="#z32350d13"/></clipPath>
  <clipPath id="z32350c14"><use href="#z32350d14"/></clipPath>
  <clipPath id="z32350c15"><use href="#z32350d15"/></clipPath>
  <clipPath id="z32350c16"><use href="#z32350d16"/></clipPath>
  <clipPath id="z32350c17"><use href="#z32350d17"/></clipPath>
  <clipPath id="z32350c18"><use href="#z32350d18"/></clipPath>
</defs>
<path style="--d:1s;" pathLength="3333" clip-path="url(#z32350c1)" d="M 262 803 L 276 792 L 290 754 L 247 661 L 185 551 L 174 513 L 251 520 L 276 530 L 283 539"/>
<path style="--d:2s;" pathLength="3333" clip-path="url(#z32350c2)" d="M 344 667 L 366 631 L 308 531 L 212 393 L 208 359 L 244 364 L 325 406 L 327 413"/>
<path style="--d:3s;" pathLength="3333" clip-path="url(#z32350c3)" d="M 330 456 L 369 404 L 376 381"/>
<path style="--d:4s;" pathLength="3333" clip-path="url(#z32350c4)" d="M 99 226 L 149 159 L 161 113"/>
<path style="--d:5s;" pathLength="3333" clip-path="url(#z32350c5)" d="M 221 274 L 263 222 L 271 199"/>
<path style="--d:6s;" pathLength="3333" clip-path="url(#z32350c6)" d="M 311 321 L 353 282 L 363 260"/>
<path style="--d:7s;" pathLength="3333" clip-path="url(#z32350c7)" d="M 523 661 L 596 661 L 701 694 L 743 695"/>
<path style="--d:8s;" pathLength="3333" clip-path="url(#z32350c8)" d="M 594 832 L 636 796 L 630 622 L 613 595"/>
<path style="--d:9s;" pathLength="3333" clip-path="url(#z32350c9)" d="M 487 551 L 522 547 L 741 597 L 808 588"/>
<path style="--d:10s;" pathLength="3333" clip-path="url(#z32350c10)" d="M 422 414 L 471 414 L 533 436 L 583 441"/>
<path style="--d:11s;" pathLength="3333" clip-path="url(#z32350c11)" d="M 466 503 L 498 478 L 500 378 L 488 352"/>
<path style="--d:12s;" pathLength="3333" clip-path="url(#z32350c12)" d="M 415 314 L 455 308 L 593 377"/>
<path style="--d:13s;" pathLength="3333" clip-path="url(#z32350c13)" d="M 631 446 L 695 444 L 787 471 L 834 474"/>
<path style="--d:14s;" pathLength="3333" clip-path="url(#z32350c14)" d="M 700 540 L 730 508 L 727 403 L 723 388 L 713 379"/>
<path style="--d:15s;" pathLength="3333" clip-path="url(#z32350c15)" d="M 636 347 L 657 344 L 800 370 L 867 361"/>
<path style="--d:16s;" pathLength="3333" clip-path="url(#z32350c16)" d="M 438 220 L 484 220 L 760 275 L 790 277 L 814 270"/>
<path style="--d:17s;" pathLength="3333" clip-path="url(#z32350c17)" d="M 535 202 L 535 191 L 505 137 L 440 63 L 397 31 L 331 -4 L 257 -26"/>
<path style="--d:18s;" pathLength="3333" clip-path="url(#z32350c18)" d="M 637 224 L 660 210 L 667 197 L 662 94 L 673 39 L 699 12 L 754 -6 L 783 -9 L 868 0 L 922 31 L 936 159"/>
</svg>