<svg id="z35691" class="acjk" viewBox="0 0 1024 1024" xmlns="http://www.w3.org/2000/svg">
<style>
<![CDATA[
@keyframes zk {
	to {
		stroke-dashoffset:0;
	}
}
svg.acjk path[clip-path] {
	--t:0.8s;
	animation:zk var(--t) linear forwards var(--d);
	stroke-dasharray:3337;
	stroke-dashoffset:3339;
	stroke-width:128;
	stroke-linecap:round;
	stroke-linejoin:round;
	fill:none;
	stroke:#000;
}
svg.acjk path[id] {fill:#ccc;}
]]>
</style>
  <path id="z35691d1" d="M 277 773 Q 307 748 339 715 Q 354 702 371 702 Q 383 702 388 717 Q 394 733 384 765 Q 378 787 344 804 Q 266 834 248 827 Q 242 823 244 809 Q 248 796 277 773 Z"/>
  <path id="z35691d2" d="M 48 557 Q 36 556 33 548 Q 30 538 45 527 Q 81 502 121 515 Q 256 560 370 576 Q 385 579 386 586 Q 387 598 370 606 Q 345 616 322 612 Q 130 566 48 557 Z"/>
  <path id="z35691d3" d="M 182 451 Q 154 442 177 432 Q 205 420 273 441 Q 295 448 321 457 Q 336 463 338 465 Q 345 472 340 479 Q 333 488 309 490 Q 294 490 227 463 Q 206 456 182 451 Z"/>
  <path id="z35691d4" d="M 186 359 Q 158 350 181 340 Q 208 328 286 353 Q 299 359 316 363 Q 329 367 331 369 Q 337 376 332 383 Q 325 392 301 394 Q 289 394 224 369 Q 206 363 186 359 Z"/>
  <path id="z35691d5" d="M 154 256 Q 144 260 119 263 Q 109 264 106 261 Q 102 255 109 242 Q 134 197 152 122 Q 156 100 170 85 Q 186 67 189 81 Q 192 93 191 110 L 186 139 Q 171 206 168 230 C 165 253 165 253 154 256 Z"/>
  <path id="z35691d6" d="M 313 157 Q 331 217 350 233 Q 371 257 349 270 Q 331 280 306 297 Q 288 307 245 283 Q 194 265 154 256 C 125 249 139 224 168 230 Q 210 239 252 250 Q 273 254 278 246 Q 284 240 266 165 C 259 136 304 128 313 157 Z"/>
  <path id="z35691d7" d="M 191 110 Q 201 109 213 112 Q 246 121 319 131 Q 329 132 329 141 Q 329 147 313 157 C 292 171 292 171 266 165 Q 260 164 256 162 Q 217 149 186 139 C 157 130 161 112 191 110 Z"/>
  <path id="z35691d8" d="M 628 768 Q 640 786 650 793 Q 657 800 655 812 Q 654 822 632 840 Q 613 856 598 856 Q 585 856 589 839 Q 598 815 554 744 Q 532 711 502 675 Q 495 668 492 663 Q 489 656 500 656 Q 528 660 609 746 L 628 768 Z"/>
  <path id="z35691d9" d="M 664 629 Q 757 722 799 744 Q 815 753 805 765 Q 793 777 762 797 Q 747 804 734 795 Q 725 791 654 773 Q 641 770 628 768 C 598 763 579 748 609 746 Q 630 743 704 754 Q 713 755 715 753 Q 719 749 713 740 Q 671 671 647 639 Q 638 629 635 622 C 619 596 643 608 664 629 Z"/>
  <path id="z35691d10" d="M 505 572 Q 508 572 577 579 L 598 583 Q 656 596 717 608 L 755 615 Q 776 621 800 625 Q 858 638 867 647 Q 874 653 870 659 Q 866 668 843 674 Q 821 678 798 670 Q 732 648 664 629 L 635 622 Q 569 610 499 601 C 469 597 475 569 505 572 Z"/>
  <path id="z35691d11" d="M 499 601 Q 484 614 461 623 Q 443 632 431 627 Q 421 620 427 608 Q 443 583 445 521 Q 444 508 444 490 Q 441 328 400 198 Q 361 90 289 -27 Q 285 -34 283 -39 Q 282 -49 291 -47 Q 324 -41 398 86 Q 410 110 422 136 Q 482 289 493 467 Q 499 551 505 572 C 509 594 509 594 499 601 Z"/>
  <path id="z35691d12" d="M 577 579 Q 576 578 578 572 Q 588 527 531 436 Q 527 432 534 431 Q 579 452 629 545 Q 632 549 634 552 Q 638 556 636 563 Q 627 579 601 583 Q 600 584 598 583 C 576 585 576 585 577 579 Z"/>
  <path id="z35691d13" d="M 717 608 Q 726 599 734 533 Q 738 470 869 490 Q 899 496 907 504 Q 916 513 909 520 Q 899 530 872 541 Q 857 545 845 535 Q 815 510 780 523 Q 774 527 773 541 Q 772 563 780 579 Q 786 598 755 615 C 729 630 702 634 717 608 Z"/>
  <path id="z35691d14" d="M 651 481 Q 693 429 716 425 Q 728 424 732 440 Q 733 450 726 467 Q 717 480 698 488 Q 667 501 654 503 Q 647 504 646 495 Q 645 488 651 481 Z"/>
  <path id="z35691d15" d="M 505 367 Q 489 364 502 351 Q 529 329 567 340 Q 720 391 930 392 L 932 392 Q 948 393 952 400 Q 956 410 942 420 Q 894 453 833 432 Q 713 405 505 367 Z"/>
  <path id="z35691d16" d="M 582 300 Q 554 296 574 283 Q 601 268 661 278 Q 706 287 755 298 Q 780 304 783 307 Q 790 313 786 319 Q 782 328 759 333 Q 737 337 714 329 Q 686 319 655 311 Q 621 304 582 300 Z"/>
  <path id="z35691d17" d="M 579 218 Q 549 214 571 199 Q 601 181 663 192 Q 708 201 757 209 Q 782 213 787 217 Q 794 224 790 231 Q 784 240 761 246 Q 748 249 665 230 Q 623 221 579 218 Z"/>
  <path id="z35691d18" d="M 587 125 Q 577 131 542 135 Q 532 138 528 133 Q 524 127 532 113 Q 557 70 575 -3 Q 579 -25 593 -39 Q 609 -57 614 -43 Q 615 -34 616 -22 L 610 12 Q 598 72 595 96 C 591 123 591 123 587 125 Z"/>
  <path id="z35691d19" d="M 807 29 Q 832 89 859 105 Q 875 121 862 138 Q 847 151 800 174 Q 784 181 764 175 Q 695 145 587 125 C 558 119 566 90 595 96 Q 604 97 614 101 Q 768 134 775 128 Q 784 116 759 39 C 750 10 795 1 807 29 Z"/>
  <path id="z35691d20" d="M 616 -22 Q 620 -22 627 -21 Q 687 -9 815 -2 Q 825 -1 827 7 Q 827 14 807 29 L 759 39 Q 755 40 751 38 Q 673 22 610 12 C 580 7 586 -24 616 -22 Z"/>
<defs>
  <clipPath id="z35691c1"><use href="#z35691d1"/></clipPath>
  <clipPath id="z35691c2"><use href="#z35691d2"/></clipPath>
  <clipPath id="z35691c3"><use href="#z35691d3"/></clipPath>
  <clipPath id="z35691c4"><use href="#z35691d4"/></clipPath>
  <clipPath id="z35691c5"><use href="#z35691d5"/></clipPath>
  <clipPath id="z35691c6"><use href="#z35691d6"/></clipPath>
  <clipPath id="z35691c7"><use href="#z35691d7"/></clipPath>
  <clipPath id="z35691c8"><use href="#z35691d8"/></clipPath>
  <clipPath id="z35691c9"><use href="#z35691d9"/></clipPath>
  <clipPath id="z35691c10"><use href="#z35691d10"/></clipPath>
  <clipPath id="z35691c11"><use href="#z35691d11"/></clipPath>
  <clipPath id="z35691c12"><use href="#z35691d12"/></clipPath>
  <clipPath id="z35691c13"><use href="#z35691d13"/></clipPath>
  <clipPath id="z35691c14"><use href="#z35691d14"/></clipPath>
  <clipPath id="z35691c15"><use href="#z35691d15"/></clipPath>
  <clipPath id="z35691c16"><use href="#z35691d16"/></clipPath>
  <clipPath id="z35691c17"><use href="#z35691d17"/></clipPath>
  <clipPath id="z35691c18"><use href="#z35691d18"/></clipPath>
  <clipPath id="z35691c19"><use href="#z35691d19"/></clipPath>
  <clipPath id="z35691c20"><use href="#z35691d20"/></clipPath>
</defs>
<path style="--d:1s;" pathLength="3333" clip-path="url(#z35691c1)" d="M 253 820 L 343 763 L 370 720"/>
<path style="--d:2s;" pathLength="3333" clip-path="url(#z35691c2)" d="M 44 544 L 61 538 L 107 538 L 316 590 L 376 589"/>
<path style="--d:3s;" pathLength="3333" clip-path="url(#z35691c3)" d="M 177 442 L 214 443 L 292 468 L 330 473"/>
<path style="--d:4s;" pathLength="3333" clip-path="url(#z35691c4)" d="M 181 350 L 219 351 L 295 376 L 324 377"/>
<path style="--d:5s;" pathLength="3333" clip-path="url(#z35691c5)" d="M 113 256 L 144 226 L 180 84"/>
<path style="--d:6s;" pathLength="3333" clip-path="url(#z35691c6)" d="M 162 252 L 186 248 L 263 272 L 296 269 L 315 248 L 293 182 L 276 175"/>
<path style="--d:7s;" pathLength="3333" clip-path="url(#z35691c7)" d="M 196 118 L 210 130 L 267 144 L 320 140"/>
<path style="--d:8s;" pathLength="3333" clip-path="url(#z35691c8)" d="M 598 845 L 619 813 L 610 790 L 545 702 L 501 665"/>
<path style="--d:9s;" pathLength="3333" clip-path="url(#z35691c9)" d="M 623 751 L 630 757 L 720 772 L 752 759 L 734 727 L 666 642 L 646 632"/>
<path style="--d:10s;" pathLength="3333" clip-path="url(#z35691c10)" d="M 506 580 L 517 588 L 563 591 L 811 651 L 858 656"/>
<path style="--d:11s;" pathLength="3333" clip-path="url(#z35691c11)" d="M 438 616 L 459 598 L 472 571 L 466 429 L 441 263 L 411 164 L 375 85 L 332 12 L 292 -38"/>
<path style="--d:12s;" pathLength="3333" clip-path="url(#z35691c12)" d="M 583 576 L 603 559 L 604 547 L 575 484 L 552 452 L 537 446 L 537 436"/>
<path style="--d:13s;" pathLength="3333" clip-path="url(#z35691c13)" d="M 724 608 L 754 583 L 751 548 L 756 523 L 775 506 L 807 500 L 864 516 L 902 513"/>
<path style="--d:14s;" pathLength="3333" clip-path="url(#z35691c14)" d="M 657 492 L 701 461 L 717 440"/>
<path style="--d:15s;" pathLength="3333" clip-path="url(#z35691c15)" d="M 504 359 L 545 355 L 724 394 L 862 415 L 900 415 L 943 405"/>
<path style="--d:16s;" pathLength="3333" clip-path="url(#z35691c16)" d="M 576 293 L 617 288 L 726 313 L 775 315"/>
<path style="--d:17s;" pathLength="3333" clip-path="url(#z35691c17)" d="M 573 210 L 592 205 L 651 207 L 718 223 L 779 226"/>
<path style="--d:18s;" pathLength="3333" clip-path="url(#z35691c18)" d="M 536 128 L 569 97 L 604 -38"/>
<path style="--d:19s;" pathLength="3333" clip-path="url(#z35691c19)" d="M 597 120 L 606 113 L 625 115 L 753 149 L 787 151 L 806 136 L 815 118 L 792 58 L 767 49"/>
<path style="--d:20s;" pathLength="3333" clip-path="url(#z35691c20)" d="M 618 8 L 629 -2 L 758 17 L 817 7"/>
</svg>