<svg id="z36930" class="acjk" viewBox="0 0 1024 1024" xmlns="http://www.w3.org/2000/svg">
<style>
<![CDATA[
@keyframes zk {
	to {
		stroke-dashoffset:0;
	}
}
svg.acjk path[clip-path] {
	--t:0.8s;
	animation:zk var(--t) linear forwards var(--d);
	stroke-dasharray:3337;
	stroke-dashoffset:3339;
	stroke-width:128;
	stroke-linecap:round;
	stroke-linejoin:round;
	fill:none;
	stroke:#000;
}
svg.acjk path[id] {fill:#ccc;}
]]>
</style>
  <path id="z36930d1" d="M 457 743 Q 485 692 514 675 Q 527 671 539 681 Q 546 693 547 709 Q 541 751 493 771 Q 463 786 450 783 Q 444 783 445 771 Q 445 759 457 743 Z"/>
  <path id="z36930d2" d="M 675 813 Q 659 780 593 686 Q 586 670 601 674 Q 652 713 720 774 Q 736 792 759 804 Q 780 816 767 832 Q 752 847 726 859 Q 701 869 689 866 Q 676 863 682 850 Q 686 832 675 813 Z"/>
  <path id="z36930d3" d="M 573 587 Q 639 605 713 622 Q 758 634 764 641 Q 771 648 767 657 Q 760 667 732 674 Q 705 678 590 637 Q 491 613 436 604 Q 400 597 427 582 Q 464 560 537 579 Q 538 579 540 579 L 573 587 Z"/>
  <path id="z36930d4" d="M 549 504 Q 589 547 590 553 Q 589 554 589 556 Q 582 577 573 587 C 555 611 550 607 540 579 Q 516 506 381 415 Q 375 412 374 407 Q 373 403 377 402 Q 425 402 528 485 L 549 504 Z"/>
  <path id="z36930d5" d="M 700 350 Q 694 386 667 417 L 656 430 Q 608 481 549 504 C 521 516 502 499 528 485 Q 540 479 553 471 L 596 440 Q 609 428 622 414 L 653 368 Q 671 319 641 234 Q 631 206 620 200 Q 610 194 557 197 Q 512 206 512 196 Q 511 189 524 178 Q 584 138 609 108 Q 619 93 632 97 Q 672 115 696 211 Q 711 278 705 318 L 700 350 Z"/>
  <path id="z36930d6" d="M 553 471 Q 541 416 396 309 Q 380 299 399 300 Q 463 309 571 415 Q 586 431 596 440 C 618 460 561 500 553 471 Z"/>
  <path id="z36930d7" d="M 622 414 Q 562 302 408 194 Q 395 184 404 181 Q 411 177 424 181 Q 517 208 619 324 Q 650 360 649 362 Q 650 365 653 368 C 668 394 637 440 622 414 Z"/>
  <path id="z36930d8" d="M 667 417 Q 709 439 735 457 Q 795 502 819 510 Q 838 517 830 534 Q 820 550 796 565 Q 775 578 763 576 Q 751 575 755 563 Q 756 539 704 480 Q 680 458 656 430 C 636 407 640 403 667 417 Z"/>
  <path id="z36930d9" d="M 705 318 Q 765 275 836 211 Q 851 196 864 194 Q 871 193 877 202 Q 886 215 871 250 Q 858 292 700 350 C 672 360 681 336 705 318 Z"/>
  <path id="z36930d10" d="M 233 701 Q 263 676 295 643 Q 310 630 327 630 Q 339 630 344 645 Q 350 661 340 693 Q 334 715 300 732 Q 222 762 204 755 Q 198 751 200 737 Q 204 724 233 701 Z"/>
  <path id="z36930d11" d="M 300 155 Q 309 164 313 177 Q 325 216 280 289 Q 249 343 322 431 Q 325 435 330 439 Q 352 458 332 473 Q 313 489 277 504 Q 255 517 237 499 Q 209 478 171 464 Q 120 443 104 446 Q 97 446 94 441 Q 93 437 101 432 Q 138 414 227 446 Q 237 449 246 437 Q 267 415 245 388 Q 194 337 240 275 Q 277 209 271 158 C 270 128 283 131 300 155 Z"/>
  <path id="z36930d12" d="M 271 158 Q 226 161 180 146 Q 149 136 101 134 Q 94 134 90 125 Q 87 118 95 108 Q 111 89 135 77 Q 147 70 166 84 Q 229 129 297 113 Q 361 100 492 45 Q 714 -54 797 -28 Q 798 -27 801 -27 Q 862 -5 915 34 Q 937 50 914 50 Q 686 41 533 82 Q 458 103 369 135 Q 335 151 300 155 L 271 158 Z"/>
<defs>
  <clipPath id="z36930c1"><use href="#z36930d1"/></clipPath>
  <clipPath id="z36930c2"><use href="#z36930d2"/></clipPath>
  <clipPath id="z36930c3"><use href="#z36930d3"/></clipPath>
  <clipPath id="z36930c4"><use href="#z36930d4"/></clipPath>
  <clipPath id="z36930c5"><use href="#z36930d5"/></clipPath>
  <clipPath id="z36930c6"><use href="#z36930d6"/></clipPath>
  <clipPath id="z36930c7"><use href="#z36930d7"/></clipPath>
  <clipPath id="z36930c8"><use href="#z36930d8"/></clipPath>
  <clipPath id="z36930c9"><use href="#z36930d9"/></clipPath>
  <clipPath id="z36930c10"><use href="#z36930d10"/></clipPath>
  <clipPath id="z36930c11"><use href="#z36930d11"/></clipPath>
  <clipPath id="z36930c12"><use href="#z36930d12"/></clipPath>
</defs>
<path style="--d:1s;" pathLength="3333" clip-path="url(#z36930c1)" d="M 455 774 L 509 722 L 524 695"/>
<path style="--d:2s;" pathLength="3333" clip-path="url(#z36930c2)" d="M 690 856 L 718 822 L 641 725 L 604 692 L 602 683"/>
<path style="--d:3s;" pathLength="3333" clip-path="url(#z36930c3)" d="M 428 594 L 488 591 L 707 647 L 755 651"/>
<path style="--d:4s;" pathLength="3333" clip-path="url(#z36930c4)" d="M 584 553 L 560 557 L 542 528 L 490 477 L 421 427 L 381 408"/>
<path style="--d:5s;" pathLength="3333" clip-path="url(#z36930c5)" d="M 536 486 L 562 483 L 585 469 L 645 415 L 676 365 L 683 299 L 670 226 L 657 191 L 627 155 L 519 194"/>
<path style="--d:6s;" pathLength="3333" clip-path="url(#z36930c6)" d="M 557 466 L 561 434 L 536 404 L 454 336 L 422 315 L 407 314 L 403 306"/>
<path style="--d:7s;" pathLength="3333" clip-path="url(#z36930c7)" d="M 623 406 L 623 368 L 560 293 L 480 225 L 410 186"/>
<path style="--d:8s;" pathLength="3333" clip-path="url(#z36930c8)" d="M 767 565 L 783 532 L 732 479 L 672 430 L 665 432"/>
<path style="--d:9s;" pathLength="3333" clip-path="url(#z36930c9)" d="M 713 336 L 719 326 L 827 258 L 864 209"/>
<path style="--d:10s;" pathLength="3333" clip-path="url(#z36930c10)" d="M 209 748 L 299 691 L 326 648"/>
<path style="--d:11s;" pathLength="3333" clip-path="url(#z36930c11)" d="M 101 439 L 157 441 L 247 472 L 261 472 L 286 453 L 275 399 L 250 356 L 244 329 L 292 202 L 291 175 L 279 164"/>
<path style="--d:12s;" pathLength="3333" clip-path="url(#z36930c12)" d="M 103 121 L 145 107 L 235 137 L 307 132 L 595 35 L 733 9 L 808 13 L 918 42"/>
</svg>