<svg id="z30857" class="acjk" viewBox="0 0 1024 1024" xmlns="http://www.w3.org/2000/svg">
<style>
<![CDATA[
@keyframes zk {
	to {
		stroke-dashoffset:0;
	}
}
svg.acjk path[clip-path] {
	--t:0.8s;
	animation:zk var(--t) linear forwards var(--d);
	stroke-dasharray:3337;
	stroke-dashoffset:3339;
	stroke-width:128;
	stroke-linecap:round;
	stroke-linejoin:round;
	fill:none;
	stroke:#000;
}
svg.acjk path[id] {fill:#ccc;}
]]>
</style>
  <path id="z30857d1" d="M 269 686 Q 401 723 404 725 Q 413 732 408 741 Q 401 751 372 757 Q 342 761 259 729 Q 181 711 143 704 Q 109 697 134 682 Q 176 664 228 675 L 269 686 Z"/>
  <path id="z30857d2" d="M 215 479 Q 246 534 290 624 Q 305 654 305 659 Q 298 677 269 686 C 241 697 224 704 228 675 Q 240 627 195 527 Q 185 508 174 485 L 151 447 Q 36 303 28 294 Q 21 290 31 288 Q 77 297 165 403 L 215 479 Z"/>
  <path id="z30857d3" d="M 174 485 Q 167 488 158 489 Q 146 493 143 488 Q 136 482 144 467 Q 148 458 151 447 L 165 403 Q 175 360 183 303 Q 184 272 201 251 Q 217 230 223 245 Q 230 263 226 298 L 222 330 Q 210 418 208 448 L 174 485 Z"/>
  <path id="z30857d4" d="M 369 365 Q 385 441 409 464 Q 430 489 407 503 Q 388 513 360 529 Q 342 538 299 512 Q 263 496 215 479 C 179 466 179 441 208 448 Q 215 449 304 476 Q 328 483 334 474 Q 341 468 334 435 Q 327 401 318 358 C 312 329 363 336 369 365 Z"/>
  <path id="z30857d5" d="M 226 298 Q 304 317 391 331 Q 401 332 401 341 Q 401 348 371 365 L 369 365 L 318 358 Q 266 342 222 330 C 193 322 197 291 226 298 Z"/>
  <path id="z30857d6" d="M 495 739 Q 482 748 464 754 Q 445 763 432 757 Q 422 750 428 736 Q 449 708 454 647 Q 454 422 428 306 Q 425 297 424 288 Q 391 171 316 35 Q 312 28 311 22 Q 310 12 319 14 Q 335 17 370 71 Q 506 249 508 602 Q 508 659 514 701 C 517 727 517 727 495 739 Z"/>
  <path id="z30857d7" d="M 514 701 Q 515 702 519 703 Q 630 731 764 754 Q 782 755 790 745 Q 806 736 812 665 Q 831 427 818 154 Q 818 114 803 103 Q 790 93 719 110 Q 701 114 702 103 Q 703 94 717 88 Q 780 39 812 1 Q 836 -21 849 -18 Q 862 -14 875 17 Q 891 66 891 138 Q 861 672 885 719 Q 898 741 887 753 Q 877 769 828 794 Q 807 806 731 782 Q 526 743 495 739 C 465 734 485 693 514 701 Z"/>
  <path id="z30857d8" d="M 673 572 Q 701 581 733 588 Q 757 594 760 597 Q 767 604 763 611 Q 756 620 733 625 Q 694 631 677 614 L 631 599 Q 600 593 561 586 Q 533 580 554 568 Q 584 552 632 562 L 673 572 Z"/>
  <path id="z30857d9" d="M 666 496 Q 669 535 673 572 L 677 614 Q 677 620 690 685 Q 693 694 677 706 Q 649 721 631 724 Q 618 725 612 720 Q 606 714 612 702 Q 627 681 631 599 L 632 562 Q 632 526 632 487 C 632 457 664 466 666 496 Z"/>
  <path id="z30857d10" d="M 632 487 Q 608 483 588 479 Q 564 476 539 471 Q 515 467 534 454 Q 556 438 598 445 Q 643 457 771 477 Q 778 476 786 487 Q 787 496 768 504 Q 744 520 670 497 Q 667 497 666 496 L 632 487 Z"/>
  <path id="z30857d11" d="M 578 370 Q 571 374 539 379 Q 529 382 526 377 Q 522 371 529 359 Q 553 316 569 244 Q 573 223 586 209 Q 602 191 605 205 Q 609 218 606 244 L 599 276 Q 589 328 587 346 C 584 368 584 368 578 370 Z"/>
  <path id="z30857d12" d="M 740 293 Q 755 336 770 350 Q 789 371 770 383 Q 754 393 732 408 Q 717 417 671 394 Q 631 382 578 370 C 549 363 559 335 587 346 Q 590 350 674 367 Q 699 373 705 362 Q 711 358 705 334 Q 701 318 697 300 C 690 271 730 265 740 293 Z"/>
  <path id="z30857d13" d="M 606 244 Q 610 244 616 245 Q 658 255 749 263 Q 759 264 760 273 Q 760 280 740 293 L 697 300 Q 693 300 688 298 Q 639 285 599 276 C 570 269 576 242 606 244 Z"/>
<defs>
  <clipPath id="z30857c1"><use href="#z30857d1"/></clipPath>
  <clipPath id="z30857c2"><use href="#z30857d2"/></clipPath>
  <clipPath id="z30857c3"><use href="#z30857d3"/></clipPath>
  <clipPath id="z30857c4"><use href="#z30857d4"/></clipPath>
  <clipPath id="z30857c5"><use href="#z30857d5"/></clipPath>
  <clipPath id="z30857c6"><use href="#z30857d6"/></clipPath>
  <clipPath id="z30857c7"><use href="#z30857d7"/></clipPath>
  <clipPath id="z30857c8"><use href="#z30857d8"/></clipPath>
  <clipPath id="z30857c9"><use href="#z30857d9"/></clipPath>
  <clipPath id="z30857c10"><use href="#z30857d10"/></clipPath>
  <clipPath id="z30857c11"><use href="#z30857d11"/></clipPath>
  <clipPath id="z30857c12"><use href="#z30857d12"/></clipPath>
  <clipPath id="z30857c13"><use href="#z30857d13"/></clipPath>
</defs>
<path style="--d:1s;" pathLength="3333" clip-path="url(#z30857c1)" d="M 136 694 L 173 690 L 216 695 L 340 731 L 376 737 L 399 734"/>
<path style="--d:2s;" pathLength="3333" clip-path="url(#z30857c2)" d="M 236 671 L 264 646 L 242 581 L 201 494 L 131 390 L 64 318 L 32 292"/>
<path style="--d:3s;" pathLength="3333" clip-path="url(#z30857c3)" d="M 151 480 L 165 468 L 182 437 L 213 251"/>
<path style="--d:4s;" pathLength="3333" clip-path="url(#z30857c4)" d="M 208 456 L 227 469 L 318 501 L 352 499 L 373 479 L 347 384 L 323 366"/>
<path style="--d:5s;" pathLength="3333" clip-path="url(#z30857c5)" d="M 232 304 L 244 319 L 316 338 L 370 346 L 392 340"/>
<path style="--d:6s;" pathLength="3333" clip-path="url(#z30857c6)" d="M 440 745 L 468 722 L 481 685 L 481 553 L 466 376 L 443 269 L 414 189 L 353 68 L 319 22"/>
<path style="--d:7s;" pathLength="3333" clip-path="url(#z30857c7)" d="M 498 733 L 524 724 L 765 774 L 814 766 L 845 734 L 855 233 L 849 98 L 828 58 L 794 66 L 712 103"/>
<path style="--d:8s;" pathLength="3333" clip-path="url(#z30857c8)" d="M 555 578 L 620 577 L 709 605 L 753 606"/>
<path style="--d:9s;" pathLength="3333" clip-path="url(#z30857c9)" d="M 620 712 L 656 679 L 651 521 L 646 504 L 636 495"/>
<path style="--d:10s;" pathLength="3333" clip-path="url(#z30857c10)" d="M 535 463 L 584 461 L 743 492 L 777 488"/>
<path style="--d:11s;" pathLength="3333" clip-path="url(#z30857c11)" d="M 533 372 L 563 344 L 596 208"/>
<path style="--d:12s;" pathLength="3333" clip-path="url(#z30857c12)" d="M 586 352 L 594 361 L 659 374 L 687 386 L 724 382 L 739 364 L 737 354 L 722 316 L 705 304"/>
<path style="--d:13s;" pathLength="3333" clip-path="url(#z30857c13)" d="M 607 272 L 618 263 L 697 279 L 750 273"/>
</svg>