<svg id="z34924" class="acjk" viewBox="0 0 1024 1024" xmlns="http://www.w3.org/2000/svg">
<style>
<![CDATA[
@keyframes zk {
	to {
		stroke-dashoffset:0;
	}
}
svg.acjk path[clip-path] {
	--t:0.8s;
	animation:zk var(--t) linear forwards var(--d);
	stroke-dasharray:3337;
	stroke-dashoffset:3339;
	stroke-width:128;
	stroke-linecap:round;
	stroke-linejoin:round;
	fill:none;
	stroke:#000;
}
svg.acjk path[id] {fill:#ccc;}
]]>
</style>
  <path id="z34924d1" d="M 318 748 Q 351 724 387 694 Q 403 681 420 684 Q 432 685 436 700 Q 440 716 428 749 Q 415 783 308 800 Q 290 803 284 799 Q 278 795 281 781 Q 287 768 318 748 Z"/>
  <path id="z34924d2" d="M 280 358 Q 314 401 350 457 Q 384 512 433 547 Q 449 560 436 575 Q 415 591 384 602 Q 362 611 343 599 Q 253 536 102 530 Q 89 531 87 524 Q 84 514 99 503 Q 139 476 174 485 Q 175 485 303 536 Q 321 543 325 535 Q 331 526 318 503 Q 243 358 72 193 Q 56 181 60 177 Q 63 174 77 180 Q 162 220 259 331 L 280 358 Z"/>
  <path id="z34924d3" d="M 259 331 Q 274 294 278 241 Q 278 157 262 87 Q 250 38 285 -3 L 286 -5 Q 302 -20 314 5 Q 327 44 327 87 Q 326 240 331 275 Q 338 300 329 310 Q 296 349 280 358 C 256 375 249 359 259 331 Z"/>
  <path id="z34924d4" d="M 378 348 Q 427 381 454 394 Q 467 397 464 405 Q 460 415 446 429 Q 433 442 417 444 Q 407 443 407 430 Q 408 414 364 356 C 346 332 353 331 378 348 Z"/>
  <path id="z34924d5" d="M 364 356 Q 355 360 350 362 Q 343 363 341 355 Q 338 343 390 281 Q 403 265 416 263 Q 426 262 434 276 Q 435 286 430 304 Q 421 326 378 348 L 364 356 Z"/>
  <path id="z34924d6" d="M 772 494 Q 826 500 919 499 Q 940 500 944 508 Q 948 520 932 534 Q 872 574 816 556 Q 795 552 772 545 L 720 536 Q 702 535 685 530 Q 597 515 492 499 Q 471 496 487 479 Q 517 452 557 461 Q 639 483 720 490 L 772 494 Z"/>
  <path id="z34924d7" d="M 720 490 Q 721 357 724 135 Q 724 113 712 105 Q 703 98 611 110 Q 575 119 579 108 Q 582 101 604 88 Q 683 42 706 12 Q 731 -22 750 -21 Q 765 -21 778 15 Q 793 63 787 138 Q 772 316 772 494 L 772 545 Q 772 660 789 719 Q 805 750 748 773 Q 714 792 693 785 Q 674 778 692 754 Q 714 726 716 691 Q 717 675 720 536 L 720 490 Z"/>
  <path id="z34924d8" d="M 525 348 Q 555 314 586 271 Q 596 258 612 255 Q 622 254 629 265 Q 636 278 633 308 Q 632 332 599 356 Q 521 401 508 399 Q 504 396 502 384 Q 503 372 525 348 Z"/>
<defs>
  <clipPath id="z34924c1"><use href="#z34924d1"/></clipPath>
  <clipPath id="z34924c2"><use href="#z34924d2"/></clipPath>
  <clipPath id="z34924c3"><use href="#z34924d3"/></clipPath>
  <clipPath id="z34924c4"><use href="#z34924d4"/></clipPath>
  <clipPath id="z34924c5"><use href="#z34924d5"/></clipPath>
  <clipPath id="z34924c6"><use href="#z34924d6"/></clipPath>
  <clipPath id="z34924c7"><use href="#z34924d7"/></clipPath>
  <clipPath id="z34924c8"><use href="#z34924d8"/></clipPath>
</defs>
<path style="--d:1s;" pathLength="3333" clip-path="url(#z34924c1)" d="M 291 791 L 386 742 L 418 702"/>
<path style="--d:2s;" pathLength="3333" clip-path="url(#z34924c2)" d="M 96 520 L 143 508 L 163 509 L 258 535 L 324 561 L 369 556 L 359 522 L 334 477 L 245 349 L 122 221 L 63 180"/>
<path style="--d:3s;" pathLength="3333" clip-path="url(#z34924c3)" d="M 280 351 L 288 318 L 303 293 L 301 145 L 292 63 L 297 2"/>
<path style="--d:4s;" pathLength="3333" clip-path="url(#z34924c4)" d="M 418 432 L 427 408 L 381 361 L 373 363"/>
<path style="--d:5s;" pathLength="3333" clip-path="url(#z34924c5)" d="M 350 353 L 403 302 L 417 281"/>
<path style="--d:6s;" pathLength="3333" clip-path="url(#z34924c6)" d="M 490 489 L 546 483 L 841 530 L 899 525 L 933 513"/>
<path style="--d:7s;" pathLength="3333" clip-path="url(#z34924c7)" d="M 700 769 L 717 761 L 750 728 L 744 550 L 755 110 L 734 58 L 585 109"/>
<path style="--d:8s;" pathLength="3333" clip-path="url(#z34924c8)" d="M 510 394 L 522 377 L 586 326 L 613 273"/>
</svg>