<svg id="z33793" class="acjk" viewBox="0 0 1024 1024" xmlns="http://www.w3.org/2000/svg">
<style>
<![CDATA[
@keyframes zk {
	to {
		stroke-dashoffset:0;
	}
}
svg.acjk path[clip-path] {
	--t:0.8s;
	animation:zk var(--t) linear forwards var(--d);
	stroke-dasharray:3337;
	stroke-dashoffset:3339;
	stroke-width:128;
	stroke-linecap:round;
	stroke-linejoin:round;
	fill:none;
	stroke:#000;
}
svg.acjk path[id] {fill:#ccc;}
]]>
</style>
  <path id="z33793d1" d="M 616 694 Q 691 703 793 695 Q 809 694 814 703 Q 820 715 806 730 Q 760 773 655 750 Q 645 749 636 746 L 584 738 Q 511 729 428 717 L 379 711 Q 295 704 204 694 Q 174 691 195 675 Q 240 648 326 663 Q 356 670 387 675 L 430 681 Q 430 682 431 682 Q 498 689 574 693 L 616 694 Z"/>
  <path id="z33793d2" d="M 428 717 Q 427 747 426 771 Q 427 790 408 797 Q 369 818 347 810 Q 328 803 343 782 Q 370 749 379 711 L 387 675 Q 402 618 412 608 Q 425 598 429 609 Q 435 627 430 681 L 428 717 Z"/>
  <path id="z33793d3" d="M 636 746 Q 637 747 638 750 Q 645 771 661 797 Q 674 810 664 820 Q 652 836 620 851 Q 604 860 588 851 Q 579 845 587 835 Q 596 811 584 738 L 574 693 Q 561 654 563 631 Q 564 618 578 628 Q 590 638 616 694 L 636 746 Z"/>
  <path id="z33793d4" d="M 643 488 Q 656 491 671 492 Q 749 505 761 514 Q 770 521 766 529 Q 760 541 734 549 Q 707 556 657 542 L 578 523 Q 536 516 420 495 L 360 489 Q 311 488 259 485 Q 225 482 248 465 Q 284 438 365 452 L 367 452 L 417 457 Q 496 470 580 480 L 643 488 Z"/>
  <path id="z33793d5" d="M 420 495 Q 426 529 413 542 Q 391 561 365 571 Q 350 578 342 572 Q 333 566 339 550 Q 352 520 360 489 L 367 452 L 368 450 Q 372 398 373 194 C 373 164 413 168 413 198 Q 413 232 413 263 L 413 290 Q 413 326 414 355 L 414 381 Q 414 412 417 457 L 420 495 Z"/>
  <path id="z33793d6" d="M 618 218 Q 630 347 640 464 Q 641 477 643 488 L 657 542 Q 657 545 658 545 Q 662 555 642 572 Q 606 591 582 596 Q 566 600 558 591 Q 551 584 558 569 Q 576 544 578 523 L 580 480 Q 583 356 576 213 C 575 183 615 188 618 218 Z"/>
  <path id="z33793d7" d="M 414 355 Q 415 355 418 355 Q 485 365 536 371 Q 557 374 549 385 Q 539 398 517 402 Q 490 408 414 381 C 386 371 384 354 414 355 Z"/>
  <path id="z33793d8" d="M 413 263 Q 480 272 532 279 Q 553 282 545 293 Q 535 306 513 310 Q 483 316 413 290 C 385 280 383 259 413 263 Z"/>
  <path id="z33793d9" d="M 373 194 Q 264 187 147 176 Q 123 175 140 155 Q 155 139 175 132 Q 197 125 216 129 Q 477 189 874 167 Q 896 167 902 176 Q 908 189 891 205 Q 825 256 782 241 Q 715 231 618 218 L 576 213 Q 540 212 502 206 Q 459 203 413 198 L 373 194 Z"/>
  <path id="z33793d10" d="M 376 118 Q 360 64 207 -32 Q 183 -44 211 -45 Q 286 -48 443 72 Q 456 82 455 92 Q 454 105 429 118 Q 402 133 389 132 Q 382 131 376 118 Z"/>
  <path id="z33793d11" d="M 574 94 Q 638 42 713 -36 Q 729 -55 745 -59 Q 754 -60 761 -49 Q 773 -36 758 7 Q 743 61 574 125 Q 564 129 563 117 Q 563 104 574 94 Z"/>
<defs>
  <clipPath id="z33793c1"><use href="#z33793d1"/></clipPath>
  <clipPath id="z33793c2"><use href="#z33793d2"/></clipPath>
  <clipPath id="z33793c3"><use href="#z33793d3"/></clipPath>
  <clipPath id="z33793c4"><use href="#z33793d4"/></clipPath>
  <clipPath id="z33793c5"><use href="#z33793d5"/></clipPath>
  <clipPath id="z33793c6"><use href="#z33793d6"/></clipPath>
  <clipPath id="z33793c7"><use href="#z33793d7"/></clipPath>
  <clipPath id="z33793c8"><use href="#z33793d8"/></clipPath>
  <clipPath id="z33793c9"><use href="#z33793d9"/></clipPath>
  <clipPath id="z33793c10"><use href="#z33793d10"/></clipPath>
  <clipPath id="z33793c11"><use href="#z33793d11"/></clipPath>
</defs>
<path style="--d:1s;" pathLength="3333" clip-path="url(#z33793c1)" d="M 197 686 L 239 678 L 295 681 L 689 728 L 759 726 L 801 710"/>
<path style="--d:2s;" pathLength="3333" clip-path="url(#z33793c2)" d="M 351 795 L 393 767 L 420 612"/>
<path style="--d:3s;" pathLength="3333" clip-path="url(#z33793c3)" d="M 593 843 L 608 835 L 626 807 L 595 691 L 572 637"/>
<path style="--d:4s;" pathLength="3333" clip-path="url(#z33793c4)" d="M 251 476 L 291 467 L 335 467 L 555 497 L 689 523 L 753 525"/>
<path style="--d:5s;" pathLength="3333" clip-path="url(#z33793c5)" d="M 350 561 L 379 530 L 389 504 L 393 218 L 379 206"/>
<path style="--d:6s;" pathLength="3333" clip-path="url(#z33793c6)" d="M 570 581 L 615 541 L 600 244 L 582 221"/>
<path style="--d:7s;" pathLength="3333" clip-path="url(#z33793c7)" d="M 416 362 L 425 364 L 429 373 L 493 385 L 541 380"/>
<path style="--d:8s;" pathLength="3333" clip-path="url(#z33793c8)" d="M 421 270 L 428 281 L 476 291 L 516 294 L 537 288"/>
<path style="--d:9s;" pathLength="3333" clip-path="url(#z33793c9)" d="M 143 166 L 178 155 L 207 154 L 452 184 L 796 207 L 837 202 L 890 183"/>
<path style="--d:10s;" pathLength="3333" clip-path="url(#z33793c10)" d="M 439 91 L 404 90 L 337 28 L 273 -12 L 215 -37"/>
<path style="--d:11s;" pathLength="3333" clip-path="url(#z33793c11)" d="M 574 113 L 702 24 L 732 -11 L 746 -42"/>
</svg>