<svg id="z33333" class="acjk" viewBox="0 0 1024 1024" xmlns="http://www.w3.org/2000/svg">
<style>
<![CDATA[
@keyframes zk {
	to {
		stroke-dashoffset:0;
	}
}
svg.acjk path[clip-path] {
	--t:0.8s;
	animation:zk var(--t) linear forwards var(--d);
	stroke-dasharray:3337;
	stroke-dashoffset:3339;
	stroke-width:128;
	stroke-linecap:round;
	stroke-linejoin:round;
	fill:none;
	stroke:#000;
}
svg.acjk path[id] {fill:#ccc;}
]]>
</style>
  <path id="z33333d1" d="M 270 636 Q 292 663 356 749 Q 369 768 387 783 Q 403 798 389 810 Q 373 820 346 827 Q 322 833 312 827 Q 302 823 308 812 Q 320 785 252 644 Q 251 643 250 639 C 238 611 251 613 270 636 Z"/>
  <path id="z33333d2" d="M 250 639 Q 240 646 225 650 Q 206 659 195 653 Q 185 646 192 633 Q 213 612 213 572 Q 213 389 212 376 Q 211 375 211 374 L 206 329 Q 185 181 100 29 Q 96 22 95 17 Q 94 7 103 10 Q 116 13 148 60 Q 220 156 253 336 Q 253 340 254 344 L 259 385 Q 266 445 267 503 Q 267 597 274 605 C 283 648 277 626 250 639 Z"/>
  <path id="z33333d3" d="M 274 605 Q 275 606 280 608 Q 317 618 352 631 Q 370 638 376 629 Q 388 598 392 417 L 392 391 Q 396 100 380 74 Q 376 67 356 72 Q 328 78 299 83 Q 280 89 281 79 Q 339 36 374 1 Q 387 -17 402 -21 Q 411 -25 419 -15 Q 455 33 454 84 Q 438 330 437 566 Q 437 600 447 618 Q 459 637 447 646 Q 426 662 391 676 Q 373 685 321 653 Q 296 646 270 636 C 242 626 246 596 274 605 Z"/>
  <path id="z33333d4" d="M 298 516 Q 328 455 348 449 Q 358 445 367 459 Q 371 469 366 488 Q 357 515 307 537 Q 300 540 297 531 Q 294 524 298 516 Z"/>
  <path id="z33333d5" d="M 254 344 Q 290 356 392 391 C 420 401 421 424 392 417 Q 328 401 259 385 L 211 374 Q 159 364 110 353 Q 88 349 54 352 Q 41 351 39 342 Q 35 329 44 321 Q 63 305 94 284 Q 104 280 116 287 Q 159 314 206 329 L 254 344 Z"/>
  <path id="z33333d6" d="M 300 269 Q 316 248 331 223 Q 338 211 351 209 Q 360 208 365 217 Q 372 227 370 251 Q 367 276 305 306 Q 293 310 288 310 Q 284 309 283 298 Q 284 289 300 269 Z"/>
  <path id="z33333d7" d="M 635 755 Q 663 730 693 700 Q 706 687 724 686 Q 734 687 741 701 Q 745 716 737 747 Q 731 769 699 784 Q 626 815 608 807 Q 602 803 604 790 Q 608 778 635 755 Z"/>
  <path id="z33333d8" d="M 556 594 Q 544 621 523 634 Q 519 638 514 634 Q 510 631 509 620 Q 513 584 484 516 Q 474 500 476 482 Q 480 463 489 449 Q 496 439 502 447 Q 508 448 516 463 Q 520 470 529 499 Q 542 542 550 560 C 560 585 560 585 556 594 Z"/>
  <path id="z33333d9" d="M 550 560 Q 566 553 599 563 Q 812 627 815 604 Q 814 588 780 527 Q 773 514 779 509 Q 786 505 798 516 Q 876 574 906 585 Q 931 591 929 605 Q 928 617 857 653 Q 835 663 809 656 Q 746 637 692 622 Q 634 609 556 594 C 527 588 521 566 550 560 Z"/>
  <path id="z33333d10" d="M 594 255 Q 661 283 702 304 Q 795 352 820 357 Q 842 363 836 382 Q 826 401 804 420 Q 785 438 771 438 Q 759 439 760 425 Q 760 395 631 305 Q 613 293 596 280 C 572 262 566 243 594 255 Z"/>
  <path id="z33333d11" d="M 923 110 Q 910 138 892 225 Q 892 241 885 246 Q 879 249 875 232 Q 848 139 830 111 Q 818 96 784 87 Q 706 69 640 95 Q 615 108 607 124 Q 589 160 594 255 L 596 280 Q 600 337 613 401 Q 617 419 606 429 Q 593 442 570 451 Q 557 455 549 450 Q 542 446 548 429 Q 560 390 557 353 Q 544 160 560 105 Q 564 83 585 63 Q 661 -3 834 31 Q 837 32 840 33 Q 879 43 916 70 Q 935 85 923 110 Z"/>
<defs>
  <clipPath id="z33333c1"><use href="#z33333d1"/></clipPath>
  <clipPath id="z33333c2"><use href="#z33333d2"/></clipPath>
  <clipPath id="z33333c3"><use href="#z33333d3"/></clipPath>
  <clipPath id="z33333c4"><use href="#z33333d4"/></clipPath>
  <clipPath id="z33333c5"><use href="#z33333d5"/></clipPath>
  <clipPath id="z33333c6"><use href="#z33333d6"/></clipPath>
  <clipPath id="z33333c7"><use href="#z33333d7"/></clipPath>
  <clipPath id="z33333c8"><use href="#z33333d8"/></clipPath>
  <clipPath id="z33333c9"><use href="#z33333d9"/></clipPath>
  <clipPath id="z33333c10"><use href="#z33333d10"/></clipPath>
  <clipPath id="z33333c11"><use href="#z33333d11"/></clipPath>
</defs>
<path style="--d:1s;" pathLength="3333" clip-path="url(#z33333c1)" d="M 320 817 L 345 790 L 299 701 L 255 640"/>
<path style="--d:2s;" pathLength="3333" clip-path="url(#z33333c2)" d="M 203 642 L 225 627 L 241 604 L 238 410 L 227 312 L 182 156 L 147 84 L 103 18"/>
<path style="--d:3s;" pathLength="3333" clip-path="url(#z33333c3)" d="M 274 613 L 287 626 L 370 655 L 390 650 L 413 627 L 421 154 L 417 67 L 399 36 L 367 43 L 291 77"/>
<path style="--d:4s;" pathLength="3333" clip-path="url(#z33333c4)" d="M 308 524 L 340 488 L 352 464"/>
<path style="--d:5s;" pathLength="3333" clip-path="url(#z33333c5)" d="M 53 338 L 103 318 L 178 344 L 378 398 L 386 411"/>
<path style="--d:6s;" pathLength="3333" clip-path="url(#z33333c6)" d="M 290 302 L 333 264 L 353 222"/>
<path style="--d:7s;" pathLength="3333" clip-path="url(#z33333c7)" d="M 614 799 L 690 751 L 703 739 L 721 704"/>
<path style="--d:8s;" pathLength="3333" clip-path="url(#z33333c8)" d="M 519 625 L 532 591 L 501 494 L 497 460"/>
<path style="--d:9s;" pathLength="3333" clip-path="url(#z33333c9)" d="M 556 565 L 574 577 L 675 603 L 807 633 L 829 631 L 851 615 L 855 603 L 783 515"/>
<path style="--d:10s;" pathLength="3333" clip-path="url(#z33333c10)" d="M 769 428 L 778 417 L 785 386 L 702 328 L 606 273 L 601 261"/>
<path style="--d:11s;" pathLength="3333" clip-path="url(#z33333c11)" d="M 557 441 L 584 409 L 571 236 L 577 138 L 594 94 L 625 70 L 669 55 L 727 49 L 779 53 L 826 65 L 856 80 L 877 102 L 884 240"/>
</svg>