<svg id="z30798" class="acjk" viewBox="0 0 1024 1024" xmlns="http://www.w3.org/2000/svg">
<style>
<![CDATA[
@keyframes zk {
	to {
		stroke-dashoffset:0;
	}
}
svg.acjk path[clip-path] {
	--t:0.8s;
	animation:zk var(--t) linear forwards var(--d);
	stroke-dasharray:3337;
	stroke-dashoffset:3339;
	stroke-width:128;
	stroke-linecap:round;
	stroke-linejoin:round;
	fill:none;
	stroke:#000;
}
svg.acjk path[id] {fill:#ccc;}
]]>
</style>
  <path id="z30798d1" d="M 246 605 Q 381 639 388 646 Q 395 653 391 661 Q 384 671 357 677 Q 329 681 303 669 Q 269 656 232 644 Q 192 634 142 626 Q 109 619 134 605 Q 161 593 204 595 L 246 605 Z"/>
  <path id="z30798d2" d="M 185 367 Q 230 451 270 546 Q 283 577 283 580 Q 271 601 246 605 C 217 613 198 618 204 595 Q 229 519 143 370 Q 142 369 140 365 Q 115 322 47 234 Q 41 228 50 228 Q 83 235 158 327 L 185 367 Z"/>
  <path id="z30798d3" d="M 200 361 Q 196 364 185 367 C 156 376 149 356 158 327 Q 174 275 182 199 Q 183 171 198 151 Q 213 130 218 144 Q 225 163 222 199 L 219 230 Q 210 312 210 336 C 210 356 210 356 200 361 Z"/>
  <path id="z30798d4" d="M 341 254 Q 353 324 371 346 Q 390 371 369 382 Q 350 391 326 404 Q 311 411 264 384 Q 225 369 200 361 C 171 352 181 329 210 336 Q 216 337 279 356 Q 298 360 302 354 Q 309 350 305 319 Q 301 291 296 258 C 292 228 336 224 341 254 Z"/>
  <path id="z30798d5" d="M 222 199 Q 229 199 241 202 Q 275 212 352 227 Q 362 228 362 237 Q 362 244 341 254 C 318 265 318 265 296 258 Q 292 257 288 255 Q 249 240 219 230 C 191 220 192 197 222 199 Z"/>
  <path id="z30798d6" d="M 578 625 Q 596 631 658 641 Q 668 640 675 652 Q 675 662 654 671 Q 623 687 557 664 Q 467 640 410 630 Q 385 626 405 611 Q 436 593 472 600 Q 505 609 549 619 L 578 625 Z"/>
  <path id="z30798d7" d="M 613 450 Q 629 453 646 455 Q 655 454 662 466 Q 663 476 643 484 Q 625 493 613 493 L 570 484 Q 495 466 490 462 L 443 453 Q 404 447 363 441 Q 338 437 358 423 Q 385 404 420 411 Q 429 414 442 415 L 489 426 Q 522 435 570 443 L 613 450 Z"/>
  <path id="z30798d8" d="M 490 462 Q 491 489 497 521 Q 501 537 484 547 Q 442 566 430 564 Q 414 561 426 542 Q 438 523 443 453 L 442 415 Q 435 307 413 249 Q 410 246 409 240 Q 388 189 322 123 Q 310 113 307 106 Q 306 100 316 101 Q 346 101 403 160 Q 469 235 485 385 Q 486 404 489 426 L 490 462 Z"/>
  <path id="z30798d9" d="M 570 443 Q 570 199 551 150 Q 545 93 590 46 Q 591 45 596 42 Q 606 41 612 54 Q 624 85 620 114 Q 614 274 613 450 L 613 493 Q 614 553 619 582 Q 622 594 615 599 Q 594 615 578 625 C 553 642 535 645 549 619 Q 549 616 554 611 Q 566 593 570 484 L 570 443 Z"/>
  <path id="z30798d10" d="M 674 527 Q 698 472 685 335 Q 682 305 705 278 Q 714 268 722 278 Q 734 305 736 377 Q 736 480 739 502 Q 745 521 726 532 Q 713 541 697 548 Q 687 552 678 547 Q 671 540 674 527 Z"/>
  <path id="z30798d11" d="M 817 679 Q 821 645 825 133 Q 825 111 813 103 Q 807 99 734 111 Q 700 123 703 112 Q 704 105 726 90 Q 793 39 810 10 Q 831 -24 847 -25 Q 862 -26 876 10 Q 894 58 890 134 Q 871 351 874 569 Q 875 660 889 708 Q 905 739 848 761 Q 812 780 793 772 Q 774 765 792 742 Q 814 714 817 679 Z"/>
<defs>
  <clipPath id="z30798c1"><use href="#z30798d1"/></clipPath>
  <clipPath id="z30798c2"><use href="#z30798d2"/></clipPath>
  <clipPath id="z30798c3"><use href="#z30798d3"/></clipPath>
  <clipPath id="z30798c4"><use href="#z30798d4"/></clipPath>
  <clipPath id="z30798c5"><use href="#z30798d5"/></clipPath>
  <clipPath id="z30798c6"><use href="#z30798d6"/></clipPath>
  <clipPath id="z30798c7"><use href="#z30798d7"/></clipPath>
  <clipPath id="z30798c8"><use href="#z30798d8"/></clipPath>
  <clipPath id="z30798c9"><use href="#z30798d9"/></clipPath>
  <clipPath id="z30798c10"><use href="#z30798d10"/></clipPath>
  <clipPath id="z30798c11"><use href="#z30798d11"/></clipPath>
</defs>
<path style="--d:1s;" pathLength="3333" clip-path="url(#z30798c1)" d="M 135 617 L 195 614 L 328 652 L 380 655"/>
<path style="--d:2s;" pathLength="3333" clip-path="url(#z30798c2)" d="M 212 592 L 243 567 L 227 505 L 199 435 L 139 328 L 82 259 L 52 233"/>
<path style="--d:3s;" pathLength="3333" clip-path="url(#z30798c3)" d="M 187 358 L 191 350 L 186 315 L 209 149"/>
<path style="--d:4s;" pathLength="3333" clip-path="url(#z30798c4)" d="M 207 357 L 227 354 L 297 379 L 319 377 L 330 367 L 338 359 L 325 286 L 304 265"/>
<path style="--d:5s;" pathLength="3333" clip-path="url(#z30798c5)" d="M 225 207 L 241 220 L 299 237 L 353 236"/>
<path style="--d:6s;" pathLength="3333" clip-path="url(#z30798c6)" d="M 406 621 L 451 617 L 603 654 L 665 653"/>
<path style="--d:7s;" pathLength="3333" clip-path="url(#z30798c7)" d="M 359 433 L 410 428 L 610 472 L 652 467"/>
<path style="--d:8s;" pathLength="3333" clip-path="url(#z30798c8)" d="M 432 552 L 466 518 L 463 378 L 447 291 L 422 220 L 384 163 L 346 126 L 314 107"/>
<path style="--d:9s;" pathLength="3333" clip-path="url(#z30798c9)" d="M 557 618 L 575 607 L 591 581 L 592 270 L 584 141 L 598 52"/>
<path style="--d:10s;" pathLength="3333" clip-path="url(#z30798c10)" d="M 686 537 L 711 502 L 714 389 L 708 328 L 714 283"/>
<path style="--d:11s;" pathLength="3333" clip-path="url(#z30798c11)" d="M 799 757 L 817 749 L 850 716 L 847 457 L 856 107 L 837 59 L 811 65 L 723 103 L 721 110 L 710 110"/>
</svg>