<svg id="z31528" class="acjk" viewBox="0 0 1024 1024" xmlns="http://www.w3.org/2000/svg">
<style>
<![CDATA[
@keyframes zk {
	to {
		stroke-dashoffset:0;
	}
}
svg.acjk path[clip-path] {
	--t:0.8s;
	animation:zk var(--t) linear forwards var(--d);
	stroke-dasharray:3337;
	stroke-dashoffset:3339;
	stroke-width:128;
	stroke-linecap:round;
	stroke-linejoin:round;
	fill:none;
	stroke:#000;
}
svg.acjk path[id] {fill:#ccc;}
]]>
</style>
  <path id="z31528d1" d="M 334 731 Q 346 750 359 767 Q 369 780 355 794 Q 313 825 287 823 Q 277 820 278 806 Q 293 710 193 609 Q 177 593 169 580 Q 162 565 176 570 Q 192 571 212 588 Q 278 637 314 699 Q 314 700 315 701 L 334 731 Z"/>
  <path id="z31528d2" d="M 315 701 Q 339 692 466 713 Q 470 714 478 715 Q 500 719 503 722 Q 510 729 507 737 Q 500 747 474 755 Q 453 759 373 738 Q 352 737 334 731 C 305 722 286 708 315 701 Z"/>
  <path id="z31528d3" d="M 326 629 Q 365 569 389 566 Q 402 565 410 581 Q 411 594 404 614 Q 389 642 332 655 Q 323 656 322 646 Q 321 639 326 629 Z"/>
  <path id="z31528d4" d="M 627 751 Q 640 773 653 792 Q 663 805 648 819 Q 603 850 579 845 Q 567 842 571 827 Q 587 754 515 657 Q 509 656 484 616 Q 477 600 492 606 Q 505 609 524 624 Q 579 669 611 724 L 627 751 Z"/>
  <path id="z31528d5" d="M 611 724 Q 660 706 707 721 Q 756 733 809 745 Q 833 752 836 755 Q 845 764 840 772 Q 833 784 802 790 Q 771 794 741 780 Q 714 771 685 763 Q 657 757 627 751 C 598 745 583 734 611 724 Z"/>
  <path id="z31528d6" d="M 643 619 Q 673 600 706 574 Q 721 564 735 565 Q 745 566 749 580 Q 752 595 740 622 Q 733 641 700 652 Q 624 670 612 663 Q 608 659 610 647 Q 614 637 643 619 Z"/>
  <path id="z31528d7" d="M 513 447 Q 558 456 739 473 Q 749 472 760 484 Q 761 497 738 508 Q 702 532 617 509 Q 572 500 526 490 Q 520 489 518 488 L 462 478 Q 405 472 234 454 Q 203 451 226 432 Q 259 404 289 410 Q 358 425 441 435 L 513 447 Z"/>
  <path id="z31528d8" d="M 510 184 Q 510 266 510 385 L 511 421 Q 512 434 513 447 L 518 488 Q 519 500 523 510 Q 530 523 528 535 Q 522 544 473 573 Q 452 588 434 574 Q 430 570 436 556 Q 460 522 462 478 L 465 368 Q 465 275 465 174 L 463 133 Q 460 87 449 44 Q 440 7 463 -45 Q 469 -61 476 -63 Q 482 -69 488 -62 Q 495 -58 504 -39 Q 511 -17 511 10 Q 510 31 510 140 L 510 184 Z"/>
  <path id="z31528d9" d="M 441 435 Q 354 282 177 152 Q 150 134 120 111 Q 107 99 116 97 Q 140 87 236 143 Q 338 206 465 368 C 526 446 457 462 441 435 Z"/>
  <path id="z31528d10" d="M 510 385 Q 726 151 779 138 Q 846 128 953 149 Q 972 152 974 157 Q 977 164 960 171 Q 761 244 738 257 Q 645 308 520 414 Q 514 418 511 421 C 488 440 490 407 510 385 Z"/>
  <path id="z31528d11" d="M 510 140 Q 642 164 645 166 Q 654 173 650 181 Q 644 193 618 200 Q 591 207 510 184 L 465 174 Q 462 175 461 174 Q 403 164 334 161 Q 300 157 323 141 Q 359 119 428 129 Q 443 132 463 133 L 510 140 Z"/>
<defs>
  <clipPath id="z31528c1"><use href="#z31528d1"/></clipPath>
  <clipPath id="z31528c2"><use href="#z31528d2"/></clipPath>
  <clipPath id="z31528c3"><use href="#z31528d3"/></clipPath>
  <clipPath id="z31528c4"><use href="#z31528d4"/></clipPath>
  <clipPath id="z31528c5"><use href="#z31528d5"/></clipPath>
  <clipPath id="z31528c6"><use href="#z31528d6"/></clipPath>
  <clipPath id="z31528c7"><use href="#z31528d7"/></clipPath>
  <clipPath id="z31528c8"><use href="#z31528d8"/></clipPath>
  <clipPath id="z31528c9"><use href="#z31528d9"/></clipPath>
  <clipPath id="z31528c10"><use href="#z31528d10"/></clipPath>
  <clipPath id="z31528c11"><use href="#z31528d11"/></clipPath>
</defs>
<path style="--d:1s;" pathLength="3333" clip-path="url(#z31528c1)" d="M 292 810 L 317 774 L 292 711 L 269 670 L 232 625 L 179 580"/>
<path style="--d:2s;" pathLength="3333" clip-path="url(#z31528c2)" d="M 319 705 L 344 715 L 441 732 L 496 732"/>
<path style="--d:3s;" pathLength="3333" clip-path="url(#z31528c3)" d="M 334 643 L 370 613 L 392 585"/>
<path style="--d:4s;" pathLength="3333" clip-path="url(#z31528c4)" d="M 582 833 L 608 805 L 604 772 L 550 673 L 494 616"/>
<path style="--d:5s;" pathLength="3333" clip-path="url(#z31528c5)" d="M 620 728 L 694 741 L 770 763 L 829 766"/>
<path style="--d:6s;" pathLength="3333" clip-path="url(#z31528c6)" d="M 617 658 L 696 621 L 732 582"/>
<path style="--d:7s;" pathLength="3333" clip-path="url(#z31528c7)" d="M 228 444 L 281 434 L 459 457 L 668 493 L 715 494 L 749 486"/>
<path style="--d:8s;" pathLength="3333" clip-path="url(#z31528c8)" d="M 445 568 L 470 548 L 490 521 L 488 128 L 478 24 L 481 -50"/>
<path style="--d:9s;" pathLength="3333" clip-path="url(#z31528c9)" d="M 459 431 L 449 422 L 437 376 L 416 347 L 307 228 L 216 154 L 121 103"/>
<path style="--d:10s;" pathLength="3333" clip-path="url(#z31528c10)" d="M 513 415 L 524 391 L 548 366 L 637 288 L 709 232 L 777 190 L 854 171 L 968 159"/>
<path style="--d:11s;" pathLength="3333" clip-path="url(#z31528c11)" d="M 326 152 L 369 144 L 416 146 L 593 179 L 641 176"/>
</svg>