<svg id="z36434" class="acjk" viewBox="0 0 1024 1024" xmlns="http://www.w3.org/2000/svg">
<style>
<![CDATA[
@keyframes zk {
	to {
		stroke-dashoffset:0;
	}
}
svg.acjk path[clip-path] {
	--t:0.8s;
	animation:zk var(--t) linear forwards var(--d);
	stroke-dasharray:3337;
	stroke-dashoffset:3339;
	stroke-width:128;
	stroke-linecap:round;
	stroke-linejoin:round;
	fill:none;
	stroke:#000;
}
svg.acjk path[id] {fill:#ccc;}
]]>
</style>
  <path id="z36434d1" d="M 218 693 Q 208 699 179 705 Q 167 708 165 703 Q 159 699 166 683 Q 191 628 204 536 Q 207 509 222 491 Q 237 470 242 485 Q 246 495 246 510 L 244 541 Q 232 637 227 667 C 223 691 223 691 218 693 Z"/>
  <path id="z36434d2" d="M 383 564 Q 399 646 423 670 Q 445 694 423 708 Q 404 718 379 735 Q 361 744 317 720 Q 275 707 218 693 C 189 686 199 658 227 667 Q 230 670 317 688 Q 344 694 349 683 Q 356 677 350 643 Q 343 609 335 568 C 329 539 377 535 383 564 Z"/>
  <path id="z36434d3" d="M 301 519 Q 338 528 395 535 Q 405 536 405 545 Q 405 552 383 564 C 361 577 361 577 335 568 Q 334 568 332 567 Q 283 551 244 541 C 215 533 216 512 246 510 Q 253 509 264 511 L 301 519 Z"/>
  <path id="z36434d4" d="M 320 233 Q 321 303 323 362 L 323 394 Q 326 497 318 506 Q 309 513 301 519 C 277 537 253 539 264 511 Q 276 490 279 389 Q 279 329 281 222 C 282 192 320 203 320 233 Z"/>
  <path id="z36434d5" d="M 323 362 Q 371 371 405 376 Q 427 382 418 393 Q 406 406 382 408 Q 360 409 323 394 C 295 383 294 356 323 362 Z"/>
  <path id="z36434d6" d="M 221 206 Q 208 336 211 360 Q 212 382 199 392 Q 177 407 152 413 Q 139 417 131 411 Q 124 405 131 391 Q 158 349 185 196 C 190 166 224 176 221 206 Z"/>
  <path id="z36434d7" d="M 185 196 Q 110 183 95 182 Q 82 181 80 171 Q 77 158 87 150 Q 109 134 141 114 Q 151 110 164 119 Q 192 140 370 216 Q 395 226 412 239 Q 425 246 426 256 Q 422 260 409 259 Q 366 247 320 233 L 281 222 Q 250 215 221 206 L 185 196 Z"/>
  <path id="z36434d8" d="M 601 625 Q 634 634 702 640 L 744 644 Q 801 653 889 650 Q 904 649 908 658 Q 912 668 900 682 Q 851 719 765 695 Q 764 695 762 694 L 713 684 Q 658 675 600 664 L 558 657 Q 506 650 453 641 Q 425 637 445 623 Q 487 599 550 614 Q 556 615 564 617 L 601 625 Z"/>
  <path id="z36434d9" d="M 564 617 Q 567 572 581 555 Q 591 545 597 555 Q 600 564 601 625 L 600 664 Q 600 697 600 723 Q 603 739 585 747 Q 551 765 531 761 Q 515 754 527 736 Q 552 699 558 657 L 564 617 Z"/>
  <path id="z36434d10" d="M 702 640 Q 687 598 690 574 Q 691 561 706 572 Q 722 587 744 644 L 762 694 Q 774 733 794 769 Q 807 782 797 792 Q 784 808 752 823 Q 736 830 720 822 Q 711 816 719 806 Q 732 776 713 684 L 702 640 Z"/>
  <path id="z36434d11" d="M 733 511 Q 782 515 822 520 Q 832 519 840 531 Q 841 541 820 552 Q 792 574 699 549 Q 642 537 500 519 Q 473 516 494 499 Q 504 490 519 482 Q 531 475 552 481 Q 555 482 559 481 L 583 486 Q 635 498 701 506 L 733 511 Z"/>
  <path id="z36434d12" d="M 484 389 Q 463 410 441 415 Q 437 418 431 412 Q 427 406 430 394 Q 464 328 440 157 Q 430 115 439 92 Q 449 73 464 61 Q 477 51 479 62 Q 486 65 489 85 Q 495 106 492 178 Q 491 305 497 351 Q 498 355 498 358 C 500 374 500 374 484 389 Z"/>
  <path id="z36434d13" d="M 755 397 Q 783 400 820 402 Q 830 402 834 397 Q 841 393 844 356 Q 854 205 837 118 Q 833 87 805 89 Q 772 96 743 103 Q 730 107 730 101 Q 729 95 739 84 Q 806 27 825 -2 Q 834 -15 843 -13 Q 856 -10 867 13 Q 886 49 892 89 Q 902 144 904 338 Q 905 372 915 392 Q 930 411 917 416 Q 902 431 868 445 Q 846 458 823 448 Q 804 442 760 436 L 712 430 Q 657 426 615 416 L 568 406 Q 525 399 484 389 C 455 382 469 351 498 358 Q 522 365 562 372 Q 563 373 566 372 L 610 380 Q 682 395 711 394 L 755 397 Z"/>
  <path id="z36434d14" d="M 559 481 Q 568 448 568 406 L 566 372 Q 548 264 501 187 Q 497 183 496 178 Q 495 171 501 172 Q 532 178 575 261 Q 576 265 579 269 L 585 286 Q 603 338 610 380 L 615 416 Q 616 420 617 425 Q 621 459 622 461 Q 600 485 583 486 C 556 493 556 493 559 481 Z"/>
  <path id="z36434d15" d="M 579 269 Q 624 211 642 207 Q 652 206 657 218 Q 658 228 653 243 Q 646 258 627 266 Q 599 282 585 286 C 559 294 561 293 579 269 Z"/>
  <path id="z36434d16" d="M 728 273 Q 747 334 755 397 L 760 436 Q 761 442 762 447 Q 766 486 767 488 Q 754 501 733 511 C 706 525 687 533 701 506 Q 701 505 703 500 Q 716 487 713 433 Q 712 432 712 430 L 711 394 Q 693 241 625 136 Q 621 132 620 127 Q 619 118 626 120 Q 657 127 706 219 Q 707 223 709 225 Q 713 237 719 248 L 728 273 Z"/>
  <path id="z36434d17" d="M 719 248 Q 749 221 783 184 Q 795 171 805 168 Q 812 167 816 174 Q 825 183 816 213 Q 806 247 728 273 C 700 283 697 268 719 248 Z"/>
<defs>
  <clipPath id="z36434c1"><use href="#z36434d1"/></clipPath>
  <clipPath id="z36434c2"><use href="#z36434d2"/></clipPath>
  <clipPath id="z36434c3"><use href="#z36434d3"/></clipPath>
  <clipPath id="z36434c4"><use href="#z36434d4"/></clipPath>
  <clipPath id="z36434c5"><use href="#z36434d5"/></clipPath>
  <clipPath id="z36434c6"><use href="#z36434d6"/></clipPath>
  <clipPath id="z36434c7"><use href="#z36434d7"/></clipPath>
  <clipPath id="z36434c8"><use href="#z36434d8"/></clipPath>
  <clipPath id="z36434c9"><use href="#z36434d9"/></clipPath>
  <clipPath id="z36434c10"><use href="#z36434d10"/></clipPath>
  <clipPath id="z36434c11"><use href="#z36434d11"/></clipPath>
  <clipPath id="z36434c12"><use href="#z36434d12"/></clipPath>
  <clipPath id="z36434c13"><use href="#z36434d13"/></clipPath>
  <clipPath id="z36434c14"><use href="#z36434d14"/></clipPath>
  <clipPath id="z36434c15"><use href="#z36434d15"/></clipPath>
  <clipPath id="z36434c16"><use href="#z36434d16"/></clipPath>
  <clipPath id="z36434c17"><use href="#z36434d17"/></clipPath>
</defs>
<path style="--d:1s;" pathLength="3333" clip-path="url(#z36434c1)" d="M 173 696 L 197 674 L 203 659 L 232 489"/>
<path style="--d:2s;" pathLength="3333" clip-path="url(#z36434c2)" d="M 226 674 L 235 684 L 334 710 L 369 706 L 388 686 L 364 590 L 342 575"/>
<path style="--d:3s;" pathLength="3333" clip-path="url(#z36434c3)" d="M 250 518 L 262 528 L 340 548 L 395 545"/>
<path style="--d:4s;" pathLength="3333" clip-path="url(#z36434c4)" d="M 271 510 L 297 488 L 301 429 L 301 256 L 297 241 L 285 232"/>
<path style="--d:5s;" pathLength="3333" clip-path="url(#z36434c5)" d="M 330 367 L 341 383 L 377 390 L 408 387"/>
<path style="--d:6s;" pathLength="3333" clip-path="url(#z36434c6)" d="M 139 403 L 179 365 L 201 221 L 188 208"/>
<path style="--d:7s;" pathLength="3333" clip-path="url(#z36434c7)" d="M 94 168 L 152 154 L 421 253"/>
<path style="--d:8s;" pathLength="3333" clip-path="url(#z36434c8)" d="M 447 633 L 469 628 L 522 630 L 797 676 L 851 677 L 896 664"/>
<path style="--d:9s;" pathLength="3333" clip-path="url(#z36434c9)" d="M 536 747 L 570 721 L 589 559"/>
<path style="--d:10s;" pathLength="3333" clip-path="url(#z36434c10)" d="M 725 814 L 741 805 L 759 778 L 735 682 L 698 574"/>
<path style="--d:11s;" pathLength="3333" clip-path="url(#z36434c11)" d="M 495 510 L 541 501 L 754 537 L 793 539 L 830 533"/>
<path style="--d:12s;" pathLength="3333" clip-path="url(#z36434c12)" d="M 438 406 L 464 374 L 471 354 L 463 120 L 471 75"/>
<path style="--d:13s;" pathLength="3333" clip-path="url(#z36434c13)" d="M 492 386 L 510 378 L 676 410 L 825 425 L 850 422 L 873 402 L 876 241 L 870 145 L 856 77 L 837 51 L 754 85 L 737 99"/>
<path style="--d:14s;" pathLength="3333" clip-path="url(#z36434c14)" d="M 566 476 L 581 468 L 592 449 L 584 353 L 556 259 L 530 211 L 503 179"/>
<path style="--d:15s;" pathLength="3333" clip-path="url(#z36434c15)" d="M 589 280 L 592 269 L 630 241 L 643 220"/>
<path style="--d:16s;" pathLength="3333" clip-path="url(#z36434c16)" d="M 707 505 L 731 490 L 739 477 L 733 392 L 716 301 L 677 195 L 628 128"/>
<path style="--d:17s;" pathLength="3333" clip-path="url(#z36434c17)" d="M 736 263 L 738 253 L 789 213 L 805 181"/>
</svg>