<svg id="z31287" class="acjk" viewBox="0 0 1024 1024" xmlns="http://www.w3.org/2000/svg">
<style>
<![CDATA[
@keyframes zk {
	to {
		stroke-dashoffset:0;
	}
}
svg.acjk path[clip-path] {
	--t:0.8s;
	animation:zk var(--t) linear forwards var(--d);
	stroke-dasharray:3337;
	stroke-dashoffset:3339;
	stroke-width:128;
	stroke-linecap:round;
	stroke-linejoin:round;
	fill:none;
	stroke:#000;
}
svg.acjk path[id] {fill:#ccc;}
]]>
</style>
  <path id="z31287d1" d="M 272 674 Q 356 719 386 728 Q 402 731 405 738 Q 408 748 395 758 Q 373 771 330 783 Q 314 789 302 786 Q 295 782 296 771 Q 297 731 116 623 Q 112 614 118 612 Q 136 612 215 649 Q 227 655 247 659 L 272 674 Z"/>
  <path id="z31287d2" d="M 304 517 Q 341 527 387 538 Q 403 542 403 549 Q 403 562 385 569 Q 357 579 307 563 L 262 549 Q 124 509 66 499 Q 53 496 51 489 Q 48 479 65 468 Q 101 447 153 464 Q 207 488 249 500 L 304 517 Z"/>
  <path id="z31287d3" d="M 302 462 Q 303 492 304 517 L 307 563 Q 310 603 315 627 Q 318 640 310 646 Q 289 665 272 674 C 247 690 236 687 247 659 Q 262 638 262 549 L 258 405 Q 257 392 257 377 Q 245 158 229 124 Q 220 88 253 33 Q 263 14 272 9 Q 284 8 289 21 Q 302 54 299 85 Q 298 277 301 435 L 302 462 Z"/>
  <path id="z31287d4" d="M 249 500 Q 224 430 186 365 Q 147 301 54 181 Q 50 171 60 170 Q 81 170 178 282 Q 220 331 258 405 C 322 527 259 528 249 500 Z"/>
  <path id="z31287d5" d="M 301 435 Q 322 422 365 383 Q 375 373 386 374 Q 393 375 397 385 Q 401 395 394 417 Q 385 441 308 462 Q 304 463 302 462 C 272 460 276 451 301 435 Z"/>
  <path id="z31287d6" d="M 489 731 Q 479 735 454 741 Q 442 744 439 739 Q 432 733 440 718 Q 468 657 482 557 Q 483 527 501 507 Q 517 486 523 501 Q 524 507 526 513 L 526 541 Q 526 553 524 566 Q 508 669 505 701 C 502 726 502 726 489 731 Z"/>
  <path id="z31287d7" d="M 708 540 Q 723 521 737 514 Q 747 507 761 527 Q 773 548 796 660 Q 803 688 826 713 Q 838 725 827 737 Q 812 753 772 777 Q 756 783 684 768 Q 660 768 489 731 C 460 725 476 693 505 701 Q 541 711 594 720 L 630 726 Q 660 732 700 736 Q 728 740 736 731 Q 748 718 746 705 Q 734 624 718 574 C 709 545 708 540 708 540 Z"/>
  <path id="z31287d8" d="M 642 630 Q 670 637 697 640 Q 716 643 709 654 Q 700 666 679 669 Q 666 670 644 666 L 601 653 Q 567 643 538 634 Q 525 631 541 619 Q 545 616 602 623 L 642 630 Z"/>
  <path id="z31287d9" d="M 638 563 Q 639 599 642 630 L 644 666 Q 644 684 646 692 Q 652 713 630 726 C 605 743 586 749 594 720 Q 597 717 601 653 L 602 623 Q 602 596 603 555 C 604 525 637 533 638 563 Z"/>
  <path id="z31287d10" d="M 526 513 Q 530 513 538 514 Q 593 529 708 540 C 738 543 746 563 718 574 Q 706 581 682 574 Q 660 570 638 563 L 603 555 Q 560 548 526 541 C 497 535 496 511 526 513 Z"/>
  <path id="z31287d11" d="M 488 464 Q 484 428 400 350 Q 384 338 405 341 Q 450 341 545 436 Q 554 446 552 453 Q 549 463 528 470 Q 506 477 496 475 Q 490 474 488 464 Z"/>
  <path id="z31287d12" d="M 697 459 Q 742 428 795 379 Q 811 364 824 362 Q 831 361 837 370 Q 846 383 831 418 Q 818 452 762 468 Q 750 474 695 485 Q 688 489 687 478 Q 688 466 697 459 Z"/>
  <path id="z31287d13" d="M 580 337 Q 595 356 605 366 Q 614 376 611 385 Q 608 395 584 402 Q 559 409 548 407 Q 541 406 540 393 Q 522 306 340 147 Q 321 134 346 137 Q 401 146 512 256 L 530 275 Q 543 291 557 308 Q 557 309 559 310 L 580 337 Z"/>
  <path id="z31287d14" d="M 612 163 Q 546 91 409 59 Q 396 55 406 47 Q 412 43 453 45 Q 555 54 642 129 L 671 163 Q 701 206 730 265 Q 743 290 764 306 Q 783 319 772 332 Q 762 345 733 359 Q 712 368 685 357 Q 663 350 633 344 Q 611 340 580 337 C 550 334 530 316 559 310 Q 587 301 626 308 Q 657 320 664 320 Q 686 316 678 293 Q 662 236 635 194 L 612 163 Z"/>
  <path id="z31287d15" d="M 512 256 Q 545 241 612 163 L 642 129 Q 688 77 773 9 Q 801 -10 841 0 Q 893 12 931 20 Q 943 23 954 29 Q 961 36 949 44 Q 936 51 821 81 Q 757 99 671 163 L 635 194 Q 604 222 571 254 Q 555 272 530 275 C 501 282 486 271 512 256 Z"/>
<defs>
  <clipPath id="z31287c1"><use href="#z31287d1"/></clipPath>
  <clipPath id="z31287c2"><use href="#z31287d2"/></clipPath>
  <clipPath id="z31287c3"><use href="#z31287d3"/></clipPath>
  <clipPath id="z31287c4"><use href="#z31287d4"/></clipPath>
  <clipPath id="z31287c5"><use href="#z31287d5"/></clipPath>
  <clipPath id="z31287c6"><use href="#z31287d6"/></clipPath>
  <clipPath id="z31287c7"><use href="#z31287d7"/></clipPath>
  <clipPath id="z31287c8"><use href="#z31287d8"/></clipPath>
  <clipPath id="z31287c9"><use href="#z31287d9"/></clipPath>
  <clipPath id="z31287c10"><use href="#z31287d10"/></clipPath>
  <clipPath id="z31287c11"><use href="#z31287d11"/></clipPath>
  <clipPath id="z31287c12"><use href="#z31287d12"/></clipPath>
  <clipPath id="z31287c13"><use href="#z31287d13"/></clipPath>
  <clipPath id="z31287c14"><use href="#z31287d14"/></clipPath>
  <clipPath id="z31287c15"><use href="#z31287d15"/></clipPath>
</defs>
<path style="--d:1s;" pathLength="3333" clip-path="url(#z31287c1)" d="M 395 742 L 328 745 L 243 680 L 163 637 L 154 638 L 148 630 L 129 628 L 121 618"/>
<path style="--d:2s;" pathLength="3333" clip-path="url(#z31287c2)" d="M 61 486 L 90 481 L 122 484 L 322 546 L 392 551"/>
<path style="--d:3s;" pathLength="3333" clip-path="url(#z31287c3)" d="M 256 659 L 272 651 L 286 630 L 275 261 L 263 106 L 275 21"/>
<path style="--d:4s;" pathLength="3333" clip-path="url(#z31287c4)" d="M 256 497 L 237 413 L 213 367 L 157 283 L 61 178"/>
<path style="--d:5s;" pathLength="3333" clip-path="url(#z31287c5)" d="M 305 455 L 365 415 L 383 388"/>
<path style="--d:6s;" pathLength="3333" clip-path="url(#z31287c6)" d="M 448 731 L 471 710 L 479 694 L 513 507"/>
<path style="--d:7s;" pathLength="3333" clip-path="url(#z31287c7)" d="M 502 732 L 513 720 L 698 755 L 737 756 L 764 747 L 783 723 L 781 713 L 742 555 L 739 547 L 722 542"/>
<path style="--d:8s;" pathLength="3333" clip-path="url(#z31287c8)" d="M 545 628 L 653 651 L 682 654 L 701 649"/>
<path style="--d:9s;" pathLength="3333" clip-path="url(#z31287c9)" d="M 600 720 L 622 700 L 621 585 L 607 563"/>
<path style="--d:10s;" pathLength="3333" clip-path="url(#z31287c10)" d="M 531 520 L 550 532 L 692 557 L 711 570"/>
<path style="--d:11s;" pathLength="3333" clip-path="url(#z31287c11)" d="M 539 450 L 514 445 L 454 378 L 409 349"/>
<path style="--d:12s;" pathLength="3333" clip-path="url(#z31287c12)" d="M 697 475 L 786 427 L 824 377"/>
<path style="--d:13s;" pathLength="3333" clip-path="url(#z31287c13)" d="M 597 380 L 569 374 L 490 262 L 406 184 L 349 145"/>
<path style="--d:14s;" pathLength="3333" clip-path="url(#z31287c14)" d="M 566 312 L 590 322 L 671 336 L 701 331 L 719 320 L 663 192 L 622 140 L 584 110 L 517 75 L 411 52"/>
<path style="--d:15s;" pathLength="3333" clip-path="url(#z31287c15)" d="M 518 259 L 546 254 L 681 124 L 792 46 L 826 38 L 945 34"/>
</svg>