<svg id="z35616" class="acjk" viewBox="0 0 1024 1024" xmlns="http://www.w3.org/2000/svg">
<style>
<![CDATA[
@keyframes zk {
	to {
		stroke-dashoffset:0;
	}
}
svg.acjk path[clip-path] {
	--t:0.8s;
	animation:zk var(--t) linear forwards var(--d);
	stroke-dasharray:3337;
	stroke-dashoffset:3339;
	stroke-width:128;
	stroke-linecap:round;
	stroke-linejoin:round;
	fill:none;
	stroke:#000;
}
svg.acjk path[id] {fill:#ccc;}
]]>
</style>
  <path id="z35616d1" d="M 281 759 Q 315 735 354 706 Q 370 693 386 696 Q 396 697 401 712 Q 404 728 391 758 Q 378 792 271 809 Q 255 810 248 807 Q 244 803 246 789 Q 250 779 281 759 Z"/>
  <path id="z35616d2" d="M 48 568 Q 35 567 32 558 Q 29 548 45 536 Q 85 509 129 524 Q 261 572 393 593 Q 409 597 410 604 Q 411 617 392 626 Q 364 638 341 631 Q 146 583 48 568 Z"/>
  <path id="z35616d3" d="M 196 479 Q 165 470 189 457 Q 231 444 288 461 Q 318 470 351 478 Q 367 484 370 486 Q 377 495 372 502 Q 365 512 337 515 Q 312 518 248 491 Q 224 484 196 479 Z"/>
  <path id="z35616d4" d="M 183 365 Q 153 356 177 345 Q 207 330 278 352 Q 312 362 347 374 Q 366 381 370 384 Q 377 391 372 398 Q 365 408 339 411 Q 318 412 245 381 Q 215 372 183 365 Z"/>
  <path id="z35616d5" d="M 167 251 Q 154 255 124 260 Q 112 261 109 257 Q 103 250 112 235 Q 143 177 165 82 Q 169 54 187 35 Q 206 13 211 30 Q 217 51 208 91 L 201 121 Q 183 203 180 226 C 177 248 177 248 167 251 Z"/>
  <path id="z35616d6" d="M 330 148 Q 348 215 370 237 Q 391 261 369 274 Q 311 305 307 305 Q 298 305 290 299 Q 251 272 167 251 C 138 244 151 218 180 226 L 267 251 Q 292 258 299 249 Q 306 243 298 212 Q 291 182 281 148 C 273 119 322 119 330 148 Z"/>
  <path id="z35616d7" d="M 208 91 Q 215 90 225 93 Q 262 105 344 119 Q 354 120 354 129 Q 354 136 330 148 L 281 148 L 280 148 Q 235 132 201 121 C 172 112 178 92 208 91 Z"/>
  <path id="z35616d8" d="M 616 757 Q 635 781 663 797 Q 673 803 671 815 Q 670 825 652 849 Q 634 868 619 872 Q 603 873 606 855 Q 612 828 541 748 Q 507 714 463 675 Q 453 669 450 665 Q 446 656 457 656 Q 472 655 545 701 L 553 706 Q 571 721 594 738 L 616 757 Z"/>
  <path id="z35616d9" d="M 546 488 Q 550 492 559 496 Q 671 566 789 686 Q 811 710 845 732 Q 860 739 856 749 Q 855 758 802 787 Q 786 797 767 788 Q 743 778 708 770 Q 660 763 616 757 C 586 753 565 746 594 738 Q 618 723 726 740 Q 741 741 745 735 Q 746 729 736 716 Q 646 586 391 436 Q 376 427 389 424 Q 416 424 509 468 L 546 488 Z"/>
  <path id="z35616d10" d="M 545 701 Q 545 700 546 696 Q 546 681 589 637 Q 601 628 610 623 Q 620 620 628 629 Q 634 638 633 650 Q 626 680 568 704 Q 559 707 553 706 C 544 705 544 705 545 701 Z"/>
  <path id="z35616d11" d="M 478 602 Q 499 563 520 549 Q 530 545 540 553 Q 547 562 547 575 Q 544 605 507 624 Q 480 636 474 634 Q 470 634 469 624 Q 469 615 478 602 Z"/>
  <path id="z35616d12" d="M 552 426 Q 561 441 570 446 Q 576 450 574 458 Q 571 476 546 488 C 520 502 512 498 509 468 Q 509 419 397 309 Q 390 305 399 303 Q 450 303 538 408 L 552 426 Z"/>
  <path id="z35616d13" d="M 640 398 Q 791 431 799 438 Q 808 445 803 453 Q 796 463 769 470 Q 751 473 657 445 Q 570 429 552 426 C 522 421 522 421 538 408 Q 553 393 591 392 L 640 398 Z"/>
  <path id="z35616d14" d="M 657 265 Q 775 287 919 288 Q 940 288 945 298 Q 949 310 933 322 Q 881 358 845 347 Q 776 329 660 304 L 603 294 Q 518 279 423 262 Q 404 259 419 243 Q 432 230 450 226 Q 471 222 486 227 Q 540 245 603 256 L 657 265 Z"/>
  <path id="z35616d15" d="M 647 116 Q 651 198 657 265 L 660 304 Q 660 325 664 349 Q 673 373 640 398 C 617 417 578 419 591 392 Q 603 377 603 294 L 603 256 Q 603 201 603 108 C 603 78 646 86 647 116 Z"/>
  <path id="z35616d16" d="M 798 140 Q 717 131 647 116 L 603 108 Q 539 96 482 78 Q 469 77 473 92 Q 491 152 484 168 Q 472 187 451 203 Q 441 210 431 209 Q 419 206 425 187 Q 435 148 425 113 Q 418 79 401 66 Q 382 50 388 36 Q 398 20 414 9 Q 427 2 436 8 Q 457 29 586 65 Q 766 119 812 103 C 841 97 828 143 798 140 Z"/>
  <path id="z35616d17" d="M 812 103 Q 824 72 837 35 Q 841 20 853 15 Q 860 11 870 18 Q 879 25 885 51 Q 898 88 867 143 Q 789 254 773 254 Q 767 253 763 244 Q 762 235 798 140 L 812 103 Z"/>
<defs>
  <clipPath id="z35616c1"><use href="#z35616d1"/></clipPath>
  <clipPath id="z35616c2"><use href="#z35616d2"/></clipPath>
  <clipPath id="z35616c3"><use href="#z35616d3"/></clipPath>
  <clipPath id="z35616c4"><use href="#z35616d4"/></clipPath>
  <clipPath id="z35616c5"><use href="#z35616d5"/></clipPath>
  <clipPath id="z35616c6"><use href="#z35616d6"/></clipPath>
  <clipPath id="z35616c7"><use href="#z35616d7"/></clipPath>
  <clipPath id="z35616c8"><use href="#z35616d8"/></clipPath>
  <clipPath id="z35616c9"><use href="#z35616d9"/></clipPath>
  <clipPath id="z35616c10"><use href="#z35616d10"/></clipPath>
  <clipPath id="z35616c11"><use href="#z35616d11"/></clipPath>
  <clipPath id="z35616c12"><use href="#z35616d12"/></clipPath>
  <clipPath id="z35616c13"><use href="#z35616d13"/></clipPath>
  <clipPath id="z35616c14"><use href="#z35616d14"/></clipPath>
  <clipPath id="z35616c15"><use href="#z35616d15"/></clipPath>
  <clipPath id="z35616c16"><use href="#z35616d16"/></clipPath>
  <clipPath id="z35616c17"><use href="#z35616d17"/></clipPath>
</defs>
<path style="--d:1s;" pathLength="3333" clip-path="url(#z35616c1)" d="M 254 801 L 350 752 L 382 715"/>
<path style="--d:2s;" pathLength="3333" clip-path="url(#z35616c2)" d="M 44 555 L 74 547 L 104 548 L 316 603 L 359 611 L 399 607"/>
<path style="--d:3s;" pathLength="3333" clip-path="url(#z35616c3)" d="M 190 469 L 234 469 L 332 495 L 362 495"/>
<path style="--d:4s;" pathLength="3333" clip-path="url(#z35616c4)" d="M 177 356 L 216 355 L 311 385 L 361 392"/>
<path style="--d:5s;" pathLength="3333" clip-path="url(#z35616c5)" d="M 118 250 L 152 218 L 199 35"/>
<path style="--d:6s;" pathLength="3333" clip-path="url(#z35616c6)" d="M 177 248 L 187 242 L 305 277 L 326 264 L 336 252 L 316 182 L 312 171 L 287 154"/>
<path style="--d:7s;" pathLength="3333" clip-path="url(#z35616c7)" d="M 212 100 L 221 110 L 281 128 L 345 128"/>
<path style="--d:8s;" pathLength="3333" clip-path="url(#z35616c8)" d="M 617 860 L 632 825 L 623 806 L 527 708 L 457 663"/>
<path style="--d:9s;" pathLength="3333" clip-path="url(#z35616c9)" d="M 600 742 L 737 759 L 773 755 L 787 742 L 771 712 L 728 662 L 635 576 L 492 476 L 392 430"/>
<path style="--d:10s;" pathLength="3333" clip-path="url(#z35616c10)" d="M 551 700 L 594 665 L 615 639"/>
<path style="--d:11s;" pathLength="3333" clip-path="url(#z35616c11)" d="M 477 626 L 513 591 L 527 566"/>
<path style="--d:12s;" pathLength="3333" clip-path="url(#z35616c12)" d="M 546 473 L 545 459 L 501 394 L 440 332 L 421 317 L 407 316 L 403 308"/>
<path style="--d:13s;" pathLength="3333" clip-path="url(#z35616c13)" d="M 546 409 L 649 421 L 771 450 L 792 448"/>
<path style="--d:14s;" pathLength="3333" clip-path="url(#z35616c14)" d="M 422 252 L 476 248 L 570 270 L 857 318 L 883 317 L 933 303"/>
<path style="--d:15s;" pathLength="3333" clip-path="url(#z35616c15)" d="M 597 392 L 633 359 L 626 141 L 609 117"/>
<path style="--d:16s;" pathLength="3333" clip-path="url(#z35616c16)" d="M 435 197 L 458 157 L 443 59 L 460 54 L 685 109 L 776 123 L 787 123 L 802 111"/>
<path style="--d:17s;" pathLength="3333" clip-path="url(#z35616c17)" d="M 772 245 L 813 177 L 853 92 L 859 29"/>
</svg>