<svg id="z37158" class="acjk" viewBox="0 0 1024 1024" xmlns="http://www.w3.org/2000/svg">
<style>
<![CDATA[
@keyframes zk {
	to {
		stroke-dashoffset:0;
	}
}
svg.acjk path[clip-path] {
	--t:0.8s;
	animation:zk var(--t) linear forwards var(--d);
	stroke-dasharray:3337;
	stroke-dashoffset:3339;
	stroke-width:128;
	stroke-linecap:round;
	stroke-linejoin:round;
	fill:none;
	stroke:#000;
}
svg.acjk path[id] {fill:#ccc;}
]]>
</style>
  <path id="z37158d1" d="M 279 669 Q 355 783 356 790 L 354 796 Q 350 808 323 827 Q 298 843 281 842 Q 265 839 272 820 Q 290 789 231 678 Q 204 629 165 572 Q 156 562 154 557 Q 153 547 164 549 Q 191 558 264 649 L 279 669 Z"/>
  <path id="z37158d2" d="M 264 649 Q 313 625 365 642 Q 432 660 504 678 Q 535 688 541 693 Q 548 700 544 709 Q 537 719 507 725 Q 480 729 395 696 Q 299 672 279 669 C 249 664 237 661 264 649 Z"/>
  <path id="z37158d3" d="M 515 448 Q 549 455 583 458 Q 593 457 601 468 Q 602 478 582 488 Q 558 506 528 498 Q 527 498 526 496 L 477 485 Q 440 476 403 466 L 366 457 Q 341 453 318 447 L 283 440 Q 255 437 227 432 L 189 428 Q 149 424 108 418 Q 83 414 102 399 Q 132 378 170 385 Q 182 388 198 391 L 232 398 Q 257 405 287 410 L 320 416 Q 342 420 367 425 L 401 430 Q 440 439 471 442 L 515 448 Z"/>
  <path id="z37158d4" d="M 227 432 Q 223 478 222 491 Q 222 509 209 517 Q 190 529 167 533 Q 157 534 150 529 Q 144 525 151 513 Q 178 476 189 428 L 198 391 Q 205 354 219 294 C 226 265 256 269 251 299 Q 241 356 232 398 L 227 432 Z"/>
  <path id="z37158d5" d="M 318 447 Q 315 492 322 538 Q 323 545 309 554 Q 284 564 267 565 Q 255 566 251 559 Q 247 553 253 544 Q 271 522 283 440 L 287 410 Q 293 362 297 307 C 299 277 327 283 325 313 Q 322 367 320 416 L 318 447 Z"/>
  <path id="z37158d6" d="M 403 466 Q 406 517 418 550 Q 419 557 406 568 Q 384 581 366 584 Q 356 587 350 581 Q 344 575 350 565 Q 365 543 365 529 Q 366 495 366 457 L 367 425 Q 366 376 363 321 C 361 291 390 297 392 327 Q 396 381 401 430 L 403 466 Z"/>
  <path id="z37158d7" d="M 490 349 Q 503 401 515 448 L 526 496 Q 526 500 547 549 Q 551 556 538 571 Q 513 590 495 596 Q 483 600 476 595 Q 469 591 473 578 Q 485 556 483 541 Q 480 514 477 485 L 471 442 Q 464 394 455 341 C 450 311 483 320 490 349 Z"/>
  <path id="z37158d8" d="M 219 294 Q 174 288 137 284 Q 125 283 122 276 Q 119 266 133 255 Q 170 228 209 241 Q 371 293 553 317 Q 569 318 569 326 Q 570 338 554 347 Q 530 356 490 349 L 455 341 Q 421 334 392 327 L 363 321 Q 342 317 325 313 L 297 307 Q 269 304 251 299 L 219 294 Z"/>
  <path id="z37158d9" d="M 165 196 Q 138 138 103 85 Q 82 55 98 24 Q 105 8 124 18 Q 175 55 186 143 Q 192 173 187 195 Q 183 204 177 205 Q 170 204 165 196 Z"/>
  <path id="z37158d10" d="M 253 177 Q 265 123 284 93 Q 293 86 305 90 Q 314 97 318 109 Q 322 136 278 197 L 277 198 Q 267 208 260 209 Q 256 210 252 201 Q 248 192 253 177 Z"/>
  <path id="z37158d11" d="M 361 195 Q 382 138 401 118 Q 411 111 421 118 Q 428 125 431 137 Q 431 174 380 217 Q 370 224 363 225 Q 359 226 357 217 Q 354 208 361 195 Z"/>
  <path id="z37158d12" d="M 474 199 Q 496 171 521 139 Q 530 126 542 124 Q 551 123 557 133 Q 564 143 561 169 Q 560 188 534 208 Q 474 247 460 243 Q 456 240 455 229 Q 456 220 474 199 Z"/>
  <path id="z37158d13" d="M 701 610 Q 705 614 789 648 Q 795 651 806 645 Q 818 638 810 615 Q 786 531 774 508 Q 768 496 769 489 Q 769 476 790 465 Q 869 426 879 326 Q 879 287 862 263 Q 849 254 822 260 Q 782 269 747 275 Q 738 276 739 269 Q 740 262 756 250 Q 829 204 845 176 Q 852 163 864 160 Q 876 159 891 169 Q 933 226 941 295 Q 945 343 915 392 Q 887 440 835 476 Q 813 488 813 502 Q 810 517 862 588 Q 881 618 904 631 Q 934 650 906 669 Q 866 699 840 709 Q 821 713 807 704 Q 786 685 688 644 Q 687 644 687 643 C 660 631 674 597 701 610 Z"/>
  <path id="z37158d14" d="M 687 643 Q 656 664 641 666 Q 628 670 612 661 Q 603 652 611 642 Q 635 585 637 569 Q 637 -23 646 -52 Q 649 -62 654 -69 Q 660 -76 667 -74 Q 685 -62 688 -4 Q 697 81 693 167 Q 692 200 691 543 Q 691 570 701 610 C 706 631 706 631 687 643 Z"/>
<defs>
  <clipPath id="z37158c1"><use href="#z37158d1"/></clipPath>
  <clipPath id="z37158c2"><use href="#z37158d2"/></clipPath>
  <clipPath id="z37158c3"><use href="#z37158d3"/></clipPath>
  <clipPath id="z37158c4"><use href="#z37158d4"/></clipPath>
  <clipPath id="z37158c5"><use href="#z37158d5"/></clipPath>
  <clipPath id="z37158c6"><use href="#z37158d6"/></clipPath>
  <clipPath id="z37158c7"><use href="#z37158d7"/></clipPath>
  <clipPath id="z37158c8"><use href="#z37158d8"/></clipPath>
  <clipPath id="z37158c9"><use href="#z37158d9"/></clipPath>
  <clipPath id="z37158c10"><use href="#z37158d10"/></clipPath>
  <clipPath id="z37158c11"><use href="#z37158d11"/></clipPath>
  <clipPath id="z37158c12"><use href="#z37158d12"/></clipPath>
  <clipPath id="z37158c13"><use href="#z37158d13"/></clipPath>
  <clipPath id="z37158c14"><use href="#z37158d14"/></clipPath>
</defs>
<path style="--d:1s;" pathLength="3333" clip-path="url(#z37158c1)" d="M 283 828 L 310 795 L 301 758 L 242 651 L 162 557"/>
<path style="--d:2s;" pathLength="3333" clip-path="url(#z37158c2)" d="M 273 650 L 339 658 L 496 701 L 533 703"/>
<path style="--d:3s;" pathLength="3333" clip-path="url(#z37158c3)" d="M 104 409 L 149 403 L 210 412 L 540 477 L 591 470"/>
<path style="--d:4s;" pathLength="3333" clip-path="url(#z37158c4)" d="M 158 522 L 191 499 L 197 485 L 233 311 L 244 306"/>
<path style="--d:5s;" pathLength="3333" clip-path="url(#z37158c5)" d="M 261 553 L 292 530 L 310 335 L 303 315"/>
<path style="--d:6s;" pathLength="3333" clip-path="url(#z37158c6)" d="M 359 573 L 389 547 L 379 339 L 369 329"/>
<path style="--d:7s;" pathLength="3333" clip-path="url(#z37158c7)" d="M 484 585 L 514 547 L 479 375 L 460 348"/>
<path style="--d:8s;" pathLength="3333" clip-path="url(#z37158c8)" d="M 132 272 L 164 263 L 195 264 L 500 331 L 558 329"/>
<path style="--d:9s;" pathLength="3333" clip-path="url(#z37158c9)" d="M 176 194 L 155 119 L 113 30"/>
<path style="--d:10s;" pathLength="3333" clip-path="url(#z37158c10)" d="M 261 200 L 298 105"/>
<path style="--d:11s;" pathLength="3333" clip-path="url(#z37158c11)" d="M 365 217 L 396 170 L 411 131"/>
<path style="--d:12s;" pathLength="3333" clip-path="url(#z37158c12)" d="M 463 234 L 523 182 L 543 139"/>
<path style="--d:13s;" pathLength="3333" clip-path="url(#z37158c13)" d="M 692 639 L 701 642 L 712 635 L 791 669 L 827 674 L 855 650 L 795 512 L 792 491 L 871 418 L 897 373 L 910 324 L 902 266 L 892 242 L 869 218 L 746 268"/>
<path style="--d:14s;" pathLength="3333" clip-path="url(#z37158c14)" d="M 620 651 L 658 620 L 665 578 L 663 -64"/>
</svg>