<svg id="z31672" class="acjk" viewBox="0 0 1024 1024" xmlns="http://www.w3.org/2000/svg">
<style>
<![CDATA[
@keyframes zk {
	to {
		stroke-dashoffset:0;
	}
}
svg.acjk path[clip-path] {
	--t:0.8s;
	animation:zk var(--t) linear forwards var(--d);
	stroke-dasharray:3337;
	stroke-dashoffset:3339;
	stroke-width:128;
	stroke-linecap:round;
	stroke-linejoin:round;
	fill:none;
	stroke:#000;
}
svg.acjk path[id] {fill:#ccc;}
]]>
</style>
  <path id="z31672d1" d="M 339 734 Q 351 756 364 775 Q 373 788 358 800 Q 319 828 294 823 Q 284 820 287 807 Q 305 735 231 636 Q 225 635 200 595 Q 193 582 207 586 Q 220 589 239 604 Q 297 653 327 711 L 339 734 Z"/>
  <path id="z31672d2" d="M 327 711 Q 363 693 412 705 Q 449 712 490 720 Q 509 724 511 726 Q 520 733 515 741 Q 508 751 482 758 Q 467 761 387 742 Q 363 738 339 734 C 309 729 300 724 327 711 Z"/>
  <path id="z31672d3" d="M 347 632 Q 360 619 374 601 Q 384 591 397 591 Q 404 591 409 601 Q 413 611 408 635 Q 401 657 345 669 Q 333 672 328 670 Q 324 667 325 658 Q 326 649 347 632 Z"/>
  <path id="z31672d4" d="M 616 754 Q 632 782 647 805 Q 654 817 642 829 Q 600 856 580 851 Q 570 848 573 836 Q 588 767 518 673 Q 500 651 492 639 Q 486 626 499 630 Q 512 631 529 647 Q 577 687 604 734 L 616 754 Z"/>
  <path id="z31672d5" d="M 604 734 Q 647 713 696 724 Q 807 746 811 750 Q 818 757 815 765 Q 808 775 782 782 Q 754 788 727 776 Q 673 761 616 754 C 586 750 577 747 604 734 Z"/>
  <path id="z31672d6" d="M 656 655 Q 680 642 705 624 Q 718 617 731 619 Q 738 620 741 632 Q 742 645 731 667 Q 724 682 698 688 Q 638 698 627 691 Q 624 687 627 677 Q 631 668 656 655 Z"/>
  <path id="z31672d7" d="M 527 501 Q 552 507 580 511 Q 613 518 618 522 Q 627 529 623 537 Q 616 547 590 555 Q 562 562 535 551 Q 534 551 534 550 L 471 533 Q 393 521 357 518 Q 323 514 347 497 Q 380 476 448 488 Q 460 491 474 491 L 527 501 Z"/>
  <path id="z31672d8" d="M 517 402 Q 521 453 527 501 L 534 550 Q 535 554 536 559 Q 539 569 542 576 Q 545 586 527 599 Q 496 615 475 620 Q 462 623 454 615 Q 447 608 455 595 Q 468 577 469 565 Q 470 550 471 533 L 474 491 Q 477 448 477 398 C 477 368 515 372 517 402 Z"/>
  <path id="z31672d9" d="M 570 374 Q 642 380 892 380 Q 914 380 919 389 Q 925 402 907 417 Q 852 459 811 451 Q 732 436 612 415 L 534 404 Q 525 404 517 402 L 477 398 Q 317 380 134 360 Q 112 357 128 339 Q 143 324 162 318 Q 184 312 202 317 Q 353 357 496 367 L 570 374 Z"/>
  <path id="z31672d10" d="M 469 288 Q 523 333 570 374 L 612 415 Q 663 475 713 513 Q 723 523 720 541 Q 711 575 697 592 Q 685 608 668 613 Q 652 617 651 594 Q 650 587 652 575 Q 649 524 534 404 L 496 367 Q 453 330 398 286 L 372 266 Q 371 266 370 265 Q 252 180 108 104 Q 101 101 98 94 Q 97 88 102 87 Q 136 83 267 150 Q 357 204 381 220 L 469 288 Z"/>
  <path id="z31672d11" d="M 398 286 Q 379 292 371 289 Q 365 285 370 274 Q 371 271 372 266 L 381 220 Q 384 114 375 68 Q 362 16 395 -23 Q 404 -35 414 -24 Q 426 -9 426 13 L 427 47 Q 428 50 428 53 Q 429 102 430 138 L 430 167 Q 431 227 434 232 Q 435 245 434 253 L 398 286 Z"/>
  <path id="z31672d12" d="M 583 21 Q 608 -9 626 -38 Q 635 -54 645 -53 Q 660 -52 673 -21 Q 688 13 684 56 Q 677 111 667 214 Q 666 242 680 262 Q 689 274 680 283 Q 664 301 616 321 Q 600 330 586 321 Q 552 305 496 294 Q 481 293 469 288 C 401 269 404 249 434 253 Q 443 253 576 275 Q 594 278 603 270 Q 618 255 619 58 L 619 56 Q 615 40 598 47 Q 592 51 582 55 C 555 68 564 44 583 21 Z"/>
  <path id="z31672d13" d="M 430 138 Q 509 147 569 152 Q 593 155 585 168 Q 575 183 550 189 Q 520 195 430 167 C 401 158 400 135 430 138 Z"/>
  <path id="z31672d14" d="M 426 13 Q 432 12 439 13 Q 485 20 583 21 C 613 21 607 38 582 55 Q 576 59 574 61 Q 558 71 527 65 Q 472 53 427 47 C 397 43 396 16 426 13 Z"/>
<defs>
  <clipPath id="z31672c1"><use href="#z31672d1"/></clipPath>
  <clipPath id="z31672c2"><use href="#z31672d2"/></clipPath>
  <clipPath id="z31672c3"><use href="#z31672d3"/></clipPath>
  <clipPath id="z31672c4"><use href="#z31672d4"/></clipPath>
  <clipPath id="z31672c5"><use href="#z31672d5"/></clipPath>
  <clipPath id="z31672c6"><use href="#z31672d6"/></clipPath>
  <clipPath id="z31672c7"><use href="#z31672d7"/></clipPath>
  <clipPath id="z31672c8"><use href="#z31672d8"/></clipPath>
  <clipPath id="z31672c9"><use href="#z31672d9"/></clipPath>
  <clipPath id="z31672c10"><use href="#z31672d10"/></clipPath>
  <clipPath id="z31672c11"><use href="#z31672d11"/></clipPath>
  <clipPath id="z31672c12"><use href="#z31672d12"/></clipPath>
  <clipPath id="z31672c13"><use href="#z31672d13"/></clipPath>
  <clipPath id="z31672c14"><use href="#z31672d14"/></clipPath>
</defs>
<path style="--d:1s;" pathLength="3333" clip-path="url(#z31672c1)" d="M 297 812 L 325 779 L 313 740 L 267 655 L 209 595"/>
<path style="--d:2s;" pathLength="3333" clip-path="url(#z31672c2)" d="M 335 714 L 473 738 L 504 736"/>
<path style="--d:3s;" pathLength="3333" clip-path="url(#z31672c3)" d="M 332 663 L 385 627 L 394 607"/>
<path style="--d:4s;" pathLength="3333" clip-path="url(#z31672c4)" d="M 583 841 L 609 809 L 593 761 L 546 684 L 501 639"/>
<path style="--d:5s;" pathLength="3333" clip-path="url(#z31672c5)" d="M 613 735 L 625 742 L 705 746 L 762 761 L 805 760"/>
<path style="--d:6s;" pathLength="3333" clip-path="url(#z31672c6)" d="M 633 684 L 707 656 L 727 633"/>
<path style="--d:7s;" pathLength="3333" clip-path="url(#z31672c7)" d="M 349 509 L 378 502 L 419 504 L 559 533 L 612 532"/>
<path style="--d:8s;" pathLength="3333" clip-path="url(#z31672c8)" d="M 465 606 L 503 572 L 498 426 L 483 406"/>
<path style="--d:9s;" pathLength="3333" clip-path="url(#z31672c9)" d="M 132 349 L 184 340 L 352 368 L 821 416 L 870 409 L 907 396"/>
<path style="--d:10s;" pathLength="3333" clip-path="url(#z31672c10)" d="M 665 599 L 679 572 L 682 537 L 590 427 L 508 348 L 375 241 L 267 171 L 177 123 L 105 94"/>
<path style="--d:11s;" pathLength="3333" clip-path="url(#z31672c11)" d="M 377 281 L 391 269 L 406 239 L 399 42 L 405 -19"/>
<path style="--d:12s;" pathLength="3333" clip-path="url(#z31672c12)" d="M 435 259 L 480 276 L 601 299 L 639 273 L 652 46 L 639 15 L 602 27 L 585 49"/>
<path style="--d:13s;" pathLength="3333" clip-path="url(#z31672c13)" d="M 438 145 L 447 157 L 515 168 L 552 170 L 574 163"/>
<path style="--d:14s;" pathLength="3333" clip-path="url(#z31672c14)" d="M 433 18 L 449 33 L 552 44 L 566 38 L 573 26"/>
</svg>