<svg id="z30622" class="acjk" viewBox="0 0 1024 1024" xmlns="http://www.w3.org/2000/svg">
<style>
<![CDATA[
@keyframes zk {
	to {
		stroke-dashoffset:0;
	}
}
svg.acjk path[clip-path] {
	--t:0.8s;
	animation:zk var(--t) linear forwards var(--d);
	stroke-dasharray:3337;
	stroke-dashoffset:3339;
	stroke-width:128;
	stroke-linecap:round;
	stroke-linejoin:round;
	fill:none;
	stroke:#000;
}
svg.acjk path[id] {fill:#ccc;}
]]>
</style>
  <path id="z30622d1" d="M 146 676 Q 134 691 106 700 Q 97 704 86 701 Q 79 697 85 684 Q 88 671 93 658 Q 126 595 107 281 Q 101 236 89 183 Q 77 132 110 89 Q 120 76 130 88 Q 142 103 142 122 L 145 151 Q 145 169 146 315 L 146 349 Q 147 416 148 467 L 148 499 Q 148 644 152 649 C 154 669 154 669 146 676 Z"/>
  <path id="z30622d2" d="M 236 135 Q 246 117 259 100 Q 274 78 281 80 Q 294 83 311 121 Q 327 164 321 219 Q 294 607 322 660 Q 332 676 324 686 Q 317 696 271 710 Q 249 717 233 709 Q 185 687 146 676 C 117 667 123 641 152 649 Q 242 673 251 668 L 252 667 Q 268 651 268 587 Q 269 323 256 179 Q 257 172 255 166 C 253 136 221 159 236 135 Z"/>
  <path id="z30622d3" d="M 148 467 Q 194 476 230 484 Q 252 490 242 501 Q 230 514 206 515 Q 184 515 148 499 C 121 487 119 461 148 467 Z"/>
  <path id="z30622d4" d="M 146 315 Q 188 324 221 328 Q 243 334 234 345 Q 222 358 198 360 Q 179 361 146 349 C 118 339 117 309 146 315 Z"/>
  <path id="z30622d5" d="M 142 122 Q 193 131 236 135 C 266 138 283 155 255 166 Q 248 169 241 170 Q 210 174 145 151 C 117 141 112 117 142 122 Z"/>
  <path id="z30622d6" d="M 706 661 Q 755 667 818 670 Q 839 670 856 671 Q 872 672 876 680 Q 880 690 866 700 Q 820 733 753 712 Q 735 709 716 702 L 658 688 Q 580 676 541 665 L 498 657 Q 437 647 373 635 Q 357 632 370 619 Q 395 597 427 606 Q 463 618 502 627 L 542 635 Q 579 647 654 655 L 706 661 Z"/>
  <path id="z30622d7" d="M 541 665 Q 541 744 540 746 Q 537 747 537 748 Q 524 758 501 766 Q 483 770 467 762 Q 458 755 470 744 Q 488 711 498 657 L 502 627 Q 515 500 522 489 Q 528 480 534 486 Q 537 489 541 506 L 544 535 Q 544 589 542 635 L 541 665 Z"/>
  <path id="z30622d8" d="M 680 561 Q 693 613 706 661 L 716 702 Q 725 753 745 784 Q 749 794 733 811 Q 703 833 681 841 Q 666 845 658 839 Q 649 833 655 818 Q 668 793 666 778 Q 663 735 658 688 L 654 655 Q 648 610 640 560 C 635 530 673 532 680 561 Z"/>
  <path id="z30622d9" d="M 597 514 Q 636 523 699 529 Q 708 530 708 538 Q 709 545 682 561 L 680 561 L 640 560 Q 586 545 544 535 C 515 528 511 508 541 506 Q 548 505 557 507 Q 561 508 568 509 L 597 514 Z"/>
  <path id="z30622d10" d="M 416 384 Q 413 388 408 390 Q 383 400 368 400 Q 358 396 362 386 Q 405 308 373 161 Q 349 104 381 71 Q 388 59 396 65 Q 424 86 423 176 Q 422 308 423 349 C 424 379 424 379 416 384 Z"/>
  <path id="z30622d11" d="M 621 397 Q 669 409 799 423 Q 811 424 816 418 Q 823 414 827 375 Q 842 219 828 129 Q 824 98 797 100 Q 767 107 741 114 Q 728 120 726 113 Q 725 106 735 93 Q 801 29 817 -3 Q 827 -16 837 -14 Q 850 -11 861 13 Q 891 71 894 236 Q 894 393 904 414 Q 920 436 906 440 Q 890 456 852 469 Q 827 482 803 471 Q 779 462 715 451 Q 664 444 622 434 L 582 426 Q 552 422 416 384 C 387 376 395 338 423 349 Q 450 364 582 389 L 621 397 Z"/>
  <path id="z30622d12" d="M 582 389 Q 573 172 563 149 Q 554 116 583 74 Q 593 58 599 54 Q 609 53 613 64 Q 623 91 621 117 Q 615 342 621 397 L 622 434 Q 623 464 627 479 Q 630 489 623 495 Q 610 508 597 514 C 571 529 556 537 568 509 Q 577 500 582 426 L 582 389 Z"/>
  <path id="z30622d13" d="M 484 269 Q 490 248 437 194 Q 433 190 430 187 Q 429 183 435 183 Q 451 183 507 228 Q 510 232 514 235 C 536 253 479 299 484 269 Z"/>
  <path id="z30622d14" d="M 514 235 Q 544 199 548 198 Q 552 197 556 201 Q 563 207 558 228 Q 554 258 450 322 Q 446 325 445 319 Q 444 313 484 269 L 514 235 Z"/>
  <path id="z30622d15" d="M 710 295 Q 686 265 647 229 Q 641 226 639 224 Q 636 220 643 218 Q 664 218 732 267 Q 732 268 734 268 C 760 283 729 318 710 295 Z"/>
  <path id="z30622d16" d="M 734 268 Q 786 211 790 209 Q 796 208 800 214 Q 809 221 802 249 Q 798 288 665 362 Q 659 366 658 358 Q 657 349 710 295 L 734 268 Z"/>
<defs>
  <clipPath id="z30622c1"><use href="#z30622d1"/></clipPath>
  <clipPath id="z30622c2"><use href="#z30622d2"/></clipPath>
  <clipPath id="z30622c3"><use href="#z30622d3"/></clipPath>
  <clipPath id="z30622c4"><use href="#z30622d4"/></clipPath>
  <clipPath id="z30622c5"><use href="#z30622d5"/></clipPath>
  <clipPath id="z30622c6"><use href="#z30622d6"/></clipPath>
  <clipPath id="z30622c7"><use href="#z30622d7"/></clipPath>
  <clipPath id="z30622c8"><use href="#z30622d8"/></clipPath>
  <clipPath id="z30622c9"><use href="#z30622d9"/></clipPath>
  <clipPath id="z30622c10"><use href="#z30622d10"/></clipPath>
  <clipPath id="z30622c11"><use href="#z30622d11"/></clipPath>
  <clipPath id="z30622c12"><use href="#z30622d12"/></clipPath>
  <clipPath id="z30622c13"><use href="#z30622d13"/></clipPath>
  <clipPath id="z30622c14"><use href="#z30622d14"/></clipPath>
  <clipPath id="z30622c15"><use href="#z30622d15"/></clipPath>
  <clipPath id="z30622c16"><use href="#z30622d16"/></clipPath>
</defs>
<path style="--d:1s;" pathLength="3333" clip-path="url(#z30622c1)" d="M 92 693 L 122 659 L 132 563 L 128 278 L 115 159 L 120 93"/>
<path style="--d:2s;" pathLength="3333" clip-path="url(#z30622c2)" d="M 155 671 L 164 665 L 253 691 L 274 683 L 289 669 L 291 209 L 287 159 L 278 135 L 280 90"/>
<path style="--d:3s;" pathLength="3333" clip-path="url(#z30622c3)" d="M 155 472 L 160 483 L 178 492 L 202 497 L 234 494"/>
<path style="--d:4s;" pathLength="3333" clip-path="url(#z30622c4)" d="M 153 321 L 159 332 L 173 339 L 224 339"/>
<path style="--d:5s;" pathLength="3333" clip-path="url(#z30622c5)" d="M 150 129 L 159 141 L 225 152 L 247 164"/>
<path style="--d:6s;" pathLength="3333" clip-path="url(#z30622c6)" d="M 372 627 L 406 622 L 616 667 L 793 694 L 818 695 L 866 684"/>
<path style="--d:7s;" pathLength="3333" clip-path="url(#z30622c7)" d="M 474 754 L 499 741 L 513 717 L 529 492"/>
<path style="--d:8s;" pathLength="3333" clip-path="url(#z30622c8)" d="M 668 827 L 687 811 L 703 783 L 666 588 L 647 566"/>
<path style="--d:9s;" pathLength="3333" clip-path="url(#z30622c9)" d="M 545 513 L 558 523 L 637 541 L 681 544 L 699 538"/>
<path style="--d:10s;" pathLength="3333" clip-path="url(#z30622c10)" d="M 373 390 L 395 370 L 405 300 L 404 210 L 390 73"/>
<path style="--d:11s;" pathLength="3333" clip-path="url(#z30622c11)" d="M 424 355 L 436 373 L 647 422 L 817 448 L 849 433 L 862 420 L 866 249 L 861 149 L 849 89 L 828 60 L 752 94 L 734 110"/>
<path style="--d:12s;" pathLength="3333" clip-path="url(#z30622c12)" d="M 575 510 L 602 478 L 591 138 L 601 63"/>
<path style="--d:13s;" pathLength="3333" clip-path="url(#z30622c13)" d="M 488 255 L 490 231 L 463 205 L 435 189"/>
<path style="--d:14s;" pathLength="3333" clip-path="url(#z30622c14)" d="M 449 318 L 461 315 L 465 300 L 478 296 L 481 284 L 494 280 L 528 245 L 548 218 L 550 205"/>
<path style="--d:15s;" pathLength="3333" clip-path="url(#z30622c15)" d="M 710 287 L 708 270 L 698 259 L 645 224"/>
<path style="--d:16s;" pathLength="3333" clip-path="url(#z30622c16)" d="M 663 357 L 674 353 L 683 338 L 708 322 L 765 268 L 787 238 L 793 215"/>
</svg>