<svg id="z34597" class="acjk" viewBox="0 0 1024 1024" xmlns="http://www.w3.org/2000/svg">
<style>
<![CDATA[
@keyframes zk {
	to {
		stroke-dashoffset:0;
	}
}
svg.acjk path[clip-path] {
	--t:0.8s;
	animation:zk var(--t) linear forwards var(--d);
	stroke-dasharray:3337;
	stroke-dashoffset:3339;
	stroke-width:128;
	stroke-linecap:round;
	stroke-linejoin:round;
	fill:none;
	stroke:#000;
}
svg.acjk path[id] {fill:#ccc;}
]]>
</style>
  <path id="z34597d1" d="M 118 510 Q 108 514 75 519 Q 65 520 62 516 Q 58 512 65 498 Q 95 438 111 375 Q 115 351 130 337 Q 146 319 149 333 Q 150 342 151 354 L 147 384 Q 131 454 125 481 C 119 510 119 510 118 510 Z"/>
  <path id="z34597d2" d="M 332 421 Q 353 487 380 505 Q 393 521 381 536 Q 321 578 288 565 Q 263 555 241 544 L 197 530 Q 157 520 118 510 C 89 503 96 472 125 481 Q 152 490 198 501 L 241 512 Q 257 516 275 521 Q 293 525 300 519 Q 307 512 306 497 Q 299 457 290 424 C 282 395 323 393 332 421 Z"/>
  <path id="z34597d3" d="M 238 374 Q 281 384 343 393 Q 352 394 353 402 Q 353 409 332 421 L 290 424 Q 286 424 285 423 Q 261 416 239 408 L 199 397 Q 171 390 147 384 C 118 377 122 347 151 354 Q 178 360 199 365 L 238 374 Z"/>
  <path id="z34597d4" d="M 236 263 Q 237 321 238 374 L 239 408 Q 240 460 241 512 L 241 544 Q 241 608 259 717 Q 262 727 242 741 Q 208 759 184 762 Q 168 765 160 756 Q 153 749 161 734 Q 191 694 191 665 Q 195 601 197 530 L 198 501 Q 199 452 199 397 L 199 365 Q 198 310 196 249 C 195 219 235 233 236 263 Z"/>
  <path id="z34597d5" d="M 289 282 Q 262 275 236 263 L 196 249 Q 147 234 96 216 Q 83 212 59 211 Q 47 208 46 199 Q 45 187 54 180 Q 75 167 106 152 Q 116 149 126 158 Q 144 176 272 247 Q 285 254 296 263 C 320 281 318 290 289 282 Z"/>
  <path id="z34597d6" d="M 296 263 Q 309 233 322 199 Q 326 186 336 182 Q 343 179 350 185 Q 357 192 361 214 Q 362 224 359 237 L 354 247 Q 311 310 293 310 Q 289 309 285 301 Q 284 297 289 282 L 296 263 Z"/>
  <path id="z34597d7" d="M 527 497 Q 548 506 572 512 Q 594 519 598 524 Q 605 531 600 538 Q 593 548 567 551 Q 545 552 528 545 L 488 527 Q 434 509 396 501 Q 365 492 389 480 Q 422 468 473 480 L 527 497 Z"/>
  <path id="z34597d8" d="M 483 402 Q 479 216 463 149 Q 445 76 469 28 Q 469 27 470 25 Q 476 9 483 5 Q 489 -1 496 6 Q 503 10 513 30 Q 523 54 522 83 Q 521 123 525 408 L 525 434 Q 526 465 527 497 L 528 545 Q 528 677 548 749 Q 557 762 554 776 Q 547 785 495 817 Q 473 833 454 819 Q 450 815 455 800 Q 485 752 487 676 Q 487 603 488 527 L 483 402 Z"/>
  <path id="z34597d9" d="M 359 237 Q 377 237 444 333 Q 465 364 483 402 C 533 506 482 509 473 480 Q 449 399 354 247 C 344 231 344 231 359 237 Z"/>
  <path id="z34597d10" d="M 525 408 Q 564 357 581 355 Q 591 354 597 367 Q 598 377 593 393 Q 586 406 567 416 Q 539 432 526 434 L 525 434 C 503 437 507 432 525 408 Z"/>
  <path id="z34597d11" d="M 690 566 Q 765 608 800 630 Q 819 643 842 652 Q 864 659 854 677 Q 844 693 819 709 Q 798 724 786 722 Q 773 721 777 709 Q 777 682 699 602 Q 690 593 681 583 C 661 561 664 551 690 566 Z"/>
  <path id="z34597d12" d="M 682 456 Q 683 471 684 528 Q 685 541 687 554 Q 690 561 690 566 C 692 576 692 576 681 583 Q 665 595 641 602 Q 623 609 613 604 Q 603 597 610 585 Q 623 567 629 514 Q 629 508 630 501 Q 637 381 617 287 Q 601 218 552 116 Q 548 110 547 104 Q 546 94 554 97 Q 590 110 640 224 Q 643 231 646 239 Q 671 314 681 428 L 682 456 Z"/>
  <path id="z34597d13" d="M 820 444 Q 826 448 937 465 Q 950 468 951 475 Q 951 487 928 502 Q 891 523 827 495 Q 796 486 682 456 C 653 448 651 429 681 428 Q 696 427 759 432 L 820 444 Z"/>
  <path id="z34597d14" d="M 779 -32 Q 783 -56 790 -65 Q 796 -72 803 -70 Q 816 -61 823 -5 Q 830 53 828 111 Q 822 333 839 413 Q 842 429 828 439 Q 824 442 820 444 C 796 462 750 461 759 432 Q 771 405 775 321 Q 775 0 779 -32 Z"/>
<defs>
  <clipPath id="z34597c1"><use href="#z34597d1"/></clipPath>
  <clipPath id="z34597c2"><use href="#z34597d2"/></clipPath>
  <clipPath id="z34597c3"><use href="#z34597d3"/></clipPath>
  <clipPath id="z34597c4"><use href="#z34597d4"/></clipPath>
  <clipPath id="z34597c5"><use href="#z34597d5"/></clipPath>
  <clipPath id="z34597c6"><use href="#z34597d6"/></clipPath>
  <clipPath id="z34597c7"><use href="#z34597d7"/></clipPath>
  <clipPath id="z34597c8"><use href="#z34597d8"/></clipPath>
  <clipPath id="z34597c9"><use href="#z34597d9"/></clipPath>
  <clipPath id="z34597c10"><use href="#z34597d10"/></clipPath>
  <clipPath id="z34597c11"><use href="#z34597d11"/></clipPath>
  <clipPath id="z34597c12"><use href="#z34597d12"/></clipPath>
  <clipPath id="z34597c13"><use href="#z34597d13"/></clipPath>
  <clipPath id="z34597c14"><use href="#z34597d14"/></clipPath>
</defs>
<path style="--d:1s;" pathLength="3333" clip-path="url(#z34597c1)" d="M 70 511 L 100 483 L 140 336"/>
<path style="--d:2s;" pathLength="3333" clip-path="url(#z34597c2)" d="M 129 490 L 141 501 L 290 544 L 311 542 L 341 519 L 317 444 L 297 429"/>
<path style="--d:3s;" pathLength="3333" clip-path="url(#z34597c3)" d="M 156 362 L 169 374 L 291 405 L 344 402"/>
<path style="--d:4s;" pathLength="3333" clip-path="url(#z34597c4)" d="M 173 746 L 219 710 L 221 693 L 217 277 L 201 256"/>
<path style="--d:5s;" pathLength="3333" clip-path="url(#z34597c5)" d="M 60 197 L 109 186 L 255 252 L 281 267 L 284 275"/>
<path style="--d:6s;" pathLength="3333" clip-path="url(#z34597c6)" d="M 294 301 L 331 241 L 340 197"/>
<path style="--d:7s;" pathLength="3333" clip-path="url(#z34597c7)" d="M 390 491 L 461 497 L 550 529 L 589 532"/>
<path style="--d:8s;" pathLength="3333" clip-path="url(#z34597c8)" d="M 465 813 L 512 761 L 503 298 L 488 103 L 489 17"/>
<path style="--d:9s;" pathLength="3333" clip-path="url(#z34597c9)" d="M 481 478 L 461 400 L 401 295 L 360 244"/>
<path style="--d:10s;" pathLength="3333" clip-path="url(#z34597c10)" d="M 526 428 L 569 390 L 582 369"/>
<path style="--d:11s;" pathLength="3333" clip-path="url(#z34597c11)" d="M 790 710 L 803 673 L 703 589 L 697 575"/>
<path style="--d:12s;" pathLength="3333" clip-path="url(#z34597c12)" d="M 620 593 L 655 561 L 653 372 L 639 287 L 619 220 L 572 126 L 555 105"/>
<path style="--d:13s;" pathLength="3333" clip-path="url(#z34597c13)" d="M 685 435 L 699 445 L 746 450 L 860 480 L 905 485 L 942 477"/>
<path style="--d:14s;" pathLength="3333" clip-path="url(#z34597c14)" d="M 767 431 L 802 403 L 799 -61"/>
</svg>