<svg id="z31557" class="acjk" viewBox="0 0 1024 1024" xmlns="http://www.w3.org/2000/svg">
<style>
<![CDATA[
@keyframes zk {
	to {
		stroke-dashoffset:0;
	}
}
svg.acjk path[clip-path] {
	--t:0.8s;
	animation:zk var(--t) linear forwards var(--d);
	stroke-dasharray:3337;
	stroke-dashoffset:3339;
	stroke-width:128;
	stroke-linecap:round;
	stroke-linejoin:round;
	fill:none;
	stroke:#000;
}
svg.acjk path[id] {fill:#ccc;}
]]>
</style>
  <path id="z31557d1" d="M 312 708 Q 330 738 346 762 Q 356 775 342 787 Q 303 818 278 813 Q 268 812 270 797 Q 285 698 185 597 Q 169 579 161 567 Q 154 554 167 558 Q 183 561 203 577 Q 264 626 300 687 L 312 708 Z"/>
  <path id="z31557d2" d="M 300 687 Q 333 669 422 688 Q 444 692 468 697 Q 487 701 491 704 Q 498 711 495 718 Q 488 728 463 734 Q 438 738 412 728 Q 390 721 365 716 Q 340 712 312 708 C 282 704 273 700 300 687 Z"/>
  <path id="z31557d3" d="M 342 598 Q 391 556 402 557 Q 409 558 413 568 Q 417 580 409 603 Q 400 622 337 635 Q 324 636 320 635 Q 316 631 318 621 Q 321 614 342 598 Z"/>
  <path id="z31557d4" d="M 605 737 Q 605 738 606 738 Q 625 772 644 802 Q 654 815 639 828 Q 596 858 572 852 Q 562 849 565 836 Q 581 764 507 664 Q 495 652 476 624 Q 469 608 484 614 Q 497 617 516 632 Q 565 672 595 719 L 605 737 Z"/>
  <path id="z31557d5" d="M 595 719 Q 596 719 599 717 Q 632 699 701 712 Q 812 736 815 738 Q 824 745 819 753 Q 812 763 785 770 Q 758 774 731 764 Q 704 755 676 748 Q 645 741 608 738 Q 605 738 605 737 C 576 731 572 731 595 719 Z"/>
  <path id="z31557d6" d="M 643 608 Q 665 589 690 564 Q 702 552 715 553 Q 725 553 729 565 Q 733 578 726 603 Q 722 619 695 633 Q 635 657 620 651 Q 616 647 617 636 Q 620 626 643 608 Z"/>
  <path id="z31557d7" d="M 363 445 Q 381 475 394 486 Q 401 495 398 505 Q 394 515 372 532 Q 351 545 337 545 Q 324 544 329 526 Q 336 514 333 503 Q 312 437 257 356 Q 250 349 247 343 Q 246 334 256 337 Q 284 341 350 428 L 363 445 Z"/>
  <path id="z31557d8" d="M 523 426 Q 569 436 619 444 Q 659 453 666 458 Q 675 465 670 473 Q 664 483 638 491 Q 610 498 583 487 Q 555 480 527 471 L 472 458 Q 420 451 365 446 Q 364 446 363 445 C 335 440 335 440 350 428 Q 377 401 457 416 Q 463 417 473 418 L 523 426 Z"/>
  <path id="z31557d9" d="M 512 331 Q 516 380 523 426 L 527 471 Q 530 507 536 527 Q 540 537 542 546 Q 546 556 528 570 Q 497 588 474 592 Q 459 595 452 587 Q 445 580 452 567 Q 467 546 468 532 Q 469 498 472 458 L 473 418 Q 473 375 473 325 C 473 295 509 301 512 331 Z"/>
  <path id="z31557d10" d="M 559 301 Q 647 310 803 309 Q 822 309 827 318 Q 833 328 816 342 Q 765 379 729 371 Q 647 353 512 331 L 473 325 Q 338 307 180 285 Q 159 284 175 267 Q 188 254 206 249 Q 225 243 242 248 Q 368 284 510 296 L 559 301 Z"/>
  <path id="z31557d11" d="M 372 250 Q 372 160 274 72 Q 271 72 270 69 Q 243 44 178 1 Q 169 -6 175 -9 Q 182 -13 193 -9 Q 313 18 398 143 Q 410 170 440 205 Q 449 212 445 223 Q 441 233 414 253 Q 395 266 385 266 Q 372 265 372 250 Z"/>
  <path id="z31557d12" d="M 912 61 Q 897 86 874 166 Q 873 182 865 186 Q 858 189 856 171 Q 835 84 820 56 Q 789 20 678 25 Q 636 28 603 43 Q 575 56 567 75 Q 549 114 576 265 Q 579 284 559 301 C 540 325 502 325 510 296 Q 510 295 511 293 Q 524 254 520 218 Q 507 59 538 20 Q 560 -2 612 -21 Q 783 -66 908 17 Q 927 35 912 61 Z"/>
<defs>
  <clipPath id="z31557c1"><use href="#z31557d1"/></clipPath>
  <clipPath id="z31557c2"><use href="#z31557d2"/></clipPath>
  <clipPath id="z31557c3"><use href="#z31557d3"/></clipPath>
  <clipPath id="z31557c4"><use href="#z31557d4"/></clipPath>
  <clipPath id="z31557c5"><use href="#z31557d5"/></clipPath>
  <clipPath id="z31557c6"><use href="#z31557d6"/></clipPath>
  <clipPath id="z31557c7"><use href="#z31557d7"/></clipPath>
  <clipPath id="z31557c8"><use href="#z31557d8"/></clipPath>
  <clipPath id="z31557c9"><use href="#z31557d9"/></clipPath>
  <clipPath id="z31557c10"><use href="#z31557d10"/></clipPath>
  <clipPath id="z31557c11"><use href="#z31557d11"/></clipPath>
  <clipPath id="z31557c12"><use href="#z31557d12"/></clipPath>
</defs>
<path style="--d:1s;" pathLength="3333" clip-path="url(#z31557c1)" d="M 280 802 L 308 768 L 278 692 L 222 613 L 170 567"/>
<path style="--d:2s;" pathLength="3333" clip-path="url(#z31557c2)" d="M 307 690 L 321 696 L 370 697 L 435 713 L 484 713"/>
<path style="--d:3s;" pathLength="3333" clip-path="url(#z31557c3)" d="M 324 627 L 385 594 L 401 569"/>
<path style="--d:4s;" pathLength="3333" clip-path="url(#z31557c4)" d="M 575 841 L 604 807 L 586 757 L 533 669 L 486 624"/>
<path style="--d:5s;" pathLength="3333" clip-path="url(#z31557c5)" d="M 599 723 L 671 726 L 766 749 L 810 747"/>
<path style="--d:6s;" pathLength="3333" clip-path="url(#z31557c6)" d="M 625 642 L 688 605 L 715 568"/>
<path style="--d:7s;" pathLength="3333" clip-path="url(#z31557c7)" d="M 338 533 L 364 499 L 328 431 L 276 362 L 254 343"/>
<path style="--d:8s;" pathLength="3333" clip-path="url(#z31557c8)" d="M 358 429 L 443 433 L 607 468 L 658 468"/>
<path style="--d:9s;" pathLength="3333" clip-path="url(#z31557c9)" d="M 464 577 L 503 543 L 494 357 L 478 333"/>
<path style="--d:10s;" pathLength="3333" clip-path="url(#z31557c10)" d="M 177 276 L 232 269 L 423 302 L 729 340 L 766 339 L 815 324"/>
<path style="--d:11s;" pathLength="3333" clip-path="url(#z31557c11)" d="M 385 252 L 404 216 L 377 160 L 342 108 L 261 37 L 180 -5"/>
<path style="--d:12s;" pathLength="3333" clip-path="url(#z31557c12)" d="M 516 296 L 520 287 L 547 270 L 537 141 L 545 66 L 560 37 L 615 8 L 677 -5 L 753 -5 L 808 7 L 845 26 L 867 46 L 864 179"/>
</svg>