<svg id="z35380" class="acjk" viewBox="0 0 1024 1024" xmlns="http://www.w3.org/2000/svg">
<style>
<![CDATA[
@keyframes zk {
	to {
		stroke-dashoffset:0;
	}
}
svg.acjk path[clip-path] {
	--t:0.8s;
	animation:zk var(--t) linear forwards var(--d);
	stroke-dasharray:3337;
	stroke-dashoffset:3339;
	stroke-width:128;
	stroke-linecap:round;
	stroke-linejoin:round;
	fill:none;
	stroke:#000;
}
svg.acjk path[id] {fill:#ccc;}
]]>
</style>
  <path id="z35380d1" d="M 312 806 Q 342 785 373 759 Q 389 746 405 748 Q 417 749 421 764 Q 424 780 412 811 Q 405 830 371 842 Q 293 864 280 855 Q 276 851 278 837 Q 282 827 312 806 Z"/>
  <path id="z35380d2" d="M 73 604 Q 58 603 55 593 Q 52 581 70 569 Q 116 538 161 555 Q 296 604 435 627 Q 454 630 455 638 Q 456 653 435 662 Q 404 675 379 668 Q 178 619 73 604 Z"/>
  <path id="z35380d3" d="M 218 491 Q 200 485 224 472 Q 233 466 250 471 Q 332 493 393 509 Q 417 516 406 528 Q 393 541 366 544 Q 339 544 218 491 Z"/>
  <path id="z35380d4" d="M 221 371 Q 205 365 228 352 Q 237 346 255 351 Q 340 376 405 393 Q 429 400 418 412 Q 405 425 378 428 Q 353 428 311 410 Q 263 388 221 371 Z"/>
  <path id="z35380d5" d="M 216 259 Q 204 265 176 268 Q 164 271 161 266 Q 154 259 164 244 Q 189 195 209 112 Q 213 87 228 71 Q 246 49 251 65 Q 255 78 253 101 L 248 134 Q 233 210 232 232 C 230 253 230 253 216 259 Z"/>
  <path id="z35380d6" d="M 385 154 Q 403 223 424 243 Q 446 268 423 282 Q 404 292 377 310 Q 358 320 340 308 Q 301 280 216 259 C 187 252 204 221 232 232 Q 238 236 320 258 Q 344 264 350 255 Q 356 249 336 162 C 329 133 377 125 385 154 Z"/>
  <path id="z35380d7" d="M 253 101 Q 260 100 272 103 Q 309 113 394 125 Q 404 126 405 136 Q 405 143 385 154 C 359 169 359 169 336 162 Q 332 161 326 159 Q 283 143 248 134 C 219 126 223 102 253 101 Z"/>
  <path id="z35380d8" d="M 590 654 Q 671 681 734 719 Q 780 744 819 758 Q 838 762 840 770 Q 843 782 829 792 Q 760 828 724 821 Q 717 817 718 804 Q 719 771 579 672 C 555 655 562 644 590 654 Z"/>
  <path id="z35380d9" d="M 586 531 Q 586 615 590 644 Q 591 650 590 654 C 591 666 591 666 579 672 Q 525 699 505 694 Q 484 690 502 667 Q 541 612 527 375 Q 518 315 493 242 Q 466 161 378 73 Q 365 60 361 52 Q 360 45 372 46 Q 414 49 485 134 Q 563 230 581 410 Q 584 452 586 501 L 586 531 Z"/>
  <path id="z35380d10" d="M 750 507 Q 820 522 897 536 Q 946 546 954 553 Q 964 562 959 571 Q 952 584 920 592 Q 889 599 855 587 Q 798 568 736 553 Q 667 538 587 532 Q 586 532 586 531 C 556 526 557 509 586 501 Q 637 486 694 496 L 750 507 Z"/>
  <path id="z35380d11" d="M 775 362 Q 775 410 785 466 Q 789 484 774 493 Q 761 502 750 507 C 724 521 683 524 694 496 Q 707 468 717 414 Q 718 297 717 120 Q 714 -49 734 -73 Q 740 -80 747 -78 Q 762 -68 769 -9 Q 770 9 774 333 L 775 362 Z"/>
  <path id="z35380d12" d="M 774 333 Q 841 293 920 235 Q 936 222 949 221 Q 956 221 960 230 Q 967 243 951 275 Q 930 324 775 362 C 746 369 748 348 774 333 Z"/>
<defs>
  <clipPath id="z35380c1"><use href="#z35380d1"/></clipPath>
  <clipPath id="z35380c2"><use href="#z35380d2"/></clipPath>
  <clipPath id="z35380c3"><use href="#z35380d3"/></clipPath>
  <clipPath id="z35380c4"><use href="#z35380d4"/></clipPath>
  <clipPath id="z35380c5"><use href="#z35380d5"/></clipPath>
  <clipPath id="z35380c6"><use href="#z35380d6"/></clipPath>
  <clipPath id="z35380c7"><use href="#z35380d7"/></clipPath>
  <clipPath id="z35380c8"><use href="#z35380d8"/></clipPath>
  <clipPath id="z35380c9"><use href="#z35380d9"/></clipPath>
  <clipPath id="z35380c10"><use href="#z35380d10"/></clipPath>
  <clipPath id="z35380c11"><use href="#z35380d11"/></clipPath>
  <clipPath id="z35380c12"><use href="#z35380d12"/></clipPath>
</defs>
<path style="--d:1s;" pathLength="3333" clip-path="url(#z35380c1)" d="M 285 849 L 376 801 L 403 766"/>
<path style="--d:2s;" pathLength="3333" clip-path="url(#z35380c2)" d="M 68 589 L 125 580 L 375 642 L 444 642"/>
<path style="--d:3s;" pathLength="3333" clip-path="url(#z35380c3)" d="M 220 481 L 360 522 L 397 520"/>
<path style="--d:4s;" pathLength="3333" clip-path="url(#z35380c4)" d="M 225 362 L 365 405 L 409 404"/>
<path style="--d:5s;" pathLength="3333" clip-path="url(#z35380c5)" d="M 170 258 L 204 225 L 240 70"/>
<path style="--d:6s;" pathLength="3333" clip-path="url(#z35380c6)" d="M 231 240 L 238 250 L 336 281 L 367 281 L 388 259 L 367 183 L 344 174"/>
<path style="--d:7s;" pathLength="3333" clip-path="url(#z35380c7)" d="M 257 107 L 271 122 L 337 139 L 395 135"/>
<path style="--d:8s;" pathLength="3333" clip-path="url(#z35380c8)" d="M 828 775 L 757 777 L 677 715 L 597 673 L 596 664"/>
<path style="--d:9s;" pathLength="3333" clip-path="url(#z35380c9)" d="M 507 680 L 540 659 L 553 640 L 558 463 L 552 368 L 542 318 L 516 232 L 486 173 L 435 106 L 401 73 L 369 53"/>
<path style="--d:10s;" pathLength="3333" clip-path="url(#z35380c10)" d="M 595 524 L 604 515 L 668 516 L 890 565 L 947 565"/>
<path style="--d:11s;" pathLength="3333" clip-path="url(#z35380c11)" d="M 702 493 L 746 464 L 743 -69"/>
<path style="--d:12s;" pathLength="3333" clip-path="url(#z35380c12)" d="M 785 354 L 790 342 L 895 290 L 925 266 L 947 234"/>
</svg>