<svg id="z38391" class="acjk" viewBox="0 0 1024 1024" xmlns="http://www.w3.org/2000/svg">
<style>
<![CDATA[
@keyframes zk {
	to {
		stroke-dashoffset:0;
	}
}
svg.acjk path[clip-path] {
	--t:0.8s;
	animation:zk var(--t) linear forwards var(--d);
	stroke-dasharray:3337;
	stroke-dashoffset:3339;
	stroke-width:128;
	stroke-linecap:round;
	stroke-linejoin:round;
	fill:none;
	stroke:#000;
}
svg.acjk path[id] {fill:#ccc;}
]]>
</style>
  <path id="z38391d1" d="M 304 745 Q 361 669 390 665 Q 406 664 414 684 Q 415 699 406 723 Q 396 742 369 752 Q 329 773 311 776 Q 301 777 298 765 Q 297 755 304 745 Z"/>
  <path id="z38391d2" d="M 176 688 Q 231 541 186 227 Q 156 104 157 94 Q 157 63 179 37 Q 192 22 202 37 Q 239 76 240 242 Q 240 569 257 653 Q 258 672 242 683 Q 217 704 189 712 Q 179 715 172 706 Q 168 699 176 688 Z"/>
  <path id="z38391d3" d="M 523 750 Q 507 751 511 740 Q 518 727 540 717 Q 552 708 587 716 Q 743 764 765 728 Q 795 662 790 235 Q 789 181 787 124 Q 786 82 771 71 Q 755 59 670 78 Q 652 81 654 71 Q 655 64 669 58 Q 744 10 784 -27 Q 806 -46 820 -44 Q 833 -40 844 -11 Q 859 37 856 106 Q 834 503 835 651 Q 835 691 847 715 Q 860 737 849 750 Q 839 765 790 790 Q 769 802 710 783 Q 569 756 523 750 Z"/>
  <path id="z38391d4" d="M 318 426 Q 302 371 275 321 Q 260 294 277 262 Q 284 247 303 260 Q 348 302 345 378 Q 346 406 339 428 Q 335 435 329 435 Q 322 434 318 426 Z"/>
  <path id="z38391d5" d="M 735 217 Q 734 227 718 246 Q 694 273 635 361 Q 631 368 625 369 Q 622 369 623 362 Q 630 322 635 275 Q 638 256 624 247 Q 599 228 519 247 Q 458 265 438 326 Q 428 366 424 410 Q 423 434 407 447 Q 394 459 387 453 Q 383 450 386 433 Q 390 414 396 363 Q 403 237 492 199 Q 597 151 723 207 Q 736 211 735 217 Z"/>
  <path id="z38391d6" d="M 454 513 Q 487 465 515 450 Q 527 447 536 457 Q 542 467 541 481 Q 532 517 469 543 Q 468 544 467 544 Q 454 548 446 547 Q 440 546 441 536 Q 442 526 454 513 Z"/>
  <path id="z38391d7" d="M 626 481 Q 663 447 705 396 Q 718 380 731 375 Q 738 374 745 382 Q 755 392 746 430 Q 737 473 628 507 Q 621 511 618 501 Q 618 491 626 481 Z"/>
<defs>
  <clipPath id="z38391c1"><use href="#z38391d1"/></clipPath>
  <clipPath id="z38391c2"><use href="#z38391d2"/></clipPath>
  <clipPath id="z38391c3"><use href="#z38391d3"/></clipPath>
  <clipPath id="z38391c4"><use href="#z38391d4"/></clipPath>
  <clipPath id="z38391c5"><use href="#z38391d5"/></clipPath>
  <clipPath id="z38391c6"><use href="#z38391d6"/></clipPath>
  <clipPath id="z38391c7"><use href="#z38391d7"/></clipPath>
</defs>
<path style="--d:1s;" pathLength="3333" clip-path="url(#z38391c1)" d="M 310 764 L 372 715 L 391 685"/>
<path style="--d:2s;" pathLength="3333" clip-path="url(#z38391c2)" d="M 182 701 L 222 655 L 225 586 L 221 326 L 209 188 L 190 80 L 191 42"/>
<path style="--d:3s;" pathLength="3333" clip-path="url(#z38391c3)" d="M 521 741 L 562 734 L 702 763 L 756 767 L 784 757 L 808 731 L 822 138 L 813 53 L 800 28 L 787 29 L 662 71"/>
<path style="--d:4s;" pathLength="3333" clip-path="url(#z38391c4)" d="M 329 424 L 323 369 L 291 269"/>
<path style="--d:5s;" pathLength="3333" clip-path="url(#z38391c5)" d="M 392 448 L 407 415 L 416 336 L 431 288 L 464 246 L 509 221 L 574 207 L 603 208 L 637 215 L 671 234 L 663 273 L 629 364"/>
<path style="--d:6s;" pathLength="3333" clip-path="url(#z38391c6)" d="M 450 538 L 497 500 L 520 469"/>
<path style="--d:7s;" pathLength="3333" clip-path="url(#z38391c7)" d="M 627 498 L 706 440 L 723 417 L 733 389"/>
</svg>