<svg id="z36918" class="acjk" viewBox="0 0 1024 1024" xmlns="http://www.w3.org/2000/svg">
<style>
<![CDATA[
@keyframes zk {
	to {
		stroke-dashoffset:0;
	}
}
svg.acjk path[clip-path] {
	--t:0.8s;
	animation:zk var(--t) linear forwards var(--d);
	stroke-dasharray:3337;
	stroke-dashoffset:3339;
	stroke-width:128;
	stroke-linecap:round;
	stroke-linejoin:round;
	fill:none;
	stroke:#000;
}
svg.acjk path[id] {fill:#ccc;}
]]>
</style>
  <path id="z36918d1" d="M 607 722 Q 628 737 694 750 Q 710 751 713 758 Q 716 768 705 778 Q 686 793 645 808 Q 632 815 619 814 Q 612 810 611 801 Q 611 765 445 687 Q 441 678 445 676 Q 451 676 569 708 L 607 722 Z"/>
  <path id="z36918d2" d="M 617 604 Q 653 614 788 634 Q 798 633 806 644 Q 806 654 786 664 Q 747 683 681 658 Q 651 651 622 642 L 579 632 Q 557 629 395 602 Q 370 598 390 583 Q 421 561 445 567 Q 493 580 553 591 L 617 604 Z"/>
  <path id="z36918d3" d="M 616 589 Q 616 596 617 604 L 622 642 Q 635 700 636 701 Q 633 704 632 706 Q 620 716 607 722 C 580 736 559 736 569 708 Q 578 689 579 632 L 579 553 Q 576 496 586 474 L 587 472 Q 594 460 606 467 Q 615 473 615 561 L 616 589 Z"/>
  <path id="z36918d4" d="M 553 591 Q 529 531 397 449 Q 384 440 396 438 Q 426 434 491 472 Q 492 475 495 475 Q 528 496 579 553 C 620 598 568 625 553 591 Z"/>
  <path id="z36918d5" d="M 615 561 Q 670 524 737 469 Q 752 456 764 454 Q 771 453 776 462 Q 785 474 770 508 Q 752 550 616 589 C 587 597 590 578 615 561 Z"/>
  <path id="z36918d6" d="M 564 381 Q 571 400 582 412 Q 591 419 589 428 Q 585 440 551 466 Q 541 475 532 471 Q 520 470 527 454 Q 533 439 513 376 L 499 339 Q 484 308 470 287 Q 460 271 463 259 Q 464 250 481 247 Q 526 234 559 212 L 597 189 Q 640 161 700 110 Q 722 91 738 92 Q 757 92 757 110 Q 758 129 732 169 Q 720 194 632 227 L 587 244 Q 548 259 521 265 Q 502 269 513 287 Q 532 323 545 346 L 564 381 Z"/>
  <path id="z36918d7" d="M 708 402 Q 681 438 654 435 Q 641 434 644 420 Q 648 407 647 393 L 638 355 Q 626 303 587 244 L 559 212 Q 484 163 439 141 Q 426 137 436 131 Q 514 115 597 189 L 632 227 Q 657 257 672 294 Q 693 342 701 357 C 714 384 718 390 708 402 Z"/>
  <path id="z36918d8" d="M 701 357 Q 750 360 810 358 Q 862 355 870 365 Q 874 375 861 388 Q 810 427 749 410 Q 730 407 708 402 L 647 393 Q 575 386 564 381 L 513 376 Q 441 369 363 360 Q 344 359 358 342 Q 371 330 387 325 Q 406 321 420 324 Q 457 334 499 339 L 545 346 Q 560 349 576 350 Q 604 354 638 355 L 701 357 Z"/>
  <path id="z36918d9" d="M 216 696 Q 246 671 277 642 Q 293 627 311 628 Q 323 629 328 645 Q 334 661 322 695 Q 315 717 281 732 Q 196 757 184 751 Q 178 747 180 732 Q 184 719 216 696 Z"/>
  <path id="z36918d10" d="M 275 168 Q 291 177 299 196 Q 311 232 272 297 Q 242 348 311 432 Q 315 438 321 443 Q 343 461 324 477 Q 305 493 269 507 Q 247 520 229 503 Q 201 482 165 468 Q 116 447 100 450 Q 93 450 90 445 Q 89 441 97 436 Q 136 417 219 449 Q 229 453 237 441 Q 258 420 237 393 Q 189 347 226 293 Q 260 233 259 203 Q 256 188 253 170 C 249 148 251 149 275 168 Z"/>
  <path id="z36918d11" d="M 253 170 Q 204 171 156 155 Q 128 145 86 141 Q 79 141 76 132 Q 73 125 82 115 Q 100 97 124 86 Q 136 80 154 95 Q 208 141 273 129 Q 343 114 483 52 Q 712 -53 804 -33 Q 807 -30 812 -30 Q 875 -8 928 29 Q 950 45 927 44 Q 677 44 537 84 Q 452 109 345 150 Q 311 165 275 168 L 253 170 Z"/>
<defs>
  <clipPath id="z36918c1"><use href="#z36918d1"/></clipPath>
  <clipPath id="z36918c2"><use href="#z36918d2"/></clipPath>
  <clipPath id="z36918c3"><use href="#z36918d3"/></clipPath>
  <clipPath id="z36918c4"><use href="#z36918d4"/></clipPath>
  <clipPath id="z36918c5"><use href="#z36918d5"/></clipPath>
  <clipPath id="z36918c6"><use href="#z36918d6"/></clipPath>
  <clipPath id="z36918c7"><use href="#z36918d7"/></clipPath>
  <clipPath id="z36918c8"><use href="#z36918d8"/></clipPath>
  <clipPath id="z36918c9"><use href="#z36918d9"/></clipPath>
  <clipPath id="z36918c10"><use href="#z36918d10"/></clipPath>
  <clipPath id="z36918c11"><use href="#z36918d11"/></clipPath>
</defs>
<path style="--d:1s;" pathLength="3333" clip-path="url(#z36918c1)" d="M 703 763 L 638 772 L 580 735 L 492 697 L 483 699 L 465 689 L 457 693 L 446 682"/>
<path style="--d:2s;" pathLength="3333" clip-path="url(#z36918c2)" d="M 391 593 L 447 589 L 741 650 L 797 646"/>
<path style="--d:3s;" pathLength="3333" clip-path="url(#z36918c3)" d="M 577 706 L 604 690 L 596 577 L 599 475"/>
<path style="--d:4s;" pathLength="3333" clip-path="url(#z36918c4)" d="M 574 589 L 548 545 L 516 513 L 459 470 L 401 443"/>
<path style="--d:5s;" pathLength="3333" clip-path="url(#z36918c5)" d="M 627 582 L 630 569 L 730 512 L 752 490 L 762 469"/>
<path style="--d:6s;" pathLength="3333" clip-path="url(#z36918c6)" d="M 533 461 L 548 447 L 553 422 L 486 270 L 508 254 L 559 235 L 679 171 L 741 108"/>
<path style="--d:7s;" pathLength="3333" clip-path="url(#z36918c7)" d="M 653 425 L 667 413 L 676 384 L 646 297 L 626 259 L 586 208 L 562 188 L 496 150 L 444 134"/>
<path style="--d:8s;" pathLength="3333" clip-path="url(#z36918c8)" d="M 361 351 L 413 344 L 600 371 L 774 387 L 831 381 L 862 370"/>
<path style="--d:9s;" pathLength="3333" clip-path="url(#z36918c9)" d="M 188 744 L 280 690 L 308 648"/>
<path style="--d:10s;" pathLength="3333" clip-path="url(#z36918c10)" d="M 97 443 L 153 445 L 239 476 L 252 476 L 277 457 L 272 418 L 247 372 L 236 334 L 279 223 L 279 199 L 271 183 L 259 175"/>
<path style="--d:11s;" pathLength="3333" clip-path="url(#z36918c11)" d="M 89 128 L 131 117 L 207 147 L 257 151 L 294 145 L 566 46 L 657 22 L 740 8 L 794 6 L 889 25 L 917 36"/>
</svg>