<svg id="z39156" class="acjk" viewBox="0 0 1024 1024" xmlns="http://www.w3.org/2000/svg">
<style>
<![CDATA[
@keyframes zk {
	to {
		stroke-dashoffset:0;
	}
}
svg.acjk path[clip-path] {
	--t:0.8s;
	animation:zk var(--t) linear forwards var(--d);
	stroke-dasharray:3337;
	stroke-dashoffset:3339;
	stroke-width:128;
	stroke-linecap:round;
	stroke-linejoin:round;
	fill:none;
	stroke:#000;
}
svg.acjk path[id] {fill:#ccc;}
]]>
</style>
  <path id="z39156d1" d="M 196 459 Q 272 559 345 702 L 358 728 Q 373 759 373 761 Q 370 771 356 782 Q 340 794 320 798 Q 298 802 287 799 Q 278 796 282 783 Q 306 696 184 513 Q 178 507 174 500 Q 137 448 40 344 Q 33 338 43 336 Q 88 349 168 429 Q 169 432 173 433 L 196 459 Z"/>
  <path id="z39156d2" d="M 345 702 Q 351 698 363 690 Q 400 668 441 641 Q 454 632 466 635 Q 475 636 477 648 Q 478 661 468 684 Q 453 717 358 728 C 328 732 320 719 345 702 Z"/>
  <path id="z39156d3" d="M 307 558 Q 371 516 396 523 Q 409 526 408 545 Q 405 558 390 573 Q 377 583 353 584 Q 316 587 302 584 Q 293 583 296 572 Q 297 563 307 558 Z"/>
  <path id="z39156d4" d="M 358 270 Q 361 266 365 259 Q 387 225 411 253 Q 426 271 434 320 Q 434 384 464 431 Q 477 450 462 466 Q 443 482 411 500 Q 395 507 377 500 Q 316 469 240 449 Q 236 448 233 446 C 205 436 222 412 251 421 Q 252 421 336 448 Q 367 461 380 455 Q 387 451 386 429 Q 377 309 369 295 C 360 266 356 274 358 270 Z"/>
  <path id="z39156d5" d="M 248 339 Q 294 349 330 356 Q 352 362 342 373 Q 330 386 306 387 Q 284 387 248 372 C 220 361 219 333 248 339 Z"/>
  <path id="z39156d6" d="M 247 247 Q 254 246 265 250 Q 295 259 358 270 C 388 275 395 281 369 295 Q 338 314 276 286 Q 260 282 247 276 C 220 264 217 248 247 247 Z"/>
  <path id="z39156d7" d="M 352 177 Q 322 158 268 116 Q 258 110 255 113 Q 249 116 249 131 Q 248 197 247 247 L 247 276 Q 247 313 248 339 L 248 372 Q 249 406 251 416 Q 251 419 251 421 C 252 437 252 437 233 446 Q 223 453 196 459 C 167 467 156 457 173 433 Q 192 411 199 378 Q 206 351 209 253 Q 210 172 197 127 Q 193 93 161 51 Q 151 39 159 19 Q 169 -6 183 -18 Q 195 -27 207 -12 Q 246 45 364 161 C 385 182 377 194 352 177 Z"/>
  <path id="z39156d8" d="M 364 161 Q 379 142 394 117 Q 404 102 419 100 Q 429 99 437 109 Q 444 122 442 152 Q 441 171 415 192 Q 352 234 336 231 Q 332 228 330 216 Q 330 204 352 177 L 364 161 Z"/>
  <path id="z39156d9" d="M 805 480 Q 705 459 598 428 Q 588 422 583 426 Q 579 430 587 446 Q 717 663 747 700 Q 760 712 752 726 Q 745 739 688 762 Q 669 769 658 765 Q 643 758 652 734 Q 680 661 542 460 Q 518 433 483 405 Q 468 390 473 378 Q 480 359 511 338 Q 524 326 538 340 Q 587 383 821 451 Q 822 452 824 452 C 853 461 834 486 805 480 Z"/>
  <path id="z39156d10" d="M 824 452 Q 869 395 872 392 Q 881 391 889 398 Q 904 410 898 454 Q 895 493 831 534 Q 789 559 766 570 Q 759 577 754 565 Q 753 552 761 540 Q 782 513 805 480 L 824 452 Z"/>
  <path id="z39156d11" d="M 551 255 Q 538 261 511 265 Q 498 269 493 263 Q 486 257 495 239 Q 523 181 539 88 Q 542 60 558 41 Q 577 16 584 34 Q 588 44 588 60 L 585 100 Q 572 194 570 222 C 568 249 568 249 551 255 Z"/>
  <path id="z39156d12" d="M 818 126 Q 848 202 886 228 Q 905 247 890 267 Q 874 282 818 311 Q 799 320 776 312 Q 695 279 551 255 C 521 250 541 215 570 222 Q 579 225 758 261 Q 779 265 788 257 Q 797 247 792 227 Q 777 175 761 132 C 751 104 807 98 818 126 Z"/>
  <path id="z39156d13" d="M 588 60 Q 624 72 833 86 Q 846 87 847 97 Q 847 106 818 126 C 798 140 790 139 761 132 Q 664 110 585 100 C 555 96 559 52 588 60 Z"/>
<defs>
  <clipPath id="z39156c1"><use href="#z39156d1"/></clipPath>
  <clipPath id="z39156c2"><use href="#z39156d2"/></clipPath>
  <clipPath id="z39156c3"><use href="#z39156d3"/></clipPath>
  <clipPath id="z39156c4"><use href="#z39156d4"/></clipPath>
  <clipPath id="z39156c5"><use href="#z39156d5"/></clipPath>
  <clipPath id="z39156c6"><use href="#z39156d6"/></clipPath>
  <clipPath id="z39156c7"><use href="#z39156d7"/></clipPath>
  <clipPath id="z39156c8"><use href="#z39156d8"/></clipPath>
  <clipPath id="z39156c9"><use href="#z39156d9"/></clipPath>
  <clipPath id="z39156c10"><use href="#z39156d10"/></clipPath>
  <clipPath id="z39156c11"><use href="#z39156d11"/></clipPath>
  <clipPath id="z39156c12"><use href="#z39156d12"/></clipPath>
  <clipPath id="z39156c13"><use href="#z39156d13"/></clipPath>
</defs>
<path style="--d:1s;" pathLength="3333" clip-path="url(#z39156c1)" d="M 291 789 L 326 753 L 280 630 L 217 523 L 177 468 L 107 392 L 64 354 L 49 350 L 46 342"/>
<path style="--d:2s;" pathLength="3333" clip-path="url(#z39156c2)" d="M 353 706 L 370 708 L 428 684 L 464 648"/>
<path style="--d:3s;" pathLength="3333" clip-path="url(#z39156c3)" d="M 308 574 L 372 553 L 391 540"/>
<path style="--d:4s;" pathLength="3333" clip-path="url(#z39156c4)" d="M 239 441 L 263 439 L 380 478 L 398 476 L 416 460 L 425 444 L 401 301 L 390 272 L 372 271"/>
<path style="--d:5s;" pathLength="3333" clip-path="url(#z39156c5)" d="M 255 345 L 260 356 L 278 364 L 301 369 L 334 366"/>
<path style="--d:6s;" pathLength="3333" clip-path="url(#z39156c6)" d="M 251 254 L 273 270 L 361 291"/>
<path style="--d:7s;" pathLength="3333" clip-path="url(#z39156c7)" d="M 183 432 L 204 431 L 215 423 L 222 401 L 229 254 L 223 127 L 227 81 L 275 97 L 349 159 L 350 170"/>
<path style="--d:8s;" pathLength="3333" clip-path="url(#z39156c8)" d="M 339 225 L 406 157 L 420 120"/>
<path style="--d:9s;" pathLength="3333" clip-path="url(#z39156c9)" d="M 666 749 L 700 710 L 693 688 L 645 585 L 590 489 L 566 459 L 546 400 L 582 398 L 773 456 L 797 461 L 808 452 L 821 457"/>
<path style="--d:10s;" pathLength="3333" clip-path="url(#z39156c10)" d="M 763 559 L 853 472 L 878 418 L 876 398"/>
<path style="--d:11s;" pathLength="3333" clip-path="url(#z39156c11)" d="M 501 255 L 531 231 L 539 213 L 572 40"/>
<path style="--d:12s;" pathLength="3333" clip-path="url(#z39156c12)" d="M 561 253 L 579 243 L 779 287 L 812 279 L 839 247 L 798 155 L 769 136"/>
<path style="--d:13s;" pathLength="3333" clip-path="url(#z39156c13)" d="M 589 67 L 605 84 L 758 106 L 809 106 L 837 97"/>
</svg>