<svg id="z38309" class="acjk" viewBox="0 0 1024 1024" xmlns="http://www.w3.org/2000/svg">
<style>
<![CDATA[
@keyframes zk {
	to {
		stroke-dashoffset:0;
	}
}
svg.acjk path[clip-path] {
	--t:0.8s;
	animation:zk var(--t) linear forwards var(--d);
	stroke-dasharray:3337;
	stroke-dashoffset:3339;
	stroke-width:128;
	stroke-linecap:round;
	stroke-linejoin:round;
	fill:none;
	stroke:#000;
}
svg.acjk path[id] {fill:#ccc;}
]]>
</style>
  <path id="z38309d1" d="M 250 722 Q 229 743 194 752 Q 184 753 178 745 Q 174 739 182 728 Q 242 587 203 258 Q 194 206 177 153 Q 170 125 174 105 Q 184 71 196 57 Q 208 42 218 57 Q 249 94 251 316 Q 251 394 252 474 L 252 506 Q 252 552 253 586 L 254 616 Q 255 671 259 695 C 261 713 261 713 250 722 Z"/>
  <path id="z38309d2" d="M 350 489 Q 351 488 355 483 Q 376 455 395 480 Q 404 492 412 537 Q 412 657 439 700 Q 451 716 437 731 Q 419 744 390 760 Q 375 764 361 758 Q 309 736 250 722 C 221 715 231 685 259 695 Q 259 696 319 713 Q 350 722 362 716 Q 371 712 370 682 Q 366 600 362 532 Q 361 516 352 509 C 344 497 344 497 350 489 Z"/>
  <path id="z38309d3" d="M 253 586 Q 298 592 330 598 Q 349 602 341 613 Q 331 626 308 628 Q 287 629 254 616 C 226 605 223 582 253 586 Z"/>
  <path id="z38309d4" d="M 252 474 Q 273 481 350 489 C 374 491 374 491 352 509 Q 345 515 333 521 Q 321 527 252 506 C 223 497 223 465 252 474 Z"/>
  <path id="z38309d5" d="M 635 792 Q 616 808 595 815 Q 589 818 585 814 Q 578 810 584 799 Q 609 750 604 630 Q 601 567 632 546 Q 645 542 649 564 L 651 594 Q 650 630 648 665 L 648 699 Q 648 732 651 759 C 653 778 653 778 635 792 Z"/>
  <path id="z38309d6" d="M 807 581 Q 828 118 804 71 Q 801 68 729 75 Q 707 82 708 71 Q 766 22 796 -15 Q 812 -34 829 -40 Q 839 -44 848 -33 Q 893 22 888 82 Q 870 305 860 670 Q 857 734 872 763 Q 885 785 872 796 Q 847 817 807 833 Q 786 840 770 833 Q 721 806 635 792 C 606 786 621 755 651 759 Q 661 759 676 762 Q 716 772 757 782 Q 776 785 786 773 Q 801 760 806 606 L 807 581 Z"/>
  <path id="z38309d7" d="M 648 665 Q 700 674 740 679 Q 762 683 754 696 Q 742 711 716 713 Q 694 714 652 701 Q 651 700 648 699 C 621 686 618 660 648 665 Z"/>
  <path id="z38309d8" d="M 649 564 Q 653 564 661 565 Q 707 575 807 581 C 833 583 829 586 806 606 Q 802 610 794 615 Q 779 622 753 616 Q 698 603 651 594 C 622 588 619 562 649 564 Z"/>
  <path id="z38309d9" d="M 383 337 Q 399 353 418 375 Q 430 391 440 398 Q 447 405 445 414 Q 444 424 425 441 Q 409 454 395 456 Q 382 455 387 440 Q 394 419 349 352 Q 328 322 298 288 Q 291 282 289 278 Q 286 271 296 272 Q 314 275 363 318 L 383 337 Z"/>
  <path id="z38309d10" d="M 363 318 Q 387 261 362 161 Q 350 124 379 93 L 380 92 Q 393 82 400 100 Q 410 128 410 160 Q 411 257 416 278 Q 420 297 414 304 Q 402 319 393 328 Q 389 334 383 337 C 359 355 352 346 363 318 Z"/>
  <path id="z38309d11" d="M 568 344 Q 638 377 640 378 Q 646 385 640 391 Q 633 400 609 400 Q 575 400 557 383 L 526 367 Q 471 346 452 340 Q 425 330 448 320 Q 487 308 536 331 L 537 331 L 568 344 Z"/>
  <path id="z38309d12" d="M 602 193 Q 629 145 690 104 Q 745 76 760 86 Q 773 93 769 120 Q 763 141 758 216 Q 758 231 754 234 Q 751 235 747 221 Q 726 167 713 158 Q 706 155 686 169 Q 652 194 631 220 L 608 254 Q 596 275 568 344 L 557 383 Q 542 446 550 483 Q 554 502 523 517 Q 498 530 485 526 Q 472 523 480 505 Q 499 478 506 447 Q 513 407 526 367 L 537 331 Q 549 282 582 225 L 602 193 Z"/>
  <path id="z38309d13" d="M 582 225 Q 549 192 470 149 Q 463 145 468 142 Q 472 138 482 140 Q 554 153 602 193 L 631 220 Q 653 242 679 278 Q 689 291 701 304 Q 708 310 706 319 Q 703 328 683 345 Q 670 357 661 357 Q 651 356 650 345 Q 646 302 608 254 L 582 225 Z"/>
  <path id="z38309d14" d="M 636 463 Q 655 450 675 432 Q 685 423 698 425 Q 707 426 709 436 Q 712 448 703 470 Q 694 491 628 499 Q 616 500 612 499 Q 608 495 610 485 Q 614 478 636 463 Z"/>
<defs>
  <clipPath id="z38309c1"><use href="#z38309d1"/></clipPath>
  <clipPath id="z38309c2"><use href="#z38309d2"/></clipPath>
  <clipPath id="z38309c3"><use href="#z38309d3"/></clipPath>
  <clipPath id="z38309c4"><use href="#z38309d4"/></clipPath>
  <clipPath id="z38309c5"><use href="#z38309d5"/></clipPath>
  <clipPath id="z38309c6"><use href="#z38309d6"/></clipPath>
  <clipPath id="z38309c7"><use href="#z38309d7"/></clipPath>
  <clipPath id="z38309c8"><use href="#z38309d8"/></clipPath>
  <clipPath id="z38309c9"><use href="#z38309d9"/></clipPath>
  <clipPath id="z38309c10"><use href="#z38309d10"/></clipPath>
  <clipPath id="z38309c11"><use href="#z38309d11"/></clipPath>
  <clipPath id="z38309c12"><use href="#z38309d12"/></clipPath>
  <clipPath id="z38309c13"><use href="#z38309d13"/></clipPath>
  <clipPath id="z38309c14"><use href="#z38309d14"/></clipPath>
</defs>
<path style="--d:1s;" pathLength="3333" clip-path="url(#z38309c1)" d="M 188 740 L 224 701 L 235 556 L 230 279 L 206 129 L 207 61"/>
<path style="--d:2s;" pathLength="3333" clip-path="url(#z38309c2)" d="M 258 702 L 275 715 L 362 737 L 380 735 L 404 711 L 393 641 L 387 531 L 376 497 L 361 493"/>
<path style="--d:3s;" pathLength="3333" clip-path="url(#z38309c3)" d="M 261 593 L 270 605 L 281 608 L 312 612 L 333 607"/>
<path style="--d:4s;" pathLength="3333" clip-path="url(#z38309c4)" d="M 254 479 L 269 495 L 343 505"/>
<path style="--d:5s;" pathLength="3333" clip-path="url(#z38309c5)" d="M 591 806 L 617 777 L 624 751 L 626 620 L 635 559"/>
<path style="--d:6s;" pathLength="3333" clip-path="url(#z38309c6)" d="M 645 790 L 666 779 L 783 808 L 815 792 L 831 771 L 830 670 L 849 190 L 846 63 L 827 26 L 718 69"/>
<path style="--d:7s;" pathLength="3333" clip-path="url(#z38309c7)" d="M 656 671 L 667 687 L 679 690 L 721 695 L 744 690"/>
<path style="--d:8s;" pathLength="3333" clip-path="url(#z38309c8)" d="M 654 571 L 674 583 L 749 597 L 789 598 L 797 587"/>
<path style="--d:9s;" pathLength="3333" clip-path="url(#z38309c9)" d="M 395 446 L 412 418 L 405 398 L 347 321 L 297 280"/>
<path style="--d:10s;" pathLength="3333" clip-path="url(#z38309c10)" d="M 383 327 L 395 288 L 383 131 L 388 100"/>
<path style="--d:11s;" pathLength="3333" clip-path="url(#z38309c11)" d="M 448 330 L 494 335 L 602 382 L 635 385"/>
<path style="--d:12s;" pathLength="3333" clip-path="url(#z38309c12)" d="M 489 514 L 522 485 L 540 379 L 580 267 L 640 178 L 698 131 L 730 125 L 754 222"/>
<path style="--d:13s;" pathLength="3333" clip-path="url(#z38309c13)" d="M 662 345 L 673 316 L 647 271 L 604 220 L 554 180 L 475 144"/>
<path style="--d:14s;" pathLength="3333" clip-path="url(#z38309c14)" d="M 616 491 L 681 460 L 693 441"/>
</svg>