<svg id="z32070" class="acjk" viewBox="0 0 1024 1024" xmlns="http://www.w3.org/2000/svg">
<style>
<![CDATA[
@keyframes zk {
	to {
		stroke-dashoffset:0;
	}
}
svg.acjk path[clip-path] {
	--t:0.8s;
	animation:zk var(--t) linear forwards var(--d);
	stroke-dasharray:3337;
	stroke-dashoffset:3339;
	stroke-width:128;
	stroke-linecap:round;
	stroke-linejoin:round;
	fill:none;
	stroke:#000;
}
svg.acjk path[id] {fill:#ccc;}
]]>
</style>
  <path id="z32070d1" d="M 295 563 Q 247 559 207 556 Q 179 555 192 572 Q 253 675 313 753 Q 326 771 324 778 Q 321 791 282 823 Q 266 836 248 832 Q 236 829 243 814 Q 261 774 181 625 Q 165 591 128 559 Q 109 544 112 532 Q 116 513 132 496 Q 142 486 155 493 Q 192 521 275 535 C 305 540 325 565 295 563 Z"/>
  <path id="z32070d2" d="M 357 441 Q 296 426 228 399 Q 212 392 221 407 Q 354 597 413 647 Q 425 657 419 666 Q 409 684 377 702 Q 362 709 353 708 Q 344 704 346 690 Q 349 651 295 563 L 275 535 Q 170 391 150 380 Q 137 371 141 358 Q 142 345 167 328 Q 177 318 191 330 Q 267 394 364 426 C 392 436 386 449 357 441 Z"/>
  <path id="z32070d3" d="M 364 426 Q 376 393 395 387 Q 405 383 416 395 Q 420 405 419 425 Q 415 443 396 458 Q 368 485 355 492 Q 348 496 344 486 Q 340 480 344 471 Q 350 456 357 441 L 364 426 Z"/>
  <path id="z32070d4" d="M 95 208 Q 122 166 149 118 Q 158 102 174 97 Q 184 94 193 105 Q 202 118 203 149 Q 204 174 174 205 Q 99 266 85 263 Q 78 262 76 248 Q 76 236 95 208 Z"/>
  <path id="z32070d5" d="M 238 258 Q 254 234 269 206 Q 276 193 290 190 Q 299 189 305 197 Q 312 207 312 233 Q 312 249 291 268 Q 240 304 228 302 Q 224 301 222 290 Q 222 280 238 258 Z"/>
  <path id="z32070d6" d="M 340 293 Q 356 272 371 247 Q 378 235 391 233 Q 400 232 405 241 Q 412 251 410 275 Q 407 300 345 330 Q 333 334 328 334 Q 324 333 323 322 Q 324 313 340 293 Z"/>
  <path id="z32070d7" d="M 485 661 Q 507 636 530 605 Q 540 592 554 591 Q 563 590 569 601 Q 575 613 571 640 Q 570 659 543 676 Q 483 710 468 707 Q 464 704 463 693 Q 464 683 485 661 Z"/>
  <path id="z32070d8" d="M 792 730 Q 768 693 719 636 Q 715 629 719 623 Q 726 622 733 626 Q 818 687 861 710 Q 877 714 873 725 Q 869 740 850 758 Q 832 774 811 777 Q 798 776 798 758 Q 799 745 792 730 Z"/>
  <path id="z32070d9" d="M 674 491 Q 711 501 755 510 Q 791 520 796 525 Q 803 532 799 541 Q 792 551 764 558 Q 737 562 674 539 L 624 523 Q 573 511 516 504 Q 480 497 507 482 Q 543 461 611 477 Q 617 478 624 479 L 674 491 Z"/>
  <path id="z32070d10" d="M 674 341 Q 756 354 879 356 Q 933 356 940 366 Q 944 378 929 390 Q 878 426 814 411 Q 757 399 674 382 L 623 372 Q 533 359 431 342 Q 412 339 427 323 Q 440 310 458 306 Q 479 302 494 306 Q 555 324 623 334 L 674 341 Z"/>
  <path id="z32070d11" d="M 623 334 Q 620 -14 633 -44 Q 634 -45 636 -49 Q 651 -64 659 -43 Q 677 -1 674 341 L 674 382 Q 674 440 674 491 L 674 539 Q 675 654 680 719 Q 681 753 699 783 Q 706 799 686 813 Q 662 832 620 843 Q 602 847 590 834 Q 580 827 592 814 Q 622 789 624 752 Q 625 670 624 523 L 624 479 Q 624 385 623 372 L 623 334 Z"/>
<defs>
  <clipPath id="z32070c1"><use href="#z32070d1"/></clipPath>
  <clipPath id="z32070c2"><use href="#z32070d2"/></clipPath>
  <clipPath id="z32070c3"><use href="#z32070d3"/></clipPath>
  <clipPath id="z32070c4"><use href="#z32070d4"/></clipPath>
  <clipPath id="z32070c5"><use href="#z32070d5"/></clipPath>
  <clipPath id="z32070c6"><use href="#z32070d6"/></clipPath>
  <clipPath id="z32070c7"><use href="#z32070d7"/></clipPath>
  <clipPath id="z32070c8"><use href="#z32070d8"/></clipPath>
  <clipPath id="z32070c9"><use href="#z32070d9"/></clipPath>
  <clipPath id="z32070c10"><use href="#z32070d10"/></clipPath>
  <clipPath id="z32070c11"><use href="#z32070d11"/></clipPath>
</defs>
<path style="--d:1s;" pathLength="3333" clip-path="url(#z32070c1)" d="M 250 822 L 268 806 L 282 774 L 163 558 L 159 539 L 206 537 L 263 545 L 287 562"/>
<path style="--d:2s;" pathLength="3333" clip-path="url(#z32070c2)" d="M 357 698 L 378 661 L 309 552 L 204 414 L 199 380 L 222 379 L 311 418 L 351 431 L 356 427"/>
<path style="--d:3s;" pathLength="3333" clip-path="url(#z32070c3)" d="M 354 482 L 400 405"/>
<path style="--d:4s;" pathLength="3333" clip-path="url(#z32070c4)" d="M 87 254 L 163 164 L 178 114"/>
<path style="--d:5s;" pathLength="3333" clip-path="url(#z32070c5)" d="M 230 293 L 278 244 L 292 206"/>
<path style="--d:6s;" pathLength="3333" clip-path="url(#z32070c6)" d="M 330 326 L 373 288 L 393 246"/>
<path style="--d:7s;" pathLength="3333" clip-path="url(#z32070c7)" d="M 471 698 L 534 648 L 555 606"/>
<path style="--d:8s;" pathLength="3333" clip-path="url(#z32070c8)" d="M 813 762 L 829 731 L 725 630"/>
<path style="--d:9s;" pathLength="3333" clip-path="url(#z32070c9)" d="M 508 494 L 540 489 L 581 492 L 726 530 L 787 535"/>
<path style="--d:10s;" pathLength="3333" clip-path="url(#z32070c10)" d="M 430 332 L 467 326 L 495 329 L 687 365 L 827 384 L 875 385 L 932 371"/>
<path style="--d:11s;" pathLength="3333" clip-path="url(#z32070c11)" d="M 597 825 L 634 810 L 652 792 L 657 778 L 648 532 L 647 -43"/>
</svg>