<svg id="z32499" class="acjk" viewBox="0 0 1024 1024" xmlns="http://www.w3.org/2000/svg">
<style>
<![CDATA[
@keyframes zk {
	to {
		stroke-dashoffset:0;
	}
}
svg.acjk path[clip-path] {
	--t:0.8s;
	animation:zk var(--t) linear forwards var(--d);
	stroke-dasharray:3337;
	stroke-dashoffset:3339;
	stroke-width:128;
	stroke-linecap:round;
	stroke-linejoin:round;
	fill:none;
	stroke:#000;
}
svg.acjk path[id] {fill:#ccc;}
]]>
</style>
  <path id="z32499d1" d="M 317 514 Q 269 514 229 514 Q 192 513 211 537 Q 274 649 334 733 Q 347 751 345 758 Q 342 773 302 802 Q 286 815 267 811 Q 257 807 263 792 Q 284 744 188 570 Q 172 548 147 523 Q 129 508 131 496 Q 135 478 149 460 Q 159 450 172 457 Q 197 470 287 486 Q 293 487 300 487 C 330 490 347 514 317 514 Z"/>
  <path id="z32499d2" d="M 300 487 Q 299 487 299 485 Q 197 338 168 325 Q 155 316 158 302 Q 159 289 185 271 Q 195 259 210 271 Q 273 319 354 347 Q 373 353 375 361 Q 378 371 358 367 Q 312 358 253 341 Q 228 331 244 352 Q 283 407 373 515 Q 401 552 426 573 Q 438 583 432 593 Q 422 612 389 630 Q 373 640 364 637 Q 354 633 356 618 Q 357 588 317 514 L 300 487 Z"/>
  <path id="z32499d3" d="M 101 157 Q 88 154 88 144 Q 87 131 97 125 Q 119 112 153 97 Q 163 96 174 105 Q 277 174 382 243 Q 394 252 393 260 Q 387 264 376 261 Q 151 161 101 157 Z"/>
  <path id="z32499d4" d="M 495 740 Q 485 744 458 747 Q 448 750 444 745 Q 440 739 447 725 Q 475 673 493 588 Q 497 563 513 546 Q 529 527 534 541 Q 537 551 536 567 L 531 600 Q 513 682 509 711 C 505 737 505 737 495 740 Z"/>
  <path id="z32499d5" d="M 733 626 Q 760 702 789 718 Q 805 736 791 752 Q 775 765 727 789 Q 709 796 641 771 Q 571 752 495 740 C 465 735 479 706 509 711 Q 515 711 676 743 Q 694 747 701 740 Q 713 725 684 632 C 675 603 723 598 733 626 Z"/>
  <path id="z32499d6" d="M 608 577 Q 660 587 744 593 Q 754 594 756 603 Q 756 610 733 626 L 684 632 Q 681 633 679 632 Q 597 611 531 600 C 501 595 506 568 536 567 Q 545 566 555 568 Q 565 571 579 573 L 608 577 Z"/>
  <path id="z32499d7" d="M 451 460 Q 439 464 416 469 Q 404 472 401 467 Q 394 461 403 445 Q 436 369 453 246 Q 456 209 476 184 Q 494 162 499 177 Q 502 186 503 196 L 503 221 Q 502 237 499 258 Q 475 390 471 428 C 468 455 468 455 451 460 Z"/>
  <path id="z32499d8" d="M 728 221 Q 744 196 761 189 Q 771 182 787 203 Q 803 233 834 390 Q 843 421 867 447 Q 880 460 868 474 Q 852 492 809 518 Q 788 528 772 520 Q 738 513 692 504 Q 667 500 639 495 L 590 485 Q 572 484 555 480 Q 498 468 451 460 C 421 455 442 420 471 428 Q 519 443 590 455 L 637 463 Q 754 485 769 470 Q 784 452 781 435 Q 753 263 732 251 C 719 232 719 232 728 221 Z"/>
  <path id="z32499d9" d="M 632 332 Q 675 341 715 345 Q 737 349 729 361 Q 719 374 695 379 Q 673 382 634 371 Q 633 371 633 370 C 623 366 619 365 590 358 Q 553 349 523 340 Q 507 336 526 323 Q 536 316 555 319 Q 571 323 589 325 L 632 332 Z"/>
  <path id="z32499d10" d="M 633 210 Q 682 217 728 221 C 758 224 758 236 732 251 Q 705 270 632 246 L 587 237 Q 542 230 503 221 C 474 214 473 193 503 196 L 587 204 L 633 210 Z"/>
  <path id="z32499d11" d="M 587 204 Q 587 108 604 74 Q 619 40 650 24 Q 692 3 756 0 Q 831 -4 879 8 Q 931 23 947 33 Q 971 46 955 84 Q 936 130 927 190 Q 926 208 920 209 Q 913 209 912 192 Q 908 135 897 102 Q 890 84 864 73 Q 833 60 778 61 Q 714 62 684 74 Q 656 89 646 112 Q 636 134 633 210 L 632 246 Q 632 252 632 258 Q 632 298 632 332 L 633 370 Q 634 424 637 463 L 639 495 Q 639 496 640 497 Q 643 546 608 577 C 589 600 573 602 579 573 Q 586 557 590 485 L 590 455 Q 590 398 590 358 L 589 325 Q 589 282 587 237 L 587 204 Z"/>
<defs>
  <clipPath id="z32499c1"><use href="#z32499d1"/></clipPath>
  <clipPath id="z32499c2"><use href="#z32499d2"/></clipPath>
  <clipPath id="z32499c3"><use href="#z32499d3"/></clipPath>
  <clipPath id="z32499c4"><use href="#z32499d4"/></clipPath>
  <clipPath id="z32499c5"><use href="#z32499d5"/></clipPath>
  <clipPath id="z32499c6"><use href="#z32499d6"/></clipPath>
  <clipPath id="z32499c7"><use href="#z32499d7"/></clipPath>
  <clipPath id="z32499c8"><use href="#z32499d8"/></clipPath>
  <clipPath id="z32499c9"><use href="#z32499d9"/></clipPath>
  <clipPath id="z32499c10"><use href="#z32499d10"/></clipPath>
  <clipPath id="z32499c11"><use href="#z32499d11"/></clipPath>
</defs>
<path style="--d:1s;" pathLength="3333" clip-path="url(#z32499c1)" d="M 273 800 L 286 788 L 303 754 L 270 681 L 182 525 L 175 498 L 274 497 L 309 510"/>
<path style="--d:2s;" pathLength="3333" clip-path="url(#z32499c2)" d="M 369 625 L 388 588 L 326 488 L 228 361 L 221 323 L 256 322 L 367 361"/>
<path style="--d:3s;" pathLength="3333" clip-path="url(#z32499c3)" d="M 102 143 L 155 134 L 388 257"/>
<path style="--d:4s;" pathLength="3333" clip-path="url(#z32499c4)" d="M 452 740 L 477 719 L 485 703 L 524 546"/>
<path style="--d:5s;" pathLength="3333" clip-path="url(#z32499c5)" d="M 503 738 L 512 730 L 526 729 L 633 749 L 677 764 L 723 760 L 744 734 L 716 653 L 692 643"/>
<path style="--d:6s;" pathLength="3333" clip-path="url(#z32499c6)" d="M 539 596 L 550 586 L 676 610 L 725 610 L 747 602"/>
<path style="--d:7s;" pathLength="3333" clip-path="url(#z32499c7)" d="M 410 459 L 435 436 L 448 402 L 488 183"/>
<path style="--d:8s;" pathLength="3333" clip-path="url(#z32499c8)" d="M 458 457 L 479 448 L 702 491 L 771 496 L 792 491 L 822 459 L 782 287 L 762 229 L 767 209"/>
<path style="--d:9s;" pathLength="3333" clip-path="url(#z32499c9)" d="M 524 331 L 677 360 L 719 355"/>
<path style="--d:10s;" pathLength="3333" clip-path="url(#z32499c10)" d="M 509 202 L 516 211 L 723 245"/>
<path style="--d:11s;" pathLength="3333" clip-path="url(#z32499c11)" d="M 587 572 L 602 558 L 614 517 L 611 175 L 618 114 L 638 72 L 668 48 L 733 32 L 815 30 L 896 49 L 920 64 L 920 204"/>
</svg>