<svg id="z36749" class="acjk" viewBox="0 0 1024 1024" xmlns="http://www.w3.org/2000/svg">
<style>
<![CDATA[
@keyframes zk {
	to {
		stroke-dashoffset:0;
	}
}
svg.acjk path[clip-path] {
	--t:0.8s;
	animation:zk var(--t) linear forwards var(--d);
	stroke-dasharray:3337;
	stroke-dashoffset:3339;
	stroke-width:128;
	stroke-linecap:round;
	stroke-linejoin:round;
	fill:none;
	stroke:#000;
}
svg.acjk path[id] {fill:#ccc;}
]]>
</style>
  <path id="z36749d1" d="M 277 617 Q 416 656 420 658 Q 427 665 423 673 Q 416 683 389 689 Q 361 693 299 668 L 245 650 Q 196 638 143 630 Q 109 623 134 609 Q 173 591 226 605 Q 227 605 231 605 L 277 617 Z"/>
  <path id="z36749d2" d="M 341 421 Q 372 430 404 432 Q 432 435 424 449 Q 414 461 398 467 Q 386 471 343 457 L 299 445 Q 211 427 208 428 Q 202 440 277 617 L 299 668 Q 329 737 343 749 Q 355 761 339 780 Q 314 805 293 818 Q 280 825 270 823 Q 263 819 268 797 Q 278 763 245 650 L 231 605 Q 186 473 141 426 Q 126 410 131 395 Q 138 376 149 365 Q 159 356 169 362 Q 224 395 299 410 L 341 421 Z"/>
  <path id="z36749d3" d="M 292 263 Q 283 122 272 94 Q 263 60 294 11 Q 304 -5 311 -10 Q 321 -11 327 1 Q 339 29 336 58 Q 335 182 337 289 L 337 321 Q 338 340 339 357 Q 340 393 341 421 L 343 457 Q 344 485 349 503 Q 350 515 345 520 Q 323 539 306 549 Q 294 552 286 545 Q 280 542 287 533 Q 297 515 299 445 L 299 410 Q 298 364 295 303 L 292 263 Z"/>
  <path id="z36749d4" d="M 337 289 Q 341 292 346 294 Q 367 306 382 319 Q 394 328 393 336 Q 387 340 376 337 Q 357 330 337 321 L 295 303 Q 222 276 142 245 Q 126 238 97 237 Q 85 234 84 224 Q 83 211 93 205 Q 115 192 149 176 Q 159 175 169 184 Q 205 218 292 263 L 337 289 Z"/>
  <path id="z36749d5" d="M 575 527 Q 590 558 605 604 Q 615 628 632 644 Q 644 653 643 660 Q 642 670 616 679 Q 586 692 575 692 Q 566 691 558 682 Q 494 651 474 647 Q 446 646 444 638 Q 444 635 449 631 Q 461 624 485 622 Q 501 623 531 643 Q 549 652 558 648 Q 565 644 555 596 Q 551 571 539 545 L 522 512 Q 497 466 440 424 Q 433 420 435 416 Q 436 412 441 414 Q 498 429 551 488 L 575 527 Z"/>
  <path id="z36749d6" d="M 551 488 Q 584 461 591 459 Q 595 459 600 466 Q 607 475 596 501 Q 593 508 575 527 L 539 545 Q 503 558 468 572 Q 462 575 462 567 Q 462 561 522 512 L 551 488 Z"/>
  <path id="z36749d7" d="M 778 549 Q 800 586 820 644 Q 830 669 851 686 Q 863 693 862 702 Q 861 712 835 724 Q 804 740 791 739 Q 782 738 773 729 Q 700 698 685 694 Q 654 693 652 686 Q 651 683 657 679 Q 670 669 695 667 Q 713 670 742 688 Q 761 698 771 692 Q 778 689 766 637 Q 765 630 740 567 L 721 535 Q 679 480 628 444 Q 621 440 623 436 Q 624 432 630 433 Q 699 449 751 510 L 778 549 Z"/>
  <path id="z36749d8" d="M 751 510 Q 844 440 845 438 Q 852 438 856 446 Q 865 458 852 490 Q 842 518 778 549 L 740 567 Q 691 591 662 601 Q 655 604 654 594 Q 654 585 721 535 L 751 510 Z"/>
  <path id="z36749d9" d="M 544 224 Q 562 255 580 299 Q 590 321 610 337 Q 620 344 620 352 Q 619 362 596 373 Q 568 388 556 387 Q 547 386 538 378 Q 465 347 451 343 Q 423 342 420 334 Q 420 331 425 327 Q 437 320 461 317 Q 480 320 511 339 Q 527 346 536 342 Q 542 338 530 295 Q 523 270 509 243 L 492 215 Q 450 158 392 124 Q 385 120 387 116 Q 388 112 393 113 Q 453 117 519 189 L 544 224 Z"/>
  <path id="z36749d10" d="M 519 189 Q 564 144 576 142 Q 588 141 592 144 Q 598 151 593 169 Q 584 202 544 224 L 509 243 Q 463 268 449 271 Q 442 270 445 264 Q 445 263 492 215 L 519 189 Z"/>
  <path id="z36749d11" d="M 760 197 Q 788 245 806 317 Q 810 348 825 364 Q 838 377 822 390 Q 803 402 773 411 Q 754 415 737 405 Q 716 389 685 377 Q 663 374 653 367 Q 646 361 662 354 Q 689 342 733 366 Q 751 373 752 352 Q 752 300 725 231 L 705 193 Q 669 139 567 101 Q 554 97 563 90 Q 570 86 594 91 Q 684 104 731 154 L 760 197 Z"/>
  <path id="z36749d12" d="M 731 154 Q 761 114 809 61 Q 831 42 867 47 Q 913 53 948 57 Q 958 58 969 62 Q 976 68 967 76 Q 955 83 860 128 Q 818 146 760 197 L 725 231 Q 700 259 671 296 Q 658 314 633 319 Q 624 320 617 317 Q 613 311 619 305 Q 623 301 630 296 Q 645 287 705 193 L 731 154 Z"/>
<defs>
  <clipPath id="z36749c1"><use href="#z36749d1"/></clipPath>
  <clipPath id="z36749c2"><use href="#z36749d2"/></clipPath>
  <clipPath id="z36749c3"><use href="#z36749d3"/></clipPath>
  <clipPath id="z36749c4"><use href="#z36749d4"/></clipPath>
  <clipPath id="z36749c5"><use href="#z36749d5"/></clipPath>
  <clipPath id="z36749c6"><use href="#z36749d6"/></clipPath>
  <clipPath id="z36749c7"><use href="#z36749d7"/></clipPath>
  <clipPath id="z36749c8"><use href="#z36749d8"/></clipPath>
  <clipPath id="z36749c9"><use href="#z36749d9"/></clipPath>
  <clipPath id="z36749c10"><use href="#z36749d10"/></clipPath>
  <clipPath id="z36749c11"><use href="#z36749d11"/></clipPath>
  <clipPath id="z36749c12"><use href="#z36749d12"/></clipPath>
</defs>
<path style="--d:1s;" pathLength="3333" clip-path="url(#z36749c1)" d="M 136 621 L 158 616 L 198 619 L 375 668 L 416 667"/>
<path style="--d:2s;" pathLength="3333" clip-path="url(#z36749c2)" d="M 275 815 L 295 787 L 305 759 L 256 610 L 180 432 L 176 408 L 207 405 L 374 448 L 411 445"/>
<path style="--d:3s;" pathLength="3333" clip-path="url(#z36749c3)" d="M 294 540 L 322 502 L 303 82 L 313 0"/>
<path style="--d:4s;" pathLength="3333" clip-path="url(#z36749c4)" d="M 99 222 L 151 212 L 388 333"/>
<path style="--d:5s;" pathLength="3333" clip-path="url(#z36749c5)" d="M 451 638 L 487 636 L 554 665 L 578 665 L 594 651 L 569 563 L 533 493 L 490 450 L 439 419"/>
<path style="--d:6s;" pathLength="3333" clip-path="url(#z36749c6)" d="M 467 567 L 564 507 L 592 467"/>
<path style="--d:7s;" pathLength="3333" clip-path="url(#z36749c7)" d="M 657 685 L 689 680 L 768 711 L 795 709 L 809 695 L 779 601 L 740 527 L 687 473 L 628 438"/>
<path style="--d:8s;" pathLength="3333" clip-path="url(#z36749c8)" d="M 661 594 L 824 488 L 849 444"/>
<path style="--d:9s;" pathLength="3333" clip-path="url(#z36749c9)" d="M 426 333 L 463 332 L 533 360 L 559 359 L 571 347 L 541 261 L 509 205 L 453 150 L 392 118"/>
<path style="--d:10s;" pathLength="3333" clip-path="url(#z36749c10)" d="M 450 266 L 540 201 L 586 151"/>
<path style="--d:11s;" pathLength="3333" clip-path="url(#z36749c11)" d="M 660 363 L 691 364 L 751 388 L 771 382 L 785 365 L 767 273 L 731 193 L 700 154 L 660 126 L 569 94"/>
<path style="--d:12s;" pathLength="3333" clip-path="url(#z36749c12)" d="M 622 312 L 656 291 L 747 174 L 833 95 L 870 83 L 961 68"/>
</svg>