<svg id="z39067" class="acjk" viewBox="0 0 1024 1024" xmlns="http://www.w3.org/2000/svg">
<style>
<![CDATA[
@keyframes zk {
	to {
		stroke-dashoffset:0;
	}
}
svg.acjk path[clip-path] {
	--t:0.8s;
	animation:zk var(--t) linear forwards var(--d);
	stroke-dasharray:3337;
	stroke-dashoffset:3339;
	stroke-width:128;
	stroke-linecap:round;
	stroke-linejoin:round;
	fill:none;
	stroke:#000;
}
svg.acjk path[id] {fill:#ccc;}
]]>
</style>
  <path id="z39067d1" d="M 355 584 Q 373 749 384 774 Q 387 783 370 796 Q 340 812 320 816 Q 307 819 300 812 Q 293 806 300 793 Q 313 774 314 761 Q 321 677 319 577 C 318 547 352 554 355 584 Z"/>
  <path id="z39067d2" d="M 429 599 Q 389 593 355 584 L 319 577 Q 273 567 232 553 Q 219 550 223 566 Q 238 650 231 663 Q 219 679 199 692 Q 189 696 181 696 Q 171 692 177 676 Q 193 633 183 593 Q 176 554 159 537 Q 143 522 149 510 Q 159 497 174 488 Q 186 481 194 488 Q 227 527 398 562 Q 414 565 426 565 C 456 567 459 604 429 599 Z"/>
  <path id="z39067d3" d="M 426 565 Q 429 546 434 532 Q 441 517 452 527 Q 473 546 484 616 Q 499 677 509 690 Q 516 702 509 714 Q 494 729 468 747 Q 458 754 447 750 Q 440 747 442 735 Q 460 705 437 617 Q 433 608 429 599 C 423 585 423 585 426 565 Z"/>
  <path id="z39067d4" d="M 280 414 Q 335 433 393 450 Q 421 460 425 464 Q 432 471 428 478 Q 421 488 395 491 Q 374 494 295 461 Q 238 443 192 433 Q 161 424 185 412 Q 210 403 248 405 L 280 414 Z"/>
  <path id="z39067d5" d="M 256 333 Q 287 372 293 378 Q 303 387 298 394 Q 294 404 280 414 C 256 432 249 435 248 405 Q 248 387 233 339 Q 229 332 227 326 C 217 298 237 310 256 333 Z"/>
  <path id="z39067d6" d="M 158 308 Q 143 323 112 317 Q 102 313 107 303 Q 143 254 124 155 Q 111 116 143 87 L 145 85 Q 152 75 160 80 Q 175 96 177 188 Q 171 258 172 278 C 172 297 172 297 158 308 Z"/>
  <path id="z39067d7" d="M 338 324 Q 417 343 431 331 Q 437 325 435 315 Q 434 162 423 141 Q 422 134 412 137 Q 394 138 375 142 Q 356 143 369 131 Q 412 94 431 67 Q 440 57 450 65 Q 471 87 477 175 Q 477 295 489 315 Q 499 331 495 337 Q 488 347 449 369 Q 436 378 387 361 Q 332 355 256 333 L 227 326 Q 217 325 210 321 Q 180 314 158 308 C 129 300 142 274 172 278 Q 182 277 195 282 Q 205 288 222 293 L 223 292 L 246 301 Q 262 310 309 319 L 338 324 Z"/>
  <path id="z39067d8" d="M 223 292 Q 235 243 232 169 Q 229 147 239 130 Q 248 114 253 123 Q 262 136 263 170 Q 264 258 267 277 Q 268 287 266 290 Q 262 294 246 301 C 219 313 218 314 223 292 Z"/>
  <path id="z39067d9" d="M 323 148 Q 326 132 329 126 Q 333 122 338 123 Q 342 124 346 135 Q 349 144 363 274 Q 363 283 367 294 Q 368 304 361 311 Q 348 321 338 324 C 310 335 300 339 309 319 Q 316 312 321 221 Q 318 197 323 148 Z"/>
  <path id="z39067d10" d="M 663 688 Q 747 704 835 720 Q 880 729 886 735 Q 896 742 891 752 Q 884 764 854 772 Q 823 779 793 768 Q 742 752 687 739 Q 626 726 555 721 Q 518 717 544 698 Q 577 679 623 681 L 663 688 Z"/>
  <path id="z39067d11" d="M 623 567 Q 627 574 634 581 Q 679 635 681 638 Q 696 648 689 659 Q 682 672 663 688 C 640 708 621 711 623 681 Q 626 660 599 585 Q 592 573 590 563 C 583 534 607 542 623 567 Z"/>
  <path id="z39067d12" d="M 573 562 Q 555 575 536 580 Q 529 581 523 575 Q 544 488 544 395 Q 543 389 543 383 Q 542 343 530 304 Q 524 282 528 266 Q 537 238 547 227 Q 557 215 564 227 Q 585 257 586 411 Q 586 537 598 537 C 602 543 598 546 573 562 Z"/>
  <path id="z39067d13" d="M 786 284 Q 779 262 792 243 Q 805 218 814 218 Q 827 219 841 250 Q 854 274 852 293 Q 821 488 855 544 Q 868 568 824 589 Q 808 599 787 607 Q 774 611 752 604 Q 698 582 623 567 L 590 563 Q 581 563 573 562 C 543 560 569 531 598 537 Q 641 546 677 552 Q 753 570 770 558 Q 780 539 785 483 Q 794 317 786 284 Z"/>
  <path id="z39067d14" d="M 653 408 Q 665 204 597 128 Q 585 116 569 103 Q 538 78 466 44 Q 453 40 450 37 Q 446 33 460 29 Q 535 23 633 95 Q 642 104 651 114 Q 700 177 705 337 Q 709 412 718 439 Q 722 449 714 456 Q 696 471 663 483 Q 644 492 628 486 Q 610 479 625 462 Q 652 437 653 408 Z"/>
  <path id="z39067d15" d="M 737 163 Q 786 105 843 21 Q 856 -1 872 -8 Q 879 -11 889 -2 Q 904 10 897 56 Q 893 114 747 192 Q 744 193 743 194 Q 734 201 731 188 Q 728 175 737 163 Z"/>
<defs>
  <clipPath id="z39067c1"><use href="#z39067d1"/></clipPath>
  <clipPath id="z39067c2"><use href="#z39067d2"/></clipPath>
  <clipPath id="z39067c3"><use href="#z39067d3"/></clipPath>
  <clipPath id="z39067c4"><use href="#z39067d4"/></clipPath>
  <clipPath id="z39067c5"><use href="#z39067d5"/></clipPath>
  <clipPath id="z39067c6"><use href="#z39067d6"/></clipPath>
  <clipPath id="z39067c7"><use href="#z39067d7"/></clipPath>
  <clipPath id="z39067c8"><use href="#z39067d8"/></clipPath>
  <clipPath id="z39067c9"><use href="#z39067d9"/></clipPath>
  <clipPath id="z39067c10"><use href="#z39067d10"/></clipPath>
  <clipPath id="z39067c11"><use href="#z39067d11"/></clipPath>
  <clipPath id="z39067c12"><use href="#z39067d12"/></clipPath>
  <clipPath id="z39067c13"><use href="#z39067d13"/></clipPath>
  <clipPath id="z39067c14"><use href="#z39067d14"/></clipPath>
  <clipPath id="z39067c15"><use href="#z39067d15"/></clipPath>
</defs>
<path style="--d:1s;" pathLength="3333" clip-path="url(#z39067c1)" d="M 310 803 L 347 767 L 341 622 L 338 602 L 324 585"/>
<path style="--d:2s;" pathLength="3333" clip-path="url(#z39067c2)" d="M 184 687 L 209 653 L 210 619 L 199 559 L 203 536 L 234 534 L 328 563 L 403 578 L 422 594"/>
<path style="--d:3s;" pathLength="3333" clip-path="url(#z39067c3)" d="M 454 739 L 479 697 L 444 533"/>
<path style="--d:4s;" pathLength="3333" clip-path="url(#z39067c4)" d="M 186 423 L 239 423 L 377 468 L 418 473"/>
<path style="--d:5s;" pathLength="3333" clip-path="url(#z39067c5)" d="M 288 388 L 269 387 L 253 349 L 233 331"/>
<path style="--d:6s;" pathLength="3333" clip-path="url(#z39067c6)" d="M 122 305 L 140 293 L 148 273 L 154 197 L 147 125 L 154 88"/>
<path style="--d:7s;" pathLength="3333" clip-path="url(#z39067c7)" d="M 165 305 L 184 296 L 268 324 L 402 352 L 434 352 L 448 346 L 463 327 L 456 276 L 456 188 L 447 131 L 433 112 L 380 132"/>
<path style="--d:8s;" pathLength="3333" clip-path="url(#z39067c8)" d="M 231 287 L 246 276 L 247 267 L 248 130"/>
<path style="--d:9s;" pathLength="3333" clip-path="url(#z39067c9)" d="M 320 314 L 340 294 L 336 133"/>
<path style="--d:10s;" pathLength="3333" clip-path="url(#z39067c10)" d="M 547 711 L 615 703 L 831 748 L 880 746"/>
<path style="--d:11s;" pathLength="3333" clip-path="url(#z39067c11)" d="M 630 678 L 651 651 L 614 581 L 595 567"/>
<path style="--d:12s;" pathLength="3333" clip-path="url(#z39067c12)" d="M 533 570 L 562 529 L 567 399 L 552 275 L 556 230"/>
<path style="--d:13s;" pathLength="3333" clip-path="url(#z39067c13)" d="M 578 558 L 603 550 L 774 584 L 794 573 L 814 551 L 810 472 L 820 299 L 815 228"/>
<path style="--d:14s;" pathLength="3333" clip-path="url(#z39067c14)" d="M 631 473 L 673 448 L 683 432 L 676 270 L 653 170 L 634 133 L 583 86 L 528 56 L 456 34"/>
<path style="--d:15s;" pathLength="3333" clip-path="url(#z39067c15)" d="M 741 184 L 843 84 L 862 55 L 876 8"/>
</svg>