<svg id="z38393" class="acjk" viewBox="0 0 1024 1024" xmlns="http://www.w3.org/2000/svg">
<style>
<![CDATA[
@keyframes zk {
	to {
		stroke-dashoffset:0;
	}
}
svg.acjk path[clip-path] {
	--t:0.8s;
	animation:zk var(--t) linear forwards var(--d);
	stroke-dasharray:3337;
	stroke-dashoffset:3339;
	stroke-width:128;
	stroke-linecap:round;
	stroke-linejoin:round;
	fill:none;
	stroke:#000;
}
svg.acjk path[id] {fill:#ccc;}
]]>
</style>
  <path id="z38393d1" d="M 303 761 Q 361 677 390 674 Q 406 671 414 692 Q 417 707 408 731 Q 398 750 371 764 Q 329 786 311 791 Q 301 794 298 781 Q 295 771 303 761 Z"/>
  <path id="z38393d2" d="M 176 688 Q 231 541 186 227 Q 156 104 157 94 Q 157 63 179 37 Q 192 22 202 37 Q 239 76 240 242 Q 240 569 257 653 Q 258 672 242 683 Q 217 704 189 712 Q 179 715 172 706 Q 168 699 176 688 Z"/>
  <path id="z38393d3" d="M 507 742 Q 491 743 495 732 Q 502 719 524 709 Q 539 699 571 708 Q 739 754 761 724 Q 791 678 788 270 Q 787 200 784 124 Q 783 84 768 72 Q 752 60 673 75 Q 657 76 658 67 Q 659 60 673 55 Q 743 12 782 -22 Q 804 -41 817 -38 Q 829 -34 839 -6 Q 854 40 850 106 Q 819 661 841 710 Q 854 732 843 744 Q 833 759 785 782 Q 764 794 697 773 Q 594 752 507 742 Z"/>
  <path id="z38393d4" d="M 461 590 Q 480 574 500 552 Q 510 542 524 541 Q 533 542 537 553 Q 541 565 534 589 Q 528 610 458 630 Q 445 633 440 631 Q 436 627 437 617 Q 440 607 461 590 Z"/>
  <path id="z38393d5" d="M 501 476 Q 648 506 655 510 Q 662 517 659 525 Q 652 535 626 543 Q 598 549 571 538 Q 528 525 481 513 Q 429 503 369 498 Q 335 492 359 477 Q 395 453 448 466 Q 451 467 456 466 L 501 476 Z"/>
  <path id="z38393d6" d="M 370 379 Q 355 394 337 399 Q 333 402 328 397 Q 324 391 327 381 Q 346 342 333 243 Q 329 224 335 208 Q 344 192 357 181 Q 367 172 370 182 Q 376 185 378 202 Q 382 212 381 251 Q 382 318 385 342 Q 386 346 386 349 C 388 362 388 362 370 379 Z"/>
  <path id="z38393d7" d="M 528 372 Q 565 379 602 381 Q 629 385 632 367 Q 638 256 624 240 Q 615 234 569 242 Q 556 245 552 241 Q 551 237 560 228 Q 606 195 633 170 Q 646 158 657 170 Q 678 198 680 260 Q 680 347 686 372 Q 689 390 680 398 Q 658 420 640 429 Q 630 433 621 426 Q 615 419 529 400 L 475 392 Q 435 388 370 379 C 340 375 356 347 386 349 Q 393 349 402 350 Q 439 359 476 364 L 528 372 Z"/>
  <path id="z38393d8" d="M 480 49 Q 484 27 491 18 Q 495 12 503 14 Q 530 35 526 175 Q 525 217 528 372 L 529 400 Q 532 415 536 437 Q 539 453 527 461 Q 512 471 501 476 C 474 490 440 492 456 466 Q 456 465 466 450 Q 475 435 475 392 L 476 364 Q 477 283 477 171 Q 477 80 480 49 Z"/>
<defs>
  <clipPath id="z38393c1"><use href="#z38393d1"/></clipPath>
  <clipPath id="z38393c2"><use href="#z38393d2"/></clipPath>
  <clipPath id="z38393c3"><use href="#z38393d3"/></clipPath>
  <clipPath id="z38393c4"><use href="#z38393d4"/></clipPath>
  <clipPath id="z38393c5"><use href="#z38393d5"/></clipPath>
  <clipPath id="z38393c6"><use href="#z38393d6"/></clipPath>
  <clipPath id="z38393c7"><use href="#z38393d7"/></clipPath>
  <clipPath id="z38393c8"><use href="#z38393d8"/></clipPath>
</defs>
<path style="--d:1s;" pathLength="3333" clip-path="url(#z38393c1)" d="M 308 781 L 375 722 L 393 695"/>
<path style="--d:2s;" pathLength="3333" clip-path="url(#z38393c2)" d="M 182 701 L 222 655 L 225 586 L 221 326 L 209 188 L 190 80 L 191 42"/>
<path style="--d:3s;" pathLength="3333" clip-path="url(#z38393c3)" d="M 505 733 L 537 725 L 580 729 L 713 758 L 748 760 L 781 749 L 804 722 L 817 229 L 815 82 L 797 31 L 736 42 L 684 65 L 666 67"/>
<path style="--d:4s;" pathLength="3333" clip-path="url(#z38393c4)" d="M 444 623 L 504 585 L 522 557"/>
<path style="--d:5s;" pathLength="3333" clip-path="url(#z38393c5)" d="M 361 489 L 384 482 L 421 482 L 605 522 L 650 519"/>
<path style="--d:6s;" pathLength="3333" clip-path="url(#z38393c6)" d="M 334 391 L 355 364 L 361 340 L 356 220 L 363 193"/>
<path style="--d:7s;" pathLength="3333" clip-path="url(#z38393c7)" d="M 379 378 L 388 369 L 406 367 L 620 402 L 648 393 L 659 374 L 656 252 L 647 220 L 639 209 L 558 235"/>
<path style="--d:8s;" pathLength="3333" clip-path="url(#z38393c8)" d="M 464 467 L 497 447 L 504 436 L 499 22"/>
</svg>