<svg id="z30100" class="acjk" viewBox="0 0 1024 1024" xmlns="http://www.w3.org/2000/svg">
<style>
<![CDATA[
@keyframes zk {
	to {
		stroke-dashoffset:0;
	}
}
svg.acjk path[clip-path] {
	--t:0.8s;
	animation:zk var(--t) linear forwards var(--d);
	stroke-dasharray:3337;
	stroke-dashoffset:3339;
	stroke-width:128;
	stroke-linecap:round;
	stroke-linejoin:round;
	fill:none;
	stroke:#000;
}
svg.acjk path[id] {fill:#ccc;}
]]>
</style>
  <path id="z30100d1" d="M 523 792 Q 548 770 577 742 Q 593 727 611 728 Q 623 729 628 745 Q 634 761 623 795 Q 611 826 517 847 Q 499 851 492 847 Q 486 843 488 828 Q 492 815 523 792 Z"/>
  <path id="z30100d2" d="M 364 606 Q 409 599 502 612 Q 764 658 789 665 Q 801 669 805 672 Q 815 681 811 690 Q 804 705 771 714 Q 738 721 631 689 Q 480 653 349 645 Q 348 645 348 644 C 318 640 334 609 364 606 Z"/>
  <path id="z30100d3" d="M 278 356 Q 247 185 138 11 Q 134 4 131 -2 Q 130 -12 140 -10 Q 168 -7 245 114 Q 260 141 275 172 Q 332 304 354 538 Q 357 587 363 604 Q 363 605 364 606 C 370 630 370 630 348 644 Q 335 654 315 663 Q 296 673 282 668 Q 270 661 277 647 Q 295 622 296 564 Q 295 548 295 529 Q 294 456 283 390 L 278 356 Z"/>
  <path id="z30100d4" d="M 151 537 Q 170 513 190 486 Q 200 471 216 470 Q 226 469 233 481 Q 240 494 235 524 Q 232 542 208 558 Q 147 591 132 587 Q 128 584 127 571 Q 128 561 151 537 Z"/>
  <path id="z30100d5" d="M 283 390 Q 96 315 65 313 Q 52 310 52 300 Q 51 287 61 281 Q 83 268 117 253 Q 127 252 137 261 Q 165 291 278 356 C 304 371 311 401 283 390 Z"/>
  <path id="z30100d6" d="M 622 453 Q 706 465 847 465 Q 868 466 872 475 Q 878 487 860 501 Q 800 543 739 523 Q 576 490 380 459 Q 358 456 375 439 Q 409 411 448 420 Q 505 436 570 446 L 622 453 Z"/>
  <path id="z30100d7" d="M 539 67 Q 517 74 489 83 Q 477 87 477 80 Q 477 73 487 62 Q 545 7 584 -37 Q 596 -47 610 -31 Q 647 23 648 120 Q 638 261 647 395 Q 654 422 648 432 Q 641 442 622 453 C 597 470 559 474 570 446 Q 585 416 585 350 Q 585 268 587 107 Q 586 76 575 65 Q 565 58 539 67 Z"/>
<defs>
  <clipPath id="z30100c1"><use href="#z30100d1"/></clipPath>
  <clipPath id="z30100c2"><use href="#z30100d2"/></clipPath>
  <clipPath id="z30100c3"><use href="#z30100d3"/></clipPath>
  <clipPath id="z30100c4"><use href="#z30100d4"/></clipPath>
  <clipPath id="z30100c5"><use href="#z30100d5"/></clipPath>
  <clipPath id="z30100c6"><use href="#z30100d6"/></clipPath>
  <clipPath id="z30100c7"><use href="#z30100d7"/></clipPath>
</defs>
<path style="--d:1s;" pathLength="3333" clip-path="url(#z30100c1)" d="M 499 838 L 589 781 L 608 748"/>
<path style="--d:2s;" pathLength="3333" clip-path="url(#z30100c2)" d="M 354 639 L 379 626 L 470 632 L 738 685 L 797 685"/>
<path style="--d:3s;" pathLength="3333" clip-path="url(#z30100c3)" d="M 288 655 L 322 623 L 327 604 L 321 475 L 298 327 L 264 209 L 222 114 L 178 44 L 140 -1"/>
<path style="--d:4s;" pathLength="3333" clip-path="url(#z30100c4)" d="M 135 581 L 196 529 L 217 488"/>
<path style="--d:5s;" pathLength="3333" clip-path="url(#z30100c5)" d="M 66 299 L 118 291 L 231 352 L 261 362 L 270 375"/>
<path style="--d:6s;" pathLength="3333" clip-path="url(#z30100c6)" d="M 377 449 L 437 443 L 618 477 L 777 497 L 826 492 L 860 481"/>
<path style="--d:7s;" pathLength="3333" clip-path="url(#z30100c7)" d="M 577 443 L 606 424 L 616 410 L 618 111 L 612 63 L 589 23 L 547 38 L 484 78"/>
</svg>