<svg id="z38552" class="acjk" viewBox="0 0 1024 1024" xmlns="http://www.w3.org/2000/svg">
<style>
<![CDATA[
@keyframes zk {
	to {
		stroke-dashoffset:0;
	}
}
svg.acjk path[clip-path] {
	--t:0.8s;
	animation:zk var(--t) linear forwards var(--d);
	stroke-dasharray:3337;
	stroke-dashoffset:3339;
	stroke-width:128;
	stroke-linecap:round;
	stroke-linejoin:round;
	fill:none;
	stroke:#000;
}
svg.acjk path[id] {fill:#ccc;}
]]>
</style>
  <path id="z38552d1" d="M 221 674 Q 261 681 302 699 Q 321 709 332 698 Q 339 692 329 673 Q 284 577 295 557 Q 295 556 298 552 Q 361 462 345 444 Q 339 432 316 435 Q 286 438 255 436 Q 233 435 259 423 Q 314 401 365 371 Q 380 359 392 373 Q 405 383 410 408 Q 420 465 349 541 Q 309 581 346 620 Q 385 680 408 695 Q 427 705 418 719 Q 405 738 369 757 Q 350 764 335 754 Q 277 714 209 702 C 180 696 192 668 221 674 Z"/>
  <path id="z38552d2" d="M 209 702 Q 194 717 166 727 Q 154 731 142 727 Q 133 721 140 707 Q 144 691 150 676 Q 186 613 167 224 Q 161 170 146 107 Q 131 43 171 -6 Q 184 -22 196 -7 Q 215 23 214 154 Q 217 625 220 656 Q 221 666 221 674 C 222 692 222 692 209 702 Z"/>
  <path id="z38552d3" d="M 501 709 Q 520 685 542 657 Q 552 644 566 643 Q 575 642 581 653 Q 587 665 583 692 Q 582 710 556 726 Q 496 757 484 755 Q 480 752 479 741 Q 480 731 501 709 Z"/>
  <path id="z38552d4" d="M 717 772 Q 711 759 654 674 Q 645 658 661 662 Q 691 680 761 731 Q 779 747 801 759 Q 822 769 810 787 Q 797 803 770 815 Q 745 828 733 824 Q 721 823 726 809 Q 730 791 717 772 Z"/>
  <path id="z38552d5" d="M 486 574 Q 449 567 475 550 Q 520 526 575 540 Q 662 556 752 576 Q 792 586 799 591 Q 808 598 803 608 Q 796 620 766 627 Q 741 633 640 601 Q 498 577 486 574 Z"/>
  <path id="z38552d6" d="M 532 492 Q 523 444 408 350 Q 392 338 413 341 Q 462 341 555 432 Q 577 454 588 464 Q 597 473 595 481 Q 594 491 572 498 Q 550 507 540 504 Q 534 503 532 492 Z"/>
  <path id="z38552d7" d="M 675 484 Q 739 447 819 388 Q 835 375 848 373 Q 855 373 860 382 Q 869 395 851 429 Q 830 478 671 510 Q 662 513 663 502 Q 664 492 675 484 Z"/>
  <path id="z38552d8" d="M 438 291 Q 425 298 407 300 Q 397 303 390 297 Q 384 291 391 280 Q 409 258 419 234 Q 428 209 456 105 C 464 76 494 79 488 108 Q 464 225 463 259 C 462 280 462 280 438 291 Z"/>
  <path id="z38552d9" d="M 809 141 Q 840 243 868 283 Q 878 292 874 303 Q 868 318 814 345 Q 799 352 786 349 Q 629 315 438 291 C 408 287 434 252 463 259 Q 470 260 475 262 Q 506 269 538 275 L 563 280 Q 603 290 649 296 L 692 303 Q 767 319 785 307 Q 791 303 790 285 Q 778 222 754 134 C 746 105 800 112 809 141 Z"/>
  <path id="z38552d10" d="M 590 116 Q 594 149 566 268 Q 566 275 563 280 C 552 308 534 305 538 275 Q 556 131 557 129 Q 557 123 566 114 C 586 92 588 90 590 116 Z"/>
  <path id="z38552d11" d="M 669 124 Q 687 167 702 223 Q 706 242 718 266 Q 728 279 719 286 Q 710 295 692 303 C 665 316 631 320 649 296 Q 673 272 647 142 Q 646 130 645 121 C 642 91 658 96 669 124 Z"/>
  <path id="z38552d12" d="M 456 105 Q 398 102 341 97 Q 320 96 335 78 Q 348 65 365 59 Q 384 52 401 56 Q 611 102 925 82 Q 944 82 949 90 Q 955 100 940 115 Q 886 157 827 144 Q 818 144 809 141 L 754 134 Q 714 130 669 124 L 645 121 Q 635 122 624 120 Q 608 119 590 116 L 566 114 Q 526 113 488 108 L 456 105 Z"/>
<defs>
  <clipPath id="z38552c1"><use href="#z38552d1"/></clipPath>
  <clipPath id="z38552c2"><use href="#z38552d2"/></clipPath>
  <clipPath id="z38552c3"><use href="#z38552d3"/></clipPath>
  <clipPath id="z38552c4"><use href="#z38552d4"/></clipPath>
  <clipPath id="z38552c5"><use href="#z38552d5"/></clipPath>
  <clipPath id="z38552c6"><use href="#z38552d6"/></clipPath>
  <clipPath id="z38552c7"><use href="#z38552d7"/></clipPath>
  <clipPath id="z38552c8"><use href="#z38552d8"/></clipPath>
  <clipPath id="z38552c9"><use href="#z38552d9"/></clipPath>
  <clipPath id="z38552c10"><use href="#z38552d10"/></clipPath>
  <clipPath id="z38552c11"><use href="#z38552d11"/></clipPath>
  <clipPath id="z38552c12"><use href="#z38552d12"/></clipPath>
</defs>
<path style="--d:1s;" pathLength="3333" clip-path="url(#z38552c1)" d="M 218 697 L 238 693 L 326 724 L 355 725 L 368 712 L 361 685 L 320 615 L 311 568 L 369 478 L 378 442 L 373 418 L 344 411 L 263 431"/>
<path style="--d:2s;" pathLength="3333" clip-path="url(#z38552c2)" d="M 150 716 L 173 695 L 188 669 L 193 609 L 193 225 L 177 81 L 184 0"/>
<path style="--d:3s;" pathLength="3333" clip-path="url(#z38552c3)" d="M 487 746 L 547 698 L 567 658"/>
<path style="--d:4s;" pathLength="3333" clip-path="url(#z38552c4)" d="M 733 815 L 761 778 L 661 670"/>
<path style="--d:5s;" pathLength="3333" clip-path="url(#z38552c5)" d="M 478 563 L 537 558 L 749 602 L 792 602"/>
<path style="--d:6s;" pathLength="3333" clip-path="url(#z38552c6)" d="M 581 478 L 557 474 L 532 439 L 490 397 L 417 349"/>
<path style="--d:7s;" pathLength="3333" clip-path="url(#z38552c7)" d="M 673 500 L 795 442 L 834 409 L 847 387"/>
<path style="--d:8s;" pathLength="3333" clip-path="url(#z38552c8)" d="M 398 290 L 425 272 L 441 244 L 467 124 L 482 118"/>
<path style="--d:9s;" pathLength="3333" clip-path="url(#z38552c9)" d="M 447 289 L 469 278 L 754 328 L 800 326 L 824 301 L 827 288 L 789 165 L 760 142"/>
<path style="--d:10s;" pathLength="3333" clip-path="url(#z38552c10)" d="M 558 272 L 551 261 L 557 254 L 574 131 L 584 120"/>
<path style="--d:11s;" pathLength="3333" clip-path="url(#z38552c11)" d="M 656 297 L 688 269 L 667 161 L 651 125"/>
<path style="--d:12s;" pathLength="3333" clip-path="url(#z38552c12)" d="M 338 87 L 385 77 L 609 102 L 850 117 L 883 114 L 938 96"/>
</svg>