<svg id="z38125" class="acjk" viewBox="0 0 1024 1024" xmlns="http://www.w3.org/2000/svg">
<style>
<![CDATA[
@keyframes zk {
	to {
		stroke-dashoffset:0;
	}
}
svg.acjk path[clip-path] {
	--t:0.8s;
	animation:zk var(--t) linear forwards var(--d);
	stroke-dasharray:3337;
	stroke-dashoffset:3339;
	stroke-width:128;
	stroke-linecap:round;
	stroke-linejoin:round;
	fill:none;
	stroke:#000;
}
svg.acjk path[id] {fill:#ccc;}
]]>
</style>
  <path id="z38125d1" d="M 314 615 Q 336 652 354 684 Q 376 727 391 747 Q 398 759 390 773 Q 359 824 325 823 Q 309 822 315 802 Q 339 721 206 534 Q 149 455 74 376 Q 67 372 67 364 Q 67 360 73 360 Q 131 369 256 529 Q 257 533 261 536 Q 280 564 298 591 L 314 615 Z"/>
  <path id="z38125d2" d="M 298 591 Q 338 579 395 592 Q 482 614 489 618 Q 496 625 491 633 Q 484 643 457 649 Q 429 652 403 640 Q 381 631 358 625 Q 337 621 314 615 C 285 608 269 599 298 591 Z"/>
  <path id="z38125d3" d="M 294 440 Q 301 443 311 446 Q 438 488 442 490 Q 449 499 444 506 Q 437 516 409 519 Q 381 522 355 507 Q 328 495 299 485 Q 268 475 228 467 Q 197 458 221 445 Q 233 441 249 438 L 294 440 Z"/>
  <path id="z38125d4" d="M 321 309 Q 358 322 400 333 Q 433 343 437 349 Q 444 356 440 365 Q 433 375 403 380 Q 367 383 321 358 L 276 342 Q 272 342 270 340 Q 227 327 174 317 Q 140 308 166 294 Q 208 276 269 295 Q 272 296 278 297 L 321 309 Z"/>
  <path id="z38125d5" d="M 278 297 Q 278 176 237 121 Q 213 91 256 53 Q 268 46 278 62 Q 291 89 416 202 Q 432 215 436 223 Q 439 232 431 231 Q 419 231 323 172 Q 316 168 314 174 Q 320 247 321 309 L 321 358 Q 321 380 325 398 Q 331 416 294 440 C 270 458 236 465 249 438 Q 273 390 276 342 L 278 297 Z"/>
  <path id="z38125d6" d="M 629 610 Q 654 647 682 693 Q 703 733 722 752 Q 731 762 726 775 Q 722 787 695 807 Q 670 823 652 823 Q 634 822 642 800 Q 655 775 646 752 Q 618 676 574 605 Q 532 536 473 461 Q 464 451 462 445 Q 459 435 473 438 Q 483 439 527 482 L 543 499 Q 577 541 616 591 L 629 610 Z"/>
  <path id="z38125d7" d="M 600 243 Q 711 376 810 541 Q 829 571 863 600 Q 878 612 872 621 Q 869 631 806 653 Q 787 662 768 648 Q 735 630 629 610 C 600 604 587 600 616 591 Q 640 573 727 595 Q 749 601 758 592 Q 762 583 748 558 Q 676 393 552 255 Q 549 255 549 253 L 545 246 Q 472 167 365 66 Q 352 53 366 54 Q 423 63 560 200 L 600 243 Z"/>
  <path id="z38125d8" d="M 527 482 Q 531 475 542 462 Q 590 402 600 400 Q 607 399 613 409 Q 619 419 616 443 Q 615 459 593 475 Q 572 487 543 499 C 515 511 511 507 527 482 Z"/>
  <path id="z38125d9" d="M 611 238 Q 608 241 600 243 C 572 253 553 260 549 253 Q 546 252 545 246 L 560 200 Q 578 145 587 67 Q 588 37 604 16 Q 620 -6 627 9 Q 633 22 633 44 L 630 82 Q 620 175 617 207 C 614 236 614 236 611 238 Z"/>
  <path id="z38125d10" d="M 841 100 Q 866 188 901 214 Q 917 233 903 252 Q 824 312 767 279 Q 697 255 611 238 C 582 232 587 202 617 207 Q 626 208 779 240 Q 795 244 803 238 Q 816 222 788 109 C 781 80 832 71 841 100 Z"/>
  <path id="z38125d11" d="M 633 44 Q 640 43 649 44 Q 713 56 853 62 Q 865 63 867 73 Q 867 80 841 100 L 788 109 Q 784 110 781 109 Q 697 91 630 82 C 600 78 603 46 633 44 Z"/>
<defs>
  <clipPath id="z38125c1"><use href="#z38125d1"/></clipPath>
  <clipPath id="z38125c2"><use href="#z38125d2"/></clipPath>
  <clipPath id="z38125c3"><use href="#z38125d3"/></clipPath>
  <clipPath id="z38125c4"><use href="#z38125d4"/></clipPath>
  <clipPath id="z38125c5"><use href="#z38125d5"/></clipPath>
  <clipPath id="z38125c6"><use href="#z38125d6"/></clipPath>
  <clipPath id="z38125c7"><use href="#z38125d7"/></clipPath>
  <clipPath id="z38125c8"><use href="#z38125d8"/></clipPath>
  <clipPath id="z38125c9"><use href="#z38125d9"/></clipPath>
  <clipPath id="z38125c10"><use href="#z38125d10"/></clipPath>
  <clipPath id="z38125c11"><use href="#z38125d11"/></clipPath>
</defs>
<path style="--d:1s;" pathLength="3333" clip-path="url(#z38125c1)" d="M 325 810 L 346 786 L 355 760 L 298 634 L 241 545 L 178 463 L 132 413 L 74 368"/>
<path style="--d:2s;" pathLength="3333" clip-path="url(#z38125c2)" d="M 305 595 L 449 629 L 483 626"/>
<path style="--d:3s;" pathLength="3333" clip-path="url(#z38125c3)" d="M 222 457 L 245 454 L 290 461 L 391 497 L 438 497"/>
<path style="--d:4s;" pathLength="3333" clip-path="url(#z38125c4)" d="M 167 306 L 226 306 L 365 350 L 429 359"/>
<path style="--d:5s;" pathLength="3333" clip-path="url(#z38125c5)" d="M 257 433 L 288 412 L 296 397 L 299 260 L 288 163 L 293 140 L 328 149 L 430 225"/>
<path style="--d:6s;" pathLength="3333" clip-path="url(#z38125c6)" d="M 652 809 L 665 800 L 686 767 L 655 700 L 560 548 L 510 483 L 470 445"/>
<path style="--d:7s;" pathLength="3333" clip-path="url(#z38125c7)" d="M 623 593 L 754 618 L 792 615 L 802 606 L 772 535 L 707 423 L 588 262 L 464 134 L 369 60"/>
<path style="--d:8s;" pathLength="3333" clip-path="url(#z38125c8)" d="M 536 482 L 556 474 L 583 451 L 603 410"/>
<path style="--d:9s;" pathLength="3333" clip-path="url(#z38125c9)" d="M 554 245 L 588 209 L 616 16"/>
<path style="--d:10s;" pathLength="3333" clip-path="url(#z38125c10)" d="M 617 215 L 637 228 L 793 265 L 824 260 L 853 231 L 822 132 L 797 120"/>
<path style="--d:11s;" pathLength="3333" clip-path="url(#z38125c11)" d="M 637 51 L 651 64 L 668 68 L 778 83 L 831 82 L 859 73"/>
</svg>