<svg id="z38907" class="acjk" viewBox="0 0 1024 1024" xmlns="http://www.w3.org/2000/svg">
<style>
<![CDATA[
@keyframes zk {
	to {
		stroke-dashoffset:0;
	}
}
svg.acjk path[clip-path] {
	--t:0.8s;
	animation:zk var(--t) linear forwards var(--d);
	stroke-dasharray:3337;
	stroke-dashoffset:3339;
	stroke-width:128;
	stroke-linecap:round;
	stroke-linejoin:round;
	fill:none;
	stroke:#000;
}
svg.acjk path[id] {fill:#ccc;}
]]>
</style>
  <path id="z38907d1" d="M 327 768 Q 355 749 386 725 Q 401 715 415 717 Q 425 718 429 732 Q 432 747 420 774 Q 407 801 316 813 Q 301 814 296 811 Q 292 807 294 795 Q 298 785 327 768 Z"/>
  <path id="z38907d2" d="M 399 625 Q 411 629 425 632 Q 468 642 475 649 Q 482 656 479 663 Q 472 672 449 677 Q 425 681 354 655 Q 264 628 166 614 Q 138 610 158 596 Q 194 577 237 588 Q 298 603 366 618 L 399 625 Z"/>
  <path id="z38907d3" d="M 210 528 Q 229 489 250 477 Q 260 473 268 481 Q 275 490 275 502 Q 272 529 237 548 Q 210 558 206 558 Q 202 558 201 548 Q 201 541 210 528 Z"/>
  <path id="z38907d4" d="M 373 481 Q 374 484 377 487 Q 393 512 409 542 Q 416 555 430 573 Q 443 583 435 593 Q 426 608 399 625 C 374 641 354 645 366 618 Q 366 617 368 614 Q 377 587 343 488 Q 339 481 337 472 C 329 443 357 455 373 481 Z"/>
  <path id="z38907d5" d="M 337 472 Q 145 427 60 417 Q 48 416 45 408 Q 42 398 57 387 Q 96 363 133 375 Q 290 432 474 460 Q 490 463 490 470 Q 491 482 474 490 Q 443 502 373 481 L 337 472 Z"/>
  <path id="z38907d6" d="M 198 324 Q 182 337 163 343 Q 157 346 153 342 Q 146 338 152 327 Q 180 261 172 114 Q 169 51 200 30 Q 213 24 218 51 Q 219 69 219 89 L 216 116 Q 216 156 216 197 L 216 221 Q 216 258 219 289 Q 220 295 219 299 L 198 324 Z"/>
  <path id="z38907d7" d="M 348 104 Q 364 79 377 49 Q 387 30 396 28 Q 406 28 415 49 Q 425 82 427 169 Q 420 281 429 313 Q 436 332 426 340 Q 419 350 387 365 Q 371 372 337 360 Q 285 342 198 324 C 169 318 190 290 219 299 Q 277 318 341 328 Q 360 331 365 324 Q 374 315 370 186 Q 371 140 366 131 Q 362 122 352 125 C 338 120 338 120 348 104 Z"/>
  <path id="z38907d8" d="M 216 197 Q 276 206 321 212 Q 340 215 333 226 Q 324 238 303 241 Q 272 244 216 221 C 188 210 186 193 216 197 Z"/>
  <path id="z38907d9" d="M 219 89 Q 226 88 237 90 Q 271 99 348 104 C 376 106 375 106 352 125 Q 345 131 334 138 Q 319 145 293 137 Q 250 125 216 116 C 187 108 189 91 219 89 Z"/>
  <path id="z38907d10" d="M 587 759 Q 577 763 562 763 Q 552 764 548 760 Q 544 754 552 741 Q 577 696 598 622 Q 602 600 617 585 Q 633 567 638 581 Q 641 591 639 609 L 633 636 Q 617 709 613 732 C 609 752 609 752 587 759 Z"/>
  <path id="z38907d11" d="M 827 664 Q 851 728 880 746 Q 896 762 883 779 Q 867 792 820 814 Q 805 821 729 792 Q 671 774 587 759 C 557 754 584 726 613 732 Q 620 733 770 770 Q 788 774 796 768 Q 805 758 779 670 C 771 641 816 636 827 664 Z"/>
  <path id="z38907d12" d="M 639 609 Q 646 608 657 610 Q 712 623 834 638 Q 843 639 844 646 Q 844 652 827 664 L 779 670 L 777 670 Q 698 648 633 636 C 604 630 609 610 639 609 Z"/>
  <path id="z38907d13" d="M 571 515 Q 549 525 534 524 Q 522 520 528 509 Q 570 425 542 264 Q 524 201 525 198 Q 525 177 545 151 Q 551 139 560 145 Q 569 152 577 174 L 585 206 Q 589 237 590 282 L 590 307 Q 590 353 590 386 L 590 411 Q 591 463 593 480 Q 593 484 593 487 C 594 506 594 506 571 515 Z"/>
  <path id="z38907d14" d="M 814 195 Q 815 186 823 176 Q 836 149 846 150 Q 859 151 874 184 Q 887 209 886 229 Q 873 308 871 434 Q 870 471 889 502 Q 899 518 891 527 Q 864 549 818 568 Q 802 572 780 564 Q 699 528 571 515 C 541 512 563 483 593 487 Q 599 487 606 488 Q 700 513 768 525 Q 792 529 800 517 Q 815 499 816 435 Q 823 263 816 223 L 814 195 Z"/>
  <path id="z38907d15" d="M 590 386 Q 594 385 604 386 Q 689 399 751 405 Q 773 409 765 421 Q 755 434 731 440 Q 706 443 590 411 C 561 403 560 389 590 386 Z"/>
  <path id="z38907d16" d="M 590 282 Q 596 281 605 282 Q 690 295 754 301 Q 776 305 769 317 Q 759 330 735 336 Q 707 339 590 307 C 561 299 560 284 590 282 Z"/>
  <path id="z38907d17" d="M 577 174 Q 586 173 596 174 Q 665 187 814 195 C 844 197 839 204 816 223 Q 812 227 804 232 Q 789 241 760 235 Q 663 216 585 206 C 555 202 547 176 577 174 Z"/>
  <path id="z38907d18" d="M 586 121 Q 576 63 425 -52 Q 404 -65 431 -64 Q 492 -64 608 40 Q 609 43 655 84 Q 665 94 664 104 Q 663 117 637 126 Q 609 138 597 135 Q 590 134 586 121 Z"/>
  <path id="z38907d19" d="M 754 108 Q 800 53 857 -25 Q 870 -47 884 -52 Q 893 -55 901 -46 Q 914 -34 908 10 Q 901 62 758 138 Q 751 145 747 133 Q 744 120 754 108 Z"/>
<defs>
  <clipPath id="z38907c1"><use href="#z38907d1"/></clipPath>
  <clipPath id="z38907c2"><use href="#z38907d2"/></clipPath>
  <clipPath id="z38907c3"><use href="#z38907d3"/></clipPath>
  <clipPath id="z38907c4"><use href="#z38907d4"/></clipPath>
  <clipPath id="z38907c5"><use href="#z38907d5"/></clipPath>
  <clipPath id="z38907c6"><use href="#z38907d6"/></clipPath>
  <clipPath id="z38907c7"><use href="#z38907d7"/></clipPath>
  <clipPath id="z38907c8"><use href="#z38907d8"/></clipPath>
  <clipPath id="z38907c9"><use href="#z38907d9"/></clipPath>
  <clipPath id="z38907c10"><use href="#z38907d10"/></clipPath>
  <clipPath id="z38907c11"><use href="#z38907d11"/></clipPath>
  <clipPath id="z38907c12"><use href="#z38907d12"/></clipPath>
  <clipPath id="z38907c13"><use href="#z38907d13"/></clipPath>
  <clipPath id="z38907c14"><use href="#z38907d14"/></clipPath>
  <clipPath id="z38907c15"><use href="#z38907d15"/></clipPath>
  <clipPath id="z38907c16"><use href="#z38907d16"/></clipPath>
  <clipPath id="z38907c17"><use href="#z38907d17"/></clipPath>
  <clipPath id="z38907c18"><use href="#z38907d18"/></clipPath>
  <clipPath id="z38907c19"><use href="#z38907d19"/></clipPath>
</defs>
<path style="--d:1s;" pathLength="3333" clip-path="url(#z38907c1)" d="M 302 805 L 377 770 L 412 734"/>
<path style="--d:2s;" pathLength="3333" clip-path="url(#z38907c2)" d="M 160 606 L 184 601 L 225 604 L 404 650 L 469 658"/>
<path style="--d:3s;" pathLength="3333" clip-path="url(#z38907c3)" d="M 207 551 L 243 517 L 256 491"/>
<path style="--d:4s;" pathLength="3333" clip-path="url(#z38907c4)" d="M 372 618 L 401 585 L 367 502 L 343 475"/>
<path style="--d:5s;" pathLength="3333" clip-path="url(#z38907c5)" d="M 56 404 L 110 397 L 405 470 L 479 473"/>
<path style="--d:6s;" pathLength="3333" clip-path="url(#z38907c6)" d="M 159 334 L 192 289 L 194 104 L 203 43"/>
<path style="--d:7s;" pathLength="3333" clip-path="url(#z38907c7)" d="M 208 325 L 224 315 L 363 347 L 386 339 L 396 327 L 398 140 L 389 101 L 397 39"/>
<path style="--d:8s;" pathLength="3333" clip-path="url(#z38907c8)" d="M 224 203 L 230 214 L 262 221 L 306 226 L 325 221"/>
<path style="--d:9s;" pathLength="3333" clip-path="url(#z38907c9)" d="M 223 96 L 233 105 L 272 115 L 343 121"/>
<path style="--d:10s;" pathLength="3333" clip-path="url(#z38907c10)" d="M 556 755 L 577 740 L 592 715 L 628 586"/>
<path style="--d:11s;" pathLength="3333" clip-path="url(#z38907c11)" d="M 596 759 L 620 749 L 729 774 L 768 789 L 812 789 L 837 761 L 811 691 L 786 681"/>
<path style="--d:12s;" pathLength="3333" clip-path="url(#z38907c12)" d="M 641 631 L 651 624 L 774 650 L 836 646"/>
<path style="--d:13s;" pathLength="3333" clip-path="url(#z38907c13)" d="M 535 515 L 558 497 L 563 486 L 572 421 L 571 316 L 553 196 L 554 153"/>
<path style="--d:14s;" pathLength="3333" clip-path="url(#z38907c14)" d="M 580 515 L 589 506 L 611 504 L 793 546 L 815 540 L 847 509 L 843 424 L 851 221 L 846 161"/>
<path style="--d:15s;" pathLength="3333" clip-path="url(#z38907c15)" d="M 597 392 L 606 403 L 687 417 L 733 422 L 755 415"/>
<path style="--d:16s;" pathLength="3333" clip-path="url(#z38907c16)" d="M 598 288 L 606 298 L 681 312 L 737 318 L 758 312"/>
<path style="--d:17s;" pathLength="3333" clip-path="url(#z38907c17)" d="M 582 178 L 607 193 L 772 215 L 795 214 L 803 203"/>
<path style="--d:18s;" pathLength="3333" clip-path="url(#z38907c18)" d="M 647 102 L 615 96 L 551 22 L 473 -37 L 435 -54"/>
<path style="--d:19s;" pathLength="3333" clip-path="url(#z38907c19)" d="M 756 127 L 855 35 L 875 7 L 888 -37"/>
</svg>