<svg id="z30883" class="acjk" viewBox="0 0 1024 1024" xmlns="http://www.w3.org/2000/svg">
<style>
<![CDATA[
@keyframes zk {
	to {
		stroke-dashoffset:0;
	}
}
svg.acjk path[clip-path] {
	--t:0.8s;
	animation:zk var(--t) linear forwards var(--d);
	stroke-dasharray:3337;
	stroke-dashoffset:3339;
	stroke-width:128;
	stroke-linecap:round;
	stroke-linejoin:round;
	fill:none;
	stroke:#000;
}
svg.acjk path[id] {fill:#ccc;}
]]>
</style>
  <path id="z30883d1" d="M 277 644 Q 421 686 424 687 Q 433 696 428 704 Q 421 716 390 722 Q 359 726 329 712 Q 292 699 252 686 Q 209 674 156 667 Q 119 658 146 643 Q 176 627 229 632 L 277 644 Z"/>
  <path id="z30883d2" d="M 232 424 Q 260 484 299 580 Q 305 596 310 603 Q 316 610 313 618 Q 303 639 277 644 C 249 653 222 661 229 632 Q 250 578 184 423 L 160 377 Q 121 313 39 207 Q 32 201 43 200 Q 94 218 173 325 L 232 424 Z"/>
  <path id="z30883d3" d="M 184 423 Q 177 426 163 429 Q 153 433 149 428 Q 143 424 150 408 Q 154 395 160 377 L 173 325 Q 180 288 185 240 Q 186 209 202 187 Q 217 166 222 180 Q 229 198 227 229 L 223 264 Q 208 387 216 394 C 221 410 212 413 184 423 Z"/>
  <path id="z30883d4" d="M 355 286 Q 370 370 394 397 Q 413 419 393 432 Q 375 442 351 458 Q 335 467 318 457 Q 291 439 232 424 C 203 416 185 391 215 395 L 216 394 Q 234 400 297 412 Q 319 416 324 408 Q 331 402 325 364 Q 318 330 310 290 C 304 261 350 257 355 286 Z"/>
  <path id="z30883d5" d="M 227 229 Q 260 241 370 253 Q 380 254 381 264 Q 381 271 355 286 L 310 290 Q 306 290 303 288 Q 260 275 223 264 C 194 255 199 219 227 229 Z"/>
  <path id="z30883d6" d="M 555 547 Q 558 551 560 562 L 560 585 Q 559 606 553 630 Q 552 642 550 656 L 548 681 Q 547 715 546 742 C 545 759 545 759 523 773 Q 504 786 482 792 Q 476 793 471 789 Q 464 785 473 774 Q 500 731 507 626 Q 507 584 535 549 C 548 531 548 531 555 547 Z"/>
  <path id="z30883d7" d="M 730 582 Q 734 569 748 569 Q 761 570 769 585 Q 781 598 803 667 Q 819 719 855 748 Q 874 764 858 779 Q 840 797 791 823 Q 775 832 713 815 Q 689 815 595 790 Q 552 780 523 773 C 494 766 517 733 546 742 Q 676 784 741 785 Q 751 786 758 783 Q 767 777 762 748 Q 738 625 729 615 C 720 594 720 594 730 582 Z"/>
  <path id="z30883d8" d="M 550 656 Q 554 656 559 656 Q 640 672 700 681 Q 722 685 713 697 Q 703 710 679 714 Q 642 717 548 681 C 520 670 520 656 550 656 Z"/>
  <path id="z30883d9" d="M 560 562 Q 566 561 575 562 Q 663 575 730 582 C 760 585 759 610 729 615 Q 713 619 677 611 Q 613 598 560 585 C 531 578 530 564 560 562 Z"/>
  <path id="z30883d10" d="M 450 372 Q 453 375 459 377 Q 492 395 542 444 L 563 466 Q 567 472 591 496 Q 598 500 597 508 Q 597 515 588 526 Q 582 533 555 547 C 539 556 539 556 535 549 Q 531 548 531 539 Q 535 479 398 361 Q 391 358 399 355 Q 403 355 417 360 Q 421 361 428 363 L 450 372 Z"/>
  <path id="z30883d11" d="M 542 444 L 544 443 Q 577 434 614 443 Q 617 444 623 444 L 658 448 Q 802 475 817 462 Q 827 432 821 277 Q 808 151 778 93 Q 765 65 747 63 Q 734 60 661 90 Q 651 94 651 88 Q 650 84 661 74 Q 704 26 723 -7 Q 733 -29 747 -28 Q 766 -29 783 -11 Q 846 40 867 168 Q 882 256 891 390 Q 892 421 911 443 Q 924 456 924 465 Q 923 472 903 487 Q 876 506 841 518 Q 819 525 767 508 Q 749 505 727 498 Q 648 480 563 466 C 533 461 513 450 542 444 Z"/>
  <path id="z30883d12" d="M 623 444 Q 623 443 625 439 Q 632 388 530 262 Q 524 259 520 247 Q 520 243 525 243 Q 571 252 643 342 L 655 358 Q 685 409 686 411 Q 685 415 683 419 Q 670 440 658 448 C 635 467 615 473 623 444 Z"/>
  <path id="z30883d13" d="M 643 342 Q 644 341 647 339 Q 684 312 730 273 Q 743 260 754 259 Q 760 258 764 266 Q 771 276 759 305 Q 755 321 741 330 Q 716 348 655 358 C 625 363 619 360 643 342 Z"/>
  <path id="z30883d14" d="M 428 363 Q 455 306 450 264 Q 441 185 431 172 Q 421 156 428 141 Q 443 119 455 117 Q 462 117 483 126 Q 616 166 750 167 Q 772 166 772 178 Q 772 190 737 207 Q 712 220 666 205 Q 663 205 529 177 Q 504 167 491 171 Q 479 175 481 189 Q 487 246 499 306 Q 505 328 488 346 Q 469 367 450 372 C 423 384 418 386 428 363 Z"/>
<defs>
  <clipPath id="z30883c1"><use href="#z30883d1"/></clipPath>
  <clipPath id="z30883c2"><use href="#z30883d2"/></clipPath>
  <clipPath id="z30883c3"><use href="#z30883d3"/></clipPath>
  <clipPath id="z30883c4"><use href="#z30883d4"/></clipPath>
  <clipPath id="z30883c5"><use href="#z30883d5"/></clipPath>
  <clipPath id="z30883c6"><use href="#z30883d6"/></clipPath>
  <clipPath id="z30883c7"><use href="#z30883d7"/></clipPath>
  <clipPath id="z30883c8"><use href="#z30883d8"/></clipPath>
  <clipPath id="z30883c9"><use href="#z30883d9"/></clipPath>
  <clipPath id="z30883c10"><use href="#z30883d10"/></clipPath>
  <clipPath id="z30883c11"><use href="#z30883d11"/></clipPath>
  <clipPath id="z30883c12"><use href="#z30883d12"/></clipPath>
  <clipPath id="z30883c13"><use href="#z30883d13"/></clipPath>
  <clipPath id="z30883c14"><use href="#z30883d14"/></clipPath>
</defs>
<path style="--d:1s;" pathLength="3333" clip-path="url(#z30883c1)" d="M 148 656 L 178 651 L 219 654 L 381 700 L 420 695"/>
<path style="--d:2s;" pathLength="3333" clip-path="url(#z30883c2)" d="M 236 630 L 270 605 L 257 549 L 215 439 L 152 327 L 87 245 L 61 219 L 47 213 L 46 206"/>
<path style="--d:3s;" pathLength="3333" clip-path="url(#z30883c3)" d="M 157 421 L 187 382 L 213 185"/>
<path style="--d:4s;" pathLength="3333" clip-path="url(#z30883c4)" d="M 219 398 L 244 416 L 310 432 L 336 434 L 352 421 L 361 411 L 340 320 L 318 297"/>
<path style="--d:5s;" pathLength="3333" clip-path="url(#z30883c5)" d="M 229 235 L 247 253 L 313 268 L 371 263"/>
<path style="--d:6s;" pathLength="3333" clip-path="url(#z30883c6)" d="M 479 782 L 505 759 L 519 729 L 534 599 L 543 565 L 551 557"/>
<path style="--d:7s;" pathLength="3333" clip-path="url(#z30883c7)" d="M 530 770 L 554 762 L 631 785 L 749 805 L 785 794 L 808 763 L 783 705 L 747 586"/>
<path style="--d:8s;" pathLength="3333" clip-path="url(#z30883c8)" d="M 555 663 L 582 677 L 645 692 L 682 696 L 704 691"/>
<path style="--d:9s;" pathLength="3333" clip-path="url(#z30883c9)" d="M 568 568 L 573 575 L 712 598 L 724 609"/>
<path style="--d:10s;" pathLength="3333" clip-path="url(#z30883c10)" d="M 539 541 L 558 507 L 540 478 L 475 408 L 421 369 L 408 368 L 402 359"/>
<path style="--d:11s;" pathLength="3333" clip-path="url(#z30883c11)" d="M 552 447 L 803 492 L 837 487 L 865 457 L 857 409 L 847 233 L 827 129 L 806 73 L 785 43 L 755 21 L 674 73 L 671 82 L 656 87"/>
<path style="--d:12s;" pathLength="3333" clip-path="url(#z30883c12)" d="M 629 443 L 651 420 L 641 381 L 584 301 L 526 250"/>
<path style="--d:13s;" pathLength="3333" clip-path="url(#z30883c13)" d="M 648 345 L 663 345 L 716 317 L 734 302 L 752 272"/>
<path style="--d:14s;" pathLength="3333" clip-path="url(#z30883c14)" d="M 437 357 L 451 355 L 473 320 L 459 154 L 502 150 L 573 170 L 717 190 L 762 178"/>
</svg>