<svg id="z31933" class="acjk" viewBox="0 0 1024 1024" xmlns="http://www.w3.org/2000/svg">
<style>
<![CDATA[
@keyframes zk {
	to {
		stroke-dashoffset:0;
	}
}
svg.acjk path[clip-path] {
	--t:0.8s;
	animation:zk var(--t) linear forwards var(--d);
	stroke-dasharray:3337;
	stroke-dashoffset:3339;
	stroke-width:128;
	stroke-linecap:round;
	stroke-linejoin:round;
	fill:none;
	stroke:#000;
}
svg.acjk path[id] {fill:#ccc;}
]]>
</style>
  <path id="z31933d1" d="M 145 624 Q 164 564 187 542 Q 199 535 212 542 Q 222 551 225 566 Q 228 588 217 606 Q 208 621 169 652 Q 157 662 148 662 Q 142 663 140 652 Q 137 642 145 624 Z"/>
  <path id="z31933d2" d="M 385 670 Q 372 642 346 595 Q 342 588 347 583 Q 354 583 359 588 Q 417 642 445 663 Q 458 669 454 677 Q 447 689 430 701 Q 412 713 394 712 Q 384 711 386 695 Q 390 685 385 670 Z"/>
  <path id="z31933d3" d="M 314 459 Q 348 469 392 477 Q 407 480 406 487 Q 407 499 390 505 Q 363 517 315 500 L 273 488 Q 135 452 82 443 Q 70 442 68 434 Q 67 424 80 415 Q 113 396 160 410 Q 203 428 241 438 L 314 459 Z"/>
  <path id="z31933d4" d="M 312 375 Q 312 415 314 459 L 315 500 Q 315 683 336 761 Q 345 774 342 788 Q 335 797 283 829 Q 261 845 242 831 Q 236 827 243 812 Q 273 767 274 691 Q 274 519 273 488 L 269 378 Q 265 243 255 195 Q 237 107 251 68 Q 252 61 257 53 Q 264 37 271 33 Q 277 27 284 35 Q 291 39 301 58 Q 311 82 310 111 Q 309 144 312 346 L 312 375 Z"/>
  <path id="z31933d5" d="M 241 438 Q 192 296 41 138 Q 31 125 40 125 Q 49 122 59 129 Q 162 189 247 337 Q 257 358 269 378 C 318 461 256 480 241 438 Z"/>
  <path id="z31933d6" d="M 312 346 Q 325 337 363 305 Q 373 295 386 297 Q 393 298 397 308 Q 400 320 392 343 Q 383 362 317 375 Q 314 376 312 375 C 282 372 288 363 312 346 Z"/>
  <path id="z31933d7" d="M 602 769 Q 624 750 649 725 Q 664 712 681 713 Q 691 714 697 728 Q 701 744 691 775 Q 679 802 595 819 Q 579 822 572 819 Q 566 815 569 801 Q 573 791 602 769 Z"/>
  <path id="z31933d8" d="M 516 607 Q 504 631 486 644 Q 482 648 477 644 Q 471 640 471 629 Q 472 596 446 536 Q 436 518 436 500 Q 440 481 449 466 Q 456 454 462 462 Q 474 465 491 511 Q 507 556 515 571 Q 518 575 520 580 C 525 590 525 590 516 607 Z"/>
  <path id="z31933d9" d="M 520 580 Q 544 568 592 584 Q 673 615 784 628 Q 797 631 804 630 Q 817 623 816 617 Q 816 613 810 601 Q 776 538 781 533 Q 788 529 803 539 Q 855 570 899 580 Q 933 590 933 598 Q 932 608 866 657 Q 839 678 742 651 Q 735 651 585 620 Q 552 613 518 608 Q 517 608 516 607 C 487 601 491 589 520 580 Z"/>
  <path id="z31933d10" d="M 551 463 Q 514 453 542 439 Q 581 423 653 439 Q 689 448 727 458 Q 746 464 749 467 Q 758 476 752 484 Q 745 496 714 501 Q 690 504 611 475 Q 581 468 551 463 Z"/>
  <path id="z31933d11" d="M 656 308 Q 729 320 850 322 Q 898 322 904 331 Q 908 343 893 355 Q 835 394 776 372 Q 725 363 655 348 Q 570 333 467 317 Q 448 314 462 299 Q 475 286 493 282 Q 512 278 527 282 Q 567 295 613 301 L 656 308 Z"/>
  <path id="z31933d12" d="M 613 301 Q 626 265 627 153 Q 627 95 622 82 Q 618 72 598 77 Q 570 86 541 94 Q 529 95 527 89 Q 524 82 535 72 Q 596 14 617 -20 Q 630 -35 643 -33 Q 653 -29 667 5 Q 686 39 684 103 Q 681 197 682 232 Q 689 274 671 295 Q 662 302 656 308 C 634 328 605 330 613 301 Z"/>
  <path id="z31933d13" d="M 466 240 Q 445 192 417 150 Q 399 120 414 91 Q 421 76 439 87 Q 484 118 488 189 Q 492 217 487 240 Q 483 247 477 248 Q 470 247 466 240 Z"/>
  <path id="z31933d14" d="M 755 215 Q 804 176 865 118 Q 881 100 897 97 Q 906 96 913 107 Q 923 120 908 163 Q 896 202 824 225 Q 778 240 754 245 Q 744 249 743 237 Q 744 224 755 215 Z"/>
<defs>
  <clipPath id="z31933c1"><use href="#z31933d1"/></clipPath>
  <clipPath id="z31933c2"><use href="#z31933d2"/></clipPath>
  <clipPath id="z31933c3"><use href="#z31933d3"/></clipPath>
  <clipPath id="z31933c4"><use href="#z31933d4"/></clipPath>
  <clipPath id="z31933c5"><use href="#z31933d5"/></clipPath>
  <clipPath id="z31933c6"><use href="#z31933d6"/></clipPath>
  <clipPath id="z31933c7"><use href="#z31933d7"/></clipPath>
  <clipPath id="z31933c8"><use href="#z31933d8"/></clipPath>
  <clipPath id="z31933c9"><use href="#z31933d9"/></clipPath>
  <clipPath id="z31933c10"><use href="#z31933d10"/></clipPath>
  <clipPath id="z31933c11"><use href="#z31933d11"/></clipPath>
  <clipPath id="z31933c12"><use href="#z31933d12"/></clipPath>
  <clipPath id="z31933c13"><use href="#z31933d13"/></clipPath>
  <clipPath id="z31933c14"><use href="#z31933d14"/></clipPath>
</defs>
<path style="--d:1s;" pathLength="3333" clip-path="url(#z31933c1)" d="M 151 652 L 193 587 L 200 560"/>
<path style="--d:2s;" pathLength="3333" clip-path="url(#z31933c2)" d="M 397 700 L 416 676 L 351 589"/>
<path style="--d:3s;" pathLength="3333" clip-path="url(#z31933c3)" d="M 78 431 L 103 426 L 147 431 L 345 489 L 395 489"/>
<path style="--d:4s;" pathLength="3333" clip-path="url(#z31933c4)" d="M 254 822 L 267 815 L 301 773 L 292 333 L 276 45"/>
<path style="--d:5s;" pathLength="3333" clip-path="url(#z31933c5)" d="M 265 440 L 254 425 L 238 368 L 175 267 L 129 207 L 45 131"/>
<path style="--d:6s;" pathLength="3333" clip-path="url(#z31933c6)" d="M 315 368 L 364 337 L 381 313"/>
<path style="--d:7s;" pathLength="3333" clip-path="url(#z31933c7)" d="M 578 811 L 661 761 L 677 733"/>
<path style="--d:8s;" pathLength="3333" clip-path="url(#z31933c8)" d="M 482 636 L 493 603 L 492 586 L 461 504 L 459 474"/>
<path style="--d:9s;" pathLength="3333" clip-path="url(#z31933c9)" d="M 520 601 L 549 593 L 626 615 L 779 645 L 829 643 L 846 631 L 857 611 L 786 536"/>
<path style="--d:10s;" pathLength="3333" clip-path="url(#z31933c10)" d="M 543 452 L 621 454 L 703 477 L 742 477"/>
<path style="--d:11s;" pathLength="3333" clip-path="url(#z31933c11)" d="M 465 308 L 511 302 L 814 351 L 896 337"/>
<path style="--d:12s;" pathLength="3333" clip-path="url(#z31933c12)" d="M 621 299 L 647 278 L 652 267 L 656 112 L 650 65 L 632 35 L 536 86"/>
<path style="--d:13s;" pathLength="3333" clip-path="url(#z31933c13)" d="M 477 237 L 464 182 L 428 97"/>
<path style="--d:14s;" pathLength="3333" clip-path="url(#z31933c14)" d="M 754 234 L 851 178 L 875 155 L 897 114"/>
</svg>