<svg id="z39472" class="acjk" viewBox="0 0 1024 1024" xmlns="http://www.w3.org/2000/svg">
<style>
<![CDATA[
@keyframes zk {
	to {
		stroke-dashoffset:0;
	}
}
svg.acjk path[clip-path] {
	--t:0.8s;
	animation:zk var(--t) linear forwards var(--d);
	stroke-dasharray:3337;
	stroke-dashoffset:3339;
	stroke-width:128;
	stroke-linecap:round;
	stroke-linejoin:round;
	fill:none;
	stroke:#000;
}
svg.acjk path[id] {fill:#ccc;}
]]>
</style>
  <path id="z39472d1" d="M 187 436 Q 187 437 188 438 Q 195 496 198 554 L 198 586 Q 199 652 203 717 C 204 736 204 736 188 744 Q 176 751 158 758 Q 142 765 130 760 Q 121 753 128 742 Q 176 685 142 406 Q 136 376 130 347 Q 102 239 39 123 Q 35 117 35 112 Q 34 102 42 105 Q 72 115 134 240 Q 144 264 154 290 Q 172 345 182 405 L 187 436 Z"/>
  <path id="z39472d2" d="M 203 717 Q 231 727 259 734 Q 274 738 281 731 Q 294 719 292 678 Q 298 354 280 160 Q 279 135 271 124 Q 265 120 206 131 Q 187 137 189 128 Q 237 85 263 55 Q 275 39 289 34 Q 296 30 305 39 Q 342 88 341 132 Q 334 328 338 644 Q 337 696 350 719 Q 360 737 350 746 Q 331 762 298 776 Q 279 785 240 761 Q 194 746 188 744 C 159 735 175 708 203 717 Z"/>
  <path id="z39472d3" d="M 198 554 Q 231 560 258 562 Q 277 566 269 577 Q 259 590 236 592 Q 220 593 198 586 C 169 577 168 549 198 554 Z"/>
  <path id="z39472d4" d="M 182 405 L 190 405 Q 229 411 257 414 Q 278 418 269 429 Q 259 442 236 444 Q 217 445 187 436 C 158 428 152 405 182 405 Z"/>
  <path id="z39472d5" d="M 446 727 Q 482 682 494 681 Q 501 680 506 689 Q 510 699 507 719 Q 503 738 447 760 Q 437 764 432 762 Q 428 761 428 751 Q 429 744 446 727 Z"/>
  <path id="z39472d6" d="M 708 789 Q 698 768 657 715 Q 650 702 663 705 Q 729 757 769 776 Q 770 777 773 778 Q 789 785 781 799 Q 771 812 750 822 Q 731 832 722 829 Q 712 828 716 818 Q 719 805 708 789 Z"/>
  <path id="z39472d7" d="M 563 608 Q 725 645 731 649 Q 738 656 734 663 Q 728 672 705 678 Q 681 682 657 673 Q 615 660 574 647 L 531 637 Q 491 631 447 626 Q 417 622 438 607 Q 474 588 517 599 Q 518 600 520 599 L 563 608 Z"/>
  <path id="z39472d8" d="M 530 516 Q 584 531 641 537 L 667 541 Q 682 544 830 557 Q 846 558 849 565 Q 853 575 839 585 Q 791 612 738 595 Q 554 550 543 547 L 497 537 Q 433 525 364 510 Q 348 507 361 495 Q 373 485 387 482 Q 405 479 417 484 Q 448 494 483 504 L 530 516 Z"/>
  <path id="z39472d9" d="M 462 392 Q 481 420 530 516 L 543 547 Q 552 575 563 608 L 574 647 Q 580 695 608 764 Q 612 780 620 790 Q 632 808 605 830 Q 586 840 566 844 Q 553 848 539 840 Q 532 833 539 823 Q 564 799 554 732 Q 542 686 531 637 L 520 599 Q 510 568 497 537 L 483 504 Q 435 410 352 307 Q 345 294 353 292 Q 357 291 368 299 Q 408 327 442 367 L 462 392 Z"/>
  <path id="z39472d10" d="M 641 537 Q 642 536 644 534 Q 782 351 825 338 Q 882 328 968 338 Q 984 339 986 344 Q 987 350 975 355 Q 795 428 719 495 Q 709 502 700 511 Q 681 530 667 541 C 644 560 622 560 641 537 Z"/>
  <path id="z39472d11" d="M 610 414 Q 682 435 684 436 Q 690 443 686 448 Q 682 455 661 460 Q 642 463 576 439 Q 549 432 516 426 Q 491 422 509 410 Q 539 395 578 407 L 610 414 Z"/>
  <path id="z39472d12" d="M 475 213 Q 479 313 492 358 Q 496 371 487 379 Q 474 388 462 392 C 435 403 436 396 442 367 Q 454 309 439 223 Q 412 178 413 177 Q 413 170 442 150 Q 452 143 465 154 C 473 159 474 183 475 213 Z"/>
  <path id="z39472d13" d="M 631 341 Q 692 356 695 358 Q 701 362 698 369 Q 694 376 674 380 Q 655 384 636 376 Q 635 376 634 375 L 587 361 Q 560 355 532 352 Q 508 348 526 337 Q 556 325 587 331 L 631 341 Z"/>
  <path id="z39472d14" d="M 626 269 Q 648 275 672 279 Q 691 283 695 286 Q 701 290 698 297 Q 694 304 675 309 Q 656 313 636 305 Q 630 304 628 302 L 587 291 Q 560 287 529 284 Q 505 280 522 269 Q 547 254 584 262 Q 585 263 587 262 L 626 269 Z"/>
  <path id="z39472d15" d="M 623 225 Q 624 247 626 269 L 628 302 Q 629 323 631 341 L 634 375 Q 638 388 633 395 Q 621 407 610 414 C 585 431 569 436 578 407 Q 587 380 587 361 L 587 331 Q 587 315 587 291 L 587 262 Q 587 243 587 219 C 587 189 622 195 623 225 Z"/>
  <path id="z39472d16" d="M 587 219 Q 541 213 498 203 Q 473 196 475 213 C 452 232 438 141 465 154 Q 537 193 737 207 Q 756 208 765 200 Q 786 179 748 26 Q 742 10 730 1 Q 724 -2 653 11 Q 640 15 639 9 Q 638 2 654 -9 Q 688 -39 703 -65 Q 716 -87 733 -75 Q 775 -48 793 -2 Q 829 172 838 181 Q 839 185 844 187 Q 857 200 851 209 Q 841 221 800 241 Q 781 250 707 237 Q 650 231 623 225 L 587 219 Z"/>
  <path id="z39472d17" d="M 396 115 Q 383 78 361 42 Q 346 14 362 -10 Q 369 -23 385 -13 Q 422 18 419 71 Q 422 96 415 116 Q 411 123 406 123 Q 399 122 396 115 Z"/>
  <path id="z39472d18" d="M 472 104 Q 482 41 495 33 Q 502 27 513 36 Q 519 43 520 58 Q 520 71 509 86 Q 493 111 484 118 Q 480 122 475 116 Q 471 112 472 104 Z"/>
  <path id="z39472d19" d="M 548 118 Q 566 64 586 54 Q 595 50 604 62 Q 608 71 606 87 Q 602 100 588 111 Q 567 130 557 136 Q 551 139 548 131 Q 545 127 548 118 Z"/>
  <path id="z39472d20" d="M 645 117 Q 681 62 689 59 Q 696 58 702 65 Q 708 74 707 95 Q 707 108 690 124 Q 644 157 636 154 Q 632 153 631 144 Q 631 137 645 117 Z"/>
<defs>
  <clipPath id="z39472c1"><use href="#z39472d1"/></clipPath>
  <clipPath id="z39472c2"><use href="#z39472d2"/></clipPath>
  <clipPath id="z39472c3"><use href="#z39472d3"/></clipPath>
  <clipPath id="z39472c4"><use href="#z39472d4"/></clipPath>
  <clipPath id="z39472c5"><use href="#z39472d5"/></clipPath>
  <clipPath id="z39472c6"><use href="#z39472d6"/></clipPath>
  <clipPath id="z39472c7"><use href="#z39472d7"/></clipPath>
  <clipPath id="z39472c8"><use href="#z39472d8"/></clipPath>
  <clipPath id="z39472c9"><use href="#z39472d9"/></clipPath>
  <clipPath id="z39472c10"><use href="#z39472d10"/></clipPath>
  <clipPath id="z39472c11"><use href="#z39472d11"/></clipPath>
  <clipPath id="z39472c12"><use href="#z39472d12"/></clipPath>
  <clipPath id="z39472c13"><use href="#z39472d13"/></clipPath>
  <clipPath id="z39472c14"><use href="#z39472d14"/></clipPath>
  <clipPath id="z39472c15"><use href="#z39472d15"/></clipPath>
  <clipPath id="z39472c16"><use href="#z39472d16"/></clipPath>
  <clipPath id="z39472c17"><use href="#z39472d17"/></clipPath>
  <clipPath id="z39472c18"><use href="#z39472d18"/></clipPath>
  <clipPath id="z39472c19"><use href="#z39472d19"/></clipPath>
  <clipPath id="z39472c20"><use href="#z39472d20"/></clipPath>
</defs>
<path style="--d:1s;" pathLength="3333" clip-path="url(#z39472c1)" d="M 137 750 L 169 723 L 174 711 L 177 559 L 162 401 L 142 316 L 114 237 L 77 164 L 42 112"/>
<path style="--d:2s;" pathLength="3333" clip-path="url(#z39472c2)" d="M 193 738 L 210 735 L 273 756 L 296 751 L 319 727 L 308 127 L 299 100 L 288 87 L 198 126"/>
<path style="--d:3s;" pathLength="3333" clip-path="url(#z39472c3)" d="M 205 559 L 214 573 L 240 576 L 261 571"/>
<path style="--d:4s;" pathLength="3333" clip-path="url(#z39472c4)" d="M 186 412 L 201 423 L 222 427 L 261 423"/>
<path style="--d:5s;" pathLength="3333" clip-path="url(#z39472c5)" d="M 438 753 L 486 714 L 495 692"/>
<path style="--d:6s;" pathLength="3333" clip-path="url(#z39472c6)" d="M 770 791 L 743 795 L 668 715"/>
<path style="--d:7s;" pathLength="3333" clip-path="url(#z39472c7)" d="M 440 618 L 491 612 L 688 659 L 726 657"/>
<path style="--d:8s;" pathLength="3333" clip-path="url(#z39472c8)" d="M 373 500 L 396 498 L 587 544 L 729 571 L 799 577 L 839 570"/>
<path style="--d:9s;" pathLength="3333" clip-path="url(#z39472c9)" d="M 547 832 L 567 822 L 587 801 L 575 729 L 531 570 L 500 494 L 448 406 L 397 340 L 354 300"/>
<path style="--d:10s;" pathLength="3333" clip-path="url(#z39472c10)" d="M 655 525 L 664 527 L 740 448 L 826 381 L 875 364 L 979 348"/>
<path style="--d:11s;" pathLength="3333" clip-path="url(#z39472c11)" d="M 511 419 L 554 417 L 650 443 L 680 443"/>
<path style="--d:12s;" pathLength="3333" clip-path="url(#z39472c12)" d="M 465 383 L 469 364 L 459 223 L 444 181 L 419 176"/>
<path style="--d:13s;" pathLength="3333" clip-path="url(#z39472c13)" d="M 527 345 L 578 343 L 647 363 L 690 365"/>
<path style="--d:14s;" pathLength="3333" clip-path="url(#z39472c14)" d="M 524 277 L 573 273 L 657 294 L 689 294"/>
<path style="--d:15s;" pathLength="3333" clip-path="url(#z39472c15)" d="M 585 400 L 610 383 L 606 248 L 603 236 L 592 227"/>
<path style="--d:16s;" pathLength="3333" clip-path="url(#z39472c16)" d="M 467 161 L 492 185 L 653 216 L 742 226 L 774 222 L 796 210 L 806 198 L 798 143 L 773 17 L 759 -10 L 727 -35 L 669 -6 L 665 2 L 652 1 L 646 7"/>
<path style="--d:17s;" pathLength="3333" clip-path="url(#z39472c17)" d="M 406 113 L 397 62 L 375 -4"/>
<path style="--d:18s;" pathLength="3333" clip-path="url(#z39472c18)" d="M 481 109 L 498 70 L 502 44"/>
<path style="--d:19s;" pathLength="3333" clip-path="url(#z39472c19)" d="M 556 127 L 591 68"/>
<path style="--d:20s;" pathLength="3333" clip-path="url(#z39472c20)" d="M 638 147 L 686 95 L 693 68"/>
</svg>