<svg id="z31069" class="acjk" viewBox="0 0 1024 1024" xmlns="http://www.w3.org/2000/svg">
<style>
<![CDATA[
@keyframes zk {
	to {
		stroke-dashoffset:0;
	}
}
svg.acjk path[clip-path] {
	--t:0.8s;
	animation:zk var(--t) linear forwards var(--d);
	stroke-dasharray:3337;
	stroke-dashoffset:3339;
	stroke-width:128;
	stroke-linecap:round;
	stroke-linejoin:round;
	fill:none;
	stroke:#000;
}
svg.acjk path[id] {fill:#ccc;}
]]>
</style>
  <path id="z31069d1" d="M 283 771 Q 314 746 347 717 Q 363 704 380 705 Q 392 706 396 720 Q 400 736 390 769 Q 383 791 348 805 Q 263 830 252 823 Q 246 819 249 805 Q 253 792 283 771 Z"/>
  <path id="z31069d2" d="M 276 386 Q 307 426 342 477 Q 376 528 420 560 Q 436 572 423 587 Q 404 603 374 613 Q 352 622 335 610 Q 245 549 106 542 Q 93 543 91 536 Q 87 526 103 515 Q 142 490 159 492 Q 175 495 302 548 Q 318 555 323 547 Q 327 540 316 518 Q 240 379 80 235 Q 65 225 68 221 Q 71 218 84 223 Q 162 259 252 358 L 276 386 Z"/>
  <path id="z31069d3" d="M 252 358 Q 267 325 268 259 Q 268 184 252 108 Q 242 66 271 24 Q 272 21 275 19 Q 291 4 302 29 Q 315 66 315 107 Q 314 273 318 310 Q 325 335 316 344 Q 289 377 276 386 C 253 405 241 386 252 358 Z"/>
  <path id="z31069d4" d="M 362 389 Q 395 341 423 326 Q 435 323 444 333 Q 450 343 449 357 Q 440 393 377 419 Q 376 420 375 420 Q 362 424 354 423 Q 348 422 349 412 Q 350 402 362 389 Z"/>
  <path id="z31069d5" d="M 510 645 Q 500 649 476 652 Q 464 655 461 649 Q 455 643 464 627 Q 494 570 514 477 Q 518 449 535 431 Q 554 409 559 426 Q 560 433 561 443 L 559 476 Q 546 530 532 615 C 528 639 528 639 510 645 Z"/>
  <path id="z31069d6" d="M 763 501 Q 790 595 823 621 Q 841 640 825 658 Q 809 671 755 696 Q 737 703 715 695 Q 634 662 510 645 C 480 641 503 609 532 615 Q 715 652 725 644 L 726 643 Q 736 634 734 614 Q 725 556 712 508 C 704 479 754 472 763 501 Z"/>
  <path id="z31069d7" d="M 671 459 Q 713 465 772 470 Q 782 471 784 480 Q 784 487 763 501 L 712 508 Q 709 509 707 508 Q 625 487 559 476 C 529 471 531 439 561 443 L 629 453 L 671 459 Z"/>
  <path id="z31069d8" d="M 522 378 Q 538 285 451 173 Q 450 172 448 169 Q 424 138 363 80 Q 356 73 362 71 Q 393 65 464 129 Q 533 187 576 307 Q 583 328 595 347 Q 602 356 596 365 Q 589 374 561 388 Q 540 398 532 395 Q 520 391 522 378 Z"/>
  <path id="z31069d9" d="M 991 122 Q 976 156 960 261 Q 960 277 953 282 Q 947 285 943 268 Q 918 157 898 123 Q 874 93 784 98 Q 708 107 691 144 Q 660 210 697 417 Q 701 441 671 459 C 648 478 619 481 629 453 Q 644 422 641 369 Q 623 117 677 74 Q 693 62 726 50 Q 874 2 984 81 Q 1003 96 991 122 Z"/>
<defs>
  <clipPath id="z31069c1"><use href="#z31069d1"/></clipPath>
  <clipPath id="z31069c2"><use href="#z31069d2"/></clipPath>
  <clipPath id="z31069c3"><use href="#z31069d3"/></clipPath>
  <clipPath id="z31069c4"><use href="#z31069d4"/></clipPath>
  <clipPath id="z31069c5"><use href="#z31069d5"/></clipPath>
  <clipPath id="z31069c6"><use href="#z31069d6"/></clipPath>
  <clipPath id="z31069c7"><use href="#z31069d7"/></clipPath>
  <clipPath id="z31069c8"><use href="#z31069d8"/></clipPath>
  <clipPath id="z31069c9"><use href="#z31069d9"/></clipPath>
</defs>
<path style="--d:1s;" pathLength="3333" clip-path="url(#z31069c1)" d="M 257 816 L 349 764 L 378 723"/>
<path style="--d:2s;" pathLength="3333" clip-path="url(#z31069c2)" d="M 100 532 L 151 519 L 166 521 L 260 549 L 313 573 L 349 575 L 362 570 L 353 537 L 321 482 L 233 363 L 140 271 L 71 223"/>
<path style="--d:3s;" pathLength="3333" clip-path="url(#z31069c3)" d="M 276 378 L 278 353 L 292 328 L 290 166 L 281 78 L 287 29"/>
<path style="--d:4s;" pathLength="3333" clip-path="url(#z31069c4)" d="M 358 414 L 405 376 L 428 345"/>
<path style="--d:5s;" pathLength="3333" clip-path="url(#z31069c5)" d="M 470 642 L 491 626 L 507 601 L 547 431"/>
<path style="--d:6s;" pathLength="3333" clip-path="url(#z31069c6)" d="M 519 644 L 543 631 L 723 671 L 748 666 L 777 637 L 744 530 L 719 514"/>
<path style="--d:7s;" pathLength="3333" clip-path="url(#z31069c7)" d="M 567 449 L 579 462 L 710 486 L 754 486 L 774 480"/>
<path style="--d:8s;" pathLength="3333" clip-path="url(#z31069c8)" d="M 535 382 L 558 351 L 538 276 L 504 208 L 465 156 L 429 120 L 366 75"/>
<path style="--d:9s;" pathLength="3333" clip-path="url(#z31069c9)" d="M 637 450 L 668 423 L 656 261 L 663 158 L 679 116 L 705 90 L 759 71 L 819 65 L 886 73 L 932 97 L 945 111 L 952 276"/>
</svg>