<svg id="z36068" class="acjk" viewBox="0 0 1024 1024" xmlns="http://www.w3.org/2000/svg">
<style>
<![CDATA[
@keyframes zk {
	to {
		stroke-dashoffset:0;
	}
}
svg.acjk path[clip-path] {
	--t:0.8s;
	animation:zk var(--t) linear forwards var(--d);
	stroke-dasharray:3337;
	stroke-dashoffset:3339;
	stroke-width:128;
	stroke-linecap:round;
	stroke-linejoin:round;
	fill:none;
	stroke:#000;
}
svg.acjk path[id] {fill:#ccc;}
]]>
</style>
  <path id="z36068d1" d="M 213 676 Q 179 700 162 692 Q 155 688 161 676 Q 185 601 183 452 Q 183 398 172 343 Q 159 289 194 249 Q 204 236 214 249 Q 221 261 224 275 L 227 309 Q 228 327 227 351 Q 227 381 227 407 L 227 441 Q 227 486 227 519 L 227 553 Q 227 601 229 649 C 230 665 230 665 213 676 Z"/>
  <path id="z36068d2" d="M 319 291 Q 332 270 345 250 Q 361 225 369 228 Q 379 229 392 258 Q 401 279 401 355 Q 392 625 413 661 Q 423 679 416 690 Q 409 700 357 717 Q 332 726 314 715 Q 259 688 213 676 C 184 668 200 642 229 649 Q 325 673 327 673 Q 331 673 335 670 Q 347 658 347 615 Q 351 437 343 337 Q 347 312 327 316 C 309 308 309 308 319 291 Z"/>
  <path id="z36068d3" d="M 227 519 Q 275 529 313 536 Q 335 542 326 553 Q 314 566 290 568 Q 269 568 227 553 C 199 543 198 513 227 519 Z"/>
  <path id="z36068d4" d="M 227 407 Q 275 417 313 424 Q 335 430 326 441 Q 314 454 290 456 Q 269 456 227 441 C 199 431 198 401 227 407 Z"/>
  <path id="z36068d5" d="M 224 275 Q 255 285 319 291 C 349 294 352 299 327 316 Q 321 320 313 325 Q 303 331 227 309 C 198 301 195 266 224 275 Z"/>
  <path id="z36068d6" d="M 196 204 Q 190 149 68 31 Q 50 18 74 21 Q 128 27 224 134 Q 224 135 261 178 Q 270 188 267 197 Q 264 209 240 214 Q 215 221 204 218 Q 197 217 196 204 Z"/>
  <path id="z36068d7" d="M 328 154 Q 350 124 373 89 Q 382 76 394 73 Q 403 72 409 81 Q 416 91 415 117 Q 412 150 333 193 Q 323 200 316 198 Q 312 197 310 186 Q 311 176 328 154 Z"/>
  <path id="z36068d8" d="M 655 617 Q 680 630 710 642 Q 741 657 745 663 Q 751 672 745 678 Q 736 688 709 688 Q 676 688 636 658 L 597 638 Q 590 635 585 632 Q 543 613 493 596 Q 462 583 488 573 Q 524 564 590 589 Q 602 595 617 601 L 655 617 Z"/>
  <path id="z36068d9" d="M 691 488 Q 748 418 806 381 Q 882 338 909 341 Q 924 345 911 382 Q 902 404 896 461 Q 895 491 883 501 Q 874 508 873 494 Q 864 418 841 417 Q 784 426 723 505 L 704 531 Q 679 568 655 617 L 636 658 Q 615 715 616 759 Q 619 789 579 801 Q 536 817 512 810 Q 505 809 504 799 Q 504 792 513 783 Q 546 765 580 676 Q 587 657 597 638 L 617 601 Q 642 553 673 511 L 691 488 Z"/>
  <path id="z36068d10" d="M 673 511 Q 645 493 610 471 Q 603 464 616 463 Q 650 470 683 485 Q 686 486 691 488 L 723 505 Q 870 604 871 605 Q 883 612 880 620 Q 876 626 860 634 Q 824 649 804 646 Q 795 646 796 635 Q 796 608 726 549 Q 716 542 704 531 L 673 511 Z"/>
  <path id="z36068d11" d="M 698 782 Q 726 764 756 741 Q 771 731 784 734 Q 794 735 797 748 Q 800 763 788 788 Q 778 812 687 825 Q 674 826 668 823 Q 664 819 666 807 Q 670 797 698 782 Z"/>
  <path id="z36068d12" d="M 614 303 Q 636 313 661 322 Q 691 335 695 340 Q 702 347 696 355 Q 689 364 663 365 Q 638 366 597 342 L 557 323 Q 548 320 541 316 Q 501 300 450 285 Q 420 275 444 265 Q 483 250 529 270 Q 551 279 575 288 L 614 303 Z"/>
  <path id="z36068d13" d="M 670 135 Q 760 18 876 -32 Q 951 -59 967 -42 Q 983 -32 972 2 Q 963 29 952 131 Q 951 150 946 154 Q 942 155 938 137 Q 904 40 876 42 Q 819 49 748 117 Q 739 123 702 166 L 671 207 Q 641 255 614 303 L 597 342 Q 572 411 574 448 Q 575 473 531 485 Q 495 495 480 487 Q 464 480 479 459 Q 501 438 557 323 L 575 288 Q 599 242 626 199 Q 633 187 642 174 L 670 135 Z"/>
  <path id="z36068d14" d="M 642 174 Q 641 175 641 174 Q 587 117 447 48 Q 440 44 444 39 Q 471 24 574 72 Q 629 96 670 135 L 702 166 Q 727 196 758 236 Q 773 255 791 275 Q 801 282 798 292 Q 794 304 770 326 Q 754 342 743 342 Q 730 341 728 327 Q 722 270 671 207 L 642 174 Z"/>
  <path id="z36068d15" d="M 645 412 Q 694 370 714 371 Q 724 372 727 387 Q 726 397 716 411 Q 697 432 645 433 Q 638 433 638 424 Q 638 417 645 412 Z"/>
<defs>
  <clipPath id="z36068c1"><use href="#z36068d1"/></clipPath>
  <clipPath id="z36068c2"><use href="#z36068d2"/></clipPath>
  <clipPath id="z36068c3"><use href="#z36068d3"/></clipPath>
  <clipPath id="z36068c4"><use href="#z36068d4"/></clipPath>
  <clipPath id="z36068c5"><use href="#z36068d5"/></clipPath>
  <clipPath id="z36068c6"><use href="#z36068d6"/></clipPath>
  <clipPath id="z36068c7"><use href="#z36068d7"/></clipPath>
  <clipPath id="z36068c8"><use href="#z36068d8"/></clipPath>
  <clipPath id="z36068c9"><use href="#z36068d9"/></clipPath>
  <clipPath id="z36068c10"><use href="#z36068d10"/></clipPath>
  <clipPath id="z36068c11"><use href="#z36068d11"/></clipPath>
  <clipPath id="z36068c12"><use href="#z36068d12"/></clipPath>
  <clipPath id="z36068c13"><use href="#z36068d13"/></clipPath>
  <clipPath id="z36068c14"><use href="#z36068d14"/></clipPath>
  <clipPath id="z36068c15"><use href="#z36068d15"/></clipPath>
</defs>
<path style="--d:1s;" pathLength="3333" clip-path="url(#z36068c1)" d="M 169 684 L 192 661 L 199 642 L 206 450 L 198 299 L 204 253"/>
<path style="--d:2s;" pathLength="3333" clip-path="url(#z36068c2)" d="M 221 672 L 239 666 L 335 697 L 358 688 L 376 671 L 373 345 L 362 290 L 368 239"/>
<path style="--d:3s;" pathLength="3333" clip-path="url(#z36068c3)" d="M 234 525 L 240 536 L 255 544 L 295 551 L 316 547"/>
<path style="--d:4s;" pathLength="3333" clip-path="url(#z36068c4)" d="M 234 413 L 240 424 L 255 432 L 295 439 L 316 435"/>
<path style="--d:5s;" pathLength="3333" clip-path="url(#z36068c5)" d="M 228 280 L 244 299 L 319 312"/>
<path style="--d:6s;" pathLength="3333" clip-path="url(#z36068c6)" d="M 208 206 L 223 182 L 199 142 L 146 82 L 113 52 L 77 30"/>
<path style="--d:7s;" pathLength="3333" clip-path="url(#z36068c7)" d="M 320 189 L 382 125 L 395 88"/>
<path style="--d:8s;" pathLength="3333" clip-path="url(#z36068c8)" d="M 488 585 L 558 598 L 683 658 L 734 671"/>
<path style="--d:9s;" pathLength="3333" clip-path="url(#z36068c9)" d="M 516 799 L 549 785 L 580 762 L 608 666 L 652 577 L 709 492 L 754 444 L 812 402 L 848 389 L 870 389 L 883 450 L 881 493"/>
<path style="--d:10s;" pathLength="3333" clip-path="url(#z36068c10)" d="M 871 617 L 824 612 L 727 525 L 672 493 L 619 472"/>
<path style="--d:11s;" pathLength="3333" clip-path="url(#z36068c11)" d="M 674 817 L 761 775 L 782 749"/>
<path style="--d:12s;" pathLength="3333" clip-path="url(#z36068c12)" d="M 444 276 L 502 281 L 641 339 L 686 348"/>
<path style="--d:13s;" pathLength="3333" clip-path="url(#z36068c13)" d="M 487 473 L 536 443 L 554 386 L 596 291 L 655 192 L 725 105 L 795 46 L 857 12 L 885 5 L 919 6 L 931 43 L 947 149"/>
<path style="--d:14s;" pathLength="3333" clip-path="url(#z36068c14)" d="M 743 327 L 757 290 L 705 208 L 659 157 L 619 122 L 556 83 L 487 52 L 449 42"/>
<path style="--d:15s;" pathLength="3333" clip-path="url(#z36068c15)" d="M 649 423 L 698 399 L 712 385"/>
</svg>