<svg id="z36880" class="acjk" viewBox="0 0 1024 1024" xmlns="http://www.w3.org/2000/svg">
<style>
<![CDATA[
@keyframes zk {
	to {
		stroke-dashoffset:0;
	}
}
svg.acjk path[clip-path] {
	--t:0.8s;
	animation:zk var(--t) linear forwards var(--d);
	stroke-dasharray:3337;
	stroke-dashoffset:3339;
	stroke-width:128;
	stroke-linecap:round;
	stroke-linejoin:round;
	fill:none;
	stroke:#000;
}
svg.acjk path[id] {fill:#ccc;}
]]>
</style>
  <path id="z36880d1" d="M 539 687 Q 735 738 744 745 Q 753 752 748 761 Q 741 771 712 778 Q 684 782 598 749 Q 510 722 439 712 Q 405 705 430 690 Q 466 675 507 679 L 539 687 Z"/>
  <path id="z36880d2" d="M 506 573 Q 527 595 557 630 Q 572 646 573 652 Q 573 659 564 670 Q 554 682 539 687 C 511 699 507 701 507 679 Q 511 640 437 558 Q 434 557 434 555 Q 412 533 358 489 Q 351 486 359 483 Q 407 483 483 551 Q 484 554 488 556 L 506 573 Z"/>
  <path id="z36880d3" d="M 665 442 Q 658 464 647 477 L 635 492 Q 581 552 506 573 C 477 582 463 572 488 556 Q 492 552 501 547 Q 514 541 525 534 L 576 498 Q 585 491 594 479 L 625 426 Q 643 363 623 273 Q 614 236 603 230 Q 594 226 537 235 Q 486 247 484 240 Q 483 233 495 220 Q 562 171 589 136 Q 604 117 619 122 Q 664 143 682 260 Q 692 344 680 392 Q 677 402 675 412 L 665 442 Z"/>
  <path id="z36880d4" d="M 525 534 Q 509 477 357 377 Q 339 367 361 368 Q 407 365 532 459 Q 535 466 576 498 C 600 517 535 562 525 534 Z"/>
  <path id="z36880d5" d="M 594 479 L 594 478 Q 536 364 372 250 Q 359 240 368 237 Q 389 228 454 264 Q 515 297 589 381 Q 620 417 620 419 Q 621 423 625 426 C 642 451 607 506 594 479 Z"/>
  <path id="z36880d6" d="M 647 477 Q 752 547 803 573 Q 822 577 818 589 Q 812 605 794 626 Q 775 645 752 649 Q 737 649 737 629 Q 738 604 635 492 C 615 470 622 460 647 477 Z"/>
  <path id="z36880d7" d="M 675 412 Q 748 370 835 305 Q 853 289 867 288 Q 876 288 880 299 Q 889 312 870 350 Q 849 402 668 442 Q 667 443 665 442 C 635 446 649 427 675 412 Z"/>
  <path id="z36880d8" d="M 232 720 Q 260 696 289 667 Q 304 654 320 654 Q 332 655 337 669 Q 341 684 332 715 Q 326 736 294 750 Q 219 778 204 771 Q 198 767 200 753 Q 204 743 232 720 Z"/>
  <path id="z36880d9" d="M 283 189 Q 293 196 296 213 Q 300 252 260 321 Q 230 382 311 464 Q 335 483 315 500 Q 294 516 260 530 Q 239 542 200 511 Q 116 463 91 465 Q 84 466 82 460 Q 81 456 89 451 Q 128 435 212 471 Q 219 475 229 466 Q 248 444 227 418 Q 181 373 222 303 Q 264 219 261 194 Q 260 193 260 191 C 259 161 265 165 283 189 Z"/>
  <path id="z36880d10" d="M 260 191 Q 217 194 172 179 Q 135 166 80 162 Q 73 161 69 153 Q 66 146 75 136 Q 91 117 116 105 Q 126 99 146 113 Q 215 164 288 149 Q 354 133 485 71 Q 707 -35 792 -14 Q 793 -13 796 -13 Q 859 6 912 44 Q 936 59 912 59 Q 687 59 542 102 Q 461 127 361 168 Q 322 186 283 189 L 260 191 Z"/>
<defs>
  <clipPath id="z36880c1"><use href="#z36880d1"/></clipPath>
  <clipPath id="z36880c2"><use href="#z36880d2"/></clipPath>
  <clipPath id="z36880c3"><use href="#z36880d3"/></clipPath>
  <clipPath id="z36880c4"><use href="#z36880d4"/></clipPath>
  <clipPath id="z36880c5"><use href="#z36880d5"/></clipPath>
  <clipPath id="z36880c6"><use href="#z36880d6"/></clipPath>
  <clipPath id="z36880c7"><use href="#z36880d7"/></clipPath>
  <clipPath id="z36880c8"><use href="#z36880d8"/></clipPath>
  <clipPath id="z36880c9"><use href="#z36880d9"/></clipPath>
  <clipPath id="z36880c10"><use href="#z36880d10"/></clipPath>
</defs>
<path style="--d:1s;" pathLength="3333" clip-path="url(#z36880c1)" d="M 432 702 L 456 697 L 498 700 L 681 751 L 738 755"/>
<path style="--d:2s;" pathLength="3333" clip-path="url(#z36880c2)" d="M 514 674 L 536 654 L 487 584 L 421 520 L 364 487"/>
<path style="--d:3s;" pathLength="3333" clip-path="url(#z36880c3)" d="M 497 555 L 523 553 L 549 539 L 606 496 L 648 425 L 660 334 L 650 254 L 638 216 L 621 190 L 609 184 L 597 188 L 489 237"/>
<path style="--d:4s;" pathLength="3333" clip-path="url(#z36880c4)" d="M 530 528 L 535 496 L 510 469 L 420 402 L 365 375"/>
<path style="--d:5s;" pathLength="3333" clip-path="url(#z36880c5)" d="M 595 470 L 594 427 L 542 364 L 436 273 L 373 242"/>
<path style="--d:6s;" pathLength="3333" clip-path="url(#z36880c6)" d="M 805 586 L 765 596 L 651 496 L 652 487"/>
<path style="--d:7s;" pathLength="3333" clip-path="url(#z36880c7)" d="M 680 436 L 688 421 L 776 383 L 829 350 L 866 302"/>
<path style="--d:8s;" pathLength="3333" clip-path="url(#z36880c8)" d="M 209 763 L 286 717 L 299 706 L 318 673"/>
<path style="--d:9s;" pathLength="3333" clip-path="url(#z36880c9)" d="M 89 458 L 130 460 L 223 498 L 254 494 L 269 480 L 260 436 L 233 387 L 227 361 L 231 335 L 276 227 L 277 205 L 266 191"/>
<path style="--d:10s;" pathLength="3333" clip-path="url(#z36880c10)" d="M 81 149 L 127 138 L 212 169 L 264 172 L 299 167 L 347 153 L 569 64 L 643 42 L 729 26 L 805 26 L 903 52"/>
</svg>