<svg id="z34203" class="acjk" viewBox="0 0 1024 1024" xmlns="http://www.w3.org/2000/svg">
<style>
<![CDATA[
@keyframes zk {
	to {
		stroke-dashoffset:0;
	}
}
svg.acjk path[clip-path] {
	--t:0.8s;
	animation:zk var(--t) linear forwards var(--d);
	stroke-dasharray:3337;
	stroke-dashoffset:3339;
	stroke-width:128;
	stroke-linecap:round;
	stroke-linejoin:round;
	fill:none;
	stroke:#000;
}
svg.acjk path[id] {fill:#ccc;}
]]>
</style>
  <path id="z34203d1" d="M 605 698 Q 744 705 825 697 Q 841 696 846 705 Q 850 715 839 730 Q 791 772 705 753 Q 666 749 624 741 L 570 734 Q 497 727 417 717 L 371 712 Q 281 705 183 697 Q 155 694 174 679 Q 213 652 270 659 Q 325 672 379 680 L 419 686 Q 488 693 561 696 L 605 698 Z"/>
  <path id="z34203d2" d="M 417 717 Q 416 747 416 769 Q 417 788 399 794 Q 357 813 340 807 Q 322 798 337 780 Q 355 759 371 712 L 379 680 Q 385 649 400 631 Q 413 621 417 632 Q 418 638 419 686 L 417 717 Z"/>
  <path id="z34203d3" d="M 624 741 Q 631 762 648 788 Q 661 801 651 812 Q 641 828 608 844 Q 593 853 577 844 Q 567 838 574 828 Q 586 804 570 734 L 561 696 Q 546 641 547 627 Q 548 614 563 624 Q 575 634 605 698 L 624 741 Z"/>
  <path id="z34203d4" d="M 255 477 Q 342 570 354 577 Q 369 589 357 601 Q 344 613 320 620 Q 298 627 288 622 Q 278 619 284 609 Q 291 584 237 484 C 223 458 234 455 255 477 Z"/>
  <path id="z34203d5" d="M 250 281 Q 250 285 251 288 Q 251 316 251 341 L 251 373 Q 251 424 254 446 C 258 489 260 470 237 484 Q 218 497 197 504 Q 190 505 183 498 Q 180 494 187 483 Q 235 374 196 165 Q 181 119 186 95 Q 195 64 205 52 Q 215 39 225 52 Q 235 64 247 129 L 250 163 Q 250 208 250 252 L 250 281 Z"/>
  <path id="z34203d6" d="M 406 394 Q 427 448 447 460 Q 460 476 447 491 Q 381 537 334 507 Q 286 488 255 477 C 227 467 225 438 254 446 Q 261 447 271 452 Q 362 479 368 474 Q 375 467 362 402 C 356 373 395 366 406 394 Z"/>
  <path id="z34203d7" d="M 251 341 Q 258 340 268 343 Q 314 355 414 367 Q 424 368 425 377 Q 425 384 406 394 L 362 402 Q 358 402 352 400 Q 297 384 251 373 C 222 366 221 342 251 341 Z"/>
  <path id="z34203d8" d="M 408 190 Q 427 242 450 255 Q 463 271 451 287 Q 436 299 390 319 Q 374 325 356 317 Q 328 304 300 295 Q 275 288 250 281 C 221 273 220 247 250 252 Q 253 252 355 273 Q 364 274 368 271 Q 375 265 373 252 Q 369 221 362 194 C 355 165 397 162 408 190 Z"/>
  <path id="z34203d9" d="M 247 129 Q 256 128 268 130 Q 316 143 422 157 Q 432 158 433 168 Q 433 175 408 190 L 362 194 Q 358 194 354 192 Q 296 174 250 163 C 221 156 217 131 247 129 Z"/>
  <path id="z34203d10" d="M 630 607 Q 645 592 660 575 Q 672 565 684 565 Q 693 566 697 577 Q 701 589 694 613 Q 690 626 669 635 Q 617 650 608 647 Q 604 643 605 633 Q 608 624 630 607 Z"/>
  <path id="z34203d11" d="M 735 514 Q 754 520 774 523 Q 813 533 819 538 Q 826 545 823 553 Q 816 563 790 571 Q 768 574 667 544 Q 570 523 524 518 Q 490 512 515 497 Q 554 476 616 491 Q 656 500 700 507 L 735 514 Z"/>
  <path id="z34203d12" d="M 542 448 Q 572 385 592 377 Q 602 373 611 387 Q 615 397 611 415 Q 607 431 589 442 Q 564 464 551 469 Q 544 472 540 463 Q 537 456 542 448 Z"/>
  <path id="z34203d13" d="M 698 377 Q 702 384 710 394 Q 725 413 741 439 Q 748 451 760 465 Q 773 475 766 485 Q 757 498 735 514 C 711 532 696 537 700 507 Q 706 480 677 395 Q 670 383 668 372 C 661 343 682 352 698 377 Z"/>
  <path id="z34203d14" d="M 652 332 Q 727 344 852 345 Q 898 342 907 353 Q 911 363 897 375 Q 846 414 789 395 Q 750 388 698 377 L 668 372 Q 661 372 656 370 Q 565 355 459 340 Q 440 339 454 323 Q 467 311 483 306 Q 502 302 516 306 Q 558 319 605 325 L 652 332 Z"/>
  <path id="z34203d15" d="M 681 195 Q 748 202 809 207 Q 837 210 829 226 Q 817 245 786 253 Q 744 262 682 244 L 624 233 Q 557 223 498 212 Q 477 209 501 189 Q 516 177 547 181 Q 587 185 625 189 L 681 195 Z"/>
  <path id="z34203d16" d="M 632 -30 Q 636 -52 643 -61 Q 647 -68 655 -66 Q 667 -57 674 -4 Q 674 -1 681 195 L 682 244 Q 682 245 683 247 Q 683 254 689 291 Q 692 307 679 316 Q 663 326 652 332 C 626 347 593 353 605 325 Q 605 318 615 307 Q 624 292 624 233 L 625 189 Q 631 -25 632 -30 Z"/>
<defs>
  <clipPath id="z34203c1"><use href="#z34203d1"/></clipPath>
  <clipPath id="z34203c2"><use href="#z34203d2"/></clipPath>
  <clipPath id="z34203c3"><use href="#z34203d3"/></clipPath>
  <clipPath id="z34203c4"><use href="#z34203d4"/></clipPath>
  <clipPath id="z34203c5"><use href="#z34203d5"/></clipPath>
  <clipPath id="z34203c6"><use href="#z34203d6"/></clipPath>
  <clipPath id="z34203c7"><use href="#z34203d7"/></clipPath>
  <clipPath id="z34203c8"><use href="#z34203d8"/></clipPath>
  <clipPath id="z34203c9"><use href="#z34203d9"/></clipPath>
  <clipPath id="z34203c10"><use href="#z34203d10"/></clipPath>
  <clipPath id="z34203c11"><use href="#z34203d11"/></clipPath>
  <clipPath id="z34203c12"><use href="#z34203d12"/></clipPath>
  <clipPath id="z34203c13"><use href="#z34203d13"/></clipPath>
  <clipPath id="z34203c14"><use href="#z34203d14"/></clipPath>
  <clipPath id="z34203c15"><use href="#z34203d15"/></clipPath>
  <clipPath id="z34203c16"><use href="#z34203d16"/></clipPath>
</defs>
<path style="--d:1s;" pathLength="3333" clip-path="url(#z34203c1)" d="M 177 689 L 247 679 L 441 704 L 736 730 L 788 728 L 834 711"/>
<path style="--d:2s;" pathLength="3333" clip-path="url(#z34203c2)" d="M 345 793 L 365 783 L 385 763 L 408 635"/>
<path style="--d:3s;" pathLength="3333" clip-path="url(#z34203c3)" d="M 581 835 L 595 828 L 614 799 L 583 696 L 555 627"/>
<path style="--d:4s;" pathLength="3333" clip-path="url(#z34203c4)" d="M 295 613 L 316 587 L 256 492 L 246 493"/>
<path style="--d:5s;" pathLength="3333" clip-path="url(#z34203c5)" d="M 194 493 L 227 455 L 232 383 L 230 245 L 213 103 L 215 56"/>
<path style="--d:6s;" pathLength="3333" clip-path="url(#z34203c6)" d="M 256 454 L 268 466 L 289 474 L 359 496 L 378 496 L 407 472 L 388 419 L 371 412"/>
<path style="--d:7s;" pathLength="3333" clip-path="url(#z34203c7)" d="M 255 346 L 275 363 L 361 381 L 415 376"/>
<path style="--d:8s;" pathLength="3333" clip-path="url(#z34203c8)" d="M 250 259 L 265 270 L 357 295 L 388 291 L 409 267 L 392 216 L 370 199"/>
<path style="--d:9s;" pathLength="3333" clip-path="url(#z34203c9)" d="M 252 134 L 275 151 L 352 169 L 399 173 L 423 167"/>
<path style="--d:10s;" pathLength="3333" clip-path="url(#z34203c10)" d="M 612 639 L 669 605 L 682 581"/>
<path style="--d:11s;" pathLength="3333" clip-path="url(#z34203c11)" d="M 517 509 L 574 504 L 760 545 L 812 548"/>
<path style="--d:12s;" pathLength="3333" clip-path="url(#z34203c12)" d="M 551 457 L 588 412 L 596 392"/>
<path style="--d:13s;" pathLength="3333" clip-path="url(#z34203c13)" d="M 707 504 L 731 478 L 689 387 L 675 376"/>
<path style="--d:14s;" pathLength="3333" clip-path="url(#z34203c14)" d="M 456 332 L 501 325 L 816 373 L 852 371 L 899 358"/>
<path style="--d:15s;" pathLength="3333" clip-path="url(#z34203c15)" d="M 499 200 L 537 199 L 765 230 L 815 221"/>
<path style="--d:16s;" pathLength="3333" clip-path="url(#z34203c16)" d="M 613 323 L 655 292 L 651 -58"/>
</svg>