<svg id="z32102" class="acjk" viewBox="0 0 1024 1024" xmlns="http://www.w3.org/2000/svg">
<style>
<![CDATA[
@keyframes zk {
	to {
		stroke-dashoffset:0;
	}
}
svg.acjk path[clip-path] {
	--t:0.8s;
	animation:zk var(--t) linear forwards var(--d);
	stroke-dasharray:3337;
	stroke-dashoffset:3339;
	stroke-width:128;
	stroke-linecap:round;
	stroke-linejoin:round;
	fill:none;
	stroke:#000;
}
svg.acjk path[id] {fill:#ccc;}
]]>
</style>
  <path id="z32102d1" d="M 319 535 Q 270 532 229 529 Q 201 526 215 545 Q 276 645 336 719 Q 352 737 349 744 Q 346 759 306 792 Q 290 805 270 802 Q 258 799 265 783 Q 281 741 200 597 Q 184 564 147 533 Q 128 517 131 504 Q 135 485 151 467 Q 163 455 175 464 Q 220 495 301 507 C 331 512 349 537 319 535 Z"/>
  <path id="z32102d2" d="M 340 380 Q 295 371 245 354 Q 224 345 237 364 Q 373 544 438 597 Q 451 607 445 618 Q 435 639 399 660 Q 383 670 372 668 Q 362 664 363 647 Q 364 614 319 535 L 301 507 Q 300 506 300 505 Q 183 352 155 335 Q 142 325 144 311 Q 145 296 174 276 Q 184 263 201 277 Q 252 319 351 361 C 379 373 369 386 340 380 Z"/>
  <path id="z32102d3" d="M 351 361 Q 363 342 378 338 Q 390 334 400 348 Q 404 360 400 380 Q 387 416 332 441 Q 325 444 320 434 Q 317 430 340 380 L 351 361 Z"/>
  <path id="z32102d4" d="M 102 165 Q 123 129 144 88 Q 153 70 168 65 Q 178 62 189 73 Q 199 86 200 119 Q 201 141 175 169 Q 108 226 93 223 Q 86 222 83 207 Q 83 195 102 165 Z"/>
  <path id="z32102d5" d="M 231 210 Q 244 194 258 175 Q 268 163 282 162 Q 292 162 297 173 Q 303 185 297 212 Q 293 231 231 252 Q 218 256 212 255 Q 208 252 208 240 Q 209 230 231 210 Z"/>
  <path id="z32102d6" d="M 333 261 Q 375 207 383 205 Q 392 204 397 213 Q 403 223 401 247 Q 398 269 337 298 Q 325 304 320 302 Q 316 301 315 290 Q 316 281 333 261 Z"/>
  <path id="z32102d7" d="M 618 654 Q 648 730 659 746 Q 666 759 659 772 Q 652 784 618 802 Q 587 815 567 811 Q 548 805 561 784 Q 582 756 575 728 Q 545 569 429 353 Q 420 340 419 334 Q 418 321 432 327 Q 489 348 604 619 Q 605 625 609 630 L 618 654 Z"/>
  <path id="z32102d8" d="M 609 630 Q 699 518 798 417 Q 820 393 857 391 Q 924 385 997 396 Q 1015 397 1016 402 Q 1019 409 1005 415 Q 825 490 812 499 Q 722 559 623 650 Q 620 653 618 654 C 595 674 590 653 609 630 Z"/>
  <path id="z32102d9" d="M 526 399 Q 493 392 518 377 Q 557 359 608 373 Q 653 385 700 397 Q 722 403 725 406 Q 732 413 727 421 Q 720 431 693 437 Q 678 438 592 412 Q 562 405 526 399 Z"/>
  <path id="z32102d10" d="M 505 258 Q 493 264 460 268 Q 448 271 445 265 Q 439 258 448 243 Q 478 189 498 99 Q 502 72 519 55 Q 538 33 543 50 Q 544 59 546 70 L 541 105 Q 541 106 517 227 C 511 256 511 256 505 258 Z"/>
  <path id="z32102d11" d="M 755 134 Q 783 212 815 232 Q 833 251 818 270 Q 745 330 687 302 Q 612 275 505 258 C 475 253 487 223 517 227 Q 529 228 543 232 Q 619 247 692 261 Q 711 265 718 258 Q 733 242 700 137 C 691 108 745 106 755 134 Z"/>
  <path id="z32102d12" d="M 546 70 Q 553 70 562 71 Q 628 84 771 96 Q 781 97 783 106 Q 783 115 755 134 C 738 146 729 144 700 137 Q 612 116 541 105 C 511 100 516 69 546 70 Z"/>
<defs>
  <clipPath id="z32102c1"><use href="#z32102d1"/></clipPath>
  <clipPath id="z32102c2"><use href="#z32102d2"/></clipPath>
  <clipPath id="z32102c3"><use href="#z32102d3"/></clipPath>
  <clipPath id="z32102c4"><use href="#z32102d4"/></clipPath>
  <clipPath id="z32102c5"><use href="#z32102d5"/></clipPath>
  <clipPath id="z32102c6"><use href="#z32102d6"/></clipPath>
  <clipPath id="z32102c7"><use href="#z32102d7"/></clipPath>
  <clipPath id="z32102c8"><use href="#z32102d8"/></clipPath>
  <clipPath id="z32102c9"><use href="#z32102d9"/></clipPath>
  <clipPath id="z32102c10"><use href="#z32102d10"/></clipPath>
  <clipPath id="z32102c11"><use href="#z32102d11"/></clipPath>
  <clipPath id="z32102c12"><use href="#z32102d12"/></clipPath>
</defs>
<path style="--d:1s;" pathLength="3333" clip-path="url(#z32102c1)" d="M 273 791 L 296 766 L 304 741 L 191 544 L 179 511 L 207 507 L 292 519 L 311 534"/>
<path style="--d:2s;" pathLength="3333" clip-path="url(#z32102c2)" d="M 377 656 L 398 614 L 315 492 L 216 367 L 211 333 L 239 331 L 310 360 L 333 366 L 340 361"/>
<path style="--d:3s;" pathLength="3333" clip-path="url(#z32102c3)" d="M 329 432 L 383 356"/>
<path style="--d:4s;" pathLength="3333" clip-path="url(#z32102c4)" d="M 95 214 L 161 131 L 172 85"/>
<path style="--d:5s;" pathLength="3333" clip-path="url(#z32102c5)" d="M 216 246 L 271 204 L 282 178"/>
<path style="--d:6s;" pathLength="3333" clip-path="url(#z32102c6)" d="M 323 294 L 378 243 L 385 214"/>
<path style="--d:7s;" pathLength="3333" clip-path="url(#z32102c7)" d="M 570 796 L 591 785 L 616 754 L 607 713 L 576 617 L 514 473 L 453 363 L 428 335"/>
<path style="--d:8s;" pathLength="3333" clip-path="url(#z32102c8)" d="M 617 648 L 623 631 L 690 564 L 759 499 L 831 443 L 881 426 L 1010 404"/>
<path style="--d:9s;" pathLength="3333" clip-path="url(#z32102c9)" d="M 519 389 L 578 388 L 677 414 L 716 415"/>
<path style="--d:10s;" pathLength="3333" clip-path="url(#z32102c10)" d="M 454 258 L 483 236 L 495 208 L 531 55"/>
<path style="--d:11s;" pathLength="3333" clip-path="url(#z32102c11)" d="M 514 256 L 528 245 L 712 286 L 742 278 L 768 251 L 736 162 L 708 148"/>
<path style="--d:12s;" pathLength="3333" clip-path="url(#z32102c12)" d="M 550 76 L 561 90 L 697 113 L 747 115 L 773 106"/>
</svg>