<svg id="z34554" class="acjk" viewBox="0 0 1024 1024" xmlns="http://www.w3.org/2000/svg">
<style>
<![CDATA[
@keyframes zk {
	to {
		stroke-dashoffset:0;
	}
}
svg.acjk path[clip-path] {
	--t:0.8s;
	animation:zk var(--t) linear forwards var(--d);
	stroke-dasharray:3337;
	stroke-dashoffset:3339;
	stroke-width:128;
	stroke-linecap:round;
	stroke-linejoin:round;
	fill:none;
	stroke:#000;
}
svg.acjk path[id] {fill:#ccc;}
]]>
</style>
  <path id="z34554d1" d="M 146 540 Q 133 544 105 547 Q 93 550 91 544 Q 85 538 94 524 Q 122 475 144 391 Q 148 366 164 350 Q 182 331 186 345 Q 187 354 188 366 L 184 397 Q 166 484 160 512 C 155 538 155 538 146 540 Z"/>
  <path id="z34554d2" d="M 393 442 Q 418 524 449 547 Q 464 563 450 579 Q 434 591 387 611 Q 371 617 352 608 Q 324 595 295 583 L 249 567 Q 197 552 146 540 C 117 533 130 507 160 512 Q 173 513 192 520 Q 220 529 250 536 L 294 548 Q 316 555 340 561 Q 359 567 367 560 Q 379 545 351 448 C 343 419 384 413 393 442 Z"/>
  <path id="z34554d3" d="M 290 391 Q 336 404 403 415 Q 413 416 413 425 Q 413 432 393 442 C 373 453 373 453 351 448 Q 332 445 291 428 L 250 415 Q 214 405 184 397 C 155 389 158 363 188 366 Q 195 366 205 369 Q 223 376 249 381 L 290 391 Z"/>
  <path id="z34554d4" d="M 285 245 Q 288 320 290 391 L 291 428 Q 292 489 294 548 L 295 583 Q 295 637 316 727 Q 319 737 298 752 Q 264 771 238 775 Q 222 778 214 769 Q 207 762 215 746 Q 246 703 246 671 Q 247 622 249 567 L 250 536 Q 250 478 250 415 L 249 381 Q 248 308 243 230 C 241 200 284 215 285 245 Z"/>
  <path id="z34554d5" d="M 359 274 Q 322 261 285 245 L 243 230 Q 188 212 131 191 Q 113 184 83 183 Q 70 180 69 170 Q 68 157 77 150 Q 101 135 135 119 Q 145 116 156 125 Q 192 158 354 240 Q 364 246 373 252 C 398 268 387 284 359 274 Z"/>
  <path id="z34554d6" d="M 373 252 Q 409 191 422 187 Q 429 184 437 193 Q 444 203 446 229 Q 447 262 361 324 Q 351 331 344 330 Q 340 329 337 318 Q 337 308 353 285 Q 356 281 359 274 L 373 252 Z"/>
  <path id="z34554d7" d="M 665 608 Q 815 653 816 654 Q 823 661 819 669 Q 812 679 785 685 Q 757 689 731 676 Q 698 663 666 651 L 619 637 Q 568 624 510 615 Q 477 608 502 593 Q 542 574 600 591 Q 607 594 619 595 L 665 608 Z"/>
  <path id="z34554d8" d="M 649 320 Q 650 338 665 608 L 666 651 Q 666 700 689 769 Q 696 784 685 794 Q 663 812 624 823 Q 599 829 591 822 Q 582 815 590 803 Q 612 767 616 721 Q 617 679 619 637 L 619 595 Q 622 286 546 184 Q 534 171 523 158 Q 466 100 342 45 Q 329 39 329 35 Q 330 31 341 30 Q 362 26 412 42 Q 496 64 555 122 Q 619 183 643 283 L 649 320 Z"/>
  <path id="z34554d9" d="M 643 283 Q 710 174 796 58 Q 814 39 844 38 Q 947 38 981 42 Q 991 43 992 49 Q 993 53 980 62 Q 833 128 745 217 Q 699 263 649 320 C 629 343 627 309 643 283 Z"/>
  <path id="z34554d10" d="M 510 414 Q 517 426 525 438 Q 541 469 558 494 Q 565 504 554 514 Q 521 539 503 534 Q 494 533 496 521 Q 508 458 441 372 Q 438 372 412 337 Q 406 325 418 330 Q 445 333 495 393 L 510 414 Z"/>
  <path id="z34554d11" d="M 495 393 Q 498 390 503 386 Q 563 329 571 328 Q 578 328 582 337 Q 585 346 581 365 Q 574 392 510 414 C 482 424 473 414 495 393 Z"/>
  <path id="z34554d12" d="M 776 447 Q 783 459 791 470 Q 809 501 825 526 Q 834 536 821 549 Q 779 576 761 571 Q 752 570 755 556 Q 767 486 701 402 Q 685 383 676 370 Q 670 357 683 362 Q 710 365 760 426 L 776 447 Z"/>
  <path id="z34554d13" d="M 760 426 Q 790 407 847 358 Q 857 351 867 351 Q 874 351 878 360 Q 881 370 874 391 Q 868 412 836 428 Q 808 438 776 447 C 747 455 735 442 760 426 Z"/>
<defs>
  <clipPath id="z34554c1"><use href="#z34554d1"/></clipPath>
  <clipPath id="z34554c2"><use href="#z34554d2"/></clipPath>
  <clipPath id="z34554c3"><use href="#z34554d3"/></clipPath>
  <clipPath id="z34554c4"><use href="#z34554d4"/></clipPath>
  <clipPath id="z34554c5"><use href="#z34554d5"/></clipPath>
  <clipPath id="z34554c6"><use href="#z34554d6"/></clipPath>
  <clipPath id="z34554c7"><use href="#z34554d7"/></clipPath>
  <clipPath id="z34554c8"><use href="#z34554d8"/></clipPath>
  <clipPath id="z34554c9"><use href="#z34554d9"/></clipPath>
  <clipPath id="z34554c10"><use href="#z34554d10"/></clipPath>
  <clipPath id="z34554c11"><use href="#z34554d11"/></clipPath>
  <clipPath id="z34554c12"><use href="#z34554d12"/></clipPath>
  <clipPath id="z34554c13"><use href="#z34554d13"/></clipPath>
</defs>
<path style="--d:1s;" pathLength="3333" clip-path="url(#z34554c1)" d="M 100 537 L 125 520 L 133 507 L 176 351"/>
<path style="--d:2s;" pathLength="3333" clip-path="url(#z34554c2)" d="M 155 536 L 181 532 L 354 586 L 376 586 L 399 571 L 406 557 L 378 466 L 360 458"/>
<path style="--d:3s;" pathLength="3333" clip-path="url(#z34554c3)" d="M 191 374 L 202 385 L 339 425 L 404 424"/>
<path style="--d:4s;" pathLength="3333" clip-path="url(#z34554c4)" d="M 227 759 L 274 721 L 276 708 L 265 260 L 248 237"/>
<path style="--d:5s;" pathLength="3333" clip-path="url(#z34554c5)" d="M 84 168 L 116 158 L 144 159 L 328 246 L 365 255"/>
<path style="--d:6s;" pathLength="3333" clip-path="url(#z34554c6)" d="M 347 320 L 409 247 L 426 199"/>
<path style="--d:7s;" pathLength="3333" clip-path="url(#z34554c7)" d="M 503 605 L 547 601 L 586 608 L 674 629 L 756 661 L 812 663"/>
<path style="--d:8s;" pathLength="3333" clip-path="url(#z34554c8)" d="M 599 812 L 634 786 L 647 768 L 637 454 L 631 375 L 613 266 L 569 174 L 513 116 L 429 66 L 336 34"/>
<path style="--d:9s;" pathLength="3333" clip-path="url(#z34554c9)" d="M 654 313 L 659 285 L 686 250 L 772 147 L 831 89 L 984 49"/>
<path style="--d:10s;" pathLength="3333" clip-path="url(#z34554c10)" d="M 509 523 L 526 498 L 499 429 L 466 379 L 420 338"/>
<path style="--d:11s;" pathLength="3333" clip-path="url(#z34554c11)" d="M 504 395 L 517 395 L 552 370 L 573 337"/>
<path style="--d:12s;" pathLength="3333" clip-path="url(#z34554c12)" d="M 763 561 L 783 542 L 789 527 L 780 501 L 741 428 L 685 371"/>
<path style="--d:13s;" pathLength="3333" clip-path="url(#z34554c13)" d="M 768 428 L 783 429 L 831 404 L 864 365"/>
</svg>