<svg id="z32948" class="acjk" viewBox="0 0 1024 1024" xmlns="http://www.w3.org/2000/svg">
<style>
<![CDATA[
@keyframes zk {
	to {
		stroke-dashoffset:0;
	}
}
svg.acjk path[clip-path] {
	--t:0.8s;
	animation:zk var(--t) linear forwards var(--d);
	stroke-dasharray:3337;
	stroke-dashoffset:3339;
	stroke-width:128;
	stroke-linecap:round;
	stroke-linejoin:round;
	fill:none;
	stroke:#000;
}
svg.acjk path[id] {fill:#ccc;}
]]>
</style>
  <path id="z32948d1" d="M 553 731 Q 628 798 630 800 Q 631 810 623 823 Q 599 860 570 860 Q 561 861 561 849 Q 558 810 495 747 L 463 718 Q 412 676 288 610 Q 279 607 288 603 Q 348 594 475 671 Q 479 675 510 697 L 553 731 Z"/>
  <path id="z32948d2" d="M 510 697 Q 580 666 658 626 Q 674 616 687 616 Q 693 617 696 626 Q 702 639 681 667 Q 663 700 553 731 L 495 747 Q 413 771 365 779 Q 358 780 359 771 Q 362 761 372 756 Q 415 740 463 718 L 510 697 Z"/>
  <path id="z32948d3" d="M 455 505 Q 608 532 859 531 Q 881 531 888 540 Q 892 552 876 566 Q 822 603 786 595 Q 677 570 491 541 Q 470 538 449 534 L 382 524 Q 261 508 128 490 Q 107 489 123 471 Q 154 443 193 452 Q 275 477 366 491 L 455 505 Z"/>
  <path id="z32948d4" d="M 379 416 Q 398 446 415 474 L 449 534 Q 465 565 479 581 Q 488 594 484 603 Q 478 615 452 618 Q 424 624 412 619 Q 405 616 404 603 Q 401 570 382 524 L 366 491 Q 338 436 292 370 Q 247 306 99 153 Q 81 135 107 143 Q 209 179 362 391 L 379 416 Z"/>
  <path id="z32948d5" d="M 412 178 Q 415 224 419 257 L 421 285 Q 425 343 429 364 C 432 387 432 387 422 395 Q 407 410 379 416 C 351 424 353 419 362 391 Q 402 282 348 91 Q 314 22 347 -22 Q 354 -35 364 -30 Q 400 -9 409 114 Q 410 135 411 153 L 412 178 Z"/>
  <path id="z32948d6" d="M 429 364 Q 444 364 605 400 Q 624 407 631 396 Q 635 384 637 365 Q 647 187 641 78 Q 640 50 631 37 Q 627 31 606 36 Q 581 40 556 46 Q 535 53 536 43 Q 591 -6 621 -44 Q 634 -63 651 -69 Q 661 -73 670 -63 Q 713 -14 712 45 Q 685 336 711 382 Q 724 403 711 413 Q 689 432 650 449 Q 631 456 615 449 Q 537 407 422 395 C 392 391 399 360 429 364 Z"/>
  <path id="z32948d7" d="M 419 257 Q 438 251 560 268 Q 579 271 582 273 Q 589 280 586 286 Q 580 296 557 303 Q 545 306 464 290 Q 443 287 421 285 C 391 282 390 263 419 257 Z"/>
  <path id="z32948d8" d="M 411 153 Q 432 144 518 156 Q 540 160 566 163 Q 587 167 590 169 Q 597 176 594 182 Q 588 192 565 199 Q 553 202 471 185 Q 441 181 412 178 C 382 175 382 162 411 153 Z"/>
<defs>
  <clipPath id="z32948c1"><use href="#z32948d1"/></clipPath>
  <clipPath id="z32948c2"><use href="#z32948d2"/></clipPath>
  <clipPath id="z32948c3"><use href="#z32948d3"/></clipPath>
  <clipPath id="z32948c4"><use href="#z32948d4"/></clipPath>
  <clipPath id="z32948c5"><use href="#z32948d5"/></clipPath>
  <clipPath id="z32948c6"><use href="#z32948d6"/></clipPath>
  <clipPath id="z32948c7"><use href="#z32948d7"/></clipPath>
  <clipPath id="z32948c8"><use href="#z32948d8"/></clipPath>
</defs>
<path style="--d:1s;" pathLength="3333" clip-path="url(#z32948c1)" d="M 574 847 L 588 810 L 546 759 L 488 708 L 388 644 L 293 607"/>
<path style="--d:2s;" pathLength="3333" clip-path="url(#z32948c2)" d="M 368 770 L 613 681 L 669 647 L 682 629"/>
<path style="--d:3s;" pathLength="3333" clip-path="url(#z32948c3)" d="M 125 481 L 182 473 L 503 529 L 787 563 L 824 561 L 877 545"/>
<path style="--d:4s;" pathLength="3333" clip-path="url(#z32948c4)" d="M 470 597 L 438 585 L 384 470 L 301 343 L 198 227 L 109 152"/>
<path style="--d:5s;" pathLength="3333" clip-path="url(#z32948c5)" d="M 385 403 L 400 364 L 402 297 L 382 105 L 368 56 L 359 -19"/>
<path style="--d:6s;" pathLength="3333" clip-path="url(#z32948c6)" d="M 430 372 L 450 384 L 542 400 L 627 427 L 658 412 L 672 393 L 669 281 L 676 55 L 668 18 L 652 -6 L 623 2 L 546 40"/>
<path style="--d:7s;" pathLength="3333" clip-path="url(#z32948c7)" d="M 423 264 L 436 271 L 503 280 L 575 282"/>
<path style="--d:8s;" pathLength="3333" clip-path="url(#z32948c8)" d="M 417 159 L 555 181 L 583 178"/>
</svg>