<svg id="z36496" class="acjk" viewBox="0 0 1024 1024" xmlns="http://www.w3.org/2000/svg">
<style>
<![CDATA[
@keyframes zk {
	to {
		stroke-dashoffset:0;
	}
}
svg.acjk path[clip-path] {
	--t:0.8s;
	animation:zk var(--t) linear forwards var(--d);
	stroke-dasharray:3337;
	stroke-dashoffset:3339;
	stroke-width:128;
	stroke-linecap:round;
	stroke-linejoin:round;
	fill:none;
	stroke:#000;
}
svg.acjk path[id] {fill:#ccc;}
]]>
</style>
  <path id="z36496d1" d="M 153 653 Q 143 657 122 660 Q 112 661 108 657 Q 104 653 111 638 Q 135 593 152 519 Q 156 497 169 482 Q 185 463 190 477 Q 193 486 192 500 L 190 526 Q 174 605 172 628 C 170 647 170 647 153 653 Z"/>
  <path id="z36496d2" d="M 319 554 Q 335 621 355 642 Q 374 667 353 679 Q 334 689 309 704 Q 291 714 274 703 Q 243 679 153 653 C 124 645 145 615 172 628 Q 181 635 255 654 Q 276 661 283 653 Q 290 647 284 619 Q 278 588 270 553 C 263 524 312 525 319 554 Z"/>
  <path id="z36496d3" d="M 244 512 Q 277 521 329 531 Q 338 532 338 540 Q 337 544 319 554 C 302 564 298 563 270 553 Q 224 537 190 526 C 161 517 162 499 192 500 Q 198 500 212 502 L 244 512 Z"/>
  <path id="z36496d4" d="M 273 244 Q 274 311 276 368 L 277 401 Q 277 431 279 462 Q 286 478 277 487 Q 261 503 244 512 C 218 527 202 530 212 502 Q 225 472 229 384 Q 229 327 232 226 C 233 196 273 214 273 244 Z"/>
  <path id="z36496d5" d="M 276 368 Q 276 369 360 391 Q 381 398 370 409 Q 358 421 334 420 Q 312 420 277 401 C 251 387 248 358 276 368 Z"/>
  <path id="z36496d6" d="M 176 202 Q 167 310 172 346 Q 173 365 161 376 Q 140 391 116 398 Q 104 402 96 397 Q 90 391 96 378 Q 121 339 141 187 C 145 157 178 172 176 202 Z"/>
  <path id="z36496d7" d="M 141 187 Q 77 163 56 161 Q 44 158 43 148 Q 43 135 52 129 Q 76 116 109 102 Q 119 101 129 110 Q 163 143 320 234 Q 342 247 358 263 Q 370 272 369 280 Q 363 284 352 281 Q 313 263 273 244 L 232 226 Q 204 216 176 202 L 141 187 Z"/>
  <path id="z36496d8" d="M 442 746 Q 432 715 410 685 Q 403 675 405 665 Q 406 656 420 647 Q 448 623 472 596 Q 485 583 496 582 Q 506 583 509 602 Q 510 621 500 634 Q 469 650 437 667 Q 433 674 443 686 Q 453 696 472 718 Q 487 737 500 746 Q 513 753 507 767 Q 497 795 476 807 Q 466 814 455 813 Q 446 812 451 796 Q 457 775 442 746 Z"/>
  <path id="z36496d9" d="M 569 771 Q 560 740 542 708 Q 535 698 538 689 Q 539 679 553 671 Q 584 646 612 619 Q 625 606 637 606 Q 647 607 649 626 Q 650 645 639 658 Q 632 668 591 679 Q 575 682 569 692 Q 563 699 574 711 Q 583 721 601 745 Q 614 764 627 775 Q 639 782 632 797 Q 619 825 599 834 Q 589 841 578 838 Q 569 837 575 821 Q 582 802 569 771 Z"/>
  <path id="z36496d10" d="M 705 783 Q 695 753 675 725 Q 668 715 670 705 Q 673 696 687 687 Q 720 665 749 637 Q 762 624 774 626 Q 784 627 785 646 Q 785 665 774 677 Q 767 687 724 696 Q 709 699 703 708 Q 699 715 707 726 Q 717 735 735 754 Q 751 773 763 782 Q 776 789 771 803 Q 761 831 741 844 Q 729 851 720 849 Q 710 848 715 832 Q 721 813 705 783 Z"/>
  <path id="z36496d11" d="M 435 558 Q 426 562 406 563 Q 396 564 392 560 Q 388 554 396 541 Q 426 489 447 400 Q 451 375 469 357 Q 485 339 490 353 Q 491 362 492 373 L 489 396 Q 474 462 458 527 C 452 553 452 553 435 558 Z"/>
  <path id="z36496d12" d="M 694 396 Q 706 377 717 371 Q 724 364 739 380 Q 752 398 783 500 Q 790 525 812 547 Q 822 557 814 569 Q 801 584 765 608 Q 752 614 678 600 Q 606 588 537 576 Q 482 566 435 558 C 405 553 429 518 458 527 Q 458 528 460 528 Q 523 547 626 561 L 652 566 Q 718 582 735 566 Q 744 553 742 542 Q 718 446 710 432 Q 706 425 697 421 C 684 410 684 410 694 396 Z"/>
  <path id="z36496d13" d="M 626 561 Q 629 551 598 505 L 575 479 Q 553 457 527 432 Q 520 428 518 425 Q 515 419 523 419 Q 544 419 605 469 L 638 499 Q 644 512 667 525 L 667 526 L 667 525 Q 673 529 672 538 Q 669 557 652 566 C 627 581 627 581 626 561 Z"/>
  <path id="z36496d14" d="M 598 505 Q 583 509 518 510 Q 512 510 514 504 Q 514 501 575 479 L 605 469 Q 633 462 661 450 Q 674 444 682 446 Q 686 447 688 454 Q 691 464 674 482 Q 665 494 638 499 L 598 505 Z"/>
  <path id="z36496d15" d="M 492 373 Q 496 372 510 373 Q 615 388 694 396 C 724 399 722 405 697 421 Q 693 425 684 427 Q 669 430 489 396 C 460 390 462 375 492 373 Z"/>
  <path id="z36496d16" d="M 450 272 Q 454 285 445 294 Q 426 310 407 320 Q 391 326 383 322 Q 373 316 385 299 Q 421 236 383 63 Q 376 47 363 26 Q 353 8 360 -2 Q 367 -14 390 -23 Q 405 -30 416 -14 Q 425 11 482 60 Q 506 76 516 94 Q 520 104 513 104 Q 510 104 446 70 Q 439 66 435 67 Q 428 70 429 88 Q 439 172 444 215 Q 444 246 450 272 Z"/>
  <path id="z36496d17" d="M 471 285 Q 505 251 523 252 Q 533 253 535 266 Q 535 275 526 288 Q 510 304 472 304 Q 465 304 466 296 Q 466 290 471 285 Z"/>
  <path id="z36496d18" d="M 471 185 Q 504 152 519 153 Q 529 153 531 166 Q 531 175 523 188 Q 507 204 472 204 Q 465 204 466 196 Q 465 190 471 185 Z"/>
  <path id="z36496d19" d="M 605 300 Q 609 316 598 326 Q 576 348 560 351 Q 550 352 545 349 Q 536 343 545 332 Q 561 301 561 274 Q 564 150 554 107 Q 550 82 539 68 Q 529 49 536 31 Q 545 3 560 -7 Q 570 -14 580 3 Q 604 36 686 119 Q 702 132 702 139 Q 703 151 686 140 Q 605 95 600 97 Q 593 101 593 116 Q 597 263 605 300 Z"/>
  <path id="z36496d20" d="M 624 310 Q 667 274 683 276 Q 693 277 695 290 Q 694 299 685 311 Q 670 329 624 329 Q 617 329 618 321 Q 618 315 624 310 Z"/>
  <path id="z36496d21" d="M 632 218 Q 671 182 687 184 Q 697 185 699 198 Q 698 207 689 219 Q 682 228 666 231 Q 642 237 632 236 Q 625 237 626 228 Q 626 224 632 218 Z"/>
  <path id="z36496d22" d="M 771 303 Q 778 324 754 341 Q 727 360 716 359 Q 700 358 702 345 Q 715 315 719 277 Q 732 67 835 5 Q 853 -5 875 -14 Q 930 -32 954 -23 Q 976 -14 962 18 Q 952 52 943 104 Q 939 149 933 154 Q 926 161 923 150 Q 919 137 915 107 Q 914 56 897 49 Q 881 43 847 64 Q 777 115 767 206 Q 761 273 771 303 Z"/>
<defs>
  <clipPath id="z36496c1"><use href="#z36496d1"/></clipPath>
  <clipPath id="z36496c2"><use href="#z36496d2"/></clipPath>
  <clipPath id="z36496c3"><use href="#z36496d3"/></clipPath>
  <clipPath id="z36496c4"><use href="#z36496d4"/></clipPath>
  <clipPath id="z36496c5"><use href="#z36496d5"/></clipPath>
  <clipPath id="z36496c6"><use href="#z36496d6"/></clipPath>
  <clipPath id="z36496c7"><use href="#z36496d7"/></clipPath>
  <clipPath id="z36496c8"><use href="#z36496d8"/></clipPath>
  <clipPath id="z36496c9"><use href="#z36496d9"/></clipPath>
  <clipPath id="z36496c10"><use href="#z36496d10"/></clipPath>
  <clipPath id="z36496c11"><use href="#z36496d11"/></clipPath>
  <clipPath id="z36496c12"><use href="#z36496d12"/></clipPath>
  <clipPath id="z36496c13"><use href="#z36496d13"/></clipPath>
  <clipPath id="z36496c14"><use href="#z36496d14"/></clipPath>
  <clipPath id="z36496c15"><use href="#z36496d15"/></clipPath>
  <clipPath id="z36496c16"><use href="#z36496d16"/></clipPath>
  <clipPath id="z36496c17"><use href="#z36496d17"/></clipPath>
  <clipPath id="z36496c18"><use href="#z36496d18"/></clipPath>
  <clipPath id="z36496c19"><use href="#z36496d19"/></clipPath>
  <clipPath id="z36496c20"><use href="#z36496d20"/></clipPath>
  <clipPath id="z36496c21"><use href="#z36496d21"/></clipPath>
  <clipPath id="z36496c22"><use href="#z36496d22"/></clipPath>
</defs>
<path style="--d:1s;" pathLength="3333" clip-path="url(#z36496c1)" d="M 116 652 L 147 620 L 180 482"/>
<path style="--d:2s;" pathLength="3333" clip-path="url(#z36496c2)" d="M 164 651 L 176 645 L 272 678 L 301 676 L 321 656 L 300 577 L 276 559"/>
<path style="--d:3s;" pathLength="3333" clip-path="url(#z36496c3)" d="M 196 507 L 212 518 L 268 536 L 331 538"/>
<path style="--d:4s;" pathLength="3333" clip-path="url(#z36496c4)" d="M 219 500 L 245 481 L 252 440 L 253 269 L 247 248 L 236 236"/>
<path style="--d:5s;" pathLength="3333" clip-path="url(#z36496c5)" d="M 280 375 L 294 392 L 307 397 L 363 401"/>
<path style="--d:6s;" pathLength="3333" clip-path="url(#z36496c6)" d="M 103 390 L 141 351 L 157 215 L 143 199"/>
<path style="--d:7s;" pathLength="3333" clip-path="url(#z36496c7)" d="M 58 146 L 110 139 L 364 277"/>
<path style="--d:8s;" pathLength="3333" clip-path="url(#z36496c8)" d="M 459 803 L 471 789 L 478 764 L 425 684 L 421 667 L 483 617 L 494 594"/>
<path style="--d:9s;" pathLength="3333" clip-path="url(#z36496c9)" d="M 582 829 L 595 816 L 604 791 L 556 709 L 553 694 L 567 675 L 618 646 L 634 619"/>
<path style="--d:10s;" pathLength="3333" clip-path="url(#z36496c10)" d="M 723 839 L 735 826 L 741 799 L 689 723 L 686 709 L 700 692 L 754 664 L 770 640"/>
<path style="--d:11s;" pathLength="3333" clip-path="url(#z36496c11)" d="M 400 555 L 422 539 L 437 514 L 480 358"/>
<path style="--d:12s;" pathLength="3333" clip-path="url(#z36496c12)" d="M 442 555 L 464 546 L 692 590 L 731 590 L 759 581 L 775 558 L 722 401 L 724 386"/>
<path style="--d:13s;" pathLength="3333" clip-path="url(#z36496c13)" d="M 634 557 L 645 539 L 611 495 L 574 459 L 525 426"/>
<path style="--d:14s;" pathLength="3333" clip-path="url(#z36496c14)" d="M 518 506 L 528 508 L 532 502 L 641 479 L 669 466 L 677 456"/>
<path style="--d:15s;" pathLength="3333" clip-path="url(#z36496c15)" d="M 496 379 L 530 392 L 576 399 L 679 411 L 687 403"/>
<path style="--d:16s;" pathLength="3333" clip-path="url(#z36496c16)" d="M 389 313 L 423 277 L 422 186 L 406 70 L 411 40 L 449 52 L 513 99"/>
<path style="--d:17s;" pathLength="3333" clip-path="url(#z36496c17)" d="M 477 294 L 521 266"/>
<path style="--d:18s;" pathLength="3333" clip-path="url(#z36496c18)" d="M 477 194 L 519 165"/>
<path style="--d:19s;" pathLength="3333" clip-path="url(#z36496c19)" d="M 551 341 L 581 308 L 574 95 L 581 64 L 606 71 L 694 139"/>
<path style="--d:20s;" pathLength="3333" clip-path="url(#z36496c20)" d="M 628 320 L 681 290"/>
<path style="--d:21s;" pathLength="3333" clip-path="url(#z36496c21)" d="M 636 227 L 685 198"/>
<path style="--d:22s;" pathLength="3333" clip-path="url(#z36496c22)" d="M 714 347 L 743 312 L 746 208 L 762 140 L 795 78 L 819 51 L 867 21 L 897 14 L 921 16 L 931 60 L 929 149"/>
</svg>