<svg id="z39138" class="acjk" viewBox="0 0 1024 1024" xmlns="http://www.w3.org/2000/svg">
<style>
<![CDATA[
@keyframes zk {
	to {
		stroke-dashoffset:0;
	}
}
svg.acjk path[clip-path] {
	--t:0.8s;
	animation:zk var(--t) linear forwards var(--d);
	stroke-dasharray:3337;
	stroke-dashoffset:3339;
	stroke-width:128;
	stroke-linecap:round;
	stroke-linejoin:round;
	fill:none;
	stroke:#000;
}
svg.acjk path[id] {fill:#ccc;}
]]>
</style>
  <path id="z39138d1" d="M 210 493 Q 213 497 216 500 Q 279 576 347 690 Q 359 714 370 731 L 382 748 Q 391 761 401 770 Q 411 780 406 793 Q 402 806 374 828 Q 349 844 330 845 Q 312 844 320 822 Q 336 788 322 757 Q 280 658 218 567 Q 157 479 74 382 Q 64 372 63 366 Q 59 356 73 358 Q 103 362 195 473 L 210 493 Z"/>
  <path id="z39138d2" d="M 370 731 Q 374 722 398 706 Q 429 684 462 656 Q 475 646 488 648 Q 498 649 501 660 Q 504 673 495 699 Q 483 732 391 747 Q 385 748 382 748 C 358 750 358 750 370 731 Z"/>
  <path id="z39138d3" d="M 344 608 Q 380 569 406 560 Q 416 559 424 569 Q 428 579 426 592 Q 416 623 370 634 Q 336 640 333 638 Q 329 637 330 628 Q 331 619 344 608 Z"/>
  <path id="z39138d4" d="M 383 290 Q 402 265 417 258 Q 427 251 439 271 Q 452 295 470 422 Q 476 447 494 470 Q 504 480 494 492 Q 481 505 443 525 Q 430 531 374 513 Q 259 477 258 476 C 230 466 244 440 272 451 Q 314 469 389 488 Q 405 492 412 487 Q 425 478 423 459 Q 410 341 401 322 Q 400 322 400 321 C 389 293 379 294 383 290 Z"/>
  <path id="z39138d5" d="M 268 357 Q 274 363 378 381 Q 397 387 390 397 Q 380 410 356 411 Q 322 414 268 384 C 242 370 241 343 268 357 Z"/>
  <path id="z39138d6" d="M 266 264 Q 266 265 267 265 Q 331 280 383 290 C 412 296 429 313 400 321 Q 372 331 266 293 C 238 283 238 252 266 264 Z"/>
  <path id="z39138d7" d="M 377 189 Q 346 173 283 131 Q 274 125 270 129 Q 264 132 265 147 Q 265 213 266 264 L 266 293 Q 266 330 268 357 L 268 384 Q 268 438 272 451 C 274 467 274 467 258 476 Q 248 485 214 493 Q 211 494 210 493 C 181 499 179 498 195 473 Q 225 443 231 294 Q 230 288 231 280 Q 230 280 231 279 Q 228 141 186 83 Q 153 55 195 7 L 197 6 Q 207 -1 220 12 Q 262 67 388 176 C 411 196 403 203 377 189 Z"/>
  <path id="z39138d8" d="M 388 176 Q 401 160 415 138 Q 422 126 435 125 Q 444 124 449 133 Q 455 143 453 167 Q 450 194 381 226 Q 369 232 364 230 Q 360 229 359 218 Q 360 209 377 189 L 388 176 Z"/>
  <path id="z39138d9" d="M 595 598 Q 553 617 540 615 Q 524 611 538 592 Q 569 538 556 330 Q 549 275 523 210 Q 496 141 417 60 Q 405 48 403 43 Q 402 36 412 37 Q 451 41 513 114 Q 550 160 572 210 Q 591 262 599 335 Q 609 420 608 544 Q 609 559 611 568 C 614 590 614 590 595 598 Z"/>
  <path id="z39138d10" d="M 611 568 Q 632 568 700 595 Q 712 599 718 596 Q 722 593 717 490 Q 695 165 726 125 Q 783 44 952 89 Q 968 95 986 103 Q 1005 113 997 135 Q 981 177 969 235 Q 963 266 956 272 Q 949 276 946 265 Q 928 169 895 139 Q 882 132 853 129 Q 816 128 794 134 Q 772 141 763 152 Q 730 200 766 442 Q 772 491 783 531 Q 790 567 822 594 Q 835 610 820 624 Q 799 640 753 656 Q 734 660 717 650 Q 671 614 595 598 C 566 591 582 562 611 568 Z"/>
<defs>
  <clipPath id="z39138c1"><use href="#z39138d1"/></clipPath>
  <clipPath id="z39138c2"><use href="#z39138d2"/></clipPath>
  <clipPath id="z39138c3"><use href="#z39138d3"/></clipPath>
  <clipPath id="z39138c4"><use href="#z39138d4"/></clipPath>
  <clipPath id="z39138c5"><use href="#z39138d5"/></clipPath>
  <clipPath id="z39138c6"><use href="#z39138d6"/></clipPath>
  <clipPath id="z39138c7"><use href="#z39138d7"/></clipPath>
  <clipPath id="z39138c8"><use href="#z39138d8"/></clipPath>
  <clipPath id="z39138c9"><use href="#z39138d9"/></clipPath>
  <clipPath id="z39138c10"><use href="#z39138d10"/></clipPath>
</defs>
<path style="--d:1s;" pathLength="3333" clip-path="url(#z39138c1)" d="M 330 831 L 354 808 L 365 787 L 322 695 L 272 610 L 175 474 L 109 399 L 71 366"/>
<path style="--d:2s;" pathLength="3333" clip-path="url(#z39138c2)" d="M 378 732 L 399 729 L 446 705 L 472 684 L 487 662"/>
<path style="--d:3s;" pathLength="3333" clip-path="url(#z39138c3)" d="M 336 632 L 384 604 L 409 578"/>
<path style="--d:4s;" pathLength="3333" clip-path="url(#z39138c4)" d="M 262 470 L 278 468 L 364 499 L 407 507 L 434 500 L 452 485 L 456 477 L 438 369 L 417 294 L 423 274"/>
<path style="--d:5s;" pathLength="3333" clip-path="url(#z39138c5)" d="M 272 365 L 281 377 L 315 388 L 380 392"/>
<path style="--d:6s;" pathLength="3333" clip-path="url(#z39138c6)" d="M 274 272 L 281 286 L 360 302 L 395 317"/>
<path style="--d:7s;" pathLength="3333" clip-path="url(#z39138c7)" d="M 203 475 L 220 473 L 241 446 L 249 300 L 238 124 L 244 98 L 295 116 L 374 174 L 375 182"/>
<path style="--d:8s;" pathLength="3333" clip-path="url(#z39138c8)" d="M 367 222 L 428 164 L 437 138"/>
<path style="--d:9s;" pathLength="3333" clip-path="url(#z39138c9)" d="M 543 603 L 574 578 L 581 553 L 580 356 L 566 264 L 544 201 L 493 117 L 443 65 L 410 43"/>
<path style="--d:10s;" pathLength="3333" clip-path="url(#z39138c10)" d="M 604 596 L 614 589 L 633 589 L 728 623 L 744 621 L 765 601 L 745 502 L 727 289 L 733 172 L 742 143 L 755 127 L 781 111 L 829 101 L 894 106 L 932 122 L 950 140 L 953 265"/>
</svg>