<svg id="z36978" class="acjk" viewBox="0 0 1024 1024" xmlns="http://www.w3.org/2000/svg">
<style>
<![CDATA[
@keyframes zk {
	to {
		stroke-dashoffset:0;
	}
}
svg.acjk path[clip-path] {
	--t:0.8s;
	animation:zk var(--t) linear forwards var(--d);
	stroke-dasharray:3337;
	stroke-dashoffset:3339;
	stroke-width:128;
	stroke-linecap:round;
	stroke-linejoin:round;
	fill:none;
	stroke:#000;
}
svg.acjk path[id] {fill:#ccc;}
]]>
</style>
  <path id="z36978d1" d="M 724 686 Q 752 735 775 745 Q 791 761 778 779 Q 763 792 716 816 Q 695 825 623 793 Q 538 768 479 755 C 450 748 463 723 493 728 Q 503 729 518 734 Q 593 753 665 772 Q 684 778 692 771 Q 698 764 694 751 Q 684 717 671 690 C 659 663 709 660 724 686 Z"/>
  <path id="z36978d2" d="M 640 644 Q 679 654 731 661 Q 740 662 741 670 Q 741 677 724 686 C 701 700 700 699 671 690 Q 565 656 482 638 C 453 632 451 620 480 612 Q 481 611 485 610 Q 494 609 505 612 Q 545 625 619 640 L 640 644 Z"/>
  <path id="z36978d3" d="M 479 755 Q 467 764 450 771 Q 434 780 422 775 Q 412 768 418 757 Q 466 690 406 432 Q 403 422 400 411 Q 376 336 309 219 Q 305 213 303 208 Q 302 198 310 201 Q 340 207 402 315 Q 411 336 422 357 Q 465 465 480 612 L 482 638 Q 483 666 486 692 Q 487 723 493 728 C 498 743 498 743 479 755 Z"/>
  <path id="z36978d4" d="M 619 640 Q 628 553 628 530 Q 627 524 627 516 Q 624 497 642 474 Q 649 467 657 475 Q 666 487 670 557 Q 670 584 674 605 Q 680 621 664 631 Q 651 638 640 644 C 617 656 617 656 619 640 Z"/>
  <path id="z36978d5" d="M 519 581 Q 561 544 575 544 Q 585 545 587 558 Q 587 567 579 580 Q 563 601 520 600 Q 513 600 514 592 Q 514 586 519 581 Z"/>
  <path id="z36978d6" d="M 495 475 Q 488 472 489 467 Q 490 460 496 457 Q 511 453 530 448 Q 536 448 541 454 Q 547 466 592 510 Q 607 529 606 533 Q 603 533 512 481 Q 506 478 495 475 Z"/>
  <path id="z36978d7" d="M 752 628 Q 746 621 698 562 Q 691 552 703 553 Q 734 568 752 579 Q 794 607 810 613 Q 825 620 818 632 Q 809 644 792 655 Q 776 665 767 663 Q 758 662 761 653 Q 762 640 752 628 Z"/>
  <path id="z36978d8" d="M 727 506 Q 757 487 794 458 Q 806 448 815 447 Q 821 447 824 454 Q 830 464 817 488 Q 813 501 799 510 Q 781 517 724 524 Q 718 527 718 519 Q 719 510 727 506 Z"/>
  <path id="z36978d9" d="M 553 370 Q 560 377 565 380 Q 574 390 571 397 Q 570 407 548 414 Q 526 421 516 419 Q 510 418 508 408 Q 504 375 432 306 Q 416 294 437 297 Q 471 297 535 354 L 553 370 Z"/>
  <path id="z36978d10" d="M 678 351 Q 711 358 747 363 Q 778 369 782 373 Q 789 380 786 386 Q 780 396 757 403 Q 733 407 680 390 L 628 379 Q 592 373 553 370 C 523 368 519 367 535 354 Q 559 330 629 343 L 678 351 Z"/>
  <path id="z36978d11" d="M 675 245 Q 738 254 867 254 Q 883 254 887 261 Q 891 270 878 281 Q 833 314 778 297 Q 735 290 676 277 L 629 270 Q 538 257 433 242 Q 417 241 429 226 Q 441 216 455 212 Q 471 208 484 212 Q 548 230 623 239 Q 624 240 629 239 L 675 245 Z"/>
  <path id="z36978d12" d="M 629 239 Q 630 226 630 212 Q 631 101 644 86 Q 648 80 654 83 Q 661 86 665 98 Q 674 125 675 245 L 676 277 Q 676 308 678 351 L 680 390 Q 680 396 682 400 Q 683 412 686 421 Q 689 434 677 443 Q 652 461 639 463 Q 629 467 616 459 Q 609 453 614 444 Q 627 423 628 379 L 629 343 Q 629 310 629 270 L 629 239 Z"/>
  <path id="z36978d13" d="M 208 696 Q 233 674 261 647 Q 276 634 292 634 Q 304 635 309 649 Q 313 664 304 695 Q 298 714 267 728 Q 194 753 180 747 Q 174 743 176 729 Q 180 719 208 696 Z"/>
  <path id="z36978d14" d="M 244 169 Q 313 211 224 317 Q 190 362 269 458 Q 270 461 273 463 Q 295 482 275 497 Q 254 513 219 526 Q 195 538 160 504 Q 93 462 70 461 Q 63 461 62 456 Q 61 452 69 447 Q 105 432 173 465 Q 180 469 189 461 Q 210 440 190 409 Q 174 388 165 358 Q 161 337 199 281 Q 238 221 228 175 Q 227 174 227 169 C 225 154 225 154 244 169 Z"/>
  <path id="z36978d15" d="M 227 169 Q 179 168 140 154 Q 97 138 67 135 Q 52 134 55 122 Q 59 112 101 91 Q 122 82 149 103 Q 183 142 253 135 Q 298 132 454 72 Q 518 50 573 23 Q 711 -43 767 -31 Q 839 -12 957 53 Q 963 56 962 62 Q 961 66 944 66 Q 614 48 377 134 Q 308 170 246 170 Q 245 170 244 169 L 227 169 Z"/>
<defs>
  <clipPath id="z36978c1"><use href="#z36978d1"/></clipPath>
  <clipPath id="z36978c2"><use href="#z36978d2"/></clipPath>
  <clipPath id="z36978c3"><use href="#z36978d3"/></clipPath>
  <clipPath id="z36978c4"><use href="#z36978d4"/></clipPath>
  <clipPath id="z36978c5"><use href="#z36978d5"/></clipPath>
  <clipPath id="z36978c6"><use href="#z36978d6"/></clipPath>
  <clipPath id="z36978c7"><use href="#z36978d7"/></clipPath>
  <clipPath id="z36978c8"><use href="#z36978d8"/></clipPath>
  <clipPath id="z36978c9"><use href="#z36978d9"/></clipPath>
  <clipPath id="z36978c10"><use href="#z36978d10"/></clipPath>
  <clipPath id="z36978c11"><use href="#z36978d11"/></clipPath>
  <clipPath id="z36978c12"><use href="#z36978d12"/></clipPath>
  <clipPath id="z36978c13"><use href="#z36978d13"/></clipPath>
  <clipPath id="z36978c14"><use href="#z36978d14"/></clipPath>
  <clipPath id="z36978c15"><use href="#z36978d15"/></clipPath>
</defs>
<path style="--d:1s;" pathLength="3333" clip-path="url(#z36978c1)" d="M 486 750 L 507 745 L 661 791 L 706 792 L 734 763 L 710 714 L 678 694"/>
<path style="--d:2s;" pathLength="3333" clip-path="url(#z36978c2)" d="M 485 618 L 505 628 L 676 672 L 732 670"/>
<path style="--d:3s;" pathLength="3333" clip-path="url(#z36978c3)" d="M 428 764 L 454 742 L 462 721 L 460 620 L 432 450 L 412 383 L 382 313 L 351 260 L 311 209"/>
<path style="--d:4s;" pathLength="3333" clip-path="url(#z36978c4)" d="M 627 629 L 638 625 L 648 604 L 649 483"/>
<path style="--d:5s;" pathLength="3333" clip-path="url(#z36978c5)" d="M 525 590 L 555 576 L 574 556"/>
<path style="--d:6s;" pathLength="3333" clip-path="url(#z36978c6)" d="M 498 466 L 527 468 L 569 504 L 580 505 L 583 515 L 596 519 L 601 529"/>
<path style="--d:7s;" pathLength="3333" clip-path="url(#z36978c7)" d="M 772 653 L 783 629 L 720 571 L 709 569 L 708 562"/>
<path style="--d:8s;" pathLength="3333" clip-path="url(#z36978c8)" d="M 726 515 L 791 489 L 813 458"/>
<path style="--d:9s;" pathLength="3333" clip-path="url(#z36978c9)" d="M 555 393 L 532 389 L 488 338 L 441 305"/>
<path style="--d:10s;" pathLength="3333" clip-path="url(#z36978c10)" d="M 543 354 L 616 357 L 729 382 L 775 382"/>
<path style="--d:11s;" pathLength="3333" clip-path="url(#z36978c11)" d="M 431 234 L 474 229 L 791 277 L 827 278 L 878 266"/>
<path style="--d:12s;" pathLength="3333" clip-path="url(#z36978c12)" d="M 627 450 L 654 422 L 651 92"/>
<path style="--d:13s;" pathLength="3333" clip-path="url(#z36978c13)" d="M 185 740 L 259 695 L 290 653"/>
<path style="--d:14s;" pathLength="3333" clip-path="url(#z36978c14)" d="M 69 454 L 98 455 L 200 494 L 231 473 L 220 424 L 197 382 L 189 350 L 200 316 L 246 242 L 251 203 L 231 171"/>
<path style="--d:15s;" pathLength="3333" clip-path="url(#z36978c15)" d="M 65 125 L 115 116 L 191 149 L 278 150 L 597 46 L 744 16 L 837 29 L 957 59"/>
</svg>