<svg id="z31605" class="acjk" viewBox="0 0 1024 1024" xmlns="http://www.w3.org/2000/svg">
<style>
<![CDATA[
@keyframes zk {
	to {
		stroke-dashoffset:0;
	}
}
svg.acjk path[clip-path] {
	--t:0.8s;
	animation:zk var(--t) linear forwards var(--d);
	stroke-dasharray:3337;
	stroke-dashoffset:3339;
	stroke-width:128;
	stroke-linecap:round;
	stroke-linejoin:round;
	fill:none;
	stroke:#000;
}
svg.acjk path[id] {fill:#ccc;}
]]>
</style>
  <path id="z31605d1" d="M 332 712 Q 350 743 368 769 Q 377 782 363 795 Q 321 826 296 821 Q 286 818 289 804 Q 302 720 222 622 Q 207 607 189 580 Q 182 565 196 570 Q 211 573 230 589 Q 291 638 324 698 L 332 712 Z"/>
  <path id="z31605d2" d="M 324 698 Q 348 674 416 683 L 492 696 Q 508 700 511 702 Q 518 709 515 717 Q 508 727 482 734 Q 467 737 388 719 Q 366 715 340 714 Q 334 714 332 712 C 314 706 314 706 324 698 Z"/>
  <path id="z31605d3" d="M 346 634 Q 388 574 410 570 Q 423 569 429 585 Q 432 597 424 616 Q 417 631 396 639 Q 365 655 352 659 Q 343 660 342 650 Q 341 643 346 634 Z"/>
  <path id="z31605d4" d="M 631 752 Q 646 782 662 807 Q 671 820 655 832 Q 613 860 588 855 Q 578 851 581 838 Q 600 756 521 648 Q 502 623 492 608 Q 485 592 499 598 Q 515 602 533 619 Q 588 670 620 729 L 631 752 Z"/>
  <path id="z31605d5" d="M 620 729 Q 657 711 731 722 Q 764 728 800 734 Q 819 738 823 741 Q 832 748 827 757 Q 820 767 792 775 Q 762 781 733 770 Q 711 763 687 758 Q 660 754 631 752 C 601 750 593 741 620 729 Z"/>
  <path id="z31605d6" d="M 667 643 Q 695 624 726 599 Q 739 589 753 591 Q 762 592 765 604 Q 768 617 758 642 Q 746 672 659 684 Q 646 685 640 683 Q 636 679 638 668 Q 642 658 667 643 Z"/>
  <path id="z31605d7" d="M 619 499 Q 670 529 713 540 Q 728 541 731 549 Q 734 559 722 568 Q 670 601 637 596 Q 631 592 631 582 Q 634 545 468 455 Q 464 446 469 444 Q 482 444 557 474 Q 569 478 583 483 L 619 499 Z"/>
  <path id="z31605d8" d="M 638 241 Q 639 310 643 368 L 644 401 Q 645 414 646 427 Q 649 472 645 477 Q 632 490 619 499 C 595 517 574 512 583 483 Q 590 468 594 378 Q 594 327 595 234 C 595 204 638 211 638 241 Z"/>
  <path id="z31605d9" d="M 643 368 Q 673 364 758 380 Q 788 386 792 389 Q 799 396 795 405 Q 788 415 760 422 Q 748 425 644 401 C 615 394 613 371 643 368 Z"/>
  <path id="z31605d10" d="M 595 234 Q 561 230 528 221 Q 519 217 518 221 Q 511 225 514 238 Q 521 319 530 342 Q 536 355 524 366 Q 505 385 478 395 Q 465 399 457 391 Q 453 385 462 371 Q 478 346 478 309 Q 477 240 452 207 Q 440 194 445 182 Q 452 164 468 149 Q 478 139 495 151 Q 576 202 756 194 Q 816 194 819 195 Q 826 201 821 213 Q 815 225 777 247 Q 756 260 690 248 Q 672 248 638 241 L 595 234 Z"/>
  <path id="z31605d11" d="M 335 194 Q 351 230 368 276 Q 383 309 399 322 Q 408 329 400 344 Q 393 353 354 371 Q 350 375 283 360 Q 274 359 270 364 Q 267 379 330 452 Q 352 480 371 488 Q 392 500 378 517 Q 351 542 324 549 Q 308 555 289 540 Q 273 527 233 514 Q 190 501 172 505 Q 159 506 155 499 Q 151 492 162 485 Q 204 458 268 485 Q 284 494 288 488 Q 292 476 240 390 Q 233 369 214 353 Q 201 343 205 331 Q 208 321 213 315 Q 225 302 243 313 Q 339 370 318 294 Q 308 248 296 216 L 281 183 Q 239 99 119 21 Q 107 11 116 6 Q 129 5 157 19 Q 238 58 285 110 Q 301 131 319 162 L 335 194 Z"/>
  <path id="z31605d12" d="M 319 162 Q 331 158 342 150 Q 477 57 663 -26 Q 709 -53 910 18 Q 922 25 924 35 Q 925 45 903 43 Q 830 50 750 50 Q 582 56 352 185 Q 343 191 335 194 L 296 216 Q 221 267 146 249 Q 136 243 141 234 Q 148 224 160 224 Q 211 223 271 189 Q 275 188 281 183 L 319 162 Z"/>
<defs>
  <clipPath id="z31605c1"><use href="#z31605d1"/></clipPath>
  <clipPath id="z31605c2"><use href="#z31605d2"/></clipPath>
  <clipPath id="z31605c3"><use href="#z31605d3"/></clipPath>
  <clipPath id="z31605c4"><use href="#z31605d4"/></clipPath>
  <clipPath id="z31605c5"><use href="#z31605d5"/></clipPath>
  <clipPath id="z31605c6"><use href="#z31605d6"/></clipPath>
  <clipPath id="z31605c7"><use href="#z31605d7"/></clipPath>
  <clipPath id="z31605c8"><use href="#z31605d8"/></clipPath>
  <clipPath id="z31605c9"><use href="#z31605d9"/></clipPath>
  <clipPath id="z31605c10"><use href="#z31605d10"/></clipPath>
  <clipPath id="z31605c11"><use href="#z31605d11"/></clipPath>
  <clipPath id="z31605c12"><use href="#z31605d12"/></clipPath>
</defs>
<path style="--d:1s;" pathLength="3333" clip-path="url(#z31605c1)" d="M 300 809 L 327 773 L 300 703 L 270 653 L 199 579"/>
<path style="--d:2s;" pathLength="3333" clip-path="url(#z31605c2)" d="M 332 698 L 385 699 L 472 714 L 504 712"/>
<path style="--d:3s;" pathLength="3333" clip-path="url(#z31605c3)" d="M 352 648 L 400 607 L 411 586"/>
<path style="--d:4s;" pathLength="3333" clip-path="url(#z31605c4)" d="M 593 843 L 621 810 L 596 734 L 559 671 L 502 607"/>
<path style="--d:5s;" pathLength="3333" clip-path="url(#z31605c5)" d="M 628 732 L 700 739 L 770 754 L 817 751"/>
<path style="--d:6s;" pathLength="3333" clip-path="url(#z31605c6)" d="M 645 675 L 716 642 L 751 605"/>
<path style="--d:7s;" pathLength="3333" clip-path="url(#z31605c7)" d="M 720 553 L 661 559 L 593 508 L 551 489 L 542 479 L 530 480 L 521 469 L 507 470 L 503 462 L 488 458 L 481 461 L 471 450"/>
<path style="--d:8s;" pathLength="3333" clip-path="url(#z31605c8)" d="M 591 482 L 618 462 L 617 267 L 614 255 L 601 243"/>
<path style="--d:9s;" pathLength="3333" clip-path="url(#z31605c9)" d="M 648 373 L 664 387 L 683 391 L 753 401 L 785 398"/>
<path style="--d:10s;" pathLength="3333" clip-path="url(#z31605c10)" d="M 466 386 L 501 350 L 490 193 L 523 194 L 620 215 L 738 225 L 789 215 L 816 201"/>
<path style="--d:11s;" pathLength="3333" clip-path="url(#z31605c11)" d="M 164 495 L 197 488 L 223 491 L 300 514 L 325 506 L 305 456 L 260 392 L 248 358 L 249 342 L 286 344 L 297 353 L 320 352 L 337 347 L 357 329 L 318 209 L 272 128 L 214 70 L 145 23 L 121 13"/>
<path style="--d:12s;" pathLength="3333" clip-path="url(#z31605c12)" d="M 153 238 L 197 237 L 251 221 L 516 75 L 685 12 L 764 12 L 915 34"/>
</svg>