<svg id="z35041" class="acjk" viewBox="0 0 1024 1024" xmlns="http://www.w3.org/2000/svg">
<style>
<![CDATA[
@keyframes zk {
	to {
		stroke-dashoffset:0;
	}
}
svg.acjk path[clip-path] {
	--t:0.8s;
	animation:zk var(--t) linear forwards var(--d);
	stroke-dasharray:3337;
	stroke-dashoffset:3339;
	stroke-width:128;
	stroke-linecap:round;
	stroke-linejoin:round;
	fill:none;
	stroke:#000;
}
svg.acjk path[id] {fill:#ccc;}
]]>
</style>
  <path id="z35041d1" d="M 327 754 Q 352 733 381 708 Q 397 695 413 697 Q 423 698 429 712 Q 433 728 421 759 Q 409 789 319 804 Q 303 807 296 803 Q 290 799 293 785 Q 297 775 327 754 Z"/>
  <path id="z35041d2" d="M 291 376 Q 352 481 403 522 Q 419 534 406 549 Q 385 565 356 574 Q 332 583 315 571 Q 234 517 94 510 Q 82 513 79 504 Q 76 494 91 484 Q 130 456 147 459 L 277 505 Q 292 511 295 504 Q 302 495 289 471 Q 217 321 52 148 Q 36 136 40 133 Q 43 130 56 136 Q 159 190 265 337 L 291 376 Z"/>
  <path id="z35041d3" d="M 265 337 Q 290 274 257 105 Q 238 36 275 -9 Q 275 -10 278 -12 Q 294 -28 306 -2 Q 321 38 320 83 Q 321 263 328 303 Q 335 330 326 340 Q 293 376 291 376 C 269 396 256 365 265 337 Z"/>
  <path id="z35041d4" d="M 401 342 Q 446 379 471 394 Q 484 400 481 408 Q 475 420 458 433 Q 442 446 423 446 Q 411 445 414 429 Q 417 414 381 352 C 366 326 378 323 401 342 Z"/>
  <path id="z35041d5" d="M 381 352 Q 363 361 356 358 Q 352 357 352 347 L 435 259 Q 442 249 454 248 Q 461 248 466 257 Q 470 267 466 287 Q 459 321 401 342 L 381 352 Z"/>
  <path id="z35041d6" d="M 523 646 Q 510 652 479 656 Q 466 660 463 654 Q 456 647 466 631 Q 503 552 525 421 Q 529 382 551 356 Q 570 334 575 350 Q 576 359 578 369 L 578 401 Q 577 417 573 436 Q 545 571 538 613 C 533 642 533 642 523 646 Z"/>
  <path id="z35041d7" d="M 773 401 Q 797 365 817 356 Q 829 347 845 372 Q 863 403 894 569 Q 904 603 929 630 Q 942 643 930 659 Q 914 677 867 705 Q 845 715 785 697 Q 764 697 616 665 Q 567 655 523 646 C 494 640 509 604 538 613 Q 575 626 628 636 L 678 645 Q 799 673 822 657 Q 840 644 835 620 Q 807 434 784 423 C 771 404 771 404 773 401 Z"/>
  <path id="z35041d8" d="M 706 512 Q 736 518 763 522 Q 787 526 777 540 Q 765 555 739 559 Q 726 560 707 556 L 650 539 Q 619 529 591 518 Q 573 514 596 499 Q 599 496 651 501 L 706 512 Z"/>
  <path id="z35041d9" d="M 703 392 Q 734 396 773 401 C 803 405 803 405 784 423 Q 778 430 763 438 Q 744 447 704 432 L 650 417 Q 610 408 578 401 C 549 395 548 367 578 369 Q 582 369 588 370 Q 612 377 650 383 L 703 392 Z"/>
  <path id="z35041d10" d="M 698 123 Q 698 178 699 228 L 700 275 Q 701 336 703 392 L 704 432 Q 705 474 706 512 L 707 556 Q 708 575 709 590 Q 716 611 706 622 Q 691 635 678 645 C 655 664 616 663 628 636 Q 634 621 641 609 Q 650 585 650 539 L 651 501 Q 651 470 650 417 L 650 383 Q 649 331 649 262 L 648 218 Q 648 172 648 116 C 648 86 698 93 698 123 Z"/>
  <path id="z35041d11" d="M 699 228 Q 813 252 819 257 Q 828 264 823 273 Q 816 283 788 291 Q 764 295 700 275 L 649 262 Q 612 256 569 252 Q 533 246 559 230 Q 595 209 648 218 L 699 228 Z"/>
  <path id="z35041d12" d="M 648 116 Q 536 106 405 91 Q 383 90 399 71 Q 414 56 432 50 Q 454 44 471 49 Q 693 101 949 82 Q 950 83 952 82 Q 973 82 978 91 Q 984 103 967 117 Q 907 163 856 147 Q 793 137 698 123 L 648 116 Z"/>
<defs>
  <clipPath id="z35041c1"><use href="#z35041d1"/></clipPath>
  <clipPath id="z35041c2"><use href="#z35041d2"/></clipPath>
  <clipPath id="z35041c3"><use href="#z35041d3"/></clipPath>
  <clipPath id="z35041c4"><use href="#z35041d4"/></clipPath>
  <clipPath id="z35041c5"><use href="#z35041d5"/></clipPath>
  <clipPath id="z35041c6"><use href="#z35041d6"/></clipPath>
  <clipPath id="z35041c7"><use href="#z35041d7"/></clipPath>
  <clipPath id="z35041c8"><use href="#z35041d8"/></clipPath>
  <clipPath id="z35041c9"><use href="#z35041d9"/></clipPath>
  <clipPath id="z35041c10"><use href="#z35041d10"/></clipPath>
  <clipPath id="z35041c11"><use href="#z35041d11"/></clipPath>
  <clipPath id="z35041c12"><use href="#z35041d12"/></clipPath>
</defs>
<path style="--d:1s;" pathLength="3333" clip-path="url(#z35041c1)" d="M 303 795 L 390 746 L 409 717"/>
<path style="--d:2s;" pathLength="3333" clip-path="url(#z35041c2)" d="M 89 500 L 145 487 L 298 532 L 334 529 L 338 524 L 323 475 L 221 313 L 138 215 L 43 135"/>
<path style="--d:3s;" pathLength="3333" clip-path="url(#z35041c3)" d="M 288 369 L 301 323 L 297 185 L 285 63 L 290 -2"/>
<path style="--d:4s;" pathLength="3333" clip-path="url(#z35041c4)" d="M 424 435 L 441 409 L 401 359 L 391 359"/>
<path style="--d:5s;" pathLength="3333" clip-path="url(#z35041c5)" d="M 361 350 L 434 296 L 453 262"/>
<path style="--d:6s;" pathLength="3333" clip-path="url(#z35041c6)" d="M 472 646 L 501 623 L 512 596 L 564 356"/>
<path style="--d:7s;" pathLength="3333" clip-path="url(#z35041c7)" d="M 531 643 L 547 634 L 632 655 L 799 683 L 832 682 L 858 671 L 881 642 L 860 574 L 843 477 L 818 402 L 824 367"/>
<path style="--d:8s;" pathLength="3333" clip-path="url(#z35041c8)" d="M 593 508 L 734 539 L 768 533"/>
<path style="--d:9s;" pathLength="3333" clip-path="url(#z35041c9)" d="M 583 374 L 594 388 L 615 394 L 720 416 L 775 421"/>
<path style="--d:10s;" pathLength="3333" clip-path="url(#z35041c10)" d="M 635 631 L 672 611 L 678 583 L 674 162 L 673 145 L 653 124"/>
<path style="--d:11s;" pathLength="3333" clip-path="url(#z35041c11)" d="M 561 242 L 583 236 L 633 238 L 764 267 L 813 267"/>
<path style="--d:12s;" pathLength="3333" clip-path="url(#z35041c12)" d="M 402 81 L 453 71 L 682 102 L 878 119 L 918 114 L 966 97"/>
</svg>