<svg id="z34836" class="acjk" viewBox="0 0 1024 1024" xmlns="http://www.w3.org/2000/svg">
<style>
<![CDATA[
@keyframes zk {
	to {
		stroke-dashoffset:0;
	}
}
svg.acjk path[clip-path] {
	--t:0.8s;
	animation:zk var(--t) linear forwards var(--d);
	stroke-dasharray:3337;
	stroke-dashoffset:3339;
	stroke-width:128;
	stroke-linecap:round;
	stroke-linejoin:round;
	fill:none;
	stroke:#000;
}
svg.acjk path[id] {fill:#ccc;}
]]>
</style>
  <path id="z34836d1" d="M 109 517 Q 99 521 74 522 Q 64 523 60 519 Q 56 513 64 500 Q 92 454 116 375 Q 120 351 137 337 Q 155 319 158 333 Q 159 343 159 357 L 152 387 Q 131 466 127 491 C 123 513 123 513 109 517 Z"/>
  <path id="z34836d2" d="M 355 421 Q 376 487 404 510 Q 417 526 405 541 Q 348 586 312 571 Q 284 559 258 549 L 212 537 Q 161 527 109 517 C 80 511 97 487 127 491 Q 139 492 154 496 Q 182 503 213 508 L 258 518 Q 313 533 323 524 Q 335 512 314 427 C 307 398 346 393 355 421 Z"/>
  <path id="z34836d3" d="M 256 375 Q 302 384 366 391 Q 376 392 376 401 Q 376 408 355 421 L 314 427 Q 299 427 257 412 L 215 401 Q 181 394 152 387 C 123 380 129 356 159 357 Q 165 357 172 358 Q 190 364 215 368 L 256 375 Z"/>
  <path id="z34836d4" d="M 253 238 Q 254 308 256 375 L 257 412 Q 257 466 258 518 L 258 549 Q 258 603 276 711 Q 280 723 259 737 Q 223 755 198 758 Q 182 761 174 752 Q 167 745 176 729 Q 206 686 207 656 Q 210 598 212 537 L 213 508 Q 214 456 215 401 L 215 368 Q 214 299 211 224 C 210 194 253 208 253 238 Z"/>
  <path id="z34836d5" d="M 324 261 Q 290 251 253 238 L 211 224 Q 159 209 104 192 Q 88 186 60 187 Q 47 186 46 175 Q 45 162 54 154 Q 76 138 110 121 Q 120 118 132 127 Q 156 148 306 224 Q 321 233 333 241 C 358 257 353 270 324 261 Z"/>
  <path id="z34836d6" d="M 333 241 Q 355 199 363 196 Q 370 195 378 201 Q 385 210 387 232 Q 390 251 370 275 Q 319 323 308 322 Q 304 321 301 312 Q 301 303 324 261 L 333 241 Z"/>
  <path id="z34836d7" d="M 590 818 Q 611 802 634 781 Q 647 771 660 772 Q 670 773 673 784 Q 677 797 667 823 Q 658 847 583 859 Q 570 862 564 859 Q 560 855 562 844 Q 566 834 590 818 Z"/>
  <path id="z34836d8" d="M 472 720 Q 441 716 463 700 Q 503 678 546 689 Q 646 708 751 727 Q 799 737 806 744 Q 813 751 810 758 Q 804 768 780 775 Q 756 781 660 751 Q 573 729 472 720 Z"/>
  <path id="z34836d9" d="M 534 641 Q 525 645 500 646 Q 490 647 488 644 Q 484 638 492 626 Q 513 593 531 536 Q 535 518 546 508 Q 562 492 565 505 Q 566 514 566 526 L 561 551 Q 549 597 546 616 C 542 638 542 638 534 641 Z"/>
  <path id="z34836d10" d="M 722 576 Q 740 618 762 628 Q 775 641 764 655 Q 709 700 662 676 Q 613 658 534 641 C 505 635 517 610 546 616 Q 609 629 673 644 Q 686 648 692 642 Q 696 638 696 627 Q 690 603 684 582 C 676 553 710 549 722 576 Z"/>
  <path id="z34836d11" d="M 566 526 Q 573 525 582 527 Q 628 539 731 552 Q 740 553 740 560 Q 740 566 722 576 L 684 582 Q 680 582 678 581 Q 614 562 561 551 C 532 545 536 528 566 526 Z"/>
  <path id="z34836d12" d="M 454 456 Q 442 480 424 490 Q 420 494 415 490 Q 411 486 410 476 Q 416 449 391 389 Q 382 373 384 356 Q 388 338 397 325 Q 404 315 409 323 Q 415 324 422 339 Q 426 345 433 369 Q 451 424 456 430 C 462 441 462 441 454 456 Z"/>
  <path id="z34836d13" d="M 456 430 Q 474 424 520 437 Q 664 479 777 490 Q 804 494 815 493 Q 825 486 822 480 Q 822 477 798 421 Q 789 408 795 404 Q 802 401 818 411 Q 866 441 905 449 Q 936 456 936 465 Q 933 474 872 518 Q 851 536 771 517 Q 747 514 534 472 Q 494 463 454 456 C 424 451 426 433 456 430 Z"/>
  <path id="z34836d14" d="M 575 355 Q 611 365 705 382 Q 712 382 719 392 Q 719 401 701 408 Q 668 418 614 399 Q 605 398 598 395 Q 564 386 486 370 Q 464 366 482 354 Q 491 347 502 342 Q 508 339 551 349 L 575 355 Z"/>
  <path id="z34836d15" d="M 586 310 Q 599 325 600 326 Q 594 347 575 355 C 553 367 553 367 551 349 Q 551 298 422 207 Q 416 206 422 202 Q 473 202 569 292 L 586 310 Z"/>
  <path id="z34836d16" d="M 696 223 Q 695 226 680 245 L 669 256 Q 633 289 586 310 C 559 323 542 306 569 292 Q 582 286 587 282 L 627 253 Q 634 246 643 236 L 668 196 Q 687 145 660 58 Q 650 27 639 22 Q 630 16 558 27 Q 545 31 544 24 Q 543 17 554 7 Q 606 -33 627 -60 Q 637 -73 649 -71 Q 691 -52 711 44 Q 726 123 715 169 L 696 223 Z"/>
  <path id="z34836d17" d="M 587 282 Q 566 219 427 124 Q 414 115 431 116 Q 495 123 614 241 Q 620 248 627 253 C 650 272 598 310 587 282 Z"/>
  <path id="z34836d18" d="M 643 236 Q 571 139 531 103 Q 522 97 514 90 Q 483 62 400 12 Q 388 3 396 1 Q 411 -8 482 25 Q 545 55 625 140 Q 659 176 660 178 Q 666 187 668 196 C 678 224 661 260 643 236 Z"/>
  <path id="z34836d19" d="M 680 245 L 681 245 Q 760 294 798 312 Q 814 316 811 326 Q 807 339 790 358 Q 774 374 754 378 Q 741 378 741 361 Q 742 340 669 256 C 649 233 653 232 680 245 Z"/>
  <path id="z34836d20" d="M 715 169 Q 758 121 805 75 Q 824 56 856 56 Q 914 55 975 68 Q 991 69 992 74 Q 993 80 981 84 Q 840 129 823 139 Q 820 142 818 142 Q 817 142 696 223 C 671 240 695 191 715 169 Z"/>
<defs>
  <clipPath id="z34836c1"><use href="#z34836d1"/></clipPath>
  <clipPath id="z34836c2"><use href="#z34836d2"/></clipPath>
  <clipPath id="z34836c3"><use href="#z34836d3"/></clipPath>
  <clipPath id="z34836c4"><use href="#z34836d4"/></clipPath>
  <clipPath id="z34836c5"><use href="#z34836d5"/></clipPath>
  <clipPath id="z34836c6"><use href="#z34836d6"/></clipPath>
  <clipPath id="z34836c7"><use href="#z34836d7"/></clipPath>
  <clipPath id="z34836c8"><use href="#z34836d8"/></clipPath>
  <clipPath id="z34836c9"><use href="#z34836d9"/></clipPath>
  <clipPath id="z34836c10"><use href="#z34836d10"/></clipPath>
  <clipPath id="z34836c11"><use href="#z34836d11"/></clipPath>
  <clipPath id="z34836c12"><use href="#z34836d12"/></clipPath>
  <clipPath id="z34836c13"><use href="#z34836d13"/></clipPath>
  <clipPath id="z34836c14"><use href="#z34836d14"/></clipPath>
  <clipPath id="z34836c15"><use href="#z34836d15"/></clipPath>
  <clipPath id="z34836c16"><use href="#z34836d16"/></clipPath>
  <clipPath id="z34836c17"><use href="#z34836d17"/></clipPath>
  <clipPath id="z34836c18"><use href="#z34836d18"/></clipPath>
  <clipPath id="z34836c19"><use href="#z34836d19"/></clipPath>
  <clipPath id="z34836c20"><use href="#z34836d20"/></clipPath>
</defs>
<path style="--d:1s;" pathLength="3333" clip-path="url(#z34836c1)" d="M 68 514 L 92 498 L 102 482 L 148 337"/>
<path style="--d:2s;" pathLength="3333" clip-path="url(#z34836c2)" d="M 117 513 L 144 508 L 314 549 L 337 548 L 364 522 L 340 445 L 322 437"/>
<path style="--d:3s;" pathLength="3333" clip-path="url(#z34836c3)" d="M 160 381 L 172 375 L 312 406 L 366 401"/>
<path style="--d:4s;" pathLength="3333" clip-path="url(#z34836c4)" d="M 186 743 L 235 705 L 237 685 L 233 253 L 216 231"/>
<path style="--d:5s;" pathLength="3333" clip-path="url(#z34836c5)" d="M 59 174 L 115 158 L 289 231 L 317 245 L 319 253"/>
<path style="--d:6s;" pathLength="3333" clip-path="url(#z34836c6)" d="M 309 314 L 356 253 L 368 207"/>
<path style="--d:7s;" pathLength="3333" clip-path="url(#z34836c7)" d="M 570 851 L 635 817 L 659 786"/>
<path style="--d:8s;" pathLength="3333" clip-path="url(#z34836c8)" d="M 465 711 L 523 705 L 749 751 L 799 754"/>
<path style="--d:9s;" pathLength="3333" clip-path="url(#z34836c9)" d="M 495 639 L 524 613 L 556 509"/>
<path style="--d:10s;" pathLength="3333" clip-path="url(#z34836c10)" d="M 544 638 L 554 631 L 686 665 L 707 661 L 726 642 L 709 599 L 691 588"/>
<path style="--d:11s;" pathLength="3333" clip-path="url(#z34836c11)" d="M 570 533 L 583 542 L 675 563 L 732 560"/>
<path style="--d:12s;" pathLength="3333" clip-path="url(#z34836c12)" d="M 420 481 L 429 466 L 432 436 L 410 374 L 405 335"/>
<path style="--d:13s;" pathLength="3333" clip-path="url(#z34836c13)" d="M 462 450 L 471 443 L 492 446 L 598 474 L 822 510 L 852 493 L 862 477 L 799 409"/>
<path style="--d:14s;" pathLength="3333" clip-path="url(#z34836c14)" d="M 482 362 L 511 358 L 644 390 L 710 393"/>
<path style="--d:15s;" pathLength="3333" clip-path="url(#z34836c15)" d="M 591 330 L 571 329 L 520 266 L 467 226 L 445 213 L 435 214"/>
<path style="--d:16s;" pathLength="3333" clip-path="url(#z34836c16)" d="M 577 293 L 590 295 L 634 267 L 678 216 L 696 159 L 697 108 L 675 20 L 646 -19 L 552 22"/>
<path style="--d:17s;" pathLength="3333" clip-path="url(#z34836c17)" d="M 590 276 L 595 250 L 564 213 L 484 149 L 435 123"/>
<path style="--d:18s;" pathLength="3333" clip-path="url(#z34836c18)" d="M 640 225 L 640 192 L 555 98 L 490 48 L 401 5"/>
<path style="--d:19s;" pathLength="3333" clip-path="url(#z34836c19)" d="M 799 324 L 767 334 L 681 257"/>
<path style="--d:20s;" pathLength="3333" clip-path="url(#z34836c20)" d="M 710 205 L 744 166 L 832 97 L 905 82 L 985 77"/>
</svg>