<svg id="z36737" class="acjk" viewBox="0 0 1024 1024" xmlns="http://www.w3.org/2000/svg">
<style>
<![CDATA[
@keyframes zk {
	to {
		stroke-dashoffset:0;
	}
}
svg.acjk path[clip-path] {
	--t:0.8s;
	animation:zk var(--t) linear forwards var(--d);
	stroke-dasharray:3337;
	stroke-dashoffset:3339;
	stroke-width:128;
	stroke-linecap:round;
	stroke-linejoin:round;
	fill:none;
	stroke:#000;
}
svg.acjk path[id] {fill:#ccc;}
]]>
</style>
  <path id="z36737d1" d="M 286 593 Q 344 608 408 620 Q 448 630 455 637 Q 464 644 459 653 Q 452 663 424 671 Q 394 675 365 664 Q 337 654 310 645 L 259 630 Q 205 620 144 612 Q 110 606 135 590 Q 171 571 241 583 L 286 593 Z"/>
  <path id="z36737d2" d="M 358 408 Q 386 415 412 416 Q 440 419 432 432 Q 423 445 406 452 Q 391 458 360 445 L 310 432 Q 216 414 213 415 Q 207 427 286 593 L 310 645 Q 346 732 369 752 Q 382 762 366 783 Q 341 810 322 823 Q 309 830 299 828 Q 290 824 296 803 Q 303 767 259 630 L 241 583 Q 178 445 147 414 Q 131 399 136 384 Q 143 365 153 354 Q 162 344 172 349 Q 235 385 309 397 L 358 408 Z"/>
  <path id="z36737d3" d="M 300 239 Q 291 134 282 104 Q 270 71 305 13 Q 315 -6 324 -11 Q 336 -12 341 1 Q 354 34 352 64 Q 351 167 353 259 L 354 292 Q 354 340 358 408 L 360 445 Q 361 472 366 487 Q 369 499 362 505 Q 340 527 320 537 Q 307 541 298 533 Q 292 530 299 520 Q 308 504 310 432 L 309 397 Q 306 298 303 277 L 300 239 Z"/>
  <path id="z36737d4" d="M 353 259 Q 362 263 374 268 Q 401 278 421 292 Q 434 299 434 307 Q 430 313 417 311 Q 386 302 354 292 L 303 277 Q 221 256 132 232 Q 113 226 79 228 Q 67 227 65 217 Q 62 205 71 197 Q 92 181 123 162 Q 133 159 144 167 Q 184 194 300 239 L 353 259 Z"/>
  <path id="z36737d5" d="M 642 670 Q 657 704 673 721 Q 682 733 675 746 Q 669 759 638 778 Q 608 794 590 791 Q 571 787 582 766 Q 622 702 446 407 Q 442 403 439 396 Q 430 384 429 378 Q 426 366 441 371 Q 487 383 603 589 Q 615 614 630 643 L 642 670 Z"/>
  <path id="z36737d6" d="M 630 643 Q 631 642 633 640 Q 775 414 817 402 Q 928 402 962 407 Q 971 408 972 413 Q 973 417 960 425 Q 831 480 758 549 Q 704 600 646 666 Q 645 669 642 670 C 622 692 612 667 630 643 Z"/>
  <path id="z36737d7" d="M 628 364 Q 743 394 748 397 Q 755 404 751 413 Q 744 423 716 430 Q 686 434 658 422 Q 624 410 588 400 Q 548 390 500 384 Q 464 377 490 362 Q 529 341 583 354 L 628 364 Z"/>
  <path id="z36737d8" d="M 640 217 Q 673 224 759 236 Q 769 235 777 247 Q 778 257 757 267 Q 721 288 646 262 Q 643 262 642 261 L 592 249 Q 562 245 537 240 Q 507 236 476 231 Q 448 227 470 211 Q 498 190 540 198 Q 562 204 592 208 L 640 217 Z"/>
  <path id="z36737d9" d="M 634 101 Q 637 164 640 217 L 642 261 Q 645 315 647 323 Q 654 341 628 364 C 606 385 570 381 583 354 Q 584 353 586 350 Q 589 341 592 249 L 592 208 Q 592 162 592 95 C 592 65 633 71 634 101 Z"/>
  <path id="z36737d10" d="M 592 95 Q 508 86 413 74 Q 391 73 407 55 Q 420 42 439 35 Q 460 29 476 34 Q 660 76 844 60 L 846 60 Q 865 60 871 68 Q 875 80 860 94 Q 802 137 740 119 Q 695 112 634 101 L 592 95 Z"/>
<defs>
  <clipPath id="z36737c1"><use href="#z36737d1"/></clipPath>
  <clipPath id="z36737c2"><use href="#z36737d2"/></clipPath>
  <clipPath id="z36737c3"><use href="#z36737d3"/></clipPath>
  <clipPath id="z36737c4"><use href="#z36737d4"/></clipPath>
  <clipPath id="z36737c5"><use href="#z36737d5"/></clipPath>
  <clipPath id="z36737c6"><use href="#z36737d6"/></clipPath>
  <clipPath id="z36737c7"><use href="#z36737d7"/></clipPath>
  <clipPath id="z36737c8"><use href="#z36737d8"/></clipPath>
  <clipPath id="z36737c9"><use href="#z36737d9"/></clipPath>
  <clipPath id="z36737c10"><use href="#z36737d10"/></clipPath>
</defs>
<path style="--d:1s;" pathLength="3333" clip-path="url(#z36737c1)" d="M 137 602 L 181 597 L 228 602 L 392 644 L 449 647"/>
<path style="--d:2s;" pathLength="3333" clip-path="url(#z36737c2)" d="M 304 819 L 322 793 L 331 764 L 265 588 L 192 436 L 181 396 L 209 392 L 397 435 L 419 428"/>
<path style="--d:3s;" pathLength="3333" clip-path="url(#z36737c3)" d="M 307 527 L 336 489 L 329 276 L 315 86 L 327 1"/>
<path style="--d:4s;" pathLength="3333" clip-path="url(#z36737c4)" d="M 78 214 L 129 197 L 428 305"/>
<path style="--d:5s;" pathLength="3333" clip-path="url(#z36737c5)" d="M 592 777 L 618 755 L 630 734 L 601 649 L 529 505 L 474 419 L 438 379"/>
<path style="--d:6s;" pathLength="3333" clip-path="url(#z36737c6)" d="M 639 663 L 650 635 L 727 541 L 825 446 L 965 413"/>
<path style="--d:7s;" pathLength="3333" clip-path="url(#z36737c7)" d="M 492 374 L 541 369 L 636 388 L 695 407 L 743 405"/>
<path style="--d:8s;" pathLength="3333" clip-path="url(#z36737c8)" d="M 471 222 L 494 216 L 529 217 L 698 252 L 735 254 L 767 248"/>
<path style="--d:9s;" pathLength="3333" clip-path="url(#z36737c9)" d="M 595 349 L 618 331 L 614 125 L 598 103"/>
<path style="--d:10s;" pathLength="3333" clip-path="url(#z36737c10)" d="M 410 65 L 466 56 L 766 94 L 813 90 L 861 74"/>
</svg>