<svg id="z30224" class="acjk" viewBox="0 0 1024 1024" xmlns="http://www.w3.org/2000/svg">
<style>
<![CDATA[
@keyframes zk {
	to {
		stroke-dashoffset:0;
	}
}
svg.acjk path[clip-path] {
	--t:0.8s;
	animation:zk var(--t) linear forwards var(--d);
	stroke-dasharray:3337;
	stroke-dashoffset:3339;
	stroke-width:128;
	stroke-linecap:round;
	stroke-linejoin:round;
	fill:none;
	stroke:#000;
}
svg.acjk path[id] {fill:#ccc;}
]]>
</style>
  <path id="z30224d1" d="M 507 793 Q 532 774 560 751 Q 575 739 590 741 Q 600 742 605 756 Q 608 772 597 800 Q 590 818 560 829 Q 530 836 498 840 Q 482 841 476 839 Q 472 835 474 822 Q 478 812 507 793 Z"/>
  <path id="z30224d2" d="M 353 629 Q 374 623 443 632 Q 771 692 800 702 Q 806 705 810 707 Q 819 714 815 724 Q 808 736 778 745 Q 747 752 717 741 Q 543 686 348 665 C 318 662 323 633 353 629 Z"/>
  <path id="z30224d3" d="M 258 331 Q 219 166 99 -25 Q 93 -32 92 -38 Q 89 -48 100 -47 Q 134 -41 222 98 Q 235 125 250 153 Q 316 304 342 549 Q 345 598 353 629 C 359 657 359 657 348 665 Q 333 680 307 691 Q 288 701 274 697 Q 262 690 269 676 Q 290 645 287 584 Q 271 383 264 364 L 258 331 Z"/>
  <path id="z30224d4" d="M 130 530 Q 161 499 194 463 Q 206 450 221 449 Q 231 449 237 461 Q 243 474 237 504 Q 230 540 129 576 Q 114 580 108 579 Q 104 575 103 563 Q 106 553 130 530 Z"/>
  <path id="z30224d5" d="M 264 364 Q 71 280 36 277 Q 23 274 23 264 Q 23 251 32 245 Q 56 232 89 218 Q 99 217 109 226 Q 130 247 256 330 Q 256 331 258 331 C 284 347 292 376 264 364 Z"/>
  <path id="z30224d6" d="M 422 464 Q 467 497 479 506 Q 492 521 512 531 Q 530 541 519 555 Q 507 568 484 578 Q 463 588 453 584 Q 443 583 447 571 Q 451 552 404 478 C 388 453 398 446 422 464 Z"/>
  <path id="z30224d7" d="M 462 272 Q 459 288 441 367 L 434 397 Q 425 443 424 456 Q 423 460 422 464 C 420 474 420 474 404 478 Q 392 482 374 484 Q 364 485 360 481 Q 356 477 363 462 Q 397 392 417 279 Q 421 245 441 222 Q 457 203 462 217 Q 465 230 465 247 L 462 272 Z"/>
  <path id="z30224d8" d="M 441 367 Q 490 377 529 384 Q 551 390 542 401 Q 530 414 506 416 Q 467 419 434 397 C 409 381 412 361 441 367 Z"/>
  <path id="z30224d9" d="M 717 279 Q 711 263 717 248 Q 723 232 736 233 Q 749 234 757 250 Q 776 278 804 416 Q 820 467 857 495 Q 876 511 860 526 Q 842 542 793 569 Q 775 581 741 567 Q 701 558 659 546 Q 646 546 643 541 Q 640 537 654 528 Q 676 519 712 524 Q 751 537 758 531 Q 771 524 764 479 Q 758 451 753 426 L 746 388 Q 734 334 726 305 L 717 279 Z"/>
  <path id="z30224d10" d="M 753 426 Q 731 429 656 408 Q 640 405 658 390 Q 659 390 746 388 C 776 387 783 423 753 426 Z"/>
  <path id="z30224d11" d="M 596 263 Q 660 273 717 279 C 747 282 752 290 726 305 Q 708 323 602 297 L 552 287 Q 504 280 462 272 C 433 266 435 248 465 247 Q 475 246 491 248 Q 519 252 547 256 L 596 263 Z"/>
  <path id="z30224d12" d="M 595 261 Q 595 262 596 263 L 602 297 Q 606 334 617 490 Q 618 532 633 582 Q 637 592 630 600 Q 579 642 544 630 Q 526 623 541 607 Q 568 580 568 553 Q 569 394 552 287 L 547 256 Q 522 123 398 32 Q 365 11 320 -14 Q 308 -18 306 -23 Q 302 -27 316 -30 Q 329 -31 382 -12 Q 419 1 474 38 Q 555 92 587 216 Q 587 219 588 222 L 595 261 Z"/>
  <path id="z30224d13" d="M 588 222 Q 751 -42 803 -43 Q 866 -39 921 -34 Q 943 -33 944 -27 Q 945 -20 919 -8 Q 784 52 748 88 Q 666 166 595 261 C 577 285 572 247 588 222 Z"/>
<defs>
  <clipPath id="z30224c1"><use href="#z30224d1"/></clipPath>
  <clipPath id="z30224c2"><use href="#z30224d2"/></clipPath>
  <clipPath id="z30224c3"><use href="#z30224d3"/></clipPath>
  <clipPath id="z30224c4"><use href="#z30224d4"/></clipPath>
  <clipPath id="z30224c5"><use href="#z30224d5"/></clipPath>
  <clipPath id="z30224c6"><use href="#z30224d6"/></clipPath>
  <clipPath id="z30224c7"><use href="#z30224d7"/></clipPath>
  <clipPath id="z30224c8"><use href="#z30224d8"/></clipPath>
  <clipPath id="z30224c9"><use href="#z30224d9"/></clipPath>
  <clipPath id="z30224c10"><use href="#z30224d10"/></clipPath>
  <clipPath id="z30224c11"><use href="#z30224d11"/></clipPath>
  <clipPath id="z30224c12"><use href="#z30224d12"/></clipPath>
  <clipPath id="z30224c13"><use href="#z30224d13"/></clipPath>
</defs>
<path style="--d:1s;" pathLength="3333" clip-path="url(#z30224c1)" d="M 481 833 L 556 797 L 586 760"/>
<path style="--d:2s;" pathLength="3333" clip-path="url(#z30224c2)" d="M 357 660 L 371 647 L 430 652 L 556 674 L 754 720 L 803 718"/>
<path style="--d:3s;" pathLength="3333" clip-path="url(#z30224c3)" d="M 280 684 L 310 657 L 319 631 L 305 471 L 282 325 L 249 216 L 197 98 L 132 -4 L 101 -38"/>
<path style="--d:4s;" pathLength="3333" clip-path="url(#z30224c4)" d="M 112 573 L 197 508 L 220 467"/>
<path style="--d:5s;" pathLength="3333" clip-path="url(#z30224c5)" d="M 37 263 L 90 256 L 246 340 L 251 349"/>
<path style="--d:6s;" pathLength="3333" clip-path="url(#z30224c6)" d="M 509 545 L 475 544 L 424 483 L 416 484"/>
<path style="--d:7s;" pathLength="3333" clip-path="url(#z30224c7)" d="M 368 476 L 398 449 L 452 222"/>
<path style="--d:8s;" pathLength="3333" clip-path="url(#z30224c8)" d="M 447 376 L 455 388 L 485 397 L 532 395"/>
<path style="--d:9s;" pathLength="3333" clip-path="url(#z30224c9)" d="M 648 539 L 687 537 L 767 552 L 789 540 L 808 507 L 783 440 L 755 312 L 735 252"/>
<path style="--d:10s;" pathLength="3333" clip-path="url(#z30224c10)" d="M 657 399 L 729 405 L 749 420"/>
<path style="--d:11s;" pathLength="3333" clip-path="url(#z30224c11)" d="M 471 254 L 477 261 L 719 300"/>
<path style="--d:12s;" pathLength="3333" clip-path="url(#z30224c12)" d="M 546 618 L 571 609 L 598 582 L 583 339 L 555 195 L 518 118 L 467 60 L 428 30 L 368 -4 L 312 -25"/>
<path style="--d:13s;" pathLength="3333" clip-path="url(#z30224c13)" d="M 598 254 L 606 217 L 637 174 L 732 61 L 782 16 L 808 -1 L 938 -25"/>
</svg>