<svg id="z35516" class="acjk" viewBox="0 0 1024 1024" xmlns="http://www.w3.org/2000/svg">
<style>
<![CDATA[
@keyframes zk {
	to {
		stroke-dashoffset:0;
	}
}
svg.acjk path[clip-path] {
	--t:0.8s;
	animation:zk var(--t) linear forwards var(--d);
	stroke-dasharray:3337;
	stroke-dashoffset:3339;
	stroke-width:128;
	stroke-linecap:round;
	stroke-linejoin:round;
	fill:none;
	stroke:#000;
}
svg.acjk path[id] {fill:#ccc;}
]]>
</style>
  <path id="z35516d1" d="M 327 751 Q 349 730 375 705 Q 391 692 408 693 Q 420 694 424 709 Q 428 725 419 757 Q 407 787 320 803 Q 304 807 296 803 Q 290 799 293 785 Q 297 772 327 751 Z"/>
  <path id="z35516d2" d="M 72 560 Q 59 559 56 550 Q 53 540 69 528 Q 106 504 171 524 Q 267 563 409 589 Q 427 593 427 600 Q 427 613 408 622 Q 380 632 356 626 Q 167 575 72 560 Z"/>
  <path id="z35516d3" d="M 219 467 Q 188 457 213 445 Q 255 429 302 449 Q 338 461 376 473 Q 392 480 395 482 Q 402 491 396 498 Q 389 508 361 510 Q 346 510 269 481 Q 247 474 219 467 Z"/>
  <path id="z35516d4" d="M 216 371 Q 183 361 209 349 Q 245 337 318 357 Q 342 364 371 374 Q 387 380 390 382 Q 397 391 392 398 Q 385 408 357 411 Q 341 411 265 383 Q 243 376 216 371 Z"/>
  <path id="z35516d5" d="M 194 257 Q 184 263 154 269 Q 142 272 139 267 Q 132 263 140 246 Q 165 188 179 95 Q 180 67 197 47 Q 213 26 219 41 Q 226 60 221 102 Q 220 103 220 104 L 215 140 Q 205 204 204 228 C 202 253 202 253 194 257 Z"/>
  <path id="z35516d6" d="M 362 160 Q 381 217 402 234 Q 424 259 402 274 Q 339 307 338 308 Q 328 309 318 303 Q 288 282 194 257 C 165 249 175 219 204 228 Q 204 229 294 251 Q 319 257 326 247 Q 332 243 325 216 Q 319 194 312 166 C 305 137 352 132 362 160 Z"/>
  <path id="z35516d7" d="M 220 104 Q 241 116 373 129 Q 383 130 385 140 Q 385 147 362 160 L 312 166 Q 308 166 307 165 Q 256 149 215 140 C 186 133 193 92 220 104 Z"/>
  <path id="z35516d8" d="M 625 791 Q 653 766 681 736 Q 696 721 714 721 Q 726 722 732 737 Q 738 753 729 788 Q 717 822 621 846 Q 603 850 596 847 Q 590 843 592 828 Q 596 815 625 791 Z"/>
  <path id="z35516d9" d="M 513 624 Q 501 648 483 658 Q 479 662 474 659 Q 470 655 469 644 Q 473 616 448 556 Q 438 540 440 522 Q 444 503 453 489 Q 460 479 466 487 Q 476 490 491 534 Q 503 573 515 596 C 521 608 521 608 513 624 Z"/>
  <path id="z35516d10" d="M 515 596 Q 539 586 592 602 Q 601 606 780 651 Q 814 658 825 656 Q 838 652 837 643 Q 838 636 831 626 Q 794 551 799 548 Q 808 544 825 556 Q 880 593 926 606 Q 963 616 963 627 Q 960 637 890 687 Q 863 709 778 684 Q 742 680 587 641 Q 550 631 514 625 Q 513 625 513 624 C 484 617 486 602 515 596 Z"/>
  <path id="z35516d11" d="M 566 462 Q 551 475 538 480 Q 526 484 517 480 Q 508 476 512 465 Q 528 426 532 329 Q 532 251 532 84 C 532 54 573 59 574 89 Q 575 143 576 192 L 577 220 Q 578 269 580 313 L 581 342 Q 581 411 587 430 C 590 443 590 443 566 462 Z"/>
  <path id="z35516d12" d="M 794 118 Q 795 406 820 439 Q 833 455 819 472 Q 809 484 755 513 Q 740 522 664 490 Q 582 466 566 462 C 537 454 560 417 587 430 Q 632 454 713 467 Q 726 470 732 466 Q 738 454 736 109 C 736 79 794 88 794 118 Z"/>
  <path id="z35516d13" d="M 580 313 Q 646 325 692 332 Q 714 336 705 349 Q 695 362 671 365 Q 638 368 581 342 C 554 330 550 308 580 313 Z"/>
  <path id="z35516d14" d="M 576 192 Q 579 192 583 192 Q 647 202 695 207 Q 717 211 709 224 Q 699 239 673 243 Q 624 246 577 220 C 551 206 546 192 576 192 Z"/>
  <path id="z35516d15" d="M 532 84 Q 454 77 373 67 Q 351 66 367 47 Q 382 32 400 26 Q 422 20 439 25 Q 605 67 932 67 Q 950 67 969 66 Q 990 66 995 75 Q 1001 87 983 101 Q 923 146 868 131 Q 834 127 794 118 L 736 109 Q 699 105 658 99 Q 618 95 574 89 L 532 84 Z"/>
<defs>
  <clipPath id="z35516c1"><use href="#z35516d1"/></clipPath>
  <clipPath id="z35516c2"><use href="#z35516d2"/></clipPath>
  <clipPath id="z35516c3"><use href="#z35516d3"/></clipPath>
  <clipPath id="z35516c4"><use href="#z35516d4"/></clipPath>
  <clipPath id="z35516c5"><use href="#z35516d5"/></clipPath>
  <clipPath id="z35516c6"><use href="#z35516d6"/></clipPath>
  <clipPath id="z35516c7"><use href="#z35516d7"/></clipPath>
  <clipPath id="z35516c8"><use href="#z35516d8"/></clipPath>
  <clipPath id="z35516c9"><use href="#z35516d9"/></clipPath>
  <clipPath id="z35516c10"><use href="#z35516d10"/></clipPath>
  <clipPath id="z35516c11"><use href="#z35516d11"/></clipPath>
  <clipPath id="z35516c12"><use href="#z35516d12"/></clipPath>
  <clipPath id="z35516c13"><use href="#z35516d13"/></clipPath>
  <clipPath id="z35516c14"><use href="#z35516d14"/></clipPath>
  <clipPath id="z35516c15"><use href="#z35516d15"/></clipPath>
</defs>
<path style="--d:1s;" pathLength="3333" clip-path="url(#z35516c1)" d="M 303 795 L 384 745 L 406 711"/>
<path style="--d:2s;" pathLength="3333" clip-path="url(#z35516c2)" d="M 68 547 L 91 541 L 140 544 L 352 602 L 417 603"/>
<path style="--d:3s;" pathLength="3333" clip-path="url(#z35516c3)" d="M 214 457 L 262 458 L 336 483 L 387 491"/>
<path style="--d:4s;" pathLength="3333" clip-path="url(#z35516c4)" d="M 210 361 L 264 364 L 362 392 L 382 391"/>
<path style="--d:5s;" pathLength="3333" clip-path="url(#z35516c5)" d="M 148 259 L 177 227 L 209 47"/>
<path style="--d:6s;" pathLength="3333" clip-path="url(#z35516c6)" d="M 203 236 L 227 251 L 333 278 L 365 251 L 344 188 L 319 171"/>
<path style="--d:7s;" pathLength="3333" clip-path="url(#z35516c7)" d="M 220 110 L 234 127 L 305 143 L 376 140"/>
<path style="--d:8s;" pathLength="3333" clip-path="url(#z35516c8)" d="M 602 839 L 684 785 L 711 742"/>
<path style="--d:9s;" pathLength="3333" clip-path="url(#z35516c9)" d="M 478 650 L 491 621 L 490 602 L 467 540 L 461 499"/>
<path style="--d:10s;" pathLength="3333" clip-path="url(#z35516c10)" d="M 521 618 L 533 610 L 560 613 L 792 672 L 843 674 L 867 662 L 882 638 L 805 550"/>
<path style="--d:11s;" pathLength="3333" clip-path="url(#z35516c11)" d="M 524 469 L 545 446 L 555 408 L 553 108 L 538 94"/>
<path style="--d:12s;" pathLength="3333" clip-path="url(#z35516c12)" d="M 570 457 L 597 452 L 657 474 L 736 490 L 753 485 L 775 454 L 765 143 L 741 124"/>
<path style="--d:13s;" pathLength="3333" clip-path="url(#z35516c13)" d="M 587 320 L 597 333 L 643 344 L 675 347 L 696 342"/>
<path style="--d:14s;" pathLength="3333" clip-path="url(#z35516c14)" d="M 580 199 L 593 210 L 641 222 L 699 218"/>
<path style="--d:15s;" pathLength="3333" clip-path="url(#z35516c15)" d="M 370 57 L 421 47 L 640 77 L 891 101 L 934 97 L 983 81"/>
</svg>