<svg id="z32181" class="acjk" viewBox="0 0 1024 1024" xmlns="http://www.w3.org/2000/svg">
<style>
<![CDATA[
@keyframes zk {
	to {
		stroke-dashoffset:0;
	}
}
svg.acjk path[clip-path] {
	--t:0.8s;
	animation:zk var(--t) linear forwards var(--d);
	stroke-dasharray:3337;
	stroke-dashoffset:3339;
	stroke-width:128;
	stroke-linecap:round;
	stroke-linejoin:round;
	fill:none;
	stroke:#000;
}
svg.acjk path[id] {fill:#ccc;}
]]>
</style>
  <path id="z32181d1" d="M 300 549 Q 258 548 223 543 Q 192 542 208 561 Q 266 661 322 737 Q 335 755 333 762 Q 330 777 290 806 Q 274 819 255 815 Q 245 812 251 797 Q 258 781 254 754 Q 244 709 194 612 Q 178 579 143 547 Q 125 531 128 519 Q 132 501 148 484 Q 158 474 171 481 Q 196 497 283 520 C 312 528 330 550 300 549 Z"/>
  <path id="z32181d2" d="M 343 403 Q 300 393 250 374 Q 222 361 239 386 Q 276 447 366 569 Q 393 609 417 633 Q 429 643 422 654 Q 410 673 375 690 Q 359 697 348 695 Q 338 691 342 675 Q 345 632 300 549 L 283 520 Q 190 370 161 353 Q 148 343 152 328 Q 155 315 182 297 Q 194 285 209 299 Q 278 356 353 383 C 381 394 372 410 343 403 Z"/>
  <path id="z32181d3" d="M 353 383 Q 360 359 385 350 Q 398 346 408 361 Q 412 373 409 394 Q 397 430 340 456 Q 333 460 328 450 Q 325 441 343 403 L 353 383 Z"/>
  <path id="z32181d4" d="M 96 186 Q 114 153 132 115 Q 139 99 154 94 Q 164 91 173 101 Q 183 113 184 143 Q 185 176 108 230 Q 95 239 89 239 Q 83 238 80 225 Q 79 213 96 186 Z"/>
  <path id="z32181d5" d="M 221 216 Q 258 156 267 154 Q 274 153 281 161 Q 288 171 288 195 Q 288 217 228 253 Q 218 259 212 258 Q 208 257 206 247 Q 206 237 221 216 Z"/>
  <path id="z32181d6" d="M 337 269 Q 344 259 350 245 Q 360 232 374 231 Q 383 230 389 241 Q 395 253 391 280 Q 390 290 373 299 Q 331 317 320 315 Q 316 312 315 301 Q 316 291 337 269 Z"/>
  <path id="z32181d7" d="M 659 797 Q 628 752 499 665 Q 495 655 502 652 Q 619 694 689 741 Q 732 768 773 782 Q 791 786 793 795 Q 796 807 781 817 Q 756 830 707 840 Q 689 846 676 842 Q 669 838 670 825 Q 671 810 659 797 Z"/>
  <path id="z32181d8" d="M 473 566 Q 483 547 492 523 Q 499 507 514 502 Q 524 499 533 509 Q 542 521 544 551 Q 544 575 484 611 Q 471 618 465 619 Q 459 618 456 605 Q 456 593 473 566 Z"/>
  <path id="z32181d9" d="M 588 630 Q 609 584 628 571 Q 638 565 648 574 Q 655 581 657 595 Q 654 626 605 656 Q 595 663 586 662 Q 582 662 581 652 Q 580 643 588 630 Z"/>
  <path id="z32181d10" d="M 759 663 Q 744 633 678 547 Q 668 529 686 533 Q 695 539 806 618 Q 825 636 849 647 Q 871 659 859 677 Q 844 693 817 708 Q 792 721 778 718 Q 765 717 769 702 Q 773 683 759 663 Z"/>
  <path id="z32181d11" d="M 659 395 Q 728 410 847 415 Q 893 415 901 425 Q 905 435 890 447 Q 839 477 784 464 Q 733 452 659 434 L 611 424 Q 541 412 462 396 Q 443 393 458 379 Q 471 367 488 364 Q 507 360 521 365 Q 543 372 571 379 L 659 395 Z"/>
  <path id="z32181d12" d="M 659 434 Q 660 453 663 465 Q 664 478 658 483 Q 636 502 617 512 Q 605 516 596 508 Q 590 505 598 495 Q 602 488 611 424 L 612 357 Q 600 84 592 58 Q 583 25 617 -28 Q 627 -46 636 -50 Q 646 -51 652 -39 Q 664 -8 660 22 Q 657 167 656 362 L 659 434 Z"/>
  <path id="z32181d13" d="M 571 379 Q 541 255 313 72 Q 298 59 313 59 Q 323 58 357 76 Q 412 101 460 144 Q 560 246 603 338 Q 607 348 612 357 C 630 394 587 435 571 379 Z"/>
  <path id="z32181d14" d="M 656 362 Q 723 259 810 148 Q 826 130 855 131 Q 952 135 982 142 Q 991 145 992 149 Q 993 153 981 161 Q 834 224 741 315 Q 705 348 668 387 Q 664 393 659 395 L 657 395 C 633 412 640 387 656 362 Z"/>
<defs>
  <clipPath id="z32181c1"><use href="#z32181d1"/></clipPath>
  <clipPath id="z32181c2"><use href="#z32181d2"/></clipPath>
  <clipPath id="z32181c3"><use href="#z32181d3"/></clipPath>
  <clipPath id="z32181c4"><use href="#z32181d4"/></clipPath>
  <clipPath id="z32181c5"><use href="#z32181d5"/></clipPath>
  <clipPath id="z32181c6"><use href="#z32181d6"/></clipPath>
  <clipPath id="z32181c7"><use href="#z32181d7"/></clipPath>
  <clipPath id="z32181c8"><use href="#z32181d8"/></clipPath>
  <clipPath id="z32181c9"><use href="#z32181d9"/></clipPath>
  <clipPath id="z32181c10"><use href="#z32181d10"/></clipPath>
  <clipPath id="z32181c11"><use href="#z32181d11"/></clipPath>
  <clipPath id="z32181c12"><use href="#z32181d12"/></clipPath>
  <clipPath id="z32181c13"><use href="#z32181d13"/></clipPath>
  <clipPath id="z32181c14"><use href="#z32181d14"/></clipPath>
</defs>
<path style="--d:1s;" pathLength="3333" clip-path="url(#z32181c1)" d="M 259 805 L 283 778 L 290 752 L 192 574 L 173 525 L 196 521 L 269 530 L 292 547"/>
<path style="--d:2s;" pathLength="3333" clip-path="url(#z32181c2)" d="M 354 683 L 378 646 L 320 539 L 213 379 L 207 344 L 226 344 L 337 390 L 344 385"/>
<path style="--d:3s;" pathLength="3333" clip-path="url(#z32181c3)" d="M 337 447 L 378 396 L 390 369"/>
<path style="--d:4s;" pathLength="3333" clip-path="url(#z32181c4)" d="M 91 231 L 150 150 L 158 111"/>
<path style="--d:5s;" pathLength="3333" clip-path="url(#z32181c5)" d="M 215 249 L 264 194 L 271 164"/>
<path style="--d:6s;" pathLength="3333" clip-path="url(#z32181c6)" d="M 323 306 L 365 273 L 375 246"/>
<path style="--d:7s;" pathLength="3333" clip-path="url(#z32181c7)" d="M 780 799 L 706 797 L 625 729 L 541 678 L 532 678 L 526 669 L 511 668 L 509 660"/>
<path style="--d:8s;" pathLength="3333" clip-path="url(#z32181c8)" d="M 467 611 L 514 549 L 518 519"/>
<path style="--d:9s;" pathLength="3333" clip-path="url(#z32181c9)" d="M 590 654 L 632 601 L 636 584"/>
<path style="--d:10s;" pathLength="3333" clip-path="url(#z32181c10)" d="M 778 708 L 806 669 L 779 634 L 681 540"/>
<path style="--d:11s;" pathLength="3333" clip-path="url(#z32181c11)" d="M 460 388 L 511 384 L 809 441 L 893 430"/>
<path style="--d:12s;" pathLength="3333" clip-path="url(#z32181c12)" d="M 605 503 L 634 466 L 625 34 L 638 -38"/>
<path style="--d:13s;" pathLength="3333" clip-path="url(#z32181c13)" d="M 606 379 L 587 358 L 571 319 L 526 249 L 475 189 L 406 125 L 317 66"/>
<path style="--d:14s;" pathLength="3333" clip-path="url(#z32181c14)" d="M 659 389 L 689 340 L 761 259 L 845 178 L 985 149"/>
</svg>