<svg id="z36738" class="acjk" viewBox="0 0 1024 1024" xmlns="http://www.w3.org/2000/svg">
<style>
<![CDATA[
@keyframes zk {
	to {
		stroke-dashoffset:0;
	}
}
svg.acjk path[clip-path] {
	--t:0.8s;
	animation:zk var(--t) linear forwards var(--d);
	stroke-dasharray:3337;
	stroke-dashoffset:3339;
	stroke-width:128;
	stroke-linecap:round;
	stroke-linejoin:round;
	fill:none;
	stroke:#000;
}
svg.acjk path[id] {fill:#ccc;}
]]>
</style>
  <path id="z36738d1" d="M 301 615 Q 353 628 413 640 Q 453 650 459 657 Q 468 664 463 673 Q 456 683 428 690 Q 398 696 370 684 Q 346 675 324 667 L 269 652 Q 214 639 152 632 Q 118 625 143 610 Q 182 589 239 602 Q 245 605 255 605 L 301 615 Z"/>
  <path id="z36738d2" d="M 362 388 Q 392 395 419 396 Q 447 399 439 412 Q 430 425 414 432 Q 396 438 364 425 L 315 413 Q 279 407 236 398 Q 221 397 219 399 Q 218 400 220 413 Q 251 504 301 615 L 324 667 Q 349 725 363 736 Q 375 749 359 768 Q 334 793 313 806 Q 300 813 290 811 Q 283 807 288 786 Q 297 753 269 652 L 255 605 Q 201 448 153 398 Q 138 382 143 367 Q 150 348 160 337 Q 170 328 180 333 Q 214 352 300 375 Q 307 378 315 378 L 362 388 Z"/>
  <path id="z36738d3" d="M 307 228 Q 289 60 294 46 Q 300 22 313 1 Q 323 -18 332 -23 Q 344 -24 349 -11 Q 362 22 359 53 Q 358 159 358 252 L 359 285 Q 359 348 362 388 L 364 425 Q 365 465 371 487 Q 374 500 366 506 Q 344 527 324 536 Q 311 540 302 533 Q 296 529 303 519 Q 313 501 315 413 L 315 378 Q 312 279 310 269 L 307 228 Z"/>
  <path id="z36738d4" d="M 358 252 Q 368 258 379 262 Q 404 274 421 288 Q 434 295 434 304 Q 427 310 359 285 L 310 269 Q 235 245 154 219 Q 135 212 105 213 Q 92 212 91 201 Q 90 188 98 181 Q 120 166 152 149 Q 162 146 173 155 Q 221 192 307 228 L 358 252 Z"/>
  <path id="z36738d5" d="M 572 616 Q 629 712 642 722 Q 649 732 645 744 Q 641 756 615 775 Q 590 791 573 790 Q 557 789 564 768 Q 583 731 513 608 Q 479 551 433 488 Q 424 478 423 473 Q 420 463 432 465 Q 453 471 507 532 L 515 542 Q 545 579 557 595 L 572 616 Z"/>
  <path id="z36738d6" d="M 463 246 Q 553 313 640 414 L 667 448 Q 707 502 751 565 Q 767 592 799 620 Q 812 630 807 639 Q 806 648 747 668 Q 729 677 712 663 Q 675 639 572 616 C 543 609 528 601 557 595 Q 578 582 654 604 Q 694 614 699 608 Q 703 602 692 584 Q 667 532 630 478 L 608 447 Q 523 336 377 214 Q 364 202 378 202 Q 381 202 450 237 L 463 246 Z"/>
  <path id="z36738d7" d="M 640 414 Q 721 321 786 281 Q 799 275 818 275 Q 899 278 965 291 Q 999 298 995 307 Q 994 314 830 357 Q 758 378 667 448 L 630 478 Q 614 494 595 511 Q 558 545 524 544 Q 518 544 515 542 C 496 540 496 540 507 532 Q 510 528 519 523 Q 546 510 608 447 L 640 414 Z"/>
  <path id="z36738d8" d="M 505 236 Q 475 246 463 246 C 448 247 448 247 450 237 Q 449 231 455 221 Q 482 160 497 62 Q 500 32 516 12 Q 534 -10 539 5 Q 545 20 543 45 L 539 80 Q 526 171 523 202 C 520 231 520 231 505 236 Z"/>
  <path id="z36738d9" d="M 754 100 Q 781 184 815 209 Q 833 227 818 245 Q 802 258 749 285 Q 730 292 709 284 Q 627 254 505 236 C 475 232 494 196 523 202 Q 532 203 542 207 Q 618 220 693 234 Q 712 238 719 230 Q 729 221 726 202 Q 717 151 705 109 C 697 80 744 72 754 100 Z"/>
  <path id="z36738d10" d="M 543 45 Q 553 44 566 45 Q 630 58 766 64 Q 776 65 779 74 Q 779 81 754 100 L 705 109 Q 701 109 698 108 Q 610 89 539 80 C 509 76 513 47 543 45 Z"/>
<defs>
  <clipPath id="z36738c1"><use href="#z36738d1"/></clipPath>
  <clipPath id="z36738c2"><use href="#z36738d2"/></clipPath>
  <clipPath id="z36738c3"><use href="#z36738d3"/></clipPath>
  <clipPath id="z36738c4"><use href="#z36738d4"/></clipPath>
  <clipPath id="z36738c5"><use href="#z36738d5"/></clipPath>
  <clipPath id="z36738c6"><use href="#z36738d6"/></clipPath>
  <clipPath id="z36738c7"><use href="#z36738d7"/></clipPath>
  <clipPath id="z36738c8"><use href="#z36738d8"/></clipPath>
  <clipPath id="z36738c9"><use href="#z36738d9"/></clipPath>
  <clipPath id="z36738c10"><use href="#z36738d10"/></clipPath>
</defs>
<path style="--d:1s;" pathLength="3333" clip-path="url(#z36738c1)" d="M 145 622 L 200 617 L 274 630 L 406 666 L 453 667"/>
<path style="--d:2s;" pathLength="3333" clip-path="url(#z36738c2)" d="M 295 803 L 326 749 L 274 599 L 191 402 L 187 378 L 231 377 L 390 413 L 426 408"/>
<path style="--d:3s;" pathLength="3333" clip-path="url(#z36738c3)" d="M 311 527 L 322 519 L 340 486 L 326 104 L 335 -11"/>
<path style="--d:4s;" pathLength="3333" clip-path="url(#z36738c4)" d="M 104 200 L 157 185 L 430 300"/>
<path style="--d:5s;" pathLength="3333" clip-path="url(#z36738c5)" d="M 574 777 L 595 757 L 605 736 L 589 699 L 559 639 L 507 560 L 431 473"/>
<path style="--d:6s;" pathLength="3333" clip-path="url(#z36738c6)" d="M 563 599 L 698 632 L 735 629 L 740 620 L 729 587 L 707 550 L 608 410 L 491 290 L 434 243 L 378 208"/>
<path style="--d:7s;" pathLength="3333" clip-path="url(#z36738c7)" d="M 517 532 L 541 528 L 564 514 L 690 398 L 762 343 L 805 320 L 991 305"/>
<path style="--d:8s;" pathLength="3333" clip-path="url(#z36738c8)" d="M 461 235 L 487 213 L 496 195 L 528 11"/>
<path style="--d:9s;" pathLength="3333" clip-path="url(#z36738c9)" d="M 514 234 L 525 225 L 562 227 L 711 260 L 736 257 L 769 225 L 737 129 L 712 115"/>
<path style="--d:10s;" pathLength="3333" clip-path="url(#z36738c10)" d="M 546 75 L 558 64 L 705 85 L 744 83 L 771 74"/>
</svg>