<svg id="z36031" class="acjk" viewBox="0 0 1024 1024" xmlns="http://www.w3.org/2000/svg">
<style>
<![CDATA[
@keyframes zk {
	to {
		stroke-dashoffset:0;
	}
}
svg.acjk path[clip-path] {
	--t:0.8s;
	animation:zk var(--t) linear forwards var(--d);
	stroke-dasharray:3337;
	stroke-dashoffset:3339;
	stroke-width:128;
	stroke-linecap:round;
	stroke-linejoin:round;
	fill:none;
	stroke:#000;
}
svg.acjk path[id] {fill:#ccc;}
]]>
</style>
  <path id="z36031d1" d="M 248 707 Q 359 767 376 779 Q 413 804 447 818 Q 462 822 464 830 Q 465 840 453 848 Q 431 858 388 866 Q 372 870 361 866 Q 355 862 356 851 Q 359 823 233 720 C 210 701 222 693 248 707 Z"/>
  <path id="z36031d2" d="M 386 640 Q 385 640 384 639 Q 350 617 313 593 Q 289 574 278 577 Q 268 583 264 607 Q 251 674 251 692 Q 251 701 248 707 L 233 720 Q 205 736 188 734 Q 175 733 172 728 Q 165 718 178 709 Q 241 637 219 548 Q 218 545 216 541 Q 207 519 219 500 Q 234 472 252 463 Q 262 459 272 478 Q 317 547 395 625 C 416 646 411 656 386 640 Z"/>
  <path id="z36031d3" d="M 395 625 Q 413 595 429 592 Q 439 591 445 601 Q 452 613 450 639 Q 447 666 379 698 Q 366 704 360 703 Q 356 700 354 689 Q 355 671 386 640 L 395 625 Z"/>
  <path id="z36031d4" d="M 623 773 Q 707 792 773 797 Q 792 798 796 792 Q 802 782 795 757 Q 779 688 759 660 Q 734 627 704 637 Q 691 638 679 641 Q 654 650 672 625 Q 694 589 704 564 Q 714 545 732 554 Q 786 575 834 686 Q 855 755 881 777 Q 894 789 890 800 Q 883 813 833 842 Q 814 854 792 842 Q 768 830 681 817 Q 593 802 520 802 Q 502 802 499 793 Q 496 786 519 772 Q 544 754 564 760 Q 574 763 587 765 L 623 773 Z"/>
  <path id="z36031d5" d="M 587 765 Q 596 699 451 557 Q 445 553 445 547 Q 444 543 449 543 Q 509 543 618 686 Q 619 690 644 719 Q 651 729 645 741 Q 635 763 623 773 C 602 794 585 795 587 765 Z"/>
  <path id="z36031d6" d="M 384 496 Q 368 506 349 512 Q 342 513 335 506 Q 332 500 339 491 Q 375 419 350 262 Q 338 211 341 194 Q 351 163 361 151 Q 371 139 381 152 Q 385 158 389 165 L 398 199 Q 404 227 404 274 L 404 303 Q 404 340 404 379 L 405 404 Q 406 437 409 469 C 410 481 410 481 384 496 Z"/>
  <path id="z36031d7" d="M 636 186 Q 636 174 645 160 Q 660 129 670 130 Q 685 131 702 166 Q 718 194 716 216 Q 706 295 709 419 Q 709 455 729 485 Q 739 501 731 511 Q 703 535 655 555 Q 639 561 616 552 Q 529 513 384 496 C 354 492 380 461 409 469 Q 515 500 594 513 Q 622 520 632 505 Q 650 481 646 279 Q 643 219 636 198 L 636 186 Z"/>
  <path id="z36031d8" d="M 404 379 Q 407 379 583 405 Q 605 409 597 421 Q 587 434 563 439 Q 532 443 405 404 C 376 395 374 375 404 379 Z"/>
  <path id="z36031d9" d="M 404 274 Q 410 280 587 305 Q 609 309 601 321 Q 591 334 567 339 Q 540 342 404 303 C 375 295 376 263 404 274 Z"/>
  <path id="z36031d10" d="M 389 165 Q 396 164 407 165 Q 477 177 626 182 Q 632 183 636 186 C 643 189 643 189 636 198 Q 630 207 610 221 Q 594 231 563 225 Q 472 207 398 199 C 368 196 359 167 389 165 Z"/>
  <path id="z36031d11" d="M 414 127 Q 381 57 215 -40 Q 190 -52 220 -53 Q 296 -57 432 40 Q 466 67 483 77 Q 496 87 496 98 Q 495 113 469 126 Q 441 142 427 141 Q 420 141 414 127 Z"/>
  <path id="z36031d12" d="M 577 85 Q 626 36 684 -37 Q 702 -61 718 -66 Q 728 -67 737 -57 Q 752 -44 740 7 Q 731 67 584 119 Q 581 120 580 120 Q 570 127 567 112 Q 566 97 577 85 Z"/>
<defs>
  <clipPath id="z36031c1"><use href="#z36031d1"/></clipPath>
  <clipPath id="z36031c2"><use href="#z36031d2"/></clipPath>
  <clipPath id="z36031c3"><use href="#z36031d3"/></clipPath>
  <clipPath id="z36031c4"><use href="#z36031d4"/></clipPath>
  <clipPath id="z36031c5"><use href="#z36031d5"/></clipPath>
  <clipPath id="z36031c6"><use href="#z36031d6"/></clipPath>
  <clipPath id="z36031c7"><use href="#z36031d7"/></clipPath>
  <clipPath id="z36031c8"><use href="#z36031d8"/></clipPath>
  <clipPath id="z36031c9"><use href="#z36031d9"/></clipPath>
  <clipPath id="z36031c10"><use href="#z36031d10"/></clipPath>
  <clipPath id="z36031c11"><use href="#z36031d11"/></clipPath>
  <clipPath id="z36031c12"><use href="#z36031d12"/></clipPath>
</defs>
<path style="--d:1s;" pathLength="3333" clip-path="url(#z36031c1)" d="M 453 833 L 388 829 L 306 758 L 254 721 L 245 726"/>
<path style="--d:2s;" pathLength="3333" clip-path="url(#z36031c2)" d="M 181 721 L 202 712 L 224 692 L 240 634 L 249 569 L 261 537 L 302 559 L 382 624 L 387 636"/>
<path style="--d:3s;" pathLength="3333" clip-path="url(#z36031c3)" d="M 363 693 L 417 643 L 431 608"/>
<path style="--d:4s;" pathLength="3333" clip-path="url(#z36031c4)" d="M 507 791 L 555 781 L 787 818 L 815 817 L 826 809 L 839 790 L 834 773 L 797 669 L 770 627 L 731 598 L 672 635"/>
<path style="--d:5s;" pathLength="3333" clip-path="url(#z36031c5)" d="M 594 761 L 613 744 L 615 729 L 593 690 L 516 597 L 477 563 L 452 550"/>
<path style="--d:6s;" pathLength="3333" clip-path="url(#z36031c6)" d="M 346 501 L 371 476 L 381 452 L 383 356 L 368 193 L 371 156"/>
<path style="--d:7s;" pathLength="3333" clip-path="url(#z36031c7)" d="M 394 497 L 415 486 L 629 534 L 652 526 L 675 502 L 682 492 L 677 438 L 679 260 L 670 141"/>
<path style="--d:8s;" pathLength="3333" clip-path="url(#z36031c8)" d="M 407 386 L 419 395 L 525 417 L 559 420 L 587 415"/>
<path style="--d:9s;" pathLength="3333" clip-path="url(#z36031c9)" d="M 407 282 L 419 294 L 483 308 L 559 320 L 591 315"/>
<path style="--d:10s;" pathLength="3333" clip-path="url(#z36031c10)" d="M 393 170 L 421 185 L 559 202 L 588 204 L 628 192"/>
<path style="--d:11s;" pathLength="3333" clip-path="url(#z36031c11)" d="M 479 97 L 443 97 L 405 59 L 344 13 L 278 -25 L 225 -44"/>
<path style="--d:12s;" pathLength="3333" clip-path="url(#z36031c12)" d="M 579 107 L 683 27 L 702 3 L 720 -49"/>
</svg>