<svg id="z33646" class="acjk" viewBox="0 0 1024 1024" xmlns="http://www.w3.org/2000/svg">
<style>
<![CDATA[
@keyframes zk {
	to {
		stroke-dashoffset:0;
	}
}
svg.acjk path[clip-path] {
	--t:0.8s;
	animation:zk var(--t) linear forwards var(--d);
	stroke-dasharray:3337;
	stroke-dashoffset:3339;
	stroke-width:128;
	stroke-linecap:round;
	stroke-linejoin:round;
	fill:none;
	stroke:#000;
}
svg.acjk path[id] {fill:#ccc;}
]]>
</style>
  <path id="z33646d1" d="M 614 661 Q 731 668 812 661 Q 828 660 834 670 Q 840 682 826 697 Q 771 742 671 719 Q 653 718 635 713 L 579 704 Q 504 695 422 684 L 371 678 Q 293 672 209 663 Q 178 660 199 643 Q 241 616 319 627 Q 349 634 380 639 L 425 646 Q 449 656 569 659 L 614 661 Z"/>
  <path id="z33646d2" d="M 422 684 Q 419 721 418 749 Q 419 770 397 776 Q 358 797 331 788 Q 312 779 329 758 Q 359 724 370 683 Q 370 682 371 678 L 380 639 Q 389 597 407 576 Q 420 566 426 578 Q 432 596 425 646 L 422 684 Z"/>
  <path id="z33646d3" d="M 635 713 Q 641 737 662 773 Q 677 788 666 798 Q 653 814 618 831 Q 602 841 584 831 Q 574 825 582 814 Q 594 790 579 704 L 569 659 Q 556 620 558 595 Q 559 582 575 593 Q 582 599 614 661 L 635 713 Z"/>
  <path id="z33646d4" d="M 341 362 Q 338 363 335 362 Q 289 363 251 364 Q 223 365 239 382 Q 299 461 355 518 Q 370 534 368 541 Q 367 554 333 588 Q 318 601 300 600 Q 290 599 294 583 Q 304 543 225 426 Q 209 401 176 376 Q 157 363 158 352 Q 161 333 173 315 Q 182 306 198 312 Q 231 328 323 339 C 353 343 371 362 341 362 Z"/>
  <path id="z33646d5" d="M 323 339 Q 233 233 206 219 Q 191 212 194 197 Q 194 184 219 163 Q 229 150 244 162 Q 301 198 413 233 Q 432 237 435 245 Q 438 255 418 252 Q 361 245 291 229 Q 266 222 283 241 Q 320 284 406 370 Q 437 404 462 424 Q 475 433 470 443 Q 461 462 430 484 Q 414 494 405 492 Q 395 489 396 474 Q 396 438 341 362 L 323 339 Z"/>
  <path id="z33646d6" d="M 152 61 Q 139 60 137 48 Q 136 35 145 26 Q 170 11 205 -7 Q 215 -10 228 0 Q 250 21 408 106 Q 430 116 445 131 Q 458 138 458 149 Q 448 156 365 124 Q 184 61 152 61 Z"/>
  <path id="z33646d7" d="M 753 375 Q 783 376 892 377 Q 911 377 915 386 Q 921 396 904 410 Q 847 452 789 433 Q 771 430 753 424 L 700 415 Q 681 414 664 409 Q 579 396 476 382 Q 455 379 471 363 Q 484 350 502 345 Q 523 341 538 344 Q 635 371 701 371 L 753 375 Z"/>
  <path id="z33646d8" d="M 656 61 Q 617 65 579 72 Q 566 73 568 66 Q 569 59 580 52 Q 665 -8 697 -46 Q 713 -62 728 -47 Q 765 -8 759 63 Q 755 108 753 375 L 753 424 Q 753 482 765 513 Q 774 532 756 546 Q 729 568 698 579 Q 679 586 670 577 Q 664 570 675 555 Q 699 515 698 470 Q 699 442 700 415 L 701 371 Q 705 82 682 64 Q 672 55 656 61 Z"/>
  <path id="z33646d9" d="M 517 260 Q 544 235 572 203 Q 584 190 598 189 Q 608 189 613 201 Q 619 214 612 242 Q 605 275 516 304 Q 503 308 496 307 Q 492 303 492 292 Q 493 282 517 260 Z"/>
<defs>
  <clipPath id="z33646c1"><use href="#z33646d1"/></clipPath>
  <clipPath id="z33646c2"><use href="#z33646d2"/></clipPath>
  <clipPath id="z33646c3"><use href="#z33646d3"/></clipPath>
  <clipPath id="z33646c4"><use href="#z33646d4"/></clipPath>
  <clipPath id="z33646c5"><use href="#z33646d5"/></clipPath>
  <clipPath id="z33646c6"><use href="#z33646d6"/></clipPath>
  <clipPath id="z33646c7"><use href="#z33646d7"/></clipPath>
  <clipPath id="z33646c8"><use href="#z33646d8"/></clipPath>
  <clipPath id="z33646c9"><use href="#z33646d9"/></clipPath>
</defs>
<path style="--d:1s;" pathLength="3333" clip-path="url(#z33646c1)" d="M 202 654 L 246 646 L 290 647 L 464 672 L 720 696 L 774 693 L 820 677"/>
<path style="--d:2s;" pathLength="3333" clip-path="url(#z33646c2)" d="M 337 773 L 357 765 L 384 742 L 416 582"/>
<path style="--d:3s;" pathLength="3333" clip-path="url(#z33646c3)" d="M 589 822 L 605 814 L 625 784 L 592 658 L 567 596"/>
<path style="--d:4s;" pathLength="3333" clip-path="url(#z33646c4)" d="M 303 589 L 322 563 L 325 538 L 210 374 L 203 352 L 251 345 L 320 350 L 327 358"/>
<path style="--d:5s;" pathLength="3333" clip-path="url(#z33646c5)" d="M 409 479 L 427 441 L 359 350 L 272 256 L 263 243 L 258 212 L 286 208 L 427 246"/>
<path style="--d:6s;" pathLength="3333" clip-path="url(#z33646c6)" d="M 152 46 L 160 40 L 209 34 L 454 145"/>
<path style="--d:7s;" pathLength="3333" clip-path="url(#z33646c7)" d="M 474 372 L 530 366 L 616 383 L 825 408 L 903 392"/>
<path style="--d:8s;" pathLength="3333" clip-path="url(#z33646c8)" d="M 680 570 L 706 550 L 729 519 L 729 225 L 721 53 L 706 18 L 666 27 L 575 65"/>
<path style="--d:9s;" pathLength="3333" clip-path="url(#z33646c9)" d="M 500 298 L 573 247 L 597 205"/>
</svg>