<svg id="z31531" class="acjk" viewBox="0 0 1024 1024" xmlns="http://www.w3.org/2000/svg">
<style>
<![CDATA[
@keyframes zk {
	to {
		stroke-dashoffset:0;
	}
}
svg.acjk path[clip-path] {
	--t:0.8s;
	animation:zk var(--t) linear forwards var(--d);
	stroke-dasharray:3337;
	stroke-dashoffset:3339;
	stroke-width:128;
	stroke-linecap:round;
	stroke-linejoin:round;
	fill:none;
	stroke:#000;
}
svg.acjk path[id] {fill:#ccc;}
]]>
</style>
  <path id="z31531d1" d="M 330 712 Q 343 737 359 759 Q 368 771 354 784 Q 315 811 290 809 Q 280 806 283 793 Q 296 703 203 592 Q 181 567 169 551 Q 162 538 175 542 Q 191 545 213 563 Q 280 618 315 685 Q 315 686 316 687 L 330 712 Z"/>
  <path id="z31531d2" d="M 316 687 Q 362 672 405 684 Q 444 693 483 701 Q 502 705 504 709 Q 513 716 508 725 Q 501 735 472 742 Q 442 746 414 733 Q 393 726 372 721 Q 353 717 330 712 C 301 706 287 696 316 687 Z"/>
  <path id="z31531d3" d="M 358 595 Q 377 579 396 559 Q 408 549 420 549 Q 429 550 433 561 Q 437 573 429 597 Q 425 612 402 621 Q 348 639 336 635 Q 332 631 333 621 Q 336 611 358 595 Z"/>
  <path id="z31531d4" d="M 616 729 Q 634 763 652 792 Q 661 804 646 816 Q 607 844 582 839 Q 572 836 575 823 Q 593 748 500 622 Q 488 607 480 595 Q 473 580 487 586 Q 502 589 521 606 Q 570 649 600 699 L 616 729 Z"/>
  <path id="z31531d5" d="M 600 699 Q 637 690 695 700 Q 741 709 790 719 Q 815 725 819 729 Q 828 736 823 745 Q 816 755 788 763 Q 758 767 729 756 Q 701 746 670 739 Q 645 735 616 729 C 587 723 571 705 600 699 Z"/>
  <path id="z31531d6" d="M 655 608 Q 683 586 712 561 Q 725 549 739 551 Q 749 552 753 564 Q 757 577 747 605 Q 735 635 648 651 Q 633 654 628 651 Q 624 647 625 635 Q 629 625 655 608 Z"/>
  <path id="z31531d7" d="M 537 460 Q 577 469 698 481 Q 708 480 716 491 Q 717 501 696 512 Q 666 534 587 511 Q 563 507 541 501 L 489 491 Q 485 491 339 472 C 309 468 317 427 347 431 Q 350 431 490 453 L 537 460 Z"/>
  <path id="z31531d8" d="M 533 325 Q 713 355 755 347 Q 768 346 774 334 Q 778 319 738 203 Q 732 187 714 190 Q 683 199 644 209 Q 617 216 637 192 Q 695 140 707 114 Q 714 101 727 102 Q 740 102 754 114 Q 785 145 795 176 Q 805 210 816 249 Q 834 292 852 310 Q 870 329 858 341 Q 836 366 800 389 Q 787 399 722 384 Q 538 357 534 356 L 489 348 Q 407 338 355 324 Q 330 317 315 318 Q 308 319 310 332 Q 331 410 347 431 C 359 455 359 455 339 472 Q 329 484 312 494 Q 302 503 291 496 Q 284 492 290 473 Q 297 448 286 413 Q 261 341 238 316 Q 226 301 235 284 Q 242 259 255 251 Q 265 245 289 260 Q 338 297 465 316 L 533 325 Z"/>
  <path id="z31531d9" d="M 484 248 Q 477 98 464 63 Q 455 24 488 -27 Q 500 -46 508 -50 Q 520 -51 525 -38 Q 538 -7 534 25 Q 531 188 533 325 L 534 356 Q 535 419 537 460 L 541 501 Q 541 532 539 534 Q 515 555 496 564 Q 483 568 474 561 Q 468 557 476 547 Q 485 529 489 491 L 490 453 Q 490 407 489 348 L 484 248 Z"/>
  <path id="z31531d10" d="M 465 316 Q 384 180 169 39 Q 154 27 165 25 Q 172 19 186 24 Q 319 61 483 247 Q 483 248 484 248 C 551 322 482 343 465 316 Z"/>
<defs>
  <clipPath id="z31531c1"><use href="#z31531d1"/></clipPath>
  <clipPath id="z31531c2"><use href="#z31531d2"/></clipPath>
  <clipPath id="z31531c3"><use href="#z31531d3"/></clipPath>
  <clipPath id="z31531c4"><use href="#z31531d4"/></clipPath>
  <clipPath id="z31531c5"><use href="#z31531d5"/></clipPath>
  <clipPath id="z31531c6"><use href="#z31531d6"/></clipPath>
  <clipPath id="z31531c7"><use href="#z31531d7"/></clipPath>
  <clipPath id="z31531c8"><use href="#z31531d8"/></clipPath>
  <clipPath id="z31531c9"><use href="#z31531d9"/></clipPath>
  <clipPath id="z31531c10"><use href="#z31531d10"/></clipPath>
</defs>
<path style="--d:1s;" pathLength="3333" clip-path="url(#z31531c1)" d="M 293 798 L 320 764 L 292 689 L 244 614 L 178 551"/>
<path style="--d:2s;" pathLength="3333" clip-path="url(#z31531c2)" d="M 325 690 L 341 698 L 393 703 L 463 721 L 498 719"/>
<path style="--d:3s;" pathLength="3333" clip-path="url(#z31531c3)" d="M 340 627 L 397 595 L 418 565"/>
<path style="--d:4s;" pathLength="3333" clip-path="url(#z31531c4)" d="M 585 828 L 613 795 L 597 748 L 563 680 L 528 633 L 489 595"/>
<path style="--d:5s;" pathLength="3333" clip-path="url(#z31531c5)" d="M 607 702 L 628 714 L 682 719 L 755 738 L 813 739"/>
<path style="--d:6s;" pathLength="3333" clip-path="url(#z31531c6)" d="M 633 645 L 704 606 L 737 567"/>
<path style="--d:7s;" pathLength="3333" clip-path="url(#z31531c7)" d="M 347 438 L 363 454 L 382 459 L 471 468 L 603 494 L 675 500 L 706 493"/>
<path style="--d:8s;" pathLength="3333" clip-path="url(#z31531c8)" d="M 299 487 L 317 460 L 318 437 L 280 326 L 278 301 L 285 299 L 317 298 L 464 332 L 709 368 L 775 368 L 802 350 L 815 328 L 763 181 L 751 164 L 732 151 L 637 202"/>
<path style="--d:9s;" pathLength="3333" clip-path="url(#z31531c9)" d="M 482 555 L 508 529 L 515 497 L 507 181 L 498 56 L 511 -38"/>
<path style="--d:10s;" pathLength="3333" clip-path="url(#z31531c10)" d="M 483 312 L 473 304 L 457 256 L 344 140 L 240 65 L 172 31"/>
</svg>