<svg id="z35064" class="acjk" viewBox="0 0 1024 1024" xmlns="http://www.w3.org/2000/svg">
<style>
<![CDATA[
@keyframes zk {
	to {
		stroke-dashoffset:0;
	}
}
svg.acjk path[clip-path] {
	--t:0.8s;
	animation:zk var(--t) linear forwards var(--d);
	stroke-dasharray:3337;
	stroke-dashoffset:3339;
	stroke-width:128;
	stroke-linecap:round;
	stroke-linejoin:round;
	fill:none;
	stroke:#000;
}
svg.acjk path[id] {fill:#ccc;}
]]>
</style>
  <path id="z35064d1" d="M 291 766 Q 322 741 357 712 Q 373 699 389 701 Q 399 702 405 716 Q 409 732 397 763 Q 385 796 283 816 Q 267 819 260 815 Q 254 811 257 797 Q 261 787 291 766 Z"/>
  <path id="z35064d2" d="M 258 391 Q 286 434 320 488 Q 351 543 395 578 Q 410 590 398 604 Q 379 619 350 628 Q 328 637 311 625 Q 224 568 84 568 Q 72 569 70 563 Q 66 553 80 543 Q 114 518 131 520 Q 150 523 169 531 Q 215 546 269 564 Q 285 568 289 562 Q 295 555 284 531 Q 214 378 63 220 Q 48 208 52 204 Q 55 203 68 208 Q 143 248 235 361 L 258 391 Z"/>
  <path id="z35064d3" d="M 235 361 Q 268 294 234 130 Q 218 82 252 34 Q 253 33 255 31 Q 271 16 282 41 Q 295 78 295 119 Q 296 278 302 314 Q 309 339 300 348 Q 270 384 258 391 C 234 409 223 389 235 361 Z"/>
  <path id="z35064d4" d="M 357 400 Q 408 440 434 456 Q 447 460 443 469 Q 439 481 422 493 Q 406 506 389 506 Q 379 505 380 490 Q 383 475 341 407 C 325 381 333 382 357 400 Z"/>
  <path id="z35064d5" d="M 341 407 Q 322 422 312 418 Q 308 417 308 407 L 375 324 Q 382 314 394 313 Q 401 312 406 321 Q 410 331 407 351 Q 406 375 357 400 L 341 407 Z"/>
  <path id="z35064d6" d="M 472 696 Q 463 700 454 700 Q 444 703 440 698 Q 436 692 443 678 Q 474 609 492 498 Q 495 464 513 442 Q 529 423 534 437 Q 535 443 537 449 L 537 478 Q 536 493 533 510 Q 508 631 503 666 C 500 687 500 687 472 696 Z"/>
  <path id="z35064d7" d="M 735 480 Q 735 479 737 475 Q 743 459 756 461 Q 769 462 777 478 Q 790 497 811 592 Q 827 644 863 675 Q 882 691 865 706 Q 847 722 796 748 Q 783 757 710 740 Q 688 740 569 714 Q 514 702 472 696 C 442 691 474 658 503 666 Q 506 666 510 667 Q 543 679 600 689 L 633 695 Q 741 714 762 706 Q 772 700 768 665 Q 747 532 735 505 C 730 489 730 489 735 480 Z"/>
  <path id="z35064d8" d="M 655 578 Q 683 585 709 590 Q 730 594 721 605 Q 711 618 688 620 Q 675 621 655 617 L 610 602 Q 577 590 549 580 Q 536 576 554 563 Q 558 560 610 569 L 655 578 Z"/>
  <path id="z35064d9" d="M 655 469 Q 689 476 735 480 C 765 483 759 488 735 505 Q 710 526 655 505 L 611 494 Q 571 485 537 478 C 508 472 507 450 537 449 Q 544 448 553 450 Q 575 457 611 462 L 655 469 Z"/>
  <path id="z35064d10" d="M 656 350 Q 729 362 848 365 Q 897 365 904 374 Q 908 384 894 396 Q 840 432 799 415 Q 741 402 655 384 L 610 376 Q 529 363 438 347 Q 420 346 434 331 Q 447 319 462 315 Q 480 311 494 316 Q 527 326 566 334 L 656 350 Z"/>
  <path id="z35064d11" d="M 655 384 Q 655 427 655 469 L 655 505 Q 656 536 656 567 Q 655 573 655 578 L 655 617 Q 655 678 654 680 Q 645 687 633 695 C 609 712 591 717 600 689 Q 607 677 609 652 Q 609 628 610 602 L 610 569 Q 610 532 611 494 L 611 462 Q 611 420 610 376 L 610 316 Q 610 148 599 37 Q 596 -2 620 -34 Q 632 -47 641 -31 Q 666 17 659 60 Q 656 103 655 313 L 655 384 Z"/>
  <path id="z35064d12" d="M 566 334 Q 526 231 345 103 Q 330 91 344 90 Q 375 87 454 137 Q 520 194 551 229 Q 573 257 610 316 C 629 347 590 392 566 334 Z"/>
  <path id="z35064d13" d="M 655 313 Q 722 219 807 121 Q 825 103 852 105 Q 945 112 974 118 Q 983 121 984 125 Q 984 129 972 136 Q 840 184 751 263 Q 705 302 656 350 L 655 350 C 632 369 638 337 655 313 Z"/>
<defs>
  <clipPath id="z35064c1"><use href="#z35064d1"/></clipPath>
  <clipPath id="z35064c2"><use href="#z35064d2"/></clipPath>
  <clipPath id="z35064c3"><use href="#z35064d3"/></clipPath>
  <clipPath id="z35064c4"><use href="#z35064d4"/></clipPath>
  <clipPath id="z35064c5"><use href="#z35064d5"/></clipPath>
  <clipPath id="z35064c6"><use href="#z35064d6"/></clipPath>
  <clipPath id="z35064c7"><use href="#z35064d7"/></clipPath>
  <clipPath id="z35064c8"><use href="#z35064d8"/></clipPath>
  <clipPath id="z35064c9"><use href="#z35064d9"/></clipPath>
  <clipPath id="z35064c10"><use href="#z35064d10"/></clipPath>
  <clipPath id="z35064c11"><use href="#z35064d11"/></clipPath>
  <clipPath id="z35064c12"><use href="#z35064d12"/></clipPath>
  <clipPath id="z35064c13"><use href="#z35064d13"/></clipPath>
</defs>
<path style="--d:1s;" pathLength="3333" clip-path="url(#z35064c1)" d="M 267 807 L 353 760 L 385 721"/>
<path style="--d:2s;" pathLength="3333" clip-path="url(#z35064c2)" d="M 80 558 L 132 545 L 290 588 L 331 583 L 324 552 L 295 494 L 213 366 L 148 288 L 98 239 L 55 207"/>
<path style="--d:3s;" pathLength="3333" clip-path="url(#z35064c3)" d="M 258 383 L 276 327 L 274 232 L 261 97 L 267 41"/>
<path style="--d:4s;" pathLength="3333" clip-path="url(#z35064c4)" d="M 391 494 L 404 469 L 359 414 L 350 416"/>
<path style="--d:5s;" pathLength="3333" clip-path="url(#z35064c5)" d="M 318 410 L 369 367 L 393 328"/>
<path style="--d:6s;" pathLength="3333" clip-path="url(#z35064c6)" d="M 448 693 L 481 649 L 524 442"/>
<path style="--d:7s;" pathLength="3333" clip-path="url(#z35064c7)" d="M 479 693 L 511 685 L 608 709 L 746 729 L 775 727 L 791 718 L 814 688 L 791 625 L 754 478"/>
<path style="--d:8s;" pathLength="3333" clip-path="url(#z35064c8)" d="M 552 572 L 664 600 L 692 604 L 713 599"/>
<path style="--d:9s;" pathLength="3333" clip-path="url(#z35064c9)" d="M 541 456 L 561 469 L 669 491 L 715 496 L 727 486"/>
<path style="--d:10s;" pathLength="3333" clip-path="url(#z35064c10)" d="M 436 339 L 478 333 L 620 362 L 829 393 L 897 379"/>
<path style="--d:11s;" pathLength="3333" clip-path="url(#z35064c11)" d="M 606 686 L 631 667 L 634 630 L 630 -28"/>
<path style="--d:12s;" pathLength="3333" clip-path="url(#z35064c12)" d="M 604 335 L 582 314 L 538 246 L 487 192 L 435 146 L 348 96"/>
<path style="--d:13s;" pathLength="3333" clip-path="url(#z35064c13)" d="M 657 344 L 668 319 L 721 260 L 837 151 L 977 124"/>
</svg>