<svg id="z31153" class="acjk" viewBox="0 0 1024 1024" xmlns="http://www.w3.org/2000/svg">
<style>
<![CDATA[
@keyframes zk {
	to {
		stroke-dashoffset:0;
	}
}
svg.acjk path[clip-path] {
	--t:0.8s;
	animation:zk var(--t) linear forwards var(--d);
	stroke-dasharray:3337;
	stroke-dashoffset:3339;
	stroke-width:128;
	stroke-linecap:round;
	stroke-linejoin:round;
	fill:none;
	stroke:#000;
}
svg.acjk path[id] {fill:#ccc;}
]]>
</style>
  <path id="z31153d1" d="M 289 779 Q 319 758 350 733 Q 366 721 382 724 Q 392 725 397 740 Q 400 756 387 786 Q 380 805 347 817 Q 266 835 256 827 Q 252 823 254 809 Q 258 799 289 779 Z"/>
  <path id="z31153d2" d="M 258 396 Q 288 435 321 482 Q 355 533 399 565 Q 414 575 402 590 Q 384 605 357 614 Q 335 623 319 612 Q 244 557 85 536 Q 73 537 71 530 Q 68 520 83 511 Q 120 486 138 490 Q 159 494 284 554 Q 302 561 307 554 Q 311 545 299 524 Q 224 392 55 238 Q 42 228 44 225 Q 47 222 58 227 Q 130 260 232 365 L 258 396 Z"/>
  <path id="z31153d3" d="M 232 365 Q 231 365 232 364 Q 263 286 223 107 Q 207 85 232 24 Q 236 14 243 7 Q 259 -8 270 17 Q 283 54 283 95 Q 287 284 294 326 Q 301 351 292 360 Q 265 393 258 396 C 235 415 223 394 232 365 Z"/>
  <path id="z31153d4" d="M 338 437 Q 390 374 412 370 Q 422 369 429 384 Q 430 394 423 411 Q 414 427 392 437 Q 358 456 342 459 Q 335 460 334 451 Q 333 444 338 437 Z"/>
  <path id="z31153d5" d="M 650 733 Q 767 764 772 769 Q 779 776 775 783 Q 768 792 745 797 Q 727 800 655 774 L 604 758 Q 558 748 505 738 Q 477 732 498 720 Q 528 705 586 718 Q 593 721 605 722 L 650 733 Z"/>
  <path id="z31153d6" d="M 644 684 Q 647 709 650 733 L 655 774 Q 656 786 658 797 Q 658 801 668 838 Q 671 848 654 860 Q 626 876 604 880 Q 591 883 584 875 Q 577 869 584 856 Q 597 840 598 828 Q 601 794 604 758 L 605 722 Q 606 700 606 673 C 606 643 640 654 644 684 Z"/>
  <path id="z31153d7" d="M 606 673 Q 576 667 517 654 Q 496 650 514 638 Q 538 623 581 633 Q 663 654 729 666 Q 736 666 743 676 Q 743 685 725 691 Q 703 706 644 684 L 606 673 Z"/>
  <path id="z31153d8" d="M 498 533 Q 612 581 765 606 Q 775 607 782 607 Q 794 604 793 597 Q 793 593 770 540 Q 761 527 767 524 Q 774 521 790 531 Q 838 558 876 565 Q 907 571 907 579 Q 906 589 841 635 Q 817 656 743 633 Q 736 633 526 581 Q 489 571 449 562 Q 421 559 439 544 Q 470 523 498 533 Z"/>
  <path id="z31153d9" d="M 635 494 Q 659 501 687 506 Q 715 513 719 516 Q 726 522 722 528 Q 718 535 697 541 Q 676 545 655 536 Q 624 526 588 516 Q 551 507 505 502 Q 480 498 498 486 Q 525 471 569 480 Q 576 483 588 483 L 635 494 Z"/>
  <path id="z31153d10" d="M 635 439 L 635 494 C 635 524 588 513 588 483 L 588 428 C 588 398 635 409 635 439 Z"/>
  <path id="z31153d11" d="M 588 428 Q 533 418 482 406 Q 469 403 485 391 Q 498 381 527 386 Q 660 411 760 428 Q 779 431 773 442 Q 764 454 743 458 Q 715 462 635 439 L 588 428 Z"/>
  <path id="z31153d12" d="M 727 336 Q 751 339 935 352 Q 953 353 957 361 Q 961 371 946 383 Q 895 413 864 406 Q 738 373 358 304 Q 339 301 354 287 Q 367 275 384 271 Q 403 267 417 272 Q 552 318 706 334 L 727 336 Z"/>
  <path id="z31153d13" d="M 388 226 Q 378 227 376 223 Q 372 217 380 206 Q 402 172 422 115 Q 426 99 438 88 Q 454 72 457 85 Q 460 95 456 112 L 450 137 Q 437 189 434 204 C 430 225 418 225 388 226 Z"/>
  <path id="z31153d14" d="M 556 156 Q 569 198 583 210 Q 601 231 582 242 Q 530 270 521 268 Q 517 267 513 264 Q 461 227 388 226 C 358 225 406 192 434 204 Q 437 207 499 224 Q 517 228 521 222 Q 525 218 510 155 C 503 126 547 127 556 156 Z"/>
  <path id="z31153d15" d="M 456 112 Q 459 112 463 113 Q 494 123 565 133 Q 572 134 573 141 Q 573 147 556 156 C 541 164 539 163 510 155 Q 476 145 450 137 C 421 128 426 109 456 112 Z"/>
  <path id="z31153d16" d="M 778 230 Q 832 239 913 239 Q 928 240 932 247 Q 935 256 922 265 Q 874 295 824 277 Q 806 274 784 267 L 730 256 Q 681 249 628 237 Q 613 236 625 223 Q 635 213 650 209 Q 666 206 678 210 Q 703 217 731 222 L 778 230 Z"/>
  <path id="z31153d17" d="M 731 222 Q 737 27 719 12 Q 713 9 649 12 Q 637 13 640 7 Q 641 0 651 -6 Q 712 -54 732 -82 Q 745 -97 759 -83 Q 789 -47 785 12 Q 773 201 778 230 L 784 267 Q 785 274 788 280 Q 795 296 781 308 Q 757 327 731 336 Q 730 337 727 336 C 704 342 704 342 706 334 Q 702 328 711 316 Q 727 288 730 256 L 731 222 Z"/>
  <path id="z31153d18" d="M 634 124 Q 670 79 681 77 Q 688 76 694 85 Q 698 95 695 117 Q 694 130 675 142 Q 629 166 620 162 Q 616 161 616 151 Q 617 142 634 124 Z"/>
<defs>
  <clipPath id="z31153c1"><use href="#z31153d1"/></clipPath>
  <clipPath id="z31153c2"><use href="#z31153d2"/></clipPath>
  <clipPath id="z31153c3"><use href="#z31153d3"/></clipPath>
  <clipPath id="z31153c4"><use href="#z31153d4"/></clipPath>
  <clipPath id="z31153c5"><use href="#z31153d5"/></clipPath>
  <clipPath id="z31153c6"><use href="#z31153d6"/></clipPath>
  <clipPath id="z31153c7"><use href="#z31153d7"/></clipPath>
  <clipPath id="z31153c8"><use href="#z31153d8"/></clipPath>
  <clipPath id="z31153c9"><use href="#z31153d9"/></clipPath>
  <clipPath id="z31153c10"><use href="#z31153d10"/></clipPath>
  <clipPath id="z31153c11"><use href="#z31153d11"/></clipPath>
  <clipPath id="z31153c12"><use href="#z31153d12"/></clipPath>
  <clipPath id="z31153c13"><use href="#z31153d13"/></clipPath>
  <clipPath id="z31153c14"><use href="#z31153d14"/></clipPath>
  <clipPath id="z31153c15"><use href="#z31153d15"/></clipPath>
  <clipPath id="z31153c16"><use href="#z31153d16"/></clipPath>
  <clipPath id="z31153c17"><use href="#z31153d17"/></clipPath>
  <clipPath id="z31153c18"><use href="#z31153d18"/></clipPath>
</defs>
<path style="--d:1s;" pathLength="3333" clip-path="url(#z31153c1)" d="M 261 821 L 349 778 L 378 743"/>
<path style="--d:2s;" pathLength="3333" clip-path="url(#z31153c2)" d="M 81 527 L 128 516 L 146 519 L 303 578 L 344 573 L 318 513 L 230 392 L 147 304 L 53 231"/>
<path style="--d:3s;" pathLength="3333" clip-path="url(#z31153c3)" d="M 256 389 L 269 339 L 265 214 L 250 88 L 255 17"/>
<path style="--d:4s;" pathLength="3333" clip-path="url(#z31153c4)" d="M 344 449 L 401 403 L 413 383"/>
<path style="--d:5s;" pathLength="3333" clip-path="url(#z31153c5)" d="M 499 730 L 529 727 L 574 733 L 735 777 L 765 778"/>
<path style="--d:6s;" pathLength="3333" clip-path="url(#z31153c6)" d="M 595 866 L 632 833 L 626 700 L 611 680"/>
<path style="--d:7s;" pathLength="3333" clip-path="url(#z31153c7)" d="M 514 646 L 570 647 L 689 678 L 735 677"/>
<path style="--d:8s;" pathLength="3333" clip-path="url(#z31153c8)" d="M 443 554 L 452 549 L 487 550 L 571 580 L 757 622 L 792 625 L 814 617 L 832 594 L 771 529"/>
<path style="--d:9s;" pathLength="3333" clip-path="url(#z31153c9)" d="M 500 495 L 544 492 L 667 522 L 712 524"/>
<path style="--d:10s;" pathLength="3333" clip-path="url(#z31153c10)" d="M 630 487 L 593 435"/>
<path style="--d:11s;" pathLength="3333" clip-path="url(#z31153c11)" d="M 491 400 L 517 398 L 718 440 L 764 438"/>
<path style="--d:12s;" pathLength="3333" clip-path="url(#z31153c12)" d="M 356 296 L 407 291 L 577 331 L 879 378 L 947 366"/>
<path style="--d:13s;" pathLength="3333" clip-path="url(#z31153c13)" d="M 384 218 L 416 186 L 448 89"/>
<path style="--d:14s;" pathLength="3333" clip-path="url(#z31153c14)" d="M 406 220 L 412 224 L 438 218 L 517 245 L 533 242 L 553 223 L 539 180 L 517 165"/>
<path style="--d:15s;" pathLength="3333" clip-path="url(#z31153c15)" d="M 459 119 L 475 131 L 506 139 L 565 141"/>
<path style="--d:16s;" pathLength="3333" clip-path="url(#z31153c16)" d="M 637 228 L 659 225 L 860 261 L 923 251"/>
<path style="--d:17s;" pathLength="3333" clip-path="url(#z31153c17)" d="M 712 330 L 740 308 L 757 282 L 753 3 L 740 -26 L 646 6"/>
<path style="--d:18s;" pathLength="3333" clip-path="url(#z31153c18)" d="M 624 154 L 667 120 L 683 88"/>
</svg>