<svg id="z38022" class="acjk" viewBox="0 0 1024 1024" xmlns="http://www.w3.org/2000/svg">
<style>
<![CDATA[
@keyframes zk {
	to {
		stroke-dashoffset:0;
	}
}
svg.acjk path[clip-path] {
	--t:0.8s;
	animation:zk var(--t) linear forwards var(--d);
	stroke-dasharray:3337;
	stroke-dashoffset:3339;
	stroke-width:128;
	stroke-linecap:round;
	stroke-linejoin:round;
	fill:none;
	stroke:#000;
}
svg.acjk path[id] {fill:#ccc;}
]]>
</style>
  <path id="z38022d1" d="M 319 655 Q 356 718 380 740 Q 390 750 386 764 Q 382 777 354 800 Q 329 819 309 819 Q 290 818 298 795 Q 311 762 299 735 Q 230 581 63 390 Q 53 380 51 374 Q 47 364 61 366 Q 118 372 294 617 Q 297 623 301 627 L 319 655 Z"/>
  <path id="z38022d2" d="M 301 627 Q 337 618 408 636 Q 435 643 465 652 Q 483 658 486 661 Q 493 670 488 677 Q 481 687 451 692 Q 427 693 356 666 Q 338 662 319 655 C 291 645 272 633 301 627 Z"/>
  <path id="z38022d3" d="M 313 474 Q 439 516 442 518 Q 449 527 444 534 Q 437 544 409 547 Q 381 550 355 535 Q 328 523 299 513 Q 268 503 228 495 Q 197 486 221 473 Q 242 466 266 465 L 313 474 Z"/>
  <path id="z38022d4" d="M 339 333 Q 463 376 465 377 Q 472 384 468 393 Q 461 403 431 408 Q 406 412 339 382 L 290 364 Q 227 345 166 333 Q 132 324 158 310 Q 201 291 253 308 Q 271 314 291 319 L 339 333 Z"/>
  <path id="z38022d5" d="M 291 319 Q 291 186 253 128 Q 211 91 260 41 L 262 40 Q 275 31 287 48 Q 302 76 445 196 Q 464 209 468 218 Q 472 228 462 228 Q 450 228 341 168 Q 331 161 330 172 Q 337 260 339 333 L 339 382 Q 339 409 344 430 Q 350 451 313 474 C 289 492 255 493 266 465 Q 287 419 290 364 L 291 319 Z"/>
  <path id="z38022d6" d="M 949 65 Q 968 81 948 117 Q 926 178 920 259 Q 919 271 911 280 Q 901 286 896 261 Q 863 123 855 111 Q 849 98 824 93 Q 730 69 666 94 Q 630 107 618 147 Q 600 210 609 442 Q 618 667 645 702 Q 654 726 633 740 Q 603 767 564 776 Q 543 780 535 771 Q 526 761 534 751 Q 555 732 559 674 Q 559 629 557 534 Q 545 228 569 135 Q 578 87 622 57 Q 707 6 867 30 Q 876 33 885 34 Q 930 47 949 65 Z"/>
<defs>
  <clipPath id="z38022c1"><use href="#z38022d1"/></clipPath>
  <clipPath id="z38022c2"><use href="#z38022d2"/></clipPath>
  <clipPath id="z38022c3"><use href="#z38022d3"/></clipPath>
  <clipPath id="z38022c4"><use href="#z38022d4"/></clipPath>
  <clipPath id="z38022c5"><use href="#z38022d5"/></clipPath>
  <clipPath id="z38022c6"><use href="#z38022d6"/></clipPath>
</defs>
<path style="--d:1s;" pathLength="3333" clip-path="url(#z38022c1)" d="M 309 805 L 332 781 L 343 758 L 302 677 L 239 577 L 173 490 L 103 410 L 59 374"/>
<path style="--d:2s;" pathLength="3333" clip-path="url(#z38022c2)" d="M 307 630 L 330 641 L 433 667 L 478 670"/>
<path style="--d:3s;" pathLength="3333" clip-path="url(#z38022c3)" d="M 222 485 L 260 483 L 320 496 L 391 525 L 438 525"/>
<path style="--d:4s;" pathLength="3333" clip-path="url(#z38022c4)" d="M 159 322 L 197 319 L 239 326 L 418 385 L 461 384"/>
<path style="--d:5s;" pathLength="3333" clip-path="url(#z38022c5)" d="M 275 461 L 308 440 L 312 431 L 315 300 L 301 169 L 306 134 L 351 146 L 461 221"/>
<path style="--d:6s;" pathLength="3333" clip-path="url(#z38022c6)" d="M 544 761 L 585 732 L 598 708 L 585 544 L 579 298 L 589 160 L 599 122 L 612 101 L 650 72 L 722 53 L 816 57 L 852 63 L 881 76 L 903 94 L 908 271"/>
</svg>