<svg id="z32755" class="acjk" viewBox="0 0 1024 1024" xmlns="http://www.w3.org/2000/svg">
<style>
<![CDATA[
@keyframes zk {
	to {
		stroke-dashoffset:0;
	}
}
svg.acjk path[clip-path] {
	--t:0.8s;
	animation:zk var(--t) linear forwards var(--d);
	stroke-dasharray:3337;
	stroke-dashoffset:3339;
	stroke-width:128;
	stroke-linecap:round;
	stroke-linejoin:round;
	fill:none;
	stroke:#000;
}
svg.acjk path[id] {fill:#ccc;}
]]>
</style>
  <path id="z32755d1" d="M 345 751 Q 496 778 502 783 Q 509 789 506 795 Q 502 804 479 810 Q 457 816 434 807 Q 397 797 356 787 Q 311 780 261 776 C 231 774 243 753 273 748 Q 276 748 279 747 Q 298 744 321 747 L 345 751 Z"/>
  <path id="z32755d2" d="M 346 679 Q 353 691 359 701 Q 365 711 369 716 Q 372 723 367 731 Q 355 746 345 751 C 319 766 309 773 321 747 Q 322 746 323 744 Q 327 696 284 628 Q 280 625 281 621 Q 281 618 284 618 Q 308 627 334 663 L 346 679 Z"/>
  <path id="z32755d3" d="M 408 663 Q 492 690 493 693 Q 499 699 495 704 Q 489 711 468 714 Q 446 715 393 692 Q 369 686 346 679 C 317 670 312 669 334 663 Q 356 657 377 656 L 408 663 Z"/>
  <path id="z32755d4" d="M 412 580 Q 419 583 432 585 Q 489 594 495 603 Q 495 610 480 616 Q 462 628 440 621 Q 430 618 422 614 L 379 601 Q 354 595 333 591 Q 314 588 293 583 Q 274 579 290 569 Q 312 556 349 565 Q 359 568 372 570 L 412 580 Z"/>
  <path id="z32755d5" d="M 372 570 Q 348 513 288 477 Q 281 471 287 469 Q 317 465 357 496 Q 396 526 412 580 L 422 614 Q 425 624 431 633 Q 437 643 427 650 Q 417 659 408 663 C 382 677 370 683 377 656 Q 383 638 379 601 L 372 570 Z"/>
  <path id="z32755d6" d="M 434 531 Q 479 494 485 493 Q 491 493 494 501 Q 497 508 492 525 Q 485 544 432 557 Q 423 558 420 558 Q 417 557 418 549 Q 419 543 434 531 Z"/>
  <path id="z32755d7" d="M 261 776 Q 254 782 239 789 Q 223 798 216 792 Q 212 788 216 775 Q 250 703 219 474 Q 215 456 203 437 Q 196 425 202 410 Q 208 394 216 387 Q 223 381 237 391 Q 294 433 472 439 Q 490 439 490 448 Q 490 458 469 472 Q 459 481 360 463 Q 333 463 275 449 Q 262 448 262 460 Q 266 566 270 703 Q 270 731 273 748 C 275 767 275 767 261 776 Z"/>
  <path id="z32755d8" d="M 602 811 Q 575 827 560 820 Q 551 816 556 807 Q 572 791 567 728 Q 560 677 506 629 Q 499 622 507 621 Q 570 633 598 702 Q 602 717 611 767 Q 611 774 614 782 C 620 801 620 801 602 811 Z"/>
  <path id="z32755d9" d="M 870 673 Q 882 677 875 690 Q 862 705 847 713 Q 837 719 818 710 Q 793 697 759 697 Q 738 698 731 713 Q 727 723 736 754 Q 740 773 761 789 Q 777 802 763 813 Q 744 831 723 841 Q 714 845 699 838 Q 693 837 602 811 C 573 803 586 772 614 782 Q 615 783 618 784 Q 645 791 667 798 Q 685 802 690 800 Q 697 797 695 784 Q 691 712 693 703 Q 697 682 716 670 Q 743 655 794 657 Q 845 658 870 673 Z"/>
  <path id="z32755d10" d="M 689 497 Q 714 528 736 571 Q 748 593 764 606 Q 780 616 771 628 Q 761 638 738 649 Q 720 656 699 647 Q 677 638 650 630 Q 622 621 574 616 Q 564 615 561 610 Q 558 606 571 600 Q 598 590 633 600 Q 676 616 685 617 Q 698 610 690 596 Q 677 551 655 520 L 632 494 Q 589 452 496 430 Q 484 427 494 419 Q 498 416 529 418 Q 569 421 614 441 Q 639 453 661 469 L 689 497 Z"/>
  <path id="z32755d11" d="M 661 469 Q 664 468 668 463 Q 770 375 805 378 Q 872 387 925 403 Q 953 410 949 418 Q 948 422 920 427 Q 766 457 739 471 Q 720 480 689 497 L 655 520 Q 574 580 549 575 Q 534 574 533 569 Q 532 563 545 557 Q 578 542 632 494 L 661 469 Z"/>
  <path id="z32755d12" d="M 343 41 Q 315 45 286 49 Q 267 52 269 43 Q 332 4 366 -24 Q 379 -40 393 -45 Q 402 -49 409 -40 Q 439 2 441 64 Q 426 274 448 310 Q 460 326 449 337 Q 430 353 398 368 Q 380 375 333 352 Q 287 336 219 330 Q 206 329 213 321 Q 220 311 234 306 Q 249 303 359 328 Q 375 332 381 324 Q 402 255 379 60 Q 375 50 371 42 Q 365 35 343 41 Z"/>
  <path id="z32755d13" d="M 234 229 Q 253 213 274 194 Q 286 184 298 185 Q 305 186 309 196 Q 313 208 305 231 Q 301 244 277 254 Q 225 272 212 267 Q 208 263 210 253 Q 213 246 234 229 Z"/>
  <path id="z32755d14" d="M 144 78 Q 134 75 134 66 Q 135 56 144 50 Q 165 41 195 32 Q 204 31 212 40 Q 224 58 315 131 Q 328 141 336 152 Q 345 159 343 168 Q 337 172 208 104 Q 147 80 144 78 Z"/>
  <path id="z32755d15" d="M 651 41 Q 626 42 600 44 Q 578 48 581 39 Q 642 -4 677 -37 Q 692 -56 708 -61 Q 718 -65 726 -54 Q 768 -6 766 55 Q 742 281 770 325 Q 783 344 771 356 Q 749 377 711 394 Q 692 401 676 395 Q 610 361 515 353 Q 499 352 508 343 Q 517 331 532 325 Q 550 319 664 346 Q 685 352 690 341 Q 694 332 695 317 Q 702 176 696 90 Q 693 56 682 41 Q 675 34 651 41 Z"/>
  <path id="z32755d16" d="M 540 244 Q 561 226 584 205 Q 596 195 609 197 Q 618 197 621 208 Q 625 221 616 245 Q 606 272 534 283 Q 521 284 516 283 Q 512 279 513 269 Q 517 260 540 244 Z"/>
  <path id="z32755d17" d="M 481 108 Q 471 105 471 97 Q 471 87 480 82 Q 499 73 528 64 Q 537 63 544 71 Q 562 95 644 157 Q 656 167 664 176 Q 673 183 671 191 Q 667 195 657 191 Q 519 116 481 108 Z"/>
<defs>
  <clipPath id="z32755c1"><use href="#z32755d1"/></clipPath>
  <clipPath id="z32755c2"><use href="#z32755d2"/></clipPath>
  <clipPath id="z32755c3"><use href="#z32755d3"/></clipPath>
  <clipPath id="z32755c4"><use href="#z32755d4"/></clipPath>
  <clipPath id="z32755c5"><use href="#z32755d5"/></clipPath>
  <clipPath id="z32755c6"><use href="#z32755d6"/></clipPath>
  <clipPath id="z32755c7"><use href="#z32755d7"/></clipPath>
  <clipPath id="z32755c8"><use href="#z32755d8"/></clipPath>
  <clipPath id="z32755c9"><use href="#z32755d9"/></clipPath>
  <clipPath id="z32755c10"><use href="#z32755d10"/></clipPath>
  <clipPath id="z32755c11"><use href="#z32755d11"/></clipPath>
  <clipPath id="z32755c12"><use href="#z32755d12"/></clipPath>
  <clipPath id="z32755c13"><use href="#z32755d13"/></clipPath>
  <clipPath id="z32755c14"><use href="#z32755d14"/></clipPath>
  <clipPath id="z32755c15"><use href="#z32755d15"/></clipPath>
  <clipPath id="z32755c16"><use href="#z32755d16"/></clipPath>
  <clipPath id="z32755c17"><use href="#z32755d17"/></clipPath>
</defs>
<path style="--d:1s;" pathLength="3333" clip-path="url(#z32755c1)" d="M 270 771 L 283 762 L 312 763 L 356 767 L 447 791 L 497 791"/>
<path style="--d:2s;" pathLength="3333" clip-path="url(#z32755c2)" d="M 332 738 L 341 733 L 344 717 L 311 651 L 286 623"/>
<path style="--d:3s;" pathLength="3333" clip-path="url(#z32755c3)" d="M 342 663 L 350 670 L 371 670 L 443 693 L 487 700"/>
<path style="--d:4s;" pathLength="3333" clip-path="url(#z32755c4)" d="M 299 574 L 338 576 L 450 606 L 490 605"/>
<path style="--d:5s;" pathLength="3333" clip-path="url(#z32755c5)" d="M 386 653 L 405 637 L 383 552 L 342 501 L 293 472"/>
<path style="--d:6s;" pathLength="3333" clip-path="url(#z32755c6)" d="M 426 552 L 475 520 L 486 501"/>
<path style="--d:7s;" pathLength="3333" clip-path="url(#z32755c7)" d="M 222 787 L 245 759 L 251 729 L 250 597 L 238 431 L 277 430 L 400 454 L 450 457 L 480 450"/>
<path style="--d:8s;" pathLength="3333" clip-path="url(#z32755c8)" d="M 568 811 L 586 796 L 590 779 L 582 710 L 565 674 L 538 643 L 515 632 L 514 626"/>
<path style="--d:9s;" pathLength="3333" clip-path="url(#z32755c9)" d="M 613 790 L 623 802 L 660 813 L 688 818 L 715 814 L 726 801 L 716 772 L 711 712 L 723 690 L 768 677 L 838 688 L 868 683"/>
<path style="--d:10s;" pathLength="3333" clip-path="url(#z32755c10)" d="M 570 609 L 622 609 L 686 630 L 726 617 L 691 537 L 645 480 L 574 440 L 498 424"/>
<path style="--d:11s;" pathLength="3333" clip-path="url(#z32755c11)" d="M 538 568 L 603 539 L 690 471 L 782 421 L 825 413 L 943 416"/>
<path style="--d:12s;" pathLength="3333" clip-path="url(#z32755c12)" d="M 222 321 L 298 326 L 377 349 L 395 344 L 415 322 L 412 75 L 398 18 L 391 7 L 370 10 L 279 42"/>
<path style="--d:13s;" pathLength="3333" clip-path="url(#z32755c13)" d="M 217 259 L 281 222 L 294 200"/>
<path style="--d:14s;" pathLength="3333" clip-path="url(#z32755c14)" d="M 147 65 L 197 68 L 342 164"/>
<path style="--d:15s;" pathLength="3333" clip-path="url(#z32755c15)" d="M 519 343 L 549 340 L 587 346 L 692 372 L 717 357 L 732 338 L 726 273 L 730 64 L 718 17 L 703 0 L 591 37"/>
<path style="--d:16s;" pathLength="3333" clip-path="url(#z32755c16)" d="M 520 275 L 591 236 L 609 209"/>
<path style="--d:17s;" pathLength="3333" clip-path="url(#z32755c17)" d="M 484 96 L 526 94 L 629 159 L 664 188"/>
</svg>