<svg id="z33580" class="acjk" viewBox="0 0 1024 1024" xmlns="http://www.w3.org/2000/svg">
<style>
<![CDATA[
@keyframes zk {
	to {
		stroke-dashoffset:0;
	}
}
svg.acjk path[clip-path] {
	--t:0.8s;
	animation:zk var(--t) linear forwards var(--d);
	stroke-dasharray:3337;
	stroke-dashoffset:3339;
	stroke-width:128;
	stroke-linecap:round;
	stroke-linejoin:round;
	fill:none;
	stroke:#000;
}
svg.acjk path[id] {fill:#ccc;}
]]>
</style>
  <path id="z33580d1" d="M 620 656 Q 689 668 810 663 Q 826 662 831 671 Q 837 683 823 697 Q 774 739 676 715 Q 660 712 644 708 L 586 698 Q 502 685 409 670 L 364 663 Q 285 654 199 643 Q 169 639 190 623 Q 236 596 291 607 Q 331 619 373 627 L 412 635 Q 511 650 573 653 L 620 656 Z"/>
  <path id="z33580d2" d="M 409 670 Q 405 713 403 745 Q 404 764 384 770 Q 344 788 323 781 Q 305 771 320 753 Q 356 711 364 663 L 373 627 Q 380 594 395 579 Q 408 569 413 581 Q 420 608 412 635 L 409 670 Z"/>
  <path id="z33580d3" d="M 644 708 Q 654 738 677 774 Q 692 789 681 800 Q 669 818 634 836 Q 616 846 598 838 Q 588 831 596 820 Q 608 792 586 698 L 573 653 Q 561 614 562 596 Q 563 581 580 593 Q 598 606 620 656 L 644 708 Z"/>
  <path id="z33580d4" d="M 461 442 Q 576 463 743 477 Q 753 476 764 488 Q 765 501 742 512 Q 703 536 638 516 Q 494 488 492 486 L 413 473 Q 386 470 210 454 Q 179 451 202 432 Q 235 404 265 410 Q 323 422 391 431 L 461 442 Z"/>
  <path id="z33580d5" d="M 351 296 Q 406 362 461 442 L 492 486 Q 498 495 505 501 Q 514 511 506 527 Q 493 557 476 570 Q 463 583 446 585 Q 430 586 433 565 Q 437 541 413 473 L 391 431 Q 349 368 320 329 L 294 298 Q 213 205 108 117 Q 101 113 100 105 Q 100 99 106 99 Q 170 111 306 246 L 351 296 Z"/>
  <path id="z33580d6" d="M 306 246 Q 306 132 290 59 Q 278 10 313 -31 L 314 -33 Q 330 -48 342 -23 Q 355 16 355 59 Q 354 219 359 255 Q 366 280 357 290 Q 354 294 351 296 L 320 329 Q 311 338 300 343 Q 290 344 286 338 Q 280 323 294 298 L 306 246 Z"/>
  <path id="z33580d7" d="M 606 228 Q 757 259 762 263 Q 772 270 767 280 Q 760 292 730 300 Q 703 306 609 277 L 555 264 Q 500 255 438 250 Q 401 244 427 226 Q 469 205 540 217 Q 546 218 556 219 L 606 228 Z"/>
  <path id="z33580d8" d="M 596 83 Q 600 158 606 228 L 609 277 Q 609 316 626 384 Q 629 394 610 409 Q 576 427 552 431 Q 536 434 528 426 Q 521 419 529 404 Q 550 376 550 356 Q 553 313 555 264 L 556 219 Q 557 153 556 79 C 556 49 594 53 596 83 Z"/>
  <path id="z33580d9" d="M 556 79 Q 475 72 385 62 Q 364 61 379 43 Q 392 28 411 22 Q 432 16 448 20 Q 619 59 833 40 Q 852 40 858 48 Q 864 60 848 74 Q 788 122 742 104 Q 684 97 596 83 L 556 79 Z"/>
<defs>
  <clipPath id="z33580c1"><use href="#z33580d1"/></clipPath>
  <clipPath id="z33580c2"><use href="#z33580d2"/></clipPath>
  <clipPath id="z33580c3"><use href="#z33580d3"/></clipPath>
  <clipPath id="z33580c4"><use href="#z33580d4"/></clipPath>
  <clipPath id="z33580c5"><use href="#z33580d5"/></clipPath>
  <clipPath id="z33580c6"><use href="#z33580d6"/></clipPath>
  <clipPath id="z33580c7"><use href="#z33580d7"/></clipPath>
  <clipPath id="z33580c8"><use href="#z33580d8"/></clipPath>
  <clipPath id="z33580c9"><use href="#z33580d9"/></clipPath>
</defs>
<path style="--d:1s;" pathLength="3333" clip-path="url(#z33580c1)" d="M 193 634 L 267 627 L 480 664 L 709 693 L 775 692 L 818 678"/>
<path style="--d:2s;" pathLength="3333" clip-path="url(#z33580c2)" d="M 329 766 L 370 740 L 404 584"/>
<path style="--d:3s;" pathLength="3333" clip-path="url(#z33580c3)" d="M 604 828 L 620 818 L 639 787 L 617 713 L 571 596"/>
<path style="--d:4s;" pathLength="3333" clip-path="url(#z33580c4)" d="M 204 444 L 242 434 L 268 435 L 683 499 L 753 490"/>
<path style="--d:5s;" pathLength="3333" clip-path="url(#z33580c5)" d="M 445 572 L 457 556 L 467 518 L 434 451 L 374 362 L 313 285 L 238 207 L 142 127 L 108 107"/>
<path style="--d:6s;" pathLength="3333" clip-path="url(#z33580c6)" d="M 297 331 L 332 268 L 320 35 L 325 -26"/>
<path style="--d:7s;" pathLength="3333" clip-path="url(#z33580c7)" d="M 430 239 L 513 235 L 616 252 L 697 274 L 756 274"/>
<path style="--d:8s;" pathLength="3333" clip-path="url(#z33580c8)" d="M 539 417 L 585 379 L 577 107 L 562 87"/>
<path style="--d:9s;" pathLength="3333" clip-path="url(#z33580c9)" d="M 382 52 L 439 43 L 608 65 L 765 77 L 847 55"/>
</svg>