<svg id="z35641" class="acjk" viewBox="0 0 1024 1024" xmlns="http://www.w3.org/2000/svg">
<style>
<![CDATA[
@keyframes zk {
	to {
		stroke-dashoffset:0;
	}
}
svg.acjk path[clip-path] {
	--t:0.8s;
	animation:zk var(--t) linear forwards var(--d);
	stroke-dasharray:3337;
	stroke-dashoffset:3339;
	stroke-width:128;
	stroke-linecap:round;
	stroke-linejoin:round;
	fill:none;
	stroke:#000;
}
svg.acjk path[id] {fill:#ccc;}
]]>
</style>
  <path id="z35641d1" d="M 290 730 Q 312 711 337 687 Q 353 674 371 676 Q 384 677 388 692 Q 392 710 380 743 Q 368 771 281 784 Q 263 787 256 783 Q 250 779 253 764 Q 257 751 290 730 Z"/>
  <path id="z35641d2" d="M 51 520 Q 38 519 35 510 Q 34 500 49 488 Q 91 461 133 477 Q 262 528 417 557 Q 435 561 435 568 Q 435 581 416 590 Q 388 600 364 594 Q 135 531 51 520 Z"/>
  <path id="z35641d3" d="M 179 411 Q 146 401 173 389 Q 215 374 262 394 Q 299 407 339 421 Q 357 428 359 430 Q 366 439 361 446 Q 352 456 325 458 Q 304 459 234 427 Q 207 420 179 411 Z"/>
  <path id="z35641d4" d="M 182 305 Q 152 295 177 285 Q 210 272 284 298 Q 306 307 332 315 Q 348 321 351 324 Q 358 331 352 339 Q 345 348 319 350 Q 292 351 234 320 Q 210 313 182 305 Z"/>
  <path id="z35641d5" d="M 164 194 Q 152 198 133 200 Q 123 203 119 198 Q 113 192 121 177 Q 148 125 166 41 Q 169 16 184 -1 Q 202 -22 206 -7 Q 212 9 207 39 L 201 72 Q 186 148 186 169 C 185 188 185 188 164 194 Z"/>
  <path id="z35641d6" d="M 329 101 Q 345 162 365 180 Q 386 205 363 219 Q 344 229 316 245 Q 292 257 258 228 Q 194 204 164 194 C 136 184 157 160 186 169 Q 225 181 265 192 Q 284 198 290 190 Q 296 186 290 158 Q 286 133 279 103 C 272 74 321 72 329 101 Z"/>
  <path id="z35641d7" d="M 207 39 Q 271 60 341 74 Q 351 77 350 85 Q 350 92 329 101 C 304 112 304 112 279 103 Q 277 102 276 102 Q 233 84 201 72 C 173 61 178 30 207 39 Z"/>
  <path id="z35641d8" d="M 743 669 Q 798 676 875 680 Q 926 680 933 690 Q 937 700 922 712 Q 871 745 811 724 Q 786 718 755 710 L 700 698 Q 681 697 592 676 L 547 668 Q 495 659 437 648 Q 419 645 434 631 Q 464 609 501 620 Q 525 629 553 634 L 594 644 Q 627 654 694 662 L 743 669 Z"/>
  <path id="z35641d9" d="M 592 676 Q 589 712 592 750 Q 596 768 585 776 Q 570 786 544 793 Q 525 797 507 787 Q 498 780 512 767 Q 530 749 547 668 L 553 634 Q 571 538 577 528 Q 583 519 590 526 Q 593 530 595 540 L 598 573 Q 598 600 594 644 L 592 676 Z"/>
  <path id="z35641d10" d="M 719 585 Q 731 628 743 669 L 755 710 Q 762 761 790 805 Q 794 814 779 831 Q 751 853 730 862 Q 717 868 708 861 Q 699 857 705 841 Q 715 816 714 801 Q 708 752 700 698 L 694 662 Q 688 629 681 593 C 675 564 711 556 719 585 Z"/>
  <path id="z35641d11" d="M 647 546 Q 678 552 729 555 Q 739 556 740 565 Q 740 572 719 585 C 701 597 701 597 681 593 Q 675 592 668 590 Q 631 580 598 573 C 569 567 565 538 595 540 L 597 540 L 647 546 Z"/>
  <path id="z35641d12" d="M 505 458 Q 493 462 457 466 Q 445 467 443 463 Q 437 456 447 442 Q 474 402 496 334 Q 502 313 516 301 Q 535 282 538 298 Q 539 307 539 319 L 533 349 Q 520 403 514 426 C 507 455 506 458 505 458 Z"/>
  <path id="z35641d13" d="M 812 382 Q 839 430 867 442 Q 883 458 871 476 Q 856 489 809 517 Q 793 526 771 519 Q 722 500 675 488 L 619 476 Q 562 466 505 458 C 475 454 485 417 514 426 Q 532 433 621 448 L 674 458 Q 707 465 744 472 Q 771 479 782 467 Q 788 457 762 390 C 751 362 797 356 812 382 Z"/>
  <path id="z35641d14" d="M 672 337 Q 735 346 820 352 Q 830 353 831 361 Q 831 368 812 382 C 794 396 791 396 762 390 Q 714 381 672 371 L 623 362 Q 575 355 533 349 C 503 345 509 320 539 319 Q 545 318 552 319 Q 580 326 623 331 L 672 337 Z"/>
  <path id="z35641d15" d="M 670 226 Q 736 238 793 246 Q 818 250 809 264 Q 799 280 771 285 Q 738 288 671 269 L 622 256 Q 561 243 504 230 Q 486 226 508 210 Q 520 201 622 218 L 670 226 Z"/>
  <path id="z35641d16" d="M 668 125 Q 729 137 785 143 Q 810 146 801 160 Q 791 176 764 181 Q 725 187 669 167 L 622 156 Q 555 143 496 130 Q 478 126 499 110 Q 514 100 542 105 Q 582 112 622 118 L 668 125 Z"/>
  <path id="z35641d17" d="M 668 49 Q 668 89 668 125 L 669 167 Q 669 198 670 226 L 671 269 Q 671 303 672 337 L 672 371 Q 673 413 674 452 Q 674 456 674 458 L 675 488 Q 675 522 674 524 Q 661 537 647 546 C 623 564 584 567 597 540 Q 604 524 613 512 Q 617 497 619 476 L 621 448 Q 622 429 623 362 L 623 331 Q 623 298 622 256 L 622 218 Q 622 190 622 156 L 622 118 Q 622 84 622 44 C 622 14 668 19 668 49 Z"/>
  <path id="z35641d18" d="M 622 44 Q 502 31 364 17 Q 345 16 359 -1 Q 372 -14 389 -21 Q 410 -25 425 -22 Q 588 18 910 19 Q 928 19 946 18 Q 965 17 970 26 Q 976 36 960 51 Q 906 90 874 82 Q 796 67 668 49 L 622 44 Z"/>
<defs>
  <clipPath id="z35641c1"><use href="#z35641d1"/></clipPath>
  <clipPath id="z35641c2"><use href="#z35641d2"/></clipPath>
  <clipPath id="z35641c3"><use href="#z35641d3"/></clipPath>
  <clipPath id="z35641c4"><use href="#z35641d4"/></clipPath>
  <clipPath id="z35641c5"><use href="#z35641d5"/></clipPath>
  <clipPath id="z35641c6"><use href="#z35641d6"/></clipPath>
  <clipPath id="z35641c7"><use href="#z35641d7"/></clipPath>
  <clipPath id="z35641c8"><use href="#z35641d8"/></clipPath>
  <clipPath id="z35641c9"><use href="#z35641d9"/></clipPath>
  <clipPath id="z35641c10"><use href="#z35641d10"/></clipPath>
  <clipPath id="z35641c11"><use href="#z35641d11"/></clipPath>
  <clipPath id="z35641c12"><use href="#z35641d12"/></clipPath>
  <clipPath id="z35641c13"><use href="#z35641d13"/></clipPath>
  <clipPath id="z35641c14"><use href="#z35641d14"/></clipPath>
  <clipPath id="z35641c15"><use href="#z35641d15"/></clipPath>
  <clipPath id="z35641c16"><use href="#z35641d16"/></clipPath>
  <clipPath id="z35641c17"><use href="#z35641d17"/></clipPath>
  <clipPath id="z35641c18"><use href="#z35641d18"/></clipPath>
</defs>
<path style="--d:1s;" pathLength="3333" clip-path="url(#z35641c1)" d="M 263 775 L 336 736 L 370 695"/>
<path style="--d:2s;" pathLength="3333" clip-path="url(#z35641c2)" d="M 46 507 L 108 500 L 338 564 L 383 574 L 425 571"/>
<path style="--d:3s;" pathLength="3333" clip-path="url(#z35641c3)" d="M 173 401 L 209 400 L 309 434 L 351 439"/>
<path style="--d:4s;" pathLength="3333" clip-path="url(#z35641c4)" d="M 176 296 L 233 301 L 307 328 L 342 332"/>
<path style="--d:5s;" pathLength="3333" clip-path="url(#z35641c5)" d="M 127 191 L 150 173 L 160 155 L 196 -2"/>
<path style="--d:6s;" pathLength="3333" clip-path="url(#z35641c6)" d="M 170 192 L 191 187 L 278 217 L 308 215 L 329 195 L 310 127 L 286 109"/>
<path style="--d:7s;" pathLength="3333" clip-path="url(#z35641c7)" d="M 213 46 L 224 62 L 277 81 L 340 84"/>
<path style="--d:8s;" pathLength="3333" clip-path="url(#z35641c8)" d="M 435 640 L 490 637 L 630 670 L 840 705 L 878 705 L 925 695"/>
<path style="--d:9s;" pathLength="3333" clip-path="url(#z35641c9)" d="M 516 779 L 536 772 L 558 752 L 585 534"/>
<path style="--d:10s;" pathLength="3333" clip-path="url(#z35641c10)" d="M 716 850 L 750 808 L 706 612 L 689 599"/>
<path style="--d:11s;" pathLength="3333" clip-path="url(#z35641c11)" d="M 596 545 L 622 561 L 679 572 L 730 565"/>
<path style="--d:12s;" pathLength="3333" clip-path="url(#z35641c12)" d="M 452 456 L 484 435 L 527 301"/>
<path style="--d:13s;" pathLength="3333" clip-path="url(#z35641c13)" d="M 516 432 L 528 447 L 607 457 L 756 494 L 790 495 L 803 488 L 823 461 L 797 410 L 770 401"/>
<path style="--d:14s;" pathLength="3333" clip-path="url(#z35641c14)" d="M 541 343 L 552 335 L 765 369 L 803 368 L 821 361"/>
<path style="--d:15s;" pathLength="3333" clip-path="url(#z35641c15)" d="M 506 220 L 607 232 L 745 262 L 774 264 L 798 258"/>
<path style="--d:16s;" pathLength="3333" clip-path="url(#z35641c16)" d="M 497 120 L 532 120 L 724 158 L 767 161 L 790 154"/>
<path style="--d:17s;" pathLength="3333" clip-path="url(#z35641c17)" d="M 604 537 L 640 518 L 647 481 L 646 73 L 629 52"/>
<path style="--d:18s;" pathLength="3333" clip-path="url(#z35641c18)" d="M 362 8 L 382 1 L 417 0 L 574 22 L 883 51 L 908 49 L 959 32"/>
</svg>