<svg id="z30531" class="acjk" viewBox="0 0 1024 1024" xmlns="http://www.w3.org/2000/svg">
<style>
<![CDATA[
@keyframes zk {
	to {
		stroke-dashoffset:0;
	}
}
svg.acjk path[clip-path] {
	--t:0.8s;
	animation:zk var(--t) linear forwards var(--d);
	stroke-dasharray:3337;
	stroke-dashoffset:3339;
	stroke-width:128;
	stroke-linecap:round;
	stroke-linejoin:round;
	fill:none;
	stroke:#000;
}
svg.acjk path[id] {fill:#ccc;}
]]>
</style>
  <path id="z30531d1" d="M 180 672 Q 168 687 140 696 Q 130 700 119 696 Q 112 692 117 679 Q 120 667 125 656 Q 155 601 137 328 Q 133 291 122 243 Q 109 186 145 141 Q 155 128 167 141 Q 180 157 180 180 Q 180 187 181 196 L 182 225 Q 182 237 183 352 L 183 380 Q 184 441 185 485 L 186 514 Q 187 620 189 632 Q 190 639 190 645 C 191 662 191 662 180 672 Z"/>
  <path id="z30531d2" d="M 287 211 Q 297 193 310 176 Q 326 154 333 156 Q 345 159 359 192 Q 369 223 364 317 Q 346 609 368 655 Q 378 673 370 683 Q 363 693 314 708 Q 290 717 274 706 Q 222 682 180 672 C 151 664 161 638 190 645 Q 283 669 294 662 Q 307 649 308 596 Q 314 379 306 259 Q 307 243 300 239 C 291 210 284 216 287 211 Z"/>
  <path id="z30531d3" d="M 185 485 Q 237 494 277 498 Q 296 502 289 513 Q 279 526 257 529 Q 221 532 186 514 C 159 501 155 480 185 485 Z"/>
  <path id="z30531d4" d="M 183 352 Q 235 359 276 362 Q 297 366 289 377 Q 279 390 257 394 Q 217 400 183 380 C 157 365 153 348 183 352 Z"/>
  <path id="z30531d5" d="M 181 196 Q 239 206 287 211 C 317 214 324 222 300 239 Q 293 245 279 247 Q 242 253 182 225 C 155 212 151 191 181 196 Z"/>
  <path id="z30531d6" d="M 732 642 Q 641 633 540 614 Q 530 611 527 614 Q 526 618 530 627 Q 627 759 648 781 Q 660 791 654 803 Q 647 815 600 838 Q 584 845 574 841 Q 562 835 568 815 Q 586 760 497 650 Q 475 626 440 602 Q 425 590 429 579 Q 435 563 459 542 Q 469 532 483 543 Q 523 574 729 615 Q 741 618 750 622 C 778 632 762 645 732 642 Z"/>
  <path id="z30531d7" d="M 750 622 Q 805 562 810 559 Q 817 558 825 566 Q 837 578 827 616 Q 818 667 684 723 Q 677 727 674 717 Q 673 705 682 696 Q 706 672 732 642 L 750 622 Z"/>
  <path id="z30531d8" d="M 486 515 Q 487 442 411 373 Q 392 357 382 345 Q 375 335 386 337 Q 425 337 496 416 Q 512 440 547 478 Q 556 487 546 500 Q 512 530 495 528 Q 485 527 486 515 Z"/>
  <path id="z30531d9" d="M 705 506 Q 745 472 788 432 Q 798 422 812 422 Q 821 422 825 433 Q 829 445 823 469 Q 814 508 702 545 Q 689 549 684 547 Q 680 543 681 533 Q 684 523 705 506 Z"/>
  <path id="z30531d10" d="M 583 353 Q 610 396 610 399 Q 609 408 598 418 Q 570 443 539 439 Q 532 438 533 426 Q 543 387 491 299 Q 440 218 317 107 Q 310 103 319 100 Q 365 100 479 212 Q 494 233 507 246 L 524 269 Q 540 293 563 323 L 583 353 Z"/>
  <path id="z30531d11" d="M 608 150 Q 539 74 396 36 Q 383 32 394 23 Q 400 19 445 21 Q 554 30 640 114 L 672 152 Q 711 207 745 290 Q 758 318 779 335 Q 798 350 786 364 Q 773 376 743 388 Q 719 397 693 384 Q 669 374 639 365 Q 615 359 583 353 C 554 347 533 327 563 323 Q 594 316 635 327 Q 668 342 674 343 Q 696 339 689 317 Q 670 238 634 183 L 608 150 Z"/>
  <path id="z30531d12" d="M 507 246 Q 537 225 608 150 L 640 114 Q 748 -1 789 0 Q 871 1 936 14 Q 970 18 967 28 Q 967 31 803 82 Q 752 98 672 152 L 634 183 Q 604 208 574 237 Q 549 262 524 269 C 496 280 483 264 507 246 Z"/>
<defs>
  <clipPath id="z30531c1"><use href="#z30531d1"/></clipPath>
  <clipPath id="z30531c2"><use href="#z30531d2"/></clipPath>
  <clipPath id="z30531c3"><use href="#z30531d3"/></clipPath>
  <clipPath id="z30531c4"><use href="#z30531d4"/></clipPath>
  <clipPath id="z30531c5"><use href="#z30531d5"/></clipPath>
  <clipPath id="z30531c6"><use href="#z30531d6"/></clipPath>
  <clipPath id="z30531c7"><use href="#z30531d7"/></clipPath>
  <clipPath id="z30531c8"><use href="#z30531d8"/></clipPath>
  <clipPath id="z30531c9"><use href="#z30531d9"/></clipPath>
  <clipPath id="z30531c10"><use href="#z30531d10"/></clipPath>
  <clipPath id="z30531c11"><use href="#z30531d11"/></clipPath>
  <clipPath id="z30531c12"><use href="#z30531d12"/></clipPath>
</defs>
<path style="--d:1s;" pathLength="3333" clip-path="url(#z30531c1)" d="M 126 687 L 151 664 L 162 633 L 166 527 L 161 313 L 150 218 L 156 147"/>
<path style="--d:2s;" pathLength="3333" clip-path="url(#z30531c2)" d="M 188 667 L 203 662 L 293 688 L 332 666 L 338 305 L 336 248 L 327 212 L 332 166"/>
<path style="--d:3s;" pathLength="3333" clip-path="url(#z30531c3)" d="M 193 492 L 201 504 L 212 507 L 249 513 L 280 508"/>
<path style="--d:4s;" pathLength="3333" clip-path="url(#z30531c4)" d="M 191 359 L 199 371 L 234 377 L 280 372"/>
<path style="--d:5s;" pathLength="3333" clip-path="url(#z30531c5)" d="M 188 203 L 198 216 L 292 234"/>
<path style="--d:6s;" pathLength="3333" clip-path="url(#z30531c6)" d="M 581 828 L 608 792 L 605 782 L 561 702 L 500 617 L 494 593 L 544 592 L 684 622 L 727 629 L 743 625"/>
<path style="--d:7s;" pathLength="3333" clip-path="url(#z30531c7)" d="M 683 713 L 740 671 L 793 621 L 813 582 L 813 565"/>
<path style="--d:8s;" pathLength="3333" clip-path="url(#z30531c8)" d="M 499 516 L 514 487 L 490 441 L 450 389 L 390 344"/>
<path style="--d:9s;" pathLength="3333" clip-path="url(#z30531c9)" d="M 688 539 L 783 477 L 811 436"/>
<path style="--d:10s;" pathLength="3333" clip-path="url(#z30531c10)" d="M 547 428 L 568 396 L 550 353 L 503 276 L 442 201 L 354 123 L 322 105"/>
<path style="--d:11s;" pathLength="3333" clip-path="url(#z30531c11)" d="M 570 326 L 680 361 L 711 358 L 730 347 L 715 293 L 684 219 L 656 171 L 618 125 L 570 86 L 520 59 L 435 32 L 399 29"/>
<path style="--d:12s;" pathLength="3333" clip-path="url(#z30531c12)" d="M 515 249 L 535 247 L 667 122 L 735 71 L 779 46 L 871 31 L 964 26"/>
</svg>