<svg id="z31774" class="acjk" viewBox="0 0 1024 1024" xmlns="http://www.w3.org/2000/svg">
<style>
<![CDATA[
@keyframes zk {
	to {
		stroke-dashoffset:0;
	}
}
svg.acjk path[clip-path] {
	--t:0.8s;
	animation:zk var(--t) linear forwards var(--d);
	stroke-dasharray:3337;
	stroke-dashoffset:3339;
	stroke-width:128;
	stroke-linecap:round;
	stroke-linejoin:round;
	fill:none;
	stroke:#000;
}
svg.acjk path[id] {fill:#ccc;}
]]>
</style>
  <path id="z31774d1" d="M 346 774 Q 359 796 375 815 Q 385 825 372 839 Q 338 870 313 867 Q 303 866 304 853 Q 313 766 213 664 Q 189 642 177 627 Q 170 614 183 617 Q 228 621 311 722 Q 314 725 334 756 L 346 774 Z"/>
  <path id="z31774d2" d="M 334 756 Q 364 741 425 752 Q 461 761 503 769 Q 525 773 528 777 Q 535 784 531 791 Q 524 800 501 805 Q 486 808 404 784 Q 376 778 346 774 C 316 770 307 768 334 756 Z"/>
  <path id="z31774d3" d="M 351 699 Q 396 645 417 645 Q 427 645 432 659 Q 433 669 425 685 Q 416 698 397 705 Q 366 718 354 720 Q 347 721 346 712 Q 345 705 351 699 Z"/>
  <path id="z31774d4" d="M 625 802 Q 635 820 647 834 Q 656 844 644 857 Q 608 882 587 880 Q 578 879 580 866 Q 590 799 522 717 Q 506 698 497 686 Q 490 673 502 677 Q 538 681 600 761 Q 609 779 617 789 L 625 802 Z"/>
  <path id="z31774d5" d="M 617 789 Q 626 780 655 772 Q 664 772 825 797 Q 828 798 831 800 Q 838 807 835 814 Q 828 824 803 831 Q 778 835 752 826 Q 727 819 698 812 Q 667 806 632 804 Q 626 804 625 802 C 607 796 607 796 617 789 Z"/>
  <path id="z31774d6" d="M 656 713 Q 681 700 708 681 Q 718 674 729 677 Q 736 678 738 688 Q 739 698 729 717 Q 722 732 697 738 Q 640 748 631 742 Q 628 739 631 731 Q 635 724 656 713 Z"/>
  <path id="z31774d7" d="M 317 588 Q 310 592 280 594 Q 270 595 268 591 Q 264 585 272 574 Q 294 541 314 486 Q 318 470 330 459 Q 346 444 349 457 Q 350 464 349 475 L 344 500 Q 329 552 327 569 C 325 585 325 585 317 588 Z"/>
  <path id="z31774d8" d="M 463 517 Q 476 560 491 575 Q 507 593 490 604 Q 477 611 457 625 Q 444 634 429 625 Q 402 610 317 588 C 288 580 298 560 327 569 Q 367 582 403 589 Q 428 595 434 585 Q 437 582 426 525 C 420 496 454 488 463 517 Z"/>
  <path id="z31774d9" d="M 349 475 Q 356 474 366 477 Q 397 486 468 495 Q 477 496 477 504 Q 477 508 463 517 C 446 528 446 528 426 525 Q 419 524 414 522 Q 374 509 344 500 C 315 491 319 477 349 475 Z"/>
  <path id="z31774d10" d="M 571 620 Q 562 624 536 627 Q 526 628 524 624 Q 520 620 527 607 Q 546 577 561 525 Q 564 510 575 500 Q 590 484 593 497 Q 594 501 594 505 L 592 531 Q 582 582 581 598 C 579 617 579 617 571 620 Z"/>
  <path id="z31774d11" d="M 718 548 Q 734 590 750 602 Q 769 621 751 633 Q 736 643 716 657 Q 701 666 686 658 Q 664 645 634 635 Q 607 628 571 620 C 542 613 552 589 581 598 Q 602 605 663 619 Q 687 625 692 615 L 677 550 C 670 521 707 520 718 548 Z"/>
  <path id="z31774d12" d="M 594 505 Q 600 504 610 506 Q 647 513 730 520 Q 739 521 740 528 Q 740 534 718 548 C 704 557 704 557 677 550 Q 629 538 592 531 C 563 525 564 507 594 505 Z"/>
  <path id="z31774d13" d="M 346 422 Q 336 428 301 431 Q 289 432 287 428 Q 281 421 291 407 Q 322 355 345 268 Q 351 243 368 226 Q 387 207 390 222 Q 391 226 391 229 L 391 252 Q 390 265 386 280 Q 365 359 358 390 C 351 419 351 420 346 422 Z"/>
  <path id="z31774d14" d="M 634 266 Q 634 265 635 263 Q 639 248 652 249 Q 665 250 673 264 Q 683 274 705 330 Q 721 379 758 405 Q 776 420 761 435 Q 745 451 698 479 Q 685 488 610 471 Q 601 471 346 422 C 317 416 330 378 358 390 Q 367 399 466 417 L 519 427 Q 646 451 667 440 Q 674 436 669 410 Q 647 316 638 296 Q 635 292 634 285 L 634 266 Z"/>
  <path id="z31774d15" d="M 536 335 Q 575 344 609 348 Q 628 351 621 362 Q 612 374 591 378 Q 572 379 540 371 L 485 355 Q 449 348 418 338 Q 405 335 421 323 Q 430 316 449 320 Q 467 324 485 326 L 536 335 Z"/>
  <path id="z31774d16" d="M 534 250 Q 585 260 629 266 Q 630 267 634 266 C 661 267 659 269 634 285 Q 609 306 534 282 L 485 272 Q 436 262 391 252 C 362 246 361 230 391 229 Q 398 228 411 230 Q 448 237 485 242 L 534 250 Z"/>
  <path id="z31774d17" d="M 533 146 Q 603 152 896 152 Q 917 152 923 161 Q 929 174 911 189 Q 845 238 800 220 Q 697 204 533 179 L 485 173 Q 319 155 126 135 Q 104 134 120 115 Q 153 82 194 92 Q 336 129 485 141 L 533 146 Z"/>
  <path id="z31774d18" d="M 485 141 Q 485 -52 499 -74 Q 503 -80 510 -78 Q 525 -69 529 -18 Q 532 13 533 146 L 533 179 Q 532 210 534 250 L 534 282 Q 535 306 536 331 Q 536 334 536 335 L 540 371 Q 541 384 544 393 Q 547 409 535 417 Q 526 423 519 427 C 494 443 449 442 466 417 Q 470 411 475 404 Q 484 386 485 355 L 485 326 Q 485 301 485 272 L 485 242 Q 485 211 485 173 L 485 141 Z"/>
<defs>
  <clipPath id="z31774c1"><use href="#z31774d1"/></clipPath>
  <clipPath id="z31774c2"><use href="#z31774d2"/></clipPath>
  <clipPath id="z31774c3"><use href="#z31774d3"/></clipPath>
  <clipPath id="z31774c4"><use href="#z31774d4"/></clipPath>
  <clipPath id="z31774c5"><use href="#z31774d5"/></clipPath>
  <clipPath id="z31774c6"><use href="#z31774d6"/></clipPath>
  <clipPath id="z31774c7"><use href="#z31774d7"/></clipPath>
  <clipPath id="z31774c8"><use href="#z31774d8"/></clipPath>
  <clipPath id="z31774c9"><use href="#z31774d9"/></clipPath>
  <clipPath id="z31774c10"><use href="#z31774d10"/></clipPath>
  <clipPath id="z31774c11"><use href="#z31774d11"/></clipPath>
  <clipPath id="z31774c12"><use href="#z31774d12"/></clipPath>
  <clipPath id="z31774c13"><use href="#z31774d13"/></clipPath>
  <clipPath id="z31774c14"><use href="#z31774d14"/></clipPath>
  <clipPath id="z31774c15"><use href="#z31774d15"/></clipPath>
  <clipPath id="z31774c16"><use href="#z31774d16"/></clipPath>
  <clipPath id="z31774c17"><use href="#z31774d17"/></clipPath>
  <clipPath id="z31774c18"><use href="#z31774d18"/></clipPath>
</defs>
<path style="--d:1s;" pathLength="3333" clip-path="url(#z31774c1)" d="M 314 856 L 338 823 L 310 759 L 290 725 L 251 679 L 186 626"/>
<path style="--d:2s;" pathLength="3333" clip-path="url(#z31774c2)" d="M 341 758 L 413 767 L 497 787 L 521 786"/>
<path style="--d:3s;" pathLength="3333" clip-path="url(#z31774c3)" d="M 357 709 L 401 679 L 416 660"/>
<path style="--d:4s;" pathLength="3333" clip-path="url(#z31774c4)" d="M 592 869 L 612 840 L 601 808 L 546 721 L 505 684"/>
<path style="--d:5s;" pathLength="3333" clip-path="url(#z31774c5)" d="M 626 793 L 659 789 L 795 813 L 824 809"/>
<path style="--d:6s;" pathLength="3333" clip-path="url(#z31774c6)" d="M 636 737 L 705 711 L 723 691"/>
<path style="--d:7s;" pathLength="3333" clip-path="url(#z31774c7)" d="M 276 586 L 305 563 L 340 460"/>
<path style="--d:8s;" pathLength="3333" clip-path="url(#z31774c8)" d="M 328 588 L 334 582 L 422 606 L 443 606 L 463 586 L 449 540 L 459 527"/>
<path style="--d:9s;" pathLength="3333" clip-path="url(#z31774c9)" d="M 353 482 L 367 492 L 411 505 L 469 503"/>
<path style="--d:10s;" pathLength="3333" clip-path="url(#z31774c10)" d="M 532 619 L 560 592 L 584 500"/>
<path style="--d:11s;" pathLength="3333" clip-path="url(#z31774c11)" d="M 579 617 L 587 612 L 603 615 L 689 639 L 709 633 L 722 616 L 704 571 L 684 555"/>
<path style="--d:12s;" pathLength="3333" clip-path="url(#z31774c12)" d="M 598 512 L 607 520 L 673 533 L 710 534 L 732 528"/>
<path style="--d:13s;" pathLength="3333" clip-path="url(#z31774c13)" d="M 296 421 L 325 401 L 332 386 L 379 226"/>
<path style="--d:14s;" pathLength="3333" clip-path="url(#z31774c14)" d="M 357 396 L 367 413 L 391 420 L 405 417 L 418 425 L 451 425 L 466 433 L 625 460 L 686 457 L 712 420 L 651 265"/>
<path style="--d:15s;" pathLength="3333" clip-path="url(#z31774c15)" d="M 427 332 L 576 361 L 613 357"/>
<path style="--d:16s;" pathLength="3333" clip-path="url(#z31774c16)" d="M 395 235 L 426 247 L 566 274 L 617 279 L 632 271"/>
<path style="--d:17s;" pathLength="3333" clip-path="url(#z31774c17)" d="M 123 125 L 183 115 L 406 150 L 822 188 L 873 181 L 911 168"/>
<path style="--d:18s;" pathLength="3333" clip-path="url(#z31774c18)" d="M 474 413 L 512 393 L 507 -69"/>
</svg>