<svg id="z38030" class="acjk" viewBox="0 0 1024 1024" xmlns="http://www.w3.org/2000/svg">
<style>
<![CDATA[
@keyframes zk {
	to {
		stroke-dashoffset:0;
	}
}
svg.acjk path[clip-path] {
	--t:0.8s;
	animation:zk var(--t) linear forwards var(--d);
	stroke-dasharray:3337;
	stroke-dashoffset:3339;
	stroke-width:128;
	stroke-linecap:round;
	stroke-linejoin:round;
	fill:none;
	stroke:#000;
}
svg.acjk path[id] {fill:#ccc;}
]]>
</style>
  <path id="z38030d1" d="M 287 624 Q 344 720 366 740 Q 375 750 370 764 Q 366 777 338 800 Q 311 818 293 818 Q 274 817 282 794 Q 297 763 284 736 Q 221 585 63 394 Q 53 384 50 378 Q 47 368 61 370 Q 73 371 97 394 Q 142 431 195 500 Q 232 543 271 600 L 287 624 Z"/>
  <path id="z38030d2" d="M 271 600 Q 305 588 381 605 Q 409 612 443 621 Q 462 627 465 630 Q 472 637 468 646 Q 461 656 433 660 Q 412 663 337 635 Q 313 629 287 624 C 258 618 242 609 271 600 Z"/>
  <path id="z38030d3" d="M 303 455 Q 349 471 400 486 Q 422 495 426 498 Q 433 507 428 514 Q 421 524 393 527 Q 365 528 339 515 Q 314 503 285 493 Q 254 483 216 475 Q 183 465 209 453 Q 230 446 253 445 L 303 455 Z"/>
  <path id="z38030d4" d="M 323 318 Q 351 328 383 336 Q 417 348 421 353 Q 430 360 424 369 Q 417 379 387 384 Q 342 388 323 369 L 276 351 Q 207 330 150 317 Q 116 308 142 294 Q 184 276 237 293 Q 256 299 278 305 L 323 318 Z"/>
  <path id="z38030d5" d="M 278 305 Q 278 176 242 122 Q 206 86 250 40 L 252 39 Q 265 32 275 47 Q 290 75 426 189 Q 444 202 448 210 Q 452 220 442 220 Q 432 220 327 161 Q 317 155 315 165 Q 322 249 323 318 L 323 369 Q 322 396 326 416 Q 332 435 303 455 C 280 474 241 472 253 445 Q 274 402 276 351 L 278 305 Z"/>
  <path id="z38030d6" d="M 668 633 Q 762 690 811 706 Q 829 710 832 718 Q 835 730 821 740 Q 751 777 716 770 Q 709 764 709 753 Q 710 705 479 565 Q 475 555 482 552 Q 503 552 605 603 Q 615 607 628 613 L 668 633 Z"/>
  <path id="z38030d7" d="M 708 404 Q 780 414 888 418 Q 942 418 949 428 Q 953 441 937 453 Q 874 495 814 472 Q 768 463 708 448 L 654 437 Q 563 422 456 403 Q 434 399 451 383 Q 482 355 529 369 Q 587 387 655 395 L 708 404 Z"/>
  <path id="z38030d8" d="M 661 2 Q 667 -23 674 -33 Q 680 -40 687 -38 Q 702 -29 708 32 Q 715 108 712 185 Q 708 237 708 404 L 708 448 Q 708 526 718 586 Q 721 604 706 614 Q 682 629 668 633 C 640 645 617 641 628 613 Q 646 573 653 514 Q 653 480 654 437 L 655 395 Q 655 49 661 2 Z"/>
<defs>
  <clipPath id="z38030c1"><use href="#z38030d1"/></clipPath>
  <clipPath id="z38030c2"><use href="#z38030d2"/></clipPath>
  <clipPath id="z38030c3"><use href="#z38030d3"/></clipPath>
  <clipPath id="z38030c4"><use href="#z38030d4"/></clipPath>
  <clipPath id="z38030c5"><use href="#z38030d5"/></clipPath>
  <clipPath id="z38030c6"><use href="#z38030d6"/></clipPath>
  <clipPath id="z38030c7"><use href="#z38030d7"/></clipPath>
  <clipPath id="z38030c8"><use href="#z38030d8"/></clipPath>
</defs>
<path style="--d:1s;" pathLength="3333" clip-path="url(#z38030c1)" d="M 293 804 L 317 780 L 328 758 L 283 667 L 228 579 L 155 479 L 82 396 L 58 378"/>
<path style="--d:2s;" pathLength="3333" clip-path="url(#z38030c2)" d="M 278 604 L 415 637 L 457 640"/>
<path style="--d:3s;" pathLength="3333" clip-path="url(#z38030c3)" d="M 210 465 L 268 467 L 365 501 L 418 507"/>
<path style="--d:4s;" pathLength="3333" clip-path="url(#z38030c4)" d="M 143 306 L 194 305 L 348 354 L 416 362"/>
<path style="--d:5s;" pathLength="3333" clip-path="url(#z38030c5)" d="M 260 441 L 295 421 L 298 396 L 301 283 L 288 151 L 293 129 L 332 137 L 442 213"/>
<path style="--d:6s;" pathLength="3333" clip-path="url(#z38030c6)" d="M 820 723 L 745 724 L 664 659 L 533 582 L 507 569 L 493 569 L 484 559"/>
<path style="--d:7s;" pathLength="3333" clip-path="url(#z38030c7)" d="M 454 393 L 490 386 L 515 389 L 592 407 L 853 449 L 889 447 L 940 434"/>
<path style="--d:8s;" pathLength="3333" clip-path="url(#z38030c8)" d="M 638 610 L 670 596 L 679 585 L 683 -29"/>
</svg>