<svg id="z33548" class="acjk" viewBox="0 0 1024 1024" xmlns="http://www.w3.org/2000/svg">
<style>
<![CDATA[
@keyframes zk {
	to {
		stroke-dashoffset:0;
	}
}
svg.acjk path[clip-path] {
	--t:0.8s;
	animation:zk var(--t) linear forwards var(--d);
	stroke-dasharray:3337;
	stroke-dashoffset:3339;
	stroke-width:128;
	stroke-linecap:round;
	stroke-linejoin:round;
	fill:none;
	stroke:#000;
}
svg.acjk path[id] {fill:#ccc;}
]]>
</style>
  <path id="z33548d1" d="M 638 667 Q 719 676 821 669 Q 837 668 843 678 Q 847 690 834 705 Q 783 747 693 727 Q 677 726 660 721 L 598 711 Q 519 701 431 688 L 377 681 Q 296 672 208 663 Q 177 660 199 644 Q 242 611 314 628 Q 350 637 387 643 L 433 651 Q 449 657 586 665 L 638 667 Z"/>
  <path id="z33548d2" d="M 431 688 Q 430 716 429 740 Q 430 762 409 768 Q 367 789 343 781 Q 324 772 340 751 Q 367 720 377 681 L 387 643 Q 399 582 415 564 Q 428 554 434 566 Q 437 578 433 651 L 431 688 Z"/>
  <path id="z33548d3" d="M 660 721 Q 670 743 686 772 Q 702 788 691 799 Q 678 818 641 836 Q 623 846 604 837 Q 594 830 602 818 Q 612 794 598 711 L 586 665 Q 565 592 566 572 Q 567 557 584 569 Q 599 582 638 667 L 660 721 Z"/>
  <path id="z33548d4" d="M 301 341 Q 421 488 423 492 Q 422 496 422 499 Q 419 512 394 536 Q 370 557 352 558 Q 334 558 340 536 Q 350 508 337 485 Q 262 346 113 201 Q 103 192 100 186 Q 96 176 109 177 Q 142 181 273 311 L 301 341 Z"/>
  <path id="z33548d5" d="M 273 311 Q 303 244 272 77 Q 254 26 291 -22 Q 292 -22 294 -25 Q 310 -40 322 -15 Q 335 24 335 67 Q 334 230 339 267 Q 346 292 337 302 Q 321 321 301 341 C 280 362 262 339 273 311 Z"/>
  <path id="z33548d6" d="M 652 306 Q 725 316 832 318 Q 886 318 892 328 Q 898 341 881 354 Q 823 393 760 374 Q 715 364 654 351 L 599 340 Q 505 325 396 307 Q 375 304 391 287 Q 421 260 470 272 Q 528 290 600 299 L 652 306 Z"/>
  <path id="z33548d7" d="M 643 134 Q 647 222 652 306 L 654 351 Q 654 427 673 485 Q 676 497 655 511 Q 618 530 593 535 Q 577 538 568 529 Q 561 522 569 506 Q 593 472 594 449 Q 597 397 599 340 L 600 299 Q 600 217 598 125 C 597 95 642 104 643 134 Z"/>
  <path id="z33548d8" d="M 598 125 Q 528 115 444 102 Q 423 101 439 83 Q 472 55 508 64 Q 592 86 803 87 Q 822 88 828 96 Q 832 108 816 122 Q 756 164 696 145 Q 672 141 643 134 L 598 125 Z"/>
<defs>
  <clipPath id="z33548c1"><use href="#z33548d1"/></clipPath>
  <clipPath id="z33548c2"><use href="#z33548d2"/></clipPath>
  <clipPath id="z33548c3"><use href="#z33548d3"/></clipPath>
  <clipPath id="z33548c4"><use href="#z33548d4"/></clipPath>
  <clipPath id="z33548c5"><use href="#z33548d5"/></clipPath>
  <clipPath id="z33548c6"><use href="#z33548d6"/></clipPath>
  <clipPath id="z33548c7"><use href="#z33548d7"/></clipPath>
  <clipPath id="z33548c8"><use href="#z33548d8"/></clipPath>
</defs>
<path style="--d:1s;" pathLength="3333" clip-path="url(#z33548c1)" d="M 201 655 L 271 645 L 457 674 L 725 703 L 793 698 L 830 684"/>
<path style="--d:2s;" pathLength="3333" clip-path="url(#z33548c2)" d="M 349 765 L 393 736 L 424 570"/>
<path style="--d:3s;" pathLength="3333" clip-path="url(#z33548c3)" d="M 610 827 L 627 817 L 647 784 L 612 665 L 575 572"/>
<path style="--d:4s;" pathLength="3333" clip-path="url(#z33548c4)" d="M 351 544 L 371 522 L 379 495 L 348 443 L 250 316 L 176 240 L 108 185"/>
<path style="--d:5s;" pathLength="3333" clip-path="url(#z33548c5)" d="M 301 331 L 302 304 L 312 285 L 312 199 L 300 42 L 306 -14"/>
<path style="--d:6s;" pathLength="3333" clip-path="url(#z33548c6)" d="M 394 297 L 446 291 L 550 313 L 799 349 L 883 335"/>
<path style="--d:7s;" pathLength="3333" clip-path="url(#z33548c7)" d="M 580 519 L 620 489 L 629 475 L 622 159 L 604 133"/>
<path style="--d:8s;" pathLength="3333" clip-path="url(#z33548c8)" d="M 441 93 L 488 85 L 733 119 L 782 113 L 818 101"/>
</svg>