<svg id="z34473" class="acjk" viewBox="0 0 1024 1024" xmlns="http://www.w3.org/2000/svg">
<style>
<![CDATA[
@keyframes zk {
	to {
		stroke-dashoffset:0;
	}
}
svg.acjk path[clip-path] {
	--t:0.8s;
	animation:zk var(--t) linear forwards var(--d);
	stroke-dasharray:3337;
	stroke-dashoffset:3339;
	stroke-width:128;
	stroke-linecap:round;
	stroke-linejoin:round;
	fill:none;
	stroke:#000;
}
svg.acjk path[id] {fill:#ccc;}
]]>
</style>
  <path id="z34473d1" d="M 520 574 Q 596 599 652 594 C 682 593 687 631 657 628 Q 585 621 522 608 L 475 599 Q 405 586 348 568 Q 332 567 337 583 Q 356 661 348 678 Q 317 717 295 714 Q 285 711 291 693 Q 304 650 295 610 Q 288 571 270 555 Q 252 540 258 527 Q 268 512 283 502 Q 292 498 310 506 Q 331 527 475 564 L 520 574 Z"/>
  <path id="z34473d2" d="M 652 594 Q 652 593 653 591 Q 660 563 671 543 Q 680 528 691 540 Q 715 565 714 647 Q 723 689 730 701 Q 737 717 726 729 Q 707 744 674 760 Q 661 767 650 760 Q 643 756 646 743 Q 677 712 657 628 L 652 594 Z"/>
  <path id="z34473d3" d="M 512 474 Q 516 526 520 574 L 522 608 Q 531 734 544 773 Q 548 783 529 798 Q 495 816 473 819 Q 457 823 450 815 Q 443 808 451 793 Q 470 765 471 746 Q 475 676 475 599 L 475 564 Q 474 519 473 470 C 472 440 510 444 512 474 Z"/>
  <path id="z34473d4" d="M 494 441 Q 593 453 900 452 Q 922 452 927 461 Q 933 474 915 489 Q 854 535 787 517 Q 679 498 512 474 L 473 470 Q 308 452 118 432 Q 96 429 112 411 Q 145 378 186 388 Q 306 421 448 435 L 494 441 Z"/>
  <path id="z34473d5" d="M 303 314 Q 276 320 273 313 Q 266 307 276 291 Q 301 245 321 169 Q 325 145 339 131 Q 358 109 363 126 Q 366 135 365 147 L 361 177 Q 348 252 345 277 C 341 306 332 308 303 314 Z"/>
  <path id="z34473d6" d="M 670 215 Q 700 269 729 284 Q 747 300 734 319 Q 719 334 671 362 Q 655 372 632 365 Q 574 346 521 333 L 465 324 Q 345 309 303 314 C 273 316 315 272 345 277 Q 394 286 465 297 L 520 306 Q 559 313 599 319 Q 630 326 641 313 Q 647 306 643 291 Q 630 252 617 221 C 606 193 655 189 670 215 Z"/>
  <path id="z34473d7" d="M 514 168 Q 584 178 680 184 Q 690 185 691 193 Q 691 200 670 215 C 653 228 646 227 617 221 Q 563 211 515 200 L 464 191 Q 409 184 361 177 C 331 173 335 148 365 147 Q 369 146 380 147 Q 414 154 464 161 L 514 168 Z"/>
  <path id="z34473d8" d="M 508 69 Q 511 121 514 168 L 515 200 Q 516 257 520 306 L 521 333 Q 522 345 523 355 Q 524 374 525 387 Q 532 406 523 416 Q 508 432 494 441 C 470 459 437 463 448 435 Q 464 402 465 324 L 465 297 Q 465 257 464 191 L 464 161 Q 463 118 462 61 C 461 31 506 39 508 69 Z"/>
  <path id="z34473d9" d="M 633 90 Q 572 81 508 69 L 462 61 Q 383 51 296 37 Q 271 33 230 39 Q 217 39 213 29 Q 209 16 217 6 Q 238 -13 269 -38 Q 279 -42 292 -36 Q 350 -8 600 53 Q 625 60 649 69 C 677 79 663 94 633 90 Z"/>
  <path id="z34473d10" d="M 649 69 Q 689 17 731 -45 Q 740 -61 755 -64 Q 765 -65 773 -55 Q 780 -42 780 -13 Q 781 24 739 66 Q 639 147 620 143 Q 616 140 613 128 Q 614 118 633 91 L 633 90 L 649 69 Z"/>
<defs>
  <clipPath id="z34473c1"><use href="#z34473d1"/></clipPath>
  <clipPath id="z34473c2"><use href="#z34473d2"/></clipPath>
  <clipPath id="z34473c3"><use href="#z34473d3"/></clipPath>
  <clipPath id="z34473c4"><use href="#z34473d4"/></clipPath>
  <clipPath id="z34473c5"><use href="#z34473d5"/></clipPath>
  <clipPath id="z34473c6"><use href="#z34473d6"/></clipPath>
  <clipPath id="z34473c7"><use href="#z34473d7"/></clipPath>
  <clipPath id="z34473c8"><use href="#z34473d8"/></clipPath>
  <clipPath id="z34473c9"><use href="#z34473d9"/></clipPath>
  <clipPath id="z34473c10"><use href="#z34473d10"/></clipPath>
</defs>
<path style="--d:1s;" pathLength="3333" clip-path="url(#z34473c1)" d="M 299 704 L 323 669 L 325 655 L 310 548 L 356 549 L 470 582 L 639 611 L 649 623"/>
<path style="--d:2s;" pathLength="3333" clip-path="url(#z34473c2)" d="M 659 749 L 696 709 L 682 597 L 682 546"/>
<path style="--d:3s;" pathLength="3333" clip-path="url(#z34473c3)" d="M 461 806 L 504 769 L 494 498 L 479 478"/>
<path style="--d:4s;" pathLength="3333" clip-path="url(#z34473c4)" d="M 116 421 L 154 411 L 174 412 L 409 448 L 813 487 L 857 485 L 915 468"/>
<path style="--d:5s;" pathLength="3333" clip-path="url(#z34473c5)" d="M 281 306 L 291 301 L 320 260 L 351 131"/>
<path style="--d:6s;" pathLength="3333" clip-path="url(#z34473c6)" d="M 316 310 L 361 296 L 644 342 L 665 332 L 686 304 L 653 242 L 624 225"/>
<path style="--d:7s;" pathLength="3333" clip-path="url(#z34473c7)" d="M 369 170 L 379 163 L 613 200 L 662 200 L 681 193"/>
<path style="--d:8s;" pathLength="3333" clip-path="url(#z34473c8)" d="M 456 433 L 486 411 L 493 399 L 486 89 L 469 69"/>
<path style="--d:9s;" pathLength="3333" clip-path="url(#z34473c9)" d="M 228 23 L 281 0 L 612 73 L 641 71"/>
<path style="--d:10s;" pathLength="3333" clip-path="url(#z34473c10)" d="M 622 137 L 728 23 L 747 -9 L 756 -44"/>
</svg>