<svg id="z39134" class="acjk" viewBox="0 0 1024 1024" xmlns="http://www.w3.org/2000/svg">
<style>
<![CDATA[
@keyframes zk {
	to {
		stroke-dashoffset:0;
	}
}
svg.acjk path[clip-path] {
	--t:0.8s;
	animation:zk var(--t) linear forwards var(--d);
	stroke-dasharray:3337;
	stroke-dashoffset:3339;
	stroke-width:128;
	stroke-linecap:round;
	stroke-linejoin:round;
	fill:none;
	stroke:#000;
}
svg.acjk path[id] {fill:#ccc;}
]]>
</style>
  <path id="z39134d1" d="M 592 394 Q 583 580 664 643 Q 680 653 677 668 Q 673 681 606 709 Q 584 719 563 704 Q 487 659 369 628 Q 236 594 131 583 Q 106 582 121 564 Q 134 549 162 539 Q 189 529 220 545 Q 302 579 538 643 Q 562 650 559 626 Q 513 337 596 169 Q 612 136 635 111 Q 681 56 756 21 Q 814 -7 872 -5 Q 921 -4 948 14 Q 961 20 955 41 Q 931 102 914 187 Q 908 214 900 189 Q 875 86 864 75 Q 849 60 826 69 Q 688 96 629 227 Q 604 284 595 364 L 592 394 Z"/>
  <path id="z39134d2" d="M 719 548 Q 707 526 627 428 Q 617 409 635 413 Q 695 449 766 500 Q 785 518 812 529 Q 834 539 823 559 Q 808 578 780 593 Q 755 608 740 605 Q 727 604 731 588 Q 735 569 719 548 Z"/>
  <path id="z39134d3" d="M 595 364 Q 677 318 776 245 Q 795 229 810 227 Q 819 228 824 239 Q 834 254 813 294 Q 788 354 592 394 C 563 400 569 379 595 364 Z"/>
<defs>
  <clipPath id="z39134c1"><use href="#z39134d1"/></clipPath>
  <clipPath id="z39134c2"><use href="#z39134d2"/></clipPath>
  <clipPath id="z39134c3"><use href="#z39134d3"/></clipPath>
</defs>
<path style="--d:1s;" pathLength="3333" clip-path="url(#z39134c1)" d="M 126 574 L 175 562 L 203 565 L 421 625 L 531 664 L 589 669 L 604 654 L 571 519 L 567 400 L 577 311 L 590 257 L 631 164 L 690 97 L 736 66 L 803 39 L 852 31 L 902 46 L 905 176"/>
<path style="--d:2s;" pathLength="3333" clip-path="url(#z39134c2)" d="M 740 594 L 760 573 L 768 553 L 741 521 L 631 420"/>
<path style="--d:3s;" pathLength="3333" clip-path="url(#z39134c3)" d="M 603 388 L 609 374 L 681 345 L 757 303 L 791 272 L 808 242"/>
</svg>