<svg id="z39032" class="acjk" viewBox="0 0 1024 1024" xmlns="http://www.w3.org/2000/svg">
<style>
<![CDATA[
@keyframes zk {
	to {
		stroke-dashoffset:0;
	}
}
svg.acjk path[clip-path] {
	--t:0.8s;
	animation:zk var(--t) linear forwards var(--d);
	stroke-dasharray:3337;
	stroke-dashoffset:3339;
	stroke-width:128;
	stroke-linecap:round;
	stroke-linejoin:round;
	fill:none;
	stroke:#000;
}
svg.acjk path[id] {fill:#ccc;}
]]>
</style>
  <path id="z39032d1" d="M 306 669 Q 361 682 420 692 Q 454 699 459 705 Q 468 712 463 721 Q 456 731 428 739 Q 403 745 322 719 Q 202 698 189 696 Q 153 690 179 674 Q 209 656 259 659 L 306 669 Z"/>
  <path id="z39032d2" d="M 336 469 Q 391 482 461 491 Q 477 494 478 501 Q 479 514 461 522 Q 428 537 337 511 L 289 500 Q 174 478 89 466 Q 76 465 73 457 Q 70 447 85 435 Q 124 408 165 422 Q 235 446 289 458 L 336 469 Z"/>
  <path id="z39032d3" d="M 269 140 Q 259 104 282 48 Q 289 32 296 29 Q 302 23 308 30 Q 315 34 325 54 Q 334 76 333 105 Q 332 141 336 469 L 337 511 Q 340 566 352 607 Q 359 620 357 634 Q 351 641 306 669 C 281 685 244 685 259 659 Q 286 620 287 551 Q 287 527 289 500 L 289 458 Q 288 358 286 250 Q 283 193 269 140 Z"/>
  <path id="z39032d4" d="M 654 710 Q 831 740 837 745 Q 847 752 842 760 Q 836 772 808 781 Q 784 787 683 760 Q 569 742 523 739 Q 487 735 512 717 Q 545 693 620 705 L 654 710 Z"/>
  <path id="z39032d5" d="M 608 578 Q 671 662 673 664 Q 686 674 679 683 Q 672 696 654 710 C 631 729 616 735 620 705 Q 626 681 590 596 Q 583 584 581 574 C 574 545 590 554 608 578 Z"/>
  <path id="z39032d6" d="M 535 571 Q 522 580 505 584 Q 498 585 491 578 Q 488 572 495 563 Q 531 476 507 313 Q 494 256 497 242 Q 507 211 517 199 Q 527 187 537 200 Q 559 227 560 382 Q 561 461 565 542 C 566 553 561 556 535 571 Z"/>
  <path id="z39032d7" d="M 754 257 Q 747 235 760 213 Q 773 185 782 186 Q 795 187 811 219 Q 826 244 824 264 Q 797 487 836 548 Q 846 564 839 574 Q 811 598 765 618 Q 749 624 726 615 Q 686 596 635 584 Q 622 583 608 578 L 581 574 Q 556 573 535 571 C 505 569 535 538 565 542 Q 569 542 576 543 Q 727 577 747 566 Q 757 544 762 481 Q 763 292 754 257 Z"/>
  <path id="z39032d8" d="M 643 437 Q 646 206 587 115 Q 571 96 547 76 Q 516 51 446 20 Q 433 16 430 13 Q 426 9 440 5 Q 492 1 601 59 Q 616 71 630 87 Q 684 153 691 342 Q 695 426 709 466 Q 713 476 706 483 Q 688 499 656 512 Q 637 521 620 515 Q 602 508 617 492 Q 642 465 643 437 Z"/>
  <path id="z39032d9" d="M 710 121 Q 762 75 824 6 Q 840 -13 856 -18 Q 866 -19 873 -9 Q 886 4 872 49 Q 862 89 787 123 Q 738 144 710 152 Q 701 158 699 145 Q 699 132 710 121 Z"/>
<defs>
  <clipPath id="z39032c1"><use href="#z39032d1"/></clipPath>
  <clipPath id="z39032c2"><use href="#z39032d2"/></clipPath>
  <clipPath id="z39032c3"><use href="#z39032d3"/></clipPath>
  <clipPath id="z39032c4"><use href="#z39032d4"/></clipPath>
  <clipPath id="z39032c5"><use href="#z39032d5"/></clipPath>
  <clipPath id="z39032c6"><use href="#z39032d6"/></clipPath>
  <clipPath id="z39032c7"><use href="#z39032d7"/></clipPath>
  <clipPath id="z39032c8"><use href="#z39032d8"/></clipPath>
  <clipPath id="z39032c9"><use href="#z39032d9"/></clipPath>
</defs>
<path style="--d:1s;" pathLength="3333" clip-path="url(#z39032c1)" d="M 181 686 L 212 680 L 260 683 L 393 713 L 453 715"/>
<path style="--d:2s;" pathLength="3333" clip-path="url(#z39032c2)" d="M 84 453 L 112 446 L 151 447 L 373 500 L 443 508 L 468 504"/>
<path style="--d:3s;" pathLength="3333" clip-path="url(#z39032c3)" d="M 266 655 L 303 637 L 317 610 L 311 248 L 299 116 L 301 42"/>
<path style="--d:4s;" pathLength="3333" clip-path="url(#z39032c4)" d="M 515 729 L 545 722 L 589 723 L 665 732 L 787 758 L 831 755"/>
<path style="--d:5s;" pathLength="3333" clip-path="url(#z39032c5)" d="M 626 702 L 647 676 L 608 596 L 587 578"/>
<path style="--d:6s;" pathLength="3333" clip-path="url(#z39032c6)" d="M 502 573 L 532 538 L 539 492 L 539 370 L 524 248 L 527 204"/>
<path style="--d:7s;" pathLength="3333" clip-path="url(#z39032c7)" d="M 542 569 L 587 557 L 749 594 L 773 581 L 791 560 L 791 297 L 783 197"/>
<path style="--d:8s;" pathLength="3333" clip-path="url(#z39032c8)" d="M 622 503 L 664 476 L 673 457 L 664 291 L 639 164 L 612 106 L 580 74 L 516 36 L 436 10"/>
<path style="--d:9s;" pathLength="3333" clip-path="url(#z39032c9)" d="M 709 141 L 818 65 L 845 31 L 858 -1"/>
</svg>