<svg id="z38082" class="acjk" viewBox="0 0 1024 1024" xmlns="http://www.w3.org/2000/svg">
<style>
<![CDATA[
@keyframes zk {
	to {
		stroke-dashoffset:0;
	}
}
svg.acjk path[clip-path] {
	--t:0.8s;
	animation:zk var(--t) linear forwards var(--d);
	stroke-dasharray:3337;
	stroke-dashoffset:3339;
	stroke-width:128;
	stroke-linecap:round;
	stroke-linejoin:round;
	fill:none;
	stroke:#000;
}
svg.acjk path[id] {fill:#ccc;}
]]>
</style>
  <path id="z38082d1" d="M 214 464 Q 260 524 311 603 L 326 628 Q 336 644 347 662 Q 375 720 403 747 Q 413 757 408 772 Q 404 785 374 807 Q 346 826 327 825 Q 308 824 317 801 Q 333 764 319 732 Q 276 627 211 529 Q 148 435 62 331 Q 52 321 50 315 Q 47 303 61 306 Q 97 310 201 447 L 214 464 Z"/>
  <path id="z38082d2" d="M 311 603 Q 353 585 401 599 Q 438 606 476 614 Q 492 618 496 621 Q 503 628 499 637 Q 492 647 464 654 Q 449 657 369 636 Q 348 632 326 628 C 296 623 283 614 311 603 Z"/>
  <path id="z38082d3" d="M 317 448 Q 437 493 439 493 Q 446 502 441 509 Q 432 519 403 523 Q 373 524 346 509 Q 319 496 289 485 Q 256 475 216 465 Q 215 465 214 464 C 189 456 189 456 201 447 Q 217 431 278 435 L 317 448 Z"/>
  <path id="z38082d4" d="M 345 303 Q 378 315 415 325 Q 455 338 461 345 Q 468 352 464 361 Q 457 371 427 376 Q 396 379 345 354 L 301 336 Q 199 306 154 297 Q 120 288 146 274 Q 189 255 241 272 Q 269 281 303 290 L 345 303 Z"/>
  <path id="z38082d5" d="M 303 290 Q 303 145 273 96 Q 240 48 278 10 Q 290 3 300 18 Q 316 46 460 167 Q 476 179 480 187 Q 484 196 475 195 Q 463 195 348 127 Q 339 121 338 131 Q 345 225 345 303 L 345 354 Q 344 384 349 406 Q 355 427 317 448 C 292 464 266 463 278 435 Q 299 390 301 336 L 303 290 Z"/>
  <path id="z38082d6" d="M 612 495 Q 705 649 736 681 Q 745 696 759 707 Q 778 726 760 740 Q 739 753 706 758 Q 675 764 663 756 Q 650 749 660 737 Q 675 707 617 560 Q 602 527 589 492 Q 588 492 588 491 C 576 464 596 469 612 495 Z"/>
  <path id="z38082d7" d="M 571 488 Q 562 497 541 504 Q 531 508 520 504 Q 513 500 519 487 Q 537 432 540 316 Q 534 186 527 159 Q 514 105 549 61 Q 559 48 570 61 Q 580 76 582 93 L 585 128 Q 585 206 585 286 L 586 314 Q 587 432 588 443 Q 589 452 589 457 C 590 474 590 474 571 488 Z"/>
  <path id="z38082d8" d="M 778 109 Q 809 69 831 33 Q 841 14 852 15 Q 870 16 886 52 Q 905 92 901 141 Q 892 241 885 429 Q 884 460 901 483 Q 910 496 900 507 Q 881 526 828 550 Q 809 560 794 550 Q 754 532 612 495 L 588 491 Q 579 490 571 488 C 541 483 560 451 589 457 Q 619 463 773 500 Q 800 506 813 496 Q 843 466 825 143 Q 821 124 801 133 Q 797 134 793 137 C 764 144 760 133 778 109 Z"/>
  <path id="z38082d9" d="M 585 286 Q 616 277 706 292 Q 731 298 760 302 Q 782 306 787 310 Q 794 317 791 325 Q 784 335 758 343 Q 730 347 703 337 Q 676 330 648 323 Q 620 317 586 314 C 556 311 556 293 585 286 Z"/>
  <path id="z38082d10" d="M 582 93 Q 586 93 591 93 Q 652 105 778 109 C 808 110 815 117 793 137 Q 786 144 778 149 Q 762 159 731 152 Q 649 136 585 128 C 555 124 552 93 582 93 Z"/>
<defs>
  <clipPath id="z38082c1"><use href="#z38082d1"/></clipPath>
  <clipPath id="z38082c2"><use href="#z38082d2"/></clipPath>
  <clipPath id="z38082c3"><use href="#z38082d3"/></clipPath>
  <clipPath id="z38082c4"><use href="#z38082d4"/></clipPath>
  <clipPath id="z38082c5"><use href="#z38082d5"/></clipPath>
  <clipPath id="z38082c6"><use href="#z38082d6"/></clipPath>
  <clipPath id="z38082c7"><use href="#z38082d7"/></clipPath>
  <clipPath id="z38082c8"><use href="#z38082d8"/></clipPath>
  <clipPath id="z38082c9"><use href="#z38082d9"/></clipPath>
  <clipPath id="z38082c10"><use href="#z38082d10"/></clipPath>
</defs>
<path style="--d:1s;" pathLength="3333" clip-path="url(#z38082c1)" d="M 327 811 L 344 797 L 365 764 L 321 670 L 279 594 L 180 447 L 94 344 L 59 315"/>
<path style="--d:2s;" pathLength="3333" clip-path="url(#z38082c2)" d="M 320 606 L 460 633 L 487 631"/>
<path style="--d:3s;" pathLength="3333" clip-path="url(#z38082c3)" d="M 208 448 L 266 455 L 396 501 L 436 500"/>
<path style="--d:4s;" pathLength="3333" clip-path="url(#z38082c4)" d="M 147 286 L 172 283 L 227 291 L 391 346 L 453 355"/>
<path style="--d:5s;" pathLength="3333" clip-path="url(#z38082c5)" d="M 287 431 L 314 418 L 320 405 L 324 252 L 312 122 L 318 96 L 352 103 L 474 189"/>
<path style="--d:6s;" pathLength="3333" clip-path="url(#z38082c6)" d="M 666 746 L 693 730 L 705 709 L 622 532 L 605 503 L 594 498"/>
<path style="--d:7s;" pathLength="3333" clip-path="url(#z38082c7)" d="M 527 495 L 551 470 L 559 443 L 564 327 L 554 124 L 560 66"/>
<path style="--d:8s;" pathLength="3333" clip-path="url(#z38082c8)" d="M 576 484 L 598 476 L 614 478 L 813 527 L 839 512 L 859 490 L 863 131 L 849 94 L 813 104 L 793 128"/>
<path style="--d:9s;" pathLength="3333" clip-path="url(#z38082c9)" d="M 591 293 L 727 320 L 780 320"/>
<path style="--d:10s;" pathLength="3333" clip-path="url(#z38082c10)" d="M 587 98 L 601 112 L 621 116 L 783 133"/>
</svg>