<svg id="z38660" class="acjk" viewBox="0 0 1024 1024" xmlns="http://www.w3.org/2000/svg">
<style>
<![CDATA[
@keyframes zk {
	to {
		stroke-dashoffset:0;
	}
}
svg.acjk path[clip-path] {
	--t:0.8s;
	animation:zk var(--t) linear forwards var(--d);
	stroke-dasharray:3337;
	stroke-dashoffset:3339;
	stroke-width:128;
	stroke-linecap:round;
	stroke-linejoin:round;
	fill:none;
	stroke:#000;
}
svg.acjk path[id] {fill:#ccc;}
]]>
</style>
  <path id="z38660d1" d="M 513 779 Q 670 809 674 810 Q 681 817 678 825 Q 672 835 646 844 Q 622 850 538 827 Q 457 809 390 805 Q 356 801 379 785 Q 418 760 468 772 Q 469 773 473 772 L 513 779 Z"/>
  <path id="z38660d2" d="M 255 677 Q 246 693 238 700 Q 219 713 217 688 Q 221 658 179 601 Q 134 558 163 495 Q 178 468 198 496 Q 217 521 230 562 Q 248 611 260 639 Q 261 643 262 648 C 265 661 265 661 255 677 Z"/>
  <path id="z38660d3" d="M 532 685 Q 733 718 779 708 Q 795 698 793 689 Q 793 688 769 622 Q 762 609 769 605 Q 776 601 792 613 Q 844 647 886 659 Q 920 669 920 677 Q 919 687 848 738 Q 827 754 750 742 Q 573 720 533 713 L 486 707 Q 434 701 378 692 Q 320 683 260 678 Q 256 678 255 677 C 225 674 233 657 262 648 Q 284 636 321 644 Q 423 672 488 678 L 532 685 Z"/>
  <path id="z38660d4" d="M 488 678 Q 488 626 479 565 Q 470 538 497 506 Q 504 496 514 506 Q 532 540 531 573 Q 530 598 532 677 Q 532 681 532 685 L 533 713 Q 534 728 538 742 Q 544 761 526 771 Q 519 775 513 779 C 488 795 464 801 473 772 Q 473 771 474 768 Q 484 741 486 707 L 488 678 Z"/>
  <path id="z38660d5" d="M 341 600 Q 404 575 420 580 Q 430 584 428 598 Q 424 607 412 617 Q 399 624 379 623 Q 348 623 335 619 Q 328 618 331 609 Q 332 603 341 600 Z"/>
  <path id="z38660d6" d="M 333 529 Q 390 487 407 491 Q 417 492 418 506 Q 417 516 407 529 Q 397 539 376 543 Q 345 550 332 549 Q 325 549 327 540 Q 327 534 333 529 Z"/>
  <path id="z38660d7" d="M 596 643 Q 671 607 688 613 Q 698 616 697 630 Q 694 640 682 650 Q 667 662 644 662 Q 607 665 591 662 Q 584 661 587 653 Q 588 647 596 643 Z"/>
  <path id="z38660d8" d="M 592 570 Q 659 531 679 537 Q 689 540 689 555 Q 686 565 674 577 Q 647 598 588 591 Q 581 590 583 581 Q 584 574 592 570 Z"/>
  <path id="z38660d9" d="M 519 342 Q 534 438 541 457 Q 544 466 529 477 Q 501 493 483 496 Q 470 499 464 492 Q 458 486 464 475 Q 480 454 484 335 C 485 305 514 312 519 342 Z"/>
  <path id="z38660d10" d="M 344 415 Q 366 397 389 375 Q 399 366 410 366 Q 417 367 422 376 Q 425 388 418 409 Q 414 424 390 435 Q 333 456 324 450 Q 320 447 321 438 Q 324 431 344 415 Z"/>
  <path id="z38660d11" d="M 658 480 Q 627 450 570 407 Q 563 403 567 395 Q 573 392 580 395 Q 671 437 715 450 Q 731 451 729 461 Q 728 474 714 494 Q 702 513 683 518 Q 671 519 668 504 Q 668 492 658 480 Z"/>
  <path id="z38660d12" d="M 383 120 Q 387 169 392 203 L 393 215 Q 399 272 403 290 Q 403 294 403 297 C 404 311 404 311 395 321 Q 380 342 343 343 Q 330 340 335 328 Q 371 241 323 82 Q 302 33 304 24 Q 304 -3 320 -26 Q 326 -39 336 -34 Q 379 -10 380 98 Q 380 101 381 102 L 383 120 Z"/>
  <path id="z38660d13" d="M 403 297 Q 415 297 431 301 Q 588 331 612 320 Q 625 314 627 285 Q 643 153 641 50 Q 641 29 629 25 Q 619 21 561 30 Q 549 31 550 24 Q 551 17 567 9 Q 603 -19 631 -49 Q 647 -64 662 -62 Q 675 -58 691 -19 Q 710 21 706 61 Q 696 158 687 246 Q 683 282 697 310 Q 709 325 694 338 Q 678 354 640 367 Q 624 376 562 352 Q 543 349 519 342 L 484 335 Q 426 326 395 321 C 365 316 373 293 403 297 Z"/>
  <path id="z38660d14" d="M 392 203 Q 401 194 466 202 Q 521 211 567 217 Q 589 221 581 233 Q 571 246 547 251 Q 526 254 395 216 Q 394 216 393 215 C 379 210 379 210 392 203 Z"/>
  <path id="z38660d15" d="M 381 102 L 382 102 Q 392 95 412 97 Q 509 110 582 118 Q 604 119 597 133 Q 587 146 563 152 Q 547 155 383 120 C 354 114 354 114 381 102 Z"/>
<defs>
  <clipPath id="z38660c1"><use href="#z38660d1"/></clipPath>
  <clipPath id="z38660c2"><use href="#z38660d2"/></clipPath>
  <clipPath id="z38660c3"><use href="#z38660d3"/></clipPath>
  <clipPath id="z38660c4"><use href="#z38660d4"/></clipPath>
  <clipPath id="z38660c5"><use href="#z38660d5"/></clipPath>
  <clipPath id="z38660c6"><use href="#z38660d6"/></clipPath>
  <clipPath id="z38660c7"><use href="#z38660d7"/></clipPath>
  <clipPath id="z38660c8"><use href="#z38660d8"/></clipPath>
  <clipPath id="z38660c9"><use href="#z38660d9"/></clipPath>
  <clipPath id="z38660c10"><use href="#z38660d10"/></clipPath>
  <clipPath id="z38660c11"><use href="#z38660d11"/></clipPath>
  <clipPath id="z38660c12"><use href="#z38660d12"/></clipPath>
  <clipPath id="z38660c13"><use href="#z38660d13"/></clipPath>
  <clipPath id="z38660c14"><use href="#z38660d14"/></clipPath>
  <clipPath id="z38660c15"><use href="#z38660d15"/></clipPath>
</defs>
<path style="--d:1s;" pathLength="3333" clip-path="url(#z38660c1)" d="M 382 796 L 430 788 L 523 800 L 623 823 L 671 819"/>
<path style="--d:2s;" pathLength="3333" clip-path="url(#z38660c2)" d="M 228 692 L 236 675 L 236 649 L 187 548 L 179 499"/>
<path style="--d:3s;" pathLength="3333" clip-path="url(#z38660c3)" d="M 259 670 L 277 661 L 309 662 L 435 687 L 693 723 L 782 728 L 821 713 L 837 688 L 774 612"/>
<path style="--d:4s;" pathLength="3333" clip-path="url(#z38660c4)" d="M 480 772 L 510 747 L 511 667 L 502 538 L 506 511"/>
<path style="--d:5s;" pathLength="3333" clip-path="url(#z38660c5)" d="M 341 611 L 394 603 L 415 592"/>
<path style="--d:6s;" pathLength="3333" clip-path="url(#z38660c6)" d="M 337 540 L 386 519 L 405 504"/>
<path style="--d:7s;" pathLength="3333" clip-path="url(#z38660c7)" d="M 597 654 L 666 636 L 683 626"/>
<path style="--d:8s;" pathLength="3333" clip-path="url(#z38660c8)" d="M 595 581 L 641 569 L 674 551"/>
<path style="--d:9s;" pathLength="3333" clip-path="url(#z38660c9)" d="M 474 484 L 506 449 L 503 359 L 488 348"/>
<path style="--d:10s;" pathLength="3333" clip-path="url(#z38660c10)" d="M 329 442 L 395 403 L 408 381"/>
<path style="--d:11s;" pathLength="3333" clip-path="url(#z38660c11)" d="M 682 504 L 691 474 L 574 400"/>
<path style="--d:12s;" pathLength="3333" clip-path="url(#z38660c12)" d="M 343 333 L 368 312 L 375 265 L 361 130 L 331 -24"/>
<path style="--d:13s;" pathLength="3333" clip-path="url(#z38660c13)" d="M 401 316 L 421 311 L 466 317 L 600 344 L 629 342 L 659 318 L 657 262 L 674 66 L 670 22 L 651 -10 L 557 24"/>
<path style="--d:14s;" pathLength="3333" clip-path="url(#z38660c14)" d="M 397 209 L 540 232 L 571 227"/>
<path style="--d:15s;" pathLength="3333" clip-path="url(#z38660c15)" d="M 382 107 L 557 134 L 587 128"/>
</svg>