<svg id="z39638" class="acjk" viewBox="0 0 1024 1024" xmlns="http://www.w3.org/2000/svg">
<style>
<![CDATA[
@keyframes zk {
	to {
		stroke-dashoffset:0;
	}
}
svg.acjk path[clip-path] {
	--t:0.8s;
	animation:zk var(--t) linear forwards var(--d);
	stroke-dasharray:3337;
	stroke-dashoffset:3339;
	stroke-width:128;
	stroke-linecap:round;
	stroke-linejoin:round;
	fill:none;
	stroke:#000;
}
svg.acjk path[id] {fill:#ccc;}
]]>
</style>
  <path id="z39638d1" d="M 176 720 Q 160 733 139 739 Q 127 743 121 738 Q 114 732 120 721 Q 136 693 144 661 Q 150 630 164 503 C 167 473 197 480 195 510 Q 188 631 188 699 C 188 711 188 711 176 720 Z"/>
  <path id="z39638d2" d="M 367 547 Q 374 679 409 719 Q 419 735 407 748 Q 346 788 299 758 Q 253 742 176 720 C 147 712 160 688 188 699 Q 188 700 191 701 Q 323 737 330 732 Q 345 720 341 668 L 339 641 Q 332 586 324 538 C 319 508 365 517 367 547 Z"/>
  <path id="z39638d3" d="M 265 525 Q 269 571 272 614 Q 272 621 274 628 Q 274 629 275 629 C 281 644 281 644 272 652 Q 260 664 235 667 Q 226 668 222 664 Q 218 660 223 652 Q 238 636 241 520 C 242 490 262 495 265 525 Z"/>
  <path id="z39638d4" d="M 275 629 Q 296 635 339 641 C 369 645 370 659 341 668 Q 329 674 272 652 C 244 641 246 621 275 629 Z"/>
  <path id="z39638d5" d="M 106 490 Q 94 506 86 512 Q 70 522 70 501 Q 77 471 40 421 Q 27 399 53 362 Q 69 346 78 366 Q 88 385 95 412 Q 102 446 108 466 C 113 482 113 482 106 490 Z"/>
  <path id="z39638d6" d="M 108 466 Q 123 462 171 475 Q 246 505 348 517 Q 367 521 375 520 Q 390 516 388 506 Q 388 503 372 453 Q 366 443 371 440 Q 378 439 389 448 Q 425 476 455 488 Q 480 497 479 504 Q 478 511 424 545 Q 403 560 367 547 L 324 538 Q 311 537 299 533 Q 283 530 265 525 L 241 520 Q 219 517 195 510 L 164 503 Q 133 497 106 490 C 77 483 78 468 108 466 Z"/>
  <path id="z39638d7" d="M 188 206 Q 191 243 194 271 L 197 301 Q 201 352 205 370 Q 205 373 205 374 C 208 394 208 394 196 401 Q 195 404 191 405 Q 166 418 150 419 Q 138 415 143 405 Q 183 296 133 113 Q 109 56 111 49 Q 111 21 126 1 Q 130 -12 141 -7 Q 174 17 186 174 L 188 206 Z"/>
  <path id="z39638d8" d="M 205 374 Q 224 378 279 395 Q 292 399 300 392 Q 307 385 307 363 Q 314 183 308 76 Q 307 54 301 45 Q 298 42 253 46 Q 237 53 237 44 Q 273 5 292 -21 Q 302 -37 316 -42 Q 323 -45 331 -37 Q 364 2 365 63 Q 344 345 364 381 Q 374 397 364 406 Q 345 422 315 434 Q 299 441 287 435 Q 251 413 196 401 C 167 394 176 367 205 374 Z"/>
  <path id="z39638d9" d="M 194 271 Q 237 280 271 287 Q 290 291 282 302 Q 272 312 250 314 Q 231 315 197 301 C 169 290 165 265 194 271 Z"/>
  <path id="z39638d10" d="M 186 174 Q 232 183 266 189 Q 287 195 278 205 Q 268 217 244 219 Q 223 220 188 206 C 160 195 157 168 186 174 Z"/>
  <path id="z39638d11" d="M 616 805 Q 661 760 676 760 Q 685 761 689 773 Q 693 786 685 811 Q 681 824 658 834 Q 606 852 592 847 Q 588 843 589 832 Q 592 822 616 805 Z"/>
  <path id="z39638d12" d="M 490 700 Q 480 721 463 734 Q 460 737 455 734 Q 451 731 450 722 Q 451 694 431 646 Q 422 633 423 617 Q 426 601 433 589 Q 440 580 444 587 Q 450 587 457 601 Q 460 605 467 626 Q 485 675 488 679 C 494 691 494 691 490 700 Z"/>
  <path id="z39638d13" d="M 488 679 Q 512 667 547 675 Q 641 711 780 727 Q 802 731 812 729 Q 825 726 823 719 Q 823 716 802 668 Q 793 655 799 652 Q 806 649 822 658 Q 867 680 903 686 Q 931 690 932 698 Q 931 708 870 754 Q 849 773 784 758 Q 757 755 565 715 L 491 701 Q 490 701 490 700 C 461 693 460 689 488 679 Z"/>
  <path id="z39638d14" d="M 609 595 Q 609 610 609 622 Q 610 635 598 639 Q 574 654 558 650 Q 545 646 554 631 Q 569 612 575 587 L 580 561 Q 583 525 595 508 Q 602 501 606 508 Q 609 514 609 574 L 609 595 Z"/>
  <path id="z39638d15" d="M 609 574 Q 639 581 636 595 Q 635 599 625 599 Q 616 598 609 595 L 575 587 Q 526 578 475 569 Q 468 568 467 565 Q 466 559 471 554 Q 481 544 501 539 Q 514 533 525 538 Q 550 550 580 561 L 609 574 Z"/>
  <path id="z39638d16" d="M 713 609 Q 722 642 730 653 Q 739 663 731 670 Q 722 680 699 689 Q 689 695 677 688 Q 670 684 676 677 Q 689 653 669 551 Q 665 536 667 526 Q 668 519 678 524 Q 687 533 704 583 L 713 609 Z"/>
  <path id="z39638d17" d="M 704 583 Q 719 579 770 586 Q 806 586 822 583 Q 832 582 836 589 Q 839 596 830 605 Q 797 632 729 612 Q 720 612 713 609 C 685 599 675 589 704 583 Z"/>
  <path id="z39638d18" d="M 542 470 Q 539 471 536 474 Q 514 487 504 482 Q 500 479 503 470 Q 503 467 507 460 Q 526 418 512 279 Q 487 242 523 199 L 524 197 C 539 177 539 177 545 204 Q 545 205 546 205 C 550 207 550 207 550 233 Q 550 242 551 296 L 551 317 Q 551 345 552 365 L 552 386 Q 553 434 554 438 Q 554 442 554 444 C 555 462 555 462 542 470 Z"/>
  <path id="z39638d19" d="M 719 227 Q 729 203 738 203 Q 750 204 763 229 Q 773 247 774 282 Q 762 414 788 453 Q 797 466 791 474 Q 769 493 729 511 Q 716 515 697 509 Q 645 485 542 470 C 512 465 525 435 554 444 Q 569 451 689 475 Q 708 479 714 469 Q 732 445 719 276 Q 716 266 713 254 L 719 227 Z"/>
  <path id="z39638d20" d="M 552 365 Q 556 365 564 366 Q 625 379 671 389 Q 689 393 681 402 Q 672 412 652 415 Q 630 416 552 386 C 524 375 522 364 552 365 Z"/>
  <path id="z39638d21" d="M 551 296 Q 554 296 562 297 Q 631 310 682 317 Q 700 321 693 330 Q 684 342 665 345 Q 634 348 551 317 C 523 307 521 294 551 296 Z"/>
  <path id="z39638d22" d="M 667 221 Q 689 225 719 227 C 744 229 736 235 713 254 Q 712 255 708 258 Q 695 265 670 258 Q 604 242 550 233 C 520 228 516 207 546 205 Q 553 204 562 206 Q 589 213 634 217 L 667 221 Z"/>
  <path id="z39638d23" d="M 524 197 Q 524 104 391 -20 Q 385 -24 385 -29 Q 384 -33 389 -33 Q 440 -33 554 109 Q 554 116 580 143 Q 587 150 581 163 Q 565 199 545 204 C 525 213 525 213 524 197 Z"/>
  <path id="z39638d24" d="M 634 217 Q 634 213 636 207 Q 646 173 644 141 Q 638 33 647 3 Q 651 -18 670 -35 Q 731 -92 885 -67 Q 892 -64 901 -63 Q 935 -53 969 -29 Q 987 -14 973 10 Q 961 29 941 92 Q 940 105 933 110 Q 927 113 924 97 Q 905 27 890 6 Q 868 -22 777 -20 Q 743 -19 717 -7 Q 695 5 688 20 Q 670 59 693 183 Q 699 208 667 221 C 641 236 628 244 634 217 Z"/>
  <path id="z39638d25" d="M 757 125 Q 770 107 786 85 Q 796 72 810 71 Q 819 70 825 81 Q 831 93 827 120 Q 826 133 804 147 Q 750 174 740 171 Q 736 168 735 157 Q 736 147 757 125 Z"/>
<defs>
  <clipPath id="z39638c1"><use href="#z39638d1"/></clipPath>
  <clipPath id="z39638c2"><use href="#z39638d2"/></clipPath>
  <clipPath id="z39638c3"><use href="#z39638d3"/></clipPath>
  <clipPath id="z39638c4"><use href="#z39638d4"/></clipPath>
  <clipPath id="z39638c5"><use href="#z39638d5"/></clipPath>
  <clipPath id="z39638c6"><use href="#z39638d6"/></clipPath>
  <clipPath id="z39638c7"><use href="#z39638d7"/></clipPath>
  <clipPath id="z39638c8"><use href="#z39638d8"/></clipPath>
  <clipPath id="z39638c9"><use href="#z39638d9"/></clipPath>
  <clipPath id="z39638c10"><use href="#z39638d10"/></clipPath>
  <clipPath id="z39638c11"><use href="#z39638d11"/></clipPath>
  <clipPath id="z39638c12"><use href="#z39638d12"/></clipPath>
  <clipPath id="z39638c13"><use href="#z39638d13"/></clipPath>
  <clipPath id="z39638c14"><use href="#z39638d14"/></clipPath>
  <clipPath id="z39638c15"><use href="#z39638d15"/></clipPath>
  <clipPath id="z39638c16"><use href="#z39638d16"/></clipPath>
  <clipPath id="z39638c17"><use href="#z39638d17"/></clipPath>
  <clipPath id="z39638c18"><use href="#z39638d18"/></clipPath>
  <clipPath id="z39638c19"><use href="#z39638d19"/></clipPath>
  <clipPath id="z39638c20"><use href="#z39638d20"/></clipPath>
  <clipPath id="z39638c21"><use href="#z39638d21"/></clipPath>
  <clipPath id="z39638c22"><use href="#z39638d22"/></clipPath>
  <clipPath id="z39638c23"><use href="#z39638d23"/></clipPath>
  <clipPath id="z39638c24"><use href="#z39638d24"/></clipPath>
  <clipPath id="z39638c25"><use href="#z39638d25"/></clipPath>
</defs>
<path style="--d:1s;" pathLength="3333" clip-path="url(#z39638c1)" d="M 128 730 L 149 712 L 164 681 L 178 524 L 169 516"/>
<path style="--d:2s;" pathLength="3333" clip-path="url(#z39638c2)" d="M 186 705 L 219 722 L 229 720 L 325 751 L 348 748 L 369 732 L 349 564 L 330 544"/>
<path style="--d:3s;" pathLength="3333" clip-path="url(#z39638c3)" d="M 230 659 L 249 644 L 253 633 L 254 549 L 245 532"/>
<path style="--d:4s;" pathLength="3333" clip-path="url(#z39638c4)" d="M 278 635 L 287 646 L 325 653 L 336 662"/>
<path style="--d:5s;" pathLength="3333" clip-path="url(#z39638c5)" d="M 79 506 L 89 487 L 88 470 L 64 402 L 65 368"/>
<path style="--d:6s;" pathLength="3333" clip-path="url(#z39638c6)" d="M 113 472 L 130 482 L 221 506 L 379 536 L 408 526 L 421 508 L 374 446"/>
<path style="--d:7s;" pathLength="3333" clip-path="url(#z39638c7)" d="M 154 408 L 175 385 L 179 372 L 180 312 L 167 163 L 138 44 L 136 2"/>
<path style="--d:8s;" pathLength="3333" clip-path="url(#z39638c8)" d="M 205 397 L 217 391 L 298 416 L 313 411 L 335 390 L 331 296 L 338 75 L 332 40 L 316 10 L 245 41"/>
<path style="--d:9s;" pathLength="3333" clip-path="url(#z39638c9)" d="M 201 278 L 211 291 L 224 295 L 274 296"/>
<path style="--d:10s;" pathLength="3333" clip-path="url(#z39638c10)" d="M 193 179 L 198 189 L 217 198 L 249 203 L 269 199"/>
<path style="--d:11s;" pathLength="3333" clip-path="url(#z39638c11)" d="M 597 838 L 659 802 L 675 772"/>
<path style="--d:12s;" pathLength="3333" clip-path="url(#z39638c12)" d="M 459 725 L 469 697 L 441 600"/>
<path style="--d:13s;" pathLength="3333" clip-path="url(#z39638c13)" d="M 497 683 L 504 689 L 536 690 L 653 722 L 815 747 L 850 732 L 860 713 L 804 657"/>
<path style="--d:14s;" pathLength="3333" clip-path="url(#z39638c14)" d="M 561 640 L 587 620 L 601 512"/>
<path style="--d:15s;" pathLength="3333" clip-path="url(#z39638c15)" d="M 474 561 L 524 558 L 629 592"/>
<path style="--d:16s;" pathLength="3333" clip-path="url(#z39638c16)" d="M 685 682 L 705 659 L 674 531"/>
<path style="--d:17s;" pathLength="3333" clip-path="url(#z39638c17)" d="M 709 589 L 724 597 L 774 604 L 826 593"/>
<path style="--d:18s;" pathLength="3333" clip-path="url(#z39638c18)" d="M 509 476 L 524 462 L 534 438 L 533 284 L 526 254 L 529 201"/>
<path style="--d:19s;" pathLength="3333" clip-path="url(#z39638c19)" d="M 554 452 L 573 465 L 650 477 L 707 494 L 727 488 L 749 467 L 753 460 L 747 275 L 738 214"/>
<path style="--d:20s;" pathLength="3333" clip-path="url(#z39638c20)" d="M 558 370 L 566 381 L 642 399 L 674 397"/>
<path style="--d:21s;" pathLength="3333" clip-path="url(#z39638c21)" d="M 556 301 L 565 311 L 643 328 L 685 325"/>
<path style="--d:22s;" pathLength="3333" clip-path="url(#z39638c22)" d="M 550 212 L 573 224 L 681 242 L 698 243 L 711 232"/>
<path style="--d:23s;" pathLength="3333" clip-path="url(#z39638c23)" d="M 532 191 L 544 182 L 550 155 L 529 113 L 464 30 L 414 -15 L 391 -27"/>
<path style="--d:24s;" pathLength="3333" clip-path="url(#z39638c24)" d="M 640 213 L 667 190 L 660 87 L 667 12 L 690 -20 L 717 -35 L 780 -48 L 831 -46 L 870 -41 L 919 -17 L 933 -1 L 930 102"/>
<path style="--d:25s;" pathLength="3333" clip-path="url(#z39638c25)" d="M 743 162 L 794 121 L 811 86"/>
</svg>