<svg id="z32010" class="acjk" viewBox="0 0 1024 1024" xmlns="http://www.w3.org/2000/svg">
<style>
<![CDATA[
@keyframes zk {
	to {
		stroke-dashoffset:0;
	}
}
svg.acjk path[clip-path] {
	--t:0.8s;
	animation:zk var(--t) linear forwards var(--d);
	stroke-dasharray:3337;
	stroke-dashoffset:3339;
	stroke-width:128;
	stroke-linecap:round;
	stroke-linejoin:round;
	fill:none;
	stroke:#000;
}
svg.acjk path[id] {fill:#ccc;}
]]>
</style>
  <path id="z32010d1" d="M 463 819 Q 490 801 518 779 Q 531 769 545 771 Q 554 772 557 784 Q 560 797 549 822 Q 537 849 454 860 Q 441 861 436 859 Q 432 855 434 844 Q 438 834 463 819 Z"/>
  <path id="z32010d2" d="M 607 725 Q 686 731 751 736 Q 761 735 771 746 Q 772 758 751 769 Q 718 793 643 774 Q 477 744 258 728 Q 230 727 250 708 Q 278 680 325 688 Q 433 706 573 720 L 607 725 Z"/>
  <path id="z32010d3" d="M 463 524 Q 485 540 512 562 L 539 586 Q 584 631 626 660 Q 636 666 636 677 Q 636 683 607 725 C 590 750 585 748 573 720 Q 554 668 499 612 L 474 590 Q 371 512 236 468 Q 190 455 126 439 Q 117 436 121 431 Q 127 425 138 425 Q 322 422 441 510 Q 441 511 443 511 L 463 524 Z"/>
  <path id="z32010d4" d="M 512 562 Q 618 478 738 417 Q 783 402 936 446 Q 946 450 949 459 Q 950 466 932 467 Q 875 476 813 480 Q 698 493 539 586 L 499 612 Q 412 679 348 663 Q 339 659 344 651 Q 350 644 360 643 Q 402 643 474 590 L 512 562 Z"/>
  <path id="z32010d5" d="M 486 351 Q 435 358 395 364 Q 374 367 387 377 Q 439 420 484 448 Q 500 458 500 466 Q 501 478 477 512 Q 470 522 463 524 C 447 535 447 535 443 511 Q 443 481 373 410 Q 357 395 332 383 Q 313 374 313 364 Q 313 348 321 330 Q 328 320 339 323 Q 369 333 463 333 C 493 333 516 347 486 351 Z"/>
  <path id="z32010d6" d="M 523 241 Q 575 253 630 260 Q 631 261 634 260 C 664 263 652 277 622 275 Q 526 269 412 249 Q 403 248 410 253 Q 453 287 552 353 Q 586 378 612 390 Q 625 396 623 406 Q 619 425 595 449 Q 583 462 574 461 Q 564 461 563 447 Q 553 410 486 351 L 463 333 Q 358 254 338 247 Q 325 243 324 230 Q 323 218 342 196 Q 349 184 363 192 Q 424 219 484 232 L 523 241 Z"/>
  <path id="z32010d7" d="M 634 260 Q 674 212 684 209 Q 691 208 698 217 Q 702 227 701 249 Q 698 285 608 331 Q 598 335 592 334 Q 588 333 587 323 Q 587 316 622 275 L 634 260 Z"/>
  <path id="z32010d8" d="M 484 232 Q 494 198 494 92 Q 493 56 488 48 Q 485 35 459 37 Q 438 40 415 43 Q 405 43 403 37 Q 402 30 412 22 Q 470 -26 489 -53 Q 502 -66 512 -63 Q 524 -59 535 -26 Q 551 7 548 67 Q 547 140 548 167 Q 555 207 539 227 Q 530 236 523 241 C 500 260 477 261 484 232 Z"/>
  <path id="z32010d9" d="M 323 150 Q 292 111 255 80 Q 230 56 236 19 Q 239 0 262 7 Q 313 26 333 90 Q 346 118 345 144 Q 344 153 338 155 Q 329 156 323 150 Z"/>
  <path id="z32010d10" d="M 640 137 Q 685 94 739 31 Q 754 12 769 6 Q 778 5 785 15 Q 798 28 786 71 Q 777 111 710 141 Q 667 160 642 168 Q 633 172 631 161 Q 630 148 640 137 Z"/>
<defs>
  <clipPath id="z32010c1"><use href="#z32010d1"/></clipPath>
  <clipPath id="z32010c2"><use href="#z32010d2"/></clipPath>
  <clipPath id="z32010c3"><use href="#z32010d3"/></clipPath>
  <clipPath id="z32010c4"><use href="#z32010d4"/></clipPath>
  <clipPath id="z32010c5"><use href="#z32010d5"/></clipPath>
  <clipPath id="z32010c6"><use href="#z32010d6"/></clipPath>
  <clipPath id="z32010c7"><use href="#z32010d7"/></clipPath>
  <clipPath id="z32010c8"><use href="#z32010d8"/></clipPath>
  <clipPath id="z32010c9"><use href="#z32010d9"/></clipPath>
  <clipPath id="z32010c10"><use href="#z32010d10"/></clipPath>
</defs>
<path style="--d:1s;" pathLength="3333" clip-path="url(#z32010c1)" d="M 441 851 L 509 820 L 543 785"/>
<path style="--d:2s;" pathLength="3333" clip-path="url(#z32010c2)" d="M 252 719 L 277 710 L 314 709 L 677 756 L 706 758 L 761 749"/>
<path style="--d:3s;" pathLength="3333" clip-path="url(#z32010c3)" d="M 580 710 L 593 694 L 595 681 L 561 642 L 479 564 L 410 517 L 334 479 L 278 459 L 147 432 L 127 433"/>
<path style="--d:4s;" pathLength="3333" clip-path="url(#z32010c4)" d="M 353 655 L 381 654 L 435 636 L 595 528 L 751 453 L 806 448 L 942 458"/>
<path style="--d:5s;" pathLength="3333" clip-path="url(#z32010c5)" d="M 462 514 L 462 470 L 370 385 L 360 360 L 392 347 L 444 346 L 452 341 L 477 350"/>
<path style="--d:6s;" pathLength="3333" clip-path="url(#z32010c6)" d="M 575 449 L 584 413 L 486 327 L 395 263 L 383 235 L 410 230 L 545 258 L 602 266 L 622 262"/>
<path style="--d:7s;" pathLength="3333" clip-path="url(#z32010c7)" d="M 595 326 L 670 257 L 686 218"/>
<path style="--d:8s;" pathLength="3333" clip-path="url(#z32010c8)" d="M 491 229 L 516 211 L 521 192 L 521 77 L 514 25 L 499 1 L 411 35"/>
<path style="--d:9s;" pathLength="3333" clip-path="url(#z32010c9)" d="M 333 144 L 306 90 L 253 21"/>
<path style="--d:10s;" pathLength="3333" clip-path="url(#z32010c10)" d="M 642 156 L 731 92 L 753 66 L 770 21"/>
</svg>