<svg id="z32874" class="acjk" viewBox="0 0 1024 1024" xmlns="http://www.w3.org/2000/svg">
<style>
<![CDATA[
@keyframes zk {
	to {
		stroke-dashoffset:0;
	}
}
svg.acjk path[clip-path] {
	--t:0.8s;
	animation:zk var(--t) linear forwards var(--d);
	stroke-dasharray:3337;
	stroke-dashoffset:3339;
	stroke-width:128;
	stroke-linecap:round;
	stroke-linejoin:round;
	fill:none;
	stroke:#000;
}
svg.acjk path[id] {fill:#ccc;}
]]>
</style>
  <path id="z32874d1" d="M 386 710 Q 432 717 471 724 Q 481 723 490 735 Q 490 745 469 755 Q 433 774 335 743 Q 274 731 127 703 Q 100 699 122 683 Q 150 664 173 664 L 205 672 Q 271 688 353 704 L 386 710 Z"/>
  <path id="z32874d2" d="M 173 664 Q 192 615 194 599 Q 194 497 192 265 C 192 235 232 249 233 279 Q 234 337 236 391 L 236 424 Q 237 470 239 511 L 240 546 Q 241 565 242 584 Q 243 605 244 619 Q 251 637 242 646 Q 223 664 205 672 C 178 686 162 692 173 664 Z"/>
  <path id="z32874d3" d="M 407 342 Q 408 460 408 585 Q 407 667 410 680 Q 413 690 404 698 Q 397 704 386 710 C 361 727 345 733 353 704 Q 371 677 362 326 L 361 286 Q 361 162 351 65 Q 348 26 372 -6 Q 384 -19 393 -3 Q 418 45 411 88 Q 408 130 407 308 L 407 342 Z"/>
  <path id="z32874d4" d="M 239 511 Q 285 524 322 532 Q 344 538 334 549 Q 322 562 298 562 Q 276 562 240 546 C 213 534 210 503 239 511 Z"/>
  <path id="z32874d5" d="M 236 391 Q 287 404 326 412 Q 348 418 338 429 Q 326 442 302 443 Q 256 443 236 424 C 213 404 207 384 236 391 Z"/>
  <path id="z32874d6" d="M 407 308 Q 408 309 413 311 Q 477 341 478 361 Q 472 367 459 363 Q 432 353 407 342 L 362 326 Q 299 304 233 279 L 192 265 Q 164 258 140 248 Q 118 241 80 239 Q 67 238 65 226 Q 64 211 73 203 Q 98 187 135 168 Q 147 165 159 175 Q 198 208 361 286 L 407 308 Z"/>
  <path id="z32874d7" d="M 523 687 Q 569 600 592 593 Q 605 589 616 606 Q 620 618 615 640 Q 608 661 585 677 Q 549 705 533 713 Q 524 717 521 705 Q 517 698 523 687 Z"/>
  <path id="z32874d8" d="M 732 745 Q 722 712 667 606 Q 663 588 677 595 Q 693 613 781 714 Q 794 733 814 748 Q 830 763 817 776 Q 801 789 774 796 Q 749 803 738 797 Q 726 793 733 782 Q 740 766 732 745 Z"/>
  <path id="z32874d9" d="M 545 514 Q 535 520 505 525 Q 495 528 491 523 Q 484 517 493 502 Q 517 451 532 368 Q 533 343 549 327 Q 565 306 570 321 Q 574 331 574 346 L 571 379 Q 559 455 557 483 C 555 509 555 509 545 514 Z"/>
  <path id="z32874d10" d="M 775 400 Q 803 470 835 488 Q 851 506 838 523 Q 768 580 716 555 Q 644 530 545 514 C 515 509 527 478 557 483 Q 581 486 721 514 Q 739 518 746 511 Q 753 504 750 488 Q 740 443 726 407 C 716 379 763 372 775 400 Z"/>
  <path id="z32874d11" d="M 574 346 Q 584 345 595 346 Q 656 359 787 366 Q 797 367 799 376 Q 799 383 775 400 L 726 407 Q 725 408 723 407 Q 638 388 571 379 C 541 375 544 348 574 346 Z"/>
  <path id="z32874d12" d="M 487 250 Q 471 199 446 153 Q 434 123 449 94 Q 456 79 474 92 Q 516 131 513 202 Q 514 230 507 252 Q 503 259 497 259 Q 490 258 487 250 Z"/>
  <path id="z32874d13" d="M 551 208 Q 596 91 726 51 Q 732 50 740 47 Q 861 11 914 51 Q 933 66 908 87 Q 859 136 804 221 Q 801 227 795 225 Q 791 221 794 209 Q 822 115 810 99 Q 803 93 752 99 Q 691 108 654 131 Q 614 156 564 220 Q 558 230 551 225 Q 547 221 551 208 Z"/>
  <path id="z32874d14" d="M 626 282 Q 680 210 702 206 Q 715 205 721 221 Q 724 233 716 252 Q 707 270 684 281 Q 647 303 632 307 Q 623 308 622 298 Q 621 291 626 282 Z"/>
  <path id="z32874d15" d="M 804 305 Q 850 263 907 203 Q 920 187 935 182 Q 942 181 949 190 Q 959 202 948 240 Q 936 291 804 332 Q 797 336 795 325 Q 794 313 804 305 Z"/>
<defs>
  <clipPath id="z32874c1"><use href="#z32874d1"/></clipPath>
  <clipPath id="z32874c2"><use href="#z32874d2"/></clipPath>
  <clipPath id="z32874c3"><use href="#z32874d3"/></clipPath>
  <clipPath id="z32874c4"><use href="#z32874d4"/></clipPath>
  <clipPath id="z32874c5"><use href="#z32874d5"/></clipPath>
  <clipPath id="z32874c6"><use href="#z32874d6"/></clipPath>
  <clipPath id="z32874c7"><use href="#z32874d7"/></clipPath>
  <clipPath id="z32874c8"><use href="#z32874d8"/></clipPath>
  <clipPath id="z32874c9"><use href="#z32874d9"/></clipPath>
  <clipPath id="z32874c10"><use href="#z32874d10"/></clipPath>
  <clipPath id="z32874c11"><use href="#z32874d11"/></clipPath>
  <clipPath id="z32874c12"><use href="#z32874d12"/></clipPath>
  <clipPath id="z32874c13"><use href="#z32874d13"/></clipPath>
  <clipPath id="z32874c14"><use href="#z32874d14"/></clipPath>
  <clipPath id="z32874c15"><use href="#z32874d15"/></clipPath>
</defs>
<path style="--d:1s;" pathLength="3333" clip-path="url(#z32874c1)" d="M 122 694 L 169 687 L 419 739 L 480 736"/>
<path style="--d:2s;" pathLength="3333" clip-path="url(#z32874c2)" d="M 181 656 L 209 641 L 219 604 L 213 301 L 208 285 L 196 276"/>
<path style="--d:3s;" pathLength="3333" clip-path="url(#z32874c3)" d="M 360 701 L 385 681 L 388 598 L 382 0"/>
<path style="--d:4s;" pathLength="3333" clip-path="url(#z32874c4)" d="M 246 517 L 251 528 L 270 539 L 304 546 L 326 542"/>
<path style="--d:5s;" pathLength="3333" clip-path="url(#z32874c5)" d="M 243 397 L 248 408 L 268 420 L 307 426 L 330 422"/>
<path style="--d:6s;" pathLength="3333" clip-path="url(#z32874c6)" d="M 80 224 L 140 209 L 417 328 L 472 359"/>
<path style="--d:7s;" pathLength="3333" clip-path="url(#z32874c7)" d="M 532 701 L 587 635 L 597 610"/>
<path style="--d:8s;" pathLength="3333" clip-path="url(#z32874c8)" d="M 746 786 L 771 756 L 674 602"/>
<path style="--d:9s;" pathLength="3333" clip-path="url(#z32874c9)" d="M 499 515 L 525 494 L 532 476 L 560 326"/>
<path style="--d:10s;" pathLength="3333" clip-path="url(#z32874c10)" d="M 555 512 L 567 501 L 581 503 L 740 539 L 771 529 L 792 506 L 759 427 L 733 411"/>
<path style="--d:11s;" pathLength="3333" clip-path="url(#z32874c11)" d="M 579 352 L 594 365 L 719 384 L 766 383 L 790 375"/>
<path style="--d:12s;" pathLength="3333" clip-path="url(#z32874c12)" d="M 497 249 L 490 191 L 462 100"/>
<path style="--d:13s;" pathLength="3333" clip-path="url(#z32874c13)" d="M 556 220 L 598 154 L 653 107 L 725 77 L 814 64 L 852 78 L 844 115 L 811 193 L 802 198 L 804 210 L 798 220"/>
<path style="--d:14s;" pathLength="3333" clip-path="url(#z32874c14)" d="M 633 296 L 686 250 L 704 221"/>
<path style="--d:15s;" pathLength="3333" clip-path="url(#z32874c15)" d="M 805 321 L 907 249 L 936 196"/>
</svg>