<svg id="z35370" class="acjk" viewBox="0 0 1024 1024" xmlns="http://www.w3.org/2000/svg">
<style>
<![CDATA[
@keyframes zk {
	to {
		stroke-dashoffset:0;
	}
}
svg.acjk path[clip-path] {
	--t:0.8s;
	animation:zk var(--t) linear forwards var(--d);
	stroke-dasharray:3337;
	stroke-dashoffset:3339;
	stroke-width:128;
	stroke-linecap:round;
	stroke-linejoin:round;
	fill:none;
	stroke:#000;
}
svg.acjk path[id] {fill:#ccc;}
]]>
</style>
  <path id="z35370d1" d="M 349 773 Q 374 751 401 726 Q 416 713 432 714 Q 444 714 449 729 Q 453 745 443 775 Q 433 802 343 823 Q 327 826 320 823 Q 314 819 317 805 Q 321 795 349 773 Z"/>
  <path id="z35370d2" d="M 84 580 Q 71 579 68 570 Q 65 560 81 548 Q 121 521 165 536 Q 297 587 441 609 Q 457 613 458 620 Q 459 633 440 642 Q 412 654 389 647 Q 179 593 84 580 Z"/>
  <path id="z35370d3" d="M 238 475 Q 222 469 244 455 Q 251 451 269 454 Q 348 473 408 485 Q 432 492 422 504 Q 409 519 382 521 Q 364 522 238 475 Z"/>
  <path id="z35370d4" d="M 229 359 Q 213 353 236 340 Q 243 336 261 340 Q 339 362 397 377 Q 421 384 410 396 Q 397 409 370 411 Q 345 411 303 394 Q 264 375 229 359 Z"/>
  <path id="z35370d5" d="M 216 263 Q 204 269 177 272 Q 167 275 163 270 Q 157 264 165 249 Q 193 189 212 92 Q 216 62 233 43 Q 249 22 254 37 Q 261 59 254 101 L 252 109 L 246 140 Q 231 216 230 238 C 228 258 228 258 216 263 Z"/>
  <path id="z35370d6" d="M 383 158 Q 402 225 422 245 Q 443 269 421 282 Q 403 292 378 309 Q 362 318 316 293 Q 277 277 216 263 C 187 256 201 232 230 238 Q 237 239 249 242 Q 289 252 322 261 Q 344 267 351 258 Q 355 254 336 166 C 330 137 375 129 383 158 Z"/>
  <path id="z35370d7" d="M 252 109 Q 259 108 268 111 Q 307 121 390 131 Q 400 132 401 141 Q 401 148 383 158 L 336 166 Q 332 166 328 164 Q 282 149 246 140 C 217 133 222 110 252 109 Z"/>
  <path id="z35370d8" d="M 636 746 Q 661 721 688 692 Q 704 676 724 676 Q 737 676 744 693 Q 751 711 740 748 Q 734 769 701 785 Q 620 815 604 808 Q 597 804 599 787 Q 603 774 636 746 Z"/>
  <path id="z35370d9" d="M 679 538 Q 742 553 940 571 Q 958 572 962 581 Q 966 591 950 603 Q 898 634 840 615 Q 723 585 469 529 Q 451 525 466 511 Q 479 501 496 497 Q 515 493 529 499 Q 572 515 625 526 L 679 538 Z"/>
  <path id="z35370d10" d="M 663 417 Q 678 410 718 408 Q 757 405 759 369 Q 759 360 757 343 Q 741 199 687 110 Q 668 91 659 86 Q 643 83 600 104 Q 563 123 558 118 Q 551 109 569 95 Q 615 53 624 11 Q 630 -7 642 -13 Q 655 -20 690 3 Q 723 28 741 64 Q 769 131 794 250 Q 812 346 838 370 Q 850 377 851 386 Q 852 396 825 420 Q 786 453 736 444 Q 714 444 678 449 C 648 453 634 425 663 417 Z"/>
  <path id="z35370d11" d="M 678 449 Q 693 485 704 498 Q 710 504 707 513 Q 701 532 679 538 C 651 550 619 555 625 526 Q 646 457 546 298 Q 543 295 542 292 Q 512 249 436 159 Q 429 153 439 152 Q 493 164 588 288 Q 648 390 663 417 L 678 449 Z"/>
<defs>
  <clipPath id="z35370c1"><use href="#z35370d1"/></clipPath>
  <clipPath id="z35370c2"><use href="#z35370d2"/></clipPath>
  <clipPath id="z35370c3"><use href="#z35370d3"/></clipPath>
  <clipPath id="z35370c4"><use href="#z35370d4"/></clipPath>
  <clipPath id="z35370c5"><use href="#z35370d5"/></clipPath>
  <clipPath id="z35370c6"><use href="#z35370d6"/></clipPath>
  <clipPath id="z35370c7"><use href="#z35370d7"/></clipPath>
  <clipPath id="z35370c8"><use href="#z35370d8"/></clipPath>
  <clipPath id="z35370c9"><use href="#z35370d9"/></clipPath>
  <clipPath id="z35370c10"><use href="#z35370d10"/></clipPath>
  <clipPath id="z35370c11"><use href="#z35370d11"/></clipPath>
</defs>
<path style="--d:1s;" pathLength="3333" clip-path="url(#z35370c1)" d="M 326 815 L 412 762 L 431 732"/>
<path style="--d:2s;" pathLength="3333" clip-path="url(#z35370c2)" d="M 80 567 L 110 559 L 138 560 L 343 614 L 407 627 L 447 623"/>
<path style="--d:3s;" pathLength="3333" clip-path="url(#z35370c3)" d="M 242 465 L 378 500 L 412 497"/>
<path style="--d:4s;" pathLength="3333" clip-path="url(#z35370c4)" d="M 233 350 L 333 383 L 372 391 L 401 388"/>
<path style="--d:5s;" pathLength="3333" clip-path="url(#z35370c5)" d="M 171 263 L 198 241 L 205 223 L 244 42"/>
<path style="--d:6s;" pathLength="3333" clip-path="url(#z35370c6)" d="M 226 260 L 240 254 L 332 282 L 368 281 L 387 260 L 363 184 L 346 178"/>
<path style="--d:7s;" pathLength="3333" clip-path="url(#z35370c7)" d="M 256 118 L 266 128 L 337 145 L 391 141"/>
<path style="--d:8s;" pathLength="3333" clip-path="url(#z35370c8)" d="M 609 800 L 697 741 L 722 698"/>
<path style="--d:9s;" pathLength="3333" clip-path="url(#z35370c9)" d="M 468 520 L 518 518 L 685 559 L 869 593 L 919 593 L 951 585"/>
<path style="--d:10s;" pathLength="3333" clip-path="url(#z35370c10)" d="M 669 421 L 689 429 L 747 424 L 770 416 L 795 393 L 772 266 L 741 152 L 705 75 L 663 40 L 562 113"/>
<path style="--d:11s;" pathLength="3333" clip-path="url(#z35370c11)" d="M 633 523 L 663 499 L 647 444 L 615 375 L 553 272 L 483 193 L 457 168 L 445 165 L 442 157"/>
</svg>