<svg id="z32779" class="acjk" viewBox="0 0 1024 1024" xmlns="http://www.w3.org/2000/svg">
<style>
<![CDATA[
@keyframes zk {
	to {
		stroke-dashoffset:0;
	}
}
svg.acjk path[clip-path] {
	--t:0.8s;
	animation:zk var(--t) linear forwards var(--d);
	stroke-dasharray:3337;
	stroke-dashoffset:3339;
	stroke-width:128;
	stroke-linecap:round;
	stroke-linejoin:round;
	fill:none;
	stroke:#000;
}
svg.acjk path[id] {fill:#ccc;}
]]>
</style>
  <path id="z32779d1" d="M 521 707 Q 549 714 582 720 Q 613 727 619 732 Q 626 739 623 746 Q 616 756 591 763 Q 575 766 527 754 L 473 738 Q 469 739 465 737 Q 422 728 372 724 Q 341 720 363 704 Q 397 686 458 697 Q 464 698 474 699 L 521 707 Z"/>
  <path id="z32779d2" d="M 511 631 Q 515 671 521 707 L 527 754 Q 527 758 528 760 Q 531 775 534 786 Q 537 795 539 801 Q 543 811 526 824 Q 496 840 476 844 Q 463 848 456 840 Q 449 834 456 821 Q 468 806 473 738 L 474 699 Q 474 665 474 627 C 474 597 508 601 511 631 Z"/>
  <path id="z32779d3" d="M 571 607 Q 680 616 831 616 Q 906 613 915 624 Q 921 636 904 650 Q 852 689 814 681 Q 739 666 630 648 L 540 635 Q 524 635 511 631 L 474 627 Q 327 611 157 590 Q 135 589 151 571 Q 164 558 183 551 Q 204 547 220 550 Q 346 584 492 599 L 571 607 Z"/>
  <path id="z32779d4" d="M 432 515 Q 438 521 571 607 L 630 648 Q 714 712 742 719 Q 755 722 758 731 Q 758 737 749 745 Q 725 767 701 777 Q 688 783 678 769 Q 654 726 540 635 L 492 599 Q 458 577 420 551 L 385 528 Q 358 513 333 495 Q 236 435 100 375 Q 93 374 94 369 Q 94 366 101 366 Q 170 373 206 391 Q 294 431 387 487 L 432 515 Z"/>
  <path id="z32779d5" d="M 427 478 Q 529 499 572 515 Q 606 525 635 528 Q 648 528 651 533 Q 655 540 647 550 Q 605 587 581 584 Q 575 583 574 574 Q 568 549 427 492 C 399 481 398 472 427 478 Z"/>
  <path id="z32779d6" d="M 728 481 Q 718 496 703 542 Q 702 554 696 557 Q 692 560 689 547 Q 670 495 659 478 Q 643 468 604 458 Q 508 442 454 455 Q 430 462 428 474 Q 427 475 427 478 L 427 492 Q 428 504 432 515 C 438 539 438 539 420 551 Q 413 558 401 562 Q 391 566 383 562 Q 379 559 381 545 Q 382 538 385 528 L 387 487 Q 387 445 413 423 Q 491 371 648 411 Q 651 412 654 413 Q 690 426 725 451 Q 738 463 728 481 Z"/>
  <path id="z32779d7" d="M 508 324 Q 550 331 691 345 Q 700 344 708 354 Q 709 364 691 373 Q 664 392 592 374 Q 451 353 333 340 Q 308 339 326 323 Q 345 305 382 305 Q 410 311 448 315 L 508 324 Z"/>
  <path id="z32779d8" d="M 520 202 Q 578 218 661 231 C 691 236 674 252 644 248 Q 536 235 425 220 Q 416 219 414 221 Q 413 222 418 227 Q 484 285 508 298 Q 521 308 515 316 Q 512 320 508 324 C 491 349 458 343 448 315 Q 441 282 387 240 Q 371 228 342 220 Q 317 213 316 203 Q 313 188 320 170 Q 327 152 338 146 Q 344 142 354 147 Q 430 186 479 191 L 520 202 Z"/>
  <path id="z32779d9" d="M 661 231 Q 706 182 719 179 Q 728 178 733 189 Q 739 201 734 225 Q 730 258 634 300 Q 621 304 616 303 Q 612 300 612 289 L 644 248 L 661 231 Z"/>
  <path id="z32779d10" d="M 543 91 Q 666 110 669 112 Q 676 118 674 126 Q 668 136 644 145 Q 619 152 592 144 Q 568 138 545 133 L 489 122 Q 435 115 374 115 Q 343 112 364 96 Q 394 74 466 83 Q 478 84 491 85 L 543 91 Z"/>
  <path id="z32779d11" d="M 539 24 Q 540 60 543 91 L 545 133 Q 545 136 546 138 Q 552 172 546 180 Q 533 193 520 202 C 496 220 467 218 479 191 Q 485 185 489 122 L 491 85 Q 491 60 493 20 C 494 -10 538 -6 539 24 Z"/>
  <path id="z32779d12" d="M 518 -18 Q 717 -12 802 -22 Q 856 -25 861 -23 Q 861 -22 862 -22 Q 869 -10 859 1 Q 834 28 794 47 Q 781 54 757 47 Q 699 37 641 32 Q 581 28 539 24 C 509 21 494 20 493 20 L 493 22 Q 246 9 197 9 Q 184 10 182 -1 Q 181 -11 198 -26 Q 213 -38 241 -50 Q 251 -54 267 -48 Q 280 -44 342 -36 Q 421 -23 518 -18 Z"/>
<defs>
  <clipPath id="z32779c1"><use href="#z32779d1"/></clipPath>
  <clipPath id="z32779c2"><use href="#z32779d2"/></clipPath>
  <clipPath id="z32779c3"><use href="#z32779d3"/></clipPath>
  <clipPath id="z32779c4"><use href="#z32779d4"/></clipPath>
  <clipPath id="z32779c5"><use href="#z32779d5"/></clipPath>
  <clipPath id="z32779c6"><use href="#z32779d6"/></clipPath>
  <clipPath id="z32779c7"><use href="#z32779d7"/></clipPath>
  <clipPath id="z32779c8"><use href="#z32779d8"/></clipPath>
  <clipPath id="z32779c9"><use href="#z32779d9"/></clipPath>
  <clipPath id="z32779c10"><use href="#z32779d10"/></clipPath>
  <clipPath id="z32779c11"><use href="#z32779d11"/></clipPath>
  <clipPath id="z32779c12"><use href="#z32779d12"/></clipPath>
</defs>
<path style="--d:1s;" pathLength="3333" clip-path="url(#z32779c1)" d="M 365 715 L 428 711 L 579 742 L 612 741"/>
<path style="--d:2s;" pathLength="3333" clip-path="url(#z32779c2)" d="M 467 831 L 501 798 L 495 657 L 479 635"/>
<path style="--d:3s;" pathLength="3333" clip-path="url(#z32779c3)" d="M 154 581 L 175 574 L 212 573 L 438 609 L 814 648 L 852 646 L 907 630"/>
<path style="--d:4s;" pathLength="3333" clip-path="url(#z32779c4)" d="M 749 732 L 699 738 L 550 615 L 343 480 L 184 397 L 99 370"/>
<path style="--d:5s;" pathLength="3333" clip-path="url(#z32779c5)" d="M 644 538 L 595 551 L 504 509 L 465 500 L 455 491 L 440 494 L 436 485"/>
<path style="--d:6s;" pathLength="3333" clip-path="url(#z32779c6)" d="M 389 556 L 403 538 L 409 515 L 406 480 L 418 450 L 430 439 L 461 427 L 511 422 L 612 430 L 681 458 L 694 471 L 694 551"/>
<path style="--d:7s;" pathLength="3333" clip-path="url(#z32779c7)" d="M 328 332 L 375 324 L 624 360 L 672 362 L 699 356"/>
<path style="--d:8s;" pathLength="3333" clip-path="url(#z32779c8)" d="M 504 310 L 461 291 L 403 235 L 387 203 L 399 197 L 431 200 L 637 238 L 652 230"/>
<path style="--d:9s;" pathLength="3333" clip-path="url(#z32779c9)" d="M 619 295 L 695 235 L 707 222 L 720 190"/>
<path style="--d:10s;" pathLength="3333" clip-path="url(#z32779c10)" d="M 367 107 L 421 97 L 555 111 L 614 126 L 665 121"/>
<path style="--d:11s;" pathLength="3333" clip-path="url(#z32779c11)" d="M 486 192 L 514 170 L 518 152 L 516 46 L 500 28"/>
<path style="--d:12s;" pathLength="3333" clip-path="url(#z32779c12)" d="M 194 -3 L 251 -21 L 456 1 L 779 15 L 829 0 L 858 -19"/>
</svg>