<svg id="z38747" class="acjk" viewBox="0 0 1024 1024" xmlns="http://www.w3.org/2000/svg">
<style>
<![CDATA[
@keyframes zk {
	to {
		stroke-dashoffset:0;
	}
}
svg.acjk path[clip-path] {
	--t:0.8s;
	animation:zk var(--t) linear forwards var(--d);
	stroke-dasharray:3337;
	stroke-dashoffset:3339;
	stroke-width:128;
	stroke-linecap:round;
	stroke-linejoin:round;
	fill:none;
	stroke:#000;
}
svg.acjk path[id] {fill:#ccc;}
]]>
</style>
  <path id="z38747d1" d="M 361 661 Q 392 671 427 678 Q 458 687 464 692 Q 471 699 467 706 Q 460 716 435 721 Q 411 725 364 705 C 336 694 333 692 310 688 Q 309 689 307 688 Q 262 675 210 668 Q 179 662 202 648 Q 232 633 311 649 L 361 661 Z"/>
  <path id="z38747d2" d="M 354 563 Q 384 573 415 581 Q 440 590 445 593 Q 452 600 447 607 Q 440 616 417 620 Q 386 623 357 605 L 311 588 Q 274 579 232 571 Q 204 564 225 552 Q 258 534 306 551 Q 307 551 311 551 L 354 563 Z"/>
  <path id="z38747d3" d="M 349 496 Q 350 530 354 563 L 357 605 Q 358 633 361 661 L 364 705 Q 364 724 380 789 Q 384 799 365 814 Q 331 832 309 835 Q 293 839 286 831 Q 279 824 287 809 Q 306 781 307 761 Q 308 727 310 688 L 311 649 Q 311 621 311 588 L 311 551 Q 310 520 309 486 C 308 456 348 466 349 496 Z"/>
  <path id="z38747d4" d="M 309 486 Q 129 444 59 435 Q 49 434 45 426 Q 42 417 56 407 Q 86 388 140 400 Q 275 448 451 478 Q 466 479 466 487 Q 467 499 450 506 Q 423 518 349 496 L 309 486 Z"/>
  <path id="z38747d5" d="M 248 194 Q 251 230 254 257 L 257 283 Q 261 332 265 350 Q 265 353 265 354 C 267 372 267 372 257 380 Q 239 398 210 399 Q 198 395 203 385 Q 243 286 192 114 Q 171 59 171 53 Q 171 25 186 5 Q 190 -8 201 -3 Q 234 21 246 168 L 248 194 Z"/>
  <path id="z38747d6" d="M 265 354 Q 289 358 343 375 Q 359 379 364 371 Q 373 350 377 159 Q 377 66 367 52 Q 363 49 297 60 Q 279 64 281 56 Q 333 17 362 -13 Q 374 -29 387 -32 Q 394 -35 402 -27 Q 435 16 433 62 Q 411 327 429 361 Q 439 377 428 387 Q 410 402 379 414 Q 363 421 350 414 Q 314 392 257 380 C 228 373 236 348 265 354 Z"/>
  <path id="z38747d7" d="M 254 257 Q 300 266 334 269 Q 352 273 345 282 Q 336 292 317 296 Q 281 299 257 283 C 232 267 225 251 254 257 Z"/>
  <path id="z38747d8" d="M 246 168 Q 300 175 341 180 Q 360 183 353 194 Q 344 206 323 210 Q 286 213 248 194 C 221 181 216 164 246 168 Z"/>
  <path id="z38747d9" d="M 639 751 Q 666 729 693 700 Q 708 687 724 686 Q 734 687 741 701 Q 745 716 737 747 Q 731 768 700 782 Q 627 810 612 803 Q 606 799 608 786 Q 612 774 639 751 Z"/>
  <path id="z38747d10" d="M 556 605 Q 544 632 525 641 Q 522 645 517 641 Q 513 637 512 628 Q 518 604 495 545 Q 488 530 489 514 Q 493 498 501 485 Q 508 475 513 483 Q 519 484 525 498 Q 529 504 535 527 Q 547 566 554 582 C 560 596 560 596 556 605 Z"/>
  <path id="z38747d11" d="M 554 582 Q 573 570 617 584 Q 698 620 801 632 Q 802 632 804 632 Q 817 622 815 616 Q 815 606 792 549 Q 788 536 793 533 Q 800 530 814 541 Q 860 578 899 591 Q 930 604 930 611 Q 929 620 862 661 Q 840 676 774 656 Q 740 652 613 618 Q 583 611 556 605 C 527 598 526 592 554 582 Z"/>
  <path id="z38747d12" d="M 672 436 Q 711 449 752 460 Q 774 467 777 470 Q 784 479 780 486 Q 773 496 745 500 Q 717 503 691 489 Q 666 479 639 470 Q 609 461 573 455 Q 540 446 566 433 Q 593 421 636 426 L 672 436 Z"/>
  <path id="z38747d13" d="M 688 174 Q 689 244 693 303 L 694 331 Q 694 361 697 392 Q 704 411 672 436 C 649 455 624 454 636 426 Q 645 414 648 325 Q 648 279 649 195 C 649 165 688 144 688 174 Z"/>
  <path id="z38747d14" d="M 693 303 Q 750 297 860 333 Q 860 334 861 334 Q 868 341 864 350 Q 857 360 829 364 Q 811 365 738 342 Q 717 338 694 331 C 665 322 663 306 693 303 Z"/>
  <path id="z38747d15" d="M 558 253 Q 573 290 589 320 Q 596 333 582 343 Q 539 367 521 359 Q 511 355 515 343 Q 542 268 464 152 Q 446 130 439 114 Q 435 101 446 106 Q 494 121 549 231 L 558 253 Z"/>
  <path id="z38747d16" d="M 549 231 Q 657 137 771 54 Q 796 35 833 38 Q 902 44 970 67 Q 988 71 988 77 Q 989 84 975 87 Q 783 130 753 145 Q 741 149 688 174 L 649 195 Q 633 205 617 215 Q 580 240 558 253 C 532 269 526 251 549 231 Z"/>
<defs>
  <clipPath id="z38747c1"><use href="#z38747d1"/></clipPath>
  <clipPath id="z38747c2"><use href="#z38747d2"/></clipPath>
  <clipPath id="z38747c3"><use href="#z38747d3"/></clipPath>
  <clipPath id="z38747c4"><use href="#z38747d4"/></clipPath>
  <clipPath id="z38747c5"><use href="#z38747d5"/></clipPath>
  <clipPath id="z38747c6"><use href="#z38747d6"/></clipPath>
  <clipPath id="z38747c7"><use href="#z38747d7"/></clipPath>
  <clipPath id="z38747c8"><use href="#z38747d8"/></clipPath>
  <clipPath id="z38747c9"><use href="#z38747d9"/></clipPath>
  <clipPath id="z38747c10"><use href="#z38747d10"/></clipPath>
  <clipPath id="z38747c11"><use href="#z38747d11"/></clipPath>
  <clipPath id="z38747c12"><use href="#z38747d12"/></clipPath>
  <clipPath id="z38747c13"><use href="#z38747d13"/></clipPath>
  <clipPath id="z38747c14"><use href="#z38747d14"/></clipPath>
  <clipPath id="z38747c15"><use href="#z38747d15"/></clipPath>
  <clipPath id="z38747c16"><use href="#z38747d16"/></clipPath>
</defs>
<path style="--d:1s;" pathLength="3333" clip-path="url(#z38747c1)" d="M 204 659 L 244 656 L 297 664 L 410 698 L 456 701"/>
<path style="--d:2s;" pathLength="3333" clip-path="url(#z38747c2)" d="M 227 562 L 280 562 L 397 599 L 438 601"/>
<path style="--d:3s;" pathLength="3333" clip-path="url(#z38747c3)" d="M 297 822 L 341 785 L 330 512 L 314 493"/>
<path style="--d:4s;" pathLength="3333" clip-path="url(#z38747c4)" d="M 55 423 L 111 419 L 382 486 L 434 493 L 455 489"/>
<path style="--d:5s;" pathLength="3333" clip-path="url(#z38747c5)" d="M 216 387 L 236 366 L 240 294 L 222 136 L 199 48 L 196 6"/>
<path style="--d:6s;" pathLength="3333" clip-path="url(#z38747c6)" d="M 266 376 L 276 370 L 367 396 L 398 370 L 404 73 L 396 33 L 384 18 L 290 54"/>
<path style="--d:7s;" pathLength="3333" clip-path="url(#z38747c7)" d="M 261 263 L 270 275 L 294 281 L 337 277"/>
<path style="--d:8s;" pathLength="3333" clip-path="url(#z38747c8)" d="M 254 174 L 262 185 L 275 189 L 315 194 L 345 189"/>
<path style="--d:9s;" pathLength="3333" clip-path="url(#z38747c9)" d="M 617 795 L 701 741 L 722 703"/>
<path style="--d:10s;" pathLength="3333" clip-path="url(#z38747c10)" d="M 521 632 L 534 603 L 533 590 L 513 531 L 509 495"/>
<path style="--d:11s;" pathLength="3333" clip-path="url(#z38747c11)" d="M 562 587 L 687 625 L 807 649 L 835 640 L 856 617 L 797 538"/>
<path style="--d:12s;" pathLength="3333" clip-path="url(#z38747c12)" d="M 567 445 L 637 447 L 717 475 L 769 480"/>
<path style="--d:13s;" pathLength="3333" clip-path="url(#z38747c13)" d="M 642 426 L 666 409 L 670 398 L 668 207 L 684 182"/>
<path style="--d:14s;" pathLength="3333" clip-path="url(#z38747c14)" d="M 699 310 L 755 328 L 834 345 L 853 344"/>
<path style="--d:15s;" pathLength="3333" clip-path="url(#z38747c15)" d="M 525 348 L 553 322 L 533 244 L 502 179 L 448 115"/>
<path style="--d:16s;" pathLength="3333" clip-path="url(#z38747c16)" d="M 560 246 L 566 233 L 639 178 L 732 120 L 804 84 L 851 77 L 982 78"/>
</svg>