<svg id="z31171" class="acjk" viewBox="0 0 1024 1024" xmlns="http://www.w3.org/2000/svg">
<style>
<![CDATA[
@keyframes zk {
	to {
		stroke-dashoffset:0;
	}
}
svg.acjk path[clip-path] {
	--t:0.8s;
	animation:zk var(--t) linear forwards var(--d);
	stroke-dasharray:3337;
	stroke-dashoffset:3339;
	stroke-width:128;
	stroke-linecap:round;
	stroke-linejoin:round;
	fill:none;
	stroke:#000;
}
svg.acjk path[id] {fill:#ccc;}
]]>
</style>
  <path id="z31171d1" d="M 499 719 Q 599 758 646 763 Q 662 763 667 770 Q 671 780 660 792 Q 641 810 598 829 Q 583 838 570 837 Q 563 834 561 823 Q 555 781 315 689 Q 308 688 302 684 Q 296 675 302 672 Q 308 671 455 706 L 499 719 Z"/>
  <path id="z31171d2" d="M 538 580 Q 622 590 741 592 Q 805 592 812 602 Q 816 612 801 626 Q 749 662 713 654 Q 641 638 528 616 L 475 606 Q 346 588 196 566 Q 175 563 191 547 Q 204 534 222 529 Q 243 525 258 529 Q 340 554 435 566 L 538 580 Z"/>
  <path id="z31171d3" d="M 528 616 Q 528 620 529 622 Q 530 644 545 673 Q 551 682 540 695 Q 521 710 499 719 C 472 731 441 733 455 706 Q 474 675 475 606 L 476 541 Q 476 456 470 424 Q 469 414 485 374 Q 495 359 509 367 Q 522 379 519 460 Q 518 511 521 558 L 528 616 Z"/>
  <path id="z31171d4" d="M 435 566 Q 411 515 307 436 Q 214 376 135 334 Q 117 325 132 321 Q 156 315 252 352 Q 330 394 387 445 Q 421 476 476 541 C 504 574 462 616 435 566 Z"/>
  <path id="z31171d5" d="M 521 558 Q 600 464 688 378 Q 710 354 750 353 Q 822 349 896 364 Q 915 365 917 371 Q 918 378 904 384 Q 730 445 713 455 Q 637 500 538 580 C 515 599 502 581 521 558 Z"/>
  <path id="z31171d6" d="M 413 314 Q 368 350 345 343 Q 332 339 337 325 Q 361 280 325 163 Q 286 67 207 16 Q 191 6 176 -5 Q 163 -14 175 -16 Q 226 -20 292 34 Q 362 88 394 211 Q 410 274 417 283 C 427 304 427 304 413 314 Z"/>
  <path id="z31171d7" d="M 417 283 Q 438 284 454 291 Q 497 303 544 313 Q 560 317 566 311 Q 572 307 568 287 Q 532 112 583 40 Q 622 1 642 -8 Q 646 -8 653 -11 Q 708 -30 787 -30 Q 862 -29 924 1 Q 948 14 936 42 Q 908 103 901 171 Q 897 180 891 180 Q 888 180 881 166 Q 860 73 837 53 Q 776 20 659 49 Q 640 56 629 69 Q 607 88 601 135 Q 594 181 615 245 Q 628 281 649 300 Q 685 324 606 358 Q 581 370 565 359 Q 525 337 413 314 C 384 308 387 278 417 283 Z"/>
<defs>
  <clipPath id="z31171c1"><use href="#z31171d1"/></clipPath>
  <clipPath id="z31171c2"><use href="#z31171d2"/></clipPath>
  <clipPath id="z31171c3"><use href="#z31171d3"/></clipPath>
  <clipPath id="z31171c4"><use href="#z31171d4"/></clipPath>
  <clipPath id="z31171c5"><use href="#z31171d5"/></clipPath>
  <clipPath id="z31171c6"><use href="#z31171d6"/></clipPath>
  <clipPath id="z31171c7"><use href="#z31171d7"/></clipPath>
</defs>
<path style="--d:1s;" pathLength="3333" clip-path="url(#z31171c1)" d="M 658 775 L 633 785 L 589 791 L 519 752 L 438 717 L 381 704 L 368 695 L 356 698 L 350 690 L 329 691 L 322 683 L 303 678"/>
<path style="--d:2s;" pathLength="3333" clip-path="url(#z31171c2)" d="M 194 556 L 249 550 L 366 574 L 723 624 L 805 607"/>
<path style="--d:3s;" pathLength="3333" clip-path="url(#z31171c3)" d="M 463 704 L 497 686 L 505 664 L 495 435 L 501 377"/>
<path style="--d:4s;" pathLength="3333" clip-path="url(#z31171c4)" d="M 470 564 L 384 471 L 336 430 L 234 365 L 136 327"/>
<path style="--d:5s;" pathLength="3333" clip-path="url(#z31171c5)" d="M 532 572 L 537 561 L 615 488 L 726 402 L 799 385 L 871 376 L 888 379 L 911 372"/>
<path style="--d:6s;" pathLength="3333" clip-path="url(#z31171c6)" d="M 347 331 L 374 306 L 381 284 L 361 191 L 332 117 L 293 63 L 258 30 L 182 -11"/>
<path style="--d:7s;" pathLength="3333" clip-path="url(#z31171c7)" d="M 423 292 L 448 307 L 559 335 L 583 335 L 604 320 L 608 314 L 580 213 L 575 162 L 579 119 L 592 75 L 608 51 L 655 19 L 763 2 L 823 8 L 875 28 L 886 36 L 888 153 L 894 173"/>
</svg>