<svg id="z36530" class="acjk" viewBox="0 0 1024 1024" xmlns="http://www.w3.org/2000/svg">
<style>
<![CDATA[
@keyframes zk {
	to {
		stroke-dashoffset:0;
	}
}
svg.acjk path[clip-path] {
	--t:0.8s;
	animation:zk var(--t) linear forwards var(--d);
	stroke-dasharray:3337;
	stroke-dashoffset:3339;
	stroke-width:128;
	stroke-linecap:round;
	stroke-linejoin:round;
	fill:none;
	stroke:#000;
}
svg.acjk path[id] {fill:#ccc;}
]]>
</style>
  <path id="z36530d1" d="M 239 674 Q 269 704 342 782 Q 355 800 375 813 Q 391 826 379 840 Q 364 853 338 860 Q 314 867 304 863 Q 294 859 299 848 Q 306 830 245 712 Q 236 699 228 682 C 215 655 218 653 239 674 Z"/>
  <path id="z36530d2" d="M 242 671 Q 241 672 239 674 L 228 682 Q 219 689 210 693 Q 200 696 191 692 Q 184 688 186 678 Q 199 650 204 568 Q 204 499 204 330 C 204 300 244 313 245 343 Q 246 386 248 426 L 248 451 Q 249 491 251 526 L 252 553 Q 252 631 258 643 C 261 655 261 655 242 671 Z"/>
  <path id="z36530d3" d="M 382 287 Q 373 82 362 65 Q 358 61 340 65 Q 312 72 282 82 Q 263 89 264 80 Q 321 29 352 -8 Q 364 -27 379 -31 Q 388 -35 396 -26 Q 433 17 434 76 L 434 92 Q 430 219 432 391 L 432 397 Q 435 643 445 660 Q 457 679 445 688 Q 424 706 390 719 Q 374 726 312 691 Q 288 682 242 671 C 213 664 229 635 258 643 Q 277 646 353 674 Q 369 681 375 674 Q 382 652 385 619 Q 386 495 385 387 L 382 287 Z"/>
  <path id="z36530d4" d="M 251 526 Q 255 532 354 549 Q 375 555 366 565 Q 356 577 332 579 Q 298 579 252 553 C 226 538 225 511 251 526 Z"/>
  <path id="z36530d5" d="M 248 426 Q 252 426 260 427 Q 315 440 358 448 Q 379 454 370 465 Q 358 478 334 479 Q 297 482 248 451 C 223 435 218 425 248 426 Z"/>
  <path id="z36530d6" d="M 432 391 Q 433 394 434 396 Q 433 397 432 397 C 434 402 414 396 385 387 Q 318 366 245 343 L 204 330 Q 116 309 94 308 Q 81 307 80 297 Q 77 284 86 277 Q 108 261 139 244 Q 149 241 161 249 Q 204 282 356 345 L 432 391 Z"/>
  <path id="z36530d7" d="M 356 345 Q 314 228 90 80 Q 74 67 89 66 Q 129 62 225 124 Q 279 164 327 217 Q 360 254 382 287 C 442 374 373 388 356 345 Z"/>
  <path id="z36530d8" d="M 585 711 Q 554 727 543 725 Q 527 721 540 703 Q 565 660 547 559 Q 543 546 537 528 Q 527 495 490 458 Q 478 448 476 442 Q 475 436 484 437 Q 508 437 546 473 Q 594 530 603 656 Q 604 668 606 675 C 611 698 611 698 585 711 Z"/>
  <path id="z36530d9" d="M 907 480 Q 922 486 912 501 Q 897 519 878 529 Q 866 535 843 524 Q 813 509 776 509 Q 752 509 745 526 Q 732 548 741 615 Q 744 655 782 697 Q 800 713 782 727 Q 757 746 731 758 Q 721 762 703 752 Q 645 725 585 711 C 556 704 578 664 606 675 Q 609 676 613 678 Q 688 708 694 706 Q 701 703 701 688 Q 698 639 694 596 Q 687 545 698 512 Q 705 488 726 474 Q 757 458 818 459 Q 878 462 907 480 Z"/>
  <path id="z36530d10" d="M 684 312 Q 745 322 836 325 Q 881 325 889 335 Q 893 347 877 359 Q 823 395 765 375 Q 726 366 673 353 L 626 343 Q 553 330 466 313 Q 447 310 462 295 Q 490 270 528 280 Q 562 292 602 298 L 684 312 Z"/>
  <path id="z36530d11" d="M 673 353 Q 674 380 677 395 Q 680 407 673 412 Q 651 431 634 440 Q 622 444 614 437 Q 608 433 615 424 Q 621 415 626 343 L 624 245 Q 624 109 607 62 Q 598 26 630 -21 Q 640 -39 647 -42 Q 657 -43 663 -31 Q 675 -1 672 27 Q 671 117 670 290 L 673 353 Z"/>
  <path id="z36530d12" d="M 602 298 Q 565 208 434 92 C 413 73 413 73 434 76 Q 446 73 502 110 Q 544 140 624 245 C 673 308 615 328 602 298 Z"/>
  <path id="z36530d13" d="M 670 290 Q 728 193 805 86 Q 821 68 848 68 Q 941 67 970 71 Q 979 72 980 77 Q 981 81 969 89 Q 840 152 798 194 Q 744 245 684 312 C 664 334 655 316 670 290 Z"/>
<defs>
  <clipPath id="z36530c1"><use href="#z36530d1"/></clipPath>
  <clipPath id="z36530c2"><use href="#z36530d2"/></clipPath>
  <clipPath id="z36530c3"><use href="#z36530d3"/></clipPath>
  <clipPath id="z36530c4"><use href="#z36530d4"/></clipPath>
  <clipPath id="z36530c5"><use href="#z36530d5"/></clipPath>
  <clipPath id="z36530c6"><use href="#z36530d6"/></clipPath>
  <clipPath id="z36530c7"><use href="#z36530d7"/></clipPath>
  <clipPath id="z36530c8"><use href="#z36530d8"/></clipPath>
  <clipPath id="z36530c9"><use href="#z36530d9"/></clipPath>
  <clipPath id="z36530c10"><use href="#z36530d10"/></clipPath>
  <clipPath id="z36530c11"><use href="#z36530d11"/></clipPath>
  <clipPath id="z36530c12"><use href="#z36530d12"/></clipPath>
  <clipPath id="z36530c13"><use href="#z36530d13"/></clipPath>
</defs>
<path style="--d:1s;" pathLength="3333" clip-path="url(#z36530c1)" d="M 310 853 L 333 824 L 237 683"/>
<path style="--d:2s;" pathLength="3333" clip-path="url(#z36530c2)" d="M 198 681 L 219 658 L 227 637 L 225 365 L 220 350 L 208 341"/>
<path style="--d:3s;" pathLength="3333" clip-path="url(#z36530c3)" d="M 251 670 L 266 661 L 275 663 L 374 698 L 389 694 L 412 670 L 407 262 L 398 61 L 380 26 L 335 42 L 273 77"/>
<path style="--d:4s;" pathLength="3333" clip-path="url(#z36530c4)" d="M 256 534 L 280 551 L 306 558 L 357 559"/>
<path style="--d:5s;" pathLength="3333" clip-path="url(#z36530c5)" d="M 254 432 L 264 443 L 293 454 L 328 461 L 361 459"/>
<path style="--d:6s;" pathLength="3333" clip-path="url(#z36530c6)" d="M 93 295 L 103 288 L 145 281 L 432 394"/>
<path style="--d:7s;" pathLength="3333" clip-path="url(#z36530c7)" d="M 382 355 L 368 335 L 359 295 L 344 272 L 274 193 L 188 123 L 93 73"/>
<path style="--d:8s;" pathLength="3333" clip-path="url(#z36530c8)" d="M 545 713 L 569 694 L 579 664 L 568 560 L 537 488 L 497 449 L 482 443"/>
<path style="--d:9s;" pathLength="3333" clip-path="url(#z36530c9)" d="M 594 708 L 618 698 L 705 728 L 723 724 L 739 708 L 719 631 L 714 571 L 717 534 L 735 497 L 775 484 L 808 484 L 869 498 L 904 492"/>
<path style="--d:10s;" pathLength="3333" clip-path="url(#z36530c10)" d="M 464 304 L 517 300 L 802 353 L 835 352 L 881 340"/>
<path style="--d:11s;" pathLength="3333" clip-path="url(#z36530c11)" d="M 622 431 L 649 394 L 646 137 L 638 51 L 649 -32"/>
<path style="--d:12s;" pathLength="3333" clip-path="url(#z36530c12)" d="M 620 295 L 611 286 L 604 253 L 556 189 L 502 132 L 437 80"/>
<path style="--d:13s;" pathLength="3333" clip-path="url(#z36530c13)" d="M 679 304 L 684 290 L 738 221 L 833 116 L 859 104 L 973 77"/>
</svg>