<svg id="z38039" class="acjk" viewBox="0 0 1024 1024" xmlns="http://www.w3.org/2000/svg">
<style>
<![CDATA[
@keyframes zk {
	to {
		stroke-dashoffset:0;
	}
}
svg.acjk path[clip-path] {
	--t:0.8s;
	animation:zk var(--t) linear forwards var(--d);
	stroke-dasharray:3337;
	stroke-dashoffset:3339;
	stroke-width:128;
	stroke-linecap:round;
	stroke-linejoin:round;
	fill:none;
	stroke:#000;
}
svg.acjk path[id] {fill:#ccc;}
]]>
</style>
  <path id="z38039d1" d="M 307 650 Q 329 704 367 741 Q 376 751 371 765 Q 367 778 338 799 Q 311 817 293 816 Q 274 815 283 793 Q 296 762 286 735 Q 252 647 197 563 Q 145 484 74 395 Q 64 385 62 378 Q 59 368 73 370 Q 131 380 285 615 Q 288 619 291 624 L 307 650 Z"/>
  <path id="z38039d2" d="M 291 624 Q 333 606 381 622 Q 415 629 450 638 Q 466 642 469 645 Q 476 652 472 661 Q 465 671 435 677 Q 408 681 346 657 L 307 650 C 277 645 263 635 291 624 Z"/>
  <path id="z38039d3" d="M 288 470 Q 289 471 400 505 Q 422 512 425 516 Q 432 523 428 530 Q 421 540 395 543 Q 368 546 344 533 Q 319 523 291 513 Q 260 503 224 497 Q 193 488 217 476 Q 232 470 250 468 L 288 470 Z"/>
  <path id="z38039d4" d="M 327 329 Q 448 366 453 370 Q 460 377 456 385 Q 449 395 421 400 Q 393 404 326 374 C 299 362 295 360 279 357 Q 278 358 276 357 Q 224 341 162 331 Q 129 324 154 309 Q 196 288 243 306 Q 262 312 282 316 L 327 329 Z"/>
  <path id="z38039d5" d="M 282 316 Q 285 175 246 114 Q 209 80 253 34 Q 253 33 256 31 Q 268 24 279 39 Q 294 66 426 178 Q 444 190 448 198 Q 452 208 442 208 Q 426 207 331 153 Q 321 147 319 157 Q 326 251 327 329 L 326 374 Q 326 399 330 420 Q 334 433 326 444 Q 307 462 288 470 C 262 484 239 496 250 468 Q 250 464 255 455 Q 277 409 279 357 L 282 316 Z"/>
  <path id="z38039d6" d="M 672 247 Q 753 371 791 528 Q 800 571 828 601 Q 847 620 828 633 Q 804 646 775 651 Q 756 657 687 631 Q 600 604 505 595 Q 487 595 484 590 Q 480 578 503 563 Q 530 547 592 567 Q 706 604 719 602 Q 732 602 733 578 Q 706 395 637 287 L 610 248 Q 553 176 445 102 Q 432 92 440 88 Q 447 87 469 97 Q 560 136 618 184 Q 628 194 640 206 L 672 247 Z"/>
  <path id="z38039d7" d="M 640 206 Q 695 127 746 61 Q 762 37 794 36 Q 959 33 974 46 Q 978 53 967 59 Q 807 120 719 200 Q 697 222 672 247 L 637 287 Q 588 344 530 418 Q 518 439 498 442 Q 474 445 467 437 Q 464 433 472 427 Q 512 402 535 361 Q 574 303 610 248 L 640 206 Z"/>
  <path id="z38039d8" d="M 572 476 Q 624 431 637 432 Q 646 433 649 444 Q 653 457 644 481 Q 635 502 566 515 Q 553 516 548 515 Q 544 511 546 501 Q 549 492 572 476 Z"/>
<defs>
  <clipPath id="z38039c1"><use href="#z38039d1"/></clipPath>
  <clipPath id="z38039c2"><use href="#z38039d2"/></clipPath>
  <clipPath id="z38039c3"><use href="#z38039d3"/></clipPath>
  <clipPath id="z38039c4"><use href="#z38039d4"/></clipPath>
  <clipPath id="z38039c5"><use href="#z38039d5"/></clipPath>
  <clipPath id="z38039c6"><use href="#z38039d6"/></clipPath>
  <clipPath id="z38039c7"><use href="#z38039d7"/></clipPath>
  <clipPath id="z38039c8"><use href="#z38039d8"/></clipPath>
</defs>
<path style="--d:1s;" pathLength="3333" clip-path="url(#z38039c1)" d="M 292 803 L 317 779 L 327 754 L 287 668 L 195 519 L 107 410 L 71 378"/>
<path style="--d:2s;" pathLength="3333" clip-path="url(#z38039c2)" d="M 300 627 L 421 655 L 461 655"/>
<path style="--d:3s;" pathLength="3333" clip-path="url(#z38039c3)" d="M 218 487 L 282 489 L 368 519 L 418 525"/>
<path style="--d:4s;" pathLength="3333" clip-path="url(#z38039c4)" d="M 155 321 L 179 316 L 229 322 L 400 376 L 447 379"/>
<path style="--d:5s;" pathLength="3333" clip-path="url(#z38039c5)" d="M 257 463 L 284 447 L 299 427 L 305 293 L 292 143 L 297 121 L 333 128 L 441 200"/>
<path style="--d:6s;" pathLength="3333" clip-path="url(#z38039c6)" d="M 491 586 L 523 576 L 559 580 L 724 623 L 756 617 L 774 605 L 725 411 L 683 315 L 648 257 L 616 216 L 567 171 L 444 94"/>
<path style="--d:7s;" pathLength="3333" clip-path="url(#z38039c7)" d="M 475 435 L 507 422 L 686 190 L 789 88 L 856 69 L 968 51"/>
<path style="--d:8s;" pathLength="3333" clip-path="url(#z38039c8)" d="M 552 507 L 619 471 L 636 444"/>
</svg>