<svg id="z39750" class="acjk" viewBox="0 0 1024 1024" xmlns="http://www.w3.org/2000/svg">
<style>
<![CDATA[
@keyframes zk {
	to {
		stroke-dashoffset:0;
	}
}
svg.acjk path[clip-path] {
	--t:0.8s;
	animation:zk var(--t) linear forwards var(--d);
	stroke-dasharray:3337;
	stroke-dashoffset:3339;
	stroke-width:128;
	stroke-linecap:round;
	stroke-linejoin:round;
	fill:none;
	stroke:#000;
}
svg.acjk path[id] {fill:#ccc;}
]]>
</style>
  <path id="z39750d1" d="M 234 620 Q 348 749 360 756 Q 378 769 364 783 Q 348 796 322 804 Q 297 811 286 807 Q 274 803 281 792 Q 290 770 231 659 Q 216 637 203 611 C 189 584 214 598 234 620 Z"/>
  <path id="z39750d2" d="M 167 602 Q 157 608 130 613 Q 118 617 115 612 Q 108 606 116 591 Q 144 521 157 408 Q 158 375 177 351 Q 184 341 189 339 C 196 334 196 334 199 347 Q 202 357 203 371 L 203 393 Q 202 405 201 418 Q 183 536 180 572 C 178 597 178 597 167 602 Z"/>
  <path id="z39750d3" d="M 382 394 Q 383 390 385 386 Q 392 371 404 373 Q 417 376 423 390 Q 436 412 454 515 Q 467 564 500 595 Q 516 611 501 625 Q 483 640 434 662 Q 422 668 357 651 Q 342 651 234 620 L 203 611 Q 184 607 167 602 C 138 594 152 563 180 572 Q 234 590 260 596 L 293 604 Q 386 632 404 622 Q 416 616 412 580 Q 394 447 385 419 L 382 394 Z"/>
  <path id="z39750d4" d="M 311 499 Q 339 506 366 511 Q 385 515 377 526 Q 367 536 346 539 Q 333 540 313 535 L 269 519 Q 238 509 213 499 Q 200 495 217 484 Q 221 481 270 489 L 311 499 Z"/>
  <path id="z39750d5" d="M 307 421 Q 308 464 311 499 L 313 535 Q 313 550 315 565 Q 321 580 313 588 Q 303 598 293 604 C 268 620 244 621 260 596 Q 261 593 264 590 Q 265 583 269 519 L 270 489 Q 270 458 270 411 C 270 381 306 391 307 421 Z"/>
  <path id="z39750d6" d="M 203 371 Q 206 371 296 382 L 327 386 Q 355 392 382 394 C 412 396 410 402 385 419 Q 378 425 365 427 Q 344 430 307 421 L 270 411 Q 234 404 203 393 C 175 383 173 368 203 371 Z"/>
  <path id="z39750d7" d="M 189 339 Q 188 336 188 330 Q 203 213 51 68 Q 44 61 50 58 Q 72 55 141 109 Q 201 157 241 266 Q 248 284 257 300 Q 264 309 258 318 Q 252 325 225 340 Q 206 349 199 347 C 190 348 190 348 189 339 Z"/>
  <path id="z39750d8" d="M 296 382 Q 295 378 298 370 Q 316 333 309 281 Q 299 140 307 112 Q 317 72 350 47 Q 452 -34 760 -4 Q 899 12 953 40 Q 983 59 967 91 Q 943 131 921 204 Q 917 219 909 222 Q 900 226 900 206 Q 901 115 892 96 Q 853 42 601 40 Q 465 43 412 63 Q 363 85 353 113 Q 331 188 365 292 Q 377 343 377 345 Q 368 367 327 386 C 301 401 288 408 296 382 Z"/>
  <path id="z39750d9" d="M 492 200 Q 459 193 433 186 Q 417 182 423 194 Q 451 246 480 285 Q 490 298 487 304 Q 484 314 454 334 Q 442 343 429 339 Q 422 336 426 325 Q 438 300 402 217 Q 395 199 377 181 Q 364 169 367 160 Q 371 147 385 135 Q 394 128 402 135 Q 420 151 484 178 Q 491 181 499 183 C 528 192 521 206 492 200 Z"/>
  <path id="z39750d10" d="M 499 183 Q 517 152 526 147 Q 535 143 544 154 Q 548 161 546 179 Q 540 207 497 232 Q 491 235 488 227 Q 484 221 492 200 L 499 183 Z"/>
  <path id="z39750d11" d="M 699 515 Q 730 528 765 541 Q 787 550 791 553 Q 797 560 792 567 Q 785 576 761 578 Q 739 578 695 556 L 660 539 Q 629 529 596 519 C 567 510 571 498 601 496 Q 634 493 665 503 L 699 515 Z"/>
  <path id="z39750d12" d="M 596 519 Q 587 526 555 536 Q 542 537 538 534 Q 532 530 541 516 Q 578 462 557 358 Q 556 354 554 348 Q 550 320 524 289 Q 515 280 521 264 Q 528 243 539 234 Q 548 227 558 238 Q 580 272 655 347 Q 667 356 668 363 Q 669 367 665 367 Q 661 366 605 336 Q 601 333 599 335 Q 596 336 597 344 Q 598 474 601 496 C 603 515 603 515 596 519 Z"/>
  <path id="z39750d13" d="M 735 266 Q 759 226 793 194 Q 839 155 861 155 Q 877 159 871 181 Q 867 221 870 336 Q 869 354 863 354 Q 859 354 834 278 Q 825 250 815 249 Q 797 249 762 303 L 740 344 Q 713 413 699 515 L 695 556 Q 692 625 699 661 Q 709 691 668 709 Q 643 722 626 716 Q 611 712 618 697 Q 652 664 651 639 Q 655 585 660 539 L 665 503 Q 680 383 717 303 L 735 266 Z"/>
  <path id="z39750d14" d="M 717 303 Q 681 252 615 194 Q 609 187 615 186 Q 646 180 735 266 L 762 303 Q 787 340 809 401 Q 816 419 826 437 Q 832 444 827 452 Q 821 459 798 471 Q 782 480 774 478 Q 764 475 766 463 Q 772 408 740 344 L 717 303 Z"/>
  <path id="z39750d15" d="M 763 629 Q 790 608 819 583 Q 829 574 839 575 Q 846 575 850 584 Q 853 594 846 615 Q 842 631 815 645 Q 758 666 744 662 Q 740 659 742 651 Q 743 644 763 629 Z"/>
<defs>
  <clipPath id="z39750c1"><use href="#z39750d1"/></clipPath>
  <clipPath id="z39750c2"><use href="#z39750d2"/></clipPath>
  <clipPath id="z39750c3"><use href="#z39750d3"/></clipPath>
  <clipPath id="z39750c4"><use href="#z39750d4"/></clipPath>
  <clipPath id="z39750c5"><use href="#z39750d5"/></clipPath>
  <clipPath id="z39750c6"><use href="#z39750d6"/></clipPath>
  <clipPath id="z39750c7"><use href="#z39750d7"/></clipPath>
  <clipPath id="z39750c8"><use href="#z39750d8"/></clipPath>
  <clipPath id="z39750c9"><use href="#z39750d9"/></clipPath>
  <clipPath id="z39750c10"><use href="#z39750d10"/></clipPath>
  <clipPath id="z39750c11"><use href="#z39750d11"/></clipPath>
  <clipPath id="z39750c12"><use href="#z39750d12"/></clipPath>
  <clipPath id="z39750c13"><use href="#z39750d13"/></clipPath>
  <clipPath id="z39750c14"><use href="#z39750d14"/></clipPath>
  <clipPath id="z39750c15"><use href="#z39750d15"/></clipPath>
</defs>
<path style="--d:1s;" pathLength="3333" clip-path="url(#z39750c1)" d="M 292 797 L 316 765 L 236 637 L 207 617"/>
<path style="--d:2s;" pathLength="3333" clip-path="url(#z39750c2)" d="M 123 604 L 150 577 L 191 347"/>
<path style="--d:3s;" pathLength="3333" clip-path="url(#z39750c3)" d="M 174 599 L 189 592 L 201 594 L 251 612 L 372 641 L 411 642 L 432 633 L 454 603 L 428 522 L 402 391"/>
<path style="--d:4s;" pathLength="3333" clip-path="url(#z39750c4)" d="M 221 493 L 333 522 L 369 520"/>
<path style="--d:5s;" pathLength="3333" clip-path="url(#z39750c5)" d="M 266 596 L 291 574 L 290 447 L 285 429 L 274 420"/>
<path style="--d:6s;" pathLength="3333" clip-path="url(#z39750c6)" d="M 204 377 L 226 388 L 281 394 L 335 408 L 367 410 L 374 401"/>
<path style="--d:7s;" pathLength="3333" clip-path="url(#z39750c7)" d="M 202 333 L 222 304 L 188 204 L 158 156 L 122 114 L 53 63"/>
<path style="--d:8s;" pathLength="3333" clip-path="url(#z39750c8)" d="M 304 377 L 325 363 L 342 338 L 323 184 L 330 111 L 341 88 L 367 62 L 433 32 L 514 18 L 659 14 L 788 26 L 886 50 L 928 76 L 908 214"/>
<path style="--d:9s;" pathLength="3333" clip-path="url(#z39750c9)" d="M 436 330 L 456 299 L 406 190 L 406 172 L 433 170 L 484 189 L 490 184"/>
<path style="--d:10s;" pathLength="3333" clip-path="url(#z39750c10)" d="M 497 221 L 526 178 L 531 160"/>
<path style="--d:11s;" pathLength="3333" clip-path="url(#z39750c11)" d="M 604 515 L 612 509 L 632 512 L 758 559 L 782 561"/>
<path style="--d:12s;" pathLength="3333" clip-path="url(#z39750c12)" d="M 543 529 L 575 504 L 578 488 L 582 402 L 577 312 L 611 321 L 664 363"/>
<path style="--d:13s;" pathLength="3333" clip-path="url(#z39750c13)" d="M 627 704 L 642 699 L 672 672 L 685 478 L 721 342 L 766 259 L 795 228 L 823 214 L 830 213 L 847 248 L 864 351"/>
<path style="--d:14s;" pathLength="3333" clip-path="url(#z39750c14)" d="M 777 467 L 793 446 L 793 430 L 774 369 L 743 308 L 716 269 L 686 239 L 619 190"/>
<path style="--d:15s;" pathLength="3333" clip-path="url(#z39750c15)" d="M 748 656 L 811 621 L 836 590"/>
</svg>