<svg id="z33603" class="acjk" viewBox="0 0 1024 1024" xmlns="http://www.w3.org/2000/svg">
<style>
<![CDATA[
@keyframes zk {
	to {
		stroke-dashoffset:0;
	}
}
svg.acjk path[clip-path] {
	--t:0.8s;
	animation:zk var(--t) linear forwards var(--d);
	stroke-dasharray:3337;
	stroke-dashoffset:3339;
	stroke-width:128;
	stroke-linecap:round;
	stroke-linejoin:round;
	fill:none;
	stroke:#000;
}
svg.acjk path[id] {fill:#ccc;}
]]>
</style>
  <path id="z33603d1" d="M 624 659 Q 672 668 792 657 Q 808 656 814 666 Q 820 678 806 693 Q 751 741 654 716 Q 650 716 646 714 L 591 706 Q 503 694 405 682 L 355 677 Q 279 671 197 663 Q 166 660 187 643 Q 233 613 315 629 Q 339 635 364 638 L 407 645 Q 438 654 580 657 L 624 659 Z"/>
  <path id="z33603d2" d="M 405 682 Q 404 719 403 749 Q 404 770 384 776 Q 345 797 321 790 Q 302 783 317 761 Q 354 712 355 677 L 364 638 Q 368 593 387 572 Q 400 560 406 573 Q 412 591 407 645 L 405 682 Z"/>
  <path id="z33603d3" d="M 646 714 Q 647 717 649 720 Q 658 742 674 773 Q 687 788 678 798 Q 665 814 630 831 Q 614 841 596 831 Q 586 825 594 814 Q 607 787 591 706 L 580 657 Q 565 606 566 587 Q 567 574 583 585 Q 593 594 624 659 L 646 714 Z"/>
  <path id="z33603d4" d="M 523 538 Q 524 542 529 544 Q 541 556 539 566 Q 536 581 509 590 Q 479 603 466 600 Q 457 599 454 585 Q 414 456 119 251 Q 109 245 98 237 Q 74 222 104 224 Q 212 236 407 417 Q 476 492 505 520 L 523 538 Z"/>
  <path id="z33603d5" d="M 505 520 Q 730 301 782 294 Q 836 285 947 314 Q 966 318 967 323 Q 968 330 954 335 Q 756 393 721 411 Q 646 448 526 536 Q 523 537 523 538 C 499 555 483 541 505 520 Z"/>
  <path id="z33603d6" d="M 504 311 Q 646 338 650 341 Q 659 348 654 356 Q 648 369 620 376 Q 592 383 562 373 Q 514 360 462 349 Q 405 339 339 335 Q 303 331 328 313 Q 367 289 424 299 Q 437 303 456 304 L 504 311 Z"/>
  <path id="z33603d7" d="M 517 171 Q 640 193 645 197 Q 655 204 650 212 Q 644 225 616 233 Q 589 240 520 219 L 466 207 Q 465 208 462 207 Q 407 198 343 195 Q 307 191 332 173 Q 371 149 438 161 Q 450 164 466 164 L 517 171 Z"/>
  <path id="z33603d8" d="M 511 67 Q 514 122 517 171 L 520 219 Q 520 243 523 268 Q 530 289 505 310 L 504 311 C 482 331 448 333 456 304 Q 462 291 466 213 Q 465 212 466 207 L 466 164 Q 466 124 466 64 C 466 34 509 37 511 67 Z"/>
  <path id="z33603d9" d="M 466 64 Q 355 55 230 46 Q 208 45 223 27 Q 238 11 256 5 Q 277 -2 294 2 Q 489 41 775 19 Q 796 18 801 27 Q 807 39 791 54 Q 736 97 700 90 Q 628 80 511 67 L 466 64 Z"/>
<defs>
  <clipPath id="z33603c1"><use href="#z33603d1"/></clipPath>
  <clipPath id="z33603c2"><use href="#z33603d2"/></clipPath>
  <clipPath id="z33603c3"><use href="#z33603d3"/></clipPath>
  <clipPath id="z33603c4"><use href="#z33603d4"/></clipPath>
  <clipPath id="z33603c5"><use href="#z33603d5"/></clipPath>
  <clipPath id="z33603c6"><use href="#z33603d6"/></clipPath>
  <clipPath id="z33603c7"><use href="#z33603d7"/></clipPath>
  <clipPath id="z33603c8"><use href="#z33603d8"/></clipPath>
  <clipPath id="z33603c9"><use href="#z33603d9"/></clipPath>
</defs>
<path style="--d:1s;" pathLength="3333" clip-path="url(#z33603c1)" d="M 190 654 L 244 645 L 286 648 L 448 670 L 702 694 L 753 690 L 800 673"/>
<path style="--d:2s;" pathLength="3333" clip-path="url(#z33603c2)" d="M 326 775 L 353 760 L 370 742 L 396 576"/>
<path style="--d:3s;" pathLength="3333" clip-path="url(#z33603c3)" d="M 601 822 L 617 814 L 637 782 L 602 657 L 575 588"/>
<path style="--d:4s;" pathLength="3333" clip-path="url(#z33603c4)" d="M 522 563 L 486 557 L 381 428 L 289 347 L 186 273 L 108 234"/>
<path style="--d:5s;" pathLength="3333" clip-path="url(#z33603c5)" d="M 521 531 L 543 502 L 617 443 L 694 388 L 770 346 L 833 331 L 961 324"/>
<path style="--d:6s;" pathLength="3333" clip-path="url(#z33603c6)" d="M 331 325 L 387 317 L 514 335 L 587 353 L 645 350"/>
<path style="--d:7s;" pathLength="3333" clip-path="url(#z33603c7)" d="M 335 185 L 409 178 L 582 209 L 639 207"/>
<path style="--d:8s;" pathLength="3333" clip-path="url(#z33603c8)" d="M 462 303 L 493 277 L 490 92 L 473 72"/>
<path style="--d:9s;" pathLength="3333" clip-path="url(#z33603c9)" d="M 226 37 L 249 28 L 285 25 L 430 42 L 713 57 L 789 34"/>
</svg>