<svg id="z32315" class="acjk" viewBox="0 0 1024 1024" xmlns="http://www.w3.org/2000/svg">
<style>
<![CDATA[
@keyframes zk {
	to {
		stroke-dashoffset:0;
	}
}
svg.acjk path[clip-path] {
	--t:0.8s;
	animation:zk var(--t) linear forwards var(--d);
	stroke-dasharray:3337;
	stroke-dashoffset:3339;
	stroke-width:128;
	stroke-linecap:round;
	stroke-linejoin:round;
	fill:none;
	stroke:#000;
}
svg.acjk path[id] {fill:#ccc;}
]]>
</style>
  <path id="z32315d1" d="M 497 797 Q 521 782 546 763 Q 562 753 576 756 Q 586 759 589 772 Q 590 787 578 813 Q 565 837 484 842 Q 469 843 463 839 Q 459 835 463 822 Q 467 812 497 797 Z"/>
  <path id="z32315d2" d="M 328 674 Q 367 667 433 675 Q 736 721 749 730 Q 758 737 754 745 Q 748 757 722 765 Q 700 771 596 744 Q 439 711 318 705 Q 317 705 317 704 C 287 700 298 678 328 674 Z"/>
  <path id="z32315d3" d="M 317 704 Q 302 717 279 727 Q 260 739 246 733 Q 234 726 241 712 Q 263 682 256 596 Q 255 592 255 586 Q 246 409 197 276 Q 155 165 71 39 Q 67 32 64 26 Q 61 16 72 17 Q 100 21 180 137 Q 201 170 220 208 Q 289 365 309 558 Q 318 657 328 674 C 334 692 334 692 317 704 Z"/>
  <path id="z32315d4" d="M 456 541 Q 478 548 505 553 Q 527 560 532 563 Q 538 569 535 575 Q 529 584 507 589 Q 485 592 462 583 L 421 569 Q 414 568 407 565 Q 374 558 337 552 Q 310 548 330 535 Q 360 517 403 530 Q 404 531 409 531 L 456 541 Z"/>
  <path id="z32315d5" d="M 454 519 Q 454 531 456 541 L 462 583 Q 463 599 474 619 Q 478 626 470 636 Q 454 649 434 657 Q 421 663 411 659 Q 401 655 406 645 Q 419 624 421 569 L 421 482 Q 418 410 428 392 Q 435 382 445 387 Q 452 393 453 503 L 454 519 Z"/>
  <path id="z32315d6" d="M 409 531 Q 373 468 289 378 Q 285 371 292 369 Q 301 366 367 419 Q 394 443 421 482 C 462 541 424 557 409 531 Z"/>
  <path id="z32315d7" d="M 453 503 Q 495 457 512 458 Q 521 457 524 469 Q 524 478 517 490 Q 504 512 456 519 Q 455 520 454 519 C 438 520 438 520 453 503 Z"/>
  <path id="z32315d8" d="M 684 567 Q 721 577 762 586 Q 790 593 796 597 Q 803 604 799 611 Q 792 620 769 625 Q 745 629 688 607 L 646 595 Q 607 588 566 582 Q 536 576 558 564 Q 583 551 622 553 L 684 567 Z"/>
  <path id="z32315d9" d="M 683 566 Q 683 567 684 567 L 688 607 Q 689 625 700 645 Q 704 652 696 663 Q 678 676 657 684 Q 644 691 634 686 Q 624 682 629 672 Q 644 647 646 595 L 647 524 Q 644 424 655 400 Q 662 388 674 395 Q 684 404 681 470 Q 680 501 681 531 C 682 560 682 560 683 566 Z"/>
  <path id="z32315d10" d="M 622 553 Q 595 505 525 420 C 506 397 508 393 533 409 Q 534 410 541 414 Q 604 457 645 520 Q 646 521 647 524 C 670 567 640 584 622 553 Z"/>
  <path id="z32315d11" d="M 681 531 Q 718 473 767 407 Q 785 386 885 400 Q 891 401 892 405 Q 893 408 884 413 Q 785 461 703 545 Q 693 555 683 566 C 663 588 665 556 681 531 Z"/>
  <path id="z32315d12" d="M 525 420 Q 521 426 517 428 Q 504 435 496 433 Q 489 429 491 417 Q 500 375 430 327 Q 409 308 396 306 Q 374 305 366 293 Q 353 271 355 258 Q 358 242 373 248 Q 389 263 508 263 C 538 263 562 273 533 281 Q 523 285 496 288 Q 463 291 445 294 Q 444 298 444 300 Q 445 301 529 350 Q 556 357 547 381 Q 540 397 533 409 L 525 420 Z"/>
  <path id="z32315d13" d="M 508 263 Q 399 191 381 186 Q 368 182 368 170 Q 367 160 383 139 Q 389 126 403 133 Q 463 160 521 173 L 549 180 Q 606 193 663 200 Q 664 201 670 201 C 700 205 687 218 657 216 Q 561 209 449 188 Q 448 187 448 188 Q 493 219 593 276 Q 627 298 654 308 Q 667 312 664 322 Q 661 341 640 365 Q 630 378 622 378 Q 612 378 610 365 Q 601 335 533 281 L 508 263 Z"/>
  <path id="z32315d14" d="M 670 201 Q 698 164 708 161 Q 715 160 722 169 Q 726 179 725 201 Q 722 229 648 267 Q 638 271 632 270 Q 628 269 627 259 Q 628 250 645 232 Q 651 225 657 216 L 670 201 Z"/>
  <path id="z32315d15" d="M 521 173 Q 533 161 532 52 Q 531 34 528 30 Q 525 20 505 22 Q 471 32 433 41 Q 424 42 423 37 Q 422 33 431 24 Q 498 -22 521 -52 Q 537 -65 548 -61 Q 557 -58 566 -31 Q 579 -4 578 46 Q 575 95 576 114 Q 583 147 569 164 Q 559 174 549 180 C 524 197 508 200 521 173 Z"/>
  <path id="z32315d16" d="M 361 111 Q 337 77 308 46 Q 286 21 296 -11 Q 300 -27 320 -20 Q 365 4 375 58 Q 385 86 382 108 Q 379 115 374 118 Q 367 118 361 111 Z"/>
  <path id="z32315d17" d="M 660 96 Q 700 59 749 4 Q 764 -14 778 -18 Q 785 -19 793 -10 Q 803 3 792 42 Q 785 78 722 103 Q 682 118 661 124 Q 652 128 651 117 Q 650 105 660 96 Z"/>
<defs>
  <clipPath id="z32315c1"><use href="#z32315d1"/></clipPath>
  <clipPath id="z32315c2"><use href="#z32315d2"/></clipPath>
  <clipPath id="z32315c3"><use href="#z32315d3"/></clipPath>
  <clipPath id="z32315c4"><use href="#z32315d4"/></clipPath>
  <clipPath id="z32315c5"><use href="#z32315d5"/></clipPath>
  <clipPath id="z32315c6"><use href="#z32315d6"/></clipPath>
  <clipPath id="z32315c7"><use href="#z32315d7"/></clipPath>
  <clipPath id="z32315c8"><use href="#z32315d8"/></clipPath>
  <clipPath id="z32315c9"><use href="#z32315d9"/></clipPath>
  <clipPath id="z32315c10"><use href="#z32315d10"/></clipPath>
  <clipPath id="z32315c11"><use href="#z32315d11"/></clipPath>
  <clipPath id="z32315c12"><use href="#z32315d12"/></clipPath>
  <clipPath id="z32315c13"><use href="#z32315d13"/></clipPath>
  <clipPath id="z32315c14"><use href="#z32315d14"/></clipPath>
  <clipPath id="z32315c15"><use href="#z32315d15"/></clipPath>
  <clipPath id="z32315c16"><use href="#z32315d16"/></clipPath>
  <clipPath id="z32315c17"><use href="#z32315d17"/></clipPath>
</defs>
<path style="--d:1s;" pathLength="3333" clip-path="url(#z32315c1)" d="M 469 834 L 539 805 L 570 774"/>
<path style="--d:2s;" pathLength="3333" clip-path="url(#z32315c2)" d="M 324 698 L 348 689 L 405 691 L 498 703 L 702 743 L 743 740"/>
<path style="--d:3s;" pathLength="3333" clip-path="url(#z32315c3)" d="M 252 720 L 275 701 L 291 674 L 276 504 L 250 365 L 218 265 L 178 176 L 133 100 L 72 25"/>
<path style="--d:4s;" pathLength="3333" clip-path="url(#z32315c4)" d="M 331 544 L 376 542 L 487 570 L 524 571"/>
<path style="--d:5s;" pathLength="3333" clip-path="url(#z32315c5)" d="M 418 649 L 443 620 L 435 470 L 440 392"/>
<path style="--d:6s;" pathLength="3333" clip-path="url(#z32315c6)" d="M 416 527 L 404 488 L 369 443 L 350 420 L 294 375"/>
<path style="--d:7s;" pathLength="3333" clip-path="url(#z32315c7)" d="M 455 515 L 513 469"/>
<path style="--d:8s;" pathLength="3333" clip-path="url(#z32315c8)" d="M 559 574 L 626 572 L 756 606 L 789 606"/>
<path style="--d:9s;" pathLength="3333" clip-path="url(#z32315c9)" d="M 642 675 L 668 646 L 662 512 L 667 403"/>
<path style="--d:10s;" pathLength="3333" clip-path="url(#z32315c10)" d="M 641 553 L 610 500 L 533 418"/>
<path style="--d:11s;" pathLength="3333" clip-path="url(#z32315c11)" d="M 687 560 L 693 536 L 704 521 L 790 430 L 849 411 L 886 407"/>
<path style="--d:12s;" pathLength="3333" clip-path="url(#z32315c12)" d="M 500 425 L 513 403 L 513 375 L 471 336 L 432 311 L 419 286 L 450 276 L 487 277 L 495 272 L 517 280"/>
<path style="--d:13s;" pathLength="3333" clip-path="url(#z32315c13)" d="M 622 366 L 627 331 L 558 276 L 450 209 L 444 203 L 450 170 L 597 200 L 651 208 L 666 204"/>
<path style="--d:14s;" pathLength="3333" clip-path="url(#z32315c14)" d="M 635 262 L 689 215 L 702 199 L 710 171"/>
<path style="--d:15s;" pathLength="3333" clip-path="url(#z32315c15)" d="M 528 174 L 550 153 L 555 125 L 555 37 L 541 -4 L 534 -11 L 509 -4 L 431 33"/>
<path style="--d:16s;" pathLength="3333" clip-path="url(#z32315c16)" d="M 371 108 L 350 55 L 311 -8"/>
<path style="--d:17s;" pathLength="3333" clip-path="url(#z32315c17)" d="M 661 113 L 746 55 L 761 38 L 779 -4"/>
</svg>