<svg id="z38151" class="acjk" viewBox="0 0 1024 1024" xmlns="http://www.w3.org/2000/svg">
<style>
<![CDATA[
@keyframes zk {
	to {
		stroke-dashoffset:0;
	}
}
svg.acjk path[clip-path] {
	--t:0.8s;
	animation:zk var(--t) linear forwards var(--d);
	stroke-dasharray:3337;
	stroke-dashoffset:3339;
	stroke-width:128;
	stroke-linecap:round;
	stroke-linejoin:round;
	fill:none;
	stroke:#000;
}
svg.acjk path[id] {fill:#ccc;}
]]>
</style>
  <path id="z38151d1" d="M 281 621 Q 324 703 351 729 Q 360 739 355 753 Q 351 766 322 787 Q 295 805 276 804 Q 258 803 267 781 Q 280 750 270 724 Q 236 636 183 553 Q 132 474 62 387 Q 52 377 50 370 Q 47 360 61 362 Q 110 371 259 586 Q 260 590 264 594 L 281 621 Z"/>
  <path id="z38151d2" d="M 264 594 Q 300 585 367 602 Q 394 609 425 618 Q 443 624 445 626 Q 452 633 448 642 Q 441 652 413 656 Q 400 657 317 630 Q 301 626 281 621 C 252 614 235 600 264 594 Z"/>
  <path id="z38151d3" d="M 275 452 Q 278 456 373 483 Q 395 490 398 494 Q 405 503 400 510 Q 393 520 365 523 Q 341 526 264 492 Q 231 483 196 475 Q 165 466 189 453 Q 210 447 231 443 C 249 439 249 439 275 452 Z"/>
  <path id="z38151d4" d="M 301 317 Q 389 344 393 346 Q 400 353 396 361 Q 389 371 361 377 Q 319 383 301 365 L 254 348 Q 173 329 142 323 Q 109 316 134 301 Q 173 283 256 305 L 301 317 Z"/>
  <path id="z38151d5" d="M 256 305 Q 256 155 211 98 Q 190 67 229 27 L 231 26 Q 243 19 254 35 Q 266 60 384 173 Q 400 186 404 194 Q 408 204 398 203 Q 386 203 301 151 Q 294 147 292 153 Q 299 244 301 317 L 301 365 Q 301 389 306 408 Q 310 421 302 431 Q 289 444 275 452 C 250 469 220 471 231 443 Q 250 400 254 348 L 256 305 Z"/>
  <path id="z38151d6" d="M 532 572 Q 550 590 604 616 Q 617 620 619 627 Q 620 636 608 642 Q 554 666 527 655 Q 523 651 523 642 Q 527 611 418 522 Q 417 513 421 512 Q 439 518 485 544 Q 494 548 504 554 L 532 572 Z"/>
  <path id="z38151d7" d="M 698 462 Q 704 465 817 489 Q 827 488 835 502 Q 835 512 812 522 Q 767 540 697 507 Q 694 507 693 506 L 650 492 Q 620 483 563 466 L 515 456 Q 472 447 426 437 Q 398 431 421 416 Q 451 395 494 405 Q 501 408 515 411 L 561 425 Q 603 438 654 451 L 698 462 Z"/>
  <path id="z38151d8" d="M 563 466 Q 563 491 567 516 Q 571 538 567 547 Q 560 557 532 572 C 506 587 494 582 504 554 Q 505 554 506 552 Q 515 534 515 456 L 515 411 Q 515 369 514 314 L 514 274 Q 514 130 504 117 Q 497 111 435 131 Q 425 134 425 128 Q 425 121 433 113 Q 481 67 511 31 Q 521 22 533 36 Q 563 78 565 170 Q 559 275 559 303 L 559 335 Q 559 381 561 425 L 563 466 Z"/>
  <path id="z38151d9" d="M 514 314 Q 418 272 395 268 Q 385 267 385 258 Q 384 248 393 242 Q 412 232 440 221 Q 447 220 457 228 Q 487 261 514 274 L 559 303 Q 616 340 623 349 Q 633 356 632 363 Q 628 367 618 363 Q 590 350 559 335 L 514 314 Z"/>
  <path id="z38151d10" d="M 709 202 Q 737 115 810 38 Q 865 -14 895 -16 Q 916 -13 910 15 Q 909 64 922 207 Q 923 229 915 230 Q 908 230 901 211 Q 885 172 869 140 Q 856 106 842 107 Q 832 107 810 130 Q 773 176 746 237 L 730 283 Q 708 356 700 447 Q 699 454 698 462 L 693 506 Q 683 648 705 735 Q 721 775 668 801 Q 634 820 614 814 Q 593 810 601 789 Q 643 743 640 710 Q 641 586 650 492 L 654 451 Q 663 351 696 240 L 709 202 Z"/>
  <path id="z38151d11" d="M 696 240 Q 671 210 617 159 Q 610 155 619 152 Q 640 152 707 201 Q 707 202 709 202 L 746 237 Q 783 276 843 363 Q 849 373 854 377 Q 861 381 859 391 Q 858 400 846 410 Q 818 435 787 431 Q 780 430 781 418 Q 790 379 730 283 L 696 240 Z"/>
  <path id="z38151d12" d="M 755 641 Q 783 614 812 582 Q 822 572 835 570 Q 844 570 849 581 Q 853 593 849 617 Q 845 638 816 655 Q 749 688 736 683 Q 732 680 732 669 Q 735 659 755 641 Z"/>
<defs>
  <clipPath id="z38151c1"><use href="#z38151d1"/></clipPath>
  <clipPath id="z38151c2"><use href="#z38151d2"/></clipPath>
  <clipPath id="z38151c3"><use href="#z38151d3"/></clipPath>
  <clipPath id="z38151c4"><use href="#z38151d4"/></clipPath>
  <clipPath id="z38151c5"><use href="#z38151d5"/></clipPath>
  <clipPath id="z38151c6"><use href="#z38151d6"/></clipPath>
  <clipPath id="z38151c7"><use href="#z38151d7"/></clipPath>
  <clipPath id="z38151c8"><use href="#z38151d8"/></clipPath>
  <clipPath id="z38151c9"><use href="#z38151d9"/></clipPath>
  <clipPath id="z38151c10"><use href="#z38151d10"/></clipPath>
  <clipPath id="z38151c11"><use href="#z38151d11"/></clipPath>
  <clipPath id="z38151c12"><use href="#z38151d12"/></clipPath>
</defs>
<path style="--d:1s;" pathLength="3333" clip-path="url(#z38151c1)" d="M 276 791 L 301 767 L 312 742 L 264 642 L 179 507 L 96 403 L 59 370"/>
<path style="--d:2s;" pathLength="3333" clip-path="url(#z38151c2)" d="M 271 599 L 407 635 L 437 636"/>
<path style="--d:3s;" pathLength="3333" clip-path="url(#z38151c3)" d="M 190 465 L 228 462 L 346 499 L 390 503"/>
<path style="--d:4s;" pathLength="3333" clip-path="url(#z38151c4)" d="M 135 313 L 191 312 L 273 331 L 335 354 L 388 355"/>
<path style="--d:5s;" pathLength="3333" clip-path="url(#z38151c5)" d="M 239 439 L 275 413 L 279 311 L 265 150 L 270 118 L 310 129 L 397 196"/>
<path style="--d:6s;" pathLength="3333" clip-path="url(#z38151c6)" d="M 610 629 L 553 626 L 500 571 L 443 530 L 430 529 L 423 518"/>
<path style="--d:7s;" pathLength="3333" clip-path="url(#z38151c7)" d="M 422 427 L 457 423 L 491 428 L 758 502 L 824 502"/>
<path style="--d:8s;" pathLength="3333" clip-path="url(#z38151c8)" d="M 509 557 L 533 545 L 541 528 L 535 260 L 540 180 L 535 126 L 527 97 L 515 82 L 489 91 L 431 126"/>
<path style="--d:9s;" pathLength="3333" clip-path="url(#z38151c9)" d="M 398 255 L 439 253 L 582 331 L 625 361"/>
<path style="--d:10s;" pathLength="3333" clip-path="url(#z38151c10)" d="M 614 798 L 647 779 L 671 751 L 666 602 L 672 487 L 687 372 L 715 254 L 765 144 L 788 109 L 832 70 L 863 63 L 872 76 L 900 157 L 914 224"/>
<path style="--d:11s;" pathLength="3333" clip-path="url(#z38151c11)" d="M 795 420 L 816 387 L 775 309 L 689 206 L 622 157"/>
<path style="--d:12s;" pathLength="3333" clip-path="url(#z38151c12)" d="M 740 674 L 815 621 L 834 585"/>
</svg>