<svg id="z39048" class="acjk" viewBox="0 0 1024 1024" xmlns="http://www.w3.org/2000/svg">
<style>
<![CDATA[
@keyframes zk {
	to {
		stroke-dashoffset:0;
	}
}
svg.acjk path[clip-path] {
	--t:0.8s;
	animation:zk var(--t) linear forwards var(--d);
	stroke-dasharray:3337;
	stroke-dashoffset:3339;
	stroke-width:128;
	stroke-linecap:round;
	stroke-linejoin:round;
	fill:none;
	stroke:#000;
}
svg.acjk path[id] {fill:#ccc;}
]]>
</style>
  <path id="z39048d1" d="M 327 557 Q 366 603 406 661 Q 422 688 454 715 Q 467 725 462 734 Q 459 743 402 762 Q 387 769 342 744 Q 276 714 190 698 Q 172 694 185 681 Q 209 666 246 678 Q 295 691 334 704 Q 349 708 354 702 Q 357 696 348 680 Q 282 544 105 398 Q 92 386 106 385 Q 187 400 312 540 L 327 557 Z"/>
  <path id="z39048d2" d="M 312 540 Q 315 537 321 534 Q 379 506 450 464 Q 468 451 481 452 Q 488 453 492 463 Q 499 476 478 508 Q 456 548 327 557 C 297 559 288 558 312 540 Z"/>
  <path id="z39048d3" d="M 352 367 Q 436 391 440 393 Q 449 400 443 409 Q 436 419 408 426 Q 378 430 350 417 Q 319 405 283 396 Q 246 386 199 380 Q 165 373 190 358 Q 232 340 295 355 Q 301 356 308 357 L 352 367 Z"/>
  <path id="z39048d4" d="M 308 357 Q 308 354 309 222 C 309 192 346 205 351 235 Q 358 281 363 317 Q 369 348 358 360 Q 355 364 352 367 C 332 389 308 387 308 357 Z"/>
  <path id="z39048d5" d="M 309 222 Q 245 206 176 185 Q 157 179 126 181 Q 113 180 111 169 Q 108 156 118 146 Q 142 130 176 110 Q 186 107 199 116 Q 226 137 403 219 Q 427 229 444 243 Q 457 250 458 260 Q 452 266 440 263 Q 397 250 351 235 L 309 222 Z"/>
  <path id="z39048d6" d="M 641 702 Q 696 717 851 718 Q 867 719 872 726 Q 876 736 862 748 Q 811 781 757 764 Q 660 745 502 715 Q 484 714 498 699 Q 511 687 526 683 Q 529 683 606 695 L 641 702 Z"/>
  <path id="z39048d7" d="M 601 571 Q 619 589 645 632 Q 652 642 663 655 Q 676 665 669 674 Q 662 687 641 702 C 617 720 601 725 606 695 Q 612 671 585 594 Q 578 578 577 566 C 574 543 580 549 601 571 Z"/>
  <path id="z39048d8" d="M 558 564 Q 539 579 518 585 Q 511 586 505 579 Q 501 575 508 565 Q 545 466 507 300 Q 506 296 504 289 Q 497 267 500 249 Q 507 219 518 208 Q 528 195 537 208 Q 562 235 563 333 Q 563 475 573 536 C 575 552 575 552 558 564 Z"/>
  <path id="z39048d9" d="M 735 265 Q 728 243 740 222 Q 753 194 762 194 Q 775 195 792 226 Q 807 251 806 271 Q 797 353 802 480 Q 802 517 823 548 Q 833 563 826 572 Q 799 596 753 614 Q 738 620 716 611 Q 707 608 601 571 L 577 566 Q 567 566 558 564 C 528 561 543 531 573 536 Q 577 536 583 537 Q 724 573 735 567 Q 745 545 748 483 Q 747 300 735 265 Z"/>
  <path id="z39048d10" d="M 634 425 Q 637 233 583 148 Q 567 127 542 105 Q 511 77 440 40 Q 428 36 426 33 Q 422 29 435 26 Q 447 25 490 39 Q 521 48 567 75 Q 679 147 681 362 Q 681 408 695 453 Q 699 463 691 469 Q 643 508 612 498 Q 596 491 609 476 Q 634 451 634 425 Z"/>
  <path id="z39048d11" d="M 696 145 Q 742 100 799 35 Q 814 16 829 10 Q 838 9 845 19 Q 858 31 846 75 Q 834 127 698 176 Q 689 180 687 169 Q 686 156 696 145 Z"/>
<defs>
  <clipPath id="z39048c1"><use href="#z39048d1"/></clipPath>
  <clipPath id="z39048c2"><use href="#z39048d2"/></clipPath>
  <clipPath id="z39048c3"><use href="#z39048d3"/></clipPath>
  <clipPath id="z39048c4"><use href="#z39048d4"/></clipPath>
  <clipPath id="z39048c5"><use href="#z39048d5"/></clipPath>
  <clipPath id="z39048c6"><use href="#z39048d6"/></clipPath>
  <clipPath id="z39048c7"><use href="#z39048d7"/></clipPath>
  <clipPath id="z39048c8"><use href="#z39048d8"/></clipPath>
  <clipPath id="z39048c9"><use href="#z39048d9"/></clipPath>
  <clipPath id="z39048c10"><use href="#z39048d10"/></clipPath>
  <clipPath id="z39048c11"><use href="#z39048d11"/></clipPath>
</defs>
<path style="--d:1s;" pathLength="3333" clip-path="url(#z39048c1)" d="M 188 689 L 219 688 L 343 725 L 384 724 L 395 716 L 384 683 L 354 633 L 262 516 L 188 445 L 110 392"/>
<path style="--d:2s;" pathLength="3333" clip-path="url(#z39048c2)" d="M 319 541 L 338 544 L 415 516 L 452 496 L 478 466"/>
<path style="--d:3s;" pathLength="3333" clip-path="url(#z39048c3)" d="M 192 370 L 252 368 L 388 403 L 435 402"/>
<path style="--d:4s;" pathLength="3333" clip-path="url(#z39048c4)" d="M 316 356 L 337 329 L 331 252 L 312 236"/>
<path style="--d:5s;" pathLength="3333" clip-path="url(#z39048c5)" d="M 125 167 L 146 156 L 187 151 L 386 226 L 452 257"/>
<path style="--d:6s;" pathLength="3333" clip-path="url(#z39048c6)" d="M 500 707 L 527 701 L 783 743 L 832 740 L 863 731"/>
<path style="--d:7s;" pathLength="3333" clip-path="url(#z39048c7)" d="M 613 692 L 635 667 L 608 605 L 582 572"/>
<path style="--d:8s;" pathLength="3333" clip-path="url(#z39048c8)" d="M 515 574 L 541 546 L 546 524 L 544 385 L 527 247 L 528 212"/>
<path style="--d:9s;" pathLength="3333" clip-path="url(#z39048c9)" d="M 564 558 L 594 551 L 663 575 L 738 592 L 762 579 L 781 556 L 774 494 L 772 274 L 763 204"/>
<path style="--d:10s;" pathLength="3333" clip-path="url(#z39048c10)" d="M 615 486 L 636 478 L 662 452 L 651 276 L 622 172 L 603 138 L 579 111 L 537 77 L 461 38 L 434 34"/>
<path style="--d:11s;" pathLength="3333" clip-path="url(#z39048c11)" d="M 698 164 L 804 82 L 826 45 L 830 25"/>
</svg>