<svg id="z37099" class="acjk" viewBox="0 0 1024 1024" xmlns="http://www.w3.org/2000/svg">
<style>
<![CDATA[
@keyframes zk {
	to {
		stroke-dashoffset:0;
	}
}
svg.acjk path[clip-path] {
	--t:0.8s;
	animation:zk var(--t) linear forwards var(--d);
	stroke-dasharray:3337;
	stroke-dashoffset:3339;
	stroke-width:128;
	stroke-linecap:round;
	stroke-linejoin:round;
	fill:none;
	stroke:#000;
}
svg.acjk path[id] {fill:#ccc;}
]]>
</style>
  <path id="z37099d1" d="M 306 670 Q 330 695 346 715 Q 388 773 413 790 Q 429 803 416 817 Q 400 829 374 836 Q 350 843 340 837 Q 330 833 335 822 Q 347 798 277 667 Q 276 666 275 662 C 263 634 285 648 306 670 Z"/>
  <path id="z37099d2" d="M 233 653 Q 221 660 189 664 Q 179 668 175 663 Q 169 657 177 642 Q 207 575 224 469 Q 227 436 245 415 Q 261 394 266 409 Q 269 419 270 431 L 269 453 Q 268 465 266 479 Q 247 588 242 623 C 238 651 238 651 233 653 Z"/>
  <path id="z37099d3" d="M 441 457 Q 457 433 473 426 Q 483 419 497 439 Q 510 464 534 596 Q 541 624 561 648 Q 573 660 562 672 Q 547 688 507 710 Q 489 717 474 711 Q 446 704 412 695 Q 364 685 306 670 L 275 662 Q 253 658 233 653 C 204 646 214 613 242 623 Q 275 635 324 645 L 356 652 Q 393 662 437 670 Q 464 676 473 666 Q 486 653 484 637 Q 466 499 452 485 C 439 459 439 459 441 457 Z"/>
  <path id="z37099d4" d="M 375 542 Q 408 551 437 554 Q 458 558 449 569 Q 439 582 417 585 Q 401 586 380 581 L 334 565 Q 306 556 282 548 Q 267 544 286 531 Q 290 528 332 533 L 375 542 Z"/>
  <path id="z37099d5" d="M 355 443 Q 400 453 441 457 C 471 460 477 469 452 485 Q 448 489 439 490 Q 415 493 364 477 L 323 466 Q 293 460 269 453 C 240 445 240 433 270 431 Q 277 430 287 431 Q 300 434 316 436 L 355 443 Z"/>
  <path id="z37099d6" d="M 316 436 Q 297 381 257 307 Q 253 303 252 298 Q 251 291 257 292 Q 281 296 329 378 Q 330 384 334 389 Q 346 414 355 443 L 364 477 Q 370 510 375 542 L 380 581 Q 381 588 382 595 Q 383 605 385 614 Q 392 624 386 633 Q 376 643 356 652 C 329 665 306 669 324 645 L 325 644 Q 343 626 334 565 L 332 533 Q 329 500 323 466 L 316 436 Z"/>
  <path id="z37099d7" d="M 414 270 Q 475 283 548 291 Q 564 294 565 301 Q 566 314 549 323 Q 522 335 500 330 Q 454 320 416 311 L 362 299 Q 215 271 109 258 Q 96 257 94 249 Q 90 239 105 227 Q 145 200 185 212 Q 335 260 363 260 L 414 270 Z"/>
  <path id="z37099d8" d="M 366 24 Q 370 3 375 -6 Q 379 -12 386 -9 Q 393 -6 397 6 Q 410 48 411 132 Q 410 163 414 270 L 416 311 Q 416 326 423 351 Q 426 366 414 374 Q 386 393 374 395 Q 364 399 350 392 Q 343 385 348 376 Q 361 349 362 299 L 363 260 Q 363 43 366 24 Z"/>
  <path id="z37099d9" d="M 662 614 Q 755 654 772 648 Q 782 641 774 619 Q 728 505 729 497 Q 729 485 750 478 Q 790 448 818 403 Q 843 364 844 328 Q 843 310 831 299 Q 818 289 791 291 Q 749 297 714 300 Q 705 301 707 293 Q 710 286 725 277 Q 806 238 823 214 Q 830 202 842 201 Q 852 201 866 212 Q 903 257 905 311 Q 906 393 793 488 Q 760 506 784 538 Q 806 571 823 592 Q 839 619 864 630 Q 892 648 867 666 Q 830 697 806 707 Q 788 713 773 702 Q 746 681 659 649 Q 655 648 650 645 C 622 634 634 602 662 614 Z"/>
  <path id="z37099d10" d="M 607 -9 Q 611 -33 618 -41 Q 624 -48 631 -46 Q 646 -37 650 19 Q 659 103 655 185 Q 654 216 653 548 Q 653 564 662 614 C 666 636 666 636 650 645 Q 620 664 607 666 Q 595 670 580 662 Q 573 655 579 644 Q 583 634 590 624 Q 603 600 605 565 Q 608 417 603 185 Q 602 40 607 -9 Z"/>
<defs>
  <clipPath id="z37099c1"><use href="#z37099d1"/></clipPath>
  <clipPath id="z37099c2"><use href="#z37099d2"/></clipPath>
  <clipPath id="z37099c3"><use href="#z37099d3"/></clipPath>
  <clipPath id="z37099c4"><use href="#z37099d4"/></clipPath>
  <clipPath id="z37099c5"><use href="#z37099d5"/></clipPath>
  <clipPath id="z37099c6"><use href="#z37099d6"/></clipPath>
  <clipPath id="z37099c7"><use href="#z37099d7"/></clipPath>
  <clipPath id="z37099c8"><use href="#z37099d8"/></clipPath>
  <clipPath id="z37099c9"><use href="#z37099d9"/></clipPath>
  <clipPath id="z37099c10"><use href="#z37099d10"/></clipPath>
</defs>
<path style="--d:1s;" pathLength="3333" clip-path="url(#z37099c1)" d="M 405 805 L 371 801 L 303 684 L 284 678"/>
<path style="--d:2s;" pathLength="3333" clip-path="url(#z37099c2)" d="M 183 656 L 210 633 L 214 622 L 256 414"/>
<path style="--d:3s;" pathLength="3333" clip-path="url(#z37099c3)" d="M 245 632 L 257 644 L 435 686 L 473 690 L 494 685 L 520 657 L 491 512 L 474 462 L 479 444"/>
<path style="--d:4s;" pathLength="3333" clip-path="url(#z37099c4)" d="M 284 539 L 401 567 L 441 563"/>
<path style="--d:5s;" pathLength="3333" clip-path="url(#z37099c5)" d="M 274 437 L 378 466 L 429 473 L 443 481"/>
<path style="--d:6s;" pathLength="3333" clip-path="url(#z37099c6)" d="M 331 642 L 354 631 L 361 621 L 342 465 L 311 376 L 276 317 L 258 298"/>
<path style="--d:7s;" pathLength="3333" clip-path="url(#z37099c7)" d="M 106 245 L 163 236 L 497 308 L 554 304"/>
<path style="--d:8s;" pathLength="3333" clip-path="url(#z37099c8)" d="M 358 383 L 389 349 L 383 1"/>
<path style="--d:9s;" pathLength="3333" clip-path="url(#z37099c9)" d="M 657 642 L 672 636 L 786 675 L 803 668 L 818 651 L 763 540 L 753 501 L 838 415 L 865 366 L 873 334 L 870 294 L 844 256 L 714 293"/>
<path style="--d:10s;" pathLength="3333" clip-path="url(#z37099c10)" d="M 590 652 L 614 636 L 630 609 L 627 -37"/>
</svg>