<svg id="z33202" class="acjk" viewBox="0 0 1024 1024" xmlns="http://www.w3.org/2000/svg">
<style>
<![CDATA[
@keyframes zk {
	to {
		stroke-dashoffset:0;
	}
}
svg.acjk path[clip-path] {
	--t:0.8s;
	animation:zk var(--t) linear forwards var(--d);
	stroke-dasharray:3337;
	stroke-dashoffset:3339;
	stroke-width:128;
	stroke-linecap:round;
	stroke-linejoin:round;
	fill:none;
	stroke:#000;
}
svg.acjk path[id] {fill:#ccc;}
]]>
</style>
  <path id="z33202d1" d="M 199 349 Q 209 469 211 470 L 212 501 Q 212 628 214 651 C 215 676 215 676 205 682 Q 189 694 164 701 Q 145 710 133 703 Q 123 696 131 683 Q 188 626 149 329 Q 145 310 141 288 Q 117 194 55 62 Q 51 55 50 49 Q 49 39 59 42 Q 89 51 147 170 Q 159 198 170 229 Q 185 275 194 324 L 199 349 Z"/>
  <path id="z33202d2" d="M 214 651 Q 235 651 288 668 Q 304 671 313 661 Q 323 651 323 613 Q 327 318 311 141 Q 310 119 303 109 Q 299 105 283 108 Q 264 114 243 120 Q 224 130 224 120 Q 266 68 288 31 Q 300 12 314 5 Q 324 1 332 10 Q 377 55 377 133 Q 361 598 390 648 Q 403 667 391 678 Q 369 697 333 713 Q 315 720 300 715 Q 275 699 258 694 Q 239 688 205 682 C 176 676 184 647 214 651 Z"/>
  <path id="z33202d3" d="M 211 470 Q 212 470 216 470 Q 261 479 294 484 Q 315 490 306 501 Q 294 514 270 515 Q 248 516 212 501 C 184 490 181 470 211 470 Z"/>
  <path id="z33202d4" d="M 194 324 L 289 336 Q 311 342 302 353 Q 290 366 266 368 Q 244 369 206 354 Q 202 353 199 349 C 178 327 173 321 194 324 Z"/>
  <path id="z33202d5" d="M 505 554 Q 533 591 564 641 Q 580 672 597 688 Q 604 697 600 709 Q 596 719 571 740 Q 547 755 531 755 Q 515 752 522 733 Q 540 697 467 573 Q 466 573 466 572 Q 432 520 389 459 Q 380 450 379 445 Q 376 435 388 437 Q 409 440 477 519 L 505 554 Z"/>
  <path id="z33202d6" d="M 521 255 Q 522 261 522 267 Q 526 451 533 493 Q 540 517 531 526 Q 516 542 505 554 C 485 576 468 547 477 519 Q 501 458 469 300 Q 445 222 484 182 Q 500 169 510 192 Q 517 216 521 241 L 521 255 Z"/>
  <path id="z33202d7" d="M 673 716 Q 724 665 742 663 Q 752 664 757 677 Q 761 690 753 719 Q 749 735 723 747 Q 660 769 648 763 Q 644 759 644 747 Q 648 737 673 716 Z"/>
  <path id="z33202d8" d="M 674 549 Q 728 565 788 579 Q 822 589 828 594 Q 835 601 831 609 Q 824 619 797 625 Q 770 629 688 597 Q 609 575 555 566 Q 521 559 546 545 Q 585 526 636 540 Q 637 541 639 540 L 674 549 Z"/>
  <path id="z33202d9" d="M 702 463 Q 745 475 785 484 Q 807 490 798 501 Q 786 514 762 516 Q 741 517 708 506 L 650 484 Q 607 471 569 457 Q 554 453 574 439 Q 586 433 607 438 Q 626 444 650 449 L 702 463 Z"/>
  <path id="z33202d10" d="M 695 363 Q 750 379 797 388 Q 819 394 809 405 Q 799 418 774 421 Q 747 422 697 403 L 649 386 Q 606 373 570 361 Q 554 357 574 343 Q 581 339 649 352 L 695 363 Z"/>
  <path id="z33202d11" d="M 690 291 Q 691 328 695 363 L 697 403 Q 698 434 702 463 L 708 506 Q 709 519 704 525 Q 689 541 674 549 C 648 564 630 569 639 540 Q 648 513 650 484 L 650 449 Q 650 425 649 386 L 649 352 Q 648 321 648 281 C 648 251 689 261 690 291 Z"/>
  <path id="z33202d12" d="M 648 281 Q 525 260 521 255 C 510 251 510 251 521 241 Q 520 241 522 239 Q 552 215 585 225 Q 678 255 835 263 Q 848 263 859 264 Q 877 265 881 273 Q 885 283 870 295 Q 815 328 754 308 Q 726 302 690 291 L 648 281 Z"/>
  <path id="z33202d13" d="M 460 138 Q 436 98 407 65 Q 385 35 398 1 Q 404 -17 425 -7 Q 473 23 478 80 Q 487 111 482 135 Q 478 144 473 145 Q 464 145 460 138 Z"/>
  <path id="z33202d14" d="M 559 90 Q 569 66 578 38 Q 582 22 596 17 Q 605 13 613 22 Q 623 31 627 58 Q 628 88 573 129 Q 563 138 557 138 Q 551 137 548 127 Q 547 117 559 90 Z"/>
  <path id="z33202d15" d="M 681 112 Q 696 90 711 65 Q 720 52 733 49 Q 742 48 749 57 Q 756 69 755 95 Q 752 120 687 153 Q 674 160 668 159 Q 664 156 662 145 Q 663 135 681 112 Z"/>
  <path id="z33202d16" d="M 820 120 Q 854 81 890 35 Q 902 19 918 17 Q 928 16 937 29 Q 944 44 940 76 Q 936 118 823 170 Q 807 177 800 175 Q 794 172 794 158 Q 795 146 820 120 Z"/>
<defs>
  <clipPath id="z33202c1"><use href="#z33202d1"/></clipPath>
  <clipPath id="z33202c2"><use href="#z33202d2"/></clipPath>
  <clipPath id="z33202c3"><use href="#z33202d3"/></clipPath>
  <clipPath id="z33202c4"><use href="#z33202d4"/></clipPath>
  <clipPath id="z33202c5"><use href="#z33202d5"/></clipPath>
  <clipPath id="z33202c6"><use href="#z33202d6"/></clipPath>
  <clipPath id="z33202c7"><use href="#z33202d7"/></clipPath>
  <clipPath id="z33202c8"><use href="#z33202d8"/></clipPath>
  <clipPath id="z33202c9"><use href="#z33202d9"/></clipPath>
  <clipPath id="z33202c10"><use href="#z33202d10"/></clipPath>
  <clipPath id="z33202c11"><use href="#z33202d11"/></clipPath>
  <clipPath id="z33202c12"><use href="#z33202d12"/></clipPath>
  <clipPath id="z33202c13"><use href="#z33202d13"/></clipPath>
  <clipPath id="z33202c14"><use href="#z33202d14"/></clipPath>
  <clipPath id="z33202c15"><use href="#z33202d15"/></clipPath>
  <clipPath id="z33202c16"><use href="#z33202d16"/></clipPath>
</defs>
<path style="--d:1s;" pathLength="3333" clip-path="url(#z33202c1)" d="M 140 692 L 175 667 L 185 634 L 189 513 L 175 347 L 163 281 L 124 167 L 88 94 L 59 51"/>
<path style="--d:2s;" pathLength="3333" clip-path="url(#z33202c2)" d="M 214 679 L 227 669 L 310 692 L 328 685 L 354 660 L 342 112 L 334 87 L 319 67 L 294 76 L 234 116"/>
<path style="--d:3s;" pathLength="3333" clip-path="url(#z33202c3)" d="M 214 478 L 223 480 L 228 490 L 265 498 L 297 495"/>
<path style="--d:4s;" pathLength="3333" clip-path="url(#z33202c4)" d="M 201 329 L 220 344 L 271 351 L 292 347"/>
<path style="--d:5s;" pathLength="3333" clip-path="url(#z33202c5)" d="M 533 741 L 543 734 L 560 701 L 551 678 L 485 561 L 429 487 L 387 445"/>
<path style="--d:6s;" pathLength="3333" clip-path="url(#z33202c6)" d="M 504 545 L 509 467 L 490 253 L 495 193"/>
<path style="--d:7s;" pathLength="3333" clip-path="url(#z33202c7)" d="M 653 757 L 723 711 L 742 675"/>
<path style="--d:8s;" pathLength="3333" clip-path="url(#z33202c8)" d="M 548 557 L 570 552 L 609 555 L 768 599 L 820 603"/>
<path style="--d:9s;" pathLength="3333" clip-path="url(#z33202c9)" d="M 572 448 L 639 462 L 732 492 L 766 498 L 788 495"/>
<path style="--d:10s;" pathLength="3333" clip-path="url(#z33202c10)" d="M 572 352 L 612 358 L 758 400 L 801 398"/>
<path style="--d:11s;" pathLength="3333" clip-path="url(#z33202c11)" d="M 647 535 L 670 522 L 678 503 L 670 314 L 654 289"/>
<path style="--d:12s;" pathLength="3333" clip-path="url(#z33202c12)" d="M 526 248 L 566 244 L 781 287 L 816 288 L 871 278"/>
<path style="--d:13s;" pathLength="3333" clip-path="url(#z33202c13)" d="M 471 134 L 451 76 L 414 5"/>
<path style="--d:14s;" pathLength="3333" clip-path="url(#z33202c14)" d="M 558 128 L 600 60 L 601 30"/>
<path style="--d:15s;" pathLength="3333" clip-path="url(#z33202c15)" d="M 671 150 L 723 98 L 734 66"/>
<path style="--d:16s;" pathLength="3333" clip-path="url(#z33202c16)" d="M 804 167 L 898 83 L 918 37"/>
</svg>