<svg id="z33587" class="acjk" viewBox="0 0 1024 1024" xmlns="http://www.w3.org/2000/svg">
<style>
<![CDATA[
@keyframes zk {
	to {
		stroke-dashoffset:0;
	}
}
svg.acjk path[clip-path] {
	--t:0.8s;
	animation:zk var(--t) linear forwards var(--d);
	stroke-dasharray:3337;
	stroke-dashoffset:3339;
	stroke-width:128;
	stroke-linecap:round;
	stroke-linejoin:round;
	fill:none;
	stroke:#000;
}
svg.acjk path[id] {fill:#ccc;}
]]>
</style>
  <path id="z33587d1" d="M 649 650 Q 707 659 828 649 Q 844 648 850 658 Q 856 670 842 685 Q 785 734 677 704 Q 671 704 667 702 L 611 694 Q 526 684 433 671 L 381 665 Q 293 658 197 647 Q 166 644 187 627 Q 233 597 318 615 Q 354 624 391 627 L 437 634 Q 437 635 438 635 Q 514 645 600 648 L 649 650 Z"/>
  <path id="z33587d2" d="M 433 671 Q 432 708 429 737 Q 430 758 409 764 Q 367 785 343 777 Q 324 767 340 747 Q 371 710 381 665 L 391 627 Q 403 569 419 552 Q 432 542 438 554 Q 442 567 437 634 L 433 671 Z"/>
  <path id="z33587d3" d="M 667 702 Q 668 703 669 706 Q 679 736 700 775 Q 713 791 703 801 Q 690 817 653 835 Q 637 845 618 835 Q 608 828 616 817 Q 628 792 624 760 Q 620 730 611 694 L 600 648 Q 578 552 578 544 Q 579 529 596 541 Q 609 556 649 650 L 667 702 Z"/>
  <path id="z33587d4" d="M 275 498 Q 306 476 337 448 Q 353 435 369 437 Q 379 438 385 452 Q 389 468 377 499 Q 365 532 267 548 Q 251 551 244 547 Q 238 543 241 529 Q 245 519 275 498 Z"/>
  <path id="z33587d5" d="M 180 370 Q 226 325 264 309 Q 279 308 287 320 Q 291 333 289 349 Q 271 395 193 408 L 190 409 Q 174 412 165 408 Q 159 407 162 394 Q 165 384 180 370 Z"/>
  <path id="z33587d6" d="M 175 107 Q 163 106 164 88 Q 167 15 201 -7 Q 207 -14 217 -13 Q 224 -12 228 12 Q 235 48 342 262 Q 351 275 350 282 Q 350 292 341 286 Q 335 283 213 138 Q 200 122 175 107 Z"/>
  <path id="z33587d7" d="M 615 399 Q 673 412 737 423 Q 780 433 786 438 Q 796 448 792 458 Q 783 471 749 481 Q 721 487 604 453 Q 495 432 448 428 Q 405 421 436 401 Q 493 371 553 387 Q 559 388 568 390 L 615 399 Z"/>
  <path id="z33587d8" d="M 615 133 Q 628 239 638 321 Q 642 369 643 370 Q 628 388 615 399 C 593 419 561 419 568 390 Q 577 362 573 281 Q 570 227 565 128 C 563 98 611 103 615 133 Z"/>
  <path id="z33587d9" d="M 565 128 Q 468 119 359 108 Q 335 107 352 87 Q 367 71 387 64 Q 409 57 428 62 Q 626 107 890 87 Q 912 86 918 96 Q 925 109 907 124 Q 850 170 808 162 Q 736 149 615 133 L 565 128 Z"/>
<defs>
  <clipPath id="z33587c1"><use href="#z33587d1"/></clipPath>
  <clipPath id="z33587c2"><use href="#z33587d2"/></clipPath>
  <clipPath id="z33587c3"><use href="#z33587d3"/></clipPath>
  <clipPath id="z33587c4"><use href="#z33587d4"/></clipPath>
  <clipPath id="z33587c5"><use href="#z33587d5"/></clipPath>
  <clipPath id="z33587c6"><use href="#z33587d6"/></clipPath>
  <clipPath id="z33587c7"><use href="#z33587d7"/></clipPath>
  <clipPath id="z33587c8"><use href="#z33587d8"/></clipPath>
  <clipPath id="z33587c9"><use href="#z33587d9"/></clipPath>
</defs>
<path style="--d:1s;" pathLength="3333" clip-path="url(#z33587c1)" d="M 190 638 L 232 630 L 286 633 L 519 664 L 742 685 L 792 681 L 836 665"/>
<path style="--d:2s;" pathLength="3333" clip-path="url(#z33587c2)" d="M 350 761 L 395 728 L 428 558"/>
<path style="--d:3s;" pathLength="3333" clip-path="url(#z33587c3)" d="M 624 825 L 649 807 L 663 785 L 625 647 L 587 544"/>
<path style="--d:4s;" pathLength="3333" clip-path="url(#z33587c4)" d="M 251 539 L 341 490 L 365 457"/>
<path style="--d:5s;" pathLength="3333" clip-path="url(#z33587c5)" d="M 172 399 L 235 363 L 269 330"/>
<path style="--d:6s;" pathLength="3333" clip-path="url(#z33587c6)" d="M 214 -3 L 204 27 L 207 77 L 344 281"/>
<path style="--d:7s;" pathLength="3333" clip-path="url(#z33587c7)" d="M 439 416 L 478 408 L 527 410 L 697 447 L 780 452"/>
<path style="--d:8s;" pathLength="3333" clip-path="url(#z33587c8)" d="M 577 387 L 605 364 L 607 350 L 593 162 L 570 137"/>
<path style="--d:9s;" pathLength="3333" clip-path="url(#z33587c9)" d="M 355 98 L 409 86 L 544 105 L 808 127 L 842 125 L 905 103"/>
</svg>