<svg id="z38235" class="acjk" viewBox="0 0 1024 1024" xmlns="http://www.w3.org/2000/svg">
<style>
<![CDATA[
@keyframes zk {
	to {
		stroke-dashoffset:0;
	}
}
svg.acjk path[clip-path] {
	--t:0.8s;
	animation:zk var(--t) linear forwards var(--d);
	stroke-dasharray:3337;
	stroke-dashoffset:3339;
	stroke-width:128;
	stroke-linecap:round;
	stroke-linejoin:round;
	fill:none;
	stroke:#000;
}
svg.acjk path[id] {fill:#ccc;}
]]>
</style>
  <path id="z38235d1" d="M 302 630 Q 338 696 369 724 Q 379 734 374 748 Q 370 761 342 784 Q 317 803 297 802 Q 278 801 286 779 Q 299 748 287 721 Q 221 568 63 386 Q 53 376 51 370 Q 47 360 61 362 Q 115 368 276 592 Q 279 598 282 601 L 302 630 Z"/>
  <path id="z38235d2" d="M 282 601 Q 325 594 408 614 Q 447 626 449 626 Q 456 633 452 642 Q 445 652 417 656 Q 392 659 332 636 Q 329 636 302 630 C 273 624 252 605 282 601 Z"/>
  <path id="z38235d3" d="M 283 455 Q 283 456 379 488 Q 400 495 402 498 Q 409 507 404 514 Q 397 524 369 527 Q 351 527 271 496 Q 241 487 208 479 Q 175 469 201 457 Q 216 451 241 447 C 257 444 257 444 283 455 Z"/>
  <path id="z38235d4" d="M 307 326 Q 335 336 369 344 Q 400 354 405 358 Q 412 365 408 373 Q 401 383 373 388 Q 337 394 308 374 L 263 357 Q 253 356 246 352 Q 204 339 154 331 Q 121 322 146 309 Q 188 288 235 306 Q 248 310 265 314 L 307 326 Z"/>
  <path id="z38235d5" d="M 265 314 Q 261 179 230 134 Q 197 92 239 54 Q 251 47 261 62 Q 271 84 376 182 Q 392 195 396 203 Q 400 212 391 211 Q 379 211 308 172 Q 301 166 299 174 Q 306 258 307 326 L 308 374 Q 308 396 312 414 Q 318 432 283 455 C 259 473 229 475 241 447 Q 260 407 263 357 L 265 314 Z"/>
  <path id="z38235d6" d="M 623 796 Q 653 774 684 748 Q 697 738 711 739 Q 721 740 725 752 Q 729 765 718 793 Q 706 823 616 839 Q 601 842 596 839 Q 592 835 594 823 Q 598 813 623 796 Z"/>
  <path id="z38235d7" d="M 672 647 Q 729 660 791 671 Q 833 681 839 686 Q 846 693 843 701 Q 836 711 810 719 Q 782 725 755 714 Q 707 698 656 685 Q 599 672 532 666 Q 528 666 526 664 C 497 657 511 646 539 637 Q 569 625 612 635 Q 628 639 649 642 L 672 647 Z"/>
  <path id="z38235d8" d="M 526 664 Q 484 697 463 688 Q 453 681 459 668 Q 477 644 477 583 Q 477 393 427 242 Q 394 149 310 9 Q 306 2 303 -3 Q 302 -13 311 -11 Q 344 -5 422 126 Q 434 151 447 178 Q 510 328 524 523 Q 530 620 539 637 C 543 652 543 652 526 664 Z"/>
  <path id="z38235d9" d="M 823 424 Q 829 458 835 481 L 851 526 Q 860 548 873 558 Q 886 574 873 588 Q 813 630 764 605 Q 737 596 713 587 L 670 575 Q 624 566 577 559 Q 564 558 565 550 Q 566 543 582 539 Q 595 533 672 550 L 709 558 Q 739 567 769 572 Q 787 576 794 569 Q 804 560 801 514 L 795 478 Q 791 453 786 429 C 780 400 818 394 823 424 Z"/>
  <path id="z38235d10" d="M 835 481 Q 866 485 906 486 Q 949 486 956 495 Q 959 504 946 513 Q 901 543 851 526 L 801 514 Q 729 502 706 495 L 671 488 Q 608 478 540 465 Q 525 464 537 451 Q 547 441 562 437 Q 578 434 590 438 Q 627 451 671 459 L 706 465 Q 724 471 795 478 L 835 481 Z"/>
  <path id="z38235d11" d="M 705 375 Q 763 384 837 392 Q 847 393 848 401 Q 848 408 823 424 L 786 429 Q 779 429 705 409 L 670 401 Q 607 389 557 382 Q 538 379 550 364 Q 557 355 566 352 Q 576 351 588 353 Q 621 362 670 369 L 705 375 Z"/>
  <path id="z38235d12" d="M 568 296 Q 543 309 528 309 Q 516 306 521 296 Q 560 214 517 82 Q 496 31 522 -4 Q 528 -16 537 -11 Q 564 8 570 94 Q 577 232 581 263 C 584 288 584 288 568 296 Z"/>
  <path id="z38235d13" d="M 705 291 Q 808 315 823 302 Q 844 287 829 63 Q 828 47 822 43 Q 809 34 746 52 Q 733 55 734 47 Q 734 41 745 36 Q 800 -3 829 -33 Q 845 -49 856 -47 Q 866 -46 875 -22 Q 890 20 885 140 Q 876 257 891 284 Q 901 302 892 312 Q 883 324 845 343 Q 829 350 814 347 Q 780 335 705 318 L 667 311 Q 616 304 568 296 C 538 291 553 253 581 263 Q 587 269 667 283 L 705 291 Z"/>
  <path id="z38235d14" d="M 707 204 Q 737 211 766 215 Q 785 219 777 230 Q 767 242 746 244 Q 730 245 705 238 L 665 224 Q 637 215 613 207 Q 600 203 617 191 L 665 195 L 707 204 Z"/>
  <path id="z38235d15" d="M 708 124 Q 745 131 777 136 Q 796 139 789 150 Q 780 162 759 166 Q 740 167 708 159 L 664 147 Q 631 138 602 130 Q 589 127 605 115 Q 608 114 663 117 L 708 124 Z"/>
  <path id="z38235d16" d="M 667 5 Q 671 -14 676 -22 Q 680 -26 686 -25 Q 692 -22 696 -11 Q 703 11 708 124 L 708 159 Q 708 181 707 204 L 705 238 Q 705 262 705 291 L 705 318 Q 705 345 705 375 L 705 409 Q 705 436 706 465 L 706 495 Q 706 508 707 519 Q 707 543 709 558 L 713 587 Q 714 597 717 607 Q 720 620 709 628 Q 684 644 672 647 C 647 658 647 658 649 642 Q 643 638 648 629 Q 669 581 670 575 L 672 550 Q 672 522 671 488 L 671 459 Q 670 432 670 401 L 670 369 Q 669 342 667 311 L 667 283 Q 666 255 665 224 L 665 195 Q 665 171 664 147 L 663 117 Q 662 39 667 5 Z"/>
<defs>
  <clipPath id="z38235c1"><use href="#z38235d1"/></clipPath>
  <clipPath id="z38235c2"><use href="#z38235d2"/></clipPath>
  <clipPath id="z38235c3"><use href="#z38235d3"/></clipPath>
  <clipPath id="z38235c4"><use href="#z38235d4"/></clipPath>
  <clipPath id="z38235c5"><use href="#z38235d5"/></clipPath>
  <clipPath id="z38235c6"><use href="#z38235d6"/></clipPath>
  <clipPath id="z38235c7"><use href="#z38235d7"/></clipPath>
  <clipPath id="z38235c8"><use href="#z38235d8"/></clipPath>
  <clipPath id="z38235c9"><use href="#z38235d9"/></clipPath>
  <clipPath id="z38235c10"><use href="#z38235d10"/></clipPath>
  <clipPath id="z38235c11"><use href="#z38235d11"/></clipPath>
  <clipPath id="z38235c12"><use href="#z38235d12"/></clipPath>
  <clipPath id="z38235c13"><use href="#z38235d13"/></clipPath>
  <clipPath id="z38235c14"><use href="#z38235d14"/></clipPath>
  <clipPath id="z38235c15"><use href="#z38235d15"/></clipPath>
  <clipPath id="z38235c16"><use href="#z38235d16"/></clipPath>
</defs>
<path style="--d:1s;" pathLength="3333" clip-path="url(#z38235c1)" d="M 296 788 L 320 765 L 331 742 L 284 651 L 221 552 L 145 453 L 83 387 L 59 370"/>
<path style="--d:2s;" pathLength="3333" clip-path="url(#z38235c2)" d="M 288 604 L 316 618 L 404 635 L 444 634"/>
<path style="--d:3s;" pathLength="3333" clip-path="url(#z38235c3)" d="M 202 469 L 237 466 L 374 508 L 394 507"/>
<path style="--d:4s;" pathLength="3333" clip-path="url(#z38235c4)" d="M 148 321 L 171 316 L 208 320 L 343 363 L 397 367"/>
<path style="--d:5s;" pathLength="3333" clip-path="url(#z38235c5)" d="M 249 442 L 283 418 L 286 292 L 273 174 L 280 141 L 321 155 L 389 204"/>
<path style="--d:6s;" pathLength="3333" clip-path="url(#z38235c6)" d="M 601 833 L 674 794 L 709 755"/>
<path style="--d:7s;" pathLength="3333" clip-path="url(#z38235c7)" d="M 531 658 L 541 659 L 550 650 L 586 651 L 769 693 L 832 696"/>
<path style="--d:8s;" pathLength="3333" clip-path="url(#z38235c8)" d="M 470 677 L 502 644 L 505 624 L 498 483 L 477 344 L 436 205 L 400 125 L 340 30 L 311 -3"/>
<path style="--d:9s;" pathLength="3333" clip-path="url(#z38235c9)" d="M 573 551 L 658 557 L 789 593 L 812 588 L 834 570 L 810 451 L 793 434"/>
<path style="--d:10s;" pathLength="3333" clip-path="url(#z38235c10)" d="M 549 456 L 591 456 L 666 474 L 878 509 L 949 499"/>
<path style="--d:11s;" pathLength="3333" clip-path="url(#z38235c11)" d="M 555 372 L 590 370 L 787 408 L 822 407 L 839 400"/>
<path style="--d:12s;" pathLength="3333" clip-path="url(#z38235c12)" d="M 532 298 L 554 271 L 559 221 L 553 130 L 532 -2"/>
<path style="--d:13s;" pathLength="3333" clip-path="url(#z38235c13)" d="M 580 269 L 591 284 L 805 325 L 831 324 L 855 306 L 861 293 L 860 150 L 858 56 L 852 28 L 842 9 L 742 44"/>
<path style="--d:14s;" pathLength="3333" clip-path="url(#z38235c14)" d="M 616 199 L 730 227 L 769 224"/>
<path style="--d:15s;" pathLength="3333" clip-path="url(#z38235c15)" d="M 608 123 L 733 147 L 761 150 L 781 145"/>
<path style="--d:16s;" pathLength="3333" clip-path="url(#z38235c16)" d="M 657 635 L 688 608 L 691 583 L 683 -16"/>
</svg>