<svg id="z38099" class="acjk" viewBox="0 0 1024 1024" xmlns="http://www.w3.org/2000/svg">
<style>
<![CDATA[
@keyframes zk {
	to {
		stroke-dashoffset:0;
	}
}
svg.acjk path[clip-path] {
	--t:0.8s;
	animation:zk var(--t) linear forwards var(--d);
	stroke-dasharray:3337;
	stroke-dashoffset:3339;
	stroke-width:128;
	stroke-linecap:round;
	stroke-linejoin:round;
	fill:none;
	stroke:#000;
}
svg.acjk path[id] {fill:#ccc;}
]]>
</style>
  <path id="z38099d1" d="M 300 635 Q 344 713 371 741 Q 374 745 376 747 Q 386 768 343 803 Q 316 821 296 821 Q 276 819 286 796 Q 299 764 288 735 Q 218 568 59 380 Q 49 370 46 365 Q 43 353 57 355 Q 110 361 276 598 Q 278 604 282 608 L 300 635 Z"/>
  <path id="z38099d2" d="M 282 608 Q 320 598 402 618 L 450 633 Q 465 639 468 641 Q 472 647 472 653 Q 471 669 431 673 Q 412 673 333 645 L 300 635 C 271 626 253 615 282 608 Z"/>
  <path id="z38099d3" d="M 310 461 Q 416 496 419 499 Q 427 508 421 515 Q 417 521 402 525 Q 363 537 327 515 Q 260 488 210 478 Q 178 468 197 459 Q 219 447 265 447 L 310 461 Z"/>
  <path id="z38099d4" d="M 287 325 Q 278 323 267 318 Q 217 298 165 286 Q 129 276 158 263 Q 190 249 228 259 L 286 276 L 333 294 Q 423 327 424 330 Q 431 339 426 347 Q 422 351 414 355 Q 377 369 335 349 L 287 325 Z"/>
  <path id="z38099d5" d="M 335 349 Q 335 370 337 393 Q 341 423 339 431 Q 335 444 310 461 C 286 479 255 475 265 447 Q 284 401 286 347 Q 286 333 287 325 L 286 276 Q 282 150 251 102 Q 206 51 255 8 Q 269 -1 280 16 Q 296 45 443 169 Q 463 182 466 190 Q 470 201 460 201 Q 450 201 334 137 Q 324 130 323 139 Q 330 223 333 294 L 335 349 Z"/>
  <path id="z38099d6" d="M 600 610 Q 597 658 596 686 Q 597 704 578 711 Q 539 733 517 725 Q 498 717 514 696 Q 545 654 554 606 Q 554 604 555 600 L 563 561 Q 570 506 586 490 Q 600 480 604 490 Q 606 502 602 575 L 600 610 Z"/>
  <path id="z38099d7" d="M 602 575 Q 619 583 635 588 Q 655 594 666 602 Q 672 608 670 613 Q 667 619 655 621 Q 628 616 600 610 L 555 600 Q 464 586 431 582 Q 410 582 424 561 Q 439 549 457 541 Q 484 529 501 537 Q 535 551 563 561 L 602 575 Z"/>
  <path id="z38099d8" d="M 776 629 Q 786 667 798 697 L 819 742 Q 822 751 815 757 Q 809 764 796 773 Q 753 803 729 787 Q 719 780 727 768 Q 745 729 725 620 L 717 590 Q 700 526 703 499 Q 707 485 719 495 Q 729 505 761 585 L 776 629 Z"/>
  <path id="z38099d9" d="M 761 585 Q 767 586 781 588 Q 851 598 906 592 Q 919 591 923 600 Q 927 610 915 621 Q 872 658 791 633 Q 785 633 776 629 L 725 620 Q 706 617 698 613 Q 686 610 700 600 L 717 590 C 733 581 733 581 761 585 Z"/>
  <path id="z38099d10" d="M 628 437 Q 689 384 702 384 Q 704 384 706 386 Q 724 394 710 439 Q 702 459 651 474 Q 612 486 602 480 Q 598 477 600 465 Q 604 455 628 437 Z"/>
  <path id="z38099d11" d="M 568 289 Q 688 318 892 347 Q 903 346 912 361 Q 913 373 888 384 Q 849 408 768 380 Q 620 347 474 324 Q 443 319 466 301 Q 500 276 527 278 L 568 289 Z"/>
  <path id="z38099d12" d="M 527 278 Q 553 200 523 96 Q 498 50 501 41 Q 501 21 521 2 Q 527 -2 532 0 Q 536 0 557 14 Q 654 74 890 84 Q 913 84 915 96 Q 913 113 883 131 Q 868 145 766 121 Q 649 102 595 88 Q 574 81 580 110 L 587 227 L 591 261 Q 591 276 568 289 C 544 307 519 307 527 278 Z"/>
<defs>
  <clipPath id="z38099c1"><use href="#z38099d1"/></clipPath>
  <clipPath id="z38099c2"><use href="#z38099d2"/></clipPath>
  <clipPath id="z38099c3"><use href="#z38099d3"/></clipPath>
  <clipPath id="z38099c4"><use href="#z38099d4"/></clipPath>
  <clipPath id="z38099c5"><use href="#z38099d5"/></clipPath>
  <clipPath id="z38099c6"><use href="#z38099d6"/></clipPath>
  <clipPath id="z38099c7"><use href="#z38099d7"/></clipPath>
  <clipPath id="z38099c8"><use href="#z38099d8"/></clipPath>
  <clipPath id="z38099c9"><use href="#z38099d9"/></clipPath>
  <clipPath id="z38099c10"><use href="#z38099d10"/></clipPath>
  <clipPath id="z38099c11"><use href="#z38099d11"/></clipPath>
  <clipPath id="z38099c12"><use href="#z38099d12"/></clipPath>
</defs>
<path style="--d:1s;" pathLength="3333" clip-path="url(#z38099c1)" d="M 296 806 L 314 792 L 333 758 L 283 657 L 221 557 L 146 456 L 83 385 L 55 363"/>
<path style="--d:2s;" pathLength="3333" clip-path="url(#z38099c2)" d="M 288 611 L 424 649 L 460 651"/>
<path style="--d:3s;" pathLength="3333" clip-path="url(#z38099c3)" d="M 202 469 L 257 467 L 367 505 L 413 508"/>
<path style="--d:4s;" pathLength="3333" clip-path="url(#z38099c4)" d="M 158 276 L 181 272 L 216 277 L 365 334 L 416 339"/>
<path style="--d:5s;" pathLength="3333" clip-path="url(#z38099c5)" d="M 274 443 L 304 427 L 308 419 L 310 273 L 295 128 L 300 102 L 347 116 L 460 194"/>
<path style="--d:6s;" pathLength="3333" clip-path="url(#z38099c6)" d="M 522 710 L 544 699 L 563 679 L 587 521 L 596 494"/>
<path style="--d:7s;" pathLength="3333" clip-path="url(#z38099c7)" d="M 428 571 L 484 561 L 662 610"/>
<path style="--d:8s;" pathLength="3333" clip-path="url(#z38099c8)" d="M 735 777 L 753 768 L 774 740 L 748 614 L 712 499"/>
<path style="--d:9s;" pathLength="3333" clip-path="url(#z38099c9)" d="M 706 608 L 756 605 L 854 619 L 911 605"/>
<path style="--d:10s;" pathLength="3333" clip-path="url(#z38099c10)" d="M 608 472 L 684 428 L 701 391"/>
<path style="--d:11s;" pathLength="3333" clip-path="url(#z38099c11)" d="M 468 313 L 527 305 L 819 365 L 865 368 L 900 362"/>
<path style="--d:12s;" pathLength="3333" clip-path="url(#z38099c12)" d="M 536 273 L 562 258 L 562 177 L 552 59 L 593 61 L 685 85 L 805 105 L 868 109 L 903 98"/>
</svg>