<svg id="z37016" class="acjk" viewBox="0 0 1024 1024" xmlns="http://www.w3.org/2000/svg">
<style>
<![CDATA[
@keyframes zk {
	to {
		stroke-dashoffset:0;
	}
}
svg.acjk path[clip-path] {
	--t:0.8s;
	animation:zk var(--t) linear forwards var(--d);
	stroke-dasharray:3337;
	stroke-dashoffset:3339;
	stroke-width:128;
	stroke-linecap:round;
	stroke-linejoin:round;
	fill:none;
	stroke:#000;
}
svg.acjk path[id] {fill:#ccc;}
]]>
</style>
  <path id="z37016d1" d="M 345 699 Q 498 738 499 739 Q 508 748 503 756 Q 496 768 466 775 Q 442 779 320 742 Q 220 723 185 718 Q 148 711 175 694 Q 220 670 277 685 Q 289 689 305 691 L 345 699 Z"/>
  <path id="z37016d2" d="M 376 486 Q 446 502 532 516 Q 550 519 550 527 Q 551 540 532 550 Q 502 563 478 556 Q 421 543 377 530 L 323 517 Q 151 478 73 470 Q 60 469 56 460 Q 53 448 70 436 Q 113 406 157 422 Q 256 456 323 474 L 376 486 Z"/>
  <path id="z37016d3" d="M 323 474 Q 323 363 322 199 Q 321 163 311 150 Q 299 143 269 151 Q 247 155 220 160 Q 208 163 209 156 Q 210 149 221 139 Q 285 91 325 53 Q 337 43 351 60 Q 390 123 384 192 Q 375 420 376 486 L 377 530 Q 378 584 384 635 Q 390 662 384 672 Q 375 685 345 699 C 319 713 298 720 305 691 Q 320 640 322 546 Q 322 533 323 517 L 323 474 Z"/>
  <path id="z37016d4" d="M 652 633 Q 763 678 772 672 Q 773 672 775 671 Q 785 664 777 644 Q 744 557 728 529 Q 721 519 722 511 Q 722 498 742 486 Q 833 434 851 350 Q 857 320 841 301 Q 828 291 800 292 Q 757 295 721 296 Q 714 297 715 289 Q 718 282 734 274 Q 816 244 838 216 Q 845 204 858 204 Q 868 205 881 217 Q 917 260 917 319 Q 917 403 785 496 Q 745 520 815 602 Q 816 605 820 608 Q 841 639 867 653 Q 895 671 871 689 Q 832 720 809 730 Q 793 736 778 727 Q 759 709 670 675 Q 643 666 639 663 C 611 652 624 622 652 633 Z"/>
  <path id="z37016d5" d="M 639 663 Q 608 685 593 686 Q 580 690 564 682 Q 555 673 563 663 Q 587 597 589 591 Q 589 366 583 164 Q 579 -53 598 -81 Q 604 -88 611 -86 Q 629 -74 633 -17 Q 643 74 640 164 Q 636 240 641 535 Q 641 586 652 633 C 656 652 656 652 639 663 Z"/>
<defs>
  <clipPath id="z37016c1"><use href="#z37016d1"/></clipPath>
  <clipPath id="z37016c2"><use href="#z37016d2"/></clipPath>
  <clipPath id="z37016c3"><use href="#z37016d3"/></clipPath>
  <clipPath id="z37016c4"><use href="#z37016d4"/></clipPath>
  <clipPath id="z37016c5"><use href="#z37016d5"/></clipPath>
</defs>
<path style="--d:1s;" pathLength="3333" clip-path="url(#z37016c1)" d="M 177 707 L 237 702 L 354 724 L 451 751 L 495 748"/>
<path style="--d:2s;" pathLength="3333" clip-path="url(#z37016c2)" d="M 68 456 L 123 446 L 444 525 L 496 535 L 538 530"/>
<path style="--d:3s;" pathLength="3333" clip-path="url(#z37016c3)" d="M 313 687 L 342 667 L 351 649 L 351 157 L 344 133 L 328 109 L 282 122 L 216 154"/>
<path style="--d:4s;" pathLength="3333" clip-path="url(#z37016c4)" d="M 644 659 L 663 653 L 741 686 L 783 697 L 799 697 L 821 673 L 768 572 L 747 513 L 759 495 L 830 437 L 868 385 L 883 341 L 881 299 L 872 277 L 856 260 L 722 289"/>
<path style="--d:5s;" pathLength="3333" clip-path="url(#z37016c5)" d="M 572 672 L 603 649 L 614 629 L 617 603 L 607 -76"/>
</svg>