<svg id="z35473" class="acjk" viewBox="0 0 1024 1024" xmlns="http://www.w3.org/2000/svg">
<style>
<![CDATA[
@keyframes zk {
	to {
		stroke-dashoffset:0;
	}
}
svg.acjk path[clip-path] {
	--t:0.8s;
	animation:zk var(--t) linear forwards var(--d);
	stroke-dasharray:3337;
	stroke-dashoffset:3339;
	stroke-width:128;
	stroke-linecap:round;
	stroke-linejoin:round;
	fill:none;
	stroke:#000;
}
svg.acjk path[id] {fill:#ccc;}
]]>
</style>
  <path id="z35473d1" d="M 281 764 Q 303 745 327 723 Q 343 710 360 712 Q 372 713 377 728 Q 381 744 369 777 Q 357 804 272 816 Q 254 819 248 815 Q 242 811 245 797 Q 249 784 281 764 Z"/>
  <path id="z35473d2" d="M 45 564 Q 32 563 28 554 Q 25 544 41 532 Q 83 504 125 519 Q 228 556 376 582 Q 394 585 394 592 Q 395 605 376 614 Q 348 626 325 620 Q 121 572 45 564 Z"/>
  <path id="z35473d3" d="M 188 463 Q 157 454 181 441 Q 223 428 280 445 Q 310 454 343 462 Q 359 468 362 470 Q 369 479 364 486 Q 357 496 329 499 Q 304 502 240 475 Q 216 468 188 463 Z"/>
  <path id="z35473d4" d="M 185 359 Q 152 350 177 337 Q 217 319 267 337 Q 298 346 332 355 Q 348 359 350 362 Q 357 371 352 378 Q 345 388 317 391 Q 302 392 228 368 Q 209 362 185 359 Z"/>
  <path id="z35473d5" d="M 161 246 Q 149 252 120 257 Q 108 260 105 255 Q 98 249 107 233 Q 134 178 149 88 Q 152 61 168 44 Q 186 22 191 37 Q 198 55 192 90 L 187 124 Q 177 197 175 219 C 173 241 173 241 161 246 Z"/>
  <path id="z35473d6" d="M 317 145 Q 333 203 351 222 Q 372 247 350 260 Q 331 270 305 287 Q 287 296 243 272 Q 195 256 161 246 C 132 237 146 212 175 219 Q 187 222 252 236 Q 271 240 276 232 Q 283 228 277 200 Q 273 178 269 152 C 264 122 309 116 317 145 Z"/>
  <path id="z35473d7" d="M 192 90 Q 198 90 204 92 Q 243 104 327 117 Q 337 118 338 128 Q 338 135 317 145 C 294 157 294 157 269 152 Q 262 151 258 149 Q 221 136 187 124 C 159 114 162 88 192 90 Z"/>
  <path id="z35473d8" d="M 531 580 Q 556 608 576 637 Q 607 683 637 720 Q 649 732 634 748 Q 595 787 567 783 Q 555 782 556 766 Q 562 708 506 623 L 479 585 Q 457 560 433 537 Q 402 509 386 492 Q 376 477 392 481 Q 422 484 499 548 L 531 580 Z"/>
  <path id="z35473d9" d="M 525 370 Q 525 217 491 123 Q 485 107 476 106 Q 467 102 441 102 Q 413 109 409 104 Q 406 98 416 88 Q 443 60 460 35 Q 475 14 482 15 Q 489 12 507 30 Q 592 129 562 462 Q 555 511 542 552 Q 538 568 531 580 L 506 623 Q 469 665 419 684 Q 406 691 403 681 Q 400 668 407 651 Q 414 633 431 631 Q 458 621 479 585 L 499 548 Q 511 512 516 477 L 525 370 Z"/>
  <path id="z35473d10" d="M 516 477 Q 515 477 514 474 Q 487 366 369 188 Q 365 178 376 178 Q 394 178 470 276 Q 500 315 525 370 C 538 397 527 505 516 477 Z"/>
  <path id="z35473d11" d="M 764 557 Q 921 602 924 603 Q 933 612 928 620 Q 921 632 890 638 Q 859 642 829 628 Q 792 615 752 602 Q 709 590 656 583 Q 619 574 646 559 Q 676 544 717 546 L 764 557 Z"/>
  <path id="z35473d12" d="M 785 369 Q 836 378 880 383 Q 908 387 897 403 Q 885 419 855 425 Q 830 429 787 418 L 732 401 Q 689 391 653 380 Q 634 376 657 358 Q 667 351 690 354 Q 711 358 732 360 L 785 369 Z"/>
  <path id="z35473d13" d="M 780 218 Q 781 299 785 369 L 787 418 Q 787 475 791 507 Q 800 534 764 557 C 740 574 707 574 717 546 Q 729 521 732 401 L 732 360 Q 732 300 733 210 C 733 180 780 188 780 218 Z"/>
  <path id="z35473d14" d="M 733 210 Q 663 201 584 189 Q 563 188 579 171 Q 592 158 610 152 Q 629 148 646 152 Q 746 177 967 177 Q 986 177 991 186 Q 997 196 980 210 Q 928 252 861 233 Q 827 227 780 218 L 733 210 Z"/>
<defs>
  <clipPath id="z35473c1"><use href="#z35473d1"/></clipPath>
  <clipPath id="z35473c2"><use href="#z35473d2"/></clipPath>
  <clipPath id="z35473c3"><use href="#z35473d3"/></clipPath>
  <clipPath id="z35473c4"><use href="#z35473d4"/></clipPath>
  <clipPath id="z35473c5"><use href="#z35473d5"/></clipPath>
  <clipPath id="z35473c6"><use href="#z35473d6"/></clipPath>
  <clipPath id="z35473c7"><use href="#z35473d7"/></clipPath>
  <clipPath id="z35473c8"><use href="#z35473d8"/></clipPath>
  <clipPath id="z35473c9"><use href="#z35473d9"/></clipPath>
  <clipPath id="z35473c10"><use href="#z35473d10"/></clipPath>
  <clipPath id="z35473c11"><use href="#z35473d11"/></clipPath>
  <clipPath id="z35473c12"><use href="#z35473d12"/></clipPath>
  <clipPath id="z35473c13"><use href="#z35473d13"/></clipPath>
  <clipPath id="z35473c14"><use href="#z35473d14"/></clipPath>
</defs>
<path style="--d:1s;" pathLength="3333" clip-path="url(#z35473c1)" d="M 255 807 L 326 770 L 357 732"/>
<path style="--d:2s;" pathLength="3333" clip-path="url(#z35473c2)" d="M 39 550 L 101 543 L 319 596 L 352 600 L 384 595"/>
<path style="--d:3s;" pathLength="3333" clip-path="url(#z35473c3)" d="M 182 453 L 226 453 L 324 479 L 354 479"/>
<path style="--d:4s;" pathLength="3333" clip-path="url(#z35473c4)" d="M 179 349 L 226 347 L 298 368 L 342 371"/>
<path style="--d:5s;" pathLength="3333" clip-path="url(#z35473c5)" d="M 114 247 L 147 212 L 180 43"/>
<path style="--d:6s;" pathLength="3333" clip-path="url(#z35473c6)" d="M 169 241 L 184 237 L 262 259 L 295 257 L 315 237 L 299 174 L 276 157"/>
<path style="--d:7s;" pathLength="3333" clip-path="url(#z35473c7)" d="M 197 97 L 207 112 L 269 130 L 328 127"/>
<path style="--d:8s;" pathLength="3333" clip-path="url(#z35473c8)" d="M 568 770 L 585 751 L 593 727 L 551 646 L 479 554 L 395 490"/>
<path style="--d:9s;" pathLength="3333" clip-path="url(#z35473c9)" d="M 412 678 L 432 654 L 465 635 L 485 615 L 520 553 L 540 467 L 548 340 L 539 198 L 524 131 L 508 90 L 486 67 L 413 101"/>
<path style="--d:10s;" pathLength="3333" clip-path="url(#z35473c10)" d="M 516 468 L 503 376 L 495 357 L 449 276 L 377 186"/>
<path style="--d:11s;" pathLength="3333" clip-path="url(#z35473c11)" d="M 648 572 L 709 568 L 772 581 L 869 614 L 894 617 L 921 611"/>
<path style="--d:12s;" pathLength="3333" clip-path="url(#z35473c12)" d="M 655 369 L 694 372 L 828 401 L 858 402 L 886 395"/>
<path style="--d:13s;" pathLength="3333" clip-path="url(#z35473c13)" d="M 723 545 L 759 517 L 757 242 L 740 219"/>
<path style="--d:14s;" pathLength="3333" clip-path="url(#z35473c14)" d="M 581 180 L 637 173 L 889 208 L 924 207 L 979 192"/>
</svg>