<svg id="z30897" class="acjk" viewBox="0 0 1024 1024" xmlns="http://www.w3.org/2000/svg">
<style>
<![CDATA[
@keyframes zk {
	to {
		stroke-dashoffset:0;
	}
}
svg.acjk path[clip-path] {
	--t:0.8s;
	animation:zk var(--t) linear forwards var(--d);
	stroke-dasharray:3337;
	stroke-dashoffset:3339;
	stroke-width:128;
	stroke-linecap:round;
	stroke-linejoin:round;
	fill:none;
	stroke:#000;
}
svg.acjk path[id] {fill:#ccc;}
]]>
</style>
  <path id="z30897d1" d="M 267 585 Q 405 633 406 633 Q 413 640 408 649 Q 401 659 371 664 Q 343 667 314 652 Q 277 636 236 622 Q 191 607 137 597 Q 103 587 130 574 Q 172 556 225 573 L 267 585 Z"/>
  <path id="z30897d2" d="M 229 404 Q 254 453 288 525 Q 301 558 302 559 Q 296 577 267 585 C 239 595 220 602 225 573 Q 238 528 184 406 L 167 373 Q 157 360 148 344 Q 120 301 47 214 Q 41 210 50 208 Q 99 217 181 327 L 229 404 Z"/>
  <path id="z30897d3" d="M 184 406 Q 180 407 175 409 Q 165 412 161 408 Q 155 402 162 388 Q 163 382 167 373 L 181 327 Q 190 288 197 238 Q 198 210 214 191 Q 229 170 234 184 Q 241 200 238 228 L 235 257 Q 222 351 222 375 L 184 406 Z"/>
  <path id="z30897d4" d="M 353 288 Q 363 363 384 387 Q 402 411 380 422 Q 326 449 317 447 Q 310 446 304 441 Q 289 429 229 404 C 194 389 194 364 222 375 Q 225 378 289 395 Q 308 401 314 393 Q 321 389 317 356 Q 313 325 307 286 C 302 256 349 258 353 288 Z"/>
  <path id="z30897d5" d="M 238 228 Q 248 228 261 231 Q 295 243 369 258 Q 379 261 379 269 Q 378 276 353 288 L 307 286 Q 306 286 304 285 Q 264 269 235 257 C 207 246 208 227 238 228 Z"/>
  <path id="z30897d6" d="M 680 560 Q 707 570 737 577 Q 779 590 785 597 Q 792 604 788 613 Q 781 623 751 629 Q 721 633 674 610 L 631 594 Q 534 564 473 553 C 444 547 455 520 485 521 Q 533 521 610 541 Q 622 544 638 548 L 680 560 Z"/>
  <path id="z30897d7" d="M 473 553 Q 428 575 415 573 Q 396 570 411 550 Q 432 511 417 329 Q 408 284 385 231 Q 361 173 291 109 Q 278 97 275 91 Q 274 85 284 85 Q 320 85 378 146 Q 441 212 462 327 Q 462 330 463 333 L 466 348 Q 476 411 480 496 Q 483 511 485 521 C 490 545 490 545 473 553 Z"/>
  <path id="z30897d8" d="M 498 439 Q 470 430 493 420 Q 527 405 572 423 Q 597 430 624 439 Q 637 443 638 445 Q 645 452 640 459 Q 633 468 609 470 Q 602 470 534 448 Q 518 444 498 439 Z"/>
  <path id="z30897d9" d="M 463 333 Q 485 285 497 208 Q 498 186 511 170 Q 524 152 529 164 Q 533 177 532 202 L 528 233 Q 519 297 519 317 C 519 334 519 334 510 338 Q 503 342 477 348 Q 468 351 466 348 C 457 346 457 346 463 333 Z"/>
  <path id="z30897d10" d="M 634 248 Q 647 303 665 321 Q 683 340 664 352 Q 648 361 627 374 Q 615 380 570 358 Q 548 351 510 338 C 482 328 490 309 519 317 Q 522 318 583 333 Q 601 337 605 330 Q 606 329 595 253 C 591 223 627 219 634 248 Z"/>
  <path id="z30897d11" d="M 532 202 Q 539 211 643 221 Q 652 222 653 230 Q 653 237 634 248 L 595 253 Q 591 253 585 251 Q 554 241 528 233 C 499 224 507 185 532 202 Z"/>
  <path id="z30897d12" d="M 741 197 Q 795 95 863 36 Q 927 -12 956 -9 Q 977 -5 968 25 Q 959 77 953 231 Q 952 255 942 254 Q 936 253 931 232 Q 921 189 911 151 Q 902 112 889 110 Q 876 110 852 131 Q 809 177 774 237 L 751 285 Q 706 394 680 560 L 674 610 Q 664 697 675 763 Q 688 803 632 825 Q 598 841 577 833 Q 558 826 567 807 Q 613 765 613 732 Q 620 659 631 594 L 638 548 Q 668 368 722 239 L 741 197 Z"/>
  <path id="z30897d13" d="M 722 239 Q 680 184 632 138 Q 626 134 623 128 Q 619 119 628 119 Q 664 119 737 192 Q 738 195 741 197 L 774 237 Q 807 288 864 411 Q 868 423 875 432 Q 887 442 883 456 Q 873 475 849 495 Q 834 510 822 508 Q 809 505 812 491 Q 827 439 751 285 L 722 239 Z"/>
  <path id="z30897d14" d="M 754 719 Q 779 701 806 679 Q 819 667 835 670 Q 845 671 849 684 Q 852 699 841 726 Q 831 751 745 764 Q 729 765 724 763 Q 720 759 722 747 Q 726 737 754 719 Z"/>
<defs>
  <clipPath id="z30897c1"><use href="#z30897d1"/></clipPath>
  <clipPath id="z30897c2"><use href="#z30897d2"/></clipPath>
  <clipPath id="z30897c3"><use href="#z30897d3"/></clipPath>
  <clipPath id="z30897c4"><use href="#z30897d4"/></clipPath>
  <clipPath id="z30897c5"><use href="#z30897d5"/></clipPath>
  <clipPath id="z30897c6"><use href="#z30897d6"/></clipPath>
  <clipPath id="z30897c7"><use href="#z30897d7"/></clipPath>
  <clipPath id="z30897c8"><use href="#z30897d8"/></clipPath>
  <clipPath id="z30897c9"><use href="#z30897d9"/></clipPath>
  <clipPath id="z30897c10"><use href="#z30897d10"/></clipPath>
  <clipPath id="z30897c11"><use href="#z30897d11"/></clipPath>
  <clipPath id="z30897c12"><use href="#z30897d12"/></clipPath>
  <clipPath id="z30897c13"><use href="#z30897d13"/></clipPath>
  <clipPath id="z30897c14"><use href="#z30897d14"/></clipPath>
</defs>
<path style="--d:1s;" pathLength="3333" clip-path="url(#z30897c1)" d="M 131 586 L 168 583 L 208 591 L 363 643 L 403 639"/>
<path style="--d:2s;" pathLength="3333" clip-path="url(#z30897c2)" d="M 233 570 L 261 546 L 241 483 L 201 395 L 161 328 L 125 282 L 53 213"/>
<path style="--d:3s;" pathLength="3333" clip-path="url(#z30897c3)" d="M 169 401 L 197 362 L 225 189"/>
<path style="--d:4s;" pathLength="3333" clip-path="url(#z30897c4)" d="M 221 381 L 243 398 L 303 417 L 321 419 L 340 409 L 350 399 L 333 310 L 314 293"/>
<path style="--d:5s;" pathLength="3333" clip-path="url(#z30897c5)" d="M 243 236 L 260 249 L 316 267 L 370 267"/>
<path style="--d:6s;" pathLength="3333" clip-path="url(#z30897c6)" d="M 480 549 L 497 539 L 530 544 L 653 576 L 723 601 L 777 607"/>
<path style="--d:7s;" pathLength="3333" clip-path="url(#z30897c7)" d="M 415 561 L 437 546 L 452 518 L 448 398 L 430 289 L 411 233 L 377 174 L 334 127 L 282 92"/>
<path style="--d:8s;" pathLength="3333" clip-path="url(#z30897c8)" d="M 493 430 L 529 429 L 603 451 L 630 453"/>
<path style="--d:9s;" pathLength="3333" clip-path="url(#z30897c9)" d="M 472 339 L 493 321 L 496 311 L 521 169"/>
<path style="--d:10s;" pathLength="3333" clip-path="url(#z30897c10)" d="M 519 323 L 526 332 L 589 350 L 621 349 L 634 328 L 617 270 L 603 266"/>
<path style="--d:11s;" pathLength="3333" clip-path="url(#z30897c11)" d="M 536 212 L 553 225 L 599 235 L 644 230"/>
<path style="--d:12s;" pathLength="3333" clip-path="url(#z30897c12)" d="M 580 817 L 603 809 L 639 777 L 646 649 L 663 526 L 694 386 L 740 254 L 775 186 L 830 111 L 861 83 L 898 65 L 912 64 L 927 100 L 943 247"/>
<path style="--d:13s;" pathLength="3333" clip-path="url(#z30897c13)" d="M 824 496 L 847 450 L 780 292 L 738 225 L 702 183 L 666 149 L 631 127"/>
<path style="--d:14s;" pathLength="3333" clip-path="url(#z30897c14)" d="M 729 757 L 809 716 L 832 687"/>
</svg>