<svg id="z35179" class="acjk" viewBox="0 0 1024 1024" xmlns="http://www.w3.org/2000/svg">
<style>
<![CDATA[
@keyframes zk {
	to {
		stroke-dashoffset:0;
	}
}
svg.acjk path[clip-path] {
	--t:0.8s;
	animation:zk var(--t) linear forwards var(--d);
	stroke-dasharray:3337;
	stroke-dashoffset:3339;
	stroke-width:128;
	stroke-linecap:round;
	stroke-linejoin:round;
	fill:none;
	stroke:#000;
}
svg.acjk path[id] {fill:#ccc;}
]]>
</style>
  <path id="z35179d1" d="M 289 760 Q 319 735 350 704 Q 363 691 378 692 Q 388 692 393 705 Q 397 718 389 747 Q 385 768 352 784 Q 276 812 264 807 Q 260 803 260 791 Q 264 781 289 760 Z"/>
  <path id="z35179d2" d="M 228 387 Q 265 435 309 503 Q 337 552 378 583 Q 393 593 381 607 Q 363 620 336 630 Q 317 637 300 627 Q 230 581 108 574 Q 96 575 94 569 Q 91 560 104 551 Q 137 529 168 533 Q 178 537 190 541 Q 280 574 285 569 Q 289 562 280 541 Q 220 417 75 271 Q 62 261 64 257 Q 67 254 79 260 Q 127 284 204 360 L 228 387 Z"/>
  <path id="z35179d3" d="M 204 360 Q 219 312 220 275 Q 220 185 201 112 Q 189 72 221 29 Q 222 28 224 26 Q 240 13 250 36 Q 263 70 262 111 Q 263 276 269 313 Q 276 337 267 346 Q 251 364 240 376 Q 234 383 228 387 C 205 406 195 389 204 360 Z"/>
  <path id="z35179d4" d="M 316 399 Q 353 438 374 454 Q 384 458 380 464 Q 376 473 362 481 Q 349 488 337 488 Q 328 487 331 475 Q 335 463 304 405 C 290 379 295 377 316 399 Z"/>
  <path id="z35179d5" d="M 304 405 Q 285 417 276 414 Q 272 413 273 404 Q 274 397 289 384 Q 311 362 335 334 Q 342 327 352 326 Q 358 325 362 333 Q 366 340 362 359 Q 361 375 337 390 Q 327 396 316 399 L 304 405 Z"/>
  <path id="z35179d6" d="M 661 638 Q 685 644 841 663 Q 851 662 860 674 Q 861 686 839 696 Q 809 718 716 692 Q 677 685 663 679 L 619 671 Q 495 656 465 653 Q 437 649 458 632 Q 483 607 532 615 Q 571 624 620 631 L 661 638 Z"/>
  <path id="z35179d7" d="M 474 502 Q 508 511 543 517 Q 564 521 567 524 Q 573 530 570 536 Q 566 543 545 549 Q 523 553 457 532 Q 427 526 393 522 Q 368 518 386 506 Q 411 493 445 497 L 474 502 Z"/>
  <path id="z35179d8" d="M 439 430 Q 467 463 480 472 Q 490 478 486 485 Q 483 492 474 502 C 454 525 448 527 445 497 Q 445 487 427 445 Q 420 435 418 426 C 410 397 420 407 439 430 Z"/>
  <path id="z35179d9" d="M 418 426 Q 415 426 414 425 Q 411 426 409 428 Q 394 440 381 435 Q 377 431 381 424 Q 402 346 391 286 Q 384 256 407 227 Q 414 220 420 227 Q 427 237 426 250 L 426 272 Q 426 300 425 329 L 424 354 Q 424 381 424 407 C 424 426 424 426 418 426 Z"/>
  <path id="z35179d10" d="M 517 265 Q 518 259 523 253 Q 533 234 539 235 Q 548 236 558 257 Q 564 267 565 314 Q 558 389 574 411 Q 580 421 575 427 Q 530 466 476 442 Q 467 439 457 436 Q 447 435 439 430 C 412 417 394 404 424 407 Q 428 407 434 408 Q 507 429 514 423 Q 521 414 521 384 Q 522 306 519 286 L 517 265 Z"/>
  <path id="z35179d11" d="M 425 329 Q 465 333 494 337 Q 512 341 505 350 Q 496 360 477 364 Q 458 365 427 356 Q 426 355 424 354 C 399 338 395 326 425 329 Z"/>
  <path id="z35179d12" d="M 426 250 Q 480 259 517 265 C 547 270 546 273 519 286 Q 512 290 500 292 Q 478 293 426 272 C 398 261 396 245 426 250 Z"/>
  <path id="z35179d13" d="M 794 545 Q 831 552 873 558 Q 901 562 906 567 Q 913 573 910 579 Q 906 589 883 595 Q 871 598 771 576 Q 732 569 687 567 Q 659 564 679 551 Q 706 533 753 540 Q 756 540 762 540 L 794 545 Z"/>
  <path id="z35179d14" d="M 759 460 Q 759 469 793 503 Q 796 507 803 512 Q 813 519 808 527 Q 804 536 794 545 C 772 566 764 570 762 540 Q 762 522 742 473 Q 735 460 733 451 C 725 422 751 431 759 460 Z"/>
  <path id="z35179d15" d="M 725 449 Q 722 452 706 459 Q 700 462 693 459 Q 689 456 693 448 Q 714 406 701 306 Q 694 270 715 243 Q 722 236 728 243 Q 734 252 734 263 L 735 285 Q 736 291 736 296 Q 735 327 735 349 L 735 372 Q 735 399 736 428 C 736 442 736 442 725 449 Z"/>
  <path id="z35179d16" d="M 831 272 Q 855 248 871 243 Q 880 239 888 257 Q 895 281 894 400 Q 897 422 910 444 Q 917 454 908 463 Q 895 473 862 487 Q 853 490 809 476 Q 785 470 759 460 L 733 451 Q 729 451 725 449 C 696 441 708 416 736 428 Q 736 429 740 430 Q 818 460 833 450 Q 848 443 848 426 Q 852 314 848 296 C 845 266 818 284 831 272 Z"/>
  <path id="z35179d17" d="M 735 349 Q 780 352 814 357 Q 832 360 825 370 Q 816 382 797 385 Q 758 388 735 372 C 710 356 705 347 735 349 Z"/>
  <path id="z35179d18" d="M 734 263 Q 782 267 831 272 C 861 275 874 281 848 296 Q 842 300 833 302 Q 812 305 735 285 C 706 277 704 260 734 263 Z"/>
  <path id="z35179d19" d="M 646 284 Q 649 318 661 638 L 663 679 Q 664 709 687 768 Q 693 781 683 792 Q 662 808 626 819 Q 602 825 595 818 Q 586 812 593 800 Q 618 763 619 671 L 620 631 Q 620 297 565 175 Q 550 151 534 130 Q 488 76 389 25 Q 377 18 377 14 Q 378 10 389 10 Q 405 7 447 22 Q 517 44 567 98 Q 616 150 641 252 L 646 284 Z"/>
  <path id="z35179d20" d="M 641 252 Q 702 144 782 27 Q 798 8 825 6 Q 919 2 949 3 Q 959 4 960 9 Q 961 13 949 21 Q 814 88 746 166 Q 698 217 646 284 C 628 308 626 278 641 252 Z"/>
<defs>
  <clipPath id="z35179c1"><use href="#z35179d1"/></clipPath>
  <clipPath id="z35179c2"><use href="#z35179d2"/></clipPath>
  <clipPath id="z35179c3"><use href="#z35179d3"/></clipPath>
  <clipPath id="z35179c4"><use href="#z35179d4"/></clipPath>
  <clipPath id="z35179c5"><use href="#z35179d5"/></clipPath>
  <clipPath id="z35179c6"><use href="#z35179d6"/></clipPath>
  <clipPath id="z35179c7"><use href="#z35179d7"/></clipPath>
  <clipPath id="z35179c8"><use href="#z35179d8"/></clipPath>
  <clipPath id="z35179c9"><use href="#z35179d9"/></clipPath>
  <clipPath id="z35179c10"><use href="#z35179d10"/></clipPath>
  <clipPath id="z35179c11"><use href="#z35179d11"/></clipPath>
  <clipPath id="z35179c12"><use href="#z35179d12"/></clipPath>
  <clipPath id="z35179c13"><use href="#z35179d13"/></clipPath>
  <clipPath id="z35179c14"><use href="#z35179d14"/></clipPath>
  <clipPath id="z35179c15"><use href="#z35179d15"/></clipPath>
  <clipPath id="z35179c16"><use href="#z35179d16"/></clipPath>
  <clipPath id="z35179c17"><use href="#z35179d17"/></clipPath>
  <clipPath id="z35179c18"><use href="#z35179d18"/></clipPath>
  <clipPath id="z35179c19"><use href="#z35179d19"/></clipPath>
  <clipPath id="z35179c20"><use href="#z35179d20"/></clipPath>
</defs>
<path style="--d:1s;" pathLength="3333" clip-path="url(#z35179c1)" d="M 268 801 L 352 747 L 377 708"/>
<path style="--d:2s;" pathLength="3333" clip-path="url(#z35179c2)" d="M 103 565 L 165 556 L 280 592 L 314 593 L 322 586 L 295 521 L 226 415 L 138 316 L 73 264"/>
<path style="--d:3s;" pathLength="3333" clip-path="url(#z35179c3)" d="M 227 380 L 229 354 L 243 326 L 239 170 L 229 83 L 235 37"/>
<path style="--d:4s;" pathLength="3333" clip-path="url(#z35179c4)" d="M 370 463 L 351 463 L 315 413"/>
<path style="--d:5s;" pathLength="3333" clip-path="url(#z35179c5)" d="M 281 407 L 332 369 L 350 339"/>
<path style="--d:6s;" pathLength="3333" clip-path="url(#z35179c6)" d="M 460 643 L 483 636 L 521 636 L 787 682 L 849 676"/>
<path style="--d:7s;" pathLength="3333" clip-path="url(#z35179c7)" d="M 388 515 L 436 511 L 519 530 L 560 532"/>
<path style="--d:8s;" pathLength="3333" clip-path="url(#z35179c8)" d="M 469 490 L 440 451 L 440 443 L 423 430"/>
<path style="--d:9s;" pathLength="3333" clip-path="url(#z35179c9)" d="M 388 430 L 405 406 L 408 266 L 414 237"/>
<path style="--d:10s;" pathLength="3333" clip-path="url(#z35179c10)" d="M 424 423 L 444 417 L 454 425 L 501 438 L 525 435 L 543 419 L 540 244"/>
<path style="--d:11s;" pathLength="3333" clip-path="url(#z35179c11)" d="M 432 336 L 439 345 L 451 347 L 482 350 L 497 345"/>
<path style="--d:12s;" pathLength="3333" clip-path="url(#z35179c12)" d="M 434 256 L 439 267 L 512 281"/>
<path style="--d:13s;" pathLength="3333" clip-path="url(#z35179c13)" d="M 680 560 L 701 554 L 739 555 L 858 575 L 898 576"/>
<path style="--d:14s;" pathLength="3333" clip-path="url(#z35179c14)" d="M 768 535 L 781 521 L 739 455"/>
<path style="--d:15s;" pathLength="3333" clip-path="url(#z35179c15)" d="M 700 454 L 719 421 L 717 276 L 722 252"/>
<path style="--d:16s;" pathLength="3333" clip-path="url(#z35179c16)" d="M 730 445 L 750 441 L 756 448 L 822 468 L 860 461 L 875 446 L 870 292 L 863 275 L 843 273"/>
<path style="--d:17s;" pathLength="3333" clip-path="url(#z35179c17)" d="M 743 355 L 749 364 L 772 369 L 818 365"/>
<path style="--d:18s;" pathLength="3333" clip-path="url(#z35179c18)" d="M 740 268 L 748 278 L 841 292"/>
<path style="--d:19s;" pathLength="3333" clip-path="url(#z35179c19)" d="M 602 808 L 627 793 L 647 770 L 632 390 L 611 232 L 583 160 L 535 97 L 476 53 L 383 13"/>
<path style="--d:20s;" pathLength="3333" clip-path="url(#z35179c20)" d="M 649 267 L 663 239 L 735 141 L 810 56 L 838 41 L 953 9"/>
</svg>