<svg id="z36409" class="acjk" viewBox="0 0 1024 1024" xmlns="http://www.w3.org/2000/svg">
<style>
<![CDATA[
@keyframes zk {
	to {
		stroke-dashoffset:0;
	}
}
svg.acjk path[clip-path] {
	--t:0.8s;
	animation:zk var(--t) linear forwards var(--d);
	stroke-dasharray:3337;
	stroke-dashoffset:3339;
	stroke-width:128;
	stroke-linecap:round;
	stroke-linejoin:round;
	fill:none;
	stroke:#000;
}
svg.acjk path[id] {fill:#ccc;}
]]>
</style>
  <path id="z36409d1" d="M 194 705 Q 184 711 149 716 Q 137 719 135 713 Q 129 707 138 692 Q 166 640 184 553 Q 188 528 204 510 Q 222 491 226 505 Q 229 514 229 527 L 226 557 Q 220 569 203 678 C 199 703 199 703 194 705 Z"/>
  <path id="z36409d2" d="M 365 582 Q 387 657 410 678 Q 434 702 411 717 Q 353 753 344 752 Q 337 752 329 747 Q 290 723 194 705 C 165 699 173 673 203 678 Q 227 682 304 698 Q 329 704 335 693 Q 342 687 333 656 Q 326 622 314 582 C 306 553 356 553 365 582 Z"/>
  <path id="z36409d3" d="M 296 540 Q 330 547 379 553 Q 388 554 389 562 Q 389 569 365 582 C 348 591 343 590 314 582 Q 266 569 226 557 C 197 548 200 519 229 527 Q 239 530 253 532 L 296 540 Z"/>
  <path id="z36409d4" d="M 313 227 Q 314 312 317 385 L 318 418 Q 318 457 320 495 Q 327 516 296 540 C 273 559 242 560 253 532 Q 263 514 268 435 Q 268 371 271 212 C 272 182 313 197 313 227 Z"/>
  <path id="z36409d5" d="M 317 385 Q 363 398 402 405 Q 423 411 414 421 Q 404 433 380 435 Q 353 435 318 418 C 291 405 288 377 317 385 Z"/>
  <path id="z36409d6" d="M 210 192 Q 197 339 200 365 Q 201 387 187 398 Q 165 414 138 421 Q 125 425 116 419 Q 109 412 116 398 Q 135 370 145 338 Q 152 307 172 180 C 177 150 213 162 210 192 Z"/>
  <path id="z36409d7" d="M 172 180 Q 141 171 111 160 Q 92 153 60 153 Q 47 152 45 140 Q 44 127 54 118 Q 78 102 113 84 Q 123 81 136 91 Q 173 121 343 204 Q 368 216 385 231 Q 398 238 398 248 Q 392 254 379 251 Q 348 241 313 227 L 271 212 Q 241 203 210 192 L 172 180 Z"/>
  <path id="z36409d8" d="M 677 589 Q 701 769 708 785 Q 711 795 692 809 Q 659 828 637 832 Q 621 836 614 827 Q 607 820 614 806 Q 629 787 629 773 Q 636 685 637 579 C 637 549 673 559 677 589 Z"/>
  <path id="z36409d9" d="M 785 612 Q 727 603 677 589 L 637 579 Q 588 567 546 551 Q 533 550 537 563 Q 555 647 548 662 Q 517 701 495 698 Q 485 694 491 677 Q 506 634 496 591 Q 487 551 470 535 Q 454 519 460 506 Q 470 493 485 482 Q 498 475 507 483 Q 531 510 695 560 Q 758 578 777 574 C 807 573 815 617 785 612 Z"/>
  <path id="z36409d10" d="M 777 574 Q 777 553 795 519 Q 805 504 815 516 Q 837 540 836 619 Q 845 680 853 692 Q 860 707 849 719 Q 830 732 799 748 Q 787 755 776 748 Q 769 744 772 732 Q 799 692 785 612 L 777 574 Z"/>
  <path id="z36409d11" d="M 625 407 Q 797 452 799 453 Q 808 460 803 469 Q 796 479 768 486 Q 741 492 652 460 Q 535 433 492 428 Q 458 421 483 406 Q 522 384 577 397 Q 578 398 580 397 L 625 407 Z"/>
  <path id="z36409d12" d="M 592 296 Q 598 303 625 343 Q 631 352 641 363 Q 654 373 647 384 Q 640 396 625 407 C 601 425 577 427 580 397 Q 583 381 565 309 Q 561 299 558 289 C 549 260 573 272 592 296 Z"/>
  <path id="z36409d13" d="M 460 269 Q 430 279 416 277 Q 406 271 411 262 Q 445 216 427 127 Q 417 88 449 57 Q 456 47 464 52 Q 485 76 478 176 Q 477 215 476 231 C 474 261 474 264 460 269 Z"/>
  <path id="z36409d14" d="M 716 286 Q 774 296 842 299 Q 860 295 865 285 Q 871 278 865 266 Q 855 110 841 89 Q 837 80 826 84 Q 804 88 781 93 Q 751 99 770 78 Q 824 20 844 -18 Q 853 -33 866 -23 Q 891 -2 907 75 Q 923 235 944 261 Q 959 280 953 287 Q 946 300 899 332 Q 881 345 867 340 Q 839 331 789 324 Q 662 309 592 296 L 558 289 Q 546 288 537 285 Q 494 275 460 269 C 431 263 448 221 476 231 Q 528 249 551 254 L 574 260 Q 613 273 672 281 L 716 286 Z"/>
  <path id="z36409d15" d="M 551 254 Q 551 250 554 244 Q 567 199 571 128 Q 570 107 580 92 Q 592 71 598 84 Q 607 97 607 128 Q 607 212 609 229 Q 610 239 607 245 Q 598 252 574 260 C 548 269 548 269 551 254 Z"/>
  <path id="z36409d16" d="M 688 56 Q 692 38 696 30 Q 700 26 706 27 Q 716 33 723 76 Q 727 101 728 126 Q 728 222 739 256 Q 739 268 716 286 C 693 305 658 308 672 281 Q 673 281 674 279 Q 683 258 685 122 Q 686 73 688 56 Z"/>
<defs>
  <clipPath id="z36409c1"><use href="#z36409d1"/></clipPath>
  <clipPath id="z36409c2"><use href="#z36409d2"/></clipPath>
  <clipPath id="z36409c3"><use href="#z36409d3"/></clipPath>
  <clipPath id="z36409c4"><use href="#z36409d4"/></clipPath>
  <clipPath id="z36409c5"><use href="#z36409d5"/></clipPath>
  <clipPath id="z36409c6"><use href="#z36409d6"/></clipPath>
  <clipPath id="z36409c7"><use href="#z36409d7"/></clipPath>
  <clipPath id="z36409c8"><use href="#z36409d8"/></clipPath>
  <clipPath id="z36409c9"><use href="#z36409d9"/></clipPath>
  <clipPath id="z36409c10"><use href="#z36409d10"/></clipPath>
  <clipPath id="z36409c11"><use href="#z36409d11"/></clipPath>
  <clipPath id="z36409c12"><use href="#z36409d12"/></clipPath>
  <clipPath id="z36409c13"><use href="#z36409d13"/></clipPath>
  <clipPath id="z36409c14"><use href="#z36409d14"/></clipPath>
  <clipPath id="z36409c15"><use href="#z36409d15"/></clipPath>
  <clipPath id="z36409c16"><use href="#z36409d16"/></clipPath>
</defs>
<path style="--d:1s;" pathLength="3333" clip-path="url(#z36409c1)" d="M 144 706 L 172 685 L 181 661 L 216 511"/>
<path style="--d:2s;" pathLength="3333" clip-path="url(#z36409c2)" d="M 206 686 L 227 699 L 323 721 L 345 721 L 365 707 L 375 695 L 346 605 L 320 589"/>
<path style="--d:3s;" pathLength="3333" clip-path="url(#z36409c3)" d="M 233 535 L 251 549 L 320 564 L 359 567 L 380 562"/>
<path style="--d:4s;" pathLength="3333" clip-path="url(#z36409c4)" d="M 261 531 L 291 503 L 292 253 L 287 233 L 275 223"/>
<path style="--d:5s;" pathLength="3333" clip-path="url(#z36409c5)" d="M 324 390 L 344 411 L 385 419 L 405 415"/>
<path style="--d:6s;" pathLength="3333" clip-path="url(#z36409c6)" d="M 125 410 L 168 369 L 189 208 L 175 192"/>
<path style="--d:7s;" pathLength="3333" clip-path="url(#z36409c7)" d="M 60 138 L 116 124 L 392 245"/>
<path style="--d:8s;" pathLength="3333" clip-path="url(#z36409c8)" d="M 627 817 L 667 780 L 659 608 L 642 587"/>
<path style="--d:9s;" pathLength="3333" clip-path="url(#z36409c9)" d="M 499 689 L 524 653 L 513 532 L 544 529 L 618 556 L 763 592 L 777 607"/>
<path style="--d:10s;" pathLength="3333" clip-path="url(#z36409c10)" d="M 784 738 L 820 699 L 805 563 L 806 522"/>
<path style="--d:11s;" pathLength="3333" clip-path="url(#z36409c11)" d="M 485 418 L 549 414 L 634 430 L 737 461 L 796 461"/>
<path style="--d:12s;" pathLength="3333" clip-path="url(#z36409c12)" d="M 589 394 L 609 373 L 582 311 L 563 293"/>
<path style="--d:13s;" pathLength="3333" clip-path="url(#z36409c13)" d="M 422 267 L 443 251 L 454 214 L 452 98 L 459 61"/>
<path style="--d:14s;" pathLength="3333" clip-path="url(#z36409c14)" d="M 468 265 L 487 255 L 649 292 L 836 316 L 876 314 L 907 277 L 872 72 L 854 47 L 819 59 L 772 88"/>
<path style="--d:15s;" pathLength="3333" clip-path="url(#z36409c15)" d="M 558 251 L 584 228 L 590 89"/>
<path style="--d:16s;" pathLength="3333" clip-path="url(#z36409c16)" d="M 681 278 L 708 253 L 703 35"/>
</svg>