<svg id="z37257" class="acjk" viewBox="0 0 1024 1024" xmlns="http://www.w3.org/2000/svg">
<style>
<![CDATA[
@keyframes zk {
	to {
		stroke-dashoffset:0;
	}
}
svg.acjk path[clip-path] {
	--t:0.8s;
	animation:zk var(--t) linear forwards var(--d);
	stroke-dasharray:3337;
	stroke-dashoffset:3339;
	stroke-width:128;
	stroke-linecap:round;
	stroke-linejoin:round;
	fill:none;
	stroke:#000;
}
svg.acjk path[id] {fill:#ccc;}
]]>
</style>
  <path id="z37257d1" d="M 329 714 Q 446 744 451 746 Q 458 753 455 761 Q 448 771 422 778 Q 401 782 290 748 Q 235 733 148 722 Q 114 716 139 701 Q 166 686 200 686 L 237 693 Q 261 699 287 704 L 329 714 Z"/>
  <path id="z37257d2" d="M 148 553 Q 147 554 146 555 Q 127 570 104 577 Q 97 578 91 571 Q 88 567 94 557 Q 133 467 109 276 Q 105 245 95 212 Q 89 190 93 174 Q 100 146 111 135 Q 121 123 129 135 Q 138 147 143 172 L 148 201 Q 151 226 152 366 Q 152 489 157 526 C 159 545 159 545 148 553 Z"/>
  <path id="z37257d3" d="M 358 190 Q 382 159 400 130 Q 407 115 417 116 Q 430 117 444 145 Q 459 176 456 217 Q 449 317 443 506 Q 442 533 456 552 Q 463 562 455 572 Q 439 588 394 608 Q 379 614 332 593 L 301 583 Q 276 579 254 571 L 219 564 Q 173 557 148 553 C 118 548 127 524 157 526 Q 175 525 207 533 Q 211 534 219 535 L 251 542 Q 273 548 300 553 L 330 559 Q 366 574 385 559 Q 395 550 400 472 Q 400 460 401 447 L 402 419 Q 402 359 395 219 Q 392 210 388 208 C 378 180 342 212 358 190 Z"/>
  <path id="z37257d4" d="M 200 686 Q 212 674 216 632 Q 219 598 219 564 L 219 535 Q 213 469 178 381 Q 175 377 174 373 Q 174 366 180 368 Q 190 371 205 398 Q 250 459 251 542 L 254 571 Q 255 595 255 618 Q 252 651 255 666 Q 259 676 254 683 Q 247 689 237 693 C 210 706 183 711 200 686 Z"/>
  <path id="z37257d5" d="M 332 593 Q 335 638 349 689 Q 352 699 345 707 Q 339 711 329 714 C 301 725 271 730 287 704 Q 305 686 301 583 L 300 553 Q 291 447 328 416 Q 338 409 380 413 Q 393 414 402 419 C 430 430 431 445 401 447 Q 397 448 394 448 Q 358 445 350 450 Q 326 466 330 559 L 332 593 Z"/>
  <path id="z37257d6" d="M 191 312 Q 175 309 194 295 Q 201 289 217 291 Q 292 303 347 309 Q 369 313 361 325 Q 351 338 327 343 Q 303 346 191 312 Z"/>
  <path id="z37257d7" d="M 143 172 Q 144 172 146 171 Q 156 168 168 171 Q 229 183 358 190 C 388 192 404 193 388 208 Q 382 215 364 228 Q 349 237 320 231 Q 226 210 148 201 C 118 197 114 180 143 172 Z"/>
  <path id="z37257d8" d="M 629 798 Q 654 779 682 756 Q 695 744 711 746 Q 721 747 725 760 Q 728 775 718 803 Q 705 833 621 844 Q 605 845 600 843 Q 596 839 598 827 Q 602 817 629 798 Z"/>
  <path id="z37257d9" d="M 531 682 Q 498 676 522 661 Q 562 643 623 656 Q 696 674 776 691 Q 813 701 819 706 Q 828 713 823 721 Q 816 731 789 738 Q 765 742 676 711 Q 601 692 531 682 Z"/>
  <path id="z37257d10" d="M 568 504 Q 571 516 607 574 Q 614 584 603 595 Q 566 617 550 613 Q 543 612 545 600 Q 560 531 489 442 Q 473 421 464 409 Q 460 397 470 402 Q 507 411 555 483 L 568 504 Z"/>
  <path id="z37257d11" d="M 555 483 Q 604 434 622 433 Q 632 433 636 446 Q 636 456 629 471 Q 617 486 568 504 C 540 514 534 504 555 483 Z"/>
  <path id="z37257d12" d="M 663 423 Q 694 438 749 509 L 760 527 Q 767 540 775 553 Q 793 590 810 620 Q 817 630 804 642 Q 768 667 747 661 Q 738 658 741 647 Q 756 581 683 471 Q 673 461 652 430 Q 651 429 650 426 C 641 410 641 410 663 423 Z"/>
  <path id="z37257d13" d="M 749 509 Q 753 502 771 490 Q 804 468 839 441 Q 849 431 862 433 Q 869 434 873 444 Q 876 456 868 478 Q 856 511 765 527 Q 762 528 760 527 C 736 527 736 527 749 509 Z"/>
  <path id="z37257d14" d="M 696 309 Q 768 321 880 323 Q 929 323 936 333 Q 940 343 925 355 Q 871 392 812 371 Q 764 362 697 346 L 644 337 Q 565 324 474 308 Q 455 305 470 291 Q 483 279 499 275 Q 518 271 533 275 Q 585 291 645 300 L 696 309 Z"/>
  <path id="z37257d15" d="M 648 -15 Q 652 -37 659 -46 Q 663 -52 671 -50 Q 698 -29 694 113 Q 693 155 696 309 L 697 346 Q 700 358 704 381 Q 707 397 695 405 Q 676 418 663 423 L 650 426 Q 640 430 628 423 Q 621 416 626 406 Q 644 382 644 337 L 645 300 Q 645 6 648 -15 Z"/>
<defs>
  <clipPath id="z37257c1"><use href="#z37257d1"/></clipPath>
  <clipPath id="z37257c2"><use href="#z37257d2"/></clipPath>
  <clipPath id="z37257c3"><use href="#z37257d3"/></clipPath>
  <clipPath id="z37257c4"><use href="#z37257d4"/></clipPath>
  <clipPath id="z37257c5"><use href="#z37257d5"/></clipPath>
  <clipPath id="z37257c6"><use href="#z37257d6"/></clipPath>
  <clipPath id="z37257c7"><use href="#z37257d7"/></clipPath>
  <clipPath id="z37257c8"><use href="#z37257d8"/></clipPath>
  <clipPath id="z37257c9"><use href="#z37257d9"/></clipPath>
  <clipPath id="z37257c10"><use href="#z37257d10"/></clipPath>
  <clipPath id="z37257c11"><use href="#z37257d11"/></clipPath>
  <clipPath id="z37257c12"><use href="#z37257d12"/></clipPath>
  <clipPath id="z37257c13"><use href="#z37257d13"/></clipPath>
  <clipPath id="z37257c14"><use href="#z37257d14"/></clipPath>
  <clipPath id="z37257c15"><use href="#z37257d15"/></clipPath>
</defs>
<path style="--d:1s;" pathLength="3333" clip-path="url(#z37257c1)" d="M 141 713 L 151 708 L 202 708 L 414 758 L 446 755"/>
<path style="--d:2s;" pathLength="3333" clip-path="url(#z37257c2)" d="M 101 566 L 127 537 L 133 506 L 136 354 L 131 271 L 118 190 L 120 139"/>
<path style="--d:3s;" pathLength="3333" clip-path="url(#z37257c3)" d="M 154 548 L 171 541 L 183 543 L 305 568 L 348 584 L 381 587 L 422 557 L 426 220 L 415 179 L 416 130"/>
<path style="--d:4s;" pathLength="3333" clip-path="url(#z37257c4)" d="M 207 685 L 233 669 L 236 534 L 218 449 L 195 394 L 181 375"/>
<path style="--d:5s;" pathLength="3333" clip-path="url(#z37257c5)" d="M 294 705 L 322 686 L 313 520 L 322 457 L 343 431 L 369 428 L 396 440"/>
<path style="--d:6s;" pathLength="3333" clip-path="url(#z37257c6)" d="M 192 303 L 318 325 L 351 319"/>
<path style="--d:7s;" pathLength="3333" clip-path="url(#z37257c7)" d="M 147 179 L 186 191 L 299 207 L 381 209"/>
<path style="--d:8s;" pathLength="3333" clip-path="url(#z37257c8)" d="M 605 837 L 685 794 L 708 763"/>
<path style="--d:9s;" pathLength="3333" clip-path="url(#z37257c9)" d="M 524 673 L 568 669 L 611 674 L 760 712 L 812 716"/>
<path style="--d:10s;" pathLength="3333" clip-path="url(#z37257c10)" d="M 555 604 L 576 577 L 566 544 L 527 467 L 472 410"/>
<path style="--d:11s;" pathLength="3333" clip-path="url(#z37257c11)" d="M 574 493 L 575 484 L 607 464 L 622 447"/>
<path style="--d:12s;" pathLength="3333" clip-path="url(#z37257c12)" d="M 754 650 L 775 623 L 758 570 L 718 494 L 657 425"/>
<path style="--d:13s;" pathLength="3333" clip-path="url(#z37257c13)" d="M 758 510 L 770 511 L 830 481 L 857 449"/>
<path style="--d:14s;" pathLength="3333" clip-path="url(#z37257c14)" d="M 472 300 L 517 294 L 839 350 L 883 349 L 928 338"/>
<path style="--d:15s;" pathLength="3333" clip-path="url(#z37257c15)" d="M 637 413 L 652 405 L 672 380 L 667 -42"/>
</svg>