<svg id="z32439" class="acjk" viewBox="0 0 1024 1024" xmlns="http://www.w3.org/2000/svg">
<style>
<![CDATA[
@keyframes zk {
	to {
		stroke-dashoffset:0;
	}
}
svg.acjk path[clip-path] {
	--t:0.8s;
	animation:zk var(--t) linear forwards var(--d);
	stroke-dasharray:3337;
	stroke-dashoffset:3339;
	stroke-width:128;
	stroke-linecap:round;
	stroke-linejoin:round;
	fill:none;
	stroke:#000;
}
svg.acjk path[id] {fill:#ccc;}
]]>
</style>
  <path id="z32439d1" d="M 301 484 Q 249 485 207 484 Q 173 484 191 504 Q 261 616 328 698 Q 343 716 340 724 Q 339 739 298 772 Q 282 785 263 783 Q 251 780 257 764 Q 264 746 258 719 Q 245 670 183 563 Q 164 527 124 493 Q 105 478 106 466 Q 110 447 125 427 Q 135 417 148 423 Q 184 444 285 459 C 315 464 331 484 301 484 Z"/>
  <path id="z32439d2" d="M 285 459 Q 284 458 283 455 Q 180 311 152 298 Q 139 288 141 275 Q 142 262 168 242 Q 178 230 193 243 Q 245 280 354 320 Q 373 324 375 333 Q 378 343 358 340 Q 304 330 238 312 Q 210 302 228 324 Q 267 376 357 483 Q 385 520 409 541 Q 422 551 415 561 Q 405 580 373 599 Q 357 608 348 605 Q 338 602 340 586 Q 341 559 301 484 L 285 459 Z"/>
  <path id="z32439d3" d="M 107 145 Q 94 144 93 132 Q 92 119 101 110 Q 126 95 161 78 Q 171 75 184 85 Q 208 107 351 187 Q 370 197 385 211 Q 398 218 398 229 Q 392 233 379 231 Q 157 147 107 145 Z"/>
  <path id="z32439d4" d="M 510 630 Q 526 597 464 491 Q 434 442 394 387 Q 385 378 383 373 Q 380 363 392 365 Q 434 371 549 535 Q 555 556 584 584 Q 593 593 588 605 Q 584 615 559 636 Q 535 652 519 651 Q 503 650 510 630 Z"/>
  <path id="z32439d5" d="M 564 785 Q 606 755 644 680 Q 698 551 782 445 Q 795 430 894 425 Q 922 426 961 425 Q 992 425 993 433 Q 993 442 965 453 Q 824 507 769 572 Q 723 624 646 760 Q 627 794 591 799 Q 564 803 562 796 Q 558 789 564 785 Z"/>
  <path id="z32439d6" d="M 584 356 Q 642 371 700 379 Q 713 380 716 373 Q 722 363 720 333 Q 716 224 696 166 Q 687 130 675 118 Q 663 106 638 114 Q 610 121 584 128 Q 560 135 577 114 Q 617 66 639 30 Q 648 9 667 14 Q 682 15 701 36 Q 755 91 780 293 Q 786 339 804 366 Q 822 388 812 397 Q 796 416 761 431 Q 736 444 708 432 Q 656 408 572 391 Q 500 376 458 375 Q 439 376 440 366 Q 439 357 460 344 Q 485 328 509 336 Q 522 340 536 344 L 584 356 Z"/>
  <path id="z32439d7" d="M 536 344 Q 543 212 356 61 Q 349 54 355 51 Q 380 42 462 103 Q 535 155 588 277 Q 597 296 609 315 Q 616 325 611 334 Q 605 343 584 356 C 559 372 535 374 536 344 Z"/>
<defs>
  <clipPath id="z32439c1"><use href="#z32439d1"/></clipPath>
  <clipPath id="z32439c2"><use href="#z32439d2"/></clipPath>
  <clipPath id="z32439c3"><use href="#z32439d3"/></clipPath>
  <clipPath id="z32439c4"><use href="#z32439d4"/></clipPath>
  <clipPath id="z32439c5"><use href="#z32439d5"/></clipPath>
  <clipPath id="z32439c6"><use href="#z32439d6"/></clipPath>
  <clipPath id="z32439c7"><use href="#z32439d7"/></clipPath>
</defs>
<path style="--d:1s;" pathLength="3333" clip-path="url(#z32439c1)" d="M 266 772 L 289 744 L 295 715 L 234 607 L 169 508 L 154 468 L 178 463 L 251 467 L 279 471 L 292 481"/>
<path style="--d:2s;" pathLength="3333" clip-path="url(#z32439c2)" d="M 353 592 L 372 556 L 321 472 L 212 333 L 205 295 L 245 294 L 366 333"/>
<path style="--d:3s;" pathLength="3333" clip-path="url(#z32439c3)" d="M 106 132 L 114 125 L 163 118 L 393 225"/>
<path style="--d:4s;" pathLength="3333" clip-path="url(#z32439c4)" d="M 519 638 L 539 619 L 548 598 L 521 539 L 450 434 L 391 372"/>
<path style="--d:5s;" pathLength="3333" clip-path="url(#z32439c5)" d="M 569 792 L 594 782 L 618 763 L 726 578 L 761 530 L 811 479 L 884 454 L 987 434"/>
<path style="--d:6s;" pathLength="3333" clip-path="url(#z32439c6)" d="M 451 365 L 499 356 L 724 406 L 742 400 L 761 381 L 733 184 L 703 100 L 669 67 L 588 117"/>
<path style="--d:7s;" pathLength="3333" clip-path="url(#z32439c7)" d="M 544 338 L 570 317 L 546 248 L 523 205 L 464 131 L 384 67 L 359 56"/>
</svg>