<svg id="z31365" class="acjk" viewBox="0 0 1024 1024" xmlns="http://www.w3.org/2000/svg">
<style>
<![CDATA[
@keyframes zk {
	to {
		stroke-dashoffset:0;
	}
}
svg.acjk path[clip-path] {
	--t:0.8s;
	animation:zk var(--t) linear forwards var(--d);
	stroke-dasharray:3337;
	stroke-dashoffset:3339;
	stroke-width:128;
	stroke-linecap:round;
	stroke-linejoin:round;
	fill:none;
	stroke:#000;
}
svg.acjk path[id] {fill:#ccc;}
]]>
</style>
  <path id="z31365d1" d="M 450 796 Q 480 774 512 747 Q 525 735 542 737 Q 552 738 557 752 Q 561 768 549 797 Q 537 827 442 844 Q 426 845 420 843 Q 416 839 417 826 Q 421 816 450 796 Z"/>
  <path id="z31365d2" d="M 286 663 Q 276 684 266 692 Q 248 707 245 681 Q 251 639 188 574 Q 169 553 193 498 Q 211 474 226 499 Q 235 514 284 628 C 293 649 293 649 286 663 Z"/>
  <path id="z31365d3" d="M 591 674 Q 717 695 749 689 Q 768 685 766 673 Q 766 670 734 606 Q 725 593 731 588 Q 738 584 756 595 Q 810 626 853 636 Q 887 643 888 653 Q 885 663 818 718 Q 799 736 774 734 Q 704 724 615 710 Q 525 700 385 678 Q 336 669 286 663 C 256 659 255 636 284 628 Q 306 619 329 624 Q 360 634 396 642 L 426 649 Q 463 659 545 667 L 591 674 Z"/>
  <path id="z31365d4" d="M 396 642 L 397 640 Q 397 639 399 636 Q 408 588 318 476 Q 314 472 312 467 Q 312 463 317 463 Q 371 472 439 574 Q 449 589 455 595 Q 461 604 455 616 Q 443 637 426 649 C 402 667 383 669 396 642 Z"/>
  <path id="z31365d5" d="M 545 667 Q 551 651 553 574 Q 553 516 625 503 Q 665 494 723 503 Q 756 507 766 515 Q 776 525 769 533 Q 759 545 730 559 Q 714 566 698 554 Q 682 541 653 539 Q 626 536 607 547 Q 597 554 595 575 Q 594 612 608 636 Q 615 654 603 665 Q 597 671 591 674 C 566 691 538 696 545 667 Z"/>
  <path id="z31365d6" d="M 383 401 Q 362 422 327 432 Q 317 433 311 426 Q 308 420 316 409 Q 353 324 329 132 Q 325 102 314 69 Q 307 42 311 23 Q 321 -11 332 -24 Q 344 -37 354 -23 Q 366 -11 372 24 L 378 59 Q 381 90 382 141 L 382 171 Q 382 210 383 250 L 384 279 Q 384 342 389 368 C 393 393 393 393 383 401 Z"/>
  <path id="z31365d7" d="M 585 38 Q 615 -2 635 -38 Q 645 -57 656 -57 Q 674 -56 691 -21 Q 710 19 708 67 Q 702 158 699 329 Q 698 360 716 384 Q 726 397 716 408 Q 697 429 643 454 Q 624 464 608 455 Q 526 421 383 401 C 353 397 359 364 389 368 Q 416 371 586 403 Q 614 407 628 397 Q 649 379 639 152 Q 636 68 624 59 C 613 31 567 62 585 38 Z"/>
  <path id="z31365d8" d="M 383 250 Q 387 250 395 251 Q 486 266 554 274 Q 579 278 569 292 Q 559 308 531 312 Q 497 318 384 279 C 356 269 353 248 383 250 Z"/>
  <path id="z31365d9" d="M 382 141 Q 385 141 390 141 Q 487 154 561 163 Q 586 166 577 180 Q 567 196 540 201 Q 504 207 382 171 C 353 163 352 141 382 141 Z"/>
  <path id="z31365d10" d="M 372 24 Q 376 24 382 24 Q 449 34 585 38 C 615 39 645 40 624 59 Q 617 66 602 78 Q 586 88 556 82 Q 459 66 378 59 C 348 56 342 24 372 24 Z"/>
<defs>
  <clipPath id="z31365c1"><use href="#z31365d1"/></clipPath>
  <clipPath id="z31365c2"><use href="#z31365d2"/></clipPath>
  <clipPath id="z31365c3"><use href="#z31365d3"/></clipPath>
  <clipPath id="z31365c4"><use href="#z31365d4"/></clipPath>
  <clipPath id="z31365c5"><use href="#z31365d5"/></clipPath>
  <clipPath id="z31365c6"><use href="#z31365d6"/></clipPath>
  <clipPath id="z31365c7"><use href="#z31365d7"/></clipPath>
  <clipPath id="z31365c8"><use href="#z31365d8"/></clipPath>
  <clipPath id="z31365c9"><use href="#z31365d9"/></clipPath>
  <clipPath id="z31365c10"><use href="#z31365d10"/></clipPath>
</defs>
<path style="--d:1s;" pathLength="3333" clip-path="url(#z31365c1)" d="M 425 837 L 515 787 L 538 756"/>
<path style="--d:2s;" pathLength="3333" clip-path="url(#z31365c2)" d="M 256 686 L 265 658 L 261 635 L 214 552 L 210 504"/>
<path style="--d:3s;" pathLength="3333" clip-path="url(#z31365c3)" d="M 294 657 L 306 644 L 319 644 L 467 675 L 657 701 L 748 710 L 780 706 L 805 681 L 809 668 L 736 593"/>
<path style="--d:4s;" pathLength="3333" clip-path="url(#z31365c4)" d="M 405 641 L 421 627 L 427 607 L 414 578 L 373 518 L 318 469"/>
<path style="--d:5s;" pathLength="3333" clip-path="url(#z31365c5)" d="M 553 665 L 579 642 L 574 568 L 580 549 L 593 534 L 634 520 L 670 520 L 718 532 L 760 525"/>
<path style="--d:6s;" pathLength="3333" clip-path="url(#z31365c6)" d="M 319 422 L 353 390 L 360 355 L 361 226 L 355 118 L 341 33 L 343 -18"/>
<path style="--d:7s;" pathLength="3333" clip-path="url(#z31365c7)" d="M 391 374 L 402 387 L 413 390 L 627 430 L 653 415 L 674 392 L 671 106 L 669 59 L 655 22 L 656 -42"/>
<path style="--d:8s;" pathLength="3333" clip-path="url(#z31365c8)" d="M 388 257 L 401 268 L 488 288 L 525 292 L 559 285"/>
<path style="--d:9s;" pathLength="3333" clip-path="url(#z31365c9)" d="M 386 149 L 400 160 L 499 178 L 543 181 L 566 174"/>
<path style="--d:10s;" pathLength="3333" clip-path="url(#z31365c10)" d="M 377 29 L 393 43 L 428 48 L 589 63 L 616 59"/>
</svg>