<svg id="z38801" class="acjk" viewBox="0 0 1024 1024" xmlns="http://www.w3.org/2000/svg">
<style>
<![CDATA[
@keyframes zk {
	to {
		stroke-dashoffset:0;
	}
}
svg.acjk path[clip-path] {
	--t:0.8s;
	animation:zk var(--t) linear forwards var(--d);
	stroke-dasharray:3337;
	stroke-dashoffset:3339;
	stroke-width:128;
	stroke-linecap:round;
	stroke-linejoin:round;
	fill:none;
	stroke:#000;
}
svg.acjk path[id] {fill:#ccc;}
]]>
</style>
  <path id="z38801d1" d="M 353 638 Q 387 645 419 649 Q 426 648 434 659 Q 435 668 416 676 Q 395 691 368 683 Q 364 682 363 681 L 310 666 Q 268 657 220 643 L 179 636 Q 163 636 95 623 Q 71 619 90 606 Q 117 588 143 594 Q 162 600 186 603 L 223 612 Q 260 622 306 630 L 353 638 Z"/>
  <path id="z38801d2" d="M 220 643 Q 220 649 220 653 Q 219 683 220 696 Q 224 712 213 719 Q 200 726 178 733 Q 160 737 145 728 Q 138 721 150 710 Q 166 694 179 636 L 186 603 Q 190 588 198 530 Q 202 509 210 496 Q 217 489 222 494 Q 225 498 227 507 L 228 530 Q 228 542 223 612 L 220 643 Z"/>
  <path id="z38801d3" d="M 332 550 Q 342 596 353 638 L 363 681 Q 363 694 386 750 Q 390 759 375 774 Q 348 793 328 800 Q 315 804 308 798 Q 301 794 306 779 Q 318 752 310 666 L 306 630 Q 302 593 296 551 C 292 521 326 521 332 550 Z"/>
  <path id="z38801d4" d="M 264 512 Q 292 519 344 525 Q 351 526 353 533 Q 353 539 332 550 L 296 551 L 295 551 Q 258 539 228 530 C 199 521 199 516 227 507 L 233 505 C 234 505 235 505 264 512 Z"/>
  <path id="z38801d5" d="M 159 428 Q 150 432 127 436 Q 117 437 114 434 Q 110 428 117 415 Q 136 378 151 313 Q 155 294 166 281 Q 182 263 186 277 Q 187 284 188 294 L 185 319 Q 175 383 174 404 C 173 423 173 423 159 428 Z"/>
  <path id="z38801d6" d="M 412 413 Q 416 423 425 426 Q 437 441 425 454 Q 412 464 372 481 Q 359 487 342 480 Q 315 468 290 459 L 245 446 Q 202 436 159 428 C 130 422 145 397 174 404 Q 181 405 192 409 Q 219 416 246 421 L 288 431 Q 345 444 352 438 Q 359 432 358 420 Q 354 386 346 357 C 338 328 375 328 385 356 Q 397 393 407 405 Q 407 406 408 407 L 412 413 Z"/>
  <path id="z38801d7" d="M 188 294 Q 191 294 246 304 L 285 311 Q 331 320 399 328 Q 406 329 408 336 Q 408 342 385 356 C 373 363 373 363 346 357 Q 315 350 286 341 L 247 331 Q 214 325 185 319 C 156 313 158 290 188 294 Z"/>
  <path id="z38801d8" d="M 244 234 Q 129 204 59 195 Q 47 194 45 186 Q 42 176 56 167 Q 89 146 146 164 Q 198 185 242 195 L 285 207 Q 340 222 407 233 Q 422 236 422 243 Q 423 255 406 262 Q 379 274 285 245 L 244 234 Z"/>
  <path id="z38801d9" d="M 290 459 Q 291 469 293 478 Q 294 488 289 494 Q 276 504 264 512 C 239 529 222 533 233 505 Q 243 487 245 446 L 246 421 Q 247 382 247 331 L 246 304 Q 246 262 244 234 L 242 195 Q 236 96 228 73 Q 219 42 250 -6 Q 260 -22 267 -26 Q 277 -27 282 -15 Q 292 13 290 40 Q 287 128 285 207 L 285 245 Q 285 279 285 311 L 286 341 Q 286 395 288 431 L 290 459 Z"/>
  <path id="z38801d10" d="M 735 437 Q 807 449 881 461 Q 882 464 885 467 Q 886 477 864 488 Q 837 509 748 482 Q 744 482 739 480 Q 736 480 737 479 C 717 472 717 472 695 471 Q 665 470 604 459 Q 576 455 598 439 Q 631 418 667 425 Q 677 428 693 429 L 735 437 Z"/>
  <path id="z38801d11" d="M 727 358 Q 731 394 735 437 L 737 479 Q 741 617 758 663 Q 764 676 754 685 Q 735 701 698 710 Q 676 716 668 709 Q 661 703 667 692 Q 689 661 692 618 Q 696 543 695 471 L 693 429 Q 693 290 600 203 Q 585 199 584 186 Q 585 182 596 183 Q 605 182 626 192 Q 699 228 722 329 Q 722 332 723 334 L 727 358 Z"/>
  <path id="z38801d12" d="M 723 334 Q 722 334 723 333 Q 774 272 833 184 Q 843 166 855 161 Q 862 160 869 166 Q 881 175 876 211 Q 872 262 728 358 L 727 358 C 701 373 706 359 723 334 Z"/>
  <path id="z38801d13" d="M 484 610 Q 535 559 548 558 Q 557 558 561 569 Q 565 581 559 605 Q 553 629 482 649 Q 469 653 464 651 Q 460 647 461 637 Q 462 627 484 610 Z"/>
  <path id="z38801d14" d="M 524 170 Q 540 180 547 197 Q 559 231 522 289 Q 498 338 560 408 Q 576 424 561 436 Q 545 448 516 459 Q 498 469 483 454 Q 443 415 416 414 Q 412 414 412 413 C 401 411 401 411 408 407 Q 421 394 455 400 Q 465 403 478 410 Q 485 414 492 406 Q 508 390 493 367 Q 459 334 483 288 Q 514 231 513 204 Q 512 186 507 176 Q 506 176 506 175 C 495 147 500 152 524 170 Z"/>
  <path id="z38801d15" d="M 506 175 Q 484 179 458 177 Q 436 173 416 178 Q 401 181 399 174 Q 395 164 408 153 Q 424 135 475 144 Q 511 148 536 134 Q 639 83 764 20 Q 797 1 843 20 Q 903 44 959 66 Q 978 73 978 82 Q 978 91 930 90 Q 762 90 712 106 Q 631 133 524 170 L 506 175 Z"/>
<defs>
  <clipPath id="z38801c1"><use href="#z38801d1"/></clipPath>
  <clipPath id="z38801c2"><use href="#z38801d2"/></clipPath>
  <clipPath id="z38801c3"><use href="#z38801d3"/></clipPath>
  <clipPath id="z38801c4"><use href="#z38801d4"/></clipPath>
  <clipPath id="z38801c5"><use href="#z38801d5"/></clipPath>
  <clipPath id="z38801c6"><use href="#z38801d6"/></clipPath>
  <clipPath id="z38801c7"><use href="#z38801d7"/></clipPath>
  <clipPath id="z38801c8"><use href="#z38801d8"/></clipPath>
  <clipPath id="z38801c9"><use href="#z38801d9"/></clipPath>
  <clipPath id="z38801c10"><use href="#z38801d10"/></clipPath>
  <clipPath id="z38801c11"><use href="#z38801d11"/></clipPath>
  <clipPath id="z38801c12"><use href="#z38801d12"/></clipPath>
  <clipPath id="z38801c13"><use href="#z38801d13"/></clipPath>
  <clipPath id="z38801c14"><use href="#z38801d14"/></clipPath>
  <clipPath id="z38801c15"><use href="#z38801d15"/></clipPath>
</defs>
<path style="--d:1s;" pathLength="3333" clip-path="url(#z38801c1)" d="M 91 615 L 115 610 L 176 618 L 378 664 L 425 660"/>
<path style="--d:2s;" pathLength="3333" clip-path="url(#z38801c2)" d="M 154 721 L 191 697 L 217 503"/>
<path style="--d:3s;" pathLength="3333" clip-path="url(#z38801c3)" d="M 317 788 L 348 750 L 319 577 L 317 569 L 302 559"/>
<path style="--d:4s;" pathLength="3333" clip-path="url(#z38801c4)" d="M 232 513 L 296 535 L 345 533"/>
<path style="--d:5s;" pathLength="3333" clip-path="url(#z38801c5)" d="M 121 429 L 151 398 L 176 281"/>
<path style="--d:6s;" pathLength="3333" clip-path="url(#z38801c6)" d="M 167 425 L 183 420 L 361 460 L 385 443 L 388 434 L 371 376 L 353 362"/>
<path style="--d:7s;" pathLength="3333" clip-path="url(#z38801c7)" d="M 190 301 L 199 309 L 352 340 L 400 336"/>
<path style="--d:8s;" pathLength="3333" clip-path="url(#z38801c8)" d="M 56 183 L 90 177 L 116 180 L 322 237 L 391 248 L 411 245"/>
<path style="--d:9s;" pathLength="3333" clip-path="url(#z38801c9)" d="M 242 503 L 260 491 L 267 477 L 258 57 L 269 -16"/>
<path style="--d:10s;" pathLength="3333" clip-path="url(#z38801c10)" d="M 599 450 L 647 444 L 816 474 L 876 469"/>
<path style="--d:11s;" pathLength="3333" clip-path="url(#z38801c11)" d="M 677 700 L 712 674 L 721 659 L 716 459 L 701 325 L 684 280 L 646 225 L 613 198 L 591 189"/>
<path style="--d:12s;" pathLength="3333" clip-path="url(#z38801c12)" d="M 728 352 L 737 349 L 737 336 L 830 240 L 854 199 L 857 176"/>
<path style="--d:13s;" pathLength="3333" clip-path="url(#z38801c13)" d="M 468 643 L 534 598 L 549 569"/>
<path style="--d:14s;" pathLength="3333" clip-path="url(#z38801c14)" d="M 415 407 L 444 408 L 469 424 L 503 433 L 525 418 L 516 374 L 494 328 L 497 304 L 532 216 L 522 183 L 514 180"/>
<path style="--d:15s;" pathLength="3333" clip-path="url(#z38801c15)" d="M 408 169 L 427 159 L 488 161 L 528 155 L 723 72 L 793 52 L 971 80"/>
</svg>