<svg id="z34532" class="acjk" viewBox="0 0 1024 1024" xmlns="http://www.w3.org/2000/svg">
<style>
<![CDATA[
@keyframes zk {
	to {
		stroke-dashoffset:0;
	}
}
svg.acjk path[clip-path] {
	--t:0.8s;
	animation:zk var(--t) linear forwards var(--d);
	stroke-dasharray:3337;
	stroke-dashoffset:3339;
	stroke-width:128;
	stroke-linecap:round;
	stroke-linejoin:round;
	fill:none;
	stroke:#000;
}
svg.acjk path[id] {fill:#ccc;}
]]>
</style>
  <path id="z34532d1" d="M 108 489 Q 95 493 72 496 Q 60 499 57 494 Q 50 487 59 472 Q 84 424 102 346 Q 105 322 120 307 Q 138 285 143 301 Q 146 311 146 326 L 144 353 Q 131 440 128 462 C 125 484 125 484 108 489 Z"/>
  <path id="z34532d2" d="M 363 388 Q 384 460 413 483 Q 428 499 414 515 Q 399 527 352 548 Q 336 554 316 546 Q 285 533 259 523 L 212 510 Q 160 498 108 489 C 78 484 99 454 128 462 Q 152 469 212 482 L 258 492 Q 315 510 328 500 Q 337 491 319 398 C 313 369 354 359 363 388 Z"/>
  <path id="z34532d3" d="M 254 347 Q 300 357 367 365 Q 376 366 377 374 Q 377 380 363 388 C 341 402 341 402 319 398 Q 313 398 256 380 L 212 368 Q 175 361 144 353 C 115 346 116 327 146 326 Q 153 325 165 327 Q 183 333 211 338 L 254 347 Z"/>
  <path id="z34532d4" d="M 250 226 Q 251 287 254 347 L 256 380 Q 257 437 258 492 L 259 523 Q 262 628 281 709 Q 285 721 263 736 Q 226 755 201 759 Q 185 762 176 753 Q 169 746 177 729 Q 208 684 208 654 Q 211 584 212 510 L 212 482 Q 212 427 212 368 L 211 338 Q 210 277 206 211 C 204 181 249 196 250 226 Z"/>
  <path id="z34532d5" d="M 319 252 Q 285 240 250 226 L 206 211 Q 151 193 94 173 Q 78 167 51 167 Q 38 166 37 154 Q 36 141 45 134 Q 69 119 103 102 Q 113 101 124 109 Q 152 134 295 211 Q 314 221 329 235 Q 329 236 330 236 C 352 256 347 262 319 252 Z"/>
  <path id="z34532d6" d="M 348 282 Q 318 303 308 303 Q 304 300 301 290 Q 301 280 318 255 Q 318 254 319 252 L 330 236 Q 340 218 352 196 Q 359 181 373 178 Q 382 177 389 185 Q 396 195 398 223 Q 398 248 357 276 L 348 282 Z"/>
  <path id="z34532d7" d="M 610 653 Q 643 740 644 740 L 643 743 Q 639 753 622 763 Q 579 787 547 773 Q 538 769 544 756 Q 578 663 469 462 Q 466 459 465 455 Q 434 398 348 282 C 330 258 333 259 357 276 Q 495 370 595 614 Q 596 620 599 624 L 610 653 Z"/>
  <path id="z34532d8" d="M 599 624 Q 612 611 625 591 Q 721 449 800 351 Q 813 332 839 331 Q 927 338 961 345 Q 976 346 981 354 Q 985 361 976 365 Q 822 438 749 507 Q 692 561 622 642 Q 618 649 610 653 C 588 673 579 646 599 624 Z"/>
  <path id="z34532d9" d="M 515 391 Q 478 382 506 367 Q 542 349 617 366 Q 650 375 687 383 Q 706 387 709 391 Q 718 400 712 408 Q 705 420 674 425 Q 647 428 572 402 Q 545 395 515 391 Z"/>
  <path id="z34532d10" d="M 482 243 Q 470 247 444 253 Q 432 256 429 251 Q 422 245 431 229 Q 459 165 476 60 Q 479 29 496 8 Q 514 -14 519 1 Q 525 19 522 50 L 517 85 Q 502 179 499 210 C 496 239 496 239 482 243 Z"/>
  <path id="z34532d11" d="M 737 111 Q 761 190 793 215 Q 811 234 795 253 Q 716 313 660 285 Q 579 258 482 243 C 452 238 469 205 499 210 Q 509 211 522 215 Q 595 228 666 241 Q 684 245 692 238 Q 707 223 683 118 C 676 89 728 82 737 111 Z"/>
  <path id="z34532d12" d="M 522 50 Q 531 49 542 51 Q 608 64 751 76 Q 761 77 763 86 Q 763 95 737 111 L 683 118 L 682 118 Q 589 96 517 85 C 487 80 492 51 522 50 Z"/>
<defs>
  <clipPath id="z34532c1"><use href="#z34532d1"/></clipPath>
  <clipPath id="z34532c2"><use href="#z34532d2"/></clipPath>
  <clipPath id="z34532c3"><use href="#z34532d3"/></clipPath>
  <clipPath id="z34532c4"><use href="#z34532d4"/></clipPath>
  <clipPath id="z34532c5"><use href="#z34532d5"/></clipPath>
  <clipPath id="z34532c6"><use href="#z34532d6"/></clipPath>
  <clipPath id="z34532c7"><use href="#z34532d7"/></clipPath>
  <clipPath id="z34532c8"><use href="#z34532d8"/></clipPath>
  <clipPath id="z34532c9"><use href="#z34532d9"/></clipPath>
  <clipPath id="z34532c10"><use href="#z34532d10"/></clipPath>
  <clipPath id="z34532c11"><use href="#z34532d11"/></clipPath>
  <clipPath id="z34532c12"><use href="#z34532d12"/></clipPath>
</defs>
<path style="--d:1s;" pathLength="3333" clip-path="url(#z34532c1)" d="M 66 486 L 92 465 L 100 451 L 132 306"/>
<path style="--d:2s;" pathLength="3333" clip-path="url(#z34532c2)" d="M 116 488 L 139 479 L 317 524 L 341 524 L 370 495 L 346 415 L 358 400"/>
<path style="--d:3s;" pathLength="3333" clip-path="url(#z34532c3)" d="M 150 333 L 180 347 L 315 378 L 368 374"/>
<path style="--d:4s;" pathLength="3333" clip-path="url(#z34532c4)" d="M 188 743 L 238 704 L 239 695 L 229 241 L 211 219"/>
<path style="--d:5s;" pathLength="3333" clip-path="url(#z34532c5)" d="M 50 154 L 72 144 L 106 140 L 314 238 L 326 239"/>
<path style="--d:6s;" pathLength="3333" clip-path="url(#z34532c6)" d="M 310 293 L 359 240 L 375 196"/>
<path style="--d:7s;" pathLength="3333" clip-path="url(#z34532c7)" d="M 552 763 L 569 755 L 594 730 L 579 657 L 558 595 L 530 528 L 482 439 L 404 333 L 357 286"/>
<path style="--d:8s;" pathLength="3333" clip-path="url(#z34532c8)" d="M 610 645 L 632 605 L 718 500 L 833 386 L 846 379 L 972 357"/>
<path style="--d:9s;" pathLength="3333" clip-path="url(#z34532c9)" d="M 507 380 L 552 377 L 669 403 L 702 401"/>
<path style="--d:10s;" pathLength="3333" clip-path="url(#z34532c10)" d="M 438 243 L 460 224 L 471 203 L 508 7"/>
<path style="--d:11s;" pathLength="3333" clip-path="url(#z34532c11)" d="M 491 240 L 511 230 L 685 268 L 715 261 L 744 232 L 717 142 L 691 129"/>
<path style="--d:12s;" pathLength="3333" clip-path="url(#z34532c12)" d="M 527 57 L 538 70 L 679 94 L 728 94 L 753 86"/>
</svg>