<svg id="z35663" class="acjk" viewBox="0 0 1024 1024" xmlns="http://www.w3.org/2000/svg">
<style>
<![CDATA[
@keyframes zk {
	to {
		stroke-dashoffset:0;
	}
}
svg.acjk path[clip-path] {
	--t:0.8s;
	animation:zk var(--t) linear forwards var(--d);
	stroke-dasharray:3337;
	stroke-dashoffset:3339;
	stroke-width:128;
	stroke-linecap:round;
	stroke-linejoin:round;
	fill:none;
	stroke:#000;
}
svg.acjk path[id] {fill:#ccc;}
]]>
</style>
  <path id="z35663d1" d="M 277 728 Q 299 709 321 686 Q 336 673 352 674 Q 364 674 369 688 Q 373 704 363 735 Q 357 753 330 764 Q 261 785 248 779 Q 242 775 244 761 Q 248 751 277 728 Z"/>
  <path id="z35663d2" d="M 62 545 Q 50 544 47 535 Q 46 525 60 515 Q 93 496 146 512 Q 270 563 403 592 Q 419 595 419 602 Q 419 615 401 621 Q 376 631 354 624 Q 159 564 62 545 Z"/>
  <path id="z35663d3" d="M 198 467 Q 170 458 193 448 Q 227 433 272 451 Q 297 458 324 467 Q 337 471 338 473 Q 345 480 340 487 Q 333 496 309 498 Q 302 498 234 476 Q 218 472 198 467 Z"/>
  <path id="z35663d4" d="M 206 367 Q 178 358 201 348 Q 234 335 312 362 Q 319 365 329 368 Q 341 372 343 373 Q 349 380 344 387 Q 337 396 313 398 Q 301 398 241 376 Q 225 372 206 367 Z"/>
  <path id="z35663d5" d="M 164 237 Q 151 241 130 244 Q 120 247 116 242 Q 112 236 119 222 Q 144 173 160 91 Q 163 66 177 50 Q 193 31 198 45 Q 202 60 200 84 L 195 112 Q 182 190 180 212 C 178 233 178 233 164 237 Z"/>
  <path id="z35663d6" d="M 323 142 Q 336 208 356 227 Q 375 252 353 264 Q 334 274 308 288 Q 292 297 247 267 Q 208 252 164 237 C 136 227 152 200 180 212 Q 207 224 260 237 Q 279 243 285 235 Q 291 231 286 203 Q 282 175 274 142 C 267 113 317 113 323 142 Z"/>
  <path id="z35663d7" d="M 200 84 Q 207 84 217 87 Q 254 100 333 117 Q 342 118 342 127 Q 342 133 323 142 L 274 142 L 273 142 Q 230 123 195 112 C 166 103 170 82 200 84 Z"/>
  <path id="z35663d8" d="M 520 548 Q 489 547 463 542 Q 442 539 452 554 Q 488 620 523 669 Q 533 682 531 687 Q 528 697 499 718 Q 486 728 473 724 Q 466 721 470 710 Q 489 671 423 562 Q 414 553 405 542 Q 392 530 395 522 Q 399 509 410 496 Q 419 489 427 495 Q 443 507 498 526 Q 502 527 509 528 C 539 533 550 549 520 548 Z"/>
  <path id="z35663d9" d="M 553 441 Q 519 435 479 422 Q 463 415 473 430 Q 554 535 589 563 Q 599 570 594 578 Q 587 593 561 607 Q 548 614 541 613 Q 534 610 535 598 Q 535 595 520 548 L 509 528 Q 503 521 499 510 Q 427 417 414 409 Q 404 402 406 391 Q 407 381 427 366 Q 434 357 446 367 Q 485 397 557 427 C 585 439 582 447 553 441 Z"/>
  <path id="z35663d10" d="M 557 427 Q 570 385 580 380 Q 587 376 596 384 Q 600 391 602 405 Q 601 421 588 436 Q 570 463 560 471 Q 556 475 551 468 Q 548 465 553 441 L 557 427 Z"/>
  <path id="z35663d11" d="M 794 609 Q 766 609 744 607 Q 717 606 730 623 Q 761 686 793 733 Q 802 746 799 752 Q 796 762 766 782 Q 753 789 740 786 Q 733 783 738 772 Q 753 750 712 651 Q 705 630 684 609 Q 672 597 674 589 Q 678 576 689 564 Q 696 557 706 563 Q 722 573 777 589 Q 778 590 782 589 C 812 593 824 609 794 609 Z"/>
  <path id="z35663d12" d="M 841 507 Q 807 506 766 496 Q 738 487 757 510 Q 838 615 873 643 Q 883 650 878 658 Q 871 673 845 687 Q 832 694 825 693 Q 818 690 819 678 Q 820 657 794 609 L 782 589 Q 712 496 696 489 Q 686 482 687 472 Q 688 462 708 446 Q 715 436 728 445 Q 774 475 838 492 Q 839 493 845 493 C 874 499 871 509 841 507 Z"/>
  <path id="z35663d13" d="M 845 493 Q 857 466 863 464 Q 870 460 880 468 Q 884 475 886 491 Q 883 519 845 551 Q 839 555 835 548 Q 831 542 841 507 L 845 493 Z"/>
  <path id="z35663d14" d="M 702 332 Q 703 335 835 362 Q 845 362 851 373 Q 851 383 831 391 Q 801 406 716 374 Q 704 370 693 365 L 655 352 Q 652 352 651 351 Q 587 332 531 317 L 469 303 Q 435 299 398 289 Q 373 283 393 271 Q 418 253 456 262 Q 460 263 468 265 L 519 281 Q 583 302 664 322 L 702 332 Z"/>
  <path id="z35663d15" d="M 531 317 Q 528 329 498 342 Q 480 352 466 348 Q 456 344 461 333 Q 468 320 469 303 L 468 265 Q 468 154 380 79 Q 365 66 339 48 Q 329 41 339 38 Q 381 38 433 86 Q 484 131 506 215 L 509 234 Q 513 252 518 269 Q 518 276 519 281 C 521 311 539 305 531 317 Z"/>
  <path id="z35663d16" d="M 506 215 Q 510 209 522 201 Q 582 147 591 147 Q 598 148 602 157 Q 605 167 599 187 Q 592 212 519 233 Q 512 234 509 234 C 490 235 490 235 506 215 Z"/>
  <path id="z35663d17" d="M 749 116 Q 794 40 857 -18 Q 912 -67 941 -67 Q 960 -64 954 -36 Q 953 10 962 143 Q 963 165 955 166 Q 948 166 941 147 Q 925 110 911 80 Q 898 49 886 49 Q 852 49 784 150 L 757 194 Q 727 245 702 332 L 693 365 Q 624 635 648 800 Q 661 840 608 861 Q 574 877 555 870 Q 536 863 545 844 Q 588 804 588 771 Q 615 504 654 358 Q 654 355 655 352 L 664 322 Q 692 229 726 158 L 749 116 Z"/>
  <path id="z35663d18" d="M 726 158 Q 675 109 571 52 Q 562 46 568 43 Q 574 39 585 41 Q 681 59 749 116 L 784 150 Q 808 178 836 216 Q 849 232 864 249 Q 873 256 869 266 Q 866 276 842 297 Q 826 313 816 312 Q 803 311 802 298 Q 799 255 757 194 L 726 158 Z"/>
  <path id="z35663d19" d="M 887 398 Q 906 376 927 349 Q 936 337 948 336 Q 955 335 961 345 Q 967 355 963 379 Q 962 395 938 411 Q 886 442 872 438 Q 868 437 867 426 Q 868 417 887 398 Z"/>
<defs>
  <clipPath id="z35663c1"><use href="#z35663d1"/></clipPath>
  <clipPath id="z35663c2"><use href="#z35663d2"/></clipPath>
  <clipPath id="z35663c3"><use href="#z35663d3"/></clipPath>
  <clipPath id="z35663c4"><use href="#z35663d4"/></clipPath>
  <clipPath id="z35663c5"><use href="#z35663d5"/></clipPath>
  <clipPath id="z35663c6"><use href="#z35663d6"/></clipPath>
  <clipPath id="z35663c7"><use href="#z35663d7"/></clipPath>
  <clipPath id="z35663c8"><use href="#z35663d8"/></clipPath>
  <clipPath id="z35663c9"><use href="#z35663d9"/></clipPath>
  <clipPath id="z35663c10"><use href="#z35663d10"/></clipPath>
  <clipPath id="z35663c11"><use href="#z35663d11"/></clipPath>
  <clipPath id="z35663c12"><use href="#z35663d12"/></clipPath>
  <clipPath id="z35663c13"><use href="#z35663d13"/></clipPath>
  <clipPath id="z35663c14"><use href="#z35663d14"/></clipPath>
  <clipPath id="z35663c15"><use href="#z35663d15"/></clipPath>
  <clipPath id="z35663c16"><use href="#z35663d16"/></clipPath>
  <clipPath id="z35663c17"><use href="#z35663d17"/></clipPath>
  <clipPath id="z35663c18"><use href="#z35663d18"/></clipPath>
  <clipPath id="z35663c19"><use href="#z35663d19"/></clipPath>
</defs>
<path style="--d:1s;" pathLength="3333" clip-path="url(#z35663c1)" d="M 253 772 L 328 727 L 352 692"/>
<path style="--d:2s;" pathLength="3333" clip-path="url(#z35663c2)" d="M 58 533 L 82 528 L 117 531 L 350 602 L 409 604"/>
<path style="--d:3s;" pathLength="3333" clip-path="url(#z35663c3)" d="M 193 458 L 229 457 L 303 479 L 330 481"/>
<path style="--d:4s;" pathLength="3333" clip-path="url(#z35663c4)" d="M 201 358 L 244 360 L 305 379 L 334 381"/>
<path style="--d:5s;" pathLength="3333" clip-path="url(#z35663c5)" d="M 124 237 L 149 214 L 157 197 L 188 50"/>
<path style="--d:6s;" pathLength="3333" clip-path="url(#z35663c6)" d="M 173 234 L 185 230 L 281 262 L 301 260 L 321 241 L 320 230 L 304 166 L 280 149"/>
<path style="--d:7s;" pathLength="3333" clip-path="url(#z35663c7)" d="M 203 92 L 212 102 L 273 123 L 333 126"/>
<path style="--d:8s;" pathLength="3333" clip-path="url(#z35663c8)" d="M 480 715 L 495 696 L 499 678 L 440 566 L 428 527 L 464 527 L 504 537 L 513 546"/>
<path style="--d:9s;" pathLength="3333" clip-path="url(#z35663c9)" d="M 544 605 L 559 575 L 516 507 L 463 442 L 455 428 L 454 408 L 480 406 L 548 432"/>
<path style="--d:10s;" pathLength="3333" clip-path="url(#z35663c10)" d="M 558 463 L 585 391"/>
<path style="--d:11s;" pathLength="3333" clip-path="url(#z35663c11)" d="M 747 778 L 763 760 L 768 741 L 728 658 L 706 593 L 764 595 L 787 606"/>
<path style="--d:12s;" pathLength="3333" clip-path="url(#z35663c12)" d="M 828 685 L 844 655 L 779 558 L 746 521 L 730 495 L 727 478 L 751 477 L 807 495 L 841 499"/>
<path style="--d:13s;" pathLength="3333" clip-path="url(#z35663c13)" d="M 842 543 L 864 500 L 868 475"/>
<path style="--d:14s;" pathLength="3333" clip-path="url(#z35663c14)" d="M 394 280 L 444 279 L 783 373 L 841 374"/>
<path style="--d:15s;" pathLength="3333" clip-path="url(#z35663c15)" d="M 472 338 L 498 308 L 485 212 L 470 169 L 451 132 L 416 90 L 378 60 L 345 43"/>
<path style="--d:16s;" pathLength="3333" clip-path="url(#z35663c16)" d="M 513 228 L 569 189 L 592 157"/>
<path style="--d:17s;" pathLength="3333" clip-path="url(#z35663c17)" d="M 558 854 L 589 839 L 614 814 L 623 635 L 652 452 L 691 301 L 749 162 L 791 96 L 839 39 L 876 13 L 906 4 L 925 41 L 954 160"/>
<path style="--d:18s;" pathLength="3333" clip-path="url(#z35663c18)" d="M 816 298 L 828 259 L 778 180 L 755 154 L 672 89 L 573 46"/>
<path style="--d:19s;" pathLength="3333" clip-path="url(#z35663c19)" d="M 876 429 L 931 384 L 947 351"/>
</svg>