<svg id="z38401" class="acjk" viewBox="0 0 1024 1024" xmlns="http://www.w3.org/2000/svg">
<style>
<![CDATA[
@keyframes zk {
	to {
		stroke-dashoffset:0;
	}
}
svg.acjk path[clip-path] {
	--t:0.8s;
	animation:zk var(--t) linear forwards var(--d);
	stroke-dasharray:3337;
	stroke-dashoffset:3339;
	stroke-width:128;
	stroke-linecap:round;
	stroke-linejoin:round;
	fill:none;
	stroke:#000;
}
svg.acjk path[id] {fill:#ccc;}
]]>
</style>
  <path id="z38401d1" d="M 282 772 Q 360 691 384 692 Q 399 691 404 711 Q 405 724 394 746 Q 381 767 351 777 Q 305 798 285 801 Q 275 802 275 790 Q 274 781 282 772 Z"/>
  <path id="z38401d2" d="M 170 675 Q 195 615 194 542 Q 195 268 150 134 Q 129 77 165 32 L 167 30 Q 179 14 191 29 Q 230 72 231 234 Q 237 564 253 638 Q 256 657 238 669 Q 213 691 184 701 Q 174 702 166 694 Q 162 687 170 675 Z"/>
  <path id="z38401d3" d="M 785 338 Q 784 241 780 138 Q 779 96 764 85 Q 743 69 637 84 Q 619 85 622 75 Q 625 68 639 64 Q 733 22 784 -14 Q 808 -33 821 -30 Q 834 -26 844 5 Q 857 53 852 122 Q 821 680 839 724 Q 849 757 843 765 Q 833 781 784 804 Q 765 814 744 808 Q 714 796 647 778 Q 577 762 502 750 Q 486 750 490 739 Q 497 727 520 718 Q 532 711 598 728 Q 742 776 761 744 Q 785 693 785 355 L 785 338 Z"/>
  <path id="z38401d4" d="M 442 555 Q 461 580 475 592 Q 484 601 481 612 Q 478 624 455 644 Q 434 662 418 663 Q 402 662 407 643 Q 428 588 271 414 Q 262 405 260 400 Q 256 391 269 393 Q 294 397 391 493 L 399 503 Q 411 518 425 533 L 442 555 Z"/>
  <path id="z38401d5" d="M 351 290 Q 445 353 499 405 L 524 430 Q 615 532 633 544 Q 646 553 642 562 Q 641 569 588 593 Q 572 602 555 591 Q 537 581 510 572 Q 476 562 442 555 C 413 549 396 540 425 533 Q 446 521 520 543 Q 533 546 538 540 Q 541 525 482 452 L 464 431 Q 394 355 270 268 Q 257 259 269 257 Q 278 257 319 274 Q 323 275 327 278 L 351 290 Z"/>
  <path id="z38401d6" d="M 499 405 Q 554 362 615 322 Q 637 306 669 310 Q 727 316 785 338 C 813 348 814 348 785 355 Q 742 365 690 373 Q 626 385 524 430 L 482 452 Q 475 456 468 461 Q 416 495 400 503 L 399 503 C 372 516 371 516 391 493 Q 394 484 464 431 L 499 405 Z"/>
  <path id="z38401d7" d="M 375 284 Q 368 288 351 290 C 321 294 319 294 327 278 Q 354 224 369 133 Q 370 108 386 90 Q 402 71 406 85 Q 412 100 409 126 L 404 159 Q 392 232 391 256 C 390 278 390 278 375 284 Z"/>
  <path id="z38401d8" d="M 584 179 Q 608 240 632 257 Q 647 273 634 290 Q 565 345 526 320 Q 445 295 375 284 C 345 279 362 249 391 256 Q 400 259 525 281 Q 541 284 547 277 Q 556 268 537 185 C 530 156 573 151 584 179 Z"/>
  <path id="z38401d9" d="M 409 126 Q 416 125 427 127 Q 481 137 595 146 Q 605 147 607 156 Q 607 163 584 179 L 537 185 Q 534 186 531 185 Q 461 169 404 159 C 374 154 379 127 409 126 Z"/>
<defs>
  <clipPath id="z38401c1"><use href="#z38401d1"/></clipPath>
  <clipPath id="z38401c2"><use href="#z38401d2"/></clipPath>
  <clipPath id="z38401c3"><use href="#z38401d3"/></clipPath>
  <clipPath id="z38401c4"><use href="#z38401d4"/></clipPath>
  <clipPath id="z38401c5"><use href="#z38401d5"/></clipPath>
  <clipPath id="z38401c6"><use href="#z38401d6"/></clipPath>
  <clipPath id="z38401c7"><use href="#z38401d7"/></clipPath>
  <clipPath id="z38401c8"><use href="#z38401d8"/></clipPath>
  <clipPath id="z38401c9"><use href="#z38401d9"/></clipPath>
</defs>
<path style="--d:1s;" pathLength="3333" clip-path="url(#z38401c1)" d="M 287 789 L 362 738 L 384 712"/>
<path style="--d:2s;" pathLength="3333" clip-path="url(#z38401c2)" d="M 176 689 L 195 673 L 218 640 L 219 608 L 209 296 L 198 182 L 179 85 L 179 35"/>
<path style="--d:3s;" pathLength="3333" clip-path="url(#z38401c3)" d="M 498 742 L 532 735 L 582 742 L 660 765 L 749 781 L 779 772 L 803 747 L 816 245 L 812 81 L 797 42 L 735 48 L 630 77"/>
<path style="--d:4s;" pathLength="3333" clip-path="url(#z38401c4)" d="M 418 650 L 442 609 L 418 565 L 352 478 L 267 400"/>
<path style="--d:5s;" pathLength="3333" clip-path="url(#z38401c5)" d="M 431 537 L 535 562 L 579 552 L 546 492 L 462 398 L 351 307 L 271 262"/>
<path style="--d:6s;" pathLength="3333" clip-path="url(#z38401c6)" d="M 399 495 L 440 462 L 453 459 L 459 447 L 638 349 L 700 342 L 772 345 L 777 351"/>
<path style="--d:7s;" pathLength="3333" clip-path="url(#z38401c7)" d="M 336 275 L 359 265 L 366 249 L 396 89"/>
<path style="--d:8s;" pathLength="3333" clip-path="url(#z38401c8)" d="M 383 282 L 402 274 L 547 304 L 570 296 L 589 270 L 568 207 L 546 196"/>
<path style="--d:9s;" pathLength="3333" clip-path="url(#z38401c9)" d="M 413 132 L 424 145 L 534 163 L 574 163 L 598 155"/>
</svg>