<svg id="z35875" class="acjk" viewBox="0 0 1024 1024" xmlns="http://www.w3.org/2000/svg">
<style>
<![CDATA[
@keyframes zk {
	to {
		stroke-dashoffset:0;
	}
}
svg.acjk path[clip-path] {
	--t:0.8s;
	animation:zk var(--t) linear forwards var(--d);
	stroke-dasharray:3337;
	stroke-dashoffset:3339;
	stroke-width:128;
	stroke-linecap:round;
	stroke-linejoin:round;
	fill:none;
	stroke:#000;
}
svg.acjk path[id] {fill:#ccc;}
]]>
</style>
  <path id="z35875d1" d="M 276 731 Q 304 709 335 680 Q 351 667 368 668 Q 380 669 385 684 Q 389 700 378 733 Q 371 754 337 767 Q 256 792 244 783 Q 238 779 241 765 Q 245 752 276 731 Z"/>
  <path id="z35875d2" d="M 144 492 Q 93 476 65 473 Q 50 473 48 465 Q 44 456 55 449 Q 97 424 125 436 Q 165 457 203 478 Q 228 491 238 484 Q 248 477 243 451 Q 242 411 239 371 Q 235 254 202 149 Q 183 119 225 64 Q 235 51 246 57 Q 255 64 267 88 Q 309 133 394 208 Q 407 218 406 226 Q 405 235 393 226 Q 356 207 317 185 Q 257 142 271 211 Q 271 278 298 443 Q 302 468 325 491 Q 338 501 328 515 Q 316 531 277 549 Q 265 555 247 544 Q 181 507 144 492 Z"/>
  <path id="z35875d3" d="M 647 773 Q 599 731 477 675 Q 473 666 477 664 Q 525 664 654 717 Q 676 732 742 746 Q 758 747 761 754 Q 764 764 753 774 Q 734 789 693 804 Q 680 811 667 810 Q 660 806 660 796 Q 659 783 647 773 Z"/>
  <path id="z35875d4" d="M 475 581 Q 497 559 520 534 Q 530 522 544 522 Q 553 522 557 533 Q 561 545 556 569 Q 549 597 474 621 Q 461 625 456 623 Q 452 620 452 609 Q 455 599 475 581 Z"/>
  <path id="z35875d5" d="M 584 635 Q 624 568 647 564 Q 659 561 666 576 Q 669 586 663 606 Q 648 639 591 658 Q 584 661 581 651 Q 580 644 584 635 Z"/>
  <path id="z35875d6" d="M 800 662 Q 764 610 691 533 Q 685 526 691 519 Q 698 518 706 522 Q 818 607 872 640 Q 890 644 886 655 Q 880 671 862 690 Q 843 708 821 710 Q 806 710 807 691 Q 810 678 800 662 Z"/>
  <path id="z35875d7" d="M 535 427 Q 542 440 552 451 Q 559 461 548 473 Q 512 498 491 496 Q 482 493 484 482 Q 497 424 421 326 Q 415 320 412 314 Q 406 301 418 306 Q 458 312 512 389 Q 516 398 523 408 L 535 427 Z"/>
  <path id="z35875d8" d="M 674 403 Q 816 433 822 437 Q 831 444 827 452 Q 820 464 792 471 Q 768 477 664 447 Q 561 431 538 428 Q 535 428 535 427 C 506 421 501 420 523 408 Q 524 408 527 406 Q 566 382 623 394 L 674 403 Z"/>
  <path id="z35875d9" d="M 684 273 Q 762 283 874 287 Q 932 291 937 298 Q 941 310 925 322 Q 867 361 803 340 Q 754 330 685 313 L 633 303 Q 530 287 411 266 Q 392 263 407 247 Q 420 234 438 230 Q 459 226 474 230 Q 549 254 634 266 L 684 273 Z"/>
  <path id="z35875d10" d="M 678 108 Q 681 198 684 273 L 685 313 Q 686 326 687 339 Q 690 387 679 399 Q 676 402 674 403 C 653 424 614 422 623 394 Q 629 388 633 303 L 634 266 Q 634 205 635 100 C 635 70 677 78 678 108 Z"/>
  <path id="z35875d11" d="M 817 129 Q 742 122 678 108 L 635 100 Q 574 90 523 72 Q 507 69 511 89 Q 515 116 521 143 Q 525 165 517 178 Q 487 215 462 212 Q 452 208 459 191 Q 475 151 467 111 Q 461 74 445 57 Q 429 42 434 29 Q 444 14 460 5 Q 473 -2 481 5 Q 520 44 740 88 Q 798 100 814 93 C 844 88 847 132 817 129 Z"/>
  <path id="z35875d12" d="M 814 93 Q 813 92 813 88 Q 809 79 813 65 Q 822 40 832 25 Q 842 12 850 23 Q 868 47 862 118 Q 865 190 870 201 Q 874 214 864 225 Q 846 235 817 248 Q 805 252 796 245 Q 790 241 794 230 Q 816 208 817 129 L 814 93 Z"/>
<defs>
  <clipPath id="z35875c1"><use href="#z35875d1"/></clipPath>
  <clipPath id="z35875c2"><use href="#z35875d2"/></clipPath>
  <clipPath id="z35875c3"><use href="#z35875d3"/></clipPath>
  <clipPath id="z35875c4"><use href="#z35875d4"/></clipPath>
  <clipPath id="z35875c5"><use href="#z35875d5"/></clipPath>
  <clipPath id="z35875c6"><use href="#z35875d6"/></clipPath>
  <clipPath id="z35875c7"><use href="#z35875d7"/></clipPath>
  <clipPath id="z35875c8"><use href="#z35875d8"/></clipPath>
  <clipPath id="z35875c9"><use href="#z35875d9"/></clipPath>
  <clipPath id="z35875c10"><use href="#z35875d10"/></clipPath>
  <clipPath id="z35875c11"><use href="#z35875d11"/></clipPath>
  <clipPath id="z35875c12"><use href="#z35875d12"/></clipPath>
</defs>
<path style="--d:1s;" pathLength="3333" clip-path="url(#z35875c1)" d="M 250 775 L 338 726 L 365 688"/>
<path style="--d:2s;" pathLength="3333" clip-path="url(#z35875c2)" d="M 59 460 L 121 460 L 234 511 L 269 510 L 278 501 L 240 177 L 246 133 L 293 146 L 400 223"/>
<path style="--d:3s;" pathLength="3333" clip-path="url(#z35875c3)" d="M 751 759 L 688 769 L 598 714 L 481 670"/>
<path style="--d:4s;" pathLength="3333" clip-path="url(#z35875c4)" d="M 460 614 L 526 567 L 543 536"/>
<path style="--d:5s;" pathLength="3333" clip-path="url(#z35875c5)" d="M 591 648 L 628 613 L 650 580"/>
<path style="--d:6s;" pathLength="3333" clip-path="url(#z35875c6)" d="M 821 696 L 839 662 L 697 526"/>
<path style="--d:7s;" pathLength="3333" clip-path="url(#z35875c7)" d="M 496 485 L 517 456 L 501 416 L 457 347 L 421 315"/>
<path style="--d:8s;" pathLength="3333" clip-path="url(#z35875c8)" d="M 527 412 L 598 413 L 774 449 L 816 447"/>
<path style="--d:9s;" pathLength="3333" clip-path="url(#z35875c9)" d="M 410 256 L 447 250 L 474 253 L 587 278 L 831 316 L 879 315 L 930 303"/>
<path style="--d:10s;" pathLength="3333" clip-path="url(#z35875c10)" d="M 629 394 L 658 368 L 660 351 L 657 133 L 641 109"/>
<path style="--d:11s;" pathLength="3333" clip-path="url(#z35875c11)" d="M 467 202 L 493 168 L 496 152 L 485 51 L 531 53 L 602 76 L 778 111 L 800 111 L 811 99"/>
<path style="--d:12s;" pathLength="3333" clip-path="url(#z35875c12)" d="M 806 236 L 839 204 L 841 28"/>
</svg>