<svg id="z33452" class="acjk" viewBox="0 0 1024 1024" xmlns="http://www.w3.org/2000/svg">
<style>
<![CDATA[
@keyframes zk {
	to {
		stroke-dashoffset:0;
	}
}
svg.acjk path[clip-path] {
	--t:0.8s;
	animation:zk var(--t) linear forwards var(--d);
	stroke-dasharray:3337;
	stroke-dashoffset:3339;
	stroke-width:128;
	stroke-linecap:round;
	stroke-linejoin:round;
	fill:none;
	stroke:#000;
}
svg.acjk path[id] {fill:#ccc;}
]]>
</style>
  <path id="z33452d1" d="M 632 667 Q 845 667 853 674 Q 853 675 854 676 Q 860 688 844 702 Q 789 742 723 729 Q 689 725 651 716 L 595 707 Q 550 704 427 686 L 378 679 Q 279 670 173 658 Q 152 657 167 639 Q 180 626 199 619 Q 220 613 236 618 Q 306 637 386 647 L 429 652 Q 516 664 586 666 L 632 667 Z"/>
  <path id="z33452d2" d="M 427 686 Q 424 722 424 750 Q 425 771 405 777 Q 360 795 341 789 Q 322 780 338 760 Q 366 726 377 685 Q 377 682 378 679 L 386 647 Q 395 596 411 580 Q 424 570 429 581 Q 435 597 429 652 L 427 686 Z"/>
  <path id="z33452d3" d="M 586 666 Q 571 615 574 595 Q 575 582 591 593 Q 601 602 632 667 L 651 716 Q 660 746 679 777 Q 692 792 682 802 Q 669 818 634 835 Q 618 844 600 835 Q 590 828 598 817 Q 610 793 595 707 L 586 666 Z"/>
  <path id="z33452d4" d="M 360 526 Q 363 471 248 358 Q 245 357 244 354 Q 210 326 131 271 Q 122 267 132 263 Q 192 263 301 348 Q 304 351 307 353 Q 347 387 413 459 Q 422 469 427 473 Q 434 477 434 486 Q 434 496 424 508 Q 394 542 368 539 Q 359 538 360 526 Z"/>
  <path id="z33452d5" d="M 547 549 Q 581 534 606 504 Q 808 285 841 279 Q 892 279 978 306 Q 993 310 997 318 Q 1001 325 991 327 Q 843 367 756 427 Q 690 475 600 556 Q 588 569 572 570 Q 547 569 540 559 Q 539 553 547 549 Z"/>
  <path id="z33452d6" d="M 452 308 Q 534 330 601 339 Q 623 340 627 335 Q 637 316 627 273 Q 605 150 571 99 Q 552 66 523 73 Q 502 77 483 85 Q 458 94 476 69 Q 513 27 529 -3 Q 548 -28 570 -9 Q 604 13 628 54 Q 658 102 683 252 Q 692 304 712 331 Q 725 344 720 354 Q 710 366 658 391 Q 639 401 618 387 Q 593 374 500 353 Q 406 331 326 326 Q 308 325 305 316 Q 304 309 328 296 Q 353 280 373 287 Q 397 294 422 300 L 452 308 Z"/>
  <path id="z33452d7" d="M 422 300 Q 422 164 194 24 Q 187 18 192 15 Q 198 11 209 14 Q 333 47 414 150 Q 435 178 459 217 Q 472 236 487 254 Q 494 261 491 272 Q 487 282 462 301 Q 456 305 452 308 C 427 325 423 328 422 300 Z"/>
<defs>
  <clipPath id="z33452c1"><use href="#z33452d1"/></clipPath>
  <clipPath id="z33452c2"><use href="#z33452d2"/></clipPath>
  <clipPath id="z33452c3"><use href="#z33452d3"/></clipPath>
  <clipPath id="z33452c4"><use href="#z33452d4"/></clipPath>
  <clipPath id="z33452c5"><use href="#z33452d5"/></clipPath>
  <clipPath id="z33452c6"><use href="#z33452d6"/></clipPath>
  <clipPath id="z33452c7"><use href="#z33452d7"/></clipPath>
</defs>
<path style="--d:1s;" pathLength="3333" clip-path="url(#z33452c1)" d="M 170 648 L 226 640 L 461 675 L 736 700 L 798 697 L 839 687 L 851 676"/>
<path style="--d:2s;" pathLength="3333" clip-path="url(#z33452c2)" d="M 347 774 L 390 744 L 420 585"/>
<path style="--d:3s;" pathLength="3333" clip-path="url(#z33452c3)" d="M 606 825 L 621 817 L 641 787 L 609 666 L 583 596"/>
<path style="--d:4s;" pathLength="3333" clip-path="url(#z33452c4)" d="M 373 527 L 391 488 L 331 409 L 248 331 L 191 294 L 137 268"/>
<path style="--d:5s;" pathLength="3333" clip-path="url(#z33452c5)" d="M 548 557 L 566 556 L 597 539 L 627 504 L 718 421 L 777 373 L 851 325 L 989 319"/>
<path style="--d:6s;" pathLength="3333" clip-path="url(#z33452c6)" d="M 313 315 L 363 307 L 638 364 L 669 340 L 630 151 L 612 100 L 586 57 L 557 34 L 536 41 L 476 79"/>
<path style="--d:7s;" pathLength="3333" clip-path="url(#z33452c7)" d="M 432 294 L 447 279 L 452 264 L 419 199 L 381 146 L 329 94 L 293 68 L 197 19"/>
</svg>