<svg id="z30828" class="acjk" viewBox="0 0 1024 1024" xmlns="http://www.w3.org/2000/svg">
<style>
<![CDATA[
@keyframes zk {
	to {
		stroke-dashoffset:0;
	}
}
svg.acjk path[clip-path] {
	--t:0.8s;
	animation:zk var(--t) linear forwards var(--d);
	stroke-dasharray:3337;
	stroke-dashoffset:3339;
	stroke-width:128;
	stroke-linecap:round;
	stroke-linejoin:round;
	fill:none;
	stroke:#000;
}
svg.acjk path[id] {fill:#ccc;}
]]>
</style>
  <path id="z30828d1" d="M 278 649 Q 429 694 433 697 Q 440 704 436 713 Q 429 723 399 729 Q 371 733 342 719 Q 305 703 263 691 Q 217 678 163 669 Q 127 660 154 646 Q 190 631 236 638 L 278 649 Z"/>
  <path id="z30828d2" d="M 242 438 Q 269 496 302 586 Q 314 623 315 625 Q 312 632 299 641 Q 289 647 278 649 C 249 658 229 665 236 638 Q 257 583 201 440 L 178 392 Q 139 320 43 194 Q 37 188 46 188 Q 98 206 184 328 Q 187 335 193 343 L 242 438 Z"/>
  <path id="z30828d3" d="M 201 440 Q 194 443 180 445 Q 168 448 165 443 Q 158 437 167 421 Q 173 408 178 392 L 193 343 Q 203 303 212 252 Q 215 221 232 200 Q 250 178 255 193 Q 261 209 259 235 L 254 269 Q 236 380 235 408 L 201 440 Z"/>
  <path id="z30828d4" d="M 391 298 Q 404 392 429 424 Q 448 449 426 461 Q 407 471 381 486 Q 363 495 346 483 Q 312 459 242 438 C 205 427 206 400 235 408 Q 239 409 249 412 Q 291 425 325 435 Q 350 442 356 432 Q 365 426 345 301 C 340 271 387 268 391 298 Z"/>
  <path id="z30828d5" d="M 259 235 Q 266 235 276 238 Q 316 251 404 268 Q 414 271 414 280 Q 414 287 391 298 L 345 301 Q 339 301 334 298 Q 291 282 254 269 C 226 259 229 233 259 235 Z"/>
  <path id="z30828d6" d="M 633 731 Q 784 767 787 769 Q 796 776 791 785 Q 784 795 756 803 Q 732 806 651 781 Q 576 762 520 756 Q 486 749 511 734 Q 539 718 581 720 L 633 731 Z"/>
  <path id="z30828d7" d="M 495 585 Q 482 589 464 593 Q 452 596 449 591 Q 442 585 451 569 Q 479 505 496 400 Q 499 369 516 348 Q 534 326 539 341 Q 540 345 542 352 L 543 382 Q 542 395 540 409 Q 521 523 519 554 C 517 579 517 579 495 585 Z"/>
  <path id="z30828d8" d="M 754 380 Q 754 373 757 364 Q 763 348 776 349 Q 789 350 797 366 Q 813 387 836 488 Q 852 540 888 571 Q 907 587 891 603 Q 872 619 822 645 Q 807 654 739 636 Q 718 636 667 622 L 620 612 Q 605 611 593 606 Q 535 593 495 585 C 466 579 489 550 519 554 Q 529 553 537 556 Q 568 568 622 578 L 667 588 Q 773 609 790 602 Q 800 595 795 559 Q 773 442 761 406 L 754 380 Z"/>
  <path id="z30828d9" d="M 669 481 Q 703 490 733 494 Q 754 498 745 509 Q 735 522 713 525 Q 695 526 668 519 L 623 503 Q 589 493 562 484 Q 547 480 566 467 Q 570 464 623 472 L 669 481 Z"/>
  <path id="z30828d10" d="M 665 370 Q 702 377 754 380 C 784 382 784 387 761 406 Q 757 410 750 414 Q 735 421 709 415 Q 687 411 667 405 L 620 395 Q 578 388 543 382 C 513 377 512 353 542 352 Q 548 351 557 353 Q 582 360 618 364 L 665 370 Z"/>
  <path id="z30828d11" d="M 628 191 Q 656 248 665 370 L 667 405 Q 668 444 669 481 L 668 519 Q 668 558 667 588 L 667 622 Q 668 656 678 694 Q 682 704 674 711 Q 658 723 633 731 C 605 742 560 742 581 720 Q 582 717 588 712 Q 615 688 617 661 Q 618 636 620 612 L 622 578 Q 623 541 623 503 L 623 472 Q 622 432 620 395 L 618 364 Q 609 267 590 226 L 569 190 Q 512 114 345 40 Q 333 36 330 33 Q 326 29 339 25 Q 450 25 584 131 Q 593 141 603 151 L 628 191 Z"/>
  <path id="z30828d12" d="M 603 151 Q 658 90 755 11 Q 788 -14 835 -4 Q 896 8 942 16 Q 957 19 970 25 Q 977 34 964 42 Q 948 49 815 83 Q 730 107 628 191 L 590 226 Q 551 262 511 306 Q 489 331 451 336 Q 441 337 432 331 Q 428 324 436 318 Q 481 288 520 246 Q 544 219 569 190 L 603 151 Z"/>
<defs>
  <clipPath id="z30828c1"><use href="#z30828d1"/></clipPath>
  <clipPath id="z30828c2"><use href="#z30828d2"/></clipPath>
  <clipPath id="z30828c3"><use href="#z30828d3"/></clipPath>
  <clipPath id="z30828c4"><use href="#z30828d4"/></clipPath>
  <clipPath id="z30828c5"><use href="#z30828d5"/></clipPath>
  <clipPath id="z30828c6"><use href="#z30828d6"/></clipPath>
  <clipPath id="z30828c7"><use href="#z30828d7"/></clipPath>
  <clipPath id="z30828c8"><use href="#z30828d8"/></clipPath>
  <clipPath id="z30828c9"><use href="#z30828d9"/></clipPath>
  <clipPath id="z30828c10"><use href="#z30828d10"/></clipPath>
  <clipPath id="z30828c11"><use href="#z30828d11"/></clipPath>
  <clipPath id="z30828c12"><use href="#z30828d12"/></clipPath>
</defs>
<path style="--d:1s;" pathLength="3333" clip-path="url(#z30828c1)" d="M 156 659 L 226 658 L 285 672 L 380 706 L 428 705"/>
<path style="--d:2s;" pathLength="3333" clip-path="url(#z30828c2)" d="M 244 636 L 275 613 L 275 606 L 258 536 L 222 440 L 164 329 L 107 253 L 63 205 L 51 201 L 49 193"/>
<path style="--d:3s;" pathLength="3333" clip-path="url(#z30828c3)" d="M 174 435 L 192 419 L 207 393 L 244 199"/>
<path style="--d:4s;" pathLength="3333" clip-path="url(#z30828c4)" d="M 238 417 L 254 428 L 354 460 L 366 460 L 385 447 L 394 437 L 373 331 L 369 320 L 353 313"/>
<path style="--d:5s;" pathLength="3333" clip-path="url(#z30828c5)" d="M 262 241 L 279 259 L 345 279 L 404 279"/>
<path style="--d:6s;" pathLength="3333" clip-path="url(#z30828c6)" d="M 513 746 L 546 740 L 583 743 L 722 777 L 751 782 L 783 778"/>
<path style="--d:7s;" pathLength="3333" clip-path="url(#z30828c7)" d="M 458 583 L 491 544 L 528 347"/>
<path style="--d:8s;" pathLength="3333" clip-path="url(#z30828c8)" d="M 502 582 L 530 574 L 713 615 L 773 625 L 810 621 L 840 585 L 775 368"/>
<path style="--d:9s;" pathLength="3333" clip-path="url(#z30828c9)" d="M 564 475 L 610 482 L 680 504 L 716 508 L 737 503"/>
<path style="--d:10s;" pathLength="3333" clip-path="url(#z30828c10)" d="M 549 359 L 567 372 L 750 402"/>
<path style="--d:11s;" pathLength="3333" clip-path="url(#z30828c11)" d="M 588 719 L 632 703 L 643 691 L 644 673 L 642 362 L 630 276 L 612 215 L 571 153 L 504 100 L 409 51 L 335 30"/>
<path style="--d:12s;" pathLength="3333" clip-path="url(#z30828c12)" d="M 440 326 L 486 304 L 654 136 L 775 50 L 821 37 L 961 32"/>
</svg>