<svg id="z30634" class="acjk" viewBox="0 0 1024 1024" xmlns="http://www.w3.org/2000/svg">
<style>
<![CDATA[
@keyframes zk {
	to {
		stroke-dashoffset:0;
	}
}
svg.acjk path[clip-path] {
	--t:0.8s;
	animation:zk var(--t) linear forwards var(--d);
	stroke-dasharray:3337;
	stroke-dashoffset:3339;
	stroke-width:128;
	stroke-linecap:round;
	stroke-linejoin:round;
	fill:none;
	stroke:#000;
}
svg.acjk path[id] {fill:#ccc;}
]]>
</style>
  <path id="z30634d1" d="M 143 689 Q 131 701 109 708 Q 99 712 88 709 Q 81 703 87 691 Q 90 679 95 667 Q 125 607 107 321 Q 103 281 92 231 Q 79 176 113 133 Q 123 120 134 133 Q 146 148 147 174 L 150 207 Q 150 222 151 355 L 151 385 Q 152 457 153 507 L 153 539 Q 154 636 156 647 Q 157 656 157 662 C 158 678 158 678 143 689 Z"/>
  <path id="z30634d2" d="M 318 355 Q 305 629 328 670 Q 338 688 330 698 Q 323 708 274 724 Q 250 731 234 722 Q 185 700 143 689 C 114 681 128 654 157 662 Q 158 663 164 664 Q 189 670 218 679 Q 245 686 254 678 Q 269 663 268 605 Q 271 361 259 228 Q 260 218 257 211 C 254 181 220 212 236 187 Q 249 166 262 145 Q 278 121 285 124 Q 298 127 313 163 Q 329 203 324 254 Q 321 288 319 333 L 318 355 Z"/>
  <path id="z30634d3" d="M 153 507 Q 198 517 231 525 Q 250 532 242 542 Q 230 552 208 554 Q 187 554 153 539 C 125 527 124 500 153 507 Z"/>
  <path id="z30634d4" d="M 151 355 Q 197 365 234 373 Q 255 379 246 389 Q 236 401 212 403 Q 169 403 151 385 C 129 365 122 349 151 355 Z"/>
  <path id="z30634d5" d="M 147 174 Q 175 181 236 187 C 266 190 282 194 257 211 Q 251 215 242 222 Q 230 228 150 207 C 121 199 118 167 147 174 Z"/>
  <path id="z30634d6" d="M 451 534 Q 441 519 432 502 Q 390 429 318 355 C 297 333 292 319 319 333 Q 454 397 545 633 Q 563 681 576 695 Q 586 705 580 714 Q 576 724 527 739 Q 515 743 497 732 Q 476 719 423 705 Q 411 702 421 691 Q 431 681 459 688 Q 496 698 499 693 Q 505 681 491 632 Q 484 599 462 556 L 451 534 Z"/>
  <path id="z30634d7" d="M 462 556 Q 461 566 459 579 Q 455 592 434 603 Q 380 621 372 619 Q 368 615 369 606 Q 370 597 392 580 Q 408 564 426 544 Q 435 535 451 534 C 464 533 464 533 462 556 Z"/>
  <path id="z30634d8" d="M 644 687 Q 716 754 752 780 Q 767 786 762 795 Q 756 808 738 821 Q 720 834 701 835 Q 688 834 691 817 Q 695 805 688 791 Q 669 754 630 697 C 613 672 622 667 644 687 Z"/>
  <path id="z30634d9" d="M 719 605 Q 810 653 854 670 Q 870 671 869 682 Q 865 698 850 718 Q 835 737 814 742 Q 801 743 799 726 Q 799 704 705 619 C 683 599 692 591 719 605 Z"/>
  <path id="z30634d10" d="M 705 619 Q 678 649 648 684 Q 647 687 644 687 L 630 697 Q 627 698 624 699 Q 599 700 591 692 Q 588 686 596 681 Q 627 663 646 634 Q 808 406 838 400 Q 907 400 963 413 Q 976 414 982 422 Q 986 428 977 432 Q 842 489 759 565 Q 740 583 719 605 L 705 619 Z"/>
  <path id="z30634d11" d="M 510 494 Q 480 488 502 476 Q 535 458 616 478 Q 670 490 676 493 Q 683 500 679 507 Q 672 516 649 521 Q 636 524 560 502 Q 538 498 510 494 Z"/>
  <path id="z30634d12" d="M 477 380 Q 467 384 442 388 Q 432 389 428 385 Q 424 379 431 366 Q 455 323 472 250 Q 476 228 489 214 Q 505 195 510 209 Q 511 216 512 228 L 510 257 Q 497 324 493 350 C 489 376 489 376 477 380 Z"/>
  <path id="z30634d13" d="M 700 282 Q 724 333 754 352 Q 770 368 757 386 Q 742 399 695 424 Q 679 433 658 426 Q 597 401 477 380 C 447 375 464 344 493 350 Q 502 351 512 355 Q 579 367 645 379 Q 661 383 668 376 Q 675 369 672 355 Q 662 318 649 285 C 638 257 687 255 700 282 Z"/>
  <path id="z30634d14" d="M 512 228 Q 518 228 525 229 Q 583 242 709 254 Q 719 255 720 262 Q 720 269 700 282 C 685 292 678 291 649 285 Q 573 269 510 257 C 481 251 482 227 512 228 Z"/>
  <path id="z30634d15" d="M 467 133 Q 500 82 513 80 Q 523 79 529 89 Q 536 101 533 128 Q 532 141 512 154 Q 461 181 452 179 Q 448 176 446 165 Q 447 155 467 133 Z"/>
  <path id="z30634d16" d="M 637 61 Q 668 100 691 134 Q 701 149 717 166 Q 732 176 725 187 Q 718 203 691 223 Q 678 233 662 230 Q 652 226 657 215 Q 664 185 615 81 Q 608 68 606 58 C 598 29 618 37 637 61 Z"/>
  <path id="z30634d17" d="M 606 58 Q 605 59 602 58 Q 482 48 341 37 Q 320 36 335 18 Q 348 5 365 -2 Q 384 -8 401 -4 Q 599 39 885 18 Q 904 18 909 25 Q 915 37 900 51 Q 842 96 795 81 Q 732 74 637 61 L 606 58 Z"/>
<defs>
  <clipPath id="z30634c1"><use href="#z30634d1"/></clipPath>
  <clipPath id="z30634c2"><use href="#z30634d2"/></clipPath>
  <clipPath id="z30634c3"><use href="#z30634d3"/></clipPath>
  <clipPath id="z30634c4"><use href="#z30634d4"/></clipPath>
  <clipPath id="z30634c5"><use href="#z30634d5"/></clipPath>
  <clipPath id="z30634c6"><use href="#z30634d6"/></clipPath>
  <clipPath id="z30634c7"><use href="#z30634d7"/></clipPath>
  <clipPath id="z30634c8"><use href="#z30634d8"/></clipPath>
  <clipPath id="z30634c9"><use href="#z30634d9"/></clipPath>
  <clipPath id="z30634c10"><use href="#z30634d10"/></clipPath>
  <clipPath id="z30634c11"><use href="#z30634d11"/></clipPath>
  <clipPath id="z30634c12"><use href="#z30634d12"/></clipPath>
  <clipPath id="z30634c13"><use href="#z30634d13"/></clipPath>
  <clipPath id="z30634c14"><use href="#z30634d14"/></clipPath>
  <clipPath id="z30634c15"><use href="#z30634d15"/></clipPath>
  <clipPath id="z30634c16"><use href="#z30634d16"/></clipPath>
  <clipPath id="z30634c17"><use href="#z30634d17"/></clipPath>
</defs>
<path style="--d:1s;" pathLength="3333" clip-path="url(#z30634c1)" d="M 94 701 L 117 679 L 129 656 L 133 597 L 131 342 L 119 209 L 124 138"/>
<path style="--d:2s;" pathLength="3333" clip-path="url(#z30634c2)" d="M 151 684 L 167 680 L 253 704 L 276 696 L 293 680 L 293 243 L 282 179 L 284 134"/>
<path style="--d:3s;" pathLength="3333" clip-path="url(#z30634c3)" d="M 160 512 L 165 523 L 182 532 L 233 536"/>
<path style="--d:4s;" pathLength="3333" clip-path="url(#z30634c4)" d="M 157 363 L 175 380 L 217 387 L 237 383"/>
<path style="--d:5s;" pathLength="3333" clip-path="url(#z30634c5)" d="M 151 179 L 167 197 L 249 207"/>
<path style="--d:6s;" pathLength="3333" clip-path="url(#z30634c6)" d="M 430 697 L 515 713 L 528 707 L 534 696 L 512 613 L 474 528 L 413 435 L 368 384 L 331 354 L 323 339"/>
<path style="--d:7s;" pathLength="3333" clip-path="url(#z30634c7)" d="M 375 612 L 433 574 L 446 544"/>
<path style="--d:8s;" pathLength="3333" clip-path="url(#z30634c8)" d="M 702 823 L 721 794 L 660 716 L 646 701 L 639 702"/>
<path style="--d:9s;" pathLength="3333" clip-path="url(#z30634c9)" d="M 813 728 L 824 695 L 739 630 L 724 622 L 718 625"/>
<path style="--d:10s;" pathLength="3333" clip-path="url(#z30634c10)" d="M 598 689 L 617 686 L 641 668 L 749 536 L 850 445 L 974 424"/>
<path style="--d:11s;" pathLength="3333" clip-path="url(#z30634c11)" d="M 503 486 L 554 483 L 630 501 L 670 502"/>
<path style="--d:12s;" pathLength="3333" clip-path="url(#z30634c12)" d="M 436 380 L 458 363 L 470 341 L 500 214"/>
<path style="--d:13s;" pathLength="3333" clip-path="url(#z30634c13)" d="M 487 379 L 502 368 L 661 403 L 680 401 L 712 369 L 682 306 L 656 290"/>
<path style="--d:14s;" pathLength="3333" clip-path="url(#z30634c14)" d="M 518 236 L 534 247 L 627 264 L 693 268 L 711 263"/>
<path style="--d:15s;" pathLength="3333" clip-path="url(#z30634c15)" d="M 454 170 L 502 129 L 515 93"/>
<path style="--d:16s;" pathLength="3333" clip-path="url(#z30634c16)" d="M 669 219 L 688 182 L 631 76 L 613 62"/>
<path style="--d:17s;" pathLength="3333" clip-path="url(#z30634c17)" d="M 338 27 L 376 17 L 538 36 L 817 54 L 849 50 L 899 32"/>
</svg>