<svg id="z30495" class="acjk" viewBox="0 0 1024 1024" xmlns="http://www.w3.org/2000/svg">
<style>
<![CDATA[
@keyframes zk {
	to {
		stroke-dashoffset:0;
	}
}
svg.acjk path[clip-path] {
	--t:0.8s;
	animation:zk var(--t) linear forwards var(--d);
	stroke-dasharray:3337;
	stroke-dashoffset:3339;
	stroke-width:128;
	stroke-linecap:round;
	stroke-linejoin:round;
	fill:none;
	stroke:#000;
}
svg.acjk path[id] {fill:#ccc;}
]]>
</style>
  <path id="z30495d1" d="M 537 684 Q 762 715 776 726 Q 786 733 782 743 Q 775 756 745 767 Q 714 776 680 765 Q 614 749 546 733 L 489 723 Q 395 710 286 706 Q 246 703 272 683 Q 315 656 398 666 Q 441 672 487 677 L 537 684 Z"/>
  <path id="z30495d2" d="M 518 589 Q 528 638 537 684 L 546 733 Q 547 748 566 800 Q 570 810 554 825 Q 523 844 502 851 Q 487 855 480 848 Q 473 842 478 828 Q 491 806 491 790 Q 491 759 489 723 L 487 677 Q 483 631 479 580 C 477 550 512 560 518 589 Z"/>
  <path id="z30495d3" d="M 383 572 Q 370 582 357 588 Q 345 591 336 587 Q 327 583 331 572 Q 346 539 353 458 Q 353 386 358 211 C 359 181 403 185 403 215 Q 403 245 403 273 L 403 296 Q 403 330 404 360 L 404 380 Q 404 417 405 451 L 405 467 Q 406 503 409 539 C 410 553 407 555 383 572 Z"/>
  <path id="z30495d4" d="M 670 240 Q 679 510 701 539 Q 716 554 703 572 Q 694 584 646 613 Q 631 623 609 614 Q 572 602 518 589 L 479 580 Q 434 574 383 572 C 353 571 380 533 409 539 Q 541 566 593 571 Q 614 574 620 566 Q 629 548 620 235 C 619 205 669 210 670 240 Z"/>
  <path id="z30495d5" d="M 405 451 L 406 451 Q 413 444 431 447 Q 513 460 575 467 Q 596 470 589 481 Q 579 494 557 499 Q 536 502 499 493 Q 448 478 405 467 C 385 462 385 462 405 451 Z"/>
  <path id="z30495d6" d="M 404 360 Q 413 357 427 358 Q 509 368 571 375 Q 592 378 585 389 Q 575 402 553 407 Q 531 411 404 380 C 375 373 375 367 404 360 Z"/>
  <path id="z30495d7" d="M 403 273 Q 410 272 421 273 Q 512 285 579 291 Q 600 294 592 305 Q 583 318 561 324 Q 542 328 504 320 Q 449 307 403 296 C 374 289 373 275 403 273 Z"/>
  <path id="z30495d8" d="M 506 183 Q 561 186 614 190 Q 758 202 901 185 Q 925 181 931 190 Q 938 203 927 216 Q 899 244 855 264 Q 840 271 815 263 Q 743 248 670 240 L 620 235 Q 532 228 484 223 Q 439 220 403 215 L 358 211 Q 319 210 292 205 Q 222 195 115 196 Q 100 197 99 185 Q 98 173 117 158 Q 133 145 164 133 Q 174 129 193 136 Q 211 142 286 153 Q 383 174 506 183 Z"/>
  <path id="z30495d9" d="M 378 127 Q 356 67 195 -32 Q 170 -44 200 -45 Q 275 -49 399 43 Q 433 68 448 78 Q 461 88 460 99 Q 459 112 433 126 Q 405 142 391 141 Q 384 140 378 127 Z"/>
  <path id="z30495d10" d="M 606 113 Q 660 59 724 -17 Q 742 -41 758 -46 Q 768 -47 777 -37 Q 792 -24 779 27 Q 772 72 690 112 Q 638 137 608 148 Q 598 155 595 140 Q 594 125 606 113 Z"/>
<defs>
  <clipPath id="z30495c1"><use href="#z30495d1"/></clipPath>
  <clipPath id="z30495c2"><use href="#z30495d2"/></clipPath>
  <clipPath id="z30495c3"><use href="#z30495d3"/></clipPath>
  <clipPath id="z30495c4"><use href="#z30495d4"/></clipPath>
  <clipPath id="z30495c5"><use href="#z30495d5"/></clipPath>
  <clipPath id="z30495c6"><use href="#z30495d6"/></clipPath>
  <clipPath id="z30495c7"><use href="#z30495d7"/></clipPath>
  <clipPath id="z30495c8"><use href="#z30495d8"/></clipPath>
  <clipPath id="z30495c9"><use href="#z30495d9"/></clipPath>
  <clipPath id="z30495c10"><use href="#z30495d10"/></clipPath>
</defs>
<path style="--d:1s;" pathLength="3333" clip-path="url(#z30495c1)" d="M 276 696 L 321 686 L 386 687 L 548 707 L 705 740 L 770 738"/>
<path style="--d:2s;" pathLength="3333" clip-path="url(#z30495c2)" d="M 490 838 L 527 799 L 501 606 L 484 587"/>
<path style="--d:3s;" pathLength="3333" clip-path="url(#z30495c3)" d="M 344 576 L 367 550 L 378 505 L 381 237 L 365 222"/>
<path style="--d:4s;" pathLength="3333" clip-path="url(#z30495c4)" d="M 390 569 L 420 558 L 438 559 L 609 593 L 630 591 L 649 575 L 663 554 L 653 458 L 646 263 L 625 249"/>
<path style="--d:5s;" pathLength="3333" clip-path="url(#z30495c5)" d="M 406 455 L 511 478 L 559 482 L 580 477"/>
<path style="--d:6s;" pathLength="3333" clip-path="url(#z30495c6)" d="M 410 365 L 419 373 L 514 387 L 555 390 L 576 385"/>
<path style="--d:7s;" pathLength="3333" clip-path="url(#z30495c7)" d="M 407 279 L 440 291 L 532 306 L 562 307 L 584 300"/>
<path style="--d:8s;" pathLength="3333" clip-path="url(#z30495c8)" d="M 111 184 L 169 164 L 450 200 L 831 229 L 872 220 L 919 199"/>
<path style="--d:9s;" pathLength="3333" clip-path="url(#z30495c9)" d="M 443 97 L 406 97 L 327 25 L 260 -15 L 206 -35"/>
<path style="--d:10s;" pathLength="3333" clip-path="url(#z30495c10)" d="M 607 135 L 722 46 L 741 23 L 760 -29"/>
</svg>