<svg id="z35962" class="acjk" viewBox="0 0 1024 1024" xmlns="http://www.w3.org/2000/svg">
<style>
<![CDATA[
@keyframes zk {
	to {
		stroke-dashoffset:0;
	}
}
svg.acjk path[clip-path] {
	--t:0.8s;
	animation:zk var(--t) linear forwards var(--d);
	stroke-dasharray:3337;
	stroke-dashoffset:3339;
	stroke-width:128;
	stroke-linecap:round;
	stroke-linejoin:round;
	fill:none;
	stroke:#000;
}
svg.acjk path[id] {fill:#ccc;}
]]>
</style>
  <path id="z35962d1" d="M 251 673 Q 255 676 263 678 Q 309 696 343 715 Q 385 737 423 750 Q 439 753 442 761 Q 445 771 432 782 Q 410 795 364 807 Q 348 813 335 810 Q 328 806 329 794 Q 330 758 176 660 Q 172 650 178 648 Q 182 648 192 653 Q 205 657 226 663 L 251 673 Z"/>
  <path id="z35962d2" d="M 141 573 Q 157 554 174 529 Q 184 516 198 515 Q 207 514 213 525 Q 219 537 215 564 Q 214 579 191 593 Q 137 623 124 619 Q 120 616 119 605 Q 120 595 141 573 Z"/>
  <path id="z35962d3" d="M 226 663 Q 227 662 230 657 Q 275 597 296 594 Q 306 593 313 608 Q 314 618 308 635 Q 299 653 251 673 C 223 685 209 687 226 663 Z"/>
  <path id="z35962d4" d="M 279 482 Q 286 488 296 494 Q 417 582 442 605 Q 461 621 476 626 Q 489 630 491 638 Q 490 645 481 651 Q 456 670 434 678 Q 421 682 412 669 Q 388 600 152 432 Q 77 389 78 385 Q 78 382 85 383 Q 149 395 255 464 L 279 482 Z"/>
  <path id="z35962d5" d="M 363 311 Q 375 245 342 144 Q 329 105 316 101 Q 307 97 258 105 Q 218 114 216 108 Q 215 101 226 89 Q 277 43 297 12 Q 309 -6 323 -3 Q 342 1 363 28 Q 417 119 414 254 Q 399 347 386 370 Q 347 443 279 482 C 254 498 231 482 255 464 Q 268 455 279 445 L 320 403 Q 330 390 340 373 L 363 311 Z"/>
  <path id="z35962d6" d="M 279 445 Q 278 444 278 441 Q 263 387 113 297 Q 95 288 116 288 Q 176 285 307 393 Q 313 399 320 403 C 345 420 287 474 279 445 Z"/>
  <path id="z35962d7" d="M 340 373 Q 267 244 92 130 Q 79 120 88 117 Q 107 108 180 145 Q 246 178 328 270 Q 364 309 363 311 C 380 335 355 399 340 373 Z"/>
  <path id="z35962d8" d="M 717 504 Q 763 511 825 514 Q 873 518 878 526 Q 882 538 865 550 Q 810 586 743 563 Q 731 560 717 555 L 665 542 Q 649 539 632 534 Q 550 515 454 494 Q 435 490 451 475 Q 464 463 483 459 Q 504 456 519 462 Q 592 487 661 496 L 717 504 Z"/>
  <path id="z35962d9" d="M 717 555 Q 717 675 733 732 Q 749 763 692 785 Q 656 804 637 796 Q 618 789 636 766 Q 658 738 661 703 Q 662 687 665 542 L 668 391 Q 669 277 672 117 Q 672 95 659 85 Q 652 79 587 82 Q 551 91 555 80 Q 558 73 580 60 Q 644 17 661 -10 Q 682 -41 697 -41 Q 712 -41 725 -5 Q 741 43 734 118 Q 718 311 717 504 L 717 555 Z"/>
  <path id="z35962d10" d="M 661 496 Q 613 358 459 200 Q 449 191 438 179 Q 426 166 436 165 Q 457 159 530 217 Q 594 269 668 391 C 745 517 671 524 661 496 Z"/>
<defs>
  <clipPath id="z35962c1"><use href="#z35962d1"/></clipPath>
  <clipPath id="z35962c2"><use href="#z35962d2"/></clipPath>
  <clipPath id="z35962c3"><use href="#z35962d3"/></clipPath>
  <clipPath id="z35962c4"><use href="#z35962d4"/></clipPath>
  <clipPath id="z35962c5"><use href="#z35962d5"/></clipPath>
  <clipPath id="z35962c6"><use href="#z35962d6"/></clipPath>
  <clipPath id="z35962c7"><use href="#z35962d7"/></clipPath>
  <clipPath id="z35962c8"><use href="#z35962d8"/></clipPath>
  <clipPath id="z35962c9"><use href="#z35962d9"/></clipPath>
  <clipPath id="z35962c10"><use href="#z35962d10"/></clipPath>
</defs>
<path style="--d:1s;" pathLength="3333" clip-path="url(#z35962c1)" d="M 431 765 L 362 766 L 303 720 L 205 666 L 188 666 L 183 655"/>
<path style="--d:2s;" pathLength="3333" clip-path="url(#z35962c2)" d="M 128 610 L 182 567 L 199 530"/>
<path style="--d:3s;" pathLength="3333" clip-path="url(#z35962c3)" d="M 233 663 L 253 655 L 284 629 L 297 608"/>
<path style="--d:4s;" pathLength="3333" clip-path="url(#z35962c4)" d="M 483 638 L 436 642 L 373 579 L 238 472 L 168 432 L 162 423 L 82 384"/>
<path style="--d:5s;" pathLength="3333" clip-path="url(#z35962c5)" d="M 265 464 L 280 464 L 301 448 L 358 381 L 383 317 L 389 228 L 364 110 L 345 75 L 324 55 L 221 105"/>
<path style="--d:6s;" pathLength="3333" clip-path="url(#z35962c6)" d="M 282 435 L 285 402 L 252 372 L 181 322 L 138 300 L 125 301 L 120 294"/>
<path style="--d:7s;" pathLength="3333" clip-path="url(#z35962c7)" d="M 339 366 L 334 315 L 258 230 L 163 155 L 93 123"/>
<path style="--d:8s;" pathLength="3333" clip-path="url(#z35962c8)" d="M 453 484 L 508 482 L 587 504 L 773 541 L 822 541 L 870 531"/>
<path style="--d:9s;" pathLength="3333" clip-path="url(#z35962c9)" d="M 643 781 L 661 773 L 694 740 L 689 555 L 702 90 L 684 41 L 561 81"/>
<path style="--d:10s;" pathLength="3333" clip-path="url(#z35962c10)" d="M 664 489 L 643 395 L 603 333 L 509 223 L 440 172"/>
</svg>