<svg id="z31114" class="acjk" viewBox="0 0 1024 1024" xmlns="http://www.w3.org/2000/svg">
<style>
<![CDATA[
@keyframes zk {
	to {
		stroke-dashoffset:0;
	}
}
svg.acjk path[clip-path] {
	--t:0.8s;
	animation:zk var(--t) linear forwards var(--d);
	stroke-dasharray:3337;
	stroke-dashoffset:3339;
	stroke-width:128;
	stroke-linecap:round;
	stroke-linejoin:round;
	fill:none;
	stroke:#000;
}
svg.acjk path[id] {fill:#ccc;}
]]>
</style>
  <path id="z31114d1" d="M 260 758 Q 291 733 323 702 Q 338 689 353 690 Q 363 691 369 705 Q 373 720 364 749 Q 357 771 324 786 Q 246 814 232 807 Q 228 803 229 790 Q 233 780 260 758 Z"/>
  <path id="z31114d2" d="M 243 385 Q 273 428 306 482 Q 334 533 377 567 Q 390 579 379 592 Q 360 607 332 615 Q 310 622 294 611 Q 228 565 98 551 Q 88 552 84 545 Q 83 536 96 527 Q 132 503 147 506 Q 150 506 263 551 Q 276 555 279 551 Q 285 544 274 522 Q 208 381 63 232 Q 50 220 52 217 Q 55 214 67 220 Q 139 257 220 355 L 243 385 Z"/>
  <path id="z31114d3" d="M 220 355 Q 257 291 221 113 Q 200 85 235 21 Q 238 17 242 11 Q 258 -4 270 21 Q 283 60 283 103 Q 284 266 291 303 Q 298 328 289 338 Q 258 375 243 385 C 220 404 207 382 220 355 Z"/>
  <path id="z31114d4" d="M 318 375 Q 336 356 354 334 Q 364 324 376 323 Q 385 323 389 333 Q 393 343 389 367 Q 382 394 317 412 Q 305 416 300 415 Q 296 412 296 402 Q 297 393 318 375 Z"/>
  <path id="z31114d5" d="M 522 637 Q 547 644 576 651 Q 601 658 604 661 Q 611 668 607 675 Q 600 684 577 689 Q 540 693 525 679 L 474 662 Q 473 662 471 661 Q 437 652 397 646 Q 369 640 390 628 Q 426 610 477 625 L 522 637 Z"/>
  <path id="z31114d6" d="M 519 544 Q 550 553 581 558 Q 602 562 593 573 Q 583 586 560 588 Q 544 589 520 582 L 479 568 Q 433 553 393 540 Q 380 536 398 523 Q 404 519 479 535 L 519 544 Z"/>
  <path id="z31114d7" d="M 516 455 Q 550 468 599 478 Q 611 481 610 486 Q 610 496 597 501 Q 573 510 517 487 L 479 475 Q 374 451 373 445 Q 372 438 383 430 Q 410 415 454 431 Q 464 437 478 440 L 516 455 Z"/>
  <path id="z31114d8" d="M 478 440 Q 478 371 485 354 Q 489 344 498 350 Q 516 363 516 455 L 517 487 Q 518 517 519 544 L 520 582 Q 521 607 522 637 L 525 679 Q 526 701 530 715 Q 537 733 527 743 Q 514 755 488 767 Q 469 774 448 765 Q 438 758 450 744 Q 462 726 474 662 L 477 625 Q 478 600 479 568 L 479 535 Q 482 514 479 475 L 478 440 Z"/>
  <path id="z31114d9" d="M 695 623 Q 750 642 795 651 Q 808 652 811 649 Q 820 637 814 606 Q 804 518 781 479 Q 768 457 747 460 Q 731 464 716 472 Q 697 479 709 459 Q 737 422 751 396 Q 766 378 781 392 Q 832 425 856 561 Q 862 624 881 649 Q 891 659 886 669 Q 877 679 834 696 Q 816 703 800 692 Q 785 682 727 665 Q 669 647 617 641 Q 602 640 600 632 Q 599 625 620 616 Q 642 604 658 611 Q 662 614 671 615 L 695 623 Z"/>
  <path id="z31114d10" d="M 671 615 Q 671 614 673 610 Q 700 583 611 429 Q 599 417 600 410 Q 600 406 605 407 Q 659 425 718 549 Q 725 568 732 576 Q 736 585 729 595 Q 716 613 695 623 C 668 637 657 641 671 615 Z"/>
  <path id="z31114d11" d="M 615 246 Q 691 259 817 260 Q 871 260 876 270 Q 880 282 865 294 Q 808 334 743 313 Q 692 304 623 288 L 563 277 Q 484 265 395 250 Q 376 247 391 231 Q 404 218 422 214 Q 443 210 458 214 Q 504 227 558 237 L 615 246 Z"/>
  <path id="z31114d12" d="M 623 288 Q 627 325 636 341 Q 643 348 637 358 Q 631 365 603 376 Q 572 392 557 386 Q 547 380 555 365 Q 567 334 563 277 L 558 237 Q 533 128 439 58 Q 405 39 348 9 Q 324 -3 353 -3 Q 425 -6 517 60 Q 530 73 544 89 Q 583 135 605 215 L 623 288 Z"/>
  <path id="z31114d13" d="M 605 215 Q 666 119 746 16 Q 762 -2 789 -2 Q 880 -1 910 3 Q 919 4 920 9 Q 921 13 909 20 Q 780 75 708 148 Q 663 191 615 246 L 613 246 C 589 264 589 240 605 215 Z"/>
<defs>
  <clipPath id="z31114c1"><use href="#z31114d1"/></clipPath>
  <clipPath id="z31114c2"><use href="#z31114d2"/></clipPath>
  <clipPath id="z31114c3"><use href="#z31114d3"/></clipPath>
  <clipPath id="z31114c4"><use href="#z31114d4"/></clipPath>
  <clipPath id="z31114c5"><use href="#z31114d5"/></clipPath>
  <clipPath id="z31114c6"><use href="#z31114d6"/></clipPath>
  <clipPath id="z31114c7"><use href="#z31114d7"/></clipPath>
  <clipPath id="z31114c8"><use href="#z31114d8"/></clipPath>
  <clipPath id="z31114c9"><use href="#z31114d9"/></clipPath>
  <clipPath id="z31114c10"><use href="#z31114d10"/></clipPath>
  <clipPath id="z31114c11"><use href="#z31114d11"/></clipPath>
  <clipPath id="z31114c12"><use href="#z31114d12"/></clipPath>
  <clipPath id="z31114c13"><use href="#z31114d13"/></clipPath>
</defs>
<path style="--d:1s;" pathLength="3333" clip-path="url(#z31114c1)" d="M 237 801 L 325 747 L 350 709"/>
<path style="--d:2s;" pathLength="3333" clip-path="url(#z31114c2)" d="M 93 543 L 140 531 L 276 575 L 310 575 L 318 569 L 291 501 L 200 360 L 111 262 L 61 225"/>
<path style="--d:3s;" pathLength="3333" clip-path="url(#z31114c3)" d="M 242 377 L 247 350 L 264 321 L 259 182 L 248 90 L 254 22"/>
<path style="--d:4s;" pathLength="3333" clip-path="url(#z31114c4)" d="M 303 407 L 350 375 L 376 337"/>
<path style="--d:5s;" pathLength="3333" clip-path="url(#z31114c5)" d="M 391 638 L 450 637 L 546 666 L 597 670"/>
<path style="--d:6s;" pathLength="3333" clip-path="url(#z31114c6)" d="M 396 532 L 465 545 L 544 570 L 585 567"/>
<path style="--d:7s;" pathLength="3333" clip-path="url(#z31114c7)" d="M 377 442 L 414 440 L 547 483 L 601 487"/>
<path style="--d:8s;" pathLength="3333" clip-path="url(#z31114c8)" d="M 456 755 L 476 746 L 496 723 L 500 510 L 494 359"/>
<path style="--d:9s;" pathLength="3333" clip-path="url(#z31114c9)" d="M 607 631 L 633 626 L 660 629 L 806 672 L 822 673 L 845 655 L 827 534 L 811 482 L 791 445 L 768 429 L 718 463"/>
<path style="--d:10s;" pathLength="3333" clip-path="url(#z31114c10)" d="M 678 615 L 694 606 L 701 594 L 704 581 L 694 548 L 652 467 L 605 413"/>
<path style="--d:11s;" pathLength="3333" clip-path="url(#z31114c11)" d="M 394 240 L 449 235 L 653 274 L 784 290 L 820 288 L 867 275"/>
<path style="--d:12s;" pathLength="3333" clip-path="url(#z31114c12)" d="M 564 375 L 597 341 L 595 301 L 579 213 L 549 142 L 504 82 L 466 51 L 424 28 L 359 7"/>
<path style="--d:13s;" pathLength="3333" clip-path="url(#z31114c13)" d="M 615 237 L 621 217 L 695 125 L 773 46 L 799 33 L 912 12"/>
</svg>