<svg id="z38132" class="acjk" viewBox="0 0 1024 1024" xmlns="http://www.w3.org/2000/svg">
<style>
<![CDATA[
@keyframes zk {
	to {
		stroke-dashoffset:0;
	}
}
svg.acjk path[clip-path] {
	--t:0.8s;
	animation:zk var(--t) linear forwards var(--d);
	stroke-dasharray:3337;
	stroke-dashoffset:3339;
	stroke-width:128;
	stroke-linecap:round;
	stroke-linejoin:round;
	fill:none;
	stroke:#000;
}
svg.acjk path[id] {fill:#ccc;}
]]>
</style>
  <path id="z38132d1" d="M 264 620 Q 327 725 346 742 Q 355 752 350 766 Q 346 778 318 800 Q 293 816 274 817 Q 256 816 264 794 Q 277 764 267 739 Q 233 655 181 576 Q 132 500 62 418 Q 52 408 51 402 Q 47 392 61 394 Q 104 401 242 588 L 264 620 Z"/>
  <path id="z38132d2" d="M 242 588 Q 284 584 389 613 Q 390 614 394 614 Q 410 620 414 622 Q 421 631 416 638 Q 409 648 381 652 Q 354 653 290 627 Q 278 624 264 620 C 235 612 212 590 242 588 Z"/>
  <path id="z38132d3" d="M 281 461 Q 380 494 382 496 Q 389 503 384 510 Q 377 520 351 523 Q 324 524 300 512 Q 242 488 188 477 Q 157 468 181 457 Q 199 448 234 448 L 281 461 Z"/>
  <path id="z38132d4" d="M 292 328 Q 319 338 350 347 Q 378 357 382 362 Q 389 371 384 378 Q 377 388 349 391 Q 321 392 295 379 Q 294 379 293 378 L 249 357 Q 239 356 229 350 Q 190 337 144 327 Q 111 317 137 305 Q 179 290 227 307 Q 234 310 248 313 L 292 328 Z"/>
  <path id="z38132d5" d="M 248 313 Q 244 192 207 140 Q 192 134 198 103 Q 208 76 220 66 Q 232 59 243 74 Q 255 101 377 214 Q 393 227 396 235 Q 399 244 390 243 Q 381 243 286 185 Q 282 181 280 185 Q 289 264 292 328 L 293 378 Q 293 379 294 379 Q 295 404 300 425 Q 304 438 296 448 Q 289 455 281 461 C 258 480 224 476 234 448 Q 249 409 249 357 L 248 313 Z"/>
  <path id="z38132d6" d="M 460 639 Q 479 620 498 598 Q 508 586 523 586 Q 532 585 537 597 Q 541 609 536 635 Q 530 660 459 681 Q 446 685 440 683 Q 436 679 436 668 Q 439 658 460 639 Z"/>
  <path id="z38132d7" d="M 420 476 Q 483 424 511 425 Q 524 426 526 446 Q 525 459 512 475 Q 499 490 474 493 Q 435 503 419 502 Q 410 502 411 491 Q 411 484 420 476 Z"/>
  <path id="z38132d8" d="M 403 188 Q 393 184 395 170 Q 407 110 438 95 Q 444 91 452 92 Q 459 93 458 114 Q 462 145 478 192 Q 530 358 531 359 Q 530 368 522 362 Q 513 355 432 219 Q 423 203 403 188 Z"/>
  <path id="z38132d9" d="M 766 107 Q 751 85 736 89 Q 705 98 660 110 Q 644 114 643 110 Q 643 106 661 91 Q 701 55 725 11 Q 735 -5 745 -8 Q 752 -9 772 6 Q 827 55 861 131 Q 892 204 916 400 Q 922 427 935 439 Q 948 451 934 467 Q 918 482 888 499 Q 866 512 795 492 Q 785 492 684 472 Q 669 463 664 477 Q 664 496 735 609 Q 772 664 790 672 Q 802 679 801 685 Q 801 692 795 697 Q 773 718 745 728 Q 726 735 696 722 Q 608 692 555 695 Q 540 696 537 691 Q 534 687 540 677 Q 547 667 562 658 Q 577 646 597 651 Q 652 667 697 677 Q 716 678 716 671 Q 719 656 650 529 Q 649 528 648 525 Q 632 497 606 469 Q 588 454 603 420 Q 603 414 624 415 L 653 428 Q 681 438 731 447 L 772 455 Q 803 462 824 462 Q 848 461 851 450 Q 875 377 816 204 Q 783 129 766 107 Z"/>
  <path id="z38132d10" d="M 624 415 Q 630 346 525 208 Q 521 204 520 198 Q 520 194 525 195 Q 564 204 617 278 Q 647 317 664 350 Q 674 371 682 380 Q 686 389 680 400 Q 667 419 653 428 C 629 446 623 445 624 415 Z"/>
  <path id="z38132d11" d="M 731 447 L 732 445 Q 750 376 655 227 Q 592 143 524 70 Q 517 66 527 64 Q 587 79 677 193 Q 728 262 792 392 Q 799 405 805 412 Q 811 418 808 426 Q 807 435 794 443 Q 784 452 772 455 C 744 467 725 475 731 447 Z"/>
<defs>
  <clipPath id="z38132c1"><use href="#z38132d1"/></clipPath>
  <clipPath id="z38132c2"><use href="#z38132d2"/></clipPath>
  <clipPath id="z38132c3"><use href="#z38132d3"/></clipPath>
  <clipPath id="z38132c4"><use href="#z38132d4"/></clipPath>
  <clipPath id="z38132c5"><use href="#z38132d5"/></clipPath>
  <clipPath id="z38132c6"><use href="#z38132d6"/></clipPath>
  <clipPath id="z38132c7"><use href="#z38132d7"/></clipPath>
  <clipPath id="z38132c8"><use href="#z38132d8"/></clipPath>
  <clipPath id="z38132c9"><use href="#z38132d9"/></clipPath>
  <clipPath id="z38132c10"><use href="#z38132d10"/></clipPath>
  <clipPath id="z38132c11"><use href="#z38132d11"/></clipPath>
</defs>
<path style="--d:1s;" pathLength="3333" clip-path="url(#z38132c1)" d="M 274 803 L 297 781 L 308 757 L 280 697 L 218 589 L 175 530 L 98 436 L 59 402"/>
<path style="--d:2s;" pathLength="3333" clip-path="url(#z38132c2)" d="M 247 593 L 326 620 L 386 633 L 406 631"/>
<path style="--d:3s;" pathLength="3333" clip-path="url(#z38132c3)" d="M 182 468 L 235 468 L 324 499 L 377 504"/>
<path style="--d:4s;" pathLength="3333" clip-path="url(#z38132c4)" d="M 138 317 L 161 314 L 200 320 L 332 367 L 374 371"/>
<path style="--d:5s;" pathLength="3333" clip-path="url(#z38132c5)" d="M 242 443 L 271 428 L 270 307 L 254 181 L 258 153 L 290 162 L 390 237"/>
<path style="--d:6s;" pathLength="3333" clip-path="url(#z38132c6)" d="M 444 674 L 509 628 L 523 600"/>
<path style="--d:7s;" pathLength="3333" clip-path="url(#z38132c7)" d="M 423 491 L 484 463 L 508 442"/>
<path style="--d:8s;" pathLength="3333" clip-path="url(#z38132c8)" d="M 447 101 L 435 129 L 433 165 L 526 360"/>
<path style="--d:9s;" pathLength="3333" clip-path="url(#z38132c9)" d="M 544 685 L 583 672 L 712 702 L 733 699 L 749 686 L 714 607 L 645 486 L 639 457 L 676 452 L 831 482 L 861 478 L 893 449 L 880 332 L 859 234 L 830 148 L 797 88 L 753 47 L 647 108"/>
<path style="--d:10s;" pathLength="3333" clip-path="url(#z38132c10)" d="M 635 411 L 649 398 L 651 386 L 629 333 L 575 248 L 526 202"/>
<path style="--d:11s;" pathLength="3333" clip-path="url(#z38132c11)" d="M 740 442 L 768 414 L 750 361 L 707 274 L 619 150 L 566 96 L 530 69"/>
</svg>