<svg id="z30068" class="acjk" viewBox="0 0 1024 1024" xmlns="http://www.w3.org/2000/svg">
<style>
<![CDATA[
@keyframes zk {
	to {
		stroke-dashoffset:0;
	}
}
svg.acjk path[clip-path] {
	--t:0.8s;
	animation:zk var(--t) linear forwards var(--d);
	stroke-dasharray:3337;
	stroke-dashoffset:3339;
	stroke-width:128;
	stroke-linecap:round;
	stroke-linejoin:round;
	fill:none;
	stroke:#000;
}
svg.acjk path[id] {fill:#ccc;}
]]>
</style>
  <path id="z30068d1" d="M 130 614 Q 108 630 84 636 Q 77 637 73 633 Q 66 629 75 618 Q 114 551 119 394 Q 122 331 155 314 Q 171 310 172 337 Q 172 338 172 339 L 171 360 Q 147 525 145 584 C 144 605 144 605 130 614 Z"/>
  <path id="z30068d2" d="M 321 359 Q 339 337 353 330 Q 363 323 375 343 Q 391 377 414 553 Q 421 581 440 604 Q 450 616 440 627 Q 427 642 387 663 Q 374 669 307 653 Q 301 653 130 614 C 101 607 118 571 145 584 Q 152 593 227 605 L 266 612 Q 291 618 323 622 Q 347 626 355 618 Q 371 600 370 580 Q 349 421 333 387 C 323 359 320 361 321 359 Z"/>
  <path id="z30068d3" d="M 237 497 Q 206 488 178 479 Q 163 476 182 463 Q 185 462 238 465 L 279 471 Q 304 475 328 478 Q 349 482 341 493 Q 331 506 309 510 Q 297 511 280 508 L 237 497 Z"/>
  <path id="z30068d4" d="M 231 598 Q 237 585 237 497 L 238 465 Q 238 428 238 376 C 238 346 274 355 275 385 Q 276 431 279 471 L 280 508 Q 281 533 283 555 Q 286 597 271 608 Q 268 611 266 612 C 243 631 212 631 227 605 Q 228 602 231 598 Z"/>
  <path id="z30068d5" d="M 172 339 Q 176 338 184 339 Q 259 351 321 359 C 351 363 361 377 333 387 Q 318 394 275 385 L 238 376 Q 202 369 171 360 C 142 352 142 342 172 339 Z"/>
  <path id="z30068d6" d="M 641 641 Q 695 654 755 665 Q 797 675 803 681 Q 812 688 807 697 Q 800 707 772 715 Q 747 721 650 688 L 597 675 Q 546 665 493 660 Q 457 654 483 638 Q 519 617 589 630 L 641 641 Z"/>
  <path id="z30068d7" d="M 612 520 Q 679 536 777 548 Q 786 547 793 558 Q 794 568 775 576 Q 750 594 675 571 Q 639 565 621 558 L 570 548 Q 525 544 479 537 Q 455 533 474 519 Q 504 498 537 506 Q 547 509 561 510 L 612 520 Z"/>
  <path id="z30068d8" d="M 579 412 Q 714 439 898 440 Q 916 441 920 449 Q 924 459 909 471 Q 861 504 828 496 Q 738 475 591 448 L 539 439 Q 479 432 414 420 Q 396 419 410 403 Q 423 391 439 387 Q 458 383 473 387 Q 495 394 522 400 L 579 412 Z"/>
  <path id="z30068d9" d="M 522 400 Q 440 231 322 147 Q 256 102 248 94 Q 244 87 257 85 Q 273 84 296 94 Q 366 128 412 166 Q 523 257 579 412 L 591 448 Q 592 454 595 460 Q 602 488 612 520 L 621 558 Q 630 598 641 641 L 650 688 Q 662 760 674 787 Q 683 806 663 820 Q 618 851 603 852 Q 582 851 595 827 Q 613 782 597 675 L 589 630 Q 580 594 570 548 L 561 510 Q 560 509 560 505 Q 553 474 539 439 L 522 400 Z"/>
  <path id="z30068d10" d="M 771 293 Q 774 294 779 295 Q 828 299 870 304 Q 880 303 888 315 Q 889 325 868 336 Q 841 357 777 339 L 720 326 Q 693 322 545 303 Q 517 300 538 283 Q 568 258 596 264 Q 651 276 722 285 L 771 293 Z"/>
  <path id="z30068d11" d="M 714 -57 Q 727 -73 742 -60 Q 778 -32 779 39 Q 770 133 770 289 Q 770 292 771 293 L 777 339 Q 778 346 782 354 Q 789 370 774 384 Q 749 403 721 413 Q 703 419 696 412 Q 690 405 700 391 Q 718 361 720 326 L 722 285 Q 731 62 712 47 Q 705 41 694 45 Q 661 55 630 66 Q 618 70 619 62 Q 619 56 628 48 Q 692 -16 714 -57 Z"/>
  <path id="z30068d12" d="M 566 187 Q 605 144 616 143 Q 625 143 629 153 Q 633 163 629 187 Q 623 205 565 225 Q 553 228 548 226 Q 544 225 544 214 Q 547 205 566 187 Z"/>
<defs>
  <clipPath id="z30068c1"><use href="#z30068d1"/></clipPath>
  <clipPath id="z30068c2"><use href="#z30068d2"/></clipPath>
  <clipPath id="z30068c3"><use href="#z30068d3"/></clipPath>
  <clipPath id="z30068c4"><use href="#z30068d4"/></clipPath>
  <clipPath id="z30068c5"><use href="#z30068d5"/></clipPath>
  <clipPath id="z30068c6"><use href="#z30068d6"/></clipPath>
  <clipPath id="z30068c7"><use href="#z30068d7"/></clipPath>
  <clipPath id="z30068c8"><use href="#z30068d8"/></clipPath>
  <clipPath id="z30068c9"><use href="#z30068d9"/></clipPath>
  <clipPath id="z30068c10"><use href="#z30068d10"/></clipPath>
  <clipPath id="z30068c11"><use href="#z30068d11"/></clipPath>
  <clipPath id="z30068c12"><use href="#z30068d12"/></clipPath>
</defs>
<path style="--d:1s;" pathLength="3333" clip-path="url(#z30068c1)" d="M 81 626 L 111 598 L 121 570 L 143 386 L 157 328"/>
<path style="--d:2s;" pathLength="3333" clip-path="url(#z30068c2)" d="M 144 590 L 151 605 L 173 611 L 340 643 L 377 636 L 392 623 L 400 602 L 374 441 L 353 364 L 359 346"/>
<path style="--d:3s;" pathLength="3333" clip-path="url(#z30068c3)" d="M 179 471 L 290 492 L 332 488"/>
<path style="--d:4s;" pathLength="3333" clip-path="url(#z30068c4)" d="M 234 604 L 258 586 L 260 565 L 258 408 L 242 384"/>
<path style="--d:5s;" pathLength="3333" clip-path="url(#z30068c5)" d="M 178 345 L 184 351 L 310 373 L 327 381"/>
<path style="--d:6s;" pathLength="3333" clip-path="url(#z30068c6)" d="M 485 650 L 559 646 L 741 688 L 797 691"/>
<path style="--d:7s;" pathLength="3333" clip-path="url(#z30068c7)" d="M 475 528 L 528 524 L 709 560 L 783 560"/>
<path style="--d:8s;" pathLength="3333" clip-path="url(#z30068c8)" d="M 412 412 L 457 406 L 603 435 L 837 468 L 910 454"/>
<path style="--d:9s;" pathLength="3333" clip-path="url(#z30068c9)" d="M 602 838 L 617 826 L 638 791 L 622 669 L 580 487 L 527 353 L 480 275 L 425 207 L 338 136 L 254 91"/>
<path style="--d:10s;" pathLength="3333" clip-path="url(#z30068c10)" d="M 540 294 L 587 286 L 810 323 L 878 317"/>
<path style="--d:11s;" pathLength="3333" clip-path="url(#z30068c11)" d="M 704 406 L 749 362 L 744 271 L 749 156 L 746 39 L 729 4 L 691 18 L 626 61"/>
<path style="--d:12s;" pathLength="3333" clip-path="url(#z30068c12)" d="M 552 218 L 598 187 L 617 154"/>
</svg>