<svg id="z39617" class="acjk" viewBox="0 0 1024 1024" xmlns="http://www.w3.org/2000/svg">
<style>
<![CDATA[
@keyframes zk {
	to {
		stroke-dashoffset:0;
	}
}
svg.acjk path[clip-path] {
	--t:0.8s;
	animation:zk var(--t) linear forwards var(--d);
	stroke-dasharray:3337;
	stroke-dashoffset:3339;
	stroke-width:128;
	stroke-linecap:round;
	stroke-linejoin:round;
	fill:none;
	stroke:#000;
}
svg.acjk path[id] {fill:#ccc;}
]]>
</style>
  <path id="z39617d1" d="M 225 729 Q 224 730 223 731 Q 204 747 180 755 Q 168 759 160 754 Q 153 750 159 736 Q 175 703 183 669 Q 189 635 198 498 C 200 468 235 476 233 506 Q 230 564 230 606 L 230 631 Q 230 667 233 705 C 234 721 234 721 225 729 Z"/>
  <path id="z39617d2" d="M 409 544 Q 418 673 454 716 Q 467 734 453 748 Q 438 758 392 775 Q 376 779 358 771 Q 322 756 225 729 C 196 721 204 698 233 705 Q 362 735 369 730 Q 382 720 382 693 Q 378 603 363 534 C 357 505 407 514 409 544 Z"/>
  <path id="z39617d3" d="M 318 525 Q 322 597 341 620 Q 354 641 336 648 Q 321 654 301 663 Q 286 669 274 659 Q 264 649 248 640 Q 241 636 230 631 C 203 618 202 596 230 606 Q 251 613 274 621 Q 281 624 285 621 Q 292 617 290 587 Q 287 556 283 517 C 280 487 316 495 318 525 Z"/>
  <path id="z39617d4" d="M 132 485 Q 131 486 131 489 Q 119 505 109 512 Q 93 522 94 501 Q 103 474 58 408 Q 46 393 71 346 Q 84 327 98 350 Q 110 372 117 404 Q 126 443 133 466 C 136 475 136 475 132 485 Z"/>
  <path id="z39617d5" d="M 133 466 Q 154 456 175 461 Q 214 480 369 512 Q 412 521 423 519 Q 435 512 434 507 Q 435 504 412 450 Q 408 440 413 437 Q 417 434 430 443 Q 470 473 503 484 Q 530 494 529 501 Q 528 508 473 544 Q 452 557 409 544 L 363 534 Q 353 533 342 530 Q 330 529 318 525 L 283 517 Q 258 513 233 506 L 198 498 Q 165 492 134 486 Q 133 486 132 485 C 103 478 105 476 133 466 Z"/>
  <path id="z39617d6" d="M 225 217 Q 226 254 230 282 L 233 311 Q 237 366 241 385 Q 241 389 241 393 C 242 409 242 409 222 419 Q 201 431 188 430 Q 176 427 181 417 Q 226 309 169 125 Q 141 64 166 28 Q 172 16 181 21 Q 211 43 223 194 L 225 217 Z"/>
  <path id="z39617d7" d="M 241 393 Q 256 393 307 411 Q 325 415 330 406 Q 334 396 337 377 Q 350 205 346 100 Q 345 75 338 64 Q 337 64 278 67 Q 259 73 261 64 Q 306 24 332 -5 Q 344 -21 358 -26 Q 367 -29 374 -20 Q 408 25 407 74 Q 377 353 399 396 Q 409 414 399 423 Q 380 439 346 453 Q 330 459 316 452 Q 294 439 278 433 Q 260 427 222 419 C 193 413 211 388 241 393 Z"/>
  <path id="z39617d8" d="M 230 282 Q 276 288 310 295 Q 329 299 321 310 Q 311 320 290 323 Q 248 326 233 311 C 211 291 200 278 230 282 Z"/>
  <path id="z39617d9" d="M 223 194 Q 226 193 232 194 Q 278 201 314 207 Q 333 211 325 222 Q 315 232 294 236 Q 261 239 225 217 C 199 202 193 198 223 194 Z"/>
  <path id="z39617d10" d="M 545 699 Q 535 703 511 709 Q 501 712 497 707 Q 491 703 498 687 Q 526 623 539 519 Q 540 488 558 467 Q 573 446 578 461 Q 579 465 580 470 L 583 496 Q 582 511 580 529 Q 562 635 559 670 C 557 695 557 695 545 699 Z"/>
  <path id="z39617d11" d="M 765 488 Q 771 472 784 473 Q 797 474 804 489 Q 817 507 839 594 Q 855 643 890 671 Q 908 686 892 701 Q 876 717 828 742 Q 815 751 752 737 Q 742 737 620 714 Q 575 704 545 699 C 515 694 530 663 559 670 Q 563 670 568 671 Q 593 681 639 688 L 669 693 Q 778 714 795 704 Q 805 697 800 665 Q 778 544 767 520 Q 766 520 766 519 C 758 498 758 498 765 488 Z"/>
  <path id="z39617d12" d="M 695 589 Q 723 593 748 596 Q 767 599 761 610 Q 752 622 731 626 Q 716 629 695 624 L 649 612 Q 619 605 594 598 Q 581 595 597 583 Q 601 580 650 583 L 695 589 Z"/>
  <path id="z39617d13" d="M 695 482 Q 725 486 765 488 C 795 490 788 499 766 519 Q 765 520 762 523 Q 741 533 695 517 L 650 507 Q 614 501 583 496 C 553 491 551 477 580 470 Q 581 470 584 469 Q 594 466 605 469 Q 623 473 651 477 L 695 482 Z"/>
  <path id="z39617d14" d="M 695 361 Q 731 365 904 365 Q 922 365 927 373 Q 931 383 917 395 Q 866 434 805 417 Q 759 410 695 398 L 650 391 Q 562 381 459 368 Q 440 367 454 351 Q 467 338 483 333 Q 502 329 516 332 Q 565 347 621 352 L 695 361 Z"/>
  <path id="z39617d15" d="M 695 359 Q 695 360 695 361 L 695 398 Q 695 440 695 482 L 695 517 Q 696 541 696 565 Q 695 578 695 589 L 695 624 Q 695 654 698 660 Q 701 670 692 678 Q 683 685 669 693 C 644 709 630 717 639 688 L 640 686 Q 649 671 649 612 L 650 583 Q 650 546 650 507 L 651 477 Q 651 435 650 391 L 649 305 Q 649 145 639 49 Q 636 10 660 -22 Q 672 -35 681 -19 Q 706 29 699 72 Q 696 114 695 312 L 695 359 Z"/>
  <path id="z39617d16" d="M 621 352 Q 576 246 434 129 Q 424 119 432 117 Q 439 113 450 118 Q 552 160 649 305 C 689 364 637 389 621 352 Z"/>
  <path id="z39617d17" d="M 695 312 Q 747 225 816 132 Q 832 114 858 113 Q 949 112 978 115 Q 987 116 988 121 Q 989 125 977 133 Q 860 184 783 262 Q 741 307 695 359 C 675 381 680 338 695 312 Z"/>
<defs>
  <clipPath id="z39617c1"><use href="#z39617d1"/></clipPath>
  <clipPath id="z39617c2"><use href="#z39617d2"/></clipPath>
  <clipPath id="z39617c3"><use href="#z39617d3"/></clipPath>
  <clipPath id="z39617c4"><use href="#z39617d4"/></clipPath>
  <clipPath id="z39617c5"><use href="#z39617d5"/></clipPath>
  <clipPath id="z39617c6"><use href="#z39617d6"/></clipPath>
  <clipPath id="z39617c7"><use href="#z39617d7"/></clipPath>
  <clipPath id="z39617c8"><use href="#z39617d8"/></clipPath>
  <clipPath id="z39617c9"><use href="#z39617d9"/></clipPath>
  <clipPath id="z39617c10"><use href="#z39617d10"/></clipPath>
  <clipPath id="z39617c11"><use href="#z39617d11"/></clipPath>
  <clipPath id="z39617c12"><use href="#z39617d12"/></clipPath>
  <clipPath id="z39617c13"><use href="#z39617d13"/></clipPath>
  <clipPath id="z39617c14"><use href="#z39617d14"/></clipPath>
  <clipPath id="z39617c15"><use href="#z39617d15"/></clipPath>
  <clipPath id="z39617c16"><use href="#z39617d16"/></clipPath>
  <clipPath id="z39617c17"><use href="#z39617d17"/></clipPath>
</defs>
<path style="--d:1s;" pathLength="3333" clip-path="url(#z39617c1)" d="M 168 745 L 194 720 L 204 698 L 214 529 L 212 517 L 201 510"/>
<path style="--d:2s;" pathLength="3333" clip-path="url(#z39617c2)" d="M 237 726 L 245 718 L 259 726 L 372 752 L 391 747 L 413 727 L 389 562 L 370 539"/>
<path style="--d:3s;" pathLength="3333" clip-path="url(#z39617c3)" d="M 236 612 L 242 623 L 291 643 L 313 628 L 300 538 L 287 524"/>
<path style="--d:4s;" pathLength="3333" clip-path="url(#z39617c4)" d="M 102 506 L 114 479 L 84 390 L 84 352"/>
<path style="--d:5s;" pathLength="3333" clip-path="url(#z39617c5)" d="M 136 480 L 166 475 L 388 529 L 435 533 L 454 525 L 468 507 L 416 444"/>
<path style="--d:6s;" pathLength="3333" clip-path="url(#z39617c6)" d="M 192 419 L 209 403 L 217 385 L 218 342 L 205 183 L 179 70 L 176 30"/>
<path style="--d:7s;" pathLength="3333" clip-path="url(#z39617c7)" d="M 231 419 L 251 410 L 329 433 L 356 418 L 366 405 L 364 332 L 377 84 L 373 58 L 356 28 L 270 62"/>
<path style="--d:8s;" pathLength="3333" clip-path="url(#z39617c8)" d="M 237 289 L 248 301 L 263 305 L 313 304"/>
<path style="--d:9s;" pathLength="3333" clip-path="url(#z39617c9)" d="M 228 199 L 276 219 L 317 216"/>
<path style="--d:10s;" pathLength="3333" clip-path="url(#z39617c10)" d="M 505 700 L 527 679 L 534 663 L 568 465"/>
<path style="--d:11s;" pathLength="3333" clip-path="url(#z39617c11)" d="M 552 696 L 569 688 L 635 705 L 766 725 L 803 724 L 824 713 L 843 683 L 820 626 L 783 492"/>
<path style="--d:12s;" pathLength="3333" clip-path="url(#z39617c12)" d="M 602 592 L 639 594 L 705 609 L 752 606"/>
<path style="--d:13s;" pathLength="3333" clip-path="url(#z39617c13)" d="M 584 476 L 604 485 L 736 507 L 745 507 L 757 496"/>
<path style="--d:14s;" pathLength="3333" clip-path="url(#z39617c14)" d="M 456 360 L 508 352 L 690 380 L 842 394 L 917 378"/>
<path style="--d:15s;" pathLength="3333" clip-path="url(#z39617c15)" d="M 648 685 L 672 661 L 673 633 L 670 -16"/>
<path style="--d:16s;" pathLength="3333" clip-path="url(#z39617c16)" d="M 643 349 L 633 336 L 626 309 L 554 215 L 502 166 L 437 122"/>
<path style="--d:17s;" pathLength="3333" clip-path="url(#z39617c17)" d="M 698 351 L 712 314 L 730 290 L 842 162 L 869 148 L 981 121"/>
</svg>