<svg id="z35803" class="acjk" viewBox="0 0 1024 1024" xmlns="http://www.w3.org/2000/svg">
<style>
<![CDATA[
@keyframes zk {
	to {
		stroke-dashoffset:0;
	}
}
svg.acjk path[clip-path] {
	--t:0.8s;
	animation:zk var(--t) linear forwards var(--d);
	stroke-dasharray:3337;
	stroke-dashoffset:3339;
	stroke-width:128;
	stroke-linecap:round;
	stroke-linejoin:round;
	fill:none;
	stroke:#000;
}
svg.acjk path[id] {fill:#ccc;}
]]>
</style>
  <path id="z35803d1" d="M 262 741 Q 295 716 329 685 Q 344 672 361 673 Q 371 674 377 688 Q 381 704 370 735 Q 363 757 328 772 Q 244 797 232 791 Q 226 787 229 773 Q 233 763 262 741 Z"/>
  <path id="z35803d2" d="M 119 477 Q 73 464 47 462 Q 34 463 31 456 Q 27 449 37 440 Q 73 418 113 432 Q 216 478 225 475 Q 226 475 228 473 Q 238 466 232 440 Q 232 406 230 370 Q 230 270 204 177 Q 189 144 232 101 Q 242 91 251 97 Q 258 104 268 127 Q 302 178 374 268 Q 384 278 382 286 Q 381 293 370 284 Q 333 254 296 222 Q 262 191 266 235 Q 265 292 282 434 Q 286 456 307 478 Q 319 488 309 500 Q 299 515 263 531 Q 251 537 235 527 Q 162 490 119 477 Z"/>
  <path id="z35803d3" d="M 492 563 Q 513 605 537 627 Q 544 637 540 647 Q 536 657 512 675 Q 490 690 474 689 Q 458 686 466 669 Q 478 642 434 553 Q 412 511 380 465 Q 373 458 371 452 Q 368 442 380 445 Q 398 448 480 546 L 492 563 Z"/>
  <path id="z35803d4" d="M 646 547 Q 784 583 787 585 Q 796 592 791 601 Q 784 611 756 618 Q 726 624 698 611 Q 673 602 647 594 L 605 583 Q 554 571 496 564 Q 493 564 492 563 C 462 558 454 556 480 546 Q 532 524 577 532 Q 580 535 606 538 L 646 547 Z"/>
  <path id="z35803d5" d="M 644 409 Q 717 422 825 426 Q 879 429 885 437 Q 889 447 874 459 Q 816 493 759 473 Q 710 461 644 446 L 603 437 Q 501 419 382 396 Q 363 393 378 379 Q 391 367 408 364 Q 427 360 441 365 Q 504 386 578 398 L 644 409 Z"/>
  <path id="z35803d6" d="M 644 446 Q 645 494 646 547 L 647 594 Q 648 691 667 756 Q 676 771 673 785 Q 666 795 610 829 Q 586 845 565 830 Q 561 826 566 810 Q 602 758 603 704 Q 604 647 605 583 L 606 538 Q 605 538 606 537 Q 605 488 603 437 L 600 333 Q 596 168 591 137 Q 584 95 572 52 Q 560 10 587 -50 Q 594 -68 602 -71 Q 609 -78 616 -69 Q 623 -65 634 -44 Q 644 -19 643 13 Q 642 56 643 357 L 644 446 Z"/>
  <path id="z35803d7" d="M 643 400 Q 643 404 644 409 C 653 438 590 426 578 398 Q 515 244 318 70 Q 308 58 316 57 Q 325 53 335 59 Q 470 122 580 302 Q 590 321 600 333 C 618 357 646 395 643 400 Z"/>
  <path id="z35803d8" d="M 643 357 Q 707 249 791 136 Q 807 115 837 115 Q 937 111 969 115 Q 979 116 980 121 Q 981 125 968 134 Q 824 201 759 271 Q 704 328 643 400 C 624 423 628 383 643 357 Z"/>
<defs>
  <clipPath id="z35803c1"><use href="#z35803d1"/></clipPath>
  <clipPath id="z35803c2"><use href="#z35803d2"/></clipPath>
  <clipPath id="z35803c3"><use href="#z35803d3"/></clipPath>
  <clipPath id="z35803c4"><use href="#z35803d4"/></clipPath>
  <clipPath id="z35803c5"><use href="#z35803d5"/></clipPath>
  <clipPath id="z35803c6"><use href="#z35803d6"/></clipPath>
  <clipPath id="z35803c7"><use href="#z35803d7"/></clipPath>
  <clipPath id="z35803c8"><use href="#z35803d8"/></clipPath>
</defs>
<path style="--d:1s;" pathLength="3333" clip-path="url(#z35803c1)" d="M 236 784 L 330 732 L 357 693"/>
<path style="--d:2s;" pathLength="3333" clip-path="url(#z35803c2)" d="M 40 452 L 76 446 L 118 454 L 238 500 L 256 496 L 265 487 L 240 207 L 249 175 L 291 194 L 376 282"/>
<path style="--d:3s;" pathLength="3333" clip-path="url(#z35803c3)" d="M 475 677 L 500 646 L 499 632 L 457 548 L 417 493 L 379 454"/>
<path style="--d:4s;" pathLength="3333" clip-path="url(#z35803c4)" d="M 489 546 L 498 552 L 545 550 L 593 557 L 654 570 L 724 594 L 782 594"/>
<path style="--d:5s;" pathLength="3333" clip-path="url(#z35803c5)" d="M 380 388 L 431 384 L 543 410 L 785 452 L 844 450 L 878 442"/>
<path style="--d:6s;" pathLength="3333" clip-path="url(#z35803c6)" d="M 577 823 L 621 783 L 631 759 L 620 182 L 605 30 L 607 -57"/>
<path style="--d:7s;" pathLength="3333" clip-path="url(#z35803c7)" d="M 638 405 L 596 375 L 547 290 L 465 183 L 391 112 L 322 63"/>
<path style="--d:8s;" pathLength="3333" clip-path="url(#z35803c8)" d="M 648 393 L 655 364 L 713 286 L 819 167 L 869 146 L 973 121"/>
</svg>