<svg id="z32515" class="acjk" viewBox="0 0 1024 1024" xmlns="http://www.w3.org/2000/svg">
<style>
<![CDATA[
@keyframes zk {
	to {
		stroke-dashoffset:0;
	}
}
svg.acjk path[clip-path] {
	--t:0.8s;
	animation:zk var(--t) linear forwards var(--d);
	stroke-dasharray:3337;
	stroke-dashoffset:3339;
	stroke-width:128;
	stroke-linecap:round;
	stroke-linejoin:round;
	fill:none;
	stroke:#000;
}
svg.acjk path[id] {fill:#ccc;}
]]>
</style>
  <path id="z32515d1" d="M 288 476 Q 287 479 274 477 Q 240 477 212 477 Q 179 476 196 496 Q 260 608 322 693 Q 335 711 333 718 Q 330 733 290 762 Q 274 775 256 771 Q 244 768 251 753 Q 258 737 254 710 Q 244 661 187 554 Q 169 518 131 483 Q 113 468 115 456 Q 119 437 135 420 Q 145 410 158 417 Q 174 429 232 447 Q 257 451 275 457 C 304 465 318 474 288 476 Z"/>
  <path id="z32515d2" d="M 275 457 Q 176 319 157 308 Q 144 299 147 286 Q 148 273 174 256 Q 184 246 198 257 Q 258 302 356 339 Q 374 345 375 353 Q 376 363 359 359 Q 304 347 238 324 Q 214 314 229 335 Q 266 390 353 499 Q 378 535 402 556 Q 412 565 407 574 Q 397 593 365 609 Q 350 618 341 615 Q 331 612 334 597 Q 337 561 288 476 L 275 457 Z"/>
  <path id="z32515d3" d="M 111 152 Q 101 148 101 140 Q 102 128 111 123 Q 133 114 165 104 Q 175 104 183 114 Q 205 142 314 226 Q 329 239 340 251 Q 349 260 348 268 Q 342 272 332 267 Q 155 162 111 152 Z"/>
  <path id="z32515d4" d="M 534 504 Q 624 532 625 533 Q 632 540 628 549 Q 621 559 591 565 Q 563 569 535 555 L 495 540 Q 482 537 472 533 Q 436 523 394 517 Q 360 508 386 494 Q 431 473 483 490 L 534 504 Z"/>
  <path id="z32515d5" d="M 533 398 Q 533 447 534 504 L 535 555 Q 535 639 552 695 Q 559 708 557 722 Q 551 731 500 761 Q 479 777 460 762 Q 456 758 461 744 Q 492 699 493 654 Q 493 600 495 540 L 492 386 Q 488 191 479 145 Q 457 61 480 14 Q 480 11 482 8 Q 488 -8 496 -11 Q 502 -17 508 -10 Q 515 -6 524 14 Q 533 36 532 65 Q 531 102 533 371 L 533 398 Z"/>
  <path id="z32515d6" d="M 483 490 Q 447 361 301 131 Q 297 121 307 122 Q 331 122 428 266 Q 462 318 492 386 C 553 523 491 519 483 490 Z"/>
  <path id="z32515d7" d="M 533 371 Q 599 308 610 308 L 611 308 Q 618 308 622 317 Q 625 327 620 347 Q 613 374 539 397 Q 536 398 533 398 C 503 401 511 392 533 371 Z"/>
  <path id="z32515d8" d="M 698 572 Q 689 587 659 597 Q 650 601 640 597 Q 633 593 638 581 Q 662 521 663 402 Q 663 246 646 171 Q 633 120 667 81 Q 677 68 686 80 Q 696 95 697 121 L 699 155 Q 699 167 700 289 L 700 316 Q 700 362 700 397 L 701 425 Q 701 485 703 544 L 698 572 Z"/>
  <path id="z32515d9" d="M 809 137 Q 837 103 857 71 Q 866 55 877 55 Q 892 56 906 89 Q 922 126 918 170 Q 882 530 908 566 Q 915 576 907 586 Q 891 602 843 622 Q 827 629 781 603 Q 727 587 698 572 C 671 559 674 537 703 544 Q 724 548 811 577 Q 824 581 831 577 Q 867 546 850 179 Q 849 176 849 171 Q 845 155 829 159 C 802 146 802 146 809 137 Z"/>
  <path id="z32515d10" d="M 700 397 Q 701 397 704 397 Q 759 407 800 412 Q 822 416 813 429 Q 803 442 778 445 Q 739 448 701 425 C 675 410 670 397 700 397 Z"/>
  <path id="z32515d11" d="M 700 289 Q 701 289 704 289 Q 762 299 804 304 Q 826 308 817 321 Q 807 334 783 337 Q 737 340 700 316 C 675 300 670 289 700 289 Z"/>
  <path id="z32515d12" d="M 697 121 Q 697 122 700 122 Q 734 131 809 137 C 839 139 853 141 829 159 Q 820 166 807 174 Q 792 181 764 173 Q 730 163 699 155 C 670 147 668 112 697 121 Z"/>
<defs>
  <clipPath id="z32515c1"><use href="#z32515d1"/></clipPath>
  <clipPath id="z32515c2"><use href="#z32515d2"/></clipPath>
  <clipPath id="z32515c3"><use href="#z32515d3"/></clipPath>
  <clipPath id="z32515c4"><use href="#z32515d4"/></clipPath>
  <clipPath id="z32515c5"><use href="#z32515d5"/></clipPath>
  <clipPath id="z32515c6"><use href="#z32515d6"/></clipPath>
  <clipPath id="z32515c7"><use href="#z32515d7"/></clipPath>
  <clipPath id="z32515c8"><use href="#z32515d8"/></clipPath>
  <clipPath id="z32515c9"><use href="#z32515d9"/></clipPath>
  <clipPath id="z32515c10"><use href="#z32515d10"/></clipPath>
  <clipPath id="z32515c11"><use href="#z32515d11"/></clipPath>
  <clipPath id="z32515c12"><use href="#z32515d12"/></clipPath>
</defs>
<path style="--d:1s;" pathLength="3333" clip-path="url(#z32515c1)" d="M 258 761 L 283 734 L 290 708 L 242 613 L 166 484 L 161 461 L 194 457 L 271 467 L 281 474"/>
<path style="--d:2s;" pathLength="3333" clip-path="url(#z32515c2)" d="M 346 603 L 366 569 L 319 487 L 214 347 L 206 306 L 240 305 L 367 353"/>
<path style="--d:3s;" pathLength="3333" clip-path="url(#z32515c3)" d="M 115 139 L 147 137 L 169 143 L 278 215 L 286 226 L 298 228 L 305 239 L 343 265"/>
<path style="--d:4s;" pathLength="3333" clip-path="url(#z32515c4)" d="M 387 506 L 445 504 L 572 542 L 620 541"/>
<path style="--d:5s;" pathLength="3333" clip-path="url(#z32515c5)" d="M 471 755 L 519 708 L 512 262 L 500 97 L 501 3"/>
<path style="--d:6s;" pathLength="3333" clip-path="url(#z32515c6)" d="M 490 485 L 471 394 L 449 345 L 379 221 L 308 129"/>
<path style="--d:7s;" pathLength="3333" clip-path="url(#z32515c7)" d="M 535 391 L 595 345 L 611 317"/>
<path style="--d:8s;" pathLength="3333" clip-path="url(#z32515c8)" d="M 647 588 L 673 560 L 681 493 L 682 276 L 670 146 L 677 85"/>
<path style="--d:9s;" pathLength="3333" clip-path="url(#z32515c9)" d="M 705 552 L 715 563 L 825 601 L 843 598 L 873 570 L 885 181 L 872 128 L 877 70"/>
<path style="--d:10s;" pathLength="3333" clip-path="url(#z32515c10)" d="M 702 404 L 716 416 L 744 424 L 779 427 L 804 422"/>
<path style="--d:11s;" pathLength="3333" clip-path="url(#z32515c11)" d="M 702 296 L 738 314 L 775 320 L 808 314"/>
<path style="--d:12s;" pathLength="3333" clip-path="url(#z32515c12)" d="M 704 128 L 722 144 L 789 157 L 820 157"/>
</svg>