<svg id="z34697" class="acjk" viewBox="0 0 1024 1024" xmlns="http://www.w3.org/2000/svg">
<style>
<![CDATA[
@keyframes zk {
	to {
		stroke-dashoffset:0;
	}
}
svg.acjk path[clip-path] {
	--t:0.8s;
	animation:zk var(--t) linear forwards var(--d);
	stroke-dasharray:3337;
	stroke-dashoffset:3339;
	stroke-width:128;
	stroke-linecap:round;
	stroke-linejoin:round;
	fill:none;
	stroke:#000;
}
svg.acjk path[id] {fill:#ccc;}
]]>
</style>
  <path id="z34697d1" d="M 116 504 Q 103 508 77 512 Q 65 515 63 510 Q 57 503 65 489 Q 92 438 110 356 Q 113 331 128 314 Q 146 295 150 309 Q 154 319 153 338 L 149 367 Q 133 451 130 476 C 127 501 127 501 116 504 Z"/>
  <path id="z34697d2" d="M 344 404 Q 365 474 393 494 Q 408 510 394 527 Q 325 578 267 545 Q 260 544 253 540 L 206 525 Q 161 513 116 504 C 87 498 101 469 130 476 Q 167 485 207 495 L 252 505 L 284 513 Q 300 517 308 511 Q 320 499 298 409 C 291 380 335 375 344 404 Z"/>
  <path id="z34697d3" d="M 249 357 Q 292 366 354 375 Q 364 376 365 385 Q 365 392 344 404 L 298 409 Q 294 409 292 407 Q 270 401 250 394 L 207 382 Q 176 375 149 367 C 120 359 123 334 153 338 Q 159 338 207 348 L 249 357 Z"/>
  <path id="z34697d4" d="M 245 237 Q 246 298 249 357 L 250 394 Q 251 451 252 505 L 253 540 Q 253 615 272 691 Q 275 701 255 717 Q 219 735 194 738 Q 178 742 170 733 Q 163 726 171 710 Q 201 668 201 639 Q 204 584 206 525 L 207 495 Q 208 440 207 382 L 207 348 Q 206 288 203 225 C 202 195 244 207 245 237 Z"/>
  <path id="z34697d5" d="M 316 259 Q 280 249 245 237 L 203 225 Q 160 213 115 200 Q 99 196 73 196 Q 61 195 59 185 Q 58 172 66 165 Q 88 150 120 132 Q 130 129 141 138 Q 174 165 300 224 Q 312 230 327 238 C 354 252 345 267 316 259 Z"/>
  <path id="z34697d6" d="M 327 238 Q 345 196 362 188 Q 369 185 378 193 Q 385 203 387 227 Q 388 258 320 307 Q 310 314 304 314 Q 300 313 297 303 Q 297 294 310 272 Q 313 266 316 259 L 327 238 Z"/>
  <path id="z34697d7" d="M 495 755 Q 501 692 389 578 Q 382 574 391 571 Q 446 571 556 705 Q 560 711 564 714 Q 571 718 569 727 Q 568 736 557 746 Q 527 773 501 768 Q 494 767 495 755 Z"/>
  <path id="z34697d8" d="M 622 801 Q 626 797 632 793 Q 651 780 707 695 Q 791 572 837 571 Q 849 571 927 582 Q 937 583 946 587 Q 953 591 944 599 Q 934 606 845 646 Q 764 683 674 798 Q 661 814 640 819 Q 628 822 618 815 Q 614 808 622 801 Z"/>
  <path id="z34697d9" d="M 693 535 Q 555 514 554 514 Q 553 515 557 521 Q 615 597 637 616 Q 650 628 642 636 Q 633 646 607 652 Q 589 656 579 652 Q 573 651 575 633 Q 584 575 493 510 Q 487 507 482 504 Q 460 494 459 485 Q 458 472 467 455 Q 476 439 486 434 Q 493 433 502 437 Q 565 479 705 519 C 734 527 723 540 693 535 Z"/>
  <path id="z34697d10" d="M 705 519 Q 747 464 755 462 Q 762 461 769 469 Q 776 479 774 503 Q 774 525 748 548 Q 682 593 672 590 Q 668 589 666 578 Q 667 569 683 549 Q 687 543 693 535 L 705 519 Z"/>
  <path id="z34697d11" d="M 414 365 Q 401 364 409 356 Q 416 347 429 344 Q 447 341 523 368 Q 535 374 543 368 Q 549 362 549 343 Q 556 186 549 92 Q 548 68 540 58 Q 537 55 481 63 Q 463 67 465 60 Q 508 21 533 -7 Q 543 -23 557 -28 Q 564 -31 572 -23 Q 608 23 606 65 Q 588 320 606 356 Q 616 372 606 381 Q 588 396 557 408 Q 539 414 503 392 Q 469 376 414 365 Z"/>
  <path id="z34697d12" d="M 422 275 Q 452 238 477 225 Q 489 224 496 233 Q 500 243 499 256 Q 495 274 482 285 Q 442 313 415 307 Q 414 307 413 306 Q 409 305 410 296 Q 411 287 422 275 Z"/>
  <path id="z34697d13" d="M 357 115 Q 347 112 347 99 Q 351 83 374 73 Q 398 58 410 60 Q 419 61 425 80 Q 452 117 518 194 Q 524 200 521 206 Q 518 209 511 205 Q 399 123 357 115 Z"/>
  <path id="z34697d14" d="M 793 228 Q 794 63 781 42 Q 777 36 757 41 Q 732 45 707 51 Q 688 57 689 47 Q 744 2 774 -30 Q 787 -49 801 -53 Q 810 -57 818 -47 Q 857 -2 855 51 Q 833 342 855 381 Q 867 400 856 410 Q 835 428 801 442 Q 780 451 740 426 Q 713 414 642 403 Q 627 402 636 393 Q 645 383 659 378 Q 677 375 760 398 Q 775 402 783 394 Q 789 388 793 249 L 793 228 Z"/>
  <path id="z34697d15" d="M 656 304 Q 680 276 713 256 Q 725 255 732 265 Q 736 275 734 288 Q 730 306 715 315 Q 697 327 665 334 Q 652 338 645 334 Q 641 333 642 324 Q 643 315 656 304 Z"/>
  <path id="z34697d16" d="M 793 249 Q 661 168 643 165 Q 634 165 620 163 Q 607 162 608 147 Q 611 131 635 116 Q 660 100 673 99 Q 683 100 691 120 Q 722 157 793 228 C 814 249 819 265 793 249 Z"/>
<defs>
  <clipPath id="z34697c1"><use href="#z34697d1"/></clipPath>
  <clipPath id="z34697c2"><use href="#z34697d2"/></clipPath>
  <clipPath id="z34697c3"><use href="#z34697d3"/></clipPath>
  <clipPath id="z34697c4"><use href="#z34697d4"/></clipPath>
  <clipPath id="z34697c5"><use href="#z34697d5"/></clipPath>
  <clipPath id="z34697c6"><use href="#z34697d6"/></clipPath>
  <clipPath id="z34697c7"><use href="#z34697d7"/></clipPath>
  <clipPath id="z34697c8"><use href="#z34697d8"/></clipPath>
  <clipPath id="z34697c9"><use href="#z34697d9"/></clipPath>
  <clipPath id="z34697c10"><use href="#z34697d10"/></clipPath>
  <clipPath id="z34697c11"><use href="#z34697d11"/></clipPath>
  <clipPath id="z34697c12"><use href="#z34697d12"/></clipPath>
  <clipPath id="z34697c13"><use href="#z34697d13"/></clipPath>
  <clipPath id="z34697c14"><use href="#z34697d14"/></clipPath>
  <clipPath id="z34697c15"><use href="#z34697d15"/></clipPath>
  <clipPath id="z34697c16"><use href="#z34697d16"/></clipPath>
</defs>
<path style="--d:1s;" pathLength="3333" clip-path="url(#z34697c1)" d="M 71 503 L 95 485 L 104 468 L 140 315"/>
<path style="--d:2s;" pathLength="3333" clip-path="url(#z34697c2)" d="M 125 500 L 149 495 L 293 535 L 324 532 L 351 508 L 327 429 L 307 420"/>
<path style="--d:3s;" pathLength="3333" clip-path="url(#z34697c3)" d="M 155 346 L 166 356 L 290 386 L 335 390 L 355 385"/>
<path style="--d:4s;" pathLength="3333" clip-path="url(#z34697c4)" d="M 182 724 L 230 685 L 232 659 L 225 253 L 208 233"/>
<path style="--d:5s;" pathLength="3333" clip-path="url(#z34697c5)" d="M 72 182 L 125 168 L 298 240 L 317 240"/>
<path style="--d:6s;" pathLength="3333" clip-path="url(#z34697c6)" d="M 306 305 L 360 232 L 366 203"/>
<path style="--d:7s;" pathLength="3333" clip-path="url(#z34697c7)" d="M 508 757 L 528 726 L 511 694 L 465 634 L 395 576"/>
<path style="--d:8s;" pathLength="3333" clip-path="url(#z34697c8)" d="M 626 810 L 652 796 L 761 666 L 819 618 L 855 605 L 939 592"/>
<path style="--d:9s;" pathLength="3333" clip-path="url(#z34697c9)" d="M 632 628 L 604 624 L 576 571 L 539 524 L 554 518 L 558 492 L 673 520 L 679 528 L 695 518"/>
<path style="--d:10s;" pathLength="3333" clip-path="url(#z34697c10)" d="M 674 582 L 742 516 L 759 472"/>
<path style="--d:11s;" pathLength="3333" clip-path="url(#z34697c11)" d="M 418 357 L 438 357 L 509 376 L 533 389 L 556 386 L 577 365 L 573 315 L 578 76 L 569 39 L 556 23 L 474 57"/>
<path style="--d:12s;" pathLength="3333" clip-path="url(#z34697c12)" d="M 418 299 L 461 270 L 482 242"/>
<path style="--d:13s;" pathLength="3333" clip-path="url(#z34697c13)" d="M 361 101 L 396 95 L 516 201"/>
<path style="--d:14s;" pathLength="3333" clip-path="url(#z34697c14)" d="M 646 394 L 706 399 L 774 421 L 799 415 L 821 392 L 817 215 L 822 62 L 815 23 L 801 4 L 771 11 L 699 45"/>
<path style="--d:15s;" pathLength="3333" clip-path="url(#z34697c15)" d="M 651 327 L 698 297 L 717 274"/>
<path style="--d:16s;" pathLength="3333" clip-path="url(#z34697c16)" d="M 620 150 L 663 137 L 782 233"/>
</svg>