<svg id="z30024" class="acjk" viewBox="0 0 1024 1024" xmlns="http://www.w3.org/2000/svg">
<style>
<![CDATA[
@keyframes zk {
	to {
		stroke-dashoffset:0;
	}
}
svg.acjk path[clip-path] {
	--t:0.8s;
	animation:zk var(--t) linear forwards var(--d);
	stroke-dasharray:3337;
	stroke-dashoffset:3339;
	stroke-width:128;
	stroke-linecap:round;
	stroke-linejoin:round;
	fill:none;
	stroke:#000;
}
svg.acjk path[id] {fill:#ccc;}
]]>
</style>
  <path id="z30024d1" d="M 132 561 Q 122 567 95 573 Q 85 577 81 572 Q 75 568 81 552 Q 112 468 122 335 Q 122 295 142 267 Q 157 246 162 260 Q 165 270 167 282 L 168 310 Q 168 328 165 348 Q 146 483 142 528 C 139 558 139 558 132 561 Z"/>
  <path id="z30024d2" d="M 320 307 Q 338 285 353 277 Q 363 270 378 292 Q 394 323 417 492 Q 424 523 446 548 Q 458 560 446 573 Q 430 589 388 612 Q 367 624 132 561 C 103 553 114 517 142 528 Q 148 534 223 550 L 260 557 Q 287 564 319 569 Q 344 573 351 565 Q 367 547 366 529 Q 342 343 321 333 C 310 318 310 318 320 307 Z"/>
  <path id="z30024d3" d="M 275 429 Q 296 433 316 436 Q 338 440 329 453 Q 319 466 295 469 Q 286 470 277 468 L 233 458 Q 202 446 178 437 Q 162 433 182 419 Q 185 419 234 422 L 275 429 Z"/>
  <path id="z30024d4" d="M 272 340 Q 273 388 275 429 L 277 468 Q 283 537 278 542 Q 269 551 260 557 C 236 575 217 579 223 550 Q 229 522 233 458 L 234 422 Q 234 385 234 328 C 234 298 271 310 272 340 Z"/>
  <path id="z30024d5" d="M 167 282 Q 177 282 189 284 Q 231 296 320 307 C 348 311 344 314 321 333 Q 317 337 309 341 Q 296 348 272 340 L 234 328 Q 198 319 168 310 C 139 301 137 281 167 282 Z"/>
  <path id="z30024d6" d="M 562 617 Q 668 647 707 665 Q 753 684 793 692 Q 811 693 815 702 Q 819 712 806 724 Q 784 740 738 757 Q 722 764 709 764 Q 702 760 701 748 Q 701 718 546 634 C 520 620 533 609 562 617 Z"/>
  <path id="z30024d7" d="M 547 461 Q 554 560 561 604 Q 562 611 562 617 C 563 625 563 625 546 634 Q 547 635 546 635 Q 498 660 483 658 Q 462 654 478 632 Q 509 574 481 349 Q 469 289 439 222 Q 409 153 316 68 Q 301 55 298 49 Q 297 42 308 42 Q 347 39 424 118 Q 518 220 545 443 L 547 461 Z"/>
  <path id="z30024d8" d="M 716 212 Q 759 285 788 408 Q 792 445 812 465 Q 828 481 807 496 Q 785 512 748 522 Q 724 528 703 514 Q 651 484 578 469 Q 557 466 547 461 C 518 453 516 452 545 443 Q 546 443 550 441 Q 578 429 617 444 Q 657 456 697 467 Q 722 476 723 448 Q 723 352 677 256 L 654 214 Q 597 135 463 83 Q 448 77 459 70 Q 468 66 496 73 Q 581 86 632 116 Q 660 135 687 167 L 716 212 Z"/>
  <path id="z30024d9" d="M 687 167 Q 729 106 769 54 Q 782 35 808 34 Q 943 34 954 46 Q 958 52 948 56 Q 798 131 736 192 Q 726 202 716 212 L 677 256 Q 643 299 603 351 Q 593 367 578 370 Q 550 371 542 364 Q 538 358 547 352 Q 578 331 598 298 Q 626 255 654 214 L 687 167 Z"/>
<defs>
  <clipPath id="z30024c1"><use href="#z30024d1"/></clipPath>
  <clipPath id="z30024c2"><use href="#z30024d2"/></clipPath>
  <clipPath id="z30024c3"><use href="#z30024d3"/></clipPath>
  <clipPath id="z30024c4"><use href="#z30024d4"/></clipPath>
  <clipPath id="z30024c5"><use href="#z30024d5"/></clipPath>
  <clipPath id="z30024c6"><use href="#z30024d6"/></clipPath>
  <clipPath id="z30024c7"><use href="#z30024d7"/></clipPath>
  <clipPath id="z30024c8"><use href="#z30024d8"/></clipPath>
  <clipPath id="z30024c9"><use href="#z30024d9"/></clipPath>
</defs>
<path style="--d:1s;" pathLength="3333" clip-path="url(#z30024c1)" d="M 89 565 L 111 541 L 119 513 L 153 265"/>
<path style="--d:2s;" pathLength="3333" clip-path="url(#z30024c2)" d="M 141 534 L 151 549 L 175 558 L 331 590 L 372 585 L 392 569 L 402 557 L 401 547 L 364 349 L 350 321 L 329 326"/>
<path style="--d:3s;" pathLength="3333" clip-path="url(#z30024c3)" d="M 180 428 L 274 449 L 320 446"/>
<path style="--d:4s;" pathLength="3333" clip-path="url(#z30024c4)" d="M 230 546 L 254 528 L 256 482 L 254 364 L 249 347 L 238 337"/>
<path style="--d:5s;" pathLength="3333" clip-path="url(#z30024c5)" d="M 172 289 L 190 300 L 284 323 L 299 324 L 309 314"/>
<path style="--d:6s;" pathLength="3333" clip-path="url(#z30024c6)" d="M 803 707 L 732 716 L 622 654 L 568 631 L 559 638"/>
<path style="--d:7s;" pathLength="3333" clip-path="url(#z30024c7)" d="M 484 644 L 500 634 L 525 604 L 516 417 L 505 344 L 487 280 L 454 199 L 427 156 L 373 95 L 328 59 L 306 49"/>
<path style="--d:8s;" pathLength="3333" clip-path="url(#z30024c8)" d="M 550 447 L 632 465 L 722 494 L 745 487 L 763 471 L 736 328 L 701 241 L 668 187 L 622 141 L 580 116 L 504 85 L 464 76"/>
<path style="--d:9s;" pathLength="3333" clip-path="url(#z30024c9)" d="M 549 360 L 570 356 L 584 346 L 724 163 L 808 80 L 949 50"/>
</svg>