<svg id="z37057" class="acjk" viewBox="0 0 1024 1024" xmlns="http://www.w3.org/2000/svg">
<style>
<![CDATA[
@keyframes zk {
	to {
		stroke-dashoffset:0;
	}
}
svg.acjk path[clip-path] {
	--t:0.8s;
	animation:zk var(--t) linear forwards var(--d);
	stroke-dasharray:3337;
	stroke-dashoffset:3339;
	stroke-width:128;
	stroke-linecap:round;
	stroke-linejoin:round;
	fill:none;
	stroke:#000;
}
svg.acjk path[id] {fill:#ccc;}
]]>
</style>
  <path id="z37057d1" d="M 338 636 Q 405 651 479 663 Q 531 673 538 681 Q 547 688 543 696 Q 536 708 508 716 Q 484 722 356 684 L 310 673 Q 244 663 174 656 Q 138 650 163 634 Q 200 609 269 624 Q 279 627 292 627 L 338 636 Z"/>
  <path id="z37057d2" d="M 292 529 Q 314 575 338 636 L 356 684 Q 386 765 407 791 Q 419 806 414 816 Q 405 838 357 856 Q 344 862 329 855 Q 319 848 327 837 Q 343 818 344 796 Q 345 771 310 673 L 292 627 Q 252 525 200 450 Q 152 380 46 275 Q 36 262 46 260 Q 50 259 62 265 Q 179 332 261 471 Q 264 477 268 483 L 292 529 Z"/>
  <path id="z37057d3" d="M 305 315 Q 306 361 310 394 L 312 425 Q 315 474 318 491 Q 318 495 318 498 C 320 522 320 522 301 525 Q 297 528 292 529 C 266 544 262 512 268 483 Q 292 371 247 239 Q 222 179 249 144 Q 255 132 265 137 Q 302 165 303 282 Q 303 286 304 288 L 305 315 Z"/>
  <path id="z37057d4" d="M 318 498 Q 325 499 333 502 Q 376 514 419 525 Q 435 531 441 523 Q 462 460 451 209 Q 448 187 442 175 Q 438 169 418 174 Q 393 178 366 184 Q 347 188 349 180 Q 404 138 436 106 Q 449 90 463 85 Q 470 82 478 91 Q 514 137 512 185 Q 490 476 510 511 Q 520 529 509 538 Q 490 554 457 567 Q 441 574 427 567 Q 394 548 374 541 Q 349 532 301 525 C 271 520 289 490 318 498 Z"/>
  <path id="z37057d5" d="M 310 394 Q 313 394 317 394 Q 363 403 397 408 Q 419 414 410 425 Q 398 438 374 440 Q 353 440 312 425 C 284 415 280 394 310 394 Z"/>
  <path id="z37057d6" d="M 304 288 Q 305 288 311 288 Q 366 295 408 301 Q 430 305 421 317 Q 411 330 387 334 Q 354 337 305 315 C 278 303 274 288 304 288 Z"/>
  <path id="z37057d7" d="M 660 668 Q 675 669 693 677 Q 733 690 768 701 Q 774 704 785 697 Q 797 690 787 666 Q 745 558 739 549 Q 730 534 732 526 Q 731 513 754 505 Q 841 442 858 357 Q 858 321 846 309 Q 833 299 806 301 Q 766 305 730 308 Q 721 309 723 301 Q 726 294 742 284 Q 820 248 838 220 Q 845 207 858 206 Q 868 206 883 218 Q 923 267 923 326 Q 924 416 799 516 Q 766 532 791 567 Q 815 606 834 630 Q 853 661 882 676 Q 913 692 886 713 Q 847 747 823 758 Q 805 765 789 754 Q 768 738 671 707 Q 670 707 648 700 C 619 691 631 661 660 668 Z"/>
  <path id="z37057d8" d="M 606 -27 Q 610 -52 618 -61 Q 624 -68 631 -66 Q 644 -57 651 1 Q 658 95 655 187 Q 649 275 650 594 Q 650 624 660 668 C 664 690 664 690 648 700 Q 617 721 602 722 Q 589 726 574 717 Q 565 710 573 699 Q 579 687 586 677 Q 601 650 602 611 Q 606 445 601 188 Q 600 26 606 -27 Z"/>
<defs>
  <clipPath id="z37057c1"><use href="#z37057d1"/></clipPath>
  <clipPath id="z37057c2"><use href="#z37057d2"/></clipPath>
  <clipPath id="z37057c3"><use href="#z37057d3"/></clipPath>
  <clipPath id="z37057c4"><use href="#z37057d4"/></clipPath>
  <clipPath id="z37057c5"><use href="#z37057d5"/></clipPath>
  <clipPath id="z37057c6"><use href="#z37057d6"/></clipPath>
  <clipPath id="z37057c7"><use href="#z37057d7"/></clipPath>
  <clipPath id="z37057c8"><use href="#z37057d8"/></clipPath>
</defs>
<path style="--d:1s;" pathLength="3333" clip-path="url(#z37057c1)" d="M 166 646 L 239 640 L 311 651 L 438 682 L 531 692"/>
<path style="--d:2s;" pathLength="3333" clip-path="url(#z37057c2)" d="M 335 845 L 358 833 L 377 808 L 312 621 L 272 532 L 221 444 L 162 369 L 98 305 L 48 268"/>
<path style="--d:3s;" pathLength="3333" clip-path="url(#z37057c3)" d="M 294 521 L 288 324 L 260 147"/>
<path style="--d:4s;" pathLength="3333" clip-path="url(#z37057c4)" d="M 311 522 L 324 514 L 337 516 L 439 549 L 456 543 L 477 520 L 481 196 L 474 159 L 460 139 L 445 141 L 358 178"/>
<path style="--d:5s;" pathLength="3333" clip-path="url(#z37057c5)" d="M 314 402 L 328 414 L 358 421 L 400 419"/>
<path style="--d:6s;" pathLength="3333" clip-path="url(#z37057c6)" d="M 308 295 L 320 305 L 371 315 L 412 311"/>
<path style="--d:7s;" pathLength="3333" clip-path="url(#z37057c7)" d="M 658 698 L 673 689 L 763 720 L 804 724 L 819 717 L 835 698 L 776 583 L 757 530 L 811 483 L 856 429 L 882 381 L 889 320 L 879 288 L 860 265 L 730 301"/>
<path style="--d:8s;" pathLength="3333" clip-path="url(#z37057c8)" d="M 581 708 L 606 694 L 627 664 L 627 -57"/>
</svg>