<svg id="z34943" class="acjk" viewBox="0 0 1024 1024" xmlns="http://www.w3.org/2000/svg">
<style>
<![CDATA[
@keyframes zk {
	to {
		stroke-dashoffset:0;
	}
}
svg.acjk path[clip-path] {
	--t:0.8s;
	animation:zk var(--t) linear forwards var(--d);
	stroke-dasharray:3337;
	stroke-dashoffset:3339;
	stroke-width:128;
	stroke-linecap:round;
	stroke-linejoin:round;
	fill:none;
	stroke:#000;
}
svg.acjk path[id] {fill:#ccc;}
]]>
</style>
  <path id="z34943d1" d="M 301 756 Q 326 735 355 711 Q 371 698 388 700 Q 400 701 404 716 Q 408 732 396 765 Q 389 784 357 795 Q 278 813 268 807 Q 262 803 265 789 Q 269 776 301 756 Z"/>
  <path id="z34943d2" d="M 255 383 Q 355 527 394 556 Q 410 568 397 583 Q 378 598 348 608 Q 326 617 308 605 Q 224 544 78 537 Q 66 538 64 531 Q 61 521 75 511 Q 112 486 129 489 Q 150 493 169 502 Q 217 521 272 545 Q 288 552 293 544 Q 297 535 286 514 Q 214 372 52 220 Q 37 210 40 205 Q 43 202 56 208 Q 137 247 231 354 L 255 383 Z"/>
  <path id="z34943d3" d="M 231 354 Q 246 299 248 274 Q 248 171 228 88 Q 218 46 247 4 Q 248 1 251 -1 Q 267 -16 278 9 Q 291 46 291 87 Q 292 265 298 306 Q 305 331 296 340 Q 265 377 255 383 C 232 402 223 383 231 354 Z"/>
  <path id="z34943d4" d="M 353 369 Q 395 415 417 434 Q 427 440 424 447 Q 400 474 372 472 Q 362 469 366 457 Q 372 442 339 374 C 326 347 333 347 353 369 Z"/>
  <path id="z34943d5" d="M 339 374 Q 317 380 312 378 Q 308 375 309 367 Q 312 360 330 345 Q 352 326 375 304 Q 384 295 395 295 Q 402 296 406 305 Q 409 315 403 335 Q 399 350 376 362 Q 364 366 353 369 L 339 374 Z"/>
  <path id="z34943d6" d="M 624 656 Q 651 722 670 746 Q 679 758 672 771 Q 666 783 634 802 Q 604 817 585 814 Q 567 810 578 789 Q 623 711 431 396 Q 422 384 421 378 Q 418 366 432 371 Q 483 384 608 624 Q 609 630 613 634 L 624 656 Z"/>
  <path id="z34943d7" d="M 613 634 Q 688 531 771 436 Q 792 412 829 408 Q 896 401 969 409 Q 987 410 989 415 Q 992 421 977 428 Q 808 503 785 519 Q 731 555 674 607 Q 640 641 624 656 C 602 677 595 658 613 634 Z"/>
  <path id="z34943d8" d="M 584 421 Q 615 396 650 366 Q 662 356 676 356 Q 685 357 689 369 Q 693 382 684 407 Q 678 428 647 442 Q 575 469 560 463 Q 556 459 557 448 Q 561 438 584 421 Z"/>
  <path id="z34943d9" d="M 475 254 Q 444 254 445 247 Q 439 231 466 218 Q 494 197 511 200 Q 526 201 548 214 Q 684 281 705 258 Q 712 245 698 226 Q 689 211 668 163 Q 631 90 615 77 Q 582 49 596 1 Q 599 -18 608 -24 Q 617 -28 630 -18 Q 661 6 734 179 Q 755 230 786 250 Q 796 257 796 268 Q 797 281 764 301 Q 730 322 713 324 Q 706 323 697 317 Q 622 278 475 254 Z"/>
<defs>
  <clipPath id="z34943c1"><use href="#z34943d1"/></clipPath>
  <clipPath id="z34943c2"><use href="#z34943d2"/></clipPath>
  <clipPath id="z34943c3"><use href="#z34943d3"/></clipPath>
  <clipPath id="z34943c4"><use href="#z34943d4"/></clipPath>
  <clipPath id="z34943c5"><use href="#z34943d5"/></clipPath>
  <clipPath id="z34943c6"><use href="#z34943d6"/></clipPath>
  <clipPath id="z34943c7"><use href="#z34943d7"/></clipPath>
  <clipPath id="z34943c8"><use href="#z34943d8"/></clipPath>
  <clipPath id="z34943c9"><use href="#z34943d9"/></clipPath>
</defs>
<path style="--d:1s;" pathLength="3333" clip-path="url(#z34943c1)" d="M 273 800 L 358 755 L 386 718"/>
<path style="--d:2s;" pathLength="3333" clip-path="url(#z34943c2)" d="M 74 527 L 125 515 L 182 529 L 288 569 L 335 564 L 328 537 L 305 493 L 246 404 L 199 346 L 99 247 L 43 208"/>
<path style="--d:3s;" pathLength="3333" clip-path="url(#z34943c3)" d="M 254 376 L 268 330 L 272 278 L 257 58 L 263 9"/>
<path style="--d:4s;" pathLength="3333" clip-path="url(#z34943c4)" d="M 374 462 L 387 452 L 389 439 L 350 382"/>
<path style="--d:5s;" pathLength="3333" clip-path="url(#z34943c5)" d="M 317 371 L 378 333 L 392 309"/>
<path style="--d:6s;" pathLength="3333" clip-path="url(#z34943c6)" d="M 587 800 L 615 778 L 627 755 L 609 694 L 581 623 L 527 520 L 475 434 L 429 379"/>
<path style="--d:7s;" pathLength="3333" clip-path="url(#z34943c7)" d="M 624 649 L 627 634 L 692 564 L 804 461 L 840 446 L 983 417"/>
<path style="--d:8s;" pathLength="3333" clip-path="url(#z34943c8)" d="M 565 454 L 648 407 L 673 372"/>
<path style="--d:9s;" pathLength="3333" clip-path="url(#z34943c9)" d="M 455 242 L 485 232 L 518 231 L 624 269 L 705 290 L 717 290 L 744 266 L 685 133 L 627 36 L 614 -12"/>
</svg>