<svg id="z33538" class="acjk" viewBox="0 0 1024 1024" xmlns="http://www.w3.org/2000/svg">
<style>
<![CDATA[
@keyframes zk {
	to {
		stroke-dashoffset:0;
	}
}
svg.acjk path[clip-path] {
	--t:0.8s;
	animation:zk var(--t) linear forwards var(--d);
	stroke-dasharray:3337;
	stroke-dashoffset:3339;
	stroke-width:128;
	stroke-linecap:round;
	stroke-linejoin:round;
	fill:none;
	stroke:#000;
}
svg.acjk path[id] {fill:#ccc;}
]]>
</style>
  <path id="z33538d1" d="M 646 689 Q 730 701 861 693 Q 877 692 883 702 Q 887 714 874 729 Q 822 774 724 749 Q 696 745 668 739 L 600 729 Q 515 717 424 704 L 368 697 Q 283 690 192 679 Q 161 676 183 660 Q 229 630 287 641 Q 333 653 378 661 L 427 670 Q 472 679 590 686 L 646 689 Z"/>
  <path id="z33538d2" d="M 424 704 Q 423 729 421 749 Q 422 770 401 776 Q 362 797 335 789 Q 316 779 332 759 Q 356 731 368 697 L 378 661 Q 385 633 390 606 Q 397 584 411 568 Q 424 558 430 570 Q 437 591 432 615 Q 429 645 427 670 L 424 704 Z"/>
  <path id="z33538d3" d="M 668 739 Q 675 760 692 784 Q 708 802 696 813 Q 683 832 643 852 Q 624 862 604 853 Q 592 846 602 833 Q 614 806 600 729 L 590 686 Q 572 614 574 601 Q 575 585 593 598 Q 609 611 646 689 L 668 739 Z"/>
  <path id="z33538d4" d="M 567 421 Q 702 457 707 461 Q 716 468 711 477 Q 704 487 676 495 Q 643 499 561 468 L 506 451 Q 374 426 336 420 C 306 415 315 391 345 389 Q 394 385 472 401 Q 494 405 518 411 L 567 421 Z"/>
  <path id="z33538d5" d="M 336 420 Q 288 453 260 443 Q 247 437 254 422 Q 287 370 256 232 Q 226 126 102 24 Q 89 14 102 12 Q 165 18 228 83 Q 303 152 323 277 Q 323 320 338 370 Q 339 380 345 389 C 354 409 354 409 336 420 Z"/>
  <path id="z33538d6" d="M 626 155 Q 699 26 816 -43 Q 897 -77 916 -60 Q 935 -48 924 -12 Q 912 24 897 153 Q 896 175 890 178 Q 886 179 882 159 Q 863 54 843 34 Q 833 28 800 48 Q 710 108 662 189 L 634 239 Q 585 338 567 421 L 561 468 Q 560 496 563 516 Q 569 543 523 561 Q 486 577 469 571 Q 450 567 464 541 Q 483 517 506 451 L 518 411 Q 563 270 600 202 L 626 155 Z"/>
  <path id="z33538d7" d="M 600 202 Q 531 139 399 66 Q 389 60 396 56 Q 423 40 544 100 Q 590 122 626 155 L 662 189 Q 702 232 747 300 Q 763 324 783 346 Q 793 353 790 366 Q 786 378 757 402 Q 738 420 727 419 Q 712 418 710 402 Q 703 321 634 239 L 600 202 Z"/>
  <path id="z33538d8" d="M 710 566 Q 738 550 771 530 Q 786 520 801 524 Q 811 527 813 540 Q 814 555 800 581 Q 791 597 760 605 Q 687 615 675 607 Q 671 603 675 590 Q 681 581 710 566 Z"/>
<defs>
  <clipPath id="z33538c1"><use href="#z33538d1"/></clipPath>
  <clipPath id="z33538c2"><use href="#z33538d2"/></clipPath>
  <clipPath id="z33538c3"><use href="#z33538d3"/></clipPath>
  <clipPath id="z33538c4"><use href="#z33538d4"/></clipPath>
  <clipPath id="z33538c5"><use href="#z33538d5"/></clipPath>
  <clipPath id="z33538c6"><use href="#z33538d6"/></clipPath>
  <clipPath id="z33538c7"><use href="#z33538d7"/></clipPath>
  <clipPath id="z33538c8"><use href="#z33538d8"/></clipPath>
</defs>
<path style="--d:1s;" pathLength="3333" clip-path="url(#z33538c1)" d="M 185 671 L 223 662 L 262 662 L 509 699 L 773 727 L 824 724 L 870 708"/>
<path style="--d:2s;" pathLength="3333" clip-path="url(#z33538c2)" d="M 342 773 L 360 765 L 388 739 L 420 574"/>
<path style="--d:3s;" pathLength="3333" clip-path="url(#z33538c3)" d="M 609 842 L 629 832 L 650 798 L 624 706 L 584 601"/>
<path style="--d:4s;" pathLength="3333" clip-path="url(#z33538c4)" d="M 341 416 L 358 406 L 423 413 L 574 446 L 643 468 L 678 474 L 701 471"/>
<path style="--d:5s;" pathLength="3333" clip-path="url(#z33538c5)" d="M 265 430 L 286 417 L 304 396 L 294 273 L 279 211 L 256 159 L 217 105 L 173 61 L 108 18"/>
<path style="--d:6s;" pathLength="3333" clip-path="url(#z33538c6)" d="M 474 555 L 504 537 L 523 515 L 554 373 L 613 227 L 668 134 L 726 67 L 804 6 L 830 -6 L 870 -9 L 885 60 L 891 173"/>
<path style="--d:7s;" pathLength="3333" clip-path="url(#z33538c7)" d="M 727 402 L 741 371 L 740 353 L 691 267 L 647 212 L 604 170 L 540 124 L 483 91 L 401 60"/>
<path style="--d:8s;" pathLength="3333" clip-path="url(#z33538c8)" d="M 680 602 L 759 574 L 795 541"/>
</svg>