<svg id="z39944" class="acjk" viewBox="0 0 1024 1024" xmlns="http://www.w3.org/2000/svg">
<style>
<![CDATA[
@keyframes zk {
	to {
		stroke-dashoffset:0;
	}
}
svg.acjk path[clip-path] {
	--t:0.8s;
	animation:zk var(--t) linear forwards var(--d);
	stroke-dasharray:3337;
	stroke-dashoffset:3339;
	stroke-width:128;
	stroke-linecap:round;
	stroke-linejoin:round;
	fill:none;
	stroke:#000;
}
svg.acjk path[id] {fill:#ccc;}
]]>
</style>
  <path id="z39944d1" d="M 237 680 Q 253 701 272 726 Q 288 751 301 762 Q 308 771 306 782 Q 302 792 280 812 Q 258 828 243 828 Q 227 827 234 809 Q 252 761 118 589 Q 109 582 108 576 Q 104 567 116 569 Q 143 572 202 640 Q 209 649 219 658 L 237 680 Z"/>
  <path id="z39944d2" d="M 272 530 Q 360 635 392 657 Q 408 666 397 678 Q 385 688 354 707 Q 339 713 327 704 Q 320 700 258 684 Q 248 683 237 680 C 208 673 189 661 219 658 Q 244 654 298 663 Q 305 664 307 662 Q 311 659 306 649 Q 288 609 247 525 C 234 498 253 507 272 530 Z"/>
  <path id="z39944d3" d="M 151 502 Q 151 503 150 504 Q 140 510 107 516 Q 95 520 93 515 Q 87 509 94 495 Q 122 428 138 321 Q 139 288 158 267 Q 173 246 178 261 Q 179 267 181 274 L 182 298 Q 182 313 179 331 Q 161 436 156 473 L 151 502 Z"/>
  <path id="z39944d4" d="M 326 295 Q 338 280 349 274 Q 359 268 370 286 Q 383 311 406 446 Q 413 471 431 493 Q 441 503 432 515 Q 419 528 383 548 Q 368 555 305 538 Q 296 538 272 530 L 247 525 Q 214 521 151 502 C 122 493 128 463 156 473 Q 168 479 226 491 L 259 498 Q 334 520 353 508 Q 366 498 364 478 Q 343 340 329 325 C 318 303 318 303 326 295 Z"/>
  <path id="z39944d5" d="M 279 396 Q 304 403 326 407 Q 345 411 337 422 Q 327 432 306 435 Q 296 436 281 432 L 236 415 Q 214 408 197 399 Q 184 395 201 384 Q 204 383 237 387 L 279 396 Z"/>
  <path id="z39944d6" d="M 274 318 Q 275 361 279 396 L 281 432 Q 281 448 283 457 Q 289 475 259 498 C 236 517 219 520 226 491 Q 232 467 236 415 L 237 387 Q 237 356 238 309 C 239 279 273 288 274 318 Z"/>
  <path id="z39944d7" d="M 181 274 Q 188 273 198 275 Q 238 285 326 295 C 356 298 357 315 329 325 Q 317 331 296 325 Q 284 322 274 318 L 238 309 Q 207 305 182 298 C 153 290 151 276 181 274 Z"/>
  <path id="z39944d8" d="M 98 214 Q 85 172 73 129 Q 63 107 74 82 Q 78 69 92 58 Q 101 51 113 54 Q 120 57 124 69 Q 140 124 126 217 Q 123 226 120 230 Q 116 234 110 233 Q 106 230 98 214 Z"/>
  <path id="z39944d9" d="M 182 202 Q 198 129 218 120 Q 227 116 237 125 Q 241 132 242 150 Q 241 166 226 183 Q 204 211 193 219 Q 187 223 183 215 Q 179 211 182 202 Z"/>
  <path id="z39944d10" d="M 263 218 Q 284 160 302 151 Q 311 147 320 158 Q 324 165 322 183 Q 316 211 273 236 Q 267 239 264 231 Q 261 227 263 218 Z"/>
  <path id="z39944d11" d="M 351 215 Q 366 196 381 171 Q 388 161 400 158 Q 407 157 414 165 Q 418 175 418 197 Q 415 222 356 250 Q 346 254 340 254 Q 336 253 335 243 Q 336 234 351 215 Z"/>
  <path id="z39944d12" d="M 524 616 Q 554 622 590 627 L 625 633 Q 662 640 705 646 L 749 653 Q 824 663 886 669 Q 896 668 904 679 Q 905 689 884 700 Q 851 725 762 696 Q 759 696 757 695 L 708 684 Q 695 683 624 668 L 587 662 Q 557 659 524 654 L 487 650 Q 450 649 413 643 Q 385 640 406 623 Q 433 599 475 607 Q 481 608 489 609 L 524 616 Z"/>
  <path id="z39944d13" d="M 590 627 Q 590 626 591 622 Q 600 522 607 508 Q 611 501 619 506 Q 625 512 625 531 L 627 558 Q 627 598 625 633 L 624 668 Q 624 773 621 776 L 620 777 Q 607 786 586 794 Q 570 798 553 790 Q 544 783 556 773 Q 577 737 587 662 L 590 627 Z"/>
  <path id="z39944d14" d="M 734 582 Q 741 619 749 653 L 757 695 Q 767 765 784 791 Q 788 800 772 814 Q 744 833 724 839 Q 711 843 704 837 Q 697 831 702 818 Q 715 796 714 780 Q 713 734 708 684 L 705 646 Q 701 615 697 579 C 694 549 728 553 734 582 Z"/>
  <path id="z39944d15" d="M 625 531 Q 626 531 629 530 Q 638 529 649 532 Q 683 541 755 549 Q 764 550 765 558 Q 765 565 737 581 Q 736 582 734 582 L 697 579 Q 658 566 627 558 C 598 550 596 538 625 531 Z"/>
  <path id="z39944d16" d="M 601 442 Q 694 466 824 460 Q 846 459 846 470 Q 847 480 814 499 Q 790 514 733 497 Q 730 497 579 473 Q 551 463 537 468 Q 524 472 526 487 Q 523 550 524 616 L 524 654 Q 527 705 512 720 Q 484 742 467 739 Q 451 738 460 722 Q 485 688 487 650 L 489 609 Q 496 491 484 467 Q 475 451 483 438 Q 496 417 508 418 Q 515 417 533 427 Q 560 434 595 440 L 601 442 Z"/>
  <path id="z39944d17" d="M 657 314 Q 723 323 893 323 Q 909 323 914 330 Q 918 340 905 352 Q 856 389 800 373 Q 742 364 653 349 Q 652 349 649 348 L 603 342 Q 525 335 439 323 Q 420 322 434 306 Q 446 294 461 290 Q 479 286 493 289 Q 533 301 579 306 L 657 314 Z"/>
  <path id="z39944d18" d="M 649 348 Q 650 379 654 395 Q 655 407 649 413 Q 616 443 601 442 L 595 440 Q 591 440 590 437 Q 584 433 591 424 Q 603 406 603 342 L 602 250 Q 602 97 586 54 Q 577 21 607 -26 L 609 -29 Q 619 -47 627 -50 Q 637 -51 643 -39 Q 655 -9 651 19 Q 648 110 648 287 L 649 348 Z"/>
  <path id="z39944d19" d="M 579 306 Q 564 210 361 63 Q 346 51 360 50 Q 370 49 403 64 Q 446 82 486 115 Q 520 143 560 191 Q 585 222 602 250 C 645 319 586 339 579 306 Z"/>
  <path id="z39944d20" d="M 648 287 Q 711 191 793 89 Q 820 59 954 79 Q 963 80 964 85 Q 965 89 953 96 Q 818 159 763 209 Q 712 255 657 314 C 636 336 628 318 648 287 Z"/>
<defs>
  <clipPath id="z39944c1"><use href="#z39944d1"/></clipPath>
  <clipPath id="z39944c2"><use href="#z39944d2"/></clipPath>
  <clipPath id="z39944c3"><use href="#z39944d3"/></clipPath>
  <clipPath id="z39944c4"><use href="#z39944d4"/></clipPath>
  <clipPath id="z39944c5"><use href="#z39944d5"/></clipPath>
  <clipPath id="z39944c6"><use href="#z39944d6"/></clipPath>
  <clipPath id="z39944c7"><use href="#z39944d7"/></clipPath>
  <clipPath id="z39944c8"><use href="#z39944d8"/></clipPath>
  <clipPath id="z39944c9"><use href="#z39944d9"/></clipPath>
  <clipPath id="z39944c10"><use href="#z39944d10"/></clipPath>
  <clipPath id="z39944c11"><use href="#z39944d11"/></clipPath>
  <clipPath id="z39944c12"><use href="#z39944d12"/></clipPath>
  <clipPath id="z39944c13"><use href="#z39944d13"/></clipPath>
  <clipPath id="z39944c14"><use href="#z39944d14"/></clipPath>
  <clipPath id="z39944c15"><use href="#z39944d15"/></clipPath>
  <clipPath id="z39944c16"><use href="#z39944d16"/></clipPath>
  <clipPath id="z39944c17"><use href="#z39944d17"/></clipPath>
  <clipPath id="z39944c18"><use href="#z39944d18"/></clipPath>
  <clipPath id="z39944c19"><use href="#z39944d19"/></clipPath>
  <clipPath id="z39944c20"><use href="#z39944d20"/></clipPath>
</defs>
<path style="--d:1s;" pathLength="3333" clip-path="url(#z39944c1)" d="M 242 817 L 266 785 L 267 775 L 254 749 L 182 642 L 115 576"/>
<path style="--d:2s;" pathLength="3333" clip-path="url(#z39944c2)" d="M 225 662 L 310 680 L 345 668 L 336 645 L 272 546 L 252 534"/>
<path style="--d:3s;" pathLength="3333" clip-path="url(#z39944c3)" d="M 101 508 L 127 485 L 168 265"/>
<path style="--d:4s;" pathLength="3333" clip-path="url(#z39944c4)" d="M 157 481 L 180 497 L 320 529 L 369 526 L 390 509 L 395 501 L 351 303 L 354 289"/>
<path style="--d:5s;" pathLength="3333" clip-path="url(#z39944c5)" d="M 204 393 L 301 419 L 329 416"/>
<path style="--d:6s;" pathLength="3333" clip-path="url(#z39944c6)" d="M 233 487 L 254 473 L 258 455 L 256 333 L 242 318"/>
<path style="--d:7s;" pathLength="3333" clip-path="url(#z39944c7)" d="M 185 280 L 204 291 L 279 303 L 322 318"/>
<path style="--d:8s;" pathLength="3333" clip-path="url(#z39944c8)" d="M 113 225 L 99 107 L 107 68"/>
<path style="--d:9s;" pathLength="3333" clip-path="url(#z39944c9)" d="M 191 210 L 225 134"/>
<path style="--d:10s;" pathLength="3333" clip-path="url(#z39944c10)" d="M 274 224 L 307 165"/>
<path style="--d:11s;" pathLength="3333" clip-path="url(#z39944c11)" d="M 342 246 L 389 202 L 401 173"/>
<path style="--d:12s;" pathLength="3333" clip-path="url(#z39944c12)" d="M 408 634 L 441 626 L 503 631 L 831 688 L 894 681"/>
<path style="--d:13s;" pathLength="3333" clip-path="url(#z39944c13)" d="M 559 782 L 586 768 L 597 746 L 607 682 L 614 513"/>
<path style="--d:14s;" pathLength="3333" clip-path="url(#z39944c14)" d="M 713 828 L 739 803 L 746 788 L 720 608 L 703 586"/>
<path style="--d:15s;" pathLength="3333" clip-path="url(#z39944c15)" d="M 629 538 L 695 560 L 737 564 L 757 557"/>
<path style="--d:16s;" pathLength="3333" clip-path="url(#z39944c16)" d="M 466 730 L 497 704 L 504 680 L 507 462 L 513 449 L 551 448 L 668 473 L 787 484 L 837 471"/>
<path style="--d:17s;" pathLength="3333" clip-path="url(#z39944c17)" d="M 436 315 L 486 308 L 826 350 L 874 346 L 905 335"/>
<path style="--d:18s;" pathLength="3333" clip-path="url(#z39944c18)" d="M 597 431 L 609 425 L 627 394 L 625 147 L 617 30 L 629 -39"/>
<path style="--d:19s;" pathLength="3333" clip-path="url(#z39944c19)" d="M 597 301 L 590 294 L 584 258 L 530 183 L 459 115 L 364 56"/>
<path style="--d:20s;" pathLength="3333" clip-path="url(#z39944c20)" d="M 653 307 L 709 231 L 819 120 L 849 107 L 956 88"/>
</svg>