<svg id="z39581" class="acjk" viewBox="0 0 1024 1024" xmlns="http://www.w3.org/2000/svg">
<style>
<![CDATA[
@keyframes zk {
	to {
		stroke-dashoffset:0;
	}
}
svg.acjk path[clip-path] {
	--t:0.8s;
	animation:zk var(--t) linear forwards var(--d);
	stroke-dasharray:3337;
	stroke-dashoffset:3339;
	stroke-width:128;
	stroke-linecap:round;
	stroke-linejoin:round;
	fill:none;
	stroke:#000;
}
svg.acjk path[id] {fill:#ccc;}
]]>
</style>
  <path id="z39581d1" d="M 354 411 Q 373 447 387 604 Q 397 656 429 690 Q 445 709 428 722 Q 409 737 357 757 Q 336 764 292 745 Q 274 745 211 720 Q 175 708 153 703 Q 137 702 134 695 Q 131 691 149 680 Q 183 665 204 675 Q 237 688 313 706 Q 326 709 332 707 Q 348 700 344 652 Q 328 474 315 438 Q 311 420 321 398 C 331 370 343 383 354 411 Z"/>
  <path id="z39581d2" d="M 321 398 Q 318 399 317 398 Q 287 392 227 375 Q 208 374 208 390 Q 215 525 232 562 Q 239 578 232 590 Q 216 609 191 620 Q 173 627 164 620 Q 157 616 165 603 Q 171 588 166 471 Q 151 372 149 363 Q 143 344 158 329 Q 176 314 199 327 Q 232 352 340 370 Q 368 371 379 361 Q 389 351 377 313 Q 368 252 355 189 Q 346 140 323 109 Q 314 99 293 102 Q 262 112 233 121 Q 220 125 219 119 Q 218 115 226 106 Q 277 54 294 20 Q 301 1 319 9 Q 379 39 393 103 Q 414 190 429 286 Q 436 320 454 349 Q 466 364 455 375 Q 439 394 405 414 Q 384 426 354 411 L 321 398 Z"/>
  <path id="z39581d3" d="M 50 203 Q 37 200 36 190 Q 35 177 45 170 Q 69 155 103 140 Q 113 137 125 147 Q 147 171 275 244 Q 293 254 305 267 Q 318 276 317 284 Q 311 290 300 286 Q 90 205 50 203 Z"/>
  <path id="z39581d4" d="M 506 628 Q 539 647 561 660 Q 613 697 635 705 Q 653 712 645 728 Q 635 743 613 756 Q 594 768 583 766 Q 573 765 575 754 Q 578 733 533 682 Q 514 663 495 641 C 475 618 480 613 506 628 Z"/>
  <path id="z39581d5" d="M 597 539 Q 515 491 509 492 Q 502 496 502 513 Q 503 592 507 613 Q 508 622 506 628 L 495 641 Q 476 660 460 662 Q 450 663 444 660 Q 437 653 446 642 Q 474 594 464 505 Q 461 478 450 462 Q 440 443 447 425 Q 457 398 473 388 Q 483 382 492 399 Q 517 433 606 522 C 627 543 623 554 597 539 Z"/>
  <path id="z39581d6" d="M 606 522 Q 618 494 634 488 Q 640 487 646 493 Q 652 500 652 521 Q 653 537 634 558 Q 588 598 576 598 Q 572 597 571 589 Q 571 582 597 539 L 606 522 Z"/>
  <path id="z39581d7" d="M 728 649 Q 780 667 825 674 Q 838 675 841 672 Q 850 659 844 625 Q 834 531 810 490 Q 795 465 772 468 Q 750 475 729 484 Q 708 491 722 471 Q 761 431 778 402 Q 794 383 811 398 Q 860 437 885 551 Q 894 647 915 672 Q 925 684 920 692 Q 913 702 867 721 Q 849 728 833 716 Q 817 706 756 689 Q 695 671 641 665 Q 626 664 624 656 Q 623 649 644 640 Q 665 627 682 635 Q 689 638 700 640 L 728 649 Z"/>
  <path id="z39581d8" d="M 700 640 Q 715 591 666 495 Q 644 452 612 407 Q 608 403 608 398 Q 608 394 613 395 Q 658 407 742 566 Q 742 572 760 604 Q 764 613 757 623 Q 745 641 728 649 C 702 664 693 669 700 640 Z"/>
  <path id="z39581d9" d="M 500 326 Q 488 330 473 333 Q 460 337 457 332 Q 450 326 458 310 Q 489 228 503 99 Q 504 59 524 32 Q 540 10 547 25 Q 551 38 553 58 L 552 89 Q 528 251 526 289 C 524 319 524 319 500 326 Z"/>
  <path id="z39581d10" d="M 759 75 Q 768 53 786 11 Q 793 -5 803 -4 Q 816 -3 826 21 Q 853 73 874 238 Q 880 281 901 308 Q 917 324 906 337 Q 887 356 845 377 Q 829 387 799 376 Q 651 327 500 326 C 470 325 496 284 526 289 Q 530 289 537 290 Q 582 300 639 309 L 676 316 Q 722 325 779 333 Q 804 337 816 325 Q 837 289 799 114 Q 798 98 791 96 Q 787 95 776 100 C 749 99 749 99 759 75 Z"/>
  <path id="z39581d11" d="M 694 195 Q 731 202 766 205 Q 788 209 781 221 Q 771 234 747 240 Q 728 243 697 236 L 649 224 Q 606 214 567 204 Q 551 201 570 186 Q 577 182 649 189 L 694 195 Z"/>
  <path id="z39581d12" d="M 689 109 Q 690 155 694 195 L 697 236 Q 698 246 699 254 Q 699 264 700 272 Q 707 288 699 296 Q 687 308 676 316 C 652 334 632 338 639 309 Q 645 287 649 224 L 649 189 Q 649 155 649 102 C 649 72 688 79 689 109 Z"/>
  <path id="z39581d13" d="M 553 58 Q 559 57 567 58 Q 630 70 759 75 C 789 76 800 81 776 100 Q 769 106 766 107 L 760 112 Q 741 125 689 109 L 649 102 Q 597 96 552 89 C 522 84 523 60 553 58 Z"/>
<defs>
  <clipPath id="z39581c1"><use href="#z39581d1"/></clipPath>
  <clipPath id="z39581c2"><use href="#z39581d2"/></clipPath>
  <clipPath id="z39581c3"><use href="#z39581d3"/></clipPath>
  <clipPath id="z39581c4"><use href="#z39581d4"/></clipPath>
  <clipPath id="z39581c5"><use href="#z39581d5"/></clipPath>
  <clipPath id="z39581c6"><use href="#z39581d6"/></clipPath>
  <clipPath id="z39581c7"><use href="#z39581d7"/></clipPath>
  <clipPath id="z39581c8"><use href="#z39581d8"/></clipPath>
  <clipPath id="z39581c9"><use href="#z39581d9"/></clipPath>
  <clipPath id="z39581c10"><use href="#z39581d10"/></clipPath>
  <clipPath id="z39581c11"><use href="#z39581d11"/></clipPath>
  <clipPath id="z39581c12"><use href="#z39581d12"/></clipPath>
  <clipPath id="z39581c13"><use href="#z39581d13"/></clipPath>
</defs>
<path style="--d:1s;" pathLength="3333" clip-path="url(#z39581c1)" d="M 140 694 L 186 691 L 335 733 L 356 726 L 383 700 L 363 613 L 347 468 L 337 429 L 324 407"/>
<path style="--d:2s;" pathLength="3333" clip-path="url(#z39581c2)" d="M 172 612 L 188 598 L 201 570 L 180 391 L 184 359 L 226 358 L 370 392 L 398 385 L 419 360 L 374 146 L 348 83 L 320 60 L 227 115"/>
<path style="--d:3s;" pathLength="3333" clip-path="url(#z39581c3)" d="M 51 188 L 110 180 L 311 281"/>
<path style="--d:4s;" pathLength="3333" clip-path="url(#z39581c4)" d="M 588 754 L 602 725 L 559 681 L 510 641 L 504 643"/>
<path style="--d:5s;" pathLength="3333" clip-path="url(#z39581c5)" d="M 450 653 L 468 640 L 483 613 L 483 493 L 491 458 L 528 474 L 589 521 L 588 529"/>
<path style="--d:6s;" pathLength="3333" clip-path="url(#z39581c6)" d="M 578 591 L 614 552 L 628 529 L 635 502"/>
<path style="--d:7s;" pathLength="3333" clip-path="url(#z39581c7)" d="M 631 655 L 672 650 L 847 696 L 866 690 L 875 679 L 859 547 L 842 495 L 822 457 L 799 435 L 733 473"/>
<path style="--d:8s;" pathLength="3333" clip-path="url(#z39581c8)" d="M 709 637 L 725 625 L 732 607 L 719 564 L 661 457 L 639 425 L 613 401"/>
<path style="--d:9s;" pathLength="3333" clip-path="url(#z39581c9)" d="M 464 324 L 486 305 L 498 280 L 536 32"/>
<path style="--d:10s;" pathLength="3333" clip-path="url(#z39581c10)" d="M 508 322 L 534 308 L 629 320 L 814 356 L 851 335 L 861 321 L 831 131 L 820 86 L 803 62 L 803 10"/>
<path style="--d:11s;" pathLength="3333" clip-path="url(#z39581c11)" d="M 568 195 L 721 220 L 749 222 L 770 216"/>
<path style="--d:12s;" pathLength="3333" clip-path="url(#z39581c12)" d="M 646 306 L 673 282 L 670 132 L 654 111"/>
<path style="--d:13s;" pathLength="3333" clip-path="url(#z39581c13)" d="M 560 66 L 569 75 L 587 78 L 767 97"/>
</svg>