<svg id="z30651" class="acjk" viewBox="0 0 1024 1024" xmlns="http://www.w3.org/2000/svg">
<style>
<![CDATA[
@keyframes zk {
	to {
		stroke-dashoffset:0;
	}
}
svg.acjk path[clip-path] {
	--t:0.8s;
	animation:zk var(--t) linear forwards var(--d);
	stroke-dasharray:3337;
	stroke-dashoffset:3339;
	stroke-width:128;
	stroke-linecap:round;
	stroke-linejoin:round;
	fill:none;
	stroke:#000;
}
svg.acjk path[id] {fill:#ccc;}
]]>
</style>
  <path id="z30651d1" d="M 173 700 Q 158 715 139 721 Q 130 725 120 722 Q 113 718 118 706 Q 139 627 140 522 Q 136 360 116 284 Q 103 230 135 193 Q 144 181 154 192 Q 166 207 166 232 L 169 262 Q 172 304 172 398 L 173 425 Q 174 480 176 523 L 177 551 Q 178 653 181 664 Q 182 671 182 677 C 183 691 183 691 173 700 Z"/>
  <path id="z30651d2" d="M 268 246 Q 277 231 287 216 Q 302 194 309 196 Q 321 197 334 231 Q 343 255 343 325 Q 324 631 350 684 Q 360 700 352 710 Q 345 720 299 734 Q 277 743 261 733 Q 213 711 173 700 C 144 691 152 674 182 677 Q 200 676 252 692 Q 273 698 280 691 Q 293 678 293 626 Q 294 412 285 295 Q 288 273 269 275 Q 262 276 259 274 C 251 273 252 272 268 246 Z"/>
  <path id="z30651d3" d="M 176 523 Q 179 522 186 523 Q 226 532 255 537 Q 274 543 266 554 Q 254 564 232 566 Q 211 566 177 551 C 149 539 146 527 176 523 Z"/>
  <path id="z30651d4" d="M 172 398 Q 175 398 180 398 Q 225 408 258 413 Q 279 419 270 429 Q 260 441 236 443 Q 194 446 173 425 C 151 404 144 398 172 398 Z"/>
  <path id="z30651d5" d="M 166 232 Q 199 241 268 246 C 286 247 280 253 259 274 Q 258 275 256 277 Q 247 283 169 262 C 140 254 137 224 166 232 Z"/>
  <path id="z30651d6" d="M 588 754 Q 618 790 641 803 Q 650 810 648 821 Q 647 831 628 853 Q 609 871 595 874 Q 580 875 583 856 Q 590 829 529 754 Q 501 720 461 683 Q 452 676 449 672 Q 445 663 457 664 Q 482 664 579 745 L 588 754 Z"/>
  <path id="z30651d7" d="M 661 641 Q 736 717 775 737 Q 791 746 781 758 Q 769 770 737 789 Q 728 792 643 766 Q 601 757 588 754 C 573 751 573 751 579 745 Q 578 745 579 744 Q 588 734 608 732 Q 618 731 681 744 Q 688 745 691 744 Q 694 741 690 733 Q 659 679 629 634 C 612 609 640 620 661 641 Z"/>
  <path id="z30651d8" d="M 479 586 Q 506 580 593 593 Q 845 638 864 645 Q 867 646 870 648 Q 877 655 874 662 Q 868 672 844 679 Q 819 686 792 676 Q 729 657 661 641 L 629 634 Q 553 622 469 615 Q 468 615 468 614 C 438 609 449 590 479 586 Z"/>
  <path id="z30651d9" d="M 468 614 Q 423 650 402 641 Q 390 634 396 621 Q 412 599 413 543 Q 395 327 363 233 Q 360 226 358 217 Q 321 118 242 -3 Q 238 -9 236 -15 Q 233 -25 243 -23 Q 274 -17 354 106 Q 367 128 380 154 Q 446 302 461 478 Q 471 572 479 586 C 484 602 484 602 468 614 Z"/>
  <path id="z30651d10" d="M 564 570 Q 568 563 565 555 Q 532 509 498 461 Q 495 455 503 455 Q 530 455 593 518 Q 602 527 609 531 Q 616 537 614 545 Q 613 552 598 569 Q 583 582 573 583 Q 561 584 564 570 Z"/>
  <path id="z30651d11" d="M 733 545 Q 755 526 778 503 Q 788 493 801 494 Q 810 494 813 505 Q 817 515 810 539 Q 804 561 729 582 Q 716 585 712 583 Q 708 579 709 569 Q 712 562 733 545 Z"/>
  <path id="z30651d12" d="M 697 442 Q 701 454 698 475 Q 691 496 637 512 Q 625 516 620 514 Q 616 513 616 502 Q 643 469 670 436 C 689 413 689 413 697 442 Z"/>
  <path id="z30651d13" d="M 670 436 Q 669 437 667 436 Q 585 420 489 403 Q 473 400 486 387 Q 513 365 543 373 Q 688 421 874 420 L 876 420 Q 892 421 896 428 Q 900 438 886 448 Q 838 481 778 461 Q 742 454 697 442 L 670 436 Z"/>
  <path id="z30651d14" d="M 555 324 Q 539 321 558 306 Q 568 299 589 302 Q 689 318 763 329 Q 785 333 777 345 Q 767 358 743 363 Q 733 366 555 324 Z"/>
  <path id="z30651d15" d="M 563 240 Q 547 237 566 222 Q 576 215 597 218 Q 697 234 771 245 Q 793 249 785 261 Q 775 274 751 279 Q 741 282 563 240 Z"/>
  <path id="z30651d16" d="M 543 160 Q 533 164 509 168 Q 499 172 495 166 Q 489 160 497 145 Q 521 99 536 21 Q 539 -1 553 -17 Q 569 -38 574 -23 Q 578 -13 578 3 L 574 35 Q 564 105 561 130 C 558 155 558 155 543 160 Z"/>
  <path id="z30651d17" d="M 793 62 Q 814 119 840 137 Q 856 155 842 172 Q 773 226 714 197 Q 636 175 543 160 C 513 155 531 125 561 130 Q 562 130 725 159 Q 743 163 750 155 Q 762 143 744 66 C 737 37 782 34 793 62 Z"/>
  <path id="z30651d18" d="M 578 3 Q 588 0 603 3 Q 667 16 807 26 Q 817 27 819 35 Q 819 44 793 62 C 777 73 773 72 744 66 Q 650 45 574 35 C 544 31 548 8 578 3 Z"/>
<defs>
  <clipPath id="z30651c1"><use href="#z30651d1"/></clipPath>
  <clipPath id="z30651c2"><use href="#z30651d2"/></clipPath>
  <clipPath id="z30651c3"><use href="#z30651d3"/></clipPath>
  <clipPath id="z30651c4"><use href="#z30651d4"/></clipPath>
  <clipPath id="z30651c5"><use href="#z30651d5"/></clipPath>
  <clipPath id="z30651c6"><use href="#z30651d6"/></clipPath>
  <clipPath id="z30651c7"><use href="#z30651d7"/></clipPath>
  <clipPath id="z30651c8"><use href="#z30651d8"/></clipPath>
  <clipPath id="z30651c9"><use href="#z30651d9"/></clipPath>
  <clipPath id="z30651c10"><use href="#z30651d10"/></clipPath>
  <clipPath id="z30651c11"><use href="#z30651d11"/></clipPath>
  <clipPath id="z30651c12"><use href="#z30651d12"/></clipPath>
  <clipPath id="z30651c13"><use href="#z30651d13"/></clipPath>
  <clipPath id="z30651c14"><use href="#z30651d14"/></clipPath>
  <clipPath id="z30651c15"><use href="#z30651d15"/></clipPath>
  <clipPath id="z30651c16"><use href="#z30651d16"/></clipPath>
  <clipPath id="z30651c17"><use href="#z30651d17"/></clipPath>
  <clipPath id="z30651c18"><use href="#z30651d18"/></clipPath>
</defs>
<path style="--d:1s;" pathLength="3333" clip-path="url(#z30651c1)" d="M 126 714 L 151 685 L 159 586 L 154 388 L 140 257 L 145 197"/>
<path style="--d:2s;" pathLength="3333" clip-path="url(#z30651c2)" d="M 181 697 L 194 691 L 279 716 L 316 695 L 316 314 L 313 277 L 304 252 L 308 207"/>
<path style="--d:3s;" pathLength="3333" clip-path="url(#z30651c3)" d="M 181 530 L 205 544 L 257 548"/>
<path style="--d:4s;" pathLength="3333" clip-path="url(#z30651c4)" d="M 176 405 L 189 417 L 215 425 L 261 423"/>
<path style="--d:5s;" pathLength="3333" clip-path="url(#z30651c5)" d="M 170 239 L 183 253 L 246 261 L 258 251"/>
<path style="--d:6s;" pathLength="3333" clip-path="url(#z30651c6)" d="M 594 862 L 611 822 L 588 790 L 526 722 L 455 670"/>
<path style="--d:7s;" pathLength="3333" clip-path="url(#z30651c7)" d="M 588 745 L 646 750 L 698 763 L 728 751 L 673 672 L 653 650 L 633 639"/>
<path style="--d:8s;" pathLength="3333" clip-path="url(#z30651c8)" d="M 475 608 L 490 601 L 514 601 L 604 610 L 815 658 L 863 658"/>
<path style="--d:9s;" pathLength="3333" clip-path="url(#z30651c9)" d="M 408 628 L 441 595 L 443 572 L 431 440 L 403 285 L 375 198 L 332 105 L 276 21 L 244 -15"/>
<path style="--d:10s;" pathLength="3333" clip-path="url(#z30651c10)" d="M 575 572 L 587 545 L 556 507 L 506 463"/>
<path style="--d:11s;" pathLength="3333" clip-path="url(#z30651c11)" d="M 716 575 L 780 536 L 801 506"/>
<path style="--d:12s;" pathLength="3333" clip-path="url(#z30651c12)" d="M 624 506 L 667 476 L 688 448"/>
<path style="--d:13s;" pathLength="3333" clip-path="url(#z30651c13)" d="M 488 395 L 523 389 L 807 444 L 844 443 L 887 433"/>
<path style="--d:14s;" pathLength="3333" clip-path="url(#z30651c14)" d="M 556 315 L 735 344 L 767 339"/>
<path style="--d:15s;" pathLength="3333" clip-path="url(#z30651c15)" d="M 564 231 L 743 260 L 775 255"/>
<path style="--d:16s;" pathLength="3333" clip-path="url(#z30651c16)" d="M 503 159 L 524 142 L 536 122 L 564 -18"/>
<path style="--d:17s;" pathLength="3333" clip-path="url(#z30651c17)" d="M 552 159 L 576 149 L 739 183 L 770 177 L 795 151 L 776 89 L 751 77"/>
<path style="--d:18s;" pathLength="3333" clip-path="url(#z30651c18)" d="M 582 31 L 591 21 L 605 21 L 748 44 L 785 44 L 809 35"/>
</svg>