<svg id="z35905" class="acjk" viewBox="0 0 1024 1024" xmlns="http://www.w3.org/2000/svg">
<style>
<![CDATA[
@keyframes zk {
	to {
		stroke-dashoffset:0;
	}
}
svg.acjk path[clip-path] {
	--t:0.8s;
	animation:zk var(--t) linear forwards var(--d);
	stroke-dasharray:3337;
	stroke-dashoffset:3339;
	stroke-width:128;
	stroke-linecap:round;
	stroke-linejoin:round;
	fill:none;
	stroke:#000;
}
svg.acjk path[id] {fill:#ccc;}
]]>
</style>
  <path id="z35905d1" d="M 295 796 Q 323 774 352 749 Q 365 737 379 739 Q 389 740 393 752 Q 397 765 387 793 Q 375 823 288 839 Q 273 842 268 839 Q 264 835 265 823 Q 269 813 295 796 Z"/>
  <path id="z35905d2" d="M 175 661 Q 168 685 154 693 Q 138 703 138 684 Q 142 660 100 597 Q 73 570 99 522 Q 112 503 127 524 Q 140 546 151 580 Q 161 614 170 636 C 177 654 177 654 175 661 Z"/>
  <path id="z35905d3" d="M 170 636 Q 189 626 210 632 Q 306 669 403 680 Q 410 681 415 681 Q 431 672 429 665 Q 429 662 412 606 Q 408 596 413 593 Q 419 590 430 601 Q 469 632 502 645 Q 530 657 528 663 Q 527 670 469 708 Q 451 721 354 698 Q 333 698 175 661 C 146 654 142 647 170 636 Z"/>
  <path id="z35905d4" d="M 337 496 Q 430 520 432 522 Q 439 529 435 537 Q 428 547 401 554 Q 374 558 347 547 Q 343 546 341 544 L 294 529 Q 284 528 278 525 Q 238 515 191 510 Q 158 504 182 489 Q 219 471 282 485 Q 288 486 296 487 L 337 496 Z"/>
  <path id="z35905d5" d="M 332 409 Q 360 416 392 422 Q 423 429 427 433 Q 434 440 430 447 Q 424 456 401 462 Q 365 468 334 450 L 296 439 Q 289 439 281 436 Q 239 426 191 422 Q 161 418 182 403 Q 215 385 272 398 Q 282 401 296 401 L 332 409 Z"/>
  <path id="z35905d6" d="M 327 313 Q 382 326 446 336 Q 462 339 462 346 Q 463 358 445 366 Q 417 378 329 353 L 293 344 Q 146 311 76 301 Q 63 300 61 292 Q 58 282 73 271 Q 112 247 149 260 Q 273 305 291 304 L 327 313 Z"/>
  <path id="z35905d7" d="M 329 353 Q 330 381 332 409 L 334 450 Q 335 474 337 496 L 341 544 Q 342 569 347 583 Q 354 599 344 608 Q 331 620 309 631 Q 291 638 272 631 Q 262 624 274 611 Q 293 566 294 529 L 296 487 Q 296 465 296 439 L 296 401 Q 295 371 293 344 L 291 304 Q 291 279 298 258 Q 302 248 311 254 Q 323 266 327 313 L 329 353 Z"/>
  <path id="z35905d8" d="M 207 216 Q 197 220 170 223 Q 160 226 156 221 Q 152 215 159 201 Q 184 155 203 76 Q 207 54 221 38 Q 237 19 242 33 Q 245 43 244 60 L 239 91 Q 223 167 221 190 C 219 212 219 212 207 216 Z"/>
  <path id="z35905d9" d="M 396 115 Q 412 175 431 194 Q 453 218 431 231 Q 412 241 387 259 Q 369 269 352 259 Q 310 234 207 216 C 177 211 192 183 221 190 Q 269 202 323 212 Q 351 219 357 207 Q 364 203 358 174 Q 354 149 348 118 C 342 89 388 86 396 115 Z"/>
  <path id="z35905d10" d="M 244 60 Q 250 59 260 62 Q 306 72 409 83 Q 419 84 420 93 Q 420 100 396 115 C 378 127 377 126 348 118 Q 287 100 239 91 C 210 85 214 60 244 60 Z"/>
  <path id="z35905d11" d="M 551 687 Q 563 665 521 587 Q 502 553 473 512 Q 466 505 463 499 Q 462 490 472 493 Q 508 499 596 617 Q 608 636 618 644 Q 625 653 622 664 Q 618 674 596 692 Q 575 705 560 706 Q 545 705 551 687 Z"/>
  <path id="z35905d12" d="M 736 672 Q 770 635 806 590 Q 818 575 834 573 Q 846 572 853 585 Q 860 600 855 632 Q 851 674 739 723 Q 723 729 716 727 Q 710 724 710 710 Q 711 698 736 672 Z"/>
  <path id="z35905d13" d="M 665 488 Q 675 507 684 517 Q 691 530 688 539 Q 684 552 656 554 Q 628 558 616 554 Q 609 551 609 538 Q 603 447 439 257 Q 421 238 446 247 Q 530 271 639 444 Q 639 445 653 468 L 665 488 Z"/>
  <path id="z35905d14" d="M 653 468 Q 719 384 792 305 Q 811 284 846 282 Q 907 278 972 288 Q 988 289 990 293 Q 991 299 979 305 Q 805 377 762 408 Q 729 432 665 488 C 642 508 634 492 653 468 Z"/>
  <path id="z35905d15" d="M 546 247 Q 533 253 509 257 Q 496 261 493 256 Q 486 250 494 234 Q 519 182 531 95 Q 534 70 548 52 Q 564 30 571 45 Q 575 55 575 70 L 573 104 Q 563 194 562 218 C 561 241 561 241 546 247 Z"/>
  <path id="z35905d16" d="M 771 124 Q 792 196 822 219 Q 838 237 823 254 Q 757 308 696 282 Q 644 264 546 247 C 516 242 532 215 562 218 Q 574 218 708 243 Q 723 246 728 240 Q 738 231 736 213 Q 729 168 721 130 C 715 101 762 95 771 124 Z"/>
  <path id="z35905d17" d="M 575 70 Q 584 69 595 71 Q 655 83 783 90 Q 793 91 795 99 Q 795 108 771 124 L 721 130 Q 720 130 719 130 Q 637 112 573 104 C 543 100 545 71 575 70 Z"/>
<defs>
  <clipPath id="z35905c1"><use href="#z35905d1"/></clipPath>
  <clipPath id="z35905c2"><use href="#z35905d2"/></clipPath>
  <clipPath id="z35905c3"><use href="#z35905d3"/></clipPath>
  <clipPath id="z35905c4"><use href="#z35905d4"/></clipPath>
  <clipPath id="z35905c5"><use href="#z35905d5"/></clipPath>
  <clipPath id="z35905c6"><use href="#z35905d6"/></clipPath>
  <clipPath id="z35905c7"><use href="#z35905d7"/></clipPath>
  <clipPath id="z35905c8"><use href="#z35905d8"/></clipPath>
  <clipPath id="z35905c9"><use href="#z35905d9"/></clipPath>
  <clipPath id="z35905c10"><use href="#z35905d10"/></clipPath>
  <clipPath id="z35905c11"><use href="#z35905d11"/></clipPath>
  <clipPath id="z35905c12"><use href="#z35905d12"/></clipPath>
  <clipPath id="z35905c13"><use href="#z35905d13"/></clipPath>
  <clipPath id="z35905c14"><use href="#z35905d14"/></clipPath>
  <clipPath id="z35905c15"><use href="#z35905d15"/></clipPath>
  <clipPath id="z35905c16"><use href="#z35905d16"/></clipPath>
  <clipPath id="z35905c17"><use href="#z35905d17"/></clipPath>
</defs>
<path style="--d:1s;" pathLength="3333" clip-path="url(#z35905c1)" d="M 273 833 L 344 794 L 377 755"/>
<path style="--d:2s;" pathLength="3333" clip-path="url(#z35905c2)" d="M 146 688 L 155 658 L 116 570 L 113 528"/>
<path style="--d:3s;" pathLength="3333" clip-path="url(#z35905c3)" d="M 179 641 L 293 675 L 368 691 L 425 695 L 449 687 L 465 668 L 416 600"/>
<path style="--d:4s;" pathLength="3333" clip-path="url(#z35905c4)" d="M 184 501 L 240 497 L 382 532 L 427 531"/>
<path style="--d:5s;" pathLength="3333" clip-path="url(#z35905c5)" d="M 184 414 L 243 410 L 370 441 L 419 442"/>
<path style="--d:6s;" pathLength="3333" clip-path="url(#z35905c6)" d="M 72 288 L 125 282 L 364 343 L 430 352 L 452 349"/>
<path style="--d:7s;" pathLength="3333" clip-path="url(#z35905c7)" d="M 279 622 L 304 606 L 316 590 L 307 263"/>
<path style="--d:8s;" pathLength="3333" clip-path="url(#z35905c8)" d="M 164 216 L 190 195 L 196 183 L 232 38"/>
<path style="--d:9s;" pathLength="3333" clip-path="url(#z35905c9)" d="M 218 213 L 228 206 L 359 236 L 376 231 L 396 209 L 377 141 L 354 125"/>
<path style="--d:10s;" pathLength="3333" clip-path="url(#z35905c10)" d="M 248 69 L 258 78 L 353 98 L 389 99 L 411 92"/>
<path style="--d:11s;" pathLength="3333" clip-path="url(#z35905c11)" d="M 560 694 L 578 675 L 583 653 L 532 565 L 470 499"/>
<path style="--d:12s;" pathLength="3333" clip-path="url(#z35905c12)" d="M 721 719 L 813 638 L 835 592"/>
<path style="--d:13s;" pathLength="3333" clip-path="url(#z35905c13)" d="M 672 533 L 642 518 L 600 430 L 536 340 L 481 281 L 448 256"/>
<path style="--d:14s;" pathLength="3333" clip-path="url(#z35905c14)" d="M 670 478 L 668 468 L 709 425 L 828 327 L 884 311 L 985 295"/>
<path style="--d:15s;" pathLength="3333" clip-path="url(#z35905c15)" d="M 500 248 L 524 229 L 534 210 L 560 52"/>
<path style="--d:16s;" pathLength="3333" clip-path="url(#z35905c16)" d="M 556 246 L 571 235 L 721 267 L 752 259 L 777 234 L 752 153 L 728 135"/>
<path style="--d:17s;" pathLength="3333" clip-path="url(#z35905c17)" d="M 580 76 L 595 90 L 720 108 L 763 107 L 785 99"/>
</svg>