<svg id="z31296" class="acjk" viewBox="0 0 1024 1024" xmlns="http://www.w3.org/2000/svg">
<style>
<![CDATA[
@keyframes zk {
	to {
		stroke-dashoffset:0;
	}
}
svg.acjk path[clip-path] {
	--t:0.8s;
	animation:zk var(--t) linear forwards var(--d);
	stroke-dasharray:3337;
	stroke-dashoffset:3339;
	stroke-width:128;
	stroke-linecap:round;
	stroke-linejoin:round;
	fill:none;
	stroke:#000;
}
svg.acjk path[id] {fill:#ccc;}
]]>
</style>
  <path id="z31296d1" d="M 386 690 Q 485 714 496 721 Q 503 728 499 735 Q 492 744 469 749 Q 442 755 392 732 L 341 716 Q 212 692 210 690 Q 180 684 202 672 Q 235 656 304 671 Q 320 675 340 679 L 386 690 Z"/>
  <path id="z31296d2" d="M 378 638 Q 382 665 386 690 L 392 732 Q 398 787 412 819 Q 415 829 398 842 Q 368 861 347 865 Q 334 869 326 861 Q 319 855 325 842 Q 338 823 339 808 Q 340 765 341 716 L 340 679 Q 339 654 338 626 C 337 596 374 608 378 638 Z"/>
  <path id="z31296d3" d="M 338 626 Q 287 613 243 600 Q 227 596 246 583 Q 256 576 279 580 Q 382 599 459 613 Q 481 617 473 629 Q 463 642 439 646 Q 417 649 378 638 L 338 626 Z"/>
  <path id="z31296d4" d="M 193 514 Q 183 535 172 543 Q 156 555 154 533 Q 163 497 110 444 Q 94 422 117 378 Q 133 357 146 379 Q 159 400 170 430 Q 182 466 193 491 C 198 503 198 503 193 514 Z"/>
  <path id="z31296d5" d="M 193 491 Q 211 485 259 498 Q 286 510 424 537 Q 451 541 459 540 Q 469 536 468 529 Q 468 526 437 466 Q 430 456 435 452 Q 442 449 455 458 Q 500 489 537 499 Q 567 508 566 516 Q 565 523 510 564 Q 489 580 392 555 Q 388 555 253 527 Q 223 520 193 514 C 164 508 163 495 193 491 Z"/>
  <path id="z31296d6" d="M 244 447 Q 216 440 237 428 Q 262 415 326 429 Q 356 438 390 446 Q 406 450 409 453 Q 416 460 411 467 Q 404 476 381 480 Q 357 483 297 458 Q 273 452 244 447 Z"/>
  <path id="z31296d7" d="M 331 340 Q 330 341 332 341 Q 368 351 399 354 Q 412 354 415 359 Q 419 368 411 377 Q 366 413 342 414 Q 336 413 334 403 Q 328 370 181 321 Q 177 315 181 312 Q 188 309 302 332 C 319 335 319 335 331 340 Z"/>
  <path id="z31296d8" d="M 348 244 Q 402 257 470 266 Q 485 267 485 275 Q 486 287 470 294 Q 446 304 425 300 Q 385 290 350 281 L 308 272 Q 197 248 100 235 Q 88 234 86 226 Q 83 217 97 207 Q 136 183 169 194 Q 236 218 285 230 L 348 244 Z"/>
  <path id="z31296d9" d="M 305 176 Q 298 68 290 40 Q 281 12 308 -31 Q 317 -47 323 -50 Q 332 -51 336 -41 Q 346 -16 345 9 Q 342 189 348 244 L 350 281 Q 353 321 350 324 Q 340 334 331 340 C 307 358 294 361 302 332 Q 308 319 308 272 L 305 176 Z"/>
  <path id="z31296d10" d="M 285 230 Q 252 142 89 30 Q 74 20 88 18 Q 98 17 131 30 Q 170 43 206 71 Q 237 96 272 135 Q 291 157 305 176 C 355 242 297 259 285 230 Z"/>
  <path id="z31296d11" d="M 395 156 Q 422 132 450 104 Q 460 94 473 94 Q 480 94 485 105 Q 489 115 483 139 Q 479 158 451 172 Q 390 199 376 195 Q 372 191 373 182 Q 374 173 395 156 Z"/>
  <path id="z31296d12" d="M 625 724 Q 619 728 611 730 Q 596 737 587 733 Q 578 726 584 717 Q 611 690 596 555 Q 595 555 595 552 Q 583 498 563 457 Q 560 451 559 447 Q 558 438 565 441 Q 590 447 623 521 Q 647 590 648 676 Q 648 682 650 692 C 653 710 652 711 625 724 Z"/>
  <path id="z31296d13" d="M 650 692 Q 653 693 658 695 Q 733 723 738 723 Q 745 720 745 707 Q 741 658 735 617 Q 726 566 736 533 Q 743 511 762 499 Q 790 486 845 489 Q 899 493 925 509 Q 938 516 928 530 Q 912 546 894 554 Q 882 558 861 548 Q 800 512 781 544 Q 768 566 780 632 Q 784 672 823 713 Q 839 728 823 741 Q 801 760 775 772 Q 765 776 749 768 Q 703 744 625 724 C 596 716 622 681 650 692 Z"/>
  <path id="z31296d14" d="M 712 164 Q 746 222 769 314 Q 775 347 793 364 Q 808 379 790 393 Q 771 408 738 419 Q 717 425 697 414 Q 646 386 576 374 Q 551 371 541 365 Q 532 358 550 350 Q 575 337 611 350 Q 651 360 690 371 Q 712 378 712 353 Q 712 283 673 199 L 652 161 Q 594 86 464 42 Q 449 38 459 30 Q 466 26 493 30 Q 574 40 622 67 Q 656 86 684 123 L 712 164 Z"/>
  <path id="z31296d15" d="M 684 123 Q 724 75 789 17 Q 816 -4 891 9 Q 966 24 974 26 Q 981 33 970 41 Q 955 48 842 86 Q 779 107 712 164 L 673 199 Q 636 233 598 278 Q 580 299 550 304 Q 540 305 532 300 Q 528 294 536 287 Q 578 263 652 161 L 684 123 Z"/>
<defs>
  <clipPath id="z31296c1"><use href="#z31296d1"/></clipPath>
  <clipPath id="z31296c2"><use href="#z31296d2"/></clipPath>
  <clipPath id="z31296c3"><use href="#z31296d3"/></clipPath>
  <clipPath id="z31296c4"><use href="#z31296d4"/></clipPath>
  <clipPath id="z31296c5"><use href="#z31296d5"/></clipPath>
  <clipPath id="z31296c6"><use href="#z31296d6"/></clipPath>
  <clipPath id="z31296c7"><use href="#z31296d7"/></clipPath>
  <clipPath id="z31296c8"><use href="#z31296d8"/></clipPath>
  <clipPath id="z31296c9"><use href="#z31296d9"/></clipPath>
  <clipPath id="z31296c10"><use href="#z31296d10"/></clipPath>
  <clipPath id="z31296c11"><use href="#z31296d11"/></clipPath>
  <clipPath id="z31296c12"><use href="#z31296d12"/></clipPath>
  <clipPath id="z31296c13"><use href="#z31296d13"/></clipPath>
  <clipPath id="z31296c14"><use href="#z31296d14"/></clipPath>
  <clipPath id="z31296c15"><use href="#z31296d15"/></clipPath>
</defs>
<path style="--d:1s;" pathLength="3333" clip-path="url(#z31296c1)" d="M 203 682 L 274 683 L 344 697 L 441 727 L 489 730"/>
<path style="--d:2s;" pathLength="3333" clip-path="url(#z31296c2)" d="M 337 851 L 373 817 L 360 654 L 343 633"/>
<path style="--d:3s;" pathLength="3333" clip-path="url(#z31296c3)" d="M 244 591 L 432 628 L 463 623"/>
<path style="--d:4s;" pathLength="3333" clip-path="url(#z31296c4)" d="M 164 537 L 174 508 L 171 494 L 134 424 L 131 383"/>
<path style="--d:5s;" pathLength="3333" clip-path="url(#z31296c5)" d="M 198 497 L 269 520 L 464 555 L 494 541 L 503 525 L 439 459"/>
<path style="--d:6s;" pathLength="3333" clip-path="url(#z31296c6)" d="M 239 438 L 279 437 L 369 461 L 401 461"/>
<path style="--d:7s;" pathLength="3333" clip-path="url(#z31296c7)" d="M 407 364 L 353 377 L 285 343 L 207 321 L 194 325 L 183 317"/>
<path style="--d:8s;" pathLength="3333" clip-path="url(#z31296c8)" d="M 97 223 L 148 216 L 422 279 L 474 277"/>
<path style="--d:9s;" pathLength="3333" clip-path="url(#z31296c9)" d="M 310 330 L 326 317 L 331 293 L 316 29 L 326 -40"/>
<path style="--d:10s;" pathLength="3333" clip-path="url(#z31296c10)" d="M 303 228 L 294 220 L 285 184 L 220 108 L 167 65 L 92 24"/>
<path style="--d:11s;" pathLength="3333" clip-path="url(#z31296c11)" d="M 380 187 L 446 146 L 471 109"/>
<path style="--d:12s;" pathLength="3333" clip-path="url(#z31296c12)" d="M 592 724 L 611 710 L 623 685 L 624 620 L 605 517 L 566 448"/>
<path style="--d:13s;" pathLength="3333" clip-path="url(#z31296c13)" d="M 634 723 L 664 714 L 741 743 L 767 740 L 781 724 L 758 635 L 752 577 L 759 535 L 775 517 L 793 510 L 836 511 L 886 525 L 920 520"/>
<path style="--d:14s;" pathLength="3333" clip-path="url(#z31296c14)" d="M 548 359 L 598 361 L 713 394 L 727 392 L 748 368 L 719 240 L 692 180 L 661 132 L 615 91 L 573 67 L 464 35"/>
<path style="--d:15s;" pathLength="3333" clip-path="url(#z31296c15)" d="M 539 295 L 582 272 L 707 134 L 810 53 L 858 41 L 970 33"/>
</svg>