<svg id="z32506" class="acjk" viewBox="0 0 1024 1024" xmlns="http://www.w3.org/2000/svg">
<style>
<![CDATA[
@keyframes zk {
	to {
		stroke-dashoffset:0;
	}
}
svg.acjk path[clip-path] {
	--t:0.8s;
	animation:zk var(--t) linear forwards var(--d);
	stroke-dasharray:3337;
	stroke-dashoffset:3339;
	stroke-width:128;
	stroke-linecap:round;
	stroke-linejoin:round;
	fill:none;
	stroke:#000;
}
svg.acjk path[id] {fill:#ccc;}
]]>
</style>
  <path id="z32506d1" d="M 283 496 Q 240 496 205 496 Q 171 495 188 517 Q 248 623 306 701 Q 319 719 317 726 Q 314 741 274 770 Q 258 783 239 779 Q 229 776 235 761 Q 253 722 175 570 Q 159 536 123 503 Q 105 488 107 476 Q 111 457 126 440 Q 135 431 152 439 Q 185 460 268 471 C 298 475 313 496 283 496 Z"/>
  <path id="z32506d2" d="M 268 471 Q 166 327 147 317 Q 134 307 137 294 Q 138 281 165 262 Q 177 252 191 263 Q 242 306 339 343 Q 357 349 359 357 Q 362 367 342 363 Q 293 353 233 334 Q 206 324 223 346 Q 334 511 395 566 Q 407 576 400 586 Q 390 604 356 622 Q 340 631 331 628 Q 321 624 324 609 Q 327 573 283 496 L 268 471 Z"/>
  <path id="z32506d3" d="M 103 139 Q 90 136 90 125 Q 89 112 100 105 Q 125 93 160 79 Q 170 78 181 87 Q 200 109 325 194 Q 343 206 354 218 Q 366 228 365 237 Q 359 241 250 193 Q 121 142 103 139 Z"/>
  <path id="z32506d4" d="M 505 616 Q 551 706 561 715 Q 568 725 562 736 Q 558 746 532 763 Q 507 776 491 774 Q 476 770 485 753 Q 513 702 392 499 Q 383 490 378 476 Q 377 466 388 470 Q 391 470 423 501 L 440 521 Q 467 557 493 596 L 505 616 Z"/>
  <path id="z32506d5" d="M 572 467 Q 594 503 615 543 Q 636 586 651 599 Q 661 608 656 618 Q 652 628 604 646 Q 592 650 573 640 Q 552 628 505 616 C 476 608 463 599 493 596 Q 503 592 527 596 Q 572 609 575 604 Q 582 582 536 490 L 517 461 Q 447 361 356 287 Q 335 274 353 275 Q 429 278 551 436 L 572 467 Z"/>
  <path id="z32506d6" d="M 551 436 Q 644 352 762 293 Q 807 278 960 322 Q 970 326 973 335 Q 974 342 956 343 Q 904 350 847 354 Q 727 366 572 467 L 536 490 Q 532 494 525 497 Q 479 530 440 521 C 410 518 393 505 423 501 Q 427 500 432 499 Q 471 499 517 461 L 551 436 Z"/>
  <path id="z32506d7" d="M 752 602 Q 752 684 762 745 Q 765 758 753 767 Q 728 785 715 787 Q 705 791 692 783 Q 685 777 690 768 Q 703 747 704 728 Q 707 652 706 531 Q 707 417 720 402 Q 724 398 730 399 Q 742 405 748 453 Q 751 480 751 582 L 752 602 Z"/>
  <path id="z32506d8" d="M 751 582 Q 757 576 769 568 Q 818 534 873 493 Q 883 484 895 486 Q 902 487 905 496 Q 908 508 901 529 Q 894 556 852 575 Q 764 609 752 602 C 733 598 733 598 751 582 Z"/>
  <path id="z32506d9" d="M 496 243 Q 486 250 449 257 Q 436 261 433 256 Q 426 249 435 233 Q 463 170 477 68 Q 478 37 496 16 Q 514 -6 519 9 Q 525 25 523 52 L 518 90 Q 505 175 503 209 C 501 239 501 241 496 243 Z"/>
  <path id="z32506d10" d="M 752 122 Q 774 188 807 213 Q 825 231 810 249 Q 794 264 741 289 Q 723 298 701 289 Q 628 262 496 243 C 466 239 473 205 503 209 Q 516 210 530 214 Q 609 227 684 239 Q 703 243 711 235 Q 720 226 718 209 Q 709 163 699 123 C 692 94 742 94 752 122 Z"/>
  <path id="z32506d11" d="M 523 52 Q 533 51 545 53 Q 618 68 773 78 Q 786 79 787 89 Q 788 98 754 121 Q 753 122 752 122 L 699 123 Q 597 101 518 90 C 488 86 493 53 523 52 Z"/>
<defs>
  <clipPath id="z32506c1"><use href="#z32506d1"/></clipPath>
  <clipPath id="z32506c2"><use href="#z32506d2"/></clipPath>
  <clipPath id="z32506c3"><use href="#z32506d3"/></clipPath>
  <clipPath id="z32506c4"><use href="#z32506d4"/></clipPath>
  <clipPath id="z32506c5"><use href="#z32506d5"/></clipPath>
  <clipPath id="z32506c6"><use href="#z32506d6"/></clipPath>
  <clipPath id="z32506c7"><use href="#z32506d7"/></clipPath>
  <clipPath id="z32506c8"><use href="#z32506d8"/></clipPath>
  <clipPath id="z32506c9"><use href="#z32506d9"/></clipPath>
  <clipPath id="z32506c10"><use href="#z32506d10"/></clipPath>
  <clipPath id="z32506c11"><use href="#z32506d11"/></clipPath>
</defs>
<path style="--d:1s;" pathLength="3333" clip-path="url(#z32506c1)" d="M 243 769 L 253 762 L 275 722 L 158 503 L 153 481 L 218 478 L 262 483 L 275 493"/>
<path style="--d:2s;" pathLength="3333" clip-path="url(#z32506c2)" d="M 336 616 L 357 580 L 293 475 L 202 349 L 200 316 L 231 314 L 351 357"/>
<path style="--d:3s;" pathLength="3333" clip-path="url(#z32506c3)" d="M 104 125 L 160 119 L 363 233"/>
<path style="--d:4s;" pathLength="3333" clip-path="url(#z32506c4)" d="M 493 762 L 514 745 L 525 724 L 508 676 L 433 536 L 386 478"/>
<path style="--d:5s;" pathLength="3333" clip-path="url(#z32506c5)" d="M 498 600 L 589 623 L 610 606 L 577 522 L 528 438 L 448 346 L 403 308 L 357 280"/>
<path style="--d:6s;" pathLength="3333" clip-path="url(#z32506c6)" d="M 429 505 L 460 510 L 496 497 L 672 377 L 775 329 L 845 324 L 966 334"/>
<path style="--d:7s;" pathLength="3333" clip-path="url(#z32506c7)" d="M 703 774 L 732 745 L 727 408"/>
<path style="--d:8s;" pathLength="3333" clip-path="url(#z32506c8)" d="M 756 597 L 866 534 L 890 501"/>
<path style="--d:9s;" pathLength="3333" clip-path="url(#z32506c9)" d="M 440 249 L 472 220 L 508 15"/>
<path style="--d:10s;" pathLength="3333" clip-path="url(#z32506c10)" d="M 506 239 L 519 228 L 704 264 L 737 256 L 761 230 L 733 149 L 706 129"/>
<path style="--d:11s;" pathLength="3333" clip-path="url(#z32506c11)" d="M 528 59 L 540 73 L 696 98 L 752 99 L 777 89"/>
</svg>