<svg id="z39770" class="acjk" viewBox="0 0 1024 1024" xmlns="http://www.w3.org/2000/svg">
<style>
<![CDATA[
@keyframes zk {
	to {
		stroke-dashoffset:0;
	}
}
svg.acjk path[clip-path] {
	--t:0.8s;
	animation:zk var(--t) linear forwards var(--d);
	stroke-dasharray:3337;
	stroke-dashoffset:3339;
	stroke-width:128;
	stroke-linecap:round;
	stroke-linejoin:round;
	fill:none;
	stroke:#000;
}
svg.acjk path[id] {fill:#ccc;}
]]>
</style>
  <path id="z39770d1" d="M 482 740 Q 509 771 534 795 Q 547 807 534 825 Q 494 868 466 869 Q 453 868 453 852 Q 453 755 324 647 Q 320 646 271 605 Q 259 590 277 592 Q 296 592 324 607 Q 406 650 459 713 L 482 740 Z"/>
  <path id="z39770d2" d="M 528 560 Q 555 582 601 623 Q 658 675 711 702 Q 733 712 720 728 Q 707 744 666 773 Q 647 782 629 772 Q 617 768 519 747 Q 501 743 482 740 C 452 735 429 716 459 713 Q 490 707 588 720 Q 600 721 603 718 Q 607 712 598 701 Q 534 610 497 567 Q 490 560 485 552 C 467 528 505 541 528 560 Z"/>
  <path id="z39770d3" d="M 323 521 Q 307 527 285 528 Q 272 532 267 525 Q 260 518 271 500 Q 308 427 334 305 Q 338 268 361 245 Q 383 220 388 238 Q 389 242 390 247 L 391 276 Q 390 295 385 319 Q 357 449 350 487 C 345 514 345 514 323 521 Z"/>
  <path id="z39770d4" d="M 627 279 Q 646 246 664 236 Q 676 226 695 250 Q 716 280 762 446 Q 774 480 802 508 Q 818 521 805 538 Q 789 559 741 591 Q 720 603 661 586 Q 598 577 528 560 L 485 552 Q 463 549 442 544 Q 378 531 323 521 C 293 516 321 479 350 487 Q 402 503 477 519 L 525 529 Q 667 562 695 543 Q 711 528 705 504 Q 663 329 642 312 C 626 287 624 283 627 279 Z"/>
  <path id="z39770d5" d="M 540 404 Q 622 428 624 429 Q 631 436 627 443 Q 620 452 597 457 Q 558 461 542 446 L 486 428 Q 452 421 413 414 Q 385 408 406 396 Q 439 378 487 391 L 540 404 Z"/>
  <path id="z39770d6" d="M 536 304 Q 537 359 540 404 L 542 446 Q 549 506 543 514 Q 534 523 525 529 C 501 547 470 548 477 519 Q 483 501 486 428 L 487 391 Q 487 352 490 295 C 492 265 535 274 536 304 Z"/>
  <path id="z39770d7" d="M 390 247 Q 397 247 409 248 Q 530 267 627 279 C 657 283 669 299 642 312 Q 639 315 632 316 Q 602 322 536 304 L 490 295 Q 438 286 391 276 C 362 270 360 246 390 247 Z"/>
  <path id="z39770d8" d="M 143 186 Q 133 126 112 70 Q 100 24 130 -12 Q 146 -31 167 -9 Q 212 51 193 124 Q 189 166 172 194 Q 163 201 156 202 Q 146 198 143 186 Z"/>
  <path id="z39770d9" d="M 340 140 Q 367 83 399 60 Q 414 54 427 66 Q 436 78 437 96 Q 436 123 420 140 Q 384 176 344 184 Q 338 185 335 184 Q 328 184 328 171 Q 327 158 340 140 Z"/>
  <path id="z39770d10" d="M 541 157 Q 584 99 620 80 Q 636 76 647 89 Q 654 102 653 120 Q 641 172 559 196 L 558 197 Q 540 204 530 200 Q 523 199 525 186 Q 526 173 541 157 Z"/>
  <path id="z39770d11" d="M 746 179 Q 801 124 865 45 Q 883 20 901 13 Q 911 12 921 23 Q 937 38 924 92 Q 920 120 900 140 Q 881 158 832 180 Q 780 205 749 216 Q 739 223 736 208 Q 735 192 746 179 Z"/>
<defs>
  <clipPath id="z39770c1"><use href="#z39770d1"/></clipPath>
  <clipPath id="z39770c2"><use href="#z39770d2"/></clipPath>
  <clipPath id="z39770c3"><use href="#z39770d3"/></clipPath>
  <clipPath id="z39770c4"><use href="#z39770d4"/></clipPath>
  <clipPath id="z39770c5"><use href="#z39770d5"/></clipPath>
  <clipPath id="z39770c6"><use href="#z39770d6"/></clipPath>
  <clipPath id="z39770c7"><use href="#z39770d7"/></clipPath>
  <clipPath id="z39770c8"><use href="#z39770d8"/></clipPath>
  <clipPath id="z39770c9"><use href="#z39770d9"/></clipPath>
  <clipPath id="z39770c10"><use href="#z39770d10"/></clipPath>
  <clipPath id="z39770c11"><use href="#z39770d11"/></clipPath>
</defs>
<path style="--d:1s;" pathLength="3333" clip-path="url(#z39770c1)" d="M 467 855 L 490 809 L 435 724 L 350 643 L 281 602"/>
<path style="--d:2s;" pathLength="3333" clip-path="url(#z39770c2)" d="M 463 717 L 593 742 L 629 738 L 651 724 L 637 697 L 531 582 L 497 561"/>
<path style="--d:3s;" pathLength="3333" clip-path="url(#z39770c3)" d="M 276 517 L 306 495 L 319 474 L 375 245"/>
<path style="--d:4s;" pathLength="3333" clip-path="url(#z39770c4)" d="M 331 518 L 357 508 L 642 567 L 692 570 L 724 561 L 753 524 L 690 325 L 670 280 L 673 247"/>
<path style="--d:5s;" pathLength="3333" clip-path="url(#z39770c5)" d="M 407 406 L 462 404 L 548 425 L 564 434 L 599 440 L 620 437"/>
<path style="--d:6s;" pathLength="3333" clip-path="url(#z39770c6)" d="M 484 517 L 514 493 L 513 324 L 496 303"/>
<path style="--d:7s;" pathLength="3333" clip-path="url(#z39770c7)" d="M 394 254 L 428 268 L 613 297 L 635 309"/>
<path style="--d:8s;" pathLength="3333" clip-path="url(#z39770c8)" d="M 157 192 L 163 155 L 161 109 L 146 -2"/>
<path style="--d:9s;" pathLength="3333" clip-path="url(#z39770c9)" d="M 340 173 L 397 113 L 409 81"/>
<path style="--d:10s;" pathLength="3333" clip-path="url(#z39770c10)" d="M 537 190 L 612 129 L 627 104"/>
<path style="--d:11s;" pathLength="3333" clip-path="url(#z39770c11)" d="M 749 202 L 868 110 L 890 75 L 903 28"/>
</svg>