<svg id="z30759" class="acjk" viewBox="0 0 1024 1024" xmlns="http://www.w3.org/2000/svg">
<style>
<![CDATA[
@keyframes zk {
	to {
		stroke-dashoffset:0;
	}
}
svg.acjk path[clip-path] {
	--t:0.8s;
	animation:zk var(--t) linear forwards var(--d);
	stroke-dasharray:3337;
	stroke-dashoffset:3339;
	stroke-width:128;
	stroke-linecap:round;
	stroke-linejoin:round;
	fill:none;
	stroke:#000;
}
svg.acjk path[id] {fill:#ccc;}
]]>
</style>
  <path id="z30759d1" d="M 290 643 Q 461 689 464 691 Q 473 700 468 708 Q 461 720 430 726 Q 403 729 290 692 Q 206 673 164 666 Q 127 659 155 643 Q 192 624 250 633 L 290 643 Z"/>
  <path id="z30759d2" d="M 246 413 Q 277 476 320 574 Q 335 611 336 614 Q 333 623 320 631 Q 307 640 290 643 C 261 651 240 657 250 633 Q 259 624 258 583 Q 243 510 199 414 L 178 377 Q 94 257 35 187 Q 28 181 39 180 Q 99 198 193 325 L 246 413 Z"/>
  <path id="z30759d3" d="M 199 414 Q 193 415 186 417 Q 174 421 171 416 Q 164 410 172 395 Q 175 388 178 377 L 193 325 Q 203 282 211 222 Q 212 191 229 168 Q 245 146 251 161 Q 258 180 255 214 L 251 248 Q 236 357 236 382 L 199 414 Z"/>
  <path id="z30759d4" d="M 404 280 Q 420 365 445 392 Q 467 417 444 432 Q 383 465 375 463 Q 368 463 360 457 Q 318 432 246 413 C 205 402 207 376 236 382 Q 245 383 256 387 Q 299 399 337 408 Q 362 414 369 404 Q 376 397 370 361 Q 363 324 355 282 C 349 253 398 251 404 280 Z"/>
  <path id="z30759d5" d="M 255 214 Q 261 214 268 216 Q 314 231 419 249 Q 429 250 430 260 Q 430 267 404 280 L 355 282 Q 351 282 350 281 Q 296 262 251 248 C 222 239 225 212 255 214 Z"/>
  <path id="z30759d6" d="M 663 338 Q 669 456 673 567 L 674 599 Q 675 668 695 770 Q 699 782 677 798 Q 637 819 611 823 Q 592 826 584 816 Q 575 809 585 791 Q 613 751 614 724 Q 624 541 617 328 C 616 298 661 308 663 338 Z"/>
  <path id="z30759d7" d="M 673 567 Q 716 555 785 571 Q 825 580 868 591 Q 890 597 893 600 Q 903 610 896 619 Q 887 632 854 638 Q 833 641 739 611 Q 709 604 674 599 C 644 595 644 574 673 567 Z"/>
  <path id="z30759d8" d="M 517 312 Q 505 319 472 325 Q 459 329 455 324 Q 448 317 457 300 Q 490 222 505 96 Q 506 59 527 33 Q 546 9 551 25 Q 560 49 555 93 L 549 130 Q 533 241 529 278 C 526 308 526 308 517 312 Z"/>
  <path id="z30759d9" d="M 809 160 Q 831 265 869 294 Q 885 313 870 333 Q 785 391 735 362 Q 698 349 663 338 L 617 328 Q 568 319 517 312 C 487 308 499 274 529 278 Q 544 278 735 316 Q 757 320 765 312 Q 777 302 776 280 Q 769 222 759 172 C 753 143 803 131 809 160 Z"/>
  <path id="z30759d10" d="M 555 93 Q 565 92 578 94 Q 654 112 818 125 Q 830 126 832 137 Q 832 144 809 160 L 759 172 Q 752 173 744 170 Q 635 143 549 130 C 519 125 525 94 555 93 Z"/>
<defs>
  <clipPath id="z30759c1"><use href="#z30759d1"/></clipPath>
  <clipPath id="z30759c2"><use href="#z30759d2"/></clipPath>
  <clipPath id="z30759c3"><use href="#z30759d3"/></clipPath>
  <clipPath id="z30759c4"><use href="#z30759d4"/></clipPath>
  <clipPath id="z30759c5"><use href="#z30759d5"/></clipPath>
  <clipPath id="z30759c6"><use href="#z30759d6"/></clipPath>
  <clipPath id="z30759c7"><use href="#z30759d7"/></clipPath>
  <clipPath id="z30759c8"><use href="#z30759d8"/></clipPath>
  <clipPath id="z30759c9"><use href="#z30759d9"/></clipPath>
  <clipPath id="z30759c10"><use href="#z30759d10"/></clipPath>
</defs>
<path style="--d:1s;" pathLength="3333" clip-path="url(#z30759c1)" d="M 156 656 L 221 653 L 298 668 L 414 702 L 460 700"/>
<path style="--d:2s;" pathLength="3333" clip-path="url(#z30759c2)" d="M 257 633 L 290 610 L 293 597 L 267 516 L 218 404 L 123 267 L 42 186"/>
<path style="--d:3s;" pathLength="3333" clip-path="url(#z30759c3)" d="M 179 408 L 199 386 L 211 359 L 241 167"/>
<path style="--d:4s;" pathLength="3333" clip-path="url(#z30759c4)" d="M 239 391 L 259 403 L 352 431 L 377 434 L 398 420 L 409 408 L 384 305 L 361 288"/>
<path style="--d:5s;" pathLength="3333" clip-path="url(#z30759c5)" d="M 261 220 L 276 238 L 357 260 L 397 263 L 421 258"/>
<path style="--d:6s;" pathLength="3333" clip-path="url(#z30759c6)" d="M 598 804 L 650 764 L 651 750 L 642 363 L 623 336"/>
<path style="--d:7s;" pathLength="3333" clip-path="url(#z30759c7)" d="M 680 572 L 692 582 L 738 587 L 838 611 L 886 611"/>
<path style="--d:8s;" pathLength="3333" clip-path="url(#z30759c8)" d="M 462 317 L 493 290 L 499 274 L 540 32"/>
<path style="--d:9s;" pathLength="3333" clip-path="url(#z30759c9)" d="M 525 308 L 545 298 L 670 319 L 751 342 L 787 337 L 819 310 L 790 192 L 767 178"/>
<path style="--d:10s;" pathLength="3333" clip-path="url(#z30759c10)" d="M 557 125 L 570 114 L 579 114 L 755 146 L 823 136"/>
</svg>