<svg id="z35859" class="acjk" viewBox="0 0 1024 1024" xmlns="http://www.w3.org/2000/svg">
<style>
<![CDATA[
@keyframes zk {
	to {
		stroke-dashoffset:0;
	}
}
svg.acjk path[clip-path] {
	--t:0.8s;
	animation:zk var(--t) linear forwards var(--d);
	stroke-dasharray:3337;
	stroke-dashoffset:3339;
	stroke-width:128;
	stroke-linecap:round;
	stroke-linejoin:round;
	fill:none;
	stroke:#000;
}
svg.acjk path[id] {fill:#ccc;}
]]>
</style>
  <path id="z35859d1" d="M 258 755 Q 292 727 329 691 Q 345 676 362 677 Q 375 677 380 693 Q 386 709 376 743 Q 364 782 253 810 Q 235 814 228 811 Q 222 807 224 792 Q 228 779 258 755 Z"/>
  <path id="z35859d2" d="M 148 528 Q 97 512 69 509 Q 54 509 52 501 Q 48 492 59 485 Q 104 461 141 478 Q 240 529 252 526 Q 253 526 256 524 Q 268 517 262 490 Q 268 310 232 176 Q 217 143 263 93 Q 275 81 284 88 Q 291 95 302 121 Q 347 185 441 294 Q 453 307 450 314 Q 447 323 437 312 Q 385 270 335 225 Q 295 188 299 240 Q 296 310 317 484 Q 320 509 343 533 Q 355 543 345 557 Q 333 573 293 590 Q 280 596 263 584 Q 190 542 148 528 Z"/>
  <path id="z35859d3" d="M 493 748 Q 481 754 445 759 Q 433 762 431 757 Q 425 751 434 736 Q 468 669 491 557 Q 495 524 516 502 Q 534 483 538 497 Q 539 506 541 516 L 539 546 Q 538 558 534 571 Q 509 676 501 715 C 495 744 494 748 493 748 Z"/>
  <path id="z35859d4" d="M 748 545 Q 767 514 784 505 Q 794 496 811 518 Q 827 542 859 673 Q 869 704 893 729 Q 906 742 895 756 Q 880 774 837 801 Q 819 810 730 790 Q 717 790 594 767 Q 537 755 493 748 C 463 743 471 711 501 715 Q 507 715 514 716 Q 554 728 611 738 L 649 745 Q 694 754 752 761 Q 786 767 797 755 Q 809 739 806 725 Q 778 577 757 567 C 744 550 744 550 748 545 Z"/>
  <path id="z35859d5" d="M 664 642 Q 695 651 726 655 Q 745 659 737 670 Q 727 682 707 684 Q 691 685 666 678 L 619 663 Q 583 653 553 643 Q 540 639 557 627 Q 560 624 620 633 L 664 642 Z"/>
  <path id="z35859d6" d="M 659 568 Q 660 608 664 642 L 666 678 Q 666 696 668 707 Q 674 725 649 745 C 626 764 596 764 611 738 Q 612 737 614 734 Q 615 728 619 663 L 620 633 Q 620 605 622 560 C 623 530 658 538 659 568 Z"/>
  <path id="z35859d7" d="M 541 516 Q 545 516 553 517 Q 614 533 748 545 C 778 548 782 550 757 567 Q 751 571 742 578 Q 723 587 659 568 L 622 560 Q 576 553 539 546 C 510 540 511 514 541 516 Z"/>
  <path id="z35859d8" d="M 545 218 Q 548 267 552 302 L 554 326 Q 557 378 561 396 Q 561 402 561 406 C 562 421 562 421 548 432 Q 527 453 498 450 Q 485 446 489 434 Q 534 334 482 132 Q 458 78 462 64 Q 463 34 479 14 Q 486 1 496 6 Q 530 27 543 193 L 545 218 Z"/>
  <path id="z35859d9" d="M 561 406 Q 571 407 583 410 Q 718 438 739 429 Q 751 425 753 398 Q 769 217 760 76 Q 759 48 742 42 Q 730 38 669 53 Q 657 56 658 48 Q 659 41 674 32 Q 711 1 740 -32 Q 756 -48 772 -46 Q 788 -42 810 7 Q 835 56 830 108 Q 820 229 810 341 Q 806 384 823 420 Q 835 436 821 449 Q 803 465 766 478 Q 744 488 728 476 Q 709 469 674 458 Q 589 439 548 432 C 518 427 531 401 561 406 Z"/>
  <path id="z35859d10" d="M 552 302 Q 588 296 677 317 Q 680 318 686 319 Q 702 323 704 325 Q 711 332 707 339 Q 700 348 677 353 Q 665 354 595 335 Q 574 331 554 326 C 525 319 522 306 552 302 Z"/>
  <path id="z35859d11" d="M 543 193 Q 624 181 714 209 Q 721 216 718 222 Q 712 232 689 238 Q 676 241 599 225 Q 572 221 545 218 C 515 215 513 197 543 193 Z"/>
<defs>
  <clipPath id="z35859c1"><use href="#z35859d1"/></clipPath>
  <clipPath id="z35859c2"><use href="#z35859d2"/></clipPath>
  <clipPath id="z35859c3"><use href="#z35859d3"/></clipPath>
  <clipPath id="z35859c4"><use href="#z35859d4"/></clipPath>
  <clipPath id="z35859c5"><use href="#z35859d5"/></clipPath>
  <clipPath id="z35859c6"><use href="#z35859d6"/></clipPath>
  <clipPath id="z35859c7"><use href="#z35859d7"/></clipPath>
  <clipPath id="z35859c8"><use href="#z35859d8"/></clipPath>
  <clipPath id="z35859c9"><use href="#z35859d9"/></clipPath>
  <clipPath id="z35859c10"><use href="#z35859d10"/></clipPath>
  <clipPath id="z35859c11"><use href="#z35859d11"/></clipPath>
</defs>
<path style="--d:1s;" pathLength="3333" clip-path="url(#z35859c1)" d="M 234 803 L 331 741 L 361 696"/>
<path style="--d:2s;" pathLength="3333" clip-path="url(#z35859c2)" d="M 63 496 L 118 495 L 249 550 L 286 551 L 296 542 L 272 234 L 271 203 L 283 173 L 328 192 L 444 310"/>
<path style="--d:3s;" pathLength="3333" clip-path="url(#z35859c3)" d="M 439 750 L 470 725 L 474 714 L 528 503"/>
<path style="--d:4s;" pathLength="3333" clip-path="url(#z35859c4)" d="M 500 744 L 515 734 L 609 757 L 767 782 L 805 779 L 828 769 L 848 742 L 817 627 L 788 546 L 792 523"/>
<path style="--d:5s;" pathLength="3333" clip-path="url(#z35859c5)" d="M 556 635 L 691 667 L 729 664"/>
<path style="--d:6s;" pathLength="3333" clip-path="url(#z35859c6)" d="M 622 732 L 642 714 L 643 687 L 640 584 L 627 569"/>
<path style="--d:7s;" pathLength="3333" clip-path="url(#z35859c7)" d="M 546 524 L 574 538 L 750 564"/>
<path style="--d:8s;" pathLength="3333" clip-path="url(#z35859c8)" d="M 499 439 L 520 422 L 532 397 L 533 337 L 525 227 L 508 118 L 495 80 L 491 17"/>
<path style="--d:9s;" pathLength="3333" clip-path="url(#z35859c9)" d="M 554 427 L 569 421 L 594 423 L 650 439 L 747 455 L 786 428 L 782 357 L 796 129 L 791 52 L 782 29 L 763 5 L 665 47"/>
<path style="--d:10s;" pathLength="3333" clip-path="url(#z35859c10)" d="M 558 308 L 630 327 L 697 334"/>
<path style="--d:11s;" pathLength="3333" clip-path="url(#z35859c11)" d="M 551 199 L 558 205 L 708 218"/>
</svg>