<svg id="z34664" class="acjk" viewBox="0 0 1024 1024" xmlns="http://www.w3.org/2000/svg">
<style>
<![CDATA[
@keyframes zk {
	to {
		stroke-dashoffset:0;
	}
}
svg.acjk path[clip-path] {
	--t:0.8s;
	animation:zk var(--t) linear forwards var(--d);
	stroke-dasharray:3337;
	stroke-dashoffset:3339;
	stroke-width:128;
	stroke-linecap:round;
	stroke-linejoin:round;
	fill:none;
	stroke:#000;
}
svg.acjk path[id] {fill:#ccc;}
]]>
</style>
  <path id="z34664d1" d="M 419 743 Q 468 759 540 770 Q 576 777 588 769 Q 600 765 596 743 Q 575 662 582 604 Q 594 522 679 480 Q 722 462 806 457 Q 884 454 927 467 Q 964 482 948 507 Q 917 559 896 639 Q 889 655 881 659 Q 874 662 872 646 Q 872 555 854 532 Q 847 520 804 517 Q 693 511 659 548 Q 637 570 631 606 Q 625 642 640 693 Q 653 742 677 761 Q 705 783 675 799 Q 656 812 636 825 Q 621 834 564 816 Q 300 756 278 753 Q 260 752 259 737 Q 258 728 288 715 Q 318 702 358 722 Q 370 728 385 732 L 419 743 Z"/>
  <path id="z34664d2" d="M 445 618 Q 457 622 470 626 Q 530 642 534 658 Q 530 664 519 663 Q 488 657 453 650 L 394 639 Q 315 626 225 612 Q 204 608 172 613 Q 159 613 157 604 Q 153 592 161 584 Q 179 568 207 546 Q 216 542 227 548 Q 284 581 386 602 L 445 618 Z"/>
  <path id="z34664d3" d="M 453 650 Q 456 689 466 703 Q 473 709 467 719 Q 463 726 435 736 Q 426 740 419 743 C 392 755 375 760 385 732 Q 401 696 394 639 L 386 602 Q 365 532 314 493 Q 286 469 212 436 Q 190 426 216 424 Q 276 421 358 473 Q 371 485 385 499 Q 422 538 445 618 L 453 650 Z"/>
  <path id="z34664d4" d="M 174 290 Q 164 293 142 295 Q 132 296 128 292 Q 124 285 132 272 Q 156 235 175 172 Q 179 153 193 141 Q 211 123 214 137 Q 215 144 215 157 L 210 184 Q 197 245 193 264 C 188 286 188 286 174 290 Z"/>
  <path id="z34664d5" d="M 424 219 Q 448 271 470 284 Q 483 299 472 313 Q 459 325 416 346 Q 401 352 383 346 Q 355 334 329 324 L 274 310 Q 225 300 174 290 C 145 284 165 252 193 264 Q 199 270 275 284 L 324 294 Q 343 300 365 304 Q 384 310 394 301 Q 400 292 382 227 C 374 198 411 192 424 219 Z"/>
  <path id="z34664d6" d="M 320 176 Q 366 186 430 193 Q 440 194 440 202 Q 440 209 424 219 C 406 231 406 231 382 227 Q 376 227 321 210 L 279 199 Q 242 192 210 184 C 181 177 185 158 215 157 Q 224 156 233 158 Q 252 164 279 169 L 320 176 Z"/>
  <path id="z34664d7" d="M 316 88 Q 317 133 320 176 L 321 210 Q 322 253 324 294 L 329 324 Q 335 378 336 379 Q 333 386 324 392 Q 293 408 271 411 Q 258 414 250 406 Q 243 399 251 386 Q 269 361 274 310 L 275 284 Q 276 244 279 199 L 279 169 Q 279 126 278 78 C 277 48 315 58 316 88 Z"/>
  <path id="z34664d8" d="M 406 113 Q 360 101 316 88 L 278 78 Q 223 66 164 51 Q 145 47 116 48 Q 103 47 101 38 Q 98 25 107 17 Q 128 1 159 -18 Q 169 -22 180 -14 Q 208 7 387 78 Q 403 85 418 93 C 445 107 435 121 406 113 Z"/>
  <path id="z34664d9" d="M 418 93 Q 436 56 451 51 Q 458 50 466 57 Q 473 67 473 91 Q 473 115 412 152 Q 402 159 396 158 Q 392 157 390 147 Q 390 137 405 116 Q 405 115 406 113 L 418 93 Z"/>
  <path id="z34664d10" d="M 545 312 Q 535 316 506 319 Q 496 320 492 316 Q 488 310 496 296 Q 520 259 539 193 Q 543 174 557 161 Q 573 143 578 157 Q 579 164 580 172 L 575 202 Q 562 260 558 283 C 553 309 553 309 545 312 Z"/>
  <path id="z34664d11" d="M 823 234 Q 845 279 872 294 Q 888 310 876 328 Q 861 341 814 367 Q 798 374 777 368 Q 734 352 695 339 L 642 327 Q 593 320 545 312 C 515 307 529 276 558 283 Q 565 284 574 287 Q 607 294 643 301 L 693 311 L 755 325 Q 777 331 787 321 Q 796 309 771 243 C 761 215 809 207 823 234 Z"/>
  <path id="z34664d12" d="M 689 190 Q 744 200 829 208 Q 839 209 840 217 Q 840 224 823 234 L 771 243 Q 770 244 768 243 Q 726 233 690 224 L 646 214 Q 607 207 575 202 C 545 197 550 173 580 172 Q 587 171 596 173 Q 615 179 646 183 L 689 190 Z"/>
  <path id="z34664d13" d="M 684 75 Q 687 133 689 190 L 690 224 Q 691 269 693 311 L 695 339 Q 698 364 709 414 Q 712 424 693 438 Q 659 454 637 459 Q 621 462 614 453 Q 607 446 615 432 Q 637 401 639 378 Q 640 353 642 327 L 643 301 Q 644 259 646 214 L 646 183 Q 646 128 645 67 C 645 37 682 45 684 75 Z"/>
  <path id="z34664d14" d="M 792 100 Q 740 88 684 75 L 645 67 Q 593 58 539 47 Q 518 43 486 46 Q 473 45 471 35 Q 467 22 476 14 Q 497 -5 528 -26 Q 538 -30 550 -22 Q 560 -16 807 77 C 835 88 821 107 792 100 Z"/>
  <path id="z34664d15" d="M 807 77 Q 826 47 848 10 Q 858 -12 872 -19 Q 879 -22 889 -14 Q 904 -4 900 39 Q 900 90 774 165 Q 767 172 762 161 Q 759 149 792 100 L 807 77 Z"/>
<defs>
  <clipPath id="z34664c1"><use href="#z34664d1"/></clipPath>
  <clipPath id="z34664c2"><use href="#z34664d2"/></clipPath>
  <clipPath id="z34664c3"><use href="#z34664d3"/></clipPath>
  <clipPath id="z34664c4"><use href="#z34664d4"/></clipPath>
  <clipPath id="z34664c5"><use href="#z34664d5"/></clipPath>
  <clipPath id="z34664c6"><use href="#z34664d6"/></clipPath>
  <clipPath id="z34664c7"><use href="#z34664d7"/></clipPath>
  <clipPath id="z34664c8"><use href="#z34664d8"/></clipPath>
  <clipPath id="z34664c9"><use href="#z34664d9"/></clipPath>
  <clipPath id="z34664c10"><use href="#z34664d10"/></clipPath>
  <clipPath id="z34664c11"><use href="#z34664d11"/></clipPath>
  <clipPath id="z34664c12"><use href="#z34664d12"/></clipPath>
  <clipPath id="z34664c13"><use href="#z34664d13"/></clipPath>
  <clipPath id="z34664c14"><use href="#z34664d14"/></clipPath>
  <clipPath id="z34664c15"><use href="#z34664d15"/></clipPath>
</defs>
<path style="--d:1s;" pathLength="3333" clip-path="url(#z34664c1)" d="M 271 738 L 328 737 L 435 769 L 554 795 L 600 796 L 622 789 L 634 777 L 605 651 L 605 613 L 614 575 L 634 541 L 667 512 L 737 491 L 850 490 L 890 505 L 894 556 L 880 650"/>
<path style="--d:2s;" pathLength="3333" clip-path="url(#z34664c2)" d="M 169 600 L 217 579 L 300 603 L 497 645 L 526 659"/>
<path style="--d:3s;" pathLength="3333" clip-path="url(#z34664c3)" d="M 393 728 L 420 713 L 428 699 L 413 601 L 385 537 L 339 485 L 311 466 L 270 446 L 222 433"/>
<path style="--d:4s;" pathLength="3333" clip-path="url(#z34664c4)" d="M 136 287 L 157 272 L 173 247 L 204 141"/>
<path style="--d:5s;" pathLength="3333" clip-path="url(#z34664c5)" d="M 182 289 L 191 282 L 222 285 L 383 326 L 405 324 L 431 296 L 411 245 L 391 237"/>
<path style="--d:6s;" pathLength="3333" clip-path="url(#z34664c6)" d="M 218 179 L 228 173 L 382 207 L 431 202"/>
<path style="--d:7s;" pathLength="3333" clip-path="url(#z34664c7)" d="M 261 397 L 291 375 L 300 360 L 299 126 L 293 96 L 283 86"/>
<path style="--d:8s;" pathLength="3333" clip-path="url(#z34664c8)" d="M 115 34 L 170 19 L 386 94 L 410 95"/>
<path style="--d:9s;" pathLength="3333" clip-path="url(#z34664c9)" d="M 398 150 L 448 90 L 453 63"/>
<path style="--d:10s;" pathLength="3333" clip-path="url(#z34664c10)" d="M 500 311 L 533 281 L 568 162"/>
<path style="--d:11s;" pathLength="3333" clip-path="url(#z34664c11)" d="M 553 307 L 578 302 L 672 319 L 777 347 L 801 344 L 829 311 L 808 264 L 780 254"/>
<path style="--d:12s;" pathLength="3333" clip-path="url(#z34664c12)" d="M 584 180 L 597 190 L 774 223 L 831 217"/>
<path style="--d:13s;" pathLength="3333" clip-path="url(#z34664c13)" d="M 627 443 L 670 408 L 666 98 L 650 74"/>
<path style="--d:14s;" pathLength="3333" clip-path="url(#z34664c14)" d="M 485 32 L 537 11 L 773 81 L 785 82 L 792 76"/>
<path style="--d:15s;" pathLength="3333" clip-path="url(#z34664c15)" d="M 770 158 L 861 53 L 872 28 L 876 -3"/>
</svg>