<svg id="z31283" class="acjk" viewBox="0 0 1024 1024" xmlns="http://www.w3.org/2000/svg">
<style>
<![CDATA[
@keyframes zk {
	to {
		stroke-dashoffset:0;
	}
}
svg.acjk path[clip-path] {
	--t:0.8s;
	animation:zk var(--t) linear forwards var(--d);
	stroke-dasharray:3337;
	stroke-dashoffset:3339;
	stroke-width:128;
	stroke-linecap:round;
	stroke-linejoin:round;
	fill:none;
	stroke:#000;
}
svg.acjk path[id] {fill:#ccc;}
]]>
</style>
  <path id="z31283d1" d="M 293 687 Q 402 739 428 746 Q 444 747 447 755 Q 450 765 438 775 Q 387 809 350 805 Q 343 801 343 791 Q 346 751 140 643 Q 136 634 141 632 Q 159 632 248 669 Q 255 672 265 675 L 293 687 Z"/>
  <path id="z31283d2" d="M 321 511 Q 364 524 415 532 Q 430 535 430 542 Q 431 555 413 562 Q 388 572 323 553 L 283 541 Q 133 505 83 497 Q 70 496 68 487 Q 67 477 81 467 Q 120 443 157 458 Q 218 483 266 496 L 321 511 Z"/>
  <path id="z31283d3" d="M 320 450 Q 320 454 321 458 Q 321 486 321 511 L 323 553 Q 324 614 331 645 Q 332 658 326 663 Q 308 679 293 687 C 268 703 254 703 265 675 Q 283 648 283 541 L 282 424 Q 281 405 281 380 Q 274 166 257 114 Q 248 80 281 28 Q 291 9 300 6 Q 310 5 316 17 Q 328 48 324 78 Q 320 264 320 421 L 320 450 Z"/>
  <path id="z31283d4" d="M 266 496 Q 241 435 208 377 Q 165 304 62 172 Q 58 162 68 162 Q 74 161 82 169 Q 211 280 282 424 C 330 520 278 524 266 496 Z"/>
  <path id="z31283d5" d="M 320 421 Q 396 345 408 343 Q 417 343 421 353 Q 425 363 421 387 Q 415 417 329 449 Q 323 450 320 450 C 290 452 299 442 320 421 Z"/>
  <path id="z31283d6" d="M 602 685 Q 644 751 662 767 Q 669 774 666 786 Q 663 796 640 816 Q 618 831 602 831 Q 587 830 594 811 Q 607 780 547 679 Q 517 633 478 581 Q 469 574 467 568 Q 464 559 476 561 Q 500 564 580 657 L 602 685 Z"/>
  <path id="z31283d7" d="M 666 550 Q 685 569 716 605 Q 755 651 793 675 Q 811 685 798 699 Q 785 711 746 731 Q 730 735 715 726 Q 705 720 625 692 Q 613 689 602 685 C 574 676 550 657 580 657 Q 592 654 686 676 Q 696 680 699 676 Q 703 673 698 664 Q 662 588 640 553 Q 636 546 633 540 C 619 514 645 529 666 550 Z"/>
  <path id="z31283d8" d="M 758 362 Q 789 471 829 503 Q 845 521 831 537 Q 815 550 765 574 Q 747 581 727 573 Q 696 560 666 550 L 633 540 Q 630 541 628 540 Q 564 524 496 515 Q 480 514 482 504 Q 485 497 502 491 Q 526 481 559 493 Q 637 509 711 525 Q 730 529 739 522 Q 749 510 745 488 Q 732 424 713 371 C 703 343 750 333 758 362 Z"/>
  <path id="z31283d9" d="M 495 416 Q 479 413 498 398 Q 507 392 526 395 Q 616 408 683 417 Q 705 421 697 433 Q 687 446 663 451 Q 651 454 495 416 Z"/>
  <path id="z31283d10" d="M 713 371 Q 709 372 703 370 Q 582 342 483 331 Q 464 330 475 312 Q 482 303 491 299 Q 501 296 515 299 Q 594 317 767 330 Q 777 331 779 339 Q 779 346 758 362 L 713 371 Z"/>
  <path id="z31283d11" d="M 421 230 Q 403 181 376 136 Q 361 103 377 75 Q 384 59 404 72 Q 449 111 447 179 Q 451 209 443 231 Q 439 238 433 240 Q 426 239 421 230 Z"/>
  <path id="z31283d12" d="M 492 189 Q 507 101 571 59 Q 661 -1 834 20 Q 852 24 868 31 Q 889 40 891 52 Q 895 61 865 88 Q 819 139 787 190 Q 778 206 773 201 Q 770 200 782 113 Q 788 77 753 69 Q 743 68 729 67 Q 608 70 561 116 Q 539 137 530 172 Q 524 194 513 199 Q 501 206 494 203 Q 490 202 492 189 Z"/>
  <path id="z31283d13" d="M 598 247 Q 646 181 670 178 Q 683 177 689 193 Q 690 205 683 224 Q 674 240 653 250 Q 619 268 604 271 Q 595 272 594 262 Q 593 255 598 247 Z"/>
  <path id="z31283d14" d="M 808 254 Q 842 226 880 191 Q 892 179 907 180 Q 917 180 921 193 Q 925 206 917 233 Q 908 269 804 298 Q 789 301 784 299 Q 780 295 781 283 Q 784 273 808 254 Z"/>
<defs>
  <clipPath id="z31283c1"><use href="#z31283d1"/></clipPath>
  <clipPath id="z31283c2"><use href="#z31283d2"/></clipPath>
  <clipPath id="z31283c3"><use href="#z31283d3"/></clipPath>
  <clipPath id="z31283c4"><use href="#z31283d4"/></clipPath>
  <clipPath id="z31283c5"><use href="#z31283d5"/></clipPath>
  <clipPath id="z31283c6"><use href="#z31283d6"/></clipPath>
  <clipPath id="z31283c7"><use href="#z31283d7"/></clipPath>
  <clipPath id="z31283c8"><use href="#z31283d8"/></clipPath>
  <clipPath id="z31283c9"><use href="#z31283d9"/></clipPath>
  <clipPath id="z31283c10"><use href="#z31283d10"/></clipPath>
  <clipPath id="z31283c11"><use href="#z31283d11"/></clipPath>
  <clipPath id="z31283c12"><use href="#z31283d12"/></clipPath>
  <clipPath id="z31283c13"><use href="#z31283d13"/></clipPath>
  <clipPath id="z31283c14"><use href="#z31283d14"/></clipPath>
</defs>
<path style="--d:1s;" pathLength="3333" clip-path="url(#z31283c1)" d="M 437 759 L 419 765 L 373 764 L 296 709 L 168 647 L 153 648 L 143 638"/>
<path style="--d:2s;" pathLength="3333" clip-path="url(#z31283c2)" d="M 79 485 L 132 479 L 357 542 L 396 548 L 419 545"/>
<path style="--d:3s;" pathLength="3333" clip-path="url(#z31283c3)" d="M 273 675 L 291 665 L 303 645 L 299 249 L 289 97 L 302 18"/>
<path style="--d:4s;" pathLength="3333" clip-path="url(#z31283c4)" d="M 280 493 L 271 486 L 259 426 L 216 349 L 145 252 L 72 171"/>
<path style="--d:5s;" pathLength="3333" clip-path="url(#z31283c5)" d="M 324 443 L 340 423 L 354 418 L 396 382 L 409 352"/>
<path style="--d:6s;" pathLength="3333" clip-path="url(#z31283c6)" d="M 602 819 L 621 799 L 628 779 L 559 658 L 497 585 L 474 568"/>
<path style="--d:7s;" pathLength="3333" clip-path="url(#z31283c7)" d="M 589 661 L 608 673 L 694 696 L 718 697 L 739 687 L 725 654 L 661 563 L 637 546"/>
<path style="--d:8s;" pathLength="3333" clip-path="url(#z31283c8)" d="M 490 506 L 547 505 L 729 550 L 761 543 L 785 518 L 782 503 L 742 388 L 722 376"/>
<path style="--d:9s;" pathLength="3333" clip-path="url(#z31283c9)" d="M 496 407 L 652 432 L 687 427"/>
<path style="--d:10s;" pathLength="3333" clip-path="url(#z31283c10)" d="M 481 321 L 516 317 L 710 348 L 769 340"/>
<path style="--d:11s;" pathLength="3333" clip-path="url(#z31283c11)" d="M 432 229 L 423 171 L 391 81"/>
<path style="--d:12s;" pathLength="3333" clip-path="url(#z31283c12)" d="M 499 195 L 513 175 L 517 153 L 537 115 L 565 87 L 644 51 L 732 40 L 783 46 L 822 66 L 816 96 L 776 199"/>
<path style="--d:13s;" pathLength="3333" clip-path="url(#z31283c13)" d="M 605 259 L 654 219 L 671 195"/>
<path style="--d:14s;" pathLength="3333" clip-path="url(#z31283c14)" d="M 788 293 L 877 235 L 906 195"/>
</svg>