<svg id="z34471" class="acjk" viewBox="0 0 1024 1024" xmlns="http://www.w3.org/2000/svg">
<style>
<![CDATA[
@keyframes zk {
	to {
		stroke-dashoffset:0;
	}
}
svg.acjk path[clip-path] {
	--t:0.8s;
	animation:zk var(--t) linear forwards var(--d);
	stroke-dasharray:3337;
	stroke-dashoffset:3339;
	stroke-width:128;
	stroke-linecap:round;
	stroke-linejoin:round;
	fill:none;
	stroke:#000;
}
svg.acjk path[id] {fill:#ccc;}
]]>
</style>
  <path id="z34471d1" d="M 136 538 Q 126 544 93 548 Q 81 551 79 545 Q 73 539 81 525 Q 108 476 126 395 Q 130 370 144 354 Q 162 335 166 349 Q 170 359 169 377 L 165 406 Q 150 481 147 508 C 144 535 144 535 136 538 Z"/>
  <path id="z34471d2" d="M 373 439 Q 394 505 424 530 Q 439 546 425 563 Q 362 609 325 595 Q 300 585 276 574 L 231 560 Q 183 548 136 538 C 107 532 118 499 147 508 Q 163 514 232 529 L 275 539 Q 291 543 311 548 Q 330 554 338 546 Q 350 534 328 447 C 321 418 363 411 373 439 Z"/>
  <path id="z34471d3" d="M 272 395 Q 318 404 382 411 Q 392 412 392 421 Q 392 428 373 439 L 328 447 Q 318 447 273 431 L 232 420 Q 196 413 165 406 C 136 399 139 378 169 377 Q 176 376 188 378 Q 206 384 231 388 L 272 395 Z"/>
  <path id="z34471d4" d="M 269 271 Q 270 335 272 395 L 273 431 Q 274 486 275 539 L 276 574 Q 276 664 296 751 Q 299 761 279 777 Q 243 795 218 798 Q 202 802 194 793 Q 187 786 195 770 Q 226 727 226 696 Q 230 630 231 560 L 232 529 Q 232 477 232 420 L 231 388 Q 230 327 227 259 C 226 229 268 241 269 271 Z"/>
  <path id="z34471d5" d="M 353 297 Q 311 285 269 271 L 227 259 Q 173 246 118 229 Q 99 223 70 225 Q 57 224 55 213 Q 52 200 62 190 Q 86 174 120 154 Q 130 151 143 160 Q 179 187 218 205 Q 278 232 337 260 Q 352 267 365 275 C 391 290 382 305 353 297 Z"/>
  <path id="z34471d6" d="M 365 275 Q 384 226 399 221 Q 406 218 414 225 Q 421 234 423 256 Q 426 277 405 302 Q 357 353 340 354 Q 336 353 333 344 Q 333 338 353 297 L 365 275 Z"/>
  <path id="z34471d7" d="M 623 681 Q 656 760 662 767 Q 668 774 664 784 Q 660 794 645 803 Q 608 827 575 813 Q 566 809 571 797 Q 602 739 518 573 Q 514 567 511 561 Q 486 516 419 424 Q 412 417 423 417 Q 474 429 570 572 Q 573 579 579 587 Q 595 617 614 660 L 623 681 Z"/>
  <path id="z34471d8" d="M 614 660 Q 693 563 779 474 Q 800 452 835 450 Q 899 446 968 457 Q 986 458 987 463 Q 988 469 975 475 Q 932 493 879 510 Q 765 555 628 677 Q 625 680 623 681 C 600 700 595 683 614 660 Z"/>
  <path id="z34471d9" d="M 487 409 Q 518 364 497 248 Q 476 155 374 63 Q 362 53 374 52 Q 428 58 482 117 Q 549 186 558 292 Q 567 370 574 384 Q 581 402 565 409 Q 519 440 492 428 Q 479 424 487 409 Z"/>
  <path id="z34471d10" d="M 666 449 Q 691 407 675 159 Q 665 63 679 29 Q 695 -10 716 -22 Q 729 -23 733 -9 Q 746 25 742 57 Q 727 330 738 418 Q 739 431 732 437 Q 707 458 687 468 Q 674 471 664 463 Q 658 459 666 449 Z"/>
<defs>
  <clipPath id="z34471c1"><use href="#z34471d1"/></clipPath>
  <clipPath id="z34471c2"><use href="#z34471d2"/></clipPath>
  <clipPath id="z34471c3"><use href="#z34471d3"/></clipPath>
  <clipPath id="z34471c4"><use href="#z34471d4"/></clipPath>
  <clipPath id="z34471c5"><use href="#z34471d5"/></clipPath>
  <clipPath id="z34471c6"><use href="#z34471d6"/></clipPath>
  <clipPath id="z34471c7"><use href="#z34471d7"/></clipPath>
  <clipPath id="z34471c8"><use href="#z34471d8"/></clipPath>
  <clipPath id="z34471c9"><use href="#z34471d9"/></clipPath>
  <clipPath id="z34471c10"><use href="#z34471d10"/></clipPath>
</defs>
<path style="--d:1s;" pathLength="3333" clip-path="url(#z34471c1)" d="M 88 538 L 115 517 L 120 506 L 156 355"/>
<path style="--d:2s;" pathLength="3333" clip-path="url(#z34471c2)" d="M 144 533 L 166 529 L 218 539 L 327 573 L 351 571 L 381 543 L 360 474 L 354 463 L 338 457"/>
<path style="--d:3s;" pathLength="3333" clip-path="url(#z34471c3)" d="M 173 385 L 183 394 L 327 426 L 382 421"/>
<path style="--d:4s;" pathLength="3333" clip-path="url(#z34471c4)" d="M 206 784 L 254 746 L 256 720 L 249 287 L 232 266"/>
<path style="--d:5s;" pathLength="3333" clip-path="url(#z34471c5)" d="M 69 211 L 90 200 L 127 193 L 336 277 L 355 277"/>
<path style="--d:6s;" pathLength="3333" clip-path="url(#z34471c6)" d="M 341 346 L 390 281 L 403 235"/>
<path style="--d:7s;" pathLength="3333" clip-path="url(#z34471c7)" d="M 579 803 L 605 789 L 619 772 L 587 664 L 522 537 L 479 478 L 425 423"/>
<path style="--d:8s;" pathLength="3333" clip-path="url(#z34471c8)" d="M 622 675 L 660 627 L 810 498 L 885 477 L 982 464"/>
<path style="--d:9s;" pathLength="3333" clip-path="url(#z34471c9)" d="M 495 417 L 518 405 L 536 385 L 531 286 L 519 226 L 480 149 L 426 89 L 380 58"/>
<path style="--d:10s;" pathLength="3333" clip-path="url(#z34471c10)" d="M 673 457 L 684 451 L 707 417 L 705 94 L 718 -8"/>
</svg>