<svg id="z38148" class="acjk" viewBox="0 0 1024 1024" xmlns="http://www.w3.org/2000/svg">
<style>
<![CDATA[
@keyframes zk {
	to {
		stroke-dashoffset:0;
	}
}
svg.acjk path[clip-path] {
	--t:0.8s;
	animation:zk var(--t) linear forwards var(--d);
	stroke-dasharray:3337;
	stroke-dashoffset:3339;
	stroke-width:128;
	stroke-linecap:round;
	stroke-linejoin:round;
	fill:none;
	stroke:#000;
}
svg.acjk path[id] {fill:#ccc;}
]]>
</style>
  <path id="z38148d1" d="M 296 649 Q 338 727 362 750 Q 371 760 366 774 Q 362 786 334 807 Q 309 825 290 824 Q 272 823 280 801 Q 295 770 283 741 Q 246 650 191 563 Q 136 481 62 390 Q 52 380 50 374 Q 47 364 61 366 Q 112 373 273 613 Q 276 617 279 622 L 296 649 Z"/>
  <path id="z38148d2" d="M 279 622 Q 310 613 373 627 Q 404 636 441 646 Q 459 652 461 654 Q 468 661 464 670 Q 457 680 429 684 Q 416 685 333 658 Q 314 654 296 649 C 267 641 250 629 279 622 Z"/>
  <path id="z38148d3" d="M 283 464 Q 377 494 382 498 Q 389 507 384 514 Q 377 524 349 527 Q 327 528 256 498 Q 229 491 200 483 Q 167 473 193 461 Q 212 454 244 453 L 283 464 Z"/>
  <path id="z38148d4" d="M 308 347 Q 395 377 398 378 Q 405 387 400 394 Q 393 404 365 408 Q 325 412 307 395 L 265 378 Q 196 357 153 347 Q 120 338 145 325 Q 185 309 260 332 Q 263 333 267 334 L 308 347 Z"/>
  <path id="z38148d5" d="M 267 334 Q 270 204 232 147 Q 204 120 242 80 Q 243 79 245 77 Q 257 70 266 85 Q 276 107 381 207 Q 397 219 400 227 Q 403 236 395 235 Q 385 235 309 190 Q 302 186 300 192 Q 307 277 308 347 L 307 395 Q 310 440 308 444 Q 295 456 283 464 C 259 482 232 481 244 453 Q 260 419 265 378 L 267 334 Z"/>
  <path id="z38148d6" d="M 458 574 Q 445 584 433 589 Q 423 592 416 588 Q 409 584 412 576 Q 433 540 433 501 Q 434 467 438 175 C 438 145 474 155 474 185 Q 474 251 474 310 L 474 342 Q 474 382 474 420 L 474 452 Q 474 500 476 550 C 476 561 476 561 458 574 Z"/>
  <path id="z38148d7" d="M 605 224 Q 599 521 622 550 Q 631 563 620 575 Q 613 584 572 605 Q 560 612 543 604 Q 524 595 495 584 Q 479 580 458 574 C 429 566 449 537 476 550 Q 485 559 546 570 Q 553 571 556 569 Q 562 556 563 211 C 563 181 606 194 605 224 Z"/>
  <path id="z38148d8" d="M 474 420 Q 507 427 535 431 Q 554 435 545 446 Q 535 456 514 459 Q 498 460 474 452 C 445 443 445 414 474 420 Z"/>
  <path id="z38148d9" d="M 474 310 Q 510 319 539 323 Q 558 327 549 338 Q 539 348 518 351 Q 500 352 474 342 C 446 331 445 303 474 310 Z"/>
  <path id="z38148d10" d="M 438 175 Q 393 169 385 168 Q 375 167 373 159 Q 372 149 379 142 Q 397 129 422 115 Q 431 112 440 119 Q 462 137 591 195 Q 609 202 622 213 Q 632 219 633 226 Q 629 230 619 229 Q 612 228 605 224 L 563 211 Q 520 199 474 185 L 438 175 Z"/>
  <path id="z38148d11" d="M 767 443 Q 800 453 835 460 Q 845 461 849 456 Q 856 441 854 402 Q 847 258 822 181 Q 809 133 793 118 Q 783 105 757 111 Q 726 118 698 126 Q 676 130 693 112 Q 736 69 760 36 Q 770 17 789 23 Q 807 26 827 51 Q 888 117 906 363 Q 910 418 930 451 Q 943 470 935 479 Q 922 495 890 507 Q 868 517 845 506 Q 814 490 771 475 L 718 459 Q 661 444 629 441 Q 614 442 614 433 Q 614 426 632 417 Q 654 404 672 413 Q 691 420 713 427 L 767 443 Z"/>
  <path id="z38148d12" d="M 713 427 Q 676 211 589 108 Q 556 68 488 13 Q 476 6 473 2 Q 469 -5 485 -4 Q 495 -5 540 18 Q 571 34 618 77 Q 729 179 767 443 L 771 475 Q 786 652 810 709 Q 816 719 807 728 Q 789 744 755 761 Q 734 771 717 766 Q 698 759 713 742 Q 738 711 738 682 Q 732 558 718 459 L 713 427 Z"/>
<defs>
  <clipPath id="z38148c1"><use href="#z38148d1"/></clipPath>
  <clipPath id="z38148c2"><use href="#z38148d2"/></clipPath>
  <clipPath id="z38148c3"><use href="#z38148d3"/></clipPath>
  <clipPath id="z38148c4"><use href="#z38148d4"/></clipPath>
  <clipPath id="z38148c5"><use href="#z38148d5"/></clipPath>
  <clipPath id="z38148c6"><use href="#z38148d6"/></clipPath>
  <clipPath id="z38148c7"><use href="#z38148d7"/></clipPath>
  <clipPath id="z38148c8"><use href="#z38148d8"/></clipPath>
  <clipPath id="z38148c9"><use href="#z38148d9"/></clipPath>
  <clipPath id="z38148c10"><use href="#z38148d10"/></clipPath>
  <clipPath id="z38148c11"><use href="#z38148d11"/></clipPath>
  <clipPath id="z38148c12"><use href="#z38148d12"/></clipPath>
</defs>
<path style="--d:1s;" pathLength="3333" clip-path="url(#z38148c1)" d="M 290 810 L 313 790 L 325 766 L 289 688 L 235 591 L 182 514 L 109 421 L 58 374"/>
<path style="--d:2s;" pathLength="3333" clip-path="url(#z38148c2)" d="M 286 627 L 423 663 L 453 664"/>
<path style="--d:3s;" pathLength="3333" clip-path="url(#z38148c3)" d="M 194 473 L 237 472 L 341 505 L 376 506"/>
<path style="--d:4s;" pathLength="3333" clip-path="url(#z38148c4)" d="M 147 337 L 213 341 L 355 387 L 394 385"/>
<path style="--d:5s;" pathLength="3333" clip-path="url(#z38148c5)" d="M 252 448 L 279 435 L 285 406 L 288 312 L 276 194 L 280 160 L 309 167 L 394 229"/>
<path style="--d:6s;" pathLength="3333" clip-path="url(#z38148c6)" d="M 423 579 L 452 543 L 454 515 L 456 199 L 441 189"/>
<path style="--d:7s;" pathLength="3333" clip-path="url(#z38148c7)" d="M 466 571 L 482 567 L 556 589 L 572 583 L 590 557 L 582 380 L 585 241 L 566 226"/>
<path style="--d:8s;" pathLength="3333" clip-path="url(#z38148c8)" d="M 481 425 L 490 440 L 538 440"/>
<path style="--d:9s;" pathLength="3333" clip-path="url(#z38148c9)" d="M 480 315 L 486 326 L 501 334 L 542 332"/>
<path style="--d:10s;" pathLength="3333" clip-path="url(#z38148c10)" d="M 385 156 L 427 145 L 553 191 L 626 225"/>
<path style="--d:11s;" pathLength="3333" clip-path="url(#z38148c11)" d="M 622 433 L 645 427 L 673 430 L 837 480 L 868 481 L 890 463 L 864 232 L 832 120 L 807 83 L 786 70 L 703 116"/>
<path style="--d:12s;" pathLength="3333" clip-path="url(#z38148c12)" d="M 719 753 L 741 743 L 771 708 L 741 436 L 704 274 L 664 177 L 623 114 L 586 74 L 525 23 L 480 0"/>
</svg>