<svg id="z34231" class="acjk" viewBox="0 0 1024 1024" xmlns="http://www.w3.org/2000/svg">
<style>
<![CDATA[
@keyframes zk {
	to {
		stroke-dashoffset:0;
	}
}
svg.acjk path[clip-path] {
	--t:0.8s;
	animation:zk var(--t) linear forwards var(--d);
	stroke-dasharray:3337;
	stroke-dashoffset:3339;
	stroke-width:128;
	stroke-linecap:round;
	stroke-linejoin:round;
	fill:none;
	stroke:#000;
}
svg.acjk path[id] {fill:#ccc;}
]]>
</style>
  <path id="z34231d1" d="M 640 738 Q 709 747 815 739 Q 830 738 835 746 Q 839 756 827 771 Q 779 810 683 788 Q 673 787 663 784 L 605 775 Q 523 765 430 752 L 385 747 Q 310 740 230 732 Q 202 729 222 715 Q 261 690 341 704 Q 366 710 396 715 L 435 721 Q 459 730 595 736 L 640 738 Z"/>
  <path id="z34231d2" d="M 430 752 Q 426 776 425 795 Q 426 813 407 817 Q 371 832 352 824 Q 336 815 351 799 Q 373 777 385 747 L 396 715 Q 408 667 424 654 Q 436 645 439 656 Q 440 665 435 721 L 430 752 Z"/>
  <path id="z34231d3" d="M 663 784 Q 669 794 677 805 Q 690 818 681 828 Q 671 844 641 860 Q 628 870 611 863 Q 601 857 608 847 Q 617 829 605 775 L 595 736 Q 580 684 579 670 Q 580 657 595 667 Q 610 679 640 738 L 663 784 Z"/>
  <path id="z34231d4" d="M 513 597 Q 568 607 625 614 Q 671 621 677 628 Q 686 634 682 642 Q 676 652 652 660 Q 630 666 543 644 Q 453 625 357 619 Q 326 616 347 600 Q 383 576 433 586 Q 449 590 469 591 L 513 597 Z"/>
  <path id="z34231d5" d="M 258 507 Q 243 537 235 543 Q 219 556 217 532 Q 221 511 207 486 Q 194 471 176 455 Q 166 445 170 425 Q 174 398 183 383 Q 196 358 215 384 Q 228 403 237 432 Q 246 465 258 489 C 262 498 262 498 258 507 Z"/>
  <path id="z34231d6" d="M 530 516 Q 699 549 754 540 Q 769 533 768 526 Q 768 523 739 465 Q 732 453 737 448 Q 744 444 759 454 Q 811 482 851 489 Q 885 496 885 504 Q 884 514 819 567 Q 798 585 726 572 Q 615 560 532 545 L 482 538 Q 433 532 379 523 Q 324 514 267 509 Q 260 509 258 507 C 233 503 233 503 258 489 Q 285 467 327 476 Q 423 504 484 510 L 530 516 Z"/>
  <path id="z34231d7" d="M 484 510 Q 487 477 478 402 Q 472 377 497 346 Q 506 336 514 346 Q 529 373 529 461 Q 529 488 530 516 L 532 545 Q 532 554 534 562 Q 540 581 522 592 Q 518 595 513 597 C 486 611 461 620 469 591 Q 472 581 482 538 L 484 510 Z"/>
  <path id="z34231d8" d="M 340 445 Q 400 408 419 413 Q 429 416 429 431 Q 428 441 415 453 Q 391 472 336 466 Q 329 465 331 456 Q 332 450 340 445 Z"/>
  <path id="z34231d9" d="M 339 373 Q 393 334 414 338 Q 424 339 426 355 Q 425 365 412 378 Q 402 388 381 390 Q 350 394 336 394 Q 329 393 331 384 Q 332 378 339 373 Z"/>
  <path id="z34231d10" d="M 592 478 Q 659 439 679 445 Q 689 448 689 463 Q 686 473 674 485 Q 647 506 588 499 Q 581 498 583 489 Q 584 482 592 478 Z"/>
  <path id="z34231d11" d="M 583 413 Q 652 367 670 370 Q 680 371 682 387 Q 681 397 669 410 Q 656 423 633 427 Q 596 434 581 434 Q 574 433 575 424 Q 575 417 583 413 Z"/>
  <path id="z34231d12" d="M 445 277 Q 505 289 678 307 Q 688 306 696 316 Q 697 326 677 337 Q 647 358 566 336 Q 547 333 527 328 Q 515 327 337 306 Q 312 303 330 287 Q 357 265 398 271 Q 405 272 415 273 L 445 277 Z"/>
  <path id="z34231d13" d="M 425 205 Q 426 208 457 238 Q 469 245 464 253 Q 460 265 445 277 C 422 296 422 296 415 273 L 391 198 C 382 169 407 181 425 205 Z"/>
  <path id="z34231d14" d="M 284 181 Q 263 197 244 200 Q 238 201 235 196 Q 232 190 236 180 Q 261 138 260 34 Q 257 15 267 -2 Q 277 -18 293 -28 Q 305 -35 306 -25 Q 312 -21 312 -3 Q 315 9 309 50 Q 300 114 300 142 C 299 170 299 170 284 181 Z"/>
  <path id="z34231d15" d="M 580 196 Q 643 203 715 205 Q 734 202 742 192 Q 748 185 743 171 Q 740 72 733 58 Q 729 48 716 52 Q 689 56 660 62 Q 632 66 651 47 Q 712 -5 737 -44 Q 744 -54 754 -48 Q 778 -29 795 80 Q 801 147 819 167 Q 834 186 828 195 Q 821 208 772 240 Q 754 255 739 249 Q 711 239 660 232 Q 506 219 425 205 L 391 198 Q 387 198 383 197 Q 328 187 284 181 C 254 177 270 139 300 142 Q 315 141 329 146 Q 359 156 405 167 L 440 175 Q 494 188 537 191 L 580 196 Z"/>
  <path id="z34231d16" d="M 405 167 Q 405 166 406 164 Q 419 121 423 54 Q 422 35 432 20 Q 444 -1 450 12 Q 457 24 458 54 Q 459 133 461 149 Q 462 161 459 165 Q 453 169 440 175 C 413 188 396 196 405 167 Z"/>
  <path id="z34231d17" d="M 556 10 Q 559 -9 564 -17 Q 568 -23 574 -21 Q 589 -12 600 113 Q 600 140 607 162 Q 610 175 600 183 Q 588 192 580 196 C 554 211 522 217 537 191 Q 549 179 552 62 Q 553 23 556 10 Z"/>
<defs>
  <clipPath id="z34231c1"><use href="#z34231d1"/></clipPath>
  <clipPath id="z34231c2"><use href="#z34231d2"/></clipPath>
  <clipPath id="z34231c3"><use href="#z34231d3"/></clipPath>
  <clipPath id="z34231c4"><use href="#z34231d4"/></clipPath>
  <clipPath id="z34231c5"><use href="#z34231d5"/></clipPath>
  <clipPath id="z34231c6"><use href="#z34231d6"/></clipPath>
  <clipPath id="z34231c7"><use href="#z34231d7"/></clipPath>
  <clipPath id="z34231c8"><use href="#z34231d8"/></clipPath>
  <clipPath id="z34231c9"><use href="#z34231d9"/></clipPath>
  <clipPath id="z34231c10"><use href="#z34231d10"/></clipPath>
  <clipPath id="z34231c11"><use href="#z34231d11"/></clipPath>
  <clipPath id="z34231c12"><use href="#z34231d12"/></clipPath>
  <clipPath id="z34231c13"><use href="#z34231d13"/></clipPath>
  <clipPath id="z34231c14"><use href="#z34231d14"/></clipPath>
  <clipPath id="z34231c15"><use href="#z34231d15"/></clipPath>
  <clipPath id="z34231c16"><use href="#z34231d16"/></clipPath>
  <clipPath id="z34231c17"><use href="#z34231d17"/></clipPath>
</defs>
<path style="--d:1s;" pathLength="3333" clip-path="url(#z34231c1)" d="M 224 725 L 266 717 L 311 719 L 470 743 L 714 769 L 781 767 L 825 752"/>
<path style="--d:2s;" pathLength="3333" clip-path="url(#z34231c2)" d="M 357 811 L 396 790 L 431 659"/>
<path style="--d:3s;" pathLength="3333" clip-path="url(#z34231c3)" d="M 615 854 L 627 847 L 645 818 L 587 670"/>
<path style="--d:4s;" pathLength="3333" clip-path="url(#z34231c4)" d="M 350 611 L 408 602 L 581 632 L 671 638"/>
<path style="--d:5s;" pathLength="3333" clip-path="url(#z34231c5)" d="M 226 537 L 233 523 L 235 492 L 203 434 L 197 386"/>
<path style="--d:6s;" pathLength="3333" clip-path="url(#z34231c6)" d="M 264 503 L 282 493 L 305 493 L 609 545 L 760 559 L 789 549 L 806 531 L 808 519 L 742 453"/>
<path style="--d:7s;" pathLength="3333" clip-path="url(#z34231c7)" d="M 477 589 L 505 563 L 501 377 L 506 351"/>
<path style="--d:8s;" pathLength="3333" clip-path="url(#z34231c8)" d="M 343 456 L 393 441 L 414 427"/>
<path style="--d:9s;" pathLength="3333" clip-path="url(#z34231c9)" d="M 341 385 L 410 353"/>
<path style="--d:10s;" pathLength="3333" clip-path="url(#z34231c10)" d="M 595 489 L 641 477 L 674 459"/>
<path style="--d:11s;" pathLength="3333" clip-path="url(#z34231c11)" d="M 585 425 L 644 401 L 667 384"/>
<path style="--d:12s;" pathLength="3333" clip-path="url(#z34231c12)" d="M 333 297 L 365 290 L 399 292 L 634 325 L 687 318"/>
<path style="--d:13s;" pathLength="3333" clip-path="url(#z34231c13)" d="M 455 248 L 434 250 L 415 219 L 396 205"/>
<path style="--d:14s;" pathLength="3333" clip-path="url(#z34231c14)" d="M 243 191 L 267 166 L 276 140 L 285 27 L 297 -14"/>
<path style="--d:15s;" pathLength="3333" clip-path="url(#z34231c15)" d="M 291 176 L 314 164 L 511 204 L 716 224 L 751 221 L 784 184 L 775 158 L 762 51 L 753 32 L 741 15 L 734 16 L 652 56"/>
<path style="--d:16s;" pathLength="3333" clip-path="url(#z34231c16)" d="M 411 167 L 436 148 L 442 17"/>
<path style="--d:17s;" pathLength="3333" clip-path="url(#z34231c17)" d="M 547 186 L 576 163 L 571 -15"/>
</svg>