<svg id="z30146" class="acjk" viewBox="0 0 1024 1024" xmlns="http://www.w3.org/2000/svg">
<style>
<![CDATA[
@keyframes zk {
	to {
		stroke-dashoffset:0;
	}
}
svg.acjk path[clip-path] {
	--t:0.8s;
	animation:zk var(--t) linear forwards var(--d);
	stroke-dasharray:3337;
	stroke-dashoffset:3339;
	stroke-width:128;
	stroke-linecap:round;
	stroke-linejoin:round;
	fill:none;
	stroke:#000;
}
svg.acjk path[id] {fill:#ccc;}
]]>
</style>
  <path id="z30146d1" d="M 486 797 Q 534 737 572 715 Q 588 711 599 725 Q 606 738 604 756 Q 600 781 581 797 Q 554 821 501 838 Q 485 844 474 840 Q 467 839 469 826 Q 470 813 486 797 Z"/>
  <path id="z30146d2" d="M 354 605 Q 391 598 464 607 Q 741 649 772 659 Q 778 662 781 663 Q 791 670 786 680 Q 780 693 751 701 Q 726 708 618 680 Q 461 647 344 641 C 314 639 324 609 354 605 Z"/>
  <path id="z30146d3" d="M 255 343 Q 216 174 99 7 Q 95 0 92 -6 Q 89 -16 100 -15 Q 133 -9 218 116 Q 231 140 245 166 Q 314 311 336 499 Q 345 571 353 603 Q 353 604 354 605 C 360 630 360 630 344 641 Q 329 654 307 663 Q 288 675 275 670 Q 262 663 269 649 Q 287 618 283 555 Q 282 543 281 528 Q 275 449 263 380 L 255 343 Z"/>
  <path id="z30146d4" d="M 117 546 Q 172 461 199 455 Q 212 452 223 471 Q 226 486 219 509 Q 209 530 184 543 Q 144 568 126 574 Q 116 578 114 565 Q 111 556 117 546 Z"/>
  <path id="z30146d5" d="M 263 380 Q 82 292 53 289 Q 41 285 41 275 Q 41 262 52 257 Q 76 245 110 233 Q 120 232 130 242 Q 155 272 255 343 C 279 360 290 393 263 380 Z"/>
  <path id="z30146d6" d="M 464 357 Q 498 366 529 370 Q 544 371 546 367 Q 558 351 550 307 Q 537 187 508 135 Q 495 110 474 113 Q 452 122 433 132 Q 412 141 425 118 Q 462 76 479 45 Q 500 24 517 43 Q 547 67 566 106 Q 588 152 599 294 Q 603 345 620 369 Q 630 381 625 391 Q 616 401 570 420 Q 552 427 535 416 Q 520 409 473 395 L 420 382 Q 377 375 338 371 Q 322 370 320 362 Q 319 355 340 344 Q 362 331 380 336 Q 396 340 412 344 L 464 357 Z"/>
  <path id="z30146d7" d="M 412 344 Q 366 175 264 51 Q 260 45 257 40 Q 254 31 263 32 Q 299 38 379 149 Q 382 156 388 164 Q 433 242 464 357 L 473 395 Q 476 431 497 493 Q 506 505 500 517 Q 487 533 461 549 Q 445 559 433 556 Q 423 552 427 539 Q 442 506 420 382 L 412 344 Z"/>
  <path id="z30146d8" d="M 689 389 Q 680 393 663 398 Q 653 402 649 398 Q 642 392 649 378 Q 673 305 679 191 Q 678 157 695 132 Q 708 110 714 124 Q 723 143 722 179 L 719 213 Q 709 334 708 362 C 707 382 707 382 689 389 Z"/>
  <path id="z30146d9" d="M 865 232 Q 884 332 911 362 Q 935 389 910 403 Q 891 415 862 433 Q 843 443 795 417 Q 717 395 689 389 C 660 382 678 360 708 362 Q 718 362 730 365 Q 769 374 802 380 Q 824 384 830 375 Q 839 368 831 328 Q 824 285 813 235 C 807 206 859 203 865 232 Z"/>
  <path id="z30146d10" d="M 722 179 Q 728 179 735 180 Q 781 190 880 197 Q 890 198 892 208 Q 892 215 865 232 C 847 243 842 242 813 235 Q 759 222 719 213 C 690 206 692 178 722 179 Z"/>
<defs>
  <clipPath id="z30146c1"><use href="#z30146d1"/></clipPath>
  <clipPath id="z30146c2"><use href="#z30146d2"/></clipPath>
  <clipPath id="z30146c3"><use href="#z30146d3"/></clipPath>
  <clipPath id="z30146c4"><use href="#z30146d4"/></clipPath>
  <clipPath id="z30146c5"><use href="#z30146d5"/></clipPath>
  <clipPath id="z30146c6"><use href="#z30146d6"/></clipPath>
  <clipPath id="z30146c7"><use href="#z30146d7"/></clipPath>
  <clipPath id="z30146c8"><use href="#z30146d8"/></clipPath>
  <clipPath id="z30146c9"><use href="#z30146d9"/></clipPath>
  <clipPath id="z30146c10"><use href="#z30146d10"/></clipPath>
</defs>
<path style="--d:1s;" pathLength="3333" clip-path="url(#z30146c1)" d="M 482 829 L 554 774 L 579 736"/>
<path style="--d:2s;" pathLength="3333" clip-path="url(#z30146c2)" d="M 351 636 L 370 623 L 433 625 L 721 675 L 775 674"/>
<path style="--d:3s;" pathLength="3333" clip-path="url(#z30146c3)" d="M 280 657 L 314 621 L 317 594 L 301 445 L 272 306 L 244 222 L 194 118 L 131 26 L 101 -6"/>
<path style="--d:4s;" pathLength="3333" clip-path="url(#z30146c4)" d="M 126 562 L 186 504 L 202 473"/>
<path style="--d:5s;" pathLength="3333" clip-path="url(#z30146c5)" d="M 56 275 L 81 270 L 115 274 L 242 352 L 250 364"/>
<path style="--d:6s;" pathLength="3333" clip-path="url(#z30146c6)" d="M 327 361 L 381 356 L 552 395 L 569 389 L 582 376 L 565 221 L 552 161 L 534 114 L 517 92 L 498 80 L 466 96 L 426 127"/>
<path style="--d:7s;" pathLength="3333" clip-path="url(#z30146c7)" d="M 437 545 L 466 505 L 439 354 L 415 274 L 345 131 L 265 39"/>
<path style="--d:8s;" pathLength="3333" clip-path="url(#z30146c8)" d="M 656 390 L 675 371 L 687 329 L 705 129"/>
<path style="--d:9s;" pathLength="3333" clip-path="url(#z30146c9)" d="M 694 386 L 716 379 L 830 405 L 852 401 L 873 379 L 844 259 L 820 242"/>
<path style="--d:10s;" pathLength="3333" clip-path="url(#z30146c10)" d="M 728 185 L 741 200 L 810 213 L 864 214 L 884 207"/>
</svg>