<svg id="z35926" class="acjk" viewBox="0 0 1024 1024" xmlns="http://www.w3.org/2000/svg">
<style>
<![CDATA[
@keyframes zk {
	to {
		stroke-dashoffset:0;
	}
}
svg.acjk path[clip-path] {
	--t:0.8s;
	animation:zk var(--t) linear forwards var(--d);
	stroke-dasharray:3337;
	stroke-dashoffset:3339;
	stroke-width:128;
	stroke-linecap:round;
	stroke-linejoin:round;
	fill:none;
	stroke:#000;
}
svg.acjk path[id] {fill:#ccc;}
]]>
</style>
  <path id="z35926d1" d="M 438 691 Q 526 710 620 726 Q 681 739 690 748 Q 700 757 695 766 Q 688 779 655 789 Q 625 795 539 769 Q 389 727 260 717 Q 218 711 248 692 Q 299 664 368 680 Q 378 683 390 683 L 438 691 Z"/>
  <path id="z35926d2" d="M 381 578 Q 420 617 449 633 Q 459 640 458 652 Q 458 664 438 691 C 421 715 397 712 390 683 Q 383 622 181 472 Q 171 466 166 461 Q 162 454 173 452 Q 212 449 356 558 L 381 578 Z"/>
  <path id="z35926d3" d="M 524 450 Q 490 529 381 578 C 354 591 330 573 356 558 Q 375 548 392 535 L 450 484 Q 474 457 482 437 L 505 364 Q 526 268 492 125 Q 476 62 457 54 Q 442 48 367 73 Q 325 86 324 80 Q 323 73 334 59 Q 407 -2 437 -42 Q 452 -64 469 -60 Q 497 -50 521 -11 Q 564 76 571 245 Q 568 312 554 372 L 536 430 L 524 450 Z"/>
  <path id="z35926d4" d="M 392 535 Q 392 495 330 428 Q 321 421 314 411 L 280 381 Q 204 327 139 289 Q 132 286 139 283 Q 193 277 305 355 L 348 390 Q 382 421 432 470 Q 441 479 450 484 C 475 501 395 565 392 535 Z"/>
  <path id="z35926d5" d="M 482 437 Q 394 286 179 146 Q 151 130 117 108 Q 102 96 113 93 Q 122 87 136 91 Q 283 131 431 282 Q 443 295 457 310 Q 496 352 505 364 C 524 387 497 463 482 437 Z"/>
  <path id="z35926d6" d="M 314 411 Q 278 432 235 447 Q 228 451 226 442 Q 226 432 234 424 Q 256 405 280 381 L 305 355 Q 350 310 356 307 Q 363 306 369 314 Q 378 324 368 358 Q 365 373 348 390 L 314 411 Z"/>
  <path id="z35926d7" d="M 536 430 Q 657 532 720 570 Q 739 576 735 588 Q 728 606 706 626 Q 684 645 659 648 Q 643 647 644 625 Q 647 609 637 591 Q 598 536 524 450 C 504 427 513 411 536 430 Z"/>
  <path id="z35926d8" d="M 554 372 Q 743 159 786 143 Q 855 128 969 147 Q 988 148 990 154 Q 993 161 977 168 Q 922 190 858 212 Q 717 266 549 420 Q 542 426 536 430 C 512 448 534 394 554 372 Z"/>
<defs>
  <clipPath id="z35926c1"><use href="#z35926d1"/></clipPath>
  <clipPath id="z35926c2"><use href="#z35926d2"/></clipPath>
  <clipPath id="z35926c3"><use href="#z35926d3"/></clipPath>
  <clipPath id="z35926c4"><use href="#z35926d4"/></clipPath>
  <clipPath id="z35926c5"><use href="#z35926d5"/></clipPath>
  <clipPath id="z35926c6"><use href="#z35926d6"/></clipPath>
  <clipPath id="z35926c7"><use href="#z35926d7"/></clipPath>
  <clipPath id="z35926c8"><use href="#z35926d8"/></clipPath>
</defs>
<path style="--d:1s;" pathLength="3333" clip-path="url(#z35926c1)" d="M 250 706 L 274 699 L 340 700 L 633 760 L 683 760"/>
<path style="--d:2s;" pathLength="3333" clip-path="url(#z35926c2)" d="M 434 677 L 423 655 L 315 551 L 225 486 L 173 459"/>
<path style="--d:3s;" pathLength="3333" clip-path="url(#z35926c3)" d="M 364 557 L 385 560 L 428 531 L 463 501 L 496 459 L 515 416 L 534 347 L 542 265 L 540 218 L 518 89 L 495 31 L 476 9 L 466 3 L 438 15 L 328 76"/>
<path style="--d:4s;" pathLength="3333" clip-path="url(#z35926c4)" d="M 397 529 L 404 482 L 331 400 L 223 321 L 144 286"/>
<path style="--d:5s;" pathLength="3333" clip-path="url(#z35926c5)" d="M 482 429 L 472 370 L 354 244 L 239 158 L 121 99"/>
<path style="--d:6s;" pathLength="3333" clip-path="url(#z35926c6)" d="M 234 439 L 328 371 L 350 343 L 360 316"/>
<path style="--d:7s;" pathLength="3333" clip-path="url(#z35926c7)" d="M 661 630 L 682 594 L 540 450 L 541 440"/>
<path style="--d:8s;" pathLength="3333" clip-path="url(#z35926c8)" d="M 543 420 L 574 372 L 628 321 L 743 225 L 801 186 L 983 156"/>
</svg>