<svg id="z38239" class="acjk" viewBox="0 0 1024 1024" xmlns="http://www.w3.org/2000/svg">
<style>
<![CDATA[
@keyframes zk {
	to {
		stroke-dashoffset:0;
	}
}
svg.acjk path[clip-path] {
	--t:0.8s;
	animation:zk var(--t) linear forwards var(--d);
	stroke-dasharray:3337;
	stroke-dashoffset:3339;
	stroke-width:128;
	stroke-linecap:round;
	stroke-linejoin:round;
	fill:none;
	stroke:#000;
}
svg.acjk path[id] {fill:#ccc;}
]]>
</style>
  <path id="z38239d1" d="M 167 497 Q 168 500 171 502 Q 199 542 229 593 L 247 625 Q 290 719 313 743 Q 320 753 315 765 Q 311 777 283 795 Q 258 810 240 808 Q 224 805 233 786 Q 249 758 239 731 Q 191 583 56 392 Q 47 382 46 377 Q 43 367 56 370 Q 83 379 154 477 L 167 497 Z"/>
  <path id="z38239d2" d="M 229 593 Q 280 593 366 617 Q 382 621 385 624 Q 392 631 387 638 Q 380 648 355 652 Q 334 655 247 625 C 219 615 199 593 229 593 Z"/>
  <path id="z38239d3" d="M 236 474 Q 287 490 338 508 Q 345 515 340 522 Q 333 532 307 535 Q 286 536 218 510 Q 194 504 167 497 C 138 489 125 486 154 477 Q 181 468 197 468 L 236 474 Z"/>
  <path id="z38239d4" d="M 252 342 Q 279 351 312 359 Q 340 368 345 372 Q 352 379 347 386 Q 340 396 315 400 Q 300 403 254 387 L 215 372 Q 206 371 197 367 Q 160 357 113 349 Q 82 342 106 328 Q 145 310 190 325 Q 200 329 213 331 L 252 342 Z"/>
  <path id="z38239d5" d="M 213 331 Q 209 228 176 183 Q 145 168 181 124 Q 182 121 188 117 Q 198 110 208 124 Q 218 146 323 248 Q 336 260 340 267 Q 343 276 335 275 Q 326 275 246 224 Q 243 220 241 224 Q 248 288 252 342 L 254 387 Q 254 412 260 437 Q 264 447 257 457 Q 247 467 236 474 C 212 492 186 496 197 468 Q 215 429 215 372 L 213 331 Z"/>
  <path id="z38239d6" d="M 428 663 Q 453 638 482 606 Q 492 594 507 594 Q 516 594 521 605 Q 525 617 520 643 Q 513 676 427 704 Q 414 708 408 707 Q 404 703 404 692 Q 405 682 428 663 Z"/>
  <path id="z38239d7" d="M 436 472 Q 487 490 561 504 Q 570 504 576 515 Q 576 524 556 530 Q 537 542 465 519 Q 459 518 454 515 Q 423 505 393 497 Q 372 493 349 487 Q 327 483 345 470 Q 372 455 405 462 L 436 472 Z"/>
  <path id="z38239d8" d="M 442 358 Q 484 352 493 341 Q 506 319 468 194 Q 450 137 426 126 Q 417 122 379 134 Q 349 147 346 142 Q 342 135 356 125 Q 389 104 403 67 Q 407 54 417 49 Q 427 45 454 64 Q 494 97 524 239 Q 533 303 554 323 Q 563 327 564 334 Q 565 341 545 361 Q 515 388 476 381 Q 467 382 455 384 Q 454 385 452 384 C 422 388 412 363 442 358 Z"/>
  <path id="z38239d9" d="M 452 384 Q 462 411 470 425 Q 474 435 467 445 Q 451 464 436 472 C 411 489 398 491 405 462 L 406 460 Q 413 430 408 395 Q 407 395 407 391 Q 374 249 251 84 Q 247 80 247 74 Q 248 70 253 71 Q 301 83 383 231 Q 383 234 386 237 Q 422 304 442 358 L 452 384 Z"/>
  <path id="z38239d10" d="M 670 568 Q 694 611 719 671 Q 729 702 742 719 Q 748 729 742 741 Q 736 751 707 766 Q 682 776 665 774 Q 649 770 660 751 Q 673 735 670 716 Q 651 608 584 476 Q 577 466 577 460 Q 576 450 587 454 Q 612 466 656 544 L 670 568 Z"/>
  <path id="z38239d11" d="M 656 544 Q 690 529 763 549 Q 802 559 843 571 Q 865 578 869 582 Q 876 589 872 598 Q 865 608 837 612 Q 809 615 783 602 Q 758 592 729 582 Q 701 575 670 568 C 641 561 628 554 656 544 Z"/>
  <path id="z38239d12" d="M 711 429 Q 792 454 809 451 Q 824 444 822 438 Q 810 399 796 358 L 797 357 Q 801 354 814 364 Q 854 400 890 414 Q 918 427 918 435 Q 917 442 860 478 Q 844 490 638 439 Q 613 432 586 427 Q 562 424 578 412 Q 603 393 629 401 Q 651 411 675 419 L 711 429 Z"/>
  <path id="z38239d13" d="M 728 122 Q 729 203 732 269 L 733 302 Q 736 407 737 408 L 736 409 Q 723 421 711 429 C 687 446 662 446 675 419 Q 687 398 688 370 Q 689 345 690 142 C 690 112 728 92 728 122 Z"/>
  <path id="z38239d14" d="M 732 269 Q 799 282 847 289 Q 872 295 862 308 Q 849 323 822 326 Q 780 329 733 302 C 707 287 703 263 732 269 Z"/>
  <path id="z38239d15" d="M 621 186 Q 637 217 652 241 Q 659 251 647 262 Q 617 286 593 282 Q 584 279 587 268 Q 600 195 524 94 Q 509 79 492 54 Q 486 41 498 46 Q 511 49 530 65 Q 582 111 611 165 L 621 186 Z"/>
  <path id="z38239d16" d="M 611 165 Q 687 90 772 23 Q 796 4 832 7 Q 896 11 962 32 Q 978 36 980 41 Q 981 48 967 51 Q 798 91 792 94 Q 744 115 728 122 L 690 142 Q 677 149 665 158 Q 637 177 621 186 C 595 201 590 186 611 165 Z"/>
<defs>
  <clipPath id="z38239c1"><use href="#z38239d1"/></clipPath>
  <clipPath id="z38239c2"><use href="#z38239d2"/></clipPath>
  <clipPath id="z38239c3"><use href="#z38239d3"/></clipPath>
  <clipPath id="z38239c4"><use href="#z38239d4"/></clipPath>
  <clipPath id="z38239c5"><use href="#z38239d5"/></clipPath>
  <clipPath id="z38239c6"><use href="#z38239d6"/></clipPath>
  <clipPath id="z38239c7"><use href="#z38239d7"/></clipPath>
  <clipPath id="z38239c8"><use href="#z38239d8"/></clipPath>
  <clipPath id="z38239c9"><use href="#z38239d9"/></clipPath>
  <clipPath id="z38239c10"><use href="#z38239d10"/></clipPath>
  <clipPath id="z38239c11"><use href="#z38239d11"/></clipPath>
  <clipPath id="z38239c12"><use href="#z38239d12"/></clipPath>
  <clipPath id="z38239c13"><use href="#z38239d13"/></clipPath>
  <clipPath id="z38239c14"><use href="#z38239d14"/></clipPath>
  <clipPath id="z38239c15"><use href="#z38239d15"/></clipPath>
  <clipPath id="z38239c16"><use href="#z38239d16"/></clipPath>
</defs>
<path style="--d:1s;" pathLength="3333" clip-path="url(#z38239c1)" d="M 242 795 L 264 778 L 278 756 L 256 699 L 176 542 L 111 442 L 54 377"/>
<path style="--d:2s;" pathLength="3333" clip-path="url(#z38239c2)" d="M 235 597 L 264 615 L 345 632 L 377 632"/>
<path style="--d:3s;" pathLength="3333" clip-path="url(#z38239c3)" d="M 163 478 L 286 512 L 329 516"/>
<path style="--d:4s;" pathLength="3333" clip-path="url(#z38239c4)" d="M 107 339 L 178 341 L 289 376 L 337 380"/>
<path style="--d:5s;" pathLength="3333" clip-path="url(#z38239c5)" d="M 204 464 L 234 443 L 230 294 L 218 214 L 222 195 L 253 204 L 334 269"/>
<path style="--d:6s;" pathLength="3333" clip-path="url(#z38239c6)" d="M 412 698 L 478 652 L 506 609"/>
<path style="--d:7s;" pathLength="3333" clip-path="url(#z38239c7)" d="M 346 479 L 395 478 L 481 507 L 541 517 L 567 515"/>
<path style="--d:8s;" pathLength="3333" clip-path="url(#z38239c8)" d="M 452 361 L 461 369 L 497 363 L 515 353 L 525 336 L 497 210 L 472 140 L 451 107 L 431 91 L 350 138"/>
<path style="--d:9s;" pathLength="3333" clip-path="url(#z38239c9)" d="M 410 463 L 435 442 L 439 430 L 402 308 L 364 227 L 319 153 L 282 104 L 253 78"/>
<path style="--d:10s;" pathLength="3333" clip-path="url(#z38239c10)" d="M 668 761 L 701 735 L 704 720 L 655 583 L 603 485 L 585 462"/>
<path style="--d:11s;" pathLength="3333" clip-path="url(#z38239c11)" d="M 663 548 L 748 565 L 809 587 L 861 592"/>
<path style="--d:12s;" pathLength="3333" clip-path="url(#z38239c12)" d="M 581 420 L 601 415 L 628 418 L 654 431 L 798 464 L 835 459 L 854 446 L 856 435 L 800 361"/>
<path style="--d:13s;" pathLength="3333" clip-path="url(#z38239c13)" d="M 682 416 L 710 395 L 707 156 L 724 130"/>
<path style="--d:14s;" pathLength="3333" clip-path="url(#z38239c14)" d="M 740 274 L 752 291 L 778 300 L 825 306 L 851 301"/>
<path style="--d:15s;" pathLength="3333" clip-path="url(#z38239c15)" d="M 599 271 L 619 245 L 591 168 L 547 100 L 500 54"/>
<path style="--d:16s;" pathLength="3333" clip-path="url(#z38239c16)" d="M 623 179 L 628 167 L 674 130 L 800 51 L 863 42 L 974 42"/>
</svg>