<svg id="z39488" class="acjk" viewBox="0 0 1024 1024" xmlns="http://www.w3.org/2000/svg">
<style>
<![CDATA[
@keyframes zk {
	to {
		stroke-dashoffset:0;
	}
}
svg.acjk path[clip-path] {
	--t:0.8s;
	animation:zk var(--t) linear forwards var(--d);
	stroke-dasharray:3337;
	stroke-dashoffset:3339;
	stroke-width:128;
	stroke-linecap:round;
	stroke-linejoin:round;
	fill:none;
	stroke:#000;
}
svg.acjk path[id] {fill:#ccc;}
]]>
</style>
  <path id="z39488d1" d="M 411 791 Q 410 804 408 816 Q 407 832 391 835 Q 355 845 340 839 Q 327 830 340 816 Q 356 803 366 785 L 380 756 Q 393 717 408 705 Q 420 698 422 707 Q 422 710 415 765 L 411 791 Z"/>
  <path id="z39488d2" d="M 415 765 Q 425 769 441 772 Q 454 773 468 781 Q 472 785 472 791 Q 471 795 460 798 Q 438 795 411 791 L 366 785 Q 312 779 200 770 Q 190 770 189 767 Q 188 760 193 752 Q 203 740 227 730 Q 242 721 256 726 Q 314 741 380 756 L 415 765 Z"/>
  <path id="z39488d3" d="M 607 802 Q 611 814 624 827 Q 637 837 630 846 Q 621 861 596 877 Q 584 886 569 881 Q 562 877 566 868 Q 575 841 544 754 Q 537 738 535 724 Q 536 714 547 719 Q 553 722 589 773 L 607 802 Z"/>
  <path id="z39488d4" d="M 589 773 Q 595 772 679 777 Q 736 780 783 776 Q 795 775 799 782 Q 803 789 793 801 Q 757 831 680 814 Q 646 808 607 802 C 577 797 559 774 589 773 Z"/>
  <path id="z39488d5" d="M 324 671 Q 314 675 287 679 Q 277 682 274 677 Q 270 671 277 658 Q 301 618 317 547 Q 321 526 334 513 Q 350 495 353 509 Q 354 513 355 516 L 355 542 Q 349 566 347 581 L 342 605 Q 338 627 336 640 C 331 669 331 669 324 671 Z"/>
  <path id="z39488d6" d="M 578 541 Q 588 522 600 514 Q 609 507 624 524 Q 634 536 661 603 Q 671 630 693 650 Q 705 660 696 674 Q 683 690 647 715 Q 632 724 547 707 Q 538 707 415 686 Q 366 677 324 671 C 294 667 307 633 336 640 Q 421 662 570 681 Q 601 685 614 674 Q 621 668 618 657 Q 602 590 594 580 Q 590 570 577 568 Q 576 569 576 568 C 564 563 564 563 578 541 Z"/>
  <path id="z39488d7" d="M 347 581 Q 371 587 545 610 Q 563 611 556 622 Q 549 634 529 638 Q 513 641 342 605 C 313 599 318 575 347 581 Z"/>
  <path id="z39488d8" d="M 413 525 Q 474 535 578 541 C 608 543 601 552 576 568 L 574 570 Q 562 577 540 572 Q 437 551 355 542 C 325 539 325 511 355 516 Q 356 516 362 517 Q 371 520 385 521 L 413 525 Z"/>
  <path id="z39488d9" d="M 396 425 Q 459 440 581 444 L 617 446 Q 674 449 792 449 Q 810 449 815 457 Q 819 467 805 479 Q 757 515 725 507 Q 689 501 422 457 L 360 449 Q 273 440 179 428 Q 160 427 174 411 Q 187 398 203 393 Q 222 389 236 393 Q 284 406 339 416 L 396 425 Z"/>
  <path id="z39488d10" d="M 337 357 Q 362 387 396 425 L 422 457 Q 423 458 425 460 Q 446 487 448 489 Q 444 511 415 524 Q 414 525 413 525 C 387 539 387 539 385 521 Q 384 521 385 520 Q 386 496 360 449 L 339 416 Q 264 323 162 250 Q 131 229 90 201 Q 83 198 91 195 Q 152 195 281 300 Q 299 318 317 335 L 337 357 Z"/>
  <path id="z39488d11" d="M 581 444 Q 669 353 764 269 Q 788 248 825 250 Q 894 250 963 269 Q 982 272 982 277 Q 983 284 969 289 Q 801 337 794 341 Q 712 375 617 446 C 593 464 560 466 581 444 Z"/>
  <path id="z39488d12" d="M 496 340 Q 530 349 568 356 Q 592 360 595 364 Q 601 370 598 376 Q 594 383 573 389 Q 561 392 475 369 Q 444 362 405 358 Q 380 354 398 342 Q 425 327 463 334 L 496 340 Z"/>
  <path id="z39488d13" d="M 365 154 Q 365 281 375 310 Q 379 325 373 334 Q 360 349 337 357 C 309 368 309 364 317 335 Q 335 280 321 146 Q 309 112 325 95 Q 343 79 360 91 C 365 94 365 124 365 154 Z"/>
  <path id="z39488d14" d="M 512 274 Q 555 284 593 289 Q 612 292 605 302 Q 596 314 577 317 Q 534 320 513 305 L 471 294 Q 437 287 405 277 Q 392 274 408 263 Q 414 259 472 267 L 512 274 Z"/>
  <path id="z39488d15" d="M 509 207 Q 561 216 605 221 Q 623 224 617 234 Q 608 246 589 250 Q 559 253 510 236 L 473 228 Q 437 221 406 213 Q 393 212 408 199 Q 418 192 438 195 Q 454 199 474 201 L 509 207 Z"/>
  <path id="z39488d16" d="M 474 201 Q 474 182 476 155 C 478 125 508 129 508 159 Q 508 184 509 207 L 510 236 Q 510 257 512 274 C 515 304 510 295 513 305 Q 514 306 514 307 Q 518 320 512 327 Q 503 336 496 340 C 471 357 452 362 463 334 Q 470 319 471 294 L 472 267 Q 472 252 473 228 L 474 201 Z"/>
  <path id="z39488d17" d="M 476 155 Q 436 151 394 143 Q 370 133 365 154 C 343 174 333 77 360 91 Q 457 148 695 149 Q 713 150 724 141 Q 734 131 725 93 Q 713 29 697 6 Q 688 -6 664 -3 Q 639 1 616 6 Q 603 10 603 3 Q 603 -1 611 -9 Q 654 -52 670 -81 Q 677 -99 693 -90 Q 741 -68 750 -29 Q 763 16 774 65 Q 781 99 799 128 Q 811 143 800 154 Q 784 173 751 193 Q 732 205 706 193 Q 654 174 604 170 Q 567 169 508 159 L 476 155 Z"/>
  <path id="z39488d18" d="M 225 99 Q 206 50 178 5 Q 160 -25 177 -57 Q 184 -73 204 -61 Q 249 -22 250 47 Q 254 77 247 99 Q 243 106 237 108 Q 230 107 225 99 Z"/>
  <path id="z39488d19" d="M 316 42 Q 328 3 344 -14 Q 351 -20 361 -14 Q 368 -8 370 2 Q 370 35 335 59 L 333 61 Q 326 68 318 68 Q 314 69 313 62 Q 312 55 316 42 Z"/>
  <path id="z39488d20" d="M 429 55 Q 447 22 465 10 Q 474 6 481 13 Q 485 20 486 31 Q 485 47 476 56 Q 446 86 425 81 Q 421 81 422 73 Q 421 66 429 55 Z"/>
  <path id="z39488d21" d="M 537 75 Q 576 27 586 25 Q 593 24 598 33 Q 602 43 599 63 Q 598 76 579 89 Q 534 113 524 110 Q 520 109 520 99 Q 521 92 537 75 Z"/>
<defs>
  <clipPath id="z39488c1"><use href="#z39488d1"/></clipPath>
  <clipPath id="z39488c2"><use href="#z39488d2"/></clipPath>
  <clipPath id="z39488c3"><use href="#z39488d3"/></clipPath>
  <clipPath id="z39488c4"><use href="#z39488d4"/></clipPath>
  <clipPath id="z39488c5"><use href="#z39488d5"/></clipPath>
  <clipPath id="z39488c6"><use href="#z39488d6"/></clipPath>
  <clipPath id="z39488c7"><use href="#z39488d7"/></clipPath>
  <clipPath id="z39488c8"><use href="#z39488d8"/></clipPath>
  <clipPath id="z39488c9"><use href="#z39488d9"/></clipPath>
  <clipPath id="z39488c10"><use href="#z39488d10"/></clipPath>
  <clipPath id="z39488c11"><use href="#z39488d11"/></clipPath>
  <clipPath id="z39488c12"><use href="#z39488d12"/></clipPath>
  <clipPath id="z39488c13"><use href="#z39488d13"/></clipPath>
  <clipPath id="z39488c14"><use href="#z39488d14"/></clipPath>
  <clipPath id="z39488c15"><use href="#z39488d15"/></clipPath>
  <clipPath id="z39488c16"><use href="#z39488d16"/></clipPath>
  <clipPath id="z39488c17"><use href="#z39488d17"/></clipPath>
  <clipPath id="z39488c18"><use href="#z39488d18"/></clipPath>
  <clipPath id="z39488c19"><use href="#z39488d19"/></clipPath>
  <clipPath id="z39488c20"><use href="#z39488d20"/></clipPath>
  <clipPath id="z39488c21"><use href="#z39488d21"/></clipPath>
</defs>
<path style="--d:1s;" pathLength="3333" clip-path="url(#z39488c1)" d="M 347 828 L 382 810 L 415 709"/>
<path style="--d:2s;" pathLength="3333" clip-path="url(#z39488c2)" d="M 197 761 L 258 750 L 463 789"/>
<path style="--d:3s;" pathLength="3333" clip-path="url(#z39488c3)" d="M 577 872 L 597 839 L 570 773 L 543 727"/>
<path style="--d:4s;" pathLength="3333" clip-path="url(#z39488c4)" d="M 597 777 L 617 789 L 725 800 L 761 797 L 790 787"/>
<path style="--d:5s;" pathLength="3333" clip-path="url(#z39488c5)" d="M 281 672 L 306 652 L 315 632 L 344 512"/>
<path style="--d:6s;" pathLength="3333" clip-path="url(#z39488c6)" d="M 332 668 L 350 659 L 430 677 L 582 699 L 635 691 L 651 673 L 652 654 L 611 556 L 604 550 L 586 561"/>
<path style="--d:7s;" pathLength="3333" clip-path="url(#z39488c7)" d="M 348 587 L 359 599 L 384 604 L 517 622 L 549 617"/>
<path style="--d:8s;" pathLength="3333" clip-path="url(#z39488c8)" d="M 358 523 L 367 531 L 549 556 L 558 557 L 568 547"/>
<path style="--d:9s;" pathLength="3333" clip-path="url(#z39488c9)" d="M 176 420 L 212 411 L 487 456 L 734 479 L 805 462"/>
<path style="--d:10s;" pathLength="3333" clip-path="url(#z39488c10)" d="M 392 521 L 409 497 L 409 485 L 337 384 L 245 291 L 183 245 L 95 199"/>
<path style="--d:11s;" pathLength="3333" clip-path="url(#z39488c11)" d="M 587 439 L 612 433 L 705 356 L 794 297 L 846 286 L 976 278"/>
<path style="--d:12s;" pathLength="3333" clip-path="url(#z39488c12)" d="M 400 351 L 454 348 L 566 373 L 588 372"/>
<path style="--d:13s;" pathLength="3333" clip-path="url(#z39488c13)" d="M 340 344 L 349 303 L 346 166 L 339 116 L 349 100"/>
<path style="--d:14s;" pathLength="3333" clip-path="url(#z39488c14)" d="M 412 271 L 460 276 L 554 301 L 597 297"/>
<path style="--d:15s;" pathLength="3333" clip-path="url(#z39488c15)" d="M 414 207 L 563 233 L 608 230"/>
<path style="--d:16s;" pathLength="3333" clip-path="url(#z39488c16)" d="M 469 330 L 492 315 L 492 178 L 480 164"/>
<path style="--d:17s;" pathLength="3333" clip-path="url(#z39488c17)" d="M 362 99 L 382 123 L 457 141 L 722 172 L 743 164 L 764 139 L 736 23 L 711 -30 L 694 -42 L 611 -1"/>
<path style="--d:18s;" pathLength="3333" clip-path="url(#z39488c18)" d="M 236 97 L 221 25 L 192 -51"/>
<path style="--d:19s;" pathLength="3333" clip-path="url(#z39488c19)" d="M 320 61 L 340 32 L 353 -4"/>
<path style="--d:20s;" pathLength="3333" clip-path="url(#z39488c20)" d="M 431 74 L 457 49 L 471 22"/>
<path style="--d:21s;" pathLength="3333" clip-path="url(#z39488c21)" d="M 527 103 L 577 61 L 588 35"/>
</svg>