<svg id="z35336" class="acjk" viewBox="0 0 1024 1024" xmlns="http://www.w3.org/2000/svg">
<style>
<![CDATA[
@keyframes zk {
	to {
		stroke-dashoffset:0;
	}
}
svg.acjk path[clip-path] {
	--t:0.8s;
	animation:zk var(--t) linear forwards var(--d);
	stroke-dasharray:3337;
	stroke-dashoffset:3339;
	stroke-width:128;
	stroke-linecap:round;
	stroke-linejoin:round;
	fill:none;
	stroke:#000;
}
svg.acjk path[id] {fill:#ccc;}
]]>
</style>
  <path id="z35336d1" d="M 374 778 Q 405 756 437 727 Q 453 714 471 715 Q 484 716 488 732 Q 492 750 480 783 Q 473 804 437 817 Q 353 838 340 831 Q 334 827 337 812 Q 341 799 374 778 Z"/>
  <path id="z35336d2" d="M 102 598 Q 89 597 85 588 Q 81 576 98 564 Q 143 534 185 549 Q 323 594 479 617 Q 497 618 498 627 Q 499 640 480 651 Q 450 664 426 658 Q 201 607 102 598 Z"/>
  <path id="z35336d3" d="M 277 503 Q 244 494 270 481 Q 310 462 359 479 Q 399 489 443 501 Q 462 507 465 510 Q 472 517 468 526 Q 461 536 433 540 Q 412 543 337 515 Q 310 508 277 503 Z"/>
  <path id="z35336d4" d="M 293 407 Q 260 398 286 385 Q 326 366 375 383 Q 406 390 440 400 Q 455 404 457 406 Q 464 413 460 422 Q 453 432 425 436 Q 397 439 371 426 Q 355 420 336 415 Q 317 411 293 407 Z"/>
  <path id="z35336d5" d="M 249 290 Q 237 296 204 300 Q 192 301 189 297 Q 183 290 192 275 Q 222 223 242 137 Q 246 112 263 95 Q 282 73 287 90 Q 291 106 286 138 L 279 172 Q 266 236 262 260 C 257 287 257 287 249 290 Z"/>
  <path id="z35336d6" d="M 438 195 Q 459 253 479 271 Q 503 296 479 312 Q 460 324 432 342 Q 413 354 365 325 Q 313 304 249 290 C 220 283 234 249 262 260 Q 280 269 365 290 Q 395 297 403 286 Q 409 280 400 253 Q 393 231 385 205 C 376 176 428 167 438 195 Z"/>
  <path id="z35336d7" d="M 286 138 Q 295 147 442 169 Q 452 170 453 180 Q 453 186 438 195 C 414 211 414 211 385 205 Q 378 204 374 202 Q 322 184 279 172 C 250 164 259 124 286 138 Z"/>
  <path id="z35336d8" d="M 745 468 Q 812 478 917 482 Q 966 482 973 492 Q 977 505 961 517 Q 895 559 849 537 Q 806 528 746 513 L 690 502 Q 611 489 523 471 Q 502 467 519 451 Q 534 438 552 434 Q 574 430 589 435 Q 635 450 690 459 L 745 468 Z"/>
  <path id="z35336d9" d="M 690 459 Q 690 282 684 179 Q 681 -4 700 -36 Q 715 -52 724 -30 Q 743 15 744 440 Q 744 455 745 468 L 746 513 Q 749 649 755 719 Q 756 753 775 782 Q 782 798 761 815 Q 736 834 691 847 Q 670 853 657 838 Q 647 829 660 816 Q 690 791 692 755 Q 692 665 690 502 L 690 459 Z"/>
<defs>
  <clipPath id="z35336c1"><use href="#z35336d1"/></clipPath>
  <clipPath id="z35336c2"><use href="#z35336d2"/></clipPath>
  <clipPath id="z35336c3"><use href="#z35336d3"/></clipPath>
  <clipPath id="z35336c4"><use href="#z35336d4"/></clipPath>
  <clipPath id="z35336c5"><use href="#z35336d5"/></clipPath>
  <clipPath id="z35336c6"><use href="#z35336d6"/></clipPath>
  <clipPath id="z35336c7"><use href="#z35336d7"/></clipPath>
  <clipPath id="z35336c8"><use href="#z35336d8"/></clipPath>
  <clipPath id="z35336c9"><use href="#z35336d9"/></clipPath>
</defs>
<path style="--d:1s;" pathLength="3333" clip-path="url(#z35336c1)" d="M 345 824 L 440 775 L 469 734"/>
<path style="--d:2s;" pathLength="3333" clip-path="url(#z35336c2)" d="M 97 583 L 161 574 L 400 629 L 444 636 L 486 630"/>
<path style="--d:3s;" pathLength="3333" clip-path="url(#z35336c3)" d="M 271 493 L 332 492 L 401 513 L 457 520"/>
<path style="--d:4s;" pathLength="3333" clip-path="url(#z35336c4)" d="M 287 397 L 323 393 L 407 414 L 449 415"/>
<path style="--d:5s;" pathLength="3333" clip-path="url(#z35336c5)" d="M 198 290 L 230 264 L 275 95"/>
<path style="--d:6s;" pathLength="3333" clip-path="url(#z35336c6)" d="M 258 288 L 270 279 L 383 314 L 422 312 L 443 289 L 441 280 L 420 226 L 393 210"/>
<path style="--d:7s;" pathLength="3333" clip-path="url(#z35336c7)" d="M 290 147 L 302 162 L 385 183 L 443 179"/>
<path style="--d:8s;" pathLength="3333" clip-path="url(#z35336c8)" d="M 521 461 L 579 457 L 686 481 L 881 513 L 964 498"/>
<path style="--d:9s;" pathLength="3333" clip-path="url(#z35336c9)" d="M 666 828 L 692 821 L 729 786 L 718 569 L 711 -30"/>
</svg>