<svg id="z39470" class="acjk" viewBox="0 0 1024 1024" xmlns="http://www.w3.org/2000/svg">
<style>
<![CDATA[
@keyframes zk {
	to {
		stroke-dashoffset:0;
	}
}
svg.acjk path[clip-path] {
	--t:0.8s;
	animation:zk var(--t) linear forwards var(--d);
	stroke-dasharray:3337;
	stroke-dashoffset:3339;
	stroke-width:128;
	stroke-linecap:round;
	stroke-linejoin:round;
	fill:none;
	stroke:#000;
}
svg.acjk path[id] {fill:#ccc;}
]]>
</style>
  <path id="z39470d1" d="M 321 708 Q 436 738 440 740 Q 447 747 443 754 Q 436 764 411 769 Q 386 773 360 763 Q 329 751 295 742 Q 258 733 215 728 Q 212 728 213 727 C 184 720 186 715 214 704 Q 242 692 281 699 L 321 708 Z"/>
  <path id="z39470d2" d="M 213 727 Q 197 745 171 754 Q 153 761 145 752 Q 139 748 147 736 Q 163 702 162 630 Q 161 572 160 500 Q 160 430 146 372 Q 142 353 155 340 Q 170 331 196 342 C 199 343 199 372 199 402 Q 199 657 214 704 C 218 722 218 722 213 727 Z"/>
  <path id="z39470d3" d="M 336 592 Q 363 598 388 601 Q 410 605 401 617 Q 391 630 367 634 Q 354 635 338 631 L 292 617 Q 258 607 230 597 Q 214 593 234 579 L 292 583 L 336 592 Z"/>
  <path id="z39470d4" d="M 331 489 Q 356 493 380 497 Q 402 501 393 513 Q 383 526 359 530 Q 346 531 333 529 L 291 518 Q 257 506 226 496 Q 210 492 230 479 Q 237 473 253 476 Q 269 480 290 482 L 331 489 Z"/>
  <path id="z39470d5" d="M 333 529 Q 334 563 336 592 L 338 631 Q 338 646 341 668 Q 347 689 321 708 C 298 727 270 727 281 699 Q 290 684 292 617 L 292 583 Q 291 558 291 518 L 290 482 Q 290 446 290 401 C 290 371 327 379 328 409 Q 329 451 331 489 L 333 529 Z"/>
  <path id="z39470d6" d="M 196 342 Q 235 366 340 380 Q 367 383 378 372 Q 388 363 379 325 Q 372 261 361 193 Q 354 141 330 107 Q 324 101 275 115 Q 244 124 243 119 Q 242 115 249 107 Q 289 58 303 27 Q 310 8 327 17 Q 387 45 398 113 Q 414 203 427 303 Q 433 334 449 362 Q 459 377 449 387 Q 434 405 402 422 Q 383 432 359 421 Q 343 414 328 409 L 290 401 Q 260 397 221 385 Q 199 384 199 402 C 181 426 169 329 196 342 Z"/>
  <path id="z39470d7" d="M 89 280 Q 79 219 57 160 Q 45 136 65 108 Q 74 96 88 109 Q 127 152 118 240 Q 117 265 108 284 Q 102 290 98 290 Q 91 287 89 280 Z"/>
  <path id="z39470d8" d="M 155 271 Q 164 189 179 178 Q 186 172 198 180 Q 204 187 207 204 Q 208 222 196 241 Q 180 275 169 285 Q 165 289 158 283 Q 154 279 155 271 Z"/>
  <path id="z39470d9" d="M 226 287 Q 247 215 263 208 Q 270 204 280 213 Q 284 220 285 236 Q 284 252 269 268 Q 247 295 237 303 Q 231 307 227 300 Q 224 296 226 287 Z"/>
  <path id="z39470d10" d="M 291 300 Q 324 234 331 230 Q 337 229 342 233 Q 348 240 350 256 Q 351 280 299 325 Q 292 329 288 330 Q 285 329 283 322 Q 282 316 291 300 Z"/>
  <path id="z39470d11" d="M 526 619 Q 557 637 577 651 Q 634 691 652 698 Q 670 705 661 721 Q 651 734 629 748 Q 610 760 599 757 Q 589 756 591 745 Q 594 721 516 636 Q 515 635 514 633 C 496 609 500 604 526 619 Z"/>
  <path id="z39470d12" d="M 607 528 Q 534 479 526 479 Q 520 483 520 497 Q 521 582 526 604 Q 527 613 526 619 C 526 622 526 622 514 633 Q 495 652 480 654 Q 470 657 464 652 Q 457 646 466 635 Q 508 556 470 450 Q 467 449 467 446 Q 457 427 465 409 Q 477 382 491 373 Q 501 366 511 383 Q 533 420 618 513 C 638 535 632 545 607 528 Z"/>
  <path id="z39470d13" d="M 618 513 Q 633 489 646 486 Q 653 485 658 493 Q 662 502 661 521 Q 658 546 594 579 Q 584 583 580 582 Q 576 581 576 572 L 607 528 L 618 513 Z"/>
  <path id="z39470d14" d="M 730 625 Q 782 643 826 650 Q 839 651 841 648 Q 850 635 844 602 Q 834 511 810 470 Q 795 443 771 448 Q 752 454 733 461 Q 712 468 726 447 Q 762 410 778 382 Q 794 363 810 378 Q 867 418 889 556 Q 895 622 915 648 Q 925 660 920 668 Q 913 678 867 697 Q 858 701 805 681 Q 714 651 653 645 Q 638 644 636 636 Q 635 629 656 620 Q 674 608 703 617 L 730 625 Z"/>
  <path id="z39470d15" d="M 703 617 Q 709 602 709 584 Q 694 496 616 387 Q 612 383 612 378 Q 612 374 617 375 Q 663 387 746 542 Q 746 554 764 580 Q 768 589 761 599 Q 748 617 734 624 Q 733 625 730 625 C 702 637 695 639 703 617 Z"/>
  <path id="z39470d16" d="M 517 311 Q 505 317 481 322 Q 468 326 465 320 Q 458 314 466 298 Q 496 222 508 99 Q 509 62 528 36 Q 544 14 551 29 Q 555 42 557 62 L 555 93 Q 555 100 554 109 Q 538 239 534 278 C 531 305 531 305 517 311 Z"/>
  <path id="z39470d17" d="M 760 78 Q 769 56 786 19 Q 793 3 803 4 Q 816 5 826 29 Q 851 77 867 222 Q 873 265 894 290 Q 909 306 899 319 Q 880 338 840 358 Q 827 367 735 340 Q 647 319 517 311 C 487 309 505 272 534 278 Q 540 281 630 294 L 668 300 Q 791 327 809 309 Q 816 305 815 287 Q 814 202 797 120 Q 796 105 789 104 Q 786 103 773 109 C 745 113 748 106 760 78 Z"/>
  <path id="z39470d18" d="M 686 185 Q 722 191 754 193 Q 776 197 769 209 Q 759 222 735 228 Q 717 231 689 224 L 640 212 Q 604 205 575 196 Q 559 193 578 178 Q 582 175 641 179 L 686 185 Z"/>
  <path id="z39470d19" d="M 681 111 Q 682 151 686 185 L 689 224 Q 689 240 692 256 Q 701 277 668 300 C 644 318 615 320 630 294 Q 631 290 636 285 Q 639 272 640 212 L 641 179 Q 641 149 641 104 C 641 74 680 81 681 111 Z"/>
  <path id="z39470d20" d="M 557 62 Q 563 61 571 62 Q 632 74 760 78 C 790 79 796 90 773 109 Q 770 112 764 116 L 763 116 Q 762 117 759 118 Q 758 119 757 119 Q 756 120 755 120 Q 742 126 681 111 L 641 104 Q 593 100 555 93 C 525 88 527 64 557 62 Z"/>
<defs>
  <clipPath id="z39470c1"><use href="#z39470d1"/></clipPath>
  <clipPath id="z39470c2"><use href="#z39470d2"/></clipPath>
  <clipPath id="z39470c3"><use href="#z39470d3"/></clipPath>
  <clipPath id="z39470c4"><use href="#z39470d4"/></clipPath>
  <clipPath id="z39470c5"><use href="#z39470d5"/></clipPath>
  <clipPath id="z39470c6"><use href="#z39470d6"/></clipPath>
  <clipPath id="z39470c7"><use href="#z39470d7"/></clipPath>
  <clipPath id="z39470c8"><use href="#z39470d8"/></clipPath>
  <clipPath id="z39470c9"><use href="#z39470d9"/></clipPath>
  <clipPath id="z39470c10"><use href="#z39470d10"/></clipPath>
  <clipPath id="z39470c11"><use href="#z39470d11"/></clipPath>
  <clipPath id="z39470c12"><use href="#z39470d12"/></clipPath>
  <clipPath id="z39470c13"><use href="#z39470d13"/></clipPath>
  <clipPath id="z39470c14"><use href="#z39470d14"/></clipPath>
  <clipPath id="z39470c15"><use href="#z39470d15"/></clipPath>
  <clipPath id="z39470c16"><use href="#z39470d16"/></clipPath>
  <clipPath id="z39470c17"><use href="#z39470d17"/></clipPath>
  <clipPath id="z39470c18"><use href="#z39470d18"/></clipPath>
  <clipPath id="z39470c19"><use href="#z39470d19"/></clipPath>
  <clipPath id="z39470c20"><use href="#z39470d20"/></clipPath>
</defs>
<path style="--d:1s;" pathLength="3333" clip-path="url(#z39470c1)" d="M 217 721 L 235 714 L 271 716 L 393 749 L 436 748"/>
<path style="--d:2s;" pathLength="3333" clip-path="url(#z39470c2)" d="M 154 745 L 170 734 L 185 709 L 181 466 L 172 361 L 185 350"/>
<path style="--d:3s;" pathLength="3333" clip-path="url(#z39470c3)" d="M 232 588 L 349 615 L 392 611"/>
<path style="--d:4s;" pathLength="3333" clip-path="url(#z39470c4)" d="M 227 487 L 341 511 L 384 507"/>
<path style="--d:5s;" pathLength="3333" clip-path="url(#z39470c5)" d="M 288 698 L 315 676 L 310 430 L 295 408"/>
<path style="--d:6s;" pathLength="3333" clip-path="url(#z39470c6)" d="M 200 394 L 204 379 L 215 369 L 374 402 L 396 394 L 416 370 L 379 152 L 357 88 L 329 65 L 248 114"/>
<path style="--d:7s;" pathLength="3333" clip-path="url(#z39470c7)" d="M 99 280 L 98 212 L 76 116"/>
<path style="--d:8s;" pathLength="3333" clip-path="url(#z39470c8)" d="M 165 276 L 187 209 L 187 189"/>
<path style="--d:9s;" pathLength="3333" clip-path="url(#z39470c9)" d="M 235 293 L 263 243 L 268 220"/>
<path style="--d:10s;" pathLength="3333" clip-path="url(#z39470c10)" d="M 291 322 L 327 270 L 335 237"/>
<path style="--d:11s;" pathLength="3333" clip-path="url(#z39470c11)" d="M 650 712 L 618 717 L 541 642 L 519 632"/>
<path style="--d:12s;" pathLength="3333" clip-path="url(#z39470c12)" d="M 471 645 L 487 633 L 503 604 L 506 531 L 501 489 L 507 448 L 528 451 L 600 512 L 605 509"/>
<path style="--d:13s;" pathLength="3333" clip-path="url(#z39470c13)" d="M 586 574 L 633 529 L 647 499"/>
<path style="--d:14s;" pathLength="3333" clip-path="url(#z39470c14)" d="M 643 635 L 691 632 L 839 671 L 861 669 L 877 654 L 855 513 L 839 466 L 820 433 L 796 416 L 736 451"/>
<path style="--d:15s;" pathLength="3333" clip-path="url(#z39470c15)" d="M 711 614 L 728 603 L 737 586 L 723 541 L 666 437 L 617 381"/>
<path style="--d:16s;" pathLength="3333" clip-path="url(#z39470c16)" d="M 474 312 L 495 293 L 506 271 L 540 36"/>
<path style="--d:17s;" pathLength="3333" clip-path="url(#z39470c17)" d="M 526 309 L 535 300 L 575 299 L 794 336 L 829 331 L 845 317 L 854 304 L 822 107 L 803 66 L 803 18"/>
<path style="--d:18s;" pathLength="3333" clip-path="url(#z39470c18)" d="M 576 187 L 627 191 L 701 208 L 737 210 L 758 204"/>
<path style="--d:19s;" pathLength="3333" clip-path="url(#z39470c19)" d="M 637 292 L 666 265 L 662 135 L 646 113"/>
<path style="--d:20s;" pathLength="3333" clip-path="url(#z39470c20)" d="M 564 70 L 577 81 L 709 95 L 764 107"/>
</svg>