<svg id="z35769" class="acjk" viewBox="0 0 1024 1024" xmlns="http://www.w3.org/2000/svg">
<style>
<![CDATA[
@keyframes zk {
	to {
		stroke-dashoffset:0;
	}
}
svg.acjk path[clip-path] {
	--t:0.8s;
	animation:zk var(--t) linear forwards var(--d);
	stroke-dasharray:3337;
	stroke-dashoffset:3339;
	stroke-width:128;
	stroke-linecap:round;
	stroke-linejoin:round;
	fill:none;
	stroke:#000;
}
svg.acjk path[id] {fill:#ccc;}
]]>
</style>
  <path id="z35769d1" d="M 257 722 Q 288 694 321 658 Q 334 643 351 643 Q 363 643 369 657 Q 375 672 367 704 Q 358 740 255 773 Q 239 777 232 775 Q 226 771 227 758 Q 231 746 257 722 Z"/>
  <path id="z35769d2" d="M 158 476 Q 109 461 82 459 Q 67 460 65 452 Q 61 445 72 437 Q 111 412 138 423 Q 178 442 214 461 Q 239 473 247 466 Q 257 460 251 435 Q 245 267 201 145 Q 182 115 224 64 Q 234 51 244 58 Q 251 64 264 87 Q 298 132 368 208 Q 381 218 378 226 Q 377 235 366 225 Q 335 206 302 184 Q 262 151 269 201 Q 272 267 303 426 Q 307 448 330 471 Q 342 481 333 493 Q 323 509 286 527 Q 274 534 257 524 Q 194 488 158 476 Z"/>
  <path id="z35769d3" d="M 436 476 Q 514 605 533 644 Q 551 693 573 719 Q 580 731 575 743 Q 569 756 538 774 Q 510 789 491 787 Q 473 783 484 762 Q 496 740 489 704 Q 455 578 351 407 Q 342 397 341 389 Q 340 379 352 382 Q 370 389 416 448 L 436 476 Z"/>
  <path id="z35769d4" d="M 416 448 Q 419 438 424 430 Q 454 364 418 185 Q 394 133 432 75 Q 433 72 438 68 Q 454 52 466 78 Q 481 118 480 163 Q 484 346 492 387 Q 499 414 490 424 Q 447 472 436 476 C 411 493 405 476 416 448 Z"/>
  <path id="z35769d5" d="M 643 321 Q 737 417 799 500 Q 826 540 849 559 Q 859 569 855 583 Q 852 596 826 620 Q 801 641 782 642 Q 763 641 770 619 Q 791 558 642 378 L 605 335 Q 539 268 535 259 Q 531 249 545 249 Q 554 250 606 288 L 643 321 Z"/>
  <path id="z35769d6" d="M 953 131 Q 934 183 920 272 Q 917 288 910 294 Q 901 298 898 278 Q 885 166 869 146 Q 847 121 761 117 Q 713 116 692 123 Q 673 132 669 144 Q 648 198 643 321 L 642 378 Q 652 562 684 646 Q 699 677 679 696 Q 627 738 611 733 Q 595 727 602 710 Q 621 670 615 612 Q 606 446 605 335 L 606 288 Q 607 128 646 97 Q 688 64 840 66 Q 909 67 936 81 Q 967 99 953 131 Z"/>
<defs>
  <clipPath id="z35769c1"><use href="#z35769d1"/></clipPath>
  <clipPath id="z35769c2"><use href="#z35769d2"/></clipPath>
  <clipPath id="z35769c3"><use href="#z35769d3"/></clipPath>
  <clipPath id="z35769c4"><use href="#z35769d4"/></clipPath>
  <clipPath id="z35769c5"><use href="#z35769d5"/></clipPath>
  <clipPath id="z35769c6"><use href="#z35769d6"/></clipPath>
</defs>
<path style="--d:1s;" pathLength="3333" clip-path="url(#z35769c1)" d="M 237 767 L 325 704 L 350 662"/>
<path style="--d:2s;" pathLength="3333" clip-path="url(#z35769c2)" d="M 75 448 L 127 443 L 224 486 L 263 493 L 277 490 L 285 480 L 283 456 L 240 169 L 250 138 L 285 148 L 372 222"/>
<path style="--d:3s;" pathLength="3333" clip-path="url(#z35769c3)" d="M 493 773 L 511 761 L 531 731 L 520 695 L 490 619 L 426 495 L 385 431 L 350 391"/>
<path style="--d:4s;" pathLength="3333" clip-path="url(#z35769c4)" d="M 436 469 L 441 444 L 464 407 L 458 261 L 444 143 L 450 78"/>
<path style="--d:5s;" pathLength="3333" clip-path="url(#z35769c5)" d="M 781 628 L 797 610 L 811 579 L 765 500 L 648 353 L 543 257"/>
<path style="--d:6s;" pathLength="3333" clip-path="url(#z35769c6)" d="M 615 718 L 637 695 L 652 666 L 631 515 L 623 367 L 632 195 L 656 120 L 694 99 L 768 92 L 849 97 L 902 116 L 908 120 L 911 179 L 908 286"/>
</svg>