<svg id="z35365" class="acjk" viewBox="0 0 1024 1024" xmlns="http://www.w3.org/2000/svg">
<style>
<![CDATA[
@keyframes zk {
	to {
		stroke-dashoffset:0;
	}
}
svg.acjk path[clip-path] {
	--t:0.8s;
	animation:zk var(--t) linear forwards var(--d);
	stroke-dasharray:3337;
	stroke-dashoffset:3339;
	stroke-width:128;
	stroke-linecap:round;
	stroke-linejoin:round;
	fill:none;
	stroke:#000;
}
svg.acjk path[id] {fill:#ccc;}
]]>
</style>
  <path id="z35365d1" d="M 324 758 Q 346 736 369 709 Q 384 694 402 694 Q 414 694 420 709 Q 427 725 418 760 Q 412 779 383 793 Q 314 823 296 815 Q 290 811 291 796 Q 295 783 324 758 Z"/>
  <path id="z35365d2" d="M 65 560 Q 52 559 48 550 Q 45 540 61 528 Q 103 500 145 515 Q 283 563 444 590 Q 462 593 462 600 Q 463 613 444 622 Q 416 634 393 628 Q 174 574 65 560 Z"/>
  <path id="z35365d3" d="M 223 467 Q 186 458 214 443 Q 250 425 339 445 Q 357 449 376 453 Q 391 457 393 459 Q 402 468 396 476 Q 389 488 358 493 Q 339 496 266 474 Q 245 470 223 467 Z"/>
  <path id="z35365d4" d="M 209 357 Q 178 350 202 336 Q 235 321 308 339 Q 336 346 370 355 Q 389 361 393 364 Q 400 371 395 378 Q 388 388 363 392 Q 351 395 266 368 Q 241 361 209 357 Z"/>
  <path id="z35365d5" d="M 182 251 Q 170 255 144 261 Q 132 264 129 259 Q 122 252 131 237 Q 159 177 176 80 Q 179 52 196 32 Q 214 10 219 25 Q 226 46 220 85 L 215 115 Q 202 199 199 223 C 196 247 196 247 182 251 Z"/>
  <path id="z35365d6" d="M 364 136 Q 380 205 402 225 Q 426 252 402 267 Q 381 279 354 296 Q 336 308 288 281 Q 249 265 182 251 C 153 245 171 214 199 223 Q 202 226 289 244 Q 316 250 322 239 Q 329 235 322 203 Q 316 175 310 140 C 305 110 357 107 364 136 Z"/>
  <path id="z35365d7" d="M 220 85 Q 227 84 236 86 Q 279 96 374 107 Q 384 108 384 117 Q 384 124 364 136 C 343 149 339 148 310 140 Q 255 124 215 115 C 186 108 190 87 220 85 Z"/>
  <path id="z35365d8" d="M 499 523 Q 480 542 444 540 Q 431 536 436 523 Q 488 418 448 196 Q 427 129 427 126 Q 427 92 449 65 Q 456 52 468 58 Q 505 86 506 268 Q 507 431 512 480 C 514 510 515 511 499 523 Z"/>
  <path id="z35365d9" d="M 672 521 Q 723 533 780 543 Q 802 550 816 539 Q 826 532 830 482 Q 840 313 829 121 Q 828 93 818 85 Q 808 76 750 85 Q 734 89 734 79 Q 735 72 748 64 Q 800 21 825 -13 Q 847 -34 860 -32 Q 873 -28 886 1 Q 902 47 903 117 Q 891 360 892 450 Q 892 490 904 515 Q 917 537 906 550 Q 894 565 846 590 Q 825 600 806 594 Q 763 579 677 557 L 628 546 Q 564 533 499 523 C 469 518 483 472 512 480 Q 518 481 525 483 Q 571 496 624 509 L 672 521 Z"/>
  <path id="z35365d10" d="M 649 413 Q 662 456 672 521 L 677 557 Q 693 693 713 740 Q 720 755 710 767 Q 688 786 647 800 Q 622 807 612 800 Q 602 793 609 780 Q 645 717 628 546 L 624 509 Q 603 370 542 301 Q 515 274 515 271 Q 518 267 529 268 Q 536 265 556 276 Q 608 301 642 391 L 649 413 Z"/>
  <path id="z35365d11" d="M 642 391 Q 691 354 753 299 Q 768 284 780 282 Q 787 282 793 290 Q 800 302 788 336 Q 775 376 649 413 C 620 422 618 409 642 391 Z"/>
<defs>
  <clipPath id="z35365c1"><use href="#z35365d1"/></clipPath>
  <clipPath id="z35365c2"><use href="#z35365d2"/></clipPath>
  <clipPath id="z35365c3"><use href="#z35365d3"/></clipPath>
  <clipPath id="z35365c4"><use href="#z35365d4"/></clipPath>
  <clipPath id="z35365c5"><use href="#z35365d5"/></clipPath>
  <clipPath id="z35365c6"><use href="#z35365d6"/></clipPath>
  <clipPath id="z35365c7"><use href="#z35365d7"/></clipPath>
  <clipPath id="z35365c8"><use href="#z35365d8"/></clipPath>
  <clipPath id="z35365c9"><use href="#z35365d9"/></clipPath>
  <clipPath id="z35365c10"><use href="#z35365d10"/></clipPath>
  <clipPath id="z35365c11"><use href="#z35365d11"/></clipPath>
</defs>
<path style="--d:1s;" pathLength="3333" clip-path="url(#z35365c1)" d="M 302 807 L 379 753 L 401 714"/>
<path style="--d:2s;" pathLength="3333" clip-path="url(#z35365c2)" d="M 59 546 L 121 539 L 388 604 L 420 608 L 452 603"/>
<path style="--d:3s;" pathLength="3333" clip-path="url(#z35365c3)" d="M 215 456 L 271 454 L 336 469 L 386 469"/>
<path style="--d:4s;" pathLength="3333" clip-path="url(#z35365c4)" d="M 203 347 L 245 345 L 349 371 L 384 372"/>
<path style="--d:5s;" pathLength="3333" clip-path="url(#z35365c5)" d="M 138 251 L 164 228 L 171 214 L 208 31"/>
<path style="--d:6s;" pathLength="3333" clip-path="url(#z35365c6)" d="M 192 251 L 206 241 L 306 268 L 335 269 L 343 264 L 364 243 L 343 165 L 317 146"/>
<path style="--d:7s;" pathLength="3333" clip-path="url(#z35365c7)" d="M 224 93 L 234 103 L 315 120 L 374 117"/>
<path style="--d:8s;" pathLength="3333" clip-path="url(#z35365c8)" d="M 446 529 L 474 506 L 482 479 L 487 410 L 483 256 L 461 121 L 461 69"/>
<path style="--d:9s;" pathLength="3333" clip-path="url(#z35365c9)" d="M 507 518 L 527 506 L 540 508 L 809 569 L 841 559 L 863 535 L 867 149 L 862 79 L 845 42 L 799 53 L 742 79"/>
<path style="--d:10s;" pathLength="3333" clip-path="url(#z35365c10)" d="M 620 789 L 645 771 L 668 740 L 655 571 L 640 466 L 617 387 L 595 342 L 563 299 L 522 270"/>
<path style="--d:11s;" pathLength="3333" clip-path="url(#z35365c11)" d="M 652 394 L 660 397 L 748 341 L 769 319 L 779 298"/>
</svg>