<svg id="z39177" class="acjk" viewBox="0 0 1024 1024" xmlns="http://www.w3.org/2000/svg">
<style>
<![CDATA[
@keyframes zk {
	to {
		stroke-dashoffset:0;
	}
}
svg.acjk path[clip-path] {
	--t:0.8s;
	animation:zk var(--t) linear forwards var(--d);
	stroke-dasharray:3337;
	stroke-dashoffset:3339;
	stroke-width:128;
	stroke-linecap:round;
	stroke-linejoin:round;
	fill:none;
	stroke:#000;
}
svg.acjk path[id] {fill:#ccc;}
]]>
</style>
  <path id="z39177d1" d="M 193 481 Q 245 547 290 625 L 294 632 Q 316 678 346 733 L 359 760 Q 366 776 373 785 Q 380 791 378 801 Q 366 828 324 838 Q 302 842 291 838 Q 282 835 286 823 Q 316 744 187 544 Q 181 538 177 530 Q 138 475 40 368 Q 33 362 43 360 Q 85 372 174 460 L 193 481 Z"/>
  <path id="z39177d2" d="M 346 733 Q 352 729 365 720 Q 396 701 431 677 Q 444 668 457 670 Q 467 671 469 684 Q 470 697 460 722 Q 445 752 359 760 C 329 763 321 750 346 733 Z"/>
  <path id="z39177d3" d="M 290 625 Q 290 616 337 571 Q 353 558 368 560 Q 380 560 383 576 Q 383 588 373 605 Q 354 626 298 633 Q 295 633 294 632 C 288 630 288 630 290 625 Z"/>
  <path id="z39177d4" d="M 341 272 Q 356 253 369 246 Q 379 239 393 258 Q 406 280 431 396 Q 438 424 459 447 Q 471 459 460 471 Q 445 486 406 509 Q 391 515 341 500 Q 338 500 335 498 Q 256 474 234 467 C 205 458 225 430 253 440 Q 355 477 374 467 Q 386 458 383 441 Q 361 318 348 304 C 335 279 335 279 341 272 Z"/>
  <path id="z39177d5" d="M 246 350 Q 291 363 327 371 Q 346 377 338 386 Q 328 396 306 398 Q 287 398 253 384 Q 250 383 248 381 C 224 363 217 342 246 350 Z"/>
  <path id="z39177d6" d="M 242 253 Q 294 266 341 272 C 371 276 377 296 348 304 Q 333 311 243 280 C 215 270 213 246 242 253 Z"/>
  <path id="z39177d7" d="M 337 178 Q 309 163 253 128 Q 246 124 242 127 Q 236 130 238 145 Q 239 206 242 253 L 243 280 Q 244 320 246 350 L 248 381 Q 249 424 253 434 Q 253 438 253 440 C 256 458 256 458 234 467 Q 221 474 193 481 C 164 489 160 486 174 460 Q 202 421 203 296 Q 203 137 144 70 Q 120 48 158 4 Q 159 3 163 -1 Q 173 -10 187 5 Q 227 57 348 163 C 371 183 363 193 337 178 Z"/>
  <path id="z39177d8" d="M 348 163 Q 382 118 393 116 Q 403 115 409 125 Q 416 137 413 164 Q 410 188 339 222 Q 326 228 320 227 Q 316 224 315 213 Q 315 204 337 178 L 348 163 Z"/>
  <path id="z39177d9" d="M 579 521 Q 612 563 719 719 Q 734 743 756 761 Q 775 779 759 794 Q 738 809 706 815 Q 675 822 663 815 Q 650 809 659 796 Q 674 766 619 647 Q 588 586 555 518 C 542 491 561 497 579 521 Z"/>
  <path id="z39177d10" d="M 542 517 Q 524 535 490 531 Q 477 527 483 514 Q 534 424 504 236 Q 498 209 489 191 Q 473 151 506 113 Q 507 112 510 108 Q 517 95 528 101 Q 561 134 559 243 Q 555 441 558 483 Q 558 486 557 487 L 542 517 Z"/>
  <path id="z39177d11" d="M 555 518 Q 548 518 542 517 C 512 514 527 485 557 487 Q 576 486 610 493 Q 830 541 866 525 Q 879 519 882 489 Q 894 314 882 177 Q 879 149 863 145 Q 856 142 808 150 Q 793 154 794 145 Q 795 135 812 123 Q 843 90 868 56 Q 881 38 897 38 Q 915 42 937 91 Q 965 142 962 194 Q 956 318 950 433 Q 949 478 967 514 Q 982 532 965 549 Q 944 568 899 585 Q 878 597 820 572 Q 706 542 579 521 L 555 518 Z"/>
  <path id="z39177d12" d="M 637 419 Q 628 423 605 428 Q 595 429 592 426 Q 588 422 594 409 Q 615 366 628 293 Q 631 271 643 257 Q 656 241 661 252 Q 662 259 664 268 L 661 300 Q 649 372 647 394 C 645 416 645 416 637 419 Z"/>
  <path id="z39177d13" d="M 777 316 Q 796 371 814 386 Q 836 408 816 421 Q 800 431 776 449 Q 760 459 743 450 Q 721 437 693 430 Q 671 424 637 419 C 607 414 618 388 647 394 Q 662 397 723 407 Q 742 410 747 402 Q 750 398 730 317 C 723 288 767 288 777 316 Z"/>
  <path id="z39177d14" d="M 664 268 Q 668 268 676 269 Q 713 276 793 283 Q 803 284 804 293 Q 804 300 777 316 C 761 325 759 325 730 317 Q 693 307 661 300 C 632 294 634 267 664 268 Z"/>
<defs>
  <clipPath id="z39177c1"><use href="#z39177d1"/></clipPath>
  <clipPath id="z39177c2"><use href="#z39177d2"/></clipPath>
  <clipPath id="z39177c3"><use href="#z39177d3"/></clipPath>
  <clipPath id="z39177c4"><use href="#z39177d4"/></clipPath>
  <clipPath id="z39177c5"><use href="#z39177d5"/></clipPath>
  <clipPath id="z39177c6"><use href="#z39177d6"/></clipPath>
  <clipPath id="z39177c7"><use href="#z39177d7"/></clipPath>
  <clipPath id="z39177c8"><use href="#z39177d8"/></clipPath>
  <clipPath id="z39177c9"><use href="#z39177d9"/></clipPath>
  <clipPath id="z39177c10"><use href="#z39177d10"/></clipPath>
  <clipPath id="z39177c11"><use href="#z39177d11"/></clipPath>
  <clipPath id="z39177c12"><use href="#z39177d12"/></clipPath>
  <clipPath id="z39177c13"><use href="#z39177d13"/></clipPath>
  <clipPath id="z39177c14"><use href="#z39177d14"/></clipPath>
</defs>
<path style="--d:1s;" pathLength="3333" clip-path="url(#z39177c1)" d="M 298 827 L 331 794 L 305 712 L 266 630 L 182 500 L 112 423 L 46 366"/>
<path style="--d:2s;" pathLength="3333" clip-path="url(#z39177c2)" d="M 355 737 L 372 739 L 417 721 L 455 684"/>
<path style="--d:3s;" pathLength="3333" clip-path="url(#z39177c3)" d="M 298 625 L 367 576"/>
<path style="--d:4s;" pathLength="3333" clip-path="url(#z39177c4)" d="M 239 464 L 262 458 L 328 482 L 372 489 L 397 483 L 419 457 L 383 311 L 372 280 L 355 274"/>
<path style="--d:5s;" pathLength="3333" clip-path="url(#z39177c5)" d="M 252 357 L 263 371 L 302 382 L 330 381"/>
<path style="--d:6s;" pathLength="3333" clip-path="url(#z39177c6)" d="M 248 260 L 257 273 L 327 287 L 344 299"/>
<path style="--d:7s;" pathLength="3333" clip-path="url(#z39177c7)" d="M 184 461 L 200 457 L 215 444 L 221 425 L 223 274 L 208 121 L 212 96 L 257 107 L 333 162 L 335 171"/>
<path style="--d:8s;" pathLength="3333" clip-path="url(#z39177c8)" d="M 323 218 L 386 159 L 395 128"/>
<path style="--d:9s;" pathLength="3333" clip-path="url(#z39177c9)" d="M 666 804 L 680 798 L 705 772 L 638 637 L 572 529 L 560 524"/>
<path style="--d:10s;" pathLength="3333" clip-path="url(#z39177c10)" d="M 492 520 L 517 504 L 525 490 L 534 436 L 536 301 L 530 213 L 518 159 L 522 111"/>
<path style="--d:11s;" pathLength="3333" clip-path="url(#z39177c11)" d="M 549 514 L 567 503 L 585 505 L 868 557 L 894 549 L 921 524 L 917 430 L 923 186 L 918 152 L 891 105 L 859 114 L 803 143"/>
<path style="--d:12s;" pathLength="3333" clip-path="url(#z39177c12)" d="M 599 421 L 625 392 L 653 257"/>
<path style="--d:13s;" pathLength="3333" clip-path="url(#z39177c13)" d="M 646 415 L 658 409 L 748 428 L 766 423 L 782 402 L 760 341 L 738 328"/>
<path style="--d:14s;" pathLength="3333" clip-path="url(#z39177c14)" d="M 670 274 L 684 289 L 737 298 L 776 299 L 795 292"/>
</svg>