<svg id="z31509" class="acjk" viewBox="0 0 1024 1024" xmlns="http://www.w3.org/2000/svg">
<style>
<![CDATA[
@keyframes zk {
	to {
		stroke-dashoffset:0;
	}
}
svg.acjk path[clip-path] {
	--t:0.8s;
	animation:zk var(--t) linear forwards var(--d);
	stroke-dasharray:3337;
	stroke-dashoffset:3339;
	stroke-width:128;
	stroke-linecap:round;
	stroke-linejoin:round;
	fill:none;
	stroke:#000;
}
svg.acjk path[id] {fill:#ccc;}
]]>
</style>
  <path id="z31509d1" d="M 342 733 Q 352 751 365 766 Q 375 778 361 791 Q 324 821 299 819 Q 289 816 290 803 Q 299 712 208 614 Q 195 608 169 571 Q 162 558 175 561 Q 230 571 308 678 Q 315 696 327 709 L 342 733 Z"/>
  <path id="z31509d2" d="M 327 709 Q 361 699 417 711 Q 451 720 490 728 Q 509 732 512 736 Q 519 743 515 750 Q 508 760 483 765 Q 461 769 390 744 Q 366 740 342 733 C 313 725 298 717 327 709 Z"/>
  <path id="z31509d3" d="M 365 633 Q 383 617 402 599 Q 412 589 425 590 Q 434 590 437 600 Q 441 612 433 635 Q 429 648 407 658 Q 356 674 344 671 Q 340 667 341 657 Q 344 650 365 633 Z"/>
  <path id="z31509d4" d="M 627 764 Q 639 786 651 805 Q 660 817 646 829 Q 604 856 583 851 Q 573 848 577 835 Q 595 765 522 667 Q 518 666 492 627 Q 486 614 499 618 Q 512 621 530 636 Q 584 682 613 738 L 627 764 Z"/>
  <path id="z31509d5" d="M 613 738 Q 652 726 716 736 Q 762 745 813 755 Q 838 761 843 765 Q 852 772 847 781 Q 840 791 812 799 Q 782 803 754 792 Q 724 782 693 775 Q 662 768 627 764 C 597 760 584 746 613 738 Z"/>
  <path id="z31509d6" d="M 657 651 Q 678 632 700 610 Q 713 600 727 600 Q 737 600 741 612 Q 745 625 737 653 Q 731 669 706 680 Q 649 701 632 695 Q 628 691 629 679 Q 632 669 657 651 Z"/>
  <path id="z31509d7" d="M 369 544 Q 350 559 328 565 Q 319 566 313 558 Q 310 554 317 542 Q 347 470 323 341 Q 310 284 313 269 Q 322 236 333 224 Q 343 211 353 224 Q 374 248 382 399 Q 385 489 389 515 C 391 528 391 528 369 544 Z"/>
  <path id="z31509d8" d="M 614 281 Q 607 259 620 237 Q 633 209 642 210 Q 655 211 671 243 Q 686 268 684 287 Q 660 474 696 528 Q 706 544 699 554 Q 671 578 624 597 Q 609 603 586 594 Q 484 549 369 544 C 339 542 360 509 389 515 Q 393 516 396 516 Q 591 558 607 546 Q 616 527 620 473 Q 623 311 614 281 Z"/>
  <path id="z31509d9" d="M 501 305 Q 501 363 528 428 Q 535 438 526 447 Q 510 465 475 481 Q 456 493 438 488 Q 417 481 432 463 Q 457 432 456 403 Q 452 298 434 229 Q 407 102 285 31 Q 249 13 199 -8 Q 186 -11 183 -15 Q 177 -19 192 -24 Q 267 -31 378 34 Q 397 49 415 67 Q 472 130 498 284 L 501 305 Z"/>
  <path id="z31509d10" d="M 937 35 Q 918 78 904 156 Q 901 172 894 178 Q 885 182 882 162 Q 867 68 853 50 Q 823 17 698 13 Q 629 14 600 26 Q 575 39 568 56 Q 561 78 563 134 Q 570 195 583 224 Q 596 255 575 273 Q 523 313 506 308 Q 502 307 501 305 C 489 305 489 305 498 284 Q 520 244 515 187 Q 509 46 538 11 Q 563 -20 641 -33 Q 702 -42 798 -38 Q 885 -34 919 -15 Q 950 1 937 35 Z"/>
<defs>
  <clipPath id="z31509c1"><use href="#z31509d1"/></clipPath>
  <clipPath id="z31509c2"><use href="#z31509d2"/></clipPath>
  <clipPath id="z31509c3"><use href="#z31509d3"/></clipPath>
  <clipPath id="z31509c4"><use href="#z31509d4"/></clipPath>
  <clipPath id="z31509c5"><use href="#z31509d5"/></clipPath>
  <clipPath id="z31509c6"><use href="#z31509d6"/></clipPath>
  <clipPath id="z31509c7"><use href="#z31509d7"/></clipPath>
  <clipPath id="z31509c8"><use href="#z31509d8"/></clipPath>
  <clipPath id="z31509c9"><use href="#z31509d9"/></clipPath>
  <clipPath id="z31509c10"><use href="#z31509d10"/></clipPath>
</defs>
<path style="--d:1s;" pathLength="3333" clip-path="url(#z31509c1)" d="M 303 806 L 325 770 L 291 693 L 263 649 L 220 603 L 178 569"/>
<path style="--d:2s;" pathLength="3333" clip-path="url(#z31509c2)" d="M 334 713 L 470 745 L 504 745"/>
<path style="--d:3s;" pathLength="3333" clip-path="url(#z31509c3)" d="M 348 663 L 402 633 L 421 607"/>
<path style="--d:4s;" pathLength="3333" clip-path="url(#z31509c4)" d="M 586 841 L 614 809 L 602 769 L 572 707 L 501 627"/>
<path style="--d:5s;" pathLength="3333" clip-path="url(#z31509c5)" d="M 620 742 L 637 750 L 688 752 L 791 776 L 837 775"/>
<path style="--d:6s;" pathLength="3333" clip-path="url(#z31509c6)" d="M 637 689 L 700 651 L 727 615"/>
<path style="--d:7s;" pathLength="3333" clip-path="url(#z31509c7)" d="M 322 554 L 349 528 L 359 494 L 356 385 L 341 280 L 343 228"/>
<path style="--d:8s;" pathLength="3333" clip-path="url(#z31509c8)" d="M 377 543 L 386 534 L 407 530 L 600 573 L 621 570 L 634 561 L 653 533 L 647 461 L 651 294 L 643 221"/>
<path style="--d:9s;" pathLength="3333" clip-path="url(#z31509c9)" d="M 439 475 L 471 453 L 489 429 L 464 241 L 446 176 L 423 126 L 398 89 L 342 40 L 258 -1 L 189 -18"/>
<path style="--d:10s;" pathLength="3333" clip-path="url(#z31509c10)" d="M 508 299 L 550 242 L 538 133 L 546 47 L 560 24 L 591 3 L 663 -11 L 752 -12 L 826 -4 L 881 16 L 892 24 L 892 170"/>
</svg>