<svg id="z34513" class="acjk" viewBox="0 0 1024 1024" xmlns="http://www.w3.org/2000/svg">
<style>
<![CDATA[
@keyframes zk {
	to {
		stroke-dashoffset:0;
	}
}
svg.acjk path[clip-path] {
	--t:0.8s;
	animation:zk var(--t) linear forwards var(--d);
	stroke-dasharray:3337;
	stroke-dashoffset:3339;
	stroke-width:128;
	stroke-linecap:round;
	stroke-linejoin:round;
	fill:none;
	stroke:#000;
}
svg.acjk path[id] {fill:#ccc;}
]]>
</style>
  <path id="z34513d1" d="M 152 512 Q 142 516 117 520 Q 107 523 103 518 Q 97 512 105 497 Q 130 448 147 367 Q 150 342 165 327 Q 181 306 186 321 Q 187 327 188 333 L 188 362 Q 188 368 187 374 Q 174 459 170 484 C 166 507 166 507 152 512 Z"/>
  <path id="z34513d2" d="M 396 400 Q 418 479 449 502 Q 464 518 450 535 Q 435 547 388 568 Q 373 575 299 545 L 252 531 Q 204 521 152 512 C 122 507 141 477 170 484 Q 231 499 252 503 L 299 514 Q 315 518 336 523 Q 355 527 364 520 Q 376 508 351 406 C 344 377 388 371 396 400 Z"/>
  <path id="z34513d3" d="M 294 353 Q 340 362 406 371 Q 416 372 417 381 Q 417 388 396 400 L 351 406 Q 345 406 295 389 L 252 377 Q 218 370 188 362 C 159 354 158 329 188 333 Q 191 333 251 344 L 294 353 Z"/>
  <path id="z34513d4" d="M 290 234 Q 291 295 294 353 L 295 389 Q 296 453 299 514 L 299 545 Q 302 642 321 717 Q 325 729 303 744 Q 266 763 241 767 Q 225 770 216 761 Q 209 754 217 737 Q 248 694 248 663 Q 251 599 252 531 L 252 503 Q 252 442 252 377 L 251 344 Q 250 286 246 221 C 244 191 289 204 290 234 Z"/>
  <path id="z34513d5" d="M 370 259 Q 328 247 290 234 L 246 221 Q 197 209 146 194 Q 130 190 102 190 Q 89 189 87 179 Q 86 166 94 158 Q 116 142 150 123 Q 160 120 172 129 Q 199 151 349 222 Q 365 229 380 239 C 405 255 399 267 370 259 Z"/>
  <path id="z34513d6" d="M 380 239 Q 407 182 419 177 Q 426 174 434 181 Q 441 190 444 212 Q 447 245 371 311 Q 361 318 356 318 Q 352 317 349 308 Q 349 299 360 278 Q 364 269 370 259 L 380 239 Z"/>
  <path id="z34513d7" d="M 772 656 Q 678 643 581 622 Q 571 618 567 621 Q 566 625 571 633 Q 664 753 683 772 Q 696 782 689 795 Q 683 807 636 830 Q 620 837 611 834 Q 598 828 604 808 Q 620 742 521 640 Q 503 625 481 610 Q 466 598 470 587 Q 476 571 500 551 Q 510 541 524 550 Q 572 587 781 630 Q 784 631 789 632 C 818 639 802 660 772 656 Z"/>
  <path id="z34513d8" d="M 789 632 Q 828 572 842 570 Q 851 569 857 577 Q 864 587 863 613 Q 864 638 834 666 Q 765 723 748 718 Q 744 717 742 706 Q 742 697 772 656 L 789 632 Z"/>
  <path id="z34513d9" d="M 545 433 Q 546 434 548 437 Q 558 453 567 462 Q 573 469 569 480 Q 565 489 545 504 Q 526 516 512 515 Q 499 512 505 497 Q 512 487 509 476 Q 493 413 443 338 Q 437 331 435 326 Q 434 319 443 320 Q 467 326 534 416 L 545 433 Z"/>
  <path id="z34513d10" d="M 698 417 Q 828 448 831 450 Q 838 457 835 465 Q 828 475 802 483 Q 775 487 700 462 L 644 447 Q 599 440 548 434 Q 545 434 545 433 C 519 428 519 428 534 416 Q 561 389 630 403 Q 636 404 645 406 L 698 417 Z"/>
  <path id="z34513d11" d="M 697 268 Q 769 278 878 280 Q 930 280 936 290 Q 940 302 925 314 Q 865 356 814 335 Q 765 325 697 310 L 645 300 Q 558 287 459 270 Q 440 267 455 251 Q 468 238 486 234 Q 507 230 522 234 Q 579 252 645 261 L 697 268 Z"/>
  <path id="z34513d12" d="M 650 -15 Q 654 -40 662 -49 Q 668 -56 675 -54 Q 691 -44 695 13 Q 699 67 697 268 L 697 310 Q 697 358 698 417 L 700 462 Q 706 508 708 516 Q 712 532 697 542 Q 666 564 650 566 Q 637 570 622 561 Q 613 554 621 543 Q 642 498 644 447 L 645 406 Q 645 358 645 300 L 645 261 Q 645 32 650 -15 Z"/>
<defs>
  <clipPath id="z34513c1"><use href="#z34513d1"/></clipPath>
  <clipPath id="z34513c2"><use href="#z34513d2"/></clipPath>
  <clipPath id="z34513c3"><use href="#z34513d3"/></clipPath>
  <clipPath id="z34513c4"><use href="#z34513d4"/></clipPath>
  <clipPath id="z34513c5"><use href="#z34513d5"/></clipPath>
  <clipPath id="z34513c6"><use href="#z34513d6"/></clipPath>
  <clipPath id="z34513c7"><use href="#z34513d7"/></clipPath>
  <clipPath id="z34513c8"><use href="#z34513d8"/></clipPath>
  <clipPath id="z34513c9"><use href="#z34513d9"/></clipPath>
  <clipPath id="z34513c10"><use href="#z34513d10"/></clipPath>
  <clipPath id="z34513c11"><use href="#z34513d11"/></clipPath>
  <clipPath id="z34513c12"><use href="#z34513d12"/></clipPath>
</defs>
<path style="--d:1s;" pathLength="3333" clip-path="url(#z34513c1)" d="M 111 511 L 133 494 L 144 475 L 176 326"/>
<path style="--d:2s;" pathLength="3333" clip-path="url(#z34513c2)" d="M 160 510 L 178 501 L 337 542 L 379 542 L 407 516 L 379 425 L 360 417"/>
<path style="--d:3s;" pathLength="3333" clip-path="url(#z34513c3)" d="M 190 340 L 203 350 L 331 381 L 386 386 L 407 381"/>
<path style="--d:4s;" pathLength="3333" clip-path="url(#z34513c4)" d="M 228 751 L 250 738 L 278 712 L 279 704 L 270 257 L 252 229"/>
<path style="--d:5s;" pathLength="3333" clip-path="url(#z34513c5)" d="M 101 176 L 155 160 L 363 244 L 372 241"/>
<path style="--d:6s;" pathLength="3333" clip-path="url(#z34513c6)" d="M 357 310 L 411 234 L 424 189"/>
<path style="--d:7s;" pathLength="3333" clip-path="url(#z34513c7)" d="M 617 820 L 644 784 L 613 722 L 545 633 L 534 600 L 563 597 L 752 640 L 783 637"/>
<path style="--d:8s;" pathLength="3333" clip-path="url(#z34513c8)" d="M 751 709 L 828 629 L 844 583"/>
<path style="--d:9s;" pathLength="3333" clip-path="url(#z34513c9)" d="M 514 504 L 530 490 L 538 472 L 500 399 L 443 328"/>
<path style="--d:10s;" pathLength="3333" clip-path="url(#z34513c10)" d="M 542 417 L 634 424 L 796 463 L 826 459"/>
<path style="--d:11s;" pathLength="3333" clip-path="url(#z34513c11)" d="M 458 260 L 495 254 L 523 257 L 640 281 L 848 311 L 927 295"/>
<path style="--d:12s;" pathLength="3333" clip-path="url(#z34513c12)" d="M 629 552 L 661 529 L 671 510 L 671 -44"/>
</svg>