<svg id="z36744" class="acjk" viewBox="0 0 1024 1024" xmlns="http://www.w3.org/2000/svg">
<style>
<![CDATA[
@keyframes zk {
	to {
		stroke-dashoffset:0;
	}
}
svg.acjk path[clip-path] {
	--t:0.8s;
	animation:zk var(--t) linear forwards var(--d);
	stroke-dasharray:3337;
	stroke-dashoffset:3339;
	stroke-width:128;
	stroke-linecap:round;
	stroke-linejoin:round;
	fill:none;
	stroke:#000;
}
svg.acjk path[id] {fill:#ccc;}
]]>
</style>
  <path id="z36744d1" d="M 391 555 Q 394 533 405 517 Q 417 504 423 515 Q 432 534 431 557 Q 435 678 440 763 Q 444 782 425 791 Q 392 815 366 812 Q 347 806 359 785 Q 371 763 379 737 L 386 710 Q 392 679 392 650 L 392 625 Q 392 601 391 577 L 391 555 Z"/>
  <path id="z36744d2" d="M 379 737 Q 358 747 289 727 Q 285 727 282 725 Q 261 721 238 718 Q 208 712 230 700 Q 257 685 322 697 Q 373 709 386 710 C 416 714 407 727 379 737 Z"/>
  <path id="z36744d3" d="M 392 650 Q 365 666 297 636 Q 294 636 293 635 Q 274 631 252 627 Q 224 620 245 608 Q 276 596 356 616 Q 369 619 385 623 Q 388 624 392 625 C 421 633 419 637 392 650 Z"/>
  <path id="z36744d4" d="M 391 577 Q 229 523 206 522 Q 197 521 196 513 Q 195 503 202 497 Q 220 487 245 474 Q 252 473 261 478 Q 291 505 391 555 C 418 568 419 586 391 577 Z"/>
  <path id="z36744d5" d="M 624 597 Q 624 655 625 668 L 625 683 Q 626 711 626 735 Q 626 745 627 756 L 633 780 Q 634 784 636 788 Q 643 801 632 813 Q 614 826 584 840 Q 572 846 562 839 Q 555 835 559 823 Q 589 786 576 618 Q 561 573 588 530 Q 597 517 607 527 Q 620 546 622 567 L 624 597 Z"/>
  <path id="z36744d6" d="M 627 756 Q 661 747 729 760 Q 754 766 782 772 Q 801 776 804 780 Q 811 787 807 794 Q 800 804 775 809 Q 763 812 680 789 Q 658 785 633 780 C 604 774 598 763 627 756 Z"/>
  <path id="z36744d7" d="M 625 668 L 626 668 Q 653 653 718 665 Q 742 671 770 676 Q 786 679 788 681 Q 795 688 791 695 Q 784 704 761 709 Q 749 712 680 694 Q 658 690 634 686 Q 627 685 625 683 C 607 675 607 675 625 668 Z"/>
  <path id="z36744d8" d="M 622 567 Q 626 567 633 567 Q 730 576 804 579 Q 829 582 820 596 Q 810 612 784 619 Q 751 625 624 597 C 595 591 592 567 622 567 Z"/>
  <path id="z36744d9" d="M 469 398 Q 557 410 647 419 Q 714 429 724 437 Q 734 444 730 452 Q 724 465 697 474 Q 669 483 638 474 Q 568 456 494 443 L 433 434 Q 360 427 280 426 Q 244 425 268 405 Q 301 381 385 389 Q 398 390 414 392 L 469 398 Z"/>
  <path id="z36744d10" d="M 551 247 Q 581 254 693 258 Q 733 259 735 271 Q 736 284 709 303 Q 687 316 553 290 L 505 283 Q 459 279 410 271 Q 398 270 398 273 Q 397 274 402 285 Q 427 325 469 398 L 494 443 Q 513 474 527 483 Q 546 495 538 507 Q 496 558 468 563 Q 458 563 461 542 Q 464 509 433 434 L 414 392 Q 381 317 336 284 Q 312 269 325 226 Q 329 211 344 215 Q 390 230 505 242 L 551 247 Z"/>
  <path id="z36744d11" d="M 502 170 Q 340 157 151 140 Q 127 139 144 119 Q 159 103 179 96 Q 201 89 220 94 Q 394 133 499 133 L 550 137 Q 685 146 882 135 Q 904 134 910 144 Q 917 157 899 173 Q 839 218 800 210 Q 706 194 550 176 L 502 170 Z"/>
  <path id="z36744d12" d="M 553 290 Q 554 314 557 327 Q 560 339 553 344 Q 531 363 513 372 Q 503 376 494 369 Q 488 366 495 356 Q 499 349 505 283 L 505 242 Q 502 188 502 170 L 499 133 Q 493 40 487 26 Q 478 -10 510 -57 Q 520 -75 527 -78 Q 537 -79 543 -67 Q 555 -37 552 -9 Q 551 69 550 137 L 550 176 Q 550 212 551 247 L 553 290 Z"/>
<defs>
  <clipPath id="z36744c1"><use href="#z36744d1"/></clipPath>
  <clipPath id="z36744c2"><use href="#z36744d2"/></clipPath>
  <clipPath id="z36744c3"><use href="#z36744d3"/></clipPath>
  <clipPath id="z36744c4"><use href="#z36744d4"/></clipPath>
  <clipPath id="z36744c5"><use href="#z36744d5"/></clipPath>
  <clipPath id="z36744c6"><use href="#z36744d6"/></clipPath>
  <clipPath id="z36744c7"><use href="#z36744d7"/></clipPath>
  <clipPath id="z36744c8"><use href="#z36744d8"/></clipPath>
  <clipPath id="z36744c9"><use href="#z36744d9"/></clipPath>
  <clipPath id="z36744c10"><use href="#z36744d10"/></clipPath>
  <clipPath id="z36744c11"><use href="#z36744d11"/></clipPath>
  <clipPath id="z36744c12"><use href="#z36744d12"/></clipPath>
</defs>
<path style="--d:1s;" pathLength="3333" clip-path="url(#z36744c1)" d="M 369 797 L 401 771 L 407 758 L 414 670 L 414 520"/>
<path style="--d:2s;" pathLength="3333" clip-path="url(#z36744c2)" d="M 231 710 L 274 707 L 364 724 L 382 716"/>
<path style="--d:3s;" pathLength="3333" clip-path="url(#z36744c3)" d="M 247 618 L 287 618 L 367 638 L 386 631"/>
<path style="--d:4s;" pathLength="3333" clip-path="url(#z36744c4)" d="M 208 510 L 238 504 L 256 507 L 377 559 L 379 572"/>
<path style="--d:5s;" pathLength="3333" clip-path="url(#z36744c5)" d="M 569 829 L 604 793 L 598 534"/>
<path style="--d:6s;" pathLength="3333" clip-path="url(#z36744c6)" d="M 633 761 L 749 786 L 796 789"/>
<path style="--d:7s;" pathLength="3333" clip-path="url(#z36744c7)" d="M 626 676 L 670 675 L 744 690 L 781 690"/>
<path style="--d:8s;" pathLength="3333" clip-path="url(#z36744c8)" d="M 628 574 L 640 583 L 715 595 L 778 599 L 809 590"/>
<path style="--d:9s;" pathLength="3333" clip-path="url(#z36744c9)" d="M 271 417 L 310 408 L 390 409 L 663 450 L 720 447"/>
<path style="--d:10s;" pathLength="3333" clip-path="url(#z36744c10)" d="M 470 553 L 487 523 L 491 496 L 429 371 L 364 259 L 404 250 L 689 283 L 725 273"/>
<path style="--d:11s;" pathLength="3333" clip-path="url(#z36744c11)" d="M 147 130 L 201 118 L 424 147 L 810 175 L 845 170 L 897 152"/>
<path style="--d:12s;" pathLength="3333" clip-path="url(#z36744c12)" d="M 502 363 L 529 327 L 518 8 L 529 -68"/>
</svg>