<svg id="z30408" class="acjk" viewBox="0 0 1024 1024" xmlns="http://www.w3.org/2000/svg">
<style>
<![CDATA[
@keyframes zk {
	to {
		stroke-dashoffset:0;
	}
}
svg.acjk path[clip-path] {
	--t:0.8s;
	animation:zk var(--t) linear forwards var(--d);
	stroke-dasharray:3337;
	stroke-dashoffset:3339;
	stroke-width:128;
	stroke-linecap:round;
	stroke-linejoin:round;
	fill:none;
	stroke:#000;
}
svg.acjk path[id] {fill:#ccc;}
]]>
</style>
  <path id="z30408d1" d="M 401 712 Q 518 742 605 750 Q 626 756 632 748 Q 636 739 629 722 Q 610 664 587 642 Q 577 635 580 622 Q 583 603 593 596 Q 603 589 616 598 Q 662 620 707 623 Q 729 624 736 614 Q 745 599 742 572 Q 735 499 708 442 Q 701 423 683 416 Q 668 413 591 438 Q 566 448 586 423 Q 625 380 653 342 Q 669 321 691 332 Q 725 351 744 376 Q 765 404 784 503 Q 799 566 817 590 Q 833 605 823 617 Q 811 630 774 651 Q 752 661 732 654 Q 677 642 663 645 Q 641 646 654 674 Q 682 726 707 743 Q 732 756 726 768 Q 722 778 672 802 Q 656 809 639 801 Q 546 761 278 735 Q 268 736 266 730 Q 263 723 288 705 Q 313 686 341 698 Q 354 702 369 705 L 401 712 Z"/>
  <path id="z30408d2" d="M 388 557 Q 422 638 440 665 Q 447 674 442 683 Q 432 701 401 712 C 373 724 369 725 369 705 Q 369 551 247 433 Q 213 393 124 324 Q 117 317 123 315 Q 130 312 140 316 Q 278 373 340 475 Q 359 502 378 537 L 388 557 Z"/>
  <path id="z30408d3" d="M 487 442 Q 571 547 580 554 Q 592 563 587 570 Q 586 577 537 595 Q 522 602 507 592 Q 473 573 388 557 C 359 551 348 540 378 537 Q 393 531 477 549 Q 492 553 497 547 Q 500 538 451 459 L 430 432 Q 399 395 340 344 Q 330 334 341 334 Q 389 344 457 411 L 487 442 Z"/>
  <path id="z30408d4" d="M 457 411 Q 490 387 526 356 Q 539 344 550 343 Q 556 342 560 350 Q 567 360 555 389 Q 543 417 487 442 L 451 459 Q 405 480 377 488 Q 370 491 370 482 Q 370 476 430 432 L 457 411 Z"/>
  <path id="z30408d5" d="M 293 258 Q 275 268 256 272 Q 243 276 235 269 Q 228 263 236 250 Q 264 210 296 59 C 302 30 338 33 334 63 Q 316 183 317 221 C 317 245 317 245 293 258 Z"/>
  <path id="z30408d6" d="M 729 99 Q 760 204 788 244 Q 798 254 795 266 Q 788 282 729 312 Q 713 321 698 316 Q 514 282 293 258 C 263 255 288 213 317 221 Q 344 230 404 239 L 427 243 Q 478 253 533 260 L 577 267 Q 676 282 696 271 Q 703 267 701 248 Q 691 184 669 91 C 662 62 720 70 729 99 Z"/>
  <path id="z30408d7" d="M 451 73 Q 457 115 434 223 Q 433 235 427 243 C 411 269 400 269 404 239 Q 410 190 409 166 Q 409 94 426 71 C 442 46 448 43 451 73 Z"/>
  <path id="z30408d8" d="M 558 81 Q 568 105 588 183 Q 592 204 603 230 Q 613 243 604 251 Q 595 260 577 267 C 549 279 515 284 533 260 Q 558 235 534 94 Q 533 87 533 79 C 532 49 547 53 558 81 Z"/>
  <path id="z30408d9" d="M 508 37 Q 560 38 610 43 Q 751 55 880 35 Q 902 32 909 40 Q 916 53 905 64 Q 877 92 836 112 Q 827 116 729 99 L 669 91 Q 665 91 661 90 Q 603 86 558 81 L 533 79 Q 506 79 487 76 Q 468 75 451 73 L 426 71 Q 371 70 334 63 L 296 59 Q 232 53 140 55 Q 127 55 125 44 Q 124 32 141 18 Q 157 5 186 -7 Q 196 -11 214 -4 Q 230 2 301 12 Q 394 30 508 37 Z"/>
<defs>
  <clipPath id="z30408c1"><use href="#z30408d1"/></clipPath>
  <clipPath id="z30408c2"><use href="#z30408d2"/></clipPath>
  <clipPath id="z30408c3"><use href="#z30408d3"/></clipPath>
  <clipPath id="z30408c4"><use href="#z30408d4"/></clipPath>
  <clipPath id="z30408c5"><use href="#z30408d5"/></clipPath>
  <clipPath id="z30408c6"><use href="#z30408d6"/></clipPath>
  <clipPath id="z30408c7"><use href="#z30408d7"/></clipPath>
  <clipPath id="z30408c8"><use href="#z30408d8"/></clipPath>
  <clipPath id="z30408c9"><use href="#z30408d9"/></clipPath>
</defs>
<path style="--d:1s;" pathLength="3333" clip-path="url(#z30408c1)" d="M 274 728 L 320 716 L 623 773 L 658 771 L 667 764 L 623 636 L 666 630 L 725 638 L 751 633 L 778 606 L 778 591 L 747 460 L 714 393 L 681 374 L 601 426"/>
<path style="--d:2s;" pathLength="3333" clip-path="url(#z30408c2)" d="M 376 697 L 403 670 L 371 576 L 341 515 L 310 469 L 252 405 L 176 346 L 128 319"/>
<path style="--d:3s;" pathLength="3333" clip-path="url(#z30408c3)" d="M 382 541 L 400 550 L 486 566 L 514 567 L 533 558 L 494 484 L 439 415 L 388 368 L 345 339"/>
<path style="--d:4s;" pathLength="3333" clip-path="url(#z30408c4)" d="M 375 483 L 500 409 L 532 382 L 548 356"/>
<path style="--d:5s;" pathLength="3333" clip-path="url(#z30408c5)" d="M 245 260 L 275 237 L 287 213 L 313 79 L 326 74"/>
<path style="--d:6s;" pathLength="3333" clip-path="url(#z30408c6)" d="M 302 255 L 328 243 L 621 289 L 695 295 L 713 291 L 744 255 L 706 126 L 676 98"/>
<path style="--d:7s;" pathLength="3333" clip-path="url(#z30408c7)" d="M 411 230 L 420 226 L 432 109 L 444 78"/>
<path style="--d:8s;" pathLength="3333" clip-path="url(#z30408c8)" d="M 546 254 L 573 234 L 559 139 L 548 94 L 539 86"/>
<path style="--d:9s;" pathLength="3333" clip-path="url(#z30408c9)" d="M 138 42 L 195 23 L 418 51 L 808 78 L 839 74 L 898 49"/>
</svg>