<svg id="z39478" class="acjk" viewBox="0 0 1024 1024" xmlns="http://www.w3.org/2000/svg">
<style>
<![CDATA[
@keyframes zk {
	to {
		stroke-dashoffset:0;
	}
}
svg.acjk path[clip-path] {
	--t:0.8s;
	animation:zk var(--t) linear forwards var(--d);
	stroke-dasharray:3337;
	stroke-dashoffset:3339;
	stroke-width:128;
	stroke-linecap:round;
	stroke-linejoin:round;
	fill:none;
	stroke:#000;
}
svg.acjk path[id] {fill:#ccc;}
]]>
</style>
  <path id="z39478d1" d="M 322 710 Q 437 743 440 744 Q 447 751 443 758 Q 436 768 411 773 Q 386 777 360 765 Q 330 753 299 744 Q 263 734 222 728 Q 221 728 221 727 C 192 719 197 705 227 702 Q 267 698 287 700 L 322 710 Z"/>
  <path id="z39478d2" d="M 221 727 Q 205 742 183 751 Q 165 757 157 748 Q 151 744 159 732 Q 171 705 172 586 Q 166 415 154 369 Q 150 350 163 337 Q 178 327 204 338 C 208 339 208 368 208 398 Q 208 683 227 702 C 233 717 233 717 221 727 Z"/>
  <path id="z39478d3" d="M 345 585 Q 376 592 405 598 Q 426 602 417 613 Q 407 626 384 628 Q 369 629 347 623 L 301 608 Q 271 598 245 588 Q 232 584 250 571 L 301 576 L 345 585 Z"/>
  <path id="z39478d4" d="M 341 484 Q 375 493 405 498 Q 426 502 417 513 Q 407 526 385 528 Q 367 529 342 522 L 301 508 Q 268 498 241 488 Q 228 484 246 471 Q 252 468 301 476 L 341 484 Z"/>
  <path id="z39478d5" d="M 342 522 Q 343 555 345 585 L 347 623 Q 347 642 350 664 Q 357 688 322 710 C 297 727 275 727 287 700 Q 300 678 301 608 L 301 576 Q 301 548 301 508 L 301 476 Q 302 442 302 397 C 302 367 340 375 340 405 Q 340 447 341 484 L 342 522 Z"/>
  <path id="z39478d6" d="M 204 338 Q 234 360 352 376 Q 379 379 390 368 Q 400 359 391 321 Q 384 257 373 189 Q 366 137 342 103 Q 335 96 316 100 Q 288 109 264 117 Q 251 121 251 115 Q 250 111 258 103 Q 301 54 315 22 Q 322 3 339 12 Q 399 40 410 109 Q 426 199 439 299 Q 445 330 461 358 Q 471 373 461 383 Q 446 401 414 418 Q 395 428 371 417 Q 355 410 340 405 L 302 397 Q 274 393 229 381 Q 207 380 208 398 C 191 423 177 324 204 338 Z"/>
  <path id="z39478d7" d="M 88 280 Q 78 220 56 164 Q 44 136 65 109 Q 74 96 89 109 Q 128 154 119 237 Q 118 265 108 284 Q 102 290 97 290 Q 90 287 88 280 Z"/>
  <path id="z39478d8" d="M 155 271 Q 164 189 179 178 Q 186 172 198 180 Q 204 187 207 204 Q 208 222 196 241 Q 180 275 169 285 Q 165 289 158 283 Q 154 279 155 271 Z"/>
  <path id="z39478d9" d="M 226 283 Q 247 211 263 204 Q 270 200 280 209 Q 284 216 285 232 Q 284 248 269 264 Q 247 291 237 299 Q 231 303 227 296 Q 224 292 226 283 Z"/>
  <path id="z39478d10" d="M 291 300 Q 324 234 331 230 Q 337 229 342 233 Q 348 240 350 256 Q 351 280 299 325 Q 292 329 288 330 Q 285 329 283 322 Q 282 316 291 300 Z"/>
  <path id="z39478d11" d="M 517 627 Q 541 651 565 677 L 579 693 Q 609 741 633 760 Q 640 767 637 779 Q 634 789 612 808 Q 591 823 576 823 Q 561 822 567 805 Q 579 778 528 694 Q 503 655 470 612 Q 461 605 460 600 Q 457 591 468 593 Q 474 594 508 619 L 517 627 Z"/>
  <path id="z39478d12" d="M 565 677 Q 634 677 726 699 Q 759 706 778 707 Q 788 708 791 703 Q 795 697 794 676 Q 791 586 778 537 Q 768 506 758 489 Q 751 473 739 471 Q 730 470 683 485 Q 676 489 675 484 Q 674 481 683 472 Q 710 436 721 411 Q 727 396 737 395 Q 762 395 795 442 Q 825 497 852 654 Q 855 673 868 685 Q 878 695 878 703 Q 877 709 861 720 Q 839 736 811 745 Q 790 752 775 745 Q 759 738 719 727 Q 664 711 625 702 Q 597 698 579 693 C 550 686 535 676 565 677 Z"/>
  <path id="z39478d13" d="M 698 567 Q 667 563 641 556 L 602 547 Q 577 543 555 534 Q 545 533 548 544 Q 555 593 552 602 Q 542 614 527 624 Q 521 628 517 627 C 505 630 505 630 508 619 Q 508 616 510 612 Q 531 558 498 523 Q 480 507 510 484 Q 519 478 526 484 Q 538 500 595 516 L 633 528 Q 648 537 693 541 C 723 544 728 571 698 567 Z"/>
  <path id="z39478d14" d="M 693 541 Q 694 522 701 509 Q 705 499 715 505 Q 731 520 740 577 Q 749 610 756 618 Q 763 628 756 637 Q 744 649 723 663 Q 716 669 706 665 Q 702 664 702 654 Q 708 645 709 604 Q 705 582 698 567 L 693 541 Z"/>
  <path id="z39478d15" d="M 641 556 Q 648 607 654 621 Q 660 630 655 639 Q 645 651 625 660 Q 612 667 604 664 Q 597 660 600 651 Q 616 626 602 547 L 595 516 Q 580 474 561 442 Q 557 438 556 433 Q 555 426 561 428 Q 565 428 587 448 Q 614 476 633 528 L 641 556 Z"/>
  <path id="z39478d16" d="M 559 345 Q 575 364 594 384 Q 601 393 599 400 Q 596 410 576 414 Q 554 420 546 417 Q 540 416 539 405 Q 533 365 463 290 Q 448 277 468 281 L 469 281 C 480 282 480 282 486 287 Q 528 317 543 329 L 559 345 Z"/>
  <path id="z39478d17" d="M 613 328 Q 760 355 780 354 Q 793 355 796 350 Q 800 343 800 314 Q 799 196 782 132 Q 760 54 733 44 Q 721 41 656 62 Q 647 65 647 60 Q 646 56 657 47 Q 694 7 711 -23 Q 720 -42 731 -41 Q 746 -41 761 -27 Q 813 12 841 143 Q 853 204 865 289 Q 866 313 883 328 Q 895 341 894 348 Q 893 355 876 367 Q 852 386 820 396 Q 798 403 781 396 Q 762 389 717 378 Q 654 362 610 354 Q 580 350 559 345 C 530 339 513 332 543 329 Q 561 328 579 324 L 613 328 Z"/>
  <path id="z39478d18" d="M 622 179 Q 641 191 692 191 C 722 191 727 222 697 219 Q 660 215 628 208 L 583 199 Q 550 193 522 183 Q 509 180 513 195 Q 522 253 517 261 Q 496 286 486 287 C 466 297 466 297 469 281 Q 468 278 471 271 Q 495 211 462 173 Q 447 158 452 148 Q 459 138 472 129 Q 482 123 489 129 Q 504 148 576 167 L 622 179 Z"/>
  <path id="z39478d19" d="M 692 191 Q 693 172 700 158 Q 706 146 715 154 Q 737 172 739 221 Q 740 225 741 230 Q 747 258 758 271 Q 765 281 758 292 Q 745 304 722 319 Q 715 325 705 321 Q 699 318 700 309 Q 721 276 697 219 L 692 191 Z"/>
  <path id="z39478d20" d="M 576 167 Q 555 89 484 28 Q 472 19 469 14 Q 468 10 476 8 Q 500 7 549 44 Q 588 77 620 172 Q 620 176 622 179 L 628 208 Q 637 248 646 289 Q 653 305 637 314 Q 624 323 613 328 C 586 342 566 351 579 324 Q 580 321 583 316 Q 595 294 583 199 L 576 167 Z"/>
<defs>
  <clipPath id="z39478c1"><use href="#z39478d1"/></clipPath>
  <clipPath id="z39478c2"><use href="#z39478d2"/></clipPath>
  <clipPath id="z39478c3"><use href="#z39478d3"/></clipPath>
  <clipPath id="z39478c4"><use href="#z39478d4"/></clipPath>
  <clipPath id="z39478c5"><use href="#z39478d5"/></clipPath>
  <clipPath id="z39478c6"><use href="#z39478d6"/></clipPath>
  <clipPath id="z39478c7"><use href="#z39478d7"/></clipPath>
  <clipPath id="z39478c8"><use href="#z39478d8"/></clipPath>
  <clipPath id="z39478c9"><use href="#z39478d9"/></clipPath>
  <clipPath id="z39478c10"><use href="#z39478d10"/></clipPath>
  <clipPath id="z39478c11"><use href="#z39478d11"/></clipPath>
  <clipPath id="z39478c12"><use href="#z39478d12"/></clipPath>
  <clipPath id="z39478c13"><use href="#z39478d13"/></clipPath>
  <clipPath id="z39478c14"><use href="#z39478d14"/></clipPath>
  <clipPath id="z39478c15"><use href="#z39478d15"/></clipPath>
  <clipPath id="z39478c16"><use href="#z39478d16"/></clipPath>
  <clipPath id="z39478c17"><use href="#z39478d17"/></clipPath>
  <clipPath id="z39478c18"><use href="#z39478d18"/></clipPath>
  <clipPath id="z39478c19"><use href="#z39478d19"/></clipPath>
  <clipPath id="z39478c20"><use href="#z39478d20"/></clipPath>
</defs>
<path style="--d:1s;" pathLength="3333" clip-path="url(#z39478c1)" d="M 227 722 L 240 715 L 269 717 L 331 731 L 384 751 L 436 752"/>
<path style="--d:2s;" pathLength="3333" clip-path="url(#z39478c2)" d="M 166 741 L 195 711 L 189 465 L 180 367 L 180 357 L 193 346"/>
<path style="--d:3s;" pathLength="3333" clip-path="url(#z39478c3)" d="M 248 580 L 369 610 L 409 607"/>
<path style="--d:4s;" pathLength="3333" clip-path="url(#z39478c4)" d="M 244 480 L 354 507 L 389 512 L 409 507"/>
<path style="--d:5s;" pathLength="3333" clip-path="url(#z39478c5)" d="M 294 698 L 318 684 L 324 672 L 322 430 L 318 415 L 307 406"/>
<path style="--d:6s;" pathLength="3333" clip-path="url(#z39478c6)" d="M 208 390 L 213 375 L 232 366 L 386 398 L 408 390 L 428 366 L 391 148 L 369 84 L 341 60 L 258 111"/>
<path style="--d:7s;" pathLength="3333" clip-path="url(#z39478c7)" d="M 98 280 L 96 207 L 77 117"/>
<path style="--d:8s;" pathLength="3333" clip-path="url(#z39478c8)" d="M 165 276 L 187 209 L 187 189"/>
<path style="--d:9s;" pathLength="3333" clip-path="url(#z39478c9)" d="M 235 289 L 263 239 L 268 216"/>
<path style="--d:10s;" pathLength="3333" clip-path="url(#z39478c10)" d="M 291 322 L 327 270 L 335 237"/>
<path style="--d:11s;" pathLength="3333" clip-path="url(#z39478c11)" d="M 575 812 L 593 793 L 598 770 L 538 674 L 493 619 L 468 601"/>
<path style="--d:12s;" pathLength="3333" clip-path="url(#z39478c12)" d="M 571 679 L 587 687 L 653 695 L 786 727 L 810 720 L 830 697 L 803 536 L 772 459 L 747 437 L 695 470 L 693 479 L 680 479"/>
<path style="--d:13s;" pathLength="3333" clip-path="url(#z39478c13)" d="M 517 618 L 534 594 L 535 557 L 529 533 L 541 518 L 678 552 L 691 562"/>
<path style="--d:14s;" pathLength="3333" clip-path="url(#z39478c14)" d="M 712 657 L 732 626 L 710 515"/>
<path style="--d:15s;" pathLength="3333" clip-path="url(#z39478c15)" d="M 609 655 L 631 625 L 619 540 L 591 470 L 561 433"/>
<path style="--d:16s;" pathLength="3333" clip-path="url(#z39478c16)" d="M 586 397 L 563 390 L 528 340 L 469 287"/>
<path style="--d:17s;" pathLength="3333" clip-path="url(#z39478c17)" d="M 549 331 L 624 340 L 632 346 L 793 376 L 819 368 L 840 341 L 813 138 L 790 68 L 767 28 L 739 5 L 670 47 L 667 55 L 652 59"/>
<path style="--d:18s;" pathLength="3333" clip-path="url(#z39478c18)" d="M 475 277 L 497 256 L 500 227 L 494 180 L 501 168 L 521 165 L 548 176 L 677 204 L 690 213"/>
<path style="--d:19s;" pathLength="3333" clip-path="url(#z39478c19)" d="M 711 311 L 733 278 L 710 166"/>
<path style="--d:20s;" pathLength="3333" clip-path="url(#z39478c20)" d="M 585 322 L 609 306 L 617 293 L 593 152 L 573 108 L 541 60 L 507 30 L 475 14"/>
</svg>