<svg id="z33261" class="acjk" viewBox="0 0 1024 1024" xmlns="http://www.w3.org/2000/svg">
<style>
<![CDATA[
@keyframes zk {
	to {
		stroke-dashoffset:0;
	}
}
svg.acjk path[clip-path] {
	--t:0.8s;
	animation:zk var(--t) linear forwards var(--d);
	stroke-dasharray:3337;
	stroke-dashoffset:3339;
	stroke-width:128;
	stroke-linecap:round;
	stroke-linejoin:round;
	fill:none;
	stroke:#000;
}
svg.acjk path[id] {fill:#ccc;}
]]>
</style>
  <path id="z33261d1" d="M 384 690 Q 418 718 441 739 Q 498 797 519 809 Q 540 822 526 840 Q 510 855 480 866 Q 453 876 440 872 Q 427 868 434 855 Q 443 825 360 691 Q 359 688 358 685 C 348 661 361 671 384 690 Z"/>
  <path id="z33261d2" d="M 334 681 Q 312 694 291 700 Q 284 701 280 697 Q 271 691 281 680 Q 320 614 324 457 Q 327 391 360 369 Q 361 369 363 367 Q 381 361 382 392 Q 382 393 382 394 L 381 425 Q 372 482 371 486 L 369 511 Q 366 538 363 567 L 362 590 Q 361 629 360 649 C 359 667 359 667 334 681 Z"/>
  <path id="z33261d3" d="M 590 411 Q 611 384 629 376 Q 641 369 656 393 Q 672 427 694 611 Q 701 645 725 672 Q 738 685 725 700 Q 709 718 662 742 Q 646 749 568 730 Q 558 730 384 690 L 358 685 Q 345 684 334 681 C 304 676 331 641 360 649 Q 438 673 579 696 Q 610 702 620 691 Q 639 672 637 652 Q 618 454 597 440 C 584 418 584 418 590 411 Z"/>
  <path id="z33261d4" d="M 363 567 Q 372 566 384 567 Q 481 586 551 597 Q 573 601 565 613 Q 555 626 531 630 Q 506 633 362 590 C 333 581 333 569 363 567 Z"/>
  <path id="z33261d5" d="M 371 486 Q 377 485 387 486 Q 481 501 551 509 Q 573 513 565 525 Q 555 538 531 544 Q 509 547 369 511 C 340 504 341 488 371 486 Z"/>
  <path id="z33261d6" d="M 382 394 Q 389 393 400 394 Q 460 406 590 411 C 620 412 618 419 597 440 Q 594 444 588 448 Q 573 457 545 451 Q 454 433 381 425 C 351 422 352 396 382 394 Z"/>
  <path id="z33261d7" d="M 491 258 Q 500 259 765 277 Q 784 277 788 286 Q 792 298 777 310 Q 726 346 689 337 Q 616 319 499 296 L 428 283 Q 317 267 191 246 Q 172 243 187 227 Q 200 214 218 210 Q 239 206 254 210 Q 333 235 424 248 L 491 258 Z"/>
  <path id="z33261d8" d="M 490 255 Q 490 256 491 258 L 499 296 Q 503 312 508 319 Q 515 326 510 338 Q 503 345 471 359 Q 435 377 418 370 Q 405 363 416 346 Q 426 316 428 283 L 424 248 Q 406 128 284 54 Q 242 33 167 3 Q 139 -9 171 -12 Q 265 -16 372 53 Q 385 63 399 77 Q 453 126 481 222 L 490 255 Z"/>
  <path id="z33261d9" d="M 481 222 Q 670 -6 719 -21 Q 785 -36 905 -18 Q 926 -17 928 -11 Q 931 -4 914 4 Q 707 88 677 107 Q 563 183 493 253 Q 490 254 490 255 C 468 275 462 245 481 222 Z"/>
  <path id="z33261d10" d="M 798 391 Q 867 346 883 350 Q 895 353 897 368 Q 898 384 883 413 Q 867 440 782 439 Q 766 439 759 435 Q 755 431 759 417 Q 766 407 798 391 Z"/>
<defs>
  <clipPath id="z33261c1"><use href="#z33261d1"/></clipPath>
  <clipPath id="z33261c2"><use href="#z33261d2"/></clipPath>
  <clipPath id="z33261c3"><use href="#z33261d3"/></clipPath>
  <clipPath id="z33261c4"><use href="#z33261d4"/></clipPath>
  <clipPath id="z33261c5"><use href="#z33261d5"/></clipPath>
  <clipPath id="z33261c6"><use href="#z33261d6"/></clipPath>
  <clipPath id="z33261c7"><use href="#z33261d7"/></clipPath>
  <clipPath id="z33261c8"><use href="#z33261d8"/></clipPath>
  <clipPath id="z33261c9"><use href="#z33261d9"/></clipPath>
  <clipPath id="z33261c10"><use href="#z33261d10"/></clipPath>
</defs>
<path style="--d:1s;" pathLength="3333" clip-path="url(#z33261c1)" d="M 441 862 L 454 854 L 473 825 L 384 704 L 369 700"/>
<path style="--d:2s;" pathLength="3333" clip-path="url(#z33261c2)" d="M 286 689 L 316 664 L 331 638 L 350 449 L 368 377"/>
<path style="--d:3s;" pathLength="3333" clip-path="url(#z33261c3)" d="M 341 678 L 373 670 L 452 691 L 607 718 L 640 714 L 667 694 L 677 678 L 666 635 L 645 478 L 629 422 L 634 396"/>
<path style="--d:4s;" pathLength="3333" clip-path="url(#z33261c4)" d="M 368 573 L 402 588 L 494 607 L 534 612 L 555 607"/>
<path style="--d:5s;" pathLength="3333" clip-path="url(#z33261c5)" d="M 375 493 L 386 502 L 496 522 L 529 525 L 555 519"/>
<path style="--d:6s;" pathLength="3333" clip-path="url(#z33261c6)" d="M 387 402 L 398 410 L 431 416 L 585 435"/>
<path style="--d:7s;" pathLength="3333" clip-path="url(#z33261c7)" d="M 190 236 L 245 231 L 408 264 L 707 306 L 777 291"/>
<path style="--d:8s;" pathLength="3333" clip-path="url(#z33261c8)" d="M 425 357 L 464 319 L 463 297 L 446 206 L 408 129 L 360 77 L 296 35 L 256 18 L 178 -2"/>
<path style="--d:9s;" pathLength="3333" clip-path="url(#z33261c9)" d="M 495 245 L 500 220 L 553 168 L 629 99 L 715 36 L 777 14 L 921 -9"/>
<path style="--d:10s;" pathLength="3333" clip-path="url(#z33261c10)" d="M 766 429 L 850 398 L 880 366"/>
</svg>