<svg id="z36154" class="acjk" viewBox="0 0 1024 1024" xmlns="http://www.w3.org/2000/svg">
<style>
<![CDATA[
@keyframes zk {
	to {
		stroke-dashoffset:0;
	}
}
svg.acjk path[clip-path] {
	--t:0.8s;
	animation:zk var(--t) linear forwards var(--d);
	stroke-dasharray:3337;
	stroke-dashoffset:3339;
	stroke-width:128;
	stroke-linecap:round;
	stroke-linejoin:round;
	fill:none;
	stroke:#000;
}
svg.acjk path[id] {fill:#ccc;}
]]>
</style>
  <path id="z36154d1" d="M 355 701 Q 383 708 412 712 Q 431 715 436 709 Q 443 699 437 672 Q 427 599 408 567 Q 389 537 361 544 Q 340 550 323 556 Q 299 565 315 541 Q 349 501 365 471 Q 378 453 394 465 Q 448 493 488 633 Q 497 682 517 702 Q 530 714 524 724 Q 517 734 468 758 Q 449 767 431 755 Q 415 746 366 732 L 312 719 Q 230 700 162 695 Q 146 694 143 686 Q 142 679 164 668 Q 186 655 204 661 Q 255 677 301 688 L 355 701 Z"/>
  <path id="z36154d2" d="M 301 688 Q 256 580 134 460 Q 128 453 134 450 Q 141 449 151 454 Q 206 484 250 528 Q 314 588 355 701 L 366 732 Q 375 768 392 804 Q 399 814 392 822 Q 386 831 357 844 Q 336 853 328 850 Q 316 846 319 832 Q 325 793 312 719 L 301 688 Z"/>
  <path id="z36154d3" d="M 590 740 Q 580 744 557 749 Q 544 753 541 748 Q 534 742 542 726 Q 567 674 579 587 Q 582 562 596 544 Q 612 522 619 537 Q 623 547 623 563 L 621 596 Q 611 687 610 711 C 609 733 609 733 590 740 Z"/>
  <path id="z36154d4" d="M 802 622 Q 824 694 855 712 Q 871 731 857 748 Q 841 761 789 785 Q 771 792 750 784 Q 710 768 672 758 Q 632 748 590 740 C 561 734 581 704 610 711 Q 617 712 628 716 Q 686 726 741 738 Q 754 741 761 735 Q 773 723 748 622 C 741 593 793 593 802 622 Z"/>
  <path id="z36154d5" d="M 623 563 Q 632 562 643 564 Q 698 576 820 586 Q 830 587 832 596 Q 832 603 802 622 C 788 631 777 629 748 622 Q 678 606 621 596 C 591 591 593 564 623 563 Z"/>
  <path id="z36154d6" d="M 370 442 Q 352 455 332 460 Q 323 461 317 454 Q 314 448 322 438 Q 352 329 324 225 Q 312 213 321 177 Q 330 144 341 132 Q 351 119 361 132 Q 385 159 386 259 Q 386 412 405 413 C 409 417 395 426 370 442 Z"/>
  <path id="z36154d7" d="M 625 208 Q 618 186 632 165 Q 645 137 654 138 Q 667 139 683 171 Q 696 196 695 216 Q 676 378 704 425 Q 714 441 707 451 Q 679 476 629 497 Q 613 503 589 494 Q 478 446 370 442 C 340 440 376 406 405 413 Q 457 425 500 432 Q 593 454 614 441 Q 621 425 627 377 Q 633 236 625 208 Z"/>
  <path id="z36154d8" d="M 469 319 Q 470 99 373 25 Q 342 -2 270 -35 Q 257 -39 254 -43 Q 250 -47 264 -51 Q 336 -57 438 18 Q 445 27 454 36 Q 506 102 524 289 Q 525 317 537 347 Q 543 357 534 366 Q 518 382 483 396 Q 464 406 447 401 Q 428 394 443 377 Q 468 349 469 319 Z"/>
  <path id="z36154d9" d="M 559 116 Q 610 62 670 -14 Q 685 -36 700 -41 Q 709 -42 717 -33 Q 730 -21 721 25 Q 711 82 563 147 Q 554 153 551 141 Q 550 128 559 116 Z"/>
<defs>
  <clipPath id="z36154c1"><use href="#z36154d1"/></clipPath>
  <clipPath id="z36154c2"><use href="#z36154d2"/></clipPath>
  <clipPath id="z36154c3"><use href="#z36154d3"/></clipPath>
  <clipPath id="z36154c4"><use href="#z36154d4"/></clipPath>
  <clipPath id="z36154c5"><use href="#z36154d5"/></clipPath>
  <clipPath id="z36154c6"><use href="#z36154d6"/></clipPath>
  <clipPath id="z36154c7"><use href="#z36154d7"/></clipPath>
  <clipPath id="z36154c8"><use href="#z36154d8"/></clipPath>
  <clipPath id="z36154c9"><use href="#z36154d9"/></clipPath>
</defs>
<path style="--d:1s;" pathLength="3333" clip-path="url(#z36154c1)" d="M 150 685 L 206 680 L 412 730 L 448 734 L 463 726 L 476 712 L 459 630 L 448 592 L 420 535 L 388 507 L 316 550"/>
<path style="--d:2s;" pathLength="3333" clip-path="url(#z36154c2)" d="M 332 837 L 352 813 L 353 794 L 331 700 L 304 639 L 274 589 L 231 536 L 138 455"/>
<path style="--d:3s;" pathLength="3333" clip-path="url(#z36154c3)" d="M 548 740 L 570 722 L 582 702 L 608 544"/>
<path style="--d:4s;" pathLength="3333" clip-path="url(#z36154c4)" d="M 598 738 L 618 729 L 751 761 L 786 754 L 808 728 L 782 649 L 755 633"/>
<path style="--d:5s;" pathLength="3333" clip-path="url(#z36154c5)" d="M 628 569 L 644 583 L 745 601 L 801 603 L 823 595"/>
<path style="--d:6s;" pathLength="3333" clip-path="url(#z36154c6)" d="M 325 450 L 335 446 L 363 405 L 362 274 L 349 191 L 351 136"/>
<path style="--d:7s;" pathLength="3333" clip-path="url(#z36154c7)" d="M 377 439 L 409 429 L 604 472 L 626 468 L 650 448 L 661 433 L 657 320 L 662 224 L 655 149"/>
<path style="--d:8s;" pathLength="3333" clip-path="url(#z36154c8)" d="M 449 388 L 469 379 L 500 348 L 493 240 L 481 169 L 451 80 L 423 38 L 372 -2 L 306 -34 L 260 -46"/>
<path style="--d:9s;" pathLength="3333" clip-path="url(#z36154c9)" d="M 561 136 L 665 49 L 687 21 L 702 -25"/>
</svg>