<svg id="z39036" class="acjk" viewBox="0 0 1024 1024" xmlns="http://www.w3.org/2000/svg">
<style>
<![CDATA[
@keyframes zk {
	to {
		stroke-dashoffset:0;
	}
}
svg.acjk path[clip-path] {
	--t:0.8s;
	animation:zk var(--t) linear forwards var(--d);
	stroke-dasharray:3337;
	stroke-dashoffset:3339;
	stroke-width:128;
	stroke-linecap:round;
	stroke-linejoin:round;
	fill:none;
	stroke:#000;
}
svg.acjk path[id] {fill:#ccc;}
]]>
</style>
  <path id="z39036d1" d="M 298 637 Q 329 647 364 654 Q 392 661 396 665 Q 406 675 400 683 Q 391 696 360 702 Q 327 706 295 693 Q 264 681 230 671 Q 193 662 149 657 Q 109 648 139 631 Q 184 607 244 625 Q 245 626 247 625 C 277 630 278 631 298 637 Z"/>
  <path id="z39036d2" d="M 308 434 Q 329 441 354 448 Q 382 457 386 461 Q 393 468 388 477 Q 381 487 351 492 Q 329 495 309 487 L 259 466 Q 180 442 150 437 Q 116 428 142 414 Q 184 396 237 413 Q 247 416 259 419 L 308 434 Z"/>
  <path id="z39036d3" d="M 303 263 Q 304 354 308 434 L 309 487 Q 312 622 313 623 Q 304 632 298 637 C 276 657 239 654 247 625 Q 257 603 259 466 L 259 419 Q 259 349 259 245 C 259 215 303 233 303 263 Z"/>
  <path id="z39036d4" d="M 259 245 Q 124 197 101 195 Q 88 192 87 181 Q 86 166 97 159 Q 122 144 160 127 Q 172 126 183 135 Q 216 166 253 188 Q 311 221 368 255 Q 390 268 405 282 Q 418 292 418 301 Q 411 307 398 302 Q 353 283 303 263 L 259 245 Z"/>
  <path id="z39036d5" d="M 622 732 Q 676 750 869 750 Q 888 751 892 759 Q 896 771 881 783 Q 823 820 781 804 Q 667 777 443 741 Q 424 738 438 723 Q 451 710 469 706 Q 488 702 503 707 Q 542 719 585 726 L 622 732 Z"/>
  <path id="z39036d6" d="M 563 568 Q 584 586 624 649 Q 633 662 647 678 Q 660 688 654 699 Q 645 714 622 732 C 599 751 581 756 585 726 Q 592 698 554 601 Q 547 582 545 570 Q 544 569 545 566 C 544 550 544 550 563 568 Z"/>
  <path id="z39036d7" d="M 521 563 Q 503 575 484 580 Q 475 581 469 573 Q 466 567 474 557 Q 510 485 485 319 Q 472 268 476 248 Q 486 217 497 204 Q 507 191 517 204 Q 541 229 541 377 Q 542 456 546 536 C 547 548 547 548 521 563 Z"/>
  <path id="z39036d8" d="M 546 536 Q 723 584 745 570 Q 755 548 759 487 Q 762 307 753 272 Q 746 248 759 227 Q 772 197 782 198 Q 797 199 813 232 Q 826 259 826 280 Q 816 359 818 484 Q 818 520 838 551 Q 848 567 841 577 Q 813 601 765 621 Q 749 625 726 617 Q 657 586 563 568 L 545 566 Q 532 565 521 563 C 491 559 517 528 546 536 Z"/>
  <path id="z39036d9" d="M 613 424 Q 620 190 548 107 Q 533 91 513 75 Q 477 47 397 9 Q 385 5 382 1 Q 378 -3 392 -7 Q 462 -13 574 64 Q 589 79 602 94 Q 659 167 663 343 Q 667 424 678 454 Q 682 464 674 472 Q 656 487 623 499 Q 604 508 588 502 Q 570 495 585 479 Q 612 452 613 424 Z"/>
  <path id="z39036d10" d="M 705 136 Q 760 84 825 8 Q 841 -13 856 -18 Q 865 -19 873 -9 Q 886 4 874 49 Q 862 104 715 165 Q 711 168 707 168 Q 697 174 695 161 Q 694 148 705 136 Z"/>
<defs>
  <clipPath id="z39036c1"><use href="#z39036d1"/></clipPath>
  <clipPath id="z39036c2"><use href="#z39036d2"/></clipPath>
  <clipPath id="z39036c3"><use href="#z39036d3"/></clipPath>
  <clipPath id="z39036c4"><use href="#z39036d4"/></clipPath>
  <clipPath id="z39036c5"><use href="#z39036d5"/></clipPath>
  <clipPath id="z39036c6"><use href="#z39036d6"/></clipPath>
  <clipPath id="z39036c7"><use href="#z39036d7"/></clipPath>
  <clipPath id="z39036c8"><use href="#z39036d8"/></clipPath>
  <clipPath id="z39036c9"><use href="#z39036d9"/></clipPath>
  <clipPath id="z39036c10"><use href="#z39036d10"/></clipPath>
</defs>
<path style="--d:1s;" pathLength="3333" clip-path="url(#z39036c1)" d="M 141 645 L 202 641 L 341 677 L 389 676"/>
<path style="--d:2s;" pathLength="3333" clip-path="url(#z39036c2)" d="M 143 426 L 205 428 L 323 466 L 378 470"/>
<path style="--d:3s;" pathLength="3333" clip-path="url(#z39036c3)" d="M 254 624 L 282 599 L 284 572 L 281 278 L 264 254"/>
<path style="--d:4s;" pathLength="3333" clip-path="url(#z39036c4)" d="M 103 180 L 163 170 L 412 298"/>
<path style="--d:5s;" pathLength="3333" clip-path="url(#z39036c5)" d="M 441 732 L 486 726 L 635 756 L 803 779 L 847 775 L 881 764"/>
<path style="--d:6s;" pathLength="3333" clip-path="url(#z39036c6)" d="M 592 723 L 617 693 L 583 621 L 549 568"/>
<path style="--d:7s;" pathLength="3333" clip-path="url(#z39036c7)" d="M 478 569 L 495 557 L 516 525 L 519 417 L 505 262 L 507 208"/>
<path style="--d:8s;" pathLength="3333" clip-path="url(#z39036c8)" d="M 527 560 L 556 550 L 742 596 L 762 593 L 784 572 L 793 559 L 788 499 L 791 282 L 783 210"/>
<path style="--d:9s;" pathLength="3333" clip-path="url(#z39036c9)" d="M 590 490 L 633 464 L 642 449 L 634 277 L 609 161 L 585 113 L 537 65 L 454 18 L 388 -2"/>
<path style="--d:10s;" pathLength="3333" clip-path="url(#z39036c10)" d="M 706 156 L 798 88 L 831 56 L 846 32 L 857 -3"/>
</svg>