<svg id="z40499" class="acjk" viewBox="0 0 1024 1024" xmlns="http://www.w3.org/2000/svg">
<style>
<![CDATA[
@keyframes zk {
	to {
		stroke-dashoffset:0;
	}
}
svg.acjk path[clip-path] {
	--t:0.8s;
	animation:zk var(--t) linear forwards var(--d);
	stroke-dasharray:3337;
	stroke-dashoffset:3339;
	stroke-width:128;
	stroke-linecap:round;
	stroke-linejoin:round;
	fill:none;
	stroke:#000;
}
svg.acjk path[id] {fill:#ccc;}
]]>
</style>
  <path id="z40499d1" d="M 271 652 Q 296 680 326 717 L 337 732 Q 353 757 366 767 Q 373 774 371 785 Q 368 795 348 812 Q 329 827 316 827 Q 303 827 307 810 Q 319 780 252 682 Q 221 639 178 590 Q 171 583 168 579 Q 165 572 176 572 Q 198 576 256 636 L 271 652 Z"/>
  <path id="z40499d2" d="M 326 717 Q 335 710 360 713 Q 405 720 408 715 Q 412 703 393 662 Q 377 616 325 556 Q 274 490 192 430 Q 171 418 189 419 Q 250 419 341 514 Q 398 575 444 656 Q 466 695 480 706 Q 490 713 486 724 Q 482 734 439 754 Q 429 758 410 750 Q 388 740 337 732 C 307 727 298 725 326 717 Z"/>
  <path id="z40499d3" d="M 256 636 Q 259 632 268 625 Q 287 610 307 591 Q 316 584 325 584 Q 331 585 334 593 Q 337 600 331 619 Q 325 640 271 652 C 242 659 236 659 256 636 Z"/>
  <path id="z40499d4" d="M 599 742 Q 600 743 603 744 Q 664 763 707 772 Q 717 773 720 771 Q 724 765 724 749 Q 723 703 715 682 Q 702 658 683 662 Q 659 669 639 677 Q 621 683 634 665 Q 671 634 689 607 Q 699 595 710 604 Q 743 625 764 723 Q 764 753 781 772 Q 788 782 785 789 Q 778 796 741 812 Q 726 818 713 808 Q 683 790 590 771 C 561 765 571 732 599 742 Z"/>
  <path id="z40499d5" d="M 884 604 Q 874 620 856 677 Q 855 690 849 694 Q 843 695 840 681 Q 819 620 805 601 Q 795 588 762 579 Q 690 558 628 579 Q 604 589 598 603 Q 582 639 599 742 C 602 763 602 763 590 771 Q 580 780 564 786 Q 554 789 547 785 Q 541 781 546 767 Q 556 736 555 705 Q 549 581 583 551 Q 647 503 790 529 Q 800 532 812 535 Q 846 545 880 569 Q 896 582 884 604 Z"/>
  <path id="z40499d6" d="M 399 459 Q 445 496 475 525 Q 488 541 507 552 Q 523 562 512 576 Q 499 588 476 597 Q 454 606 445 602 Q 435 599 439 588 Q 445 567 397 487 Q 391 478 385 467 C 370 441 376 440 399 459 Z"/>
  <path id="z40499d7" d="M 403 424 Q 407 424 414 425 Q 597 476 607 462 Q 613 455 611 436 Q 610 384 598 359 Q 582 331 557 334 Q 539 335 524 339 Q 503 343 520 325 Q 551 297 566 276 Q 576 263 589 272 Q 634 300 658 417 Q 665 447 676 461 Q 686 471 682 480 Q 675 490 631 509 Q 615 516 598 506 Q 544 478 399 459 C 369 455 373 420 403 424 Z"/>
  <path id="z40499d8" d="M 426 387 Q 462 344 478 342 Q 488 341 492 354 Q 493 364 487 379 Q 472 400 429 407 Q 422 408 421 400 Q 420 394 426 387 Z"/>
  <path id="z40499d9" d="M 390 177 Q 418 196 476 208 Q 594 236 720 242 Q 750 246 763 235 Q 776 225 765 183 Q 744 74 724 48 Q 714 35 688 39 Q 661 45 638 49 Q 622 53 623 47 Q 623 41 631 34 Q 677 -15 693 -47 Q 700 -68 719 -57 Q 774 -29 788 20 Q 804 83 819 153 Q 826 190 846 222 Q 859 238 847 251 Q 831 270 793 292 Q 772 305 744 292 Q 690 271 640 266 Q 570 259 426 233 Q 401 223 394 244 Q 394 295 395 346 Q 394 395 403 424 C 412 472 409 457 385 467 Q 375 474 363 478 Q 347 484 339 475 Q 335 471 341 460 Q 360 423 350 260 Q 347 238 343 216 Q 337 197 352 181 Q 371 165 390 177 Z"/>
  <path id="z40499d10" d="M 422 90 Q 453 93 484 97 Q 553 106 647 102 Q 668 101 673 108 Q 679 120 668 130 Q 608 178 545 159 Q 233 105 173 102 Q 161 101 161 91 Q 161 81 178 69 Q 193 59 221 50 Q 231 47 246 55 Q 285 73 422 90 Z"/>
<defs>
  <clipPath id="z40499c1"><use href="#z40499d1"/></clipPath>
  <clipPath id="z40499c2"><use href="#z40499d2"/></clipPath>
  <clipPath id="z40499c3"><use href="#z40499d3"/></clipPath>
  <clipPath id="z40499c4"><use href="#z40499d4"/></clipPath>
  <clipPath id="z40499c5"><use href="#z40499d5"/></clipPath>
  <clipPath id="z40499c6"><use href="#z40499d6"/></clipPath>
  <clipPath id="z40499c7"><use href="#z40499d7"/></clipPath>
  <clipPath id="z40499c8"><use href="#z40499d8"/></clipPath>
  <clipPath id="z40499c9"><use href="#z40499d9"/></clipPath>
  <clipPath id="z40499c10"><use href="#z40499d10"/></clipPath>
</defs>
<path style="--d:1s;" pathLength="3333" clip-path="url(#z40499c1)" d="M 316 816 L 337 781 L 305 724 L 239 637 L 177 581"/>
<path style="--d:2s;" pathLength="3333" clip-path="url(#z40499c2)" d="M 331 719 L 425 732 L 442 714 L 397 618 L 321 519 L 256 459 L 194 424"/>
<path style="--d:3s;" pathLength="3333" clip-path="url(#z40499c3)" d="M 262 638 L 278 637 L 294 627 L 312 614 L 323 595"/>
<path style="--d:4s;" pathLength="3333" clip-path="url(#z40499c4)" d="M 598 750 L 609 760 L 718 790 L 740 787 L 748 776 L 740 697 L 721 653 L 703 636 L 643 668"/>
<path style="--d:5s;" pathLength="3333" clip-path="url(#z40499c5)" d="M 553 778 L 572 757 L 576 743 L 571 650 L 578 601 L 593 574 L 618 557 L 663 546 L 722 545 L 788 557 L 820 571 L 846 596 L 846 687"/>
<path style="--d:6s;" pathLength="3333" clip-path="url(#z40499c6)" d="M 502 566 L 469 564 L 411 483 L 392 470"/>
<path style="--d:7s;" pathLength="3333" clip-path="url(#z40499c7)" d="M 408 430 L 433 449 L 602 486 L 630 480 L 641 468 L 634 411 L 608 332 L 582 306 L 527 330"/>
<path style="--d:8s;" pathLength="3333" clip-path="url(#z40499c8)" d="M 431 396 L 464 375 L 479 355"/>
<path style="--d:9s;" pathLength="3333" clip-path="url(#z40499c9)" d="M 349 469 L 374 443 L 377 427 L 371 234 L 378 209 L 412 209 L 546 239 L 744 267 L 775 265 L 803 241 L 805 217 L 775 91 L 752 25 L 740 10 L 720 -4 L 631 43"/>
<path style="--d:10s;" pathLength="3333" clip-path="url(#z40499c10)" d="M 172 91 L 221 78 L 398 112 L 572 134 L 620 130 L 663 115"/>
</svg>