<svg id="z40753" class="acjk" viewBox="0 0 1024 1024" xmlns="http://www.w3.org/2000/svg">
<style>
<![CDATA[
@keyframes zk {
	to {
		stroke-dashoffset:0;
	}
}
svg.acjk path[clip-path] {
	--t:0.8s;
	animation:zk var(--t) linear forwards var(--d);
	stroke-dasharray:3337;
	stroke-dashoffset:3339;
	stroke-width:128;
	stroke-linecap:round;
	stroke-linejoin:round;
	fill:none;
	stroke:#000;
}
svg.acjk path[id] {fill:#ccc;}
]]>
</style>
  <path id="z40753d1" d="M 166 640 Q 212 674 239 697 Q 290 746 319 761 Q 338 771 327 785 Q 315 800 292 811 Q 270 821 260 818 Q 248 817 253 805 Q 259 781 154 651 C 135 628 142 622 166 640 Z"/>
  <path id="z40753d2" d="M 193 461 Q 193 464 182 533 L 177 561 Q 167 616 167 631 Q 167 637 166 640 C 165 646 165 646 154 651 Q 144 657 119 660 Q 107 663 105 659 Q 99 653 106 639 Q 134 578 150 477 Q 153 446 170 426 Q 186 407 190 421 Q 191 427 193 433 L 193 461 Z"/>
  <path id="z40753d3" d="M 182 533 Q 219 543 248 550 Q 267 557 258 566 Q 248 576 226 576 Q 207 576 177 561 C 150 548 153 525 182 533 Z"/>
  <path id="z40753d4" d="M 366 458 Q 366 455 368 452 Q 372 439 383 441 Q 393 442 399 455 Q 412 474 429 568 Q 439 608 468 634 Q 483 647 470 659 Q 455 672 414 691 Q 402 697 366 687 Q 341 684 318 676 Q 297 670 283 667 Q 271 667 269 663 Q 266 659 279 651 Q 303 639 321 646 Q 373 664 388 657 Q 398 651 394 620 Q 390 601 388 581 L 383 552 Q 373 497 368 479 Q 367 479 367 478 C 363 466 363 466 366 458 Z"/>
  <path id="z40753d5" d="M 388 581 Q 379 590 329 579 Q 322 575 315 570 Q 300 567 317 554 Q 320 551 329 551 Q 359 552 383 552 C 413 552 412 564 388 581 Z"/>
  <path id="z40753d6" d="M 367 478 Q 339 500 268 479 Q 228 469 193 461 C 164 454 163 434 193 433 Q 200 432 209 434 Q 258 446 366 458 C 392 461 392 461 367 478 Z"/>
  <path id="z40753d7" d="M 138 265 Q 138 319 139 334 L 141 344 Q 142 356 136 361 Q 117 374 100 381 Q 87 385 78 382 Q 71 376 81 362 Q 120 310 95 122 Q 89 104 77 84 Q 67 68 75 59 Q 82 49 102 41 Q 115 35 125 49 Q 135 74 196 119 Q 218 132 227 148 Q 231 157 225 157 Q 219 157 153 126 Q 146 122 141 125 Q 132 126 133 146 Q 136 210 137 251 L 138 265 Z"/>
  <path id="z40753d8" d="M 139 334 Q 148 325 200 302 Q 213 296 222 299 Q 229 300 230 312 Q 229 319 219 329 Q 195 350 142 345 Q 141 345 141 344 C 132 340 132 340 139 334 Z"/>
  <path id="z40753d9" d="M 137 251 Q 141 247 187 222 Q 202 215 212 218 Q 221 219 221 234 Q 220 243 209 254 Q 188 272 139 266 Q 138 266 138 265 C 126 260 126 260 137 251 Z"/>
  <path id="z40753d10" d="M 286 272 Q 286 311 289 336 L 290 353 Q 293 387 285 396 Q 264 415 249 418 Q 239 419 234 416 Q 227 410 236 399 Q 252 371 251 345 Q 263 134 236 98 Q 226 82 232 64 Q 241 37 254 28 Q 263 22 273 37 Q 292 64 358 129 Q 373 141 374 147 Q 375 157 358 149 Q 298 122 293 124 Q 286 128 286 145 Q 285 206 286 250 L 286 272 Z"/>
  <path id="z40753d11" d="M 289 336 Q 347 302 361 303 Q 370 304 370 316 Q 369 323 360 334 Q 350 344 330 347 Q 303 354 290 353 C 262 352 263 351 289 336 Z"/>
  <path id="z40753d12" d="M 286 250 Q 338 214 351 215 Q 361 216 362 230 Q 361 239 352 251 Q 331 272 286 272 C 256 272 261 267 286 250 Z"/>
  <path id="z40753d13" d="M 376 394 Q 395 357 398 316 Q 413 145 468 84 Q 513 29 628 -1 Q 716 -22 822 -15 Q 898 -9 948 17 Q 964 18 956 49 Q 938 110 932 193 Q 933 206 926 214 Q 919 220 915 210 Q 864 57 836 50 Q 817 38 750 38 Q 668 37 618 53 Q 488 92 459 179 Q 446 228 444 307 Q 443 343 451 359 Q 461 375 430 401 Q 396 431 379 426 Q 363 420 376 394 Z"/>
  <path id="z40753d14" d="M 694 677 Q 796 699 799 701 Q 806 708 802 715 Q 796 724 773 730 Q 749 734 697 717 L 643 703 Q 607 699 567 694 Q 537 690 558 675 Q 591 657 637 666 Q 638 667 645 667 L 694 677 Z"/>
  <path id="z40753d15" d="M 687 582 Q 717 589 749 594 Q 774 600 779 603 Q 786 609 782 615 Q 778 624 755 630 Q 734 634 690 620 L 645 609 Q 612 603 574 600 Q 547 596 566 583 Q 596 565 639 574 Q 640 575 645 575 L 687 582 Z"/>
  <path id="z40753d16" d="M 683 526 Q 684 554 687 582 L 690 620 Q 691 650 694 677 L 697 717 Q 697 732 704 770 Q 713 803 704 812 Q 700 816 696 819 Q 665 835 642 839 Q 627 842 620 834 Q 613 827 621 814 Q 639 789 640 771 Q 641 738 643 703 L 645 667 Q 645 639 645 609 L 645 575 Q 645 550 645 520 C 645 490 682 496 683 526 Z"/>
  <path id="z40753d17" d="M 645 520 Q 566 508 474 494 Q 456 493 470 479 Q 482 467 496 463 Q 514 459 527 463 Q 668 503 895 504 Q 911 504 915 512 Q 919 521 906 532 Q 854 568 807 550 Q 756 541 683 526 L 645 520 Z"/>
  <path id="z40753d18" d="M 611 254 Q 612 288 616 313 L 618 338 Q 621 386 625 406 C 628 424 628 424 617 432 Q 616 435 611 437 Q 586 450 572 450 Q 560 447 565 437 Q 598 358 560 213 Q 536 144 558 112 Q 564 100 573 105 Q 609 130 609 231 L 611 254 Z"/>
  <path id="z40753d19" d="M 625 406 Q 631 409 726 431 Q 739 435 748 428 Q 752 424 753 404 Q 760 259 757 172 Q 756 150 749 141 Q 746 138 697 146 Q 681 153 681 144 Q 718 104 739 75 Q 749 59 763 54 Q 770 51 778 59 Q 815 102 814 145 Q 790 380 812 417 Q 822 433 812 442 Q 794 458 763 470 Q 747 477 735 471 Q 690 444 617 432 C 587 427 596 398 625 406 Z"/>
  <path id="z40753d20" d="M 616 313 Q 673 322 713 328 Q 732 332 725 342 Q 716 354 695 357 Q 668 360 618 338 C 590 326 586 308 616 313 Z"/>
  <path id="z40753d21" d="M 609 231 Q 613 231 618 231 Q 675 237 716 240 Q 735 243 729 254 Q 720 266 699 270 Q 672 276 611 254 C 583 244 579 231 609 231 Z"/>
<defs>
  <clipPath id="z40753c1"><use href="#z40753d1"/></clipPath>
  <clipPath id="z40753c2"><use href="#z40753d2"/></clipPath>
  <clipPath id="z40753c3"><use href="#z40753d3"/></clipPath>
  <clipPath id="z40753c4"><use href="#z40753d4"/></clipPath>
  <clipPath id="z40753c5"><use href="#z40753d5"/></clipPath>
  <clipPath id="z40753c6"><use href="#z40753d6"/></clipPath>
  <clipPath id="z40753c7"><use href="#z40753d7"/></clipPath>
  <clipPath id="z40753c8"><use href="#z40753d8"/></clipPath>
  <clipPath id="z40753c9"><use href="#z40753d9"/></clipPath>
  <clipPath id="z40753c10"><use href="#z40753d10"/></clipPath>
  <clipPath id="z40753c11"><use href="#z40753d11"/></clipPath>
  <clipPath id="z40753c12"><use href="#z40753d12"/></clipPath>
  <clipPath id="z40753c13"><use href="#z40753d13"/></clipPath>
  <clipPath id="z40753c14"><use href="#z40753d14"/></clipPath>
  <clipPath id="z40753c15"><use href="#z40753d15"/></clipPath>
  <clipPath id="z40753c16"><use href="#z40753d16"/></clipPath>
  <clipPath id="z40753c17"><use href="#z40753d17"/></clipPath>
  <clipPath id="z40753c18"><use href="#z40753d18"/></clipPath>
  <clipPath id="z40753c19"><use href="#z40753d19"/></clipPath>
  <clipPath id="z40753c20"><use href="#z40753d20"/></clipPath>
  <clipPath id="z40753c21"><use href="#z40753d21"/></clipPath>
</defs>
<path style="--d:1s;" pathLength="3333" clip-path="url(#z40753c1)" d="M 316 775 L 282 778 L 214 698 L 186 675 L 182 664 L 168 658 L 170 650"/>
<path style="--d:2s;" pathLength="3333" clip-path="url(#z40753c2)" d="M 113 652 L 141 626 L 180 425"/>
<path style="--d:3s;" pathLength="3333" clip-path="url(#z40753c3)" d="M 188 541 L 203 556 L 250 560"/>
<path style="--d:4s;" pathLength="3333" clip-path="url(#z40753c4)" d="M 277 660 L 303 657 L 392 675 L 412 666 L 429 644 L 381 453"/>
<path style="--d:5s;" pathLength="3333" clip-path="url(#z40753c5)" d="M 316 562 L 369 568 L 381 575"/>
<path style="--d:6s;" pathLength="3333" clip-path="url(#z40753c6)" d="M 197 440 L 208 449 L 282 466 L 358 473"/>
<path style="--d:7s;" pathLength="3333" clip-path="url(#z40753c7)" d="M 84 376 L 117 344 L 122 259 L 114 131 L 121 99 L 163 112 L 224 152"/>
<path style="--d:8s;" pathLength="3333" clip-path="url(#z40753c8)" d="M 146 338 L 184 328 L 217 311"/>
<path style="--d:9s;" pathLength="3333" clip-path="url(#z40753c9)" d="M 145 257 L 178 248 L 209 230"/>
<path style="--d:10s;" pathLength="3333" clip-path="url(#z40753c10)" d="M 242 408 L 267 382 L 271 364 L 267 129 L 274 94 L 308 106 L 332 125 L 344 127 L 349 139 L 367 146"/>
<path style="--d:11s;" pathLength="3333" clip-path="url(#z40753c11)" d="M 295 348 L 305 338 L 333 331 L 359 314"/>
<path style="--d:12s;" pathLength="3333" clip-path="url(#z40753c12)" d="M 294 267 L 303 254 L 329 245 L 349 227"/>
<path style="--d:13s;" pathLength="3333" clip-path="url(#z40753c13)" d="M 383 413 L 421 365 L 420 308 L 431 215 L 452 146 L 481 102 L 505 80 L 591 35 L 667 16 L 752 10 L 828 15 L 870 28 L 904 52 L 921 184 L 917 195 L 923 206"/>
<path style="--d:14s;" pathLength="3333" clip-path="url(#z40753c14)" d="M 560 686 L 569 681 L 608 681 L 704 696 L 757 711 L 795 709"/>
<path style="--d:15s;" pathLength="3333" clip-path="url(#z40753c15)" d="M 568 592 L 627 589 L 718 609 L 770 612"/>
<path style="--d:16s;" pathLength="3333" clip-path="url(#z40753c16)" d="M 631 825 L 672 792 L 665 548 L 650 527"/>
<path style="--d:17s;" pathLength="3333" clip-path="url(#z40753c17)" d="M 484 483 L 506 479 L 625 502 L 841 530 L 905 516"/>
<path style="--d:18s;" pathLength="3333" clip-path="url(#z40753c18)" d="M 576 439 L 594 421 L 600 405 L 601 348 L 568 114"/>
<path style="--d:19s;" pathLength="3333" clip-path="url(#z40753c19)" d="M 625 413 L 646 426 L 687 433 L 738 452 L 762 447 L 782 426 L 778 358 L 786 155 L 780 129 L 764 106 L 689 141"/>
<path style="--d:20s;" pathLength="3333" clip-path="url(#z40753c20)" d="M 623 319 L 631 331 L 650 335 L 698 342 L 716 337"/>
<path style="--d:21s;" pathLength="3333" clip-path="url(#z40753c21)" d="M 614 236 L 625 244 L 673 254 L 720 250"/>
</svg>