<svg id="z40143" class="acjk" viewBox="0 0 1024 1024" xmlns="http://www.w3.org/2000/svg">
<style>
<![CDATA[
@keyframes zk {
	to {
		stroke-dashoffset:0;
	}
}
svg.acjk path[clip-path] {
	--t:0.8s;
	animation:zk var(--t) linear forwards var(--d);
	stroke-dasharray:3337;
	stroke-dashoffset:3339;
	stroke-width:128;
	stroke-linecap:round;
	stroke-linejoin:round;
	fill:none;
	stroke:#000;
}
svg.acjk path[id] {fill:#ccc;}
]]>
</style>
  <path id="z40143d1" d="M 281 684 Q 333 757 349 770 Q 356 779 353 790 Q 350 800 328 820 Q 306 836 291 836 Q 275 835 281 817 Q 290 799 283 783 Q 261 731 229 683 Q 198 637 154 585 Q 147 578 144 572 Q 140 563 152 565 Q 191 571 265 665 L 281 684 Z"/>
  <path id="z40143d2" d="M 310 520 Q 412 631 449 654 Q 467 663 456 676 Q 443 689 408 711 Q 392 718 378 709 Q 371 706 310 689 Q 297 686 281 684 C 251 680 238 678 265 665 Q 278 653 346 663 Q 353 664 354 663 Q 358 659 352 648 Q 307 561 276 513 C 260 488 290 498 310 520 Z"/>
  <path id="z40143d3" d="M 163 487 Q 153 491 126 496 Q 116 499 112 494 Q 108 488 115 474 Q 146 411 164 309 Q 168 278 185 258 Q 201 239 206 253 Q 207 259 208 265 L 208 295 Q 207 307 204 320 Q 180 429 176 461 C 173 484 173 484 163 487 Z"/>
  <path id="z40143d4" d="M 354 287 Q 367 265 381 258 Q 390 252 402 269 Q 418 296 447 437 Q 454 462 473 483 Q 483 493 474 505 Q 461 518 426 540 Q 408 549 310 520 L 276 513 Q 260 510 243 506 Q 198 496 163 487 C 134 480 147 455 176 461 Q 180 461 188 463 Q 216 473 261 482 L 295 490 Q 382 512 397 501 Q 410 485 407 469 Q 379 325 365 311 C 353 288 353 288 354 287 Z"/>
  <path id="z40143d5" d="M 307 390 Q 331 396 354 399 Q 373 403 365 414 Q 355 426 334 428 Q 324 429 308 426 L 269 414 Q 239 404 213 395 Q 200 391 217 379 L 270 383 L 307 390 Z"/>
  <path id="z40143d6" d="M 304 319 Q 305 358 307 390 L 308 426 Q 308 442 310 459 Q 314 474 295 490 C 273 510 253 511 261 482 Q 265 473 269 414 L 270 383 Q 270 355 272 310 C 273 280 303 289 304 319 Z"/>
  <path id="z40143d7" d="M 208 265 Q 214 265 221 266 Q 264 278 354 287 C 384 290 388 292 365 311 Q 361 315 350 322 Q 335 329 309 321 Q 305 320 304 319 L 272 310 Q 236 303 208 295 C 179 287 178 264 208 265 Z"/>
  <path id="z40143d8" d="M 111 162 Q 99 161 97 152 Q 96 140 103 132 Q 124 117 152 99 Q 162 95 173 103 Q 200 122 352 185 Q 374 192 389 204 Q 401 211 402 219 Q 398 223 386 222 Q 158 161 111 162 Z"/>
  <path id="z40143d9" d="M 505 721 Q 499 722 494 723 Q 484 726 480 721 Q 476 715 483 701 Q 511 652 530 567 Q 534 542 549 526 Q 565 507 570 521 Q 571 525 572 532 L 571 558 Q 570 567 568 576 Q 547 673 544 695 C 541 715 535 716 505 721 Z"/>
  <path id="z40143d10" d="M 777 558 Q 789 539 800 530 Q 809 523 824 540 Q 837 556 872 654 Q 882 681 904 701 Q 917 711 908 723 Q 895 739 860 765 Q 847 774 772 759 Q 757 759 630 740 Q 566 728 515 724 Q 508 724 505 721 C 476 715 515 687 544 695 Q 547 698 610 709 L 631 712 Q 665 719 711 725 L 753 730 Q 766 733 783 734 Q 816 738 826 727 Q 835 714 831 703 Q 800 594 784 586 C 770 568 770 568 777 558 Z"/>
  <path id="z40143d11" d="M 656 572 Q 656 573 657 575 Q 660 624 634 707 Q 633 710 631 712 C 615 737 608 739 610 709 Q 620 586 639 568 C 652 553 652 553 656 572 Z"/>
  <path id="z40143d12" d="M 728 588 Q 750 657 771 697 Q 780 707 772 715 Q 766 722 753 730 C 728 746 699 753 711 725 Q 726 697 701 591 Q 700 587 699 581 C 694 551 719 559 728 588 Z"/>
  <path id="z40143d13" d="M 572 532 Q 579 532 589 533 Q 649 548 777 558 C 807 560 807 566 784 586 Q 783 587 780 590 Q 767 597 728 588 L 699 581 Q 677 577 656 572 L 639 568 Q 602 564 571 558 C 542 552 542 531 572 532 Z"/>
  <path id="z40143d14" d="M 639 495 Q 667 452 641 165 Q 626 57 634 33 Q 646 -15 672 -30 Q 684 -31 689 -19 Q 702 14 698 45 Q 695 385 707 463 Q 710 476 703 482 Q 679 503 660 512 Q 647 516 638 509 Q 632 505 639 495 Z"/>
  <path id="z40143d15" d="M 521 427 Q 521 390 443 298 Q 427 285 448 290 Q 490 294 557 377 Q 573 398 581 407 Q 588 417 585 424 Q 581 434 560 438 Q 538 442 528 440 Q 522 437 521 427 Z"/>
  <path id="z40143d16" d="M 539 302 Q 533 230 383 75 Q 367 60 389 66 Q 468 88 564 228 Q 589 265 602 281 Q 609 291 607 300 Q 603 310 580 314 Q 555 320 546 316 Q 539 315 539 302 Z"/>
  <path id="z40143d17" d="M 785 405 Q 818 380 854 350 Q 867 340 880 340 Q 889 341 893 352 Q 897 365 888 391 Q 876 422 779 447 Q 766 448 760 447 Q 756 443 757 432 Q 761 422 785 405 Z"/>
  <path id="z40143d18" d="M 766 267 Q 815 216 875 143 Q 888 124 902 119 Q 909 118 917 126 Q 929 138 920 178 Q 911 229 769 295 Q 762 301 759 289 Q 758 277 766 267 Z"/>
<defs>
  <clipPath id="z40143c1"><use href="#z40143d1"/></clipPath>
  <clipPath id="z40143c2"><use href="#z40143d2"/></clipPath>
  <clipPath id="z40143c3"><use href="#z40143d3"/></clipPath>
  <clipPath id="z40143c4"><use href="#z40143d4"/></clipPath>
  <clipPath id="z40143c5"><use href="#z40143d5"/></clipPath>
  <clipPath id="z40143c6"><use href="#z40143d6"/></clipPath>
  <clipPath id="z40143c7"><use href="#z40143d7"/></clipPath>
  <clipPath id="z40143c8"><use href="#z40143d8"/></clipPath>
  <clipPath id="z40143c9"><use href="#z40143d9"/></clipPath>
  <clipPath id="z40143c10"><use href="#z40143d10"/></clipPath>
  <clipPath id="z40143c11"><use href="#z40143d11"/></clipPath>
  <clipPath id="z40143c12"><use href="#z40143d12"/></clipPath>
  <clipPath id="z40143c13"><use href="#z40143d13"/></clipPath>
  <clipPath id="z40143c14"><use href="#z40143d14"/></clipPath>
  <clipPath id="z40143c15"><use href="#z40143d15"/></clipPath>
  <clipPath id="z40143c16"><use href="#z40143d16"/></clipPath>
  <clipPath id="z40143c17"><use href="#z40143d17"/></clipPath>
  <clipPath id="z40143c18"><use href="#z40143d18"/></clipPath>
</defs>
<path style="--d:1s;" pathLength="3333" clip-path="url(#z40143c1)" d="M 290 824 L 309 806 L 317 785 L 303 758 L 231 650 L 176 590 L 151 572"/>
<path style="--d:2s;" pathLength="3333" clip-path="url(#z40143c2)" d="M 271 668 L 363 683 L 397 667 L 309 536 L 281 517"/>
<path style="--d:3s;" pathLength="3333" clip-path="url(#z40143c3)" d="M 120 489 L 146 466 L 154 444 L 196 258"/>
<path style="--d:4s;" pathLength="3333" clip-path="url(#z40143c4)" d="M 170 483 L 190 478 L 366 521 L 397 522 L 420 514 L 438 492 L 437 482 L 400 331 L 385 295 L 386 273"/>
<path style="--d:5s;" pathLength="3333" clip-path="url(#z40143c5)" d="M 216 387 L 317 411 L 357 408"/>
<path style="--d:6s;" pathLength="3333" clip-path="url(#z40143c6)" d="M 267 481 L 282 470 L 288 456 L 289 342 L 285 326 L 275 319"/>
<path style="--d:7s;" pathLength="3333" clip-path="url(#z40143c7)" d="M 214 273 L 229 285 L 254 291 L 357 307"/>
<path style="--d:8s;" pathLength="3333" clip-path="url(#z40143c8)" d="M 110 149 L 159 134 L 397 217"/>
<path style="--d:9s;" pathLength="3333" clip-path="url(#z40143c9)" d="M 488 716 L 521 679 L 560 526"/>
<path style="--d:10s;" pathLength="3333" clip-path="url(#z40143c10)" d="M 512 717 L 522 720 L 544 711 L 786 750 L 825 750 L 848 742 L 867 714 L 809 570 L 807 544"/>
<path style="--d:11s;" pathLength="3333" clip-path="url(#z40143c11)" d="M 627 706 L 631 651 L 644 583 L 651 575"/>
<path style="--d:12s;" pathLength="3333" clip-path="url(#z40143c12)" d="M 718 724 L 743 702 L 722 617 L 706 585"/>
<path style="--d:13s;" pathLength="3333" clip-path="url(#z40143c13)" d="M 576 539 L 591 548 L 762 574 L 775 581"/>
<path style="--d:14s;" pathLength="3333" clip-path="url(#z40143c14)" d="M 647 503 L 678 464 L 665 91 L 674 -16"/>
<path style="--d:15s;" pathLength="3333" clip-path="url(#z40143c15)" d="M 572 419 L 549 412 L 498 337 L 452 298"/>
<path style="--d:16s;" pathLength="3333" clip-path="url(#z40143c16)" d="M 594 296 L 566 283 L 540 232 L 482 154 L 430 102 L 392 75"/>
<path style="--d:17s;" pathLength="3333" clip-path="url(#z40143c17)" d="M 764 438 L 847 393 L 878 356"/>
<path style="--d:18s;" pathLength="3333" clip-path="url(#z40143c18)" d="M 769 284 L 879 188 L 895 164 L 903 133"/>
</svg>