<svg id="z40090" class="acjk" viewBox="0 0 1024 1024" xmlns="http://www.w3.org/2000/svg">
<style>
<![CDATA[
@keyframes zk {
	to {
		stroke-dashoffset:0;
	}
}
svg.acjk path[clip-path] {
	--t:0.8s;
	animation:zk var(--t) linear forwards var(--d);
	stroke-dasharray:3337;
	stroke-dashoffset:3339;
	stroke-width:128;
	stroke-linecap:round;
	stroke-linejoin:round;
	fill:none;
	stroke:#000;
}
svg.acjk path[id] {fill:#ccc;}
]]>
</style>
  <path id="z40090d1" d="M 297 690 Q 363 780 363 783 Q 362 786 362 788 Q 359 798 335 820 Q 313 836 296 838 Q 280 837 286 817 Q 310 760 143 563 Q 133 554 131 549 Q 128 539 141 541 Q 180 545 279 667 L 297 690 Z"/>
  <path id="z40090d2" d="M 331 518 Q 349 539 391 595 Q 427 646 463 675 Q 479 685 467 697 Q 454 707 420 726 Q 411 729 328 699 Q 325 699 297 690 C 268 681 249 671 279 667 Q 295 661 364 676 Q 371 677 373 675 Q 377 672 373 661 Q 340 576 319 536 Q 312 521 310 513 C 300 485 312 495 331 518 Z"/>
  <path id="z40090d3" d="M 192 484 Q 182 491 150 497 Q 138 500 135 495 Q 128 489 136 474 Q 166 405 181 295 Q 182 262 201 239 Q 217 218 223 233 Q 226 242 227 252 L 227 274 Q 226 289 224 305 Q 205 417 201 454 C 198 481 198 481 192 484 Z"/>
  <path id="z40090d4" d="M 386 283 Q 399 264 413 258 Q 423 251 435 271 Q 442 287 456 346 L 459 359 Q 463 390 472 429 Q 479 457 498 479 Q 508 491 499 502 Q 484 517 446 538 Q 433 544 365 526 Q 353 526 331 518 L 310 513 Q 289 510 192 484 C 163 476 173 444 201 454 Q 200 455 202 455 Q 235 465 284 477 L 317 485 Q 401 507 415 495 Q 428 480 426 465 Q 405 321 387 309 C 377 294 377 294 386 283 Z"/>
  <path id="z40090d5" d="M 334 379 Q 361 385 385 388 Q 404 391 397 402 Q 388 414 367 417 Q 354 418 337 414 L 292 401 Q 261 392 233 383 Q 220 379 237 367 Q 240 367 293 370 L 334 379 Z"/>
  <path id="z40090d6" d="M 330 305 Q 331 345 334 379 L 337 414 Q 337 438 339 445 Q 346 464 317 485 C 293 503 277 506 284 477 Q 288 465 292 401 L 293 370 Q 293 339 294 294 C 295 264 329 275 330 305 Z"/>
  <path id="z40090d7" d="M 227 252 Q 231 252 240 253 Q 321 272 386 283 C 416 288 416 301 387 309 Q 383 310 377 312 Q 358 313 330 305 L 294 294 Q 258 284 227 274 C 198 265 197 251 227 252 Z"/>
  <path id="z40090d8" d="M 120 122 Q 107 121 105 111 Q 102 98 111 90 Q 133 74 165 53 Q 175 49 187 58 Q 217 80 408 156 Q 433 166 452 180 Q 465 187 466 196 Q 462 202 449 199 Q 173 121 120 122 Z"/>
  <path id="z40090d9" d="M 600 770 Q 624 751 650 728 Q 663 716 679 718 Q 689 719 693 732 Q 697 747 686 775 Q 680 791 652 803 Q 582 821 572 815 Q 568 811 569 799 Q 573 789 600 770 Z"/>
  <path id="z40090d10" d="M 705 639 Q 726 646 823 661 Q 833 660 842 674 Q 843 684 820 694 Q 787 715 690 681 Q 680 680 672 676 Q 666 676 499 641 Q 471 637 493 620 Q 529 596 555 604 Q 601 617 661 629 L 705 639 Z"/>
  <path id="z40090d11" d="M 456 346 Q 589 337 662 423 L 685 460 Q 710 497 721 543 Q 731 585 741 597 Q 750 610 742 618 Q 730 631 705 639 C 677 649 655 658 661 629 Q 673 575 669 547 Q 666 540 664 530 Q 658 508 649 489 L 629 457 Q 608 430 578 409 Q 538 384 459 359 C 430 350 426 347 456 346 Z"/>
  <path id="z40090d12" d="M 662 423 Q 774 311 811 307 Q 884 307 958 323 Q 991 330 987 338 Q 986 342 899 365 Q 769 401 689 457 Q 686 460 685 460 L 649 489 Q 624 510 599 533 Q 565 566 533 564 Q 517 563 514 559 Q 513 552 527 544 Q 557 529 629 457 L 662 423 Z"/>
  <path id="z40090d13" d="M 511 292 Q 535 256 519 168 Q 500 87 418 22 Q 408 12 418 11 Q 466 17 511 61 Q 559 107 578 215 Q 584 255 590 267 Q 597 283 583 290 Q 537 320 516 310 Q 504 306 511 292 Z"/>
  <path id="z40090d14" d="M 704 -6 Q 708 -28 715 -37 Q 719 -44 727 -41 Q 734 -38 738 -24 Q 744 -3 750 165 Q 750 246 758 287 Q 761 303 748 312 Q 718 331 704 334 Q 692 338 678 330 Q 671 323 677 313 Q 678 309 683 304 Q 692 289 698 89 Q 699 19 704 -6 Z"/>
<defs>
  <clipPath id="z40090c1"><use href="#z40090d1"/></clipPath>
  <clipPath id="z40090c2"><use href="#z40090d2"/></clipPath>
  <clipPath id="z40090c3"><use href="#z40090d3"/></clipPath>
  <clipPath id="z40090c4"><use href="#z40090d4"/></clipPath>
  <clipPath id="z40090c5"><use href="#z40090d5"/></clipPath>
  <clipPath id="z40090c6"><use href="#z40090d6"/></clipPath>
  <clipPath id="z40090c7"><use href="#z40090d7"/></clipPath>
  <clipPath id="z40090c8"><use href="#z40090d8"/></clipPath>
  <clipPath id="z40090c9"><use href="#z40090d9"/></clipPath>
  <clipPath id="z40090c10"><use href="#z40090d10"/></clipPath>
  <clipPath id="z40090c11"><use href="#z40090d11"/></clipPath>
  <clipPath id="z40090c12"><use href="#z40090d12"/></clipPath>
  <clipPath id="z40090c13"><use href="#z40090d13"/></clipPath>
  <clipPath id="z40090c14"><use href="#z40090d14"/></clipPath>
</defs>
<path style="--d:1s;" pathLength="3333" clip-path="url(#z40090c1)" d="M 296 825 L 315 804 L 322 783 L 299 735 L 226 634 L 170 572 L 139 548"/>
<path style="--d:2s;" pathLength="3333" clip-path="url(#z40090c2)" d="M 284 673 L 371 695 L 391 694 L 412 684 L 370 599 L 315 517"/>
<path style="--d:3s;" pathLength="3333" clip-path="url(#z40090c3)" d="M 144 487 L 169 464 L 175 447 L 213 239"/>
<path style="--d:4s;" pathLength="3333" clip-path="url(#z40090c4)" d="M 205 464 L 229 480 L 354 510 L 399 518 L 436 513 L 459 488 L 430 341 L 415 298 L 419 274"/>
<path style="--d:5s;" pathLength="3333" clip-path="url(#z40090c5)" d="M 236 375 L 348 400 L 389 397"/>
<path style="--d:6s;" pathLength="3333" clip-path="url(#z40090c6)" d="M 290 475 L 314 453 L 313 329 L 308 312 L 298 303"/>
<path style="--d:7s;" pathLength="3333" clip-path="url(#z40090c7)" d="M 233 258 L 250 269 L 380 303"/>
<path style="--d:8s;" pathLength="3333" clip-path="url(#z40090c8)" d="M 119 108 L 176 93 L 391 165 L 460 194"/>
<path style="--d:9s;" pathLength="3333" clip-path="url(#z40090c9)" d="M 576 809 L 657 764 L 676 735"/>
<path style="--d:10s;" pathLength="3333" clip-path="url(#z40090c10)" d="M 494 631 L 532 625 L 556 628 L 760 676 L 831 675"/>
<path style="--d:11s;" pathLength="3333" clip-path="url(#z40090c11)" d="M 670 622 L 703 602 L 698 559 L 676 490 L 647 441 L 609 404 L 573 382 L 466 351"/>
<path style="--d:12s;" pathLength="3333" clip-path="url(#z40090c12)" d="M 519 557 L 570 536 L 686 429 L 804 353 L 874 340 L 984 336"/>
<path style="--d:13s;" pathLength="3333" clip-path="url(#z40090c13)" d="M 519 300 L 555 269 L 551 210 L 537 145 L 514 97 L 492 68 L 424 17"/>
<path style="--d:14s;" pathLength="3333" clip-path="url(#z40090c14)" d="M 687 321 L 704 311 L 723 287 L 724 -31"/>
</svg>