<svg id="z40440" class="acjk" viewBox="0 0 1024 1024" xmlns="http://www.w3.org/2000/svg">
<style>
<![CDATA[
@keyframes zk {
	to {
		stroke-dashoffset:0;
	}
}
svg.acjk path[clip-path] {
	--t:0.8s;
	animation:zk var(--t) linear forwards var(--d);
	stroke-dasharray:3337;
	stroke-dashoffset:3339;
	stroke-width:128;
	stroke-linecap:round;
	stroke-linejoin:round;
	fill:none;
	stroke:#000;
}
svg.acjk path[id] {fill:#ccc;}
]]>
</style>
  <path id="z40440d1" d="M 343 673 Q 437 745 470 752 Q 488 758 482 772 Q 481 785 423 819 Q 407 828 387 821 Q 336 802 259 780 Q 240 773 191 775 Q 170 775 178 758 Q 184 746 201 737 Q 228 722 256 739 Q 370 787 386 781 Q 396 774 392 764 Q 364 728 332 685 C 314 661 319 655 343 673 Z"/>
  <path id="z40440d2" d="M 332 685 Q 316 695 285 702 Q 275 703 268 701 Q 264 700 267 693 Q 270 677 316 645 Q 326 639 334 637 Q 344 636 349 644 Q 352 653 349 663 Q 346 670 343 673 L 332 685 Z"/>
  <path id="z40440d3" d="M 339 608 Q 369 615 403 621 Q 425 630 430 620 Q 430 611 410 576 Q 403 566 408 561 Q 412 557 424 565 Q 484 596 507 600 Q 525 601 525 611 Q 525 621 466 655 Q 445 667 355 639 Q 223 609 95 589 Q 73 586 90 568 Q 103 552 142 564 Q 212 582 282 596 L 339 608 Z"/>
  <path id="z40440d4" d="M 326 587 Q 336 542 329 507 Q 326 489 322 486 Q 321 486 268 489 Q 261 490 258 488 Q 254 487 264 480 Q 298 453 318 430 Q 328 420 339 425 Q 352 432 361 466 Q 368 494 365 540 Q 364 573 357 587 Q 350 600 339 608 C 318 626 320 616 326 587 Z"/>
  <path id="z40440d5" d="M 282 596 Q 231 512 117 437 Q 104 428 116 426 Q 125 425 156 437 Q 189 447 219 469 Q 246 488 276 521 Q 277 524 326 587 C 347 614 325 665 282 596 Z"/>
  <path id="z40440d6" d="M 161 389 Q 134 401 120 400 Q 108 396 114 386 Q 156 302 122 145 Q 107 97 108 91 Q 108 67 126 47 Q 132 35 140 41 Q 168 62 170 158 Q 173 323 175 359 C 176 383 176 383 161 389 Z"/>
  <path id="z40440d7" d="M 175 359 Q 176 360 181 361 Q 275 386 388 403 Q 403 407 411 398 Q 418 394 420 360 Q 424 245 415 116 Q 414 97 407 92 Q 397 85 350 96 Q 337 99 338 91 Q 338 85 348 80 Q 391 43 412 16 Q 428 0 438 1 Q 448 4 458 26 Q 471 62 473 115 Q 464 352 479 378 Q 489 394 481 403 Q 474 415 437 435 Q 419 444 359 425 Q 244 398 161 389 C 131 385 146 351 175 359 Z"/>
  <path id="z40440d8" d="M 238 351 Q 238 327 194 280 Q 182 270 198 273 Q 222 273 282 333 Q 288 340 287 346 Q 284 353 268 358 Q 252 362 243 360 Q 239 359 238 351 Z"/>
  <path id="z40440d9" d="M 329 344 Q 359 311 377 302 Q 387 301 393 309 Q 397 316 395 327 Q 386 354 351 364 Q 323 370 321 369 Q 317 368 318 361 Q 319 354 329 344 Z"/>
  <path id="z40440d10" d="M 233 241 Q 223 245 202 246 Q 195 247 192 244 Q 188 240 195 229 Q 213 201 227 151 Q 231 136 240 127 Q 253 114 256 124 Q 257 130 257 137 L 255 156 L 255 157 Q 245 203 242 220 C 239 239 239 239 233 241 Z"/>
  <path id="z40440d11" d="M 350 177 Q 362 214 375 227 Q 391 246 374 256 Q 359 263 339 276 Q 324 283 288 261 Q 264 252 233 241 C 205 231 213 211 242 220 Q 264 227 300 237 Q 316 241 319 235 Q 323 232 319 214 Q 315 198 311 176 C 306 147 340 149 350 177 Z"/>
  <path id="z40440d12" d="M 257 137 Q 266 140 359 154 Q 375 158 369 167 Q 363 174 350 177 L 311 176 Q 296 173 255 156 C 227 145 228 130 257 137 Z"/>
  <path id="z40440d13" d="M 594 656 Q 640 698 665 726 Q 716 786 740 801 Q 759 814 745 830 Q 729 843 701 853 Q 676 862 664 856 Q 652 852 658 840 Q 670 813 627 742 Q 582 664 582 662 C 569 635 572 636 594 656 Z"/>
  <path id="z40440d14" d="M 606 648 L 594 656 L 582 662 Q 578 665 574 666 Q 558 672 549 663 Q 543 659 552 647 Q 568 616 569 445 Q 569 325 558 276 Q 552 257 567 242 Q 585 227 607 241 C 631 251 627 263 618 292 Q 614 295 609 343 L 608 366 Q 607 406 607 443 L 607 468 Q 607 472 607 477 Q 606 505 606 529 L 608 555 Q 609 610 620 620 C 627 634 627 634 606 648 Z"/>
  <path id="z40440d15" d="M 724 458 Q 739 434 753 426 Q 762 419 776 437 Q 791 459 825 583 Q 832 610 853 631 Q 865 641 855 654 Q 842 669 806 692 Q 790 701 734 683 Q 710 683 611 650 Q 608 650 606 648 C 578 638 592 611 620 620 Q 666 636 750 655 Q 766 658 775 653 Q 787 643 782 624 Q 752 498 738 483 C 724 458 724 458 724 458 Z"/>
  <path id="z40440d16" d="M 606 529 Q 607 529 611 529 Q 668 539 709 546 Q 730 550 721 561 Q 711 574 688 577 Q 652 580 608 555 C 582 540 576 529 606 529 Z"/>
  <path id="z40440d17" d="M 607 443 Q 671 452 724 458 C 754 461 765 471 738 483 Q 711 498 607 468 C 578 460 577 439 607 443 Z"/>
  <path id="z40440d18" d="M 609 343 Q 615 342 623 343 Q 717 361 789 372 Q 808 375 801 386 Q 792 398 771 402 Q 747 403 608 366 C 579 358 579 345 609 343 Z"/>
  <path id="z40440d19" d="M 607 241 Q 664 280 840 291 Q 868 295 882 285 Q 894 275 867 118 Q 860 72 838 41 Q 829 34 780 48 Q 752 57 751 51 Q 750 47 757 39 Q 797 -10 811 -41 Q 818 -60 835 -52 Q 893 -25 905 37 Q 921 119 935 210 Q 941 244 958 274 Q 970 290 958 301 Q 942 320 907 338 Q 888 348 861 337 Q 846 331 700 303 Q 621 291 618 292 C 588 289 581 226 607 241 Z"/>
  <path id="z40440d20" d="M 531 187 Q 515 138 489 94 Q 476 63 490 38 Q 497 25 514 35 Q 557 72 555 140 Q 558 168 551 188 Q 547 195 541 195 Q 534 194 531 187 Z"/>
  <path id="z40440d21" d="M 600 173 Q 613 95 630 86 Q 637 79 650 89 Q 656 96 658 115 Q 658 146 614 190 Q 608 194 603 187 Q 599 183 600 173 Z"/>
  <path id="z40440d22" d="M 682 197 Q 706 121 725 112 Q 734 106 744 118 Q 750 127 749 144 Q 748 162 730 178 Q 706 206 694 215 Q 687 219 683 211 Q 680 205 682 197 Z"/>
  <path id="z40440d23" d="M 775 200 Q 788 178 800 152 Q 807 139 818 135 Q 827 134 833 141 Q 840 151 842 175 Q 842 202 784 236 Q 774 243 768 242 Q 764 241 762 231 Q 761 222 775 200 Z"/>
<defs>
  <clipPath id="z40440c1"><use href="#z40440d1"/></clipPath>
  <clipPath id="z40440c2"><use href="#z40440d2"/></clipPath>
  <clipPath id="z40440c3"><use href="#z40440d3"/></clipPath>
  <clipPath id="z40440c4"><use href="#z40440d4"/></clipPath>
  <clipPath id="z40440c5"><use href="#z40440d5"/></clipPath>
  <clipPath id="z40440c6"><use href="#z40440d6"/></clipPath>
  <clipPath id="z40440c7"><use href="#z40440d7"/></clipPath>
  <clipPath id="z40440c8"><use href="#z40440d8"/></clipPath>
  <clipPath id="z40440c9"><use href="#z40440d9"/></clipPath>
  <clipPath id="z40440c10"><use href="#z40440d10"/></clipPath>
  <clipPath id="z40440c11"><use href="#z40440d11"/></clipPath>
  <clipPath id="z40440c12"><use href="#z40440d12"/></clipPath>
  <clipPath id="z40440c13"><use href="#z40440d13"/></clipPath>
  <clipPath id="z40440c14"><use href="#z40440d14"/></clipPath>
  <clipPath id="z40440c15"><use href="#z40440d15"/></clipPath>
  <clipPath id="z40440c16"><use href="#z40440d16"/></clipPath>
  <clipPath id="z40440c17"><use href="#z40440d17"/></clipPath>
  <clipPath id="z40440c18"><use href="#z40440d18"/></clipPath>
  <clipPath id="z40440c19"><use href="#z40440d19"/></clipPath>
  <clipPath id="z40440c20"><use href="#z40440d20"/></clipPath>
  <clipPath id="z40440c21"><use href="#z40440d21"/></clipPath>
  <clipPath id="z40440c22"><use href="#z40440d22"/></clipPath>
  <clipPath id="z40440c23"><use href="#z40440d23"/></clipPath>
</defs>
<path style="--d:1s;" pathLength="3333" clip-path="url(#z40440c1)" d="M 187 765 L 204 756 L 240 754 L 348 792 L 388 801 L 405 799 L 428 774 L 424 767 L 348 686 L 341 688"/>
<path style="--d:2s;" pathLength="3333" clip-path="url(#z40440c2)" d="M 273 696 L 337 651"/>
<path style="--d:3s;" pathLength="3333" clip-path="url(#z40440c3)" d="M 93 578 L 146 580 L 423 641 L 454 632 L 463 620 L 412 568"/>
<path style="--d:4s;" pathLength="3333" clip-path="url(#z40440c4)" d="M 341 600 L 350 530 L 345 487 L 335 464 L 330 459 L 263 486"/>
<path style="--d:5s;" pathLength="3333" clip-path="url(#z40440c5)" d="M 332 605 L 294 579 L 256 527 L 214 487 L 170 456 L 120 431"/>
<path style="--d:6s;" pathLength="3333" clip-path="url(#z40440c6)" d="M 125 390 L 144 373 L 151 355 L 155 306 L 153 195 L 135 87 L 136 51"/>
<path style="--d:7s;" pathLength="3333" clip-path="url(#z40440c7)" d="M 168 386 L 184 377 L 198 379 L 394 420 L 427 415 L 447 393 L 442 93 L 427 58 L 346 88"/>
<path style="--d:8s;" pathLength="3333" clip-path="url(#z40440c8)" d="M 277 342 L 258 338 L 225 297 L 201 279"/>
<path style="--d:9s;" pathLength="3333" clip-path="url(#z40440c9)" d="M 325 363 L 370 332 L 380 317"/>
<path style="--d:10s;" pathLength="3333" clip-path="url(#z40440c10)" d="M 199 238 L 223 218 L 248 128"/>
<path style="--d:11s;" pathLength="3333" clip-path="url(#z40440c11)" d="M 242 239 L 249 234 L 318 257 L 334 253 L 348 238 L 345 225 L 336 197 L 317 182"/>
<path style="--d:12s;" pathLength="3333" clip-path="url(#z40440c12)" d="M 258 142 L 267 152 L 310 161 L 361 163"/>
<path style="--d:13s;" pathLength="3333" clip-path="url(#z40440c13)" d="M 666 846 L 687 831 L 697 815 L 657 747 L 589 661"/>
<path style="--d:14s;" pathLength="3333" clip-path="url(#z40440c14)" d="M 558 656 L 578 640 L 588 618 L 589 296 L 584 263 L 595 250"/>
<path style="--d:15s;" pathLength="3333" clip-path="url(#z40440c15)" d="M 611 642 L 632 641 L 767 675 L 794 669 L 812 652 L 817 642 L 780 516 L 757 460 L 759 442"/>
<path style="--d:16s;" pathLength="3333" clip-path="url(#z40440c16)" d="M 609 535 L 622 547 L 671 559 L 713 555"/>
<path style="--d:17s;" pathLength="3333" clip-path="url(#z40440c17)" d="M 614 449 L 622 461 L 732 478"/>
<path style="--d:18s;" pathLength="3333" clip-path="url(#z40440c18)" d="M 616 349 L 624 359 L 735 381 L 773 386 L 793 381"/>
<path style="--d:19s;" pathLength="3333" clip-path="url(#z40440c19)" d="M 609 247 L 636 276 L 715 294 L 876 316 L 892 313 L 913 298 L 922 284 L 893 110 L 878 50 L 863 17 L 837 -2 L 768 45 L 757 46"/>
<path style="--d:20s;" pathLength="3333" clip-path="url(#z40440c20)" d="M 541 185 L 533 130 L 503 45"/>
<path style="--d:21s;" pathLength="3333" clip-path="url(#z40440c21)" d="M 611 178 L 631 134 L 638 98"/>
<path style="--d:22s;" pathLength="3333" clip-path="url(#z40440c22)" d="M 691 205 L 724 151 L 732 124"/>
<path style="--d:23s;" pathLength="3333" clip-path="url(#z40440c23)" d="M 770 234 L 813 182 L 820 150"/>
</svg>