<svg id="z40285" class="acjk" viewBox="0 0 1024 1024" xmlns="http://www.w3.org/2000/svg">
<style>
<![CDATA[
@keyframes zk {
	to {
		stroke-dashoffset:0;
	}
}
svg.acjk path[clip-path] {
	--t:0.8s;
	animation:zk var(--t) linear forwards var(--d);
	stroke-dasharray:3337;
	stroke-dashoffset:3339;
	stroke-width:128;
	stroke-linecap:round;
	stroke-linejoin:round;
	fill:none;
	stroke:#000;
}
svg.acjk path[id] {fill:#ccc;}
]]>
</style>
  <path id="z40285d1" d="M 222 596 Q 261 623 301 637 Q 314 640 315 646 Q 316 655 307 662 Q 288 672 253 679 Q 240 683 230 680 Q 226 676 226 668 Q 229 638 111 557 Q 108 550 113 548 Q 116 549 124 553 Q 128 554 201 585 L 222 596 Z"/>
  <path id="z40285d2" d="M 382 527 Q 430 540 473 552 Q 482 552 488 563 Q 488 572 469 578 Q 445 590 379 565 L 346 553 Q 313 544 261 522 L 223 511 Q 205 508 97 479 Q 75 475 93 462 Q 120 447 159 459 Q 189 469 227 481 L 264 492 Q 304 507 349 519 L 382 527 Z"/>
  <path id="z40285d3" d="M 261 522 Q 254 579 249 582 Q 236 592 222 596 C 194 608 191 609 201 585 Q 210 570 223 511 L 227 481 Q 231 438 232 387 L 233 354 Q 233 222 205 178 Q 202 172 196 170 Q 190 170 139 190 Q 132 191 130 189 Q 129 186 134 178 Q 171 132 190 98 Q 197 88 202 88 Q 212 88 232 106 Q 280 151 276 311 Q 275 342 273 379 Q 272 382 272 383 L 271 408 Q 267 466 264 492 L 261 522 Z"/>
  <path id="z40285d4" d="M 232 387 Q 165 353 107 317 Q 79 301 60 297 Q 50 293 48 286 Q 47 279 58 267 Q 74 254 92 247 Q 101 246 129 268 Q 180 316 233 354 L 272 383 Q 284 393 297 401 Q 313 411 321 422 Q 327 432 318 432 Q 308 431 290 418 Q 280 414 271 408 L 232 387 Z"/>
  <path id="z40285d5" d="M 396 293 Q 453 155 497 147 Q 507 144 515 153 Q 522 159 519 193 Q 516 227 526 296 Q 530 318 523 319 Q 517 320 509 302 Q 485 224 469 248 Q 439 291 425 328 L 411 366 Q 386 448 382 527 L 379 565 Q 372 724 386 780 Q 399 807 375 827 Q 362 840 351 842 Q 342 843 341 843 Q 325 842 335 822 Q 341 816 346 739 Q 340 648 346 553 L 349 519 Q 361 396 385 323 L 396 293 Z"/>
  <path id="z40285d6" d="M 385 323 Q 364 293 312 236 Q 308 232 314 231 Q 341 238 396 293 L 425 328 Q 437 341 488 432 Q 498 454 499 456 Q 498 462 488 469 Q 466 485 443 481 Q 437 480 439 471 Q 451 437 411 366 L 385 323 Z"/>
  <path id="z40285d7" d="M 432 680 Q 472 626 480 625 Q 487 624 494 633 Q 498 643 497 665 Q 496 680 477 693 Q 431 721 420 718 Q 416 717 415 707 Q 416 698 432 680 Z"/>
  <path id="z40285d8" d="M 636 699 Q 669 733 689 755 Q 743 819 753 826 Q 769 839 756 853 Q 740 865 714 872 Q 690 879 680 873 Q 670 869 675 858 Q 685 831 619 701 Q 618 697 617 694 C 611 673 615 677 636 699 Z"/>
  <path id="z40285d9" d="M 611 426 Q 611 457 611 489 L 611 516 Q 611 519 612 521 Q 611 551 612 576 L 614 599 Q 614 641 628 666 C 637 685 637 685 617 694 Q 614 694 613 694 Q 600 704 583 710 Q 565 717 557 708 Q 551 704 559 692 Q 572 667 573 525 Q 573 386 558 320 Q 552 301 567 287 Q 585 272 607 285 C 611 287 611 320 611 350 Q 611 375 611 402 L 611 426 Z"/>
  <path id="z40285d10" d="M 757 507 Q 758 506 759 502 Q 763 489 775 489 Q 788 490 795 503 Q 808 519 831 597 Q 846 642 878 667 Q 896 680 882 695 Q 866 711 823 734 Q 807 744 753 728 Q 675 713 636 699 C 608 689 588 652 628 666 Q 671 682 769 701 Q 787 704 793 701 Q 802 695 796 666 Q 772 555 761 531 C 754 513 754 513 757 507 Z"/>
  <path id="z40285d11" d="M 612 576 Q 613 576 618 576 Q 685 586 736 592 Q 755 595 749 606 Q 740 618 719 622 Q 695 625 614 599 C 585 590 582 576 612 576 Z"/>
  <path id="z40285d12" d="M 611 489 Q 617 488 626 490 Q 666 500 757 507 C 785 509 783 511 761 531 Q 757 535 752 538 Q 739 545 714 539 Q 657 524 611 516 C 581 511 581 491 611 489 Z"/>
  <path id="z40285d13" d="M 611 402 Q 644 393 782 427 Q 782 428 783 428 Q 789 434 786 440 Q 782 447 761 453 Q 740 457 719 449 Q 694 442 667 435 Q 640 431 611 426 C 581 421 582 408 611 402 Z"/>
  <path id="z40285d14" d="M 607 285 Q 643 309 759 323 Q 870 341 894 324 Q 904 314 893 272 Q 886 214 873 154 Q 866 106 843 76 Q 836 69 818 70 Q 793 80 768 88 Q 755 94 755 87 Q 754 83 761 74 Q 801 25 814 -8 Q 821 -27 838 -20 Q 862 -10 881 5 Q 905 33 912 69 Q 931 153 946 246 Q 953 280 971 311 Q 984 326 972 338 Q 956 357 921 378 Q 902 390 874 378 Q 834 362 797 359 Q 745 353 638 335 Q 613 328 611 350 C 592 373 580 272 607 285 Z"/>
  <path id="z40285d15" d="M 559 226 Q 549 178 532 134 Q 519 113 538 88 Q 545 76 559 88 Q 593 124 584 189 Q 584 211 576 229 Q 572 233 567 234 Q 561 233 559 226 Z"/>
  <path id="z40285d16" d="M 636 201 Q 648 141 654 137 Q 658 133 666 137 Q 673 143 680 160 Q 686 179 650 225 Q 644 232 641 234 Q 637 234 633 227 Q 632 220 636 201 Z"/>
  <path id="z40285d17" d="M 709 225 Q 733 165 738 162 Q 744 161 750 165 Q 757 172 760 190 Q 763 203 750 220 Q 719 259 708 258 Q 704 257 702 250 Q 701 243 709 225 Z"/>
  <path id="z40285d18" d="M 788 251 Q 819 191 825 189 Q 832 188 838 193 Q 844 200 846 220 Q 847 233 832 251 Q 793 285 784 286 Q 780 285 778 277 Q 778 270 788 251 Z"/>
<defs>
  <clipPath id="z40285c1"><use href="#z40285d1"/></clipPath>
  <clipPath id="z40285c2"><use href="#z40285d2"/></clipPath>
  <clipPath id="z40285c3"><use href="#z40285d3"/></clipPath>
  <clipPath id="z40285c4"><use href="#z40285d4"/></clipPath>
  <clipPath id="z40285c5"><use href="#z40285d5"/></clipPath>
  <clipPath id="z40285c6"><use href="#z40285d6"/></clipPath>
  <clipPath id="z40285c7"><use href="#z40285d7"/></clipPath>
  <clipPath id="z40285c8"><use href="#z40285d8"/></clipPath>
  <clipPath id="z40285c9"><use href="#z40285d9"/></clipPath>
  <clipPath id="z40285c10"><use href="#z40285d10"/></clipPath>
  <clipPath id="z40285c11"><use href="#z40285d11"/></clipPath>
  <clipPath id="z40285c12"><use href="#z40285d12"/></clipPath>
  <clipPath id="z40285c13"><use href="#z40285d13"/></clipPath>
  <clipPath id="z40285c14"><use href="#z40285d14"/></clipPath>
  <clipPath id="z40285c15"><use href="#z40285d15"/></clipPath>
  <clipPath id="z40285c16"><use href="#z40285d16"/></clipPath>
  <clipPath id="z40285c17"><use href="#z40285d17"/></clipPath>
  <clipPath id="z40285c18"><use href="#z40285d18"/></clipPath>
</defs>
<path style="--d:1s;" pathLength="3333" clip-path="url(#z40285c1)" d="M 306 649 L 255 649 L 185 591 L 127 564"/>
<path style="--d:2s;" pathLength="3333" clip-path="url(#z40285c2)" d="M 94 471 L 147 473 L 395 552 L 453 565 L 479 563"/>
<path style="--d:3s;" pathLength="3333" clip-path="url(#z40285c3)" d="M 208 584 L 231 569 L 245 498 L 255 300 L 249 223 L 229 158 L 210 136 L 135 185"/>
<path style="--d:4s;" pathLength="3333" clip-path="url(#z40285c4)" d="M 58 284 L 88 278 L 105 284 L 314 425"/>
<path style="--d:5s;" pathLength="3333" clip-path="url(#z40285c5)" d="M 341 832 L 357 818 L 366 798 L 359 624 L 365 511 L 377 427 L 418 289 L 448 235 L 471 211 L 484 209 L 494 223 L 522 314"/>
<path style="--d:6s;" pathLength="3333" clip-path="url(#z40285c6)" d="M 451 472 L 468 451 L 437 376 L 391 307 L 344 256 L 319 243 L 317 235"/>
<path style="--d:7s;" pathLength="3333" clip-path="url(#z40285c7)" d="M 423 710 L 468 671 L 482 634"/>
<path style="--d:8s;" pathLength="3333" clip-path="url(#z40285c8)" d="M 688 862 L 711 834 L 681 778 L 621 697"/>
<path style="--d:9s;" pathLength="3333" clip-path="url(#z40285c9)" d="M 566 701 L 573 699 L 595 667 L 591 408 L 582 309 L 596 292"/>
<path style="--d:10s;" pathLength="3333" clip-path="url(#z40285c10)" d="M 624 688 L 638 684 L 784 720 L 811 715 L 819 708 L 837 682 L 813 626 L 775 505"/>
<path style="--d:11s;" pathLength="3333" clip-path="url(#z40285c11)" d="M 615 582 L 649 597 L 707 606 L 740 602"/>
<path style="--d:12s;" pathLength="3333" clip-path="url(#z40285c12)" d="M 618 496 L 634 507 L 750 527"/>
<path style="--d:13s;" pathLength="3333" clip-path="url(#z40285c13)" d="M 616 408 L 752 438 L 776 436"/>
<path style="--d:14s;" pathLength="3333" clip-path="url(#z40285c14)" d="M 609 291 L 628 317 L 822 348 L 900 355 L 930 331 L 935 322 L 899 139 L 869 51 L 843 30 L 762 82"/>
<path style="--d:15s;" pathLength="3333" clip-path="url(#z40285c15)" d="M 568 225 L 565 163 L 549 94"/>
<path style="--d:16s;" pathLength="3333" clip-path="url(#z40285c16)" d="M 641 225 L 663 166 L 660 144"/>
<path style="--d:17s;" pathLength="3333" clip-path="url(#z40285c17)" d="M 709 251 L 742 196 L 743 169"/>
<path style="--d:18s;" pathLength="3333" clip-path="url(#z40285c18)" d="M 785 279 L 820 234 L 830 197"/>
</svg>