<svg id="z40493" class="acjk" viewBox="0 0 1024 1024" xmlns="http://www.w3.org/2000/svg">
<style>
<![CDATA[
@keyframes zk {
	to {
		stroke-dashoffset:0;
	}
}
svg.acjk path[clip-path] {
	--t:0.8s;
	animation:zk var(--t) linear forwards var(--d);
	stroke-dasharray:3337;
	stroke-dashoffset:3339;
	stroke-width:128;
	stroke-linecap:round;
	stroke-linejoin:round;
	fill:none;
	stroke:#000;
}
svg.acjk path[id] {fill:#ccc;}
]]>
</style>
  <path id="z40493d1" d="M 136 624 Q 129 628 118 629 Q 106 632 103 627 Q 96 621 104 606 Q 135 530 151 409 Q 152 372 173 347 Q 189 326 195 341 Q 199 351 199 367 L 199 392 Q 198 405 195 421 Q 170 566 169 597 Q 168 598 168 599 L 136 624 Z"/>
  <path id="z40493d2" d="M 359 397 Q 375 376 389 370 Q 399 363 411 383 Q 426 414 446 574 Q 453 602 472 624 Q 482 636 472 648 Q 457 661 419 683 Q 409 687 332 669 Q 326 669 224 645 Q 176 633 136 624 C 107 617 139 590 168 599 Q 199 609 245 619 L 281 627 Q 374 649 387 638 Q 403 622 401 604 Q 383 450 368 425 C 358 399 358 399 359 397 Z"/>
  <path id="z40493d3" d="M 298 498 Q 326 507 351 511 Q 370 515 361 526 Q 351 536 330 539 Q 317 540 299 534 L 259 519 Q 231 509 209 499 Q 196 495 213 484 L 259 489 L 298 498 Z"/>
  <path id="z40493d4" d="M 296 386 Q 327 393 359 397 C 389 401 395 411 368 425 Q 350 437 301 422 Q 297 422 296 420 C 283 415 283 415 258 409 Q 227 402 199 392 C 171 382 170 361 199 367 Q 202 368 257 378 L 296 386 Z"/>
  <path id="z40493d5" d="M 257 378 Q 257 204 235 122 Q 226 86 258 39 Q 268 21 275 18 Q 285 17 291 29 Q 303 59 299 87 Q 295 249 296 386 L 296 420 Q 296 424 297 428 Q 297 467 298 498 L 299 534 Q 300 574 306 595 Q 307 607 301 612 Q 291 621 281 627 C 257 645 234 647 245 619 Q 255 601 257 569 Q 258 547 259 519 L 259 489 Q 259 453 258 409 L 257 378 Z"/>
  <path id="z40493d6" d="M 561 647 Q 597 686 618 711 Q 678 781 690 790 Q 708 805 694 819 Q 678 832 649 840 Q 624 847 612 842 Q 599 838 607 825 Q 616 804 556 681 Q 550 671 545 658 C 534 630 541 625 561 647 Z"/>
  <path id="z40493d7" d="M 572 612 Q 615 630 728 655 Q 738 656 745 652 Q 755 648 755 630 Q 754 587 735 513 Q 732 489 710 493 Q 685 496 666 499 Q 651 502 655 493 Q 656 484 681 465 Q 706 438 722 410 Q 729 400 739 404 Q 746 405 760 428 Q 778 455 793 533 Q 805 629 818 641 Q 828 651 823 661 Q 814 671 780 692 Q 768 699 719 686 Q 713 686 609 658 Q 581 651 561 647 C 532 641 544 601 572 612 Z"/>
  <path id="z40493d8" d="M 599 568 Q 638 522 658 521 Q 668 521 672 534 Q 673 544 665 559 Q 658 569 640 575 Q 612 585 601 588 Q 594 589 594 580 Q 593 574 599 568 Z"/>
  <path id="z40493d9" d="M 553 287 Q 572 302 616 312 Q 706 336 800 342 Q 831 346 844 333 Q 856 323 843 279 Q 839 221 829 158 Q 823 110 803 78 Q 793 65 766 70 Q 730 77 698 83 Q 682 86 683 79 Q 683 73 693 66 Q 754 15 777 -20 Q 787 -39 805 -28 Q 866 8 875 73 Q 890 158 900 255 Q 906 292 923 322 Q 936 338 924 351 Q 906 370 869 390 Q 848 402 821 389 Q 781 371 744 367 Q 692 361 586 340 Q 561 336 560 356 Q 556 561 572 612 C 581 662 573 648 545 658 Q 536 664 526 667 Q 507 673 499 664 Q 493 658 501 647 Q 525 605 513 383 Q 510 353 504 325 Q 500 304 514 290 Q 535 274 553 287 Z"/>
  <path id="z40493d10" d="M 567 179 Q 687 200 756 195 Q 775 194 778 202 Q 784 212 773 221 Q 713 266 658 242 Q 636 238 613 231 Q 474 207 437 198 Q 404 191 353 186 Q 343 185 342 176 Q 343 166 359 156 Q 372 147 398 140 Q 407 139 420 146 Q 427 149 464 157 Q 510 170 567 179 Z"/>
<defs>
  <clipPath id="z40493c1"><use href="#z40493d1"/></clipPath>
  <clipPath id="z40493c2"><use href="#z40493d2"/></clipPath>
  <clipPath id="z40493c3"><use href="#z40493d3"/></clipPath>
  <clipPath id="z40493c4"><use href="#z40493d4"/></clipPath>
  <clipPath id="z40493c5"><use href="#z40493d5"/></clipPath>
  <clipPath id="z40493c6"><use href="#z40493d6"/></clipPath>
  <clipPath id="z40493c7"><use href="#z40493d7"/></clipPath>
  <clipPath id="z40493c8"><use href="#z40493d8"/></clipPath>
  <clipPath id="z40493c9"><use href="#z40493d9"/></clipPath>
  <clipPath id="z40493c10"><use href="#z40493d10"/></clipPath>
</defs>
<path style="--d:1s;" pathLength="3333" clip-path="url(#z40493c1)" d="M 112 619 L 142 584 L 185 347"/>
<path style="--d:2s;" pathLength="3333" clip-path="url(#z40493c2)" d="M 143 623 L 184 619 L 240 637 L 369 660 L 402 658 L 427 640 L 432 623 L 390 403 L 395 386"/>
<path style="--d:3s;" pathLength="3333" clip-path="url(#z40493c3)" d="M 218 493 L 324 523 L 354 520"/>
<path style="--d:4s;" pathLength="3333" clip-path="url(#z40493c4)" d="M 200 373 L 212 383 L 361 420"/>
<path style="--d:5s;" pathLength="3333" clip-path="url(#z40493c5)" d="M 252 616 L 280 595 L 277 320 L 266 111 L 277 28"/>
<path style="--d:6s;" pathLength="3333" clip-path="url(#z40493c6)" d="M 613 832 L 627 825 L 645 801 L 569 674 L 553 662"/>
<path style="--d:7s;" pathLength="3333" clip-path="url(#z40493c7)" d="M 567 643 L 582 634 L 734 674 L 769 667 L 785 650 L 762 508 L 742 466 L 732 459 L 663 492"/>
<path style="--d:8s;" pathLength="3333" clip-path="url(#z40493c8)" d="M 603 579 L 640 555 L 657 536"/>
<path style="--d:9s;" pathLength="3333" clip-path="url(#z40493c9)" d="M 509 657 L 534 634 L 541 612 L 534 357 L 539 320 L 587 322 L 837 367 L 861 360 L 886 333 L 874 282 L 857 143 L 830 51 L 807 28 L 788 29 L 691 79"/>
<path style="--d:10s;" pathLength="3333" clip-path="url(#z40493c10)" d="M 353 175 L 400 166 L 544 198 L 694 223 L 766 209"/>
</svg>