<svg id="z40680" class="acjk" viewBox="0 0 1024 1024" xmlns="http://www.w3.org/2000/svg">
<style>
<![CDATA[
@keyframes zk {
	to {
		stroke-dashoffset:0;
	}
}
svg.acjk path[clip-path] {
	--t:0.8s;
	animation:zk var(--t) linear forwards var(--d);
	stroke-dasharray:3337;
	stroke-dashoffset:3339;
	stroke-width:128;
	stroke-linecap:round;
	stroke-linejoin:round;
	fill:none;
	stroke:#000;
}
svg.acjk path[id] {fill:#ccc;}
]]>
</style>
  <path id="z40680d1" d="M 524 686 Q 534 734 543 778 Q 552 802 554 808 Q 558 818 541 831 Q 513 849 492 853 Q 479 857 472 850 Q 465 844 471 831 Q 486 812 487 681 C 487 651 518 657 524 686 Z"/>
  <path id="z40680d2" d="M 343 743 Q 365 724 388 702 Q 400 692 413 693 Q 420 694 425 704 Q 429 717 421 741 Q 417 757 391 768 Q 330 786 320 783 Q 316 779 317 769 Q 320 759 343 743 Z"/>
  <path id="z40680d3" d="M 632 793 Q 616 771 584 736 Q 578 730 583 723 Q 590 722 597 725 Q 664 756 696 768 Q 712 771 709 781 Q 705 796 690 814 Q 675 832 655 836 Q 642 837 641 819 Q 642 806 632 793 Z"/>
  <path id="z40680d4" d="M 248 648 Q 239 664 231 671 Q 213 686 211 661 Q 217 621 162 567 Q 146 546 169 494 Q 187 472 200 495 Q 216 517 227 550 Q 242 598 254 620 C 259 629 259 629 248 648 Z"/>
  <path id="z40680d5" d="M 254 620 Q 276 607 331 622 Q 454 656 705 682 Q 759 688 777 684 Q 793 677 790 668 Q 790 665 762 602 Q 753 587 759 584 Q 766 580 784 591 Q 836 624 878 633 Q 912 640 912 651 Q 911 661 844 712 Q 820 733 723 715 Q 624 703 524 686 L 487 681 Q 433 675 372 665 Q 312 656 248 648 C 218 644 225 628 254 620 Z"/>
  <path id="z40680d6" d="M 407 606 Q 397 610 381 610 Q 372 611 370 608 Q 366 604 373 592 Q 391 564 406 515 Q 410 500 419 492 Q 434 476 437 488 Q 438 492 438 499 L 436 518 Q 427 566 423 583 C 419 602 419 602 407 606 Z"/>
  <path id="z40680d7" d="M 596 540 Q 614 576 632 586 Q 644 599 634 612 Q 624 622 586 641 Q 573 647 558 641 Q 498 617 407 606 C 377 602 393 579 423 583 Q 427 583 547 604 Q 560 607 566 601 Q 569 598 559 546 C 553 517 582 513 596 540 Z"/>
  <path id="z40680d8" d="M 438 499 L 597 518 Q 615 519 608 530 Q 604 536 596 540 L 559 546 Q 546 545 531 541 Q 480 529 436 518 C 407 511 408 495 438 499 Z"/>
  <path id="z40680d9" d="M 335 441 Q 325 447 290 451 Q 280 452 276 448 Q 272 442 280 429 Q 305 383 326 307 Q 330 285 345 269 Q 361 251 366 265 Q 366 268 367 271 L 367 295 Q 366 305 364 316 Q 349 380 343 408 C 337 437 336 441 335 441 Z"/>
  <path id="z40680d10" d="M 644 308 Q 657 283 672 274 Q 682 267 697 285 Q 707 298 736 374 Q 746 402 769 425 Q 782 437 772 450 Q 759 466 719 493 Q 701 502 623 485 Q 613 485 335 441 C 305 436 314 400 343 408 Q 395 423 468 434 L 510 440 Q 658 470 684 449 Q 691 442 689 430 Q 668 339 653 332 C 640 315 640 315 644 308 Z"/>
  <path id="z40680d11" d="M 388 380 Q 418 335 435 331 Q 444 330 449 342 Q 450 351 446 365 Q 431 392 393 398 Q 386 399 385 392 Q 384 386 388 380 Z"/>
  <path id="z40680d12" d="M 590 407 Q 577 391 552 364 Q 548 360 551 356 Q 555 355 561 356 Q 610 381 634 390 Q 646 391 644 398 Q 641 408 631 421 Q 621 434 606 437 Q 597 437 596 425 Q 597 418 590 407 Z"/>
  <path id="z40680d13" d="M 524 292 Q 588 302 644 308 C 674 311 681 321 653 332 Q 625 348 526 323 L 481 315 Q 421 305 367 295 C 337 290 337 272 367 271 Q 379 270 397 272 Q 440 279 481 285 L 524 292 Z"/>
  <path id="z40680d14" d="M 520 163 Q 520 187 521 209 L 522 246 Q 522 270 524 292 L 526 323 Q 526 351 528 376 Q 531 424 514 437 Q 511 438 510 440 C 487 459 453 460 468 434 Q 471 428 475 422 Q 478 413 481 315 L 481 285 Q 481 264 481 237 L 481 203 Q 481 182 481 157 C 481 127 520 133 520 163 Z"/>
  <path id="z40680d15" d="M 521 209 Q 554 216 591 221 Q 622 227 626 231 Q 633 237 630 243 Q 626 253 603 259 Q 587 262 522 246 L 481 237 Q 441 230 395 227 Q 367 224 387 211 Q 417 190 461 200 Q 468 201 481 203 L 521 209 Z"/>
  <path id="z40680d16" d="M 481 157 Q 400 148 306 137 Q 290 136 301 122 Q 328 98 356 106 Q 468 133 710 134 Q 726 134 730 141 Q 734 150 722 161 Q 674 195 622 180 Q 580 174 520 163 L 481 157 Z"/>
  <path id="z40680d17" d="M 226 99 Q 196 50 159 8 Q 134 -20 147 -58 Q 151 -77 174 -67 Q 199 -54 217 -25 Q 238 8 243 38 Q 253 69 250 95 Q 246 105 240 106 Q 231 106 226 99 Z"/>
  <path id="z40680d18" d="M 354 40 Q 384 -17 407 -30 Q 417 -36 428 -27 Q 435 -17 436 -3 Q 433 31 371 69 Q 358 76 350 74 Q 346 74 345 64 Q 344 54 354 40 Z"/>
  <path id="z40680d19" d="M 513 54 Q 543 0 564 -14 Q 574 -18 584 -11 Q 591 -2 592 11 Q 589 51 529 81 Q 519 87 510 86 Q 506 86 505 76 Q 504 67 513 54 Z"/>
  <path id="z40680d20" d="M 697 82 Q 746 37 806 -27 Q 822 -46 837 -50 Q 846 -51 853 -41 Q 865 -28 852 15 Q 836 72 698 112 Q 689 118 687 105 Q 687 92 697 82 Z"/>
<defs>
  <clipPath id="z40680c1"><use href="#z40680d1"/></clipPath>
  <clipPath id="z40680c2"><use href="#z40680d2"/></clipPath>
  <clipPath id="z40680c3"><use href="#z40680d3"/></clipPath>
  <clipPath id="z40680c4"><use href="#z40680d4"/></clipPath>
  <clipPath id="z40680c5"><use href="#z40680d5"/></clipPath>
  <clipPath id="z40680c6"><use href="#z40680d6"/></clipPath>
  <clipPath id="z40680c7"><use href="#z40680d7"/></clipPath>
  <clipPath id="z40680c8"><use href="#z40680d8"/></clipPath>
  <clipPath id="z40680c9"><use href="#z40680d9"/></clipPath>
  <clipPath id="z40680c10"><use href="#z40680d10"/></clipPath>
  <clipPath id="z40680c11"><use href="#z40680d11"/></clipPath>
  <clipPath id="z40680c12"><use href="#z40680d12"/></clipPath>
  <clipPath id="z40680c13"><use href="#z40680d13"/></clipPath>
  <clipPath id="z40680c14"><use href="#z40680d14"/></clipPath>
  <clipPath id="z40680c15"><use href="#z40680d15"/></clipPath>
  <clipPath id="z40680c16"><use href="#z40680d16"/></clipPath>
  <clipPath id="z40680c17"><use href="#z40680d17"/></clipPath>
  <clipPath id="z40680c18"><use href="#z40680d18"/></clipPath>
  <clipPath id="z40680c19"><use href="#z40680d19"/></clipPath>
  <clipPath id="z40680c20"><use href="#z40680d20"/></clipPath>
</defs>
<path style="--d:1s;" pathLength="3333" clip-path="url(#z40680c1)" d="M 482 840 L 516 806 L 507 704 L 492 694"/>
<path style="--d:2s;" pathLength="3333" clip-path="url(#z40680c2)" d="M 324 775 L 386 741 L 409 710"/>
<path style="--d:3s;" pathLength="3333" clip-path="url(#z40680c3)" d="M 654 822 L 668 791 L 589 729"/>
<path style="--d:4s;" pathLength="3333" clip-path="url(#z40680c4)" d="M 221 666 L 230 646 L 229 623 L 189 547 L 184 499"/>
<path style="--d:5s;" pathLength="3333" clip-path="url(#z40680c5)" d="M 257 643 L 269 633 L 299 634 L 534 676 L 778 704 L 816 691 L 831 673 L 832 662 L 764 589"/>
<path style="--d:6s;" pathLength="3333" clip-path="url(#z40680c6)" d="M 376 604 L 404 578 L 428 492"/>
<path style="--d:7s;" pathLength="3333" clip-path="url(#z40680c7)" d="M 416 604 L 428 596 L 447 598 L 558 623 L 575 622 L 598 599 L 584 564 L 567 556"/>
<path style="--d:8s;" pathLength="3333" clip-path="url(#z40680c8)" d="M 445 505 L 448 510 L 554 530 L 601 525"/>
<path style="--d:9s;" pathLength="3333" clip-path="url(#z40680c9)" d="M 284 443 L 314 419 L 356 270"/>
<path style="--d:10s;" pathLength="3333" clip-path="url(#z40680c10)" d="M 348 415 L 354 428 L 430 445 L 521 453 L 636 474 L 698 471 L 721 452 L 727 436 L 699 355 L 677 311 L 679 292"/>
<path style="--d:11s;" pathLength="3333" clip-path="url(#z40680c11)" d="M 394 388 L 420 368 L 436 343"/>
<path style="--d:12s;" pathLength="3333" clip-path="url(#z40680c12)" d="M 634 400 L 614 406 L 556 359"/>
<path style="--d:13s;" pathLength="3333" clip-path="url(#z40680c13)" d="M 374 277 L 380 284 L 646 328"/>
<path style="--d:14s;" pathLength="3333" clip-path="url(#z40680c14)" d="M 476 430 L 501 414 L 504 387 L 501 187 L 486 165"/>
<path style="--d:15s;" pathLength="3333" clip-path="url(#z40680c15)" d="M 388 220 L 423 213 L 449 215 L 571 238 L 618 240"/>
<path style="--d:16s;" pathLength="3333" clip-path="url(#z40680c16)" d="M 314 126 L 338 122 L 646 159 L 693 155 L 721 146"/>
<path style="--d:17s;" pathLength="3333" clip-path="url(#z40680c17)" d="M 237 94 L 217 37 L 174 -28 L 163 -55"/>
<path style="--d:18s;" pathLength="3333" clip-path="url(#z40680c18)" d="M 354 66 L 409 2 L 416 -15"/>
<path style="--d:19s;" pathLength="3333" clip-path="url(#z40680c19)" d="M 514 78 L 559 28 L 573 2"/>
<path style="--d:20s;" pathLength="3333" clip-path="url(#z40680c20)" d="M 697 101 L 808 22 L 838 -34"/>
</svg>