<svg id="z40839" class="acjk" viewBox="0 0 1024 1024" xmlns="http://www.w3.org/2000/svg">
<style>
<![CDATA[
@keyframes zk {
	to {
		stroke-dashoffset:0;
	}
}
svg.acjk path[clip-path] {
	--t:0.8s;
	animation:zk var(--t) linear forwards var(--d);
	stroke-dasharray:3337;
	stroke-dashoffset:3339;
	stroke-width:128;
	stroke-linecap:round;
	stroke-linejoin:round;
	fill:none;
	stroke:#000;
}
svg.acjk path[id] {fill:#ccc;}
]]>
</style>
  <path id="z40839d1" d="M 330 528 Q 334 579 337 626 L 338 655 Q 339 665 340 674 Q 341 693 345 705 Q 348 715 350 723 Q 351 733 335 745 Q 305 760 284 763 Q 271 764 264 758 Q 258 751 265 739 Q 290 706 294 518 C 295 488 328 498 330 528 Z"/>
  <path id="z40839d2" d="M 337 626 Q 376 623 447 646 Q 447 647 448 647 Q 455 653 451 659 Q 445 668 423 672 Q 405 672 338 655 C 309 648 307 628 337 626 Z"/>
  <path id="z40839d3" d="M 226 499 Q 214 628 212 631 Q 209 635 206 637 Q 185 650 161 657 Q 148 661 141 655 Q 134 648 141 636 Q 154 618 163 597 Q 170 576 190 490 C 197 461 229 469 226 499 Z"/>
  <path id="z40839d4" d="M 190 490 Q 85 468 66 463 Q 54 462 52 454 Q 51 444 64 435 Q 100 411 137 427 Q 276 482 432 513 Q 445 516 446 523 Q 447 535 430 542 Q 405 551 330 528 L 294 518 Q 254 508 226 499 L 190 490 Z"/>
  <path id="z40839d5" d="M 287 307 Q 293 322 298 335 Q 311 377 326 411 Q 332 423 318 432 Q 276 451 258 444 Q 249 440 254 429 Q 279 350 215 234 Q 208 231 187 186 Q 183 173 194 179 Q 230 194 277 283 L 287 307 Z"/>
  <path id="z40839d6" d="M 277 283 Q 343 204 349 201 Q 355 200 361 206 Q 368 213 363 243 Q 360 270 312 295 Q 299 302 287 307 C 259 319 258 306 277 283 Z"/>
  <path id="z40839d7" d="M 388 167 Q 261 142 169 104 Q 153 100 157 119 Q 164 195 173 275 Q 177 299 167 314 Q 128 353 106 349 Q 94 345 103 325 Q 134 252 122 180 Q 113 111 85 81 Q 67 62 75 49 Q 88 34 105 24 Q 120 18 131 28 Q 168 71 345 120 Q 375 126 387 125 C 417 127 417 173 388 167 Z"/>
  <path id="z40839d8" d="M 387 125 Q 393 106 401 94 Q 408 81 419 91 Q 437 113 436 185 Q 439 320 450 346 Q 456 359 446 370 Q 430 383 401 397 Q 389 401 380 396 Q 373 392 376 381 Q 406 345 391 181 Q 390 174 388 167 L 387 125 Z"/>
  <path id="z40839d9" d="M 631 219 Q 632 313 632 401 L 632 433 Q 632 529 645 593 Q 648 603 629 615 Q 596 631 574 634 Q 559 635 552 628 Q 545 621 554 608 Q 579 574 580 550 Q 595 390 593 201 C 593 171 631 189 631 219 Z"/>
  <path id="z40839d10" d="M 632 401 Q 668 414 697 422 Q 716 429 706 438 Q 696 448 674 447 Q 656 447 632 433 C 606 418 604 391 632 401 Z"/>
  <path id="z40839d11" d="M 548 181 Q 539 314 545 364 Q 546 383 535 393 Q 516 408 493 415 Q 481 419 474 414 Q 468 410 473 396 Q 491 365 498 332 Q 504 299 515 166 C 517 136 550 151 548 181 Z"/>
  <path id="z40839d12" d="M 515 166 Q 470 151 463 150 Q 453 149 453 140 Q 453 130 461 125 Q 480 116 505 105 Q 514 104 521 112 Q 537 130 663 211 Q 679 221 691 233 Q 700 240 699 247 Q 695 250 686 247 Q 658 234 631 219 L 593 201 Q 571 192 548 181 L 515 166 Z"/>
  <path id="z40839d13" d="M 756 372 Q 807 393 836 409 Q 905 446 924 451 Q 945 458 937 476 Q 927 494 904 510 Q 883 526 871 525 Q 859 525 861 512 Q 862 485 807 436 Q 783 414 756 389 C 734 369 728 361 756 372 Z"/>
  <path id="z40839d14" d="M 756 389 Q 756 575 784 669 Q 791 702 791 707 Q 787 714 781 719 Q 756 741 720 750 Q 704 754 695 745 Q 688 738 694 728 Q 713 710 717 656 Q 699 127 744 90 Q 781 42 922 65 Q 925 66 930 67 Q 958 76 972 86 Q 988 99 973 130 Q 957 182 953 250 Q 953 260 946 268 Q 937 274 933 252 Q 891 119 877 112 Q 874 112 872 110 Q 830 98 793 109 Q 777 113 769 133 Q 754 179 756 372 L 756 389 Z"/>
<defs>
  <clipPath id="z40839c1"><use href="#z40839d1"/></clipPath>
  <clipPath id="z40839c2"><use href="#z40839d2"/></clipPath>
  <clipPath id="z40839c3"><use href="#z40839d3"/></clipPath>
  <clipPath id="z40839c4"><use href="#z40839d4"/></clipPath>
  <clipPath id="z40839c5"><use href="#z40839d5"/></clipPath>
  <clipPath id="z40839c6"><use href="#z40839d6"/></clipPath>
  <clipPath id="z40839c7"><use href="#z40839d7"/></clipPath>
  <clipPath id="z40839c8"><use href="#z40839d8"/></clipPath>
  <clipPath id="z40839c9"><use href="#z40839d9"/></clipPath>
  <clipPath id="z40839c10"><use href="#z40839d10"/></clipPath>
  <clipPath id="z40839c11"><use href="#z40839d11"/></clipPath>
  <clipPath id="z40839c12"><use href="#z40839d12"/></clipPath>
  <clipPath id="z40839c13"><use href="#z40839d13"/></clipPath>
  <clipPath id="z40839c14"><use href="#z40839d14"/></clipPath>
</defs>
<path style="--d:1s;" pathLength="3333" clip-path="url(#z40839c1)" d="M 273 750 L 312 717 L 313 551 L 308 537 L 297 531"/>
<path style="--d:2s;" pathLength="3333" clip-path="url(#z40839c2)" d="M 343 633 L 354 642 L 440 655"/>
<path style="--d:3s;" pathLength="3333" clip-path="url(#z40839c3)" d="M 149 647 L 179 623 L 189 606 L 204 512 L 193 503"/>
<path style="--d:4s;" pathLength="3333" clip-path="url(#z40839c4)" d="M 62 451 L 112 447 L 364 519 L 436 526"/>
<path style="--d:5s;" pathLength="3333" clip-path="url(#z40839c5)" d="M 265 434 L 291 405 L 280 348 L 249 263 L 195 187"/>
<path style="--d:6s;" pathLength="3333" clip-path="url(#z40839c6)" d="M 291 298 L 297 282 L 341 243 L 353 209"/>
<path style="--d:7s;" pathLength="3333" clip-path="url(#z40839c7)" d="M 111 338 L 132 316 L 146 285 L 146 206 L 131 78 L 167 81 L 275 121 L 367 143 L 381 160"/>
<path style="--d:8s;" pathLength="3333" clip-path="url(#z40839c8)" d="M 388 386 L 420 352 L 411 97"/>
<path style="--d:9s;" pathLength="3333" clip-path="url(#z40839c9)" d="M 563 619 L 585 607 L 608 580 L 613 258 L 612 231 L 597 210"/>
<path style="--d:10s;" pathLength="3333" clip-path="url(#z40839c10)" d="M 638 406 L 642 417 L 659 428 L 699 431"/>
<path style="--d:11s;" pathLength="3333" clip-path="url(#z40839c11)" d="M 481 406 L 517 369 L 531 193 L 516 178"/>
<path style="--d:12s;" pathLength="3333" clip-path="url(#z40839c12)" d="M 465 138 L 505 134 L 625 199 L 693 245"/>
<path style="--d:13s;" pathLength="3333" clip-path="url(#z40839c13)" d="M 870 516 L 889 476 L 836 432 L 765 385 L 764 376"/>
<path style="--d:14s;" pathLength="3333" clip-path="url(#z40839c14)" d="M 704 736 L 731 719 L 751 686 L 734 506 L 733 329 L 740 177 L 758 107 L 783 89 L 832 81 L 886 86 L 925 108 L 931 115 L 943 260"/>
</svg>