<svg id="z40579" class="acjk" viewBox="0 0 1024 1024" xmlns="http://www.w3.org/2000/svg">
<style>
<![CDATA[
@keyframes zk {
	to {
		stroke-dashoffset:0;
	}
}
svg.acjk path[clip-path] {
	--t:0.8s;
	animation:zk var(--t) linear forwards var(--d);
	stroke-dasharray:3337;
	stroke-dashoffset:3339;
	stroke-width:128;
	stroke-linecap:round;
	stroke-linejoin:round;
	fill:none;
	stroke:#000;
}
svg.acjk path[id] {fill:#ccc;}
]]>
</style>
  <path id="z40579d1" d="M 492 817 Q 519 798 548 774 Q 563 762 578 765 Q 588 766 593 780 Q 596 796 584 824 Q 577 843 546 853 Q 468 871 460 863 Q 456 859 458 846 Q 462 836 492 817 Z"/>
  <path id="z40579d2" d="M 603 699 Q 646 709 692 717 Q 764 733 774 742 Q 783 749 778 757 Q 772 767 746 776 Q 718 782 691 772 Q 519 714 315 693 C 285 690 302 660 332 658 Q 357 655 384 660 Q 472 676 562 693 L 603 699 Z"/>
  <path id="z40579d3" d="M 315 693 Q 273 726 251 718 Q 238 711 245 697 Q 266 667 259 588 Q 258 579 257 568 Q 245 387 193 251 Q 145 133 59 11 Q 55 4 52 -2 Q 49 -12 60 -11 Q 84 -7 166 99 Q 190 136 213 182 Q 288 335 310 539 Q 319 635 332 658 C 338 676 338 676 315 693 Z"/>
  <path id="z40579d4" d="M 571 611 Q 529 604 476 585 L 435 574 Q 366 559 366 556 Q 363 552 378 544 Q 399 535 441 545 L 477 557 Q 513 570 568 583 L 608 592 Q 675 611 696 603 Q 700 600 699 585 Q 695 546 690 527 L 685 498 Q 686 494 688 488 Q 692 475 703 477 Q 713 478 736 516 Q 746 559 775 585 Q 788 598 775 611 Q 759 624 717 642 Q 704 648 631 626 Q 628 626 616 622 L 571 611 Z"/>
  <path id="z40579d5" d="M 476 585 Q 476 598 476 609 Q 479 624 463 629 Q 436 647 416 641 Q 403 635 413 620 Q 428 598 435 574 L 441 545 Q 447 517 449 489 Q 449 485 451 479 C 459 450 479 456 479 486 Q 479 522 477 557 L 476 585 Z"/>
  <path id="z40579d6" d="M 616 622 Q 620 641 631 662 Q 641 675 631 682 Q 622 692 603 699 C 575 710 556 718 562 693 Q 571 659 572 627 Q 571 621 571 611 L 568 583 Q 565 555 559 522 Q 558 515 556 506 C 550 477 580 486 586 515 Q 587 522 590 528 Q 599 558 608 592 L 616 622 Z"/>
  <path id="z40579d7" d="M 451 479 Q 402 469 359 461 Q 343 458 354 444 Q 360 437 369 434 Q 378 433 389 435 Q 482 465 685 498 C 715 503 717 514 690 527 Q 657 548 589 516 Q 588 516 586 515 L 556 506 Q 514 496 479 486 L 451 479 Z"/>
  <path id="z40579d8" d="M 395 321 Q 398 321 404 321 Q 465 333 509 339 Q 528 343 521 354 Q 511 366 491 368 Q 461 371 397 344 C 369 332 365 321 395 321 Z"/>
  <path id="z40579d9" d="M 397 344 Q 398 354 402 363 Q 406 376 399 383 Q 383 399 365 407 Q 352 414 344 410 Q 335 406 344 390 Q 368 348 345 249 Q 339 224 319 195 Q 309 180 315 171 Q 321 161 341 151 Q 354 144 364 157 Q 383 193 479 252 Q 501 265 511 280 Q 515 289 509 289 Q 506 289 406 234 Q 393 225 386 229 Q 380 230 382 243 Q 391 294 395 321 L 397 344 Z"/>
  <path id="z40579d10" d="M 614 357 Q 624 361 647 367 Q 678 374 702 386 Q 733 399 760 405 Q 772 406 774 412 Q 777 419 768 427 Q 726 457 702 452 Q 698 449 697 442 Q 697 423 615 375 C 589 360 586 347 614 357 Z"/>
  <path id="z40579d11" d="M 615 375 Q 616 397 619 423 Q 620 438 611 445 Q 599 455 580 461 Q 570 462 563 459 Q 559 455 563 441 Q 576 410 576 380 Q 579 277 611 250 Q 650 220 738 221 Q 807 224 860 269 Q 876 282 864 304 Q 854 319 836 369 Q 835 382 829 386 Q 823 389 820 373 Q 798 318 785 301 Q 778 291 754 282 Q 699 267 650 283 Q 631 292 624 304 Q 615 322 614 357 L 615 375 Z"/>
  <path id="z40579d12" d="M 337 115 Q 312 76 280 42 Q 258 17 268 -15 Q 272 -31 292 -24 Q 338 0 351 62 Q 361 90 358 112 Q 355 119 350 122 Q 343 122 337 115 Z"/>
  <path id="z40579d13" d="M 443 102 Q 470 54 493 37 Q 506 31 516 41 Q 523 51 524 66 Q 523 88 510 102 Q 486 126 449 138 Q 442 141 438 139 Q 434 139 433 128 Q 432 118 443 102 Z"/>
  <path id="z40579d14" d="M 603 114 Q 630 66 653 49 Q 666 43 676 53 Q 683 63 684 78 Q 683 100 670 114 Q 646 138 609 150 Q 602 153 598 151 Q 594 151 593 140 Q 592 130 603 114 Z"/>
  <path id="z40579d15" d="M 772 113 Q 814 71 858 21 Q 868 8 884 6 Q 894 5 901 17 Q 907 30 902 60 Q 895 108 773 159 Q 758 165 752 163 Q 748 160 747 147 Q 748 137 772 113 Z"/>
<defs>
  <clipPath id="z40579c1"><use href="#z40579d1"/></clipPath>
  <clipPath id="z40579c2"><use href="#z40579d2"/></clipPath>
  <clipPath id="z40579c3"><use href="#z40579d3"/></clipPath>
  <clipPath id="z40579c4"><use href="#z40579d4"/></clipPath>
  <clipPath id="z40579c5"><use href="#z40579d5"/></clipPath>
  <clipPath id="z40579c6"><use href="#z40579d6"/></clipPath>
  <clipPath id="z40579c7"><use href="#z40579d7"/></clipPath>
  <clipPath id="z40579c8"><use href="#z40579d8"/></clipPath>
  <clipPath id="z40579c9"><use href="#z40579d9"/></clipPath>
  <clipPath id="z40579c10"><use href="#z40579d10"/></clipPath>
  <clipPath id="z40579c11"><use href="#z40579d11"/></clipPath>
  <clipPath id="z40579c12"><use href="#z40579d12"/></clipPath>
  <clipPath id="z40579c13"><use href="#z40579d13"/></clipPath>
  <clipPath id="z40579c14"><use href="#z40579d14"/></clipPath>
  <clipPath id="z40579c15"><use href="#z40579d15"/></clipPath>
</defs>
<path style="--d:1s;" pathLength="3333" clip-path="url(#z40579c1)" d="M 465 857 L 543 820 L 574 784"/>
<path style="--d:2s;" pathLength="3333" clip-path="url(#z40579c2)" d="M 324 690 L 345 677 L 363 677 L 566 714 L 725 752 L 766 752"/>
<path style="--d:3s;" pathLength="3333" clip-path="url(#z40579c3)" d="M 256 705 L 279 687 L 294 656 L 272 453 L 241 318 L 196 198 L 143 101 L 60 -3"/>
<path style="--d:4s;" pathLength="3333" clip-path="url(#z40579c4)" d="M 369 554 L 412 553 L 530 589 L 636 611 L 646 618 L 710 621 L 734 592 L 701 489"/>
<path style="--d:5s;" pathLength="3333" clip-path="url(#z40579c5)" d="M 421 630 L 450 606 L 464 507 L 457 485"/>
<path style="--d:6s;" pathLength="3333" clip-path="url(#z40579c6)" d="M 570 688 L 599 668 L 581 551 L 563 509"/>
<path style="--d:7s;" pathLength="3333" clip-path="url(#z40579c7)" d="M 358 452 L 390 451 L 681 521"/>
<path style="--d:8s;" pathLength="3333" clip-path="url(#z40579c8)" d="M 400 326 L 456 348 L 494 353 L 512 349"/>
<path style="--d:9s;" pathLength="3333" clip-path="url(#z40579c9)" d="M 350 401 L 378 370 L 362 237 L 367 206 L 400 214 L 422 233 L 430 233 L 509 284"/>
<path style="--d:10s;" pathLength="3333" clip-path="url(#z40579c10)" d="M 763 416 L 720 423 L 665 387 L 637 375 L 629 377 L 617 361"/>
<path style="--d:11s;" pathLength="3333" clip-path="url(#z40579c11)" d="M 568 454 L 593 429 L 594 370 L 604 301 L 620 274 L 656 255 L 729 248 L 768 255 L 802 270 L 826 293 L 826 379"/>
<path style="--d:12s;" pathLength="3333" clip-path="url(#z40579c12)" d="M 347 112 L 327 59 L 283 -12"/>
<path style="--d:13s;" pathLength="3333" clip-path="url(#z40579c13)" d="M 443 130 L 491 81 L 502 53"/>
<path style="--d:14s;" pathLength="3333" clip-path="url(#z40579c14)" d="M 603 142 L 651 93 L 662 65"/>
<path style="--d:15s;" pathLength="3333" clip-path="url(#z40579c15)" d="M 756 157 L 861 69 L 885 24"/>
</svg>