<svg id="z40239" class="acjk" viewBox="0 0 1024 1024" xmlns="http://www.w3.org/2000/svg">
<style>
<![CDATA[
@keyframes zk {
	to {
		stroke-dashoffset:0;
	}
}
svg.acjk path[clip-path] {
	--t:0.8s;
	animation:zk var(--t) linear forwards var(--d);
	stroke-dasharray:3337;
	stroke-dashoffset:3339;
	stroke-width:128;
	stroke-linecap:round;
	stroke-linejoin:round;
	fill:none;
	stroke:#000;
}
svg.acjk path[id] {fill:#ccc;}
]]>
</style>
  <path id="z40239d1" d="M 268 603 Q 445 646 447 647 Q 456 656 451 664 Q 444 676 414 683 Q 383 689 352 676 Q 312 663 269 651 Q 221 641 165 634 Q 128 627 155 610 Q 185 594 236 596 L 268 603 Z"/>
  <path id="z40239d2" d="M 237 442 Q 255 472 278 520 Q 285 536 299 555 Q 311 567 303 575 Q 294 588 268 603 C 242 618 227 625 236 596 Q 248 566 219 474 Q 210 450 207 435 C 200 406 222 416 237 442 Z"/>
  <path id="z40239d3" d="M 126 413 Q 105 434 82 439 Q 78 442 73 436 Q 69 430 72 419 Q 90 383 91 353 Q 92 286 81 209 Q 77 188 84 170 Q 94 152 108 141 Q 121 132 123 142 Q 129 145 132 164 Q 136 180 134 239 Q 133 341 136 378 Q 137 382 137 384 C 139 401 139 401 126 413 Z"/>
  <path id="z40239d4" d="M 312 426 Q 402 444 411 436 Q 418 432 418 399 Q 421 263 403 186 Q 397 158 372 161 Q 344 165 318 171 Q 306 175 306 169 Q 306 163 315 154 Q 373 105 388 80 Q 397 68 405 70 Q 415 71 426 92 Q 459 146 470 381 Q 471 412 481 429 Q 494 447 483 451 Q 470 464 439 476 Q 424 485 359 467 Q 293 458 237 442 L 207 435 Q 206 435 126 413 C 97 405 109 373 137 384 Q 143 391 185 398 L 220 407 Q 248 414 275 419 L 312 426 Z"/>
  <path id="z40239d5" d="M 185 398 L 186 396 Q 202 341 202 253 Q 201 228 212 208 Q 224 187 230 199 Q 240 217 240 255 Q 239 360 241 380 Q 242 392 239 397 Q 233 401 220 407 C 193 420 175 426 185 398 Z"/>
  <path id="z40239d6" d="M 275 419 Q 284 410 289 326 Q 283 217 300 186 Q 304 182 310 183 Q 322 190 336 341 Q 336 374 342 392 Q 345 405 335 412 Q 322 422 312 426 C 285 439 262 446 275 419 Z"/>
  <path id="z40239d7" d="M 593 651 Q 629 684 698 752 Q 713 770 734 783 Q 752 796 739 810 Q 724 823 698 833 Q 673 842 662 838 Q 650 834 657 822 Q 664 800 583 663 Q 582 662 580 658 Q 579 658 579 657 C 562 632 571 631 593 651 Z"/>
  <path id="z40239d8" d="M 581 383 Q 581 413 582 442 L 582 471 Q 582 478 583 484 Q 582 509 583 530 L 585 550 Q 589 589 599 616 C 614 663 603 640 579 657 Q 569 666 554 671 Q 535 678 527 669 Q 521 663 529 652 Q 541 625 542 506 Q 536 335 524 289 Q 520 268 535 253 Q 556 238 577 253 C 581 255 581 290 581 320 Q 581 339 581 360 L 581 383 Z"/>
  <path id="z40239d9" d="M 737 471 Q 738 470 739 466 Q 743 453 755 453 Q 768 454 775 467 Q 788 482 810 557 Q 825 603 857 631 Q 875 644 860 659 Q 844 674 798 698 Q 783 707 728 689 Q 677 677 632 663 Q 610 656 593 651 C 564 642 570 607 599 616 Q 755 667 773 660 Q 782 654 776 625 Q 752 519 742 497 C 734 476 734 476 737 471 Z"/>
  <path id="z40239d10" d="M 583 530 Q 590 529 601 530 Q 664 546 710 555 Q 729 559 721 570 Q 711 580 690 583 Q 665 584 585 550 C 557 538 553 533 583 530 Z"/>
  <path id="z40239d11" d="M 582 442 Q 589 441 601 444 Q 644 457 737 471 C 767 475 768 482 742 497 Q 718 515 636 485 Q 606 478 582 471 C 553 463 552 443 582 442 Z"/>
  <path id="z40239d12" d="M 581 360 Q 587 360 760 393 Q 782 397 773 409 Q 763 422 739 426 Q 712 427 581 383 C 553 373 551 356 581 360 Z"/>
  <path id="z40239d13" d="M 577 253 Q 634 295 832 316 Q 860 320 874 308 Q 886 296 852 137 Q 842 89 819 59 Q 809 47 784 51 Q 753 58 726 66 Q 710 70 711 63 Q 711 57 719 50 Q 771 -1 789 -35 Q 798 -56 815 -45 Q 878 -15 891 49 Q 912 134 929 229 Q 936 266 954 297 Q 967 313 955 325 Q 939 344 901 365 Q 880 377 853 365 Q 813 346 773 340 Q 718 333 607 306 Q 585 299 581 320 C 559 340 551 238 577 253 Z"/>
  <path id="z40239d14" d="M 514 196 Q 495 150 468 109 Q 450 82 466 51 Q 473 35 491 47 Q 531 77 537 145 Q 541 173 535 196 Q 531 203 525 204 Q 518 203 514 196 Z"/>
  <path id="z40239d15" d="M 581 188 Q 599 116 616 105 Q 626 99 637 110 Q 643 119 644 138 Q 643 154 627 170 Q 605 198 594 206 Q 588 210 583 203 Q 579 197 581 188 Z"/>
  <path id="z40239d16" d="M 660 208 Q 690 136 708 130 Q 718 126 728 139 Q 732 149 730 167 Q 726 183 709 197 Q 684 222 671 228 Q 664 232 660 223 Q 657 216 660 208 Z"/>
  <path id="z40239d17" d="M 746 217 Q 795 151 801 150 Q 808 149 814 157 Q 818 166 818 187 Q 818 203 797 221 Q 743 257 736 254 Q 732 253 731 244 Q 732 235 746 217 Z"/>
<defs>
  <clipPath id="z40239c1"><use href="#z40239d1"/></clipPath>
  <clipPath id="z40239c2"><use href="#z40239d2"/></clipPath>
  <clipPath id="z40239c3"><use href="#z40239d3"/></clipPath>
  <clipPath id="z40239c4"><use href="#z40239d4"/></clipPath>
  <clipPath id="z40239c5"><use href="#z40239d5"/></clipPath>
  <clipPath id="z40239c6"><use href="#z40239d6"/></clipPath>
  <clipPath id="z40239c7"><use href="#z40239d7"/></clipPath>
  <clipPath id="z40239c8"><use href="#z40239d8"/></clipPath>
  <clipPath id="z40239c9"><use href="#z40239d9"/></clipPath>
  <clipPath id="z40239c10"><use href="#z40239d10"/></clipPath>
  <clipPath id="z40239c11"><use href="#z40239d11"/></clipPath>
  <clipPath id="z40239c12"><use href="#z40239d12"/></clipPath>
  <clipPath id="z40239c13"><use href="#z40239d13"/></clipPath>
  <clipPath id="z40239c14"><use href="#z40239d14"/></clipPath>
  <clipPath id="z40239c15"><use href="#z40239d15"/></clipPath>
  <clipPath id="z40239c16"><use href="#z40239d16"/></clipPath>
  <clipPath id="z40239c17"><use href="#z40239d17"/></clipPath>
</defs>
<path style="--d:1s;" pathLength="3333" clip-path="url(#z40239c1)" d="M 157 623 L 228 619 L 277 627 L 380 658 L 430 661 L 444 655"/>
<path style="--d:2s;" pathLength="3333" clip-path="url(#z40239c2)" d="M 242 593 L 265 577 L 270 566 L 227 452 L 214 439"/>
<path style="--d:3s;" pathLength="3333" clip-path="url(#z40239c3)" d="M 80 430 L 99 410 L 112 383 L 107 183 L 115 154"/>
<path style="--d:4s;" pathLength="3333" clip-path="url(#z40239c4)" d="M 136 392 L 146 405 L 164 411 L 373 455 L 419 457 L 448 436 L 439 262 L 420 156 L 400 126 L 329 154 L 312 167"/>
<path style="--d:5s;" pathLength="3333" clip-path="url(#z40239c5)" d="M 195 392 L 216 379 L 222 206"/>
<path style="--d:6s;" pathLength="3333" clip-path="url(#z40239c6)" d="M 281 419 L 312 393 L 306 189"/>
<path style="--d:7s;" pathLength="3333" clip-path="url(#z40239c7)" d="M 664 829 L 691 796 L 588 657"/>
<path style="--d:8s;" pathLength="3333" clip-path="url(#z40239c8)" d="M 537 662 L 559 641 L 568 618 L 551 278 L 565 260"/>
<path style="--d:9s;" pathLength="3333" clip-path="url(#z40239c9)" d="M 601 646 L 616 640 L 631 643 L 743 677 L 775 681 L 787 678 L 808 659 L 815 639 L 755 469"/>
<path style="--d:10s;" pathLength="3333" clip-path="url(#z40239c10)" d="M 587 535 L 598 544 L 679 566 L 713 564"/>
<path style="--d:11s;" pathLength="3333" clip-path="url(#z40239c11)" d="M 586 449 L 618 466 L 734 492"/>
<path style="--d:12s;" pathLength="3333" clip-path="url(#z40239c12)" d="M 581 366 L 595 377 L 704 402 L 732 407 L 764 403"/>
<path style="--d:13s;" pathLength="3333" clip-path="url(#z40239c13)" d="M 578 260 L 599 287 L 639 299 L 856 341 L 893 334 L 911 315 L 913 292 L 878 120 L 845 30 L 815 8 L 720 59"/>
<path style="--d:14s;" pathLength="3333" clip-path="url(#z40239c14)" d="M 525 193 L 508 123 L 480 56"/>
<path style="--d:15s;" pathLength="3333" clip-path="url(#z40239c15)" d="M 591 196 L 621 139 L 624 119"/>
<path style="--d:16s;" pathLength="3333" clip-path="url(#z40239c16)" d="M 669 217 L 704 169 L 713 145"/>
<path style="--d:17s;" pathLength="3333" clip-path="url(#z40239c17)" d="M 738 247 L 794 192 L 805 159"/>
</svg>