<svg id="z40831" class="acjk" viewBox="0 0 1024 1024" xmlns="http://www.w3.org/2000/svg">
<style>
<![CDATA[
@keyframes zk {
	to {
		stroke-dashoffset:0;
	}
}
svg.acjk path[clip-path] {
	--t:0.8s;
	animation:zk var(--t) linear forwards var(--d);
	stroke-dasharray:3337;
	stroke-dashoffset:3339;
	stroke-width:128;
	stroke-linecap:round;
	stroke-linejoin:round;
	fill:none;
	stroke:#000;
}
svg.acjk path[id] {fill:#ccc;}
]]>
</style>
  <path id="z40831d1" d="M 529 505 Q 536 575 542 639 L 545 669 Q 548 703 555 738 Q 565 771 549 786 Q 546 787 546 788 Q 510 807 486 812 Q 470 815 462 806 Q 455 799 462 784 Q 480 759 481 742 Q 490 630 487 499 C 486 469 526 475 529 505 Z"/>
  <path id="z40831d2" d="M 542 639 Q 576 630 647 645 Q 681 652 718 660 Q 740 666 744 669 Q 751 676 747 685 Q 740 695 712 702 Q 693 705 612 682 Q 585 676 545 669 C 515 664 513 645 542 639 Z"/>
  <path id="z40831d3" d="M 369 484 Q 365 617 363 621 Q 360 625 356 628 Q 332 644 305 653 Q 292 657 282 652 Q 275 645 282 630 Q 303 599 327 478 C 333 449 370 454 369 484 Z"/>
  <path id="z40831d4" d="M 327 478 Q 236 469 141 456 Q 119 453 136 435 Q 151 420 170 414 Q 192 408 210 414 Q 454 480 861 480 Q 882 480 887 489 Q 893 502 875 517 Q 821 557 779 549 Q 683 530 529 505 L 487 499 Q 429 492 369 484 L 327 478 Z"/>
  <path id="z40831d5" d="M 519 312 Q 541 349 564 380 Q 574 393 560 409 Q 515 443 488 441 Q 476 438 478 423 Q 491 318 377 196 Q 367 192 329 145 Q 320 129 336 134 Q 355 137 382 156 Q 461 217 508 294 L 519 312 Z"/>
  <path id="z40831d6" d="M 508 294 Q 509 293 512 290 Q 573 241 648 169 Q 663 153 675 150 Q 682 149 689 158 Q 699 170 686 206 Q 670 257 519 312 C 491 322 486 315 508 294 Z"/>
  <path id="z40831d7" d="M 233 4 Q 251 -12 261 -14 Q 270 -14 278 -7 Q 303 27 524 63 Q 575 73 741 88 C 771 91 778 123 748 123 Q 616 123 375 90 Q 305 81 304 80 Q 297 87 314 266 Q 317 308 262 327 Q 256 328 252 329 Q 239 330 233 326 Q 229 320 242 299 Q 288 209 233 95 Q 199 50 199 49 Q 199 46 200 43 Q 204 28 233 4 Z"/>
  <path id="z40831d8" d="M 741 88 Q 726 46 756 -11 Q 766 -29 780 -15 Q 807 15 808 111 Q 817 297 830 322 Q 830 325 832 326 Q 841 344 828 359 Q 806 375 767 396 Q 752 403 739 396 Q 730 392 734 376 Q 768 319 748 123 L 741 88 Z"/>
<defs>
  <clipPath id="z40831c1"><use href="#z40831d1"/></clipPath>
  <clipPath id="z40831c2"><use href="#z40831d2"/></clipPath>
  <clipPath id="z40831c3"><use href="#z40831d3"/></clipPath>
  <clipPath id="z40831c4"><use href="#z40831d4"/></clipPath>
  <clipPath id="z40831c5"><use href="#z40831d5"/></clipPath>
  <clipPath id="z40831c6"><use href="#z40831d6"/></clipPath>
  <clipPath id="z40831c7"><use href="#z40831d7"/></clipPath>
  <clipPath id="z40831c8"><use href="#z40831d8"/></clipPath>
</defs>
<path style="--d:1s;" pathLength="3333" clip-path="url(#z40831c1)" d="M 475 796 L 519 754 L 510 530 L 493 507"/>
<path style="--d:2s;" pathLength="3333" clip-path="url(#z40831c2)" d="M 549 646 L 571 655 L 702 680 L 735 679"/>
<path style="--d:3s;" pathLength="3333" clip-path="url(#z40831c3)" d="M 290 644 L 331 604 L 345 502 L 332 491"/>
<path style="--d:4s;" pathLength="3333" clip-path="url(#z40831c4)" d="M 139 445 L 191 436 L 453 478 L 789 515 L 875 496"/>
<path style="--d:5s;" pathLength="3333" clip-path="url(#z40831c5)" d="M 491 427 L 519 387 L 483 301 L 402 195 L 339 144"/>
<path style="--d:6s;" pathLength="3333" clip-path="url(#z40831c6)" d="M 514 296 L 528 296 L 546 286 L 631 226 L 658 199 L 676 164"/>
<path style="--d:7s;" pathLength="3333" clip-path="url(#z40831c7)" d="M 239 321 L 273 295 L 287 254 L 285 178 L 263 48 L 294 45 L 517 86 L 725 104 L 742 118"/>
<path style="--d:8s;" pathLength="3333" clip-path="url(#z40831c8)" d="M 747 383 L 763 372 L 791 335 L 769 -8"/>
</svg>