<svg id="z40503" class="acjk" viewBox="0 0 1024 1024" xmlns="http://www.w3.org/2000/svg">
<style>
<![CDATA[
@keyframes zk {
	to {
		stroke-dashoffset:0;
	}
}
svg.acjk path[clip-path] {
	--t:0.8s;
	animation:zk var(--t) linear forwards var(--d);
	stroke-dasharray:3337;
	stroke-dashoffset:3339;
	stroke-width:128;
	stroke-linecap:round;
	stroke-linejoin:round;
	fill:none;
	stroke:#000;
}
svg.acjk path[id] {fill:#ccc;}
]]>
</style>
  <path id="z40503d1" d="M 390 690 Q 403 694 418 696 Q 446 703 451 708 Q 458 715 455 722 Q 448 732 423 738 Q 407 741 392 737 L 348 723 Q 263 702 219 696 Q 188 690 210 676 Q 243 658 315 675 Q 330 679 348 681 L 390 690 Z"/>
  <path id="z40503d2" d="M 389 643 Q 389 667 390 690 L 392 737 Q 398 771 401 775 Q 411 787 407 796 Q 401 806 382 818 Q 348 834 337 829 Q 322 825 333 810 Q 348 792 348 723 L 348 681 Q 348 657 347 631 L 346 598 Q 345 564 344 557 Q 340 536 327 540 Q 314 544 280 552 Q 267 558 264 553 Q 263 547 275 536 Q 311 508 336 474 Q 343 458 351 454 Q 360 451 363 454 Q 387 485 389 605 Q 389 611 389 617 L 389 643 Z"/>
  <path id="z40503d3" d="M 389 617 Q 408 626 422 637 Q 432 643 433 651 Q 429 655 418 653 Q 402 649 389 643 L 347 631 Q 184 586 161 586 Q 151 585 149 577 Q 148 565 155 559 Q 174 546 201 530 Q 208 527 219 534 Q 252 558 346 598 L 389 617 Z"/>
  <path id="z40503d4" d="M 459 500 Q 481 500 529 560 L 552 597 Q 570 633 589 694 L 595 722 Q 595 723 596 724 Q 600 740 603 754 Q 604 761 608 769 Q 615 781 611 792 Q 598 807 574 821 Q 559 831 548 827 Q 538 823 543 811 Q 558 792 542 709 L 537 680 Q 534 665 516 612 L 502 582 Q 493 567 485 552 Q 475 534 463 517 Q 459 513 457 507 Q 456 506 456 503 C 454 499 454 499 459 500 Z"/>
  <path id="z40503d5" d="M 589 694 Q 632 713 649 706 Q 661 699 654 678 Q 629 551 669 500 Q 670 497 675 493 Q 694 471 763 439 Q 800 420 825 422 Q 849 423 851 435 Q 858 445 848 483 Q 841 508 832 580 Q 831 593 821 598 Q 817 602 813 590 Q 798 521 788 504 Q 781 491 756 497 Q 731 503 706 526 Q 684 547 680 573 Q 670 625 711 674 Q 718 684 730 693 Q 754 712 704 746 Q 679 764 663 753 Q 647 741 600 724 Q 596 723 595 722 L 542 709 Q 467 699 465 694 Q 461 690 468 683 Q 483 668 537 680 L 589 694 Z"/>
  <path id="z40503d6" d="M 529 560 Q 590 509 594 507 Q 600 507 604 514 Q 611 524 601 553 Q 595 577 552 597 L 516 612 Q 485 627 465 632 Q 459 635 458 626 Q 458 617 466 610 Q 482 598 502 582 L 529 560 Z"/>
  <path id="z40503d7" d="M 384 418 Q 435 457 461 472 Q 474 476 471 484 Q 467 491 459 500 L 456 503 Q 444 521 418 523 Q 406 522 408 507 Q 411 492 367 423 C 351 398 360 400 384 418 Z"/>
  <path id="z40503d8" d="M 581 241 Q 617 269 639 375 Q 645 403 657 417 Q 667 427 662 435 Q 655 444 615 463 Q 599 470 584 460 Q 565 450 494 436 Q 436 423 384 418 C 354 415 331 379 387 388 Q 391 388 397 389 Q 497 414 568 421 Q 584 422 587 417 Q 591 411 591 394 Q 591 345 581 323 Q 568 298 544 302 Q 529 305 516 309 Q 497 316 510 296 Q 538 265 551 240 Q 551 239 552 238 C 561 222 561 222 581 241 Z"/>
  <path id="z40503d9" d="M 418 351 Q 454 308 470 306 Q 480 305 484 318 Q 485 328 479 343 Q 464 364 421 371 Q 414 372 413 364 Q 412 358 418 351 Z"/>
  <path id="z40503d10" d="M 372 167 Q 402 186 459 196 Q 580 221 708 224 Q 736 227 748 215 Q 758 205 747 166 Q 740 130 731 92 Q 724 64 709 45 Q 697 30 668 35 Q 640 39 613 43 Q 598 46 599 39 Q 599 33 608 26 Q 660 -19 680 -51 Q 689 -70 705 -59 Q 754 -29 769 16 Q 785 73 798 137 Q 807 171 825 201 Q 837 216 827 228 Q 811 247 776 269 Q 757 281 730 270 Q 675 249 624 246 Q 605 245 581 241 L 552 238 Q 491 232 404 217 Q 382 210 377 230 Q 377 356 387 388 C 391 413 391 413 367 423 Q 360 430 348 434 Q 332 438 326 431 Q 320 427 327 417 Q 348 372 333 222 Q 330 213 329 204 Q 323 185 337 171 Q 355 155 372 167 Z"/>
  <path id="z40503d11" d="M 421 89 Q 451 90 480 94 Q 531 101 638 96 Q 657 95 662 102 Q 668 112 658 122 Q 633 144 595 159 Q 583 163 562 156 Q 321 108 183 104 Q 171 104 171 94 Q 170 84 186 73 Q 201 63 227 54 Q 236 51 251 58 Q 260 62 301 69 Q 355 82 421 89 Z"/>
<defs>
  <clipPath id="z40503c1"><use href="#z40503d1"/></clipPath>
  <clipPath id="z40503c2"><use href="#z40503d2"/></clipPath>
  <clipPath id="z40503c3"><use href="#z40503d3"/></clipPath>
  <clipPath id="z40503c4"><use href="#z40503d4"/></clipPath>
  <clipPath id="z40503c5"><use href="#z40503d5"/></clipPath>
  <clipPath id="z40503c6"><use href="#z40503d6"/></clipPath>
  <clipPath id="z40503c7"><use href="#z40503d7"/></clipPath>
  <clipPath id="z40503c8"><use href="#z40503d8"/></clipPath>
  <clipPath id="z40503c9"><use href="#z40503d9"/></clipPath>
  <clipPath id="z40503c10"><use href="#z40503d10"/></clipPath>
  <clipPath id="z40503c11"><use href="#z40503d11"/></clipPath>
</defs>
<path style="--d:1s;" pathLength="3333" clip-path="url(#z40503c1)" d="M 212 687 L 283 687 L 403 717 L 444 717"/>
<path style="--d:2s;" pathLength="3333" clip-path="url(#z40503c2)" d="M 338 819 L 364 802 L 373 787 L 369 594 L 362 535 L 347 511 L 268 550"/>
<path style="--d:3s;" pathLength="3333" clip-path="url(#z40503c3)" d="M 161 573 L 205 563 L 390 630 L 425 650"/>
<path style="--d:4s;" pathLength="3333" clip-path="url(#z40503c4)" d="M 551 817 L 571 799 L 580 780 L 560 676 L 519 575 L 498 542 L 460 504"/>
<path style="--d:5s;" pathLength="3333" clip-path="url(#z40503c5)" d="M 470 690 L 525 691 L 631 721 L 678 723 L 692 710 L 661 610 L 666 553 L 694 506 L 718 487 L 765 467 L 809 466 L 820 532 L 821 590"/>
<path style="--d:6s;" pathLength="3333" clip-path="url(#z40503c6)" d="M 466 623 L 561 565 L 578 549 L 597 514"/>
<path style="--d:7s;" pathLength="3333" clip-path="url(#z40503c7)" d="M 419 511 L 430 498 L 432 485 L 383 431 L 375 433"/>
<path style="--d:8s;" pathLength="3333" clip-path="url(#z40503c8)" d="M 379 415 L 403 404 L 563 437 L 588 440 L 612 434 L 620 423 L 615 370 L 602 317 L 589 292 L 567 272 L 521 299"/>
<path style="--d:9s;" pathLength="3333" clip-path="url(#z40503c9)" d="M 423 360 L 456 339 L 471 319"/>
<path style="--d:10s;" pathLength="3333" clip-path="url(#z40503c10)" d="M 335 425 L 353 407 L 361 385 L 354 231 L 362 197 L 380 195 L 534 224 L 745 248 L 766 240 L 784 221 L 789 213 L 786 197 L 751 59 L 723 7 L 702 -7 L 608 35"/>
<path style="--d:11s;" pathLength="3333" clip-path="url(#z40503c11)" d="M 183 92 L 233 80 L 576 129 L 652 109"/>
</svg>