<svg id="z40823" class="acjk" viewBox="0 0 1024 1024" xmlns="http://www.w3.org/2000/svg">
<style>
<![CDATA[
@keyframes zk {
	to {
		stroke-dashoffset:0;
	}
}
svg.acjk path[clip-path] {
	--t:0.8s;
	animation:zk var(--t) linear forwards var(--d);
	stroke-dasharray:3337;
	stroke-dashoffset:3339;
	stroke-width:128;
	stroke-linecap:round;
	stroke-linejoin:round;
	fill:none;
	stroke:#000;
}
svg.acjk path[id] {fill:#ccc;}
]]>
</style>
  <path id="z40823d1" d="M 358 597 Q 365 652 371 703 L 373 722 Q 373 731 380 756 Q 386 781 375 792 Q 374 793 373 793 Q 345 809 327 812 Q 314 815 308 809 Q 302 803 308 791 Q 321 773 321 761 Q 327 682 325 589 C 324 559 354 567 358 597 Z"/>
  <path id="z40823d2" d="M 371 703 Q 407 688 448 701 Q 473 707 499 713 Q 511 716 513 717 Q 520 724 515 731 Q 508 740 485 744 Q 461 747 412 728 Q 396 725 377 723 Q 376 723 373 722 C 344 715 343 714 371 703 Z"/>
  <path id="z40823d3" d="M 256 575 Q 250 639 253 654 Q 254 673 241 682 Q 222 695 198 702 Q 186 705 179 699 Q 173 693 179 681 Q 195 660 220 568 C 228 539 259 545 256 575 Z"/>
  <path id="z40823d4" d="M 399 573 Q 453 583 518 591 Q 533 592 533 599 Q 534 611 519 618 Q 497 628 477 624 Q 410 609 358 597 L 325 589 Q 285 582 256 575 L 220 568 Q 48 541 47 539 Q 46 539 46 537 Q 43 528 56 518 Q 93 494 125 506 Q 177 522 223 535 L 248 541 Q 303 559 372 568 L 399 573 Z"/>
  <path id="z40823d5" d="M 223 535 L 224 533 Q 230 478 174 419 Q 161 406 153 396 Q 147 386 157 389 Q 193 395 240 452 L 251 468 Q 264 487 278 503 Q 285 512 276 522 Q 264 531 248 541 C 223 557 217 560 223 535 Z"/>
  <path id="z40823d6" d="M 240 452 Q 265 419 285 418 Q 292 417 296 429 Q 296 436 290 448 Q 281 463 251 468 C 224 473 224 473 240 452 Z"/>
  <path id="z40823d7" d="M 397 484 Q 409 509 430 541 Q 436 551 426 560 Q 413 567 399 573 C 372 585 368 587 372 568 Q 372 567 373 564 Q 385 503 319 419 Q 315 415 312 408 Q 308 398 317 402 Q 341 405 387 467 L 397 484 Z"/>
  <path id="z40823d8" d="M 387 467 Q 439 430 456 431 Q 465 432 466 446 Q 465 455 456 467 Q 440 483 397 484 C 367 485 363 484 387 467 Z"/>
  <path id="z40823d9" d="M 245 334 Q 327 356 393 367 Q 412 371 405 382 Q 395 394 375 396 Q 356 397 321 387 Q 248 365 185 347 Q 172 343 189 331 Q 199 324 220 329 Q 221 330 225 329 L 245 334 Z"/>
  <path id="z40823d10" d="M 242 249 Q 246 258 251 265 Q 264 287 275 305 Q 279 312 271 321 Q 261 328 248 334 Q 247 335 245 334 C 223 339 223 339 225 329 Q 225 328 226 325 Q 235 277 189 214 Q 177 201 172 191 Q 168 182 176 185 Q 195 188 233 236 L 242 249 Z"/>
  <path id="z40823d11" d="M 233 236 Q 258 203 273 202 Q 280 202 284 212 Q 285 219 279 230 Q 267 243 242 249 C 219 255 219 255 233 236 Z"/>
  <path id="z40823d12" d="M 363 261 Q 381 291 395 313 Q 399 320 391 329 Q 367 347 351 343 Q 344 342 346 333 Q 358 287 312 229 Q 302 216 296 207 Q 292 198 300 201 Q 321 204 354 248 L 363 261 Z"/>
  <path id="z40823d13" d="M 354 248 Q 353 248 354 247 Q 387 214 401 213 Q 408 213 411 225 Q 412 232 405 244 Q 389 260 363 261 C 349 262 349 262 354 248 Z"/>
  <path id="z40823d14" d="M 418 193 Q 271 169 166 131 Q 150 127 153 147 Q 157 207 164 269 Q 167 291 157 303 Q 144 319 121 331 Q 111 335 101 334 Q 91 330 99 312 Q 126 254 117 194 Q 111 136 88 111 Q 72 95 79 82 Q 91 69 106 59 Q 119 53 128 61 Q 153 95 320 140 Q 392 159 408 155 C 438 155 448 198 418 193 Z"/>
  <path id="z40823d15" d="M 408 155 Q 409 136 415 120 Q 421 107 432 114 Q 454 132 465 198 Q 489 298 502 316 Q 509 326 503 339 Q 490 352 465 372 Q 455 379 445 375 Q 438 372 439 361 Q 458 328 421 200 Q 420 197 418 193 L 408 155 Z"/>
  <path id="z40823d16" d="M 840 594 Q 864 648 887 665 Q 902 681 889 697 Q 819 748 770 719 Q 715 698 627 676 C 598 669 606 642 635 648 Q 645 649 657 654 Q 796 690 804 683 Q 813 674 793 597 C 786 568 827 567 840 594 Z"/>
  <path id="z40823d17" d="M 623 534 Q 642 528 653 530 Q 714 548 850 565 Q 860 566 860 574 Q 860 581 840 594 C 823 606 822 605 793 597 Q 697 569 625 556 C 595 551 594 542 623 534 Z"/>
  <path id="z40823d18" d="M 627 676 Q 614 686 594 695 Q 578 704 566 699 Q 556 692 562 681 Q 581 654 582 587 Q 581 574 581 559 Q 578 397 535 257 Q 502 158 421 23 Q 417 17 415 12 Q 414 2 422 5 Q 456 12 529 143 Q 541 167 554 195 Q 612 345 623 534 L 625 556 Q 626 584 629 609 Q 629 627 635 648 C 639 668 639 668 627 676 Z"/>
  <path id="z40823d19" d="M 729 443 Q 855 474 860 479 Q 866 485 863 491 Q 857 500 835 505 Q 813 508 790 498 Q 759 486 724 476 Q 687 466 641 460 Q 613 456 634 443 Q 652 431 691 434 L 729 443 Z"/>
  <path id="z40823d20" d="M 725 295 Q 759 308 821 323 Q 825 324 829 326 C 857 336 846 347 816 342 Q 753 332 688 314 Q 681 311 679 313 Q 678 314 681 321 Q 738 397 750 410 Q 757 417 753 426 Q 749 433 729 443 C 703 457 682 463 691 434 L 692 433 Q 704 403 667 352 Q 651 327 617 302 Q 608 295 611 286 Q 615 274 633 260 Q 640 253 650 261 Q 662 270 699 286 L 725 295 Z"/>
  <path id="z40823d21" d="M 829 326 Q 857 289 869 286 Q 876 285 882 293 Q 886 302 885 323 Q 884 342 860 361 Q 803 397 792 394 Q 788 393 787 383 Q 788 376 804 358 Q 810 351 816 342 L 829 326 Z"/>
  <path id="z40823d22" d="M 756 191 Q 789 201 823 210 Q 848 217 852 221 Q 859 228 855 235 Q 848 244 825 248 Q 798 252 759 233 L 711 217 Q 677 210 641 203 Q 613 196 634 184 Q 662 169 712 179 L 756 191 Z"/>
  <path id="z40823d23" d="M 751 102 Q 752 151 756 191 L 759 233 Q 759 269 758 270 Q 742 286 725 295 C 699 310 688 314 699 286 Q 708 268 711 217 L 712 179 Q 712 146 714 95 C 715 65 750 72 751 102 Z"/>
  <path id="z40823d24" d="M 714 95 Q 636 85 546 70 Q 528 69 542 55 Q 554 43 568 39 Q 586 35 599 39 Q 728 76 939 76 Q 955 76 959 84 Q 963 93 950 104 Q 898 140 840 120 Q 801 114 751 102 L 714 95 Z"/>
<defs>
  <clipPath id="z40823c1"><use href="#z40823d1"/></clipPath>
  <clipPath id="z40823c2"><use href="#z40823d2"/></clipPath>
  <clipPath id="z40823c3"><use href="#z40823d3"/></clipPath>
  <clipPath id="z40823c4"><use href="#z40823d4"/></clipPath>
  <clipPath id="z40823c5"><use href="#z40823d5"/></clipPath>
  <clipPath id="z40823c6"><use href="#z40823d6"/></clipPath>
  <clipPath id="z40823c7"><use href="#z40823d7"/></clipPath>
  <clipPath id="z40823c8"><use href="#z40823d8"/></clipPath>
  <clipPath id="z40823c9"><use href="#z40823d9"/></clipPath>
  <clipPath id="z40823c10"><use href="#z40823d10"/></clipPath>
  <clipPath id="z40823c11"><use href="#z40823d11"/></clipPath>
  <clipPath id="z40823c12"><use href="#z40823d12"/></clipPath>
  <clipPath id="z40823c13"><use href="#z40823d13"/></clipPath>
  <clipPath id="z40823c14"><use href="#z40823d14"/></clipPath>
  <clipPath id="z40823c15"><use href="#z40823d15"/></clipPath>
  <clipPath id="z40823c16"><use href="#z40823d16"/></clipPath>
  <clipPath id="z40823c17"><use href="#z40823d17"/></clipPath>
  <clipPath id="z40823c18"><use href="#z40823d18"/></clipPath>
  <clipPath id="z40823c19"><use href="#z40823d19"/></clipPath>
  <clipPath id="z40823c20"><use href="#z40823d20"/></clipPath>
  <clipPath id="z40823c21"><use href="#z40823d21"/></clipPath>
  <clipPath id="z40823c22"><use href="#z40823d22"/></clipPath>
  <clipPath id="z40823c23"><use href="#z40823d23"/></clipPath>
  <clipPath id="z40823c24"><use href="#z40823d24"/></clipPath>
</defs>
<path style="--d:1s;" pathLength="3333" clip-path="url(#z40823c1)" d="M 317 801 L 351 768 L 344 622 L 339 605 L 329 597"/>
<path style="--d:2s;" pathLength="3333" clip-path="url(#z40823c2)" d="M 376 717 L 395 710 L 470 726 L 505 725"/>
<path style="--d:3s;" pathLength="3333" clip-path="url(#z40823c3)" d="M 188 691 L 223 658 L 234 591 L 224 581"/>
<path style="--d:4s;" pathLength="3333" clip-path="url(#z40823c4)" d="M 49 537 L 68 528 L 104 525 L 207 552 L 456 602 L 523 602"/>
<path style="--d:5s;" pathLength="3333" clip-path="url(#z40823c5)" d="M 234 526 L 249 509 L 240 485 L 211 439 L 161 396"/>
<path style="--d:6s;" pathLength="3333" clip-path="url(#z40823c6)" d="M 252 450 L 259 452 L 283 431"/>
<path style="--d:7s;" pathLength="3333" clip-path="url(#z40823c7)" d="M 379 568 L 400 544 L 394 521 L 357 447 L 320 409"/>
<path style="--d:8s;" pathLength="3333" clip-path="url(#z40823c8)" d="M 400 465 L 407 470 L 433 460 L 453 443"/>
<path style="--d:9s;" pathLength="3333" clip-path="url(#z40823c9)" d="M 188 339 L 250 349 L 348 377 L 396 377"/>
<path style="--d:10s;" pathLength="3333" clip-path="url(#z40823c10)" d="M 231 328 L 249 306 L 242 280 L 218 233 L 179 191"/>
<path style="--d:11s;" pathLength="3333" clip-path="url(#z40823c11)" d="M 246 236 L 272 214"/>
<path style="--d:12s;" pathLength="3333" clip-path="url(#z40823c12)" d="M 357 334 L 371 316 L 363 290 L 339 247 L 303 207"/>
<path style="--d:13s;" pathLength="3333" clip-path="url(#z40823c13)" d="M 369 248 L 390 237 L 400 224"/>
<path style="--d:14s;" pathLength="3333" clip-path="url(#z40823c14)" d="M 106 325 L 128 301 L 139 277 L 129 109 L 167 110 L 271 145 L 394 173 L 410 188"/>
<path style="--d:15s;" pathLength="3333" clip-path="url(#z40823c15)" d="M 451 364 L 474 326 L 425 122"/>
<path style="--d:16s;" pathLength="3333" clip-path="url(#z40823c16)" d="M 637 671 L 647 665 L 667 668 L 785 704 L 815 705 L 845 680 L 824 620 L 802 608"/>
<path style="--d:17s;" pathLength="3333" clip-path="url(#z40823c17)" d="M 633 550 L 638 544 L 654 546 L 789 577 L 831 579 L 851 574"/>
<path style="--d:18s;" pathLength="3333" clip-path="url(#z40823c18)" d="M 572 688 L 591 673 L 605 648 L 600 493 L 577 336 L 554 249 L 508 140 L 464 65 L 423 13"/>
<path style="--d:19s;" pathLength="3333" clip-path="url(#z40823c19)" d="M 635 453 L 654 448 L 694 452 L 816 486 L 854 487"/>
<path style="--d:20s;" pathLength="3333" clip-path="url(#z40823c20)" d="M 700 429 L 719 410 L 700 372 L 659 314 L 655 297 L 684 296 L 769 323 L 824 328"/>
<path style="--d:21s;" pathLength="3333" clip-path="url(#z40823c21)" d="M 795 386 L 851 338 L 871 298"/>
<path style="--d:22s;" pathLength="3333" clip-path="url(#z40823c22)" d="M 636 194 L 700 195 L 788 223 L 845 230"/>
<path style="--d:23s;" pathLength="3333" clip-path="url(#z40823c23)" d="M 707 284 L 723 274 L 735 243 L 732 118 L 719 103"/>
<path style="--d:24s;" pathLength="3333" clip-path="url(#z40823c24)" d="M 556 59 L 589 57 L 881 102 L 949 88"/>
</svg>