<svg id="z40772" class="acjk" viewBox="0 0 1024 1024" xmlns="http://www.w3.org/2000/svg">
<style>
<![CDATA[
@keyframes zk {
	to {
		stroke-dashoffset:0;
	}
}
svg.acjk path[clip-path] {
	--t:0.8s;
	animation:zk var(--t) linear forwards var(--d);
	stroke-dasharray:3337;
	stroke-dashoffset:3339;
	stroke-width:128;
	stroke-linecap:round;
	stroke-linejoin:round;
	fill:none;
	stroke:#000;
}
svg.acjk path[id] {fill:#ccc;}
]]>
</style>
  <path id="z40772d1" d="M 290 721 Q 314 742 339 765 Q 352 781 371 792 Q 387 802 376 816 Q 363 828 340 837 Q 318 846 309 842 Q 299 839 303 828 Q 309 807 252 712 C 237 686 267 701 290 721 Z"/>
  <path id="z40772d2" d="M 220 706 Q 211 710 196 713 Q 186 716 182 712 Q 178 706 184 693 Q 208 635 218 542 Q 219 514 235 494 Q 248 475 254 488 Q 255 495 257 504 L 258 524 Q 257 536 256 549 Q 255 558 253 565 L 250 588 Q 247 610 246 625 L 243 644 Q 240 672 240 683 C 239 699 239 699 220 706 Z"/>
  <path id="z40772d3" d="M 385 522 Q 397 504 409 498 Q 418 492 430 509 Q 443 531 471 649 Q 478 673 497 692 Q 507 702 498 713 Q 486 726 453 748 Q 444 752 379 740 Q 375 740 290 721 L 252 712 Q 234 709 220 706 C 191 700 211 674 240 683 Q 295 701 393 717 Q 414 721 421 714 Q 431 701 430 687 Q 408 576 398 560 Q 395 551 382 546 C 372 539 372 539 385 522 Z"/>
  <path id="z40772d4" d="M 246 625 Q 250 625 256 625 Q 319 638 366 645 Q 384 649 377 658 Q 368 668 349 672 Q 316 675 243 644 C 215 632 216 625 246 625 Z"/>
  <path id="z40772d5" d="M 253 565 Q 253 566 257 566 Q 321 579 370 589 Q 388 593 381 602 Q 372 612 352 616 Q 334 617 250 588 C 222 578 224 558 253 565 Z"/>
  <path id="z40772d6" d="M 257 504 Q 261 504 266 504 Q 332 516 385 522 C 415 525 409 533 382 546 Q 381 547 375 549 Q 353 552 258 524 C 229 516 227 504 257 504 Z"/>
  <path id="z40772d7" d="M 194 442 Q 184 448 154 452 Q 144 455 140 450 Q 136 444 143 430 Q 165 384 181 308 Q 184 286 197 270 Q 213 251 218 265 Q 219 269 220 275 L 221 294 Q 220 304 219 314 Q 206 387 203 414 C 200 439 200 439 194 442 Z"/>
  <path id="z40772d8" d="M 393 294 Q 405 276 417 270 Q 426 264 438 281 Q 448 297 471 381 Q 478 406 498 427 Q 508 437 499 449 Q 486 462 452 484 Q 436 491 422 486 Q 395 480 362 474 Q 317 467 260 455 Q 226 448 194 442 C 165 436 174 406 203 414 Q 237 424 288 434 L 319 439 Q 349 446 386 450 Q 411 454 420 445 Q 429 435 427 425 Q 411 329 395 319 C 385 305 385 305 393 294 Z"/>
  <path id="z40772d9" d="M 330 364 Q 355 368 381 372 Q 400 375 393 386 Q 384 398 363 401 Q 350 402 334 399 L 291 387 Q 263 378 238 370 Q 225 367 241 355 Q 244 354 292 357 L 330 364 Z"/>
  <path id="z40772d10" d="M 325 314 Q 326 342 330 364 L 334 399 Q 334 403 335 406 Q 342 424 319 439 C 294 456 280 463 288 434 Q 291 428 291 387 L 292 357 Q 292 338 292 307 C 292 277 324 284 325 314 Z"/>
  <path id="z40772d11" d="M 220 275 Q 227 274 240 274 Q 325 287 393 294 C 423 297 423 309 395 319 Q 392 320 387 322 Q 359 328 325 314 L 292 307 Q 253 301 221 294 C 192 288 190 278 220 275 Z"/>
  <path id="z40772d12" d="M 397 211 Q 439 218 492 221 Q 508 222 508 230 Q 509 242 494 251 Q 469 264 447 260 Q 183 212 82 208 Q 70 207 67 200 Q 63 190 77 179 Q 110 152 162 164 Q 189 173 218 178 L 255 187 Q 283 196 367 207 L 397 211 Z"/>
  <path id="z40772d13" d="M 218 178 Q 224 166 225 139 Q 225 52 153 -2 Q 140 -11 125 -19 Q 113 -26 123 -29 Q 162 -32 207 -1 Q 249 29 280 116 Q 283 129 291 141 Q 300 156 287 164 Q 272 179 255 187 C 228 201 208 206 218 178 Z"/>
  <path id="z40772d14" d="M 367 207 Q 382 183 368 59 Q 368 44 365 39 Q 359 -6 396 -44 L 399 -46 Q 408 -47 411 -37 Q 415 -22 417 44 Q 411 143 418 184 Q 419 193 414 198 Q 405 205 397 211 C 373 229 355 235 367 207 Z"/>
  <path id="z40772d15" d="M 686 616 Q 743 626 843 638 Q 853 637 861 648 Q 862 658 842 668 Q 815 689 728 663 Q 712 662 697 656 Q 693 656 688 653 L 653 647 Q 608 641 520 630 Q 495 626 514 611 Q 545 590 566 593 Q 596 600 631 605 L 686 616 Z"/>
  <path id="z40772d16" d="M 685 609 Q 685 613 686 616 L 688 653 Q 697 744 715 779 Q 721 788 710 800 Q 661 839 636 830 Q 623 826 629 812 Q 653 773 653 647 L 650 541 Q 646 472 640 441 Q 639 431 654 394 Q 663 379 676 387 Q 685 394 686 448 Q 682 517 684 573 L 685 609 Z"/>
  <path id="z40772d17" d="M 631 605 Q 619 530 511 411 Q 499 398 512 399 Q 575 408 644 530 Q 647 536 650 541 C 697 624 637 634 631 605 Z"/>
  <path id="z40772d18" d="M 684 573 Q 742 495 815 411 Q 828 396 852 398 Q 931 402 956 407 Q 963 408 964 413 Q 964 417 954 422 Q 831 468 758 538 Q 722 571 685 609 C 664 630 666 597 684 573 Z"/>
  <path id="z40772d19" d="M 571 332 Q 562 338 532 345 Q 522 348 518 344 Q 514 338 520 325 Q 545 259 557 155 Q 558 124 575 102 Q 588 83 594 96 Q 597 103 598 114 L 598 140 Q 597 155 588 216 L 585 237 Q 578 283 576 304 C 573 331 573 331 571 332 Z"/>
  <path id="z40772d20" d="M 719 127 Q 735 105 749 98 Q 759 91 771 110 Q 784 134 808 261 Q 815 288 835 309 Q 845 321 836 332 Q 823 347 785 369 Q 766 376 710 362 Q 610 343 571 332 C 542 324 547 298 576 304 Q 580 304 588 306 Q 735 346 751 328 Q 764 315 761 300 Q 743 165 726 151 C 715 132 715 132 719 127 Z"/>
  <path id="z40772d21" d="M 588 216 Q 591 216 595 216 Q 656 223 700 228 Q 719 231 713 242 Q 704 254 683 258 Q 653 262 585 237 C 557 227 558 216 588 216 Z"/>
  <path id="z40772d22" d="M 598 114 Q 665 124 719 127 C 749 129 750 133 726 151 Q 719 157 707 159 Q 677 163 598 140 C 569 132 568 110 598 114 Z"/>
  <path id="z40772d23" d="M 468 32 Q 449 31 463 14 Q 475 1 491 -5 Q 510 -11 526 -7 Q 685 27 902 8 Q 920 7 925 15 Q 931 25 916 39 Q 865 79 808 67 Q 666 49 468 32 Z"/>
<defs>
  <clipPath id="z40772c1"><use href="#z40772d1"/></clipPath>
  <clipPath id="z40772c2"><use href="#z40772d2"/></clipPath>
  <clipPath id="z40772c3"><use href="#z40772d3"/></clipPath>
  <clipPath id="z40772c4"><use href="#z40772d4"/></clipPath>
  <clipPath id="z40772c5"><use href="#z40772d5"/></clipPath>
  <clipPath id="z40772c6"><use href="#z40772d6"/></clipPath>
  <clipPath id="z40772c7"><use href="#z40772d7"/></clipPath>
  <clipPath id="z40772c8"><use href="#z40772d8"/></clipPath>
  <clipPath id="z40772c9"><use href="#z40772d9"/></clipPath>
  <clipPath id="z40772c10"><use href="#z40772d10"/></clipPath>
  <clipPath id="z40772c11"><use href="#z40772d11"/></clipPath>
  <clipPath id="z40772c12"><use href="#z40772d12"/></clipPath>
  <clipPath id="z40772c13"><use href="#z40772d13"/></clipPath>
  <clipPath id="z40772c14"><use href="#z40772d14"/></clipPath>
  <clipPath id="z40772c15"><use href="#z40772d15"/></clipPath>
  <clipPath id="z40772c16"><use href="#z40772d16"/></clipPath>
  <clipPath id="z40772c17"><use href="#z40772d17"/></clipPath>
  <clipPath id="z40772c18"><use href="#z40772d18"/></clipPath>
  <clipPath id="z40772c19"><use href="#z40772d19"/></clipPath>
  <clipPath id="z40772c20"><use href="#z40772d20"/></clipPath>
  <clipPath id="z40772c21"><use href="#z40772d21"/></clipPath>
  <clipPath id="z40772c22"><use href="#z40772d22"/></clipPath>
  <clipPath id="z40772c23"><use href="#z40772d23"/></clipPath>
</defs>
<path style="--d:1s;" pathLength="3333" clip-path="url(#z40772c1)" d="M 366 806 L 333 804 L 293 747 L 269 725"/>
<path style="--d:2s;" pathLength="3333" clip-path="url(#z40772c2)" d="M 189 707 L 216 675 L 245 493"/>
<path style="--d:3s;" pathLength="3333" clip-path="url(#z40772c3)" d="M 226 701 L 254 699 L 305 716 L 393 732 L 443 725 L 461 701 L 427 569 L 410 532 L 392 541"/>
<path style="--d:4s;" pathLength="3333" clip-path="url(#z40772c4)" d="M 251 631 L 258 639 L 323 655 L 353 658 L 369 653"/>
<path style="--d:5s;" pathLength="3333" clip-path="url(#z40772c5)" d="M 254 571 L 265 582 L 286 588 L 343 600 L 373 597"/>
<path style="--d:6s;" pathLength="3333" clip-path="url(#z40772c6)" d="M 262 509 L 272 518 L 330 530 L 369 535 L 378 527"/>
<path style="--d:7s;" pathLength="3333" clip-path="url(#z40772c7)" d="M 148 445 L 178 414 L 208 270"/>
<path style="--d:8s;" pathLength="3333" clip-path="url(#z40772c8)" d="M 202 437 L 212 431 L 404 467 L 438 463 L 461 436 L 421 307 L 422 285"/>
<path style="--d:9s;" pathLength="3333" clip-path="url(#z40772c9)" d="M 244 363 L 344 384 L 385 381"/>
<path style="--d:10s;" pathLength="3333" clip-path="url(#z40772c10)" d="M 296 432 L 313 414 L 313 406 L 310 335 L 296 314"/>
<path style="--d:11s;" pathLength="3333" clip-path="url(#z40772c11)" d="M 225 280 L 388 313"/>
<path style="--d:12s;" pathLength="3333" clip-path="url(#z40772c12)" d="M 77 195 L 104 187 L 149 187 L 440 239 L 479 239 L 496 233"/>
<path style="--d:13s;" pathLength="3333" clip-path="url(#z40772c13)" d="M 225 175 L 251 158 L 257 147 L 235 67 L 215 33 L 191 8 L 130 -25"/>
<path style="--d:14s;" pathLength="3333" clip-path="url(#z40772c14)" d="M 375 207 L 396 185 L 390 20 L 402 -38"/>
<path style="--d:15s;" pathLength="3333" clip-path="url(#z40772c15)" d="M 516 621 L 560 614 L 763 651 L 824 656 L 851 650"/>
<path style="--d:16s;" pathLength="3333" clip-path="url(#z40772c16)" d="M 638 819 L 659 805 L 677 777 L 665 531 L 668 396"/>
<path style="--d:17s;" pathLength="3333" clip-path="url(#z40772c17)" d="M 648 602 L 640 596 L 631 544 L 591 479 L 551 433 L 516 405"/>
<path style="--d:18s;" pathLength="3333" clip-path="url(#z40772c18)" d="M 690 603 L 696 579 L 717 554 L 777 490 L 842 434 L 956 415"/>
<path style="--d:19s;" pathLength="3333" clip-path="url(#z40772c19)" d="M 525 339 L 552 307 L 585 101"/>
<path style="--d:20s;" pathLength="3333" clip-path="url(#z40772c20)" d="M 578 326 L 598 321 L 628 332 L 743 352 L 775 343 L 791 327 L 796 319 L 769 190 L 750 133 L 755 113"/>
<path style="--d:21s;" pathLength="3333" clip-path="url(#z40772c21)" d="M 592 222 L 601 229 L 659 241 L 704 238"/>
<path style="--d:22s;" pathLength="3333" clip-path="url(#z40772c22)" d="M 606 121 L 613 132 L 718 147"/>
<path style="--d:23s;" pathLength="3333" clip-path="url(#z40772c23)" d="M 466 23 L 510 14 L 833 42 L 883 34 L 915 21"/>
</svg>