<svg id="z40128" class="acjk" viewBox="0 0 1024 1024" xmlns="http://www.w3.org/2000/svg">
<style>
<![CDATA[
@keyframes zk {
	to {
		stroke-dashoffset:0;
	}
}
svg.acjk path[clip-path] {
	--t:0.8s;
	animation:zk var(--t) linear forwards var(--d);
	stroke-dasharray:3337;
	stroke-dashoffset:3339;
	stroke-width:128;
	stroke-linecap:round;
	stroke-linejoin:round;
	fill:none;
	stroke:#000;
}
svg.acjk path[id] {fill:#ccc;}
]]>
</style>
  <path id="z40128d1" d="M 267 686 Q 307 745 323 759 Q 328 764 329 770 Q 331 784 302 811 Q 280 827 264 828 Q 247 827 255 809 Q 267 771 194 662 Q 159 614 110 557 Q 108 555 107 553 Q 88 531 106 535 Q 145 541 251 666 L 267 686 Z"/>
  <path id="z40128d2" d="M 294 527 Q 311 545 349 595 Q 386 643 419 668 Q 435 678 424 690 Q 413 700 380 717 Q 368 721 346 711 Q 296 693 267 686 C 238 679 221 670 251 666 Q 269 661 325 671 Q 333 672 334 671 Q 341 664 304 589 Q 270 525 270 521 C 259 493 274 505 294 527 Z"/>
  <path id="z40128d3" d="M 145 490 Q 106 506 99 497 Q 94 492 102 474 Q 129 399 141 302 Q 143 270 161 248 Q 175 227 180 242 Q 184 250 186 265 L 186 288 L 161 461 C 158 485 158 485 145 490 Z"/>
  <path id="z40128d4" d="M 325 292 Q 339 271 351 267 Q 363 263 374 280 Q 388 306 412 435 Q 416 449 421 462 L 438 486 Q 446 498 437 508 Q 425 521 385 544 Q 368 551 355 545 L 300 529 Q 296 529 294 527 L 270 521 Q 258 521 145 490 C 116 482 132 452 161 461 Q 188 470 231 482 L 263 488 L 292 496 Q 341 509 355 501 Q 367 485 365 472 Q 353 388 349 367 Q 340 325 325 318 C 314 307 314 307 325 292 Z"/>
  <path id="z40128d5" d="M 280 388 Q 313 393 323 394 Q 343 398 336 408 Q 320 427 282 420 L 241 410 Q 212 402 192 394 Q 178 392 194 380 Q 198 377 241 381 L 280 388 Z"/>
  <path id="z40128d6" d="M 276 316 Q 277 352 280 388 L 282 420 L 284 457 Q 283 470 263 488 C 241 509 225 511 231 482 Q 237 456 241 410 L 241 381 Q 241 367 241 306 C 241 276 275 286 276 316 Z"/>
  <path id="z40128d7" d="M 186 265 Q 221 273 325 292 C 355 297 354 309 325 318 Q 310 324 276 316 L 241 306 L 186 288 C 157 279 157 258 186 265 Z"/>
  <path id="z40128d8" d="M 78 143 Q 65 141 63 130 Q 61 119 69 110 Q 91 94 123 74 Q 133 69 145 78 Q 176 102 367 176 Q 379 181 390 187 Q 424 206 425 217 Q 421 223 408 220 Q 130 141 78 143 Z"/>
  <path id="z40128d9" d="M 543 717 L 539 719 Q 501 734 495 725 Q 490 721 498 703 Q 525 627 537 531 Q 538 500 557 476 Q 564 465 570 465 Q 578 466 581 498 L 580 523 L 570 591 L 566 619 Q 561 661 557 690 C 554 712 554 712 543 717 Z"/>
  <path id="z40128d10" d="M 676 754 Q 559 725 543 717 C 515 707 529 681 557 690 Q 599 705 688 723 Q 702 725 710 722 Q 731 715 727 690 Q 711 553 698 531 C 688 506 676 518 682 512 Q 714 480 720 476 Q 730 470 741 488 Q 755 515 774 657 Q 777 672 785 686 L 800 708 Q 808 719 799 729 Q 786 741 747 764 Q 735 770 676 754 Z"/>
  <path id="z40128d11" d="M 570 591 Q 620 600 666 606 Q 689 610 679 623 Q 671 634 652 638 Q 611 646 566 619 C 540 604 540 586 570 591 Z"/>
  <path id="z40128d12" d="M 581 498 Q 644 508 682 512 C 711 515 711 515 698 531 Q 696 535 688 539 Q 651 554 580 523 C 552 511 551 493 581 498 Z"/>
  <path id="z40128d13" d="M 655 398 Q 737 410 890 412 Q 908 413 910 421 Q 913 431 900 441 Q 851 478 805 462 Q 652 431 439 400 Q 431 400 429 396 Q 427 388 444 378 Q 470 361 496 368 Q 555 384 613 392 L 655 398 Z"/>
  <path id="z40128d14" d="M 668 123 L 674 252 L 676 278 Q 677 296 678 310 L 684 367 Q 684 372 679 378 Q 666 391 655 398 C 630 415 602 420 613 392 Q 623 374 627 284 Q 626 220 626 149 C 626 119 667 93 668 123 Z"/>
  <path id="z40128d15" d="M 674 252 Q 710 240 751 252 L 817 265 Q 833 269 835 270 Q 842 278 838 286 Q 831 296 804 303 Q 780 306 716 286 Q 694 283 676 278 C 647 270 645 261 674 252 Z"/>
  <path id="z40128d16" d="M 525 225 L 549 276 Q 551 286 540 295 Q 498 321 476 314 Q 470 311 470 304 L 474 278 Q 488 195 409 82 Q 400 74 372 31 Q 372 28 371 26 Q 370 18 380 22 Q 414 34 449 81 Q 487 131 511 192 L 525 225 Z"/>
  <path id="z40128d17" d="M 511 192 Q 529 163 608 106 Q 694 42 768 0 Q 776 -4 782 -6 Q 808 -15 909 12 Q 946 21 956 34 L 957 37 Q 960 47 939 48 Q 886 57 845 59 Q 755 67 668 123 L 626 149 Q 575 184 525 225 C 502 244 493 216 511 192 Z"/>
<defs>
  <clipPath id="z40128c1"><use href="#z40128d1"/></clipPath>
  <clipPath id="z40128c2"><use href="#z40128d2"/></clipPath>
  <clipPath id="z40128c3"><use href="#z40128d3"/></clipPath>
  <clipPath id="z40128c4"><use href="#z40128d4"/></clipPath>
  <clipPath id="z40128c5"><use href="#z40128d5"/></clipPath>
  <clipPath id="z40128c6"><use href="#z40128d6"/></clipPath>
  <clipPath id="z40128c7"><use href="#z40128d7"/></clipPath>
  <clipPath id="z40128c8"><use href="#z40128d8"/></clipPath>
  <clipPath id="z40128c9"><use href="#z40128d9"/></clipPath>
  <clipPath id="z40128c10"><use href="#z40128d10"/></clipPath>
  <clipPath id="z40128c11"><use href="#z40128d11"/></clipPath>
  <clipPath id="z40128c12"><use href="#z40128d12"/></clipPath>
  <clipPath id="z40128c13"><use href="#z40128d13"/></clipPath>
  <clipPath id="z40128c14"><use href="#z40128d14"/></clipPath>
  <clipPath id="z40128c15"><use href="#z40128d15"/></clipPath>
  <clipPath id="z40128c16"><use href="#z40128d16"/></clipPath>
  <clipPath id="z40128c17"><use href="#z40128d17"/></clipPath>
</defs>
<path style="--d:1s;" pathLength="3333" clip-path="url(#z40128c1)" d="M 263 817 L 282 795 L 288 771 L 254 709 L 174 605 L 113 546 L 104 544"/>
<path style="--d:2s;" pathLength="3333" clip-path="url(#z40128c2)" d="M 256 670 L 345 690 L 372 678 L 320 581 L 277 528"/>
<path style="--d:3s;" pathLength="3333" clip-path="url(#z40128c3)" d="M 106 491 L 127 474 L 136 454 L 171 246"/>
<path style="--d:4s;" pathLength="3333" clip-path="url(#z40128c4)" d="M 158 491 L 169 480 L 325 520 L 367 523 L 380 515 L 399 493 L 374 363 L 353 305 L 355 284"/>
<path style="--d:5s;" pathLength="3333" clip-path="url(#z40128c5)" d="M 199 388 L 292 406 L 327 403"/>
<path style="--d:6s;" pathLength="3333" clip-path="url(#z40128c6)" d="M 237 477 L 256 465 L 260 452 L 259 330 L 244 317"/>
<path style="--d:7s;" pathLength="3333" clip-path="url(#z40128c7)" d="M 189 271 L 209 282 L 308 304 L 319 312"/>
<path style="--d:8s;" pathLength="3333" clip-path="url(#z40128c8)" d="M 79 127 L 131 112 L 367 192 L 419 215"/>
<path style="--d:9s;" pathLength="3333" clip-path="url(#z40128c9)" d="M 502 719 L 526 698 L 533 678 L 569 471"/>
<path style="--d:10s;" pathLength="3333" clip-path="url(#z40128c10)" d="M 548 711 L 568 709 L 667 738 L 711 743 L 738 738 L 755 722 L 761 711 L 732 549 L 720 511 L 725 487"/>
<path style="--d:11s;" pathLength="3333" clip-path="url(#z40128c11)" d="M 576 599 L 584 610 L 608 618 L 655 621 L 670 616"/>
<path style="--d:12s;" pathLength="3333" clip-path="url(#z40128c12)" d="M 589 505 L 595 516 L 689 530"/>
<path style="--d:13s;" pathLength="3333" clip-path="url(#z40128c13)" d="M 436 394 L 478 385 L 585 406 L 828 439 L 900 425"/>
<path style="--d:14s;" pathLength="3333" clip-path="url(#z40128c14)" d="M 620 391 L 652 360 L 648 172 L 665 130"/>
<path style="--d:15s;" pathLength="3333" clip-path="url(#z40128c15)" d="M 683 258 L 692 265 L 791 282 L 829 278"/>
<path style="--d:16s;" pathLength="3333" clip-path="url(#z40128c16)" d="M 483 303 L 509 271 L 489 192 L 449 110 L 418 68 L 377 27"/>
<path style="--d:17s;" pathLength="3333" clip-path="url(#z40128c17)" d="M 529 217 L 529 204 L 540 187 L 612 129 L 713 66 L 779 34 L 822 27 L 949 38"/>
</svg>