<svg id="z40104" class="acjk" viewBox="0 0 1024 1024" xmlns="http://www.w3.org/2000/svg">
<style>
<![CDATA[
@keyframes zk {
	to {
		stroke-dashoffset:0;
	}
}
svg.acjk path[clip-path] {
	--t:0.8s;
	animation:zk var(--t) linear forwards var(--d);
	stroke-dasharray:3337;
	stroke-dashoffset:3339;
	stroke-width:128;
	stroke-linecap:round;
	stroke-linejoin:round;
	fill:none;
	stroke:#000;
}
svg.acjk path[id] {fill:#ccc;}
]]>
</style>
  <path id="z40104d1" d="M 302 753 Q 324 738 349 719 Q 361 709 374 712 Q 383 713 385 724 Q 388 737 378 760 Q 366 784 293 792 Q 280 793 276 791 Q 272 787 274 777 Q 278 768 302 753 Z"/>
  <path id="z40104d2" d="M 230 657 Q 272 620 298 614 Q 310 613 316 624 Q 320 634 316 647 Q 304 677 236 688 Q 223 691 216 687 Q 212 686 215 676 Q 216 667 230 657 Z"/>
  <path id="z40104d3" d="M 239 496 Q 229 495 228 481 Q 231 418 255 403 Q 259 396 267 397 Q 274 398 277 417 Q 283 442 350 571 Q 357 581 357 587 Q 358 594 350 591 Q 341 588 262 511 Q 255 504 239 496 Z"/>
  <path id="z40104d4" d="M 557 818 Q 581 782 571 649 Q 567 637 583 597 Q 590 584 603 591 Q 613 600 614 658 Q 615 760 635 788 Q 641 795 631 807 Q 612 823 589 832 Q 574 839 563 834 Q 551 830 557 818 Z"/>
  <path id="z40104d5" d="M 463 729 Q 445 695 423 666 Q 405 642 419 611 Q 425 596 443 606 Q 482 636 482 680 Q 488 707 483 728 Q 479 735 474 736 Q 467 735 463 729 Z"/>
  <path id="z40104d6" d="M 702 729 Q 745 704 797 663 Q 812 650 825 649 Q 832 649 836 658 Q 843 671 827 703 Q 815 730 756 745 Q 719 752 698 754 Q 691 757 691 746 Q 692 736 702 729 Z"/>
  <path id="z40104d7" d="M 669 685 Q 673 639 593 567 Q 571 548 518 509 Q 511 506 519 503 Q 549 496 633 554 Q 636 558 641 561 Q 669 583 715 632 Q 721 639 725 641 Q 731 644 731 652 Q 731 659 723 670 Q 701 695 676 696 Q 669 695 669 685 Z"/>
  <path id="z40104d8" d="M 499 465 Q 502 469 501 474 Q 500 484 481 494 Q 459 504 449 503 Q 443 503 440 493 Q 424 445 305 365 Q 287 355 309 356 Q 363 353 478 447 L 499 465 Z"/>
  <path id="z40104d9" d="M 546 362 Q 603 428 637 448 Q 652 457 642 468 Q 630 478 600 496 Q 588 500 499 465 C 471 454 464 451 478 447 Q 490 440 539 449 Q 551 458 558 452 Q 561 449 557 441 Q 529 386 513 356 C 499 330 526 339 546 362 Z"/>
  <path id="z40104d10" d="M 346 328 Q 336 332 309 336 Q 297 339 295 334 Q 289 327 297 313 Q 325 256 344 164 Q 348 136 364 119 Q 382 98 386 113 Q 389 120 389 131 L 388 157 Q 387 166 385 174 Q 369 262 363 295 C 358 324 358 324 346 328 Z"/>
  <path id="z40104d11" d="M 616 151 Q 629 126 644 118 Q 654 111 669 128 Q 684 149 720 262 Q 730 290 752 313 Q 765 323 755 338 Q 742 354 702 381 Q 684 391 600 371 Q 588 371 546 362 L 513 356 Q 483 353 452 347 Q 394 335 346 328 C 316 323 334 287 363 295 Q 363 296 366 296 Q 412 309 483 322 L 518 328 Q 650 353 668 337 Q 678 324 674 310 Q 643 187 628 177 C 614 155 614 155 616 151 Z"/>
  <path id="z40104d12" d="M 537 230 Q 570 237 600 240 Q 619 243 613 254 Q 604 266 583 270 Q 565 273 538 265 L 493 253 Q 453 243 418 234 Q 405 231 421 219 Q 430 212 448 215 Q 470 219 495 223 L 537 230 Z"/>
  <path id="z40104d13" d="M 534 179 Q 535 207 537 230 L 538 265 Q 538 281 540 290 Q 544 303 538 312 Q 528 322 518 328 C 493 344 474 351 483 322 Q 489 307 493 253 L 495 223 Q 495 202 497 173 C 499 143 533 149 534 179 Z"/>
  <path id="z40104d14" d="M 389 131 Q 398 130 411 131 Q 526 144 616 151 C 646 153 655 163 628 177 Q 621 181 610 185 Q 571 194 534 179 L 497 173 Q 439 166 388 157 C 358 152 359 133 389 131 Z"/>
  <path id="z40104d15" d="M 514 28 Q 562 29 607 33 Q 724 43 853 27 Q 875 24 881 33 Q 888 45 877 57 Q 849 84 808 103 Q 795 110 770 102 Q 680 86 487 68 Q 378 61 323 54 Q 262 45 171 46 Q 158 47 156 36 Q 156 24 173 10 Q 189 -2 219 -14 Q 229 -18 246 -11 Q 261 -7 326 3 Q 410 21 514 28 Z"/>
<defs>
  <clipPath id="z40104c1"><use href="#z40104d1"/></clipPath>
  <clipPath id="z40104c2"><use href="#z40104d2"/></clipPath>
  <clipPath id="z40104c3"><use href="#z40104d3"/></clipPath>
  <clipPath id="z40104c4"><use href="#z40104d4"/></clipPath>
  <clipPath id="z40104c5"><use href="#z40104d5"/></clipPath>
  <clipPath id="z40104c6"><use href="#z40104d6"/></clipPath>
  <clipPath id="z40104c7"><use href="#z40104d7"/></clipPath>
  <clipPath id="z40104c8"><use href="#z40104d8"/></clipPath>
  <clipPath id="z40104c9"><use href="#z40104d9"/></clipPath>
  <clipPath id="z40104c10"><use href="#z40104d10"/></clipPath>
  <clipPath id="z40104c11"><use href="#z40104d11"/></clipPath>
  <clipPath id="z40104c12"><use href="#z40104d12"/></clipPath>
  <clipPath id="z40104c13"><use href="#z40104d13"/></clipPath>
  <clipPath id="z40104c14"><use href="#z40104d14"/></clipPath>
  <clipPath id="z40104c15"><use href="#z40104d15"/></clipPath>
</defs>
<path style="--d:1s;" pathLength="3333" clip-path="url(#z40104c1)" d="M 281 783 L 336 760 L 354 748 L 372 724"/>
<path style="--d:2s;" pathLength="3333" clip-path="url(#z40104c2)" d="M 222 681 L 290 644 L 300 631"/>
<path style="--d:3s;" pathLength="3333" clip-path="url(#z40104c3)" d="M 264 406 L 259 424 L 262 469 L 351 585"/>
<path style="--d:4s;" pathLength="3333" clip-path="url(#z40104c4)" d="M 565 824 L 586 810 L 600 788 L 591 659 L 596 600"/>
<path style="--d:5s;" pathLength="3333" clip-path="url(#z40104c5)" d="M 473 726 L 459 675 L 433 616"/>
<path style="--d:6s;" pathLength="3333" clip-path="url(#z40104c6)" d="M 701 744 L 785 707 L 810 685 L 822 664"/>
<path style="--d:7s;" pathLength="3333" clip-path="url(#z40104c7)" d="M 681 685 L 696 655 L 669 616 L 596 547 L 524 507"/>
<path style="--d:8s;" pathLength="3333" clip-path="url(#z40104c8)" d="M 486 473 L 462 471 L 405 416 L 353 380 L 314 363"/>
<path style="--d:9s;" pathLength="3333" clip-path="url(#z40104c9)" d="M 484 451 L 493 449 L 514 461 L 526 459 L 558 470 L 575 469 L 592 457 L 555 396 L 518 360"/>
<path style="--d:10s;" pathLength="3333" clip-path="url(#z40104c10)" d="M 303 327 L 326 309 L 338 286 L 376 118"/>
<path style="--d:11s;" pathLength="3333" clip-path="url(#z40104c11)" d="M 354 325 L 380 316 L 462 335 L 529 341 L 558 351 L 636 362 L 669 362 L 693 353 L 713 326 L 677 215 L 649 153 L 651 136"/>
<path style="--d:12s;" pathLength="3333" clip-path="url(#z40104c12)" d="M 427 228 L 453 228 L 564 254 L 604 250"/>
<path style="--d:13s;" pathLength="3333" clip-path="url(#z40104c13)" d="M 489 320 L 515 298 L 516 200 L 502 180"/>
<path style="--d:14s;" pathLength="3333" clip-path="url(#z40104c14)" d="M 394 138 L 412 147 L 621 172"/>
<path style="--d:15s;" pathLength="3333" clip-path="url(#z40104c15)" d="M 168 34 L 228 16 L 460 46 L 793 70 L 869 42"/>
</svg>