<svg id="z40116" class="acjk" viewBox="0 0 1024 1024" xmlns="http://www.w3.org/2000/svg">
<style>
<![CDATA[
@keyframes zk {
	to {
		stroke-dashoffset:0;
	}
}
svg.acjk path[clip-path] {
	--t:0.8s;
	animation:zk var(--t) linear forwards var(--d);
	stroke-dasharray:3337;
	stroke-dashoffset:3339;
	stroke-width:128;
	stroke-linecap:round;
	stroke-linejoin:round;
	fill:none;
	stroke:#000;
}
svg.acjk path[id] {fill:#ccc;}
]]>
</style>
  <path id="z40116d1" d="M 270 658 Q 291 683 313 714 Q 329 742 345 754 Q 352 763 349 774 Q 346 784 324 804 Q 302 820 287 820 Q 271 819 277 801 Q 286 782 279 766 Q 257 712 223 662 Q 190 614 146 561 Q 137 554 136 548 Q 132 539 144 541 Q 169 544 236 619 Q 243 628 254 638 L 270 658 Z"/>
  <path id="z40116d2" d="M 306 506 Q 415 647 428 656 Q 443 666 431 677 Q 418 687 384 702 Q 369 706 357 697 Q 350 693 294 667 Q 282 663 270 658 C 242 647 228 641 254 638 Q 269 632 336 652 Q 342 653 344 652 Q 348 649 344 639 Q 311 557 291 518 Q 285 508 283 501 C 272 473 288 482 306 506 Z"/>
  <path id="z40116d3" d="M 165 472 Q 155 476 130 480 Q 120 483 116 478 Q 112 472 119 458 Q 150 392 168 284 Q 171 253 189 230 Q 205 211 210 225 Q 213 235 213 248 L 212 269 Q 211 282 208 296 Q 186 408 181 443 C 177 468 177 468 165 472 Z"/>
  <path id="z40116d4" d="M 361 275 Q 376 256 389 250 Q 399 243 411 263 Q 424 287 445 417 Q 452 445 471 468 Q 481 478 471 491 Q 458 504 418 526 Q 406 532 333 513 Q 323 513 306 506 L 283 501 Q 277 501 165 472 C 136 464 153 433 181 443 Q 214 455 261 466 L 294 473 Q 321 480 354 486 Q 379 490 387 482 Q 400 469 398 454 Q 380 313 362 301 C 352 285 352 285 361 275 Z"/>
  <path id="z40116d5" d="M 310 372 Q 332 378 354 381 Q 372 385 365 394 Q 356 404 336 408 Q 326 409 312 405 L 270 393 Q 242 383 217 374 Q 204 370 220 359 L 270 363 L 310 372 Z"/>
  <path id="z40116d6" d="M 305 296 Q 306 336 310 372 L 312 405 Q 312 429 314 436 Q 320 455 294 473 C 270 491 251 494 261 466 Q 267 454 270 393 L 270 363 Q 270 333 271 286 C 272 256 304 266 305 296 Z"/>
  <path id="z40116d7" d="M 213 248 Q 219 247 230 249 Q 302 265 361 275 C 391 280 390 292 362 301 Q 359 302 353 304 Q 334 305 305 296 L 271 286 Q 238 279 212 269 C 184 258 183 250 213 248 Z"/>
  <path id="z40116d8" d="M 99 134 Q 87 133 85 124 Q 84 112 91 104 Q 112 88 140 70 Q 150 67 161 74 Q 204 104 365 163 Q 392 172 417 188 Q 429 195 430 203 Q 426 207 414 206 Q 158 133 99 134 Z"/>
  <path id="z40116d9" d="M 534 709 Q 524 721 492 736 Q 482 740 469 736 Q 462 732 467 718 Q 494 634 495 509 Q 495 287 466 180 Q 450 119 489 74 Q 499 59 511 73 Q 523 89 524 108 L 528 145 Q 529 176 530 218 Q 536 668 542 676 C 545 700 545 700 534 709 Z"/>
  <path id="z40116d10" d="M 786 127 Q 814 91 835 57 Q 845 38 856 39 Q 874 40 890 76 Q 908 116 904 165 Q 892 333 886 641 Q 885 674 902 697 Q 912 710 902 721 Q 883 742 827 766 Q 808 776 792 766 Q 702 730 534 709 C 504 705 512 673 542 676 Q 561 676 591 683 Q 607 687 628 689 L 673 697 Q 719 706 765 714 Q 796 720 812 708 Q 828 690 837 570 Q 844 453 837 300 Q 833 206 828 167 Q 824 146 804 156 C 776 144 774 143 786 127 Z"/>
  <path id="z40116d11" d="M 646 555 Q 612 551 575 548 Q 547 544 566 531 Q 599 512 639 521 Q 640 522 645 521 L 684 529 Q 804 554 806 555 Q 813 561 810 567 Q 806 576 783 582 Q 761 586 688 564 L 646 555 Z"/>
  <path id="z40116d12" d="M 628 689 Q 646 671 647 579 Q 646 569 646 555 L 645 521 Q 642 472 638 416 C 636 386 668 394 672 424 Q 679 478 684 529 L 688 564 Q 689 601 708 664 Q 711 673 696 685 Q 683 692 673 697 C 646 711 611 714 628 689 Z"/>
  <path id="z40116d13" d="M 601 410 Q 594 414 570 420 Q 561 423 558 420 Q 554 416 559 403 Q 578 352 587 271 Q 588 246 601 229 Q 613 213 617 224 Q 623 237 621 262 L 618 287 Q 609 362 608 386 C 607 407 607 407 601 410 Z"/>
  <path id="z40116d14" d="M 638 416 Q 620 415 601 410 C 572 403 578 381 608 386 Q 609 386 699 402 Q 721 406 727 397 Q 733 393 725 365 Q 718 338 708 306 C 699 277 739 273 748 302 Q 769 368 790 386 Q 809 407 791 419 Q 775 429 754 445 Q 738 455 722 446 Q 700 433 672 424 L 638 416 Z"/>
  <path id="z40116d15" d="M 621 262 Q 630 259 642 262 Q 679 269 758 276 Q 767 277 768 284 Q 768 290 748 302 L 708 306 Q 707 306 706 306 Q 657 293 618 287 C 588 282 592 269 621 262 Z"/>
  <path id="z40116d16" d="M 524 108 Q 528 108 534 108 Q 615 123 786 127 C 816 128 829 139 804 156 Q 795 162 784 170 Q 768 180 734 174 Q 620 155 528 145 C 498 142 494 108 524 108 Z"/>
<defs>
  <clipPath id="z40116c1"><use href="#z40116d1"/></clipPath>
  <clipPath id="z40116c2"><use href="#z40116d2"/></clipPath>
  <clipPath id="z40116c3"><use href="#z40116d3"/></clipPath>
  <clipPath id="z40116c4"><use href="#z40116d4"/></clipPath>
  <clipPath id="z40116c5"><use href="#z40116d5"/></clipPath>
  <clipPath id="z40116c6"><use href="#z40116d6"/></clipPath>
  <clipPath id="z40116c7"><use href="#z40116d7"/></clipPath>
  <clipPath id="z40116c8"><use href="#z40116d8"/></clipPath>
  <clipPath id="z40116c9"><use href="#z40116d9"/></clipPath>
  <clipPath id="z40116c10"><use href="#z40116d10"/></clipPath>
  <clipPath id="z40116c11"><use href="#z40116d11"/></clipPath>
  <clipPath id="z40116c12"><use href="#z40116d12"/></clipPath>
  <clipPath id="z40116c13"><use href="#z40116d13"/></clipPath>
  <clipPath id="z40116c14"><use href="#z40116d14"/></clipPath>
  <clipPath id="z40116c15"><use href="#z40116d15"/></clipPath>
  <clipPath id="z40116c16"><use href="#z40116d16"/></clipPath>
</defs>
<path style="--d:1s;" pathLength="3333" clip-path="url(#z40116c1)" d="M 286 808 L 311 778 L 313 769 L 302 748 L 266 687 L 202 603 L 143 548"/>
<path style="--d:2s;" pathLength="3333" clip-path="url(#z40116c2)" d="M 258 643 L 345 671 L 381 662 L 370 631 L 309 521 L 289 503"/>
<path style="--d:3s;" pathLength="3333" clip-path="url(#z40116c3)" d="M 124 473 L 146 454 L 156 435 L 200 230"/>
<path style="--d:4s;" pathLength="3333" clip-path="url(#z40116c4)" d="M 179 473 L 194 463 L 369 506 L 400 503 L 427 483 L 432 476 L 411 363 L 390 290 L 395 266"/>
<path style="--d:5s;" pathLength="3333" clip-path="url(#z40116c5)" d="M 226 368 L 322 392 L 357 389"/>
<path style="--d:6s;" pathLength="3333" clip-path="url(#z40116c6)" d="M 267 464 L 288 448 L 292 415 L 288 310 L 274 295"/>
<path style="--d:7s;" pathLength="3333" clip-path="url(#z40116c7)" d="M 217 253 L 235 263 L 346 288 L 355 295"/>
<path style="--d:8s;" pathLength="3333" clip-path="url(#z40116c8)" d="M 98 121 L 147 105 L 338 171 L 350 170 L 425 201"/>
<path style="--d:9s;" pathLength="3333" clip-path="url(#z40116c9)" d="M 477 727 L 506 693 L 514 613 L 512 320 L 494 141 L 500 78"/>
<path style="--d:10s;" pathLength="3333" clip-path="url(#z40116c10)" d="M 544 706 L 556 694 L 811 741 L 858 706 L 867 217 L 866 155 L 853 118 L 856 55"/>
<path style="--d:11s;" pathLength="3333" clip-path="url(#z40116c11)" d="M 569 541 L 577 536 L 627 536 L 695 545 L 751 562 L 788 567 L 803 563"/>
<path style="--d:12s;" pathLength="3333" clip-path="url(#z40116c12)" d="M 636 689 L 668 667 L 673 657 L 660 464 L 656 439 L 642 424"/>
<path style="--d:13s;" pathLength="3333" clip-path="url(#z40116c13)" d="M 564 415 L 587 386 L 610 228"/>
<path style="--d:14s;" pathLength="3333" clip-path="url(#z40116c14)" d="M 608 393 L 617 401 L 727 424 L 745 419 L 760 401 L 757 389 L 733 324 L 715 312"/>
<path style="--d:15s;" pathLength="3333" clip-path="url(#z40116c15)" d="M 626 282 L 634 275 L 702 289 L 760 284"/>
<path style="--d:16s;" pathLength="3333" clip-path="url(#z40116c16)" d="M 529 114 L 550 130 L 796 154"/>
</svg>