<svg id="z12570" class="acjk" viewBox="0 0 1024 1024" xmlns="http://www.w3.org/2000/svg">
  <path id="z12570d1" d="M 411 441 Q 405 429 390 412 Q 374 396 341 360 Q 307 324 286 302 L 211 225 L 164 175 Q 132 143 124 133 Q 115 122 114 111 Q 114 100 120 90 Q 126 78 142 70 Q 157 62 172 62 Q 194 62 211 79 Q 229 96 261 139 L 325 226 Q 377 296 458 380 Q 494 474 411 441"/>
  <path id="z12570d2" d="M 458 380 Q 506 325 540 279 L 594 205 Q 604 191 620 164 Q 636 138 645 121 Q 654 104 662 81 Q 669 59 678 45 Q 687 30 713 31 Q 727 31 745 40 Q 762 49 773 69 Q 784 88 784 100 Q 783 111 778 119 Q 773 126 763 136 Q 753 146 727 174 Q 701 201 691 212 L 625 292 L 574 352 Q 558 371 540 399 C 476 511 415 430 458 380"/>
  <path id="z12570d3" d="M 516 445 Q 509 464 510 504 L 512 702 Q 512 743 514 769 Q 516 794 515 802 Q 514 814 511 825 Q 507 836 498 852 Q 488 868 475 868 Q 461 868 443 847 Q 425 827 420 809 Q 414 790 415 757 L 417 692 L 421 512 Q 421 487 419 470 Q 418 452 411 441 C 435 354 492 356 516 445"/>
<defs>
  <clipPath id="z12570c1"><use href="#z12570d1"/></clipPath>
  <clipPath id="z12570c2"><use href="#z12570d2"/></clipPath>
  <clipPath id="z12570c3"><use href="#z12570d3"/></clipPath>
</defs>
<path style="--d:1s;" pathLength="3333" clip-path="url(#z12570c1)" d="M 143 77 L 296 257 L 458 436"/>
<path style="--d:2s;" pathLength="3333" clip-path="url(#z12570c2)" d="M 727 81 L 488 412"/>
<path style="--d:3s;" pathLength="3333" clip-path="url(#z12570c3)" d="M 463 388 L 465 623 L 471 862"/>
</svg>