<svg id="z12550" class="acjk" viewBox="0 0 1024 1024" xmlns="http://www.w3.org/2000/svg">
  <path id="z12550d1" d="M 468 546 Q 521 492 548 459 Q 575 427 608 384 Q 641 340 646 326 Q 651 312 651 304 Q 651 293 643 286 Q 635 278 589 283 L 500 294 Q 488 296 421 305 Q 354 314 330 320 Q 305 326 289 331 L 251 343 Q 233 349 227 348 Q 207 347 196 325 Q 184 302 184 294 Q 184 288 187 284 Q 190 279 200 269 Q 209 259 236 227 Q 263 195 282 166 Q 302 137 309 125 Q 315 112 322 98 L 332 75 Q 337 65 345 64 Q 353 64 372 74 Q 390 84 397 95 Q 403 106 403 112 Q 402 118 388 134 Q 374 150 369 156 Q 364 162 358 170 L 339 197 Q 317 228 298 250 L 286 264 Q 280 271 281 273 Q 282 275 289 274 L 326 268 L 506 242 Q 528 239 572 233 Q 616 227 642 221 Q 668 215 672 215 Q 686 215 699 225 Q 712 234 729 249 Q 745 264 752 273 Q 758 282 759 291 Q 759 301 752 313 Q 748 319 736 334 Q 723 349 714 361 L 689 394 Q 660 433 633 469 Q 605 504 533 580 L 486 627 Q 411 689 360 723 Q 309 758 238 786 Q 166 815 134 820 L 118 823 Q 111 824 108 823 Q 105 821 104 819 Q 104 816 110 813 L 120 808 Q 188 775 252 730 Q 316 684 350 656 Q 384 629 427 587 L 468 546"/>
  <path id="z12550d2" d="M 427 587 L 238 471 L 213 455 Q 207 451 204 449 Q 200 446 200 443 Q 200 439 211 440 Q 226 443 246 450 L 268 459 Q 316 477 468 546 L 533 580 L 648 637 Q 729 678 748 692 Q 767 707 776 720 Q 785 733 789 757 Q 794 780 794 796 Q 793 810 789 822 Q 786 834 772 834 Q 753 835 736 822 Q 718 809 704 796 Q 689 783 666 763 Q 644 742 616 720 Q 588 698 486 627 L 427 587"/>
<defs>
  <clipPath id="z12550c1"><use href="#z12550d1"/></clipPath>
  <clipPath id="z12550c2"><use href="#z12550d2"/></clipPath>
</defs>
<path style="--d:1s;" pathLength="3333" clip-path="url(#z12550c1)" d="M 368 90 L 191 281 L 268 325 L 675 219 L 726 296 L 491 583 L 118 814"/>
<path style="--d:2s;" pathLength="3333" clip-path="url(#z12550c2)" d="M 250 461 L 491 592 L 783 794"/>
</svg>