<svg id="z12568" class="acjk" viewBox="0 0 1024 1024" xmlns="http://www.w3.org/2000/svg">
  <path id="z12568d1" d="M 411 246 L 578 232 Q 645 227 695 220 Q 745 214 753 213 Q 775 213 802 223 Q 830 232 834 240 Q 839 248 839 254 Q 839 261 835 268 Q 825 286 803 289 Q 797 290 778 288 Q 759 286 716 287 L 626 291 Q 519 295 401 306 L 331 313 L 212 335 Q 193 339 175 343 Q 157 347 146 350 Q 136 354 125 354 Q 101 354 79 340 Q 58 327 59 303 Q 59 285 79 280 Q 99 275 112 275 Q 124 274 158 272 Q 192 271 239 264 L 344 251 L 411 246"/>
  <path id="z12568d2" d="M 344 251 L 354 179 Q 357 157 358 144 Q 359 132 360 105 Q 361 79 362 65 Q 362 51 364 38 Q 366 24 392 23 Q 411 23 428 34 Q 446 44 449 57 Q 453 70 453 78 Q 454 86 450 94 Q 450 96 442 112 Q 435 127 432 139 Q 429 152 424 180 L 411 246 L 401 306 L 375 441 Q 372 450 372 462 Q 372 473 374 478 Q 375 486 380 490 Q 385 493 392 493 Q 398 492 418 489 L 518 474 Q 625 458 642 458 Q 671 459 695 480 Q 719 501 726 511 Q 732 521 733 529 Q 733 537 724 555 Q 721 562 707 592 Q 693 623 672 657 Q 651 691 613 739 Q 574 787 532 821 Q 489 854 430 871 L 415 875 Q 410 877 408 875 Q 407 874 406 871 Q 406 868 410 863 Q 415 854 429 843 L 454 823 Q 517 772 560 709 Q 604 645 620 612 Q 636 578 641 561 Q 646 544 646 536 Q 646 518 629 521 L 421 547 Q 389 552 360 560 Q 332 569 328 569 Q 319 569 306 561 Q 293 553 289 539 Q 284 525 284 519 Q 283 513 285 508 Q 286 506 292 496 Q 297 487 300 479 Q 302 470 311 424 L 331 313 L 344 251"/>
<defs>
  <clipPath id="z12568c1"><use href="#z12568d1"/></clipPath>
  <clipPath id="z12568c2"><use href="#z12568d2"/></clipPath>
</defs>
<path style="--d:1s;" pathLength="3333" clip-path="url(#z12568c1)" d="M 70 311 L 314 289 L 555 270 L 822 250"/>
<path style="--d:2s;" pathLength="3333" clip-path="url(#z12568c2)" d="M 417 35 L 353 307 L 315 513 L 357 544 L 635 496 L 703 547 L 596 719 L 423 873"/>
</svg>