<svg id="z12552" class="acjk" viewBox="0 0 1024 1024" xmlns="http://www.w3.org/2000/svg">
  <path id="z12552d1" d="M 105 249 Q 101 242 91 233 Q 82 224 81 219 Q 79 215 79 208 Q 80 176 104 176 L 144 177 Q 187 179 237 179 Q 287 178 495 160 L 615 149 Q 679 144 710 139 Q 741 134 776 124 Q 811 115 823 114 Q 877 111 891 140 Q 905 170 904 182 Q 903 194 896 203 Q 888 212 852 219 Q 816 226 657 236 L 579 241 Q 362 254 216 258 Q 140 281 105 249"/>
  <path id="z12552d2" d="M 216 258 L 218 619 Q 218 678 220 716 Q 223 755 231 775 Q 240 794 257 804 Q 273 813 301 817 Q 328 821 411 818 L 722 810 Q 773 809 815 805 Q 856 800 866 800 Q 892 800 904 807 Q 917 815 929 833 Q 941 851 940 870 Q 939 881 935 887 Q 930 893 917 897 Q 904 901 853 900 L 769 899 Q 638 897 622 896 Q 590 896 497 898 L 418 900 Q 408 901 346 904 Q 284 907 276 907 Q 230 907 200 892 Q 171 876 157 828 Q 142 779 140 761 Q 137 742 135 721 Q 134 701 133 660 Q 131 619 131 618 L 119 369 Q 117 347 115 320 Q 114 294 112 275 Q 110 256 105 249 Q 160 214 216 258"/>
<defs>
  <clipPath id="z12552c1"><use href="#z12552d1"/></clipPath>
  <clipPath id="z12552c2"><use href="#z12552d2"/></clipPath>
</defs>
<path style="--d:1s;" pathLength="3333" clip-path="url(#z12552c1)" d="M 105 222 L 486 202 L 877 159"/>
<path style="--d:2s;" pathLength="3333" clip-path="url(#z12552c2)" d="M 164 274 L 164 543 L 169 794 L 284 882 L 931 862"/>
</svg>