<svg id="z19988" class="acjk" viewBox="0 0 1024 1024" xmlns="http://www.w3.org/2000/svg">
  <path id="z19988d1" d="M 381 722 Q 360 738 342 747 Q 329 751 319 745 Q 309 741 313 729 Q 323 707 333 691 Q 343 663 344 616 Q 347 564 345 122 C 345 92 394 96 394 126 Q 394 232 394 328 L 394 356 Q 394 434 395 504 L 396 524 Q 396 677 400 686 C 402 707 402 707 381 722 Z"/>
  <path id="z19988d2" d="M 694 151 Q 694 632 723 685 Q 736 721 737 721 Q 727 742 666 778 Q 651 790 570 760 Q 450 730 381 722 C 351 718 371 678 400 686 Q 404 687 409 689 Q 550 723 607 730 Q 631 734 638 726 Q 647 710 646 675 Q 643 371 636 146 C 635 116 694 121 694 151 Z"/>
  <path id="z19988d3" d="M 395 504 Q 431 488 510 504 Q 580 520 584 522 Q 591 529 587 537 Q 580 547 553 554 Q 525 558 499 546 Q 460 533 403 526 Q 399 526 396 524 C 367 515 367 515 395 504 Z"/>
  <path id="z19988d4" d="M 394 328 Q 430 313 477 323 Q 525 332 573 341 Q 595 345 599 349 Q 608 356 603 365 Q 596 375 568 383 Q 538 389 510 377 Q 447 359 394 356 C 364 354 366 339 394 328 Z"/>
  <path id="z19988d5" d="M 509 92 Q 567 95 622 99 Q 772 111 921 90 Q 946 86 952 96 Q 961 109 948 122 Q 918 152 874 173 Q 859 180 832 172 Q 763 160 694 151 L 636 146 Q 540 139 487 134 Q 435 131 394 126 L 345 122 Q 311 121 288 118 Q 213 108 102 110 Q 89 111 86 99 Q 85 86 104 71 Q 152 35 187 48 Q 226 60 389 81 Q 446 88 509 92 Z"/>
<defs>
  <clipPath id="z19988c1"><use href="#z19988d1"/></clipPath>
  <clipPath id="z19988c2"><use href="#z19988d2"/></clipPath>
  <clipPath id="z19988c3"><use href="#z19988d3"/></clipPath>
  <clipPath id="z19988c4"><use href="#z19988d4"/></clipPath>
  <clipPath id="z19988c5"><use href="#z19988d5"/></clipPath>
</defs>
<path style="--d:1s;" pathLength="3333" clip-path="url(#z19988c1)" d="M 323 734 L 359 703 L 370 655 L 370 149 L 350 136"/>
<path style="--d:2s;" pathLength="3333" clip-path="url(#z19988c2)" d="M 387 718 L 416 707 L 625 755 L 660 748 L 683 718 L 687 709 L 672 528 L 667 192 L 665 177 L 643 152"/>
<path style="--d:3s;" pathLength="3333" clip-path="url(#z19988c3)" d="M 401 519 L 424 512 L 479 518 L 534 533 L 579 531"/>
<path style="--d:4s;" pathLength="3333" clip-path="url(#z19988c4)" d="M 401 349 L 411 340 L 440 339 L 546 361 L 593 359"/>
<path style="--d:5s;" pathLength="3333" clip-path="url(#z19988c5)" d="M 99 97 L 125 85 L 168 77 L 432 109 L 848 137 L 864 136 L 938 107"/>
</svg>