<svg id="z26177" class="acjk" viewBox="0 0 1024 1024" xmlns="http://www.w3.org/2000/svg">
  <path id="z26177d1" d="M 349 753 Q 336 757 312 760 Q 300 761 297 757 Q 291 750 300 735 Q 334 669 358 561 Q 364 527 383 507 Q 402 485 407 502 Q 408 512 409 524 L 407 552 Q 406 562 403 574 Q 396 601 391 623 L 385 647 Q 375 696 370 718 C 363 747 363 749 349 753 Z"/>
  <path id="z26177d2" d="M 579 540 Q 591 521 604 513 Q 614 504 632 525 Q 647 546 685 664 Q 697 695 722 719 Q 737 732 725 747 Q 710 765 668 794 Q 649 806 632 800 Q 601 793 561 787 Q 509 780 441 768 Q 390 759 349 753 C 319 749 341 710 370 718 Q 369 719 372 719 Q 450 738 588 755 Q 619 759 628 749 Q 638 734 635 720 Q 607 608 596 590 Q 590 578 576 577 C 558 568 561 564 579 540 Z"/>
  <path id="z26177d3" d="M 391 623 Q 395 623 402 623 Q 492 636 559 645 Q 581 649 573 661 Q 563 674 539 679 Q 524 682 385 647 C 356 640 361 623 391 623 Z"/>
  <path id="z26177d4" d="M 409 524 Q 410 524 414 524 Q 507 534 579 540 C 609 543 606 573 576 577 Q 554 581 514 574 Q 457 562 407 552 C 378 546 379 523 409 524 Z"/>
  <path id="z26177d5" d="M 388 373 Q 395 171 294 84 Q 261 54 186 14 Q 173 10 170 6 Q 166 0 181 -2 Q 224 -6 317 47 Q 428 117 443 316 Q 446 371 459 402 Q 463 414 456 421 Q 402 466 365 457 Q 346 450 361 432 Q 388 404 388 373 Z"/>
  <path id="z26177d6" d="M 247 381 Q 269 362 292 336 Q 304 324 318 325 Q 328 325 333 337 Q 337 350 330 377 Q 326 395 300 407 Q 239 431 224 427 Q 220 423 220 412 Q 223 402 247 381 Z"/>
  <path id="z26177d7" d="M 166 207 Q 154 203 154 194 Q 154 181 164 176 Q 186 166 219 153 Q 229 152 238 162 Q 256 183 329 241 Q 339 250 347 259 Q 357 268 356 276 Q 350 280 236 230 Q 173 209 166 207 Z"/>
  <path id="z26177d8" d="M 590 22 Q 653 -24 860 0 Q 888 6 911 13 Q 939 17 947 33 Q 951 42 942 64 Q 923 104 907 192 Q 904 207 896 213 Q 890 216 887 202 Q 872 153 859 111 Q 847 77 825 64 Q 786 40 671 47 Q 640 50 628 57 Q 601 73 594 107 Q 584 153 588 254 Q 592 365 612 414 Q 619 433 610 446 Q 597 459 559 476 Q 526 488 516 478 Q 507 471 521 449 Q 542 418 540 371 Q 540 274 540 164 Q 537 67 590 22 Z"/>
  <path id="z26177d9" d="M 710 442 Q 694 415 638 350 Q 629 334 645 337 Q 688 359 712 376 Q 769 416 789 424 Q 810 434 800 450 Q 787 466 763 480 Q 741 493 729 491 Q 716 490 720 477 Q 723 459 710 442 Z"/>
  <path id="z26177d10" d="M 643 266 Q 689 235 748 186 Q 764 170 779 168 Q 786 168 793 179 Q 802 192 785 230 Q 772 266 705 281 Q 663 291 640 294 Q 631 297 631 286 Q 632 273 643 266 Z"/>
<defs>
  <clipPath id="z26177c1"><use href="#z26177d1"/></clipPath>
  <clipPath id="z26177c2"><use href="#z26177d2"/></clipPath>
  <clipPath id="z26177c3"><use href="#z26177d3"/></clipPath>
  <clipPath id="z26177c4"><use href="#z26177d4"/></clipPath>
  <clipPath id="z26177c5"><use href="#z26177d5"/></clipPath>
  <clipPath id="z26177c6"><use href="#z26177d6"/></clipPath>
  <clipPath id="z26177c7"><use href="#z26177d7"/></clipPath>
  <clipPath id="z26177c8"><use href="#z26177d8"/></clipPath>
  <clipPath id="z26177c9"><use href="#z26177d9"/></clipPath>
  <clipPath id="z26177c10"><use href="#z26177d10"/></clipPath>
</defs>
<path style="--d:1s;" pathLength="3333" clip-path="url(#z26177c1)" d="M 306 750 L 332 729 L 343 710 L 395 507"/>
<path style="--d:2s;" pathLength="3333" clip-path="url(#z26177c2)" d="M 357 750 L 378 739 L 587 774 L 631 776 L 649 771 L 678 734 L 616 564 L 611 557 L 584 571"/>
<path style="--d:3s;" pathLength="3333" clip-path="url(#z26177c3)" d="M 397 631 L 404 639 L 526 660 L 563 655"/>
<path style="--d:4s;" pathLength="3333" clip-path="url(#z26177c4)" d="M 412 531 L 432 542 L 543 558 L 557 558 L 572 546"/>
<path style="--d:5s;" pathLength="3333" clip-path="url(#z26177c5)" d="M 367 444 L 389 435 L 420 401 L 412 270 L 381 160 L 346 103 L 299 59 L 226 19 L 176 3"/>
<path style="--d:6s;" pathLength="3333" clip-path="url(#z26177c6)" d="M 229 418 L 301 371 L 317 341"/>
<path style="--d:7s;" pathLength="3333" clip-path="url(#z26177c7)" d="M 168 193 L 218 189 L 354 272"/>
<path style="--d:8s;" pathLength="3333" clip-path="url(#z26177c8)" d="M 526 469 L 574 423 L 563 255 L 564 138 L 581 71 L 614 36 L 663 22 L 743 19 L 823 27 L 873 48 L 890 64 L 895 205"/>
<path style="--d:9s;" pathLength="3333" clip-path="url(#z26177c9)" d="M 728 482 L 752 445 L 650 348"/>
<path style="--d:10s;" pathLength="3333" clip-path="url(#z26177c10)" d="M 642 283 L 745 231 L 778 182"/>
</svg>