<svg id="z22376" class="acjk" viewBox="0 0 1024 1024" xmlns="http://www.w3.org/2000/svg">
  <path id="z22376d1" d="M 301 482 Q 374 509 378 511 Q 387 521 381 528 Q 372 540 342 543 Q 321 544 304 539 L 251 517 Q 188 493 125 479 Q 89 469 118 455 Q 158 437 233 461 Q 240 464 251 466 L 301 482 Z"/>
  <path id="z22376d2" d="M 291 291 Q 297 390 301 482 L 304 539 Q 307 636 326 703 Q 329 715 308 731 Q 271 750 244 755 Q 226 759 218 749 Q 211 742 219 725 Q 246 685 246 658 Q 249 591 251 517 L 251 466 Q 251 375 246 273 C 245 243 289 261 291 291 Z"/>
  <path id="z22376d3" d="M 246 273 Q 114 225 93 223 Q 80 220 78 209 Q 77 194 88 187 Q 115 172 152 156 Q 164 155 175 164 Q 188 179 353 283 Q 375 296 389 310 Q 402 320 402 329 Q 395 335 382 330 Q 337 311 291 291 L 246 273 Z"/>
  <path id="z22376d4" d="M 593 760 Q 624 735 657 702 Q 672 689 688 690 Q 700 691 705 705 Q 709 720 700 751 Q 693 773 659 789 Q 581 819 564 811 Q 558 807 560 793 Q 564 783 593 760 Z"/>
  <path id="z22376d5" d="M 498 574 Q 482 601 470 608 Q 467 612 461 609 Q 455 606 454 594 Q 458 560 420 484 Q 410 468 409 448 Q 412 429 421 414 Q 428 402 434 410 Q 441 411 450 426 Q 456 433 467 465 Q 491 531 500 539 C 511 553 511 553 498 574 Z"/>
  <path id="z22376d6" d="M 500 539 Q 513 536 566 551 Q 647 584 738 597 Q 757 601 765 600 Q 783 588 780 580 Q 780 577 763 510 Q 759 497 765 493 Q 772 490 786 503 Q 832 543 873 560 Q 906 575 904 583 Q 901 592 829 635 Q 808 648 732 628 Q 701 628 505 576 Q 501 576 498 574 C 469 566 470 538 500 539 Z"/>
  <path id="z22376d7" d="M 542 226 Q 591 247 741 325 Q 763 338 789 343 Q 811 349 805 369 Q 795 388 771 408 Q 750 427 737 426 Q 724 427 726 413 Q 723 377 630 311 Q 588 283 544 250 C 520 232 515 214 542 226 Z"/>
  <path id="z22376d8" d="M 516 77 Q 555 20 732 21 Q 820 22 872 37 Q 909 44 915 55 Q 922 65 913 84 Q 894 141 885 226 Q 881 244 872 248 Q 865 252 860 233 Q 829 112 813 101 Q 806 92 779 87 Q 692 69 638 72 Q 578 75 547 113 Q 535 140 542 226 L 544 250 Q 550 325 560 362 Q 567 383 546 397 Q 504 428 491 422 Q 481 416 489 399 Q 501 371 497 206 Q 494 115 516 77 Z"/>
<defs>
  <clipPath id="z22376c1"><use href="#z22376d1"/></clipPath>
  <clipPath id="z22376c2"><use href="#z22376d2"/></clipPath>
  <clipPath id="z22376c3"><use href="#z22376d3"/></clipPath>
  <clipPath id="z22376c4"><use href="#z22376d4"/></clipPath>
  <clipPath id="z22376c5"><use href="#z22376d5"/></clipPath>
  <clipPath id="z22376c6"><use href="#z22376d6"/></clipPath>
  <clipPath id="z22376c7"><use href="#z22376d7"/></clipPath>
  <clipPath id="z22376c8"><use href="#z22376d8"/></clipPath>
</defs>
<path style="--d:1s;" pathLength="3333" clip-path="url(#z22376c1)" d="M 118 468 L 172 468 L 335 520 L 372 520"/>
<path style="--d:2s;" pathLength="3333" clip-path="url(#z22376c2)" d="M 231 739 L 272 707 L 281 694 L 282 679 L 271 317 L 270 306 L 249 281"/>
<path style="--d:3s;" pathLength="3333" clip-path="url(#z22376c3)" d="M 95 206 L 154 199 L 310 276 L 396 326"/>
<path style="--d:4s;" pathLength="3333" clip-path="url(#z22376c4)" d="M 569 803 L 659 749 L 686 709"/>
<path style="--d:5s;" pathLength="3333" clip-path="url(#z22376c5)" d="M 465 601 L 476 571 L 475 555 L 437 459 L 431 423"/>
<path style="--d:6s;" pathLength="3333" clip-path="url(#z22376c6)" d="M 504 545 L 522 562 L 663 600 L 765 619 L 806 607 L 824 586 L 769 499"/>
<path style="--d:7s;" pathLength="3333" clip-path="url(#z22376c7)" d="M 735 417 L 752 376 L 744 366 L 681 319 L 557 246 L 544 232"/>
<path style="--d:8s;" pathLength="3333" clip-path="url(#z22376c8)" d="M 496 413 L 522 382 L 528 365 L 518 196 L 523 119 L 542 83 L 565 67 L 618 50 L 697 46 L 807 59 L 845 73 L 862 89 L 871 239"/>
</svg>