<svg id="z26634" class="acjk" viewBox="0 0 1024 1024" xmlns="http://www.w3.org/2000/svg">
  <path id="z26634d1" d="M 304 523 Q 400 551 404 555 Q 413 564 408 572 Q 401 584 370 590 Q 339 594 309 580 Q 306 579 306 578 L 262 562 Q 169 534 100 523 Q 63 514 90 499 Q 135 475 194 494 Q 213 500 239 505 L 304 523 Z"/>
  <path id="z26634d2" d="M 301 435 Q 302 477 304 523 L 306 578 Q 306 674 329 751 Q 344 778 319 795 Q 303 807 274 825 Q 250 843 229 828 Q 225 822 230 807 Q 261 758 262 709 Q 262 642 262 562 L 256 421 Q 252 345 250 261 Q 244 185 223 113 Q 211 71 236 11 Q 242 -7 250 -11 Q 256 -18 264 -9 Q 291 9 293 72 Q 292 112 300 403 L 301 435 Z"/>
  <path id="z26634d3" d="M 239 505 Q 191 375 45 169 Q 41 159 52 159 Q 58 158 67 167 Q 179 267 256 421 C 313 533 250 533 239 505 Z"/>
  <path id="z26634d4" d="M 300 403 Q 381 327 395 325 Q 404 325 409 337 Q 413 350 407 375 Q 401 405 311 433 Q 307 434 301 435 C 271 440 278 424 300 403 Z"/>
  <path id="z26634d5" d="M 579 515 Q 633 530 790 556 Q 800 555 810 568 Q 810 581 786 591 Q 750 612 671 584 Q 664 583 586 561 L 528 550 Q 498 547 427 534 Q 397 530 421 512 Q 455 490 497 497 Q 507 500 521 502 L 579 515 Z"/>
  <path id="z26634d6" d="M 521 502 Q 502 313 339 68 Q 335 61 332 55 Q 329 43 340 46 Q 370 50 454 170 Q 475 204 496 245 Q 551 365 579 515 L 586 561 Q 590 588 593 614 Q 600 693 610 729 Q 620 744 612 758 Q 596 777 562 791 Q 543 803 529 798 Q 516 791 523 776 Q 545 745 541 682 Q 541 670 528 550 L 521 502 Z"/>
  <path id="z26634d7" d="M 597 144 Q 600 93 632 67 Q 678 31 845 32 Q 921 33 951 49 Q 982 65 970 98 Q 951 147 940 232 Q 937 248 930 254 Q 921 260 917 238 Q 901 133 886 115 Q 865 90 759 85 Q 702 86 679 95 Q 657 105 653 120 Q 646 142 643 182 L 642 237 Q 642 238 643 240 Q 650 334 669 379 Q 682 410 663 428 Q 611 468 595 465 Q 579 459 586 441 Q 607 401 600 344 Q 596 244 596 186 L 597 144 Z"/>
  <path id="z26634d8" d="M 596 186 Q 539 134 532 122 Q 528 112 541 113 Q 553 113 597 144 L 643 182 Q 649 189 657 195 Q 703 237 759 303 Q 781 334 801 348 Q 811 357 808 369 Q 807 381 783 405 Q 761 424 744 426 Q 728 426 732 406 Q 745 361 650 246 Q 646 242 642 237 L 596 186 Z"/>
  <path id="z26634d9" d="M 730 706 Q 755 684 783 655 Q 796 642 813 643 Q 823 643 829 657 Q 833 672 825 701 Q 819 720 789 735 Q 716 760 704 755 Q 700 751 700 738 Q 704 728 730 706 Z"/>
<defs>
  <clipPath id="z26634c1"><use href="#z26634d1"/></clipPath>
  <clipPath id="z26634c2"><use href="#z26634d2"/></clipPath>
  <clipPath id="z26634c3"><use href="#z26634d3"/></clipPath>
  <clipPath id="z26634c4"><use href="#z26634d4"/></clipPath>
  <clipPath id="z26634c5"><use href="#z26634d5"/></clipPath>
  <clipPath id="z26634c6"><use href="#z26634d6"/></clipPath>
  <clipPath id="z26634c7"><use href="#z26634d7"/></clipPath>
  <clipPath id="z26634c8"><use href="#z26634d8"/></clipPath>
  <clipPath id="z26634c9"><use href="#z26634d9"/></clipPath>
</defs>
<path style="--d:1s;" pathLength="3333" clip-path="url(#z26634c1)" d="M 92 512 L 115 507 L 165 511 L 338 562 L 397 566"/>
<path style="--d:2s;" pathLength="3333" clip-path="url(#z26634c2)" d="M 241 821 L 292 766 L 274 268 L 256 91 L 255 2"/>
<path style="--d:3s;" pathLength="3333" clip-path="url(#z26634c3)" d="M 256 503 L 247 496 L 233 429 L 192 352 L 114 237 L 54 168"/>
<path style="--d:4s;" pathLength="3333" clip-path="url(#z26634c4)" d="M 305 430 L 322 407 L 380 369 L 396 335"/>
<path style="--d:5s;" pathLength="3333" clip-path="url(#z26634c5)" d="M 422 524 L 486 519 L 746 575 L 799 569"/>
<path style="--d:6s;" pathLength="3333" clip-path="url(#z26634c6)" d="M 535 785 L 575 742 L 564 611 L 536 432 L 503 326 L 471 249 L 417 151 L 341 55"/>
<path style="--d:7s;" pathLength="3333" clip-path="url(#z26634c7)" d="M 598 451 L 634 409 L 637 397 L 621 279 L 619 180 L 628 115 L 649 84 L 705 64 L 790 59 L 873 67 L 914 82 L 924 88 L 926 103 L 927 246"/>
<path style="--d:8s;" pathLength="3333" clip-path="url(#z26634c8)" d="M 743 413 L 760 390 L 767 368 L 733 314 L 685 253 L 604 170 L 539 120"/>
<path style="--d:9s;" pathLength="3333" clip-path="url(#z26634c9)" d="M 708 749 L 780 704 L 811 661"/>
</svg>