<svg id="z20250" class="acjk" viewBox="0 0 1024 1024" xmlns="http://www.w3.org/2000/svg">
  <path id="z20250d1" d="M 509 712 Q 518 730 537 749 Q 546 755 544 766 Q 543 778 528 791 Q 492 824 455 819 Q 445 816 448 803 Q 466 701 295 502 Q 285 490 274 479 Q 222 422 90 313 Q 80 307 92 304 Q 128 308 232 381 Q 235 384 239 386 Q 356 474 496 691 L 509 712 Z"/>
  <path id="z20250d2" d="M 496 691 Q 499 688 503 683 Q 618 538 747 407 Q 771 379 814 376 Q 892 369 973 380 Q 995 381 996 386 Q 999 393 983 401 Q 925 428 856 455 Q 703 521 530 693 Q 517 706 509 712 C 486 732 477 714 496 691 Z"/>
  <path id="z20250d3" d="M 362 428 Q 323 421 351 403 Q 394 376 457 393 Q 526 406 597 421 Q 630 428 635 433 Q 645 442 640 451 Q 631 464 600 471 Q 570 477 490 451 Q 426 435 362 428 Z"/>
  <path id="z20250d4" d="M 485 275 Q 575 287 769 288 Q 791 288 796 297 Q 802 310 784 325 Q 727 367 687 356 Q 569 331 209 280 Q 187 277 204 259 Q 219 244 238 239 Q 260 233 278 238 Q 347 257 425 267 L 485 275 Z"/>
  <path id="z20250d5" d="M 652 126 Q 520 105 383 82 Q 373 79 370 83 Q 369 86 375 93 Q 469 205 504 234 Q 520 249 511 259 Q 504 268 485 275 C 458 288 428 297 425 267 Q 425 201 346 119 Q 321 94 276 72 Q 245 60 245 49 Q 244 30 253 8 Q 263 -14 278 -21 Q 285 -25 298 -19 Q 394 38 638 99 Q 653 103 668 105 C 698 110 682 131 652 126 Z"/>
  <path id="z20250d6" d="M 668 105 Q 695 69 725 24 Q 738 2 752 -4 Q 761 -7 769 2 Q 782 14 777 58 Q 773 116 618 206 Q 611 213 606 201 Q 605 188 613 176 Q 632 154 652 126 L 668 105 Z"/>
<defs>
  <clipPath id="z20250c1"><use href="#z20250d1"/></clipPath>
  <clipPath id="z20250c2"><use href="#z20250d2"/></clipPath>
  <clipPath id="z20250c3"><use href="#z20250d3"/></clipPath>
  <clipPath id="z20250c4"><use href="#z20250d4"/></clipPath>
  <clipPath id="z20250c5"><use href="#z20250d5"/></clipPath>
  <clipPath id="z20250c6"><use href="#z20250d6"/></clipPath>
</defs>
<path style="--d:1s;" pathLength="3333" clip-path="url(#z20250c1)" d="M 458 808 L 481 786 L 492 764 L 455 682 L 395 587 L 314 487 L 249 421 L 160 350 L 95 309"/>
<path style="--d:2s;" pathLength="3333" clip-path="url(#z20250c2)" d="M 510 704 L 518 685 L 646 553 L 785 436 L 825 419 L 990 388"/>
<path style="--d:3s;" pathLength="3333" clip-path="url(#z20250c3)" d="M 354 417 L 377 410 L 414 410 L 575 445 L 628 445"/>
<path style="--d:4s;" pathLength="3333" clip-path="url(#z20250c4)" d="M 207 269 L 260 261 L 480 298 L 705 323 L 784 304"/>
<path style="--d:5s;" pathLength="3333" clip-path="url(#z20250c5)" d="M 497 250 L 456 237 L 410 164 L 347 89 L 335 52 L 393 55 L 646 114 L 660 107"/>
<path style="--d:6s;" pathLength="3333" clip-path="url(#z20250c6)" d="M 615 195 L 725 86 L 748 46 L 756 11"/>
</svg>