<svg id="z25095" class="acjk" viewBox="0 0 1024 1024" xmlns="http://www.w3.org/2000/svg">
  <path id="z25095d1" d="M 374 776 Q 377 786 373 805 Q 367 824 312 841 Q 300 844 296 842 Q 292 841 293 830 Q 294 823 313 806 Q 326 791 341 774 L 347 768 C 368 747 368 747 374 776 Z"/>
  <path id="z25095d2" d="M 409 746 Q 413 747 418 748 Q 457 755 462 760 Q 469 766 466 772 Q 462 779 441 786 Q 411 792 374 776 L 347 768 Q 200 747 194 745 Q 169 742 186 730 Q 207 715 242 718 L 263 720 Q 318 732 378 741 L 409 746 Z"/>
  <path id="z25095d3" d="M 242 718 Q 242 711 265 661 Q 271 648 280 644 C 292 638 292 638 297 647 Q 303 656 302 672 Q 299 690 263 720 C 240 739 238 741 242 718 Z"/>
  <path id="z25095d4" d="M 385 666 Q 386 669 389 672 Q 426 726 427 726 Q 426 727 426 728 Q 422 737 409 746 C 385 764 384 764 378 741 L 358 660 C 351 631 371 639 385 666 Z"/>
  <path id="z25095d5" d="M 280 644 Q 138 620 107 618 Q 97 617 95 611 Q 92 602 104 594 Q 132 572 165 582 Q 297 624 448 642 Q 460 643 461 649 Q 462 659 448 666 Q 427 678 385 666 L 358 660 Q 322 653 297 647 L 280 644 Z"/>
  <path id="z25095d6" d="M 221 559 Q 212 562 197 563 Q 188 564 186 561 Q 182 557 188 545 Q 213 500 228 430 Q 225 429 232 422 Q 233 418 240 412 Q 253 396 257 408 Q 258 412 258 416 L 258 438 Q 254 456 251 471 L 247 493 Q 240 524 239 536 C 237 555 237 555 221 559 Z"/>
  <path id="z25095d7" d="M 382 437 Q 392 424 402 420 Q 409 414 419 429 Q 426 442 442 512 Q 446 534 463 551 Q 470 560 463 569 Q 453 581 422 597 Q 412 603 359 589 Q 349 589 274 571 Q 244 564 221 559 C 192 553 210 527 239 536 Q 288 552 372 565 Q 390 568 398 562 Q 405 556 404 546 Q 395 471 386 461 C 377 442 377 442 382 437 Z"/>
  <path id="z25095d8" d="M 251 471 Q 306 486 348 494 Q 364 498 357 507 Q 348 517 330 518 Q 306 521 247 493 C 220 480 222 463 251 471 Z"/>
  <path id="z25095d9" d="M 325 427 Q 353 434 382 437 C 412 440 415 453 386 461 Q 382 462 375 464 Q 353 468 258 438 C 229 429 228 411 258 416 Q 277 419 299 422 L 325 427 Z"/>
  <path id="z25095d10" d="M 339 338 Q 384 348 439 355 Q 452 356 453 363 Q 454 375 439 382 Q 417 392 397 388 Q 366 381 340 375 L 301 366 Q 175 342 128 337 Q 116 336 114 329 Q 111 320 124 310 Q 160 289 209 304 Q 261 322 300 329 L 339 338 Z"/>
  <path id="z25095d11" d="M 300 329 Q 297 289 294 278 Q 288 251 310 218 Q 317 205 322 203 Q 329 202 334 210 Q 338 225 339 338 L 340 375 Q 341 414 340 416 Q 333 423 325 427 C 299 442 294 445 299 422 Q 302 416 301 366 L 300 329 Z"/>
  <path id="z25095d12" d="M 617 806 Q 623 813 623 820 Q 622 826 612 833 Q 590 849 567 845 Q 561 844 563 835 Q 572 811 533 736 Q 532 736 531 734 Q 519 715 488 676 Q 484 672 490 671 Q 520 683 559 721 L 568 732 Q 574 739 601 780 L 617 806 Z"/>
  <path id="z25095d13" d="M 603 690 Q 599 687 596 684 Q 559 650 485 603 Q 473 596 484 594 Q 518 590 632 671 L 654 690 Q 682 715 711 746 Q 727 765 754 782 Q 766 789 762 796 Q 761 803 719 825 Q 706 832 691 825 Q 670 816 617 806 C 588 800 571 779 601 780 Q 605 780 611 780 Q 639 784 660 788 Q 672 789 676 784 Q 677 780 668 767 Q 649 737 620 706 L 603 690 Z"/>
  <path id="z25095d14" d="M 632 671 Q 699 629 770 590 Q 791 577 818 583 Q 869 593 919 617 Q 932 621 932 626 Q 932 630 921 632 Q 879 638 831 641 Q 753 650 654 690 L 620 706 Q 584 725 568 732 C 541 745 536 740 559 721 Q 562 717 569 713 Q 585 703 603 690 L 632 671 Z"/>
  <path id="z25095d15" d="M 644 586 Q 657 590 696 594 Q 702 594 706 601 Q 707 608 694 613 Q 672 620 623 608 Q 592 602 542 592 Q 526 591 538 581 Q 556 571 589 575 Q 593 576 601 577 L 644 586 Z"/>
  <path id="z25095d16" d="M 601 577 L 598 526 C 596 496 639 504 641 534 L 644 586 C 646 616 603 607 601 577 Z"/>
  <path id="z25095d17" d="M 598 526 Q 537 516 484 510 Q 468 509 477 495 Q 486 482 534 491 Q 621 509 786 524 Q 795 525 795 532 Q 796 538 772 554 Q 759 561 641 534 L 598 526 Z"/>
  <path id="z25095d18" d="M 529 454 Q 508 464 495 464 Q 488 460 491 453 Q 515 408 496 328 Q 478 298 506 268 Q 510 261 517 264 Q 523 268 527 282 L 532 297 Q 536 312 536 332 L 536 334 L 536 347 Q 536 366 536 381 L 536 399 Q 537 426 538 433 C 540 449 540 449 529 454 Z"/>
  <path id="z25095d19" d="M 696 290 Q 697 287 700 284 Q 712 262 718 263 Q 728 264 741 289 Q 747 301 748 348 Q 742 411 755 436 Q 762 448 757 455 Q 738 473 702 488 Q 692 492 674 485 Q 635 470 529 454 C 499 449 508 431 538 433 L 546 433 Q 613 449 663 455 Q 679 459 685 449 Q 692 442 693 413 Q 699 334 695 317 Q 694 317 694 316 C 691 299 691 299 696 290 Z"/>
  <path id="z25095d20" d="M 536 381 Q 537 381 542 381 Q 602 391 647 396 Q 662 399 656 407 Q 649 417 633 420 Q 614 421 536 399 C 507 391 506 381 536 381 Z"/>
  <path id="z25095d21" d="M 536 334 L 650 341 Q 666 342 660 351 Q 654 361 637 365 Q 613 369 536 347 C 507 339 506 332 536 334 Z"/>
  <path id="z25095d22" d="M 527 282 L 528 282 Q 535 276 553 278 Q 634 287 696 290 C 726 292 723 308 694 316 Q 676 325 539 298 Q 535 298 532 297 C 506 292 506 292 527 282 Z"/>
  <path id="z25095d23" d="M 556 256 Q 534 223 449 191 Q 433 187 451 182 Q 491 170 592 219 Q 601 223 602 230 Q 603 239 589 249 Q 573 262 565 263 Q 561 263 556 256 Z"/>
  <path id="z25095d24" d="M 669 228 Q 693 206 719 181 Q 728 171 739 172 Q 746 172 750 181 Q 753 191 748 211 Q 741 238 667 261 Q 657 264 652 262 Q 648 261 649 251 Q 650 244 669 228 Z"/>
  <path id="z25095d25" d="M 218 173 Q 199 121 170 74 Q 152 38 171 5 Q 181 -14 202 1 Q 250 40 248 115 Q 252 149 243 175 Q 237 184 231 184 Q 222 183 218 173 Z"/>
  <path id="z25095d26" d="M 321 152 Q 345 38 434 -17 Q 539 -80 760 -60 Q 800 -51 834 -37 Q 861 -24 862 -7 Q 865 5 820 27 Q 748 73 694 123 Q 679 136 677 128 Q 674 124 720 50 Q 739 16 734 6 Q 728 -3 699 -4 Q 504 -19 419 51 Q 379 82 360 138 Q 353 160 342 164 Q 329 170 322 166 Q 318 165 321 152 Z"/>
  <path id="z25095d27" d="M 485 131 Q 518 89 549 75 Q 562 72 571 85 Q 577 97 575 112 Q 569 134 552 146 Q 498 179 473 167 Q 467 166 470 155 Q 471 145 485 131 Z"/>
  <path id="z25095d28" d="M 786 221 Q 825 193 872 148 Q 888 132 903 129 Q 910 129 917 139 Q 927 152 911 190 Q 899 226 840 239 Q 804 246 784 249 Q 775 253 775 242 Q 776 229 786 221 Z"/>
<defs>
  <clipPath id="z25095c1"><use href="#z25095d1"/></clipPath>
  <clipPath id="z25095c2"><use href="#z25095d2"/></clipPath>
  <clipPath id="z25095c3"><use href="#z25095d3"/></clipPath>
  <clipPath id="z25095c4"><use href="#z25095d4"/></clipPath>
  <clipPath id="z25095c5"><use href="#z25095d5"/></clipPath>
  <clipPath id="z25095c6"><use href="#z25095d6"/></clipPath>
  <clipPath id="z25095c7"><use href="#z25095d7"/></clipPath>
  <clipPath id="z25095c8"><use href="#z25095d8"/></clipPath>
  <clipPath id="z25095c9"><use href="#z25095d9"/></clipPath>
  <clipPath id="z25095c10"><use href="#z25095d10"/></clipPath>
  <clipPath id="z25095c11"><use href="#z25095d11"/></clipPath>
  <clipPath id="z25095c12"><use href="#z25095d12"/></clipPath>
  <clipPath id="z25095c13"><use href="#z25095d13"/></clipPath>
  <clipPath id="z25095c14"><use href="#z25095d14"/></clipPath>
  <clipPath id="z25095c15"><use href="#z25095d15"/></clipPath>
  <clipPath id="z25095c16"><use href="#z25095d16"/></clipPath>
  <clipPath id="z25095c17"><use href="#z25095d17"/></clipPath>
  <clipPath id="z25095c18"><use href="#z25095d18"/></clipPath>
  <clipPath id="z25095c19"><use href="#z25095d19"/></clipPath>
  <clipPath id="z25095c20"><use href="#z25095d20"/></clipPath>
  <clipPath id="z25095c21"><use href="#z25095d21"/></clipPath>
  <clipPath id="z25095c22"><use href="#z25095d22"/></clipPath>
  <clipPath id="z25095c23"><use href="#z25095d23"/></clipPath>
  <clipPath id="z25095c24"><use href="#z25095d24"/></clipPath>
  <clipPath id="z25095c25"><use href="#z25095d25"/></clipPath>
  <clipPath id="z25095c26"><use href="#z25095d26"/></clipPath>
  <clipPath id="z25095c27"><use href="#z25095d27"/></clipPath>
  <clipPath id="z25095c28"><use href="#z25095d28"/></clipPath>
</defs>
<path style="--d:1s;" pathLength="3333" clip-path="url(#z25095c1)" d="M 300 835 L 365 783"/>
<path style="--d:2s;" pathLength="3333" clip-path="url(#z25095c2)" d="M 188 738 L 208 733 L 256 737 L 409 766 L 456 769"/>
<path style="--d:3s;" pathLength="3333" clip-path="url(#z25095c3)" d="M 247 716 L 263 704 L 291 656"/>
<path style="--d:4s;" pathLength="3333" clip-path="url(#z25095c4)" d="M 425 726 L 403 727 L 396 721 L 383 690 L 364 666"/>
<path style="--d:5s;" pathLength="3333" clip-path="url(#z25095c5)" d="M 105 607 L 153 601 L 398 654 L 451 651"/>
<path style="--d:6s;" pathLength="3333" clip-path="url(#z25095c6)" d="M 193 556 L 220 528 L 249 412"/>
<path style="--d:7s;" pathLength="3333" clip-path="url(#z25095c7)" d="M 228 555 L 243 551 L 373 581 L 413 577 L 432 558 L 403 443 L 407 431"/>
<path style="--d:8s;" pathLength="3333" clip-path="url(#z25095c8)" d="M 257 478 L 261 488 L 279 494 L 347 504"/>
<path style="--d:9s;" pathLength="3333" clip-path="url(#z25095c9)" d="M 264 422 L 271 433 L 379 456"/>
<path style="--d:10s;" pathLength="3333" clip-path="url(#z25095c10)" d="M 124 325 L 182 321 L 393 368 L 443 366"/>
<path style="--d:11s;" pathLength="3333" clip-path="url(#z25095c11)" d="M 306 421 L 321 404 L 315 260 L 325 212"/>
<path style="--d:12s;" pathLength="3333" clip-path="url(#z25095c12)" d="M 575 836 L 591 813 L 578 782 L 544 725 L 503 683 L 494 683 L 494 676"/>
<path style="--d:13s;" pathLength="3333" clip-path="url(#z25095c13)" d="M 606 786 L 648 801 L 683 802 L 709 792 L 689 755 L 614 675 L 522 613 L 487 598"/>
<path style="--d:14s;" pathLength="3333" clip-path="url(#z25095c14)" d="M 568 722 L 684 659 L 794 614 L 924 624"/>
<path style="--d:15s;" pathLength="3333" clip-path="url(#z25095c15)" d="M 545 585 L 606 590 L 651 602 L 698 602"/>
<path style="--d:16s;" pathLength="3333" clip-path="url(#z25095c16)" d="M 638 580 L 604 532"/>
<path style="--d:17s;" pathLength="3333" clip-path="url(#z25095c17)" d="M 482 502 L 520 501 L 748 538 L 786 533"/>
<path style="--d:18s;" pathLength="3333" clip-path="url(#z25095c18)" d="M 499 456 L 515 440 L 520 421 L 520 365 L 511 305 L 514 272"/>
<path style="--d:19s;" pathLength="3333" clip-path="url(#z25095c19)" d="M 540 452 L 552 444 L 561 450 L 686 471 L 700 466 L 719 447 L 723 337 L 718 272"/>
<path style="--d:20s;" pathLength="3333" clip-path="url(#z25095c20)" d="M 539 386 L 601 404 L 646 406"/>
<path style="--d:21s;" pathLength="3333" clip-path="url(#z25095c21)" d="M 543 341 L 548 346 L 625 353 L 651 350"/>
<path style="--d:22s;" pathLength="3333" clip-path="url(#z25095c22)" d="M 536 288 L 667 304 L 680 304 L 689 296"/>
<path style="--d:23s;" pathLength="3333" clip-path="url(#z25095c23)" d="M 590 231 L 570 234 L 510 201 L 457 188"/>
<path style="--d:24s;" pathLength="3333" clip-path="url(#z25095c24)" d="M 659 254 L 723 209 L 736 187"/>
<path style="--d:25s;" pathLength="3333" clip-path="url(#z25095c25)" d="M 231 172 L 220 106 L 188 12"/>
<path style="--d:26s;" pathLength="3333" clip-path="url(#z25095c26)" d="M 328 159 L 342 140 L 369 76 L 396 42 L 428 15 L 493 -16 L 602 -35 L 730 -31 L 759 -22 L 781 -5 L 767 24 L 681 127"/>
<path style="--d:27s;" pathLength="3333" clip-path="url(#z25095c27)" d="M 480 159 L 537 119 L 553 94"/>
<path style="--d:28s;" pathLength="3333" clip-path="url(#z25095c28)" d="M 785 238 L 872 192 L 902 143"/>
</svg>