<svg id="z27852" class="acjk" viewBox="0 0 1024 1024" xmlns="http://www.w3.org/2000/svg">
  <path id="z27852d1" d="M 248 718 Q 276 690 305 655 Q 318 640 335 640 Q 345 639 353 653 Q 359 668 352 700 Q 348 722 316 741 Q 238 777 224 771 Q 218 767 219 754 Q 222 742 248 718 Z"/>
  <path id="z27852d2" d="M 139 516 Q 187 462 222 446 Q 238 443 247 457 Q 253 470 250 487 Q 235 532 152 555 Q 136 559 125 556 Q 119 555 122 542 Q 123 530 139 516 Z"/>
  <path id="z27852d3" d="M 132 150 Q 120 146 124 129 Q 145 57 179 43 Q 186 37 196 41 Q 203 42 202 67 Q 202 116 272 353 Q 276 369 275 375 Q 274 384 266 377 Q 254 370 165 191 Q 155 172 132 150 Z"/>
  <path id="z27852d4" d="M 353 397 Q 334 331 304 271 Q 286 241 308 207 Q 317 191 336 205 Q 355 223 366 254 Q 384 303 383 344 Q 384 375 375 399 Q 369 406 364 407 Q 357 406 353 397 Z"/>
  <path id="z27852d5" d="M 547 156 Q 742 32 887 105 Q 903 109 902 120 Q 899 133 882 151 Q 855 179 785 272 Q 779 281 773 282 Q 770 281 771 273 Q 777 231 782 184 Q 783 165 771 156 Q 747 143 642 175 Q 608 187 583 200 L 542 235 Q 511 274 493 357 Q 489 384 468 396 Q 452 406 445 399 Q 444 399 470 299 Q 485 233 512 194 L 547 156 Z"/>
  <path id="z27852d6" d="M 481 583 Q 523 516 550 500 Q 563 494 575 505 Q 582 517 584 533 Q 578 584 500 617 L 499 618 Q 484 625 474 623 Q 468 623 469 611 Q 468 599 481 583 Z"/>
  <path id="z27852d7" d="M 512 194 Q 448 125 328 60 Q 315 54 310 50 Q 306 44 322 41 Q 335 40 391 58 Q 431 71 493 112 Q 521 131 547 156 L 583 200 Q 673 327 710 538 Q 729 643 753 689 Q 760 701 752 710 Q 734 731 698 751 Q 676 764 658 761 Q 636 755 650 734 Q 675 700 672 666 Q 653 503 617 398 Q 580 272 542 235 L 512 194 Z"/>
  <path id="z27852d8" d="M 763 470 Q 823 424 895 355 Q 913 336 929 333 Q 938 332 945 343 Q 957 356 940 401 Q 921 459 762 501 Q 752 505 751 493 Q 752 480 763 470 Z"/>
<defs>
  <clipPath id="z27852c1"><use href="#z27852d1"/></clipPath>
  <clipPath id="z27852c2"><use href="#z27852d2"/></clipPath>
  <clipPath id="z27852c3"><use href="#z27852d3"/></clipPath>
  <clipPath id="z27852c4"><use href="#z27852d4"/></clipPath>
  <clipPath id="z27852c5"><use href="#z27852d5"/></clipPath>
  <clipPath id="z27852c6"><use href="#z27852d6"/></clipPath>
  <clipPath id="z27852c7"><use href="#z27852d7"/></clipPath>
  <clipPath id="z27852c8"><use href="#z27852d8"/></clipPath>
</defs>
<path style="--d:1s;" pathLength="3333" clip-path="url(#z27852c1)" d="M 228 764 L 307 706 L 334 660"/>
<path style="--d:2s;" pathLength="3333" clip-path="url(#z27852c2)" d="M 132 547 L 211 491 L 227 468"/>
<path style="--d:3s;" pathLength="3333" clip-path="url(#z27852c3)" d="M 190 51 L 176 77 L 168 127 L 269 371"/>
<path style="--d:4s;" pathLength="3333" clip-path="url(#z27852c4)" d="M 364 396 L 354 313 L 326 242 L 323 215"/>
<path style="--d:5s;" pathLength="3333" clip-path="url(#z27852c5)" d="M 450 399 L 470 371 L 499 267 L 523 221 L 570 174 L 654 136 L 755 115 L 793 120 L 823 137 L 815 182 L 778 276"/>
<path style="--d:6s;" pathLength="3333" clip-path="url(#z27852c6)" d="M 479 614 L 541 553 L 559 519"/>
<path style="--d:7s;" pathLength="3333" clip-path="url(#z27852c7)" d="M 659 746 L 690 723 L 710 689 L 667 465 L 639 372 L 600 277 L 532 177 L 495 143 L 400 80 L 317 47"/>
<path style="--d:8s;" pathLength="3333" clip-path="url(#z27852c8)" d="M 762 490 L 880 418 L 914 381 L 929 350"/>
</svg>