<svg id="z26257" class="acjk" viewBox="0 0 1024 1024" xmlns="http://www.w3.org/2000/svg">
  <path id="z26257d1" d="M 370 779 Q 358 783 332 789 Q 320 792 317 787 Q 310 780 319 765 Q 347 705 364 608 Q 367 580 384 560 Q 402 538 407 553 Q 410 560 410 572 L 410 599 Q 407 623 400 662 L 396 687 Q 389 730 387 748 C 384 775 384 775 370 779 Z"/>
  <path id="z26257d2" d="M 587 590 Q 602 566 617 558 Q 626 551 641 570 Q 654 589 684 703 Q 693 731 715 754 Q 728 764 717 779 Q 704 795 664 820 Q 652 826 570 812 Q 567 812 453 793 Q 408 786 370 779 C 340 774 358 741 387 748 Q 606 802 628 776 Q 638 763 636 750 Q 612 633 597 616 C 585 593 585 593 587 590 Z"/>
  <path id="z26257d3" d="M 400 662 Q 406 661 414 662 Q 507 677 575 685 Q 597 689 589 701 Q 579 714 555 719 Q 533 723 396 687 C 367 679 370 664 400 662 Z"/>
  <path id="z26257d4" d="M 505 582 Q 548 588 587 590 C 617 592 622 599 597 616 Q 590 622 578 624 Q 557 628 410 599 C 381 593 380 572 410 572 Q 413 572 417 572 Q 445 576 474 578 L 505 582 Z"/>
  <path id="z26257d5" d="M 533 465 Q 623 480 630 486 Q 637 493 634 501 Q 628 511 602 520 Q 568 529 538 514 L 485 500 Q 395 485 346 481 Q 312 477 335 461 Q 374 436 424 448 Q 454 452 485 457 L 533 465 Z"/>
  <path id="z26257d6" d="M 526 381 Q 529 427 533 465 L 538 514 Q 542 548 539 554 Q 521 573 505 582 C 479 598 469 604 474 578 Q 483 527 485 500 L 485 457 Q 485 424 485 376 C 485 346 524 351 526 381 Z"/>
  <path id="z26257d7" d="M 565 344 Q 751 369 899 356 Q 921 353 927 362 Q 934 375 922 386 Q 858 444 795 424 Q 737 412 678 401 Q 650 398 624 394 L 547 383 Q 535 383 526 381 L 485 376 Q 382 366 327 356 Q 261 344 162 342 Q 149 342 147 331 Q 147 319 165 306 Q 181 294 211 283 Q 221 279 239 287 Q 255 293 325 306 Q 401 325 496 337 L 565 344 Z"/>
  <path id="z26257d8" d="M 489 279 Q 529 315 565 344 L 624 394 Q 705 467 730 492 Q 761 523 788 533 Q 804 537 804 547 Q 804 554 793 562 Q 763 584 736 591 Q 720 595 712 579 Q 690 519 547 383 L 496 337 Q 460 307 420 273 L 389 248 Q 379 241 369 231 Q 269 152 127 68 Q 120 65 121 61 Q 122 58 130 59 Q 203 75 242 100 Q 318 146 398 205 L 489 279 Z"/>
  <path id="z26257d9" d="M 420 273 Q 402 280 389 280 Q 376 276 382 265 Q 386 258 389 248 L 398 205 Q 397 205 398 204 Q 404 117 383 68 Q 368 35 398 -6 L 400 -8 Q 407 -21 416 -15 Q 425 -9 439 32 L 443 58 Q 444 71 445 85 Q 445 110 446 132 L 446 160 Q 446 217 450 237 L 420 273 Z"/>
  <path id="z26257d10" d="M 561 34 Q 592 -5 613 -40 Q 622 -58 633 -57 Q 648 -56 663 -24 Q 679 13 676 57 Q 670 106 662 198 Q 661 226 677 248 Q 686 260 677 269 Q 659 288 610 310 Q 592 319 578 310 Q 547 294 496 281 Q 492 280 489 279 C 412 258 420 232 450 237 Q 456 237 574 261 Q 589 264 597 258 Q 607 249 609 68 Q 608 64 608 59 Q 604 40 586 49 C 556 51 547 52 561 34 Z"/>
  <path id="z26257d11" d="M 446 132 Q 447 132 451 132 Q 518 142 567 147 Q 589 151 581 164 Q 571 179 545 183 Q 508 187 446 160 C 418 148 416 132 446 132 Z"/>
  <path id="z26257d12" d="M 439 32 Q 442 32 447 32 Q 511 35 561 34 C 591 33 602 33 586 49 Q 568 67 552 70 Q 521 79 443 58 C 414 50 409 32 439 32 Z"/>
<defs>
  <clipPath id="z26257c1"><use href="#z26257d1"/></clipPath>
  <clipPath id="z26257c2"><use href="#z26257d2"/></clipPath>
  <clipPath id="z26257c3"><use href="#z26257d3"/></clipPath>
  <clipPath id="z26257c4"><use href="#z26257d4"/></clipPath>
  <clipPath id="z26257c5"><use href="#z26257d5"/></clipPath>
  <clipPath id="z26257c6"><use href="#z26257d6"/></clipPath>
  <clipPath id="z26257c7"><use href="#z26257d7"/></clipPath>
  <clipPath id="z26257c8"><use href="#z26257d8"/></clipPath>
  <clipPath id="z26257c9"><use href="#z26257d9"/></clipPath>
  <clipPath id="z26257c10"><use href="#z26257d10"/></clipPath>
  <clipPath id="z26257c11"><use href="#z26257d11"/></clipPath>
  <clipPath id="z26257c12"><use href="#z26257d12"/></clipPath>
</defs>
<path style="--d:1s;" pathLength="3333" clip-path="url(#z26257c1)" d="M 326 779 L 352 756 L 360 739 L 396 559"/>
<path style="--d:2s;" pathLength="3333" clip-path="url(#z26257c2)" d="M 377 776 L 399 765 L 585 802 L 631 800 L 652 793 L 674 766 L 622 599 L 623 576"/>
<path style="--d:3s;" pathLength="3333" clip-path="url(#z26257c3)" d="M 407 670 L 414 678 L 521 698 L 558 701 L 579 695"/>
<path style="--d:4s;" pathLength="3333" clip-path="url(#z26257c4)" d="M 414 579 L 426 590 L 589 612"/>
<path style="--d:5s;" pathLength="3333" clip-path="url(#z26257c5)" d="M 338 472 L 361 465 L 399 465 L 571 498 L 623 496"/>
<path style="--d:6s;" pathLength="3333" clip-path="url(#z26257c6)" d="M 483 570 L 499 560 L 512 526 L 507 405 L 491 384"/>
<path style="--d:7s;" pathLength="3333" clip-path="url(#z26257c7)" d="M 160 329 L 220 313 L 457 354 L 810 394 L 860 391 L 915 371"/>
<path style="--d:8s;" pathLength="3333" clip-path="url(#z26257c8)" d="M 793 547 L 739 548 L 617 418 L 381 215 L 219 105 L 126 63"/>
<path style="--d:9s;" pathLength="3333" clip-path="url(#z26257c9)" d="M 389 271 L 410 254 L 422 224 L 424 171 L 410 52 L 410 -6"/>
<path style="--d:10s;" pathLength="3333" clip-path="url(#z26257c10)" d="M 451 243 L 497 263 L 596 287 L 623 272 L 637 253 L 633 199 L 642 71 L 639 37 L 629 14 L 571 31"/>
<path style="--d:11s;" pathLength="3333" clip-path="url(#z26257c11)" d="M 449 139 L 462 150 L 518 162 L 571 158"/>
<path style="--d:12s;" pathLength="3333" clip-path="url(#z26257c12)" d="M 443 38 L 457 48 L 495 53 L 577 50"/>
</svg>