<svg id="z28126" class="acjk" viewBox="0 0 1024 1024" xmlns="http://www.w3.org/2000/svg">
  <path id="z28126d1" d="M 190 667 Q 215 643 241 616 Q 256 600 274 601 Q 287 602 292 617 Q 298 633 288 668 Q 282 687 251 702 Q 173 732 160 723 Q 154 719 156 704 Q 160 691 190 667 Z"/>
  <path id="z28126d2" d="M 105 479 Q 147 424 174 412 Q 189 408 199 421 Q 206 434 204 451 Q 200 476 182 490 Q 161 505 120 517 Q 104 524 94 520 Q 87 519 89 506 Q 90 494 105 479 Z"/>
  <path id="z28126d3" d="M 104 178 Q 92 174 95 158 Q 117 83 147 70 Q 154 64 164 67 Q 171 68 171 93 Q 174 132 193 189 Q 254 393 255 394 Q 254 404 245 397 Q 235 391 138 218 Q 128 199 104 178 Z"/>
  <path id="z28126d4" d="M 439 490 Q 461 497 488 504 Q 519 514 525 518 Q 532 525 528 533 Q 521 543 493 548 Q 465 552 440 539 L 403 525 Q 313 498 270 491 Q 237 484 262 469 Q 304 448 351 466 Q 363 470 379 473 L 439 490 Z"/>
  <path id="z28126d5" d="M 435 355 Q 436 418 439 490 L 440 539 Q 449 707 464 752 Q 471 767 470 779 Q 463 789 411 822 Q 389 838 370 823 Q 366 819 371 804 Q 404 756 404 654 Q 404 591 403 525 L 397 396 Q 393 323 393 241 Q 387 162 365 89 Q 355 53 378 -7 Q 384 -23 391 -27 Q 397 -33 404 -26 Q 431 -10 431 51 Q 430 88 435 325 L 435 355 Z"/>
  <path id="z28126d6" d="M 379 473 Q 340 350 213 160 Q 209 150 220 150 Q 241 150 330 273 Q 367 325 397 396 C 443 503 389 503 379 473 Z"/>
  <path id="z28126d7" d="M 435 325 Q 475 270 499 266 Q 511 265 517 280 Q 518 292 511 310 Q 504 325 482 334 Q 449 352 435 355 C 408 362 417 349 435 325 Z"/>
  <path id="z28126d8" d="M 576 576 Q 594 513 488 370 Q 481 366 490 364 Q 562 389 643 534 Q 647 541 650 545 Q 656 549 653 559 Q 650 566 638 576 Q 608 598 580 589 Q 573 586 576 576 Z"/>
  <path id="z28126d9" d="M 637 707 Q 665 685 680 654 Q 756 516 820 420 Q 832 401 855 398 Q 937 391 970 392 Q 983 392 990 398 Q 994 404 986 408 Q 869 472 833 512 Q 773 573 693 704 Q 686 720 671 723 Q 643 729 632 720 Q 628 714 637 707 Z"/>
  <path id="z28126d10" d="M 768 226 Q 689 216 606 194 Q 599 191 595 194 Q 594 197 597 207 Q 678 343 696 368 Q 706 378 700 390 Q 693 402 643 419 Q 627 425 617 420 Q 605 413 613 393 Q 638 327 546 207 Q 530 191 509 173 Q 496 160 501 150 Q 508 134 534 116 Q 546 106 558 118 Q 585 145 758 196 Q 771 200 781 205 C 809 217 798 230 768 226 Z"/>
  <path id="z28126d11" d="M 781 205 Q 803 168 828 126 Q 835 110 850 106 Q 860 103 869 113 Q 878 126 879 155 Q 882 186 848 223 Q 811 256 768 287 Q 755 294 749 295 Q 743 294 740 281 Q 740 269 758 242 Q 762 235 768 226 L 781 205 Z"/>
<defs>
  <clipPath id="z28126c1"><use href="#z28126d1"/></clipPath>
  <clipPath id="z28126c2"><use href="#z28126d2"/></clipPath>
  <clipPath id="z28126c3"><use href="#z28126d3"/></clipPath>
  <clipPath id="z28126c4"><use href="#z28126d4"/></clipPath>
  <clipPath id="z28126c5"><use href="#z28126d5"/></clipPath>
  <clipPath id="z28126c6"><use href="#z28126d6"/></clipPath>
  <clipPath id="z28126c7"><use href="#z28126d7"/></clipPath>
  <clipPath id="z28126c8"><use href="#z28126d8"/></clipPath>
  <clipPath id="z28126c9"><use href="#z28126d9"/></clipPath>
  <clipPath id="z28126c10"><use href="#z28126d10"/></clipPath>
  <clipPath id="z28126c11"><use href="#z28126d11"/></clipPath>
</defs>
<path style="--d:1s;" pathLength="3333" clip-path="url(#z28126c1)" d="M 166 715 L 248 661 L 272 621"/>
<path style="--d:2s;" pathLength="3333" clip-path="url(#z28126c2)" d="M 101 510 L 164 462 L 180 433"/>
<path style="--d:3s;" pathLength="3333" clip-path="url(#z28126c3)" d="M 159 77 L 144 113 L 140 155 L 250 395"/>
<path style="--d:4s;" pathLength="3333" clip-path="url(#z28126c4)" d="M 263 481 L 324 480 L 462 522 L 517 527"/>
<path style="--d:5s;" pathLength="3333" clip-path="url(#z28126c5)" d="M 381 816 L 407 795 L 429 765 L 415 241 L 396 70 L 397 -15"/>
<path style="--d:6s;" pathLength="3333" clip-path="url(#z28126c6)" d="M 397 472 L 388 464 L 368 382 L 309 272 L 220 158"/>
<path style="--d:7s;" pathLength="3333" clip-path="url(#z28126c7)" d="M 437 348 L 500 283"/>
<path style="--d:8s;" pathLength="3333" clip-path="url(#z28126c8)" d="M 589 579 L 613 551 L 595 502 L 552 431 L 510 383 L 496 379 L 494 369"/>
<path style="--d:9s;" pathLength="3333" clip-path="url(#z28126c9)" d="M 640 716 L 670 703 L 684 686 L 761 558 L 856 439 L 983 401"/>
<path style="--d:10s;" pathLength="3333" clip-path="url(#z28126c10)" d="M 626 407 L 655 372 L 622 287 L 571 202 L 564 169 L 592 167 L 734 206 L 773 208"/>
<path style="--d:11s;" pathLength="3333" clip-path="url(#z28126c11)" d="M 751 287 L 836 183 L 854 123"/>
</svg>