<svg id="z27459" class="acjk" viewBox="0 0 1024 1024" xmlns="http://www.w3.org/2000/svg">
  <path id="z27459d1" d="M 318 652 Q 448 706 466 710 Q 484 711 487 719 Q 491 729 478 741 Q 418 780 384 777 Q 377 773 376 762 Q 377 722 165 616 Q 159 607 166 604 Q 184 604 279 638 Q 279 639 281 639 L 318 652 Z"/>
  <path id="z27459d2" d="M 344 516 Q 357 519 502 542 Q 512 541 521 554 Q 522 566 499 575 Q 471 596 390 571 Q 368 567 346 560 L 301 549 Q 246 539 124 521 Q 96 517 118 500 Q 152 475 179 482 Q 233 495 301 508 L 344 516 Z"/>
  <path id="z27459d3" d="M 337 156 Q 341 358 344 516 L 346 560 Q 347 585 348 603 Q 355 621 346 630 Q 331 643 318 652 C 294 670 270 667 281 639 Q 299 599 301 559 Q 301 555 301 549 L 301 508 Q 301 414 296 147 C 295 117 336 126 337 156 Z"/>
  <path id="z27459d4" d="M 163 342 Q 257 394 261 395 Q 277 401 270 414 Q 261 427 243 439 Q 227 451 217 449 Q 208 449 210 439 Q 211 420 175 381 Q 163 369 151 356 C 131 334 137 327 163 342 Z"/>
  <path id="z27459d5" d="M 201 133 Q 180 226 179 235 L 174 265 Q 168 302 166 332 Q 166 338 163 342 L 151 356 Q 126 372 99 377 Q 92 378 88 374 Q 81 368 90 359 Q 130 301 148 151 Q 152 93 190 71 L 191 70 Q 207 67 207 95 Q 206 96 206 98 L 201 133 Z"/>
  <path id="z27459d6" d="M 179 235 Q 225 245 262 252 Q 284 258 274 269 Q 262 282 238 283 Q 192 283 174 265 C 152 245 150 229 179 235 Z"/>
  <path id="z27459d7" d="M 418 123 Q 419 119 424 111 Q 443 77 466 102 Q 481 117 492 166 Q 520 323 550 357 Q 563 373 552 390 Q 536 408 507 427 Q 492 434 476 430 Q 431 417 379 413 Q 360 412 363 403 Q 367 393 381 386 Q 393 383 445 388 Q 464 389 470 385 Q 480 378 474 342 Q 470 318 464 294 L 458 264 Q 448 210 438 161 Q 437 160 436 156 C 428 127 412 135 418 123 Z"/>
  <path id="z27459d8" d="M 464 294 Q 455 303 367 282 Q 354 281 369 266 L 458 264 C 488 263 490 280 464 294 Z"/>
  <path id="z27459d9" d="M 436 156 Q 412 180 340 157 Q 337 157 337 156 L 296 147 Q 244 140 201 133 C 171 128 176 95 206 98 Q 210 98 215 99 Q 281 114 418 123 C 448 125 459 137 436 156 Z"/>
  <path id="z27459d10" d="M 601 528 Q 605 538 613 549 Q 644 601 676 679 Q 688 715 701 733 Q 708 746 701 758 Q 694 770 662 786 Q 634 798 615 794 Q 597 790 609 769 Q 624 750 620 730 Q 610 663 585 596 Q 561 532 525 459 Q 518 447 516 441 Q 515 429 528 435 Q 546 442 587 504 L 601 528 Z"/>
  <path id="z27459d11" d="M 587 504 Q 609 483 639 496 Q 742 542 769 534 Q 787 525 783 514 Q 783 511 751 443 Q 744 434 749 429 Q 753 425 763 435 Q 848 499 886 516 Q 895 519 895 526 Q 896 539 868 553 Q 847 566 826 579 Q 799 592 785 586 Q 716 555 601 528 C 572 521 566 520 587 504 Z"/>
  <path id="z27459d12" d="M 658 270 Q 658 273 659 275 Q 672 359 682 376 Q 689 392 675 401 Q 630 434 606 424 Q 593 420 600 405 Q 630 348 596 225 Q 566 128 447 34 Q 435 25 447 23 Q 495 23 564 87 Q 621 141 650 233 L 658 270 Z"/>
  <path id="z27459d13" d="M 650 233 Q 708 139 785 37 Q 801 18 829 19 Q 923 19 954 23 Q 963 24 964 29 Q 965 33 953 41 Q 820 104 759 164 Q 710 212 658 270 C 638 292 634 258 650 233 Z"/>
<defs>
  <clipPath id="z27459c1"><use href="#z27459d1"/></clipPath>
  <clipPath id="z27459c2"><use href="#z27459d2"/></clipPath>
  <clipPath id="z27459c3"><use href="#z27459d3"/></clipPath>
  <clipPath id="z27459c4"><use href="#z27459d4"/></clipPath>
  <clipPath id="z27459c5"><use href="#z27459d5"/></clipPath>
  <clipPath id="z27459c6"><use href="#z27459d6"/></clipPath>
  <clipPath id="z27459c7"><use href="#z27459d7"/></clipPath>
  <clipPath id="z27459c8"><use href="#z27459d8"/></clipPath>
  <clipPath id="z27459c9"><use href="#z27459d9"/></clipPath>
  <clipPath id="z27459c10"><use href="#z27459d10"/></clipPath>
  <clipPath id="z27459c11"><use href="#z27459d11"/></clipPath>
  <clipPath id="z27459c12"><use href="#z27459d12"/></clipPath>
  <clipPath id="z27459c13"><use href="#z27459d13"/></clipPath>
</defs>
<path style="--d:1s;" pathLength="3333" clip-path="url(#z27459c1)" d="M 476 724 L 409 732 L 323 676 L 194 619 L 178 620 L 168 610"/>
<path style="--d:2s;" pathLength="3333" clip-path="url(#z27459c2)" d="M 119 511 L 170 504 L 444 559 L 510 556"/>
<path style="--d:3s;" pathLength="3333" clip-path="url(#z27459c3)" d="M 289 635 L 316 622 L 321 613 L 324 554 L 317 172 L 301 158"/>
<path style="--d:4s;" pathLength="3333" clip-path="url(#z27459c4)" d="M 260 407 L 232 412 L 171 355 L 159 357"/>
<path style="--d:5s;" pathLength="3333" clip-path="url(#z27459c5)" d="M 96 367 L 138 328 L 176 130 L 196 76"/>
<path style="--d:6s;" pathLength="3333" clip-path="url(#z27459c6)" d="M 185 244 L 204 261 L 266 262"/>
<path style="--d:7s;" pathLength="3333" clip-path="url(#z27459c7)" d="M 373 403 L 393 399 L 486 406 L 514 373 L 461 148 L 448 123 L 432 123"/>
<path style="--d:8s;" pathLength="3333" clip-path="url(#z27459c8)" d="M 368 274 L 380 279 L 391 275 L 445 280 L 458 287"/>
<path style="--d:9s;" pathLength="3333" clip-path="url(#z27459c9)" d="M 210 104 L 220 118 L 428 153"/>
<path style="--d:10s;" pathLength="3333" clip-path="url(#z27459c10)" d="M 617 780 L 644 764 L 660 742 L 644 683 L 575 519 L 524 442"/>
<path style="--d:11s;" pathLength="3333" clip-path="url(#z27459c11)" d="M 597 506 L 750 553 L 777 557 L 805 551 L 824 530 L 803 494 L 755 435"/>
<path style="--d:12s;" pathLength="3333" clip-path="url(#z27459c12)" d="M 609 413 L 637 391 L 645 376 L 634 277 L 614 202 L 587 150 L 543 95 L 505 61 L 452 29"/>
<path style="--d:13s;" pathLength="3333" clip-path="url(#z27459c13)" d="M 662 263 L 667 235 L 685 211 L 755 127 L 820 63 L 957 29"/>
</svg>