<svg id="z26690" class="acjk" viewBox="0 0 1024 1024" xmlns="http://www.w3.org/2000/svg">
  <path id="z26690d1" d="M 331 510 Q 445 537 447 539 Q 456 546 451 556 Q 444 568 414 576 Q 374 583 332 563 L 286 549 Q 148 525 126 522 Q 89 516 115 498 Q 154 477 227 490 Q 248 496 273 498 L 331 510 Z"/>
  <path id="z26690d2" d="M 328 409 Q 328 457 331 510 L 332 563 Q 332 659 354 731 Q 367 758 343 775 Q 327 787 298 805 Q 274 823 253 807 Q 249 803 254 787 Q 285 738 286 690 Q 286 624 286 549 L 281 398 Q 268 176 266 168 Q 260 135 250 101 Q 237 59 264 -1 Q 270 -19 278 -23 Q 284 -30 292 -21 Q 299 -17 310 4 Q 320 29 320 60 Q 320 100 327 374 L 328 409 Z"/>
  <path id="z26690d3" d="M 273 498 Q 222 357 66 145 Q 60 135 72 134 Q 94 134 203 270 Q 243 324 281 398 C 347 525 284 526 273 498 Z"/>
  <path id="z26690d4" d="M 327 374 Q 358 352 390 322 Q 400 313 413 314 Q 422 314 425 324 Q 429 336 421 359 Q 417 378 387 392 Q 359 402 328 409 C 299 416 303 391 327 374 Z"/>
  <path id="z26690d5" d="M 667 565 Q 712 575 760 582 Q 797 589 802 595 Q 812 602 807 612 Q 800 624 770 632 Q 742 638 670 615 L 621 603 Q 572 594 514 590 Q 477 584 503 566 Q 548 542 605 554 Q 611 555 622 557 L 667 565 Z"/>
  <path id="z26690d6" d="M 660 443 Q 664 506 667 565 L 670 615 Q 671 702 690 780 Q 693 790 674 805 Q 640 823 616 827 Q 600 830 592 822 Q 585 815 593 800 Q 615 769 616 747 Q 620 678 621 603 L 622 557 Q 622 499 620 436 C 619 406 658 413 660 443 Z"/>
  <path id="z26690d7" d="M 630 401 Q 666 416 877 416 Q 895 417 899 425 Q 903 435 889 447 Q 837 486 784 467 Q 733 458 660 443 L 620 436 Q 542 426 455 412 Q 436 411 450 395 Q 463 383 479 378 Q 498 374 512 378 Q 552 388 596 396 L 630 401 Z"/>
  <path id="z26690d8" d="M 668 232 Q 711 242 756 250 Q 793 257 799 263 Q 808 270 803 280 Q 796 292 766 300 Q 733 306 670 283 L 616 269 Q 565 259 506 254 Q 469 248 495 230 Q 543 206 615 223 L 617 223 L 668 232 Z"/>
  <path id="z26690d9" d="M 663 98 Q 666 171 668 232 L 670 283 Q 671 301 672 317 Q 676 365 671 370 Q 650 391 630 401 C 604 416 587 425 596 396 Q 596 390 608 370 Q 612 358 616 269 L 617 223 Q 617 171 618 92 C 618 62 662 68 663 98 Z"/>
  <path id="z26690d10" d="M 618 92 Q 518 83 405 71 Q 383 70 399 51 Q 414 36 432 30 Q 454 24 471 28 Q 598 61 893 60 Q 909 60 924 58 Q 945 58 950 67 Q 956 79 939 94 Q 887 136 847 127 Q 778 114 663 98 L 618 92 Z"/>
<defs>
  <clipPath id="z26690c1"><use href="#z26690d1"/></clipPath>
  <clipPath id="z26690c2"><use href="#z26690d2"/></clipPath>
  <clipPath id="z26690c3"><use href="#z26690d3"/></clipPath>
  <clipPath id="z26690c4"><use href="#z26690d4"/></clipPath>
  <clipPath id="z26690c5"><use href="#z26690d5"/></clipPath>
  <clipPath id="z26690c6"><use href="#z26690d6"/></clipPath>
  <clipPath id="z26690c7"><use href="#z26690d7"/></clipPath>
  <clipPath id="z26690c8"><use href="#z26690d8"/></clipPath>
  <clipPath id="z26690c9"><use href="#z26690d9"/></clipPath>
  <clipPath id="z26690c10"><use href="#z26690d10"/></clipPath>
</defs>
<path style="--d:1s;" pathLength="3333" clip-path="url(#z26690c1)" d="M 118 511 L 181 508 L 290 525 L 394 552 L 442 548"/>
<path style="--d:2s;" pathLength="3333" clip-path="url(#z26690c2)" d="M 265 800 L 317 745 L 298 221 L 283 79 L 283 -10"/>
<path style="--d:3s;" pathLength="3333" clip-path="url(#z26690c3)" d="M 280 493 L 259 406 L 227 347 L 180 270 L 73 141"/>
<path style="--d:4s;" pathLength="3333" clip-path="url(#z26690c4)" d="M 335 403 L 348 384 L 383 365 L 409 331"/>
<path style="--d:5s;" pathLength="3333" clip-path="url(#z26690c5)" d="M 506 579 L 528 573 L 579 573 L 721 603 L 796 606"/>
<path style="--d:6s;" pathLength="3333" clip-path="url(#z26690c6)" d="M 603 813 L 638 787 L 650 766 L 642 468 L 626 444"/>
<path style="--d:7s;" pathLength="3333" clip-path="url(#z26690c7)" d="M 452 404 L 488 396 L 672 428 L 810 444 L 856 440 L 889 430"/>
<path style="--d:8s;" pathLength="3333" clip-path="url(#z26690c8)" d="M 498 243 L 571 238 L 750 276 L 792 274"/>
<path style="--d:9s;" pathLength="3333" clip-path="url(#z26690c9)" d="M 602 393 L 626 380 L 643 347 L 641 123 L 624 101"/>
<path style="--d:10s;" pathLength="3333" clip-path="url(#z26690c10)" d="M 402 61 L 454 51 L 584 69 L 857 94 L 890 91 L 938 74"/>
</svg>