<svg id="z26132" class="acjk" viewBox="0 0 1024 1024" xmlns="http://www.w3.org/2000/svg">
  <path id="z26132d1" d="M 634 612 Q 758 634 769 642 Q 779 649 774 659 Q 767 672 737 682 Q 700 692 645 672 L 587 657 Q 545 650 503 640 Q 469 636 433 629 L 381 624 Q 338 621 293 619 Q 253 615 280 595 Q 325 565 386 577 L 433 583 Q 505 595 581 604 L 634 612 Z"/>
  <path id="z26132d2" d="M 433 629 Q 434 701 437 719 Q 440 743 424 756 Q 400 775 371 786 Q 355 792 346 785 Q 337 778 344 762 Q 374 705 381 624 L 386 577 Q 389 526 395 448 C 397 418 440 423 438 453 Q 434 526 433 583 L 433 629 Z"/>
  <path id="z26132d3" d="M 606 474 Q 621 546 634 612 L 645 672 Q 645 699 676 778 Q 680 788 663 805 Q 630 829 606 836 Q 590 840 582 834 Q 573 827 580 811 Q 596 778 595 757 Q 592 709 587 657 L 581 604 Q 574 540 562 468 C 557 438 600 445 606 474 Z"/>
  <path id="z26132d4" d="M 395 448 Q 260 435 115 417 Q 90 416 108 395 Q 141 362 187 371 Q 442 438 871 438 Q 896 438 922 437 Q 946 437 951 446 Q 958 459 939 476 Q 879 519 836 512 Q 745 494 606 474 L 562 468 Q 537 467 512 462 Q 475 458 438 453 L 395 448 Z"/>
  <path id="z26132d5" d="M 379 317 Q 358 333 334 340 Q 325 341 319 334 Q 316 328 323 319 Q 353 258 335 102 Q 322 44 325 30 Q 335 -1 345 -13 Q 355 -25 365 -12 Q 375 0 380 24 L 386 61 Q 387 80 388 161 L 388 191 Q 388 258 391 284 C 393 307 393 307 379 317 Z"/>
  <path id="z26132d6" d="M 572 35 Q 602 -5 623 -42 Q 633 -61 644 -61 Q 662 -60 678 -25 Q 697 15 695 64 Q 689 127 683 245 Q 682 276 700 300 Q 710 313 700 324 Q 681 345 627 370 Q 608 380 592 370 Q 520 337 379 317 C 349 313 361 280 391 284 Q 400 284 574 317 Q 599 321 612 313 Q 622 303 623 107 Q 620 82 620 68 Q 616 52 602 55 C 576 40 570 37 572 35 Z"/>
  <path id="z26132d7" d="M 388 161 Q 403 154 536 174 Q 542 175 550 176 Q 574 180 578 184 Q 585 191 582 198 Q 576 208 552 215 Q 534 221 447 200 Q 446 200 388 191 C 358 186 359 167 388 161 Z"/>
  <path id="z26132d8" d="M 380 24 Q 390 23 402 24 Q 457 34 572 35 C 602 35 619 35 602 55 Q 595 64 576 78 Q 560 88 526 82 Q 447 66 386 61 C 356 58 350 26 380 24 Z"/>
<defs>
  <clipPath id="z26132c1"><use href="#z26132d1"/></clipPath>
  <clipPath id="z26132c2"><use href="#z26132d2"/></clipPath>
  <clipPath id="z26132c3"><use href="#z26132d3"/></clipPath>
  <clipPath id="z26132c4"><use href="#z26132d4"/></clipPath>
  <clipPath id="z26132c5"><use href="#z26132d5"/></clipPath>
  <clipPath id="z26132c6"><use href="#z26132d6"/></clipPath>
  <clipPath id="z26132c7"><use href="#z26132d7"/></clipPath>
  <clipPath id="z26132c8"><use href="#z26132d8"/></clipPath>
</defs>
<path style="--d:1s;" pathLength="3333" clip-path="url(#z26132c1)" d="M 284 609 L 331 598 L 407 602 L 597 632 L 692 654 L 763 653"/>
<path style="--d:2s;" pathLength="3333" clip-path="url(#z26132c2)" d="M 356 774 L 397 732 L 400 720 L 415 475 L 401 457"/>
<path style="--d:3s;" pathLength="3333" clip-path="url(#z26132c3)" d="M 592 823 L 634 777 L 590 502 L 569 475"/>
<path style="--d:4s;" pathLength="3333" clip-path="url(#z26132c4)" d="M 111 406 L 166 396 L 492 442 L 852 476 L 939 453"/>
<path style="--d:5s;" pathLength="3333" clip-path="url(#z26132c5)" d="M 328 328 L 336 326 L 357 300 L 364 270 L 365 169 L 353 41 L 355 -8"/>
<path style="--d:6s;" pathLength="3333" clip-path="url(#z26132c6)" d="M 389 315 L 402 303 L 418 305 L 611 345 L 637 331 L 656 308 L 651 241 L 657 56 L 643 18 L 581 32"/>
<path style="--d:7s;" pathLength="3333" clip-path="url(#z26132c7)" d="M 392 169 L 406 178 L 532 195 L 571 194"/>
<path style="--d:8s;" pathLength="3333" clip-path="url(#z26132c8)" d="M 386 29 L 402 43 L 424 47 L 549 60 L 595 55"/>
</svg>