<svg id="z22127" class="acjk" viewBox="0 0 1024 1024" xmlns="http://www.w3.org/2000/svg">
  <path id="z22127d1" d="M 102 588 Q 92 592 70 597 Q 58 601 55 596 Q 48 590 56 575 Q 83 511 95 408 Q 96 377 113 356 Q 129 334 135 349 Q 142 368 138 406 L 133 439 Q 120 539 120 563 C 119 582 119 582 102 588 Z"/>
  <path id="z22127d2" d="M 258 456 Q 271 541 293 568 Q 314 593 291 606 Q 272 616 246 631 Q 228 640 211 629 Q 189 614 161 605 Q 136 598 102 588 C 73 580 91 554 120 563 Q 141 570 193 581 Q 214 585 218 578 Q 227 572 222 536 Q 218 502 212 464 C 207 434 253 426 258 456 Z"/>
  <path id="z22127d3" d="M 138 406 Q 258 430 264 431 Q 273 432 274 441 Q 274 447 258 456 C 237 468 237 468 212 464 Q 205 463 200 461 Q 164 448 133 439 C 104 431 109 400 138 406 Z"/>
  <path id="z22127d4" d="M 611 809 Q 551 760 417 699 Q 413 692 417 688 Q 448 688 605 744 Q 639 766 709 780 Q 725 781 729 788 Q 733 798 721 809 Q 702 825 659 841 Q 644 848 632 847 Q 625 843 624 833 Q 624 820 611 809 Z"/>
  <path id="z22127d5" d="M 420 624 Q 444 596 477 576 Q 489 575 496 585 Q 500 595 498 608 Q 494 626 479 635 Q 461 647 429 654 Q 416 658 409 654 Q 405 653 406 644 Q 407 635 420 624 Z"/>
  <path id="z22127d6" d="M 543 664 Q 565 624 590 609 Q 600 605 608 613 Q 614 622 614 634 Q 613 652 601 663 Q 562 699 538 694 Q 534 693 533 684 Q 533 677 543 664 Z"/>
  <path id="z22127d7" d="M 714 707 Q 702 680 657 617 Q 650 601 664 606 Q 701 630 753 671 Q 769 687 789 697 Q 807 707 796 722 Q 783 735 760 746 Q 738 756 727 753 Q 717 752 721 740 Q 725 724 714 707 Z"/>
  <path id="z22127d8" d="M 377 521 Q 362 545 348 554 Q 345 558 339 554 Q 335 551 334 540 Q 340 516 312 449 Q 303 433 305 416 Q 308 398 317 385 Q 324 375 329 383 Q 341 386 355 430 Q 367 472 380 496 C 386 507 386 507 377 521 Z"/>
  <path id="z22127d9" d="M 380 496 Q 399 487 456 502 Q 546 533 730 560 Q 772 566 786 565 Q 801 559 798 551 Q 798 548 777 493 Q 770 480 775 476 Q 782 473 798 484 Q 844 514 882 523 Q 913 530 913 539 Q 910 548 846 593 Q 827 609 763 597 Q 720 591 472 540 Q 426 530 378 522 Q 377 522 377 521 C 348 515 350 501 380 496 Z"/>
  <path id="z22127d10" d="M 422 441 Q 407 404 385 372 Q 370 350 384 325 Q 388 312 404 321 Q 440 348 440 400 Q 444 422 439 441 Q 435 447 431 447 Q 425 446 422 441 Z"/>
  <path id="z22127d11" d="M 471 414 Q 486 354 539 325 Q 620 283 742 319 Q 749 323 758 327 Q 773 334 773 344 Q 774 351 748 363 Q 708 387 675 414 Q 665 427 661 420 Q 660 416 664 404 Q 668 358 669 356 Q 663 347 635 345 Q 559 341 527 368 Q 512 380 505 402 Q 498 421 489 424 Q 479 428 472 425 Q 468 424 471 414 Z"/>
  <path id="z22127d12" d="M 542 444 Q 561 431 581 413 Q 591 404 603 405 Q 610 406 613 416 Q 616 428 608 448 Q 604 461 581 470 Q 524 482 520 478 Q 516 475 518 466 Q 521 459 542 444 Z"/>
  <path id="z22127d13" d="M 679 472 Q 709 451 741 426 Q 750 419 760 419 Q 767 420 770 428 Q 771 438 765 457 Q 755 485 674 502 Q 664 503 660 502 Q 656 499 658 491 Q 661 484 679 472 Z"/>
  <path id="z22127d14" d="M 523 250 Q 529 260 535 265 Q 545 277 541 285 Q 537 297 512 302 Q 485 309 474 305 Q 467 304 466 291 Q 456 210 284 44 Q 265 28 290 34 Q 359 49 464 173 L 479 191 Q 483 203 506 228 L 523 250 Z"/>
  <path id="z22127d15" d="M 576 81 Q 516 23 346 -16 Q 331 -17 339 -26 Q 346 -33 372 -33 Q 466 -26 520 -6 Q 569 12 608 49 L 637 81 Q 667 118 688 171 Q 700 202 720 215 Q 736 227 721 243 Q 705 261 675 276 Q 656 286 635 278 Q 592 257 530 252 Q 526 252 523 250 C 493 245 477 237 506 228 Q 528 216 562 225 Q 593 229 625 236 Q 641 240 641 222 Q 641 171 599 109 L 576 81 Z"/>
  <path id="z22127d16" d="M 608 49 Q 662 -2 754 -66 Q 784 -85 824 -72 Q 876 -56 915 -45 Q 928 -42 939 -35 Q 945 -28 933 -21 Q 917 -15 799 6 Q 724 18 637 81 L 599 109 Q 562 137 523 172 Q 504 188 479 191 C 450 197 437 186 464 173 Q 492 164 576 81 L 608 49 Z"/>
<defs>
  <clipPath id="z22127c1"><use href="#z22127d1"/></clipPath>
  <clipPath id="z22127c2"><use href="#z22127d2"/></clipPath>
  <clipPath id="z22127c3"><use href="#z22127d3"/></clipPath>
  <clipPath id="z22127c4"><use href="#z22127d4"/></clipPath>
  <clipPath id="z22127c5"><use href="#z22127d5"/></clipPath>
  <clipPath id="z22127c6"><use href="#z22127d6"/></clipPath>
  <clipPath id="z22127c7"><use href="#z22127d7"/></clipPath>
  <clipPath id="z22127c8"><use href="#z22127d8"/></clipPath>
  <clipPath id="z22127c9"><use href="#z22127d9"/></clipPath>
  <clipPath id="z22127c10"><use href="#z22127d10"/></clipPath>
  <clipPath id="z22127c11"><use href="#z22127d11"/></clipPath>
  <clipPath id="z22127c12"><use href="#z22127d12"/></clipPath>
  <clipPath id="z22127c13"><use href="#z22127d13"/></clipPath>
  <clipPath id="z22127c14"><use href="#z22127d14"/></clipPath>
  <clipPath id="z22127c15"><use href="#z22127d15"/></clipPath>
  <clipPath id="z22127c16"><use href="#z22127d16"/></clipPath>
</defs>
<path style="--d:1s;" pathLength="3333" clip-path="url(#z22127c1)" d="M 63 588 L 93 555 L 125 355"/>
<path style="--d:2s;" pathLength="3333" clip-path="url(#z22127c2)" d="M 112 585 L 125 580 L 218 605 L 231 605 L 249 592 L 258 582 L 241 490 L 221 470"/>
<path style="--d:3s;" pathLength="3333" clip-path="url(#z22127c3)" d="M 141 435 L 153 426 L 216 443 L 265 440"/>
<path style="--d:4s;" pathLength="3333" clip-path="url(#z22127c4)" d="M 719 793 L 654 803 L 586 760 L 491 718 L 419 694"/>
<path style="--d:5s;" pathLength="3333" clip-path="url(#z22127c5)" d="M 415 647 L 462 617 L 481 594"/>
<path style="--d:6s;" pathLength="3333" clip-path="url(#z22127c6)" d="M 543 685 L 587 643 L 596 623"/>
<path style="--d:7s;" pathLength="3333" clip-path="url(#z22127c7)" d="M 732 743 L 752 711 L 666 615"/>
<path style="--d:8s;" pathLength="3333" clip-path="url(#z22127c8)" d="M 344 545 L 356 517 L 355 500 L 336 452 L 325 396"/>
<path style="--d:9s;" pathLength="3333" clip-path="url(#z22127c9)" d="M 384 515 L 396 508 L 442 515 L 580 550 L 794 583 L 819 575 L 838 550 L 779 481"/>
<path style="--d:10s;" pathLength="3333" clip-path="url(#z22127c10)" d="M 431 438 L 421 393 L 395 328"/>
<path style="--d:11s;" pathLength="3333" clip-path="url(#z22127c11)" d="M 477 419 L 503 375 L 529 348 L 577 328 L 617 323 L 676 329 L 705 347 L 668 411"/>
<path style="--d:12s;" pathLength="3333" clip-path="url(#z22127c12)" d="M 524 471 L 578 447 L 599 419"/>
<path style="--d:13s;" pathLength="3333" clip-path="url(#z22127c13)" d="M 667 495 L 728 464 L 757 432"/>
<path style="--d:14s;" pathLength="3333" clip-path="url(#z22127c14)" d="M 526 280 L 496 270 L 426 162 L 363 96 L 293 43"/>
<path style="--d:15s;" pathLength="3333" clip-path="url(#z22127c15)" d="M 514 231 L 647 257 L 667 245 L 678 227 L 656 160 L 637 123 L 577 51 L 519 17 L 460 -4 L 345 -23"/>
<path style="--d:16s;" pathLength="3333" clip-path="url(#z22127c16)" d="M 469 176 L 485 178 L 519 156 L 670 28 L 779 -33 L 929 -31"/>
</svg>