<svg id="z22751" class="acjk" viewBox="0 0 1024 1024" xmlns="http://www.w3.org/2000/svg">
  <path id="z22751d1" d="M 362 788 Q 384 775 407 758 Q 419 749 431 752 Q 438 753 441 764 Q 442 776 433 798 Q 421 819 352 824 Q 340 825 335 823 Q 332 819 335 809 Q 339 802 362 788 Z"/>
  <path id="z22751d2" d="M 429 692 Q 439 696 453 697 Q 486 704 490 708 Q 497 714 494 720 Q 490 727 469 734 Q 448 738 427 731 Q 390 719 350 710 Q 307 701 254 698 Q 229 694 246 682 Q 268 667 330 676 Q 361 682 396 687 L 429 692 Z"/>
  <path id="z22751d3" d="M 258 624 Q 282 578 298 572 Q 308 571 314 582 Q 317 589 313 605 Q 303 629 265 641 Q 258 644 257 636 Q 254 630 258 624 Z"/>
  <path id="z22751d4" d="M 393 583 Q 409 601 433 636 Q 437 643 446 653 Q 458 662 451 669 Q 445 679 429 692 C 406 711 389 716 396 687 Q 402 672 384 609 Q 372 585 377 579 C 381 569 381 569 393 583 Z"/>
  <path id="z22751d5" d="M 377 579 Q 190 540 112 533 Q 102 532 98 525 Q 95 516 108 506 Q 145 482 177 494 Q 333 543 490 563 Q 505 564 505 571 Q 506 583 491 590 Q 463 603 393 583 L 377 579 Z"/>
  <path id="z22751d6" d="M 261 340 Q 262 368 264 387 L 265 402 Q 265 438 270 453 C 273 465 273 465 263 472 Q 262 475 258 476 Q 239 486 226 485 Q 217 482 221 474 Q 257 387 214 264 Q 195 248 215 210 Q 216 206 221 201 Q 225 192 233 196 Q 260 217 260 313 Q 260 317 261 320 L 261 340 Z"/>
  <path id="z22751d7" d="M 270 453 Q 282 453 298 458 Q 383 479 396 474 Q 403 471 406 455 Q 413 361 408 287 Q 407 272 399 269 Q 390 266 343 273 Q 333 274 334 268 Q 335 262 347 257 Q 375 235 397 213 Q 409 203 421 204 Q 430 205 443 233 Q 458 260 454 337 Q 447 448 459 471 Q 468 483 456 493 Q 443 505 413 514 Q 397 521 384 511 Q 372 505 349 497 Q 289 479 263 472 C 234 464 240 450 270 453 Z"/>
  <path id="z22751d8" d="M 264 387 Q 265 386 361 393 Q 380 396 373 406 Q 364 418 345 421 Q 314 424 265 402 C 238 390 234 388 264 387 Z"/>
  <path id="z22751d9" d="M 261 320 L 365 330 Q 383 331 377 342 Q 368 354 349 358 Q 322 362 261 340 C 233 330 231 317 261 320 Z"/>
  <path id="z22751d10" d="M 621 758 Q 648 748 705 758 Q 732 765 761 772 Q 777 776 780 779 Q 787 785 783 791 Q 777 800 755 804 Q 733 808 710 797 Q 692 790 672 785 Q 650 779 625 776 C 595 772 592 767 621 758 Z"/>
  <path id="z22751d11" d="M 749 613 Q 770 658 787 667 Q 797 673 796 680 Q 795 687 761 710 Q 746 720 733 713 Q 690 700 625 686 Q 607 683 610 701 Q 616 735 621 758 L 625 776 Q 629 801 635 812 Q 644 831 623 842 Q 589 858 578 853 Q 568 849 577 837 Q 586 824 583 736 Q 584 706 569 681 Q 562 669 577 655 Q 590 642 599 651 Q 630 670 701 677 Q 720 683 727 675 Q 731 669 725 654 Q 719 639 712 623 Q 711 619 709 614 C 699 586 736 586 749 613 Z"/>
  <path id="z22751d12" d="M 595 564 Q 599 564 605 565 Q 654 575 762 584 Q 771 585 772 592 Q 772 598 749 613 C 738 620 738 620 709 614 Q 642 599 588 590 C 558 585 565 562 595 564 Z"/>
  <path id="z22751d13" d="M 585 380 Q 584 393 583 434 L 584 451 Q 585 475 588 500 L 590 522 Q 591 543 595 564 C 598 584 598 584 588 590 Q 578 600 561 605 Q 551 608 545 604 Q 539 601 544 587 Q 554 557 554 529 Q 547 307 589 269 Q 589 257 656 237 Q 821 198 936 284 Q 952 297 941 318 Q 931 340 915 408 Q 915 421 909 426 Q 905 429 900 414 Q 878 341 862 318 Q 849 302 810 289 Q 720 264 641 293 Q 599 311 588 360 L 585 380 Z"/>
  <path id="z22751d14" d="M 588 500 Q 642 493 739 516 Q 745 522 742 528 Q 738 535 717 541 Q 707 544 635 528 Q 614 524 590 522 C 560 519 558 503 588 500 Z"/>
  <path id="z22751d15" d="M 583 434 Q 607 425 673 435 Q 727 444 731 446 Q 737 450 734 457 Q 730 464 711 469 Q 699 472 633 457 Q 611 453 585 452 Q 584 452 584 451 C 555 444 554 443 583 434 Z"/>
  <path id="z22751d16" d="M 588 360 Q 612 356 690 363 Q 705 366 724 368 Q 743 372 746 374 Q 752 378 749 385 Q 745 392 727 398 Q 720 399 642 385 Q 617 381 585 380 C 555 379 558 364 588 360 Z"/>
  <path id="z22751d17" d="M 544 118 Q 686 145 690 148 Q 697 154 694 162 Q 688 172 664 180 Q 643 186 547 159 L 496 148 Q 438 139 373 135 Q 342 131 363 116 Q 399 97 463 106 Q 479 109 498 111 L 544 118 Z"/>
  <path id="z22751d18" d="M 534 10 Q 538 65 544 118 L 547 159 Q 550 180 560 230 Q 563 240 546 252 Q 518 268 496 271 Q 483 274 476 267 Q 469 260 477 248 Q 492 227 496 148 L 498 111 Q 498 62 498 6 C 498 -24 532 -20 534 10 Z"/>
  <path id="z22751d19" d="M 498 6 Q 360 -6 201 -19 Q 180 -20 195 -38 Q 208 -51 225 -57 Q 244 -63 261 -59 Q 507 -1 853 -22 Q 872 -22 877 -14 Q 883 -4 868 11 Q 817 50 782 43 Q 689 27 534 10 L 498 6 Z"/>
<defs>
  <clipPath id="z22751c1"><use href="#z22751d1"/></clipPath>
  <clipPath id="z22751c2"><use href="#z22751d2"/></clipPath>
  <clipPath id="z22751c3"><use href="#z22751d3"/></clipPath>
  <clipPath id="z22751c4"><use href="#z22751d4"/></clipPath>
  <clipPath id="z22751c5"><use href="#z22751d5"/></clipPath>
  <clipPath id="z22751c6"><use href="#z22751d6"/></clipPath>
  <clipPath id="z22751c7"><use href="#z22751d7"/></clipPath>
  <clipPath id="z22751c8"><use href="#z22751d8"/></clipPath>
  <clipPath id="z22751c9"><use href="#z22751d9"/></clipPath>
  <clipPath id="z22751c10"><use href="#z22751d10"/></clipPath>
  <clipPath id="z22751c11"><use href="#z22751d11"/></clipPath>
  <clipPath id="z22751c12"><use href="#z22751d12"/></clipPath>
  <clipPath id="z22751c13"><use href="#z22751d13"/></clipPath>
  <clipPath id="z22751c14"><use href="#z22751d14"/></clipPath>
  <clipPath id="z22751c15"><use href="#z22751d15"/></clipPath>
  <clipPath id="z22751c16"><use href="#z22751d16"/></clipPath>
  <clipPath id="z22751c17"><use href="#z22751d17"/></clipPath>
  <clipPath id="z22751c18"><use href="#z22751d18"/></clipPath>
  <clipPath id="z22751c19"><use href="#z22751d19"/></clipPath>
</defs>
<path style="--d:1s;" pathLength="3333" clip-path="url(#z22751c1)" d="M 340 816 L 404 790 L 425 767"/>
<path style="--d:2s;" pathLength="3333" clip-path="url(#z22751c2)" d="M 249 691 L 301 686 L 438 715 L 484 717"/>
<path style="--d:3s;" pathLength="3333" clip-path="url(#z22751c3)" d="M 266 631 L 289 608 L 300 583"/>
<path style="--d:4s;" pathLength="3333" clip-path="url(#z22751c4)" d="M 402 684 L 422 664 L 395 602 L 380 584"/>
<path style="--d:5s;" pathLength="3333" clip-path="url(#z22751c5)" d="M 107 521 L 164 515 L 424 573 L 474 578 L 495 574"/>
<path style="--d:6s;" pathLength="3333" clip-path="url(#z22751c6)" d="M 230 476 L 249 452 L 252 395 L 241 281 L 229 239 L 230 205"/>
<path style="--d:7s;" pathLength="3333" clip-path="url(#z22751c7)" d="M 269 469 L 288 466 L 397 495 L 430 476 L 433 326 L 427 263 L 413 241 L 340 268"/>
<path style="--d:8s;" pathLength="3333" clip-path="url(#z22751c8)" d="M 266 394 L 330 406 L 365 401"/>
<path style="--d:9s;" pathLength="3333" clip-path="url(#z22751c9)" d="M 268 325 L 274 335 L 323 342 L 369 338"/>
<path style="--d:10s;" pathLength="3333" clip-path="url(#z22751c10)" d="M 627 761 L 746 787 L 772 787"/>
<path style="--d:11s;" pathLength="3333" clip-path="url(#z22751c11)" d="M 581 845 L 592 840 L 609 818 L 593 674 L 623 673 L 717 695 L 745 691 L 755 682 L 751 661 L 735 632 L 716 617"/>
<path style="--d:12s;" pathLength="3333" clip-path="url(#z22751c12)" d="M 596 585 L 605 579 L 704 597 L 742 598 L 764 592"/>
<path style="--d:13s;" pathLength="3333" clip-path="url(#z22751c13)" d="M 551 597 L 570 578 L 573 565 L 567 446 L 573 355 L 589 308 L 617 277 L 651 263 L 752 251 L 824 262 L 875 284 L 902 313 L 906 419"/>
<path style="--d:14s;" pathLength="3333" clip-path="url(#z22751c14)" d="M 594 505 L 649 518 L 732 524"/>
<path style="--d:15s;" pathLength="3333" clip-path="url(#z22751c15)" d="M 590 446 L 611 441 L 715 456 L 726 453"/>
<path style="--d:16s;" pathLength="3333" clip-path="url(#z22751c16)" d="M 593 376 L 602 369 L 739 382"/>
<path style="--d:17s;" pathLength="3333" clip-path="url(#z22751c17)" d="M 366 127 L 408 120 L 452 122 L 554 138 L 645 160 L 685 157"/>
<path style="--d:18s;" pathLength="3333" clip-path="url(#z22751c18)" d="M 486 258 L 523 225 L 518 35 L 503 14"/>
<path style="--d:19s;" pathLength="3333" clip-path="url(#z22751c19)" d="M 198 -29 L 252 -38 L 545 -3 L 781 12 L 817 9 L 866 -8"/>
</svg>