<svg id="z21185" class="acjk" viewBox="0 0 1024 1024" xmlns="http://www.w3.org/2000/svg">
  <path id="z21185d1" d="M 250 750 Q 213 743 239 726 Q 284 702 339 716 Q 412 731 487 746 Q 521 753 527 759 Q 536 766 531 776 Q 524 788 494 795 Q 463 801 432 789 Q 393 776 351 765 Q 305 755 250 750 Z"/>
  <path id="z21185d2" d="M 179 604 Q 152 514 115 476 Q 108 463 108 451 Q 112 439 126 433 Q 150 427 213 354 Q 228 335 237 334 Q 247 334 253 344 Q 259 359 253 385 Q 249 406 223 425 Q 192 441 164 450 Q 151 454 154 470 Q 188 521 213 560 Q 229 588 243 607 Q 259 626 246 641 Q 204 692 191 689 Q 175 686 180 668 Q 190 634 179 604 Z"/>
  <path id="z21185d3" d="M 329 638 Q 322 578 283 521 Q 273 509 271 501 Q 271 491 294 474 Q 319 452 353 411 Q 366 392 377 394 Q 390 395 397 412 Q 404 434 397 450 Q 391 468 320 494 Q 296 503 348 571 Q 378 610 389 620 Q 399 626 401 632 Q 404 648 381 669 Q 362 688 344 692 Q 326 693 321 687 Q 318 683 324 674 Q 334 661 329 638 Z"/>
  <path id="z21185d4" d="M 471 631 Q 461 589 437 549 Q 430 539 431 529 Q 432 519 447 510 Q 475 482 501 450 Q 514 434 526 434 Q 536 435 540 454 Q 544 473 534 488 Q 527 500 487 513 Q 469 519 463 531 Q 457 541 470 553 Q 483 569 506 604 Q 519 626 533 636 Q 545 645 538 660 Q 523 688 502 699 Q 490 706 480 702 Q 470 701 476 684 Q 485 663 471 631 Z"/>
  <path id="z21185d5" d="M 380 291 Q 417 301 461 309 Q 495 318 499 322 Q 508 329 503 337 Q 496 347 470 354 Q 442 358 415 348 Q 376 335 335 323 Q 289 313 236 306 Q 202 300 227 285 Q 263 264 319 278 Q 323 279 332 280 L 380 291 Z"/>
  <path id="z21185d6" d="M 377 182 Q 384 245 389 256 Q 396 274 380 291 C 360 314 332 310 332 280 Q 332 265 333 172 C 333 142 374 152 377 182 Z"/>
  <path id="z21185d7" d="M 333 172 Q 260 156 180 135 Q 158 129 121 132 Q 108 131 105 121 Q 102 108 111 98 Q 133 80 167 59 Q 177 55 190 63 Q 238 93 451 170 Q 482 180 504 195 Q 517 202 519 212 Q 513 218 500 216 Q 442 200 377 182 L 333 172 Z"/>
  <path id="z21185d8" d="M 740 490 Q 786 503 833 509 Q 846 510 850 504 Q 857 486 853 440 Q 837 274 804 184 Q 786 129 767 112 Q 757 102 734 110 Q 712 117 691 123 Q 669 132 683 110 Q 717 64 734 29 Q 741 10 759 13 Q 778 14 804 43 Q 876 116 904 396 Q 910 459 934 495 Q 950 517 941 526 Q 925 545 891 559 Q 866 572 840 560 Q 801 544 749 528 L 688 513 Q 621 500 582 499 Q 563 500 563 490 Q 562 481 584 468 Q 609 452 634 461 Q 655 468 679 474 L 740 490 Z"/>
  <path id="z21185d9" d="M 679 474 Q 610 221 434 12 Q 428 5 425 -1 Q 421 -13 433 -11 Q 463 -11 566 109 Q 591 143 618 185 Q 696 317 740 490 L 749 528 Q 753 547 758 568 Q 777 661 789 688 Q 799 703 793 718 Q 777 739 746 757 Q 727 770 712 767 Q 699 761 704 745 Q 725 700 707 613 Q 706 609 705 602 Q 698 556 688 513 L 679 474 Z"/>
<defs>
  <clipPath id="z21185c1"><use href="#z21185d1"/></clipPath>
  <clipPath id="z21185c2"><use href="#z21185d2"/></clipPath>
  <clipPath id="z21185c3"><use href="#z21185d3"/></clipPath>
  <clipPath id="z21185c4"><use href="#z21185d4"/></clipPath>
  <clipPath id="z21185c5"><use href="#z21185d5"/></clipPath>
  <clipPath id="z21185c6"><use href="#z21185d6"/></clipPath>
  <clipPath id="z21185c7"><use href="#z21185d7"/></clipPath>
  <clipPath id="z21185c8"><use href="#z21185d8"/></clipPath>
  <clipPath id="z21185c9"><use href="#z21185d9"/></clipPath>
</defs>
<path style="--d:1s;" pathLength="3333" clip-path="url(#z21185c1)" d="M 242 739 L 264 733 L 313 734 L 459 768 L 520 770"/>
<path style="--d:2s;" pathLength="3333" clip-path="url(#z21185c2)" d="M 192 675 L 217 626 L 132 455 L 218 392 L 238 348"/>
<path style="--d:3s;" pathLength="3333" clip-path="url(#z21185c3)" d="M 329 682 L 351 666 L 362 640 L 330 568 L 293 505 L 309 482 L 365 442 L 376 412"/>
<path style="--d:4s;" pathLength="3333" clip-path="url(#z21185c4)" d="M 483 692 L 497 680 L 508 653 L 451 550 L 447 530 L 460 514 L 511 477 L 524 447"/>
<path style="--d:5s;" pathLength="3333" clip-path="url(#z21185c5)" d="M 229 297 L 251 291 L 290 293 L 439 330 L 492 332"/>
<path style="--d:6s;" pathLength="3333" clip-path="url(#z21185c6)" d="M 339 277 L 360 258 L 356 202 L 338 185"/>
<path style="--d:7s;" pathLength="3333" clip-path="url(#z21185c7)" d="M 120 116 L 175 97 L 513 209"/>
<path style="--d:8s;" pathLength="3333" clip-path="url(#z21185c8)" d="M 573 489 L 583 483 L 623 480 L 856 535 L 872 530 L 893 510 L 849 224 L 816 125 L 795 89 L 764 64 L 695 111"/>
<path style="--d:9s;" pathLength="3333" clip-path="url(#z21185c9)" d="M 718 753 L 739 730 L 753 698 L 711 487 L 668 351 L 620 242 L 559 140 L 499 62 L 434 -2"/>
</svg>