<svg id="z21913" class="acjk" viewBox="0 0 1024 1024" xmlns="http://www.w3.org/2000/svg">
  <path id="z21913d1" d="M 135 596 Q 123 603 93 610 Q 80 614 77 609 Q 70 603 78 586 Q 106 513 117 396 Q 118 362 137 336 Q 153 314 159 329 Q 166 350 165 386 L 161 420 Q 146 538 145 569 C 144 592 144 592 135 596 Z"/>
  <path id="z21913d2" d="M 297 444 Q 315 547 342 577 Q 364 602 340 616 Q 279 649 271 647 Q 264 647 256 641 Q 213 614 135 596 C 106 589 116 560 145 569 Q 151 572 233 592 Q 258 598 265 588 Q 274 579 248 447 C 242 418 292 414 297 444 Z"/>
  <path id="z21913d3" d="M 165 386 Q 219 399 310 413 Q 320 414 321 424 Q 321 431 297 444 L 248 447 Q 245 448 242 446 Q 199 431 161 420 C 132 412 136 379 165 386 Z"/>
  <path id="z21913d4" d="M 562 738 Q 571 750 583 762 Q 608 778 592 799 Q 570 830 549 838 Q 534 842 526 838 Q 519 832 525 820 Q 546 778 460 671 Q 427 638 424 637 Q 402 630 395 616 Q 388 589 392 578 Q 398 562 412 571 Q 424 584 612 611 C 642 615 653 630 623 633 Q 610 636 587 634 Q 520 630 481 630 Q 475 633 476 637 Q 476 640 550 725 L 562 738 Z"/>
  <path id="z21913d5" d="M 599 552 Q 620 571 669 632 Q 709 683 750 712 Q 766 721 756 733 Q 744 745 711 765 Q 702 769 638 751 Q 578 741 562 738 C 538 734 538 734 550 725 Q 557 716 577 713 Q 586 712 650 720 Q 659 721 661 719 Q 665 715 659 704 Q 640 664 623 633 L 612 611 Q 579 559 578 548 C 569 523 577 531 599 552 Z"/>
  <path id="z21913d6" d="M 542 508 Q 611 533 821 534 Q 839 534 844 542 Q 848 552 834 564 Q 780 600 739 583 Q 682 570 599 552 L 578 548 Q 478 532 366 511 Q 348 510 362 495 Q 375 483 390 480 Q 408 476 422 480 Q 459 492 501 500 L 542 508 Z"/>
  <path id="z21913d7" d="M 515 428 Q 516 429 517 429 Q 548 456 563 466 Q 573 476 572 484 Q 571 496 549 506 Q 545 507 542 508 C 514 517 511 518 501 500 Q 470 434 321 338 Q 302 328 326 328 Q 380 325 492 409 L 515 428 Z"/>
  <path id="z21913d8" d="M 623 355 Q 583 400 515 428 C 488 440 465 422 492 409 Q 504 405 514 397 L 564 363 Q 574 353 585 342 L 616 290 Q 635 229 601 115 Q 586 73 572 65 Q 560 59 495 75 Q 470 81 468 76 Q 467 69 478 57 Q 532 8 553 -24 Q 565 -42 580 -39 Q 632 -12 659 111 Q 681 216 667 261 L 636 340 L 623 355 Z"/>
  <path id="z21913d9" d="M 514 397 Q 481 325 309 221 Q 291 211 313 212 Q 377 209 514 320 Q 515 324 564 363 C 587 382 528 424 514 397 Z"/>
  <path id="z21913d10" d="M 585 342 Q 509 213 333 98 Q 320 91 308 82 Q 295 72 304 69 Q 326 59 404 100 Q 479 136 571 238 Q 611 281 611 283 Q 612 287 616 290 C 633 314 601 368 585 342 Z"/>
  <path id="z21913d11" d="M 636 340 Q 735 412 785 438 Q 804 442 799 454 Q 793 470 774 490 Q 755 509 731 511 Q 716 511 717 491 Q 718 476 710 460 Q 682 420 623 355 C 603 333 612 322 636 340 Z"/>
  <path id="z21913d12" d="M 667 261 Q 719 203 777 147 Q 799 125 837 124 Q 904 123 976 137 Q 994 138 995 144 Q 998 151 983 156 Q 773 225 691 289 Q 684 295 677 300 Q 647 324 636 340 C 617 363 647 283 667 261 Z"/>
<defs>
  <clipPath id="z21913c1"><use href="#z21913d1"/></clipPath>
  <clipPath id="z21913c2"><use href="#z21913d2"/></clipPath>
  <clipPath id="z21913c3"><use href="#z21913d3"/></clipPath>
  <clipPath id="z21913c4"><use href="#z21913d4"/></clipPath>
  <clipPath id="z21913c5"><use href="#z21913d5"/></clipPath>
  <clipPath id="z21913c6"><use href="#z21913d6"/></clipPath>
  <clipPath id="z21913c7"><use href="#z21913d7"/></clipPath>
  <clipPath id="z21913c8"><use href="#z21913d8"/></clipPath>
  <clipPath id="z21913c9"><use href="#z21913d9"/></clipPath>
  <clipPath id="z21913c10"><use href="#z21913d10"/></clipPath>
  <clipPath id="z21913c11"><use href="#z21913d11"/></clipPath>
  <clipPath id="z21913c12"><use href="#z21913d12"/></clipPath>
</defs>
<path style="--d:1s;" pathLength="3333" clip-path="url(#z21913c1)" d="M 84 601 L 112 575 L 118 556 L 149 335"/>
<path style="--d:2s;" pathLength="3333" clip-path="url(#z21913c2)" d="M 145 577 L 163 590 L 250 615 L 273 618 L 294 604 L 304 592 L 303 583 L 277 469 L 255 460"/>
<path style="--d:3s;" pathLength="3333" clip-path="url(#z21913c3)" d="M 169 392 L 185 409 L 242 424 L 290 428 L 311 423"/>
<path style="--d:4s;" pathLength="3333" clip-path="url(#z21913c4)" d="M 533 830 L 546 819 L 561 787 L 527 727 L 454 637 L 451 621 L 463 611 L 481 609 L 578 621 L 597 618 L 617 629"/>
<path style="--d:5s;" pathLength="3333" clip-path="url(#z21913c5)" d="M 557 724 L 676 738 L 701 724 L 627 603 L 583 550"/>
<path style="--d:6s;" pathLength="3333" clip-path="url(#z21913c6)" d="M 364 503 L 407 498 L 629 543 L 753 560 L 778 561 L 834 547"/>
<path style="--d:7s;" pathLength="3333" clip-path="url(#z21913c7)" d="M 556 483 L 527 476 L 470 420 L 394 366 L 331 337"/>
<path style="--d:8s;" pathLength="3333" clip-path="url(#z21913c8)" d="M 500 411 L 518 412 L 578 374 L 620 326 L 646 251 L 646 195 L 623 87 L 609 54 L 582 22 L 546 33 L 473 73"/>
<path style="--d:9s;" pathLength="3333" clip-path="url(#z21913c9)" d="M 552 359 L 522 361 L 476 314 L 429 278 L 354 232 L 317 219"/>
<path style="--d:10s;" pathLength="3333" clip-path="url(#z21913c10)" d="M 586 334 L 584 291 L 498 196 L 420 133 L 309 74"/>
<path style="--d:11s;" pathLength="3333" clip-path="url(#z21913c11)" d="M 731 496 L 750 461 L 640 356 L 634 358"/>
<path style="--d:12s;" pathLength="3333" clip-path="url(#z21913c12)" d="M 645 321 L 686 268 L 809 175 L 873 158 L 988 146"/>
</svg>