<svg id="z22545" class="acjk" viewBox="0 0 1024 1024" xmlns="http://www.w3.org/2000/svg">
  <path id="z22545d1" d="M 334 668 Q 392 681 451 691 Q 488 698 494 704 Q 501 711 498 718 Q 492 728 468 735 Q 444 741 360 714 L 305 702 Q 263 696 216 692 Q 185 688 207 672 Q 241 654 287 660 L 334 668 Z"/>
  <path id="z22545d2" d="M 401 509 Q 431 515 459 515 Q 486 516 478 529 Q 471 541 456 548 Q 441 554 402 540 L 355 531 Q 315 525 271 517 Q 261 516 259 518 Q 258 519 260 527 Q 290 591 334 668 L 360 714 Q 381 751 392 758 Q 405 768 391 787 Q 370 812 354 826 Q 342 833 334 832 Q 325 829 329 809 Q 335 788 305 702 L 287 660 Q 257 573 199 519 Q 184 506 188 493 Q 192 474 201 465 Q 208 456 218 460 Q 272 487 356 501 L 401 509 Z"/>
  <path id="z22545d3" d="M 402 540 Q 403 562 409 577 Q 415 587 413 596 Q 409 603 370 626 Q 354 638 340 627 Q 336 623 341 613 Q 350 600 355 531 L 356 501 Q 357 467 358 427 Q 357 426 357 425 L 354 394 Q 345 345 361 309 L 362 307 Q 366 295 372 293 Q 376 289 381 294 Q 397 313 399 392 Q 399 401 399 410 L 400 437 Q 400 468 401 509 L 402 540 Z"/>
  <path id="z22545d4" d="M 357 425 Q 272 403 177 378 Q 156 372 123 374 Q 113 373 110 365 Q 109 355 115 347 Q 134 332 160 316 Q 169 313 178 320 Q 232 353 354 394 L 399 410 Q 408 414 420 418 Q 448 428 469 441 Q 481 447 481 454 Q 477 458 467 457 Q 434 448 400 437 L 357 425 Z"/>
  <path id="z22545d5" d="M 615 675 Q 670 696 727 719 Q 748 731 772 735 Q 794 739 787 759 Q 778 777 757 795 Q 738 813 725 813 Q 713 814 714 801 Q 714 776 605 691 C 581 673 587 664 615 675 Z"/>
  <path id="z22545d6" d="M 607 594 Q 610 672 615 675 C 617 683 617 683 605 691 Q 604 694 600 695 Q 558 714 546 712 Q 530 708 543 690 Q 570 651 554 529 Q 550 507 541 479 Q 532 451 486 395 Q 473 385 471 378 Q 470 372 480 373 Q 511 373 549 418 Q 594 469 604 566 L 607 594 Z"/>
  <path id="z22545d7" d="M 752 580 Q 752 581 753 581 Q 814 590 872 596 Q 885 597 885 604 Q 886 616 866 630 Q 829 651 774 629 Q 767 628 607 594 C 578 588 575 572 604 566 Q 605 566 609 565 Q 621 562 641 564 Q 669 570 698 572 C 728 574 730 575 752 580 Z"/>
  <path id="z22545d8" d="M 718 320 Q 722 299 727 290 Q 731 284 738 287 Q 745 290 749 302 Q 755 320 762 439 Q 762 505 771 551 Q 774 566 762 574 Q 756 578 752 580 C 726 595 686 599 698 572 Q 710 560 713 396 Q 714 339 718 320 Z"/>
  <path id="z22545d9" d="M 538 186 Q 710 214 717 219 Q 727 226 722 236 Q 716 249 687 258 Q 656 265 625 256 Q 583 246 542 235 L 485 224 Q 406 212 316 209 Q 279 205 304 186 Q 347 159 403 168 Q 443 174 487 179 L 538 186 Z"/>
  <path id="z22545d10" d="M 528 63 Q 534 127 538 186 L 542 235 Q 542 247 550 287 Q 559 317 546 330 Q 543 333 541 334 Q 507 352 485 355 Q 469 359 462 350 Q 455 343 463 329 Q 479 305 481 289 Q 482 258 485 224 L 487 179 Q 488 124 488 59 C 488 29 525 33 528 63 Z"/>
  <path id="z22545d11" d="M 488 59 Q 346 49 183 36 Q 159 35 176 15 Q 191 -1 210 -8 Q 234 -15 252 -11 Q 487 40 857 19 Q 879 18 885 28 Q 892 41 874 57 Q 817 103 776 95 Q 683 80 528 63 L 488 59 Z"/>
<defs>
  <clipPath id="z22545c1"><use href="#z22545d1"/></clipPath>
  <clipPath id="z22545c2"><use href="#z22545d2"/></clipPath>
  <clipPath id="z22545c3"><use href="#z22545d3"/></clipPath>
  <clipPath id="z22545c4"><use href="#z22545d4"/></clipPath>
  <clipPath id="z22545c5"><use href="#z22545d5"/></clipPath>
  <clipPath id="z22545c6"><use href="#z22545d6"/></clipPath>
  <clipPath id="z22545c7"><use href="#z22545d7"/></clipPath>
  <clipPath id="z22545c8"><use href="#z22545d8"/></clipPath>
  <clipPath id="z22545c9"><use href="#z22545d9"/></clipPath>
  <clipPath id="z22545c10"><use href="#z22545d10"/></clipPath>
  <clipPath id="z22545c11"><use href="#z22545d11"/></clipPath>
</defs>
<path style="--d:1s;" pathLength="3333" clip-path="url(#z22545c1)" d="M 209 683 L 278 678 L 433 711 L 487 714"/>
<path style="--d:2s;" pathLength="3333" clip-path="url(#z22545c2)" d="M 338 823 L 360 773 L 277 594 L 239 532 L 229 502 L 275 499 L 431 531 L 466 525"/>
<path style="--d:3s;" pathLength="3333" clip-path="url(#z22545c3)" d="M 350 621 L 368 604 L 379 581 L 376 302"/>
<path style="--d:4s;" pathLength="3333" clip-path="url(#z22545c4)" d="M 122 361 L 169 347 L 423 431 L 474 453"/>
<path style="--d:5s;" pathLength="3333" clip-path="url(#z22545c5)" d="M 723 804 L 731 793 L 737 763 L 631 694 L 621 693 L 620 683"/>
<path style="--d:6s;" pathLength="3333" clip-path="url(#z22545c6)" d="M 548 700 L 583 671 L 585 607 L 576 525 L 546 445 L 510 400 L 478 379"/>
<path style="--d:7s;" pathLength="3333" clip-path="url(#z22545c7)" d="M 608 573 L 651 587 L 818 615 L 841 616 L 875 606"/>
<path style="--d:8s;" pathLength="3333" clip-path="url(#z22545c8)" d="M 707 569 L 737 545 L 738 537 L 735 297"/>
<path style="--d:9s;" pathLength="3333" clip-path="url(#z22545c9)" d="M 308 199 L 366 188 L 548 210 L 663 235 L 711 230"/>
<path style="--d:10s;" pathLength="3333" clip-path="url(#z22545c10)" d="M 474 340 L 516 303 L 510 89 L 494 67"/>
<path style="--d:11s;" pathLength="3333" clip-path="url(#z22545c11)" d="M 179 26 L 213 15 L 253 15 L 439 37 L 786 59 L 821 54 L 872 36"/>
</svg>