<svg id="z20155" class="acjk" viewBox="0 0 1024 1024" xmlns="http://www.w3.org/2000/svg">
  <path id="z20155d1" d="M 532 697 Q 460 531 279 320 Q 269 310 266 303 Q 262 291 277 294 Q 316 298 426 437 Q 436 450 449 465 L 472 494 Q 515 552 562 626 Q 592 678 618 705 Q 628 715 623 730 Q 619 743 589 768 Q 561 787 542 787 Q 523 786 531 762 Q 546 726 532 697 Z"/>
  <path id="z20155d2" d="M 449 465 Q 473 399 475 391 Q 474 390 475 387 Q 481 239 453 119 Q 438 70 475 22 Q 476 19 480 16 Q 499 0 511 28 Q 526 70 526 118 Q 523 349 530 401 Q 537 429 527 440 Q 509 462 495 476 Q 485 486 472 494 C 447 511 439 493 449 465 Z"/>
<defs>
  <clipPath id="z20155c1"><use href="#z20155d1"/></clipPath>
  <clipPath id="z20155c2"><use href="#z20155d2"/></clipPath>
</defs>
<path style="--d:1s;" pathLength="3333" clip-path="url(#z20155c1)" d="M 542 772 L 559 758 L 579 723 L 542 648 L 483 550 L 403 439 L 304 324 L 275 303"/>
<path style="--d:2s;" pathLength="3333" clip-path="url(#z20155c2)" d="M 474 484 L 476 458 L 500 421 L 502 401 L 498 201 L 486 78 L 492 25"/>
</svg>