<svg id="z22402" class="acjk" viewBox="0 0 1024 1024" xmlns="http://www.w3.org/2000/svg">
  <path id="z22402d1" d="M 505 717 Q 586 742 637 744 Q 656 743 661 750 Q 665 760 655 775 Q 636 794 591 819 Q 575 829 561 829 Q 554 826 551 815 Q 550 797 489 767 Q 386 724 323 704 Q 316 695 322 692 Q 337 688 434 705 Q 444 706 455 707 L 505 717 Z"/>
  <path id="z22402d2" d="M 534 553 Q 597 563 663 572 Q 727 582 737 591 Q 747 598 742 608 Q 735 621 707 630 Q 676 637 645 628 Q 590 612 534 600 L 483 590 Q 398 577 300 573 Q 263 569 288 550 Q 333 522 387 533 Q 433 540 483 546 L 534 553 Z"/>
  <path id="z22402d3" d="M 526 79 Q 526 134 527 186 L 528 226 Q 528 301 530 369 L 531 404 Q 532 482 534 553 L 534 600 Q 534 603 535 605 Q 536 638 537 662 Q 544 683 534 694 Q 519 709 505 717 C 480 734 443 734 455 707 Q 480 656 483 601 Q 483 597 483 590 L 483 546 Q 483 497 481 399 L 481 364 Q 480 301 478 218 L 477 178 Q 476 129 476 72 C 476 42 526 49 526 79 Z"/>
  <path id="z22402d4" d="M 530 369 Q 587 373 660 374 L 706 376 Q 767 377 838 376 Q 923 373 931 384 Q 937 397 919 412 Q 858 460 796 444 Q 763 440 725 431 L 670 423 Q 606 416 531 404 L 481 399 Q 417 393 350 384 L 304 380 Q 208 371 106 360 Q 84 359 100 339 Q 116 323 135 317 Q 159 310 176 315 Q 240 331 312 342 L 354 350 Q 399 359 481 364 L 530 369 Z"/>
  <path id="z22402d5" d="M 350 384 Q 346 424 343 457 Q 344 476 324 482 Q 285 500 263 492 Q 245 483 261 464 Q 291 427 304 380 L 312 342 Q 319 311 324 282 Q 330 261 343 247 Q 356 237 361 249 Q 367 270 354 350 L 350 384 Z"/>
  <path id="z22402d6" d="M 660 374 Q 639 305 642 283 Q 643 270 659 281 Q 671 293 706 376 L 725 431 Q 734 458 751 489 Q 764 505 754 514 Q 741 530 706 547 Q 690 556 672 546 Q 662 539 671 529 Q 684 499 670 423 L 660 374 Z"/>
  <path id="z22402d7" d="M 527 186 Q 552 192 754 210 Q 766 207 775 221 Q 776 233 754 245 Q 714 269 653 250 Q 599 240 545 229 Q 536 228 528 226 L 478 218 Q 384 209 258 198 Q 227 195 250 176 Q 283 146 313 153 Q 386 166 477 178 L 527 186 Z"/>
  <path id="z22402d8" d="M 476 72 Q 382 60 273 47 Q 251 46 267 27 Q 282 12 300 7 Q 322 1 339 6 Q 453 33 725 34 Q 746 34 751 43 Q 757 55 740 69 Q 680 115 620 96 Q 580 90 526 79 L 476 72 Z"/>
<defs>
  <clipPath id="z22402c1"><use href="#z22402d1"/></clipPath>
  <clipPath id="z22402c2"><use href="#z22402d2"/></clipPath>
  <clipPath id="z22402c3"><use href="#z22402d3"/></clipPath>
  <clipPath id="z22402c4"><use href="#z22402d4"/></clipPath>
  <clipPath id="z22402c5"><use href="#z22402d5"/></clipPath>
  <clipPath id="z22402c6"><use href="#z22402d6"/></clipPath>
  <clipPath id="z22402c7"><use href="#z22402d7"/></clipPath>
  <clipPath id="z22402c8"><use href="#z22402d8"/></clipPath>
</defs>
<path style="--d:1s;" pathLength="3333" clip-path="url(#z22402c1)" d="M 652 756 L 579 779 L 482 737 L 325 698"/>
<path style="--d:2s;" pathLength="3333" clip-path="url(#z22402c2)" d="M 292 563 L 363 553 L 525 574 L 659 602 L 731 602"/>
<path style="--d:3s;" pathLength="3333" clip-path="url(#z22402c3)" d="M 463 702 L 505 675 L 509 614 L 502 118 L 501 101 L 481 80"/>
<path style="--d:4s;" pathLength="3333" clip-path="url(#z22402c4)" d="M 103 349 L 158 339 L 404 375 L 810 412 L 868 407 L 923 391"/>
<path style="--d:5s;" pathLength="3333" clip-path="url(#z22402c5)" d="M 269 478 L 310 452 L 352 252"/>
<path style="--d:6s;" pathLength="3333" clip-path="url(#z22402c6)" d="M 677 537 L 694 529 L 715 498 L 683 373 L 651 284"/>
<path style="--d:7s;" pathLength="3333" clip-path="url(#z22402c7)" d="M 252 188 L 304 177 L 696 232 L 763 223"/>
<path style="--d:8s;" pathLength="3333" clip-path="url(#z22402c8)" d="M 270 37 L 321 28 L 657 68 L 705 61 L 739 49"/>
</svg>