<svg id="z22434" class="acjk" viewBox="0 0 1024 1024" xmlns="http://www.w3.org/2000/svg">
  <path id="z22434d1" d="M 305 440 Q 393 474 395 476 Q 404 486 398 495 Q 388 508 354 511 Q 329 512 307 503 L 259 481 Q 198 457 141 444 Q 101 431 133 416 Q 178 400 252 423 Q 255 424 259 425 L 305 440 Z"/>
  <path id="z22434d2" d="M 298 272 Q 302 357 305 440 L 307 503 Q 310 653 330 723 Q 334 735 312 751 Q 275 770 248 775 Q 230 778 222 769 Q 215 760 223 744 Q 253 702 253 673 Q 257 582 259 481 L 259 425 Q 258 341 254 251 C 253 221 297 242 298 272 Z"/>
  <path id="z22434d3" d="M 254 251 Q 200 227 143 200 Q 125 191 94 187 Q 81 183 80 172 Q 80 157 91 151 Q 119 138 157 123 Q 167 122 179 133 Q 207 163 368 270 Q 390 285 406 302 Q 418 312 417 322 Q 410 326 398 322 Q 350 298 298 272 L 254 251 Z"/>
  <path id="z22434d4" d="M 548 616 Q 671 652 727 679 Q 775 698 816 707 Q 835 708 839 716 Q 843 728 830 739 Q 808 755 760 775 Q 744 782 730 781 Q 723 777 721 766 Q 721 732 530 635 C 503 621 519 608 548 616 Z"/>
  <path id="z22434d5" d="M 505 321 Q 506 333 510 343 Q 517 382 525 428 L 529 462 Q 535 513 540 571 Q 549 611 548 616 C 549 625 549 625 530 635 Q 485 660 471 659 Q 450 656 465 633 Q 502 564 457 331 Q 442 277 412 214 Q 388 165 306 81 Q 273 56 262 41 Q 261 34 272 34 Q 312 31 392 109 Q 464 181 497 290 L 505 321 Z"/>
  <path id="z22434d6" d="M 525 428 Q 552 419 572 427 Q 701 472 884 483 Q 897 484 912 486 Q 931 487 934 496 Q 938 506 922 518 Q 862 551 805 530 Q 637 488 529 462 C 500 455 496 436 525 428 Z"/>
  <path id="z22434d7" d="M 550 310 Q 537 316 509 321 Q 506 322 505 321 C 484 323 486 318 497 290 Q 525 221 542 110 Q 545 76 564 52 Q 582 30 587 45 Q 594 64 591 97 L 585 134 Q 567 237 564 274 C 561 304 561 306 550 310 Z"/>
  <path id="z22434d8" d="M 825 170 Q 852 261 888 285 Q 907 306 890 326 Q 799 390 749 357 Q 652 324 550 310 C 520 306 534 270 564 274 Q 577 275 595 280 Q 773 316 783 307 Q 793 297 791 276 Q 781 219 770 173 C 763 144 816 141 825 170 Z"/>
  <path id="z22434d9" d="M 591 97 Q 601 96 614 99 Q 686 115 842 129 Q 855 130 856 141 Q 856 150 825 170 L 770 173 Q 769 173 768 173 Q 668 148 585 134 C 555 129 561 97 591 97 Z"/>
<defs>
  <clipPath id="z22434c1"><use href="#z22434d1"/></clipPath>
  <clipPath id="z22434c2"><use href="#z22434d2"/></clipPath>
  <clipPath id="z22434c3"><use href="#z22434d3"/></clipPath>
  <clipPath id="z22434c4"><use href="#z22434d4"/></clipPath>
  <clipPath id="z22434c5"><use href="#z22434d5"/></clipPath>
  <clipPath id="z22434c6"><use href="#z22434d6"/></clipPath>
  <clipPath id="z22434c7"><use href="#z22434d7"/></clipPath>
  <clipPath id="z22434c8"><use href="#z22434d8"/></clipPath>
  <clipPath id="z22434c9"><use href="#z22434d9"/></clipPath>
</defs>
<path style="--d:1s;" pathLength="3333" clip-path="url(#z22434c1)" d="M 134 431 L 165 429 L 205 436 L 334 482 L 388 486"/>
<path style="--d:2s;" pathLength="3333" clip-path="url(#z22434c2)" d="M 234 759 L 286 716 L 279 311 L 277 286 L 257 259"/>
<path style="--d:3s;" pathLength="3333" clip-path="url(#z22434c3)" d="M 97 170 L 156 164 L 412 318"/>
<path style="--d:4s;" pathLength="3333" clip-path="url(#z22434c4)" d="M 828 722 L 753 732 L 679 687 L 608 653 L 554 631 L 544 639"/>
<path style="--d:5s;" pathLength="3333" clip-path="url(#z22434c5)" d="M 472 645 L 506 614 L 512 589 L 499 425 L 482 330 L 461 261 L 430 196 L 399 150 L 314 65 L 270 41"/>
<path style="--d:6s;" pathLength="3333" clip-path="url(#z22434c6)" d="M 535 433 L 545 443 L 634 468 L 832 508 L 878 509 L 923 500"/>
<path style="--d:7s;" pathLength="3333" clip-path="url(#z22434c7)" d="M 507 315 L 516 309 L 536 267 L 576 51"/>
<path style="--d:8s;" pathLength="3333" clip-path="url(#z22434c8)" d="M 559 306 L 583 295 L 774 338 L 807 331 L 837 303 L 804 199 L 777 178"/>
<path style="--d:9s;" pathLength="3333" clip-path="url(#z22434c9)" d="M 596 104 L 607 118 L 766 147 L 823 149 L 846 141"/>
</svg>