<svg id="z20982" class="acjk" viewBox="0 0 1024 1024" xmlns="http://www.w3.org/2000/svg">
  <path id="z20982d1" d="M 482 465 Q 431 401 301 280 Q 292 276 304 272 Q 373 284 498 414 Q 505 424 516 434 L 553 481 Q 596 539 656 638 Q 678 674 679 678 Q 678 688 664 700 Q 625 731 594 724 Q 585 723 588 709 Q 600 654 532 539 Q 522 524 513 508 L 482 465 Z"/>
  <path id="z20982d2" d="M 516 434 Q 583 373 657 300 Q 672 281 686 278 Q 693 277 701 286 Q 711 299 699 338 Q 690 383 553 481 L 513 508 Q 390 593 321 632 Q 312 636 311 625 Q 311 613 321 604 Q 397 543 482 465 L 516 434 Z"/>
  <path id="z20982d3" d="M 807 218 Q 494 205 256 153 Q 225 146 233 182 Q 240 276 248 374 Q 252 402 239 419 Q 220 440 191 455 Q 178 462 165 459 Q 152 453 162 431 Q 202 343 190 256 Q 183 172 149 134 Q 127 115 134 97 Q 147 78 168 64 Q 184 54 196 64 Q 211 80 252 95 Q 427 141 609 166 Q 757 185 800 174 C 830 170 837 219 807 218 Z"/>
  <path id="z20982d4" d="M 800 174 Q 785 111 803 72 Q 806 65 811 55 Q 821 36 837 50 Q 867 83 869 203 Q 869 209 870 216 Q 882 429 893 455 Q 896 467 902 479 Q 912 498 898 515 Q 874 534 834 556 Q 818 563 803 556 Q 793 552 797 535 Q 836 475 807 226 Q 807 223 807 218 L 800 174 Z"/>
<defs>
  <clipPath id="z20982c1"><use href="#z20982d1"/></clipPath>
  <clipPath id="z20982c2"><use href="#z20982d2"/></clipPath>
  <clipPath id="z20982c3"><use href="#z20982d3"/></clipPath>
  <clipPath id="z20982c4"><use href="#z20982d4"/></clipPath>
</defs>
<path style="--d:1s;" pathLength="3333" clip-path="url(#z20982c1)" d="M 596 714 L 611 704 L 630 674 L 590 585 L 537 500 L 433 377 L 372 323 L 307 278"/>
<path style="--d:2s;" pathLength="3333" clip-path="url(#z20982c2)" d="M 321 621 L 581 420 L 658 346 L 687 293"/>
<path style="--d:3s;" pathLength="3333" clip-path="url(#z20982c3)" d="M 172 446 L 204 410 L 215 384 L 217 279 L 200 158 L 201 125 L 233 121 L 500 172 L 695 195 L 784 197 L 798 182"/>
<path style="--d:4s;" pathLength="3333" clip-path="url(#z20982c4)" d="M 811 542 L 829 530 L 858 489 L 825 59"/>
</svg>