<svg id="z25288" class="acjk" viewBox="0 0 1024 1024" xmlns="http://www.w3.org/2000/svg">
  <path id="z25288d1" d="M 332 510 Q 362 520 393 527 Q 430 537 436 543 Q 445 552 440 560 Q 433 572 402 578 Q 369 582 334 565 L 285 546 Q 269 543 252 537 Q 200 524 140 515 Q 103 506 130 491 Q 175 467 234 486 Q 256 493 284 498 L 332 510 Z"/>
  <path id="z25288d2" d="M 279 314 Q 276 230 275 127 Q 274 102 261 94 Q 255 91 193 99 Q 160 111 163 101 Q 164 94 184 79 Q 242 30 257 3 Q 275 -28 289 -31 Q 304 -32 318 3 Q 337 48 335 121 Q 329 235 329 347 L 329 381 Q 329 445 332 510 L 334 565 Q 340 701 358 760 Q 374 790 320 813 Q 287 832 267 826 Q 251 819 265 796 Q 286 769 287 735 Q 288 716 285 546 L 284 498 Q 283 437 280 357 L 279 314 Z"/>
  <path id="z25288d3" d="M 329 347 Q 359 368 388 385 Q 412 397 424 412 Q 431 425 420 425 Q 417 425 329 381 L 280 357 Q 189 314 107 269 Q 71 251 47 246 Q 34 242 32 233 Q 31 224 44 209 Q 62 193 85 183 Q 100 179 115 192 Q 194 262 279 314 L 329 347 Z"/>
  <path id="z25288d4" d="M 646 328 Q 650 418 653 501 L 655 536 Q 658 677 677 745 Q 680 757 659 772 Q 622 791 597 795 Q 581 798 572 789 Q 565 782 573 766 Q 600 727 600 701 Q 610 524 602 319 C 601 289 645 298 646 328 Z"/>
  <path id="z25288d5" d="M 653 501 Q 695 497 777 518 Q 799 524 825 531 Q 844 537 846 540 Q 856 550 849 559 Q 839 572 806 576 Q 772 579 739 562 Q 718 553 696 547 Q 677 543 655 536 C 626 527 623 503 653 501 Z"/>
  <path id="z25288d6" d="M 498 303 Q 486 307 459 313 Q 446 317 443 311 Q 436 305 445 288 Q 479 213 496 93 Q 499 56 519 32 Q 538 10 543 25 Q 550 44 547 78 L 542 114 Q 523 226 518 265 C 514 295 514 298 498 303 Z"/>
  <path id="z25288d7" d="M 803 145 Q 836 245 873 275 Q 892 296 876 317 Q 795 378 737 356 Q 689 340 646 328 L 602 319 Q 550 310 498 303 C 468 299 489 259 518 265 Q 528 266 542 271 Q 639 287 730 304 Q 755 308 764 299 Q 776 287 772 264 Q 762 203 747 151 C 739 122 793 117 803 145 Z"/>
  <path id="z25288d8" d="M 547 78 Q 559 74 573 78 Q 651 94 818 106 Q 830 107 831 117 Q 831 126 803 145 L 747 151 Q 746 151 745 151 Q 633 126 542 114 C 512 110 518 84 547 78 Z"/>
<defs>
  <clipPath id="z25288c1"><use href="#z25288d1"/></clipPath>
  <clipPath id="z25288c2"><use href="#z25288d2"/></clipPath>
  <clipPath id="z25288c3"><use href="#z25288d3"/></clipPath>
  <clipPath id="z25288c4"><use href="#z25288d4"/></clipPath>
  <clipPath id="z25288c5"><use href="#z25288d5"/></clipPath>
  <clipPath id="z25288c6"><use href="#z25288d6"/></clipPath>
  <clipPath id="z25288c7"><use href="#z25288d7"/></clipPath>
  <clipPath id="z25288c8"><use href="#z25288d8"/></clipPath>
</defs>
<path style="--d:1s;" pathLength="3333" clip-path="url(#z25288c1)" d="M 132 504 L 155 499 L 206 502 L 373 550 L 429 554"/>
<path style="--d:2s;" pathLength="3333" clip-path="url(#z25288c2)" d="M 274 811 L 321 770 L 308 559 L 305 112 L 299 81 L 282 51 L 220 74 L 182 92 L 180 99 L 169 99"/>
<path style="--d:3s;" pathLength="3333" clip-path="url(#z25288c3)" d="M 45 230 L 92 221 L 202 293 L 421 418"/>
<path style="--d:4s;" pathLength="3333" clip-path="url(#z25288c4)" d="M 584 779 L 634 738 L 626 353 L 608 327"/>
<path style="--d:5s;" pathLength="3333" clip-path="url(#z25288c5)" d="M 659 507 L 674 521 L 787 549 L 839 551"/>
<path style="--d:6s;" pathLength="3333" clip-path="url(#z25288c6)" d="M 452 303 L 479 279 L 492 247 L 532 32"/>
<path style="--d:7s;" pathLength="3333" clip-path="url(#z25288c7)" d="M 506 299 L 530 287 L 737 330 L 768 332 L 786 326 L 815 302 L 821 294 L 819 283 L 783 176 L 755 156"/>
<path style="--d:8s;" pathLength="3333" clip-path="url(#z25288c8)" d="M 550 109 L 562 98 L 574 98 L 751 126 L 794 126 L 821 117"/>
</svg>