<svg id="z23644" class="acjk" viewBox="0 0 1024 1024" xmlns="http://www.w3.org/2000/svg">
  <path id="z23644d1" d="M 706 688 Q 737 745 765 760 Q 783 776 770 796 Q 694 859 645 834 Q 525 792 352 773 C 322 770 324 738 354 742 Q 372 742 633 792 Q 664 799 675 786 Q 682 777 678 761 Q 665 724 652 693 C 641 665 691 662 706 688 Z"/>
  <path id="z23644d2" d="M 331 607 Q 347 595 370 599 Q 481 627 719 651 Q 731 652 732 662 Q 732 671 706 688 C 687 701 681 700 652 693 Q 475 651 336 633 Q 335 633 334 632 C 305 626 305 621 331 607 Z"/>
  <path id="z23644d3" d="M 352 773 Q 336 789 306 804 Q 287 816 273 811 Q 260 804 267 789 Q 285 762 285 711 Q 258 465 221 355 L 207 317 Q 159 199 64 64 Q 58 57 56 51 Q 53 39 64 41 Q 97 45 190 177 Q 209 208 228 244 Q 300 400 331 607 L 334 632 Q 338 668 344 699 Q 347 721 353 740 Q 353 741 354 742 C 361 766 361 766 352 773 Z"/>
  <path id="z23644d4" d="M 401 529 Q 377 492 318 424 Q 311 411 324 413 Q 370 443 396 463 Q 450 508 469 516 Q 485 523 477 538 Q 467 551 445 563 Q 426 573 416 571 Q 406 570 409 559 Q 412 544 401 529 Z"/>
  <path id="z23644d5" d="M 370 278 Q 395 303 416 330 Q 447 370 463 387 Q 472 397 470 405 Q 466 417 444 422 Q 420 429 410 426 Q 404 425 402 414 Q 384 327 200 171 Q 182 158 205 161 Q 259 170 340 250 Q 341 251 343 252 L 370 278 Z"/>
  <path id="z23644d6" d="M 343 252 Q 367 201 337 64 Q 318 28 355 -23 Q 355 -24 357 -26 Q 372 -39 381 -17 Q 394 17 393 55 Q 394 187 400 217 Q 407 239 398 248 Q 383 266 372 277 Q 371 278 370 278 C 348 298 332 280 343 252 Z"/>
  <path id="z23644d7" d="M 563 299 Q 600 309 642 316 L 679 322 Q 710 329 752 332 L 792 336 Q 841 342 901 344 Q 953 344 960 353 Q 964 363 950 373 Q 902 404 844 385 Q 823 381 798 374 L 756 364 Q 684 355 678 349 L 641 342 Q 602 336 563 328 L 521 321 Q 485 317 449 310 Q 433 307 445 295 Q 457 285 471 281 Q 481 278 522 288 L 563 299 Z"/>
  <path id="z23644d8" d="M 642 316 Q 642 309 643 300 Q 646 176 654 157 Q 658 148 666 154 Q 670 158 674 173 Q 674 177 675 180 L 678 213 Q 678 219 679 322 L 678 349 Q 678 458 682 481 Q 688 497 677 506 Q 664 516 641 526 Q 622 532 604 524 Q 595 517 607 504 Q 631 468 641 342 L 642 316 Z"/>
  <path id="z23644d9" d="M 774 224 Q 783 282 792 336 L 798 374 Q 805 462 832 531 Q 836 540 820 554 Q 792 573 772 578 Q 759 582 752 576 Q 745 570 750 557 Q 768 526 766 505 Q 763 438 756 364 L 752 332 Q 746 283 739 228 C 735 198 769 194 774 224 Z"/>
  <path id="z23644d10" d="M 675 180 Q 682 179 692 181 Q 723 188 789 191 Q 799 192 800 201 Q 800 208 774 224 L 739 228 Q 733 228 728 226 Q 700 219 678 213 C 649 205 645 182 675 180 Z"/>
  <path id="z23644d11" d="M 522 288 Q 525 114 499 69 Q 478 62 504 18 Q 507 14 511 9 Q 520 2 535 13 Q 629 76 898 73 Q 920 72 920 83 Q 920 96 895 114 Q 882 126 851 120 Q 778 107 718 101 Q 657 98 585 85 Q 573 82 569 86 Q 565 87 564 97 Q 564 190 563 299 L 563 328 Q 563 433 561 435 Q 560 436 559 438 Q 550 445 525 457 Q 509 466 501 460 Q 497 454 502 442 Q 520 411 521 321 L 522 288 Z"/>
<defs>
  <clipPath id="z23644c1"><use href="#z23644d1"/></clipPath>
  <clipPath id="z23644c2"><use href="#z23644d2"/></clipPath>
  <clipPath id="z23644c3"><use href="#z23644d3"/></clipPath>
  <clipPath id="z23644c4"><use href="#z23644d4"/></clipPath>
  <clipPath id="z23644c5"><use href="#z23644d5"/></clipPath>
  <clipPath id="z23644c6"><use href="#z23644d6"/></clipPath>
  <clipPath id="z23644c7"><use href="#z23644d7"/></clipPath>
  <clipPath id="z23644c8"><use href="#z23644d8"/></clipPath>
  <clipPath id="z23644c9"><use href="#z23644d9"/></clipPath>
  <clipPath id="z23644c10"><use href="#z23644d10"/></clipPath>
  <clipPath id="z23644c11"><use href="#z23644d11"/></clipPath>
</defs>
<path style="--d:1s;" pathLength="3333" clip-path="url(#z23644c1)" d="M 355 750 L 398 765 L 539 786 L 631 811 L 675 816 L 693 810 L 722 780 L 688 715 L 659 697"/>
<path style="--d:2s;" pathLength="3333" clip-path="url(#z23644c2)" d="M 339 625 L 350 617 L 381 620 L 657 669 L 697 669 L 722 662"/>
<path style="--d:3s;" pathLength="3333" clip-path="url(#z23644c3)" d="M 279 798 L 310 767 L 318 743 L 297 569 L 256 383 L 221 286 L 166 178 L 106 94 L 65 50"/>
<path style="--d:4s;" pathLength="3333" clip-path="url(#z23644c4)" d="M 421 560 L 437 533 L 328 423"/>
<path style="--d:5s;" pathLength="3333" clip-path="url(#z23644c5)" d="M 456 402 L 429 395 L 378 318 L 307 242 L 247 192 L 208 169"/>
<path style="--d:6s;" pathLength="3333" clip-path="url(#z23644c6)" d="M 368 271 L 377 230 L 362 41 L 367 -17"/>
<path style="--d:7s;" pathLength="3333" clip-path="url(#z23644c7)" d="M 457 300 L 509 301 L 704 343 L 872 367 L 922 366 L 953 358"/>
<path style="--d:8s;" pathLength="3333" clip-path="url(#z23644c8)" d="M 613 515 L 631 507 L 650 481 L 662 306 L 661 161"/>
<path style="--d:9s;" pathLength="3333" clip-path="url(#z23644c9)" d="M 761 567 L 787 542 L 796 522 L 760 248 L 746 235"/>
<path style="--d:10s;" pathLength="3333" clip-path="url(#z23644c10)" d="M 679 185 L 700 201 L 737 208 L 773 207 L 791 200"/>
<path style="--d:11s;" pathLength="3333" clip-path="url(#z23644c11)" d="M 507 455 L 536 423 L 539 406 L 544 342 L 537 93 L 541 60 L 569 59 L 712 84 L 874 98 L 909 85"/>
</svg>