<svg id="z25783" class="acjk" viewBox="0 0 1024 1024" xmlns="http://www.w3.org/2000/svg">
  <path id="z25783d1" d="M 292 541 Q 353 559 357 562 Q 364 569 360 577 Q 353 587 325 592 Q 309 595 294 591 L 249 574 Q 185 553 126 543 Q 93 536 118 521 Q 160 500 207 518 Q 226 524 248 529 L 292 541 Z"/>
  <path id="z25783d2" d="M 243 347 Q 240 262 239 155 Q 238 133 225 123 Q 219 120 166 133 Q 138 146 139 137 Q 140 130 157 115 Q 209 66 221 40 Q 234 9 249 7 Q 262 6 277 37 Q 295 79 295 147 Q 289 267 289 386 L 289 415 Q 289 479 292 541 L 294 591 Q 301 720 315 761 Q 331 788 280 809 Q 249 827 232 820 Q 216 814 230 793 Q 249 768 250 737 Q 251 721 249 574 L 248 529 Q 247 468 244 386 L 243 347 Z"/>
  <path id="z25783d3" d="M 244 386 Q 70 275 66 272 Q 53 272 49 257 Q 48 250 61 238 Q 79 226 99 220 Q 108 219 126 234 Q 157 274 243 347 L 289 386 Q 340 431 341 433 Q 345 445 337 443 Q 330 443 289 415 L 244 386 Z"/>
  <path id="z25783d4" d="M 511 579 Q 544 589 579 597 Q 601 603 604 606 Q 611 613 607 621 Q 600 631 573 637 Q 531 643 514 626 L 468 611 Q 438 605 402 599 Q 369 592 394 577 Q 424 562 467 568 L 511 579 Z"/>
  <path id="z25783d5" d="M 503 486 Q 507 534 511 579 L 514 626 Q 520 719 535 767 Q 538 777 520 790 Q 489 808 466 812 Q 451 815 444 807 Q 437 800 444 786 Q 463 761 463 742 Q 467 681 468 611 L 467 568 Q 467 523 465 475 C 464 445 500 456 503 486 Z"/>
  <path id="z25783d6" d="M 465 475 Q 441 471 390 462 Q 368 458 386 446 Q 407 430 444 437 Q 480 446 529 455 Q 554 459 576 463 Q 583 462 590 472 Q 591 481 573 488 Q 546 504 503 486 L 465 475 Z"/>
  <path id="z25783d7" d="M 413 348 Q 403 355 370 360 Q 360 363 356 359 Q 352 353 358 339 Q 383 287 397 204 Q 398 179 414 162 Q 430 143 434 157 Q 440 175 435 210 L 430 239 Q 421 300 419 323 C 417 346 417 346 413 348 Z"/>
  <path id="z25783d8" d="M 558 255 Q 570 312 587 330 Q 606 354 585 365 Q 567 375 542 389 Q 526 396 509 386 Q 479 367 413 348 C 384 340 389 319 419 323 Q 429 324 439 327 Q 469 336 495 341 Q 513 345 517 339 Q 523 335 519 308 Q 516 286 512 261 C 507 231 552 226 558 255 Z"/>
  <path id="z25783d9" d="M 435 210 Q 439 210 445 211 Q 482 221 567 229 Q 576 230 576 238 Q 576 244 558 255 C 536 269 536 269 512 261 Q 511 261 509 260 Q 466 247 430 239 C 401 232 405 208 435 210 Z"/>
  <path id="z25783d10" d="M 732 639 Q 799 655 871 669 Q 905 678 911 682 Q 918 689 915 697 Q 908 707 882 715 Q 854 719 827 709 Q 788 696 746 685 Q 700 675 644 670 Q 611 664 635 649 Q 665 633 700 635 L 732 639 Z"/>
  <path id="z25783d11" d="M 699 524 Q 703 530 709 537 Q 722 553 736 572 Q 742 581 753 592 Q 766 601 759 610 Q 752 623 732 639 C 709 658 694 664 700 635 Q 706 617 678 540 Q 671 530 669 519 C 662 490 682 499 699 524 Z"/>
  <path id="z25783d12" d="M 664 518 Q 648 531 628 537 Q 621 538 615 532 Q 611 528 618 518 Q 649 430 622 293 Q 619 284 616 273 Q 609 251 613 235 Q 620 207 631 195 Q 640 183 649 195 Q 667 219 674 372 Q 674 468 681 493 C 683 504 683 504 664 518 Z"/>
  <path id="z25783d13" d="M 820 249 Q 813 228 825 208 Q 838 181 846 182 Q 859 183 874 213 Q 887 237 886 255 Q 862 450 898 502 Q 910 523 881 539 Q 860 552 832 564 Q 819 568 797 560 Q 766 544 725 531 Q 712 528 699 524 L 669 519 Q 666 519 664 518 C 634 513 652 485 681 493 Q 680 494 682 494 Q 803 524 814 519 Q 823 500 827 444 Q 828 281 820 249 Z"/>
  <path id="z25783d14" d="M 720 387 Q 726 188 673 113 Q 663 101 648 89 Q 623 67 564 39 Q 554 36 550 33 Q 546 29 558 25 Q 592 21 673 60 Q 730 90 747 159 Q 765 237 766 341 Q 766 375 778 415 Q 782 424 774 430 Q 759 443 729 455 Q 711 462 697 457 Q 681 450 695 436 Q 719 412 720 387 Z"/>
  <path id="z25783d15" d="M 777 138 Q 819 90 868 21 Q 880 2 893 -4 Q 900 -5 909 2 Q 922 12 915 54 Q 906 108 781 166 Q 774 172 770 161 Q 769 149 777 138 Z"/>
<defs>
  <clipPath id="z25783c1"><use href="#z25783d1"/></clipPath>
  <clipPath id="z25783c2"><use href="#z25783d2"/></clipPath>
  <clipPath id="z25783c3"><use href="#z25783d3"/></clipPath>
  <clipPath id="z25783c4"><use href="#z25783d4"/></clipPath>
  <clipPath id="z25783c5"><use href="#z25783d5"/></clipPath>
  <clipPath id="z25783c6"><use href="#z25783d6"/></clipPath>
  <clipPath id="z25783c7"><use href="#z25783d7"/></clipPath>
  <clipPath id="z25783c8"><use href="#z25783d8"/></clipPath>
  <clipPath id="z25783c9"><use href="#z25783d9"/></clipPath>
  <clipPath id="z25783c10"><use href="#z25783d10"/></clipPath>
  <clipPath id="z25783c11"><use href="#z25783d11"/></clipPath>
  <clipPath id="z25783c12"><use href="#z25783d12"/></clipPath>
  <clipPath id="z25783c13"><use href="#z25783d13"/></clipPath>
  <clipPath id="z25783c14"><use href="#z25783d14"/></clipPath>
  <clipPath id="z25783c15"><use href="#z25783d15"/></clipPath>
</defs>
<path style="--d:1s;" pathLength="3333" clip-path="url(#z25783c1)" d="M 119 533 L 143 528 L 180 532 L 305 570 L 350 571"/>
<path style="--d:2s;" pathLength="3333" clip-path="url(#z25783c2)" d="M 238 806 L 262 791 L 280 767 L 266 429 L 267 138 L 245 84 L 206 99 L 145 134"/>
<path style="--d:3s;" pathLength="3333" clip-path="url(#z25783c3)" d="M 63 257 L 100 255 L 217 351 L 336 437"/>
<path style="--d:4s;" pathLength="3333" clip-path="url(#z25783c4)" d="M 395 589 L 457 587 L 547 615 L 596 615"/>
<path style="--d:5s;" pathLength="3333" clip-path="url(#z25783c5)" d="M 456 797 L 496 763 L 486 511 L 485 501 L 470 483"/>
<path style="--d:6s;" pathLength="3333" clip-path="url(#z25783c6)" d="M 386 454 L 433 452 L 542 477 L 581 473"/>
<path style="--d:7s;" pathLength="3333" clip-path="url(#z25783c7)" d="M 363 353 L 393 323 L 424 161"/>
<path style="--d:8s;" pathLength="3333" clip-path="url(#z25783c8)" d="M 423 331 L 431 339 L 489 358 L 525 365 L 535 361 L 553 343 L 552 334 L 538 280 L 521 268"/>
<path style="--d:9s;" pathLength="3333" clip-path="url(#z25783c9)" d="M 439 218 L 452 229 L 507 241 L 567 238"/>
<path style="--d:10s;" pathLength="3333" clip-path="url(#z25783c10)" d="M 637 661 L 693 655 L 852 691 L 904 692"/>
<path style="--d:11s;" pathLength="3333" clip-path="url(#z25783c11)" d="M 706 633 L 727 605 L 690 534 L 676 523"/>
<path style="--d:12s;" pathLength="3333" clip-path="url(#z25783c12)" d="M 624 527 L 639 514 L 654 485 L 655 361 L 637 244 L 640 199"/>
<path style="--d:13s;" pathLength="3333" clip-path="url(#z25783c13)" d="M 678 514 L 687 507 L 819 542 L 840 530 L 854 513 L 855 263 L 847 192"/>
<path style="--d:14s;" pathLength="3333" clip-path="url(#z25783c14)" d="M 699 446 L 718 439 L 746 413 L 741 268 L 722 157 L 705 119 L 681 89 L 639 60 L 582 36 L 558 33"/>
<path style="--d:15s;" pathLength="3333" clip-path="url(#z25783c15)" d="M 779 156 L 873 69 L 889 41 L 895 9"/>
</svg>