<svg id="z25327" class="acjk" viewBox="0 0 1024 1024" xmlns="http://www.w3.org/2000/svg">
  <path id="z25327d1" d="M 343 515 Q 410 533 417 539 Q 424 548 420 556 Q 413 568 382 573 Q 363 577 345 572 L 295 553 Q 202 525 140 515 Q 103 506 130 491 Q 166 472 243 489 Q 267 495 294 502 L 343 515 Z"/>
  <path id="z25327d2" d="M 291 333 Q 288 243 287 128 Q 286 106 273 97 Q 267 93 201 100 Q 168 110 171 101 Q 172 94 193 79 Q 254 33 270 6 Q 289 -25 304 -27 Q 317 -27 332 7 Q 350 53 347 126 Q 340 250 340 375 L 340 406 Q 340 461 343 515 L 345 572 Q 345 665 366 736 Q 382 767 328 789 Q 294 808 275 801 Q 257 795 273 772 Q 295 745 295 711 Q 296 695 295 553 L 294 502 Q 293 447 291 375 L 291 333 Z"/>
  <path id="z25327d3" d="M 291 375 Q 203 320 127 267 Q 93 245 70 237 Q 57 230 56 222 Q 55 212 71 199 Q 90 184 115 178 Q 131 174 141 188 Q 217 272 291 333 L 340 375 Q 385 414 389 420 Q 395 433 384 432 Q 377 431 340 406 L 291 375 Z"/>
  <path id="z25327d4" d="M 660 530 Q 768 614 799 622 Q 818 629 812 644 Q 809 660 746 696 Q 728 706 706 698 Q 652 679 571 655 Q 550 648 499 650 Q 477 651 484 631 Q 491 619 510 608 Q 538 592 571 610 Q 590 617 682 654 Q 695 658 706 652 Q 716 645 712 632 Q 681 590 645 539 C 628 515 636 512 660 530 Z"/>
  <path id="z25327d5" d="M 674 431 Q 671 449 666 510 Q 666 523 660 530 L 645 539 Q 626 551 609 554 Q 599 558 592 553 Q 588 550 599 538 Q 641 474 634 268 Q 633 267 633 263 Q 629 232 619 213 Q 618 209 612 207 Q 603 207 544 222 Q 537 223 534 221 Q 533 217 540 209 Q 585 160 608 124 Q 615 112 622 114 Q 631 114 647 129 Q 686 165 682 301 Q 681 326 680 358 Q 679 379 677 395 L 674 431 Z"/>
  <path id="z25327d6" d="M 415 409 Q 405 409 405 403 Q 404 399 415 392 Q 449 373 469 380 Q 527 398 534 397 Q 544 396 537 373 Q 491 244 404 167 Q 394 157 401 156 Q 408 155 423 163 Q 520 217 589 373 Q 596 389 605 398 Q 615 407 610 414 Q 603 424 574 433 Q 559 440 515 423 Q 440 411 415 409 Z"/>
  <path id="z25327d7" d="M 726 378 Q 825 450 872 476 Q 890 480 886 491 Q 880 507 862 526 Q 843 544 821 546 Q 806 546 807 527 Q 811 503 712 391 C 692 368 702 360 726 378 Z"/>
  <path id="z25327d8" d="M 712 391 Q 693 410 674 431 C 654 453 660 420 677 395 Q 738 307 818 212 Q 833 196 858 196 Q 943 197 971 203 Q 978 204 980 209 Q 980 213 969 219 Q 843 270 788 320 Q 758 347 726 378 L 712 391 Z"/>
  <path id="z25327d9" d="M 433 69 Q 412 68 427 51 Q 440 38 457 31 Q 476 25 493 29 Q 655 65 847 46 Q 847 47 849 46 Q 868 46 874 54 Q 880 64 864 79 Q 807 122 745 105 Q 481 75 433 69 Z"/>
<defs>
  <clipPath id="z25327c1"><use href="#z25327d1"/></clipPath>
  <clipPath id="z25327c2"><use href="#z25327d2"/></clipPath>
  <clipPath id="z25327c3"><use href="#z25327d3"/></clipPath>
  <clipPath id="z25327c4"><use href="#z25327d4"/></clipPath>
  <clipPath id="z25327c5"><use href="#z25327d5"/></clipPath>
  <clipPath id="z25327c6"><use href="#z25327d6"/></clipPath>
  <clipPath id="z25327c7"><use href="#z25327d7"/></clipPath>
  <clipPath id="z25327c8"><use href="#z25327d8"/></clipPath>
  <clipPath id="z25327c9"><use href="#z25327d9"/></clipPath>
</defs>
<path style="--d:1s;" pathLength="3333" clip-path="url(#z25327c1)" d="M 132 504 L 197 503 L 356 547 L 408 549"/>
<path style="--d:2s;" pathLength="3333" clip-path="url(#z25327c2)" d="M 281 786 L 298 778 L 329 746 L 319 592 L 315 100 L 295 54 L 177 99"/>
<path style="--d:3s;" pathLength="3333" clip-path="url(#z25327c3)" d="M 69 220 L 117 217 L 231 311 L 384 425"/>
<path style="--d:4s;" pathLength="3333" clip-path="url(#z25327c4)" d="M 494 638 L 534 625 L 554 627 L 679 672 L 729 671 L 752 643 L 744 629 L 662 542 L 653 543"/>
<path style="--d:5s;" pathLength="3333" clip-path="url(#z25327c5)" d="M 597 550 L 629 525 L 644 497 L 658 350 L 654 227 L 645 196 L 626 169 L 540 216"/>
<path style="--d:6s;" pathLength="3333" clip-path="url(#z25327c6)" d="M 413 401 L 461 396 L 530 414 L 548 413 L 569 402 L 556 356 L 517 279 L 464 209 L 405 161"/>
<path style="--d:7s;" pathLength="3333" clip-path="url(#z25327c7)" d="M 821 532 L 832 518 L 836 497 L 729 396 L 731 390"/>
<path style="--d:8s;" pathLength="3333" clip-path="url(#z25327c8)" d="M 678 425 L 699 384 L 769 306 L 843 238 L 904 220 L 972 211"/>
<path style="--d:9s;" pathLength="3333" clip-path="url(#z25327c9)" d="M 430 60 L 484 51 L 640 73 L 771 81 L 818 76 L 863 60"/>
</svg>