<svg id="z28938" class="acjk" viewBox="0 0 1024 1024" xmlns="http://www.w3.org/2000/svg">
  <path id="z28938d1" d="M 134 573 Q 127 515 111 459 Q 99 426 126 397 Q 138 382 154 400 Q 190 448 173 527 Q 169 558 156 579 Q 149 586 144 585 Q 137 581 134 573 Z"/>
  <path id="z28938d2" d="M 290 519 Q 327 535 352 548 Q 400 578 431 587 Q 450 594 444 610 Q 434 626 413 641 Q 394 656 383 655 Q 371 655 374 643 Q 374 622 293 545 Q 292 545 291 543 C 269 522 262 507 290 519 Z"/>
  <path id="z28938d3" d="M 278 296 Q 285 356 290 519 L 291 543 Q 292 670 317 741 Q 324 756 313 766 Q 291 784 252 795 Q 227 801 219 794 Q 210 787 218 775 Q 281 673 232 310 Q 213 184 140 111 Q 119 92 95 71 Q 83 62 84 58 Q 85 54 97 56 Q 109 52 138 67 Q 250 115 273 267 L 278 296 Z"/>
  <path id="z28938d4" d="M 273 267 Q 280 263 346 194 Q 356 184 368 183 Q 377 183 381 193 Q 385 203 381 227 Q 374 263 281 296 Q 280 297 278 296 C 248 300 249 286 273 267 Z"/>
  <path id="z28938d5" d="M 514 771 Q 502 778 464 784 Q 452 788 449 782 Q 442 776 451 760 Q 482 693 501 583 Q 505 549 524 527 Q 542 505 547 521 Q 548 527 550 533 L 550 561 Q 547 595 537 640 L 533 662 Q 523 714 520 737 C 516 767 515 770 514 771 Z"/>
  <path id="z28938d6" d="M 716 555 Q 731 536 745 529 Q 755 522 771 543 Q 784 565 813 686 Q 823 717 846 743 Q 859 755 848 770 Q 832 786 789 814 Q 774 823 716 809 Q 703 808 688 804 Q 531 777 514 771 C 485 764 491 729 520 737 Q 589 756 712 772 Q 740 776 749 766 Q 761 753 758 739 Q 734 603 719 592 C 705 568 705 568 716 555 Z"/>
  <path id="z28938d7" d="M 537 640 Q 543 639 555 640 Q 634 656 692 665 Q 714 669 705 681 Q 695 694 671 698 Q 632 701 533 662 C 505 651 507 642 537 640 Z"/>
  <path id="z28938d8" d="M 550 533 Q 553 533 558 533 Q 645 546 716 555 C 746 559 749 588 719 592 Q 697 596 658 587 Q 601 574 550 561 C 521 554 520 533 550 533 Z"/>
  <path id="z28938d9" d="M 642 430 Q 801 466 802 466 Q 811 473 807 481 Q 800 491 774 499 Q 749 505 652 475 Q 511 453 489 450 Q 455 446 479 429 Q 513 408 584 420 L 642 430 Z"/>
  <path id="z28938d10" d="M 661 287 Q 751 302 923 301 Q 944 302 948 311 Q 954 323 936 337 Q 878 379 813 360 Q 752 348 662 330 L 603 320 Q 512 307 408 291 Q 386 288 403 271 Q 436 243 476 252 Q 534 270 603 279 L 661 287 Z"/>
  <path id="z28938d11" d="M 606 -23 Q 612 -48 618 -57 Q 624 -64 631 -62 Q 658 -44 658 170 Q 658 216 661 287 L 662 330 Q 662 331 663 333 Q 664 352 666 363 Q 669 379 671 391 Q 675 409 661 418 Q 651 425 642 430 C 616 446 572 448 584 420 Q 597 398 603 327 Q 602 324 603 320 L 603 279 Q 603 0 606 -23 Z"/>
<defs>
  <clipPath id="z28938c1"><use href="#z28938d1"/></clipPath>
  <clipPath id="z28938c2"><use href="#z28938d2"/></clipPath>
  <clipPath id="z28938c3"><use href="#z28938d3"/></clipPath>
  <clipPath id="z28938c4"><use href="#z28938d4"/></clipPath>
  <clipPath id="z28938c5"><use href="#z28938d5"/></clipPath>
  <clipPath id="z28938c6"><use href="#z28938d6"/></clipPath>
  <clipPath id="z28938c7"><use href="#z28938d7"/></clipPath>
  <clipPath id="z28938c8"><use href="#z28938d8"/></clipPath>
  <clipPath id="z28938c9"><use href="#z28938d9"/></clipPath>
  <clipPath id="z28938c10"><use href="#z28938d10"/></clipPath>
  <clipPath id="z28938c11"><use href="#z28938d11"/></clipPath>
</defs>
<path style="--d:1s;" pathLength="3333" clip-path="url(#z28938c1)" d="M 146 573 L 151 514 L 139 406"/>
<path style="--d:2s;" pathLength="3333" clip-path="url(#z28938c2)" d="M 386 644 L 398 611 L 310 546 L 296 525"/>
<path style="--d:3s;" pathLength="3333" clip-path="url(#z28938c3)" d="M 227 784 L 253 767 L 275 739 L 271 486 L 254 293 L 235 213 L 203 150 L 170 110 L 91 58"/>
<path style="--d:4s;" pathLength="3333" clip-path="url(#z28938c4)" d="M 280 288 L 349 231 L 368 197"/>
<path style="--d:5s;" pathLength="3333" clip-path="url(#z28938c5)" d="M 458 774 L 488 749 L 536 526"/>
<path style="--d:6s;" pathLength="3333" clip-path="url(#z28938c6)" d="M 518 766 L 533 758 L 731 794 L 765 790 L 779 782 L 800 754 L 751 580 L 751 548"/>
<path style="--d:7s;" pathLength="3333" clip-path="url(#z28938c7)" d="M 541 646 L 569 661 L 635 676 L 674 680 L 696 675"/>
<path style="--d:8s;" pathLength="3333" clip-path="url(#z28938c8)" d="M 554 540 L 576 552 L 698 573 L 712 586"/>
<path style="--d:9s;" pathLength="3333" clip-path="url(#z28938c9)" d="M 481 441 L 554 437 L 652 451 L 753 478 L 799 475"/>
<path style="--d:10s;" pathLength="3333" clip-path="url(#z28938c10)" d="M 405 281 L 443 273 L 465 275 L 692 315 L 841 333 L 902 328 L 936 317"/>
<path style="--d:11s;" pathLength="3333" clip-path="url(#z28938c11)" d="M 592 418 L 633 390 L 627 -54"/>
</svg>