<svg id="z24366" class="acjk" viewBox="0 0 1024 1024" xmlns="http://www.w3.org/2000/svg">
  <path id="z24366d1" d="M 322 726 Q 343 710 366 689 Q 379 679 392 680 Q 402 681 405 692 Q 409 705 399 731 Q 390 755 315 767 Q 302 770 296 767 Q 292 763 294 752 Q 298 742 322 726 Z"/>
  <path id="z24366d2" d="M 631 792 Q 613 764 576 721 Q 570 714 575 707 Q 582 706 590 709 Q 666 752 702 768 Q 721 772 717 783 Q 713 799 694 818 Q 676 837 654 840 Q 639 840 639 821 Q 640 808 631 792 Z"/>
  <path id="z24366d3" d="M 479 593 Q 540 606 606 617 Q 651 627 658 633 Q 667 640 663 648 Q 656 660 628 668 Q 600 674 570 663 Q 531 651 493 641 L 435 628 Q 383 621 326 616 Q 290 610 315 594 Q 351 570 422 583 L 479 593 Z"/>
  <path id="z24366d4" d="M 634 488 Q 694 494 806 493 Q 827 494 832 503 Q 838 515 820 529 Q 766 568 726 559 Q 638 540 487 514 Q 468 513 450 508 L 388 498 Q 294 486 193 471 Q 171 468 187 451 Q 202 438 221 432 Q 243 426 259 432 Q 310 447 365 456 L 429 467 Q 462 479 595 486 L 634 488 Z"/>
  <path id="z24366d5" d="M 450 508 Q 466 548 479 593 L 493 641 Q 520 732 536 757 Q 548 776 531 787 Q 483 830 455 822 Q 440 819 445 802 Q 467 751 435 628 L 422 583 Q 403 529 388 498 L 365 456 Q 278 323 153 263 Q 135 253 117 241 Q 102 232 115 229 Q 208 223 349 352 Q 364 368 377 385 L 386 396 Q 387 400 392 404 Q 396 416 429 467 L 450 508 Z"/>
  <path id="z24366d6" d="M 595 486 Q 671 396 756 312 Q 778 290 818 288 Q 890 285 964 301 Q 983 304 985 309 Q 986 316 971 321 Q 926 337 873 352 Q 749 392 634 488 C 611 507 576 509 595 486 Z"/>
  <path id="z24366d7" d="M 377 385 Q 381 381 394 375 Q 416 365 446 375 Q 569 396 575 390 Q 582 380 562 318 C 553 289 594 285 608 311 Q 632 357 654 368 Q 670 384 658 400 Q 595 455 539 427 Q 457 403 389 397 Q 388 397 386 396 C 366 393 366 393 377 385 Z"/>
  <path id="z24366d8" d="M 562 318 Q 558 318 555 317 Q 470 295 401 284 C 371 279 367 252 397 251 Q 404 250 415 252 Q 479 265 620 278 Q 630 279 632 287 Q 632 294 608 311 L 562 318 Z"/>
  <path id="z24366d9" d="M 401 284 Q 389 300 378 308 Q 359 318 350 316 Q 343 312 346 299 Q 361 233 299 174 Q 287 161 293 149 Q 300 137 319 121 Q 329 111 346 121 Q 421 160 617 172 Q 636 173 644 165 Q 653 152 645 131 Q 612 20 583 7 Q 570 1 484 23 Q 468 30 467 22 Q 466 12 484 -1 Q 520 -35 535 -63 Q 542 -88 562 -79 Q 604 -64 632 -29 Q 714 133 717 135 Q 721 141 727 143 Q 743 156 738 167 Q 728 180 684 208 Q 660 223 582 209 Q 531 209 385 177 Q 366 170 366 183 Q 382 229 397 251 C 410 274 410 274 401 284 Z"/>
<defs>
  <clipPath id="z24366c1"><use href="#z24366d1"/></clipPath>
  <clipPath id="z24366c2"><use href="#z24366d2"/></clipPath>
  <clipPath id="z24366c3"><use href="#z24366d3"/></clipPath>
  <clipPath id="z24366c4"><use href="#z24366d4"/></clipPath>
  <clipPath id="z24366c5"><use href="#z24366d5"/></clipPath>
  <clipPath id="z24366c6"><use href="#z24366d6"/></clipPath>
  <clipPath id="z24366c7"><use href="#z24366d7"/></clipPath>
  <clipPath id="z24366c8"><use href="#z24366d8"/></clipPath>
  <clipPath id="z24366c9"><use href="#z24366d9"/></clipPath>
</defs>
<path style="--d:1s;" pathLength="3333" clip-path="url(#z24366c1)" d="M 302 759 L 367 725 L 391 694"/>
<path style="--d:2s;" pathLength="3333" clip-path="url(#z24366c2)" d="M 654 825 L 670 792 L 582 714"/>
<path style="--d:3s;" pathLength="3333" clip-path="url(#z24366c3)" d="M 318 606 L 349 599 L 392 600 L 585 641 L 651 644"/>
<path style="--d:4s;" pathLength="3333" clip-path="url(#z24366c4)" d="M 190 461 L 241 453 L 482 496 L 736 527 L 785 521 L 820 509"/>
<path style="--d:5s;" pathLength="3333" clip-path="url(#z24366c5)" d="M 457 809 L 481 788 L 494 762 L 448 578 L 403 470 L 345 384 L 295 334 L 224 281 L 121 234"/>
<path style="--d:6s;" pathLength="3333" clip-path="url(#z24366c6)" d="M 602 481 L 631 471 L 729 383 L 798 335 L 881 318 L 979 310"/>
<path style="--d:7s;" pathLength="3333" clip-path="url(#z24366c7)" d="M 384 388 L 435 387 L 565 414 L 586 412 L 615 385 L 594 339 L 571 328"/>
<path style="--d:8s;" pathLength="3333" clip-path="url(#z24366c8)" d="M 401 256 L 425 272 L 552 294 L 598 295 L 623 286"/>
<path style="--d:9s;" pathLength="3333" clip-path="url(#z24366c9)" d="M 355 308 L 372 282 L 373 259 L 338 177 L 337 159 L 373 154 L 478 178 L 615 194 L 657 189 L 687 160 L 641 42 L 613 -6 L 596 -23 L 565 -34 L 474 19"/>
</svg>