<svg id="z28859" class="acjk" viewBox="0 0 1024 1024" xmlns="http://www.w3.org/2000/svg">
  <path id="z28859d1" d="M 111 535 Q 121 480 123 423 Q 123 387 156 368 Q 172 358 182 380 Q 201 437 162 503 Q 149 531 130 548 Q 121 552 116 549 Q 110 545 111 535 Z"/>
  <path id="z28859d2" d="M 308 491 Q 371 525 392 539 Q 408 552 431 560 Q 450 567 441 583 Q 431 599 409 612 Q 388 625 377 624 Q 367 623 369 611 Q 369 592 309 520 C 290 497 282 477 308 491 Z"/>
  <path id="z28859d3" d="M 297 305 Q 297 317 308 491 L 309 520 Q 310 632 336 706 Q 343 721 332 732 Q 308 751 267 762 Q 240 769 232 762 Q 222 755 230 741 Q 288 654 248 304 Q 227 184 165 120 Q 132 89 81 56 Q 68 47 68 43 Q 69 39 82 39 Q 95 35 130 50 Q 244 89 284 227 Q 288 249 293 273 L 297 305 Z"/>
  <path id="z28859d4" d="M 293 273 Q 294 272 299 268 Q 326 243 354 213 Q 364 203 377 203 Q 384 203 389 213 Q 393 223 388 247 Q 382 277 297 305 C 269 314 270 292 293 273 Z"/>
  <path id="z28859d5" d="M 633 582 Q 843 625 850 632 Q 860 641 855 650 Q 848 663 815 672 Q 784 678 681 646 Q 588 622 496 614 Q 454 607 484 588 Q 520 567 563 570 L 633 582 Z"/>
  <path id="z28859d6" d="M 552 347 Q 586 414 632 520 Q 639 539 646 547 Q 653 554 650 563 Q 646 573 633 582 C 611 603 559 600 563 570 Q 579 504 506 355 L 488 320 Q 434 227 307 80 Q 300 73 311 72 Q 399 111 506 267 L 552 347 Z"/>
  <path id="z28859d7" d="M 506 355 Q 502 356 498 357 Q 485 361 481 355 Q 474 348 483 331 Q 484 327 488 320 L 506 267 Q 521 216 532 149 Q 535 115 554 93 Q 573 68 580 86 Q 584 99 584 121 L 581 159 Q 563 274 559 310 L 506 355 Z"/>
  <path id="z28859d8" d="M 801 187 Q 828 289 865 318 Q 884 339 867 359 Q 783 419 726 390 Q 657 365 552 347 C 519 341 524 305 559 310 Q 574 311 734 342 Q 752 346 759 339 Q 771 329 768 305 Q 758 242 746 191 C 739 162 793 158 801 187 Z"/>
  <path id="z28859d9" d="M 584 121 Q 594 120 606 122 Q 673 135 818 146 Q 830 147 831 157 Q 831 166 801 187 C 784 199 775 197 746 191 L 745 191 Q 654 169 581 159 C 551 155 554 122 584 121 Z"/>
<defs>
  <clipPath id="z28859c1"><use href="#z28859d1"/></clipPath>
  <clipPath id="z28859c2"><use href="#z28859d2"/></clipPath>
  <clipPath id="z28859c3"><use href="#z28859d3"/></clipPath>
  <clipPath id="z28859c4"><use href="#z28859d4"/></clipPath>
  <clipPath id="z28859c5"><use href="#z28859d5"/></clipPath>
  <clipPath id="z28859c6"><use href="#z28859d6"/></clipPath>
  <clipPath id="z28859c7"><use href="#z28859d7"/></clipPath>
  <clipPath id="z28859c8"><use href="#z28859d8"/></clipPath>
  <clipPath id="z28859c9"><use href="#z28859d9"/></clipPath>
</defs>
<path style="--d:1s;" pathLength="3333" clip-path="url(#z28859c1)" d="M 122 539 L 145 483 L 165 382"/>
<path style="--d:2s;" pathLength="3333" clip-path="url(#z28859c2)" d="M 430 574 L 394 580 L 327 521 L 315 498"/>
<path style="--d:3s;" pathLength="3333" clip-path="url(#z28859c3)" d="M 240 751 L 267 733 L 291 707 L 287 478 L 273 303 L 257 226 L 231 166 L 198 120 L 132 68 L 75 42"/>
<path style="--d:4s;" pathLength="3333" clip-path="url(#z28859c4)" d="M 307 298 L 312 280 L 349 256 L 374 219"/>
<path style="--d:5s;" pathLength="3333" clip-path="url(#z28859c5)" d="M 487 603 L 509 596 L 566 596 L 643 608 L 771 641 L 817 647 L 843 644"/>
<path style="--d:6s;" pathLength="3333" clip-path="url(#z28859c6)" d="M 571 566 L 602 540 L 599 524 L 547 386 L 508 310 L 428 195 L 358 117 L 316 86 L 314 78"/>
<path style="--d:7s;" pathLength="3333" clip-path="url(#z28859c7)" d="M 490 347 L 530 293 L 568 92"/>
<path style="--d:8s;" pathLength="3333" clip-path="url(#z28859c8)" d="M 549 328 L 650 345 L 750 371 L 788 361 L 814 335 L 812 324 L 780 216 L 753 196"/>
<path style="--d:9s;" pathLength="3333" clip-path="url(#z28859c9)" d="M 589 128 L 607 143 L 726 163 L 798 166 L 821 157"/>
</svg>