<svg id="z26728" class="acjk" viewBox="0 0 1024 1024" xmlns="http://www.w3.org/2000/svg">
  <path id="z26728d1" d="M 237 675 Q 265 651 296 623 Q 309 611 323 612 Q 333 612 337 625 Q 341 638 333 665 Q 327 684 296 699 Q 221 726 212 719 Q 208 715 209 703 Q 212 693 237 675 Z"/>
  <path id="z26728d2" d="M 392 577 Q 194 466 159 458 Q 149 454 148 445 Q 149 433 159 428 Q 183 418 215 408 Q 225 407 234 417 Q 252 438 375 536 Q 382 543 391 550 C 414 569 418 592 392 577 Z"/>
  <path id="z26728d3" d="M 391 550 Q 388 409 396 387 Q 402 377 410 382 Q 429 401 430 474 Q 445 748 448 755 Q 457 774 444 785 Q 429 798 403 811 Q 382 818 360 810 Q 350 803 362 787 Q 392 745 392 577 L 391 550 Z"/>
  <path id="z26728d4" d="M 533 621 Q 563 657 588 687 L 600 705 Q 645 777 660 791 Q 667 800 663 811 Q 659 821 636 840 Q 614 853 598 854 Q 582 853 590 834 Q 605 798 543 694 Q 515 645 473 589 Q 466 582 463 576 Q 460 566 472 569 Q 484 570 521 608 L 533 621 Z"/>
  <path id="z26728d5" d="M 588 687 Q 612 669 686 687 Q 711 694 719 683 Q 723 674 708 648 Q 660 534 537 410 Q 524 397 538 398 Q 572 404 639 466 Q 642 470 647 474 Q 701 526 768 633 Q 786 661 818 690 Q 833 700 827 710 Q 824 719 764 740 Q 751 747 701 725 Q 653 712 600 705 C 570 701 560 699 588 687 Z"/>
  <path id="z26728d6" d="M 521 608 Q 540 568 576 541 Q 583 537 592 535 Q 602 534 609 548 Q 610 558 605 576 Q 598 591 576 601 Q 548 617 533 621 C 512 627 512 627 521 608 Z"/>
  <path id="z26728d7" d="M 547 289 Q 653 298 802 293 Q 832 292 858 291 Q 880 290 886 300 Q 893 313 875 328 Q 818 373 776 365 Q 682 349 525 329 L 476 323 Q 325 308 151 292 Q 127 291 144 271 Q 159 255 179 249 Q 201 242 220 246 Q 323 271 438 281 L 547 289 Z"/>
  <path id="z26728d8" d="M 525 329 Q 526 348 529 359 Q 532 371 525 376 Q 503 395 485 404 Q 475 408 466 401 Q 460 398 467 388 Q 476 375 476 323 L 476 247 Q 475 232 475 214 Q 468 79 459 58 Q 450 22 482 -25 Q 492 -43 499 -46 Q 509 -47 515 -35 Q 527 -5 524 23 Q 524 63 523 277 L 525 329 Z"/>
  <path id="z26728d9" d="M 438 281 Q 378 161 163 31 Q 145 21 161 18 Q 171 15 211 29 Q 263 45 313 79 Q 410 151 476 247 C 506 289 463 328 438 281 Z"/>
  <path id="z26728d10" d="M 523 277 Q 607 162 715 40 Q 734 21 766 22 Q 875 26 909 33 Q 919 36 920 41 Q 920 47 906 54 Q 753 105 669 177 Q 611 226 547 289 C 523 312 505 301 523 277 Z"/>
<defs>
  <clipPath id="z26728c1"><use href="#z26728d1"/></clipPath>
  <clipPath id="z26728c2"><use href="#z26728d2"/></clipPath>
  <clipPath id="z26728c3"><use href="#z26728d3"/></clipPath>
  <clipPath id="z26728c4"><use href="#z26728d4"/></clipPath>
  <clipPath id="z26728c5"><use href="#z26728d5"/></clipPath>
  <clipPath id="z26728c6"><use href="#z26728d6"/></clipPath>
  <clipPath id="z26728c7"><use href="#z26728d7"/></clipPath>
  <clipPath id="z26728c8"><use href="#z26728d8"/></clipPath>
  <clipPath id="z26728c9"><use href="#z26728d9"/></clipPath>
  <clipPath id="z26728c10"><use href="#z26728d10"/></clipPath>
</defs>
<path style="--d:1s;" pathLength="3333" clip-path="url(#z26728c1)" d="M 216 713 L 289 670 L 322 627"/>
<path style="--d:2s;" pathLength="3333" clip-path="url(#z26728c2)" d="M 162 444 L 213 444 L 380 557"/>
<path style="--d:3s;" pathLength="3333" clip-path="url(#z26728c3)" d="M 370 799 L 400 779 L 413 751 L 416 595 L 405 391"/>
<path style="--d:4s;" pathLength="3333" clip-path="url(#z26728c4)" d="M 598 842 L 624 809 L 621 792 L 553 672 L 505 607 L 470 576"/>
<path style="--d:5s;" pathLength="3333" clip-path="url(#z26728c5)" d="M 594 689 L 718 710 L 750 704 L 761 696 L 754 671 L 721 609 L 653 510 L 620 471 L 541 404"/>
<path style="--d:6s;" pathLength="3333" clip-path="url(#z26728c6)" d="M 536 612 L 592 551"/>
<path style="--d:7s;" pathLength="3333" clip-path="url(#z26728c7)" d="M 147 282 L 202 270 L 352 292 L 786 330 L 822 325 L 873 307"/>
<path style="--d:8s;" pathLength="3333" clip-path="url(#z26728c8)" d="M 474 395 L 502 357 L 501 214 L 491 47 L 501 -36"/>
<path style="--d:9s;" pathLength="3333" clip-path="url(#z26728c9)" d="M 470 278 L 407 194 L 331 120 L 260 70 L 165 24"/>
<path style="--d:10s;" pathLength="3333" clip-path="url(#z26728c10)" d="M 530 282 L 544 274 L 670 137 L 742 75 L 776 62 L 912 41"/>
</svg>