<svg id="z23577" class="acjk" viewBox="0 0 1024 1024" xmlns="http://www.w3.org/2000/svg">
  <path id="z23577d1" d="M 510 484 Q 528 743 541 792 Q 545 805 523 821 Q 447 860 429 840 Q 427 837 426 835 Q 423 827 436 808 Q 453 780 453 764 Q 465 626 463 478 C 463 448 508 454 510 484 Z"/>
  <path id="z23577d2" d="M 314 705 Q 316 695 304 674 Q 274 623 200 564 Q 184 556 184 551 Q 183 545 192 545 Q 234 545 318 608 Q 361 639 368 643 Q 378 649 377 661 Q 377 669 368 684 Q 349 715 327 721 Q 312 722 314 705 Z"/>
  <path id="z23577d3" d="M 612 720 Q 612 715 613 713 Q 615 706 634 692 Q 696 646 737 610 Q 757 592 772 590 Q 780 590 786 602 Q 796 615 778 657 Q 770 683 733 700 Q 704 712 621 729 Q 612 733 612 720 Z"/>
  <path id="z23577d4" d="M 225 437 Q 202 462 162 456 Q 147 450 155 437 Q 206 345 172 175 Q 148 100 188 57 Q 196 44 208 50 Q 241 77 239 188 Q 237 332 237 394 C 237 424 237 426 225 437 Z"/>
  <path id="z23577d5" d="M 237 394 Q 246 394 270 402 Q 395 444 770 466 Q 786 466 793 458 Q 802 452 801 410 Q 802 232 778 132 Q 769 92 735 98 Q 662 114 661 114 Q 661 113 660 110 Q 659 109 661 104 Q 664 92 694 57 Q 739 6 752 -24 Q 759 -37 768 -39 Q 786 -43 804 -10 Q 829 27 843 80 Q 860 155 879 379 Q 884 423 898 445 Q 918 469 902 476 Q 884 494 839 515 Q 830 521 824 525 Q 812 529 789 525 Q 713 510 659 503 Q 580 496 510 484 L 463 478 Q 423 474 394 467 Q 308 449 225 437 C 195 432 208 387 237 394 Z"/>
  <path id="z23577d6" d="M 388 326 Q 384 328 378 330 Q 335 345 330 337 Q 323 331 331 314 Q 356 265 369 182 Q 370 157 385 141 Q 404 119 409 133 Q 413 145 413 163 L 410 196 Q 400 272 400 296 C 399 321 399 321 388 326 Z"/>
  <path id="z23577d7" d="M 600 213 Q 624 274 653 293 Q 668 312 655 328 Q 639 341 590 368 Q 588 368 584 369 Q 573 372 549 367 Q 466 342 388 326 C 359 320 371 289 400 296 Q 549 331 563 318 Q 576 304 549 223 C 540 194 589 185 600 213 Z"/>
  <path id="z23577d8" d="M 413 163 Q 419 162 430 163 Q 518 176 606 182 Q 615 183 617 192 Q 617 200 600 213 L 549 223 Q 541 223 529 220 Q 466 204 410 196 C 380 192 383 165 413 163 Z"/>
<defs>
  <clipPath id="z23577c1"><use href="#z23577d1"/></clipPath>
  <clipPath id="z23577c2"><use href="#z23577d2"/></clipPath>
  <clipPath id="z23577c3"><use href="#z23577d3"/></clipPath>
  <clipPath id="z23577c4"><use href="#z23577d4"/></clipPath>
  <clipPath id="z23577c5"><use href="#z23577d5"/></clipPath>
  <clipPath id="z23577c6"><use href="#z23577d6"/></clipPath>
  <clipPath id="z23577c7"><use href="#z23577d7"/></clipPath>
  <clipPath id="z23577c8"><use href="#z23577d8"/></clipPath>
</defs>
<path style="--d:1s;" pathLength="3333" clip-path="url(#z23577c1)" d="M 439 831 L 477 806 L 494 784 L 489 523 L 487 506 L 470 486"/>
<path style="--d:2s;" pathLength="3333" clip-path="url(#z23577c2)" d="M 325 710 L 333 698 L 338 664 L 251 583 L 190 551"/>
<path style="--d:3s;" pathLength="3333" clip-path="url(#z23577c3)" d="M 623 718 L 725 666 L 754 637 L 771 605"/>
<path style="--d:4s;" pathLength="3333" clip-path="url(#z23577c4)" d="M 164 445 L 195 423 L 209 367 L 211 257 L 199 118 L 201 62"/>
<path style="--d:5s;" pathLength="3333" clip-path="url(#z23577c5)" d="M 234 432 L 257 420 L 358 443 L 577 474 L 786 495 L 815 488 L 844 460 L 847 447 L 830 229 L 808 100 L 795 72 L 773 47 L 705 79 L 662 112"/>
<path style="--d:6s;" pathLength="3333" clip-path="url(#z23577c6)" d="M 337 329 L 363 307 L 372 291 L 398 141"/>
<path style="--d:7s;" pathLength="3333" clip-path="url(#z23577c7)" d="M 396 323 L 413 314 L 532 342 L 571 344 L 585 338 L 608 309 L 584 244 L 558 234"/>
<path style="--d:8s;" pathLength="3333" clip-path="url(#z23577c8)" d="M 417 169 L 429 181 L 546 200 L 606 193"/>
</svg>