<svg id="z25720" class="acjk" viewBox="0 0 1024 1024" xmlns="http://www.w3.org/2000/svg">
  <path id="z25720d1" d="M 308 555 Q 386 577 392 582 Q 399 589 395 597 Q 388 607 361 613 Q 333 617 309 605 L 262 587 Q 126 557 122 555 Q 89 548 114 533 Q 150 515 227 534 Q 243 538 261 543 L 308 555 Z"/>
  <path id="z25720d2" d="M 258 352 Q 257 256 255 133 Q 254 109 241 100 Q 237 97 168 111 Q 137 123 139 113 Q 140 106 159 91 Q 220 42 235 14 Q 253 -19 268 -20 Q 281 -21 296 12 Q 314 55 313 127 Q 306 259 305 390 L 305 422 Q 305 489 308 555 L 309 605 Q 321 743 329 763 Q 345 791 292 813 Q 261 831 241 825 Q 225 818 240 796 Q 259 771 261 738 Q 262 722 262 587 L 261 543 Q 260 480 258 395 L 258 352 Z"/>
  <path id="z25720d3" d="M 258 395 Q 176 349 104 301 Q 70 282 49 275 Q 36 269 35 262 Q 34 253 48 240 Q 67 225 89 218 Q 104 214 114 226 Q 195 308 258 352 L 305 390 Q 374 444 377 448 Q 383 461 372 460 Q 363 460 305 422 L 258 395 Z"/>
  <path id="z25720d4" d="M 719 686 Q 761 695 839 692 Q 852 691 856 699 Q 860 708 849 720 Q 807 750 737 731 L 680 720 Q 623 710 559 698 L 515 691 Q 469 685 419 678 Q 395 674 412 662 Q 448 641 514 657 Q 517 658 523 659 L 561 668 Q 595 677 670 682 L 719 686 Z"/>
  <path id="z25720d5" d="M 559 698 Q 556 732 555 759 Q 556 777 539 783 Q 500 801 482 794 Q 466 787 479 769 Q 494 750 515 691 L 523 659 Q 526 623 544 603 Q 556 593 560 604 Q 566 620 561 668 L 559 698 Z"/>
  <path id="z25720d6" d="M 737 731 Q 746 759 766 792 Q 779 808 769 818 Q 757 834 722 852 Q 706 861 688 852 Q 678 846 686 835 Q 696 813 693 787 Q 689 757 680 720 L 670 682 Q 652 624 654 603 Q 655 590 671 601 Q 683 610 719 686 L 737 731 Z"/>
  <path id="z25720d7" d="M 477 547 Q 467 551 442 557 Q 430 560 427 555 Q 420 549 428 534 Q 456 474 470 376 Q 473 348 489 327 Q 505 306 511 321 Q 515 333 515 350 L 513 371 Q 513 378 512 385 Q 508 413 504 435 L 500 457 Q 494 500 493 517 C 491 542 491 542 477 547 Z"/>
  <path id="z25720d8" d="M 692 372 Q 705 350 720 341 Q 730 334 746 353 Q 759 372 791 473 Q 801 503 824 526 Q 837 536 826 551 Q 813 567 772 594 Q 756 603 691 588 Q 673 588 477 547 C 448 541 464 509 493 517 Q 566 538 697 558 Q 725 562 735 553 Q 744 540 742 528 Q 720 429 711 414 Q 705 402 693 401 C 678 393 678 393 692 372 Z"/>
  <path id="z25720d9" d="M 504 435 Q 511 434 523 435 Q 605 447 667 453 Q 689 457 681 469 Q 671 482 647 487 Q 626 491 500 457 C 471 449 474 437 504 435 Z"/>
  <path id="z25720d10" d="M 597 359 Q 646 368 692 372 C 722 375 722 395 693 401 Q 692 402 689 402 Q 676 405 513 371 C 484 365 485 352 515 350 Q 522 349 534 350 Q 541 351 551 352 L 597 359 Z"/>
  <path id="z25720d11" d="M 612 233 Q 702 246 912 247 Q 931 247 935 255 Q 939 265 925 279 Q 876 315 841 307 Q 763 291 628 270 Q 624 270 621 268 L 562 260 Q 471 250 368 237 Q 349 234 362 219 Q 375 206 392 201 Q 411 197 427 200 Q 488 218 556 226 L 612 233 Z"/>
  <path id="z25720d12" d="M 621 268 Q 630 313 636 321 Q 643 328 637 338 Q 631 345 603 356 Q 599 357 597 359 C 570 371 541 380 551 352 Q 569 309 562 260 L 556 226 Q 535 121 381 50 Q 366 44 349 37 Q 324 27 353 24 Q 441 20 533 92 Q 537 98 544 103 Q 581 143 603 205 L 621 268 Z"/>
  <path id="z25720d13" d="M 603 205 Q 675 111 767 10 Q 798 -17 939 17 Q 946 21 948 25 Q 948 29 936 36 Q 789 88 688 170 Q 651 198 612 233 L 611 233 C 587 251 585 229 603 205 Z"/>
<defs>
  <clipPath id="z25720c1"><use href="#z25720d1"/></clipPath>
  <clipPath id="z25720c2"><use href="#z25720d2"/></clipPath>
  <clipPath id="z25720c3"><use href="#z25720d3"/></clipPath>
  <clipPath id="z25720c4"><use href="#z25720d4"/></clipPath>
  <clipPath id="z25720c5"><use href="#z25720d5"/></clipPath>
  <clipPath id="z25720c6"><use href="#z25720d6"/></clipPath>
  <clipPath id="z25720c7"><use href="#z25720d7"/></clipPath>
  <clipPath id="z25720c8"><use href="#z25720d8"/></clipPath>
  <clipPath id="z25720c9"><use href="#z25720d9"/></clipPath>
  <clipPath id="z25720c10"><use href="#z25720d10"/></clipPath>
  <clipPath id="z25720c11"><use href="#z25720d11"/></clipPath>
  <clipPath id="z25720c12"><use href="#z25720d12"/></clipPath>
  <clipPath id="z25720c13"><use href="#z25720d13"/></clipPath>
</defs>
<path style="--d:1s;" pathLength="3333" clip-path="url(#z25720c1)" d="M 115 545 L 143 542 L 196 549 L 342 590 L 384 591"/>
<path style="--d:2s;" pathLength="3333" clip-path="url(#z25720c2)" d="M 248 811 L 288 778 L 293 762 L 281 436 L 284 118 L 277 88 L 261 58 L 145 111"/>
<path style="--d:3s;" pathLength="3333" clip-path="url(#z25720c3)" d="M 46 260 L 96 257 L 184 325 L 371 453"/>
<path style="--d:4s;" pathLength="3333" clip-path="url(#z25720c4)" d="M 414 671 L 433 666 L 502 671 L 585 689 L 765 715 L 825 712 L 845 704"/>
<path style="--d:5s;" pathLength="3333" clip-path="url(#z25720c5)" d="M 487 781 L 525 751 L 552 607"/>
<path style="--d:6s;" pathLength="3333" clip-path="url(#z25720c6)" d="M 693 843 L 709 834 L 731 804 L 700 700 L 663 604"/>
<path style="--d:7s;" pathLength="3333" clip-path="url(#z25720c7)" d="M 436 547 L 459 526 L 467 510 L 501 327"/>
<path style="--d:8s;" pathLength="3333" clip-path="url(#z25720c8)" d="M 491 548 L 505 536 L 519 543 L 704 575 L 741 575 L 759 568 L 781 537 L 754 450 L 738 403 L 723 381 L 702 393"/>
<path style="--d:9s;" pathLength="3333" clip-path="url(#z25720c9)" d="M 509 442 L 538 454 L 610 466 L 650 469 L 671 463"/>
<path style="--d:10s;" pathLength="3333" clip-path="url(#z25720c10)" d="M 519 356 L 553 368 L 677 386 L 689 394"/>
<path style="--d:11s;" pathLength="3333" clip-path="url(#z25720c11)" d="M 366 228 L 419 221 L 677 260 L 851 277 L 890 273 L 925 260"/>
<path style="--d:12s;" pathLength="3333" clip-path="url(#z25720c12)" d="M 560 347 L 597 320 L 581 218 L 553 155 L 522 114 L 461 69 L 386 37 L 357 32"/>
<path style="--d:13s;" pathLength="3333" clip-path="url(#z25720c13)" d="M 612 225 L 619 208 L 683 142 L 797 45 L 856 32 L 941 24"/>
</svg>