<svg id="z27777" class="acjk" viewBox="0 0 1024 1024" xmlns="http://www.w3.org/2000/svg">
  <path id="z27777d1" d="M 236 708 Q 267 680 301 647 Q 316 634 332 634 Q 342 635 349 649 Q 353 664 345 695 Q 333 729 231 758 Q 215 762 208 759 Q 202 755 204 742 Q 208 730 236 708 Z"/>
  <path id="z27777d2" d="M 127 520 Q 175 466 210 450 Q 226 447 235 461 Q 241 474 238 491 Q 223 536 140 559 Q 124 563 113 560 Q 107 559 110 546 Q 111 534 127 520 Z"/>
  <path id="z27777d3" d="M 119 151 Q 109 147 110 130 Q 128 58 158 41 Q 165 34 175 37 Q 182 38 183 63 Q 189 109 286 365 Q 292 381 291 386 Q 290 396 281 389 Q 274 385 159 194 Q 147 172 119 151 Z"/>
  <path id="z27777d4" d="M 361 430 Q 342 366 311 308 Q 293 278 313 247 Q 320 231 339 244 Q 358 260 369 290 Q 388 338 389 379 Q 390 409 383 431 Q 379 438 372 439 Q 365 438 361 430 Z"/>
  <path id="z27777d5" d="M 895 195 Q 892 207 873 224 Q 843 251 765 342 Q 759 349 753 350 Q 750 349 751 341 Q 764 298 776 248 Q 780 227 768 216 Q 732 189 627 208 Q 548 227 522 289 Q 507 329 500 373 Q 497 398 479 411 Q 466 421 458 416 Q 457 416 474 324 Q 486 234 534 189 Q 630 113 804 146 Q 805 147 810 148 Q 844 157 882 181 Q 897 188 895 195 Z"/>
  <path id="z27777d6" d="M 538 535 Q 563 508 591 476 Q 604 461 620 461 Q 630 460 637 473 Q 643 486 637 518 Q 630 552 538 584 Q 523 588 516 587 Q 510 583 511 570 Q 514 560 538 535 Z"/>
  <path id="z27777d7" d="M 774 554 Q 823 514 881 456 Q 897 437 913 433 Q 922 432 929 443 Q 941 456 926 499 Q 910 551 774 585 Q 764 589 763 577 Q 763 564 774 554 Z"/>
<defs>
  <clipPath id="z27777c1"><use href="#z27777d1"/></clipPath>
  <clipPath id="z27777c2"><use href="#z27777d2"/></clipPath>
  <clipPath id="z27777c3"><use href="#z27777d3"/></clipPath>
  <clipPath id="z27777c4"><use href="#z27777d4"/></clipPath>
  <clipPath id="z27777c5"><use href="#z27777d5"/></clipPath>
  <clipPath id="z27777c6"><use href="#z27777d6"/></clipPath>
  <clipPath id="z27777c7"><use href="#z27777d7"/></clipPath>
</defs>
<path style="--d:1s;" pathLength="3333" clip-path="url(#z27777c1)" d="M 214 751 L 303 693 L 329 652"/>
<path style="--d:2s;" pathLength="3333" clip-path="url(#z27777c2)" d="M 120 551 L 199 495 L 215 472"/>
<path style="--d:3s;" pathLength="3333" clip-path="url(#z27777c3)" d="M 170 47 L 157 85 L 155 126 L 179 164 L 285 384"/>
<path style="--d:4s;" pathLength="3333" clip-path="url(#z27777c4)" d="M 372 428 L 360 348 L 332 282 L 327 253"/>
<path style="--d:5s;" pathLength="3333" clip-path="url(#z27777c5)" d="M 463 415 L 483 377 L 486 341 L 518 248 L 566 201 L 622 177 L 721 168 L 771 176 L 814 199 L 820 208 L 805 254 L 758 344"/>
<path style="--d:6s;" pathLength="3333" clip-path="url(#z27777c6)" d="M 520 580 L 605 511 L 620 479"/>
<path style="--d:7s;" pathLength="3333" clip-path="url(#z27777c7)" d="M 774 573 L 822 547 L 881 504 L 900 481 L 914 450"/>
</svg>