<svg id="z29433" class="acjk" viewBox="0 0 1024 1024" xmlns="http://www.w3.org/2000/svg">
  <path id="z29433d1" d="M 301 581 L 339 631 Q 376 683 409 726 Q 421 739 407 755 Q 364 794 337 792 Q 325 791 327 775 Q 328 705 273 623 L 242 582 Q 212 545 178 514 Q 141 483 122 465 Q 112 449 129 453 Q 171 456 264 541 L 301 581 Z"/>
  <path id="z29433d2" d="M 302 384 Q 320 230 279 101 Q 275 88 267 87 Q 251 84 206 96 Q 175 106 170 100 Q 166 94 177 81 Q 220 44 247 9 Q 266 -19 276 -18 Q 283 -21 297 -5 Q 381 94 345 431 Q 339 468 332 499 Q 319 548 301 581 L 273 623 Q 234 680 171 709 Q 158 719 152 707 Q 148 692 153 672 Q 160 651 179 646 Q 206 634 242 582 L 264 541 Q 279 508 289 467 L 302 384 Z"/>
  <path id="z29433d3" d="M 289 467 Q 226 340 64 167 Q 57 157 69 155 Q 88 151 201 256 Q 253 305 302 384 C 318 409 303 494 289 467 Z"/>
  <path id="z29433d4" d="M 635 558 Q 794 594 798 597 Q 807 604 803 613 Q 796 623 768 631 Q 747 637 637 604 L 587 592 Q 529 582 465 576 Q 431 570 455 554 Q 494 530 551 543 Q 566 547 587 549 L 635 558 Z"/>
  <path id="z29433d5" d="M 617 316 Q 629 394 635 558 L 637 604 Q 638 701 661 758 Q 668 773 656 785 Q 632 804 591 814 Q 564 821 556 813 Q 546 806 555 793 Q 579 756 583 706 Q 586 649 587 592 L 587 549 Q 581 294 521 199 Q 464 126 377 68 Q 364 59 364 55 Q 365 51 378 51 Q 394 47 433 64 Q 566 116 609 275 Q 609 278 610 280 L 617 316 Z"/>
  <path id="z29433d6" d="M 610 280 Q 686 162 784 37 Q 803 15 834 15 Q 942 14 976 18 Q 986 19 988 25 Q 989 31 975 38 Q 825 101 767 159 Q 697 226 617 316 C 597 338 594 305 610 280 Z"/>
  <path id="z29433d7" d="M 459 393 Q 496 450 505 461 Q 512 471 502 481 Q 469 506 451 504 Q 442 503 444 491 Q 453 425 386 350 Q 370 332 361 321 Q 354 311 366 313 Q 393 316 444 374 L 459 393 Z"/>
  <path id="z29433d8" d="M 444 374 Q 495 311 515 310 Q 527 309 533 324 Q 534 336 526 353 Q 517 374 459 393 C 431 402 425 397 444 374 Z"/>
  <path id="z29433d9" d="M 763 405 Q 775 420 786 434 Q 808 462 827 486 Q 837 496 824 511 Q 788 542 765 540 Q 755 539 756 525 Q 765 455 671 359 Q 665 353 661 347 Q 654 334 667 337 Q 689 340 746 388 L 763 405 Z"/>
  <path id="z29433d10" d="M 746 388 Q 750 381 768 366 Q 796 341 824 313 Q 834 301 848 302 Q 857 302 861 313 Q 865 325 859 349 Q 855 368 826 383 Q 798 396 766 405 Q 765 406 763 405 C 733 408 731 408 746 388 Z"/>
<defs>
  <clipPath id="z29433c1"><use href="#z29433d1"/></clipPath>
  <clipPath id="z29433c2"><use href="#z29433d2"/></clipPath>
  <clipPath id="z29433c3"><use href="#z29433d3"/></clipPath>
  <clipPath id="z29433c4"><use href="#z29433d4"/></clipPath>
  <clipPath id="z29433c5"><use href="#z29433d5"/></clipPath>
  <clipPath id="z29433c6"><use href="#z29433d6"/></clipPath>
  <clipPath id="z29433c7"><use href="#z29433d7"/></clipPath>
  <clipPath id="z29433c8"><use href="#z29433d8"/></clipPath>
  <clipPath id="z29433c9"><use href="#z29433d9"/></clipPath>
  <clipPath id="z29433c10"><use href="#z29433d10"/></clipPath>
</defs>
<path style="--d:1s;" pathLength="3333" clip-path="url(#z29433c1)" d="M 338 780 L 355 759 L 364 734 L 314 640 L 228 534 L 187 498 L 132 463"/>
<path style="--d:2s;" pathLength="3333" clip-path="url(#z29433c2)" d="M 162 703 L 173 682 L 241 626 L 287 553 L 313 475 L 332 307 L 331 230 L 321 146 L 297 66 L 276 43 L 175 96"/>
<path style="--d:3s;" pathLength="3333" clip-path="url(#z29433c3)" d="M 290 460 L 275 389 L 250 351 L 178 261 L 71 163"/>
<path style="--d:4s;" pathLength="3333" clip-path="url(#z29433c4)" d="M 458 566 L 513 559 L 644 581 L 759 610 L 793 607"/>
<path style="--d:5s;" pathLength="3333" clip-path="url(#z29433c5)" d="M 563 803 L 616 760 L 605 425 L 586 291 L 559 214 L 528 165 L 469 108 L 418 75 L 371 54"/>
<path style="--d:6s;" pathLength="3333" clip-path="url(#z29433c6)" d="M 622 309 L 626 282 L 635 270 L 743 139 L 813 70 L 868 49 L 980 25"/>
<path style="--d:7s;" pathLength="3333" clip-path="url(#z29433c7)" d="M 455 493 L 473 466 L 459 429 L 427 376 L 369 320"/>
<path style="--d:8s;" pathLength="3333" clip-path="url(#z29433c8)" d="M 459 370 L 467 372 L 493 354 L 516 327"/>
<path style="--d:9s;" pathLength="3333" clip-path="url(#z29433c9)" d="M 767 529 L 790 494 L 771 455 L 727 393 L 669 345"/>
<path style="--d:10s;" pathLength="3333" clip-path="url(#z29433c10)" d="M 755 388 L 783 380 L 820 356 L 847 316"/>
</svg>