<svg id="z26775" class="acjk" viewBox="0 0 1024 1024" xmlns="http://www.w3.org/2000/svg">
  <path id="z26775d1" d="M 293 545 Q 365 563 372 570 Q 379 577 375 585 Q 368 595 341 601 Q 316 605 294 595 L 249 578 Q 161 551 99 542 Q 65 535 90 521 Q 127 503 200 522 Q 215 526 233 529 L 293 545 Z"/>
  <path id="z26775d2" d="M 291 466 Q 292 505 293 545 L 294 595 Q 294 694 314 768 Q 330 792 303 812 Q 287 824 258 841 Q 234 859 213 843 Q 209 837 214 822 Q 248 773 248 723 Q 248 656 249 578 L 246 433 Q 237 214 237 206 Q 230 161 217 117 Q 205 77 231 14 Q 238 -4 246 -7 Q 252 -14 260 -5 Q 267 -1 278 20 Q 288 45 287 77 Q 286 120 291 433 L 291 466 Z"/>
  <path id="z26775d3" d="M 233 529 Q 191 394 49 184 Q 45 174 56 174 Q 78 174 177 309 Q 214 361 246 433 C 304 561 242 558 233 529 Z"/>
  <path id="z26775d4" d="M 291 433 Q 292 432 296 429 Q 323 407 350 380 Q 360 370 373 370 Q 382 370 385 381 Q 389 391 382 415 Q 376 442 293 466 L 291 466 C 261 471 268 452 291 433 Z"/>
  <path id="z26775d5" d="M 622 680 Q 772 716 780 723 Q 789 732 784 740 Q 777 752 746 758 Q 715 762 685 750 Q 645 734 600 722 Q 551 709 492 702 Q 455 695 483 679 Q 511 664 563 666 L 622 680 Z"/>
  <path id="z26775d6" d="M 463 550 Q 453 556 422 560 Q 412 563 408 558 Q 404 552 411 538 Q 442 474 460 367 Q 463 336 481 314 Q 497 295 502 309 Q 505 318 505 330 L 504 352 Q 503 365 500 379 Q 479 478 474 515 C 470 545 469 547 463 550 Z"/>
  <path id="z26775d7" d="M 701 362 Q 717 337 733 329 Q 743 322 758 342 Q 771 364 802 486 Q 811 517 834 541 Q 847 553 835 567 Q 820 583 779 609 Q 763 616 688 598 Q 676 598 639 588 L 590 577 Q 571 574 550 569 Q 501 559 463 550 C 434 543 447 503 474 515 Q 483 524 591 546 L 637 556 Q 727 578 743 563 Q 753 550 752 535 Q 725 402 709 390 C 696 369 696 369 701 362 Z"/>
  <path id="z26775d8" d="M 639 451 Q 664 458 689 462 Q 710 466 701 477 Q 691 490 669 493 Q 656 494 638 490 L 593 477 Q 553 464 518 452 Q 503 448 522 435 Q 528 432 593 443 L 639 451 Z"/>
  <path id="z26775d9" d="M 634 351 Q 668 358 701 362 C 731 366 736 377 709 390 Q 700 399 651 388 Q 644 387 637 384 L 590 373 Q 544 363 504 352 C 475 344 475 331 505 330 Q 511 329 523 331 Q 554 338 588 343 L 634 351 Z"/>
  <path id="z26775d10" d="M 596 170 Q 623 224 634 351 L 637 384 Q 638 418 639 451 L 638 490 Q 638 523 637 556 L 639 588 Q 642 618 650 649 Q 654 659 646 666 Q 636 673 622 680 C 596 695 544 689 563 666 Q 587 644 588 618 Q 589 599 590 577 L 591 546 Q 592 512 593 477 L 593 443 Q 592 407 590 373 L 588 343 Q 581 253 556 202 L 537 170 Q 495 112 376 49 Q 364 45 362 41 Q 358 37 372 34 Q 451 34 561 123 Q 565 130 572 135 L 596 170 Z"/>
  <path id="z26775d11" d="M 572 135 Q 633 74 744 -3 Q 778 -25 823 -12 Q 884 4 928 14 Q 941 18 955 25 Q 962 34 948 41 Q 930 48 798 69 Q 708 84 596 170 L 556 202 Q 519 233 478 271 Q 453 295 415 297 Q 403 298 396 290 Q 392 283 401 278 Q 410 272 419 268 Q 438 261 454 247 Q 497 208 537 170 L 572 135 Z"/>
<defs>
  <clipPath id="z26775c1"><use href="#z26775d1"/></clipPath>
  <clipPath id="z26775c2"><use href="#z26775d2"/></clipPath>
  <clipPath id="z26775c3"><use href="#z26775d3"/></clipPath>
  <clipPath id="z26775c4"><use href="#z26775d4"/></clipPath>
  <clipPath id="z26775c5"><use href="#z26775d5"/></clipPath>
  <clipPath id="z26775c6"><use href="#z26775d6"/></clipPath>
  <clipPath id="z26775c7"><use href="#z26775d7"/></clipPath>
  <clipPath id="z26775c8"><use href="#z26775d8"/></clipPath>
  <clipPath id="z26775c9"><use href="#z26775d9"/></clipPath>
  <clipPath id="z26775c10"><use href="#z26775d10"/></clipPath>
  <clipPath id="z26775c11"><use href="#z26775d11"/></clipPath>
</defs>
<path style="--d:1s;" pathLength="3333" clip-path="url(#z26775c1)" d="M 92 533 L 135 530 L 186 538 L 309 575 L 364 579"/>
<path style="--d:2s;" pathLength="3333" clip-path="url(#z26775c2)" d="M 225 836 L 270 793 L 277 782 L 278 754 L 271 646 L 265 258 L 250 96 L 251 7"/>
<path style="--d:3s;" pathLength="3333" clip-path="url(#z26775c3)" d="M 242 526 L 224 441 L 186 364 L 127 269 L 56 182"/>
<path style="--d:4s;" pathLength="3333" clip-path="url(#z26775c4)" d="M 292 461 L 303 459 L 309 442 L 352 414 L 373 382"/>
<path style="--d:5s;" pathLength="3333" clip-path="url(#z26775c5)" d="M 484 692 L 526 686 L 565 690 L 725 733 L 773 734"/>
<path style="--d:6s;" pathLength="3333" clip-path="url(#z26775c6)" d="M 416 553 L 442 531 L 449 513 L 492 314"/>
<path style="--d:7s;" pathLength="3333" clip-path="url(#z26775c7)" d="M 473 521 L 486 539 L 703 587 L 743 588 L 766 582 L 791 552 L 761 439 L 735 368 L 739 348"/>
<path style="--d:8s;" pathLength="3333" clip-path="url(#z26775c8)" d="M 520 443 L 649 474 L 693 471"/>
<path style="--d:9s;" pathLength="3333" clip-path="url(#z26775c9)" d="M 509 336 L 527 345 L 702 384"/>
<path style="--d:10s;" pathLength="3333" clip-path="url(#z26775c10)" d="M 571 663 L 616 645 L 612 343 L 592 227 L 572 178 L 539 134 L 471 83 L 422 57 L 368 39"/>
<path style="--d:11s;" pathLength="3333" clip-path="url(#z26775c11)" d="M 405 287 L 462 263 L 644 104 L 759 35 L 795 26 L 947 31"/>
</svg>