<svg id="z22265" class="acjk" viewBox="0 0 1024 1024" xmlns="http://www.w3.org/2000/svg">
  <path id="z22265d1" d="M 261 732 Q 249 747 217 759 Q 205 765 192 760 Q 183 754 190 740 Q 214 650 216 633 Q 216 395 213 337 Q 212 327 211 313 Q 208 237 183 144 Q 165 78 207 26 Q 219 10 232 25 Q 245 43 247 63 L 252 107 Q 253 135 259 376 L 260 381 Q 266 663 271 688 C 274 718 274 721 261 732 Z"/>
  <path id="z22265d2" d="M 726 86 Q 747 62 774 10 Q 784 -15 801 -14 Q 816 -13 825 10 Q 858 65 837 254 Q 821 662 839 694 Q 842 700 846 704 Q 858 719 858 727 Q 857 740 823 764 Q 760 807 717 791 Q 696 788 664 783 Q 507 767 318 735 Q 288 731 261 732 C 231 731 242 681 271 688 Q 281 689 294 694 Q 309 698 434 719 Q 591 741 712 749 Q 737 752 744 738 Q 766 716 768 412 Q 769 231 772 188 Q 775 140 765 121 Q 761 108 754 107 L 753 107 C 739 80 717 99 726 86 Z"/>
  <path id="z22265d3" d="M 259 376 Q 260 376 263 375 Q 326 387 422 495 Q 423 498 427 501 Q 455 537 499 602 L 510 620 Q 516 633 529 646 Q 536 650 534 660 Q 533 669 521 678 Q 494 702 465 698 Q 458 697 459 685 Q 474 631 374 496 Q 370 493 366 487 Q 336 451 261 382 Q 260 382 260 381 C 254 376 254 376 259 376 Z"/>
  <path id="z22265d4" d="M 499 602 Q 506 578 629 447 Q 651 425 757 451 Q 763 454 764 457 Q 764 461 755 465 Q 646 507 586 554 Q 529 602 510 620 C 488 640 486 629 499 602 Z"/>
  <path id="z22265d5" d="M 455 482 Q 492 436 512 437 Q 524 436 528 452 Q 529 462 520 479 Q 508 497 458 504 Q 451 505 450 495 Q 449 488 455 482 Z"/>
  <path id="z22265d6" d="M 518 249 Q 620 342 645 352 Q 661 359 656 373 Q 652 386 594 416 Q 579 422 514 398 Q 421 365 366 363 Q 345 362 353 345 Q 360 335 377 325 Q 405 312 433 330 Q 547 382 560 373 Q 570 367 566 355 Q 538 310 506 256 C 491 230 496 229 518 249 Z"/>
  <path id="z22265d7" d="M 506 256 Q 485 271 438 287 Q 431 291 430 282 Q 430 272 437 265 Q 477 228 526 174 Q 538 159 549 156 Q 555 155 561 162 Q 570 172 561 203 Q 552 233 518 249 L 506 256 Z"/>
  <path id="z22265d8" d="M 247 63 Q 257 62 267 63 Q 414 85 726 86 C 756 86 771 86 753 107 Q 746 117 723 137 Q 704 150 664 145 Q 435 114 252 107 C 222 106 217 64 247 63 Z"/>
<defs>
  <clipPath id="z22265c1"><use href="#z22265d1"/></clipPath>
  <clipPath id="z22265c2"><use href="#z22265d2"/></clipPath>
  <clipPath id="z22265c3"><use href="#z22265d3"/></clipPath>
  <clipPath id="z22265c4"><use href="#z22265d4"/></clipPath>
  <clipPath id="z22265c5"><use href="#z22265d5"/></clipPath>
  <clipPath id="z22265c6"><use href="#z22265d6"/></clipPath>
  <clipPath id="z22265c7"><use href="#z22265d7"/></clipPath>
  <clipPath id="z22265c8"><use href="#z22265d8"/></clipPath>
</defs>
<path style="--d:1s;" pathLength="3333" clip-path="url(#z22265c1)" d="M 200 749 L 224 724 L 234 703 L 242 634 L 236 310 L 214 94 L 220 32"/>
<path style="--d:2s;" pathLength="3333" clip-path="url(#z22265c2)" d="M 268 726 L 285 712 L 418 731 L 429 737 L 729 772 L 763 762 L 792 734 L 800 722 L 797 481 L 809 176 L 807 123 L 793 75 L 800 6"/>
<path style="--d:3s;" pathLength="3333" clip-path="url(#z22265c3)" d="M 472 687 L 494 657 L 446 563 L 375 469 L 315 413 L 262 378"/>
<path style="--d:4s;" pathLength="3333" clip-path="url(#z22265c4)" d="M 510 614 L 522 589 L 572 537 L 643 478 L 671 467 L 757 458"/>
<path style="--d:5s;" pathLength="3333" clip-path="url(#z22265c5)" d="M 462 492 L 497 470 L 512 453"/>
<path style="--d:6s;" pathLength="3333" clip-path="url(#z22265c6)" d="M 362 352 L 380 344 L 407 344 L 548 393 L 577 392 L 591 385 L 603 370 L 594 352 L 526 271 L 524 261 L 516 259"/>
<path style="--d:7s;" pathLength="3333" clip-path="url(#z22265c7)" d="M 438 279 L 523 216 L 543 189 L 549 170"/>
<path style="--d:8s;" pathLength="3333" clip-path="url(#z22265c8)" d="M 252 70 L 272 86 L 333 92 L 659 115 L 705 115 L 746 107"/>
</svg>