<svg id="z20340" class="acjk" viewBox="0 0 1024 1024" xmlns="http://www.w3.org/2000/svg">
  <path id="z20340d1" d="M 229 519 Q 278 580 331 664 Q 359 713 383 737 Q 393 749 389 764 Q 385 779 353 804 Q 323 823 303 824 Q 282 823 291 797 Q 306 764 293 737 Q 227 578 64 382 Q 52 370 50 364 Q 46 351 62 354 Q 101 363 203 488 L 229 519 Z"/>
  <path id="z20340d2" d="M 203 488 Q 231 419 232 362 Q 232 199 205 87 Q 190 38 227 -10 Q 228 -13 232 -16 Q 251 -32 263 -4 Q 278 38 278 86 Q 274 366 282 429 Q 289 457 279 468 Q 261 490 247 504 Q 240 513 229 519 C 205 537 192 516 203 488 Z"/>
  <path id="z20340d3" d="M 709 674 Q 736 681 766 685 Q 829 698 838 707 Q 848 714 843 724 Q 836 736 806 744 Q 779 750 676 719 Q 543 683 411 673 Q 374 669 400 650 Q 415 640 438 635 L 489 634 Q 507 640 656 665 L 709 674 Z"/>
  <path id="z20340d4" d="M 438 635 Q 459 599 460 562 Q 461 528 463 248 C 463 218 506 224 506 254 Q 507 318 508 376 L 509 403 Q 510 452 511 496 L 511 527 Q 511 561 514 589 Q 520 610 489 634 C 466 654 424 661 438 635 Z"/>
  <path id="z20340d5" d="M 736 287 Q 733 560 749 630 Q 753 648 738 657 Q 722 667 709 674 C 683 689 643 692 656 665 Q 656 659 671 637 Q 686 610 686 487 Q 686 396 684 279 L 683 236 Q 670 -34 698 -69 Q 704 -76 711 -74 Q 726 -65 732 -5 Q 741 76 736 239 L 736 287 Z"/>
  <path id="z20340d6" d="M 511 496 Q 583 505 634 514 Q 659 518 649 532 Q 637 547 611 551 Q 565 557 511 527 C 485 513 481 492 511 496 Z"/>
  <path id="z20340d7" d="M 508 376 Q 509 376 642 394 Q 667 398 657 412 Q 645 427 619 431 Q 591 434 509 403 C 481 392 478 372 508 376 Z"/>
  <path id="z20340d8" d="M 736 239 Q 778 242 929 242 Q 950 242 955 251 Q 961 263 944 277 Q 883 322 823 303 Q 784 297 736 287 L 684 279 Q 648 275 611 268 Q 559 262 506 254 L 463 248 Q 391 241 317 231 Q 295 230 311 211 Q 326 196 344 191 Q 366 185 383 190 Q 521 227 683 236 L 736 239 Z"/>
<defs>
  <clipPath id="z20340c1"><use href="#z20340d1"/></clipPath>
  <clipPath id="z20340c2"><use href="#z20340d2"/></clipPath>
  <clipPath id="z20340c3"><use href="#z20340d3"/></clipPath>
  <clipPath id="z20340c4"><use href="#z20340d4"/></clipPath>
  <clipPath id="z20340c5"><use href="#z20340d5"/></clipPath>
  <clipPath id="z20340c6"><use href="#z20340d6"/></clipPath>
  <clipPath id="z20340c7"><use href="#z20340d7"/></clipPath>
  <clipPath id="z20340c8"><use href="#z20340d8"/></clipPath>
</defs>
<path style="--d:1s;" pathLength="3333" clip-path="url(#z20340c1)" d="M 303 808 L 337 770 L 341 755 L 308 688 L 245 584 L 179 492 L 116 415 L 60 363"/>
<path style="--d:2s;" pathLength="3333" clip-path="url(#z20340c2)" d="M 230 509 L 233 483 L 252 449 L 255 374 L 250 169 L 238 46 L 244 -7"/>
<path style="--d:3s;" pathLength="3333" clip-path="url(#z20340c3)" d="M 403 663 L 445 655 L 491 658 L 615 679 L 765 714 L 832 718"/>
<path style="--d:4s;" pathLength="3333" clip-path="url(#z20340c4)" d="M 444 629 L 479 606 L 486 584 L 485 273 L 468 262"/>
<path style="--d:5s;" pathLength="3333" clip-path="url(#z20340c5)" d="M 663 662 L 712 631 L 707 -65"/>
<path style="--d:6s;" pathLength="3333" clip-path="url(#z20340c6)" d="M 519 504 L 529 517 L 555 524 L 603 531 L 639 525"/>
<path style="--d:7s;" pathLength="3333" clip-path="url(#z20340c7)" d="M 512 383 L 524 394 L 588 408 L 615 411 L 647 405"/>
<path style="--d:8s;" pathLength="3333" clip-path="url(#z20340c8)" d="M 314 221 L 365 212 L 561 244 L 849 275 L 909 269 L 943 257"/>
</svg>