<svg id="z23805" class="acjk" viewBox="0 0 1024 1024" xmlns="http://www.w3.org/2000/svg">
  <path id="z23805d1" d="M 242 341 Q 258 635 275 706 Q 279 716 258 732 Q 222 751 198 755 Q 182 759 174 750 Q 167 743 175 727 Q 199 693 199 669 Q 206 512 199 327 C 198 297 240 311 242 341 Z"/>
  <path id="z23805d2" d="M 319 362 Q 277 353 242 341 L 199 327 Q 162 317 132 302 Q 117 298 120 315 Q 130 435 122 448 Q 89 481 65 478 Q 55 474 63 456 Q 88 404 80 352 Q 76 301 56 279 Q 40 261 49 249 Q 59 236 76 228 Q 89 222 98 230 Q 128 272 286 320 Q 301 324 312 324 C 342 327 348 369 319 362 Z"/>
  <path id="z23805d3" d="M 312 324 Q 312 309 325 287 Q 332 277 341 286 Q 356 302 366 352 Q 369 407 387 459 Q 396 478 379 490 Q 366 500 352 510 Q 342 516 333 512 Q 326 508 327 493 Q 336 460 319 362 L 312 324 Z"/>
  <path id="z23805d4" d="M 646 586 Q 701 598 761 607 Q 810 617 818 625 Q 827 632 823 640 Q 816 652 788 660 Q 760 667 729 656 Q 689 643 648 632 L 597 620 Q 533 610 462 604 Q 426 598 451 582 Q 482 560 562 572 Q 578 575 598 578 L 646 586 Z"/>
  <path id="z23805d5" d="M 632 285 Q 638 331 646 586 L 648 632 Q 648 710 672 770 Q 679 788 669 800 Q 644 819 602 830 Q 575 837 566 829 Q 556 822 565 808 Q 590 769 594 719 Q 595 670 597 620 L 598 578 Q 598 272 540 171 Q 521 141 494 115 Q 433 57 296 3 Q 283 -4 281 -8 Q 282 -12 294 -15 Q 316 -19 372 -2 Q 465 22 529 80 Q 604 146 625 249 L 632 285 Z"/>
  <path id="z23805d6" d="M 625 249 Q 701 131 800 7 Q 819 -15 851 -15 Q 962 -15 996 -10 Q 1006 -9 1008 -3 Q 1009 3 994 11 Q 838 74 760 152 Q 699 210 632 285 C 612 307 609 274 625 249 Z"/>
  <path id="z23805d7" d="M 481 380 Q 500 426 524 469 Q 531 481 517 491 Q 475 513 458 507 Q 449 504 453 492 Q 471 420 407 322 Q 391 300 383 286 Q 379 273 390 278 Q 421 288 467 357 L 481 380 Z"/>
  <path id="z23805d8" d="M 467 357 Q 516 303 536 305 Q 548 304 552 320 Q 553 330 544 347 Q 532 363 481 380 C 453 390 447 379 467 357 Z"/>
  <path id="z23805d9" d="M 754 409 Q 764 424 772 439 Q 790 473 807 501 Q 816 513 802 525 Q 760 552 739 547 Q 729 543 733 531 Q 751 459 678 362 Q 660 340 652 327 Q 646 314 659 318 Q 681 324 739 387 L 754 409 Z"/>
  <path id="z23805d10" d="M 739 387 Q 743 383 755 374 Q 792 349 831 317 Q 841 308 854 309 Q 861 310 865 320 Q 868 332 860 355 Q 853 376 820 391 Q 789 403 754 409 C 724 414 717 407 739 387 Z"/>
<defs>
  <clipPath id="z23805c1"><use href="#z23805d1"/></clipPath>
  <clipPath id="z23805c2"><use href="#z23805d2"/></clipPath>
  <clipPath id="z23805c3"><use href="#z23805d3"/></clipPath>
  <clipPath id="z23805c4"><use href="#z23805d4"/></clipPath>
  <clipPath id="z23805c5"><use href="#z23805d5"/></clipPath>
  <clipPath id="z23805c6"><use href="#z23805d6"/></clipPath>
  <clipPath id="z23805c7"><use href="#z23805d7"/></clipPath>
  <clipPath id="z23805c8"><use href="#z23805d8"/></clipPath>
  <clipPath id="z23805c9"><use href="#z23805d9"/></clipPath>
  <clipPath id="z23805c10"><use href="#z23805d10"/></clipPath>
</defs>
<path style="--d:1s;" pathLength="3333" clip-path="url(#z23805c1)" d="M 186 741 L 224 711 L 234 694 L 224 379 L 222 358 L 204 335"/>
<path style="--d:2s;" pathLength="3333" clip-path="url(#z23805c2)" d="M 70 469 L 100 430 L 104 374 L 96 280 L 132 281 L 196 309 L 290 337 L 311 357"/>
<path style="--d:3s;" pathLength="3333" clip-path="url(#z23805c3)" d="M 339 502 L 359 468 L 333 291"/>
<path style="--d:4s;" pathLength="3333" clip-path="url(#z23805c4)" d="M 454 594 L 529 588 L 744 633 L 811 636"/>
<path style="--d:5s;" pathLength="3333" clip-path="url(#z23805c5)" d="M 574 818 L 627 775 L 615 384 L 606 291 L 590 219 L 562 156 L 497 85 L 403 28 L 288 -10"/>
<path style="--d:6s;" pathLength="3333" clip-path="url(#z23805c6)" d="M 637 278 L 641 251 L 688 192 L 759 109 L 830 41 L 862 26 L 1000 -3"/>
<path style="--d:7s;" pathLength="3333" clip-path="url(#z23805c7)" d="M 464 497 L 488 470 L 476 422 L 448 357 L 392 287"/>
<path style="--d:8s;" pathLength="3333" clip-path="url(#z23805c8)" d="M 487 368 L 489 358 L 536 321"/>
<path style="--d:9s;" pathLength="3333" clip-path="url(#z23805c9)" d="M 743 536 L 770 505 L 755 457 L 719 390 L 660 326"/>
<path style="--d:10s;" pathLength="3333" clip-path="url(#z23805c10)" d="M 747 390 L 762 390 L 815 364 L 831 352 L 850 324"/>
</svg>