<svg id="z23541" class="acjk" viewBox="0 0 1024 1024" xmlns="http://www.w3.org/2000/svg">
  <path id="z23541d1" d="M 473 826 Q 497 810 522 787 Q 535 777 551 778 Q 561 779 565 792 Q 568 807 557 835 Q 545 859 465 872 Q 449 873 444 871 Q 440 867 442 855 Q 446 845 473 826 Z"/>
  <path id="z23541d2" d="M 262 718 Q 253 740 244 748 Q 228 763 224 739 Q 230 715 212 694 Q 196 667 167 640 Q 157 630 160 612 Q 161 585 169 570 Q 185 548 199 569 Q 200 572 261 691 Q 261 692 262 693 C 268 704 268 704 262 718 Z"/>
  <path id="z23541d3" d="M 262 693 Q 283 681 319 689 Q 466 734 692 751 Q 728 754 742 751 Q 755 747 753 738 Q 753 734 722 672 Q 713 659 719 656 Q 726 653 742 662 Q 793 693 834 702 Q 868 709 867 719 Q 866 728 803 777 Q 782 796 704 781 Q 608 769 373 734 Q 318 724 263 719 Q 262 719 262 718 C 232 714 233 702 262 693 Z"/>
  <path id="z23541d4" d="M 358 641 Q 371 631 385 617 Q 395 608 407 609 Q 414 610 417 620 Q 420 632 412 652 Q 408 662 389 669 Q 346 679 336 674 Q 332 671 334 662 Q 338 655 358 641 Z"/>
  <path id="z23541d5" d="M 416 559 Q 428 563 445 565 Q 475 572 479 576 Q 485 582 482 588 Q 478 595 457 601 Q 436 605 415 597 Q 381 585 345 576 Q 305 566 257 562 Q 232 558 250 546 Q 278 530 318 539 Q 355 548 397 555 L 416 559 Z"/>
  <path id="z23541d6" d="M 249 498 Q 273 447 290 441 Q 299 438 307 450 Q 310 459 307 475 Q 298 499 257 517 Q 251 520 248 511 Q 247 507 249 498 Z"/>
  <path id="z23541d7" d="M 410 455 Q 428 491 448 515 Q 458 524 452 531 Q 440 552 416 559 C 396 565 396 565 397 555 Q 396 552 399 547 Q 405 535 386 455 L 384 449 C 375 421 396 428 410 455 Z"/>
  <path id="z23541d8" d="M 384 449 Q 213 410 111 397 Q 101 396 98 389 Q 95 380 108 370 Q 144 346 177 359 Q 318 407 487 431 Q 500 432 501 439 Q 502 451 487 458 Q 459 471 410 455 L 384 449 Z"/>
  <path id="z23541d9" d="M 262 163 Q 263 196 267 221 L 269 245 Q 273 293 277 309 Q 277 313 277 316 C 278 329 278 329 267 338 Q 249 356 224 354 Q 212 351 217 341 Q 254 245 209 94 Q 182 31 206 -4 Q 212 -16 221 -11 Q 251 11 258 106 Q 259 124 260 140 L 262 163 Z"/>
  <path id="z23541d10" d="M 277 316 Q 287 317 302 322 Q 381 341 394 336 Q 403 330 401 309 Q 407 173 395 68 Q 394 46 381 43 Q 372 39 320 45 Q 310 46 310 40 Q 311 33 325 26 Q 356 1 379 -25 Q 392 -38 405 -37 Q 418 -36 436 3 Q 458 42 457 81 Q 453 177 451 265 Q 450 299 465 327 Q 475 340 463 352 Q 447 365 415 377 Q 400 384 350 362 Q 296 346 267 338 C 238 330 248 310 277 316 Z"/>
  <path id="z23541d11" d="M 267 221 Q 315 227 350 233 Q 368 237 361 246 Q 352 256 333 260 Q 294 263 269 245 C 244 228 237 217 267 221 Z"/>
  <path id="z23541d12" d="M 260 140 Q 311 146 349 149 Q 367 152 361 162 Q 352 174 333 177 Q 305 181 262 163 C 234 152 230 137 260 140 Z"/>
  <path id="z23541d13" d="M 595 564 Q 628 551 663 561 Q 703 570 746 579 Q 765 583 768 587 Q 774 593 770 599 Q 766 608 743 613 Q 722 617 656 594 Q 629 588 599 584 C 569 580 567 574 595 564 Z"/>
  <path id="z23541d14" d="M 732 395 Q 735 399 748 435 Q 757 457 778 471 Q 788 478 787 486 Q 786 493 747 519 Q 729 529 714 521 Q 671 508 602 492 Q 581 488 585 509 Q 589 540 595 564 L 599 584 Q 606 626 614 640 Q 624 662 601 674 Q 562 690 550 686 Q 540 682 549 668 Q 561 650 555 549 Q 555 515 539 487 Q 530 474 548 457 Q 561 444 573 452 Q 604 471 678 481 Q 702 488 710 477 Q 719 465 687 399 Q 686 398 685 396 C 671 369 720 368 732 395 Z"/>
  <path id="z23541d15" d="M 574 345 Q 577 345 582 346 Q 631 358 742 368 Q 751 369 752 376 Q 752 382 732 395 C 718 404 714 403 685 396 Q 624 381 574 373 C 544 368 544 342 574 345 Z"/>
  <path id="z23541d16" d="M 566 133 Q 563 160 563 193 L 564 214 Q 564 239 567 266 L 568 290 Q 569 317 574 345 C 578 370 578 370 574 373 Q 570 385 535 398 Q 523 401 516 396 Q 510 393 515 377 Q 528 343 527 308 Q 521 62 563 20 Q 584 -1 644 -19 Q 821 -59 959 38 Q 978 57 960 85 Q 942 110 912 190 Q 909 206 901 210 Q 894 213 892 194 Q 879 103 864 74 Q 831 28 710 30 Q 664 30 626 44 Q 584 62 571 109 L 566 133 Z"/>
  <path id="z23541d17" d="M 567 266 Q 624 266 726 291 Q 726 292 727 292 Q 733 298 730 304 Q 726 311 705 317 Q 683 321 617 300 Q 593 296 568 290 C 539 283 537 266 567 266 Z"/>
  <path id="z23541d18" d="M 563 193 Q 590 184 681 200 Q 694 203 711 205 Q 732 209 735 212 Q 741 218 738 224 Q 734 231 713 238 Q 704 241 622 221 Q 594 217 564 214 C 534 211 534 201 563 193 Z"/>
  <path id="z23541d19" d="M 571 109 Q 604 100 744 127 Q 744 128 746 128 Q 753 134 750 140 Q 746 149 725 154 Q 704 160 683 152 Q 658 145 629 140 Q 599 136 566 133 C 536 130 542 115 571 109 Z"/>
<defs>
  <clipPath id="z23541c1"><use href="#z23541d1"/></clipPath>
  <clipPath id="z23541c2"><use href="#z23541d2"/></clipPath>
  <clipPath id="z23541c3"><use href="#z23541d3"/></clipPath>
  <clipPath id="z23541c4"><use href="#z23541d4"/></clipPath>
  <clipPath id="z23541c5"><use href="#z23541d5"/></clipPath>
  <clipPath id="z23541c6"><use href="#z23541d6"/></clipPath>
  <clipPath id="z23541c7"><use href="#z23541d7"/></clipPath>
  <clipPath id="z23541c8"><use href="#z23541d8"/></clipPath>
  <clipPath id="z23541c9"><use href="#z23541d9"/></clipPath>
  <clipPath id="z23541c10"><use href="#z23541d10"/></clipPath>
  <clipPath id="z23541c11"><use href="#z23541d11"/></clipPath>
  <clipPath id="z23541c12"><use href="#z23541d12"/></clipPath>
  <clipPath id="z23541c13"><use href="#z23541d13"/></clipPath>
  <clipPath id="z23541c14"><use href="#z23541d14"/></clipPath>
  <clipPath id="z23541c15"><use href="#z23541d15"/></clipPath>
  <clipPath id="z23541c16"><use href="#z23541d16"/></clipPath>
  <clipPath id="z23541c17"><use href="#z23541d17"/></clipPath>
  <clipPath id="z23541c18"><use href="#z23541d18"/></clipPath>
  <clipPath id="z23541c19"><use href="#z23541d19"/></clipPath>
</defs>
<path style="--d:1s;" pathLength="3333" clip-path="url(#z23541c1)" d="M 449 865 L 530 821 L 548 795"/>
<path style="--d:2s;" pathLength="3333" clip-path="url(#z23541c2)" d="M 234 743 L 243 717 L 241 700 L 190 619 L 184 575"/>
<path style="--d:3s;" pathLength="3333" clip-path="url(#z23541c3)" d="M 269 712 L 278 704 L 294 703 L 407 728 L 619 758 L 736 770 L 767 764 L 782 753 L 794 733 L 724 661"/>
<path style="--d:4s;" pathLength="3333" clip-path="url(#z23541c4)" d="M 341 667 L 387 646 L 403 623"/>
<path style="--d:5s;" pathLength="3333" clip-path="url(#z23541c5)" d="M 252 555 L 308 552 L 427 582 L 472 584"/>
<path style="--d:6s;" pathLength="3333" clip-path="url(#z23541c6)" d="M 258 505 L 293 455"/>
<path style="--d:7s;" pathLength="3333" clip-path="url(#z23541c7)" d="M 403 552 L 417 542 L 423 522 L 400 467 L 395 466"/>
<path style="--d:8s;" pathLength="3333" clip-path="url(#z23541c8)" d="M 109 386 L 123 380 L 164 380 L 454 446 L 491 442"/>
<path style="--d:9s;" pathLength="3333" clip-path="url(#z23541c9)" d="M 231 342 L 252 310 L 251 228 L 216 -2"/>
<path style="--d:10s;" pathLength="3333" clip-path="url(#z23541c10)" d="M 274 334 L 292 331 L 395 357 L 414 352 L 433 333 L 426 285 L 427 75 L 417 34 L 398 10 L 317 39"/>
<path style="--d:11s;" pathLength="3333" clip-path="url(#z23541c11)" d="M 274 226 L 282 237 L 301 242 L 337 246 L 353 241"/>
<path style="--d:12s;" pathLength="3333" clip-path="url(#z23541c12)" d="M 268 145 L 274 156 L 290 159 L 338 163 L 352 158"/>
<path style="--d:13s;" pathLength="3333" clip-path="url(#z23541c13)" d="M 603 568 L 731 595 L 759 595"/>
<path style="--d:14s;" pathLength="3333" clip-path="url(#z23541c14)" d="M 555 677 L 585 648 L 565 478 L 596 478 L 688 499 L 731 496 L 742 483 L 726 432 L 719 417 L 696 407"/>
<path style="--d:15s;" pathLength="3333" clip-path="url(#z23541c15)" d="M 577 352 L 588 361 L 681 379 L 724 382 L 744 376"/>
<path style="--d:16s;" pathLength="3333" clip-path="url(#z23541c16)" d="M 524 388 L 547 363 L 549 352 L 544 204 L 553 101 L 572 52 L 612 21 L 674 3 L 735 -1 L 806 6 L 870 29 L 914 66 L 901 203"/>
<path style="--d:17s;" pathLength="3333" clip-path="url(#z23541c17)" d="M 572 272 L 581 279 L 668 297 L 720 300"/>
<path style="--d:18s;" pathLength="3333" clip-path="url(#z23541c18)" d="M 568 198 L 709 222 L 728 220"/>
<path style="--d:19s;" pathLength="3333" clip-path="url(#z23541c19)" d="M 575 129 L 582 121 L 603 121 L 695 137 L 741 137"/>
</svg>