<svg id="z21692" class="acjk" viewBox="0 0 1024 1024" xmlns="http://www.w3.org/2000/svg">
  <path id="z21692d1" d="M 350 742 Q 328 757 302 764 Q 286 768 276 761 Q 269 754 276 737 Q 301 697 312 654 Q 322 608 347 416 C 351 386 395 395 392 425 Q 374 596 374 707 C 374 727 374 727 350 742 Z"/>
  <path id="z21692d2" d="M 662 461 Q 695 690 718 715 Q 733 730 720 749 Q 711 762 661 796 Q 646 808 588 788 Q 465 751 350 742 C 320 739 345 700 374 707 Q 533 744 599 752 Q 626 756 633 747 Q 636 740 626 641 L 623 609 Q 613 527 605 455 C 602 425 658 431 662 461 Z"/>
  <path id="z21692d3" d="M 516 444 Q 520 508 522 564 Q 523 591 527 594 C 534 611 534 611 517 619 Q 492 631 473 634 Q 461 635 456 630 Q 452 624 457 614 Q 470 601 471 589 Q 481 522 485 440 C 487 410 514 414 516 444 Z"/>
  <path id="z21692d4" d="M 527 594 Q 579 604 623 609 C 653 612 656 640 626 641 Q 605 642 569 635 Q 541 628 517 619 C 489 609 498 588 527 594 Z"/>
  <path id="z21692d5" d="M 214 394 Q 184 419 155 425 Q 148 428 143 420 Q 139 413 144 399 Q 172 348 176 305 Q 185 205 175 92 Q 171 65 183 44 Q 196 22 216 8 Q 232 -2 234 11 Q 241 15 243 40 Q 247 65 239 149 Q 226 299 228 352 C 229 382 229 383 214 394 Z"/>
  <path id="z21692d6" d="M 228 352 Q 238 351 253 356 Q 382 404 771 426 Q 786 427 792 418 Q 801 411 799 368 Q 792 187 762 84 Q 752 50 723 56 Q 692 66 662 77 Q 647 84 646 78 Q 645 71 653 55 Q 717 -21 733 -59 Q 743 -75 753 -74 Q 769 -73 785 -46 Q 824 9 850 182 Q 871 380 888 404 Q 909 428 893 435 Q 877 454 834 474 Q 807 492 778 481 Q 745 471 662 461 L 605 455 Q 557 451 516 444 L 485 440 Q 433 436 392 425 L 347 416 Q 280 403 214 394 C 184 390 199 346 228 352 Z"/>
  <path id="z21692d7" d="M 391 301 Q 379 307 348 313 Q 336 316 333 311 Q 326 305 335 289 Q 362 234 377 144 Q 380 117 396 100 Q 414 78 419 93 Q 423 103 423 122 L 419 157 Q 406 245 403 272 C 400 297 400 297 391 301 Z"/>
  <path id="z21692d8" d="M 598 176 Q 620 246 643 267 Q 668 292 646 308 Q 627 321 599 341 Q 580 354 560 343 Q 509 316 391 301 C 361 297 374 263 403 272 Q 413 278 521 294 Q 555 301 564 286 Q 571 280 562 247 Q 555 216 544 181 C 535 152 589 147 598 176 Z"/>
  <path id="z21692d9" d="M 423 122 Q 427 122 435 123 Q 490 133 611 142 Q 621 143 623 152 Q 623 159 598 176 C 579 189 573 188 544 181 Q 475 165 419 157 C 389 153 393 120 423 122 Z"/>
<defs>
  <clipPath id="z21692c1"><use href="#z21692d1"/></clipPath>
  <clipPath id="z21692c2"><use href="#z21692d2"/></clipPath>
  <clipPath id="z21692c3"><use href="#z21692d3"/></clipPath>
  <clipPath id="z21692c4"><use href="#z21692d4"/></clipPath>
  <clipPath id="z21692c5"><use href="#z21692d5"/></clipPath>
  <clipPath id="z21692c6"><use href="#z21692d6"/></clipPath>
  <clipPath id="z21692c7"><use href="#z21692d7"/></clipPath>
  <clipPath id="z21692c8"><use href="#z21692d8"/></clipPath>
  <clipPath id="z21692c9"><use href="#z21692d9"/></clipPath>
</defs>
<path style="--d:1s;" pathLength="3333" clip-path="url(#z21692c1)" d="M 286 752 L 326 717 L 339 687 L 366 451 L 366 440 L 352 429"/>
<path style="--d:2s;" pathLength="3333" clip-path="url(#z21692c2)" d="M 358 739 L 383 726 L 605 773 L 638 775 L 655 767 L 676 728 L 659 651 L 637 487 L 612 462"/>
<path style="--d:3s;" pathLength="3333" clip-path="url(#z21692c3)" d="M 463 624 L 487 609 L 498 594 L 501 459 L 492 449"/>
<path style="--d:4s;" pathLength="3333" clip-path="url(#z21692c4)" d="M 525 615 L 536 610 L 608 624 L 620 636"/>
<path style="--d:5s;" pathLength="3333" clip-path="url(#z21692c5)" d="M 153 414 L 182 385 L 198 350 L 210 158 L 209 75 L 225 12"/>
<path style="--d:6s;" pathLength="3333" clip-path="url(#z21692c6)" d="M 222 389 L 243 376 L 431 415 L 540 429 L 793 454 L 811 447 L 842 415 L 820 198 L 805 114 L 786 49 L 755 7 L 706 32 L 652 74"/>
<path style="--d:7s;" pathLength="3333" clip-path="url(#z21692c7)" d="M 342 303 L 370 279 L 376 265 L 408 99"/>
<path style="--d:8s;" pathLength="3333" clip-path="url(#z21692c8)" d="M 402 280 L 424 294 L 506 304 L 539 315 L 581 314 L 606 287 L 604 277 L 579 204 L 551 186"/>
<path style="--d:9s;" pathLength="3333" clip-path="url(#z21692c9)" d="M 428 129 L 443 143 L 540 159 L 590 159 L 614 151"/>
</svg>