<svg id="z21657" class="acjk" viewBox="0 0 1024 1024" xmlns="http://www.w3.org/2000/svg">
  <path id="z21657d1" d="M 138 536 Q 126 543 93 549 Q 80 553 77 548 Q 70 541 78 525 Q 109 455 123 341 Q 126 307 144 284 Q 162 262 167 277 Q 174 299 171 337 L 165 373 Q 149 479 146 509 C 143 534 143 534 138 536 Z"/>
  <path id="z21657d2" d="M 293 398 Q 306 488 331 518 Q 352 543 328 557 Q 309 567 281 583 Q 260 595 221 566 Q 191 554 138 536 C 110 526 117 500 146 509 Q 165 515 226 530 Q 248 536 253 527 Q 263 520 256 480 Q 250 440 243 394 C 238 364 289 368 293 398 Z"/>
  <path id="z21657d3" d="M 171 337 Q 180 346 314 361 Q 324 362 325 372 Q 325 379 293 398 C 282 405 272 402 243 394 Q 200 382 165 373 C 136 366 145 323 171 337 Z"/>
  <path id="z21657d4" d="M 576 506 Q 612 515 760 538 Q 772 537 781 551 Q 782 564 757 575 Q 718 597 640 570 Q 562 552 556 548 L 501 536 Q 476 532 454 528 Q 411 524 364 515 Q 333 511 357 492 Q 393 464 425 473 Q 456 482 493 488 L 576 506 Z"/>
  <path id="z21657d5" d="M 556 548 Q 569 630 579 733 Q 585 754 588 766 Q 595 788 574 800 Q 525 830 508 828 Q 486 827 502 801 Q 521 759 518 706 Q 518 646 501 536 L 493 488 Q 463 292 323 150 Q 308 137 292 121 Q 225 67 222 62 Q 219 55 232 54 Q 250 53 273 67 Q 339 104 380 144 Q 486 249 529 416 Q 541 470 544 485 L 556 548 Z"/>
  <path id="z21657d6" d="M 548 153 Q 551 69 589 40 Q 643 0 824 7 Q 906 11 940 29 Q 971 45 958 77 Q 940 128 931 216 Q 930 232 922 238 Q 913 244 909 222 Q 890 114 874 95 Q 844 62 728 58 Q 664 58 636 68 Q 611 80 605 96 Q 595 124 592 181 L 591 228 Q 591 345 624 426 Q 637 457 619 476 Q 594 497 576 506 C 541 528 535 514 544 485 Q 560 446 555 392 Q 548 266 547 190 L 548 153 Z"/>
  <path id="z21657d7" d="M 547 190 Q 499 156 490 142 Q 484 132 498 132 Q 508 132 534 146 Q 540 150 548 153 L 592 181 Q 604 191 619 201 Q 670 237 730 296 Q 755 324 775 335 Q 785 342 784 356 Q 783 368 763 394 Q 744 415 726 419 Q 710 420 712 400 Q 718 376 705 359 Q 672 311 591 228 L 547 190 Z"/>
  <path id="z21657d8" d="M 718 700 Q 749 676 784 648 Q 797 636 814 637 Q 824 638 829 652 Q 833 668 822 697 Q 810 727 710 748 Q 694 749 688 747 Q 684 743 685 730 Q 689 720 718 700 Z"/>
<defs>
  <clipPath id="z21657c1"><use href="#z21657d1"/></clipPath>
  <clipPath id="z21657c2"><use href="#z21657d2"/></clipPath>
  <clipPath id="z21657c3"><use href="#z21657d3"/></clipPath>
  <clipPath id="z21657c4"><use href="#z21657d4"/></clipPath>
  <clipPath id="z21657c5"><use href="#z21657d5"/></clipPath>
  <clipPath id="z21657c6"><use href="#z21657d6"/></clipPath>
  <clipPath id="z21657c7"><use href="#z21657d7"/></clipPath>
  <clipPath id="z21657c8"><use href="#z21657d8"/></clipPath>
</defs>
<path style="--d:1s;" pathLength="3333" clip-path="url(#z21657c1)" d="M 84 540 L 117 508 L 156 283"/>
<path style="--d:2s;" pathLength="3333" clip-path="url(#z21657c2)" d="M 148 517 L 156 527 L 258 557 L 294 532 L 272 420 L 249 401"/>
<path style="--d:3s;" pathLength="3333" clip-path="url(#z21657c3)" d="M 175 346 L 185 360 L 241 373 L 293 378 L 316 370"/>
<path style="--d:4s;" pathLength="3333" clip-path="url(#z21657c4)" d="M 359 504 L 414 497 L 690 555 L 735 559 L 769 552"/>
<path style="--d:5s;" pathLength="3333" clip-path="url(#z21657c5)" d="M 508 814 L 551 771 L 549 727 L 521 496 L 484 352 L 438 257 L 388 187 L 310 112 L 228 59"/>
<path style="--d:6s;" pathLength="3333" clip-path="url(#z21657c6)" d="M 556 490 L 572 481 L 592 449 L 570 278 L 569 184 L 576 111 L 589 76 L 606 57 L 664 37 L 767 32 L 832 38 L 902 61 L 913 73 L 919 229"/>
<path style="--d:7s;" pathLength="3333" clip-path="url(#z21657c7)" d="M 724 405 L 740 382 L 745 358 L 705 310 L 604 213 L 498 141"/>
<path style="--d:8s;" pathLength="3333" clip-path="url(#z21657c8)" d="M 693 741 L 780 693 L 810 656"/>
</svg>