<svg id="z24444" class="acjk" viewBox="0 0 1024 1024" xmlns="http://www.w3.org/2000/svg">
  <path id="z24444d1" d="M 304 765 Q 317 729 235 623 Q 196 575 145 523 Q 135 516 132 509 Q 128 500 141 501 Q 187 501 330 661 Q 336 680 374 708 Q 383 717 380 729 Q 379 742 355 765 Q 333 784 316 786 Q 298 786 304 765 Z"/>
  <path id="z24444d2" d="M 263 347 Q 383 507 385 512 Q 385 516 384 519 Q 380 532 354 556 Q 329 575 310 577 Q 291 576 298 554 Q 310 523 296 497 Q 230 358 61 178 Q 51 168 47 163 Q 43 151 57 153 Q 69 154 95 175 Q 141 208 197 272 Q 216 291 235 314 L 263 347 Z"/>
  <path id="z24444d3" d="M 235 314 Q 257 269 234 128 Q 210 40 250 -1 Q 266 -16 278 9 Q 291 48 291 91 Q 294 241 299 275 Q 306 300 297 310 Q 281 329 263 347 C 242 368 224 342 235 314 Z"/>
  <path id="z24444d4" d="M 645 569 Q 690 582 738 593 Q 774 597 777 583 Q 777 567 751 509 Q 744 493 751 489 Q 758 485 771 498 Q 847 559 877 571 Q 902 578 899 591 Q 898 604 819 641 Q 797 651 768 642 Q 702 621 647 605 L 597 593 Q 540 583 477 569 C 448 563 475 522 504 530 Q 511 531 524 536 Q 558 546 596 556 L 645 569 Z"/>
  <path id="z24444d5" d="M 477 569 Q 441 590 426 584 Q 414 577 421 564 Q 457 518 419 286 Q 413 258 405 230 Q 378 149 318 46 Q 314 39 311 33 Q 310 23 319 25 Q 349 28 415 143 Q 422 159 431 176 Q 467 260 482 358 L 484 370 Q 499 526 504 530 C 509 552 504 555 477 569 Z"/>
  <path id="z24444d6" d="M 633 408 Q 639 490 645 569 L 647 605 Q 647 684 670 782 Q 674 792 654 808 Q 618 827 594 832 Q 578 835 570 826 Q 563 819 570 804 Q 594 770 594 745 Q 597 672 597 593 L 596 556 Q 595 480 591 394 C 590 364 631 378 633 408 Z"/>
  <path id="z24444d7" d="M 621 164 Q 572 95 439 50 Q 426 44 435 38 Q 442 34 469 39 Q 548 49 596 76 Q 626 95 651 124 L 679 165 Q 712 198 742 326 Q 748 360 766 377 Q 781 392 762 405 Q 743 420 709 431 Q 688 437 669 425 Q 651 416 633 408 L 591 394 Q 555 385 516 378 Q 494 377 484 370 C 464 364 464 364 482 358 Q 515 343 551 355 Q 606 368 663 382 Q 684 389 684 365 Q 684 281 643 202 L 621 164 Z"/>
  <path id="z24444d8" d="M 651 124 Q 697 67 775 -5 Q 803 -30 848 -23 Q 906 -17 947 -12 Q 960 -11 974 -6 Q 981 1 970 10 Q 954 19 835 59 Q 765 80 679 165 L 643 202 Q 609 239 574 283 Q 555 308 521 315 Q 508 318 498 311 Q 492 304 502 295 Q 559 252 621 164 L 651 124 Z"/>
<defs>
  <clipPath id="z24444c1"><use href="#z24444d1"/></clipPath>
  <clipPath id="z24444c2"><use href="#z24444d2"/></clipPath>
  <clipPath id="z24444c3"><use href="#z24444d3"/></clipPath>
  <clipPath id="z24444c4"><use href="#z24444d4"/></clipPath>
  <clipPath id="z24444c5"><use href="#z24444d5"/></clipPath>
  <clipPath id="z24444c6"><use href="#z24444d6"/></clipPath>
  <clipPath id="z24444c7"><use href="#z24444d7"/></clipPath>
  <clipPath id="z24444c8"><use href="#z24444d8"/></clipPath>
</defs>
<path style="--d:1s;" pathLength="3333" clip-path="url(#z24444c1)" d="M 315 773 L 332 750 L 339 728 L 302 669 L 206 560 L 168 525 L 140 509"/>
<path style="--d:2s;" pathLength="3333" clip-path="url(#z24444c2)" d="M 309 563 L 333 534 L 339 512 L 298 438 L 252 371 L 165 264 L 101 198 L 55 161"/>
<path style="--d:3s;" pathLength="3333" clip-path="url(#z24444c3)" d="M 263 338 L 265 307 L 273 288 L 257 67 L 262 10"/>
<path style="--d:4s;" pathLength="3333" clip-path="url(#z24444c4)" d="M 486 566 L 513 555 L 733 612 L 791 615 L 821 591 L 755 495"/>
<path style="--d:5s;" pathLength="3333" clip-path="url(#z24444c5)" d="M 431 572 L 457 551 L 469 517 L 463 412 L 448 307 L 428 231 L 393 141 L 361 85 L 320 34"/>
<path style="--d:6s;" pathLength="3333" clip-path="url(#z24444c6)" d="M 583 816 L 619 787 L 628 777 L 629 765 L 614 432 L 596 402"/>
<path style="--d:7s;" pathLength="3333" clip-path="url(#z24444c7)" d="M 491 363 L 569 373 L 686 406 L 698 404 L 720 381 L 696 260 L 676 208 L 635 142 L 599 107 L 559 81 L 492 55 L 440 43"/>
<path style="--d:8s;" pathLength="3333" clip-path="url(#z24444c8)" d="M 507 305 L 555 276 L 691 117 L 796 30 L 825 18 L 967 1"/>
</svg>