<svg id="z29838" class="acjk" viewBox="0 0 1024 1024" xmlns="http://www.w3.org/2000/svg">
  <path id="z29838d1" d="M 261 635 Q 292 645 328 654 Q 353 663 357 666 Q 364 673 360 682 Q 353 692 325 696 Q 304 699 224 668 Q 145 650 137 647 Q 104 638 130 625 Q 170 606 219 623 L 261 635 Z"/>
  <path id="z29838d2" d="M 280 441 Q 347 463 355 470 Q 362 479 356 486 Q 349 496 321 498 Q 300 499 281 492 L 235 470 Q 156 445 135 439 Q 104 429 129 417 Q 165 404 227 423 Q 230 424 235 425 L 280 441 Z"/>
  <path id="z29838d3" d="M 277 285 Q 278 369 280 441 L 281 492 Q 282 528 283 560 Q 286 614 274 626 Q 267 632 261 635 C 236 651 210 652 219 623 Q 231 596 235 481 Q 234 477 235 470 L 235 425 Q 235 361 235 266 C 235 236 277 255 277 285 Z"/>
  <path id="z29838d4" d="M 235 266 Q 109 214 83 211 Q 70 208 70 197 Q 70 184 80 177 Q 105 164 140 150 Q 150 149 161 159 Q 185 184 328 276 Q 349 289 362 302 Q 374 312 373 321 Q 367 325 355 321 Q 318 305 277 285 L 235 266 Z"/>
  <path id="z29838d5" d="M 443 723 Q 427 735 408 742 Q 402 743 398 737 Q 395 733 401 726 Q 429 642 402 532 Q 393 525 399 497 Q 405 475 413 466 Q 420 456 428 466 Q 440 487 447 605 Q 440 620 450 698 Q 450 702 451 704 C 453 716 453 716 443 723 Z"/>
  <path id="z29838d6" d="M 551 539 Q 547 523 555 509 Q 565 490 570 491 Q 580 492 590 513 Q 600 529 599 544 Q 580 676 606 715 Q 612 725 607 732 Q 588 747 556 759 Q 546 763 531 756 Q 509 744 482 734 Q 461 728 443 723 C 414 715 422 696 451 704 Q 454 705 456 705 Q 535 730 546 726 Q 552 713 555 675 Q 556 560 551 539 Z"/>
  <path id="z29838d7" d="M 486 624 Q 486 486 448 429 Q 445 428 444 425 Q 431 409 402 386 Q 395 382 393 380 Q 390 376 400 376 Q 413 373 460 404 Q 517 443 519 595 Q 519 616 528 643 Q 531 650 526 655 Q 514 665 493 673 Q 480 679 470 675 Q 458 671 468 660 Q 484 642 486 624 Z"/>
  <path id="z29838d8" d="M 520 473 Q 556 427 571 423 Q 580 422 585 433 Q 586 442 581 455 Q 575 467 559 474 Q 534 487 524 490 Q 518 491 517 484 Q 516 480 520 473 Z"/>
  <path id="z29838d9" d="M 668 758 Q 655 770 638 773 Q 631 774 628 769 Q 627 765 631 758 Q 661 685 638 572 Q 629 557 635 535 Q 642 513 650 505 Q 657 498 663 506 Q 681 530 677 645 Q 676 720 678 739 C 679 749 679 749 668 758 Z"/>
  <path id="z29838d10" d="M 798 570 Q 792 554 802 539 Q 812 518 818 519 Q 828 520 840 543 Q 850 561 849 576 Q 830 711 856 749 Q 863 761 858 767 Q 837 783 803 797 Q 793 801 776 794 Q 752 781 723 771 Q 692 764 668 758 C 639 751 649 733 678 739 Q 733 751 791 762 Q 798 747 801 709 Q 804 592 798 570 Z"/>
  <path id="z29838d11" d="M 723 656 Q 729 502 670 441 Q 655 429 634 414 Q 627 410 625 408 Q 622 404 632 403 Q 677 403 725 457 Q 725 458 726 459 Q 756 502 757 626 Q 757 651 765 676 Q 768 683 762 688 Q 752 697 729 705 Q 716 709 706 706 Q 694 702 704 691 Q 722 675 723 656 Z"/>
  <path id="z29838d12" d="M 780 461 Q 804 439 829 410 Q 838 400 849 400 Q 856 399 862 409 Q 866 419 861 441 Q 858 459 833 474 Q 775 501 764 498 Q 760 497 760 486 Q 761 479 780 461 Z"/>
  <path id="z29838d13" d="M 574 307 Q 584 331 596 344 Q 606 351 603 361 Q 599 374 562 404 Q 552 413 540 410 Q 527 407 534 391 Q 543 369 534 345 Q 527 321 518 299 L 503 263 Q 485 226 468 201 Q 458 183 461 171 Q 462 161 480 157 Q 561 133 581 112 L 626 84 Q 681 48 758 -16 Q 783 -38 800 -37 Q 822 -37 822 -17 Q 823 2 795 49 Q 780 76 660 126 L 612 145 Q 561 167 525 176 Q 504 180 516 201 Q 538 244 555 272 L 574 307 Z"/>
  <path id="z29838d14" d="M 742 332 Q 732 344 709 351 Q 690 361 673 357 Q 660 353 666 339 Q 670 332 672 321 L 674 287 Q 668 221 613 147 Q 612 147 612 145 L 581 112 Q 512 57 380 16 Q 364 9 382 6 Q 518 -9 626 84 L 660 126 Q 664 135 670 143 Q 704 194 721 254 Q 727 278 734 292 C 745 320 748 327 742 332 Z"/>
  <path id="z29838d15" d="M 734 292 Q 798 296 877 297 Q 934 294 943 305 Q 947 315 933 327 Q 885 366 819 347 Q 785 341 742 332 L 672 321 Q 654 320 636 316 Q 605 312 574 307 L 518 299 Q 448 290 371 280 Q 352 279 366 263 Q 379 250 395 246 Q 414 242 428 245 Q 462 255 503 263 L 555 272 Q 580 278 607 280 Q 637 284 674 287 L 734 292 Z"/>
<defs>
  <clipPath id="z29838c1"><use href="#z29838d1"/></clipPath>
  <clipPath id="z29838c2"><use href="#z29838d2"/></clipPath>
  <clipPath id="z29838c3"><use href="#z29838d3"/></clipPath>
  <clipPath id="z29838c4"><use href="#z29838d4"/></clipPath>
  <clipPath id="z29838c5"><use href="#z29838d5"/></clipPath>
  <clipPath id="z29838c6"><use href="#z29838d6"/></clipPath>
  <clipPath id="z29838c7"><use href="#z29838d7"/></clipPath>
  <clipPath id="z29838c8"><use href="#z29838d8"/></clipPath>
  <clipPath id="z29838c9"><use href="#z29838d9"/></clipPath>
  <clipPath id="z29838c10"><use href="#z29838d10"/></clipPath>
  <clipPath id="z29838c11"><use href="#z29838d11"/></clipPath>
  <clipPath id="z29838c12"><use href="#z29838d12"/></clipPath>
  <clipPath id="z29838c13"><use href="#z29838d13"/></clipPath>
  <clipPath id="z29838c14"><use href="#z29838d14"/></clipPath>
  <clipPath id="z29838c15"><use href="#z29838d15"/></clipPath>
</defs>
<path style="--d:1s;" pathLength="3333" clip-path="url(#z29838c1)" d="M 131 637 L 191 638 L 307 672 L 349 676"/>
<path style="--d:2s;" pathLength="3333" clip-path="url(#z29838c2)" d="M 130 429 L 183 432 L 294 471 L 347 479"/>
<path style="--d:3s;" pathLength="3333" clip-path="url(#z29838c3)" d="M 227 622 L 253 603 L 257 571 L 256 299 L 239 275"/>
<path style="--d:4s;" pathLength="3333" clip-path="url(#z29838c4)" d="M 84 197 L 140 190 L 310 280 L 368 317"/>
<path style="--d:5s;" pathLength="3333" clip-path="url(#z29838c5)" d="M 406 733 L 426 710 L 432 688 L 432 593 L 417 508 L 421 473"/>
<path style="--d:6s;" pathLength="3333" clip-path="url(#z29838c6)" d="M 450 721 L 466 716 L 549 743 L 576 718 L 571 663 L 577 553 L 571 500"/>
<path style="--d:7s;" pathLength="3333" clip-path="url(#z29838c7)" d="M 477 666 L 505 642 L 501 542 L 490 488 L 474 441 L 456 417 L 419 388 L 399 382"/>
<path style="--d:8s;" pathLength="3333" clip-path="url(#z29838c8)" d="M 525 481 L 557 456 L 572 435"/>
<path style="--d:9s;" pathLength="3333" clip-path="url(#z29838c9)" d="M 635 765 L 659 736 L 664 679 L 656 514"/>
<path style="--d:10s;" pathLength="3333" clip-path="url(#z29838c10)" d="M 675 756 L 684 750 L 795 780 L 824 754 L 820 697 L 825 585 L 818 527"/>
<path style="--d:11s;" pathLength="3333" clip-path="url(#z29838c11)" d="M 712 698 L 742 675 L 741 595 L 732 526 L 707 460 L 684 435 L 649 413 L 631 409"/>
<path style="--d:12s;" pathLength="3333" clip-path="url(#z29838c12)" d="M 767 490 L 826 450 L 847 416"/>
<path style="--d:13s;" pathLength="3333" clip-path="url(#z29838c13)" d="M 542 399 L 558 383 L 568 357 L 487 182 L 496 171 L 581 138 L 716 63 L 769 23 L 803 -19"/>
<path style="--d:14s;" pathLength="3333" clip-path="url(#z29838c14)" d="M 675 346 L 705 317 L 695 254 L 654 162 L 611 105 L 580 79 L 504 39 L 436 18 L 391 13"/>
<path style="--d:15s;" pathLength="3333" clip-path="url(#z29838c15)" d="M 368 272 L 421 265 L 615 298 L 847 325 L 881 324 L 935 310"/>
</svg>