<svg id="z21943" class="acjk" viewBox="0 0 1024 1024" xmlns="http://www.w3.org/2000/svg">
  <path id="z21943d1" d="M 147 580 Q 134 587 101 593 Q 88 597 85 591 Q 78 585 87 569 Q 115 502 132 394 Q 133 363 152 340 Q 170 318 175 333 Q 181 349 179 378 L 175 410 Q 157 516 155 551 C 153 577 153 577 147 580 Z"/>
  <path id="z21943d2" d="M 312 442 Q 325 533 351 562 Q 372 587 348 601 Q 329 611 301 627 Q 279 639 240 610 Q 186 589 147 580 C 118 573 126 543 155 551 Q 161 552 168 555 Q 208 567 243 575 Q 267 581 273 572 Q 282 566 262 440 C 257 410 308 412 312 442 Z"/>
  <path id="z21943d3" d="M 179 378 Q 189 377 200 381 Q 240 394 331 409 Q 341 410 342 420 Q 342 427 312 442 C 293 452 290 450 262 440 Q 214 422 175 410 C 146 401 149 379 179 378 Z"/>
  <path id="z21943d4" d="M 641 722 Q 683 732 729 740 Q 766 749 771 754 Q 778 761 775 769 Q 768 779 742 786 Q 721 790 650 769 L 598 754 Q 547 744 492 738 Q 458 732 483 717 Q 522 696 583 711 Q 589 712 597 713 L 641 722 Z"/>
  <path id="z21943d5" d="M 597 713 Q 593 649 597 633 Q 601 620 613 634 Q 626 652 641 722 L 650 769 Q 653 788 662 813 Q 672 829 661 836 Q 646 849 612 859 Q 596 865 581 853 Q 574 846 582 837 Q 592 822 598 754 L 597 713 Z"/>
  <path id="z21943d6" d="M 739 593 Q 823 600 902 600 Q 920 601 924 609 Q 928 619 913 631 Q 861 667 794 647 Q 776 644 758 639 L 705 628 Q 674 625 518 596 L 473 589 Q 430 585 386 576 Q 368 575 382 559 Q 395 547 411 543 Q 430 539 444 543 Q 463 549 484 554 L 522 562 Q 607 583 696 589 L 739 593 Z"/>
  <path id="z21943d7" d="M 518 596 Q 517 614 515 628 Q 516 644 498 649 Q 464 664 446 657 Q 430 648 444 633 Q 462 614 473 589 L 484 554 Q 500 497 512 486 Q 524 477 527 487 Q 530 505 522 562 L 518 596 Z"/>
  <path id="z21943d8" d="M 696 589 Q 678 529 679 514 Q 680 501 694 511 Q 707 523 739 593 L 758 639 Q 764 652 774 668 Q 787 681 778 690 Q 768 705 738 719 Q 725 728 709 720 Q 700 716 707 705 Q 716 684 705 628 L 696 589 Z"/>
  <path id="z21943d9" d="M 500 450 Q 493 465 451 476 Q 442 477 437 470 Q 434 466 441 456 Q 474 375 448 230 Q 435 212 443 180 Q 452 150 462 139 Q 472 127 481 140 Q 502 170 503 314 Q 503 396 506 424 C 507 441 507 441 500 450 Z"/>
  <path id="z21943d10" d="M 721 212 Q 714 190 727 169 Q 740 141 750 142 Q 763 143 778 175 Q 791 200 791 220 Q 781 284 782 384 Q 781 412 797 437 Q 807 453 799 462 Q 772 484 726 504 Q 710 508 688 500 Q 604 463 500 450 C 470 446 476 419 506 424 Q 509 424 612 444 Q 690 465 708 454 Q 715 436 721 387 Q 728 240 721 212 Z"/>
  <path id="z21943d11" d="M 584 319 Q 593 135 519 58 Q 507 49 494 38 Q 460 14 386 -17 Q 373 -20 370 -23 Q 366 -27 379 -31 Q 457 -37 557 28 Q 566 37 575 47 Q 623 101 634 255 Q 638 321 648 347 Q 652 357 644 364 Q 628 379 596 391 Q 577 400 562 394 Q 544 387 559 372 Q 584 347 584 319 Z"/>
  <path id="z21943d12" d="M 683 105 Q 735 50 795 -27 Q 810 -48 824 -53 Q 833 -54 841 -46 Q 854 -33 845 10 Q 833 73 686 135 Q 677 141 675 129 Q 674 116 683 105 Z"/>
<defs>
  <clipPath id="z21943c1"><use href="#z21943d1"/></clipPath>
  <clipPath id="z21943c2"><use href="#z21943d2"/></clipPath>
  <clipPath id="z21943c3"><use href="#z21943d3"/></clipPath>
  <clipPath id="z21943c4"><use href="#z21943d4"/></clipPath>
  <clipPath id="z21943c5"><use href="#z21943d5"/></clipPath>
  <clipPath id="z21943c6"><use href="#z21943d6"/></clipPath>
  <clipPath id="z21943c7"><use href="#z21943d7"/></clipPath>
  <clipPath id="z21943c8"><use href="#z21943d8"/></clipPath>
  <clipPath id="z21943c9"><use href="#z21943d9"/></clipPath>
  <clipPath id="z21943c10"><use href="#z21943d10"/></clipPath>
  <clipPath id="z21943c11"><use href="#z21943d11"/></clipPath>
  <clipPath id="z21943c12"><use href="#z21943d12"/></clipPath>
</defs>
<path style="--d:1s;" pathLength="3333" clip-path="url(#z21943c1)" d="M 94 583 L 122 559 L 127 545 L 164 339"/>
<path style="--d:2s;" pathLength="3333" clip-path="url(#z21943c2)" d="M 154 574 L 172 570 L 260 600 L 287 600 L 304 587 L 313 576 L 291 465 L 268 453"/>
<path style="--d:3s;" pathLength="3333" clip-path="url(#z21943c3)" d="M 184 384 L 200 400 L 269 420 L 313 424 L 333 418"/>
<path style="--d:4s;" pathLength="3333" clip-path="url(#z21943c4)" d="M 485 729 L 556 725 L 687 756 L 764 764"/>
<path style="--d:5s;" pathLength="3333" clip-path="url(#z21943c5)" d="M 588 845 L 602 841 L 626 816 L 619 715 L 605 635"/>
<path style="--d:6s;" pathLength="3333" clip-path="url(#z21943c6)" d="M 384 568 L 420 561 L 445 564 L 580 593 L 821 625 L 872 625 L 914 614"/>
<path style="--d:7s;" pathLength="3333" clip-path="url(#z21943c7)" d="M 451 645 L 470 637 L 488 620 L 519 492"/>
<path style="--d:8s;" pathLength="3333" clip-path="url(#z21943c8)" d="M 719 711 L 743 679 L 718 590 L 688 518"/>
<path style="--d:9s;" pathLength="3333" clip-path="url(#z21943c9)" d="M 447 465 L 475 439 L 479 425 L 482 302 L 469 208 L 471 144"/>
<path style="--d:10s;" pathLength="3333" clip-path="url(#z21943c10)" d="M 506 431 L 526 442 L 596 451 L 689 479 L 717 479 L 735 468 L 754 444 L 750 400 L 757 217 L 750 153"/>
<path style="--d:11s;" pathLength="3333" clip-path="url(#z21943c11)" d="M 564 383 L 583 375 L 613 346 L 603 188 L 579 102 L 537 42 L 507 21 L 424 -16 L 375 -26"/>
<path style="--d:12s;" pathLength="3333" clip-path="url(#z21943c12)" d="M 685 124 L 788 38 L 812 6 L 826 -38"/>
</svg>