<svg id="z29148" class="acjk" viewBox="0 0 1024 1024" xmlns="http://www.w3.org/2000/svg">
  <path id="z29148d1" d="M 119 520 Q 109 462 87 407 Q 75 379 96 349 Q 106 336 122 350 Q 161 393 151 475 Q 150 503 140 524 Q 134 530 129 530 Q 122 527 119 520 Z"/>
  <path id="z29148d2" d="M 255 473 Q 321 516 353 531 Q 366 534 364 543 Q 360 555 346 569 Q 333 584 315 586 Q 305 586 304 571 Q 305 556 256 496 C 237 473 230 457 255 473 Z"/>
  <path id="z29148d3" d="M 250 313 Q 250 325 255 473 L 256 496 Q 257 652 281 719 Q 287 732 276 743 Q 255 761 217 770 Q 193 776 185 769 Q 176 762 184 751 Q 247 652 198 260 Q 168 157 163 145 Q 102 64 86 48 Q 74 39 62 27 Q 52 18 52 14 Q 53 10 64 12 Q 77 8 106 24 Q 203 67 238 213 Q 245 246 248 285 L 250 313 Z"/>
  <path id="z29148d4" d="M 248 285 Q 254 282 299 231 Q 306 221 318 221 Q 325 220 330 229 Q 334 239 330 259 Q 326 283 255 312 Q 254 313 250 313 C 220 316 224 303 248 285 Z"/>
  <path id="z29148d5" d="M 427 685 Q 409 703 377 713 Q 370 714 363 707 Q 360 701 367 692 Q 394 622 393 554 Q 399 272 354 133 Q 347 109 351 91 Q 358 60 370 48 Q 380 35 389 48 Q 422 87 422 259 Q 422 358 424 456 L 424 479 Q 424 516 426 547 L 427 576 Q 430 639 435 664 C 437 677 437 677 427 685 Z"/>
  <path id="z29148d6" d="M 520 466 Q 536 445 554 466 Q 566 481 577 593 Q 581 635 598 662 Q 608 678 597 690 Q 581 703 556 717 Q 543 721 529 716 Q 480 697 427 685 C 398 678 406 655 435 664 Q 514 688 529 679 Q 538 675 536 648 Q 524 501 519 496 C 513 473 513 473 520 466 Z"/>
  <path id="z29148d7" d="M 426 547 Q 465 554 495 559 Q 514 563 505 574 Q 495 584 474 587 Q 455 587 427 576 C 399 565 396 542 426 547 Z"/>
  <path id="z29148d8" d="M 424 456 Q 478 462 520 466 C 550 469 546 482 519 496 Q 518 497 515 498 Q 479 504 424 479 C 397 467 394 453 424 456 Z"/>
  <path id="z29148d9" d="M 694 725 Q 678 737 661 743 Q 655 746 650 741 Q 643 737 650 727 Q 674 679 672 558 Q 669 501 699 479 L 700 478 Q 712 474 716 494 L 718 519 Q 718 534 713 590 L 713 614 Q 713 656 715 697 C 716 710 716 710 694 725 Z"/>
  <path id="z29148d10" d="M 854 506 Q 869 76 848 45 Q 844 42 785 53 Q 758 62 760 52 Q 812 4 841 -29 Q 854 -47 868 -51 Q 877 -55 885 -45 Q 922 4 921 53 Q 894 398 895 654 Q 895 690 906 707 Q 916 726 905 736 Q 884 752 849 766 Q 831 773 784 748 Q 753 736 694 725 C 665 719 686 690 715 697 Q 739 703 808 721 Q 824 725 832 716 Q 845 703 847 658 Q 850 594 853 534 L 854 506 Z"/>
  <path id="z29148d11" d="M 713 590 Q 716 590 721 590 Q 772 600 810 606 Q 829 610 821 621 Q 811 634 788 636 Q 754 639 713 614 C 687 599 683 590 713 590 Z"/>
  <path id="z29148d12" d="M 716 494 Q 719 494 724 494 Q 799 503 854 506 C 884 508 880 520 853 534 Q 846 538 837 540 Q 813 546 718 519 C 689 511 686 494 716 494 Z"/>
  <path id="z29148d13" d="M 465 302 Q 458 257 441 216 Q 432 195 447 175 Q 454 165 466 175 Q 493 211 488 270 Q 487 291 480 305 Q 476 309 472 310 Q 468 309 465 302 Z"/>
  <path id="z29148d14" d="M 524 307 Q 528 294 538 255 Q 553 164 631 134 Q 736 95 823 150 Q 835 156 833 163 Q 830 173 814 185 Q 790 203 726 268 Q 722 274 717 274 Q 714 273 716 267 Q 726 236 739 201 Q 743 186 735 177 Q 711 162 647 174 Q 593 186 575 229 Q 562 260 555 293 Q 551 312 538 320 Q 528 327 523 322 Q 519 321 524 307 Z"/>
  <path id="z29148d15" d="M 590 358 Q 620 312 643 297 Q 653 293 661 301 Q 665 308 666 321 Q 663 345 603 382 Q 593 386 585 385 Q 581 385 582 377 Q 581 370 590 358 Z"/>
  <path id="z29148d16" d="M 734 346 Q 761 324 789 296 Q 798 286 810 287 Q 817 287 822 297 Q 825 307 819 329 Q 812 357 732 381 Q 720 384 716 382 Q 712 379 713 370 Q 716 363 734 346 Z"/>
<defs>
  <clipPath id="z29148c1"><use href="#z29148d1"/></clipPath>
  <clipPath id="z29148c2"><use href="#z29148d2"/></clipPath>
  <clipPath id="z29148c3"><use href="#z29148d3"/></clipPath>
  <clipPath id="z29148c4"><use href="#z29148d4"/></clipPath>
  <clipPath id="z29148c5"><use href="#z29148d5"/></clipPath>
  <clipPath id="z29148c6"><use href="#z29148d6"/></clipPath>
  <clipPath id="z29148c7"><use href="#z29148d7"/></clipPath>
  <clipPath id="z29148c8"><use href="#z29148d8"/></clipPath>
  <clipPath id="z29148c9"><use href="#z29148d9"/></clipPath>
  <clipPath id="z29148c10"><use href="#z29148d10"/></clipPath>
  <clipPath id="z29148c11"><use href="#z29148d11"/></clipPath>
  <clipPath id="z29148c12"><use href="#z29148d12"/></clipPath>
  <clipPath id="z29148c13"><use href="#z29148d13"/></clipPath>
  <clipPath id="z29148c14"><use href="#z29148d14"/></clipPath>
  <clipPath id="z29148c15"><use href="#z29148d15"/></clipPath>
  <clipPath id="z29148c16"><use href="#z29148d16"/></clipPath>
</defs>
<path style="--d:1s;" pathLength="3333" clip-path="url(#z29148c1)" d="M 130 519 L 128 448 L 109 359"/>
<path style="--d:2s;" pathLength="3333" clip-path="url(#z29148c2)" d="M 354 541 L 326 549 L 271 499 L 263 478"/>
<path style="--d:3s;" pathLength="3333" clip-path="url(#z29148c3)" d="M 192 760 L 240 720 L 238 461 L 221 251 L 190 145 L 167 107 L 115 50 L 58 14"/>
<path style="--d:4s;" pathLength="3333" clip-path="url(#z29148c4)" d="M 251 306 L 301 263 L 316 237"/>
<path style="--d:5s;" pathLength="3333" clip-path="url(#z29148c5)" d="M 374 702 L 404 669 L 411 587 L 404 282 L 395 183 L 379 101 L 380 52"/>
<path style="--d:6s;" pathLength="3333" clip-path="url(#z29148c6)" d="M 436 682 L 445 674 L 452 681 L 497 693 L 540 698 L 566 675 L 536 474"/>
<path style="--d:7s;" pathLength="3333" clip-path="url(#z29148c7)" d="M 433 554 L 451 568 L 498 568"/>
<path style="--d:8s;" pathLength="3333" clip-path="url(#z29148c8)" d="M 431 462 L 438 472 L 484 481 L 500 481 L 513 473"/>
<path style="--d:9s;" pathLength="3333" clip-path="url(#z29148c9)" d="M 657 734 L 678 713 L 689 689 L 693 549 L 704 483"/>
<path style="--d:10s;" pathLength="3333" clip-path="url(#z29148c10)" d="M 704 725 L 713 717 L 734 717 L 829 744 L 847 739 L 872 716 L 875 436 L 887 184 L 884 37 L 867 6 L 769 49"/>
<path style="--d:11s;" pathLength="3333" clip-path="url(#z29148c11)" d="M 717 596 L 729 607 L 769 618 L 813 615"/>
<path style="--d:12s;" pathLength="3333" clip-path="url(#z29148c12)" d="M 720 500 L 733 511 L 805 521 L 831 523 L 847 513"/>
<path style="--d:13s;" pathLength="3333" clip-path="url(#z29148c13)" d="M 473 302 L 473 261 L 457 181"/>
<path style="--d:14s;" pathLength="3333" clip-path="url(#z29148c14)" d="M 530 315 L 577 194 L 607 168 L 646 151 L 716 143 L 754 152 L 774 168 L 760 206 L 721 270"/>
<path style="--d:15s;" pathLength="3333" clip-path="url(#z29148c15)" d="M 589 379 L 650 310"/>
<path style="--d:16s;" pathLength="3333" clip-path="url(#z29148c16)" d="M 720 375 L 782 336 L 807 303"/>
</svg>