<svg id="z27891" class="acjk" viewBox="0 0 1024 1024" xmlns="http://www.w3.org/2000/svg">
  <path id="z27891d1" d="M 226 678 Q 251 656 279 630 Q 294 617 311 617 Q 323 618 328 632 Q 334 648 323 681 Q 311 711 220 731 Q 204 735 196 731 Q 190 727 192 713 Q 196 700 226 678 Z"/>
  <path id="z27891d2" d="M 117 505 Q 165 457 199 444 Q 215 443 223 456 Q 227 469 224 487 Q 217 511 197 522 Q 157 547 113 547 Q 106 547 101 544 Q 94 543 98 530 Q 101 518 117 505 Z"/>
  <path id="z27891d3" d="M 113 167 Q 101 163 103 146 Q 115 79 150 56 Q 157 50 167 52 Q 174 53 175 78 Q 178 108 261 337 Q 268 353 267 358 Q 266 368 257 362 Q 248 356 147 201 Q 137 185 113 167 Z"/>
  <path id="z27891d4" d="M 512 787 Q 570 733 613 718 Q 629 717 639 732 Q 643 747 639 766 Q 620 817 526 830 Q 523 831 522 831 Q 503 835 493 829 Q 486 828 490 814 Q 493 801 512 787 Z"/>
  <path id="z27891d5" d="M 610 417 Q 610 546 625 572 Q 638 591 626 601 Q 604 620 568 636 Q 547 645 501 619 Q 459 607 415 600 Q 399 599 408 590 Q 417 580 431 574 Q 449 570 524 590 Q 543 596 549 585 Q 559 552 557 295 Q 551 85 536 61 Q 530 57 443 72 Q 422 76 425 67 Q 492 21 530 -14 Q 543 -33 559 -37 Q 569 -41 577 -31 Q 619 21 614 74 Q 610 195 610 371 L 610 417 Z"/>
  <path id="z27891d6" d="M 281 418 Q 269 418 268 410 Q 267 404 281 396 Q 324 374 349 384 Q 425 409 432 409 Q 445 406 436 381 Q 393 270 354 217 Q 314 159 242 97 Q 229 85 238 83 Q 248 82 266 92 Q 330 126 384 185 Q 436 239 501 379 Q 511 400 521 411 Q 534 421 526 431 Q 516 443 481 454 Q 463 463 411 441 Q 344 426 281 418 Z"/>
  <path id="z27891d7" d="M 632 393 Q 699 433 737 463 Q 819 526 843 535 Q 868 545 856 566 Q 841 585 812 602 Q 785 618 771 614 Q 756 613 761 598 Q 767 562 638 425 Q 632 419 621 405 C 602 382 606 378 632 393 Z"/>
  <path id="z27891d8" d="M 621 405 Q 614 412 610 417 C 590 439 593 395 610 371 Q 758 161 799 145 Q 868 126 969 133 Q 988 133 990 138 Q 994 145 979 152 Q 805 242 803 243 Q 700 312 632 393 L 621 405 Z"/>
<defs>
  <clipPath id="z27891c1"><use href="#z27891d1"/></clipPath>
  <clipPath id="z27891c2"><use href="#z27891d2"/></clipPath>
  <clipPath id="z27891c3"><use href="#z27891d3"/></clipPath>
  <clipPath id="z27891c4"><use href="#z27891d4"/></clipPath>
  <clipPath id="z27891c5"><use href="#z27891d5"/></clipPath>
  <clipPath id="z27891c6"><use href="#z27891d6"/></clipPath>
  <clipPath id="z27891c7"><use href="#z27891d7"/></clipPath>
  <clipPath id="z27891c8"><use href="#z27891d8"/></clipPath>
</defs>
<path style="--d:1s;" pathLength="3333" clip-path="url(#z27891c1)" d="M 203 722 L 281 676 L 309 636"/>
<path style="--d:2s;" pathLength="3333" clip-path="url(#z27891c2)" d="M 110 535 L 174 498 L 193 482 L 202 465"/>
<path style="--d:3s;" pathLength="3333" clip-path="url(#z27891c3)" d="M 162 61 L 148 105 L 148 138 L 261 356"/>
<path style="--d:4s;" pathLength="3333" clip-path="url(#z27891c4)" d="M 502 819 L 574 782 L 620 741"/>
<path style="--d:5s;" pathLength="3333" clip-path="url(#z27891c5)" d="M 418 591 L 455 591 L 546 614 L 564 609 L 588 582 L 576 55 L 558 21 L 435 66"/>
<path style="--d:6s;" pathLength="3333" clip-path="url(#z27891c6)" d="M 277 410 L 332 403 L 427 429 L 460 425 L 476 415 L 447 331 L 411 261 L 372 203 L 301 130 L 243 89"/>
<path style="--d:7s;" pathLength="3333" clip-path="url(#z27891c7)" d="M 770 604 L 783 593 L 797 560 L 731 489 L 655 427 L 650 417 L 636 406 L 630 408"/>
<path style="--d:8s;" pathLength="3333" clip-path="url(#z27891c8)" d="M 615 405 L 629 368 L 677 312 L 746 242 L 805 193 L 878 166 L 984 141"/>
</svg>