<svg id="z28330" class="acjk" viewBox="0 0 1024 1024" xmlns="http://www.w3.org/2000/svg">
  <path id="z28330d1" d="M 221 703 Q 252 681 286 654 Q 301 642 318 644 Q 328 645 333 660 Q 336 676 324 706 Q 309 740 211 752 Q 195 755 188 751 Q 184 747 186 733 Q 190 723 221 703 Z"/>
  <path id="z28330d2" d="M 130 505 Q 181 457 219 443 Q 235 442 243 456 Q 247 469 244 487 Q 222 533 142 545 Q 141 546 139 546 Q 121 549 113 544 Q 106 543 110 530 Q 113 518 130 505 Z"/>
  <path id="z28330d3" d="M 117 138 Q 105 134 107 116 Q 119 41 156 19 Q 163 12 174 15 Q 181 16 183 42 Q 189 79 297 355 Q 304 371 303 378 Q 302 388 293 381 Q 280 372 160 182 Q 147 160 117 138 Z"/>
  <path id="z28330d4" d="M 606 820 Q 561 781 445 731 Q 441 724 445 720 Q 490 720 618 766 Q 628 778 700 790 Q 716 791 720 798 Q 724 808 713 818 Q 659 860 627 856 Q 620 853 620 843 Q 619 830 606 820 Z"/>
  <path id="z28330d5" d="M 402 645 Q 423 624 444 599 Q 454 587 467 587 Q 476 586 481 597 Q 485 609 481 633 Q 474 660 402 684 Q 389 688 384 687 Q 380 684 380 673 Q 381 663 402 645 Z"/>
  <path id="z28330d6" d="M 537 691 Q 573 637 591 635 Q 603 634 610 648 Q 611 660 605 678 Q 598 691 581 698 Q 554 711 543 714 Q 536 717 533 707 Q 532 700 537 691 Z"/>
  <path id="z28330d7" d="M 737 708 Q 721 687 652 625 Q 642 612 657 612 Q 775 672 811 681 Q 832 688 824 705 Q 814 721 793 738 Q 774 754 761 752 Q 749 753 752 740 Q 752 724 737 708 Z"/>
  <path id="z28330d8" d="M 577 465 Q 522 468 477 469 Q 464 469 471 477 Q 520 517 564 544 Q 580 554 580 562 Q 581 574 557 608 Q 547 623 532 624 Q 522 625 523 611 Q 526 577 455 509 Q 440 494 416 483 Q 398 474 397 463 Q 398 447 407 429 Q 414 419 426 422 Q 454 435 543 444 Q 547 445 553 444 C 583 444 607 463 577 465 Z"/>
  <path id="z28330d9" d="M 549 322 Q 595 340 695 357 C 725 362 714 378 684 374 Q 596 364 490 341 Q 480 338 487 346 Q 536 389 649 474 Q 683 502 711 516 Q 724 523 721 533 Q 715 552 689 578 Q 676 590 667 589 Q 657 588 656 573 Q 649 534 577 465 L 553 444 Q 433 342 412 336 Q 399 329 399 316 Q 398 304 418 283 Q 425 270 442 279 Q 481 300 521 313 L 549 322 Z"/>
  <path id="z28330d10" d="M 695 357 Q 719 315 734 310 Q 741 309 749 317 Q 756 327 756 353 Q 756 386 681 429 Q 671 435 664 434 Q 660 433 658 422 Q 658 412 674 390 Q 678 383 684 374 L 695 357 Z"/>
  <path id="z28330d11" d="M 594 205 Q 691 215 839 214 Q 905 211 911 222 Q 915 232 900 246 Q 849 285 814 277 Q 732 261 596 240 L 535 233 Q 421 221 292 205 Q 273 204 287 187 Q 300 174 317 168 Q 338 162 353 167 Q 435 189 529 199 L 594 205 Z"/>
  <path id="z28330d12" d="M 596 240 Q 611 288 611 290 L 610 293 Q 604 300 575 312 Q 560 319 549 322 C 521 332 514 334 521 313 Q 520 309 525 300 Q 540 279 535 233 L 529 199 Q 493 106 426 69 Q 389 45 291 13 Q 264 4 294 -1 Q 376 -4 481 53 Q 493 62 506 73 Q 548 107 579 184 L 596 240 Z"/>
  <path id="z28330d13" d="M 579 184 Q 646 97 722 16 Q 744 -8 781 -10 Q 848 -14 920 -3 Q 939 -2 940 3 Q 943 10 928 16 Q 771 76 741 94 Q 653 152 594 205 C 572 225 561 208 579 184 Z"/>
<defs>
  <clipPath id="z28330c1"><use href="#z28330d1"/></clipPath>
  <clipPath id="z28330c2"><use href="#z28330d2"/></clipPath>
  <clipPath id="z28330c3"><use href="#z28330d3"/></clipPath>
  <clipPath id="z28330c4"><use href="#z28330d4"/></clipPath>
  <clipPath id="z28330c5"><use href="#z28330d5"/></clipPath>
  <clipPath id="z28330c6"><use href="#z28330d6"/></clipPath>
  <clipPath id="z28330c7"><use href="#z28330d7"/></clipPath>
  <clipPath id="z28330c8"><use href="#z28330d8"/></clipPath>
  <clipPath id="z28330c9"><use href="#z28330d9"/></clipPath>
  <clipPath id="z28330c10"><use href="#z28330d10"/></clipPath>
  <clipPath id="z28330c11"><use href="#z28330d11"/></clipPath>
  <clipPath id="z28330c12"><use href="#z28330d12"/></clipPath>
  <clipPath id="z28330c13"><use href="#z28330d13"/></clipPath>
</defs>
<path style="--d:1s;" pathLength="3333" clip-path="url(#z28330c1)" d="M 194 745 L 287 697 L 314 663"/>
<path style="--d:2s;" pathLength="3333" clip-path="url(#z28330c2)" d="M 121 535 L 203 488 L 222 465"/>
<path style="--d:3s;" pathLength="3333" clip-path="url(#z28330c3)" d="M 168 25 L 157 55 L 155 110 L 182 151 L 297 375"/>
<path style="--d:4s;" pathLength="3333" clip-path="url(#z28330c4)" d="M 710 803 L 649 816 L 581 774 L 449 726"/>
<path style="--d:5s;" pathLength="3333" clip-path="url(#z28330c5)" d="M 387 679 L 439 643 L 468 601"/>
<path style="--d:6s;" pathLength="3333" clip-path="url(#z28330c6)" d="M 543 704 L 583 669 L 593 651"/>
<path style="--d:7s;" pathLength="3333" clip-path="url(#z28330c7)" d="M 765 740 L 778 706 L 665 627 L 665 622"/>
<path style="--d:8s;" pathLength="3333" clip-path="url(#z28330c8)" d="M 536 612 L 545 569 L 460 492 L 443 461 L 474 451 L 531 453 L 569 462"/>
<path style="--d:9s;" pathLength="3333" clip-path="url(#z28330c9)" d="M 669 576 L 680 538 L 612 471 L 474 358 L 460 329 L 480 321 L 622 356 L 678 364 L 685 357"/>
<path style="--d:10s;" pathLength="3333" clip-path="url(#z28330c10)" d="M 667 425 L 729 354 L 736 322"/>
<path style="--d:11s;" pathLength="3333" clip-path="url(#z28330c11)" d="M 290 196 L 343 188 L 515 215 L 824 246 L 903 227"/>
<path style="--d:12s;" pathLength="3333" clip-path="url(#z28330c12)" d="M 530 309 L 549 301 L 570 276 L 552 186 L 510 111 L 463 67 L 419 43 L 351 18 L 300 8"/>
<path style="--d:13s;" pathLength="3333" clip-path="url(#z28330c13)" d="M 590 197 L 594 185 L 638 141 L 754 41 L 833 19 L 934 5"/>
</svg>