<svg id="z26674" class="acjk" viewBox="0 0 1024 1024" xmlns="http://www.w3.org/2000/svg">
  <path id="z26674d1" d="M 329 545 Q 351 552 379 557 Q 418 567 424 573 Q 431 580 427 589 Q 420 599 392 606 Q 346 612 330 597 L 282 580 Q 161 553 128 548 Q 94 541 119 526 Q 155 505 236 524 Q 252 528 272 531 L 329 545 Z"/>
  <path id="z26674d2" d="M 326 458 Q 327 500 329 545 L 330 597 Q 333 676 350 732 Q 359 747 356 760 Q 349 770 294 805 Q 270 823 249 807 Q 245 803 250 786 Q 281 740 281 694 Q 281 640 282 580 L 278 431 Q 274 352 274 266 Q 270 193 250 125 Q 237 83 264 23 Q 270 4 278 1 Q 284 -6 292 3 Q 319 19 320 85 Q 319 125 326 425 L 326 458 Z"/>
  <path id="z26674d3" d="M 272 531 Q 218 392 66 193 Q 62 183 72 182 Q 96 182 199 307 Q 241 359 278 431 C 344 558 283 559 272 531 Z"/>
  <path id="z26674d4" d="M 326 425 Q 381 374 396 373 Q 408 372 412 388 Q 413 398 404 415 Q 388 442 326 458 C 297 466 304 445 326 425 Z"/>
  <path id="z26674d5" d="M 638 613 Q 716 631 719 634 Q 728 641 723 649 Q 716 659 689 666 Q 664 670 642 661 L 594 646 Q 584 645 576 642 Q 543 635 503 630 Q 470 624 494 609 Q 540 587 593 603 L 638 613 Z"/>
  <path id="z26674d6" d="M 629 503 Q 633 560 638 613 L 642 661 Q 643 727 662 790 Q 666 800 648 814 Q 617 832 594 836 Q 579 839 572 832 Q 565 825 572 811 Q 591 783 591 764 Q 594 707 594 646 L 593 603 Q 592 551 589 496 C 587 466 627 473 629 503 Z"/>
  <path id="z26674d7" d="M 693 474 Q 790 487 909 488 Q 928 489 933 498 Q 937 510 921 522 Q 866 559 803 541 Q 772 534 733 524 L 663 509 Q 653 509 629 503 L 589 496 Q 504 483 411 466 Q 392 463 407 447 Q 420 434 438 430 Q 459 426 474 431 Q 544 453 628 465 L 693 474 Z"/>
  <path id="z26674d8" d="M 605 377 Q 638 411 693 474 L 733 524 Q 808 632 831 655 Q 840 665 833 682 Q 820 713 803 728 Q 790 741 773 744 Q 755 745 759 723 Q 771 645 663 509 L 628 465 Q 508 326 333 193 Q 326 189 324 181 Q 324 175 330 175 Q 340 176 349 180 Q 440 229 486 268 Q 532 305 577 347 L 605 377 Z"/>
  <path id="z26674d9" d="M 640 335 Q 743 350 821 359 Q 846 362 837 376 Q 827 392 800 397 Q 776 401 637 368 C 608 361 610 331 640 335 Z"/>
  <path id="z26674d10" d="M 578 176 Q 609 203 678 224 Q 711 234 730 228 Q 751 222 753 189 Q 743 128 708 81 Q 690 59 676 55 Q 660 52 592 83 Q 577 93 575 86 Q 574 80 583 67 Q 616 21 636 -19 Q 645 -34 656 -34 Q 672 -37 692 -27 Q 761 22 804 163 Q 807 191 819 209 Q 831 221 821 233 Q 805 249 769 265 Q 750 274 727 267 Q 696 257 673 253 Q 660 249 640 244 Q 606 235 619 270 Q 632 319 640 335 C 651 363 651 363 637 368 Q 624 375 605 377 C 576 384 572 377 577 347 Q 587 320 570 264 Q 564 249 545 226 Q 532 210 536 196 Q 539 183 555 172 Q 567 163 578 176 Z"/>
<defs>
  <clipPath id="z26674c1"><use href="#z26674d1"/></clipPath>
  <clipPath id="z26674c2"><use href="#z26674d2"/></clipPath>
  <clipPath id="z26674c3"><use href="#z26674d3"/></clipPath>
  <clipPath id="z26674c4"><use href="#z26674d4"/></clipPath>
  <clipPath id="z26674c5"><use href="#z26674d5"/></clipPath>
  <clipPath id="z26674c6"><use href="#z26674d6"/></clipPath>
  <clipPath id="z26674c7"><use href="#z26674d7"/></clipPath>
  <clipPath id="z26674c8"><use href="#z26674d8"/></clipPath>
  <clipPath id="z26674c9"><use href="#z26674d9"/></clipPath>
  <clipPath id="z26674c10"><use href="#z26674d10"/></clipPath>
</defs>
<path style="--d:1s;" pathLength="3333" clip-path="url(#z26674c1)" d="M 121 538 L 149 533 L 204 539 L 364 582 L 415 583"/>
<path style="--d:2s;" pathLength="3333" clip-path="url(#z26674c2)" d="M 261 800 L 290 776 L 313 746 L 299 271 L 283 103 L 283 14"/>
<path style="--d:3s;" pathLength="3333" clip-path="url(#z26674c3)" d="M 278 526 L 256 439 L 217 370 L 162 289 L 73 190"/>
<path style="--d:4s;" pathLength="3333" clip-path="url(#z26674c4)" d="M 335 453 L 347 431 L 383 406 L 397 388"/>
<path style="--d:5s;" pathLength="3333" clip-path="url(#z26674c5)" d="M 496 621 L 518 616 L 568 618 L 656 642 L 713 644"/>
<path style="--d:6s;" pathLength="3333" clip-path="url(#z26674c6)" d="M 582 823 L 624 787 L 611 529 L 595 504"/>
<path style="--d:7s;" pathLength="3333" clip-path="url(#z26674c7)" d="M 410 456 L 464 452 L 542 470 L 830 516 L 877 515 L 922 503"/>
<path style="--d:8s;" pathLength="3333" clip-path="url(#z26674c8)" d="M 771 730 L 788 705 L 795 672 L 734 565 L 671 481 L 576 376 L 502 307 L 382 212 L 333 184"/>
<path style="--d:9s;" pathLength="3333" clip-path="url(#z26674c9)" d="M 648 341 L 656 356 L 735 370 L 792 377 L 826 370"/>
<path style="--d:10s;" pathLength="3333" clip-path="url(#z26674c10)" d="M 629 362 L 617 354 L 609 338 L 589 228 L 627 224 L 709 246 L 738 248 L 766 237 L 783 218 L 781 189 L 764 125 L 742 79 L 717 43 L 680 15 L 670 11 L 580 83"/>
</svg>