<svg id="z24813" class="acjk" viewBox="0 0 1024 1024" xmlns="http://www.w3.org/2000/svg">
  <path id="z24813d1" d="M 116 497 Q 98 439 69 383 Q 51 352 72 319 Q 81 303 100 317 Q 148 359 146 444 Q 147 475 139 499 Q 133 506 128 507 Q 121 506 116 497 Z"/>
  <path id="z24813d2" d="M 262 539 Q 287 526 314 509 Q 324 503 334 506 Q 340 507 342 516 Q 343 526 333 543 Q 326 556 303 563 Q 284 567 263 567 C 233 567 235 553 262 539 Z"/>
  <path id="z24813d3" d="M 263 567 Q 264 649 281 705 Q 288 718 286 732 Q 280 741 227 773 Q 205 789 186 775 Q 182 771 187 755 Q 217 710 218 638 Q 218 241 202 157 Q 196 136 191 113 Q 182 76 205 17 Q 212 1 219 -3 Q 225 -9 232 -1 Q 239 3 249 23 Q 258 45 257 75 Q 256 123 262 539 L 263 567 Z"/>
  <path id="z24813d4" d="M 440 583 Q 492 599 548 614 Q 573 623 577 626 Q 584 633 580 642 Q 573 652 545 656 Q 517 659 459 633 L 413 618 Q 386 612 357 607 Q 324 598 350 585 Q 368 576 401 576 L 440 583 Z"/>
  <path id="z24813d5" d="M 488 384 Q 525 394 560 398 Q 588 399 579 413 Q 570 425 555 431 Q 543 435 490 419 L 451 409 Q 427 405 400 398 Q 385 395 383 398 Q 376 413 440 583 L 459 633 Q 492 724 507 740 Q 519 752 502 769 Q 477 793 457 804 Q 444 810 435 807 Q 428 803 434 783 Q 444 753 413 618 L 401 576 Q 353 432 320 395 Q 296 368 329 338 Q 339 329 348 335 Q 376 353 451 373 L 488 384 Z"/>
  <path id="z24813d6" d="M 490 419 Q 491 453 495 471 Q 498 481 491 487 Q 472 505 456 512 Q 446 516 438 509 Q 434 506 439 498 Q 448 483 450 454 Q 450 435 451 409 L 451 373 Q 450 337 449 292 L 446 248 Q 440 131 430 101 Q 424 64 451 26 Q 461 10 467 6 Q 477 5 481 16 Q 491 43 489 69 Q 486 172 487 262 L 487 304 Q 487 343 488 384 L 490 419 Z"/>
  <path id="z24813d7" d="M 449 292 Q 367 268 312 256 Q 302 253 299 246 Q 298 236 312 227 Q 351 206 385 222 Q 419 238 446 248 L 487 262 Q 521 275 565 285 Q 580 289 579 295 Q 579 307 562 313 Q 537 320 487 304 L 449 292 Z"/>
  <path id="z24813d8" d="M 677 572 Q 719 599 744 618 Q 805 667 827 676 Q 846 686 836 703 Q 823 719 799 732 Q 777 745 764 741 Q 752 740 756 727 Q 760 703 696 623 Q 680 607 664 586 C 646 562 652 556 677 572 Z"/>
  <path id="z24813d9" d="M 674 454 Q 674 539 677 561 Q 678 568 677 572 C 677 580 677 580 664 586 Q 663 587 662 587 Q 617 606 604 602 Q 588 598 602 579 Q 638 527 622 348 Q 615 315 603 278 Q 591 242 525 156 Q 513 144 510 138 Q 509 132 520 133 Q 553 136 604 198 Q 664 274 673 427 L 674 454 Z"/>
  <path id="z24813d10" d="M 800 444 Q 815 448 914 464 Q 926 467 926 473 Q 926 483 905 497 Q 869 518 811 491 Q 778 481 751 472 Q 711 465 674 454 C 645 446 643 430 673 427 Q 677 427 681 426 Q 693 426 748 434 L 800 444 Z"/>
  <path id="z24813d11" d="M 772 -26 Q 776 -48 783 -57 Q 787 -64 795 -62 Q 807 -53 814 0 Q 821 57 819 113 Q 813 326 830 407 Q 833 423 820 432 Q 810 439 800 444 C 774 459 738 462 748 434 Q 764 391 767 381 Q 770 273 768 110 Q 767 8 772 -26 Z"/>
<defs>
  <clipPath id="z24813c1"><use href="#z24813d1"/></clipPath>
  <clipPath id="z24813c2"><use href="#z24813d2"/></clipPath>
  <clipPath id="z24813c3"><use href="#z24813d3"/></clipPath>
  <clipPath id="z24813c4"><use href="#z24813d4"/></clipPath>
  <clipPath id="z24813c5"><use href="#z24813d5"/></clipPath>
  <clipPath id="z24813c6"><use href="#z24813d6"/></clipPath>
  <clipPath id="z24813c7"><use href="#z24813d7"/></clipPath>
  <clipPath id="z24813c8"><use href="#z24813d8"/></clipPath>
  <clipPath id="z24813c9"><use href="#z24813d9"/></clipPath>
  <clipPath id="z24813c10"><use href="#z24813d10"/></clipPath>
  <clipPath id="z24813c11"><use href="#z24813d11"/></clipPath>
</defs>
<path style="--d:1s;" pathLength="3333" clip-path="url(#z24813c1)" d="M 128 495 L 118 419 L 93 358 L 87 327"/>
<path style="--d:2s;" pathLength="3333" clip-path="url(#z24813c2)" d="M 270 560 L 310 537 L 328 519"/>
<path style="--d:3s;" pathLength="3333" clip-path="url(#z24813c3)" d="M 197 769 L 245 717 L 236 257 L 223 98 L 224 9"/>
<path style="--d:4s;" pathLength="3333" clip-path="url(#z24813c4)" d="M 351 597 L 417 598 L 521 631 L 569 636"/>
<path style="--d:5s;" pathLength="3333" clip-path="url(#z24813c5)" d="M 441 800 L 471 749 L 421 576 L 373 452 L 353 378 L 398 377 L 545 414 L 568 408"/>
<path style="--d:6s;" pathLength="3333" clip-path="url(#z24813c6)" d="M 446 504 L 471 476 L 472 458 L 459 96 L 469 15"/>
<path style="--d:7s;" pathLength="3333" clip-path="url(#z24813c7)" d="M 308 243 L 361 241 L 518 294 L 569 297"/>
<path style="--d:8s;" pathLength="3333" clip-path="url(#z24813c8)" d="M 764 732 L 775 723 L 788 696 L 711 614 L 680 587 L 673 587"/>
<path style="--d:9s;" pathLength="3333" clip-path="url(#z24813c9)" d="M 607 590 L 642 565 L 648 538 L 651 435 L 644 346 L 628 285 L 605 236 L 549 162 L 517 139"/>
<path style="--d:10s;" pathLength="3333" clip-path="url(#z24813c10)" d="M 678 434 L 700 445 L 845 478 L 881 482 L 915 475"/>
<path style="--d:11s;" pathLength="3333" clip-path="url(#z24813c11)" d="M 756 426 L 786 413 L 796 399 L 791 -54"/>
</svg>