<svg id="z21582" class="acjk" viewBox="0 0 1024 1024" xmlns="http://www.w3.org/2000/svg">
  <path id="z21582d1" d="M 121 618 Q 108 624 80 630 Q 67 634 63 628 Q 56 622 64 605 Q 94 535 107 422 Q 108 388 128 365 Q 144 341 151 357 Q 158 376 156 413 L 152 447 Q 136 562 136 590 C 135 612 135 612 121 618 Z"/>
  <path id="z21582d2" d="M 302 474 Q 320 571 347 602 Q 369 630 346 643 Q 325 655 297 672 Q 279 681 232 655 Q 184 634 121 618 C 92 610 108 579 136 590 Q 155 599 235 617 Q 260 624 267 614 Q 276 607 268 565 Q 259 523 249 475 C 243 446 296 445 302 474 Z"/>
  <path id="z21582d3" d="M 156 413 Q 163 413 172 415 Q 218 428 318 441 Q 328 442 329 452 Q 329 459 302 474 C 282 486 278 484 249 475 Q 194 457 152 447 C 123 440 126 411 156 413 Z"/>
  <path id="z21582d4" d="M 747 555 Q 780 648 818 671 Q 837 692 821 712 Q 739 775 686 749 Q 622 722 499 695 C 470 688 482 651 511 660 Q 527 667 686 701 Q 705 707 714 698 Q 724 688 720 667 Q 705 609 688 560 C 678 532 737 527 747 555 Z"/>
  <path id="z21582d5" d="M 484 482 Q 491 481 502 483 Q 584 502 759 519 Q 771 520 772 530 Q 772 537 747 555 C 727 570 717 567 688 560 Q 577 533 490 519 C 460 514 454 482 484 482 Z"/>
  <path id="z21582d6" d="M 480 460 Q 481 470 484 482 L 490 519 Q 497 571 504 629 Q 508 648 511 660 C 517 685 517 685 499 695 Q 450 725 432 724 Q 410 723 426 697 Q 454 634 421 429 Q 408 344 357 245 Q 321 176 211 81 Q 195 68 190 62 Q 187 55 200 54 Q 245 51 332 132 Q 434 234 474 427 L 480 460 Z"/>
  <path id="z21582d7" d="M 474 427 Q 499 405 516 376 Q 730 51 774 33 Q 811 18 957 32 Q 978 33 985 42 Q 991 51 978 56 Q 795 132 745 178 Q 648 260 509 437 Q 497 455 480 460 C 454 475 453 448 474 427 Z"/>
<defs>
  <clipPath id="z21582c1"><use href="#z21582d1"/></clipPath>
  <clipPath id="z21582c2"><use href="#z21582d2"/></clipPath>
  <clipPath id="z21582c3"><use href="#z21582d3"/></clipPath>
  <clipPath id="z21582c4"><use href="#z21582d4"/></clipPath>
  <clipPath id="z21582c5"><use href="#z21582d5"/></clipPath>
  <clipPath id="z21582c6"><use href="#z21582d6"/></clipPath>
  <clipPath id="z21582c7"><use href="#z21582d7"/></clipPath>
</defs>
<path style="--d:1s;" pathLength="3333" clip-path="url(#z21582c1)" d="M 72 620 L 100 594 L 107 576 L 140 363"/>
<path style="--d:2s;" pathLength="3333" clip-path="url(#z21582c2)" d="M 130 614 L 143 608 L 267 644 L 287 640 L 299 630 L 309 619 L 281 500 L 256 482"/>
<path style="--d:3s;" pathLength="3333" clip-path="url(#z21582c3)" d="M 159 419 L 175 435 L 248 453 L 295 457 L 320 450"/>
<path style="--d:4s;" pathLength="3333" clip-path="url(#z21582c4)" d="M 511 666 L 530 685 L 701 729 L 738 721 L 768 691 L 727 585 L 696 565"/>
<path style="--d:5s;" pathLength="3333" clip-path="url(#z21582c5)" d="M 488 488 L 513 505 L 685 535 L 738 537 L 763 529"/>
<path style="--d:6s;" pathLength="3333" clip-path="url(#z21582c6)" d="M 432 710 L 460 686 L 473 658 L 462 517 L 447 423 L 426 340 L 376 228 L 329 163 L 253 92 L 198 62"/>
<path style="--d:7s;" pathLength="3333" clip-path="url(#z21582c7)" d="M 484 454 L 493 432 L 600 288 L 695 175 L 773 99 L 797 81 L 832 71 L 975 46"/>
</svg>