<svg id="z20645" class="acjk" viewBox="0 0 1024 1024" xmlns="http://www.w3.org/2000/svg">
  <path id="z20645d1" d="M 221 486 Q 273 550 331 641 Q 359 692 386 717 Q 396 727 391 742 Q 387 755 357 780 Q 329 799 310 799 Q 291 798 299 774 Q 312 740 300 712 Q 258 615 197 527 Q 137 442 56 348 Q 46 338 42 331 Q 38 319 53 322 Q 90 326 194 454 L 221 486 Z"/>
  <path id="z20645d2" d="M 194 454 Q 212 406 218 360 Q 218 210 194 115 Q 184 70 218 19 Q 219 19 221 16 Q 239 0 251 27 Q 266 67 265 114 Q 262 348 269 400 Q 276 427 267 438 Q 225 484 221 486 C 199 507 184 482 194 454 Z"/>
  <path id="z20645d3" d="M 600 581 Q 613 717 629 792 Q 632 802 615 815 Q 584 831 563 836 Q 550 839 542 832 Q 535 825 542 812 Q 557 791 557 777 Q 564 683 562 574 C 562 544 597 551 600 581 Z"/>
  <path id="z20645d4" d="M 434 655 Q 450 634 468 610 Q 478 597 493 595 Q 503 594 509 605 Q 516 618 511 646 Q 510 662 486 677 Q 429 705 416 703 Q 412 700 411 688 Q 412 678 434 655 Z"/>
  <path id="z20645d5" d="M 708 727 Q 689 699 652 653 Q 645 646 651 639 Q 658 638 666 642 Q 742 688 779 704 Q 797 708 793 719 Q 789 735 770 754 Q 751 773 730 775 Q 715 775 715 756 Q 716 743 708 727 Z"/>
  <path id="z20645d6" d="M 408 546 Q 396 576 375 587 Q 372 591 366 587 Q 362 584 360 573 Q 366 543 333 468 Q 323 452 325 434 Q 328 415 337 402 Q 344 390 350 398 Q 362 401 378 451 Q 394 500 404 518 Q 404 519 405 520 C 413 535 413 535 408 546 Z"/>
  <path id="z20645d7" d="M 405 520 Q 429 510 475 524 Q 613 566 732 576 Q 750 579 758 577 Q 773 565 769 558 Q 769 557 752 493 Q 746 480 753 477 Q 760 474 774 486 Q 820 523 858 536 Q 889 549 889 557 Q 888 566 819 608 Q 798 621 702 600 Q 647 594 600 581 L 562 574 Q 525 571 408 546 C 379 540 376 527 405 520 Z"/>
  <path id="z20645d8" d="M 474 463 Q 464 467 439 472 Q 429 473 426 470 Q 422 464 429 451 Q 451 408 466 337 Q 469 315 482 301 Q 498 283 502 297 Q 505 306 504 320 L 500 351 Q 488 415 486 438 C 484 460 484 460 474 463 Z"/>
  <path id="z20645d9" d="M 674 374 Q 690 429 709 445 Q 731 469 710 482 Q 691 492 667 510 Q 649 520 612 499 Q 555 475 474 463 C 444 458 457 432 486 438 Q 522 445 600 464 Q 631 471 638 459 Q 642 455 626 379 C 620 350 665 345 674 374 Z"/>
  <path id="z20645d10" d="M 610 335 Q 643 341 685 344 Q 695 345 696 353 Q 696 360 674 374 L 626 379 Q 625 379 624 379 Q 555 360 500 351 C 470 346 474 321 504 320 Q 511 319 520 321 Q 539 325 569 330 L 610 335 Z"/>
  <path id="z20645d11" d="M 454 276 Q 466 162 300 20 Q 293 13 299 11 Q 306 8 316 12 Q 430 57 495 185 Q 507 216 524 241 Q 531 250 526 259 Q 522 269 493 284 Q 474 296 465 294 Q 452 290 454 276 Z"/>
  <path id="z20645d12" d="M 965 59 Q 946 105 931 187 Q 928 202 921 206 Q 914 210 911 191 Q 902 89 888 71 Q 863 40 751 35 Q 690 34 664 43 Q 642 53 636 69 Q 609 135 640 248 Q 652 296 648 304 Q 642 317 610 335 C 585 351 558 358 569 330 Q 569 329 571 325 Q 590 288 585 236 Q 581 95 590 66 Q 599 35 622 16 Q 671 -17 842 -10 Q 920 -4 950 12 Q 978 28 965 59 Z"/>
<defs>
  <clipPath id="z20645c1"><use href="#z20645d1"/></clipPath>
  <clipPath id="z20645c2"><use href="#z20645d2"/></clipPath>
  <clipPath id="z20645c3"><use href="#z20645d3"/></clipPath>
  <clipPath id="z20645c4"><use href="#z20645d4"/></clipPath>
  <clipPath id="z20645c5"><use href="#z20645d5"/></clipPath>
  <clipPath id="z20645c6"><use href="#z20645d6"/></clipPath>
  <clipPath id="z20645c7"><use href="#z20645d7"/></clipPath>
  <clipPath id="z20645c8"><use href="#z20645d8"/></clipPath>
  <clipPath id="z20645c9"><use href="#z20645d9"/></clipPath>
  <clipPath id="z20645c10"><use href="#z20645d10"/></clipPath>
  <clipPath id="z20645c11"><use href="#z20645d11"/></clipPath>
  <clipPath id="z20645c12"><use href="#z20645d12"/></clipPath>
</defs>
<path style="--d:1s;" pathLength="3333" clip-path="url(#z20645c1)" d="M 310 784 L 335 759 L 346 735 L 294 633 L 172 456 L 87 359 L 51 331"/>
<path style="--d:2s;" pathLength="3333" clip-path="url(#z20645c2)" d="M 218 479 L 223 449 L 239 420 L 242 374 L 239 219 L 228 93 L 234 28"/>
<path style="--d:3s;" pathLength="3333" clip-path="url(#z20645c3)" d="M 552 823 L 582 799 L 592 782 L 584 611 L 578 592 L 567 582"/>
<path style="--d:4s;" pathLength="3333" clip-path="url(#z20645c4)" d="M 419 694 L 476 649 L 494 611"/>
<path style="--d:5s;" pathLength="3333" clip-path="url(#z20645c5)" d="M 781 716 L 746 728 L 657 646"/>
<path style="--d:6s;" pathLength="3333" clip-path="url(#z20645c6)" d="M 371 577 L 383 542 L 349 440 L 346 410"/>
<path style="--d:7s;" pathLength="3333" clip-path="url(#z20645c7)" d="M 412 526 L 425 534 L 610 572 L 757 595 L 797 581 L 811 560 L 757 484"/>
<path style="--d:8s;" pathLength="3333" clip-path="url(#z20645c8)" d="M 433 465 L 462 434 L 492 301"/>
<path style="--d:9s;" pathLength="3333" clip-path="url(#z20645c9)" d="M 484 460 L 493 453 L 510 455 L 629 486 L 656 483 L 675 461 L 656 401 L 633 390"/>
<path style="--d:10s;" pathLength="3333" clip-path="url(#z20645c10)" d="M 508 328 L 518 337 L 620 358 L 666 359 L 687 353"/>
<path style="--d:11s;" pathLength="3333" clip-path="url(#z20645c11)" d="M 468 280 L 488 248 L 474 203 L 445 146 L 378 67 L 304 15"/>
<path style="--d:12s;" pathLength="3333" clip-path="url(#z20645c12)" d="M 576 330 L 605 309 L 616 292 L 605 199 L 605 109 L 613 66 L 624 45 L 651 25 L 712 13 L 806 13 L 869 23 L 921 45 L 925 108 L 920 199"/>
</svg>