<svg id="z25082" class="acjk" viewBox="0 0 1024 1024" xmlns="http://www.w3.org/2000/svg">
  <path id="z25082d1" d="M 105 543 Q 92 474 66 410 Q 53 376 75 346 Q 85 331 103 346 Q 121 365 129 398 Q 144 450 139 493 Q 139 524 128 547 Q 121 554 116 554 Q 109 551 105 543 Z"/>
  <path id="z25082d2" d="M 255 593 Q 306 539 322 538 Q 332 537 336 550 Q 337 560 330 575 Q 318 597 257 618 C 229 628 234 615 255 593 Z"/>
  <path id="z25082d3" d="M 257 618 Q 261 679 276 724 Q 283 739 282 751 Q 275 761 223 794 Q 201 810 182 796 Q 176 792 183 776 Q 213 730 214 642 Q 214 245 185 121 Q 181 108 177 93 Q 167 57 190 -3 Q 196 -19 203 -23 Q 209 -29 216 -21 Q 243 -5 243 55 Q 242 104 255 565 Q 255 580 255 593 L 257 618 Z"/>
  <path id="z25082d4" d="M 430 590 Q 452 623 475 670 Q 484 694 494 706 Q 498 713 495 722 Q 491 731 469 743 Q 450 753 437 751 Q 424 747 432 734 Q 459 698 365 529 Q 359 522 359 517 Q 358 510 367 513 Q 379 516 419 573 L 430 590 Z"/>
  <path id="z25082d5" d="M 419 573 Q 468 516 483 515 Q 492 514 497 526 Q 498 535 492 549 Q 482 570 430 590 C 402 601 399 596 419 573 Z"/>
  <path id="z25082d6" d="M 555 642 Q 571 667 589 706 Q 596 722 603 732 Q 607 739 603 748 Q 599 755 578 767 Q 559 774 546 773 Q 534 769 543 756 Q 553 741 533 667 Q 523 634 504 597 Q 500 590 498 585 Q 498 578 506 581 Q 518 584 546 627 L 555 642 Z"/>
  <path id="z25082d7" d="M 546 627 Q 547 626 549 622 Q 586 573 605 570 Q 615 569 621 583 Q 622 593 616 609 Q 609 621 591 628 Q 566 641 555 642 C 534 645 534 645 546 627 Z"/>
  <path id="z25082d8" d="M 709 499 Q 767 509 840 517 Q 850 518 852 527 Q 853 536 822 555 Q 803 565 705 536 L 666 527 Q 476 482 318 459 Q 299 458 311 440 Q 318 431 328 428 Q 329 428 405 442 L 438 449 Q 472 458 513 465 L 536 469 Q 594 482 670 493 L 709 499 Z"/>
  <path id="z25082d9" d="M 405 442 Q 417 411 423 350 L 424 317 Q 424 295 424 265 L 424 235 Q 424 213 424 187 L 425 156 Q 425 125 426 85 C 427 55 463 65 463 95 Q 464 255 465 376 Q 468 427 464 431 Q 451 443 438 449 C 412 464 395 470 405 442 Z"/>
  <path id="z25082d10" d="M 423 350 Q 408 351 391 344 Q 357 338 329 334 Q 304 330 322 318 Q 349 303 401 314 Q 411 317 424 317 C 454 318 453 349 423 350 Z"/>
  <path id="z25082d11" d="M 424 265 Q 403 269 383 260 Q 364 254 325 250 Q 300 246 318 234 Q 342 221 399 231 Q 411 234 424 235 C 454 238 454 260 424 265 Z"/>
  <path id="z25082d12" d="M 424 187 Q 412 188 355 170 Q 339 166 319 163 Q 294 156 313 146 Q 337 137 407 152 Q 414 155 425 156 C 455 159 454 188 424 187 Z"/>
  <path id="z25082d13" d="M 572 125 Q 572 167 573 204 L 573 228 Q 573 256 574 283 L 575 308 Q 575 332 576 354 L 576 382 Q 576 386 577 388 Q 580 436 576 441 Q 555 460 536 469 C 510 483 510 483 513 465 Q 512 462 514 456 Q 529 414 531 400 Q 531 258 533 114 C 533 84 572 95 572 125 Z"/>
  <path id="z25082d14" d="M 576 354 Q 621 363 667 371 Q 667 372 668 372 Q 674 379 671 384 Q 665 391 645 396 Q 623 399 603 389 Q 593 385 580 383 Q 577 383 576 382 C 547 374 547 348 576 354 Z"/>
  <path id="z25082d15" d="M 574 283 Q 623 290 675 299 Q 675 300 676 300 Q 682 307 679 312 Q 673 319 653 324 Q 631 327 611 317 Q 601 313 588 311 Q 581 310 575 308 C 546 299 544 279 574 283 Z"/>
  <path id="z25082d16" d="M 573 204 Q 639 204 672 220 Q 678 227 675 232 Q 669 239 648 244 Q 621 244 573 228 C 545 219 543 204 573 204 Z"/>
  <path id="z25082d17" d="M 426 85 Q 392 78 358 68 Q 337 62 303 64 Q 291 63 290 54 Q 287 44 295 36 Q 314 20 342 3 Q 351 0 362 7 Q 402 34 607 108 Q 635 118 657 133 Q 669 139 669 147 Q 665 151 654 150 Q 614 138 572 125 L 533 114 Q 497 105 463 95 L 426 85 Z"/>
  <path id="z25082d18" d="M 755 151 Q 800 61 858 1 Q 910 -50 938 -52 Q 957 -49 953 -22 Q 952 21 961 143 Q 962 165 955 167 Q 952 167 913 92 Q 895 59 870 76 Q 863 82 853 91 Q 816 137 785 194 L 762 245 Q 740 306 709 499 L 705 536 Q 692 671 712 760 Q 725 797 676 821 Q 645 837 626 832 Q 607 828 614 808 Q 654 768 652 736 Q 656 619 666 527 L 670 493 Q 685 334 736 196 L 755 151 Z"/>
  <path id="z25082d19" d="M 736 196 Q 678 109 596 15 Q 589 9 599 8 Q 647 17 737 127 Q 744 139 755 151 L 785 194 Q 821 254 871 364 Q 886 397 887 401 Q 884 410 871 419 Q 838 441 808 433 Q 801 430 804 419 Q 817 377 762 245 L 736 196 Z"/>
  <path id="z25082d20" d="M 774 666 Q 799 644 827 615 Q 840 602 857 603 Q 867 603 873 617 Q 877 632 869 661 Q 863 680 833 695 Q 760 720 748 715 Q 744 711 744 698 Q 748 688 774 666 Z"/>
<defs>
  <clipPath id="z25082c1"><use href="#z25082d1"/></clipPath>
  <clipPath id="z25082c2"><use href="#z25082d2"/></clipPath>
  <clipPath id="z25082c3"><use href="#z25082d3"/></clipPath>
  <clipPath id="z25082c4"><use href="#z25082d4"/></clipPath>
  <clipPath id="z25082c5"><use href="#z25082d5"/></clipPath>
  <clipPath id="z25082c6"><use href="#z25082d6"/></clipPath>
  <clipPath id="z25082c7"><use href="#z25082d7"/></clipPath>
  <clipPath id="z25082c8"><use href="#z25082d8"/></clipPath>
  <clipPath id="z25082c9"><use href="#z25082d9"/></clipPath>
  <clipPath id="z25082c10"><use href="#z25082d10"/></clipPath>
  <clipPath id="z25082c11"><use href="#z25082d11"/></clipPath>
  <clipPath id="z25082c12"><use href="#z25082d12"/></clipPath>
  <clipPath id="z25082c13"><use href="#z25082d13"/></clipPath>
  <clipPath id="z25082c14"><use href="#z25082d14"/></clipPath>
  <clipPath id="z25082c15"><use href="#z25082d15"/></clipPath>
  <clipPath id="z25082c16"><use href="#z25082d16"/></clipPath>
  <clipPath id="z25082c17"><use href="#z25082d17"/></clipPath>
  <clipPath id="z25082c18"><use href="#z25082d18"/></clipPath>
  <clipPath id="z25082c19"><use href="#z25082d19"/></clipPath>
  <clipPath id="z25082c20"><use href="#z25082d20"/></clipPath>
</defs>
<path style="--d:1s;" pathLength="3333" clip-path="url(#z25082c1)" d="M 117 542 L 113 457 L 94 395 L 89 355"/>
<path style="--d:2s;" pathLength="3333" clip-path="url(#z25082c2)" d="M 265 611 L 272 594 L 300 577 L 323 551"/>
<path style="--d:3s;" pathLength="3333" clip-path="url(#z25082c3)" d="M 194 787 L 219 767 L 240 737 L 232 395 L 220 170 L 208 65 L 208 -12"/>
<path style="--d:4s;" pathLength="3333" clip-path="url(#z25082c4)" d="M 438 741 L 465 713 L 458 686 L 434 628 L 405 580 L 404 568 L 391 560 L 391 550 L 366 521"/>
<path style="--d:5s;" pathLength="3333" clip-path="url(#z25082c5)" d="M 437 580 L 437 571 L 469 548 L 484 528"/>
<path style="--d:6s;" pathLength="3333" clip-path="url(#z25082c6)" d="M 548 764 L 574 738 L 571 724 L 532 623 L 505 589"/>
<path style="--d:7s;" pathLength="3333" clip-path="url(#z25082c7)" d="M 558 635 L 606 584"/>
<path style="--d:8s;" pathLength="3333" clip-path="url(#z25082c8)" d="M 316 449 L 330 445 L 389 452 L 779 533 L 821 535 L 842 527"/>
<path style="--d:9s;" pathLength="3333" clip-path="url(#z25082c9)" d="M 412 438 L 435 425 L 443 388 L 445 121 L 441 104 L 430 93"/>
<path style="--d:10s;" pathLength="3333" clip-path="url(#z25082c10)" d="M 324 327 L 389 327 L 408 332 L 418 344"/>
<path style="--d:11s;" pathLength="3333" clip-path="url(#z25082c11)" d="M 320 243 L 372 241 L 407 250 L 417 243"/>
<path style="--d:12s;" pathLength="3333" clip-path="url(#z25082c12)" d="M 314 155 L 393 163 L 421 179"/>
<path style="--d:13s;" pathLength="3333" clip-path="url(#z25082c13)" d="M 520 461 L 552 427 L 556 400 L 553 150 L 549 134 L 538 122"/>
<path style="--d:14s;" pathLength="3333" clip-path="url(#z25082c14)" d="M 582 361 L 590 371 L 615 378 L 661 380"/>
<path style="--d:15s;" pathLength="3333" clip-path="url(#z25082c15)" d="M 580 289 L 587 298 L 645 310 L 669 308"/>
<path style="--d:16s;" pathLength="3333" clip-path="url(#z25082c16)" d="M 582 210 L 588 219 L 665 228"/>
<path style="--d:17s;" pathLength="3333" clip-path="url(#z25082c17)" d="M 302 52 L 349 35 L 592 114 L 661 146"/>
<path style="--d:18s;" pathLength="3333" clip-path="url(#z25082c18)" d="M 627 816 L 658 800 L 680 774 L 678 619 L 701 410 L 738 251 L 779 154 L 848 56 L 881 32 L 905 25 L 926 58 L 957 163"/>
<path style="--d:19s;" pathLength="3333" clip-path="url(#z25082c19)" d="M 816 423 L 833 408 L 843 388 L 819 316 L 781 232 L 702 113 L 654 58 L 602 13"/>
<path style="--d:20s;" pathLength="3333" clip-path="url(#z25082c20)" d="M 752 709 L 824 664 L 855 621"/>
</svg>