<svg id="z28689" class="acjk" viewBox="0 0 1024 1024" xmlns="http://www.w3.org/2000/svg">
  <path id="z28689d1" d="M 231 731 Q 255 709 281 680 Q 294 667 312 667 Q 322 667 329 681 Q 333 696 326 728 Q 317 758 227 782 Q 211 786 204 783 Q 198 779 200 766 Q 203 754 231 731 Z"/>
  <path id="z28689d2" d="M 129 561 Q 174 506 203 492 Q 218 488 227 501 Q 234 513 232 529 Q 220 575 144 597 L 143 598 Q 127 602 117 600 Q 111 599 113 587 Q 114 575 129 561 Z"/>
  <path id="z28689d3" d="M 108 198 Q 96 195 98 177 Q 114 102 147 84 Q 154 77 165 80 Q 172 81 173 107 Q 180 159 289 432 Q 296 448 295 454 Q 294 464 285 457 Q 275 450 263 433 Q 205 333 152 246 Q 139 222 108 198 Z"/>
  <path id="z28689d4" d="M 419 800 Q 409 804 382 807 Q 372 810 368 805 Q 364 799 371 785 Q 401 731 420 642 Q 424 615 441 598 Q 457 579 462 593 Q 465 605 463 621 L 460 644 Q 459 648 459 652 Q 453 676 449 695 L 444 715 Q 435 755 434 772 C 432 796 432 796 419 800 Z"/>
  <path id="z28689d5" d="M 632 637 Q 647 615 661 606 Q 670 599 684 617 Q 694 633 720 724 Q 727 751 749 772 Q 761 782 751 796 Q 738 811 701 835 Q 689 842 620 830 Q 607 830 419 800 C 389 795 405 766 434 772 Q 504 788 630 800 Q 658 803 666 793 Q 675 783 673 772 Q 657 684 650 671 Q 646 662 637 658 C 625 647 625 647 632 637 Z"/>
  <path id="z28689d6" d="M 449 695 Q 453 694 461 695 Q 540 705 600 712 Q 619 715 613 726 Q 604 738 583 743 Q 561 746 444 715 C 415 707 419 698 449 695 Z"/>
  <path id="z28689d7" d="M 463 621 Q 467 621 476 621 Q 566 630 632 637 C 660 640 660 640 637 658 Q 630 665 616 668 Q 601 671 460 644 C 431 638 433 621 463 621 Z"/>
  <path id="z28689d8" d="M 651 501 Q 667 505 685 507 Q 737 517 746 524 Q 753 530 750 538 Q 744 548 720 556 Q 695 562 670 553 L 606 536 Q 564 527 490 513 L 443 506 Q 415 506 385 503 Q 354 499 375 484 Q 400 468 449 469 L 490 476 Q 544 486 603 494 L 651 501 Z"/>
  <path id="z28689d9" d="M 490 513 Q 490 544 482 550 Q 464 565 442 571 Q 432 575 424 570 Q 418 566 424 554 Q 437 532 443 506 L 449 469 Q 453 441 460 387 C 464 357 493 362 492 392 Q 491 443 490 476 L 490 513 Z"/>
  <path id="z28689d10" d="M 627 410 Q 639 458 651 501 L 670 553 Q 670 554 671 555 Q 674 562 661 576 Q 637 594 620 600 Q 608 604 602 599 Q 595 595 600 582 Q 609 563 606 536 L 603 494 Q 599 452 592 405 C 588 375 620 381 627 410 Z"/>
  <path id="z28689d11" d="M 450 354 Q 532 372 624 376 L 653 379 Q 719 383 804 383 Q 859 380 867 390 Q 871 400 857 412 Q 809 446 755 433 Q 701 424 627 410 L 592 405 Q 583 405 575 403 Q 535 399 492 392 L 460 387 Q 394 380 323 371 Q 304 370 318 354 Q 345 330 387 340 Q 396 343 408 345 L 450 354 Z"/>
  <path id="z28689d12" d="M 401 246 Q 470 321 471 324 Q 471 342 450 354 C 425 371 416 374 408 345 Q 389 260 222 145 Q 215 142 223 139 Q 259 133 353 202 Q 369 217 387 232 L 401 246 Z"/>
  <path id="z28689d13" d="M 624 376 Q 795 187 840 178 Q 930 178 971 186 Q 987 187 988 192 Q 989 198 977 203 Q 814 264 804 270 Q 702 337 653 379 C 630 398 604 398 624 376 Z"/>
  <path id="z28689d14" d="M 507 35 Q 470 42 432 51 Q 422 52 423 47 Q 424 41 433 35 Q 508 -14 536 -48 Q 548 -61 560 -50 Q 584 -23 585 48 Q 572 208 589 252 Q 596 267 582 277 Q 561 295 538 303 Q 523 307 516 302 Q 512 298 520 284 Q 550 230 537 59 Q 534 44 526 37 Q 519 31 507 35 Z"/>
  <path id="z28689d15" d="M 387 232 Q 391 226 406 216 Q 427 201 449 182 Q 458 175 468 175 Q 475 176 478 184 Q 479 194 473 213 Q 469 226 447 235 Q 426 241 401 246 C 372 252 371 252 387 232 Z"/>
  <path id="z28689d16" d="M 326 79 Q 316 78 317 63 Q 318 48 342 36 Q 364 21 378 22 Q 385 23 394 42 Q 418 73 478 142 Q 484 146 481 154 Q 478 157 471 153 Q 357 84 343 80 Q 336 80 326 79 Z"/>
  <path id="z28689d17" d="M 661 255 Q 645 233 612 198 Q 608 192 611 188 Q 615 187 622 189 Q 683 225 712 237 Q 725 240 723 248 Q 719 260 706 273 Q 693 288 678 290 Q 668 290 667 276 Q 668 266 661 255 Z"/>
  <path id="z28689d18" d="M 626 126 Q 677 92 738 39 Q 754 23 767 21 Q 774 21 781 30 Q 790 43 774 80 Q 756 128 624 153 Q 615 157 615 146 Q 616 134 626 126 Z"/>
<defs>
  <clipPath id="z28689c1"><use href="#z28689d1"/></clipPath>
  <clipPath id="z28689c2"><use href="#z28689d2"/></clipPath>
  <clipPath id="z28689c3"><use href="#z28689d3"/></clipPath>
  <clipPath id="z28689c4"><use href="#z28689d4"/></clipPath>
  <clipPath id="z28689c5"><use href="#z28689d5"/></clipPath>
  <clipPath id="z28689c6"><use href="#z28689d6"/></clipPath>
  <clipPath id="z28689c7"><use href="#z28689d7"/></clipPath>
  <clipPath id="z28689c8"><use href="#z28689d8"/></clipPath>
  <clipPath id="z28689c9"><use href="#z28689d9"/></clipPath>
  <clipPath id="z28689c10"><use href="#z28689d10"/></clipPath>
  <clipPath id="z28689c11"><use href="#z28689d11"/></clipPath>
  <clipPath id="z28689c12"><use href="#z28689d12"/></clipPath>
  <clipPath id="z28689c13"><use href="#z28689d13"/></clipPath>
  <clipPath id="z28689c14"><use href="#z28689d14"/></clipPath>
  <clipPath id="z28689c15"><use href="#z28689d15"/></clipPath>
  <clipPath id="z28689c16"><use href="#z28689d16"/></clipPath>
  <clipPath id="z28689c17"><use href="#z28689d17"/></clipPath>
  <clipPath id="z28689c18"><use href="#z28689d18"/></clipPath>
</defs>
<path style="--d:1s;" pathLength="3333" clip-path="url(#z28689c1)" d="M 210 775 L 285 725 L 310 687"/>
<path style="--d:2s;" pathLength="3333" clip-path="url(#z28689c2)" d="M 123 591 L 193 538 L 209 511"/>
<path style="--d:3s;" pathLength="3333" clip-path="url(#z28689c3)" d="M 159 90 L 147 120 L 145 170 L 288 450"/>
<path style="--d:4s;" pathLength="3333" clip-path="url(#z28689c4)" d="M 376 800 L 402 778 L 409 764 L 452 598"/>
<path style="--d:5s;" pathLength="3333" clip-path="url(#z28689c5)" d="M 433 799 L 448 789 L 633 818 L 669 817 L 690 809 L 709 784 L 681 682 L 664 642 L 667 622"/>
<path style="--d:6s;" pathLength="3333" clip-path="url(#z28689c6)" d="M 455 702 L 460 710 L 468 707 L 523 720 L 585 727 L 604 722"/>
<path style="--d:7s;" pathLength="3333" clip-path="url(#z28689c7)" d="M 470 628 L 477 637 L 628 655"/>
<path style="--d:8s;" pathLength="3333" clip-path="url(#z28689c8)" d="M 378 495 L 440 487 L 701 535 L 739 534"/>
<path style="--d:9s;" pathLength="3333" clip-path="url(#z28689c9)" d="M 431 563 L 463 532 L 474 414 L 474 404 L 464 396"/>
<path style="--d:10s;" pathLength="3333" clip-path="url(#z28689c10)" d="M 610 590 L 638 555 L 616 438 L 608 420 L 597 412"/>
<path style="--d:11s;" pathLength="3333" clip-path="url(#z28689c11)" d="M 320 363 L 376 357 L 556 387 L 767 409 L 802 409 L 859 395"/>
<path style="--d:12s;" pathLength="3333" clip-path="url(#z28689c12)" d="M 463 328 L 444 328 L 430 320 L 396 269 L 318 196 L 263 159 L 243 149 L 232 150 L 227 143"/>
<path style="--d:13s;" pathLength="3333" clip-path="url(#z28689c13)" d="M 647 368 L 769 261 L 823 225 L 850 213 L 981 196"/>
<path style="--d:14s;" pathLength="3333" clip-path="url(#z28689c14)" d="M 522 298 L 546 278 L 560 257 L 562 58 L 554 23 L 542 1 L 430 43"/>
<path style="--d:15s;" pathLength="3333" clip-path="url(#z28689c15)" d="M 394 232 L 435 219 L 453 207 L 465 188"/>
<path style="--d:16s;" pathLength="3333" clip-path="url(#z28689c16)" d="M 328 67 L 346 58 L 367 57 L 476 149"/>
<path style="--d:17s;" pathLength="3333" clip-path="url(#z28689c17)" d="M 679 278 L 689 254 L 616 193"/>
<path style="--d:18s;" pathLength="3333" clip-path="url(#z28689c18)" d="M 625 143 L 733 84 L 753 62 L 766 35"/>
</svg>