<svg id="z21839" class="acjk" viewBox="0 0 1024 1024" xmlns="http://www.w3.org/2000/svg">
  <path id="z21839d1" d="M 263 742 Q 238 763 209 772 Q 199 775 192 765 Q 188 759 196 747 Q 254 597 209 273 Q 179 144 180 135 Q 180 134 181 132 Q 191 95 203 81 Q 216 66 226 81 Q 262 123 263 339 Q 263 411 265 483 L 265 510 Q 266 559 268 598 L 270 634 Q 271 689 277 713 Q 277 716 277 718 C 279 730 279 730 263 742 Z"/>
  <path id="z21839d2" d="M 376 495 Q 377 494 379 491 Q 400 463 419 488 Q 431 504 437 555 Q 446 687 467 719 Q 479 737 465 751 Q 408 794 373 773 Q 321 757 263 742 C 234 734 248 710 277 718 Q 371 746 390 737 Q 400 731 398 700 Q 388 544 383 526 C 378 496 375 497 376 495 Z"/>
  <path id="z21839d3" d="M 268 598 Q 314 607 348 611 Q 372 617 362 628 Q 350 641 324 645 Q 302 646 270 634 C 242 624 239 592 268 598 Z"/>
  <path id="z21839d4" d="M 265 483 Q 266 483 271 483 Q 329 492 376 495 C 406 497 410 513 383 526 Q 376 530 367 531 Q 331 535 265 510 C 237 499 235 483 265 483 Z"/>
  <path id="z21839d5" d="M 645 802 Q 623 821 597 831 Q 590 834 585 829 Q 578 825 585 813 Q 615 750 609 608 Q 606 548 636 522 Q 637 521 640 519 Q 655 513 659 540 L 661 571 Q 661 583 656 667 L 655 699 Q 655 739 657 770 C 658 791 658 791 645 802 Z"/>
  <path id="z21839d6" d="M 818 553 Q 824 109 803 76 Q 799 70 779 74 Q 752 81 724 90 Q 703 97 704 87 Q 762 32 792 -6 Q 805 -27 822 -32 Q 832 -36 840 -26 Q 885 29 883 82 Q 870 311 868 683 Q 867 746 882 772 Q 895 793 882 804 Q 860 823 821 840 Q 802 847 786 841 Q 728 811 645 802 C 615 798 628 764 657 770 Q 717 782 772 792 Q 791 795 799 783 Q 814 770 814 721 Q 815 646 818 576 L 818 553 Z"/>
  <path id="z21839d7" d="M 656 667 Q 714 676 759 680 Q 781 684 773 696 Q 763 711 737 715 Q 692 721 655 699 C 629 684 626 662 656 667 Z"/>
  <path id="z21839d8" d="M 659 540 Q 809 555 818 553 C 846 552 841 556 818 576 Q 808 586 790 590 Q 760 596 661 571 C 632 564 629 537 659 540 Z"/>
  <path id="z21839d9" d="M 411 391 Q 399 398 364 405 Q 351 409 347 404 Q 340 397 349 380 Q 374 323 389 231 Q 392 203 407 185 Q 426 161 431 177 Q 435 190 436 210 L 433 244 Q 423 329 420 359 C 417 388 417 388 411 391 Z"/>
  <path id="z21839d10" d="M 638 265 Q 662 337 692 362 Q 708 380 695 398 Q 679 411 627 436 Q 609 443 587 435 Q 532 413 411 391 C 381 386 391 353 420 359 Q 586 393 598 383 Q 607 376 605 357 Q 598 311 587 271 C 579 242 628 237 638 265 Z"/>
  <path id="z21839d11" d="M 436 210 Q 440 210 447 210 Q 511 223 651 230 Q 661 231 663 239 Q 663 248 638 265 C 620 278 616 277 587 271 Q 502 253 433 244 C 403 240 406 210 436 210 Z"/>
<defs>
  <clipPath id="z21839c1"><use href="#z21839d1"/></clipPath>
  <clipPath id="z21839c2"><use href="#z21839d2"/></clipPath>
  <clipPath id="z21839c3"><use href="#z21839d3"/></clipPath>
  <clipPath id="z21839c4"><use href="#z21839d4"/></clipPath>
  <clipPath id="z21839c5"><use href="#z21839d5"/></clipPath>
  <clipPath id="z21839c6"><use href="#z21839d6"/></clipPath>
  <clipPath id="z21839c7"><use href="#z21839d7"/></clipPath>
  <clipPath id="z21839c8"><use href="#z21839d8"/></clipPath>
  <clipPath id="z21839c9"><use href="#z21839d9"/></clipPath>
  <clipPath id="z21839c10"><use href="#z21839d10"/></clipPath>
  <clipPath id="z21839c11"><use href="#z21839d11"/></clipPath>
</defs>
<path style="--d:1s;" pathLength="3333" clip-path="url(#z21839c1)" d="M 203 760 L 238 722 L 247 645 L 241 327 L 214 138 L 215 86"/>
<path style="--d:2s;" pathLength="3333" clip-path="url(#z21839c2)" d="M 272 739 L 288 735 L 395 758 L 414 750 L 432 730 L 407 519 L 400 500 L 388 501"/>
<path style="--d:3s;" pathLength="3333" clip-path="url(#z21839c3)" d="M 275 604 L 297 623 L 353 622"/>
<path style="--d:4s;" pathLength="3333" clip-path="url(#z21839c4)" d="M 268 490 L 281 500 L 376 519"/>
<path style="--d:5s;" pathLength="3333" clip-path="url(#z21839c5)" d="M 592 821 L 623 787 L 629 765 L 634 583 L 644 529"/>
<path style="--d:6s;" pathLength="3333" clip-path="url(#z21839c6)" d="M 654 799 L 663 790 L 676 789 L 797 817 L 829 799 L 843 780 L 843 67 L 823 32 L 798 39 L 713 84"/>
<path style="--d:7s;" pathLength="3333" clip-path="url(#z21839c7)" d="M 663 673 L 674 688 L 692 693 L 741 697 L 763 690"/>
<path style="--d:8s;" pathLength="3333" clip-path="url(#z21839c8)" d="M 673 547 L 678 558 L 769 571 L 802 569 L 817 559"/>
<path style="--d:9s;" pathLength="3333" clip-path="url(#z21839c9)" d="M 354 397 L 387 367 L 420 184"/>
<path style="--d:10s;" pathLength="3333" clip-path="url(#z21839c10)" d="M 422 388 L 434 377 L 591 410 L 623 404 L 647 376 L 620 293 L 594 276"/>
<path style="--d:11s;" pathLength="3333" clip-path="url(#z21839c11)" d="M 442 216 L 451 229 L 591 249 L 630 248 L 653 239"/>
</svg>