<svg id="z27815" class="acjk" viewBox="0 0 1024 1024" xmlns="http://www.w3.org/2000/svg">
  <path id="z27815d1" d="M 229 706 Q 263 678 299 643 Q 314 628 331 629 Q 343 630 349 645 Q 353 661 344 693 Q 332 729 224 758 Q 208 762 200 759 Q 194 755 196 741 Q 200 728 229 706 Z"/>
  <path id="z27815d2" d="M 141 501 Q 198 441 232 428 Q 248 425 259 441 Q 265 454 261 474 Q 249 517 156 544 Q 155 545 154 545 Q 135 549 125 545 Q 118 544 122 530 Q 123 517 141 501 Z"/>
  <path id="z27815d3" d="M 120 146 Q 108 142 111 124 Q 129 46 165 29 Q 172 22 183 25 Q 190 26 191 53 Q 195 96 218 160 Q 291 382 291 386 Q 290 396 281 389 Q 269 382 160 190 Q 148 168 120 146 Z"/>
  <path id="z27815d4" d="M 592 688 Q 608 718 625 734 Q 635 746 629 759 Q 625 772 594 795 Q 564 813 545 812 Q 526 809 535 787 Q 551 754 540 725 Q 504 629 449 539 Q 397 452 322 356 Q 312 346 310 339 Q 306 327 321 330 Q 379 346 516 556 Q 544 602 576 657 Q 577 661 578 663 L 592 688 Z"/>
  <path id="z27815d5" d="M 578 663 Q 662 543 772 417 Q 791 396 824 398 Q 933 402 968 409 Q 978 412 980 417 Q 980 423 966 430 Q 806 490 738 551 Q 668 611 592 688 C 571 709 561 688 578 663 Z"/>
  <path id="z27815d6" d="M 492 358 Q 501 367 627 400 Q 636 401 642 398 Q 651 394 650 377 Q 646 340 627 272 Q 623 248 599 254 Q 569 261 546 267 Q 531 270 535 261 Q 536 252 559 232 Q 590 202 606 171 Q 613 161 622 164 Q 629 165 645 186 Q 669 214 676 249 Q 700 370 716 383 Q 726 392 722 403 Q 715 415 680 438 Q 668 447 610 432 Q 607 432 471 396 C 442 388 465 345 492 358 Z"/>
  <path id="z27815d7" d="M 869 104 Q 854 134 833 226 Q 832 242 825 246 Q 819 249 815 231 Q 794 132 777 101 Q 738 56 611 62 Q 562 63 525 79 Q 491 95 483 115 Q 456 169 492 358 C 497 384 497 384 471 396 Q 462 403 450 407 Q 437 411 429 407 Q 422 403 427 385 Q 440 346 436 310 Q 423 144 436 97 Q 440 72 464 50 Q 554 -16 734 11 Q 752 15 771 19 Q 817 32 864 62 Q 883 78 869 104 Z"/>
<defs>
  <clipPath id="z27815c1"><use href="#z27815d1"/></clipPath>
  <clipPath id="z27815c2"><use href="#z27815d2"/></clipPath>
  <clipPath id="z27815c3"><use href="#z27815d3"/></clipPath>
  <clipPath id="z27815c4"><use href="#z27815d4"/></clipPath>
  <clipPath id="z27815c5"><use href="#z27815d5"/></clipPath>
  <clipPath id="z27815c6"><use href="#z27815d6"/></clipPath>
  <clipPath id="z27815c7"><use href="#z27815d7"/></clipPath>
</defs>
<path style="--d:1s;" pathLength="3333" clip-path="url(#z27815c1)" d="M 206 751 L 300 691 L 328 651"/>
<path style="--d:2s;" pathLength="3333" clip-path="url(#z27815c2)" d="M 133 536 L 214 481 L 237 451"/>
<path style="--d:3s;" pathLength="3333" clip-path="url(#z27815c3)" d="M 177 35 L 162 77 L 158 120 L 194 184 L 286 386"/>
<path style="--d:4s;" pathLength="3333" clip-path="url(#z27815c4)" d="M 546 797 L 564 783 L 585 751 L 549 669 L 477 536 L 416 447 L 359 376 L 319 339"/>
<path style="--d:5s;" pathLength="3333" clip-path="url(#z27815c5)" d="M 594 679 L 595 664 L 684 563 L 808 448 L 972 416"/>
<path style="--d:6s;" pathLength="3333" clip-path="url(#z27815c6)" d="M 490 365 L 500 384 L 516 391 L 624 419 L 658 417 L 682 396 L 654 267 L 643 239 L 628 222 L 622 217 L 611 221 L 543 260"/>
<path style="--d:7s;" pathLength="3333" clip-path="url(#z27815c7)" d="M 436 399 L 454 378 L 463 350 L 451 234 L 451 153 L 457 113 L 478 75 L 514 53 L 561 38 L 649 32 L 734 42 L 779 57 L 812 79 L 824 96 L 824 240"/>
</svg>