<svg id="z23592" class="acjk" viewBox="0 0 1024 1024" xmlns="http://www.w3.org/2000/svg">
  <path id="z23592d1" d="M 327 506 Q 492 555 496 559 Q 505 568 500 576 Q 493 588 462 594 Q 438 597 336 559 L 280 540 Q 213 524 140 511 Q 103 502 130 487 Q 175 463 234 482 Q 250 488 272 491 L 327 506 Z"/>
  <path id="z23592d2" d="M 272 491 Q 236 338 189 233 Q 140 137 68 35 Q 62 28 60 22 Q 57 12 68 13 Q 102 19 196 152 Q 215 183 235 220 Q 295 346 327 506 L 336 559 Q 354 700 364 730 Q 373 745 366 759 Q 350 777 319 792 Q 300 804 287 799 Q 274 792 280 778 Q 298 748 298 698 Q 282 550 280 540 L 272 491 Z"/>
  <path id="z23592d3" d="M 363 361 Q 345 145 363 86 Q 367 53 399 27 Q 507 -48 742 -18 Q 770 -12 800 -5 Q 861 11 922 49 Q 943 67 926 95 Q 911 122 886 205 Q 885 221 877 226 Q 870 229 867 210 Q 846 119 829 89 Q 772 26 594 32 Q 524 33 471 55 Q 425 77 412 105 Q 379 178 422 411 Q 428 442 378 463 Q 365 467 356 463 Q 349 459 354 440 Q 367 400 363 361 Z"/>
  <path id="z23592d4" d="M 440 680 Q 468 659 500 633 Q 512 623 525 624 Q 534 625 537 636 Q 540 649 532 673 Q 520 703 434 719 Q 421 720 416 719 Q 412 715 414 705 Q 417 696 440 680 Z"/>
  <path id="z23592d5" d="M 681 722 Q 694 665 603 554 Q 602 553 600 550 Q 575 519 509 459 Q 502 455 511 452 Q 559 452 650 546 Q 653 552 659 556 Q 692 593 742 667 Q 749 676 753 680 Q 760 684 758 694 Q 757 703 746 714 Q 718 739 687 735 Q 680 734 681 722 Z"/>
  <path id="z23592d6" d="M 739 568 Q 742 501 634 390 Q 631 389 630 386 Q 597 355 518 295 Q 511 291 519 287 Q 577 287 682 378 Q 686 384 693 389 Q 733 426 795 503 Q 804 513 809 517 Q 816 521 816 531 Q 813 556 776 573 Q 757 582 747 581 Q 738 580 739 568 Z"/>
  <path id="z23592d7" d="M 794 417 Q 797 338 661 204 Q 658 203 656 199 Q 616 162 518 92 Q 509 88 520 84 Q 556 80 676 160 Q 701 179 730 205 Q 778 250 853 343 Q 863 356 870 360 Q 879 364 878 375 Q 874 406 834 423 Q 813 432 802 431 Q 792 430 794 417 Z"/>
<defs>
  <clipPath id="z23592c1"><use href="#z23592d1"/></clipPath>
  <clipPath id="z23592c2"><use href="#z23592d2"/></clipPath>
  <clipPath id="z23592c3"><use href="#z23592d3"/></clipPath>
  <clipPath id="z23592c4"><use href="#z23592d4"/></clipPath>
  <clipPath id="z23592c5"><use href="#z23592d5"/></clipPath>
  <clipPath id="z23592c6"><use href="#z23592d6"/></clipPath>
  <clipPath id="z23592c7"><use href="#z23592d7"/></clipPath>
</defs>
<path style="--d:1s;" pathLength="3333" clip-path="url(#z23592c1)" d="M 132 500 L 155 495 L 205 499 L 334 531 L 458 571 L 489 569"/>
<path style="--d:2s;" pathLength="3333" clip-path="url(#z23592c2)" d="M 293 785 L 315 766 L 330 742 L 329 717 L 298 486 L 260 347 L 204 209 L 133 96 L 69 22"/>
<path style="--d:3s;" pathLength="3333" clip-path="url(#z23592c3)" d="M 363 455 L 387 427 L 392 404 L 375 208 L 385 102 L 405 62 L 459 28 L 521 10 L 632 2 L 728 9 L 822 38 L 878 79 L 876 219"/>
<path style="--d:4s;" pathLength="3333" clip-path="url(#z23592c4)" d="M 420 711 L 490 676 L 523 638"/>
<path style="--d:5s;" pathLength="3333" clip-path="url(#z23592c5)" d="M 695 724 L 716 691 L 686 630 L 647 574 L 600 521 L 562 487 L 515 457"/>
<path style="--d:6s;" pathLength="3333" clip-path="url(#z23592c6)" d="M 752 569 L 772 532 L 707 436 L 630 358 L 588 327 L 524 292"/>
<path style="--d:7s;" pathLength="3333" clip-path="url(#z23592c7)" d="M 803 421 L 830 379 L 800 326 L 751 263 L 655 169 L 559 105 L 524 89"/>
</svg>