<svg id="z24958" class="acjk" viewBox="0 0 1024 1024" xmlns="http://www.w3.org/2000/svg">
  <path id="z24958d1" d="M 270 800 Q 279 736 210 659 Q 194 641 185 630 Q 178 617 191 621 Q 236 627 298 708 Q 304 720 339 764 Q 348 774 336 787 Q 302 817 278 815 Q 268 814 270 800 Z"/>
  <path id="z24958d2" d="M 457 760 Q 482 744 511 723 Q 523 714 535 716 Q 542 717 545 728 Q 548 740 538 762 Q 526 787 448 796 Q 436 797 432 795 Q 428 791 431 781 Q 435 774 457 760 Z"/>
  <path id="z24958d3" d="M 265 468 Q 269 475 277 481 Q 314 523 369 602 L 380 620 Q 386 635 400 644 Q 407 648 406 658 Q 405 667 393 678 Q 363 705 335 701 Q 328 700 329 688 Q 342 612 214 470 Q 211 469 209 465 Q 172 426 81 351 Q 74 347 83 343 Q 144 353 239 442 L 265 468 Z"/>
  <path id="z24958d4" d="M 369 602 Q 418 581 479 546 Q 492 537 504 537 Q 508 538 512 546 Q 516 556 500 581 Q 482 612 380 620 C 350 622 341 614 369 602 Z"/>
  <path id="z24958d5" d="M 284 463 Q 278 467 265 468 C 235 472 227 469 239 442 Q 261 393 276 316 Q 279 291 293 274 Q 309 255 314 269 Q 318 281 317 301 L 312 332 Q 297 416 296 439 C 295 458 295 458 284 463 Z"/>
  <path id="z24958d6" d="M 462 357 Q 480 424 500 443 Q 522 467 500 481 Q 482 491 457 508 Q 439 518 394 494 Q 331 473 284 463 C 255 457 268 429 296 439 Q 308 445 393 464 Q 421 471 428 460 Q 435 454 427 423 Q 420 395 412 360 C 405 331 454 328 462 357 Z"/>
  <path id="z24958d7" d="M 317 301 Q 324 301 332 303 Q 377 315 474 327 Q 484 328 485 337 Q 485 344 462 357 C 441 369 441 369 412 360 Q 355 342 312 332 C 283 325 287 299 317 301 Z"/>
  <path id="z24958d8" d="M 639 678 Q 693 784 694 787 Q 693 791 692 793 Q 686 803 660 819 Q 635 831 619 828 Q 603 824 613 807 Q 631 783 594 685 Q 576 642 550 591 Q 543 581 541 575 Q 540 565 551 570 Q 575 576 621 650 Q 624 656 628 661 L 639 678 Z"/>
  <path id="z24958d9" d="M 628 661 Q 644 642 665 650 Q 758 686 777 679 Q 790 666 784 657 Q 785 651 765 598 Q 761 589 765 585 Q 769 581 777 591 Q 847 651 879 666 Q 886 667 886 675 Q 886 681 826 716 Q 804 726 792 721 Q 734 696 639 678 C 615 673 615 673 628 661 Z"/>
  <path id="z24958d10" d="M 681 490 Q 693 538 704 556 Q 711 569 699 578 Q 663 609 641 603 Q 629 599 634 587 Q 653 548 626 465 Q 599 386 512 336 Q 502 329 511 327 Q 553 323 604 365 Q 625 381 655 424 Q 667 445 674 465 L 681 490 Z"/>
  <path id="z24958d11" d="M 674 465 Q 717 405 764 349 Q 780 330 811 327 Q 866 321 923 329 Q 938 330 940 334 Q 941 338 930 344 Q 795 401 795 402 Q 789 406 786 408 Q 753 429 681 490 C 658 509 656 489 674 465 Z"/>
  <path id="z24958d12" d="M 226 211 Q 201 150 166 95 Q 147 65 164 25 Q 171 6 194 20 Q 248 60 253 151 Q 257 185 251 211 Q 245 220 239 221 Q 230 220 226 211 Z"/>
  <path id="z24958d13" d="M 342 191 Q 366 80 453 24 Q 564 -39 774 -19 Q 813 -10 847 4 Q 874 16 875 33 Q 879 43 838 69 Q 774 118 727 171 Q 714 189 708 180 Q 704 173 710 158 Q 725 124 737 86 Q 743 64 737 55 Q 730 42 688 40 Q 511 30 438 95 Q 404 123 387 173 Q 380 198 366 203 Q 353 210 344 206 Q 338 205 342 191 Z"/>
  <path id="z24958d14" d="M 520 221 Q 545 203 572 182 Q 587 170 603 173 Q 613 174 617 188 Q 620 204 608 232 Q 598 256 510 269 Q 494 270 488 267 Q 484 263 486 250 Q 490 240 520 221 Z"/>
  <path id="z24958d15" d="M 751 258 Q 803 224 868 170 Q 884 154 899 152 Q 906 152 913 163 Q 922 176 905 214 Q 886 262 748 286 Q 739 289 739 278 Q 740 265 751 258 Z"/>
<defs>
  <clipPath id="z24958c1"><use href="#z24958d1"/></clipPath>
  <clipPath id="z24958c2"><use href="#z24958d2"/></clipPath>
  <clipPath id="z24958c3"><use href="#z24958d3"/></clipPath>
  <clipPath id="z24958c4"><use href="#z24958d4"/></clipPath>
  <clipPath id="z24958c5"><use href="#z24958d5"/></clipPath>
  <clipPath id="z24958c6"><use href="#z24958d6"/></clipPath>
  <clipPath id="z24958c7"><use href="#z24958d7"/></clipPath>
  <clipPath id="z24958c8"><use href="#z24958d8"/></clipPath>
  <clipPath id="z24958c9"><use href="#z24958d9"/></clipPath>
  <clipPath id="z24958c10"><use href="#z24958d10"/></clipPath>
  <clipPath id="z24958c11"><use href="#z24958d11"/></clipPath>
  <clipPath id="z24958c12"><use href="#z24958d12"/></clipPath>
  <clipPath id="z24958c13"><use href="#z24958d13"/></clipPath>
  <clipPath id="z24958c14"><use href="#z24958d14"/></clipPath>
  <clipPath id="z24958c15"><use href="#z24958d15"/></clipPath>
</defs>
<path style="--d:1s;" pathLength="3333" clip-path="url(#z24958c1)" d="M 280 805 L 303 771 L 291 743 L 264 695 L 221 648 L 194 629"/>
<path style="--d:2s;" pathLength="3333" clip-path="url(#z24958c2)" d="M 437 788 L 501 761 L 530 730"/>
<path style="--d:3s;" pathLength="3333" clip-path="url(#z24958c3)" d="M 342 690 L 364 658 L 343 609 L 298 539 L 191 421 L 117 365 L 91 356 L 87 348"/>
<path style="--d:4s;" pathLength="3333" clip-path="url(#z24958c4)" d="M 377 603 L 391 609 L 447 589 L 476 574 L 500 549"/>
<path style="--d:5s;" pathLength="3333" clip-path="url(#z24958c5)" d="M 269 456 L 304 274"/>
<path style="--d:6s;" pathLength="3333" clip-path="url(#z24958c6)" d="M 291 459 L 311 456 L 409 484 L 448 481 L 467 459 L 443 383 L 419 366"/>
<path style="--d:7s;" pathLength="3333" clip-path="url(#z24958c7)" d="M 323 310 L 331 320 L 417 340 L 475 337"/>
<path style="--d:8s;" pathLength="3333" clip-path="url(#z24958c8)" d="M 620 816 L 634 809 L 652 785 L 649 764 L 601 649 L 548 576"/>
<path style="--d:9s;" pathLength="3333" clip-path="url(#z24958c9)" d="M 638 661 L 751 693 L 803 693 L 822 674 L 769 592"/>
<path style="--d:10s;" pathLength="3333" clip-path="url(#z24958c10)" d="M 643 593 L 663 575 L 671 553 L 654 477 L 634 427 L 575 361 L 517 331"/>
<path style="--d:11s;" pathLength="3333" clip-path="url(#z24958c11)" d="M 687 482 L 688 466 L 698 455 L 795 365 L 873 345 L 934 338"/>
<path style="--d:12s;" pathLength="3333" clip-path="url(#z24958c12)" d="M 239 209 L 226 144 L 180 31"/>
<path style="--d:13s;" pathLength="3333" clip-path="url(#z24958c13)" d="M 350 198 L 363 182 L 391 117 L 439 64 L 470 43 L 514 26 L 607 9 L 724 10 L 764 22 L 788 40 L 765 93 L 714 174"/>
<path style="--d:14s;" pathLength="3333" clip-path="url(#z24958c14)" d="M 494 261 L 575 220 L 600 190"/>
<path style="--d:15s;" pathLength="3333" clip-path="url(#z24958c15)" d="M 750 275 L 862 216 L 883 195 L 898 166"/>
</svg>