<svg id="z22774" class="acjk" viewBox="0 0 1024 1024" xmlns="http://www.w3.org/2000/svg">
  <path id="z22774d1" d="M 547 665 Q 701 695 706 699 Q 715 706 711 716 Q 704 728 674 737 Q 644 744 552 715 L 494 701 Q 490 701 486 700 Q 413 687 327 681 Q 290 677 316 658 Q 352 634 431 646 Q 462 652 496 656 L 547 665 Z"/>
  <path id="z22774d2" d="M 538 593 Q 542 630 547 665 L 552 715 Q 556 760 568 785 Q 571 795 552 809 Q 519 828 497 832 Q 481 835 474 827 Q 467 820 474 806 Q 489 787 490 772 Q 491 738 494 701 L 496 656 Q 496 622 496 584 C 496 554 535 563 538 593 Z"/>
  <path id="z22774d3" d="M 496 584 Q 459 578 425 574 Q 394 571 360 567 Q 333 564 354 547 Q 384 523 412 529 Q 548 556 654 564 Q 664 563 673 575 Q 674 585 652 596 Q 622 617 542 594 Q 539 594 538 593 L 496 584 Z"/>
  <path id="z22774d4" d="M 253 451 Q 243 472 233 480 Q 214 496 211 469 Q 215 438 182 397 Q 143 355 145 335 Q 149 302 159 283 Q 174 255 195 283 L 256 419 C 262 433 262 433 253 451 Z"/>
  <path id="z22774d5" d="M 256 419 Q 280 404 314 415 Q 455 457 693 476 Q 738 480 753 477 Q 772 465 769 456 Q 769 453 737 374 Q 730 361 737 357 Q 744 353 760 365 Q 815 408 860 424 Q 897 439 897 447 Q 896 457 823 509 Q 799 525 715 510 Q 493 485 367 464 Q 309 455 253 451 C 223 449 228 429 256 419 Z"/>
  <path id="z22774d6" d="M 457 64 Q 458 206 460 316 Q 463 364 458 370 Q 436 391 415 400 Q 403 404 395 399 Q 388 395 390 385 Q 406 358 410 269 Q 411 203 415 60 C 416 30 457 34 457 64 Z"/>
  <path id="z22774d7" d="M 595 79 Q 605 358 608 372 Q 615 390 606 400 Q 584 422 561 433 Q 551 436 541 432 Q 532 428 536 418 Q 551 384 554 275 Q 553 206 552 74 C 552 44 594 49 595 79 Z"/>
  <path id="z22774d8" d="M 266 211 Q 297 180 328 141 Q 338 128 353 126 Q 363 125 369 137 Q 375 150 371 178 Q 364 215 268 255 Q 255 261 248 259 Q 244 256 243 244 Q 244 234 266 211 Z"/>
  <path id="z22774d9" d="M 692 284 Q 670 247 623 186 Q 617 179 623 171 Q 630 170 639 175 Q 727 239 771 264 Q 790 270 786 282 Q 779 298 758 318 Q 736 337 712 338 Q 696 337 698 316 Q 701 301 692 284 Z"/>
  <path id="z22774d10" d="M 552 74 Q 501 73 457 64 L 415 60 Q 307 51 191 40 Q 167 39 184 19 Q 199 3 219 -4 Q 241 -11 260 -6 Q 494 49 826 27 Q 848 26 854 36 Q 861 49 843 65 Q 779 113 710 96 Q 659 90 595 79 L 552 74 Z"/>
<defs>
  <clipPath id="z22774c1"><use href="#z22774d1"/></clipPath>
  <clipPath id="z22774c2"><use href="#z22774d2"/></clipPath>
  <clipPath id="z22774c3"><use href="#z22774d3"/></clipPath>
  <clipPath id="z22774c4"><use href="#z22774d4"/></clipPath>
  <clipPath id="z22774c5"><use href="#z22774d5"/></clipPath>
  <clipPath id="z22774c6"><use href="#z22774d6"/></clipPath>
  <clipPath id="z22774c7"><use href="#z22774d7"/></clipPath>
  <clipPath id="z22774c8"><use href="#z22774d8"/></clipPath>
  <clipPath id="z22774c9"><use href="#z22774d9"/></clipPath>
  <clipPath id="z22774c10"><use href="#z22774d10"/></clipPath>
</defs>
<path style="--d:1s;" pathLength="3333" clip-path="url(#z22774c1)" d="M 319 671 L 359 663 L 419 666 L 556 689 L 651 712 L 700 709"/>
<path style="--d:2s;" pathLength="3333" clip-path="url(#z22774c2)" d="M 486 817 L 527 779 L 519 618 L 502 592"/>
<path style="--d:3s;" pathLength="3333" clip-path="url(#z22774c3)" d="M 355 558 L 403 549 L 610 584 L 663 577"/>
<path style="--d:4s;" pathLength="3333" clip-path="url(#z22774c4)" d="M 222 474 L 229 459 L 229 422 L 180 336 L 176 286"/>
<path style="--d:5s;" pathLength="3333" clip-path="url(#z22774c5)" d="M 260 446 L 279 432 L 301 433 L 511 472 L 729 497 L 768 495 L 803 477 L 816 456 L 742 364"/>
<path style="--d:6s;" pathLength="3333" clip-path="url(#z22774c6)" d="M 403 388 L 431 354 L 434 328 L 436 108 L 434 80 L 421 70"/>
<path style="--d:7s;" pathLength="3333" clip-path="url(#z22774c7)" d="M 549 421 L 578 383 L 576 122 L 574 100 L 558 84"/>
<path style="--d:8s;" pathLength="3333" clip-path="url(#z22774c8)" d="M 252 249 L 331 185 L 354 142"/>
<path style="--d:9s;" pathLength="3333" clip-path="url(#z22774c9)" d="M 713 322 L 735 287 L 642 189 L 626 179"/>
<path style="--d:10s;" pathLength="3333" clip-path="url(#z22774c10)" d="M 187 30 L 241 18 L 468 47 L 736 66 L 782 62 L 841 44"/>
</svg>