<svg id="z29788" class="acjk" viewBox="0 0 1024 1024" xmlns="http://www.w3.org/2000/svg">
  <path id="z29788d1" d="M 256 619 Q 391 661 393 661 Q 402 671 396 680 Q 387 692 356 697 Q 323 701 292 685 Q 259 672 223 660 Q 183 648 135 641 Q 96 631 126 615 Q 165 599 212 607 L 256 619 Z"/>
  <path id="z29788d2" d="M 275 420 Q 353 450 354 450 Q 361 459 356 466 Q 349 476 321 479 Q 299 480 276 471 L 228 449 Q 165 428 140 423 Q 107 413 133 401 Q 175 386 223 403 Q 224 404 228 404 L 275 420 Z"/>
  <path id="z29788d3" d="M 270 267 Q 271 349 275 420 L 276 471 Q 279 597 280 597 Q 268 609 256 619 C 233 639 201 635 212 607 Q 227 580 228 449 L 228 404 Q 228 341 228 250 C 228 220 270 237 270 267 Z"/>
  <path id="z29788d4" d="M 228 250 Q 174 231 118 209 Q 102 202 73 201 Q 60 198 59 188 Q 58 173 69 166 Q 94 153 130 136 Q 140 133 152 144 Q 176 166 326 256 Q 347 269 361 282 Q 374 292 373 301 Q 366 307 270 267 L 228 250 Z"/>
  <path id="z29788d5" d="M 609 758 Q 622 777 634 788 Q 641 798 638 811 Q 634 823 607 843 Q 582 859 564 860 Q 546 859 554 837 Q 567 812 557 789 Q 509 662 382 501 Q 372 491 371 485 Q 367 475 381 477 Q 441 495 586 718 Q 590 727 597 737 L 609 758 Z"/>
  <path id="z29788d6" d="M 597 737 Q 682 638 777 548 Q 799 526 837 524 Q 904 521 976 536 Q 994 539 996 543 Q 997 550 983 555 Q 782 627 712 677 Q 685 695 660 716 Q 627 744 609 758 C 586 777 577 760 597 737 Z"/>
  <path id="z29788d7" d="M 486 543 Q 453 536 478 521 Q 517 503 568 517 Q 617 530 669 544 Q 693 551 697 554 Q 704 561 699 569 Q 692 579 665 585 Q 637 588 611 576 Q 584 566 556 557 Q 525 548 486 543 Z"/>
  <path id="z29788d8" d="M 427 221 Q 428 261 431 291 L 433 316 Q 436 365 439 383 Q 439 386 439 388 C 440 404 440 404 430 412 Q 412 430 382 430 Q 370 426 375 415 Q 414 328 374 160 Q 356 102 356 100 Q 356 73 373 52 Q 379 40 389 45 Q 425 72 425 188 Q 425 192 426 195 L 427 221 Z"/>
  <path id="z29788d9" d="M 439 388 Q 451 391 514 410 Q 529 416 534 408 Q 538 398 540 380 Q 550 214 545 111 Q 544 89 537 79 Q 501 80 465 82 Q 464 82 465 80 Q 507 46 531 18 Q 541 3 555 -1 Q 562 -4 568 4 Q 601 43 599 87 Q 577 367 594 399 Q 604 414 594 422 Q 576 437 547 448 Q 534 454 520 447 Q 495 431 478 425 Q 462 419 430 412 C 401 405 410 380 439 388 Z"/>
  <path id="z29788d10" d="M 431 291 Q 479 300 512 308 Q 528 312 521 322 Q 512 332 492 334 Q 459 334 433 316 C 408 299 402 285 431 291 Z"/>
  <path id="z29788d11" d="M 426 195 Q 427 194 435 195 Q 478 204 510 209 Q 531 215 522 225 Q 512 237 488 239 Q 445 239 427 221 C 405 201 402 198 426 195 Z"/>
  <path id="z29788d12" d="M 636 392 Q 660 350 647 233 Q 644 212 665 182 Q 674 173 681 183 Q 694 201 695 277 Q 695 352 698 369 Q 702 388 686 397 Q 673 404 658 412 Q 648 416 639 411 Q 632 405 636 392 Z"/>
  <path id="z29788d13" d="M 765 408 Q 768 387 772 72 Q 772 59 764 53 Q 757 47 699 60 Q 668 70 671 61 Q 672 54 691 41 Q 748 -4 763 -30 Q 779 -60 794 -61 Q 807 -62 820 -29 Q 836 13 833 80 Q 802 323 829 434 Q 844 462 792 481 Q 761 497 743 491 Q 727 484 742 464 Q 763 439 765 408 Z"/>
<defs>
  <clipPath id="z29788c1"><use href="#z29788d1"/></clipPath>
  <clipPath id="z29788c2"><use href="#z29788d2"/></clipPath>
  <clipPath id="z29788c3"><use href="#z29788d3"/></clipPath>
  <clipPath id="z29788c4"><use href="#z29788d4"/></clipPath>
  <clipPath id="z29788c5"><use href="#z29788d5"/></clipPath>
  <clipPath id="z29788c6"><use href="#z29788d6"/></clipPath>
  <clipPath id="z29788c7"><use href="#z29788d7"/></clipPath>
  <clipPath id="z29788c8"><use href="#z29788d8"/></clipPath>
  <clipPath id="z29788c9"><use href="#z29788d9"/></clipPath>
  <clipPath id="z29788c10"><use href="#z29788d10"/></clipPath>
  <clipPath id="z29788c11"><use href="#z29788d11"/></clipPath>
  <clipPath id="z29788c12"><use href="#z29788d12"/></clipPath>
  <clipPath id="z29788c13"><use href="#z29788d13"/></clipPath>
</defs>
<path style="--d:1s;" pathLength="3333" clip-path="url(#z29788c1)" d="M 127 629 L 188 627 L 263 645 L 328 670 L 374 675 L 390 669"/>
<path style="--d:2s;" pathLength="3333" clip-path="url(#z29788c2)" d="M 134 413 L 183 413 L 291 452 L 326 460 L 350 457"/>
<path style="--d:3s;" pathLength="3333" clip-path="url(#z29788c3)" d="M 220 607 L 250 585 L 253 514 L 249 281 L 233 259"/>
<path style="--d:4s;" pathLength="3333" clip-path="url(#z29788c4)" d="M 74 186 L 132 175 L 370 297"/>
<path style="--d:5s;" pathLength="3333" clip-path="url(#z29788c5)" d="M 564 846 L 587 823 L 597 803 L 558 721 L 464 577 L 418 521 L 379 485"/>
<path style="--d:6s;" pathLength="3333" clip-path="url(#z29788c6)" d="M 610 751 L 613 738 L 689 666 L 814 574 L 874 558 L 991 545"/>
<path style="--d:7s;" pathLength="3333" clip-path="url(#z29788c7)" d="M 479 533 L 541 532 L 636 560 L 688 563"/>
<path style="--d:8s;" pathLength="3333" clip-path="url(#z29788c8)" d="M 383 420 L 409 397 L 415 326 L 403 177 L 386 96 L 384 55"/>
<path style="--d:9s;" pathLength="3333" clip-path="url(#z29788c9)" d="M 441 395 L 454 406 L 532 431 L 546 426 L 565 407 L 573 99 L 567 69 L 553 47 L 486 75 L 473 75 L 472 81"/>
<path style="--d:10s;" pathLength="3333" clip-path="url(#z29788c10)" d="M 438 297 L 446 309 L 459 313 L 498 320 L 514 317"/>
<path style="--d:11s;" pathLength="3333" clip-path="url(#z29788c11)" d="M 431 201 L 443 213 L 463 220 L 513 219"/>
<path style="--d:12s;" pathLength="3333" clip-path="url(#z29788c12)" d="M 647 402 L 672 369 L 673 187"/>
<path style="--d:13s;" pathLength="3333" clip-path="url(#z29788c13)" d="M 750 477 L 775 462 L 795 437 L 792 272 L 802 53 L 786 14 L 677 59"/>
</svg>