<svg id="z22520" class="acjk" viewBox="0 0 1024 1024" xmlns="http://www.w3.org/2000/svg">
  <path id="z22520d1" d="M 305 503 Q 327 510 352 515 Q 383 524 388 529 Q 397 536 392 545 Q 385 555 355 561 Q 330 565 307 555 L 259 537 Q 145 512 131 509 Q 97 502 122 486 Q 170 465 220 482 Q 236 488 259 491 L 305 503 Z"/>
  <path id="z22520d2" d="M 298 325 Q 301 416 305 503 L 307 555 Q 308 636 327 722 Q 331 734 310 748 Q 276 767 250 771 Q 234 774 226 765 Q 219 758 227 743 Q 254 704 254 679 Q 258 610 259 537 L 259 491 Q 259 403 255 307 C 254 277 297 295 298 325 Z"/>
  <path id="z22520d3" d="M 255 307 Q 200 286 141 262 Q 125 255 96 253 Q 83 250 82 239 Q 82 226 92 218 Q 117 205 154 189 Q 164 188 176 197 Q 278 267 382 338 Q 394 348 393 357 Q 387 361 298 325 L 255 307 Z"/>
  <path id="z22520d4" d="M 516 759 Q 506 763 483 769 Q 473 773 469 769 Q 463 763 469 749 Q 496 677 505 565 Q 505 531 522 507 Q 537 486 542 500 Q 548 513 548 535 L 547 558 Q 547 567 539 626 L 537 651 Q 530 705 530 727 C 529 754 529 754 516 759 Z"/>
  <path id="z22520d5" d="M 656 546 Q 675 518 693 510 Q 703 503 716 523 Q 729 548 751 681 Q 758 709 779 734 Q 791 746 780 759 Q 765 774 724 797 Q 708 804 649 789 Q 556 771 516 759 C 487 751 502 715 530 727 Q 539 737 665 753 Q 683 756 689 750 Q 702 735 700 721 Q 687 597 674 571 C 664 543 650 554 656 546 Z"/>
  <path id="z22520d6" d="M 539 626 Q 543 632 646 649 Q 667 655 658 665 Q 648 678 624 679 Q 591 682 537 651 C 511 636 513 611 539 626 Z"/>
  <path id="z22520d7" d="M 548 535 Q 549 535 554 535 Q 611 542 656 546 C 686 549 698 553 674 571 Q 667 577 655 579 Q 631 582 547 558 C 518 550 518 535 548 535 Z"/>
  <path id="z22520d8" d="M 523 411 Q 535 429 546 437 Q 553 444 550 454 Q 549 463 529 480 Q 510 493 497 494 Q 484 494 489 478 Q 496 463 490 450 Q 454 372 382 286 Q 375 279 372 275 Q 369 268 380 268 Q 422 277 508 391 L 523 411 Z"/>
  <path id="z22520d9" d="M 708 412 Q 707 413 711 413 Q 756 422 782 422 Q 795 422 801 416 Q 810 392 796 253 Q 784 160 750 93 Q 737 68 721 67 Q 706 63 625 87 Q 615 90 615 84 Q 615 80 626 71 Q 672 28 693 -5 Q 705 -24 717 -23 Q 733 -26 751 -10 Q 811 30 837 147 Q 855 225 871 346 Q 874 373 893 393 Q 906 406 905 413 Q 904 422 886 435 Q 861 456 826 467 Q 805 474 715 449 Q 711 449 708 447 Q 656 435 523 411 C 493 406 478 395 508 391 Q 521 388 536 387 L 568 389 Q 571 393 656 403 L 708 412 Z"/>
  <path id="z22520d10" d="M 536 387 Q 536 386 537 383 Q 537 302 419 188 Q 413 184 413 179 Q 412 175 417 175 Q 462 175 569 304 Q 576 319 592 335 Q 599 344 593 355 Q 584 376 568 389 C 546 409 533 417 536 387 Z"/>
  <path id="z22520d11" d="M 656 403 Q 677 337 572 184 Q 569 183 568 179 Q 537 137 460 55 Q 453 49 463 48 Q 517 61 608 166 Q 671 253 722 350 Q 729 363 734 369 Q 741 373 738 384 Q 732 402 708 412 C 681 426 650 432 656 403 Z"/>
<defs>
  <clipPath id="z22520c1"><use href="#z22520d1"/></clipPath>
  <clipPath id="z22520c2"><use href="#z22520d2"/></clipPath>
  <clipPath id="z22520c3"><use href="#z22520d3"/></clipPath>
  <clipPath id="z22520c4"><use href="#z22520d4"/></clipPath>
  <clipPath id="z22520c5"><use href="#z22520d5"/></clipPath>
  <clipPath id="z22520c6"><use href="#z22520d6"/></clipPath>
  <clipPath id="z22520c7"><use href="#z22520d7"/></clipPath>
  <clipPath id="z22520c8"><use href="#z22520d8"/></clipPath>
  <clipPath id="z22520c9"><use href="#z22520d9"/></clipPath>
  <clipPath id="z22520c10"><use href="#z22520d10"/></clipPath>
  <clipPath id="z22520c11"><use href="#z22520d11"/></clipPath>
</defs>
<path style="--d:1s;" pathLength="3333" clip-path="url(#z22520c1)" d="M 124 498 L 183 497 L 321 534 L 382 539"/>
<path style="--d:2s;" pathLength="3333" clip-path="url(#z22520c2)" d="M 239 755 L 286 717 L 287 705 L 277 339 L 260 315"/>
<path style="--d:3s;" pathLength="3333" clip-path="url(#z22520c3)" d="M 98 238 L 156 228 L 391 353"/>
<path style="--d:4s;" pathLength="3333" clip-path="url(#z22520c4)" d="M 476 762 L 496 742 L 505 721 L 533 505"/>
<path style="--d:5s;" pathLength="3333" clip-path="url(#z22520c5)" d="M 529 733 L 546 751 L 684 776 L 713 769 L 737 744 L 699 557 L 690 546 L 669 546"/>
<path style="--d:6s;" pathLength="3333" clip-path="url(#z22520c6)" d="M 544 635 L 552 645 L 597 659 L 649 659"/>
<path style="--d:7s;" pathLength="3333" clip-path="url(#z22520c7)" d="M 551 541 L 563 551 L 666 567"/>
<path style="--d:8s;" pathLength="3333" clip-path="url(#z22520c8)" d="M 496 484 L 518 457 L 508 430 L 439 331 L 402 291 L 381 277"/>
<path style="--d:9s;" pathLength="3333" clip-path="url(#z22520c9)" d="M 515 393 L 536 402 L 641 414 L 784 444 L 823 437 L 848 408 L 818 198 L 800 128 L 770 60 L 747 36 L 722 26 L 621 84"/>
<path style="--d:10s;" pathLength="3333" clip-path="url(#z22520c10)" d="M 541 386 L 559 363 L 563 348 L 543 309 L 469 218 L 419 181"/>
<path style="--d:11s;" pathLength="3333" clip-path="url(#z22520c11)" d="M 663 400 L 695 373 L 674 315 L 638 247 L 573 153 L 535 111 L 466 54"/>
</svg>