<svg id="z21666" class="acjk" viewBox="0 0 1024 1024" xmlns="http://www.w3.org/2000/svg">
  <path id="z21666d1" d="M 284 773 Q 272 779 238 782 Q 228 783 224 779 Q 220 773 228 760 Q 256 717 277 644 Q 281 622 297 609 Q 315 591 318 605 Q 319 614 319 627 L 313 655 Q 297 722 292 747 C 287 772 287 772 284 773 Z"/>
  <path id="z21666d2" d="M 447 678 Q 463 739 481 756 Q 503 781 480 795 Q 422 826 412 824 Q 405 824 398 819 Q 364 795 284 773 C 255 765 263 741 292 747 Q 299 748 313 752 Q 350 762 381 771 Q 402 777 408 768 Q 412 764 397 682 C 392 652 439 649 447 678 Z"/>
  <path id="z21666d3" d="M 319 627 Q 325 627 333 629 Q 372 639 456 653 Q 465 654 465 662 Q 465 669 447 678 C 423 691 423 691 397 682 Q 349 666 313 655 C 284 646 289 625 319 627 Z"/>
  <path id="z21666d4" d="M 579 812 Q 569 818 534 824 Q 524 825 520 821 Q 516 817 523 802 Q 547 757 564 683 Q 568 661 581 646 Q 597 627 602 641 Q 605 651 604 667 L 600 697 Q 587 763 585 786 C 582 810 582 810 579 812 Z"/>
  <path id="z21666d5" d="M 743 710 Q 765 767 786 782 Q 810 806 788 821 Q 727 858 725 859 Q 715 859 707 854 Q 668 830 579 812 C 550 806 555 781 585 786 Q 591 786 683 807 Q 708 813 714 803 Q 717 800 689 715 C 680 686 732 682 743 710 Z"/>
  <path id="z21666d6" d="M 604 667 Q 607 667 613 668 Q 656 677 753 682 Q 762 683 763 690 Q 763 697 743 710 C 725 722 718 721 689 715 Q 640 705 600 697 C 571 691 574 664 604 667 Z"/>
  <path id="z21666d7" d="M 366 542 Q 329 535 355 518 Q 400 494 455 508 Q 536 524 619 541 Q 656 550 663 555 Q 672 562 667 572 Q 660 584 630 591 Q 605 597 503 565 Q 431 547 366 542 Z"/>
  <path id="z21666d8" d="M 416 390 Q 569 420 875 419 Q 902 419 908 429 Q 915 442 895 459 Q 832 505 788 494 Q 634 461 135 394 Q 110 391 128 371 Q 144 355 166 349 Q 191 342 210 348 Q 285 369 366 382 L 416 390 Z"/>
  <path id="z21666d9" d="M 366 382 Q 367 381 368 378 Q 375 362 364 334 Q 345 298 315 282 Q 296 269 298 253 Q 299 237 316 221 Q 329 208 346 216 Q 407 258 518 290 Q 581 311 614 291 Q 639 276 634 237 Q 624 143 576 71 Q 558 44 542 38 Q 521 32 445 57 Q 429 66 426 58 Q 426 51 438 38 Q 480 -8 507 -48 Q 517 -61 529 -61 Q 547 -62 567 -49 Q 651 23 692 212 Q 696 251 712 269 Q 724 281 714 297 Q 696 313 652 334 Q 631 344 607 337 Q 537 318 415 292 Q 399 289 407 305 Q 429 335 437 340 Q 453 355 442 372 Q 432 382 416 390 C 391 407 362 412 366 382 Z"/>
<defs>
  <clipPath id="z21666c1"><use href="#z21666d1"/></clipPath>
  <clipPath id="z21666c2"><use href="#z21666d2"/></clipPath>
  <clipPath id="z21666c3"><use href="#z21666d3"/></clipPath>
  <clipPath id="z21666c4"><use href="#z21666d4"/></clipPath>
  <clipPath id="z21666c5"><use href="#z21666d5"/></clipPath>
  <clipPath id="z21666c6"><use href="#z21666d6"/></clipPath>
  <clipPath id="z21666c7"><use href="#z21666d7"/></clipPath>
  <clipPath id="z21666c8"><use href="#z21666d8"/></clipPath>
  <clipPath id="z21666c9"><use href="#z21666d9"/></clipPath>
</defs>
<path style="--d:1s;" pathLength="3333" clip-path="url(#z21666c1)" d="M 232 774 L 263 753 L 308 609"/>
<path style="--d:2s;" pathLength="3333" clip-path="url(#z21666c2)" d="M 295 755 L 303 764 L 379 789 L 406 796 L 424 792 L 445 771 L 428 706 L 404 694"/>
<path style="--d:3s;" pathLength="3333" clip-path="url(#z21666c3)" d="M 321 649 L 331 644 L 402 663 L 456 662"/>
<path style="--d:4s;" pathLength="3333" clip-path="url(#z21666c4)" d="M 528 816 L 559 787 L 592 646"/>
<path style="--d:5s;" pathLength="3333" clip-path="url(#z21666c5)" d="M 586 793 L 598 802 L 701 829 L 729 826 L 751 800 L 725 739 L 697 727"/>
<path style="--d:6s;" pathLength="3333" clip-path="url(#z21666c6)" d="M 608 675 L 624 687 L 694 697 L 754 691"/>
<path style="--d:7s;" pathLength="3333" clip-path="url(#z21666c7)" d="M 358 531 L 380 525 L 429 526 L 612 566 L 656 566"/>
<path style="--d:8s;" pathLength="3333" clip-path="url(#z21666c8)" d="M 132 382 L 190 373 L 494 424 L 800 457 L 831 455 L 896 436"/>
<path style="--d:9s;" pathLength="3333" clip-path="url(#z21666c9)" d="M 372 383 L 403 354 L 376 296 L 375 280 L 384 276 L 420 274 L 511 302 L 594 317 L 628 314 L 670 279 L 660 207 L 637 122 L 612 66 L 575 14 L 539 -11 L 432 55"/>
</svg>