<svg id="z21500" class="acjk" viewBox="0 0 1024 1024" xmlns="http://www.w3.org/2000/svg">
  <path id="z21500d1" d="M 170 589 Q 158 596 129 601 Q 116 605 113 600 Q 106 594 114 578 Q 145 502 159 378 Q 160 341 180 316 Q 196 294 203 309 Q 213 333 206 380 L 201 415 Q 185 523 182 557 C 179 585 179 585 170 589 Z"/>
  <path id="z21500d2" d="M 359 436 Q 378 530 405 560 Q 430 588 404 604 Q 382 617 352 636 Q 333 648 283 620 Q 235 602 170 589 C 141 583 152 552 182 557 Q 191 558 203 561 Q 248 571 286 578 Q 311 582 317 573 Q 327 566 319 526 Q 312 487 304 442 C 299 412 353 407 359 436 Z"/>
  <path id="z21500d3" d="M 206 380 Q 242 392 369 405 Q 379 406 381 415 Q 381 422 359 436 L 304 442 L 303 442 Q 245 426 201 415 C 172 408 177 371 206 380 Z"/>
  <path id="z21500d4" d="M 825 640 Q 835 616 828 555 Q 800 330 752 212 Q 727 139 701 117 Q 688 101 657 110 Q 620 120 585 130 Q 560 136 578 114 Q 629 62 657 23 Q 667 1 690 8 Q 715 11 748 47 Q 841 137 878 502 Q 887 583 917 630 Q 936 655 926 666 Q 908 687 869 703 Q 841 718 811 704 Q 738 673 625 652 Q 528 633 471 633 Q 449 636 448 623 Q 447 613 472 596 Q 503 575 531 586 Q 673 629 803 648 Q 821 649 825 640 Z"/>
  <path id="z21500d5" d="M 337 277 Q 322 270 324 258 Q 325 242 340 236 Q 371 226 417 216 Q 430 216 440 231 Q 485 292 635 420 Q 659 445 683 471 Q 695 484 692 495 Q 685 499 671 492 Q 398 297 337 277 Z"/>
<defs>
  <clipPath id="z21500c1"><use href="#z21500d1"/></clipPath>
  <clipPath id="z21500c2"><use href="#z21500d2"/></clipPath>
  <clipPath id="z21500c3"><use href="#z21500d3"/></clipPath>
  <clipPath id="z21500c4"><use href="#z21500d4"/></clipPath>
  <clipPath id="z21500c5"><use href="#z21500d5"/></clipPath>
</defs>
<path style="--d:1s;" pathLength="3333" clip-path="url(#z21500c1)" d="M 120 592 L 148 568 L 154 550 L 192 316"/>
<path style="--d:2s;" pathLength="3333" clip-path="url(#z21500c2)" d="M 179 586 L 189 578 L 207 579 L 321 606 L 340 601 L 354 588 L 363 578 L 362 570 L 339 472 L 312 448"/>
<path style="--d:3s;" pathLength="3333" clip-path="url(#z21500c3)" d="M 208 386 L 224 403 L 300 420 L 371 415"/>
<path style="--d:4s;" pathLength="3333" clip-path="url(#z21500c4)" d="M 459 622 L 510 608 L 829 677 L 848 671 L 873 648 L 840 424 L 813 287 L 781 182 L 757 126 L 721 79 L 690 60 L 578 123"/>
<path style="--d:5s;" pathLength="3333" clip-path="url(#z21500c5)" d="M 342 260 L 409 263 L 687 490"/>
</svg>