<svg id="z28356" class="acjk" viewBox="0 0 1024 1024" xmlns="http://www.w3.org/2000/svg">
  <path id="z28356d1" d="M 230 702 Q 255 678 281 649 Q 294 636 311 635 Q 323 635 329 649 Q 335 664 326 696 Q 322 715 291 731 Q 222 762 204 755 Q 198 751 199 738 Q 203 725 230 702 Z"/>
  <path id="z28356d2" d="M 121 507 Q 172 444 202 432 Q 217 428 227 441 Q 234 454 232 471 Q 223 513 136 546 Q 120 552 110 548 Q 103 547 105 534 Q 106 522 121 507 Z"/>
  <path id="z28356d3" d="M 103 171 Q 91 168 92 151 Q 105 78 133 59 Q 140 52 150 54 Q 157 55 160 79 Q 166 119 276 357 Q 283 372 282 378 Q 282 388 273 382 Q 258 372 143 208 Q 130 189 103 171 Z"/>
  <path id="z28356d4" d="M 590 773 Q 594 780 601 784 Q 611 794 606 808 Q 602 821 574 844 Q 549 862 529 862 Q 510 861 518 839 Q 531 809 520 784 Q 484 699 430 621 Q 378 545 307 462 Q 297 452 295 446 Q 291 436 305 438 Q 360 445 521 669 Q 569 747 576 755 L 590 773 Z"/>
  <path id="z28356d5" d="M 576 755 Q 670 649 773 552 Q 795 530 833 528 Q 900 525 972 540 Q 990 543 992 547 Q 993 554 979 559 Q 930 577 873 595 Q 809 617 761 647 Q 701 681 643 729 Q 609 759 590 773 C 566 791 556 777 576 755 Z"/>
  <path id="z28356d6" d="M 525 614 Q 579 554 606 552 Q 619 552 624 570 Q 625 583 614 601 Q 604 617 580 624 Q 543 639 528 641 Q 518 642 518 630 Q 517 623 525 614 Z"/>
  <path id="z28356d7" d="M 639 279 Q 654 257 668 249 Q 678 240 695 262 Q 710 284 742 405 Q 752 436 776 461 Q 789 474 778 488 Q 762 504 720 532 Q 704 541 633 523 Q 611 523 483 489 C 454 481 471 449 500 457 Q 656 503 681 487 Q 694 477 690 459 Q 662 321 641 311 C 627 295 627 295 639 279 Z"/>
  <path id="z28356d8" d="M 477 360 Q 481 360 490 361 Q 566 376 624 385 Q 646 389 637 401 Q 627 414 603 418 Q 573 419 481 386 C 453 376 447 359 477 360 Z"/>
  <path id="z28356d9" d="M 459 259 Q 468 258 480 260 Q 531 272 639 279 C 669 281 666 295 641 311 Q 625 327 529 303 Q 495 297 466 291 C 437 285 429 261 459 259 Z"/>
  <path id="z28356d10" d="M 483 489 Q 441 516 418 507 Q 405 503 412 488 Q 442 431 412 279 Q 406 258 401 236 Q 350 89 195 -20 Q 182 -30 194 -32 Q 209 -32 243 -17 Q 300 11 342 53 Q 391 96 414 145 Q 424 167 434 188 Q 449 222 459 259 L 466 291 Q 467 304 470 317 Q 473 339 477 360 L 481 386 Q 481 387 482 388 Q 485 424 500 457 C 507 475 507 475 483 489 Z"/>
  <path id="z28356d11" d="M 494 158 Q 482 165 449 174 Q 437 178 433 173 Q 426 167 434 151 Q 458 91 468 -3 Q 469 -31 485 -51 Q 501 -75 507 -59 Q 513 -47 513 -27 L 511 7 Q 502 95 501 126 C 500 155 500 155 494 158 Z"/>
  <path id="z28356d12" d="M 756 34 Q 784 112 813 131 Q 831 150 816 168 Q 740 231 693 202 Q 615 177 494 158 C 464 153 471 122 501 126 Q 528 129 688 160 Q 709 164 718 156 Q 727 147 724 128 Q 715 79 703 39 C 695 10 746 6 756 34 Z"/>
  <path id="z28356d13" d="M 513 -27 Q 517 -27 523 -26 Q 602 -11 770 -2 Q 780 -1 783 8 Q 783 15 756 34 C 739 46 732 45 703 39 Q 597 17 511 7 C 481 3 483 -30 513 -27 Z"/>
<defs>
  <clipPath id="z28356c1"><use href="#z28356d1"/></clipPath>
  <clipPath id="z28356c2"><use href="#z28356d2"/></clipPath>
  <clipPath id="z28356c3"><use href="#z28356d3"/></clipPath>
  <clipPath id="z28356c4"><use href="#z28356d4"/></clipPath>
  <clipPath id="z28356c5"><use href="#z28356d5"/></clipPath>
  <clipPath id="z28356c6"><use href="#z28356d6"/></clipPath>
  <clipPath id="z28356c7"><use href="#z28356d7"/></clipPath>
  <clipPath id="z28356c8"><use href="#z28356d8"/></clipPath>
  <clipPath id="z28356c9"><use href="#z28356d9"/></clipPath>
  <clipPath id="z28356c10"><use href="#z28356d10"/></clipPath>
  <clipPath id="z28356c11"><use href="#z28356d11"/></clipPath>
  <clipPath id="z28356c12"><use href="#z28356d12"/></clipPath>
  <clipPath id="z28356c13"><use href="#z28356d13"/></clipPath>
</defs>
<path style="--d:1s;" pathLength="3333" clip-path="url(#z28356c1)" d="M 209 747 L 288 692 L 310 654"/>
<path style="--d:2s;" pathLength="3333" clip-path="url(#z28356c2)" d="M 117 538 L 194 476 L 208 453"/>
<path style="--d:3s;" pathLength="3333" clip-path="url(#z28356c3)" d="M 146 64 L 138 83 L 137 143 L 276 376"/>
<path style="--d:4s;" pathLength="3333" clip-path="url(#z28356c4)" d="M 528 848 L 546 833 L 563 801 L 535 744 L 480 650 L 413 559 L 342 477 L 303 446"/>
<path style="--d:5s;" pathLength="3333" clip-path="url(#z28356c5)" d="M 591 765 L 595 754 L 682 671 L 814 573 L 855 563 L 987 549"/>
<path style="--d:6s;" pathLength="3333" clip-path="url(#z28356c6)" d="M 530 629 L 590 589 L 605 569"/>
<path style="--d:7s;" pathLength="3333" clip-path="url(#z28356c7)" d="M 496 489 L 511 477 L 544 489 L 668 512 L 698 508 L 723 488 L 732 473 L 699 359 L 674 297 L 676 267"/>
<path style="--d:8s;" pathLength="3333" clip-path="url(#z28356c8)" d="M 483 366 L 496 377 L 554 392 L 606 400 L 628 395"/>
<path style="--d:9s;" pathLength="3333" clip-path="url(#z28356c9)" d="M 464 263 L 487 279 L 621 298 L 634 306"/>
<path style="--d:10s;" pathLength="3333" clip-path="url(#z28356c10)" d="M 421 496 L 448 476 L 460 455 L 442 300 L 415 204 L 377 128 L 342 84 L 280 25 L 198 -26"/>
<path style="--d:11s;" pathLength="3333" clip-path="url(#z28356c11)" d="M 440 165 L 470 136 L 497 -53"/>
<path style="--d:12s;" pathLength="3333" clip-path="url(#z28356c12)" d="M 503 132 L 525 147 L 709 184 L 734 181 L 768 150 L 738 63 L 710 44"/>
<path style="--d:13s;" pathLength="3333" clip-path="url(#z28356c13)" d="M 517 -21 L 528 -8 L 699 16 L 748 16 L 775 8"/>
</svg>