<svg id="z25290" class="acjk" viewBox="0 0 1024 1024" xmlns="http://www.w3.org/2000/svg">
  <path id="z25290d1" d="M 311 545 Q 374 566 377 569 Q 384 576 380 585 Q 373 595 343 600 Q 327 603 313 599 L 262 579 Q 145 546 122 541 Q 88 532 114 518 Q 150 503 219 519 Q 238 525 261 530 L 311 545 Z"/>
  <path id="z25290d2" d="M 256 346 Q 255 261 253 154 Q 252 132 240 123 Q 234 120 173 133 Q 140 146 143 137 Q 144 130 163 114 Q 221 62 235 33 Q 251 -1 266 -3 Q 279 -4 296 30 Q 315 76 315 149 Q 308 272 308 394 L 308 424 Q 308 485 311 545 L 313 599 Q 314 609 315 619 Q 319 707 334 752 Q 350 783 296 805 Q 262 824 243 818 Q 225 811 241 788 Q 263 761 263 727 Q 264 711 262 579 L 261 530 Q 260 470 257 391 L 256 346 Z"/>
  <path id="z25290d3" d="M 257 391 Q 49 256 47 249 Q 47 239 62 227 Q 84 214 107 207 Q 119 206 138 223 Q 177 274 256 346 L 308 394 Q 314 401 321 406 Q 337 418 345 432 Q 351 445 340 444 Q 328 443 308 424 L 257 391 Z"/>
  <path id="z25290d4" d="M 446 466 Q 506 551 544 624 Q 560 663 578 682 Q 585 692 580 705 Q 576 715 547 735 Q 520 750 503 748 Q 485 744 495 725 Q 531 662 367 407 Q 363 403 360 397 Q 351 387 350 381 Q 347 371 360 374 Q 378 380 426 438 L 446 466 Z"/>
  <path id="z25290d5" d="M 426 438 Q 427 431 433 424 Q 466 358 433 174 Q 412 102 451 63 Q 467 48 478 73 Q 491 110 491 151 Q 488 343 494 386 Q 501 411 492 420 Q 458 462 446 466 C 421 483 414 465 426 438 Z"/>
  <path id="z25290d6" d="M 801 497 Q 843 504 898 509 Q 946 513 951 522 Q 955 534 938 546 Q 875 580 821 556 Q 811 555 801 550 L 749 534 Q 728 530 706 523 Q 625 502 530 479 Q 511 475 526 460 Q 542 448 559 445 Q 580 441 595 448 Q 670 476 750 489 L 801 497 Z"/>
  <path id="z25290d7" d="M 750 489 Q 751 356 753 140 Q 753 118 741 108 Q 731 101 709 109 Q 684 116 658 122 Q 624 135 627 124 Q 628 117 649 101 Q 718 47 735 16 Q 756 -21 773 -21 Q 788 -22 803 14 Q 821 62 818 138 Q 803 318 801 497 L 801 550 Q 801 683 817 740 Q 833 771 776 793 Q 740 812 721 804 Q 702 797 720 774 Q 742 746 745 711 Q 746 692 749 534 L 750 489 Z"/>
  <path id="z25290d8" d="M 584 345 Q 606 327 630 305 Q 643 293 658 295 Q 668 296 673 308 Q 677 323 667 351 Q 655 378 577 391 Q 562 394 556 391 Q 552 387 553 375 Q 557 365 584 345 Z"/>
<defs>
  <clipPath id="z25290c1"><use href="#z25290d1"/></clipPath>
  <clipPath id="z25290c2"><use href="#z25290d2"/></clipPath>
  <clipPath id="z25290c3"><use href="#z25290d3"/></clipPath>
  <clipPath id="z25290c4"><use href="#z25290d4"/></clipPath>
  <clipPath id="z25290c5"><use href="#z25290d5"/></clipPath>
  <clipPath id="z25290c6"><use href="#z25290d6"/></clipPath>
  <clipPath id="z25290c7"><use href="#z25290d7"/></clipPath>
  <clipPath id="z25290c8"><use href="#z25290d8"/></clipPath>
</defs>
<path style="--d:1s;" pathLength="3333" clip-path="url(#z25290c1)" d="M 115 530 L 205 538 L 324 576 L 370 578"/>
<path style="--d:2s;" pathLength="3333" clip-path="url(#z25290c2)" d="M 250 802 L 277 784 L 297 758 L 286 591 L 284 141 L 277 109 L 261 80 L 161 127 L 160 134 L 149 134"/>
<path style="--d:3s;" pathLength="3333" clip-path="url(#z25290c3)" d="M 53 245 L 108 247 L 252 371 L 338 436"/>
<path style="--d:4s;" pathLength="3333" clip-path="url(#z25290c4)" d="M 504 735 L 529 713 L 539 694 L 522 643 L 437 483 L 395 421 L 358 382"/>
<path style="--d:5s;" pathLength="3333" clip-path="url(#z25290c5)" d="M 446 459 L 470 398 L 470 289 L 457 120 L 463 73"/>
<path style="--d:6s;" pathLength="3333" clip-path="url(#z25290c6)" d="M 529 469 L 583 468 L 690 499 L 848 534 L 881 537 L 943 527"/>
<path style="--d:7s;" pathLength="3333" clip-path="url(#z25290c7)" d="M 727 789 L 745 781 L 778 748 L 773 547 L 786 128 L 780 95 L 764 63 L 718 78 L 647 114 L 645 122 L 634 122"/>
<path style="--d:8s;" pathLength="3333" clip-path="url(#z25290c8)" d="M 561 385 L 634 343 L 655 313"/>
</svg>