<svg id="z23569" class="acjk" viewBox="0 0 1024 1024" xmlns="http://www.w3.org/2000/svg">
  <path id="z23569d1" d="M 460 783 Q 502 714 482 443 Q 473 374 489 351 Q 489 348 492 344 Q 502 326 519 336 Q 529 345 531 420 Q 522 519 543 673 Q 544 704 564 743 Q 571 753 558 768 Q 501 816 468 804 Q 453 800 460 783 Z"/>
  <path id="z23569d2" d="M 292 583 Q 261 510 217 446 Q 193 406 212 371 Q 219 350 244 364 Q 269 382 286 417 Q 314 469 319 517 Q 326 554 318 582 Q 314 592 306 593 Q 296 592 292 583 Z"/>
  <path id="z23569d3" d="M 698 588 Q 747 542 807 475 Q 823 454 840 449 Q 849 448 857 459 Q 870 472 857 519 Q 848 561 773 593 Q 725 612 699 620 Q 689 626 687 613 Q 687 598 698 588 Z"/>
  <path id="z23569d4" d="M 643 470 Q 625 293 421 130 Q 405 120 388 107 Q 325 58 176 -19 Q 166 -26 172 -31 Q 181 -35 195 -33 Q 292 -11 382 38 Q 538 117 674 338 Q 698 374 726 407 Q 738 416 734 430 Q 728 443 696 471 Q 674 490 661 490 Q 645 489 643 470 Z"/>
<defs>
  <clipPath id="z23569c1"><use href="#z23569d1"/></clipPath>
  <clipPath id="z23569c2"><use href="#z23569d2"/></clipPath>
  <clipPath id="z23569c3"><use href="#z23569d3"/></clipPath>
  <clipPath id="z23569c4"><use href="#z23569d4"/></clipPath>
</defs>
<path style="--d:1s;" pathLength="3333" clip-path="url(#z23569c1)" d="M 470 791 L 489 781 L 518 745 L 505 478 L 509 346"/>
<path style="--d:2s;" pathLength="3333" clip-path="url(#z23569c2)" d="M 305 582 L 287 502 L 227 374"/>
<path style="--d:3s;" pathLength="3333" clip-path="url(#z23569c3)" d="M 698 608 L 798 540 L 821 514 L 841 466"/>
<path style="--d:4s;" pathLength="3333" clip-path="url(#z23569c4)" d="M 662 471 L 678 436 L 679 417 L 605 284 L 513 172 L 439 107 L 375 64 L 270 8 L 179 -27"/>
</svg>