<svg id="z24407" class="acjk" viewBox="0 0 1024 1024" xmlns="http://www.w3.org/2000/svg">
  <path id="z24407d1" d="M 382 636 Q 464 654 471 658 Q 478 665 475 673 Q 468 683 442 691 Q 415 697 384 685 L 326 668 Q 248 652 189 646 Q 155 640 179 625 Q 215 601 268 614 Q 299 620 332 626 L 382 636 Z"/>
  <path id="z24407d2" d="M 382 520 Q 448 536 452 540 Q 459 547 455 554 Q 448 564 423 570 Q 402 574 382 567 L 337 551 Q 271 533 223 528 Q 192 522 214 508 Q 250 490 332 509 Q 335 510 338 510 L 382 520 Z"/>
  <path id="z24407d3" d="M 382 417 Q 392 423 408 427 Q 462 446 466 463 Q 462 467 450 467 Q 416 458 382 448 L 340 438 Q 169 396 128 398 Q 116 397 114 388 Q 111 376 119 368 Q 140 352 168 333 Q 178 330 189 337 Q 246 373 340 402 L 382 417 Z"/>
  <path id="z24407d4" d="M 340 402 Q 340 356 351 326 Q 357 316 366 322 Q 384 341 382 417 L 382 448 Q 382 485 382 520 L 382 567 Q 382 601 382 636 L 384 685 Q 385 709 388 722 Q 395 741 383 753 Q 367 766 338 778 Q 316 785 295 775 Q 283 766 298 752 Q 325 704 326 668 L 332 626 Q 335 592 337 551 L 338 510 Q 338 480 340 438 L 340 402 Z"/>
  <path id="z24407d5" d="M 680 657 Q 803 678 810 685 Q 819 692 815 700 Q 808 712 780 720 Q 746 727 683 703 L 629 691 Q 583 684 530 680 Q 494 674 519 658 Q 552 637 630 648 L 680 657 Z"/>
  <path id="z24407d6" d="M 673 543 Q 697 549 761 556 Q 770 555 777 566 Q 778 576 759 584 Q 735 602 676 584 L 629 573 Q 617 572 539 561 Q 515 557 534 543 Q 562 524 600 530 Q 612 533 628 535 L 673 543 Z"/>
  <path id="z24407d7" d="M 665 430 Q 689 433 852 433 Q 870 433 874 440 Q 880 450 865 463 Q 817 499 759 487 Q 720 481 667 471 L 624 465 Q 558 458 483 448 Q 464 447 478 431 Q 491 418 507 413 Q 526 409 540 412 Q 579 422 622 426 L 665 430 Z"/>
  <path id="z24407d8" d="M 646 335 Q 664 365 665 430 L 667 471 Q 670 508 673 543 L 676 584 Q 676 620 680 657 L 683 703 Q 687 748 693 770 Q 703 789 690 802 Q 674 817 646 831 Q 624 840 600 831 Q 588 822 602 806 Q 623 767 629 691 L 630 648 Q 630 614 629 573 L 628 535 Q 628 531 628 526 Q 627 495 624 465 L 622 426 Q 616 345 631 330 C 637 317 637 317 646 335 Z"/>
  <path id="z24407d9" d="M 670 60 Q 706 202 759 248 Q 778 269 762 289 Q 743 305 685 334 Q 667 341 646 335 L 631 330 Q 480 281 304 269 Q 285 268 287 257 Q 290 247 310 240 Q 338 227 378 238 Q 496 257 610 278 Q 640 284 652 271 Q 667 256 661 225 Q 655 198 649 172 L 642 147 Q 630 104 618 65 C 609 36 662 31 670 60 Z"/>
  <path id="z24407d10" d="M 649 172 Q 609 205 555 189 Q 441 167 265 148 Q 237 147 258 128 Q 285 101 318 106 Q 438 127 639 147 L 642 147 C 672 149 673 154 649 172 Z"/>
  <path id="z24407d11" d="M 618 65 Q 614 66 611 65 Q 439 32 300 24 Q 275 23 289 0 Q 296 -12 309 -17 Q 322 -21 339 -18 Q 451 1 690 10 Q 703 11 706 22 Q 707 32 670 60 L 618 65 Z"/>
<defs>
  <clipPath id="z24407c1"><use href="#z24407d1"/></clipPath>
  <clipPath id="z24407c2"><use href="#z24407d2"/></clipPath>
  <clipPath id="z24407c3"><use href="#z24407d3"/></clipPath>
  <clipPath id="z24407c4"><use href="#z24407d4"/></clipPath>
  <clipPath id="z24407c5"><use href="#z24407d5"/></clipPath>
  <clipPath id="z24407c6"><use href="#z24407d6"/></clipPath>
  <clipPath id="z24407c7"><use href="#z24407d7"/></clipPath>
  <clipPath id="z24407c8"><use href="#z24407d8"/></clipPath>
  <clipPath id="z24407c9"><use href="#z24407d9"/></clipPath>
  <clipPath id="z24407c10"><use href="#z24407d10"/></clipPath>
  <clipPath id="z24407c11"><use href="#z24407d11"/></clipPath>
</defs>
<path style="--d:1s;" pathLength="3333" clip-path="url(#z24407c1)" d="M 181 637 L 204 630 L 241 631 L 422 670 L 465 668"/>
<path style="--d:2s;" pathLength="3333" clip-path="url(#z24407c2)" d="M 216 519 L 268 516 L 404 549 L 445 549"/>
<path style="--d:3s;" pathLength="3333" clip-path="url(#z24407c3)" d="M 127 385 L 173 369 L 414 441 L 461 461"/>
<path style="--d:4s;" pathLength="3333" clip-path="url(#z24407c4)" d="M 303 764 L 333 749 L 351 723 L 360 544 L 360 331"/>
<path style="--d:5s;" pathLength="3333" clip-path="url(#z24407c5)" d="M 522 670 L 565 663 L 617 666 L 743 695 L 803 696"/>
<path style="--d:6s;" pathLength="3333" clip-path="url(#z24407c6)" d="M 535 552 L 591 548 L 720 573 L 767 568"/>
<path style="--d:7s;" pathLength="3333" clip-path="url(#z24407c7)" d="M 480 440 L 532 432 L 784 462 L 821 459 L 864 446"/>
<path style="--d:8s;" pathLength="3333" clip-path="url(#z24407c8)" d="M 610 819 L 632 808 L 655 780 L 654 606 L 637 338"/>
<path style="--d:9s;" pathLength="3333" clip-path="url(#z24407c9)" d="M 298 258 L 342 252 L 383 257 L 631 305 L 659 305 L 678 298 L 704 273 L 706 256 L 655 96 L 651 87 L 625 70"/>
<path style="--d:10s;" pathLength="3333" clip-path="url(#z24407c10)" d="M 259 139 L 309 129 L 595 169 L 619 167 L 641 154"/>
<path style="--d:11s;" pathLength="3333" clip-path="url(#z24407c11)" d="M 296 11 L 329 3 L 608 36 L 663 35 L 696 22"/>
</svg>