<svg id="z24128" class="acjk" viewBox="0 0 1024 1024" xmlns="http://www.w3.org/2000/svg">
  <path id="z24128d1" d="M 171 549 Q 153 567 124 564 Q 114 560 118 550 Q 151 489 124 379 Q 106 343 135 305 L 137 303 Q 144 291 152 297 Q 177 318 178 476 Q 178 506 179 519 C 180 541 180 541 171 549 Z"/>
  <path id="z24128d2" d="M 306 554 Q 376 575 389 567 Q 402 557 401 517 Q 400 480 399 432 Q 399 398 387 384 Q 383 375 364 380 Q 319 389 315 385 Q 311 381 324 372 Q 366 336 390 307 Q 403 294 421 301 Q 431 305 440 331 Q 459 371 455 421 Q 446 529 455 565 Q 462 578 455 586 Q 394 619 362 600 Q 340 591 307 581 L 259 567 Q 219 558 171 549 C 142 543 150 510 179 519 Q 179 520 259 542 L 306 554 Z"/>
  <path id="z24128d3" d="M 259 542 Q 259 230 245 157 Q 227 69 243 28 Q 246 21 251 10 Q 258 -8 266 -11 Q 273 -18 280 -10 Q 307 14 306 73 Q 305 121 306 554 L 307 581 Q 308 662 323 716 Q 333 732 329 745 Q 322 755 266 789 Q 242 805 221 790 Q 217 784 223 769 Q 254 723 255 678 Q 256 626 259 567 L 259 542 Z"/>
  <path id="z24128d4" d="M 683 599 Q 687 654 693 705 L 695 734 Q 698 755 702 777 Q 706 787 708 795 Q 711 805 692 819 Q 661 835 638 839 Q 623 842 616 834 Q 609 827 617 813 Q 632 794 633 781 Q 643 693 644 590 C 644 560 681 569 683 599 Z"/>
  <path id="z24128d5" d="M 693 705 Q 727 699 822 717 Q 870 727 875 730 Q 884 737 879 745 Q 872 755 846 762 Q 819 766 746 743 Q 722 739 695 734 C 665 729 663 709 693 705 Z"/>
  <path id="z24128d6" d="M 565 576 L 563 578 Q 542 594 519 600 Q 510 601 505 594 Q 502 590 509 579 Q 554 474 521 298 Q 509 267 515 240 Q 524 210 534 199 Q 544 187 553 200 Q 560 209 564 222 L 570 253 Q 576 304 573 335 L 573 360 Q 573 402 572 444 L 572 470 Q 572 525 575 547 C 577 567 577 567 565 576 Z"/>
  <path id="z24128d7" d="M 782 239 Q 783 232 790 222 Q 805 194 814 194 Q 829 195 844 229 Q 860 254 857 276 Q 829 501 867 559 Q 877 575 869 585 Q 841 607 795 628 Q 779 632 756 624 Q 723 611 683 599 L 644 590 Q 601 583 565 576 C 536 570 546 538 575 547 Q 627 565 742 585 Q 766 589 774 578 Q 789 559 789 492 Q 793 305 784 268 Q 783 268 783 267 C 779 246 779 246 782 239 Z"/>
  <path id="z24128d8" d="M 572 444 Q 575 444 580 444 Q 665 460 727 469 Q 749 473 741 485 Q 731 498 707 502 Q 686 505 572 470 C 543 461 542 444 572 444 Z"/>
  <path id="z24128d9" d="M 573 335 Q 577 335 583 335 Q 664 347 723 353 Q 745 357 737 369 Q 727 382 703 387 Q 673 393 573 360 C 544 351 543 335 573 335 Z"/>
  <path id="z24128d10" d="M 564 222 Q 574 221 584 222 Q 645 234 782 239 C 812 240 806 247 783 267 Q 779 271 772 276 Q 757 285 729 279 Q 641 263 570 253 C 540 249 534 224 564 222 Z"/>
  <path id="z24128d11" d="M 570 165 Q 561 107 417 -4 Q 396 -17 423 -16 Q 493 -9 594 86 Q 598 98 639 128 Q 651 138 648 148 Q 647 161 621 170 Q 593 180 581 179 Q 574 178 570 165 Z"/>
  <path id="z24128d12" d="M 745 139 Q 791 82 844 2 Q 857 -20 872 -28 Q 879 -31 889 -22 Q 904 -10 898 36 Q 895 94 751 170 Q 742 177 739 164 Q 736 151 745 139 Z"/>
<defs>
  <clipPath id="z24128c1"><use href="#z24128d1"/></clipPath>
  <clipPath id="z24128c2"><use href="#z24128d2"/></clipPath>
  <clipPath id="z24128c3"><use href="#z24128d3"/></clipPath>
  <clipPath id="z24128c4"><use href="#z24128d4"/></clipPath>
  <clipPath id="z24128c5"><use href="#z24128d5"/></clipPath>
  <clipPath id="z24128c6"><use href="#z24128d6"/></clipPath>
  <clipPath id="z24128c7"><use href="#z24128d7"/></clipPath>
  <clipPath id="z24128c8"><use href="#z24128d8"/></clipPath>
  <clipPath id="z24128c9"><use href="#z24128d9"/></clipPath>
  <clipPath id="z24128c10"><use href="#z24128d10"/></clipPath>
  <clipPath id="z24128c11"><use href="#z24128d11"/></clipPath>
  <clipPath id="z24128c12"><use href="#z24128d12"/></clipPath>
</defs>
<path style="--d:1s;" pathLength="3333" clip-path="url(#z24128c1)" d="M 131 553 L 151 535 L 157 502 L 157 439 L 143 346 L 146 305"/>
<path style="--d:2s;" pathLength="3333" clip-path="url(#z24128c2)" d="M 177 527 L 197 540 L 244 548 L 374 587 L 405 584 L 418 575 L 426 556 L 428 429 L 415 362 L 405 349 L 386 351 L 324 380"/>
<path style="--d:3s;" pathLength="3333" clip-path="url(#z24128c3)" d="M 233 784 L 286 730 L 272 4"/>
<path style="--d:4s;" pathLength="3333" clip-path="url(#z24128c4)" d="M 627 825 L 668 791 L 665 624 L 649 599"/>
<path style="--d:5s;" pathLength="3333" clip-path="url(#z24128c5)" d="M 698 712 L 711 720 L 823 740 L 868 740"/>
<path style="--d:6s;" pathLength="3333" clip-path="url(#z24128c6)" d="M 516 589 L 543 561 L 550 532 L 554 409 L 543 204"/>
<path style="--d:7s;" pathLength="3333" clip-path="url(#z24128c7)" d="M 572 570 L 586 566 L 769 606 L 791 600 L 824 566 L 816 457 L 822 281 L 815 205"/>
<path style="--d:8s;" pathLength="3333" clip-path="url(#z24128c8)" d="M 576 451 L 588 462 L 699 484 L 731 479"/>
<path style="--d:9s;" pathLength="3333" clip-path="url(#z24128c9)" d="M 578 341 L 590 351 L 644 363 L 691 369 L 727 363"/>
<path style="--d:10s;" pathLength="3333" clip-path="url(#z24128c10)" d="M 569 229 L 592 241 L 740 260 L 763 258 L 771 246"/>
<path style="--d:11s;" pathLength="3333" clip-path="url(#z24128c11)" d="M 629 144 L 599 141 L 555 84 L 528 59 L 479 22 L 427 -6"/>
<path style="--d:12s;" pathLength="3333" clip-path="url(#z24128c12)" d="M 750 158 L 851 56 L 868 23 L 876 -12"/>
</svg>