<svg id="z20355" class="acjk" viewBox="0 0 1024 1024" xmlns="http://www.w3.org/2000/svg">
  <path id="z20355d1" d="M 230 515 Q 278 576 330 659 Q 358 708 382 733 Q 392 743 388 758 Q 384 771 354 796 Q 326 815 306 815 Q 287 814 295 790 Q 308 756 296 729 Q 230 567 63 372 Q 53 362 50 355 Q 46 343 61 346 Q 100 350 203 482 L 203 483 L 230 515 Z"/>
  <path id="z20355d2" d="M 203 483 Q 228 423 229 362 Q 228 346 228 327 Q 228 221 201 111 Q 186 62 223 14 Q 224 11 228 8 Q 247 -8 259 20 Q 274 62 274 110 Q 274 366 282 425 Q 289 453 279 464 Q 261 486 247 500 Q 240 509 230 515 C 206 534 192 511 203 483 Z"/>
  <path id="z20355d3" d="M 459 684 Q 447 688 424 693 Q 412 696 409 691 Q 402 685 411 669 Q 439 608 456 509 Q 459 479 476 460 Q 494 438 499 453 Q 502 463 503 479 L 500 514 Q 500 515 500 518 Q 482 618 479 651 C 476 679 476 679 459 684 Z"/>
  <path id="z20355d4" d="M 723 549 Q 750 639 786 663 Q 802 682 788 701 Q 770 716 715 741 Q 696 748 673 740 Q 589 706 459 684 C 429 679 449 646 479 651 Q 485 651 659 687 Q 678 691 686 683 Q 696 674 693 654 Q 683 597 670 552 C 662 523 714 520 723 549 Z"/>
  <path id="z20355d5" d="M 503 479 Q 513 478 527 480 Q 594 496 740 511 Q 750 512 752 522 Q 752 531 723 549 C 704 561 699 560 670 552 Q 574 527 500 514 C 470 509 473 480 503 479 Z"/>
  <path id="z20355d6" d="M 420 383 Q 438 344 411 229 Q 402 198 383 163 Q 368 133 311 84 Q 296 74 292 68 Q 289 62 300 61 Q 330 58 381 96 Q 448 153 483 322 Q 489 338 492 349 Q 499 368 482 379 Q 442 407 427 406 Q 408 405 420 383 Z"/>
  <path id="z20355d7" d="M 540 387 Q 570 323 548 148 Q 541 115 568 82 Q 578 72 586 82 Q 601 106 603 179 Q 603 326 608 359 Q 614 380 595 391 Q 555 413 544 407 Q 537 400 540 387 Z"/>
  <path id="z20355d8" d="M 980 118 Q 965 169 961 254 Q 960 269 953 274 Q 946 278 942 260 Q 923 154 908 136 Q 887 117 813 116 Q 771 117 753 125 Q 723 143 723 249 Q 727 331 742 372 Q 752 400 736 415 Q 690 449 675 445 Q 662 441 669 424 Q 687 390 684 340 Q 678 136 711 102 Q 729 87 772 77 Q 812 68 879 67 Q 939 66 963 77 Q 990 90 980 118 Z"/>
<defs>
  <clipPath id="z20355c1"><use href="#z20355d1"/></clipPath>
  <clipPath id="z20355c2"><use href="#z20355d2"/></clipPath>
  <clipPath id="z20355c3"><use href="#z20355d3"/></clipPath>
  <clipPath id="z20355c4"><use href="#z20355d4"/></clipPath>
  <clipPath id="z20355c5"><use href="#z20355d5"/></clipPath>
  <clipPath id="z20355c6"><use href="#z20355d6"/></clipPath>
  <clipPath id="z20355c7"><use href="#z20355d7"/></clipPath>
  <clipPath id="z20355c8"><use href="#z20355d8"/></clipPath>
</defs>
<path style="--d:1s;" pathLength="3333" clip-path="url(#z20355c1)" d="M 306 800 L 323 785 L 343 751 L 301 667 L 180 484 L 115 405 L 59 355"/>
<path style="--d:2s;" pathLength="3333" clip-path="url(#z20355c2)" d="M 230 506 L 233 478 L 251 445 L 254 379 L 249 215 L 234 70 L 240 17"/>
<path style="--d:3s;" pathLength="3333" clip-path="url(#z20355c3)" d="M 418 683 L 438 666 L 452 643 L 488 459"/>
<path style="--d:4s;" pathLength="3333" clip-path="url(#z20355c4)" d="M 469 682 L 494 672 L 676 714 L 710 707 L 737 680 L 704 576 L 677 557"/>
<path style="--d:5s;" pathLength="3333" clip-path="url(#z20355c5)" d="M 509 485 L 524 500 L 667 527 L 721 529 L 743 522"/>
<path style="--d:6s;" pathLength="3333" clip-path="url(#z20355c6)" d="M 427 394 L 459 352 L 439 243 L 424 197 L 379 121 L 336 84 L 299 68"/>
<path style="--d:7s;" pathLength="3333" clip-path="url(#z20355c7)" d="M 549 399 L 579 366 L 581 235 L 573 131 L 577 88"/>
<path style="--d:8s;" pathLength="3333" clip-path="url(#z20355c8)" d="M 679 433 L 714 392 L 705 326 L 705 197 L 718 134 L 728 117 L 743 107 L 794 95 L 853 92 L 905 98 L 940 112 L 951 267"/>
</svg>