<svg id="z29795" class="acjk" viewBox="0 0 1024 1024" xmlns="http://www.w3.org/2000/svg">
  <path id="z29795d1" d="M 284 636 Q 383 666 385 667 Q 394 676 388 684 Q 381 696 350 701 Q 319 705 289 690 Q 259 678 226 668 Q 190 658 147 651 Q 110 642 138 627 Q 180 609 232 621 L 284 636 Z"/>
  <path id="z29795d2" d="M 295 423 Q 376 456 379 457 Q 386 466 381 473 Q 372 483 343 486 Q 318 487 296 477 L 243 452 Q 237 451 234 449 Q 204 439 167 429 Q 133 419 161 406 Q 195 394 244 405 L 295 423 Z"/>
  <path id="z29795d3" d="M 292 271 Q 293 352 295 423 L 296 477 Q 296 559 300 595 Q 307 617 284 636 C 263 657 226 650 232 621 Q 239 600 243 452 L 244 405 Q 244 341 245 251 C 245 221 292 241 292 271 Z"/>
  <path id="z29795d4" d="M 245 251 Q 121 197 87 193 Q 74 190 73 178 Q 72 163 84 156 Q 112 141 151 125 Q 163 124 175 135 Q 200 162 369 269 L 417 305 Q 430 315 430 326 Q 423 330 409 326 Q 354 301 292 271 L 245 251 Z"/>
  <path id="z29795d5" d="M 663 546 Q 685 756 701 805 Q 705 815 685 831 Q 651 852 626 856 Q 610 860 602 852 Q 595 845 602 829 Q 620 804 620 785 Q 626 670 619 535 C 618 505 660 516 663 546 Z"/>
  <path id="z29795d6" d="M 470 659 Q 503 614 534 599 Q 549 595 559 609 Q 566 622 563 639 Q 557 664 540 677 Q 486 710 459 701 Q 458 701 458 700 Q 451 699 453 686 Q 454 674 470 659 Z"/>
  <path id="z29795d7" d="M 802 728 Q 799 725 736 646 Q 724 630 742 632 Q 782 648 806 662 Q 878 701 887 704 Q 909 713 900 731 Q 887 750 862 766 Q 840 782 826 780 Q 813 779 816 765 Q 817 746 802 728 Z"/>
  <path id="z29795d8" d="M 525 517 Q 516 523 503 529 Q 494 533 483 530 Q 477 526 482 514 Q 483 507 487 500 Q 508 455 490 275 Q 469 197 503 157 Q 512 145 522 156 Q 528 163 531 173 L 535 206 Q 536 222 537 244 Q 537 271 538 294 L 539 320 Q 540 363 541 394 L 542 418 Q 543 467 545 472 Q 546 482 546 488 C 547 504 547 504 525 517 Z"/>
  <path id="z29795d9" d="M 766 190 Q 767 183 774 174 Q 789 144 798 146 Q 813 147 828 181 Q 841 208 840 229 Q 827 311 825 439 Q 824 476 843 508 Q 853 524 845 534 Q 817 558 768 577 Q 752 581 729 572 Q 698 559 663 546 L 619 535 Q 568 525 525 517 C 496 511 518 479 546 488 Q 615 512 717 531 Q 741 537 749 524 Q 765 505 767 440 Q 774 256 766 219 Q 765 218 765 217 L 766 190 Z"/>
  <path id="z29795d10" d="M 541 394 Q 571 385 687 409 Q 690 410 693 410 Q 712 414 715 417 Q 722 424 719 431 Q 712 440 689 445 Q 665 449 641 440 Q 605 428 542 418 C 512 413 512 401 541 394 Z"/>
  <path id="z29795d11" d="M 538 294 Q 571 285 645 296 Q 717 308 723 312 Q 730 319 726 326 Q 720 336 695 343 Q 670 347 644 338 Q 620 331 596 326 Q 569 322 539 320 C 509 318 509 301 538 294 Z"/>
  <path id="z29795d12" d="M 531 173 Q 540 172 551 173 Q 618 185 766 190 C 794 191 787 197 765 217 Q 759 223 750 229 Q 734 239 703 233 Q 610 214 535 206 C 505 203 501 175 531 173 Z"/>
  <path id="z29795d13" d="M 552 137 Q 534 71 374 -52 Q 352 -65 379 -64 Q 446 -64 572 50 Q 572 53 624 98 Q 636 108 633 119 Q 632 132 605 142 Q 577 154 564 152 Q 555 151 552 137 Z"/>
  <path id="z29795d14" d="M 712 107 Q 764 52 828 -26 Q 844 -48 859 -54 Q 869 -55 877 -45 Q 890 -32 881 15 Q 871 75 723 136 Q 719 139 715 139 Q 706 146 703 133 Q 702 118 712 107 Z"/>
<defs>
  <clipPath id="z29795c1"><use href="#z29795d1"/></clipPath>
  <clipPath id="z29795c2"><use href="#z29795d2"/></clipPath>
  <clipPath id="z29795c3"><use href="#z29795d3"/></clipPath>
  <clipPath id="z29795c4"><use href="#z29795d4"/></clipPath>
  <clipPath id="z29795c5"><use href="#z29795d5"/></clipPath>
  <clipPath id="z29795c6"><use href="#z29795d6"/></clipPath>
  <clipPath id="z29795c7"><use href="#z29795d7"/></clipPath>
  <clipPath id="z29795c8"><use href="#z29795d8"/></clipPath>
  <clipPath id="z29795c9"><use href="#z29795d9"/></clipPath>
  <clipPath id="z29795c10"><use href="#z29795d10"/></clipPath>
  <clipPath id="z29795c11"><use href="#z29795d11"/></clipPath>
  <clipPath id="z29795c12"><use href="#z29795d12"/></clipPath>
  <clipPath id="z29795c13"><use href="#z29795d13"/></clipPath>
  <clipPath id="z29795c14"><use href="#z29795d14"/></clipPath>
</defs>
<path style="--d:1s;" pathLength="3333" clip-path="url(#z29795c1)" d="M 139 640 L 177 636 L 219 641 L 329 676 L 381 676"/>
<path style="--d:2s;" pathLength="3333" clip-path="url(#z29795c2)" d="M 161 418 L 218 421 L 336 464 L 374 464"/>
<path style="--d:3s;" pathLength="3333" clip-path="url(#z29795c3)" d="M 239 620 L 268 598 L 268 287 L 248 260"/>
<path style="--d:4s;" pathLength="3333" clip-path="url(#z29795c4)" d="M 89 177 L 151 169 L 424 322"/>
<path style="--d:5s;" pathLength="3333" clip-path="url(#z29795c5)" d="M 613 843 L 658 801 L 646 584 L 643 565 L 625 543"/>
<path style="--d:6s;" pathLength="3333" clip-path="url(#z29795c6)" d="M 465 694 L 516 655 L 540 620"/>
<path style="--d:7s;" pathLength="3333" clip-path="url(#z29795c7)" d="M 825 770 L 848 728 L 759 653 L 750 652 L 747 642"/>
<path style="--d:8s;" pathLength="3333" clip-path="url(#z29795c8)" d="M 489 523 L 511 500 L 520 479 L 522 429 L 509 225 L 513 161"/>
<path style="--d:9s;" pathLength="3333" clip-path="url(#z29795c9)" d="M 533 515 L 559 508 L 743 554 L 765 548 L 799 515 L 795 428 L 804 224 L 798 159"/>
<path style="--d:10s;" pathLength="3333" clip-path="url(#z29795c10)" d="M 546 400 L 662 425 L 709 426"/>
<path style="--d:11s;" pathLength="3333" clip-path="url(#z29795c11)" d="M 545 300 L 554 306 L 597 307 L 667 322 L 717 321"/>
<path style="--d:12s;" pathLength="3333" clip-path="url(#z29795c12)" d="M 536 178 L 558 192 L 715 211 L 742 210 L 755 196"/>
<path style="--d:13s;" pathLength="3333" clip-path="url(#z29795c13)" d="M 613 115 L 582 110 L 545 64 L 475 0 L 419 -39 L 383 -55"/>
<path style="--d:14s;" pathLength="3333" clip-path="url(#z29795c14)" d="M 713 127 L 779 78 L 831 30 L 851 0 L 861 -39"/>
</svg>