<svg id="z22261" class="acjk" viewBox="0 0 1024 1024" xmlns="http://www.w3.org/2000/svg">
  <path id="z22261d1" d="M 260 723 Q 245 738 221 747 Q 209 754 196 749 Q 186 743 193 728 Q 215 650 219 607 Q 218 603 219 598 Q 228 339 184 157 Q 163 75 203 27 Q 215 11 228 25 Q 235 35 239 45 L 246 82 Q 252 119 252 183 Q 270 672 275 680 C 278 709 278 709 260 723 Z"/>
  <path id="z22261d2" d="M 729 68 Q 751 40 775 -4 Q 785 -26 801 -26 Q 814 -25 823 -3 Q 854 51 832 241 Q 808 652 829 686 Q 832 692 836 696 Q 848 709 847 718 Q 846 731 813 754 Q 755 796 712 781 Q 691 777 657 771 Q 503 756 317 726 Q 289 723 260 723 C 230 722 246 674 275 680 Q 521 728 706 738 Q 731 739 737 726 Q 755 708 764 444 L 764 425 Q 764 374 771 170 Q 774 119 759 92 C 751 63 713 91 729 68 Z"/>
  <path id="z22261d3" d="M 376 431 Q 383 440 392 448 Q 440 494 493 568 Q 499 578 506 587 L 521 605 Q 528 612 535 618 Q 542 625 540 637 Q 537 647 516 668 Q 495 684 480 686 Q 464 685 469 667 Q 494 601 291 385 Q 287 382 283 377 Q 274 370 272 364 Q 269 355 280 357 Q 301 360 365 420 L 376 431 Z"/>
  <path id="z22261d4" d="M 506 587 Q 632 422 661 415 Q 697 415 764 425 C 794 429 792 434 764 444 Q 655 481 563 566 Q 542 585 521 605 C 499 626 488 611 506 587 Z"/>
  <path id="z22261d5" d="M 585 364 Q 600 365 599 374 Q 598 387 587 406 Q 575 424 558 430 Q 546 433 543 417 Q 543 398 419 314 C 394 297 391 283 418 296 Q 530 348 585 364 Z"/>
  <path id="z22261d6" d="M 419 314 Q 422 351 431 370 Q 440 392 424 406 Q 388 431 376 431 C 358 437 358 437 365 420 Q 364 417 367 412 Q 383 384 382 341 Q 382 247 388 228 Q 395 203 415 188 Q 455 161 591 168 Q 652 172 677 187 Q 699 200 689 224 Q 674 255 661 310 Q 660 323 653 326 Q 646 329 645 313 Q 636 246 627 233 Q 605 208 518 204 Q 469 204 448 211 Q 429 220 425 232 Q 419 250 418 296 L 419 314 Z"/>
  <path id="z22261d7" d="M 239 45 Q 240 44 243 43 Q 256 39 272 40 Q 419 64 729 68 C 759 68 779 70 759 92 Q 752 102 733 116 Q 714 129 677 123 Q 436 87 246 82 C 216 81 210 53 239 45 Z"/>
<defs>
  <clipPath id="z22261c1"><use href="#z22261d1"/></clipPath>
  <clipPath id="z22261c2"><use href="#z22261d2"/></clipPath>
  <clipPath id="z22261c3"><use href="#z22261d3"/></clipPath>
  <clipPath id="z22261c4"><use href="#z22261d4"/></clipPath>
  <clipPath id="z22261c5"><use href="#z22261d5"/></clipPath>
  <clipPath id="z22261c6"><use href="#z22261d6"/></clipPath>
  <clipPath id="z22261c7"><use href="#z22261d7"/></clipPath>
</defs>
<path style="--d:1s;" pathLength="3333" clip-path="url(#z22261c1)" d="M 204 737 L 233 704 L 244 624 L 240 386 L 212 100 L 216 33"/>
<path style="--d:2s;" pathLength="3333" clip-path="url(#z22261c2)" d="M 267 718 L 288 703 L 489 735 L 724 761 L 751 754 L 782 726 L 790 710 L 790 487 L 806 126 L 792 59 L 800 -9"/>
<path style="--d:3s;" pathLength="3333" clip-path="url(#z22261c3)" d="M 479 674 L 496 653 L 502 631 L 461 559 L 360 436 L 318 393 L 306 390 L 279 364"/>
<path style="--d:4s;" pathLength="3333" clip-path="url(#z22261c4)" d="M 523 596 L 522 582 L 540 563 L 663 452 L 754 430"/>
<path style="--d:5s;" pathLength="3333" clip-path="url(#z22261c5)" d="M 555 418 L 561 406 L 559 386 L 442 316 L 432 318 L 428 309"/>
<path style="--d:6s;" pathLength="3333" clip-path="url(#z22261c6)" d="M 377 419 L 406 383 L 399 309 L 407 228 L 422 205 L 441 194 L 504 185 L 558 186 L 617 196 L 645 207 L 656 216 L 657 231 L 651 318"/>
<path style="--d:7s;" pathLength="3333" clip-path="url(#z22261c7)" d="M 244 50 L 265 61 L 367 71 L 689 96 L 751 92"/>
</svg>