<svg id="z26547" class="acjk" viewBox="0 0 1024 1024" xmlns="http://www.w3.org/2000/svg">
  <path id="z26547d1" d="M 333 521 Q 429 549 432 551 Q 441 560 436 568 Q 429 580 398 586 Q 350 592 333 575 L 290 560 Q 269 556 248 548 Q 196 535 136 526 Q 99 519 127 503 Q 166 482 237 499 Q 256 505 279 508 L 333 521 Z"/>
  <path id="z26547d2" d="M 331 434 Q 331 476 333 521 L 333 575 Q 333 576 334 577 Q 335 677 354 744 Q 364 759 360 773 Q 353 783 298 817 Q 274 835 253 819 Q 249 813 254 798 Q 288 749 288 698 Q 288 634 290 560 L 285 389 Q 281 194 269 134 Q 245 41 265 -2 Q 266 -9 271 -18 Q 278 -36 286 -39 Q 292 -46 300 -37 Q 307 -33 318 -12 Q 328 13 327 45 Q 326 87 331 398 L 331 434 Z"/>
  <path id="z26547d3" d="M 279 508 Q 252 427 212 355 Q 172 282 73 150 Q 67 140 80 139 Q 87 138 96 148 Q 210 242 285 389 C 363 540 289 536 279 508 Z"/>
  <path id="z26547d4" d="M 331 398 Q 400 334 418 332 Q 431 332 436 350 Q 437 363 427 382 Q 405 418 331 434 C 302 441 309 418 331 398 Z"/>
  <path id="z26547d5" d="M 530 571 Q 517 578 474 584 Q 461 587 457 581 Q 450 574 461 556 Q 500 486 526 366 Q 532 330 553 308 Q 575 284 579 302 Q 580 309 582 317 L 580 357 Q 568 408 539 535 C 532 564 531 571 530 571 Z"/>
  <path id="z26547d6" d="M 804 388 Q 834 511 875 544 Q 894 566 877 587 Q 790 650 734 622 Q 641 588 530 571 C 500 566 510 527 539 535 Q 743 589 762 572 Q 774 560 771 536 Q 759 454 741 392 C 733 363 797 359 804 388 Z"/>
  <path id="z26547d7" d="M 582 317 Q 594 329 818 349 Q 831 350 832 361 Q 832 370 804 388 C 783 402 770 399 741 392 Q 653 370 580 357 C 550 352 555 304 582 317 Z"/>
  <path id="z26547d8" d="M 542 237 Q 532 170 377 33 Q 355 17 384 21 Q 448 27 572 150 Q 575 156 620 201 Q 630 214 628 224 Q 625 239 597 246 Q 566 256 553 253 Q 546 252 542 237 Z"/>
  <path id="z26547d9" d="M 748 208 Q 809 141 881 46 Q 897 21 914 15 Q 924 12 933 23 Q 949 36 939 87 Q 930 153 752 243 Q 743 250 739 236 Q 738 221 748 208 Z"/>
<defs>
  <clipPath id="z26547c1"><use href="#z26547d1"/></clipPath>
  <clipPath id="z26547c2"><use href="#z26547d2"/></clipPath>
  <clipPath id="z26547c3"><use href="#z26547d3"/></clipPath>
  <clipPath id="z26547c4"><use href="#z26547d4"/></clipPath>
  <clipPath id="z26547c5"><use href="#z26547d5"/></clipPath>
  <clipPath id="z26547c6"><use href="#z26547d6"/></clipPath>
  <clipPath id="z26547c7"><use href="#z26547d7"/></clipPath>
  <clipPath id="z26547c8"><use href="#z26547d8"/></clipPath>
  <clipPath id="z26547c9"><use href="#z26547d9"/></clipPath>
</defs>
<path style="--d:1s;" pathLength="3333" clip-path="url(#z26547c1)" d="M 128 516 L 150 511 L 205 515 L 373 561 L 427 560"/>
<path style="--d:2s;" pathLength="3333" clip-path="url(#z26547c2)" d="M 265 812 L 308 771 L 318 747 L 305 224 L 292 81 L 291 -25"/>
<path style="--d:3s;" pathLength="3333" clip-path="url(#z26547c3)" d="M 285 503 L 280 499 L 262 397 L 222 324 L 144 215 L 82 148"/>
<path style="--d:4s;" pathLength="3333" clip-path="url(#z26547c4)" d="M 340 428 L 354 404 L 396 377 L 419 346"/>
<path style="--d:5s;" pathLength="3333" clip-path="url(#z26547c5)" d="M 466 574 L 503 545 L 567 308"/>
<path style="--d:6s;" pathLength="3333" clip-path="url(#z26547c6)" d="M 539 567 L 550 557 L 574 560 L 753 602 L 776 600 L 805 582 L 821 562 L 783 428 L 749 396"/>
<path style="--d:7s;" pathLength="3333" clip-path="url(#z26547c7)" d="M 585 325 L 599 342 L 739 367 L 795 368 L 822 361"/>
<path style="--d:8s;" pathLength="3333" clip-path="url(#z26547c8)" d="M 610 220 L 576 212 L 543 163 L 488 105 L 441 64 L 387 31"/>
<path style="--d:9s;" pathLength="3333" clip-path="url(#z26547c9)" d="M 751 230 L 848 146 L 889 102 L 906 72 L 918 32"/>
</svg>