<svg id="z29071" class="acjk" viewBox="0 0 1024 1024" xmlns="http://www.w3.org/2000/svg">
  <path id="z29071d1" d="M 496 758 Q 592 788 628 791 Q 646 791 650 798 Q 654 808 644 820 Q 625 838 582 859 Q 569 868 555 868 Q 536 840 512 819 Q 418 768 318 736 Q 312 727 318 724 Q 330 721 431 743 Q 441 746 454 747 L 496 758 Z"/>
  <path id="z29071d2" d="M 522 636 Q 643 651 815 653 Q 891 650 899 662 Q 905 672 888 686 Q 833 728 772 709 Q 672 690 523 665 L 478 658 Q 318 639 132 613 Q 111 612 127 595 Q 140 582 158 577 Q 177 571 194 576 Q 342 621 479 631 L 522 636 Z"/>
  <path id="z29071d3" d="M 300 545 Q 290 549 264 551 Q 252 554 249 548 Q 243 542 252 526 Q 286 465 311 361 Q 315 330 335 310 Q 354 289 359 306 Q 360 310 361 317 L 360 340 Q 359 356 354 374 Q 330 471 323 508 C 317 537 317 540 300 545 Z"/>
  <path id="z29071d4" d="M 644 356 Q 644 353 646 348 Q 650 332 664 333 Q 677 334 686 348 Q 699 363 725 439 Q 744 491 782 522 Q 801 538 786 555 Q 767 573 716 601 Q 701 611 622 595 Q 607 595 520 581 L 478 574 Q 448 570 421 564 Q 349 551 300 545 C 270 541 294 502 323 508 Q 327 508 334 509 Q 386 525 478 538 L 520 544 Q 658 568 684 554 Q 694 548 687 518 Q 660 406 646 377 C 641 364 641 364 644 356 Z"/>
  <path id="z29071d5" d="M 376 449 Q 400 398 419 387 Q 428 383 437 389 Q 443 396 444 408 Q 444 441 391 472 Q 381 478 374 477 Q 370 477 369 469 Q 368 462 376 449 Z"/>
  <path id="z29071d6" d="M 587 488 Q 571 463 536 422 Q 532 416 535 412 Q 541 411 547 413 Q 611 456 642 471 Q 655 475 653 483 Q 649 495 634 509 Q 621 524 603 525 Q 593 525 592 511 Q 593 501 587 488 Z"/>
  <path id="z29071d7" d="M 516 337 Q 582 349 640 356 Q 641 357 644 356 C 674 358 672 362 646 377 Q 622 398 517 371 L 475 362 Q 414 352 360 340 C 331 334 331 322 361 317 Q 371 314 393 317 Q 435 324 475 330 L 516 337 Z"/>
  <path id="z29071d8" d="M 514 190 Q 514 218 514 247 L 515 289 Q 515 314 516 337 L 517 371 Q 518 462 520 544 L 520 581 Q 521 609 522 636 L 523 665 Q 524 690 525 708 Q 532 727 523 736 Q 510 749 496 758 C 472 776 441 774 454 747 Q 461 731 470 717 Q 477 695 478 658 L 479 631 Q 479 612 478 574 L 478 538 Q 477 471 475 362 L 475 330 Q 474 306 473 280 L 472 241 Q 472 216 472 185 C 472 155 514 160 514 190 Z"/>
  <path id="z29071d9" d="M 514 247 Q 575 257 629 263 Q 654 266 645 280 Q 635 296 608 301 Q 577 307 515 289 L 473 280 Q 416 270 368 258 Q 350 254 371 238 Q 384 228 410 232 Q 441 238 472 241 L 514 247 Z"/>
  <path id="z29071d10" d="M 472 185 Q 370 176 252 164 Q 233 163 246 146 Q 276 119 308 127 Q 516 176 751 157 Q 769 157 774 164 Q 778 174 764 188 Q 719 222 667 214 Q 606 204 514 190 L 472 185 Z"/>
  <path id="z29071d11" d="M 184 92 Q 159 37 126 -12 Q 104 -42 121 -75 Q 128 -93 149 -81 Q 198 -45 207 36 Q 213 67 207 91 Q 203 100 196 101 Q 189 100 184 92 Z"/>
  <path id="z29071d12" d="M 333 52 Q 354 21 376 -18 Q 383 -31 395 -33 Q 402 -36 409 -27 Q 416 -17 417 7 Q 417 37 340 89 Q 330 95 324 94 Q 320 93 318 83 Q 318 73 333 52 Z"/>
  <path id="z29071d13" d="M 513 68 Q 534 40 555 9 Q 564 -4 577 -8 Q 587 -9 593 1 Q 600 13 598 39 Q 595 69 519 110 Q 506 116 500 115 Q 496 112 494 101 Q 495 91 513 68 Z"/>
  <path id="z29071d14" d="M 699 87 Q 753 38 817 -32 Q 835 -54 851 -59 Q 861 -60 869 -49 Q 882 -34 868 13 Q 858 58 785 88 Q 779 94 700 121 Q 690 127 688 113 Q 687 98 699 87 Z"/>
<defs>
  <clipPath id="z29071c1"><use href="#z29071d1"/></clipPath>
  <clipPath id="z29071c2"><use href="#z29071d2"/></clipPath>
  <clipPath id="z29071c3"><use href="#z29071d3"/></clipPath>
  <clipPath id="z29071c4"><use href="#z29071d4"/></clipPath>
  <clipPath id="z29071c5"><use href="#z29071d5"/></clipPath>
  <clipPath id="z29071c6"><use href="#z29071d6"/></clipPath>
  <clipPath id="z29071c7"><use href="#z29071d7"/></clipPath>
  <clipPath id="z29071c8"><use href="#z29071d8"/></clipPath>
  <clipPath id="z29071c9"><use href="#z29071d9"/></clipPath>
  <clipPath id="z29071c10"><use href="#z29071d10"/></clipPath>
  <clipPath id="z29071c11"><use href="#z29071d11"/></clipPath>
  <clipPath id="z29071c12"><use href="#z29071d12"/></clipPath>
  <clipPath id="z29071c13"><use href="#z29071d13"/></clipPath>
  <clipPath id="z29071c14"><use href="#z29071d14"/></clipPath>
</defs>
<path style="--d:1s;" pathLength="3333" clip-path="url(#z29071c1)" d="M 640 804 L 573 821 L 499 783 L 394 747 L 321 730"/>
<path style="--d:2s;" pathLength="3333" clip-path="url(#z29071c2)" d="M 129 604 L 184 597 L 367 631 L 798 684 L 843 681 L 891 668"/>
<path style="--d:3s;" pathLength="3333" clip-path="url(#z29071c3)" d="M 258 541 L 282 524 L 297 498 L 347 311"/>
<path style="--d:4s;" pathLength="3333" clip-path="url(#z29071c4)" d="M 307 541 L 336 530 L 637 580 L 702 576 L 734 538 L 662 349"/>
<path style="--d:5s;" pathLength="3333" clip-path="url(#z29071c5)" d="M 377 469 L 402 442 L 428 400"/>
<path style="--d:6s;" pathLength="3333" clip-path="url(#z29071c6)" d="M 604 513 L 614 486 L 541 416"/>
<path style="--d:7s;" pathLength="3333" clip-path="url(#z29071c7)" d="M 366 323 L 383 331 L 553 362 L 624 370 L 642 361"/>
<path style="--d:8s;" pathLength="3333" clip-path="url(#z29071c8)" d="M 462 744 L 494 728 L 501 674 L 494 225 L 491 206 L 478 193"/>
<path style="--d:9s;" pathLength="3333" clip-path="url(#z29071c9)" d="M 369 248 L 401 247 L 590 281 L 634 274"/>
<path style="--d:10s;" pathLength="3333" clip-path="url(#z29071c10)" d="M 250 155 L 291 146 L 495 173 L 665 188 L 722 184 L 765 169"/>
<path style="--d:11s;" pathLength="3333" clip-path="url(#z29071c11)" d="M 195 89 L 182 31 L 145 -42 L 137 -70"/>
<path style="--d:12s;" pathLength="3333" clip-path="url(#z29071c12)" d="M 327 85 L 383 21 L 396 -16"/>
<path style="--d:13s;" pathLength="3333" clip-path="url(#z29071c13)" d="M 503 105 L 559 52 L 579 8"/>
<path style="--d:14s;" pathLength="3333" clip-path="url(#z29071c14)" d="M 700 108 L 796 44 L 823 19 L 846 -20 L 852 -42"/>
</svg>