<svg id="z28431" class="acjk" viewBox="0 0 1024 1024" xmlns="http://www.w3.org/2000/svg">
  <path id="z28431d1" d="M 231 722 Q 253 700 279 675 Q 292 662 309 663 Q 319 663 325 677 Q 329 692 321 721 Q 312 749 226 770 Q 210 774 204 771 Q 200 767 200 754 Q 204 744 231 722 Z"/>
  <path id="z28431d2" d="M 150 542 Q 189 496 220 482 Q 235 479 243 493 Q 249 505 246 521 Q 240 545 223 557 Q 160 591 137 580 Q 131 579 134 567 Q 135 555 150 542 Z"/>
  <path id="z28431d3" d="M 133 243 Q 121 240 122 224 Q 129 151 161 130 Q 167 123 177 125 Q 184 126 188 150 Q 200 205 307 421 Q 314 436 314 442 Q 314 452 305 446 Q 295 442 173 279 Q 160 260 133 243 Z"/>
  <path id="z28431d4" d="M 748 658 Q 770 709 798 723 Q 814 741 800 759 Q 724 822 674 788 Q 575 754 481 738 C 451 733 463 703 493 707 Q 506 708 523 713 Q 602 731 679 748 Q 698 752 707 745 Q 716 733 694 660 C 686 631 736 631 748 658 Z"/>
  <path id="z28431d5" d="M 467 587 Q 471 583 478 581 Q 488 578 500 582 Q 582 604 761 627 Q 771 628 772 637 Q 772 644 748 658 C 729 670 723 668 694 660 Q 570 626 471 610 C 441 605 441 603 467 587 Z"/>
  <path id="z28431d6" d="M 418 375 Q 448 456 467 587 L 471 610 Q 475 637 480 661 Q 486 695 493 707 C 499 725 499 725 481 738 Q 468 750 447 760 Q 429 772 416 768 Q 404 761 410 747 Q 428 714 423 657 Q 420 639 418 619 Q 400 441 344 308 Q 299 208 204 74 Q 198 67 196 62 Q 193 52 204 53 Q 244 59 337 197 Q 349 218 361 239 Q 383 284 403 334 L 418 375 Z"/>
  <path id="z28431d7" d="M 632 479 Q 791 515 799 522 Q 808 529 803 537 Q 796 547 770 554 Q 745 558 636 522 Q 528 501 508 498 Q 474 492 499 477 Q 533 459 587 468 L 632 479 Z"/>
  <path id="z28431d8" d="M 445 365 Q 444 366 443 366 Q 430 373 418 375 C 389 382 382 356 403 334 Q 404 333 409 330 Q 430 234 399 142 Q 377 109 408 65 L 410 63 Q 416 51 425 57 Q 452 81 453 195 Q 454 297 458 327 C 461 357 461 357 445 365 Z"/>
  <path id="z28431d9" d="M 655 377 Q 722 389 806 394 Q 825 393 834 383 Q 840 376 836 362 Q 837 128 822 95 Q 819 85 807 88 Q 776 92 743 99 Q 716 100 736 84 Q 805 35 834 -2 Q 849 -18 863 -4 Q 882 15 890 48 Q 900 82 893 262 Q 889 329 908 364 Q 921 383 915 391 Q 908 403 860 432 Q 842 445 828 439 Q 801 429 753 419 Q 698 412 656 405 L 604 397 Q 537 387 503 377 Q 472 370 445 365 C 416 359 430 316 458 327 Q 457 328 459 328 Q 507 347 597 367 Q 600 368 605 368 L 655 377 Z"/>
  <path id="z28431d10" d="M 609 88 Q 613 66 619 58 Q 623 52 630 55 Q 637 58 641 70 Q 654 115 653 204 Q 652 241 655 377 L 656 405 Q 657 414 658 419 Q 661 432 663 443 Q 666 458 654 466 Q 641 475 632 479 C 606 493 573 494 587 468 Q 602 447 604 397 L 605 368 Q 606 298 606 200 Q 606 116 609 88 Z"/>
  <path id="z28431d11" d="M 497 277 Q 543 238 563 239 Q 573 240 574 254 Q 574 264 564 277 Q 543 298 496 297 Q 489 297 490 288 Q 490 282 497 277 Z"/>
  <path id="z28431d12" d="M 489 183 Q 537 138 558 140 Q 568 140 571 155 Q 571 165 561 180 Q 546 198 489 205 Q 482 205 482 196 Q 482 189 489 183 Z"/>
  <path id="z28431d13" d="M 693 306 Q 741 258 761 260 Q 771 260 775 276 Q 775 286 765 302 Q 750 321 694 329 Q 687 329 686 319 Q 686 312 693 306 Z"/>
  <path id="z28431d14" d="M 688 198 Q 739 147 756 148 Q 768 148 772 164 Q 772 174 763 191 Q 742 215 690 220 Q 683 221 682 211 Q 681 204 688 198 Z"/>
<defs>
  <clipPath id="z28431c1"><use href="#z28431d1"/></clipPath>
  <clipPath id="z28431c2"><use href="#z28431d2"/></clipPath>
  <clipPath id="z28431c3"><use href="#z28431d3"/></clipPath>
  <clipPath id="z28431c4"><use href="#z28431d4"/></clipPath>
  <clipPath id="z28431c5"><use href="#z28431d5"/></clipPath>
  <clipPath id="z28431c6"><use href="#z28431d6"/></clipPath>
  <clipPath id="z28431c7"><use href="#z28431d7"/></clipPath>
  <clipPath id="z28431c8"><use href="#z28431d8"/></clipPath>
  <clipPath id="z28431c9"><use href="#z28431d9"/></clipPath>
  <clipPath id="z28431c10"><use href="#z28431d10"/></clipPath>
  <clipPath id="z28431c11"><use href="#z28431d11"/></clipPath>
  <clipPath id="z28431c12"><use href="#z28431d12"/></clipPath>
  <clipPath id="z28431c13"><use href="#z28431d13"/></clipPath>
  <clipPath id="z28431c14"><use href="#z28431d14"/></clipPath>
</defs>
<path style="--d:1s;" pathLength="3333" clip-path="url(#z28431c1)" d="M 209 765 L 290 710 L 307 681"/>
<path style="--d:2s;" pathLength="3333" clip-path="url(#z28431c2)" d="M 144 572 L 207 529 L 225 501"/>
<path style="--d:3s;" pathLength="3333" clip-path="url(#z28431c3)" d="M 173 135 L 164 165 L 165 210 L 308 440"/>
<path style="--d:4s;" pathLength="3333" clip-path="url(#z28431c4)" d="M 489 735 L 511 726 L 690 772 L 715 772 L 734 764 L 752 742 L 728 686 L 701 670"/>
<path style="--d:5s;" pathLength="3333" clip-path="url(#z28431c5)" d="M 476 591 L 700 640 L 762 637"/>
<path style="--d:6s;" pathLength="3333" clip-path="url(#z28431c6)" d="M 422 755 L 450 725 L 456 697 L 433 529 L 402 400 L 362 293 L 313 198 L 237 93 L 205 62"/>
<path style="--d:7s;" pathLength="3333" clip-path="url(#z28431c7)" d="M 501 489 L 534 484 L 576 487 L 742 529 L 792 532"/>
<path style="--d:8s;" pathLength="3333" clip-path="url(#z28431c8)" d="M 422 366 L 434 326 L 437 246 L 433 183 L 418 109 L 419 65"/>
<path style="--d:9s;" pathLength="3333" clip-path="url(#z28431c9)" d="M 453 361 L 470 351 L 579 379 L 800 412 L 838 413 L 854 404 L 874 379 L 864 322 L 862 112 L 852 66 L 845 53 L 829 55 L 736 93"/>
<path style="--d:10s;" pathLength="3333" clip-path="url(#z28431c10)" d="M 595 466 L 631 443 L 627 65"/>
<path style="--d:11s;" pathLength="3333" clip-path="url(#z28431c11)" d="M 501 287 L 540 270 L 561 252"/>
<path style="--d:12s;" pathLength="3333" clip-path="url(#z28431c12)" d="M 494 194 L 529 177 L 556 155"/>
<path style="--d:13s;" pathLength="3333" clip-path="url(#z28431c13)" d="M 698 317 L 746 290 L 759 276"/>
<path style="--d:14s;" pathLength="3333" clip-path="url(#z28431c14)" d="M 694 209 L 743 179 L 755 164"/>
</svg>