<svg id="z24840" class="acjk" viewBox="0 0 1024 1024" xmlns="http://www.w3.org/2000/svg">
  <path id="z24840d1" d="M 530 776 Q 549 800 550 802 Q 549 812 538 827 Q 525 843 505 851 Q 484 861 473 861 Q 463 860 464 846 Q 467 744 277 575 Q 273 572 270 569 Q 215 523 83 436 Q 73 432 84 428 Q 133 424 287 525 Q 396 615 514 758 L 530 776 Z"/>
  <path id="z24840d2" d="M 514 758 Q 743 529 794 519 Q 884 519 951 536 Q 970 539 971 544 Q 972 550 958 555 Q 903 574 840 592 Q 708 634 548 762 Q 538 771 530 776 C 506 794 493 779 514 758 Z"/>
  <path id="z24840d3" d="M 403 592 Q 369 585 394 570 Q 442 549 489 564 Q 534 574 580 584 Q 601 590 604 593 Q 613 600 608 609 Q 601 619 572 626 Q 548 629 468 603 Q 438 597 403 592 Z"/>
  <path id="z24840d4" d="M 318 334 Q 319 362 321 383 L 323 409 Q 324 452 328 465 Q 328 469 328 473 C 329 487 329 487 316 493 Q 292 505 279 505 Q 269 502 273 493 Q 304 424 272 311 Q 248 263 276 230 Q 280 220 289 224 Q 313 245 317 310 L 318 334 Z"/>
  <path id="z24840d5" d="M 328 473 Q 331 474 339 477 Q 412 493 425 488 Q 432 484 433 467 Q 440 364 433 285 Q 432 269 423 266 Q 416 265 379 275 Q 370 278 370 273 Q 371 266 381 259 Q 405 235 423 211 Q 433 199 444 199 Q 454 200 468 231 Q 480 256 482 312 Q 472 457 486 483 Q 495 493 484 504 Q 471 516 443 525 Q 433 529 386 512 Q 338 500 316 493 C 287 484 300 464 328 473 Z"/>
  <path id="z24840d6" d="M 321 383 Q 361 393 392 398 Q 408 402 401 411 Q 392 421 374 422 Q 358 423 328 412 Q 325 411 323 409 C 299 391 292 376 321 383 Z"/>
  <path id="z24840d7" d="M 317 310 Q 362 320 395 326 Q 411 330 405 339 Q 396 349 378 350 Q 344 353 318 334 C 293 317 288 304 317 310 Z"/>
  <path id="z24840d8" d="M 537 473 Q 555 430 544 331 Q 541 309 559 286 Q 566 279 573 287 Q 582 305 586 394 Q 583 406 589 452 Q 593 468 579 476 Q 567 483 556 489 Q 547 492 540 488 Q 534 484 537 473 Z"/>
  <path id="z24840d9" d="M 634 263 Q 619 269 599 275 Q 589 278 589 272 Q 589 266 597 258 Q 640 215 668 181 Q 678 174 689 186 Q 725 237 715 344 Q 709 392 714 487 Q 718 509 714 517 Q 707 527 676 542 Q 663 549 655 544 Q 646 537 657 520 Q 669 493 669 280 Q 663 259 641 261 Q 638 262 634 263 Z"/>
  <path id="z24840d10" d="M 267 188 Q 239 130 200 76 Q 178 45 193 9 Q 200 -9 222 2 Q 277 44 289 129 Q 296 162 290 187 Q 286 196 280 197 Q 271 196 267 188 Z"/>
  <path id="z24840d11" d="M 339 157 Q 357 58 430 8 Q 538 -61 727 -37 Q 751 -31 772 -23 Q 796 -13 798 1 Q 802 11 766 38 Q 711 90 673 142 Q 661 160 657 153 Q 653 147 671 83 Q 677 29 669 22 Q 656 16 627 15 Q 480 14 419 71 Q 391 96 379 139 Q 373 161 362 167 Q 349 174 342 171 Q 336 170 339 157 Z"/>
  <path id="z24840d12" d="M 484 162 Q 521 114 549 101 Q 562 97 571 109 Q 578 121 576 136 Q 572 158 556 171 Q 541 183 497 197 Q 482 203 473 199 Q 467 198 469 187 Q 470 177 484 162 Z"/>
  <path id="z24840d13" d="M 751 196 Q 796 162 850 109 Q 868 93 882 89 Q 891 88 897 99 Q 907 112 892 152 Q 880 189 814 209 Q 772 221 749 225 Q 740 229 739 217 Q 740 204 751 196 Z"/>
<defs>
  <clipPath id="z24840c1"><use href="#z24840d1"/></clipPath>
  <clipPath id="z24840c2"><use href="#z24840d2"/></clipPath>
  <clipPath id="z24840c3"><use href="#z24840d3"/></clipPath>
  <clipPath id="z24840c4"><use href="#z24840d4"/></clipPath>
  <clipPath id="z24840c5"><use href="#z24840d5"/></clipPath>
  <clipPath id="z24840c6"><use href="#z24840d6"/></clipPath>
  <clipPath id="z24840c7"><use href="#z24840d7"/></clipPath>
  <clipPath id="z24840c8"><use href="#z24840d8"/></clipPath>
  <clipPath id="z24840c9"><use href="#z24840d9"/></clipPath>
  <clipPath id="z24840c10"><use href="#z24840d10"/></clipPath>
  <clipPath id="z24840c11"><use href="#z24840d11"/></clipPath>
  <clipPath id="z24840c12"><use href="#z24840d12"/></clipPath>
  <clipPath id="z24840c13"><use href="#z24840d13"/></clipPath>
</defs>
<path style="--d:1s;" pathLength="3333" clip-path="url(#z24840c1)" d="M 475 850 L 501 806 L 464 743 L 403 667 L 330 592 L 247 522 L 141 457 L 88 433"/>
<path style="--d:2s;" pathLength="3333" clip-path="url(#z24840c2)" d="M 530 768 L 534 755 L 550 739 L 623 679 L 699 621 L 776 573 L 803 560 L 966 545"/>
<path style="--d:3s;" pathLength="3333" clip-path="url(#z24840c3)" d="M 396 582 L 450 578 L 561 603 L 598 603"/>
<path style="--d:4s;" pathLength="3333" clip-path="url(#z24840c4)" d="M 283 496 L 305 466 L 307 419 L 285 264 L 286 234"/>
<path style="--d:5s;" pathLength="3333" clip-path="url(#z24840c5)" d="M 322 490 L 348 489 L 420 507 L 444 502 L 458 488 L 460 323 L 453 262 L 439 240 L 375 271"/>
<path style="--d:6s;" pathLength="3333" clip-path="url(#z24840c6)" d="M 328 389 L 341 402 L 391 408"/>
<path style="--d:7s;" pathLength="3333" clip-path="url(#z24840c7)" d="M 325 316 L 331 327 L 344 332 L 397 335"/>
<path style="--d:8s;" pathLength="3333" clip-path="url(#z24840c8)" d="M 547 479 L 566 457 L 568 444 L 565 294"/>
<path style="--d:9s;" pathLength="3333" clip-path="url(#z24840c9)" d="M 662 536 L 689 504 L 691 268 L 672 231 L 639 241 L 595 270"/>
<path style="--d:10s;" pathLength="3333" clip-path="url(#z24840c10)" d="M 278 185 L 263 124 L 221 47 L 210 15"/>
<path style="--d:11s;" pathLength="3333" clip-path="url(#z24840c11)" d="M 347 163 L 394 68 L 436 30 L 507 0 L 625 -15 L 694 -5 L 720 13 L 660 150"/>
<path style="--d:12s;" pathLength="3333" clip-path="url(#z24840c12)" d="M 480 190 L 539 145 L 555 119"/>
<path style="--d:13s;" pathLength="3333" clip-path="url(#z24840c13)" d="M 750 214 L 839 165 L 860 144 L 883 104"/>
</svg>