<svg id="z26563" class="acjk" viewBox="0 0 1024 1024" xmlns="http://www.w3.org/2000/svg">
  <path id="z26563d1" d="M 313 532 Q 415 556 423 563 Q 433 572 427 580 Q 420 592 390 599 Q 351 605 314 586 L 268 571 Q 184 550 117 542 Q 80 535 107 518 Q 152 494 210 511 Q 232 517 257 520 L 313 532 Z"/>
  <path id="z26563d2" d="M 311 470 Q 312 500 313 532 L 314 586 Q 314 589 315 591 Q 316 687 334 752 Q 344 767 340 781 Q 333 791 278 825 Q 254 843 233 827 Q 229 821 234 806 Q 267 758 267 710 Q 267 644 268 571 L 265 405 Q 256 207 256 204 Q 249 161 237 117 Q 225 77 251 14 Q 258 -4 266 -7 Q 273 -14 280 -5 Q 287 -1 298 20 Q 308 45 307 77 Q 306 117 311 432 L 311 470 Z"/>
  <path id="z26563d3" d="M 257 520 Q 230 442 192 371 Q 152 298 53 166 Q 47 156 60 155 Q 67 154 76 164 Q 190 258 265 405 C 341 551 267 548 257 520 Z"/>
  <path id="z26563d4" d="M 311 432 Q 354 381 377 377 Q 390 376 397 394 Q 398 407 389 426 Q 371 453 311 470 C 282 478 292 455 311 432 Z"/>
  <path id="z26563d5" d="M 638 677 Q 662 746 674 766 Q 681 773 677 783 Q 665 808 619 816 Q 597 817 585 814 Q 576 810 581 797 Q 617 719 509 512 Q 502 502 496 489 Q 462 431 371 313 Q 364 306 375 305 Q 429 321 527 454 Q 578 533 624 643 L 638 677 Z"/>
  <path id="z26563d6" d="M 624 643 Q 696 526 789 400 Q 807 378 839 376 Q 948 372 984 374 Q 994 375 996 381 Q 997 387 983 395 Q 829 464 755 544 Q 700 604 638 677 C 619 700 608 669 624 643 Z"/>
  <path id="z26563d7" d="M 598 420 Q 617 404 640 384 Q 653 371 670 373 Q 680 374 685 388 Q 689 404 677 433 Q 668 455 590 468 Q 574 469 568 467 Q 564 463 565 450 Q 569 440 598 420 Z"/>
  <path id="z26563d8" d="M 642 104 Q 751 233 795 254 Q 816 263 808 279 Q 804 295 732 330 Q 713 340 689 330 Q 634 308 550 283 Q 528 276 474 277 Q 449 278 459 256 Q 466 243 487 231 Q 518 213 554 234 Q 572 241 663 281 Q 679 287 693 277 Q 706 267 699 251 Q 665 187 624 112 C 610 86 623 81 642 104 Z"/>
  <path id="z26563d9" d="M 624 112 Q 593 127 538 145 Q 529 149 527 137 Q 527 124 538 113 Q 593 67 660 -3 Q 676 -22 693 -27 Q 702 -28 709 -17 Q 721 -4 707 41 Q 698 78 642 104 L 624 112 Z"/>
<defs>
  <clipPath id="z26563c1"><use href="#z26563d1"/></clipPath>
  <clipPath id="z26563c2"><use href="#z26563d2"/></clipPath>
  <clipPath id="z26563c3"><use href="#z26563d3"/></clipPath>
  <clipPath id="z26563c4"><use href="#z26563d4"/></clipPath>
  <clipPath id="z26563c5"><use href="#z26563d5"/></clipPath>
  <clipPath id="z26563c6"><use href="#z26563d6"/></clipPath>
  <clipPath id="z26563c7"><use href="#z26563d7"/></clipPath>
  <clipPath id="z26563c8"><use href="#z26563d8"/></clipPath>
  <clipPath id="z26563c9"><use href="#z26563d9"/></clipPath>
</defs>
<path style="--d:1s;" pathLength="3333" clip-path="url(#z26563c1)" d="M 109 531 L 144 525 L 182 528 L 368 574 L 417 573"/>
<path style="--d:2s;" pathLength="3333" clip-path="url(#z26563c2)" d="M 245 820 L 274 796 L 297 766 L 298 741 L 291 642 L 284 237 L 270 96 L 271 7"/>
<path style="--d:3s;" pathLength="3333" clip-path="url(#z26563c3)" d="M 263 515 L 240 409 L 202 340 L 124 231 L 62 164"/>
<path style="--d:4s;" pathLength="3333" clip-path="url(#z26563c4)" d="M 319 464 L 334 438 L 365 414 L 378 394"/>
<path style="--d:5s;" pathLength="3333" clip-path="url(#z26563c5)" d="M 590 804 L 622 780 L 629 761 L 606 670 L 579 600 L 504 457 L 434 367 L 377 311"/>
<path style="--d:6s;" pathLength="3333" clip-path="url(#z26563c6)" d="M 641 669 L 643 644 L 704 563 L 742 514 L 826 427 L 871 410 L 988 381"/>
<path style="--d:7s;" pathLength="3333" clip-path="url(#z26563c7)" d="M 573 461 L 644 422 L 666 392"/>
<path style="--d:8s;" pathLength="3333" clip-path="url(#z26563c8)" d="M 469 265 L 518 250 L 679 304 L 705 305 L 727 292 L 745 274 L 730 243 L 643 118 L 632 117"/>
<path style="--d:9s;" pathLength="3333" clip-path="url(#z26563c9)" d="M 538 133 L 657 53 L 680 23 L 694 -10"/>
</svg>