<svg id="z25285" class="acjk" viewBox="0 0 1024 1024" xmlns="http://www.w3.org/2000/svg">
  <path id="z25285d1" d="M 340 534 Q 409 559 410 561 Q 417 568 412 577 Q 405 587 375 592 Q 356 593 341 589 L 290 569 Q 200 535 130 521 Q 96 512 122 498 Q 164 480 217 497 Q 251 509 290 519 L 340 534 Z"/>
  <path id="z25285d2" d="M 289 329 Q 289 239 289 125 Q 288 103 276 93 Q 267 86 244 93 Q 219 99 193 104 Q 160 114 163 104 Q 164 97 185 83 Q 252 34 270 4 Q 291 -30 307 -31 Q 320 -31 335 3 Q 353 49 350 122 Q 341 246 339 369 L 339 397 Q 338 466 340 534 L 341 589 Q 341 677 359 737 Q 375 768 320 789 Q 286 808 267 801 Q 249 794 266 771 Q 287 744 289 710 Q 290 694 290 569 L 290 519 Q 290 455 289 368 L 289 329 Z"/>
  <path id="z25285d3" d="M 289 368 Q 193 313 111 258 Q 78 239 56 231 Q 44 225 42 217 Q 42 208 56 195 Q 75 182 97 174 Q 112 170 122 182 Q 188 254 289 329 L 339 369 Q 346 376 355 381 Q 374 394 385 408 Q 391 421 380 420 Q 359 417 339 397 L 289 368 Z"/>
  <path id="z25285d4" d="M 512 581 Q 499 587 468 594 Q 455 598 451 592 Q 444 586 452 569 Q 483 490 498 365 Q 499 328 520 301 Q 538 277 543 293 Q 547 305 549 321 L 549 346 Q 548 359 546 376 Q 542 404 538 428 L 535 454 Q 525 521 524 547 C 522 577 522 577 512 581 Z"/>
  <path id="z25285d5" d="M 707 339 Q 726 309 745 301 Q 755 294 771 316 Q 787 346 816 507 Q 823 538 847 564 Q 860 577 848 591 Q 832 607 788 634 Q 772 641 695 622 Q 692 622 512 581 C 483 574 495 538 524 547 Q 582 566 715 589 Q 740 593 749 585 Q 765 567 762 550 Q 738 385 720 366 C 706 340 706 340 707 339 Z"/>
  <path id="z25285d6" d="M 538 428 Q 542 428 548 428 Q 630 443 691 451 Q 713 455 705 468 Q 695 483 669 487 Q 644 490 535 454 C 507 445 508 428 538 428 Z"/>
  <path id="z25285d7" d="M 549 321 Q 553 321 558 321 Q 642 333 707 339 C 737 342 745 350 720 366 Q 716 370 707 371 Q 686 375 549 346 C 520 340 519 321 549 321 Z"/>
  <path id="z25285d8" d="M 414 160 Q 390 159 408 139 Q 442 108 485 117 Q 611 150 900 150 Q 922 150 927 160 Q 934 173 915 188 Q 852 236 797 218 Q 688 199 414 160 Z"/>
<defs>
  <clipPath id="z25285c1"><use href="#z25285d1"/></clipPath>
  <clipPath id="z25285c2"><use href="#z25285d2"/></clipPath>
  <clipPath id="z25285c3"><use href="#z25285d3"/></clipPath>
  <clipPath id="z25285c4"><use href="#z25285d4"/></clipPath>
  <clipPath id="z25285c5"><use href="#z25285d5"/></clipPath>
  <clipPath id="z25285c6"><use href="#z25285d6"/></clipPath>
  <clipPath id="z25285c7"><use href="#z25285d7"/></clipPath>
  <clipPath id="z25285c8"><use href="#z25285d8"/></clipPath>
</defs>
<path style="--d:1s;" pathLength="3333" clip-path="url(#z25285c1)" d="M 123 510 L 160 507 L 203 515 L 351 565 L 403 569"/>
<path style="--d:2s;" pathLength="3333" clip-path="url(#z25285c2)" d="M 274 786 L 290 778 L 322 746 L 314 607 L 319 112 L 314 81 L 297 49 L 251 63 L 182 96 L 180 102 L 170 102"/>
<path style="--d:3s;" pathLength="3333" clip-path="url(#z25285c3)" d="M 53 215 L 101 211 L 178 273 L 375 411"/>
<path style="--d:4s;" pathLength="3333" clip-path="url(#z25285c4)" d="M 460 584 L 488 558 L 497 529 L 532 299"/>
<path style="--d:5s;" pathLength="3333" clip-path="url(#z25285c5)" d="M 527 554 L 535 570 L 711 609 L 766 608 L 791 589 L 802 575 L 762 386 L 746 342 L 723 340"/>
<path style="--d:6s;" pathLength="3333" clip-path="url(#z25285c6)" d="M 543 435 L 573 451 L 627 462 L 660 467 L 695 462"/>
<path style="--d:7s;" pathLength="3333" clip-path="url(#z25285c7)" d="M 554 327 L 590 342 L 697 354 L 711 362"/>
<path style="--d:8s;" pathLength="3333" clip-path="url(#z25285c8)" d="M 410 150 L 465 141 L 585 161 L 822 186 L 878 179 L 913 167"/>
</svg>