<svg id="z23379" class="acjk" viewBox="0 0 1024 1024" xmlns="http://www.w3.org/2000/svg">
  <path id="z23379d1" d="M 536 548 Q 573 570 653 632 Q 690 663 715 670 Q 757 682 760 700 Q 763 710 724 754 Q 688 794 675 792 Q 671 796 657 790 Q 612 772 328 728 Q 285 725 261 730 Q 242 737 233 723 Q 229 716 238 703 Q 248 687 276 668 Q 298 650 310 650 Q 322 649 344 663 Q 404 705 613 740 Q 644 746 649 743 Q 655 739 654 731 Q 653 719 530 576 Q 523 569 518 563 C 498 541 511 532 536 548 Z"/>
  <path id="z23379d2" d="M 518 563 Q 467 600 447 606 Q 435 609 436 588 Q 437 572 457 556 Q 506 514 519 423 Q 525 366 526 318 L 527 269 Q 524 116 500 89 Q 490 76 461 83 Q 419 90 369 99 Q 350 103 351 96 Q 418 39 488 -18 Q 491 -22 496 -29 Q 505 -39 516 -33 Q 529 -26 556 14 Q 578 54 580 106 Q 581 173 581 233 L 580 288 Q 571 501 543 540 Q 539 544 536 548 L 518 563 Z"/>
  <path id="z23379d3" d="M 526 318 Q 463 355 401 401 Q 275 497 215 487 Q 208 487 201 484 Q 191 480 197 470 Q 203 461 214 461 Q 266 458 327 418 Q 361 396 398 369 Q 461 315 527 269 L 581 233 Q 590 229 599 222 Q 726 140 765 136 Q 831 136 956 165 Q 968 171 971 179 Q 974 188 953 189 Q 878 205 795 214 Q 696 229 580 288 L 526 318 Z"/>
<defs>
  <clipPath id="z23379c1"><use href="#z23379d1"/></clipPath>
  <clipPath id="z23379c2"><use href="#z23379d2"/></clipPath>
  <clipPath id="z23379c3"><use href="#z23379d3"/></clipPath>
</defs>
<path style="--d:1s;" pathLength="3333" clip-path="url(#z23379c1)" d="M 246 718 L 312 689 L 419 722 L 522 743 L 640 764 L 673 762 L 698 714 L 541 567 L 525 562"/>
<path style="--d:2s;" pathLength="3333" clip-path="url(#z23379c2)" d="M 446 594 L 514 531 L 539 461 L 554 300 L 545 100 L 531 61 L 507 33 L 358 93"/>
<path style="--d:3s;" pathLength="3333" clip-path="url(#z23379c3)" d="M 208 474 L 260 468 L 315 443 L 566 269 L 698 201 L 758 179 L 790 175 L 962 179"/>
</svg>