<svg id="z25115" class="acjk" viewBox="0 0 1024 1024" xmlns="http://www.w3.org/2000/svg">
  <path id="z25115d1" d="M 495 759 Q 561 768 746 782 Q 756 781 767 793 Q 768 805 746 817 Q 706 841 637 823 Q 474 799 313 785 Q 289 785 266 782 Q 236 781 258 760 Q 283 739 328 737 Q 380 746 444 753 L 495 759 Z"/>
  <path id="z25115d2" d="M 442 671 Q 482 711 504 728 Q 517 735 512 743 Q 506 752 495 759 C 470 776 445 783 444 753 Q 445 738 418 668 C 407 640 421 650 442 671 Z"/>
  <path id="z25115d3" d="M 389 666 Q 379 676 356 685 Q 347 689 337 685 Q 331 681 336 670 Q 364 570 343 475 Q 331 427 363 389 Q 373 377 382 388 Q 386 394 388 400 L 392 425 Q 393 443 394 480 L 394 500 Q 394 534 395 560 L 395 581 Q 396 626 398 631 Q 398 635 398 638 C 399 658 399 658 389 666 Z"/>
  <path id="z25115d4" d="M 607 423 Q 608 419 613 412 Q 626 385 634 386 Q 647 387 662 417 Q 675 441 674 459 Q 659 604 685 646 Q 694 661 681 676 Q 657 695 618 713 Q 603 717 581 710 Q 557 701 442 671 L 418 668 Q 402 668 389 666 C 359 663 368 633 398 638 Q 401 638 501 657 Q 583 676 601 663 Q 608 648 612 605 Q 615 478 608 453 L 607 423 Z"/>
  <path id="z25115d5" d="M 395 560 Q 402 559 414 560 Q 493 573 552 582 Q 573 586 565 597 Q 555 610 533 614 Q 506 617 395 581 C 366 572 365 562 395 560 Z"/>
  <path id="z25115d6" d="M 414 479 Q 496 492 555 499 Q 576 502 569 513 Q 559 526 537 531 Q 509 535 394 500 C 365 491 365 488 394 480 Q 401 477 414 479 Z"/>
  <path id="z25115d7" d="M 388 400 Q 395 399 409 400 Q 521 416 607 423 C 637 425 637 447 608 453 Q 587 462 411 428 Q 401 428 392 425 C 363 417 358 402 388 400 Z"/>
  <path id="z25115d8" d="M 516 270 Q 580 289 661 304 Q 679 307 679 315 Q 680 330 659 338 Q 629 348 605 341 Q 545 325 499 309 L 445 293 Q 282 251 207 238 Q 194 237 191 227 Q 188 215 205 204 Q 248 177 293 194 Q 443 255 467 256 L 516 270 Z"/>
  <path id="z25115d9" d="M 583 101 Q 689 -10 797 -38 Q 872 -60 886 -42 Q 902 -30 888 1 Q 879 32 871 143 Q 871 162 866 166 Q 862 167 857 149 Q 818 37 789 36 Q 701 51 624 127 L 588 165 Q 537 228 516 270 L 499 309 Q 492 331 490 346 Q 489 371 443 377 Q 406 381 392 372 Q 376 363 395 344 Q 425 323 445 293 L 467 256 Q 507 195 551 138 L 583 101 Z"/>
  <path id="z25115d10" d="M 551 138 Q 454 71 257 3 Q 247 2 257 -6 Q 284 -13 391 12 Q 394 13 398 14 Q 488 39 583 101 L 624 127 Q 729 205 744 210 Q 753 213 755 223 Q 758 253 725 280 Q 709 293 697 296 Q 687 297 685 285 Q 673 239 588 165 L 551 138 Z"/>
  <path id="z25115d11" d="M 733 384 Q 763 359 794 328 Q 807 315 822 316 Q 832 316 837 329 Q 841 342 833 371 Q 829 392 796 408 Q 720 436 708 431 Q 704 427 704 415 Q 708 405 733 384 Z"/>
<defs>
  <clipPath id="z25115c1"><use href="#z25115d1"/></clipPath>
  <clipPath id="z25115c2"><use href="#z25115d2"/></clipPath>
  <clipPath id="z25115c3"><use href="#z25115d3"/></clipPath>
  <clipPath id="z25115c4"><use href="#z25115d4"/></clipPath>
  <clipPath id="z25115c5"><use href="#z25115d5"/></clipPath>
  <clipPath id="z25115c6"><use href="#z25115d6"/></clipPath>
  <clipPath id="z25115c7"><use href="#z25115d7"/></clipPath>
  <clipPath id="z25115c8"><use href="#z25115d8"/></clipPath>
  <clipPath id="z25115c9"><use href="#z25115d9"/></clipPath>
  <clipPath id="z25115c10"><use href="#z25115d10"/></clipPath>
  <clipPath id="z25115c11"><use href="#z25115d11"/></clipPath>
</defs>
<path style="--d:1s;" pathLength="3333" clip-path="url(#z25115c1)" d="M 260 772 L 322 761 L 684 804 L 756 796"/>
<path style="--d:2s;" pathLength="3333" clip-path="url(#z25115c2)" d="M 502 738 L 488 739 L 466 728 L 440 686 L 423 679"/>
<path style="--d:3s;" pathLength="3333" clip-path="url(#z25115c3)" d="M 344 677 L 364 656 L 371 633 L 374 554 L 366 440 L 373 394"/>
<path style="--d:4s;" pathLength="3333" clip-path="url(#z25115c4)" d="M 398 646 L 411 655 L 477 668 L 486 665 L 568 687 L 603 690 L 627 677 L 645 654 L 640 593 L 643 468 L 635 396"/>
<path style="--d:5s;" pathLength="3333" clip-path="url(#z25115c5)" d="M 399 565 L 433 580 L 489 591 L 535 597 L 556 592"/>
<path style="--d:6s;" pathLength="3333" clip-path="url(#z25115c6)" d="M 399 485 L 430 498 L 509 512 L 560 509"/>
<path style="--d:7s;" pathLength="3333" clip-path="url(#z25115c7)" d="M 393 406 L 426 420 L 585 437 L 604 446"/>
<path style="--d:8s;" pathLength="3333" clip-path="url(#z25115c8)" d="M 204 223 L 267 218 L 601 316 L 624 321 L 667 318"/>
<path style="--d:9s;" pathLength="3333" clip-path="url(#z25115c9)" d="M 400 359 L 455 338 L 506 239 L 606 110 L 658 64 L 750 12 L 788 1 L 836 4 L 866 161"/>
<path style="--d:10s;" pathLength="3333" clip-path="url(#z25115c10)" d="M 696 285 L 709 238 L 619 155 L 549 107 L 479 69 L 376 26 L 261 -1"/>
<path style="--d:11s;" pathLength="3333" clip-path="url(#z25115c11)" d="M 712 425 L 796 371 L 821 332"/>
</svg>