<svg id="z20634" class="acjk" viewBox="0 0 1024 1024" xmlns="http://www.w3.org/2000/svg">
  <path id="z20634d1" d="M 184 504 Q 229 571 277 665 Q 299 714 320 739 Q 329 751 323 765 Q 317 778 286 799 Q 256 815 236 813 Q 217 809 228 787 Q 244 757 235 730 Q 186 573 48 373 Q 38 361 37 354 Q 34 342 49 347 Q 76 353 158 466 L 184 504 Z"/>
  <path id="z20634d2" d="M 158 466 Q 176 430 176 347 Q 175 338 175 328 Q 175 222 148 115 Q 136 64 170 25 Q 171 22 174 20 Q 190 4 202 30 Q 217 70 216 115 Q 216 370 224 427 Q 231 454 222 464 Q 186 503 184 504 C 163 525 147 494 158 466 Z"/>
  <path id="z20634d3" d="M 403 730 Q 440 675 468 662 Q 481 658 491 669 Q 498 679 497 696 Q 488 733 417 764 Q 404 770 394 767 Q 388 767 389 755 Q 390 745 403 730 Z"/>
  <path id="z20634d4" d="M 306 563 Q 273 556 298 541 Q 340 520 388 537 Q 464 556 543 578 Q 579 588 584 594 Q 591 601 587 609 Q 580 619 553 625 Q 525 629 499 616 Q 459 600 414 586 Q 365 571 306 563 Z"/>
  <path id="z20634d5" d="M 338 444 Q 320 405 282 343 Q 278 336 283 331 Q 290 331 296 336 Q 366 408 402 437 Q 417 443 412 452 Q 405 465 386 477 Q 367 490 348 489 Q 336 486 339 470 Q 343 460 338 444 Z"/>
  <path id="z20634d6" d="M 476 502 Q 501 477 534 441 Q 544 428 554 424 Q 560 423 564 430 Q 573 439 565 467 Q 562 482 551 493 Q 538 502 477 523 Q 471 527 470 518 Q 469 509 476 502 Z"/>
  <path id="z20634d7" d="M 467 261 Q 482 292 497 330 Q 507 352 519 373 Q 526 380 521 389 Q 515 398 490 412 Q 471 422 464 420 Q 452 416 454 404 Q 458 350 430 283 L 413 250 Q 371 175 259 83 Q 253 76 259 74 Q 286 68 369 135 Q 405 163 444 220 L 467 261 Z"/>
  <path id="z20634d8" d="M 444 220 Q 466 199 490 173 Q 502 158 513 155 Q 519 155 525 162 Q 534 172 524 203 Q 517 233 467 261 L 430 283 Q 387 308 362 319 Q 355 323 354 314 Q 354 307 413 250 L 444 220 Z"/>
  <path id="z20634d9" d="M 654 518 Q 694 582 730 684 Q 739 717 750 734 Q 757 746 749 757 Q 742 767 711 781 Q 683 791 666 787 Q 650 781 662 763 Q 687 732 649 607 Q 631 549 603 482 Q 596 470 596 464 Q 595 454 607 459 Q 617 463 635 489 Q 636 493 641 497 L 654 518 Z"/>
  <path id="z20634d10" d="M 754 495 Q 883 526 888 530 Q 895 537 891 545 Q 884 555 857 562 Q 829 566 803 554 Q 770 542 736 533 Q 699 524 654 518 C 624 514 613 508 641 497 L 642 497 Q 672 482 706 485 L 754 495 Z"/>
  <path id="z20634d11" d="M 724 234 Q 749 280 760 333 Q 775 417 793 447 Q 803 465 787 474 Q 772 486 754 495 C 728 510 697 513 706 485 Q 718 460 714 399 Q 711 345 688 279 L 671 239 Q 619 146 504 72 Q 491 63 503 60 Q 554 56 638 123 Q 678 157 701 193 L 724 234 Z"/>
  <path id="z20634d12" d="M 701 193 Q 747 123 790 66 Q 803 47 830 45 Q 968 39 978 50 Q 982 56 972 60 Q 825 126 754 201 Q 739 217 724 234 L 688 279 Q 657 319 624 365 Q 614 383 598 386 Q 574 389 567 381 Q 564 377 571 371 Q 604 349 622 316 Q 647 276 671 239 L 701 193 Z"/>
<defs>
  <clipPath id="z20634c1"><use href="#z20634d1"/></clipPath>
  <clipPath id="z20634c2"><use href="#z20634d2"/></clipPath>
  <clipPath id="z20634c3"><use href="#z20634d3"/></clipPath>
  <clipPath id="z20634c4"><use href="#z20634d4"/></clipPath>
  <clipPath id="z20634c5"><use href="#z20634d5"/></clipPath>
  <clipPath id="z20634c6"><use href="#z20634d6"/></clipPath>
  <clipPath id="z20634c7"><use href="#z20634d7"/></clipPath>
  <clipPath id="z20634c8"><use href="#z20634d8"/></clipPath>
  <clipPath id="z20634c9"><use href="#z20634d9"/></clipPath>
  <clipPath id="z20634c10"><use href="#z20634d10"/></clipPath>
  <clipPath id="z20634c11"><use href="#z20634d11"/></clipPath>
  <clipPath id="z20634c12"><use href="#z20634d12"/></clipPath>
</defs>
<path style="--d:1s;" pathLength="3333" clip-path="url(#z20634c1)" d="M 238 798 L 257 785 L 278 751 L 247 671 L 136 467 L 46 355"/>
<path style="--d:2s;" pathLength="3333" clip-path="url(#z20634c2)" d="M 181 497 L 198 440 L 197 296 L 180 90 L 186 30"/>
<path style="--d:3s;" pathLength="3333" clip-path="url(#z20634c3)" d="M 400 757 L 467 697 L 475 682"/>
<path style="--d:4s;" pathLength="3333" clip-path="url(#z20634c4)" d="M 299 553 L 323 548 L 361 551 L 529 600 L 576 603"/>
<path style="--d:5s;" pathLength="3333" clip-path="url(#z20634c5)" d="M 352 476 L 370 450 L 288 337"/>
<path style="--d:6s;" pathLength="3333" clip-path="url(#z20634c6)" d="M 478 515 L 537 473 L 554 435"/>
<path style="--d:7s;" pathLength="3333" clip-path="url(#z20634c7)" d="M 467 407 L 486 378 L 457 289 L 438 250 L 396 188 L 350 139 L 263 79"/>
<path style="--d:8s;" pathLength="3333" clip-path="url(#z20634c8)" d="M 359 314 L 491 211 L 513 169"/>
<path style="--d:9s;" pathLength="3333" clip-path="url(#z20634c9)" d="M 670 774 L 705 746 L 706 718 L 669 594 L 621 488 L 604 466"/>
<path style="--d:10s;" pathLength="3333" clip-path="url(#z20634c10)" d="M 650 499 L 763 517 L 838 540 L 882 539"/>
<path style="--d:11s;" pathLength="3333" clip-path="url(#z20634c11)" d="M 713 482 L 749 458 L 752 449 L 729 318 L 699 239 L 661 179 L 617 133 L 562 92 L 508 66"/>
<path style="--d:12s;" pathLength="3333" clip-path="url(#z20634c12)" d="M 575 378 L 598 370 L 618 350 L 734 185 L 826 89 L 911 64 L 973 54"/>
</svg>