<svg id="z24530" class="acjk" viewBox="0 0 1024 1024" xmlns="http://www.w3.org/2000/svg">
  <path id="z24530d1" d="M 568 531 Q 700 570 703 572 Q 713 581 708 591 Q 699 604 666 612 Q 630 618 550 586 L 500 569 Q 352 527 219 510 Q 177 503 207 484 Q 255 457 318 474 Q 415 496 516 519 L 568 531 Z"/>
  <path id="z24530d2" d="M 138 284 Q 123 226 98 171 Q 85 141 104 110 Q 114 95 131 109 Q 149 127 158 157 Q 171 200 168 235 Q 169 266 159 287 Q 155 294 148 295 Q 141 292 138 284 Z"/>
  <path id="z24530d3" d="M 580 105 Q 577 115 561 129 Q 536 150 471 223 Q 467 230 461 229 Q 458 229 460 223 Q 469 186 478 146 Q 482 130 471 121 Q 453 109 382 118 Q 321 127 292 170 Q 273 201 261 236 Q 254 260 235 268 Q 220 275 215 269 Q 211 265 218 250 Q 225 234 243 191 Q 274 92 367 65 Q 484 32 570 91 Q 583 98 580 105 Z"/>
  <path id="z24530d4" d="M 296 323 Q 312 307 330 285 Q 342 272 357 272 Q 367 272 373 285 Q 377 298 371 327 Q 367 343 343 354 Q 288 375 272 371 Q 268 367 268 355 Q 271 345 296 323 Z"/>
  <path id="z24530d5" d="M 447 333 Q 475 306 504 274 Q 514 264 527 262 Q 536 262 541 273 Q 545 285 541 309 Q 537 330 508 347 Q 441 380 428 375 Q 424 372 424 361 Q 427 351 447 333 Z"/>
  <path id="z24530d6" d="M 516 519 Q 658 108 870 -27 Q 906 -49 923 -47 Q 939 -47 947 -32 Q 954 -20 939 29 Q 923 83 918 188 Q 918 222 907 223 Q 898 223 891 193 Q 873 79 848 85 Q 803 107 734 195 Q 644 310 568 531 L 550 586 Q 513 697 511 747 Q 518 792 490 804 Q 483 808 473 812 Q 446 824 431 823 Q 416 822 416 820 Q 392 810 417 786 Q 430 783 498 576 Q 498 573 500 569 L 516 519 Z"/>
  <path id="z24530d7" d="M 640 742 Q 677 715 717 683 Q 733 670 749 673 Q 761 674 765 688 Q 769 704 757 735 Q 742 771 631 792 Q 615 795 608 791 Q 602 787 605 773 Q 609 763 640 742 Z"/>
<defs>
  <clipPath id="z24530c1"><use href="#z24530d1"/></clipPath>
  <clipPath id="z24530c2"><use href="#z24530d2"/></clipPath>
  <clipPath id="z24530c3"><use href="#z24530d3"/></clipPath>
  <clipPath id="z24530c4"><use href="#z24530d4"/></clipPath>
  <clipPath id="z24530c5"><use href="#z24530d5"/></clipPath>
  <clipPath id="z24530c6"><use href="#z24530d6"/></clipPath>
  <clipPath id="z24530c7"><use href="#z24530d7"/></clipPath>
</defs>
<path style="--d:1s;" pathLength="3333" clip-path="url(#z24530c1)" d="M 210 499 L 248 491 L 304 496 L 472 534 L 631 581 L 669 587 L 698 582"/>
<path style="--d:2s;" pathLength="3333" clip-path="url(#z24530c2)" d="M 149 284 L 141 201 L 124 155 L 118 118"/>
<path style="--d:3s;" pathLength="3333" clip-path="url(#z24530c3)" d="M 221 264 L 239 244 L 268 174 L 300 129 L 342 101 L 399 86 L 472 86 L 516 111 L 506 144 L 466 225"/>
<path style="--d:4s;" pathLength="3333" clip-path="url(#z24530c4)" d="M 276 365 L 335 325 L 356 290"/>
<path style="--d:5s;" pathLength="3333" clip-path="url(#z24530c5)" d="M 432 366 L 507 313 L 526 277"/>
<path style="--d:6s;" pathLength="3333" clip-path="url(#z24530c6)" d="M 418 806 L 443 796 L 472 768 L 501 647 L 579 423 L 673 232 L 762 112 L 820 58 L 864 37 L 879 35 L 894 77 L 907 216"/>
<path style="--d:7s;" pathLength="3333" clip-path="url(#z24530c7)" d="M 615 783 L 713 731 L 747 691"/>
</svg>