<svg id="z28331" class="acjk" viewBox="0 0 1024 1024" xmlns="http://www.w3.org/2000/svg">
  <path id="z28331d1" d="M 223 715 Q 247 688 271 657 Q 284 641 302 640 Q 314 639 321 653 Q 328 669 322 702 Q 315 735 224 767 Q 208 773 200 771 Q 194 767 194 753 Q 197 740 223 715 Z"/>
  <path id="z28331d2" d="M 114 512 Q 162 455 198 439 Q 214 435 223 449 Q 230 462 227 479 Q 215 525 130 550 Q 129 551 128 551 Q 112 555 101 552 Q 95 551 97 538 Q 98 526 114 512 Z"/>
  <path id="z28331d3" d="M 112 166 Q 99 162 102 144 Q 114 66 153 48 Q 160 41 171 43 Q 178 44 179 71 Q 188 125 289 387 Q 296 403 295 410 Q 294 420 285 413 Q 275 407 154 211 Q 141 189 112 166 Z"/>
  <path id="z28331d4" d="M 454 732 Q 442 739 408 745 Q 396 748 393 743 Q 386 736 395 720 Q 429 644 448 521 Q 451 484 472 459 Q 490 437 495 453 Q 496 459 498 466 L 499 490 Q 498 509 494 534 Q 470 658 464 699 C 459 729 459 730 454 732 Z"/>
  <path id="z28331d5" d="M 674 486 Q 692 458 708 449 Q 718 440 735 462 Q 753 490 791 649 Q 801 680 825 705 Q 838 718 827 732 Q 812 750 769 777 Q 750 787 734 782 Q 706 775 663 768 Q 611 759 544 748 Q 493 738 454 732 C 424 727 434 694 464 699 Q 468 699 474 700 Q 513 710 567 719 L 593 723 Q 710 747 729 731 Q 745 718 739 695 Q 709 547 696 526 Q 692 516 681 511 C 666 497 666 497 674 486 Z"/>
  <path id="z28331d6" d="M 567 719 Q 567 716 572 710 Q 581 653 508 538 Q 504 534 504 529 Q 505 526 508 527 Q 532 533 586 613 L 596 630 Q 605 646 611 659 Q 618 675 623 684 Q 627 691 621 701 Q 608 717 595 723 Q 594 724 593 723 C 565 733 559 736 567 719 Z"/>
  <path id="z28331d7" d="M 586 613 Q 590 609 601 602 Q 667 553 673 552 Q 679 553 682 561 Q 683 570 678 587 Q 672 609 597 630 L 596 630 C 567 636 564 633 586 613 Z"/>
  <path id="z28331d8" d="M 498 466 Q 504 465 514 466 Q 605 479 674 486 C 704 489 706 494 681 511 Q 674 517 661 519 Q 640 523 603 515 Q 546 502 499 490 C 470 483 468 468 498 466 Z"/>
  <path id="z28331d9" d="M 412 347 Q 402 354 364 361 Q 352 364 349 359 Q 342 353 351 337 Q 382 267 398 153 Q 399 131 409 113 C 422 86 447 86 448 116 Q 449 137 444 164 Q 425 276 420 315 C 416 345 416 345 412 347 Z"/>
  <path id="z28331d10" d="M 785 148 Q 795 190 806 230 Q 821 288 859 328 Q 880 352 851 370 Q 824 389 797 406 Q 782 416 713 395 Q 688 394 412 347 C 382 342 391 307 420 315 Q 465 327 499 334 L 523 338 Q 566 347 620 352 L 652 355 Q 692 361 743 365 Q 758 366 763 359 Q 775 340 767 308 Q 755 241 723 140 C 714 111 778 119 785 148 Z"/>
  <path id="z28331d11" d="M 547 123 Q 547 124 548 126 Q 555 165 531 316 Q 530 329 523 338 C 507 363 497 364 499 334 Q 505 259 505 238 Q 505 151 523 121 C 537 94 540 94 547 123 Z"/>
  <path id="z28331d12" d="M 647 132 Q 666 258 683 299 Q 690 317 680 329 Q 667 345 652 355 C 628 373 616 381 620 352 Q 629 283 627 251 Q 623 211 611 128 C 607 98 642 102 647 132 Z"/>
  <path id="z28331d13" d="M 409 113 Q 352 110 294 105 Q 272 104 287 86 Q 300 73 318 66 Q 339 59 355 63 Q 577 111 920 89 Q 939 88 945 96 Q 951 108 935 122 Q 881 167 820 153 Q 802 152 785 148 L 723 140 Q 687 137 647 132 L 611 128 Q 604 129 598 128 Q 573 127 547 123 L 523 121 Q 486 120 448 116 L 409 113 Z"/>
<defs>
  <clipPath id="z28331c1"><use href="#z28331d1"/></clipPath>
  <clipPath id="z28331c2"><use href="#z28331d2"/></clipPath>
  <clipPath id="z28331c3"><use href="#z28331d3"/></clipPath>
  <clipPath id="z28331c4"><use href="#z28331d4"/></clipPath>
  <clipPath id="z28331c5"><use href="#z28331d5"/></clipPath>
  <clipPath id="z28331c6"><use href="#z28331d6"/></clipPath>
  <clipPath id="z28331c7"><use href="#z28331d7"/></clipPath>
  <clipPath id="z28331c8"><use href="#z28331d8"/></clipPath>
  <clipPath id="z28331c9"><use href="#z28331d9"/></clipPath>
  <clipPath id="z28331c10"><use href="#z28331d10"/></clipPath>
  <clipPath id="z28331c11"><use href="#z28331d11"/></clipPath>
  <clipPath id="z28331c12"><use href="#z28331d12"/></clipPath>
  <clipPath id="z28331c13"><use href="#z28331d13"/></clipPath>
</defs>
<path style="--d:1s;" pathLength="3333" clip-path="url(#z28331c1)" d="M 205 763 L 279 703 L 303 659"/>
<path style="--d:2s;" pathLength="3333" clip-path="url(#z28331c2)" d="M 108 542 L 173 497 L 193 479 L 204 459"/>
<path style="--d:3s;" pathLength="3333" clip-path="url(#z28331c3)" d="M 166 52 L 152 86 L 150 138 L 289 407"/>
<path style="--d:4s;" pathLength="3333" clip-path="url(#z28331c4)" d="M 402 735 L 430 711 L 437 691 L 484 458"/>
<path style="--d:5s;" pathLength="3333" clip-path="url(#z28331c5)" d="M 461 728 L 477 719 L 720 758 L 752 752 L 772 733 L 780 713 L 766 676 L 740 562 L 712 488 L 716 467"/>
<path style="--d:6s;" pathLength="3333" clip-path="url(#z28331c6)" d="M 574 717 L 591 705 L 598 690 L 583 644 L 529 552 L 508 533"/>
<path style="--d:7s;" pathLength="3333" clip-path="url(#z28331c7)" d="M 592 615 L 606 617 L 651 590 L 674 560"/>
<path style="--d:8s;" pathLength="3333" clip-path="url(#z28331c8)" d="M 502 472 L 512 480 L 673 507"/>
<path style="--d:9s;" pathLength="3333" clip-path="url(#z28331c9)" d="M 358 351 L 388 324 L 424 138 L 441 122"/>
<path style="--d:10s;" pathLength="3333" clip-path="url(#z28331c10)" d="M 426 322 L 432 336 L 547 358 L 751 385 L 787 378 L 814 343 L 762 174 L 730 148"/>
<path style="--d:11s;" pathLength="3333" clip-path="url(#z28331c11)" d="M 507 324 L 515 319 L 519 302 L 529 162 L 541 127"/>
<path style="--d:12s;" pathLength="3333" clip-path="url(#z28331c12)" d="M 626 343 L 645 331 L 654 305 L 632 149 L 616 138"/>
<path style="--d:13s;" pathLength="3333" clip-path="url(#z28331c13)" d="M 290 96 L 339 85 L 487 103 L 844 125 L 902 116 L 934 103"/>
</svg>