<svg id="z26875" class="acjk" viewBox="0 0 1024 1024" xmlns="http://www.w3.org/2000/svg">
  <path id="z26875d1" d="M 429 751 Q 426 776 425 797 Q 426 815 407 819 Q 373 837 350 828 Q 334 819 349 802 Q 373 777 383 744 L 393 711 Q 406 663 420 651 Q 432 641 436 652 Q 439 664 433 721 L 429 751 Z"/>
  <path id="z26875d2" d="M 433 721 Q 443 725 456 728 Q 471 731 488 740 Q 494 744 492 751 Q 491 757 478 760 Q 456 757 429 751 L 383 744 Q 325 737 253 724 Q 213 725 193 723 Q 181 724 180 720 Q 179 713 185 703 Q 198 688 225 678 Q 243 668 259 674 Q 323 693 393 711 L 433 721 Z"/>
  <path id="z26875d3" d="M 629 773 Q 636 791 652 813 Q 665 826 657 836 Q 647 852 617 869 Q 604 878 587 871 Q 577 867 584 856 Q 597 826 558 707 Q 551 688 550 673 Q 551 661 564 668 Q 576 677 611 739 L 629 773 Z"/>
  <path id="z26875d4" d="M 611 739 Q 623 736 704 742 Q 723 749 814 741 Q 821 741 828 739 Q 841 738 846 745 Q 850 755 840 768 Q 795 804 718 786 Q 678 780 629 773 C 599 769 581 742 611 739 Z"/>
  <path id="z26875d5" d="M 363 511 Q 436 581 437 582 Q 438 589 430 601 Q 412 628 383 632 Q 376 631 376 621 Q 376 537 163 417 Q 156 414 163 410 Q 221 410 314 472 Q 314 473 351 501 L 363 511 Z"/>
  <path id="z26875d6" d="M 555 632 Q 556 625 567 623 Q 618 623 727 514 Q 803 438 860 450 Q 933 468 942 473 Q 955 477 943 483 Q 936 487 837 513 Q 786 526 644 625 Q 608 652 566 640 Q 556 637 555 632 Z"/>
  <path id="z26875d7" d="M 448 493 Q 518 514 573 521 Q 589 524 592 519 Q 598 510 594 489 Q 588 431 574 405 Q 556 377 530 383 Q 515 386 501 389 Q 479 396 495 375 Q 523 344 535 319 Q 547 303 560 313 Q 611 340 643 467 Q 652 498 665 513 Q 675 523 671 533 Q 664 543 622 563 Q 606 570 588 560 Q 570 550 499 533 Q 427 515 366 512 Q 365 512 363 511 C 342 509 342 509 351 501 Q 352 497 368 488 Q 387 475 403 481 Q 410 484 420 486 L 448 493 Z"/>
  <path id="z26875d8" d="M 420 486 L 421 484 Q 421 430 282 323 Q 273 320 270 311 Q 269 307 273 306 Q 333 306 442 413 Q 457 429 466 437 Q 473 444 469 456 Q 460 480 448 493 C 429 516 418 516 420 486 Z"/>
  <path id="z26875d9" d="M 529 229 Q 584 235 826 234 Q 845 233 850 242 Q 856 252 840 266 Q 789 305 754 298 Q 663 282 514 261 L 462 255 Q 327 240 176 225 Q 157 224 171 207 Q 184 194 201 188 Q 222 182 237 186 Q 319 208 413 218 L 529 229 Z"/>
  <path id="z26875d10" d="M 514 261 Q 515 271 517 279 Q 518 291 513 296 Q 491 315 474 325 Q 462 328 454 322 Q 448 318 455 309 Q 461 297 462 255 L 461 202 Q 460 186 460 166 Q 453 58 445 39 Q 433 6 466 -44 Q 476 -62 483 -66 Q 493 -67 499 -55 Q 511 -27 509 2 Q 508 104 510 188 Q 510 201 510 213 L 514 261 Z"/>
  <path id="z26875d11" d="M 413 218 Q 355 118 143 6 Q 125 -3 140 -7 Q 170 -14 267 30 Q 345 82 377 110 Q 417 144 442 179 Q 452 192 461 202 C 481 225 449 276 413 218 Z"/>
  <path id="z26875d12" d="M 510 213 Q 708 3 762 -8 Q 855 -8 920 7 Q 938 10 939 15 Q 940 21 926 26 Q 875 44 816 61 Q 692 100 537 223 Q 533 227 529 229 C 505 247 489 235 510 213 Z"/>
<defs>
  <clipPath id="z26875c1"><use href="#z26875d1"/></clipPath>
  <clipPath id="z26875c2"><use href="#z26875d2"/></clipPath>
  <clipPath id="z26875c3"><use href="#z26875d3"/></clipPath>
  <clipPath id="z26875c4"><use href="#z26875d4"/></clipPath>
  <clipPath id="z26875c5"><use href="#z26875d5"/></clipPath>
  <clipPath id="z26875c6"><use href="#z26875d6"/></clipPath>
  <clipPath id="z26875c7"><use href="#z26875d7"/></clipPath>
  <clipPath id="z26875c8"><use href="#z26875d8"/></clipPath>
  <clipPath id="z26875c9"><use href="#z26875d9"/></clipPath>
  <clipPath id="z26875c10"><use href="#z26875d10"/></clipPath>
  <clipPath id="z26875c11"><use href="#z26875d11"/></clipPath>
  <clipPath id="z26875c12"><use href="#z26875d12"/></clipPath>
</defs>
<path style="--d:1s;" pathLength="3333" clip-path="url(#z26875c1)" d="M 356 815 L 377 806 L 396 788 L 428 655"/>
<path style="--d:2s;" pathLength="3333" clip-path="url(#z26875c2)" d="M 188 717 L 212 705 L 259 699 L 483 748"/>
<path style="--d:3s;" pathLength="3333" clip-path="url(#z26875c3)" d="M 597 861 L 621 826 L 559 677"/>
<path style="--d:4s;" pathLength="3333" clip-path="url(#z26875c4)" d="M 615 744 L 641 757 L 748 769 L 790 767 L 837 751"/>
<path style="--d:5s;" pathLength="3333" clip-path="url(#z26875c5)" d="M 388 621 L 401 589 L 376 553 L 331 506 L 238 444 L 190 421 L 174 423 L 168 414"/>
<path style="--d:6s;" pathLength="3333" clip-path="url(#z26875c6)" d="M 564 631 L 593 631 L 629 617 L 751 524 L 817 486 L 850 479 L 939 478"/>
<path style="--d:7s;" pathLength="3333" clip-path="url(#z26875c7)" d="M 359 504 L 395 497 L 593 541 L 619 533 L 628 521 L 617 462 L 600 405 L 585 377 L 553 351 L 506 378"/>
<path style="--d:8s;" pathLength="3333" clip-path="url(#z26875c8)" d="M 431 479 L 440 470 L 442 452 L 404 404 L 326 338 L 277 312"/>
<path style="--d:9s;" pathLength="3333" clip-path="url(#z26875c9)" d="M 174 216 L 228 207 L 395 233 L 754 266 L 803 261 L 839 248"/>
<path style="--d:10s;" pathLength="3333" clip-path="url(#z26875c10)" d="M 462 316 L 489 280 L 475 21 L 485 -56"/>
<path style="--d:11s;" pathLength="3333" clip-path="url(#z26875c11)" d="M 456 218 L 423 192 L 370 131 L 309 83 L 230 33 L 145 -1"/>
<path style="--d:12s;" pathLength="3333" clip-path="url(#z26875c12)" d="M 516 220 L 651 108 L 760 37 L 805 27 L 934 16"/>
</svg>