<svg id="z25042" class="acjk" viewBox="0 0 1024 1024" xmlns="http://www.w3.org/2000/svg">
  <path id="z25042d1" d="M 121 567 Q 106 497 79 430 Q 66 394 87 366 Q 97 351 115 366 Q 134 385 142 417 Q 158 472 155 517 Q 154 548 144 571 Q 137 578 132 578 Q 125 577 121 567 Z"/>
  <path id="z25042d2" d="M 258 625 Q 315 574 333 576 Q 343 576 347 591 Q 347 601 337 616 Q 319 638 261 645 Q 258 645 259 644 C 243 638 243 638 258 625 Z"/>
  <path id="z25042d3" d="M 259 644 Q 262 707 276 751 Q 283 764 281 777 Q 275 786 224 817 Q 203 833 184 819 Q 180 815 185 800 Q 215 754 217 681 Q 217 275 200 186 Q 196 164 189 140 Q 179 104 202 48 Q 209 32 216 29 Q 222 23 228 30 Q 235 34 244 54 Q 254 76 253 105 Q 252 153 258 597 Q 258 612 258 625 L 259 644 Z"/>
  <path id="z25042d4" d="M 476 643 Q 507 653 544 662 Q 569 669 573 673 Q 580 680 575 687 Q 568 696 545 700 Q 512 703 479 684 L 436 670 Q 402 661 365 655 Q 335 648 358 636 Q 391 618 437 633 L 476 643 Z"/>
  <path id="z25042d5" d="M 346 536 Q 339 540 317 543 Q 308 546 306 542 Q 302 538 308 525 Q 330 480 344 406 Q 347 384 360 368 Q 373 352 377 364 Q 381 377 378 399 L 373 425 Q 360 489 358 512 C 356 532 356 532 346 536 Z"/>
  <path id="z25042d6" d="M 563 455 Q 581 515 604 530 Q 617 545 605 558 Q 592 568 552 585 Q 540 591 474 564 L 438 555 Q 392 545 346 536 C 317 530 328 509 358 512 Q 368 512 380 516 Q 408 523 438 528 L 474 537 Q 490 541 509 545 Q 525 549 532 543 Q 539 536 538 522 Q 534 491 526 463 C 518 434 554 426 563 455 Z"/>
  <path id="z25042d7" d="M 474 414 Q 514 421 571 429 Q 580 430 581 438 Q 581 444 563 455 C 546 466 546 466 526 463 Q 502 460 474 448 L 437 438 Q 403 431 373 425 C 344 419 349 405 378 399 Q 379 399 381 398 Q 390 397 401 399 Q 414 403 436 406 L 436 407 C 439 408 444 409 474 414 Z"/>
  <path id="z25042d8" d="M 435 315 Q 435 231 413 152 Q 404 115 427 63 Q 433 47 440 45 Q 446 39 452 46 Q 459 50 468 69 Q 475 91 475 118 Q 474 154 474 414 L 474 448 Q 474 491 474 537 L 474 564 Q 474 615 476 643 L 479 684 Q 483 718 491 746 Q 498 759 496 771 Q 490 780 441 809 Q 420 824 402 810 Q 398 806 404 792 Q 434 749 435 703 Q 435 687 436 670 L 437 633 Q 437 599 439 562 Q 438 559 438 555 L 438 528 Q 437 485 437 438 L 435 315 Z"/>
  <path id="z25042d9" d="M 435 404 Q 413 352 387 300 Q 356 248 283 153 Q 279 146 288 145 Q 292 144 300 151 Q 382 221 435 315 C 450 341 449 434 436 407 L 436 407 Q 435 406 435 404 Z"/>
  <path id="z25042d10" d="M 510 331 Q 528 312 547 288 Q 554 278 566 277 Q 573 276 578 285 Q 582 295 579 315 Q 575 339 511 364 Q 501 368 496 366 Q 492 365 492 355 Q 493 348 510 331 Z"/>
  <path id="z25042d11" d="M 689 668 Q 711 702 732 748 Q 741 772 751 784 Q 757 793 752 802 Q 748 809 725 823 Q 704 833 691 830 Q 678 827 686 813 Q 704 791 666 694 Q 648 651 621 602 Q 615 595 614 590 Q 613 581 623 585 Q 638 591 677 649 L 689 668 Z"/>
  <path id="z25042d12" d="M 727 521 Q 805 632 841 660 Q 856 670 845 680 Q 833 689 802 704 Q 796 707 714 675 Q 701 671 689 668 C 660 660 647 654 677 649 Q 692 643 754 659 Q 760 660 762 659 Q 766 655 761 646 Q 731 567 711 529 Q 707 522 703 514 C 689 487 710 496 727 521 Z"/>
  <path id="z25042d13" d="M 653 506 Q 637 519 617 525 Q 610 526 604 520 Q 601 516 608 507 Q 642 417 610 276 Q 597 249 603 224 Q 610 197 619 187 Q 629 177 636 187 Q 654 206 661 352 Q 655 376 664 469 Q 664 476 666 481 C 668 495 668 495 653 506 Z"/>
  <path id="z25042d14" d="M 812 241 Q 806 220 818 202 Q 830 177 838 178 Q 851 179 864 208 Q 876 230 874 248 Q 849 419 872 474 Q 884 507 883 509 Q 859 530 817 547 Q 804 551 785 544 Q 758 531 727 521 L 703 514 Q 675 510 653 506 C 623 501 637 474 666 481 Q 665 482 668 482 Q 704 489 731 496 Q 788 512 800 503 Q 810 484 815 431 Q 819 271 812 241 Z"/>
  <path id="z25042d15" d="M 712 394 Q 718 163 644 87 Q 640 84 637 81 Q 613 59 558 28 Q 548 24 546 21 Q 542 17 554 14 Q 585 11 661 53 Q 754 107 754 320 Q 754 374 768 420 Q 772 429 765 435 Q 750 448 722 459 Q 704 466 691 461 Q 675 454 689 441 Q 711 419 712 394 Z"/>
  <path id="z25042d16" d="M 780 112 Q 813 69 847 18 Q 856 5 869 1 Q 878 0 885 9 Q 892 21 891 47 Q 892 74 860 104 Q 782 162 768 159 Q 764 156 762 145 Q 762 135 780 112 Z"/>
<defs>
  <clipPath id="z25042c1"><use href="#z25042d1"/></clipPath>
  <clipPath id="z25042c2"><use href="#z25042d2"/></clipPath>
  <clipPath id="z25042c3"><use href="#z25042d3"/></clipPath>
  <clipPath id="z25042c4"><use href="#z25042d4"/></clipPath>
  <clipPath id="z25042c5"><use href="#z25042d5"/></clipPath>
  <clipPath id="z25042c6"><use href="#z25042d6"/></clipPath>
  <clipPath id="z25042c7"><use href="#z25042d7"/></clipPath>
  <clipPath id="z25042c8"><use href="#z25042d8"/></clipPath>
  <clipPath id="z25042c9"><use href="#z25042d9"/></clipPath>
  <clipPath id="z25042c10"><use href="#z25042d10"/></clipPath>
  <clipPath id="z25042c11"><use href="#z25042d11"/></clipPath>
  <clipPath id="z25042c12"><use href="#z25042d12"/></clipPath>
  <clipPath id="z25042c13"><use href="#z25042d13"/></clipPath>
  <clipPath id="z25042c14"><use href="#z25042d14"/></clipPath>
  <clipPath id="z25042c15"><use href="#z25042d15"/></clipPath>
  <clipPath id="z25042c16"><use href="#z25042d16"/></clipPath>
</defs>
<path style="--d:1s;" pathLength="3333" clip-path="url(#z25042c1)" d="M 133 566 L 128 486 L 101 375"/>
<path style="--d:2s;" pathLength="3333" clip-path="url(#z25042c2)" d="M 263 639 L 331 592"/>
<path style="--d:3s;" pathLength="3333" clip-path="url(#z25042c3)" d="M 195 813 L 233 775 L 242 754 L 235 342 L 219 121 L 221 42"/>
<path style="--d:4s;" pathLength="3333" clip-path="url(#z25042c4)" d="M 359 647 L 409 644 L 527 680 L 565 681"/>
<path style="--d:5s;" pathLength="3333" clip-path="url(#z25042c5)" d="M 312 537 L 332 520 L 339 505 L 369 368"/>
<path style="--d:6s;" pathLength="3333" clip-path="url(#z25042c6)" d="M 355 533 L 365 526 L 508 562 L 545 563 L 569 539 L 548 476 L 534 469"/>
<path style="--d:7s;" pathLength="3333" clip-path="url(#z25042c7)" d="M 380 420 L 391 413 L 523 443 L 572 438"/>
<path style="--d:8s;" pathLength="3333" clip-path="url(#z25042c8)" d="M 413 804 L 452 767 L 460 747 L 456 304 L 443 139 L 445 58"/>
<path style="--d:9s;" pathLength="3333" clip-path="url(#z25042c9)" d="M 434 384 L 416 317 L 402 291 L 350 218 L 292 153"/>
<path style="--d:10s;" pathLength="3333" clip-path="url(#z25042c10)" d="M 502 357 L 551 318 L 565 292"/>
<path style="--d:11s;" pathLength="3333" clip-path="url(#z25042c11)" d="M 692 820 L 703 815 L 720 791 L 709 750 L 661 647 L 622 593"/>
<path style="--d:12s;" pathLength="3333" clip-path="url(#z25042c12)" d="M 682 653 L 758 676 L 797 667 L 728 534 L 709 516"/>
<path style="--d:13s;" pathLength="3333" clip-path="url(#z25042c13)" d="M 613 516 L 637 490 L 644 460 L 643 340 L 627 251 L 628 192"/>
<path style="--d:14s;" pathLength="3333" clip-path="url(#z25042c14)" d="M 660 502 L 686 498 L 805 526 L 816 522 L 842 494 L 837 394 L 844 242 L 838 189"/>
<path style="--d:15s;" pathLength="3333" clip-path="url(#z25042c15)" d="M 693 451 L 710 445 L 737 419 L 729 245 L 710 159 L 691 113 L 653 70 L 599 36 L 554 22"/>
<path style="--d:16s;" pathLength="3333" clip-path="url(#z25042c16)" d="M 770 150 L 844 77 L 861 50 L 870 18"/>
</svg>