<svg id="z23524" class="acjk" viewBox="0 0 1024 1024" xmlns="http://www.w3.org/2000/svg">
  <path id="z23524d1" d="M 469 800 Q 494 781 519 759 Q 535 746 552 748 Q 564 749 569 764 Q 573 780 560 813 Q 550 840 460 852 Q 442 855 436 851 Q 430 847 433 833 Q 439 820 469 800 Z"/>
  <path id="z23524d2" d="M 265 691 Q 264 692 264 695 Q 254 719 242 728 Q 224 743 221 717 Q 225 690 209 667 Q 193 649 170 630 Q 160 618 163 598 Q 167 568 175 551 Q 188 524 210 551 Q 226 572 237 604 Q 249 638 259 660 C 268 681 268 681 265 691 Z"/>
  <path id="z23524d3" d="M 259 660 Q 277 650 327 657 Q 480 699 720 714 Q 771 717 772 703 Q 772 700 728 634 Q 719 621 725 616 Q 732 612 749 620 Q 810 648 856 654 Q 893 660 895 668 Q 894 678 827 739 Q 803 763 742 750 Q 610 738 371 703 Q 317 696 265 691 C 235 688 230 667 259 660 Z"/>
  <path id="z23524d4" d="M 355 422 Q 328 419 297 414 Q 276 410 273 414 Q 269 418 272 430 Q 285 490 283 495 Q 273 511 247 526 Q 232 536 223 533 Q 213 529 220 514 Q 250 460 219 405 Q 209 386 217 367 Q 230 345 246 354 Q 280 370 355 394 C 384 403 385 425 355 422 Z"/>
  <path id="z23524d5" d="M 354 270 Q 354 141 338 80 Q 329 44 351 -9 Q 357 -25 364 -27 Q 370 -33 376 -26 Q 383 -22 392 -3 Q 395 9 399 104 Q 399 482 415 534 Q 422 547 420 559 Q 414 568 365 597 Q 344 612 326 598 Q 322 594 328 580 Q 352 546 352 511 Q 353 469 355 422 L 355 394 Q 354 351 354 304 L 354 270 Z"/>
  <path id="z23524d6" d="M 272 250 Q 308 262 354 270 C 384 275 383 296 354 304 Q 336 310 321 304 Q 189 268 102 251 Q 90 250 88 242 Q 87 232 100 223 Q 134 202 173 215 Q 203 228 231 236 L 272 250 Z"/>
  <path id="z23524d7" d="M 231 236 Q 231 149 113 2 Q 107 -2 108 -9 Q 108 -13 113 -13 Q 180 5 271 163 Q 280 184 295 203 Q 301 213 293 225 Q 283 241 272 250 C 250 271 232 266 231 236 Z"/>
  <path id="z23524d8" d="M 618 529 Q 742 557 747 561 Q 756 568 751 577 Q 744 587 716 595 Q 686 599 658 588 Q 627 578 591 569 Q 554 560 509 556 Q 473 550 499 534 Q 530 516 579 521 L 618 529 Z"/>
  <path id="z23524d9" d="M 624 451 Q 639 503 630 514 Q 624 523 618 529 C 598 551 582 551 579 521 Q 579 511 566 437 L 560 403 Q 550 363 537 297 C 531 268 574 273 582 302 Q 598 362 613 411 L 624 451 Z"/>
  <path id="z23524d10" d="M 725 321 Q 743 378 773 399 Q 789 415 775 432 Q 760 445 712 468 Q 696 475 676 468 Q 648 458 624 451 L 566 437 Q 524 431 485 428 Q 469 427 471 417 Q 472 410 490 403 Q 514 393 547 402 Q 553 403 560 403 L 613 411 Q 638 415 665 420 Q 680 423 685 416 Q 697 404 676 314 C 669 285 715 293 725 321 Z"/>
  <path id="z23524d11" d="M 537 297 Q 479 291 419 284 Q 400 283 414 266 Q 427 254 443 249 Q 462 245 476 248 Q 605 281 896 281 Q 914 281 918 288 Q 922 298 909 311 Q 857 350 798 334 Q 765 330 725 321 L 676 314 Q 660 313 645 310 Q 612 306 582 302 L 537 297 Z"/>
  <path id="z23524d12" d="M 513 178 Q 500 184 467 188 Q 454 191 451 185 Q 444 178 454 162 Q 482 113 502 31 Q 506 7 522 -9 Q 543 -31 547 -14 Q 548 -7 550 4 L 545 40 Q 530 118 527 145 C 523 174 523 174 513 178 Z"/>
  <path id="z23524d13" d="M 762 59 Q 792 125 822 140 Q 840 158 826 177 Q 810 192 758 220 Q 740 230 717 222 Q 651 198 513 178 C 483 174 498 139 527 145 Q 711 182 727 168 Q 734 159 731 143 Q 721 100 707 64 C 697 36 749 32 762 59 Z"/>
  <path id="z23524d14" d="M 550 4 Q 556 3 566 4 Q 633 16 777 20 Q 789 21 790 30 Q 791 39 762 59 C 746 71 737 69 707 64 Q 616 48 545 40 C 515 37 520 6 550 4 Z"/>
<defs>
  <clipPath id="z23524c1"><use href="#z23524d1"/></clipPath>
  <clipPath id="z23524c2"><use href="#z23524d2"/></clipPath>
  <clipPath id="z23524c3"><use href="#z23524d3"/></clipPath>
  <clipPath id="z23524c4"><use href="#z23524d4"/></clipPath>
  <clipPath id="z23524c5"><use href="#z23524d5"/></clipPath>
  <clipPath id="z23524c6"><use href="#z23524d6"/></clipPath>
  <clipPath id="z23524c7"><use href="#z23524d7"/></clipPath>
  <clipPath id="z23524c8"><use href="#z23524d8"/></clipPath>
  <clipPath id="z23524c9"><use href="#z23524d9"/></clipPath>
  <clipPath id="z23524c10"><use href="#z23524d10"/></clipPath>
  <clipPath id="z23524c11"><use href="#z23524d11"/></clipPath>
  <clipPath id="z23524c12"><use href="#z23524d12"/></clipPath>
  <clipPath id="z23524c13"><use href="#z23524d13"/></clipPath>
  <clipPath id="z23524c14"><use href="#z23524d14"/></clipPath>
</defs>
<path style="--d:1s;" pathLength="3333" clip-path="url(#z23524c1)" d="M 443 843 L 528 798 L 549 768"/>
<path style="--d:2s;" pathLength="3333" clip-path="url(#z23524c2)" d="M 232 722 L 243 687 L 229 651 L 199 606 L 191 554"/>
<path style="--d:3s;" pathLength="3333" clip-path="url(#z23524c3)" d="M 266 667 L 281 674 L 328 677 L 477 705 L 608 721 L 755 733 L 785 729 L 802 717 L 814 690 L 730 622"/>
<path style="--d:4s;" pathLength="3333" clip-path="url(#z23524c4)" d="M 228 523 L 257 487 L 249 391 L 276 390 L 339 404 L 349 415"/>
<path style="--d:5s;" pathLength="3333" clip-path="url(#z23524c5)" d="M 337 592 L 382 546 L 377 171 L 366 60 L 369 -14"/>
<path style="--d:6s;" pathLength="3333" clip-path="url(#z23524c6)" d="M 98 239 L 159 237 L 335 287 L 347 298"/>
<path style="--d:7s;" pathLength="3333" clip-path="url(#z23524c7)" d="M 241 230 L 262 213 L 234 145 L 164 40 L 115 -5"/>
<path style="--d:8s;" pathLength="3333" clip-path="url(#z23524c8)" d="M 501 546 L 570 541 L 695 572 L 741 571"/>
<path style="--d:9s;" pathLength="3333" clip-path="url(#z23524c9)" d="M 586 518 L 604 497 L 601 469 L 567 330 L 544 305"/>
<path style="--d:10s;" pathLength="3333" clip-path="url(#z23524c10)" d="M 480 418 L 523 414 L 677 444 L 699 442 L 729 413 L 704 340 L 681 326"/>
<path style="--d:11s;" pathLength="3333" clip-path="url(#z23524c11)" d="M 417 275 L 468 268 L 639 292 L 834 310 L 879 304 L 909 293"/>
<path style="--d:12s;" pathLength="3333" clip-path="url(#z23524c12)" d="M 460 177 L 491 154 L 499 137 L 535 -9"/>
<path style="--d:13s;" pathLength="3333" clip-path="url(#z23524c13)" d="M 523 176 L 540 163 L 720 197 L 741 195 L 775 160 L 743 87 L 714 68"/>
<path style="--d:14s;" pathLength="3333" clip-path="url(#z23524c14)" d="M 554 11 L 566 24 L 703 41 L 753 40 L 780 31"/>
</svg>