<svg id="z34691" class="acjk" viewBox="0 0 1024 1024" xmlns="http://www.w3.org/2000/svg">
  <path id="z34691d1" d="M 137 508 Q 130 515 90 519 Q 80 520 76 516 Q 72 510 80 496 Q 108 450 129 371 Q 133 349 149 333 Q 165 315 170 329 Q 171 336 171 345 L 167 375 Q 164 381 143 480 C 137 508 137 508 137 508 Z"/>
  <path id="z34691d2" d="M 373 406 Q 394 476 424 502 Q 437 518 425 533 Q 412 543 366 564 Q 350 570 332 563 Q 301 550 272 539 L 227 526 Q 182 517 137 508 C 108 502 114 474 143 480 Q 152 481 162 485 Q 193 492 227 499 L 271 508 Q 334 524 343 516 Q 355 504 333 416 C 326 387 364 377 373 406 Z"/>
  <path id="z34691d3" d="M 269 365 Q 315 374 378 381 Q 388 382 388 390 Q 388 396 373 406 C 352 421 352 421 333 416 Q 285 404 269 399 L 228 388 Q 194 381 167 375 C 138 369 142 336 171 345 Q 180 349 228 357 L 269 365 Z"/>
  <path id="z34691d4" d="M 265 231 Q 266 300 269 365 L 269 399 Q 270 454 271 508 L 272 539 Q 272 620 292 707 Q 295 717 275 733 Q 239 751 214 754 Q 198 758 190 749 Q 183 742 191 726 Q 222 683 222 652 Q 225 591 227 526 L 227 499 Q 228 445 228 388 L 228 357 Q 227 290 223 219 C 221 189 265 201 265 231 Z"/>
  <path id="z34691d5" d="M 351 256 Q 308 244 265 231 L 223 219 Q 171 207 115 192 Q 96 186 67 188 Q 54 187 53 177 Q 50 165 59 157 Q 80 141 111 122 Q 121 119 132 127 Q 166 152 335 222 Q 350 228 363 235 C 390 249 380 264 351 256 Z"/>
  <path id="z34691d6" d="M 363 235 Q 381 193 397 187 Q 406 184 413 193 Q 420 203 423 229 Q 424 248 403 270 Q 349 318 336 314 Q 332 313 329 302 Q 329 293 351 256 L 363 235 Z"/>
  <path id="z34691d7" d="M 606 782 Q 633 761 662 737 Q 675 727 688 728 Q 698 729 701 740 Q 705 753 695 779 Q 683 806 599 823 Q 586 826 580 823 Q 576 819 578 808 Q 581 798 606 782 Z"/>
  <path id="z34691d8" d="M 739 668 Q 752 672 773 677 Q 813 689 820 694 Q 827 701 823 709 Q 816 719 789 726 Q 767 729 677 698 Q 596 674 515 662 Q 482 656 506 641 Q 542 623 634 643 Q 671 652 711 662 L 739 668 Z"/>
  <path id="z34691d9" d="M 538 576 Q 568 513 588 505 Q 598 501 607 515 Q 611 525 607 543 Q 603 559 585 570 Q 560 592 547 597 Q 540 600 536 591 Q 533 584 538 576 Z"/>
  <path id="z34691d10" d="M 705 511 Q 771 602 774 606 Q 789 616 781 627 Q 766 658 739 668 C 711 680 708 681 711 662 Q 710 659 713 654 Q 722 624 678 525 Q 674 515 670 504 C 660 476 687 487 705 511 Z"/>
  <path id="z34691d11" d="M 479 469 Q 470 487 458 495 Q 455 499 450 495 Q 446 492 444 483 Q 445 456 420 402 Q 411 387 411 371 Q 414 355 421 342 Q 428 332 433 338 Q 445 341 458 380 Q 474 419 481 432 Q 485 436 486 442 L 479 469 Z"/>
  <path id="z34691d12" d="M 486 442 Q 504 433 551 448 Q 689 490 808 500 Q 826 503 834 501 Q 849 494 848 486 L 829 428 Q 823 416 829 413 Q 836 409 849 420 Q 892 451 930 461 Q 960 471 959 477 Q 958 486 894 530 Q 872 545 794 527 Q 752 521 705 511 L 670 504 Q 621 497 561 484 Q 521 477 479 470 Q 478 470 479 469 C 450 462 457 448 486 442 Z"/>
  <path id="z34691d13" d="M 619 410 Q 658 371 670 371 Q 677 371 681 381 Q 685 391 679 413 Q 672 434 616 445 Q 604 448 600 446 Q 596 443 597 434 Q 600 427 619 410 Z"/>
  <path id="z34691d14" d="M 649 315 Q 649 316 650 316 Q 713 329 818 337 Q 861 341 865 348 Q 869 358 854 368 Q 803 399 742 376 Q 646 352 485 315 Q 467 312 481 299 Q 505 281 551 291 Q 575 300 603 305 L 649 315 Z"/>
  <path id="z34691d15" d="M 652 264 Q 664 252 703 246 Q 728 240 738 226 Q 748 199 703 101 Q 681 59 663 55 Q 654 51 615 60 Q 578 76 574 70 Q 568 61 586 49 Q 620 19 629 -17 Q 633 -33 644 -40 Q 657 -46 691 -25 Q 742 12 777 126 Q 792 181 813 196 Q 825 200 826 209 Q 829 219 806 245 Q 773 278 722 278 Q 713 279 669 290 C 640 297 627 280 652 264 Z"/>
  <path id="z34691d16" d="M 669 290 Q 666 306 649 315 C 625 332 610 334 603 305 Q 582 193 366 33 Q 359 30 367 27 Q 424 27 534 127 Q 591 184 652 264 C 670 287 670 287 669 290 Z"/>
<defs>
  <clipPath id="z34691c1"><use href="#z34691d1"/></clipPath>
  <clipPath id="z34691c2"><use href="#z34691d2"/></clipPath>
  <clipPath id="z34691c3"><use href="#z34691d3"/></clipPath>
  <clipPath id="z34691c4"><use href="#z34691d4"/></clipPath>
  <clipPath id="z34691c5"><use href="#z34691d5"/></clipPath>
  <clipPath id="z34691c6"><use href="#z34691d6"/></clipPath>
  <clipPath id="z34691c7"><use href="#z34691d7"/></clipPath>
  <clipPath id="z34691c8"><use href="#z34691d8"/></clipPath>
  <clipPath id="z34691c9"><use href="#z34691d9"/></clipPath>
  <clipPath id="z34691c10"><use href="#z34691d10"/></clipPath>
  <clipPath id="z34691c11"><use href="#z34691d11"/></clipPath>
  <clipPath id="z34691c12"><use href="#z34691d12"/></clipPath>
  <clipPath id="z34691c13"><use href="#z34691d13"/></clipPath>
  <clipPath id="z34691c14"><use href="#z34691d14"/></clipPath>
  <clipPath id="z34691c15"><use href="#z34691d15"/></clipPath>
  <clipPath id="z34691c16"><use href="#z34691d16"/></clipPath>
</defs>
<path style="--d:1s;" pathLength="3333" clip-path="url(#z34691c1)" d="M 84 511 L 114 489 L 160 334"/>
<path style="--d:2s;" pathLength="3333" clip-path="url(#z34691c2)" d="M 146 488 L 154 497 L 280 523 L 334 541 L 355 540 L 383 511 L 358 431 L 369 418"/>
<path style="--d:3s;" pathLength="3333" clip-path="url(#z34691c3)" d="M 172 353 L 191 366 L 329 396 L 379 390"/>
<path style="--d:4s;" pathLength="3333" clip-path="url(#z34691c4)" d="M 202 740 L 250 702 L 252 690 L 246 254 L 228 227"/>
<path style="--d:5s;" pathLength="3333" clip-path="url(#z34691c5)" d="M 66 175 L 117 158 L 344 241 L 354 237"/>
<path style="--d:6s;" pathLength="3333" clip-path="url(#z34691c6)" d="M 339 304 L 388 246 L 401 200"/>
<path style="--d:7s;" pathLength="3333" clip-path="url(#z34691c7)" d="M 586 815 L 654 779 L 687 742"/>
<path style="--d:8s;" pathLength="3333" clip-path="url(#z34691c8)" d="M 508 653 L 544 649 L 585 654 L 780 703 L 812 703"/>
<path style="--d:9s;" pathLength="3333" clip-path="url(#z34691c9)" d="M 547 585 L 584 540 L 592 520"/>
<path style="--d:10s;" pathLength="3333" clip-path="url(#z34691c10)" d="M 719 660 L 736 646 L 745 620 L 700 531 L 675 508"/>
<path style="--d:11s;" pathLength="3333" clip-path="url(#z34691c11)" d="M 454 486 L 462 445 L 437 387 L 430 349"/>
<path style="--d:12s;" pathLength="3333" clip-path="url(#z34691c12)" d="M 486 470 L 488 464 L 510 456 L 745 507 L 844 518 L 869 509 L 887 487 L 833 421"/>
<path style="--d:13s;" pathLength="3333" clip-path="url(#z34691c13)" d="M 604 439 L 649 412 L 670 382"/>
<path style="--d:14s;" pathLength="3333" clip-path="url(#z34691c14)" d="M 483 307 L 539 307 L 782 360 L 858 353"/>
<path style="--d:15s;" pathLength="3333" clip-path="url(#z34691c15)" d="M 661 268 L 678 271 L 742 254 L 763 241 L 776 223 L 778 216 L 739 106 L 701 37 L 666 11 L 579 65"/>
<path style="--d:16s;" pathLength="3333" clip-path="url(#z34691c16)" d="M 654 290 L 644 292 L 627 280 L 573 197 L 483 105 L 443 72 L 389 38 L 376 39 L 371 31"/>
</svg>