<svg id="z38415" class="acjk" viewBox="0 0 1024 1024" xmlns="http://www.w3.org/2000/svg">
  <path id="z38415d1" d="M 302 765 Q 368 669 394 667 Q 409 663 419 684 Q 422 699 414 723 Q 404 745 375 761 Q 330 789 311 795 Q 301 798 298 785 Q 295 775 302 765 Z"/>
  <path id="z38415d2" d="M 239 216 Q 239 219 240 219 Q 246 600 257 653 Q 258 672 242 683 Q 217 704 189 712 Q 179 715 172 706 Q 168 699 176 688 Q 231 541 186 227 Q 156 104 157 94 Q 157 91 158 88 Q 167 51 179 37 Q 192 22 202 37 Q 232 67 239 202 L 239 216 Z"/>
  <path id="z38415d3" d="M 507 750 Q 491 751 495 740 Q 502 727 524 717 Q 534 708 601 722 Q 742 758 758 727 Q 788 679 786 272 Q 783 200 781 125 Q 780 83 765 72 Q 750 62 678 81 Q 662 85 662 75 Q 663 68 676 60 Q 740 12 774 -25 Q 796 -46 809 -43 Q 822 -40 834 -10 Q 850 36 849 106 Q 828 500 830 647 Q 831 687 844 711 Q 857 733 846 745 Q 836 761 787 786 Q 766 798 705 780 Q 575 756 507 750 Z"/>
  <path id="z38415d4" d="M 366 592 Q 423 538 443 539 Q 456 539 459 557 Q 459 569 448 587 Q 430 609 367 617 Q 358 618 359 607 Q 358 600 366 592 Z"/>
  <path id="z38415d5" d="M 390 447 Q 409 453 496 474 Q 505 474 512 485 Q 512 495 491 502 Q 458 518 392 488 Q 388 488 384 486 Q 372 483 273 457 Q 249 451 269 439 Q 296 418 325 429 Q 341 435 363 440 L 390 447 Z"/>
  <path id="z38415d6" d="M 391 366 Q 430 359 441 341 Q 451 323 415 244 Q 402 216 388 211 Q 381 211 353 223 Q 328 242 323 238 Q 317 231 329 220 Q 356 184 356 156 Q 359 143 368 137 Q 377 131 405 146 Q 447 171 473 261 Q 482 300 500 316 Q 510 319 511 326 Q 512 333 496 355 Q 472 383 431 384 Q 412 387 405 391 C 377 401 362 372 391 366 Z"/>
  <path id="z38415d7" d="M 239 202 Q 314 251 375 340 Q 382 352 391 366 L 405 391 Q 405 392 419 413 Q 423 417 422 423 Q 421 430 412 437 Q 402 444 390 447 C 361 456 360 457 363 440 Q 375 389 305 291 Q 302 290 302 287 Q 283 263 239 216 C 219 194 214 185 239 202 Z"/>
  <path id="z38415d8" d="M 608 532 Q 615 556 633 573 Q 639 582 635 591 Q 631 601 609 615 Q 588 627 574 625 Q 561 624 568 607 Q 583 583 540 491 Q 521 451 491 403 Q 484 396 483 390 Q 482 383 491 385 Q 515 388 595 510 L 608 532 Z"/>
  <path id="z38415d9" d="M 595 510 Q 626 461 668 406 Q 689 385 770 405 Q 774 406 776 409 Q 776 412 769 416 Q 685 458 627 513 Q 617 523 608 532 C 587 553 579 535 595 510 Z"/>
  <path id="z38415d10" d="M 556 363 Q 610 306 630 304 Q 643 304 648 321 Q 649 333 639 351 Q 618 381 559 388 Q 550 389 550 379 Q 549 372 556 363 Z"/>
  <path id="z38415d11" d="M 559 225 Q 593 194 628 155 Q 638 143 651 143 Q 660 142 665 153 Q 669 165 665 189 Q 658 228 558 264 Q 545 268 540 267 Q 536 264 536 253 Q 537 243 559 225 Z"/>
<defs>
  <clipPath id="z38415c1"><use href="#z38415d1"/></clipPath>
  <clipPath id="z38415c2"><use href="#z38415d2"/></clipPath>
  <clipPath id="z38415c3"><use href="#z38415d3"/></clipPath>
  <clipPath id="z38415c4"><use href="#z38415d4"/></clipPath>
  <clipPath id="z38415c5"><use href="#z38415d5"/></clipPath>
  <clipPath id="z38415c6"><use href="#z38415d6"/></clipPath>
  <clipPath id="z38415c7"><use href="#z38415d7"/></clipPath>
  <clipPath id="z38415c8"><use href="#z38415d8"/></clipPath>
  <clipPath id="z38415c9"><use href="#z38415d9"/></clipPath>
  <clipPath id="z38415c10"><use href="#z38415d10"/></clipPath>
  <clipPath id="z38415c11"><use href="#z38415d11"/></clipPath>
</defs>
<path style="--d:1s;" pathLength="3333" clip-path="url(#z38415c1)" d="M 308 785 L 379 718 L 398 689"/>
<path style="--d:2s;" pathLength="3333" clip-path="url(#z38415c2)" d="M 182 701 L 220 658 L 227 555 L 221 309 L 210 192 L 191 88 L 191 42"/>
<path style="--d:3s;" pathLength="3333" clip-path="url(#z38415c3)" d="M 505 741 L 538 734 L 585 737 L 643 751 L 752 764 L 782 751 L 804 727 L 813 82 L 792 29 L 737 43 L 670 75"/>
<path style="--d:4s;" pathLength="3333" clip-path="url(#z38415c4)" d="M 371 605 L 423 576 L 442 556"/>
<path style="--d:5s;" pathLength="3333" clip-path="url(#z38415c5)" d="M 269 448 L 304 445 L 453 485 L 503 486"/>
<path style="--d:6s;" pathLength="3333" clip-path="url(#z38415c6)" d="M 401 369 L 411 375 L 449 362 L 466 349 L 473 330 L 428 212 L 412 192 L 388 176 L 326 233"/>
<path style="--d:7s;" pathLength="3333" clip-path="url(#z38415c7)" d="M 371 436 L 391 418 L 365 355 L 313 279 L 273 237 L 249 221 L 243 209"/>
<path style="--d:8s;" pathLength="3333" clip-path="url(#z38415c8)" d="M 575 615 L 586 608 L 601 583 L 585 538 L 550 469 L 491 394"/>
<path style="--d:9s;" pathLength="3333" clip-path="url(#z38415c9)" d="M 609 524 L 622 497 L 685 430 L 758 409 L 771 411"/>
<path style="--d:10s;" pathLength="3333" clip-path="url(#z38415c10)" d="M 561 377 L 617 340 L 630 319"/>
<path style="--d:11s;" pathLength="3333" clip-path="url(#z38415c11)" d="M 543 259 L 627 198 L 652 157"/>
</svg>