<svg id="z33020" class="acjk" viewBox="0 0 1024 1024" xmlns="http://www.w3.org/2000/svg">
  <path id="z33020d1" d="M 206 408 Q 212 429 218 514 L 219 549 Q 220 571 220 594 Q 220 661 223 694 C 225 721 225 721 220 724 Q 204 737 177 746 Q 158 753 147 748 Q 137 741 144 729 Q 162 707 168 645 Q 168 438 153 357 Q 149 341 145 323 Q 120 224 52 93 Q 48 86 46 81 Q 45 71 55 74 Q 70 77 101 127 Q 165 214 200 372 L 206 408 Z"/>
  <path id="z33020d2" d="M 223 694 Q 245 697 296 716 Q 312 723 319 714 Q 332 678 330 392 Q 324 163 309 141 Q 305 135 284 141 Q 257 145 231 151 Q 212 157 213 147 Q 270 104 302 69 Q 315 51 330 47 Q 339 43 346 53 Q 385 98 383 151 Q 376 331 379 623 Q 378 677 390 701 Q 402 720 390 729 Q 371 747 336 760 Q 318 767 304 760 Q 279 744 264 738 Q 248 732 220 724 C 191 715 194 687 223 694 Z"/>
  <path id="z33020d3" d="M 218 514 Q 252 518 280 521 Q 302 525 293 537 Q 283 550 259 554 Q 243 555 219 549 C 190 542 188 511 218 514 Z"/>
  <path id="z33020d4" d="M 200 372 Q 246 378 283 380 Q 305 384 297 396 Q 287 411 261 415 Q 239 418 206 408 C 177 400 170 368 200 372 Z"/>
  <path id="z33020d5" d="M 500 689 Q 548 629 564 626 Q 574 625 581 637 Q 587 650 582 680 Q 578 707 501 735 Q 486 741 480 739 Q 476 736 475 723 Q 476 713 500 689 Z"/>
  <path id="z33020d6" d="M 711 768 Q 699 741 633 635 Q 624 616 642 622 Q 676 650 761 727 Q 779 746 802 761 Q 823 774 809 791 Q 793 807 764 818 Q 737 830 724 825 Q 711 821 717 808 Q 724 789 711 768 Z"/>
  <path id="z33020d7" d="M 695 541 Q 810 568 814 571 Q 824 578 819 588 Q 812 600 782 608 Q 758 614 639 578 Q 500 554 466 550 Q 429 544 455 526 Q 497 505 568 517 Q 610 526 659 534 L 695 541 Z"/>
  <path id="z33020d8" d="M 726 350 Q 763 353 895 353 Q 914 353 919 362 Q 925 372 908 386 Q 851 428 780 407 Q 755 403 726 396 L 676 387 Q 627 384 566 370 L 514 363 Q 462 357 408 349 Q 387 348 403 331 Q 416 318 434 313 Q 453 307 470 312 Q 489 318 513 322 L 562 331 Q 607 343 676 346 L 726 350 Z"/>
  <path id="z33020d9" d="M 566 370 Q 569 409 573 435 Q 579 453 560 462 Q 517 483 504 481 Q 486 478 501 458 Q 516 430 514 363 L 513 322 Q 513 202 413 102 Q 401 93 399 87 Q 398 80 408 81 Q 439 81 488 132 Q 548 198 562 331 L 566 370 Z"/>
  <path id="z33020d10" d="M 676 346 Q 675 327 675 303 Q 671 141 657 100 Q 648 60 683 6 Q 696 -13 704 -19 Q 716 -20 722 -6 Q 735 28 731 60 Q 727 219 726 350 L 726 396 Q 727 466 733 497 Q 736 510 728 517 Q 710 532 695 541 C 670 558 647 561 659 534 Q 675 518 676 387 L 676 346 Z"/>
<defs>
  <clipPath id="z33020c1"><use href="#z33020d1"/></clipPath>
  <clipPath id="z33020c2"><use href="#z33020d2"/></clipPath>
  <clipPath id="z33020c3"><use href="#z33020d3"/></clipPath>
  <clipPath id="z33020c4"><use href="#z33020d4"/></clipPath>
  <clipPath id="z33020c5"><use href="#z33020d5"/></clipPath>
  <clipPath id="z33020c6"><use href="#z33020d6"/></clipPath>
  <clipPath id="z33020c7"><use href="#z33020d7"/></clipPath>
  <clipPath id="z33020c8"><use href="#z33020d8"/></clipPath>
  <clipPath id="z33020c9"><use href="#z33020d9"/></clipPath>
  <clipPath id="z33020c10"><use href="#z33020d10"/></clipPath>
</defs>
<path style="--d:1s;" pathLength="3333" clip-path="url(#z33020c1)" d="M 154 737 L 190 706 L 194 667 L 193 504 L 180 382 L 156 283 L 135 225 L 85 125 L 55 83"/>
<path style="--d:2s;" pathLength="3333" clip-path="url(#z33020c2)" d="M 227 702 L 237 713 L 306 739 L 335 734 L 355 713 L 355 416 L 351 181 L 343 123 L 329 103 L 222 145"/>
<path style="--d:3s;" pathLength="3333" clip-path="url(#z33020c3)" d="M 226 520 L 237 534 L 262 537 L 284 531"/>
<path style="--d:4s;" pathLength="3333" clip-path="url(#z33020c4)" d="M 207 377 L 215 388 L 244 397 L 287 390"/>
<path style="--d:5s;" pathLength="3333" clip-path="url(#z33020c5)" d="M 484 733 L 552 674 L 566 639"/>
<path style="--d:6s;" pathLength="3333" clip-path="url(#z33020c6)" d="M 726 814 L 747 797 L 757 778 L 733 741 L 641 631"/>
<path style="--d:7s;" pathLength="3333" clip-path="url(#z33020c7)" d="M 458 539 L 526 535 L 647 555 L 773 585 L 808 582"/>
<path style="--d:8s;" pathLength="3333" clip-path="url(#z33020c8)" d="M 405 340 L 453 332 L 611 361 L 808 383 L 854 382 L 907 368"/>
<path style="--d:9s;" pathLength="3333" clip-path="url(#z33020c9)" d="M 505 469 L 525 456 L 541 433 L 532 273 L 515 215 L 492 169 L 454 122 L 406 87"/>
<path style="--d:10s;" pathLength="3333" clip-path="url(#z33020c10)" d="M 665 535 L 690 517 L 702 497 L 700 196 L 693 75 L 707 -10"/>
</svg>