<svg id="z33329" class="acjk" viewBox="0 0 1024 1024" xmlns="http://www.w3.org/2000/svg">
  <path id="z33329d1" d="M 284 625 Q 318 671 336 702 Q 376 774 397 793 Q 412 808 397 820 Q 381 830 354 834 Q 329 838 319 831 Q 309 827 317 816 Q 332 791 270 640 Q 266 633 263 622 C 254 593 266 601 284 625 Z"/>
  <path id="z33329d2" d="M 259 621 Q 246 631 225 638 Q 206 645 195 641 Q 185 634 192 621 Q 226 579 213 369 L 208 320 Q 184 166 100 9 Q 96 2 95 -3 Q 94 -13 103 -10 Q 116 -7 148 41 Q 221 134 254 318 Q 255 327 256 335 L 261 378 Q 267 435 267 490 Q 267 586 273 592 C 276 611 276 611 259 621 Z"/>
  <path id="z33329d3" d="M 399 380 Q 399 94 381 64 Q 377 61 303 72 Q 284 76 285 67 Q 342 25 375 -8 Q 388 -26 403 -30 Q 412 -33 419 -24 Q 456 19 455 75 Q 446 244 448 519 Q 447 574 460 598 Q 472 617 460 626 Q 441 644 405 658 Q 389 665 337 640 Q 310 634 284 625 C 264 619 262 625 263 622 Q 260 621 259 621 C 229 616 244 585 273 592 Q 315 601 363 615 Q 382 619 387 610 Q 394 589 399 406 L 399 380 Z"/>
  <path id="z33329d4" d="M 291 500 Q 324 437 344 433 Q 354 429 363 443 Q 366 453 361 472 Q 357 487 338 497 Q 311 516 299 521 Q 292 524 289 515 Q 286 508 291 500 Z"/>
  <path id="z33329d5" d="M 256 335 Q 358 366 399 380 C 427 390 428 412 399 406 Q 333 393 261 378 L 213 369 Q 167 363 119 353 Q 97 349 63 353 Q 50 353 47 344 Q 44 331 52 322 Q 73 303 103 281 Q 113 277 126 284 Q 165 306 208 320 L 256 335 Z"/>
  <path id="z33329d6" d="M 293 262 Q 312 235 333 204 Q 342 191 354 189 Q 363 188 369 197 Q 376 207 374 233 Q 371 260 298 302 Q 286 308 280 306 Q 276 305 274 294 Q 275 284 293 262 Z"/>
  <path id="z33329d7" d="M 532 382 Q 616 511 654 593 L 665 620 Q 683 663 701 685 Q 708 695 702 709 Q 696 721 667 738 Q 639 753 621 750 Q 603 746 614 726 Q 660 651 466 338 Q 459 328 457 321 Q 456 311 468 314 L 518 363 L 532 382 Z"/>
  <path id="z33329d8" d="M 654 593 Q 712 496 790 394 Q 806 376 833 376 Q 924 375 954 379 Q 963 380 964 385 Q 965 389 953 397 Q 827 452 755 525 Q 712 568 665 620 C 645 642 639 619 654 593 Z"/>
  <path id="z33329d9" d="M 576 322 Q 583 321 595 323 Q 623 338 701 361 Q 708 362 713 360 Q 723 356 723 340 Q 722 303 708 234 Q 704 213 685 216 Q 658 222 636 227 Q 624 228 627 222 Q 628 215 650 197 Q 678 172 695 143 Q 702 136 710 138 Q 717 139 730 160 Q 751 190 758 246 Q 768 336 781 349 Q 791 356 786 367 Q 779 377 748 398 Q 727 410 581 362 Q 577 362 574 360 C 545 351 546 321 576 322 Z"/>
  <path id="z33329d10" d="M 909 85 Q 893 112 866 195 Q 865 211 857 214 Q 851 217 849 199 Q 836 108 822 78 Q 810 62 773 52 Q 734 42 687 46 Q 647 49 614 64 Q 584 79 577 97 Q 550 155 576 322 C 580 352 581 355 574 360 Q 573 361 572 362 Q 560 375 539 382 Q 535 383 532 382 C 510 388 510 388 518 363 L 519 362 Q 531 326 528 293 Q 516 83 555 40 Q 564 22 624 2 Q 792 -40 907 42 Q 926 60 909 85 Z"/>
<defs>
  <clipPath id="z33329c1"><use href="#z33329d1"/></clipPath>
  <clipPath id="z33329c2"><use href="#z33329d2"/></clipPath>
  <clipPath id="z33329c3"><use href="#z33329d3"/></clipPath>
  <clipPath id="z33329c4"><use href="#z33329d4"/></clipPath>
  <clipPath id="z33329c5"><use href="#z33329d5"/></clipPath>
  <clipPath id="z33329c6"><use href="#z33329d6"/></clipPath>
  <clipPath id="z33329c7"><use href="#z33329d7"/></clipPath>
  <clipPath id="z33329c8"><use href="#z33329d8"/></clipPath>
  <clipPath id="z33329c9"><use href="#z33329d9"/></clipPath>
  <clipPath id="z33329c10"><use href="#z33329d10"/></clipPath>
</defs>
<path style="--d:1s;" pathLength="3333" clip-path="url(#z33329c1)" d="M 328 822 L 355 799 L 353 792 L 325 721 L 290 654 L 282 649 L 282 638 L 268 626"/>
<path style="--d:2s;" pathLength="3333" clip-path="url(#z33329c2)" d="M 203 630 L 231 605 L 239 589 L 242 443 L 227 294 L 187 150 L 153 76 L 103 -2"/>
<path style="--d:3s;" pathLength="3333" clip-path="url(#z33329c3)" d="M 262 617 L 291 611 L 385 637 L 404 631 L 425 607 L 424 172 L 418 56 L 400 26 L 294 65"/>
<path style="--d:4s;" pathLength="3333" clip-path="url(#z33329c4)" d="M 299 509 L 332 475 L 348 448"/>
<path style="--d:5s;" pathLength="3333" clip-path="url(#z33329c5)" d="M 61 339 L 114 317 L 370 385 L 386 390 L 393 400"/>
<path style="--d:6s;" pathLength="3333" clip-path="url(#z33329c6)" d="M 284 297 L 348 230 L 355 204"/>
<path style="--d:7s;" pathLength="3333" clip-path="url(#z33329c7)" d="M 623 736 L 637 729 L 661 694 L 634 609 L 560 460 L 509 377 L 479 346 L 465 322"/>
<path style="--d:8s;" pathLength="3333" clip-path="url(#z33329c8)" d="M 667 611 L 670 594 L 742 502 L 825 418 L 957 385"/>
<path style="--d:9s;" pathLength="3333" clip-path="url(#z33329c9)" d="M 580 329 L 599 349 L 699 379 L 724 379 L 751 359 L 731 225 L 720 199 L 707 186 L 633 221"/>
<path style="--d:10s;" pathLength="3333" clip-path="url(#z33329c10)" d="M 523 367 L 541 359 L 551 340 L 543 189 L 555 93 L 573 59 L 604 38 L 659 22 L 738 16 L 782 22 L 845 48 L 867 69 L 857 208"/>
</svg>