<svg id="z38928" class="acjk" viewBox="0 0 1024 1024" xmlns="http://www.w3.org/2000/svg">
  <path id="z38928d1" d="M 329 617 Q 419 698 453 709 Q 472 716 465 731 Q 462 747 398 780 Q 379 790 358 781 Q 309 762 234 740 Q 215 733 166 734 Q 144 734 152 715 Q 159 703 178 692 Q 208 676 239 695 Q 255 702 334 737 Q 347 741 359 735 Q 371 726 365 713 Q 340 674 313 628 C 298 602 307 597 329 617 Z"/>
  <path id="z38928d2" d="M 313 628 Q 310 634 254 646 Q 241 649 236 647 Q 232 643 233 633 Q 236 623 259 607 Q 281 588 304 566 Q 316 556 329 557 Q 336 558 341 568 Q 345 581 337 605 Q 334 612 329 617 L 313 628 Z"/>
  <path id="z38928d3" d="M 289 496 Q 326 508 366 516 Q 397 523 400 509 Q 400 493 367 427 Q 360 412 367 409 Q 374 405 386 417 Q 461 481 492 494 Q 517 501 514 516 Q 513 529 439 561 Q 415 571 310 535 Q 213 507 55 473 Q 28 469 50 448 Q 66 429 111 446 Q 181 468 249 486 L 289 496 Z"/>
  <path id="z38928d4" d="M 249 486 Q 264 437 265 409 Q 269 150 258 124 Q 255 123 255 120 Q 243 113 214 121 Q 192 127 165 132 Q 152 135 153 128 Q 154 121 164 111 Q 228 62 268 21 Q 280 12 293 28 Q 335 88 327 198 Q 321 324 327 431 Q 334 458 328 468 Q 319 481 289 496 C 263 510 241 515 249 486 Z"/>
  <path id="z38928d5" d="M 666 737 Q 711 752 878 752 Q 896 753 900 761 Q 904 771 889 783 Q 838 819 771 798 Q 726 789 506 748 Q 487 747 502 731 Q 515 719 531 715 Q 550 711 565 715 Q 593 724 623 729 L 666 737 Z"/>
  <path id="z38928d6" d="M 623 729 Q 626 705 601 625 Q 592 609 591 596 C 587 566 604 577 621 602 Q 625 608 666 666 Q 672 676 684 691 Q 697 701 690 712 Q 684 724 666 737 C 642 755 621 759 623 729 Z"/>
  <path id="z38928d7" d="M 562 591 Q 559 592 557 594 Q 530 612 516 605 Q 509 601 514 589 Q 529 547 533 440 Q 526 319 522 303 Q 509 252 543 213 Q 553 200 562 212 Q 569 222 572 234 L 574 268 Q 575 284 575 304 Q 575 326 575 347 L 575 375 Q 575 420 576 452 L 576 477 Q 577 541 579 548 Q 580 558 580 564 C 581 579 581 579 562 591 Z"/>
  <path id="z38928d8" d="M 591 596 Q 575 595 562 591 C 533 585 550 560 580 564 Q 587 563 595 565 Q 746 607 756 591 Q 772 573 775 507 Q 788 318 779 282 L 778 253 Q 781 244 788 235 Q 804 204 814 206 Q 829 207 844 243 Q 859 271 856 294 Q 841 376 837 505 Q 836 542 855 575 Q 865 591 856 601 Q 828 625 779 644 Q 763 648 740 640 Q 703 621 653 610 Q 635 606 621 602 L 591 596 Z"/>
  <path id="z38928d9" d="M 576 452 Q 579 451 590 452 Q 665 467 719 475 Q 743 479 733 492 Q 723 507 697 510 Q 661 513 576 477 C 548 465 546 455 576 452 Z"/>
  <path id="z38928d10" d="M 575 347 Q 576 347 581 347 Q 666 360 730 368 Q 754 372 745 384 Q 735 399 709 404 Q 675 408 575 375 C 546 366 545 347 575 347 Z"/>
  <path id="z38928d11" d="M 572 234 Q 579 233 591 234 Q 649 247 778 253 C 808 254 803 264 779 282 Q 757 304 677 286 Q 622 276 574 268 C 544 263 542 236 572 234 Z"/>
  <path id="z38928d12" d="M 558 173 Q 537 107 410 9 Q 386 -6 416 -4 Q 480 -4 587 91 Q 590 100 633 132 Q 645 144 643 154 Q 640 169 613 178 Q 583 191 570 188 Q 561 187 558 173 Z"/>
  <path id="z38928d13" d="M 716 162 Q 770 105 832 23 Q 848 1 863 -5 Q 873 -8 881 3 Q 896 16 886 63 Q 874 121 719 195 Q 710 202 707 188 Q 706 175 716 162 Z"/>
<defs>
  <clipPath id="z38928c1"><use href="#z38928d1"/></clipPath>
  <clipPath id="z38928c2"><use href="#z38928d2"/></clipPath>
  <clipPath id="z38928c3"><use href="#z38928d3"/></clipPath>
  <clipPath id="z38928c4"><use href="#z38928d4"/></clipPath>
  <clipPath id="z38928c5"><use href="#z38928d5"/></clipPath>
  <clipPath id="z38928c6"><use href="#z38928d6"/></clipPath>
  <clipPath id="z38928c7"><use href="#z38928d7"/></clipPath>
  <clipPath id="z38928c8"><use href="#z38928d8"/></clipPath>
  <clipPath id="z38928c9"><use href="#z38928d9"/></clipPath>
  <clipPath id="z38928c10"><use href="#z38928d10"/></clipPath>
  <clipPath id="z38928c11"><use href="#z38928d11"/></clipPath>
  <clipPath id="z38928c12"><use href="#z38928d12"/></clipPath>
  <clipPath id="z38928c13"><use href="#z38928d13"/></clipPath>
</defs>
<path style="--d:1s;" pathLength="3333" clip-path="url(#z38928c1)" d="M 162 722 L 211 710 L 347 758 L 382 755 L 406 730 L 403 722 L 332 632 L 321 632"/>
<path style="--d:2s;" pathLength="3333" clip-path="url(#z38928c2)" d="M 240 639 L 296 609 L 325 574"/>
<path style="--d:3s;" pathLength="3333" clip-path="url(#z38928c3)" d="M 52 461 L 95 460 L 347 531 L 384 538 L 411 536 L 442 514 L 371 415"/>
<path style="--d:4s;" pathLength="3333" clip-path="url(#z38928c4)" d="M 258 478 L 274 473 L 295 451 L 297 169 L 289 107 L 271 79 L 226 93 L 160 126"/>
<path style="--d:5s;" pathLength="3333" clip-path="url(#z38928c5)" d="M 503 740 L 556 735 L 701 765 L 813 779 L 890 766"/>
<path style="--d:6s;" pathLength="3333" clip-path="url(#z38928c6)" d="M 631 725 L 652 700 L 615 619 L 598 602"/>
<path style="--d:7s;" pathLength="3333" clip-path="url(#z38928c7)" d="M 523 596 L 539 580 L 551 555 L 555 446 L 547 264 L 553 217"/>
<path style="--d:8s;" pathLength="3333" clip-path="url(#z38928c8)" d="M 570 590 L 589 580 L 605 581 L 757 619 L 776 614 L 807 584 L 805 519 L 819 294 L 814 219"/>
<path style="--d:9s;" pathLength="3333" clip-path="url(#z38928c9)" d="M 583 458 L 592 469 L 661 486 L 701 491 L 724 485"/>
<path style="--d:10s;" pathLength="3333" clip-path="url(#z38928c10)" d="M 578 354 L 592 365 L 662 380 L 712 385 L 735 378"/>
<path style="--d:11s;" pathLength="3333" clip-path="url(#z38928c11)" d="M 576 239 L 598 255 L 711 271 L 759 272 L 767 261"/>
<path style="--d:12s;" pathLength="3333" clip-path="url(#z38928c12)" d="M 626 151 L 589 147 L 559 107 L 518 67 L 459 24 L 421 6"/>
<path style="--d:13s;" pathLength="3333" clip-path="url(#z38928c13)" d="M 718 183 L 830 85 L 856 47 L 867 10"/>
</svg>