<svg id="z32602" class="acjk" viewBox="0 0 1024 1024" xmlns="http://www.w3.org/2000/svg">
  <path id="z32602d1" d="M 275 770 Q 271 771 267 772 Q 254 775 251 769 Q 244 762 254 746 Q 282 698 303 618 Q 307 594 322 579 Q 343 557 347 574 Q 348 581 349 590 L 346 621 Q 346 624 346 626 Q 330 711 327 736 C 324 758 304 763 275 770 Z"/>
  <path id="z32602d2" d="M 691 627 Q 691 624 692 621 Q 695 605 708 604 Q 726 604 762 658 Q 784 709 824 735 Q 845 750 830 767 Q 814 786 766 818 Q 751 828 678 816 Q 540 806 436 788 Q 340 773 281 771 Q 280 771 275 770 C 245 768 298 728 327 736 Q 367 748 432 757 L 455 760 Q 504 769 566 774 L 600 778 Q 711 793 732 777 Q 739 773 732 751 Q 707 672 698 656 L 691 627 Z"/>
  <path id="z32602d3" d="M 475 636 Q 478 658 463 739 Q 462 751 455 760 C 438 785 431 787 432 757 Q 432 748 434 739 Q 435 726 434 708 Q 434 648 449 632 C 468 608 472 606 475 636 Z"/>
  <path id="z32602d4" d="M 582 654 Q 583 658 588 665 Q 600 684 612 709 Q 616 719 627 733 Q 637 743 631 752 Q 622 765 600 778 C 574 794 551 800 566 774 Q 566 773 569 769 Q 578 742 557 664 Q 554 657 553 649 C 548 619 570 626 582 654 Z"/>
  <path id="z32602d5" d="M 349 590 Q 353 589 364 590 Q 467 612 691 627 C 721 629 721 637 698 656 Q 694 660 688 664 Q 669 676 582 654 L 553 649 Q 513 643 475 636 L 449 632 Q 394 628 346 621 C 316 617 319 591 349 590 Z"/>
  <path id="z32602d6" d="M 311 504 Q 344 479 380 449 Q 393 437 407 439 Q 417 440 421 452 Q 425 465 415 493 Q 403 527 304 547 Q 289 550 284 547 Q 280 543 281 531 Q 285 521 311 504 Z"/>
  <path id="z32602d7" d="M 167 320 Q 119 302 92 299 Q 79 299 76 291 Q 72 282 84 276 Q 106 263 122 261 Q 144 260 268 325 Q 292 338 300 332 Q 310 326 306 301 Q 306 172 279 79 Q 260 49 302 -3 Q 312 -16 322 -9 Q 329 -3 342 20 Q 384 63 471 137 Q 484 147 483 154 Q 482 163 470 155 Q 430 136 390 113 Q 329 67 344 139 Q 343 184 359 294 Q 362 318 383 341 Q 395 351 385 364 Q 375 380 336 395 Q 324 401 308 390 Q 218 338 167 320 Z"/>
  <path id="z32602d8" d="M 546 447 Q 570 387 549 244 Q 543 213 568 182 Q 577 172 586 182 Q 607 215 606 250 Q 602 322 615 416 Q 622 438 603 449 Q 563 474 550 468 Q 543 461 546 447 Z"/>
  <path id="z32602d9" d="M 733 490 Q 737 465 736 84 Q 735 68 727 62 Q 720 58 645 75 Q 612 87 615 77 Q 616 70 636 55 Q 703 3 721 -27 Q 740 -61 757 -63 Q 772 -64 786 -29 Q 804 17 801 91 Q 771 412 803 517 Q 819 548 764 569 Q 730 588 711 580 Q 693 573 710 551 Q 732 524 733 490 Z"/>
<defs>
  <clipPath id="z32602c1"><use href="#z32602d1"/></clipPath>
  <clipPath id="z32602c2"><use href="#z32602d2"/></clipPath>
  <clipPath id="z32602c3"><use href="#z32602d3"/></clipPath>
  <clipPath id="z32602c4"><use href="#z32602d4"/></clipPath>
  <clipPath id="z32602c5"><use href="#z32602d5"/></clipPath>
  <clipPath id="z32602c6"><use href="#z32602d6"/></clipPath>
  <clipPath id="z32602c7"><use href="#z32602d7"/></clipPath>
  <clipPath id="z32602c8"><use href="#z32602d8"/></clipPath>
  <clipPath id="z32602c9"><use href="#z32602d9"/></clipPath>
</defs>
<path style="--d:1s;" pathLength="3333" clip-path="url(#z32602c1)" d="M 260 761 L 300 719 L 335 579"/>
<path style="--d:2s;" pathLength="3333" clip-path="url(#z32602c2)" d="M 287 768 L 329 756 L 621 797 L 692 803 L 743 799 L 758 790 L 778 755 L 708 619"/>
<path style="--d:3s;" pathLength="3333" clip-path="url(#z32602c3)" d="M 438 753 L 449 742 L 455 663 L 468 640"/>
<path style="--d:4s;" pathLength="3333" clip-path="url(#z32602c4)" d="M 572 774 L 595 754 L 599 742 L 578 678 L 559 655"/>
<path style="--d:5s;" pathLength="3333" clip-path="url(#z32602c5)" d="M 354 614 L 364 607 L 376 608 L 686 651"/>
<path style="--d:6s;" pathLength="3333" clip-path="url(#z32602c6)" d="M 289 541 L 373 494 L 405 455"/>
<path style="--d:7s;" pathLength="3333" clip-path="url(#z32602c7)" d="M 86 287 L 121 283 L 143 288 L 226 322 L 292 357 L 330 357 L 338 343 L 314 108 L 320 61 L 370 76 L 476 152"/>
<path style="--d:8s;" pathLength="3333" clip-path="url(#z32602c8)" d="M 555 460 L 585 424 L 577 188"/>
<path style="--d:9s;" pathLength="3333" clip-path="url(#z32602c9)" d="M 717 565 L 746 547 L 766 523 L 760 334 L 768 65 L 748 18 L 634 68 L 632 75 L 621 75"/>
</svg>