<svg id="z39385" class="acjk" viewBox="0 0 1024 1024" xmlns="http://www.w3.org/2000/svg">
  <path id="z39385d1" d="M 345 675 Q 384 685 426 693 Q 459 700 463 705 Q 470 712 466 719 Q 460 728 437 734 Q 425 737 334 711 Q 279 698 222 690 C 192 686 202 669 231 663 Q 250 657 303 667 L 345 675 Z"/>
  <path id="z39385d2" d="M 222 690 Q 206 703 186 710 Q 170 716 161 707 Q 155 703 163 692 Q 178 662 179 478 Q 179 388 166 332 Q 160 313 174 299 Q 192 284 212 295 C 220 298 220 333 219 363 Q 213 645 231 663 C 237 679 237 679 222 690 Z"/>
  <path id="z39385d3" d="M 361 558 Q 380 565 403 571 Q 416 575 418 577 Q 424 584 420 591 Q 413 600 389 602 Q 376 603 363 599 L 315 581 Q 314 581 312 580 Q 296 576 275 571 Q 247 562 269 552 Q 284 546 315 545 L 361 558 Z"/>
  <path id="z39385d4" d="M 356 458 Q 374 465 396 471 Q 409 475 410 477 Q 417 484 412 491 Q 405 500 381 502 Q 369 503 358 499 L 314 482 Q 305 481 270 471 Q 242 462 265 452 Q 280 446 313 445 L 356 458 Z"/>
  <path id="z39385d5" d="M 358 499 Q 359 530 361 558 L 363 599 Q 363 611 366 633 Q 375 654 345 675 C 321 693 292 695 303 667 Q 315 643 315 581 L 315 545 Q 314 520 314 482 L 313 445 Q 313 405 313 355 C 313 325 352 332 353 362 Q 354 413 356 458 L 358 499 Z"/>
  <path id="z39385d6" d="M 212 295 Q 245 319 360 329 Q 393 333 407 321 Q 420 311 409 264 Q 408 212 402 158 Q 398 116 382 88 Q 375 78 354 79 Q 326 86 300 90 Q 287 94 287 87 Q 287 83 295 75 Q 344 32 363 2 Q 372 -16 387 -6 Q 441 27 447 84 Q 457 160 462 244 Q 468 280 484 310 Q 496 326 485 337 Q 467 356 431 375 Q 412 385 384 373 Q 366 366 353 362 L 313 355 Q 286 352 247 344 Q 220 338 219 363 C 206 390 186 281 212 295 Z"/>
  <path id="z39385d7" d="M 77 247 Q 71 193 55 142 Q 46 112 68 88 Q 78 75 92 90 Q 125 135 111 206 Q 107 234 96 252 Q 90 258 85 257 Q 78 254 77 247 Z"/>
  <path id="z39385d8" d="M 153 218 Q 163 170 177 152 Q 184 146 193 150 Q 200 154 204 165 Q 208 180 203 192 Q 184 237 159 244 Q 155 245 152 238 Q 151 231 153 218 Z"/>
  <path id="z39385d9" d="M 231 238 Q 240 202 257 179 Q 264 173 273 178 Q 280 182 283 194 Q 286 209 280 221 Q 276 230 249 256 Q 242 263 235 264 Q 231 265 229 258 Q 226 251 231 238 Z"/>
  <path id="z39385d10" d="M 316 243 Q 347 183 353 181 Q 360 180 366 185 Q 372 192 374 212 Q 375 225 360 243 Q 321 277 312 278 Q 308 277 306 269 Q 306 262 316 243 Z"/>
  <path id="z39385d11" d="M 520 472 Q 580 553 618 626 Q 633 657 647 674 Q 654 684 649 697 Q 643 709 615 727 Q 588 740 571 739 Q 553 735 563 716 Q 584 680 526 558 Q 499 501 459 437 Q 452 427 449 421 Q 448 411 460 414 Q 466 415 501 450 L 520 472 Z"/>
  <path id="z39385d12" d="M 501 450 Q 500 450 501 449 Q 525 374 525 350 Q 525 227 502 135 Q 490 86 525 45 L 526 43 Q 542 28 554 53 Q 567 92 567 135 Q 568 340 575 387 Q 582 412 573 422 Q 534 467 520 472 C 495 488 493 479 501 450 Z"/>
  <path id="z39385d13" d="M 835 449 Q 874 459 915 466 Q 960 476 967 483 Q 976 490 971 500 Q 964 512 934 519 Q 910 525 834 501 L 786 486 Q 776 485 767 482 Q 706 469 634 462 Q 597 456 623 438 Q 665 416 748 433 Q 766 437 787 440 L 835 449 Z"/>
  <path id="z39385d14" d="M 787 440 Q 788 314 793 119 Q 793 97 782 88 Q 776 85 720 98 Q 689 111 691 101 Q 692 94 710 79 Q 767 30 780 2 Q 796 -29 810 -32 Q 825 -33 839 1 Q 855 44 854 116 Q 838 282 835 449 L 834 501 Q 828 628 846 700 Q 862 730 808 749 Q 775 765 757 759 Q 741 752 756 730 Q 778 705 780 673 Q 781 654 786 486 L 787 440 Z"/>
  <path id="z39385d15" d="M 632 301 Q 654 274 678 242 Q 688 229 702 227 Q 711 226 717 237 Q 724 249 720 276 Q 719 295 692 314 Q 628 350 616 347 Q 612 344 611 333 Q 612 323 632 301 Z"/>
<defs>
  <clipPath id="z39385c1"><use href="#z39385d1"/></clipPath>
  <clipPath id="z39385c2"><use href="#z39385d2"/></clipPath>
  <clipPath id="z39385c3"><use href="#z39385d3"/></clipPath>
  <clipPath id="z39385c4"><use href="#z39385d4"/></clipPath>
  <clipPath id="z39385c5"><use href="#z39385d5"/></clipPath>
  <clipPath id="z39385c6"><use href="#z39385d6"/></clipPath>
  <clipPath id="z39385c7"><use href="#z39385d7"/></clipPath>
  <clipPath id="z39385c8"><use href="#z39385d8"/></clipPath>
  <clipPath id="z39385c9"><use href="#z39385d9"/></clipPath>
  <clipPath id="z39385c10"><use href="#z39385d10"/></clipPath>
  <clipPath id="z39385c11"><use href="#z39385d11"/></clipPath>
  <clipPath id="z39385c12"><use href="#z39385d12"/></clipPath>
  <clipPath id="z39385c13"><use href="#z39385d13"/></clipPath>
  <clipPath id="z39385c14"><use href="#z39385d14"/></clipPath>
  <clipPath id="z39385c15"><use href="#z39385d15"/></clipPath>
</defs>
<path style="--d:1s;" pathLength="3333" clip-path="url(#z39385c1)" d="M 230 685 L 243 677 L 273 679 L 393 708 L 455 714"/>
<path style="--d:2s;" pathLength="3333" clip-path="url(#z39385c2)" d="M 171 701 L 200 665 L 199 377 L 189 322 L 202 303"/>
<path style="--d:3s;" pathLength="3333" clip-path="url(#z39385c3)" d="M 270 562 L 307 561 L 383 585 L 411 585"/>
<path style="--d:4s;" pathLength="3333" clip-path="url(#z39385c4)" d="M 265 462 L 306 462 L 375 484 L 402 485"/>
<path style="--d:5s;" pathLength="3333" clip-path="url(#z39385c5)" d="M 311 665 L 339 642 L 334 384 L 318 363"/>
<path style="--d:6s;" pathLength="3333" clip-path="url(#z39385c6)" d="M 220 356 L 233 325 L 400 353 L 424 346 L 448 320 L 436 256 L 427 136 L 405 61 L 384 42 L 295 83"/>
<path style="--d:7s;" pathLength="3333" clip-path="url(#z39385c7)" d="M 87 247 L 92 194 L 79 96"/>
<path style="--d:8s;" pathLength="3333" clip-path="url(#z39385c8)" d="M 161 235 L 182 192 L 186 162"/>
<path style="--d:9s;" pathLength="3333" clip-path="url(#z39385c9)" d="M 236 257 L 263 209 L 266 189"/>
<path style="--d:10s;" pathLength="3333" clip-path="url(#z39385c10)" d="M 313 271 L 348 226 L 358 189"/>
<path style="--d:11s;" pathLength="3333" clip-path="url(#z39385c11)" d="M 572 726 L 596 706 L 607 685 L 594 647 L 559 570 L 520 503 L 457 421"/>
<path style="--d:12s;" pathLength="3333" clip-path="url(#z39385c12)" d="M 519 463 L 547 405 L 549 360 L 544 217 L 532 111 L 537 50"/>
<path style="--d:13s;" pathLength="3333" clip-path="url(#z39385c13)" d="M 626 451 L 669 445 L 716 449 L 887 489 L 960 494"/>
<path style="--d:14s;" pathLength="3333" clip-path="url(#z39385c14)" d="M 764 745 L 790 729 L 811 702 L 808 500 L 823 107 L 818 76 L 804 48 L 744 72 L 707 98 L 697 99"/>
<path style="--d:15s;" pathLength="3333" clip-path="url(#z39385c15)" d="M 619 338 L 682 286 L 703 242"/>
</svg>