<svg id="z39895" class="acjk" viewBox="0 0 1024 1024" xmlns="http://www.w3.org/2000/svg">
  <path id="z39895d1" d="M 385 780 Q 403 764 422 743 Q 435 731 450 731 Q 460 732 465 745 Q 469 758 461 787 Q 457 803 432 813 Q 369 831 360 827 Q 356 823 356 811 Q 360 801 385 780 Z"/>
  <path id="z39895d2" d="M 608 833 Q 596 815 539 749 Q 529 734 545 737 Q 596 761 644 792 Q 662 805 684 814 Q 703 821 694 838 Q 684 854 660 868 Q 639 881 627 880 Q 615 879 619 866 Q 620 850 608 833 Z"/>
  <path id="z39895d3" d="M 523 676 Q 703 706 709 712 Q 718 718 714 726 Q 708 736 684 744 Q 663 750 548 721 Q 445 702 345 695 Q 314 692 335 676 Q 365 655 438 665 Q 457 668 480 670 L 523 676 Z"/>
  <path id="z39895d4" d="M 535 594 Q 590 604 641 608 Q 665 611 657 624 Q 647 640 622 645 Q 603 648 539 636 L 485 625 Q 416 612 356 601 Q 340 598 359 582 Q 372 572 401 576 Q 443 583 486 588 L 535 594 Z"/>
  <path id="z39895d5" d="M 529 538 Q 532 569 535 594 C 539 624 538 633 539 636 Q 539 637 540 637 Q 547 653 539 662 Q 532 671 523 676 C 498 692 475 700 480 670 Q 481 666 485 625 L 486 588 Q 486 566 488 533 C 490 503 526 508 529 538 Z"/>
  <path id="z39895d6" d="M 623 512 Q 825 512 833 519 Q 833 520 834 521 Q 838 531 825 544 Q 777 580 745 572 Q 664 557 529 538 L 488 533 Q 364 520 223 504 Q 204 503 218 486 Q 231 474 247 469 Q 266 465 280 468 Q 314 477 352 483 L 397 491 Q 475 507 588 510 L 623 512 Z"/>
  <path id="z39895d7" d="M 352 483 Q 342 422 219 334 Q 216 334 214 331 Q 177 306 87 258 Q 80 255 88 251 Q 148 244 271 321 Q 274 324 278 326 Q 323 357 398 425 Q 408 434 414 437 Q 421 440 422 450 Q 423 459 415 472 Q 408 484 397 491 C 374 510 359 512 352 483 Z"/>
  <path id="z39895d8" d="M 588 510 Q 769 311 814 298 Q 874 289 976 309 Q 994 312 995 317 Q 998 324 983 329 Q 803 390 791 397 Q 718 439 623 512 C 599 530 568 532 588 510 Z"/>
  <path id="z39895d9" d="M 483 399 Q 496 412 507 418 Q 514 422 513 433 Q 512 442 497 461 Q 482 477 470 480 Q 457 481 459 466 Q 463 453 456 443 Q 423 389 349 323 Q 340 319 338 314 Q 334 307 344 307 Q 371 307 463 381 L 483 399 Z"/>
  <path id="z39895d10" d="M 556 307 Q 601 352 646 376 Q 662 383 653 396 Q 641 409 610 429 Q 595 436 582 427 Q 573 423 509 405 Q 497 402 483 399 C 454 393 434 388 463 381 Q 476 374 554 385 Q 561 386 563 385 Q 566 382 561 375 Q 533 329 515 302 C 498 277 535 286 556 307 Z"/>
  <path id="z39895d11" d="M 356 278 Q 344 282 329 283 Q 317 286 315 281 Q 309 274 318 260 Q 346 208 367 121 Q 371 96 388 78 Q 406 59 410 73 Q 411 77 412 83 L 411 111 Q 410 121 408 131 Q 389 213 384 244 Q 384 245 385 245 C 385 270 385 270 356 278 Z"/>
  <path id="z39895d12" d="M 621 98 Q 621 94 623 87 Q 627 72 640 73 Q 653 74 661 88 Q 671 101 694 166 Q 712 215 748 244 Q 767 259 751 274 Q 735 292 686 318 Q 671 327 606 314 Q 582 314 556 307 L 515 302 Q 478 298 448 292 Q 396 283 356 278 C 326 274 356 238 385 245 Q 421 255 480 263 L 519 269 Q 628 288 654 275 Q 663 271 657 243 Q 636 141 623 117 L 621 98 Z"/>
  <path id="z39895d13" d="M 534 178 Q 565 182 595 183 Q 616 186 608 197 Q 601 210 578 216 Q 562 220 537 215 L 487 204 Q 456 197 427 191 Q 412 188 430 174 Q 436 170 488 173 L 534 178 Z"/>
  <path id="z39895d14" d="M 529 127 Q 530 155 534 178 C 539 208 531 199 537 215 Q 537 216 538 216 Q 544 243 538 252 Q 528 262 519 269 C 496 288 473 292 480 263 Q 483 254 487 204 L 488 173 Q 488 152 489 121 C 490 91 528 97 529 127 Z"/>
  <path id="z39895d15" d="M 412 83 Q 415 83 420 83 Q 483 92 621 98 C 638 99 638 99 623 117 Q 619 124 606 132 Q 591 142 529 127 L 489 121 Q 446 117 411 111 C 381 106 382 83 412 83 Z"/>
  <path id="z39895d16" d="M 263 75 Q 235 29 199 -11 Q 175 -44 187 -74 Q 191 -93 213 -83 Q 267 -56 280 16 Q 289 47 286 71 Q 282 80 277 82 Q 268 82 263 75 Z"/>
  <path id="z39895d17" d="M 380 19 Q 395 -36 415 -57 Q 425 -64 436 -58 Q 445 -51 449 -37 Q 453 -3 417 31 Q 396 52 383 54 Q 379 55 376 45 Q 373 35 380 19 Z"/>
  <path id="z39895d18" d="M 533 24 Q 560 -30 583 -46 Q 593 -50 604 -42 Q 611 -33 613 -20 Q 610 16 551 52 Q 539 59 530 58 Q 526 58 525 48 Q 524 38 533 24 Z"/>
  <path id="z39895d19" d="M 680 30 Q 722 -10 772 -70 Q 787 -89 801 -93 Q 810 -94 817 -86 Q 829 -73 818 -32 Q 811 7 745 35 Q 705 51 682 60 Q 673 64 671 53 Q 670 40 680 30 Z"/>
<defs>
  <clipPath id="z39895c1"><use href="#z39895d1"/></clipPath>
  <clipPath id="z39895c2"><use href="#z39895d2"/></clipPath>
  <clipPath id="z39895c3"><use href="#z39895d3"/></clipPath>
  <clipPath id="z39895c4"><use href="#z39895d4"/></clipPath>
  <clipPath id="z39895c5"><use href="#z39895d5"/></clipPath>
  <clipPath id="z39895c6"><use href="#z39895d6"/></clipPath>
  <clipPath id="z39895c7"><use href="#z39895d7"/></clipPath>
  <clipPath id="z39895c8"><use href="#z39895d8"/></clipPath>
  <clipPath id="z39895c9"><use href="#z39895d9"/></clipPath>
  <clipPath id="z39895c10"><use href="#z39895d10"/></clipPath>
  <clipPath id="z39895c11"><use href="#z39895d11"/></clipPath>
  <clipPath id="z39895c12"><use href="#z39895d12"/></clipPath>
  <clipPath id="z39895c13"><use href="#z39895d13"/></clipPath>
  <clipPath id="z39895c14"><use href="#z39895d14"/></clipPath>
  <clipPath id="z39895c15"><use href="#z39895d15"/></clipPath>
  <clipPath id="z39895c16"><use href="#z39895d16"/></clipPath>
  <clipPath id="z39895c17"><use href="#z39895d17"/></clipPath>
  <clipPath id="z39895c18"><use href="#z39895d18"/></clipPath>
  <clipPath id="z39895c19"><use href="#z39895d19"/></clipPath>
</defs>
<path style="--d:1s;" pathLength="3333" clip-path="url(#z39895c1)" d="M 364 821 L 426 783 L 447 749"/>
<path style="--d:2s;" pathLength="3333" clip-path="url(#z39895c2)" d="M 627 871 L 647 833 L 582 773 L 551 754 L 548 746"/>
<path style="--d:3s;" pathLength="3333" clip-path="url(#z39895c3)" d="M 338 687 L 365 680 L 408 680 L 535 696 L 656 722 L 703 722"/>
<path style="--d:4s;" pathLength="3333" clip-path="url(#z39895c4)" d="M 358 592 L 391 591 L 610 626 L 646 619"/>
<path style="--d:5s;" pathLength="3333" clip-path="url(#z39895c5)" d="M 488 668 L 511 645 L 512 632 L 510 563 L 494 541"/>
<path style="--d:6s;" pathLength="3333" clip-path="url(#z39895c6)" d="M 221 495 L 272 488 L 453 516 L 760 543 L 806 535 L 831 521"/>
<path style="--d:7s;" pathLength="3333" clip-path="url(#z39895c7)" d="M 361 476 L 379 454 L 300 369 L 252 331 L 187 292 L 112 260 L 97 261 L 93 255"/>
<path style="--d:8s;" pathLength="3333" clip-path="url(#z39895c8)" d="M 606 502 L 636 484 L 750 385 L 810 346 L 856 332 L 989 319"/>
<path style="--d:9s;" pathLength="3333" clip-path="url(#z39895c9)" d="M 468 470 L 480 452 L 482 434 L 409 357 L 346 315"/>
<path style="--d:10s;" pathLength="3333" clip-path="url(#z39895c10)" d="M 474 383 L 564 403 L 598 394 L 590 374 L 561 337 L 522 304"/>
<path style="--d:11s;" pathLength="3333" clip-path="url(#z39895c11)" d="M 323 274 L 345 258 L 359 235 L 400 79"/>
<path style="--d:12s;" pathLength="3333" clip-path="url(#z39895c12)" d="M 363 275 L 391 265 L 638 300 L 665 297 L 682 288 L 701 256 L 639 89"/>
<path style="--d:13s;" pathLength="3333" clip-path="url(#z39895c13)" d="M 428 182 L 476 184 L 560 200 L 600 192"/>
<path style="--d:14s;" pathLength="3333" clip-path="url(#z39895c14)" d="M 487 261 L 512 237 L 513 229 L 510 149 L 495 129"/>
<path style="--d:15s;" pathLength="3333" clip-path="url(#z39895c15)" d="M 416 90 L 426 99 L 450 103 L 580 117 L 602 115 L 610 104"/>
<path style="--d:16s;" pathLength="3333" clip-path="url(#z39895c16)" d="M 274 70 L 253 13 L 202 -72"/>
<path style="--d:17s;" pathLength="3333" clip-path="url(#z39895c17)" d="M 385 45 L 423 -22 L 426 -42"/>
<path style="--d:18s;" pathLength="3333" clip-path="url(#z39895c18)" d="M 534 50 L 580 -5 L 590 -30"/>
<path style="--d:19s;" pathLength="3333" clip-path="url(#z39895c19)" d="M 682 48 L 774 -20 L 803 -76"/>
</svg>