<svg id="z33279" class="acjk" viewBox="0 0 1024 1024" xmlns="http://www.w3.org/2000/svg">
  <path id="z33279d1" d="M 505 691 Q 604 730 656 735 Q 675 735 681 744 Q 685 756 673 769 Q 651 788 601 812 Q 585 822 569 821 Q 560 817 559 805 Q 556 772 373 689 Q 327 670 270 649 Q 263 639 270 636 Q 274 636 451 675 L 505 691 Z"/>
  <path id="z33279d2" d="M 547 509 Q 668 522 836 522 Q 869 522 899 523 Q 923 523 928 533 Q 935 546 915 563 Q 848 614 766 590 Q 676 574 549 551 L 480 541 Q 311 519 115 494 Q 90 491 108 471 Q 124 455 146 449 Q 171 442 190 448 Q 332 488 480 502 L 547 509 Z"/>
  <path id="z33279d3" d="M 532 87 Q 539 420 547 509 L 549 551 Q 552 600 561 620 Q 574 642 558 657 Q 530 679 505 691 C 479 705 438 702 451 675 Q 451 672 454 668 Q 479 626 480 541 L 480 502 Q 480 303 480 79 C 480 49 531 57 532 87 Z"/>
  <path id="z33279d4" d="M 262 301 Q 296 317 319 331 Q 376 365 405 375 Q 426 382 418 400 Q 408 418 384 434 Q 362 449 350 447 Q 338 447 341 434 Q 341 413 268 337 Q 259 330 250 319 C 230 296 235 288 262 301 Z"/>
  <path id="z33279d5" d="M 292 60 L 290 68 Q 281 147 274 176 L 269 212 Q 265 255 263 292 Q 263 296 262 301 L 250 319 L 248 321 Q 217 342 184 349 Q 177 352 171 346 Q 162 339 173 327 Q 224 249 235 62 Q 236 2 275 -32 Q 278 -35 283 -37 Q 302 -41 303 -8 Q 303 5 301 19 L 292 60 Z"/>
  <path id="z33279d6" d="M 274 176 Q 284 182 409 199 Q 439 206 426 222 Q 411 240 378 243 Q 330 246 269 212 C 243 198 246 166 274 176 Z"/>
  <path id="z33279d7" d="M 673 48 Q 688 33 714 -33 Q 726 -55 746 -42 Q 782 -21 808 121 Q 844 335 860 365 Q 875 389 854 404 Q 782 464 738 443 Q 663 413 581 397 Q 571 396 571 383 Q 572 371 593 364 Q 626 355 673 374 Q 749 410 768 403 Q 778 396 778 370 Q 772 315 763 256 L 757 219 Q 733 80 722 72 C 710 44 656 73 673 48 Z"/>
  <path id="z33279d8" d="M 763 256 Q 724 277 616 240 Q 615 240 613 239 Q 594 236 617 217 Q 624 211 639 213 Q 706 217 757 219 C 787 220 790 243 763 256 Z"/>
  <path id="z33279d9" d="M 480 79 Q 378 66 292 60 C 262 58 271 24 301 19 Q 314 15 331 18 Q 443 39 673 48 C 703 49 743 51 722 72 Q 713 82 690 100 Q 671 112 631 105 Q 580 96 532 87 L 480 79 Z"/>
<defs>
  <clipPath id="z33279c1"><use href="#z33279d1"/></clipPath>
  <clipPath id="z33279c2"><use href="#z33279d2"/></clipPath>
  <clipPath id="z33279c3"><use href="#z33279d3"/></clipPath>
  <clipPath id="z33279c4"><use href="#z33279d4"/></clipPath>
  <clipPath id="z33279c5"><use href="#z33279d5"/></clipPath>
  <clipPath id="z33279c6"><use href="#z33279d6"/></clipPath>
  <clipPath id="z33279c7"><use href="#z33279d7"/></clipPath>
  <clipPath id="z33279c8"><use href="#z33279d8"/></clipPath>
  <clipPath id="z33279c9"><use href="#z33279d9"/></clipPath>
</defs>
<path style="--d:1s;" pathLength="3333" clip-path="url(#z33279c1)" d="M 669 750 L 591 768 L 523 730 L 433 691 L 270 643"/>
<path style="--d:2s;" pathLength="3333" clip-path="url(#z33279c2)" d="M 112 482 L 170 473 L 403 513 L 809 560 L 867 555 L 915 540"/>
<path style="--d:3s;" pathLength="3333" clip-path="url(#z33279c3)" d="M 459 674 L 505 648 L 516 631 L 508 124 L 506 109 L 485 87"/>
<path style="--d:4s;" pathLength="3333" clip-path="url(#z33279c4)" d="M 354 435 L 368 400 L 267 318 L 266 310"/>
<path style="--d:5s;" pathLength="3333" clip-path="url(#z33279c5)" d="M 179 337 L 216 308 L 229 289 L 254 145 L 263 55 L 287 -24"/>
<path style="--d:6s;" pathLength="3333" clip-path="url(#z33279c6)" d="M 274 182 L 291 201 L 314 209 L 382 219 L 414 213"/>
<path style="--d:7s;" pathLength="3333" clip-path="url(#z33279c7)" d="M 582 385 L 633 385 L 738 422 L 768 426 L 799 410 L 820 379 L 762 71 L 738 29 L 680 49"/>
<path style="--d:8s;" pathLength="3333" clip-path="url(#z33279c8)" d="M 615 228 L 739 241 L 756 251"/>
<path style="--d:9s;" pathLength="3333" clip-path="url(#z33279c9)" d="M 300 55 L 320 39 L 629 76 L 681 78 L 714 72"/>
</svg>