<svg id="z31729" class="acjk" viewBox="0 0 1024 1024" xmlns="http://www.w3.org/2000/svg">
  <path id="z31729d1" d="M 355 744 Q 362 757 372 767 Q 382 777 369 791 Q 333 821 308 818 Q 298 817 300 803 Q 309 728 227 633 Q 223 633 193 595 Q 186 582 199 585 Q 241 589 315 682 Q 336 716 341 722 L 355 744 Z"/>
  <path id="z31729d2" d="M 341 722 Q 377 710 447 725 Q 471 731 499 737 Q 517 741 520 744 Q 527 751 523 758 Q 516 768 491 773 Q 466 777 440 766 Q 413 757 355 744 C 326 737 312 730 341 722 Z"/>
  <path id="z31729d3" d="M 343 653 Q 386 602 404 601 Q 416 600 420 616 Q 421 626 413 643 Q 406 656 387 662 Q 359 674 346 675 Q 339 676 338 667 Q 337 660 343 653 Z"/>
  <path id="z31729d4" d="M 616 768 Q 631 793 646 814 Q 653 824 641 837 Q 599 864 581 859 Q 572 858 575 844 Q 584 775 520 694 Q 516 688 512 682 Q 506 669 519 674 Q 555 680 603 748 L 616 768 Z"/>
  <path id="z31729d5" d="M 603 748 Q 636 730 700 742 Q 745 751 794 759 Q 819 765 823 768 Q 830 775 827 782 Q 820 792 795 798 Q 770 804 744 794 Q 716 784 685 778 Q 652 772 616 768 C 586 765 576 761 603 748 Z"/>
  <path id="z31729d6" d="M 628 671 Q 658 649 689 622 Q 699 613 710 614 Q 717 615 721 624 Q 725 636 717 657 Q 713 675 684 688 Q 618 712 608 706 Q 604 703 606 694 Q 609 687 628 671 Z"/>
  <path id="z31729d7" d="M 545 591 Q 548 601 541 623 Q 537 636 516 644 Q 465 659 456 655 Q 452 651 453 641 Q 457 634 478 617 Q 493 605 512 584 C 532 562 539 562 545 591 Z"/>
  <path id="z31729d8" d="M 562 555 Q 572 559 679 570 Q 689 569 697 580 Q 698 590 678 600 Q 648 622 566 596 Q 556 595 545 591 L 512 584 Q 436 571 324 558 Q 299 555 318 539 Q 349 517 373 521 Q 446 537 541 551 L 562 555 Z"/>
  <path id="z31729d9" d="M 545 463 Q 596 515 597 518 Q 597 525 590 535 Q 581 545 562 555 C 542 566 542 566 541 551 Q 541 523 507 481 Q 506 480 503 476 L 478 448 Q 472 444 467 438 Q 445 419 394 384 Q 387 381 395 378 Q 437 378 510 432 L 545 463 Z"/>
  <path id="z31729d10" d="M 510 432 Q 589 395 592 394 Q 598 395 600 402 Q 604 412 589 435 Q 577 456 545 463 L 503 476 Q 463 489 403 498 Q 397 499 398 491 Q 401 484 409 479 Q 442 466 478 448 L 510 432 Z"/>
  <path id="z31729d11" d="M 498 342 Q 526 349 556 353 Q 649 366 668 358 C 698 353 696 392 666 390 Q 491 380 360 347 Q 345 346 351 362 Q 367 431 362 443 Q 352 458 333 471 Q 324 478 316 477 Q 306 474 311 458 Q 323 421 313 385 Q 306 352 290 338 Q 274 325 279 313 Q 286 300 300 290 Q 310 283 319 289 Q 338 310 458 334 L 498 342 Z"/>
  <path id="z31729d12" d="M 668 358 Q 672 342 677 328 Q 684 313 696 323 Q 717 342 726 418 Q 738 445 745 452 Q 752 465 744 477 Q 728 492 699 510 Q 689 517 677 512 Q 670 509 672 497 Q 678 491 685 453 Q 684 444 666 390 L 668 358 Z"/>
  <path id="z31729d13" d="M 241 226 Q 220 239 209 242 Q 205 245 199 239 Q 195 233 199 221 Q 223 176 210 55 Q 206 33 214 15 Q 224 -4 240 -15 Q 253 -24 255 -14 Q 262 -10 264 9 Q 268 22 265 69 Q 264 150 266 179 Q 267 183 267 186 C 270 209 267 211 241 226 Z"/>
  <path id="z31729d14" d="M 500 241 Q 734 280 758 253 Q 767 246 763 231 Q 762 77 751 55 Q 747 45 734 47 Q 698 53 659 60 Q 632 61 652 44 Q 728 -4 761 -42 Q 771 -55 782 -45 Q 807 -18 815 76 Q 819 209 835 231 Q 850 252 843 260 Q 836 273 784 304 Q 765 319 750 312 Q 722 300 669 291 Q 584 282 522 273 L 460 264 Q 394 257 358 246 Q 294 233 245 227 Q 244 227 241 226 C 211 222 237 182 267 186 Q 280 185 296 190 Q 350 211 447 231 L 500 241 Z"/>
  <path id="z31729d15" d="M 583 162 Q 573 162 558 159 Q 485 143 442 136 Q 436 139 436 143 Q 435 144 500 241 L 522 273 Q 523 276 526 279 Q 548 298 530 316 Q 514 335 498 342 C 472 357 443 360 458 334 Q 468 324 468 302 Q 468 289 460 264 L 447 231 Q 405 144 385 135 Q 345 120 359 75 L 361 72 Q 368 59 382 69 Q 397 91 568 134 Q 584 138 595 143 C 623 154 613 165 583 162 Z"/>
  <path id="z31729d16" d="M 595 143 Q 628 97 635 94 Q 642 93 649 101 Q 656 111 656 135 Q 656 169 580 213 Q 570 219 564 218 Q 560 217 558 207 Q 558 204 583 162 L 595 143 Z"/>
<defs>
  <clipPath id="z31729c1"><use href="#z31729d1"/></clipPath>
  <clipPath id="z31729c2"><use href="#z31729d2"/></clipPath>
  <clipPath id="z31729c3"><use href="#z31729d3"/></clipPath>
  <clipPath id="z31729c4"><use href="#z31729d4"/></clipPath>
  <clipPath id="z31729c5"><use href="#z31729d5"/></clipPath>
  <clipPath id="z31729c6"><use href="#z31729d6"/></clipPath>
  <clipPath id="z31729c7"><use href="#z31729d7"/></clipPath>
  <clipPath id="z31729c8"><use href="#z31729d8"/></clipPath>
  <clipPath id="z31729c9"><use href="#z31729d9"/></clipPath>
  <clipPath id="z31729c10"><use href="#z31729d10"/></clipPath>
  <clipPath id="z31729c11"><use href="#z31729d11"/></clipPath>
  <clipPath id="z31729c12"><use href="#z31729d12"/></clipPath>
  <clipPath id="z31729c13"><use href="#z31729d13"/></clipPath>
  <clipPath id="z31729c14"><use href="#z31729d14"/></clipPath>
  <clipPath id="z31729c15"><use href="#z31729d15"/></clipPath>
  <clipPath id="z31729c16"><use href="#z31729d16"/></clipPath>
</defs>
<path style="--d:1s;" pathLength="3333" clip-path="url(#z31729c1)" d="M 310 808 L 334 775 L 303 703 L 256 639 L 202 594"/>
<path style="--d:2s;" pathLength="3333" clip-path="url(#z31729c2)" d="M 348 725 L 473 753 L 512 753"/>
<path style="--d:3s;" pathLength="3333" clip-path="url(#z31729c3)" d="M 349 664 L 389 636 L 404 617"/>
<path style="--d:4s;" pathLength="3333" clip-path="url(#z31729c4)" d="M 583 849 L 606 822 L 603 801 L 570 733 L 522 684"/>
<path style="--d:5s;" pathLength="3333" clip-path="url(#z31729c5)" d="M 610 750 L 688 758 L 776 779 L 816 777"/>
<path style="--d:6s;" pathLength="3333" clip-path="url(#z31729c6)" d="M 613 699 L 681 663 L 707 629"/>
<path style="--d:7s;" pathLength="3333" clip-path="url(#z31729c7)" d="M 461 647 L 499 628 L 538 596"/>
<path style="--d:8s;" pathLength="3333" clip-path="url(#z31729c8)" d="M 320 549 L 358 541 L 629 588 L 687 582"/>
<path style="--d:9s;" pathLength="3333" clip-path="url(#z31729c9)" d="M 548 544 L 563 521 L 540 486 L 477 425 L 400 382"/>
<path style="--d:10s;" pathLength="3333" clip-path="url(#z31729c10)" d="M 405 491 L 563 432 L 593 401"/>
<path style="--d:11s;" pathLength="3333" clip-path="url(#z31729c11)" d="M 319 468 L 340 434 L 325 330 L 366 329 L 453 351 L 591 372 L 653 375 L 666 363"/>
<path style="--d:12s;" pathLength="3333" clip-path="url(#z31729c12)" d="M 685 501 L 714 462 L 694 392 L 688 330"/>
<path style="--d:13s;" pathLength="3333" clip-path="url(#z31729c13)" d="M 206 233 L 225 213 L 239 180 L 237 45 L 247 -2"/>
<path style="--d:14s;" pathLength="3333" clip-path="url(#z31729c14)" d="M 252 221 L 284 209 L 404 240 L 485 254 L 697 281 L 765 283 L 793 260 L 801 246 L 794 218 L 785 65 L 774 28 L 764 12 L 750 14 L 653 53"/>
<path style="--d:15s;" pathLength="3333" clip-path="url(#z31729c15)" d="M 465 333 L 493 314 L 501 300 L 464 218 L 420 149 L 417 121 L 446 118 L 567 148 L 587 145"/>
<path style="--d:16s;" pathLength="3333" clip-path="url(#z31729c16)" d="M 567 209 L 629 140 L 639 104"/>
</svg>