<svg id="z35315" class="acjk" viewBox="0 0 1024 1024" xmlns="http://www.w3.org/2000/svg">
  <path id="z35315d1" d="M 367 704 Q 401 713 437 720 Q 474 729 479 733 Q 486 740 482 747 Q 476 756 453 762 Q 426 766 372 745 C 344 734 340 733 323 731 Q 320 732 319 731 Q 270 721 211 714 Q 181 710 202 695 Q 232 679 295 690 Q 308 693 324 696 L 367 704 Z"/>
  <path id="z35315d2" d="M 359 651 Q 363 679 367 704 L 372 745 Q 373 751 374 755 Q 377 768 380 778 Q 383 787 385 793 Q 388 800 372 813 Q 345 829 327 832 Q 314 835 308 829 Q 302 823 308 811 Q 318 796 323 731 L 324 696 Q 324 671 324 641 C 324 611 355 621 359 651 Z"/>
  <path id="z35315d3" d="M 324 641 Q 240 626 234 625 Q 215 621 230 610 Q 248 595 287 602 Q 324 612 441 633 Q 448 632 454 641 Q 455 650 438 656 Q 417 671 359 651 L 324 641 Z"/>
  <path id="z35315d4" d="M 166 534 L 166 535 Q 156 554 145 562 Q 129 572 128 551 Q 135 524 83 456 Q 65 437 91 390 Q 104 369 120 392 Q 124 401 162 503 L 166 534 Z"/>
  <path id="z35315d5" d="M 162 503 Q 175 500 189 504 Q 288 546 420 559 Q 435 562 441 560 Q 454 553 454 547 Q 445 516 436 482 L 437 481 Q 441 478 454 487 Q 491 515 524 526 Q 549 535 549 541 Q 548 548 492 586 Q 473 598 402 581 Q 399 581 166 534 C 137 528 132 506 162 503 Z"/>
  <path id="z35315d6" d="M 265 445 Q 304 457 401 474 Q 408 474 415 484 Q 415 493 397 500 Q 366 509 313 493 Q 306 492 299 489 Q 283 485 194 466 Q 172 462 190 450 Q 199 443 210 438 Q 214 435 247 441 L 265 445 Z"/>
  <path id="z35315d7" d="M 298 406 Q 298 415 282 433 Q 273 442 265 445 C 244 455 244 455 247 441 Q 247 440 248 435 Q 257 398 146 289 Q 139 285 138 281 Q 135 275 143 275 Q 150 275 184 297 L 206 314 Q 207 315 211 318 Q 238 339 269 373 Q 275 382 282 387 C 299 402 299 402 298 406 Z"/>
  <path id="z35315d8" d="M 337 321 Q 368 358 415 383 Q 428 389 420 399 Q 411 409 386 426 Q 379 429 317 411 Q 314 411 298 406 C 269 397 252 390 282 387 Q 297 384 340 391 Q 344 392 346 391 Q 349 388 345 383 Q 315 325 303 312 C 284 289 317 298 337 321 Z"/>
  <path id="z35315d9" d="M 184 297 Q 217 171 153 47 Q 144 28 136 11 Q 132 7 131 2 Q 130 -5 137 -4 Q 165 3 201 83 Q 229 150 233 231 Q 234 246 235 260 Q 235 264 236 268 C 239 294 239 294 234 298 Q 224 308 206 314 C 178 325 177 325 184 297 Z"/>
  <path id="z35315d10" d="M 323 290 Q 344 297 372 302 Q 390 308 399 299 Q 406 295 407 267 Q 419 60 399 44 Q 390 37 340 41 Q 328 42 329 36 Q 330 30 340 27 Q 386 -1 410 -23 Q 426 -36 434 -35 Q 443 -32 451 -12 Q 461 21 459 67 Q 447 259 459 284 Q 468 300 460 308 Q 453 318 418 336 Q 405 342 391 339 Q 372 332 337 321 L 303 312 Q 267 305 234 298 C 205 292 206 263 236 268 Q 240 268 249 269 Q 265 276 288 281 L 323 290 Z"/>
  <path id="z35315d11" d="M 331 207 Q 358 214 382 217 Q 400 221 393 230 Q 384 240 365 244 Q 352 245 333 241 L 295 228 Q 273 221 253 214 Q 240 210 256 199 Q 263 195 275 197 Q 285 200 295 200 L 331 207 Z"/>
  <path id="z35315d12" d="M 327 131 Q 355 138 382 141 Q 400 145 393 154 Q 384 164 365 168 Q 350 169 328 163 L 294 153 Q 267 146 245 138 Q 232 134 248 123 Q 251 122 294 126 L 327 131 Z"/>
  <path id="z35315d13" d="M 328 163 Q 329 182 331 207 L 333 241 Q 334 254 338 268 Q 339 278 332 284 Q 328 288 323 290 C 297 306 277 309 288 281 Q 297 263 295 228 L 295 200 Q 294 179 294 153 L 294 126 Q 294 30 302 18 Q 305 14 310 15 Q 314 16 317 26 Q 326 57 327 131 L 328 163 Z"/>
  <path id="z35315d14" d="M 612 704 Q 600 713 583 719 Q 568 726 559 722 Q 550 716 556 706 Q 583 661 563 539 Q 562 536 561 532 Q 554 499 524 433 Q 520 427 519 423 Q 518 414 525 417 Q 555 424 587 499 Q 612 560 616 635 Q 617 648 618 662 Q 618 668 620 673 C 624 696 624 696 612 704 Z"/>
  <path id="z35315d15" d="M 890 487 Q 903 491 895 506 Q 882 522 866 531 Q 856 537 836 528 Q 806 515 770 516 Q 748 517 740 534 Q 727 556 739 618 Q 742 655 779 695 Q 794 708 779 721 Q 758 739 735 748 Q 726 752 711 743 Q 666 719 612 704 C 583 696 591 664 620 673 Q 638 677 682 698 Q 695 705 702 704 Q 709 703 709 691 Q 705 645 699 604 Q 689 556 699 524 Q 703 502 724 488 Q 752 472 808 472 Q 862 473 890 487 Z"/>
  <path id="z35315d16" d="M 701 179 Q 744 242 772 341 Q 778 375 795 392 Q 810 405 792 420 Q 771 433 739 444 Q 720 450 699 439 Q 650 408 579 392 Q 554 388 544 380 Q 537 373 554 366 Q 579 356 615 370 Q 655 383 695 395 Q 714 402 715 382 Q 715 294 664 213 L 642 182 Q 594 134 480 94 Q 465 90 475 82 Q 482 78 509 82 Q 587 92 632 116 Q 653 128 671 145 L 701 179 Z"/>
  <path id="z35315d17" d="M 671 145 Q 770 27 808 21 Q 892 18 957 24 Q 991 27 989 36 Q 986 43 900 71 Q 765 120 701 179 L 664 213 Q 628 249 592 290 Q 561 327 529 328 Q 513 329 510 325 Q 509 319 521 309 Q 563 279 642 182 L 671 145 Z"/>
<defs>
  <clipPath id="z35315c1"><use href="#z35315d1"/></clipPath>
  <clipPath id="z35315c2"><use href="#z35315d2"/></clipPath>
  <clipPath id="z35315c3"><use href="#z35315d3"/></clipPath>
  <clipPath id="z35315c4"><use href="#z35315d4"/></clipPath>
  <clipPath id="z35315c5"><use href="#z35315d5"/></clipPath>
  <clipPath id="z35315c6"><use href="#z35315d6"/></clipPath>
  <clipPath id="z35315c7"><use href="#z35315d7"/></clipPath>
  <clipPath id="z35315c8"><use href="#z35315d8"/></clipPath>
  <clipPath id="z35315c9"><use href="#z35315d9"/></clipPath>
  <clipPath id="z35315c10"><use href="#z35315d10"/></clipPath>
  <clipPath id="z35315c11"><use href="#z35315d11"/></clipPath>
  <clipPath id="z35315c12"><use href="#z35315d12"/></clipPath>
  <clipPath id="z35315c13"><use href="#z35315d13"/></clipPath>
  <clipPath id="z35315c14"><use href="#z35315d14"/></clipPath>
  <clipPath id="z35315c15"><use href="#z35315d15"/></clipPath>
  <clipPath id="z35315c16"><use href="#z35315d16"/></clipPath>
  <clipPath id="z35315c17"><use href="#z35315d17"/></clipPath>
</defs>
<path style="--d:1s;" pathLength="3333" clip-path="url(#z35315c1)" d="M 204 706 L 235 701 L 283 705 L 417 738 L 471 742"/>
<path style="--d:2s;" pathLength="3333" clip-path="url(#z35315c2)" d="M 317 821 L 349 789 L 342 666 L 328 648"/>
<path style="--d:3s;" pathLength="3333" clip-path="url(#z35315c3)" d="M 238 616 L 276 615 L 393 644 L 445 642"/>
<path style="--d:4s;" pathLength="3333" clip-path="url(#z35315c4)" d="M 137 555 L 147 529 L 139 498 L 105 433 L 105 395"/>
<path style="--d:5s;" pathLength="3333" clip-path="url(#z35315c5)" d="M 169 510 L 183 523 L 235 538 L 438 575 L 467 569 L 488 548 L 440 485"/>
<path style="--d:6s;" pathLength="3333" clip-path="url(#z35315c6)" d="M 190 458 L 221 454 L 355 485 L 406 485"/>
<path style="--d:7s;" pathLength="3333" clip-path="url(#z35315c7)" d="M 252 439 L 263 430 L 270 411 L 250 379 L 208 333 L 177 309 L 171 296 L 157 296 L 155 286 L 145 282"/>
<path style="--d:8s;" pathLength="3333" clip-path="url(#z35315c8)" d="M 287 391 L 352 406 L 376 395 L 329 329 L 312 320"/>
<path style="--d:9s;" pathLength="3333" clip-path="url(#z35315c9)" d="M 197 292 L 211 286 L 213 274 L 214 209 L 206 150 L 176 58 L 139 4"/>
<path style="--d:10s;" pathLength="3333" clip-path="url(#z35315c10)" d="M 242 276 L 257 289 L 391 321 L 416 314 L 432 291 L 436 79 L 430 38 L 418 15 L 337 34"/>
<path style="--d:11s;" pathLength="3333" clip-path="url(#z35315c11)" d="M 263 208 L 342 227 L 369 230 L 385 225"/>
<path style="--d:12s;" pathLength="3333" clip-path="url(#z35315c12)" d="M 251 131 L 350 152 L 385 149"/>
<path style="--d:13s;" pathLength="3333" clip-path="url(#z35315c13)" d="M 295 278 L 315 265 L 309 24"/>
<path style="--d:14s;" pathLength="3333" clip-path="url(#z35315c14)" d="M 564 713 L 592 682 L 592 597 L 569 495 L 527 425"/>
<path style="--d:15s;" pathLength="3333" clip-path="url(#z35315c15)" d="M 623 679 L 631 693 L 683 715 L 714 722 L 729 718 L 741 705 L 722 637 L 713 566 L 717 534 L 731 509 L 769 495 L 800 494 L 856 505 L 887 498"/>
<path style="--d:16s;" pathLength="3333" clip-path="url(#z35315c16)" d="M 552 375 L 602 381 L 715 420 L 736 412 L 751 395 L 738 325 L 715 255 L 669 177 L 643 151 L 606 127 L 551 104 L 480 87"/>
<path style="--d:17s;" pathLength="3333" clip-path="url(#z35315c17)" d="M 515 323 L 563 295 L 713 134 L 785 78 L 818 60 L 985 35"/>
</svg>