<svg id="z36897" class="acjk" viewBox="0 0 1024 1024" xmlns="http://www.w3.org/2000/svg">
  <path id="z36897d1" d="M 713 657 Q 626 647 534 627 Q 524 624 521 627 Q 520 630 525 638 Q 621 746 641 763 Q 654 772 648 785 Q 642 798 597 823 Q 581 832 572 829 Q 559 825 563 803 Q 579 743 481 652 Q 462 636 435 620 Q 420 610 424 598 Q 428 582 452 560 Q 462 548 475 558 Q 517 591 729 634 C 758 640 743 661 713 657 Z"/>
  <path id="z36897d2" d="M 729 634 Q 756 589 770 586 Q 779 585 785 593 Q 792 603 792 629 Q 792 665 705 717 Q 695 723 688 722 Q 684 721 682 710 Q 682 701 713 657 L 729 634 Z"/>
  <path id="z36897d3" d="M 458 525 Q 454 480 359 387 Q 343 374 365 377 Q 419 383 520 500 Q 527 510 526 518 Q 522 528 500 534 Q 476 541 466 538 Q 460 537 458 525 Z"/>
  <path id="z36897d4" d="M 682 542 Q 725 500 775 440 Q 787 424 799 420 Q 806 419 813 426 Q 823 436 814 472 Q 805 518 683 567 Q 676 571 674 562 Q 673 552 682 542 Z"/>
  <path id="z36897d5" d="M 579 406 Q 592 425 601 434 Q 610 444 607 453 Q 604 465 580 470 Q 555 477 544 474 Q 537 473 536 460 Q 526 379 356 227 Q 338 212 362 217 Q 434 235 551 371 Q 552 374 555 376 L 579 406 Z"/>
  <path id="z36897d6" d="M 662 259 Q 684 293 704 337 Q 717 362 736 378 Q 755 391 744 404 Q 734 417 705 429 Q 687 436 615 414 Q 597 411 579 406 C 550 399 525 376 555 376 Q 582 373 639 391 Q 660 384 651 363 Q 638 317 619 281 L 597 248 Q 543 184 424 151 Q 411 147 422 139 Q 426 135 463 138 Q 559 144 634 221 L 662 259 Z"/>
  <path id="z36897d7" d="M 634 221 Q 692 175 740 127 Q 753 111 767 104 Q 777 100 787 115 Q 793 130 787 157 Q 783 202 662 259 L 619 281 Q 532 323 524 321 Q 520 320 520 308 Q 521 301 536 291 Q 567 270 597 248 L 634 221 Z"/>
  <path id="z36897d8" d="M 221 687 Q 254 656 289 621 Q 304 605 322 605 Q 334 606 340 621 Q 347 637 337 672 Q 328 709 217 742 Q 199 746 192 743 Q 186 739 187 724 Q 191 711 221 687 Z"/>
  <path id="z36897d9" d="M 287 162 Q 297 169 301 185 Q 305 222 266 286 Q 238 338 305 429 Q 309 436 315 441 Q 336 459 317 473 Q 298 488 264 501 Q 246 511 205 482 Q 121 433 87 437 Q 80 437 79 432 Q 78 428 86 423 Q 125 405 218 445 Q 227 448 235 438 Q 257 416 235 386 Q 184 334 235 261 Q 269 200 265 165 Q 264 165 264 164 C 262 134 268 139 287 162 Z"/>
  <path id="z36897d10" d="M 264 164 Q 219 167 172 151 Q 141 141 95 137 Q 89 137 85 129 Q 82 122 91 112 Q 107 93 132 81 Q 142 75 162 89 Q 217 134 287 123 Q 354 110 491 51 Q 711 -51 803 -26 Q 804 -25 807 -25 Q 865 -4 915 32 Q 937 47 915 46 Q 687 37 524 86 Q 448 108 356 143 Q 322 158 287 162 L 264 164 Z"/>
<defs>
  <clipPath id="z36897c1"><use href="#z36897d1"/></clipPath>
  <clipPath id="z36897c2"><use href="#z36897d2"/></clipPath>
  <clipPath id="z36897c3"><use href="#z36897d3"/></clipPath>
  <clipPath id="z36897c4"><use href="#z36897d4"/></clipPath>
  <clipPath id="z36897c5"><use href="#z36897d5"/></clipPath>
  <clipPath id="z36897c6"><use href="#z36897d6"/></clipPath>
  <clipPath id="z36897c7"><use href="#z36897d7"/></clipPath>
  <clipPath id="z36897c8"><use href="#z36897d8"/></clipPath>
  <clipPath id="z36897c9"><use href="#z36897d9"/></clipPath>
  <clipPath id="z36897c10"><use href="#z36897d10"/></clipPath>
</defs>
<path style="--d:1s;" pathLength="3333" clip-path="url(#z36897c1)" d="M 577 815 L 602 776 L 574 727 L 503 646 L 487 609 L 511 603 L 539 607 L 707 643 L 716 634"/>
<path style="--d:2s;" pathLength="3333" clip-path="url(#z36897c2)" d="M 691 713 L 755 646 L 772 600"/>
<path style="--d:3s;" pathLength="3333" clip-path="url(#z36897c3)" d="M 514 515 L 486 507 L 431 435 L 368 386"/>
<path style="--d:4s;" pathLength="3333" clip-path="url(#z36897c4)" d="M 682 558 L 761 498 L 785 472 L 800 436"/>
<path style="--d:5s;" pathLength="3333" clip-path="url(#z36897c5)" d="M 548 462 L 564 439 L 527 377 L 452 293 L 365 225"/>
<path style="--d:6s;" pathLength="3333" clip-path="url(#z36897c6)" d="M 560 380 L 630 405 L 651 406 L 692 390 L 664 314 L 639 266 L 599 218 L 526 169 L 427 144"/>
<path style="--d:7s;" pathLength="3333" clip-path="url(#z36897c7)" d="M 525 313 L 662 232 L 723 188 L 752 161 L 771 121"/>
<path style="--d:8s;" pathLength="3333" clip-path="url(#z36897c8)" d="M 198 734 L 293 670 L 319 626"/>
<path style="--d:9s;" pathLength="3333" clip-path="url(#z36897c9)" d="M 86 430 L 137 432 L 226 469 L 253 468 L 273 453 L 269 414 L 239 355 L 233 323 L 245 280 L 276 223 L 283 191 L 281 178 L 271 170"/>
<path style="--d:10s;" pathLength="3333" clip-path="url(#z36897c10)" d="M 96 125 L 142 113 L 200 137 L 242 145 L 291 143 L 551 51 L 642 25 L 726 10 L 802 10 L 906 39"/>
</svg>