<svg id="z38260" class="acjk" viewBox="0 0 1024 1024" xmlns="http://www.w3.org/2000/svg">
  <path id="z38260d1" d="M 355 786 Q 355 792 337 808 Q 306 834 280 834 Q 263 833 270 811 Q 282 788 265 733 Q 224 618 77 431 Q 69 421 67 415 Q 63 404 77 408 Q 100 412 167 490 L 172 498 Q 261 621 269 630 L 287 662 Q 357 774 357 780 Q 355 784 355 786 Z"/>
  <path id="z38260d2" d="M 269 630 Q 314 624 396 649 Q 396 651 398 651 Q 405 658 400 664 Q 394 674 368 679 Q 351 682 291 663 Q 288 663 287 662 C 258 655 239 633 269 630 Z"/>
  <path id="z38260d3" d="M 167 490 Q 172 478 212 476 Q 225 476 233 476 L 272 488 Q 304 502 347 515 Q 365 521 368 525 Q 374 533 369 540 Q 363 549 345 551 Q 314 556 286 539 Q 233 516 184 503 Q 177 502 172 498 C 164 493 164 493 167 490 Z"/>
  <path id="z38260d4" d="M 253 394 Q 168 372 145 368 Q 112 359 139 347 Q 171 331 208 339 L 254 351 L 295 363 Q 312 368 333 374 Q 367 384 370 388 Q 377 394 373 404 Q 369 409 358 414 Q 325 425 296 413 L 253 394 Z"/>
  <path id="z38260d5" d="M 233 476 Q 250 439 253 394 L 254 351 Q 249 210 225 167 Q 188 127 229 86 Q 239 74 251 93 Q 262 116 367 216 Q 382 227 385 235 Q 388 245 380 243 Q 370 243 294 198 Q 288 194 286 200 Q 292 299 295 363 L 296 413 L 301 460 Q 299 474 272 488 C 246 503 222 504 233 476 Z"/>
  <path id="z38260d6" d="M 479 750 Q 468 717 443 680 Q 430 661 432 651 Q 435 643 447 634 Q 486 604 504 588 Q 516 574 528 576 Q 538 576 539 596 Q 539 614 529 625 Q 519 637 486 643 Q 481 643 476 645 Q 455 653 468 672 Q 533 747 539 749 Q 551 756 545 770 Q 539 787 528 800 Q 511 819 494 815 L 492 815 Q 487 813 488 805 Q 494 776 479 750 Z"/>
  <path id="z38260d7" d="M 617 819 Q 619 808 614 790 Q 602 744 565 696 Q 564 694 564 693 Q 552 673 578 657 Q 608 637 631 613 Q 645 604 653 604 Q 668 602 668 624.5 Q 668 647 655 657 Q 645 663 615 668 Q 602 668 594 678 Q 588 686 598 696 Q 659 764 666 768 Q 679 775 672 790 Q 670 798 665 806 Q 647 841 623 836 Q 613 835 617 819 Z"/>
  <path id="z38260d8" d="M 743 784 L 739 772 Q 731 748 713 723 Q 705 711 708 698 Q 710 690 721 680 Q 755 655 775 631 Q 792 616 802 616 Q 815 617 816 639 Q 817 659 809 669 Q 800 682 767 688 Q 751 690 743 702 Q 737 708 747 721 L 777 752 L 791 768 L 811 786 Q 820 794 816 808 Q 815 811 813 815 Q 790 860 759 858 Q 756 858 755 858 Q 751 856 753 845 Q 759 813 743 784 Z"/>
  <path id="z38260d9" d="M 465 543 Q 465 545 447 549 Q 414 557 408 550 Q 405 545 413 531 Q 442 475 461 402 Q 464 378 480 363 Q 496 345 500 359 L 502 370 L 500 392 L 472 514 C 465 543 465 543 465 543 Z"/>
  <path id="z38260d10" d="M 747 410 Q 751 399 762 398 Q 772 399 782 412 Q 792 425 809 474 Q 821 515 855 543 Q 870 557 857 570 Q 841 586 800 608 Q 784 615 726 600 Q 707 597 672 590 L 465 543 C 436 536 442 509 472 514 Q 480 514 490 517 Q 539 535 621 551 L 643 557 Q 753 580 773 570 Q 776 568 777 563 Q 780 531 747 433 C 741 416 741 416 747 410 Z"/>
  <path id="z38260d11" d="M 621 551 Q 621 533 601 502 Q 600 502 600 501 L 584 482 L 523 427 Q 519 426 524 423 Q 561 423 612 472 L 635 496 Q 637 500 662 523 Q 666 523 666 531 Q 666 544 643 557 C 623 569 623 569 621 551 Z"/>
  <path id="z38260d12" d="M 600 501 Q 555 507 530 507 Q 526 507 528 502 Q 528 498 584 482 L 612 472 Q 688 449 690 449 Q 703 453 683 478 Q 670 493 635 496 L 600 501 Z"/>
  <path id="z38260d13" d="M 502 370 Q 512 368 539 374 Q 661 398 747 410 C 777 414 773 419 747 433 Q 742 437 732 439 Q 711 440 500 392 C 471 385 472 372 502 370 Z"/>
  <path id="z38260d14" d="M 472 214 Q 472 244 481 278 Q 484 292 478 300 Q 437 335 419 328 Q 410 322 419 306 Q 457 245 408 46 Q 405 39 389 10 Q 380 -7 386 -16 Q 394 -25 416 -36 Q 429 -42 440 -27 Q 447 0 506 53 Q 527 69 534 87 Q 535 91 536 93 Q 536 97 532 96 Q 523 96 468 52 Q 462 46 457 48 Q 447 51 451 73 L 472 214 Z"/>
  <path id="z38260d15" d="M 558 278 Q 555 308 502 314 Q 495 314 496 306 Q 495 300 502 295 Q 531 265 547 267 Q 556 267 558 278 Z"/>
  <path id="z38260d16" d="M 491 209 Q 490 203 509 182 Q 535 155 547 155 Q 551 154 554 157 Q 564 167 553 186 Q 552 189 549 192 Q 532 207 498 216 Q 492 218 491 209 Z"/>
  <path id="z38260d17" d="M 623 318 Q 627 333 616 343 Q 582 377 564 367 Q 563 366 561 365 Q 557 359 564 347 Q 580 318 580 291 Q 586 69 562 25 Q 551 4 568 -23 Q 579 -40 590 -46 Q 601 -52 610 -34 Q 629 11 708 125 Q 719 142 717 149 Q 717 159 702 145 Q 623 69 617 67 Q 613 69 612 76 Q 614 270 623 318 Z"/>
  <path id="z38260d18" d="M 648 330 Q 666 306 680 296 Q 700 282 708 303 Q 708 312 701 326 Q 691 341 651 349 Q 647 349 645 345 Q 641 337 648 330 Z"/>
  <path id="z38260d19" d="M 644 229 Q 649 221 653 216 Q 692 167 704 199 Q 705 203 704 207 Q 700 229 678 235 Q 657 245 647 248 Q 643 249 641 245 Q 636 237 644 229 Z"/>
  <path id="z38260d20" d="M 719 347 Q 736 308 735 265 Q 735 56 820 -24 Q 832 -33 845 -41 Q 922 -93 960 -71 Q 979 -71 970 -35 Q 955 35 953 122 Q 953 134 946 143 Q 939 147 936 139 Q 900 12 878 5 Q 874 2 859 8 Q 841 15 826 28 Q 770 82 777 254 Q 778 291 788 308 Q 798 325 771 349 Q 741 380 725 377 Q 709 373 719 347 Z"/>
<defs>
  <clipPath id="z38260c1"><use href="#z38260d1"/></clipPath>
  <clipPath id="z38260c2"><use href="#z38260d2"/></clipPath>
  <clipPath id="z38260c3"><use href="#z38260d3"/></clipPath>
  <clipPath id="z38260c4"><use href="#z38260d4"/></clipPath>
  <clipPath id="z38260c5"><use href="#z38260d5"/></clipPath>
  <clipPath id="z38260c6"><use href="#z38260d6"/></clipPath>
  <clipPath id="z38260c7"><use href="#z38260d7"/></clipPath>
  <clipPath id="z38260c8"><use href="#z38260d8"/></clipPath>
  <clipPath id="z38260c9"><use href="#z38260d9"/></clipPath>
  <clipPath id="z38260c10"><use href="#z38260d10"/></clipPath>
  <clipPath id="z38260c11"><use href="#z38260d11"/></clipPath>
  <clipPath id="z38260c12"><use href="#z38260d12"/></clipPath>
  <clipPath id="z38260c13"><use href="#z38260d13"/></clipPath>
  <clipPath id="z38260c14"><use href="#z38260d14"/></clipPath>
  <clipPath id="z38260c15"><use href="#z38260d15"/></clipPath>
  <clipPath id="z38260c16"><use href="#z38260d16"/></clipPath>
  <clipPath id="z38260c17"><use href="#z38260d17"/></clipPath>
  <clipPath id="z38260c18"><use href="#z38260d18"/></clipPath>
  <clipPath id="z38260c19"><use href="#z38260d19"/></clipPath>
  <clipPath id="z38260c20"><use href="#z38260d20"/></clipPath>
</defs>
<path style="--d:1s;" pathLength="3333" clip-path="url(#z38260c1)" d="M 281 820 L 303 797 L 312 777 L 274 685 L 167 518 L 75 415"/>
<path style="--d:2s;" pathLength="3333" clip-path="url(#z38260c2)" d="M 275 634 L 307 650 L 389 659"/>
<path style="--d:3s;" pathLength="3333" clip-path="url(#z38260c3)" d="M 175 491 L 234 497 L 324 531 L 358 533"/>
<path style="--d:4s;" pathLength="3333" clip-path="url(#z38260c4)" d="M 139 358 L 198 358 L 320 395 L 363 398"/>
<path style="--d:5s;" pathLength="3333" clip-path="url(#z38260c5)" d="M 241 472 L 269 459 L 273 439 L 273 306 L 261 194 L 266 169 L 295 175 L 379 237"/>
<path style="--d:6s;" pathLength="3333" clip-path="url(#z38260c6)" d="M 493 809 L 510 791 L 516 767 L 469 689 L 457 681 L 448 655 L 462 638 L 511 612 L 524 590"/>
<path style="--d:7s;" pathLength="3333" clip-path="url(#z38260c7)" d="M 626 825 L 641 801 L 641 783 L 597 713 L 580 696 L 578 679 L 591 663 L 634 642 L 654 619"/>
<path style="--d:8s;" pathLength="3333" clip-path="url(#z38260c8)" d="M 757 851 L 776 832 L 783 803 L 724 705 L 749 676 L 784 659 L 800 630"/>
<path style="--d:9s;" pathLength="3333" clip-path="url(#z38260c9)" d="M 414 546 L 448 516 L 490 363"/>
<path style="--d:10s;" pathLength="3333" clip-path="url(#z38260c10)" d="M 474 538 L 484 531 L 683 580 L 759 591 L 791 586 L 815 556 L 762 412"/>
<path style="--d:11s;" pathLength="3333" clip-path="url(#z38260c11)" d="M 629 545 L 640 534 L 638 529 L 597 474 L 529 426"/>
<path style="--d:12s;" pathLength="3333" clip-path="url(#z38260c12)" d="M 532 503 L 641 481 L 683 465 L 690 455"/>
<path style="--d:13s;" pathLength="3333" clip-path="url(#z38260c13)" d="M 507 376 L 542 391 L 666 414 L 727 423 L 740 416"/>
<path style="--d:14s;" pathLength="3333" clip-path="url(#z38260c14)" d="M 424 320 L 456 286 L 448 162 L 429 53 L 433 29 L 438 25 L 476 39 L 484 53 L 491 53 L 532 91"/>
<path style="--d:15s;" pathLength="3333" clip-path="url(#z38260c15)" d="M 506 305 L 545 280"/>
<path style="--d:16s;" pathLength="3333" clip-path="url(#z38260c16)" d="M 499 208 L 547 167"/>
<path style="--d:17s;" pathLength="3333" clip-path="url(#z38260c17)" d="M 566 360 L 577 355 L 600 325 L 593 70 L 604 33 L 631 48 L 682 112 L 695 120 L 696 132 L 706 135 L 710 145"/>
<path style="--d:18s;" pathLength="3333" clip-path="url(#z38260c18)" d="M 653 339 L 693 306"/>
<path style="--d:19s;" pathLength="3333" clip-path="url(#z38260c19)" d="M 648 239 L 690 201"/>
<path style="--d:20s;" pathLength="3333" clip-path="url(#z38260c20)" d="M 729 364 L 760 315 L 755 213 L 769 108 L 794 40 L 823 3 L 869 -24 L 918 -26 L 943 135"/>
</svg>