<svg id="z38982" class="acjk" viewBox="0 0 1024 1024" xmlns="http://www.w3.org/2000/svg">
  <path id="z38982d1" d="M 206 711 Q 194 715 164 720 Q 152 721 149 717 Q 143 710 152 695 Q 185 634 208 533 Q 212 502 231 483 Q 250 461 255 478 Q 256 485 257 494 L 255 523 Q 239 602 222 683 C 217 708 217 708 206 711 Z"/>
  <path id="z38982d2" d="M 402 515 Q 418 490 433 482 Q 442 475 457 493 Q 472 517 504 643 Q 513 671 534 693 Q 547 703 536 717 Q 523 733 484 757 Q 469 764 408 750 Q 386 750 206 711 C 177 705 193 674 222 683 Q 253 693 298 701 L 334 708 Q 430 729 449 717 Q 462 707 457 688 Q 427 550 410 538 C 398 520 398 520 402 515 Z"/>
  <path id="z38982d3" d="M 360 604 Q 387 610 413 614 Q 434 618 425 629 Q 415 642 393 645 Q 380 646 363 642 L 315 627 Q 284 617 258 608 Q 243 604 262 591 L 316 595 L 360 604 Z"/>
  <path id="z38982d4" d="M 355 509 Q 376 513 402 515 C 432 517 434 520 410 538 Q 383 559 356 549 L 315 537 Q 281 530 255 523 C 226 515 227 492 257 494 Q 261 494 269 495 Q 285 499 315 504 L 355 509 Z"/>
  <path id="z38982d5" d="M 353 388 Q 413 404 489 417 Q 505 421 507 428 Q 507 441 488 450 Q 460 460 436 454 Q 390 442 353 431 L 312 420 Q 150 381 72 368 Q 59 367 56 358 Q 53 348 69 336 Q 106 312 171 332 Q 228 353 276 367 L 353 388 Z"/>
  <path id="z38982d6" d="M 306 322 Q 297 160 284 128 Q 275 89 308 37 Q 320 18 328 14 Q 340 13 345 26 Q 358 57 354 89 Q 351 249 353 388 L 353 431 Q 354 462 355 509 L 356 549 Q 357 580 360 604 L 363 642 Q 366 682 363 686 Q 347 699 334 708 C 310 726 286 728 298 701 Q 298 700 299 699 Q 314 674 315 627 L 316 595 Q 316 568 315 537 L 315 504 Q 314 467 312 420 L 306 322 Z"/>
  <path id="z38982d7" d="M 276 367 Q 225 256 70 126 Q 60 114 68 113 Q 77 109 88 114 Q 185 154 306 322 C 351 383 297 411 276 367 Z"/>
  <path id="z38982d8" d="M 394 300 Q 425 273 458 240 Q 470 230 483 229 Q 493 229 497 241 Q 501 254 495 279 Q 486 312 391 341 Q 378 345 372 343 Q 368 339 368 328 Q 372 318 394 300 Z"/>
  <path id="z38982d9" d="M 704 708 Q 783 726 869 743 Q 915 753 923 761 Q 932 768 927 777 Q 920 787 892 795 Q 865 801 753 763 Q 585 733 581 732 Q 545 726 571 710 Q 604 691 660 698 L 704 708 Z"/>
  <path id="z38982d10" d="M 649 586 Q 701 641 730 664 Q 743 671 738 680 Q 729 695 704 708 C 678 722 656 728 660 698 Q 666 673 625 583 Q 624 583 624 582 C 609 556 628 564 649 586 Z"/>
  <path id="z38982d11" d="M 599 579 Q 589 589 568 597 Q 559 601 549 597 Q 543 593 548 582 Q 549 575 553 568 Q 580 519 561 331 Q 543 259 573 219 L 575 217 Q 585 205 594 216 Q 601 229 603 242 L 606 274 Q 606 283 607 346 L 607 371 Q 607 414 607 446 L 608 473 Q 608 510 610 549 C 611 570 611 570 599 579 Z"/>
  <path id="z38982d12" d="M 798 256 Q 799 243 808 229 Q 821 201 830 202 Q 843 203 859 235 Q 872 260 871 280 Q 844 490 880 549 Q 890 565 883 574 Q 856 599 810 619 Q 794 625 771 617 Q 737 602 649 586 L 624 582 Q 611 582 599 579 C 569 575 580 547 610 549 Q 620 549 628 550 Q 707 566 764 574 Q 785 577 791 566 Q 806 548 806 485 Q 810 314 801 275 L 798 256 Z"/>
  <path id="z38982d13" d="M 607 446 Q 610 446 614 446 Q 693 456 750 461 Q 772 465 765 477 Q 755 490 731 496 Q 710 500 608 473 C 579 465 577 446 607 446 Z"/>
  <path id="z38982d14" d="M 607 346 Q 610 345 619 346 Q 701 356 762 362 Q 784 365 777 377 Q 767 390 743 396 Q 710 402 607 371 C 578 362 577 348 607 346 Z"/>
  <path id="z38982d15" d="M 603 242 Q 609 241 616 242 Q 673 252 795 256 Q 796 257 798 256 C 821 256 821 256 801 275 Q 794 282 780 292 Q 765 302 736 295 Q 664 282 606 274 C 576 270 573 244 603 242 Z"/>
  <path id="z38982d16" d="M 598 196 Q 579 136 438 39 Q 416 27 443 28 Q 497 25 618 116 Q 619 119 665 155 Q 677 165 675 174 Q 674 187 649 198 Q 622 211 610 209 Q 603 208 598 196 Z"/>
  <path id="z38982d17" d="M 738 176 Q 790 119 852 38 Q 865 17 880 11 Q 889 10 897 18 Q 910 30 902 74 Q 893 135 742 207 Q 735 213 731 201 Q 730 188 738 176 Z"/>
<defs>
  <clipPath id="z38982c1"><use href="#z38982d1"/></clipPath>
  <clipPath id="z38982c2"><use href="#z38982d2"/></clipPath>
  <clipPath id="z38982c3"><use href="#z38982d3"/></clipPath>
  <clipPath id="z38982c4"><use href="#z38982d4"/></clipPath>
  <clipPath id="z38982c5"><use href="#z38982d5"/></clipPath>
  <clipPath id="z38982c6"><use href="#z38982d6"/></clipPath>
  <clipPath id="z38982c7"><use href="#z38982d7"/></clipPath>
  <clipPath id="z38982c8"><use href="#z38982d8"/></clipPath>
  <clipPath id="z38982c9"><use href="#z38982d9"/></clipPath>
  <clipPath id="z38982c10"><use href="#z38982d10"/></clipPath>
  <clipPath id="z38982c11"><use href="#z38982d11"/></clipPath>
  <clipPath id="z38982c12"><use href="#z38982d12"/></clipPath>
  <clipPath id="z38982c13"><use href="#z38982d13"/></clipPath>
  <clipPath id="z38982c14"><use href="#z38982d14"/></clipPath>
  <clipPath id="z38982c15"><use href="#z38982d15"/></clipPath>
  <clipPath id="z38982c16"><use href="#z38982d16"/></clipPath>
  <clipPath id="z38982c17"><use href="#z38982d17"/></clipPath>
</defs>
<path style="--d:1s;" pathLength="3333" clip-path="url(#z38982c1)" d="M 158 710 L 187 687 L 196 670 L 243 483"/>
<path style="--d:2s;" pathLength="3333" clip-path="url(#z38982c2)" d="M 220 713 L 229 702 L 238 702 L 422 739 L 459 737 L 487 718 L 495 705 L 453 558 L 436 520 L 440 499"/>
<path style="--d:3s;" pathLength="3333" clip-path="url(#z38982c3)" d="M 260 599 L 386 628 L 417 623"/>
<path style="--d:4s;" pathLength="3333" clip-path="url(#z38982c4)" d="M 262 502 L 279 514 L 399 535"/>
<path style="--d:5s;" pathLength="3333" clip-path="url(#z38982c5)" d="M 68 355 L 91 349 L 140 352 L 434 431 L 497 431"/>
<path style="--d:6s;" pathLength="3333" clip-path="url(#z38982c6)" d="M 307 696 L 329 685 L 338 671 L 339 655 L 326 212 L 318 119 L 331 26"/>
<path style="--d:7s;" pathLength="3333" clip-path="url(#z38982c7)" d="M 305 370 L 289 351 L 271 309 L 201 222 L 127 153 L 74 119"/>
<path style="--d:8s;" pathLength="3333" clip-path="url(#z38982c8)" d="M 376 334 L 455 284 L 483 244"/>
<path style="--d:9s;" pathLength="3333" clip-path="url(#z38982c9)" d="M 573 722 L 594 717 L 662 722 L 849 766 L 917 771"/>
<path style="--d:10s;" pathLength="3333" clip-path="url(#z38982c10)" d="M 728 675 L 691 673 L 648 600 L 630 594"/>
<path style="--d:11s;" pathLength="3333" clip-path="url(#z38982c11)" d="M 556 589 L 581 564 L 588 527 L 587 379 L 580 302 L 585 222"/>
<path style="--d:12s;" pathLength="3333" clip-path="url(#z38982c12)" d="M 606 573 L 622 566 L 651 569 L 784 597 L 806 591 L 839 558 L 832 474 L 838 288 L 831 213"/>
<path style="--d:13s;" pathLength="3333" clip-path="url(#z38982c13)" d="M 611 453 L 624 464 L 712 477 L 754 472"/>
<path style="--d:14s;" pathLength="3333" clip-path="url(#z38982c14)" d="M 613 352 L 623 362 L 709 376 L 745 378 L 767 372"/>
<path style="--d:15s;" pathLength="3333" clip-path="url(#z38982c15)" d="M 610 247 L 628 261 L 732 274 L 776 274 L 797 261"/>
<path style="--d:16s;" pathLength="3333" clip-path="url(#z38982c16)" d="M 658 172 L 624 168 L 593 131 L 546 92 L 483 51 L 447 37"/>
<path style="--d:17s;" pathLength="3333" clip-path="url(#z38982c17)" d="M 741 196 L 855 92 L 874 60 L 882 26"/>
</svg>