<svg id="z38071" class="acjk" viewBox="0 0 1024 1024" xmlns="http://www.w3.org/2000/svg">
  <path id="z38071d1" d="M 291 642 Q 333 720 355 741 Q 364 751 359 765 Q 355 778 326 799 Q 299 817 280 816 Q 262 815 271 792 Q 284 761 274 735 Q 240 647 187 563 Q 136 484 66 395 Q 56 385 54 378 Q 51 368 65 370 Q 111 379 268 603 Q 269 609 273 612 L 291 642 Z"/>
  <path id="z38071d2" d="M 273 612 Q 319 608 405 630 Q 414 633 425 635 Q 443 639 445 642 Q 452 649 448 658 Q 441 668 413 672 Q 395 673 322 650 Q 307 646 291 642 C 262 635 243 614 273 612 Z"/>
  <path id="z38071d3" d="M 295 468 Q 424 511 426 512 Q 433 519 428 526 Q 421 536 395 539 Q 368 542 344 529 Q 317 517 288 507 Q 255 497 216 489 Q 185 480 209 468 Q 228 461 250 460 L 295 468 Z"/>
  <path id="z38071d4" d="M 321 322 Q 438 359 441 362 Q 448 369 444 378 Q 437 388 409 392 Q 384 396 322 368 L 275 351 Q 271 350 268 349 Q 217 333 158 323 Q 124 314 150 301 Q 184 285 256 304 Q 263 307 276 309 L 321 322 Z"/>
  <path id="z38071d5" d="M 276 309 Q 272 186 246 140 Q 219 98 223 84 Q 223 65 246 43 Q 259 36 270 52 Q 285 79 426 190 Q 444 202 448 210 Q 452 220 443 220 Q 428 220 324 164 Q 314 158 312 169 Q 319 253 321 322 L 322 368 Q 322 404 326 424 Q 330 437 322 447 Q 309 460 295 468 C 270 485 238 488 250 460 Q 274 409 275 351 L 276 309 Z"/>
  <path id="z38071d6" d="M 549 608 Q 592 601 620 606 Q 839 649 855 658 Q 862 665 859 673 Q 852 683 826 691 Q 798 697 771 686 Q 722 670 669 657 Q 609 644 541 638 Q 538 638 536 636 C 507 629 519 612 549 608 Z"/>
  <path id="z38071d7" d="M 629 464 Q 619 468 599 473 Q 589 476 585 472 Q 579 466 586 452 Q 610 394 621 302 Q 622 274 638 255 Q 653 234 658 248 Q 664 261 663 285 L 659 317 Q 647 410 646 436 C 645 458 645 458 629 464 Z"/>
  <path id="z38071d8" d="M 789 337 Q 807 415 837 442 Q 850 460 837 474 Q 767 519 717 491 Q 687 482 629 464 C 600 455 617 429 646 436 Q 653 437 666 442 Q 747 458 752 455 Q 761 448 760 431 Q 756 382 747 342 C 741 313 782 308 789 337 Z"/>
  <path id="z38071d9" d="M 663 285 Q 669 285 676 287 Q 716 297 802 307 Q 812 308 813 317 Q 813 324 789 337 L 747 342 Q 743 342 740 340 Q 695 327 659 317 C 630 309 633 283 663 285 Z"/>
  <path id="z38071d10" d="M 536 636 Q 526 643 503 655 Q 482 665 475 658 Q 468 651 476 637 Q 518 553 491 174 Q 488 134 465 97 Q 455 82 464 61 Q 473 39 483 31 Q 493 24 511 35 Q 611 107 908 110 Q 935 110 935 123 Q 935 139 904 160 Q 886 175 772 152 Q 606 131 567 122 Q 555 118 550 123 Q 544 124 543 139 Q 547 313 545 532 Q 545 577 549 608 C 551 627 551 627 536 636 Z"/>
<defs>
  <clipPath id="z38071c1"><use href="#z38071d1"/></clipPath>
  <clipPath id="z38071c2"><use href="#z38071d2"/></clipPath>
  <clipPath id="z38071c3"><use href="#z38071d3"/></clipPath>
  <clipPath id="z38071c4"><use href="#z38071d4"/></clipPath>
  <clipPath id="z38071c5"><use href="#z38071d5"/></clipPath>
  <clipPath id="z38071c6"><use href="#z38071d6"/></clipPath>
  <clipPath id="z38071c7"><use href="#z38071d7"/></clipPath>
  <clipPath id="z38071c8"><use href="#z38071d8"/></clipPath>
  <clipPath id="z38071c9"><use href="#z38071d9"/></clipPath>
  <clipPath id="z38071c10"><use href="#z38071d10"/></clipPath>
</defs>
<path style="--d:1s;" pathLength="3333" clip-path="url(#z38071c1)" d="M 281 802 L 305 779 L 317 757 L 283 682 L 242 605 L 188 525 L 113 427 L 63 378"/>
<path style="--d:2s;" pathLength="3333" clip-path="url(#z38071c2)" d="M 279 615 L 339 637 L 403 651 L 437 652"/>
<path style="--d:3s;" pathLength="3333" clip-path="url(#z38071c3)" d="M 210 479 L 254 479 L 302 489 L 378 518 L 422 520"/>
<path style="--d:4s;" pathLength="3333" clip-path="url(#z38071c4)" d="M 151 313 L 180 310 L 224 316 L 329 345 L 387 368 L 435 370"/>
<path style="--d:5s;" pathLength="3333" clip-path="url(#z38071c5)" d="M 259 455 L 291 436 L 296 423 L 298 287 L 285 170 L 290 133 L 335 144 L 442 213"/>
<path style="--d:6s;" pathLength="3333" clip-path="url(#z38071c6)" d="M 541 630 L 549 631 L 560 622 L 630 626 L 795 668 L 849 668"/>
<path style="--d:7s;" pathLength="3333" clip-path="url(#z38071c7)" d="M 593 465 L 613 445 L 623 422 L 649 253"/>
<path style="--d:8s;" pathLength="3333" clip-path="url(#z38071c8)" d="M 639 464 L 655 455 L 753 479 L 785 465 L 796 453 L 776 370 L 755 347"/>
<path style="--d:9s;" pathLength="3333" clip-path="url(#z38071c9)" d="M 669 291 L 682 306 L 738 319 L 780 322 L 803 317"/>
<path style="--d:10s;" pathLength="3333" clip-path="url(#z38071c10)" d="M 483 650 L 514 616 L 520 575 L 524 356 L 512 116 L 516 92 L 551 90 L 676 117 L 863 138 L 884 138 L 922 124"/>
</svg>