<svg id="z31131" class="acjk" viewBox="0 0 1024 1024" xmlns="http://www.w3.org/2000/svg">
  <path id="z31131d1" d="M 302 750 Q 327 726 353 697 Q 366 684 383 683 Q 395 683 401 697 Q 407 712 398 744 Q 394 763 363 779 Q 294 810 276 803 Q 270 799 271 786 Q 275 773 302 750 Z"/>
  <path id="z31131d2" d="M 293 394 Q 323 434 356 486 Q 389 540 434 574 Q 449 584 437 599 Q 418 612 390 622 Q 369 629 353 619 Q 281 565 146 551 Q 134 552 132 545 Q 129 535 143 526 Q 182 504 214 511 Q 329 566 335 563 L 336 562 Q 342 553 329 530 Q 254 385 91 227 Q 78 217 80 213 Q 83 210 95 215 Q 173 254 270 365 L 293 394 Z"/>
  <path id="z31131d3" d="M 270 365 Q 288 308 289 282 Q 289 156 269 72 Q 257 32 289 -11 Q 290 -12 292 -14 Q 308 -27 318 -4 Q 331 30 330 71 Q 327 276 333 321 Q 340 345 331 354 Q 315 372 304 384 Q 300 390 293 394 C 270 413 261 394 270 365 Z"/>
  <path id="z31131d4" d="M 367 377 Q 379 364 392 346 Q 402 336 416 334 Q 423 334 429 345 Q 433 357 428 381 Q 425 394 406 403 Q 357 421 348 419 Q 344 416 344 405 Q 347 396 367 377 Z"/>
  <path id="z31131d5" d="M 559 711 Q 559 741 565 778 Q 569 793 559 800 Q 547 810 528 817 Q 518 820 511 816 Q 505 812 511 798 Q 523 767 521 736 Q 521 672 527 654 Q 531 633 553 618 Q 628 567 775 604 Q 782 607 792 609 Q 826 621 861 647 Q 874 660 862 679 Q 852 692 832 739 Q 831 751 824 754 Q 820 755 818 742 Q 803 688 793 672 Q 781 657 746 647 Q 659 623 599 645 Q 572 655 566 671 Q 560 681 559 697 L 559 711 Z"/>
  <path id="z31131d6" d="M 559 697 Q 643 703 740 748 Q 752 755 767 758 Q 780 762 778 771 Q 777 778 762 789 Q 731 811 709 812 Q 700 813 699 802 Q 689 766 559 711 C 531 699 529 695 559 697 Z"/>
  <path id="z31131d7" d="M 588 541 Q 581 548 559 558 Q 552 561 542 558 Q 538 554 542 545 Q 543 539 546 534 Q 564 501 555 357 Q 537 294 569 256 Q 576 246 585 256 L 591 268 L 595 299 Q 595 326 594 353 L 594 377 Q 594 413 594 437 L 594 461 Q 594 488 595 515 C 596 535 596 535 588 541 Z"/>
  <path id="z31131d8" d="M 754 286 Q 755 279 760 272 Q 772 250 778 251 Q 788 252 801 277 Q 811 296 810 312 Q 786 472 815 516 Q 824 529 817 537 Q 795 558 756 575 Q 743 579 724 573 Q 685 557 588 541 C 558 536 565 516 595 515 Q 604 514 614 515 Q 734 542 743 529 Q 755 516 756 467 Q 762 332 755 305 L 754 286 Z"/>
  <path id="z31131d9" d="M 594 437 Q 652 446 697 452 Q 716 455 709 466 Q 700 478 679 481 Q 645 484 594 461 C 567 449 564 432 594 437 Z"/>
  <path id="z31131d10" d="M 594 353 Q 595 353 600 353 Q 661 365 705 371 Q 724 375 717 386 Q 707 398 687 400 Q 656 403 594 377 C 566 365 564 353 594 353 Z"/>
  <path id="z31131d11" d="M 591 268 Q 595 268 601 269 Q 649 278 754 286 C 774 288 774 288 755 305 Q 749 311 738 319 Q 723 326 697 320 Q 642 307 595 299 C 565 294 561 266 591 268 Z"/>
  <path id="z31131d12" d="M 519 368 Q 522 384 511 397 Q 495 413 468 421 Q 447 428 445 418 Q 441 408 450 400 Q 496 343 456 243 Q 444 218 422 191 Q 406 175 410 159 Q 417 146 436 131 Q 454 118 473 138 Q 530 186 707 192 Q 776 201 906 181 Q 924 177 936 184 Q 946 188 941 203 Q 931 221 911 232 Q 895 245 869 242 Q 848 241 802 238 Q 697 235 509 199 Q 491 195 495 217 Q 511 283 519 368 Z"/>
  <path id="z31131d13" d="M 550 129 Q 532 72 386 -21 Q 364 -33 391 -33 Q 448 -36 568 49 Q 571 58 615 86 Q 628 96 626 106 Q 625 119 601 130 Q 574 143 562 142 Q 555 142 550 129 Z"/>
  <path id="z31131d14" d="M 738 107 Q 783 56 835 -16 Q 848 -38 864 -45 Q 873 -46 881 -38 Q 896 -25 887 20 Q 884 62 813 102 Q 768 127 743 139 Q 734 145 731 132 Q 730 119 738 107 Z"/>
<defs>
  <clipPath id="z31131c1"><use href="#z31131d1"/></clipPath>
  <clipPath id="z31131c2"><use href="#z31131d2"/></clipPath>
  <clipPath id="z31131c3"><use href="#z31131d3"/></clipPath>
  <clipPath id="z31131c4"><use href="#z31131d4"/></clipPath>
  <clipPath id="z31131c5"><use href="#z31131d5"/></clipPath>
  <clipPath id="z31131c6"><use href="#z31131d6"/></clipPath>
  <clipPath id="z31131c7"><use href="#z31131d7"/></clipPath>
  <clipPath id="z31131c8"><use href="#z31131d8"/></clipPath>
  <clipPath id="z31131c9"><use href="#z31131d9"/></clipPath>
  <clipPath id="z31131c10"><use href="#z31131d10"/></clipPath>
  <clipPath id="z31131c11"><use href="#z31131d11"/></clipPath>
  <clipPath id="z31131c12"><use href="#z31131d12"/></clipPath>
  <clipPath id="z31131c13"><use href="#z31131d13"/></clipPath>
  <clipPath id="z31131c14"><use href="#z31131d14"/></clipPath>
</defs>
<path style="--d:1s;" pathLength="3333" clip-path="url(#z31131c1)" d="M 281 795 L 360 740 L 382 702"/>
<path style="--d:2s;" pathLength="3333" clip-path="url(#z31131c2)" d="M 142 541 L 204 534 L 335 584 L 376 581 L 359 533 L 316 462 L 248 369 L 168 283 L 89 220"/>
<path style="--d:3s;" pathLength="3333" clip-path="url(#z31131c3)" d="M 295 385 L 295 359 L 308 334 L 310 295 L 306 131 L 297 43 L 303 -3"/>
<path style="--d:4s;" pathLength="3333" clip-path="url(#z31131c4)" d="M 351 411 L 400 378 L 414 349"/>
<path style="--d:5s;" pathLength="3333" clip-path="url(#z31131c5)" d="M 517 809 L 541 780 L 540 692 L 550 654 L 570 633 L 627 614 L 703 613 L 762 626 L 801 642 L 829 666 L 823 747"/>
<path style="--d:6s;" pathLength="3333" clip-path="url(#z31131c6)" d="M 767 770 L 727 776 L 649 732 L 607 716 L 572 711 L 565 704"/>
<path style="--d:7s;" pathLength="3333" clip-path="url(#z31131c7)" d="M 548 552 L 571 528 L 574 516 L 571 315 L 577 260"/>
<path style="--d:8s;" pathLength="3333" clip-path="url(#z31131c8)" d="M 599 537 L 608 529 L 624 530 L 743 554 L 775 533 L 781 523 L 777 433 L 784 321 L 778 260"/>
<path style="--d:9s;" pathLength="3333" clip-path="url(#z31131c9)" d="M 601 443 L 608 454 L 638 461 L 682 466 L 701 461"/>
<path style="--d:10s;" pathLength="3333" clip-path="url(#z31131c10)" d="M 597 359 L 609 370 L 659 382 L 708 381"/>
<path style="--d:11s;" pathLength="3333" clip-path="url(#z31131c11)" d="M 595 275 L 608 286 L 693 301 L 733 302 L 743 291"/>
<path style="--d:12s;" pathLength="3333" clip-path="url(#z31131c12)" d="M 456 412 L 490 382 L 496 345 L 492 298 L 463 180 L 508 179 L 630 204 L 774 216 L 886 213 L 930 196"/>
<path style="--d:13s;" pathLength="3333" clip-path="url(#z31131c13)" d="M 608 104 L 575 101 L 543 65 L 469 10 L 396 -24"/>
<path style="--d:14s;" pathLength="3333" clip-path="url(#z31131c14)" d="M 742 127 L 840 38 L 859 5 L 866 -30"/>
</svg>