<svg id="z38093" class="acjk" viewBox="0 0 1024 1024" xmlns="http://www.w3.org/2000/svg">
  <path id="z38093d1" d="M 286 617 Q 346 722 367 741 Q 376 751 371 765 Q 367 778 338 799 Q 311 817 293 816 Q 274 815 283 793 Q 296 762 286 735 Q 252 647 197 563 Q 145 484 74 395 Q 64 385 62 378 Q 59 368 73 370 Q 121 379 270 591 L 286 617 Z"/>
  <path id="z38093d2" d="M 270 591 Q 307 581 375 598 Q 402 605 433 614 Q 451 620 453 622 Q 460 629 456 638 Q 449 648 421 652 Q 408 653 325 626 Q 306 622 286 617 C 257 610 241 598 270 591 Z"/>
  <path id="z38093d3" d="M 300 456 Q 343 471 395 485 Q 417 492 421 496 Q 428 503 424 510 Q 417 520 391 524 Q 364 525 340 514 Q 315 502 286 493 Q 255 483 216 477 Q 185 470 209 456 Q 228 449 252 448 L 300 456 Z"/>
  <path id="z38093d4" d="M 320 332 Q 353 342 391 351 Q 424 361 429 366 Q 436 373 431 381 Q 424 391 397 397 Q 373 400 321 379 L 273 362 Q 233 350 166 339 Q 133 332 158 317 Q 191 301 256 316 Q 263 319 274 320 L 320 332 Z"/>
  <path id="z38093d5" d="M 274 320 Q 274 191 233 132 Q 200 117 241 61 Q 244 58 248 54 Q 260 47 271 63 Q 283 88 400 204 Q 416 217 420 226 Q 424 236 414 235 Q 405 235 316 180 Q 312 176 309 180 Q 318 264 320 332 L 321 379 Q 321 398 325 416 Q 331 432 300 456 C 277 476 242 476 252 448 Q 268 408 273 362 L 274 320 Z"/>
  <path id="z38093d6" d="M 686 579 Q 752 603 782 599 Q 795 586 792 580 Q 792 579 775 509 Q 771 496 777 493 Q 784 490 797 503 Q 840 545 878 562 Q 909 578 907 586 Q 906 593 839 630 Q 817 642 716 615 Q 712 615 687 608 L 637 596 Q 624 595 528 570 C 499 562 514 534 544 539 Q 551 539 558 541 Q 609 562 638 567 L 686 579 Z"/>
  <path id="z38093d7" d="M 528 570 Q 489 600 465 591 Q 455 584 461 571 Q 503 505 460 261 Q 453 234 446 208 Q 415 106 353 6 Q 349 -1 347 -7 Q 346 -17 355 -15 Q 379 -9 447 97 Q 459 122 472 150 Q 524 280 537 501 Q 540 535 544 539 C 548 556 548 556 528 570 Z"/>
  <path id="z38093d8" d="M 677 405 Q 681 496 686 579 L 687 608 Q 690 701 707 778 Q 711 790 690 804 Q 654 823 630 827 Q 614 830 606 821 Q 599 814 607 799 Q 632 765 632 740 Q 636 671 637 596 L 638 567 Q 638 485 635 390 C 634 360 676 375 677 405 Z"/>
  <path id="z38093d9" d="M 722 166 Q 761 224 787 317 Q 794 351 813 369 Q 829 384 810 399 Q 789 415 757 427 Q 735 434 714 422 Q 696 413 677 405 L 635 390 Q 610 384 581 379 Q 556 376 544 369 Q 537 362 554 354 Q 579 341 618 354 Q 663 366 708 377 Q 727 384 728 361 Q 728 288 683 201 L 657 162 Q 600 95 456 50 Q 441 46 451 38 Q 458 32 487 37 Q 625 53 689 123 L 722 166 Z"/>
  <path id="z38093d10" d="M 689 123 Q 738 65 784 17 Q 800 -1 824 1 Q 957 16 966 30 Q 969 37 959 40 Q 806 94 722 166 L 683 201 Q 640 241 591 293 Q 581 308 564 308 Q 539 308 531 300 Q 528 294 537 289 Q 571 271 593 241 Q 626 201 657 162 L 689 123 Z"/>
<defs>
  <clipPath id="z38093c1"><use href="#z38093d1"/></clipPath>
  <clipPath id="z38093c2"><use href="#z38093d2"/></clipPath>
  <clipPath id="z38093c3"><use href="#z38093d3"/></clipPath>
  <clipPath id="z38093c4"><use href="#z38093d4"/></clipPath>
  <clipPath id="z38093c5"><use href="#z38093d5"/></clipPath>
  <clipPath id="z38093c6"><use href="#z38093d6"/></clipPath>
  <clipPath id="z38093c7"><use href="#z38093d7"/></clipPath>
  <clipPath id="z38093c8"><use href="#z38093d8"/></clipPath>
  <clipPath id="z38093c9"><use href="#z38093d9"/></clipPath>
  <clipPath id="z38093c10"><use href="#z38093d10"/></clipPath>
</defs>
<path style="--d:1s;" pathLength="3333" clip-path="url(#z38093c1)" d="M 292 803 L 317 779 L 327 754 L 282 659 L 245 593 L 166 481 L 107 411 L 71 378"/>
<path style="--d:2s;" pathLength="3333" clip-path="url(#z38093c2)" d="M 277 596 L 415 631 L 445 632"/>
<path style="--d:3s;" pathLength="3333" clip-path="url(#z38093c3)" d="M 210 467 L 267 468 L 374 502 L 413 505"/>
<path style="--d:4s;" pathLength="3333" clip-path="url(#z38093c4)" d="M 159 329 L 188 325 L 227 330 L 356 368 L 419 375"/>
<path style="--d:5s;" pathLength="3333" clip-path="url(#z38093c5)" d="M 259 443 L 286 428 L 294 415 L 297 298 L 282 173 L 287 146 L 326 159 L 414 228"/>
<path style="--d:6s;" pathLength="3333" clip-path="url(#z38093c6)" d="M 540 570 L 554 558 L 691 593 L 730 609 L 791 615 L 824 599 L 834 586 L 781 499"/>
<path style="--d:7s;" pathLength="3333" clip-path="url(#z38093c7)" d="M 473 579 L 503 550 L 509 532 L 506 421 L 492 307 L 463 186 L 426 96 L 355 -7"/>
<path style="--d:8s;" pathLength="3333" clip-path="url(#z38093c8)" d="M 619 811 L 666 773 L 657 420 L 640 398"/>
<path style="--d:9s;" pathLength="3333" clip-path="url(#z38093c9)" d="M 552 364 L 594 364 L 731 402 L 752 393 L 766 374 L 748 286 L 722 218 L 667 135 L 639 111 L 578 76 L 495 48 L 457 43"/>
<path style="--d:10s;" pathLength="3333" clip-path="url(#z38093c10)" d="M 538 297 L 574 287 L 715 134 L 811 53 L 898 35 L 960 33"/>
</svg>