<svg id="z39753" class="acjk" viewBox="0 0 1024 1024" xmlns="http://www.w3.org/2000/svg">
  <path id="z39753d1" d="M 213 627 Q 267 684 306 732 Q 321 751 341 766 Q 360 781 345 795 Q 329 808 301 816 Q 276 823 264 819 Q 251 815 259 802 Q 271 775 187 622 Q 186 622 186 621 C 170 595 192 605 213 627 Z"/>
  <path id="z39753d2" d="M 150 614 Q 140 620 115 625 Q 105 628 101 623 Q 95 619 102 604 Q 130 535 143 426 Q 144 393 162 371 Q 177 350 182 365 Q 185 374 186 386 L 187 408 Q 186 421 184 436 Q 168 547 163 583 C 159 610 159 610 150 614 Z"/>
  <path id="z39753d3" d="M 368 414 Q 369 410 371 406 Q 375 391 387 393 Q 400 394 406 408 Q 419 429 441 526 Q 454 572 486 600 Q 502 615 488 629 Q 472 644 426 666 Q 413 673 347 657 Q 323 657 219 629 Q 215 628 213 627 L 186 621 Q 165 618 150 614 C 121 607 135 572 163 583 Q 169 589 248 606 L 277 612 Q 377 636 397 627 Q 407 621 402 588 Q 383 470 372 440 L 368 414 Z"/>
  <path id="z39753d4" d="M 299 504 Q 329 510 357 513 Q 376 516 369 526 Q 360 538 341 541 Q 328 542 308 538 L 256 523 Q 228 516 201 509 Q 188 506 204 495 Q 211 489 227 492 Q 239 495 251 495 L 299 504 Z"/>
  <path id="z39753d5" d="M 276 401 Q 325 410 368 414 C 398 417 402 438 372 440 Q 348 443 282 427 L 235 417 Q 210 413 187 408 C 158 402 157 380 186 386 Q 198 389 230 392 L 276 401 Z"/>
  <path id="z39753d6" d="M 230 392 Q 181 224 102 126 Q 80 95 56 65 Q 52 61 49 55 Q 46 48 55 48 Q 88 48 174 166 Q 181 178 190 191 Q 247 285 276 401 L 282 427 Q 286 448 292 469 Q 296 488 299 504 L 308 538 Q 318 577 318 579 Q 306 595 282 609 Q 279 610 277 612 C 252 628 238 634 248 606 Q 248 605 250 600 Q 262 573 257 531 Q 256 528 256 523 L 251 495 Q 244 455 235 417 L 230 392 Z"/>
  <path id="z39753d7" d="M 956 79 Q 940 125 933 207 Q 932 220 925 226 Q 918 230 914 212 Q 898 113 883 96 Q 826 32 586 30 Q 456 34 399 57 Q 350 82 340 116 Q 333 135 334 178 L 334 197 Q 334 200 335 201 Q 342 268 356 299 Q 368 327 351 342 Q 306 378 292 375 Q 279 369 285 354 Q 301 320 296 269 Q 289 140 296 114 Q 314 56 357 27 Q 450 -36 749 -8 Q 887 5 939 37 Q 967 50 956 79 Z"/>
  <path id="z39753d8" d="M 334 178 Q 338 171 353 163 Q 360 156 368 164 Q 387 186 459 210 C 487 220 481 231 451 226 Q 423 222 395 212 Q 391 211 390 212 Q 389 213 392 218 Q 435 287 446 298 Q 453 305 448 313 Q 444 320 412 332 Q 402 336 395 332 Q 388 328 393 315 Q 412 267 340 202 Q 337 202 334 197 C 324 189 324 189 334 178 Z"/>
  <path id="z39753d9" d="M 459 210 Q 465 188 480 182 Q 487 179 495 188 Q 498 195 496 208 Q 493 221 480 232 Q 461 251 451 256 Q 447 259 444 252 Q 441 248 444 242 Q 447 235 451 226 L 459 210 Z"/>
  <path id="z39753d10" d="M 758 656 Q 798 663 833 669 Q 843 668 850 680 Q 851 690 830 699 Q 803 718 735 694 Q 717 691 700 684 Q 684 681 551 654 Q 526 650 546 635 Q 574 616 601 620 L 628 627 Q 668 639 722 649 L 758 656 Z"/>
  <path id="z39753d11" d="M 533 492 Q 518 507 501 511 Q 497 514 492 508 Q 488 504 492 493 Q 522 430 496 287 Q 492 268 499 252 Q 508 236 521 225 Q 531 216 534 226 Q 540 229 542 246 Q 546 262 545 319 Q 548 391 551 465 C 551 475 551 475 533 492 Z"/>
  <path id="z39753d12" d="M 778 512 Q 796 516 819 518 Q 828 519 831 514 Q 838 510 840 477 Q 853 341 840 262 Q 836 237 813 238 Q 786 245 762 250 Q 752 254 750 249 Q 749 243 758 233 Q 816 182 831 156 Q 840 143 848 146 Q 860 149 869 170 Q 899 227 895 463 Q 894 494 903 512 Q 916 530 904 534 Q 891 546 859 558 Q 840 568 820 559 Q 807 555 781 548 L 737 540 Q 691 533 656 523 L 615 513 Q 572 503 533 492 C 504 484 522 456 551 465 Q 581 474 613 483 L 653 491 Q 714 506 736 506 L 778 512 Z"/>
  <path id="z39753d13" d="M 601 620 Q 601 619 603 615 Q 621 597 615 513 L 613 483 Q 613 408 549 288 Q 548 287 547 282 Q 546 275 553 276 Q 581 285 621 368 L 630 391 Q 645 436 653 491 L 656 523 Q 656 557 662 588 Q 668 598 662 607 Q 650 619 628 627 C 600 638 587 644 601 620 Z"/>
  <path id="z39753d14" d="M 621 368 Q 658 331 668 329 Q 675 329 678 337 Q 681 344 677 363 Q 673 378 630 391 C 601 400 600 389 621 368 Z"/>
  <path id="z39753d15" d="M 746 365 Q 770 440 778 512 L 781 548 Q 781 551 782 552 Q 783 594 788 616 Q 794 628 788 637 Q 778 647 758 656 C 731 670 707 675 722 649 Q 723 648 724 646 Q 743 621 737 540 L 736 506 Q 724 371 652 240 Q 648 236 647 231 Q 646 222 654 224 Q 687 236 736 337 Q 739 347 740 348 L 746 365 Z"/>
  <path id="z39753d16" d="M 740 348 Q 765 326 795 291 Q 805 279 814 276 Q 820 275 824 282 Q 831 289 824 317 Q 818 341 779 355 Q 760 362 746 365 C 717 372 718 368 740 348 Z"/>
<defs>
  <clipPath id="z39753c1"><use href="#z39753d1"/></clipPath>
  <clipPath id="z39753c2"><use href="#z39753d2"/></clipPath>
  <clipPath id="z39753c3"><use href="#z39753d3"/></clipPath>
  <clipPath id="z39753c4"><use href="#z39753d4"/></clipPath>
  <clipPath id="z39753c5"><use href="#z39753d5"/></clipPath>
  <clipPath id="z39753c6"><use href="#z39753d6"/></clipPath>
  <clipPath id="z39753c7"><use href="#z39753d7"/></clipPath>
  <clipPath id="z39753c8"><use href="#z39753d8"/></clipPath>
  <clipPath id="z39753c9"><use href="#z39753d9"/></clipPath>
  <clipPath id="z39753c10"><use href="#z39753d10"/></clipPath>
  <clipPath id="z39753c11"><use href="#z39753d11"/></clipPath>
  <clipPath id="z39753c12"><use href="#z39753d12"/></clipPath>
  <clipPath id="z39753c13"><use href="#z39753d13"/></clipPath>
  <clipPath id="z39753c14"><use href="#z39753d14"/></clipPath>
  <clipPath id="z39753c15"><use href="#z39753d15"/></clipPath>
  <clipPath id="z39753c16"><use href="#z39753d16"/></clipPath>
</defs>
<path style="--d:1s;" pathLength="3333" clip-path="url(#z39753c1)" d="M 265 809 L 278 802 L 297 778 L 257 708 L 204 634"/>
<path style="--d:2s;" pathLength="3333" clip-path="url(#z39753c2)" d="M 109 616 L 129 598 L 139 576 L 172 369"/>
<path style="--d:3s;" pathLength="3333" clip-path="url(#z39753c3)" d="M 156 611 L 177 604 L 362 646 L 401 648 L 423 638 L 443 613 L 421 551 L 385 407"/>
<path style="--d:4s;" pathLength="3333" clip-path="url(#z39753c4)" d="M 210 504 L 244 506 L 317 524 L 361 521"/>
<path style="--d:5s;" pathLength="3333" clip-path="url(#z39753c5)" d="M 190 391 L 198 399 L 356 426 L 367 434"/>
<path style="--d:6s;" pathLength="3333" clip-path="url(#z39753c6)" d="M 256 605 L 278 586 L 286 571 L 285 555 L 254 399 L 221 298 L 154 165 L 83 77 L 57 56"/>
<path style="--d:7s;" pathLength="3333" clip-path="url(#z39753c7)" d="M 295 364 L 328 316 L 313 191 L 314 135 L 323 99 L 355 57 L 388 36 L 425 23 L 504 10 L 607 6 L 735 14 L 858 40 L 916 72 L 923 219"/>
<path style="--d:8s;" pathLength="3333" clip-path="url(#z39753c8)" d="M 401 324 L 420 303 L 405 265 L 374 217 L 370 198 L 395 198 L 432 213 L 448 210"/>
<path style="--d:9s;" pathLength="3333" clip-path="url(#z39753c9)" d="M 451 248 L 484 195"/>
<path style="--d:10s;" pathLength="3333" clip-path="url(#z39753c10)" d="M 547 645 L 603 642 L 787 685 L 840 681"/>
<path style="--d:11s;" pathLength="3333" clip-path="url(#z39753c11)" d="M 500 501 L 520 477 L 527 457 L 529 400 L 520 265 L 527 237"/>
<path style="--d:12s;" pathLength="3333" clip-path="url(#z39753c12)" d="M 540 490 L 565 484 L 704 519 L 821 538 L 844 537 L 868 517 L 871 324 L 859 234 L 841 205 L 772 233 L 756 247"/>
<path style="--d:13s;" pathLength="3333" clip-path="url(#z39753c13)" d="M 608 620 L 638 595 L 630 456 L 604 364 L 554 283"/>
<path style="--d:14s;" pathLength="3333" clip-path="url(#z39753c14)" d="M 637 381 L 640 369 L 663 353 L 668 339"/>
<path style="--d:15s;" pathLength="3333" clip-path="url(#z39753c15)" d="M 731 645 L 755 633 L 762 623 L 751 465 L 717 333 L 689 279 L 655 232"/>
<path style="--d:16s;" pathLength="3333" clip-path="url(#z39753c16)" d="M 750 359 L 754 350 L 799 320 L 814 287"/>
</svg>