<svg id="z31349" class="acjk" viewBox="0 0 1024 1024" xmlns="http://www.w3.org/2000/svg">
  <path id="z31349d1" d="M 462 785 Q 493 763 527 734 Q 543 721 561 724 Q 571 725 576 740 Q 580 756 567 788 Q 560 810 524 822 Q 440 843 428 835 Q 422 831 425 817 Q 431 804 462 785 Z"/>
  <path id="z31349d2" d="M 255 639 Q 245 664 233 673 Q 214 689 211 662 Q 217 623 149 549 Q 130 528 153 470 Q 171 445 187 470 Q 206 495 221 534 Q 239 582 253 608 C 261 624 261 624 255 639 Z"/>
  <path id="z31349d3" d="M 253 608 Q 277 596 314 603 Q 446 645 689 667 Q 734 671 749 668 Q 767 664 764 653 Q 740 605 717 557 L 719 556 Q 728 552 745 563 Q 803 600 851 611 Q 891 621 890 632 Q 887 642 819 698 Q 794 722 722 706 Q 638 697 366 655 Q 311 645 255 639 C 225 636 224 617 253 608 Z"/>
  <path id="z31349d4" d="M 363 567 Q 369 525 309 445 Q 306 444 306 442 Q 288 420 241 374 Q 234 370 243 367 Q 307 367 423 516 Q 427 523 432 526 Q 438 530 437 539 Q 436 548 425 558 Q 395 585 369 580 Q 362 579 363 567 Z"/>
  <path id="z31349d5" d="M 598 575 Q 607 593 593 606 Q 571 627 547 632 Q 531 635 527 629 Q 520 625 529 611 Q 538 590 533 502 Q 532 468 549 448 Q 600 391 747 418 Q 783 424 793 434 Q 805 444 796 454 Q 786 467 752 481 Q 733 488 718 474 Q 694 458 656 454 Q 619 450 593 463 Q 581 472 579 499 Q 579 545 598 575 Z"/>
  <path id="z31349d6" d="M 265 330 Q 250 329 247 320 Q 244 313 253 308 Q 287 298 323 302 Q 404 332 433 334 Q 457 334 457 326 Q 460 317 444 304 Q 276 160 264 82 Q 268 36 304 6 Q 344 -28 432 -50 Q 507 -69 606 -66 Q 721 -63 858 -5 Q 892 13 881 39 Q 854 91 832 180 Q 825 193 818 193 Q 811 193 808 175 Q 804 144 797 109 Q 790 60 753 41 Q 698 8 565 3 Q 435 -4 384 19 Q 338 41 324 86 Q 324 158 468 258 Q 513 289 551 298 Q 579 305 573 321 Q 567 337 520 375 Q 501 391 471 381 Q 360 338 265 330 Z"/>
<defs>
  <clipPath id="z31349c1"><use href="#z31349d1"/></clipPath>
  <clipPath id="z31349c2"><use href="#z31349d2"/></clipPath>
  <clipPath id="z31349c3"><use href="#z31349d3"/></clipPath>
  <clipPath id="z31349c4"><use href="#z31349d4"/></clipPath>
  <clipPath id="z31349c5"><use href="#z31349d5"/></clipPath>
  <clipPath id="z31349c6"><use href="#z31349d6"/></clipPath>
</defs>
<path style="--d:1s;" pathLength="3333" clip-path="url(#z31349c1)" d="M 433 828 L 527 781 L 557 743"/>
<path style="--d:2s;" pathLength="3333" clip-path="url(#z31349c2)" d="M 222 667 L 232 637 L 228 615 L 177 525 L 170 475"/>
<path style="--d:3s;" pathLength="3333" clip-path="url(#z31349c3)" d="M 263 631 L 274 621 L 302 622 L 487 660 L 735 690 L 788 680 L 809 646 L 734 566 L 721 563"/>
<path style="--d:4s;" pathLength="3333" clip-path="url(#z31349c4)" d="M 376 569 L 396 538 L 367 487 L 308 417 L 247 372"/>
<path style="--d:5s;" pathLength="3333" clip-path="url(#z31349c5)" d="M 536 621 L 548 613 L 567 584 L 557 536 L 557 483 L 568 459 L 582 446 L 642 431 L 692 435 L 741 450 L 787 445"/>
<path style="--d:6s;" pathLength="3333" clip-path="url(#z31349c6)" d="M 257 318 L 327 320 L 437 352 L 476 351 L 501 335 L 501 326 L 476 296 L 384 222 L 346 182 L 306 124 L 296 93 L 294 79 L 301 59 L 326 25 L 380 -8 L 416 -18 L 501 -31 L 650 -27 L 732 -10 L 789 13 L 825 37 L 819 186"/>
</svg>