<svg id="z33266" class="acjk" viewBox="0 0 1024 1024" xmlns="http://www.w3.org/2000/svg">
  <path id="z33266d1" d="M 243 653 Q 276 677 296 693 Q 353 741 372 751 Q 391 761 380 776 Q 367 791 343 803 Q 321 813 309 811 Q 299 810 303 797 Q 306 778 239 682 Q 229 669 218 653 Q 217 652 216 649 C 201 623 219 635 243 653 Z"/>
  <path id="z33266d2" d="M 210 648 Q 186 669 159 678 Q 153 679 149 676 Q 142 672 149 661 Q 182 597 180 440 Q 177 389 211 359 L 212 358 Q 227 354 229 380 L 229 409 Q 226 442 223 472 L 221 497 Q 220 509 220 520 L 218 540 L 218 561 Q 217 592 217 618 C 217 642 217 642 210 648 Z"/>
  <path id="z33266d3" d="M 383 397 Q 384 396 386 391 Q 395 366 402 367 Q 414 367 429 391 Q 444 410 444 428 Q 441 582 474 626 Q 484 639 477 649 Q 453 671 412 691 Q 399 697 377 690 Q 346 677 243 653 L 216 649 Q 212 649 210 648 C 180 643 187 613 217 618 Q 221 618 226 619 Q 310 641 371 653 Q 393 657 400 647 Q 421 617 390 449 Q 387 439 382 421 C 378 408 378 408 383 397 Z"/>
  <path id="z33266d4" d="M 218 540 Q 224 539 234 541 Q 303 554 353 563 Q 372 567 365 578 Q 355 590 335 592 Q 308 595 218 561 C 190 550 188 542 218 540 Z"/>
  <path id="z33266d5" d="M 223 472 Q 293 485 345 492 Q 364 495 357 506 Q 348 518 327 521 Q 297 525 221 497 C 193 487 194 467 223 472 Z"/>
  <path id="z33266d6" d="M 229 380 Q 236 379 245 381 Q 288 391 383 397 C 408 399 405 401 382 421 Q 378 425 370 430 Q 355 437 329 431 Q 274 418 229 409 C 200 403 199 382 229 380 Z"/>
  <path id="z33266d7" d="M 317 275 Q 366 285 429 293 Q 445 294 445 302 Q 446 314 430 323 Q 405 333 383 329 Q 349 322 320 316 L 275 307 Q 173 289 93 280 Q 81 279 78 272 Q 75 262 89 251 Q 128 224 165 236 Q 208 251 243 258 L 317 275 Z"/>
  <path id="z33266d8" d="M 316 227 Q 316 251 317 275 L 320 316 Q 323 352 319 355 Q 300 371 284 380 Q 274 384 266 377 Q 260 374 267 366 Q 274 356 275 307 L 274 222 Q 274 114 259 69 Q 250 39 279 -6 Q 289 -22 295 -26 Q 305 -27 309 -16 Q 319 11 317 37 Q 316 119 316 192 L 316 227 Z"/>
  <path id="z33266d9" d="M 243 258 Q 198 167 63 57 Q 53 47 60 45 Q 67 41 78 46 Q 171 82 254 195 Q 267 213 274 222 C 311 270 264 298 243 258 Z"/>
  <path id="z33266d10" d="M 316 192 Q 395 128 403 127 Q 410 128 414 137 Q 417 147 411 167 Q 407 188 374 205 Q 346 218 316 227 C 287 236 293 211 316 192 Z"/>
  <path id="z33266d11" d="M 641 700 Q 668 739 682 753 Q 689 757 687 765 Q 686 772 676 783 Q 651 808 625 803 Q 618 802 619 792 Q 625 714 481 585 Q 474 581 483 579 Q 520 579 600 653 Q 601 656 604 657 Q 613 667 623 680 L 641 700 Z"/>
  <path id="z33266d12" d="M 623 680 Q 639 670 720 682 Q 727 683 730 681 Q 734 678 730 668 Q 699 586 679 547 Q 673 537 671 530 C 660 502 680 514 699 538 Q 789 652 825 678 Q 843 688 831 701 Q 818 713 782 733 Q 766 737 752 729 Q 743 725 673 706 Q 658 703 641 700 C 611 695 594 689 623 680 Z"/>
  <path id="z33266d13" d="M 671 530 Q 607 517 539 506 C 509 501 529 472 559 472 Q 584 471 612 477 Q 717 501 826 526 Q 875 539 883 546 Q 892 553 887 561 Q 880 571 854 578 Q 826 582 799 572 Q 750 554 699 538 L 671 530 Z"/>
  <path id="z33266d14" d="M 539 506 Q 530 513 517 520 Q 501 530 489 525 Q 479 519 484 507 Q 521 440 461 209 Q 457 197 452 183 Q 419 99 358 8 Q 354 2 352 -4 Q 349 -13 359 -11 Q 392 -5 461 106 L 473 130 Q 527 248 547 415 Q 550 464 559 472 C 566 488 564 489 539 506 Z"/>
  <path id="z33266d15" d="M 634 328 Q 640 327 649 329 Q 721 377 742 371 Q 751 367 751 354 Q 751 320 740 260 Q 739 244 722 245 Q 700 254 682 261 Q 669 267 670 258 Q 670 248 689 225 Q 714 191 725 158 Q 731 149 740 152 Q 747 153 760 173 Q 778 197 792 263 Q 802 341 817 357 Q 829 366 824 377 Q 817 389 782 412 Q 767 422 726 407 Q 716 407 634 372 C 606 360 604 326 634 328 Z"/>
  <path id="z33266d16" d="M 634 372 L 632 374 Q 620 386 599 394 Q 589 398 580 394 Q 574 390 579 374 Q 589 340 587 305 Q 575 133 590 84 Q 594 60 616 40 Q 682 -21 846 0 Q 861 3 877 7 Q 916 17 954 45 Q 975 67 953 96 Q 937 115 901 183 Q 897 199 889 202 Q 882 203 881 185 Q 871 106 859 80 Q 829 44 734 53 Q 697 56 667 70 Q 640 83 633 101 Q 606 156 634 328 C 639 358 640 367 634 372 Z"/>
<defs>
  <clipPath id="z33266c1"><use href="#z33266d1"/></clipPath>
  <clipPath id="z33266c2"><use href="#z33266d2"/></clipPath>
  <clipPath id="z33266c3"><use href="#z33266d3"/></clipPath>
  <clipPath id="z33266c4"><use href="#z33266d4"/></clipPath>
  <clipPath id="z33266c5"><use href="#z33266d5"/></clipPath>
  <clipPath id="z33266c6"><use href="#z33266d6"/></clipPath>
  <clipPath id="z33266c7"><use href="#z33266d7"/></clipPath>
  <clipPath id="z33266c8"><use href="#z33266d8"/></clipPath>
  <clipPath id="z33266c9"><use href="#z33266d9"/></clipPath>
  <clipPath id="z33266c10"><use href="#z33266d10"/></clipPath>
  <clipPath id="z33266c11"><use href="#z33266d11"/></clipPath>
  <clipPath id="z33266c12"><use href="#z33266d12"/></clipPath>
  <clipPath id="z33266c13"><use href="#z33266d13"/></clipPath>
  <clipPath id="z33266c14"><use href="#z33266d14"/></clipPath>
  <clipPath id="z33266c15"><use href="#z33266d15"/></clipPath>
  <clipPath id="z33266c16"><use href="#z33266d16"/></clipPath>
</defs>
<path style="--d:1s;" pathLength="3333" clip-path="url(#z33266c1)" d="M 314 801 L 332 767 L 254 677 L 224 656"/>
<path style="--d:2s;" pathLength="3333" clip-path="url(#z33266c2)" d="M 156 669 L 187 634 L 192 611 L 204 419 L 217 364"/>
<path style="--d:3s;" pathLength="3333" clip-path="url(#z33266c3)" d="M 214 641 L 231 635 L 388 673 L 410 668 L 433 646 L 440 636 L 417 439 L 403 377"/>
<path style="--d:4s;" pathLength="3333" clip-path="url(#z33266c4)" d="M 222 545 L 232 556 L 303 571 L 356 573"/>
<path style="--d:5s;" pathLength="3333" clip-path="url(#z33266c5)" d="M 231 479 L 236 490 L 255 495 L 313 505 L 349 501"/>
<path style="--d:6s;" pathLength="3333" clip-path="url(#z33266c6)" d="M 233 387 L 252 399 L 340 414 L 365 413 L 372 403"/>
<path style="--d:7s;" pathLength="3333" clip-path="url(#z33266c7)" d="M 88 268 L 120 259 L 152 260 L 380 308 L 417 310 L 434 305"/>
<path style="--d:8s;" pathLength="3333" clip-path="url(#z33266c8)" d="M 274 372 L 290 354 L 298 327 L 294 124 L 287 58 L 297 -17"/>
<path style="--d:9s;" pathLength="3333" clip-path="url(#z33266c9)" d="M 271 258 L 261 250 L 233 199 L 178 136 L 103 71 L 65 50"/>
<path style="--d:10s;" pathLength="3333" clip-path="url(#z33266c10)" d="M 322 221 L 337 197 L 385 168 L 405 136"/>
<path style="--d:11s;" pathLength="3333" clip-path="url(#z33266c11)" d="M 632 792 L 649 765 L 603 686 L 525 607 L 504 592 L 491 592 L 487 584"/>
<path style="--d:12s;" pathLength="3333" clip-path="url(#z33266c12)" d="M 628 684 L 740 702 L 772 689 L 699 553 L 681 540"/>
<path style="--d:13s;" pathLength="3333" clip-path="url(#z33266c13)" d="M 547 503 L 570 491 L 589 493 L 691 514 L 824 552 L 876 556"/>
<path style="--d:14s;" pathLength="3333" clip-path="url(#z33266c14)" d="M 495 514 L 520 487 L 525 449 L 519 375 L 494 251 L 478 195 L 440 105 L 379 15 L 360 -3"/>
<path style="--d:15s;" pathLength="3333" clip-path="url(#z33266c15)" d="M 641 335 L 656 359 L 727 389 L 767 387 L 783 366 L 766 258 L 753 224 L 742 213 L 724 218 L 677 255"/>
<path style="--d:16s;" pathLength="3333" clip-path="url(#z33266c16)" d="M 586 387 L 606 365 L 610 350 L 600 207 L 605 118 L 618 77 L 654 45 L 711 27 L 775 22 L 832 28 L 883 49 L 909 73 L 889 195"/>
</svg>