<svg id="z33289" class="acjk" viewBox="0 0 1024 1024" xmlns="http://www.w3.org/2000/svg">
  <path id="z33289d1" d="M 293 713 Q 315 725 330 734 Q 375 767 396 774 Q 414 781 405 797 Q 395 810 373 823 Q 354 835 343 833 Q 333 832 335 821 Q 336 800 277 725 C 259 701 267 699 293 713 Z"/>
  <path id="z33289d2" d="M 356 483 Q 346 520 335 555 L 329 577 Q 322 605 314 629 L 306 656 Q 297 689 295 698 Q 295 708 293 713 C 292 717 292 717 277 725 Q 255 737 234 739 Q 222 738 215 732 Q 209 725 215 717 Q 236 696 266 615 Q 282 567 314 479 C 324 451 364 454 356 483 Z"/>
  <path id="z33289d3" d="M 314 629 Q 362 642 399 649 Q 418 655 410 665 Q 400 677 376 678 Q 339 681 306 656 C 282 638 285 621 314 629 Z"/>
  <path id="z33289d4" d="M 335 555 Q 339 555 423 573 Q 442 579 434 589 Q 422 601 400 602 Q 355 602 329 577 C 307 557 305 551 335 555 Z"/>
  <path id="z33289d5" d="M 497 790 Q 525 781 606 795 Q 618 796 619 799 Q 626 805 622 811 Q 618 820 595 825 Q 573 829 550 821 Q 538 818 505 812 C 475 807 468 798 497 790 Z"/>
  <path id="z33289d6" d="M 558 504 Q 567 520 577 581 Q 592 668 600 678 Q 609 688 610 694 Q 610 701 592 713 Q 573 726 562 727 Q 555 730 508 718 Q 486 711 480 716 Q 477 719 484 751 Q 491 775 497 790 L 505 812 Q 508 822 511 824 Q 517 831 517 840 Q 516 852 496 864 Q 474 877 456 880 Q 443 881 439 876 Q 438 872 443 865 Q 458 844 441 731 Q 440 727 438 723 Q 432 716 433 710 Q 432 700 438 687 Q 442 677 449 674 Q 456 673 466 680 Q 482 690 512 693 Q 540 697 547 691 Q 554 685 549 663 Q 534 566 527 557 Q 512 539 526 501 C 535 472 547 476 558 504 Z"/>
  <path id="z33289d7" d="M 452 650 Q 462 616 443 543 Q 437 531 451 504 Q 457 497 464 502 Q 474 517 490 592 Q 493 608 498 623 Q 505 638 492 647 Q 482 656 472 663 Q 465 667 457 664 Q 451 661 452 650 Z"/>
  <path id="z33289d8" d="M 732 529 Q 781 721 813 743 Q 831 756 822 769 Q 810 788 776 810 Q 760 823 731 815 Q 685 802 648 802 Q 635 803 633 792 Q 634 785 649 776 Q 661 767 712 772 Q 724 772 728 768 Q 734 762 725 709 L 720 680 Q 714 652 707 620 L 701 592 Q 694 558 684 521 C 676 492 725 500 732 529 Z"/>
  <path id="z33289d9" d="M 725 709 Q 697 730 632 702 Q 616 701 633 686 Q 637 682 647 681 Q 687 681 720 680 C 750 679 750 692 725 709 Z"/>
  <path id="z33289d10" d="M 707 620 Q 694 633 636 627 Q 629 623 620 618 Q 605 617 621 601 Q 625 597 634 597 Q 671 596 701 592 C 731 588 730 601 707 620 Z"/>
  <path id="z33289d11" d="M 599 471 Q 734 477 876 470 Q 897 470 902 479 Q 908 491 891 506 Q 831 554 769 535 Q 751 534 732 529 L 684 521 Q 626 514 558 504 L 526 501 Q 454 494 356 483 L 314 479 Q 226 472 134 463 Q 112 462 127 443 Q 142 428 160 422 Q 182 415 199 420 Q 263 436 335 446 L 380 452 Q 446 464 567 470 L 599 471 Z"/>
  <path id="z33289d12" d="M 335 446 Q 335 373 214 256 Q 205 250 198 242 Q 158 206 62 139 Q 55 135 63 131 Q 126 131 255 238 Q 330 313 388 384 Q 398 397 405 401 Q 412 405 412 415 Q 408 440 380 452 C 354 467 337 476 335 446 Z"/>
  <path id="z33289d13" d="M 567 470 Q 568 466 574 461 Q 667 343 769 235 Q 809 189 977 211 Q 996 212 998 218 Q 1001 225 985 231 Q 936 253 877 275 Q 741 329 599 471 C 578 492 549 494 567 470 Z"/>
  <path id="z33289d14" d="M 527 287 Q 555 294 587 298 Q 618 304 622 308 Q 629 315 626 322 Q 620 332 596 339 Q 566 346 528 331 C 500 321 499 320 476 318 Q 475 319 473 318 Q 433 311 384 307 Q 353 303 375 288 Q 408 270 476 279 L 527 287 Z"/>
  <path id="z33289d15" d="M 526 173 Q 568 176 708 177 Q 726 177 731 185 Q 735 195 721 207 Q 669 246 622 231 Q 580 224 526 213 L 476 206 Q 385 193 275 180 Q 256 179 270 163 Q 283 150 299 145 Q 318 141 332 145 Q 452 175 476 168 L 526 173 Z"/>
  <path id="z33289d16" d="M 476 168 Q 476 -54 491 -73 Q 495 -80 503 -78 Q 518 -69 522 -16 Q 529 42 527 99 Q 526 121 526 173 L 526 213 Q 526 247 527 287 L 528 331 Q 528 334 529 336 Q 530 369 538 399 Q 541 415 528 424 Q 498 443 484 446 Q 472 450 458 442 Q 451 435 456 425 Q 474 395 475 332 Q 475 326 476 318 L 476 279 Q 476 245 476 206 L 476 168 Z"/>
<defs>
  <clipPath id="z33289c1"><use href="#z33289d1"/></clipPath>
  <clipPath id="z33289c2"><use href="#z33289d2"/></clipPath>
  <clipPath id="z33289c3"><use href="#z33289d3"/></clipPath>
  <clipPath id="z33289c4"><use href="#z33289d4"/></clipPath>
  <clipPath id="z33289c5"><use href="#z33289d5"/></clipPath>
  <clipPath id="z33289c6"><use href="#z33289d6"/></clipPath>
  <clipPath id="z33289c7"><use href="#z33289d7"/></clipPath>
  <clipPath id="z33289c8"><use href="#z33289d8"/></clipPath>
  <clipPath id="z33289c9"><use href="#z33289d9"/></clipPath>
  <clipPath id="z33289c10"><use href="#z33289d10"/></clipPath>
  <clipPath id="z33289c11"><use href="#z33289d11"/></clipPath>
  <clipPath id="z33289c12"><use href="#z33289d12"/></clipPath>
  <clipPath id="z33289c13"><use href="#z33289d13"/></clipPath>
  <clipPath id="z33289c14"><use href="#z33289d14"/></clipPath>
  <clipPath id="z33289c15"><use href="#z33289d15"/></clipPath>
  <clipPath id="z33289c16"><use href="#z33289d16"/></clipPath>
</defs>
<path style="--d:1s;" pathLength="3333" clip-path="url(#z33289c1)" d="M 394 788 L 361 793 L 306 737 L 295 729 L 288 731"/>
<path style="--d:2s;" pathLength="3333" clip-path="url(#z33289c2)" d="M 225 725 L 265 696 L 329 502 L 348 489"/>
<path style="--d:3s;" pathLength="3333" clip-path="url(#z33289c3)" d="M 320 638 L 325 649 L 345 656 L 381 662 L 401 659"/>
<path style="--d:4s;" pathLength="3333" clip-path="url(#z33289c4)" d="M 336 561 L 346 572 L 378 582 L 425 583"/>
<path style="--d:5s;" pathLength="3333" clip-path="url(#z33289c5)" d="M 503 794 L 516 802 L 611 807"/>
<path style="--d:6s;" pathLength="3333" clip-path="url(#z33289c6)" d="M 445 872 L 468 856 L 481 832 L 460 741 L 458 704 L 482 701 L 553 709 L 566 703 L 576 688 L 551 553 L 543 525 L 530 512"/>
<path style="--d:7s;" pathLength="3333" clip-path="url(#z33289c7)" d="M 464 654 L 477 624 L 458 535 L 458 509"/>
<path style="--d:8s;" pathLength="3333" clip-path="url(#z33289c8)" d="M 642 792 L 659 787 L 744 791 L 772 762 L 715 550 L 689 528"/>
<path style="--d:9s;" pathLength="3333" clip-path="url(#z33289c9)" d="M 632 694 L 695 700 L 713 689"/>
<path style="--d:10s;" pathLength="3333" clip-path="url(#z33289c10)" d="M 620 609 L 648 614 L 684 611 L 696 600"/>
<path style="--d:11s;" pathLength="3333" clip-path="url(#z33289c11)" d="M 131 453 L 182 442 L 417 475 L 796 507 L 829 505 L 890 486"/>
<path style="--d:12s;" pathLength="3333" clip-path="url(#z33289c12)" d="M 343 441 L 366 412 L 300 315 L 234 245 L 185 205 L 117 160 L 67 136"/>
<path style="--d:13s;" pathLength="3333" clip-path="url(#z33289c13)" d="M 572 467 L 597 456 L 675 371 L 804 261 L 852 243 L 992 220"/>
<path style="--d:14s;" pathLength="3333" clip-path="url(#z33289c14)" d="M 377 299 L 448 294 L 566 318 L 615 318"/>
<path style="--d:15s;" pathLength="3333" clip-path="url(#z33289c15)" d="M 272 172 L 308 163 L 457 187 L 644 206 L 688 201 L 721 190"/>
<path style="--d:16s;" pathLength="3333" clip-path="url(#z33289c16)" d="M 467 432 L 503 399 L 500 -69"/>
</svg>