<svg id="z33315" class="acjk" viewBox="0 0 1024 1024" xmlns="http://www.w3.org/2000/svg">
  <path id="z33315d1" d="M 254 627 Q 294 667 318 693 Q 369 756 395 775 Q 414 790 399 805 Q 381 820 352 829 Q 324 836 311 831 Q 298 827 306 814 Q 316 781 235 632 C 221 606 233 606 254 627 Z"/>
  <path id="z33315d2" d="M 235 632 Q 198 653 183 645 Q 173 638 180 626 Q 195 604 201 556 Q 201 424 198 378 L 192 332 Q 174 208 88 41 Q 84 34 83 29 Q 82 19 91 22 Q 106 25 136 71 Q 208 159 240 334 Q 241 341 242 348 L 247 389 Q 253 491 259 594 C 262 641 260 619 235 632 Z"/>
  <path id="z33315d3" d="M 385 395 Q 386 133 368 100 Q 362 96 291 107 Q 272 113 273 103 Q 328 58 360 24 Q 373 5 389 0 Q 399 -4 407 6 Q 440 48 444 85 L 445 96 Q 439 576 440 582 Q 441 598 448 607 Q 460 626 448 637 Q 426 655 390 669 Q 369 678 320 648 Q 287 636 254 627 C 225 619 231 584 259 594 Q 281 603 349 622 Q 367 629 373 621 Q 380 603 385 422 L 385 395 Z"/>
  <path id="z33315d4" d="M 277 522 Q 301 462 322 454 Q 334 450 344 464 Q 348 476 345 496 Q 341 509 324 520 Q 299 539 288 544 Q 281 548 276 538 Q 273 531 277 522 Z"/>
  <path id="z33315d5" d="M 198 378 Q 155 371 113 360 Q 92 354 57 358 Q 45 357 43 348 Q 40 336 48 328 Q 67 312 96 292 Q 105 289 116 296 Q 152 318 192 332 L 242 348 Q 374 393 385 395 C 414 403 414 429 385 422 Q 318 406 247 389 L 198 378 Z"/>
  <path id="z33315d6" d="M 266 285 Q 291 219 317 210 Q 330 206 340 221 Q 344 233 340 254 Q 331 284 276 309 Q 269 313 264 302 Q 261 295 266 285 Z"/>
  <path id="z33315d7" d="M 568 552 Q 592 528 616 499 Q 626 486 642 486 Q 652 485 657 497 Q 663 510 657 538 Q 650 568 568 596 Q 555 600 548 599 Q 544 595 543 584 Q 546 574 568 552 Z"/>
  <path id="z33315d8" d="M 690 264 Q 690 268 719 320 Q 752 384 763 460 Q 784 578 802 614 Q 812 635 794 644 Q 742 684 712 674 Q 697 668 704 652 Q 743 580 688 386 Q 685 382 684 374 Q 671 340 653 306 L 626 262 Q 583 201 458 106 Q 452 103 445 96 C 430 84 430 84 444 85 Q 445 86 447 85 Q 528 81 654 214 Q 655 217 657 217 L 690 264 Z"/>
  <path id="z33315d9" d="M 657 217 Q 753 84 768 75 Q 810 57 951 66 Q 970 66 978 74 Q 982 81 971 87 Q 790 157 707 246 Q 698 255 690 264 L 653 306 Q 598 372 532 461 Q 520 482 500 486 Q 475 489 467 480 Q 463 476 471 469 Q 511 444 535 402 Q 581 329 626 262 L 657 217 Z"/>
<defs>
  <clipPath id="z33315c1"><use href="#z33315d1"/></clipPath>
  <clipPath id="z33315c2"><use href="#z33315d2"/></clipPath>
  <clipPath id="z33315c3"><use href="#z33315d3"/></clipPath>
  <clipPath id="z33315c4"><use href="#z33315d4"/></clipPath>
  <clipPath id="z33315c5"><use href="#z33315d5"/></clipPath>
  <clipPath id="z33315c6"><use href="#z33315d6"/></clipPath>
  <clipPath id="z33315c7"><use href="#z33315d7"/></clipPath>
  <clipPath id="z33315c8"><use href="#z33315d8"/></clipPath>
  <clipPath id="z33315c9"><use href="#z33315d9"/></clipPath>
</defs>
<path style="--d:1s;" pathLength="3333" clip-path="url(#z33315c1)" d="M 312 821 L 327 813 L 347 787 L 274 668 L 253 641 L 243 642"/>
<path style="--d:2s;" pathLength="3333" clip-path="url(#z33315c2)" d="M 190 634 L 215 614 L 227 595 L 226 445 L 216 329 L 175 182 L 120 70 L 91 30"/>
<path style="--d:3s;" pathLength="3333" clip-path="url(#z33315c3)" d="M 262 600 L 272 615 L 368 647 L 387 643 L 412 617 L 415 251 L 413 141 L 405 85 L 388 59 L 283 101"/>
<path style="--d:4s;" pathLength="3333" clip-path="url(#z33315c4)" d="M 286 532 L 320 490 L 327 471"/>
<path style="--d:5s;" pathLength="3333" clip-path="url(#z33315c5)" d="M 56 345 L 104 326 L 167 349 L 372 405 L 379 415"/>
<path style="--d:6s;" pathLength="3333" clip-path="url(#z33315c6)" d="M 275 297 L 306 260 L 322 229"/>
<path style="--d:7s;" pathLength="3333" clip-path="url(#z33315c7)" d="M 552 589 L 615 544 L 643 500"/>
<path style="--d:8s;" pathLength="3333" clip-path="url(#z33315c8)" d="M 716 660 L 742 641 L 758 616 L 729 429 L 691 320 L 649 249 L 600 193 L 534 137 L 481 104 L 446 90"/>
<path style="--d:9s;" pathLength="3333" clip-path="url(#z33315c9)" d="M 474 476 L 508 464 L 676 238 L 788 122 L 877 93 L 969 78"/>
</svg>