<svg id="z37199" class="acjk" viewBox="0 0 1024 1024" xmlns="http://www.w3.org/2000/svg">
  <path id="z37199d1" d="M 346 650 Q 377 657 413 662 Q 452 669 458 674 Q 465 681 462 689 Q 456 699 430 708 Q 406 714 321 691 Q 240 673 170 669 Q 136 665 159 649 Q 177 637 211 632 C 227 629 227 629 247 634 Q 247 635 248 635 Q 275 639 304 644 L 346 650 Z"/>
  <path id="z37199d2" d="M 161 500 Q 148 516 122 525 Q 113 529 102 525 Q 95 521 100 509 Q 118 452 118 351 Q 112 222 102 184 Q 89 130 122 89 Q 132 76 142 88 Q 154 103 155 129 L 158 164 Q 158 447 167 474 C 170 491 170 491 161 500 Z"/>
  <path id="z37199d3" d="M 379 149 Q 380 146 384 141 Q 403 111 417 81 Q 427 62 436 60 Q 446 60 454 81 Q 469 121 467 170 Q 463 273 460 375 L 460 392 Q 460 474 467 494 Q 474 513 464 521 Q 457 531 424 547 Q 408 554 347 534 L 316 526 Q 292 522 269 517 Q 266 517 266 516 L 229 509 Q 196 505 161 500 C 131 496 138 467 167 474 Q 174 475 182 477 Q 203 484 227 489 L 264 497 Q 288 503 315 506 L 344 509 Q 351 512 361 512 Q 392 515 401 504 Q 417 488 412 379 L 412 358 Q 412 184 405 165 C 401 135 363 174 379 149 Z"/>
  <path id="z37199d4" d="M 211 632 Q 211 631 221 616 Q 228 601 229 509 L 227 489 Q 224 425 183 334 Q 180 330 179 325 Q 178 318 185 320 Q 209 329 242 404 Q 242 407 244 409 Q 253 440 264 497 L 266 516 Q 267 538 268 558 Q 268 588 271 603 Q 275 613 270 621 Q 261 630 247 634 C 219 645 199 652 211 632 Z"/>
  <path id="z37199d5" d="M 347 534 Q 351 577 367 623 Q 371 635 365 642 Q 358 646 346 650 C 318 661 292 670 304 644 Q 319 613 320 595 Q 320 568 316 526 L 315 506 Q 300 388 336 357 Q 343 348 382 349 Q 403 350 412 358 C 437 372 437 372 412 379 Q 408 382 399 382 Q 363 385 359 390 Q 344 400 343 430 Q 339 467 344 509 L 347 534 Z"/>
  <path id="z37199d6" d="M 207 269 Q 191 265 211 250 Q 217 246 231 247 Q 298 254 346 260 Q 370 264 361 276 Q 351 291 325 296 Q 301 299 260 288 Q 232 278 207 269 Z"/>
  <path id="z37199d7" d="M 155 129 Q 159 129 167 130 Q 234 143 379 149 C 409 150 415 151 405 165 Q 401 174 378 189 Q 362 199 331 192 Q 235 173 158 164 C 128 160 125 127 155 129 Z"/>
  <path id="z37199d8" d="M 460 375 Q 496 357 523 365 L 570 391 Q 598 406 648 428 L 694 450 Q 727 466 769 485 Q 788 489 793 478 Q 799 469 772 338 Q 768 298 740 309 Q 722 313 704 318 Q 692 319 695 312 Q 699 303 758 255 Q 777 233 792 252 Q 822 292 828 347 Q 835 393 844 442 Q 851 473 876 501 Q 886 516 872 525 Q 856 535 811 542 Q 795 545 783 533 Q 753 508 697 483 L 652 462 Q 619 449 585 435 Q 579 434 576 431 L 524 412 Q 463 396 460 392 C 439 384 439 384 460 375 Z"/>
  <path id="z37199d9" d="M 648 428 Q 632 281 639 257 Q 645 244 654 250 Q 678 269 682 347 Q 688 399 694 450 L 697 483 Q 715 675 730 720 Q 740 739 728 753 Q 713 768 686 783 Q 664 793 640 786 Q 627 779 641 761 Q 660 722 663 673 Q 664 583 652 462 L 648 428 Z"/>
  <path id="z37199d10" d="M 523 365 Q 522 223 533 186 Q 543 149 570 128 Q 630 86 820 93 Q 908 97 944 115 Q 974 130 962 161 Q 944 207 934 286 Q 933 301 925 306 Q 918 310 914 291 Q 899 194 885 176 Q 854 139 718 141 Q 645 144 613 156 Q 585 171 579 189 Q 552 264 570 391 L 576 431 Q 579 456 587 473 Q 599 501 581 518 Q 532 555 518 551 Q 503 545 511 528 Q 530 492 525 440 Q 524 427 524 412 L 523 365 Z"/>
<defs>
  <clipPath id="z37199c1"><use href="#z37199d1"/></clipPath>
  <clipPath id="z37199c2"><use href="#z37199d2"/></clipPath>
  <clipPath id="z37199c3"><use href="#z37199d3"/></clipPath>
  <clipPath id="z37199c4"><use href="#z37199d4"/></clipPath>
  <clipPath id="z37199c5"><use href="#z37199d5"/></clipPath>
  <clipPath id="z37199c6"><use href="#z37199d6"/></clipPath>
  <clipPath id="z37199c7"><use href="#z37199d7"/></clipPath>
  <clipPath id="z37199c8"><use href="#z37199d8"/></clipPath>
  <clipPath id="z37199c9"><use href="#z37199d9"/></clipPath>
  <clipPath id="z37199c10"><use href="#z37199d10"/></clipPath>
</defs>
<path style="--d:1s;" pathLength="3333" clip-path="url(#z37199c1)" d="M 162 660 L 216 652 L 394 684 L 450 684"/>
<path style="--d:2s;" pathLength="3333" clip-path="url(#z37199c2)" d="M 109 516 L 131 493 L 138 473 L 138 300 L 128 160 L 132 93"/>
<path style="--d:3s;" pathLength="3333" clip-path="url(#z37199c3)" d="M 169 495 L 186 490 L 361 528 L 411 526 L 434 508 L 438 193 L 430 135 L 436 71"/>
<path style="--d:4s;" pathLength="3333" clip-path="url(#z37199c4)" d="M 221 624 L 248 608 L 246 491 L 225 399 L 186 327"/>
<path style="--d:5s;" pathLength="3333" clip-path="url(#z37199c5)" d="M 312 639 L 341 623 L 325 472 L 333 394 L 355 369 L 397 367 L 404 374"/>
<path style="--d:6s;" pathLength="3333" clip-path="url(#z37199c6)" d="M 209 260 L 319 277 L 351 270"/>
<path style="--d:7s;" pathLength="3333" clip-path="url(#z37199c7)" d="M 161 134 L 174 149 L 211 155 L 356 172 L 397 164"/>
<path style="--d:8s;" pathLength="3333" clip-path="url(#z37199c8)" d="M 465 388 L 475 382 L 512 385 L 767 502 L 806 510 L 815 506 L 826 499 L 825 485 L 791 305 L 774 282 L 765 281 L 701 313"/>
<path style="--d:9s;" pathLength="3333" clip-path="url(#z37199c9)" d="M 648 774 L 671 761 L 693 728 L 679 497 L 649 258"/>
<path style="--d:10s;" pathLength="3333" clip-path="url(#z37199c10)" d="M 521 538 L 558 490 L 543 353 L 544 258 L 556 186 L 566 165 L 586 145 L 645 124 L 725 116 L 829 120 L 907 142 L 920 152 L 922 166 L 924 299"/>
</svg>