<svg id="z33543" class="acjk" viewBox="0 0 1024 1024" xmlns="http://www.w3.org/2000/svg">
  <path id="z33543d1" d="M 632 678 Q 687 687 797 679 Q 813 678 819 687 Q 823 699 810 714 Q 759 759 665 734 Q 658 734 653 732 L 591 721 Q 512 711 421 699 L 367 692 Q 297 686 220 678 Q 190 675 211 659 Q 259 631 311 641 Q 344 650 377 654 L 424 663 Q 490 675 581 676 L 632 678 Z"/>
  <path id="z33543d2" d="M 421 699 Q 420 727 418 749 Q 419 770 397 776 Q 358 797 331 788 Q 312 779 329 758 Q 354 728 367 692 L 377 654 Q 389 597 407 576 Q 420 566 426 578 Q 429 588 424 663 L 421 699 Z"/>
  <path id="z33543d3" d="M 653 732 Q 662 756 679 785 Q 695 801 683 812 Q 670 830 633 848 Q 615 858 596 848 Q 586 841 594 829 Q 609 798 591 721 L 581 676 Q 560 606 562 584 Q 563 568 580 581 Q 599 599 632 678 L 653 732 Z"/>
  <path id="z33543d4" d="M 474 432 Q 526 441 716 458 Q 728 457 739 470 Q 740 483 716 496 Q 673 523 609 503 Q 555 493 501 481 L 436 470 Q 430 470 202 448 Q 169 445 194 425 Q 233 395 260 399 Q 329 412 415 424 L 474 432 Z"/>
  <path id="z33543d5" d="M 426 337 Q 442 368 460 403 Q 467 419 474 432 L 501 481 Q 519 512 533 526 Q 546 539 541 550 Q 537 575 483 601 Q 470 608 451 603 Q 438 596 447 583 Q 460 562 460 542 Q 460 524 436 470 L 415 424 Q 411 417 407 407 Q 352 292 287 214 Q 235 150 119 57 Q 107 44 118 40 Q 122 37 137 44 Q 291 110 412 313 L 426 337 Z"/>
  <path id="z33543d6" d="M 582 131 Q 628 183 657 267 Q 667 301 689 318 Q 705 331 689 349 Q 670 367 636 382 Q 615 391 593 382 Q 529 351 439 339 Q 432 339 426 337 C 396 333 383 321 412 313 Q 437 300 476 312 Q 531 322 584 335 Q 602 341 603 321 Q 603 243 542 164 L 518 136 Q 442 73 282 34 Q 266 31 275 22 Q 282 15 312 16 Q 475 32 552 99 L 582 131 Z"/>
  <path id="z33543d7" d="M 552 99 Q 685 -34 717 -40 Q 799 -40 879 -26 Q 913 -20 911 -10 Q 908 -3 740 42 Q 668 66 582 131 L 542 164 Q 514 189 486 217 Q 449 253 417 252 Q 399 252 397 247 Q 396 240 410 231 Q 447 210 518 136 L 552 99 Z"/>
  <path id="z33543d8" d="M 731 551 Q 755 524 780 493 Q 790 480 805 478 Q 815 477 821 489 Q 827 502 823 530 Q 816 563 732 595 Q 719 601 712 599 Q 708 596 707 584 Q 708 574 731 551 Z"/>
<defs>
  <clipPath id="z33543c1"><use href="#z33543d1"/></clipPath>
  <clipPath id="z33543c2"><use href="#z33543d2"/></clipPath>
  <clipPath id="z33543c3"><use href="#z33543d3"/></clipPath>
  <clipPath id="z33543c4"><use href="#z33543d4"/></clipPath>
  <clipPath id="z33543c5"><use href="#z33543d5"/></clipPath>
  <clipPath id="z33543c6"><use href="#z33543d6"/></clipPath>
  <clipPath id="z33543c7"><use href="#z33543d7"/></clipPath>
  <clipPath id="z33543c8"><use href="#z33543d8"/></clipPath>
</defs>
<path style="--d:1s;" pathLength="3333" clip-path="url(#z33543c1)" d="M 213 670 L 237 663 L 300 662 L 480 690 L 712 713 L 761 710 L 808 693"/>
<path style="--d:2s;" pathLength="3333" clip-path="url(#z33543c2)" d="M 337 773 L 357 764 L 384 740 L 416 582"/>
<path style="--d:3s;" pathLength="3333" clip-path="url(#z33543c3)" d="M 602 838 L 619 829 L 641 797 L 607 676 L 571 583"/>
<path style="--d:4s;" pathLength="3333" clip-path="url(#z33543c4)" d="M 195 437 L 262 426 L 654 482 L 688 482 L 728 472"/>
<path style="--d:5s;" pathLength="3333" clip-path="url(#z33543c5)" d="M 455 592 L 483 571 L 499 546 L 435 407 L 378 302 L 289 181 L 215 111 L 122 48"/>
<path style="--d:6s;" pathLength="3333" clip-path="url(#z33543c6)" d="M 420 317 L 607 359 L 621 355 L 644 331 L 604 210 L 575 163 L 539 121 L 502 93 L 439 62 L 321 28 L 282 26"/>
<path style="--d:7s;" pathLength="3333" clip-path="url(#z33543c7)" d="M 403 245 L 455 220 L 595 89 L 647 49 L 725 2 L 908 -12"/>
<path style="--d:8s;" pathLength="3333" clip-path="url(#z33543c8)" d="M 716 589 L 780 539 L 806 494"/>
</svg>