<svg id="z34425" class="acjk" viewBox="0 0 1024 1024" xmlns="http://www.w3.org/2000/svg">
  <path id="z34425d1" d="M 170 477 Q 160 481 132 483 Q 120 486 117 480 Q 111 473 121 458 Q 151 407 173 321 Q 179 294 195 278 Q 214 259 218 274 Q 219 281 221 292 C 224 309 224 309 217 326 Q 205 350 190 447 C 186 472 186 472 170 477 Z"/>
  <path id="z34425d2" d="M 461 364 Q 491 451 523 468 Q 539 487 525 504 Q 509 517 458 542 Q 440 549 419 541 Q 379 525 342 513 L 294 501 Q 233 488 170 477 C 140 472 161 440 190 447 Q 199 448 211 453 Q 251 462 294 470 L 341 480 Q 419 501 431 490 Q 444 474 413 376 C 404 347 451 336 461 364 Z"/>
  <path id="z34425d3" d="M 338 316 Q 390 328 465 337 Q 475 338 477 348 Q 477 354 461 364 C 437 380 437 380 413 376 Q 386 372 339 355 L 294 343 Q 252 334 217 326 C 188 319 191 290 221 292 Q 228 292 236 294 Q 260 301 294 307 L 338 316 Z"/>
  <path id="z34425d4" d="M 335 172 Q 336 245 338 316 L 339 355 Q 340 419 341 480 L 342 513 Q 342 619 364 722 Q 368 735 345 750 Q 305 769 279 774 Q 260 778 252 768 Q 245 759 253 743 Q 287 694 288 659 Q 292 583 294 501 L 294 470 Q 294 409 294 343 L 294 307 Q 293 235 289 158 C 288 128 335 142 335 172 Z"/>
  <path id="z34425d5" d="M 434 204 Q 386 189 335 172 L 289 158 Q 225 142 161 122 Q 140 115 106 117 Q 93 116 91 105 Q 90 92 98 82 Q 122 66 156 46 Q 166 43 179 52 Q 222 83 269 103 Q 342 133 413 164 Q 432 173 447 182 C 473 197 463 213 434 204 Z"/>
  <path id="z34425d6" d="M 447 182 Q 457 155 477 150 Q 486 147 493 157 Q 500 169 501 195 Q 501 225 426 268 Q 414 275 408 275 Q 404 272 401 261 Q 401 257 434 204 L 447 182 Z"/>
  <path id="z34425d7" d="M 714 454 Q 876 490 883 495 Q 892 502 887 512 Q 880 524 850 531 Q 825 535 720 504 Q 621 483 578 478 Q 541 471 567 454 Q 603 435 652 440 L 714 454 Z"/>
  <path id="z34425d8" d="M 652 440 Q 668 415 669 397 Q 670 279 661 141 C 659 111 699 117 703 147 Q 733 372 747 418 Q 751 428 732 444 Q 722 450 714 454 C 688 468 637 466 652 440 Z"/>
  <path id="z34425d9" d="M 661 141 Q 573 129 476 114 Q 455 113 471 95 Q 504 65 550 79 Q 676 115 947 115 Q 966 116 972 124 Q 976 136 960 150 Q 900 192 833 171 Q 779 162 703 147 L 661 141 Z"/>
<defs>
  <clipPath id="z34425c1"><use href="#z34425d1"/></clipPath>
  <clipPath id="z34425c2"><use href="#z34425d2"/></clipPath>
  <clipPath id="z34425c3"><use href="#z34425d3"/></clipPath>
  <clipPath id="z34425c4"><use href="#z34425d4"/></clipPath>
  <clipPath id="z34425c5"><use href="#z34425d5"/></clipPath>
  <clipPath id="z34425c6"><use href="#z34425d6"/></clipPath>
  <clipPath id="z34425c7"><use href="#z34425d7"/></clipPath>
  <clipPath id="z34425c8"><use href="#z34425d8"/></clipPath>
  <clipPath id="z34425c9"><use href="#z34425d9"/></clipPath>
</defs>
<path style="--d:1s;" pathLength="3333" clip-path="url(#z34425c1)" d="M 126 473 L 153 454 L 164 437 L 207 279"/>
<path style="--d:2s;" pathLength="3333" clip-path="url(#z34425c2)" d="M 178 475 L 200 466 L 350 496 L 393 511 L 445 516 L 477 485 L 445 394 L 422 386"/>
<path style="--d:3s;" pathLength="3333" clip-path="url(#z34425c3)" d="M 228 299 L 242 315 L 400 351 L 468 348"/>
<path style="--d:4s;" pathLength="3333" clip-path="url(#z34425c4)" d="M 265 758 L 318 715 L 321 691 L 314 209 L 312 186 L 293 165"/>
<path style="--d:5s;" pathLength="3333" clip-path="url(#z34425c5)" d="M 105 103 L 126 92 L 163 85 L 418 184 L 439 184"/>
<path style="--d:6s;" pathLength="3333" clip-path="url(#z34425c6)" d="M 410 265 L 469 201 L 481 163"/>
<path style="--d:7s;" pathLength="3333" clip-path="url(#z34425c7)" d="M 570 467 L 603 461 L 643 463 L 822 505 L 877 505"/>
<path style="--d:8s;" pathLength="3333" clip-path="url(#z34425c8)" d="M 661 435 L 705 410 L 687 186 L 684 167 L 667 149"/>
<path style="--d:9s;" pathLength="3333" clip-path="url(#z34425c9)" d="M 473 105 L 526 98 L 627 117 L 860 146 L 904 145 L 962 129"/>
</svg>