<svg id="z33712" class="acjk" viewBox="0 0 1024 1024" xmlns="http://www.w3.org/2000/svg">
  <path id="z33712d1" d="M 624 661 Q 705 670 805 663 Q 821 662 827 671 Q 831 683 818 698 Q 772 740 680 719 Q 662 716 645 712 L 590 703 Q 506 693 412 679 L 360 673 Q 287 667 208 658 Q 177 655 199 639 Q 248 609 322 627 Q 344 633 368 636 L 414 644 Q 457 656 579 659 L 624 661 Z"/>
  <path id="z33712d2" d="M 412 679 Q 409 713 409 740 Q 410 762 389 768 Q 347 789 323 781 Q 304 772 320 751 Q 350 715 360 673 L 368 636 Q 383 576 395 564 Q 408 554 414 566 Q 420 584 414 644 L 412 679 Z"/>
  <path id="z33712d3" d="M 645 712 Q 657 748 678 785 Q 691 800 681 810 Q 669 826 634 843 Q 618 853 600 844 Q 590 837 598 826 Q 613 796 590 703 L 579 659 Q 564 614 566 591 Q 567 578 583 589 Q 583 590 624 661 L 645 712 Z"/>
  <path id="z33712d4" d="M 334 352 Q 364 361 396 368 Q 427 375 432 381 Q 439 388 435 397 Q 428 407 400 414 Q 354 420 337 404 L 284 386 Q 274 385 268 382 Q 225 372 176 364 Q 140 357 166 342 Q 209 324 271 338 Q 277 339 285 340 L 334 352 Z"/>
  <path id="z33712d5" d="M 325 193 Q 329 275 334 352 L 337 404 Q 337 429 353 494 Q 356 504 337 518 Q 303 536 281 539 Q 265 542 258 534 Q 251 527 259 513 Q 280 483 280 463 Q 281 426 284 386 L 285 340 Q 286 264 285 178 C 285 148 324 163 325 193 Z"/>
  <path id="z33712d6" d="M 285 178 Q 234 162 179 143 Q 163 137 135 137 Q 122 136 120 124 Q 119 111 129 102 Q 154 87 189 70 Q 199 67 212 77 Q 245 105 386 182 Q 407 194 421 207 Q 434 214 434 225 Q 428 229 415 227 Q 372 211 325 193 L 285 178 Z"/>
  <path id="z33712d7" d="M 564 421 Q 594 484 612 503 Q 619 513 614 524 Q 610 534 584 551 Q 559 564 543 562 Q 528 559 537 541 Q 547 526 542 511 Q 521 427 455 315 Q 448 305 446 300 Q 445 290 456 293 Q 474 299 529 369 Q 529 372 545 392 L 564 421 Z"/>
  <path id="z33712d8" d="M 545 392 Q 566 376 591 387 Q 696 430 721 423 Q 737 410 732 398 Q 732 395 710 333 Q 704 323 709 317 Q 713 313 724 324 Q 806 390 844 407 Q 853 408 853 417 Q 854 430 825 444 Q 803 456 780 469 Q 752 482 738 474 Q 672 446 564 421 C 535 414 519 407 545 392 Z"/>
  <path id="z33712d9" d="M 606 226 Q 625 280 634 290 Q 644 305 631 315 Q 618 328 605 336 Q 586 351 569 347 Q 556 344 561 331 Q 579 279 534 176 Q 491 86 378 29 Q 365 23 376 19 Q 424 13 490 57 Q 560 105 596 200 L 606 226 Z"/>
  <path id="z33712d10" d="M 596 200 Q 680 74 744 5 Q 763 -17 781 -16 Q 830 -7 874 1 Q 893 4 892 9 Q 893 13 871 26 Q 757 80 706 125 Q 660 167 606 226 C 586 248 579 225 596 200 Z"/>
<defs>
  <clipPath id="z33712c1"><use href="#z33712d1"/></clipPath>
  <clipPath id="z33712c2"><use href="#z33712d2"/></clipPath>
  <clipPath id="z33712c3"><use href="#z33712d3"/></clipPath>
  <clipPath id="z33712c4"><use href="#z33712d4"/></clipPath>
  <clipPath id="z33712c5"><use href="#z33712d5"/></clipPath>
  <clipPath id="z33712c6"><use href="#z33712d6"/></clipPath>
  <clipPath id="z33712c7"><use href="#z33712d7"/></clipPath>
  <clipPath id="z33712c8"><use href="#z33712d8"/></clipPath>
  <clipPath id="z33712c9"><use href="#z33712d9"/></clipPath>
  <clipPath id="z33712c10"><use href="#z33712d10"/></clipPath>
</defs>
<path style="--d:1s;" pathLength="3333" clip-path="url(#z33712c1)" d="M 201 650 L 224 643 L 277 642 L 483 673 L 713 696 L 779 692 L 816 677"/>
<path style="--d:2s;" pathLength="3333" clip-path="url(#z33712c2)" d="M 329 765 L 375 733 L 404 570"/>
<path style="--d:3s;" pathLength="3333" clip-path="url(#z33712c3)" d="M 606 834 L 621 826 L 641 796 L 602 659 L 575 592"/>
<path style="--d:4s;" pathLength="3333" clip-path="url(#z33712c4)" d="M 168 354 L 243 354 L 361 387 L 423 391"/>
<path style="--d:5s;" pathLength="3333" clip-path="url(#z33712c5)" d="M 269 525 L 313 488 L 306 207 L 290 186"/>
<path style="--d:6s;" pathLength="3333" clip-path="url(#z33712c6)" d="M 135 122 L 193 109 L 429 221"/>
<path style="--d:7s;" pathLength="3333" clip-path="url(#z33712c7)" d="M 545 550 L 567 533 L 575 509 L 547 441 L 508 370 L 453 300"/>
<path style="--d:8s;" pathLength="3333" clip-path="url(#z33712c8)" d="M 555 393 L 701 442 L 729 446 L 754 440 L 776 418 L 712 322"/>
<path style="--d:9s;" pathLength="3333" clip-path="url(#z33712c9)" d="M 570 337 L 600 298 L 571 201 L 538 136 L 504 94 L 472 67 L 431 41 L 382 23"/>
<path style="--d:10s;" pathLength="3333" clip-path="url(#z33712c10)" d="M 609 217 L 610 202 L 678 120 L 768 35 L 782 25 L 887 10"/>
</svg>