<svg id="z39307" class="acjk" viewBox="0 0 1024 1024" xmlns="http://www.w3.org/2000/svg">
  <path id="z39307d1" d="M 224 553 Q 317 751 318 754 Q 317 757 316 759 Q 309 771 278 790 Q 248 806 230 803 Q 211 799 222 777 Q 241 746 232 716 Q 184 545 43 324 Q 34 312 33 306 Q 30 294 45 299 Q 88 312 211 530 L 224 553 Z"/>
  <path id="z39307d2" d="M 412 563 Q 409 572 362 595 Q 356 596 263 564 Q 260 564 224 553 C 195 544 181 529 211 530 Q 224 529 308 546 Q 317 549 320 546 Q 323 545 320 537 Q 305 485 294 458 Q 290 448 290 444 Q 289 434 300 440 Q 309 444 351 496 Q 378 529 404 548 Q 411 554 412 560 L 412 563 Z"/>
  <path id="z39307d3" d="M 378 195 Q 368 191 355 181 Q 322 162 285 139 Q 281 135 278 139 Q 290 248 290 331 Q 290 356 295 378 Q 299 391 291 402 Q 267 424 246 435 Q 227 442 219 437 Q 209 431 217 415 Q 253 334 234 180 Q 233 131 194 81 Q 184 66 191 44 Q 201 17 215 6 Q 228 -1 240 16 Q 252 44 375 167 Q 393 180 397 190 Q 398 199 393 199 C 393 203 393 203 378 195 Z"/>
  <path id="z39307d4" d="M 590 721 Q 615 754 632 763 Q 639 770 638 781 Q 637 791 616 813 Q 597 829 582 832 Q 567 832 571 814 Q 584 771 456 635 Q 447 628 445 624 Q 441 615 452 616 Q 479 619 565 696 L 590 721 Z"/>
  <path id="z39307d5" d="M 622 587 Q 719 677 749 692 Q 767 701 756 714 Q 744 727 711 748 Q 699 754 650 736 Q 611 730 590 721 C 562 710 535 698 565 696 Q 578 693 651 703 Q 658 704 661 702 Q 664 698 659 691 Q 625 627 604 598 Q 598 588 595 582 C 581 556 600 567 622 587 Z"/>
  <path id="z39307d6" d="M 462 565 Q 452 569 429 572 Q 417 573 415 569 Q 412 568 412 563 L 412 560 Q 413 556 418 548 Q 442 506 459 437 Q 463 415 476 402 Q 494 383 498 397 Q 499 404 500 414 L 497 445 Q 484 518 482 538 C 480 559 480 559 462 565 Z"/>
  <path id="z39307d7" d="M 781 473 Q 805 533 834 552 Q 850 568 837 584 Q 822 597 777 621 Q 761 628 742 621 Q 678 599 622 587 L 595 582 Q 528 572 462 565 C 432 562 452 533 482 538 Q 491 539 502 542 Q 533 548 565 553 L 604 560 Q 656 570 713 580 Q 740 586 750 574 Q 757 567 755 553 Q 746 516 736 484 C 727 455 769 445 781 473 Z"/>
  <path id="z39307d8" d="M 673 435 Q 722 442 787 444 Q 797 445 799 453 Q 799 460 781 473 C 762 488 762 488 736 484 Q 730 484 728 483 Q 667 470 610 460 L 561 453 Q 527 450 497 445 C 467 440 470 414 500 414 Q 506 413 516 415 Q 531 419 553 421 L 599 427 Q 612 430 630 431 L 673 435 Z"/>
  <path id="z39307d9" d="M 553 421 Q 507 286 361 204 Q 349 197 359 195 Q 365 194 378 195 L 393 199 Q 396 200 400 201 Q 491 232 551 320 Q 591 404 596 413 Q 596 420 599 427 L 610 460 Q 611 466 614 471 Q 620 496 634 519 Q 643 532 630 541 Q 618 553 604 560 C 578 576 558 582 565 553 Q 575 526 561 453 L 553 421 Z"/>
  <path id="z39307d10" d="M 893 281 L 877 284 Q 853 260 773 257 Q 728 257 708 263 Q 692 270 687 283 Q 672 328 700 379 Q 712 409 673 435 C 649 453 619 459 630 431 Q 646 397 644 349 Q 641 252 686 231 Q 702 225 733 219 Q 776 212 845 216 Q 906 219 931 232 Q 956 245 945 272 Q 929 312 918 380 Q 915 393 909 398 Q 902 402 899 384 Q 889 300 876 285 L 893 281 Z"/>
  <path id="z39307d11" d="M 554 218 Q 623 149 649 151 Q 662 151 667 170 Q 668 183 656 203 Q 643 221 616 228 Q 574 244 556 245 Q 546 246 547 234 Q 546 227 554 218 Z"/>
  <path id="z39307d12" d="M 534 90 Q 589 42 658 -27 Q 674 -46 689 -51 Q 698 -52 705 -41 Q 717 -28 703 15 Q 690 63 534 121 Q 524 125 523 113 Q 523 100 534 90 Z"/>
<defs>
  <clipPath id="z39307c1"><use href="#z39307d1"/></clipPath>
  <clipPath id="z39307c2"><use href="#z39307d2"/></clipPath>
  <clipPath id="z39307c3"><use href="#z39307d3"/></clipPath>
  <clipPath id="z39307c4"><use href="#z39307d4"/></clipPath>
  <clipPath id="z39307c5"><use href="#z39307d5"/></clipPath>
  <clipPath id="z39307c6"><use href="#z39307d6"/></clipPath>
  <clipPath id="z39307c7"><use href="#z39307d7"/></clipPath>
  <clipPath id="z39307c8"><use href="#z39307d8"/></clipPath>
  <clipPath id="z39307c9"><use href="#z39307d9"/></clipPath>
  <clipPath id="z39307c10"><use href="#z39307d10"/></clipPath>
  <clipPath id="z39307c11"><use href="#z39307d11"/></clipPath>
  <clipPath id="z39307c12"><use href="#z39307d12"/></clipPath>
</defs>
<path style="--d:1s;" pathLength="3333" clip-path="url(#z39307c1)" d="M 232 788 L 259 768 L 273 747 L 241 650 L 210 576 L 150 463 L 75 345 L 42 307"/>
<path style="--d:2s;" pathLength="3333" clip-path="url(#z39307c2)" d="M 220 535 L 240 546 L 279 558 L 294 556 L 303 563 L 323 566 L 356 556 L 330 497 L 298 449"/>
<path style="--d:3s;" pathLength="3333" clip-path="url(#z39307c3)" d="M 227 426 L 256 394 L 263 376 L 265 257 L 252 138 L 257 104 L 284 111 L 387 191"/>
<path style="--d:4s;" pathLength="3333" clip-path="url(#z39307c4)" d="M 581 820 L 596 799 L 598 775 L 543 702 L 499 658 L 454 624"/>
<path style="--d:5s;" pathLength="3333" clip-path="url(#z39307c5)" d="M 576 699 L 594 709 L 667 723 L 699 710 L 685 679 L 624 602 L 606 591"/>
<path style="--d:6s;" pathLength="3333" clip-path="url(#z39307c6)" d="M 423 562 L 444 547 L 459 521 L 488 402"/>
<path style="--d:7s;" pathLength="3333" clip-path="url(#z39307c7)" d="M 470 564 L 488 554 L 508 555 L 754 600 L 772 592 L 793 565 L 764 499 L 745 488"/>
<path style="--d:8s;" pathLength="3333" clip-path="url(#z39307c8)" d="M 504 422 L 530 434 L 724 462 L 770 460 L 789 453"/>
<path style="--d:9s;" pathLength="3333" clip-path="url(#z39307c9)" d="M 572 550 L 601 525 L 573 415 L 539 339 L 512 301 L 461 252 L 415 221 L 363 199"/>
<path style="--d:10s;" pathLength="3333" clip-path="url(#z39307c10)" d="M 638 427 L 671 398 L 662 337 L 664 299 L 672 271 L 696 247 L 790 236 L 853 241 L 907 254 L 918 269 L 910 300 L 891 292 L 884 256 L 881 286 L 890 292"/>
<path style="--d:11s;" pathLength="3333" clip-path="url(#z39307c11)" d="M 560 233 L 624 194 L 647 171"/>
<path style="--d:12s;" pathLength="3333" clip-path="url(#z39307c12)" d="M 534 109 L 655 24 L 677 -3 L 690 -36"/>
</svg>