<svg id="z33108" class="acjk" viewBox="0 0 1024 1024" xmlns="http://www.w3.org/2000/svg">
  <path id="z33108d1" d="M 206 350 Q 215 416 219 479 L 220 513 Q 220 639 222 662 C 223 690 223 690 219 693 Q 203 706 177 714 Q 159 721 149 716 Q 139 709 146 697 Q 167 672 172 600 Q 172 393 157 308 Q 153 292 149 273 Q 119 159 51 32 Q 47 26 46 20 Q 45 10 54 14 Q 69 17 100 68 Q 169 164 200 318 L 206 350 Z"/>
  <path id="z33108d2" d="M 222 662 Q 226 663 236 666 Q 266 675 296 684 Q 314 691 319 681 Q 346 609 333 210 Q 329 135 321 123 Q 317 117 297 121 Q 272 125 247 131 Q 228 137 229 127 Q 283 84 314 50 Q 327 31 341 27 Q 350 24 358 33 Q 395 76 394 132 Q 372 510 382 636 Q 385 658 392 670 Q 402 689 392 698 Q 371 716 336 729 Q 317 738 275 712 Q 263 706 219 693 C 190 684 193 654 222 662 Z"/>
  <path id="z33108d3" d="M 219 479 Q 256 486 289 490 Q 310 494 301 505 Q 291 518 269 520 Q 250 521 220 513 C 191 505 190 473 219 479 Z"/>
  <path id="z33108d4" d="M 200 318 Q 251 328 289 334 Q 310 338 301 349 Q 291 362 268 364 Q 223 367 206 350 C 184 330 171 312 200 318 Z"/>
  <path id="z33108d5" d="M 583 737 Q 613 716 644 690 Q 659 680 674 681 Q 684 682 689 696 Q 692 712 680 740 Q 673 759 641 771 Q 562 789 552 783 Q 548 779 550 766 Q 554 756 583 737 Z"/>
  <path id="z33108d6" d="M 481 588 Q 469 612 451 622 Q 447 626 442 622 Q 436 618 437 607 Q 441 580 419 520 Q 409 504 411 486 Q 415 467 425 453 Q 432 443 438 451 Q 444 452 451 468 Q 455 474 462 498 Q 475 540 482 554 Q 482 555 483 556 C 490 571 490 571 481 588 Z"/>
  <path id="z33108d7" d="M 483 556 Q 499 550 545 563 Q 641 596 771 607 Q 780 608 786 607 Q 799 597 798 590 Q 783 550 767 507 L 769 505 Q 776 501 790 512 Q 839 548 880 560 Q 914 572 913 579 Q 912 589 847 634 Q 825 649 723 629 Q 722 629 545 598 Q 512 592 481 588 C 451 584 453 559 483 556 Z"/>
  <path id="z33108d8" d="M 533 489 Q 539 467 493 398 Q 471 367 439 333 Q 432 327 429 323 Q 426 316 436 316 Q 472 316 564 421 Q 577 437 588 445 Q 595 451 593 461 Q 592 471 573 489 Q 555 504 542 505 Q 529 505 533 489 Z"/>
  <path id="z33108d9" d="M 684 459 Q 720 425 758 386 Q 768 374 783 374 Q 792 374 797 385 Q 801 397 796 423 Q 790 460 683 501 Q 670 505 664 503 Q 660 499 660 488 Q 663 478 684 459 Z"/>
  <path id="z33108d10" d="M 632 250 Q 779 283 783 286 Q 790 293 787 301 Q 780 311 754 319 Q 730 323 632 294 Q 554 276 492 270 Q 459 264 483 249 Q 519 225 592 243 L 593 243 L 632 250 Z"/>
  <path id="z33108d11" d="M 639 87 Q 646 145 652 190 Q 658 223 654 230 Q 642 243 632 250 C 608 268 578 269 593 243 Q 594 242 596 239 Q 597 232 597 82 C 597 52 635 57 639 87 Z"/>
  <path id="z33108d12" d="M 597 82 Q 506 73 401 62 Q 380 61 395 43 Q 408 28 427 23 Q 448 16 464 21 Q 668 66 897 48 Q 916 48 922 56 Q 928 68 912 82 Q 860 124 823 115 Q 754 102 639 87 L 597 82 Z"/>
<defs>
  <clipPath id="z33108c1"><use href="#z33108d1"/></clipPath>
  <clipPath id="z33108c2"><use href="#z33108d2"/></clipPath>
  <clipPath id="z33108c3"><use href="#z33108d3"/></clipPath>
  <clipPath id="z33108c4"><use href="#z33108d4"/></clipPath>
  <clipPath id="z33108c5"><use href="#z33108d5"/></clipPath>
  <clipPath id="z33108c6"><use href="#z33108d6"/></clipPath>
  <clipPath id="z33108c7"><use href="#z33108d7"/></clipPath>
  <clipPath id="z33108c8"><use href="#z33108d8"/></clipPath>
  <clipPath id="z33108c9"><use href="#z33108d9"/></clipPath>
  <clipPath id="z33108c10"><use href="#z33108d10"/></clipPath>
  <clipPath id="z33108c11"><use href="#z33108d11"/></clipPath>
  <clipPath id="z33108c12"><use href="#z33108d12"/></clipPath>
</defs>
<path style="--d:1s;" pathLength="3333" clip-path="url(#z33108c1)" d="M 156 705 L 190 676 L 196 621 L 197 525 L 183 338 L 172 279 L 137 171 L 93 82 L 54 22"/>
<path style="--d:2s;" pathLength="3333" clip-path="url(#z33108c2)" d="M 227 670 L 239 682 L 310 708 L 333 703 L 357 679 L 362 165 L 356 111 L 341 84 L 238 125"/>
<path style="--d:3s;" pathLength="3333" clip-path="url(#z33108c3)" d="M 226 484 L 232 496 L 244 501 L 273 504 L 293 499"/>
<path style="--d:4s;" pathLength="3333" clip-path="url(#z33108c4)" d="M 208 322 L 213 332 L 241 346 L 293 343"/>
<path style="--d:5s;" pathLength="3333" clip-path="url(#z33108c5)" d="M 556 778 L 635 739 L 670 700"/>
<path style="--d:6s;" pathLength="3333" clip-path="url(#z33108c6)" d="M 447 612 L 459 571 L 435 492 L 433 464"/>
<path style="--d:7s;" pathLength="3333" clip-path="url(#z33108c7)" d="M 488 583 L 502 573 L 530 576 L 635 603 L 737 620 L 798 622 L 823 611 L 839 589 L 774 512"/>
<path style="--d:8s;" pathLength="3333" clip-path="url(#z33108c8)" d="M 541 495 L 556 474 L 557 455 L 500 376 L 459 336 L 438 325"/>
<path style="--d:9s;" pathLength="3333" clip-path="url(#z33108c9)" d="M 668 494 L 757 430 L 782 389"/>
<path style="--d:10s;" pathLength="3333" clip-path="url(#z33108c10)" d="M 485 261 L 505 255 L 544 256 L 642 272 L 649 278 L 743 298 L 778 295"/>
<path style="--d:11s;" pathLength="3333" clip-path="url(#z33108c11)" d="M 604 238 L 626 217 L 626 204 L 619 107 L 602 96"/>
<path style="--d:12s;" pathLength="3333" clip-path="url(#z33108c12)" d="M 398 52 L 454 43 L 563 60 L 833 84 L 911 63"/>
</svg>