<svg id="z30166" class="acjk" viewBox="0 0 1024 1024" xmlns="http://www.w3.org/2000/svg">
  <path id="z30166d1" d="M 526 776 Q 557 754 590 729 Q 606 717 622 720 Q 632 721 637 736 Q 640 752 627 782 Q 612 813 514 825 Q 498 826 492 823 Q 488 819 490 805 Q 494 795 526 776 Z"/>
  <path id="z30166d2" d="M 378 620 Q 417 611 495 621 Q 774 669 795 676 Q 798 677 801 679 Q 811 686 807 696 Q 800 708 770 717 Q 740 724 640 694 Q 487 661 372 653 Q 368 653 366 651 C 337 645 348 625 378 620 Z"/>
  <path id="z30166d3" d="M 283 351 Q 253 198 143 20 Q 137 13 136 7 Q 133 -5 144 -2 Q 178 4 257 131 Q 270 155 283 181 Q 343 325 365 547 Q 369 613 378 620 C 384 638 384 638 366 651 Q 351 664 326 675 Q 307 685 293 681 Q 280 674 287 659 Q 305 634 306 576 Q 305 560 304 540 Q 301 459 289 388 L 283 351 Z"/>
  <path id="z30166d4" d="M 137 512 Q 206 436 232 432 Q 245 431 253 451 Q 254 464 244 486 Q 231 505 204 516 Q 161 537 141 540 Q 131 541 130 530 Q 129 521 137 512 Z"/>
  <path id="z30166d5" d="M 289 388 Q 94 267 60 258 Q 48 254 49 243 Q 50 230 62 225 Q 87 215 124 206 Q 136 206 144 218 Q 162 245 279 348 Q 280 351 283 351 C 306 370 314 404 289 388 Z"/>
  <path id="z30166d6" d="M 660 502 Q 696 509 735 515 Q 786 525 794 533 Q 803 540 799 548 Q 792 560 764 568 Q 745 574 642 545 Q 497 517 430 511 Q 394 507 419 490 Q 434 480 474 473 L 518 476 Q 566 486 618 494 L 660 502 Z"/>
  <path id="z30166d7" d="M 474 473 Q 493 437 494 400 Q 495 366 496 74 C 496 44 536 48 537 78 Q 541 259 543 397 Q 546 452 542 458 Q 529 470 518 476 C 493 492 461 500 474 473 Z"/>
  <path id="z30166d8" d="M 670 94 Q 673 167 677 233 L 678 258 Q 682 402 688 452 Q 695 470 686 480 Q 673 493 660 502 C 636 520 607 522 618 494 Q 634 455 634 421 Q 635 387 627 89 C 626 59 669 64 670 94 Z"/>
  <path id="z30166d9" d="M 384 284 Q 403 256 423 222 Q 432 209 445 205 Q 454 204 461 213 Q 468 225 468 251 Q 465 281 390 325 Q 378 332 372 331 Q 368 328 366 317 Q 366 307 384 284 Z"/>
  <path id="z30166d10" d="M 677 233 Q 716 257 810 321 Q 829 337 853 346 Q 874 356 864 373 Q 825 421 791 417 Q 778 416 782 402 Q 785 375 726 310 Q 702 285 678 258 C 658 236 652 217 677 233 Z"/>
  <path id="z30166d11" d="M 496 74 Q 417 68 330 59 Q 308 58 323 39 Q 338 24 356 18 Q 378 11 395 16 Q 614 67 876 46 Q 879 47 884 46 Q 905 46 910 55 Q 916 67 899 82 Q 839 128 776 110 Q 730 104 670 94 L 627 89 Q 609 88 592 85 Q 565 84 537 78 L 496 74 Z"/>
<defs>
  <clipPath id="z30166c1"><use href="#z30166d1"/></clipPath>
  <clipPath id="z30166c2"><use href="#z30166d2"/></clipPath>
  <clipPath id="z30166c3"><use href="#z30166d3"/></clipPath>
  <clipPath id="z30166c4"><use href="#z30166d4"/></clipPath>
  <clipPath id="z30166c5"><use href="#z30166d5"/></clipPath>
  <clipPath id="z30166c6"><use href="#z30166d6"/></clipPath>
  <clipPath id="z30166c7"><use href="#z30166d7"/></clipPath>
  <clipPath id="z30166c8"><use href="#z30166d8"/></clipPath>
  <clipPath id="z30166c9"><use href="#z30166d9"/></clipPath>
  <clipPath id="z30166c10"><use href="#z30166d10"/></clipPath>
  <clipPath id="z30166c11"><use href="#z30166d11"/></clipPath>
</defs>
<path style="--d:1s;" pathLength="3333" clip-path="url(#z30166c1)" d="M 498 817 L 584 775 L 618 739"/>
<path style="--d:2s;" pathLength="3333" clip-path="url(#z30166c2)" d="M 371 647 L 392 636 L 449 638 L 557 653 L 738 691 L 795 691"/>
<path style="--d:3s;" pathLength="3333" clip-path="url(#z30166c3)" d="M 299 668 L 323 648 L 339 620 L 332 505 L 308 343 L 272 220 L 232 131 L 178 44 L 145 7"/>
<path style="--d:4s;" pathLength="3333" clip-path="url(#z30166c4)" d="M 143 527 L 213 477 L 233 448"/>
<path style="--d:5s;" pathLength="3333" clip-path="url(#z30166c5)" d="M 63 245 L 119 245 L 260 350 L 277 371"/>
<path style="--d:6s;" pathLength="3333" clip-path="url(#z30166c6)" d="M 421 502 L 452 495 L 495 496 L 721 539 L 787 544"/>
<path style="--d:7s;" pathLength="3333" clip-path="url(#z30166c7)" d="M 482 468 L 511 451 L 518 431 L 518 123 L 515 95 L 502 88"/>
<path style="--d:8s;" pathLength="3333" clip-path="url(#z30166c8)" d="M 626 488 L 655 471 L 660 451 L 650 119 L 633 103"/>
<path style="--d:9s;" pathLength="3333" clip-path="url(#z30166c9)" d="M 375 322 L 429 265 L 446 222"/>
<path style="--d:10s;" pathLength="3333" clip-path="url(#z30166c10)" d="M 790 407 L 803 395 L 814 370 L 786 337 L 691 256 L 679 239"/>
<path style="--d:11s;" pathLength="3333" clip-path="url(#z30166c11)" d="M 327 49 L 385 39 L 574 65 L 814 83 L 898 62"/>
</svg>