<svg id="z36244" class="acjk" viewBox="0 0 1024 1024" xmlns="http://www.w3.org/2000/svg">
  <path id="z36244d1" d="M 352 594 Q 383 604 416 613 Q 444 622 449 626 Q 456 633 452 641 Q 445 651 417 656 Q 401 659 354 643 L 305 625 Q 230 607 210 603 Q 177 594 202 581 Q 244 560 294 579 Q 298 580 305 581 L 352 594 Z"/>
  <path id="z36244d2" d="M 344 490 Q 348 544 352 594 L 354 643 Q 354 718 373 777 Q 376 787 357 802 Q 323 820 301 823 Q 285 826 278 818 Q 271 811 279 797 Q 298 769 299 751 Q 303 691 305 625 L 305 581 Q 305 533 305 481 C 305 451 342 460 344 490 Z"/>
  <path id="z36244d3" d="M 332 448 Q 387 461 458 472 Q 474 475 474 482 Q 475 494 458 502 Q 433 512 410 507 Q 373 498 344 490 L 305 481 Q 155 448 76 437 Q 64 436 61 428 Q 58 418 73 407 Q 112 383 149 395 Q 233 425 289 439 Q 290 440 294 440 L 332 448 Z"/>
  <path id="z36244d4" d="M 345 200 Q 349 258 353 309 L 356 339 Q 357 360 359 378 Q 363 420 360 425 Q 347 440 332 448 C 306 463 285 469 294 440 Q 303 419 305 338 Q 304 296 304 221 C 304 191 343 170 345 200 Z"/>
  <path id="z36244d5" d="M 353 309 Q 354 309 358 309 Q 410 319 449 324 Q 471 330 461 341 Q 451 354 426 357 Q 387 360 356 339 C 331 323 323 309 353 309 Z"/>
  <path id="z36244d6" d="M 228 264 Q 240 286 253 304 Q 263 317 247 331 Q 205 362 179 357 Q 167 354 171 340 Q 189 258 90 128 Q 75 122 49 80 Q 42 64 56 70 Q 74 73 96 92 Q 168 152 206 224 Q 209 231 213 238 L 228 264 Z"/>
  <path id="z36244d7" d="M 213 238 Q 216 237 220 234 Q 314 171 483 86 Q 675 -7 729 1 Q 736 4 746 6 Q 818 31 894 62 Q 922 75 929 86 Q 932 98 914 96 Q 821 95 765 89 Q 618 80 472 145 Q 409 169 345 200 L 304 221 Q 267 242 228 264 C 202 279 188 254 213 238 Z"/>
  <path id="z36244d8" d="M 593 631 Q 722 664 724 664 Q 731 671 727 678 Q 720 688 695 694 Q 670 698 644 687 Q 614 677 583 669 Q 549 660 507 656 Q 476 650 498 636 Q 525 621 554 624 L 593 631 Z"/>
  <path id="z36244d9" d="M 569 517 Q 597 572 615 591 Q 622 598 617 608 Q 614 617 593 631 C 568 648 545 653 554 624 Q 567 600 521 507 Q 499 465 467 418 Q 460 411 459 406 Q 458 399 467 401 Q 485 404 554 495 L 569 517 Z"/>
  <path id="z36244d10" d="M 554 495 Q 563 494 579 498 Q 631 514 636 508 Q 640 496 626 454 Q 616 408 571 343 Q 529 274 454 206 Q 436 193 452 196 Q 507 199 590 305 Q 639 369 674 454 Q 690 494 703 507 Q 713 516 707 525 Q 703 532 659 547 Q 649 551 633 540 Q 612 530 569 517 C 540 508 524 493 554 495 Z"/>
  <path id="z36244d11" d="M 529 428 Q 565 385 579 382 Q 588 381 593 394 Q 594 403 588 417 Q 581 427 566 433 Q 542 445 532 447 Q 526 448 525 440 Q 524 434 529 428 Z"/>
  <path id="z36244d12" d="M 722 578 Q 741 527 729 396 Q 725 374 746 342 Q 753 333 761 343 Q 774 361 775 441 Q 775 522 780 555 Q 784 573 769 582 Q 756 589 742 597 Q 732 600 725 596 Q 718 590 722 578 Z"/>
  <path id="z36244d13" d="M 836 684 Q 840 657 843 249 Q 842 231 833 225 Q 826 219 763 232 Q 732 242 735 233 Q 736 226 755 213 Q 815 168 830 142 Q 848 112 863 111 Q 876 110 889 143 Q 904 185 901 252 Q 871 591 900 710 Q 916 738 864 757 Q 833 773 815 767 Q 799 760 814 740 Q 833 715 836 684 Z"/>
<defs>
  <clipPath id="z36244c1"><use href="#z36244d1"/></clipPath>
  <clipPath id="z36244c2"><use href="#z36244d2"/></clipPath>
  <clipPath id="z36244c3"><use href="#z36244d3"/></clipPath>
  <clipPath id="z36244c4"><use href="#z36244d4"/></clipPath>
  <clipPath id="z36244c5"><use href="#z36244d5"/></clipPath>
  <clipPath id="z36244c6"><use href="#z36244d6"/></clipPath>
  <clipPath id="z36244c7"><use href="#z36244d7"/></clipPath>
  <clipPath id="z36244c8"><use href="#z36244d8"/></clipPath>
  <clipPath id="z36244c9"><use href="#z36244d9"/></clipPath>
  <clipPath id="z36244c10"><use href="#z36244d10"/></clipPath>
  <clipPath id="z36244c11"><use href="#z36244d11"/></clipPath>
  <clipPath id="z36244c12"><use href="#z36244d12"/></clipPath>
  <clipPath id="z36244c13"><use href="#z36244d13"/></clipPath>
</defs>
<path style="--d:1s;" pathLength="3333" clip-path="url(#z36244c1)" d="M 204 593 L 264 593 L 397 632 L 441 635"/>
<path style="--d:2s;" pathLength="3333" clip-path="url(#z36244c2)" d="M 289 809 L 333 773 L 326 514 L 310 488"/>
<path style="--d:3s;" pathLength="3333" clip-path="url(#z36244c3)" d="M 72 424 L 126 417 L 408 486 L 463 485"/>
<path style="--d:4s;" pathLength="3333" clip-path="url(#z36244c4)" d="M 301 438 L 329 416 L 331 407 L 325 235 L 341 209"/>
<path style="--d:5s;" pathLength="3333" clip-path="url(#z36244c5)" d="M 356 316 L 371 329 L 406 338 L 453 334"/>
<path style="--d:6s;" pathLength="3333" clip-path="url(#z36244c6)" d="M 181 346 L 211 310 L 187 242 L 135 156 L 60 80"/>
<path style="--d:7s;" pathLength="3333" clip-path="url(#z36244c7)" d="M 220 243 L 234 243 L 358 173 L 505 103 L 587 72 L 666 51 L 720 44 L 920 88"/>
<path style="--d:8s;" pathLength="3333" clip-path="url(#z36244c8)" d="M 500 647 L 557 643 L 677 674 L 721 672"/>
<path style="--d:9s;" pathLength="3333" clip-path="url(#z36244c9)" d="M 561 622 L 584 599 L 578 582 L 523 475 L 467 409"/>
<path style="--d:10s;" pathLength="3333" clip-path="url(#z36244c10)" d="M 559 499 L 580 511 L 589 508 L 596 515 L 634 525 L 653 524 L 667 511 L 640 425 L 588 333 L 543 273 L 485 218 L 457 200"/>
<path style="--d:11s;" pathLength="3333" clip-path="url(#z36244c11)" d="M 534 438 L 565 415 L 580 393"/>
<path style="--d:12s;" pathLength="3333" clip-path="url(#z36244c12)" d="M 732 587 L 754 560 L 753 352"/>
<path style="--d:13s;" pathLength="3333" clip-path="url(#z36244c13)" d="M 822 753 L 865 718 L 863 440 L 871 225 L 854 185 L 741 231"/>
</svg>