<svg id="z32516" class="acjk" viewBox="0 0 1024 1024" xmlns="http://www.w3.org/2000/svg">
  <path id="z32516d1" d="M 285 485 Q 284 486 282 485 Q 236 486 197 487 Q 166 487 182 506 Q 248 606 310 680 Q 325 696 323 705 Q 322 718 283 752 Q 267 765 249 762 Q 237 761 243 744 Q 259 707 173 559 Q 154 528 117 496 Q 98 483 100 470 Q 104 451 117 433 Q 127 423 140 429 Q 180 453 271 462 C 301 465 315 484 285 485 Z"/>
  <path id="z32516d2" d="M 271 462 Q 178 332 157 320 Q 144 311 148 298 Q 149 285 174 268 Q 184 258 198 269 Q 249 311 336 347 Q 354 353 355 361 Q 356 371 339 366 Q 293 356 237 337 Q 215 328 229 347 Q 265 399 348 503 Q 375 539 398 559 Q 408 569 403 578 Q 393 596 361 613 Q 346 622 337 619 Q 327 616 330 601 Q 333 567 285 485 L 271 462 Z"/>
  <path id="z32516d3" d="M 102 153 Q 92 149 91 140 Q 91 128 100 123 Q 122 113 153 101 Q 162 100 171 109 Q 195 136 224 156 Q 267 184 311 216 Q 327 226 339 240 Q 349 247 348 256 Q 342 260 332 256 Q 142 157 102 153 Z"/>
  <path id="z32516d4" d="M 679 514 Q 703 523 729 529 Q 771 542 777 549 Q 784 556 780 565 Q 773 575 743 581 Q 709 587 671 564 L 628 547 Q 483 510 465 505 C 436 497 447 472 477 473 Q 522 473 595 491 Q 613 497 635 502 L 679 514 Z"/>
  <path id="z32516d5" d="M 465 505 Q 420 527 407 525 Q 388 522 403 502 Q 424 463 409 281 Q 400 236 377 183 Q 353 125 283 61 Q 270 49 267 43 Q 266 37 276 37 Q 312 37 370 98 Q 433 164 454 279 Q 454 282 455 285 L 458 300 Q 468 363 472 448 Q 475 463 477 473 C 482 497 482 497 465 505 Z"/>
  <path id="z32516d6" d="M 491 391 Q 463 382 485 372 Q 515 360 583 379 Q 601 385 622 391 Q 635 395 638 397 Q 644 404 640 411 Q 633 420 609 423 Q 584 424 561 412 Q 540 403 491 391 Z"/>
  <path id="z32516d7" d="M 455 285 Q 477 237 489 160 Q 490 138 503 122 Q 516 104 521 116 Q 525 129 524 154 L 520 185 Q 511 248 511 268 C 510 287 510 287 500 291 Q 491 295 469 300 Q 460 303 458 300 C 449 298 449 298 455 285 Z"/>
  <path id="z32516d8" d="M 629 198 Q 642 255 659 271 Q 678 293 658 304 Q 642 313 619 327 Q 603 336 587 326 Q 569 313 545 305 Q 526 298 500 291 C 471 283 483 257 511 268 Q 523 274 574 283 Q 590 287 595 281 Q 598 278 586 205 C 581 175 622 169 629 198 Z"/>
  <path id="z32516d9" d="M 524 154 Q 531 163 635 173 Q 644 174 645 182 Q 645 189 629 198 L 586 205 Q 580 205 577 203 Q 546 193 520 185 C 491 176 499 137 524 154 Z"/>
  <path id="z32516d10" d="M 743 159 Q 747 153 751 146 Q 794 73 853 20 Q 917 -31 948 -29 Q 970 -25 961 6 Q 954 48 945 170 Q 944 194 934 195 Q 933 195 900 120 Q 885 89 864 102 Q 854 108 843 118 Q 806 157 777 206 L 751 254 Q 718 324 679 514 L 671 564 Q 655 684 668 768 Q 681 811 624 833 Q 588 849 567 842 Q 546 835 556 815 Q 604 772 603 737 Q 613 632 628 547 L 635 502 Q 663 327 722 202 L 743 159 Z"/>
  <path id="z32516d11" d="M 722 202 Q 679 142 624 90 Q 618 86 615 80 Q 611 71 620 71 Q 659 71 734 149 Q 734 150 743 159 L 777 206 Q 843 317 876 398 Q 876 402 875 408 Q 865 427 841 447 Q 826 462 814 460 Q 801 457 804 443 Q 820 383 751 254 L 722 202 Z"/>
  <path id="z32516d12" d="M 744 695 Q 772 671 803 642 Q 818 629 833 630 Q 843 631 849 644 Q 853 660 844 689 Q 832 722 738 743 Q 722 746 716 743 Q 712 739 713 726 Q 717 716 744 695 Z"/>
<defs>
  <clipPath id="z32516c1"><use href="#z32516d1"/></clipPath>
  <clipPath id="z32516c2"><use href="#z32516d2"/></clipPath>
  <clipPath id="z32516c3"><use href="#z32516d3"/></clipPath>
  <clipPath id="z32516c4"><use href="#z32516d4"/></clipPath>
  <clipPath id="z32516c5"><use href="#z32516d5"/></clipPath>
  <clipPath id="z32516c6"><use href="#z32516d6"/></clipPath>
  <clipPath id="z32516c7"><use href="#z32516d7"/></clipPath>
  <clipPath id="z32516c8"><use href="#z32516d8"/></clipPath>
  <clipPath id="z32516c9"><use href="#z32516d9"/></clipPath>
  <clipPath id="z32516c10"><use href="#z32516d10"/></clipPath>
  <clipPath id="z32516c11"><use href="#z32516d11"/></clipPath>
  <clipPath id="z32516c12"><use href="#z32516d12"/></clipPath>
</defs>
<path style="--d:1s;" pathLength="3333" clip-path="url(#z32516c1)" d="M 251 751 L 267 736 L 280 703 L 217 592 L 152 494 L 146 473 L 172 468 L 260 472 L 274 481"/>
<path style="--d:2s;" pathLength="3333" clip-path="url(#z32516c2)" d="M 342 607 L 362 572 L 304 476 L 214 358 L 207 319 L 243 320 L 347 361"/>
<path style="--d:3s;" pathLength="3333" clip-path="url(#z32516c3)" d="M 106 138 L 153 135 L 343 253"/>
<path style="--d:4s;" pathLength="3333" clip-path="url(#z32516c4)" d="M 469 500 L 490 492 L 519 497 L 637 525 L 724 556 L 769 559"/>
<path style="--d:5s;" pathLength="3333" clip-path="url(#z32516c5)" d="M 407 513 L 429 498 L 444 470 L 440 350 L 422 241 L 403 185 L 369 126 L 326 79 L 274 44"/>
<path style="--d:6s;" pathLength="3333" clip-path="url(#z32516c6)" d="M 486 382 L 512 381 L 603 405 L 631 405"/>
<path style="--d:7s;" pathLength="3333" clip-path="url(#z32516c7)" d="M 464 291 L 488 263 L 513 121"/>
<path style="--d:8s;" pathLength="3333" clip-path="url(#z32516c8)" d="M 512 275 L 519 283 L 591 305 L 613 301 L 627 284 L 624 270 L 611 223 L 595 217"/>
<path style="--d:9s;" pathLength="3333" clip-path="url(#z32516c9)" d="M 528 164 L 545 177 L 590 187 L 636 182"/>
<path style="--d:10s;" pathLength="3333" clip-path="url(#z32516c10)" d="M 569 825 L 605 809 L 631 782 L 637 648 L 668 447 L 704 310 L 729 243 L 763 178 L 831 87 L 864 62 L 902 50 L 917 81 L 938 191"/>
<path style="--d:11s;" pathLength="3333" clip-path="url(#z32516c11)" d="M 816 448 L 840 400 L 795 286 L 747 201 L 713 154 L 660 103 L 624 79"/>
<path style="--d:12s;" pathLength="3333" clip-path="url(#z32516c12)" d="M 721 737 L 801 688 L 830 650"/>
</svg>