<svg id="z33559" class="acjk" viewBox="0 0 1024 1024" xmlns="http://www.w3.org/2000/svg">
  <path id="z33559d1" d="M 644 678 Q 732 687 835 674 Q 851 671 857 682 Q 863 694 850 709 Q 799 757 689 734 Q 677 733 667 730 L 608 722 Q 517 713 415 702 L 364 697 Q 294 693 221 687 Q 190 684 211 667 Q 259 633 339 651 Q 355 655 374 657 L 418 663 Q 466 675 595 677 L 644 678 Z"/>
  <path id="z33559d2" d="M 415 702 Q 412 733 412 758 Q 413 779 393 785 Q 348 803 329 797 Q 310 788 326 768 Q 354 737 364 697 L 374 657 Q 386 609 399 596 Q 412 586 417 597 Q 423 618 418 663 L 415 702 Z"/>
  <path id="z33559d3" d="M 667 730 Q 676 749 691 772 Q 706 785 696 797 Q 684 813 651 833 Q 635 843 617 834 Q 607 828 614 817 Q 623 790 608 722 L 595 677 Q 571 593 571 584 Q 572 569 588 580 Q 601 590 644 678 L 667 730 Z"/>
  <path id="z33559d4" d="M 449 496 Q 455 505 510 565 Q 520 577 518 586 Q 514 599 489 606 Q 461 616 449 612 Q 442 611 439 598 Q 424 511 213 336 Q 192 321 219 325 Q 270 331 347 397 L 361 409 Q 398 442 430 474 L 449 496 Z"/>
  <path id="z33559d5" d="M 415 210 Q 445 237 480 263 Q 562 336 649 426 Q 671 453 709 477 Q 725 487 721 497 Q 720 507 660 537 Q 644 549 590 524 Q 515 505 449 496 C 419 492 401 481 430 474 Q 454 458 552 477 Q 589 486 597 478 Q 598 472 589 458 Q 517 355 363 228 L 337 209 Q 243 140 96 53 Q 80 43 94 40 Q 139 34 307 135 Q 313 139 353 165 L 415 210 Z"/>
  <path id="z33559d6" d="M 347 397 L 401 319 Q 410 306 422 304 Q 431 303 437 313 Q 444 323 441 349 Q 440 365 418 381 Q 385 402 361 409 C 333 418 333 418 347 397 Z"/>
  <path id="z33559d7" d="M 363 228 Q 359 229 355 230 Q 342 234 337 228 Q 330 222 337 209 L 353 165 Q 372 110 383 31 Q 384 0 403 -23 Q 422 -48 428 -30 Q 434 -14 433 12 L 429 48 Q 417 138 414 174 L 363 228 Z"/>
  <path id="z33559d8" d="M 715 78 Q 746 166 778 187 Q 797 208 781 227 Q 696 293 645 263 Q 551 230 415 210 C 379 205 374 168 414 174 Q 427 175 440 179 Q 542 198 638 217 Q 663 223 673 213 Q 683 203 680 185 Q 670 127 657 80 C 649 51 705 50 715 78 Z"/>
  <path id="z33559d9" d="M 433 12 Q 527 27 733 36 Q 745 37 746 46 Q 747 55 716 78 L 715 78 L 657 80 Q 530 58 429 48 C 399 45 403 7 433 12 Z"/>
<defs>
  <clipPath id="z33559c1"><use href="#z33559d1"/></clipPath>
  <clipPath id="z33559c2"><use href="#z33559d2"/></clipPath>
  <clipPath id="z33559c3"><use href="#z33559d3"/></clipPath>
  <clipPath id="z33559c4"><use href="#z33559d4"/></clipPath>
  <clipPath id="z33559c5"><use href="#z33559d5"/></clipPath>
  <clipPath id="z33559c6"><use href="#z33559d6"/></clipPath>
  <clipPath id="z33559c7"><use href="#z33559d7"/></clipPath>
  <clipPath id="z33559c8"><use href="#z33559d8"/></clipPath>
  <clipPath id="z33559c9"><use href="#z33559d9"/></clipPath>
</defs>
<path style="--d:1s;" pathLength="3333" clip-path="url(#z33559c1)" d="M 214 678 L 258 668 L 295 669 L 486 692 L 738 712 L 802 706 L 843 690"/>
<path style="--d:2s;" pathLength="3333" clip-path="url(#z33559c2)" d="M 335 782 L 379 751 L 408 601"/>
<path style="--d:3s;" pathLength="3333" clip-path="url(#z33559c3)" d="M 622 824 L 634 819 L 655 785 L 620 677 L 580 583"/>
<path style="--d:4s;" pathLength="3333" clip-path="url(#z33559c4)" d="M 504 583 L 470 575 L 415 496 L 375 453 L 299 383 L 223 334"/>
<path style="--d:5s;" pathLength="3333" clip-path="url(#z33559c5)" d="M 436 478 L 516 487 L 586 503 L 611 504 L 644 489 L 620 443 L 566 382 L 405 232 L 265 132 L 151 68 L 98 46"/>
<path style="--d:6s;" pathLength="3333" clip-path="url(#z33559c6)" d="M 356 394 L 365 395 L 409 353 L 423 319"/>
<path style="--d:7s;" pathLength="3333" clip-path="url(#z33559c7)" d="M 346 219 L 385 162 L 416 -24"/>
<path style="--d:8s;" pathLength="3333" clip-path="url(#z33559c8)" d="M 403 193 L 507 208 L 669 245 L 696 237 L 728 206 L 694 108 L 664 85"/>
<path style="--d:9s;" pathLength="3333" clip-path="url(#z33559c9)" d="M 437 19 L 451 33 L 652 56 L 713 57 L 736 47"/>
</svg>