<svg id="z33287" class="acjk" viewBox="0 0 1024 1024" xmlns="http://www.w3.org/2000/svg">
  <path id="z33287d1" d="M 255 567 Q 283 583 303 595 Q 354 634 379 642 Q 400 652 389 670 Q 376 686 350 700 Q 328 713 314 711 Q 302 710 306 696 Q 309 666 240 582 C 221 559 229 552 255 567 Z"/>
  <path id="z33287d2" d="M 316 258 Q 303 313 293 358 L 287 390 Q 280 424 275 451 Q 274 458 272 466 L 267 495 Q 257 564 255 567 C 253 576 253 576 240 582 Q 212 597 184 601 Q 168 604 160 595 Q 153 588 163 573 Q 193 533 211 487 Q 227 441 272 255 C 279 226 323 229 316 258 Z"/>
  <path id="z33287d3" d="M 272 466 Q 326 475 365 482 Q 387 489 378 501 Q 366 514 340 516 Q 303 519 267 495 C 242 479 242 461 272 466 Z"/>
  <path id="z33287d4" d="M 293 358 Q 339 364 377 371 Q 399 377 390 388 Q 378 401 352 404 Q 328 405 288 391 Q 287 391 287 390 C 261 375 263 354 293 358 Z"/>
  <path id="z33287d5" d="M 507 705 Q 546 693 642 709 Q 654 710 655 713 Q 664 720 659 729 Q 652 739 624 746 Q 594 752 566 740 Q 557 737 513 732 C 483 729 478 713 507 705 Z"/>
  <path id="z33287d6" d="M 557 280 Q 575 319 585 389 Q 601 536 614 553 Q 624 566 625 575 Q 625 584 602 596 Q 566 617 533 601 Q 497 589 492 593 Q 486 599 507 705 L 513 732 Q 523 790 532 804 Q 538 814 537 824 Q 534 837 510 852 Q 482 867 460 868 Q 444 869 440 862 Q 439 855 445 849 Q 478 807 448 616 Q 444 603 440 595 Q 430 577 443 552 Q 450 539 458 536 Q 465 536 479 545 Q 492 558 518 563 Q 543 570 550 566 Q 560 556 554 522 Q 536 371 525 357 Q 500 329 532 278 C 546 252 546 252 557 280 Z"/>
  <path id="z33287d7" d="M 404 493 Q 423 445 412 340 Q 409 319 429 290 Q 438 281 445 290 Q 463 315 460 345 Q 454 415 465 468 Q 471 487 453 497 Q 440 504 425 512 Q 415 516 407 511 Q 400 507 404 493 Z"/>
  <path id="z33287d8" d="M 765 306 Q 822 589 861 622 Q 880 638 870 652 Q 857 674 816 698 Q 797 713 765 701 Q 710 685 664 684 Q 649 685 648 674 Q 649 665 666 656 Q 685 643 709 650 Q 754 654 762 648 Q 769 642 761 563 L 756 529 Q 750 492 744 450 L 738 417 Q 728 362 714 299 C 708 270 759 277 765 306 Z"/>
  <path id="z33287d9" d="M 761 563 Q 749 575 644 548 Q 628 545 646 530 Q 652 526 665 525 Q 714 529 756 529 C 786 529 787 548 761 563 Z"/>
  <path id="z33287d10" d="M 744 450 Q 719 462 632 436 Q 616 433 634 418 L 738 417 C 768 417 772 439 744 450 Z"/>
  <path id="z33287d11" d="M 714 299 Q 641 292 557 280 L 532 278 Q 508 278 316 258 L 272 255 Q 185 249 95 241 Q 71 240 88 219 Q 122 185 167 193 Q 462 265 929 242 Q 930 243 933 242 Q 955 241 962 250 Q 969 263 950 280 Q 890 329 822 315 Q 795 312 765 306 L 714 299 Z"/>
  <path id="z33287d12" d="M 327 165 Q 312 96 146 -31 Q 121 -46 152 -44 Q 224 -44 353 73 Q 353 76 406 122 Q 419 135 416 145 Q 413 160 385 170 Q 354 183 340 181 Q 331 180 327 165 Z"/>
  <path id="z33287d13" d="M 623 144 Q 677 83 738 -5 Q 754 -30 770 -37 Q 780 -40 789 -29 Q 805 -16 797 35 Q 790 95 629 179 Q 619 186 615 172 Q 612 157 623 144 Z"/>
<defs>
  <clipPath id="z33287c1"><use href="#z33287d1"/></clipPath>
  <clipPath id="z33287c2"><use href="#z33287d2"/></clipPath>
  <clipPath id="z33287c3"><use href="#z33287d3"/></clipPath>
  <clipPath id="z33287c4"><use href="#z33287d4"/></clipPath>
  <clipPath id="z33287c5"><use href="#z33287d5"/></clipPath>
  <clipPath id="z33287c6"><use href="#z33287d6"/></clipPath>
  <clipPath id="z33287c7"><use href="#z33287d7"/></clipPath>
  <clipPath id="z33287c8"><use href="#z33287d8"/></clipPath>
  <clipPath id="z33287c9"><use href="#z33287d9"/></clipPath>
  <clipPath id="z33287c10"><use href="#z33287d10"/></clipPath>
  <clipPath id="z33287c11"><use href="#z33287d11"/></clipPath>
  <clipPath id="z33287c12"><use href="#z33287d12"/></clipPath>
  <clipPath id="z33287c13"><use href="#z33287d13"/></clipPath>
</defs>
<path style="--d:1s;" pathLength="3333" clip-path="url(#z33287c1)" d="M 314 701 L 338 664 L 258 585 L 258 577"/>
<path style="--d:2s;" pathLength="3333" clip-path="url(#z33287c2)" d="M 172 586 L 222 549 L 242 483 L 283 295 L 289 278 L 308 264"/>
<path style="--d:3s;" pathLength="3333" clip-path="url(#z33287c3)" d="M 280 475 L 286 486 L 321 496 L 367 494"/>
<path style="--d:4s;" pathLength="3333" clip-path="url(#z33287c4)" d="M 292 386 L 307 378 L 347 385 L 380 382"/>
<path style="--d:5s;" pathLength="3333" clip-path="url(#z33287c5)" d="M 513 711 L 527 718 L 602 726 L 649 723"/>
<path style="--d:6s;" pathLength="3333" clip-path="url(#z33287c6)" d="M 448 858 L 472 845 L 496 816 L 467 575 L 488 573 L 556 587 L 574 580 L 585 567 L 560 384 L 543 325 L 543 300 L 550 289"/>
<path style="--d:7s;" pathLength="3333" clip-path="url(#z33287c7)" d="M 415 501 L 438 474 L 437 295"/>
<path style="--d:8s;" pathLength="3333" clip-path="url(#z33287c8)" d="M 658 674 L 689 666 L 781 674 L 793 669 L 813 641 L 746 328 L 720 306"/>
<path style="--d:9s;" pathLength="3333" clip-path="url(#z33287c9)" d="M 645 539 L 734 547 L 755 558"/>
<path style="--d:10s;" pathLength="3333" clip-path="url(#z33287c10)" d="M 633 427 L 725 436 L 738 445"/>
<path style="--d:11s;" pathLength="3333" clip-path="url(#z33287c11)" d="M 92 230 L 147 218 L 442 255 L 835 282 L 890 278 L 950 257"/>
<path style="--d:12s;" pathLength="3333" clip-path="url(#z33287c12)" d="M 397 141 L 361 137 L 324 89 L 266 34 L 194 -17 L 156 -34"/>
<path style="--d:13s;" pathLength="3333" clip-path="url(#z33287c13)" d="M 627 165 L 740 59 L 759 32 L 774 -20"/>
</svg>