<svg id="z38124" class="acjk" viewBox="0 0 1024 1024" xmlns="http://www.w3.org/2000/svg">
  <path id="z38124d1" d="M 196 478 Q 236 532 281 602 L 300 633 Q 336 705 368 739 Q 378 751 372 764 Q 368 777 338 799 Q 310 817 291 816 Q 272 815 281 792 Q 297 758 284 730 Q 247 633 190 543 Q 135 455 58 359 Q 48 349 46 342 Q 43 332 57 334 Q 94 343 186 464 L 196 478 Z"/>
  <path id="z38124d2" d="M 281 602 Q 347 595 447 626 L 448 626 Q 455 633 451 641 Q 444 651 417 657 Q 390 661 329 639 Q 322 639 300 633 C 271 625 251 605 281 602 Z"/>
  <path id="z38124d3" d="M 279 461 Q 399 500 401 501 Q 408 508 403 515 Q 396 524 373 527 Q 348 530 325 518 Q 300 506 270 496 Q 239 486 200 479 Q 199 479 196 478 C 167 472 167 472 186 464 Q 213 452 242 452 L 279 461 Z"/>
  <path id="z38124d4" d="M 311 328 Q 338 338 369 347 Q 400 357 406 362 Q 413 371 408 378 Q 401 388 373 392 Q 331 396 312 377 L 267 359 Q 222 343 149 327 Q 116 318 141 305 Q 183 287 231 304 Q 247 310 269 315 L 311 328 Z"/>
  <path id="z38124d5" d="M 269 315 Q 265 195 238 152 Q 204 101 244 66 Q 256 59 267 74 Q 279 101 401 214 Q 417 227 420 235 Q 423 244 414 243 Q 405 243 310 185 Q 304 181 303 186 Q 310 264 311 328 L 312 377 Q 312 396 316 414 Q 322 435 279 461 C 254 478 226 477 242 452 Q 261 433 267 359 L 269 315 Z"/>
  <path id="z38124d6" d="M 587 638 Q 635 737 653 755 Q 660 765 655 778 Q 651 788 623 807 Q 598 820 580 819 Q 564 816 573 797 Q 609 736 447 488 Q 440 478 438 473 Q 435 463 448 466 Q 461 470 510 526 L 523 543 Q 536 561 567 606 L 587 638 Z"/>
  <path id="z38124d7" d="M 655 444 Q 656 447 659 449 Q 701 507 744 581 Q 760 611 792 642 Q 805 655 800 663 Q 797 673 734 690 Q 715 699 696 683 Q 666 662 587 638 C 558 629 537 606 567 606 Q 594 602 662 626 Q 681 633 688 625 Q 692 618 681 597 Q 654 534 615 471 L 596 443 Q 529 355 441 267 Q 428 254 442 254 Q 452 255 494 283 Q 534 307 577 352 Q 602 380 630 413 L 655 444 Z"/>
  <path id="z38124d8" d="M 630 413 Q 777 280 810 272 Q 873 263 971 288 Q 990 292 991 296 Q 992 303 978 308 Q 923 327 857 345 Q 758 375 655 444 L 615 471 Q 605 480 593 488 Q 544 528 523 543 C 499 561 490 548 510 526 Q 513 520 596 443 L 630 413 Z"/>
  <path id="z38124d9" d="M 520 219 Q 510 226 472 233 Q 460 236 457 231 Q 450 225 459 209 Q 487 148 504 46 Q 507 16 524 -4 Q 542 -26 547 -11 Q 551 4 551 27 L 547 60 Q 531 154 528 187 C 525 216 525 216 520 219 Z"/>
  <path id="z38124d10" d="M 742 92 Q 764 170 797 199 Q 813 218 798 235 Q 782 248 729 270 Q 711 277 690 269 Q 615 236 520 219 C 491 214 499 181 528 187 Q 531 187 680 220 Q 696 224 703 217 Q 713 208 711 188 Q 702 133 691 89 C 684 60 734 63 742 92 Z"/>
  <path id="z38124d11" d="M 551 27 Q 561 26 571 28 Q 632 41 764 54 Q 774 55 776 64 Q 776 71 746 91 Q 745 92 742 92 L 691 89 Q 610 70 547 60 C 517 55 521 28 551 27 Z"/>
<defs>
  <clipPath id="z38124c1"><use href="#z38124d1"/></clipPath>
  <clipPath id="z38124c2"><use href="#z38124d2"/></clipPath>
  <clipPath id="z38124c3"><use href="#z38124d3"/></clipPath>
  <clipPath id="z38124c4"><use href="#z38124d4"/></clipPath>
  <clipPath id="z38124c5"><use href="#z38124d5"/></clipPath>
  <clipPath id="z38124c6"><use href="#z38124d6"/></clipPath>
  <clipPath id="z38124c7"><use href="#z38124d7"/></clipPath>
  <clipPath id="z38124c8"><use href="#z38124d8"/></clipPath>
  <clipPath id="z38124c9"><use href="#z38124d9"/></clipPath>
  <clipPath id="z38124c10"><use href="#z38124d10"/></clipPath>
  <clipPath id="z38124c11"><use href="#z38124d11"/></clipPath>
</defs>
<path style="--d:1s;" pathLength="3333" clip-path="url(#z38124c1)" d="M 291 802 L 309 788 L 329 755 L 275 641 L 164 466 L 102 387 L 55 342"/>
<path style="--d:2s;" pathLength="3333" clip-path="url(#z38124c2)" d="M 287 605 L 312 619 L 379 632 L 420 638 L 448 634"/>
<path style="--d:3s;" pathLength="3333" clip-path="url(#z38124c3)" d="M 194 464 L 201 469 L 236 468 L 357 508 L 397 509"/>
<path style="--d:4s;" pathLength="3333" clip-path="url(#z38124c4)" d="M 143 317 L 152 313 L 204 318 L 348 367 L 398 371"/>
<path style="--d:5s;" pathLength="3333" clip-path="url(#z38124c5)" d="M 249 452 L 277 437 L 288 418 L 290 292 L 277 180 L 282 153 L 314 162 L 414 237"/>
<path style="--d:6s;" pathLength="3333" clip-path="url(#z38124c6)" d="M 582 806 L 595 798 L 616 767 L 597 715 L 545 609 L 492 526 L 445 473"/>
<path style="--d:7s;" pathLength="3333" clip-path="url(#z38124c7)" d="M 572 611 L 601 626 L 681 651 L 722 650 L 731 644 L 720 603 L 698 560 L 617 432 L 534 336 L 444 261"/>
<path style="--d:8s;" pathLength="3333" clip-path="url(#z38124c8)" d="M 516 528 L 529 524 L 672 404 L 802 321 L 824 312 L 879 304 L 986 298"/>
<path style="--d:9s;" pathLength="3333" clip-path="url(#z38124c9)" d="M 466 223 L 496 196 L 501 180 L 536 -5"/>
<path style="--d:10s;" pathLength="3333" clip-path="url(#z38124c10)" d="M 528 193 L 539 206 L 679 242 L 703 246 L 727 238 L 752 213 L 721 114 L 697 94"/>
<path style="--d:11s;" pathLength="3333" clip-path="url(#z38124c11)" d="M 554 55 L 572 46 L 737 72 L 767 63"/>
</svg>