<svg id="z34784" class="acjk" viewBox="0 0 1024 1024" xmlns="http://www.w3.org/2000/svg">
  <path id="z34784d1" d="M 122 550 Q 112 556 82 560 Q 72 561 68 558 Q 64 552 71 538 Q 98 487 115 403 Q 118 378 133 362 Q 149 343 154 357 Q 158 370 156 392 L 151 422 Q 135 498 133 524 C 131 546 131 546 122 550 Z"/>
  <path id="z34784d2" d="M 361 462 Q 379 525 407 544 Q 420 560 408 575 Q 341 623 291 595 Q 273 589 258 582 L 214 569 Q 168 560 122 550 C 93 544 104 518 133 524 Q 142 525 151 529 Q 181 536 214 543 L 258 553 Q 318 568 326 561 Q 338 549 316 461 C 309 432 352 433 361 462 Z"/>
  <path id="z34784d3" d="M 253 409 Q 305 419 381 427 Q 391 428 392 437 Q 393 444 364 462 Q 363 463 361 462 L 316 461 Q 282 454 254 445 L 214 435 Q 180 428 151 422 C 122 416 126 387 156 392 L 213 402 L 253 409 Z"/>
  <path id="z34784d4" d="M 248 279 Q 251 346 253 409 L 254 445 Q 255 500 258 553 L 258 582 Q 261 645 278 736 Q 282 746 262 761 Q 228 779 204 783 Q 188 786 180 777 Q 173 770 181 755 Q 209 713 210 684 Q 213 629 214 569 L 214 543 Q 214 491 214 435 L 213 402 Q 212 338 208 267 C 206 237 247 249 248 279 Z"/>
  <path id="z34784d5" d="M 320 302 Q 283 292 248 279 L 208 267 Q 159 254 108 237 Q 92 233 65 232 Q 52 231 51 221 Q 50 208 58 201 Q 80 186 112 169 Q 122 166 133 174 Q 158 195 328 280 C 355 293 349 310 320 302 Z"/>
  <path id="z34784d6" d="M 328 280 Q 340 240 352 234 Q 359 231 366 237 Q 373 244 378 265 Q 382 283 366 307 Q 321 358 313 358 Q 309 357 305 349 Q 304 342 320 302 L 328 280 Z"/>
  <path id="z34784d7" d="M 618 717 Q 724 750 746 753 Q 762 753 767 760 Q 771 770 760 781 Q 705 827 673 824 Q 666 821 664 810 Q 658 771 474 699 Q 468 692 474 688 Q 483 685 572 706 L 618 717 Z"/>
  <path id="z34784d8" d="M 468 614 Q 483 598 499 576 Q 508 566 520 564 Q 527 563 533 573 Q 539 583 534 607 Q 533 620 512 633 Q 464 658 452 654 Q 448 653 448 642 Q 449 633 468 614 Z"/>
  <path id="z34784d9" d="M 744 688 Q 725 661 688 619 Q 682 613 687 607 Q 693 606 700 609 Q 770 651 805 666 Q 821 670 818 679 Q 814 692 798 710 Q 783 726 764 729 Q 751 729 751 713 Q 752 701 744 688 Z"/>
  <path id="z34784d10" d="M 642 523 Q 658 526 841 543 Q 857 544 861 552 Q 865 562 850 572 Q 802 605 743 583 Q 695 571 630 555 L 593 547 Q 509 531 413 511 Q 397 508 409 495 Q 431 479 479 487 Q 516 500 559 507 L 642 523 Z"/>
  <path id="z34784d11" d="M 630 555 Q 633 639 653 678 Q 659 685 649 698 Q 634 710 618 717 C 591 730 559 733 572 706 Q 593 673 593 547 L 592 479 Q 586 373 587 370 Q 593 360 598 349 Q 607 336 619 343 Q 626 349 627 500 Q 627 504 627 509 L 630 555 Z"/>
  <path id="z34784d12" d="M 559 507 Q 516 426 401 346 Q 388 336 400 334 Q 409 333 440 345 Q 471 357 501 378 Q 526 397 555 430 Q 579 455 592 479 C 616 521 582 549 559 507 Z"/>
  <path id="z34784d13" d="M 627 509 Q 774 362 825 362 Q 828 363 834 363 Q 895 367 958 389 Q 974 393 974 398 Q 975 404 962 407 Q 800 437 713 481 Q 700 488 687 496 Q 659 514 642 523 C 616 538 606 530 627 509 Z"/>
  <path id="z34784d14" d="M 466 286 Q 441 305 413 311 Q 406 314 402 308 Q 395 304 403 292 Q 440 232 448 89 Q 449 32 483 5 Q 484 5 487 3 Q 503 -3 505 27 Q 505 31 505 34 L 502 65 Q 484 152 480 250 C 479 277 479 277 466 286 Z"/>
  <path id="z34784d15" d="M 705 50 Q 715 25 737 -20 Q 744 -36 755 -36 Q 770 -33 779 -9 Q 806 45 821 197 Q 825 243 848 271 Q 864 290 853 303 Q 832 324 788 343 Q 770 353 739 342 Q 625 302 466 286 C 436 283 450 248 480 250 Q 490 249 500 251 Q 534 258 580 267 L 614 274 Q 662 284 723 294 Q 747 300 758 288 Q 777 249 748 87 Q 747 72 740 70 Q 739 70 734 70 C 712 49 703 55 705 50 Z"/>
  <path id="z34784d16" d="M 633 162 Q 670 169 704 174 Q 725 178 717 189 Q 707 202 685 206 Q 666 209 636 200 L 589 186 Q 553 176 522 167 Q 507 164 526 151 Q 535 144 553 148 Q 572 152 590 154 L 633 162 Z"/>
  <path id="z34784d17" d="M 628 83 Q 629 126 633 162 L 636 200 Q 636 218 639 230 Q 648 252 614 274 C 589 291 571 296 580 267 Q 589 240 589 186 L 590 154 Q 590 123 590 76 C 590 46 627 53 628 83 Z"/>
  <path id="z34784d18" d="M 505 34 Q 511 33 519 34 Q 580 46 705 50 C 735 51 754 52 734 70 Q 727 77 712 88 Q 697 98 628 83 L 590 76 Q 542 70 502 65 C 472 61 475 36 505 34 Z"/>
<defs>
  <clipPath id="z34784c1"><use href="#z34784d1"/></clipPath>
  <clipPath id="z34784c2"><use href="#z34784d2"/></clipPath>
  <clipPath id="z34784c3"><use href="#z34784d3"/></clipPath>
  <clipPath id="z34784c4"><use href="#z34784d4"/></clipPath>
  <clipPath id="z34784c5"><use href="#z34784d5"/></clipPath>
  <clipPath id="z34784c6"><use href="#z34784d6"/></clipPath>
  <clipPath id="z34784c7"><use href="#z34784d7"/></clipPath>
  <clipPath id="z34784c8"><use href="#z34784d8"/></clipPath>
  <clipPath id="z34784c9"><use href="#z34784d9"/></clipPath>
  <clipPath id="z34784c10"><use href="#z34784d10"/></clipPath>
  <clipPath id="z34784c11"><use href="#z34784d11"/></clipPath>
  <clipPath id="z34784c12"><use href="#z34784d12"/></clipPath>
  <clipPath id="z34784c13"><use href="#z34784d13"/></clipPath>
  <clipPath id="z34784c14"><use href="#z34784d14"/></clipPath>
  <clipPath id="z34784c15"><use href="#z34784d15"/></clipPath>
  <clipPath id="z34784c16"><use href="#z34784d16"/></clipPath>
  <clipPath id="z34784c17"><use href="#z34784d17"/></clipPath>
  <clipPath id="z34784c18"><use href="#z34784d18"/></clipPath>
</defs>
<path style="--d:1s;" pathLength="3333" clip-path="url(#z34784c1)" d="M 76 553 L 107 521 L 144 362"/>
<path style="--d:2s;" pathLength="3333" clip-path="url(#z34784c2)" d="M 131 546 L 142 540 L 316 583 L 347 578 L 366 555 L 345 485 L 323 472"/>
<path style="--d:3s;" pathLength="3333" clip-path="url(#z34784c3)" d="M 158 416 L 175 410 L 323 441 L 363 444 L 383 436"/>
<path style="--d:4s;" pathLength="3333" clip-path="url(#z34784c4)" d="M 193 767 L 238 730 L 240 694 L 231 317 L 229 294 L 213 275"/>
<path style="--d:5s;" pathLength="3333" clip-path="url(#z34784c5)" d="M 64 219 L 117 204 L 310 283 L 314 294"/>
<path style="--d:6s;" pathLength="3333" clip-path="url(#z34784c6)" d="M 312 350 L 351 289 L 357 246"/>
<path style="--d:7s;" pathLength="3333" clip-path="url(#z34784c7)" d="M 758 765 L 692 779 L 606 734 L 502 699 L 488 702 L 477 694"/>
<path style="--d:8s;" pathLength="3333" clip-path="url(#z34784c8)" d="M 456 646 L 509 604 L 519 579"/>
<path style="--d:9s;" pathLength="3333" clip-path="url(#z34784c9)" d="M 764 716 L 777 687 L 693 613"/>
<path style="--d:10s;" pathLength="3333" clip-path="url(#z34784c10)" d="M 412 503 L 468 503 L 759 562 L 808 565 L 851 556"/>
<path style="--d:11s;" pathLength="3333" clip-path="url(#z34784c11)" d="M 580 706 L 617 680 L 605 385 L 612 348"/>
<path style="--d:12s;" pathLength="3333" clip-path="url(#z34784c12)" d="M 588 508 L 556 461 L 495 396 L 453 365 L 404 340"/>
<path style="--d:13s;" pathLength="3333" clip-path="url(#z34784c13)" d="M 636 514 L 716 454 L 813 403 L 868 396 L 966 400"/>
<path style="--d:14s;" pathLength="3333" clip-path="url(#z34784c14)" d="M 409 300 L 444 269 L 454 241 L 473 82 L 491 15"/>
<path style="--d:15s;" pathLength="3333" clip-path="url(#z34784c15)" d="M 475 283 L 486 273 L 502 270 L 753 320 L 772 316 L 795 298 L 805 286 L 788 149 L 774 68 L 754 34 L 755 -23"/>
<path style="--d:16s;" pathLength="3333" clip-path="url(#z34784c16)" d="M 523 159 L 660 187 L 708 184"/>
<path style="--d:17s;" pathLength="3333" clip-path="url(#z34784c17)" d="M 587 264 L 613 239 L 609 99 L 595 85"/>
<path style="--d:18s;" pathLength="3333" clip-path="url(#z34784c18)" d="M 510 58 L 520 51 L 662 70 L 726 71"/>
</svg>