<svg id="z37994" class="acjk" viewBox="0 0 1024 1024" xmlns="http://www.w3.org/2000/svg">
  <path id="z37994d1" d="M 191 482 Q 194 488 299 661 L 309 679 Q 324 706 339 721 Q 348 731 343 744 Q 339 756 311 775 Q 286 791 267 790 Q 251 787 259 767 Q 275 736 263 707 Q 200 542 45 341 Q 36 331 34 325 Q 31 315 45 318 Q 79 324 174 459 Q 178 465 183 471 L 191 482 Z"/>
  <path id="z37994d2" d="M 299 661 Q 305 654 323 639 Q 353 617 384 590 Q 396 580 409 581 Q 418 581 421 592 Q 425 605 416 629 Q 410 648 381 661 Q 318 683 309 679 C 285 676 285 676 299 661 Z"/>
  <path id="z37994d3" d="M 294 468 Q 325 478 360 487 Q 379 493 381 496 Q 388 503 384 510 Q 377 520 351 524 Q 324 525 259 498 Q 232 491 200 485 Q 194 484 191 482 C 177 476 177 476 183 471 Q 201 453 253 457 L 294 468 Z"/>
  <path id="z37994d4" d="M 304 359 Q 389 386 393 389 Q 400 396 395 403 Q 388 412 365 415 Q 332 418 306 401 L 260 383 Q 259 383 257 382 Q 221 370 180 363 Q 152 356 173 344 Q 209 329 260 345 L 304 359 Z"/>
  <path id="z37994d5" d="M 296 181 Q 300 280 304 359 L 306 401 Q 306 405 307 407 Q 310 452 299 464 Q 296 467 294 468 C 272 489 243 485 253 457 Q 254 456 255 454 Q 259 439 260 383 L 260 345 Q 259 284 258 170 C 258 140 295 151 296 181 Z"/>
  <path id="z37994d6" d="M 156 235 Q 169 220 182 202 Q 192 190 207 190 Q 216 190 221 201 Q 225 214 220 239 Q 217 252 197 263 Q 146 282 136 279 Q 132 275 132 264 Q 133 254 156 235 Z"/>
  <path id="z37994d7" d="M 354 306 Q 345 282 326 245 Q 323 239 327 236 Q 333 235 337 239 Q 382 284 404 302 Q 414 306 411 314 Q 405 324 390 333 Q 375 343 360 341 Q 351 340 354 326 Q 357 317 354 306 Z"/>
  <path id="z37994d8" d="M 258 170 Q 101 125 70 126 Q 58 125 56 116 Q 55 103 63 96 Q 84 81 113 64 Q 123 61 133 69 Q 164 93 326 162 Q 348 172 365 184 Q 377 191 377 199 Q 373 203 361 202 Q 328 192 296 181 L 258 170 Z"/>
  <path id="z37994d9" d="M 655 674 Q 659 717 664 758 L 667 783 Q 668 792 671 798 Q 674 805 676 812 Q 677 821 662 833 Q 634 848 614 851 Q 601 854 594 847 Q 588 840 595 829 Q 610 811 619 665 C 621 635 652 644 655 674 Z"/>
  <path id="z37994d10" d="M 664 758 Q 694 754 785 772 Q 798 776 800 777 Q 807 784 803 791 Q 796 800 773 804 Q 767 805 667 783 C 638 777 634 761 664 758 Z"/>
  <path id="z37994d11" d="M 526 608 Q 631 650 752 670 Q 782 676 793 675 Q 802 668 798 662 Q 798 659 777 601 Q 770 588 775 584 Q 782 581 798 592 Q 844 623 882 635 Q 913 644 913 652 Q 910 661 848 701 Q 824 719 750 696 Q 720 693 655 674 L 619 665 Q 589 662 500 637 C 471 629 498 597 526 608 Z"/>
  <path id="z37994d12" d="M 500 637 Q 467 658 453 653 Q 443 646 448 634 Q 494 562 423 282 Q 414 258 407 233 Q 374 145 290 16 Q 286 10 284 4 Q 281 -5 291 -3 Q 327 3 405 133 Q 414 152 425 172 Q 491 316 507 495 Q 517 582 522 595 Q 526 602 526 608 C 530 620 526 622 500 637 Z"/>
  <path id="z37994d13" d="M 643 548 Q 734 581 738 585 Q 742 591 739 596 Q 733 603 712 606 Q 690 607 648 584 L 614 571 Q 587 562 557 555 Q 533 548 553 538 Q 575 529 613 538 L 643 548 Z"/>
  <path id="z37994d14" d="M 613 538 Q 610 490 627 473 Q 666 440 739 460 Q 755 464 771 476 Q 781 483 776 497 Q 770 510 764 549 Q 764 558 760 561 Q 757 564 753 554 Q 732 514 721 501 Q 717 497 705 494 Q 675 488 657 496 Q 642 505 642 532 Q 642 539 643 548 L 648 584 L 650 592 Q 654 604 646 610 Q 637 619 623 625 Q 614 628 609 624 Q 605 623 608 610 Q 614 591 614 571 L 613 538 Z"/>
  <path id="z37994d15" d="M 554 404 Q 547 408 525 411 Q 516 414 514 410 Q 510 406 516 393 Q 538 348 552 274 Q 555 252 568 236 Q 581 220 585 232 Q 586 236 587 242 L 586 266 Q 571 341 566 381 C 564 400 564 400 554 404 Z"/>
  <path id="z37994d16" d="M 756 266 Q 760 256 771 257 Q 781 258 787 271 Q 794 280 807 324 Q 817 364 845 389 Q 860 402 846 414 Q 833 427 792 446 Q 783 452 721 438 Q 658 429 554 404 C 525 397 537 372 566 381 Q 591 390 634 398 L 666 403 Q 745 424 764 413 Q 771 409 769 389 Q 760 311 752 286 C 749 273 749 273 756 266 Z"/>
  <path id="z37994d17" d="M 678 327 Q 700 333 722 335 Q 738 338 733 347 Q 726 357 707 360 Q 695 361 679 357 L 641 346 Q 617 339 597 333 Q 585 329 600 319 Q 603 318 642 321 L 678 327 Z"/>
  <path id="z37994d18" d="M 675 285 Q 676 307 678 327 L 679 357 Q 679 361 680 363 Q 680 391 679 393 Q 672 400 666 403 C 640 418 619 424 634 398 L 636 396 Q 637 386 641 346 L 642 321 Q 643 303 645 277 C 647 247 674 255 675 285 Z"/>
  <path id="z37994d19" d="M 587 242 Q 591 242 598 243 Q 646 255 756 266 C 774 268 774 268 752 286 Q 748 290 742 293 Q 727 300 675 285 L 645 277 Q 614 273 586 266 C 557 259 557 240 587 242 Z"/>
  <path id="z37994d20" d="M 515 175 Q 506 179 480 183 Q 471 186 468 181 Q 464 177 471 164 Q 492 124 507 58 Q 508 49 512 41 C 524 13 548 15 543 45 Q 528 135 525 150 C 521 173 521 173 515 175 Z"/>
  <path id="z37994d21" d="M 801 78 Q 823 144 845 161 Q 861 180 838 195 Q 817 211 795 223 Q 783 232 730 214 Q 714 214 515 175 C 486 169 497 140 525 150 Q 549 159 571 163 L 589 167 Q 595 170 665 179 L 706 184 Q 727 188 753 190 Q 763 191 768 186 Q 778 171 748 70 C 740 41 791 50 801 78 Z"/>
  <path id="z37994d22" d="M 619 53 Q 619 54 620 56 Q 621 84 604 136 Q 601 142 599 149 Q 596 159 589 167 C 570 190 568 193 571 163 Q 580 70 599 51 C 614 34 614 34 619 53 Z"/>
  <path id="z37994d23" d="M 681 61 Q 706 133 718 157 Q 727 167 719 174 Q 715 180 706 184 C 679 198 653 206 665 179 Q 680 151 658 58 C 651 29 671 33 681 61 Z"/>
  <path id="z37994d24" d="M 512 41 Q 463 38 411 31 Q 393 30 406 14 Q 431 -11 476 -1 Q 614 36 900 36 Q 916 36 933 35 Q 949 35 954 42 Q 958 52 945 64 Q 893 103 830 84 Q 815 83 801 78 L 748 70 Q 717 67 681 61 L 658 58 Q 639 57 619 53 L 599 51 Q 571 50 543 45 L 512 41 Z"/>
<defs>
  <clipPath id="z37994c1"><use href="#z37994d1"/></clipPath>
  <clipPath id="z37994c2"><use href="#z37994d2"/></clipPath>
  <clipPath id="z37994c3"><use href="#z37994d3"/></clipPath>
  <clipPath id="z37994c4"><use href="#z37994d4"/></clipPath>
  <clipPath id="z37994c5"><use href="#z37994d5"/></clipPath>
  <clipPath id="z37994c6"><use href="#z37994d6"/></clipPath>
  <clipPath id="z37994c7"><use href="#z37994d7"/></clipPath>
  <clipPath id="z37994c8"><use href="#z37994d8"/></clipPath>
  <clipPath id="z37994c9"><use href="#z37994d9"/></clipPath>
  <clipPath id="z37994c10"><use href="#z37994d10"/></clipPath>
  <clipPath id="z37994c11"><use href="#z37994d11"/></clipPath>
  <clipPath id="z37994c12"><use href="#z37994d12"/></clipPath>
  <clipPath id="z37994c13"><use href="#z37994d13"/></clipPath>
  <clipPath id="z37994c14"><use href="#z37994d14"/></clipPath>
  <clipPath id="z37994c15"><use href="#z37994d15"/></clipPath>
  <clipPath id="z37994c16"><use href="#z37994d16"/></clipPath>
  <clipPath id="z37994c17"><use href="#z37994d17"/></clipPath>
  <clipPath id="z37994c18"><use href="#z37994d18"/></clipPath>
  <clipPath id="z37994c19"><use href="#z37994d19"/></clipPath>
  <clipPath id="z37994c20"><use href="#z37994d20"/></clipPath>
  <clipPath id="z37994c21"><use href="#z37994d21"/></clipPath>
  <clipPath id="z37994c22"><use href="#z37994d22"/></clipPath>
  <clipPath id="z37994c23"><use href="#z37994d23"/></clipPath>
  <clipPath id="z37994c24"><use href="#z37994d24"/></clipPath>
</defs>
<path style="--d:1s;" pathLength="3333" clip-path="url(#z37994c1)" d="M 269 776 L 291 758 L 304 736 L 273 661 L 153 457 L 79 360 L 42 325"/>
<path style="--d:2s;" pathLength="3333" clip-path="url(#z37994c2)" d="M 306 663 L 319 663 L 377 633 L 409 593"/>
<path style="--d:3s;" pathLength="3333" clip-path="url(#z37994c3)" d="M 191 473 L 255 477 L 338 503 L 373 505"/>
<path style="--d:4s;" pathLength="3333" clip-path="url(#z37994c4)" d="M 175 354 L 219 353 L 344 394 L 387 397"/>
<path style="--d:5s;" pathLength="3333" clip-path="url(#z37994c5)" d="M 264 452 L 282 440 L 284 418 L 278 206 L 273 189 L 262 180"/>
<path style="--d:6s;" pathLength="3333" clip-path="url(#z37994c6)" d="M 140 270 L 190 236 L 206 205"/>
<path style="--d:7s;" pathLength="3333" clip-path="url(#z37994c7)" d="M 362 331 L 379 312 L 331 241"/>
<path style="--d:8s;" pathLength="3333" clip-path="url(#z37994c8)" d="M 69 113 L 118 99 L 372 196"/>
<path style="--d:9s;" pathLength="3333" clip-path="url(#z37994c9)" d="M 604 839 L 638 807 L 637 690 L 622 678"/>
<path style="--d:10s;" pathLength="3333" clip-path="url(#z37994c10)" d="M 669 764 L 682 775 L 793 786"/>
<path style="--d:11s;" pathLength="3333" clip-path="url(#z37994c11)" d="M 511 638 L 531 628 L 667 667 L 799 692 L 823 679 L 838 661 L 779 589"/>
<path style="--d:12s;" pathLength="3333" clip-path="url(#z37994c12)" d="M 458 643 L 481 621 L 492 592 L 474 407 L 450 300 L 422 214 L 383 132 L 331 50 L 292 5"/>
<path style="--d:13s;" pathLength="3333" clip-path="url(#z37994c13)" d="M 553 547 L 601 550 L 700 588 L 732 591"/>
<path style="--d:14s;" pathLength="3333" clip-path="url(#z37994c14)" d="M 617 616 L 631 593 L 628 513 L 635 493 L 651 478 L 696 472 L 737 484 L 749 493 L 760 554"/>
<path style="--d:15s;" pathLength="3333" clip-path="url(#z37994c15)" d="M 520 405 L 540 388 L 547 373 L 577 236"/>
<path style="--d:16s;" pathLength="3333" clip-path="url(#z37994c16)" d="M 564 402 L 580 397 L 734 431 L 771 430 L 791 420 L 804 398 L 769 270"/>
<path style="--d:17s;" pathLength="3333" clip-path="url(#z37994c17)" d="M 603 327 L 689 345 L 725 344"/>
<path style="--d:18s;" pathLength="3333" clip-path="url(#z37994c18)" d="M 642 393 L 660 373 L 660 297 L 651 286"/>
<path style="--d:19s;" pathLength="3333" clip-path="url(#z37994c19)" d="M 592 248 L 610 259 L 719 278 L 739 278 L 745 269"/>
<path style="--d:20s;" pathLength="3333" clip-path="url(#z37994c20)" d="M 475 176 L 503 148 L 522 77 L 519 48"/>
<path style="--d:21s;" pathLength="3333" clip-path="url(#z37994c21)" d="M 531 159 L 534 168 L 582 180 L 775 206 L 797 190 L 806 170 L 783 101 L 753 81"/>
<path style="--d:22s;" pathLength="3333" clip-path="url(#z37994c22)" d="M 586 159 L 602 76 L 614 56"/>
<path style="--d:23s;" pathLength="3333" clip-path="url(#z37994c23)" d="M 672 177 L 693 153 L 674 72 L 662 69"/>
<path style="--d:24s;" pathLength="3333" clip-path="url(#z37994c24)" d="M 409 22 L 430 16 L 464 17 L 641 42 L 857 63 L 915 58 L 945 47"/>
</svg>