<svg id="z38061" class="acjk" viewBox="0 0 1024 1024" xmlns="http://www.w3.org/2000/svg">
  <path id="z38061d1" d="M 287 622 Q 351 733 367 749 Q 377 759 371 773 Q 367 786 338 807 Q 311 825 292 824 Q 274 823 283 800 Q 298 769 286 742 Q 252 651 198 566 Q 146 484 74 395 Q 64 385 62 378 Q 59 368 73 370 Q 127 379 270 596 Q 271 600 275 604 L 287 622 Z"/>
  <path id="z38061d2" d="M 275 604 Q 282 597 317 593 Q 342 593 466 634 Q 473 643 468 650 Q 461 660 433 663 Q 409 664 342 636 Q 318 629 288 623 Q 287 623 287 622 C 261 613 261 613 275 604 Z"/>
  <path id="z38061d3" d="M 314 462 Q 428 498 429 500 Q 436 507 432 514 Q 425 524 399 528 Q 372 529 348 518 Q 323 506 294 497 Q 263 487 224 481 Q 193 474 217 460 Q 236 453 266 452 L 314 462 Z"/>
  <path id="z38061d4" d="M 333 327 Q 370 340 414 351 Q 451 363 457 369 Q 464 376 460 385 Q 453 395 423 400 Q 392 404 334 376 L 287 358 Q 283 358 278 356 Q 226 340 166 329 Q 132 320 158 306 Q 200 288 269 309 Q 276 312 288 314 L 333 327 Z"/>
  <path id="z38061d5" d="M 288 314 Q 284 185 259 144 Q 214 87 259 47 Q 272 40 283 55 Q 298 83 438 198 Q 456 210 460 218 Q 464 228 454 228 Q 439 227 336 169 Q 326 163 324 173 Q 331 258 333 327 L 334 376 Q 333 403 338 424 Q 342 437 334 447 Q 324 457 314 462 C 289 479 255 480 266 452 Q 284 410 287 358 L 288 314 Z"/>
  <path id="z38061d6" d="M 549 621 Q 603 581 630 576 Q 643 576 648 588 Q 651 598 646 612 Q 633 642 553 654 Q 538 655 532 651 Q 528 650 531 639 Q 534 630 549 621 Z"/>
  <path id="z38061d7" d="M 532 486 Q 589 438 616 433 Q 629 432 636 444 Q 640 456 635 470 Q 622 506 562 516 Q 526 525 516 519 Q 512 518 515 507 Q 516 497 532 486 Z"/>
  <path id="z38061d8" d="M 759 365 Q 811 372 882 376 Q 900 377 915 378 Q 934 379 937 387 Q 941 399 926 410 Q 868 446 816 427 Q 789 421 759 411 L 707 399 Q 694 398 681 393 Q 593 374 486 353 Q 467 350 482 335 Q 512 311 556 324 Q 631 349 706 358 L 759 365 Z"/>
  <path id="z38061d9" d="M 706 358 Q 706 31 707 17 Q 707 -26 720 -48 Q 735 -64 744 -42 Q 757 1 759 365 L 759 411 Q 760 610 766 702 Q 767 736 785 764 Q 792 780 772 796 Q 747 815 704 827 Q 685 831 672 818 Q 662 809 674 797 Q 704 772 706 737 Q 707 625 707 399 L 706 358 Z"/>
<defs>
  <clipPath id="z38061c1"><use href="#z38061d1"/></clipPath>
  <clipPath id="z38061c2"><use href="#z38061d2"/></clipPath>
  <clipPath id="z38061c3"><use href="#z38061d3"/></clipPath>
  <clipPath id="z38061c4"><use href="#z38061d4"/></clipPath>
  <clipPath id="z38061c5"><use href="#z38061d5"/></clipPath>
  <clipPath id="z38061c6"><use href="#z38061d6"/></clipPath>
  <clipPath id="z38061c7"><use href="#z38061d7"/></clipPath>
  <clipPath id="z38061c8"><use href="#z38061d8"/></clipPath>
  <clipPath id="z38061c9"><use href="#z38061d9"/></clipPath>
</defs>
<path style="--d:1s;" pathLength="3333" clip-path="url(#z38061c1)" d="M 293 810 L 310 797 L 330 764 L 273 645 L 168 483 L 118 421 L 71 378"/>
<path style="--d:2s;" pathLength="3333" clip-path="url(#z38061c2)" d="M 281 606 L 341 616 L 438 645 L 458 643"/>
<path style="--d:3s;" pathLength="3333" clip-path="url(#z38061c3)" d="M 218 471 L 260 469 L 322 483 L 393 509 L 423 509"/>
<path style="--d:4s;" pathLength="3333" clip-path="url(#z38061c4)" d="M 159 318 L 180 315 L 236 322 L 385 370 L 449 379"/>
<path style="--d:5s;" pathLength="3333" clip-path="url(#z38061c5)" d="M 273 448 L 307 424 L 311 334 L 298 173 L 302 137 L 347 149 L 453 221"/>
<path style="--d:6s;" pathLength="3333" clip-path="url(#z38061c6)" d="M 539 644 L 606 614 L 631 594"/>
<path style="--d:7s;" pathLength="3333" clip-path="url(#z38061c7)" d="M 523 512 L 591 478 L 618 453"/>
<path style="--d:8s;" pathLength="3333" clip-path="url(#z38061c8)" d="M 484 344 L 507 339 L 543 342 L 831 402 L 878 403 L 926 392"/>
<path style="--d:9s;" pathLength="3333" clip-path="url(#z38061c9)" d="M 680 808 L 705 802 L 741 768 L 733 573 L 731 -42"/>
</svg>