<svg id="z34349" class="acjk" viewBox="0 0 1024 1024" xmlns="http://www.w3.org/2000/svg">
  <path id="z34349d1" d="M 421 762 Q 418 789 417 809 Q 418 827 399 831 Q 363 849 342 841 Q 326 832 341 815 Q 365 788 376 755 L 385 722 Q 398 671 412 659 Q 425 649 428 660 Q 429 669 425 733 L 421 762 Z"/>
  <path id="z34349d2" d="M 425 733 Q 431 736 440 737 Q 455 738 471 748 Q 478 752 476 759 Q 475 765 462 768 Q 443 767 421 762 L 376 755 Q 315 748 234 735 Q 194 736 173 735 Q 163 736 161 732 Q 158 725 165 715 Q 178 700 205 689 Q 221 679 239 685 Q 309 703 385 722 L 425 733 Z"/>
  <path id="z34349d3" d="M 634 783 Q 641 799 656 821 Q 669 834 661 844 Q 651 860 621 877 Q 608 886 591 879 Q 581 875 588 864 Q 597 843 580 776 L 572 749 Q 554 683 554 681 Q 555 669 568 676 Q 580 685 612 741 L 634 783 Z"/>
  <path id="z34349d4" d="M 612 741 Q 625 741 641 743 Q 731 762 817 750 Q 830 749 835 757 Q 839 767 828 779 Q 785 815 711 796 Q 675 790 634 783 L 580 776 Q 571 776 564 774 Q 539 771 557 758 Q 564 754 572 749 L 612 741 Z"/>
  <path id="z34349d5" d="M 249 589 L 247 591 Q 226 609 200 617 Q 191 618 185 611 Q 182 605 189 595 Q 216 532 214 465 Q 220 198 177 65 Q 170 40 174 21 Q 181 -10 193 -24 Q 203 -37 213 -24 Q 246 9 247 214 Q 247 322 250 397 L 250 419 Q 251 456 253 483 L 255 511 Q 255 547 261 566 C 263 578 263 578 249 589 Z"/>
  <path id="z34349d6" d="M 360 418 Q 361 415 365 411 Q 384 383 403 406 Q 415 421 421 474 Q 427 546 446 575 Q 456 591 445 604 Q 429 619 402 633 Q 389 637 374 632 Q 316 607 249 589 C 220 581 233 554 261 566 Q 260 567 262 567 Q 358 603 376 594 Q 383 590 381 569 Q 372 449 369 444 C 364 414 357 423 360 418 Z"/>
  <path id="z34349d7" d="M 253 483 Q 299 495 335 501 Q 353 505 345 514 Q 336 524 316 527 Q 283 530 255 511 C 230 495 224 475 253 483 Z"/>
  <path id="z34349d8" d="M 250 397 Q 259 401 360 418 C 390 423 396 430 369 444 Q 365 447 356 448 Q 326 451 250 419 C 222 407 221 388 250 397 Z"/>
  <path id="z34349d9" d="M 611 636 Q 598 646 582 651 Q 576 654 572 650 Q 565 646 572 636 Q 593 591 590 506 Q 587 455 614 431 L 616 430 Q 626 426 632 445 L 634 473 Q 631 506 631 529 L 631 554 Q 631 581 634 609 C 635 619 635 619 611 636 Z"/>
  <path id="z34349d10" d="M 784 464 Q 799 44 775 11 Q 771 5 750 9 Q 719 15 687 20 Q 668 24 669 15 Q 735 -28 772 -61 Q 785 -79 800 -82 Q 810 -85 817 -76 Q 854 -21 849 25 Q 836 218 831 535 Q 830 590 842 615 Q 854 634 842 644 Q 821 662 786 676 Q 768 683 755 676 Q 697 646 611 636 C 581 632 605 603 634 609 Q 638 610 643 611 Q 694 621 743 632 Q 759 635 768 625 Q 781 613 780 572 Q 781 527 783 483 L 784 464 Z"/>
  <path id="z34349d11" d="M 631 529 Q 631 530 634 530 Q 689 540 730 547 Q 749 551 741 562 Q 731 574 710 576 Q 674 579 631 554 C 605 539 602 520 631 529 Z"/>
  <path id="z34349d12" d="M 632 445 Q 636 445 642 446 Q 684 455 784 464 C 807 466 807 466 783 483 Q 777 487 768 494 Q 755 501 730 495 Q 678 482 634 473 C 605 467 602 443 632 445 Z"/>
  <path id="z34349d13" d="M 527 381 Q 543 385 591 392 Q 598 392 603 400 Q 603 407 589 413 Q 556 425 534 412 L 490 399 Q 469 396 414 386 Q 396 383 410 373 Q 428 358 466 368 Q 476 371 491 373 L 527 381 Z"/>
  <path id="z34349d14" d="M 358 314 Q 348 318 333 319 Q 324 320 322 317 Q 318 313 325 300 Q 347 260 363 193 Q 367 174 380 160 Q 393 144 397 156 Q 398 162 399 169 L 397 189 Q 390 217 377 286 C 373 309 373 309 358 314 Z"/>
  <path id="z34349d15" d="M 615 194 Q 618 184 627 184 Q 642 187 669 230 Q 685 270 716 292 Q 732 302 720 316 Q 707 331 669 355 Q 660 361 586 350 Q 571 350 523 340 L 492 335 Q 468 334 447 328 Q 396 319 358 314 C 328 310 350 274 377 286 Q 384 295 492 310 L 522 315 Q 628 333 643 323 Q 649 319 644 302 Q 625 238 618 225 Q 615 222 614 218 C 606 203 606 203 615 194 Z"/>
  <path id="z34349d16" d="M 408 260 Q 441 221 453 219 Q 460 218 464 228 Q 465 235 460 246 Q 451 267 411 274 Q 405 275 405 269 Q 404 265 408 260 Z"/>
  <path id="z34349d17" d="M 568 283 Q 559 267 539 243 Q 536 239 539 236 L 604 273 Q 613 274 611 280 Q 608 287 599 297 Q 589 306 578 307 Q 571 307 572 297 Q 573 290 568 283 Z"/>
  <path id="z34349d18" d="M 520 182 Q 571 191 615 194 C 645 196 642 206 614 218 Q 592 231 521 212 L 490 206 Q 441 199 397 189 C 368 182 369 171 399 169 Q 408 168 422 169 Q 440 173 459 174 L 520 182 Z"/>
  <path id="z34349d19" d="M 489 145 Q 489 76 473 24 Q 466 -4 483 -41 Q 487 -53 492 -55 Q 496 -59 501 -54 Q 519 -42 519 -1 Q 518 21 520 182 L 521 212 Q 521 258 522 315 L 523 340 Q 524 362 527 381 L 534 412 Q 534 415 535 415 Q 541 425 539 434 Q 535 440 499 462 Q 484 474 470 463 Q 467 460 471 450 Q 487 425 490 399 L 491 373 Q 491 355 492 335 L 492 310 Q 492 304 493 297 Q 492 254 490 206 L 489 145 Z"/>
  <path id="z34349d20" d="M 459 174 Q 441 113 305 25 Q 292 16 303 14 Q 361 7 450 98 Q 472 120 487 142 Q 487 143 489 145 C 515 183 473 215 459 174 Z"/>
  <path id="z34349d21" d="M 575 131 Q 609 104 651 66 Q 663 53 674 51 Q 680 51 684 58 Q 691 68 680 97 Q 676 113 663 123 Q 630 141 573 152 Q 567 155 566 146 Q 567 137 575 131 Z"/>
<defs>
  <clipPath id="z34349c1"><use href="#z34349d1"/></clipPath>
  <clipPath id="z34349c2"><use href="#z34349d2"/></clipPath>
  <clipPath id="z34349c3"><use href="#z34349d3"/></clipPath>
  <clipPath id="z34349c4"><use href="#z34349d4"/></clipPath>
  <clipPath id="z34349c5"><use href="#z34349d5"/></clipPath>
  <clipPath id="z34349c6"><use href="#z34349d6"/></clipPath>
  <clipPath id="z34349c7"><use href="#z34349d7"/></clipPath>
  <clipPath id="z34349c8"><use href="#z34349d8"/></clipPath>
  <clipPath id="z34349c9"><use href="#z34349d9"/></clipPath>
  <clipPath id="z34349c10"><use href="#z34349d10"/></clipPath>
  <clipPath id="z34349c11"><use href="#z34349d11"/></clipPath>
  <clipPath id="z34349c12"><use href="#z34349d12"/></clipPath>
  <clipPath id="z34349c13"><use href="#z34349d13"/></clipPath>
  <clipPath id="z34349c14"><use href="#z34349d14"/></clipPath>
  <clipPath id="z34349c15"><use href="#z34349d15"/></clipPath>
  <clipPath id="z34349c16"><use href="#z34349d16"/></clipPath>
  <clipPath id="z34349c17"><use href="#z34349d17"/></clipPath>
  <clipPath id="z34349c18"><use href="#z34349d18"/></clipPath>
  <clipPath id="z34349c19"><use href="#z34349d19"/></clipPath>
  <clipPath id="z34349c20"><use href="#z34349d20"/></clipPath>
  <clipPath id="z34349c21"><use href="#z34349d21"/></clipPath>
</defs>
<path style="--d:1s;" pathLength="3333" clip-path="url(#z34349c1)" d="M 348 828 L 368 819 L 388 800 L 420 662"/>
<path style="--d:2s;" pathLength="3333" clip-path="url(#z34349c2)" d="M 168 728 L 206 713 L 240 710 L 467 756"/>
<path style="--d:3s;" pathLength="3333" clip-path="url(#z34349c3)" d="M 601 869 L 624 832 L 591 740 L 562 681"/>
<path style="--d:4s;" pathLength="3333" clip-path="url(#z34349c4)" d="M 559 767 L 609 760 L 767 778 L 791 776 L 825 763"/>
<path style="--d:5s;" pathLength="3333" clip-path="url(#z34349c5)" d="M 193 607 L 211 593 L 231 562 L 234 479 L 228 202 L 203 31 L 203 -20"/>
<path style="--d:6s;" pathLength="3333" clip-path="url(#z34349c6)" d="M 258 586 L 270 580 L 374 614 L 397 608 L 413 590 L 392 437 L 386 422 L 372 421"/>
<path style="--d:7s;" pathLength="3333" clip-path="url(#z34349c7)" d="M 259 490 L 269 503 L 295 511 L 338 509"/>
<path style="--d:8s;" pathLength="3333" clip-path="url(#z34349c8)" d="M 251 403 L 262 414 L 343 430 L 361 440"/>
<path style="--d:9s;" pathLength="3333" clip-path="url(#z34349c9)" d="M 578 643 L 600 619 L 610 590 L 611 495 L 619 439"/>
<path style="--d:10s;" pathLength="3333" clip-path="url(#z34349c10)" d="M 620 636 L 629 628 L 648 626 L 768 654 L 795 639 L 808 622 L 805 535 L 815 240 L 815 16 L 807 -12 L 795 -26 L 766 -21 L 678 13"/>
<path style="--d:11s;" pathLength="3333" clip-path="url(#z34349c11)" d="M 641 538 L 645 547 L 693 559 L 733 556"/>
<path style="--d:12s;" pathLength="3333" clip-path="url(#z34349c12)" d="M 636 452 L 655 463 L 741 479 L 763 478 L 773 468"/>
<path style="--d:13s;" pathLength="3333" clip-path="url(#z34349c13)" d="M 419 377 L 455 378 L 554 403 L 594 400"/>
<path style="--d:14s;" pathLength="3333" clip-path="url(#z34349c14)" d="M 329 312 L 347 299 L 360 273 L 389 160"/>
<path style="--d:15s;" pathLength="3333" clip-path="url(#z34349c15)" d="M 365 312 L 382 304 L 599 341 L 637 342 L 660 336 L 678 304 L 626 196"/>
<path style="--d:16s;" pathLength="3333" clip-path="url(#z34349c16)" d="M 412 266 L 445 243 L 453 230"/>
<path style="--d:17s;" pathLength="3333" clip-path="url(#z34349c17)" d="M 603 281 L 586 283 L 556 251 L 545 247"/>
<path style="--d:18s;" pathLength="3333" clip-path="url(#z34349c18)" d="M 404 175 L 422 183 L 556 205 L 598 208 L 607 200"/>
<path style="--d:19s;" pathLength="3333" clip-path="url(#z34349c19)" d="M 480 457 L 511 421 L 507 144 L 495 14 L 496 -46"/>
<path style="--d:20s;" pathLength="3333" clip-path="url(#z34349c20)" d="M 482 173 L 453 125 L 416 86 L 350 37 L 309 19"/>
<path style="--d:21s;" pathLength="3333" clip-path="url(#z34349c21)" d="M 574 144 L 646 104 L 673 64"/>
</svg>