<svg id="z38289" class="acjk" viewBox="0 0 1024 1024" xmlns="http://www.w3.org/2000/svg">
  <path id="z38289d1" d="M 242 733 Q 221 749 197 756 Q 187 757 180 749 Q 176 742 185 731 Q 249 559 201 239 Q 174 121 175 116 Q 175 113 177 108 Q 187 71 199 57 Q 212 42 222 57 Q 255 102 256 318 Q 256 394 257 471 L 257 502 Q 257 548 258 582 L 259 619 Q 260 674 266 698 Q 266 704 265 708 C 266 718 266 718 242 733 Z"/>
  <path id="z38289d2" d="M 367 492 Q 368 491 370 488 Q 392 457 412 485 Q 428 504 428 524 Q 431 576 435 633 Q 438 682 457 714 Q 469 733 455 747 Q 436 762 406 777 Q 390 781 375 775 Q 314 750 242 733 C 213 726 237 698 265 708 Q 265 709 267 709 Q 357 740 376 731 Q 386 727 384 696 Q 381 611 377 539 Q 376 521 367 516 C 358 503 358 503 367 492 Z"/>
  <path id="z38289d3" d="M 258 582 Q 257 583 260 583 Q 311 593 349 601 Q 373 608 362 620 Q 349 633 322 635 Q 297 636 259 619 C 232 607 230 571 258 582 Z"/>
  <path id="z38289d4" d="M 257 471 Q 290 483 367 492 C 397 496 392 500 367 516 Q 361 520 353 524 Q 338 531 313 521 Q 282 511 257 502 C 229 492 229 461 257 471 Z"/>
  <path id="z38289d5" d="M 640 789 Q 616 808 590 819 Q 583 822 577 817 Q 568 813 577 800 Q 602 751 600 616 Q 594 556 628 522 Q 629 521 632 519 Q 648 512 652 540 L 655 573 Q 654 615 652 657 L 652 695 Q 652 728 655 758 C 657 776 657 776 640 789 Z"/>
  <path id="z38289d6" d="M 813 560 Q 819 134 799 103 Q 793 96 774 101 Q 752 105 728 110 Q 707 117 708 107 Q 760 56 789 21 Q 802 2 819 -4 Q 829 -8 837 2 Q 880 51 879 110 Q 866 323 864 667 Q 863 730 878 756 Q 891 777 879 788 Q 857 807 817 824 Q 793 834 751 811 Q 706 796 640 789 C 610 785 625 754 655 758 Q 718 767 784 776 Q 790 773 795 767 Q 808 754 809 709 Q 810 642 812 580 L 813 560 Z"/>
  <path id="z38289d7" d="M 652 657 Q 704 667 744 673 Q 768 679 758 692 Q 745 707 718 709 Q 693 710 652 695 C 624 685 623 651 652 657 Z"/>
  <path id="z38289d8" d="M 652 540 Q 658 539 668 541 Q 713 551 809 559 Q 810 560 813 560 C 830 564 830 564 812 580 Q 805 587 792 594 Q 776 603 748 595 Q 697 582 655 573 C 626 567 622 542 652 540 Z"/>
  <path id="z38289d9" d="M 538 404 Q 593 417 642 426 Q 667 430 657 444 Q 645 459 619 463 Q 577 467 541 450 L 489 435 Q 419 416 355 398 Q 337 394 360 379 Q 373 369 403 375 L 465 389 L 538 404 Z"/>
  <path id="z38289d10" d="M 491 334 Q 491 205 480 164 Q 471 134 493 82 Q 499 67 505 65 Q 511 59 516 66 Q 523 70 531 87 Q 538 106 538 133 Q 537 160 538 404 L 541 450 Q 542 478 549 499 Q 556 512 554 522 Q 548 529 503 557 Q 484 570 467 558 Q 463 554 468 542 Q 487 517 488 489 Q 488 464 489 435 L 491 334 Z"/>
  <path id="z38289d11" d="M 465 389 Q 426 293 310 182 Q 300 170 308 169 Q 317 165 327 171 Q 408 210 483 322 Q 486 328 491 334 C 540 402 479 422 465 389 Z"/>
  <path id="z38289d12" d="M 570 318 Q 615 285 670 236 Q 686 220 699 217 Q 706 217 713 226 Q 722 239 707 276 Q 689 321 568 345 Q 559 349 559 338 Q 560 326 570 318 Z"/>
<defs>
  <clipPath id="z38289c1"><use href="#z38289d1"/></clipPath>
  <clipPath id="z38289c2"><use href="#z38289d2"/></clipPath>
  <clipPath id="z38289c3"><use href="#z38289d3"/></clipPath>
  <clipPath id="z38289c4"><use href="#z38289d4"/></clipPath>
  <clipPath id="z38289c5"><use href="#z38289d5"/></clipPath>
  <clipPath id="z38289c6"><use href="#z38289d6"/></clipPath>
  <clipPath id="z38289c7"><use href="#z38289d7"/></clipPath>
  <clipPath id="z38289c8"><use href="#z38289d8"/></clipPath>
  <clipPath id="z38289c9"><use href="#z38289d9"/></clipPath>
  <clipPath id="z38289c10"><use href="#z38289d10"/></clipPath>
  <clipPath id="z38289c11"><use href="#z38289d11"/></clipPath>
  <clipPath id="z38289c12"><use href="#z38289d12"/></clipPath>
</defs>
<path style="--d:1s;" pathLength="3333" clip-path="url(#z38289c1)" d="M 190 744 L 221 714 L 231 695 L 239 565 L 233 282 L 209 118 L 211 62"/>
<path style="--d:2s;" pathLength="3333" clip-path="url(#z38289c2)" d="M 250 733 L 276 724 L 345 748 L 388 753 L 400 748 L 420 725 L 409 653 L 401 521 L 392 500 L 379 498"/>
<path style="--d:3s;" pathLength="3333" clip-path="url(#z38289c3)" d="M 267 590 L 278 606 L 287 609 L 317 615 L 353 612"/>
<path style="--d:4s;" pathLength="3333" clip-path="url(#z38289c4)" d="M 260 479 L 272 491 L 326 506 L 349 507 L 356 498"/>
<path style="--d:5s;" pathLength="3333" clip-path="url(#z38289c5)" d="M 582 809 L 609 782 L 624 751 L 626 606 L 637 530"/>
<path style="--d:6s;" pathLength="3333" clip-path="url(#z38289c6)" d="M 648 787 L 658 778 L 674 776 L 793 801 L 812 793 L 839 765 L 839 93 L 819 60 L 792 66 L 718 104"/>
<path style="--d:7s;" pathLength="3333" clip-path="url(#z38289c7)" d="M 660 663 L 680 684 L 713 689 L 748 685"/>
<path style="--d:8s;" pathLength="3333" clip-path="url(#z38289c8)" d="M 656 545 L 670 558 L 744 574 L 789 576 L 810 565"/>
<path style="--d:9s;" pathLength="3333" clip-path="url(#z38289c9)" d="M 357 388 L 407 393 L 582 439 L 622 443 L 647 437"/>
<path style="--d:10s;" pathLength="3333" clip-path="url(#z38289c10)" d="M 477 552 L 518 509 L 510 76"/>
<path style="--d:11s;" pathLength="3333" clip-path="url(#z38289c11)" d="M 485 386 L 475 377 L 468 341 L 430 283 L 358 207 L 314 175"/>
<path style="--d:12s;" pathLength="3333" clip-path="url(#z38289c12)" d="M 569 335 L 665 281 L 685 259 L 699 230"/>
</svg>