<svg id="z38116" class="acjk" viewBox="0 0 1024 1024" xmlns="http://www.w3.org/2000/svg">
  <path id="z38116d1" d="M 278 623 Q 338 725 355 741 Q 364 751 359 765 Q 355 778 326 799 Q 299 817 281 816 Q 262 815 271 793 Q 284 762 274 735 Q 240 647 185 563 Q 133 484 62 395 Q 52 385 50 378 Q 47 368 61 370 Q 104 377 260 594 Q 261 598 265 602 L 278 623 Z"/>
  <path id="z38116d2" d="M 265 602 Q 280 595 301 591 Q 341 588 457 626 Q 464 633 460 641 Q 453 651 425 656 Q 398 660 331 634 Q 304 628 278 623 C 249 617 237 614 265 602 Z"/>
  <path id="z38116d3" d="M 273 455 Q 327 476 382 496 Q 389 503 384 510 Q 377 520 351 522 Q 332 523 261 493 Q 234 484 203 477 Q 172 467 197 456 Q 209 453 232 449 L 273 455 Z"/>
  <path id="z38116d4" d="M 305 317 Q 332 327 365 335 Q 396 345 401 350 Q 408 357 404 366 Q 397 376 369 380 Q 353 381 305 366 L 258 346 Q 249 345 240 341 Q 197 328 145 319 Q 112 310 138 297 Q 178 278 227 295 Q 242 299 260 304 L 305 317 Z"/>
  <path id="z38116d5" d="M 260 304 Q 260 172 224 114 Q 188 72 235 30 Q 248 23 258 39 Q 271 66 392 180 Q 408 193 412 202 Q 416 212 406 211 Q 390 210 304 155 Q 298 151 296 157 Q 303 245 305 317 L 305 366 Q 305 388 310 408 Q 314 421 306 431 Q 290 447 273 455 C 247 470 219 476 232 449 Q 232 448 235 443 Q 256 400 258 346 L 260 304 Z"/>
  <path id="z38116d6" d="M 716 564 Q 842 618 845 618 Q 861 619 863 627 Q 866 637 854 647 Q 835 660 793 673 Q 778 679 766 676 Q 759 672 760 662 Q 760 628 604 539 Q 600 530 605 528 Q 617 528 688 554 L 716 564 Z"/>
  <path id="z38116d7" d="M 752 379 Q 779 386 858 399 Q 867 398 874 409 Q 875 419 855 427 Q 831 445 757 420 Q 756 420 754 419 L 705 406 Q 657 397 610 389 Q 586 385 606 371 Q 636 350 662 358 Q 678 364 705 368 L 752 379 Z"/>
  <path id="z38116d8" d="M 746 252 Q 749 319 752 379 L 754 419 Q 757 531 758 532 L 757 533 Q 736 554 716 564 C 690 579 677 582 688 554 Q 706 517 705 406 L 705 368 Q 704 317 704 242 C 704 212 745 222 746 252 Z"/>
  <path id="z38116d9" d="M 704 242 Q 665 233 621 223 Q 605 220 617 207 Q 647 185 675 194 Q 750 215 853 215 Q 869 216 873 224 Q 877 234 862 244 Q 816 275 749 253 Q 748 253 746 252 L 704 242 Z"/>
  <path id="z38116d10" d="M 521 342 Q 528 321 495 242 L 480 211 Q 447 150 378 71 Q 368 58 372 56 Q 376 53 384 60 Q 463 106 510 189 L 527 221 Q 581 338 586 342 Q 595 352 587 361 Q 562 386 525 377 Q 500 371 493 378 Q 489 381 494 390 Q 516 427 535 471 Q 551 498 565 511 Q 583 527 570 539 Q 560 549 529 561 Q 505 573 490 559 Q 445 531 412 521 Q 399 517 406 510 Q 422 497 479 513 Q 491 514 494 508 Q 498 498 487 465 Q 471 408 454 390 Q 444 377 448 364 Q 452 355 471 357 Q 493 360 510 352 Q 520 348 521 342 Z"/>
  <path id="z38116d11" d="M 495 242 Q 458 269 408 255 Q 399 251 404 243 Q 410 236 420 235 Q 448 234 480 211 L 510 189 Q 520 182 533 171 Q 704 11 782 9 Q 783 10 787 10 Q 872 20 940 37 Q 950 41 953 49 Q 956 56 937 58 Q 885 68 829 74 Q 712 89 533 217 Q 529 220 527 221 L 495 242 Z"/>
<defs>
  <clipPath id="z38116c1"><use href="#z38116d1"/></clipPath>
  <clipPath id="z38116c2"><use href="#z38116d2"/></clipPath>
  <clipPath id="z38116c3"><use href="#z38116d3"/></clipPath>
  <clipPath id="z38116c4"><use href="#z38116d4"/></clipPath>
  <clipPath id="z38116c5"><use href="#z38116d5"/></clipPath>
  <clipPath id="z38116c6"><use href="#z38116d6"/></clipPath>
  <clipPath id="z38116c7"><use href="#z38116d7"/></clipPath>
  <clipPath id="z38116c8"><use href="#z38116d8"/></clipPath>
  <clipPath id="z38116c9"><use href="#z38116d9"/></clipPath>
  <clipPath id="z38116c10"><use href="#z38116d10"/></clipPath>
  <clipPath id="z38116c11"><use href="#z38116d11"/></clipPath>
</defs>
<path style="--d:1s;" pathLength="3333" clip-path="url(#z38116c1)" d="M 280 803 L 305 779 L 316 754 L 275 667 L 178 514 L 102 419 L 59 378"/>
<path style="--d:2s;" pathLength="3333" clip-path="url(#z38116c2)" d="M 272 605 L 335 614 L 413 635 L 449 635"/>
<path style="--d:3s;" pathLength="3333" clip-path="url(#z38116c3)" d="M 197 467 L 236 467 L 348 504 L 373 504"/>
<path style="--d:4s;" pathLength="3333" clip-path="url(#z38116c4)" d="M 139 309 L 199 309 L 350 355 L 393 360"/>
<path style="--d:5s;" pathLength="3333" clip-path="url(#z38116c5)" d="M 239 449 L 245 440 L 268 429 L 279 414 L 282 284 L 269 156 L 274 122 L 304 129 L 405 204"/>
<path style="--d:6s;" pathLength="3333" clip-path="url(#z38116c6)" d="M 852 631 L 790 636 L 721 587 L 653 552 L 641 553 L 637 545 L 617 544 L 607 534"/>
<path style="--d:7s;" pathLength="3333" clip-path="url(#z38116c7)" d="M 606 380 L 644 375 L 820 414 L 864 410"/>
<path style="--d:8s;" pathLength="3333" clip-path="url(#z38116c8)" d="M 696 553 L 714 543 L 728 520 L 726 278 L 721 262 L 709 251"/>
<path style="--d:9s;" pathLength="3333" clip-path="url(#z38116c9)" d="M 620 215 L 655 211 L 791 238 L 836 236 L 863 228"/>
<path style="--d:10s;" pathLength="3333" clip-path="url(#z38116c10)" d="M 413 513 L 477 532 L 512 534 L 525 526 L 502 444 L 472 378 L 493 366 L 535 358 L 552 343 L 517 241 L 491 191 L 449 131 L 399 79 L 388 75 L 378 59"/>
<path style="--d:11s;" pathLength="3333" clip-path="url(#z38116c11)" d="M 413 247 L 446 246 L 480 232 L 641 113 L 744 57 L 792 45 L 945 49"/>
</svg>