<svg id="z31655" class="acjk" viewBox="0 0 1024 1024" xmlns="http://www.w3.org/2000/svg">
  <path id="z31655d1" d="M 324 731 Q 340 756 356 777 Q 366 789 353 802 Q 314 835 291 832 Q 281 829 282 816 Q 291 729 197 629 Q 193 628 157 587 Q 150 574 163 577 Q 179 578 201 595 Q 270 644 309 708 Q 309 709 310 711 L 324 731 Z"/>
  <path id="z31655d2" d="M 310 711 Q 311 711 314 709 Q 350 691 427 710 Q 511 731 516 734 Q 523 741 519 749 Q 512 759 485 765 Q 457 769 431 757 Q 409 748 383 741 Q 355 734 324 731 C 294 728 283 724 310 711 Z"/>
  <path id="z31655d3" d="M 328 639 Q 370 590 395 588 Q 407 588 412 605 Q 413 617 403 635 Q 385 657 331 664 Q 322 665 322 655 Q 321 648 328 639 Z"/>
  <path id="z31655d4" d="M 618 753 Q 633 781 648 804 Q 657 816 642 828 Q 603 856 578 851 Q 568 848 571 835 Q 589 762 515 663 Q 497 641 488 627 Q 481 612 495 618 Q 508 621 527 636 Q 576 679 606 730 L 618 753 Z"/>
  <path id="z31655d5" d="M 606 730 Q 651 709 701 724 Q 753 737 808 750 Q 833 757 836 761 Q 845 768 840 777 Q 833 787 804 793 Q 774 797 746 785 Q 718 775 688 766 Q 655 759 618 753 C 588 748 578 742 606 730 Z"/>
  <path id="z31655d6" d="M 652 655 Q 695 619 710 620 Q 719 621 721 632 Q 724 644 714 666 Q 710 679 688 685 Q 640 695 628 691 Q 624 687 626 677 Q 630 670 652 655 Z"/>
  <path id="z31655d7" d="M 508 520 Q 577 533 729 545 Q 739 544 748 555 Q 749 565 728 577 Q 698 598 627 580 Q 459 550 287 532 C 257 529 273 486 303 489 Q 310 489 320 491 Q 381 503 458 513 L 508 520 Z"/>
  <path id="z31655d8" d="M 539 407 Q 665 435 666 436 Q 673 443 670 450 Q 664 460 640 467 Q 615 473 543 449 L 491 437 Q 445 428 392 424 Q 361 420 383 404 Q 417 386 478 396 Q 484 397 492 398 L 539 407 Z"/>
  <path id="z31655d9" d="M 380 327 Q 398 312 417 294 Q 427 285 438 286 Q 445 287 449 296 Q 453 308 446 329 Q 442 342 420 351 Q 371 369 360 362 Q 356 359 357 350 Q 361 343 380 327 Z"/>
  <path id="z31655d10" d="M 630 374 Q 614 352 584 318 Q 580 314 583 307 Q 589 306 595 309 Q 656 343 684 355 Q 697 358 696 366 Q 692 379 678 393 Q 665 408 648 411 Q 636 411 636 397 Q 637 387 630 374 Z"/>
  <path id="z31655d11" d="M 535 234 Q 604 243 780 243 Q 798 243 803 251 Q 807 261 792 275 Q 740 314 680 297 Q 619 287 530 272 L 484 265 Q 291 244 288 240 C 269 236 269 236 287 222 Q 317 195 351 204 Q 409 220 477 228 L 535 234 Z"/>
  <path id="z31655d12" d="M 530 272 Q 539 333 539 407 L 543 449 Q 546 465 551 481 Q 555 491 548 498 Q 533 511 508 520 C 480 532 440 537 458 513 Q 459 509 465 503 Q 489 479 491 437 L 492 398 Q 492 316 484 265 L 477 228 Q 447 143 353 82 Q 329 73 326 65 Q 322 61 335 58 Q 395 58 472 125 Q 481 135 490 147 Q 509 174 519 215 L 530 272 Z"/>
  <path id="z31655d13" d="M 519 215 Q 579 163 650 86 Q 663 70 676 67 Q 683 66 689 74 Q 699 84 688 120 Q 679 159 535 234 C 508 248 496 235 519 215 Z"/>
  <path id="z31655d14" d="M 287 532 Q 253 551 237 551 Q 224 552 217 545 Q 207 539 221 522 Q 242 497 240 277 Q 240 181 224 82 Q 217 27 198 12 Q 179 -4 190 -23 Q 194 -39 210 -52 Q 225 -65 243 -51 Q 288 -6 574 -5 Q 749 -6 809 -17 Q 855 -24 856 -3 Q 856 10 823 33 Q 792 54 772 54 Q 732 54 414 27 Q 293 11 284 24 Q 281 27 287 222 L 288 240 Q 292 429 303 489 C 307 519 307 522 287 532 Z"/>
<defs>
  <clipPath id="z31655c1"><use href="#z31655d1"/></clipPath>
  <clipPath id="z31655c2"><use href="#z31655d2"/></clipPath>
  <clipPath id="z31655c3"><use href="#z31655d3"/></clipPath>
  <clipPath id="z31655c4"><use href="#z31655d4"/></clipPath>
  <clipPath id="z31655c5"><use href="#z31655d5"/></clipPath>
  <clipPath id="z31655c6"><use href="#z31655d6"/></clipPath>
  <clipPath id="z31655c7"><use href="#z31655d7"/></clipPath>
  <clipPath id="z31655c8"><use href="#z31655d8"/></clipPath>
  <clipPath id="z31655c9"><use href="#z31655d9"/></clipPath>
  <clipPath id="z31655c10"><use href="#z31655d10"/></clipPath>
  <clipPath id="z31655c11"><use href="#z31655d11"/></clipPath>
  <clipPath id="z31655c12"><use href="#z31655d12"/></clipPath>
  <clipPath id="z31655c13"><use href="#z31655d13"/></clipPath>
  <clipPath id="z31655c14"><use href="#z31655d14"/></clipPath>
</defs>
<path style="--d:1s;" pathLength="3333" clip-path="url(#z31655c1)" d="M 295 819 L 318 785 L 286 714 L 223 632 L 167 586"/>
<path style="--d:2s;" pathLength="3333" clip-path="url(#z31655c2)" d="M 315 715 L 413 727 L 466 744 L 510 743"/>
<path style="--d:3s;" pathLength="3333" clip-path="url(#z31655c3)" d="M 333 653 L 386 618 L 394 605"/>
<path style="--d:4s;" pathLength="3333" clip-path="url(#z31655c4)" d="M 581 840 L 609 808 L 588 747 L 553 686 L 497 627"/>
<path style="--d:5s;" pathLength="3333" clip-path="url(#z31655c5)" d="M 616 732 L 629 739 L 686 743 L 772 768 L 830 771"/>
<path style="--d:6s;" pathLength="3333" clip-path="url(#z31655c6)" d="M 633 683 L 686 660 L 708 632"/>
<path style="--d:7s;" pathLength="3333" clip-path="url(#z31655c7)" d="M 295 527 L 323 513 L 674 564 L 707 565 L 738 557"/>
<path style="--d:8s;" pathLength="3333" clip-path="url(#z31655c8)" d="M 385 415 L 405 410 L 466 412 L 618 447 L 662 445"/>
<path style="--d:9s;" pathLength="3333" clip-path="url(#z31655c9)" d="M 366 354 L 419 325 L 435 301"/>
<path style="--d:10s;" pathLength="3333" clip-path="url(#z31655c10)" d="M 647 399 L 658 381 L 656 371 L 588 312"/>
<path style="--d:11s;" pathLength="3333" clip-path="url(#z31655c11)" d="M 291 235 L 332 224 L 444 245 L 716 273 L 793 256"/>
<path style="--d:12s;" pathLength="3333" clip-path="url(#z31655c12)" d="M 465 510 L 506 493 L 517 472 L 513 322 L 499 226 L 480 175 L 450 135 L 375 79 L 334 66"/>
<path style="--d:13s;" pathLength="3333" clip-path="url(#z31655c13)" d="M 529 227 L 644 134 L 668 104 L 677 81"/>
<path style="--d:14s;" pathLength="3333" clip-path="url(#z31655c14)" d="M 227 535 L 245 527 L 261 509 L 267 486 L 264 209 L 246 4 L 301 -4 L 429 12 L 747 22 L 788 18 L 843 -3"/>
</svg>