<svg id="z39892" class="acjk" viewBox="0 0 1024 1024" xmlns="http://www.w3.org/2000/svg">
  <path id="z39892d1" d="M 269 659 Q 291 687 316 721 Q 332 746 345 758 Q 352 767 350 778 Q 346 788 324 808 Q 302 824 287 824 Q 271 823 278 804 Q 299 753 158 577 Q 149 570 148 564 Q 144 555 156 557 Q 181 560 244 631 Q 250 638 257 645 L 269 659 Z"/>
  <path id="z39892d2" d="M 295 511 Q 410 619 440 635 Q 459 645 447 659 Q 434 672 398 694 Q 382 701 367 692 Q 360 688 304 668 Q 288 664 269 659 C 245 653 245 653 257 645 Q 272 630 328 641 Q 340 650 347 644 Q 350 640 344 631 Q 301 556 275 521 Q 268 512 264 505 C 248 480 273 490 295 511 Z"/>
  <path id="z39892d3" d="M 164 486 Q 145 499 125 504 Q 119 505 115 501 Q 108 497 116 487 Q 146 441 156 318 Q 157 264 189 243 L 191 242 Q 206 238 207 264 Q 207 265 207 268 L 204 294 Q 203 307 198 323 Q 186 419 185 458 C 184 473 184 473 164 486 Z"/>
  <path id="z39892d4" d="M 344 281 Q 378 227 399 258 Q 414 283 439 417 Q 446 444 466 466 Q 478 476 468 489 Q 455 504 416 527 Q 401 533 342 519 Q 324 519 295 511 L 264 505 L 164 486 C 135 480 156 450 185 458 Q 213 467 255 473 L 291 479 Q 366 497 382 484 Q 397 474 393 454 Q 372 316 357 301 C 345 279 343 283 344 281 Z"/>
  <path id="z39892d5" d="M 304 378 Q 322 382 341 384 Q 360 388 353 398 Q 344 410 323 413 Q 316 414 307 412 L 262 400 Q 241 393 225 387 Q 212 383 229 371 Q 235 367 246 369 Q 253 370 262 371 L 304 378 Z"/>
  <path id="z39892d6" d="M 299 314 Q 300 348 304 378 L 307 412 Q 307 428 310 441 Q 317 460 291 479 C 267 497 243 501 255 473 Q 261 467 262 400 L 262 371 Q 262 344 262 305 C 262 275 298 284 299 314 Z"/>
  <path id="z39892d7" d="M 207 268 Q 213 268 221 269 Q 260 278 344 281 C 374 282 378 282 357 301 Q 351 307 340 314 Q 327 321 302 315 Q 301 315 299 314 L 262 305 Q 229 299 204 294 C 175 288 177 267 207 268 Z"/>
  <path id="z39892d8" d="M 129 179 Q 111 140 96 100 Q 84 78 93 53 Q 96 38 109 27 Q 116 18 129 21 Q 136 24 142 35 Q 164 98 155 185 Q 154 191 152 194 Q 148 198 142 198 Q 138 195 129 179 Z"/>
  <path id="z39892d9" d="M 208 164 Q 208 101 219 81 Q 226 72 237 75 Q 247 79 253 89 Q 268 119 233 178 Q 227 188 220 192 Q 216 193 212 186 Q 208 179 208 164 Z"/>
  <path id="z39892d10" d="M 286 179 Q 295 127 314 104 Q 321 97 333 102 Q 340 108 345 120 Q 351 153 309 197 L 307 199 Q 298 208 291 209 Q 287 210 284 201 Q 281 194 286 179 Z"/>
  <path id="z39892d11" d="M 375 188 Q 388 161 401 129 Q 405 117 416 113 Q 423 110 430 117 Q 437 124 440 146 Q 441 174 386 219 Q 377 226 372 226 Q 368 225 366 217 Q 365 208 375 188 Z"/>
  <path id="z39892d12" d="M 547 675 Q 543 603 504 529 Q 483 505 516 477 Q 532 456 555 417 Q 565 395 577 396 Q 592 395 601 412 Q 611 434 607 451 Q 604 472 542 504 Q 532 510 533 514 Q 527 545 593 639 Q 605 657 612 664 Q 642 682 598 713 Q 576 732 556 733 Q 537 733 533 726 Q 532 722 537 712 Q 549 700 547 675 Z"/>
  <path id="z39892d13" d="M 680 689 Q 677 632 633 554 Q 612 533 639 507 Q 654 492 687 437 Q 697 415 709 416 Q 724 415 733 432 Q 743 454 739 471 Q 736 492 670 526 Q 660 532 662 537 Q 656 564 729 655 Q 738 668 745 675 Q 775 693 733 725 Q 712 744 693 747 Q 674 748 669 741 Q 668 737 673 727 Q 683 714 680 689 Z"/>
  <path id="z39892d14" d="M 812 684 Q 799 623 766 563 Q 756 551 759 538 Q 760 526 778 514 Q 812 480 842 440 Q 858 421 873 419 Q 888 420 892 444 Q 896 469 885 487 Q 878 500 830 518 Q 806 525 798 542 Q 791 554 808 570 Q 826 595 857 650 Q 875 678 890 692 Q 906 704 896 722 Q 877 758 849 770 Q 833 777 821 774 Q 808 770 817 750 Q 827 725 812 684 Z"/>
  <path id="z39892d15" d="M 530 348 Q 511 361 489 369 Q 482 372 477 367 Q 470 361 478 350 Q 508 298 512 163 Q 512 94 547 76 L 548 75 Q 564 69 566 98 L 566 129 Q 565 147 560 165 Q 554 297 553 312 C 552 334 552 334 530 348 Z"/>
  <path id="z39892d16" d="M 764 114 Q 774 89 800 33 Q 809 15 819 16 Q 835 19 845 45 Q 870 93 886 239 Q 893 287 916 316 Q 934 335 922 348 Q 901 370 856 393 Q 837 403 805 393 Q 693 357 530 348 C 500 346 523 310 553 312 Q 560 311 567 312 Q 603 319 647 325 L 688 330 Q 808 349 820 336 Q 827 332 827 314 Q 827 229 811 144 Q 810 129 803 128 L 802 128 C 788 101 752 142 764 114 Z"/>
  <path id="z39892d17" d="M 707 214 Q 744 220 778 222 Q 800 223 793 237 Q 783 250 760 256 Q 739 260 710 254 L 657 242 Q 626 235 596 228 Q 580 225 598 210 Q 604 206 658 209 L 707 214 Z"/>
  <path id="z39892d18" d="M 702 149 Q 703 183 707 214 L 710 254 Q 711 261 712 267 Q 718 303 712 309 Q 700 322 688 330 C 664 347 640 354 647 325 Q 653 303 657 242 L 658 209 Q 658 181 659 141 C 660 111 701 119 702 149 Z"/>
  <path id="z39892d19" d="M 566 98 Q 573 97 583 98 Q 643 108 764 114 C 794 116 809 116 802 128 Q 799 137 776 152 Q 763 161 702 149 L 659 141 Q 610 135 566 129 C 536 125 536 100 566 98 Z"/>
<defs>
  <clipPath id="z39892c1"><use href="#z39892d1"/></clipPath>
  <clipPath id="z39892c2"><use href="#z39892d2"/></clipPath>
  <clipPath id="z39892c3"><use href="#z39892d3"/></clipPath>
  <clipPath id="z39892c4"><use href="#z39892d4"/></clipPath>
  <clipPath id="z39892c5"><use href="#z39892d5"/></clipPath>
  <clipPath id="z39892c6"><use href="#z39892d6"/></clipPath>
  <clipPath id="z39892c7"><use href="#z39892d7"/></clipPath>
  <clipPath id="z39892c8"><use href="#z39892d8"/></clipPath>
  <clipPath id="z39892c9"><use href="#z39892d9"/></clipPath>
  <clipPath id="z39892c10"><use href="#z39892d10"/></clipPath>
  <clipPath id="z39892c11"><use href="#z39892d11"/></clipPath>
  <clipPath id="z39892c12"><use href="#z39892d12"/></clipPath>
  <clipPath id="z39892c13"><use href="#z39892d13"/></clipPath>
  <clipPath id="z39892c14"><use href="#z39892d14"/></clipPath>
  <clipPath id="z39892c15"><use href="#z39892d15"/></clipPath>
  <clipPath id="z39892c16"><use href="#z39892d16"/></clipPath>
  <clipPath id="z39892c17"><use href="#z39892d17"/></clipPath>
  <clipPath id="z39892c18"><use href="#z39892d18"/></clipPath>
  <clipPath id="z39892c19"><use href="#z39892d19"/></clipPath>
</defs>
<path style="--d:1s;" pathLength="3333" clip-path="url(#z39892c1)" d="M 287 812 L 305 793 L 312 772 L 299 743 L 266 689 L 199 603 L 155 564"/>
<path style="--d:2s;" pathLength="3333" clip-path="url(#z39892c2)" d="M 263 646 L 315 654 L 338 664 L 368 662 L 389 650 L 328 564 L 296 526 L 276 514"/>
<path style="--d:3s;" pathLength="3333" clip-path="url(#z39892c3)" d="M 122 494 L 147 473 L 160 449 L 183 285 L 194 251"/>
<path style="--d:4s;" pathLength="3333" clip-path="url(#z39892c4)" d="M 172 484 L 191 476 L 376 508 L 406 500 L 420 488 L 428 477 L 396 331 L 380 284 L 361 277"/>
<path style="--d:5s;" pathLength="3333" clip-path="url(#z39892c5)" d="M 228 379 L 314 397 L 344 393"/>
<path style="--d:6s;" pathLength="3333" clip-path="url(#z39892c6)" d="M 261 473 L 286 449 L 282 335 L 267 313"/>
<path style="--d:7s;" pathLength="3333" clip-path="url(#z39892c7)" d="M 214 275 L 219 283 L 241 288 L 349 299"/>
<path style="--d:8s;" pathLength="3333" clip-path="url(#z39892c8)" d="M 145 190 L 120 68 L 123 36"/>
<path style="--d:9s;" pathLength="3333" clip-path="url(#z39892c9)" d="M 219 184 L 234 116 L 232 90"/>
<path style="--d:10s;" pathLength="3333" clip-path="url(#z39892c10)" d="M 292 201 L 320 142 L 325 116"/>
<path style="--d:11s;" pathLength="3333" clip-path="url(#z39892c11)" d="M 376 217 L 416 153 L 419 128"/>
<path style="--d:12s;" pathLength="3333" clip-path="url(#z39892c12)" d="M 542 721 L 567 707 L 582 681 L 525 547 L 515 510 L 573 448 L 579 417"/>
<path style="--d:13s;" pathLength="3333" clip-path="url(#z39892c13)" d="M 678 736 L 702 720 L 715 694 L 703 660 L 648 557 L 643 534 L 705 468 L 711 437"/>
<path style="--d:14s;" pathLength="3333" clip-path="url(#z39892c14)" d="M 827 761 L 843 746 L 858 713 L 803 594 L 782 563 L 778 544 L 782 532 L 804 510 L 860 468 L 872 435"/>
<path style="--d:15s;" pathLength="3333" clip-path="url(#z39892c15)" d="M 484 359 L 514 329 L 525 303 L 537 153 L 553 81"/>
<path style="--d:16s;" pathLength="3333" clip-path="url(#z39892c16)" d="M 539 345 L 570 331 L 807 367 L 839 364 L 861 346 L 871 332 L 842 139 L 819 90 L 819 30"/>
<path style="--d:17s;" pathLength="3333" clip-path="url(#z39892c17)" d="M 597 219 L 645 221 L 732 238 L 783 232"/>
<path style="--d:18s;" pathLength="3333" clip-path="url(#z39892c18)" d="M 654 322 L 680 300 L 685 281 L 681 168 L 665 149"/>
<path style="--d:19s;" pathLength="3333" clip-path="url(#z39892c19)" d="M 570 106 L 590 117 L 734 133 L 774 135 L 795 128"/>
</svg>