<svg id="z30339" class="acjk" viewBox="0 0 1024 1024" xmlns="http://www.w3.org/2000/svg">
  <path id="z30339d1" d="M 552 589 Q 586 632 608 663 Q 660 741 680 757 Q 698 773 681 788 Q 662 801 631 807 Q 603 813 591 806 Q 579 800 587 788 Q 602 761 536 608 Q 530 596 526 583 C 516 555 533 565 552 589 Z"/>
  <path id="z30339d2" d="M 482 573 Q 472 579 442 585 Q 430 588 427 583 Q 420 577 428 562 Q 458 493 473 383 Q 473 346 500 319 C 511 307 511 307 516 327 Q 519 337 519 350 L 518 375 Q 512 414 505 454 L 502 478 Q 495 521 494 540 C 492 569 492 569 482 573 Z"/>
  <path id="z30339d3" d="M 683 372 Q 699 347 716 337 Q 726 328 743 350 Q 758 374 791 501 Q 800 532 824 557 Q 837 570 826 584 Q 810 602 767 628 Q 752 637 678 618 Q 675 618 557 591 Q 554 591 552 589 L 526 583 Q 502 579 482 573 C 453 565 465 531 494 540 Q 561 562 693 587 Q 720 591 729 583 Q 741 568 738 553 Q 711 420 696 403 C 682 376 681 375 683 372 Z"/>
  <path id="z30339d4" d="M 505 454 Q 532 447 632 465 Q 642 468 654 470 Q 673 474 676 477 Q 683 484 679 491 Q 672 500 649 505 Q 637 508 557 486 Q 532 482 502 478 C 472 474 476 460 505 454 Z"/>
  <path id="z30339d5" d="M 641 366 Q 660 370 683 372 C 713 375 723 389 696 403 Q 692 406 685 407 Q 667 410 518 375 C 489 368 489 352 519 350 Q 523 349 532 350 Q 568 357 605 361 L 641 366 Z"/>
  <path id="z30339d6" d="M 500 319 Q 499 316 500 310 Q 519 198 367 56 Q 360 49 366 46 Q 391 42 455 95 Q 512 137 553 247 Q 560 263 569 280 Q 576 289 570 298 Q 564 305 537 320 Q 524 327 516 327 C 500 330 500 330 500 319 Z"/>
  <path id="z30339d7" d="M 982 83 Q 969 110 949 190 Q 948 206 941 210 Q 935 213 931 196 Q 906 108 889 82 Q 864 48 771 53 Q 735 54 707 67 Q 682 80 674 96 Q 647 147 674 322 Q 680 350 641 366 C 615 381 597 390 605 361 Q 605 357 608 348 Q 621 309 619 272 Q 613 118 627 76 Q 633 52 654 33 Q 721 -30 881 -3 Q 891 0 904 3 Q 941 15 976 42 Q 995 58 982 83 Z"/>
<defs>
  <clipPath id="z30339c1"><use href="#z30339d1"/></clipPath>
  <clipPath id="z30339c2"><use href="#z30339d2"/></clipPath>
  <clipPath id="z30339c3"><use href="#z30339d3"/></clipPath>
  <clipPath id="z30339c4"><use href="#z30339d4"/></clipPath>
  <clipPath id="z30339c5"><use href="#z30339d5"/></clipPath>
  <clipPath id="z30339c6"><use href="#z30339d6"/></clipPath>
  <clipPath id="z30339c7"><use href="#z30339d7"/></clipPath>
</defs>
<path style="--d:1s;" pathLength="3333" clip-path="url(#z30339c1)" d="M 594 796 L 608 790 L 631 765 L 595 685 L 551 616 L 549 603 L 532 588"/>
<path style="--d:2s;" pathLength="3333" clip-path="url(#z30339c2)" d="M 436 575 L 460 553 L 467 536 L 503 337 L 500 329"/>
<path style="--d:3s;" pathLength="3333" clip-path="url(#z30339c3)" d="M 490 570 L 507 562 L 693 606 L 732 607 L 759 597 L 779 569 L 753 473 L 722 380 L 696 373"/>
<path style="--d:4s;" pathLength="3333" clip-path="url(#z30339c4)" d="M 510 473 L 518 466 L 557 469 L 640 487 L 669 486"/>
<path style="--d:5s;" pathLength="3333" clip-path="url(#z30339c5)" d="M 526 357 L 535 367 L 670 388 L 689 400"/>
<path style="--d:6s;" pathLength="3333" clip-path="url(#z30339c6)" d="M 507 315 L 523 304 L 535 284 L 500 185 L 456 121 L 408 75 L 370 51"/>
<path style="--d:7s;" pathLength="3333" clip-path="url(#z30339c7)" d="M 612 356 L 638 340 L 644 329 L 639 147 L 648 92 L 663 64 L 694 40 L 736 25 L 793 20 L 866 28 L 907 45 L 936 74 L 940 204"/>
</svg>