<svg id="z31975" class="acjk" viewBox="0 0 1024 1024" xmlns="http://www.w3.org/2000/svg">
  <path id="z31975d1" d="M 153 600 Q 169 578 186 552 Q 196 537 212 535 Q 222 534 229 545 Q 236 558 233 588 Q 232 604 208 621 Q 150 654 136 651 Q 132 648 130 636 Q 131 624 153 600 Z"/>
  <path id="z31975d2" d="M 389 660 Q 379 632 357 588 Q 353 581 359 575 Q 366 575 373 580 Q 431 632 461 653 Q 476 660 471 670 Q 462 683 442 697 Q 421 710 400 709 Q 387 706 390 689 Q 394 676 389 660 Z"/>
  <path id="z31975d3" d="M 321 455 Q 334 459 350 462 Q 393 472 399 479 Q 409 488 403 496 Q 396 508 366 515 Q 344 519 323 514 L 279 499 Q 171 466 77 454 Q 40 447 67 430 Q 112 406 167 421 Q 210 431 259 441 L 321 455 Z"/>
  <path id="z31975d4" d="M 319 388 Q 320 421 321 455 L 323 514 Q 323 688 346 768 Q 361 793 335 811 Q 319 823 290 841 Q 266 859 245 843 Q 241 839 246 822 Q 279 774 280 691 Q 280 520 279 499 L 275 375 Q 266 192 264 181 Q 257 141 245 101 Q 235 64 259 -2 Q 266 -20 274 -23 Q 280 -30 288 -21 Q 315 -5 316 61 Q 315 100 319 360 L 319 388 Z"/>
  <path id="z31975d5" d="M 259 441 Q 202 330 47 157 Q 41 148 52 146 Q 73 143 185 256 Q 231 304 275 375 C 327 458 273 468 259 441 Z"/>
  <path id="z31975d6" d="M 319 360 Q 355 333 388 302 Q 400 292 413 293 Q 422 293 425 304 Q 429 317 421 341 Q 411 369 330 386 Q 323 387 319 388 C 290 394 295 378 319 360 Z"/>
  <path id="z31975d7" d="M 536 762 Q 523 766 505 767 Q 493 768 491 764 Q 485 757 494 743 Q 524 692 546 607 Q 552 582 568 566 Q 587 547 590 562 Q 591 568 592 575 L 589 605 Q 583 632 577 656 L 571 681 Q 564 715 561 730 Q 560 731 562 731 C 562 755 562 755 536 762 Z"/>
  <path id="z31975d8" d="M 738 589 L 739 587 Q 743 572 756 573 Q 769 574 776 588 Q 786 598 807 654 Q 823 703 859 731 Q 878 746 862 761 Q 846 777 798 803 Q 783 813 718 797 Q 628 781 536 762 C 507 756 533 722 562 731 Q 616 749 737 766 Q 759 767 767 764 Q 774 760 770 733 Q 751 640 738 614 C 732 599 732 599 738 589 Z"/>
  <path id="z31975d9" d="M 577 656 Q 578 656 581 656 Q 656 669 712 677 Q 734 681 725 693 Q 715 706 691 710 Q 658 714 571 681 C 543 670 547 655 577 656 Z"/>
  <path id="z31975d10" d="M 592 575 Q 595 575 601 576 Q 644 585 738 589 C 765 590 761 594 738 614 Q 734 618 726 623 Q 713 630 685 625 Q 633 612 589 605 C 559 600 562 573 592 575 Z"/>
  <path id="z31975d11" d="M 446 503 Q 428 502 442 487 Q 454 475 470 470 Q 488 466 501 470 Q 666 518 954 518 Q 970 519 975 526 Q 979 536 965 548 Q 920 581 888 573 Q 777 549 446 503 Z"/>
  <path id="z31975d12" d="M 474 427 Q 470 427 465 427 Q 453 430 451 424 Q 445 418 454 403 Q 485 351 506 262 Q 510 235 528 218 Q 547 199 550 214 Q 551 221 552 229 L 550 253 Q 549 262 547 272 Q 525 363 520 392 C 515 422 504 427 474 427 Z"/>
  <path id="z31975d13" d="M 753 254 Q 766 230 780 222 Q 790 215 805 232 Q 818 250 852 350 Q 862 378 884 400 Q 897 410 887 424 Q 874 440 836 467 Q 821 476 734 459 Q 724 459 600 438 Q 515 423 474 427 C 444 428 491 384 520 392 Q 560 404 615 412 L 659 418 Q 777 442 800 426 Q 810 417 806 402 Q 779 290 763 281 C 749 261 749 261 753 254 Z"/>
  <path id="z31975d14" d="M 676 331 Q 710 338 740 342 Q 761 346 753 357 Q 743 370 721 374 Q 705 375 678 369 L 629 354 Q 595 344 566 335 Q 551 332 570 319 Q 576 315 630 323 L 676 331 Z"/>
  <path id="z31975d15" d="M 673 244 Q 713 251 753 254 C 783 256 790 268 763 281 Q 730 300 674 278 L 630 269 Q 588 262 550 253 C 521 246 522 227 552 229 Q 558 229 630 238 L 673 244 Z"/>
  <path id="z31975d16" d="M 669 70 Q 669 103 670 132 L 671 176 Q 671 212 673 244 L 674 278 Q 675 306 676 331 L 678 369 Q 678 403 663 415 Q 660 418 659 418 C 637 438 601 439 615 412 Q 619 405 623 396 Q 629 381 629 354 L 630 323 Q 630 304 630 269 L 630 238 Q 630 207 629 167 L 629 125 Q 629 97 629 65 C 629 35 669 40 669 70 Z"/>
  <path id="z31975d17" d="M 670 132 Q 707 139 747 145 Q 777 149 782 154 Q 789 161 786 169 Q 780 179 754 188 Q 727 194 671 176 L 629 167 Q 586 161 537 157 Q 504 153 527 137 Q 566 112 616 124 Q 622 125 629 125 L 670 132 Z"/>
  <path id="z31975d18" d="M 629 65 Q 521 55 396 41 Q 377 40 391 23 Q 404 10 421 3 Q 442 -1 457 2 Q 589 35 890 35 Q 906 35 922 34 Q 941 34 946 42 Q 952 52 936 67 Q 878 109 831 94 Q 765 84 669 70 L 629 65 Z"/>
<defs>
  <clipPath id="z31975c1"><use href="#z31975d1"/></clipPath>
  <clipPath id="z31975c2"><use href="#z31975d2"/></clipPath>
  <clipPath id="z31975c3"><use href="#z31975d3"/></clipPath>
  <clipPath id="z31975c4"><use href="#z31975d4"/></clipPath>
  <clipPath id="z31975c5"><use href="#z31975d5"/></clipPath>
  <clipPath id="z31975c6"><use href="#z31975d6"/></clipPath>
  <clipPath id="z31975c7"><use href="#z31975d7"/></clipPath>
  <clipPath id="z31975c8"><use href="#z31975d8"/></clipPath>
  <clipPath id="z31975c9"><use href="#z31975d9"/></clipPath>
  <clipPath id="z31975c10"><use href="#z31975d10"/></clipPath>
  <clipPath id="z31975c11"><use href="#z31975d11"/></clipPath>
  <clipPath id="z31975c12"><use href="#z31975d12"/></clipPath>
  <clipPath id="z31975c13"><use href="#z31975d13"/></clipPath>
  <clipPath id="z31975c14"><use href="#z31975d14"/></clipPath>
  <clipPath id="z31975c15"><use href="#z31975d15"/></clipPath>
  <clipPath id="z31975c16"><use href="#z31975d16"/></clipPath>
  <clipPath id="z31975c17"><use href="#z31975d17"/></clipPath>
  <clipPath id="z31975c18"><use href="#z31975d18"/></clipPath>
</defs>
<path style="--d:1s;" pathLength="3333" clip-path="url(#z31975c1)" d="M 139 645 L 196 593 L 213 553"/>
<path style="--d:2s;" pathLength="3333" clip-path="url(#z31975c2)" d="M 403 695 L 425 668 L 364 582"/>
<path style="--d:3s;" pathLength="3333" clip-path="url(#z31975c3)" d="M 69 443 L 129 438 L 335 488 L 393 489"/>
<path style="--d:4s;" pathLength="3333" clip-path="url(#z31975c4)" d="M 257 836 L 283 814 L 308 781 L 298 347 L 291 184 L 279 89 L 279 -9"/>
<path style="--d:5s;" pathLength="3333" clip-path="url(#z31975c5)" d="M 274 438 L 265 431 L 252 380 L 200 306 L 128 222 L 54 153"/>
<path style="--d:6s;" pathLength="3333" clip-path="url(#z31975c6)" d="M 323 381 L 382 343 L 413 305"/>
<path style="--d:7s;" pathLength="3333" clip-path="url(#z31975c7)" d="M 500 757 L 536 720 L 579 566"/>
<path style="--d:8s;" pathLength="3333" clip-path="url(#z31975c8)" d="M 544 760 L 568 751 L 732 784 L 785 781 L 813 746 L 755 589"/>
<path style="--d:9s;" pathLength="3333" clip-path="url(#z31975c9)" d="M 579 663 L 589 673 L 641 686 L 686 692 L 716 687"/>
<path style="--d:10s;" pathLength="3333" clip-path="url(#z31975c10)" d="M 596 583 L 611 594 L 696 607 L 721 606 L 728 595"/>
<path style="--d:11s;" pathLength="3333" clip-path="url(#z31975c11)" d="M 444 495 L 491 489 L 629 515 L 897 546 L 966 531"/>
<path style="--d:12s;" pathLength="3333" clip-path="url(#z31975c12)" d="M 460 417 L 496 378 L 539 218"/>
<path style="--d:13s;" pathLength="3333" clip-path="url(#z31975c13)" d="M 491 423 L 523 411 L 748 449 L 789 450 L 824 441 L 844 413 L 808 305 L 788 263 L 787 240"/>
<path style="--d:14s;" pathLength="3333" clip-path="url(#z31975c14)" d="M 567 327 L 715 357 L 744 352"/>
<path style="--d:15s;" pathLength="3333" clip-path="url(#z31975c15)" d="M 554 235 L 564 243 L 754 277"/>
<path style="--d:16s;" pathLength="3333" clip-path="url(#z31975c16)" d="M 623 411 L 650 392 L 653 375 L 650 94 L 635 73"/>
<path style="--d:17s;" pathLength="3333" clip-path="url(#z31975c17)" d="M 529 148 L 553 141 L 591 141 L 729 166 L 774 164"/>
<path style="--d:18s;" pathLength="3333" clip-path="url(#z31975c18)" d="M 394 32 L 414 25 L 449 24 L 845 66 L 886 64 L 935 48"/>
</svg>