<svg id="z38472" class="acjk" viewBox="0 0 1024 1024" xmlns="http://www.w3.org/2000/svg">
  <path id="z38472d1" d="M 225 663 Q 267 670 310 690 Q 326 700 336 690 Q 342 684 333 667 Q 317 630 304 591 Q 291 567 305 548 Q 354 470 341 454 Q 337 444 313 445 Q 285 446 256 444 Q 231 443 260 431 Q 312 407 359 377 Q 372 365 384 377 Q 397 386 404 408 Q 416 459 359 533 Q 326 575 340 595 Q 388 671 414 689 Q 433 702 424 716 Q 411 734 372 753 Q 351 762 336 749 Q 279 706 204 693 C 175 687 196 657 225 663 Z"/>
  <path id="z38472d2" d="M 204 693 Q 165 718 146 711 Q 137 705 144 691 Q 171 600 173 589 Q 173 579 174 564 Q 193 282 153 119 Q 138 56 179 6 Q 192 -10 204 5 Q 225 36 221 160 Q 222 611 224 640 Q 225 655 225 663 C 226 681 226 681 204 693 Z"/>
  <path id="z38472d3" d="M 592 554 Q 682 573 777 590 Q 834 603 842 611 Q 852 618 847 628 Q 840 640 810 648 Q 779 655 748 643 Q 684 621 613 603 Q 610 603 609 602 L 563 593 Q 503 584 442 578 Q 405 572 431 554 Q 476 530 533 542 Q 539 543 548 545 L 592 554 Z"/>
  <path id="z38472d4" d="M 691 347 Q 758 354 805 358 Q 845 359 848 371 Q 849 384 820 403 Q 799 415 694 393 L 639 382 Q 596 376 546 368 Q 525 365 524 370 Q 523 374 530 391 Q 554 452 592 554 L 609 602 Q 646 716 675 742 Q 691 757 681 767 Q 627 815 603 810 Q 593 809 600 789 Q 612 743 563 593 L 548 545 Q 500 415 457 376 Q 436 358 452 310 Q 458 295 475 302 Q 545 329 640 340 L 691 347 Z"/>
  <path id="z38472d5" d="M 694 393 Q 697 412 703 427 Q 712 446 695 459 Q 670 481 640 490 Q 621 497 613 489 Q 607 482 618 467 Q 637 434 639 382 L 640 340 Q 644 108 625 92 Q 616 85 602 90 Q 563 99 526 107 Q 514 110 515 102 Q 516 95 527 88 Q 605 25 634 -14 Q 649 -30 664 -16 Q 697 14 697 102 Q 694 153 691 347 L 694 393 Z"/>
  <path id="z38472d6" d="M 482 248 Q 451 200 410 160 Q 386 133 395 95 Q 399 76 422 84 Q 477 111 497 186 Q 507 217 506 243 Q 502 253 497 255 Q 488 255 482 248 Z"/>
  <path id="z38472d7" d="M 762 239 Q 811 185 867 108 Q 880 86 896 79 Q 905 78 913 86 Q 926 99 919 144 Q 913 193 767 271 Q 758 277 755 264 Q 754 251 762 239 Z"/>
<defs>
  <clipPath id="z38472c1"><use href="#z38472d1"/></clipPath>
  <clipPath id="z38472c2"><use href="#z38472d2"/></clipPath>
  <clipPath id="z38472c3"><use href="#z38472d3"/></clipPath>
  <clipPath id="z38472c4"><use href="#z38472d4"/></clipPath>
  <clipPath id="z38472c5"><use href="#z38472d5"/></clipPath>
  <clipPath id="z38472c6"><use href="#z38472d6"/></clipPath>
  <clipPath id="z38472c7"><use href="#z38472d7"/></clipPath>
</defs>
<path style="--d:1s;" pathLength="3333" clip-path="url(#z38472c1)" d="M 213 692 L 223 684 L 242 683 L 328 718 L 347 720 L 358 720 L 373 707 L 366 679 L 326 605 L 317 577 L 326 547 L 365 483 L 372 455 L 368 426 L 365 421 L 343 420 L 264 439"/>
<path style="--d:2s;" pathLength="3333" clip-path="url(#z38472c2)" d="M 153 701 L 181 674 L 191 653 L 198 593 L 201 282 L 185 93 L 192 12"/>
<path style="--d:3s;" pathLength="3333" clip-path="url(#z38472c3)" d="M 434 567 L 456 561 L 507 561 L 610 579 L 776 620 L 836 622"/>
<path style="--d:4s;" pathLength="3333" clip-path="url(#z38472c4)" d="M 608 800 L 638 754 L 572 551 L 488 350 L 531 343 L 786 382 L 839 373"/>
<path style="--d:5s;" pathLength="3333" clip-path="url(#z38472c5)" d="M 622 483 L 641 469 L 668 433 L 664 92 L 652 59 L 640 48 L 522 101"/>
<path style="--d:6s;" pathLength="3333" clip-path="url(#z38472c6)" d="M 495 244 L 470 185 L 412 98"/>
<path style="--d:7s;" pathLength="3333" clip-path="url(#z38472c7)" d="M 766 259 L 873 158 L 890 130 L 898 94"/>
</svg>