<svg id="z35686" class="acjk" viewBox="0 0 1024 1024" xmlns="http://www.w3.org/2000/svg">
  <path id="z35686d1" d="M 445 722 Q 479 726 518 729 Q 531 730 532 736 Q 533 746 520 755 Q 490 768 460 759 L 416 751 Q 365 744 329 737 L 293 732 Q 178 720 153 719 Q 143 718 140 712 Q 137 705 148 694 Q 178 670 213 678 Q 259 691 299 699 L 330 706 Q 348 712 409 718 L 445 722 Z"/>
  <path id="z35686d2" d="M 329 737 Q 329 762 329 781 Q 330 796 316 801 Q 283 819 269 812 Q 254 806 265 791 Q 277 776 293 732 L 299 699 Q 299 698 300 697 Q 304 681 314 669 Q 324 660 327 670 Q 330 677 330 706 L 329 737 Z"/>
  <path id="z35686d3" d="M 460 759 Q 466 775 478 794 Q 488 806 480 813 Q 471 826 444 839 Q 432 846 419 839 Q 412 835 417 826 Q 426 808 416 751 L 409 718 Q 397 675 399 665 Q 400 655 412 663 Q 421 672 445 722 L 460 759 Z"/>
  <path id="z35686d4" d="M 273 614 Q 276 618 280 620 Q 290 630 304 638 Q 317 645 310 655 Q 301 665 284 673 Q 269 680 261 678 Q 254 677 257 668 Q 260 653 193 561 Q 187 551 198 553 Q 232 578 251 595 Q 254 599 257 601 L 273 614 Z"/>
  <path id="z35686d5" d="M 257 601 Q 281 589 292 592 Q 415 622 423 603 Q 423 597 425 585 Q 426 491 408 465 Q 402 459 347 458 Q 329 461 344 447 Q 372 419 387 397 Q 393 384 405 389 Q 414 390 425 402 Q 456 435 472 560 Q 475 588 486 604 Q 496 619 491 625 Q 481 638 457 649 Q 441 658 423 649 Q 354 621 273 614 C 243 611 236 610 257 601 Z"/>
  <path id="z35686d6" d="M 203 536 Q 194 540 173 543 Q 164 546 162 542 Q 158 538 164 525 Q 182 492 195 436 Q 198 420 208 408 Q 221 392 225 404 Q 229 414 226 435 L 221 461 Q 215 504 214 517 C 213 532 213 532 203 536 Z"/>
  <path id="z35686d7" d="M 315 476 Q 327 512 339 523 Q 354 539 338 549 Q 325 556 307 568 Q 295 574 283 567 Q 267 555 244 548 Q 226 542 203 536 C 174 528 185 509 214 517 Q 214 518 217 518 Q 245 525 268 532 Q 284 536 289 530 Q 292 527 289 510 Q 286 497 282 480 C 275 451 305 448 315 476 Z"/>
  <path id="z35686d8" d="M 226 435 Q 232 442 325 453 Q 332 454 333 461 Q 333 467 315 476 L 282 480 Q 278 480 275 478 Q 245 468 221 461 C 192 453 200 419 226 435 Z"/>
  <path id="z35686d9" d="M 615 705 Q 627 724 640 747 Q 652 771 662 782 Q 669 791 664 801 Q 660 811 636 827 Q 614 840 599 838 Q 584 835 592 818 Q 608 793 565 700 Q 544 657 515 609 Q 508 600 506 595 Q 505 586 516 589 Q 522 592 536 605 L 551 620 Q 572 644 601 683 L 615 705 Z"/>
  <path id="z35686d10" d="M 720 689 Q 726 692 829 706 Q 841 707 842 714 Q 842 724 822 737 Q 789 761 741 736 Q 729 733 615 705 C 586 698 572 691 601 683 Q 614 677 683 683 Q 686 684 691 684 L 720 689 Z"/>
  <path id="z35686d11" d="M 680 533 Q 692 548 730 610 Q 737 626 749 638 Q 759 650 750 660 Q 731 685 720 689 C 695 705 686 710 691 684 Q 690 684 691 683 Q 704 637 647 558 L 626 533 Q 619 529 614 522 Q 581 497 520 475 Q 508 471 517 466 Q 581 450 653 506 L 680 533 Z"/>
  <path id="z35686d12" d="M 653 506 Q 737 424 780 423 Q 837 427 885 438 Q 912 444 909 451 Q 908 455 882 462 Q 768 483 691 527 Q 685 530 680 533 L 647 558 Q 623 576 601 595 Q 574 619 551 620 C 521 625 510 620 536 605 Q 537 604 541 602 Q 574 584 626 533 L 653 506 Z"/>
  <path id="z35686d13" d="M 558 370 Q 561 380 558 399 Q 555 414 534 426 Q 486 450 472 446 Q 468 445 468 434 Q 468 431 523 367 L 523 366 C 538 340 551 341 558 370 Z"/>
  <path id="z35686d14" d="M 523 366 Q 514 366 506 364 Q 344 345 153 323 Q 131 322 147 303 Q 162 288 180 283 Q 202 277 219 281 Q 448 342 827 343 Q 851 343 873 342 Q 894 342 899 351 Q 905 363 888 377 Q 834 419 795 410 Q 704 392 558 370 L 523 366 Z"/>
  <path id="z35686d15" d="M 399 264 Q 371 260 390 247 Q 417 232 481 240 Q 538 249 598 260 Q 629 267 634 271 Q 641 277 638 283 Q 634 292 611 298 Q 589 304 566 295 Q 530 285 492 275 Q 449 268 399 264 Z"/>
  <path id="z35686d16" d="M 415 184 Q 387 180 406 167 Q 433 151 495 160 Q 544 169 598 178 Q 626 182 630 187 Q 637 193 634 199 Q 630 208 607 214 Q 585 218 562 211 Q 531 201 496 194 Q 459 187 415 184 Z"/>
  <path id="z35686d17" d="M 377 104 Q 364 110 341 111 Q 329 114 327 109 Q 321 102 330 88 Q 355 45 374 -30 Q 378 -52 392 -66 Q 410 -85 414 -71 Q 418 -59 416 -41 L 410 -11 Q 398 52 395 75 C 392 98 392 98 377 104 Z"/>
  <path id="z35686d18" d="M 665 14 Q 690 65 717 79 Q 733 95 722 113 Q 707 126 660 153 Q 644 162 623 155 Q 532 122 377 104 C 347 100 365 70 395 75 L 598 111 Q 622 115 632 105 Q 639 96 613 19 C 604 -9 651 -13 665 14 Z"/>
  <path id="z35686d19" d="M 416 -41 Q 417 -41 419 -42 Q 429 -45 443 -43 Q 518 -30 678 -22 Q 688 -21 691 -12 Q 691 -5 665 14 C 649 26 642 25 613 19 Q 501 -3 412 -10 Q 411 -10 410 -11 C 380 -16 387 -33 416 -41 Z"/>
<defs>
  <clipPath id="z35686c1"><use href="#z35686d1"/></clipPath>
  <clipPath id="z35686c2"><use href="#z35686d2"/></clipPath>
  <clipPath id="z35686c3"><use href="#z35686d3"/></clipPath>
  <clipPath id="z35686c4"><use href="#z35686d4"/></clipPath>
  <clipPath id="z35686c5"><use href="#z35686d5"/></clipPath>
  <clipPath id="z35686c6"><use href="#z35686d6"/></clipPath>
  <clipPath id="z35686c7"><use href="#z35686d7"/></clipPath>
  <clipPath id="z35686c8"><use href="#z35686d8"/></clipPath>
  <clipPath id="z35686c9"><use href="#z35686d9"/></clipPath>
  <clipPath id="z35686c10"><use href="#z35686d10"/></clipPath>
  <clipPath id="z35686c11"><use href="#z35686d11"/></clipPath>
  <clipPath id="z35686c12"><use href="#z35686d12"/></clipPath>
  <clipPath id="z35686c13"><use href="#z35686d13"/></clipPath>
  <clipPath id="z35686c14"><use href="#z35686d14"/></clipPath>
  <clipPath id="z35686c15"><use href="#z35686d15"/></clipPath>
  <clipPath id="z35686c16"><use href="#z35686d16"/></clipPath>
  <clipPath id="z35686c17"><use href="#z35686d17"/></clipPath>
  <clipPath id="z35686c18"><use href="#z35686d18"/></clipPath>
  <clipPath id="z35686c19"><use href="#z35686d19"/></clipPath>
</defs>
<path style="--d:1s;" pathLength="3333" clip-path="url(#z35686c1)" d="M 150 709 L 194 699 L 471 744 L 522 739"/>
<path style="--d:2s;" pathLength="3333" clip-path="url(#z35686c2)" d="M 272 801 L 303 778 L 320 675"/>
<path style="--d:3s;" pathLength="3333" clip-path="url(#z35686c3)" d="M 428 831 L 450 802 L 427 719 L 406 669"/>
<path style="--d:4s;" pathLength="3333" clip-path="url(#z35686c4)" d="M 302 648 L 278 650 L 212 573 L 201 572 L 202 561"/>
<path style="--d:5s;" pathLength="3333" clip-path="url(#z35686c5)" d="M 265 599 L 282 605 L 303 602 L 314 610 L 407 627 L 437 627 L 454 613 L 441 494 L 427 452 L 406 430 L 357 449"/>
<path style="--d:6s;" pathLength="3333" clip-path="url(#z35686c6)" d="M 168 537 L 194 511 L 217 408"/>
<path style="--d:7s;" pathLength="3333" clip-path="url(#z35686c7)" d="M 211 534 L 222 529 L 286 550 L 302 547 L 312 538 L 312 521 L 303 495 L 288 487"/>
<path style="--d:8s;" pathLength="3333" clip-path="url(#z35686c8)" d="M 231 445 L 236 452 L 272 462 L 325 461"/>
<path style="--d:9s;" pathLength="3333" clip-path="url(#z35686c9)" d="M 600 826 L 626 799 L 620 767 L 558 652 L 513 595"/>
<path style="--d:10s;" pathLength="3333" clip-path="url(#z35686c10)" d="M 606 688 L 781 724 L 832 716"/>
<path style="--d:11s;" pathLength="3333" clip-path="url(#z35686c11)" d="M 699 684 L 721 651 L 706 612 L 666 549 L 635 515 L 606 495 L 553 474 L 530 474 L 525 468"/>
<path style="--d:12s;" pathLength="3333" clip-path="url(#z35686c12)" d="M 541 608 L 555 608 L 586 590 L 692 499 L 752 465 L 801 452 L 903 450"/>
<path style="--d:13s;" pathLength="3333" clip-path="url(#z35686c13)" d="M 476 438 L 551 377"/>
<path style="--d:14s;" pathLength="3333" clip-path="url(#z35686c14)" d="M 150 313 L 202 304 L 429 339 L 805 377 L 827 376 L 887 357"/>
<path style="--d:15s;" pathLength="3333" clip-path="url(#z35686c15)" d="M 393 257 L 451 252 L 579 278 L 627 280"/>
<path style="--d:16s;" pathLength="3333" clip-path="url(#z35686c16)" d="M 409 177 L 466 172 L 586 196 L 623 196"/>
<path style="--d:17s;" pathLength="3333" clip-path="url(#z35686c17)" d="M 335 102 L 357 87 L 370 66 L 404 -65"/>
<path style="--d:18s;" pathLength="3333" clip-path="url(#z35686c18)" d="M 387 103 L 403 92 L 416 93 L 598 129 L 645 130 L 667 109 L 672 94 L 648 42 L 621 30"/>
<path style="--d:19s;" pathLength="3333" clip-path="url(#z35686c19)" d="M 415 -18 L 431 -26 L 445 -25 L 617 -3 L 657 -4 L 683 -12"/>
</svg>