<svg id="z31498" class="acjk" viewBox="0 0 1024 1024" xmlns="http://www.w3.org/2000/svg">
  <path id="z31498d1" d="M 326 708 Q 339 733 355 755 Q 364 767 350 780 Q 311 807 286 805 Q 276 802 279 789 Q 292 701 206 596 Q 197 592 168 551 Q 161 538 175 542 Q 191 545 212 562 Q 275 614 310 679 L 326 708 Z"/>
  <path id="z31498d2" d="M 310 679 Q 343 670 439 691 Q 455 695 473 698 Q 492 702 496 706 Q 503 713 499 721 Q 492 731 465 737 Q 437 741 368 717 Q 347 713 326 708 C 297 701 281 685 310 679 Z"/>
  <path id="z31498d3" d="M 342 587 Q 363 569 384 547 Q 396 537 408 537 Q 417 538 421 549 Q 425 561 418 585 Q 414 601 389 611 Q 334 632 320 627 Q 316 623 317 613 Q 320 603 342 587 Z"/>
  <path id="z31498d4" d="M 599 726 Q 615 760 633 788 Q 640 801 627 813 Q 582 840 562 834 Q 552 831 555 818 Q 571 743 499 635 Q 487 625 468 591 Q 462 576 475 582 Q 490 586 508 603 Q 559 649 588 704 L 599 726 Z"/>
  <path id="z31498d5" d="M 588 704 Q 618 689 690 702 Q 736 714 786 724 Q 811 731 816 734 Q 823 741 819 749 Q 812 759 785 766 Q 757 770 731 758 Q 703 748 671 739 Q 637 732 599 726 C 569 721 560 716 588 704 Z"/>
  <path id="z31498d6" d="M 644 600 Q 681 575 720 544 Q 733 534 748 535 Q 758 536 761 548 Q 764 561 754 588 Q 747 610 711 625 Q 627 649 616 643 Q 612 639 614 627 Q 618 617 644 600 Z"/>
  <path id="z31498d7" d="M 495 466 Q 585 502 634 507 Q 650 507 655 514 Q 659 524 648 536 Q 591 584 558 581 Q 551 577 549 567 Q 543 528 352 451 C 324 440 334 427 363 433 Q 391 439 436 451 Q 446 454 456 455 L 495 466 Z"/>
  <path id="z31498d8" d="M 352 451 Q 351 452 349 453 Q 303 481 287 481 Q 266 480 280 455 Q 307 401 268 229 Q 256 193 236 153 Q 209 99 138 43 Q 123 31 119 25 Q 116 18 128 18 Q 161 15 228 69 Q 295 132 332 276 Q 342 327 352 390 Q 362 426 363 433 C 365 443 365 443 352 451 Z"/>
  <path id="z31498d9" d="M 518 429 Q 518 430 519 431 Q 522 444 515 450 Q 505 460 495 466 C 471 484 449 484 456 455 Q 475 400 452 146 Q 451 136 449 125 Q 448 100 444 87 Q 429 45 481 -21 Q 484 -24 488 -27 Q 500 -28 505 -14 Q 518 17 514 49 Q 508 319 516 412 L 518 429 Z"/>
  <path id="z31498d10" d="M 516 412 Q 547 390 566 354 Q 656 197 732 87 Q 745 65 772 63 Q 866 60 903 63 Q 919 63 926 70 Q 930 77 921 82 Q 768 164 712 226 Q 649 293 570 408 Q 551 441 518 429 C 499 426 499 426 516 412 Z"/>
<defs>
  <clipPath id="z31498c1"><use href="#z31498d1"/></clipPath>
  <clipPath id="z31498c2"><use href="#z31498d2"/></clipPath>
  <clipPath id="z31498c3"><use href="#z31498d3"/></clipPath>
  <clipPath id="z31498c4"><use href="#z31498d4"/></clipPath>
  <clipPath id="z31498c5"><use href="#z31498d5"/></clipPath>
  <clipPath id="z31498c6"><use href="#z31498d6"/></clipPath>
  <clipPath id="z31498c7"><use href="#z31498d7"/></clipPath>
  <clipPath id="z31498c8"><use href="#z31498d8"/></clipPath>
  <clipPath id="z31498c9"><use href="#z31498d9"/></clipPath>
  <clipPath id="z31498c10"><use href="#z31498d10"/></clipPath>
</defs>
<path style="--d:1s;" pathLength="3333" clip-path="url(#z31498c1)" d="M 289 794 L 316 760 L 287 684 L 231 600 L 178 552"/>
<path style="--d:2s;" pathLength="3333" clip-path="url(#z31498c2)" d="M 315 683 L 338 694 L 443 715 L 488 715"/>
<path style="--d:3s;" pathLength="3333" clip-path="url(#z31498c3)" d="M 325 619 L 392 578 L 406 553"/>
<path style="--d:4s;" pathLength="3333" clip-path="url(#z31498c4)" d="M 565 823 L 593 788 L 579 744 L 539 663 L 477 591"/>
<path style="--d:5s;" pathLength="3333" clip-path="url(#z31498c5)" d="M 595 707 L 677 719 L 766 744 L 808 743"/>
<path style="--d:6s;" pathLength="3333" clip-path="url(#z31498c6)" d="M 620 638 L 634 626 L 716 587 L 746 550"/>
<path style="--d:7s;" pathLength="3333" clip-path="url(#z31498c7)" d="M 646 519 L 579 536 L 483 485 L 370 449 L 367 442"/>
<path style="--d:8s;" pathLength="3333" clip-path="url(#z31498c8)" d="M 287 467 L 303 456 L 325 426 L 312 314 L 291 221 L 253 137 L 218 88 L 180 55 L 126 25"/>
<path style="--d:9s;" pathLength="3333" clip-path="url(#z31498c9)" d="M 463 454 L 490 433 L 477 68 L 491 -17"/>
<path style="--d:10s;" pathLength="3333" clip-path="url(#z31498c10)" d="M 527 424 L 563 392 L 671 230 L 774 112 L 918 74"/>
</svg>