<svg id="z35099" class="acjk" viewBox="0 0 1024 1024" xmlns="http://www.w3.org/2000/svg">
  <path id="z35099d1" d="M 300 746 Q 328 725 357 699 Q 373 687 389 689 Q 401 690 405 704 Q 409 720 397 751 Q 390 770 357 782 Q 281 803 268 795 Q 262 791 265 777 Q 269 767 300 746 Z"/>
  <path id="z35099d2" d="M 262 376 Q 290 415 322 461 Q 356 512 400 544 Q 415 556 403 571 Q 384 586 355 596 Q 333 605 316 593 Q 232 532 86 525 Q 74 526 72 519 Q 69 509 83 499 Q 120 474 137 477 Q 158 481 177 490 Q 225 509 280 533 Q 298 540 302 533 Q 306 524 295 503 Q 219 361 60 215 Q 45 205 48 201 Q 51 198 64 203 Q 139 239 237 346 L 262 376 Z"/>
  <path id="z35099d3" d="M 237 346 Q 268 315 241 133 Q 219 40 255 3 Q 271 -12 282 13 Q 295 50 295 91 Q 296 263 302 302 Q 309 327 300 336 Q 272 369 262 376 C 239 396 220 371 237 346 Z"/>
  <path id="z35099d4" d="M 360 377 Q 397 410 417 423 Q 427 427 425 434 Q 419 443 406 453 Q 393 463 379 462 Q 370 461 372 449 Q 375 440 344 383 C 330 357 338 357 360 377 Z"/>
  <path id="z35099d5" d="M 344 383 Q 320 398 308 394 Q 304 393 305 384 Q 305 383 381 306 Q 388 297 399 297 Q 406 296 410 305 Q 414 314 409 333 Q 403 358 360 377 L 344 383 Z"/>
  <path id="z35099d6" d="M 488 673 Q 506 655 524 634 Q 534 622 548 622 Q 557 622 561 633 Q 565 645 560 669 Q 553 693 486 713 Q 473 717 468 715 Q 464 712 464 701 Q 467 691 488 673 Z"/>
  <path id="z35099d7" d="M 725 728 Q 707 703 672 664 Q 666 657 671 651 Q 678 650 685 653 Q 755 690 789 704 Q 805 707 802 717 Q 798 732 782 750 Q 766 766 746 771 Q 733 771 733 754 Q 734 741 725 728 Z"/>
  <path id="z35099d8" d="M 643 562 Q 695 574 813 586 Q 823 585 833 598 Q 834 610 811 620 Q 781 641 697 617 Q 663 611 640 603 L 603 596 Q 545 587 448 577 Q 420 573 442 556 Q 469 531 516 539 Q 541 545 573 549 L 643 562 Z"/>
  <path id="z35099d9" d="M 640 603 Q 643 724 668 775 Q 674 785 662 798 Q 640 814 612 826 Q 596 833 581 828 Q 568 824 574 809 Q 602 764 601 693 Q 602 641 603 596 L 602 508 Q 601 444 593 414 Q 592 399 598 383 Q 604 374 609 362 Q 619 347 633 356 Q 642 363 643 422 Q 640 494 639 532 L 640 603 Z"/>
  <path id="z35099d10" d="M 573 549 Q 519 461 443 398 Q 436 394 429 387 Q 414 375 428 374 Q 485 370 575 473 Q 576 476 579 477 Q 592 493 602 508 C 639 562 595 585 573 549 Z"/>
  <path id="z35099d11" d="M 639 532 Q 691 466 750 403 Q 768 384 800 382 Q 858 378 919 388 Q 935 389 936 393 Q 939 399 926 404 Q 776 461 704 511 Q 673 536 643 562 C 620 582 613 564 639 532 Z"/>
  <path id="z35099d12" d="M 636 85 Q 694 49 779 -21 Q 804 -42 821 -41 Q 842 -41 842 -21 Q 843 -2 814 45 Q 799 72 663 126 L 616 144 Q 580 157 553 165 Q 531 169 542 191 Q 558 225 568 249 L 586 288 Q 593 309 603 322 Q 613 329 609 339 Q 603 352 564 378 Q 554 387 543 382 Q 530 379 538 363 Q 547 342 532 282 L 519 242 Q 507 209 494 188 Q 485 170 488 158 Q 491 148 508 145 Q 548 135 591 110 L 636 85 Z"/>
  <path id="z35099d13" d="M 591 110 Q 531 47 388 9 Q 370 0 391 -2 Q 548 -20 636 85 L 663 126 Q 687 163 701 207 Q 711 244 720 259 C 733 286 733 290 706 304 Q 673 323 649 318 Q 636 314 642 299 Q 643 298 644 295 L 651 256 Q 652 231 638 196 Q 629 168 616 144 L 591 110 Z"/>
  <path id="z35099d14" d="M 720 259 Q 775 260 842 259 Q 863 258 882 258 Q 901 257 906 266 Q 912 276 896 291 Q 839 331 786 318 Q 750 314 706 304 L 644 295 Q 617 295 586 288 L 532 282 Q 456 275 372 265 Q 353 264 367 247 Q 380 234 397 227 Q 418 223 433 226 Q 473 236 519 242 L 568 249 Q 605 253 651 256 L 720 259 Z"/>
<defs>
  <clipPath id="z35099c1"><use href="#z35099d1"/></clipPath>
  <clipPath id="z35099c2"><use href="#z35099d2"/></clipPath>
  <clipPath id="z35099c3"><use href="#z35099d3"/></clipPath>
  <clipPath id="z35099c4"><use href="#z35099d4"/></clipPath>
  <clipPath id="z35099c5"><use href="#z35099d5"/></clipPath>
  <clipPath id="z35099c6"><use href="#z35099d6"/></clipPath>
  <clipPath id="z35099c7"><use href="#z35099d7"/></clipPath>
  <clipPath id="z35099c8"><use href="#z35099d8"/></clipPath>
  <clipPath id="z35099c9"><use href="#z35099d9"/></clipPath>
  <clipPath id="z35099c10"><use href="#z35099d10"/></clipPath>
  <clipPath id="z35099c11"><use href="#z35099d11"/></clipPath>
  <clipPath id="z35099c12"><use href="#z35099d12"/></clipPath>
  <clipPath id="z35099c13"><use href="#z35099d13"/></clipPath>
  <clipPath id="z35099c14"><use href="#z35099d14"/></clipPath>
</defs>
<path style="--d:1s;" pathLength="3333" clip-path="url(#z35099c1)" d="M 274 787 L 359 743 L 387 707"/>
<path style="--d:2s;" pathLength="3333" clip-path="url(#z35099c2)" d="M 82 515 L 133 503 L 190 517 L 296 557 L 332 558 L 342 553 L 317 493 L 235 373 L 136 267 L 51 203"/>
<path style="--d:3s;" pathLength="3333" clip-path="url(#z35099c3)" d="M 261 368 L 277 320 L 262 46 L 267 13"/>
<path style="--d:4s;" pathLength="3333" clip-path="url(#z35099c4)" d="M 415 433 L 393 434 L 360 391 L 352 392"/>
<path style="--d:5s;" pathLength="3333" clip-path="url(#z35099c5)" d="M 311 388 L 379 340 L 397 311"/>
<path style="--d:6s;" pathLength="3333" clip-path="url(#z35099c6)" d="M 472 706 L 535 661 L 547 636"/>
<path style="--d:7s;" pathLength="3333" clip-path="url(#z35099c7)" d="M 746 757 L 760 726 L 677 657"/>
<path style="--d:8s;" pathLength="3333" clip-path="url(#z35099c8)" d="M 443 567 L 467 560 L 505 560 L 731 602 L 791 606 L 822 600"/>
<path style="--d:9s;" pathLength="3333" clip-path="url(#z35099c9)" d="M 584 816 L 608 800 L 628 772 L 618 408 L 624 366"/>
<path style="--d:10s;" pathLength="3333" clip-path="url(#z35099c10)" d="M 596 547 L 566 496 L 526 449 L 479 406 L 433 380"/>
<path style="--d:11s;" pathLength="3333" clip-path="url(#z35099c11)" d="M 643 554 L 654 534 L 698 491 L 779 426 L 850 406 L 930 397"/>
<path style="--d:12s;" pathLength="3333" clip-path="url(#z35099c12)" d="M 545 371 L 562 356 L 573 333 L 514 170 L 706 76 L 778 29 L 824 -23"/>
<path style="--d:13s;" pathLength="3333" clip-path="url(#z35099c13)" d="M 652 306 L 674 289 L 684 256 L 658 170 L 612 95 L 559 51 L 510 27 L 452 11 L 399 6"/>
<path style="--d:14s;" pathLength="3333" clip-path="url(#z35099c14)" d="M 370 256 L 417 247 L 611 273 L 798 290 L 850 286 L 895 272"/>
</svg>