<svg id="z35824" class="acjk" viewBox="0 0 1024 1024" xmlns="http://www.w3.org/2000/svg">
  <path id="z35824d1" d="M 265 728 Q 302 698 341 662 Q 356 649 372 650 Q 384 650 389 664 Q 393 680 384 711 Q 372 750 259 779 Q 243 782 236 779 Q 230 775 232 761 Q 236 751 265 728 Z"/>
  <path id="z35824d2" d="M 149 479 Q 97 463 70 461 Q 54 461 52 453 Q 48 446 60 437 Q 82 422 99 420 Q 118 414 222 467 Q 250 480 259 473 Q 268 467 260 362 Q 257 250 226 149 Q 208 119 252 65 Q 262 52 273 59 Q 280 66 293 90 Q 333 142 420 231 Q 433 243 430 250 Q 429 259 417 249 Q 375 222 333 192 Q 285 153 295 211 Q 294 275 318 431 Q 322 456 346 480 Q 359 490 349 503 Q 337 519 298 538 Q 285 544 268 533 Q 192 493 149 479 Z"/>
  <path id="z35824d3" d="M 530 566 Q 539 590 574 653 Q 581 666 567 677 Q 522 704 501 697 Q 491 693 495 681 Q 514 612 440 489 Q 430 479 408 443 Q 402 428 415 434 Q 460 447 518 543 L 530 566 Z"/>
  <path id="z35824d4" d="M 690 551 Q 828 585 836 591 Q 845 600 840 608 Q 831 620 802 626 Q 781 630 693 601 L 643 587 Q 589 574 530 566 C 500 562 490 554 518 543 Q 534 536 558 530 Q 586 526 619 535 Q 629 538 643 540 L 690 551 Z"/>
  <path id="z35824d5" d="M 682 415 Q 686 485 690 551 L 693 601 Q 694 697 715 782 Q 719 792 698 808 Q 662 827 638 831 Q 622 835 614 826 Q 607 819 615 803 Q 639 769 639 745 Q 643 669 643 587 L 643 540 Q 642 476 639 407 C 638 377 680 385 682 415 Z"/>
  <path id="z35824d6" d="M 639 407 Q 527 388 399 366 Q 380 363 395 347 Q 408 334 426 330 Q 447 326 462 331 Q 666 397 934 396 Q 935 396 937 396 Q 956 397 961 406 Q 965 418 949 430 Q 894 467 832 449 Q 771 436 682 415 L 639 407 Z"/>
  <path id="z35824d7" d="M 538 260 Q 526 267 493 273 Q 480 277 477 271 Q 470 265 479 249 Q 509 180 523 68 Q 526 35 544 12 Q 562 -10 567 5 Q 574 24 571 61 L 565 97 Q 550 193 547 227 C 544 257 544 257 538 260 Z"/>
  <path id="z35824d8" d="M 812 126 Q 833 214 866 239 Q 884 261 866 280 Q 778 341 725 307 Q 647 279 538 260 C 508 255 517 222 547 227 Q 650 245 755 262 Q 756 261 758 259 Q 774 246 756 134 C 751 104 805 97 812 126 Z"/>
  <path id="z35824d9" d="M 571 61 Q 578 61 586 63 Q 661 79 823 92 Q 833 93 835 102 Q 835 109 812 126 L 756 134 Q 755 134 754 134 Q 649 109 565 97 C 535 93 541 59 571 61 Z"/>
<defs>
  <clipPath id="z35824c1"><use href="#z35824d1"/></clipPath>
  <clipPath id="z35824c2"><use href="#z35824d2"/></clipPath>
  <clipPath id="z35824c3"><use href="#z35824d3"/></clipPath>
  <clipPath id="z35824c4"><use href="#z35824d4"/></clipPath>
  <clipPath id="z35824c5"><use href="#z35824d5"/></clipPath>
  <clipPath id="z35824c6"><use href="#z35824d6"/></clipPath>
  <clipPath id="z35824c7"><use href="#z35824d7"/></clipPath>
  <clipPath id="z35824c8"><use href="#z35824d8"/></clipPath>
  <clipPath id="z35824c9"><use href="#z35824d9"/></clipPath>
</defs>
<path style="--d:1s;" pathLength="3333" clip-path="url(#z35824c1)" d="M 242 771 L 346 706 L 372 668"/>
<path style="--d:2s;" pathLength="3333" clip-path="url(#z35824c2)" d="M 62 449 L 88 443 L 120 446 L 254 500 L 289 499 L 299 490 L 265 178 L 273 141 L 311 151 L 424 247"/>
<path style="--d:3s;" pathLength="3333" clip-path="url(#z35824c3)" d="M 505 686 L 534 653 L 522 612 L 475 511 L 448 473 L 417 443"/>
<path style="--d:4s;" pathLength="3333" clip-path="url(#z35824c4)" d="M 526 546 L 592 552 L 769 598 L 829 602"/>
<path style="--d:5s;" pathLength="3333" clip-path="url(#z35824c5)" d="M 626 817 L 664 787 L 674 768 L 662 439 L 645 414"/>
<path style="--d:6s;" pathLength="3333" clip-path="url(#z35824c6)" d="M 398 356 L 452 352 L 620 388 L 846 424 L 905 423 L 950 411"/>
<path style="--d:7s;" pathLength="3333" clip-path="url(#z35824c7)" d="M 486 263 L 513 240 L 520 220 L 556 11"/>
<path style="--d:8s;" pathLength="3333" clip-path="url(#z35824c8)" d="M 547 257 L 559 246 L 752 290 L 781 284 L 813 255 L 790 159 L 765 146"/>
<path style="--d:9s;" pathLength="3333" clip-path="url(#z35824c9)" d="M 572 92 L 585 82 L 755 110 L 802 109 L 825 101"/>
</svg>