<svg id="z36271" class="acjk" viewBox="0 0 1024 1024" xmlns="http://www.w3.org/2000/svg">
  <path id="z36271d1" d="M 338 547 Q 366 556 401 563 Q 432 572 436 576 Q 443 583 439 590 Q 432 600 407 605 Q 383 609 341 592 L 295 577 Q 238 564 194 556 Q 163 550 186 536 Q 216 520 281 534 Q 287 535 295 537 L 338 547 Z"/>
  <path id="z36271d2" d="M 332 441 Q 335 496 338 547 L 341 592 Q 342 685 361 762 Q 364 772 345 786 Q 311 804 289 807 Q 273 810 266 802 Q 259 795 267 781 Q 288 751 289 730 Q 293 657 295 577 L 295 537 Q 294 488 293 432 C 292 402 330 411 332 441 Z"/>
  <path id="z36271d3" d="M 323 402 Q 389 417 470 428 Q 485 431 486 438 Q 487 450 470 458 Q 445 468 423 464 Q 371 452 332 441 L 293 432 Q 157 404 76 393 Q 64 392 61 384 Q 58 374 73 363 Q 109 338 149 351 Q 227 378 282 392 L 323 402 Z"/>
  <path id="z36271d4" d="M 329 171 Q 332 226 335 273 L 337 301 Q 338 323 340 342 Q 344 388 324 401 L 323 402 C 300 422 276 421 282 392 Q 288 377 288 193 C 288 163 327 141 329 171 Z"/>
  <path id="z36271d5" d="M 335 273 Q 336 273 340 273 Q 398 283 440 288 Q 462 292 453 305 Q 443 318 419 321 Q 382 324 337 301 C 310 288 305 273 335 273 Z"/>
  <path id="z36271d6" d="M 218 233 Q 230 252 242 269 Q 252 281 238 295 Q 201 326 173 323 Q 163 320 164 306 Q 176 224 84 112 Q 77 109 45 68 Q 38 53 52 58 Q 100 62 180 170 Q 186 183 204 211 L 218 233 Z"/>
  <path id="z36271d7" d="M 550 74 Q 454 107 329 171 L 288 193 Q 254 212 218 233 C 192 248 179 228 204 211 Q 250 180 289 156 L 289 155 Q 295 154 300 150 Q 438 63 690 -43 Q 727 -61 774 -45 Q 853 -18 938 14 Q 963 24 968 35 Q 972 45 956 43 Q 854 44 793 38 Q 690 34 570 68 L 550 74 Z"/>
  <path id="z36271d8" d="M 630 609 Q 624 564 629 553 Q 633 543 642 545 Q 651 548 655 559 Q 665 581 671 679 Q 678 716 700 741 Q 712 754 699 763 Q 686 773 648 787 Q 639 791 539 762 Q 511 753 494 750 Q 484 749 482 745 Q 479 742 491 735 Q 509 726 535 734 Q 605 759 628 752 Q 638 748 637 717 Q 634 656 631 619 L 630 609 Z"/>
  <path id="z36271d9" d="M 534 690 Q 583 644 600 645 Q 609 645 611 657 Q 611 666 604 678 Q 586 702 536 708 Q 529 708 530 701 Q 529 695 534 690 Z"/>
  <path id="z36271d10" d="M 631 619 Q 630 620 625 619 Q 520 591 499 592 Q 492 591 490 584 Q 489 577 495 571 Q 508 561 529 550 Q 536 549 543 553 Q 585 580 630 609 C 645 618 645 618 631 619 Z"/>
  <path id="z36271d11" d="M 835 642 Q 826 582 831 571 Q 837 559 847 561 Q 857 564 862 577 Q 872 598 881 694 Q 890 736 916 761 Q 929 774 916 786 Q 901 798 860 815 Q 848 821 816 809 Q 780 800 743 790 Q 733 789 730 786 Q 729 782 739 775 Q 755 768 788 773 Q 830 782 833 780 Q 843 776 842 743 Q 839 689 836 654 L 835 642 Z"/>
  <path id="z36271d12" d="M 745 720 Q 782 675 799 674 Q 808 673 812 686 Q 813 695 807 709 Q 789 733 748 739 Q 742 740 741 732 Q 740 726 745 720 Z"/>
  <path id="z36271d13" d="M 836 654 Q 835 655 833 654 Q 728 621 710 622 Q 703 621 702 615 Q 701 608 706 602 Q 719 595 739 584 Q 745 583 752 587 Q 761 596 822 633 Q 829 637 835 642 C 852 656 852 656 836 654 Z"/>
  <path id="z36271d14" d="M 562 432 Q 602 477 629 500 Q 636 510 635 517 Q 634 527 612 534 Q 590 541 580 540 Q 574 539 572 528 Q 560 468 428 362 Q 412 350 433 353 Q 472 357 527 403 Q 530 406 535 409 L 562 432 Z"/>
  <path id="z36271d15" d="M 587 158 Q 586 333 591 372 Q 597 396 564 430 L 562 432 C 541 454 522 436 535 409 Q 535 408 537 405 Q 567 348 540 180 Q 519 117 550 74 C 562 55 562 55 570 68 Q 586 86 587 138 L 587 158 Z"/>
  <path id="z36271d16" d="M 698 500 Q 717 487 737 469 Q 747 460 759 461 Q 766 462 769 472 Q 772 484 764 504 Q 760 517 737 526 Q 680 538 676 534 Q 672 531 674 522 Q 677 515 698 500 Z"/>
  <path id="z36271d17" d="M 744 414 Q 786 424 831 432 Q 862 439 867 443 Q 874 449 870 455 Q 866 464 843 470 Q 831 473 738 449 Q 672 437 630 432 Q 603 428 622 415 Q 652 397 695 406 Q 696 407 703 407 L 744 414 Z"/>
  <path id="z36271d18" d="M 758 331 Q 783 338 811 343 Q 836 349 839 352 Q 846 358 842 364 Q 838 371 817 377 Q 796 381 760 367 L 710 352 Q 679 346 645 342 Q 620 338 638 326 Q 665 311 706 320 Q 707 321 711 320 L 758 331 Z"/>
  <path id="z36271d19" d="M 755 249 Q 783 256 815 260 Q 839 264 843 268 Q 849 274 846 280 Q 842 287 821 294 Q 794 300 756 283 L 711 272 Q 683 268 650 266 Q 625 262 642 250 Q 666 235 712 241 L 755 249 Z"/>
  <path id="z36271d20" d="M 752 185 Q 753 219 755 249 L 756 283 Q 756 308 758 331 L 760 367 Q 761 371 761 376 Q 768 392 759 400 Q 752 407 744 414 C 722 434 694 436 703 407 Q 709 392 710 352 L 711 320 Q 711 301 711 272 L 712 241 Q 712 213 713 178 C 714 148 751 155 752 185 Z"/>
  <path id="z36271d21" d="M 713 178 Q 653 169 587 158 C 560 154 561 153 587 138 Q 614 120 639 127 Q 739 155 927 156 Q 943 156 947 164 Q 951 173 938 184 Q 886 220 839 202 Q 802 196 752 185 L 713 178 Z"/>
<defs>
  <clipPath id="z36271c1"><use href="#z36271d1"/></clipPath>
  <clipPath id="z36271c2"><use href="#z36271d2"/></clipPath>
  <clipPath id="z36271c3"><use href="#z36271d3"/></clipPath>
  <clipPath id="z36271c4"><use href="#z36271d4"/></clipPath>
  <clipPath id="z36271c5"><use href="#z36271d5"/></clipPath>
  <clipPath id="z36271c6"><use href="#z36271d6"/></clipPath>
  <clipPath id="z36271c7"><use href="#z36271d7"/></clipPath>
  <clipPath id="z36271c8"><use href="#z36271d8"/></clipPath>
  <clipPath id="z36271c9"><use href="#z36271d9"/></clipPath>
  <clipPath id="z36271c10"><use href="#z36271d10"/></clipPath>
  <clipPath id="z36271c11"><use href="#z36271d11"/></clipPath>
  <clipPath id="z36271c12"><use href="#z36271d12"/></clipPath>
  <clipPath id="z36271c13"><use href="#z36271d13"/></clipPath>
  <clipPath id="z36271c14"><use href="#z36271d14"/></clipPath>
  <clipPath id="z36271c15"><use href="#z36271d15"/></clipPath>
  <clipPath id="z36271c16"><use href="#z36271d16"/></clipPath>
  <clipPath id="z36271c17"><use href="#z36271d17"/></clipPath>
  <clipPath id="z36271c18"><use href="#z36271d18"/></clipPath>
  <clipPath id="z36271c19"><use href="#z36271d19"/></clipPath>
  <clipPath id="z36271c20"><use href="#z36271d20"/></clipPath>
  <clipPath id="z36271c21"><use href="#z36271d21"/></clipPath>
</defs>
<path style="--d:1s;" pathLength="3333" clip-path="url(#z36271c1)" d="M 188 547 L 216 544 L 267 550 L 370 580 L 428 585"/>
<path style="--d:2s;" pathLength="3333" clip-path="url(#z36271c2)" d="M 277 793 L 310 769 L 322 748 L 314 465 L 298 440"/>
<path style="--d:3s;" pathLength="3333" clip-path="url(#z36271c3)" d="M 72 380 L 124 373 L 419 443 L 476 441"/>
<path style="--d:4s;" pathLength="3333" clip-path="url(#z36271c4)" d="M 289 392 L 312 372 L 308 208 L 325 179"/>
<path style="--d:5s;" pathLength="3333" clip-path="url(#z36271c5)" d="M 338 280 L 347 282 L 352 292 L 390 300 L 423 304 L 444 298"/>
<path style="--d:6s;" pathLength="3333" clip-path="url(#z36271c6)" d="M 178 310 L 202 276 L 169 199 L 108 112 L 55 68"/>
<path style="--d:7s;" pathLength="3333" clip-path="url(#z36271c7)" d="M 221 224 L 222 215 L 280 179 L 472 80 L 591 31 L 697 -1 L 735 -7 L 768 -4 L 960 36"/>
<path style="--d:8s;" pathLength="3333" clip-path="url(#z36271c8)" d="M 490 743 L 525 743 L 543 747 L 555 758 L 564 755 L 619 769 L 644 766 L 662 752 L 665 739 L 652 676 L 640 556"/>
<path style="--d:9s;" pathLength="3333" clip-path="url(#z36271c9)" d="M 540 698 L 580 676 L 599 657"/>
<path style="--d:10s;" pathLength="3333" clip-path="url(#z36271c10)" d="M 501 581 L 538 575 L 607 603 L 615 613 L 628 614"/>
<path style="--d:11s;" pathLength="3333" clip-path="url(#z36271c11)" d="M 738 783 L 845 797 L 860 789 L 876 769 L 862 716 L 845 574"/>
<path style="--d:12s;" pathLength="3333" clip-path="url(#z36271c12)" d="M 751 729 L 783 707 L 799 687"/>
<path style="--d:13s;" pathLength="3333" clip-path="url(#z36271c13)" d="M 712 611 L 741 606 L 799 635 L 809 633 L 822 647 L 835 648"/>
<path style="--d:14s;" pathLength="3333" clip-path="url(#z36271c14)" d="M 622 515 L 597 509 L 554 452 L 521 420 L 470 379 L 437 361"/>
<path style="--d:15s;" pathLength="3333" clip-path="url(#z36271c15)" d="M 559 427 L 571 345 L 569 237 L 559 150 L 567 76"/>
<path style="--d:16s;" pathLength="3333" clip-path="url(#z36271c16)" d="M 680 527 L 734 503 L 755 475"/>
<path style="--d:17s;" pathLength="3333" clip-path="url(#z36271c17)" d="M 624 424 L 670 420 L 814 449 L 859 451"/>
<path style="--d:18s;" pathLength="3333" clip-path="url(#z36271c18)" d="M 640 335 L 658 331 L 713 336 L 810 361 L 832 360"/>
<path style="--d:19s;" pathLength="3333" clip-path="url(#z36271c19)" d="M 645 259 L 702 254 L 794 276 L 836 276"/>
<path style="--d:20s;" pathLength="3333" clip-path="url(#z36271c20)" d="M 710 404 L 735 385 L 733 206 L 718 187"/>
<path style="--d:21s;" pathLength="3333" clip-path="url(#z36271c21)" d="M 596 153 L 602 146 L 622 144 L 873 182 L 937 168"/>
</svg>