<svg id="z37806" class="acjk" viewBox="0 0 1024 1024" xmlns="http://www.w3.org/2000/svg">
  <path id="z37806d1" d="M 334 735 Q 341 748 352 757 Q 361 767 356 781 Q 352 794 322 815 Q 295 833 276 832 Q 258 829 267 808 Q 282 777 271 750 Q 211 594 66 407 Q 56 397 54 390 Q 51 380 65 382 Q 128 400 267 621 Q 309 697 321 716 L 334 735 Z"/>
  <path id="z37806d2" d="M 321 716 Q 327 709 343 698 Q 380 673 419 641 Q 429 632 442 633 Q 449 634 453 644 Q 456 656 448 679 Q 435 715 337 735 Q 336 736 334 735 C 304 738 300 738 321 716 Z"/>
  <path id="z37806d3" d="M 301 485 Q 403 516 405 517 Q 412 524 407 531 Q 400 540 377 544 Q 352 547 329 536 Q 301 524 270 515 Q 236 505 197 499 Q 167 492 190 480 Q 217 465 262 474 L 301 485 Z"/>
  <path id="z37806d4" d="M 318 379 Q 343 388 373 396 Q 401 405 405 409 Q 412 416 407 423 Q 400 432 377 435 Q 364 436 320 422 L 272 403 Q 266 402 263 400 Q 226 387 180 379 Q 152 372 173 360 Q 209 345 252 359 Q 261 362 273 365 L 318 379 Z"/>
  <path id="z37806d5" d="M 312 209 Q 315 303 318 379 L 320 422 Q 323 464 309 479 Q 305 483 301 485 C 277 503 255 503 262 474 Q 271 441 272 403 L 273 365 Q 273 307 273 197 C 273 167 311 179 312 209 Z"/>
  <path id="z37806d6" d="M 163 262 Q 206 211 216 208 Q 223 207 229 217 Q 235 227 231 251 Q 230 266 209 279 Q 157 306 148 302 Q 144 301 143 290 Q 144 281 163 262 Z"/>
  <path id="z37806d7" d="M 376 328 Q 369 309 350 277 Q 347 271 351 268 Q 357 267 361 271 Q 404 307 426 321 Q 438 325 434 333 Q 428 343 414 353 Q 401 363 385 363 Q 375 362 378 349 Q 379 339 376 328 Z"/>
  <path id="z37806d8" d="M 273 197 Q 132 152 97 152 Q 84 151 83 141 Q 82 128 90 121 Q 112 106 144 89 Q 154 86 165 94 Q 192 116 361 196 Q 385 206 401 220 Q 414 227 414 236 Q 407 242 312 209 L 273 197 Z"/>
  <path id="z37806d9" d="M 567 730 Q 567 760 573 798 Q 577 813 567 820 Q 555 830 536 837 Q 526 840 519 836 Q 513 832 519 818 Q 531 787 529 756 Q 529 692 535 674 Q 539 653 561 637 Q 636 586 786 623 Q 793 626 803 628 Q 839 641 873 667 Q 886 680 875 698 Q 865 714 847 763 Q 846 775 840 778 Q 836 779 834 767 Q 818 710 806 693 Q 793 678 758 667 Q 671 643 607 665 Q 580 675 574 691 Q 568 701 567 717 L 567 730 Z"/>
  <path id="z37806d10" d="M 567 717 Q 654 721 756 768 Q 768 775 783 778 Q 795 782 794 790 Q 793 797 778 809 Q 747 831 725 832 Q 716 833 715 823 Q 708 787 567 730 C 539 719 537 715 567 717 Z"/>
  <path id="z37806d11" d="M 595 554 Q 588 561 567 570 Q 560 573 550 570 Q 546 566 550 557 Q 551 551 554 545 Q 572 512 563 361 Q 545 303 577 264 Q 584 254 593 264 Q 597 271 600 281 L 603 306 Q 603 333 602 360 L 602 382 Q 602 419 602 445 L 602 470 Q 602 498 603 527 C 604 548 604 548 595 554 Z"/>
  <path id="z37806d12" d="M 768 300 Q 769 291 775 281 Q 787 257 794 259 Q 806 260 818 286 Q 825 301 826 341 Q 807 482 833 526 Q 843 539 836 548 Q 814 569 773 587 Q 760 591 740 585 Q 689 564 595 554 C 565 551 573 527 603 527 Q 610 526 618 527 Q 685 540 735 547 Q 751 550 758 540 Q 768 527 770 479 Q 774 361 771 325 L 768 300 Z"/>
  <path id="z37806d13" d="M 602 445 Q 665 457 709 463 Q 728 467 721 478 Q 711 490 691 492 Q 657 495 602 470 C 575 458 573 439 602 445 Z"/>
  <path id="z37806d14" d="M 602 360 Q 605 360 609 360 Q 676 370 725 376 Q 744 379 737 390 Q 728 402 707 406 Q 680 409 602 382 C 574 372 572 360 602 360 Z"/>
  <path id="z37806d15" d="M 600 281 Q 601 281 606 281 Q 697 294 768 300 C 798 303 798 312 771 325 Q 764 329 755 331 Q 734 335 603 306 C 574 300 570 281 600 281 Z"/>
  <path id="z37806d16" d="M 518 402 Q 519 418 508 430 Q 490 445 463 452 Q 442 458 440 447 Q 437 437 446 430 Q 488 382 468 271 Q 456 234 428 193 Q 412 175 417 161 Q 424 146 444 133 Q 463 120 480 142 Q 538 190 733 197 Q 850 197 922 185 Q 938 181 951 188 Q 963 192 957 207 Q 947 225 927 236 Q 911 249 885 246 Q 864 245 816 242 Q 710 239 517 203 Q 496 199 500 224 Q 516 302 518 402 Z"/>
  <path id="z37806d17" d="M 562 130 Q 547 75 394 -21 Q 372 -33 399 -33 Q 457 -36 578 49 Q 579 52 582 53 Q 613 75 627 86 Q 639 96 638 105 Q 637 118 613 130 Q 588 143 575 143 Q 568 142 562 130 Z"/>
  <path id="z37806d18" d="M 750 107 Q 795 56 847 -16 Q 860 -38 876 -45 Q 885 -46 893 -38 Q 908 -25 899 20 Q 896 62 825 102 Q 780 127 755 139 Q 746 145 743 132 Q 742 119 750 107 Z"/>
<defs>
  <clipPath id="z37806c1"><use href="#z37806d1"/></clipPath>
  <clipPath id="z37806c2"><use href="#z37806d2"/></clipPath>
  <clipPath id="z37806c3"><use href="#z37806d3"/></clipPath>
  <clipPath id="z37806c4"><use href="#z37806d4"/></clipPath>
  <clipPath id="z37806c5"><use href="#z37806d5"/></clipPath>
  <clipPath id="z37806c6"><use href="#z37806d6"/></clipPath>
  <clipPath id="z37806c7"><use href="#z37806d7"/></clipPath>
  <clipPath id="z37806c8"><use href="#z37806d8"/></clipPath>
  <clipPath id="z37806c9"><use href="#z37806d9"/></clipPath>
  <clipPath id="z37806c10"><use href="#z37806d10"/></clipPath>
  <clipPath id="z37806c11"><use href="#z37806d11"/></clipPath>
  <clipPath id="z37806c12"><use href="#z37806d12"/></clipPath>
  <clipPath id="z37806c13"><use href="#z37806d13"/></clipPath>
  <clipPath id="z37806c14"><use href="#z37806d14"/></clipPath>
  <clipPath id="z37806c15"><use href="#z37806d15"/></clipPath>
  <clipPath id="z37806c16"><use href="#z37806d16"/></clipPath>
  <clipPath id="z37806c17"><use href="#z37806d17"/></clipPath>
  <clipPath id="z37806c18"><use href="#z37806d18"/></clipPath>
</defs>
<path style="--d:1s;" pathLength="3333" clip-path="url(#z37806c1)" d="M 277 818 L 294 805 L 314 773 L 262 663 L 169 511 L 103 427 L 63 390"/>
<path style="--d:2s;" pathLength="3333" clip-path="url(#z37806c2)" d="M 330 717 L 346 717 L 407 685 L 438 648"/>
<path style="--d:3s;" pathLength="3333" clip-path="url(#z37806c3)" d="M 191 491 L 251 490 L 310 505 L 342 520 L 401 525"/>
<path style="--d:4s;" pathLength="3333" clip-path="url(#z37806c4)" d="M 175 370 L 221 370 L 353 412 L 397 417"/>
<path style="--d:5s;" pathLength="3333" clip-path="url(#z37806c5)" d="M 270 469 L 293 456 L 296 432 L 294 235 L 288 216 L 277 207"/>
<path style="--d:6s;" pathLength="3333" clip-path="url(#z37806c6)" d="M 151 294 L 201 256 L 218 218"/>
<path style="--d:7s;" pathLength="3333" clip-path="url(#z37806c7)" d="M 423 332 L 401 333 L 355 273"/>
<path style="--d:8s;" pathLength="3333" clip-path="url(#z37806c8)" d="M 96 139 L 110 132 L 154 127 L 411 232"/>
<path style="--d:9s;" pathLength="3333" clip-path="url(#z37806c9)" d="M 525 829 L 549 800 L 548 712 L 558 674 L 578 653 L 630 634 L 720 635 L 771 644 L 810 660 L 842 687 L 838 772"/>
<path style="--d:10s;" pathLength="3333" clip-path="url(#z37806c10)" d="M 783 790 L 743 796 L 667 754 L 600 731 L 581 732 L 573 724"/>
<path style="--d:11s;" pathLength="3333" clip-path="url(#z37806c11)" d="M 556 564 L 578 541 L 582 528 L 585 408 L 579 322 L 585 268"/>
<path style="--d:12s;" pathLength="3333" clip-path="url(#z37806c12)" d="M 605 550 L 614 541 L 759 567 L 793 542 L 798 534 L 794 426 L 799 348 L 794 269"/>
<path style="--d:13s;" pathLength="3333" clip-path="url(#z37806c13)" d="M 610 451 L 616 463 L 648 471 L 694 477 L 712 473"/>
<path style="--d:14s;" pathLength="3333" clip-path="url(#z37806c14)" d="M 606 366 L 655 384 L 702 390 L 729 385"/>
<path style="--d:15s;" pathLength="3333" clip-path="url(#z37806c15)" d="M 603 287 L 617 298 L 764 320"/>
<path style="--d:16s;" pathLength="3333" clip-path="url(#z37806c16)" d="M 451 442 L 488 412 L 495 378 L 493 302 L 469 183 L 513 183 L 624 206 L 749 218 L 893 218 L 947 200"/>
<path style="--d:17s;" pathLength="3333" clip-path="url(#z37806c17)" d="M 622 104 L 589 102 L 522 39 L 442 -10 L 404 -24"/>
<path style="--d:18s;" pathLength="3333" clip-path="url(#z37806c18)" d="M 754 127 L 852 38 L 871 5 L 878 -30"/>
</svg>