<svg id="z32908" class="acjk" viewBox="0 0 1024 1024" xmlns="http://www.w3.org/2000/svg">
  <path id="z32908d1" d="M 218 365 Q 218 372 220 376 Q 229 433 232 488 L 234 519 Q 235 538 235 558 Q 238 660 243 669 C 246 687 246 687 225 698 Q 212 707 192 714 Q 173 723 161 717 Q 151 710 158 697 Q 176 673 182 615 Q 182 384 155 283 Q 127 187 56 50 Q 52 43 51 37 Q 50 27 59 30 Q 74 33 107 83 Q 180 180 212 338 L 218 365 Z"/>
  <path id="z32908d2" d="M 243 669 Q 247 670 255 672 Q 283 679 311 687 Q 330 691 335 682 Q 359 618 346 230 Q 343 130 333 116 Q 329 110 310 115 Q 285 121 258 127 Q 239 133 241 124 Q 295 78 325 43 Q 338 24 352 20 Q 361 16 369 26 Q 408 71 406 124 Q 381 620 409 670 Q 419 689 409 699 Q 388 717 354 731 Q 336 738 321 731 Q 284 710 225 698 C 196 691 214 662 243 669 Z"/>
  <path id="z32908d3" d="M 232 488 Q 275 500 311 507 Q 330 511 322 522 Q 312 532 290 534 Q 272 534 234 519 C 206 508 203 480 232 488 Z"/>
  <path id="z32908d4" d="M 212 338 Q 215 337 221 338 Q 272 348 310 354 Q 329 358 321 369 Q 311 382 288 384 Q 248 387 218 365 C 193 348 185 342 212 338 Z"/>
  <path id="z32908d5" d="M 565 637 Q 549 649 524 658 Q 505 667 493 661 Q 483 654 490 641 Q 506 620 511 550 Q 510 549 511 546 Q 518 414 492 307 Q 470 217 416 118 Q 412 111 411 105 Q 410 95 419 98 Q 431 99 462 144 Q 567 277 567 534 Q 567 582 572 603 C 576 630 576 630 565 637 Z"/>
  <path id="z32908d6" d="M 958 93 Q 979 102 971 125 Q 956 176 951 247 Q 948 284 941 292 Q 934 296 929 285 Q 902 165 865 136 Q 829 117 768 139 Q 749 146 740 159 Q 719 195 725 347 Q 728 474 745 560 Q 749 597 783 629 Q 796 647 780 660 Q 758 676 709 692 Q 690 696 671 684 Q 632 656 565 637 C 536 628 543 597 572 603 Q 593 603 652 627 Q 667 630 673 625 Q 679 622 679 609 Q 676 159 701 127 Q 708 115 725 104 Q 812 43 952 91 Q 955 92 958 93 Z"/>
<defs>
  <clipPath id="z32908c1"><use href="#z32908d1"/></clipPath>
  <clipPath id="z32908c2"><use href="#z32908d2"/></clipPath>
  <clipPath id="z32908c3"><use href="#z32908d3"/></clipPath>
  <clipPath id="z32908c4"><use href="#z32908d4"/></clipPath>
  <clipPath id="z32908c5"><use href="#z32908d5"/></clipPath>
  <clipPath id="z32908c6"><use href="#z32908d6"/></clipPath>
</defs>
<path style="--d:1s;" pathLength="3333" clip-path="url(#z32908c1)" d="M 169 706 L 190 690 L 208 663 L 208 513 L 192 350 L 174 269 L 148 196 L 90 81 L 59 38"/>
<path style="--d:2s;" pathLength="3333" clip-path="url(#z32908c2)" d="M 234 697 L 243 689 L 258 689 L 333 711 L 352 704 L 374 680 L 375 164 L 369 106 L 352 77 L 323 85 L 250 122"/>
<path style="--d:3s;" pathLength="3333" clip-path="url(#z32908c3)" d="M 238 495 L 249 508 L 276 516 L 314 516"/>
<path style="--d:4s;" pathLength="3333" clip-path="url(#z32908c4)" d="M 217 344 L 230 355 L 267 366 L 313 363"/>
<path style="--d:5s;" pathLength="3333" clip-path="url(#z32908c5)" d="M 501 650 L 532 621 L 538 603 L 539 468 L 532 383 L 520 321 L 490 227 L 446 140 L 419 107"/>
<path style="--d:6s;" pathLength="3333" clip-path="url(#z32908c6)" d="M 576 610 L 586 624 L 668 653 L 700 654 L 724 635 L 706 513 L 702 280 L 710 179 L 728 133 L 778 107 L 827 98 L 884 107 L 913 124 L 923 135 L 937 285"/>
</svg>