<svg id="z30643" class="acjk" viewBox="0 0 1024 1024" xmlns="http://www.w3.org/2000/svg">
  <path id="z30643d1" d="M 154 652 Q 145 661 125 668 Q 115 672 104 669 Q 97 665 103 652 Q 106 639 111 627 Q 139 569 122 265 Q 116 223 104 172 Q 92 117 126 73 Q 136 60 147 73 Q 159 88 159 113 L 163 149 Q 164 173 164 204 Q 164 270 165 324 L 165 355 Q 166 418 167 464 L 168 498 Q 169 595 172 607 Q 173 620 172 629 C 172 640 172 640 154 652 Z"/>
  <path id="z30643d2" d="M 262 126 Q 274 107 287 87 Q 302 65 309 68 Q 322 71 338 110 Q 354 153 348 207 Q 317 591 346 648 Q 356 664 348 675 Q 341 684 294 696 Q 272 703 255 694 Q 200 666 154 652 C 126 643 144 619 172 629 Q 173 630 177 631 Q 205 640 236 652 Q 264 664 276 655 Q 292 639 292 575 Q 296 311 284 166 Q 287 147 273 147 C 261 128 261 128 262 126 Z"/>
  <path id="z30643d3" d="M 167 464 Q 210 474 246 480 Q 268 486 258 497 Q 246 510 222 511 Q 200 511 168 498 C 140 487 138 457 167 464 Z"/>
  <path id="z30643d4" d="M 165 324 Q 217 331 256 337 Q 278 341 269 353 Q 259 366 235 370 Q 192 373 165 355 C 140 339 135 320 165 324 Z"/>
  <path id="z30643d5" d="M 159 113 Q 159 114 160 114 Q 193 121 262 126 C 292 128 293 128 273 147 Q 266 154 251 162 Q 233 171 163 149 C 134 140 131 101 159 113 Z"/>
  <path id="z30643d6" d="M 575 809 Q 629 764 646 765 Q 656 766 661 780 Q 664 796 652 824 Q 642 848 566 856 Q 550 859 544 855 Q 540 851 542 838 Q 546 828 575 809 Z"/>
  <path id="z30643d7" d="M 701 694 Q 717 698 735 701 Q 777 710 783 716 Q 790 723 786 730 Q 780 740 755 747 Q 730 751 704 742 Q 658 726 606 714 Q 551 701 484 696 Q 453 692 475 676 Q 509 658 572 669 Q 617 678 666 687 L 701 694 Z"/>
  <path id="z30643d8" d="M 482 610 Q 500 571 520 558 Q 530 554 540 561 Q 547 570 548 583 Q 547 602 535 615 Q 504 646 478 642 Q 474 642 473 632 Q 472 623 482 610 Z"/>
  <path id="z30643d9" d="M 667 566 Q 671 573 677 580 Q 690 599 705 623 Q 712 633 723 647 Q 736 657 729 666 Q 722 679 701 694 C 677 712 661 717 666 687 Q 672 662 645 582 Q 639 570 637 560 C 630 531 651 540 667 566 Z"/>
  <path id="z30643d10" d="M 637 560 Q 627 560 618 557 Q 495 536 350 512 Q 331 509 346 495 Q 359 483 375 479 Q 394 475 409 479 Q 619 548 884 547 Q 894 548 906 548 Q 924 549 928 557 Q 932 567 917 579 Q 866 615 798 594 Q 743 582 667 566 L 637 560 Z"/>
  <path id="z30643d11" d="M 452 434 Q 440 438 421 440 Q 409 443 407 438 Q 401 431 409 417 Q 437 360 456 268 Q 460 240 476 223 Q 494 202 498 217 Q 499 223 501 229 L 501 252 Q 500 264 497 278 Q 478 372 474 403 C 470 429 470 429 452 434 Z"/>
  <path id="z30643d12" d="M 697 256 Q 713 231 728 221 Q 738 214 754 233 Q 769 254 803 369 Q 812 400 836 423 Q 849 435 838 449 Q 823 465 783 492 Q 765 501 694 483 Q 673 482 544 453 Q 493 443 452 434 C 423 428 445 394 474 403 Q 511 416 564 426 L 606 435 Q 729 465 746 448 Q 756 435 754 421 Q 729 312 719 294 Q 715 285 705 282 C 689 268 689 268 697 256 Z"/>
  <path id="z30643d13" d="M 624 334 Q 654 340 681 344 Q 700 347 693 358 Q 684 370 663 373 Q 647 374 625 369 L 580 355 Q 549 346 522 338 Q 509 335 525 323 Q 528 322 580 325 L 624 334 Z"/>
  <path id="z30643d14" d="M 621 245 Q 661 252 697 256 C 727 259 733 271 705 282 Q 680 294 622 277 L 579 268 Q 537 261 501 252 C 472 245 471 228 501 229 Q 507 229 518 230 Q 549 236 579 239 L 621 245 Z"/>
  <path id="z30643d15" d="M 617 32 Q 617 80 618 122 L 619 165 Q 619 207 621 245 L 622 277 Q 623 307 624 334 L 625 369 Q 628 414 625 419 Q 615 429 606 435 C 582 453 550 452 564 426 Q 568 419 573 409 Q 579 391 580 355 L 580 325 Q 580 303 579 268 L 579 239 Q 578 203 578 156 L 577 116 Q 577 76 577 28 C 577 -2 617 2 617 32 Z"/>
  <path id="z30643d16" d="M 618 122 Q 651 129 687 133 Q 721 140 726 144 Q 733 150 730 158 Q 724 168 700 176 Q 672 182 619 165 L 578 156 Q 542 149 469 143 Q 438 139 459 124 Q 495 105 558 114 Q 565 115 577 116 L 618 122 Z"/>
  <path id="z30643d17" d="M 577 28 Q 480 21 369 9 Q 348 8 363 -9 Q 376 -22 393 -29 Q 412 -35 429 -31 Q 636 14 873 -6 Q 892 -6 898 2 Q 904 12 888 27 Q 837 66 802 59 Q 732 47 617 32 L 577 28 Z"/>
<defs>
  <clipPath id="z30643c1"><use href="#z30643d1"/></clipPath>
  <clipPath id="z30643c2"><use href="#z30643d2"/></clipPath>
  <clipPath id="z30643c3"><use href="#z30643d3"/></clipPath>
  <clipPath id="z30643c4"><use href="#z30643d4"/></clipPath>
  <clipPath id="z30643c5"><use href="#z30643d5"/></clipPath>
  <clipPath id="z30643c6"><use href="#z30643d6"/></clipPath>
  <clipPath id="z30643c7"><use href="#z30643d7"/></clipPath>
  <clipPath id="z30643c8"><use href="#z30643d8"/></clipPath>
  <clipPath id="z30643c9"><use href="#z30643d9"/></clipPath>
  <clipPath id="z30643c10"><use href="#z30643d10"/></clipPath>
  <clipPath id="z30643c11"><use href="#z30643d11"/></clipPath>
  <clipPath id="z30643c12"><use href="#z30643d12"/></clipPath>
  <clipPath id="z30643c13"><use href="#z30643d13"/></clipPath>
  <clipPath id="z30643c14"><use href="#z30643d14"/></clipPath>
  <clipPath id="z30643c15"><use href="#z30643d15"/></clipPath>
  <clipPath id="z30643c16"><use href="#z30643d16"/></clipPath>
  <clipPath id="z30643c17"><use href="#z30643d17"/></clipPath>
</defs>
<path style="--d:1s;" pathLength="3333" clip-path="url(#z30643c1)" d="M 110 661 L 144 619 L 149 536 L 145 289 L 131 126 L 137 78"/>
<path style="--d:2s;" pathLength="3333" clip-path="url(#z30643c2)" d="M 162 649 L 180 646 L 267 678 L 283 677 L 313 656 L 318 197 L 315 148 L 305 124 L 308 78"/>
<path style="--d:3s;" pathLength="3333" clip-path="url(#z30643c3)" d="M 173 469 L 180 481 L 195 489 L 250 490"/>
<path style="--d:4s;" pathLength="3333" clip-path="url(#z30643c4)" d="M 173 332 L 182 344 L 200 349 L 238 352 L 260 347"/>
<path style="--d:5s;" pathLength="3333" clip-path="url(#z30643c5)" d="M 164 119 L 181 137 L 264 145"/>
<path style="--d:6s;" pathLength="3333" clip-path="url(#z30643c6)" d="M 550 849 L 624 810 L 645 779"/>
<path style="--d:7s;" pathLength="3333" clip-path="url(#z30643c7)" d="M 477 687 L 531 682 L 607 694 L 717 722 L 775 725"/>
<path style="--d:8s;" pathLength="3333" clip-path="url(#z30643c8)" d="M 485 632 L 514 602 L 529 574"/>
<path style="--d:9s;" pathLength="3333" clip-path="url(#z30643c9)" d="M 673 684 L 695 658 L 667 594 L 644 564"/>
<path style="--d:10s;" pathLength="3333" clip-path="url(#z30643c10)" d="M 348 504 L 400 499 L 554 533 L 827 574 L 864 574 L 918 562"/>
<path style="--d:11s;" pathLength="3333" clip-path="url(#z30643c11)" d="M 415 431 L 437 413 L 448 394 L 488 222"/>
<path style="--d:12s;" pathLength="3333" clip-path="url(#z30643c12)" d="M 460 432 L 481 423 L 708 472 L 746 473 L 771 465 L 793 436 L 755 309 L 733 261 L 735 239"/>
<path style="--d:13s;" pathLength="3333" clip-path="url(#z30643c13)" d="M 528 331 L 568 335 L 647 356 L 685 353"/>
<path style="--d:14s;" pathLength="3333" clip-path="url(#z30643c14)" d="M 504 235 L 539 247 L 685 270 L 698 277"/>
<path style="--d:15s;" pathLength="3333" clip-path="url(#z30643c15)" d="M 572 425 L 601 406 L 603 380 L 598 56 L 583 36"/>
<path style="--d:16s;" pathLength="3333" clip-path="url(#z30643c16)" d="M 462 135 L 491 129 L 547 131 L 674 155 L 719 154"/>
<path style="--d:17s;" pathLength="3333" clip-path="url(#z30643c17)" d="M 366 0 L 420 -9 L 647 18 L 811 29 L 887 8"/>
</svg>