<svg id="z30193" class="acjk" viewBox="0 0 1024 1024" xmlns="http://www.w3.org/2000/svg">
  <path id="z30193d1" d="M 503 815 Q 533 796 566 770 Q 581 760 595 761 Q 605 762 609 776 Q 612 791 600 818 Q 593 837 560 848 Q 484 866 472 859 Q 468 855 470 843 Q 474 833 503 815 Z"/>
  <path id="z30193d2" d="M 369 655 Q 412 648 442 653 Q 763 716 774 725 Q 783 732 779 740 Q 772 752 744 760 Q 717 766 609 732 Q 474 698 358 688 Q 355 688 354 687 C 324 683 339 659 369 655 Z"/>
  <path id="z30193d3" d="M 267 342 Q 221 180 119 19 Q 113 12 112 6 Q 109 -4 120 -3 Q 147 3 227 117 Q 246 150 265 189 Q 335 348 351 539 Q 361 642 369 655 C 374 674 374 674 354 687 Q 306 720 286 713 Q 274 706 281 692 Q 299 668 299 604 Q 284 442 275 383 L 267 342 Z"/>
  <path id="z30193d4" d="M 165 565 Q 201 511 228 495 Q 241 491 251 501 Q 258 511 258 528 Q 252 564 182 599 Q 167 606 158 603 Q 152 603 153 591 Q 153 581 165 565 Z"/>
  <path id="z30193d5" d="M 275 383 Q 103 293 68 287 Q 55 283 56 272 Q 56 259 67 253 Q 92 243 128 231 Q 138 230 149 240 Q 176 276 267 342 C 291 360 302 397 275 383 Z"/>
  <path id="z30193d6" d="M 495 221 Q 495 155 479 96 Q 470 66 491 7 Q 497 -8 504 -11 Q 510 -17 516 -10 Q 523 -6 532 13 Q 538 29 541 166 Q 541 463 559 522 Q 566 535 564 547 Q 558 556 509 586 Q 488 601 470 587 Q 466 583 471 569 Q 495 535 495 483 L 496 451 Q 496 406 496 359 L 496 327 Q 495 290 495 248 L 495 221 Z"/>
  <path id="z30193d7" d="M 495 483 Q 494 484 489 485 Q 468 488 415 471 Q 397 468 378 466 Q 348 460 370 448 Q 403 430 452 443 Q 471 447 496 451 C 526 456 523 472 495 483 Z"/>
  <path id="z30193d8" d="M 496 359 Q 481 368 413 347 Q 409 347 406 345 Q 385 341 362 338 Q 332 332 354 320 Q 381 305 445 317 Q 467 323 496 327 C 526 331 524 348 496 359 Z"/>
  <path id="z30193d9" d="M 495 248 Q 336 194 310 192 Q 300 191 298 182 Q 297 170 306 163 Q 327 151 356 137 Q 365 134 375 143 Q 402 167 495 221 C 521 236 523 258 495 248 Z"/>
  <path id="z30193d10" d="M 688 240 Q 688 288 688 346 L 688 376 Q 688 424 688 471 L 690 502 Q 693 539 701 568 Q 708 581 706 594 Q 699 603 648 633 Q 626 648 608 633 Q 604 629 610 615 Q 637 575 638 524 Q 647 176 632 94 Q 629 84 627 72 Q 618 39 642 -21 Q 648 -37 656 -39 Q 662 -45 668 -38 Q 675 -34 684 -14 Q 693 8 691 37 Q 690 62 688 209 L 688 240 Z"/>
  <path id="z30193d11" d="M 688 471 Q 718 468 804 485 Q 820 489 838 493 Q 854 497 857 501 Q 864 508 860 517 Q 853 527 823 533 Q 795 536 766 522 Q 750 516 690 502 C 661 495 658 473 688 471 Z"/>
  <path id="z30193d12" d="M 688 346 Q 731 342 819 359 Q 864 371 868 373 Q 877 380 871 389 Q 864 399 836 406 Q 806 410 777 397 Q 756 390 688 376 C 659 370 658 348 688 346 Z"/>
  <path id="z30193d13" d="M 688 209 Q 715 205 749 214 Q 827 238 893 232 Q 906 232 910 241 Q 914 251 901 263 Q 852 293 778 265 Q 736 253 688 240 C 659 232 658 212 688 209 Z"/>
<defs>
  <clipPath id="z30193c1"><use href="#z30193d1"/></clipPath>
  <clipPath id="z30193c2"><use href="#z30193d2"/></clipPath>
  <clipPath id="z30193c3"><use href="#z30193d3"/></clipPath>
  <clipPath id="z30193c4"><use href="#z30193d4"/></clipPath>
  <clipPath id="z30193c5"><use href="#z30193d5"/></clipPath>
  <clipPath id="z30193c6"><use href="#z30193d6"/></clipPath>
  <clipPath id="z30193c7"><use href="#z30193d7"/></clipPath>
  <clipPath id="z30193c8"><use href="#z30193d8"/></clipPath>
  <clipPath id="z30193c9"><use href="#z30193d9"/></clipPath>
  <clipPath id="z30193c10"><use href="#z30193d10"/></clipPath>
  <clipPath id="z30193c11"><use href="#z30193d11"/></clipPath>
  <clipPath id="z30193c12"><use href="#z30193d12"/></clipPath>
  <clipPath id="z30193c13"><use href="#z30193d13"/></clipPath>
</defs>
<path style="--d:1s;" pathLength="3333" clip-path="url(#z30193c1)" d="M 477 854 L 556 817 L 592 778"/>
<path style="--d:2s;" pathLength="3333" clip-path="url(#z30193c2)" d="M 357 682 L 395 671 L 452 675 L 714 734 L 767 736"/>
<path style="--d:3s;" pathLength="3333" clip-path="url(#z30193c3)" d="M 292 700 L 327 666 L 331 645 L 311 438 L 290 332 L 257 233 L 211 134 L 150 39 L 120 5"/>
<path style="--d:4s;" pathLength="3333" clip-path="url(#z30193c4)" d="M 164 594 L 217 543 L 235 515"/>
<path style="--d:5s;" pathLength="3333" clip-path="url(#z30193c5)" d="M 70 273 L 126 270 L 248 349 L 262 364"/>
<path style="--d:6s;" pathLength="3333" clip-path="url(#z30193c6)" d="M 481 581 L 525 533 L 520 204 L 507 78 L 509 1"/>
<path style="--d:7s;" pathLength="3333" clip-path="url(#z30193c7)" d="M 371 458 L 391 453 L 440 458 L 475 467 L 490 478"/>
<path style="--d:8s;" pathLength="3333" clip-path="url(#z30193c8)" d="M 355 330 L 414 329 L 476 343 L 491 354"/>
<path style="--d:9s;" pathLength="3333" clip-path="url(#z30193c9)" d="M 311 178 L 359 171 L 465 224 L 479 225 L 484 241"/>
<path style="--d:10s;" pathLength="3333" clip-path="url(#z30193c10)" d="M 619 627 L 666 579 L 665 171 L 657 53 L 661 -25"/>
<path style="--d:11s;" pathLength="3333" clip-path="url(#z30193c11)" d="M 693 478 L 707 489 L 815 511 L 849 511"/>
<path style="--d:12s;" pathLength="3333" clip-path="url(#z30193c12)" d="M 694 354 L 722 366 L 816 383 L 863 382"/>
<path style="--d:13s;" pathLength="3333" clip-path="url(#z30193c13)" d="M 696 217 L 716 229 L 810 252 L 852 256 L 898 246"/>
</svg>