<svg id="z31309" class="acjk" viewBox="0 0 1024 1024" xmlns="http://www.w3.org/2000/svg">
  <path id="z31309d1" d="M 316 681 Q 397 726 427 734 Q 443 735 445 744 Q 446 754 435 763 Q 414 775 372 786 Q 357 792 345 789 Q 339 785 340 775 Q 341 741 188 643 Q 184 634 189 632 Q 201 632 273 663 Q 279 666 285 668 L 316 681 Z"/>
  <path id="z31309d2" d="M 341 521 Q 377 531 423 540 Q 439 543 439 550 Q 439 563 421 569 Q 394 581 343 563 L 299 550 Q 134 505 78 497 Q 66 496 64 487 Q 61 477 76 467 Q 116 443 153 459 Q 225 486 277 503 L 341 521 Z"/>
  <path id="z31309d3" d="M 338 419 Q 338 458 341 521 L 343 563 Q 344 612 351 639 Q 354 652 347 658 Q 331 673 316 681 C 291 698 275 696 285 668 Q 298 647 299 550 L 297 437 Q 281 139 268 107 Q 259 68 292 17 Q 304 -2 312 -6 Q 324 -7 329 6 Q 342 37 338 69 Q 335 246 337 397 L 338 419 Z"/>
  <path id="z31309d4" d="M 277 503 Q 222 367 54 157 Q 50 147 60 146 Q 66 145 75 154 Q 214 268 297 437 C 342 527 289 532 277 503 Z"/>
  <path id="z31309d5" d="M 337 397 Q 344 390 361 378 Q 386 357 414 333 Q 427 323 440 324 Q 449 325 453 336 Q 457 349 448 375 Q 435 403 355 419 Q 342 420 338 419 C 316 417 316 417 337 397 Z"/>
  <path id="z31309d6" d="M 698 716 Q 741 729 787 739 Q 830 751 836 757 Q 843 764 839 771 Q 832 780 809 785 Q 784 789 761 778 Q 731 768 701 756 L 648 741 Q 596 728 534 718 Q 504 712 526 700 Q 559 682 608 695 Q 627 701 649 705 L 698 716 Z"/>
  <path id="z31309d7" d="M 691 619 Q 728 629 768 637 Q 799 644 804 649 Q 811 656 807 663 Q 800 672 777 677 Q 755 681 694 659 L 650 645 Q 610 636 562 630 Q 532 624 554 612 Q 593 593 648 609 L 650 609 L 691 619 Z"/>
  <path id="z31309d8" d="M 687 552 Q 688 586 691 619 L 694 659 Q 695 689 698 716 L 701 756 Q 704 786 714 817 Q 717 827 699 839 Q 668 855 647 859 Q 634 862 626 855 Q 619 848 627 835 Q 643 811 648 741 L 649 705 Q 650 677 650 645 L 650 609 Q 650 579 650 546 C 650 516 686 522 687 552 Z"/>
  <path id="z31309d9" d="M 650 546 Q 548 530 433 511 Q 417 508 430 495 Q 457 471 487 480 Q 688 543 949 544 Q 950 544 952 544 Q 968 545 972 552 Q 976 562 962 572 Q 917 602 887 594 Q 812 578 687 552 L 650 546 Z"/>
  <path id="z31309d10" d="M 562 441 Q 546 451 529 456 Q 522 457 517 451 Q 514 447 520 438 Q 553 354 529 233 Q 520 206 525 187 Q 534 160 543 150 Q 553 140 560 151 Q 564 158 568 167 L 576 199 Q 577 212 578 259 L 578 282 Q 578 309 578 338 L 578 363 Q 578 402 581 415 C 583 429 583 429 562 441 Z"/>
  <path id="z31309d11" d="M 762 187 Q 762 172 772 157 Q 785 129 794 130 Q 807 131 823 163 Q 833 184 835 217 Q 813 370 844 421 Q 854 436 847 444 Q 822 466 778 485 Q 765 491 743 483 Q 692 462 562 441 C 532 436 552 407 581 415 Q 581 416 582 416 Q 667 435 728 446 Q 749 450 756 439 Q 768 424 769 373 Q 772 249 766 210 L 762 187 Z"/>
  <path id="z31309d12" d="M 578 338 Q 647 338 723 363 Q 723 364 724 364 Q 730 370 726 376 Q 722 383 701 389 Q 679 392 659 383 Q 650 380 578 363 C 549 356 548 338 578 338 Z"/>
  <path id="z31309d13" d="M 578 259 Q 593 256 697 272 Q 701 273 707 274 Q 725 278 727 280 Q 733 286 730 292 Q 726 299 705 305 Q 684 309 663 301 Q 644 294 621 289 Q 600 285 578 282 C 548 278 548 262 578 259 Z"/>
  <path id="z31309d14" d="M 568 167 Q 574 166 584 168 Q 639 180 762 187 C 792 189 789 191 766 210 Q 759 216 748 223 Q 732 232 704 225 Q 634 209 576 199 C 546 194 538 168 568 167 Z"/>
  <path id="z31309d15" d="M 565 124 Q 550 67 394 -41 Q 372 -53 398 -52 Q 450 -55 580 43 Q 583 50 628 85 Q 638 95 638 104 Q 637 117 613 126 Q 588 138 576 136 Q 569 136 565 124 Z"/>
  <path id="z31309d16" d="M 713 91 Q 755 39 804 -35 Q 817 -57 831 -64 Q 840 -67 849 -58 Q 864 -46 858 0 Q 855 54 719 122 Q 710 129 707 116 Q 704 103 713 91 Z"/>
<defs>
  <clipPath id="z31309c1"><use href="#z31309d1"/></clipPath>
  <clipPath id="z31309c2"><use href="#z31309d2"/></clipPath>
  <clipPath id="z31309c3"><use href="#z31309d3"/></clipPath>
  <clipPath id="z31309c4"><use href="#z31309d4"/></clipPath>
  <clipPath id="z31309c5"><use href="#z31309d5"/></clipPath>
  <clipPath id="z31309c6"><use href="#z31309d6"/></clipPath>
  <clipPath id="z31309c7"><use href="#z31309d7"/></clipPath>
  <clipPath id="z31309c8"><use href="#z31309d8"/></clipPath>
  <clipPath id="z31309c9"><use href="#z31309d9"/></clipPath>
  <clipPath id="z31309c10"><use href="#z31309d10"/></clipPath>
  <clipPath id="z31309c11"><use href="#z31309d11"/></clipPath>
  <clipPath id="z31309c12"><use href="#z31309d12"/></clipPath>
  <clipPath id="z31309c13"><use href="#z31309d13"/></clipPath>
  <clipPath id="z31309c14"><use href="#z31309d14"/></clipPath>
  <clipPath id="z31309c15"><use href="#z31309d15"/></clipPath>
  <clipPath id="z31309c16"><use href="#z31309d16"/></clipPath>
</defs>
<path style="--d:1s;" pathLength="3333" clip-path="url(#z31309c1)" d="M 434 747 L 370 750 L 315 705 L 267 680 L 257 669 L 225 659 L 221 651 L 200 649 L 191 638"/>
<path style="--d:2s;" pathLength="3333" clip-path="url(#z31309c2)" d="M 77 484 L 92 479 L 138 481 L 358 548 L 401 555 L 429 552"/>
<path style="--d:3s;" pathLength="3333" clip-path="url(#z31309c3)" d="M 291 667 L 314 655 L 322 639 L 302 94 L 315 6"/>
<path style="--d:4s;" pathLength="3333" clip-path="url(#z31309c4)" d="M 295 502 L 285 493 L 274 440 L 202 319 L 117 211 L 62 154"/>
<path style="--d:5s;" pathLength="3333" clip-path="url(#z31309c5)" d="M 342 413 L 422 364 L 438 340"/>
<path style="--d:6s;" pathLength="3333" clip-path="url(#z31309c6)" d="M 527 710 L 596 710 L 784 762 L 829 766"/>
<path style="--d:7s;" pathLength="3333" clip-path="url(#z31309c7)" d="M 555 622 L 578 617 L 633 623 L 740 652 L 797 658"/>
<path style="--d:8s;" pathLength="3333" clip-path="url(#z31309c8)" d="M 636 846 L 675 811 L 669 573 L 655 554"/>
<path style="--d:9s;" pathLength="3333" clip-path="url(#z31309c9)" d="M 432 503 L 476 498 L 658 535 L 897 570 L 963 557"/>
<path style="--d:10s;" pathLength="3333" clip-path="url(#z31309c10)" d="M 526 446 L 548 424 L 556 403 L 559 303 L 549 197 L 551 155"/>
<path style="--d:11s;" pathLength="3333" clip-path="url(#z31309c11)" d="M 573 442 L 588 430 L 755 465 L 774 458 L 803 428 L 797 341 L 802 224 L 795 141"/>
<path style="--d:12s;" pathLength="3333" clip-path="url(#z31309c12)" d="M 585 344 L 593 354 L 716 372"/>
<path style="--d:13s;" pathLength="3333" clip-path="url(#z31309c13)" d="M 581 265 L 675 287 L 720 288"/>
<path style="--d:14s;" pathLength="3333" clip-path="url(#z31309c14)" d="M 572 172 L 589 185 L 612 190 L 716 206 L 756 206"/>
<path style="--d:15s;" pathLength="3333" clip-path="url(#z31309c15)" d="M 623 103 L 591 98 L 538 41 L 462 -15 L 402 -44"/>
<path style="--d:16s;" pathLength="3333" clip-path="url(#z31309c16)" d="M 718 110 L 816 12 L 836 -48"/>
</svg>