<svg id="z32186" class="acjk" viewBox="0 0 1024 1024" xmlns="http://www.w3.org/2000/svg">
  <path id="z32186d1" d="M 327 563 Q 281 562 244 558 Q 213 557 228 576 Q 292 682 353 761 Q 366 777 364 786 Q 361 799 323 831 Q 307 844 288 840 Q 278 837 283 822 Q 299 783 218 630 Q 202 596 164 563 Q 145 548 148 536 Q 152 517 167 500 Q 177 490 190 497 Q 227 519 311 536 C 340 542 357 564 327 563 Z"/>
  <path id="z32186d2" d="M 362 419 Q 317 410 263 391 Q 242 382 255 401 Q 294 458 386 571 Q 414 608 438 629 Q 450 639 444 649 Q 434 668 400 686 Q 384 695 375 692 Q 365 689 368 674 Q 369 641 327 563 L 311 536 Q 200 383 180 373 Q 167 363 171 350 Q 172 337 198 319 Q 210 307 223 320 Q 271 359 367 402 C 394 414 391 425 362 419 Z"/>
  <path id="z32186d3" d="M 367 402 Q 374 387 380 378 Q 389 369 401 374 Q 410 380 415 393 Q 421 430 380 473 Q 371 483 364 485 Q 360 486 356 477 Q 352 471 362 419 L 367 402 Z"/>
  <path id="z32186d4" d="M 122 193 Q 138 153 154 109 Q 160 91 174 85 Q 183 81 193 90 Q 203 100 209 129 Q 215 166 139 236 Q 127 246 121 247 Q 115 246 110 234 Q 109 222 122 193 Z"/>
  <path id="z32186d5" d="M 237 242 Q 261 188 271 184 Q 278 183 286 189 Q 293 198 295 220 Q 296 233 281 249 Q 241 282 232 282 Q 228 281 225 272 Q 225 263 237 242 Z"/>
  <path id="z32186d6" d="M 327 292 Q 342 267 356 236 Q 363 223 374 219 Q 381 218 390 225 Q 397 235 398 259 Q 399 275 380 295 Q 331 337 320 334 Q 316 333 313 323 Q 313 314 327 292 Z"/>
  <path id="z32186d7" d="M 660 674 Q 816 713 819 714 Q 826 721 823 729 Q 816 739 790 746 Q 766 750 669 720 L 614 706 Q 571 699 528 694 Q 494 688 519 673 Q 555 654 605 663 L 660 674 Z"/>
  <path id="z32186d8" d="M 605 663 Q 584 591 498 514 Q 486 504 498 503 Q 549 509 600 565 Q 630 598 660 674 L 669 720 Q 669 772 685 814 Q 692 832 676 838 Q 628 865 606 856 Q 594 852 601 838 Q 626 798 614 706 L 605 663 Z"/>
  <path id="z32186d9" d="M 702 593 Q 730 560 763 546 Q 776 545 784 556 Q 788 568 785 582 Q 773 615 711 628 Q 696 631 689 627 Q 683 626 686 615 Q 687 605 702 593 Z"/>
  <path id="z32186d10" d="M 767 465 Q 831 472 916 472 Q 974 472 980 482 Q 984 492 969 506 Q 917 542 881 534 Q 776 510 440 458 Q 419 455 435 439 Q 448 426 466 421 Q 487 417 502 421 Q 619 455 717 461 L 767 465 Z"/>
  <path id="z32186d11" d="M 501 352 Q 491 356 466 360 Q 456 363 452 358 Q 448 352 455 338 Q 476 299 490 234 Q 494 215 505 202 Q 521 183 526 197 Q 529 204 529 217 L 526 246 Q 516 309 516 327 C 515 347 515 347 501 352 Z"/>
  <path id="z32186d12" d="M 663 265 Q 678 311 694 325 Q 716 349 694 363 Q 676 373 651 390 Q 633 400 616 390 Q 586 372 501 352 C 472 345 488 317 516 327 Q 519 330 594 344 Q 616 348 621 339 Q 627 335 622 310 Q 618 291 613 269 C 606 240 653 237 663 265 Z"/>
  <path id="z32186d13" d="M 529 217 Q 536 216 548 218 Q 588 227 674 235 Q 684 236 684 245 Q 684 252 663 265 L 613 269 L 612 269 Q 564 256 526 246 C 497 238 499 219 529 217 Z"/>
  <path id="z32186d14" d="M 717 461 Q 718 455 725 445 Q 737 420 736 377 Q 739 289 741 88 Q 740 52 729 39 Q 717 32 687 40 Q 668 44 645 48 Q 632 52 633 44 Q 633 35 644 26 Q 705 -25 742 -65 Q 755 -75 769 -58 Q 814 -3 806 81 Q 794 271 801 400 Q 808 428 801 439 Q 794 451 767 465 C 741 480 704 488 717 461 Z"/>
<defs>
  <clipPath id="z32186c1"><use href="#z32186d1"/></clipPath>
  <clipPath id="z32186c2"><use href="#z32186d2"/></clipPath>
  <clipPath id="z32186c3"><use href="#z32186d3"/></clipPath>
  <clipPath id="z32186c4"><use href="#z32186d4"/></clipPath>
  <clipPath id="z32186c5"><use href="#z32186d5"/></clipPath>
  <clipPath id="z32186c6"><use href="#z32186d6"/></clipPath>
  <clipPath id="z32186c7"><use href="#z32186d7"/></clipPath>
  <clipPath id="z32186c8"><use href="#z32186d8"/></clipPath>
  <clipPath id="z32186c9"><use href="#z32186d9"/></clipPath>
  <clipPath id="z32186c10"><use href="#z32186d10"/></clipPath>
  <clipPath id="z32186c11"><use href="#z32186d11"/></clipPath>
  <clipPath id="z32186c12"><use href="#z32186d12"/></clipPath>
  <clipPath id="z32186c13"><use href="#z32186d13"/></clipPath>
  <clipPath id="z32186c14"><use href="#z32186d14"/></clipPath>
</defs>
<path style="--d:1s;" pathLength="3333" clip-path="url(#z32186c1)" d="M 293 829 L 307 817 L 320 777 L 207 578 L 194 541 L 241 538 L 298 546 L 320 558"/>
<path style="--d:2s;" pathLength="3333" clip-path="url(#z32186c2)" d="M 380 680 L 401 644 L 330 529 L 241 414 L 231 372 L 260 370 L 354 405 L 357 413"/>
<path style="--d:3s;" pathLength="3333" clip-path="url(#z32186c3)" d="M 364 477 L 387 422 L 393 390"/>
<path style="--d:4s;" pathLength="3333" clip-path="url(#z32186c4)" d="M 122 239 L 172 152 L 180 101"/>
<path style="--d:5s;" pathLength="3333" clip-path="url(#z32186c5)" d="M 233 274 L 268 230 L 276 195"/>
<path style="--d:6s;" pathLength="3333" clip-path="url(#z32186c6)" d="M 322 325 L 371 265 L 376 233"/>
<path style="--d:7s;" pathLength="3333" clip-path="url(#z32186c7)" d="M 521 685 L 580 680 L 668 696 L 779 726 L 816 723"/>
<path style="--d:8s;" pathLength="3333" clip-path="url(#z32186c8)" d="M 609 846 L 648 814 L 634 674 L 595 591 L 547 538 L 504 509"/>
<path style="--d:9s;" pathLength="3333" clip-path="url(#z32186c9)" d="M 696 619 L 750 585 L 768 565"/>
<path style="--d:10s;" pathLength="3333" clip-path="url(#z32186c10)" d="M 438 448 L 485 442 L 644 473 L 884 503 L 918 502 L 972 487"/>
<path style="--d:11s;" pathLength="3333" clip-path="url(#z32186c11)" d="M 460 353 L 491 321 L 516 202"/>
<path style="--d:12s;" pathLength="3333" clip-path="url(#z32186c12)" d="M 512 350 L 522 343 L 611 365 L 641 362 L 659 341 L 657 331 L 645 292 L 620 275"/>
<path style="--d:13s;" pathLength="3333" clip-path="url(#z32186c13)" d="M 533 225 L 550 236 L 613 249 L 674 245"/>
<path style="--d:14s;" pathLength="3333" clip-path="url(#z32186c14)" d="M 723 459 L 761 434 L 769 415 L 773 54 L 762 15 L 748 -4 L 706 8 L 641 41"/>
</svg>