<svg id="z33551" class="acjk" viewBox="0 0 1024 1024" xmlns="http://www.w3.org/2000/svg">
  <path id="z33551d1" d="M 631 674 Q 716 683 809 677 Q 825 676 831 686 Q 835 698 822 713 Q 770 758 684 734 Q 668 733 652 728 L 591 718 Q 509 706 422 693 L 369 686 Q 291 677 208 668 Q 177 664 199 648 Q 245 618 314 633 Q 345 642 379 647 L 425 655 Q 470 664 580 671 L 631 674 Z"/>
  <path id="z33551d2" d="M 422 693 Q 419 724 418 749 Q 419 770 397 776 Q 358 797 331 788 Q 312 779 329 758 Q 357 727 369 686 L 379 647 Q 394 590 407 576 Q 420 566 426 578 Q 430 593 425 655 L 422 693 Z"/>
  <path id="z33551d3" d="M 652 728 Q 661 753 679 785 Q 695 801 683 812 Q 670 830 633 848 Q 615 858 596 848 Q 586 841 594 829 Q 604 805 591 718 L 580 671 Q 561 599 562 584 Q 563 568 580 581 Q 595 594 631 674 L 652 728 Z"/>
  <path id="z33551d4" d="M 474 396 Q 550 409 628 420 Q 698 433 709 441 Q 719 450 715 459 Q 708 472 677 482 Q 644 489 612 479 Q 551 463 487 447 L 426 434 Q 335 421 233 415 Q 193 411 220 391 Q 263 364 342 376 Q 378 382 415 386 L 474 396 Z"/>
  <path id="z33551d5" d="M 415 386 Q 379 248 333 176 Q 266 95 258 88 Q 242 76 178 33 Q 162 24 156 18 Q 153 11 165 9 Q 202 3 288 60 Q 379 124 429 255 Q 451 313 474 396 L 487 447 Q 488 451 490 456 Q 499 475 502 486 Q 512 505 494 519 Q 451 553 435 554 Q 416 554 426 529 Q 436 498 430 459 Q 429 449 426 434 L 415 386 Z"/>
  <path id="z33551d6" d="M 927 48 Q 905 105 888 202 Q 885 218 877 222 Q 870 226 867 206 Q 863 83 846 60 Q 818 27 693 22 Q 626 22 596 33 Q 571 46 564 62 Q 554 90 555 155 L 560 203 Q 566 258 580 286 Q 593 316 574 333 Q 525 372 508 368 Q 493 362 500 345 Q 519 308 514 252 Q 511 203 511 166 L 510 131 Q 510 38 552 5 Q 606 -35 792 -25 Q 877 -21 911 -1 Q 941 15 927 48 Z"/>
  <path id="z33551d7" d="M 555 155 Q 651 215 698 254 Q 726 279 746 289 Q 756 295 757 308 Q 757 320 739 346 Q 723 368 706 374 Q 690 377 691 357 Q 694 317 566 208 Q 563 207 560 203 L 511 166 Q 457 135 451 125 Q 445 118 458 115 Q 459 115 510 131 L 555 155 Z"/>
  <path id="z33551d8" d="M 679 551 Q 716 523 756 490 Q 768 480 781 481 Q 790 481 793 492 Q 797 505 789 529 Q 777 565 674 590 Q 661 593 656 591 Q 652 587 653 577 Q 657 567 679 551 Z"/>
<defs>
  <clipPath id="z33551c1"><use href="#z33551d1"/></clipPath>
  <clipPath id="z33551c2"><use href="#z33551d2"/></clipPath>
  <clipPath id="z33551c3"><use href="#z33551d3"/></clipPath>
  <clipPath id="z33551c4"><use href="#z33551d4"/></clipPath>
  <clipPath id="z33551c5"><use href="#z33551d5"/></clipPath>
  <clipPath id="z33551c6"><use href="#z33551d6"/></clipPath>
  <clipPath id="z33551c7"><use href="#z33551d7"/></clipPath>
  <clipPath id="z33551c8"><use href="#z33551d8"/></clipPath>
</defs>
<path style="--d:1s;" pathLength="3333" clip-path="url(#z33551c1)" d="M 201 659 L 223 653 L 287 652 L 462 680 L 731 711 L 780 707 L 818 692"/>
<path style="--d:2s;" pathLength="3333" clip-path="url(#z33551c2)" d="M 337 773 L 357 765 L 384 741 L 416 582"/>
<path style="--d:3s;" pathLength="3333" clip-path="url(#z33551c3)" d="M 602 838 L 619 829 L 639 796 L 605 671 L 571 583"/>
<path style="--d:4s;" pathLength="3333" clip-path="url(#z33551c4)" d="M 224 405 L 268 395 L 312 396 L 448 414 L 646 455 L 701 454"/>
<path style="--d:5s;" pathLength="3333" clip-path="url(#z33551c5)" d="M 435 540 L 457 514 L 466 485 L 433 349 L 383 212 L 336 139 L 268 69 L 208 33 L 164 17"/>
<path style="--d:6s;" pathLength="3333" clip-path="url(#z33551c6)" d="M 512 354 L 549 305 L 533 172 L 538 73 L 557 32 L 589 11 L 649 0 L 758 -1 L 836 12 L 873 28 L 884 36 L 885 56 L 876 214"/>
<path style="--d:7s;" pathLength="3333" clip-path="url(#z33551c7)" d="M 703 362 L 713 341 L 715 313 L 676 272 L 571 186 L 458 122"/>
<path style="--d:8s;" pathLength="3333" clip-path="url(#z33551c8)" d="M 660 583 L 750 532 L 781 493"/>
</svg>