<svg id="z32286" class="acjk" viewBox="0 0 1024 1024" xmlns="http://www.w3.org/2000/svg">
  <path id="z32286d1" d="M 291 506 Q 249 506 214 504 Q 181 503 197 524 Q 257 633 314 716 Q 327 732 324 740 Q 321 753 283 782 Q 267 794 249 790 Q 239 786 245 772 Q 263 733 188 579 Q 172 545 136 509 Q 118 494 121 483 Q 125 465 140 449 Q 146 443 178 454 Q 208 469 276 482 C 305 488 321 506 291 506 Z"/>
  <path id="z32286d2" d="M 333 371 Q 290 361 239 341 Q 215 331 229 351 Q 350 541 412 602 Q 424 612 417 622 Q 405 641 372 657 Q 356 666 347 662 Q 337 658 340 643 Q 343 601 291 506 L 276 482 Q 174 332 155 320 Q 142 310 146 296 Q 149 283 175 266 Q 187 256 200 268 Q 248 310 341 353 C 368 366 362 378 333 371 Z"/>
  <path id="z32286d3" d="M 341 353 Q 341 352 343 349 Q 352 331 364 327 Q 374 323 384 335 Q 388 345 387 363 Q 380 390 331 424 Q 324 428 320 419 Q 316 413 320 404 Q 324 388 333 371 L 341 353 Z"/>
  <path id="z32286d4" d="M 121 157 Q 133 109 142 55 Q 145 37 157 29 Q 166 23 177 30 Q 190 39 200 66 Q 210 90 192 127 Q 144 208 129 210 Q 123 210 117 199 Q 113 189 121 157 Z"/>
  <path id="z32286d5" d="M 236 199 Q 252 171 267 139 Q 271 129 281 125 Q 288 124 294 129 Q 300 136 302 156 Q 303 184 245 228 Q 238 234 232 234 Q 228 233 226 225 Q 226 218 236 199 Z"/>
  <path id="z32286d6" d="M 322 241 Q 361 184 369 183 Q 376 182 382 189 Q 386 198 386 219 Q 386 234 368 249 Q 322 282 312 278 Q 308 277 307 268 Q 308 259 322 241 Z"/>
  <path id="z32286d7" d="M 590 791 Q 617 773 646 750 Q 661 740 675 741 Q 685 742 689 756 Q 692 771 680 798 Q 673 816 643 826 Q 573 844 560 835 Q 556 831 558 819 Q 562 809 590 791 Z"/>
  <path id="z32286d8" d="M 493 662 Q 459 656 483 641 Q 519 617 572 630 Q 666 648 763 666 Q 808 676 814 682 Q 823 689 819 697 Q 812 707 786 715 Q 761 721 683 696 Q 566 668 493 662 Z"/>
  <path id="z32286d9" d="M 540 552 Q 530 556 503 559 Q 493 560 490 556 Q 486 550 494 537 Q 518 500 536 436 Q 540 417 554 405 Q 570 387 573 401 Q 574 408 574 421 L 569 449 Q 556 504 552 525 C 547 550 547 550 540 552 Z"/>
  <path id="z32286d10" d="M 740 474 Q 761 523 785 539 Q 798 555 786 569 Q 773 581 728 601 Q 710 608 653 582 Q 581 561 540 552 C 511 545 523 518 552 525 Q 699 562 705 557 L 706 556 Q 712 550 710 539 Q 703 505 695 478 C 687 449 728 447 740 474 Z"/>
  <path id="z32286d11" d="M 574 421 Q 578 421 585 422 Q 637 434 750 446 Q 759 447 760 454 Q 760 461 740 474 C 726 484 725 483 695 478 L 693 478 Q 624 460 569 449 C 540 443 544 419 574 421 Z"/>
  <path id="z32286d12" d="M 466 321 Q 450 337 418 335 Q 406 331 412 321 Q 451 248 421 123 Q 399 71 433 35 Q 440 23 448 29 Q 475 48 475 190 Q 475 263 477 287 C 479 311 479 311 466 321 Z"/>
  <path id="z32286d13" d="M 477 287 Q 558 314 798 342 Q 814 343 827 333 Q 846 326 848 297 Q 852 227 835 99 Q 835 75 812 75 Q 785 78 763 80 Q 747 81 751 73 Q 752 63 781 43 Q 815 15 835 -18 Q 848 -28 861 -21 Q 871 -17 885 19 Q 909 71 904 173 Q 900 314 911 332 Q 921 344 913 355 Q 903 365 861 384 Q 843 391 827 382 Q 805 375 739 367 Q 646 352 576 339 Q 512 327 466 321 C 436 317 448 279 477 287 Z"/>
  <path id="z32286d14" d="M 563 249 Q 556 253 537 255 Q 528 258 526 254 Q 522 250 528 238 Q 547 199 559 136 Q 560 117 572 105 Q 585 89 589 100 Q 592 110 591 125 L 588 153 Q 578 208 578 226 C 577 243 577 243 563 249 Z"/>
  <path id="z32286d15" d="M 726 168 Q 741 216 758 229 Q 777 251 758 263 Q 742 273 720 288 Q 702 297 661 274 Q 613 259 563 249 C 534 243 549 218 578 226 Q 588 229 664 246 Q 688 252 694 242 Q 698 238 693 215 Q 689 197 683 176 C 675 147 717 139 726 168 Z"/>
  <path id="z32286d16" d="M 591 125 Q 597 124 605 126 Q 645 135 734 142 Q 743 143 744 150 Q 744 156 726 168 L 683 176 Q 679 176 677 175 Q 628 162 588 153 C 559 146 561 127 591 125 Z"/>
<defs>
  <clipPath id="z32286c1"><use href="#z32286d1"/></clipPath>
  <clipPath id="z32286c2"><use href="#z32286d2"/></clipPath>
  <clipPath id="z32286c3"><use href="#z32286d3"/></clipPath>
  <clipPath id="z32286c4"><use href="#z32286d4"/></clipPath>
  <clipPath id="z32286c5"><use href="#z32286d5"/></clipPath>
  <clipPath id="z32286c6"><use href="#z32286d6"/></clipPath>
  <clipPath id="z32286c7"><use href="#z32286d7"/></clipPath>
  <clipPath id="z32286c8"><use href="#z32286d8"/></clipPath>
  <clipPath id="z32286c9"><use href="#z32286d9"/></clipPath>
  <clipPath id="z32286c10"><use href="#z32286d10"/></clipPath>
  <clipPath id="z32286c11"><use href="#z32286d11"/></clipPath>
  <clipPath id="z32286c12"><use href="#z32286d12"/></clipPath>
  <clipPath id="z32286c13"><use href="#z32286d13"/></clipPath>
  <clipPath id="z32286c14"><use href="#z32286d14"/></clipPath>
  <clipPath id="z32286c15"><use href="#z32286d15"/></clipPath>
  <clipPath id="z32286c16"><use href="#z32286d16"/></clipPath>
</defs>
<path style="--d:1s;" pathLength="3333" clip-path="url(#z32286c1)" d="M 254 779 L 268 768 L 282 730 L 239 637 L 177 527 L 164 487 L 246 489 L 271 494 L 283 503"/>
<path style="--d:2s;" pathLength="3333" clip-path="url(#z32286c2)" d="M 353 649 L 374 616 L 299 484 L 210 356 L 209 321 L 236 320 L 326 357 L 328 363"/>
<path style="--d:3s;" pathLength="3333" clip-path="url(#z32286c3)" d="M 330 412 L 357 373 L 369 344"/>
<path style="--d:4s;" pathLength="3333" clip-path="url(#z32286c4)" d="M 129 203 L 169 94 L 166 43"/>
<path style="--d:5s;" pathLength="3333" clip-path="url(#z32286c5)" d="M 236 225 L 275 171 L 284 139"/>
<path style="--d:6s;" pathLength="3333" clip-path="url(#z32286c6)" d="M 315 270 L 358 229 L 372 193"/>
<path style="--d:7s;" pathLength="3333" clip-path="url(#z32286c7)" d="M 566 829 L 640 795 L 672 758"/>
<path style="--d:8s;" pathLength="3333" clip-path="url(#z32286c8)" d="M 485 653 L 508 646 L 545 646 L 773 693 L 808 692"/>
<path style="--d:9s;" pathLength="3333" clip-path="url(#z32286c9)" d="M 498 551 L 529 523 L 564 404"/>
<path style="--d:10s;" pathLength="3333" clip-path="url(#z32286c10)" d="M 547 547 L 564 539 L 670 572 L 716 579 L 738 563 L 745 549 L 726 499 L 703 483"/>
<path style="--d:11s;" pathLength="3333" clip-path="url(#z32286c11)" d="M 577 443 L 587 437 L 689 459 L 751 455"/>
<path style="--d:12s;" pathLength="3333" clip-path="url(#z32286c12)" d="M 425 324 L 445 306 L 454 264 L 455 178 L 441 94 L 442 37"/>
<path style="--d:13s;" pathLength="3333" clip-path="url(#z32286c13)" d="M 473 317 L 485 308 L 495 309 L 771 356 L 817 360 L 857 352 L 873 337 L 876 320 L 876 186 L 864 68 L 847 40 L 759 72"/>
<path style="--d:14s;" pathLength="3333" clip-path="url(#z32286c14)" d="M 532 249 L 558 221 L 581 105"/>
<path style="--d:15s;" pathLength="3333" clip-path="url(#z32286c15)" d="M 571 246 L 583 240 L 677 265 L 713 262 L 727 244 L 725 234 L 711 193 L 691 181"/>
<path style="--d:16s;" pathLength="3333" clip-path="url(#z32286c16)" d="M 597 133 L 612 144 L 683 156 L 736 150"/>
</svg>