<svg id="z34430" class="acjk" viewBox="0 0 1024 1024" xmlns="http://www.w3.org/2000/svg">
  <path id="z34430d1" d="M 143 512 Q 130 516 104 520 Q 92 523 89 518 Q 82 511 92 496 Q 117 447 137 364 Q 141 339 156 323 Q 174 301 179 317 Q 183 327 182 344 L 178 374 Q 162 461 160 484 C 157 508 157 508 143 512 Z"/>
  <path id="z34430d2" d="M 408 406 Q 435 487 464 505 Q 479 521 465 538 Q 399 592 345 561 Q 321 554 300 545 L 256 533 Q 199 521 143 512 C 113 507 131 475 160 484 Q 187 493 256 506 L 299 516 Q 368 534 379 524 Q 386 517 385 500 Q 375 455 364 417 C 356 388 398 378 408 406 Z"/>
  <path id="z34430d3" d="M 296 364 Q 345 371 413 379 Q 423 380 424 389 Q 424 395 408 406 C 388 421 388 421 364 417 Q 336 413 297 400 L 257 390 Q 214 381 178 374 C 149 368 152 345 182 344 Q 189 343 200 345 Q 222 352 256 357 L 296 364 Z"/>
  <path id="z34430d4" d="M 293 228 Q 294 298 296 364 L 297 400 Q 298 460 299 516 L 300 545 Q 300 641 320 727 Q 323 737 303 753 Q 267 771 242 774 Q 226 778 218 769 Q 211 762 219 746 Q 250 700 251 670 Q 254 604 256 533 L 256 506 Q 257 451 257 390 L 256 357 Q 255 290 251 216 C 249 186 293 198 293 228 Z"/>
  <path id="z34430d5" d="M 378 254 Q 335 242 293 228 L 251 216 Q 194 200 133 183 Q 114 177 82 178 Q 69 177 68 167 Q 65 154 75 146 Q 97 130 130 111 Q 140 107 152 116 Q 182 138 365 219 Q 378 226 391 232 C 418 245 407 262 378 254 Z"/>
  <path id="z34430d6" d="M 391 232 Q 422 178 432 175 Q 441 172 449 181 Q 458 191 459 219 Q 460 241 436 267 Q 370 321 361 318 Q 355 317 353 306 L 378 254 L 391 232 Z"/>
  <path id="z34430d7" d="M 642 630 Q 712 645 877 667 Q 890 666 900 680 Q 901 695 875 707 Q 833 731 756 706 Q 630 679 445 650 Q 411 646 437 625 Q 473 598 523 606 Q 560 615 605 623 L 642 630 Z"/>
  <path id="z34430d8" d="M 666 463 Q 666 586 669 596 Q 673 609 642 630 C 618 648 596 652 605 623 Q 632 575 597 87 Q 588 30 619 -9 Q 631 -25 642 -6 Q 663 36 664 103 Q 661 139 665 433 L 666 463 Z"/>
  <path id="z34430d9" d="M 665 433 Q 743 384 838 310 Q 856 294 871 292 Q 878 292 885 303 Q 894 316 876 356 Q 852 410 666 463 C 637 471 640 449 665 433 Z"/>
<defs>
  <clipPath id="z34430c1"><use href="#z34430d1"/></clipPath>
  <clipPath id="z34430c2"><use href="#z34430d2"/></clipPath>
  <clipPath id="z34430c3"><use href="#z34430d3"/></clipPath>
  <clipPath id="z34430c4"><use href="#z34430d4"/></clipPath>
  <clipPath id="z34430c5"><use href="#z34430d5"/></clipPath>
  <clipPath id="z34430c6"><use href="#z34430d6"/></clipPath>
  <clipPath id="z34430c7"><use href="#z34430d7"/></clipPath>
  <clipPath id="z34430c8"><use href="#z34430d8"/></clipPath>
  <clipPath id="z34430c9"><use href="#z34430d9"/></clipPath>
</defs>
<path style="--d:1s;" pathLength="3333" clip-path="url(#z34430c1)" d="M 98 510 L 122 492 L 135 467 L 168 322"/>
<path style="--d:2s;" pathLength="3333" clip-path="url(#z34430c2)" d="M 150 510 L 170 502 L 244 515 L 360 547 L 392 547 L 423 521 L 393 433 L 373 421"/>
<path style="--d:3s;" pathLength="3333" clip-path="url(#z34430c3)" d="M 186 352 L 212 365 L 362 395 L 414 388"/>
<path style="--d:4s;" pathLength="3333" clip-path="url(#z34430c4)" d="M 230 760 L 278 721 L 280 694 L 274 252 L 256 224"/>
<path style="--d:5s;" pathLength="3333" clip-path="url(#z34430c5)" d="M 81 165 L 136 148 L 371 238 L 382 234"/>
<path style="--d:6s;" pathLength="3333" clip-path="url(#z34430c6)" d="M 362 309 L 425 233 L 436 187"/>
<path style="--d:7s;" pathLength="3333" clip-path="url(#z34430c7)" d="M 439 638 L 488 630 L 523 634 L 818 689 L 850 690 L 888 682"/>
<path style="--d:8s;" pathLength="3333" clip-path="url(#z34430c8)" d="M 611 624 L 638 600 L 642 558 L 642 420 L 627 52 L 630 -4"/>
<path style="--d:9s;" pathLength="3333" clip-path="url(#z34430c9)" d="M 677 455 L 681 442 L 753 407 L 834 356 L 853 336 L 869 306"/>
</svg>