<svg id="z38579" class="acjk" viewBox="0 0 1024 1024" xmlns="http://www.w3.org/2000/svg">
  <path id="z38579d1" d="M 403 577 Q 387 611 359 635 Q 346 648 344 657 Q 341 667 350 678 Q 389 733 408 747 Q 426 757 417 769 Q 405 785 373 802 Q 355 809 343 798 Q 301 767 250 755 C 221 747 229 722 258 729 Q 289 735 321 749 Q 334 756 342 749 Q 346 745 340 731 Q 328 703 318 676 Q 308 654 320 638 Q 368 577 358 560 Q 354 551 333 553 Q 309 556 283 555 Q 262 555 286 544 Q 335 523 379 496 Q 392 487 400 498 Q 410 505 415 526 Q 416 544 406 569 L 403 577 Z"/>
  <path id="z38579d2" d="M 250 755 Q 235 770 203 781 Q 194 782 189 775 Q 186 769 193 760 Q 236 628 200 460 Q 187 420 191 400 Q 200 370 210 359 Q 220 347 229 360 Q 253 388 253 559 Q 253 691 258 729 C 260 747 260 747 250 755 Z"/>
  <path id="z38579d3" d="M 535 763 Q 531 764 526 763 Q 492 759 455 753 Q 430 749 450 735 Q 469 722 509 721 Q 512 722 516 722 L 564 734 Q 687 761 769 771 Q 779 770 786 781 Q 787 791 767 800 Q 734 818 681 798 Q 632 788 586 773 L 535 763 Z"/>
  <path id="z38579d4" d="M 586 773 Q 602 812 614 822 Q 618 826 617 834 Q 616 841 605 849 Q 574 868 555 861 Q 549 860 551 850 Q 560 826 535 763 L 516 722 Q 488 671 403 577 C 390 562 390 562 406 569 Q 487 599 564 734 L 586 773 Z"/>
  <path id="z38579d5" d="M 661 677 Q 686 684 714 690 Q 733 694 736 697 Q 743 704 739 711 Q 732 720 709 725 Q 687 728 620 705 Q 593 699 561 694 Q 533 688 554 676 Q 581 661 618 667 L 661 677 Z"/>
  <path id="z38579d6" d="M 661 629 L 661 677 C 661 707 618 697 618 667 L 618 620 C 618 590 661 599 661 629 Z"/>
  <path id="z38579d7" d="M 618 620 Q 554 610 480 596 Q 465 593 476 582 Q 486 573 499 570 Q 512 567 524 571 Q 641 610 813 611 L 815 611 Q 828 612 831 617 Q 835 626 823 634 Q 781 664 739 646 Q 705 640 661 629 L 618 620 Z"/>
  <path id="z38579d8" d="M 560 421 Q 560 442 561 457 L 562 477 Q 563 507 565 518 C 567 536 567 536 563 540 Q 560 544 554 548 Q 535 558 522 557 Q 513 553 517 546 Q 541 491 516 413 Q 501 383 525 353 Q 529 344 537 348 Q 552 361 558 399 L 560 421 Z"/>
  <path id="z38579d9" d="M 565 518 Q 595 522 681 541 Q 696 545 700 538 Q 721 471 705 368 Q 702 362 699 357 Q 696 356 643 363 Q 628 367 629 361 Q 669 327 693 300 Q 703 285 714 282 Q 721 279 727 286 Q 755 322 757 368 Q 738 494 756 528 Q 766 541 757 550 Q 706 592 667 565 Q 616 547 563 540 C 533 536 535 513 565 518 Z"/>
  <path id="z38579d10" d="M 561 457 Q 562 457 565 457 Q 620 466 662 471 Q 678 474 673 483 Q 666 493 647 496 Q 617 502 562 477 C 535 465 531 457 561 457 Z"/>
  <path id="z38579d11" d="M 558 399 Q 619 406 665 411 Q 681 412 676 423 Q 669 433 651 437 Q 627 441 560 421 C 531 412 528 396 558 399 Z"/>
  <path id="z38579d12" d="M 468 365 Q 471 369 475 371 Q 485 383 484 392 Q 483 405 457 414 Q 429 426 417 423 Q 410 422 406 410 Q 379 308 118 132 Q 96 119 123 120 Q 220 124 394 291 Q 410 312 451 349 L 468 365 Z"/>
  <path id="z38579d13" d="M 451 349 Q 452 348 456 346 Q 600 237 751 144 Q 776 126 814 132 Q 881 141 949 167 Q 965 173 967 178 Q 968 185 952 188 Q 894 200 825 210 Q 684 235 475 361 Q 471 364 468 365 C 442 380 426 366 451 349 Z"/>
  <path id="z38579d14" d="M 416 40 Q 388 44 360 51 Q 350 52 351 47 Q 352 41 361 35 Q 419 -13 443 -44 Q 455 -57 467 -45 Q 494 -15 490 71 Q 478 180 493 216 Q 500 231 486 241 Q 465 259 442 267 Q 426 271 420 266 Q 416 260 424 248 Q 443 217 444 57 Q 441 47 434 42 Q 427 36 416 40 Z"/>
  <path id="z38579d15" d="M 308 155 Q 286 119 258 89 Q 236 64 247 29 Q 251 13 273 21 Q 319 46 325 99 Q 334 127 330 152 Q 326 159 321 162 Q 314 161 308 155 Z"/>
  <path id="z38579d16" d="M 542 102 Q 558 78 573 50 Q 580 37 594 34 Q 603 33 609 41 Q 616 51 616 77 Q 616 93 595 112 Q 544 148 532 146 Q 528 145 526 134 Q 526 124 542 102 Z"/>
  <path id="z38579d17" d="M 627 138 Q 661 107 701 60 Q 714 42 727 39 Q 734 38 741 46 Q 751 58 741 94 Q 734 127 680 147 Q 646 159 628 164 Q 621 168 619 158 Q 618 146 627 138 Z"/>
<defs>
  <clipPath id="z38579c1"><use href="#z38579d1"/></clipPath>
  <clipPath id="z38579c2"><use href="#z38579d2"/></clipPath>
  <clipPath id="z38579c3"><use href="#z38579d3"/></clipPath>
  <clipPath id="z38579c4"><use href="#z38579d4"/></clipPath>
  <clipPath id="z38579c5"><use href="#z38579d5"/></clipPath>
  <clipPath id="z38579c6"><use href="#z38579d6"/></clipPath>
  <clipPath id="z38579c7"><use href="#z38579d7"/></clipPath>
  <clipPath id="z38579c8"><use href="#z38579d8"/></clipPath>
  <clipPath id="z38579c9"><use href="#z38579d9"/></clipPath>
  <clipPath id="z38579c10"><use href="#z38579d10"/></clipPath>
  <clipPath id="z38579c11"><use href="#z38579d11"/></clipPath>
  <clipPath id="z38579c12"><use href="#z38579d12"/></clipPath>
  <clipPath id="z38579c13"><use href="#z38579d13"/></clipPath>
  <clipPath id="z38579c14"><use href="#z38579d14"/></clipPath>
  <clipPath id="z38579c15"><use href="#z38579d15"/></clipPath>
  <clipPath id="z38579c16"><use href="#z38579d16"/></clipPath>
  <clipPath id="z38579c17"><use href="#z38579d17"/></clipPath>
</defs>
<path style="--d:1s;" pathLength="3333" clip-path="url(#z38579c1)" d="M 259 751 L 267 745 L 351 773 L 365 771 L 374 760 L 333 678 L 328 656 L 376 586 L 383 565 L 381 535 L 357 533 L 290 551"/>
<path style="--d:2s;" pathLength="3333" clip-path="url(#z38579c2)" d="M 200 770 L 227 739 L 234 668 L 235 546 L 217 408 L 219 364"/>
<path style="--d:3s;" pathLength="3333" clip-path="url(#z38579c3)" d="M 451 745 L 501 739 L 709 784 L 745 788 L 776 783"/>
<path style="--d:4s;" pathLength="3333" clip-path="url(#z38579c4)" d="M 562 852 L 582 829 L 535 717 L 466 625 L 419 583 L 412 583 L 410 575"/>
<path style="--d:5s;" pathLength="3333" clip-path="url(#z38579c5)" d="M 555 686 L 609 683 L 686 704 L 729 706"/>
<path style="--d:6s;" pathLength="3333" clip-path="url(#z38579c6)" d="M 655 671 L 624 628"/>
<path style="--d:7s;" pathLength="3333" clip-path="url(#z38579c7)" d="M 487 586 L 515 585 L 598 605 L 763 631 L 795 630 L 824 621"/>
<path style="--d:8s;" pathLength="3333" clip-path="url(#z38579c8)" d="M 526 548 L 541 535 L 545 522 L 534 358"/>
<path style="--d:9s;" pathLength="3333" clip-path="url(#z38579c9)" d="M 568 524 L 577 531 L 691 559 L 712 555 L 729 535 L 731 363 L 723 340 L 713 327 L 654 355 L 637 357"/>
<path style="--d:10s;" pathLength="3333" clip-path="url(#z38579c10)" d="M 563 462 L 574 471 L 607 479 L 665 480"/>
<path style="--d:11s;" pathLength="3333" clip-path="url(#z38579c11)" d="M 566 404 L 572 414 L 593 418 L 637 423 L 668 419"/>
<path style="--d:12s;" pathLength="3333" clip-path="url(#z38579c12)" d="M 468 390 L 436 384 L 369 301 L 240 191 L 183 154 L 127 129"/>
<path style="--d:13s;" pathLength="3333" clip-path="url(#z38579c13)" d="M 456 352 L 478 347 L 534 307 L 655 236 L 782 175 L 859 172 L 961 179"/>
<path style="--d:14s;" pathLength="3333" clip-path="url(#z38579c14)" d="M 426 261 L 450 242 L 464 221 L 466 42 L 449 7 L 358 43"/>
<path style="--d:15s;" pathLength="3333" clip-path="url(#z38579c15)" d="M 319 151 L 299 95 L 263 34"/>
<path style="--d:16s;" pathLength="3333" clip-path="url(#z38579c16)" d="M 534 137 L 582 88 L 596 50"/>
<path style="--d:17s;" pathLength="3333" clip-path="url(#z38579c17)" d="M 628 154 L 700 105 L 713 90 L 728 54"/>
</svg>