<svg id="z30278" class="acjk" viewBox="0 0 1024 1024" xmlns="http://www.w3.org/2000/svg">
  <path id="z30278d1" d="M 521 826 Q 543 810 566 788 Q 579 776 595 778 Q 605 779 609 792 Q 613 807 602 835 Q 590 859 513 872 Q 497 873 492 871 Q 488 867 489 855 Q 493 845 521 826 Z"/>
  <path id="z30278d2" d="M 336 675 Q 382 668 450 676 Q 786 725 805 741 Q 814 748 810 756 Q 804 769 776 777 Q 745 786 661 759 Q 508 720 332 707 C 302 705 306 679 336 675 Z"/>
  <path id="z30278d3" d="M 255 403 Q 219 217 102 34 Q 98 27 95 21 Q 94 11 103 13 Q 134 20 213 145 Q 229 175 245 209 Q 311 368 324 565 Q 330 656 336 675 C 341 701 341 701 332 707 Q 317 720 292 731 Q 274 741 262 736 Q 250 729 257 716 Q 275 689 276 631 Q 275 612 275 589 Q 271 507 261 434 L 255 403 Z"/>
  <path id="z30278d4" d="M 139 560 Q 154 539 170 515 Q 182 499 198 498 Q 208 497 217 509 Q 224 524 220 556 Q 216 581 143 610 Q 127 617 120 615 Q 114 612 114 598 Q 115 586 139 560 Z"/>
  <path id="z30278d5" d="M 261 434 L 260 434 Q 92 320 52 308 Q 42 304 43 294 Q 44 284 54 279 Q 78 272 109 264 Q 119 264 126 274 Q 142 299 245 393 Q 249 399 255 403 C 278 422 287 449 261 434 Z"/>
  <path id="z30278d6" d="M 373 561 Q 397 506 402 502 Q 408 501 414 505 Q 421 512 424 530 Q 425 552 384 587 Q 377 594 372 594 Q 368 593 366 586 Q 365 579 373 561 Z"/>
  <path id="z30278d7" d="M 473 539 Q 533 572 562 584 Q 572 585 571 592 Q 568 602 559 613 Q 549 625 536 628 Q 529 629 527 617 Q 527 605 476 556 C 454 535 447 525 473 539 Z"/>
  <path id="z30278d8" d="M 476 556 Q 482 604 486 617 Q 490 629 478 635 Q 450 651 441 650 Q 429 649 438 635 Q 459 598 433 510 Q 430 503 427 493 Q 415 462 385 439 Q 376 432 374 428 Q 373 424 380 424 Q 395 423 429 450 Q 460 480 473 539 L 476 556 Z"/>
  <path id="z30278d9" d="M 492 482 Q 534 448 541 448 Q 547 449 550 457 Q 551 466 546 483 Q 543 493 525 501 Q 482 513 476 510 Q 473 507 474 500 Q 475 493 492 482 Z"/>
  <path id="z30278d10" d="M 584 574 Q 626 525 640 523 Q 647 522 652 533 Q 653 540 648 552 Q 642 565 625 573 Q 600 588 587 590 Q 583 591 581 585 Q 580 581 584 574 Z"/>
  <path id="z30278d11" d="M 776 636 Q 760 614 724 578 Q 720 574 723 568 Q 727 567 734 569 Q 797 605 827 617 Q 840 618 838 627 Q 835 639 822 653 Q 810 668 794 670 Q 784 671 783 657 Q 784 647 776 636 Z"/>
  <path id="z30278d12" d="M 694 542 Q 694 543 695 545 Q 702 575 708 621 Q 711 634 712 641 Q 716 654 704 662 Q 673 678 662 678 Q 649 677 659 661 Q 681 621 655 531 Q 652 524 648 513 Q 639 491 593 445 Q 592 441 600 440 Q 621 437 653 468 Q 675 489 689 526 L 694 542 Z"/>
  <path id="z30278d13" d="M 689 526 Q 693 522 704 514 Q 729 495 755 471 Q 764 464 773 464 Q 779 465 782 472 Q 785 481 779 499 Q 773 521 701 542 Q 697 543 694 542 C 674 539 674 539 689 526 Z"/>
  <path id="z30278d14" d="M 390 380 Q 391 396 387 409 Q 383 415 379 415 Q 373 414 370 408 Q 351 356 324 308 Q 320 301 319 289 Q 318 271 324 261 Q 330 248 344 258 Q 374 282 386 347 L 390 380 Z"/>
  <path id="z30278d15" d="M 386 347 Q 405 343 422 346 Q 548 388 754 409 Q 793 413 806 411 Q 818 405 816 398 Q 816 395 787 337 Q 777 324 783 320 Q 790 316 807 326 Q 859 354 899 361 Q 933 367 933 376 Q 932 386 868 436 Q 847 455 764 440 Q 578 410 390 380 C 360 375 356 350 386 347 Z"/>
  <path id="z30278d16" d="M 564 239 Q 621 254 670 258 Q 692 259 695 253 Q 705 238 698 201 Q 685 96 658 51 Q 639 17 609 23 Q 587 27 567 34 Q 542 41 561 17 Q 600 -22 618 -52 Q 637 -74 655 -57 Q 718 -18 749 145 Q 762 229 781 252 Q 794 264 788 274 Q 779 284 730 308 Q 711 317 691 304 Q 667 291 576 272 L 514 259 Q 457 249 407 247 Q 391 246 388 238 Q 387 231 408 220 Q 430 205 448 212 Q 476 219 505 226 L 564 239 Z"/>
  <path id="z30278d17" d="M 505 226 Q 445 70 298 2 Q 285 -5 296 -9 Q 353 -15 424 34 Q 514 95 555 216 Q 559 228 564 239 L 576 272 Q 583 290 594 304 Q 604 319 591 330 Q 578 345 564 352 Q 545 368 527 364 Q 514 363 518 347 Q 525 320 514 259 L 505 226 Z"/>
<defs>
  <clipPath id="z30278c1"><use href="#z30278d1"/></clipPath>
  <clipPath id="z30278c2"><use href="#z30278d2"/></clipPath>
  <clipPath id="z30278c3"><use href="#z30278d3"/></clipPath>
  <clipPath id="z30278c4"><use href="#z30278d4"/></clipPath>
  <clipPath id="z30278c5"><use href="#z30278d5"/></clipPath>
  <clipPath id="z30278c6"><use href="#z30278d6"/></clipPath>
  <clipPath id="z30278c7"><use href="#z30278d7"/></clipPath>
  <clipPath id="z30278c8"><use href="#z30278d8"/></clipPath>
  <clipPath id="z30278c9"><use href="#z30278d9"/></clipPath>
  <clipPath id="z30278c10"><use href="#z30278d10"/></clipPath>
  <clipPath id="z30278c11"><use href="#z30278d11"/></clipPath>
  <clipPath id="z30278c12"><use href="#z30278d12"/></clipPath>
  <clipPath id="z30278c13"><use href="#z30278d13"/></clipPath>
  <clipPath id="z30278c14"><use href="#z30278d14"/></clipPath>
  <clipPath id="z30278c15"><use href="#z30278d15"/></clipPath>
  <clipPath id="z30278c16"><use href="#z30278d16"/></clipPath>
  <clipPath id="z30278c17"><use href="#z30278d17"/></clipPath>
</defs>
<path style="--d:1s;" pathLength="3333" clip-path="url(#z30278c1)" d="M 497 865 L 570 825 L 592 795"/>
<path style="--d:2s;" pathLength="3333" clip-path="url(#z30278c2)" d="M 341 703 L 352 691 L 368 690 L 462 697 L 752 753 L 797 752"/>
<path style="--d:3s;" pathLength="3333" clip-path="url(#z30278c3)" d="M 267 724 L 299 694 L 304 678 L 295 509 L 272 367 L 232 238 L 190 144 L 145 72 L 103 21"/>
<path style="--d:4s;" pathLength="3333" clip-path="url(#z30278c4)" d="M 124 607 L 188 548 L 198 520"/>
<path style="--d:5s;" pathLength="3333" clip-path="url(#z30278c5)" d="M 56 296 L 109 301 L 248 412"/>
<path style="--d:6s;" pathLength="3333" clip-path="url(#z30278c6)" d="M 375 585 L 404 537 L 407 508"/>
<path style="--d:7s;" pathLength="3333" clip-path="url(#z30278c7)" d="M 561 594 L 543 599 L 507 569 L 488 562 L 482 551"/>
<path style="--d:8s;" pathLength="3333" clip-path="url(#z30278c8)" d="M 444 642 L 466 617 L 464 569 L 448 506 L 416 451 L 392 433 L 381 432"/>
<path style="--d:9s;" pathLength="3333" clip-path="url(#z30278c9)" d="M 479 504 L 523 482 L 541 457"/>
<path style="--d:10s;" pathLength="3333" clip-path="url(#z30278c10)" d="M 589 581 L 624 556 L 641 534"/>
<path style="--d:11s;" pathLength="3333" clip-path="url(#z30278c11)" d="M 793 659 L 804 635 L 728 573"/>
<path style="--d:12s;" pathLength="3333" clip-path="url(#z30278c12)" d="M 663 669 L 689 644 L 678 549 L 654 491 L 614 451 L 602 450"/>
<path style="--d:13s;" pathLength="3333" clip-path="url(#z30278c13)" d="M 698 537 L 760 494 L 771 476"/>
<path style="--d:14s;" pathLength="3333" clip-path="url(#z30278c14)" d="M 379 406 L 365 342 L 335 265"/>
<path style="--d:15s;" pathLength="3333" clip-path="url(#z30278c15)" d="M 393 352 L 407 363 L 525 389 L 778 428 L 816 428 L 840 417 L 856 391 L 788 325"/>
<path style="--d:16s;" pathLength="3333" clip-path="url(#z30278c16)" d="M 395 237 L 438 229 L 698 280 L 715 279 L 732 264 L 736 240 L 714 118 L 692 47 L 670 10 L 639 -14 L 560 27"/>
<path style="--d:17s;" pathLength="3333" clip-path="url(#z30278c17)" d="M 527 353 L 545 337 L 557 314 L 529 216 L 489 136 L 438 73 L 406 45 L 365 19 L 303 -5"/>
</svg>