<svg id="z39908" class="acjk" viewBox="0 0 1024 1024" xmlns="http://www.w3.org/2000/svg">
  <path id="z39908d1" d="M 271 698 L 273 700 Q 286 721 298 731 Q 305 738 302 750 Q 298 760 276 780 Q 254 795 238 795 Q 223 794 230 776 Q 242 752 193 666 Q 171 629 138 585 Q 129 578 128 572 Q 124 563 136 565 Q 173 571 260 683 L 271 698 Z"/>
  <path id="z39908d2" d="M 285 542 Q 405 645 435 661 Q 454 670 444 684 Q 432 697 398 722 Q 382 729 367 722 Q 360 719 304 704 Q 288 700 271 698 C 244 694 244 694 260 683 Q 272 668 329 676 Q 336 680 342 676 Q 346 672 339 663 Q 290 585 261 550 Q 254 543 250 535 C 234 510 262 522 285 542 Z"/>
  <path id="z39908d3" d="M 145 514 Q 135 518 118 521 Q 106 525 103 520 Q 96 516 104 499 Q 129 436 140 335 Q 141 305 157 284 Q 173 262 179 277 Q 182 284 183 294 L 184 319 Q 169 430 168 486 C 167 506 167 506 145 514 Z"/>
  <path id="z39908d4" d="M 332 311 Q 348 286 365 278 Q 375 271 389 291 Q 402 315 425 444 Q 432 472 454 496 Q 466 508 455 520 Q 440 536 401 558 Q 385 565 330 551 Q 312 551 285 542 L 250 535 Q 234 534 217 529 Q 177 520 145 514 C 116 508 139 478 168 486 Q 193 493 233 501 L 266 507 Q 347 528 365 515 Q 378 505 376 486 Q 360 365 350 346 Q 346 334 335 331 C 324 322 324 322 332 311 Z"/>
  <path id="z39908d5" d="M 287 406 Q 317 413 344 417 Q 366 421 357 433 Q 347 446 323 449 Q 308 450 289 446 L 244 432 Q 216 422 190 413 Q 174 409 194 395 Q 197 394 245 398 L 287 406 Z"/>
  <path id="z39908d6" d="M 283 342 Q 284 376 287 406 L 289 446 Q 289 449 290 451 Q 290 490 278 498 Q 271 504 266 507 C 241 524 222 529 233 501 Q 240 488 244 432 L 245 398 Q 245 371 246 332 C 247 302 282 312 283 342 Z"/>
  <path id="z39908d7" d="M 183 294 Q 190 291 202 294 Q 242 304 332 311 C 361 313 360 314 335 331 Q 329 335 320 342 Q 307 349 283 342 L 246 332 Q 212 326 184 319 C 155 312 154 301 183 294 Z"/>
  <path id="z39908d8" d="M 81 216 Q 71 171 62 126 Q 55 102 67 80 Q 74 67 88 57 Q 98 50 109 55 Q 116 59 119 71 Q 126 122 109 216 Q 105 231 101 235 Q 95 239 90 237 Q 86 233 81 216 Z"/>
  <path id="z39908d9" d="M 160 195 Q 169 143 186 114 Q 193 107 205 110 Q 214 116 218 127 Q 227 157 183 214 Q 176 223 167 224 Q 163 225 160 218 Q 156 211 160 195 Z"/>
  <path id="z39908d10" d="M 234 215 Q 249 173 269 153 Q 279 147 288 154 Q 295 161 298 173 Q 298 203 252 238 Q 242 245 235 245 Q 231 246 229 237 Q 228 228 234 215 Z"/>
  <path id="z39908d11" d="M 320 235 Q 341 189 357 179 Q 367 175 376 181 Q 383 188 384 201 Q 384 220 375 232 Q 365 244 349 252 Q 342 256 336 260 Q 326 267 318 265 Q 314 266 313 257 Q 312 248 320 235 Z"/>
  <path id="z39908d12" d="M 540 741 Q 528 748 501 754 Q 489 758 485 753 Q 478 747 486 731 Q 513 656 522 537 Q 523 503 541 477 Q 557 453 563 469 Q 569 484 570 507 L 569 537 Q 566 549 562 599 L 559 626 Q 553 689 553 711 C 552 735 552 735 540 741 Z"/>
  <path id="z39908d13" d="M 683 517 Q 701 481 725 469 Q 735 462 750 483 Q 765 508 793 647 Q 802 675 825 700 Q 838 710 827 725 Q 812 741 772 767 Q 759 774 691 763 Q 673 763 540 741 C 510 736 524 705 553 711 Q 608 723 703 730 Q 722 731 731 724 Q 746 714 742 692 Q 718 544 701 530 C 688 508 678 526 683 517 Z"/>
  <path id="z39908d14" d="M 562 599 Q 631 608 683 613 Q 705 617 697 629 Q 687 642 663 647 Q 630 653 559 626 C 531 615 532 595 562 599 Z"/>
  <path id="z39908d15" d="M 570 507 Q 574 507 581 508 Q 612 515 683 517 C 710 518 710 518 701 530 Q 697 537 678 551 Q 663 558 637 552 Q 600 543 569 537 C 540 531 540 505 570 507 Z"/>
  <path id="z39908d16" d="M 511 266 Q 514 266 520 266 Q 575 279 617 286 Q 639 293 630 305 Q 617 318 592 320 Q 555 320 513 295 C 487 280 481 266 511 266 Z"/>
  <path id="z39908d17" d="M 513 295 Q 516 337 521 352 Q 525 371 512 384 Q 488 409 469 413 Q 456 416 451 411 Q 441 404 452 391 Q 470 355 469 323 Q 470 205 460 165 Q 454 135 442 119 Q 429 97 437 76 Q 447 43 464 31 Q 474 24 488 42 Q 516 79 616 175 Q 632 191 634 198 Q 635 211 615 200 Q 581 181 540 159 Q 521 147 513 151 Q 506 155 506 175 Q 507 227 511 266 L 513 295 Z"/>
  <path id="z39908d18" d="M 713 254 Q 764 278 828 318 Q 847 331 870 340 Q 891 347 882 365 Q 872 381 847 397 Q 826 412 814 410 Q 801 410 805 397 Q 806 372 755 318 Q 736 299 714 277 C 693 256 686 241 713 254 Z"/>
  <path id="z39908d19" d="M 714 277 Q 715 332 726 398 Q 730 416 718 426 Q 705 439 682 446 Q 669 450 661 445 Q 654 441 660 423 Q 673 386 672 348 Q 668 179 683 132 Q 687 113 706 95 Q 766 40 899 65 Q 905 68 913 69 Q 944 79 972 102 Q 991 118 977 144 Q 964 168 942 242 Q 941 258 933 262 Q 926 265 923 247 Q 901 166 885 141 Q 878 131 854 124 Q 799 112 754 131 Q 717 152 714 227 Q 713 240 713 254 L 714 277 Z"/>
<defs>
  <clipPath id="z39908c1"><use href="#z39908d1"/></clipPath>
  <clipPath id="z39908c2"><use href="#z39908d2"/></clipPath>
  <clipPath id="z39908c3"><use href="#z39908d3"/></clipPath>
  <clipPath id="z39908c4"><use href="#z39908d4"/></clipPath>
  <clipPath id="z39908c5"><use href="#z39908d5"/></clipPath>
  <clipPath id="z39908c6"><use href="#z39908d6"/></clipPath>
  <clipPath id="z39908c7"><use href="#z39908d7"/></clipPath>
  <clipPath id="z39908c8"><use href="#z39908d8"/></clipPath>
  <clipPath id="z39908c9"><use href="#z39908d9"/></clipPath>
  <clipPath id="z39908c10"><use href="#z39908d10"/></clipPath>
  <clipPath id="z39908c11"><use href="#z39908d11"/></clipPath>
  <clipPath id="z39908c12"><use href="#z39908d12"/></clipPath>
  <clipPath id="z39908c13"><use href="#z39908d13"/></clipPath>
  <clipPath id="z39908c14"><use href="#z39908d14"/></clipPath>
  <clipPath id="z39908c15"><use href="#z39908d15"/></clipPath>
  <clipPath id="z39908c16"><use href="#z39908d16"/></clipPath>
  <clipPath id="z39908c17"><use href="#z39908d17"/></clipPath>
  <clipPath id="z39908c18"><use href="#z39908d18"/></clipPath>
  <clipPath id="z39908c19"><use href="#z39908d19"/></clipPath>
</defs>
<path style="--d:1s;" pathLength="3333" clip-path="url(#z39908c1)" d="M 238 784 L 257 764 L 264 745 L 261 738 L 197 634 L 158 589 L 135 572"/>
<path style="--d:2s;" pathLength="3333" clip-path="url(#z39908c2)" d="M 266 684 L 353 695 L 377 687 L 385 678 L 288 558 L 256 537"/>
<path style="--d:3s;" pathLength="3333" clip-path="url(#z39908c3)" d="M 111 512 L 141 476 L 169 283"/>
<path style="--d:4s;" pathLength="3333" clip-path="url(#z39908c4)" d="M 152 512 L 174 504 L 362 539 L 390 531 L 404 518 L 413 506 L 376 338 L 366 315 L 345 324"/>
<path style="--d:5s;" pathLength="3333" clip-path="url(#z39908c5)" d="M 192 404 L 298 429 L 327 432 L 348 427"/>
<path style="--d:6s;" pathLength="3333" clip-path="url(#z39908c6)" d="M 239 499 L 261 483 L 266 459 L 265 363 L 251 340"/>
<path style="--d:7s;" pathLength="3333" clip-path="url(#z39908c7)" d="M 188 300 L 224 314 L 294 327 L 327 327"/>
<path style="--d:8s;" pathLength="3333" clip-path="url(#z39908c8)" d="M 94 230 L 90 106 L 101 69"/>
<path style="--d:9s;" pathLength="3333" clip-path="url(#z39908c9)" d="M 169 215 L 195 150 L 199 124"/>
<path style="--d:10s;" pathLength="3333" clip-path="url(#z39908c10)" d="M 237 237 L 274 183 L 278 166"/>
<path style="--d:11s;" pathLength="3333" clip-path="url(#z39908c11)" d="M 322 257 L 357 216 L 366 194"/>
<path style="--d:12s;" pathLength="3333" clip-path="url(#z39908c12)" d="M 492 745 L 516 724 L 524 705 L 553 475"/>
<path style="--d:13s;" pathLength="3333" clip-path="url(#z39908c13)" d="M 553 741 L 568 729 L 723 749 L 763 737 L 782 711 L 732 520 L 726 509 L 693 512"/>
<path style="--d:14s;" pathLength="3333" clip-path="url(#z39908c14)" d="M 570 607 L 576 617 L 624 627 L 666 629 L 687 623"/>
<path style="--d:15s;" pathLength="3333" clip-path="url(#z39908c15)" d="M 575 515 L 591 526 L 648 535 L 693 531"/>
<path style="--d:16s;" pathLength="3333" clip-path="url(#z39908c16)" d="M 516 273 L 529 285 L 565 297 L 619 298"/>
<path style="--d:17s;" pathLength="3333" clip-path="url(#z39908c17)" d="M 458 401 L 481 382 L 494 354 L 483 152 L 490 112 L 534 128 L 625 197"/>
<path style="--d:18s;" pathLength="3333" clip-path="url(#z39908c18)" d="M 818 398 L 832 361 L 727 275 L 717 260"/>
<path style="--d:19s;" pathLength="3333" clip-path="url(#z39908c19)" d="M 669 437 L 696 405 L 691 252 L 700 166 L 715 128 L 737 107 L 777 92 L 817 88 L 865 92 L 914 113 L 932 133 L 932 255"/>
</svg>