<svg id="z35925" class="acjk" viewBox="0 0 1024 1024" xmlns="http://www.w3.org/2000/svg">
  <path id="z35925d1" d="M 435 698 Q 558 720 686 742 Q 755 757 766 765 Q 776 774 771 783 Q 764 796 733 805 Q 697 814 613 785 Q 459 743 296 731 Q 256 727 284 707 Q 329 680 389 691 Q 392 692 397 691 L 435 698 Z"/>
  <path id="z35925d2" d="M 374 578 Q 468 660 470 671 L 470 672 Q 469 685 445 694 Q 441 697 435 698 C 407 709 405 710 397 691 Q 372 619 198 503 Q 176 491 202 492 Q 247 492 351 561 L 374 578 Z"/>
  <path id="z35925d3" d="M 521 460 Q 508 500 432 548 Q 396 572 374 578 C 346 589 324 575 351 561 Q 373 551 389 538 L 441 498 Q 460 480 476 457 L 505 398 Q 538 293 509 144 Q 497 86 480 78 Q 465 71 406 79 Q 355 88 356 80 Q 355 73 368 62 Q 441 19 474 -13 Q 487 -29 501 -24 Q 525 -17 545 20 Q 581 104 577 258 Q 574 327 550 398 L 521 460 Z"/>
  <path id="z35925d4" d="M 389 538 Q 367 466 177 350 Q 158 340 181 340 Q 250 337 390 452 L 441 498 C 463 518 400 566 389 538 Z"/>
  <path id="z35925d5" d="M 476 457 Q 475 456 472 451 Q 387 298 174 158 Q 159 149 145 139 Q 130 127 140 125 Q 149 119 162 124 Q 298 164 437 314 Q 444 323 453 332 Q 499 384 499 388 Q 502 392 505 398 C 520 424 492 483 476 457 Z"/>
  <path id="z35925d6" d="M 569 422 Q 630 468 666 500 Q 733 564 767 582 Q 789 594 777 613 Q 761 629 732 644 Q 705 657 691 653 Q 678 652 683 636 Q 689 603 625 521 Q 591 479 555 434 C 536 411 545 404 569 422 Z"/>
  <path id="z35925d7" d="M 555 434 Q 537 447 521 460 C 497 479 529 419 550 398 Q 647 301 762 201 Q 787 180 821 186 Q 939 204 976 215 Q 986 219 988 225 Q 987 231 970 237 Q 784 273 707 326 Q 641 369 569 422 L 555 434 Z"/>
<defs>
  <clipPath id="z35925c1"><use href="#z35925d1"/></clipPath>
  <clipPath id="z35925c2"><use href="#z35925d2"/></clipPath>
  <clipPath id="z35925c3"><use href="#z35925d3"/></clipPath>
  <clipPath id="z35925c4"><use href="#z35925d4"/></clipPath>
  <clipPath id="z35925c5"><use href="#z35925d5"/></clipPath>
  <clipPath id="z35925c6"><use href="#z35925d6"/></clipPath>
  <clipPath id="z35925c7"><use href="#z35925d7"/></clipPath>
</defs>
<path style="--d:1s;" pathLength="3333" clip-path="url(#z35925c1)" d="M 287 721 L 310 713 L 377 713 L 532 739 L 696 776 L 759 777"/>
<path style="--d:2s;" pathLength="3333" clip-path="url(#z35925c2)" d="M 465 672 L 443 672 L 420 663 L 368 604 L 314 560 L 244 516 L 206 500"/>
<path style="--d:3s;" pathLength="3333" clip-path="url(#z35925c3)" d="M 360 561 L 375 564 L 432 529 L 473 494 L 496 465 L 532 383 L 550 264 L 548 195 L 537 119 L 518 60 L 501 36 L 477 36 L 362 77"/>
<path style="--d:4s;" pathLength="3333" clip-path="url(#z35925c4)" d="M 393 532 L 399 497 L 367 462 L 260 382 L 186 348"/>
<path style="--d:5s;" pathLength="3333" clip-path="url(#z35925c5)" d="M 479 451 L 471 396 L 387 297 L 262 192 L 147 130"/>
<path style="--d:6s;" pathLength="3333" clip-path="url(#z35925c6)" d="M 691 642 L 704 633 L 721 602 L 658 523 L 572 436 L 564 437"/>
<path style="--d:7s;" pathLength="3333" clip-path="url(#z35925c7)" d="M 526 455 L 566 404 L 657 328 L 794 234 L 826 228 L 980 223"/>
</svg>