<svg id="z33953" class="acjk" viewBox="0 0 1024 1024" xmlns="http://www.w3.org/2000/svg">
  <path id="z33953d1" d="M 625 705 Q 668 714 786 705 Q 802 704 806 713 Q 812 723 799 738 Q 753 781 654 758 Q 650 758 646 756 L 590 747 Q 506 737 410 724 L 362 719 Q 292 713 219 705 Q 191 702 210 687 Q 252 660 334 675 Q 353 679 375 683 L 415 689 Q 454 701 582 703 L 625 705 Z"/>
  <path id="z33953d2" d="M 410 724 Q 407 745 406 762 Q 407 780 388 784 Q 349 799 331 791 Q 315 782 330 765 Q 351 744 362 719 L 375 683 Q 388 637 403 622 Q 416 613 420 624 Q 421 633 415 689 L 410 724 Z"/>
  <path id="z33953d3" d="M 646 756 Q 650 769 660 782 Q 673 795 663 805 Q 653 820 621 835 Q 606 844 591 835 Q 581 829 589 820 Q 598 801 590 747 L 582 703 Q 569 660 571 638 Q 572 625 586 636 Q 592 642 625 705 L 646 756 Z"/>
  <path id="z33953d4" d="M 540 610 Q 540 611 541 612 Q 544 624 536 644 Q 532 657 509 666 Q 452 678 448 674 Q 444 671 446 662 Q 449 655 470 640 Q 489 627 509 609 Q 510 608 514 605 C 533 591 533 591 540 610 Z"/>
  <path id="z33953d5" d="M 610 581 Q 650 587 687 590 Q 696 589 704 600 Q 705 610 685 621 Q 661 645 558 614 Q 549 613 540 610 L 514 605 Q 454 596 328 582 Q 303 579 322 563 Q 350 539 377 545 Q 462 561 574 577 L 610 581 Z"/>
  <path id="z33953d6" d="M 376 507 Q 413 444 435 440 Q 447 437 454 452 Q 457 462 451 482 Q 436 512 383 530 Q 376 533 373 523 Q 372 516 376 507 Z"/>
  <path id="z33953d7" d="M 561 446 Q 597 491 608 508 Q 615 520 629 534 Q 642 544 636 553 Q 629 566 610 581 C 587 600 570 607 574 577 Q 580 552 542 465 Q 535 453 533 443 C 525 414 542 423 561 446 Z"/>
  <path id="z33953d8" d="M 261 410 Q 252 434 239 443 Q 223 456 221 432 Q 227 405 181 349 Q 151 322 179 267 Q 192 242 211 268 Q 226 293 257 381 C 264 402 264 402 261 410 Z"/>
  <path id="z33953d9" d="M 257 381 Q 278 366 316 375 Q 461 418 710 434 Q 735 435 747 433 Q 763 424 760 417 Q 761 413 756 402 Q 728 342 733 337 Q 740 333 757 343 Q 809 373 852 380 Q 886 389 886 396 Q 885 406 816 461 Q 792 482 733 468 Q 613 456 561 446 L 533 443 Q 460 436 369 422 Q 314 415 261 410 C 231 407 229 392 257 381 Z"/>
  <path id="z33953d10" d="M 461 357 Q 480 341 502 319 Q 512 309 525 310 Q 534 310 537 321 Q 541 331 534 355 Q 530 370 506 380 Q 449 398 440 395 Q 436 391 437 381 Q 440 374 461 357 Z"/>
  <path id="z33953d11" d="M 503 257 Q 588 267 710 268 Q 728 269 732 277 Q 736 287 721 299 Q 666 338 623 320 Q 532 299 267 256 Q 248 255 262 239 Q 275 227 291 223 Q 310 219 324 223 Q 379 239 442 248 L 503 257 Z"/>
  <path id="z33953d12" d="M 508 212 Q 526 205 571 196 Q 596 192 605 177 Q 617 153 578 63 Q 560 27 545 22 Q 533 16 486 28 Q 449 40 446 34 Q 442 24 459 15 Q 498 -9 516 -46 Q 522 -64 534 -70 Q 547 -74 578 -52 Q 620 -16 648 88 Q 660 139 677 151 Q 687 155 690 164 Q 691 174 669 197 Q 641 227 584 227 Q 551 230 514 244 C 486 254 479 221 508 212 Z"/>
  <path id="z33953d13" d="M 514 244 Q 510 251 503 257 C 483 279 451 277 442 248 Q 406 116 199 9 Q 190 3 196 -1 Q 220 -16 317 30 Q 401 67 483 182 Q 493 198 508 212 C 525 229 525 229 514 244 Z"/>
<defs>
  <clipPath id="z33953c1"><use href="#z33953d1"/></clipPath>
  <clipPath id="z33953c2"><use href="#z33953d2"/></clipPath>
  <clipPath id="z33953c3"><use href="#z33953d3"/></clipPath>
  <clipPath id="z33953c4"><use href="#z33953d4"/></clipPath>
  <clipPath id="z33953c5"><use href="#z33953d5"/></clipPath>
  <clipPath id="z33953c6"><use href="#z33953d6"/></clipPath>
  <clipPath id="z33953c7"><use href="#z33953d7"/></clipPath>
  <clipPath id="z33953c8"><use href="#z33953d8"/></clipPath>
  <clipPath id="z33953c9"><use href="#z33953d9"/></clipPath>
  <clipPath id="z33953c10"><use href="#z33953d10"/></clipPath>
  <clipPath id="z33953c11"><use href="#z33953d11"/></clipPath>
  <clipPath id="z33953c12"><use href="#z33953d12"/></clipPath>
  <clipPath id="z33953c13"><use href="#z33953d13"/></clipPath>
</defs>
<path style="--d:1s;" pathLength="3333" clip-path="url(#z33953c1)" d="M 213 697 L 271 689 L 303 691 L 467 716 L 686 737 L 752 734 L 793 720"/>
<path style="--d:2s;" pathLength="3333" clip-path="url(#z33953c2)" d="M 337 778 L 358 770 L 377 753 L 411 627"/>
<path style="--d:3s;" pathLength="3333" clip-path="url(#z33953c3)" d="M 602 826 L 627 792 L 604 702 L 579 643"/>
<path style="--d:4s;" pathLength="3333" clip-path="url(#z33953c4)" d="M 452 667 L 506 643 L 532 615"/>
<path style="--d:5s;" pathLength="3333" clip-path="url(#z33953c5)" d="M 324 573 L 369 565 L 635 608 L 666 609 L 694 602"/>
<path style="--d:6s;" pathLength="3333" clip-path="url(#z33953c6)" d="M 383 520 L 417 487 L 438 456"/>
<path style="--d:7s;" pathLength="3333" clip-path="url(#z33953c7)" d="M 580 574 L 602 548 L 558 462 L 540 447"/>
<path style="--d:8s;" pathLength="3333" clip-path="url(#z33953c8)" d="M 230 437 L 240 406 L 199 320 L 193 270"/>
<path style="--d:9s;" pathLength="3333" clip-path="url(#z33953c9)" d="M 269 401 L 279 392 L 304 393 L 527 431 L 684 449 L 762 451 L 785 442 L 804 413 L 738 340"/>
<path style="--d:10s;" pathLength="3333" clip-path="url(#z33953c10)" d="M 443 387 L 503 353 L 525 322"/>
<path style="--d:11s;" pathLength="3333" clip-path="url(#z33953c11)" d="M 264 248 L 315 242 L 442 268 L 654 297 L 722 282"/>
<path style="--d:12s;" pathLength="3333" clip-path="url(#z33953c12)" d="M 520 237 L 526 223 L 607 205 L 641 176 L 612 67 L 584 10 L 549 -20 L 451 30"/>
<path style="--d:13s;" pathLength="3333" clip-path="url(#z33953c13)" d="M 502 241 L 467 218 L 444 177 L 404 126 L 343 71 L 259 22 L 202 3"/>
</svg>