<svg id="z33247" class="acjk" viewBox="0 0 1024 1024" xmlns="http://www.w3.org/2000/svg">
  <path id="z33247d1" d="M 174 670 Q 138 692 120 684 Q 111 677 117 666 Q 132 651 140 604 Q 140 585 143 561 Q 152 408 125 292 Q 106 210 43 78 Q 39 72 38 67 Q 37 58 46 61 Q 76 73 127 182 Q 157 263 168 310 L 174 340 Q 183 404 186 460 L 188 493 Q 188 640 191 643 C 193 660 193 660 174 670 Z"/>
  <path id="z33247d2" d="M 317 93 Q 308 622 310 632 Q 311 642 316 649 Q 326 665 315 674 Q 297 690 266 701 Q 245 708 210 683 Q 195 679 174 670 C 146 659 164 631 191 643 Q 195 646 202 648 Q 217 654 231 661 Q 244 665 252 659 Q 264 649 263 610 Q 273 306 260 124 Q 259 102 252 92 Q 246 88 193 99 Q 177 105 177 96 Q 220 56 244 26 Q 256 10 269 6 Q 276 2 284 11 Q 311 44 316 82 L 317 93 Z"/>
  <path id="z33247d3" d="M 186 460 Q 220 470 248 475 Q 266 481 258 490 Q 248 500 226 502 Q 210 502 188 493 C 160 482 157 452 186 460 Z"/>
  <path id="z33247d4" d="M 168 310 Q 211 316 243 323 Q 262 327 253 338 Q 243 348 222 351 Q 203 352 174 340 C 146 329 138 306 168 310 Z"/>
  <path id="z33247d5" d="M 552 678 Q 551 714 550 742 Q 553 760 534 766 Q 495 785 478 779 Q 462 772 474 754 Q 502 717 509 674 Q 509 673 510 669 L 516 636 Q 519 593 536 571 Q 549 561 553 572 Q 557 584 553 651 L 552 678 Z"/>
  <path id="z33247d6" d="M 553 651 Q 557 654 565 656 Q 578 659 593 668 Q 597 672 596 679 Q 593 683 582 685 Q 567 682 552 678 L 510 669 Q 420 654 365 644 Q 355 644 354 640 Q 353 633 359 625 Q 372 613 397 605 Q 413 598 428 604 Q 471 620 516 636 L 553 651 Z"/>
  <path id="z33247d7" d="M 722 711 Q 744 765 756 784 Q 769 797 760 808 Q 748 824 716 839 Q 701 849 685 840 Q 675 834 682 824 Q 694 797 672 704 L 667 683 Q 649 623 650 605 Q 651 593 664 600 Q 682 613 693 644 Q 699 659 706 674 L 722 711 Z"/>
  <path id="z33247d8" d="M 706 674 Q 719 675 732 677 Q 792 689 875 682 Q 888 681 891 688 Q 895 697 885 708 Q 846 744 771 721 Q 749 718 722 711 L 672 704 Q 668 705 663 704 Q 641 701 656 690 Q 662 687 667 683 C 683 672 683 672 706 674 Z"/>
  <path id="z33247d9" d="M 721 474 Q 740 480 762 484 Q 805 494 811 501 Q 818 508 815 515 Q 808 524 785 529 Q 749 535 719 517 L 675 502 Q 585 478 506 466 C 476 461 480 448 509 442 Q 539 433 612 450 Q 646 459 684 465 L 721 474 Z"/>
  <path id="z33247d10" d="M 506 466 Q 494 476 476 483 Q 463 490 453 487 Q 444 481 449 471 Q 465 447 463 382 Q 462 381 462 380 L 462 359 Q 459 313 454 269 L 450 241 Q 429 121 348 -12 Q 344 -16 343 -22 Q 342 -29 349 -28 Q 380 -22 442 96 Q 445 105 449 112 Q 492 220 506 415 Q 507 428 509 442 C 512 462 512 462 506 466 Z"/>
  <path id="z33247d11" d="M 462 380 Q 399 364 395 366 Q 386 375 400 458 Q 400 483 372 498 Q 357 505 350 504 Q 343 500 349 489 Q 368 456 364 410 Q 363 374 352 356 Q 346 341 354 326 Q 364 310 377 318 Q 401 333 462 359 C 490 371 491 387 462 380 Z"/>
  <path id="z33247d12" d="M 454 269 Q 453 270 451 270 Q 444 273 395 259 Q 376 255 356 251 Q 343 250 329 246 Q 313 243 326 233 Q 347 221 365 224 L 389 229 Q 437 241 450 241 C 480 243 483 260 454 269 Z"/>
  <path id="z33247d13" d="M 365 224 Q 365 223 367 221 Q 376 187 317 93 C 307 78 307 78 316 82 Q 361 103 398 180 Q 404 192 408 198 Q 412 205 406 212 Q 397 224 389 229 C 365 247 352 251 365 224 Z"/>
  <path id="z33247d14" d="M 636 352 Q 681 364 684 366 Q 690 372 686 377 Q 682 384 662 388 Q 656 388 593 371 Q 577 367 555 364 Q 554 364 554 363 C 526 353 533 351 562 344 Q 586 338 612 346 L 636 352 Z"/>
  <path id="z33247d15" d="M 647 287 Q 656 329 655 332 Q 645 345 636 352 C 613 371 600 374 612 346 L 613 345 Q 614 338 614 272 C 614 242 641 258 647 287 Z"/>
  <path id="z33247d16" d="M 676 201 Q 691 234 709 244 Q 719 254 711 265 Q 669 295 647 287 L 614 272 Q 608 271 604 269 Q 582 262 558 256 C 529 249 528 230 557 236 Q 558 236 646 254 Q 653 255 656 253 Q 660 249 658 240 Q 651 218 645 199 C 636 170 663 174 676 201 Z"/>
  <path id="z33247d17" d="M 647 170 Q 666 174 693 176 Q 700 177 700 183 Q 700 187 680 200 Q 679 201 676 201 L 645 199 Q 593 186 555 176 C 526 168 524 150 554 155 L 615 165 L 647 170 Z"/>
  <path id="z33247d18" d="M 649 108 Q 655 160 650 167 Q 649 168 647 170 C 626 191 605 193 615 165 Q 616 164 616 161 Q 616 154 617 101 C 618 71 646 78 649 108 Z"/>
  <path id="z33247d19" d="M 554 363 Q 547 369 533 376 Q 520 383 515 378 Q 511 374 515 364 Q 545 297 518 105 Q 514 92 505 78 Q 499 68 505 55 Q 509 42 517 36 Q 524 32 534 39 Q 570 70 686 78 Q 701 79 701 86 Q 701 95 682 107 Q 672 114 652 109 Q 649 109 649 108 L 617 101 Q 590 97 562 91 Q 558 90 557 91 Q 553 92 553 99 Q 553 126 554 155 L 555 176 Q 555 206 557 236 L 558 256 Q 558 325 562 344 C 564 356 564 356 554 363 Z"/>
  <path id="z33247d20" d="M 793 108 Q 835 27 900 -26 Q 925 -45 937 -46 Q 949 -47 956 -37 Q 963 -30 955 8 Q 952 56 956 129 Q 959 154 951 155 Q 944 156 936 135 Q 912 53 893 58 Q 866 77 819 149 Q 818 150 818 151 L 794 200 Q 758 276 723 463 Q 722 469 721 474 L 719 517 Q 719 520 720 522 Q 727 543 722 553 Q 707 578 667 584 Q 657 583 656 582 Q 637 576 654 558 Q 663 549 675 502 L 684 465 Q 711 284 772 151 L 793 108 Z"/>
  <path id="z33247d21" d="M 772 151 Q 712 58 665 3 Q 661 -4 666 -6 Q 673 -7 681 -2 Q 748 46 793 108 L 818 151 Q 851 232 866 305 Q 872 329 881 353 Q 885 363 879 370 Q 872 377 845 387 Q 826 394 818 390 Q 808 386 811 373 Q 832 301 794 200 L 772 151 Z"/>
  <path id="z33247d22" d="M 794 585 Q 821 564 850 538 Q 862 528 873 529 Q 882 530 885 540 Q 889 552 881 575 Q 872 602 789 622 Q 776 625 772 623 Q 768 619 769 609 Q 773 602 794 585 Z"/>
<defs>
  <clipPath id="z33247c1"><use href="#z33247d1"/></clipPath>
  <clipPath id="z33247c2"><use href="#z33247d2"/></clipPath>
  <clipPath id="z33247c3"><use href="#z33247d3"/></clipPath>
  <clipPath id="z33247c4"><use href="#z33247d4"/></clipPath>
  <clipPath id="z33247c5"><use href="#z33247d5"/></clipPath>
  <clipPath id="z33247c6"><use href="#z33247d6"/></clipPath>
  <clipPath id="z33247c7"><use href="#z33247d7"/></clipPath>
  <clipPath id="z33247c8"><use href="#z33247d8"/></clipPath>
  <clipPath id="z33247c9"><use href="#z33247d9"/></clipPath>
  <clipPath id="z33247c10"><use href="#z33247d10"/></clipPath>
  <clipPath id="z33247c11"><use href="#z33247d11"/></clipPath>
  <clipPath id="z33247c12"><use href="#z33247d12"/></clipPath>
  <clipPath id="z33247c13"><use href="#z33247d13"/></clipPath>
  <clipPath id="z33247c14"><use href="#z33247d14"/></clipPath>
  <clipPath id="z33247c15"><use href="#z33247d15"/></clipPath>
  <clipPath id="z33247c16"><use href="#z33247d16"/></clipPath>
  <clipPath id="z33247c17"><use href="#z33247d17"/></clipPath>
  <clipPath id="z33247c18"><use href="#z33247d18"/></clipPath>
  <clipPath id="z33247c19"><use href="#z33247d19"/></clipPath>
  <clipPath id="z33247c20"><use href="#z33247d20"/></clipPath>
  <clipPath id="z33247c21"><use href="#z33247d21"/></clipPath>
  <clipPath id="z33247c22"><use href="#z33247d22"/></clipPath>
</defs>
<path style="--d:1s;" pathLength="3333" clip-path="url(#z33247c1)" d="M 127 674 L 154 653 L 163 624 L 169 507 L 156 350 L 115 196 L 82 125 L 46 69"/>
<path style="--d:2s;" pathLength="3333" clip-path="url(#z33247c2)" d="M 183 666 L 204 664 L 226 677 L 252 682 L 276 670 L 287 656 L 292 325 L 290 108 L 279 70 L 268 57 L 186 93"/>
<path style="--d:3s;" pathLength="3333" clip-path="url(#z33247c3)" d="M 194 465 L 198 476 L 212 484 L 250 484"/>
<path style="--d:4s;" pathLength="3333" clip-path="url(#z33247c4)" d="M 176 316 L 187 329 L 198 332 L 246 332"/>
<path style="--d:5s;" pathLength="3333" clip-path="url(#z33247c5)" d="M 483 765 L 519 739 L 544 575"/>
<path style="--d:6s;" pathLength="3333" clip-path="url(#z33247c6)" d="M 362 634 L 416 627 L 586 676"/>
<path style="--d:7s;" pathLength="3333" clip-path="url(#z33247c7)" d="M 689 831 L 702 825 L 722 795 L 690 688 L 659 609"/>
<path style="--d:8s;" pathLength="3333" clip-path="url(#z33247c8)" d="M 666 694 L 711 691 L 801 707 L 840 707 L 881 693"/>
<path style="--d:9s;" pathLength="3333" clip-path="url(#z33247c9)" d="M 514 461 L 522 454 L 580 460 L 745 504 L 805 510"/>
<path style="--d:10s;" pathLength="3333" clip-path="url(#z33247c10)" d="M 458 477 L 481 455 L 485 438 L 480 334 L 465 223 L 447 157 L 412 70 L 374 7 L 350 -21"/>
<path style="--d:11s;" pathLength="3333" clip-path="url(#z33247c11)" d="M 354 496 L 376 473 L 383 448 L 377 348 L 397 348 L 449 364 L 451 375"/>
<path style="--d:12s;" pathLength="3333" clip-path="url(#z33247c12)" d="M 336 237 L 397 243 L 450 262"/>
<path style="--d:13s;" pathLength="3333" clip-path="url(#z33247c13)" d="M 375 218 L 388 203 L 380 178 L 364 145 L 320 87"/>
<path style="--d:14s;" pathLength="3333" clip-path="url(#z33247c14)" d="M 559 359 L 590 356 L 667 375 L 679 373"/>
<path style="--d:15s;" pathLength="3333" clip-path="url(#z33247c15)" d="M 620 343 L 631 333 L 633 302 L 615 284"/>
<path style="--d:16s;" pathLength="3333" clip-path="url(#z33247c16)" d="M 558 241 L 648 270 L 668 268 L 678 260 L 680 248 L 664 215 L 652 204"/>
<path style="--d:17s;" pathLength="3333" clip-path="url(#z33247c17)" d="M 561 160 L 566 168 L 639 184 L 675 188 L 693 183"/>
<path style="--d:18s;" pathLength="3333" clip-path="url(#z33247c18)" d="M 621 164 L 634 149 L 635 124 L 620 113"/>
<path style="--d:19s;" pathLength="3333" clip-path="url(#z33247c19)" d="M 521 371 L 542 342 L 546 287 L 535 73 L 564 73 L 663 94 L 692 88"/>
<path style="--d:20s;" pathLength="3333" clip-path="url(#z33247c20)" d="M 658 570 L 672 565 L 694 541 L 703 459 L 726 346 L 770 204 L 800 138 L 833 85 L 882 30 L 912 19 L 917 26 L 930 56 L 950 149"/>
<path style="--d:21s;" pathLength="3333" clip-path="url(#z33247c21)" d="M 823 378 L 847 352 L 835 263 L 814 194 L 792 145 L 764 102 L 673 -1"/>
<path style="--d:22s;" pathLength="3333" clip-path="url(#z33247c22)" d="M 776 615 L 842 579 L 872 543"/>
</svg>