<svg id="z32242" class="acjk" viewBox="0 0 1024 1024" xmlns="http://www.w3.org/2000/svg">
  <path id="z32242d1" d="M 257 534 Q 221 534 191 532 Q 160 529 175 549 Q 230 648 283 721 Q 296 740 293 747 Q 290 760 250 790 Q 234 803 215 798 Q 205 795 211 780 Q 229 741 158 598 Q 143 567 111 534 Q 93 518 95 507 Q 101 488 116 471 Q 126 461 139 469 Q 181 499 243 508 C 273 513 287 534 257 534 Z"/>
  <path id="z32242d2" d="M 304 415 Q 265 405 220 387 Q 198 377 211 397 Q 239 443 309 534 Q 333 571 355 592 Q 367 602 360 611 Q 350 629 317 645 Q 301 652 292 649 Q 283 645 286 631 Q 289 607 257 534 L 243 508 Q 161 379 140 367 Q 128 357 132 344 Q 133 332 160 316 Q 170 306 183 318 Q 235 363 312 398 C 339 411 333 423 304 415 Z"/>
  <path id="z32242d3" d="M 312 398 Q 319 374 337 367 Q 347 363 356 374 Q 360 384 359 401 Q 350 434 302 464 Q 295 467 292 459 Q 288 453 292 445 Q 296 430 304 415 L 312 398 Z"/>
  <path id="z32242d4" d="M 107 177 Q 117 138 125 94 Q 129 76 141 68 Q 150 62 161 70 Q 174 79 183 107 Q 193 140 130 217 Q 120 229 113 230 Q 107 230 101 219 Q 98 209 107 177 Z"/>
  <path id="z32242d5" d="M 205 227 Q 235 161 246 156 Q 253 153 262 161 Q 269 171 272 194 Q 273 221 216 263 Q 206 270 201 270 Q 197 269 193 259 Q 192 250 205 227 Z"/>
  <path id="z32242d6" d="M 281 296 Q 306 230 328 222 Q 338 218 348 231 Q 352 241 349 259 Q 342 287 291 316 Q 284 320 280 311 Q 277 304 281 296 Z"/>
  <path id="z32242d7" d="M 420 651 Q 411 660 389 669 Q 380 673 371 670 Q 365 666 370 655 Q 371 646 376 638 Q 401 587 387 379 Q 384 352 377 319 Q 364 274 396 236 Q 405 226 413 236 Q 420 246 422 256 L 425 290 Q 425 302 426 379 L 426 409 Q 426 463 426 502 L 427 535 Q 427 619 430 628 C 432 642 432 642 420 651 Z"/>
  <path id="z32242d8" d="M 499 268 Q 508 255 517 241 Q 530 222 537 224 Q 547 225 558 254 Q 570 285 566 324 Q 545 601 567 643 Q 576 658 568 666 Q 561 675 520 685 Q 499 692 485 682 Q 451 663 420 651 C 392 640 402 618 430 628 Q 499 652 504 649 Q 516 637 516 594 Q 520 413 514 312 Q 517 293 500 295 Q 494 296 494 294 C 483 292 483 292 499 268 Z"/>
  <path id="z32242d9" d="M 426 502 Q 462 509 490 513 Q 511 519 502 529 Q 492 541 468 543 Q 452 544 427 535 C 399 525 397 496 426 502 Z"/>
  <path id="z32242d10" d="M 426 379 Q 460 386 487 391 Q 506 395 498 406 Q 488 416 466 418 Q 450 418 426 409 C 398 399 397 373 426 379 Z"/>
  <path id="z32242d11" d="M 422 256 Q 446 262 499 268 C 522 271 517 275 494 294 Q 491 297 485 300 Q 466 309 425 290 C 398 278 393 249 422 256 Z"/>
  <path id="z32242d12" d="M 716 683 Q 722 601 714 432 Q 714 419 706 412 Q 700 411 642 423 Q 629 426 632 416 Q 633 409 650 393 Q 690 353 708 326 Q 720 316 730 321 Q 743 325 758 350 Q 771 375 769 422 Q 754 650 783 721 Q 790 740 773 750 Q 742 771 708 776 Q 692 777 686 769 Q 679 762 688 752 Q 713 722 716 683 Z"/>
  <path id="z32242d13" d="M 617 558 Q 604 515 582 474 Q 570 446 586 421 Q 593 408 609 420 Q 645 450 642 515 Q 643 540 635 560 Q 631 567 626 567 Q 619 566 617 558 Z"/>
  <path id="z32242d14" d="M 837 555 Q 880 522 928 482 Q 941 470 955 472 Q 965 472 969 484 Q 973 497 964 525 Q 957 550 917 571 Q 826 608 812 599 Q 808 595 809 583 Q 813 573 837 555 Z"/>
  <path id="z32242d15" d="M 816 455 Q 817 283 631 106 Q 627 103 624 100 Q 572 48 445 -37 Q 436 -44 443 -48 Q 450 -52 464 -47 Q 674 25 804 235 Q 831 281 858 339 Q 876 373 898 407 Q 908 417 902 428 Q 896 440 864 462 Q 842 477 831 475 Q 815 472 816 455 Z"/>
<defs>
  <clipPath id="z32242c1"><use href="#z32242d1"/></clipPath>
  <clipPath id="z32242c2"><use href="#z32242d2"/></clipPath>
  <clipPath id="z32242c3"><use href="#z32242d3"/></clipPath>
  <clipPath id="z32242c4"><use href="#z32242d4"/></clipPath>
  <clipPath id="z32242c5"><use href="#z32242d5"/></clipPath>
  <clipPath id="z32242c6"><use href="#z32242d6"/></clipPath>
  <clipPath id="z32242c7"><use href="#z32242d7"/></clipPath>
  <clipPath id="z32242c8"><use href="#z32242d8"/></clipPath>
  <clipPath id="z32242c9"><use href="#z32242d9"/></clipPath>
  <clipPath id="z32242c10"><use href="#z32242d10"/></clipPath>
  <clipPath id="z32242c11"><use href="#z32242d11"/></clipPath>
  <clipPath id="z32242c12"><use href="#z32242d12"/></clipPath>
  <clipPath id="z32242c13"><use href="#z32242d13"/></clipPath>
  <clipPath id="z32242c14"><use href="#z32242d14"/></clipPath>
  <clipPath id="z32242c15"><use href="#z32242d15"/></clipPath>
</defs>
<path style="--d:1s;" pathLength="3333" clip-path="url(#z32242c1)" d="M 219 788 L 243 763 L 251 741 L 141 518 L 142 513 L 161 511 L 232 519 L 250 529"/>
<path style="--d:2s;" pathLength="3333" clip-path="url(#z32242c2)" d="M 298 638 L 319 605 L 275 522 L 191 398 L 190 368 L 226 370 L 287 399 L 302 399"/>
<path style="--d:3s;" pathLength="3333" clip-path="url(#z32242c3)" d="M 302 452 L 328 415 L 342 382"/>
<path style="--d:4s;" pathLength="3333" clip-path="url(#z32242c4)" d="M 113 221 L 152 122 L 150 82"/>
<path style="--d:5s;" pathLength="3333" clip-path="url(#z32242c5)" d="M 202 261 L 246 199 L 250 165"/>
<path style="--d:6s;" pathLength="3333" clip-path="url(#z32242c6)" d="M 290 304 L 319 268 L 333 239"/>
<path style="--d:7s;" pathLength="3333" clip-path="url(#z32242c7)" d="M 377 662 L 402 635 L 410 572 L 407 367 L 399 307 L 405 241"/>
<path style="--d:8s;" pathLength="3333" clip-path="url(#z32242c8)" d="M 429 648 L 440 642 L 503 669 L 538 650 L 535 527 L 542 336 L 539 290 L 532 275 L 536 234"/>
<path style="--d:9s;" pathLength="3333" clip-path="url(#z32242c9)" d="M 432 507 L 453 525 L 493 523"/>
<path style="--d:10s;" pathLength="3333" clip-path="url(#z32242c10)" d="M 433 387 L 451 401 L 490 400"/>
<path style="--d:11s;" pathLength="3333" clip-path="url(#z32242c11)" d="M 426 261 L 443 279 L 457 283 L 479 283 L 488 273"/>
<path style="--d:12s;" pathLength="3333" clip-path="url(#z32242c12)" d="M 694 761 L 711 755 L 745 724 L 741 413 L 723 374 L 640 415"/>
<path style="--d:13s;" pathLength="3333" clip-path="url(#z32242c13)" d="M 626 558 L 622 506 L 598 427"/>
<path style="--d:14s;" pathLength="3333" clip-path="url(#z32242c14)" d="M 817 593 L 908 540 L 926 526 L 955 487"/>
<path style="--d:15s;" pathLength="3333" clip-path="url(#z32242c15)" d="M 833 458 L 855 416 L 847 391 L 792 265 L 740 186 L 678 115 L 598 45 L 548 10 L 448 -43"/>
</svg>