<svg id="z32845" class="acjk" viewBox="0 0 1024 1024" xmlns="http://www.w3.org/2000/svg">
  <path id="z32845d1" d="M 370 690 Q 385 694 401 697 Q 444 707 450 713 Q 459 720 455 728 Q 448 740 420 747 Q 399 753 288 721 Q 177 700 133 696 Q 99 690 123 674 Q 136 667 154 661 L 204 659 Q 240 668 342 685 L 370 690 Z"/>
  <path id="z32845d2" d="M 154 661 Q 155 660 156 657 Q 171 624 175 541 Q 175 468 176 284 C 176 254 217 265 218 295 Q 219 350 221 402 L 221 434 Q 222 477 224 514 L 225 549 Q 226 565 227 581 Q 230 633 227 639 Q 217 649 204 659 C 181 678 142 688 154 661 Z"/>
  <path id="z32845d3" d="M 353 302 Q 353 176 343 85 Q 340 46 364 14 Q 376 1 385 17 Q 410 65 403 108 Q 400 136 400 325 L 400 349 Q 400 670 398 672 Q 397 673 396 674 Q 386 681 370 690 C 344 705 333 712 342 685 Q 343 684 344 682 Q 359 655 354 335 L 353 302 Z"/>
  <path id="z32845d4" d="M 224 514 Q 272 526 309 532 Q 331 538 322 549 Q 310 562 286 564 Q 264 565 226 550 Q 225 550 225 549 C 199 534 195 507 224 514 Z"/>
  <path id="z32845d5" d="M 221 402 Q 273 412 313 420 Q 335 426 326 437 Q 314 450 290 452 Q 251 455 221 434 C 196 417 192 396 221 402 Z"/>
  <path id="z32845d6" d="M 400 325 Q 421 340 422 348 Q 418 354 404 351 Q 400 351 400 349 C 371 341 383 343 354 335 Q 287 316 218 295 L 176 284 Q 149 278 126 271 Q 107 265 75 266 Q 62 265 60 255 Q 57 242 67 234 Q 89 218 121 198 Q 131 195 144 203 Q 186 233 353 302 L 400 325 Z"/>
  <path id="z32845d7" d="M 610 749 Q 638 725 669 697 Q 684 684 701 685 Q 711 686 717 700 Q 721 716 711 747 Q 699 778 603 799 Q 587 802 580 799 Q 574 795 577 781 Q 581 771 610 749 Z"/>
  <path id="z32845d8" d="M 517 605 Q 505 633 486 644 Q 483 648 477 645 Q 471 642 470 630 Q 474 599 444 540 Q 434 524 433 504 Q 436 485 445 470 Q 452 458 458 466 Q 471 469 488 514 Q 498 542 516 577 C 523 591 523 591 517 605 Z"/>
  <path id="z32845d9" d="M 516 577 Q 541 564 566 570 Q 653 607 772 621 Q 779 622 785 622 Q 804 610 802 602 Q 802 598 775 521 Q 771 508 777 505 Q 784 502 798 515 Q 846 558 888 577 Q 922 593 921 602 Q 920 611 850 655 Q 826 670 722 644 Q 707 644 579 616 Q 548 609 517 605 C 487 601 488 588 516 577 Z"/>
  <path id="z32845d10" d="M 687 385 Q 745 400 859 410 Q 871 409 881 423 Q 882 436 857 447 Q 817 469 722 441 Q 704 438 687 432 Q 639 422 481 399 Q 450 395 473 376 Q 506 351 554 359 Q 594 368 644 376 L 687 385 Z"/>
  <path id="z32845d11" d="M 608 78 Q 580 85 544 92 Q 532 95 533 88 Q 534 81 545 72 Q 618 26 664 -13 Q 674 -22 688 -6 Q 724 48 717 153 Q 711 244 717 326 Q 724 351 718 361 Q 711 371 687 385 C 662 401 636 405 644 376 Q 656 339 660 239 Q 660 98 652 81 Q 649 80 649 77 Q 637 70 608 78 Z"/>
<defs>
  <clipPath id="z32845c1"><use href="#z32845d1"/></clipPath>
  <clipPath id="z32845c2"><use href="#z32845d2"/></clipPath>
  <clipPath id="z32845c3"><use href="#z32845d3"/></clipPath>
  <clipPath id="z32845c4"><use href="#z32845d4"/></clipPath>
  <clipPath id="z32845c5"><use href="#z32845d5"/></clipPath>
  <clipPath id="z32845c6"><use href="#z32845d6"/></clipPath>
  <clipPath id="z32845c7"><use href="#z32845d7"/></clipPath>
  <clipPath id="z32845c8"><use href="#z32845d8"/></clipPath>
  <clipPath id="z32845c9"><use href="#z32845d9"/></clipPath>
  <clipPath id="z32845c10"><use href="#z32845d10"/></clipPath>
  <clipPath id="z32845c11"><use href="#z32845d11"/></clipPath>
</defs>
<path style="--d:1s;" pathLength="3333" clip-path="url(#z32845c1)" d="M 126 686 L 154 680 L 199 682 L 410 724 L 443 724"/>
<path style="--d:2s;" pathLength="3333" clip-path="url(#z32845c2)" d="M 163 654 L 194 631 L 199 613 L 197 312 L 181 295"/>
<path style="--d:3s;" pathLength="3333" clip-path="url(#z32845c3)" d="M 351 683 L 374 659 L 376 629 L 380 393 L 375 377 L 380 364 L 375 349 L 374 20"/>
<path style="--d:4s;" pathLength="3333" clip-path="url(#z32845c4)" d="M 231 520 L 243 536 L 257 541 L 291 547 L 312 543"/>
<path style="--d:5s;" pathLength="3333" clip-path="url(#z32845c5)" d="M 229 407 L 233 418 L 247 427 L 295 435 L 316 431"/>
<path style="--d:6s;" pathLength="3333" clip-path="url(#z32845c6)" d="M 74 252 L 128 235 L 416 345"/>
<path style="--d:7s;" pathLength="3333" clip-path="url(#z32845c7)" d="M 586 791 L 675 738 L 697 705"/>
<path style="--d:8s;" pathLength="3333" clip-path="url(#z32845c8)" d="M 481 637 L 493 599 L 458 507 L 455 479"/>
<path style="--d:9s;" pathLength="3333" clip-path="url(#z32845c9)" d="M 526 598 L 539 588 L 565 591 L 639 614 L 757 637 L 793 640 L 819 632 L 846 605 L 781 511"/>
<path style="--d:10s;" pathLength="3333" clip-path="url(#z32845c10)" d="M 475 388 L 531 381 L 804 431 L 869 424"/>
<path style="--d:11s;" pathLength="3333" clip-path="url(#z32845c11)" d="M 652 373 L 681 352 L 686 341 L 689 125 L 682 67 L 664 39 L 619 51 L 540 87"/>
</svg>