<svg id="z34432" class="acjk" viewBox="0 0 1024 1024" xmlns="http://www.w3.org/2000/svg">
  <path id="z34432d1" d="M 281 583 Q 303 620 326 662 Q 351 714 374 740 Q 383 750 377 765 Q 373 778 342 799 Q 314 815 294 815 Q 275 812 285 790 Q 301 757 290 729 Q 230 560 77 356 Q 67 344 65 338 Q 62 326 77 330 Q 128 342 271 566 L 281 583 Z"/>
  <path id="z34432d2" d="M 271 566 Q 289 557 381 578 Q 391 581 393 578 Q 397 575 393 567 Q 371 500 356 467 Q 350 454 350 448 Q 349 438 360 444 Q 372 451 421 515 Q 452 555 483 579 Q 499 589 487 602 Q 474 612 438 629 Q 422 633 409 624 Q 400 620 325 594 Q 306 588 281 583 C 252 577 242 573 271 566 Z"/>
  <path id="z34432d3" d="M 317 404 Q 323 417 313 427 Q 291 448 270 458 Q 254 465 245 460 Q 235 454 243 440 Q 279 362 259 200 Q 256 154 218 107 Q 208 92 214 71 Q 224 46 236 35 Q 248 28 259 43 Q 274 71 410 185 Q 428 198 432 206 Q 436 216 426 216 Q 416 216 311 157 Q 302 153 301 160 Q 313 271 313 356 Q 313 383 317 404 Z"/>
  <path id="z34432d4" d="M 517 492 Q 505 496 480 500 Q 468 504 465 498 Q 458 492 467 476 Q 497 418 515 320 Q 519 290 536 271 Q 554 249 559 265 Q 562 275 562 288 L 559 319 Q 559 323 558 329 Q 540 426 536 459 C 532 488 532 488 517 492 Z"/>
  <path id="z34432d5" d="M 820 360 Q 856 459 891 481 Q 909 500 894 519 Q 878 534 823 560 Q 804 569 781 560 Q 736 542 695 529 L 651 517 Q 584 502 517 492 C 487 487 507 453 536 459 Q 548 460 560 465 Q 605 475 651 484 L 695 493 Q 782 514 794 503 Q 804 493 799 472 Q 786 414 768 367 C 758 339 809 332 820 360 Z"/>
  <path id="z34432d6" d="M 691 310 Q 748 320 829 329 Q 839 330 840 339 Q 840 346 820 360 L 768 367 Q 765 368 763 367 Q 726 358 692 348 L 650 337 Q 602 327 559 319 C 530 313 532 284 562 288 Q 565 288 649 303 L 691 310 Z"/>
  <path id="z34432d7" d="M 687 152 Q 688 233 691 310 L 692 348 Q 693 421 695 493 L 695 529 Q 698 646 720 754 Q 723 766 701 782 Q 661 803 635 806 Q 617 810 608 800 Q 599 791 609 775 Q 646 720 646 683 Q 650 604 651 517 L 651 484 Q 651 414 650 337 L 649 303 Q 646 225 642 142 C 641 112 687 122 687 152 Z"/>
  <path id="z34432d8" d="M 831 187 Q 762 171 687 152 L 642 142 Q 581 129 517 116 Q 493 110 455 114 Q 442 113 438 103 Q 434 88 444 79 Q 466 60 500 37 Q 512 33 525 41 Q 570 68 803 146 Q 824 153 845 162 C 873 173 860 194 831 187 Z"/>
  <path id="z34432d9" d="M 845 162 Q 894 72 904 66 Q 911 62 921 70 Q 937 80 936 124 Q 937 163 876 214 Q 837 245 814 260 Q 807 267 802 256 Q 798 243 805 231 Q 818 212 831 187 L 845 162 Z"/>
<defs>
  <clipPath id="z34432c1"><use href="#z34432d1"/></clipPath>
  <clipPath id="z34432c2"><use href="#z34432d2"/></clipPath>
  <clipPath id="z34432c3"><use href="#z34432d3"/></clipPath>
  <clipPath id="z34432c4"><use href="#z34432d4"/></clipPath>
  <clipPath id="z34432c5"><use href="#z34432d5"/></clipPath>
  <clipPath id="z34432c6"><use href="#z34432d6"/></clipPath>
  <clipPath id="z34432c7"><use href="#z34432d7"/></clipPath>
  <clipPath id="z34432c8"><use href="#z34432d8"/></clipPath>
  <clipPath id="z34432c9"><use href="#z34432d9"/></clipPath>
</defs>
<path style="--d:1s;" pathLength="3333" clip-path="url(#z34432c1)" d="M 295 800 L 322 776 L 334 755 L 305 683 L 195 488 L 133 401 L 74 338"/>
<path style="--d:2s;" pathLength="3333" clip-path="url(#z34432c2)" d="M 276 569 L 396 598 L 432 588 L 388 496 L 357 451"/>
<path style="--d:3s;" pathLength="3333" clip-path="url(#z34432c3)" d="M 252 449 L 280 420 L 287 403 L 290 309 L 275 159 L 279 125 L 316 133 L 426 209"/>
<path style="--d:4s;" pathLength="3333" clip-path="url(#z34432c4)" d="M 474 490 L 499 469 L 509 451 L 548 270"/>
<path style="--d:5s;" pathLength="3333" clip-path="url(#z34432c5)" d="M 525 489 L 549 479 L 783 533 L 803 534 L 818 527 L 844 499 L 841 488 L 803 388 L 775 372"/>
<path style="--d:6s;" pathLength="3333" clip-path="url(#z34432c6)" d="M 563 296 L 584 308 L 761 344 L 811 345 L 830 339"/>
<path style="--d:7s;" pathLength="3333" clip-path="url(#z34432c7)" d="M 622 788 L 674 748 L 677 706 L 666 177 L 648 149"/>
<path style="--d:8s;" pathLength="3333" clip-path="url(#z34432c8)" d="M 455 96 L 510 76 L 823 170 L 836 165"/>
<path style="--d:9s;" pathLength="3333" clip-path="url(#z34432c9)" d="M 811 249 L 898 138 L 910 101 L 909 75"/>
</svg>