<svg id="z37738" class="acjk" viewBox="0 0 1024 1024" xmlns="http://www.w3.org/2000/svg">
  <path id="z37738d1" d="M 387 696 Q 456 747 480 753 Q 495 757 490 771 Q 489 783 437 812 Q 422 819 405 813 Q 362 797 297 779 Q 281 775 239 775 Q 221 776 227 760 Q 233 750 248 741 Q 272 728 298 743 Q 391 785 405 776 Q 414 770 410 759 Q 394 734 376 704 C 361 678 363 678 387 696 Z"/>
  <path id="z37738d2" d="M 398 667 Q 395 688 387 696 L 376 704 Q 364 713 318 716 Q 308 717 304 714 Q 300 711 303 703 Q 306 696 326 684 Q 344 672 364 657 C 388 639 403 637 398 667 Z"/>
  <path id="z37738d3" d="M 384 637 Q 400 641 422 646 Q 447 649 449 638 Q 450 628 435 591 Q 431 579 435 577 Q 441 574 449 584 Q 500 623 520 631 Q 536 635 535 645 Q 534 654 479 679 Q 460 688 398 667 L 364 657 Q 280 638 155 615 Q 134 612 150 596 Q 163 583 197 593 Q 261 609 324 624 L 384 637 Z"/>
  <path id="z37738d4" d="M 365 610 Q 392 559 366 493 Q 365 493 365 491 Q 356 475 333 478 Q 312 482 293 486 Q 286 487 289 480 Q 292 476 304 467 Q 332 445 341 428 Q 348 415 359 417 Q 368 418 386 437 Q 416 471 415 551 Q 411 620 384 637 C 361 656 352 637 365 610 Z"/>
  <path id="z37738d5" d="M 324 624 Q 291 539 137 438 Q 124 428 136 426 Q 145 425 176 437 Q 213 450 247 475 Q 275 497 310 534 Q 337 565 365 610 C 390 649 358 703 324 624 Z"/>
  <path id="z37738d6" d="M 627 712 Q 640 734 654 760 Q 664 782 674 794 Q 680 803 675 812 Q 671 821 649 835 Q 627 845 614 844 Q 601 841 608 826 Q 623 802 584 711 Q 565 671 538 623 Q 531 616 531 610 Q 530 601 539 605 Q 560 608 607 681 L 627 712 Z"/>
  <path id="z37738d7" d="M 712 692 Q 832 725 836 728 Q 843 735 839 742 Q 832 752 807 757 Q 786 760 714 735 Q 690 729 627 712 C 598 704 577 685 607 681 Q 641 675 683 685 L 712 692 Z"/>
  <path id="z37738d8" d="M 689 554 Q 695 561 726 617 Q 732 630 742 642 Q 752 654 742 664 Q 724 688 712 692 C 686 707 681 709 683 685 Q 689 642 648 570 L 625 543 Q 624 543 624 542 Q 597 515 539 495 Q 527 491 536 486 Q 593 471 659 522 L 689 554 Z"/>
  <path id="z37738d9" d="M 659 522 Q 716 485 782 436 Q 797 423 809 421 Q 816 422 820 430 Q 827 442 812 473 Q 796 509 689 554 L 648 570 Q 597 591 566 601 Q 559 604 559 594 Q 559 588 625 543 L 659 522 Z"/>
  <path id="z37738d10" d="M 521 468 Q 524 472 524 477 Q 524 487 515 500 Q 491 533 461 534 Q 452 534 452 522 Q 452 435 273 298 Q 266 294 259 288 Q 207 251 83 182 Q 74 179 84 175 Q 147 171 288 259 Q 387 334 495 446 Q 498 450 501 452 L 521 468 Z"/>
  <path id="z37738d11" d="M 501 452 Q 756 218 810 210 Q 864 201 967 230 Q 985 234 986 239 Q 987 246 973 250 Q 775 310 747 324 Q 671 357 527 464 Q 523 467 521 468 C 497 485 479 472 501 452 Z"/>
  <path id="z37738d12" d="M 493 277 Q 596 299 598 300 Q 605 307 602 314 Q 596 324 571 331 Q 546 337 520 327 Q 489 317 456 310 Q 419 303 376 300 Q 345 296 367 280 Q 406 259 451 270 L 493 277 Z"/>
  <path id="z37738d13" d="M 514 167 Q 553 176 595 182 Q 635 191 642 196 Q 649 203 646 210 Q 640 220 616 227 Q 591 234 517 210 L 463 197 Q 408 187 345 183 Q 314 179 335 164 Q 365 148 439 156 Q 451 157 464 159 L 514 167 Z"/>
  <path id="z37738d14" d="M 506 31 Q 510 106 514 167 L 517 210 Q 520 252 517 257 Q 505 269 493 277 C 469 294 436 296 451 270 Q 463 255 463 197 L 464 159 Q 464 110 464 25 C 464 -5 504 1 506 31 Z"/>
  <path id="z37738d15" d="M 326 89 Q 347 71 370 50 Q 380 40 393 41 Q 402 42 405 52 Q 409 64 401 87 Q 397 102 372 113 Q 315 131 304 127 Q 300 123 301 113 Q 305 106 326 89 Z"/>
  <path id="z37738d16" d="M 623 138 Q 599 108 552 63 Q 548 57 551 51 Q 557 50 564 53 Q 645 98 683 114 Q 699 117 696 126 Q 693 141 678 158 Q 663 174 645 178 Q 632 179 631 163 Q 632 151 623 138 Z"/>
  <path id="z37738d17" d="M 464 25 Q 349 15 217 1 Q 196 0 211 -17 Q 224 -30 241 -37 Q 262 -43 277 -39 Q 502 12 767 -6 Q 768 -5 770 -6 Q 789 -6 794 2 Q 800 12 784 27 Q 733 66 698 58 Q 625 46 506 31 L 464 25 Z"/>
<defs>
  <clipPath id="z37738c1"><use href="#z37738d1"/></clipPath>
  <clipPath id="z37738c2"><use href="#z37738d2"/></clipPath>
  <clipPath id="z37738c3"><use href="#z37738d3"/></clipPath>
  <clipPath id="z37738c4"><use href="#z37738d4"/></clipPath>
  <clipPath id="z37738c5"><use href="#z37738d5"/></clipPath>
  <clipPath id="z37738c6"><use href="#z37738d6"/></clipPath>
  <clipPath id="z37738c7"><use href="#z37738d7"/></clipPath>
  <clipPath id="z37738c8"><use href="#z37738d8"/></clipPath>
  <clipPath id="z37738c9"><use href="#z37738d9"/></clipPath>
  <clipPath id="z37738c10"><use href="#z37738d10"/></clipPath>
  <clipPath id="z37738c11"><use href="#z37738d11"/></clipPath>
  <clipPath id="z37738c12"><use href="#z37738d12"/></clipPath>
  <clipPath id="z37738c13"><use href="#z37738d13"/></clipPath>
  <clipPath id="z37738c14"><use href="#z37738d14"/></clipPath>
  <clipPath id="z37738c15"><use href="#z37738d15"/></clipPath>
  <clipPath id="z37738c16"><use href="#z37738d16"/></clipPath>
  <clipPath id="z37738c17"><use href="#z37738d17"/></clipPath>
</defs>
<path style="--d:1s;" pathLength="3333" clip-path="url(#z37738c1)" d="M 235 766 L 275 755 L 394 793 L 421 793 L 434 785 L 442 770 L 393 707 L 386 706"/>
<path style="--d:2s;" pathLength="3333" clip-path="url(#z37738c2)" d="M 312 708 L 390 674"/>
<path style="--d:3s;" pathLength="3333" clip-path="url(#z37738c3)" d="M 153 605 L 184 605 L 445 663 L 480 644 L 440 584"/>
<path style="--d:4s;" pathLength="3333" clip-path="url(#z37738c4)" d="M 385 630 L 398 560 L 386 482 L 361 452 L 295 481"/>
<path style="--d:5s;" pathLength="3333" clip-path="url(#z37738c5)" d="M 370 626 L 339 607 L 310 561 L 241 492 L 164 441 L 140 432"/>
<path style="--d:6s;" pathLength="3333" clip-path="url(#z37738c6)" d="M 616 833 L 640 809 L 635 778 L 589 679 L 539 614"/>
<path style="--d:7s;" pathLength="3333" clip-path="url(#z37738c7)" d="M 614 684 L 639 697 L 720 713 L 770 731 L 802 738 L 831 736"/>
<path style="--d:8s;" pathLength="3333" clip-path="url(#z37738c8)" d="M 692 680 L 709 664 L 711 650 L 669 563 L 616 513 L 543 489"/>
<path style="--d:9s;" pathLength="3333" clip-path="url(#z37738c9)" d="M 565 595 L 709 520 L 763 485 L 796 456 L 807 435"/>
<path style="--d:10s;" pathLength="3333" clip-path="url(#z37738c10)" d="M 466 521 L 483 483 L 426 408 L 337 323 L 232 246 L 141 198 L 108 185 L 93 186 L 89 179"/>
<path style="--d:11s;" pathLength="3333" clip-path="url(#z37738c11)" d="M 520 459 L 522 449 L 633 361 L 711 307 L 781 268 L 817 253 L 865 245 L 980 240"/>
<path style="--d:12s;" pathLength="3333" clip-path="url(#z37738c12)" d="M 369 291 L 391 285 L 440 287 L 543 311 L 594 309"/>
<path style="--d:13s;" pathLength="3333" clip-path="url(#z37738c13)" d="M 338 175 L 364 169 L 409 170 L 582 204 L 635 206"/>
<path style="--d:14s;" pathLength="3333" clip-path="url(#z37738c14)" d="M 458 269 L 486 248 L 491 223 L 486 57 L 483 45 L 470 34"/>
<path style="--d:15s;" pathLength="3333" clip-path="url(#z37738c15)" d="M 308 119 L 367 87 L 392 55"/>
<path style="--d:16s;" pathLength="3333" clip-path="url(#z37738c16)" d="M 644 165 L 656 135 L 557 57"/>
<path style="--d:17s;" pathLength="3333" clip-path="url(#z37738c17)" d="M 214 -8 L 268 -17 L 517 15 L 697 28 L 733 25 L 783 8"/>
</svg>