<svg id="z31612" class="acjk" viewBox="0 0 1024 1024" xmlns="http://www.w3.org/2000/svg">
  <path id="z31612d1" d="M 361 761 L 384 794 Q 388 803 378 813 Q 341 844 318 842 Q 308 841 310 827 Q 318 743 227 645 Q 210 627 194 610 Q 188 599 196 599 Q 198 599 200 600 Q 249 606 326 709 Q 338 730 343 735 L 361 761 Z"/>
  <path id="z31612d2" d="M 343 735 Q 384 728 495 747 Q 504 749 506 749 Q 539 755 537 765 Q 537 766 536 768 Q 528 780 506 786 Q 482 790 459 782 Q 409 768 388 765 Q 376 764 361 761 C 332 755 313 739 343 735 Z"/>
  <path id="z31612d3" d="M 355 663 Q 379 627 404 613 Q 416 610 423 621 Q 427 629 425 641 Q 421 668 390 684 Q 367 696 347 692 Q 342 692 343 682 Q 343 673 355 663 Z"/>
  <path id="z31612d4" d="M 626 789 L 645 820 Q 650 830 639 840 Q 598 865 579 860 Q 569 858 572 846 Q 586 791 541 721 L 514 680 Q 508 668 517 671 Q 538 674 572 710 Q 598 737 613 764 L 626 789 Z"/>
  <path id="z31612d5" d="M 613 764 Q 647 750 718 760 L 799 774 Q 821 777 825 780 Q 844 796 809 809 Q 804 811 797 813 Q 773 819 750 812 Q 703 799 670 794 Q 650 791 626 789 C 596 786 585 774 613 764 Z"/>
  <path id="z31612d6" d="M 627 690 Q 661 653 690 637 Q 710 636 712 655 Q 716 676 700 694 L 692 702 Q 636 728 615 721 Q 612 720 612 710 Q 613 700 627 690 Z"/>
  <path id="z31612d7" d="M 390 581 Q 380 587 357 589 Q 343 590 339 586 Q 335 582 345 563 Q 370 512 382 466 Q 386 446 400 435 Q 416 416 418 431 Q 421 440 419 454 L 415 482 Q 404 532 402 552 C 399 577 399 577 390 581 Z"/>
  <path id="z31612d8" d="M 622 505 Q 647 549 669 559 Q 684 574 672 590 Q 659 603 615 625 Q 603 632 582 625 L 525 608 Q 468 591 390 581 C 360 577 372 548 402 552 Q 408 552 568 583 Q 586 587 593 580 Q 598 570 580 515 C 571 486 607 479 622 505 Z"/>
  <path id="z31612d9" d="M 419 454 Q 425 454 458 460 Q 513 470 627 480 Q 636 480 637 488 Q 637 494 622 505 C 605 518 605 518 580 515 Q 575 515 545 508 Q 492 494 415 482 C 385 477 389 451 419 454 Z"/>
  <path id="z31612d10" d="M 371 396 Q 329 427 316 413 Q 314 410 319 397 Q 345 335 327 208 Q 316 157 318 143 Q 325 114 336 104 Q 347 92 355 104 Q 375 127 375 210 Q 375 333 381 368 C 384 387 384 387 371 396 Z"/>
  <path id="z31612d11" d="M 381 368 Q 392 368 482 385 Q 598 408 615 396 Q 629 365 627 249 Q 627 190 622 173 Q 613 150 633 122 Q 643 106 649 106 Q 660 107 674 133 Q 690 160 688 180 Q 672 339 700 379 Q 709 394 696 410 Q 672 428 632 445 Q 618 452 588 441 Q 529 419 512 416 Q 448 398 371 396 C 341 395 351 364 381 368 Z"/>
  <path id="z31612d12" d="M 470 259 Q 474 120 433 67 Q 396 16 260 -29 Q 239 -32 243 -39 Q 245 -42 252 -45 Q 331 -51 431 -3 Q 445 8 459 20 Q 501 63 515 158 L 528 252 Q 532 273 538 286 Q 542 296 535 303 Q 517 319 490 331 Q 465 343 451 337 Q 431 331 447 314 Q 471 286 470 259 Z"/>
  <path id="z31612d13" d="M 557 110 Q 556 97 566 84 L 628 21 Q 655 -8 682 -41 Q 710 -77 727 -59 Q 740 -45 729 -4 Q 720 41 625 90 Q 584 112 568 116 Q 559 122 557 110 Z"/>
<defs>
  <clipPath id="z31612c1"><use href="#z31612d1"/></clipPath>
  <clipPath id="z31612c2"><use href="#z31612d2"/></clipPath>
  <clipPath id="z31612c3"><use href="#z31612d3"/></clipPath>
  <clipPath id="z31612c4"><use href="#z31612d4"/></clipPath>
  <clipPath id="z31612c5"><use href="#z31612d5"/></clipPath>
  <clipPath id="z31612c6"><use href="#z31612d6"/></clipPath>
  <clipPath id="z31612c7"><use href="#z31612d7"/></clipPath>
  <clipPath id="z31612c8"><use href="#z31612d8"/></clipPath>
  <clipPath id="z31612c9"><use href="#z31612d9"/></clipPath>
  <clipPath id="z31612c10"><use href="#z31612d10"/></clipPath>
  <clipPath id="z31612c11"><use href="#z31612d11"/></clipPath>
  <clipPath id="z31612c12"><use href="#z31612d12"/></clipPath>
  <clipPath id="z31612c13"><use href="#z31612d13"/></clipPath>
</defs>
<path style="--d:1s;" pathLength="3333" clip-path="url(#z31612c1)" d="M 320 832 L 344 796 L 313 728 L 257 653 L 197 605"/>
<path style="--d:2s;" pathLength="3333" clip-path="url(#z31612c2)" d="M 348 741 L 472 765 L 530 764"/>
<path style="--d:3s;" pathLength="3333" clip-path="url(#z31612c3)" d="M 354 683 L 393 654 L 409 628"/>
<path style="--d:4s;" pathLength="3333" clip-path="url(#z31612c4)" d="M 585 848 L 608 821 L 595 781 L 556 713 L 520 677"/>
<path style="--d:5s;" pathLength="3333" clip-path="url(#z31612c5)" d="M 620 768 L 636 775 L 688 776 L 774 793 L 820 790"/>
<path style="--d:6s;" pathLength="3333" clip-path="url(#z31612c6)" d="M 621 713 L 677 679 L 694 654"/>
<path style="--d:7s;" pathLength="3333" clip-path="url(#z31612c7)" d="M 345 582 L 372 562 L 380 544 L 409 433"/>
<path style="--d:8s;" pathLength="3333" clip-path="url(#z31612c8)" d="M 399 576 L 411 569 L 430 571 L 580 605 L 602 603 L 612 599 L 630 576 L 610 532 L 589 523"/>
<path style="--d:9s;" pathLength="3333" clip-path="url(#z31612c9)" d="M 422 462 L 458 476 L 572 494 L 629 488"/>
<path style="--d:10s;" pathLength="3333" clip-path="url(#z31612c10)" d="M 323 410 L 351 381 L 355 367 L 356 266 L 344 141 L 346 108"/>
<path style="--d:11s;" pathLength="3333" clip-path="url(#z31612c11)" d="M 380 391 L 390 383 L 468 391 L 603 423 L 623 421 L 642 409 L 659 387 L 654 321 L 657 189 L 650 115"/>
<path style="--d:12s;" pathLength="3333" clip-path="url(#z31612c12)" d="M 452 325 L 475 314 L 501 286 L 490 153 L 479 105 L 463 68 L 445 41 L 413 14 L 326 -24 L 250 -38"/>
<path style="--d:13s;" pathLength="3333" clip-path="url(#z31612c13)" d="M 567 105 L 676 18 L 697 -8 L 714 -48"/>
</svg>