<svg id="z36323" class="acjk" viewBox="0 0 1024 1024" xmlns="http://www.w3.org/2000/svg">
  <path id="z36323d1" d="M 164 673 Q 154 677 134 681 Q 122 684 119 679 Q 113 673 121 658 Q 146 600 162 506 Q 165 478 181 459 Q 197 438 202 453 Q 206 465 207 482 L 204 514 Q 188 620 185 647 C 183 667 183 667 164 673 Z"/>
  <path id="z36323d2" d="M 337 535 Q 358 623 384 651 Q 406 676 383 690 Q 364 702 338 719 Q 320 729 279 706 Q 224 684 164 673 C 135 667 157 637 185 647 Q 197 653 277 669 Q 302 675 308 665 Q 315 658 288 539 C 281 510 330 506 337 535 Z"/>
  <path id="z36323d3" d="M 271 494 Q 302 501 347 507 Q 357 508 357 517 Q 357 524 337 535 L 288 539 Q 285 539 284 538 Q 239 523 204 514 C 175 506 177 478 207 482 Q 211 482 232 487 L 271 494 Z"/>
  <path id="z36323d4" d="M 290 208 Q 291 278 294 339 L 296 374 Q 296 419 300 447 Q 307 471 271 494 C 246 511 222 515 232 487 Q 244 456 245 434 Q 246 409 247 193 C 247 163 290 178 290 208 Z"/>
  <path id="z36323d5" d="M 294 339 Q 339 349 374 356 Q 396 362 386 373 Q 374 386 350 387 Q 328 387 296 374 C 268 363 265 333 294 339 Z"/>
  <path id="z36323d6" d="M 188 173 Q 178 279 182 308 Q 183 329 170 339 Q 148 355 123 361 Q 110 365 102 359 Q 96 353 102 340 Q 118 315 128 286 Q 135 261 151 160 C 156 130 191 143 188 173 Z"/>
  <path id="z36323d7" d="M 151 160 Q 133 156 117 148 Q 98 141 67 141 Q 54 140 53 128 Q 52 115 61 106 Q 86 91 121 73 Q 131 72 144 80 Q 180 111 220 132 Q 283 163 344 196 Q 368 208 385 223 Q 398 230 398 241 Q 392 245 379 243 Q 336 227 290 208 L 247 193 Q 217 184 188 173 L 151 160 Z"/>
  <path id="z36323d8" d="M 508 585 Q 520 609 536 625 Q 543 634 539 645 Q 535 655 512 671 Q 490 684 475 684 Q 460 681 468 665 Q 480 641 443 565 Q 425 529 400 489 Q 393 480 391 475 Q 388 466 400 469 Q 424 473 493 564 L 508 585 Z"/>
  <path id="z36323d9" d="M 640 572 Q 764 609 769 613 Q 776 620 772 629 Q 765 639 735 645 Q 705 648 644 620 L 591 602 Q 551 593 508 585 C 479 579 465 575 493 564 Q 496 564 498 562 Q 540 544 591 558 L 640 572 Z"/>
  <path id="z36323d10" d="M 630 447 Q 634 511 640 572 L 644 620 Q 644 683 666 765 Q 670 777 650 792 Q 614 811 590 816 Q 574 820 566 811 Q 559 804 566 788 Q 588 757 587 737 Q 591 673 591 602 L 591 558 Q 590 501 587 437 C 586 407 628 417 630 447 Z"/>
  <path id="z36323d11" d="M 587 437 Q 505 421 411 402 Q 390 399 407 383 Q 437 356 483 371 Q 573 401 618 402 L 662 409 Q 723 419 809 423 Q 860 423 866 434 Q 870 446 853 458 Q 793 494 750 477 Q 701 464 630 447 L 587 437 Z"/>
  <path id="z36323d12" d="M 508 329 Q 520 211 348 73 Q 341 66 347 63 Q 369 54 445 107 Q 512 152 560 257 Q 570 275 581 291 Q 588 300 583 310 Q 577 320 549 337 Q 530 349 520 347 Q 507 343 508 329 Z"/>
  <path id="z36323d13" d="M 618 402 Q 637 365 633 312 Q 627 126 654 91 Q 694 51 852 53 Q 919 54 945 68 Q 973 81 962 110 Q 949 155 941 229 Q 940 245 933 250 Q 926 254 922 236 Q 900 145 885 129 Q 876 119 851 111 Q 758 90 706 108 Q 688 117 684 129 Q 674 157 674 229 Q 680 307 695 345 Q 707 373 689 390 Q 673 402 662 409 C 637 426 607 430 618 402 Z"/>
<defs>
  <clipPath id="z36323c1"><use href="#z36323d1"/></clipPath>
  <clipPath id="z36323c2"><use href="#z36323d2"/></clipPath>
  <clipPath id="z36323c3"><use href="#z36323d3"/></clipPath>
  <clipPath id="z36323c4"><use href="#z36323d4"/></clipPath>
  <clipPath id="z36323c5"><use href="#z36323d5"/></clipPath>
  <clipPath id="z36323c6"><use href="#z36323d6"/></clipPath>
  <clipPath id="z36323c7"><use href="#z36323d7"/></clipPath>
  <clipPath id="z36323c8"><use href="#z36323d8"/></clipPath>
  <clipPath id="z36323c9"><use href="#z36323d9"/></clipPath>
  <clipPath id="z36323c10"><use href="#z36323d10"/></clipPath>
  <clipPath id="z36323c11"><use href="#z36323d11"/></clipPath>
  <clipPath id="z36323c12"><use href="#z36323d12"/></clipPath>
  <clipPath id="z36323c13"><use href="#z36323d13"/></clipPath>
</defs>
<path style="--d:1s;" pathLength="3333" clip-path="url(#z36323c1)" d="M 128 672 L 150 653 L 160 632 L 192 458"/>
<path style="--d:2s;" pathLength="3333" clip-path="url(#z36323c2)" d="M 172 672 L 192 664 L 297 693 L 328 689 L 347 667 L 345 657 L 318 561 L 295 552"/>
<path style="--d:3s;" pathLength="3333" clip-path="url(#z36323c3)" d="M 210 488 L 227 503 L 291 519 L 347 517"/>
<path style="--d:4s;" pathLength="3333" clip-path="url(#z36323c4)" d="M 240 481 L 266 467 L 272 455 L 268 224 L 250 206"/>
<path style="--d:5s;" pathLength="3333" clip-path="url(#z36323c5)" d="M 301 344 L 307 356 L 323 365 L 378 366"/>
<path style="--d:6s;" pathLength="3333" clip-path="url(#z36323c6)" d="M 110 351 L 151 312 L 167 187 L 154 171"/>
<path style="--d:7s;" pathLength="3333" clip-path="url(#z36323c7)" d="M 66 128 L 126 112 L 393 237"/>
<path style="--d:8s;" pathLength="3333" clip-path="url(#z36323c8)" d="M 476 673 L 501 643 L 500 630 L 446 531 L 398 475"/>
<path style="--d:9s;" pathLength="3333" clip-path="url(#z36323c9)" d="M 498 569 L 589 580 L 721 621 L 763 621"/>
<path style="--d:10s;" pathLength="3333" clip-path="url(#z36323c10)" d="M 578 801 L 624 761 L 611 472 L 593 445"/>
<path style="--d:11s;" pathLength="3333" clip-path="url(#z36323c11)" d="M 409 393 L 433 387 L 469 390 L 584 418 L 773 452 L 857 439"/>
<path style="--d:12s;" pathLength="3333" clip-path="url(#z36323c12)" d="M 524 332 L 542 292 L 501 200 L 466 154 L 425 114 L 352 68"/>
<path style="--d:13s;" pathLength="3333" clip-path="url(#z36323c13)" d="M 626 398 L 655 380 L 664 367 L 652 251 L 654 174 L 666 116 L 672 105 L 692 92 L 727 81 L 797 77 L 862 82 L 917 102 L 926 150 L 931 243"/>
</svg>