<svg id="z30768" class="acjk" viewBox="0 0 1024 1024" xmlns="http://www.w3.org/2000/svg">
  <path id="z30768d1" d="M 266 651 Q 329 669 399 686 Q 436 696 441 701 Q 450 711 444 719 Q 435 732 404 738 Q 371 742 340 728 Q 300 712 255 698 Q 206 685 148 677 Q 109 668 139 651 Q 170 635 221 640 L 266 651 Z"/>
  <path id="z30768d2" d="M 214 442 Q 242 500 283 591 Q 298 625 298 627 Q 295 636 283 644 Q 274 648 266 651 C 238 662 216 670 221 640 Q 236 577 172 446 L 153 412 Q 90 318 23 238 Q 17 234 26 232 Q 83 250 168 366 L 214 442 Z"/>
  <path id="z30768d3" d="M 172 446 Q 168 447 162 449 Q 150 453 147 448 Q 140 442 148 427 Q 151 420 153 412 L 168 366 Q 181 317 190 253 Q 191 222 209 199 Q 225 178 231 193 Q 237 211 235 242 L 231 274 Q 213 383 212 412 L 172 446 Z"/>
  <path id="z30768d4" d="M 364 309 Q 379 394 402 421 Q 424 448 400 461 Q 381 471 353 487 Q 332 499 293 470 Q 248 452 214 442 C 181 432 183 405 212 412 Q 218 413 224 415 Q 263 427 297 435 Q 319 441 325 431 Q 334 425 327 389 Q 320 349 313 301 C 309 271 359 279 364 309 Z"/>
  <path id="z30768d5" d="M 235 242 Q 319 263 388 275 Q 397 276 398 285 Q 398 292 367 308 Q 366 309 364 309 L 313 301 Q 268 286 231 274 C 202 265 206 235 235 242 Z"/>
  <path id="z30768d6" d="M 656 668 Q 821 707 827 711 Q 836 718 831 728 Q 824 740 794 747 Q 767 753 648 714 Q 552 696 509 690 Q 472 683 499 666 Q 538 645 596 655 L 656 668 Z"/>
  <path id="z30768d7" d="M 477 503 Q 496 479 516 450 Q 526 437 541 435 Q 551 434 557 445 Q 564 458 560 486 Q 559 504 533 520 Q 475 554 460 551 Q 456 548 454 536 Q 455 526 477 503 Z"/>
  <path id="z30768d8" d="M 777 583 Q 759 547 705 470 Q 698 454 713 458 Q 758 489 783 512 Q 837 563 859 574 Q 878 584 866 600 Q 853 616 826 626 Q 802 636 791 633 Q 779 632 784 619 Q 788 601 777 583 Z"/>
  <path id="z30768d9" d="M 672 355 Q 766 368 909 372 Q 970 372 976 382 Q 980 392 965 406 Q 914 442 877 433 Q 801 415 672 392 L 621 384 Q 518 368 399 350 Q 380 347 395 331 Q 408 318 426 313 Q 447 309 462 313 Q 535 335 621 348 L 672 355 Z"/>
  <path id="z30768d10" d="M 621 -30 Q 627 -55 634 -65 Q 640 -72 647 -70 Q 662 -61 668 0 Q 677 88 675 174 Q 671 222 672 355 L 672 392 Q 672 545 685 630 Q 688 648 656 668 C 632 686 583 682 596 655 Q 620 607 622 575 Q 623 493 621 384 L 621 348 Q 615 24 621 -30 Z"/>
<defs>
  <clipPath id="z30768c1"><use href="#z30768d1"/></clipPath>
  <clipPath id="z30768c2"><use href="#z30768d2"/></clipPath>
  <clipPath id="z30768c3"><use href="#z30768d3"/></clipPath>
  <clipPath id="z30768c4"><use href="#z30768d4"/></clipPath>
  <clipPath id="z30768c5"><use href="#z30768d5"/></clipPath>
  <clipPath id="z30768c6"><use href="#z30768d6"/></clipPath>
  <clipPath id="z30768c7"><use href="#z30768d7"/></clipPath>
  <clipPath id="z30768c8"><use href="#z30768d8"/></clipPath>
  <clipPath id="z30768c9"><use href="#z30768d9"/></clipPath>
  <clipPath id="z30768c10"><use href="#z30768d10"/></clipPath>
</defs>
<path style="--d:1s;" pathLength="3333" clip-path="url(#z30768c1)" d="M 140 665 L 172 660 L 223 665 L 376 710 L 433 712"/>
<path style="--d:2s;" pathLength="3333" clip-path="url(#z30768c2)" d="M 289 627 L 263 620 L 257 613 L 238 546 L 210 479 L 135 351 L 71 274 L 29 237"/>
<path style="--d:3s;" pathLength="3333" clip-path="url(#z30768c3)" d="M 155 440 L 174 418 L 189 387 L 221 199"/>
<path style="--d:4s;" pathLength="3333" clip-path="url(#z30768c4)" d="M 211 422 L 249 439 L 330 461 L 366 436 L 341 329 L 318 308"/>
<path style="--d:5s;" pathLength="3333" clip-path="url(#z30768c5)" d="M 242 248 L 246 260 L 312 281 L 360 290 L 389 284"/>
<path style="--d:6s;" pathLength="3333" clip-path="url(#z30768c6)" d="M 501 679 L 558 674 L 664 693 L 777 723 L 822 721"/>
<path style="--d:7s;" pathLength="3333" clip-path="url(#z30768c7)" d="M 464 545 L 523 492 L 542 451"/>
<path style="--d:8s;" pathLength="3333" clip-path="url(#z30768c8)" d="M 796 622 L 818 589 L 716 469"/>
<path style="--d:9s;" pathLength="3333" clip-path="url(#z30768c9)" d="M 398 340 L 435 333 L 462 336 L 589 362 L 888 403 L 929 399 L 968 387"/>
<path style="--d:10s;" pathLength="3333" clip-path="url(#z30768c10)" d="M 605 650 L 647 628 L 651 589 L 643 -61"/>
</svg>