<svg id="z30235" class="acjk" viewBox="0 0 1024 1024" xmlns="http://www.w3.org/2000/svg">
  <path id="z30235d1" d="M 525 799 Q 552 781 580 760 Q 596 750 611 752 Q 621 753 625 768 Q 626 784 614 812 Q 599 842 513 845 Q 497 846 492 843 Q 488 839 491 826 Q 495 816 525 799 Z"/>
  <path id="z30235d2" d="M 356 631 Q 357 631 360 630 Q 387 623 417 629 Q 564 650 716 672 Q 786 684 797 693 Q 806 700 802 708 Q 796 721 768 729 Q 741 736 633 707 Q 456 673 346 667 C 316 665 327 638 356 631 Z"/>
  <path id="z30235d3" d="M 258 326 Q 221 184 107 5 Q 101 -1 100 -7 Q 97 -17 107 -15 Q 143 -9 225 122 Q 238 147 252 174 Q 316 321 343 552 Q 344 588 356 631 C 362 656 362 656 346 667 Q 303 700 282 693 Q 270 686 276 673 Q 298 643 291 557 Q 291 497 271 382 Q 268 372 266 361 L 258 326 Z"/>
  <path id="z30235d4" d="M 135 511 Q 162 486 190 454 Q 202 441 217 440 Q 227 440 233 453 Q 237 466 232 496 Q 228 515 197 533 Q 130 563 112 559 Q 108 555 108 543 Q 111 533 135 511 Z"/>
  <path id="z30235d5" d="M 266 361 Q 101 282 57 277 Q 44 273 44 262 Q 44 249 55 242 Q 82 229 118 216 Q 130 215 140 226 Q 146 235 254 323 Q 255 326 258 326 C 282 344 293 374 266 361 Z"/>
  <path id="z30235d6" d="M 505 527 Q 526 534 549 539 Q 573 545 576 548 Q 582 554 578 560 Q 574 567 553 572 Q 531 575 511 566 Q 510 566 509 565 L 454 547 Q 423 540 388 534 Q 363 530 381 518 Q 411 503 452 515 Q 453 515 458 515 L 505 527 Z"/>
  <path id="z30235d7" d="M 503 421 Q 525 428 553 433 Q 575 440 580 443 Q 586 449 583 455 Q 577 464 555 469 Q 518 475 503 460 L 463 447 Q 436 440 385 432 Q 358 428 378 415 Q 408 397 454 411 Q 458 412 464 412 L 503 421 Z"/>
  <path id="z30235d8" d="M 501 324 Q 532 333 573 340 Q 586 343 586 348 Q 587 358 571 365 Q 544 375 501 360 L 465 350 Q 375 331 337 324 Q 327 323 325 316 Q 324 307 336 298 Q 366 280 411 294 Q 439 307 465 313 L 501 324 Z"/>
  <path id="z30235d9" d="M 465 313 Q 465 249 473 230 Q 479 220 486 226 Q 501 238 501 324 L 501 360 Q 502 391 503 421 L 503 460 Q 504 472 504 482 Q 504 507 505 527 L 509 565 Q 509 568 510 570 Q 517 586 506 596 Q 493 608 468 618 Q 449 625 430 616 Q 420 609 433 596 Q 449 566 454 547 L 458 515 Q 461 484 463 447 L 464 412 Q 464 403 465 350 L 465 313 Z"/>
  <path id="z30235d10" d="M 684 521 Q 732 537 778 543 Q 787 544 789 540 Q 793 531 791 507 Q 785 419 768 373 Q 761 345 750 335 Q 740 325 720 332 Q 698 338 676 344 Q 658 350 671 333 Q 702 296 720 266 Q 727 250 742 254 Q 754 255 770 271 Q 815 313 837 475 Q 843 511 858 532 Q 871 548 864 557 Q 851 572 823 584 Q 805 593 742 569 Q 655 545 606 541 Q 591 542 591 534 Q 590 527 608 517 Q 629 504 648 511 Q 649 512 652 512 L 684 521 Z"/>
  <path id="z30235d11" d="M 652 512 Q 679 445 575 284 Q 571 280 572 274 Q 572 270 576 271 Q 619 280 698 441 Q 698 450 714 479 Q 718 489 710 498 Q 697 514 684 521 C 659 537 643 541 652 512 Z"/>
  <path id="z30235d12" d="M 348 176 Q 323 121 287 72 Q 265 42 282 9 Q 288 -9 309 2 Q 331 17 346 47 Q 367 86 370 120 Q 376 151 370 175 Q 366 184 360 185 Q 353 184 348 176 Z"/>
  <path id="z30235d13" d="M 875 31 Q 871 41 850 53 Q 819 71 733 137 Q 726 143 721 142 Q 718 141 721 134 Q 740 101 762 64 Q 771 49 763 37 Q 735 15 621 36 Q 513 60 487 146 Q 466 186 466 187 Q 462 191 459 192 Q 446 201 439 194 Q 435 190 441 174 Q 448 159 461 118 Q 485 25 577 -9 Q 584 -12 594 -15 Q 756 -63 864 15 Q 877 22 875 31 Z"/>
  <path id="z30235d14" d="M 570 176 Q 627 119 643 117 Q 653 117 657 129 Q 661 142 655 167 Q 651 185 624 198 Q 560 222 548 219 Q 544 215 544 204 Q 547 194 570 176 Z"/>
  <path id="z30235d15" d="M 820 193 Q 860 165 902 129 Q 915 117 930 119 Q 940 120 945 132 Q 949 147 939 175 Q 932 199 893 216 Q 808 246 792 239 Q 788 235 789 223 Q 793 213 820 193 Z"/>
<defs>
  <clipPath id="z30235c1"><use href="#z30235d1"/></clipPath>
  <clipPath id="z30235c2"><use href="#z30235d2"/></clipPath>
  <clipPath id="z30235c3"><use href="#z30235d3"/></clipPath>
  <clipPath id="z30235c4"><use href="#z30235d4"/></clipPath>
  <clipPath id="z30235c5"><use href="#z30235d5"/></clipPath>
  <clipPath id="z30235c6"><use href="#z30235d6"/></clipPath>
  <clipPath id="z30235c7"><use href="#z30235d7"/></clipPath>
  <clipPath id="z30235c8"><use href="#z30235d8"/></clipPath>
  <clipPath id="z30235c9"><use href="#z30235d9"/></clipPath>
  <clipPath id="z30235c10"><use href="#z30235d10"/></clipPath>
  <clipPath id="z30235c11"><use href="#z30235d11"/></clipPath>
  <clipPath id="z30235c12"><use href="#z30235d12"/></clipPath>
  <clipPath id="z30235c13"><use href="#z30235d13"/></clipPath>
  <clipPath id="z30235c14"><use href="#z30235d14"/></clipPath>
  <clipPath id="z30235c15"><use href="#z30235d15"/></clipPath>
</defs>
<path style="--d:1s;" pathLength="3333" clip-path="url(#z30235c1)" d="M 498 837 L 579 801 L 607 769"/>
<path style="--d:2s;" pathLength="3333" clip-path="url(#z30235c2)" d="M 352 662 L 373 648 L 422 651 L 748 705 L 789 704"/>
<path style="--d:3s;" pathLength="3333" clip-path="url(#z30235c3)" d="M 288 680 L 319 650 L 323 630 L 312 492 L 283 332 L 244 212 L 201 122 L 148 38 L 108 -7"/>
<path style="--d:4s;" pathLength="3333" clip-path="url(#z30235c4)" d="M 116 553 L 187 503 L 201 489 L 216 458"/>
<path style="--d:5s;" pathLength="3333" clip-path="url(#z30235c5)" d="M 59 262 L 117 256 L 213 312 L 221 322 L 235 325 L 254 345"/>
<path style="--d:6s;" pathLength="3333" clip-path="url(#z30235c6)" d="M 383 527 L 402 523 L 438 528 L 534 554 L 568 556"/>
<path style="--d:7s;" pathLength="3333" clip-path="url(#z30235c7)" d="M 379 424 L 426 421 L 524 449 L 572 451"/>
<path style="--d:8s;" pathLength="3333" clip-path="url(#z30235c8)" d="M 335 314 L 360 308 L 397 312 L 529 350 L 576 350"/>
<path style="--d:9s;" pathLength="3333" clip-path="url(#z30235c9)" d="M 438 607 L 475 581 L 480 561 L 485 313 L 481 234"/>
<path style="--d:10s;" pathLength="3333" clip-path="url(#z30235c10)" d="M 599 533 L 646 528 L 775 562 L 812 558 L 824 544 L 803 406 L 784 344 L 767 313 L 744 295 L 681 335"/>
<path style="--d:11s;" pathLength="3333" clip-path="url(#z30235c11)" d="M 659 509 L 680 496 L 686 483 L 666 416 L 622 332 L 577 277"/>
<path style="--d:12s;" pathLength="3333" clip-path="url(#z30235c12)" d="M 359 174 L 345 116 L 306 42 L 298 13"/>
<path style="--d:13s;" pathLength="3333" clip-path="url(#z30235c13)" d="M 446 189 L 460 169 L 493 88 L 510 65 L 540 39 L 579 19 L 646 2 L 739 -3 L 779 8 L 801 25 L 805 32 L 795 56 L 726 138"/>
<path style="--d:14s;" pathLength="3333" clip-path="url(#z30235c14)" d="M 552 210 L 625 164 L 644 129"/>
<path style="--d:15s;" pathLength="3333" clip-path="url(#z30235c15)" d="M 796 233 L 898 176 L 927 137"/>
</svg>