<svg id="z37636" class="acjk" viewBox="0 0 1024 1024" xmlns="http://www.w3.org/2000/svg">
  <path id="z37636d1" d="M 169 507 Q 224 574 283 676 Q 292 695 302 711 L 316 732 Q 322 742 330 748 Q 339 758 334 771 Q 330 783 303 803 Q 278 819 260 819 Q 242 818 250 797 Q 265 766 253 739 Q 219 649 165 566 Q 113 485 42 397 Q 32 387 30 381 Q 27 371 41 374 Q 74 378 165 502 L 169 507 Z"/>
  <path id="z37636d2" d="M 302 711 Q 308 704 325 693 Q 352 674 380 652 Q 393 642 405 644 Q 414 645 417 656 Q 420 669 410 692 Q 398 720 318 732 L 316 732 C 286 735 281 733 302 711 Z"/>
  <path id="z37636d3" d="M 284 502 Q 315 514 351 525 Q 372 532 374 536 Q 381 543 376 550 Q 369 560 343 562 Q 321 563 247 531 Q 217 521 183 513 Q 173 512 169 507 C 164 503 164 503 165 502 Q 165 499 177 492 Q 210 482 245 489 L 284 502 Z"/>
  <path id="z37636d4" d="M 299 376 Q 368 397 373 401 Q 380 408 375 415 Q 368 424 345 428 Q 321 431 300 420 L 255 402 Q 203 386 144 375 Q 116 368 138 356 Q 168 340 216 353 Q 235 359 256 364 L 299 376 Z"/>
  <path id="z37636d5" d="M 296 204 Q 297 298 299 376 L 300 420 Q 300 441 302 464 Q 309 486 284 502 C 260 520 233 516 245 489 Q 254 480 255 402 L 256 364 Q 256 303 257 191 C 257 161 296 174 296 204 Z"/>
  <path id="z37636d6" d="M 127 265 Q 146 246 168 222 Q 178 210 192 210 Q 201 210 205 221 Q 209 233 204 257 Q 197 285 126 305 Q 113 309 108 307 Q 104 304 104 293 Q 107 283 127 265 Z"/>
  <path id="z37636d7" d="M 353 326 Q 344 304 322 265 Q 319 259 323 255 Q 329 255 334 259 Q 383 302 407 319 Q 420 323 415 331 Q 409 341 394 353 Q 379 363 363 363 Q 353 362 355 348 Q 358 338 353 326 Z"/>
  <path id="z37636d8" d="M 257 191 Q 101 140 68 139 Q 55 138 54 127 Q 53 114 62 106 Q 84 90 118 73 Q 128 70 140 80 Q 179 110 341 189 Q 363 201 381 215 Q 394 222 394 232 Q 388 238 376 234 Q 336 221 296 204 L 257 191 Z"/>
  <path id="z37636d9" d="M 596 752 Q 606 771 619 793 Q 641 815 620 833 Q 590 860 567 864 Q 551 865 544 859 Q 538 852 547 840 Q 580 798 509 666 Q 506 665 506 662 Q 493 634 480 629 Q 458 619 454 603 Q 450 575 457 563 Q 466 548 479 559 Q 497 580 653 615 Q 662 616 672 619 C 701 626 712 647 682 644 Q 678 644 545 628 Q 536 629 535 635 Q 534 639 589 740 L 596 752 Z"/>
  <path id="z37636d10" d="M 677 522 Q 752 696 782 710 Q 798 722 791 735 Q 781 754 748 776 Q 733 789 705 782 Q 648 760 602 754 Q 596 754 596 752 C 579 748 579 748 589 740 Q 593 734 606 729 Q 619 722 675 735 Q 694 745 708 735 Q 712 729 682 644 L 672 619 Q 650 570 626 513 C 614 485 665 494 677 522 Z"/>
  <path id="z37636d11" d="M 615 480 Q 720 498 890 498 Q 908 499 911 506 Q 915 516 901 528 Q 853 561 791 545 Q 742 535 677 522 L 626 513 Q 523 498 402 479 Q 384 478 398 463 Q 410 451 426 447 Q 444 443 458 447 Q 510 463 569 472 L 615 480 Z"/>
  <path id="z37636d12" d="M 643 325 Q 643 400 653 429 Q 662 447 646 460 Q 631 472 615 480 C 589 495 553 498 569 472 Q 609 432 592 114 Q 591 99 590 85 Q 589 66 579 60 Q 572 54 498 71 Q 486 74 487 66 Q 488 60 498 52 Q 564 -8 585 -42 Q 598 -58 614 -45 Q 648 -14 647 55 Q 644 91 643 294 L 643 325 Z"/>
  <path id="z37636d13" d="M 457 350 Q 476 334 496 312 Q 506 302 520 301 Q 529 302 533 313 Q 537 325 530 349 Q 524 370 454 390 Q 441 393 436 391 Q 432 387 433 377 Q 436 367 457 350 Z"/>
  <path id="z37636d14" d="M 350 138 Q 340 132 340 123 Q 343 111 353 107 Q 378 100 412 94 Q 422 95 429 106 Q 444 133 526 218 Q 538 230 544 242 Q 553 252 551 261 Q 544 264 535 258 Q 468 209 380 151 Q 370 144 350 138 Z"/>
  <path id="z37636d15" d="M 682 294 Q 776 363 821 388 Q 839 392 835 404 Q 829 420 810 438 Q 791 456 769 458 Q 754 457 755 438 Q 759 414 667 306 C 648 283 658 276 682 294 Z"/>
  <path id="z37636d16" d="M 667 306 Q 655 316 643 325 C 619 343 623 317 643 294 Q 716 209 805 119 Q 824 103 852 107 Q 946 120 975 129 Q 982 133 984 137 Q 984 141 971 147 Q 826 192 746 248 Q 715 269 682 294 L 667 306 Z"/>
<defs>
  <clipPath id="z37636c1"><use href="#z37636d1"/></clipPath>
  <clipPath id="z37636c2"><use href="#z37636d2"/></clipPath>
  <clipPath id="z37636c3"><use href="#z37636d3"/></clipPath>
  <clipPath id="z37636c4"><use href="#z37636d4"/></clipPath>
  <clipPath id="z37636c5"><use href="#z37636d5"/></clipPath>
  <clipPath id="z37636c6"><use href="#z37636d6"/></clipPath>
  <clipPath id="z37636c7"><use href="#z37636d7"/></clipPath>
  <clipPath id="z37636c8"><use href="#z37636d8"/></clipPath>
  <clipPath id="z37636c9"><use href="#z37636d9"/></clipPath>
  <clipPath id="z37636c10"><use href="#z37636d10"/></clipPath>
  <clipPath id="z37636c11"><use href="#z37636d11"/></clipPath>
  <clipPath id="z37636c12"><use href="#z37636d12"/></clipPath>
  <clipPath id="z37636c13"><use href="#z37636d13"/></clipPath>
  <clipPath id="z37636c14"><use href="#z37636d14"/></clipPath>
  <clipPath id="z37636c15"><use href="#z37636d15"/></clipPath>
  <clipPath id="z37636c16"><use href="#z37636d16"/></clipPath>
</defs>
<path style="--d:1s;" pathLength="3333" clip-path="url(#z37636c1)" d="M 259 806 L 283 785 L 294 764 L 249 665 L 200 581 L 131 482 L 84 423 L 38 381"/>
<path style="--d:2s;" pathLength="3333" clip-path="url(#z37636c2)" d="M 311 712 L 328 712 L 359 699 L 385 682 L 403 658"/>
<path style="--d:3s;" pathLength="3333" clip-path="url(#z37636c3)" d="M 173 500 L 245 509 L 300 531 L 365 544"/>
<path style="--d:4s;" pathLength="3333" clip-path="url(#z37636c4)" d="M 139 366 L 173 363 L 203 368 L 315 404 L 366 409"/>
<path style="--d:5s;" pathLength="3333" clip-path="url(#z37636c5)" d="M 252 490 L 277 472 L 277 230 L 272 211 L 261 201"/>
<path style="--d:6s;" pathLength="3333" clip-path="url(#z37636c6)" d="M 112 298 L 178 251 L 191 224"/>
<path style="--d:7s;" pathLength="3333" clip-path="url(#z37636c7)" d="M 365 353 L 381 331 L 327 260"/>
<path style="--d:8s;" pathLength="3333" clip-path="url(#z37636c8)" d="M 67 126 L 78 119 L 122 112 L 303 187 L 388 229"/>
<path style="--d:9s;" pathLength="3333" clip-path="url(#z37636c9)" d="M 553 852 L 585 824 L 591 814 L 589 801 L 566 737 L 517 646 L 515 611 L 551 608 L 561 614 L 638 622 L 677 638"/>
<path style="--d:10s;" pathLength="3333" clip-path="url(#z37636c10)" d="M 598 743 L 629 742 L 686 758 L 717 759 L 738 746 L 746 730 L 664 543 L 632 519"/>
<path style="--d:11s;" pathLength="3333" clip-path="url(#z37636c11)" d="M 400 471 L 443 465 L 579 491 L 805 523 L 858 522 L 901 511"/>
<path style="--d:12s;" pathLength="3333" clip-path="url(#z37636c12)" d="M 580 469 L 610 451 L 620 434 L 620 167 L 613 46 L 595 18 L 494 65"/>
<path style="--d:13s;" pathLength="3333" clip-path="url(#z37636c13)" d="M 440 383 L 500 345 L 518 317"/>
<path style="--d:14s;" pathLength="3333" clip-path="url(#z37636c14)" d="M 354 123 L 410 133 L 547 257"/>
<path style="--d:15s;" pathLength="3333" clip-path="url(#z37636c15)" d="M 823 401 L 786 410 L 714 335 L 684 312 L 686 306"/>
<path style="--d:16s;" pathLength="3333" clip-path="url(#z37636c16)" d="M 647 317 L 657 296 L 691 265 L 762 203 L 834 151 L 977 136"/>
</svg>