<svg id="z31485" class="acjk" viewBox="0 0 1024 1024" xmlns="http://www.w3.org/2000/svg">
  <path id="z31485d1" d="M 332 702 Q 350 730 367 755 Q 377 768 363 782 Q 318 816 295 811 Q 285 810 286 794 Q 298 703 198 589 Q 173 564 161 548 Q 154 533 168 538 Q 184 539 207 558 Q 277 610 317 677 L 332 702 Z"/>
  <path id="z31485d2" d="M 317 677 Q 350 668 430 681 Q 460 688 491 694 Q 513 698 516 702 Q 523 709 519 717 Q 512 727 485 734 Q 464 737 391 715 Q 355 708 332 702 C 303 695 288 684 317 677 Z"/>
  <path id="z31485d3" d="M 336 601 Q 387 538 409 537 Q 422 536 429 554 Q 430 567 421 588 Q 411 603 389 611 Q 355 626 341 628 Q 331 629 330 618 Q 329 609 336 601 Z"/>
  <path id="z31485d4" d="M 621 726 Q 646 768 668 799 Q 678 812 663 826 Q 618 859 595 854 Q 585 853 587 837 Q 600 755 513 648 Q 495 632 477 604 Q 470 589 484 594 Q 500 595 521 613 Q 570 653 604 699 L 621 726 Z"/>
  <path id="z31485d5" d="M 604 699 Q 652 681 699 692 Q 819 713 827 719 Q 836 726 831 736 Q 824 748 794 755 Q 763 762 732 749 Q 707 742 678 735 Q 650 731 621 726 C 591 721 576 709 604 699 Z"/>
  <path id="z31485d6" d="M 642 603 Q 667 588 695 570 Q 711 560 725 564 Q 735 567 737 580 Q 738 595 724 621 Q 715 637 687 643 Q 617 650 607 643 Q 603 639 607 627 Q 613 617 642 603 Z"/>
  <path id="z31485d7" d="M 510 463 Q 658 494 662 497 Q 671 504 667 512 Q 660 524 632 532 Q 608 538 498 507 Q 396 488 338 483 Q 302 479 327 462 Q 363 438 434 451 Q 447 454 463 455 L 510 463 Z"/>
  <path id="z31485d8" d="M 552 307 Q 598 310 859 311 Q 881 310 887 320 Q 893 333 875 348 Q 817 393 776 384 Q 689 368 549 347 L 492 339 Q 338 323 158 304 Q 136 303 152 283 Q 168 267 187 261 Q 211 254 228 259 Q 349 290 496 302 L 552 307 Z"/>
  <path id="z31485d9" d="M 496 302 Q 506 104 476 55 Q 475 49 468 47 Q 456 47 378 74 Q 369 77 366 73 Q 363 69 372 59 Q 430 -8 459 -55 Q 469 -71 478 -69 Q 488 -69 509 -50 Q 557 -7 558 150 Q 557 186 556 232 Q 555 277 552 307 L 549 347 Q 545 381 544 422 Q 544 449 510 463 C 484 478 449 482 463 455 Q 481 431 492 339 L 496 302 Z"/>
<defs>
  <clipPath id="z31485c1"><use href="#z31485d1"/></clipPath>
  <clipPath id="z31485c2"><use href="#z31485d2"/></clipPath>
  <clipPath id="z31485c3"><use href="#z31485d3"/></clipPath>
  <clipPath id="z31485c4"><use href="#z31485d4"/></clipPath>
  <clipPath id="z31485c5"><use href="#z31485d5"/></clipPath>
  <clipPath id="z31485c6"><use href="#z31485d6"/></clipPath>
  <clipPath id="z31485c7"><use href="#z31485d7"/></clipPath>
  <clipPath id="z31485c8"><use href="#z31485d8"/></clipPath>
  <clipPath id="z31485c9"><use href="#z31485d9"/></clipPath>
</defs>
<path style="--d:1s;" pathLength="3333" clip-path="url(#z31485c1)" d="M 298 799 L 325 762 L 286 672 L 226 595 L 171 547"/>
<path style="--d:2s;" pathLength="3333" clip-path="url(#z31485c2)" d="M 323 682 L 473 713 L 508 711"/>
<path style="--d:3s;" pathLength="3333" clip-path="url(#z31485c3)" d="M 343 615 L 392 579 L 409 555"/>
<path style="--d:4s;" pathLength="3333" clip-path="url(#z31485c4)" d="M 598 842 L 614 826 L 625 802 L 610 761 L 566 684 L 518 629 L 488 604"/>
<path style="--d:5s;" pathLength="3333" clip-path="url(#z31485c5)" d="M 614 702 L 760 730 L 820 730"/>
<path style="--d:6s;" pathLength="3333" clip-path="url(#z31485c6)" d="M 612 638 L 686 612 L 719 581"/>
<path style="--d:7s;" pathLength="3333" clip-path="url(#z31485c7)" d="M 329 474 L 361 467 L 404 468 L 520 487 L 603 508 L 657 507"/>
<path style="--d:8s;" pathLength="3333" clip-path="url(#z31485c8)" d="M 155 293 L 210 283 L 411 313 L 786 348 L 874 327"/>
<path style="--d:9s;" pathLength="3333" clip-path="url(#z31485c9)" d="M 471 455 L 509 427 L 518 366 L 527 256 L 528 139 L 517 60 L 501 19 L 484 -1 L 373 68"/>
</svg>