<svg id="z38567" class="acjk" viewBox="0 0 1024 1024" xmlns="http://www.w3.org/2000/svg">
  <path id="z38567d1" d="M 196 679 Q 233 686 272 703 Q 288 710 297 702 Q 300 698 280 656 Q 238 587 262 562 Q 292 522 302 495 Q 306 479 301 472 Q 295 460 273 462 Q 245 463 215 460 Q 193 459 219 448 Q 273 427 322 399 Q 335 389 346 400 Q 359 410 364 433 Q 374 490 307 558 Q 271 594 307 631 Q 347 683 370 697 Q 389 707 380 721 Q 368 740 333 760 Q 314 769 299 757 Q 248 720 185 709 C 156 703 167 673 196 679 Z"/>
  <path id="z38567d2" d="M 185 709 Q 184 710 182 711 Q 158 732 129 740 Q 119 741 112 733 Q 108 726 116 715 Q 173 574 134 249 Q 124 198 108 145 Q 101 117 105 96 Q 115 59 127 45 Q 140 30 150 45 Q 184 91 186 315 Q 186 618 196 679 C 198 699 198 699 185 709 Z"/>
  <path id="z38567d3" d="M 537 714 Q 555 677 585 646 Q 597 640 608 650 Q 615 659 617 674 Q 614 710 556 744 Q 543 751 535 751 Q 529 751 529 740 Q 528 730 537 714 Z"/>
  <path id="z38567d4" d="M 721 773 Q 711 746 656 654 Q 649 636 665 643 Q 764 742 806 769 Q 825 782 812 797 Q 796 812 769 822 Q 744 831 732 826 Q 720 823 726 811 Q 732 793 721 773 Z"/>
  <path id="z38567d5" d="M 628 554 Q 799 602 804 606 Q 811 613 807 621 Q 800 631 773 637 Q 745 641 719 628 Q 679 612 634 598 Q 585 583 526 575 Q 493 568 518 553 Q 548 538 590 544 L 628 554 Z"/>
  <path id="z38567d6" d="M 598 474 Q 610 487 645 523 Q 652 532 650 539 Q 649 549 628 554 C 599 562 596 563 590 544 Q 578 499 491 417 Q 476 407 496 409 Q 518 412 580 458 L 598 474 Z"/>
  <path id="z38567d7" d="M 735 357 Q 726 385 711 400 L 700 411 Q 657 454 598 474 C 570 484 553 472 580 458 Q 595 451 600 447 L 645 418 Q 655 411 666 399 L 695 354 Q 713 309 691 223 Q 682 192 673 186 Q 666 183 605 196 Q 581 202 580 196 Q 579 189 589 179 Q 638 136 657 107 Q 669 89 683 93 Q 722 111 740 210 Q 752 280 744 321 L 735 357 Z"/>
  <path id="z38567d8" d="M 600 447 Q 599 446 599 442 Q 589 397 475 312 Q 462 303 479 304 Q 536 313 626 401 Q 638 413 645 418 C 669 437 606 476 600 447 Z"/>
  <path id="z38567d9" d="M 666 399 Q 618 299 487 197 Q 477 187 484 185 Q 491 181 502 185 Q 583 212 667 316 Q 692 347 692 349 Q 693 352 695 354 C 710 380 679 426 666 399 Z"/>
  <path id="z38567d10" d="M 711 400 Q 739 415 806 457 Q 822 470 843 478 Q 861 485 853 500 Q 843 515 821 528 Q 802 540 791 538 Q 781 537 783 526 Q 786 502 742 456 Q 723 435 700 411 C 679 389 685 386 711 400 Z"/>
  <path id="z38567d11" d="M 744 321 Q 792 287 851 235 Q 867 219 880 217 Q 887 217 893 226 Q 902 239 887 274 Q 871 319 735 357 C 706 365 720 338 744 321 Z"/>
  <path id="z38567d12" d="M 390 580 Q 411 535 435 518 Q 445 512 456 521 Q 463 531 464 545 Q 463 564 452 578 Q 412 618 386 614 Q 382 614 381 604 Q 380 594 390 580 Z"/>
  <path id="z38567d13" d="M 428 137 Q 446 146 452 164 Q 459 182 454 200 Q 450 215 430 241 Q 403 280 450 342 Q 453 348 458 352 Q 480 376 413 401 Q 398 410 367 386 Q 310 353 288 354 Q 282 355 281 350 Q 280 346 286 343 Q 317 330 374 353 Q 383 354 390 344 Q 406 331 393 311 Q 365 275 407 215 Q 420 181 420 169 Q 420 154 414 142 C 407 124 407 124 428 137 Z"/>
  <path id="z38567d14" d="M 414 142 Q 387 151 353 148 Q 328 142 305 148 Q 289 152 286 144 Q 282 134 297 120 Q 316 101 341 107 Q 408 114 456 91 Q 567 34 697 -37 Q 733 -58 784 -38 Q 851 -13 915 10 Q 936 17 935 27 Q 935 37 883 37 Q 691 43 645 58 Q 641 61 637 61 Q 547 94 428 137 L 414 142 Z"/>
<defs>
  <clipPath id="z38567c1"><use href="#z38567d1"/></clipPath>
  <clipPath id="z38567c2"><use href="#z38567d2"/></clipPath>
  <clipPath id="z38567c3"><use href="#z38567d3"/></clipPath>
  <clipPath id="z38567c4"><use href="#z38567d4"/></clipPath>
  <clipPath id="z38567c5"><use href="#z38567d5"/></clipPath>
  <clipPath id="z38567c6"><use href="#z38567d6"/></clipPath>
  <clipPath id="z38567c7"><use href="#z38567d7"/></clipPath>
  <clipPath id="z38567c8"><use href="#z38567d8"/></clipPath>
  <clipPath id="z38567c9"><use href="#z38567d9"/></clipPath>
  <clipPath id="z38567c10"><use href="#z38567d10"/></clipPath>
  <clipPath id="z38567c11"><use href="#z38567d11"/></clipPath>
  <clipPath id="z38567c12"><use href="#z38567d12"/></clipPath>
  <clipPath id="z38567c13"><use href="#z38567d13"/></clipPath>
  <clipPath id="z38567c14"><use href="#z38567d14"/></clipPath>
</defs>
<path style="--d:1s;" pathLength="3333" clip-path="url(#z38567c1)" d="M 194 704 L 206 697 L 309 729 L 319 729 L 333 716 L 277 615 L 271 589 L 280 563 L 321 509 L 331 482 L 330 451 L 326 442 L 303 439 L 223 456"/>
<path style="--d:2s;" pathLength="3333" clip-path="url(#z38567c2)" d="M 122 728 L 149 703 L 163 674 L 169 558 L 166 328 L 159 236 L 137 105 L 139 50"/>
<path style="--d:3s;" pathLength="3333" clip-path="url(#z38567c3)" d="M 538 742 L 584 688 L 594 663"/>
<path style="--d:4s;" pathLength="3333" clip-path="url(#z38567c4)" d="M 733 817 L 754 800 L 763 783 L 669 655"/>
<path style="--d:5s;" pathLength="3333" clip-path="url(#z38567c5)" d="M 519 565 L 580 563 L 637 575 L 754 615 L 798 615"/>
<path style="--d:6s;" pathLength="3333" clip-path="url(#z38567c6)" d="M 636 536 L 608 521 L 562 465 L 498 416"/>
<path style="--d:7s;" pathLength="3333" clip-path="url(#z38567c7)" d="M 588 458 L 603 460 L 652 432 L 705 376 L 721 334 L 725 273 L 707 186 L 692 157 L 679 146 L 585 193"/>
<path style="--d:8s;" pathLength="3333" clip-path="url(#z38567c8)" d="M 606 443 L 611 415 L 606 407 L 532 339 L 501 319 L 485 317 L 483 311"/>
<path style="--d:9s;" pathLength="3333" clip-path="url(#z38567c9)" d="M 667 391 L 667 353 L 622 295 L 557 232 L 490 190"/>
<path style="--d:10s;" pathLength="3333" clip-path="url(#z38567c10)" d="M 841 492 L 808 495 L 770 456 L 711 411"/>
<path style="--d:11s;" pathLength="3333" clip-path="url(#z38567c11)" d="M 750 342 L 846 279 L 880 231"/>
<path style="--d:12s;" pathLength="3333" clip-path="url(#z38567c12)" d="M 391 605 L 427 567 L 444 533"/>
<path style="--d:13s;" pathLength="3333" clip-path="url(#z38567c13)" d="M 286 349 L 316 349 L 386 374 L 402 373 L 421 360 L 418 325 L 401 281 L 407 246 L 436 191 L 436 165 L 423 146"/>
<path style="--d:14s;" pathLength="3333" clip-path="url(#z38567c14)" d="M 295 139 L 323 126 L 376 129 L 431 119 L 649 24 L 728 -1 L 928 25"/>
</svg>