<svg id="z40329" class="acjk" viewBox="0 0 1024 1024" xmlns="http://www.w3.org/2000/svg">
  <path id="z40329d1" d="M 324 788 Q 351 769 380 744 Q 393 734 408 735 Q 417 736 421 748 Q 424 761 414 789 Q 402 816 316 832 Q 301 833 296 831 Q 292 827 294 815 Q 298 805 324 788 Z"/>
  <path id="z40329d2" d="M 140 649 Q 128 648 126 641 Q 123 632 136 622 Q 172 601 205 610 Q 338 655 483 675 Q 496 676 497 684 Q 498 694 483 702 Q 461 712 440 708 Q 227 657 140 649 Z"/>
  <path id="z40329d3" d="M 240 578 Q 231 581 212 583 Q 202 584 200 580 Q 196 576 203 563 Q 225 527 243 466 Q 247 447 259 436 Q 274 420 277 433 Q 278 443 277 459 L 272 484 Q 260 539 257 556 C 254 574 254 574 240 578 Z"/>
  <path id="z40329d4" d="M 415 511 Q 431 557 446 570 Q 465 591 445 603 Q 391 633 384 630 Q 378 629 375 626 Q 335 599 240 578 C 211 571 229 546 257 556 Q 266 560 349 583 Q 376 590 383 581 L 372 514 C 367 484 405 483 415 511 Z"/>
  <path id="z40329d5" d="M 277 459 Q 283 458 290 460 Q 332 473 424 487 Q 433 488 433 496 Q 433 500 415 511 C 401 520 401 520 372 514 L 370 514 Q 316 496 272 484 C 243 476 247 461 277 459 Z"/>
  <path id="z40329d6" d="M 335 308 Q 426 371 447 375 Q 462 381 457 393 Q 454 406 403 433 Q 388 440 371 434 Q 325 415 253 391 Q 235 384 189 383 Q 171 383 178 368 Q 185 358 200 350 Q 225 338 250 355 Q 359 404 370 399 Q 379 395 377 385 Q 352 354 324 315 C 306 291 310 291 335 308 Z"/>
  <path id="z40329d7" d="M 361 269 Q 351 296 335 308 L 324 315 Q 317 319 309 322 Q 291 329 283 323 Q 273 319 284 307 Q 309 288 318 256 L 325 222 Q 337 134 312 82 Q 300 63 275 70 Q 251 76 231 81 Q 221 85 225 75 Q 228 68 241 57 Q 269 29 278 7 Q 285 -9 300 -7 Q 310 -6 334 14 Q 397 75 368 240 L 361 269 Z"/>
  <path id="z40329d8" d="M 368 240 Q 380 246 394 251 Q 421 261 441 276 Q 453 283 453 291 Q 449 295 437 294 Q 400 282 361 269 L 318 256 Q 239 234 151 207 Q 132 201 98 202 Q 86 201 84 192 Q 83 179 91 172 Q 112 157 141 140 Q 151 137 161 145 Q 215 182 325 222 L 368 240 Z"/>
  <path id="z40329d9" d="M 600 668 Q 741 798 753 804 Q 772 817 760 833 Q 744 848 717 858 Q 692 868 680 864 Q 668 861 674 848 Q 683 824 605 705 Q 595 690 585 674 Q 582 670 582 665 C 576 646 578 648 600 668 Z"/>
  <path id="z40329d10" d="M 580 401 Q 580 432 580 462 L 580 491 Q 580 495 580 500 Q 579 524 580 545 L 581 568 Q 584 604 593 635 C 598 654 598 654 582 665 Q 569 675 551 682 Q 535 686 527 679 Q 523 675 529 664 Q 553 610 542 371 Q 538 338 531 308 Q 525 289 539 275 Q 557 260 578 273 C 585 276 583 307 582 337 Q 581 359 580 380 L 580 401 Z"/>
  <path id="z40329d11" d="M 730 483 Q 729 476 732 467 Q 736 452 747 452 Q 760 453 767 466 Q 780 482 807 565 Q 823 610 857 634 Q 873 647 861 661 Q 846 677 803 702 Q 788 712 732 697 Q 642 682 600 668 C 571 659 553 615 593 635 Q 603 647 747 671 Q 766 672 773 670 Q 782 663 775 633 Q 750 536 738 506 L 730 483 Z"/>
  <path id="z40329d12" d="M 580 545 Q 584 545 589 546 Q 653 559 702 567 Q 721 571 713 582 Q 703 594 682 596 Q 657 597 581 568 C 553 557 550 543 580 545 Z"/>
  <path id="z40329d13" d="M 580 462 Q 587 461 597 463 Q 639 473 730 483 C 760 486 763 489 738 506 Q 732 510 722 517 Q 707 524 681 517 Q 626 501 580 491 C 551 485 550 464 580 462 Z"/>
  <path id="z40329d14" d="M 580 380 Q 619 374 679 381 Q 761 393 770 396 Q 777 402 774 408 Q 770 417 749 422 Q 728 428 707 421 Q 679 414 650 408 Q 617 402 580 401 C 550 400 550 384 580 380 Z"/>
  <path id="z40329d15" d="M 578 273 Q 626 303 795 313 Q 849 319 866 301 Q 878 289 862 244 Q 858 189 850 131 Q 844 86 826 57 Q 819 45 799 44 Q 766 54 737 61 Q 722 65 723 59 Q 723 55 731 46 Q 785 -3 803 -38 Q 812 -57 829 -48 Q 889 -20 898 46 Q 913 128 921 218 Q 928 257 947 288 Q 960 304 949 318 Q 931 339 893 360 Q 871 372 843 359 Q 803 344 767 342 Q 715 338 611 322 Q 586 313 582 337 C 562 360 551 260 578 273 Z"/>
  <path id="z40329d16" d="M 458 229 Q 451 177 433 129 Q 421 102 442 80 Q 449 68 463 81 Q 496 120 487 191 Q 486 216 476 232 Q 472 238 466 238 Q 460 235 458 229 Z"/>
  <path id="z40329d17" d="M 545 205 Q 554 144 573 133 Q 582 127 593 137 Q 599 146 600 163 Q 597 190 558 222 Q 552 226 547 219 Q 543 215 545 205 Z"/>
  <path id="z40329d18" d="M 635 221 Q 653 163 673 155 Q 683 151 692 162 Q 696 172 695 189 Q 689 216 646 240 Q 639 243 636 235 Q 632 229 635 221 Z"/>
  <path id="z40329d19" d="M 735 226 Q 753 205 771 181 Q 780 169 792 168 Q 799 167 805 177 Q 811 187 807 211 Q 806 227 784 241 Q 730 269 720 266 Q 716 265 715 254 Q 716 245 735 226 Z"/>
<defs>
  <clipPath id="z40329c1"><use href="#z40329d1"/></clipPath>
  <clipPath id="z40329c2"><use href="#z40329d2"/></clipPath>
  <clipPath id="z40329c3"><use href="#z40329d3"/></clipPath>
  <clipPath id="z40329c4"><use href="#z40329d4"/></clipPath>
  <clipPath id="z40329c5"><use href="#z40329d5"/></clipPath>
  <clipPath id="z40329c6"><use href="#z40329d6"/></clipPath>
  <clipPath id="z40329c7"><use href="#z40329d7"/></clipPath>
  <clipPath id="z40329c8"><use href="#z40329d8"/></clipPath>
  <clipPath id="z40329c9"><use href="#z40329d9"/></clipPath>
  <clipPath id="z40329c10"><use href="#z40329d10"/></clipPath>
  <clipPath id="z40329c11"><use href="#z40329d11"/></clipPath>
  <clipPath id="z40329c12"><use href="#z40329d12"/></clipPath>
  <clipPath id="z40329c13"><use href="#z40329d13"/></clipPath>
  <clipPath id="z40329c14"><use href="#z40329d14"/></clipPath>
  <clipPath id="z40329c15"><use href="#z40329d15"/></clipPath>
  <clipPath id="z40329c16"><use href="#z40329d16"/></clipPath>
  <clipPath id="z40329c17"><use href="#z40329d17"/></clipPath>
  <clipPath id="z40329c18"><use href="#z40329d18"/></clipPath>
  <clipPath id="z40329c19"><use href="#z40329d19"/></clipPath>
</defs>
<path style="--d:1s;" pathLength="3333" clip-path="url(#z40329c1)" d="M 301 825 L 372 788 L 405 751"/>
<path style="--d:2s;" pathLength="3333" clip-path="url(#z40329c2)" d="M 136 637 L 194 632 L 434 688 L 487 686"/>
<path style="--d:3s;" pathLength="3333" clip-path="url(#z40329c3)" d="M 208 575 L 236 548 L 268 436"/>
<path style="--d:4s;" pathLength="3333" clip-path="url(#z40329c4)" d="M 251 578 L 263 570 L 381 606 L 394 603 L 415 583 L 399 535 L 380 520"/>
<path style="--d:5s;" pathLength="3333" clip-path="url(#z40329c5)" d="M 280 479 L 288 474 L 368 496 L 425 495"/>
<path style="--d:6s;" pathLength="3333" clip-path="url(#z40329c6)" d="M 185 374 L 202 367 L 235 367 L 344 410 L 371 416 L 391 412 L 408 393 L 406 388 L 345 329 L 342 319 L 334 318"/>
<path style="--d:7s;" pathLength="3333" clip-path="url(#z40329c7)" d="M 287 315 L 320 296 L 338 268 L 353 186 L 348 105 L 338 70 L 321 46 L 304 35 L 232 74"/>
<path style="--d:8s;" pathLength="3333" clip-path="url(#z40329c8)" d="M 97 189 L 147 173 L 448 288"/>
<path style="--d:9s;" pathLength="3333" clip-path="url(#z40329c9)" d="M 681 854 L 693 847 L 710 819 L 623 710 L 607 682 L 586 669"/>
<path style="--d:10s;" pathLength="3333" clip-path="url(#z40329c10)" d="M 536 673 L 561 648 L 564 632 L 562 372 L 554 296 L 567 280"/>
<path style="--d:11s;" pathLength="3333" clip-path="url(#z40329c11)" d="M 588 659 L 602 654 L 764 689 L 799 677 L 815 647 L 748 468"/>
<path style="--d:12s;" pathLength="3333" clip-path="url(#z40329c12)" d="M 584 551 L 615 567 L 648 575 L 686 580 L 705 576"/>
<path style="--d:13s;" pathLength="3333" clip-path="url(#z40329c13)" d="M 584 469 L 595 479 L 693 500 L 730 502"/>
<path style="--d:14s;" pathLength="3333" clip-path="url(#z40329c14)" d="M 588 396 L 592 390 L 611 389 L 728 407 L 765 404"/>
<path style="--d:15s;" pathLength="3333" clip-path="url(#z40329c15)" d="M 584 330 L 597 302 L 726 324 L 867 336 L 895 319 L 909 301 L 890 221 L 874 89 L 851 25 L 829 5 L 795 17 L 731 55"/>
<path style="--d:16s;" pathLength="3333" clip-path="url(#z40329c16)" d="M 467 229 L 470 181 L 452 86"/>
<path style="--d:17s;" pathLength="3333" clip-path="url(#z40329c17)" d="M 555 211 L 581 146"/>
<path style="--d:18s;" pathLength="3333" clip-path="url(#z40329c18)" d="M 646 227 L 670 193 L 678 170"/>
<path style="--d:19s;" pathLength="3333" clip-path="url(#z40329c19)" d="M 723 258 L 782 209 L 791 183"/>
</svg>