<svg id="z40327" class="acjk" viewBox="0 0 1024 1024" xmlns="http://www.w3.org/2000/svg">
  <path id="z40327d1" d="M 325 652 Q 356 662 390 670 Q 417 677 421 682 Q 428 689 424 698 Q 417 708 389 712 Q 361 716 328 700 C 301 688 290 683 279 681 Q 275 682 272 680 Q 236 670 194 663 Q 160 656 186 641 Q 225 623 275 638 Q 276 639 280 639 L 325 652 Z"/>
  <path id="z40327d2" d="M 170 548 Q 160 552 133 556 Q 121 559 119 554 Q 113 547 121 533 Q 149 478 168 387 Q 172 360 188 342 Q 206 323 210 337 Q 211 344 213 352 L 211 382 Q 190 484 187 519 C 185 543 185 543 170 548 Z"/>
  <path id="z40327d3" d="M 367 373 Q 380 354 393 346 Q 402 339 416 357 Q 429 376 458 487 Q 467 515 487 536 Q 499 546 489 559 Q 476 574 439 597 Q 424 604 356 588 Q 347 588 323 581 L 281 572 Q 262 569 242 564 Q 203 554 170 548 C 141 542 158 510 187 519 Q 224 532 281 543 L 323 552 Q 392 567 407 557 Q 417 548 414 531 Q 392 428 383 411 Q 379 401 368 399 C 354 390 354 390 367 373 Z"/>
  <path id="z40327d4" d="M 323 466 Q 342 470 360 472 Q 382 476 373 489 Q 363 502 339 505 Q 332 506 323 504 L 280 494 Q 250 482 226 473 Q 210 469 230 455 Q 231 455 280 458 L 323 466 Z"/>
  <path id="z40327d5" d="M 322 368 Q 341 372 367 373 C 397 374 391 380 368 399 Q 364 403 358 406 Q 345 413 322 407 L 278 397 Q 241 390 211 382 C 182 374 183 348 213 352 Q 214 352 221 353 Q 237 357 263 361 L 322 368 Z"/>
  <path id="z40327d6" d="M 277 292 Q 277 184 252 92 Q 240 53 267 -10 Q 274 -28 282 -31 Q 289 -38 296 -29 Q 303 -25 314 -4 Q 324 21 322 53 Q 321 93 322 368 L 322 407 Q 322 435 323 466 L 323 504 L 323 552 L 323 581 Q 323 621 325 652 L 328 700 Q 332 743 343 776 Q 352 792 349 805 Q 342 815 286 849 Q 262 865 241 850 Q 237 846 243 829 Q 277 778 278 726 Q 278 704 279 681 L 280 639 Q 280 608 281 572 L 281 543 Q 280 519 280 494 L 280 458 Q 279 428 278 397 L 277 292 Z"/>
  <path id="z40327d7" d="M 263 361 Q 206 240 52 64 Q 45 55 56 54 Q 62 53 71 60 Q 197 153 277 292 C 327 377 276 388 263 361 Z"/>
  <path id="z40327d8" d="M 361 249 Q 386 218 411 183 Q 418 171 431 169 Q 440 168 445 177 Q 452 187 449 211 Q 446 241 365 286 Q 353 292 348 290 Q 344 289 343 278 Q 344 269 361 249 Z"/>
  <path id="z40327d9" d="M 605 663 Q 644 699 697 756 Q 712 775 732 790 Q 751 803 737 818 Q 721 831 693 841 Q 668 848 656 844 Q 644 840 651 828 Q 658 810 610 711 Q 597 690 585 665 C 572 638 583 643 605 663 Z"/>
  <path id="z40327d10" d="M 585 398 Q 585 429 586 460 L 587 492 Q 587 495 588 497 Q 587 522 588 543 L 591 571 Q 594 602 603 624 Q 604 628 604 630 C 610 650 610 650 585 665 Q 572 674 558 679 Q 539 686 531 677 Q 525 671 533 660 Q 549 627 546 557 Q 545 502 543 433 Q 543 364 528 309 Q 524 290 537 274 Q 555 259 579 273 C 585 276 585 310 585 340 Q 585 356 585 374 L 585 398 Z"/>
  <path id="z40327d11" d="M 751 482 Q 752 479 754 475 Q 760 459 772 461 Q 785 462 792 477 Q 802 490 821 555 Q 836 604 869 632 Q 887 648 872 662 Q 854 678 807 702 Q 792 711 733 694 Q 631 676 605 663 C 577 652 551 613 604 630 Q 649 646 750 664 Q 769 667 775 663 Q 784 659 780 631 Q 765 541 752 500 L 751 482 Z"/>
  <path id="z40327d12" d="M 588 543 Q 589 543 593 543 Q 668 555 723 561 Q 745 565 737 577 Q 727 590 703 595 Q 679 598 591 571 C 562 562 558 543 588 543 Z"/>
  <path id="z40327d13" d="M 586 460 Q 586 461 589 461 Q 640 473 751 482 C 770 484 770 484 752 500 Q 746 506 734 514 Q 719 521 693 515 Q 635 502 587 492 C 558 486 557 452 586 460 Z"/>
  <path id="z40327d14" d="M 585 374 Q 591 373 603 374 Q 697 387 766 394 Q 788 397 781 409 Q 771 422 747 428 Q 722 434 585 398 C 556 390 555 376 585 374 Z"/>
  <path id="z40327d15" d="M 579 273 Q 624 300 741 310 Q 862 325 882 302 Q 892 289 874 249 Q 864 194 851 135 Q 841 89 819 61 Q 812 48 786 48 Q 755 58 726 65 Q 710 69 711 63 Q 710 57 719 49 Q 771 -3 788 -38 Q 795 -60 815 -50 Q 879 -20 893 42 Q 915 124 933 217 Q 943 254 963 285 Q 978 301 966 315 Q 950 337 913 360 Q 892 373 863 363 Q 820 347 780 344 Q 725 340 611 322 Q 586 318 585 340 C 566 363 552 260 579 273 Z"/>
  <path id="z40327d16" d="M 497 211 Q 478 162 450 117 Q 432 87 449 55 Q 456 39 476 51 Q 521 90 522 159 Q 526 189 519 211 Q 515 218 509 220 Q 502 219 497 211 Z"/>
  <path id="z40327d17" d="M 564 195 Q 579 125 596 113 Q 606 107 618 118 Q 625 128 626 147 Q 625 163 610 179 Q 589 206 579 214 Q 572 218 567 210 Q 563 206 564 195 Z"/>
  <path id="z40327d18" d="M 656 211 Q 678 147 699 139 Q 709 135 720 147 Q 724 157 723 177 Q 714 204 667 232 Q 660 236 656 226 Q 652 220 656 211 Z"/>
  <path id="z40327d19" d="M 757 216 Q 770 194 784 167 Q 791 154 803 151 Q 810 150 818 157 Q 825 167 825 191 Q 825 215 764 252 Q 754 259 748 258 Q 744 257 742 247 Q 742 237 757 216 Z"/>
<defs>
  <clipPath id="z40327c1"><use href="#z40327d1"/></clipPath>
  <clipPath id="z40327c2"><use href="#z40327d2"/></clipPath>
  <clipPath id="z40327c3"><use href="#z40327d3"/></clipPath>
  <clipPath id="z40327c4"><use href="#z40327d4"/></clipPath>
  <clipPath id="z40327c5"><use href="#z40327d5"/></clipPath>
  <clipPath id="z40327c6"><use href="#z40327d6"/></clipPath>
  <clipPath id="z40327c7"><use href="#z40327d7"/></clipPath>
  <clipPath id="z40327c8"><use href="#z40327d8"/></clipPath>
  <clipPath id="z40327c9"><use href="#z40327d9"/></clipPath>
  <clipPath id="z40327c10"><use href="#z40327d10"/></clipPath>
  <clipPath id="z40327c11"><use href="#z40327d11"/></clipPath>
  <clipPath id="z40327c12"><use href="#z40327d12"/></clipPath>
  <clipPath id="z40327c13"><use href="#z40327d13"/></clipPath>
  <clipPath id="z40327c14"><use href="#z40327d14"/></clipPath>
  <clipPath id="z40327c15"><use href="#z40327d15"/></clipPath>
  <clipPath id="z40327c16"><use href="#z40327d16"/></clipPath>
  <clipPath id="z40327c17"><use href="#z40327d17"/></clipPath>
  <clipPath id="z40327c18"><use href="#z40327d18"/></clipPath>
  <clipPath id="z40327c19"><use href="#z40327d19"/></clipPath>
</defs>
<path style="--d:1s;" pathLength="3333" clip-path="url(#z40327c1)" d="M 187 653 L 248 652 L 370 690 L 413 692"/>
<path style="--d:2s;" pathLength="3333" clip-path="url(#z40327c2)" d="M 127 547 L 152 526 L 160 511 L 200 343"/>
<path style="--d:3s;" pathLength="3333" clip-path="url(#z40327c3)" d="M 177 546 L 200 538 L 389 579 L 429 572 L 449 547 L 425 459 L 399 385 L 395 382 L 376 392"/>
<path style="--d:4s;" pathLength="3333" clip-path="url(#z40327c4)" d="M 228 464 L 335 487 L 364 482"/>
<path style="--d:5s;" pathLength="3333" clip-path="url(#z40327c5)" d="M 216 360 L 233 372 L 332 390 L 347 391 L 358 380"/>
<path style="--d:6s;" pathLength="3333" clip-path="url(#z40327c6)" d="M 252 844 L 282 820 L 306 790 L 307 780 L 301 279 L 285 78 L 287 -17"/>
<path style="--d:7s;" pathLength="3333" clip-path="url(#z40327c7)" d="M 271 356 L 254 296 L 213 231 L 116 115 L 58 61"/>
<path style="--d:8s;" pathLength="3333" clip-path="url(#z40327c8)" d="M 351 282 L 414 223 L 433 182"/>
<path style="--d:9s;" pathLength="3333" clip-path="url(#z40327c9)" d="M 658 835 L 680 815 L 686 800 L 626 705 L 601 673 L 591 670"/>
<path style="--d:10s;" pathLength="3333" clip-path="url(#z40327c10)" d="M 541 670 L 566 647 L 573 626 L 561 345 L 554 297 L 567 281"/>
<path style="--d:11s;" pathLength="3333" clip-path="url(#z40327c11)" d="M 590 660 L 615 650 L 767 685 L 803 674 L 823 643 L 804 597 L 770 477"/>
<path style="--d:12s;" pathLength="3333" clip-path="url(#z40327c12)" d="M 591 550 L 600 552 L 606 562 L 684 576 L 727 571"/>
<path style="--d:13s;" pathLength="3333" clip-path="url(#z40327c13)" d="M 593 467 L 611 482 L 689 496 L 730 497 L 741 487"/>
<path style="--d:14s;" pathLength="3333" clip-path="url(#z40327c14)" d="M 589 380 L 601 390 L 710 408 L 749 410 L 771 404"/>
<path style="--d:15s;" pathLength="3333" clip-path="url(#z40327c15)" d="M 581 280 L 601 305 L 679 319 L 864 338 L 894 334 L 920 309 L 925 299 L 901 222 L 875 98 L 844 27 L 817 5 L 784 19 L 719 61"/>
<path style="--d:16s;" pathLength="3333" clip-path="url(#z40327c16)" d="M 508 209 L 493 137 L 464 61"/>
<path style="--d:17s;" pathLength="3333" clip-path="url(#z40327c17)" d="M 576 203 L 602 148 L 604 126"/>
<path style="--d:18s;" pathLength="3333" clip-path="url(#z40327c18)" d="M 667 219 L 701 169 L 704 155"/>
<path style="--d:19s;" pathLength="3333" clip-path="url(#z40327c19)" d="M 750 250 L 796 197 L 804 167"/>
</svg>