<svg id="z40140" class="acjk" viewBox="0 0 1024 1024" xmlns="http://www.w3.org/2000/svg">
  <path id="z40140d1" d="M 404 699 Q 432 706 462 711 Q 496 718 503 724 Q 510 731 506 738 Q 500 748 475 755 Q 445 761 408 745 L 359 731 Q 349 730 340 727 Q 292 717 236 712 Q 205 708 227 692 Q 266 671 313 683 Q 332 687 359 691 L 404 699 Z"/>
  <path id="z40140d2" d="M 395 620 Q 407 623 472 635 Q 479 634 487 644 Q 487 653 469 660 Q 445 675 399 658 L 358 646 Q 342 643 258 626 Q 236 622 254 610 Q 275 594 311 601 Q 332 607 357 612 L 395 620 Z"/>
  <path id="z40140d3" d="M 390 573 Q 391 598 395 620 L 399 658 Q 400 679 404 699 L 408 745 Q 408 748 409 750 Q 412 771 415 786 Q 419 798 422 807 Q 425 816 409 828 Q 381 844 362 848 Q 349 851 342 844 Q 335 838 342 826 Q 358 804 357 788 Q 358 761 359 731 L 359 691 Q 359 669 358 646 L 357 612 Q 356 590 356 563 C 356 533 388 543 390 573 Z"/>
  <path id="z40140d4" d="M 350 530 Q 349 531 351 531 Q 409 547 485 562 Q 498 563 498 569 Q 498 579 484 586 Q 462 595 390 573 L 356 563 Q 239 536 181 526 Q 172 525 170 518 Q 169 511 180 502 Q 204 487 253 498 Q 287 511 320 521 C 349 530 344 528 350 530 Z"/>
  <path id="z40140d5" d="M 359 481 Q 392 481 402 469 Q 405 465 401 442 Q 382 393 364 386 Q 354 386 335 400 Q 314 416 311 414 Q 307 410 315 399 Q 336 371 336 344 Q 337 334 344 328 Q 351 324 375 333 Q 409 351 431 414 Q 440 442 451 453 Q 458 456 460 462 Q 461 468 446 484 Q 431 499 372 503 Q 371 503 369 503 Q 366 504 365 503 C 335 504 329 482 359 481 Z"/>
  <path id="z40140d6" d="M 365 503 Q 358 522 350 530 C 332 554 326 550 320 521 Q 305 427 104 286 Q 100 283 98 278 Q 97 275 101 274 Q 177 274 326 443 Q 330 452 359 481 C 370 492 370 492 365 503 Z"/>
  <path id="z40140d7" d="M 606 672 Q 625 709 648 757 Q 658 787 671 802 Q 677 812 671 822 Q 667 832 640 846 Q 616 858 601 855 Q 586 851 595 834 Q 628 786 517 578 Q 510 568 509 563 Q 508 553 519 558 Q 540 565 592 649 L 606 672 Z"/>
  <path id="z40140d8" d="M 713 658 Q 831 697 834 698 Q 841 707 836 714 Q 829 724 801 728 Q 773 729 747 717 Q 716 704 683 691 Q 647 681 606 672 C 577 665 563 658 592 649 Q 634 634 677 647 L 713 658 Z"/>
  <path id="z40140d9" d="M 677 647 Q 677 581 652 538 L 632 509 Q 599 473 553 451 Q 543 445 552 442 Q 600 436 657 483 L 682 513 Q 700 534 721 595 Q 725 610 734 622 Q 743 634 732 642 Q 722 652 713 658 C 689 676 677 677 677 647 Z"/>
  <path id="z40140d10" d="M 652 538 Q 645 544 639 550 Q 606 581 577 580 Q 561 579 559 575 Q 558 569 572 561 Q 591 549 632 509 L 657 483 Q 765 359 807 360 Q 877 361 933 373 Q 961 377 959 385 Q 862 421 763 456 Q 720 483 682 513 L 652 538 Z"/>
  <path id="z40140d11" d="M 517 387 Q 524 397 532 402 Q 538 408 536 417 Q 535 424 518 440 Q 502 453 490 454 Q 478 453 483 439 Q 492 408 413 311 Q 406 305 405 301 Q 402 294 411 295 Q 430 298 500 367 L 517 387 Z"/>
  <path id="z40140d12" d="M 542 291 Q 606 349 633 362 Q 648 369 639 380 Q 629 390 602 409 Q 596 412 523 390 Q 520 390 517 387 C 490 374 480 369 500 367 Q 512 364 554 371 Q 558 372 560 371 Q 561 368 559 362 Q 534 314 518 292 Q 515 289 513 285 C 496 260 520 271 542 291 Z"/>
  <path id="z40140d13" d="M 365 255 Q 355 259 341 260 Q 329 263 327 257 Q 321 251 330 236 Q 355 190 374 110 Q 378 85 392 70 Q 410 51 414 65 Q 415 69 416 72 L 417 94 Q 416 104 414 117 Q 398 202 394 226 C 390 247 390 247 365 255 Z"/>
  <path id="z40140d14" d="M 596 95 Q 609 70 624 62 Q 634 55 649 72 Q 662 90 696 190 Q 705 218 728 241 Q 741 251 731 266 Q 718 282 678 308 Q 660 317 591 300 Q 576 300 542 291 L 513 285 Q 486 281 458 275 Q 406 263 365 255 C 336 249 365 217 394 226 Q 431 238 486 248 L 518 255 Q 632 276 644 265 Q 653 252 650 241 Q 623 133 610 123 C 594 98 594 98 596 95 Z"/>
  <path id="z40140d15" d="M 538 171 Q 560 175 582 179 Q 601 183 593 194 Q 583 206 562 208 Q 553 209 541 206 L 495 192 Q 467 183 445 175 Q 432 171 449 159 L 496 163 L 538 171 Z"/>
  <path id="z40140d16" d="M 535 126 Q 536 151 538 171 L 541 206 Q 542 210 542 213 Q 548 228 541 235 Q 529 247 518 255 C 494 273 476 276 486 248 Q 492 233 495 192 L 496 163 Q 496 144 498 116 C 500 86 534 96 535 126 Z"/>
  <path id="z40140d17" d="M 416 72 Q 423 68 440 71 Q 528 87 596 95 C 626 99 637 109 610 123 Q 600 129 587 131 Q 568 134 535 126 L 498 116 Q 453 106 417 94 C 388 85 387 81 416 72 Z"/>
  <path id="z40140d18" d="M 526 -15 Q 566 -14 604 -10 Q 712 -3 813 -14 Q 835 -17 840 -9 Q 847 4 836 14 Q 809 39 769 58 Q 765 61 635 40 Q 263 4 227 4 Q 214 5 213 -6 Q 213 -16 230 -30 Q 245 -42 273 -53 Q 283 -57 300 -49 Q 312 -45 367 -37 Q 437 -22 526 -15 Z"/>
<defs>
  <clipPath id="z40140c1"><use href="#z40140d1"/></clipPath>
  <clipPath id="z40140c2"><use href="#z40140d2"/></clipPath>
  <clipPath id="z40140c3"><use href="#z40140d3"/></clipPath>
  <clipPath id="z40140c4"><use href="#z40140d4"/></clipPath>
  <clipPath id="z40140c5"><use href="#z40140d5"/></clipPath>
  <clipPath id="z40140c6"><use href="#z40140d6"/></clipPath>
  <clipPath id="z40140c7"><use href="#z40140d7"/></clipPath>
  <clipPath id="z40140c8"><use href="#z40140d8"/></clipPath>
  <clipPath id="z40140c9"><use href="#z40140d9"/></clipPath>
  <clipPath id="z40140c10"><use href="#z40140d10"/></clipPath>
  <clipPath id="z40140c11"><use href="#z40140d11"/></clipPath>
  <clipPath id="z40140c12"><use href="#z40140d12"/></clipPath>
  <clipPath id="z40140c13"><use href="#z40140d13"/></clipPath>
  <clipPath id="z40140c14"><use href="#z40140d14"/></clipPath>
  <clipPath id="z40140c15"><use href="#z40140d15"/></clipPath>
  <clipPath id="z40140c16"><use href="#z40140d16"/></clipPath>
  <clipPath id="z40140c17"><use href="#z40140d17"/></clipPath>
  <clipPath id="z40140c18"><use href="#z40140d18"/></clipPath>
</defs>
<path style="--d:1s;" pathLength="3333" clip-path="url(#z40140c1)" d="M 229 703 L 251 697 L 289 698 L 457 734 L 495 733"/>
<path style="--d:2s;" pathLength="3333" clip-path="url(#z40140c2)" d="M 254 618 L 301 616 L 428 647 L 479 645"/>
<path style="--d:3s;" pathLength="3333" clip-path="url(#z40140c3)" d="M 352 835 L 387 801 L 374 587 L 360 570"/>
<path style="--d:4s;" pathLength="3333" clip-path="url(#z40140c4)" d="M 179 517 L 191 512 L 237 516 L 405 563 L 469 574 L 489 571"/>
<path style="--d:5s;" pathLength="3333" clip-path="url(#z40140c5)" d="M 367 497 L 374 491 L 401 488 L 424 472 L 428 463 L 410 412 L 388 375 L 363 358 L 325 396 L 325 403"/>
<path style="--d:6s;" pathLength="3333" clip-path="url(#z40140c6)" d="M 345 518 L 338 493 L 306 444 L 247 379 L 169 315 L 104 280"/>
<path style="--d:7s;" pathLength="3333" clip-path="url(#z40140c7)" d="M 603 843 L 624 828 L 635 809 L 622 760 L 572 648 L 516 564"/>
<path style="--d:8s;" pathLength="3333" clip-path="url(#z40140c8)" d="M 600 652 L 689 671 L 795 708 L 830 705"/>
<path style="--d:9s;" pathLength="3333" clip-path="url(#z40140c9)" d="M 726 631 L 704 627 L 686 560 L 648 499 L 615 472 L 558 446"/>
<path style="--d:10s;" pathLength="3333" clip-path="url(#z40140c10)" d="M 564 573 L 601 560 L 743 433 L 790 406 L 815 397 L 942 379 L 951 385"/>
<path style="--d:11s;" pathLength="3333" clip-path="url(#z40140c11)" d="M 490 445 L 507 417 L 503 406 L 454 339 L 412 302"/>
<path style="--d:12s;" pathLength="3333" clip-path="url(#z40140c12)" d="M 505 372 L 558 387 L 593 375 L 543 305 L 524 294"/>
<path style="--d:13s;" pathLength="3333" clip-path="url(#z40140c13)" d="M 336 250 L 369 214 L 404 71"/>
<path style="--d:14s;" pathLength="3333" clip-path="url(#z40140c14)" d="M 373 253 L 399 245 L 605 287 L 642 289 L 670 280 L 688 254 L 632 103 L 631 80"/>
<path style="--d:15s;" pathLength="3333" clip-path="url(#z40140c15)" d="M 448 167 L 550 191 L 585 188"/>
<path style="--d:16s;" pathLength="3333" clip-path="url(#z40140c16)" d="M 492 245 L 513 231 L 518 213 L 516 142 L 502 125"/>
<path style="--d:17s;" pathLength="3333" clip-path="url(#z40140c17)" d="M 422 77 L 453 90 L 601 119"/>
<path style="--d:18s;" pathLength="3333" clip-path="url(#z40140c18)" d="M 224 -6 L 283 -23 L 495 6 L 749 24 L 773 21 L 829 0"/>
</svg>