<svg id="z40096" class="acjk" viewBox="0 0 1024 1024" xmlns="http://www.w3.org/2000/svg">
  <path id="z40096d1" d="M 289 677 Q 367 779 369 780 Q 368 783 368 785 Q 365 795 344 816 Q 323 832 308 834 Q 292 834 297 815 Q 310 779 233 674 Q 196 625 147 573 Q 138 566 136 560 Q 132 551 144 552 Q 180 558 270 657 L 289 677 Z"/>
  <path id="z40096d2" d="M 324 520 Q 343 541 379 587 Q 415 635 451 662 Q 467 672 455 684 Q 442 696 408 713 Q 392 719 379 709 Q 372 705 313 684 Q 301 681 289 677 C 260 668 244 663 270 657 Q 288 650 340 660 Q 358 664 361 663 Q 365 660 360 650 Q 329 569 307 531 Q 301 521 299 514 C 288 486 304 498 324 520 Z"/>
  <path id="z40096d3" d="M 171 481 Q 161 485 143 488 Q 131 492 128 487 Q 124 481 130 467 Q 157 406 171 308 Q 172 278 190 259 Q 205 238 210 253 Q 213 263 214 276 L 213 297 Q 192 450 191 453 C 187 476 187 476 171 481 Z"/>
  <path id="z40096d4" d="M 362 299 Q 375 280 389 274 Q 399 267 411 286 Q 424 308 447 429 Q 454 456 474 479 Q 484 489 474 502 Q 461 515 422 538 Q 409 544 341 525 Q 335 525 324 520 L 299 514 Q 272 510 245 501 Q 205 489 171 481 C 142 474 163 443 191 453 Q 194 456 267 475 L 295 482 Q 380 504 391 495 Q 403 482 401 468 Q 382 333 364 326 C 352 311 352 311 362 299 Z"/>
  <path id="z40096d5" d="M 318 386 Q 339 392 362 395 Q 381 399 373 410 Q 363 420 342 424 Q 332 425 320 421 L 277 408 Q 247 398 221 387 Q 208 383 225 372 Q 229 369 278 377 L 318 386 Z"/>
  <path id="z40096d6" d="M 314 324 Q 315 358 318 386 L 320 421 Q 320 425 321 427 Q 321 460 310 471 Q 301 478 295 482 C 270 499 255 503 267 475 Q 273 466 277 408 L 278 377 Q 278 352 279 315 C 280 285 313 294 314 324 Z"/>
  <path id="z40096d7" d="M 214 276 Q 218 275 226 276 Q 304 292 362 299 C 392 303 393 318 364 326 Q 360 327 353 329 Q 337 330 314 324 L 279 315 Q 242 306 213 297 C 184 288 184 279 214 276 Z"/>
  <path id="z40096d8" d="M 101 160 Q 89 159 86 150 Q 83 137 92 129 Q 111 113 142 92 Q 152 88 164 95 Q 204 120 397 186 Q 424 196 444 208 Q 457 215 458 223 Q 454 229 442 227 Q 154 154 101 160 Z"/>
  <path id="z40096d9" d="M 657 696 Q 802 732 808 737 Q 815 744 811 753 Q 804 763 776 770 Q 754 773 652 741 Q 586 726 548 720 Q 512 713 539 698 Q 564 683 614 686 L 657 696 Z"/>
  <path id="z40096d10" d="M 536 564 Q 524 571 493 578 Q 480 582 477 576 Q 470 570 478 554 Q 503 493 515 394 Q 516 364 532 344 Q 548 322 555 337 Q 558 344 559 352 L 561 377 Q 549 479 546 530 C 544 560 544 560 536 564 Z"/>
  <path id="z40096d11" d="M 778 379 Q 779 375 781 371 Q 787 355 800 357 Q 813 358 821 374 Q 831 390 852 464 Q 867 516 902 547 Q 921 563 904 578 Q 886 594 835 620 Q 823 627 753 610 Q 737 610 695 599 L 643 588 Q 625 587 536 564 C 507 557 519 517 546 530 Q 555 539 645 557 L 692 567 Q 779 588 802 578 Q 812 572 807 542 Q 791 436 782 409 L 778 379 Z"/>
  <path id="z40096d12" d="M 688 469 Q 719 476 748 480 Q 770 484 761 497 Q 751 510 727 513 Q 711 514 690 509 L 646 495 Q 612 485 582 473 Q 566 469 586 455 Q 592 452 646 460 L 688 469 Z"/>
  <path id="z40096d13" d="M 684 367 Q 733 374 778 379 C 808 382 811 401 782 409 Q 778 410 775 411 Q 748 417 685 400 L 644 391 Q 599 385 561 377 C 532 371 529 353 559 352 Q 568 351 582 353 Q 613 357 643 361 L 684 367 Z"/>
  <path id="z40096d14" d="M 656 202 Q 683 250 684 367 L 685 400 Q 686 436 688 469 L 690 509 Q 690 537 692 567 L 695 599 Q 695 603 711 649 Q 718 662 707 672 Q 688 688 657 696 C 629 706 597 711 614 686 Q 642 658 643 588 L 645 557 Q 646 526 646 495 L 646 460 Q 645 426 644 391 L 643 361 Q 637 268 624 232 Q 623 232 623 231 L 607 197 Q 562 130 403 75 Q 391 71 390 67 Q 391 63 401 61 Q 420 58 465 69 Q 541 85 594 127 Q 616 145 634 166 L 656 202 Z"/>
  <path id="z40096d15" d="M 634 166 Q 784 16 820 10 Q 829 10 953 32 Q 966 35 978 41 Q 985 48 973 56 Q 957 63 838 95 Q 756 116 656 202 L 623 231 Q 596 258 567 287 Q 546 309 514 312 Q 504 313 496 307 Q 492 301 501 295 Q 543 271 607 197 L 634 166 Z"/>
<defs>
  <clipPath id="z40096c1"><use href="#z40096d1"/></clipPath>
  <clipPath id="z40096c2"><use href="#z40096d2"/></clipPath>
  <clipPath id="z40096c3"><use href="#z40096d3"/></clipPath>
  <clipPath id="z40096c4"><use href="#z40096d4"/></clipPath>
  <clipPath id="z40096c5"><use href="#z40096d5"/></clipPath>
  <clipPath id="z40096c6"><use href="#z40096d6"/></clipPath>
  <clipPath id="z40096c7"><use href="#z40096d7"/></clipPath>
  <clipPath id="z40096c8"><use href="#z40096d8"/></clipPath>
  <clipPath id="z40096c9"><use href="#z40096d9"/></clipPath>
  <clipPath id="z40096c10"><use href="#z40096d10"/></clipPath>
  <clipPath id="z40096c11"><use href="#z40096d11"/></clipPath>
  <clipPath id="z40096c12"><use href="#z40096d12"/></clipPath>
  <clipPath id="z40096c13"><use href="#z40096d13"/></clipPath>
  <clipPath id="z40096c14"><use href="#z40096d14"/></clipPath>
  <clipPath id="z40096c15"><use href="#z40096d15"/></clipPath>
</defs>
<path style="--d:1s;" pathLength="3333" clip-path="url(#z40096c1)" d="M 307 822 L 330 783 L 295 722 L 221 628 L 144 560"/>
<path style="--d:2s;" pathLength="3333" clip-path="url(#z40096c2)" d="M 276 661 L 365 683 L 400 672 L 359 591 L 305 516"/>
<path style="--d:3s;" pathLength="3333" clip-path="url(#z40096c3)" d="M 136 481 L 157 462 L 168 438 L 200 257"/>
<path style="--d:4s;" pathLength="3333" clip-path="url(#z40096c4)" d="M 179 479 L 197 472 L 355 514 L 391 517 L 417 509 L 435 487 L 392 312 L 395 289"/>
<path style="--d:5s;" pathLength="3333" clip-path="url(#z40096c5)" d="M 229 381 L 330 407 L 365 404"/>
<path style="--d:6s;" pathLength="3333" clip-path="url(#z40096c6)" d="M 274 475 L 295 455 L 299 435 L 298 350 L 293 332 L 283 324"/>
<path style="--d:7s;" pathLength="3333" clip-path="url(#z40096c7)" d="M 220 282 L 275 301 L 347 313 L 356 320"/>
<path style="--d:8s;" pathLength="3333" clip-path="url(#z40096c8)" d="M 100 145 L 151 128 L 452 221"/>
<path style="--d:9s;" pathLength="3333" clip-path="url(#z40096c9)" d="M 540 710 L 561 705 L 604 707 L 758 746 L 802 745"/>
<path style="--d:10s;" pathLength="3333" clip-path="url(#z40096c10)" d="M 486 568 L 512 544 L 517 528 L 544 344"/>
<path style="--d:11s;" pathLength="3333" clip-path="url(#z40096c11)" d="M 545 536 L 558 553 L 574 559 L 701 582 L 708 588 L 787 600 L 830 591 L 853 560 L 832 504 L 798 374"/>
<path style="--d:12s;" pathLength="3333" clip-path="url(#z40096c12)" d="M 584 464 L 712 494 L 752 490"/>
<path style="--d:13s;" pathLength="3333" clip-path="url(#z40096c13)" d="M 564 358 L 583 368 L 776 402"/>
<path style="--d:14s;" pathLength="3333" clip-path="url(#z40096c14)" d="M 622 685 L 657 668 L 673 650 L 665 357 L 656 271 L 644 224 L 615 174 L 565 129 L 486 89 L 426 71 L 398 69"/>
<path style="--d:15s;" pathLength="3333" clip-path="url(#z40096c15)" d="M 503 303 L 551 280 L 657 171 L 784 75 L 828 54 L 969 46"/>
</svg>