<svg id="z40490" class="acjk" viewBox="0 0 1024 1024" xmlns="http://www.w3.org/2000/svg">
  <path id="z40490d1" d="M 335 526 Q 365 532 464 546 Q 476 545 485 559 Q 486 572 461 583 Q 425 604 344 579 Q 341 579 340 578 L 288 564 Q 230 551 178 543 Q 139 539 96 531 Q 65 527 89 508 Q 125 481 157 489 Q 215 502 286 516 L 335 526 Z"/>
  <path id="z40490d2" d="M 320 391 Q 327 461 335 526 L 340 578 Q 346 635 368 732 Q 372 742 353 759 Q 319 780 294 785 Q 278 789 270 781 Q 261 774 269 758 Q 291 724 290 702 Q 290 636 288 564 L 286 516 Q 282 449 276 377 C 274 347 317 361 320 391 Z"/>
  <path id="z40490d3" d="M 195 361 Q 185 365 166 369 Q 154 373 151 368 Q 144 362 152 347 Q 177 287 188 192 Q 189 164 205 144 Q 221 122 227 137 Q 233 152 232 179 L 228 214 Q 216 308 216 333 C 215 354 215 354 195 361 Z"/>
  <path id="z40490d4" d="M 396 240 Q 417 313 440 336 Q 465 361 441 377 Q 422 389 394 408 Q 375 420 355 409 Q 339 399 320 391 L 276 377 Q 239 370 195 361 C 166 355 187 325 216 333 Q 271 348 325 358 Q 355 364 361 352 Q 368 346 360 314 Q 351 281 341 243 C 333 214 387 211 396 240 Z"/>
  <path id="z40490d5" d="M 232 179 Q 239 178 251 181 Q 302 193 412 203 Q 422 204 424 214 Q 424 223 396 240 C 375 253 370 251 341 243 Q 280 225 228 214 C 199 208 202 180 232 179 Z"/>
  <path id="z40490d6" d="M 595 634 Q 628 671 646 698 Q 697 770 714 783 Q 730 796 716 810 Q 700 820 674 827 Q 650 833 640 827 Q 630 823 636 812 Q 646 788 600 691 Q 588 669 575 640 C 563 613 575 612 595 634 Z"/>
  <path id="z40490d7" d="M 582 595 Q 586 595 595 598 Q 635 613 738 633 Q 747 634 753 630 Q 763 626 763 608 Q 762 568 744 493 Q 741 474 722 476 Q 700 482 681 486 Q 668 490 670 482 Q 671 473 693 453 Q 717 425 730 397 Q 737 388 747 391 Q 754 392 768 415 Q 786 443 800 522 Q 812 609 823 619 Q 833 628 828 638 Q 821 648 788 669 Q 776 676 722 664 Q 695 664 595 634 C 566 625 520 579 582 595 Z"/>
  <path id="z40490d8" d="M 598 553 Q 637 507 655 506 Q 664 505 668 518 Q 669 527 662 541 Q 646 565 600 571 Q 594 572 593 564 Q 592 558 598 553 Z"/>
  <path id="z40490d9" d="M 569 277 Q 615 313 784 325 Q 815 328 829 316 Q 841 304 829 261 Q 822 209 812 153 Q 805 110 785 83 Q 775 70 751 73 Q 712 85 678 94 Q 662 98 663 91 Q 663 85 672 78 Q 735 26 758 -12 Q 767 -33 784 -22 Q 844 11 855 69 Q 871 147 884 234 Q 891 271 910 302 Q 923 318 911 331 Q 895 352 857 373 Q 836 385 808 372 Q 774 359 742 354 Q 696 350 603 329 Q 578 325 575 347 Q 571 551 582 595 C 586 625 587 633 575 640 Q 562 652 542 658 Q 526 664 517 656 Q 511 650 519 640 Q 531 615 533 495 Q 533 363 522 316 Q 516 297 531 281 Q 550 265 569 277 Z"/>
  <path id="z40490d10" d="M 598 155 Q 620 156 642 160 Q 693 166 760 162 Q 781 161 786 169 Q 792 181 780 190 Q 714 242 656 217 Q 643 216 468 186 Q 440 180 397 178 Q 384 177 384 167 Q 384 157 402 145 Q 417 135 445 126 Q 455 123 470 132 Q 573 153 598 155 Z"/>
<defs>
  <clipPath id="z40490c1"><use href="#z40490d1"/></clipPath>
  <clipPath id="z40490c2"><use href="#z40490d2"/></clipPath>
  <clipPath id="z40490c3"><use href="#z40490d3"/></clipPath>
  <clipPath id="z40490c4"><use href="#z40490d4"/></clipPath>
  <clipPath id="z40490c5"><use href="#z40490d5"/></clipPath>
  <clipPath id="z40490c6"><use href="#z40490d6"/></clipPath>
  <clipPath id="z40490c7"><use href="#z40490d7"/></clipPath>
  <clipPath id="z40490c8"><use href="#z40490d8"/></clipPath>
  <clipPath id="z40490c9"><use href="#z40490d9"/></clipPath>
  <clipPath id="z40490c10"><use href="#z40490d10"/></clipPath>
</defs>
<path style="--d:1s;" pathLength="3333" clip-path="url(#z40490c1)" d="M 91 520 L 139 512 L 378 561 L 440 567 L 473 560"/>
<path style="--d:2s;" pathLength="3333" clip-path="url(#z40490c2)" d="M 282 769 L 327 729 L 300 407 L 282 385"/>
<path style="--d:3s;" pathLength="3333" clip-path="url(#z40490c3)" d="M 159 360 L 180 341 L 189 323 L 217 143"/>
<path style="--d:4s;" pathLength="3333" clip-path="url(#z40490c4)" d="M 203 360 L 223 351 L 363 383 L 383 377 L 403 354 L 396 328 L 376 268 L 348 249"/>
<path style="--d:5s;" pathLength="3333" clip-path="url(#z40490c5)" d="M 236 185 L 252 201 L 340 219 L 394 221 L 415 214"/>
<path style="--d:6s;" pathLength="3333" clip-path="url(#z40490c6)" d="M 648 817 L 671 788 L 616 684 L 593 648 L 582 645"/>
<path style="--d:7s;" pathLength="3333" clip-path="url(#z40490c7)" d="M 578 633 L 596 617 L 693 643 L 753 651 L 781 642 L 792 629 L 766 478 L 752 452 L 743 444 L 677 481"/>
<path style="--d:8s;" pathLength="3333" clip-path="url(#z40490c8)" d="M 602 562 L 638 539 L 655 519"/>
<path style="--d:9s;" pathLength="3333" clip-path="url(#z40490c9)" d="M 526 649 L 551 625 L 555 598 L 551 336 L 556 310 L 607 312 L 671 328 L 824 349 L 848 342 L 873 315 L 833 111 L 815 61 L 803 46 L 783 31 L 767 36 L 672 87"/>
<path style="--d:10s;" pathLength="3333" clip-path="url(#z40490c10)" d="M 395 167 L 451 154 L 560 177 L 694 195 L 729 191 L 775 176"/>
</svg>