<svg id="z39528" class="acjk" viewBox="0 0 1024 1024" xmlns="http://www.w3.org/2000/svg">
<style>
<![CDATA[
@keyframes zk {
	to {
		stroke-dashoffset:0;
	}
}
svg.acjk path[clip-path] {
	--t:0.8s;
	animation:zk var(--t) linear forwards var(--d);
	stroke-dasharray:3337;
	stroke-dashoffset:3339;
	stroke-width:128;
	stroke-linecap:round;
	stroke-linejoin:round;
	fill:none;
	stroke:#000;
}
svg.acjk path[id] {fill:#ccc;}
]]>
</style>
  <path id="z39528d1" d="M 291 216 Q 388 183 389 182 Q 395 175 392 168 Q 386 158 366 153 Q 345 149 324 160 Q 297 172 269 182 Q 236 192 198 198 Q 198 198 198 199 C 174 206 178 220 202 224 Q 240 230 260 224 L 291 216 Z"/>
  <path id="z39528d2" d="M 198 199 Q 185 184 167 176 Q 152 169 145 178 Q 140 182 147 194 Q 158 219 158 361 Q 158 500 146 566 Q 143 585 154 598 Q 167 607 186 597 C 189 596 189 566 189 536 Q 189 281 198 242 Q 201 226 202 224 C 207 208 207 208 198 199 Z"/>
  <path id="z39528d3" d="M 305 342 Q 332 335 355 328 Q 370 324 364 313 Q 356 300 337 298 Q 324 297 306 304 L 271 320 Q 246 332 224 342 Q 211 346 228 358 Q 230 361 271 353 L 305 342 Z"/>
  <path id="z39528d4" d="M 302 443 Q 332 434 357 428 Q 375 424 367 413 Q 359 400 340 398 Q 325 397 303 406 L 271 420 Q 244 432 220 442 Q 208 446 224 459 Q 230 463 245 460 Q 258 456 271 453 L 302 443 Z"/>
  <path id="z39528d5" d="M 303 406 Q 304 372 305 342 L 306 304 Q 306 277 308 255 Q 313 240 307 232 Q 299 222 291 216 C 270 199 250 197 260 224 Q 270 240 271 320 L 271 353 Q 271 380 271 420 L 271 453 Q 271 489 271 534 C 271 564 300 556 300 526 Q 301 483 302 443 L 303 406 Z"/>
  <path id="z39528d6" d="M 186 597 Q 218 567 323 552 Q 341 549 349 559 Q 357 568 350 603 Q 328 777 299 827 Q 294 831 239 818 Q 229 812 229 819 Q 228 823 234 831 Q 264 877 274 907 Q 280 926 293 918 Q 344 888 355 822 Q 373 731 388 628 Q 393 597 406 570 Q 415 557 407 546 Q 395 528 370 510 Q 355 500 335 510 Q 316 520 300 526 L 271 534 Q 246 540 207 552 Q 189 555 189 536 C 175 512 165 612 186 597 Z"/>
  <path id="z39528d7" d="M 60 648 Q 54 702 39 752 Q 32 785 50 809 Q 58 822 70 808 Q 100 759 87 691 Q 85 663 76 642 Q 71 636 67 637 Q 61 640 60 648 Z"/>
  <path id="z39528d8" d="M 124 665 Q 132 747 145 759 Q 153 766 163 757 Q 169 748 171 730 Q 173 694 136 649 Q 132 643 127 651 Q 123 655 124 665 Z"/>
  <path id="z39528d9" d="M 189 653 Q 207 723 220 731 Q 225 735 233 726 Q 236 719 236 704 Q 233 671 197 639 Q 193 635 189 642 Q 187 646 189 653 Z"/>
  <path id="z39528d10" d="M 255 647 Q 278 695 286 698 Q 291 699 296 693 Q 301 686 300 665 Q 300 652 288 639 Q 255 609 249 612 Q 246 613 245 622 Q 245 629 255 647 Z"/>
  <path id="z39528d11" d="M 712 194 Q 722 142 734 100 Q 738 91 724 78 Q 702 62 687 56 Q 676 53 671 59 Q 665 65 670 78 Q 680 93 681 199 C 681 229 707 223 712 194 Z"/>
  <path id="z39528d12" d="M 584 260 Q 651 236 724 222 Q 793 210 807 218 C 831 224 838 182 813 183 Q 760 184 712 194 L 681 199 Q 624 208 577 222 Q 564 223 569 206 Q 577 155 574 144 Q 564 128 548 114 Q 541 107 534 108 Q 525 111 530 128 Q 547 195 516 231 Q 501 244 506 257 Q 513 272 525 282 Q 533 289 541 283 Q 546 276 560 270 L 584 260 Z"/>
  <path id="z39528d13" d="M 807 218 Q 808 240 812 256 Q 815 272 826 264 Q 846 243 861 173 Q 874 136 882 130 Q 889 118 884 104 Q 871 88 851 66 Q 843 57 834 61 Q 828 62 828 75 Q 834 90 831 133 Q 823 164 813 183 C 806 199 806 199 807 218 Z"/>
  <path id="z39528d14" d="M 559 385 Q 571 369 582 354 Q 595 332 605 323 Q 610 314 606 301 Q 599 277 584 260 C 567 238 557 240 560 270 Q 560 271 561 273 Q 564 310 492 410 Q 462 450 421 489 Q 416 493 415 498 Q 415 502 419 503 Q 460 503 525 425 Q 532 416 539 409 L 559 385 Z"/>
  <path id="z39528d15" d="M 577 572 Q 578 467 583 442 Q 587 423 581 414 Q 574 404 559 385 C 542 363 530 381 539 409 Q 554 448 535 563 Q 521 593 550 644 L 551 645 Q 561 657 569 637 Q 574 615 576 592 L 577 572 Z"/>
  <path id="z39528d16" d="M 673 265 Q 715 313 731 311 Q 741 310 743 294 Q 743 282 734 266 Q 717 242 674 241 Q 668 241 668 251 Q 667 258 673 265 Z"/>
  <path id="z39528d17" d="M 728 355 Q 838 325 841 323 Q 847 317 844 311 Q 840 302 822 296 Q 812 293 737 317 Q 685 332 635 338 Q 613 342 628 355 Q 653 373 690 363 Q 693 363 696 363 L 728 355 Z"/>
  <path id="z39528d18" d="M 744 429 Q 784 419 819 414 Q 835 411 830 400 Q 822 388 805 384 Q 788 381 749 393 L 702 407 Q 660 417 622 428 Q 611 431 624 443 Q 634 452 654 448 Q 679 442 702 438 L 744 429 Z"/>
  <path id="z39528d19" d="M 739 494 Q 786 485 825 481 Q 840 480 835 468 Q 830 456 813 451 Q 786 444 742 461 L 702 470 Q 658 479 619 488 Q 607 491 621 504 Q 631 513 651 509 Q 676 505 702 501 L 739 494 Z"/>
  <path id="z39528d20" d="M 736 543 Q 737 518 739 494 L 742 461 Q 742 445 744 429 L 749 393 Q 750 383 746 376 Q 737 363 728 355 C 708 337 687 335 696 363 Q 702 378 702 407 L 702 438 Q 702 451 702 470 L 702 501 Q 702 523 702 551 C 702 581 735 573 736 543 Z"/>
  <path id="z39528d21" d="M 702 551 Q 643 560 577 572 C 552 576 554 578 576 592 Q 593 607 628 599 Q 709 572 870 572 Q 884 572 887 565 Q 890 556 879 545 Q 843 512 797 528 Q 770 534 736 543 L 702 551 Z"/>
  <path id="z39528d22" d="M 481 665 Q 463 647 448 645 Q 445 641 440 648 Q 437 654 440 666 Q 455 699 457 728 Q 460 794 454 868 Q 451 890 459 908 Q 467 927 480 938 Q 490 945 492 936 Q 498 932 499 912 Q 503 896 499 840 Q 494 741 496 704 C 497 681 497 681 481 665 Z"/>
  <path id="z39528d23" d="M 768 645 Q 827 638 897 637 Q 912 638 919 648 Q 924 655 921 669 Q 910 838 899 862 Q 894 874 883 870 Q 860 867 835 863 Q 813 862 829 878 Q 880 924 901 959 Q 910 972 920 964 Q 943 937 954 837 Q 963 701 979 674 Q 992 655 987 646 Q 981 633 942 601 Q 928 586 915 592 Q 892 602 852 609 Q 653 628 578 648 Q 523 660 481 665 C 456 668 472 709 496 704 Q 506 705 516 701 Q 548 688 596 675 L 618 670 Q 667 654 738 648 L 768 645 Z"/>
  <path id="z39528d24" d="M 596 675 Q 597 676 597 677 Q 600 687 583 719 Q 561 755 522 796 Q 519 799 517 804 Q 516 807 520 808 Q 554 808 616 739 Q 626 727 631 722 Q 637 715 634 704 Q 628 683 618 670 C 601 648 592 646 596 675 Z"/>
  <path id="z39528d25" d="M 738 648 Q 742 660 742 718 Q 742 788 864 768 Q 887 765 893 758 Q 901 749 895 742 Q 889 732 868 721 Q 857 717 847 726 Q 812 756 777 733 Q 772 729 773 715 Q 773 693 782 680 Q 787 667 779 656 Q 773 649 768 645 C 747 628 730 619 738 648 Z"/>
  <path id="z39528d26" d="M 617 799 Q 609 795 591 790 Q 583 787 579 791 Q 576 795 581 810 Q 596 846 605 906 Q 606 924 616 936 Q 627 955 631 942 Q 634 933 634 919 L 631 890 Q 628 836 627 821 C 627 803 627 803 617 799 Z"/>
  <path id="z39528d27" d="M 760 873 Q 773 836 784 825 Q 801 804 786 792 Q 773 782 755 765 Q 742 755 729 764 Q 693 788 617 799 C 592 803 604 828 627 821 Q 635 818 705 804 Q 727 800 731 810 Q 734 813 731 831 Q 728 849 724 870 C 720 899 751 901 760 873 Z"/>
  <path id="z39528d28" d="M 634 919 Q 640 919 650 918 Q 688 909 771 904 Q 778 903 779 896 Q 779 889 760 873 C 750 864 748 864 724 870 Q 672 883 631 890 C 607 894 609 920 634 919 Z"/>
<defs>
  <clipPath id="z39528c1"><use href="#z39528d1"/></clipPath>
  <clipPath id="z39528c2"><use href="#z39528d2"/></clipPath>
  <clipPath id="z39528c3"><use href="#z39528d3"/></clipPath>
  <clipPath id="z39528c4"><use href="#z39528d4"/></clipPath>
  <clipPath id="z39528c5"><use href="#z39528d5"/></clipPath>
  <clipPath id="z39528c6"><use href="#z39528d6"/></clipPath>
  <clipPath id="z39528c7"><use href="#z39528d7"/></clipPath>
  <clipPath id="z39528c8"><use href="#z39528d8"/></clipPath>
  <clipPath id="z39528c9"><use href="#z39528d9"/></clipPath>
  <clipPath id="z39528c10"><use href="#z39528d10"/></clipPath>
  <clipPath id="z39528c11"><use href="#z39528d11"/></clipPath>
  <clipPath id="z39528c12"><use href="#z39528d12"/></clipPath>
  <clipPath id="z39528c13"><use href="#z39528d13"/></clipPath>
  <clipPath id="z39528c14"><use href="#z39528d14"/></clipPath>
  <clipPath id="z39528c15"><use href="#z39528d15"/></clipPath>
  <clipPath id="z39528c16"><use href="#z39528d16"/></clipPath>
  <clipPath id="z39528c17"><use href="#z39528d17"/></clipPath>
  <clipPath id="z39528c18"><use href="#z39528d18"/></clipPath>
  <clipPath id="z39528c19"><use href="#z39528d19"/></clipPath>
  <clipPath id="z39528c20"><use href="#z39528d20"/></clipPath>
  <clipPath id="z39528c21"><use href="#z39528d21"/></clipPath>
  <clipPath id="z39528c22"><use href="#z39528d22"/></clipPath>
  <clipPath id="z39528c23"><use href="#z39528d23"/></clipPath>
  <clipPath id="z39528c24"><use href="#z39528d24"/></clipPath>
  <clipPath id="z39528c25"><use href="#z39528d25"/></clipPath>
  <clipPath id="z39528c26"><use href="#z39528d26"/></clipPath>
  <clipPath id="z39528c27"><use href="#z39528d27"/></clipPath>
  <clipPath id="z39528c28"><use href="#z39528d28"/></clipPath>
</defs>
<path style="--d:1s;" pathLength="3333" clip-path="url(#z39528c1)" d="M 202 204 L 386 174"/>
<path style="--d:2s;" pathLength="3333" clip-path="url(#z39528c2)" d="M 153 185 L 177 589"/>
<path style="--d:3s;" pathLength="3333" clip-path="url(#z39528c3)" d="M 225 350 L 357 319"/>
<path style="--d:4s;" pathLength="3333" clip-path="url(#z39528c4)" d="M 222 451 L 361 419"/>
<path style="--d:5s;" pathLength="3333" clip-path="url(#z39528c5)" d="M 266 224 L 275 527"/>
<path style="--d:6s;" pathLength="3333" clip-path="url(#z39528c6)" d="M 187 589 L 380 561 L 295 869 L 234 823"/>
<path style="--d:7s;" pathLength="3333" clip-path="url(#z39528c7)" d="M 69 648 L 60 800"/>
<path style="--d:8s;" pathLength="3333" clip-path="url(#z39528c8)" d="M 133 660 L 154 745"/>
<path style="--d:9s;" pathLength="3333" clip-path="url(#z39528c9)" d="M 195 648 L 224 719"/>
<path style="--d:10s;" pathLength="3333" clip-path="url(#z39528c10)" d="M 251 619 L 289 688"/>
<path style="--d:11s;" pathLength="3333" clip-path="url(#z39528c11)" d="M 678 68 L 685 186"/>
<path style="--d:12s;" pathLength="3333" clip-path="url(#z39528c12)" d="M 536 118 L 547 240 L 807 187"/>
<path style="--d:13s;" pathLength="3333" clip-path="url(#z39528c13)" d="M 839 73 L 820 257"/>
<path style="--d:14s;" pathLength="3333" clip-path="url(#z39528c14)" d="M 566 269 L 421 496"/>
<path style="--d:15s;" pathLength="3333" clip-path="url(#z39528c15)" d="M 561 395 L 558 637"/>
<path style="--d:16s;" pathLength="3333" clip-path="url(#z39528c16)" d="M 680 253 L 729 294"/>
<path style="--d:17s;" pathLength="3333" clip-path="url(#z39528c17)" d="M 630 346 L 838 316"/>
<path style="--d:18s;" pathLength="3333" clip-path="url(#z39528c18)" d="M 629 434 L 822 404"/>
<path style="--d:19s;" pathLength="3333" clip-path="url(#z39528c19)" d="M 620 496 L 828 472"/>
<path style="--d:20s;" pathLength="3333" clip-path="url(#z39528c20)" d="M 702 367 L 707 544"/>
<path style="--d:21s;" pathLength="3333" clip-path="url(#z39528c21)" d="M 584 577 L 879 560"/>
<path style="--d:22s;" pathLength="3333" clip-path="url(#z39528c22)" d="M 446 654 L 485 923"/>
<path style="--d:23s;" pathLength="3333" clip-path="url(#z39528c23)" d="M 486 670 L 937 629 L 908 906 L 829 869"/>
<path style="--d:24s;" pathLength="3333" clip-path="url(#z39528c24)" d="M 605 682 L 522 802"/>
<path style="--d:25s;" pathLength="3333" clip-path="url(#z39528c25)" d="M 742 650 L 811 760 L 889 749"/>
<path style="--d:26s;" pathLength="3333" clip-path="url(#z39528c26)" d="M 585 796 L 624 937"/>
<path style="--d:27s;" pathLength="3333" clip-path="url(#z39528c27)" d="M 625 800 L 759 809 L 731 864"/>
<path style="--d:28s;" pathLength="3333" clip-path="url(#z39528c28)" d="M 637 911 L 773 896"/>
</svg>