<svg id="z34652" class="acjk" viewBox="0 0 1024 1024" xmlns="http://www.w3.org/2000/svg">
<style>
<![CDATA[
@keyframes zk {
	to {
		stroke-dashoffset:0;
	}
}
svg.acjk path[clip-path] {
	--t:0.8s;
	animation:zk var(--t) linear forwards var(--d);
	stroke-dasharray:3337;
	stroke-dashoffset:3339;
	stroke-width:128;
	stroke-linecap:round;
	stroke-linejoin:round;
	fill:none;
	stroke:#000;
}
svg.acjk path[id] {fill:#ccc;}
]]>
</style>
  <path id="z34652d1" d="M 99 410 Q 89 404 61 402 Q 51 401 48 404 Q 44 410 51 423 Q 76 468 94 543 Q 98 565 112 580 Q 128 598 131 584 Q 132 578 133 571 L 131 542 Q 125 527 110 437 C 106 413 106 413 99 410 Z"/>
  <path id="z34652d2" d="M 309 510 Q 327 441 356 417 Q 369 401 357 388 Q 344 378 301 359 Q 289 355 229 377 L 183 392 Q 140 402 99 410 C 70 416 81 444 110 437 Q 174 421 184 419 L 228 409 Q 241 405 256 402 Q 272 398 280 404 Q 292 416 270 504 C 263 533 301 539 309 510 Z"/>
  <path id="z34652d3" d="M 223 552 Q 260 545 317 536 Q 326 535 327 527 Q 327 520 309 510 L 270 504 Q 264 503 224 517 L 183 529 Q 155 536 131 542 C 102 549 103 573 133 571 Q 139 571 147 569 Q 162 565 183 560 L 223 552 Z"/>
  <path id="z34652d4" d="M 219 665 Q 220 607 223 552 L 224 517 Q 225 462 228 409 L 229 377 Q 229 334 248 229 Q 252 219 232 204 Q 198 186 174 182 Q 158 179 150 188 Q 143 195 151 210 Q 179 250 180 280 Q 181 334 183 392 L 184 419 Q 184 471 183 529 L 183 560 Q 182 617 179 679 C 178 709 218 695 219 665 Z"/>
  <path id="z34652d5" d="M 290 637 Q 254 650 219 665 L 179 679 Q 136 694 90 711 Q 74 718 48 718 Q 36 721 35 730 Q 34 742 43 749 Q 65 762 96 777 Q 106 778 116 770 Q 167 725 300 658 C 327 644 318 627 290 637 Z"/>
  <path id="z34652d6" d="M 300 658 Q 318 709 331 715 Q 337 718 344 712 Q 351 705 354 685 Q 360 655 295 594 Q 288 587 282 587 Q 278 588 276 596 Q 276 599 290 637 L 300 658 Z"/>
  <path id="z34652d7" d="M 670 166 Q 688 138 715 121 Q 725 112 723 99 Q 722 86 697 60 Q 675 39 656 36 Q 638 36 643 57 Q 662 117 478 297 Q 466 304 464 311 Q 460 321 473 320 Q 521 320 659 178 L 670 166 Z"/>
  <path id="z34652d8" d="M 737 329 Q 761 310 805 267 Q 853 219 897 195 Q 916 186 905 171 Q 892 158 855 132 Q 837 125 822 134 Q 812 138 727 159 Q 702 163 670 166 C 648 168 648 168 659 178 Q 668 191 692 193 Q 704 194 786 182 Q 796 181 799 184 Q 803 188 796 198 Q 751 265 704 335 C 687 360 714 348 737 329 Z"/>
  <path id="z34652d9" d="M 580 352 Q 570 342 548 332 Q 538 328 527 331 Q 520 335 525 348 Q 526 355 530 363 Q 551 409 530 606 Q 505 693 541 739 Q 551 752 562 741 Q 569 729 573 716 L 577 683 Q 578 667 580 645 Q 580 623 581 603 L 582 577 Q 583 525 587 488 L 589 459 Q 590 401 593 395 Q 594 388 594 383 C 596 365 596 365 580 352 Z"/>
  <path id="z34652d10" d="M 869 699 Q 872 706 878 715 Q 894 749 905 747 Q 921 746 940 707 Q 956 677 955 653 Q 943 569 945 441 Q 944 404 965 371 Q 977 353 968 343 Q 937 316 885 294 Q 869 287 842 297 Q 796 316 737 329 L 704 335 Q 637 347 580 352 C 550 355 564 387 594 383 Q 601 383 609 382 Q 730 354 818 339 Q 848 333 858 349 Q 874 368 874 436 Q 880 626 870 662 Q 869 662 869 663 C 864 689 864 689 869 699 Z"/>
  <path id="z34652d11" d="M 587 488 Q 594 489 607 488 Q 713 472 792 462 Q 817 459 808 445 Q 798 429 770 424 Q 743 420 589 459 C 560 466 557 486 587 488 Z"/>
  <path id="z34652d12" d="M 581 603 Q 591 606 607 604 Q 713 591 792 582 Q 817 579 808 565 Q 798 549 771 543 Q 746 539 702 549 Q 638 565 582 577 C 553 583 552 597 581 603 Z"/>
  <path id="z34652d13" d="M 573 716 Q 580 717 593 717 Q 681 702 869 699 C 899 698 893 682 869 663 Q 868 662 865 659 Q 849 649 819 654 Q 684 676 577 683 C 547 685 543 714 573 716 Z"/>
  <path id="z34652d14" d="M 597 773 Q 573 845 394 961 Q 369 974 399 974 Q 471 974 612 866 Q 615 857 669 819 Q 682 807 680 797 Q 679 782 652 771 Q 624 756 610 758 Q 601 759 597 773 Z"/>
  <path id="z34652d15" d="M 795 807 Q 855 868 925 958 Q 941 980 958 987 Q 967 988 976 978 Q 991 965 980 916 Q 967 846 799 774 Q 789 767 786 781 Q 785 796 795 807 Z"/>
<defs>
  <clipPath id="z34652c1"><use href="#z34652d1"/></clipPath>
  <clipPath id="z34652c2"><use href="#z34652d2"/></clipPath>
  <clipPath id="z34652c3"><use href="#z34652d3"/></clipPath>
  <clipPath id="z34652c4"><use href="#z34652d4"/></clipPath>
  <clipPath id="z34652c5"><use href="#z34652d5"/></clipPath>
  <clipPath id="z34652c6"><use href="#z34652d6"/></clipPath>
  <clipPath id="z34652c7"><use href="#z34652d7"/></clipPath>
  <clipPath id="z34652c8"><use href="#z34652d8"/></clipPath>
  <clipPath id="z34652c9"><use href="#z34652d9"/></clipPath>
  <clipPath id="z34652c10"><use href="#z34652d10"/></clipPath>
  <clipPath id="z34652c11"><use href="#z34652d11"/></clipPath>
  <clipPath id="z34652c12"><use href="#z34652d12"/></clipPath>
  <clipPath id="z34652c13"><use href="#z34652d13"/></clipPath>
  <clipPath id="z34652c14"><use href="#z34652d14"/></clipPath>
  <clipPath id="z34652c15"><use href="#z34652d15"/></clipPath>
</defs>
<path style="--d:1s;" pathLength="3333" clip-path="url(#z34652c1)" d="M 55 409 L 122 581"/>
<path style="--d:2s;" pathLength="3333" clip-path="url(#z34652c2)" d="M 107 415 L 318 408 L 278 494"/>
<path style="--d:3s;" pathLength="3333" clip-path="url(#z34652c3)" d="M 139 563 L 318 527"/>
<path style="--d:4s;" pathLength="3333" clip-path="url(#z34652c4)" d="M 163 198 L 210 253 L 184 671"/>
<path style="--d:5s;" pathLength="3333" clip-path="url(#z34652c5)" d="M 49 732 L 285 646"/>
<path style="--d:6s;" pathLength="3333" clip-path="url(#z34652c6)" d="M 286 596 L 335 704"/>
<path style="--d:7s;" pathLength="3333" clip-path="url(#z34652c7)" d="M 655 50 L 679 99 L 472 312"/>
<path style="--d:8s;" pathLength="3333" clip-path="url(#z34652c8)" d="M 666 179 L 848 177 L 709 329"/>
<path style="--d:9s;" pathLength="3333" clip-path="url(#z34652c9)" d="M 533 340 L 552 734"/>
<path style="--d:10s;" pathLength="3333" clip-path="url(#z34652c10)" d="M 588 355 L 903 347 L 915 363 L 905 734"/>
<path style="--d:11s;" pathLength="3333" clip-path="url(#z34652c11)" d="M 592 481 L 797 451"/>
<path style="--d:12s;" pathLength="3333" clip-path="url(#z34652c12)" d="M 588 597 L 797 571"/>
<path style="--d:13s;" pathLength="3333" clip-path="url(#z34652c13)" d="M 578 711 L 859 693"/>
<path style="--d:14s;" pathLength="3333" clip-path="url(#z34652c14)" d="M 660 799 L 404 965"/>
<path style="--d:15s;" pathLength="3333" clip-path="url(#z34652c15)" d="M 797 787 L 960 971"/>
</svg>