<svg id="z12577" class="acjk" viewBox="0 0 1024 1024" xmlns="http://www.w3.org/2000/svg">
<style>
<![CDATA[
@keyframes zk {
	to {
		stroke-dashoffset:0;
	}
}
svg.acjk path[clip-path] {
	--t:0.8s;
	animation:zk var(--t) linear forwards var(--d);
	stroke-dasharray:3337;
	stroke-dashoffset:3339;
	stroke-width:128;
	stroke-linecap:round;
	stroke-linejoin:round;
	fill:none;
	stroke:#000;
}
svg.acjk path[id] {fill:#ccc;}
]]>
</style>
  <path id="z12577d1" d="M 524 500 L 579 427 Q 592 409 616 371 Q 640 333 646 321 Q 653 309 668 279 Q 683 248 688 236 L 704 191 Q 712 169 712 157 Q 712 146 708 141 Q 703 136 678 138 L 427 155 Q 401 157 359 163 Q 316 169 278 177 Q 239 186 228 189 Q 217 192 213 192 Q 203 192 187 183 Q 170 174 158 162 Q 146 151 138 141 Q 129 130 127 122 Q 126 113 134 107 Q 143 101 181 100 L 267 97 Q 317 96 547 76 L 642 67 Q 699 62 729 52 Q 759 42 767 42 Q 797 41 836 81 Q 874 120 878 144 Q 881 168 876 183 Q 872 191 868 196 L 842 215 Q 833 222 825 233 Q 817 243 789 284 Q 762 324 705 403 L 597 555 L 548 617 Q 505 664 478 691 Q 451 718 396 763 Q 341 808 281 844 Q 220 880 167 901 Q 113 921 88 926 L 49 933 Q 38 935 35 931 Q 32 927 34 924 Q 36 920 44 916 L 79 896 Q 209 823 274 765 Q 339 708 382 665 Q 426 622 432 614 L 478 559 L 524 500"/>
  <path id="z12577d2" d="M 478 559 L 274 397 Q 248 378 237 370 L 201 344 Q 193 338 186 334 Q 178 330 177 326 Q 177 322 179 319 Q 182 316 191 316 Q 201 316 213 320 L 243 331 Q 305 355 524 500 L 597 555 L 736 655 Q 817 713 852 737 Q 888 761 910 778 Q 932 796 952 821 Q 971 847 977 885 Q 983 924 983 946 Q 984 968 976 973 Q 969 977 961 977 Q 933 978 888 937 L 809 863 Q 779 836 698 758 Q 617 679 548 617 L 478 559"/>
<defs>
  <clipPath id="z12577c1"><use href="#z12577d1"/></clipPath>
  <clipPath id="z12577c2"><use href="#z12577d2"/></clipPath>
</defs>
<path style="--d:1s;" pathLength="3333" clip-path="url(#z12577c1)" d="M 142 142 L 470 95 L 784 95 L 825 163 L 753 180 L 769 224 L 417 707 L 73 913"/>
<path style="--d:2s;" pathLength="3333" clip-path="url(#z12577c2)" d="M 204 321 L 428 485 L 829 796 L 911 839 L 856 873 L 955 923"/>
</svg>