<svg id="z12569" class="acjk" viewBox="0 0 1024 1024" xmlns="http://www.w3.org/2000/svg">
<style>
<![CDATA[
@keyframes zk {
	to {
		stroke-dashoffset:0;
	}
}
svg.acjk path[clip-path] {
	--t:0.8s;
	animation:zk var(--t) linear forwards var(--d);
	stroke-dasharray:3337;
	stroke-dashoffset:3339;
	stroke-width:128;
	stroke-linecap:round;
	stroke-linejoin:round;
	fill:none;
	stroke:#000;
}
svg.acjk path[id] {fill:#ccc;}
]]>
</style>
  <path id="z12569d1" d="M 735 721 L 544 747 L 368 775 Q 279 790 257 795 Q 235 800 188 815 Q 142 830 124 830 Q 106 830 93 822 Q 80 815 59 793 Q 38 771 38 749 Q 38 739 43 731 Q 48 724 75 696 Q 101 668 162 570 Q 224 472 260 407 Q 296 343 329 273 Q 361 204 375 168 Q 390 131 398 104 Q 405 76 409 68 Q 412 59 419 52 Q 427 46 446 46 Q 460 46 474 53 Q 488 59 509 79 Q 530 100 536 112 Q 542 125 542 134 Q 543 143 535 157 Q 531 164 521 178 Q 512 192 493 220 Q 474 247 468 257 Q 461 266 408 349 Q 355 432 352 439 L 246 614 Q 227 645 219 661 Q 211 678 205 690 Q 200 703 203 708 Q 207 713 213 713 Q 220 714 245 711 L 719 663 Q 802 687 735 721"/>
  <path id="z12569d2" d="M 719 663 L 680 545 Q 675 529 674 524 Q 674 519 678 516 Q 683 512 695 521 L 723 544 Q 752 568 766 580 Q 781 593 806 621 Q 831 650 845 678 Q 858 705 860 740 Q 861 775 855 804 Q 846 852 822 853 Q 806 853 792 840 Q 778 828 761 783 L 735 721 L 719 663"/>
<defs>
  <clipPath id="z12569c1"><use href="#z12569d1"/></clipPath>
  <clipPath id="z12569c2"><use href="#z12569d2"/></clipPath>
</defs>
<path style="--d:1s;" pathLength="3333" clip-path="url(#z12569c1)" d="M 455 100 L 485 145 L 429 163 L 439 240 L 397 245 L 89 771 L 731 703"/>
<path style="--d:2s;" pathLength="3333" clip-path="url(#z12569c2)" d="M 713 539 L 839 805"/>
</svg>