<svg id="z12556" class="acjk" viewBox="0 0 1024 1024" xmlns="http://www.w3.org/2000/svg">
<style>
<![CDATA[
@keyframes zk {
	to {
		stroke-dashoffset:0;
	}
}
svg.acjk path[clip-path] {
	--t:0.8s;
	animation:zk var(--t) linear forwards var(--d);
	stroke-dasharray:3337;
	stroke-dashoffset:3339;
	stroke-width:128;
	stroke-linecap:round;
	stroke-linejoin:round;
	fill:none;
	stroke:#000;
}
svg.acjk path[id] {fill:#ccc;}
]]>
</style>
  <path id="z12556d1" d="M 462 380 L 233 407 Q 211 410 195 413 Q 178 417 174 416 Q 151 415 131 388 Q 111 362 113 347 Q 113 340 116 335 Q 120 331 139 309 Q 158 288 170 263 Q 182 239 191 217 Q 199 196 202 185 Q 206 174 208 158 Q 211 141 212 133 Q 212 125 213 108 Q 213 100 212 93 Q 211 86 212 77 Q 213 68 236 69 Q 271 71 293 91 Q 314 112 314 133 Q 313 142 308 157 Q 302 172 276 223 L 232 308 L 225 320 Q 224 324 229 328 Q 233 331 263 328 L 342 321 Q 419 315 489 302 L 582 295 L 677 285 Q 734 279 746 277 Q 758 274 780 268 Q 802 262 813 262 Q 832 262 856 273 Q 880 285 893 300 Q 907 316 911 325 Q 914 335 914 347 Q 913 352 908 381 Q 902 410 897 436 L 886 502 Q 872 582 855 638 Q 839 695 794 789 Q 750 883 682 933 Q 614 983 572 982 Q 546 981 540 972 Q 534 962 533 951 Q 531 940 529 935 Q 527 930 511 907 Q 494 884 468 860 L 455 848 Q 448 843 450 840 Q 452 837 457 839 L 474 845 Q 493 852 523 859 Q 554 866 571 866 Q 599 867 623 857 Q 646 846 670 822 Q 693 797 710 769 Q 726 741 743 701 Q 759 662 767 636 Q 775 610 785 569 Q 794 528 800 499 Q 806 471 809 449 Q 812 428 813 410 Q 815 392 815 382 Q 815 371 812 363 Q 809 355 800 349 Q 790 344 753 347 L 562 367 L 462 380"/>
  <path id="z12556d2" d="M 489 302 Q 505 261 518 218 Q 531 174 536 151 Q 540 128 542 116 Q 543 104 544 95 Q 544 87 542 74 Q 541 62 541 58 Q 540 53 542 49 Q 546 39 559 39 Q 580 39 605 52 Q 630 64 636 75 Q 642 86 642 98 Q 641 106 639 114 Q 637 123 632 137 Q 627 151 624 161 L 613 196 L 582 295 L 562 367 Q 525 458 508 496 Q 491 534 427 649 Q 363 765 271 833 Q 180 901 129 911 L 115 914 Q 108 915 105 912 Q 103 908 106 905 L 116 898 Q 142 879 172 850 Q 202 821 249 761 Q 296 700 332 642 Q 369 585 401 520 Q 432 456 439 438 L 462 380 L 489 302"/>
<defs>
  <clipPath id="z12556c1"><use href="#z12556d1"/></clipPath>
  <clipPath id="z12556c2"><use href="#z12556d2"/></clipPath>
</defs>
<path style="--d:1s;" pathLength="3333" clip-path="url(#z12556c1)" d="M 274 97 L 150 344 L 224 391 L 819 275 L 850 341 L 819 665 L 603 954 L 463 854"/>
<path style="--d:2s;" pathLength="3333" clip-path="url(#z12556c2)" d="M 600 55 L 503 369 L 376 640 L 125 909"/>
</svg>