<svg id="z169855" class="acjk" viewBox="0 0 1024 1024" xmlns="http://www.w3.org/2000/svg">
  <path id="z169855d1" d="M 148 455 Q 197 356 244 216 L 250 196 Q 255 178 261 169 Q 270 154 252 136 Q 226 111 207 122 Q 202 125 204 136 Q 223 212 138 410 Q 133 416 131 424 Q 104 478 37 584 Q 32 590 39 591 Q 52 585 114 510 Q 115 507 132 483 L 148 455 Z"/>
  <path id="z169855d2" d="M 244 216 Q 248 220 256 228 Q 277 247 300 271 Q 307 278 315 277 Q 320 276 322 267 Q 323 257 318 237 Q 309 207 251 196 L 250 196 C 229 193 226 199 244 216 Z"/>
  <path id="z169855d3" d="M 232 332 Q 266 371 275 371 Q 282 370 283 358 Q 283 349 277 338 Q 264 316 232 315 Q 228 315 228 322 Q 228 328 232 332 Z"/>
  <path id="z169855d4" d="M 245 637 Q 255 652 262 656 Q 267 662 276 645 Q 283 624 294 516 Q 297 492 309 472 Q 316 462 309 452 Q 300 440 277 423 Q 263 419 178 463 Q 174 464 170 468 C 151 480 157 498 177 491 Q 180 491 184 489 Q 246 452 258 459 Q 267 466 265 483 Q 256 597 248 610 C 240 630 240 630 245 637 Z"/>
  <path id="z169855d5" d="M 175 576 Q 177 577 180 576 Q 212 566 235 559 Q 247 555 242 545 Q 235 535 221 533 Q 200 533 175 555 C 156 570 155 572 175 576 Z"/>
  <path id="z169855d6" d="M 173 655 Q 179 655 187 654 Q 206 645 245 637 C 267 633 267 624 248 610 Q 247 609 245 608 Q 236 602 221 610 Q 193 623 173 632 C 153 641 152 655 173 655 Z"/>
  <path id="z169855d7" d="M 237 749 Q 220 762 182 799 Q 177 803 175 801 Q 171 798 172 783 Q 172 710 173 655 L 173 632 Q 174 599 175 576 L 175 555 Q 175 504 177 491 C 179 475 179 475 170 468 Q 165 461 148 455 C 128 446 121 457 132 483 Q 140 501 145 525 Q 149 553 150 656 Q 150 740 139 788 Q 136 819 115 854 Q 108 864 113 883 Q 119 907 128 917 Q 135 924 143 912 Q 167 863 243 762 C 258 741 255 734 237 749 Z"/>
  <path id="z169855d8" d="M 243 762 Q 267 813 273 816 Q 278 817 282 810 Q 287 801 287 780 Q 287 747 231 698 Q 225 692 221 693 Q 218 694 218 703 Q 218 710 237 749 L 243 762 Z"/>
  <path id="z169855d9" d="M 393 396 Q 392 395 390 396 Q 371 396 355 396 Q 338 397 346 381 Q 374 306 402 251 Q 409 238 407 232 Q 406 222 385 201 Q 376 191 367 195 Q 362 198 365 209 Q 376 246 330 364 Q 323 377 313 393 Q 304 403 305 413 Q 308 426 315 439 Q 321 446 327 440 Q 346 421 386 413 C 407 408 414 396 393 396 Z"/>
  <path id="z169855d10" d="M 640 38 Q 635 38 633 47 Q 633 64 649 81 Q 681 133 706 147 Q 711 148 717 146 Q 730 135 727 104 Q 721 79 707 65 Q 669 32 640 38 Z"/>
  <path id="z169855d11" d="M 767 215 Q 786 209 827 207 Q 901 203 969 213 Q 988 213 991 200 Q 992 191 986 182 Q 964 157 935 139 Q 927 133 910 140 Q 868 156 837 162 Q 791 170 747 178 Q 664 194 510 225 Q 464 235 423 235 Q 414 235 414 245 Q 416 272 461 294 Q 468 295 485 286 Q 562 245 740 219 L 767 215 Z"/>
  <path id="z169855d12" d="M 648 346 Q 648 344 647 342 Q 643 311 614 286 Q 593 268 584 270 L 582 272 Q 577 286 588 305 Q 606 357 625 376 Q 629 378 632 378 Q 646 379 648 346 Z"/>
  <path id="z169855d13" d="M 729 382 Q 732 375 737 369 L 768 313 Q 774 299 788 281 Q 809 261 768 215 L 767 215 C 750 198 730 192 740 219 L 740 221 Q 752 246 709 364 Q 701 378 698 392 C 691 420 717 407 729 382 Z"/>
  <path id="z169855d14" d="M 539 421 Q 538 419 531 415 Q 513 403 502 403 Q 491 407 496 421 Q 532 532 494 752 Q 492 762 489 775 Q 479 807 478 813 Q 470 849 491 887 Q 497 903 506 897 Q 533 870 538 738 Q 546 502 552 462 C 555 433 555 433 539 421 Z"/>
  <path id="z169855d15" d="M 552 462 Q 562 462 575 458 Q 640 442 657 439 L 685 432 Q 706 426 728 419 Q 801 397 811 395 Q 824 395 830 405 Q 842 415 845 552 Q 849 695 846 828 Q 846 858 836 864 Q 827 872 791 862 Q 776 858 777 868 Q 778 878 788 885 Q 823 932 842 970 Q 860 993 870 989 Q 879 986 889 955 Q 903 904 903 829 Q 891 586 891 501 Q 891 476 895 456 Q 896 450 903 421 Q 908 407 902 396 Q 898 389 886 377 Q 852 341 829 346 Q 795 362 729 382 L 698 392 Q 619 411 539 421 C 518 424 530 466 552 462 Z"/>
  <path id="z169855d16" d="M 662 578 Q 633 584 603 588 Q 581 591 596 606 Q 624 627 659 613 L 692 603 Q 792 576 798 568 Q 801 564 801 560 Q 801 546 781 539 Q 774 538 771 538 Q 757 538 697 566 L 662 578 Z"/>
  <path id="z169855d17" d="M 657 439 Q 665 466 665 516 Q 664 537 662 578 L 659 613 L 649 719 C 646 749 671 741 675 712 L 692 603 L 697 566 Q 700 535 706 511 L 717 473 Q 718 464 708 450 Q 696 439 685 432 C 666 419 650 411 657 439 Z"/>
  <path id="z169855d18" d="M 622 723 L 616 720 Q 594 709 589 716 Q 586 720 590 734 Q 607 786 615 849 Q 617 872 625 885 Q 635 902 637 890 Q 641 880 639 860 L 636 831 Q 629 762 628 748 C 625 725 625 725 622 723 Z"/>
  <path id="z169855d19" d="M 649 719 Q 637 719 622 723 C 601 728 606 751 628 748 Q 636 748 678 736 Q 723 724 728 736 Q 729 738 729 744 Q 729 768 720 808 C 713 837 743 845 750 817 Q 763 765 776 750 Q 792 729 778 715 L 749 687 Q 738 678 727 686 Q 715 694 704 699 L 675 712 L 649 719 Z"/>
  <path id="z169855d20" d="M 639 860 Q 647 860 655 858 Q 696 848 754 844 Q 762 842 762 836 Q 762 831 750 817 L 720 808 Q 715 808 710 811 Q 674 824 636 831 C 615 835 618 861 639 860 Z"/>
<defs>
  <clipPath id="z169855c1"><use href="#z169855d1"/></clipPath>
  <clipPath id="z169855c2"><use href="#z169855d2"/></clipPath>
  <clipPath id="z169855c3"><use href="#z169855d3"/></clipPath>
  <clipPath id="z169855c4"><use href="#z169855d4"/></clipPath>
  <clipPath id="z169855c5"><use href="#z169855d5"/></clipPath>
  <clipPath id="z169855c6"><use href="#z169855d6"/></clipPath>
  <clipPath id="z169855c7"><use href="#z169855d7"/></clipPath>
  <clipPath id="z169855c8"><use href="#z169855d8"/></clipPath>
  <clipPath id="z169855c9"><use href="#z169855d9"/></clipPath>
  <clipPath id="z169855c10"><use href="#z169855d10"/></clipPath>
  <clipPath id="z169855c11"><use href="#z169855d11"/></clipPath>
  <clipPath id="z169855c12"><use href="#z169855d12"/></clipPath>
  <clipPath id="z169855c13"><use href="#z169855d13"/></clipPath>
  <clipPath id="z169855c14"><use href="#z169855d14"/></clipPath>
  <clipPath id="z169855c15"><use href="#z169855d15"/></clipPath>
  <clipPath id="z169855c16"><use href="#z169855d16"/></clipPath>
  <clipPath id="z169855c17"><use href="#z169855d17"/></clipPath>
  <clipPath id="z169855c18"><use href="#z169855d18"/></clipPath>
  <clipPath id="z169855c19"><use href="#z169855d19"/></clipPath>
  <clipPath id="z169855c20"><use href="#z169855d20"/></clipPath>
</defs>
<path style="--d:1s;" pathLength="3333" clip-path="url(#z169855c1)" d="M 214 132 L 40 586"/>
<path style="--d:2s;" pathLength="3333" clip-path="url(#z169855c2)" d="M 251 202 L 312 263"/>
<path style="--d:3s;" pathLength="3333" clip-path="url(#z169855c3)" d="M 235 323 L 274 360"/>
<path style="--d:4s;" pathLength="3333" clip-path="url(#z169855c4)" d="M 176 471 L 286 465 L 266 642"/>
<path style="--d:5s;" pathLength="3333" clip-path="url(#z169855c5)" d="M 177 571 L 237 550"/>
<path style="--d:6s;" pathLength="3333" clip-path="url(#z169855c6)" d="M 176 649 L 243 616"/>
<path style="--d:7s;" pathLength="3333" clip-path="url(#z169855c7)" d="M 140 485 L 146 857 L 236 758"/>
<path style="--d:8s;" pathLength="3333" clip-path="url(#z169855c8)" d="M 225 702 L 275 806"/>
<path style="--d:9s;" pathLength="3333" clip-path="url(#z169855c9)" d="M 372 204 L 343 411 L 385 400"/>
<path style="--d:10s;" pathLength="3333" clip-path="url(#z169855c10)" d="M 642 50 L 712 130"/>
<path style="--d:11s;" pathLength="3333" clip-path="url(#z169855c11)" d="M 421 245 L 920 172 L 981 197"/>
<path style="--d:12s;" pathLength="3333" clip-path="url(#z169855c12)" d="M 587 277 L 633 359"/>
<path style="--d:13s;" pathLength="3333" clip-path="url(#z169855c13)" d="M 745 222 L 703 386"/>
<path style="--d:14s;" pathLength="3333" clip-path="url(#z169855c14)" d="M 503 415 L 501 884"/>
<path style="--d:15s;" pathLength="3333" clip-path="url(#z169855c15)" d="M 545 426 L 864 406 L 860 931 L 784 869"/>
<path style="--d:16s;" pathLength="3333" clip-path="url(#z169855c16)" d="M 598 596 L 793 560"/>
<path style="--d:17s;" pathLength="3333" clip-path="url(#z169855c17)" d="M 662 443 L 652 712"/>
<path style="--d:18s;" pathLength="3333" clip-path="url(#z169855c18)" d="M 594 721 L 632 885"/>
<path style="--d:19s;" pathLength="3333" clip-path="url(#z169855c19)" d="M 628 727 L 752 736 L 726 802"/>
<path style="--d:20s;" pathLength="3333" clip-path="url(#z169855c20)" d="M 642 852 L 757 836"/>
</svg>