<svg id="z34670" class="acjk" viewBox="0 0 1024 1024" xmlns="http://www.w3.org/2000/svg">
  <path id="z34670d1" d="M 155 365 Q 145 361 118 356 Q 108 355 104 358 Q 100 364 107 378 Q 134 429 151 513 Q 154 538 169 554 Q 185 573 190 559 Q 194 546 192 524 L 187 494 Q 171 418 169 392 C 167 369 167 369 155 365 Z"/>
  <path id="z34670d2" d="M 400 465 Q 421 398 447 375 Q 462 359 448 342 Q 373 294 326 322 Q 313 326 301 332 L 254 346 Q 203 356 155 365 C 126 371 139 397 169 392 Q 172 392 255 377 L 300 368 Q 316 364 338 359 Q 354 355 361 361 Q 370 368 368 384 Q 364 424 356 460 C 350 489 391 494 400 465 Z"/>
  <path id="z34670d3" d="M 297 510 Q 345 503 413 496 Q 423 495 424 487 Q 424 480 400 465 L 356 460 Q 355 459 352 460 Q 322 467 298 474 L 255 484 Q 218 490 187 494 C 157 498 162 527 192 524 Q 195 524 255 516 L 297 510 Z"/>
  <path id="z34670d4" d="M 293 640 Q 294 573 297 510 L 298 474 Q 299 420 300 368 L 301 332 Q 301 257 320 181 Q 323 171 303 155 Q 267 137 242 134 Q 226 130 218 139 Q 211 146 219 162 Q 249 204 249 233 Q 252 288 254 346 L 255 377 Q 256 429 255 484 L 255 516 Q 254 583 251 654 C 250 684 292 670 293 640 Z"/>
  <path id="z34670d5" d="M 370 612 Q 333 625 293 640 L 251 654 Q 196 670 139 689 Q 121 696 92 695 Q 80 696 78 707 Q 77 720 86 727 Q 108 742 140 759 Q 150 760 161 753 Q 189 729 354 649 Q 369 642 381 633 C 406 616 398 602 370 612 Z"/>
  <path id="z34670d6" d="M 381 633 Q 403 675 414 680 Q 421 683 430 675 Q 437 665 439 641 Q 440 610 372 561 Q 362 554 356 554 Q 352 555 349 565 Q 349 569 370 612 L 381 633 Z"/>
  <path id="z34670d7" d="M 561 190 Q 591 138 611 109 Q 620 97 606 84 Q 567 57 542 59 Q 532 62 535 75 Q 547 156 446 279 Q 437 289 433 297 Q 426 310 439 306 Q 484 297 547 212 L 561 190 Z"/>
  <path id="z34670d8" d="M 547 212 Q 548 212 551 214 Q 599 235 651 222 Q 828 180 832 177 Q 841 168 835 160 Q 828 148 798 141 Q 767 137 736 149 Q 699 162 659 173 Q 613 183 561 190 C 531 194 520 200 547 212 Z"/>
  <path id="z34670d9" d="M 544 306 Q 534 300 510 294 Q 498 290 495 295 Q 488 299 495 316 Q 517 377 526 477 Q 527 507 542 528 Q 557 550 563 536 Q 566 529 568 518 L 570 489 Q 567 476 564 427 L 562 400 Q 558 348 558 332 C 558 313 558 313 544 306 Z"/>
  <path id="z34670d10" d="M 689 507 Q 690 508 691 510 Q 710 543 733 517 Q 748 499 755 457 Q 759 373 790 333 Q 803 315 790 301 Q 772 285 743 267 Q 728 260 712 266 Q 633 293 544 306 C 514 311 529 339 558 332 Q 562 331 570 329 Q 696 301 711 310 Q 718 314 716 338 Q 709 404 703 460 Q 702 473 695 479 C 684 499 684 499 689 507 Z"/>
  <path id="z34670d11" d="M 564 427 Q 622 415 665 410 Q 684 406 677 395 Q 667 382 645 379 Q 603 376 562 400 C 536 415 535 433 564 427 Z"/>
  <path id="z34670d12" d="M 568 518 Q 637 511 689 507 C 719 505 723 491 695 479 Q 686 475 675 472 Q 648 466 570 489 C 541 497 538 521 568 518 Z"/>
  <path id="z34670d13" d="M 583 586 Q 571 570 549 560 Q 531 553 522 554 Q 515 555 515 566 Q 519 629 431 724 Q 428 724 427 727 Q 400 755 334 810 Q 327 814 335 817 Q 396 817 522 684 L 539 663 Q 569 623 574 618 C 592 596 592 596 583 586 Z"/>
  <path id="z34670d14" d="M 616 775 Q 601 793 585 810 Q 533 853 397 890 Q 382 894 391 902 Q 398 908 426 906 Q 516 897 567 875 Q 613 854 650 813 L 678 776 Q 708 731 729 668 Q 738 634 758 618 Q 774 605 758 589 Q 739 571 706 557 Q 685 548 664 558 Q 630 577 583 586 C 554 592 544 622 574 618 Q 584 618 655 603 Q 674 597 674 620 Q 674 675 638 743 L 616 775 Z"/>
  <path id="z34670d15" d="M 522 684 Q 555 705 616 775 L 650 813 Q 752 928 794 927 Q 870 926 934 916 Q 967 912 964 902 Q 961 896 807 850 Q 750 829 678 776 L 638 743 Q 613 721 586 694 Q 562 670 539 663 C 511 651 498 667 522 684 Z"/>
<defs>
  <clipPath id="z34670c1"><use href="#z34670d1"/></clipPath>
  <clipPath id="z34670c2"><use href="#z34670d2"/></clipPath>
  <clipPath id="z34670c3"><use href="#z34670d3"/></clipPath>
  <clipPath id="z34670c4"><use href="#z34670d4"/></clipPath>
  <clipPath id="z34670c5"><use href="#z34670d5"/></clipPath>
  <clipPath id="z34670c6"><use href="#z34670d6"/></clipPath>
  <clipPath id="z34670c7"><use href="#z34670d7"/></clipPath>
  <clipPath id="z34670c8"><use href="#z34670d8"/></clipPath>
  <clipPath id="z34670c9"><use href="#z34670d9"/></clipPath>
  <clipPath id="z34670c10"><use href="#z34670d10"/></clipPath>
  <clipPath id="z34670c11"><use href="#z34670d11"/></clipPath>
  <clipPath id="z34670c12"><use href="#z34670d12"/></clipPath>
  <clipPath id="z34670c13"><use href="#z34670d13"/></clipPath>
  <clipPath id="z34670c14"><use href="#z34670d14"/></clipPath>
  <clipPath id="z34670c15"><use href="#z34670d15"/></clipPath>
</defs>
<path style="--d:1s;" pathLength="3333" clip-path="url(#z34670c1)" d="M 112 363 L 180 554"/>
<path style="--d:2s;" pathLength="3333" clip-path="url(#z34670c2)" d="M 163 369 L 406 364 L 364 454"/>
<path style="--d:3s;" pathLength="3333" clip-path="url(#z34670c3)" d="M 194 516 L 415 488"/>
<path style="--d:4s;" pathLength="3333" clip-path="url(#z34670c4)" d="M 230 148 L 280 213 L 256 646"/>
<path style="--d:5s;" pathLength="3333" clip-path="url(#z34670c5)" d="M 92 709 L 371 632"/>
<path style="--d:6s;" pathLength="3333" clip-path="url(#z34670c6)" d="M 358 563 L 418 668"/>
<path style="--d:7s;" pathLength="3333" clip-path="url(#z34670c7)" d="M 545 70 L 572 104 L 442 297"/>
<path style="--d:8s;" pathLength="3333" clip-path="url(#z34670c8)" d="M 552 207 L 827 168"/>
<path style="--d:9s;" pathLength="3333" clip-path="url(#z34670c9)" d="M 503 303 L 553 530"/>
<path style="--d:10s;" pathLength="3333" clip-path="url(#z34670c10)" d="M 553 310 L 753 319 L 700 502"/>
<path style="--d:11s;" pathLength="3333" clip-path="url(#z34670c11)" d="M 571 420 L 668 400"/>
<path style="--d:12s;" pathLength="3333" clip-path="url(#z34670c12)" d="M 576 511 L 687 485"/>
<path style="--d:13s;" pathLength="3333" clip-path="url(#z34670c13)" d="M 527 565 L 526 639 L 339 813"/>
<path style="--d:14s;" pathLength="3333" clip-path="url(#z34670c14)" d="M 576 613 L 713 610 L 554 857 L 397 898"/>
<path style="--d:15s;" pathLength="3333" clip-path="url(#z34670c15)" d="M 529 681 L 802 889 L 961 904"/>
</svg>